<svg width="300" height="480" xmlns="http://www.w3.org/2000/svg">
 <!-- Created with Method Draw - http://github.com/duopixel/Method-Draw/ -->

 <g>
  <title>background</title>
  <rect fill="#ffffff" id="canvas_background" height="482" width="302" y="-1" x="-1"/>
 </g>
 <g>
  <title>Layer 1</title>
  <line opacity="0.5" stroke="#005fbf" stroke-linecap="undefined" stroke-linejoin="undefined" id="svg_2" y2="40" x2="300" y1="40" x1="0" fill="none"/>
  <line opacity="0.5" stroke="#005fbf" stroke-linecap="undefined" stroke-linejoin="undefined" id="svg_3" y2="60" x2="300" y1="60" x1="0" fill="none"/>
  <line opacity="0.5" stroke="#005fbf" stroke-linecap="undefined" stroke-linejoin="undefined" id="svg_4" y2="80" x2="300" y1="80" x1="0" fill="none"/>
  <line opacity="0.5" stroke="#005fbf" stroke-linecap="undefined" stroke-linejoin="undefined" id="svg_5" y2="100" x2="300" y1="100" x1="0" fill="none"/>
  <line opacity="0.5" stroke="#005fbf" stroke-linecap="undefined" stroke-linejoin="undefined" id="svg_6" y2="120" x2="300" y1="120" x1="0" fill="none"/>
  <line opacity="0.5" stroke="#005fbf" stroke-linecap="undefined" stroke-linejoin="undefined" id="svg_7" y2="160" x2="300" y1="160" x1="0" fill="none"/>
  <line opacity="0.5" stroke="#005fbf" stroke-linecap="undefined" stroke-linejoin="undefined" id="svg_8" y2="140" x2="300" y1="140" x1="0" fill="none"/>
  <line opacity="0.5" stroke="#005fbf" stroke-linecap="undefined" stroke-linejoin="undefined" id="svg_9" y2="180" x2="300" y1="180" x1="0" fill="none"/>
  <line opacity="0.5" stroke="#005fbf" stroke-linecap="undefined" stroke-linejoin="undefined" id="svg_10" y2="200" x2="300" y1="200" x1="0" fill="none"/>
  <line opacity="0.5" stroke="#005fbf" stroke-linecap="undefined" stroke-linejoin="undefined" id="svg_11" y2="220" x2="300" y1="220" x1="0" fill="none"/>
  <line opacity="0.5" stroke="#005fbf" stroke-linecap="undefined" stroke-linejoin="undefined" id="svg_12" y2="240" x2="300" y1="240" x1="0" fill="none"/>
  <line opacity="0.5" stroke="#005fbf" stroke-linecap="undefined" stroke-linejoin="undefined" id="svg_13" y2="260" x2="300" y1="260" x1="0" fill="none"/>
  <line opacity="0.5" stroke="#005fbf" stroke-linecap="undefined" stroke-linejoin="undefined" id="svg_14" y2="280" x2="300" y1="280" x1="0" fill="none"/>
  <line opacity="0.5" stroke="#005fbf" stroke-linecap="undefined" stroke-linejoin="undefined" id="svg_15" y2="300" x2="300" y1="300" x1="0" fill="none"/>
  <line opacity="0.5" stroke="#005fbf" stroke-linecap="undefined" stroke-linejoin="undefined" id="svg_16" y2="320" x2="300" y1="320" x1="0" fill="none"/>
  <line opacity="0.5" stroke="#005fbf" stroke-linecap="undefined" stroke-linejoin="undefined" id="svg_17" y2="340" x2="300" y1="340" x1="0" fill="none"/>
  <line opacity="0.5" stroke="#005fbf" stroke-linecap="undefined" stroke-linejoin="undefined" id="svg_18" y2="360" x2="300" y1="360" x1="0" fill="none"/>
  <line opacity="0.5" stroke="#005fbf" stroke-linecap="undefined" stroke-linejoin="undefined" id="svg_19" y2="380" x2="300" y1="380" x1="0" fill="none"/>
  <line opacity="0.5" stroke="#005fbf" stroke-linecap="undefined" stroke-linejoin="undefined" id="svg_20" y2="400" x2="300" y1="400" x1="0" fill="none"/>
  <line opacity="0.5" stroke="#005fbf" stroke-linecap="undefined" stroke-linejoin="undefined" id="svg_21" y2="420" x2="300" y1="420" x1="0" fill="none"/>
  <line opacity="0.5" stroke="#005fbf" stroke-linecap="undefined" stroke-linejoin="undefined" id="svg_22" y2="440" x2="300" y1="440" x1="0" fill="none"/>
  <line opacity="0.5" stroke="#005fbf" stroke-linecap="undefined" stroke-linejoin="undefined" id="svg_23" y2="460" x2="300" y1="460" x1="0" fill="none"/>
 </g>
</svg>