<?xml version="1.0" encoding="utf-8"?>
<!-- Generator: Adobe Illustrator 24.0.3, SVG Export Plug-In . SVG Version: 6.00 Build 0)  -->
<svg version="1.1" id="Layer_1" xmlns="http://www.w3.org/2000/svg" xmlns:xlink="http://www.w3.org/1999/xlink" x="0px" y="0px"
	 viewBox="0 0 125 125" style="enable-background:new 0 0 125 125;" xml:space="preserve">
<style type="text/css">
	.st0{fill:#3BC3ED;stroke:#020202;stroke-width:0.75;stroke-miterlimit:10;}
	.st1{fill:#F4BC95;stroke:#020202;stroke-width:0.75;stroke-miterlimit:10;}
	.st2{fill:none;stroke:#020202;stroke-width:0.75;stroke-miterlimit:10;}
	.st3{fill:#BA9E27;stroke:#020202;stroke-width:0.75;stroke-miterlimit:10;}
	.st4{fill:#F7DE48;stroke:#020202;stroke-width:0.75;stroke-miterlimit:10;}
	.st5{fill:#FFFFFF;stroke:#000000;stroke-width:0.75;stroke-miterlimit:10;}
	.st6{fill:#EAE4E1;stroke:#020202;stroke-width:0.75;stroke-miterlimit:10;}
	.st7{fill:#0096FF;stroke:#020202;stroke-width:0.75;stroke-miterlimit:10;}
	.st8{fill:#FFFFFF;stroke:#020202;stroke-width:0.75;stroke-miterlimit:10;}
	.st9{fill:#020202;stroke:#020202;stroke-width:0.75;stroke-miterlimit:10;}
	.st10{fill:#634A26;stroke:#020202;stroke-width:0.75;stroke-miterlimit:10;}
	.st11{fill:#444131;stroke:#020202;stroke-width:0.75;stroke-miterlimit:10;}
</style>
<title>3 pipe</title>
<g id="person_3">
	<g id="sweater-2">
		<polyline class="st0" points="65.4,125 59.7,92.5 63.2,90.1 89.8,95.5 81.3,125 		"/>
	</g>
	<g id="face">
		<path id="face-2" class="st1" d="M86.8,61.8c0,0-0.5,8.9-0.7,9.6c-0.3,1.2-0.8,2.4-1.4,3.4c-3.6,6.4-9.2,13.9-17.4,12.5
			c-5.4-0.9-8.1-5.3-11.1-9.3c-2.7-3.6-4.1-6.5-4.3-7.4s-0.3-4.2-0.3-4.2l-0.5,0.1c0,0-0.1,0.9-0.9,1c-1.2,0.2-1.8-1.3-2.2-2.2
			c-0.5-1.5-0.3-3.1-0.8-4.6s-3-6.7-1-8c1.7-1.2,3.2,0.5,3.8,2c0.2,0.5,0.3,1,0.4,1.6l0.3-0.1c0,0,0-2.9,0-4.9
			c0.1-3.8-1.1-7.9,0.3-11.6c4.6-12,9-12.4,19.7-12.8c9.6-0.3,14.9,7.4,15.7,11c0.6,2.8,0.9,5.7,0.8,8.7c-0.1,2.6-0.5,9.2-0.5,9.2
			l0.3,0.1c0.4-1.1,0.8-2.2,1.3-3.2c0.5-0.8,1.5-1.1,2.4-0.7c0.7,0.4,0.9,1.3,0.7,2c-0.3,1-0.8,4-1,5.2c-0.1,0.9-0.1,1.8,0,2.6
			c0,0.8-0.3,3.6-1.5,3.6C88.3,65.4,86.5,65.4,86.8,61.8z"/>
	</g>
	<g id="nose-2">
		<path class="st2" d="M73.8,49c0.1,0.8,0.5,0.7,1.2,2.2s0.4,1.7,0.6,2.9s2.2,0.4,3.8,3.3c1,2,0.7,3.2,0.5,5.3
			c-0.1,1,0.1,3.4-0.5,4.2c-0.7,0.7-1.7,1-2.6,0.7c-2-0.4-5.1-1.1-6.5-2.7c-0.9-0.9,0-2.1-1.3-2.7c-0.9-0.4-2.6,0.3-3.2-0.7
			c-0.5-0.7-0.6-4.3,0.8-4"/>
	</g>
	<g id="raincoat">
		<polygon id="interior_raincoat" class="st3" points="37.5,58.9 46.8,53.6 54.6,86.4 36.3,86.4 32.5,71.1 		"/>
		<path class="st4" d="M74.7,125c0,0-6.3-24.6-8.6-27.4s-9.2-10.7-11.5-11.2c-2.8-0.5-5.5-1.6-7.9-3.1c-4-2.2-11.7-9.9-11.7-9.9
			s1.6-6.5,3.6-8.3s7.2-9.9,9.6-13.7s6.3-16.6,12.1-19.3s13.3-1,17.9-0.8s8.6,5.7,8.8,9.5c0.3,5.3,0.6,21,0.7,22.3
			c0.1,2.3-10.8,28.9-11.8,34.3s0.5,28.4,0.5,28.4h19.2h6.1l19.8,0.1c0.4-4.3-0.2-8.7-1.7-12.8c-2.5-6-4-6.5-6-10.3s-6-5.2-10.9-8.9
			s-11.7-8.3-11.7-8.3s0.2-5.2,0.2-8.7s-0.5-6,1-9.1s1.5-8.3,1.8-12.3s-0.8-10.8-1-14s-3-8.5-4.8-11.8s-3.7-5.8-8.8-8
			s-12.8-6.1-17.8-7.8s-7.8-2.9-11.5,0s-7,10.3-9,15.4c-1.7,4.4-4.9,11.2-6.5,14.7s-3.3,6.9-3.6,10.2s-1.1,6.4-3.9,10.9
			s4.8,12,4.6,14.9s-0.3,6.6-0.3,6.6c0,1-10.7,6.2-12.2,7.3c-4.1,2.9-7.4,6.8-9.5,11.4c-1.4,2.8-2.5,5.8-3.8,8.7
			c-1.1,2-1.6,4.4-1.4,6.7v4.1"/>
		<path class="st5" d="M89.9,91.9c0,0,3.9,9.8,5.4,14.6c1.2,3.7,2.7,9.9,2.3,11.2l0.8,5.2l-1,0.4l-0.8-5.3
			c-1.6-3.4-2.8-6.9-3.8-10.5c-1.4-4.7-3.1-9.3-5.2-13.7"/>
		<path class="st5" d="M44.7,91.1c0,4.3,0.3,8.6,0.9,12.9c0.8,4.3,1.6,10.5,1,11.9l0.2,6l-1.1,0.3l-0.1-6.2
			c-1.3-3.6-2.2-7.4-2.7-11.2c-0.5-4.4-0.7-8.9-0.6-13.3"/>
		<path class="st2" d="M87.8,86.9c0.7,0.4,1.4,0.9,2.1,1.4c0.6,0.5,1.2,1.1,1.6,1.8c0.1,0.1,0.2,0.2,0.2,0.3c0.2,0.5-2,1.8-2.3,2.1
			L87.7,94c-1.7,1.4-3.3,3-4.7,4.7c-1.2,1.6-2.1,3.3-2.7,5.2c-0.8,2.3-1.4,4.8-1.8,7.2c-0.6,3.3-1.5,6.6-2.4,9.8"/>
		<path class="st2" d="M50.4,89.1c2,5.1,3.7,10.3,5.1,15.6c2.8,10.2,6,20.3,6,20.3"/>
		<path class="st2" d="M35.1,73.5c0,0-1.5,3.3-0.7,5.9s0.4,2.1,1.6,5.5s5.4,7.1,5.4,7.1s7.5-1.9,9.1-3c0.7-0.5,1.4-1,2-1.6"/>
	</g>
	<g id="beard">
		<path class="st6" d="M86.2,55.3c0-1.5,0.4-3,1.2-4.4c1.1,3.2,1.9,6.5,2.3,9.8c0.1,0.9,0.2,2-0.6,2.5c1,1,1,2.6-0.1,3.6
			c0,0-0.1,0.1-0.1,0.1c0.7,2,0.2,4.2-1.3,5.7c0.1,1.1-0.2,2.1-0.8,3c0.6,0.4,1.1,1,1.4,1.7c0.3,0.7,0.1,1.5-0.4,2
			c1,0.7,1.6,1.9,1.5,3.1c-0.1,1.2-0.4,2.4-1,3.5c-0.3,0.9-0.8,1.6-1.5,2.3c-0.6,0.7-1.6,1-2.5,0.9c0.6,0.9,0.4,2-0.4,2.6
			c-0.7,0.7-1.6,1.2-2.3,1.9c-0.3,0.5-0.6,0.9-1,1.3c-0.6,0.5-1.4,0.7-2,1.2s-1,1.2-1.7,1.5c-1.3,0.7-2.9-0.2-4.1-1
			c-1,1.6-3.1,2-4.7,1c-0.4-0.3-0.8-0.6-1-1.1c-1.8,1.1-4.2,0.8-5.6-0.8c-1.6,0.5-3.8,0.9-4.8-0.6c-0.5-0.8-0.4-1.9-0.8-2.7
			s-1.3-1.3-1.7-2.1c-0.3-0.6-0.3-1.3-0.6-1.9c-0.2-0.4-0.5-0.8-0.8-1.2c-0.4-0.6-2.4-0.5-3.1-2.5c-0.6-1.6-1.1-3.2-1.5-4.9
			c-1.1-0.1-3.6-0.2-3.4-1.3c0.1-0.3,0.2-0.6,0.2-0.8c-0.1-0.5-0.3-0.9-0.6-1.3c-0.6-0.8-0.7-1.9-0.2-2.7c-1.8-0.8-2.4-1.6-2.3-3.5
			s1.4-4.2,0.3-5.7c-0.6-0.7,0.1-2.5,0-3.5s2.9-5.2,3.5-6.1c1.8-2.7,3.8-4.9,5.2-8.7c0.2,5.5,0.7,11.9,0.8,17.5
			c0.1,4,0.4,8.3,3.1,11.1c0.2,0.3,0.5,0.5,0.8,0.6c0.6,0.1,1.2,0,1.7-0.4c1.2-1,1.8-2.5,3.1-3.4c1.4-0.8,3-1.2,4.6-1.1l9.3-0.3
			c1.6-0.2,3.3,0.1,4.8,0.7c1.8,1,2.7,3.2,3.4,5.2c1-0.8,0.2-2.3,0.3-3.5s1.3-2.3,2.1-3.3c1.9-2.5,1.8-5.9,1.5-9.1
			C86.3,58.5,86.2,56.9,86.2,55.3z"/>
	</g>
	<g id="eyes-2">
		<path id="Eye" class="st7" d="M67.1,48.2c0,1.3-0.5,2.4-1.2,2.4s-1.2-1.1-1.2-2.4s0-2.4,1.2-2.4C66.7,45.8,67.1,46.9,67.1,48.2z"
			/>
		<path id="Eye-2" class="st7" d="M82.8,47.8c0,1.4-0.6,2.6-1.2,2.6s-1.2-1.2-1.2-2.6s0.1-2.5,1.2-2S82.8,46.3,82.8,47.8z"/>
		<path id="undereye" class="st2" d="M67.1,51.8c0,0-0.8,1.7-1.9,1.9c-1.2,0.1-2.3-0.4-3-1.3"/>
		<path id="undereye-2" class="st2" d="M78.1,52c0,0,1.5,2.2,2.7,2.2s2.5-2.1,2.6-2.5"/>
		<path id="eyebrow" class="st2" d="M78.2,41.6c1.7-1.7,2.4-0.8,4.5,0.8c0.7,0.7,1.5,1.2,2.3,1.8"/>
		<path id="eyebrow-2" class="st2" d="M70.3,43.9c-1-0.9-2.2-1.7-3.5-2.3c-2.3-1.2-5.3-3.1-7.6-0.8S57.6,45,56.4,45"/>
	</g>
	<path id="mouth" class="st8" d="M76.9,82.2c-0.8,0.3-1.8-0.5-2.3-0.9c-2-1.7-4.8-2.2-7.2-1.3c-2.6,0.9-3.5,3-4.3,1.5
		s0.5-3.1,1.1-4.4c0.7-1.6,3.1-1.8,4.6-1.9c1.8-0.1,4.2,0,5.7,1.3c1.1,0.9,1.9,2.1,2.6,3.3c0.3,0.5,0.5,1,0.6,1.6
		C77.5,81.8,77.2,82.1,76.9,82.2z"/>
	<g id="pipe">
		<polygon class="st9" points="69.4,75.3 57.6,97 52.8,94 64.1,76.4 		"/>
		<path class="st10" d="M56.4,88.2c0.8,0.1,1.5,0.4,2.2,0.7c0.9,0.5,1.6,1.3,2.1,2.2l-5.3,10.7l-3.2-6.7L56.4,88.2"/>
		<path class="st10" d="M41.9,95.4c0,0-0.5,5.6,1.3,8s5.3,2.6,7.8,2.3c2.1-0.3,3.8-1.9,4.4-3.9c0.4-1.5-0.6-8.8-1.2-9.8
			S41.9,94.6,41.9,95.4"/>
		<path class="st11" d="M51.1,89.7c-2.2-0.8-4.6-1.5-6.6,0.1c-1.2,0.9-3.8,4.1-2.7,5.7c1,1.4,3.6,2.5,7.3,1.9s5.1-3.3,4.8-4.8
			S54.5,91.1,51.1,89.7z"/>
		<path class="st5" d="M40.4,48.3c-0.3-1.1-0.6-0.7,0-3.4c0.5-2.2,1.7-3.5,0.4-5.7c-0.7-1-1.6-1.8-2.6-2.4c-4-2.9-5.9-3-4.8-5.8
			s2.2-2.3,1.7-3.7s-0.3-1.9-1.6-2s-0.4,0.1-2.4,0s-2,0-3.3,0c-0.9,0.1-1.8,0.1-2.7,0c-1.8-0.2-2.5,0.1-4.1-1.4s-2-3.8-4.4-1.9
			s-3.5,2.9-3.3,4.1s0.3,2.2,1.4,2s0-0.1,2.5,0s0.8-0.9,4.4,0.7s4,2,5.1,1.6s3.2-1.8,3,0.7s-1.9,4.2-0.1,5.5s0.5,1.5,3.7,1.9
			c1.2,0.2,2.7,0,3.8,0.5c1.6,0.8,2.3,2,2,3.5c-0.8,3.3-1.6,3.2-0.6,4.5c0.5,0.7,1,1.4,1.6,2"/>
	</g>
</g>
</svg>
