<?xml version="1.0" encoding="utf-8"?>
<!-- Generator: Adobe Illustrator 23.0.1, SVG Export Plug-In . SVG Version: 6.00 Build 0)  -->
<svg version="1.1" id="Layer_1" xmlns="http://www.w3.org/2000/svg" xmlns:xlink="http://www.w3.org/1999/xlink" x="0px" y="0px"
	 viewBox="0 0 125 124.5" style="enable-background:new 0 0 125 124.5;" xml:space="preserve">
<style type="text/css">
	.st0{fill:#E8D5AA;stroke:#020202;stroke-width:0.75;stroke-miterlimit:10;}
	.st1{fill:none;stroke:#231F20;stroke-width:0.75;stroke-miterlimit:10;}
	.st2{fill:#91E3F9;stroke:#020202;stroke-width:0.75;stroke-miterlimit:10;}
	.st3{fill:none;stroke:#020202;stroke-width:0.75;stroke-miterlimit:10;}
	.st4{fill:#F44711;stroke:#020202;stroke-width:0.75;stroke-miterlimit:10;}
	.st5{fill:#7F500B;stroke:#020202;stroke-width:0.75;stroke-miterlimit:10;}
	.st6{fill:#F7DE48;stroke:#020202;stroke-width:0.75;stroke-miterlimit:10;}
	.st7{fill:#0B0B7F;stroke:#020202;stroke-width:0.75;stroke-miterlimit:10;}
	.st8{fill:#3CAA33;stroke:#000000;stroke-width:0.75;stroke-miterlimit:10;}
	.st9{fill:#FFFFFF;stroke:#000000;stroke-width:0.75;stroke-miterlimit:10;}
</style>
<title>Artboard 54 copy 3</title>
<g id="Layer_149">
	<path id="neck-2" class="st0" d="M78.1,63.8c0,0-1.2,15.1-0.6,16.2c0.9,1.4,2.2,2.5,3.9,3c2.3,0.9,5.4,2.1,5.4,2.1
		s-4,26.9-8.9,29.8s-19.5,2.3-25.1,2.3C45,117,38.5,84,38.5,84s9.8-3.4,11.5-4.5s0.4-15.7,0.4-15.7L78.1,63.8z"/>
	<path id="face-2" class="st0" d="M81.8,53.7c0,0-0.5,8.8-0.7,9.5c-0.1,1.3-0.6,2.4-1.4,3.4c-4.6,5.7-7.7,12.4-15,12.4
		c-8.3,0-6.6-2.7-11.7-7.5c-1.9-1.8-4.7-4.9-5.8-7.3c-0.2-0.5-0.4-5.5-0.5-6.2l-0.4,0.3c0,0-0.1,0.9-0.9,1c-1.1,0.1-1.8-1.3-2.1-2.2
		c-0.5-1.5-0.3-3-0.3-4.7s-2.6-6.2,0-7.6c1.8-1,1.6,0.3,2.1,1.8c0.2,0.5,0.3,1,0.4,1.6l0.3-0.1c0,0,0-2.8,0-4.9
		c0.1-3.7-1-7.9,0.3-11.5c4.7-11.8,9-12.3,19.7-12.6c9.5-0.3,14.8,7.4,15.6,10.9c0.6,2.8,0.9,5.7,0.8,8.6l-0.5,9.1l0.3,0.1
		c0.4-1.1,0.8-2.1,1.3-3.2c0.5-0.8,1.5-1,2.3-0.6c0.6,0.4,0.9,1.1,0.7,1.8c-0.3,1-0.8,4-1,5.2c-0.1,0.9-0.1,1.7,0,2.6
		c0,0.8-0.3,3.5-1.5,3.5C83.2,57.3,81.5,57.3,81.8,53.7z"/>
	<path id="nose-4" class="st1" d="M63.9,54.5c0.9,0.7,2,1.1,3.1,1.4c5.8,0.5-2.7,5.3-3.7,3.4"/>
	<path class="st2" d="M121.6,125c0,0-4.7-20.2-6-23.6s-0.8-5.1-1.9-5.8s-6.2-5.1-8.1-5.8c-1.5-0.6-2.9-1.4-4.3-2.2
		c-2.1-1.1-4.2-2.3-6.4-3.4L92.9,83c-0.8-0.3-1.5-0.7-2.1-1.3c-0.1-0.2-0.2-0.4-0.3-0.6c-0.5-1.1-1.3-2.1-2.2-2.9
		c-0.9-0.8-2-1.4-2.8-2.3c-1.2-1.3-1.7-2.8-3.7-2.8c-1.4,0-2.9-0.1-4.3-0.2L77.3,79c0,0,0.2,1.8,2.7,3.4c1.4,0.9,1.3,2.4-0.2,4.8
		s-5.1,10-6.8,12c-2.2,2.3-4.6,4.3-7.3,6.1c-1,0.7-2.5,4.3-2.5,4.3s-7.1-7.4-7.9-9.6s-1-5.1-6.7-11.2c-2-2.1-4.9-4.1-4-6.5
		c0,0-0.2-0.5,2.4-1.4c4-1.4,3.4-1.9,3.4-1.9l0.4-6c0,0-6.5,2.1-8.4,3s-5.1,2.6-5.3,3.6s-2.1,2.6-2.1,2.6s-11.7,6.4-15.6,7.9
		s-9.9,5.3-10.2,6.4c-1,3.3-4.1,17.7-4.7,20.7s-1,7.7-1,7.7"/>
	<path class="st3" d="M35.1,82.2c0,0-4.4,6.6-4.4,7.2s6.7-0.6,7.8,0c1,0.6,1.9,1.5,2.4,2.6c0.4,0.9,4.7,2.7,6,4.4
		c1.9,2.3,9.5,5.2,9.5,5.2"/>
	<path class="st3" d="M90.4,81.1c0.7,2.1,1.2,4.2,1.6,6.4c0.2,2.3,1.7,4.3,0,4.3c-2,0-4-0.3-6-0.8c-1.1-0.4-2.4-0.1-3.2,0.8
		c0,0-5.7,12.4-15.4,12.4"/>
	<path class="st4" d="M63.3,109.7c0,0,0,13,0,15.3"/>
	<circle class="st5" cx="69.7" cy="114.7" r="1.9"/>
	<path id="mouth-4" class="st3" d="M66.8,67.3c-2.8,1.1-6,0.7-8.4-1"/>
	<path class="st1" d="M58.8,41.1c0,0-2.4-2.7-4.1,0.4S52.5,46,52.5,46"/>
	<path class="st1" d="M70.5,41.6c0,0,1.6-1.8,3.5,0.6c1.1,1.4,1.9,2.9,2.5,4.5"/>
	<path class="st3" d="M50,79.5c1.4,3.7,3.3,7,6.4,9.2c8.9,6.4,18.7-0.5,21.1-8.8"/>
	<g id="glasses-2">
		<path d="M83.4,43.3c-2.6-0.5-5.3-0.7-8-0.6c-3.2,0.4-6.4,1-9.5,1.8c-0.8,0.2-1.6,0.3-2.4,0.4c-1.1-0.1-2.2-0.4-3.3-0.7
			c-2.1-0.6-4.3-1-6.5-1.2c-2.6-0.2-5.1-0.2-7.7-0.1c-2.5,0.3-2.8,0.5-2.8,0.7l0.4,2.5c0.2,0.1,0.4,0.1,0.5,0.2
			c0.2,0.1,0.3,0.3,0.4,0.5c0.1,0.2,1.5,5.3,1.6,5.5c0.2,0.5,0.5,1,0.8,1.4c0.6,0.6,1.3,1.1,2.1,1.4c0.9,0.3,1.8,0.5,2.8,0.6
			c1.1,0.1,2.2,0.1,3.2-0.1c1.2-0.3,2.3-0.8,3.3-1.6c0.9-0.9,1.6-1.8,2.2-2.9c0.3-0.8,1.3-3.2,1.5-3.5c0.3-0.4,0.8-0.6,1.3-0.6
			c0.6,0,1.1,0.3,1.3,0.8c0.3,0.6,1.1,2.8,1.8,4c0.8,1.7,2.3,2.9,4.1,3.4c2,0.6,4.1,0.5,6.2-0.1c0.8-0.2,1.6-0.6,2.3-1.1
			c0.5-0.4,0.9-1,1.2-1.5c0.3-0.6,1.2-4.1,1.3-4.4c0.1-0.7,0.4-1.3,0.7-1.9c0.2-0.2,0.5-0.3,0.7-0.4l0.4-2.5
			C83.5,43.4,83.4,43.3,83.4,43.3z M58.9,50.2c-0.5,1.1-1.2,2.1-2,3c-1.3,0.8-2.8,1.2-4.4,1c-1.4,0-2.7-0.3-3.9-1
			c-0.8-0.4-1.2-1.5-1.6-2.5c-0.4-1.4-0.5-2.9-0.5-4.3v-0.2c0-0.4,0.2-0.8,0.5-1.1c1-0.9,2.5-0.9,3.7-1c1.4-0.1,2.8,0,4.2,0.2
			c1.3,0.2,4.3,0.5,4.5,2.4C59.4,47.9,59.3,49.1,58.9,50.2z M79.4,50.8c-0.4,1.1-0.8,2.2-1.6,2.5c-1.2,0.7-2.5,1-3.9,1
			c-1.5,0.2-3.1-0.2-4.4-1c-0.8-0.9-1.5-1.9-2-3c-0.4-1.1-0.6-2.2-0.6-3.3c0.2-1.4,2.1-2.1,3.2-2.3c1.6-0.3,3.3-0.5,5-0.5
			c1.3,0,3.1,0,4.2,1c0.3,0.3,0.5,0.7,0.5,1.1v0.2C79.9,47.9,79.8,49.4,79.4,50.8z"/>
		<path d="M46.5,44.8c-0.3,0.3-0.5,0.8-0.5,1.2v0.2c-0.1,1.6,0.1,3.2,0.5,4.8c0.4,1.1,0.8,2.4,1.8,2.8c1.3,0.7,2.8,1.1,4.3,1.1
			c1.7,0.2,3.4-0.2,4.8-1.1c0.9-1,1.7-2.1,2.2-3.3c0.4-1.2,0.6-2.5,0.6-3.8c-0.3-2-3.5-2.4-4.9-2.6c-1.5-0.2-3.1-0.3-4.6-0.3
			C49.2,43.8,47.5,43.8,46.5,44.8z"/>
		<path d="M79.4,45.2c0.3,0.3,0.5,0.7,0.5,1.1v0.2c0.1,1.5-0.1,2.9-0.5,4.3c-0.4,1-0.8,2.2-1.6,2.5c-1.2,0.7-2.5,1-3.9,1
			c-1.5,0.2-3.1-0.2-4.4-1c-0.8-0.9-1.5-1.9-2-3c-0.4-1.1-0.6-2.2-0.6-3.3c0.2-1.4,2.1-2.1,3.2-2.3c1.6-0.3,3.3-0.5,5-0.5
			C76.5,44.2,78.3,44.1,79.4,45.2z"/>
	</g>
	<path class="st6" d="M84,38.6c-0.7,0.2-1.2-0.7-1.6-1.4c0-0.8,0-1.7-0.1-2.7c-0.1-5.1-0.3-10.5-3-14.9c-1.5-2.3-3.4-4.2-5.7-5.7
		c-2.6-1.9-5.7-3.1-8.9-3.5c-3.6-0.3-7.1,0.8-10.4,2.2c-2.7,1.2-5.8,2.3-7.1,5.2c-0.2,0.5-0.4,1.1-0.7,1.6c-0.3,0.5-0.7,1.1-1.1,1.6
		c-0.8,1.1-1.3,2.4-1.5,3.7c-0.4,2-0.5,4.1-0.1,6.1c0.2,1.4,0.8,3.8-0.4,4.6c-1.8,1.3-3.7,1-5.8,1.2c-0.1,0,0.6,1.3,0.6,1.3
		c0.4,0.5,0.8,1,1.2,1.4c1,0.9,2.2,1.5,3.4,1.8l1.1,2.2l3-0.4l-0.3-1.7c1-0.6,1.8-1.5,2.4-2.5c0.9-1.5,1.5-2.8,2.9-3.6
		c0.8-0.4,1.7-0.7,2.6-0.8c1.4-0.4,3.9-1,4.8-2.3c0.8-1.3,0.9-4.3,0.9-4.3l-0.6,0.1c0.7-0.2,1.6-0.4,2.1,0.2c0.3,0.5,0.1,1,0.1,1.6
		c-0.1,1.6,1.4,2.9,2.9,3.2c1.6,0.2,3.2,0.1,4.7-0.4c1.5-0.4,3.1-0.4,4.7,0c2.6,1,3.8,4.1,3.8,6.9s-0.4,2.4-0.5,3.7
		c0.9,0.3,1.9,0.3,2.8,0.2c1.2,0,1.7,0,1.7,0c0.1-0.8,0.2-1.6,0.2-2.3C83.5,40.7,85,38.3,84,38.6z"/>
	<path class="st7" d="M77.1,10.7c1.1,1.4,2.2,2.9,3.1,4.4c0.9,1.6,3.7,8.1,3.1,11.2c-0.4,3-0.6,6-0.7,9.1c0,0.3-1.1-4-2.5-5
		s-3.4-4.5-3.9-7.7S75.9,11.1,77.1,10.7z"/>
	<path id="front_of_hat" class="st8" d="M44.1,26.2c0,0,0.1-5.6,0-8s3.1-6.9,6-7.8s9.8-4,11.2-3.9s10.6,1,12.3,2s3.1,0.3,3.9,3.4
		s0.7,10.8,0.9,12.7c0.1,1.7,0.1,3.4,0,5.1L44.1,26.2z"/>
	<path class="st7" d="M82,34.1c0,0,0.1-5.4-5.1-6.8c-7.9-1.9-16.1-2.6-24.2-2c-4.1,0.2-8.2,0.7-12.3,1.6c-1.4,0.3-4.6,0.7-4.9,2.5
		c-0.1,0.7,1.3,1,1.8,1.2c1.5,0.6,3.1,1.2,4.7,1.7c0.7,0.2,1.4,0.4,2,0.7c-0.3-0.9,0-1.8,0.7-2.4c1.3-0.9,6.3-2.2,13.5-2.3
		c6.8,0.1,13.5,0.9,20.1,2.3C79.6,31.1,81.6,32.9,82,34.1z"/>
	<polyline class="st2" points="52.5,125 52.8,117.2 29,117.1 28.7,125 	"/>
	<polyline class="st2" points="101.3,125 101.5,117.2 77.8,117.1 77.5,125 	"/>
	<ellipse class="st9" cx="63.9" cy="94.7" rx="1.7" ry="3.4"/>
</g>
</svg>
