<?xml version="1.0" encoding="utf-8"?>
<!-- Generator: Adobe Illustrator 24.0.3, SVG Export Plug-In . SVG Version: 6.00 Build 0)  -->
<svg version="1.1" id="Layer_1" xmlns="http://www.w3.org/2000/svg" xmlns:xlink="http://www.w3.org/1999/xlink" x="0px" y="0px"
	 viewBox="0 0 125 124.5" style="enable-background:new 0 0 125 124.5;" xml:space="preserve">
<style type="text/css">
	.st0{fill:#262626;stroke:#020202;stroke-width:0.75;stroke-miterlimit:10;}
	.st1{fill:none;stroke:#000000;stroke-width:0.75;stroke-miterlimit:10;}
	.st2{fill:#F7DE48;stroke:#020202;stroke-width:0.75;stroke-miterlimit:10;}
	.st3{fill:#332E28;stroke:#000000;stroke-width:0.75;stroke-miterlimit:10;}
	.st4{fill:#D19A75;stroke:#020202;stroke-width:0.75;stroke-miterlimit:10;}
	.st5{fill:none;stroke:#020202;stroke-width:0.75;stroke-miterlimit:10;}
	.st6{fill:#6A3E00;stroke:#020202;stroke-width:0.75;stroke-miterlimit:10;}
	.st7{fill:#099160;stroke:#020202;stroke-width:0.75;stroke-miterlimit:10;}
	.st8{fill:#FFFFFF;}
	.st9{fill:none;stroke:#020202;stroke-width:3;stroke-miterlimit:10;}
	.st10{fill:#FFFFFF;stroke:#020202;stroke-width:0.75;stroke-miterlimit:10;}
	.st11{fill:#0B0B7F;stroke:#020202;stroke-width:0.75;stroke-miterlimit:10;}
	.st12{fill:#FFFFFF;stroke:#FFFFFF;stroke-width:0.5;stroke-miterlimit:10;}
</style>
<title>Artboard 54 copy 2</title>
<g id="Layer_151">
	<g id="Layer_153">
		<path class="st0" d="M39.3,112.1c-0.4-1-0.7-2-0.8-3c0-1.1,0.1-2.3,0.4-3.4c-0.3-0.9-0.6-1.9-0.6-2.9c0-0.9,0.2-1.9,0.7-2.7
			c-0.5-1.7-0.8-3.5-1-5.2c-0.3-2.8,0.7-3.3,0.7-3.3c-0.1-0.7-0.3-1.3-0.5-2c-0.4-1.5,0.7-5.2,0.7-5.2c-0.6-1.9-1.1-3.9-1.5-5.9
			c-0.2-1.6,0-3.2,0.6-4.7c-0.4-1.2-0.7-2.4-0.8-3.6c-0.2-2.3,0-4.6,0.5-6.8c-0.4-1.5-0.7-3-0.9-4.5c-0.2-1.5-0.2-3,0-4.5
			c0.2-1.6,0.6-2.9,0.9-4.4c0.5-2.9,1.3-5.8,1.2-7.9c-0.3-4.4,4.1-18.3,4.1-18.3c4.7-2.1,9-5.1,12.6-8.8c0,0-0.2,6.5-5.9,16.5
			c-3,5.3-7.3,13.1-7.1,15.9c0.1,1.9,0.3,3.9,0.8,5.8c0.1,0.3,0.6,3.9,0.7,4c0.4,1.3,0.7,2.6,0.9,3.9c0.2,2.4,0.1,4.7-0.3,7.1
			c0.6,1.1,0.9,2.3,1,3.5c0.2,2.1,0.1,4.2-0.3,6.3c0.5,1.5,0.8,3.1,1,4.7c0.1,1.7-0.2,3.5-0.7,5.1c0.4,1.4,0.4,3,0.2,4.4
			c-0.2,1.4-0.5,2.8-1,4.2c0,0,0.2,1,0.5,2.7c0.2,1.1-0.2,2.2-0.9,3c0,0,0.5,1.7,0.7,2.6s-1.3,3.8-1.3,3.8c-0.7,1.1-1.2,2.2-1.4,3.5
			c0.7,1,1,2.3,0.9,3.5c0,1.1-0.1,2.2-0.4,3.3c-0.2,1-0.7,1.8-1.5,2.4c-0.9,0.8-2.9,0.8-3.9,0.8c0.5-1.5,0.8-3.1,0.9-4.7
			C38.6,115.5,38.9,113.8,39.3,112.1z"/>
		<path class="st1" d="M45,57c0,0-1.8,1.8-3.1,6.9"/>
		<path class="st1" d="M38.6,63.8c0.1-0.5,2.1,1.8,2.2,2c1,1.4,1.5,3.1,2.4,4.6"/>
		<path class="st1" d="M44.6,68c-0.9,1.3-2,2.2-2.6,3.7s-0.6,3.5-1,5.1"/>
		<path class="st1" d="M39.2,75.9c1.6,2.1,3,3.9,3.1,6.7"/>
		<path class="st1" d="M45.2,78.2c0,0-3.7,3.8-3.7,7.8"/>
		<path class="st1" d="M39.9,84.4c1.1,1.1,2,2.3,2.6,3.6c0.4,0.8,0.6,1.7,0.8,2.5"/>
		<path class="st1" d="M46.6,87.7c0,0-3,3.4-3.4,6.1"/>
		<path class="st1" d="M40.8,93c0,0,2.7,2.1,2.8,5.1"/>
		<path class="st1" d="M45.5,96.4c0,0-3.3,2.8-3.8,4.9"/>
		<path class="st1" d="M40,100.1c1,1.2,1.9,2.5,2.5,4"/>
		<path class="st1" d="M45.4,102c0,0-3.5,3.7-4.1,5.8"/>
		<path class="st1" d="M39.9,105.7c0.9,1.2,1.7,2.6,2.3,3.9"/>
		<path class="st2" d="M38,53.8c0,0,4.1,3.9,5,6.5"/>
		<polygon class="st3" points="43.5,113 40.2,112.9 40.3,112.1 43.4,112.1 		"/>
	</g>
	<path id="neck-2" class="st4" d="M51.2,67.9c0,0-0.3,12-0.7,13.3s-7.5,2.2-9.1,4.1s1,5.4,2.2,6.7c5.8,6.5,20.5,7.2,28.3,5.6
		c4.3-0.9,13.8-6.3,14.7-11.2c0.4-2.4-6.8-3.8-8.5-4.9s-2.5-13.9-2.5-13.9L51.2,67.9z"/>
	<path id="head-3" class="st4" d="M62.5,23.3c-3.4-0.1-6.9,0.4-10.2,1.5c-2.2,0.6-4.2,2-5.5,3.9c-0.6,1.2-1.1,2.4-1.3,3.7
		c-1.1,4.8-1.9,9.5-2.6,14.4c-0.1-0.7-0.3-1.3-0.5-2c-0.3-0.7-1.8-0.5-2,0.5c-0.1,0.9,0.1,1.7,0.5,2.5c0.4,0.8,0.7,1.7,0.9,2.6
		c0.5,3.1-0.3,3.3,0,5.7c0.2,0.7,0.6,1.3,1.2,1.5c0.2,0.1,1.2,0.4,1.1-0.1c0,2.9,0.4,5.7,1.1,8.5c1.1,3.4,4.6,6.1,7.1,8.3
		c1.9,1.8,4,3.3,6.4,4.5c6.2,2.8,12.3-1.2,15.7-6.4c2.3-3.5,5.4-5.9,5.8-10c0.3-1.5,0.5-3,0.5-4.5c0-0.5,0.6-0.3,0.8-0.3
		c1.7,0.1,2-2.3,2.2-3.5c0.3-2.1,0.2-4.4,1-6.4c0.4-1,1.6-2.5,0.3-3.4c-0.7-0.5-1.7-0.5-2.4,0c-0.9,0.6-0.9,1.6-1.2,2.5
		c-0.1-4.5-0.8-8.9-2-13.2c-0.3-1.4-0.9-2.7-1.6-3.8c-1.4-2.1-3.4-3.8-5.7-4.8c-1.6-0.7-3.2-1.2-4.9-1.5
		C65.8,23.5,64.2,23.4,62.5,23.3z"/>
	<path id="nose-4" class="st5" d="M63,55.5c-1.2,3.5-8.2,2.7-8.4,4.6c-0.2,2.9,5.1,2.5,7.3,1.4"/>
	<path class="st5" d="M65.8,40.9c4.3-0.6,9.5-5.3,11.3-1.2"/>
	<path class="st5" d="M57.7,44.3c-2.8-0.6-9.5-4.9-11.3-0.8"/>
	<circle class="st6" cx="71.2" cy="48.9" r="1.2"/>
	<circle class="st6" cx="53.1" cy="48.9" r="1.2"/>
	<path class="st5" d="M67.7,48c0,0,3.4-1.7,4.7-1.2s1.7,1.5,2.4,1.6"/>
	<path class="st5" d="M56.1,49.2c0,0-1.2-2.8-2.7-2.4c-1.1,0.2-2.1,0.5-3.1,0.9"/>
	<path id="shirt-3" class="st7" d="M7,124c0.6-6.8,1.8-14.4,2.6-19.1s1-6.6,3.4-10.7s6.6-5.3,11-6.1c4.6-0.9,6.6-2,11.3-2.6
		c2.7-0.6,5.2-1.4,7.7-2.5c0.9-0.4,0.3,7.6,7.8,11.3c8.8,4.2,19.1,3.5,27.3-1.8c3.4-2.3,4.7-5.9,6.9-9.5c3.3,0.7,6.4,2.1,9.7,3.1
		c5.5,1.8,15.4,1.3,17.7,8.2c2.7,8,3.7,21.2,5.4,29.9"/>
	<path class="st8" d="M44.6,119.2h1v3.1H40v-3.1h1l-1.2-2h-1.6v2h1v3.1h-5.6v-3.1h1.1v-7.1h-1.1V109h5.6v3h-1v2h1.5l1.2-2H40v-3h5.5
		v3h-1l-2,3.6L44.6,119.2z"/>
	<path class="st8" d="M62.7,119.2v3.1h-5.6v-3.1H58l-0.2-1.1h-2.1l-0.2,1.1h0.9v3.1h-5.6v-3.1H52l1.2-7.1h-0.9V109h8.8v3.1h-0.9
		l1.2,7.1L62.7,119.2z M57.4,116l-0.7-4l-0.7,4H57.4z"/>
	<path class="st8" d="M78,118.2v4H67.9v-3.1H69v-7.1h-1.1V109h5.7v3.1h-1.1v7.1h2.1v-1L78,118.2z"/>
	<path class="st8" d="M93.4,109v4H90v-1h-2.1v2h3.7v3.1h-1.1h-0.8h-1.9v2H90v-1h3.4v4H83.3V119h1.1V112h-1.1v-3H93.4z"/>
	<path class="st1" d="M37.2,85.1c0,0,1,7.1,4.7,11.3s9.1,6.7,20.9,6.7s18.1-4.1,19.9-5.9s6-8.3,8.2-12.5"/>
	<line id="beauty_mark" class="st5" x1="76" y1="51" x2="76" y2="52"/>
	<g id="glasses-2">
		<path class="st9" d="M59.3,48.2c0.7-0.9,1.7-1.5,2.8-1.5c1.2,0.1,2.3,0.6,3,1.5"/>
		<path d="M51.7,40.2c-4.8,0-8.6,3.9-8.6,8.6s3.9,8.6,8.6,8.6s8.6-3.9,8.6-8.6C60.3,44.1,56.4,40.2,51.7,40.2z M51.7,54.7
			c-3.2,0-5.8-2.6-5.8-5.8c0-3.2,2.6-5.8,5.8-5.8c3.2,0,5.8,2.6,5.8,5.8c0,0,0,0,0,0C57.5,52.1,54.9,54.7,51.7,54.7z"/>
		<path d="M72.4,40.2c-4.8,0-8.6,3.9-8.6,8.6s3.9,8.6,8.6,8.6c4.8,0,8.6-3.9,8.6-8.6c0,0,0,0,0,0C81.1,44.1,77.2,40.2,72.4,40.2z
			 M72.4,54.7c-3.2,0-5.8-2.6-5.8-5.8s2.6-5.8,5.8-5.8s5.8,2.6,5.8,5.8c0,0,0,0,0,0C78.2,52.1,75.7,54.6,72.4,54.7L72.4,54.7z"/>
	</g>
	<path id="mouth-4" class="st10" d="M66.7,70.2c0,2-4,2.2-4.5,2.2s-0.9-1.6-0.9-3.6s0.4-3.6,0.9-3.6S66.7,68.3,66.7,70.2z"/>
	<g id="Layer_152">
		<path class="st0" d="M89.7,111.5c0.4-1,0.6-2,0.6-3.1c0-1.1-0.2-2.3-0.6-3.4c0.3-1,0.4-2,0.5-3c0-0.9-0.3-1.9-0.9-2.6
			c0.4-1.7,0.7-3.5,0.8-5.2c0.1-2.8-0.9-3.3-0.9-3.3c0.1-0.7,0.2-1.3,0.3-2c0.3-1.5-1-5.2-1-5.2c0.5-2,0.9-4,1.1-6
			c0.1-1.6-0.2-3.2-0.9-4.7c0.3-1.2,0.5-2.4,0.6-3.7c0-2.3-0.3-4.5-0.8-6.8c0.3-1.5,0.5-3,0.6-4.5c-0.1-2.2-0.4-4.4-0.8-6.5
			c-1.1-2.4-1.6-5-1.7-7.6c0.1-4.4-2.9-22.4-2.9-22.4c-4.2-7.4-34.9-6.9-34.9-6.9s8,14.2,19,18.2c13.4,4.9,14.7,11.4,14.7,14.1
			s-0.4,3.4-0.8,5.7c0,0.3,0.2,3.8,0.2,3.9c-0.4,1.3-0.6,2.6-0.7,4c-0.1,2.4,0.2,4.8,0.7,7.1c-0.5,1.1-0.7,2.3-0.7,3.5
			c-0.1,2.1,0.2,4.2,0.6,6.3c-0.4,1.6-0.6,3.1-0.7,4.7c0,1.7,0.4,3.5,1,5.1c-0.3,1.5-0.2,3,0.1,4.4c0.2,1.4,0.7,2.8,1.3,4.1
			c0,0-0.2,1-0.4,2.7c-0.1,1.1,0.3,2.1,1,2.9c0,0-0.4,1.8-0.5,2.7s1.6,3.7,1.6,3.7c0.8,1,1.3,2.2,1.6,3.4c0.1,0.8-1.3,2.4-1.3,3.5
			c0.1,2.2,4.3,6.3,6.5,6.4c-0.4-1.6-0.8-3.2-1-4.8C90.6,114.8,90.2,113.1,89.7,111.5z"/>
		<path class="st1" d="M82.7,56c0,0,1.9,1.7,3.5,6.7"/>
		<path class="st1" d="M88.5,63.1c-0.1-0.4-1.6,1.7-1.7,1.8c-0.7,1.3-1.1,2.8-1.7,4.1"/>
		<path class="st1" d="M81.7,67.8c1,1.3,2.1,2.1,2.8,3.6s0.8,3.5,1.3,5"/>
		<path class="st1" d="M88.8,72.9c-1.5,2.2-2.8,4.1-2.7,6.8"/>
		<path class="st1" d="M81.7,77.9c0,0,4,3.6,4.2,7.6"/>
		<path class="st1" d="M88.4,83.8c-1.7,1.7-2.8,3.9-3.1,6.3"/>
		<path class="st1" d="M81.9,87.4c0,0,3.2,3.2,3.8,5.9"/>
		<path class="st1" d="M88.8,91.1c0,0-2.6,2.3-2.6,5.3"/>
		<path class="st1" d="M83.5,96.1c0,0,3.5,2.6,4.1,4.7"/>
		<path class="st1" d="M89.2,99.4c-1,1.3-1.7,2.7-2.2,4.2"/>
		<path class="st1" d="M84,101.7c0,0,3.7,3.4,4.4,5.5"/>
		<path class="st1" d="M89.7,105c-0.8,1.3-1.5,2.7-2.1,4.1"/>
		<path class="st2" d="M88.9,54.3c0,0-2.8,4.1-3.4,6.7"/>
		<rect x="86.2" y="111.1" class="st3" width="3.9" height="0.8"/>
	</g>
	<path class="st11" d="M72.1,8.4c0,0,9.2,4.5,10.3,6.6s2.4,7.9,2.7,12.3c0.3,4.1,0.7,13.4,0.7,13.9s-4.2-4.5-6.1-6.5
		c-1.5-1.6-7.1-6.2-7.6-10.5S70.7,9,72.1,8.4z"/>
	<path id="front_of_hat" class="st11" d="M38.9,29.4c0,0,0.1-7.1,0-10c-0.2-5.2,4.1-7.5,8.3-9.3c2.9-1.2,7.8-4.5,11-4.2
		c1.6,0.1,12.2,1,13.9,2.5c5.1,4.3,4.9,11.4,5.8,19c0.1,2.1,0.1,4.2,0,6.4L38.9,29.4z"/>
	<path class="st12" d="M58.2,15.8v5.1c0,0.6,0,1.3-0.2,1.9c-0.2,0.4-0.5,0.8-0.9,1c-0.6,0.3-1.2,0.4-1.8,0.4c-0.4,0-0.8,0-1.2-0.2
		c-0.3-0.1-0.4-0.4-0.4-0.7c0-0.2,0.1-0.4,0.2-0.5c0.1-0.1,0.3-0.2,0.5-0.2c0.4,0,0.7,0.2,0.8,0.6c0.1,0.2,0.2,0.4,0.4,0.4
		c0.2,0,0.4-0.1,0.4-0.3c0.1-0.4,0.1-0.9,0.1-1.3v-4.1c0-0.2,0-0.4-0.1-0.6c-0.1-0.1-0.3-0.2-0.7-0.2h-0.2v-0.7L58.2,15.8z M56,12.5
		c0-0.6,0.5-1.1,1.1-1.1c0.6,0,1.1,0.5,1.1,1.1c0,0.3-0.1,0.6-0.3,0.8c-0.2,0.2-0.5,0.3-0.8,0.3C56.5,13.7,56,13.2,56,12.5z"/>
	<path class="st11" d="M84,39.4c0,0-6.7-8-12.7-11.7c-0.8-0.5-5.4-4.6-18.9-3.3c-7.4,0.7-10,1-15.5,3.3c-1.8,0.7-8.2,3.4-8.6,5.8
		c-0.1,0.9,2.2,1.7,2.8,1.9c2.1,0.6,4.3,1,6.6,1.2c0.5,0.6,1.1,1.2,1.7,1.7C39,37.1,39,36,40.1,35.1c1.6-1.2,8.1-3,17.4-3.1
		c6.9-0.1,13.8,0.7,20.5,2.3C79.8,35,84,39.4,84,39.4z"/>
</g>
</svg>
