<svg xmlns="http://www.w3.org/2000/svg" width="125" viewBox="-15 -15 400 400" height="125" version="1.0"><defs><clipPath id="a"><path d="M 281.769531 180.398438 L 343.816406 180.398438 L 343.816406 268.519531 L 281.769531 268.519531 Z M 281.769531 180.398438"/></clipPath><clipPath id="b"><path d="M 87 37.148438 L 290 37.148438 L 290 327 L 87 327 Z M 87 37.148438"/></clipPath><clipPath id="c"><path d="M 185 37.148438 L 290 37.148438 L 290 327 L 185 327 Z M 185 37.148438"/></clipPath><clipPath id="d"><path d="M 231.097656 309.445312 L 299.257812 309.445312 L 299.257812 337.132812 L 231.097656 337.132812 Z M 231.097656 309.445312"/></clipPath><clipPath id="e"><path d="M 81.023438 309.445312 L 149.332031 309.445312 L 149.332031 337.132812 L 81.023438 337.132812 Z M 81.023438 309.445312"/></clipPath></defs><path fill="#075896" d="M 56.351562 232.660156 C 56.351562 232.660156 69.160156 230.535156 73.53125 234.164062 C 75.242188 235.582031 86.421875 245.703125 80.269531 247.722656 C 75.253906 249.371094 72.789062 241.613281 68.273438 241.328125 C 57.554688 240.65625 66.480469 254.328125 69.683594 257.410156 C 73.957031 261.527344 69.648438 265.773438 64.382812 265.183594 C 61.054688 264.8125 58.179688 262.527344 56.316406 259.746094 C 54.457031 256.964844 53.457031 253.707031 52.53125 250.492188 C 52.941406 254.027344 53.351562 257.5625 53.757812 261.09375 C 53.941406 262.683594 54.113281 264.367188 53.441406 265.820312 C 51.175781 270.734375 47.042969 267.648438 45.480469 264.789062 C 43.578125 261.308594 43.40625 255.664062 43.738281 251.8125 C 42.136719 254.878906 40.910156 270.988281 35.289062 264.597656 C 31.070312 259.800781 35.933594 247.320312 38.78125 243.046875 C 39.179688 242.445312 39.613281 241.839844 39.757812 241.132812 C 39.9375 240.265625 39.652344 239.382812 39.488281 238.515625 C 38.867188 235.246094 40.066406 232.050781 39.738281 228.738281 C 39.433594 225.65625 38.425781 222.59375 38.0625 219.492188 C 37.183594 211.917969 37.269531 203.667969 40.753906 196.703125 C 48.152344 181.925781 89.769531 180.5 90.132812 180.488281 C 93.203125 180.386719 95.386719 185.0625 95.59375 187.296875 C 96.730469 199.554688 82.992188 202.15625 74.171875 203.320312 C 72.480469 203.542969 53.339844 204.050781 53.011719 204.984375 C 53.007812 204.988281 48.695312 217.21875 56.351562 232.660156"/><g clip-path="url(#a)"><path fill="#075896" d="M 321.109375 232.660156 C 321.109375 232.660156 308.300781 230.535156 303.929688 234.164062 C 302.21875 235.582031 291.039062 245.703125 297.191406 247.722656 C 302.207031 249.371094 304.671875 241.613281 309.1875 241.328125 C 319.90625 240.65625 310.984375 254.328125 307.777344 257.410156 C 303.503906 261.527344 307.8125 265.773438 313.078125 265.183594 C 316.40625 264.8125 319.285156 262.527344 321.144531 259.746094 C 323.003906 256.964844 324.003906 253.707031 324.929688 250.492188 C 324.519531 254.023438 324.109375 257.5625 323.703125 261.09375 C 323.515625 262.683594 323.347656 264.367188 324.019531 265.820312 C 326.285156 270.734375 330.417969 267.648438 331.980469 264.789062 C 333.882812 261.308594 334.054688 255.664062 333.722656 251.8125 C 335.328125 254.878906 336.554688 270.988281 342.167969 264.597656 C 346.390625 259.800781 341.527344 247.320312 338.683594 243.046875 C 338.28125 242.445312 337.847656 241.839844 337.703125 241.132812 C 337.523438 240.265625 337.808594 239.382812 337.972656 238.511719 C 338.59375 235.242188 337.394531 232.050781 337.722656 228.734375 C 338.023438 225.65625 339.035156 222.59375 339.394531 219.492188 C 340.277344 211.917969 340.191406 203.667969 336.707031 196.703125 C 329.304688 181.925781 287.691406 180.5 287.328125 180.488281 C 284.261719 180.386719 282.074219 185.0625 281.867188 187.296875 C 280.730469 199.554688 294.46875 202.15625 303.289062 203.320312 C 304.980469 203.542969 324.121094 204.050781 324.449219 204.980469 C 324.453125 204.988281 328.769531 217.21875 321.109375 232.660156"/></g><g clip-path="url(#b)"><path fill="#075896" d="M 87.945312 137.871094 L 92.976562 313.992188 C 93.164062 320.847656 98.761719 326.304688 105.621094 326.304688 L 124.96875 326.304688 C 131.800781 326.304688 137.183594 320.5 136.671875 313.671875 L 135.191406 294.394531 C 135.191406 291.597656 136.699219 288.964844 139.414062 286.542969 L 139.441406 286.515625 C 142.160156 284.125 146.0625 281.972656 150.878906 280.144531 C 160.5625 276.515625 173.960938 274.257812 188.734375 274.257812 C 210.878906 274.257812 229.875 279.3125 238.027344 286.542969 L 238.054688 286.542969 C 240.742188 288.964844 242.25 291.597656 242.25 294.394531 L 240.796875 313.671875 C 240.285156 320.5 245.667969 326.304688 252.5 326.304688 L 271.847656 326.304688 C 278.679688 326.304688 284.304688 320.847656 284.492188 313.992188 L 289.523438 137.871094 C 289.523438 82.25 244.402344 37.164062 188.734375 37.164062 C 133.066406 37.164062 87.945312 82.25 87.945312 137.871094"/></g><g clip-path="url(#c)"><path fill="#2578BD" d="M 271.421875 313.992188 L 276.117188 137.871094 C 276.117188 83.410156 235.730469 39.082031 185.265625 37.25 C 186.421875 37.210938 187.570312 37.164062 188.734375 37.164062 C 244.402344 37.164062 289.523438 82.25 289.523438 137.871094 L 284.492188 313.992188 C 284.304688 320.847656 278.679688 326.304688 271.847656 326.304688 L 259.613281 326.304688 C 265.996094 326.304688 271.246094 320.847656 271.421875 313.992188"/></g><path fill="#2578BD" d="M 133.429688 313.671875 L 132.046875 294.394531 C 132.046875 291.597656 133.457031 288.964844 135.992188 286.542969 L 136.015625 286.515625 C 138.554688 284.125 142.195312 281.972656 146.691406 280.144531 C 155.734375 276.515625 168.242188 274.257812 182.03125 274.257812 C 183.28125 274.257812 184.523438 274.277344 185.75 274.316406 C 172.171875 274.597656 159.902344 276.765625 150.875 280.144531 C 146.0625 281.972656 142.160156 284.125 139.441406 286.515625 L 139.414062 286.542969 C 136.695312 288.964844 135.191406 291.597656 135.191406 294.394531 L 136.671875 313.671875 C 137.183594 320.5 131.800781 326.304688 124.964844 326.304688 L 122.503906 326.304688 C 128.882812 326.304688 133.90625 320.5 133.429688 313.671875"/><path fill="#FFF" d="M 234.367188 217.578125 C 234.367188 217.578125 235.6875 228.769531 230.445312 236.316406 C 229.492188 237.683594 227.34375 237.179688 227.050781 235.539062 C 225.285156 225.722656 223.605469 220.410156 222.335938 219.722656 C 227.753906 218.925781 229.449219 218.941406 234.367188 217.578125"/><path fill="#FFF" d="M 138.425781 218.058594 C 138.425781 218.058594 137.613281 229.300781 143.191406 236.601562 C 144.203125 237.925781 146.328125 237.324219 146.546875 235.671875 C 147.867188 225.789062 149.304688 220.402344 150.539062 219.65625 C 145.09375 219.109375 143.402344 219.203125 138.425781 218.058594"/><path fill="#00030F" d="M 242.402344 213.984375 C 242.402344 213.984375 235.628906 215.78125 225.425781 217.480469 C 222.882812 217.957031 220.089844 218.25 217.179688 218.738281 C 214.234375 219.039062 211.160156 219.507812 207.949219 219.765625 C 206.351562 219.914062 204.722656 220.0625 203.074219 220.214844 C 201.421875 220.3125 199.75 220.410156 198.066406 220.507812 C 194.707031 220.800781 191.273438 220.796875 187.851562 220.871094 C 184.429688 221.050781 181 220.84375 177.628906 220.851562 C 174.257812 220.757812 170.941406 220.550781 167.726562 220.414062 C 164.511719 220.234375 161.421875 219.855469 158.46875 219.644531 C 155.511719 219.445312 152.753906 218.988281 150.179688 218.6875 C 147.621094 218.304688 145.222656 218.175781 143.152344 217.769531 C 141.066406 217.429688 139.246094 217.132812 137.746094 216.886719 C 134.730469 216.429688 132.980469 216.214844 132.980469 216.214844 C 132.980469 216.214844 134.597656 216.863281 137.472656 217.921875 C 138.917969 218.4375 140.671875 219.058594 142.6875 219.773438 C 144.699219 220.523438 147.050781 221.039062 149.59375 221.722656 C 152.148438 222.363281 154.902344 223.179688 157.890625 223.617188 C 160.867188 224.105469 163.996094 224.808594 167.28125 225.128906 C 170.566406 225.410156 173.953125 225.9375 177.421875 226.039062 C 180.886719 226.09375 184.414062 226.375 187.9375 226.246094 C 191.460938 226.105469 194.988281 226.042969 198.441406 225.683594 C 201.90625 225.460938 205.285156 224.949219 208.550781 224.449219 C 211.828125 224.054688 214.933594 223.246094 217.898438 222.671875 C 220.835938 221.949219 223.613281 221.285156 226.125 220.472656 C 228.660156 219.742188 230.941406 218.949219 232.945312 218.1875 C 234.960938 217.484375 236.667969 216.703125 238.078125 216.113281 C 240.882812 214.855469 242.402344 213.984375 242.402344 213.984375"/><path fill="#00030F" d="M 231.386719 155.683594 C 232.148438 158.734375 232.589844 161.890625 232.589844 165.144531 C 232.589844 188.808594 211.253906 207.992188 184.9375 207.992188 C 158.621094 207.992188 137.285156 188.808594 137.285156 165.144531 C 137.285156 161.890625 137.726562 158.734375 138.492188 155.683594 L 231.386719 155.683594"/><path fill="#FFF" d="M 223.066406 155.683594 C 223.691406 158.464844 224.054688 161.347656 224.054688 164.316406 C 224.054688 185.902344 206.539062 203.402344 184.9375 203.402344 C 163.335938 203.402344 145.820312 185.902344 145.820312 164.316406 C 145.820312 161.347656 146.183594 158.464844 146.808594 155.683594 L 223.066406 155.683594"/><path d="M 201.058594 155.683594 C 202.441406 158.257812 203.226562 161.195312 203.226562 164.316406 C 203.226562 174.40625 195.039062 182.589844 184.9375 182.589844 C 174.835938 182.589844 166.648438 174.40625 166.648438 164.316406 C 166.648438 161.195312 167.4375 158.257812 168.816406 155.683594 L 201.058594 155.683594"/><path fill="#00030F" d="M 266.21875 155.683594 C 266.21875 155.683594 256.503906 154.785156 241.929688 154.152344 C 234.640625 153.804688 226.140625 153.515625 217.03125 153.324219 C 212.480469 153.253906 207.773438 153.105469 202.992188 153.09375 C 198.210938 153.0625 193.351562 153.03125 188.496094 153 C 183.636719 153.03125 178.777344 153.058594 173.996094 153.089844 C 169.214844 153.089844 164.507812 153.25 159.953125 153.320312 C 150.847656 153.507812 142.34375 153.792969 135.058594 154.144531 C 120.484375 154.78125 110.769531 155.683594 110.769531 155.683594 C 110.769531 155.683594 120.484375 156.589844 135.058594 157.230469 C 142.34375 157.578125 150.847656 157.867188 159.953125 158.054688 C 164.507812 158.121094 169.214844 158.28125 173.996094 158.28125 C 178.777344 158.3125 183.636719 158.34375 188.496094 158.371094 C 193.351562 158.339844 198.210938 158.308594 202.992188 158.28125 C 207.773438 158.269531 212.480469 158.117188 217.03125 158.046875 C 226.140625 157.855469 234.640625 157.570312 241.929688 157.222656 C 256.503906 156.585938 266.21875 155.683594 266.21875 155.683594"/><path fill="#2578BD" d="M 139.441406 286.515625 C 142.160156 284.125 146.0625 281.972656 150.875 280.144531 C 160.5625 276.515625 173.960938 274.257812 188.734375 274.257812 C 210.878906 274.257812 229.871094 279.3125 238.027344 286.542969 C 233.585938 268.101562 213.191406 254.175781 188.734375 254.175781 C 164.277344 254.175781 143.910156 268.074219 139.441406 286.515625"/><path fill="#2578BD" d="M 235.675781 95.308594 C 235.675781 97.71875 237.632812 99.671875 240.042969 99.671875 C 242.457031 99.671875 244.410156 97.71875 244.410156 95.308594 C 244.410156 92.898438 242.457031 90.945312 240.042969 90.945312 C 237.632812 90.945312 235.675781 92.898438 235.675781 95.308594"/><path fill="#2578BD" d="M 220.394531 101.582031 C 220.394531 103.386719 221.859375 104.851562 223.667969 104.851562 C 225.476562 104.851562 226.941406 103.386719 226.941406 101.582031 C 226.941406 99.773438 225.476562 98.308594 223.667969 98.308594 C 221.859375 98.308594 220.394531 99.773438 220.394531 101.582031"/><path fill="#2578BD" d="M 214.390625 82.488281 C 214.390625 86.105469 217.320312 89.035156 220.941406 89.035156 C 224.558594 89.035156 227.492188 86.105469 227.492188 82.488281 C 227.492188 78.875 224.558594 75.945312 220.941406 75.945312 C 217.320312 75.945312 214.390625 78.875 214.390625 82.488281"/><g clip-path="url(#d)"><path fill="#00030F" d="M 261.605469 337.132812 C 279.222656 337.132812 293.152344 329.8125 293.988281 329.367188 C 298.527344 326.929688 300.492188 320.71875 298.371094 315.496094 C 296.257812 310.292969 290.875 308.03125 286.339844 310.441406 C 286.117188 310.558594 263.722656 322.128906 243.773438 312.300781 C 239.160156 310.035156 233.828125 312.484375 231.855469 317.777344 C 229.878906 323.074219 232.015625 329.210938 236.621094 331.480469 C 245.121094 335.671875 253.734375 337.132812 261.605469 337.132812"/></g><path fill="#2578BD" d="M 261.46875 331.757812 C 279.753906 331.757812 294.210938 325.15625 295.074219 324.753906 C 299.789062 322.554688 301.824219 316.953125 299.628906 312.246094 C 297.429688 307.550781 291.84375 305.515625 287.136719 307.6875 C 286.902344 307.792969 263.667969 318.222656 242.964844 309.363281 C 238.179688 307.320312 232.648438 309.527344 230.597656 314.304688 C 228.550781 319.078125 230.765625 324.609375 235.546875 326.65625 C 244.367188 330.4375 253.300781 331.757812 261.46875 331.757812"/><g clip-path="url(#e)"><path fill="#00030F" d="M 111.628906 337.132812 C 129.246094 337.132812 143.175781 329.8125 144.007812 329.367188 C 148.550781 326.929688 150.515625 320.71875 148.394531 315.496094 C 146.277344 310.292969 140.898438 308.03125 136.363281 310.441406 C 136.136719 310.558594 113.746094 322.128906 93.792969 312.300781 C 89.183594 310.035156 83.851562 312.484375 81.878906 317.777344 C 79.902344 323.074219 82.039062 329.210938 86.644531 331.480469 C 95.144531 335.671875 103.753906 337.132812 111.628906 337.132812"/></g><path fill="#2578BD" d="M 111.492188 331.757812 C 129.773438 331.757812 144.230469 325.15625 145.097656 324.753906 C 149.808594 322.554688 151.847656 316.953125 149.648438 312.246094 C 147.449219 307.550781 141.867188 305.515625 137.160156 307.6875 C 136.925781 307.792969 113.691406 318.222656 92.988281 309.363281 C 88.199219 307.320312 82.671875 309.527344 80.621094 314.304688 C 78.574219 319.078125 80.789062 324.609375 85.566406 326.660156 C 94.390625 330.4375 103.324219 331.757812 111.492188 331.757812"/></svg>