<svg xmlns="http://www.w3.org/2000/svg" width="125" viewBox="-15 -15 400 400" height="125" version="1.0"><defs><clipPath id="a"><path d="M 88 72 L 279 72 L 279 338.25 L 88 338.25 Z M 88 72"/></clipPath></defs><path fill="#8142A5" d="M 235.839844 277.054688 C 235.839844 277.054688 251.492188 297.5 277.984375 296.898438 C 304.46875 296.296875 297.246094 254.804688 297.246094 254.804688 C 297.246094 254.804688 285.203125 256.609375 281.59375 251.796875 C 277.984375 246.988281 299.652344 226.542969 303.265625 226.542969 C 306.878906 226.542969 326.746094 251.796875 323.132812 256.609375 C 319.519531 261.421875 303.871094 255.40625 303.871094 255.40625 C 303.871094 255.40625 314.101562 301.105469 282.195312 305.917969 C 250.289062 310.730469 238.851562 301.707031 238.851562 301.707031 L 235.839844 277.054688"/><path fill="#734AA9" d="M 266.050781 171.453125 C 266.050781 171.453125 269.191406 185.5625 270.761719 187.128906 C 272.328125 188.699219 273.375 174.589844 279.652344 172.5 C 285.929688 170.40625 295.867188 175.113281 295.867188 175.113281 C 295.867188 175.113281 298.484375 166.230469 307.378906 165.183594 C 316.269531 164.140625 326.734375 171.453125 326.734375 171.453125 C 326.734375 171.453125 327.777344 167.273438 337.195312 162.570312 C 346.609375 157.867188 355.503906 161.527344 355.503906 161.527344 C 355.503906 161.527344 344.515625 127.042969 333.53125 120.769531 C 322.546875 114.5 309.992188 119.722656 307.902344 120.769531 C 305.808594 121.816406 280.175781 144.804688 280.175781 144.804688 L 266.050781 171.453125"/><path fill="#573298" d="M 266.574219 155.777344 C 266.574219 155.777344 301.101562 101.4375 318.882812 100.914062 C 336.671875 100.394531 364.917969 161.527344 357.597656 164.140625 C 350.269531 166.753906 328.824219 120.25 323.59375 120.25 C 318.363281 120.25 334.054688 172.5 327.253906 174.589844 C 320.457031 176.679688 307.378906 129.65625 307.378906 129.65625 C 307.378906 129.65625 285.929688 136.445312 294.300781 164.660156 C 302.667969 192.875 285.929688 167.796875 284.882812 153.164062 C 283.835938 138.535156 274.945312 174.066406 266.050781 176.15625 C 257.160156 178.246094 266.574219 155.777344 266.574219 155.777344"/><path fill="#734AA9" d="M 109.015625 153.332031 C 109.015625 153.332031 105.875 167.4375 104.304688 169.007812 C 102.738281 170.574219 101.691406 156.464844 95.414062 154.375 C 89.136719 152.285156 79.199219 156.988281 79.199219 156.988281 C 79.199219 156.988281 76.582031 148.105469 67.691406 147.058594 C 58.796875 146.015625 48.335938 153.332031 48.335938 153.332031 C 48.335938 153.332031 47.289062 149.152344 37.875 144.449219 C 28.457031 139.746094 19.566406 143.40625 19.566406 143.40625 C 19.566406 143.40625 30.550781 108.917969 41.535156 102.648438 C 52.519531 96.375 65.074219 101.601562 67.167969 102.648438 C 69.257812 103.691406 94.890625 126.683594 94.890625 126.683594 L 109.015625 153.332031"/><path fill="#573298" d="M 108.492188 137.65625 C 108.492188 137.65625 73.964844 83.316406 56.179688 82.792969 C 38.394531 82.269531 10.148438 143.40625 17.472656 146.015625 C 24.796875 148.628906 46.242188 102.125 51.476562 102.125 C 56.703125 102.125 41.011719 154.375 47.8125 156.464844 C 54.613281 158.554688 67.691406 111.53125 67.691406 111.53125 C 67.691406 111.53125 89.136719 118.320312 80.769531 146.539062 C 72.398438 174.753906 89.136719 149.671875 90.183594 135.042969 C 91.230469 120.414062 100.121094 155.945312 109.015625 158.03125 C 117.90625 160.125 108.492188 137.65625 108.492188 137.65625"/><g clip-path="url(#a)"><path fill="#8E51AE" d="M 278.894531 205.308594 C 278.894531 278.707031 236.246094 338.207031 183.640625 338.207031 C 131.03125 338.207031 88.386719 278.707031 88.386719 205.308594 C 88.386719 131.90625 131.03125 72.40625 183.640625 72.40625 C 236.246094 72.40625 278.894531 131.90625 278.894531 205.308594"/></g><path fill="#2C2141" d="M 142.957031 205.019531 C 142.957031 229.972656 161.589844 250.199219 184.574219 250.199219 C 207.558594 250.199219 226.191406 229.972656 226.191406 205.019531 C 226.191406 201.253906 225.765625 197.59375 224.964844 194.097656 L 144.1875 194.097656 C 143.386719 197.59375 142.957031 201.253906 142.957031 205.019531"/><path fill="#FFF" d="M 155.160156 194.230469 C 155.160156 202.648438 157.695312 209.472656 160.828125 209.472656 C 163.953125 209.472656 166.492188 202.648438 166.492188 194.230469 L 166.492188 194.097656 L 155.164062 194.097656 L 155.160156 194.230469"/><path fill="#FFF" d="M 216.171875 194.097656 L 204.839844 194.097656 C 204.867188 202.449219 207.394531 209.199219 210.503906 209.199219 C 213.617188 209.199219 216.140625 202.449219 216.171875 194.097656"/><path fill="#F03F53" d="M 218.984375 230.441406 C 211.621094 223.621094 199.636719 219.183594 186.101562 219.183594 C 171.378906 219.183594 158.488281 224.433594 151.394531 232.289062 C 158.992188 243.171875 171.027344 250.199219 184.574219 250.199219 C 198.875 250.199219 211.492188 242.371094 218.984375 230.441406"/><path fill="#2C2141" d="M 178.507812 145.503906 L 182.171875 123.152344 L 177.46875 133.222656 L 142.226562 94.664062 L 171.769531 144.714844 L 178.507812 145.503906"/><path fill="#2C2141" d="M 188.246094 147.515625 L 184.859375 123.152344 L 190.742188 129.53125 L 224.523438 96.679688 L 202.835938 144.796875 L 188.246094 147.515625"/><path fill="#FFF" d="M 188.246094 147.515625 L 224.523438 96.679688 C 224.523438 96.679688 237.625 153.558594 218.476562 162.113281 C 199.332031 170.671875 188.246094 147.515625 188.246094 147.515625"/><path fill="#FFF" d="M 178.507812 145.503906 L 142.226562 94.664062 C 142.226562 94.664062 129.125 151.542969 148.273438 160.101562 C 167.421875 168.660156 178.507812 145.503906 178.507812 145.503906"/><path fill="#11100E" d="M 171.769531 144.714844 C 171.769531 152.675781 165.308594 159.128906 157.339844 159.128906 C 149.367188 159.128906 142.910156 152.675781 142.910156 144.714844 C 142.910156 136.753906 149.367188 130.300781 157.339844 130.300781 C 165.308594 130.300781 171.769531 136.753906 171.769531 144.714844"/><path fill="#FFF" d="M 169.640625 142.6875 C 170.574219 149.46875 165.832031 155.730469 159.039062 156.664062 C 152.242188 157.601562 145.980469 152.863281 145.039062 146.078125 C 144.101562 139.292969 148.847656 133.03125 155.640625 132.097656 C 162.433594 131.160156 168.699219 135.902344 169.640625 142.6875"/><path fill="#4B88CF" d="M 167.214844 143.566406 C 167.949219 148.871094 164.234375 153.769531 158.921875 154.503906 C 153.605469 155.234375 148.699219 151.527344 147.96875 146.214844 C 147.230469 140.90625 150.949219 136.007812 156.261719 135.277344 C 161.574219 134.542969 166.480469 138.25 167.214844 143.566406"/><path fill="#1D3D65" d="M 164.71875 143.90625 C 165.292969 148.035156 162.402344 151.847656 158.265625 152.417969 C 154.132812 152.984375 150.320312 150.101562 149.75 145.972656 C 149.179688 141.84375 152.066406 138.03125 156.199219 137.460938 C 160.335938 136.890625 164.152344 139.777344 164.71875 143.90625"/><path fill="#15293D" d="M 161.402344 144.746094 C 161.402344 146.867188 159.675781 148.585938 157.554688 148.585938 C 155.429688 148.585938 153.707031 146.867188 153.707031 144.746094 C 153.707031 142.625 155.429688 140.902344 157.554688 140.902344 C 159.675781 140.902344 161.402344 142.625 161.402344 144.746094"/><path fill="#FFF" d="M 164.429688 138.957031 C 164.664062 140.628906 163.492188 142.167969 161.816406 142.402344 C 160.144531 142.628906 158.601562 141.460938 158.367188 139.789062 C 158.140625 138.121094 159.308594 136.578125 160.980469 136.347656 C 162.65625 136.117188 164.199219 137.285156 164.429688 138.957031"/><path fill="#FFF" d="M 165.765625 143.972656 C 165.765625 144.691406 165.179688 145.273438 164.460938 145.273438 C 163.742188 145.273438 163.15625 144.691406 163.15625 143.972656 C 163.15625 143.25 163.742188 142.667969 164.460938 142.667969 C 165.179688 142.667969 165.765625 143.25 165.765625 143.972656"/><path fill="#11100E" d="M 224.679688 145.21875 C 224.679688 153.175781 218.21875 159.632812 210.25 159.632812 C 202.28125 159.632812 195.820312 153.175781 195.820312 145.21875 C 195.820312 137.257812 202.28125 130.804688 210.25 130.804688 C 218.21875 130.804688 224.679688 137.257812 224.679688 145.21875"/><path fill="#FFF" d="M 222.546875 143.1875 C 223.484375 149.96875 218.742188 156.230469 211.949219 157.167969 C 205.15625 158.105469 198.890625 153.363281 197.953125 146.578125 C 197.015625 139.796875 201.757812 133.535156 208.550781 132.601562 C 215.34375 131.660156 221.609375 136.40625 222.546875 143.1875"/><path fill="#4B88CF" d="M 220.125 144.066406 C 220.863281 149.375 217.144531 154.273438 211.832031 155.007812 C 206.515625 155.742188 201.609375 152.03125 200.878906 146.722656 C 200.144531 141.410156 203.855469 136.511719 209.171875 135.777344 C 214.488281 135.046875 219.394531 138.757812 220.125 144.066406"/><path fill="#1D3D65" d="M 217.628906 144.410156 C 218.203125 148.539062 215.3125 152.347656 211.179688 152.917969 C 207.042969 153.488281 203.230469 150.601562 202.660156 146.476562 C 202.089844 142.347656 204.980469 138.535156 209.113281 137.964844 C 213.246094 137.394531 217.0625 140.28125 217.628906 144.410156"/><path fill="#15293D" d="M 214.3125 145.25 C 214.3125 147.371094 212.585938 149.089844 210.464844 149.089844 C 208.339844 149.089844 206.617188 147.371094 206.617188 145.25 C 206.617188 143.128906 208.339844 141.40625 210.464844 141.40625 C 212.585938 141.40625 214.3125 143.128906 214.3125 145.25"/><path fill="#FFF" d="M 217.339844 139.457031 C 217.574219 141.128906 216.402344 142.671875 214.726562 142.902344 C 213.054688 143.132812 211.507812 141.96875 211.28125 140.296875 C 211.050781 138.625 212.21875 137.082031 213.894531 136.851562 C 215.566406 136.617188 217.109375 137.789062 217.339844 139.457031"/><path fill="#FFF" d="M 218.675781 144.472656 C 218.675781 145.195312 218.089844 145.777344 217.371094 145.777344 C 216.648438 145.777344 216.066406 145.195312 216.066406 144.472656 C 216.066406 143.753906 216.648438 143.167969 217.371094 143.167969 C 218.089844 143.167969 218.675781 143.753906 218.675781 144.472656"/><path fill="#753DA2" d="M 253.230469 167.785156 C 253.230469 171.769531 249.996094 175 246.003906 175 C 242.015625 175 238.785156 171.769531 238.785156 167.785156 C 238.785156 163.800781 242.015625 160.570312 246.003906 160.570312 C 249.996094 160.570312 253.230469 163.800781 253.230469 167.785156"/><path fill="#753DA2" d="M 261.792969 183.976562 C 261.792969 185.597656 260.476562 186.914062 258.855469 186.914062 C 257.230469 186.914062 255.917969 185.597656 255.917969 183.976562 C 255.917969 182.355469 257.230469 181.039062 258.855469 181.039062 C 260.476562 181.039062 261.792969 182.355469 261.792969 183.976562"/><path fill="#753DA2" d="M 247.347656 182.632812 C 247.347656 183.980469 246.257812 185.066406 244.914062 185.066406 C 243.566406 185.066406 242.480469 183.980469 242.480469 182.632812 C 242.480469 181.292969 243.566406 180.203125 244.914062 180.203125 C 246.257812 180.203125 247.347656 181.292969 247.347656 182.632812"/><path fill="#753DA2" d="M 255.410156 195.386719 C 255.410156 197.007812 254.09375 198.324219 252.472656 198.324219 C 250.847656 198.324219 249.535156 197.007812 249.535156 195.386719 C 249.535156 193.765625 250.847656 192.449219 252.472656 192.449219 C 254.09375 192.449219 255.410156 193.765625 255.410156 195.386719"/><path fill="#753DA2" d="M 262.132812 206.375 C 262.132812 207.949219 260.851562 209.226562 259.277344 209.226562 C 257.699219 209.226562 256.417969 207.949219 256.417969 206.375 C 256.417969 204.800781 257.699219 203.523438 259.277344 203.523438 C 260.851562 203.523438 262.132812 204.800781 262.132812 206.375"/><path fill="#753DA2" d="M 254.90625 217.367188 C 254.90625 219.171875 253.441406 220.636719 251.632812 220.636719 C 249.824219 220.636719 248.355469 219.171875 248.355469 217.367188 C 248.355469 215.558594 249.824219 214.09375 251.632812 214.09375 C 253.441406 214.09375 254.90625 215.558594 254.90625 217.367188"/><path fill="#753DA2" d="M 264.148438 224.496094 C 264.148438 225.699219 263.167969 226.675781 261.964844 226.675781 C 260.757812 226.675781 259.777344 225.699219 259.777344 224.496094 C 259.777344 223.292969 260.757812 222.316406 261.964844 222.316406 C 263.167969 222.316406 264.148438 223.292969 264.148438 224.496094"/><path fill="#753DA2" d="M 120.023438 175.839844 C 120.023438 181.582031 115.359375 186.242188 109.605469 186.242188 C 103.855469 186.242188 99.191406 181.582031 99.191406 175.839844 C 99.191406 170.09375 103.855469 165.4375 109.605469 165.4375 C 115.359375 165.4375 120.023438 170.09375 120.023438 175.839844"/><path fill="#753DA2" d="M 110.277344 193.457031 C 110.277344 194.382812 109.527344 195.132812 108.597656 195.132812 C 107.671875 195.132812 106.917969 194.382812 106.917969 193.457031 C 106.917969 192.527344 107.671875 191.777344 108.597656 191.777344 C 109.527344 191.777344 110.277344 192.527344 110.277344 193.457031"/><path fill="#753DA2" d="M 122.375 203.1875 C 122.375 205.597656 120.417969 207.550781 118.007812 207.550781 C 115.59375 207.550781 113.636719 205.597656 113.636719 203.1875 C 113.636719 200.777344 115.59375 198.824219 118.007812 198.824219 C 120.417969 198.824219 122.375 200.777344 122.375 203.1875"/><path fill="#753DA2" d="M 106.078125 211.410156 C 106.078125 213.636719 104.273438 215.4375 102.046875 215.4375 C 99.824219 215.4375 98.015625 213.636719 98.015625 211.410156 C 98.015625 209.1875 99.824219 207.382812 102.046875 207.382812 C 104.273438 207.382812 106.078125 209.1875 106.078125 211.410156"/><path fill="#753DA2" d="M 111.285156 225.839844 C 111.285156 227.042969 110.308594 228.019531 109.101562 228.019531 C 107.898438 228.019531 106.917969 227.042969 106.917969 225.839844 C 106.917969 224.632812 107.898438 223.65625 109.101562 223.65625 C 110.308594 223.65625 111.285156 224.632812 111.285156 225.839844"/><path fill="#753DA2" d="M 130.773438 242.785156 C 130.773438 245.566406 128.515625 247.820312 125.734375 247.820312 C 122.949219 247.820312 120.695312 245.566406 120.695312 242.785156 C 120.695312 240.003906 122.949219 237.75 125.734375 237.75 C 128.515625 237.75 130.773438 240.003906 130.773438 242.785156"/><path fill="#753DA2" d="M 110.109375 250.921875 C 110.109375 253.285156 108.191406 255.203125 105.828125 255.203125 C 103.460938 255.203125 101.542969 253.285156 101.542969 250.921875 C 101.542969 248.5625 103.460938 246.644531 105.828125 246.644531 C 108.191406 246.644531 110.109375 248.5625 110.109375 250.921875"/><path fill="#753DA2" d="M 122.878906 269.046875 C 122.878906 270.480469 121.710938 271.644531 120.273438 271.644531 C 118.835938 271.644531 117.671875 270.480469 117.671875 269.046875 C 117.671875 267.609375 118.835938 266.445312 120.273438 266.445312 C 121.710938 266.445312 122.878906 267.609375 122.878906 269.046875"/><path fill="#753DA2" d="M 246.675781 242.871094 C 246.675781 246.066406 244.085938 248.660156 240.882812 248.660156 C 237.679688 248.660156 235.089844 246.066406 235.089844 242.871094 C 235.089844 239.671875 237.679688 237.082031 240.882812 237.082031 C 244.085938 237.082031 246.675781 239.671875 246.675781 242.871094"/><path fill="#753DA2" d="M 259.277344 254.617188 C 259.277344 256.144531 258.035156 257.382812 256.503906 257.382812 C 254.972656 257.382812 253.730469 256.144531 253.730469 254.617188 C 253.730469 253.085938 254.972656 251.847656 256.503906 251.847656 C 258.035156 251.847656 259.277344 253.085938 259.277344 254.617188"/><path fill="#EEDD16" d="M 111.425781 291.976562 L 255.851562 291.976562 C 259.242188 286.476562 262.320312 280.585938 265.042969 274.359375 L 102.238281 274.359375 C 104.957031 280.585938 108.035156 286.476562 111.425781 291.976562"/><path fill="#F47217" d="M 122.375 307.078125 C 128.265625 313.988281 134.765625 319.917969 141.742188 324.691406 L 225.535156 324.691406 C 232.511719 319.917969 239.011719 313.988281 244.902344 307.078125 L 122.375 307.078125"/><path fill="#7140A4" d="M 225.519531 40.710938 C 220.183594 43.882812 226.703125 60.960938 219.445312 68.242188 C 212.179688 75.523438 205.796875 77.371094 207.335938 84.769531 C 208.878906 92.167969 225.917969 96.808594 237.117188 84.695312 C 248.316406 72.585938 230.851562 37.53125 225.519531 40.710938"/><path fill="#573298" d="M 208.851562 77.84375 C 210.78125 75.371094 214.113281 73.210938 217.835938 69.785156 C 222.980469 73.457031 230.917969 77.832031 240.214844 78.550781 C 239.65625 80.925781 238.660156 83.03125 237.117188 84.695312 C 235.136719 86.835938 232.976562 88.453125 230.75 89.621094 C 224.296875 88.148438 215.847656 84.910156 208.851562 77.84375"/><path fill="#573298" d="M 222.507812 62.273438 C 223.214844 59.246094 223.238281 55.832031 223.199219 52.613281 C 226.015625 53.941406 230.074219 54.496094 235.789062 52.75 C 237.367188 56.234375 238.746094 60.15625 239.65625 64.097656 C 234.199219 64.855469 227.917969 64.78125 222.507812 62.273438"/><path fill="#F5D220" d="M 207.433594 93.957031 C 207.433594 93.957031 212.753906 98.113281 217.515625 98.070312 C 222.28125 98.023438 215.335938 93.402344 215.335938 93.402344 C 215.335938 93.402344 221.238281 92.453125 222.332031 90.480469 C 223.421875 88.507812 214.5 88.949219 213.828125 89.457031 C 213.152344 89.96875 217.730469 85.652344 218.125 82.425781 C 218.523438 79.203125 209.457031 87.503906 209.457031 87.503906 C 209.457031 87.503906 215.59375 77.136719 214.96875 75.023438 C 214.34375 72.910156 208.34375 81.566406 208.34375 81.566406 C 208.34375 81.566406 211.625 73.1875 209.972656 72.191406 C 208.324219 71.191406 205.953125 80.707031 205.769531 80.125 C 205.582031 79.546875 206.257812 71.65625 204.097656 71.214844 C 201.933594 70.769531 200.261719 75.390625 201.09375 82.304688 C 201.929688 89.222656 207.433594 93.957031 207.433594 93.957031"/><path fill="#7140A4" d="M 143.5625 40.871094 C 148.898438 44.042969 142.375 61.121094 149.640625 68.402344 C 156.898438 75.679688 163.28125 77.53125 161.742188 84.929688 C 160.203125 92.324219 143.164062 96.96875 131.964844 84.855469 C 120.765625 72.746094 138.230469 37.691406 143.5625 40.871094"/><path fill="#573298" d="M 160.230469 78.003906 C 158.304688 75.527344 154.96875 73.371094 151.246094 69.941406 C 146.101562 73.617188 138.160156 77.992188 128.863281 78.710938 C 129.425781 81.089844 130.425781 83.191406 131.964844 84.855469 C 133.945312 86.996094 136.105469 88.609375 138.328125 89.785156 C 144.785156 88.304688 153.234375 85.070312 160.230469 78.003906"/><path fill="#573298" d="M 146.578125 62.433594 C 145.871094 59.402344 145.84375 55.992188 145.882812 52.773438 C 143.0625 54.101562 139.007812 54.652344 133.289062 52.910156 C 131.714844 56.390625 130.335938 60.316406 129.421875 64.257812 C 134.882812 65.011719 141.164062 64.941406 146.578125 62.433594"/><path fill="#F5D220" d="M 161.644531 94.117188 C 161.644531 94.117188 156.324219 98.273438 151.5625 98.230469 C 146.800781 98.183594 153.746094 93.5625 153.746094 93.5625 C 153.746094 93.5625 147.84375 92.613281 146.753906 90.640625 C 145.660156 88.667969 154.582031 89.105469 155.253906 89.617188 C 155.925781 90.128906 151.351562 85.8125 150.953125 82.585938 C 150.558594 79.359375 159.621094 87.664062 159.621094 87.664062 C 159.621094 87.664062 153.488281 77.296875 154.109375 75.179688 C 154.738281 73.070312 160.734375 81.726562 160.734375 81.726562 C 160.734375 81.726562 157.457031 73.347656 159.105469 72.347656 C 160.753906 71.351562 163.128906 80.867188 163.316406 80.285156 C 163.5 79.703125 162.824219 71.8125 164.984375 71.375 C 167.144531 70.933594 168.820312 75.550781 167.984375 82.464844 C 167.152344 89.382812 161.644531 94.117188 161.644531 94.117188"/></svg>