<svg xmlns="http://www.w3.org/2000/svg" width="125" viewBox="-15 -15 400 400" height="125" version="1.0"><defs><clipPath id="a"><path d="M 105 12.523438 L 120 12.523438 L 120 29 L 105 29 Z M 105 12.523438"/></clipPath><clipPath id="b"><path d="M 113 12.523438 L 135 12.523438 L 135 28 L 113 28 Z M 113 12.523438"/></clipPath><clipPath id="c"><path d="M 86.191406 53.792969 L 293.253906 53.792969 L 293.253906 362.769531 L 86.191406 362.769531 Z M 86.191406 53.792969"/></clipPath></defs><path fill="#D0EA8C" d="M 234.527344 33.65625 L 234.234375 33.382812 C 234.234375 33.382812 239.097656 25.550781 247.09375 19.75 C 248.511719 19.570312 249.875 19.527344 251.027344 19.613281 C 257.675781 20.109375 261.589844 23.449219 264.078125 28.355469 C 260.15625 29.875 258.777344 32.816406 259.15625 36.253906 C 252.527344 26.285156 239.671875 30.050781 234.527344 33.65625"/><path fill="#D0EA8C" d="M 263.734375 13.664062 C 265.199219 13.644531 266.699219 13.742188 268.238281 14.019531 C 272.105469 14.714844 274.945312 16.175781 277.027344 18.070312 C 278.628906 21.796875 279.652344 27.289062 273.207031 29.367188 L 273.289062 29.539062 C 271.878906 28.539062 270.28125 27.847656 268.5 27.6875 C 270.3125 22.761719 267.453125 16.671875 263.734375 13.664062"/><path fill="#D0EA8C" d="M 262.710938 72.21875 C 260.359375 68.648438 256.898438 65.277344 253.21875 62.90625 C 248.066406 59.582031 240.925781 58.746094 234.226562 59.34375 C 237.433594 57.960938 240.820312 55.917969 243.601562 52.90625 C 247.636719 52.597656 251.707031 53.128906 255.394531 53.960938 C 262.003906 55.445312 268.871094 59.449219 272.890625 65.007812 C 271.695312 68.945312 269.515625 73.613281 265.59375 78.367188 C 264.972656 76.226562 263.890625 74.011719 262.710938 72.21875"/><path fill="#D0EA8C" d="M 256.621094 47.480469 C 254.1875 47.242188 250.457031 47.441406 246.972656 48.105469 C 247.320312 47.433594 247.648438 46.738281 247.933594 46.007812 L 247.640625 45.734375 C 252.238281 43.828125 257.3125 43.1875 262.160156 43.738281 C 264.957031 47.980469 269.375 52.042969 274.234375 54.511719 C 274.234375 54.511719 274.273438 54.851562 274.292969 55.460938 C 269.730469 50.9375 261.65625 47.964844 256.621094 47.480469"/><path fill="#529934" d="M 234.527344 33.65625 C 239.671875 30.050781 252.527344 26.285156 259.15625 36.253906 C 259.414062 38.617188 260.496094 41.210938 262.160156 43.738281 C 257.3125 43.1875 252.238281 43.828125 247.640625 45.734375 L 234.527344 33.65625"/><path fill="#529934" d="M 277.027344 18.070312 C 285.59375 25.859375 281.140625 41.054688 281.140625 41.054688 C 281.140625 41.054688 278.496094 33.234375 273.289062 29.539062 L 273.207031 29.367188 C 279.652344 27.289062 278.628906 21.796875 277.027344 18.070312"/><path fill="#529934" d="M 251.027344 19.613281 C 249.875 19.527344 248.511719 19.570312 247.09375 19.75 C 251.707031 16.402344 257.363281 13.753906 263.734375 13.664062 C 267.453125 16.671875 270.3125 22.761719 268.5 27.6875 C 267.160156 27.5625 265.710938 27.734375 264.152344 28.328125 C 264.128906 28.335938 264.105469 28.347656 264.078125 28.355469 C 261.589844 23.449219 257.675781 20.109375 251.027344 19.613281"/><path fill="#529934" d="M 217.9375 66.328125 C 217.9375 66.328125 228.492188 61.816406 234.226562 59.34375 C 240.925781 58.746094 248.066406 59.582031 253.21875 62.90625 C 256.898438 65.277344 260.359375 68.648438 262.710938 72.21875 C 263.890625 74.011719 264.972656 76.226562 265.59375 78.367188 C 264.261719 79.980469 262.726562 81.601562 260.957031 83.207031 L 226.125 70.90625 C 224.574219 68.347656 218.144531 69.605469 217.9375 66.328125"/><path fill="#529934" d="M 243.601562 52.90625 C 244.882812 51.523438 246.023438 49.925781 246.972656 48.105469 C 250.457031 47.441406 254.1875 47.242188 256.621094 47.480469 C 261.65625 47.964844 269.730469 50.9375 274.292969 55.460938 C 274.339844 57.0625 274.238281 60.558594 272.890625 65.007812 C 268.871094 59.449219 262.003906 55.445312 255.394531 53.960938 C 251.707031 53.128906 247.636719 52.597656 243.601562 52.90625"/><path fill="#D0EA8C" d="M 144.589844 31.703125 L 144.886719 31.429688 C 144.886719 31.429688 141.117188 23.800781 134.253906 18.238281 C 132.957031 18.085938 131.699219 18.066406 130.625 18.175781 C 124.425781 18.785156 120.488281 22.144531 117.726562 27.023438 C 121.21875 28.449219 122.21875 31.320312 121.550781 34.714844 C 128.613281 24.777344 140.164062 28.246094 144.589844 31.703125"/><g clip-path="url(#a)"><path fill="#D0EA8C" d="M 119.417969 12.546875 C 118.058594 12.554688 116.664062 12.679688 115.210938 12.980469 C 111.570312 13.734375 108.800781 15.230469 106.699219 17.132812 C 104.867188 20.835938 103.410156 26.261719 109.179688 28.191406 L 109.09375 28.359375 C 110.488281 27.347656 112.03125 26.636719 113.695312 26.445312 C 112.480469 21.628906 115.691406 15.582031 119.417969 12.546875"/></g><path fill="#D0EA8C" d="M 114.902344 70.207031 C 117.414062 66.640625 120.933594 63.261719 124.558594 60.859375 C 129.640625 57.492188 136.328125 56.535156 142.472656 57 C 139.632812 55.695312 136.6875 53.746094 134.394531 50.832031 C 130.6875 50.601562 126.871094 51.199219 123.378906 52.085938 C 117.121094 53.671875 110.394531 57.738281 106.152344 63.285156 C 106.890625 67.144531 108.472656 71.703125 111.660156 76.3125 C 112.433594 74.191406 113.640625 71.992188 114.902344 70.207031"/><path fill="#D0EA8C" d="M 122.847656 45.722656 C 125.125 45.445312 128.558594 45.574219 131.722656 46.160156 C 131.460938 45.507812 131.222656 44.832031 131.027344 44.113281 L 131.324219 43.839844 C 127.246094 42.046875 122.609375 41.507812 118.070312 42.144531 C 115.085938 46.371094 110.617188 50.453125 105.886719 52.976562 C 105.886719 52.976562 105.820312 53.308594 105.746094 53.914062 C 110.390625 49.371094 118.144531 46.292969 122.847656 45.722656"/><path fill="#529934" d="M 144.589844 31.703125 C 140.164062 28.246094 128.613281 24.777344 121.550781 34.714844 C 121.089844 37.046875 119.847656 39.621094 118.070312 42.144531 C 122.609375 41.507812 127.246094 42.046875 131.324219 43.839844 L 144.589844 31.703125"/><path fill="#529934" d="M 106.699219 17.132812 C 98.042969 24.960938 100.75 39.84375 100.75 39.84375 C 100.75 39.84375 103.925781 32.097656 109.09375 28.359375 L 109.179688 28.191406 C 103.410156 26.261719 104.867188 20.835938 106.699219 17.132812"/><g clip-path="url(#b)"><path fill="#529934" d="M 130.625 18.175781 C 131.699219 18.066406 132.957031 18.085938 134.253906 18.238281 C 130.296875 15.027344 125.304688 12.515625 119.417969 12.546875 C 115.691406 15.582031 112.480469 21.628906 113.695312 26.445312 C 114.949219 26.296875 116.273438 26.445312 117.660156 27 C 117.683594 27.003906 117.703125 27.019531 117.726562 27.023438 C 120.488281 22.144531 124.425781 18.785156 130.625 18.175781"/></g><path fill="#529934" d="M 156.898438 63.578125 C 156.898438 63.578125 147.550781 59.332031 142.472656 57 C 136.328125 56.535156 129.640625 57.492188 124.558594 60.859375 C 120.933594 63.261719 117.414062 66.640625 114.902344 70.207031 C 113.640625 71.992188 112.433594 74.191406 111.660156 76.3125 C 112.746094 77.878906 114.015625 79.445312 115.503906 80.996094 L 148.898438 68.238281 C 150.566406 65.691406 156.402344 66.808594 156.898438 63.578125"/><path fill="#529934" d="M 134.394531 50.832031 C 133.339844 49.492188 132.429688 47.941406 131.722656 46.160156 C 128.558594 45.574219 125.125 45.445312 122.847656 45.722656 C 118.144531 46.292969 110.390625 49.371094 105.746094 53.914062 C 105.550781 55.488281 105.320312 58.933594 106.152344 63.285156 C 110.394531 57.738281 117.121094 53.671875 123.378906 52.085938 C 126.871094 51.199219 130.6875 50.601562 134.394531 50.832031"/><g clip-path="url(#c)"><path fill="#6AC43B" d="M 293.253906 362.769531 L 86.191406 362.769531 L 86.191406 120.589844 C 86.191406 120.589844 108.96875 53.996094 187.191406 53.996094 C 269.09375 53.996094 293.253906 120.589844 293.253906 120.589844 L 293.253906 362.769531"/></g><path fill="#D0EA8C" d="M 118.871094 152.410156 C 108.378906 144.148438 98.566406 148.390625 94.480469 155.8125 C 78.003906 185.78125 113.617188 349.667969 190.136719 347.613281 C 281.691406 345.15625 296.851562 172.160156 285.644531 152.410156 C 277.152344 137.441406 264.707031 145.417969 257.300781 152.410156 C 272.460938 116.992188 243.726562 84.429688 216.566406 107.945312 C 213.480469 85.066406 195.949219 79.214844 190.027344 79.34375 C 161.019531 79.980469 156.699219 106.039062 156.699219 106.039062 C 156.699219 106.039062 143.09375 90.730469 125.222656 100.953125 C 114.113281 107.308594 104.371094 129.933594 118.871094 152.410156"/><path fill="#5B3235" d="M 278.023438 160.957031 C 277.058594 186.949219 268.5 321.273438 194.269531 321.0625 C 125.460938 320.867188 100.148438 213.640625 102.242188 165.832031 C 102.308594 164.355469 103.839844 162.203125 106.324219 163.210938 C 123.746094 170.261719 198.183594 196.191406 273.066406 159.230469 C 274.757812 158.398438 278.125 158.171875 278.023438 160.957031"/><path fill="#FFF" d="M 149.273438 174.621094 C 142.992188 173.601562 136.761719 172.265625 130.5 171.113281 C 130.402344 171.082031 130.300781 171.046875 130.203125 171.015625 C 128.09375 175.386719 126.582031 187.035156 126.695312 191.136719 C 126.871094 197.433594 158.011719 200.902344 159.167969 193.941406 C 159.835938 189.910156 160.78125 179.601562 160.386719 176.21875 C 156.671875 175.792969 152.964844 175.21875 149.273438 174.621094"/><path fill="#FFF" d="M 232.867188 173.195312 C 226.59375 174.257812 220.28125 175 213.988281 175.929688 C 213.882812 175.929688 213.78125 175.929688 213.675781 175.929688 C 212.832031 180.792969 213.507812 192.097656 214.714844 195.976562 C 216.570312 201.9375 247.261719 195.164062 246.5 188.132812 C 246.058594 184.066406 245.199219 174.226562 243.917969 171.121094 C 240.25 171.921875 236.554688 172.570312 232.867188 173.195312"/><path fill="#FEF6C3" d="M 149.507812 175.25 C 149.519531 175.25 149.527344 175.253906 149.535156 175.253906 C 149.539062 175.210938 149.542969 175.167969 149.546875 175.125 C 149.535156 175.167969 149.523438 175.207031 149.507812 175.25"/><path fill="#6AC43B" d="M 106.324219 163.210938 C 123.746094 170.261719 199.171875 196.214844 274.058594 159.25 C 274.621094 158.972656 276.558594 158.566406 277.9375 159.871094 C 277.246094 158.21875 274.757812 158.15625 273.683594 158.632812 C 200.328125 191.234375 123.875 168.816406 106.332031 162.140625 C 104.707031 161.523438 102.457031 163.101562 102.390625 165.234375 C 103.019531 163.652344 104.726562 162.5625 106.324219 163.210938"/><path fill="#6AC43B" d="M 194.269531 317.96875 C 128.757812 317.785156 102.671875 220.578125 102.132812 170 C 101.605469 219.585938 127.164062 323.902344 194.042969 324.09375 C 268.273438 324.300781 277.058594 186.949219 278.023438 160.957031 C 278.03125 160.640625 278 160.367188 277.929688 160.125 C 276.566406 190.808594 266.554688 318.171875 194.269531 317.96875"/><path fill="#6AC43B" d="M 189.761719 161.695312 C 189.414062 165.75 191.792969 169.878906 194.28125 170.09375 C 196.769531 170.304688 199.070312 167.195312 199.417969 163.136719 C 199.769531 159.082031 198.03125 155.625 195.542969 155.410156 C 193.050781 155.199219 190.109375 157.644531 189.761719 161.695312"/><path fill="#3A672A" d="M 191.316406 163.957031 C 191.023438 167.367188 192.492188 170.277344 194.597656 170.457031 C 196.707031 170.636719 198.648438 168.019531 198.941406 164.609375 C 199.234375 161.199219 197.765625 158.289062 195.660156 158.109375 C 193.550781 157.929688 191.609375 160.546875 191.316406 163.957031"/><path fill="#6AC43B" d="M 185.765625 162.285156 C 186.523438 166.375 184.554688 170.367188 182.078125 170.421875 C 179.601562 170.476562 176.980469 167.210938 176.222656 163.121094 C 175.464844 159.027344 176.855469 155.667969 179.332031 155.613281 C 181.808594 155.558594 185.007812 158.199219 185.765625 162.285156"/><path fill="#3A672A" d="M 184.433594 164.457031 C 185.070312 167.894531 183.890625 170.722656 181.796875 170.769531 C 179.699219 170.816406 177.484375 168.066406 176.847656 164.625 C 176.210938 161.1875 177.390625 158.363281 179.488281 158.316406 C 181.585938 158.269531 183.796875 161.015625 184.433594 164.457031"/><path fill="#6AC43B" d="M 254.132812 135.460938 C 254.132812 148.4375 244.738281 158.15625 232.898438 158.15625 C 221.0625 158.15625 211.265625 148.4375 211.265625 135.460938 C 211.265625 122.484375 220.863281 111.960938 232.699219 111.960938 C 244.535156 111.960938 254.132812 122.484375 254.132812 135.460938"/><path fill="#6AC43B" d="M 252.328125 134.511719 C 252.328125 145.972656 243.722656 154.554688 232.882812 154.554688 C 222.039062 154.554688 213.066406 145.972656 213.066406 134.511719 C 213.066406 123.054688 221.855469 113.761719 232.699219 113.761719 C 243.539062 113.761719 252.328125 123.054688 252.328125 134.511719"/><path fill="#FFF" d="M 250.726562 133.886719 C 250.726562 144.445312 242.914062 152.355469 233.066406 152.355469 C 223.21875 152.355469 215.070312 144.445312 215.070312 133.886719 C 215.070312 123.324219 223.050781 114.761719 232.898438 114.761719 C 242.746094 114.761719 250.726562 123.324219 250.726562 133.886719"/><path fill="#6AC43B" d="M 162.1875 133.984375 C 162.1875 147.378906 152.488281 157.410156 140.269531 157.410156 C 128.050781 157.410156 117.9375 147.378906 117.9375 133.984375 C 117.9375 120.589844 127.84375 109.730469 140.0625 109.730469 C 152.28125 109.730469 162.1875 120.589844 162.1875 133.984375"/><path fill="#6AC43B" d="M 160.324219 133.007812 C 160.324219 144.835938 151.441406 153.695312 140.25 153.695312 C 129.058594 153.695312 119.796875 144.835938 119.796875 133.007812 C 119.796875 121.175781 128.871094 111.589844 140.0625 111.589844 C 151.253906 111.589844 160.324219 121.175781 160.324219 133.007812"/><path fill="#FFF" d="M 158.671875 132.359375 C 158.671875 143.261719 150.605469 151.425781 140.441406 151.425781 C 130.277344 151.425781 121.867188 143.261719 121.867188 132.359375 C 121.867188 121.457031 130.105469 112.621094 140.269531 112.621094 C 150.429688 112.621094 158.671875 121.457031 158.671875 132.359375"/><path fill="#6AC43B" d="M 213.003906 125.484375 C 213.003906 141.582031 201.347656 153.640625 186.664062 153.640625 C 171.976562 153.640625 159.824219 141.582031 159.824219 125.484375 C 159.824219 109.382812 171.730469 96.335938 186.414062 96.335938 C 201.101562 96.335938 213.003906 109.382812 213.003906 125.484375"/><path fill="#6AC43B" d="M 210.769531 124.308594 C 210.769531 138.527344 200.09375 149.175781 186.644531 149.175781 C 173.191406 149.175781 162.0625 138.527344 162.0625 124.308594 C 162.0625 110.089844 172.964844 98.566406 186.414062 98.566406 C 199.863281 98.566406 210.769531 110.089844 210.769531 124.308594"/><path fill="#FFF" d="M 208.78125 123.53125 C 208.78125 136.632812 199.085938 146.445312 186.871094 146.445312 C 174.65625 146.445312 164.546875 136.632812 164.546875 123.53125 C 164.546875 110.429688 174.449219 99.808594 186.664062 99.808594 C 198.878906 99.808594 208.78125 110.429688 208.78125 123.53125"/><path fill="#6AC43B" d="M 133.722656 139.582031 C 129.753906 134.191406 130.476562 125.945312 135.332031 121.160156 C 140.195312 116.375 147.351562 116.859375 151.320312 122.25 C 155.292969 127.644531 154.574219 135.890625 149.714844 140.679688 C 144.855469 145.464844 137.695312 144.96875 133.722656 139.582031"/><path fill="#3A672A" d="M 136.988281 136.484375 C 134.425781 132.890625 134.90625 127.386719 138.054688 124.1875 C 141.210938 120.988281 145.84375 121.300781 148.40625 124.894531 C 150.96875 128.488281 150.492188 133.996094 147.339844 137.199219 C 144.191406 140.398438 139.554688 140.078125 136.988281 136.484375"/><path fill="#FFF" d="M 145.230469 128.875 C 143.03125 126.253906 143.164062 122.402344 145.542969 120.261719 C 147.917969 118.125 151.636719 118.507812 153.832031 121.121094 C 156.042969 123.738281 155.898438 127.59375 153.53125 129.734375 C 151.148438 131.875 147.441406 131.488281 145.230469 128.875"/><path fill="#6AC43B" d="M 175.15625 133.949219 C 170.421875 127.988281 171.234375 118.902344 176.964844 113.648438 C 182.707031 108.398438 191.195312 108.976562 195.929688 114.9375 C 200.671875 120.90625 199.863281 129.992188 194.125 135.246094 C 188.390625 140.496094 179.894531 139.910156 175.15625 133.949219"/><path fill="#3A672A" d="M 179.011719 130.554688 C 175.957031 126.582031 176.496094 120.515625 180.210938 117 C 183.933594 113.492188 189.429688 113.863281 192.488281 117.839844 C 195.546875 121.816406 195.011719 127.882812 191.292969 131.398438 C 187.570312 134.90625 182.074219 134.53125 179.011719 130.554688"/><path fill="#FFF" d="M 188.6875 123.117188 C 186.078125 120.007812 186.238281 115.445312 189.058594 112.902344 C 191.871094 110.371094 196.28125 110.820312 198.890625 113.921875 C 201.511719 117.027344 201.339844 121.601562 198.53125 124.136719 C 195.703125 126.675781 191.308594 126.21875 188.6875 123.117188"/><path fill="#6AC43B" d="M 221.519531 142.847656 C 217.535156 137.433594 218.261719 129.15625 223.140625 124.347656 C 228.019531 119.546875 235.207031 120.035156 239.195312 125.445312 C 243.183594 130.859375 242.460938 139.140625 237.582031 143.949219 C 232.703125 148.753906 225.511719 148.257812 221.519531 142.847656"/><path fill="#3A672A" d="M 224.800781 139.738281 C 222.230469 136.128906 222.710938 130.605469 225.875 127.386719 C 229.039062 124.175781 233.691406 124.492188 236.265625 128.101562 C 238.84375 131.710938 238.363281 137.238281 235.199219 140.453125 C 232.035156 143.667969 227.378906 143.34375 224.800781 139.738281"/><path fill="#FFF" d="M 233.078125 132.097656 C 230.867188 129.464844 231.003906 125.597656 233.390625 123.445312 C 235.773438 121.304688 239.507812 121.6875 241.714844 124.3125 C 243.9375 126.941406 243.789062 130.8125 241.414062 132.957031 C 239.019531 135.109375 235.300781 134.722656 233.078125 132.097656"/><path fill="#6AC43B" d="M 190.960938 54.9375 C 190.960938 54.9375 200.445312 34.210938 186.332031 30.78125 C 172.214844 27.355469 190 48.492188 187.945312 53.808594 C 187.945312 53.808594 185.234375 44.660156 174.816406 44.117188 C 164.394531 43.574219 181.328125 50.652344 184.535156 53.492188 C 187.746094 56.332031 192.128906 56.738281 192.128906 56.738281 C 192.128906 56.738281 195.535156 57.054688 200.316406 50.300781 C 205.105469 43.542969 201.890625 42.816406 190.960938 54.9375"/></svg>