<svg xmlns="http://www.w3.org/2000/svg" width="125" viewBox="-15 -15 400 400" height="125" version="1.0"><defs><clipPath id="a"><path d="M 215.644531 153.15625 L 325.710938 153.15625 L 325.710938 189.859375 L 215.644531 189.859375 Z M 215.644531 153.15625"/></clipPath><clipPath id="b"><path d="M 243.011719 176 L 325.710938 176 L 325.710938 189.859375 L 243.011719 189.859375 Z M 243.011719 176"/></clipPath><clipPath id="c"><path d="M 133.757812 296.492188 L 172.421875 296.492188 L 172.421875 363.617188 L 133.757812 363.617188 Z M 133.757812 296.492188"/></clipPath><clipPath id="d"><path d="M 205.871094 296.492188 L 244.535156 296.492188 L 244.535156 363.617188 L 205.871094 363.617188 Z M 205.871094 296.492188"/></clipPath><clipPath id="e"><path d="M 154 11.121094 L 163 11.121094 L 163 33 L 154 33 Z M 154 11.121094"/></clipPath><clipPath id="f"><path d="M 226 11.121094 L 235 11.121094 L 235 33 L 226 33 Z M 226 11.121094"/></clipPath></defs><path fill="#1D71B8" d="M 160.511719 161.753906 C 160.03125 162.195312 148.550781 172.601562 132.191406 180.617188 C 112.695312 190.171875 94.441406 192.222656 78.914062 186.695312 C 77.074219 186.039062 75.277344 185.273438 73.515625 184.40625 C 69.417969 186.738281 64.566406 186.78125 60.003906 185.1875 C 56.742188 184.050781 49.105469 181.378906 50.8125 176.589844 C 50.882812 176.386719 50.980469 176.195312 51.101562 176.015625 C 52.347656 174.148438 56.050781 173.613281 60.207031 174.652344 C 57.523438 171.699219 56.433594 168.492188 57.78125 166.746094 C 59.460938 164.574219 64.289062 165.480469 68.65625 168.75 C 66.5625 164.144531 66.632812 159.671875 68.933594 158.464844 C 71.5625 157.082031 74.636719 160.144531 76.105469 161.957031 C 78.445312 164.839844 80.054688 168.890625 80.464844 172.574219 C 80.5625 173.445312 80.5625 174.269531 80.472656 175.058594 C 113.054688 189.007812 152.410156 153.699219 152.820312 153.328125 L 159.632812 160.792969 L 160.511719 161.753906"/><path fill="#033285" d="M 96.949219 189.722656 C 90.621094 189.722656 84.585938 188.714844 78.914062 186.695312 C 77.074219 186.039062 75.277344 185.273438 73.515625 184.40625 C 71.25 185.695312 68.753906 186.285156 66.203125 186.285156 C 64.140625 186.285156 62.042969 185.898438 60.003906 185.1875 C 57.0625 184.160156 50.570312 181.890625 50.566406 177.945312 C 50.566406 177.515625 50.644531 177.0625 50.8125 176.589844 C 50.882812 176.386719 50.980469 176.195312 51.101562 176.015625 C 56.824219 179.613281 62.636719 182.511719 66.53125 182.511719 C 66.898438 182.511719 67.246094 182.484375 67.578125 182.433594 C 69.359375 182.144531 70.984375 182.027344 72.445312 182.027344 C 74.269531 182.027344 75.839844 182.210938 77.152344 182.472656 C 82.980469 183.632812 88.484375 185.960938 94.4375 185.960938 C 94.460938 185.960938 94.480469 185.960938 94.5 185.960938 C 100.753906 185.945312 107 185.300781 113.125 184.050781 C 120.574219 182.53125 128.160156 180.054688 135.402344 176.722656 C 135.191406 177.601562 134.960938 178.476562 134.710938 179.347656 C 133.886719 179.773438 133.046875 180.199219 132.191406 180.617188 C 119.816406 186.679688 107.941406 189.722656 96.949219 189.722656"/><g clip-path="url(#a)"><path fill="#1D71B8" d="M 215.765625 161.753906 C 216.246094 162.195312 227.726562 172.601562 244.085938 180.617188 C 263.582031 190.171875 281.835938 192.222656 297.363281 186.695312 C 299.199219 186.039062 301 185.273438 302.761719 184.40625 C 306.863281 186.738281 311.710938 186.78125 316.277344 185.1875 C 319.535156 184.050781 327.171875 181.378906 325.464844 176.589844 C 325.394531 176.386719 325.296875 176.195312 325.175781 176.015625 C 323.929688 174.148438 320.226562 173.613281 316.070312 174.652344 C 318.757812 171.699219 319.84375 168.492188 318.496094 166.746094 C 316.816406 164.574219 311.988281 165.480469 307.621094 168.75 C 309.714844 164.144531 309.648438 159.671875 307.34375 158.464844 C 304.714844 157.082031 301.640625 160.144531 300.171875 161.957031 C 297.832031 164.839844 296.222656 168.890625 295.8125 172.574219 C 295.714844 173.445312 295.714844 174.269531 295.804688 175.058594 C 263.222656 189.007812 223.867188 153.699219 223.457031 153.328125 L 216.644531 160.792969 L 215.765625 161.753906"/></g><g clip-path="url(#b)"><path fill="#033285" d="M 279.332031 189.722656 C 268.335938 189.722656 256.460938 186.679688 244.085938 180.617188 C 244.023438 180.585938 243.957031 180.554688 243.894531 180.523438 C 243.605469 179.59375 243.34375 178.65625 243.097656 177.714844 C 249.664062 180.550781 256.460938 182.683594 263.152344 184.050781 C 269.277344 185.300781 275.523438 185.945312 281.777344 185.960938 C 281.796875 185.960938 281.816406 185.960938 281.839844 185.960938 C 287.796875 185.960938 293.296875 183.632812 299.125 182.472656 C 300.4375 182.210938 302.007812 182.027344 303.832031 182.027344 C 305.292969 182.027344 306.917969 182.144531 308.699219 182.433594 C 309.03125 182.484375 309.378906 182.511719 309.746094 182.511719 C 313.640625 182.511719 319.453125 179.613281 325.175781 176.015625 C 325.296875 176.195312 325.394531 176.386719 325.464844 176.589844 C 325.636719 177.0625 325.710938 177.515625 325.710938 177.945312 C 325.707031 181.890625 319.214844 184.160156 316.277344 185.1875 C 314.234375 185.898438 312.136719 186.285156 310.074219 186.285156 C 307.523438 186.285156 305.03125 185.695312 302.761719 184.40625 C 301 185.273438 299.199219 186.039062 297.363281 186.695312 C 291.691406 188.714844 285.65625 189.722656 279.332031 189.722656"/></g><path fill="#1D71B8" d="M 183.714844 106.894531 L 180.277344 114.277344 C 170.089844 109.535156 162.960938 103.285156 157.988281 96.691406 C 152.324219 89.191406 149.449219 81.246094 148.015625 74.585938 C 146.523438 67.667969 146.390625 61.398438 146.621094 56.882812 C 149.34375 56.882812 152.066406 56.882812 154.789062 56.886719 C 154.6875 58.585938 154.644531 60.605469 154.730469 62.855469 C 154.851562 65.9375 155.21875 69.453125 156.035156 73.15625 C 159.445312 88.585938 168.757812 99.9375 183.714844 106.894531"/><path fill="#033285" d="M 156.257812 94.261719 C 151.722656 87.5 149.292969 80.53125 148.015625 74.585938 C 146.882812 69.328125 146.53125 64.449219 146.53125 60.425781 C 146.53125 59.152344 146.566406 57.96875 146.621094 56.882812 C 149.34375 56.882812 152.066406 56.882812 154.789062 56.886719 C 154.726562 57.949219 154.683594 59.136719 154.683594 60.425781 C 154.683594 61.199219 154.699219 62.011719 154.730469 62.855469 C 154.253906 63.445312 153.804688 64.058594 153.390625 64.699219 C 147.734375 73.324219 153.269531 84.085938 157.628906 92.617188 C 157.484375 92.785156 157.335938 92.957031 157.191406 93.132812 C 156.875 93.503906 156.566406 93.878906 156.257812 94.261719"/><path fill="#1D71B8" d="M 224.523438 74.585938 C 222.570312 83.664062 217.9375 95.121094 207.222656 104.601562 C 203.167969 108.191406 198.238281 111.496094 192.257812 114.277344 L 188.824219 106.894531 C 203.78125 99.9375 213.089844 88.585938 216.5 73.15625 C 217.429688 68.945312 217.777344 64.972656 217.839844 61.605469 C 217.953125 55.546875 217.144531 51.433594 217.132812 51.375 L 221.335938 50.503906 L 225.734375 54.359375 C 226.144531 58.878906 226.316406 66.261719 224.523438 74.585938"/><path fill="#033285" d="M 218.632812 90.410156 C 217.984375 89.734375 217.328125 89.078125 216.660156 88.441406 C 219.140625 81.5 223.789062 69.027344 218.710938 62.476562 C 218.59375 62.328125 218.289062 62.015625 217.839844 61.605469 C 217.847656 61.210938 217.851562 60.828125 217.851562 60.457031 C 217.851562 55.035156 217.140625 51.433594 217.132812 51.375 L 221.335938 50.503906 L 225.734375 54.359375 C 225.886719 56.019531 226.003906 58.066406 226.003906 60.398438 C 226.003906 64.425781 225.65625 69.316406 224.523438 74.585938 C 223.484375 79.40625 221.691406 84.898438 218.632812 90.410156"/><g clip-path="url(#c)"><path fill="#1D71B8" d="M 172.386719 356.40625 C 172.386719 358.199219 171.605469 359.566406 170.226562 360.601562 C 167.023438 363.007812 160.578125 363.617188 153.15625 363.617188 C 142.53125 363.617188 133.921875 362.363281 133.921875 356.40625 C 133.921875 351.699219 139.296875 347.695312 146.789062 346.21875 C 150.484375 345.496094 153.15625 342.265625 153.15625 338.5 L 153.15625 296.570312 L 166.34375 296.570312 L 166.34375 344.40625 C 166.34375 346.757812 167.425781 348.953125 169.21875 350.476562 C 171.21875 352.175781 172.386719 354.214844 172.386719 356.40625"/></g><g clip-path="url(#d)"><path fill="#1D71B8" d="M 244.332031 356.40625 C 244.332031 362.363281 235.722656 363.617188 225.101562 363.617188 C 217.824219 363.617188 211.492188 363.03125 208.226562 360.742188 C 206.726562 359.691406 205.871094 358.285156 205.871094 356.40625 C 205.871094 354.214844 207.039062 352.175781 209.035156 350.476562 C 210.832031 348.953125 211.910156 346.757812 211.910156 344.40625 L 211.910156 296.570312 L 225.101562 296.570312 L 225.101562 338.5 C 225.101562 342.265625 227.769531 345.496094 231.464844 346.21875 C 238.957031 347.695312 244.332031 351.699219 244.332031 356.40625"/></g><path fill="#033285" d="M 170.226562 360.601562 C 170.246094 358.667969 169.605469 356.128906 166.855469 353.96875 C 161.59375 349.835938 163.027344 343.210938 163.027344 343.210938 C 163.863281 339.359375 163.132812 334.5 163.164062 330.578125 C 163.195312 326.960938 163.28125 323.328125 163.210938 319.710938 C 163.140625 316.152344 163.863281 311.933594 162.683594 308.53125 C 161.671875 305.609375 158.976562 303.035156 155.8125 300.816406 C 159.234375 301.625 162.746094 302.3125 166.34375 302.871094 L 166.34375 344.40625 C 166.34375 346.757812 167.425781 348.953125 169.21875 350.476562 C 171.21875 352.175781 172.386719 354.214844 172.386719 356.40625 C 172.386719 358.199219 171.605469 359.566406 170.226562 360.601562"/><path fill="#033285" d="M 208.226562 360.742188 C 206.726562 359.691406 205.871094 358.285156 205.871094 356.40625 C 205.871094 354.214844 207.039062 352.175781 209.035156 350.476562 C 210.832031 348.953125 211.910156 346.757812 211.910156 344.40625 L 211.910156 302.871094 C 214.875 302.410156 217.78125 301.863281 220.628906 301.230469 C 217.679688 303.636719 215.425781 306.820312 215.351562 310.953125 C 215.203125 319.832031 215.4375 336.40625 215.488281 344.039062 C 215.515625 348.859375 211.683594 350.464844 209.972656 354.589844 C 209.179688 356.503906 208.59375 358.609375 208.226562 360.742188"/><path fill="#00AEC6" d="M 283.324219 245.785156 C 283.324219 259.105469 276.234375 271.382812 264.289062 281.242188 C 247.089844 295.433594 219.824219 304.601562 189.128906 304.601562 C 137.105469 304.601562 94.933594 278.269531 94.933594 245.785156 C 94.933594 232.910156 101.558594 221.003906 112.796875 211.320312 C 113.351562 210.84375 113.914062 210.371094 114.488281 209.90625 C 129.441406 197.800781 137.71875 179.414062 137.074219 160.183594 C 137.03125 158.8125 137.007812 157.429688 137.007812 156.039062 C 137.007812 130.457031 144.90625 107.691406 157.191406 93.132812 C 166.011719 82.671875 177.09375 76.4375 189.128906 76.4375 C 199.234375 76.4375 208.671875 80.832031 216.660156 88.441406 C 231.425781 102.492188 241.246094 127.515625 241.246094 156.039062 C 241.246094 157.429688 241.222656 158.8125 241.175781 160.183594 C 240.535156 179.414062 248.816406 197.800781 263.769531 209.90625 C 276.027344 219.835938 283.324219 232.277344 283.324219 245.785156"/><path fill="#0F6B6D" d="M 137.046875 152.878906 C 136.734375 149.425781 136.757812 145.953125 136.992188 142.496094 C 137.234375 139.039062 137.703125 135.597656 138.394531 132.195312 C 139.085938 128.792969 140 125.4375 141.152344 122.164062 C 142.308594 118.894531 143.6875 115.699219 145.40625 112.691406 C 144.4375 116.015625 143.476562 119.300781 142.621094 122.613281 C 141.757812 125.921875 140.992188 129.242188 140.308594 132.582031 C 139.628906 135.925781 139.035156 139.289062 138.515625 142.667969 C 137.984375 146.046875 137.542969 149.449219 137.046875 152.878906"/><path fill="#0F6B6D" d="M 246.625 187.714844 C 248.222656 190.242188 249.808594 192.71875 251.515625 195.101562 C 253.226562 197.480469 255.023438 199.777344 256.941406 201.972656 C 258.867188 204.164062 260.886719 206.269531 263.015625 208.277344 C 264.074219 209.269531 265.203125 210.28125 266.238281 211.359375 C 267.269531 212.445312 268.269531 213.558594 269.164062 214.761719 C 267.960938 213.863281 266.796875 212.953125 265.605469 212.082031 C 264.417969 211.199219 263.222656 210.367188 262.019531 209.449219 C 259.644531 207.605469 257.453125 205.523438 255.46875 203.257812 C 253.488281 200.988281 251.734375 198.527344 250.226562 195.929688 C 248.734375 193.324219 247.488281 190.578125 246.625 187.714844"/><path fill="#0F6B6D" d="M 228.339844 103.601562 C 230.199219 106.03125 231.757812 108.675781 233.125 111.410156 C 234.484375 114.148438 235.640625 116.992188 236.601562 119.894531 C 237.5625 122.800781 238.328125 125.765625 238.894531 128.765625 C 239.449219 131.769531 239.824219 134.808594 239.882812 137.863281 C 239.019531 134.933594 238.238281 132.015625 237.398438 129.125 C 236.5625 126.230469 235.6875 123.359375 234.746094 120.511719 C 233.804688 117.660156 232.796875 114.835938 231.722656 112.027344 C 230.652344 109.214844 229.496094 106.433594 228.339844 103.601562"/><path fill="#0F6B6D" d="M 169.753906 82.121094 C 172.195312 80.15625 174.980469 78.597656 177.949219 77.472656 C 180.914062 76.34375 184.078125 75.679688 187.265625 75.515625 C 190.453125 75.34375 193.671875 75.675781 196.742188 76.496094 C 199.808594 77.324219 202.734375 78.609375 205.332031 80.359375 C 202.375 79.34375 199.414062 78.503906 196.410156 78 C 193.414062 77.484375 190.382812 77.308594 187.367188 77.464844 C 184.355469 77.621094 181.355469 78.113281 178.421875 78.929688 C 175.484375 79.730469 172.617188 80.847656 169.753906 82.121094"/><path d="M 148.632812 29.859375 C 150.050781 27.3125 150.511719 24.089844 149.769531 21.070312 C 149.027344 18.046875 147.074219 15.21875 144.316406 13.390625 C 147.320312 14.773438 149.863281 17.355469 151.210938 20.585938 C 152.554688 23.820312 152.675781 27.625 151.410156 31.097656 L 148.632812 29.859375"/><g clip-path="url(#e)"><path d="M 154.910156 29.464844 C 156.375 28.964844 157.714844 27.9375 158.75 26.605469 C 159.789062 25.273438 160.535156 23.648438 160.90625 21.929688 C 161.277344 20.195312 161.308594 18.355469 161.085938 16.535156 C 160.867188 14.707031 160.402344 12.890625 159.800781 11.121094 C 160.636719 12.796875 161.351562 14.546875 161.832031 16.390625 C 162.316406 18.230469 162.558594 20.175781 162.410156 22.140625 C 162.257812 24.117188 161.675781 26.085938 160.648438 27.867188 C 160.132812 28.757812 159.503906 29.597656 158.75 30.347656 C 157.996094 31.09375 157.113281 31.746094 156.132812 32.246094 L 154.910156 29.464844"/></g><path d="M 161.277344 31.738281 C 162.40625 31.75 163.539062 31.578125 164.613281 31.171875 C 165.691406 30.765625 166.703125 30.125 167.585938 29.296875 C 168.472656 28.46875 169.222656 27.453125 169.820312 26.339844 C 170.421875 25.226562 170.875 24.011719 171.183594 22.746094 C 171.125 24.042969 170.917969 25.355469 170.523438 26.632812 C 170.128906 27.910156 169.550781 29.15625 168.738281 30.289062 C 167.929688 31.421875 166.886719 32.433594 165.652344 33.199219 C 164.417969 33.972656 163.011719 34.496094 161.5625 34.761719 L 161.277344 31.738281"/><path fill="#1D71B8" d="M 164.6875 57.582031 C 163.636719 58.625 162.492188 59.507812 161.273438 60.234375 C 159.3125 61.398438 157.164062 62.144531 154.960938 62.464844 C 153.699219 62.652344 152.421875 62.699219 151.152344 62.605469 C 147.160156 62.304688 143.253906 60.628906 140.199219 57.582031 C 133.433594 50.820312 133.433594 39.847656 140.191406 33.09375 C 146.953125 26.332031 157.921875 26.332031 164.6875 33.097656 C 171.445312 39.855469 171.445312 50.820312 164.6875 57.582031"/><path fill="#9D9D9C" d="M 163.234375 35.378906 C 168.734375 40.878906 168.734375 49.796875 163.234375 55.296875 C 161.007812 57.523438 158.222656 58.851562 155.324219 59.273438 C 151.070312 59.894531 146.589844 58.570312 143.316406 55.296875 C 137.8125 49.792969 137.8125 40.875 143.3125 35.375 C 148.8125 29.875 157.730469 29.875 163.234375 35.378906"/><path fill="#FFF" d="M 162.402344 35.378906 C 167.902344 40.878906 167.902344 49.796875 162.402344 55.296875 C 160.175781 57.523438 157.386719 58.851562 154.492188 59.273438 C 150.238281 59.894531 145.753906 58.570312 142.480469 55.296875 C 136.976562 49.792969 136.976562 40.875 142.476562 35.375 C 147.976562 29.875 156.898438 29.875 162.402344 35.378906"/><path fill="#3C3C3B" d="M 155.957031 41.820312 C 157.898438 43.761719 157.898438 46.910156 155.957031 48.851562 C 154.015625 50.796875 150.867188 50.796875 148.925781 48.851562 C 146.984375 46.910156 146.984375 43.761719 148.925781 41.820312 C 150.867188 39.878906 154.015625 39.878906 155.957031 41.820312"/><path fill="#FFF" d="M 149.96875 46.714844 C 150.847656 47.59375 150.847656 49.019531 149.96875 49.898438 C 149.089844 50.773438 147.664062 50.773438 146.785156 49.898438 C 145.910156 49.019531 145.910156 47.59375 146.785156 46.714844 C 147.664062 45.835938 149.089844 45.835938 149.96875 46.714844"/><path fill="#FFF" d="M 156.066406 43.800781 C 156.503906 44.230469 156.503906 44.933594 156.066406 45.371094 C 155.632812 45.804688 154.929688 45.804688 154.496094 45.371094 C 154.0625 44.933594 154.0625 44.230469 154.496094 43.800781 C 154.929688 43.363281 155.632812 43.363281 156.066406 43.800781"/><path d="M 220.578125 29.859375 C 221.996094 27.3125 222.460938 24.089844 221.71875 21.070312 C 220.976562 18.046875 219.023438 15.21875 216.265625 13.390625 C 219.269531 14.773438 221.808594 17.355469 223.160156 20.585938 C 224.503906 23.820312 224.625 27.625 223.355469 31.097656 L 220.578125 29.859375"/><g clip-path="url(#f)"><path d="M 226.859375 29.464844 C 228.320312 28.964844 229.664062 27.9375 230.699219 26.605469 C 231.734375 25.273438 232.480469 23.648438 232.851562 21.929688 C 233.226562 20.195312 233.257812 18.355469 233.035156 16.535156 C 232.8125 14.707031 232.351562 12.890625 231.746094 11.121094 C 232.585938 12.796875 233.296875 14.546875 233.78125 16.390625 C 234.261719 18.230469 234.507812 20.175781 234.359375 22.140625 C 234.203125 24.117188 233.625 26.085938 232.597656 27.867188 C 232.082031 28.757812 231.449219 29.597656 230.695312 30.347656 C 229.941406 31.09375 229.0625 31.746094 228.082031 32.246094 L 226.859375 29.464844"/></g><path d="M 233.222656 31.738281 C 234.351562 31.75 235.484375 31.578125 236.5625 31.171875 C 237.636719 30.765625 238.652344 30.125 239.535156 29.296875 C 240.417969 28.46875 241.167969 27.453125 241.769531 26.339844 C 242.371094 25.226562 242.824219 24.011719 243.128906 22.746094 C 243.074219 24.042969 242.863281 25.355469 242.472656 26.632812 C 242.078125 27.910156 241.496094 29.15625 240.6875 30.289062 C 239.878906 31.421875 238.832031 32.433594 237.597656 33.199219 C 236.367188 33.972656 234.957031 34.496094 233.511719 34.761719 L 233.222656 31.738281"/><path fill="#1D71B8" d="M 236.632812 57.582031 C 235.582031 58.625 234.4375 59.507812 233.222656 60.234375 C 231.257812 61.398438 229.113281 62.144531 226.910156 62.464844 C 225.644531 62.652344 224.371094 62.699219 223.097656 62.605469 C 219.109375 62.304688 215.199219 60.628906 212.144531 57.582031 C 205.382812 50.820312 205.382812 39.847656 212.140625 33.09375 C 218.898438 26.332031 229.867188 26.332031 236.632812 33.097656 C 243.390625 39.855469 243.390625 50.820312 236.632812 57.582031"/><path fill="#9D9D9C" d="M 235.183594 35.378906 C 240.683594 40.878906 240.683594 49.796875 235.183594 55.296875 C 232.957031 57.523438 230.167969 58.851562 227.273438 59.273438 C 223.019531 59.894531 218.535156 58.570312 215.261719 55.296875 C 209.757812 49.792969 209.757812 40.875 215.257812 35.375 C 220.757812 29.875 229.679688 29.875 235.183594 35.378906"/><path fill="#FFF" d="M 234.347656 35.378906 C 239.851562 40.878906 239.847656 49.796875 234.347656 55.296875 C 232.121094 57.523438 229.335938 58.851562 226.4375 59.273438 C 222.183594 59.894531 217.703125 58.570312 214.429688 55.296875 C 208.925781 49.792969 208.925781 40.875 214.425781 35.375 C 219.925781 29.875 228.84375 29.875 234.347656 35.378906"/><path fill="#3C3C3B" d="M 227.902344 41.820312 C 229.847656 43.761719 229.847656 46.910156 227.902344 48.851562 C 225.960938 50.796875 222.8125 50.796875 220.871094 48.851562 C 218.929688 46.910156 218.929688 43.761719 220.871094 41.820312 C 222.8125 39.878906 225.960938 39.878906 227.902344 41.820312"/><path fill="#FFF" d="M 221.917969 46.714844 C 222.796875 47.59375 222.796875 49.019531 221.917969 49.898438 C 221.039062 50.773438 219.613281 50.773438 218.734375 49.898438 C 217.855469 49.019531 217.855469 47.59375 218.734375 46.714844 C 219.613281 45.835938 221.039062 45.835938 221.917969 46.714844"/><path fill="#FFF" d="M 228.015625 43.800781 C 228.449219 44.230469 228.449219 44.933594 228.015625 45.371094 C 227.582031 45.804688 226.878906 45.804688 226.445312 45.371094 C 226.011719 44.933594 226.011719 44.230469 226.445312 43.800781 C 226.878906 43.363281 227.582031 43.363281 228.015625 43.800781"/><path fill="#00AEC6" d="M 192.976562 304.550781 C 199.480469 304.390625 205.8125 303.816406 211.910156 302.871094 C 205.8125 303.816406 199.480469 304.390625 192.976562 304.550781 M 225.101562 300.160156 C 240.722656 296.125 254.226562 289.546875 264.285156 281.246094 C 264.285156 281.246094 264.285156 281.246094 264.289062 281.246094 C 254.226562 289.542969 240.722656 296.125 225.101562 300.160156"/><path fill="#004D8F" d="M 220.628906 301.230469 C 222.136719 300.898438 223.628906 300.539062 225.101562 300.160156 C 223.628906 300.539062 222.136719 300.898438 220.628906 301.230469"/><path fill="#002267" d="M 211.910156 302.871094 C 214.875 302.410156 217.78125 301.863281 220.628906 301.230469 C 217.78125 301.863281 214.875 302.410156 211.910156 302.871094"/><path fill="#00779A" d="M 189.128906 304.601562 C 181.273438 304.601562 173.640625 304 166.34375 302.871094 C 162.746094 302.3125 159.234375 301.625 155.8125 300.816406 C 120.234375 292.414062 94.933594 270.945312 94.933594 245.785156 C 94.933594 232.910156 101.558594 221.003906 112.796875 211.320312 C 98.085938 239.152344 99.167969 260.140625 118.070312 275.179688 C 137.769531 290.847656 162.734375 296.886719 187.941406 296.890625 C 206.289062 296.890625 224.757812 293.691406 241.429688 288.683594 C 248.675781 286.511719 256.699219 284.269531 264.285156 281.246094 C 254.226562 289.546875 240.722656 296.125 225.101562 300.160156 C 223.628906 300.539062 222.136719 300.898438 220.628906 301.230469 C 217.78125 301.863281 214.875 302.410156 211.910156 302.871094 C 205.8125 303.816406 199.480469 304.390625 192.976562 304.550781 C 192.832031 304.558594 192.679688 304.5625 192.53125 304.5625 C 191.402344 304.589844 190.265625 304.601562 189.128906 304.601562"/><path fill="#0F6B6D" d="M 277.523438 266.152344 C 276.835938 267.699219 276.003906 269.179688 275.09375 270.617188 C 274.1875 272.050781 273.183594 273.429688 272.105469 274.75 C 271.03125 276.070312 269.882812 277.335938 268.679688 278.542969 C 267.476562 279.75 266.214844 280.898438 264.90625 281.988281 L 264.96875 281.9375 L 264.9375 281.96875 L 264.90625 281.992188 L 263.753906 282.929688 C 263.363281 283.238281 262.972656 283.539062 262.578125 283.839844 C 262.179688 284.132812 261.785156 284.433594 261.382812 284.71875 C 260.976562 285.003906 260.574219 285.292969 260.167969 285.570312 C 258.535156 286.6875 256.851562 287.722656 255.125 288.6875 C 253.402344 289.648438 251.636719 290.527344 249.835938 291.328125 C 248.03125 292.117188 246.207031 292.851562 244.332031 293.449219 C 246.015625 292.429688 247.710938 291.453125 249.367188 290.429688 C 251.03125 289.414062 252.675781 288.378906 254.296875 287.316406 C 255.917969 286.25 257.511719 285.15625 259.078125 284.023438 C 259.859375 283.453125 260.628906 282.875 261.398438 282.289062 C 262.164062 281.699219 262.917969 281.105469 263.667969 280.496094 L 263.609375 280.550781 L 263.644531 280.519531 L 263.671875 280.492188 C 264.957031 279.441406 266.214844 278.363281 267.4375 277.246094 C 268.660156 276.125 269.855469 274.972656 271.011719 273.78125 C 272.167969 272.585938 273.289062 271.359375 274.375 270.085938 C 275.460938 268.816406 276.496094 267.496094 277.523438 266.152344"/><path fill="#0F6B6D" d="M 142.617188 296.945312 C 138.921875 296.054688 135.320312 294.804688 131.820312 293.308594 C 128.324219 291.800781 124.929688 290.035156 121.695312 287.996094 C 118.464844 285.960938 115.394531 283.65625 112.582031 281.070312 C 109.773438 278.480469 107.210938 275.613281 105.128906 272.429688 C 107.839844 275.09375 110.636719 277.589844 113.578125 279.898438 C 116.515625 282.214844 119.578125 284.351562 122.738281 286.34375 C 125.898438 288.335938 129.152344 290.183594 132.476562 291.925781 C 135.800781 293.671875 139.195312 295.292969 142.617188 296.945312"/><path fill="#FF9FB1" d="M 230.113281 246.066406 C 230.089844 246.09375 230.066406 246.121094 230.046875 246.152344 C 227.855469 248.972656 224.746094 251.960938 220.851562 254.65625 C 220.480469 254.910156 220.101562 255.164062 219.71875 255.417969 C 212.59375 260.050781 203.070312 263.628906 191.871094 263.628906 C 191.652344 263.628906 191.429688 263.628906 191.214844 263.628906 L 191.011719 263.628906 C 190.792969 263.628906 190.574219 263.628906 190.355469 263.628906 C 181.296875 263.628906 173.339844 261.289062 166.855469 257.941406 C 160.335938 254.574219 155.316406 250.191406 152.179688 246.152344 C 152.160156 246.121094 152.132812 246.09375 152.113281 246.0625 C 144.679688 236.761719 144.707031 227.113281 147.082031 221.3125 C 147.175781 221.078125 147.402344 220.921875 147.65625 220.921875 C 148.445312 220.921875 149.359375 221.207031 150.09375 221.6875 C 157.488281 226.558594 165.621094 230.035156 174.140625 232.019531 C 176.820312 232.640625 179.539062 233.117188 182.289062 233.441406 C 185.203125 233.785156 188.144531 233.960938 191.109375 233.960938 C 195.371094 233.960938 199.589844 233.601562 203.734375 232.890625 C 206.445312 232.433594 209.125 231.820312 211.757812 231.066406 C 218.945312 229 225.808594 225.855469 232.132812 221.683594 C 232.871094 221.207031 233.777344 220.921875 234.5625 220.921875 C 234.820312 220.921875 235.046875 221.078125 235.144531 221.3125 C 237.515625 227.113281 237.546875 236.761719 230.113281 246.066406 Z M 241.808594 217.238281 C 239.414062 212.417969 232.671875 212.085938 227.890625 215.207031 C 205.621094 229.882812 176.605469 229.882812 154.335938 215.207031 C 149.554688 212.085938 142.8125 212.417969 140.414062 217.238281 C 136.050781 226.476562 137.003906 239.5625 146.0625 250.898438 C 154.777344 262.132812 171.601562 271.621094 191.113281 271.371094 C 210.625 271.621094 227.449219 262.132812 236.167969 250.898438 C 245.226562 239.5625 246.175781 226.476562 241.808594 217.238281"/><path fill="#FF9FB1" d="M 230.113281 246.066406 C 230.089844 246.09375 230.066406 246.121094 230.046875 246.152344 C 227.855469 248.972656 224.746094 251.960938 220.851562 254.65625 C 220.480469 254.910156 220.101562 255.164062 219.71875 255.417969 C 212.59375 260.050781 203.070312 263.628906 191.871094 263.628906 C 191.652344 263.628906 191.429688 263.628906 191.214844 263.628906 L 191.011719 263.628906 C 190.792969 263.628906 190.574219 263.628906 190.355469 263.628906 C 181.296875 263.628906 173.339844 261.289062 166.855469 257.941406 C 160.335938 254.574219 155.316406 250.191406 152.179688 246.152344 C 152.160156 246.121094 152.132812 246.09375 152.113281 246.0625 C 144.679688 236.761719 144.707031 227.113281 147.082031 221.3125 C 147.175781 221.078125 147.402344 220.921875 147.65625 220.921875 C 148.445312 220.921875 149.359375 221.207031 150.09375 221.6875 C 157.488281 226.558594 165.621094 230.035156 174.140625 232.019531 C 176.820312 232.640625 179.539062 233.117188 182.289062 233.441406 C 185.203125 233.785156 188.144531 233.960938 191.109375 233.960938 C 195.371094 233.960938 199.589844 233.601562 203.734375 232.890625 C 206.445312 232.433594 209.125 231.820312 211.757812 231.066406 C 218.945312 229 225.808594 225.855469 232.132812 221.683594 C 232.871094 221.207031 233.777344 220.921875 234.5625 220.921875 C 234.820312 220.921875 235.046875 221.078125 235.144531 221.3125 C 237.515625 227.113281 237.546875 236.761719 230.113281 246.066406"/><path fill="#77444E" d="M 230.113281 246.066406 C 230.089844 246.09375 230.066406 246.121094 230.046875 246.152344 C 227.855469 248.972656 224.746094 251.960938 220.851562 254.65625 C 218.121094 252.460938 208.609375 245.789062 197.34375 248.949219 C 197.34375 248.949219 188.699219 242.378906 178.617188 245.660156 C 168.535156 248.949219 166.855469 257.941406 166.855469 257.941406 C 160.335938 254.574219 155.316406 250.191406 152.179688 246.152344 C 152.160156 246.121094 152.132812 246.09375 152.113281 246.0625 C 144.679688 236.761719 144.707031 227.113281 147.082031 221.3125 C 147.175781 221.078125 147.402344 220.921875 147.65625 220.921875 C 148.445312 220.921875 149.359375 221.207031 150.09375 221.6875 C 157.488281 226.558594 165.621094 230.035156 174.140625 232.019531 C 176.820312 232.640625 179.539062 233.117188 182.289062 233.441406 C 185.203125 233.785156 188.144531 233.960938 191.109375 233.960938 C 195.371094 233.960938 199.589844 233.601562 203.734375 232.890625 C 206.445312 232.433594 209.125 231.820312 211.757812 231.066406 C 218.945312 229 225.808594 225.855469 232.132812 221.683594 C 232.871094 221.207031 233.777344 220.921875 234.5625 220.921875 C 234.820312 220.921875 235.046875 221.078125 235.144531 221.3125 C 237.515625 227.113281 237.546875 236.761719 230.113281 246.066406"/><path fill="#E56E61" d="M 220.851562 254.65625 C 220.480469 254.910156 220.101562 255.164062 219.71875 255.417969 C 212.59375 260.050781 203.070312 263.628906 191.871094 263.628906 C 191.652344 263.628906 191.429688 263.628906 191.214844 263.628906 L 191.011719 263.628906 C 190.792969 263.628906 190.574219 263.628906 190.355469 263.628906 C 181.296875 263.628906 173.339844 261.289062 166.855469 257.941406 C 166.855469 257.941406 168.535156 248.949219 178.617188 245.660156 C 188.699219 242.378906 197.34375 248.949219 197.34375 248.949219 C 208.609375 245.789062 218.121094 252.460938 220.851562 254.65625"/><path fill="#FFF" d="M 211.757812 231.066406 L 211.757812 236.523438 C 211.757812 237.628906 210.925781 238.566406 209.824219 238.699219 L 206.191406 239.136719 C 204.882812 239.292969 203.734375 238.273438 203.734375 236.957031 L 203.734375 232.890625 C 206.445312 232.433594 209.125 231.820312 211.757812 231.066406"/><path fill="#FFF" d="M 182.289062 233.441406 L 182.289062 237.707031 C 182.289062 238.917969 181.304688 239.902344 180.089844 239.902344 L 176.335938 239.902344 C 175.121094 239.902344 174.140625 238.917969 174.140625 237.707031 L 174.140625 232.019531 C 176.820312 232.640625 179.539062 233.117188 182.289062 233.441406"/><path fill="#154D6D" d="M 188.046875 202.125 C 188.046875 202.453125 187.992188 202.785156 187.894531 203.09375 C 187.511719 204.351562 186.414062 205.378906 185.097656 205.378906 C 183.453125 205.378906 182.335938 203.769531 182.335938 202.125 C 182.335938 201.660156 182.425781 201.253906 182.585938 200.902344 C 183.007812 200.007812 183.914062 199.507812 185.097656 199.507812 C 186.742188 199.507812 188.046875 200.476562 188.046875 202.125"/><path fill="#154D6D" d="M 199.890625 202.824219 C 199.890625 204.367188 198.515625 205.589844 196.972656 205.589844 C 195.605469 205.589844 194.390625 204.625 194.132812 203.332031 C 194.097656 203.167969 194.082031 202.996094 194.082031 202.824219 C 194.082031 201.28125 195.429688 199.714844 196.972656 199.714844 C 198.152344 199.714844 199.230469 200.628906 199.671875 201.746094 C 199.8125 202.09375 199.890625 202.457031 199.890625 202.824219"/><path fill="#02224F" d="M 187.894531 203.09375 C 186.398438 202.332031 184.855469 201.675781 183.269531 201.121094 C 183.046875 201.042969 182.820312 200.96875 182.585938 200.902344 C 183.007812 200.007812 183.914062 199.507812 185.097656 199.507812 C 186.742188 199.507812 188.046875 200.476562 188.046875 202.125 C 188.046875 202.453125 187.992188 202.785156 187.894531 203.09375"/><path fill="#02224F" d="M 194.132812 203.332031 C 194.097656 203.167969 194.082031 202.996094 194.082031 202.824219 C 194.082031 201.28125 195.429688 199.714844 196.972656 199.714844 C 198.152344 199.714844 199.230469 200.628906 199.671875 201.746094 C 197.78125 201.929688 195.914062 202.582031 194.132812 203.332031"/><path fill="#706F6F" d="M 213.398438 136.140625 C 213.398438 149.132812 202.867188 159.664062 189.871094 159.664062 C 176.878906 159.664062 166.34375 149.132812 166.34375 136.140625 C 166.34375 123.148438 176.878906 112.617188 189.871094 112.617188 C 202.867188 112.617188 213.398438 123.148438 213.398438 136.140625"/><path fill="#706F6F" d="M 198.175781 136.140625 C 198.175781 140.726562 194.457031 144.441406 189.871094 144.441406 C 185.285156 144.441406 181.566406 140.726562 181.566406 136.140625 C 181.566406 131.554688 185.285156 127.839844 189.871094 127.839844 C 194.457031 127.839844 198.175781 131.554688 198.175781 136.140625"/><path fill="#FFF" d="M 212.625 135.363281 C 212.625 148.355469 202.089844 158.890625 189.097656 158.890625 C 176.101562 158.890625 165.570312 148.355469 165.570312 135.363281 C 165.570312 122.375 176.101562 111.839844 189.097656 111.839844 C 202.089844 111.839844 212.625 122.375 212.625 135.363281"/><path fill="#3C3C3B" d="M 197.402344 135.363281 C 197.402344 139.949219 193.683594 143.667969 189.097656 143.667969 C 184.511719 143.667969 180.792969 139.949219 180.792969 135.363281 C 180.792969 130.78125 184.511719 127.0625 189.097656 127.0625 C 193.683594 127.0625 197.402344 130.78125 197.402344 135.363281"/><path fill="#FFF" d="M 184.230469 135.363281 C 184.230469 137 182.90625 138.320312 181.273438 138.320312 C 179.636719 138.320312 178.316406 137 178.316406 135.363281 C 178.316406 133.730469 179.636719 132.410156 181.273438 132.410156 C 182.90625 132.410156 184.230469 133.730469 184.230469 135.363281"/><path fill="#FFF" d="M 194.746094 137.445312 C 194.746094 138.253906 194.089844 138.90625 193.285156 138.90625 C 192.480469 138.90625 191.824219 138.253906 191.824219 137.445312 C 191.824219 136.640625 192.480469 135.988281 193.285156 135.988281 C 194.089844 135.988281 194.746094 136.640625 194.746094 137.445312"/><path fill="#00E5F2" d="M 222.183594 112.582031 C 220.347656 111.355469 218.886719 109.53125 217.726562 107.636719 C 216.550781 105.734375 215.625 103.746094 214.660156 101.875 C 214.417969 101.410156 214.179688 100.945312 213.925781 100.496094 C 213.804688 100.269531 213.679688 100.046875 213.554688 99.828125 C 213.425781 99.609375 213.304688 99.386719 213.167969 99.175781 C 212.652344 98.320312 212.070312 97.503906 211.472656 96.707031 C 210.863281 95.917969 210.210938 95.164062 209.535156 94.4375 C 209.179688 94.085938 208.84375 93.71875 208.476562 93.386719 C 208.121094 93.035156 207.742188 92.710938 207.371094 92.382812 C 204.339844 89.800781 200.796875 87.863281 196.894531 86.742188 C 196.40625 86.601562 195.914062 86.476562 195.417969 86.351562 C 195.171875 86.289062 194.917969 86.242188 194.667969 86.191406 L 194.292969 86.109375 L 193.914062 86.039062 C 192.902344 85.84375 191.875 85.71875 190.835938 85.628906 L 190.050781 85.566406 L 189.261719 85.53125 C 189.023438 85.515625 188.785156 85.511719 188.542969 85.511719 C 188.519531 85.511719 188.496094 85.511719 188.46875 85.511719 C 188.453125 85.511719 188.433594 85.511719 188.417969 85.511719 C 188.3125 85.511719 188.210938 85.511719 188.109375 85.507812 C 188.007812 85.507812 187.90625 85.503906 187.808594 85.503906 C 187.761719 85.503906 187.71875 85.503906 187.671875 85.507812 C 186.605469 85.515625 185.53125 85.585938 184.429688 85.660156 C 186.371094 84.625 188.53125 83.957031 190.757812 83.613281 C 191.835938 83.457031 192.933594 83.347656 194.03125 83.347656 C 194.070312 83.347656 194.105469 83.347656 194.140625 83.347656 C 194.1875 83.347656 194.238281 83.347656 194.285156 83.347656 C 195.375 83.347656 196.46875 83.421875 197.558594 83.578125 C 198.125 83.648438 198.6875 83.769531 199.257812 83.871094 C 199.816406 84.003906 200.378906 84.132812 200.933594 84.304688 C 202.046875 84.613281 203.132812 85.027344 204.191406 85.511719 C 206.308594 86.46875 208.277344 87.742188 210.050781 89.246094 C 210.933594 90 211.757812 90.820312 212.539062 91.679688 C 213.300781 92.558594 214.023438 93.46875 214.664062 94.4375 C 214.828125 94.675781 214.976562 94.925781 215.132812 95.171875 C 215.289062 95.414062 215.4375 95.664062 215.574219 95.917969 C 215.714844 96.171875 215.859375 96.421875 215.992188 96.679688 L 216.375 97.460938 C 216.507812 97.71875 216.617188 97.980469 216.734375 98.242188 C 216.847656 98.507812 216.964844 98.765625 217.0625 99.03125 C 217.273438 99.558594 217.460938 100.082031 217.648438 100.609375 C 218.363281 102.707031 218.910156 104.777344 219.5625 106.777344 C 220.203125 108.792969 221.003906 110.71875 222.183594 112.582031"/><path fill="#00E5F2" d="M 245.546875 202.429688 C 244.878906 201.925781 244.242188 201.375 243.609375 200.8125 C 243.019531 200.21875 242.449219 199.601562 241.875 198.972656 C 241.355469 198.316406 240.835938 197.644531 240.332031 196.960938 C 240.097656 196.609375 239.875 196.25 239.648438 195.894531 C 239.421875 195.535156 239.195312 195.175781 238.976562 194.808594 C 237.300781 191.855469 236.117188 188.605469 235.480469 185.253906 C 234.832031 181.902344 234.726562 178.445312 235.191406 175.082031 C 235.253906 174.660156 235.335938 174.242188 235.410156 173.824219 C 235.488281 173.410156 235.5625 172.992188 235.652344 172.578125 C 235.863281 171.757812 236.097656 170.945312 236.335938 170.140625 C 236.632812 169.34375 236.9375 168.558594 237.265625 167.789062 C 237.640625 167.03125 238.027344 166.285156 238.460938 165.570312 C 238.46875 166.421875 238.429688 167.242188 238.378906 168.054688 C 238.378906 168.878906 238.355469 169.683594 238.328125 170.480469 C 238.339844 171.289062 238.347656 172.082031 238.335938 172.871094 C 238.359375 173.269531 238.375 173.664062 238.386719 174.054688 C 238.398438 174.449219 238.417969 174.84375 238.421875 175.230469 C 238.578125 178.363281 238.949219 181.4375 239.53125 184.472656 C 240.121094 187.507812 240.917969 190.5 241.933594 193.464844 C 242.074219 193.828125 242.203125 194.199219 242.335938 194.570312 C 242.46875 194.941406 242.605469 195.3125 242.730469 195.691406 C 243.03125 196.417969 243.320312 197.160156 243.605469 197.914062 C 243.929688 198.644531 244.25 199.382812 244.550781 200.148438 C 244.898438 200.882812 245.238281 201.632812 245.546875 202.429688"/><path fill="#00E5F2" d="M 248.605469 278.402344 C 248.523438 277.105469 248.601562 275.789062 248.800781 274.480469 C 248.996094 273.175781 249.320312 271.875 249.761719 270.609375 C 250.65625 268.085938 252.003906 265.683594 253.757812 263.574219 C 254.199219 263.054688 254.65625 262.535156 255.144531 262.050781 C 255.265625 261.925781 255.386719 261.804688 255.507812 261.683594 L 255.886719 261.339844 L 256.265625 260.992188 L 256.648438 260.660156 C 257.675781 259.773438 258.746094 258.988281 259.789062 258.222656 C 260.835938 257.460938 261.878906 256.75 262.859375 256.007812 C 263.84375 255.277344 264.777344 254.53125 265.605469 253.730469 C 266.449219 252.945312 267.175781 252.097656 267.792969 251.1875 C 267.957031 250.96875 268.085938 250.722656 268.234375 250.488281 C 268.378906 250.25 268.503906 250.003906 268.640625 249.757812 C 268.753906 249.503906 268.882812 249.253906 268.992188 248.996094 C 269.09375 248.730469 269.222656 248.480469 269.316406 248.210938 C 270.113281 246.082031 270.503906 243.730469 270.5625 241.332031 C 270.625 238.933594 270.351562 236.460938 269.933594 233.972656 C 269.726562 232.726562 269.480469 231.476562 269.234375 230.214844 C 268.984375 228.957031 268.726562 227.691406 268.511719 226.40625 C 269.15625 227.535156 269.753906 228.683594 270.320312 229.851562 C 270.886719 231.019531 271.40625 232.214844 271.878906 233.441406 C 272.816406 235.890625 273.523438 238.480469 273.796875 241.207031 C 273.828125 241.546875 273.847656 241.886719 273.871094 242.230469 C 273.886719 242.574219 273.898438 242.914062 273.90625 243.261719 C 273.90625 243.949219 273.878906 244.640625 273.816406 245.335938 C 273.703125 246.722656 273.429688 248.109375 273.011719 249.472656 C 272.59375 250.839844 271.984375 252.164062 271.203125 253.402344 C 270.417969 254.636719 269.464844 255.746094 268.449219 256.71875 C 267.421875 257.6875 266.335938 258.53125 265.25 259.304688 C 264.152344 260.066406 263.066406 260.773438 261.996094 261.457031 C 260.925781 262.136719 259.894531 262.820312 258.902344 263.515625 L 258.535156 263.78125 L 258.179688 264.054688 L 257.820312 264.328125 L 257.476562 264.609375 C 257.011719 264.976562 256.570312 265.378906 256.132812 265.785156 C 254.390625 267.425781 252.878906 269.347656 251.601562 271.464844 C 250.332031 273.585938 249.351562 275.910156 248.605469 278.402344"/><path fill="#00E5F2" d="M 127.652344 222.703125 C 126.996094 221.238281 126.605469 219.617188 126.5 217.964844 C 126.398438 216.316406 126.53125 214.640625 126.859375 213.007812 C 127.195312 211.378906 127.683594 209.777344 128.320312 208.242188 C 128.636719 207.46875 128.984375 206.722656 129.351562 205.984375 C 129.714844 205.246094 130.097656 204.519531 130.5 203.8125 C 130.898438 203.101562 131.308594 202.402344 131.722656 201.710938 C 132.140625 201.019531 132.566406 200.339844 132.984375 199.664062 C 133.820312 198.308594 134.671875 196.988281 135.445312 195.652344 C 135.835938 194.984375 136.222656 194.328125 136.566406 193.644531 L 137.09375 192.632812 C 137.265625 192.292969 137.460938 191.964844 137.605469 191.613281 L 138.5625 189.535156 C 138.859375 188.832031 139.121094 188.117188 139.40625 187.410156 L 139.621094 186.878906 C 139.6875 186.699219 139.742188 186.519531 139.804688 186.339844 L 140.171875 185.253906 L 140.535156 184.167969 C 140.636719 183.800781 140.734375 183.429688 140.84375 183.066406 C 141.296875 181.605469 141.601562 180.105469 141.9375 178.613281 C 142.542969 175.609375 142.875 172.546875 143.003906 169.464844 L 143.046875 168.308594 L 143.066406 167.726562 L 143.058594 167.148438 L 143.023438 164.820312 C 142.976562 164.050781 142.921875 163.273438 142.878906 162.496094 C 142.867188 162.101562 142.8125 161.71875 142.773438 161.332031 L 142.644531 160.167969 L 142.585938 159.582031 L 142.554688 159.289062 L 142.507812 159 L 142.324219 157.835938 L 142.148438 156.667969 C 142.085938 156.277344 141.992188 155.898438 141.917969 155.507812 L 141.683594 154.34375 L 141.570312 153.757812 C 141.535156 153.5625 141.472656 153.375 141.429688 153.179688 C 141.246094 152.40625 141.042969 151.632812 140.871094 150.84375 C 141.265625 151.542969 141.628906 152.257812 142.015625 152.96875 C 142.105469 153.148438 142.203125 153.328125 142.289062 153.511719 L 142.53125 154.0625 L 143.011719 155.175781 C 143.167969 155.550781 143.347656 155.917969 143.480469 156.300781 L 143.882812 157.445312 C 144.152344 158.210938 144.421875 158.980469 144.621094 159.769531 L 144.941406 160.949219 C 145.042969 161.34375 145.160156 161.734375 145.234375 162.136719 C 145.398438 162.933594 145.550781 163.738281 145.710938 164.542969 C 145.945312 166.160156 146.167969 167.789062 146.238281 169.429688 C 146.261719 169.839844 146.292969 170.25 146.308594 170.660156 L 146.316406 171.894531 C 146.316406 172.714844 146.332031 173.542969 146.265625 174.363281 L 146.191406 175.597656 C 146.160156 176.007812 146.152344 176.421875 146.09375 176.828125 L 145.785156 179.285156 C 145.507812 180.914062 145.203125 182.542969 144.765625 184.140625 L 144.453125 185.339844 L 144.070312 186.523438 L 143.683594 187.703125 C 143.621094 187.898438 143.5625 188.097656 143.488281 188.292969 L 143.261719 188.871094 C 142.953125 189.640625 142.652344 190.414062 142.324219 191.175781 L 141.257812 193.421875 C 141.085938 193.800781 140.863281 194.152344 140.667969 194.515625 L 140.054688 195.601562 C 139.65625 196.328125 139.226562 197.035156 138.773438 197.71875 C 137.875 199.085938 136.945312 200.410156 136.007812 201.695312 L 134.613281 203.617188 C 134.148438 204.253906 133.695312 204.890625 133.253906 205.527344 C 132.363281 206.804688 131.523438 208.097656 130.765625 209.421875 C 130.574219 209.753906 130.398438 210.089844 130.214844 210.425781 C 130.046875 210.765625 129.867188 211.105469 129.707031 211.453125 L 129.464844 211.96875 L 129.238281 212.496094 C 129.078125 212.84375 128.953125 213.203125 128.8125 213.558594 C 128.675781 213.914062 128.554688 214.277344 128.429688 214.640625 C 128.328125 215.003906 128.203125 215.371094 128.113281 215.742188 L 127.96875 216.300781 L 127.851562 216.863281 C 127.765625 217.242188 127.714844 217.621094 127.648438 218.003906 C 127.554688 218.769531 127.476562 219.546875 127.488281 220.328125 C 127.460938 221.117188 127.5625 221.902344 127.652344 222.703125"/><path fill="#00E5F2" d="M 131.652344 271.566406 C 131.210938 271.5625 130.769531 271.523438 130.320312 271.472656 C 129.890625 271.378906 129.453125 271.277344 129.019531 271.144531 C 128.605469 270.988281 128.191406 270.816406 127.78125 270.621094 C 126.179688 269.800781 124.816406 268.523438 123.832031 267.015625 C 122.847656 265.507812 122.226562 263.746094 122.117188 261.949219 C 122.105469 261.496094 122.109375 261.046875 122.132812 260.609375 C 122.1875 260.15625 122.269531 259.714844 122.355469 259.285156 C 122.488281 258.855469 122.628906 258.433594 122.796875 258.03125 C 123.003906 257.628906 123.226562 257.242188 123.496094 256.890625 C 123.679688 257.316406 123.820312 257.714844 123.941406 258.09375 C 124.105469 258.480469 124.242188 258.84375 124.371094 259.199219 C 124.53125 259.550781 124.683594 259.890625 124.8125 260.226562 C 124.980469 260.558594 125.128906 260.882812 125.265625 261.203125 C 125.886719 262.46875 126.546875 263.632812 127.285156 264.757812 C 128.023438 265.878906 128.824219 266.953125 129.738281 268.027344 C 129.976562 268.28125 130.210938 268.550781 130.449219 268.835938 C 130.703125 269.085938 130.953125 269.363281 131.214844 269.648438 C 131.488281 269.910156 131.765625 270.183594 132.050781 270.488281 C 132.351562 270.753906 132.660156 271.039062 132.976562 271.382812 C 132.542969 271.488281 132.101562 271.539062 131.652344 271.566406"/><path fill="#FFF" d="M 172.019531 256.480469 C 172.25 254.234375 173.328125 252.066406 174.910156 250.378906 C 176.480469 248.679688 178.589844 247.433594 180.902344 246.957031 C 183.210938 246.480469 185.644531 246.789062 187.761719 247.726562 C 189.878906 248.648438 191.730469 250.214844 192.828125 252.1875 C 191.359375 250.488281 189.484375 249.242188 187.449219 248.515625 C 185.410156 247.796875 183.203125 247.589844 181.121094 248.019531 C 179.039062 248.445312 177.09375 249.507812 175.503906 250.976562 C 173.921875 252.449219 172.691406 254.335938 172.019531 256.480469"/><path fill="#FFF" d="M 218.0625 260.980469 C 219.074219 260.257812 220.058594 259.65625 221.015625 259.03125 C 221.976562 258.410156 222.910156 257.789062 223.832031 257.148438 C 224.757812 256.511719 225.667969 255.855469 226.585938 255.179688 C 227.511719 254.5 228.421875 253.792969 229.457031 253.109375 C 229.078125 254.292969 228.417969 255.339844 227.648438 256.289062 C 226.867188 257.230469 225.953125 258.0625 224.945312 258.757812 C 223.9375 259.453125 222.835938 260.015625 221.679688 260.410156 C 220.519531 260.796875 219.304688 261.042969 218.0625 260.980469"/><path fill="#FFF" d="M 154.828125 219.675781 C 156.558594 220.398438 158.191406 221.203125 159.832031 221.976562 C 161.46875 222.761719 163.09375 223.535156 164.726562 224.292969 C 166.359375 225.054688 167.996094 225.804688 169.644531 226.554688 C 171.292969 227.3125 172.957031 228.050781 174.621094 228.914062 C 172.746094 228.84375 170.914062 228.488281 169.121094 228 C 167.332031 227.503906 165.582031 226.851562 163.898438 226.066406 C 162.214844 225.277344 160.59375 224.355469 159.0625 223.304688 C 157.539062 222.242188 156.089844 221.066406 154.828125 219.675781"/><path fill="#37B0EB" d="M 76.558594 176.214844 C 75.863281 174.824219 75.375 173.515625 74.855469 172.238281 L 73.382812 168.46875 L 71.886719 164.707031 C 71.394531 163.417969 70.855469 162.132812 70.410156 160.644531 C 71.824219 161.304688 72.960938 162.328125 73.929688 163.476562 C 74.894531 164.632812 75.65625 165.953125 76.210938 167.351562 C 76.765625 168.753906 77.109375 170.238281 77.199219 171.742188 C 77.273438 173.242188 77.140625 174.769531 76.558594 176.214844"/><path fill="#37B0EB" d="M 298.980469 176.226562 C 298.324219 174.917969 298.183594 173.449219 298.316406 172.019531 C 298.457031 170.589844 298.925781 169.191406 299.632812 167.9375 C 300.339844 166.679688 301.296875 165.558594 302.445312 164.695312 C 303.601562 163.84375 304.933594 163.207031 306.398438 163.09375 C 305.589844 164.308594 304.839844 165.320312 304.167969 166.359375 C 303.488281 167.386719 302.867188 168.394531 302.28125 169.429688 C 301.691406 170.464844 301.152344 171.519531 300.621094 172.632812 C 300.078125 173.746094 299.597656 174.910156 298.980469 176.226562"/><path fill="#37B0EB" d="M 258.730469 180.300781 C 258.503906 180.300781 258.277344 180.292969 258.050781 180.277344 C 256.6875 180.1875 255.34375 179.832031 254.097656 179.261719 C 252.855469 178.691406 251.703125 177.914062 250.738281 176.941406 C 249.785156 175.960938 248.976562 174.824219 248.578125 173.457031 C 249.90625 173.953125 251.015625 174.5 252.128906 175.003906 L 255.359375 176.496094 L 258.605469 177.949219 C 259.714844 178.460938 260.855469 178.941406 262.101562 179.621094 C 261.023438 180.121094 259.875 180.300781 258.730469 180.300781"/><path fill="#37B0EB" d="M 113.40625 180.261719 C 112.863281 180.261719 112.316406 180.234375 111.769531 180.179688 C 110.351562 180.015625 108.941406 179.710938 107.597656 179.019531 C 108.992188 178.441406 110.320312 178.113281 111.636719 177.796875 C 112.953125 177.496094 114.25 177.261719 115.554688 177.058594 C 116.859375 176.855469 118.167969 176.6875 119.511719 176.582031 C 120.351562 176.519531 121.199219 176.464844 122.082031 176.464844 C 122.617188 176.464844 123.164062 176.484375 123.730469 176.539062 C 122.660156 177.605469 121.40625 178.320312 120.101562 178.902344 C 118.792969 179.46875 117.417969 179.847656 116.015625 180.0625 C 115.152344 180.191406 114.28125 180.261719 113.40625 180.261719"/><path fill="#37B0EB" d="M 239.480469 356.8125 C 239.316406 356.433594 239.140625 356.101562 238.941406 355.804688 C 238.734375 355.507812 238.511719 355.25 238.273438 355.019531 C 237.789062 354.558594 237.261719 354.191406 236.703125 353.898438 C 236.425781 353.753906 236.144531 353.628906 235.859375 353.515625 C 235.582031 353.414062 235.273438 353.3125 234.96875 353.222656 C 234.351562 353.046875 233.699219 352.910156 233.015625 352.785156 C 232.332031 352.65625 231.613281 352.535156 230.871094 352.382812 C 230.132812 352.230469 229.355469 352.046875 228.59375 351.777344 C 227.828125 351.503906 227.070312 351.15625 226.382812 350.679688 C 225.699219 350.203125 225.082031 349.601562 224.703125 348.871094 C 225.101562 348.972656 225.476562 349.066406 225.84375 349.136719 C 226.214844 349.203125 226.574219 349.257812 226.929688 349.296875 C 227.644531 349.375 228.347656 349.414062 229.058594 349.4375 C 230.476562 349.496094 231.972656 349.5 233.574219 349.796875 C 234.371094 349.941406 235.1875 350.167969 235.984375 350.519531 C 236.382812 350.699219 236.761719 350.90625 237.148438 351.160156 C 237.523438 351.414062 237.875 351.703125 238.1875 352.019531 C 238.34375 352.183594 238.492188 352.347656 238.628906 352.527344 C 238.769531 352.699219 238.898438 352.886719 239.015625 353.074219 C 239.25 353.457031 239.441406 353.863281 239.574219 354.285156 C 239.699219 354.714844 239.773438 355.152344 239.761719 355.585938 C 239.746094 356.023438 239.65625 356.441406 239.480469 356.8125"/><path fill="#37B0EB" d="M 138.183594 357.101562 C 137.949219 356.613281 137.839844 356.039062 137.871094 355.453125 C 137.90625 354.863281 138.09375 354.285156 138.359375 353.746094 C 138.902344 352.667969 139.78125 351.800781 140.789062 351.15625 C 141.296875 350.835938 141.847656 350.574219 142.429688 350.367188 C 143.03125 350.171875 143.585938 350.054688 144.160156 349.964844 C 144.992188 349.847656 145.804688 349.808594 146.59375 349.808594 C 146.878906 349.808594 147.164062 349.816406 147.449219 349.820312 C 148.496094 349.851562 149.488281 349.914062 150.441406 349.925781 C 150.476562 349.925781 150.511719 349.925781 150.546875 349.925781 C 150.984375 349.925781 151.425781 349.917969 151.816406 349.886719 C 152.253906 349.84375 152.699219 349.789062 153.136719 349.6875 C 154.015625 349.484375 154.875 349.164062 155.648438 348.671875 C 156.027344 348.421875 156.394531 348.128906 156.710938 347.769531 C 157.023438 347.402344 157.289062 346.976562 157.507812 346.472656 C 157.625 347.003906 157.613281 347.582031 157.46875 348.148438 C 157.324219 348.714844 157.042969 349.246094 156.699219 349.730469 C 155.996094 350.695312 155.015625 351.417969 153.957031 351.933594 C 153.421875 352.1875 152.863281 352.386719 152.285156 352.535156 C 151.6875 352.675781 151.132812 352.753906 150.574219 352.808594 C 149.9375 352.867188 149.316406 352.886719 148.710938 352.886719 C 148.25 352.886719 147.800781 352.875 147.359375 352.863281 C 146.65625 352.839844 145.976562 352.816406 145.316406 352.816406 C 145.023438 352.816406 144.734375 352.820312 144.449219 352.832031 C 143.992188 352.859375 143.519531 352.894531 143.121094 352.957031 C 142.707031 353.035156 142.28125 353.128906 141.867188 353.28125 C 141.039062 353.574219 140.234375 354.011719 139.5625 354.613281 C 139.234375 354.917969 138.921875 355.261719 138.683594 355.675781 C 138.453125 356.089844 138.28125 356.5625 138.183594 357.101562"/></svg>