<svg xmlns="http://www.w3.org/2000/svg" width="125" viewBox="-15 -15 400 400" height="125" version="1.0"><defs><clipPath id="a"><path d="M 71 13.222656 L 169 13.222656 L 169 111 L 71 111 Z M 71 13.222656"/></clipPath><clipPath id="b"><path d="M 177 13.222656 L 275 13.222656 L 275 111 L 177 111 Z M 177 13.222656"/></clipPath><clipPath id="c"><path d="M 71 116 L 275 116 L 275 361.972656 L 71 361.972656 Z M 71 116"/></clipPath><clipPath id="d"><path d="M 89.675781 129 L 150 129 L 150 186 L 89.675781 186 Z M 89.675781 129"/></clipPath><clipPath id="e"><path d="M 95.808594 185.894531 C 94.714844 185.894531 93.609375 185.589844 92.617188 184.957031 C 90.296875 183.464844 89.363281 180.625 90.183594 178.117188 C 92.070312 172.351562 94.820312 166.847656 98.15625 161.707031 C 101.507812 156.578125 105.476562 151.824219 109.933594 147.585938 C 114.390625 143.34375 119.335938 139.613281 124.65625 136.550781 C 129.96875 133.492188 135.636719 131.050781 141.539062 129.539062 C 142.058594 129.40625 142.585938 129.34375 143.097656 129.34375 C 145.898438 129.34375 148.453125 131.230469 149.179688 134.070312 C 149.902344 136.910156 148.578125 139.785156 146.128906 141.136719 L 146.019531 141.191406 C 141.382812 143.75 136.902344 146.390625 132.644531 149.328125 C 128.390625 152.269531 124.347656 155.464844 120.554688 158.949219 C 116.765625 162.433594 113.238281 166.207031 109.980469 170.246094 C 106.707031 174.273438 103.734375 178.578125 100.863281 183.066406 L 100.800781 183.160156 C 99.671875 184.929688 97.757812 185.894531 95.808594 185.894531"/></clipPath><clipPath id="f"><path d="M 71 121 L 275 121 L 275 361.972656 L 71 361.972656 Z M 71 121"/></clipPath></defs><path fill="#F2CD0C" d="M 326.613281 226.03125 C 322.050781 216.925781 307.058594 216.054688 294.648438 231.066406 C 277.703125 251.558594 262.464844 240.8125 259.515625 253.226562 C 257.160156 263.132812 271.882812 271.648438 288.929688 267.175781 C 310.4375 261.535156 334.808594 242.386719 326.613281 226.03125"/><path fill="#F6AE0C" d="M 302.441406 223.816406 C 302.355469 225.058594 302.324219 226.289062 302.191406 227.289062 C 301.800781 230.261719 301.410156 233.234375 301.015625 236.207031 C 300.5625 239.652344 300.109375 243.101562 299.65625 246.550781 C 299.394531 248.523438 299.117188 250.554688 298.132812 252.285156 C 296.648438 254.886719 293.820312 256.390625 291.070312 257.570312 C 282.773438 261.125 273.777344 263.03125 264.753906 263.136719 C 264.632812 263.441406 264.535156 263.761719 264.457031 264.078125 C 269.898438 267.980469 279.019531 269.777344 288.929688 267.175781 C 310.4375 261.535156 334.808594 242.386719 326.613281 226.03125 C 322.980469 218.78125 312.730469 216.761719 302.441406 223.816406"/><path fill="#F2CD0C" d="M 33.113281 304.847656 C 41.0625 311.210938 55.046875 305.726562 60.046875 286.890625 C 66.878906 261.183594 85.207031 264.566406 82.703125 252.050781 C 80.703125 242.070312 63.769531 240.5 50.15625 251.699219 C 32.976562 265.824219 18.835938 293.421875 33.113281 304.847656"/><path fill="#F6AE0C" d="M 82.929688 254.445312 C 81.179688 251.304688 78.726562 248.585938 76.035156 246.203125 C 75.28125 245.535156 74.503906 244.898438 73.714844 244.273438 C 71.285156 243.800781 68.519531 243.800781 65.597656 244.320312 C 65.367188 245.925781 65.25 247.605469 64.933594 249.0625 C 64.40625 251.523438 63.78125 253.96875 63.070312 256.382812 C 61.648438 261.210938 59.875 265.941406 57.757812 270.507812 C 55.382812 275.648438 52.574219 280.589844 49.367188 285.261719 C 47.035156 288.660156 44.136719 292.152344 40.089844 292.933594 C 35.636719 293.792969 31.128906 290.941406 28.652344 287.136719 C 28.375 286.710938 28.117188 286.273438 27.878906 285.824219 C 26.296875 293.457031 27.535156 300.386719 33.113281 304.847656 C 41.0625 311.210938 55.046875 305.726562 60.046875 286.890625 C 66.40625 262.972656 82.710938 264.234375 82.929688 254.445312"/><path fill="#F2CD0C" d="M 147.121094 162.699219 C 144.363281 134.996094 136.757812 110.953125 124.511719 91.230469 L 133.769531 85.472656 C 146.90625 106.621094 155.046875 132.238281 157.972656 161.613281 L 147.121094 162.699219"/><path fill="#F6AE0C" d="M 150.144531 121.882812 C 149.511719 119.839844 148.851562 117.820312 148.15625 115.828125 C 147.640625 115.929688 147.121094 116.007812 146.597656 116.054688 C 144.90625 116.214844 143.152344 116.042969 141.628906 115.289062 C 139.953125 114.464844 138.675781 112.980469 137.773438 111.347656 C 137.304688 110.5 136.925781 109.601562 136.59375 108.695312 C 136.347656 108.023438 136.226562 107.023438 135.726562 106.484375 C 135.089844 105.792969 133.753906 106.070312 132.652344 106.453125 C 135.105469 111.824219 137.277344 117.445312 139.160156 123.308594 C 139.980469 123.75 140.855469 124.085938 141.773438 124.234375 C 144.410156 124.652344 147.027344 123.519531 149.398438 122.289062 C 149.648438 122.164062 149.898438 122.027344 150.144531 121.882812"/><g clip-path="url(#a)"><path fill="#F2CD0C" d="M 168.15625 61.800781 C 168.15625 88.628906 146.433594 110.378906 119.632812 110.378906 C 92.832031 110.378906 71.105469 88.628906 71.105469 61.800781 C 71.105469 34.972656 92.832031 13.222656 119.632812 13.222656 C 146.433594 13.222656 168.15625 34.972656 168.15625 61.800781"/></g><path fill="#F6AE0C" d="M 142.9375 19.1875 C 156.3125 27.835938 165.171875 42.882812 165.171875 60.003906 C 165.171875 86.832031 143.445312 108.582031 116.644531 108.582031 C 108.199219 108.582031 100.257812 106.417969 93.339844 102.617188 C 100.917969 107.519531 109.9375 110.378906 119.632812 110.378906 C 146.433594 110.378906 168.15625 88.628906 168.15625 61.800781 C 168.15625 43.425781 157.96875 27.441406 142.9375 19.1875"/><path fill="#FFF" d="M 161.5 61.800781 C 161.5 84.949219 142.753906 103.710938 119.632812 103.710938 C 96.511719 103.710938 77.765625 84.949219 77.765625 61.800781 C 77.765625 38.652344 96.511719 19.890625 119.632812 19.890625 C 142.753906 19.890625 161.5 38.652344 161.5 61.800781"/><path fill="#E9E8E7" d="M 131.085938 21.496094 C 146.777344 27.542969 157.914062 42.765625 157.914062 60.605469 C 157.914062 83.75 139.171875 102.511719 116.046875 102.511719 C 112.074219 102.511719 108.234375 101.945312 104.589844 100.910156 C 109.261719 102.710938 114.328125 103.710938 119.632812 103.710938 C 142.753906 103.710938 161.5 84.949219 161.5 61.800781 C 161.5 42.632812 148.640625 26.480469 131.085938 21.496094"/><path fill="#F2CD0C" d="M 153.015625 61.800781 C 153.015625 80.253906 138.070312 95.214844 119.632812 95.214844 C 101.195312 95.214844 86.25 80.253906 86.25 61.800781 C 86.25 43.34375 101.195312 28.382812 119.632812 28.382812 C 138.070312 28.382812 153.015625 43.34375 153.015625 61.800781"/><path fill="#F6AE0C" d="M 135.308594 32.296875 C 144.1875 38.300781 150.027344 48.472656 150.027344 60.003906 C 150.027344 78.460938 135.082031 93.421875 116.644531 93.421875 C 110.980469 93.421875 105.644531 92.003906 100.96875 89.507812 C 106.296875 93.113281 112.71875 95.214844 119.632812 95.214844 C 138.070312 95.214844 153.015625 80.253906 153.015625 61.800781 C 153.015625 49.019531 145.84375 37.917969 135.308594 32.296875"/><path fill="#2F2C31" d="M 145.183594 61.800781 C 145.183594 75.925781 133.746094 87.375 119.632812 87.375 C 105.523438 87.375 94.082031 75.925781 94.082031 61.800781 C 94.082031 47.675781 105.523438 36.226562 119.632812 36.226562 C 133.746094 36.226562 145.183594 47.675781 145.183594 61.800781"/><path fill="#232825" d="M 131.242188 39.015625 C 137.859375 43.640625 142.195312 51.3125 142.195312 60.003906 C 142.195312 74.128906 130.757812 85.582031 116.644531 85.582031 C 112.464844 85.582031 108.523438 84.570312 105.039062 82.789062 C 109.175781 85.675781 114.207031 87.375 119.632812 87.375 C 133.746094 87.375 145.183594 75.925781 145.183594 61.800781 C 145.183594 51.859375 139.511719 43.25 131.242188 39.015625"/><path fill="#FFF" d="M 122.269531 54.070312 C 122.269531 59.636719 117.769531 64.144531 112.210938 64.144531 C 106.65625 64.144531 102.152344 59.636719 102.152344 54.070312 C 102.152344 48.511719 106.65625 44.003906 112.210938 44.003906 C 117.769531 44.003906 122.269531 48.511719 122.269531 54.070312"/><path fill="#E9E8E7" d="M 116.976562 45.203125 C 118.773438 47.019531 119.882812 49.519531 119.882812 52.277344 C 119.882812 57.839844 115.378906 62.347656 109.820312 62.347656 C 108.097656 62.347656 106.476562 61.914062 105.058594 61.148438 C 106.882812 62.996094 109.414062 64.144531 112.210938 64.144531 C 117.769531 64.144531 122.269531 59.636719 122.269531 54.070312 C 122.269531 50.234375 120.128906 46.902344 116.976562 45.203125"/><path fill="#FFF" d="M 133.90625 65.746094 C 133.90625 67.929688 132.140625 69.695312 129.960938 69.695312 C 127.78125 69.695312 126.019531 67.929688 126.019531 65.746094 C 126.019531 63.566406 127.78125 61.800781 129.960938 61.800781 C 132.140625 61.800781 133.90625 63.566406 133.90625 65.746094"/><path fill="#E9E8E7" d="M 132.085938 62.425781 C 132.476562 63.039062 132.710938 63.769531 132.710938 64.550781 C 132.710938 66.730469 130.945312 68.5 128.765625 68.5 C 127.984375 68.5 127.253906 68.269531 126.640625 67.875 C 127.34375 68.96875 128.566406 69.695312 129.960938 69.695312 C 132.140625 69.695312 133.90625 67.929688 133.90625 65.746094 C 133.90625 64.351562 133.179688 63.125 132.085938 62.425781"/><path fill="#F2CD0C" d="M 198.097656 162.699219 C 200.855469 134.996094 208.460938 110.953125 220.707031 91.230469 L 211.449219 85.472656 C 198.3125 106.621094 190.171875 132.238281 187.246094 161.613281 L 198.097656 162.699219"/><path fill="#F6AE0C" d="M 195.078125 121.882812 C 195.707031 119.839844 196.367188 117.820312 197.0625 115.828125 C 197.578125 115.929688 198.097656 116.007812 198.621094 116.054688 C 200.3125 116.214844 202.070312 116.042969 203.589844 115.289062 C 205.265625 114.464844 206.546875 112.980469 207.445312 111.347656 C 207.914062 110.5 208.292969 109.601562 208.625 108.695312 C 208.871094 108.023438 208.996094 107.023438 209.492188 106.484375 C 210.132812 105.792969 211.464844 106.070312 212.570312 106.453125 C 210.113281 111.824219 207.941406 117.445312 206.058594 123.308594 C 205.238281 123.75 204.363281 124.085938 203.445312 124.234375 C 200.808594 124.652344 198.1875 123.519531 195.820312 122.289062 C 195.574219 122.164062 195.320312 122.027344 195.078125 121.882812"/><g clip-path="url(#b)"><path fill="#F2CD0C" d="M 274.113281 61.800781 C 274.113281 88.628906 252.386719 110.378906 225.589844 110.378906 C 198.789062 110.378906 177.058594 88.628906 177.058594 61.800781 C 177.058594 34.972656 198.789062 13.222656 225.589844 13.222656 C 252.386719 13.222656 274.113281 34.972656 274.113281 61.800781"/></g><path fill="#F6AE0C" d="M 248.894531 19.1875 C 262.265625 27.835938 271.125 42.882812 271.125 60.003906 C 271.125 86.832031 249.402344 108.582031 222.601562 108.582031 C 214.152344 108.582031 206.210938 106.417969 199.292969 102.617188 C 206.871094 107.519531 215.894531 110.378906 225.589844 110.378906 C 252.386719 110.378906 274.113281 88.628906 274.113281 61.800781 C 274.113281 43.425781 263.925781 27.441406 248.894531 19.1875"/><path fill="#FFF" d="M 267.453125 61.800781 C 267.453125 84.949219 248.710938 103.710938 225.589844 103.710938 C 202.464844 103.710938 183.722656 84.949219 183.722656 61.800781 C 183.722656 38.652344 202.464844 19.890625 225.589844 19.890625 C 248.710938 19.890625 267.453125 38.652344 267.453125 61.800781"/><path fill="#E9E8E7" d="M 237.042969 21.496094 C 252.730469 27.542969 263.871094 42.765625 263.871094 60.605469 C 263.871094 83.75 245.125 102.511719 222 102.511719 C 218.027344 102.511719 214.191406 101.945312 210.546875 100.910156 C 215.214844 102.710938 220.285156 103.710938 225.589844 103.710938 C 248.710938 103.710938 267.453125 84.949219 267.453125 61.800781 C 267.453125 42.632812 254.59375 26.480469 237.042969 21.496094"/><path fill="#F2CD0C" d="M 258.96875 61.800781 C 258.96875 80.253906 244.023438 95.214844 225.589844 95.214844 C 207.148438 95.214844 192.203125 80.253906 192.203125 61.800781 C 192.203125 43.34375 207.148438 28.382812 225.589844 28.382812 C 244.023438 28.382812 258.96875 43.34375 258.96875 61.800781"/><path fill="#F6AE0C" d="M 241.261719 32.296875 C 250.140625 38.300781 255.980469 48.472656 255.980469 60.003906 C 255.980469 78.460938 241.035156 93.421875 222.601562 93.421875 C 216.933594 93.421875 211.597656 92.003906 206.921875 89.507812 C 212.25 93.113281 218.671875 95.214844 225.589844 95.214844 C 244.023438 95.214844 258.96875 80.253906 258.96875 61.800781 C 258.96875 49.019531 251.796875 37.917969 241.261719 32.296875"/><path fill="#2F2C31" d="M 251.136719 61.800781 C 251.136719 75.925781 239.695312 87.375 225.589844 87.375 C 211.472656 87.375 200.035156 75.925781 200.035156 61.800781 C 200.035156 47.675781 211.472656 36.226562 225.589844 36.226562 C 239.695312 36.226562 251.136719 47.675781 251.136719 61.800781"/><path fill="#232825" d="M 237.191406 39.015625 C 243.816406 43.640625 248.148438 51.3125 248.148438 60.003906 C 248.148438 74.128906 236.707031 85.582031 222.601562 85.582031 C 218.417969 85.582031 214.472656 84.570312 210.992188 82.789062 C 215.128906 85.675781 220.160156 87.375 225.589844 87.375 C 239.695312 87.375 251.136719 75.925781 251.136719 61.800781 C 251.136719 51.859375 245.46875 43.25 237.191406 39.015625"/><path fill="#FFF" d="M 228.226562 54.070312 C 228.226562 59.636719 223.722656 64.144531 218.167969 64.144531 C 212.609375 64.144531 208.105469 59.636719 208.105469 54.070312 C 208.105469 48.511719 212.609375 44.003906 218.167969 44.003906 C 223.722656 44.003906 228.226562 48.511719 228.226562 54.070312"/><path fill="#E9E8E7" d="M 222.929688 45.203125 C 224.726562 47.019531 225.835938 49.519531 225.835938 52.277344 C 225.835938 57.839844 221.332031 62.347656 215.773438 62.347656 C 214.050781 62.347656 212.429688 61.914062 211.011719 61.148438 C 212.835938 62.996094 215.367188 64.144531 218.167969 64.144531 C 223.722656 64.144531 228.226562 59.636719 228.226562 54.070312 C 228.226562 50.234375 226.085938 46.902344 222.929688 45.203125"/><path fill="#FFF" d="M 239.859375 65.746094 C 239.859375 67.929688 238.09375 69.695312 235.917969 69.695312 C 233.734375 69.695312 231.972656 67.929688 231.972656 65.746094 C 231.972656 63.566406 233.734375 61.800781 235.917969 61.800781 C 238.09375 61.800781 239.859375 63.566406 239.859375 65.746094"/><path fill="#E9E8E7" d="M 238.039062 62.425781 C 238.433594 63.039062 238.664062 63.769531 238.664062 64.550781 C 238.664062 66.730469 236.898438 68.5 234.722656 68.5 C 233.9375 68.5 233.210938 68.269531 232.597656 67.875 C 233.296875 68.96875 234.519531 69.695312 235.917969 69.695312 C 238.09375 69.695312 239.859375 67.929688 239.859375 65.746094 C 239.859375 64.351562 239.132812 63.125 238.039062 62.425781"/><g clip-path="url(#c)"><path fill="#F2CD0C" d="M 172.609375 116.175781 C 116.519531 116.175781 71.050781 161.695312 71.050781 217.839844 L 71.050781 347.234375 C 71.050781 355.375 77.640625 361.972656 85.773438 361.972656 C 93.910156 361.972656 100.503906 355.375 100.503906 347.234375 L 100.503906 336.628906 C 100.503906 327.40625 107.964844 319.9375 117.179688 319.9375 C 126.386719 319.9375 133.855469 327.40625 133.855469 336.628906 L 133.855469 349.1875 C 133.855469 355.683594 139.117188 360.949219 145.609375 360.949219 C 152.097656 360.949219 157.363281 355.683594 157.363281 349.1875 L 157.363281 337.179688 L 157.378906 337.179688 C 157.777344 327.589844 165.667969 319.9375 175.34375 319.9375 C 185.023438 319.9375 192.910156 327.589844 193.308594 337.179688 L 193.328125 337.179688 L 193.328125 341.296875 C 193.328125 349.046875 199.601562 355.324219 207.339844 355.324219 C 215.082031 355.324219 221.359375 349.046875 221.359375 341.296875 L 221.359375 336.257812 C 221.359375 327.242188 228.660156 319.9375 237.660156 319.9375 C 246.667969 319.9375 253.972656 327.242188 253.972656 336.257812 L 253.972656 343.171875 C 253.972656 348.753906 258.492188 353.28125 264.070312 353.28125 C 269.648438 353.28125 274.171875 348.753906 274.171875 343.171875 L 274.171875 217.839844 C 274.171875 161.695312 228.699219 116.175781 172.609375 116.175781"/></g><path fill="#2F2C31" d="M 171.855469 176.667969 C 186.203125 176.667969 193.925781 164.027344 212.640625 166.746094 C 229.609375 169.210938 235.769531 185.867188 235.851562 199.367188 C 235.945312 215.128906 226.378906 225.964844 210.9375 229.652344 C 200.992188 232.027344 193.496094 230.613281 187.449219 229.199219 C 182.953125 228.148438 179.261719 227.09375 175.957031 227.601562 C 164.921875 229.304688 152.5 240.679688 130.542969 235.515625 C 118.511719 232.6875 107.714844 216.550781 109.582031 201.8125 C 112.574219 178.164062 128.414062 170.949219 141.691406 170.007812 C 154.765625 169.082031 163.867188 176.667969 171.855469 176.667969"/><path fill="#232825" d="M 220.816406 169.378906 C 224.738281 175.640625 226.402344 183.4375 226.445312 190.398438 C 226.539062 206.164062 216.972656 216.996094 201.535156 220.683594 C 184.1875 224.828125 174.289062 217.445312 166.554688 218.636719 C 155.515625 220.339844 143.097656 231.714844 121.136719 226.546875 C 119.257812 226.105469 117.410156 225.339844 115.632812 224.304688 C 119.550781 229.949219 124.910156 234.191406 130.542969 235.515625 C 152.5 240.679688 164.921875 229.304688 175.957031 227.601562 C 183.695312 226.410156 193.59375 233.796875 210.9375 229.652344 C 226.378906 225.964844 235.945312 215.128906 235.851562 199.367188 C 235.785156 188.308594 231.632812 175.140625 220.816406 169.378906"/><path fill="#F03A5A" d="M 174.976562 210.003906 C 153.136719 212.164062 135.417969 222.617188 129.792969 235.3125 C 130.039062 235.382812 130.292969 235.457031 130.542969 235.515625 C 152.5 240.679688 164.921875 229.304688 175.957031 227.601562 C 183.695312 226.410156 193.59375 233.796875 210.9375 229.652344 C 215.550781 228.550781 219.632812 226.804688 223.09375 224.488281 C 214.496094 214.046875 195.84375 207.941406 174.976562 210.003906"/><path fill="#E22A4F" d="M 212.976562 229.105469 C 213.355469 228.996094 213.730469 228.886719 214.097656 228.765625 C 214.253906 228.714844 214.410156 228.664062 214.566406 228.613281 C 214.941406 228.484375 215.308594 228.359375 215.675781 228.222656 C 215.800781 228.175781 215.929688 228.132812 216.054688 228.082031 C 216.488281 227.917969 216.917969 227.746094 217.339844 227.570312 L 217.484375 227.511719 C 219.5 226.652344 221.371094 225.640625 223.09375 224.488281 C 220.460938 221.289062 216.882812 218.5 212.585938 216.226562 C 209.371094 218.195312 205.664062 219.699219 201.535156 220.683594 C 184.1875 224.828125 174.289062 217.445312 166.554688 218.636719 C 158.03125 219.953125 148.679688 227.03125 134.746094 227.808594 C 132.628906 230.179688 130.949219 232.695312 129.792969 235.3125 C 130.039062 235.382812 130.292969 235.457031 130.542969 235.515625 C 133.976562 236.324219 137.171875 236.726562 140.167969 236.824219 C 140.765625 236.84375 141.359375 236.851562 141.945312 236.851562 C 144.859375 236.832031 147.582031 236.53125 150.140625 236.046875 C 151.160156 235.847656 152.15625 235.625 153.128906 235.378906 C 162.367188 233.035156 169.40625 228.613281 175.957031 227.601562 C 177.847656 227.3125 179.863281 227.53125 182.085938 227.972656 C 182.203125 227.996094 182.316406 228.015625 182.433594 228.039062 C 183.164062 228.191406 183.921875 228.363281 184.703125 228.546875 C 185.460938 228.726562 186.238281 228.914062 187.042969 229.101562 C 187.542969 229.222656 188.054688 229.339844 188.578125 229.457031 C 188.730469 229.492188 188.878906 229.523438 189.03125 229.558594 C 189.574219 229.679688 190.128906 229.792969 190.695312 229.90625 C 193.992188 230.558594 197.695312 231.050781 201.933594 230.898438 C 204.238281 230.816406 206.695312 230.542969 209.335938 230.003906 C 209.863281 229.898438 210.398438 229.78125 210.9375 229.652344 C 211.476562 229.523438 212.007812 229.386719 212.53125 229.238281 C 212.679688 229.195312 212.828125 229.148438 212.976562 229.105469"/><path fill="#FFF" d="M 144.433594 180.757812 L 149.046875 170.34375 C 146.738281 169.980469 144.292969 169.824219 141.691406 170.007812 C 138.277344 170.25 134.691406 170.910156 131.203125 172.15625 L 137.964844 181.449219 C 139.667969 183.785156 143.257812 183.40625 144.433594 180.757812"/><path fill="#E9E8E7" d="M 145.675781 169.980469 L 141.296875 179.863281 C 140.75 181.097656 139.667969 181.835938 138.503906 182.035156 C 140.335938 183.683594 143.371094 183.152344 144.433594 180.757812 L 149.046875 170.34375 C 147.957031 170.171875 146.832031 170.050781 145.675781 169.980469"/><path fill="#FFF" d="M 212.597656 177.867188 L 218.183594 168.183594 C 216.480469 167.53125 214.636719 167.035156 212.640625 166.746094 C 207.777344 166.039062 203.664062 166.375 199.972656 167.25 L 206.097656 177.867188 C 207.539062 180.371094 211.152344 180.371094 212.597656 177.867188"/><path fill="#E9E8E7" d="M 214.628906 167.121094 L 209.464844 176.074219 C 208.726562 177.347656 207.4375 177.972656 206.152344 177.949219 C 207.628906 180.371094 211.171875 180.34375 212.597656 177.867188 L 218.183594 168.183594 C 217.058594 167.75 215.875 167.398438 214.628906 167.121094"/><g clip-path="url(#d)"><g clip-path="url(#e)"><path fill="#F5DE39" d="M 89.363281 185.894531 L 149.902344 185.894531 L 149.902344 129.34375 L 89.363281 129.34375 Z M 89.363281 185.894531"/></g></g><path fill="#F5DE39" d="M 35.636719 281.652344 C 35.117188 281.652344 34.589844 281.480469 34.152344 281.128906 C 33.511719 280.613281 33.210938 279.820312 33.273438 279.058594 C 33.382812 277.914062 33.667969 276.820312 34.03125 275.765625 C 34.402344 274.710938 34.867188 273.699219 35.398438 272.730469 C 35.933594 271.761719 36.542969 270.835938 37.246094 269.980469 C 37.945312 269.132812 38.71875 268.335938 39.644531 267.679688 C 40.101562 267.355469 40.632812 267.195312 41.15625 267.195312 C 41.972656 267.195312 42.78125 267.582031 43.292969 268.304688 C 43.8125 269.039062 43.902344 269.953125 43.609375 270.734375 L 43.570312 270.832031 C 43.210938 271.78125 42.753906 272.636719 42.285156 273.476562 C 41.820312 274.316406 41.316406 275.121094 40.808594 275.925781 C 40.300781 276.726562 39.785156 277.527344 39.253906 278.320312 C 38.714844 279.109375 38.171875 279.902344 37.550781 280.683594 L 37.488281 280.761719 C 37.019531 281.347656 36.328125 281.652344 35.636719 281.652344"/><path fill="#F5DE39" d="M 286.125 247.539062 C 285.007812 247.539062 283.96875 246.816406 283.625 245.691406 C 283.359375 244.828125 283.558594 243.933594 284.082031 243.277344 L 284.148438 243.199219 C 284.789062 242.410156 285.488281 241.738281 286.195312 241.089844 C 286.898438 240.441406 287.628906 239.828125 288.363281 239.226562 C 289.097656 238.625 289.835938 238.027344 290.589844 237.441406 C 291.347656 236.855469 292.105469 236.273438 292.945312 235.726562 L 293.03125 235.667969 C 293.429688 235.410156 293.878906 235.285156 294.320312 235.285156 C 295.09375 235.285156 295.855469 235.667969 296.3125 236.367188 C 296.757812 237.054688 296.796875 237.902344 296.5 238.609375 C 296.039062 239.660156 295.425781 240.605469 294.75 241.496094 C 294.070312 242.382812 293.3125 243.199219 292.503906 243.953125 C 291.691406 244.707031 290.824219 245.398438 289.894531 245.988281 C 288.960938 246.574219 287.976562 247.09375 286.894531 247.425781 C 286.640625 247.503906 286.378906 247.539062 286.125 247.539062"/><g clip-path="url(#f)"><path fill="#F6AE0C" d="M 205.035156 121.46875 C 206.144531 122.339844 207.113281 123.117188 207.726562 123.722656 C 211.328125 127.296875 214.792969 131.003906 218.085938 134.863281 C 224.742188 142.65625 230.722656 151.039062 235.710938 160 C 241.230469 169.925781 245.515625 180.542969 248.136719 191.605469 C 256.910156 228.636719 243.765625 272.292969 210.90625 291.441406 C 187.738281 304.9375 159.386719 304.734375 132.59375 304.144531 C 112.078125 303.695312 91.5625 303.25 71.050781 302.800781 L 71.050781 347.234375 C 71.050781 355.375 77.640625 361.972656 85.773438 361.972656 C 93.910156 361.972656 100.503906 355.375 100.503906 347.234375 L 100.503906 336.628906 C 100.503906 327.40625 107.964844 319.9375 117.179688 319.9375 C 126.386719 319.9375 133.855469 327.40625 133.855469 336.628906 L 133.855469 349.1875 C 133.855469 355.683594 139.117188 360.949219 145.609375 360.949219 C 152.097656 360.949219 157.363281 355.683594 157.363281 349.1875 L 157.363281 337.179688 L 157.378906 337.179688 C 157.777344 327.589844 165.667969 319.9375 175.34375 319.9375 C 185.023438 319.9375 192.910156 327.589844 193.308594 337.179688 L 193.328125 337.179688 L 193.328125 341.296875 C 193.328125 349.042969 199.601562 355.324219 207.339844 355.324219 C 215.082031 355.324219 221.359375 349.042969 221.359375 341.296875 L 221.359375 336.257812 C 221.359375 327.242188 228.660156 319.9375 237.660156 319.9375 C 246.667969 319.9375 253.972656 327.242188 253.972656 336.257812 L 253.972656 343.171875 C 253.972656 348.753906 258.492188 353.28125 264.070312 353.28125 C 269.648438 353.28125 274.171875 348.753906 274.171875 343.171875 L 274.171875 217.839844 C 274.171875 173.042969 245.226562 135.011719 205.035156 121.46875"/></g><path fill="#E9E8E7" d="M 307.90625 241.675781 C 306.128906 241.378906 304.925781 239.691406 305.226562 237.914062 L 311.726562 199.066406 L 318.164062 200.148438 L 311.660156 238.992188 C 311.367188 240.773438 309.683594 241.972656 307.90625 241.675781"/><path fill="#CCCCC9" d="M 315.691406 199.730469 L 309.425781 237.203125 C 309.125 238.980469 307.441406 240.179688 305.664062 239.882812 L 305.492188 239.84375 C 305.933594 240.78125 306.808594 241.492188 307.90625 241.675781 C 309.683594 241.972656 311.367188 240.773438 311.660156 238.992188 L 318.164062 200.148438 L 315.691406 199.730469"/><path fill="#8FCA24" d="M 352.929688 178.6875 C 349.828125 197.234375 332.292969 209.746094 313.765625 206.640625 C 295.242188 203.535156 282.742188 185.984375 285.84375 167.4375 C 288.945312 148.898438 306.480469 136.378906 325.003906 139.488281 C 343.53125 142.59375 356.035156 160.144531 352.929688 178.6875"/><path fill="#7BB52B" d="M 334.113281 142.378906 C 342.140625 149.90625 346.375 161.1875 344.421875 172.863281 C 341.316406 191.402344 323.78125 203.917969 305.257812 200.8125 C 302.015625 200.269531 298.96875 199.277344 296.152344 197.921875 C 300.871094 202.355469 306.90625 205.488281 313.765625 206.640625 C 332.292969 209.746094 349.828125 197.234375 352.929688 178.6875 C 355.492188 163.390625 347.421875 148.769531 334.113281 142.378906"/><path fill="#2F2C31" d="M 325.003906 139.488281 C 323.277344 139.199219 321.558594 139.042969 319.859375 139.019531 C 322.640625 150.859375 309.09375 159.960938 319.386719 173.0625 C 314.730469 161.410156 331.847656 153.410156 335.683594 143.179688 C 332.4375 141.410156 328.855469 140.132812 325.003906 139.488281"/><path fill="#2F2C31" d="M 319.386719 173.0625 C 306.980469 171.273438 308.613281 152.445312 301.6875 144 C 297.007812 146.863281 293.03125 150.835938 290.175781 155.632812 C 301.804688 159.144531 302.910156 175.4375 319.386719 173.0625"/><path fill="#2F2C31" d="M 319.386719 173.0625 C 311.632812 182.925781 296.152344 172.089844 285.386719 173.878906 C 285.515625 179.527344 287.050781 184.925781 289.703125 189.667969 C 298.558594 181.351562 313.203125 188.535156 319.386719 173.0625"/><path fill="#2F2C31" d="M 319.386719 173.0625 C 324.042969 184.714844 306.921875 192.71875 303.089844 202.945312 C 306.335938 204.722656 309.917969 205.996094 313.765625 206.640625 C 315.492188 206.929688 317.214844 207.085938 318.910156 207.109375 C 316.132812 195.269531 329.679688 186.167969 319.386719 173.0625"/><path fill="#232825" d="M 318.875 200.335938 C 314.539062 201.386719 309.933594 201.597656 305.257812 200.8125 C 304.902344 200.753906 304.550781 200.6875 304.199219 200.617188 C 303.761719 201.382812 303.386719 202.15625 303.089844 202.945312 C 304.300781 203.605469 305.558594 204.199219 306.859375 204.71875 L 306.914062 204.734375 C 307.308594 204.894531 307.703125 205.039062 308.105469 205.179688 L 308.304688 205.25 C 308.660156 205.371094 309.015625 205.488281 309.371094 205.597656 C 309.476562 205.628906 309.574219 205.660156 309.675781 205.691406 C 310.003906 205.789062 310.335938 205.878906 310.671875 205.96875 C 310.792969 206 310.914062 206.035156 311.039062 206.066406 C 311.367188 206.148438 311.699219 206.226562 312.035156 206.296875 C 312.15625 206.324219 312.277344 206.355469 312.402344 206.382812 C 312.851562 206.476562 313.304688 206.566406 313.761719 206.640625 L 313.765625 206.640625 C 314.285156 206.726562 314.804688 206.796875 315.324219 206.863281 C 315.480469 206.882812 315.640625 206.898438 315.800781 206.914062 C 316.171875 206.957031 316.546875 206.988281 316.917969 207.015625 C 317.082031 207.027344 317.246094 207.039062 317.40625 207.050781 C 317.910156 207.078125 318.410156 207.105469 318.910156 207.109375 C 318.359375 204.761719 318.453125 202.519531 318.875 200.335938"/><path fill="#2F2C31" d="M 319.386719 173.0625 C 331.792969 174.851562 330.15625 193.683594 337.085938 202.125 C 341.765625 199.265625 345.742188 195.289062 348.601562 190.5 C 336.96875 186.980469 335.863281 170.691406 319.386719 173.0625"/><path fill="#232825" d="M 340.140625 184.582031 C 338.179688 187.890625 335.691406 190.8125 332.804688 193.25 C 333.894531 196.621094 335.15625 199.773438 337.085938 202.125 C 339.425781 200.699219 341.585938 198.992188 343.523438 197.039062 L 343.53125 197.035156 C 345.464844 195.085938 347.167969 192.894531 348.597656 190.5 L 348.601562 190.5 C 345.042969 189.421875 342.46875 187.152344 340.140625 184.582031"/><path fill="#2F2C31" d="M 353.382812 172.25 C 353.257812 166.601562 351.722656 161.203125 349.070312 156.460938 C 340.214844 164.777344 325.574219 157.59375 319.386719 173.0625 C 327.140625 163.199219 342.621094 174.039062 353.382812 172.25"/><path fill="#232825" d="M 352.1875 164.0625 L 352.164062 163.980469 C 352.078125 163.667969 351.984375 163.351562 351.890625 163.039062 L 351.875 162.996094 C 351.589844 162.070312 351.261719 161.164062 350.898438 160.273438 C 350.867188 160.199219 350.839844 160.125 350.808594 160.050781 C 350.703125 159.789062 350.589844 159.527344 350.476562 159.269531 C 350.4375 159.1875 350.398438 159.101562 350.363281 159.019531 C 350.003906 158.234375 349.617188 157.457031 349.203125 156.703125 C 349.15625 156.621094 349.113281 156.539062 349.070312 156.460938 C 347.535156 157.902344 345.828125 158.878906 344.019531 159.585938 C 344.917969 163.46875 345.144531 167.574219 344.589844 171.738281 C 347.6875 172.351562 350.683594 172.699219 353.382812 172.25 C 353.320312 169.445312 352.910156 166.699219 352.1875 164.0625"/><path fill="#4A4A50" d="M 120.246094 215.367188 C 120.128906 215.367188 120.007812 215.359375 119.882812 215.351562 C 118.078125 215.207031 116.605469 214.03125 115.988281 212.449219 C 115.167969 210.335938 114.757812 208.089844 114.597656 205.832031 C 114.449219 203.570312 114.589844 201.292969 114.992188 199.058594 C 115.390625 196.824219 116.058594 194.640625 117.007812 192.578125 C 117.953125 190.519531 119.152344 188.574219 120.699219 186.90625 C 121.601562 185.933594 122.824219 185.441406 124.050781 185.441406 C 125.167969 185.441406 126.285156 185.84375 127.164062 186.667969 C 128.457031 187.867188 128.902344 189.644531 128.460938 191.238281 L 128.378906 191.542969 C 127.917969 193.203125 127.425781 194.765625 127.011719 196.34375 C 126.589844 197.917969 126.21875 199.488281 125.914062 201.078125 C 125.609375 202.664062 125.378906 204.265625 125.214844 205.890625 C 125.03125 207.515625 124.949219 209.152344 124.816406 210.863281 L 124.789062 211.152344 C 124.601562 213.550781 122.605469 215.367188 120.246094 215.367188"/><path fill="#B1DC50" d="M 293.394531 163.886719 C 293.003906 163.886719 292.601562 163.78125 292.25 163.550781 C 291.410156 163.015625 291.074219 161.992188 291.371094 161.089844 C 291.839844 159.652344 292.457031 158.261719 293.191406 156.929688 C 294.664062 157.773438 295.960938 158.832031 297.15625 160.003906 C 296.484375 160.929688 295.84375 161.886719 295.214844 162.871094 L 295.195312 162.90625 C 294.785156 163.539062 294.097656 163.886719 293.394531 163.886719 M 305.523438 151.539062 C 304.886719 149.707031 304.175781 147.960938 303.304688 146.410156 C 303.464844 146.316406 303.621094 146.222656 303.777344 146.128906 C 305.6875 145.027344 307.730469 144.152344 309.851562 143.609375 C 310.039062 143.558594 310.230469 143.539062 310.414062 143.539062 C 311.421875 143.539062 312.34375 144.214844 312.601562 145.238281 C 312.863281 146.261719 312.382812 147.296875 311.503906 147.78125 L 311.46875 147.800781 C 309.796875 148.722656 308.183594 149.671875 306.652344 150.730469 C 306.273438 150.996094 305.894531 151.265625 305.523438 151.539062"/><path fill="#6A6A6F" d="M 297.15625 160.003906 C 295.960938 158.832031 294.664062 157.773438 293.191406 156.929688 C 293.519531 156.339844 293.871094 155.753906 294.242188 155.183594 C 295.445312 153.339844 296.875 151.628906 298.480469 150.101562 C 299.953125 148.699219 301.574219 147.457031 303.304688 146.410156 C 304.175781 147.960938 304.886719 149.707031 305.523438 151.539062 C 304.402344 152.367188 303.328125 153.25 302.300781 154.191406 C 300.9375 155.445312 299.667969 156.804688 298.496094 158.257812 C 298.035156 158.824219 297.589844 159.40625 297.15625 160.003906"/></svg>