<svg xmlns="http://www.w3.org/2000/svg" xmlns:xlink="http://www.w3.org/1999/xlink" width="125" viewBox="-15 -15 400 400" height="125" version="1.0"><defs><clipPath id="a"><path d="M 53.421875 324.15625 L 217.820312 324.15625 L 217.820312 342.023438 L 53.421875 342.023438 Z M 53.421875 324.15625"/></clipPath><clipPath id="b"><path d="M 114 144 L 176.394531 144 L 176.394531 173.375 L 114 173.375 Z M 114 144"/></clipPath><clipPath id="c"><path d="M 175.898438 158.378906 C 175.898438 158.378906 166.332031 134.660156 144.160156 148.15625 C 144.160156 148.15625 147.804688 150.625 148.621094 153.417969 C 145.457031 146.578125 125.589844 141.832031 114.050781 157.492188 C 114.050781 157.492188 119.03125 161.792969 128.992188 167.644531 C 150.789062 180.460938 179.914062 168.136719 175.898438 158.378906"/></clipPath><clipPath id="d"><path d="M 175.898438 158.378906 C 175.898438 158.378906 166.332031 134.660156 144.160156 148.15625 C 144.160156 148.15625 147.804688 150.625 148.621094 153.417969 C 145.457031 146.578125 125.589844 141.832031 114.050781 157.492188 C 114.050781 157.492188 119.03125 161.792969 128.992188 167.644531 C 150.789062 180.460938 179.914062 168.136719 175.898438 158.378906"/></clipPath><clipPath id="e"><path d="M 200.015625 166.671875 L 160.085938 103.082031 L 93.953125 148.449219 L 133.878906 212.039062 Z M 200.015625 166.671875"/></clipPath><clipPath id="g"><path d="M 302.628906 108.429688 L 357.960938 108.429688 L 357.960938 153.46875 L 302.628906 153.46875 Z M 302.628906 108.429688"/></clipPath><clipPath id="h"><path d="M 339 33.039062 L 351 33.039062 L 351 80 L 339 80 Z M 339 33.039062"/></clipPath><radialGradient gradientTransform="matrix(-.87871 .60276 -.4969 -.79135 159.206 148.788)" xmlns:xlink="http://www.w3.org/1999/xlink" gradientUnits="userSpaceOnUse" xlink:type="simple" r="23.539" xlink:actuate="onLoad" cx="0" id="f" cy="0" xlink:show="other" fx="0" fy="0"><stop stop-color="#EF286D" offset="0"/><stop stop-color="#EF276C" offset=".031"/><stop stop-color="#EF276B" offset=".059"/><stop stop-color="#EF276B" offset=".07"/><stop stop-color="#EF266B" offset=".082"/><stop stop-color="#EF266B" offset=".094"/><stop stop-color="#EE266B" offset=".105"/><stop stop-color="#EE256A" offset=".117"/><stop stop-color="#EE256A" offset=".145"/><stop stop-color="#EE256A" offset=".156"/><stop stop-color="#EE2469" offset=".168"/><stop stop-color="#EE2469" offset=".18"/><stop stop-color="#EE2369" offset=".191"/><stop stop-color="#EE2368" offset=".215"/><stop stop-color="#EE2368" offset=".227"/><stop stop-color="#EE2268" offset=".23"/><stop stop-color="#EE2267" offset=".277"/><stop stop-color="#EE2167" offset=".297"/><stop stop-color="#EE2167" offset=".316"/><stop stop-color="#EE2167" offset=".324"/><stop stop-color="#EE2066" offset=".332"/><stop stop-color="#EE1F66" offset=".352"/><stop stop-color="#EE1F65" offset=".371"/><stop stop-color="#EE1F65" offset=".391"/><stop stop-color="#EE1F64" offset=".406"/><stop stop-color="#EE1E64" offset=".422"/><stop stop-color="#EE1E64" offset=".438"/><stop stop-color="#EE1D63" offset=".453"/><stop stop-color="#ED1D63" offset=".469"/><stop stop-color="#EC1D62" offset=".5"/><stop stop-color="#EC1D62" offset=".508"/><stop stop-color="#EB1D62" offset=".539"/><stop stop-color="#EB1D62" offset=".566"/><stop stop-color="#EA1C62" offset=".578"/><stop stop-color="#E91C62" offset=".582"/><stop stop-color="#E91B61" offset=".586"/><stop stop-color="#E81B61" offset=".59"/><stop stop-color="#E71B60" offset=".613"/><stop stop-color="#E71B60" offset=".637"/><stop stop-color="#E61A60" offset=".656"/><stop stop-color="#E51A5F" offset=".676"/><stop stop-color="#E41A5F" offset=".715"/><stop stop-color="#E41A5F" offset=".723"/><stop stop-color="#E31A5F" offset=".738"/><stop stop-color="#E31A5E" offset=".754"/><stop stop-color="#E2195E" offset=".766"/><stop stop-color="#E2195E" offset=".777"/><stop stop-color="#E1195E" offset=".805"/><stop stop-color="#E1195D" offset=".816"/><stop stop-color="#E1195D" offset=".824"/><stop stop-color="#E0195D" offset=".832"/><stop stop-color="#DF185D" offset=".852"/><stop stop-color="#DF185D" offset=".859"/><stop stop-color="#DE185C" offset=".875"/><stop stop-color="#DD185C" offset=".891"/><stop stop-color="#DD185C" offset=".918"/><stop stop-color="#DC185B" offset=".926"/><stop stop-color="#DC185B" offset=".941"/><stop stop-color="#DB185B" offset=".953"/><stop stop-color="#DA185B" offset=".977"/><stop stop-color="#DA185A" offset=".98"/><stop stop-color="#DA185A" offset="1"/></radialGradient></defs><g clip-path="url(#a)"><path fill="#F5F5F5" d="M 135.621094 324.214844 C 131.9375 324.214844 128.3125 324.242188 124.757812 324.292969 C 124.5625 329.121094 123.46875 332.59375 118.613281 333.402344 C 110.914062 334.734375 105.066406 335.25 100.636719 335.25 C 85.347656 335.25 86.875 329.113281 86.875 329.113281 C 88.136719 327.988281 89.347656 326.84375 90.5 325.683594 C 68.265625 327.277344 53.59375 330.011719 53.59375 333.121094 C 53.59375 338.039062 90.316406 342.023438 135.621094 342.023438 C 180.925781 342.023438 217.652344 338.039062 217.652344 333.121094 C 217.652344 330.363281 206.101562 327.898438 187.964844 326.265625 C 188.289062 327.011719 188.628906 327.75 189 328.484375 C 189 328.484375 193.105469 333.53125 178.601562 333.53125 C 174.023438 333.53125 167.585938 333.027344 158.582031 331.703125 C 158.582031 331.703125 155.558594 329.289062 155.089844 324.46875 C 148.851562 324.304688 142.328125 324.214844 135.621094 324.214844"/></g><path fill="#43A3D6" d="M 163.390625 286.878906 C 168.535156 293.800781 165.203125 301.246094 158.074219 313.421875 C 150.941406 325.601562 158.582031 331.703125 158.582031 331.703125 C 196.101562 337.21875 189 328.484375 189 328.484375 C 176.972656 304.558594 191.289062 273.777344 191.289062 273.777344 C 191.289062 273.777344 186.449219 266.347656 174.21875 272.957031 C 163.753906 278.609375 163.390625 286.878906 163.390625 286.878906"/><path fill="#28658B" d="M 191.785156 331.171875 C 191.785156 331.171875 191.285156 328.894531 189.316406 329.3125 C 187.34375 329.734375 187.886719 333.433594 188.816406 333.527344 C 192.425781 332.648438 191.785156 331.171875 191.785156 331.171875"/><path fill="#28658B" d="M 186.65625 334.148438 C 186.65625 334.148438 186.453125 330.328125 182.714844 329.988281 C 178.976562 329.648438 179.734375 334.121094 179.734375 334.121094 C 179.734375 334.121094 182.921875 334.753906 186.65625 334.148438"/><path fill="#28658B" d="M 177.613281 334.1875 C 177.613281 334.1875 177.390625 331.335938 173.605469 331.109375 C 169.816406 330.886719 170.226562 333.703125 170.226562 333.703125 C 170.226562 333.703125 175.125 334.515625 177.613281 334.1875"/><path fill="#388AB8" d="M 184.726562 305.933594 C 183.941406 303.484375 176.652344 302.773438 177.488281 305.734375 C 177.773438 306.738281 179.734375 307.933594 181.214844 307.097656 C 181.886719 306.71875 182.078125 305.429688 180.765625 305.429688 C 180.582031 305.429688 180.40625 305.566406 180.585938 305.679688 C 180.714844 305.863281 180.71875 306.03125 180.59375 306.195312 C 180.53125 306.277344 180.46875 306.359375 180.402344 306.445312 C 179.164062 306.550781 178.578125 306.203125 178.644531 305.394531 C 178.609375 304.28125 180.5625 304.394531 181.679688 304.6875 C 183.328125 305.113281 183.898438 306.40625 183.214844 307.285156 C 182.835938 307.773438 182.121094 308.066406 181.359375 308.257812 C 179.582031 308.710938 177.289062 308.070312 176.207031 307.007812 C 174.59375 305.421875 175.902344 303.386719 177.941406 302.539062 C 178.117188 302.46875 177.964844 302.265625 177.773438 302.332031 C 176.050781 302.949219 174.617188 303.863281 174.4375 305.246094 C 174.246094 306.75 175.285156 308.09375 177.441406 308.859375 C 180.890625 310.082031 185.578125 308.597656 184.726562 305.933594"/><path fill="#43A3D6" d="M 143.15625 286.875 C 111.292969 301.089844 134.113281 330.816406 118.613281 333.402344 C 84.339844 339.320312 86.875 329.113281 86.875 329.113281 C 112.582031 306.261719 114.40625 274.953125 114.40625 274.953125 C 114.40625 274.953125 119.015625 267.769531 130.667969 274.160156 C 140.632812 279.621094 143.15625 286.875 143.15625 286.875"/><path fill="#28658B" d="M 84.21875 331.710938 C 84.21875 331.710938 84.699219 329.511719 86.574219 329.914062 C 88.457031 330.320312 87.933594 333.898438 87.046875 333.988281 C 83.613281 333.136719 84.21875 331.710938 84.21875 331.710938"/><path fill="#28658B" d="M 89.105469 334.585938 C 89.105469 334.585938 89.300781 330.898438 92.863281 330.566406 C 96.425781 330.238281 95.703125 334.5625 95.703125 334.5625 C 95.703125 334.5625 92.664062 335.171875 89.105469 334.585938"/><path fill="#28658B" d="M 99.066406 335.414062 C 99.066406 335.414062 99.371094 331.839844 103 331.445312 C 106.625 331.042969 106.148438 334.578125 106.148438 334.578125 C 106.148438 334.578125 101.4375 335.742188 99.066406 335.414062"/><path fill="#388AB8" d="M 106.507812 309.644531 C 107.253906 307.277344 114.203125 306.59375 113.402344 309.453125 C 113.132812 310.421875 111.261719 311.578125 109.855469 310.769531 C 109.210938 310.40625 109.03125 309.15625 110.28125 309.15625 C 110.457031 309.15625 110.621094 309.289062 110.453125 309.394531 C 110.332031 309.574219 110.328125 309.742188 110.445312 309.898438 C 110.503906 309.976562 110.566406 310.058594 110.628906 310.136719 C 111.808594 310.242188 112.363281 309.90625 112.300781 309.125 C 112.335938 308.046875 110.472656 308.15625 109.410156 308.441406 C 107.84375 308.855469 107.300781 310.105469 107.949219 310.953125 C 108.308594 311.421875 108.988281 311.707031 109.714844 311.894531 C 111.410156 312.328125 113.589844 311.710938 114.621094 310.683594 C 116.160156 309.152344 114.917969 307.183594 112.96875 306.363281 C 112.800781 306.292969 112.949219 306.101562 113.132812 306.164062 C 114.773438 306.761719 116.140625 307.644531 116.304688 308.984375 C 116.488281 310.4375 115.503906 311.734375 113.449219 312.472656 C 110.164062 313.65625 105.695312 312.21875 106.507812 309.644531"/><path fill="#F25B43" d="M 194.640625 45.382812 C 195.09375 45.351562 195.511719 45.523438 195.886719 45.898438 C 199.269531 49.085938 202.273438 57.953125 203.476562 63.3125 C 204.835938 69.367188 204.984375 75.023438 204.480469 78.753906 C 204.125 81.40625 202.863281 87.644531 201.394531 88.746094 C 199.25 90.355469 193.105469 89.21875 190.6875 88.328125 C 183.5 85.675781 175.644531 78.589844 175.363281 67.964844 C 185.984375 62.171875 189.625 53.496094 194.640625 45.382812"/><path fill="#4AB1E4" d="M 203.980469 60.558594 C 204.003906 55.71875 195.964844 51.527344 192.480469 52.128906 C 188.9375 52.734375 185.058594 57.210938 183.570312 60.613281 C 188.234375 56.351562 194.667969 56.84375 199.753906 61.867188 C 201.773438 63.867188 203.851562 67.636719 204.492188 70.515625 C 205.117188 73.292969 204.671875 76.382812 204.953125 79.058594 C 205.007812 79.636719 205.074219 80.25 205.210938 80.820312 C 202.300781 72.6875 196.019531 66.007812 188.261719 65.046875 C 185.460938 64.699219 182.285156 64.691406 179.792969 66.054688 C 176.042969 68.113281 175.203125 72.121094 173.496094 76.316406 C 178.050781 73.148438 184.433594 72.84375 189.453125 76.324219 C 191.394531 77.671875 193.222656 79.128906 195.039062 80.785156 C 196.78125 82.371094 198.835938 84.953125 200.972656 85.773438 C 204.332031 87.0625 206.179688 81.292969 206.582031 78.582031 C 207.222656 74.238281 207.203125 71.296875 206.0625 66.863281 C 205.6875 65.410156 205.613281 63.730469 204.957031 62.363281 L 203.980469 60.558594" fill-rule="evenodd"/><path fill="#E14937" d="M 190.707031 57.726562 C 189.128906 57.726562 187.578125 58.09375 186.125 58.832031 C 183.429688 62.246094 180.085938 65.390625 175.363281 67.964844 C 175.382812 68.695312 175.4375 69.402344 175.527344 70.097656 C 175.679688 70.121094 175.835938 70.144531 175.988281 70.167969 C 176.863281 68.480469 177.992188 67.042969 179.792969 66.054688 C 181.445312 65.152344 183.394531 64.851562 185.339844 64.851562 C 186.328125 64.851562 187.316406 64.929688 188.261719 65.046875 C 190.105469 65.273438 191.859375 65.824219 193.507812 66.640625 C 194.164062 64.328125 194.734375 61.65625 195.078125 58.652344 C 193.632812 58.035156 192.160156 57.726562 190.707031 57.726562 M 194.738281 45.378906 C 194.707031 45.378906 194.671875 45.378906 194.640625 45.382812 C 193.070312 47.921875 191.632812 50.519531 190.078125 53.0625 C 190.875 52.59375 191.683594 52.261719 192.480469 52.128906 C 192.703125 52.085938 192.945312 52.070312 193.203125 52.070312 C 193.859375 52.070312 194.617188 52.191406 195.414062 52.414062 C 195.414062 51.8125 195.402344 51.203125 195.378906 50.585938 C 195.324219 49.113281 195.457031 47.308594 195.199219 45.851562 C 195.171875 45.71875 195.152344 45.578125 195.132812 45.433594 C 195.007812 45.398438 194.875 45.378906 194.738281 45.378906"/><path fill="#3C8EBD" d="M 185.339844 64.851562 C 183.394531 64.851562 181.445312 65.152344 179.792969 66.054688 C 177.992188 67.042969 176.863281 68.480469 175.988281 70.167969 C 179.210938 70.675781 182.300781 71.453125 185.230469 72.53125 C 186.910156 73.148438 188.566406 73.976562 190.191406 74.988281 C 191.128906 73.234375 192.4375 70.414062 193.507812 66.640625 C 191.859375 65.824219 190.105469 65.273438 188.261719 65.046875 C 187.316406 64.929688 186.328125 64.851562 185.339844 64.851562 M 193.203125 52.070312 C 192.945312 52.070312 192.703125 52.085938 192.480469 52.128906 C 191.683594 52.261719 190.875 52.59375 190.078125 53.0625 C 188.871094 55.03125 187.59375 56.972656 186.125 58.832031 C 187.578125 58.09375 189.128906 57.726562 190.707031 57.726562 C 192.160156 57.726562 193.632812 58.035156 195.078125 58.652344 C 195.296875 56.707031 195.421875 54.628906 195.414062 52.414062 C 194.617188 52.191406 193.859375 52.070312 193.203125 52.070312"/><path fill="#E5CED1" d="M 183.503906 57.195312 C 182.339844 58.265625 181.113281 59.394531 179.933594 60.5 C 180.171875 60.339844 180.367188 60.199219 180.507812 60.078125 C 181.621094 59.128906 182.613281 58.164062 183.503906 57.195312"/><path fill="#327CA9" d="M 180.019531 85.421875 C 183.351562 88.640625 190.527344 92.523438 195.472656 92.5625 C 197.511719 92.574219 201.609375 92.769531 203.355469 91.277344 C 204.785156 90.050781 206.570312 83.464844 207.046875 80.566406 C 208.300781 72.964844 206.53125 59 201.019531 49.523438 C 199.464844 46.859375 196.367188 42.160156 193.847656 42.550781 C 190.617188 43.265625 189.578125 52.351562 180.507812 60.078125 C 178.78125 61.550781 169.207031 65.851562 167.269531 74.253906 C 166.230469 78.777344 174.4375 80.023438 180.019531 85.421875 M 175.363281 67.964844 C 185.984375 62.171875 189.625 53.496094 194.640625 45.382812 C 195.09375 45.351562 195.511719 45.523438 195.886719 45.898438 C 199.269531 49.085938 202.273438 57.953125 203.476562 63.3125 C 204.835938 69.367188 204.984375 75.023438 204.480469 78.753906 C 204.125 81.40625 202.863281 87.644531 201.394531 88.746094 C 199.25 90.355469 193.105469 89.21875 190.6875 88.328125 C 183.5 85.675781 175.644531 78.589844 175.363281 67.964844"/><path fill="#43A3D6" d="M 233.046875 142.46875 C 233.046875 142.46875 266.003906 175.296875 283.109375 129.871094 C 283.109375 129.871094 287.398438 127.007812 288.828125 132.449219 C 290.257812 137.886719 288.636719 144.1875 288.636719 144.1875 C 288.636719 144.1875 285.195312 190.949219 235.183594 185.054688 C 185.085938 179.15625 221.421875 124.1875 233.046875 142.46875"/><path fill="#3D97C4" d="M 283.195312 159.90625 C 283.195312 159.90625 271.949219 175.96875 253.738281 175.96875 C 248.949219 175.96875 243.683594 174.859375 238.011719 172.058594 C 239.011719 176.585938 239.746094 180.578125 240.195312 183.820312 C 240.617188 183.828125 241.050781 183.832031 241.480469 183.832031 C 256.453125 183.832031 274.410156 177.621094 283.195312 159.90625"/><path fill="#4AB1E4" d="M 185.230469 72.53125 C 215.671875 83.753906 238.101562 163.09375 240.5 186.335938 C 242.90625 209.578125 258.125 279.304688 183.628906 286.519531 C 109.136719 293.734375 84.304688 287.320312 82.703125 258.46875 C 81.101562 229.617188 80.296875 184.734375 69.886719 158.285156 C 59.472656 131.839844 49.941406 110.59375 77.09375 97.378906 C 106.734375 82.949219 154.792969 61.3125 185.230469 72.53125"/><path fill="#53BFE8" d="M 180.480469 170.640625 C 172.054688 176.042969 161.828125 179.101562 151.078125 179.695312 C 150.988281 179.699219 150.898438 179.707031 150.808594 179.710938 C 137 190.207031 127.804688 207.96875 122.492188 223.539062 C 112.632812 252.449219 105.554688 286.226562 154.59375 286.226562 C 202.863281 286.226562 224.753906 258.832031 224.753906 224.832031 C 224.753906 192.175781 207.625 172.171875 180.480469 170.640625"/><path fill="#4AB1E4" d="M 82.941406 123.726562 C 87.371094 117.058594 83.636719 107.894531 77.953125 102.269531 C 74.832031 99.183594 71.035156 98.191406 66.683594 97.246094 C 61.375 96.085938 56.113281 95.183594 50.792969 93.90625 C 45.738281 92.695312 40.804688 92.042969 35.722656 90.898438 C 33 90.277344 26.925781 87.5625 25.527344 90.234375 C 23.652344 93.8125 27.042969 100.75 28.742188 104.160156 C 30.9375 108.5625 34.21875 112.757812 37.726562 116.320312 C 40.578125 119.21875 43.710938 121.824219 46.574219 124.730469 C 49.75 127.941406 53.335938 130.96875 57.578125 132.875 C 64.675781 136.058594 71.984375 139.492188 77.53125 133.574219 C 80.820312 130.070312 82.609375 126.589844 83.460938 121.824219 L 82.941406 123.726562"/><path fill="#F25B43" d="M 67.546875 97.105469 C 72.925781 98.660156 78.4375 109.589844 78.296875 113.910156 C 77.734375 131.449219 66.644531 134.105469 62.765625 134.238281 C 59.644531 134.34375 52.960938 129.019531 49.964844 127.652344 C 61.003906 127.679688 66.671875 119.164062 66.578125 110.648438 C 66.484375 102.125 60.621094 93.601562 48.601562 93.640625 C 56.832031 98.539062 57.097656 104.855469 55.113281 112.554688 C 54.355469 115.507812 49.628906 119.699219 45.128906 119.9375 C 39.898438 120.214844 36.347656 114.75 33.871094 110.421875 C 38.875 111.472656 43.691406 110.679688 45.96875 106.070312 C 47.882812 102.195312 47.464844 96.949219 43.964844 93.730469 L 67.546875 97.105469" fill-rule="evenodd"/><path fill="#F8F8F8" d="M 76.199219 105.277344 L 38.089844 97.519531 C 38.089844 97.519531 57.464844 107.214844 76.199219 105.277344" fill-rule="evenodd"/><path fill="#E5CED1" d="M 54.296875 131.117188 C 56.542969 132.667969 58.996094 134.089844 61.480469 135.121094 C 61.425781 134.921875 61.371094 134.71875 61.316406 134.519531 C 60.070312 133.996094 58.820312 133.433594 57.578125 132.875 C 56.4375 132.363281 55.347656 131.769531 54.296875 131.117188 M 24.941406 91.136719 C 24.957031 91.445312 24.980469 91.75 25.015625 92.054688 C 25.042969 91.789062 25.085938 91.527344 25.144531 91.28125 C 25.078125 91.230469 25.011719 91.183594 24.941406 91.136719"/><path fill="#3C8EBD" d="M 61.316406 134.519531 C 61.371094 134.71875 61.425781 134.921875 61.480469 135.121094 C 63.992188 136.167969 66.535156 136.824219 68.933594 136.824219 C 69.222656 136.824219 69.511719 136.8125 69.796875 136.792969 C 67.078125 136.703125 64.207031 135.730469 61.316406 134.519531 M 84.359375 120.730469 C 84.074219 121.664062 83.667969 122.574219 83.125 123.441406 C 82.496094 126.058594 81.527344 128.289062 80.101562 130.390625 C 82.777344 127.328125 84.917969 123.625 84.375 120.761719 L 84.359375 120.730469"/><path fill="#3C8EBD" d="M 55.109375 112.574219 C 54.332031 115.527344 49.617188 119.699219 45.128906 119.9375 C 45 119.941406 44.871094 119.945312 44.75 119.945312 C 43.878906 119.945312 43.058594 119.789062 42.285156 119.503906 C 43.734375 121.355469 45.238281 123.160156 46.847656 124.832031 C 48.710938 126.773438 51.324219 129.0625 54.296875 131.117188 C 55.347656 131.769531 56.4375 132.363281 57.578125 132.875 C 58.820312 133.433594 60.070312 133.996094 61.316406 134.519531 C 64.207031 135.730469 67.078125 136.703125 69.796875 136.792969 C 71.40625 136.683594 72.941406 136.257812 74.339844 135.425781 C 76.011719 134.4375 78.191406 132.578125 80.101562 130.390625 C 81.527344 128.289062 82.496094 126.058594 83.125 123.441406 C 83.667969 122.574219 84.074219 121.664062 84.359375 120.730469 L 83.8125 119.449219 C 83.609375 120.03125 82.550781 120.253906 81.058594 120.253906 C 80.058594 120.253906 78.859375 120.15625 77.589844 119.992188 C 74.992188 132.09375 66.144531 134.121094 62.765625 134.238281 C 62.738281 134.238281 62.703125 134.238281 62.671875 134.238281 C 59.511719 134.238281 52.933594 129.003906 49.964844 127.652344 C 49.980469 127.652344 49.996094 127.652344 50.015625 127.652344 C 58.140625 127.652344 63.347656 123.019531 65.480469 117.167969 C 61.988281 115.851562 58.511719 114.242188 55.109375 112.574219 M 25.144531 91.28125 C 25.085938 91.527344 25.042969 91.789062 25.015625 92.054688 C 25.785156 98.800781 31.355469 105.179688 35.660156 110.71875 C 36.308594 110.792969 36.949219 110.835938 37.574219 110.835938 C 40.601562 110.835938 43.3125 109.886719 45.105469 107.488281 C 41.546875 105.5625 38.074219 103.472656 34.953125 101.074219 C 31.324219 98.285156 28.683594 93.800781 25.144531 91.28125"/><path fill="#E14937" d="M 65.480469 117.167969 C 63.347656 123.019531 58.140625 127.652344 50.015625 127.652344 C 49.996094 127.652344 49.980469 127.652344 49.964844 127.652344 C 52.933594 129.003906 59.511719 134.238281 62.671875 134.238281 C 62.703125 134.238281 62.738281 134.238281 62.765625 134.238281 C 66.144531 134.121094 74.992188 132.09375 77.589844 119.992188 C 73.5 119.464844 68.671875 118.300781 67.3125 117.832031 C 66.703125 117.621094 66.089844 117.398438 65.480469 117.167969 M 45.105469 107.488281 C 43.3125 109.886719 40.601562 110.835938 37.574219 110.835938 C 36.949219 110.835938 36.308594 110.792969 35.660156 110.71875 C 35.964844 111.109375 36.261719 111.496094 36.554688 111.882812 C 38.433594 114.367188 40.304688 116.980469 42.285156 119.503906 C 43.058594 119.789062 43.878906 119.945312 44.75 119.945312 C 44.871094 119.945312 45 119.941406 45.128906 119.9375 C 49.617188 119.699219 54.332031 115.527344 55.109375 112.574219 C 53.234375 111.65625 51.386719 110.722656 49.570312 109.808594 C 48.078125 109.058594 46.585938 108.289062 45.105469 107.488281"/><path fill="#327CA9" d="M 79.683594 131.011719 C 76.507812 133.902344 74.183594 135.78125 68.792969 134.992188 C 64.09375 134.304688 54.671875 129.527344 49.902344 125.796875 C 36.949219 115.683594 24.253906 94.027344 28.039062 91.90625 C 30.582031 91.195312 38.472656 94.691406 62.390625 98.210938 C 66.503906 98.820312 71.726562 99.125 74.117188 100.730469 C 80.1875 104.800781 84.382812 114.734375 82.859375 123.660156 C 87.90625 114.375 82.417969 104.230469 76.398438 99.875 C 71.089844 96.039062 57.621094 94.960938 49.601562 93.503906 C 39.476562 91.664062 26.925781 87.785156 24.449219 89.589844 C 18.179688 93.136719 41.953125 125.875 52.34375 131.304688 C 56.59375 133.527344 63.199219 137.730469 67.121094 137.738281 C 72.75 137.75 77.46875 135.722656 79.683594 131.011719" fill-rule="evenodd"/><path fill="#327CA9" d="M 79.75 98.167969 C 79.75 98.167969 87.292969 113.207031 79.835938 127.246094 C 72.96875 140.171875 64.570312 141.464844 64.570312 141.464844 C 64.570312 141.464844 78.265625 142.433594 84.269531 125.632812 C 89.859375 110.007812 79.75 98.167969 79.75 98.167969"/><path fill="#5CC5EB" d="M 177.003906 74.3125 C 175.28125 74.3125 174.019531 74.535156 173.585938 74.859375 C 172.195312 75.898438 181.414062 79.613281 186.320312 82.660156 C 190.859375 85.472656 194.121094 90.910156 195.691406 90.910156 C 195.820312 90.910156 195.9375 90.871094 196.042969 90.792969 C 197.433594 89.753906 195.769531 82.371094 191.355469 78.902344 C 186.910156 75.402344 180.820312 74.3125 177.003906 74.3125"/><path fill="#5CC5EB" d="M 167.417969 73.257812 C 165.941406 73.257812 164.371094 73.585938 163.4375 74.136719 C 162.164062 74.894531 162.574219 75.796875 164.367188 76.152344 C 164.859375 76.246094 165.402344 76.292969 165.957031 76.292969 C 167.433594 76.292969 168.996094 75.96875 169.925781 75.417969 C 171.207031 74.660156 170.789062 73.757812 168.996094 73.402344 C 168.507812 73.304688 167.96875 73.257812 167.417969 73.257812"/><path fill="#43A3D6" d="M 79.890625 201.613281 C 79.890625 201.613281 44.15625 179.101562 45.046875 232.148438 L 40.554688 234.78125 C 40.554688 234.78125 16.964844 178.691406 62.175781 163.683594 C 84.28125 156.34375 93.160156 169.199219 94.054688 182.058594 C 94.886719 194.082031 88.738281 206.109375 79.890625 201.613281"/><path fill="#3D97C4" d="M 75.222656 161.828125 C 62.0625 161.828125 32.726562 176.769531 37.214844 207.664062 C 37.214844 207.664062 40.269531 175.285156 72.183594 175.285156 C 77.726562 175.285156 84.132812 176.261719 91.550781 178.550781 C 91.550781 178.550781 90.796875 162.832031 76.265625 161.863281 C 75.933594 161.839844 75.582031 161.828125 75.222656 161.828125"/><path fill="#286388" d="M 54.238281 230.648438 C 54.683594 233.171875 56.621094 233.609375 58.230469 235.800781 C 62.546875 240.195312 68.226562 247.832031 64.441406 254.882812 C 58.691406 265.589844 49.484375 257.421875 54.835938 254.480469 C 59.402344 251.976562 65.542969 238.726562 51.523438 242.773438 C 41.96875 245.535156 58.546875 268.519531 44.785156 261.664062 C 31.023438 254.804688 40.886719 247.527344 43.917969 252.777344 C 46.949219 258.027344 44.871094 246.804688 40.351562 244.867188 C 37.765625 247.453125 35.554688 255.40625 31.308594 250.359375 C 26.140625 244.222656 30.386719 241.039062 33.890625 244.542969 C 36.796875 247.453125 35.183594 231.617188 42.609375 232.265625 C 42.199219 228.078125 45.023438 226.699219 48.101562 227.742188 C 54.835938 226.199219 48.425781 217.078125 58.113281 217.402344 C 66.34375 217.675781 66.1875 226.773438 61.019531 224.507812 C 55.269531 221.992188 52.621094 226.445312 54.238281 230.648438"/><path fill="#43A3D1" d="M 156.03125 90.742188 C 152.742188 90.742188 149.953125 91.566406 149.101562 92.460938 C 148.789062 92.792969 148.558594 93.195312 148.394531 93.652344 C 149.453125 95.183594 150.390625 96.820312 151.183594 98.480469 C 151.535156 97.628906 152.070312 96.847656 152.742188 96.144531 C 153.875 94.953125 157.574219 93.050781 161.535156 93.050781 C 162.996094 93.050781 164.492188 93.308594 165.910156 93.957031 C 163.078125 91.5625 159.308594 90.742188 156.03125 90.742188"/><path fill="#2D7199" d="M 152.742188 96.144531 C 150.59375 98.398438 149.832031 101.460938 152.035156 104.957031 C 154.722656 109.230469 162.363281 112.859375 168.367188 112.15625 C 174.453125 111.441406 173.992188 102.84375 169.769531 97.152344 C 164.371094 89.875 154.707031 94.082031 152.742188 96.144531"/><path fill="#EEDF07" d="M 153.441406 96.640625 C 151.542969 98.675781 150.882812 101.460938 152.867188 104.660156 C 155.292969 108.5625 162.128906 111.917969 167.484375 111.316406 C 172.90625 110.703125 172.441406 102.871094 168.640625 97.664062 C 163.777344 91.003906 155.183594 94.769531 153.441406 96.640625"/><path fill="#F8EA0A" d="M 154.691406 97.425781 C 153.214844 99.007812 152.699219 101.171875 154.242188 103.660156 C 156.128906 106.699219 161.449219 109.308594 165.613281 108.835938 C 169.828125 108.363281 169.46875 102.269531 166.511719 98.222656 C 162.730469 93.042969 156.046875 95.972656 154.691406 97.425781"/><path fill="#41A7CD" d="M 154.054688 104.167969 C 153.960938 106.152344 155.675781 108.351562 158.105469 108.273438 C 160.375 108.488281 162.5 107.011719 162.496094 104.851562 C 162.492188 102.691406 160.8125 100.339844 158.105469 100.199219 C 155.851562 99.835938 153.921875 101.933594 154.054688 104.167969"/><path fill="#61CCF5" d="M 154.550781 104.179688 C 154.601562 105.875 156.355469 107.3125 158.367188 107.316406 C 160.335938 107.320312 162.070312 105.890625 161.925781 104.054688 C 161.777344 102.210938 160.183594 100.625 157.953125 100.550781 C 155.945312 100.484375 154.496094 102.332031 154.550781 104.179688"/><path fill="#17293B" d="M 155.054688 104.105469 C 155.058594 105.492188 156.320312 106.617188 157.878906 106.613281 C 159.433594 106.609375 160.691406 105.484375 160.691406 104.09375 C 160.6875 102.710938 159.425781 101.585938 157.871094 101.589844 C 156.3125 101.59375 155.050781 102.722656 155.054688 104.105469"/><path fill="#FFF" d="M 155.324219 101.976562 C 155.546875 102.628906 156.308594 102.921875 157.023438 102.628906 C 157.742188 102.339844 158.144531 101.578125 157.921875 100.925781 C 157.699219 100.273438 156.9375 99.980469 156.222656 100.269531 C 155.503906 100.5625 155.101562 101.324219 155.324219 101.976562"/><path fill="#4AB1E4" d="M 149.484375 99.90625 C 149.484375 99.90625 154.636719 111.871094 172.621094 111.871094 C 172.621094 111.871094 165.808594 114.164062 157.304688 110.59375 C 150.269531 107.210938 149.484375 99.90625 149.484375 99.90625"/><path fill="#692455" d="M 100.300781 116.484375 C 109.992188 114.078125 115.910156 119.503906 123.625 124.925781 C 131.449219 130.429688 141.121094 135.929688 158.457031 133.257812 C 185.007812 129.167969 184.019531 107.757812 184.019531 107.757812 C 183.1875 90.640625 200.328125 102.792969 197.820312 130.3125 C 195.40625 156.824219 174.390625 166.226562 148.539062 168.550781 C 110.164062 171.996094 80.773438 121.339844 100.300781 116.484375"/><path fill="#3F89CB" d="M 89.25 132.6875 C 93.558594 152.289062 115.808594 179.78125 147.941406 179.78125 C 148.886719 179.78125 149.84375 179.757812 150.808594 179.710938 C 151.917969 178.863281 153.0625 178.066406 154.234375 177.316406 C 153.019531 177.449219 151.792969 177.550781 150.5625 177.617188 C 149.507812 177.675781 148.464844 177.707031 147.429688 177.707031 C 116.414062 177.707031 94.605469 152.09375 89.25 132.6875 M 200.023438 114.453125 C 200.902344 118.339844 201.4375 122.726562 201.472656 127.582031 C 201.617188 148.054688 191.371094 162.570312 176.597656 170.546875 C 176.757812 170.546875 176.914062 170.546875 177.078125 170.546875 C 178.226562 170.546875 179.363281 170.578125 180.480469 170.640625 C 193.417969 162.347656 202.121094 148.535156 201.988281 129.660156 C 201.945312 123.917969 201.207031 118.828125 200.023438 114.453125"/><path fill="#4991CE" d="M 177.078125 170.546875 C 176.914062 170.546875 176.757812 170.546875 176.597656 170.546875 C 169.890625 174.171875 162.253906 176.445312 154.234375 177.316406 C 153.0625 178.066406 151.917969 178.863281 150.808594 179.710938 C 150.898438 179.707031 150.988281 179.699219 151.078125 179.695312 C 161.828125 179.101562 172.054688 176.042969 180.480469 170.640625 C 179.363281 170.578125 178.226562 170.546875 177.078125 170.546875"/><path fill="#63225D" d="M 155.304688 133.664062 C 154.882812 133.710938 154.464844 133.746094 154.054688 133.78125 C 154.003906 134.558594 153.773438 135.296875 153.402344 135.9375 C 154.546875 135.871094 155.726562 135.765625 156.945312 135.617188 C 156.171875 135.085938 155.566406 134.421875 155.304688 133.664062 M 141.558594 133.1875 C 141.539062 133.847656 141.4375 134.488281 141.265625 135.097656 C 142.460938 135.355469 143.707031 135.566406 145.011719 135.722656 C 144.5625 135.058594 144.214844 134.324219 143.882812 133.566406 C 143.085938 133.460938 142.3125 133.332031 141.558594 133.1875 M 170.734375 129.355469 C 169.566406 129.984375 168.300781 130.5625 166.921875 131.089844 C 166.777344 131.976562 166.414062 132.875 165.921875 133.699219 C 168.269531 132.925781 170.324219 131.992188 172.117188 130.945312 C 171.617188 130.441406 171.152344 129.90625 170.734375 129.355469 M 104.886719 115.898438 C 103.449219 115.898438 101.925781 116.082031 100.300781 116.484375 C 96.019531 117.550781 94.089844 120.8125 94.089844 125.222656 C 94.085938 127.023438 94.40625 129.011719 95.019531 131.121094 C 93.730469 124.820312 95.375 119.914062 100.816406 118.5625 C 102.441406 118.160156 103.960938 117.972656 105.402344 117.972656 C 109.664062 117.972656 113.226562 119.582031 116.769531 121.835938 C 116.710938 121.269531 116.613281 120.617188 116.5625 119.957031 C 112.917969 117.601562 109.273438 115.898438 104.886719 115.898438 M 187.429688 99.859375 C 185.449219 99.859375 183.984375 101.992188 183.988281 106.601562 C 183.988281 106.699219 183.988281 106.800781 183.992188 106.898438 L 184.289062 107.007812 C 184.382812 107.078125 184.46875 107.15625 184.558594 107.242188 C 184.832031 103.625 186.183594 101.9375 187.945312 101.9375 C 190.816406 101.9375 194.785156 106.410156 196.972656 114.300781 C 194.949219 105.121094 190.546875 99.859375 187.429688 99.859375"/><g clip-path="url(#b)"><g clip-path="url(#c)"><g clip-path="url(#d)"><g clip-path="url(#e)"><path fill="url(#f)" d="M 189.425781 164.433594 L 157.625 113.789062 L 101.019531 152.617188 L 132.820312 203.265625 Z M 189.425781 164.433594"/></g></g></g></g><path fill="#FDF1A5" d="M 117.480469 116.640625 C 121.414062 120.011719 126 122.789062 130.539062 125.042969 C 137.121094 128.308594 144.550781 130.691406 152 130.191406 C 159.636719 129.679688 166.949219 126.90625 172.691406 121.761719 C 177.308594 117.625 180.492188 112.1875 182.503906 106.367188 L 184.289062 107.007812 C 186.777344 108.941406 187.089844 115.917969 187.28125 119.257812 C 187.476562 122.734375 187.28125 126.144531 185.535156 129.261719 C 183.859375 132.257812 181.347656 135.085938 177.613281 134.199219 C 174.308594 133.417969 171.617188 130.859375 169.910156 128.171875 C 168.867188 128.480469 167.746094 128.574219 166.707031 128.734375 C 167.886719 131.605469 165.171875 135.820312 162.527344 136.804688 C 160.160156 137.6875 154.496094 135.492188 155.230469 132.285156 C 154.988281 132.253906 154.164062 132.335938 153.953125 132.414062 C 154.699219 135.90625 151.582031 139.203125 148.089844 138.058594 C 144.429688 136.855469 144.140625 133.414062 142.507812 130.652344 C 142.1875 130.542969 141.484375 130.46875 141.191406 130.507812 C 143.355469 137.777344 135.585938 143.175781 129.175781 141.960938 C 120.984375 140.414062 117.183594 129.824219 116.816406 122.410156 C 116.738281 120.753906 115.917969 117.796875 117.480469 116.640625"/><path fill="#FDF1A5" d="M 171.59375 166.921875 C 171.4375 166.984375 170.296875 167.4375 170.5625 167.339844 C 170.390625 167.40625 170.21875 167.472656 170.046875 167.539062 C 169.332031 167.804688 168.617188 168.066406 167.894531 168.3125 C 166.261719 168.875 164.609375 169.402344 162.941406 169.863281 C 159.660156 170.765625 156.328125 171.503906 152.960938 172.019531 C 152.003906 172.167969 151.042969 172.304688 150.078125 172.425781 C 149.875 172.449219 148.605469 172.597656 148.484375 172.613281 C 146.976562 172.769531 145.46875 172.910156 143.957031 173.007812 C 140.707031 173.222656 137.445312 173.335938 134.183594 173.265625 C 132.117188 173.21875 130.050781 173.125 127.992188 172.953125 C 126.542969 172.171875 125.105469 171.390625 123.6875 170.617188 C 117.035156 167.007812 106.59375 160.609375 105.535156 152.046875 C 104.917969 147.0625 111.554688 144.753906 115.648438 144.34375 C 120.496094 143.859375 127.804688 145.15625 130.070312 150.109375 C 131.75 153.792969 132.585938 162.414062 130.039062 165.757812 C 136.273438 158.878906 147.707031 159.988281 149.957031 169.722656 C 150.753906 167.964844 151.515625 165.386719 153.460938 164.578125 C 157.117188 163.058594 157.5625 166.785156 158.707031 169.160156 C 159.222656 165.011719 161.296875 160.917969 165.019531 158.800781 C 169.539062 156.226562 176.171875 159.164062 178.699219 163.609375 C 176.375 164.800781 174.007812 165.917969 171.59375 166.921875"/><path fill="#FDF1A5" d="M 189.75 157.296875 C 186.210938 159.488281 182.609375 161.59375 178.90625 163.503906 C 177.921875 160.074219 176.984375 156.894531 176.78125 153.15625 C 176.585938 149.511719 175.882812 145.109375 178.652344 142.3125 C 180.773438 140.175781 184.65625 138.855469 187.679688 139.214844 C 190.015625 139.496094 198.535156 142.488281 197.53125 145.65625 L 189.890625 157.21875 C 189.84375 157.242188 189.796875 157.265625 189.75 157.296875"/><path fill="#F25B43" d="M 150.5625 177.617188 C 177.820312 176.117188 201.695312 158.757812 201.472656 127.582031 C 201.25 96.09375 179.980469 84.144531 179.949219 103.296875 C 179.949219 103.296875 180.132812 125.136719 156.210938 128.804688 C 143.441406 130.761719 134.136719 125.257812 125.5625 119.753906 C 115.585938 113.355469 106.585938 106.957031 94.246094 112.292969 C 74.863281 120.671875 102.242188 180.285156 150.5625 177.617188 M 100.300781 116.484375 C 109.992188 114.078125 115.910156 119.503906 123.625 124.925781 C 131.449219 130.429688 141.121094 135.929688 158.457031 133.257812 C 185.007812 129.167969 184.019531 107.757812 184.019531 107.757812 C 183.1875 90.640625 200.328125 102.792969 197.820312 130.3125 C 195.40625 156.824219 174.390625 166.226562 148.539062 168.550781 C 110.164062 171.996094 80.773438 121.339844 100.300781 116.484375"/><path fill="#FFF" d="M 154.742188 171.613281 C 154.917969 172.332031 159.191406 171.886719 164.277344 170.621094 C 169.367188 169.359375 173.347656 167.75 173.167969 167.035156 C 172.992188 166.316406 168.722656 166.761719 163.632812 168.027344 C 158.546875 169.289062 154.5625 170.894531 154.742188 171.613281"/><path fill="#2D7199" d="M 130.804688 72.757812 C 130.804688 72.757812 122.695312 65.328125 112.636719 76.171875 C 112.636719 76.171875 107.765625 82.671875 114.011719 78.175781 C 114.011719 78.175781 106.921875 83.539062 109.246094 86.113281 C 111.566406 88.6875 112.636719 84.226562 112.636719 84.226562 C 112.636719 84.226562 107.304688 94.175781 111.433594 98.035156 C 115.5625 101.890625 114.289062 95.429688 114.289062 95.429688 C 114.289062 95.429688 115.035156 104.699219 119.308594 105.320312 C 124.050781 106.011719 122.203125 95.671875 126.859375 88.453125 C 128.476562 85.945312 138.960938 79.039062 130.804688 72.757812"/><path fill="#2D7199" d="M 139.140625 68.203125 C 137.191406 70.957031 135.132812 74.78125 141.425781 76.707031 C 147.71875 78.628906 151.894531 76.4375 160.792969 81.167969 C 160.792969 81.167969 165.054688 82.414062 159.65625 76.917969 C 159.65625 76.917969 165.773438 83.945312 167.730469 83.675781 C 169.691406 83.414062 167.039062 77.644531 163.152344 74.914062 C 163.152344 74.914062 168.773438 79.515625 166.5 74.746094 C 164.230469 69.980469 161.734375 67.347656 158.757812 66.027344 C 158.757812 66.027344 163.941406 64.171875 154.34375 62.890625 C 147.9375 62.035156 140.761719 65.917969 139.140625 68.203125"/><path fill="#43A3D1" d="M 134.847656 84.539062 C 132.933594 84.539062 130.902344 85.011719 129.0625 86.070312 C 128.082031 87.058594 127.234375 87.875 126.859375 88.453125 C 124.214844 92.554688 123.667969 97.660156 122.820312 101.179688 C 122.90625 102.410156 123.070312 103.714844 123.328125 105.101562 C 125.222656 115.378906 130.648438 123.089844 139.5625 124.503906 C 140.230469 124.609375 140.871094 124.65625 141.492188 124.65625 C 149.203125 124.65625 153.539062 116.898438 153.980469 110.261719 C 154.019531 109.65625 154.019531 109.019531 153.976562 108.359375 C 151.96875 106.527344 150.839844 104.386719 150.21875 102.71875 C 148.625 99.886719 147.554688 96.027344 148.394531 93.652344 C 145.753906 89.832031 142.359375 86.640625 138.605469 85.203125 C 137.480469 84.773438 136.191406 84.539062 134.847656 84.539062"/><path fill="#3C97BF" d="M 148.394531 93.652344 C 147.554688 96.027344 148.625 99.886719 150.21875 102.71875 C 149.609375 101.085938 149.484375 99.90625 149.484375 99.90625 C 149.484375 99.90625 149.886719 100.839844 150.859375 102.1875 C 150.574219 100.851562 150.714844 99.605469 151.183594 98.480469 C 150.390625 96.820312 149.453125 95.183594 148.394531 93.652344"/><path fill="#296A8A" d="M 151.183594 98.480469 C 150.714844 99.605469 150.574219 100.851562 150.859375 102.1875 C 151.332031 102.84375 151.941406 103.59375 152.703125 104.386719 C 151.738281 102.714844 151.492188 101.160156 151.765625 99.773438 C 151.582031 99.339844 151.386719 98.910156 151.183594 98.480469"/><path fill="#D7CE10" d="M 151.765625 99.773438 C 151.492188 101.160156 151.738281 102.714844 152.703125 104.386719 C 152.960938 104.648438 153.230469 104.921875 153.523438 105.191406 C 153.140625 103.433594 152.546875 101.597656 151.765625 99.773438"/><path fill="#43A3D1" d="M 149.484375 99.90625 C 149.484375 99.90625 149.609375 101.085938 150.21875 102.71875 C 150.839844 104.386719 151.96875 106.527344 153.976562 108.359375 C 153.914062 107.351562 153.761719 106.285156 153.523438 105.191406 C 153.230469 104.921875 152.960938 104.648438 152.703125 104.386719 C 151.941406 103.59375 151.332031 102.84375 150.859375 102.1875 C 149.886719 100.839844 149.484375 99.90625 149.484375 99.90625"/><path fill="#296A8A" d="M 129.0625 86.070312 C 125.242188 88.265625 122.242188 92.980469 122.820312 101.179688 C 123.667969 97.660156 124.214844 92.554688 126.859375 88.453125 C 127.234375 87.875 128.082031 87.058594 129.0625 86.070312"/><path fill="#2D7199" d="M 126.335938 108.460938 C 127.066406 117.195312 131.28125 123.339844 139.300781 123.652344 C 147.316406 123.964844 152.738281 116.082031 153.871094 109.800781 C 155.15625 102.679688 150.125 91.671875 142.242188 89.605469 C 136.496094 88.097656 125.03125 92.949219 126.335938 108.460938"/><path fill="#EEDF07" d="M 127.253906 107.347656 C 127.980469 115.605469 131.933594 121.429688 139.40625 121.761719 C 146.878906 122.089844 151.894531 114.667969 152.921875 108.738281 C 154.085938 102.015625 149.347656 91.589844 141.996094 89.601562 C 136.632812 88.152344 125.972656 92.6875 127.253906 107.347656"/><path fill="#F8EA0A" d="M 130.171875 106.554688 C 130.722656 113.214844 133.945312 117.890625 140.089844 118.121094 C 146.234375 118.347656 150.402344 112.328125 151.277344 107.539062 C 152.273438 102.109375 148.429688 93.722656 142.390625 92.15625 C 137.988281 91.015625 129.191406 94.730469 130.171875 106.554688"/><path fill="#41A7CD" d="M 137.230469 110.667969 C 137.488281 113.167969 140.050781 115.597656 143.085938 115.039062 C 145.972656 114.878906 148.351562 112.621094 147.9375 109.917969 C 147.519531 107.210938 144.96875 104.585938 141.554688 104.921875 C 138.65625 104.894531 136.636719 107.886719 137.230469 110.667969"/><path fill="#61CCF5" d="M 137.851562 110.582031 C 138.238281 112.699219 140.710938 114.167969 143.226562 113.792969 C 145.699219 113.421875 147.601562 111.300781 147.070312 109.023438 C 146.539062 106.746094 144.238281 105.058594 141.429688 105.390625 C 138.898438 105.6875 137.433594 108.28125 137.851562 110.582031"/><path fill="#FFF" d="M 138.402344 107.679688 C 138.808594 108.453125 139.816406 108.671875 140.660156 108.171875 C 141.5 107.675781 141.859375 106.640625 141.457031 105.867188 C 141.054688 105.09375 140.046875 104.871094 139.203125 105.367188 C 138.359375 105.871094 138.003906 106.902344 138.402344 107.679688"/><path fill="#17293B" d="M 139.34375 110.21875 C 139.59375 111.859375 141.25 112.96875 143.042969 112.691406 C 144.835938 112.417969 146.085938 110.863281 145.832031 109.222656 C 145.582031 107.582031 143.925781 106.472656 142.132812 106.75 C 140.339844 107.023438 139.089844 108.578125 139.34375 110.21875"/><g clip-path="url(#g)"><path fill="#EE2150" d="M 303.40625 108.433594 C 303.40625 108.433594 298.503906 138.371094 315.097656 150.65625 C 315.097656 150.65625 329.050781 156.796875 346.394531 150.65625 C 346.394531 150.65625 359.972656 139.140625 357.707031 109.96875 L 303.40625 108.433594"/></g><path fill="#EF326A" d="M 357.636719 109.394531 C 357.636719 113.527344 345.53125 116.878906 330.59375 116.878906 C 315.65625 116.878906 303.546875 113.527344 303.546875 109.394531 C 303.546875 105.257812 315.65625 101.910156 330.59375 101.910156 C 345.53125 101.910156 357.636719 105.257812 357.636719 109.394531"/><path fill="#FBD82D" d="M 351.832031 111.378906 C 353.015625 110.730469 353.675781 110.015625 353.675781 109.265625 C 353.675781 106.261719 343.167969 103.828125 330.210938 103.828125 C 317.25 103.828125 306.746094 106.261719 306.746094 109.265625 C 306.746094 110.164062 307.691406 111.007812 309.355469 111.757812 C 312.914062 109.804688 321.253906 108.433594 330.976562 108.433594 C 340.0625 108.433594 347.933594 109.632812 351.832031 111.378906"/><path fill="#492515" d="M 351.832031 111.378906 C 347.933594 109.632812 340.0625 108.433594 330.976562 108.433594 C 321.253906 108.433594 312.914062 109.804688 309.355469 111.757812 C 313.25 113.507812 321.125 114.703125 330.210938 114.703125 C 339.929688 114.703125 348.273438 113.332031 351.832031 111.378906"/><path fill="#751323" d="M 332 121.101562 C 329.316406 120.699219 322.199219 123.003906 321.449219 134.726562 C 320.875 143.746094 326.628906 146.625 330.847656 146.625 C 335.066406 146.625 340.441406 143.9375 339.863281 134.34375 C 339.507812 128.40625 335.835938 121.675781 332 121.101562"/><path fill="#EE2150" d="M 330.914062 123.785156 C 330.914062 123.785156 333.855469 128.136719 332.0625 132.359375 C 330.425781 136.21875 326.820312 139.015625 330.527344 144.003906 C 330.527344 144.003906 330.441406 139.34375 332.832031 135.558594 C 335.898438 130.695312 335.515625 127.882812 330.914062 123.785156"/><path fill="#C01A36" d="M 303.421875 125.578125 C 303.421875 125.578125 302.652344 117.390625 292.421875 117.644531 C 282.191406 117.902344 278.609375 125.449219 280.914062 133.253906 C 283.214844 141.058594 290.503906 146.304688 299.839844 143.617188 C 309.171875 140.933594 305.464844 133.382812 303.929688 133.382812 C 302.398438 133.382812 300.121094 132.894531 299.710938 136.328125 C 299.070312 141.699219 287.515625 139.136719 286.921875 131.082031 C 286.285156 122.378906 296.640625 122.125 298.050781 128.007812 C 299.453125 133.894531 304.699219 130.3125 303.421875 125.578125"/><path fill="#FABBE0" d="M 324.507812 91.863281 C 324.507812 91.863281 313.546875 83.917969 322.203125 76.308594 C 327.433594 71.714844 332.140625 64.0625 321.242188 54.308594 C 306.851562 41.429688 324.730469 34.179688 324.730469 34.179688 C 324.730469 34.179688 305.886719 40.207031 315.40625 51.816406 C 321.367188 59.089844 329.3125 66.046875 320.300781 74.144531 C 307.84375 85.335938 324.507812 91.863281 324.507812 91.863281"/><path fill="#FABBE0" d="M 335.472656 97.335938 C 335.472656 97.335938 324.207031 88.214844 332.644531 78.6875 C 337.738281 72.929688 342.117188 63.882812 331.214844 50.414062 C 331.214844 54.210938 341.496094 64.230469 330.660156 76.152344 C 318.230469 89.832031 335.472656 97.335938 335.472656 97.335938"/><g clip-path="url(#h)"><path fill="#FABBE0" d="M 341.941406 79.960938 C 341.941406 79.960938 352.160156 70.839844 344.511719 61.3125 C 339.886719 55.554688 335.914062 46.507812 345.804688 33.039062 C 345.804688 36.839844 336.480469 46.855469 346.308594 58.777344 C 357.585938 72.460938 341.941406 79.960938 341.941406 79.960938"/></g><path fill="#286388" d="M 292.390625 133.640625 C 293.289062 132.796875 294.644531 133.171875 295.054688 131.992188 C 295.980469 129.355469 292.382812 128.796875 291.449219 126.976562 C 293.796875 125.414062 296.617188 124.429688 298.113281 120.253906 C 298.039062 117.046875 294.597656 115.058594 291.953125 114.054688 C 288.550781 112.761719 280.574219 114.464844 281.429688 118.808594 C 282.503906 124.238281 291.253906 120.566406 292.921875 121.714844 C 291.976562 124.003906 289.699219 125.648438 288.257812 126.4375 C 285.539062 126.863281 282.84375 127.226562 280.816406 128.441406 C 279.277344 129.511719 279.039062 130.371094 278.308594 132.765625 C 279.394531 137.445312 284.953125 134.871094 289.132812 134.78125 C 286.816406 136.449219 284.875 137.054688 283.472656 140.730469 C 287.101562 146.121094 294.015625 144.46875 296.820312 140.328125 C 296.421875 134.621094 291.886719 136.296875 292.390625 133.640625" fill-rule="evenodd"/><path fill="#286388" d="M 280.53125 128.171875 C 280.46875 127.054688 280.597656 125.96875 280.953125 124.933594 C 279.265625 123.839844 277.597656 122.433594 275.984375 122.335938 C 270.488281 122.003906 267.511719 132.359375 273.75 135.746094 C 276.257812 135.496094 278.390625 130.609375 277.101562 128.167969 C 278.210938 127.984375 279.347656 127.949219 280.53125 128.171875" fill-rule="evenodd"/></svg>