<svg xmlns="http://www.w3.org/2000/svg" xmlns:xlink="http://www.w3.org/1999/xlink" width="125" viewBox="-15 -15 400 400" height="125" version="1.0"><defs><clipPath id="a"><path d="M 122 335.859375 L 266 335.859375 L 266 351.453125 L 122 351.453125 Z M 122 335.859375"/></clipPath><clipPath id="b"><path d="M 332.546875 148.089844 L 354.394531 148.089844 L 354.394531 188.414062 L 332.546875 188.414062 Z M 332.546875 148.089844"/></clipPath><clipPath id="c"><path d="M 125.457031 203.539062 L 143.738281 203.539062 L 143.738281 210.785156 L 125.457031 210.785156 Z M 125.457031 203.539062"/></clipPath><clipPath id="d"><path d="M 134.429688 203.652344 C 127.308594 203.839844 124.808594 214.652344 125.980469 217.277344 C 130.15625 216.652344 136.371094 216.328125 143.707031 216.175781 C 143.601562 207.917969 139.925781 203.511719 134.429688 203.652344"/></clipPath><clipPath id="e"><path d="M 134.429688 203.652344 C 127.308594 203.839844 124.808594 214.652344 125.980469 217.277344 C 130.15625 216.652344 136.371094 216.328125 143.707031 216.175781 C 143.601562 207.917969 139.925781 203.511719 134.429688 203.652344"/></clipPath><clipPath id="f"><path d="M 125.457031 203.539062 L 143.738281 203.539062 L 143.738281 217.398438 L 125.457031 217.398438 Z M 125.457031 203.539062"/></clipPath><clipPath id="g"><path d="M 134.429688 203.652344 C 127.308594 203.839844 124.808594 214.652344 125.980469 217.277344 C 130.15625 216.652344 136.371094 216.328125 143.707031 216.175781 C 143.601562 207.917969 139.925781 203.511719 134.429688 203.652344"/></clipPath><clipPath id="h"><path d="M 134.429688 203.652344 C 127.308594 203.839844 124.808594 214.652344 125.980469 217.277344 C 130.15625 216.652344 136.371094 216.328125 143.707031 216.175781 C 143.601562 207.917969 139.925781 203.511719 134.429688 203.652344"/></clipPath><clipPath id="i"><path d="M 124.808594 203.460938 L 143.742188 203.511719 L 143.707031 217.328125 L 124.773438 217.277344 Z M 124.808594 203.460938"/></clipPath><clipPath id="k"><path d="M 226.324219 204.484375 L 245.550781 204.484375 L 245.550781 211.730469 L 226.324219 211.730469 Z M 226.324219 204.484375"/></clipPath><clipPath id="l"><path d="M 235.921875 204.648438 C 230.808594 203.953125 226.441406 211.359375 226.601562 216.164062 C 233.6875 216.515625 239.859375 217.128906 245.273438 217.847656 C 244.078125 207.910156 241.742188 205.441406 235.921875 204.648438"/></clipPath><clipPath id="m"><path d="M 235.921875 204.648438 C 230.808594 203.953125 226.441406 211.359375 226.601562 216.164062 C 233.6875 216.515625 239.859375 217.128906 245.273438 217.847656 C 244.078125 207.910156 241.742188 205.441406 235.921875 204.648438"/></clipPath><clipPath id="n"><path d="M 226.324219 204.484375 L 245.550781 204.484375 L 245.550781 218 L 226.324219 218 Z M 226.324219 204.484375"/></clipPath><clipPath id="o"><path d="M 235.921875 204.648438 C 230.808594 203.953125 226.441406 211.359375 226.601562 216.164062 C 233.6875 216.515625 239.859375 217.128906 245.273438 217.847656 C 244.078125 207.910156 241.742188 205.441406 235.921875 204.648438"/></clipPath><clipPath id="p"><path d="M 235.921875 204.648438 C 230.808594 203.953125 226.441406 211.359375 226.601562 216.164062 C 233.6875 216.515625 239.859375 217.128906 245.273438 217.847656 C 244.078125 207.910156 241.742188 205.441406 235.921875 204.648438"/></clipPath><clipPath id="q"><path d="M 225.964844 203.96875 L 245.25 203.304688 L 245.75 217.832031 L 226.464844 218.496094 Z M 225.964844 203.96875"/></clipPath><linearGradient x1=".136" gradientTransform="matrix(-.04634 17.78536 90.08008 .23449 89.255 200.97)" xmlns:xlink="http://www.w3.org/1999/xlink" y1="0" x2=".912" gradientUnits="userSpaceOnUse" y2="0" xlink:type="simple" xlink:actuate="onLoad" id="j" xlink:show="other"><stop stop-color="#FDFCE9" offset="0"/><stop stop-color="#FDFCE9" offset=".5"/><stop stop-color="#FDFCE9" offset=".508"/><stop stop-color="#FDFCE9" offset=".512"/><stop stop-color="#FDFCE8" offset=".516"/><stop stop-color="#FCFCE7" offset=".52"/><stop stop-color="#FCFCE6" offset=".523"/><stop stop-color="#FCFBE5" offset=".527"/><stop stop-color="#FCFBE5" offset=".531"/><stop stop-color="#FCFBE4" offset=".535"/><stop stop-color="#FCFBE3" offset=".539"/><stop stop-color="#FBFAE2" offset=".543"/><stop stop-color="#FBFAE1" offset=".547"/><stop stop-color="#FBF9E0" offset=".551"/><stop stop-color="#FBF9E0" offset=".555"/><stop stop-color="#FBF8DF" offset=".559"/><stop stop-color="#FBF8DF" offset=".563"/><stop stop-color="#FBF8DE" offset=".566"/><stop stop-color="#FBF7DD" offset=".57"/><stop stop-color="#FBF7DC" offset=".574"/><stop stop-color="#FBF7DC" offset=".578"/><stop stop-color="#FBF7DB" offset=".582"/><stop stop-color="#FBF7DB" offset=".586"/><stop stop-color="#FBF7D9" offset=".59"/><stop stop-color="#FAF6D8" offset=".594"/><stop stop-color="#FAF6D7" offset=".598"/><stop stop-color="#FAF5D6" offset=".602"/><stop stop-color="#F9F5D6" offset=".609"/><stop stop-color="#F9F4D4" offset=".613"/><stop stop-color="#F9F4D3" offset=".617"/><stop stop-color="#F8F3D3" offset=".621"/><stop stop-color="#F8F2D2" offset=".625"/><stop stop-color="#F8F2D1" offset=".629"/><stop stop-color="#F8F2D0" offset=".633"/><stop stop-color="#F8F2D0" offset=".641"/><stop stop-color="#F8F0CE" offset=".645"/><stop stop-color="#F7EFCD" offset=".648"/><stop stop-color="#F7EFCC" offset=".652"/><stop stop-color="#F7EFCB" offset=".656"/><stop stop-color="#F7EECA" offset=".66"/><stop stop-color="#F6EEC9" offset=".664"/><stop stop-color="#F6EDC8" offset=".668"/><stop stop-color="#F6ECC7" offset=".672"/><stop stop-color="#F6ECC7" offset=".68"/><stop stop-color="#F6EBC6" offset=".684"/><stop stop-color="#F6EBC5" offset=".688"/><stop stop-color="#F6EBC4" offset=".691"/><stop stop-color="#F5EAC2" offset=".695"/><stop stop-color="#F5EAC2" offset=".699"/><stop stop-color="#F5E9C2" offset=".703"/><stop stop-color="#F4E9C1" offset=".707"/><stop stop-color="#F4E8C0" offset=".711"/><stop stop-color="#F4E8BF" offset=".719"/><stop stop-color="#F4E7BE" offset=".723"/><stop stop-color="#F3E6BD" offset=".727"/><stop stop-color="#F3E5BC" offset=".73"/><stop stop-color="#F3E5BB" offset=".734"/><stop stop-color="#F3E5BB" offset=".742"/><stop stop-color="#F3E4B9" offset=".746"/><stop stop-color="#F3E3B9" offset=".75"/><stop stop-color="#F2E2B8" offset=".754"/><stop stop-color="#F2E2B7" offset=".758"/><stop stop-color="#F2E2B6" offset=".762"/><stop stop-color="#F2E2B5" offset=".766"/><stop stop-color="#F2E1B5" offset=".77"/><stop stop-color="#F2E0B4" offset=".773"/><stop stop-color="#F1E0B3" offset=".777"/><stop stop-color="#F1E0B2" offset=".781"/><stop stop-color="#F0DFB1" offset=".785"/><stop stop-color="#F0DFB1" offset=".789"/><stop stop-color="#F0DFB0" offset=".793"/><stop stop-color="#F0DFB0" offset=".797"/><stop stop-color="#F0DEAF" offset=".801"/><stop stop-color="#EFDDAE" offset=".805"/><stop stop-color="#EFDDAD" offset=".809"/><stop stop-color="#EFDCAC" offset=".813"/><stop stop-color="#EFDCAC" offset=".816"/><stop stop-color="#EFDBAB" offset=".82"/><stop stop-color="#EEDBAB" offset=".824"/><stop stop-color="#EEDBAA" offset=".828"/><stop stop-color="#EEDAA9" offset=".832"/><stop stop-color="#EED9A7" offset=".836"/><stop stop-color="#EED9A7" offset=".844"/><stop stop-color="#EDD8A6" offset=".848"/><stop stop-color="#EDD8A5" offset=".852"/><stop stop-color="#EDD7A4" offset=".855"/><stop stop-color="#EDD7A4" offset=".859"/><stop stop-color="#ECD6A3" offset=".863"/><stop stop-color="#ECD6A3" offset=".867"/><stop stop-color="#ECD6A2" offset=".871"/><stop stop-color="#ECD6A1" offset=".875"/><stop stop-color="#ECD5A0" offset=".879"/><stop stop-color="#ECD4A0" offset=".883"/><stop stop-color="#EBD39F" offset=".887"/><stop stop-color="#EBD39E" offset=".891"/><stop stop-color="#EBD39D" offset=".895"/><stop stop-color="#EBD39D" offset=".898"/><stop stop-color="#EBD29C" offset=".902"/><stop stop-color="#EBD19B" offset=".906"/><stop stop-color="#EBD19B" offset=".91"/><stop stop-color="#EBD19A" offset=".914"/><stop stop-color="#EAD099" offset=".918"/><stop stop-color="#EAD098" offset=".922"/><stop stop-color="#EAD097" offset=".926"/><stop stop-color="#EACF97" offset=".93"/><stop stop-color="#EACF96" offset=".934"/><stop stop-color="#EACE95" offset=".938"/><stop stop-color="#EACE94" offset=".941"/><stop stop-color="#E9CD93" offset=".945"/><stop stop-color="#EACD93" offset=".949"/><stop stop-color="#EACD92" offset=".953"/><stop stop-color="#EACD92" offset=".957"/><stop stop-color="#E9CC91" offset=".961"/><stop stop-color="#E9CC90" offset=".965"/><stop stop-color="#E9CB8F" offset=".969"/><stop stop-color="#E9CB8F" offset=".973"/><stop stop-color="#E9CA8E" offset=".977"/><stop stop-color="#E9CA8D" offset=".98"/><stop stop-color="#E8C98C" offset=".984"/><stop stop-color="#E8C98C" offset=".988"/><stop stop-color="#E8C98B" offset=".992"/><stop stop-color="#E8C88A" offset=".996"/><stop stop-color="#E7C889" offset="1"/></linearGradient><linearGradient x1=".109" gradientTransform="matrix(.58497 16.9866 86.56994 -2.97835 192.147 203.81)" xmlns:xlink="http://www.w3.org/1999/xlink" y1="0" x2=".933" gradientUnits="userSpaceOnUse" y2="0" xlink:type="simple" xlink:actuate="onLoad" id="r" xlink:show="other"><stop stop-color="#FDFCE9" offset="0"/><stop stop-color="#FDFCE9" offset=".5"/><stop stop-color="#FDFCE9" offset=".516"/><stop stop-color="#FDFCE8" offset=".52"/><stop stop-color="#FCFBE7" offset=".523"/><stop stop-color="#FCFBE6" offset=".527"/><stop stop-color="#FCFBE5" offset=".531"/><stop stop-color="#FCFBE4" offset=".535"/><stop stop-color="#FCFBE3" offset=".539"/><stop stop-color="#FCFAE2" offset=".543"/><stop stop-color="#FBF9E1" offset=".547"/><stop stop-color="#FBF9E1" offset=".551"/><stop stop-color="#FBF9E0" offset=".555"/><stop stop-color="#FBF9DF" offset=".559"/><stop stop-color="#FBF8DF" offset=".563"/><stop stop-color="#FBF8DE" offset=".566"/><stop stop-color="#FBF7DD" offset=".57"/><stop stop-color="#FBF7DC" offset=".574"/><stop stop-color="#FBF7DB" offset=".578"/><stop stop-color="#FBF7DB" offset=".582"/><stop stop-color="#FBF7DA" offset=".586"/><stop stop-color="#FAF6D9" offset=".59"/><stop stop-color="#FAF5D8" offset=".594"/><stop stop-color="#FAF5D7" offset=".598"/><stop stop-color="#FAF5D5" offset=".602"/><stop stop-color="#F9F5D5" offset=".605"/><stop stop-color="#F9F4D5" offset=".609"/><stop stop-color="#F8F4D4" offset=".613"/><stop stop-color="#F8F4D3" offset=".617"/><stop stop-color="#F8F3D2" offset=".621"/><stop stop-color="#F8F1D1" offset=".625"/><stop stop-color="#F8F1D1" offset=".629"/><stop stop-color="#F8F2D0" offset=".633"/><stop stop-color="#F8F1CE" offset=".637"/><stop stop-color="#F7F0CD" offset=".641"/><stop stop-color="#F7EFCD" offset=".645"/><stop stop-color="#F7EFCC" offset=".648"/><stop stop-color="#F7EECB" offset=".652"/><stop stop-color="#F7EECA" offset=".656"/><stop stop-color="#F7EDC9" offset=".66"/><stop stop-color="#F6EDC8" offset=".664"/><stop stop-color="#F6ECC7" offset=".668"/><stop stop-color="#F6ECC7" offset=".672"/><stop stop-color="#F6EBC6" offset=".676"/><stop stop-color="#F6EBC5" offset=".68"/><stop stop-color="#F5EBC4" offset=".684"/><stop stop-color="#F5EAC3" offset=".688"/><stop stop-color="#F5EAC2" offset=".691"/><stop stop-color="#F5E9C1" offset=".695"/><stop stop-color="#F5E9C0" offset=".699"/><stop stop-color="#F4E8BF" offset=".703"/><stop stop-color="#F4E8BF" offset=".711"/><stop stop-color="#F4E7BD" offset=".715"/><stop stop-color="#F3E6BC" offset=".719"/><stop stop-color="#F3E5BC" offset=".723"/><stop stop-color="#F3E5BB" offset=".727"/><stop stop-color="#F3E4BA" offset=".73"/><stop stop-color="#F3E4B9" offset=".734"/><stop stop-color="#F3E3B9" offset=".738"/><stop stop-color="#F2E3B8" offset=".742"/><stop stop-color="#F2E2B7" offset=".746"/><stop stop-color="#F2E2B6" offset=".75"/><stop stop-color="#F2E1B5" offset=".754"/><stop stop-color="#F2E0B4" offset=".758"/><stop stop-color="#F2E0B4" offset=".766"/><stop stop-color="#F1E0B2" offset=".77"/><stop stop-color="#F0DFB1" offset=".773"/><stop stop-color="#F0DFB0" offset=".777"/><stop stop-color="#F0DFB0" offset=".781"/><stop stop-color="#F0DEAF" offset=".785"/><stop stop-color="#F0DEAF" offset=".789"/><stop stop-color="#EFDDAD" offset=".793"/><stop stop-color="#EFDDAC" offset=".797"/><stop stop-color="#EFDCAB" offset=".801"/><stop stop-color="#EFDBAB" offset=".805"/><stop stop-color="#EEDBAA" offset=".809"/><stop stop-color="#EEDBAA" offset=".813"/><stop stop-color="#EEDAA9" offset=".816"/><stop stop-color="#EED9A8" offset=".82"/><stop stop-color="#EED9A7" offset=".824"/><stop stop-color="#EED9A6" offset=".828"/><stop stop-color="#EDD8A5" offset=".832"/><stop stop-color="#EDD7A5" offset=".836"/><stop stop-color="#EDD7A4" offset=".84"/><stop stop-color="#EDD6A3" offset=".844"/><stop stop-color="#ECD6A2" offset=".848"/><stop stop-color="#ECD6A1" offset=".852"/><stop stop-color="#ECD5A1" offset=".855"/><stop stop-color="#ECD5A0" offset=".859"/><stop stop-color="#ECD4A0" offset=".863"/><stop stop-color="#ECD49F" offset=".867"/><stop stop-color="#EBD39E" offset=".871"/><stop stop-color="#EBD39D" offset=".875"/><stop stop-color="#EBD29D" offset=".883"/><stop stop-color="#EBD29B" offset=".887"/><stop stop-color="#EBD19A" offset=".891"/><stop stop-color="#EBD199" offset=".895"/><stop stop-color="#EAD098" offset=".898"/><stop stop-color="#EAD097" offset=".902"/><stop stop-color="#EAD097" offset=".906"/><stop stop-color="#EACF96" offset=".91"/><stop stop-color="#EACE95" offset=".914"/><stop stop-color="#EACE94" offset=".918"/><stop stop-color="#E9CE94" offset=".922"/><stop stop-color="#EACD93" offset=".926"/><stop stop-color="#EACD93" offset=".93"/><stop stop-color="#EACD92" offset=".934"/><stop stop-color="#E9CC92" offset=".938"/><stop stop-color="#E9CB90" offset=".941"/><stop stop-color="#E9CB8F" offset=".945"/><stop stop-color="#E9CB8E" offset=".949"/><stop stop-color="#E8CA8D" offset=".953"/><stop stop-color="#E8CA8D" offset=".957"/><stop stop-color="#E8C98C" offset=".961"/><stop stop-color="#E8C98C" offset=".965"/><stop stop-color="#E8C88B" offset=".969"/><stop stop-color="#E7C88A" offset=".973"/><stop stop-color="#E6C889" offset=".977"/><stop stop-color="#E6C788" offset=".98"/><stop stop-color="#E6C687" offset=".984"/><stop stop-color="#E6C587" offset=".988"/><stop stop-color="#E6C586" offset=".992"/><stop stop-color="#E5C485" offset=".996"/><stop stop-color="#E4C384" offset="1"/></linearGradient></defs><g clip-path="url(#a)"><path fill="#EDEDED" d="M 194.023438 335.984375 C 190.296875 335.984375 186.636719 336.015625 183.066406 336.074219 C 180.617188 339.921875 177.207031 342.636719 173.863281 343.8125 C 174.128906 344.429688 174.171875 345.007812 174.171875 345.007812 C 174.132812 345.257812 173.855469 345.421875 173.460938 345.519531 C 173.105469 345.609375 172.660156 345.644531 172.207031 345.644531 C 171.152344 345.644531 170.050781 345.445312 169.941406 345.207031 C 169.882812 345.082031 169.871094 344.804688 169.914062 344.476562 C 169.554688 344.464844 169.214844 344.40625 168.871094 344.34375 C 168.945312 344.664062 168.96875 344.894531 168.96875 344.894531 C 168.894531 345.34375 168.082031 345.550781 167.109375 345.605469 C 166.902344 345.621094 166.691406 345.625 166.476562 345.625 C 165.152344 345.625 163.765625 345.398438 163.625 345.125 C 163.550781 344.992188 163.53125 344.710938 163.570312 344.367188 C 163.433594 344.382812 163.300781 344.398438 163.15625 344.402344 C 163.046875 344.40625 162.9375 344.40625 162.824219 344.40625 C 161.492188 344.40625 160.101562 344.175781 159.957031 343.90625 C 159.683594 343.382812 160.132812 340.832031 161.824219 340.667969 L 161.890625 340.667969 C 162.011719 340.65625 162.125 340.652344 162.234375 340.652344 C 162.820312 340.652344 163.289062 340.785156 163.671875 340.984375 C 162.550781 339.738281 161.574219 338.347656 160.730469 336.859375 C 137.792969 338.152344 122.136719 340.742188 122.136719 343.71875 C 122.136719 347.996094 154.320312 351.457031 194.023438 351.457031 C 233.722656 351.457031 265.90625 347.996094 265.90625 343.71875 C 265.90625 340.488281 247.496094 337.71875 221.347656 336.5625 C 220.757812 337.695312 220.113281 338.714844 219.417969 339.59375 C 219.726562 339.5 220.0625 339.429688 220.460938 339.429688 C 220.574219 339.429688 220.691406 339.433594 220.816406 339.449219 L 220.878906 339.464844 C 222.519531 339.6875 222.953125 342.171875 222.683594 342.683594 C 222.542969 342.953125 221.144531 343.183594 219.816406 343.183594 C 219.777344 343.183594 219.738281 343.183594 219.699219 343.183594 C 219.480469 343.179688 219.273438 343.164062 219.0625 343.148438 C 219.105469 343.488281 219.085938 343.765625 219.015625 343.90625 C 218.878906 344.175781 217.476562 344.40625 216.148438 344.40625 C 215.882812 344.40625 215.621094 344.398438 215.375 344.378906 C 214.472656 344.308594 213.742188 344.097656 213.671875 343.675781 C 213.671875 343.675781 213.695312 343.410156 213.785156 343.046875 C 213.621094 343.0625 213.453125 343.066406 213.285156 343.066406 C 212.933594 343.066406 212.574219 343.039062 212.207031 342.976562 C 212.3125 343.421875 212.316406 343.824219 212.230469 343.988281 C 212.105469 344.222656 210.890625 344.425781 209.730469 344.425781 C 209.230469 344.425781 208.738281 344.386719 208.351562 344.296875 C 207.914062 344.199219 207.605469 344.035156 207.566406 343.785156 C 207.566406 343.785156 207.644531 342.609375 208.4375 341.828125 C 205.179688 340.4375 202.78125 338.28125 201.027344 336.019531 C 198.722656 335.996094 196.386719 335.984375 194.023438 335.984375"/></g><path fill="#3AAE9B" d="M 295.304688 112.828125 C 299.558594 106.472656 302.570312 99.636719 304.167969 92.550781 C 306.757812 81.796875 305.292969 74.53125 305.292969 74.53125 C 305.191406 74.238281 305.089844 73.929688 304.980469 73.605469 C 304.105469 67.324219 302.070312 61.019531 298.753906 54.847656 C 282.460938 24.527344 250.746094 23.695312 248.089844 29.816406 C 247.09375 32.113281 248.867188 32.964844 251.386719 34.222656 C 251.140625 34.183594 250.882812 34.136719 250.589844 34.070312 C 250.589844 34.070312 258.023438 37.589844 260.394531 44.582031 C 261.304688 48.582031 260.484375 52.441406 258.4375 56.164062 C 256.984375 58.476562 255.46875 60.472656 254.089844 62.105469 C 248.230469 68.578125 239.246094 74.59375 230.164062 80.167969 C 230.042969 80.238281 229.980469 80.28125 229.980469 80.28125 C 229.980469 80.28125 220.203125 86.101562 217.125 91.367188 C 211.664062 98.144531 210.585938 103.765625 210.585938 103.765625 L 216.746094 108.867188 C 217.113281 110.449219 217.804688 111.808594 218.742188 112.878906 C 219.839844 114.132812 221.375 114.53125 223.289062 114.289062 L 257.582031 142.707031 C 262.011719 140.84375 266.191406 138.710938 270.101562 136.351562 C 272.742188 134.957031 276.839844 132.5 281.304688 128.726562 C 281.304688 128.726562 281.351562 128.554688 281.421875 128.238281 C 285.898438 124.441406 289.828125 120.292969 293.140625 115.878906 C 293.085938 116.035156 293.054688 116.117188 293.054688 116.117188 C 293.851562 115.011719 294.601562 113.914062 295.304688 112.828125"/><path fill="#3AAE9B" d="M 137.949219 83.996094 C 137.242188 83.59375 136.808594 83.363281 136.808594 83.363281 C 136.808594 83.363281 136.75 83.332031 136.644531 83.277344 C 128.714844 78.984375 120.847656 74.3125 115.601562 69.113281 C 114.363281 67.800781 112.996094 66.183594 111.664062 64.296875 C 109.761719 61.25 108.890625 58.027344 109.476562 54.605469 C 111.15625 48.589844 117.277344 45.277344 117.277344 45.277344 C 117.035156 45.34375 116.816406 45.394531 116.613281 45.4375 C 118.683594 44.261719 120.140625 43.460938 119.191406 41.566406 C 118.691406 40.5625 117.226562 39.84375 115.109375 39.542969 C 116.261719 39.171875 116.949219 39.011719 116.949219 39.011719 C 114.660156 38.65625 111.164062 38.921875 107.144531 40.027344 C 97.691406 42.046875 85.003906 49.140625 77.542969 65.035156 C 75.199219 70.027344 73.839844 75.132812 73.386719 80.230469 C 73.226562 80.859375 73.074219 81.441406 72.925781 81.960938 C 72.925781 81.960938 70.519531 98.449219 85.171875 116.527344 C 85.171875 116.527344 84.917969 115.976562 84.582031 114.96875 C 87.648438 118.875 91.296875 122.546875 95.460938 125.898438 C 95.589844 126.382812 95.671875 126.640625 95.671875 126.640625 C 98.738281 128.957031 101.574219 130.613281 103.765625 131.730469 C 109.335938 135.132812 115.558594 138.039062 122.363281 140.304688 L 122.371094 140.292969 C 132.539062 143.324219 136.292969 126.003906 137.550781 116.863281 L 150.398438 97.035156 C 150.398438 97.035156 151.472656 91.625 137.949219 83.996094"/><path fill="#F9B02A" d="M 334.914062 154.796875 C 331.246094 101.433594 175.96875 36.664062 78.976562 113.652344 C 78.976562 113.652344 33.332031 142.980469 45.558594 189.011719 C 55.6875 227.144531 111.960938 243.75 169.667969 247.628906 C 169.359375 248.253906 168.945312 249.109375 168.441406 250.175781 C 159.417969 257.191406 139.636719 273.949219 133.621094 290.390625 C 130.058594 300.121094 131.039062 305.972656 133.703125 309.339844 C 133.660156 309.492188 133.613281 309.625 133.578125 309.808594 C 132.875 313.882812 135.710938 313.855469 135.875 311.4375 L 135.882812 311.367188 C 136.085938 311.503906 136.292969 311.632812 136.503906 311.753906 C 136.304688 312.03125 136.128906 312.429688 136.027344 313.035156 C 135.320312 317.109375 138.152344 317.085938 138.320312 314.667969 C 138.367188 313.96875 138.539062 313.289062 138.5625 312.683594 C 139.15625 312.882812 139.761719 313.042969 140.363281 313.15625 C 140.082031 313.417969 139.832031 313.859375 139.691406 314.648438 C 138.992188 318.722656 141.824219 318.695312 141.988281 316.277344 C 142.0625 315.191406 142.445312 314.144531 142.082031 313.367188 C 143.476562 313.449219 144.773438 313.324219 145.796875 313.070312 C 146.222656 312.964844 146.671875 312.789062 147.125 312.582031 C 147.097656 313.476562 146.953125 314.433594 146.554688 315.394531 C 145.5625 317.78125 150.027344 317.949219 150.121094 312.898438 C 150.128906 312.253906 149.953125 311.585938 149.703125 310.96875 C 151.277344 309.738281 152.933594 308.035156 154.605469 305.847656 C 154.769531 307.585938 155.023438 309.28125 155.40625 310.910156 C 155.34375 318.273438 156.253906 332.75 163.671875 340.984375 C 163.214844 340.75 162.644531 340.605469 161.890625 340.667969 L 161.824219 340.667969 C 160.132812 340.832031 159.683594 343.382812 159.957031 343.90625 C 160.109375 344.199219 161.734375 344.445312 163.15625 344.402344 C 163.300781 344.398438 163.433594 344.382812 163.570312 344.367188 C 163.53125 344.710938 163.550781 344.992188 163.625 345.125 C 163.789062 345.441406 165.628906 345.695312 167.109375 345.605469 C 168.082031 345.550781 168.894531 345.34375 168.96875 344.894531 C 168.96875 344.894531 168.945312 344.664062 168.871094 344.34375 C 169.214844 344.40625 169.554688 344.464844 169.914062 344.476562 C 169.871094 344.804688 169.882812 345.082031 169.941406 345.207031 C 170.101562 345.546875 172.296875 345.816406 173.460938 345.519531 C 173.855469 345.421875 174.132812 345.257812 174.171875 345.007812 C 174.171875 345.007812 174.128906 344.429688 173.863281 343.8125 C 178.609375 342.140625 183.492188 337.375 185.566406 330.648438 C 187.488281 330.855469 189.496094 331.015625 191.660156 331.074219 C 193.917969 331.132812 196.011719 331.042969 198.023438 330.886719 C 199.589844 334.507812 202.667969 339.367188 208.4375 341.828125 C 207.644531 342.609375 207.566406 343.785156 207.566406 343.785156 C 207.605469 344.035156 207.914062 344.199219 208.351562 344.296875 C 209.632812 344.589844 212.054688 344.324219 212.230469 343.988281 C 212.316406 343.824219 212.3125 343.421875 212.207031 342.976562 C 212.75 343.066406 213.277344 343.085938 213.785156 343.046875 C 213.695312 343.410156 213.671875 343.675781 213.671875 343.675781 C 213.742188 344.097656 214.472656 344.308594 215.375 344.378906 C 216.875 344.496094 218.847656 344.226562 219.015625 343.90625 C 219.085938 343.765625 219.105469 343.488281 219.0625 343.148438 C 219.273438 343.164062 219.480469 343.179688 219.699219 343.183594 C 221.0625 343.195312 222.539062 342.960938 222.683594 342.683594 C 222.953125 342.171875 222.519531 339.6875 220.878906 339.464844 L 220.816406 339.449219 C 220.257812 339.390625 219.8125 339.46875 219.417969 339.59375 C 225.863281 331.433594 227.769531 311.171875 226.625 302.746094 C 228.355469 304.476562 230.050781 305.902344 231.675781 306.9375 C 231.621094 307.203125 231.597656 307.472656 231.601562 307.738281 C 231.695312 312.789062 236.160156 312.617188 235.167969 310.234375 C 234.914062 309.621094 234.765625 309.003906 234.683594 308.402344 C 235.75 308.753906 236.769531 308.898438 237.71875 308.769531 C 238.382812 308.675781 238.984375 308.523438 239.582031 308.363281 C 239.332031 309.125 239.667969 310.101562 239.734375 311.117188 C 239.898438 313.535156 242.734375 313.5625 242.03125 309.488281 C 241.859375 308.523438 241.527344 308.054688 241.175781 307.832031 C 241.929688 307.53125 242.621094 307.175781 243.246094 306.761719 C 243.007812 307.523438 243.332031 308.496094 243.402344 309.503906 C 243.566406 311.917969 246.402344 311.949219 245.699219 307.871094 C 245.433594 306.359375 244.769531 306.054688 244.246094 306.054688 C 244.757812 305.625 245.222656 305.152344 245.628906 304.636719 C 245.6875 305.148438 245.808594 305.707031 245.847656 306.277344 C 246.011719 308.695312 248.847656 308.722656 248.144531 304.644531 C 247.890625 303.195312 247.269531 302.855469 246.757812 302.832031 C 250.0625 296.144531 246.980469 284.894531 238.035156 273.746094 C 229.851562 263.535156 219.765625 256.421875 212.3125 252.066406 C 211.46875 250.773438 210.578125 249.53125 209.644531 248.347656 C 276.109375 245.585938 338.5 207.023438 334.914062 154.796875"/><path fill="#FABD42" d="M 188.726562 256.914062 C 176.066406 256.917969 163.269531 275.429688 163.714844 299.46875 C 164.140625 322.382812 180.390625 324.046875 193.160156 324.046875 C 193.476562 324.046875 193.796875 324.046875 194.109375 324.042969 C 211.222656 323.945312 219.585938 311.476562 219.347656 297.089844 C 218.996094 275.90625 205.5 257.726562 189.359375 256.933594 C 189.148438 256.921875 188.9375 256.914062 188.726562 256.914062"/><g clip-path="url(#b)"><path fill="#F9B02A" d="M 334.328125 164.605469 C 334.328125 164.605469 347.445312 148.660156 353.316406 166.363281 C 359.183594 184.066406 339.328125 164.71875 335.875 168.320312 C 335.875 168.320312 343.292969 170.226562 346.15625 183.640625 C 349.015625 197.058594 339.773438 176.34375 336.914062 172.683594 C 334.054688 169.019531 332.71875 163.410156 332.71875 163.410156 C 332.71875 163.410156 331.679688 159.046875 335.554688 151.65625 C 339.433594 144.261719 340.726562 148.300781 334.328125 164.605469"/></g><path fill="#F9B02A" d="M 43.523438 167.597656 C 43.523438 167.597656 28.757812 153.171875 24.839844 171.40625 C 20.921875 189.636719 38.566406 168.253906 42.390625 171.457031 C 42.390625 171.457031 35.222656 174.15625 33.832031 187.804688 C 32.441406 201.453125 39.382812 179.859375 41.828125 175.910156 C 44.277344 171.957031 44.996094 166.238281 44.996094 166.238281 C 44.996094 166.238281 45.558594 161.785156 40.902344 154.859375 C 36.246094 147.929688 35.398438 152.085938 43.523438 167.597656"/><path fill="#FAC03F" d="M 275.683594 208.4375 C 276.082031 209.765625 276.269531 210.984375 276.273438 212.09375 C 277.019531 217.9375 273.15625 221.152344 267.875 221.152344 C 267.007812 221.152344 266.101562 221.066406 265.171875 220.886719 C 258.125 219.550781 248.734375 217.664062 235.84375 216.554688 L 235.84375 216.558594 C 233.550781 216.359375 231.148438 216.1875 228.628906 216.046875 L 228.628906 216.101562 C 228.628906 216.101562 171.203125 215.699219 150.054688 215.699219 C 147.25 215.699219 145.085938 215.707031 143.777344 215.722656 C 140.207031 215.796875 136.902344 215.910156 133.964844 216.078125 C 133.964844 216.074219 133.964844 216.074219 133.964844 216.074219 C 130.011719 216.300781 126.730469 216.628906 124.371094 217.09375 C 117.257812 218.496094 112.019531 221.78125 104.769531 221.78125 C 103.113281 221.78125 101.351562 221.609375 99.4375 221.207031 C 97.589844 220.816406 94.210938 217.980469 93.605469 212.902344 C 93.707031 218.835938 97.523438 222.144531 99.53125 222.566406 C 102.925781 223.285156 105.703125 223.605469 108.1875 223.605469 C 113.234375 223.605469 117.066406 222.277344 122.40625 220.226562 C 128.074219 218.042969 147.40625 217.753906 167.664062 217.753906 C 171.328125 217.753906 175.023438 217.765625 178.675781 217.773438 C 182.328125 217.78125 185.933594 217.792969 189.421875 217.792969 C 195.769531 217.792969 201.71875 217.761719 206.8125 217.640625 C 208.644531 217.597656 210.441406 217.578125 212.214844 217.578125 C 234.164062 217.578125 251.355469 220.75 263.484375 223.398438 C 264.585938 223.636719 265.707031 223.757812 266.816406 223.757812 C 274.097656 223.757812 280.746094 218.59375 275.683594 208.4375"/><path fill="#D2813D" d="M 183.261719 166.996094 C 156.300781 166.996094 117.832031 173.996094 101.4375 192.914062 C 94.617188 200.789062 92.976562 207.046875 93.511719 211.542969 C 93.433594 207.175781 95.371094 201.382812 101.53125 194.277344 C 117.339844 176.027344 151.792969 171.710938 178.21875 171.710938 C 180.683594 171.710938 183.070312 171.75 185.371094 171.816406 C 212.375 172.605469 239.964844 171.59375 262.183594 191.640625 C 267.792969 196.699219 271.492188 201.210938 273.699219 205.085938 C 274.5 206.257812 275.15625 207.375 275.683594 208.4375 C 274.261719 203.679688 270.152344 197.546875 262.09375 190.277344 C 239.875 170.234375 214.550781 167.84375 187.546875 167.054688 C 186.15625 167.015625 184.726562 166.996094 183.261719 166.996094"/><path fill="#D18B4F" d="M 273.699219 205.085938 C 275.203125 207.722656 276.015625 210.066406 276.273438 212.09375 C 276.269531 210.984375 276.082031 209.765625 275.683594 208.4375 C 275.15625 207.375 274.5 206.257812 273.699219 205.085938"/><path fill="#36192B" d="M 99.4375 221.207031 C 95.953125 220.46875 87.015625 211.03125 101.53125 194.277344 C 118.8125 174.324219 158.367188 171.03125 185.371094 171.816406 C 212.375 172.605469 239.964844 171.59375 262.183594 191.640625 C 284.402344 211.683594 276.621094 223.058594 265.171875 220.886719 C 253.722656 218.71875 236.09375 215.09375 207.300781 215.707031 C 198.234375 215.898438 187.089844 215.804688 175.839844 215.710938 C 154.679688 215.539062 133.144531 215.363281 124.371094 217.09375 C 115.632812 218.816406 109.726562 223.382812 99.4375 221.207031"/><path fill="#EE2176" d="M 210.511719 188.125 C 202.292969 186.65625 197.730469 188.097656 193.410156 189.542969 C 189.246094 190.933594 185.308594 192.324219 178.546875 191.109375 C 173.839844 190.265625 164.847656 185.640625 153.246094 189.777344 C 139.453125 194.691406 139.097656 203.191406 137.394531 203.980469 C 132.261719 206.351562 133.125 212.777344 133.964844 216.078125 C 144.703125 215.460938 160.375 215.585938 175.851562 215.714844 C 187.09375 215.804688 198.234375 215.898438 207.300781 215.707031 C 218.378906 215.46875 227.785156 215.863281 235.84375 216.558594 L 234.660156 211.042969 C 228.960938 190.996094 210.511719 188.125 210.511719 188.125"/><path fill="#E6A939" d="M 156.929688 215.609375 C 152.304688 215.609375 147.867188 215.640625 143.777344 215.722656 C 145.085938 215.707031 147.25 215.699219 150.054688 215.699219 C 171.203125 215.699219 228.628906 216.101562 228.628906 216.101562 L 228.628906 216.046875 C 224.035156 215.789062 219.058594 215.636719 213.648438 215.636719 C 211.597656 215.636719 209.480469 215.660156 207.300781 215.707031 C 203.390625 215.789062 199.09375 215.820312 194.566406 215.820312 C 188.605469 215.820312 182.242188 215.765625 175.851562 215.714844 C 169.457031 215.660156 163.03125 215.609375 156.929688 215.609375"/><path fill="#DE2168" d="M 140.878906 206.199219 C 140.292969 208.234375 143.675781 215.722656 143.675781 215.722656 C 143.710938 215.722656 143.742188 215.722656 143.777344 215.722656 C 147.867188 215.640625 152.304688 215.609375 156.929688 215.609375 C 163.03125 215.609375 169.457031 215.660156 175.851562 215.714844 C 182.242188 215.765625 188.605469 215.820312 194.566406 215.820312 C 199.09375 215.820312 203.390625 215.789062 207.300781 215.707031 C 209.480469 215.660156 211.597656 215.636719 213.648438 215.636719 C 219.058594 215.636719 224.035156 215.789062 228.628906 216.046875 L 228.578125 208.945312 C 211.25 213.476562 196.46875 215.066406 184.253906 215.066406 C 155.421875 215.066406 140.878906 206.199219 140.878906 206.199219"/><g clip-path="url(#c)"><g clip-path="url(#d)"><g clip-path="url(#e)"><path fill="#FDFDE9" d="M 124.808594 203.460938 L 143.742188 203.511719 L 143.734375 207.054688 L 124.796875 207.003906 Z M 124.796875 207.003906 L 143.734375 207.054688 L 143.726562 210.597656 L 124.789062 210.546875 Z M 124.796875 207.003906"/></g></g></g><g clip-path="url(#f)"><g clip-path="url(#g)"><g clip-path="url(#h)"><g clip-path="url(#i)"><path fill="url(#j)" d="M 125.457031 203.488281 L 143.742188 203.539062 L 143.707031 217.324219 L 125.421875 217.277344 Z M 125.457031 203.488281"/></g></g></g></g><g clip-path="url(#k)"><g clip-path="url(#l)"><g clip-path="url(#m)"><path fill="#FDFDE9" d="M 225.964844 203.96875 L 245.25 203.304688 L 245.382812 207.175781 L 226.097656 207.839844 Z M 226.097656 207.839844 L 245.382812 207.175781 L 245.515625 211.042969 L 226.230469 211.707031 Z M 226.097656 207.839844"/></g></g></g><g clip-path="url(#n)"><g clip-path="url(#o)"><g clip-path="url(#p)"><g clip-path="url(#q)"><path fill="url(#r)" d="M 225.980469 204.5 L 245.25 203.835938 L 245.734375 217.832031 L 226.464844 218.496094 Z M 225.980469 204.5"/></g></g></g></g><path fill="#F9B02A" d="M 222.890625 121.410156 C 222.890625 121.410156 228.492188 147.472656 192.464844 162.277344 C 192.464844 162.277344 244.351562 156.382812 222.890625 121.410156"/><path fill="#D29523" d="M 185.894531 86.449219 C 185.894531 86.449219 207.1875 93.617188 214.433594 115.019531 C 220.730469 133.613281 211.15625 159.011719 179.671875 164.1875 C 148.183594 169.359375 133.804688 140.820312 134.152344 125.214844 C 134.5 109.605469 152.226562 78.058594 185.894531 86.449219"/><path fill="#EFEE0E" d="M 183.839844 88.78125 C 183.839844 88.78125 203.652344 93.039062 211.785156 111.316406 C 218.855469 127.195312 212.050781 150.683594 183.90625 158.390625 C 155.757812 166.105469 140.632812 142.195312 139.816406 128.3125 C 138.976562 114.425781 152.722656 84.671875 183.839844 88.78125"/><path fill="#523773" d="M 200.042969 126.757812 C 198.164062 137.078125 190.765625 145.351562 177.566406 143.160156 C 165.367188 141.140625 150.0625 136.460938 149.988281 119.878906 C 149.945312 108.214844 166.449219 99.613281 178.558594 102.378906 C 190.667969 105.144531 201.914062 116.433594 200.042969 126.757812"/><path fill="#73469E" d="M 195.996094 132.410156 C 190.929688 139.882812 181.628906 144.328125 170.617188 139.210938 C 160.4375 134.472656 148.371094 126.886719 153.773438 114.082031 C 157.574219 105.074219 175.089844 102.746094 184.9375 108.027344 C 194.785156 113.308594 201.066406 124.9375 195.996094 132.410156"/><path fill="#73469E" d="M 158.851562 114.175781 C 155.019531 122.300781 157.226562 117.996094 158.457031 122.378906 C 158.851562 123.765625 158.414062 125.605469 159.429688 126.929688 C 160.925781 128.878906 165.164062 130.25 167.308594 132.390625 C 170.902344 135.972656 170.765625 134.953125 175.710938 136.082031 C 180.15625 137.097656 180.875 138.855469 184.878906 137.054688 C 187.28125 135.976562 190.882812 134.058594 192.023438 132.265625 C 193.113281 130.550781 194.394531 125.019531 194.558594 123.199219 C 194.847656 120.132812 192.136719 117.710938 190.015625 115.398438 C 187.730469 112.921875 185.546875 111.289062 182.300781 109.945312 C 179.316406 108.710938 176.585938 108.222656 173.414062 108.5625 C 171.984375 108.714844 171.109375 109.324219 169.402344 109.4375 C 167.34375 109.585938 166.613281 108.375 164.6875 109.3125 C 163.546875 109.867188 163.808594 111.652344 163.105469 112.226562 C 162.1875 112.96875 160.371094 112.730469 159.558594 113.601562 C 158.226562 115.042969 155.867188 118.382812 157.359375 119.722656 L 158.851562 114.175781"/><path fill="#523773" d="M 186.414062 124.90625 C 185.457031 130.175781 179.386719 133.238281 172.863281 131.746094 C 166.335938 130.253906 161.824219 124.777344 162.78125 119.507812 C 163.742188 114.238281 169.800781 111.175781 176.332031 112.667969 C 182.851562 114.152344 187.363281 119.640625 186.414062 124.90625"/><path fill="#FFF" d="M 195.027344 112.742188 C 194.109375 117.773438 188.320312 120.703125 182.089844 119.277344 C 175.851562 117.855469 171.546875 112.621094 172.460938 107.589844 C 173.371094 102.558594 179.164062 99.632812 185.398438 101.058594 C 191.625 102.480469 195.941406 107.710938 195.027344 112.742188"/></svg>