<svg xmlns="http://www.w3.org/2000/svg" width="125" viewBox="-15 -15 400 400" height="125" version="1.0"><path fill="#88D49B" d="M 110.652344 92.042969 C 110.652344 92.042969 86.027344 61.421875 102.367188 33.453125 C 102.367188 33.453125 103.976562 19.089844 108.886719 29.296875 C 113.792969 39.5 117.777344 73.898438 129.96875 86.75 C 142.15625 99.601562 139.886719 86.371094 139.886719 86.371094 C 139.886719 86.371094 134.59375 56.886719 144.429688 39.125 C 144.429688 39.125 145.5625 29.296875 151.234375 30.808594 C 156.910156 32.316406 151.613281 74.277344 167.875 83.722656 C 184.140625 93.175781 145.710938 123.792969 110.652344 92.042969"/><path fill="#88D49B" d="M 274.382812 92.042969 C 274.382812 92.042969 299.011719 61.421875 282.667969 33.453125 C 282.667969 33.453125 281.058594 19.089844 276.148438 29.296875 C 271.242188 39.5 267.257812 73.898438 255.070312 86.75 C 242.878906 99.601562 245.148438 86.371094 245.148438 86.371094 C 245.148438 86.371094 250.441406 56.886719 240.609375 39.125 C 240.609375 39.125 239.476562 29.296875 233.800781 30.808594 C 228.128906 32.316406 233.425781 74.277344 217.160156 83.722656 C 200.894531 93.175781 239.328125 123.792969 274.382812 92.042969"/><path fill="#88D49B" d="M 302.527344 145.796875 C 300.257812 211.566406 277.566406 311.351562 277.566406 311.351562 C 277.566406 311.351562 268.671875 347.367188 254.871094 347.074219 C 253.285156 347.027344 252.082031 346.441406 251.171875 345.441406 C 246.160156 340 249.246094 322.898438 239.167969 322.421875 C 230.117188 321.992188 168.890625 323.535156 140.09375 324.28125 C 130.992188 324.53125 125.183594 328.113281 124.296875 331.992188 C 123.300781 336.414062 120.894531 351.359375 116.0625 352.5625 C 102.855469 355.851562 97.160156 311.351562 97.160156 311.351562 C 97.160156 311.351562 76.734375 233.113281 77.867188 154.867188 C 78.164062 134.1875 81.410156 118.96875 86.96875 107.765625 C 102.445312 76.628906 135.917969 76.628906 174.3125 76.628906 C 226.507812 76.628906 304.796875 80.03125 302.527344 145.796875"/><path fill="#44BD6B" d="M 282.851562 155.628906 C 280.585938 221.398438 254.667969 334.238281 254.667969 334.238281 C 254.667969 334.238281 253.445312 339.203125 251.171875 345.441406 C 246.160156 340 249.246094 322.898438 239.167969 322.421875 C 230.117188 321.992188 168.890625 323.535156 140.09375 324.28125 C 130.992188 324.53125 125.183594 328.113281 124.296875 331.992188 C 123.300781 336.414062 120.894531 351.359375 116.0625 352.5625 C 102.855469 355.851562 97.160156 311.351562 97.160156 311.351562 C 97.160156 311.351562 76.734375 233.113281 77.867188 154.867188 C 78.164062 134.1875 81.410156 118.96875 86.96875 107.765625 C 104.125 99.511719 126.75 99.511719 151.417969 99.511719 C 203.609375 99.511719 285.121094 89.863281 282.851562 155.628906"/><path fill="#FFF" d="M 108.886719 184.550781 C 108.886719 184.550781 110.894531 203.925781 118.460938 203.925781 C 126.023438 203.925781 126.023438 184.53125 126.023438 184.53125 C 126.023438 184.53125 118.222656 180.292969 108.886719 184.550781"/><path fill="#FFF" d="M 248.824219 184.550781 C 248.824219 184.550781 250.835938 203.925781 258.398438 203.925781 C 265.960938 203.925781 265.964844 184.53125 265.964844 184.53125 C 265.964844 184.53125 258.160156 180.292969 248.824219 184.550781"/><path fill="#1C4B4C" d="M 102.445312 185.78125 C 102.445312 185.78125 100.742188 172.742188 113.226562 172.742188 C 125.707031 172.742188 259.59375 172.742188 259.59375 172.742188 C 259.59375 172.742188 273.207031 174.441406 273.777344 185.78125 C 274.34375 197.121094 264.957031 183.316406 258.71875 183.882812 C 252.476562 184.449219 117.453125 184.550781 117.453125 184.550781 C 117.453125 184.550781 102.445312 202.222656 102.445312 185.78125"/><path fill="#FFF" d="M 131.007812 142.464844 C 131.007812 144.238281 130.714844 145.945312 130.179688 147.546875 C 128.050781 153.925781 122.027344 158.53125 114.921875 158.53125 C 107.824219 158.53125 101.804688 153.925781 99.675781 147.546875 C 99.136719 145.945312 98.84375 144.238281 98.84375 142.464844 C 98.84375 140.863281 99.089844 139.320312 99.523438 137.859375 L 130.332031 137.859375 C 130.761719 139.320312 131.007812 140.863281 131.007812 142.464844"/><path fill="#FBBF24" d="M 125.714844 144.847656 C 125.714844 150.800781 120.886719 155.628906 114.925781 155.628906 C 108.96875 155.628906 104.136719 150.800781 104.136719 144.847656 C 104.136719 138.894531 108.96875 134.066406 114.925781 134.066406 C 120.886719 134.066406 125.714844 138.894531 125.714844 144.847656"/><path fill="#1C4B4C" d="M 119.203125 144.847656 C 119.203125 147.207031 117.289062 149.121094 114.925781 149.121094 C 112.566406 149.121094 110.652344 147.207031 110.652344 144.847656 C 110.652344 142.488281 112.566406 140.574219 114.925781 140.574219 C 117.289062 140.574219 119.203125 142.488281 119.203125 144.847656"/><path fill="#1C4B4C" d="M 180.09375 159.902344 C 180.09375 162.261719 178.179688 164.175781 175.820312 164.175781 C 173.457031 164.175781 171.542969 162.261719 171.542969 159.902344 C 171.542969 157.542969 173.457031 155.628906 175.820312 155.628906 C 178.179688 155.628906 180.09375 157.542969 180.09375 159.902344"/><path fill="#88D49B" d="M 99.886719 137.859375 C 102.1875 131.796875 108.058594 127.484375 114.933594 127.484375 C 121.808594 127.484375 127.675781 131.796875 129.96875 137.859375 L 99.886719 137.859375"/><path fill="#FFF" d="M 271.148438 142.464844 C 271.148438 144.238281 270.859375 145.945312 270.316406 147.546875 C 268.191406 153.925781 262.167969 158.53125 255.0625 158.53125 C 247.964844 158.53125 241.945312 153.925781 239.816406 147.546875 C 239.277344 145.945312 238.984375 144.238281 238.984375 142.464844 C 238.984375 140.863281 239.230469 139.320312 239.664062 137.859375 L 270.472656 137.859375 C 270.902344 139.320312 271.148438 140.863281 271.148438 142.464844"/><path fill="#FBBF24" d="M 265.855469 144.847656 C 265.855469 150.800781 261.023438 155.628906 255.066406 155.628906 C 249.109375 155.628906 244.277344 150.800781 244.277344 144.847656 C 244.277344 138.894531 249.109375 134.066406 255.066406 134.066406 C 261.023438 134.066406 265.855469 138.894531 265.855469 144.847656"/><path fill="#1C4B4C" d="M 259.34375 144.847656 C 259.34375 147.207031 257.429688 149.121094 255.066406 149.121094 C 252.707031 149.121094 250.792969 147.207031 250.792969 144.847656 C 250.792969 142.488281 252.707031 140.574219 255.066406 140.574219 C 257.429688 140.574219 259.34375 142.488281 259.34375 144.847656"/><path fill="#1C4B4C" d="M 194.476562 159.902344 C 194.476562 162.261719 192.5625 164.175781 190.199219 164.175781 C 187.839844 164.175781 185.925781 162.261719 185.925781 159.902344 C 185.925781 157.542969 187.839844 155.628906 190.199219 155.628906 C 192.5625 155.628906 194.476562 157.542969 194.476562 159.902344"/><path fill="#88D49B" d="M 240.027344 137.859375 C 242.328125 131.796875 248.199219 127.484375 255.070312 127.484375 C 261.949219 127.484375 267.816406 131.796875 270.109375 137.859375 L 240.027344 137.859375"/><path fill="#349A57" d="M 78.960938 194.488281 C 78.960938 194.488281 44.011719 233.765625 54.222656 247.761719 C 64.433594 261.757812 83.15625 267.992188 80.320312 273.097656 C 77.484375 278.195312 68.972656 290.671875 74.078125 288.96875 C 79.183594 287.269531 89.261719 274.949219 88.1875 268.773438 C 87.113281 262.601562 65.570312 248.871094 66.703125 242.273438 C 67.839844 235.671875 82.023438 227.375 82.023438 227.375 C 82.023438 227.375 92.800781 212.429688 78.960938 194.488281"/><path fill="#349A57" d="M 298.304688 194.488281 C 298.304688 194.488281 331.089844 233.765625 320.878906 247.761719 C 310.667969 261.757812 291.945312 267.992188 294.78125 273.097656 C 297.621094 278.195312 306.125 290.671875 301.023438 288.96875 C 295.914062 287.269531 285.839844 274.949219 286.914062 268.773438 C 287.984375 262.601562 309.53125 248.871094 308.398438 242.273438 C 307.261719 235.671875 293.078125 227.375 293.078125 227.375 C 293.078125 227.375 283.988281 209.59375 298.304688 194.488281"/><path fill="#88D49B" d="M 128.726562 304.347656 C 128.726562 304.347656 103.5 221.484375 131.007812 214.699219 C 158.515625 207.90625 256.6875 199.957031 256.105469 237.941406 C 255.527344 275.929688 242.382812 305.601562 242.382812 305.601562 C 242.382812 305.601562 190.199219 308.246094 128.726562 304.347656"/><path fill="#88D49B" d="M 312.285156 180.398438 C 312.296875 180.386719 312.308594 180.375 312.320312 180.363281 C 314.464844 178.15625 315.828125 175.160156 315.882812 172.066406 C 316.011719 165.46875 310.601562 159.851562 304 159.722656 C 297.398438 159.59375 291.777344 165 291.648438 171.601562 C 291.566406 175.835938 293.984375 180.222656 297.710938 182.363281 C 297.785156 182.410156 297.839844 182.464844 297.910156 182.507812 C 299.304688 183.335938 300.855469 183.816406 302.441406 183.992188 C 302.691406 184.019531 302.941406 184.042969 303.195312 184.054688 C 303.234375 184.058594 303.269531 184.058594 303.3125 184.058594 C 304.773438 184.132812 306.25 183.925781 307.671875 183.414062 C 307.679688 183.410156 307.6875 183.410156 307.695312 183.40625 C 307.953125 183.3125 308.207031 183.214844 308.460938 183.101562 C 308.726562 182.988281 308.980469 182.863281 309.238281 182.730469 C 309.238281 182.730469 309.238281 182.726562 309.238281 182.726562 C 309.238281 182.726562 309.238281 182.726562 309.242188 182.726562 C 310.125 182.269531 310.941406 181.699219 311.667969 181.015625 C 311.886719 180.824219 312.078125 180.609375 312.285156 180.398438"/><path fill="#88D49B" d="M 314.441406 134.960938 C 313.035156 132.371094 310.117188 129.570312 307.074219 129.070312 C 306.777344 129.019531 306.484375 128.972656 306.1875 128.925781 C 305.152344 128.769531 304.113281 128.621094 303.078125 128.464844 C 300.914062 128.429688 298.882812 128.925781 296.976562 129.945312 C 293.121094 132.039062 290.636719 136.128906 290.550781 140.511719 C 290.488281 143.753906 291.734375 146.925781 293.984375 149.265625 C 295.527344 150.859375 297.367188 151.960938 299.496094 152.570312 C 301.5625 153.144531 303.640625 153.183594 305.730469 152.691406 C 306.027344 152.640625 306.324219 152.59375 306.621094 152.542969 C 308.746094 152.023438 310.601562 151.003906 312.1875 149.492188 C 314.5 147.269531 315.84375 144.183594 315.90625 140.980469 C 315.941406 138.847656 315.449219 136.839844 314.441406 134.960938"/><path fill="#44BD6B" d="M 88.476562 157.644531 C 88.03125 155.828125 87.160156 154.246094 85.867188 152.890625 C 83.859375 150.804688 81.402344 149.953125 78.585938 149.710938 C 77.941406 149.65625 77.304688 149.609375 76.65625 149.609375 C 71.03125 149.609375 65.976562 154.09375 65.976562 159.878906 L 65.976562 160.589844 C 65.742188 161.867188 65.757812 163.175781 66.175781 164.265625 C 66.191406 164.308594 66.210938 164.355469 66.226562 164.402344 C 66.636719 166.066406 67.433594 167.523438 68.625 168.765625 C 69.230469 169.390625 69.9375 169.894531 70.679688 170.328125 C 72.21875 171.359375 74.023438 171.957031 76.105469 172.136719 C 78.914062 172.378906 81.417969 171.058594 83.484375 169.320312 C 84.183594 168.730469 84.882812 168.140625 85.582031 167.554688 C 88.328125 165.246094 89.289062 161.015625 88.476562 157.644531"/><path fill="#44BD6B" d="M 89.605469 120.773438 C 87.914062 117.664062 84.894531 116.105469 81.472656 115.828125 C 80.1875 115.726562 78.890625 115.730469 77.605469 115.6875 C 72.378906 115.511719 67.921875 119.925781 67.824219 125.09375 C 67.773438 127.628906 68.746094 130.105469 70.503906 131.929688 C 71.488281 132.953125 72.546875 133.613281 73.707031 134.0625 C 76.523438 136.074219 80.226562 136.386719 83.339844 135 C 83.890625 134.8125 84.425781 134.597656 84.921875 134.351562 C 87.003906 133.320312 88.058594 131.898438 89.425781 130.105469 C 90.269531 128.671875 90.710938 127.125 90.746094 125.460938 C 90.773438 123.800781 90.390625 122.238281 89.605469 120.773438"/><path fill="#FCEBA5" d="M 156.976562 235.390625 C 154.792969 225.71875 145.027344 219.882812 135.945312 224.574219 C 133.976562 225.589844 132.574219 227.464844 131.832031 229.59375 C 131.757812 229.671875 131.679688 229.734375 131.613281 229.816406 C 130.886719 230.523438 130.296875 231.320312 129.84375 232.210938 C 129.542969 232.914062 129.238281 233.617188 128.9375 234.320312 C 129.882812 232.472656 129.78125 232.800781 128.632812 235.308594 C 127.449219 238.230469 127.414062 241.609375 127.84375 244.683594 C 128.363281 248.417969 130.347656 251.59375 133.425781 253.753906 C 137.332031 256.5 142.011719 255.488281 146.015625 253.710938 C 153.292969 250.46875 158.835938 243.617188 156.976562 235.390625"/><path fill="#FCEBA5" d="M 184.535156 231.214844 C 184.320312 229.296875 182.644531 226.402344 181.203125 225.171875 C 179.445312 223.664062 178.410156 222.769531 176.140625 222.132812 C 173.960938 221.515625 172.25 221.71875 170.050781 222.082031 C 166.882812 222.597656 163.957031 225.089844 162.308594 227.726562 C 161.207031 229.488281 160.40625 231.988281 160.390625 234.09375 C 160.375 236.753906 161.007812 238.082031 161.988281 240.503906 C 162.328125 241.128906 162.734375 241.683594 163.175781 242.210938 C 164.71875 246.144531 168.550781 249.027344 172.976562 249.113281 C 175.808594 249.167969 178.582031 248.082031 180.628906 246.117188 C 182.230469 244.574219 183.132812 242.769531 183.589844 240.75 C 183.570312 240.898438 183.546875 241.046875 183.523438 241.191406 C 183.71875 240.078125 184.207031 239.03125 184.402344 237.910156 C 184.921875 234.894531 184.875 234.292969 184.535156 231.214844"/><path fill="#FCEBA5" d="M 175.097656 267.589844 C 174.984375 265.238281 174.761719 263.8125 173.695312 261.703125 C 172.628906 259.589844 171.089844 258.21875 169.191406 256.894531 C 167.351562 255.613281 165.089844 255.082031 162.890625 254.984375 C 161.703125 254.929688 160.628906 255.09375 159.558594 255.472656 C 159.085938 255.640625 158.699219 255.789062 158.339844 255.9375 C 157.085938 256.371094 155.882812 257.0625 154.804688 258.0625 L 154.621094 258.230469 C 154.367188 258.464844 154.167969 258.75 153.945312 259.015625 C 153.042969 259.453125 152.191406 260.039062 151.402344 260.800781 C 149.402344 262.71875 148.238281 265.382812 148.1875 268.152344 C 148.078125 273.679688 152.753906 278.960938 158.472656 278.832031 C 159.019531 278.820312 159.542969 278.789062 160.058594 278.738281 C 162.027344 278.558594 163.945312 278.136719 165.898438 277.839844 C 166.132812 277.804688 166.367188 277.777344 166.597656 277.730469 C 166.605469 277.730469 166.617188 277.726562 166.625 277.726562 C 166.621094 277.726562 166.613281 277.726562 166.605469 277.730469 C 168.550781 277.332031 170.335938 276.484375 171.84375 275.035156 C 173.746094 273.203125 175.230469 270.300781 175.097656 267.589844"/><path fill="#FCEBA5" d="M 201.550781 274.105469 C 197.640625 270.039062 191.753906 270.398438 187.644531 273.839844 C 187.40625 274.035156 187.191406 274.246094 186.984375 274.460938 C 186.8125 274.554688 186.636719 274.628906 186.460938 274.710938 C 186.335938 274.746094 186.210938 274.773438 186.085938 274.800781 C 185.824219 274.832031 185.578125 274.863281 185.300781 274.898438 C 180.824219 275.503906 177.597656 280.371094 177.515625 284.589844 C 177.414062 289.886719 181.953125 295.175781 187.496094 294.953125 C 188.394531 294.921875 189.273438 294.8125 190.144531 294.664062 C 190.230469 294.652344 190.320312 294.644531 190.40625 294.628906 C 190.472656 294.613281 190.53125 294.585938 190.597656 294.570312 C 192.582031 294.183594 194.488281 293.53125 196.289062 292.511719 C 198.765625 291.105469 201.710938 288.570312 202.921875 285.9375 C 203.800781 284.445312 204.257812 282.835938 204.296875 281.109375 C 204.347656 278.511719 203.351562 275.976562 201.550781 274.105469"/><path fill="#FCEBA5" d="M 208.660156 249.765625 C 208.535156 248.082031 208.066406 246.363281 207.265625 244.925781 C 205.445312 241.65625 202.144531 239.984375 198.511719 239.753906 C 194.980469 239.53125 191.648438 241.792969 190.066406 244.871094 C 188.480469 245.386719 187.046875 246.441406 186.089844 248.097656 C 185.953125 248.339844 185.8125 248.578125 185.664062 248.816406 C 184.734375 250.332031 184.382812 252.40625 184.675781 254.339844 C 184.570312 258.359375 186.832031 262.421875 191.0625 263.40625 C 193.933594 264.078125 197.09375 264.296875 199.785156 262.839844 C 200.421875 262.492188 200.988281 262.035156 201.550781 261.5625 C 202.089844 261.359375 202.582031 261.113281 203.039062 260.824219 C 203.027344 260.832031 203.015625 260.839844 203.007812 260.847656 C 203.085938 260.804688 203.164062 260.761719 203.246094 260.71875 C 203.207031 260.734375 203.164062 260.746094 203.125 260.765625 C 203.132812 260.761719 203.136719 260.753906 203.140625 260.753906 C 204.980469 259.980469 206.601562 259.003906 207.679688 256.976562 C 209.046875 254.40625 209.195312 252.128906 208.660156 249.765625"/><path fill="#FCEBA5" d="M 238.757812 261.269531 C 237.859375 255.644531 231.664062 249.582031 225.636719 250.195312 C 221.859375 250.582031 218.539062 251.40625 215.683594 254.085938 C 212.003906 257.539062 210.714844 262.203125 211.773438 267.082031 C 212.042969 268.335938 212.558594 269.453125 213.234375 270.453125 C 213.058594 270.996094 212.863281 271.527344 212.703125 272.070312 C 211.28125 276.875 213.484375 282.207031 217.765625 284.746094 C 223.433594 288.113281 229.449219 285.707031 233.117188 280.835938 C 234.285156 279.28125 235.144531 277.3125 235.972656 275.5625 C 238.15625 270.917969 239.585938 266.464844 238.757812 261.269531"/><path fill="#FCEBA5" d="M 224.542969 219.511719 C 224.457031 219.492188 224.363281 219.480469 224.277344 219.460938 C 223.167969 219.222656 222.648438 219.132812 222.050781 219.113281 C 220.542969 218.699219 219.027344 218.667969 217.5 219.027344 C 214.34375 219.789062 211.898438 222.222656 210.972656 225.308594 C 209.8125 229.183594 211.476562 233.105469 214.238281 235.8125 C 217.078125 238.597656 220.449219 239.308594 224.152344 239.847656 C 226.652344 240.214844 229.671875 238.675781 231.402344 237.011719 C 233.339844 235.148438 234.46875 232.5625 234.523438 229.875 C 234.625 224.40625 230.089844 219.523438 224.542969 219.511719"/></svg>