<svg xmlns="http://www.w3.org/2000/svg" width="125" viewBox="-15 -15 400 400" height="125" version="1.0"><path fill="#467B9D" d="M 312.394531 283.488281 C 314.765625 272.601562 295.328125 255.5625 295.328125 255.5625 C 295.328125 255.5625 308.125 263.132812 312.394531 259.347656 C 315.976562 256.164062 297.148438 238.628906 291.035156 233.09375 L 291.035156 131.851562 C 291.035156 98.425781 263.894531 71.328125 230.414062 71.328125 L 142.496094 71.328125 C 109.019531 71.328125 81.882812 98.425781 81.882812 131.851562 L 81.882812 223.996094 C 74.316406 231 59.808594 245.164062 62.992188 247.988281 C 67.261719 251.773438 80.058594 244.203125 80.058594 244.203125 C 80.058594 244.203125 60.621094 261.242188 62.992188 272.128906 C 65.363281 283.015625 76.269531 271.179688 76.269531 271.179688 C 76.269531 271.179688 59.199219 312.363281 63.464844 315.675781 C 67.734375 318.988281 83.378906 299.582031 83.378906 299.582031 C 83.378906 299.582031 72.003906 333.660156 81.957031 334.136719 C 87.609375 334.40625 93.566406 324.910156 97.664062 316.648438 C 108.75 328.808594 124.730469 336.4375 142.496094 336.4375 L 166.519531 336.4375 L 168.714844 350.226562 C 168.714844 350.226562 152.121094 352.121094 154.964844 356.382812 C 157.8125 360.644531 177.722656 357.800781 177.722656 357.800781 L 177.355469 336.4375 L 193.410156 336.4375 L 193.042969 357.800781 C 193.042969 357.800781 212.957031 360.644531 215.800781 356.382812 C 218.640625 352.121094 202.050781 350.226562 202.050781 350.226562 L 204.246094 336.4375 L 230.414062 336.4375 C 247.257812 336.4375 262.5 329.578125 273.484375 318.503906 C 276.304688 325.539062 285.191406 345.886719 293.429688 345.492188 C 303.386719 345.023438 292.007812 310.945312 292.007812 310.945312 C 292.007812 310.945312 307.652344 330.347656 311.921875 327.035156 C 316.1875 323.722656 299.117188 282.539062 299.117188 282.539062 C 299.117188 282.539062 310.023438 294.375 312.394531 283.488281"/><path fill="#11100E" d="M 250.699219 183.871094 C 250.699219 215.90625 224.6875 241.875 192.601562 241.875 C 160.515625 241.875 134.503906 215.90625 134.503906 183.871094 C 134.503906 151.835938 160.515625 125.867188 192.601562 125.867188 C 224.6875 125.867188 250.699219 151.835938 250.699219 183.871094"/><path fill="#FFF" d="M 242.117188 175.703125 C 245.886719 202.996094 226.789062 228.1875 199.449219 231.960938 C 172.089844 235.734375 146.871094 216.65625 143.085938 189.351562 C 139.324219 162.050781 158.417969 136.859375 185.769531 133.101562 C 213.109375 129.324219 238.339844 148.40625 242.117188 175.703125"/><path fill="#4B88CF" d="M 232.363281 179.238281 C 235.324219 200.601562 220.363281 220.308594 198.96875 223.265625 C 177.566406 226.210938 157.828125 211.285156 154.867188 189.914062 C 151.910156 168.550781 166.867188 148.84375 188.265625 145.886719 C 209.664062 142.9375 229.410156 157.867188 232.363281 179.238281"/><path fill="#1D3D65" d="M 222.316406 180.621094 C 224.621094 197.238281 212.984375 212.566406 196.34375 214.863281 C 179.699219 217.152344 164.351562 205.546875 162.046875 188.929688 C 159.753906 172.3125 171.378906 156.976562 188.023438 154.679688 C 204.667969 152.390625 220.027344 164.003906 222.316406 180.621094"/><path fill="#15293D" d="M 208.953125 183.996094 C 208.953125 192.535156 202.015625 199.457031 193.464844 199.457031 C 184.914062 199.457031 177.980469 192.535156 177.980469 183.996094 C 177.980469 175.457031 184.914062 168.53125 193.464844 168.53125 C 202.015625 168.53125 208.953125 175.457031 208.953125 183.996094"/><path fill="#FFF" d="M 221.15625 160.691406 C 222.078125 167.425781 217.375 173.628906 210.632812 174.558594 C 203.894531 175.480469 197.675781 170.785156 196.75 164.054688 C 195.824219 157.335938 200.53125 151.128906 207.273438 150.203125 C 214.003906 149.269531 220.222656 153.96875 221.15625 160.691406"/><path fill="#FFF" d="M 226.523438 180.875 C 226.523438 183.773438 224.171875 186.121094 221.269531 186.121094 C 218.371094 186.121094 216.019531 183.773438 216.019531 180.875 C 216.019531 177.976562 218.371094 175.628906 221.269531 175.628906 C 224.171875 175.628906 226.523438 177.976562 226.523438 180.875"/><path fill="#8CBACA" d="M 230.414062 71.328125 L 142.496094 71.328125 C 114.140625 71.328125 90.328125 90.773438 83.710938 117.039062 C 87.707031 147.757812 91.898438 181.960938 93.257812 200.097656 C 96.105469 237.96875 144.472656 216.195312 122.660156 168.851562 C 100.847656 121.507812 144.472656 67.542969 146.367188 107.308594 C 148.261719 147.074219 172.921875 208.617188 181.453125 158.4375 C 189.992188 108.253906 213.699219 95.945312 209.90625 110.148438 C 206.113281 124.347656 200.421875 144.234375 215.59375 144.234375 C 230.769531 144.234375 237.40625 140.445312 228.875 121.507812 C 220.335938 102.574219 248.785156 89.316406 255.425781 109.199219 C 262.066406 129.082031 239.304688 166.011719 256.375 188.734375 C 273.445312 211.457031 286.722656 187.789062 279.136719 151.808594 C 271.550781 115.828125 281.980469 119.617188 290.515625 140.445312 C 290.6875 140.871094 290.863281 141.234375 291.035156 141.546875 L 291.035156 131.851562 C 291.035156 98.425781 263.894531 71.328125 230.414062 71.328125"/><path fill="#B8E0E7" d="M 117.039062 185.035156 C 117.039062 185.035156 115.140625 194.976562 113.722656 204.441406 C 112.300781 213.90625 120.832031 209.175781 121.308594 200.65625 C 121.78125 192.136719 117.039062 185.035156 117.039062 185.035156"/><path fill="#FFF" d="M 126.25 224.003906 C 126.25 224.003906 111.015625 241.835938 117.054688 248.640625 C 123.097656 255.441406 144.78125 252.449219 144.78125 252.449219 C 144.78125 252.449219 133.339844 242.128906 132.25 239.34375 C 131.160156 236.550781 126.25 224.003906 126.25 224.003906"/><path fill="#FFF" d="M 260.753906 227.789062 C 260.753906 227.789062 275.992188 245.621094 269.949219 252.425781 C 263.90625 259.226562 242.222656 256.238281 242.222656 256.238281 C 242.222656 256.238281 253.664062 245.914062 254.757812 243.128906 C 255.847656 240.339844 260.753906 227.789062 260.753906 227.789062"/><path fill="#B8E0E7" d="M 256.425781 169.414062 C 256.425781 169.414062 252.160156 189.296875 260.691406 188.347656 C 269.226562 187.402344 256.425781 169.414062 256.425781 169.414062"/><path fill="#B8E0E7" d="M 210.910156 131.074219 C 210.910156 131.074219 206.644531 136.753906 211.859375 138.175781 C 217.074219 139.59375 210.910156 131.074219 210.910156 131.074219"/><path fill="#2F4658" d="M 215.179688 73.328125 C 215.179688 73.328125 197.636719 25.046875 188.15625 22.207031 C 178.671875 19.367188 195.269531 50.605469 195.269531 50.605469 C 195.269531 50.605469 152.597656 14.160156 139.324219 17 C 126.046875 19.839844 170.613281 40.664062 170.613281 40.664062 C 170.613281 40.664062 119.410156 31.199219 109.929688 41.140625 C 100.445312 51.078125 156.390625 55.335938 156.390625 55.335938 C 156.390625 55.335938 106.613281 56.757812 107.558594 66.699219 C 108.507812 76.640625 154.019531 74.746094 154.019531 74.746094 C 154.019531 74.746094 144.066406 87.527344 147.855469 90.367188 C 151.648438 93.207031 164.449219 80.425781 164.449219 80.425781 C 164.449219 80.425781 158.761719 100.304688 166.820312 103.621094 C 174.878906 106.933594 187.679688 83.265625 187.679688 83.265625 C 187.679688 83.265625 188.628906 99.832031 193.371094 100.304688 C 198.113281 100.777344 208.539062 78.058594 208.539062 78.058594 C 208.539062 78.058594 211.863281 88 215.652344 85.632812 C 219.445312 83.265625 215.179688 73.328125 215.179688 73.328125"/><path fill="#F36378" d="M 180.09375 270.234375 C 180.09375 270.234375 167.769531 304.316406 189.578125 306.683594 C 211.386719 309.050781 211.859375 269.761719 211.859375 269.761719 L 180.09375 270.234375"/><path fill="#13100E" d="M 194.554688 268.816406 C 156.832031 268.816406 126.039062 242.382812 124.234375 209.175781 C 124.183594 210.195312 124.152344 211.21875 124.152344 212.25 C 124.152344 246.890625 155.671875 274.96875 194.554688 274.96875 C 233.4375 274.96875 264.957031 246.890625 264.957031 212.25 C 264.957031 211.21875 264.929688 210.195312 264.871094 209.175781 C 263.074219 242.382812 232.28125 268.816406 194.554688 268.816406"/><path fill="#396E8C" d="M 109.929688 272.128906 C 109.929688 276.3125 106.53125 279.699219 102.34375 279.699219 C 98.15625 279.699219 94.757812 276.3125 94.757812 272.128906 C 94.757812 267.945312 98.15625 264.554688 102.34375 264.554688 C 106.53125 264.554688 109.929688 267.945312 109.929688 272.128906"/><path fill="#396E8C" d="M 118.464844 273.074219 C 118.464844 274.640625 117.191406 275.914062 115.621094 275.914062 C 114.046875 275.914062 112.773438 274.640625 112.773438 273.074219 C 112.773438 271.507812 114.046875 270.234375 115.621094 270.234375 C 117.191406 270.234375 118.464844 271.507812 118.464844 273.074219"/><path fill="#396E8C" d="M 108.507812 248.460938 C 108.507812 250.289062 107.019531 251.773438 105.1875 251.773438 C 103.355469 251.773438 101.871094 250.289062 101.871094 248.460938 C 101.871094 246.632812 103.355469 245.148438 105.1875 245.148438 C 107.019531 245.148438 108.507812 246.632812 108.507812 248.460938"/><path fill="#396E8C" d="M 121.78125 294.847656 C 121.78125 299.03125 118.382812 302.421875 114.195312 302.421875 C 110.007812 302.421875 106.613281 299.03125 106.613281 294.847656 C 106.613281 290.667969 110.007812 287.273438 114.195312 287.273438 C 118.382812 287.273438 121.78125 290.667969 121.78125 294.847656"/><path fill="#396E8C" d="M 272.546875 280.175781 C 272.546875 284.359375 275.941406 287.746094 280.128906 287.746094 C 284.320312 287.746094 287.714844 284.359375 287.714844 280.175781 C 287.714844 275.992188 284.320312 272.601562 280.128906 272.601562 C 275.941406 272.601562 272.546875 275.992188 272.546875 280.175781"/><path fill="#396E8C" d="M 264.011719 281.121094 C 264.011719 282.691406 265.285156 283.960938 266.855469 283.960938 C 268.425781 283.960938 269.699219 282.691406 269.699219 281.121094 C 269.699219 279.554688 268.425781 278.28125 266.855469 278.28125 C 265.285156 278.28125 264.011719 279.554688 264.011719 281.121094"/><path fill="#396E8C" d="M 273.964844 256.511719 C 273.964844 258.335938 275.453125 259.820312 277.289062 259.820312 C 279.121094 259.820312 280.605469 258.335938 280.605469 256.511719 C 280.605469 254.675781 279.121094 253.195312 277.289062 253.195312 C 275.453125 253.195312 273.964844 254.675781 273.964844 256.511719"/><path fill="#396E8C" d="M 260.691406 302.894531 C 260.691406 307.078125 264.085938 310.46875 268.277344 310.46875 C 272.46875 310.46875 275.863281 307.078125 275.863281 302.894531 C 275.863281 298.710938 272.46875 295.320312 268.277344 295.320312 C 264.085938 295.320312 260.691406 298.710938 260.691406 302.894531"/></svg>