<svg xmlns="http://www.w3.org/2000/svg" width="125" viewBox="-15 -15 400 400" height="125" version="1.0"><path fill="#61CAC8" d="M 251.738281 90.492188 C 251.738281 90.492188 285.195312 98.035156 290.773438 92.460938 C 296.351562 86.882812 280.277344 80.320312 282.898438 76.382812 C 285.523438 72.445312 315.703125 78.683594 316.6875 80.976562 C 317.277344 82.355469 311.375 82.316406 305.847656 82.277344 C 302.164062 82.25 298.644531 82.222656 297.332031 82.617188 C 294.050781 83.601562 311.4375 92.460938 311.113281 104.601562 C 310.785156 116.738281 274.695312 124.285156 260.921875 116.410156 C 247.144531 108.535156 251.738281 90.492188 251.738281 90.492188"/><path fill="#53C5BE" d="M 297.332031 82.617188 C 300.34375 81.714844 314.964844 83.023438 316.582031 81.464844 C 307.933594 79.457031 288.183594 76.78125 292.828125 82.492188 C 298.566406 89.542969 304.308594 101.351562 289.878906 105.453125 C 278.945312 108.558594 260.011719 104.699219 251.472656 102.644531 C 252.398438 107.605469 254.910156 112.976562 260.921875 116.410156 C 274.695312 124.285156 310.785156 116.738281 311.113281 104.601562 C 311.4375 92.460938 294.050781 83.601562 297.332031 82.617188"/><path fill="#347AA9" d="M 290.773438 92.460938 C 290.472656 92.757812 290.097656 93.019531 289.644531 93.246094 C 293.417969 98.242188 301.15625 107.230469 309.242188 109.144531 C 310.398438 107.726562 311.066406 106.203125 311.113281 104.601562 C 311.21875 100.648438 309.449219 97.050781 307.128906 93.957031 C 301.792969 92.921875 295.445312 91.558594 291.925781 90.332031 C 291.824219 91.054688 291.464844 91.761719 290.773438 92.460938"/><path fill="#347AA9" d="M 289.863281 75.136719 C 291.933594 77.679688 295.105469 80.539062 297.515625 82.566406 C 298.949219 82.226562 302.3125 82.25 305.835938 82.277344 C 304.390625 80.621094 303.375 78.636719 302.65625 76.742188 C 298.253906 75.914062 293.582031 75.277344 289.863281 75.136719"/><path fill="#347AA9" d="M 288.355469 118.558594 C 280.886719 111.769531 278.570312 101.074219 277.871094 94.410156 C 272.660156 94.128906 266.824219 93.300781 261.988281 92.476562 L 261.996094 92.660156 C 262.5 105.5 265.019531 113.679688 268.113281 118.890625 C 274.085938 120.03125 281.433594 119.808594 288.355469 118.558594"/><path fill="#2B698C" d="M 280.65625 106.652344 C 276.546875 106.984375 266.714844 105.488281 263.28125 104.929688 C 264.414062 111.070312 266.144531 115.578125 268.113281 118.890625 C 274.085938 120.03125 281.433594 119.808594 288.355469 118.558594 C 284.683594 115.21875 282.257812 110.9375 280.65625 106.652344"/><path fill="#2B698C" d="M 298.574219 92.152344 C 298.839844 93.054688 299.164062 94.589844 299.03125 96.417969 C 298.875 98.519531 297.609375 100.511719 296.898438 101.484375 C 300.515625 104.945312 304.828125 108.101562 309.242188 109.144531 C 310.398438 107.726562 311.066406 106.203125 311.113281 104.601562 C 311.21875 100.648438 309.449219 97.050781 307.128906 93.957031 C 304.371094 93.421875 301.34375 92.796875 298.574219 92.152344"/><path fill="#2B698C" d="M 294.390625 79.816406 C 295.472656 80.816406 296.554688 81.757812 297.515625 82.566406 C 298.949219 82.226562 302.3125 82.25 305.835938 82.277344 C 305.09375 81.425781 304.464844 80.492188 303.933594 79.523438 C 301.21875 79.386719 296.605469 79.664062 294.390625 79.816406"/><path fill="#78D2D0" d="M 282.691406 98.996094 C 281.5 98.996094 280.109375 98.949219 278.511719 98.835938 C 278.40625 98.257812 278.308594 97.691406 278.226562 97.144531 C 279.65625 97.246094 280.988281 97.304688 282.164062 97.304688 C 282.4375 97.304688 282.703125 97.300781 282.957031 97.296875 C 283.261719 97.285156 283.550781 97.285156 283.828125 97.285156 C 286.792969 97.285156 288.285156 97.710938 288.148438 98.140625 C 288.011719 98.566406 286.246094 98.996094 282.691406 98.996094 M 262.199219 96.242188 C 257.816406 95.074219 255.84375 94.015625 255.84375 94.015625 C 255.84375 94.015625 258.433594 94.5 262.121094 95.097656 C 262.144531 95.480469 262.171875 95.867188 262.199219 96.242188"/><path fill="#4E95B8" d="M 278.511719 98.835938 C 277.683594 98.78125 276.796875 98.703125 275.851562 98.609375 C 269.894531 98.007812 265.402344 97.097656 262.199219 96.242188 C 262.171875 95.867188 262.144531 95.480469 262.121094 95.097656 C 266.746094 95.847656 273.097656 96.773438 278.226562 97.144531 C 278.308594 97.691406 278.40625 98.257812 278.511719 98.835938"/><path fill="#61CAC8" d="M 170.125 65.277344 C 170.125 65.277344 136.667969 72.820312 131.089844 67.246094 C 125.515625 61.667969 141.585938 55.105469 138.960938 51.167969 C 136.339844 47.230469 106.160156 53.46875 105.171875 55.761719 C 104.582031 57.140625 110.492188 57.101562 116.015625 57.0625 C 119.699219 57.035156 123.214844 57.007812 124.527344 57.402344 C 127.808594 58.386719 110.425781 67.246094 110.753906 79.386719 C 111.082031 91.523438 147.164062 99.070312 160.941406 91.195312 C 174.71875 83.324219 170.125 65.277344 170.125 65.277344"/><path fill="#53C5BE" d="M 124.527344 57.402344 C 121.519531 56.5 106.898438 57.808594 105.28125 56.25 C 113.929688 54.242188 133.683594 51.566406 129.035156 57.277344 C 123.292969 64.328125 117.554688 76.136719 131.988281 80.238281 C 142.917969 83.34375 161.855469 79.484375 170.390625 77.429688 C 169.460938 82.390625 166.949219 87.761719 160.941406 91.195312 C 147.164062 99.070312 111.082031 91.523438 110.753906 79.386719 C 110.425781 67.246094 127.808594 58.386719 124.527344 57.402344"/><path fill="#347AA9" d="M 131.089844 67.246094 C 131.386719 67.542969 131.769531 67.804688 132.21875 68.03125 C 128.441406 73.027344 120.707031 82.015625 112.621094 83.929688 C 111.460938 82.511719 110.792969 80.988281 110.753906 79.386719 C 110.644531 75.433594 112.410156 71.835938 114.730469 68.738281 C 120.066406 67.707031 126.421875 66.34375 129.9375 65.117188 C 130.035156 65.839844 130.394531 66.546875 131.089844 67.246094"/><path fill="#347AA9" d="M 132 49.921875 C 129.933594 52.464844 126.753906 55.324219 124.347656 57.351562 C 122.910156 57.011719 119.546875 57.035156 116.027344 57.0625 C 117.46875 55.40625 118.488281 53.421875 119.203125 51.527344 C 123.605469 50.703125 128.285156 50.0625 132 49.921875"/><path fill="#347AA9" d="M 133.511719 93.34375 C 140.976562 86.554688 143.289062 75.859375 143.996094 69.195312 C 149.199219 68.914062 155.039062 68.085938 159.871094 67.265625 L 159.863281 67.445312 C 159.359375 80.285156 156.84375 88.464844 153.75 93.675781 C 147.777344 94.816406 140.429688 94.59375 133.511719 93.34375"/><path fill="#2B698C" d="M 141.207031 81.4375 C 145.320312 81.769531 155.148438 80.273438 158.578125 79.714844 C 157.449219 85.855469 155.714844 90.363281 153.75 93.675781 C 147.777344 94.816406 140.429688 94.59375 133.511719 93.34375 C 137.183594 90 139.609375 85.722656 141.207031 81.4375"/><path fill="#2B698C" d="M 123.292969 66.9375 C 123.023438 67.839844 122.695312 69.378906 122.828125 71.207031 C 122.984375 73.304688 124.25 75.296875 124.964844 76.269531 C 121.347656 79.730469 117.035156 82.886719 112.621094 83.929688 C 111.460938 82.511719 110.792969 80.988281 110.753906 79.386719 C 110.644531 75.433594 112.410156 71.835938 114.730469 68.738281 C 117.492188 68.207031 120.523438 67.585938 123.292969 66.9375"/><path fill="#2B698C" d="M 127.476562 54.601562 C 126.390625 55.601562 125.304688 56.542969 124.347656 57.351562 C 122.910156 57.011719 119.546875 57.035156 116.027344 57.0625 C 116.769531 56.210938 117.398438 55.277344 117.929688 54.308594 C 120.640625 54.171875 125.253906 54.449219 127.476562 54.601562"/><path fill="#78D2D0" d="M 139.175781 73.78125 C 135.613281 73.78125 133.851562 73.351562 133.714844 72.925781 C 133.578125 72.496094 135.070312 72.070312 138.03125 72.070312 C 138.308594 72.070312 138.601562 72.070312 138.902344 72.082031 C 139.160156 72.085938 139.425781 72.089844 139.699219 72.089844 C 140.871094 72.089844 142.210938 72.03125 143.640625 71.929688 C 143.550781 72.476562 143.457031 73.042969 143.347656 73.621094 C 141.75 73.734375 140.363281 73.78125 139.175781 73.78125 M 159.664062 71.027344 C 159.695312 70.652344 159.71875 70.269531 159.742188 69.882812 C 163.425781 69.285156 166.019531 68.800781 166.019531 68.800781 C 166.019531 68.800781 164.050781 69.859375 159.664062 71.027344"/><path fill="#4E95B8" d="M 143.347656 73.621094 C 143.457031 73.042969 143.550781 72.476562 143.640625 71.929688 C 148.761719 71.558594 155.117188 70.632812 159.742188 69.882812 C 159.71875 70.269531 159.695312 70.652344 159.664062 71.027344 C 156.457031 71.882812 151.964844 72.792969 146.007812 73.394531 C 145.066406 73.488281 144.179688 73.566406 143.347656 73.621094"/><path fill="#8F4FAD" d="M 132.003906 190.523438 C 132.003906 190.523438 98.238281 202.683594 76.628906 186.472656 C 55.019531 170.261719 65.824219 139.644531 91.933594 124.789062 C 118.046875 109.929688 122.097656 90.117188 111.746094 83.363281 C 101.390625 76.609375 101.390625 76.609375 101.390625 76.609375 L 119.847656 57.25 L 67.171875 54.546875 C 67.171875 54.546875 69.875 96.871094 71.226562 96.871094 C 72.578125 96.871094 96.4375 82.015625 96.4375 82.015625 C 96.4375 82.015625 107.691406 88.765625 104.089844 96.871094 C 100.488281 104.976562 66.273438 115.332031 40.164062 151.351562 C 14.046875 187.375 10.898438 290.484375 136.054688 276.078125 C 261.210938 261.667969 132.003906 190.523438 132.003906 190.523438"/><path fill="#EA2872" d="M 121.648438 171.164062 C 121.648438 171.164062 45.113281 236.003906 106.339844 252.210938 C 167.570312 268.421875 121.648438 171.164062 121.648438 171.164062"/><path fill="#EA2872" d="M 280.734375 172.769531 C 280.734375 172.769531 364.347656 228.183594 305.441406 251.460938 C 246.539062 274.746094 280.734375 172.769531 280.734375 172.769531"/><path fill="#EF3077" d="M 97.339844 320.652344 C 97.339844 320.652344 113.542969 274.277344 113.09375 222.042969 C 112.644531 169.816406 118.949219 118.933594 148.210938 81.5625 C 177.472656 44.191406 221.144531 31.585938 222.042969 36.535156 C 222.945312 41.488281 203.136719 51.84375 203.136719 51.84375 C 203.136719 51.84375 231.949219 43.742188 239.152344 49.144531 C 246.355469 54.546875 227 58.597656 227 58.597656 C 227 58.597656 258.0625 61.300781 263.015625 73.457031 C 267.964844 85.613281 247.707031 82.460938 247.707031 82.460938 C 247.707031 82.460938 267.964844 103.175781 281.921875 162.160156 C 295.878906 221.144531 308.484375 284.628906 308.484375 285.980469 C 308.484375 287.335938 317.039062 312.996094 317.039062 312.996094 C 317.039062 312.996094 336.398438 311.199219 337.296875 316.597656 C 338.199219 322.003906 303.984375 323.804688 303.984375 323.804688 C 303.984375 323.804688 328.746094 301.742188 257.613281 300.839844 C 186.480469 299.941406 107.242188 312.996094 107.242188 321.101562 C 107.242188 329.207031 109.945312 335.960938 109.945312 335.960938 C 109.945312 335.960938 77.527344 343.617188 72.578125 333.257812 C 67.625 322.902344 97.339844 320.652344 97.339844 320.652344"/><path fill="#C0127E" d="M 141.757812 203.882812 C 141.757812 203.882812 152.261719 196.378906 157.96875 205.386719 C 163.667969 214.390625 171.472656 232.703125 159.765625 236.003906 C 148.058594 239.304688 141.757812 203.882812 141.757812 203.882812"/><path fill="#AD1561" d="M 113.847656 256.113281 C 104.84375 247.707031 94.9375 222.492188 101.839844 210.488281 C 108.742188 198.480469 132.457031 190.675781 133.953125 191.277344 C 135.457031 191.875 140.257812 202.082031 140.257812 202.082031 C 140.257812 202.082031 149.261719 199.980469 151.960938 204.1875 C 154.664062 208.386719 149.5625 216.488281 149.5625 216.488281 C 149.5625 216.488281 158.265625 221.59375 159.164062 231.5 C 160.066406 241.402344 166.972656 254.3125 147.160156 260.019531 C 127.351562 265.71875 122.851562 264.519531 113.847656 256.113281"/><path fill="#C0127E" d="M 272.183594 202.382812 C 272.183594 202.382812 261.679688 194.878906 255.976562 203.882812 C 250.273438 212.886719 242.46875 231.199219 254.175781 234.503906 C 265.882812 237.804688 272.183594 202.382812 272.183594 202.382812"/><path fill="#AD1561" d="M 300.097656 254.613281 C 309.101562 246.207031 319.007812 220.996094 312.101562 208.988281 C 305.199219 196.980469 281.488281 189.175781 279.984375 189.773438 C 278.488281 190.375 273.6875 200.582031 273.6875 200.582031 C 273.6875 200.582031 264.679688 198.480469 261.980469 202.683594 C 259.277344 206.886719 264.382812 214.988281 264.382812 214.988281 C 264.382812 214.988281 255.675781 220.09375 254.777344 230 C 253.875 239.90625 246.972656 252.8125 266.78125 258.515625 C 286.589844 264.21875 291.09375 263.019531 300.097656 254.613281"/><path fill="#34141A" d="M 250.109375 126.738281 C 250.109375 126.738281 181.976562 128.839844 159.464844 132.441406 C 136.957031 136.042969 168.46875 219.492188 177.773438 225.496094 C 187.078125 231.5 205.085938 198.78125 235.101562 196.078125 C 265.113281 193.378906 243.507812 174.164062 243.804688 159.15625 C 244.105469 144.148438 250.109375 126.738281 250.109375 126.738281"/><path fill="#FFF" d="M 161.0625 132.199219 L 175.671875 158.859375 L 177.179688 130.496094 C 170.902344 131.015625 165.332031 131.585938 161.0625 132.199219"/><path fill="#FFF" d="M 213.042969 128.246094 C 208.585938 128.46875 203.996094 128.710938 199.421875 128.976562 L 205.085938 152.554688 L 213.042969 128.246094"/><path fill="#FFF" d="M 230.164062 127.476562 C 229.957031 136.554688 229.628906 154.203125 230.300781 153.753906 C 230.914062 153.34375 236.710938 137.242188 240.324219 127.078125 C 237.414062 127.1875 233.972656 127.320312 230.164062 127.476562"/><path fill="#F46EAC" d="M 237.347656 195.828125 C 231.335938 179.59375 213.992188 167.859375 193.53125 167.859375 C 179.238281 167.859375 166.464844 173.585938 158.015625 182.574219 C 164.28125 203.085938 173.441406 222.699219 177.773438 225.496094 C 187.078125 231.5 205.085938 198.78125 235.101562 196.078125 C 235.886719 196.007812 236.628906 195.921875 237.347656 195.828125"/><path fill="#FFF" d="M 230.898438 168.464844 L 234.695312 196.125 C 234.828125 196.109375 234.964844 196.09375 235.101562 196.078125 C 239.5625 195.675781 242.875 194.910156 245.296875 193.84375 C 239.253906 182.460938 230.898438 168.464844 230.898438 168.464844"/><path fill="#FFF" d="M 184.976562 184.371094 L 188.121094 222.640625 C 190.976562 220.5625 194.191406 217.773438 197.800781 214.773438 L 184.976562 184.371094"/><path fill="#FFF" d="M 210.789062 169.960938 L 211.023438 204.898438 C 214.605469 202.632812 218.449219 200.59375 222.570312 199.027344 L 210.789062 169.960938"/><path fill="#FFF" d="M 202.984375 100.921875 L 173.871094 65.503906 L 162.167969 106.328125 L 202.085938 105.425781 L 202.984375 100.921875"/><path fill="#FFF" d="M 208.988281 100.921875 L 238.101562 65.503906 L 249.808594 106.328125 L 209.890625 105.425781 L 208.988281 100.921875"/><path fill="#AD1561" d="M 217.992188 103.621094 C 217.992188 106.9375 212.886719 109.628906 206.585938 109.628906 C 200.289062 109.628906 195.179688 106.9375 195.179688 103.621094 C 195.179688 100.308594 200.289062 97.621094 206.585938 97.621094 C 212.886719 97.621094 217.992188 100.308594 217.992188 103.621094"/><path fill="#11100E" d="M 192.097656 94.980469 C 192.097656 99.933594 188.085938 103.945312 183.136719 103.945312 C 178.191406 103.945312 174.175781 99.933594 174.175781 94.980469 C 174.175781 90.03125 178.191406 86.015625 183.136719 86.015625 C 188.085938 86.015625 192.097656 90.03125 192.097656 94.980469"/><path fill="#FFF" d="M 190.773438 93.71875 C 191.355469 97.9375 188.410156 101.828125 184.195312 102.410156 C 179.972656 102.992188 176.082031 100.046875 175.5 95.824219 C 174.921875 91.609375 177.863281 87.714844 182.082031 87.136719 C 186.300781 86.550781 190.191406 89.5 190.773438 93.71875"/><path fill="#4B88CF" d="M 189.269531 94.265625 C 189.726562 97.566406 187.421875 100.609375 184.117188 101.070312 C 180.820312 101.519531 177.773438 99.214844 177.320312 95.914062 C 176.863281 92.617188 179.167969 89.566406 182.46875 89.113281 C 185.769531 88.65625 188.8125 90.960938 189.269531 94.265625"/><path fill="#1D3D65" d="M 187.722656 94.480469 C 188.078125 97.046875 186.28125 99.414062 183.714844 99.769531 C 181.144531 100.121094 178.78125 98.328125 178.421875 95.761719 C 178.070312 93.191406 179.863281 90.824219 182.433594 90.46875 C 185 90.117188 187.367188 91.910156 187.722656 94.480469"/><path fill="#15293D" d="M 185.660156 95 C 185.660156 96.320312 184.589844 97.386719 183.273438 97.386719 C 181.953125 97.386719 180.878906 96.320312 180.878906 95 C 180.878906 93.679688 181.953125 92.609375 183.273438 92.609375 C 184.589844 92.609375 185.660156 93.679688 185.660156 95"/><path fill="#FFF" d="M 187.539062 91.398438 C 187.683594 92.441406 186.960938 93.394531 185.921875 93.539062 C 184.878906 93.683594 183.921875 92.960938 183.777344 91.917969 C 183.632812 90.878906 184.363281 89.921875 185.402344 89.777344 C 186.4375 89.632812 187.398438 90.359375 187.539062 91.398438"/><path fill="#FFF" d="M 188.371094 94.515625 C 188.371094 94.964844 188.007812 95.328125 187.558594 95.328125 C 187.113281 95.328125 186.75 94.964844 186.75 94.515625 C 186.75 94.070312 187.113281 93.707031 187.558594 93.707031 C 188.007812 93.707031 188.371094 94.070312 188.371094 94.515625"/><path fill="#11100E" d="M 234.335938 95.238281 C 234.335938 100.1875 230.324219 104.203125 225.375 104.203125 C 220.425781 104.203125 216.414062 100.1875 216.414062 95.238281 C 216.414062 90.289062 220.425781 86.277344 225.375 86.277344 C 230.324219 86.277344 234.335938 90.289062 234.335938 95.238281"/><path fill="#FFF" d="M 233.015625 93.976562 C 233.597656 98.191406 230.648438 102.085938 226.429688 102.671875 C 222.210938 103.25 218.324219 100.304688 217.738281 96.085938 C 217.15625 91.867188 220.101562 87.976562 224.324219 87.390625 C 228.542969 86.8125 232.429688 89.757812 233.015625 93.976562"/><path fill="#4B88CF" d="M 231.511719 94.523438 C 231.964844 97.824219 229.660156 100.867188 226.359375 101.324219 C 223.054688 101.78125 220.011719 99.476562 219.554688 96.171875 C 219.101562 92.871094 221.40625 89.828125 224.707031 89.367188 C 228.007812 88.914062 231.054688 91.21875 231.511719 94.523438"/><path fill="#1D3D65" d="M 229.957031 94.738281 C 230.316406 97.304688 228.519531 99.671875 225.953125 100.027344 C 223.386719 100.382812 221.015625 98.585938 220.664062 96.019531 C 220.308594 93.453125 222.101562 91.082031 224.667969 90.730469 C 227.238281 90.375 229.605469 92.167969 229.957031 94.738281"/><path fill="#15293D" d="M 227.898438 95.257812 C 227.898438 96.578125 226.828125 97.644531 225.511719 97.644531 C 224.1875 97.644531 223.121094 96.578125 223.121094 95.257812 C 223.121094 93.941406 224.1875 92.867188 225.511719 92.867188 C 226.828125 92.867188 227.898438 93.941406 227.898438 95.257812"/><path fill="#FFF" d="M 229.78125 91.65625 C 229.925781 92.695312 229.195312 93.65625 228.15625 93.800781 C 227.117188 93.941406 226.160156 93.21875 226.015625 92.179688 C 225.871094 91.136719 226.597656 90.179688 227.640625 90.035156 C 228.675781 89.894531 229.636719 90.621094 229.78125 91.65625"/><path fill="#FFF" d="M 230.609375 94.777344 C 230.609375 95.222656 230.246094 95.585938 229.796875 95.585938 C 229.351562 95.585938 228.988281 95.222656 228.988281 94.777344 C 228.988281 94.328125 229.351562 93.964844 229.796875 93.964844 C 230.246094 93.964844 230.609375 94.328125 230.609375 94.777344"/><path fill="#F2579D" d="M 148.210938 162.609375 C 148.210938 168.328125 143.578125 172.964844 137.855469 172.964844 C 132.136719 172.964844 127.5 168.328125 127.5 162.609375 C 127.5 156.890625 132.136719 152.253906 137.855469 152.253906 C 143.578125 152.253906 148.210938 156.890625 148.210938 162.609375"/><path fill="#F2579D" d="M 145.507812 183.546875 C 145.507812 185.164062 144.199219 186.472656 142.582031 186.472656 C 140.964844 186.472656 139.660156 185.164062 139.660156 183.546875 C 139.660156 181.929688 140.964844 180.621094 142.582031 180.621094 C 144.199219 180.621094 145.507812 181.929688 145.507812 183.546875"/><path fill="#F2579D" d="M 187.832031 268.875 C 187.832031 272.847656 184.605469 276.078125 180.628906 276.078125 C 176.648438 276.078125 173.421875 272.847656 173.421875 268.875 C 173.421875 264.890625 176.648438 261.667969 180.628906 261.667969 C 184.605469 261.667969 187.832031 264.890625 187.832031 268.875"/><path fill="#F2579D" d="M 158.566406 278.550781 C 158.566406 280.167969 157.253906 281.480469 155.640625 281.480469 C 154.023438 281.480469 152.710938 280.167969 152.710938 278.550781 C 152.710938 276.9375 154.023438 275.625 155.640625 275.625 C 157.253906 275.625 158.566406 276.9375 158.566406 278.550781"/><path fill="#F2579D" d="M 139.207031 285.078125 C 139.207031 289.558594 135.582031 293.1875 131.101562 293.1875 C 126.628906 293.1875 123 289.558594 123 285.078125 C 123 280.605469 126.628906 276.976562 131.101562 276.976562 C 135.582031 276.976562 139.207031 280.605469 139.207031 285.078125"/><path fill="#F2579D" d="M 143.257812 289.582031 C 143.257812 290.578125 142.453125 291.382812 141.460938 291.382812 C 140.464844 291.382812 139.660156 290.578125 139.660156 289.582031 C 139.660156 288.589844 140.464844 287.78125 141.460938 287.78125 C 142.453125 287.78125 143.257812 288.589844 143.257812 289.582031"/><path fill="#F2579D" d="M 150.914062 116.230469 C 150.914062 118.71875 148.898438 120.734375 146.410156 120.734375 C 143.921875 120.734375 141.910156 118.71875 141.910156 116.230469 C 141.910156 113.746094 143.921875 111.730469 146.410156 111.730469 C 148.898438 111.730469 150.914062 113.746094 150.914062 116.230469"/><path fill="#B280C7" d="M 76.628906 247.933594 C 76.628906 251.789062 73.503906 254.914062 69.648438 254.914062 C 65.796875 254.914062 62.671875 251.789062 62.671875 247.933594 C 62.671875 244.082031 65.796875 240.953125 69.648438 240.953125 C 73.503906 240.953125 76.628906 244.082031 76.628906 247.933594"/><path fill="#B280C7" d="M 67.625 206.507812 C 67.625 207.875 66.515625 208.988281 65.148438 208.988281 C 63.777344 208.988281 62.671875 207.875 62.671875 206.507812 C 62.671875 205.140625 63.777344 204.03125 65.148438 204.03125 C 66.515625 204.03125 67.625 205.140625 67.625 206.507812"/><path fill="#B280C7" d="M 54.570312 215.066406 C 54.570312 217.179688 52.855469 218.894531 50.742188 218.894531 C 48.625 218.894531 46.914062 217.179688 46.914062 215.066406 C 46.914062 212.949219 48.625 211.238281 50.742188 211.238281 C 52.855469 211.238281 54.570312 212.949219 54.570312 215.066406"/><path fill="#B280C7" d="M 52.316406 176.339844 C 52.316406 179.699219 49.59375 182.421875 46.238281 182.421875 C 42.882812 182.421875 40.164062 179.699219 40.164062 176.339844 C 40.164062 172.984375 42.882812 170.261719 46.238281 170.261719 C 49.59375 170.261719 52.316406 172.984375 52.316406 176.339844"/><path fill="#B280C7" d="M 62.222656 179.269531 C 62.222656 180.761719 61.011719 181.972656 59.519531 181.972656 C 58.027344 181.972656 56.820312 180.761719 56.820312 179.269531 C 56.820312 177.777344 58.027344 176.566406 59.519531 176.566406 C 61.011719 176.566406 62.222656 177.777344 62.222656 179.269531"/><path fill="#B280C7" d="M 55.46875 146.625 C 55.46875 147.746094 54.5625 148.652344 53.441406 148.652344 C 52.324219 148.652344 51.414062 147.746094 51.414062 146.625 C 51.414062 145.507812 52.324219 144.601562 53.441406 144.601562 C 54.5625 144.601562 55.46875 145.507812 55.46875 146.625"/><path fill="#B280C7" d="M 64.921875 134.46875 C 64.921875 136.332031 63.410156 137.847656 61.546875 137.847656 C 59.683594 137.847656 58.171875 136.332031 58.171875 134.46875 C 58.171875 132.601562 59.683594 131.09375 61.546875 131.09375 C 63.410156 131.09375 64.921875 132.601562 64.921875 134.46875"/><path fill="#B280C7" d="M 80.679688 124.113281 C 80.679688 125.726562 79.371094 127.039062 77.753906 127.039062 C 76.136719 127.039062 74.828125 125.726562 74.828125 124.113281 C 74.828125 122.496094 76.136719 121.183594 77.753906 121.183594 C 79.371094 121.183594 80.679688 122.496094 80.679688 124.113281"/><path fill="#B280C7" d="M 63.125 145.949219 C 63.125 146.695312 62.519531 147.300781 61.769531 147.300781 C 61.023438 147.300781 60.417969 146.695312 60.417969 145.949219 C 60.417969 145.203125 61.023438 144.601562 61.769531 144.601562 C 62.519531 144.601562 63.125 145.203125 63.125 145.949219"/></svg>