<svg xmlns="http://www.w3.org/2000/svg" width="125" viewBox="-15 -15 400 400" height="125" version="1.0"><defs><clipPath id="a"><path d="M 261 77 L 309.835938 77 L 309.835938 130 L 261 130 Z M 261 77"/></clipPath></defs><path fill="#9B68BB" d="M 181.214844 200.824219 L 212.003906 175.453125 L 228.492188 225.222656 C 228.492188 225.222656 216.3125 226.863281 217.511719 234.058594 C 218.714844 241.25 230.007812 229.636719 230.007812 229.636719 C 230.007812 229.636719 225.28125 250.269531 233.292969 246.984375 C 241.308594 243.703125 234.300781 229.699219 234.300781 229.699219 C 234.300781 229.699219 249.132812 239.28125 248.816406 230.386719 C 248.496094 221.496094 232.78125 222.949219 232.78125 222.949219 C 232.78125 222.949219 218.1875 172.867188 214.082031 169.269531 C 209.980469 165.675781 182.851562 189.65625 182.851562 189.65625 L 181.214844 200.824219"/><path fill="#2D2155" d="M 195.050781 206.285156 C 195.050781 206.285156 191.980469 199.761719 188.140625 171.746094 C 184.304688 143.738281 228.453125 118.027344 228.453125 118.027344 C 228.453125 118.027344 211.558594 98.835938 204.648438 91.164062 C 197.738281 83.488281 183.535156 85.410156 182 86.941406 C 180.460938 88.480469 123.265625 152.945312 128.253906 178.65625 C 133.246094 204.363281 130.945312 236.980469 155.894531 238.136719 C 180.847656 239.285156 198.890625 219.332031 198.890625 219.332031 L 205.800781 206.285156 L 198.890625 205.132812 L 195.050781 206.285156"/><path fill="#F5D62A" d="M 231.078125 116.199219 C 231.078125 116.199219 232.757812 130.972656 228.214844 132.257812 C 223.671875 133.539062 223.691406 127.292969 221.976562 129.113281 C 220.261719 130.933594 215.242188 133.6875 213.097656 129.570312 C 210.949219 125.449219 222.019531 113.5 222.019531 113.5 L 231.078125 116.199219"/><path fill="#F3BF1B" d="M 231.371094 123.085938 C 231.453125 119.480469 231.078125 116.199219 231.078125 116.199219 L 222.019531 113.5 C 222.019531 113.5 210.949219 125.449219 213.097656 129.570312 C 213.972656 131.25 215.320312 131.785156 216.730469 131.710938 C 216.699219 127.242188 221.691406 118.316406 221.691406 118.316406 C 221.691406 118.316406 220.574219 124.15625 220.550781 125.328125 C 220.519531 126.492188 222.792969 123.800781 223.507812 120.027344 C 224.230469 116.261719 225.695312 119.859375 225.695312 119.859375 C 225.695312 119.859375 223.871094 126.351562 225.511719 124.902344 C 227.15625 123.460938 227.039062 118.945312 228.566406 121.1875 C 229.226562 122.160156 230.332031 122.742188 231.371094 123.085938"/><path fill="#F5D62A" d="M 192.230469 221.039062 C 192.230469 221.039062 194.335938 202.503906 188.636719 200.898438 C 182.9375 199.285156 182.960938 207.121094 180.808594 204.835938 C 178.660156 202.550781 172.363281 199.09375 169.667969 204.261719 C 166.976562 209.429688 180.867188 224.425781 180.867188 224.425781 L 192.230469 221.039062"/><path fill="#F3BF1B" d="M 192.59375 212.398438 C 192.699219 216.917969 192.230469 221.039062 192.230469 221.039062 L 180.867188 224.425781 C 180.867188 224.425781 166.976562 209.429688 169.667969 204.261719 C 170.769531 202.15625 172.464844 201.484375 174.234375 201.578125 C 174.1875 207.1875 180.449219 218.378906 180.449219 218.378906 C 180.449219 218.378906 179.050781 211.050781 179.015625 209.589844 C 178.984375 208.125 181.835938 211.5 182.734375 216.230469 C 183.636719 220.957031 185.472656 216.445312 185.472656 216.445312 C 185.472656 216.445312 183.1875 208.304688 185.246094 210.117188 C 187.304688 211.929688 187.160156 217.59375 189.074219 214.777344 C 189.90625 213.558594 191.292969 212.832031 192.59375 212.398438"/><path fill="#F5D62A" d="M 165.398438 227.015625 C 165.398438 227.015625 171.214844 212.253906 166.890625 209.675781 C 162.558594 207.097656 160.851562 213.542969 159.589844 211.191406 C 158.324219 208.839844 153.914062 204.613281 150.5625 208.265625 C 147.210938 211.914062 155.316406 227.296875 155.316406 227.296875 L 165.398438 227.015625"/><path fill="#F3BF1B" d="M 167.605469 220 C 166.691406 223.738281 165.398438 227.015625 165.398438 227.015625 L 155.316406 227.296875 C 155.316406 227.296875 147.210938 211.914062 150.5625 208.265625 C 151.929688 206.777344 153.472656 206.59375 154.90625 207.0625 C 153.628906 211.660156 156.304688 222.234375 156.304688 222.234375 C 156.304688 222.234375 156.773438 215.90625 157.070312 214.699219 C 157.363281 213.488281 158.960938 216.890625 158.65625 220.976562 C 158.355469 225.058594 160.859375 221.753906 160.859375 221.753906 C 160.859375 221.753906 160.773438 214.5625 162.070312 216.503906 C 163.363281 218.449219 161.996094 223.070312 164.1875 221.179688 C 165.140625 220.355469 166.4375 220.066406 167.605469 220"/><path fill="#F5D62A" d="M 141.53125 211.59375 C 141.53125 211.59375 156.753906 207.109375 156.132812 202.113281 C 155.507812 197.113281 149.371094 199.726562 150.449219 197.28125 C 151.53125 194.84375 152.15625 188.765625 147.214844 188.367188 C 142.273438 187.96875 135.113281 203.8125 135.113281 203.8125 L 141.53125 211.59375"/><path fill="#F3BF1B" d="M 148.425781 209.019531 C 144.917969 210.597656 141.53125 211.59375 141.53125 211.59375 L 135.113281 203.8125 C 135.113281 203.8125 142.273438 187.96875 147.214844 188.367188 C 149.226562 188.53125 150.316406 189.636719 150.828125 191.054688 C 146.414062 192.875 139.714844 201.484375 139.714844 201.484375 C 139.714844 201.484375 145 197.964844 146.132812 197.453125 C 147.269531 196.945312 145.566406 200.292969 142.15625 202.566406 C 138.75 204.832031 142.898438 204.78125 142.898438 204.78125 C 142.898438 204.78125 148.519531 200.292969 147.78125 202.507812 C 147.042969 204.722656 142.554688 206.480469 145.394531 207.050781 C 146.628906 207.296875 147.65625 208.140625 148.425781 209.019531"/><path fill="#F5D62A" d="M 214.984375 113.585938 C 214.984375 113.585938 208.410156 126.921875 203.890625 125.546875 C 199.375 124.171875 202.765625 118.921875 200.335938 119.53125 C 197.910156 120.136719 192.199219 119.742188 192.621094 115.117188 C 193.042969 110.492188 208.824219 106.417969 208.824219 106.417969 L 214.984375 113.585938"/><path fill="#F3BF1B" d="M 211.503906 119.539062 C 213.519531 116.546875 214.984375 113.585938 214.984375 113.585938 L 208.824219 106.417969 C 208.824219 106.417969 193.042969 110.492188 192.621094 115.117188 C 192.449219 117.003906 193.296875 118.183594 194.523438 118.882812 C 196.910156 115.101562 205.9375 110.292969 205.9375 110.292969 C 205.9375 110.292969 201.839844 114.609375 201.1875 115.574219 C 200.535156 116.539062 203.902344 115.5 206.542969 112.71875 C 209.183594 109.9375 208.472656 113.753906 208.472656 113.753906 C 208.472656 113.753906 203.429688 118.230469 205.589844 117.898438 C 207.753906 117.574219 210.097656 113.710938 210.171875 116.425781 C 210.199219 117.601562 210.816406 118.6875 211.503906 119.539062"/><path fill="#F5D62A" d="M 202.179688 101.738281 C 202.179688 101.738281 196.371094 110.984375 193.175781 109.640625 C 189.980469 108.296875 192.855469 104.71875 191.035156 104.980469 C 189.214844 105.242188 185.070312 104.523438 185.726562 101.175781 C 186.382812 97.828125 198.21875 96.035156 198.21875 96.035156 L 202.179688 101.738281"/><path fill="#F3BF1B" d="M 199.191406 105.824219 C 200.890625 103.792969 202.179688 101.738281 202.179688 101.738281 L 198.21875 96.035156 C 198.21875 96.035156 186.382812 97.828125 185.726562 101.175781 C 185.457031 102.539062 185.988281 103.464844 186.835938 104.070312 C 188.863281 101.488281 195.816406 98.652344 195.816406 98.652344 C 195.816406 98.652344 192.503906 101.496094 191.949219 102.152344 C 191.398438 102.8125 193.9375 102.304688 196.078125 100.46875 C 198.21875 98.632812 197.410156 101.371094 197.410156 101.371094 C 197.410156 101.371094 193.390625 104.261719 194.992188 104.183594 C 196.601562 104.105469 198.605469 101.464844 198.449219 103.449219 C 198.382812 104.3125 198.753906 105.152344 199.191406 105.824219"/><path fill="#F03F53" d="M 155.894531 119.558594 C 155.894531 119.558594 166.257812 159.46875 187.375 156.78125 C 208.488281 154.09375 234.976562 125.316406 244.574219 138.363281 C 254.171875 151.410156 249.179688 185.179688 231.90625 183.261719 C 214.628906 181.339844 221.15625 156.78125 221.15625 156.78125 C 221.15625 156.78125 180.460938 195.15625 151.675781 178.269531 C 122.878906 161.390625 143.226562 136.828125 143.226562 136.828125 L 155.894531 119.558594"/><path fill="#EF2E3D" d="M 231.90625 183.261719 C 233.890625 183.480469 235.714844 183.222656 237.371094 182.585938 C 228.203125 177.449219 233.640625 149.398438 224.230469 151.023438 C 214.246094 152.75 189.292969 169.445312 163.765625 164.074219 C 138.238281 158.703125 148.601562 134.140625 148.601562 134.140625 C 148.601562 134.140625 146.835938 134.683594 144.175781 135.53125 L 143.226562 136.828125 C 143.226562 136.828125 122.878906 161.390625 151.675781 178.269531 C 180.460938 195.15625 221.15625 156.78125 221.15625 156.78125 C 221.15625 156.78125 214.628906 181.339844 231.90625 183.261719"/><path fill="#F57487" d="M 227.296875 142.394531 C 227.296875 142.394531 236.511719 141.050781 239.195312 149.105469 C 241.886719 157.164062 238.8125 164.839844 242.078125 165.417969 C 245.339844 165.992188 247.453125 142.96875 241.117188 139.894531 C 234.785156 136.828125 227.296875 142.394531 227.296875 142.394531"/><path fill="#9B68BB" d="M 213.480469 68.523438 C 213.480469 68.523438 219.238281 98.835938 228.453125 108.046875 C 237.664062 117.257812 237.664062 117.257812 237.664062 117.257812 C 237.664062 117.257812 229.984375 124.929688 213.480469 116.105469 C 196.972656 107.28125 194.667969 90.78125 194.667969 90.78125 C 194.667969 90.78125 134.78125 149.875 137.46875 192.085938 C 140.15625 234.296875 178.160156 228.925781 189.675781 220.101562 C 201.195312 211.273438 201.195312 211.273438 201.195312 211.273438 C 201.195312 211.273438 199.660156 210.121094 195.050781 206.285156 C 190.445312 202.449219 211.558594 199.378906 215.78125 206.285156 C 220.003906 213.191406 198.503906 225.855469 198.503906 225.855469 C 198.503906 225.855469 229.21875 247.34375 236.894531 271.519531 C 244.574219 295.695312 227.679688 317.949219 227.679688 317.949219 C 227.679688 317.949219 261.082031 307.207031 261.464844 319.488281 C 261.847656 331.769531 227.679688 323.707031 227.679688 323.707031 C 227.679688 323.707031 254.554688 344.8125 240.734375 345.582031 C 226.914062 346.347656 223.84375 329.464844 223.84375 329.464844 C 223.84375 329.464844 211.558594 342.507812 203.5 334.070312 C 195.433594 325.628906 222.308594 317.570312 222.308594 317.570312 C 222.308594 317.570312 227.296875 306.824219 228.835938 297.996094 C 230.367188 289.171875 222.691406 288.019531 222.691406 288.019531 C 222.691406 288.019531 205.800781 298.765625 185.839844 300.683594 C 165.875 302.601562 158.199219 292.238281 158.199219 292.238281 C 158.199219 292.238281 168.5625 308.359375 157.429688 320.636719 C 146.296875 332.917969 141.691406 333.300781 141.691406 333.300781 C 141.691406 333.300781 170.484375 329.082031 169.714844 337.90625 C 168.945312 346.734375 139.386719 337.90625 139.386719 337.90625 C 139.386719 337.90625 160.503906 355.175781 147.832031 361.3125 C 135.164062 367.453125 134.015625 339.054688 134.015625 339.054688 C 134.015625 339.054688 113.667969 347.5 109.445312 339.054688 C 105.222656 330.613281 135.550781 332.535156 135.550781 332.535156 C 135.550781 332.535156 147.832031 322.941406 151.289062 314.5 C 154.742188 306.054688 153.59375 296.082031 133.246094 285.71875 C 112.902344 275.359375 108.292969 253.101562 114.050781 231.996094 C 119.8125 210.890625 102.535156 194.386719 128.640625 139.894531 C 154.742188 85.410156 179.695312 74.28125 193.515625 69.671875 C 207.335938 65.070312 213.480469 68.523438 213.480469 68.523438"/><path fill="#9B68BB" d="M 131.710938 98.261719 C 131.710938 112.78125 120.96875 124.546875 107.71875 124.546875 C 94.46875 124.546875 83.726562 112.78125 83.726562 98.261719 C 83.726562 83.746094 94.46875 71.976562 107.71875 71.976562 C 120.96875 71.976562 131.710938 83.746094 131.710938 98.261719"/><g clip-path="url(#a)"><path fill="#9B68BB" d="M 309.835938 103.632812 C 309.835938 118.152344 299.089844 129.921875 285.839844 129.921875 C 272.589844 129.921875 261.847656 118.152344 261.847656 103.632812 C 261.847656 89.121094 272.589844 77.347656 285.839844 77.347656 C 299.089844 77.347656 309.835938 89.121094 309.835938 103.632812"/></g><path fill="#9B68BB" d="M 296.417969 34.792969 C 299.761719 46.292969 293.964844 58.085938 283.472656 61.136719 C 272.976562 64.1875 261.757812 57.339844 258.414062 45.84375 C 255.070312 34.34375 260.863281 22.550781 271.359375 19.5 C 281.855469 16.449219 293.070312 23.292969 296.417969 34.792969"/><path fill="#9B68BB" d="M 167.429688 41.863281 C 161.382812 52.199219 148.835938 56.109375 139.402344 50.59375 C 129.964844 45.078125 127.21875 32.226562 133.265625 21.890625 C 139.3125 11.554688 151.859375 7.644531 161.296875 13.160156 C 170.730469 18.675781 173.480469 31.527344 167.429688 41.863281"/><path fill="#9B68BB" d="M 117.121094 98.070312 C 118.273438 98.070312 139.003906 86.558594 152.441406 85.023438 C 165.875 83.488281 175.855469 90.011719 175.855469 90.011719 L 179.3125 80.417969 C 179.3125 80.417969 176.625 72.742188 152.058594 73.128906 C 127.488281 73.511719 114.433594 91.164062 114.433594 91.164062 L 117.121094 98.070312"/><path fill="#9B68BB" d="M 212.542969 94.121094 C 213.625 94.511719 237.035156 90.730469 250.195312 93.855469 C 263.351562 96.980469 270.519531 106.507812 270.519531 106.507812 L 277.03125 98.664062 C 277.03125 98.664062 277.113281 90.53125 253.878906 82.542969 C 230.644531 74.550781 212.363281 86.710938 212.363281 86.710938 L 212.542969 94.121094"/><path fill="#9B68BB" d="M 212.597656 73.832031 C 213.699219 73.5 230.875 58.636719 243.382812 53.582031 C 255.894531 48.53125 266.972656 50.695312 266.972656 50.695312 L 268.050781 42.289062 C 268.050781 42.289062 263.691406 37.136719 240.253906 44.503906 C 216.816406 51.871094 208.417969 69.269531 208.417969 69.269531 L 212.597656 73.832031"/><path fill="#9B68BB" d="M 195.183594 76.050781 C 194.25 75.378906 182.917969 55.695312 172.761719 46.816406 C 162.609375 37.929688 151.4375 36.339844 151.4375 36.339844 L 153.183594 28.042969 C 153.183594 28.042969 158.992188 24.605469 178.707031 39.269531 C 198.421875 53.929688 200.628906 73.113281 200.628906 73.113281 L 195.183594 76.050781"/><path fill="#11100E" d="M 86.285156 99.890625 C 86.285156 109.128906 93.773438 116.613281 103.015625 116.613281 C 112.253906 116.613281 119.746094 109.128906 119.746094 99.890625 C 119.746094 90.652344 112.253906 83.167969 103.015625 83.167969 C 93.773438 83.167969 86.285156 90.652344 86.285156 99.890625"/><path fill="#FFF" d="M 88.753906 97.535156 C 87.667969 105.402344 93.167969 112.667969 101.042969 113.753906 C 108.917969 114.84375 116.183594 109.34375 117.273438 101.46875 C 118.355469 93.601562 112.859375 86.335938 104.980469 85.25 C 97.109375 84.164062 89.84375 89.664062 88.753906 97.535156"/><path fill="#4B88CF" d="M 91.5625 98.554688 C 90.710938 104.710938 95.015625 110.398438 101.179688 111.25 C 107.34375 112.097656 113.027344 107.796875 113.875 101.632812 C 114.730469 95.472656 110.425781 89.789062 104.261719 88.9375 C 98.101562 88.089844 92.414062 92.390625 91.5625 98.554688"/><path fill="#1D3D65" d="M 94.457031 98.953125 C 93.792969 103.742188 97.144531 108.164062 101.9375 108.824219 C 106.730469 109.484375 111.152344 106.136719 111.8125 101.347656 C 112.472656 96.558594 109.125 92.136719 104.332031 91.472656 C 99.539062 90.816406 95.113281 94.164062 94.457031 98.953125"/><path fill="#15293D" d="M 98.304688 99.925781 C 98.304688 102.386719 100.300781 104.382812 102.761719 104.382812 C 105.226562 104.382812 107.222656 102.386719 107.222656 99.925781 C 107.222656 97.464844 105.226562 95.46875 102.761719 95.46875 C 100.300781 95.46875 98.304688 97.464844 98.304688 99.925781"/><path fill="#FFF" d="M 94.792969 93.207031 C 94.523438 95.148438 95.878906 96.9375 97.820312 97.207031 C 99.761719 97.472656 101.550781 96.117188 101.820312 94.175781 C 102.085938 92.238281 100.726562 90.449219 98.789062 90.179688 C 96.847656 89.914062 95.058594 91.269531 94.792969 93.207031"/><path fill="#FFF" d="M 93.246094 99.027344 C 93.246094 99.859375 93.921875 100.539062 94.757812 100.539062 C 95.59375 100.539062 96.269531 99.859375 96.269531 99.027344 C 96.269531 98.191406 95.59375 97.511719 94.757812 97.511719 C 93.921875 97.511719 93.246094 98.191406 93.246094 99.027344"/><path fill="#11100E" d="M 273.007812 106.09375 C 273.007812 115.328125 280.496094 122.816406 289.738281 122.816406 C 298.976562 122.816406 306.46875 115.328125 306.46875 106.09375 C 306.46875 96.855469 298.976562 89.371094 289.738281 89.371094 C 280.496094 89.371094 273.007812 96.855469 273.007812 106.09375"/><path fill="#FFF" d="M 275.480469 103.738281 C 274.390625 111.605469 279.890625 118.871094 287.765625 119.960938 C 295.644531 121.046875 302.90625 115.546875 303.996094 107.675781 C 305.078125 99.804688 299.582031 92.539062 291.707031 91.453125 C 283.832031 90.367188 276.566406 95.867188 275.480469 103.738281"/><path fill="#4B88CF" d="M 278.289062 104.757812 C 277.433594 110.917969 281.742188 116.601562 287.90625 117.453125 C 294.066406 118.300781 299.75 114 300.605469 107.835938 C 301.457031 101.675781 297.148438 95.992188 290.984375 95.144531 C 284.824219 94.292969 279.136719 98.597656 278.289062 104.757812"/><path fill="#1D3D65" d="M 281.179688 105.15625 C 280.515625 109.945312 283.867188 114.367188 288.660156 115.027344 C 293.453125 115.6875 297.875 112.34375 298.535156 107.550781 C 299.195312 102.761719 295.847656 98.335938 291.054688 97.679688 C 286.261719 97.015625 281.839844 100.363281 281.179688 105.15625"/><path fill="#15293D" d="M 285.027344 106.128906 C 285.027344 108.589844 287.027344 110.585938 289.488281 110.585938 C 291.953125 110.585938 293.945312 108.589844 293.945312 106.128906 C 293.945312 103.667969 291.953125 101.671875 289.488281 101.671875 C 287.027344 101.671875 285.027344 103.667969 285.027344 106.128906"/><path fill="#FFF" d="M 281.515625 99.410156 C 281.25 101.351562 282.601562 103.140625 284.546875 103.40625 C 286.484375 103.675781 288.277344 102.320312 288.542969 100.378906 C 288.808594 98.441406 287.453125 96.652344 285.511719 96.386719 C 283.574219 96.117188 281.785156 97.472656 281.515625 99.410156"/><path fill="#FFF" d="M 279.96875 105.230469 C 279.96875 106.066406 280.644531 106.742188 281.484375 106.742188 C 282.316406 106.742188 282.996094 106.066406 282.996094 105.230469 C 282.996094 104.394531 282.316406 103.71875 281.484375 103.71875 C 280.644531 103.71875 279.96875 104.394531 279.96875 105.230469"/><path fill="#11100E" d="M 269.550781 42.011719 C 269.550781 49.339844 275.496094 55.277344 282.828125 55.277344 C 290.160156 55.277344 296.101562 49.339844 296.101562 42.011719 C 296.101562 34.683594 290.160156 28.738281 282.828125 28.738281 C 275.496094 28.738281 269.550781 34.683594 269.550781 42.011719"/><path fill="#FFF" d="M 271.515625 40.140625 C 270.652344 46.382812 275.015625 52.148438 281.265625 53.011719 C 287.515625 53.875 293.277344 49.511719 294.140625 43.261719 C 295.003906 37.019531 290.640625 31.253906 284.390625 30.390625 C 278.140625 29.53125 272.375 33.898438 271.515625 40.140625"/><path fill="#4B88CF" d="M 273.742188 40.949219 C 273.0625 45.835938 276.484375 50.34375 281.371094 51.023438 C 286.261719 51.695312 290.773438 48.28125 291.449219 43.394531 C 292.125 38.503906 288.707031 33.996094 283.820312 33.320312 C 278.929688 32.644531 274.417969 36.0625 273.742188 40.949219"/><path fill="#1D3D65" d="M 276.039062 41.265625 C 275.511719 45.066406 278.171875 48.574219 281.972656 49.101562 C 285.773438 49.621094 289.285156 46.96875 289.808594 43.164062 C 290.332031 39.367188 287.675781 35.855469 283.875 35.332031 C 280.070312 34.804688 276.558594 37.464844 276.039062 41.265625"/><path fill="#15293D" d="M 279.089844 42.035156 C 279.089844 43.992188 280.675781 45.574219 282.628906 45.574219 C 284.582031 45.574219 286.167969 43.992188 286.167969 42.035156 C 286.167969 40.085938 284.582031 38.5 282.628906 38.5 C 280.675781 38.5 279.089844 40.085938 279.089844 42.035156"/><path fill="#FFF" d="M 276.304688 36.707031 C 276.089844 38.246094 277.164062 39.664062 278.707031 39.878906 C 280.246094 40.089844 281.667969 39.015625 281.878906 37.476562 C 282.089844 35.9375 281.015625 34.519531 279.476562 34.304688 C 277.9375 34.09375 276.515625 35.167969 276.304688 36.707031"/><path fill="#FFF" d="M 275.078125 41.324219 C 275.078125 41.984375 275.613281 42.523438 276.273438 42.523438 C 276.941406 42.523438 277.476562 41.984375 277.476562 41.324219 C 277.476562 40.660156 276.941406 40.125 276.273438 40.125 C 275.613281 40.125 275.078125 40.660156 275.078125 41.324219"/><path fill="#11100E" d="M 132.886719 29.730469 C 132.886719 37.058594 138.828125 43 146.164062 43 C 153.496094 43 159.4375 37.058594 159.4375 29.730469 C 159.4375 22.402344 153.496094 16.460938 146.164062 16.460938 C 138.828125 16.460938 132.886719 22.402344 132.886719 29.730469"/><path fill="#FFF" d="M 134.847656 27.859375 C 133.988281 34.105469 138.351562 39.871094 144.597656 40.730469 C 150.851562 41.597656 156.613281 37.230469 157.476562 30.984375 C 158.335938 24.738281 153.976562 18.972656 147.722656 18.113281 C 141.476562 17.25 135.714844 21.617188 134.847656 27.859375"/><path fill="#4B88CF" d="M 137.078125 28.667969 C 136.402344 33.558594 139.820312 38.066406 144.710938 38.742188 C 149.597656 39.417969 154.113281 36 154.785156 31.113281 C 155.460938 26.226562 152.046875 21.714844 147.152344 21.039062 C 142.261719 20.363281 137.753906 23.78125 137.078125 28.667969"/><path fill="#1D3D65" d="M 139.371094 28.984375 C 138.847656 32.789062 141.503906 36.296875 145.308594 36.816406 C 149.113281 37.34375 152.617188 34.6875 153.144531 30.886719 C 153.667969 27.085938 151.011719 23.578125 147.210938 23.054688 C 143.40625 22.527344 139.898438 25.183594 139.371094 28.984375"/><path fill="#15293D" d="M 142.429688 29.757812 C 142.429688 31.710938 144.011719 33.292969 145.964844 33.292969 C 147.921875 33.292969 149.507812 31.710938 149.507812 29.757812 C 149.507812 27.808594 147.921875 26.222656 145.964844 26.222656 C 144.011719 26.222656 142.429688 27.808594 142.429688 29.757812"/><path fill="#FFF" d="M 139.636719 24.425781 C 139.429688 25.964844 140.503906 27.386719 142.042969 27.597656 C 143.582031 27.808594 145.003906 26.734375 145.214844 25.195312 C 145.425781 23.660156 144.351562 22.238281 142.8125 22.027344 C 141.273438 21.816406 139.851562 22.890625 139.636719 24.425781"/><path fill="#FFF" d="M 138.410156 29.042969 C 138.410156 29.707031 138.949219 30.246094 139.613281 30.246094 C 140.277344 30.246094 140.8125 29.707031 140.8125 29.042969 C 140.8125 28.382812 140.277344 27.84375 139.613281 27.84375 C 138.949219 27.84375 138.410156 28.382812 138.410156 29.042969"/><path fill="#C8A0D6" d="M 215.382812 253.695312 C 218.902344 269.03125 210.707031 284.003906 197.070312 287.136719 C 183.433594 290.265625 169.519531 280.375 165.996094 265.039062 C 162.472656 249.703125 170.671875 234.734375 184.308594 231.597656 C 197.945312 228.46875 211.855469 238.359375 215.382812 253.695312"/><path fill="#532A91" d="M 191.210938 69.671875 C 191.210938 69.671875 199.660156 51.636719 208.105469 52.40625 C 216.546875 53.175781 208.105469 62 208.105469 62 C 208.105469 62 228.066406 50.871094 231.90625 53.175781 C 235.746094 55.476562 216.546875 65.453125 216.546875 65.453125 C 216.546875 65.453125 244.191406 61.617188 247.261719 67.757812 C 250.332031 73.894531 228.066406 71.976562 228.066406 71.976562 C 228.066406 71.976562 245.722656 80.417969 238.046875 85.023438 C 230.367188 89.628906 217.316406 76.964844 217.316406 76.964844 C 217.316406 76.964844 220.769531 94.234375 214.628906 90.011719 C 208.488281 85.792969 208.105469 75.429688 208.105469 75.429688 C 208.105469 75.429688 206.183594 85.792969 201.960938 82.722656 C 197.738281 79.652344 199.660156 70.824219 199.660156 70.824219 L 191.210938 69.671875"/><path fill="#9B68BB" d="M 128.253906 178.65625 L 93.703125 158.703125 L 85.644531 210.503906 C 85.644531 210.503906 97.929688 210.121094 97.929688 217.414062 C 97.929688 224.703125 84.875 215.109375 84.875 215.109375 C 84.875 215.109375 92.9375 234.683594 84.492188 232.761719 C 76.046875 230.84375 80.652344 215.875 80.652344 215.875 C 80.652344 215.875 67.601562 227.773438 66.449219 218.945312 C 65.296875 210.121094 81.039062 208.972656 81.039062 208.972656 C 81.039062 208.972656 87.179688 157.164062 90.636719 152.945312 C 94.089844 148.722656 124.800781 167.910156 124.800781 167.910156 L 128.253906 178.65625"/><path fill="#7646A7" d="M 136.316406 243.125 C 136.316406 246.09375 133.910156 248.492188 130.945312 248.492188 C 127.972656 248.492188 125.566406 246.09375 125.566406 243.125 C 125.566406 240.152344 127.972656 237.75 130.945312 237.75 C 133.910156 237.75 136.316406 240.152344 136.316406 243.125"/><path fill="#7646A7" d="M 143.226562 255.402344 C 143.226562 257.101562 141.851562 258.472656 140.15625 258.472656 C 138.460938 258.472656 137.082031 257.101562 137.082031 255.402344 C 137.082031 253.707031 138.460938 252.335938 140.15625 252.335938 C 141.851562 252.335938 143.226562 253.707031 143.226562 255.402344"/><path fill="#7646A7" d="M 126.335938 257.320312 C 126.335938 258.804688 125.132812 260.007812 123.648438 260.007812 C 122.164062 260.007812 120.960938 258.804688 120.960938 257.320312 C 120.960938 255.839844 122.164062 254.632812 123.648438 254.632812 C 125.132812 254.632812 126.335938 255.839844 126.335938 257.320312"/><path fill="#7646A7" d="M 143.226562 272.671875 C 143.226562 274.578125 141.679688 276.125 139.769531 276.125 C 137.863281 276.125 136.316406 274.578125 136.316406 272.671875 C 136.316406 270.761719 137.863281 269.214844 139.769531 269.214844 C 141.679688 269.214844 143.226562 270.761719 143.226562 272.671875"/></svg>