<svg xmlns="http://www.w3.org/2000/svg" width="125" viewBox="-15 -15 400 400" height="125" version="1.0"><path fill="#F03E51" d="M 267.226562 144.675781 C 267.226562 144.675781 282.0625 139.664062 290.898438 127.074219 C 299.738281 114.488281 300.164062 93.585938 310.292969 91.558594 C 320.417969 89.53125 356.128906 100.066406 361.777344 125.355469 C 363.273438 131.980469 349.09375 122.679688 347.28125 125.355469 C 345.46875 128.035156 353.355469 145.421875 344.617188 145.847656 C 335.875 146.273438 329.796875 135.609375 327.5625 138.808594 C 325.320312 142.007812 331.1875 154.808594 323.082031 156.089844 C 314.980469 157.367188 309.226562 144.140625 307.945312 146.0625 C 306.667969 147.980469 310.078125 155.875 304.320312 156.195312 C 298.5625 156.515625 298.246094 143.605469 291.53125 144.675781 C 284.8125 145.742188 268.929688 160.902344 264.027344 157.054688 C 259.125 153.207031 263.070312 138.703125 267.226562 144.675781"/><path fill="#FBC6BB" d="M 313.839844 97.453125 C 325.796875 96.472656 342.699219 99.945312 349.398438 111.09375 C 350.597656 113.089844 349.191406 116.300781 346.609375 114.953125 C 341.460938 112.265625 337.402344 108.351562 331.808594 106.3125 C 326.234375 104.277344 320.503906 103.828125 314.644531 104.472656 C 310.816406 104.894531 309.683594 97.792969 313.839844 97.453125"/><path fill="#FBC6BB" d="M 288.359375 137.683594 C 288.804688 133.523438 293.429688 131.132812 296.023438 128.148438 C 299.25 124.441406 301.859375 120.253906 303.929688 115.808594 C 305.34375 112.765625 309.21875 115.550781 308.164062 118.242188 C 306.1875 123.273438 303.628906 128.015625 300.398438 132.355469 C 297.992188 135.597656 294.628906 141.152344 290.082031 140.410156 C 288.914062 140.222656 288.246094 138.726562 288.359375 137.683594"/><path fill="#42A5C5" d="M 134.160156 260.078125 C 134.160156 260.503906 139.84375 298.761719 181.347656 312.839844 C 187.03125 313.980469 180.847656 292.042969 182.339844 292.253906 C 183.832031 292.46875 191.617188 303.132812 193.320312 301.535156 C 195.027344 299.933594 192.9375 291.617188 193.929688 291.828125 C 194.921875 292.042969 196.835938 295.988281 199.289062 291.402344 C 201.742188 286.816406 198.570312 267.296875 200.796875 267.296875 C 203.019531 267.296875 203.660156 279.777344 208.136719 280.628906 C 212.617188 281.480469 214.851562 270.601562 214.851562 270.601562 C 214.851562 270.601562 213.042969 287.347656 219.96875 288.84375 C 226.898438 290.335938 228.070312 273.589844 229.136719 275.9375 C 230.203125 278.28125 222.316406 306.226562 230.417969 307.402344 C 238.519531 308.574219 257.492188 261.1875 256.746094 250.855469 C 256 240.523438 134.160156 260.078125 134.160156 260.078125"/><path fill="#35819C" d="M 133.304688 259.542969 C 133.304688 259.542969 137.570312 269.535156 153.453125 276.042969 C 169.335938 282.546875 181.488281 257.484375 199.929688 253.75 C 218.371094 250.015625 234.894531 268.609375 244.273438 267.792969 C 253.65625 266.976562 256.640625 255.03125 255.042969 249.589844 C 253.441406 244.148438 213.46875 228.003906 133.304688 259.542969"/><path fill="#AA2937" d="M 129.46875 169.972656 C 128.847656 169.574219 89.601562 178.445312 93.863281 216.417969 C 98.128906 254.390625 137.78125 257.804688 165.070312 252.042969 C 192.359375 246.285156 212.402344 229.859375 236.707031 240.097656 C 261.011719 250.335938 278.917969 253.539062 290.644531 228.578125 C 302.371094 203.617188 296.828125 173.941406 284.25 166.382812 C 271.671875 158.820312 255.464844 161.59375 250.777344 163.300781 C 246.085938 165.007812 159.527344 189.230469 129.46875 169.972656"/><path fill="#F03E51" d="M 127.90625 171.761719 C 127.90625 172.332031 123.925781 178.871094 137.855469 185.839844 C 158.890625 196.648438 236.066406 196.261719 259.519531 184.703125 C 272.167969 174.890625 268.472656 163.085938 264.066406 161.09375 C 259.660156 159.105469 127.90625 171.761719 127.90625 171.761719"/><path fill="#FFF" d="M 141.300781 252.574219 C 140.984375 252.460938 125.738281 227.191406 146.097656 210.765625 C 148.65625 209.058594 148.441406 231.246094 166.566406 239.136719 C 167.949219 234.871094 168.910156 230.9375 169.867188 231.625 C 170.828125 232.308594 177.757812 235.722656 177.757812 235.722656 C 177.757812 235.722656 180.421875 228.363281 181.914062 228.46875 C 183.40625 228.578125 189.695312 233.164062 189.695312 233.164062 C 189.695312 233.164062 192.296875 227.191406 193.929688 227.191406 C 195.558594 227.191406 201.101562 231.136719 201.101562 231.136719 C 201.101562 231.136719 204.726562 222.605469 206.859375 223.777344 C 208.992188 224.949219 211.441406 229.003906 211.441406 229.003906 C 211.441406 229.003906 216.453125 223.671875 218.160156 224.628906 C 219.863281 225.589844 223.0625 231.351562 223.703125 230.816406 C 224.339844 230.28125 228.710938 225.378906 229.992188 226.015625 C 231.269531 226.65625 233.082031 231.789062 233.402344 231.625 C 233.722656 231.457031 237.242188 227.40625 239.050781 227.9375 C 240.863281 228.46875 243.421875 233.164062 243.421875 233.164062 C 243.421875 233.164062 252.695312 221.539062 251.738281 210.230469 C 251.84375 205.859375 276.148438 228.152344 261.222656 245.109375 C 239.160156 239.457031 214.960938 235.617188 198.757812 239.03125 C 182.554688 242.445312 159.980469 259.40625 141.300781 252.574219"/><path fill="#26373D" d="M 132.167969 165.292969 C 132.167969 164.222656 136.71875 109.332031 158.320312 101.792969 C 179.925781 94.253906 203.519531 106.199219 203.519531 106.199219 C 203.519531 106.199219 243.886719 81.042969 262.363281 96.605469 C 280.835938 112.171875 279.84375 131.089844 277.285156 138.625 C 274.726562 146.164062 258.242188 160.527344 258.242188 160.527344 L 260.941406 161.378906 C 260.941406 161.378906 192.007812 185.816406 163.4375 169.96875 C 146.667969 162.089844 132.167969 165.292969 132.167969 165.292969"/><path fill="#182124" d="M 206.855469 117.753906 C 206.652344 118.023438 186.070312 103.355469 173.917969 121.273438 C 161.765625 139.195312 169.867188 168.84375 193.429688 168.3125 C 216.988281 167.777344 215.8125 151.671875 215.8125 151.671875 C 215.8125 151.671875 236.496094 170.765625 252.589844 156.898438 C 268.6875 143.035156 240.542969 74.34375 206.855469 117.753906"/><path fill="#55C8EE" d="M 273.734375 239.882812 C 256.816406 250.125 253.265625 237.75 221.855469 233.199219 C 190.441406 228.648438 178.644531 254.53125 141.691406 250.40625 C 104.738281 246.28125 91.804688 221.820312 100.046875 196.507812 C 108.289062 171.191406 144.820312 173.183594 144.820312 173.183594 C 175.660156 175.601562 198.117188 191.671875 229.386719 178.445312 C 240.035156 173.941406 266.199219 154.695312 282.972656 173.144531 C 299.742188 191.597656 290.648438 229.644531 273.734375 239.882812 Z M 166.707031 106.769531 C 199.964844 90.414062 219.582031 135.726562 205.796875 154.835938 C 184.964844 183.707031 151.355469 166.640625 145.8125 142.179688 C 140.269531 117.71875 165.941406 107.144531 166.707031 106.769531 Z M 231.929688 96.242188 C 265.1875 79.886719 284.804688 125.203125 271.015625 144.3125 C 250.183594 173.183594 216.582031 156.117188 211.035156 131.65625 C 205.492188 107.195312 231.164062 96.621094 231.929688 96.242188 Z M 303.296875 188.027344 C 299.886719 151.8125 267.621094 160.527344 267.621094 160.527344 L 266.910156 157.683594 C 282.832031 153.984375 291.355469 121.558594 270.320312 99.089844 C 249.285156 76.617188 223.367188 95.164062 223.367188 95.164062 C 223.367188 95.164062 198.402344 74.058594 145.03125 96.605469 C 91.660156 119.15625 109.144531 169.96875 109.144531 169.96875 C 84.128906 182.828125 71.050781 227.652344 103.175781 250.726562 C 140.695312 274.367188 171.683594 255.527344 197.265625 246.902344 C 222.851562 238.273438 245.589844 249.839844 254.121094 253.539062 C 288.515625 264.628906 306.707031 224.238281 303.296875 188.027344"/><path fill="#FFF" d="M 137.074219 183.921875 C 137.074219 183.921875 134.371094 192.382812 142.757812 200.488281 C 144.464844 201.414062 148.796875 194.019531 149.4375 193.949219 C 150.078125 193.878906 153.203125 198.996094 156.261719 199.707031 C 159.316406 200.417969 163.792969 196.863281 163.792969 196.863281 C 163.792969 196.863281 168.339844 201.554688 171.324219 202.195312 C 174.3125 202.835938 179.214844 197.574219 179.214844 197.574219 C 179.214844 197.574219 183.335938 202.480469 187.386719 203.191406 C 191.4375 203.902344 193.929688 199.777344 193.929688 199.777344 C 193.929688 199.777344 198.96875 204.613281 201.742188 204.542969 C 204.511719 204.472656 207.925781 199.140625 207.925781 199.140625 C 207.925781 199.140625 212.96875 205.113281 217.164062 204.542969 C 221.355469 203.972656 223.703125 198.214844 223.703125 198.214844 C 223.703125 198.214844 229.246094 202.90625 231.945312 202.765625 C 234.644531 202.621094 237.347656 195.085938 237.347656 195.085938 C 237.347656 195.085938 242.035156 199.921875 244.3125 199.777344 C 246.585938 199.636719 248.574219 192.246094 248.574219 192.246094 C 248.574219 192.246094 253.976562 198.78125 254.828125 198.78125 C 255.683594 198.78125 261.648438 188.402344 258.242188 182.710938 C 254.117188 179.726562 247.578125 186.265625 247.578125 186.265625 C 247.578125 186.265625 243.527344 183.707031 240.828125 183.851562 C 238.128906 183.992188 236.496094 187.050781 236.496094 187.050781 C 236.496094 187.050781 230.3125 184.917969 228.105469 185.914062 C 225.90625 186.910156 222.707031 190.25 222.707031 190.25 C 222.707031 190.25 217.589844 188.117188 215.316406 188.117188 C 213.042969 188.117188 207.425781 192.027344 207.425781 192.027344 C 207.425781 192.027344 204.230469 189.46875 201.246094 189.46875 C 198.261719 189.46875 193.929688 192.878906 193.929688 192.878906 C 193.929688 192.878906 190.015625 189.183594 187.882812 188.828125 C 185.753906 188.472656 180.707031 190.816406 180.707031 190.816406 C 180.707031 190.816406 173.316406 187.050781 170.6875 186.835938 C 168.058594 186.625 164.503906 189.324219 164.503906 189.324219 C 164.503906 189.324219 160.738281 186.339844 157.824219 185.484375 C 154.910156 184.632812 150.644531 187.335938 150.644531 187.335938 C 150.644531 187.335938 137.925781 181.71875 137.074219 183.921875"/><path fill="#42A5C5" d="M 123.5 166.074219 C 123.5 166.074219 139.273438 161.667969 151.640625 165.292969 C 128.1875 145.734375 136.148438 120.136719 148.515625 108.476562 C 121.792969 125.539062 115.398438 155.691406 123.5 166.074219"/><path fill="#42A5C5" d="M 186.390625 172.472656 C 186.390625 172.472656 196.199219 175.03125 209.523438 174.074219 C 222.847656 173.113281 246.40625 161.59375 267.621094 160.527344 L 266.910156 157.683594 C 266.910156 157.683594 240.332031 167.460938 228.710938 163.726562 C 217.09375 159.992188 213.363281 152.953125 213.363281 152.953125 C 213.363281 152.953125 206.964844 171.191406 186.390625 172.472656"/><path fill="#42A5C5" d="M 207.5 110.609375 C 207.5 110.609375 193.855469 97.488281 177.011719 98.660156 C 189.910156 91.621094 211.761719 92.691406 220.613281 97.59375 C 213.042969 102.128906 207.5 110.609375 207.5 110.609375"/><path fill="#182124" d="M 174.027344 82.234375 C 174.027344 82.234375 168.269531 83.195312 170.933594 87.886719 C 173.601562 92.582031 189.910156 95.460938 191.507812 90.449219 C 193.109375 85.4375 182.980469 80.742188 174.027344 82.234375"/><path fill="#182124" d="M 206.753906 66.558594 C 206.753906 66.558594 216.238281 81.277344 222.847656 79.570312 C 229.457031 77.863281 221.675781 67.304688 216.664062 64.316406 C 211.65625 61.332031 204.191406 61.222656 206.753906 66.558594"/><path fill="#BEEAF3" d="M 284.554688 165.960938 C 282.710938 165.125 281.84375 168.101562 282.949219 169.210938 C 288.679688 174.925781 293.601562 181.9375 294.789062 190.09375 C 295.921875 197.871094 292.738281 205.199219 293.453125 212.871094 C 293.613281 214.574219 295.632812 214.726562 296.484375 213.457031 C 305.726562 199.726562 299.914062 172.925781 284.554688 165.960938"/><path fill="#BEEAF3" d="M 291.738281 222.988281 C 291.203125 224.914062 290.675781 226.929688 289.691406 228.679688 C 289.101562 229.726562 287.828125 231.777344 289.167969 232.789062 C 289.617188 233.128906 290.191406 233.121094 290.671875 232.855469 C 292.183594 232.011719 292.988281 230.339844 293.800781 228.875 C 294.726562 227.203125 295.316406 225.609375 295.722656 223.742188 C 296.292969 221.117188 292.429688 220.492188 291.738281 222.988281"/><path fill="#BEEAF3" d="M 271.015625 98.710938 C 263.796875 85.394531 241.023438 81.957031 229.960938 92.171875 C 228.855469 93.191406 229.25 96.246094 231.226562 95.53125 C 238.371094 92.957031 243.9375 89.894531 251.832031 91.898438 C 258.5625 93.605469 263.042969 97.816406 268.179688 102.15625 C 270.238281 103.898438 271.914062 100.367188 271.015625 98.710938"/><path fill="#BEEAF3" d="M 277.15625 107.34375 C 277.007812 106.71875 276.734375 106.082031 276.332031 105.574219 C 275.683594 104.742188 274.707031 104.15625 273.738281 103.773438 C 271.3125 102.816406 269.097656 106.664062 270.710938 108.496094 C 270.839844 108.640625 270.953125 108.796875 271.066406 108.953125 C 271.050781 108.957031 271.304688 109.390625 271.351562 109.488281 C 271.636719 110.113281 271.9375 110.632812 272.363281 111.058594 C 272.410156 111.117188 272.457031 111.175781 272.5 111.242188 C 274.03125 113.4375 276.933594 111.433594 277.144531 109.324219 C 277.191406 108.882812 277.128906 109.261719 277.046875 109.472656 C 277.308594 108.800781 277.324219 108.035156 277.15625 107.34375"/><path fill="#BEEAF3" d="M 192.417969 100.792969 C 176.382812 92.476562 155.863281 97.625 145.703125 112.742188 C 144.519531 114.503906 146.65625 117.410156 148.304688 115.449219 C 153.445312 109.339844 159.46875 103.636719 167.492188 102.132812 C 175.363281 100.660156 183.683594 101.621094 191.066406 104.558594 C 193.1875 105.402344 194.34375 101.789062 192.417969 100.792969"/><path fill="#BEEAF3" d="M 198.136719 103.914062 C 197.886719 103.84375 197.664062 103.746094 197.421875 103.644531 C 195.972656 103.019531 194.734375 105.359375 195.632812 106.433594 C 195.808594 106.640625 195.972656 106.832031 196.121094 107.058594 C 196.585938 107.761719 197.4375 107.769531 198.117188 107.453125 C 198.160156 107.429688 198.203125 107.410156 198.246094 107.390625 C 198.734375 107.164062 199.136719 106.488281 199.15625 105.960938 C 199.15625 105.90625 199.160156 105.859375 199.160156 105.804688 C 199.183594 105.085938 198.941406 104.148438 198.136719 103.914062"/><path fill="#BEEAF3" d="M 101.964844 180.398438 C 94.015625 189.988281 88.53125 203.386719 88.433594 215.9375 C 88.371094 224.375 92.640625 239.226562 102.164062 240.945312 C 103.816406 241.242188 105.023438 238.722656 104.394531 237.425781 C 102.84375 234.226562 100.363281 232.28125 98.339844 229.382812 C 95.050781 224.679688 94.121094 218.496094 94.117188 212.847656 C 94.105469 201.558594 100.421875 192.492188 104.824219 182.582031 C 105.589844 180.863281 103.367188 178.703125 101.964844 180.398438"/><path fill="#BEEAF3" d="M 113.726562 242.90625 C 113.121094 242.140625 112.394531 241.675781 111.574219 241.183594 C 110.378906 240.464844 108.898438 240.796875 108.160156 242.035156 C 107.535156 243.078125 107.292969 245.078125 108.5625 245.835938 C 109.570312 246.441406 110.46875 246.976562 111.640625 247.167969 C 112.566406 247.324219 113.492188 246.398438 113.84375 245.679688 C 114.253906 244.851562 114.332031 243.679688 113.726562 242.90625"/><path fill="#F03E51" d="M 107.828125 155.941406 C 107.828125 155.941406 92.992188 150.925781 84.15625 138.339844 C 75.316406 125.753906 74.890625 104.847656 64.761719 102.820312 C 54.636719 100.796875 18.925781 111.332031 13.277344 136.621094 C 11.78125 143.246094 25.960938 133.945312 27.773438 136.621094 C 29.585938 139.300781 21.695312 156.6875 30.4375 157.113281 C 39.179688 157.539062 45.253906 146.875 47.492188 150.074219 C 49.730469 153.273438 43.871094 166.074219 51.972656 167.351562 C 60.070312 168.632812 65.828125 155.40625 67.109375 157.328125 C 68.386719 159.246094 64.976562 167.140625 70.734375 167.460938 C 76.488281 167.777344 76.808594 154.875 83.523438 155.941406 C 90.238281 157.003906 106.125 172.167969 111.027344 168.320312 C 115.929688 164.472656 111.984375 149.96875 107.828125 155.941406"/><path fill="#FBC6BB" d="M 61.214844 108.71875 C 49.257812 107.738281 32.355469 111.207031 25.65625 122.359375 C 24.457031 124.355469 25.863281 127.566406 28.445312 126.21875 C 33.59375 123.527344 37.652344 119.617188 43.246094 117.578125 C 48.820312 115.542969 54.550781 115.089844 60.410156 115.738281 C 64.238281 116.15625 65.371094 109.058594 61.214844 108.71875"/><path fill="#FBC6BB" d="M 86.695312 148.949219 C 86.25 144.789062 81.625 142.398438 79.027344 139.414062 C 75.804688 135.703125 73.195312 131.519531 71.125 127.070312 C 69.710938 124.03125 65.832031 126.8125 66.890625 129.507812 C 68.863281 134.539062 71.425781 139.277344 74.652344 143.621094 C 77.0625 146.859375 80.425781 152.414062 84.972656 151.675781 C 86.140625 151.484375 86.808594 149.992188 86.695312 148.949219"/><path fill="#FFF" d="M 200.25 137.878906 C 200.25 141.355469 197.433594 144.171875 193.960938 144.171875 C 190.488281 144.171875 187.671875 141.355469 187.671875 137.878906 C 187.671875 134.402344 190.488281 131.585938 193.960938 131.585938 C 197.433594 131.585938 200.25 134.402344 200.25 137.878906"/><path fill="#FFF" d="M 231.683594 134.25 C 231.683594 137.726562 228.867188 140.546875 225.394531 140.546875 C 221.921875 140.546875 219.105469 137.726562 219.105469 134.25 C 219.105469 130.777344 221.921875 127.957031 225.394531 127.957031 C 228.867188 127.957031 231.683594 130.777344 231.683594 134.25"/></svg>