<svg xmlns="http://www.w3.org/2000/svg" width="125" viewBox="-15 -15 400 400" height="125" version="1.0"><defs><clipPath id="a"><path d="M 43.695312 144 L 140 144 L 140 218 L 43.695312 218 Z M 43.695312 144"/></clipPath><clipPath id="b"><path d="M 235 144 L 330.945312 144 L 330.945312 218 L 235 218 Z M 235 144"/></clipPath><clipPath id="c"><path d="M 153 12.128906 L 222 12.128906 L 222 80 L 153 80 Z M 153 12.128906"/></clipPath><clipPath id="d"><path d="M 117.714844 313.527344 L 256.925781 313.527344 L 256.925781 363.128906 L 117.714844 363.128906 Z M 117.714844 313.527344"/></clipPath></defs><g clip-path="url(#a)"><path fill="#6722D0" d="M 56.21875 144.394531 L 51.007812 144.394531 C 47.050781 144.394531 43.847656 147.609375 43.847656 151.566406 C 43.847656 155.53125 47.050781 158.742188 51.007812 158.742188 L 56.21875 158.742188 C 66.816406 158.742188 75.441406 167.378906 75.441406 178 L 75.441406 184.25 C 75.441406 202.78125 90.488281 217.855469 108.980469 217.855469 L 131.914062 217.855469 C 135.867188 217.855469 139.070312 214.644531 139.070312 210.683594 C 139.070312 206.722656 135.867188 203.511719 131.914062 203.511719 L 108.980469 203.511719 C 98.382812 203.511719 89.757812 194.871094 89.757812 184.25 L 89.757812 178 C 89.757812 159.472656 74.710938 144.394531 56.21875 144.394531"/></g><g clip-path="url(#b)"><path fill="#6722D0" d="M 318.425781 144.394531 L 323.636719 144.394531 C 327.589844 144.394531 330.796875 147.609375 330.796875 151.566406 C 330.796875 155.53125 327.589844 158.742188 323.636719 158.742188 L 318.425781 158.742188 C 307.824219 158.742188 299.203125 167.378906 299.203125 178 L 299.203125 184.25 C 299.203125 202.78125 284.15625 217.855469 265.660156 217.855469 L 242.730469 217.855469 C 238.777344 217.855469 235.574219 214.644531 235.574219 210.683594 C 235.574219 206.722656 238.777344 203.511719 242.730469 203.511719 L 265.660156 203.511719 C 276.261719 203.511719 284.886719 194.871094 284.886719 184.25 L 284.886719 178 C 284.886719 159.472656 299.933594 144.394531 318.425781 144.394531"/></g><path fill="#6722D0" d="M 187.324219 172.839844 C 184.550781 172.839844 182.304688 170.585938 182.304688 167.804688 L 182.296875 77.445312 L 192.347656 77.445312 L 192.351562 167.804688 C 192.351562 170.585938 190.101562 172.839844 187.324219 172.839844"/><g clip-path="url(#c)"><path fill="#8F4AE8" d="M 187.320312 12.128906 C 168.648438 12.128906 153.511719 27.296875 153.511719 46.007812 C 153.511719 64.714844 168.648438 79.882812 187.320312 79.882812 C 205.992188 79.882812 221.128906 64.714844 221.128906 46.007812 C 221.128906 27.296875 205.992188 12.128906 187.320312 12.128906"/></g><path fill="#EBF1F4" d="M 213.25 46.007812 C 213.25 60.355469 201.640625 71.988281 187.320312 71.988281 C 173.003906 71.988281 161.394531 60.355469 161.394531 46.007812 C 161.394531 31.660156 173.003906 20.027344 187.320312 20.027344 C 201.640625 20.027344 213.25 31.660156 213.25 46.007812"/><path fill="#FFA710" d="M 204.730469 46.007812 C 204.730469 55.640625 196.9375 63.449219 187.320312 63.449219 C 177.707031 63.449219 169.910156 55.640625 169.910156 46.007812 C 169.910156 36.371094 177.707031 28.5625 187.320312 28.5625 C 196.9375 28.5625 204.730469 36.371094 204.730469 46.007812"/><path fill="#11223D" d="M 187.324219 57.585938 C 180.953125 57.585938 175.769531 52.390625 175.769531 46.007812 C 175.769531 39.621094 180.953125 34.425781 187.324219 34.425781 C 193.699219 34.425781 198.878906 39.621094 198.878906 46.007812 C 198.878906 52.390625 193.699219 57.585938 187.324219 57.585938"/><path fill="#EBF1F4" d="M 184.792969 34.707031 C 184.792969 38.359375 181.835938 41.324219 178.1875 41.324219 C 174.542969 41.324219 171.585938 38.359375 171.585938 34.707031 C 171.585938 31.050781 174.542969 28.089844 178.1875 28.089844 C 181.835938 28.089844 184.792969 31.050781 184.792969 34.707031"/><path fill="#6722D0" d="M 233.285156 173.046875 C 230.511719 173.046875 228.261719 170.792969 228.261719 168.015625 L 228.257812 122.78125 L 238.304688 122.78125 L 238.308594 168.011719 C 238.308594 170.792969 236.0625 173.046875 233.285156 173.046875"/><path fill="#8F4AE8" d="M 233.28125 67.457031 C 217.363281 67.457031 204.457031 80.386719 204.457031 96.339844 C 204.457031 112.289062 217.363281 125.222656 233.28125 125.222656 C 249.199219 125.222656 262.105469 112.289062 262.105469 96.339844 C 262.105469 80.386719 249.199219 67.457031 233.28125 67.457031"/><path fill="#EBF1F4" d="M 255.386719 96.339844 C 255.386719 108.574219 245.488281 118.488281 233.28125 118.488281 C 221.070312 118.488281 211.175781 108.574219 211.175781 96.339844 C 211.175781 84.105469 221.070312 74.191406 233.28125 74.191406 C 245.488281 74.191406 255.386719 84.105469 255.386719 96.339844"/><path fill="#FFA710" d="M 248.125 96.339844 C 248.125 104.550781 241.476562 111.210938 233.28125 111.210938 C 225.082031 111.210938 218.4375 104.550781 218.4375 96.339844 C 218.4375 88.125 225.082031 81.464844 233.28125 81.464844 C 241.476562 81.464844 248.125 88.125 248.125 96.339844"/><path fill="#11223D" d="M 233.28125 106.210938 C 227.847656 106.210938 223.429688 101.78125 223.429688 96.339844 C 223.429688 90.894531 227.847656 86.46875 233.28125 86.46875 C 238.714844 86.46875 243.132812 90.894531 243.132812 96.339844 C 243.132812 101.78125 238.714844 106.210938 233.28125 106.210938"/><path fill="#EBF1F4" d="M 231.125 86.707031 C 231.125 89.820312 228.601562 92.347656 225.496094 92.347656 C 222.386719 92.347656 219.863281 89.820312 219.863281 86.707031 C 219.863281 83.589844 222.386719 81.066406 225.496094 81.066406 C 228.601562 81.066406 231.125 83.589844 231.125 86.707031"/><path fill="#6722D0" d="M 141.367188 173.046875 C 138.59375 173.046875 136.34375 170.792969 136.34375 168.015625 L 136.339844 122.78125 L 146.386719 122.78125 L 146.390625 168.011719 C 146.394531 170.792969 144.144531 173.046875 141.367188 173.046875"/><path fill="#8F4AE8" d="M 141.363281 67.457031 C 125.445312 67.457031 112.539062 80.386719 112.539062 96.339844 C 112.539062 112.289062 125.445312 125.222656 141.363281 125.222656 C 157.28125 125.222656 170.1875 112.289062 170.1875 96.339844 C 170.1875 80.386719 157.28125 67.457031 141.363281 67.457031"/><path fill="#EBF1F4" d="M 163.46875 96.339844 C 163.46875 108.574219 153.570312 118.488281 141.363281 118.488281 C 129.152344 118.488281 119.257812 108.574219 119.257812 96.339844 C 119.257812 84.105469 129.152344 74.191406 141.363281 74.191406 C 153.570312 74.191406 163.46875 84.105469 163.46875 96.339844"/><path fill="#FFA710" d="M 156.207031 96.339844 C 156.207031 104.550781 149.5625 111.210938 141.363281 111.210938 C 133.164062 111.210938 126.519531 104.550781 126.519531 96.339844 C 126.519531 88.125 133.164062 81.464844 141.363281 81.464844 C 149.5625 81.464844 156.207031 88.125 156.207031 96.339844"/><path fill="#11223D" d="M 141.363281 106.210938 C 135.929688 106.210938 131.511719 101.78125 131.511719 96.339844 C 131.511719 90.894531 135.929688 86.46875 141.363281 86.46875 C 146.796875 86.46875 151.214844 90.894531 151.214844 96.339844 C 151.214844 101.78125 146.796875 106.210938 141.363281 106.210938"/><path fill="#EBF1F4" d="M 139.207031 86.707031 C 139.207031 89.820312 136.6875 92.347656 133.578125 92.347656 C 130.46875 92.347656 127.945312 89.820312 127.945312 86.707031 C 127.945312 83.589844 130.46875 81.066406 133.578125 81.066406 C 136.6875 81.066406 139.207031 83.589844 139.207031 86.707031"/><path fill="#8F4AE8" d="M 304.941406 285.667969 C 304.941406 256.46875 288.597656 230.914062 264.632812 217.71875 L 264.632812 204.886719 C 264.632812 162.28125 229.84375 127.421875 187.320312 127.421875 C 144.800781 127.421875 110.011719 162.28125 110.011719 204.886719 L 110.011719 217.71875 C 86.042969 230.914062 69.703125 256.46875 69.703125 285.667969 C 69.703125 317.957031 89.695312 345.785156 117.886719 357.371094 C 130.503906 331.660156 156.933594 313.851562 187.320312 313.851562 C 217.710938 313.851562 244.140625 331.660156 256.753906 357.371094 C 284.945312 345.785156 304.941406 317.960938 304.941406 285.667969"/><g clip-path="url(#d)"><path fill="#6722D0" d="M 187.320312 313.851562 C 156.933594 313.851562 130.503906 331.660156 117.886719 357.371094 C 126.890625 361.074219 136.722656 363.128906 147.011719 363.128906 L 227.632812 363.128906 C 237.921875 363.128906 247.753906 361.074219 256.753906 357.371094 C 244.140625 331.660156 217.710938 313.851562 187.320312 313.851562"/></g><path fill="#11223D" d="M 242.363281 235.929688 C 237.089844 234.898438 231.484375 236.386719 226.347656 237.511719 C 220.503906 238.789062 214.703125 240.277344 208.808594 241.296875 C 197.34375 243.28125 185.636719 244.074219 174.058594 242.585938 C 168.011719 241.808594 162.035156 240.503906 156.085938 239.195312 C 150.1875 237.894531 144.183594 236.25 138.140625 235.820312 C 134.050781 235.523438 129.574219 235.953125 126.351562 238.761719 C 123.105469 241.59375 121.820312 246.109375 122.164062 250.308594 C 122.914062 259.40625 129.570312 267.878906 135.96875 273.90625 C 143.574219 281.074219 152.96875 286.183594 162.882812 289.347656 C 184.152344 296.132812 208.355469 293.769531 227.535156 282.175781 C 235.328125 277.464844 242.582031 271.171875 247.398438 263.367188 C 250.367188 258.558594 252.71875 252.835938 252.066406 247.082031 C 251.445312 241.578125 247.972656 236.933594 242.363281 235.929688"/><path fill="#FFF" d="M 174.257812 260.886719 C 179.347656 260.886719 183.472656 252.707031 183.472656 242.617188 L 183.472656 241.6875 L 165.046875 241.6875 L 165.046875 242.617188 C 165.046875 252.707031 169.171875 260.886719 174.257812 260.886719"/><path fill="#FFF" d="M 200.929688 260.886719 C 206.015625 260.886719 210.140625 252.707031 210.140625 242.617188 L 210.140625 241.6875 L 191.714844 241.6875 L 191.714844 242.617188 C 191.714844 252.707031 195.839844 260.886719 200.929688 260.886719"/><path fill="#FFF" d="M 227.597656 254.191406 C 232.683594 254.191406 236.808594 246.011719 236.808594 235.917969 L 236.808594 234.992188 L 218.386719 234.992188 L 218.386719 235.917969 C 218.386719 246.011719 222.511719 254.191406 227.597656 254.191406"/><path fill="#FFF" d="M 147.589844 254.191406 C 152.675781 254.191406 156.800781 246.011719 156.800781 235.917969 L 156.800781 234.992188 L 138.378906 234.992188 L 138.378906 235.917969 C 138.378906 246.011719 142.503906 254.191406 147.589844 254.191406"/><path fill="#FFF" d="M 236.527344 258.285156 C 234.890625 260.734375 237.484375 265.347656 242.324219 268.589844 L 243.882812 269.632812 L 249.804688 260.769531 L 248.242188 259.722656 C 243.40625 256.480469 238.160156 255.835938 236.527344 258.285156"/><path fill="#FFF" d="M 224.453125 265.355469 C 221.390625 268.007812 223.152344 275.082031 228.394531 281.15625 L 230.082031 283.117188 L 241.175781 273.515625 L 239.484375 271.554688 C 234.246094 265.480469 227.515625 262.703125 224.453125 265.355469"/><path fill="#FFF" d="M 138.070312 258.285156 C 139.707031 260.734375 137.109375 265.347656 132.273438 268.589844 L 130.714844 269.632812 L 124.792969 260.769531 L 126.351562 259.722656 C 131.1875 256.480469 136.433594 255.835938 138.070312 258.285156"/><path fill="#FFF" d="M 150.144531 265.355469 C 153.207031 268.007812 151.441406 275.082031 146.203125 281.15625 L 144.511719 283.117188 L 133.421875 273.515625 L 135.109375 271.554688 C 140.351562 265.480469 147.078125 262.703125 150.144531 265.355469"/><path fill="#FF5050" d="M 221.796875 287.480469 C 221.445312 287.660156 221.074219 287.832031 220.722656 288.007812 C 220.613281 288.074219 220.503906 288.140625 220.394531 288.183594 C 216.996094 289.832031 213.335938 291.238281 209.414062 292.378906 C 202.773438 294.355469 195.386719 295.519531 187.320312 295.585938 C 174.496094 295.476562 163.386719 292.578125 154.246094 288.183594 C 154.113281 288.121094 153.980469 288.054688 153.851562 287.988281 C 153.523438 287.832031 153.191406 287.679688 152.886719 287.527344 L 152.796875 287.480469 C 156.566406 281.003906 163.582031 276.65625 171.605469 276.65625 C 177.765625 276.65625 183.332031 279.222656 187.296875 283.355469 C 191.242188 279.222656 196.808594 276.65625 202.96875 276.65625 C 210.992188 276.65625 218.007812 281.003906 221.796875 287.480469"/><path fill="#6722D0" d="M 242.835938 266.789062 C 235.910156 275.222656 226.230469 281.882812 214.847656 286.054688 C 206.019531 289.285156 196.679688 290.921875 187.105469 290.921875 C 172.945312 290.921875 159.355469 287.304688 147.804688 280.457031 C 140.941406 276.382812 131.648438 269.398438 126.386719 259.226562 C 123.722656 254.078125 121.867188 246.546875 125.40625 242.28125 C 126.644531 240.789062 128.554688 239.269531 133.363281 239.269531 C 137.722656 239.269531 142.753906 240.496094 147.617188 241.679688 C 148.667969 241.9375 149.703125 242.1875 150.699219 242.421875 C 161.457031 244.929688 174.226562 247.496094 187.378906 247.496094 C 188.671875 247.496094 189.964844 247.46875 191.257812 247.417969 C 201.589844 247.015625 211.386719 244.902344 220.863281 242.859375 C 225.472656 241.863281 229.828125 240.925781 234.25 240.167969 C 236.308594 239.816406 238.253906 239.636719 240.03125 239.636719 C 248.175781 239.636719 249.742188 243.238281 250.410156 244.777344 C 253.78125 252.535156 245.464844 263.585938 242.835938 266.789062 Z M 258.929688 241.058594 C 254.304688 230.417969 242.902344 229.238281 232.683594 230.992188 C 218.726562 233.386719 205.132812 237.558594 190.894531 238.117188 C 178.050781 238.621094 165.269531 236.261719 152.808594 233.355469 C 141.777344 230.78125 126.878906 225.945312 118.261719 236.328125 C 111.828125 244.082031 113.878906 255.28125 118.140625 263.515625 C 123.613281 274.089844 132.949219 282.464844 143.074219 288.46875 C 165.441406 301.730469 193.734375 303.695312 218.035156 294.796875 C 230.289062 290.308594 241.6875 282.839844 250.011719 272.699219 C 256.820312 264.40625 263.625 251.875 258.929688 241.058594"/><path fill="#6722D0" d="M 193.742188 150.535156 C 173.480469 150.535156 157.054688 166.992188 157.054688 187.296875 C 157.054688 207.597656 173.480469 224.058594 193.742188 224.058594 C 214.003906 224.058594 230.429688 207.597656 230.429688 187.296875 C 230.429688 166.992188 214.003906 150.535156 193.742188 150.535156"/><path fill="#EBF1F4" d="M 224.273438 181.125 C 224.273438 201.429688 207.847656 217.886719 187.585938 217.886719 C 167.320312 217.886719 150.898438 201.429688 150.898438 181.125 C 150.898438 160.824219 167.320312 144.363281 187.585938 144.363281 C 207.847656 144.363281 224.273438 160.824219 224.273438 181.125"/><path fill="#FFA710" d="M 212.21875 181.125 C 212.21875 194.757812 201.191406 205.808594 187.585938 205.808594 C 173.980469 205.808594 162.949219 194.757812 162.949219 181.125 C 162.949219 167.492188 173.980469 156.441406 187.585938 156.441406 C 201.191406 156.441406 212.21875 167.492188 212.21875 181.125"/><path fill="#11223D" d="M 187.585938 196.195312 C 179.292969 196.195312 172.542969 189.4375 172.542969 181.125 C 172.542969 172.816406 179.292969 166.054688 187.585938 166.054688 C 195.878906 166.054688 202.625 172.816406 202.625 181.125 C 202.625 189.4375 195.878906 196.195312 187.585938 196.195312"/><path fill="#EBF1F4" d="M 184.691406 165.136719 C 184.691406 170.6875 180.199219 175.183594 174.660156 175.183594 C 169.125 175.183594 164.636719 170.6875 164.636719 165.136719 C 164.636719 159.589844 169.125 155.089844 174.660156 155.089844 C 180.199219 155.089844 184.691406 159.589844 184.691406 165.136719"/><path fill="#6722D0" d="M 101.902344 273.46875 C 101.902344 277.167969 98.910156 280.167969 95.21875 280.167969 C 91.527344 280.167969 88.535156 277.167969 88.535156 273.46875 C 88.535156 269.769531 91.527344 266.769531 95.21875 266.769531 C 98.910156 266.769531 101.902344 269.769531 101.902344 273.46875"/><path fill="#6722D0" d="M 136.148438 300.640625 C 137.261719 306.539062 132.199219 311.617188 126.308594 310.496094 C 123.039062 309.875 120.367188 307.195312 119.746094 303.917969 C 118.628906 298.019531 123.695312 292.949219 129.582031 294.0625 C 132.851562 294.683594 135.527344 297.363281 136.148438 300.640625"/><path fill="#6722D0" d="M 139.878906 185.65625 C 140.992188 191.554688 135.925781 196.632812 130.039062 195.511719 C 126.769531 194.890625 124.09375 192.210938 123.476562 188.933594 C 122.359375 183.035156 127.425781 177.960938 133.308594 179.078125 C 136.582031 179.699219 139.253906 182.378906 139.878906 185.65625"/><path fill="#6722D0" d="M 107.308594 308.683594 C 108.648438 315.765625 102.566406 321.855469 95.503906 320.515625 C 91.578125 319.765625 88.371094 316.550781 87.628906 312.617188 C 86.289062 305.542969 92.363281 299.453125 99.429688 300.792969 C 103.351562 301.539062 106.5625 304.753906 107.308594 308.683594"/><path fill="#6722D0" d="M 268.953125 280.167969 C 268.953125 283.867188 271.945312 286.863281 275.636719 286.863281 C 279.328125 286.863281 282.324219 283.867188 282.324219 280.167969 C 282.324219 276.46875 279.328125 273.46875 275.636719 273.46875 C 271.945312 273.46875 268.953125 276.46875 268.953125 280.167969"/><path fill="#6722D0" d="M 234.488281 212.453125 C 234.488281 216.152344 237.484375 219.148438 241.175781 219.148438 C 244.867188 219.148438 247.859375 216.152344 247.859375 212.453125 C 247.859375 208.753906 244.867188 205.753906 241.175781 205.753906 C 237.484375 205.753906 234.488281 208.753906 234.488281 212.453125"/><path fill="#6722D0" d="M 235.1875 300.640625 C 234.070312 306.539062 239.136719 311.617188 245.023438 310.496094 C 248.292969 309.875 250.96875 307.195312 251.585938 303.917969 C 252.699219 298.019531 247.636719 292.949219 241.75 294.0625 C 238.480469 294.683594 235.804688 297.363281 235.1875 300.640625"/><path fill="#6722D0" d="M 262.292969 320.40625 C 260.949219 327.484375 267.03125 333.578125 274.097656 332.234375 C 278.019531 331.488281 281.230469 328.269531 281.972656 324.339844 C 283.308594 317.261719 277.234375 311.175781 270.171875 312.515625 C 266.246094 313.257812 263.035156 316.472656 262.292969 320.40625"/></svg>