<svg xmlns="http://www.w3.org/2000/svg" width="125" viewBox="-15 -15 400 400" height="125" version="1.0"><defs><clipPath id="a"><path d="M 259 112 L 364.859375 112 L 364.859375 202 L 259 202 Z M 259 112"/></clipPath><clipPath id="b"><path d="M 260 144 L 364.859375 144 L 364.859375 200 L 260 200 Z M 260 144"/></clipPath><clipPath id="c"><path d="M 10.109375 112 L 116 112 L 116 202 L 10.109375 202 Z M 10.109375 112"/></clipPath><clipPath id="d"><path d="M 10.109375 144 L 116 144 L 116 202 L 10.109375 202 Z M 10.109375 144"/></clipPath><clipPath id="e"><path d="M 154 23.195312 L 221 23.195312 L 221 90 L 154 90 Z M 154 23.195312"/></clipPath></defs><path fill="#6CB7E8" d="M 210.851562 142.308594 L 202.976562 137.933594 C 214.8125 116.632812 229.378906 99.890625 246.269531 88.164062 L 251.410156 95.570312 C 235.660156 106.496094 222.015625 122.222656 210.851562 142.308594"/><path fill="#50A1DD" d="M 241.347656 103.453125 C 240.636719 102.734375 239.578125 102.085938 238.777344 102.171875 C 238.117188 102.246094 237.664062 103.210938 237.292969 103.675781 C 236.726562 104.390625 236.144531 105.089844 235.542969 105.773438 C 234.875 106.535156 234.183594 107.28125 233.480469 108.003906 C 232.25 109.265625 230.773438 110.550781 229.007812 110.558594 C 227.914062 110.558594 226.890625 110.0625 225.941406 109.523438 C 225.210938 109.105469 224.488281 108.648438 223.710938 108.34375 C 222.414062 109.800781 221.140625 111.296875 219.882812 112.828125 C 219.925781 112.917969 219.964844 113.007812 220.003906 113.097656 C 221.085938 115.382812 222.734375 117.4375 224.871094 118.796875 C 225.265625 119.042969 225.675781 119.273438 226.101562 119.46875 C 230.882812 113.523438 235.972656 108.175781 241.347656 103.453125"/><path fill="#6CB7E8" d="M 164.121094 142.308594 L 171.996094 137.933594 C 160.160156 116.632812 145.59375 99.890625 128.703125 88.164062 L 123.5625 95.570312 C 139.3125 106.496094 152.957031 122.222656 164.121094 142.308594"/><path fill="#50A1DD" d="M 151.882812 109.046875 C 150.546875 109.457031 149.222656 110 147.824219 109.964844 C 146.117188 109.921875 144.535156 108.996094 143.289062 107.824219 C 141.773438 106.386719 140.679688 104.597656 139.296875 103.046875 C 138.339844 101.984375 136.90625 100.472656 135.300781 100.917969 C 133.96875 101.285156 133.503906 102.28125 133.539062 103.378906 C 138.0625 107.347656 142.382812 111.753906 146.488281 116.585938 C 147.511719 116.878906 148.558594 117.085938 149.617188 117.199219 C 151.246094 117.371094 152.929688 117.328125 154.453125 116.738281 C 155.375 116.382812 156.230469 115.804688 156.871094 115.054688 C 155.242188 112.988281 153.578125 110.984375 151.882812 109.046875"/><path fill="#6CB7E8" d="M 192.9375 108.101562 L 182.035156 108.101562 L 182.035156 72.777344 L 192.9375 72.777344 L 192.9375 108.101562"/><path fill="#50A1DD" d="M 192.9375 87.878906 C 192.265625 87.828125 191.578125 87.839844 191.011719 87.996094 C 189.933594 88.296875 190.304688 89.257812 190.394531 90.15625 C 190.648438 92.695312 190.75 95.25 190.699219 97.800781 C 190.667969 99.300781 190.527344 100.9375 189.503906 102.035156 C 188.414062 103.203125 186.648438 103.410156 185.050781 103.355469 C 184.050781 103.320312 183.027344 103.214844 182.035156 103.273438 L 182.035156 108.101562 L 192.9375 108.101562 L 192.9375 87.878906"/><g clip-path="url(#a)"><path fill="#312E2B" d="M 259.375 154.773438 C 259.375 154.773438 291.707031 143.664062 282.078125 114.855469 C 282.078125 114.855469 351 94.894531 364.859375 172.304688 C 364.859375 172.304688 355.363281 164.65625 347.136719 168.328125 C 338.613281 172.125 339.835938 183.40625 339.835938 183.40625 C 339.835938 183.40625 333.691406 173.414062 322.738281 177.101562 C 312.710938 180.480469 314.160156 191.742188 314.160156 191.742188 C 314.160156 191.742188 307.433594 183.484375 294.25 187.542969 C 285.105469 190.359375 281.582031 201.207031 281.582031 201.207031 L 259.375 154.773438"/></g><g clip-path="url(#b)"><path fill="#232825" d="M 364.480469 170.273438 C 364.441406 170.089844 364.40625 169.902344 364.363281 169.714844 C 364.265625 169.21875 364.164062 168.726562 364.0625 168.242188 C 364.023438 168.054688 363.980469 167.867188 363.941406 167.679688 C 363.828125 167.171875 363.714844 166.667969 363.597656 166.167969 C 363.566406 166.027344 363.535156 165.886719 363.5 165.746094 C 363.351562 165.113281 363.199219 164.484375 363.042969 163.863281 C 360.15625 162.914062 354.191406 161.488281 347.613281 163.058594 C 338.394531 165.25 335.691406 172.074219 335.691406 172.074219 C 335.691406 172.074219 330.492188 168.410156 321.007812 171.042969 C 311.523438 173.679688 309.679688 182.609375 309.679688 182.609375 C 309.679688 182.609375 309.351562 181.753906 303.226562 180.503906 C 297.371094 179.304688 293.078125 181.632812 292.71875 181.839844 C 292.878906 181.695312 289.835938 171.394531 286.675781 164.109375 C 283.15625 156.003906 278.621094 149.253906 275.035156 144.953125 C 270.003906 149.863281 264.140625 152.78125 261.222656 154.035156 C 261.085938 156.046875 260.984375 157.613281 260.957031 158.082031 L 275.171875 187.804688 L 280.585938 199.121094 L 282.207031 199.625 C 282.25 199.53125 282.292969 199.4375 282.335938 199.335938 L 282.355469 199.292969 C 282.476562 199.023438 282.617188 198.734375 282.765625 198.425781 L 282.863281 198.238281 C 282.898438 198.164062 282.9375 198.09375 282.976562 198.015625 C 283.015625 197.933594 283.058594 197.855469 283.101562 197.773438 L 283.210938 197.570312 C 283.285156 197.425781 283.371094 197.277344 283.453125 197.128906 L 283.53125 196.996094 C 283.59375 196.878906 283.664062 196.757812 283.738281 196.636719 L 283.839844 196.464844 C 283.910156 196.34375 283.984375 196.226562 284.058594 196.105469 L 284.152344 195.953125 C 284.261719 195.78125 284.371094 195.605469 284.488281 195.433594 L 284.492188 195.425781 C 284.605469 195.253906 284.722656 195.082031 284.84375 194.90625 L 284.941406 194.769531 C 285.035156 194.632812 285.136719 194.496094 285.238281 194.359375 L 285.339844 194.21875 C 285.609375 193.859375 285.890625 193.5 286.195312 193.140625 L 286.285156 193.03125 C 286.410156 192.890625 286.53125 192.746094 286.660156 192.601562 L 286.777344 192.46875 C 286.921875 192.3125 287.070312 192.15625 287.222656 192.003906 L 287.269531 191.949219 C 287.441406 191.773438 287.617188 191.601562 287.796875 191.433594 L 287.894531 191.339844 C 288.039062 191.203125 288.1875 191.070312 288.335938 190.9375 L 288.484375 190.804688 C 288.640625 190.671875 288.796875 190.542969 288.953125 190.414062 L 289.0625 190.324219 C 289.257812 190.171875 289.457031 190.015625 289.660156 189.867188 L 289.761719 189.792969 C 289.933594 189.671875 290.109375 189.554688 290.285156 189.4375 L 290.46875 189.316406 C 290.632812 189.214844 290.792969 189.113281 290.964844 189.011719 L 291.128906 188.910156 C 291.355469 188.78125 291.578125 188.660156 291.8125 188.539062 L 291.894531 188.496094 C 292.097656 188.394531 292.304688 188.296875 292.511719 188.203125 C 292.582031 188.167969 292.65625 188.136719 292.730469 188.109375 C 292.90625 188.03125 293.085938 187.960938 293.265625 187.890625 C 293.339844 187.863281 293.410156 187.832031 293.488281 187.804688 C 293.738281 187.710938 293.992188 187.625 294.25 187.542969 C 307.433594 183.484375 314.160156 191.742188 314.160156 191.742188 C 314.160156 191.742188 312.710938 180.480469 322.738281 177.101562 C 333.691406 173.414062 339.835938 183.40625 339.835938 183.40625 C 339.835938 183.40625 338.613281 172.125 347.136719 168.328125 C 355.363281 164.65625 364.859375 172.304688 364.859375 172.304688 C 364.738281 171.617188 364.613281 170.945312 364.480469 170.273438"/></g><path fill="#6CB7E8" d="M 195.589844 294.203125 C 195.589844 294.203125 193.320312 323.910156 198.308594 336.949219 C 203.714844 351.074219 239.03125 351.6875 239.027344 333.933594 C 239.027344 319.832031 218.90625 322.183594 215.023438 319.832031 C 211.140625 317.488281 212 294.203125 212 294.203125 L 195.589844 294.203125"/><path fill="#50A1DD" d="M 234.957031 336.644531 C 230.113281 339.007812 224.160156 340.871094 218.769531 340.882812 C 213.382812 340.898438 207.695312 338.460938 205.164062 333.699219 C 203.863281 331.253906 203.484375 328.4375 203.128906 325.691406 C 202.375 319.878906 201.621094 314.066406 200.867188 308.253906 C 200.644531 306.546875 200.964844 302.707031 199.011719 301.9375 C 197.851562 301.480469 196.414062 301.960938 195.179688 302.6875 C 194.886719 312.480469 195.019531 328.34375 198.308594 336.949219 C 203.65625 350.914062 238.226562 351.667969 239.007812 334.527344 C 237.300781 335.371094 235.691406 336.289062 234.957031 336.644531"/><path fill="#6CB7E8" d="M 310.011719 273.285156 C 300.550781 277.472656 288.222656 268.46875 288.175781 248.683594 C 288.113281 221.675781 269.21875 220.25 274.917969 208.613281 C 279.464844 199.328125 296.515625 202.167969 307.007812 216.691406 C 320.238281 235.007812 327.003906 265.761719 310.011719 273.285156"/><path fill="#50A1DD" d="M 311.921875 262.460938 C 308.460938 264.277344 303.882812 264.21875 300.902344 261.691406 C 297.515625 258.816406 297.019531 253.894531 296.339844 249.511719 C 295.324219 242.960938 293.355469 236.5625 290.53125 230.566406 C 289.386719 228.128906 288.160156 224.78125 286.027344 223.054688 C 283.925781 221.351562 280.683594 219.773438 278.039062 219.253906 C 277.523438 219.148438 276.988281 219.09375 276.449219 219.085938 C 280.566406 224.757812 288.132812 231.601562 288.175781 248.683594 C 288.222656 268.46875 300.550781 277.472656 310.011719 273.285156 C 317.925781 269.785156 320.683594 261.238281 320.039062 251.257812 C 319.804688 252.054688 319.546875 252.84375 319.242188 253.617188 C 317.808594 257.253906 315.382812 260.644531 311.921875 262.460938"/><path fill="#6CB7E8" d="M 60.730469 272.59375 C 69.902344 278.042969 83.632812 270.335938 86.109375 250.082031 C 89.488281 222.433594 109.011719 223.289062 104.601562 210.675781 C 101.085938 200.609375 83.277344 201.429688 70.753906 215.011719 C 54.953125 232.140625 44.253906 262.808594 60.730469 272.59375"/><path fill="#7FC3ED" d="M 58.332031 260.214844 C 58.09375 260.214844 57.851562 260.183594 57.609375 260.109375 C 56.792969 259.855469 56.195312 259.207031 55.964844 258.445312 C 55.632812 257.304688 55.488281 256.136719 55.433594 254.980469 C 55.382812 253.816406 55.445312 252.664062 55.589844 251.523438 C 55.734375 250.382812 55.964844 249.253906 56.316406 248.164062 C 56.664062 247.070312 57.109375 246.003906 57.746094 245.019531 C 58.269531 244.214844 59.144531 243.777344 60.035156 243.777344 C 60.542969 243.777344 61.058594 243.921875 61.515625 244.214844 C 62.300781 244.726562 62.734375 245.574219 62.753906 246.445312 L 62.757812 246.550781 C 62.773438 247.605469 62.660156 248.605469 62.527344 249.59375 C 62.398438 250.585938 62.222656 251.554688 62.042969 252.523438 C 61.859375 253.5 61.667969 254.464844 61.457031 255.433594 C 61.242188 256.40625 61.027344 257.378906 60.722656 258.371094 L 60.691406 258.46875 C 60.363281 259.53125 59.386719 260.214844 58.332031 260.214844"/><path fill="#7FC3ED" d="M 313.007812 249.160156 C 312.058594 249.160156 311.148438 248.609375 310.746094 247.6875 L 310.703125 247.585938 C 310.289062 246.636719 309.960938 245.695312 309.632812 244.753906 C 309.3125 243.816406 309.011719 242.875 308.71875 241.933594 C 308.425781 240.992188 308.136719 240.046875 307.894531 239.082031 C 307.652344 238.109375 307.425781 237.132812 307.320312 236.078125 L 307.308594 235.972656 C 307.226562 235.105469 307.5625 234.214844 308.28125 233.621094 C 308.789062 233.199219 309.40625 232.996094 310.015625 232.996094 C 310.800781 232.996094 311.578125 233.328125 312.117188 233.980469 C 312.867188 234.886719 313.429688 235.898438 313.902344 236.941406 C 314.375 237.984375 314.738281 239.078125 315.011719 240.191406 C 315.285156 241.308594 315.480469 242.449219 315.566406 243.609375 C 315.644531 244.765625 315.636719 245.941406 315.4375 247.113281 C 315.292969 247.894531 314.777344 248.613281 313.996094 248.953125 C 313.671875 249.09375 313.335938 249.160156 313.007812 249.160156"/><path fill="#50A1DD" d="M 86.109375 250.082031 C 87.820312 236.078125 93.671875 229.390625 98.460938 224.558594 C 98.40625 224.179688 98.359375 223.800781 98.300781 223.421875 C 97.601562 218.875 96.308594 214.335938 93.742188 210.515625 C 92.511719 208.683594 90.210938 205.996094 87.675781 204.570312 C 85.226562 205.167969 82.691406 206.15625 80.175781 207.550781 C 79.464844 210.148438 79.609375 213.40625 79.644531 215.289062 C 79.722656 220.191406 80.761719 225.039062 80.875 229.945312 C 81.082031 239.554688 77.730469 248.84375 74.425781 257.871094 C 73.554688 260.238281 72.644531 262.679688 70.886719 264.484375 C 67.835938 267.628906 62.832031 268.128906 58.613281 266.953125 C 57.050781 266.519531 55.558594 265.875 54.160156 265.054688 C 55.484375 268.160156 57.625 270.746094 60.730469 272.59375 C 69.902344 278.042969 83.632812 270.335938 86.109375 250.082031"/><g clip-path="url(#c)"><path fill="#312E2B" d="M 115.597656 154.773438 C 115.597656 154.773438 83.265625 143.664062 92.890625 114.855469 C 92.890625 114.855469 23.972656 94.894531 10.109375 172.304688 C 10.109375 172.304688 19.609375 164.65625 27.835938 168.328125 C 36.355469 172.125 35.132812 183.40625 35.132812 183.40625 C 35.132812 183.40625 41.28125 173.414062 52.234375 177.101562 C 62.261719 180.480469 60.8125 191.742188 60.8125 191.742188 C 60.8125 191.742188 67.539062 183.484375 80.722656 187.542969 C 89.863281 190.359375 93.390625 201.207031 93.390625 201.207031 L 115.597656 154.773438"/></g><g clip-path="url(#d)"><path fill="#232825" d="M 99.320312 144.339844 C 94.367188 150.679688 86.75 162.488281 83.230469 178.59375 C 83.230469 178.59375 73.003906 172.667969 65.363281 180.699219 C 65.363281 180.699219 62.464844 171.777344 53.113281 170.179688 C 43.761719 168.585938 39.546875 171.261719 39.546875 171.261719 C 39.546875 171.261719 37.839844 163.019531 28.683594 160.421875 C 21.699219 158.441406 16.121094 160.515625 12.378906 162.167969 C 11.511719 165.34375 10.75 168.71875 10.109375 172.304688 C 10.109375 172.304688 19.609375 164.65625 27.835938 168.328125 C 36.355469 172.125 35.132812 183.40625 35.132812 183.40625 C 35.132812 183.40625 41.28125 173.414062 52.234375 177.101562 C 62.261719 180.480469 60.8125 191.742188 60.8125 191.742188 C 60.8125 191.742188 67.539062 183.484375 80.722656 187.542969 C 89.863281 190.359375 93.390625 201.207031 93.390625 201.207031 L 115.597656 154.773438 C 115.597656 154.773438 106.4375 151.625 99.320312 144.339844"/></g><path fill="#6CB7E8" d="M 184.636719 294.203125 C 184.636719 294.203125 186.90625 323.910156 181.917969 336.949219 C 176.515625 351.074219 141.203125 351.6875 141.203125 333.933594 C 141.203125 319.832031 161.324219 322.183594 165.207031 319.832031 C 169.085938 317.488281 168.230469 294.203125 168.230469 294.203125 L 184.636719 294.203125"/><path fill="#6CB7E8" d="M 229.242188 92.660156 C 235.59375 107.144531 252.484375 113.738281 266.96875 107.386719 C 281.453125 101.039062 288.050781 84.152344 281.699219 69.667969 C 275.351562 55.1875 258.460938 48.597656 243.976562 54.945312 C 229.488281 61.292969 222.894531 78.179688 229.242188 92.660156"/><path fill="#FFF" d="M 232.84375 91.085938 C 238.320312 103.578125 252.894531 109.265625 265.390625 103.785156 C 277.890625 98.308594 283.578125 83.742188 278.101562 71.25 C 272.621094 58.753906 258.050781 53.066406 245.550781 58.542969 C 233.054688 64.019531 227.363281 78.589844 232.84375 91.085938"/><path fill="#E9E8E7" d="M 278.101562 71.25 C 274.585938 63.238281 267.335938 58.03125 259.292969 56.765625 C 266.5 58.535156 272.839844 63.511719 276.054688 70.839844 C 281.53125 83.332031 275.839844 97.902344 263.34375 103.378906 C 258.859375 105.34375 254.109375 105.863281 249.605469 105.15625 C 254.699219 106.402344 260.222656 106.054688 265.390625 103.785156 C 277.890625 98.308594 283.578125 83.742188 278.101562 71.25"/><path fill="#6CB7E8" d="M 237.429688 89.074219 C 241.796875 99.035156 253.417969 103.570312 263.382812 99.203125 C 273.347656 94.835938 277.882812 83.222656 273.515625 73.257812 C 269.144531 63.296875 257.527344 58.757812 247.5625 63.128906 C 237.597656 67.496094 233.0625 79.113281 237.429688 89.074219"/><path fill="#50A1DD" d="M 273.515625 73.257812 C 271.457031 68.566406 267.792969 65.078125 263.453125 63.15625 C 267.070312 65.175781 270.082031 68.351562 271.878906 72.4375 C 276.246094 82.398438 271.707031 94.015625 261.742188 98.382812 C 256.472656 100.695312 250.734375 100.511719 245.851562 98.351562 C 251.054688 101.257812 257.507812 101.78125 263.382812 99.203125 C 273.347656 94.835938 277.882812 83.222656 273.515625 73.257812"/><path fill="#2F2C31" d="M 241.664062 87.21875 C 245.007812 94.84375 253.898438 98.3125 261.527344 94.972656 C 269.152344 91.628906 272.625 82.738281 269.28125 75.113281 C 265.9375 67.488281 257.042969 64.015625 249.417969 67.359375 C 241.792969 70.699219 238.316406 79.59375 241.664062 87.21875"/><path fill="#232825" d="M 269.28125 75.113281 C 267.808594 71.746094 265.246094 69.1875 262.191406 67.671875 C 264.328125 69.199219 266.101562 71.300781 267.234375 73.882812 C 270.578125 81.511719 267.105469 90.402344 259.476562 93.742188 C 255.222656 95.609375 250.566406 95.347656 246.707031 93.429688 C 250.886719 96.410156 256.484375 97.183594 261.527344 94.972656 C 269.152344 91.628906 272.625 82.738281 269.28125 75.113281"/><path fill="#FFF" d="M 252.214844 77.617188 C 253.535156 80.621094 257.035156 81.988281 260.039062 80.671875 C 263.042969 79.355469 264.40625 75.855469 263.09375 72.851562 C 261.773438 69.851562 258.273438 68.484375 255.269531 69.796875 C 252.269531 71.117188 250.902344 74.617188 252.214844 77.617188"/><path fill="#E9E8E7" d="M 263.09375 72.851562 C 262.511719 71.523438 261.5 70.519531 260.292969 69.921875 C 260.945312 70.480469 261.492188 71.191406 261.863281 72.035156 C 263.179688 75.035156 261.8125 78.535156 258.808594 79.851562 C 257.132812 80.585938 255.304688 80.484375 253.785156 79.730469 C 255.464844 81.171875 257.878906 81.621094 260.039062 80.671875 C 263.042969 79.355469 264.40625 75.855469 263.09375 72.851562"/><path fill="#FFF" d="M 248.691406 86.679688 C 249.210938 87.855469 250.582031 88.390625 251.761719 87.875 C 252.9375 87.359375 253.472656 85.984375 252.957031 84.808594 C 252.441406 83.632812 251.066406 83.09375 249.890625 83.613281 C 248.710938 84.125 248.175781 85.5 248.691406 86.679688"/><path fill="#E9E8E7" d="M 252.957031 84.808594 C 252.792969 84.4375 252.546875 84.128906 252.246094 83.898438 C 252.363281 84.050781 252.464844 84.214844 252.546875 84.398438 C 253.0625 85.578125 252.527344 86.949219 251.351562 87.464844 C 250.542969 87.816406 249.644531 87.675781 248.996094 87.175781 C 249.636719 87.992188 250.765625 88.308594 251.761719 87.875 C 252.9375 87.359375 253.472656 85.984375 252.957031 84.808594"/><path fill="#50A1DD" d="M 281.699219 69.667969 C 278.707031 62.84375 273.371094 57.773438 267.050781 54.980469 C 272.285156 57.917969 276.644531 62.519531 279.242188 68.441406 C 285.59375 82.921875 278.996094 99.808594 264.511719 106.15625 C 256.855469 109.511719 248.527344 109.25 241.4375 106.121094 C 249.007812 110.367188 258.410156 111.140625 266.96875 107.386719 C 281.453125 101.039062 288.050781 84.152344 281.699219 69.667969"/><g clip-path="url(#e)"><path fill="#6CB7E8" d="M 220.765625 56.488281 C 220.765625 74.863281 205.867188 89.761719 187.484375 89.761719 C 169.105469 89.761719 154.207031 74.863281 154.207031 56.488281 C 154.207031 38.113281 169.105469 23.214844 187.484375 23.214844 C 205.867188 23.214844 220.765625 38.113281 220.765625 56.488281"/></g><path fill="#50A1DD" d="M 203.46875 27.300781 C 212.640625 33.226562 218.71875 43.53125 218.71875 55.257812 C 218.71875 73.632812 203.816406 88.527344 185.4375 88.527344 C 179.644531 88.527344 174.199219 87.046875 169.457031 84.445312 C 174.652344 87.800781 180.835938 89.761719 187.484375 89.761719 C 205.867188 89.761719 220.765625 74.863281 220.765625 56.488281 C 220.765625 43.902344 213.773438 32.957031 203.46875 27.300781"/><path fill="#FFF" d="M 216.199219 56.488281 C 216.199219 72.339844 203.34375 85.191406 187.484375 85.191406 C 171.628906 85.191406 158.773438 72.339844 158.773438 56.488281 C 158.773438 40.632812 171.628906 27.785156 187.484375 27.785156 C 203.34375 27.785156 216.199219 40.632812 216.199219 56.488281"/><path fill="#E9E8E7" d="M 195.339844 28.878906 C 206.101562 33.023438 213.738281 43.453125 213.738281 55.671875 C 213.738281 71.523438 200.882812 84.371094 185.027344 84.371094 C 182.304688 84.371094 179.671875 83.984375 177.167969 83.277344 C 180.371094 84.511719 183.847656 85.191406 187.484375 85.191406 C 203.34375 85.191406 216.199219 72.339844 216.199219 56.488281 C 216.199219 43.359375 207.378906 32.296875 195.339844 28.878906"/><path fill="#6CB7E8" d="M 210.378906 56.488281 C 210.378906 69.128906 200.128906 79.375 187.484375 79.375 C 174.84375 79.375 164.59375 69.128906 164.59375 56.488281 C 164.59375 43.847656 174.84375 33.601562 187.484375 33.601562 C 200.128906 33.601562 210.378906 43.847656 210.378906 56.488281"/><path fill="#50A1DD" d="M 198.234375 36.28125 C 204.328125 40.394531 208.332031 47.359375 208.332031 55.257812 C 208.332031 67.898438 198.082031 78.148438 185.4375 78.148438 C 181.550781 78.148438 177.890625 77.175781 174.6875 75.464844 C 178.339844 77.933594 182.742188 79.375 187.484375 79.375 C 200.128906 79.375 210.378906 69.128906 210.378906 56.488281 C 210.378906 47.734375 205.460938 40.128906 198.234375 36.28125"/><path fill="#2F2C31" d="M 205.007812 56.488281 C 205.007812 66.164062 197.164062 74.007812 187.484375 74.007812 C 177.808594 74.007812 169.964844 66.164062 169.964844 56.488281 C 169.964844 46.8125 177.808594 38.96875 187.484375 38.96875 C 197.164062 38.96875 205.007812 46.8125 205.007812 56.488281"/><path fill="#232825" d="M 195.445312 40.882812 C 199.984375 44.050781 202.960938 49.308594 202.960938 55.257812 C 202.960938 64.933594 195.113281 72.777344 185.4375 72.777344 C 182.570312 72.777344 179.867188 72.082031 177.476562 70.863281 C 180.3125 72.839844 183.761719 74.007812 187.484375 74.007812 C 197.164062 74.007812 205.007812 66.164062 205.007812 56.488281 C 205.007812 49.679688 201.121094 43.785156 195.445312 40.882812"/><path fill="#FFF" d="M 189.296875 51.195312 C 189.296875 55.003906 186.207031 58.09375 182.394531 58.09375 C 178.585938 58.09375 175.496094 55.003906 175.496094 51.195312 C 175.496094 47.386719 178.585938 44.296875 182.394531 44.296875 C 186.207031 44.296875 189.296875 47.386719 189.296875 51.195312"/><path fill="#E9E8E7" d="M 185.667969 45.121094 C 186.894531 46.367188 187.660156 48.074219 187.660156 49.964844 C 187.660156 53.777344 184.570312 56.867188 180.757812 56.867188 C 179.574219 56.867188 178.464844 56.566406 177.488281 56.042969 C 178.742188 57.308594 180.476562 58.09375 182.394531 58.09375 C 186.207031 58.09375 189.296875 55.003906 189.296875 51.195312 C 189.296875 48.566406 187.828125 46.285156 185.667969 45.121094"/><path fill="#FFF" d="M 197.273438 59.191406 C 197.273438 60.6875 196.0625 61.894531 194.570312 61.894531 C 193.074219 61.894531 191.863281 60.6875 191.863281 59.191406 C 191.863281 57.699219 193.074219 56.488281 194.570312 56.488281 C 196.0625 56.488281 197.273438 57.699219 197.273438 59.191406"/><path fill="#E9E8E7" d="M 196.023438 56.917969 C 196.296875 57.335938 196.457031 57.839844 196.457031 58.375 C 196.457031 59.867188 195.242188 61.078125 193.75 61.078125 C 193.214844 61.078125 192.714844 60.917969 192.292969 60.648438 C 192.773438 61.398438 193.609375 61.894531 194.570312 61.894531 C 196.0625 61.894531 197.273438 60.6875 197.273438 59.191406 C 197.273438 58.234375 196.777344 57.398438 196.023438 56.917969"/><path fill="#6CB7E8" d="M 289.628906 207.261719 C 289.628906 263.660156 243.898438 309.378906 187.484375 309.378906 C 131.074219 309.378906 85.34375 263.660156 85.34375 207.261719 C 85.34375 150.867188 131.074219 105.148438 187.484375 105.148438 C 243.898438 105.148438 289.628906 150.867188 289.628906 207.261719"/><path fill="#50A1DD" d="M 244 122.195312 C 260.578125 140.347656 270.6875 164.503906 270.6875 191.019531 C 270.6875 247.417969 224.953125 293.136719 168.542969 293.136719 C 147.644531 293.136719 128.214844 286.855469 112.027344 276.085938 C 130.707031 296.542969 157.597656 309.378906 187.484375 309.378906 C 243.898438 309.378906 289.628906 263.660156 289.628906 207.261719 C 289.628906 171.761719 271.503906 140.496094 244 122.195312"/><path fill="#312E2B" d="M 185.152344 216.730469 C 209.503906 216.730469 230.460938 202.203125 239.824219 181.34375 C 244.988281 169.839844 236.410156 156.851562 223.800781 156.851562 L 146.507812 156.851562 C 133.894531 156.851562 125.320312 169.839844 130.484375 181.34375 C 139.847656 202.203125 160.804688 216.730469 185.152344 216.730469"/><path fill="#232825" d="M 223.800781 156.851562 L 217.917969 156.851562 C 223.222656 161.648438 225.480469 169.539062 222.203125 176.835938 C 212.84375 197.695312 191.882812 212.222656 167.535156 212.222656 C 165.53125 212.222656 163.558594 212.113281 161.605469 211.925781 C 168.832031 215.019531 176.792969 216.730469 185.152344 216.730469 C 209.503906 216.730469 230.460938 202.203125 239.824219 181.34375 C 244.988281 169.839844 236.410156 156.851562 223.800781 156.851562"/><path fill="#F03A5A" d="M 185.152344 216.730469 C 199.597656 216.730469 212.847656 211.617188 223.191406 203.105469 C 215.328125 190.355469 201.234375 181.855469 185.152344 181.855469 C 169.070312 181.855469 154.980469 190.355469 147.113281 203.105469 C 157.457031 211.617188 170.710938 216.730469 185.152344 216.730469"/><path fill="#E22A4F" d="M 212.855469 191.484375 C 201.871094 204.183594 185.640625 212.222656 167.535156 212.222656 C 165.535156 212.222656 163.566406 212.113281 161.617188 211.925781 C 161.695312 211.957031 161.777344 211.992188 161.855469 212.027344 C 162.128906 212.144531 162.402344 212.257812 162.679688 212.367188 C 162.835938 212.429688 162.992188 212.492188 163.152344 212.558594 C 163.445312 212.671875 163.742188 212.785156 164.039062 212.898438 C 164.179688 212.949219 164.3125 213.003906 164.453125 213.054688 C 164.832031 213.195312 165.21875 213.332031 165.605469 213.464844 L 165.765625 213.523438 C 166.210938 213.671875 166.65625 213.820312 167.105469 213.960938 C 167.214844 213.996094 167.320312 214.027344 167.429688 214.0625 C 167.769531 214.164062 168.105469 214.265625 168.449219 214.367188 C 168.601562 214.410156 168.761719 214.453125 168.914062 214.496094 C 169.210938 214.582031 169.507812 214.664062 169.808594 214.746094 C 169.976562 214.789062 170.148438 214.832031 170.316406 214.875 C 170.609375 214.949219 170.898438 215.019531 171.191406 215.089844 C 171.363281 215.132812 171.535156 215.171875 171.707031 215.210938 C 172.007812 215.28125 172.3125 215.347656 172.613281 215.414062 C 172.777344 215.445312 172.9375 215.480469 173.097656 215.515625 C 173.445312 215.585938 173.792969 215.648438 174.136719 215.714844 C 174.257812 215.738281 174.375 215.761719 174.496094 215.78125 C 174.964844 215.867188 175.433594 215.945312 175.902344 216.019531 C 175.992188 216.035156 176.078125 216.042969 176.164062 216.058594 C 176.550781 216.113281 176.933594 216.167969 177.320312 216.222656 C 177.484375 216.242188 177.648438 216.261719 177.8125 216.28125 C 178.125 216.316406 178.4375 216.355469 178.75 216.386719 C 178.933594 216.40625 179.121094 216.425781 179.304688 216.445312 C 179.597656 216.472656 179.898438 216.5 180.195312 216.523438 C 180.386719 216.539062 180.578125 216.554688 180.769531 216.566406 C 181.070312 216.589844 181.371094 216.609375 181.671875 216.625 C 181.855469 216.636719 182.042969 216.648438 182.226562 216.65625 C 182.554688 216.671875 182.882812 216.683594 183.207031 216.695312 C 183.367188 216.699219 183.527344 216.707031 183.6875 216.710938 C 184.171875 216.722656 184.652344 216.730469 185.140625 216.730469 L 185.15625 216.730469 C 185.839844 216.730469 186.523438 216.714844 187.207031 216.691406 C 187.324219 216.6875 187.445312 216.683594 187.570312 216.679688 C 188.21875 216.652344 188.867188 216.617188 189.515625 216.570312 C 189.644531 216.5625 189.769531 216.550781 189.898438 216.539062 C 190.558594 216.488281 191.222656 216.429688 191.878906 216.355469 L 192.003906 216.339844 C 192.636719 216.269531 193.269531 216.183594 193.898438 216.09375 C 194.007812 216.078125 194.117188 216.0625 194.226562 216.042969 C 194.859375 215.949219 195.488281 215.84375 196.113281 215.726562 C 196.242188 215.703125 196.371094 215.675781 196.5 215.652344 C 197.128906 215.53125 197.757812 215.402344 198.382812 215.261719 C 198.453125 215.246094 198.523438 215.226562 198.59375 215.210938 C 199.1875 215.078125 199.777344 214.933594 200.359375 214.777344 C 200.460938 214.753906 200.558594 214.730469 200.652344 214.699219 C 201.261719 214.539062 201.859375 214.367188 202.457031 214.191406 C 202.589844 214.148438 202.71875 214.109375 202.847656 214.070312 C 203.445312 213.886719 204.039062 213.695312 204.625 213.492188 C 204.71875 213.460938 204.8125 213.425781 204.902344 213.394531 C 205.457031 213.203125 206.007812 213 206.558594 212.789062 C 206.640625 212.757812 206.726562 212.726562 206.8125 212.695312 C 207.386719 212.46875 207.957031 212.234375 208.523438 211.996094 C 208.652344 211.941406 208.785156 211.886719 208.914062 211.832031 C 209.46875 211.589844 210.023438 211.339844 210.574219 211.082031 C 210.683594 211.03125 210.789062 210.980469 210.894531 210.929688 C 211.417969 210.679688 211.9375 210.425781 212.449219 210.160156 L 212.652344 210.058594 C 213.195312 209.773438 213.734375 209.484375 214.269531 209.1875 C 214.394531 209.117188 214.515625 209.046875 214.640625 208.976562 C 215.160156 208.683594 215.679688 208.378906 216.1875 208.074219 C 216.300781 208.003906 216.414062 207.933594 216.523438 207.863281 C 217.023438 207.558594 217.515625 207.246094 218.007812 206.925781 L 218.136719 206.839844 C 218.648438 206.5 219.15625 206.152344 219.652344 205.800781 C 219.769531 205.71875 219.882812 205.636719 220 205.558594 C 220.480469 205.210938 220.953125 204.859375 221.425781 204.5 C 221.539062 204.414062 221.648438 204.324219 221.761719 204.238281 C 222.242188 203.867188 222.722656 203.492188 223.191406 203.105469 C 220.445312 198.652344 216.9375 194.722656 212.855469 191.484375"/><path fill="#FFF" d="M 210.25 169.304688 L 217.441406 156.851562 L 196.179688 156.851562 L 203.371094 169.304688 C 204.898438 171.949219 208.722656 171.949219 210.25 169.304688"/><path fill="#E9E8E7" d="M 214.542969 156.851562 L 207.351562 169.304688 C 206.871094 170.136719 206.15625 170.710938 205.363281 171.019531 C 207.085938 171.683594 209.207031 171.113281 210.25 169.304688 L 217.441406 156.851562 L 214.542969 156.851562"/><path fill="#7FC3ED" d="M 106.085938 186.789062 C 105.152344 186.789062 104.203125 186.582031 103.308594 186.140625 C 100.675781 184.84375 99.351562 181.949219 99.917969 179.203125 C 101.230469 172.890625 103.484375 166.75 106.402344 160.929688 C 109.335938 155.113281 112.96875 149.625 117.179688 144.617188 C 121.386719 139.609375 126.175781 135.082031 131.433594 131.214844 C 136.691406 127.351562 142.394531 124.101562 148.453125 121.804688 C 149.234375 121.511719 150.035156 121.367188 150.824219 121.367188 C 153.515625 121.367188 156.058594 123.011719 157.070312 125.683594 C 158.171875 128.589844 157.113281 131.789062 154.6875 133.503906 L 154.578125 133.578125 C 149.980469 136.828125 145.554688 140.152344 141.398438 143.761719 C 137.25 147.371094 133.351562 151.226562 129.757812 155.355469 C 126.164062 159.484375 122.886719 163.890625 119.921875 168.542969 C 116.9375 173.1875 114.304688 178.082031 111.800781 183.164062 L 111.746094 183.269531 C 110.652344 185.496094 108.414062 186.789062 106.085938 186.789062"/><path fill="#4C4B49" d="M 36.9375 138.640625 C 35.722656 138.640625 34.550781 137.988281 33.941406 136.84375 C 33.308594 135.652344 33.460938 134.253906 34.207031 133.238281 C 35.878906 130.976562 37.898438 128.996094 40.09375 127.222656 C 42.296875 125.464844 44.703125 123.941406 47.242188 122.667969 C 49.78125 121.398438 52.460938 120.378906 55.234375 119.714844 C 57.558594 119.15625 59.945312 118.8125 62.339844 118.8125 C 62.800781 118.8125 63.253906 118.824219 63.714844 118.851562 C 66.0625 118.984375 67.863281 120.996094 67.730469 123.34375 C 67.628906 125.121094 66.453125 126.582031 64.871094 127.132812 L 64.726562 127.179688 C 62.445312 127.964844 60.21875 128.644531 58.015625 129.402344 C 55.8125 130.167969 53.632812 130.960938 51.472656 131.855469 C 49.308594 132.746094 47.179688 133.734375 45.050781 134.804688 C 42.917969 135.867188 40.808594 137.03125 38.609375 138.199219 L 38.523438 138.242188 C 38.015625 138.515625 37.472656 138.640625 36.9375 138.640625"/><path fill="#4C4B49" d="M 342.058594 144.953125 C 340.960938 144.953125 339.898438 144.53125 339.109375 143.769531 L 339 143.664062 C 337.261719 141.996094 335.636719 140.324219 333.957031 138.710938 C 332.273438 137.097656 330.570312 135.523438 328.792969 134.007812 C 327.011719 132.492188 325.15625 131.046875 323.238281 129.636719 C 321.316406 128.226562 319.324219 126.882812 317.273438 125.457031 L 317.199219 125.402344 C 315.660156 124.332031 315.285156 122.222656 316.355469 120.683594 C 317.011719 119.742188 318.070312 119.234375 319.140625 119.234375 C 319.324219 119.234375 319.503906 119.25 319.6875 119.277344 C 322.460938 119.734375 325.144531 120.628906 327.71875 121.773438 C 330.292969 122.929688 332.75 124.375 335.039062 126.050781 C 337.328125 127.734375 339.457031 129.652344 341.3125 131.816406 C 343.167969 133.976562 344.796875 136.351562 345.953125 138.964844 C 346.90625 141.117188 345.933594 143.632812 343.78125 144.589844 C 343.222656 144.835938 342.632812 144.953125 342.058594 144.953125"/><path fill="#50A1DD" d="M 180.933594 306.507812 C 181.484375 312.652344 181.09375 318.785156 179.460938 324.75 C 178.554688 328.058594 177.273438 331.332031 175.082031 333.96875 C 171.097656 338.773438 164.554688 340.855469 158.3125 340.851562 C 152.699219 340.851562 147.214844 339.378906 141.820312 337.773438 C 146.558594 351.511719 176.9375 349.96875 181.917969 336.949219 C 185.03125 328.816406 185.316406 314.203125 185.097656 304.355469 C 182.769531 303.496094 180.679688 303.671875 180.933594 306.507812"/><path fill="#7FC3ED" d="M 145.554688 331.683594 C 144.90625 331.683594 144.304688 331.296875 144.070312 330.65625 C 143.875 330.136719 143.980469 329.566406 144.289062 329.140625 C 144.757812 328.507812 145.308594 327.957031 145.894531 327.460938 C 146.484375 326.96875 147.113281 326.53125 147.765625 326.140625 C 148.421875 325.75 149.105469 325.414062 149.820312 325.152344 C 150.53125 324.890625 151.265625 324.683594 152.035156 324.609375 C 152.089844 324.601562 152.148438 324.601562 152.203125 324.601562 C 153.117188 324.601562 153.878906 325.292969 153.949219 326.210938 C 153.996094 326.820312 153.722656 327.386719 153.273438 327.75 L 153.21875 327.796875 C 152.671875 328.230469 152.101562 328.578125 151.53125 328.914062 C 150.960938 329.25 150.382812 329.554688 149.800781 329.855469 C 149.21875 330.152344 148.636719 330.449219 148.042969 330.730469 C 147.449219 331.015625 146.851562 331.300781 146.210938 331.546875 L 146.144531 331.574219 C 145.949219 331.644531 145.75 331.683594 145.554688 331.683594"/><path fill="#7FC3ED" d="M 234.050781 331.355469 C 233.851562 331.355469 233.652344 331.320312 233.457031 331.246094 L 233.394531 331.222656 C 232.753906 330.976562 232.15625 330.691406 231.5625 330.40625 C 230.96875 330.121094 230.386719 329.828125 229.804688 329.527344 C 229.222656 329.226562 228.644531 328.925781 228.074219 328.589844 C 227.503906 328.253906 226.9375 327.90625 226.386719 327.46875 L 226.332031 327.425781 C 225.882812 327.0625 225.613281 326.496094 225.65625 325.886719 C 225.722656 324.964844 226.488281 324.277344 227.398438 324.277344 C 227.457031 324.277344 227.511719 324.277344 227.570312 324.28125 C 228.339844 324.351562 229.074219 324.5625 229.785156 324.824219 C 230.496094 325.089844 231.179688 325.425781 231.835938 325.816406 C 232.492188 326.203125 233.121094 326.640625 233.710938 327.136719 C 234.296875 327.632812 234.851562 328.179688 235.320312 328.8125 C 235.625 329.242188 235.730469 329.8125 235.539062 330.332031 C 235.300781 330.96875 234.699219 331.355469 234.050781 331.355469"/><path fill="#F24E72" d="M 166.476562 200.476562 C 163.460938 200.476562 161.199219 199.59375 160.519531 197.882812 C 159.28125 194.765625 163.746094 190.066406 170.492188 187.386719 C 173.53125 186.179688 176.515625 185.589844 178.988281 185.589844 C 182.007812 185.589844 184.265625 186.46875 184.949219 188.179688 C 186.1875 191.296875 181.722656 195.996094 174.976562 198.671875 C 171.9375 199.882812 168.949219 200.476562 166.476562 200.476562"/><path fill="#6CB7E8" d="M 92.996094 92.660156 C 99.347656 107.144531 116.238281 113.738281 130.722656 107.386719 C 145.207031 101.039062 151.800781 84.152344 145.453125 69.667969 C 139.101562 55.1875 122.210938 48.597656 107.726562 54.945312 C 93.238281 61.292969 86.644531 78.179688 92.996094 92.660156"/><path fill="#FFF" d="M 96.59375 91.085938 C 102.074219 103.578125 116.648438 109.265625 129.144531 103.785156 C 141.640625 98.308594 147.332031 83.742188 141.851562 71.25 C 136.375 58.753906 121.800781 53.066406 109.300781 58.542969 C 96.804688 64.019531 91.117188 78.589844 96.59375 91.085938"/><path fill="#E9E8E7" d="M 141.851562 71.25 C 138.339844 63.238281 131.085938 58.03125 123.042969 56.765625 C 130.253906 58.535156 136.59375 63.511719 139.804688 70.839844 C 145.28125 83.332031 139.589844 97.902344 127.09375 103.378906 C 122.613281 105.34375 117.859375 105.863281 113.359375 105.15625 C 118.449219 106.402344 123.972656 106.054688 129.144531 103.785156 C 141.640625 98.308594 147.332031 83.742188 141.851562 71.25"/><path fill="#6CB7E8" d="M 101.183594 89.074219 C 105.546875 99.035156 117.171875 103.570312 127.132812 99.203125 C 137.101562 94.835938 141.636719 83.222656 137.265625 73.257812 C 132.898438 63.296875 121.277344 58.757812 111.3125 63.128906 C 101.347656 67.496094 96.8125 79.113281 101.183594 89.074219"/><path fill="#50A1DD" d="M 137.265625 73.257812 C 135.210938 68.566406 131.546875 65.078125 127.203125 63.15625 C 130.820312 65.175781 133.835938 68.351562 135.628906 72.4375 C 139.996094 82.398438 135.460938 94.015625 125.492188 98.382812 C 120.222656 100.695312 114.484375 100.511719 109.605469 98.351562 C 114.804688 101.257812 121.257812 101.78125 127.132812 99.203125 C 137.097656 94.835938 141.636719 83.222656 137.265625 73.257812"/><path fill="#2F2C31" d="M 105.414062 87.21875 C 108.757812 94.84375 117.652344 98.3125 125.277344 94.972656 C 132.90625 91.628906 136.375 82.738281 133.03125 75.113281 C 129.691406 67.488281 120.796875 64.015625 113.171875 67.359375 C 105.542969 70.699219 102.070312 79.59375 105.414062 87.21875"/><path fill="#232825" d="M 133.03125 75.113281 C 131.558594 71.746094 128.996094 69.1875 125.941406 67.671875 C 128.082031 69.199219 129.851562 71.300781 130.984375 73.882812 C 134.328125 81.511719 130.855469 90.402344 123.226562 93.742188 C 118.972656 95.609375 114.320312 95.347656 110.457031 93.429688 C 114.640625 96.410156 120.234375 97.183594 125.277344 94.972656 C 132.90625 91.628906 136.375 82.738281 133.03125 75.113281"/><path fill="#FFF" d="M 115.96875 77.617188 C 117.285156 80.621094 120.785156 81.988281 123.789062 80.671875 C 126.792969 79.355469 128.160156 75.855469 126.84375 72.851562 C 125.527344 69.851562 122.027344 68.484375 119.019531 69.796875 C 116.019531 71.117188 114.652344 74.617188 115.96875 77.617188"/><path fill="#E9E8E7" d="M 126.84375 72.851562 C 126.261719 71.523438 125.25 70.519531 124.042969 69.921875 C 124.699219 70.480469 125.246094 71.191406 125.613281 72.035156 C 126.933594 75.035156 125.5625 78.535156 122.558594 79.851562 C 120.886719 80.585938 119.058594 80.484375 117.535156 79.730469 C 119.214844 81.171875 121.628906 81.621094 123.789062 80.671875 C 126.792969 79.355469 128.160156 75.855469 126.84375 72.851562"/><path fill="#FFF" d="M 112.445312 86.679688 C 112.960938 87.855469 114.335938 88.390625 115.511719 87.875 C 116.6875 87.359375 117.222656 85.984375 116.707031 84.808594 C 116.191406 83.632812 114.816406 83.09375 113.640625 83.613281 C 112.464844 84.125 111.929688 85.5 112.445312 86.679688"/><path fill="#E9E8E7" d="M 116.707031 84.808594 C 116.546875 84.4375 116.296875 84.128906 115.996094 83.898438 C 116.113281 84.050781 116.21875 84.214844 116.300781 84.398438 C 116.8125 85.578125 116.277344 86.949219 115.101562 87.464844 C 114.292969 87.816406 113.398438 87.675781 112.746094 87.175781 C 113.386719 87.992188 114.515625 88.308594 115.511719 87.875 C 116.6875 87.359375 117.222656 85.984375 116.707031 84.808594"/><path fill="#50A1DD" d="M 145.453125 69.667969 C 142.457031 62.84375 137.121094 57.773438 130.800781 54.980469 C 136.039062 57.917969 140.398438 62.519531 142.996094 68.441406 C 149.34375 82.921875 142.75 99.808594 128.265625 106.15625 C 120.605469 109.511719 112.277344 109.25 105.1875 106.121094 C 112.761719 110.367188 122.160156 111.140625 130.722656 107.386719 C 145.207031 101.039062 151.800781 84.152344 145.453125 69.667969"/></svg>