<?xml version="1.0" encoding="utf-8"?>
<!-- Generator: Adobe Illustrator 16.0.4, SVG Export Plug-In . SVG Version: 6.00 Build 0)  -->
<!DOCTYPE svg PUBLIC "-//W3C//DTD SVG 1.1//EN" "http://www.w3.org/Graphics/SVG/1.1/DTD/svg11.dtd">
<svg version="1.1" id="Layer_1" xmlns="http://www.w3.org/2000/svg" xmlns:xlink="http://www.w3.org/1999/xlink" x="0px" y="0px"
	 width="170px" height="170px" viewBox="0 0 170 170" enable-background="new 0 0 170 170" xml:space="preserve">
<title>Artboard 9</title>
<g>
	<path fill="#6AA7B2" d="M163.854,63.54c-3.588-1.138-7.143-2.04-10.746-2.888c-2.612-0.615-4.178-3.282-3.45-5.864
		c0.37-1.316,0.642-2.652,0.735-4.017c0.207-3.014-0.565-6.234-2.724-8.349c-2.334-2.287-5.923-2.912-9.146-2.354
		c-4.582,0.795-7.322,3.895-9.435,8.042c-2.106,4.146-2.909,9.327-2.249,13.933c0.991,6.887-0.679,14.124-4.583,19.883
		c-1.571,2.318-3.631,4.489-6.313,5.291c-4.682,1.399-9.608-1.854-12.366-5.891c-2.757-4.036-4.132-8.867-6.697-13.028
		c-6.8-11.024-21.897-15.526-34.151-11.332C50.471,61.163,41.58,72.95,39.398,85.718c-1.146,6.701-0.653,13.685-2.621,20.189
		c-1.977,6.545-6.481,12.288-12.362,15.771c-5.88,3.486-13.082,4.678-19.772,3.268c8.078,6.391,21.268,6.774,29.516,0.607
		c4.563-3.41,7.792-8.396,12.471-11.648c1.475-1.023,3.044-1.838,4.681-2.478c0.567,3.04,1.49,6.046,1.954,9.109
		c0.514,3.403,0.286,7.205-1.375,10.1c-0.955,1.665-1.027,3.692-0.057,5.349c1.31,2.234,2.173,4.842,2.645,7.279
		c0.69,3.562,0.618,7.229,0.351,10.851c2.007,3.104,3.268,7.358,4.24,10.927c2.562-0.749,5.051-1.755,7.613-2.503
		c-2.831-2.588-5.628-5.991-7.665-9.242c2.332-5.769,1.879-12.805,0.68-18.91c6.308-3.431,12.083-8,16.313-13.807
		c1.694-2.325,3.114-4.865,4.218-7.528c6.237,2.068,12.364,4.531,18.734,6.022c-0.022,0.153-0.054,0.31-0.073,0.463
		c-1.147,8.934,3.305,18.004,5.383,26.716c0.154,0.234,0.297,0.446,0.451,0.682c1.871,1.502,1.611,3.676,3.264,5.035
		c2.045,1.688,5.371-0.111,7.101-2.191c-1.456-1.396-2.962-2.81-4.608-3.959c-0.322-0.224-0.578-0.517-0.73-0.873
		c-3.305-7.739-6.042-20.977-5.452-24.894c9.179,1.104,19.308-0.968,24.931-8.202c5.328-6.854,5.301-16.412,8.901-24.311
		c4.084-8.956,14.038-14.464,23.763-15.986c1.729-0.27,3.528-0.417,4.977-1.529c0.796-0.614,1.359-1.53,1.365-2.537
		C168.244,65.294,165.866,64.179,163.854,63.54z"/>
	<path fill="#578A92" d="M80.228,113.053c-1.104,2.663-2.524,5.203-4.218,7.528c-3.511,4.817-8.092,8.772-13.153,11.942
		c0.11,0.521,0.293,1.026,0.572,1.502c1.31,2.234,2.173,4.842,2.645,7.281c0.69,3.562,0.618,7.229,0.351,10.85
		c2.007,3.104,3.267,7.359,4.24,10.925c2.562-0.746,5.051-1.752,7.613-2.501c-2.831-2.588-5.627-5.991-7.664-9.243
		c2.332-5.767,1.879-12.803,0.678-18.907c6.309-3.434,12.084-8.004,16.315-13.809c0.574-0.792,1.113-1.609,1.625-2.444
		C86.23,115.146,83.242,114.053,80.228,113.053z"/>
	<g>
		<path fill="#FFFF57" d="M37.289,122.835c3.087-3.015,5.798-6.468,9.34-8.928c1.475-1.024,3.044-1.839,4.681-2.478
			c-0.248-1.341-0.424-2.687-0.462-4.048C45.562,111.486,41.22,117.141,37.289,122.835z"/>
		<path fill="#578A92" d="M163.854,63.54c-3.588-1.138-7.143-2.04-10.746-2.888c-2.612-0.615-4.178-3.282-3.45-5.864
			c0.37-1.316,0.642-2.652,0.735-4.017c0.207-3.014-0.565-6.234-2.724-8.349c-2.334-2.287-5.925-2.912-9.146-2.354
			c-4.582,0.795-7.322,3.896-9.435,8.042c-2.106,4.146-2.909,9.327-2.249,13.933c0.831,5.779-0.218,11.8-2.881,16.993
			c0.466,7.491-0.848,15.312-6.078,20.51c-3.025,3.009-6.863,4.677-11.023,5.453c0.039,0.472,0.037,0.951,0.019,1.414
			c-0.196,4.535-1.541,8.896-2.538,13.321c-0.021,0.09-0.027,0.214-0.044,0.316c9.179,1.104,19.308-0.968,24.931-8.201
			c5.328-6.854,5.301-16.412,8.901-24.31c4.084-8.956,14.038-14.464,23.763-15.987c1.729-0.27,3.529-0.417,4.977-1.529
			c0.796-0.614,1.359-1.53,1.365-2.537C168.244,65.294,165.866,64.179,163.854,63.54z"/>
		<path fill="#578A92" d="M100.805,106.965c-0.023-0.479,0.018-0.957,0.09-1.432c-3.597,0.027-7.261-0.406-10.722-1.071
			c-2.493-0.479-5.005-1.044-7.525-1.569c-0.223,3.487-1.078,6.918-2.42,10.16c6.237,2.068,12.365,4.534,18.733,6.022
			C99.564,114.941,101.033,111.146,100.805,106.965z"/>
	</g>
	<path fill="#578A92" d="M116.854,138.752c-2.148-5.812-3.927-13.532-4.485-18.596c-1.866,0.18-3.757,0.213-5.628,0.104
		c0.476,7.386,3.792,14.806,5.504,21.979c0.154,0.235,0.296,0.448,0.451,0.683c1.871,1.499,1.611,3.674,3.261,5.035
		c2.047,1.686,5.373-0.111,7.103-2.191c-1.045-1.002-2.117-2.013-3.248-2.931C118.482,141.761,117.449,140.355,116.854,138.752z"/>
	<path fill="#6AA7B2" d="M136.034,70.589c0.595,0.616,1.431,0.945,2.269,1.124c2.166,0.461,4.516-0.018,6.329-1.29
		c1.812-1.271,3.063-3.317,3.368-5.51c0.218-1.56-0.074-3.265-1.139-4.426c-1.703-1.86-4.795-1.689-6.996-0.454
		c-2.398,1.348-4.158,3.781-4.678,6.481C134.914,67.931,135.027,69.555,136.034,70.589z"/>
	<path fill="#6AA7B2" d="M163.854,63.54c-1.453-0.461-2.9-0.88-4.352-1.275c-1.771,1.663-3.1,3.802-3.703,6.161
		c-0.393,1.536-0.466,3.14-0.266,4.71c2.088-0.709,4.227-1.246,6.354-1.579c1.401-0.219,2.85-0.357,4.118-0.993
		c1.265-0.637,2.333-1.924,2.216-3.338C168.052,65.205,165.785,64.152,163.854,63.54z"/>
	<path fill="#193644" d="M155.698,68.929c-0.046,0.215-0.099,0.427-0.132,0.644c1.75,0.406,3.562,0.615,5.373,0.615
		c2.246,0,4.494-0.313,6.633-0.93c0.193-0.258,0.349-0.538,0.461-0.832C164.098,69.698,159.734,69.875,155.698,68.929z"/>
	<g>
		<circle fill="#FFFFFF" cx="143.654" cy="63.311" r="4.062"/>
		<circle fill="#193644" cx="143.652" cy="63.308" r="3.044"/>
		<circle fill="#FFFFFF" cx="141.682" cy="61.704" r="1.073"/>
	</g>
	<g>
		<path fill="#FFFF57" d="M65.736,72.372c1.448-1.868,1.285-4.478,1.015-6.824c-0.369-3.204-0.802-6.487-0.038-9.619
			c-1.352,0.25-2.685,0.594-3.987,1.037c-4.611,1.579-8.745,4.233-12.227,7.611c0.657,0.79,1.231,1.694,1.733,2.542
			c1.457,2.466,3.153,4.948,5.675,6.309C60.43,74.786,63.982,74.634,65.736,72.372z"/>
		<path fill="#FFFF57" d="M39.377,85.852c1.289,0.066,2.576,0.035,3.829-0.252c2.026-0.466,3.987-1.729,4.738-3.667
			c0.903-2.329-0.125-4.956-1.443-7.08c-0.605-0.977-1.278-1.93-1.882-2.912c-2.587,4.208-4.39,8.921-5.221,13.778
			C39.391,85.762,39.384,85.807,39.377,85.852z"/>
		<path fill="#FFFF57" d="M76.24,65.137c0.648-0.535,1.019-1.326,1.399-2.077c1.116-2.207,2.494-4.275,4.074-6.176
			c-1.348-0.426-2.726-0.759-4.123-1c-0.085,0.228-0.176,0.451-0.28,0.665c-1.007,2.098-2.659,3.846-3.573,5.986
			c-0.392,0.917-0.576,2.137,0.185,2.781C74.563,65.86,75.59,65.672,76.24,65.137z"/>
		<path fill="#FFFF57" d="M80.927,64.005c-1.902,1.911-3.801,3.911-4.928,6.36c-1.126,2.452-1.363,5.467,0.035,7.771
			c1.398,2.307,4.706,3.472,6.971,2.007c1.632-1.055,2.324-3.042,3.265-4.742c2.133-3.854,6.082-6.623,10.406-7.414
			c-2.66-4.167-6.515-7.376-10.947-9.508C84.429,60.539,82.654,62.271,80.927,64.005z"/>
		<path fill="#FFFF57" d="M90.376,80.127c-0.438,0.928-0.267,2.234,0.642,2.713c0.959,0.508,2.105-0.114,3.01-0.719
			c2.418-1.619,4.839-3.238,7.257-4.857c-0.667-1.373-1.288-2.771-1.925-4.163c-2.277,1.622-4.559,3.246-6.834,4.868
			C91.688,78.566,90.816,79.201,90.376,80.127z"/>
		<path fill="#FFFF57" d="M103.576,81.326c-0.409-0.597-0.778-1.215-1.135-1.841c-0.227,0.236-0.469,0.448-0.73,0.632
			c-1.377,0.983-3.061,1.412-4.604,2.111c-2.479,1.122-4.623,2.982-6.082,5.279c-0.75,1.181-1.332,2.513-1.371,3.909
			c-0.038,1.396,0.545,2.865,1.716,3.63c1.728,1.128,4.123,0.403,5.681-0.948c1.561-1.35,2.572-3.209,3.899-4.787
			c1.616-1.924,3.733-3.403,6.069-4.319C105.688,83.956,104.507,82.689,103.576,81.326z"/>
	</g>
	<path fill="#FFFF57" d="M54.88,85.351c0.586,0.695,1.486,1.03,2.351,1.313c1.517,0.498,3.344,0.873,4.576-0.143
		c1.206-0.996,1.209-2.862,0.74-4.354c-0.491-1.562-1.446-3.051-2.902-3.802c-1.454-0.75-3.444-0.567-4.487,0.695
		c-0.637,0.77-0.846,1.798-0.956,2.791C54.067,83.064,54.094,84.414,54.88,85.351z"/>
	<path fill="#FFFF57" d="M70.712,80.655c1.03-0.826,1.826-2.08,1.713-3.396c-0.11-1.315-1.397-2.531-2.685-2.233
		c-0.683,0.155-1.219,0.669-1.691,1.186c-0.646,0.707-1.257,1.493-1.481,2.423c-0.225,0.931,0.028,2.036,0.823,2.568
		C68.39,81.874,69.774,81.407,70.712,80.655z"/>
	<path fill="#FAF074" d="M47.082,87.729c0.117,0.328,0.134,0.689,0.047,1.026c-0.1,0.388-0.337,0.74-0.662,0.978
		c-0.785,0.574-2.047,0.317-2.544-0.521c-0.497-0.837-0.119-2.065,0.764-2.479C45.568,86.316,46.755,86.811,47.082,87.729z"/>
	<path fill="#FFFF57" d="M50.528,99.407c1.034-1.741,2.066-3.482,3.1-5.224c0.248-0.42,0.503-0.861,0.501-1.35
		c-0.005-0.822-0.798-1.48-1.616-1.57c-0.857-0.094-1.714,0.316-2.319,0.932c-0.605,0.611-0.987,1.412-1.275,2.226
		c-0.521,1.476-0.761,3.05-0.704,4.613c0.022,0.565,0.162,1.243,0.693,1.438C49.569,100.713,50.167,100.016,50.528,99.407z"/>
	<path fill="#FBD795" d="M75.618,161.955c1.175,0.412,2.176,0.447,3.402,0.227c0.01-0.923-0.408-1.843-1.111-2.442
		c-0.703-0.601-1.678-0.866-2.589-0.709C74.702,160.314,75.131,160.999,75.618,161.955z"/>
	<path fill="#FBD795" d="M73.48,163.046c1.175,0.411,2.178,0.448,3.402,0.228c0.012-0.924-0.406-1.844-1.11-2.443
		c-0.703-0.6-1.677-0.867-2.588-0.709C72.724,161.389,72.82,162.132,73.48,163.046z"/>
	<path fill="#FBD795" d="M70.622,163.419c1.175,0.409,2.178,0.448,3.402,0.226c0.01-0.924-0.408-1.845-1.111-2.441
		c-0.703-0.602-1.677-0.869-2.588-0.711C69.959,160.997,69.634,162.766,70.622,163.419z"/>
	<path fill="#FBD795" d="M120.814,143.704c-0.104-0.003-0.207,0.01-0.31,0.05c-0.397,0.159-0.604,0.626-0.595,1.055
		c0.01,0.309,0.107,0.604,0.229,0.891c-0.387-0.609-1.314-0.868-1.924-0.439c-0.393,0.28-0.554,0.784-0.499,1.258
		c-0.25-0.248-0.563-0.429-0.909-0.494c-0.693-0.129-1.467,0.271-1.703,0.934c0.222,0.361,0.488,0.701,0.853,1.002
		c2.008,1.655,5.246-0.05,7-2.078c0.024-0.043,0.056-0.087,0.082-0.133C122.316,145.052,121.573,144.369,120.814,143.704z"/>
	<g>
		<path fill="#6AA7B2" d="M135.098,45.235c-0.171,0.561-0.234,1.137-0.326,1.687c-0.069,0.553-0.205,1.075-0.213,1.589
			c-0.022,0.51-0.095,1.873-0.097,2.075c0.013,0.2,0.123,2.303,0.123,2.303l0.093-0.001c0,0,0.055-2.105,0.062-2.306
			c0.015-0.2,0.048-0.407,0.073-0.625c0.055-0.432,0.115-0.901,0.18-1.396c0.048-0.494,0.203-1.006,0.308-1.539
			c0.119-0.531,0.216-1.086,0.414-1.624c0.177-0.543,0.354-1.094,0.533-1.644c0.233-0.528,0.467-1.057,0.696-1.579
			c0.217-0.527,0.504-1.006,0.759-1.482c0.088-0.169,0.167-0.338,0.249-0.507c-0.434,0.098-0.848,0.215-1.25,0.353
			c-0.203,0.415-0.417,0.834-0.555,1.296c-0.198,0.553-0.399,1.116-0.602,1.677C135.395,44.091,135.244,44.667,135.098,45.235z"/>
		<path fill="#6AA7B2" d="M129.719,48.501c0.198,0.363,0.395,0.725,0.59,1.083c0.174,0.365,0.428,0.679,0.649,0.992
			c0.237,0.304,0.415,0.629,0.677,0.875c0.246,0.254,0.479,0.494,0.692,0.715c0.108,0.109,0.206,0.219,0.31,0.311
			c0.107,0.084,1.241,0.971,1.241,0.971l0.062-0.069c0,0-1.023-1.012-1.123-1.11c-0.09-0.102-0.172-0.219-0.262-0.335
			c-0.181-0.233-0.375-0.487-0.578-0.755c-0.217-0.255-0.371-0.59-0.568-0.897c-0.188-0.319-0.401-0.633-0.537-0.996
			c-0.155-0.353-0.311-0.711-0.469-1.068c-0.104-0.375-0.209-0.75-0.314-1.119c-0.061-0.183-0.1-0.369-0.135-0.553
			c-0.203,0.344-0.4,0.696-0.596,1.06C129.479,47.901,129.6,48.2,129.719,48.501z"/>
		<path fill="#6AA7B2" d="M127.938,52.53c0.354,0.324,0.75,0.588,1.117,0.855c0.391,0.233,0.758,0.485,1.141,0.653
			c0.378,0.179,0.736,0.344,1.086,0.449c0.171,0.058,0.337,0.113,0.492,0.167c0.162,0.036,0.316,0.071,0.463,0.104
			c0.287,0.07,0.535,0.121,0.744,0.133c0.414,0.044,0.65,0.069,0.65,0.069l0.014-0.091c0,0-0.232-0.049-0.642-0.134
			c-0.208-0.031-0.446-0.107-0.715-0.201c-0.136-0.044-0.279-0.092-0.429-0.143c-0.146-0.066-0.299-0.136-0.459-0.207
			c-0.327-0.132-0.653-0.326-0.996-0.531c-0.35-0.197-0.686-0.457-1.038-0.707c-0.333-0.283-0.687-0.557-1.003-0.889
			c-0.215-0.198-0.42-0.427-0.611-0.652c-0.079,0.253-0.143,0.512-0.212,0.768C127.669,52.297,127.795,52.417,127.938,52.53z"/>
		<path fill="#6AA7B2" d="M139.271,49.216c0.334-0.495,0.731-0.981,1.125-1.495c0.426-0.49,0.85-1.01,1.332-1.49
			c0.459-0.502,0.979-0.957,1.479-1.431c0.536-0.436,1.05-0.895,1.609-1.279c0.539-0.408,1.101-0.767,1.633-1.127
			c0.232-0.151,0.462-0.3,0.688-0.445c-0.266-0.217-0.544-0.417-0.832-0.597c-0.128,0.079-0.258,0.158-0.391,0.238
			c-0.537,0.394-1.109,0.781-1.637,1.25c-0.545,0.438-1.053,0.937-1.573,1.417c-0.491,0.512-1,1.006-1.445,1.544
			c-0.47,0.515-0.876,1.069-1.284,1.589c-0.375,0.548-0.763,1.058-1.064,1.584c-0.317,0.519-0.607,1.012-0.842,1.486
			c-0.252,0.463-0.457,0.903-0.627,1.297c-0.181,0.39-0.33,0.731-0.432,1.02c-0.216,0.573-0.34,0.9-0.34,0.9l0.086,0.036
			c0,0,0.146-0.318,0.398-0.875c0.121-0.283,0.291-0.611,0.494-0.983c0.192-0.376,0.42-0.795,0.703-1.236
			C138.611,50.169,138.93,49.703,139.271,49.216z"/>
		<path fill="#6AA7B2" d="M129.919,57.276c0.304-0.024,0.589-0.049,0.853-0.07c0.528-0.031,0.951-0.131,1.256-0.167
			c0.301-0.045,0.474-0.072,0.474-0.072l-0.008-0.091c0,0-0.175,0.002-0.479,0.008c-0.303-0.005-0.742,0.038-1.261-0.001
			c-0.255-0.013-0.535-0.028-0.831-0.042c-0.293-0.011-0.604-0.057-0.925-0.085c-0.32-0.034-0.651-0.059-0.983-0.125
			c-0.332-0.057-0.67-0.114-1.006-0.172c-0.087-0.022-0.174-0.044-0.261-0.066c-0.024,0.257-0.042,0.513-0.062,0.772
			c0.068,0.008,0.138,0.018,0.207,0.025c0.354,0.024,0.707,0.051,1.055,0.074c0.347,0.035,0.689,0.024,1.021,0.026
			C129.299,57.283,129.613,57.31,129.919,57.276z"/>
		<path fill="#6AA7B2" d="M145.159,54.688c0.397-0.125,0.805-0.276,1.239-0.351c0.428-0.093,0.863-0.188,1.3-0.283
			c0.44-0.047,0.884-0.096,1.319-0.144c0.297-0.039,0.592-0.051,0.879-0.059c0.078-0.322,0.147-0.641,0.209-0.964
			c-0.396,0.033-0.801,0.057-1.203,0.163c-0.448,0.092-0.901,0.186-1.354,0.278c-0.442,0.132-0.887,0.265-1.323,0.394
			c-0.438,0.111-0.847,0.3-1.248,0.46c-0.396,0.174-0.795,0.292-1.14,0.496c-0.349,0.189-0.677,0.368-0.981,0.532
			c-0.309,0.155-0.569,0.324-0.793,0.485c-0.229,0.155-1.108,0.756-1.108,0.756l0.048,0.078c0,0,0.938-0.505,1.18-0.637
			c0.241-0.138,0.518-0.281,0.834-0.399c0.31-0.128,0.645-0.27,1-0.417C144.361,54.918,144.764,54.825,145.159,54.688z"/>
		<path fill="#6AA7B2" d="M145.104,49.133c-0.492,0.313-0.908,0.708-1.328,1.066c-0.405,0.375-0.842,0.679-1.172,1.068
			c-0.342,0.374-1.256,1.367-1.385,1.521c-0.115,0.159-1.348,1.839-1.348,1.839l0.07,0.059c0,0,1.361-1.577,1.49-1.727
			c0.137-0.143,0.293-0.279,0.451-0.426c0.315-0.294,0.656-0.611,1.018-0.949c0.349-0.345,0.798-0.629,1.213-0.967
			c0.431-0.324,0.854-0.684,1.351-0.958c0.479-0.294,0.966-0.593,1.453-0.893c0.519-0.243,1.035-0.485,1.543-0.725
			c0.5-0.254,1.029-0.421,1.526-0.608c0.068-0.026,0.133-0.056,0.201-0.084c-0.064-0.315-0.146-0.625-0.232-0.934
			c-0.109,0.04-0.213,0.08-0.323,0.121c-0.51,0.218-1.056,0.409-1.55,0.726c-0.51,0.287-1.023,0.577-1.538,0.865
			C146.062,48.464,145.578,48.802,145.104,49.133z"/>
	</g>
	<g>
		<path fill="#FFFF57" d="M41.852,92.707c-0.939-0.682-1.998-1.152-3.104-1.518c-0.263,3.193-0.412,6.404-0.864,9.556
			c2.153,1.41,5.739,0.366,6.459-2.21C44.948,96.37,43.671,94.031,41.852,92.707z"/>
		<path fill="#FFFF57" d="M37.523,103.255c-0.022-0.026-0.039-0.06-0.062-0.085c-0.189,0.92-0.411,1.835-0.685,2.737
			c-0.553,1.836-1.313,3.604-2.239,5.282c0.146,0.08,0.292,0.158,0.438,0.227c1.517,0.686,3.461,0.261,4.553-0.994
			c1.093-1.257,1.245-3.238,0.355-4.646C39.27,104.8,38.257,104.146,37.523,103.255z"/>
		<path fill="#FFFF57" d="M25.066,121.275c0.791,0.131,1.588,0.168,2.384,0.048c2.036-0.312,4.016-2.021,3.861-4.075
			c-0.029-0.381-0.127-0.742-0.267-1.091C29.306,118.136,27.291,119.867,25.066,121.275z"/>
		<path fill="#FFFF57" d="M19.224,126.628c1.324,0.035,2.407-1.2,2.666-2.499c0.078-0.388,0.097-0.777,0.081-1.17
			c-1.833,0.846-3.759,1.486-5.732,1.919C17.141,125.637,18.044,126.595,19.224,126.628z"/>
	</g>
	<path fill="#193644" d="M165.245,66.01c-0.175,0.18-0.122,0.494,0.044,0.68c0.166,0.188,0.414,0.277,0.65,0.357
		c0.237,0.079,0.485,0.16,0.664,0.337c0.112-0.324-0.096-0.665-0.295-0.945c-0.127-0.178-0.262-0.362-0.451-0.47
		C165.667,65.861,165.398,65.853,165.245,66.01z"/>
	<g opacity="0.39">
		<path fill="#FFFFFF" d="M24.415,123.866c5.881-3.484,10.385-9.23,12.362-15.773c1.968-6.508,1.475-13.489,2.621-20.19
			c2.183-12.766,11.074-24.554,23.33-28.75c12.255-4.196,27.352,0.306,34.151,11.331c2.566,4.161,3.939,8.992,6.698,13.029
			c2.759,4.036,7.685,7.29,12.368,5.889c2.682-0.803,4.74-2.975,6.312-5.292c3.368-4.966,5.065-11.029,4.839-17.021
			c-0.209,5.263-1.882,10.474-4.839,14.836c-1.571,2.319-3.631,4.49-6.312,5.292c-4.686,1.4-9.611-1.854-12.368-5.891
			c-2.759-4.036-4.132-8.866-6.698-13.028c-6.8-11.024-21.896-15.526-34.151-11.332c-12.256,4.196-21.147,15.983-23.33,28.75
			c-1.146,6.701-0.653,13.684-2.621,20.189c-1.977,6.545-6.481,12.289-12.362,15.771c-5.88,3.486-13.082,4.677-19.772,3.267
			c1.376,1.089,2.903,2,4.528,2.738C14.476,127.889,19.846,126.574,24.415,123.866z"/>
		<path fill="#FFFFFF" d="M153.107,62.835c3.604,0.848,7.158,1.75,10.746,2.888c1.641,0.521,3.521,1.358,4.155,2.838
			c0.14-0.337,0.22-0.7,0.222-1.074c0.016-2.193-2.364-3.309-4.377-3.949c-3.588-1.138-7.143-2.04-10.746-2.889
			c-1.793-0.421-3.094-1.812-3.498-3.477C149.02,59.691,150.562,62.238,153.107,62.835z"/>
		<path fill="#FFFFFF" d="M129.091,50.293c2.109-4.147,4.851-7.247,9.435-8.042c3.221-0.558,6.811,0.066,9.144,2.355
			c1.685,1.649,2.517,3.972,2.704,6.344c0.007-0.06,0.016-0.12,0.021-0.181c0.207-3.014-0.566-6.234-2.725-8.349
			c-2.334-2.287-5.925-2.912-9.145-2.354c-4.582,0.795-7.323,3.895-9.436,8.042c-1.796,3.533-2.632,7.813-2.438,11.852
			C126.797,56.599,127.617,53.194,129.091,50.293z"/>
	</g>
	<path fill="#FBD795" d="M115.086,149.777c-0.688-0.657-1.385-1.316-2.102-1.953c-0.125-0.01-0.25,0.002-0.375,0.052
		c-0.394,0.158-0.596,0.618-0.588,1.041c0.011,0.308,0.107,0.597,0.228,0.882c-0.381-0.604-1.304-0.859-1.901-0.434
		c-0.39,0.275-0.549,0.773-0.494,1.244c-0.248-0.25-0.559-0.426-0.902-0.491c-0.7-0.129-1.49,0.286-1.702,0.968
		c-0.005,0.018-0.005,0.036-0.011,0.053c0.199,0.299,0.438,0.578,0.744,0.832C110.029,153.656,113.355,151.857,115.086,149.777z"/>
	<g opacity="0.34">
		<path fill="#CB9749" d="M87.184,107.783c-1.652-0.451-3.32-0.891-4.997-1.291c-0.419,2.242-1.082,4.441-1.959,6.561
			c6.237,2.068,12.365,4.534,18.733,6.022c0.398-2.712,1.15-5.284,1.57-7.907C96.037,110.295,91.602,108.997,87.184,107.783z"/>
		<path fill="#CB9749" d="M43.199,116.77c1.079-1.033,2.203-2.01,3.43-2.861c1.475-1.024,3.044-1.838,4.681-2.479
			c-0.102-0.548-0.188-1.098-0.262-1.648C48.08,111.674,45.409,114.03,43.199,116.77z"/>
		<path fill="#CB9749" d="M130.184,103.962c-4.851,5.901-12.933,8.332-20.57,8.229c-1.164-0.018-2.32-0.096-3.473-0.205
			c-0.522,2.593-1.22,5.16-1.802,7.748c-0.021,0.09-0.026,0.214-0.044,0.316c9.18,1.104,19.307-0.968,24.932-8.201
			c3.657-4.705,4.791-10.685,6.308-16.523C133.977,98.386,132.318,101.366,130.184,103.962z"/>
	</g>
	<path fill="#FBD795" d="M64.482,164.093c1.175,0.409,2.177,0.448,3.402,0.228c0.011-0.926-0.407-1.846-1.11-2.443
		c-0.703-0.6-1.678-0.865-2.589-0.711C63.565,162.451,63.996,163.135,64.482,164.093z"/>
	<path fill="#FBD795" d="M62.346,165.184c1.174,0.409,2.177,0.448,3.401,0.228c0.011-0.925-0.408-1.843-1.111-2.445
		c-0.703-0.596-1.677-0.862-2.588-0.709C61.59,163.527,61.686,164.27,62.346,165.184z"/>
	<path fill="#FBD795" d="M59.487,165.557c1.175,0.407,2.177,0.446,3.401,0.226c0.012-0.925-0.408-1.845-1.11-2.443
		c-0.703-0.6-1.678-0.866-2.589-0.709C58.825,163.133,58.5,164.904,59.487,165.557z"/>
</g>
</svg>
