<?xml version="1.0" encoding="utf-8"?>
<!-- Generator: Adobe Illustrator 16.0.4, SVG Export Plug-In . SVG Version: 6.00 Build 0)  -->
<!DOCTYPE svg PUBLIC "-//W3C//DTD SVG 1.1//EN" "http://www.w3.org/Graphics/SVG/1.1/DTD/svg11.dtd">
<svg version="1.1" id="Layer_1" xmlns="http://www.w3.org/2000/svg" xmlns:xlink="http://www.w3.org/1999/xlink" x="0px" y="0px"
	 width="170px" height="170px" viewBox="0 0 170 170" enable-background="new 0 0 170 170" xml:space="preserve">
<title>Artboard 9</title>
<g>
	<path fill="#6AA7B2" d="M159.35,47.496c-3.38-1.071-6.727-1.921-10.121-2.72c-2.461-0.579-3.935-3.091-3.25-5.523
		c0.348-1.24,0.604-2.498,0.693-3.783c0.195-2.838-0.533-5.871-2.565-7.863c-2.198-2.154-5.578-2.743-8.612-2.217
		c-4.316,0.749-6.897,3.668-8.885,7.575c-1.985,3.905-2.742,8.784-2.119,13.122c0.934,6.486-0.64,13.301-4.316,18.725
		c-1.481,2.184-3.42,4.229-5.946,4.984c-4.411,1.318-9.051-1.746-11.648-5.548c-2.597-3.801-3.891-8.351-6.308-12.27
		c-6.405-10.383-20.623-14.623-32.165-10.673C52.564,45.258,44.19,56.36,42.135,68.384c-1.079,6.311-0.615,12.887-2.468,19.014
		c-1.862,6.164-6.104,11.574-11.643,14.855c-5.538,3.283-12.321,4.404-18.622,3.076c7.608,6.018,20.03,6.381,27.798,0.574
		c4.298-3.213,7.339-7.91,11.746-10.971c1.389-0.965,2.867-1.732,4.408-2.334c0.534,2.863,1.403,5.693,1.84,8.58
		c0.484,3.205,0.269,6.785-1.295,9.512c-0.899,1.568-0.968,3.477-0.054,5.037c1.234,2.104,2.047,4.559,2.491,6.855
		c0.65,3.355,0.582,6.809,0.33,10.219c1.89,2.924,3.077,6.932,3.993,10.291c2.413-0.705,4.757-1.652,7.17-2.357
		c-2.666-2.438-5.3-5.643-7.218-8.705c2.196-5.432,1.77-12.059,0.64-17.809c5.941-3.232,11.38-7.535,15.364-13.004
		c1.596-2.189,2.933-4.582,3.973-7.09c5.874,1.947,11.645,4.268,17.644,5.672c-0.021,0.145-0.051,0.291-0.069,0.436
		c-1.081,8.414,3.112,16.957,5.069,25.162c0.146,0.221,0.279,0.42,0.426,0.641c1.762,1.414,1.518,3.461,3.072,4.742
		c1.926,1.588,5.06-0.105,6.688-2.064c-1.371-1.316-2.789-2.646-4.341-3.729c-0.303-0.209-0.544-0.486-0.688-0.822
		c-3.111-7.289-5.691-19.756-5.135-23.445c8.645,1.039,18.184-0.912,23.48-7.725c5.018-6.455,4.992-15.457,8.383-22.895
		c3.847-8.435,13.222-13.623,22.38-15.057c1.629-0.254,3.324-0.393,4.687-1.44c0.75-0.578,1.28-1.441,1.286-2.389
		C163.484,49.149,161.245,48.098,159.35,47.496z"/>
	<path fill="#578A92" d="M80.589,94.129c-1.04,2.508-2.377,4.9-3.973,7.09c-3.307,4.537-7.621,8.262-12.388,11.248
		c0.104,0.49,0.276,0.967,0.539,1.414c1.234,2.105,2.047,4.561,2.491,6.857c0.649,3.355,0.582,6.809,0.33,10.219
		c1.89,2.924,3.077,6.932,3.993,10.289c2.413-0.703,4.757-1.65,7.17-2.355c-2.666-2.438-5.3-5.643-7.218-8.705
		c2.196-5.432,1.77-12.059,0.639-17.809c5.942-3.232,11.381-7.537,15.365-13.004c0.542-0.746,1.049-1.516,1.532-2.303
		C86.243,96.1,83.428,95.07,80.589,94.129z"/>
	<g>
		<path fill="#FFFF57" d="M40.149,103.342c2.907-2.84,5.461-6.092,8.797-8.408c1.389-0.965,2.867-1.732,4.408-2.334
			c-0.234-1.262-0.4-2.529-0.435-3.812C47.94,92.654,43.851,97.979,40.149,103.342z"/>
		<path fill="#FFFF57" d="M159.35,47.496c-3.38-1.071-6.727-1.921-10.121-2.72c-2.461-0.579-3.935-3.091-3.25-5.523
			c0.348-1.24,0.604-2.498,0.693-3.783c0.195-2.838-0.533-5.871-2.565-7.863c-2.198-2.154-5.579-2.743-8.612-2.217
			c-4.316,0.749-6.897,3.669-8.885,7.575c-1.985,3.905-2.742,8.784-2.119,13.122c0.783,5.443-0.205,11.113-2.714,16.004
			c0.44,7.056-0.797,14.42-5.724,19.316c-2.85,2.834-6.464,4.406-10.383,5.136c0.038,0.443,0.035,0.896,0.017,1.332
			c-0.185,4.271-1.45,8.379-2.39,12.547c-0.019,0.084-0.026,0.201-0.041,0.299c8.645,1.039,18.184-0.912,23.48-7.725
			c5.018-6.455,4.992-15.457,8.383-22.895c3.847-8.435,13.222-13.623,22.38-15.057c1.629-0.254,3.324-0.393,4.687-1.44
			c0.75-0.578,1.28-1.441,1.286-2.389C163.484,49.149,161.245,48.098,159.35,47.496z"/>
		<path fill="#FFFF57" d="M99.968,88.395c-0.023-0.449,0.016-0.902,0.085-1.348c-3.387,0.025-6.838-0.383-10.098-1.01
			c-2.347-0.451-4.714-0.982-7.087-1.478c-0.21,3.285-1.015,6.515-2.279,9.57c5.874,1.947,11.645,4.27,17.644,5.672
			C98.802,95.908,100.183,92.334,99.968,88.395z"/>
	</g>
	<path fill="#578A92" d="M115.085,118.332c-2.024-5.475-3.699-12.744-4.226-17.514c-1.758,0.17-3.537,0.201-5.301,0.1
		c0.449,6.955,3.572,13.943,5.184,20.699c0.146,0.223,0.279,0.422,0.426,0.643c1.761,1.412,1.518,3.459,3.071,4.742
		c1.927,1.588,5.06-0.105,6.688-2.064c-0.984-0.945-1.993-1.896-3.059-2.76C116.618,121.166,115.645,119.844,115.085,118.332z"/>
	<path fill="#6AA7B2" d="M133.148,54.136c0.561,0.58,1.348,0.89,2.137,1.058c2.04,0.434,4.252-0.017,5.961-1.215
		c1.707-1.197,2.885-3.124,3.172-5.189c0.205-1.469-0.07-3.075-1.072-4.169c-1.605-1.752-4.516-1.591-6.589-0.427
		c-2.259,1.269-3.917,3.561-4.405,6.104C132.094,51.632,132.201,53.161,133.148,54.136z"/>
	<path fill="#6AA7B2" d="M159.35,47.496c-1.369-0.434-2.733-0.829-4.098-1.201c-1.67,1.566-2.92,3.581-3.488,5.802
		c-0.37,1.447-0.439,2.957-0.25,4.436c1.967-0.668,3.98-1.173,5.985-1.487c1.319-0.206,2.683-0.336,3.878-0.935
		c1.192-0.6,2.197-1.812,2.086-3.144C163.303,49.065,161.168,48.073,159.35,47.496z"/>
	<path fill="#193644" d="M151.668,52.572c-0.043,0.202-0.092,0.402-0.123,0.606c1.649,0.383,3.354,0.58,5.06,0.58
		c2.116,0,4.233-0.295,6.247-0.876c0.182-0.243,0.327-0.507,0.433-0.784C159.579,53.296,155.471,53.463,151.668,52.572z"/>
	<g>
		<circle fill="#FFFFFF" cx="140.326" cy="47.281" r="3.826"/>
		<circle fill="#193644" cx="140.323" cy="47.278" r="2.867"/>
		<circle fill="#FFFFFF" cx="138.467" cy="45.768" r="1.011"/>
	</g>
	<g>
		<path fill="#FFFF57" d="M66.941,55.815c1.363-1.76,1.21-4.218,0.956-6.428c-0.347-3.017-0.756-6.109-0.036-9.059
			c-1.273,0.236-2.529,0.559-3.755,0.977c-4.343,1.487-8.236,3.987-11.515,7.168c0.619,0.744,1.16,1.596,1.632,2.394
			c1.372,2.323,2.97,4.661,5.345,5.941S65.289,57.946,66.941,55.815z"/>
		<path fill="#FFFF57" d="M42.115,68.51c1.214,0.062,2.426,0.033,3.606-0.238c1.908-0.438,3.755-1.627,4.462-3.453
			c0.85-2.194-0.118-4.668-1.359-6.669c-0.57-0.919-1.204-1.817-1.772-2.742c-2.437,3.964-4.135,8.402-4.917,12.977
			C42.128,68.426,42.122,68.468,42.115,68.51z"/>
		<path fill="#FFFF57" d="M76.833,49.001c0.611-0.504,0.96-1.249,1.318-1.956c1.051-2.078,2.349-4.026,3.837-5.817
			c-1.269-0.401-2.567-0.715-3.883-0.942c-0.08,0.215-0.166,0.425-0.263,0.626c-0.949,1.976-2.505,3.622-3.366,5.638
			c-0.369,0.864-0.542,2.012,0.174,2.619C75.254,49.682,76.221,49.505,76.833,49.001z"/>
		<path fill="#FFFF57" d="M81.248,47.935c-1.792,1.8-3.58,3.683-4.641,5.99c-1.061,2.309-1.284,5.148,0.033,7.319
			c1.317,2.173,4.432,3.269,6.565,1.891c1.537-0.994,2.189-2.865,3.075-4.466c2.008-3.63,5.729-6.238,9.801-6.983
			c-2.506-3.925-6.136-6.947-10.311-8.955C84.546,44.67,82.874,46.302,81.248,47.935z"/>
		<path fill="#FFFF57" d="M90.147,63.119c-0.413,0.874-0.251,2.103,0.604,2.555c0.903,0.479,1.984-0.107,2.835-0.677
			c2.278-1.525,4.557-3.05,6.833-4.574c-0.628-1.293-1.213-2.611-1.811-3.921c-2.146,1.528-4.294,3.056-6.438,4.585
			C91.383,61.648,90.562,62.246,90.147,63.119z"/>
		<path fill="#FFFF57" d="M102.579,64.248c-0.385-0.562-0.733-1.144-1.069-1.734c-0.212,0.222-0.442,0.422-0.688,0.595
			c-1.297,0.926-2.883,1.33-4.335,1.988c-2.335,1.057-4.353,2.809-5.728,4.973c-0.706,1.111-1.254,2.365-1.292,3.682
			c-0.035,1.315,0.514,2.698,1.616,3.418c1.627,1.062,3.883,0.38,5.351-0.893c1.468-1.271,2.421-3.023,3.672-4.51
			c1.522-1.81,3.516-3.204,5.716-4.067C104.568,66.725,103.455,65.531,102.579,64.248z"/>
	</g>
	<path fill="#FFFF57" d="M56.716,68.038c0.552,0.656,1.399,0.971,2.214,1.238c1.429,0.468,3.15,0.821,4.31-0.135
		c1.136-0.938,1.139-2.695,0.697-4.101c-0.463-1.471-1.362-2.874-2.733-3.581c-1.369-0.707-3.244-0.534-4.226,0.654
		c-0.6,0.725-0.797,1.694-0.9,2.628C55.95,65.885,55.976,67.156,56.716,68.038z"/>
	<path fill="#FFFF57" d="M71.627,63.616c0.97-0.778,1.719-1.959,1.613-3.198c-0.104-1.239-1.316-2.384-2.528-2.104
		c-0.643,0.147-1.148,0.631-1.593,1.118c-0.608,0.665-1.184,1.406-1.395,2.282c-0.212,0.877,0.026,1.918,0.775,2.419
		C69.44,64.764,70.744,64.324,71.627,63.616z"/>
	<path fill="#FAF074" d="M49.372,70.278c0.11,0.309,0.126,0.649,0.044,0.966c-0.094,0.365-0.318,0.697-0.623,0.921
		c-0.74,0.541-1.928,0.299-2.396-0.49c-0.468-0.788-0.112-1.947,0.719-2.336C47.946,68.948,49.064,69.413,49.372,70.278z"/>
	<path fill="#FFFF57" d="M52.617,81.278c0.974-1.641,1.946-3.281,2.92-4.92c0.233-0.395,0.474-0.812,0.472-1.271
		c-0.005-0.774-0.752-1.396-1.522-1.48c-0.807-0.087-1.614,0.299-2.184,0.877c-0.57,0.577-0.93,1.331-1.201,2.097
		c-0.49,1.39-0.717,2.872-0.663,4.345c0.021,0.533,0.152,1.171,0.653,1.354C51.714,82.507,52.278,81.849,52.617,81.278z"/>
	<path fill="#FBD795" d="M76.247,140.186c1.107,0.387,2.05,0.422,3.204,0.213c0.01-0.869-0.384-1.736-1.046-2.301
		s-1.581-0.816-2.438-0.668C75.385,138.641,75.789,139.285,76.247,140.186z"/>
	<path fill="#FBD795" d="M74.234,141.213c1.107,0.387,2.051,0.422,3.204,0.213c0.011-0.869-0.383-1.736-1.046-2.301
		c-0.662-0.564-1.579-0.816-2.438-0.668C73.522,139.652,73.613,140.352,74.234,141.213z"/>
	<path fill="#FBD795" d="M71.542,141.564c1.107,0.385,2.051,0.422,3.204,0.211c0.01-0.869-0.384-1.736-1.046-2.299
		c-0.662-0.566-1.58-0.818-2.438-0.67C70.918,139.283,70.612,140.949,71.542,141.564z"/>
	<path fill="#FBD795" d="M118.815,122.996c-0.098-0.002-0.196,0.01-0.292,0.047c-0.375,0.15-0.569,0.59-0.559,0.994
		c0.008,0.289,0.101,0.568,0.214,0.838c-0.363-0.574-1.239-0.818-1.811-0.414c-0.37,0.264-0.521,0.738-0.47,1.184
		c-0.236-0.234-0.531-0.404-0.857-0.465c-0.654-0.121-1.381,0.256-1.604,0.879c0.209,0.34,0.461,0.66,0.802,0.943
		c1.892,1.559,4.942-0.047,6.593-1.957c0.025-0.041,0.052-0.082,0.077-0.125C120.229,124.266,119.529,123.623,118.815,122.996z"/>
	<g>
		<path fill="#6AA7B2" d="M132.266,30.257c-0.16,0.528-0.221,1.071-0.307,1.588c-0.066,0.521-0.194,1.013-0.2,1.497
			c-0.023,0.48-0.089,1.764-0.091,1.954c0.011,0.188,0.115,2.169,0.115,2.169l0.088-0.001c0,0,0.051-1.983,0.057-2.172
			c0.014-0.188,0.045-0.383,0.07-0.588c0.051-0.407,0.107-0.849,0.168-1.315c0.045-0.465,0.192-0.947,0.29-1.449
			c0.113-0.5,0.202-1.023,0.39-1.529c0.166-0.511,0.333-1.03,0.502-1.548c0.221-0.498,0.44-0.996,0.657-1.487
			c0.203-0.496,0.473-0.948,0.714-1.396c0.082-0.159,0.157-0.319,0.234-0.478c-0.408,0.092-0.799,0.202-1.177,0.332
			c-0.192,0.391-0.393,0.786-0.522,1.221c-0.188,0.521-0.377,1.051-0.567,1.58C132.546,29.179,132.405,29.721,132.266,30.257z"/>
		<path fill="#6AA7B2" d="M127.2,33.333c0.187,0.342,0.372,0.683,0.556,1.02c0.164,0.344,0.402,0.639,0.611,0.934
			c0.225,0.286,0.392,0.593,0.638,0.825c0.231,0.239,0.45,0.465,0.652,0.673c0.103,0.103,0.194,0.206,0.29,0.293
			c0.103,0.079,1.17,0.915,1.17,0.915l0.058-0.065c0,0-0.964-0.953-1.057-1.045c-0.085-0.096-0.162-0.206-0.247-0.316
			c-0.17-0.22-0.354-0.459-0.545-0.711c-0.203-0.241-0.349-0.556-0.535-0.845c-0.176-0.3-0.378-0.596-0.506-0.938
			c-0.146-0.332-0.293-0.67-0.44-1.006c-0.1-0.353-0.199-0.707-0.298-1.054c-0.057-0.172-0.094-0.347-0.127-0.521
			c-0.191,0.324-0.377,0.656-0.56,0.998C126.974,32.768,127.088,33.049,127.2,33.333z"/>
		<path fill="#6AA7B2" d="M125.521,37.127c0.335,0.305,0.707,0.554,1.054,0.806c0.369,0.22,0.713,0.457,1.074,0.615
			c0.355,0.169,0.693,0.324,1.022,0.423c0.161,0.055,0.317,0.106,0.464,0.157c0.153,0.034,0.299,0.067,0.435,0.099
			c0.271,0.066,0.505,0.114,0.701,0.126c0.39,0.041,0.614,0.065,0.614,0.065l0.012-0.086c0,0-0.219-0.046-0.603-0.126
			c-0.196-0.029-0.422-0.101-0.674-0.189c-0.127-0.042-0.262-0.087-0.403-0.134c-0.137-0.062-0.282-0.128-0.433-0.195
			c-0.307-0.125-0.615-0.307-0.938-0.5c-0.328-0.186-0.645-0.43-0.978-0.666c-0.313-0.266-0.646-0.524-0.944-0.837
			c-0.202-0.186-0.394-0.402-0.576-0.614c-0.075,0.238-0.133,0.482-0.199,0.723C125.269,36.908,125.389,37.021,125.521,37.127z"/>
		<path fill="#6AA7B2" d="M136.197,34.006c0.314-0.466,0.689-0.924,1.061-1.408c0.4-0.461,0.799-0.951,1.253-1.403
			c0.432-0.473,0.923-0.901,1.394-1.348c0.504-0.41,0.988-0.842,1.516-1.204c0.507-0.384,1.035-0.722,1.536-1.062
			c0.22-0.142,0.435-0.282,0.649-0.419c-0.25-0.204-0.512-0.392-0.784-0.562c-0.12,0.075-0.243,0.149-0.368,0.224
			c-0.506,0.371-1.045,0.736-1.54,1.177c-0.513,0.413-0.992,0.882-1.483,1.335c-0.463,0.482-0.942,0.947-1.361,1.454
			c-0.442,0.485-0.825,1.007-1.21,1.497c-0.353,0.516-0.718,0.996-1.003,1.492c-0.298,0.488-0.572,0.953-0.792,1.399
			c-0.237,0.436-0.431,0.851-0.591,1.222c-0.169,0.367-0.31,0.689-0.405,0.961c-0.204,0.539-0.321,0.847-0.321,0.847l0.081,0.034
			c0,0,0.137-0.299,0.376-0.824c0.113-0.266,0.274-0.575,0.465-0.926c0.182-0.355,0.397-0.749,0.662-1.164
			C135.575,34.904,135.875,34.465,136.197,34.006z"/>
		<path fill="#6AA7B2" d="M127.389,41.597c0.285-0.023,0.555-0.046,0.803-0.066c0.497-0.029,0.896-0.123,1.182-0.157
			c0.283-0.043,0.446-0.068,0.446-0.068l-0.007-0.086c0,0-0.164,0.002-0.451,0.008c-0.286-0.005-0.701,0.036-1.188-0.001
			c-0.241-0.012-0.504-0.026-0.783-0.04c-0.276-0.01-0.569-0.053-0.872-0.08c-0.301-0.032-0.613-0.055-0.926-0.118
			c-0.312-0.054-0.63-0.108-0.947-0.163c-0.082-0.021-0.163-0.042-0.245-0.062c-0.023,0.242-0.04,0.483-0.057,0.727
			c0.064,0.008,0.129,0.017,0.194,0.024c0.333,0.023,0.666,0.048,0.993,0.07c0.327,0.033,0.65,0.023,0.961,0.025
			C126.804,41.604,127.102,41.629,127.389,41.597z"/>
		<path fill="#6AA7B2" d="M141.742,39.16c0.376-0.117,0.758-0.26,1.168-0.33c0.403-0.088,0.813-0.177,1.224-0.267
			c0.416-0.044,0.832-0.09,1.242-0.135c0.28-0.037,0.557-0.048,0.829-0.055c0.073-0.303,0.139-0.604,0.197-0.908
			c-0.373,0.031-0.755,0.054-1.135,0.153c-0.422,0.087-0.848,0.175-1.275,0.262c-0.418,0.124-0.835,0.249-1.246,0.371
			c-0.414,0.105-0.798,0.282-1.176,0.433c-0.372,0.164-0.748,0.275-1.073,0.467c-0.328,0.178-0.638,0.346-0.925,0.501
			c-0.29,0.146-0.536,0.305-0.747,0.457c-0.216,0.146-1.044,0.712-1.044,0.712l0.045,0.073c0,0,0.882-0.476,1.111-0.6
			c0.227-0.13,0.487-0.264,0.785-0.376c0.291-0.121,0.607-0.254,0.942-0.392C140.992,39.377,141.37,39.289,141.742,39.16z"/>
		<path fill="#6AA7B2" d="M141.689,33.928c-0.462,0.295-0.854,0.667-1.25,1.004c-0.382,0.353-0.793,0.64-1.104,1.006
			c-0.322,0.352-1.183,1.287-1.304,1.432c-0.109,0.15-1.269,1.732-1.269,1.732l0.067,0.055c0,0,1.282-1.485,1.404-1.626
			c0.129-0.134,0.276-0.263,0.424-0.401c0.298-0.277,0.619-0.576,0.959-0.894c0.328-0.325,0.75-0.593,1.142-0.911
			c0.405-0.305,0.804-0.644,1.271-0.902c0.451-0.277,0.91-0.559,1.37-0.841c0.487-0.229,0.974-0.457,1.453-0.683
			c0.471-0.24,0.968-0.397,1.437-0.573c0.065-0.024,0.125-0.053,0.189-0.079c-0.06-0.297-0.136-0.589-0.218-0.88
			c-0.104,0.038-0.201,0.075-0.305,0.114c-0.481,0.205-0.994,0.385-1.46,0.683c-0.479,0.27-0.964,0.543-1.448,0.815
			C142.594,33.298,142.137,33.616,141.689,33.928z"/>
	</g>
	<g>
		<path fill="#FFFF57" d="M44.446,74.967c-0.885-0.643-1.882-1.086-2.923-1.43c-0.248,3.009-0.388,6.033-0.814,9
			c2.028,1.328,5.405,0.346,6.083-2.081C47.362,78.417,46.159,76.214,44.446,74.967z"/>
		<path fill="#FFFF57" d="M40.369,84.901c-0.021-0.025-0.037-0.055-0.058-0.08c-0.178,0.867-0.387,1.728-0.645,2.578
			c-0.521,1.729-1.237,3.395-2.109,4.975c0.138,0.076,0.275,0.15,0.413,0.213c1.429,0.646,3.26,0.246,4.289-0.936
			c1.029-1.184,1.172-3.051,0.334-4.377C42.014,86.355,41.06,85.74,40.369,84.901z"/>
		<path fill="#FFFF57" d="M28.637,101.873c0.745,0.123,1.496,0.158,2.246,0.045c1.917-0.293,3.782-1.904,3.636-3.838
			c-0.028-0.359-0.12-0.699-0.251-1.027C32.63,98.916,30.732,100.547,28.637,101.873z"/>
		<path fill="#FFFF57" d="M23.135,106.914c1.247,0.033,2.267-1.131,2.511-2.354c0.073-0.365,0.091-0.732,0.076-1.102
			c-1.727,0.797-3.54,1.402-5.399,1.807C21.173,105.98,22.024,106.883,23.135,106.914z"/>
	</g>
	<path fill="#193644" d="M160.66,49.823c-0.165,0.169-0.115,0.465,0.041,0.641c0.157,0.176,0.39,0.261,0.614,0.336
		c0.223,0.074,0.457,0.15,0.625,0.317c0.106-0.305-0.091-0.626-0.278-0.89c-0.12-0.168-0.246-0.341-0.426-0.443
		C161.056,49.683,160.805,49.675,160.66,49.823z"/>
	<g opacity="0.39">
		<path fill="#FFFFFF" d="M28.024,104.312c5.539-3.281,9.78-8.693,11.643-14.855c1.853-6.129,1.389-12.705,2.468-19.015
			c2.056-12.024,10.43-23.127,21.972-27.078c11.542-3.952,25.76,0.289,32.165,10.672c2.417,3.919,3.711,8.469,6.308,12.27
			c2.598,3.802,7.237,6.866,11.648,5.548c2.526-0.756,4.465-2.801,5.946-4.984c3.171-4.677,4.771-10.388,4.556-16.03
			c-0.196,4.957-1.771,9.864-4.556,13.973c-1.481,2.184-3.42,4.229-5.946,4.984c-4.411,1.318-9.051-1.746-11.648-5.548
			c-2.597-3.801-3.891-8.351-6.308-12.27c-6.405-10.383-20.623-14.623-32.165-10.673C52.564,45.258,44.19,56.36,42.135,68.384
			c-1.079,6.311-0.615,12.887-2.468,19.014c-1.862,6.164-6.104,11.574-11.643,14.855c-5.538,3.283-12.321,4.404-18.622,3.076
			c1.296,1.025,2.734,1.883,4.264,2.578C18.663,108.102,23.72,106.863,28.024,104.312z"/>
		<path fill="#FFFFFF" d="M149.229,46.833c3.395,0.799,6.741,1.648,10.121,2.72c1.544,0.491,3.317,1.279,3.914,2.673
			c0.131-0.318,0.206-0.659,0.208-1.011c0.015-2.066-2.227-3.117-4.122-3.72c-3.38-1.071-6.727-1.921-10.121-2.72
			c-1.689-0.397-2.914-1.707-3.295-3.275C145.377,43.872,146.832,46.27,149.229,46.833z"/>
		<path fill="#FFFFFF" d="M126.609,35.021c1.987-3.906,4.568-6.825,8.885-7.574c3.033-0.526,6.414,0.062,8.612,2.218
			c1.586,1.554,2.368,3.741,2.547,5.975c0.005-0.056,0.014-0.112,0.019-0.17c0.195-2.838-0.533-5.871-2.565-7.863
			c-2.198-2.154-5.579-2.743-8.612-2.217c-4.316,0.749-6.897,3.668-8.885,7.575c-1.692,3.327-2.48,7.358-2.296,11.162
			C124.448,40.959,125.221,37.753,126.609,35.021z"/>
	</g>
	<path fill="#FBD795" d="M113.419,128.717c-0.647-0.619-1.304-1.24-1.979-1.84c-0.118-0.01-0.235,0.002-0.353,0.049
		c-0.37,0.148-0.562,0.582-0.554,0.98c0.01,0.289,0.102,0.562,0.214,0.83c-0.358-0.568-1.228-0.809-1.791-0.408
		c-0.366,0.26-0.516,0.729-0.466,1.172c-0.232-0.234-0.525-0.4-0.849-0.463c-0.661-0.121-1.404,0.27-1.604,0.912
		c-0.005,0.016-0.005,0.033-0.009,0.049c0.188,0.281,0.413,0.545,0.701,0.783C108.656,132.369,111.79,130.676,113.419,128.717z"/>
	<g opacity="0.34">
		<path fill="#CB9749" d="M87.14,89.166c-1.557-0.426-3.127-0.838-4.706-1.217c-0.395,2.113-1.019,4.184-1.845,6.18
			c5.874,1.947,11.645,4.27,17.644,5.672c0.374-2.555,1.083-4.977,1.478-7.447C95.479,91.531,91.301,90.309,87.14,89.166z"/>
		<path fill="#CB9749" d="M45.715,97.629c1.016-0.973,2.075-1.893,3.231-2.695c1.389-0.965,2.867-1.732,4.408-2.334
			c-0.096-0.516-0.177-1.033-0.247-1.553C50.312,92.83,47.796,95.049,45.715,97.629z"/>
		<path fill="#CB9749" d="M127.639,85.566c-4.569,5.559-12.181,7.848-19.376,7.752c-1.095-0.016-2.185-0.09-3.27-0.193
			c-0.492,2.441-1.147,4.859-1.696,7.297c-0.019,0.084-0.026,0.201-0.041,0.299c8.645,1.039,18.184-0.912,23.48-7.725
			c3.445-4.432,4.513-10.062,5.941-15.563C131.21,80.315,129.649,83.122,127.639,85.566z"/>
	</g>
	<path fill="#FBD795" d="M65.76,142.199c1.106,0.385,2.05,0.422,3.204,0.213c0.01-0.871-0.384-1.738-1.046-2.301
		c-0.662-0.564-1.58-0.816-2.438-0.67C64.896,140.652,65.302,141.297,65.76,142.199z"/>
	<path fill="#FBD795" d="M63.748,143.227c1.106,0.385,2.05,0.422,3.203,0.213c0.011-0.871-0.384-1.736-1.046-2.303
		c-0.662-0.562-1.58-0.814-2.438-0.668C63.036,141.666,63.126,142.365,63.748,143.227z"/>
	<path fill="#FBD795" d="M61.055,143.576c1.107,0.385,2.051,0.422,3.204,0.213c0.011-0.871-0.384-1.736-1.046-2.301
		s-1.58-0.816-2.438-0.668C60.431,141.295,60.125,142.963,61.055,143.576z"/>
</g>
</svg>
