<?xml version="1.0" encoding="utf-8"?>
<!-- Generator: Adobe Illustrator 24.3.0, SVG Export Plug-In . SVG Version: 6.00 Build 0)  -->
<svg version="1.1" id="Layer_1" xmlns="http://www.w3.org/2000/svg" xmlns:xlink="http://www.w3.org/1999/xlink" x="0px" y="0px"
	 width="165.8px" height="680.6px" viewBox="0 0 165.8 680.6" style="enable-background:new 0 0 165.8 680.6;" xml:space="preserve"
	>
<style type="text/css">
	.st0{fill:#FCE7D4;stroke:#020202;stroke-width:0.75;stroke-miterlimit:10;}
	.st1{fill:#FCFAF7;stroke:#000000;stroke-width:0.75;stroke-miterlimit:10;}
	.st2{fill:none;stroke:#000000;stroke-width:0.75;stroke-miterlimit:10;}
	.st3{fill:#F99C16;stroke:#000000;stroke-width:0.75;stroke-miterlimit:10;}
	.st4{fill:#286308;stroke:#020202;stroke-width:0.75;stroke-miterlimit:10;}
	.st5{fill:none;stroke:#020202;stroke-width:0.75;stroke-miterlimit:10;}
	.st6{fill:#008E19;stroke:#020202;stroke-width:0.75;stroke-miterlimit:10;}
	.st7{fill:#F44711;stroke:#020202;stroke-width:0.75;stroke-miterlimit:10;}
	.st8{fill:#FFFFFF;stroke:#000000;stroke-width:0.75;stroke-miterlimit:10;}
	.st9{fill:#D19A75;stroke:#020202;stroke-width:0.75;stroke-miterlimit:10;}
	.st10{fill:#FFFFFF;stroke:#020202;stroke-width:0.75;stroke-miterlimit:10;}
	.st11{fill:#23211B;stroke:#000000;stroke-width:0.75;stroke-miterlimit:10;}
	.st12{fill:#6A3E00;stroke:#020202;stroke-width:0.75;stroke-miterlimit:10;}
	.st13{fill:#91E3F9;stroke:#020202;stroke-width:0.75;stroke-miterlimit:10;}
	.st14{fill:#08AF2B;}
	.st15{fill:#B5CCD6;stroke:#020202;stroke-width:0.75;stroke-linejoin:round;stroke-miterlimit:10;}
	.st16{fill:#647C83;stroke:#000000;stroke-width:0.75;stroke-linejoin:round;stroke-miterlimit:10;}
	.st17{fill:#D7E3EE;stroke:#000000;stroke-width:0.75;stroke-linejoin:round;stroke-miterlimit:10;}
	.st18{fill:#D8821D;stroke:#020202;stroke-width:0.75;stroke-miterlimit:10;}
	.st19{fill:#E8D5AA;stroke:#020202;stroke-width:0.75;stroke-miterlimit:10;}
	.st20{fill:none;stroke:#020202;stroke-linecap:round;stroke-miterlimit:10;}
	.st21{fill:#EFEEED;stroke:#020202;stroke-width:0.75;stroke-miterlimit:10;}
	.st22{fill:#6A3E00;stroke:#000000;stroke-width:0.25;stroke-miterlimit:10;}
	.st23{clip-path:url(#SVGID_2_);}
	.st24{clip-path:url(#SVGID_4_);fill:#B5CCD6;}
	.st25{clip-path:url(#SVGID_6_);fill:none;stroke:#020202;stroke-width:0.75;stroke-linejoin:round;stroke-miterlimit:10;}
	.st26{clip-path:url(#SVGID_8_);fill:#647C83;}
	.st27{clip-path:url(#SVGID_10_);fill:none;stroke:#000000;stroke-width:0.75;stroke-linejoin:round;stroke-miterlimit:10;}
	.st28{clip-path:url(#SVGID_12_);fill:#D7E3EE;}
	.st29{clip-path:url(#SVGID_14_);fill:none;stroke:#000000;stroke-width:0.75;stroke-linejoin:round;stroke-miterlimit:10;}
	.st30{fill:#262626;stroke:#020202;stroke-width:0.75;stroke-miterlimit:10;}
	.st31{fill:#F7DE48;stroke:#020202;stroke-width:0.75;stroke-miterlimit:10;}
	.st32{fill:#332E28;stroke:#000000;stroke-width:0.75;stroke-miterlimit:10;}
	.st33{fill:#099160;stroke:#020202;stroke-width:0.75;stroke-miterlimit:10;}
	.st34{fill:#FFFFFF;}
	.st35{fill:none;stroke:#020202;stroke-width:3;stroke-miterlimit:10;}
	.st36{fill:#0B0B7F;stroke:#020202;stroke-width:0.75;stroke-miterlimit:10;}
	.st37{fill:#FFFFFF;stroke:#FFFFFF;stroke-width:0.5;stroke-miterlimit:10;}
	.st38{fill:#7F4C0E;stroke:#000000;stroke-width:0.75;stroke-miterlimit:10;}
	.st39{fill:none;stroke:#231F20;stroke-width:0.75;stroke-miterlimit:10;}
	.st40{fill:#202133;stroke:#000000;stroke-width:0.75;stroke-miterlimit:10;}
	.st41{fill:#7F500B;stroke:#020202;stroke-width:0.75;stroke-miterlimit:10;}
	.st42{fill:#020202;stroke:#020202;stroke-width:0.75;stroke-miterlimit:10;}
	.st43{fill:#DCB1E0;stroke:#020202;stroke-width:0.75;stroke-miterlimit:10;}
	.st44{clip-path:url(#SVGID_16_);}
	.st45{clip-path:url(#SVGID_18_);}
	.st46{clip-path:url(#SVGID_20_);fill:#F7BB92;}
	.st47{clip-path:url(#SVGID_20_);fill:none;stroke:#020202;stroke-width:0.75;stroke-miterlimit:10;}
	.st48{clip-path:url(#SVGID_20_);fill:#A56621;}
	.st49{clip-path:url(#SVGID_20_);fill:none;stroke:#000000;stroke-width:0.75;stroke-miterlimit:10;}
	.st50{clip-path:url(#SVGID_20_);fill:#7F4C0E;}
	.st51{clip-path:url(#SVGID_20_);fill:none;stroke:#231F20;stroke-width:0.75;stroke-miterlimit:10;}
	.st52{clip-path:url(#SVGID_20_);fill:#FFFFFF;}
	.st53{clip-path:url(#SVGID_20_);}
	.st54{clip-path:url(#SVGID_20_);fill:#0096FF;}
	.st55{clip-path:url(#SVGID_20_);fill:#231F20;}
	.st56{clip-path:url(#SVGID_20_);fill:#F44711;}
	.st57{clip-path:url(#SVGID_20_);fill:#262626;}
	.st58{clip-path:url(#SVGID_20_);fill:#F7DE48;}
	.st59{clip-path:url(#SVGID_20_);fill:#332E28;}
	.st60{clip-path:url(#SVGID_20_);fill:#D19A75;}
	.st61{clip-path:url(#SVGID_20_);fill:#6A3E00;}
	.st62{clip-path:url(#SVGID_20_);fill:#099160;}
	.st63{clip-path:url(#SVGID_20_);fill:none;stroke:#020202;stroke-width:3;stroke-miterlimit:10;}
	.st64{clip-path:url(#SVGID_20_);fill:#0B0B7F;}
	.st65{clip-path:url(#SVGID_20_);fill:none;stroke:#FFFFFF;stroke-width:0.5;stroke-miterlimit:10;}
	.st66{clip-path:url(#SVGID_20_);fill:#FCE7D4;}
	.st67{clip-path:url(#SVGID_20_);fill:#008E19;}
	.st68{clip-path:url(#SVGID_20_);fill:#F99C16;}
	.st69{clip-path:url(#SVGID_20_);fill:#A5E5CF;}
	.st70{clip-path:url(#SVGID_20_);fill:#23211B;}
	.st71{clip-path:url(#SVGID_20_);fill:#3D3D3D;}
	.st72{clip-path:url(#SVGID_20_);fill:#F7CB14;}
	.st73{clip-path:url(#SVGID_20_);fill:#FCFAF7;}
	.st74{clip-path:url(#SVGID_20_);fill:#286308;}
	.st75{clip-path:url(#SVGID_20_);fill:#202133;}
	.st76{clip-path:url(#SVGID_20_);fill:#8E570E;}
	.st77{opacity:0.7;clip-path:url(#SVGID_20_);}
	.st78{clip-path:url(#SVGID_22_);}
	.st79{clip-path:url(#SVGID_24_);}
	.st80{clip-path:url(#SVGID_20_);fill:#7F500B;}
	.st81{clip-path:url(#SVGID_20_);fill:#020202;}
	.st82{clip-path:url(#SVGID_20_);fill:#DCB1E0;}
	.st83{fill:#F7BB92;stroke:#020202;stroke-width:0.75;stroke-miterlimit:10;}
	.st84{fill:#A56621;stroke:#000000;stroke-width:0.75;stroke-miterlimit:10;}
	.st85{fill:#0096FF;stroke:#020202;stroke-width:0.75;stroke-miterlimit:10;}
	.st86{fill:#231F20;stroke:#000000;stroke-width:0.75;stroke-miterlimit:10;}
	.st87{fill:#8E570E;stroke:#000000;stroke-width:0.75;stroke-miterlimit:10;}
	.st88{opacity:0.7;}
	.st89{fill:#A5E5CF;stroke:#020202;stroke-width:0.75;stroke-miterlimit:10;}
	.st90{fill:#231F20;stroke:#231F20;stroke-width:0.75;stroke-miterlimit:10;}
	.st91{fill:#3D3D3D;stroke:#231F20;stroke-width:0.75;stroke-miterlimit:10;}
	.st92{fill:#F7CB14;stroke:#020202;stroke-width:0.75;stroke-miterlimit:10;}
	.st93{fill:none;stroke:#020202;stroke-miterlimit:10;}
	.st94{clip-path:url(#SVGID_26_);}
	.st95{clip-path:url(#SVGID_28_);fill:#B5CCD6;}
	.st96{clip-path:url(#SVGID_30_);fill:none;stroke:#020202;stroke-width:0.75;stroke-linejoin:round;stroke-miterlimit:10;}
	.st97{clip-path:url(#SVGID_32_);fill:#647C83;}
	.st98{clip-path:url(#SVGID_34_);fill:none;stroke:#000000;stroke-width:0.75;stroke-linejoin:round;stroke-miterlimit:10;}
	.st99{clip-path:url(#SVGID_36_);fill:#D7E3EE;}
	.st100{clip-path:url(#SVGID_38_);fill:none;stroke:#000000;stroke-width:0.75;stroke-linejoin:round;stroke-miterlimit:10;}
	.st101{clip-path:url(#SVGID_40_);}
	.st102{clip-path:url(#SVGID_42_);}
	.st103{clip-path:url(#SVGID_44_);fill:#D19A75;}
	.st104{clip-path:url(#SVGID_44_);fill:none;stroke:#020202;stroke-width:0.859;stroke-miterlimit:10;}
	.st105{clip-path:url(#SVGID_44_);fill:#FFFFFF;}
	.st106{clip-path:url(#SVGID_44_);fill:#F44711;}
	.st107{clip-path:url(#SVGID_44_);fill:#23211B;}
	.st108{clip-path:url(#SVGID_44_);fill:none;stroke:#000000;stroke-width:0.859;stroke-miterlimit:10;}
	.st109{clip-path:url(#SVGID_44_);fill:#6A3E00;}
	.st110{clip-path:url(#SVGID_44_);fill:#91E3F9;}
	.st111{clip-path:url(#SVGID_44_);fill:#08AF2B;}
	.st112{clip-path:url(#SVGID_44_);}
	.st113{clip-path:url(#SVGID_44_);fill:#B5CCD6;}
	.st114{clip-path:url(#SVGID_44_);fill:none;stroke:#020202;stroke-width:0.859;stroke-linejoin:round;stroke-miterlimit:10;}
	.st115{clip-path:url(#SVGID_44_);fill:#647C83;}
	.st116{clip-path:url(#SVGID_44_);fill:none;stroke:#000000;stroke-width:0.859;stroke-linejoin:round;stroke-miterlimit:10;}
	.st117{clip-path:url(#SVGID_44_);fill:#D7E3EE;}
	.st118{clip-path:url(#SVGID_44_);fill:#262626;}
	.st119{clip-path:url(#SVGID_44_);fill:#F7DE48;}
	.st120{clip-path:url(#SVGID_44_);fill:#332E28;}
	.st121{clip-path:url(#SVGID_44_);fill:#099160;}
	.st122{clip-path:url(#SVGID_44_);fill:none;stroke:#020202;stroke-width:3.4362;stroke-miterlimit:10;}
	.st123{clip-path:url(#SVGID_44_);fill:#0B0B7F;}
	.st124{clip-path:url(#SVGID_44_);fill:none;stroke:#FFFFFF;stroke-width:0.5727;stroke-miterlimit:10;}
	.st125{clip-path:url(#SVGID_44_);fill:#FCE7D4;}
	.st126{clip-path:url(#SVGID_44_);fill:#7F4C0E;}
	.st127{clip-path:url(#SVGID_44_);fill:none;stroke:#231F20;stroke-width:0.859;stroke-miterlimit:10;}
	.st128{clip-path:url(#SVGID_44_);fill:#008E19;}
	.st129{clip-path:url(#SVGID_44_);fill:#F99C16;}
	.st130{clip-path:url(#SVGID_44_);fill:#A5E5CF;}
	.st131{clip-path:url(#SVGID_44_);fill:#231F20;}
	.st132{clip-path:url(#SVGID_44_);fill:#3D3D3D;}
	.st133{clip-path:url(#SVGID_44_);fill:#F7CB14;}
	.st134{clip-path:url(#SVGID_44_);fill:#FCFAF7;}
	.st135{clip-path:url(#SVGID_44_);fill:#286308;}
	.st136{clip-path:url(#SVGID_44_);fill:#202133;}
	.st137{clip-path:url(#SVGID_44_);fill:#7F500B;}
	.st138{clip-path:url(#SVGID_44_);fill:#020202;}
	.st139{clip-path:url(#SVGID_44_);fill:#DCB1E0;}
	.st140{clip-path:url(#SVGID_44_);fill:#D8821D;}
	.st141{clip-path:url(#SVGID_44_);fill:#E8D5AA;}
	.st142{clip-path:url(#SVGID_44_);fill:none;stroke:#020202;stroke-width:1.1454;stroke-miterlimit:10;}
	.st143{clip-path:url(#SVGID_44_);fill:#EFEEED;}
	.st144{clip-path:url(#SVGID_44_);fill:none;stroke:#000000;stroke-width:0.2863;stroke-miterlimit:10;}
	.st145{clip-path:url(#SVGID_46_);fill:#B5CCD6;}
	.st146{clip-path:url(#SVGID_46_);fill:none;stroke:#020202;stroke-width:0.859;stroke-linejoin:round;stroke-miterlimit:10;}
	.st147{clip-path:url(#SVGID_46_);fill:#647C83;}
	.st148{clip-path:url(#SVGID_46_);fill:none;stroke:#000000;stroke-width:0.859;stroke-linejoin:round;stroke-miterlimit:10;}
	.st149{clip-path:url(#SVGID_46_);fill:#D7E3EE;}
	.st150{clip-path:url(#SVGID_48_);fill:#F7BB92;}
	.st151{clip-path:url(#SVGID_48_);fill:none;stroke:#020202;stroke-width:0.859;stroke-miterlimit:10;}
	.st152{clip-path:url(#SVGID_48_);fill:#A56621;}
	.st153{clip-path:url(#SVGID_48_);fill:none;stroke:#000000;stroke-width:0.859;stroke-miterlimit:10;}
	.st154{clip-path:url(#SVGID_48_);fill:#7F4C0E;}
	.st155{clip-path:url(#SVGID_48_);fill:none;stroke:#231F20;stroke-width:0.859;stroke-miterlimit:10;}
	.st156{clip-path:url(#SVGID_48_);fill:#FFFFFF;}
	.st157{clip-path:url(#SVGID_48_);}
	.st158{clip-path:url(#SVGID_48_);fill:#0096FF;}
	.st159{clip-path:url(#SVGID_48_);fill:#231F20;}
	.st160{clip-path:url(#SVGID_48_);fill:#F44711;}
	.st161{clip-path:url(#SVGID_48_);fill:#FCE7D4;}
	.st162{clip-path:url(#SVGID_48_);fill:#202133;}
	.st163{clip-path:url(#SVGID_48_);fill:#8E570E;}
	.st164{clip-path:url(#SVGID_48_);fill:#008E19;}
	.st165{opacity:0.7;clip-path:url(#SVGID_48_);}
	.st166{clip-path:url(#SVGID_50_);}
	.st167{clip-path:url(#SVGID_52_);}
</style>
<g>
	<g id="person_4_1_">
		<g id="head-2_1_">
			<path id="neck_1_" class="st0" d="M41.4,330c0,0,0.6-4.4,1.2-4.6s8.8-3.9,8.8-3.9l-10.4-26.6c0,0-8.2,3.6-9.1,3.2
				c-2.6-1-5.7-4.2-8.7-4.3c-4.9-0.1-7.6,7.6-7.7,10.8c-0.2,7,3.1,15.3,7.1,21.1c3,4.4,7.4,7.6,12.3,9.4
				C38,335.9,40.7,335.4,41.4,330z"/>
			<path id="face-2_2_" class="st0" d="M70.7,319.4c0,0-9.7,3.2-10.5,3.2c-1.4,0.2-2.8,0.1-4.3-0.1c-3.4-0.7-6.6-1.6-10-2.6
				c-1.5-0.6-5.5-1.5-6.3-2.6c-1.3-1.7-2.4-3.7-3.3-5.6c-0.4-1.4-1.6-6.1-1.4-7.5c0.2-1.3,3-6.3,5.7-10.8s5.3-7.1,6.2-7.7
				c0.9-0.6,4.4-2,4.4-2l-0.3-0.5c0,0-1,0.3-1.4-0.4c-0.7-1.1,0.7-2.5,1.4-3.2c1.4-1.2,3.1-1.6,4.6-2.8s5.9-5.9,8.1-4.4
				c1.9,1.4,0.8,3.6-0.6,4.9c-0.5,0.4-1,0.8-1.5,1.1l0.2,0.3c0,0,3.1-1.2,5.2-2c4.1-1.5,8.1-4.4,12.4-4.5
				c14.7-0.1,16.9,4.3,21.7,15.6c4.3,10-1.7,19-5.1,21.2c-2.8,1.8-5.7,3.4-8.8,4.5l-10,3.3l0,0.4c1.3-0.1,2.6,0,3.9,0
				c1,0,1.9,0.9,1.9,1.9c0,1-0.9,1.9-1.9,1.9c-1.2,0.1-4.6,0.8-6,1.1c-1,0.3-1.9,0.6-2.8,1.1c-0.9,0.3-3.9,1.2-4.5-0.1
				C67.4,322.4,66.6,320.5,70.7,319.4z"/>
		</g>
		<g id="sweater-3_1_">
			<path id="Sweater-4_1_" class="st1" d="M16.7,391c0,0,11.5-8.1,15.3-12.4c4.2-5,6.7-11.2,7-17.7c0.4-7.1,5.3-32.1,4.6-31.8
				c-4.3,1.9-9.1,2.1-13.5,0.4c-6.1-2.5-12.7-16.1-12.2-22.9c0.5-6.2,6.6-10.2,7.5-11.1c0.9-0.9,2.6-1.8,2.6-1.8
				S6.7,275.3,4.4,273.3s-5.3-5.2-9.3-6.4s-17.7-1.2-21.5-0.6c-1.9,0.4-3.7,0.4-5.6,0.2"/>
			<path id="Sweater-5_1_" class="st1" d="M43.7,329.2c-0.1,0-0.1,0-0.2,0.1c-4.7,1.7-10.3,2.3-14.5-0.5c-2.2-1.5-4.2-3.6-5.5-6
				c-2.2-3.4-3.9-7.1-4.9-11c-0.8-3.3-0.4-6.8,1.1-9.7c1.9-3.6,5.1-6,8.3-8.3c0.3-0.2-3.3-4.2-4.4-3.9c-0.9,0.2-2.1,1.8-2.7,2.4
				c-2.9,2.6-5.9,5.5-7.7,9c-1.6,3.9-2,8.2-0.9,12.3c0.9,3.5,2.2,6.9,4,10.1c1.5,2.9,3,5.8,5.5,8c2.4,1.8,4.9,3.2,7.7,4.2
				c3.5,1.3,7.3,0.3,11-0.3c0.6,0,1.3-0.3,1.9-0.6c0.6-0.5,1-1,1.1-1.6c0.5-1.2,0.7-2.5,0.5-3.8c0-0.3-0.2-0.4-0.3-0.5
				C43.8,329.2,43.7,329.2,43.7,329.2z"/>
			<line class="st2" x1="24.3" y1="296.4" x2="20.1" y2="293"/>
			<line class="st2" x1="19.9" y1="300.4" x2="15.2" y2="298.1"/>
			<line class="st2" x1="18.3" y1="306.2" x2="11.9" y2="305.8"/>
			<line class="st2" x1="18.9" y1="314.7" x2="13.2" y2="316.5"/>
			<line class="st2" x1="22.3" y1="321.2" x2="16.9" y2="325.1"/>
			<line class="st2" x1="27.6" y1="328.1" x2="23.8" y2="333.2"/>
			<line class="st2" x1="33.9" y1="330.5" x2="32.1" y2="336.5"/>
			<line class="st2" x1="40.2" y1="330.7" x2="39.8" y2="335.9"/>
			<g id="Layer_37_1_">
				<path class="st2" d="M18.3,326.6c0,0-6.7,5.6-9.8,5.5c-2.5-0.3-5.1-0.8-7.4-1.6"/>
				<path class="st2" d="M12,312.3c0,0-9-0.4-11.4,3.1c-2.4,3.5-4.6,11.6-8.3,13.3"/>
				<path class="st2" d="M14.8,320.5c0,0-5.5,0.1-8.7,3.1c-2.1,2-3.8,4.4-5.1,7c-1.5,3-1.8,4.8-5.2,6.8"/>
				<path class="st2" d="M12.6,320.7c-1.1,1.1-2.3,2-3.7,2.8c-1,0.5-2.2,0.7-3.4,0.7"/>
			</g>
		</g>
		<g id="hair-2_1_">
			<path class="st3" d="M94,272.3c0,0,8-1.1,11.9,2.1c4.8,4,4.9,9.3,4.4,14.7c-0.4,4.4-1.5,8.7-3.2,12.8c-1.7,4.6-5.3,10.6-6.1,11.2
				c-0.9,0.6-1.9,1-2.9,1.2c-0.6,0.1-1.9-0.6-1.9-0.6s-5.7,3.1-8.8,2.6c-4.1-0.6-9.1,1.2-10.5,1.4c-1.4,0.2-1.1-0.5-1-0.5
				c0.1,0,10.4-3.9,11.4-4.8s2-2.3,3.1-2.2c1.3-0.1,2.6-0.4,3.9-0.8c0,0,1.6-5.9,2-7.2c0.4-1.3,0.8-5.6,0.3-7.3
				c-0.6-1.9-1.6-3.7-2.8-5.2c-1.4-1.7-2.8-1.7-2.9-2.3c-0.1-0.6,0.9-4-0.5-7.6c-1.4-3.6-2.1-5.5-4.1-6.3c-2-0.9-4.2-1.6-6.8-0.4
				c-2.6,1.3-3.3,1.4-3.9,1.5c-1.2-0.1-2.3,0-3.3,0.3c-1.1,0.4-11.1,4.5-11.4,4.5c-0.4,0-0.1-0.6,0.8-1.2c0.9-0.6,5.5-3,6.4-3.5
				c0.9-0.5,5.5-5.2,8-6.4c2.5-1.2,5.5-3.2,9.3-3.1c3.8,0,5.9,0.6,7,1.3C93.7,267.1,94.3,271.1,94,272.3z"/>
		</g>
		<path id="mustache_1_" class="st3" d="M57.3,304c0,0.1,0.2,0.3,0.3,0.4c0.6,0.4,1.1,0.9,1.4,1.7c0.1,0.5,0,1-0.1,1.6
			c-0.5,1.6-3.1,7.6-0.3,8.5c1.1,0.3,3.9-0.8,4.9-0.9c0.4,0,1.3-0.3,1.2,0.2c-0.1,0.4-0.8,0.6-1,0.6c-0.5,0.2-2.5,1-3,1.3
			c-1,0.5-2.1,0.8-3.2,0.8c-4.6-0.5-5.1-6-4.7-9.4c0.4-1.5,1.1-2.9,2.2-4c-1.7-0.6-3.2-1.5-4.4-2.7c-1.4-1.2-2.4-2.7-3.2-4.3
			c-0.7-1.1-0.8-2.6-0.2-3.8c0.7-1.3,2.7-1.8,4-2.2c1.8-0.6,3.7-0.9,5.5-1.1c0.5,0,0.2,0.3-0.1,0.4c-2.3,1.2-8.1,2-5.6,5.2
			c0.8,1.2,2,2,3.3,2.5c1.2,0.5,2.8,1.3,3.3,2.6c0.2,0.8,0.1,1.6-0.1,2.3C57.2,303.7,57.3,303.8,57.3,304z"/>
		<g id="nose-3_1_">
			<path class="st0" d="M70.7,300.7c-3.2,3.1-4.5,5.8-8.3,8.3c-0.8,0.6-4,1.7-4.9,1.5c-1.7-0.2-2-2.1-2.1-3.5c0-1,0.6-1.9,0.7-3.3
				c0-0.1-1-0.9-1.2-1.1c-0.3-0.4-0.3-0.9-0.1-1.3c0.4-1.3,2-1.3,3.1-0.8"/>
		</g>
		<g id="hat_1_">
			<path class="st4" d="M88.8,266.2c0,0,7.1-1.8,11.1,0.2s6.7,2.3,9.2,4.9c2.3,2.3,4.1,4.9,5.4,8c0.9,2.4,1.5,8.4,1.4,13.3
				c0,4.2-1.7,8.1-4.6,11c-2.2,2-4.6,3.8-7.1,5.3C102.8,309.7,86.7,267.3,88.8,266.2z"/>
			<path class="st4" d="M70.7,271.3c0,0,3.4-3.6,6.4-1.6c3,2,10.1,6.6,13.1,16.2c3,9.6,5.7,10.6,5.1,18.5
				c-0.6,7.9-3.7,12.1-4.6,12.2c-1,0.1,5.8,0,8.8-1.7c3-1.7,4.6-2.1,6.5-9c1.7-6.6,1.3-13.4-1.4-19.7c-2.5-5.7-4.7-12.6-8.4-15.3
				s-8.6-6.5-12.1-5.8C80.6,265.8,72.1,267.2,70.7,271.3z"/>
		</g>
		<path id="forehead_wrinkle_1_" class="st5" d="M83.3,281.8c0,0-0.6,5.3,0.5,8c0.7,1.7,3.7,1.6,5.1,3.3c1.6,2.1,1.9,7.4,1.7,8.5"/>
		<g id="eyes-3_1_">
			<path d="M83.3,307.4c0.8,2.1,1.4,4.3,1.6,6.6c-2.8,0.6-5.7,1-8.5,1c-1.2-1.7-2.2-3.4-3-5.4c-0.2-0.4-0.5-1.2-0.8-2
				c-0.7-1.4-1.1-2.8-1.2-4.4c0.2-1,4.5-5,5.9-6.1c2.1,2.6,3.9,5.4,5.2,8.4C82.8,306.2,83.1,306.8,83.3,307.4 M84.2,307.1
				c-0.3-0.7-0.5-1.2-0.9-1.9c-2.5-5.2-5.5-9.3-6.1-9.1c-0.5,0.2-6.5,5.6-6.7,7c0.2,1.7,0.5,3.3,1.2,4.8c0.3,0.8,0.6,1.4,0.8,2.1
				c0.9,1.9,2.8,5.8,3.6,5.9s7.5-0.3,9.7-1.3C85.7,312,85.1,309.5,84.2,307.1L84.2,307.1z"/>
			<path d="M74.1,281.6l-0.8,0.3c0.3,0.7,0.5,1.2,0.6,1.9c1.1,3.1,1.6,6.4,1.9,9.7c-1.8,0.2-7.5,0-8.5-0.5c-1-1.2-1.7-2.6-2.1-4.1
				c-0.3-0.9-0.6-1.5-0.8-2l-0.1-0.2c-0.7-1.7-1.1-3.6-1.5-5.3c2.2-2.1,4.6-3.8,7.1-5.4c1.4,1.9,2.5,3.8,3.3,5.9L74.1,281.6
				 M74.2,281.6c-0.9-2.4-2.2-4.7-3.9-6.7c-2.2,0.7-7.6,5.4-8.1,5.9c-0.5,0.6,0.8,4.3,1.5,6.3c0.2,0.5,0.5,1.3,0.8,2.1
				c0.5,1.6,1.3,3.1,2.3,4.4c1,0.9,9,0.9,9.7,0.6s0.1-5.3-1.7-10.8C74.6,282.9,74.5,282.2,74.2,281.6L74.2,281.6z"/>
			<path class="st2" d="M73.6,293.8c0,0,2.2,2.5,2,5.1"/>
			<path id="Eye_1_" class="st6" d="M69.8,290c-1.6,0.6-1.4-0.1-1.7-0.8c-0.3-0.8-0.9-1.1,0.7-1.8c1.6-0.6,3.1-1.2,3.6,0.1
				C72.8,288.4,71.6,289.3,69.8,290z"/>
			<path id="Eye-2_1_" class="st6" d="M78.3,310c-1.7,0.7-1.5,0-1.8-0.8c-0.3-0.8-0.9-1.1,0.8-1.8c1.7-0.7,3.3-1.3,3.8,0
				C81.4,308.4,80.2,309.3,78.3,310z"/>
			<path class="st5" d="M81.9,299.9c0,0,6.4,3.2,7.3,5.8"/>
			<path class="st5" d="M77,290.8c0.2-2.5,1.3-8.3,0-10.2"/>
		</g>
		<g id="suspenders_1_">
			<polyline class="st7" points="-20.9,294.8 13.1,281.5 19.5,287.1 -18.1,301.8 			"/>
			<polyline class="st7" points="4.1,358.6 40.9,344.2 39.2,353.1 6.8,365.7 			"/>
		</g>
		<g id="beard-2_1_">
			<path class="st3" d="M55.8,281.7c0,0-9.8,5.4-12.1,10.5c-2.3,5.2-4.6,7.7-3.6,10.3s3.2,2.3,4.6,4.3c2.2,3.3-1.1,4.6,0.2,7.8
				c1,2.6,10.1,6.9,13.9,6.9c3.8,0,11.9-2,11.9-2s-9.8,4.1-12.9,5c-3,0.9-14.9,4.1-19.1,2.3s-10-7.6-12.4-13.7
				c-2.4-6.1-1.6-14.1,2-18.1c3.6-4,7-4.5,11.6-7C44.1,285.7,55.8,281.7,55.8,281.7z"/>
		</g>
		<g id="mouth_1_">
			<path class="st5" d="M46.2,301.9c1.2,1.4,2.2,2.9,2.8,4.7c0.4,1.7-0.7,5.4-0.4,7"/>
		</g>
		<g id="cigarette_1_">
			<path id="cigarette-2_1_" class="st2" d="M53.8,266.6c0,0,1-8.4,6.2-8.3c5.2,0.1,14.8,4.7,9.1,5.2c-5.7,0.6-13.8-3-11.8-8.7
				c1.9-5.7,12.2-11.3,15.2-10.1"/>
			<path class="st8" d="M46.3,302.3L33,297.9c0,0-0.7-0.6-0.8,0.6c-0.1,1.2-0.2,2-0.2,2l2.2,0.8c1.7,0.6,4,1.3,5.7,2l5.3,2
				c0.6,0.3,1.2,0.3,1.8,0.5l0.9,0.3c0.3,0.1,0.5,0.2,0.7,0.2c0.1,0,0.1,0,0.2-0.1c0.2-0.2-0.1-0.7-0.3-0.9l-0.6-1.3
				C47.3,303.4,46.8,302.8,46.3,302.3z"/>
		</g>
	</g>
</g>
<g>
	<g id="Layer_151_1_">
		<g id="Layer_153_1_">
			<path class="st30" d="M11.2,538.1c1.4-0.6,2.8-1,4.2-1.1c1.5,0,3.2,0.1,4.7,0.6c1.3-0.4,2.7-0.8,4-0.8c1.3,0,2.7,0.3,3.8,1
				c2.4-0.7,4.9-1.1,7.3-1.4c3.9-0.4,4.6,1,4.6,1c1-0.1,1.8-0.4,2.8-0.7c2.1-0.6,7.3,1,7.3,1c2.7-0.8,5.4-1.5,8.2-2.1
				c2.2-0.3,4.5,0,6.6,0.8c1.7-0.6,3.3-1,5-1.1c3.2-0.3,6.4,0,9.5,0.7c2.1-0.6,4.2-1,6.3-1.2s4.2-0.3,6.3,0c2.2,0.3,4,0.8,6.1,1.3
				c4,0.7,8.1,1.8,11,1.7c6.1-0.4,25.5,5.7,25.5,5.7c2.9,6.6,7.1,12.6,12.3,17.6c0,0-9.1-0.3-23-8.3c-7.4-4.2-18.3-10.2-22.2-9.9
				c-2.7,0.1-5.4,0.4-8.1,1.1c-0.4,0.1-5.4,0.8-5.6,1c-1.8,0.6-3.6,1-5.4,1.3c-3.3,0.3-6.6,0.1-9.9-0.4c-1.5,0.8-3.2,1.3-4.9,1.4
				c-2.9,0.3-5.9,0.1-8.8-0.4c-2.1,0.7-4.3,1.1-6.6,1.4c-2.4,0.1-4.9-0.3-7.1-1c-2,0.6-4.2,0.6-6.1,0.3c-2-0.3-3.9-0.7-5.9-1.4
				c0,0-1.4,0.3-3.8,0.7c-1.5,0.3-3.1-0.3-4.2-1.3c0,0-2.4,0.7-3.6,1c-1.3,0.3-5.3-1.8-5.3-1.8c-1.5-1-3.1-1.7-4.9-2
				c-1.4,1-3.2,1.4-4.9,1.3c-1.5,0-3.1-0.1-4.6-0.6c-1.4-0.3-2.5-1-3.3-2.1c-1.1-1.3-1.1-4-1.1-5.4c2.1,0.7,4.3,1.1,6.6,1.3
				C6.4,537.1,8.8,537.5,11.2,538.1z"/>
			<path class="st2" d="M88.1,546.1c0,0-2.5-2.5-9.6-4.3"/>
			<path class="st2" d="M78.6,537.2c0.7,0.1-2.5,2.9-2.8,3.1c-2,1.4-4.3,2.1-6.4,3.3"/>
			<path class="st2" d="M72.7,545.6c-1.8-1.3-3.1-2.8-5.2-3.6s-4.9-0.8-7.1-1.4"/>
			<path class="st2" d="M61.7,538c-2.9,2.2-5.4,4.2-9.4,4.3"/>
			<path class="st2" d="M58.5,546.4c0,0-5.3-5.2-10.9-5.2"/>
			<path class="st2" d="M49.8,539c-1.5,1.5-3.2,2.8-5,3.6c-1.1,0.6-2.4,0.8-3.5,1.1"/>
			<path class="st2" d="M45.2,548.3c0,0-4.7-4.2-8.5-4.8"/>
			<path class="st2" d="M37.8,540.2c0,0-2.9,3.8-7.1,3.9"/>
			<path class="st2" d="M33.1,546.8c0,0-3.9-4.6-6.8-5.3"/>
			<path class="st2" d="M27.9,539.1c-1.7,1.4-3.5,2.6-5.6,3.5"/>
			<path class="st2" d="M25.3,546.6c0,0-5.2-4.9-8.1-5.7"/>
			<path class="st2" d="M20.1,539c-1.7,1.3-3.6,2.4-5.4,3.2"/>
			<path class="st31" d="M92.5,536.4c0,0-5.4,5.7-9.1,7"/>
			<polygon class="st32" points="9.9,544 10.1,539.4 11.2,539.5 11.2,543.8 			"/>
		</g>
		<path id="neck-2_3_" class="st9" d="M72.8,554.8c0,0-16.7-0.4-18.6-1c-1.8-0.6-3.1-10.5-5.7-12.7s-7.5,1.4-9.4,3.1
			c-9.1,8.1-10.1,28.6-7.9,39.5c1.2,6,8.8,19.3,15.6,20.5c3.3,0.6,5.3-9.5,6.8-11.9s19.4-3.5,19.4-3.5L72.8,554.8z"/>
		<path id="head-3_2_" class="st9" d="M135.1,570.6c0.1-4.7-0.5-9.6-2.1-14.2c-0.8-3.1-2.8-5.9-5.4-7.7c-1.7-0.8-3.3-1.5-5.2-1.8
			c-6.7-1.5-13.3-2.7-20.1-3.6c1-0.1,1.8-0.4,2.8-0.7c1-0.4,0.7-2.5-0.7-2.8c-1.3-0.1-2.4,0.1-3.5,0.7c-1.1,0.6-2.4,1-3.6,1.3
			c-4.3,0.7-4.6-0.4-8,0c-1,0.3-1.8,0.8-2.1,1.7c-0.1,0.3-0.6,1.7,0.1,1.5c-4,0-8,0.6-11.9,1.5c-4.7,1.5-8.5,6.4-11.6,9.9
			c-2.5,2.6-4.6,5.6-6.3,8.9c-3.9,8.6,1.7,17.2,8.9,21.9c4.9,3.2,8.2,7.5,13.9,8.1c2.1,0.4,4.2,0.7,6.3,0.7c0.7,0,0.4,0.8,0.4,1.1
			c-0.1,2.4,3.2,2.8,4.9,3.1c2.9,0.4,6.1,0.3,8.9,1.4c1.4,0.6,3.5,2.2,4.7,0.4c0.7-1,0.7-2.4,0-3.3c-0.8-1.3-2.2-1.3-3.5-1.7
			c6.3-0.1,12.4-1.1,18.4-2.8c2-0.4,3.8-1.3,5.3-2.2c2.9-2,5.3-4.7,6.7-7.9c1-2.2,1.7-4.5,2.1-6.8
			C134.8,575.2,134.9,573,135.1,570.6z"/>
		<path id="nose-4_3_" class="st5" d="M90.1,571.3c-4.9-1.7-3.8-11.4-6.4-11.7c-4-0.3-3.5,7.1-2,10.2"/>
		<path class="st5" d="M110.5,575.2c0.8,6,7.4,13.3,1.7,15.8"/>
		<path class="st5" d="M105.8,563.9c0.8-3.9,6.9-13.2,1.1-15.8"/>
		<circle class="st12" cx="99.3" cy="582.7" r="1.7"/>
		<circle class="st12" cx="99.3" cy="557.4" r="1.7"/>
		<path class="st5" d="M100.6,577.8c0,0,2.4,4.7,1.7,6.6c-0.7,1.8-2.1,2.4-2.2,3.3"/>
		<path class="st5" d="M98.9,561.6c0,0,3.9-1.7,3.4-3.8c-0.3-1.5-0.7-2.9-1.3-4.3"/>
		<path id="shirt-3_2_" class="st33" d="M-5.4,493c9.5,0.8,20.1,2.5,26.6,3.7s9.2,1.4,14.9,4.8c5.7,3.4,7.4,9.2,8.5,15.4
			c1.2,6.4,2.8,9.2,3.6,15.8c0.8,3.8,1.9,7.3,3.5,10.7c0.6,1.3-10.6,0.4-15.8,10.9c-5.9,12.3-4.9,26.6,2.5,38.1
			c3.2,4.7,8.2,6.6,13.2,9.6c-1,4.6-2.9,8.9-4.3,13.5c-2.5,7.7-1.8,21.5-11.5,24.7c-11.2,3.8-29.6,5.1-41.7,7.5"/>
		<path class="st34" d="M1.3,545.5l0,1.4l-4.3,0l0-7.8l4.3,0l0,1.4l2.8-1.7l0-2.2l-2.8,0l0,1.4l-4.3,0l0-7.8l4.3,0l0,1.5l9.9,0
			l0-1.5l4.3,0l0,7.8l-4.2,0l0-1.4l-2.8,0l0,2.1l2.8,1.7l0-1.3l4.2,0l0,7.7l-4.2,0l0-1.4l-5-2.8L1.3,545.5z"/>
		<path class="st34" d="M1.2,570.7l-4.3,0l0-7.8l4.3,0l0,1.3l1.5-0.3l0-2.9l-1.5-0.3l0,1.3l-4.3,0l0-7.8l4.3,0l0,1.7l9.9,1.7l0-1.3
			l4.3,0l0,12.3l-4.3,0l0-1.3l-9.9,1.7L1.2,570.7z M5.7,563.4l5.6-1l-5.6-1L5.7,563.4z"/>
		<path class="st34" d="M2.6,592.1l-5.6,0l0-14.1l4.3,0l0,1.5l9.9,0l0-1.5l4.2,0l0,8l-4.3,0l0-1.5l-9.9,0l0,2.9l1.4,0L2.6,592.1z"/>
		<path class="st34" d="M15.4,613.6l-5.6,0l0-4.7l1.4,0l0-2.9l-2.8,0l0,5.2l-4.3,0l0-1.5l0-1.1l0-2.7l-2.8,0l0,3.1l1.4,0l0,4.7
			l-5.6,0l0-14.1l4.3,0l0,1.5l9.8,0l0-1.5l4.2,0L15.4,613.6z"/>
		<path class="st2" d="M48.9,535.2c0,0-9.9,1.4-15.8,6.5s-9.4,12.7-9.4,29.2c0,16.5,5.7,25.3,8.2,27.8c2.5,2.5,11.6,8.4,17.4,11.5"
			/>
		<line id="beauty_mark_1_" class="st5" x1="96.4" y1="589.4" x2="95" y2="589.4"/>
		<g id="glasses-2_3_">
			<path class="st35" d="M100.3,566.1c1.3,1,2.1,2.4,2.1,3.9c-0.1,1.7-0.8,3.2-2.1,4.2"/>
			<path d="M111.5,555.5c0-6.7-5.4-12-12-12c-6.6,0-12,5.4-12,12c0,6.6,5.4,12,12,12C106,567.5,111.5,562.1,111.5,555.5z
				 M91.3,555.5c0-4.5,3.6-8.1,8.1-8.1c4.5,0,8.1,3.6,8.1,8.1c0,4.5-3.6,8.1-8.1,8.1l0,0C94.9,563.6,91.3,560,91.3,555.5z"/>
			<path d="M111.5,584.4c0-6.7-5.4-12-12-12c-6.6,0-12,5.4-12,12c0,6.7,5.4,12,12,12l0,0C106,596.5,111.5,591.1,111.5,584.4z
				 M91.2,584.4c0-4.5,3.6-8.1,8.1-8.1s8.1,3.6,8.1,8.1c0,4.5-3.6,8.1-8.1,8.1l0,0C94.8,592.5,91.4,589,91.2,584.4L91.2,584.4z"/>
		</g>
		<path id="mouth-4_3_" class="st10" d="M69.6,576.4c-2.8,0-3.1-5.6-3.1-6.3s2.2-1.3,5-1.3c2.8,0,5,0.6,5,1.3
			C76.6,570.8,72.3,576.4,69.6,576.4z"/>
		<g id="Layer_152_1_">
			<path class="st30" d="M11.9,608.4c1.4,0.6,2.8,0.8,4.3,0.8c1.5,0,3.2-0.3,4.7-0.8c1.4,0.4,2.8,0.6,4.2,0.7c1.3,0,2.7-0.4,3.6-1.3
				c2.4,0.6,4.9,1,7.3,1.1c3.9,0.1,4.6-1.3,4.6-1.3c1,0.1,1.8,0.3,2.8,0.4c2.1,0.4,7.3-1.4,7.3-1.4c2.8,0.7,5.6,1.3,8.4,1.5
				c2.2,0.1,4.5-0.3,6.6-1.2c1.7,0.4,3.3,0.7,5.2,0.8c3.2,0,6.3-0.4,9.5-1.1c2.1,0.4,4.2,0.7,6.3,0.8c3.1-0.1,6.1-0.6,9.1-1.1
				c3.4-1.5,7-2.2,10.6-2.4c6.1,0.1,31.3-4,31.3-4c10.3-5.9,9.7-48.7,9.7-48.7s-19.8,11.1-25.4,26.5c-6.9,18.7-15.9,20.5-19.7,20.5
				s-4.7-0.6-8-1.1c-0.4,0-5.3,0.3-5.4,0.3c-1.8-0.6-3.6-0.8-5.6-1c-3.3-0.1-6.7,0.3-9.9,1c-1.5-0.7-3.2-1-4.9-1
				c-2.9-0.1-5.9,0.3-8.8,0.8c-2.2-0.6-4.3-0.8-6.6-1c-2.4,0-4.9,0.6-7.1,1.4c-2.1-0.4-4.2-0.3-6.1,0.1c-2,0.3-3.9,1-5.7,1.8
				c0,0-1.4-0.3-3.8-0.6c-1.5-0.1-2.9,0.4-4,1.4c0,0-2.5-0.6-3.8-0.7c-1.3-0.1-5.2,2.2-5.2,2.2c-1.4,1.1-3.1,1.8-4.7,2.2
				c-1.1,0.1-3.3-1.8-4.9-1.8c-3.1,0.1-8.8,6-8.9,9.1c2.2-0.6,4.5-1.1,6.7-1.4C7.3,609.7,9.7,609.1,11.9,608.4z"/>
			<path class="st2" d="M89.4,598.7c0,0-2.4,2.6-9.4,4.9"/>
			<path class="st2" d="M79.5,606.8c0.6-0.1-2.4-2.2-2.5-2.4c-1.8-1-3.9-1.5-5.7-2.4"/>
			<path class="st2" d="M72.9,597.3c-1.8,1.4-2.9,2.9-5,3.9c-2.1,1-4.9,1.1-7,1.8"/>
			<path class="st2" d="M65.8,607.2c-3.1-2.1-5.7-3.9-9.5-3.8"/>
			<path class="st2" d="M58.8,597.3c0,0-5,5.6-10.6,5.9"/>
			<path class="st2" d="M50.6,606.7c-2.4-2.4-5.4-3.9-8.8-4.3"/>
			<path class="st2" d="M45.6,597.6c0,0-4.5,4.5-8.2,5.3"/>
			<path class="st2" d="M40.4,607.2c0,0-3.2-3.6-7.4-3.6"/>
			<path class="st2" d="M33.4,599.8c0,0-3.6,4.9-6.6,5.7"/>
			<path class="st2" d="M28.8,607.8c-1.8-1.4-3.8-2.4-5.9-3.1"/>
			<path class="st2" d="M25.6,600.5c0,0-4.7,5.2-7.7,6.1"/>
			<path class="st2" d="M21,608.4c-1.8-1.1-3.8-2.1-5.7-2.9"/>
			<path class="st31" d="M91.8,607.4c0,0-5.7-3.9-9.3-4.8"/>
			<rect x="11.4" y="603.5" class="st32" width="1.1" height="5.4"/>
		</g>
		<path class="st36" d="M155.8,584c0,0-6.3,12.8-9.2,14.4s-11,3.3-17.2,3.8c-5.7,0.4-18.7,1-19.4,1s6.3-5.9,9.1-8.5
			c2.2-2.1,8.7-9.9,14.7-10.6S155,582.1,155.8,584z"/>
		<path id="front_of_hat_1_" class="st36" d="M126.6,537.7c0,0,9.9,0.1,14,0c7.3-0.3,10.5,5.7,13,11.6c1.7,4,6.3,10.9,5.8,15.4
			c-0.1,2.2-1.4,17-3.5,19.4c-6,7.1-15.9,6.8-26.5,8.1c-2.9,0.1-5.9,0.1-8.9,0L126.6,537.7z"/>
		<path class="st37" d="M145.5,564.6l-7.1,0c-0.8,0-1.8,0-2.7-0.3c-0.6-0.3-1.1-0.7-1.4-1.3c-0.4-0.8-0.6-1.7-0.6-2.5
			c0-0.6,0-1.1,0.3-1.7c0.1-0.4,0.6-0.6,1-0.6c0.3,0,0.6,0.1,0.7,0.3s0.3,0.4,0.3,0.7c0,0.6-0.3,1-0.8,1.1c-0.3,0.1-0.6,0.3-0.6,0.6
			c0,0.3,0.1,0.6,0.4,0.6c0.6,0.1,1.3,0.1,1.8,0.1l5.7,0c0.3,0,0.6,0,0.8-0.1c0.1-0.1,0.3-0.4,0.3-1l0-0.3l1,0L145.5,564.6z
			 M150.1,561.5c0.8,0,1.5,0.7,1.5,1.5s-0.7,1.5-1.5,1.5c-0.4,0-0.8-0.1-1.1-0.4c-0.3-0.3-0.4-0.7-0.4-1.1
			C148.5,562.2,149.2,561.5,150.1,561.5z"/>
		<path class="st36" d="M112.6,600.6c0,0,11.2-9.3,16.3-17.7c0.7-1.1,6.4-7.5,4.6-26.4c-1-10.3-1.4-14-4.6-21.6
			c-1-2.5-4.7-11.4-8.1-12c-1.3-0.1-2.4,3.1-2.7,3.9c-0.8,2.9-1.4,6-1.7,9.2c-0.8,0.7-1.7,1.5-2.4,2.4c1.7-0.6,3.2-0.6,4.5,1
			c1.7,2.2,4.2,11.3,4.3,24.3c0.1,9.6-1,19.3-3.2,28.6C118.7,594.7,112.6,600.6,112.6,600.6z"/>
	</g>
</g>
<g id="Frames">
	<g id="Layer_137">
		<path id="shirt-3_1_" class="st33" d="M-31.4,502c12.6-3.2,9.6-3.7,18.4-7.1c10.9-4.1,21.3-8.9,31.4-14.4
			c16.8-8.8,18.7-24.2,22.5-38.8c0.9-3.6,2-23.6,2-23.6l-0.4-1.5c-0.5-3.3-10-51.2-10-51.2c-11.3-13.2-22.6-32.9-38.5-42.9
			c-10.4-6.6-31-8.8-42.7-5.8c-3.2,0.8-6.2,0.9-9.4,1.7c-3.9,1-8.2,0.5-12.1,1.5c-2.1,0.5-5.8,1.8-7.9,2.4"/>
		<path class="st0" d="M32.7,365.3l-8.7-11c-6.4,1.6-12.8,3.3-19,4.9l-14.5,3.7c-9.7,2.5-17.2,6.6-21.7,15.6c-4.7,9.5-6.2,20-4,30
			c1.9,8.1,5.6,15.8,11,22.2c3.5,4.1,8,8.3,13.8,9.7c7.2,1.7,15-1.9,22-3.3c10.2-2.3,20.2-4.7,30.3-7.1c0.9-4,1.1-8.2,1-12.3
			C43.1,402.4,37.4,376.8,32.7,365.3z"/>
		<path id="head-3" class="st0" d="M16.8,368.8c0,0,11.4-1.2,14.4-2.1s14-3.6,14-3.6c2-2.3,4.3-4.5,6.8-6.6c3.3-1.9,6.3-4.1,9.3-6.5
			c4.2-3.4,10.9-4.8,12.1-2.1c1.3,2.7-0.3,6.7-1.8,8.4s-6.6,7.3-6.6,7.3s8.6-1.7,11.8-1.2c3.1,0.4,17.2,5.2,22.1,4.9s6-1,6-1
			s-3,9,1.8,13.7c4.8,4.7,9.8,10,9.8,10s-4.8,3.2-5.3,5.1s0.6,11.1-2.6,13.2s-11.8,5.6-20.8,7.2s-28,5.1-33.4,4.5
			c-4.7-0.8-9.5-1.7-14.2-3l-7.5,3.9"/>
		<path class="st0" d="M27.8,390.7c0,0-6.5,6.5-4.3,14c2,7,11.6,6.3,11.6,6.3"/>
		<path class="st5" d="M15.4,394.8c0.1-2.7,0.1-5.4,0.4-8.2"/>
		<path class="st39" d="M26.1,393c0,0-0.8-6.6,2.1-9.3"/>
		<path class="st39" d="M111.4,393.9c-1.3,3.9-0.4,8-1.3,11.6c-1.1,4.6-7.5,5.5-11.4,7.1c-3.9,1.6-22.8,5.3-39,7
			c-4,0.5-7.9,0.1-11.7-0.7c-5.5-1.5-10.4-4.3-14.4-8.1"/>
		<path class="st39" d="M117.1,389.6c-0.5,0.1-1.1,0.3-1.6,0.4"/>
		<path class="st39" d="M46.7,363.8c-0.4,0.8,0,1.6,0.7,2c1.2,0.9,0.6,1.5,0.6,1.5"/>
		<g id="earring">
			<path class="st34" d="M43,359.8c-0.7-2.9,1.1-5.8,4.2-6.6c2.8-0.7,5.8,0.6,6.8,3.5l0.1,0.5c0.7,2.7-0.8,5.6-3.6,6.5
				c-2.9,1.1-6.1-0.4-7.2-3.1l0,0L43,359.8z"/>
			<path d="M53.5,357.1c0.6,2.5-0.9,5.3-3.6,5.9c-2.5,0.6-5.1-0.7-5.9-3l-0.1-0.3c-0.6-2.5,1.1-5.1,3.8-5.8c2.5-0.6,4.9,0.7,5.8,2.8
				L53.5,357.1 M54.9,356.5l-0.1-0.3c-1-3.1-4.5-4.9-7.8-3.9c-3.3,1-5.3,4.4-4.5,7.6l0.1,0.5c1,3.1,4.5,4.9,7.8,3.9
				C53.8,363.4,55.7,359.9,54.9,356.5L54.9,356.5z"/>
		</g>
		<g id="earring-2">
			<path class="st34" d="M22.6,362.7c-0.7-2,0.6-4.1,2.8-4.7c2.1-0.7,4.3,0.5,4.8,2.5l0,0.2c0.7,2-0.6,4.1-2.8,4.7
				c-2.1,0.7-4.3-0.5-4.8-2.5l0,0L22.6,362.7z"/>
			<path d="M29.7,360.9c0.4,1.5-0.5,3.2-2.1,3.8c-0.9,0.2-1.6,0.2-2.5-0.1s-1.4-0.9-1.6-1.7l-0.1-0.3c-0.4-1.7,0.6-3.4,2.4-3.8
				c1.6-0.4,3.1,0.4,3.7,1.9L29.7,360.9 M30.9,360.5l-0.1-0.3c-0.8-2.3-3.5-3.4-5.8-2.6c-2.3,0.8-3.6,3.1-3,5.3l0.1,0.3
				c1.1,2.2,3.8,3.1,6.2,2C30,364.4,31.1,362.5,30.9,360.5L30.9,360.5z"/>
		</g>
		<g id="earring-3">
			<path class="st34" d="M14.5,365.1c-0.7-2,0.6-4.1,2.8-4.7c2.1-0.7,4.3,0.5,4.8,2.5l0,0l0.1,0.3c0.7,2-0.6,4.1-2.8,4.7
				c-2.1,0.7-4.3-0.5-4.8-2.5L14.5,365.1z"/>
			<path d="M21.5,363.3c0.4,1.5-0.5,3.2-2.1,3.8c-0.9,0.2-1.6,0.2-2.5-0.1s-1.4-0.9-1.6-1.7l-0.1-0.3c-0.4-1.7,0.5-3.3,2.2-4
				c1.8-0.5,3.5,0.4,4.1,2L21.5,363.3 M22.9,363l-0.1-0.3c-0.8-2.3-3.5-3.4-5.8-2.6c-2.3,0.8-3.6,3.1-3,5.3l0.1,0.3
				c1.1,2.2,3.8,3.1,6.2,2C22,366.8,23,364.9,22.9,363L22.9,363z"/>
		</g>
		<g id="earring-4">
			<path class="st34" d="M6.6,368.6c-0.5-2,0.6-4.1,2.8-4.7c2.1-0.5,4.3,0.5,4.8,2.5l0.1,0.3c0.5,1.8-0.7,3.8-2.6,4.4
				c-2.1,0.7-4.2-0.3-4.9-2.3l0,0L6.6,368.6z"/>
			<path d="M13.5,367c0.4,1.7-0.6,3.4-2.5,3.7c-1.6,0.4-3.1-0.4-3.7-1.9l-0.1-0.3c-0.4-1.5,0.5-3.2,2.1-3.8c1.7-0.6,3.4,0.2,4.1,1.8
				L13.5,367 M14.8,366.7l-0.1-0.3c-1.1-2.2-3.8-3.1-6.2-2c-1.9,0.8-2.9,2.7-2.6,4.6l0.1,0.3c1.1,2.2,3.8,3.1,6.2,2
				C14,370.5,15.1,368.6,14.8,366.7z"/>
		</g>
		<g id="earring-5">
			<path class="st34" d="M1,375.6c-0.5-1.8,0.7-3.9,2.6-4.4c1-0.4,2-0.3,3.1,0.1c0.9,0.5,1.6,1.2,2.1,2.2l0.1,0.3
				c0.7,2-0.6,4.1-2.8,4.7c-2.1,0.7-4.3-0.5-4.8-2.5l0,0L1,375.6z"/>
			<path d="M7.9,373.8c0.4,1.5-0.5,3.2-2.1,3.8c-0.9,0.2-1.6,0.2-2.5-0.1c-0.8-0.3-1.4-0.9-1.6-1.7l-0.1-0.3
				c-0.3-1.7,0.9-3.3,2.6-3.7c1.5-0.2,3,0.5,3.5,1.8L7.9,373.8 M9.4,373.6l-0.1-0.3c-1.1-2.2-3.8-3.1-6.2-2
				c-1.9,0.8-2.9,2.7-2.6,4.6l0.1,0.3c1.1,2.2,3.8,3.1,6.2,2C8.5,377.4,9.7,375.5,9.4,373.6z"/>
		</g>
		<path class="st39" d="M101.4,396.5c0,0,5,3.9-1.1,8.3"/>
		<path class="st39" d="M97.3,378c0.3-2.6-1.3-5-3.8-5.8"/>
		<path class="st6" d="M74.7,404.2c-1.1,0.1-2,1.2-1.7,2.2c0.1,1.1,1.2,1.8,2.3,1.6c0.2,0,0.5-0.1,0.7-0.2c1.2-0.3,1.9-1.4,1.6-2.6
			l0,0C77.2,404.2,75.7,403.8,74.7,404.2z"/>
		<path class="st6" d="M69.4,382.2c-1.2,0.3-1.9,1.4-1.6,2.6c0.7,1.1,2.2,1.4,3.4,0.7c0.8-0.6,1.3-1.4,1.3-2.5
			C71.8,382.1,70.4,381.5,69.4,382.2z"/>
		<path class="st39" d="M68.2,410.6c0,0-0.8,0-0.8-2.3c0-2.3,0.9-3.3,0.9-3.3"/>
		<path class="st39" d="M63.8,386.8c0,0-3.2-1.3-3.1-3.3c0.1-1.1,0.4-2.2,0.9-3.1"/>
		<path class="st39" d="M89.3,380.8c0,0,3.4-5-2.2-6.2c-5.6-1.2-8.4-1.8-8.4-1.8"/>
		<path class="st39" d="M93.3,399.3c0,0,3.7,1.7,0.4,5.8c-1.9,2.3-4,4.3-6.4,5.8"/>
		<path id="nose-4" class="st39" d="M65.2,395.2c0,0-4.8,4.3-5.8,7.4c-4.6,13.7-14.8-6-8.4-8.6"/>
		<path id="hair-10" class="st3" d="M72.7,346.7c0,0,11.5-6.7,17-8.1c11.9-3.1,24.9-0.2,24.9-0.2c2.9-1.1,6.2-1.8,9.2-1.7
			c4.2,0.2,15.5,5.7,18.4,13.4s3.2,13.7,2.7,15.6c-0.8,2.7-1.7,5.3-2.7,7.9c3.5,3.9,5.6,8.6,6.5,13.5c1.2,7.7,1.1,14.6-1.6,17.8
			c-2.8,3.2-5,6.9-10.4,8.6c-3.5,1.1-7.3,1.9-10.9,2.5c-2.6,1.6-5.3,2.8-8.4,3.4c-4.3,0.9-13.9,0.2-18.3-0.5
			c-4-0.9-7.9-2.1-11.9-3.6c0,0,13.9-3.9,16.4-4.6c2.5-0.6,6.5-4,6.5-7.1c0-3-0.8-8.4,0.7-9.8s5-4.2,5-4.2s-1.1-1.2-4.1-4.3
			c-3.1-3.1-5.8-4.1-7.5-6.5c-1.8-2.4-1.4-6.8-1.5-8.2c0.4-1.5,0.9-3.3,1.6-4.7c-2.9,1.3-5.9,2.1-8.9,1.9c-4.9-0.7-9.8-2.1-14.2-3.9
			c-4.8-1.8-16.8-0.5-16.8-0.5s8.4-9.9,9-11.8C74.8,349.4,72.7,346.7,72.7,346.7z"/>
		<path class="st10" d="M41.6,393.6c0.4-0.6,0.7-1.1,1.1-1.7c0.6-0.7,2.9-3.4,2.2-4.5c-0.7-1.1-5.3,0.1-6.3,0.4
			c-1.3,0.2-2.6,0.9-3.5,1.8c-0.7,1.1-1.1,2.3-1.1,3.7c-0.1,1.6-0.1,3.1-0.1,4.7c0,0.9,0.3,1.9,0.7,2.7c0.4,0.8,1.3,1.5,2.2,1.4
			c0.9-0.1,1.9-0.7,2.2-1.6c0.4-0.8,0.7-1.8,0.8-2.7C40.2,396.3,40.8,394.9,41.6,393.6z"/>
		<g id="glasses-2">
			<path d="M91.3,426.8c-0.2-4.6-1.1-9.2-2.4-13.5c-1.6-4.6-8.1-14.4-9.1-16.1c-0.7-1.3-1.2-2.6-1.7-3.8c-0.3-1.9-0.4-3.8-0.1-5.7
				c0.1-1.1,1.3-10.4,0.7-13.3c-0.7-4.3-1.9-8.7-3.1-12.8c-1.6-3.9-2.1-4.5-2.4-4.2l-4.1,1.8c-0.1,0.4,0,0.7-0.1,0.9
				c-0.1,0.4-0.4,0.6-0.7,0.9c-0.3,0.3-9.6,6.9-9.9,7.2c-0.8,0.6-1.6,1.3-2.1,2c-0.8,1.3-1.2,2.6-1.4,4.1c-0.4,3.5,0.3,6.9,1.7,10.1
				c0.9,1.9,2.2,3.5,4,4.7c1.8,1.1,3.9,1.9,5.9,2.4c1.4,0.2,5.9,0.8,6.5,1c0.8,0.3,1.2,1.1,1.4,2c0.3,1-0.1,2-0.9,2.5
				c-0.9,0.8-4.3,3.1-6,4.8c-2.5,2.1-4,5.1-4.1,8.2c0,3.6,0.8,6.9,2.8,10c0.7,1.3,1.6,2.5,2.8,3.4c0.9,0.7,1.9,0.9,3.1,1.2
				c1.2,0.2,7.4,0.2,8,0.3c2,0.4,3.8,0.8,5.7,1.6c0.4,0.2,0.7,0.7,1,1l4.4-0.4C91.1,426.9,91.1,426.9,91.3,426.8z M67,388.3
				c-2.2-0.3-4.2-0.9-6-1.9c-2-1.8-3.3-4.2-3.6-6.8c-0.6-2.2-0.4-4.6,0.1-6.8c0.2-1.5,1.8-2.6,3.4-3.7c2.3-1.3,4.7-2.1,7.2-2.8
				c0,0,0.2,0,0.4-0.1c0.7-0.2,1.5,0,2.2,0.3c2,1.1,2.6,3.6,3.2,5.6c0.8,2.3,1.2,4.7,1.4,7c0.2,2.3,0.9,7.3-2.2,8.4
				C71,388.2,68.9,388.4,67,388.3L67,388.3z M74.7,422.4c-1.9-0.2-4.1-0.4-4.9-1.6c-1.6-1.7-2.9-3.7-3.4-5.9c-1-2.4-0.9-5.1-0.1-7.7
				c1.1-1.7,2.5-3.3,4.3-4.5c1.6-1.1,3.5-2,5.4-2.5c2.6-0.3,4.4,2.4,5.3,4.4c1.2,2.6,2.3,5.1,3,8c0.6,2.2,1.3,5,0,7.3
				c-0.4,0.6-1,1.2-1.7,1.3c0,0-0.2,0-0.4,0.1C79.7,422,77.1,422.4,74.7,422.4z"/>
		</g>
		<g id="earring-6">
			<path class="st34" d="M-4.1,383c-0.5-2,0.6-4.1,2.8-4.7s4.3,0.5,4.8,2.5l0.1,0.3c0.7,2-0.6,4.1-2.8,4.7c-2.1,0.7-4.3-0.5-4.8-2.5
				L-4.1,383z"/>
			<path d="M2.8,381.2c0.4,1.7-0.6,3.4-2.5,3.7c-1.6,0.4-3.1-0.4-3.7-1.9l-0.1-0.3c-0.4-1.5,0.5-3.2,2.1-3.8
				c1.7-0.6,3.4,0.2,4.1,1.8L2.8,381.2 M4.2,380.9l-0.1-0.3c-1.1-2.2-3.8-3.1-6.2-2c-1.9,0.8-2.9,2.7-2.6,4.6l0.1,0.3
				c1,2.3,3.7,3.2,6,2.2C3.4,384.8,4.6,382.9,4.2,380.9z"/>
		</g>
		<g id="earring-7">
			<path class="st34" d="M-6.4,391.5c-0.5-2,0.6-4.1,2.8-4.7c2.1-0.5,4.3,0.5,4.8,2.5l0.1,0.3c0.5,1.8-0.7,3.8-2.6,4.4
				c-2.1,0.7-4.2-0.3-4.9-2.3l0,0L-6.4,391.5z"/>
			<path d="M0.7,389.7c0.4,1.7-0.9,3.3-2.5,3.7c-1.6,0.4-3.1-0.4-3.7-1.9l-0.1-0.3c-0.4-1.5,0.5-3.2,2.1-3.8
				c1.7-0.6,3.4,0.2,4.1,1.8L0.7,389.7 M1.8,389.2l-0.1-0.3c-1.1-2.2-3.8-3.1-6.2-2c-1.9,0.8-2.9,2.7-2.6,4.6l0.1,0.3
				c1.1,2.2,3.8,3.1,6.2,2C1.2,393.1,2.2,391.2,1.8,389.2z"/>
		</g>
		<g id="earring-8">
			<path class="st34" d="M-4.3,399.9c-0.7-2,0.6-4.1,2.8-4.7c2.1-0.7,4.3,0.5,4.8,2.5l0.1,0.3c0.7,2-0.6,4.1-2.8,4.7
				c-2.1,0.7-4.3-0.5-4.8-2.5L-4.3,399.9z"/>
			<path d="M2.8,398.1c0.4,1.5-0.5,3.2-2.1,3.8c-0.9,0.2-1.6,0.2-2.5-0.1s-1.4-0.9-1.6-1.7l-0.1-0.3c-0.4-1.7,0.5-3.3,2.2-4
				c1.8-0.5,3.5,0.4,4.1,2l0,0L2.8,398.1 M4.1,397.8L4,397.4c-1.1-2.2-3.8-3.1-6.2-2c-1.9,0.8-2.9,2.7-2.6,4.6l0.1,0.3
				c1.1,2.2,3.8,3.1,6.2,2C3.3,401.5,4.4,399.6,4.1,397.8z"/>
		</g>
		<g id="earring-9">
			<path class="st34" d="M-1.5,407.6c-0.5-2,0.9-4,3-4.5c0.9-0.2,1.9-0.1,2.7,0.2c0.9,0.5,1.6,1.2,2,2l0.1,0.3
				c0.5,2-0.6,4.1-2.8,4.7c-2.1,0.5-4.3-0.5-4.8-2.5l0,0l0-0.2L-1.5,407.6z"/>
			<path d="M5.4,405.8c0.4,1.5-0.5,3.2-2.1,3.8c-1.7,0.6-3.4-0.2-4.1-1.8l-0.1-0.3c-0.4-1.7,0.6-3.4,2.5-3.7
				C3.2,403.3,4.8,404.2,5.4,405.8L5.4,405.8 M6.8,405.5l-0.1-0.3c-1.1-2.2-3.8-3.1-6.2-2c-1.9,0.8-2.9,2.7-2.6,4.6l0.1,0.3
				c1.1,2.2,3.8,3.1,6.2,2C5.9,409.3,7.1,407.4,6.8,405.5z"/>
		</g>
		<g id="earring-10">
			<path class="st34" d="M3.7,414.7c-0.5-2,0.6-4.1,2.8-4.7c2.1-0.5,4.3,0.5,4.8,2.5l0.1,0.3c0.5,2-0.6,4.1-2.8,4.7
				c-2.1,0.5-4.3-0.5-4.8-2.5l0,0L3.7,414.7z"/>
			<path d="M10.6,412.9c0.4,1.5-0.5,3.2-2.1,3.8c-1.7,0.6-3.4-0.2-4.1-1.8l-0.1-0.3c-0.4-1.5,0.5-3.2,2.1-3.8
				c1.7-0.6,3.4,0.2,4.1,1.8L10.6,412.9 M12,412.5l-0.1-0.3c-1.1-2.2-3.8-3.1-6.2-2c-1.9,0.8-2.9,2.7-2.6,4.6l0.1,0.3
				c0.8,2.3,3.5,3.4,5.8,2.6C11.3,417,12.6,414.7,12,412.5L12,412.5z"/>
		</g>
		<g id="earring-11">
			<path class="st34" d="M10.2,420c-0.7-2,0.6-4.1,2.8-4.7s4.3,0.5,4.8,2.5l0.1,0.3c0.7,2-0.6,4.1-2.8,4.7s-4.3-0.5-4.8-2.5l0,0
				C10.3,420.3,10.2,420,10.2,420z"/>
			<path d="M17.1,418.2c0.4,1.7-0.6,3.4-2.4,3.8c-1.6,0.4-3.1-0.4-3.7-1.9l-0.1-0.3c-0.4-1.5,0.5-3.2,2.1-3.8
				c1.7-0.6,3.4,0.2,4.1,1.8l0,0L17.1,418.2 M18.5,417.9l-0.1-0.3c-1-2.3-3.7-3.2-6-2.2c-1.9,0.8-3.1,2.8-2.7,4.8l0.1,0.3
				c1,2.3,3.7,3.2,6,2.2C17.6,421.8,18.8,419.9,18.5,417.9L18.5,417.9z"/>
		</g>
		<g id="earring-12">
			<path class="st34" d="M18.4,422.7c-0.5-1.8,0.7-3.9,2.6-4.4c1-0.4,2-0.3,3.1,0.1c0.9,0.5,1.6,1.2,2.1,2.2l0.1,0.3
				c0.7,2-0.6,4.1-2.8,4.7c-2.1,0.5-4.3-0.5-4.8-2.5L18.4,422.7z"/>
			<path d="M25.5,420.9c0.4,1.5-0.5,3.2-2.1,3.8c-1.7,0.6-3.4-0.2-4.1-1.8l0,0l-0.1-0.3c-0.4-1.7,0.6-3.4,2.4-3.8
				c1.6-0.4,3.1,0.4,3.7,1.9L25.5,420.9 M26.8,420.6l-0.1-0.3c-0.8-2.3-3.5-3.4-5.8-2.6c-2.3,0.8-3.6,3.1-3,5.3l0.1,0.3
				c1.1,2.2,3.8,3.1,6.2,2C25.9,424.4,27.1,422.5,26.8,420.6L26.8,420.6z"/>
		</g>
		<g id="earring-13">
			<path class="st34" d="M27.4,423.8c-0.5-1.8,0.7-3.9,2.6-4.4c1-0.4,2-0.3,3.1,0.1c0.9,0.5,1.6,1.2,2.1,2.2l0.1,0.3
				c0.7,2-0.6,4.1-2.8,4.7c-2.1,0.5-4.3-0.5-4.8-2.5L27.4,423.8z"/>
			<path d="M34.3,422c0.4,1.5-0.5,3.2-2.1,3.8c-1.7,0.6-3.4-0.2-4.1-1.8l-0.1-0.3c-0.4-1.7,0.6-3.4,2.4-3.8c1.6-0.4,3.1,0.4,3.7,1.9
				L34.3,422 M35.7,421.6l-0.1-0.3c-1.1-2.2-3.8-3.1-6.2-2c-1.9,0.8-2.9,2.7-2.6,4.6l0.1,0.3c1.1,2.2,3.8,3.1,6.2,2
				C34.8,425.5,36,423.5,35.7,421.6L35.7,421.6z"/>
		</g>
		<g id="earring-14">
			<path class="st34" d="M36.2,424.2c-0.5-2,0.6-4.1,2.8-4.7c2.1-0.5,4.3,0.5,4.8,2.5l0.1,0.3c0.5,1.8-0.7,3.8-2.6,4.4
				c-2.1,0.7-4.2-0.3-4.9-2.3l0,0L36.2,424.2z"/>
			<path d="M43.3,422.6c0.4,1.7-0.6,3.4-2.5,3.7c-1.6,0.4-3.1-0.4-3.7-1.9l-0.1-0.3c-0.4-1.7,0.6-3.4,2.5-3.7
				c1.6-0.4,3.1,0.4,3.7,1.9L43.3,422.6 M44.6,422.2l-0.1-0.3c-0.8-2.3-3.5-3.4-5.8-2.6c-2.3,0.8-3.6,3.1-3,5.3l0.1,0.3
				c1.1,2.2,3.8,3.1,6.2,2C43.7,426,44.9,424.1,44.6,422.2L44.6,422.2z"/>
		</g>
	</g>
</g>
<g>
	<g id="Layer_140_1_">
		<path class="st0" d="M20.2,92.2c1.5,0.1,5.4-1.5,5.4-1.5c2-2,3.8-4.2,5.5-6.5c1.6-2.4,5.7-9.3,5.7-9.3l23.9,13.9
			c0,0-3.6,6.9-4,7.6c-1.4,2.6-2.6,5.3-3.6,8c-1.3,2.6-1.6,5.5-1,8.4c0.5,1.8,1.2,3.5,2.1,5.2c0,0,3.1,4.5,3.9,5.9
			c0.7,1.2,1.5,2.4,2.4,3.5c0,0-0.4,8.9-7.6,12.7c-7.2,3.8-22.1-1.7-29.6-8.1C15.6,125.5,1,102.7,7,98.5
			C13,94.3,14.7,91.8,20.2,92.2z"/>
		<g id="turtleneck_1_">
			<path class="st42" d="M64.6,172.8c-0.2-0.1,4.4-11.8,4.9-13.3c0.8-2.7,1.4-5.5,1.9-8.3c0.9-6.3,0.7-13-2.9-17.7
				c-2.5-2.9-4.8-6-6.9-9.1c-1.7-2.4-3-4.9-4.7-7.4c-0.8-1.2-1.1-1.9-1.9-3.2c-0.4-0.6-1-1-1.3-1.7c-0.4-0.6,0-2.6-0.2-3.2
				c-0.7-1.6-0.7-3.3-0.1-4.9c0.1-0.5,0.7-2.1,0.9-2.7c0.1-0.2,4.9-10.3,4.4-8.8L31.8,73.7c0,0-6.2,12.9-6.3,13
				c-0.5,0.9-1.8,1.6-2,2.5c-0.4,0.9-1,1.7-1.8,2.3c-1.3,1.2-3.4,0.3-5.1,0.5s-2.6,1.5-4.4,1.3s-3.6-0.1-5.5-0.2
				c-8.1-0.2-9.3-0.6-17.4-0.8c-0.3,0-0.7,0-1,0c-3.3-0.1-8-0.5-12.3,1.4c-4.2,1.9-13.3,15.3-16,18.5c-2.7,3.2-3.6,4.3-3.6,4.3"/>
		</g>
		<path class="st0" d="M76.6,77.9c0,0,0.9-2.3,0.9-2.4c0-0.6,0.2-1.1,0.3-1.7c0-0.2,0-0.4,0.1-0.7c0.4-1.5,0.7-3.1,1.2-4.6
			c0.5-1.5,0.8-2.9,1.2-4.3c1.1-4.2,2-9.5,0.6-13.8c-1.1-2.7-3.1-4.8-5.7-6.1c-4.3-2.7-9.3-4.3-14.4-4.5c-4.6,0-9.2,1-13.3,2.9
			c-4.5,2.2-6.5,6.5-8.2,11c-1.2,3.3-2.2,6.8-2.9,10.2c-0.9,4.7-1.8,17.6-1.8,17.6c0.9,7.4,4.2,16.4,9.8,17.9c3,0.8,6.4-0.1,9.3-0.9
			c3.2-1,6.5-2,9.1-4.1c2.3-1.9,4.4-4,6.3-6.2c1.4-1.6,2.7-3.3,3.9-5c0.6-0.9,1.6-1.1,2.1-2.1c0.3-0.6,0.6-0.5,0.9-1.2
			c0.1-0.3,0.2-0.7,0.3-1c0.1-0.1,0.1-0.3,0.1-0.5C76.4,78.2,76.5,78,76.6,77.9z"/>
		<path class="st39" d="M61.1,77.8c0.1,1,0.1,1.8-1,2.4c-1.3,0.6-2.9,0.3-4-0.6c-0.5-0.5-1.1-0.9-1.8-1.3c-0.4-0.2-1.3-0.6-1.5-1
			s0.2-1.3,0.7-1.2"/>
		<path class="st43" d="M53.6,103l5.8,10.8c0,0,14.7-16.8,18.9-24.7c5.8-11.1,6.9-23.6,6-34.7s-6-13-7.2-13.8s-2-2.1-3.2-2.8
			c-7-4-15.3-6.9-22.6-4.7c-6.9,2.1-17.6,8.8-21.3,15.2c-0.9,1.5-1.8,3.1-2.6,4.7c-2.8,5.1-5.1,10.5-6.9,16
			c-1,2.9-1.8,12.2-1.2,15.3c0,0.2,0.1,0.3,0.1,0.5c0.4,1.7,1,3.4,1.8,4.9c0.9,1.9,1.9,3.8,2.9,5.7c0.8,1.4,1.5,2.8,2.3,4.2
			c0.6,1.2,1.1,2.4,1.8,3.5s1.5,2.3,1.9,0.3c2-11,6.4-46.6,25.8-51.7c6.2-1.8,12.2-4.3,17.8-7.5c1.9,0.3,3.7,1.2,5,2.7
			c1.2,1.5,2,3.3,2.2,5.2c0.3,2.2,0.4,4.4,0.2,6.6c-0.2,2.3-0.6,4.6-1.1,6.8c-0.5,2-1,4.1-1.6,6.1c-0.3,1.7-0.8,3.3-1.3,4.9
			c-1,1.9-2.1,3.7-3.5,5.4c-1.2,1.7-2.6,3.2-3.9,4.8c-4,4.9-5.9,7.1-7.7,8.2c-2,1-4,2-6,2.8C55.9,97.6,53.7,102.4,53.6,103z"/>
		<path class="st5" d="M69.6,62.2c0,0,4-0.1,5.5,0.7c1.5,0.8,2.4,3.4,2.6,4.3"/>
		<path class="st5" d="M59.5,57c0,0-0.6-4-2.3-5.6"/>
		<circle class="st42" cx="51.8" cy="64" r="6"/>
		<circle class="st42" cx="69.9" cy="73.4" r="6"/>
		<path class="st5" d="M64.6,70.7c-0.6-1.5-1.6-2.7-3-3.5c-1.4-0.7-3-0.8-4.6-0.4"/>
		<g id="zipper_1_">
			<path class="st5" d="M41.1,83.2c1.7,0.2,3.3,0.8,4.8,1.5c1.4,1,2.9,4.2,4,5.1"/>
			<path id="cigarette-2_2_" class="st2" d="M26.2,45.3c0,0-4.4-6.4-0.7-9.5c3.7-3.1,13.1-5.8,9.5-2S23.5,40,21.4,34.9
				s1.6-15.3,4.5-16.4"/>
			<path class="st8" d="M41.2,83.4l-12,5.1c0,0-0.8,0-0.2,0.9s1,1.6,1,1.6l2.1-0.8c1.6-0.6,3.7-1.5,5.2-2.1c1.6-0.6,3.2-1.2,4.8-1.8
				c0.6-0.2,1-0.5,1.6-0.8l0.8-0.3c0.2-0.1,0.5-0.2,0.7-0.3c0.1,0,0.1-0.1,0.1-0.2c0-0.2-0.6-0.3-0.8-0.4c-0.4-0.2-0.7-0.4-1.2-0.5
				C42.7,83.5,42,83.4,41.2,83.4z"/>
		</g>
	</g>
</g>
<g>
	<g id="person_9_1_">
		<path id="shirt_2_" class="st83" d="M22.1,253.5c7.1-3.9,5.7-4.3,10.6-7.8c5.9-4.2,11.6-8.9,16.8-13.9c8.8-8.1,7.5-18.3,7.2-28.2
			c0-2.5-2.8-15.5-2.8-15.5l-0.4-0.8c-0.9-2-14.9-31.3-14.9-31.3c-9.3-6.8-19.6-17.6-31-21.7c-7.6-2.7-20.6-1-27.3,2.6
			c-1.7,1-3.7,1.5-5.4,2.4c-2.2,1.2-4.9,1.5-7.2,2.8c-1.2,0.7-4,2.2-5.1,2.8"/>
		<g id="head_and_neck_1_">
			<path class="st84" d="M38.5,155.8l-7.2-5.7L20.5,156l-8.4,4.6c-5.6,3.1-9.4,6.8-10.6,13.3c-1.4,6.7-0.4,13.8,2.7,19.9
				c2.6,5,6.1,9.2,10.6,12.5c2.9,2.1,6.4,4.2,10.1,4.1c4.8,0,8.9-3.4,13-5.4c5.8-2.9,11.6-6,17.4-9c-0.3-2.6-0.7-5.3-1.4-8
				C51.3,178,43.4,162.5,38.5,155.8z"/>
			<path class="st84" d="M48.1,191.2l-3.6-5.9l-5.7-9.3l-9.5-15.5c0,0,6.9-2.4,8.5-3.4c0.2-0.1,0.6-0.3,1-0.6c0.1,0,0.1-0.1,0.2-0.1
				c2.2-1.3,6.2-3.4,6.7-3.6c0,0,0.1,0,0.1,0c0-0.1,0.1-0.2,0.1-0.3c0.1-0.2,0.1-0.3,0.2-0.5c0.4-0.9,1-1.8,1.5-2.6
				c0.4-0.6,0.7-1.2,1.1-1.7c0.2-0.2,0.5-0.5,0.7-0.7c0.1-0.1,0.1-0.1,0.2-0.2l0,0c0,0,0.1-0.1,0.1-0.1l0.3-0.4
				c0.3-0.4,0.6-0.7,0.9-1.1c0.8-1,1.6-2,2.4-3.1c2-2.7,5.9-4.7,7.2-3.1c0.7,0.9,0.9,2.1,0.8,3.3c0,0,0,0,0,0c0,0.1,0,0.3,0,0.4
				c-0.1,0.7-0.3,1.4-0.5,1.9c0,0,0,0,0,0c-0.1,0.3-0.4,0.7-0.6,1.3c-0.1,0.1-0.1,0.2-0.2,0.4c-0.2,0.4-0.4,0.8-0.7,1.3
				c-0.5,1-1,2-1.2,2.4c-0.1,0.1-0.1,0.2-0.1,0.2s0.1-0.1,0.3-0.2c0,0,0,0,0,0c1.2-0.6,5-2.2,6.7-2.4c1-0.1,4,0.1,7,0.2
				c1.9,0.1,3.8,0.1,5.4-0.1c0.8-0.1,1.6-0.2,2.1-0.4c0.1,0,0.2-0.1,0.3-0.1c1.4-0.5,2.2-0.8,2.6-1.1c0,0,0,0,0.1,0
				c0.4-0.2,0.5-0.3,0.5-0.3s0,0,0,0c0,0,0,0,0,0c0,0.1,0,0.3,0,0.7c0,0.7,0.1,2,0.5,3.3l0,0c0.5,1.7,1.3,3.5,3,4.5
				c3.7,2.2,7.7,4.9,7.7,4.9s0,0.1-0.1,0.2c-0.5,0.5-2,2.4-2.2,3.5c0,0.2-0.1,0.3,0,0.4c0.1,0.7,0.7,2.7,1.1,4.7c0,0,0,0,0,0
				c0.1,0.4,0.1,0.8,0.2,1.2c0,0,0,0,0,0c0.1,0.7,0,1.4-0.1,2c0,0.1,0,0.1,0,0.2c0,0.1-0.1,0.2-0.1,0.3c-0.1,0.1-0.1,0.2-0.2,0.3
				c0,0,0,0,0,0c0,0.1-0.1,0.1-0.2,0.2c-1.1,1.3-3.7,3.3-6.9,5.2c-0.3,0.2-0.6,0.3-0.9,0.5c0,0,0,0,0,0c-0.7,0.4-1.5,0.8-2.3,1.2
				c-0.5,0.3-1,0.5-1.5,0.7c-5.2,2.3-16.4,7.4-19.7,7.8c-2.5,0.2-5,0.3-7.6,0.2c-0.1,0-0.1,0-0.2,0c-0.5,0-0.9,0-1.4,0
				c0,0-0.1,0-0.1,0L48.1,191.2z"/>
			<path class="st38" d="M4.1,193.6c0,0,5.7-2.7,7.7-3.6"/>
			<path class="st84" d="M39.9,172.9c0,0-2.8,5.1-0.3,9.7c2.5,4.2,8.2,2.4,8.2,2.4"/>
			<path class="st5" d="M33,177.3c-0.4-1.8-0.9-3.5-1.2-5.3"/>
			<path class="st39" d="M39.2,174.6c0,0-1.6-4.2-0.3-6.3"/>
			<path class="st39" d="M96.7,157.8c0,0,0.8,1.7-2.3,3.4c-1.1,0.6-1.5,0.2-1.5,1.4c0,2.7,0,5.2,0.1,7.7c0.1,3.1-3.7,4.7-5.9,6.3
				c-2.2,1.6-13.1,6.8-22.9,10.3c-2.4,0.8-4.9,1.2-7.4,1.3c-3.5-0.2-7.2-1.2-10.3-3"/>
			<path class="st39" d="M46.9,152.9c-0.1,0.6,0.3,1,0.8,1.2c0.9,0.4,0.6,0.9,0.6,0.9"/>
			<path class="st39" d="M96.2,158c-1.1,0-2.7-0.4-4.3-1.2c-3.4-1.5-7.1-4.2-8.4-7.2l0,0c-0.2-0.6-0.4-1.1-0.6-1.5c0,0,0,0,0,0
				c-0.3-0.9-0.4-1.6-0.5-1.9c0,0,0,0,0,0c0,0,0-0.1,0-0.1c0-0.5,0.2-0.4,0.1,0c0,0,0,0.1,0,0.1c0,0,0,0,0,0.1c0,0,0,0.1,0,0.1
				c-0.2,0.3-0.6,0.5-1.2,0.6c-0.4,0.1-0.9,0.1-1.4,0.2c-0.9,0.1-1.8,0.2-2.4,0.5c0,0-0.1,0-0.1,0c-0.7,0.4-2.9,0.2-5.3,0
				c-2-0.2-4.1-0.4-5.7-0.4c-2.9,0-7,1.9-8.2,2.5c-0.1,0-0.1,0.1-0.2,0.1c-0.1,0-0.1,0.1-0.1,0.1s0.8-1.6,1.7-3.3
				c0.3-0.5,0.5-0.9,0.8-1.4c0.1-0.2,0.2-0.4,0.3-0.6c0,0,0,0,0,0c0.2-0.3,0.4-0.6,0.5-1c0.9-1.5,0.7-2.6,0.2-3.5
				c0-0.1-0.1-0.2-0.1-0.2c-0.3-0.4-0.7-0.8-0.9-1.1c-0.9-1-3.9-0.1-5.1,0.9c-1.7,1.6-3.1,3.4-4.3,5.4c0,0,0,0.1-0.1,0.1
				c-0.2,0.4-0.5,0.8-0.9,1.1c-0.1,0.1-0.2,0.2-0.4,0.3c0,0-0.1,0.1-0.1,0.1l0,0c-0.1,0.1-0.2,0.1-0.2,0.2c-0.7,0.5-1.3,1-1.7,1.6"
				/>
		</g>
		<g id="earring_2_">
			<path class="st34" d="M44,150.7c-0.9-1.6-0.5-3.7,1.1-4.7c1.7-1.1,3.9-0.7,5,1l0.2,0.3c1,1.7,0.3,3.9-1.4,4.9
				c-1.6,0.9-3.7,0.5-4.8-1.2L44,150.7z"/>
			<path d="M46.9,153c0.4,0,0.8,0,1.2-0.1c0.5-0.1,0.9-0.3,1.4-0.5c1.8-1.1,2.3-3.5,1.3-5.4l-0.2-0.3c-0.1-0.2-0.3-0.4-0.4-0.5
				c0,0,0,0,0-0.1c-0.8-0.8-1.9-1.2-3-1.2c-0.8,0-1.5,0.2-2.2,0.7c-1.6,1.2-2.3,3.4-1.3,5.2l0.2,0.3c0.4,0.7,1.1,1.2,1.8,1.5
				C46,152.9,46.4,153,46.9,153z M44.4,150.5c-0.8-1.5-0.2-3.5,1.4-4.2c0.5-0.3,0.9-0.4,1.4-0.4c0.8,0,1.6,0.3,2.2,0.9c0,0,0,0,0,0
				c0.1,0.1,0.2,0.3,0.3,0.4l0.1,0.2c0.8,1.5,0.2,3.5-1.4,4.2c-0.2,0.1-0.4,0.2-0.6,0.2c-0.6,0.2-1.2,0.2-1.8,0
				c-0.6-0.2-1.2-0.6-1.6-1.2L44.4,150.5z"/>
		</g>
		<g id="eyes-4_1_">
			<path class="st39" d="M86.2,165.5c0,0,3.8,1.8,0.8,5.5"/>
			<path class="st39" d="M80.4,154.3c-0.3-1.7-1.6-3-3.3-3.2"/>
			<path class="st85" d="M71,174.6c-0.5,0.5-0.5,1.3,0,1.9s1.3,0.5,1.9,0c0.5-0.4,0.5-1.1,0.1-1.7C72.5,174.2,71.7,174.1,71,174.6
				L71,174.6z"/>
			<path class="st85" d="M63.9,161.2c-0.5,0.5-0.5,1.3,0,1.9c0.4,0.6,1.3,0.5,1.9,0c0.5-0.4,0.5-1.1,0.1-1.7
				C65.4,160.9,64.5,160.7,63.9,161.2z"/>
			<path class="st39" d="M68.1,179.5c0,0-0.5,0.1-0.9-1.4c-0.4-1.5,0-2.1,0-2.1"/>
			<path class="st39" d="M61.4,165.1c0,0-2.2-0.4-2.5-1.6c-0.1-0.7-0.2-1.5,0-2.1"/>
			<path class="st39" d="M76,157.4c0,0,1.3-3.6-2.4-3.7s-5.5,0.2-5.5,0.2"/>
			<path class="st39" d="M81.7,168.7c0,0,2.6,0.6,1.2,3.6c-0.8,1.7-1.7,3.3-3,4.7"/>
		</g>
		<path id="nose-4_4_" class="st39" d="M63.7,170.2c0,0-2.2,3.5-2.3,5.7c-0.5,9.4-10.2-1.6-6.7-4.2"/>
		<path class="st86" d="M81.1,179.9c0,0,0.3-0.2,0.9-0.5c0,0,0,0,0.1,0c0.7-0.4,1.6-1,2.7-1.6c0,0,0,0,0,0c0.3-0.2,0.6-0.3,0.9-0.5
			c1.6-0.9,3.1-1.8,4.1-2.3c0,0,0.1,0,0.1-0.1c0.2-0.1,0.4-0.2,0.6-0.3c0.5-0.3,1-0.7,1.5-1.3c0.3-0.4,0.6-0.9,0.9-1.4c0,0,0,0,0,0
			c0.1-0.2,0.2-0.4,0.2-0.6c0,0,0,0,0-0.1c0-0.1,0-0.1,0.1-0.2c0.2-0.7,0.3-1.3,0.1-1.9c0,0,0,0,0,0c0,0,0,0,0,0
			c0-0.2-0.1-0.3-0.1-0.5c-0.6-2-1.7-4.8-1.1-5.8l0,0c0.7-1.1,2.4-3.4,2.4-3.4s0,0-0.1-0.1c-0.3-0.2-1.3-0.9-3.2-2.1
			c-2.4-1.6-4.2-1.7-5.8-3.1c-1.6-1.4-1.9-4.2-2.2-5.2c0-0.2,0-0.5,0-0.8c0,0,0,0,0,0c0-0.6,0-1.1,0.1-1.7c0-0.3,0.1-0.5,0.1-0.8
			c0,0-0.1,0-0.1,0.1c0,0,0,0,0,0c-0.2,0.1-0.4,0.3-0.6,0.4c0,0,0,0,0,0c-0.4,0.3-0.8,0.5-1.2,0.8c-1.1,0.6-2.2,1.1-3.4,1.3
			c-3.2,0.3-6.3,0.1-9.4-0.4c-3-0.4-9.1,1.7-10.2,2.1c0,0,0,0,0,0c-0.1,0-0.1,0-0.1,0s0-0.1,0.1-0.2c0.2-0.4,0.6-1.3,1.1-2.3
			c0.1-0.3,0.2-0.5,0.4-0.8c0.5-1.2,1.1-2.5,1.5-3.5c0,0,0,0,0,0c0-0.1,0.1-0.3,0.1-0.4c0.3-0.7,0.5-1.3,0.5-1.6
			c-0.1-0.3-0.2-0.7-0.3-1c-0.1-0.1-0.1-0.3-0.2-0.4c-0.3-0.6-0.8-1.2-1.4-1.6c0,0,5.9-6,9-7.7c1.4-0.8,2.8-1.4,4.3-1.8
			c5.7-1.9,11.1-2,11.1-2c1.6-1.2,3.4-2,5.4-2.4c2.7-0.6,10.6,1.4,13.6,5.9c3,4.6,4.3,8.3,4.3,9.6c0,1.9-0.1,3.7-0.4,5.4
			c2.7,2,5,4.7,6.4,7.8c0.1,0.1,0.1,0.2,0.1,0.3c1.6,3.9,2.6,7.5,2.3,10c0,0.5-0.2,0.9-0.3,1.3c-0.2,0.4-0.3,0.7-0.4,1.1
			c-0.9,2.2-1.9,4.3-4.5,5.8c-0.8,0.5-1.6,0.9-2.4,1.4c-0.1,0.1-0.2,0.1-0.3,0.1c-0.2,0.1-0.4,0.2-0.6,0.3c-1,0.5-2,1-3,1.5
			c-1.2,1.3-2.6,2.4-4.1,3.2c-0.1,0.1-0.3,0.1-0.4,0.2c-2.5,1.2-8.6,2.2-11.3,2.4C86.2,180.4,83.6,180.2,81.1,179.9z"/>
		<g id="headband_1_">
			<path class="st7" d="M79.1,181.1c0.7-0.4,1.5-0.9,2.4-1.5c0,0,0,0,0,0c0.3-0.2,0.6-0.4,0.9-0.6c2.5-1.6,5.2-3.6,7.1-4.9
				c1.2-0.9,2.3-1.8,3.4-2.9c0,0,0,0,0,0c0,0,0,0,0,0c1.9-1.9,3.5-4.4,3.9-7.8c0.1-0.5,0.2-1.1,0.3-1.6c0.2-1.2,0.4-2.3,0.1-3.7
				c-0.1-0.3,0-0.8,0-1.3c0,0,0,0,0,0c0.2-1.5,0.7-3.7,0.5-4.7c0-0.1-0.1-0.2-0.1-0.3c0-0.1-0.1-0.2-0.2-0.3
				c-0.9-1.1-3.3-1.6-4.5-2.1c-0.4-0.2-0.8-0.3-1.2-0.5c-2.5-1.1-4.9-2.4-7.1-3.8c-0.3-0.1-0.6-0.3-0.9-0.4c-1-0.4-2.2-0.5-3.3-0.3
				c-3.8-0.2-7.5-0.1-11.3,0.1c-3.2,0.4-6,1.2-9.3,1.5c0.1-0.1,0.1-0.2,0.2-0.4c0.1-0.2,0.2-0.4,0.3-0.6c0.3-0.7,0.5-1.4,0.7-2.1
				c0,0,0,0,0,0c0.1-0.3,0.1-0.5,0.2-0.8c0,0,0,0,0,0c0.1-0.3,0.1-0.5,0.2-0.8c0-0.6,0-1.1-0.1-1.6c0-0.1,0-0.1-0.1-0.2
				c-0.2-0.5-0.4-1-0.8-1.5c4.2-0.6,10.8-1,15-1.5c1.1-0.1,2.1-0.1,3.2,0c2.3,0.1,4.6,0.6,6.8,1.4c1.6,0.6,3.1,1.3,4.6,2.3
				c3.4,2,5.4,6.7,7.4,10.1c0.2,0.4,0.5,0.8,0.7,1.2c0,0,0,0,0,0c1.5,2.5,3.4,6.1,4,10.4c0.1,0.9,0.2,1.8,0.2,2.7
				c0,0.3,0,0.5-0.1,0.8c-0.1,0.7-0.2,1.4-0.5,2.1c-0.3,1-0.8,1.9-1.3,2.7c-3.7,6-11.7,10-11.7,10L79.1,181.1z"/>
			<path class="st7" d="M99.1,151.7c0,0,3.8-3.5-0.2-8.5c-3.9-5-8.1-4.7-9.9-7.6c-1.7-2.9-3-4.8-3-4.8s-1.6,7.2,0.4,11.4
				S92.5,151,99.1,151.7z"/>
			<path class="st7" d="M98.5,151.1c2.7-2.4,7.3,0.1,8.3,3.1c1.1,3.5,0,6.9-0.5,10.4c-0.5,3.5,1.2,5.6,2.4,8.5c0,0-5.3-2.9-7.9-6.8
				c-1.5-2.2-3.5-6.3-3.5-9c0-2.2-0.6-4,0.9-5.8C98.4,151.3,98.4,151.1,98.5,151.1z"/>
		</g>
		<g id="mouth-3_1_">
			<path class="st10" d="M48.9,172.7c0.1-0.5,0.2-0.8,0.4-1.3c0.2-0.6,1.2-2.6,0.6-3.2c-0.6-0.6-3.1,0.8-3.9,1.2
				c-0.7,0.4-1.4,1-1.8,1.8c-0.2,0.8-0.3,1.6-0.1,2.5c0.2,1.1,0.4,2,0.7,3c0.2,0.6,0.5,1.1,0.9,1.6c0.4,0.5,1,0.6,1.6,0.6
				c0.6-0.2,1.1-0.7,1.1-1.4c0.1-0.6,0.1-1.3,0.1-1.8C48.5,174.7,48.6,173.7,48.9,172.7z"/>
		</g>
	</g>
</g>
<g>
	<g id="person_8_1_">
		<g id="head_copy_3_1_">
			<path id="neck_3_" class="st0" d="M33.1,278.5c0,0,2.6-3.6,3.6-3.9c1.1-0.3,21.5-7,21.5-7l-15.5-53.1c0,0-22.1,7-23.6,6.3
				c-3.8-1.8-7.9-2.9-12-3.2c-7.9-0.8-13.4,11.2-14.1,16.6c-1.4,11.1,2.7,25.2,8.5,35.1c4.3,7.4,10.8,13.3,18.7,17
				C25.2,288.1,31.2,287.1,33.1,278.5z"/>
			<path id="face-2_3_" class="st0" d="M80.3,266.1c0,0-16.1,3.7-17.5,3.7c-2.3,0.1-4.6-0.2-6.9-0.7c-5.4-1.5-10.6-3.4-15.6-5.6
				c-2.2-1.1-8.6-3.2-9.7-5.2c-1.9-3.1-3.4-6.3-4.5-9.6c-0.4-2.2-1.6-10.2-1.3-12.3c0.4-2,5.7-9.9,10.9-16.6
				c5.1-6.7,9.5-10.8,11-11.6c2.4-1.1,4.8-1.8,7.3-2.7l-0.4-0.8c0,0-1.6,0.3-2.2-1.1c-1-2,1.3-4,2.8-5c2.4-1.7,5.3-2.1,7.7-3.8
				s10.3-8.7,13.6-5.9c3,2.4,0.8,5.9-1.6,7.7c-0.8,0.6-1.8,1.1-2.6,1.5l0.3,0.5c0,0,5.1-1.5,8.6-2.5c6.8-1.8,13.6-6,20.8-5.5
				c23.8,2.1,26.7,9.6,33,28.5c5.5,16.8-5.7,30.4-11.5,33.4c-4.8,2.7-9.8,4.6-15.1,6.1c-4.8,1.2-16.7,3.9-16.7,3.9l0,0.6
				c2.1,0.1,4.3,0.3,6.3,0.7c1.6,0.3,2.8,1.9,2.5,3.5s-1.6,2.6-3.1,2.6c-1.9,0-7.5,0.6-9.7,0.9c-1.6,0.3-3.2,0.7-4.8,1.4
				c-1.4,0.4-6.5,1.3-7.1-0.8C74.6,270.4,73.5,267.3,80.3,266.1z"/>
		</g>
		<g id="sweater_copy_3_1_">
			<path id="Sweater-4_2_" class="st40" d="M-18.5,374.3c0,0,20.9-11.8,27.6-18.2c7.6-7.4,12.4-17.2,14-27.6
				c1.7-11.2,13.3-51.1,12-50.8c-7.1,2.5-15.1,2.1-22-1.3C3.5,271.6-1.4,245.9,0.4,235c0.9-6,4.7-11.3,10-14.2
				c1.6-1,4.2-2.6,4.2-2.6s-31.8-32.9-34.9-36.5s-7.8-9.2-14.1-11.8c-6.3-2.6-28.5-4.5-34.7-4.1c-3.2,0.2-6.5,0.7-9.7,1.7"/>
		</g>
		<g id="hair_copy_3_1_">
			<path class="st87" d="M125.1,193.2c0,0,13.2-0.8,18.9,5.2c7.2,7.1,6.5,15.7,4.9,24.6c-1.4,7.1-3.6,13.9-7.1,20.3
				c-3.5,7.1-10.1,16.5-11.4,17.3c-1.5,0.8-3.1,1.3-4.9,1.4c-0.9,0.1-2.9-1.5-2.9-1.5s-9.7,4.2-14.5,2.9c-6.6-1.7-15,0.5-17.1,0.6
				c-2.1,0-1.6-0.9-1.4-0.9c0.2-0.1,17.3-4.9,19.3-6.2c1.9-1.3,3.4-3.3,5.4-3.1c2.1,0,4.1-0.2,6.3-0.7c0,0,3.4-9.2,4.2-11.4
				s2.2-8.9,1.6-11.7c-0.7-3.1-2-6.1-3.7-8.7c-2-3-4.4-3.1-4.4-4.1c-0.1-0.9,2-6.3,0.4-12.4c-1.6-6.1-2.6-9-5.8-10.8
				c-3.2-1.8-6.5-3.3-11-1.6c-4.5,1.7-5.6,1.8-6.5,1.9c-1.8-0.2-3.5-0.3-5.4,0c-1.8,0.5-18.7,5.6-19.2,5.6s-0.1-0.9,1.4-1.7
				s9.3-4.1,10.9-4.7c1.5-0.6,9.7-7.6,14-9.2c4.3-1.6,9.5-4.3,15.6-3.8c6.1,0.5,9.5,1.6,11.4,3C125.7,184.9,125.7,191.3,125.1,193.2
				z"/>
		</g>
		<g id="nose_copy_3_1_">
			<path class="st0" d="M71.6,234.6c0,0,7.1,10,0.1,10.9c-7,0.9-8.9-9.7-8.9-9.7"/>
		</g>
		<g id="mouth_copy_3_1_">
			<path class="st5" d="M43.3,234.4c0,0,3.4,5.1,3.9,8.1c0.5,2.9-2,8.8-1.7,11.2"/>
		</g>
		<g id="stubble-2_1_">
			<line class="st2" x1="51.2" y1="217" x2="50.2" y2="217.3"/>
			<line class="st2" x1="60.1" y1="210" x2="58.9" y2="210.3"/>
			<line class="st2" x1="44.4" y1="217.2" x2="43.2" y2="217.6"/>
			<line class="st2" x1="52.2" y1="226.2" x2="51" y2="226.6"/>
			<line class="st2" x1="42.2" y1="223.4" x2="41.1" y2="223.7"/>
			<line class="st2" x1="60.9" y1="219.5" x2="59.7" y2="219.8"/>
			<line class="st2" x1="70.4" y1="252.1" x2="69.2" y2="252.5"/>
			<line class="st2" x1="73.3" y1="260.1" x2="72.3" y2="260.4"/>
			<line class="st2" x1="61" y1="252.8" x2="59.8" y2="253.1"/>
			<line class="st2" x1="55.6" y1="248.4" x2="54.3" y2="248.8"/>
			<line class="st2" x1="36.3" y1="251.7" x2="35.2" y2="252.1"/>
			<line class="st2" x1="31.3" y1="240.6" x2="30" y2="240.9"/>
			<line class="st2" x1="36.9" y1="242.8" x2="35.7" y2="243.1"/>
			<line class="st2" x1="59.2" y1="261.7" x2="58" y2="262.1"/>
			<line class="st2" x1="64.5" y1="266.5" x2="63.2" y2="266.9"/>
		</g>
		<g id="eyes_copy_2_1_">
			<path id="Eye_4_" class="st6" d="M86.5,218.4c-2.3,0.7-4.5,0.3-4.9-0.9s1.3-2.9,3.6-3.5c2.3-0.7,4.4-1.3,5,0.8
				C90.7,216.4,88.9,217.7,86.5,218.4z"/>
			<path id="Eye-2_4_" class="st6" d="M95.5,246c-2.5,0.7-4.9,0.3-5.2-0.8c-0.3-1.1,1.5-2.7,4-3.5s4.6-1.3,5.2,0.8
				C99.8,244,97.9,245.3,95.5,246z"/>
			<path id="undereye_3_" class="st5" d="M79.8,219.7c-1.2-0.8-2.3-1.8-2.8-3.2c-0.6-1.9-0.3-4.9,0.8-5.8"/>
			<path id="undereye-2_3_" class="st5" d="M85.5,239.9c-0.6,1.9-1,3.9-0.6,5.7c0.7,1.7,2.2,3,3.9,3.6"/>
			<path id="eyebrow_2_" class="st5" d="M104,231.5c0,0,4.3,2.4,5.3,5.7s-1.9,6.1-2.5,9.9"/>
			<path id="eyebrow-2_2_" class="st5" d="M99.4,221.9c0.9-2,1.5-3.9,1.9-6.1c1-3.9-1-7.9-4.7-9.5c-4.3-2.4-4.3-2.4-4.8-4.1"/>
		</g>
		<g id="glasses-2_2_">
			<path d="M141,251.9c-0.5-5-1.5-9.9-3.2-14.8c-2.3-5.4-4.9-11-7.9-16.1c-0.8-1.3-1.5-2.6-2-4.2c-0.4-2-0.6-4-0.5-6.2
				c-0.1-4.2-0.4-8.1-1.2-12.1c-1-4.7-2.3-9.3-3.8-13.8c-1.8-4.3-2.3-4.7-2.7-4.6l-4.2,2c-0.1,0.4,0,0.8-0.1,1
				c-0.1,0.4-0.4,0.7-0.7,1c-0.3,0.3-8.4,5.5-8.7,5.8c-0.8,0.6-1.5,1.4-2.1,2.1c-0.8,1.4-1.3,2.9-1.4,4.4c-0.1,1.7,0,3.4,0.4,5.2
				c0.4,2,1,3.9,1.9,5.8c1,2,2.6,3.6,4.3,5.1c1.9,1.2,4,2.1,6.2,2.4c1.4,0.2,6.1,0.7,6.8,0.9c0.9,0.3,1.5,1.1,1.5,2
				c0.3,1.1,0,2.1-0.7,2.7c-0.9,0.8-4.3,3.6-6,5.2c-2.6,2.3-3.9,5.7-3.8,9.2c0,3.8,1.1,7.7,3.2,10.9c0.8,1.5,1.9,2.7,3.2,3.7
				c1,0.7,2.1,1.1,3.3,1.3c1.2,0.2,7.7,0.1,8.4,0c1.2,0,2.5,0,3.5,0.3c0.5,0.3,0.8,0.7,1.1,1.2l4.6-0.6
				C140.9,252.1,140.9,252.1,141,251.9z M116.1,211.7c-2.2-0.3-4.3-1-6.3-2c-2.1-1.9-3.6-4.5-4-7.3c-0.7-2.5-0.7-5-0.2-7.4
				c0.3-1.6,2-2.9,3.6-4.1c2.3-1.4,4.9-2.4,7.3-3.1c0.2-0.1,0.2-0.1,0.4-0.1c0.7-0.2,1.5-0.1,2,0.4c2.1,1.3,2.9,4,3.7,6
				c0.9,2.4,1.4,4.9,1.8,7.5c0.3,2.4,1.3,7.8-1.9,9.2C120.3,211.6,118.2,211.8,116.1,211.7z M125.9,248.6c-2-0.2-4.1-0.3-5.2-1.5
				c-1.7-1.8-3.1-4.1-3.8-6.4c-1.1-2.5-1.2-5.6-0.5-8.3c1.2-1.9,2.6-3.6,4.3-5.1c1.6-1.2,3.6-2.2,5.5-2.8c2.6-0.4,4.6,2.7,5.8,4.6
				c1.6,2.8,2.6,5.6,3.4,8.6c0.7,2.3,1.6,5.5,0.4,7.9c-0.4,0.7-1,1.2-1.7,1.4l-0.4,0.1C131.1,248.1,128.5,248.5,125.9,248.6
				L125.9,248.6z"/>
			<g class="st88">
				<path d="M118.8,188.1c-0.7-0.4-1.5-0.5-2.2-0.3c-0.2,0.1-0.2,0.1-0.4,0.1c-2.5,0.5-5.1,1.7-7.3,3.1c-1.6,1.2-3.3,2.5-3.6,4.1
					c-0.6,2.5-0.5,4.9,0.2,7.4c0.4,2.8,1.9,5.4,4,7.3c2,0.9,4.1,1.7,6.3,2c2.1,0,4.2-0.1,6.3-0.7c3.1-1.3,2.1-6.7,1.9-9.2
					c-0.2-2.6-0.7-5.1-1.7-7.7C121.7,192.1,120.9,189.4,118.8,188.1z"/>
			</g>
			<g class="st88">
				<path d="M135.6,245.6c-0.4,0.7-1,1.2-1.7,1.4l-0.4,0.1c-2.4,0.9-5.2,1.3-7.8,1.3c-2-0.2-4.1-0.3-5.2-1.5
					c-1.9-1.8-3.1-4.1-3.8-6.4c-1.1-2.5-1.2-5.6-0.5-8.3c1.2-1.9,2.6-3.6,4.3-5.1c1.6-1.2,3.6-2.2,5.5-2.8c2.6-0.4,4.6,2.7,5.6,4.7
					c1.4,2.7,2.6,5.6,3.4,8.6C135.8,240,136.8,243.4,135.6,245.6z"/>
			</g>
		</g>
	</g>
</g>
<g>
	<g id="person_16_1_">
		<path id="neck-2_1_" class="st0" d="M45.2,472.1c0,0-14.7,3.4-15.5,4.2c-1.2,1.2-1.9,2.8-2,4.4c-0.3,2.5-0.7,5.7-0.7,5.7
			s-27,2.5-31-1.6s-6.8-18.4-8.1-23.8c-1.8-7.5,28.6-21.6,28.6-21.6s5.7,8.7,7.1,10.1c1.5,1.4,15.6-2.3,15.6-2.3L45.2,472.1z"/>
		<path id="face-2_1_" class="st0" d="M56,474.4c0,0-8.6,1.6-9.4,1.6c-1.2,0-2.5-0.2-3.6-0.6c-6.3-1.7-14.2-4.4-15.5-11.6
			c-1.3-6.8,1.7-10.1,5.8-15.1c2.8-3.4,5.3-5.5,6.1-5.9c1.3-0.5,2.6-0.9,4-1.2l-0.2-0.4c0,0-0.9,0.2-1.2-0.6
			c-0.4-1.1,0.8-2.1,1.6-2.6c1.3-0.8,2.9-1,4.5-1.4c1.6-0.4,5.4-4,7.4-1.8c1.4,1.5,0.1,1.6-1.3,2.5c-0.5,0.3-0.9,0.5-1.4,0.8
			l0.2,0.3c0,0,2.7-0.7,4.7-1.1c3.6-0.8,7.4-2.9,11.2-2.4c12.6,1.7,14,5.8,16.9,16c2.5,9.1-3.7,16.1-6.9,17.6
			c-2.6,1.3-5.3,2.2-8.1,2.8l-9,1.7l0,0.3c1.1,0.1,2.3,0.2,3.4,0.5c0.9,0.2,1.5,1.2,1.3,2.1c-0.3,0.7-1,1.2-1.8,1.1
			c-1,0-4.1,0.2-5.2,0.2c-0.9,0.1-1.7,0.3-2.5,0.6c-0.8,0.2-3.5,0.5-3.8-0.6C52.9,476.6,52.5,474.9,56,474.4z"/>
		<path id="nose-4_2_" class="st39" d="M51.1,457.2c-0.4,1-0.6,2.2-0.6,3.3c0.9,5.7-5.8-1.4-4.2-2.8"/>
		<g id="zipper_copy_1_">
			<path class="st89" d="M-31.9,415.5l27.8,114.2c0,0,19-9.3,21.9-11.3s4.7-1.9,5.2-3.2s3.5-7.2,3.7-9.2c0.2-1.6,0.7-3.1,1.1-4.6
				c0.6-2.3,1.2-4.6,1.8-7l0.6-2.3c0.1-0.8,0.4-1.6,0.7-2.4c0.2-0.2,0.3-0.3,0.5-0.5c0.9-0.8,1.7-1.7,2.3-2.8c0.6-1,0.9-2.3,1.6-3.2
				c0.9-1.4,2.3-2.3,1.8-4.2l-1.1-4.6l-6.5,2c-0.8,0.9-1.5,1.9-1.9,3c-0.6,1.6-2,1.8-4.7,0.9c-2.7-0.9-10.8-2.6-13.3-3.7
				c-2.7-1.6-5.3-3.5-7.6-5.6c-0.9-0.8-4.7-1.4-4.7-1.4s5.5-8.7,7.4-9.9c1.9-1.2,4.8-2.2,9.3-9.2c1.6-2.4,2.7-5.7,5.4-5.4
				c0,0,0.5-0.3,2,2c2.2,3.4,2.7,3.2,2.7,3.2l5.9-1c0,0-3.6-6.2-5-7.8c-1.4-1.6-3.8-4.3-4.7-4.3c-1,0-3-1.4-3-1.4s-9-9.8-11.3-13.3
				c-2.4-3.5-4.8-6.2-8.2-6.7c-3.4-0.5-18.6-1.5-21.6-1.3S-31.9,415.5-31.9,415.5z"/>
			<path class="st5" d="M17.5,435.9c0,0-7.4-2.7-8-2.6c-0.6,0.1,2.1,6.4,1.8,7.6c-0.3,1.2-1,2.2-2,2.9c-0.8,0.6-1.5,5.1-2.8,6.9
				C4.8,453,3.7,461,3.7,461"/>
			<path class="st5" d="M31.6,489.1c-1.8,1.2-3.8,2.2-5.8,3c-2.1,0.7-3.8,2.7-4.2,1c-0.5-2-0.7-4-0.7-6c0-2.3-1.5-2.9-1.5-2.9
				s-13.4-2.5-15.7-12"/>
		</g>
		<path id="mouth-4_1_" class="st5" d="M39.3,463.1c-1.7-2.5-2.1-5.6-1-8.4"/>
		<g id="eyes_copy_5_1_">
			<path class="st10" d="M60.2,461.8c-0.7,0.1-1.1,0.7-1,1.3c0.1,0.7,0.7,1.1,1.3,1c0.1,0,0.3-0.1,0.4-0.1c0.7-0.1,1.1-0.7,1-1.3
				c-0.1-0.7-0.7-1.1-1.3-1C60.5,461.7,60.3,461.8,60.2,461.8z"/>
			<path class="st10" d="M57.8,451c-0.6,0.3-0.8,1.1-0.4,1.6c0.3,0.6,1.1,0.8,1.6,0.4c0.5-0.3,0.7-0.9,0.5-1.4
				C59.2,451,58.4,450.7,57.8,451z"/>
			<path class="st39" d="M54.6,453.9c0,0-1.9-0.9-1.9-2c0-0.7,0.2-1.3,0.6-1.9"/>
			<path class="st39" d="M57.5,465.8c0,0-1.9-0.9-1.9-2c0-0.7,0.2-1.3,0.6-1.9"/>
			<path class="st39" d="M63.5,451.9c0,0,2-3-1.3-3.8c-3.3-0.8-4.8-1.2-4.8-1.2"/>
			<path class="st39" d="M65.1,460.5c0,0,2.1,1.2,0.2,3.5c-1.1,1.4-2.3,2.5-3.8,3.4"/>
		</g>
		<path class="st11" d="M53.5,439.4c0,0-5.9,0.2-4.5-0.8c1.4-1,2.4-1.2,3.4-2s3.8-3.2,4.4-3.2c2.3-0.4,4.5-1,6.7-1.6
			c2-0.6,6.3-2.1,8.3-1.7c2,0.5,3.9,1.4,5.7,2.5c0.3,0.3,1,1.1,1,1.1c1.8-0.4,3.7,0.1,5,1.4c2.3,2.2,6.9,7.7,8.8,14.3
			c1.8,6.6-2.5,15.9-3.9,17.7c-1,1.2-2.3,2.2-3.7,2.9c0,0-2,2.4-2.7,2.7c-0.7,0.2-1.4,0.4-2.2,0.5c-2.6,0.5-7.8,4.5-10.6,2.4
			c-0.5-0.4-1-0.7-1-0.7c-1.6,0.2-3.3,0.3-5,0.3c-1.4-0.2-3.4,0.1-3.9-0.6c-0.3-0.4-0.6-0.8-0.9-1.1c2.8-0.5,5.6-1,8.3-1.7
			c2.7-0.7,4.3-1.1,5.6-3.6c0.7-1.5,0.8-3.2,0.2-4.8c-0.6-2.3-3.1-6-1.7-7.8s3.9-0.3,3.6-2.9c-0.3-2.3-1.5-4.4-2.2-6.7
			c-0.4-1.3-0.9-3.8-0.4-5.1l0.3-0.7c-1.2,0-2.3-0.1-3.4-0.3c-1.3-0.4-2.6-0.5-4-0.4c-1.5,0.1-1.9-0.9-3.3-1.2
			S55.2,439.4,53.5,439.4z"/>
		<path class="st90" d="M55.7,454.2c-1.2,0.1-2.4,0-3.6-0.3c-2.8-1.1-4.7-3.6-4-6.7c0.5-2.2,2.4-4,4.3-5.1c2.9-1.7,4.1-1.5,4.5-0.8
			c0.9,1.5,1.4,3.2,1.7,4.9c0.3,2.3,0.3,4.8-0.4,6.1C57.4,453.5,56.8,454.2,55.7,454.2z"/>
		<path class="st90" d="M56.9,459.4c-1.1,0.5-2.1,1.1-3.1,1.9c-0.8,0.9-2.1,2.4-1.8,4.4c0.1,1.2,0.6,2.4,1.4,3.4
			c1.7,1.6,3.8,2.5,6.1,2.6c3.3,0.2,4.3-0.5,4.3-1.3c0.1-1.7-0.2-3.5-0.7-5.2c-0.8-2.1-2-4.4-3.1-5.2
			C58.8,459.2,57.9,458.9,56.9,459.4z"/>
		<path class="st90" d="M59.2,457.6c-0.3-0.8-0.5-1.7-0.6-2.6c0-0.4,1.9-3.8,2.1-5.1c0.2-2.2,0-4.5-0.6-6.7c-0.7-1.9-2-4.4-3.2-4.4
			c-1.2-0.1-4,1.1-6.2,2.5s-3.3,2.9-3.8,5.3c-0.4,2.4-0.1,4.3,0.9,5.6c1.3,1.7,3.3,2.7,5.4,2.9c2.2,0.2,3.1,1,3.3,1.6
			c0.2,1.2-0.5,2.3-1.6,2.6c-1.8,0.7-4.6,3.8-4,6.8c1.1,5.2,5.5,7.8,10.7,7.6c2.8-0.2,4-0.6,4.4-1.7c0.5-2.4,0.2-4.9-0.7-7.1
			C64.2,462.3,62.4,458.4,59.2,457.6z"/>
		<path class="st91" d="M56.4,454.2c-1.3,0.1-2.5,0-3.8-0.3c-2.9-1.2-4.9-3.7-4.1-7c0.5-2.2,2.5-4.2,4.4-5.3c3-1.8,4.3-1.6,4.7-0.8
			c0.9,1.6,1.5,3.3,1.8,5.1c0.3,2.3,0.3,5.1-0.4,6.3C58.2,453.4,57.6,454.2,56.4,454.2z"/>
		<path class="st91" d="M57.7,459.6c-1.2,0.5-2.2,1.2-3.2,2c-0.8,0.9-2.2,2.6-2,4.6c0.1,1.3,0.6,2.5,1.4,3.5c1.7,1.6,4,2.6,6.4,2.7
			c3.5,0.2,4.5-0.6,4.5-1.4c0.1-1.8-0.2-3.6-0.7-5.4c-0.8-2.2-2-4.6-3.3-5.4S58.8,459.1,57.7,459.6z"/>
		<path class="st0" d="M23.6,449.7c0,0-9,13-8.1,16.5c1,3.5,14.1,10.1,14.1,10.1"/>
		<circle class="st92" cx="12.8" cy="466.9" r="2.6"/>
	</g>
</g>
</svg>
