<?xml version="1.0" encoding="utf-8"?>
<!-- Generator: Adobe Illustrator 16.0.4, SVG Export Plug-In . SVG Version: 6.00 Build 0)  -->
<!DOCTYPE svg PUBLIC "-//W3C//DTD SVG 1.1//EN" "http://www.w3.org/Graphics/SVG/1.1/DTD/svg11.dtd">
<svg version="1.1" id="Layer_1" xmlns="http://www.w3.org/2000/svg" xmlns:xlink="http://www.w3.org/1999/xlink" x="0px" y="0px"
	 width="170px" height="170px" viewBox="0 0 170 170" enable-background="new 0 0 170 170" xml:space="preserve">
<title>Artboard 9</title>
<g>
	<path fill="#D8B6C9" d="M162.1,56.708c1.727-0.588,2.614-2.632,2.438-4.449c-0.178-1.816-1.174-3.44-2.214-4.939
		c-0.636-0.917-1.305-1.808-1.992-2.686c-1.703,1.108-3.09,2.696-3.828,4.585c-0.562,1.433-0.715,3.02-0.484,4.541
		c0.242,0.272,0.486,0.545,0.735,0.807C158.152,56.042,160.177,57.361,162.1,56.708z"/>
	<path fill="#501939" d="M161.028,50.198c-0.148-0.265-0.247-0.613-0.062-0.853c0.143-0.187,0.417-0.233,0.641-0.161
		c0.225,0.073,0.405,0.242,0.555,0.423c0.455,0.548,0.712,1.257,0.713,1.971C162.104,51.401,161.416,50.887,161.028,50.198z"/>
	<path fill="#C37F9A" d="M162.323,47.32c-3.764-5.426-8.45-10.21-13.803-14.077c-1.867-1.35-4.032-2.286-6.325-2.521
		c-6.566-0.676-8.499,4.555-9.507,9.241c-0.841,3.906,0.035,7.176,0.185,10.48c0.424,9.347-5.593,18.439-13.736,23.05
		c-13.021,7.37-30.682,3.334-42.791,12.122c-5.082,3.689-8.493,9.205-12.95,13.631c-8.211,8.152-19.17,14.765-30.675,13.529
		c-9.327-0.999-18.863-7.141-25.493-14.604c-0.396-0.445-1.092,0.085-0.766,0.583c7.066,10.82,18.043,19.007,30.125,23.795
		c9.283,3.678,19.182,5.468,29.178,5.946c-0.035,4.188,0.979,8.539,2.329,12.524c0.611,1.805,1.281,3.59,1.812,5.421
		c1.473,5.077,1.892,11.989,1.114,17.218c3.664,3.69,9.3,4.18,14.466,3.572c2.894-0.339,5.96-1.87,7.289-4.462
		c-2.145-1.382-4.875-1.312-7.421-1.239c-2.548,0.074-5.939,0.119-7.982-1.402c-1.847-5.089-0.163-10.829,2.56-15.51
		c2.722-4.679,6.437-8.723,9.144-13.409c0.743-1.29,1.402-2.661,1.934-4.076c5.841-0.976,11.56-2.556,16.84-5.197
		c6.282-3.142,11.72-7.703,16.261-13.079c0.284,0.553,0.618,1.078,1.026,1.559c0.557,0.658,1.239,1.23,1.636,1.998
		c0.594,1.149-0.293,2.889-0.802,4.078c-0.511,1.189-1.339,2.209-2.118,3.243c-0.777,1.035-2.284,3.005-1.838,3.39
		c0.447,0.581,1.973-1.051,2.67-1.917c0.695-0.867,1.208-1.866,1.715-2.856c-0.565,1.704-1.132,3.408-1.698,5.113
		c-0.19,0.577-0.487,1.318,0.063,1.537c0.883,0.489,2.333-4.333,3.142-6.663c-0.313,1.915-0.628,3.831-0.941,5.746
		c-0.062,0.38-0.123,0.775-0.006,1.142s0.439,0.839,0.853,0.623c0.633-0.328,1.321-5.31,1.693-8.024
		c0.191-1.39,0.38-2.823,0.003-4.174c-0.354-1.278-1.182-2.365-1.816-3.528c-0.677-1.237-1.122-2.579-1.431-3.955
		c2.358-3.127,4.438-6.474,6.219-9.945c5.507-10.741,8.392-22.641,10.281-34.56c0.51-3.204,0.996-6.546,3.229-9.042
		c1.054-1.176,2.476-2.011,4.045-2.172c3.242-0.332,4.866,2.163,6.722,4.121c1.607,1.695,4.047,3.188,6.206,1.704
		c0.845-0.583,1.377-1.541,1.536-2.557C164.875,51.295,163.632,49.209,162.323,47.32z"/>
	<path fill="#A4648B" d="M98.856,158.139c-2.549,0.072-5.938,0.121-7.982-1.403c-1.847-5.089-0.162-10.829,2.561-15.508
		c2.721-4.68,6.436-8.722,9.142-13.412c0.805-1.396,1.513-2.886,2.065-4.425c-0.096,0.04-0.194,0.069-0.29,0.108
		c-0.738,0.297-1.481,0.582-2.232,0.845c-0.09,0.032-0.182,0.068-0.273,0.101c-0.833,0.288-1.673,0.554-2.518,0.802
		c-0.254,0.074-0.512,0.143-0.766,0.215c-0.595,0.166-1.188,0.324-1.787,0.474c-0.317,0.08-0.635,0.157-0.955,0.232
		c-0.584,0.137-2.325,0.511-2.607,0.565c-0.732,0.142-1.468,0.276-2.205,0.399c-0.531,1.415-1.19,2.786-1.934,4.076
		c-1.894,3.281-4.277,6.246-6.473,9.336c0.285,0.829,0.563,1.661,0.807,2.503c1.473,5.079,1.891,11.99,1.115,17.22
		c0.462,0.466,0.957,0.879,1.475,1.245c2.358-0.056,4.813-0.008,6.776,1.257c-0.188,0.366-0.42,0.706-0.673,1.031
		c2.251,0.339,4.61,0.308,6.887,0.041c2.894-0.34,5.961-1.872,7.289-4.465C104.136,157.996,101.404,158.064,98.856,158.139z"/>
	<g>
		<path fill="#D8B6C9" d="M65.764,128.495c0.009-1.02,0.08-2.033,0.225-3.026c-4.507,0.737-9.05,1.25-13.608,1.532
			C56.791,127.802,61.268,128.278,65.764,128.495z"/>
		<path fill="#D8B6C9" d="M157.062,52.114c-2.652-3.655-4.136-7.58-8.759-7.366c-1.77,0.083-3.303,1.365-4.174,2.901
			c-0.872,1.539-1.2,3.316-1.512,5.057c-2.745,15.357-5.53,31.54-15.395,43.625c-0.499,0.61-1.035,1.188-1.563,1.77
			c-0.023,1.766-0.024,3.532,0.146,5.288c0.089,0.932,0.246,1.861,0.454,2.776c2.358-3.127,4.438-6.474,6.219-9.945
			c5.507-10.741,8.392-22.641,10.281-34.56c0.435-2.733,0.853-5.568,2.353-7.893c1.503-2.323,4.432-3.982,7.055-3.101
			c1.925,0.646,3.191,2.426,4.588,3.9c1.189,1.255,2.835,2.394,4.484,2.303C160.249,56.222,158.139,53.597,157.062,52.114z"/>
		<path fill="#D8B6C9" d="M122.558,103.015c-0.075-0.522-0.138-1.053-0.186-1.582c-5.318,4.854-11.638,8.641-18.129,11.83
			c-3.923,1.929-7.941,3.661-12.032,5.201c0.389,2.873-0.146,5.856-1.203,8.668c5.841-0.976,11.56-2.556,16.84-5.197
			c6.282-3.142,11.72-7.703,16.261-13.079C123.2,107.085,122.843,105.013,122.558,103.015z"/>
	</g>
	<path fill="#F76F00" d="M137.815,31.342c4.187-1.976,9.073,0.543,12.706,3.414c3.947,3.122,7.489,6.754,10.513,10.78
		c0.722,0.69,1.187,2.003,1.841,2.872c-4.693-9.185-11.902-18.107-21.146-21.931c-4.806-1.987-10-3.013-15.198-3.045
		c-1.47-0.009-13.099,0.256-9.307,3.785c0.805,0.748,2.012,0.796,3.11,0.851c2.819,0.14,5.673,0.612,8.193,1.883
		c2.432,1.226,4.522,3.276,5.415,5.841C134.758,33.88,135.948,32.222,137.815,31.342z"/>
	<g opacity="0.16">
		<path fill="#FFFFFF" d="M126.53,25.06c5.198,0.032,10.393,1.058,15.198,3.045c6.142,2.541,11.378,7.337,15.584,12.961
			c1.312,1.427,2.557,2.919,3.722,4.471c0.722,0.69,1.187,2.003,1.841,2.872c-4.693-9.185-11.902-18.107-21.146-21.931
			c-4.806-1.987-10-3.013-15.198-3.045c-1.408-0.009-12.146,0.237-9.691,3.365C118.521,25.203,125.422,25.053,126.53,25.06z"/>
	</g>
	<circle fill="#FFFFFF" cx="143.792" cy="39.129" r="4.005"/>
	<circle fill="#501939" cx="143.792" cy="39.129" r="3.005"/>
	<circle fill="#FFFFFF" cx="141.847" cy="37.547" r="1.06"/>
	<path fill="#885274" d="M63.396,99.246c4.458-4.426,7.868-9.941,12.95-13.631c12.11-8.787,29.771-4.751,42.791-12.122
		c7.331-4.149,12.704-11.475,13.784-19.811c-1.518,7.289-6.785,13.345-13.479,16.621c-10.552,5.166-23.36,2.227-34.583,5.7
		c-9.51,2.942-17.032,10.217-23.388,17.876c-4.342,5.23-8.498,10.904-14.42,14.245c-6.923,3.904-14.327,4.65-21.167,3.045
		c2.261,0.805,4.554,1.363,6.836,1.605C44.225,114.011,55.184,107.398,63.396,99.246z"/>
	<g opacity="0.1">
		<path fill="#FFFFFF" d="M44.709,111.389c0.785-0.358,1.566-0.749,2.341-1.188c5.922-3.339,10.078-9.013,14.42-14.244
			c6.356-7.658,13.878-14.933,23.388-17.876c11.223-3.473,24.031-0.535,34.583-5.7c3.197-1.565,6.453-4.219,8.684-6.992
			c2.637-3.688,3.945-7.665,4.526-12.157c-1.518,7.288-6.516,13.795-13.21,17.071c-10.552,5.166-23.36,2.227-34.583,5.7
			c-9.51,2.942-17.032,10.217-23.388,17.876c-4.342,5.23-8.498,10.904-14.42,14.245c-6.923,3.904-14.327,4.65-21.167,3.045
			c2.261,0.805,4.554,1.363,6.836,1.605C36.82,113.217,40.849,112.656,44.709,111.389z"/>
	</g>
	<g>
		<path fill="#FF9027" d="M104.951,78.09c-1.39,0.227-2.79,0.428-4.192,0.619c1.11,3.896,2.902,7.596,5.28,10.876
			c0.849,1.169,1.877,2.356,3.288,2.676C107.134,87.807,105.656,83.003,104.951,78.09z"/>
		<path fill="#FF9027" d="M75.258,86.617c1.789,4.838,4.667,9.272,8.399,12.833c0.188-5.449-1.921-10.675-4.046-15.706
			c-1.125,0.584-2.217,1.244-3.266,2.004C75.97,86.022,75.619,86.325,75.258,86.617z"/>
		<path fill="#FF9027" d="M91.693,95.409c-0.763-4.73-2.371-14.686-2.418-14.934c-1.706,0.359-3.379,0.792-5.005,1.329
			C84.936,87.048,87.6,92.048,91.693,95.409z"/>
		<path fill="#FF9027" d="M67.918,94.323c1.158,2.175,2.566,4.218,4.198,6.063c1.184,1.337,2.607,2.639,4.375,2.887
			c-2.434-3.816-4.357-7.954-5.731-12.269C69.796,92.092,68.856,93.206,67.918,94.323z"/>
		<path fill="#FF9027" d="M95.613,86.807c0.886,2.678,2.286,5.245,4.401,7.111c-0.991-4.904-1.983-9.809-2.976-14.713
			c-0.99,0.133-1.979,0.272-2.962,0.42C94.437,82.054,94.844,84.48,95.613,86.807z"/>
		<path fill="#FF9027" d="M114.144,86.678c-0.662-3.392-1.324-6.782-1.987-10.171c-1.398,0.41-2.825,0.752-4.27,1.046
			C109.972,80.595,112.058,83.635,114.144,86.678z"/>
		<path fill="#FF9027" d="M130.233,64.767c1.851,0.598,3.93,1.183,5.671,0.319c-2.11-0.465-4.107-1.401-5.838-2.694
			c-0.346,0.651-0.728,1.283-1.126,1.905C129.361,64.479,129.802,64.629,130.233,64.767z"/>
		<path fill="#FF9027" d="M115.467,75.375c2.068,2.419,4.135,4.839,6.203,7.258c-0.645-3.025-1.668-5.965-3.004-8.755
			C117.626,74.441,116.56,74.939,115.467,75.375z"/>
		<path fill="#FF9027" d="M137.533,58.958c-2.027,0.003-4.013-1.056-5.188-2.701c-0.163,0.723-0.362,1.438-0.593,2.144
			C133.55,59.212,135.615,59.42,137.533,58.958z"/>
		<path fill="#FF9027" d="M127.416,66.451c-0.517,0.664-1.066,1.304-1.642,1.92c0.468,0.722,1.19,1.286,1.891,1.812
			c1.554,1.168,3.327,2.398,5.256,2.15C130.602,70.913,128.691,68.851,127.416,66.451z"/>
		<path fill="#FF9027" d="M121.044,72.425c1.979,1.759,4.188,3.259,6.567,4.417c-1.558-2.03-2.778-4.319-3.607-6.743
			C123.066,70.941,122.079,71.72,121.044,72.425z"/>
	</g>
	<g>
		<path fill="#E0C4F5" d="M138.326,81.498c0.108-0.352,0.219-0.704,0.324-1.057c-0.818-0.148-1.623-0.377-2.403-0.675
			c-0.075,0.211-0.322,0.898-0.371,1.03C136.671,81.101,137.492,81.337,138.326,81.498z"/>
		<path fill="#E0C4F5" d="M133.406,94.271c0.163-0.342,0.331-0.683,0.488-1.027c-1.25-0.139-2.477-0.579-3.526-1.274
			c-0.175,0.271-0.359,0.538-0.542,0.806c-0.019,0.031-0.041,0.061-0.06,0.092C130.857,93.59,132.111,94.07,133.406,94.271z"/>
		<path fill="#E0C4F5" d="M138.174,73.723c-0.102,0.354-0.203,0.707-0.307,1.061c0.689,0.291,1.403,0.525,2.134,0.699
			c0.02-0.08,0.041-0.157,0.062-0.237c0.042-0.177,0.171-0.725,0.196-0.823C139.543,74.25,138.844,74.017,138.174,73.723z"/>
		<path fill="#E0C4F5" d="M133.874,85.556c-0.101,0.217-0.407,0.893-0.463,1.011c0.872,0.522,1.812,0.935,2.787,1.239
			c0.129-0.34,0.238-0.686,0.363-1.026C135.617,86.487,134.714,86.072,133.874,85.556z"/>
		<path fill="#E0C4F5" d="M141.483,68.771c0.07-0.359,0.143-0.718,0.211-1.077c-0.641-0.119-1.266-0.309-1.859-0.576l-0.255,1.086
			C140.191,68.462,140.83,68.651,141.483,68.771z"/>
		<path fill="#E0C4F5" d="M98.319,115.996c0,0-0.728,0.307-1.049,0.443c0.355,3.021,1.448,5.947,3.18,8.457
			c0.364-0.115,0.73-0.228,1.091-0.351C99.737,122.041,98.625,119.062,98.319,115.996z"/>
		<path fill="#E0C4F5" d="M125.697,101.448c0.796,0.706,1.661,1.332,2.598,1.845c0.202-0.304,0.399-0.609,0.598-0.916
			c-1.199-0.65-2.29-1.485-3.233-2.471C125.662,100.421,125.678,100.935,125.697,101.448z"/>
		<path fill="#E0C4F5" d="M109.828,120.872c0.252-0.144,0.501-0.291,0.751-0.437c-2.162-2.265-3.664-5.129-4.33-8.183
			c-0.335,0.172-0.67,0.342-1.008,0.509c0.719,3.059,2.229,5.922,4.364,8.229C109.679,120.951,109.755,120.913,109.828,120.872z"/>
		<path fill="#E0C4F5" d="M141.09,61.042l-0.213,1.084c0.564,0.205,1.133,0.392,1.71,0.554c0.055-0.341,0.181-1.067,0.184-1.091
			C142.204,61.427,141.643,61.248,141.09,61.042z"/>
		<path fill="#E0C4F5" d="M113.926,107.856c-0.034,0.021-0.75,0.474-0.939,0.591c1.063,2.583,2.739,4.921,4.844,6.76
			c0.24-0.208,0.487-0.408,0.725-0.62c0.029-0.027,0.059-0.052,0.09-0.077l0.021-0.021
			C116.584,112.705,114.939,110.401,113.926,107.856z"/>
		<path fill="#E0C4F5" d="M124.108,108.855c-0.17-0.331-0.305-0.682-0.438-1.032c-1.473-1.214-2.753-2.659-3.738-4.295
			c-0.284,0.23-0.571,0.459-0.858,0.685c1.206,1.969,2.799,3.697,4.659,5.067C123.856,109.137,123.986,109,124.108,108.855z"/>
	</g>
	<path fill="#C37F9A" d="M131.12,98.724c0.79,0.624,1.65,1.142,2.608,1.471c0.817,0.281,1.695,0.423,2.429,0.879
		c1.1,0.684,1.226,2.633,1.398,3.916c0.169,1.283-0.021,2.582-0.159,3.868c-0.14,1.288-0.427,3.752,0.155,3.854
		c0.679,0.27,1.156-1.911,1.312-3.014c0.154-1.102,0.082-2.222,0.011-3.332c0.388,1.754,0.772,3.509,1.16,5.265
		c0.13,0.592,0.254,1.38,0.84,1.288c1.007-0.033-0.213-4.918-0.711-7.333c0.711,1.807,1.422,3.612,2.133,5.418
		c0.141,0.358,0.291,0.73,0.578,0.984s0.807,0.495,1.052,0.099c0.377-0.604-1.582-5.239-2.651-7.761
		c-0.545-1.291-1.119-2.619-2.132-3.588c-0.961-0.918-2.227-1.426-3.368-2.101c-1.192-0.706-2.245-1.612-3.204-2.614
		c-0.033,0.063-0.061,0.132-0.093,0.198C132.045,97.063,131.588,97.896,131.12,98.724z"/>
	<g>
		<g opacity="0.24">
			<path fill="#A4648B" d="M6.64,98.409c-0.131-0.168-0.388,0.017-0.271,0.195c7.062,10.895,18.082,19.135,30.218,23.944
				c9.263,3.669,19.137,5.467,29.111,5.951c0.062-0.76,0.296-3.021,0.292-4.038c-9.717-0.272-18.931-1.935-28.169-4.899
				C25.683,115.668,14.398,108.432,6.64,98.409z"/>
		</g>
		<g opacity="0.24">
			<path fill="#A4648B" d="M122.836,104.751c-8.514,8.295-18.98,13.895-30.682,16.94c-0.025,1.799-0.308,3.64-0.859,5.38
				c5.742-0.977,11.359-2.537,16.553-5.137c6.282-3.142,11.72-7.703,16.261-13.079C123.462,107.596,123.096,106.182,122.836,104.751
				z"/>
		</g>
		<g opacity="0.24">
			<path fill="#A4648B" d="M132.57,92.722c-2.077,3.286-4.383,6.29-6.875,9.05c0.024,0.539,0.057,1.079,0.109,1.618
				c0.089,0.932,0.246,1.861,0.454,2.776c2.358-3.127,4.438-6.474,6.219-9.945c3.57-6.967,5.612-14.362,7.845-21.824
				C138.496,80.499,135.873,87.5,132.57,92.722z"/>
		</g>
	</g>
	<g>
		<path fill="#501939" d="M155.83,50.044c-0.577-0.845-1.002-1.385-1.002-1.385s0.248,0.642,0.681,1.569
			c0.109,0.23,0.23,0.48,0.358,0.743c0.036,0.083,0.09,0.163,0.138,0.243c0.032-0.243,0.07-0.483,0.123-0.722
			C156.026,50.34,155.923,50.183,155.83,50.044z"/>
		<path fill="#501939" d="M159.924,55.184c-0.217-0.191-0.39-0.448-0.601-0.682c-0.413-0.476-0.853-0.983-1.306-1.478
			c-0.389-0.542-0.792-1.073-1.179-1.569c-0.189-0.253-0.396-0.474-0.552-0.725c-0.056-0.084-0.104-0.158-0.159-0.24
			c-0.053,0.238-0.091,0.479-0.123,0.722c0.109,0.179,0.232,0.357,0.35,0.547c0.358,0.538,0.75,1.111,1.155,1.672
			c0.453,0.517,0.922,1.023,1.359,1.497c0.227,0.228,0.421,0.475,0.653,0.659c0.229,0.188,0.443,0.367,0.643,0.531
			c0.394,0.316,0.724,0.572,0.962,0.754c0.138-0.003,0.275-0.016,0.414-0.036c-0.182-0.197-0.549-0.587-1.039-1.083
			C160.324,55.579,160.13,55.387,159.924,55.184z"/>
	</g>
	<path fill="#D8B6C9" d="M96.455,164.035c-0.637-0.925-0.15-2.343,0.852-2.85c1.004-0.506,2.296-0.178,3.097,0.61
		c0.563,0.557,0.917,1.32,0.979,2.107C99.755,164.166,98.094,164.21,96.455,164.035z"/>
	<path fill="#D8B6C9" d="M99.749,163.15c-0.638-0.925-0.15-2.344,0.852-2.851c1.002-0.506,2.295-0.178,3.095,0.61
		c0.564,0.556,0.919,1.318,0.979,2.11C103.049,163.281,101.387,163.327,99.749,163.15z"/>
	<path fill="#D8B6C9" d="M102.354,161.551c-0.637-0.925-0.15-2.344,0.854-2.848c1.001-0.509,2.296-0.181,3.094,0.609
		c0.564,0.556,0.92,1.319,0.98,2.108C105.655,161.682,103.993,161.728,102.354,161.551z"/>
	<path fill="#D8B6C9" d="M83.45,167.428c-0.637-0.926-0.15-2.346,0.853-2.852c1.002-0.506,2.294-0.178,3.095,0.611
		c0.562,0.555,0.917,1.317,0.978,2.108C86.751,167.558,85.088,167.603,83.45,167.428z"/>
	<path fill="#D8B6C9" d="M86.744,166.542c-0.637-0.926-0.15-2.345,0.853-2.851c1.001-0.506,2.295-0.178,3.094,0.61
		c0.563,0.558,0.919,1.32,0.979,2.107C90.043,166.673,88.381,166.716,86.744,166.542z"/>
	<path fill="#D8B6C9" d="M89.35,164.943c-0.637-0.925-0.15-2.345,0.853-2.852c1.003-0.506,2.295-0.178,3.096,0.61
		c0.564,0.558,0.918,1.32,0.978,2.11C92.649,165.074,90.989,165.119,89.35,164.943z"/>
</g>
</svg>
