<?xml version="1.0" encoding="utf-8"?>
<!-- Generator: Adobe Illustrator 16.0.4, SVG Export Plug-In . SVG Version: 6.00 Build 0)  -->
<!DOCTYPE svg PUBLIC "-//W3C//DTD SVG 1.1//EN" "http://www.w3.org/Graphics/SVG/1.1/DTD/svg11.dtd">
<svg version="1.1" id="Layer_1" xmlns="http://www.w3.org/2000/svg" xmlns:xlink="http://www.w3.org/1999/xlink" x="0px" y="0px"
	 width="170px" height="170px" viewBox="0 0 170 170" enable-background="new 0 0 170 170" xml:space="preserve">
<title>Artboard 9</title>
<g>
	<path fill="#D8B6C9" d="M162.1,38.283c1.728-0.558,2.614-2.499,2.438-4.225c-0.179-1.725-1.174-3.267-2.214-4.69
		c-0.637-0.871-1.305-1.717-1.992-2.551c-1.703,1.053-3.09,2.561-3.828,4.354c-0.562,1.361-0.715,2.869-0.484,4.312
		c0.242,0.259,0.486,0.519,0.735,0.767C158.152,37.65,160.177,38.903,162.1,38.283z"/>
	<path fill="#501939" d="M161.027,32.101c-0.147-0.251-0.246-0.582-0.062-0.81c0.144-0.178,0.417-0.222,0.642-0.153
		s0.404,0.229,0.555,0.402c0.455,0.52,0.712,1.194,0.713,1.872C162.104,33.243,161.416,32.755,161.027,32.101z"/>
	<path fill="#C37F9A" d="M162.323,29.367c-3.765-5.153-8.45-9.696-13.804-13.368c-1.867-1.282-4.031-2.171-6.324-2.395
		c-6.566-0.642-8.5,4.325-9.508,8.776c-0.84,3.71,0.035,6.815,0.186,9.953c0.424,8.877-5.594,17.511-13.736,21.891
		c-13.021,6.999-30.682,3.166-42.791,11.512c-5.082,3.504-8.493,8.742-12.95,12.945c-8.211,7.743-19.17,14.022-30.675,12.85
		c-9.327-0.949-18.863-6.782-25.493-13.87c-0.396-0.422-1.092,0.08-0.766,0.554c7.066,10.275,18.043,18.051,30.125,22.598
		c9.283,3.492,19.182,5.193,29.178,5.647c-0.035,3.978,0.979,8.11,2.329,11.895c0.611,1.714,1.281,3.409,1.812,5.147
		c1.473,4.822,1.892,11.387,1.114,16.353c3.664,3.503,9.3,3.97,14.466,3.392c2.894-0.322,5.959-1.776,7.29-4.238
		c-2.146-1.312-4.875-1.245-7.421-1.176c-2.548,0.07-5.939,0.113-7.982-1.332c-1.847-4.833-0.163-10.284,2.56-14.729
		c2.722-4.445,6.437-8.284,9.144-12.735c0.742-1.225,1.402-2.526,1.934-3.871c5.842-0.926,11.561-2.427,16.84-4.935
		c6.282-2.984,11.721-7.316,16.262-12.423c0.283,0.526,0.617,1.024,1.025,1.482c0.557,0.624,1.239,1.167,1.637,1.897
		c0.594,1.092-0.293,2.742-0.803,3.872c-0.511,1.129-1.339,2.098-2.117,3.08c-0.777,0.983-2.285,2.854-1.838,3.219
		c0.446,0.553,1.973-0.997,2.67-1.82c0.694-0.823,1.207-1.771,1.715-2.711c-0.565,1.616-1.133,3.235-1.698,4.854
		c-0.19,0.548-0.487,1.252,0.063,1.46c0.883,0.465,2.332-4.115,3.142-6.328c-0.313,1.818-0.628,3.639-0.941,5.458
		c-0.062,0.359-0.123,0.735-0.006,1.084c0.117,0.348,0.438,0.796,0.853,0.592c0.633-0.312,1.321-5.043,1.693-7.621
		c0.191-1.318,0.381-2.681,0.003-3.964c-0.354-1.213-1.182-2.246-1.815-3.351c-0.678-1.175-1.123-2.449-1.432-3.756
		c2.358-2.97,4.438-6.149,6.219-9.444c5.508-10.201,8.393-21.502,10.281-32.822c0.51-3.043,0.996-6.217,3.229-8.587
		c1.054-1.117,2.476-1.91,4.045-2.062c3.241-0.316,4.866,2.054,6.722,3.913c1.607,1.61,4.047,3.028,6.206,1.619
		c0.845-0.554,1.377-1.464,1.536-2.429C164.875,33.143,163.632,31.162,162.323,29.367z"/>
	<path fill="#A4648B" d="M98.855,134.611c-2.549,0.068-5.938,0.114-7.981-1.332c-1.847-4.834-0.162-10.284,2.562-14.728
		c2.721-4.445,6.436-8.284,9.142-12.737c0.805-1.326,1.513-2.741,2.065-4.203c-0.097,0.039-0.194,0.065-0.291,0.103
		c-0.738,0.282-1.48,0.554-2.231,0.803c-0.091,0.03-0.183,0.064-0.272,0.097c-0.834,0.272-1.674,0.526-2.519,0.761
		c-0.254,0.07-0.513,0.136-0.767,0.204c-0.595,0.157-1.188,0.308-1.787,0.45c-0.316,0.076-0.635,0.149-0.955,0.221
		c-0.584,0.129-2.324,0.486-2.606,0.536c-0.731,0.136-1.468,0.263-2.205,0.379c-0.53,1.345-1.19,2.646-1.934,3.871
		c-1.894,3.116-4.277,5.932-6.473,8.867c0.285,0.786,0.563,1.576,0.807,2.376c1.473,4.824,1.891,11.387,1.115,16.355
		c0.462,0.44,0.957,0.834,1.475,1.181c2.358-0.053,4.813-0.007,6.776,1.194c-0.188,0.348-0.42,0.67-0.674,0.979
		c2.252,0.322,4.61,0.292,6.887,0.039c2.895-0.322,5.962-1.778,7.289-4.24C104.137,134.477,101.404,134.54,98.855,134.611z"/>
	<g>
		<path fill="#D8B6C9" d="M65.764,106.459c0.009-0.969,0.08-1.932,0.225-2.874c-4.507,0.7-9.05,1.188-13.608,1.455
			C56.791,105.801,61.268,106.252,65.764,106.459z"/>
		<path fill="#D8B6C9" d="M157.062,33.92c-2.652-3.472-4.137-7.199-8.76-6.996c-1.77,0.079-3.303,1.296-4.174,2.755
			c-0.872,1.461-1.199,3.148-1.512,4.802c-2.745,14.584-5.53,29.953-15.395,41.431c-0.5,0.579-1.035,1.129-1.563,1.681
			c-0.022,1.678-0.024,3.354,0.146,5.021c0.09,0.886,0.246,1.768,0.454,2.637c2.358-2.97,4.438-6.148,6.22-9.445
			c5.506-10.2,8.392-21.501,10.28-32.82c0.435-2.596,0.853-5.289,2.353-7.496c1.504-2.207,4.433-3.782,7.056-2.945
			c1.925,0.613,3.19,2.304,4.588,3.704c1.188,1.191,2.835,2.273,4.483,2.187C160.249,37.822,158.139,35.329,157.062,33.92z"/>
		<path fill="#D8B6C9" d="M122.559,82.262c-0.076-0.496-0.139-1.002-0.187-1.503c-5.317,4.609-11.638,8.206-18.129,11.235
			c-3.923,1.83-7.941,3.476-12.032,4.938c0.389,2.729-0.146,5.561-1.203,8.231c5.842-0.926,11.561-2.427,16.84-4.935
			c6.282-2.984,11.721-7.316,16.262-12.423C123.2,86.126,122.843,84.159,122.559,82.262z"/>
	</g>
	<path fill="#F76F00" d="M137.814,14.193c4.188-1.876,9.074,0.516,12.707,3.242c3.946,2.965,7.488,6.414,10.513,10.238
		c0.722,0.656,1.187,1.902,1.841,2.728c-4.693-8.723-11.902-17.196-21.146-20.828c-4.806-1.887-10-2.862-15.197-2.892
		c-1.471-0.009-13.1,0.243-9.307,3.594c0.805,0.71,2.012,0.756,3.109,0.809c2.818,0.133,5.673,0.581,8.193,1.788
		c2.432,1.164,4.521,3.111,5.414,5.547C134.758,16.604,135.948,15.029,137.814,14.193z"/>
	<g opacity="0.16">
		<path fill="#FFFFFF" d="M126.529,8.227c5.199,0.03,10.394,1.005,15.199,2.892c6.142,2.413,11.377,6.968,15.584,12.309
			c1.312,1.355,2.557,2.772,3.722,4.246c0.722,0.655,1.187,1.902,1.841,2.728c-4.693-8.723-11.902-17.197-21.146-20.828
			c-4.806-1.887-10-2.861-15.197-2.892c-1.408-0.009-12.146,0.225-9.691,3.195C118.521,8.363,125.422,8.22,126.529,8.227z"/>
	</g>
	<ellipse fill="#FFFFFF" cx="143.792" cy="21.588" rx="4.005" ry="3.803"/>
	<ellipse fill="#501939" cx="143.792" cy="21.588" rx="3.005" ry="2.854"/>
	<ellipse fill="#FFFFFF" cx="141.848" cy="20.086" rx="1.06" ry="1.007"/>
	<path fill="#885274" d="M63.396,78.681c4.458-4.203,7.868-9.441,12.95-12.945c12.11-8.345,29.771-4.512,42.791-11.512
		c7.331-3.941,12.704-10.898,13.784-18.815c-1.519,6.922-6.784,12.673-13.479,15.785c-10.551,4.906-23.359,2.115-34.583,5.413
		c-9.51,2.793-17.032,9.703-23.388,16.977c-4.342,4.967-8.498,10.355-14.42,13.528c-6.923,3.707-14.327,4.416-21.167,2.892
		c2.261,0.766,4.554,1.296,6.836,1.524C44.225,92.703,55.184,86.424,63.396,78.681z"/>
	<g opacity="0.1">
		<path fill="#FFFFFF" d="M44.709,90.213c0.785-0.339,1.566-0.711,2.341-1.128c5.922-3.172,10.078-8.56,14.42-13.528
			c6.356-7.272,13.878-14.181,23.388-16.976c11.223-3.298,24.031-0.508,34.583-5.414c3.197-1.486,6.453-4.006,8.684-6.64
			c2.637-3.502,3.945-7.279,4.525-11.545c-1.518,6.921-6.516,13.101-13.209,16.212c-10.553,4.906-23.36,2.115-34.583,5.413
			c-9.51,2.793-17.032,9.703-23.388,16.977c-4.342,4.967-8.498,10.355-14.42,13.528c-6.923,3.707-14.327,4.416-21.167,2.892
			c2.261,0.766,4.554,1.296,6.836,1.524C36.82,91.949,40.849,91.417,44.709,90.213z"/>
	</g>
	<g>
		<path fill="#FF9027" d="M104.951,58.589c-1.391,0.216-2.79,0.407-4.192,0.589c1.11,3.7,2.902,7.213,5.28,10.328
			c0.85,1.11,1.877,2.238,3.288,2.542C107.134,67.817,105.656,63.255,104.951,58.589z"/>
		<path fill="#FF9027" d="M75.258,66.688c1.789,4.595,4.667,8.806,8.399,12.188c0.188-5.175-1.921-10.138-4.046-14.916
			c-1.125,0.555-2.217,1.181-3.266,1.903C75.97,66.122,75.619,66.411,75.258,66.688z"/>
		<path fill="#FF9027" d="M91.693,75.037c-0.764-4.492-2.371-13.947-2.418-14.183c-1.707,0.341-3.379,0.752-5.005,1.262
			C84.936,67.097,87.6,71.845,91.693,75.037z"/>
		<path fill="#FF9027" d="M67.918,74.006c1.158,2.065,2.566,4.005,4.198,5.757c1.184,1.27,2.607,2.507,4.375,2.742
			c-2.434-3.625-4.357-7.555-5.731-11.652C69.796,71.887,68.856,72.945,67.918,74.006z"/>
		<path fill="#FF9027" d="M95.613,66.868c0.886,2.543,2.285,4.981,4.4,6.754c-0.99-4.658-1.982-9.316-2.976-13.973
			c-0.99,0.126-1.979,0.258-2.962,0.398C94.438,62.354,94.844,64.658,95.613,66.868z"/>
		<path fill="#FF9027" d="M114.145,66.746c-0.662-3.222-1.324-6.441-1.987-9.66c-1.398,0.39-2.825,0.714-4.271,0.993
			C109.973,60.968,112.059,63.855,114.145,66.746z"/>
		<path fill="#FF9027" d="M130.232,45.937c1.852,0.568,3.931,1.123,5.672,0.303c-2.11-0.442-4.107-1.331-5.838-2.558
			c-0.346,0.618-0.729,1.218-1.127,1.809C129.361,45.663,129.802,45.806,130.232,45.937z"/>
		<path fill="#FF9027" d="M115.467,56.011c2.068,2.298,4.135,4.596,6.203,6.893c-0.645-2.872-1.668-5.665-3.004-8.314
			C117.626,55.124,116.561,55.597,115.467,56.011z"/>
		<path fill="#FF9027" d="M137.533,40.42c-2.027,0.002-4.014-1.003-5.188-2.565c-0.164,0.687-0.363,1.365-0.594,2.036
			C133.55,40.661,135.615,40.858,137.533,40.42z"/>
		<path fill="#FF9027" d="M127.416,47.536c-0.518,0.631-1.066,1.238-1.643,1.824c0.469,0.685,1.19,1.221,1.892,1.721
			c1.554,1.109,3.327,2.277,5.256,2.042C130.602,51.773,128.691,49.815,127.416,47.536z"/>
		<path fill="#FF9027" d="M121.044,53.209c1.979,1.671,4.188,3.096,6.567,4.195c-1.559-1.928-2.778-4.102-3.607-6.404
			C123.066,51.8,122.079,52.54,121.044,53.209z"/>
	</g>
	<g>
		<path fill="#E0C4F5" d="M138.326,61.826c0.107-0.334,0.219-0.669,0.324-1.004c-0.818-0.141-1.623-0.358-2.403-0.641
			c-0.075,0.2-0.322,0.853-0.371,0.978C136.671,61.449,137.492,61.673,138.326,61.826z"/>
		<path fill="#E0C4F5" d="M133.406,73.958c0.162-0.325,0.33-0.65,0.488-0.977c-1.25-0.131-2.478-0.55-3.526-1.21
			c-0.175,0.258-0.359,0.511-0.542,0.765c-0.02,0.03-0.041,0.059-0.061,0.088C130.857,73.31,132.111,73.766,133.406,73.958z"/>
		<path fill="#E0C4F5" d="M138.174,54.442c-0.102,0.336-0.203,0.672-0.307,1.008c0.689,0.276,1.402,0.498,2.134,0.664
			c0.021-0.076,0.041-0.149,0.062-0.225c0.043-0.168,0.172-0.689,0.196-0.782C139.543,54.943,138.844,54.721,138.174,54.442z"/>
		<path fill="#E0C4F5" d="M133.874,65.68c-0.101,0.206-0.407,0.848-0.463,0.959c0.872,0.496,1.812,0.888,2.787,1.178
			c0.129-0.324,0.237-0.652,0.362-0.975C135.617,66.563,134.714,66.17,133.874,65.68z"/>
		<path fill="#E0C4F5" d="M141.482,49.739c0.07-0.341,0.144-0.682,0.211-1.023c-0.641-0.113-1.266-0.293-1.858-0.546l-0.255,1.031
			C140.191,49.446,140.83,49.625,141.482,49.739z"/>
		<path fill="#E0C4F5" d="M98.318,94.589c0,0-0.728,0.291-1.049,0.421c0.355,2.869,1.448,5.647,3.181,8.031
			c0.364-0.109,0.729-0.217,1.091-0.334C99.736,100.329,98.625,97.501,98.318,94.589z"/>
		<path fill="#E0C4F5" d="M125.697,80.773c0.796,0.67,1.66,1.265,2.598,1.751c0.202-0.288,0.398-0.579,0.598-0.869
			c-1.199-0.618-2.289-1.411-3.232-2.347C125.662,79.797,125.678,80.285,125.697,80.773z"/>
		<path fill="#E0C4F5" d="M109.828,99.22c0.252-0.137,0.501-0.276,0.751-0.415c-2.162-2.151-3.664-4.871-4.33-7.771
			c-0.335,0.163-0.67,0.324-1.008,0.482c0.719,2.906,2.229,5.625,4.364,7.816C109.68,99.295,109.755,99.259,109.828,99.22z"/>
		<path fill="#E0C4F5" d="M141.09,42.399l-0.213,1.029c0.564,0.195,1.133,0.373,1.71,0.526c0.056-0.324,0.181-1.013,0.185-1.036
			C142.204,42.765,141.643,42.595,141.09,42.399z"/>
		<path fill="#E0C4F5" d="M113.926,86.857c-0.033,0.021-0.75,0.451-0.939,0.562c1.063,2.453,2.74,4.674,4.845,6.42
			c0.239-0.197,0.487-0.388,0.726-0.59c0.028-0.024,0.059-0.049,0.09-0.073l0.021-0.019
			C116.584,91.463,114.939,89.274,113.926,86.857z"/>
		<path fill="#E0C4F5" d="M124.107,87.807c-0.17-0.314-0.305-0.647-0.438-0.98c-1.473-1.152-2.753-2.524-3.738-4.079
			c-0.283,0.219-0.57,0.436-0.857,0.651c1.205,1.869,2.799,3.512,4.658,4.812C123.855,88.074,123.986,87.944,124.107,87.807z"/>
	</g>
	<path fill="#C37F9A" d="M131.12,78.186c0.79,0.593,1.649,1.085,2.608,1.397c0.816,0.267,1.694,0.401,2.429,0.834
		c1.1,0.649,1.226,2.501,1.397,3.719c0.17,1.22-0.021,2.453-0.158,3.673c-0.141,1.225-0.428,3.564,0.154,3.661
		c0.68,0.257,1.156-1.815,1.312-2.861c0.154-1.048,0.082-2.11,0.011-3.165c0.388,1.666,0.772,3.332,1.16,5
		c0.13,0.562,0.254,1.311,0.84,1.223c1.007-0.03-0.213-4.67-0.711-6.964c0.711,1.716,1.422,3.431,2.133,5.146
		c0.142,0.339,0.291,0.694,0.578,0.935c0.287,0.241,0.808,0.469,1.052,0.094c0.377-0.574-1.582-4.976-2.65-7.37
		c-0.545-1.227-1.119-2.487-2.133-3.408c-0.961-0.871-2.227-1.354-3.367-1.995c-1.192-0.67-2.246-1.53-3.205-2.481
		c-0.032,0.06-0.061,0.125-0.092,0.188C132.045,76.607,131.588,77.4,131.12,78.186z"/>
	<g>
		<g opacity="0.24">
			<path fill="#A4648B" d="M6.64,77.887c-0.131-0.16-0.388,0.016-0.271,0.185c7.062,10.348,18.082,18.173,30.218,22.739
				c9.263,3.484,19.137,5.192,29.111,5.651c0.062-0.721,0.296-2.867,0.292-3.834c-9.717-0.258-18.931-1.839-28.169-4.652
				C25.683,94.276,14.398,87.405,6.64,77.887z"/>
		</g>
		<g opacity="0.24">
			<path fill="#A4648B" d="M122.836,83.909c-8.514,7.878-18.98,13.196-30.682,16.089c-0.025,1.708-0.309,3.456-0.859,5.108
				c5.742-0.928,11.359-2.409,16.553-4.879c6.282-2.983,11.721-7.316,16.262-12.421C123.462,86.611,123.096,85.268,122.836,83.909z"
				/>
		</g>
		<g opacity="0.24">
			<path fill="#A4648B" d="M132.57,72.486c-2.077,3.121-4.383,5.973-6.875,8.594c0.023,0.512,0.057,1.025,0.109,1.537
				c0.088,0.886,0.245,1.767,0.453,2.636c2.358-2.97,4.438-6.149,6.219-9.444c3.57-6.617,5.612-13.64,7.846-20.727
				C138.496,60.877,135.873,67.526,132.57,72.486z"/>
		</g>
	</g>
	<g>
		<path fill="#501939" d="M155.83,31.955c-0.577-0.803-1.002-1.315-1.002-1.315s0.248,0.609,0.681,1.49
			c0.109,0.219,0.229,0.456,0.358,0.706c0.035,0.08,0.09,0.155,0.138,0.231c0.032-0.231,0.07-0.459,0.123-0.686
			C156.025,32.235,155.923,32.086,155.83,31.955z"/>
		<path fill="#501939" d="M159.924,36.836c-0.217-0.182-0.39-0.426-0.601-0.648c-0.413-0.452-0.853-0.933-1.306-1.403
			c-0.39-0.515-0.793-1.019-1.18-1.49c-0.189-0.24-0.396-0.45-0.552-0.689c-0.056-0.08-0.104-0.149-0.159-0.228
			c-0.053,0.226-0.091,0.455-0.123,0.686c0.109,0.17,0.232,0.339,0.35,0.52c0.358,0.511,0.75,1.055,1.155,1.588
			c0.453,0.491,0.923,0.971,1.359,1.421c0.228,0.217,0.421,0.452,0.653,0.626c0.229,0.178,0.442,0.349,0.643,0.505
			c0.395,0.3,0.725,0.542,0.962,0.715c0.138-0.002,0.274-0.015,0.414-0.034c-0.183-0.187-0.549-0.558-1.039-1.029
			C160.324,37.211,160.13,37.029,159.924,36.836z"/>
	</g>
	<path fill="#D8B6C9" d="M96.455,140.211c-0.637-0.879-0.15-2.226,0.852-2.706c1.004-0.48,2.297-0.17,3.098,0.579
		c0.562,0.528,0.916,1.253,0.979,2.001C99.755,140.336,98.094,140.378,96.455,140.211z"/>
	<path fill="#D8B6C9" d="M99.749,139.371c-0.638-0.879-0.149-2.227,0.853-2.709c1.002-0.479,2.295-0.168,3.094,0.58
		c0.564,0.528,0.92,1.252,0.979,2.005C103.049,139.495,101.387,139.538,99.749,139.371z"/>
	<path fill="#D8B6C9" d="M102.354,137.852c-0.637-0.878-0.149-2.226,0.854-2.705c1.001-0.482,2.296-0.172,3.094,0.58
		c0.564,0.527,0.921,1.252,0.98,2.001C105.654,137.976,103.993,138.021,102.354,137.852z"/>
	<path fill="#D8B6C9" d="M83.45,143.433c-0.637-0.879-0.15-2.228,0.853-2.707c1.002-0.481,2.294-0.17,3.095,0.58
		c0.562,0.526,0.916,1.25,0.978,2.001C86.751,143.558,85.088,143.601,83.45,143.433z"/>
	<path fill="#D8B6C9" d="M86.744,142.592c-0.637-0.879-0.15-2.227,0.854-2.707c1-0.48,2.295-0.169,3.094,0.579
		c0.562,0.53,0.918,1.253,0.979,2.001C90.043,142.716,88.381,142.758,86.744,142.592z"/>
	<path fill="#D8B6C9" d="M89.35,141.073c-0.637-0.879-0.149-2.228,0.854-2.709c1.003-0.479,2.295-0.168,3.096,0.58
		c0.564,0.529,0.918,1.254,0.979,2.004C92.648,141.197,90.988,141.24,89.35,141.073z"/>
</g>
</svg>
