<svg width="160" height="160" viewBox="0 0 160 160" fill="none" xmlns="http://www.w3.org/2000/svg">
<path d="M24.1403 34.367C30.3677 22.8691 41.7756 17.0946 49.6206 21.4694C53.388 23.5702 55.813 27.7784 56.3624 33.1683C56.9117 38.5581 55.5402 44.688 52.5498 50.2095C46.3224 61.7075 34.9145 67.482 27.0695 63.1072C19.2244 58.7324 17.913 45.865 24.1403 34.367V34.367Z" fill="#6B96A6"/>
<path d="M24.1403 34.367C30.3677 22.8691 41.7756 17.0946 49.6206 21.4694C53.388 23.5702 55.813 27.7784 56.3624 33.1683C56.9117 38.5581 55.5402 44.688 52.5498 50.2095C46.3224 61.7075 34.9145 67.482 27.0695 63.1072C19.2244 58.7324 17.913 45.865 24.1403 34.367V34.367Z" stroke="#356879" stroke-width="2" stroke-miterlimit="10" stroke-linejoin="round"/>
<path d="M75.1199 17.7622C81.3473 6.26427 92.7552 0.489794 100.6 4.86459C104.368 6.96544 106.793 11.1737 107.342 16.5635C107.891 21.9533 106.52 28.0832 103.529 33.6047C97.3021 45.1027 85.8941 50.8772 78.0491 46.5024C70.204 42.1276 68.8926 29.2602 75.1199 17.7622V17.7622Z" fill="#6B96A6"/>
<path d="M75.1199 17.7622C81.3473 6.26427 92.7552 0.489794 100.6 4.86459C104.368 6.96544 106.793 11.1737 107.342 16.5635C107.891 21.9533 106.52 28.0832 103.529 33.6047C97.3021 45.1027 85.8941 50.8772 78.0491 46.5024C70.204 42.1276 68.8926 29.2602 75.1199 17.7622V17.7622Z" stroke="#356879" stroke-width="2" stroke-miterlimit="10" stroke-linejoin="round"/>
<path d="M109.226 42.5444C115.453 31.0464 126.861 25.272 134.706 29.6468C138.473 31.7476 140.898 35.9558 141.448 41.3456C141.997 46.7355 140.626 52.8654 137.635 58.3869C131.408 69.8849 120 75.6593 112.155 71.2845C104.31 66.9098 102.998 54.0424 109.226 42.5444V42.5444Z" fill="#6B96A6"/>
<path d="M109.226 42.5444C115.453 31.0464 126.861 25.272 134.706 29.6468C138.473 31.7476 140.898 35.9558 141.448 41.3456C141.997 46.7355 140.626 52.8654 137.635 58.3869C131.408 69.8849 120 75.6593 112.155 71.2845C104.31 66.9098 102.998 54.0424 109.226 42.5444V42.5444Z" stroke="#356879" stroke-width="2" stroke-miterlimit="10" stroke-linejoin="round"/>
<path d="M120.028 97.0396C126.255 85.5416 137.663 79.7671 145.508 84.1419C149.275 86.2428 151.7 90.451 152.25 95.8408C152.799 101.231 151.428 107.361 148.437 112.882C142.21 124.38 130.802 130.155 122.957 125.78C115.112 121.405 113.8 108.538 120.028 97.0396V97.0396Z" fill="#6B96A6"/>
<path d="M120.028 97.0396C126.255 85.5416 137.663 79.7671 145.508 84.1419C149.275 86.2428 151.7 90.451 152.25 95.8408C152.799 101.231 151.428 107.361 148.437 112.882C142.21 124.38 130.802 130.155 122.957 125.78C115.112 121.405 113.8 108.538 120.028 97.0396V97.0396Z" stroke="#356879" stroke-width="2" stroke-miterlimit="10" stroke-linejoin="round"/>
<path d="M103.051 133.724C102.814 129.677 100.911 121.741 100.196 117.059C99.4819 112.377 99.0826 110.156 98.7653 105.632C98.4481 101.109 98.8485 94.9983 98.2928 89.9192C97.7371 84.8401 97.2568 78.968 95.4311 75.1579C93.6053 71.3477 90.5916 68.8842 87.3383 67.0585C84.0849 65.2327 80.4356 63.7275 75.9112 64.2033C71.3867 64.6792 65.3505 67.9292 60.1916 69.9136C55.0326 71.898 51.3855 74.2838 44.9576 76.1096C38.5298 77.9353 27.339 78.5665 21.6243 80.8681C15.9097 83.1697 13.1311 85.8717 10.6698 89.9192C8.2085 93.9667 6.3007 100.074 6.85641 105.153C7.41212 110.232 10.4324 116.981 14.0041 120.394C17.5757 123.807 22.3343 123.964 28.2863 125.631C34.2383 127.298 43.8429 126.349 49.7162 130.396C55.5894 134.444 59.3197 145.472 63.5258 149.916C67.7319 154.361 70.1112 156.35 74.9529 157.064C79.7946 157.778 88.1314 156.822 92.576 154.202C97.0205 151.582 99.8746 144.757 101.62 141.344C103.366 137.931 103.289 137.772 103.051 133.724V133.724Z" fill="#6B96A6"/>
<path d="M103.051 133.724C102.814 129.677 100.911 121.741 100.196 117.059C99.4819 112.377 99.0826 110.156 98.7653 105.632C98.4481 101.109 98.8485 94.9983 98.2928 89.9192C97.7371 84.8401 97.2568 78.968 95.4311 75.1579C93.6053 71.3477 90.5916 68.8842 87.3383 67.0585C84.0849 65.2327 80.4356 63.7275 75.9112 64.2033C71.3867 64.6792 65.3505 67.9292 60.1916 69.9136C55.0326 71.898 51.3855 74.2838 44.9576 76.1096C38.5298 77.9353 27.339 78.5665 21.6243 80.8681C15.9097 83.1697 13.1311 85.8717 10.6698 89.9192C8.2085 93.9667 6.3007 100.074 6.85641 105.153C7.41212 110.232 10.4324 116.981 14.0041 120.394C17.5757 123.807 22.3343 123.964 28.2863 125.631C34.2383 127.298 43.8429 126.349 49.7162 130.396C55.5894 134.444 59.3197 145.472 63.5258 149.916C67.7319 154.361 70.1112 156.35 74.9529 157.064C79.7946 157.778 88.1314 156.822 92.576 154.202C97.0205 151.582 99.8746 144.757 101.62 141.344C103.366 137.931 103.289 137.772 103.051 133.724V133.724Z" stroke="#356879" stroke-width="2" stroke-miterlimit="10" stroke-linejoin="round"/>
<path d="M96.97 97.4607C96.9142 93.5652 97.61 87.9567 96.3793 84.5634C95.1487 81.17 92.6862 78.7547 89.5861 77.1007C86.4859 75.4467 81.9429 73.9622 77.7783 74.6393C73.6138 75.3165 68.573 79.4449 64.5988 81.1635C60.6245 82.882 58.1151 83.8764 53.933 84.9506C49.751 86.0248 44.0243 86.1528 39.5064 87.6088C34.9885 89.0649 29.8296 90.6499 26.8257 93.6867C23.8218 96.7234 21.704 101.152 21.483 105.829C21.262 110.507 22.6404 118.36 25.4999 121.752C28.3594 125.145 34.1123 124.461 38.6401 126.183C43.1678 127.904 48.4438 128.944 52.6663 132.083C56.8888 135.223 60.7339 141.29 63.9752 145.02C67.2165 148.75 68.3804 152.78 72.114 154.465C75.8475 156.149 82.1332 156.332 86.3765 155.128C90.6198 153.923 95.0732 150.616 97.5739 147.238C100.075 143.86 101.081 139.004 101.381 134.86C101.68 130.715 100.15 126.856 99.3723 122.369C98.5945 117.882 97.1144 112.087 96.7141 107.936C96.3137 103.785 97.0258 101.356 96.97 97.4607V97.4607Z" fill="#678D9A"/>
<path d="M126.146 98.8286C130.939 89.9834 139.745 85.5626 145.816 88.9546C148.731 90.5835 150.613 93.833 151.047 97.9884C151.481 102.144 150.432 106.864 148.131 111.112C143.338 119.957 134.532 124.378 128.461 120.986C122.391 117.594 121.354 107.674 126.146 98.8286V98.8286Z" fill="#678D9A"/>
<path d="M115.154 44.3334C119.946 35.4881 128.752 31.0674 134.823 34.4594C137.738 36.0883 139.62 39.3378 140.054 43.4931C140.488 47.6485 139.439 52.3692 137.138 56.6168C132.346 65.4621 123.539 69.8829 117.469 66.4909C111.398 63.0989 110.361 53.1786 115.154 44.3334V44.3334Z" fill="#678D9A"/>
<path d="M81.9685 18.4686C86.7608 9.62333 95.567 5.20258 101.638 8.59457C104.553 10.2235 106.435 13.473 106.869 17.6283C107.303 21.7837 106.254 26.5044 103.953 30.752C99.1605 39.5973 90.3542 44.018 84.2834 40.6261C78.2127 37.2341 77.1762 27.3138 81.9685 18.4686V18.4686Z" fill="#678D9A"/>
<path d="M31.3656 36.2868C36.1579 27.4415 44.9642 23.0208 51.0349 26.4127C53.9502 28.0416 55.8319 31.2912 56.2661 35.4465C56.7002 39.6018 55.6512 44.3226 53.3499 48.5702C48.5576 57.4155 39.7514 61.8362 33.6806 58.4442C27.6098 55.0523 26.5734 45.132 31.3656 36.2868V36.2868Z" fill="#678D9A"/>
<path d="M25.7344 93.8633H26.5781V104H25.7344V93.8633ZM29.1094 93.8633H29.9531V104H29.1094V93.8633ZM27.4219 93.8633H28.2656V104H27.4219V93.8633ZM24.8906 93.8633V104C23.4062 104.562 21.8672 104.844 20.2734 104.844C18.8906 104.844 17.5664 104.59 16.3008 104.082C15.0352 103.574 13.9219 102.871 12.9609 101.973C12 101.066 11.2305 99.9492 10.6523 98.6211C10.082 97.2852 9.79688 95.8438 9.79688 94.2969C9.79688 92.8672 10.0742 91.5039 10.6289 90.207C11.1914 88.9023 11.9414 87.7812 12.8789 86.8438C13.8242 85.8984 14.9453 85.1484 16.2422 84.5938C17.5469 84.0312 18.9141 83.75 20.3438 83.75C22.125 83.75 23.7812 84.1641 25.3125 84.9922C26.8438 85.8203 28.0938 86.9453 29.0625 88.3672L28.3594 88.8242C27.4688 87.5195 26.3164 86.4883 24.9023 85.7305C23.4961 84.9727 21.9766 84.5938 20.3438 84.5938C19.0312 84.5938 17.7734 84.8516 16.5703 85.3672C15.375 85.875 14.3438 86.5625 13.4766 87.4297C12.6094 88.2969 11.918 89.332 11.4023 90.5352C10.8945 91.7305 10.6406 92.9844 10.6406 94.2969C10.6406 95.7109 10.9023 97.0312 11.4258 98.2578C11.957 99.4844 12.6602 100.512 13.5352 101.34C14.418 102.168 15.4414 102.82 16.6055 103.297C17.7695 103.766 18.9805 104 20.2383 104C21.5586 104 22.8281 103.793 24.0469 103.379V102.57C22.8828 102.961 21.6602 103.156 20.3789 103.156C19.4492 103.156 18.543 103.027 17.6602 102.77C16.7852 102.504 15.9727 102.117 15.2227 101.609C14.4805 101.094 13.8281 100.484 13.2656 99.7812C12.7109 99.0703 12.2734 98.2461 11.9531 97.3086C11.6406 96.3633 11.4844 95.3594 11.4844 94.2969C11.4844 92.6953 11.8789 91.2148 12.668 89.8555C13.4648 88.4961 14.543 87.4219 15.9023 86.6328C17.2617 85.8359 18.7422 85.4375 20.3438 85.4375C21.8438 85.4375 23.2383 85.7891 24.5273 86.4922C25.8164 87.1875 26.8672 88.1328 27.6797 89.3281L26.9766 89.7852C26.2422 88.707 25.2891 87.8555 24.1172 87.2305C22.9531 86.5977 21.6953 86.2812 20.3438 86.2812C19.2578 86.2812 18.2188 86.4922 17.2266 86.9141C16.2344 87.3359 15.3789 87.9062 14.6602 88.625C13.9492 89.3359 13.3828 90.1875 12.9609 91.1797C12.5391 92.1719 12.3281 93.2109 12.3281 94.2969C12.3281 95.2734 12.4688 96.1914 12.75 97.0508C13.0391 97.9023 13.4336 98.6484 13.9336 99.2891C14.4414 99.9219 15.0312 100.469 15.7031 100.93C16.375 101.383 17.1055 101.727 17.8945 101.961C18.6914 102.195 19.5078 102.312 20.3438 102.312C21.6406 102.312 22.875 102.094 24.0469 101.656V100.812C22.8906 101.258 21.6836 101.48 20.4258 101.48C19.4727 101.48 18.5625 101.32 17.6953 101C16.8281 100.672 16.0547 100.211 15.375 99.6172C14.7031 99.0234 14.168 98.2656 13.7695 97.3438C13.3711 96.4219 13.1719 95.4062 13.1719 94.2969C13.1719 93 13.4922 91.8008 14.1328 90.6992C14.7734 89.5977 15.6445 88.7266 16.7461 88.0859C17.8477 87.4453 19.0469 87.125 20.3438 87.125C21.5547 87.125 22.6797 87.4062 23.7188 87.9688C24.7656 88.5312 25.6172 89.2969 26.2734 90.2656L25.5703 90.7227C24.9922 89.8789 24.2422 89.2109 23.3203 88.7188C22.4062 88.2188 21.4141 87.9688 20.3438 87.9688C19.1953 87.9688 18.1367 88.2539 17.168 88.8242C16.1992 89.3867 15.4297 90.1523 14.8594 91.1211C14.2969 92.0898 14.0156 93.1484 14.0156 94.2969C14.0156 95.0938 14.1289 95.8359 14.3555 96.5234C14.582 97.2109 14.8945 97.8047 15.293 98.3047C15.6914 98.8047 16.1562 99.2305 16.6875 99.582C17.2266 99.9336 17.8047 100.199 18.4219 100.379C19.0391 100.551 19.6797 100.637 20.3438 100.637C21.6641 100.637 22.8984 100.375 24.0469 99.8516V99.043C22.9375 99.5352 21.7383 99.7812 20.4492 99.7812C19.707 99.7812 19.0078 99.668 18.3516 99.4414C17.6953 99.2148 17.1016 98.8828 16.5703 98.4453C16.0469 98.0078 15.6289 97.4336 15.3164 96.7227C15.0117 96.0039 14.8594 95.1953 14.8594 94.2969C14.8594 93.5547 15.0039 92.8477 15.293 92.1758C15.582 91.4961 15.9727 90.9102 16.4648 90.418C16.957 89.9258 17.5391 89.5352 18.2109 89.2461C18.8906 88.957 19.6016 88.8125 20.3438 88.8125C21.2734 88.8125 22.1367 89.0312 22.9336 89.4688C23.7305 89.8984 24.3789 90.4844 24.8789 91.2266L24.1875 91.6836C23.7656 91.0586 23.2148 90.5664 22.5352 90.207C21.8633 89.8398 21.1328 89.6562 20.3438 89.6562C19.0625 89.6562 17.9688 90.1094 17.0625 91.0156C16.1562 91.9219 15.7031 93.0156 15.7031 94.2969C15.7031 95.0859 15.832 95.7852 16.0898 96.3945C16.3477 96.9961 16.6992 97.4805 17.1445 97.8477C17.5977 98.207 18.0977 98.4805 18.6445 98.668C19.1992 98.8477 19.793 98.9375 20.4258 98.9375C21.7227 98.9375 22.9297 98.668 24.0469 98.1289V93.8633H24.8906ZM43.1016 96.5234V87.125H43.9453V96.5234C43.9453 97.4141 43.6016 98.1797 42.9141 98.8203C42.2344 99.4609 41.4141 99.7812 40.4531 99.7812C39.4922 99.7812 38.668 99.4609 37.9805 98.8203C37.3008 98.1797 36.9609 97.4141 36.9609 96.5234V87.125H37.8047V96.5234C37.8047 97.1875 38.0625 97.7578 38.5781 98.2344C39.1016 98.7031 39.7266 98.9375 40.4531 98.9375C41.1797 98.9375 41.8008 98.7031 42.3164 98.2344C42.8398 97.7578 43.1016 97.1875 43.1016 96.5234ZM44.7891 96.5234V87.125H45.6328V96.5234C45.6328 97.8906 45.125 99.0586 44.1094 100.027C43.0938 100.988 41.875 101.469 40.4531 101.469C39.0312 101.469 37.8125 100.988 36.7969 100.027C35.7812 99.0586 35.2734 97.8906 35.2734 96.5234V87.125H36.1172V96.5234C36.1172 97.6562 36.5391 98.625 37.3828 99.4297C38.2344 100.227 39.2578 100.625 40.4531 100.625C41.6406 100.625 42.6602 100.227 43.5117 99.4297C44.3633 98.625 44.7891 97.6562 44.7891 96.5234ZM46.4766 96.5234V87.125H47.3203V96.5234C47.3203 97.7188 47.0117 98.8281 46.3945 99.8516C45.7773 100.867 44.9414 101.672 43.8867 102.266C42.832 102.859 41.6875 103.156 40.4531 103.156C39.2188 103.156 38.0742 102.859 37.0195 102.266C35.9648 101.672 35.1289 100.867 34.5117 99.8516C33.8945 98.8281 33.5859 97.7188 33.5859 96.5234V87.125H34.4297V96.5234C34.4297 97.5625 34.6992 98.5273 35.2383 99.418C35.7773 100.309 36.5078 101.016 37.4297 101.539C38.3594 102.055 39.3672 102.312 40.4531 102.312C41.5391 102.312 42.543 102.055 43.4648 101.539C44.3945 101.016 45.1289 100.309 45.668 99.418C46.207 98.5273 46.4766 97.5625 46.4766 96.5234ZM48.1641 96.5234V87.125H49.0078V96.5234C49.0078 97.6484 48.7812 98.7266 48.3281 99.7578C47.875 100.781 47.2656 101.664 46.5 102.406C45.7344 103.148 44.8242 103.738 43.7695 104.176C42.7148 104.621 41.6094 104.844 40.4531 104.844C39.2969 104.844 38.1914 104.621 37.1367 104.176C36.082 103.738 35.1719 103.148 34.4062 102.406C33.6406 101.664 33.0312 100.781 32.5781 99.7578C32.125 98.7266 31.8984 97.6484 31.8984 96.5234V87.125H32.7422V96.5234C32.7422 97.8672 33.0859 99.1133 33.7734 100.262C34.4688 101.41 35.4062 102.32 36.5859 102.992C37.7734 103.664 39.0625 104 40.4531 104C41.8438 104 43.1289 103.664 44.3086 102.992C45.4961 102.32 46.4336 101.41 47.1211 100.262C47.8164 99.1133 48.1641 97.8672 48.1641 96.5234ZM55.3477 104H54.5039V87.125H55.3477V104ZM53.6602 104H52.8164V87.125H53.6602V104ZM51.9727 104H51.1289V87.125H51.9727V104ZM57.0352 99.7812H65.1094V100.625H57.0352V101.469H65.1094V102.312H57.0352V103.156H65.1094V104H56.1914V87.125H65.1094V87.9688H57.0352V88.8125H65.1094V89.6562H57.0352V90.5H65.1094V91.3438H57.0352V93.4414H64.6406V94.2852H57.0352V95.1289H64.6406V95.9727H57.0352V96.8164H64.6406V97.6602H57.0352V99.7812ZM74.8945 95.9727H73.5586C71.918 95.9727 70.6562 95.6406 69.7734 94.9766C68.8906 94.3047 68.4492 93.3828 68.4492 92.2109C68.4492 91.1172 68.9688 90.207 70.0078 89.4805C71.0469 88.7461 72.5039 88.3789 74.3789 88.3789C75.6289 88.3789 76.793 88.5508 77.8711 88.8945C78.957 89.2383 79.8594 89.7227 80.5781 90.3477L79.9219 90.875C79.2812 90.3516 78.4766 89.9453 77.5078 89.6562C76.5391 89.3672 75.4961 89.2227 74.3789 89.2227C72.7305 89.2227 71.4688 89.5039 70.5938 90.0664C69.7266 90.6289 69.293 91.3438 69.293 92.2109C69.293 93.1484 69.6484 93.8711 70.3594 94.3789C71.0781 94.8789 72.1445 95.1289 73.5586 95.1289H74.8477C76.5117 95.1289 77.7852 95.4648 78.668 96.1367C79.5586 96.8008 80.0039 97.7188 80.0039 98.8906C80.0039 99.9844 79.4844 100.898 78.4453 101.633C77.4062 102.359 75.9492 102.723 74.0742 102.723C72.8242 102.723 71.6562 102.551 70.5703 102.207C69.4922 101.863 68.5938 101.379 67.875 100.754L68.5312 100.227C69.1719 100.75 69.9766 101.156 70.9453 101.445C71.9141 101.734 72.957 101.879 74.0742 101.879C75.7227 101.879 76.9805 101.598 77.8477 101.035C78.7227 100.473 79.1602 99.7578 79.1602 98.8906C79.1602 97.9531 78.8008 97.2344 78.082 96.7344C77.3711 96.2266 76.3086 95.9727 74.8945 95.9727ZM74.8945 97.6602H73.5586C71.3867 97.6602 69.7109 97.168 68.5312 96.1836C67.3516 95.1914 66.7617 93.8672 66.7617 92.2109C66.7617 91.4531 66.9297 90.7422 67.2656 90.0781C67.6016 89.4141 68.082 88.832 68.707 88.332C69.3398 87.8242 70.1445 87.4258 71.1211 87.1367C72.0977 86.8398 73.1836 86.6914 74.3789 86.6914C75.8867 86.6914 77.2969 86.9219 78.6094 87.3828C79.9219 87.8359 81.0156 88.4727 81.8906 89.293L81.2109 89.7969C80.4141 89.0781 79.418 88.5234 78.2227 88.1328C77.0273 87.7344 75.7461 87.5352 74.3789 87.5352C72.2695 87.5352 70.6133 87.9805 69.4102 88.8711C68.207 89.7617 67.6055 90.875 67.6055 92.2109C67.6055 93.625 68.1211 94.7461 69.1523 95.5742C70.1836 96.4023 71.6523 96.8164 73.5586 96.8164H74.8477C77.1602 96.8164 78.3164 97.5078 78.3164 98.8906C78.3164 99.5156 77.9609 100.031 77.25 100.438C76.5469 100.836 75.4883 101.035 74.0742 101.035C73.082 101.035 72.1602 100.922 71.3086 100.695C70.457 100.461 69.7539 100.129 69.1992 99.6992L69.8672 99.1836C70.8438 99.8555 72.2461 100.191 74.0742 100.191C75.2461 100.191 76.1055 100.07 76.6523 99.8281C77.1992 99.5859 77.4727 99.2734 77.4727 98.8906C77.4727 98.4453 77.2812 98.1289 76.8984 97.9414C76.5156 97.7539 75.8477 97.6602 74.8945 97.6602ZM74.8945 94.2852H73.5586C71.2773 94.2852 70.1367 93.5938 70.1367 92.2109C70.1367 91.5859 70.4883 91.0742 71.1914 90.6758C71.9023 90.2695 72.9648 90.0664 74.3789 90.0664C75.3711 90.0664 76.293 90.1836 77.1445 90.418C77.9961 90.6445 78.6992 90.9727 79.2539 91.4023L78.5859 91.918C77.6094 91.2461 76.207 90.9102 74.3789 90.9102C73.207 90.9102 72.3477 91.0312 71.8008 91.2734C71.2539 91.5156 70.9805 91.8281 70.9805 92.2109C70.9805 92.6562 71.1719 92.9727 71.5547 93.1602C71.9375 93.3477 72.6055 93.4414 73.5586 93.4414H74.8945C77.0664 93.4414 78.7422 93.9375 79.9219 94.9297C81.1016 95.9141 81.6914 97.2344 81.6914 98.8906C81.6914 99.6484 81.5234 100.359 81.1875 101.023C80.8516 101.688 80.3672 102.273 79.7344 102.781C79.1094 103.281 78.3086 103.68 77.332 103.977C76.3555 104.266 75.2695 104.41 74.0742 104.41C72.5664 104.41 71.1562 104.184 69.8438 103.73C68.5312 103.27 67.4375 102.629 66.5625 101.809L67.2422 101.305C68.0391 102.023 69.0352 102.582 70.2305 102.98C71.4258 103.371 72.707 103.566 74.0742 103.566C76.1836 103.566 77.8398 103.121 79.043 102.23C80.2461 101.34 80.8477 100.227 80.8477 98.8906C80.8477 97.4766 80.332 96.3555 79.3008 95.5273C78.2695 94.6992 76.8008 94.2852 74.8945 94.2852ZM91.3008 95.9727H89.9648C88.3242 95.9727 87.0625 95.6406 86.1797 94.9766C85.2969 94.3047 84.8555 93.3828 84.8555 92.2109C84.8555 91.1172 85.375 90.207 86.4141 89.4805C87.4531 88.7461 88.9102 88.3789 90.7852 88.3789C92.0352 88.3789 93.1992 88.5508 94.2773 88.8945C95.3633 89.2383 96.2656 89.7227 96.9844 90.3477L96.3281 90.875C95.6875 90.3516 94.8828 89.9453 93.9141 89.6562C92.9453 89.3672 91.9023 89.2227 90.7852 89.2227C89.1367 89.2227 87.875 89.5039 87 90.0664C86.1328 90.6289 85.6992 91.3438 85.6992 92.2109C85.6992 93.1484 86.0547 93.8711 86.7656 94.3789C87.4844 94.8789 88.5508 95.1289 89.9648 95.1289H91.2539C92.918 95.1289 94.1914 95.4648 95.0742 96.1367C95.9648 96.8008 96.4102 97.7188 96.4102 98.8906C96.4102 99.9844 95.8906 100.898 94.8516 101.633C93.8125 102.359 92.3555 102.723 90.4805 102.723C89.2305 102.723 88.0625 102.551 86.9766 102.207C85.8984 101.863 85 101.379 84.2812 100.754L84.9375 100.227C85.5781 100.75 86.3828 101.156 87.3516 101.445C88.3203 101.734 89.3633 101.879 90.4805 101.879C92.1289 101.879 93.3867 101.598 94.2539 101.035C95.1289 100.473 95.5664 99.7578 95.5664 98.8906C95.5664 97.9531 95.207 97.2344 94.4883 96.7344C93.7773 96.2266 92.7148 95.9727 91.3008 95.9727ZM91.3008 97.6602H89.9648C87.793 97.6602 86.1172 97.168 84.9375 96.1836C83.7578 95.1914 83.168 93.8672 83.168 92.2109C83.168 91.4531 83.3359 90.7422 83.6719 90.0781C84.0078 89.4141 84.4883 88.832 85.1133 88.332C85.7461 87.8242 86.5508 87.4258 87.5273 87.1367C88.5039 86.8398 89.5898 86.6914 90.7852 86.6914C92.293 86.6914 93.7031 86.9219 95.0156 87.3828C96.3281 87.8359 97.4219 88.4727 98.2969 89.293L97.6172 89.7969C96.8203 89.0781 95.8242 88.5234 94.6289 88.1328C93.4336 87.7344 92.1523 87.5352 90.7852 87.5352C88.6758 87.5352 87.0195 87.9805 85.8164 88.8711C84.6133 89.7617 84.0117 90.875 84.0117 92.2109C84.0117 93.625 84.5273 94.7461 85.5586 95.5742C86.5898 96.4023 88.0586 96.8164 89.9648 96.8164H91.2539C93.5664 96.8164 94.7227 97.5078 94.7227 98.8906C94.7227 99.5156 94.3672 100.031 93.6562 100.438C92.9531 100.836 91.8945 101.035 90.4805 101.035C89.4883 101.035 88.5664 100.922 87.7148 100.695C86.8633 100.461 86.1602 100.129 85.6055 99.6992L86.2734 99.1836C87.25 99.8555 88.6523 100.191 90.4805 100.191C91.6523 100.191 92.5117 100.07 93.0586 99.8281C93.6055 99.5859 93.8789 99.2734 93.8789 98.8906C93.8789 98.4453 93.6875 98.1289 93.3047 97.9414C92.9219 97.7539 92.2539 97.6602 91.3008 97.6602ZM91.3008 94.2852H89.9648C87.6836 94.2852 86.543 93.5938 86.543 92.2109C86.543 91.5859 86.8945 91.0742 87.5977 90.6758C88.3086 90.2695 89.3711 90.0664 90.7852 90.0664C91.7773 90.0664 92.6992 90.1836 93.5508 90.418C94.4023 90.6445 95.1055 90.9727 95.6602 91.4023L94.9922 91.918C94.0156 91.2461 92.6133 90.9102 90.7852 90.9102C89.6133 90.9102 88.7539 91.0312 88.207 91.2734C87.6602 91.5156 87.3867 91.8281 87.3867 92.2109C87.3867 92.6562 87.5781 92.9727 87.9609 93.1602C88.3438 93.3477 89.0117 93.4414 89.9648 93.4414H91.3008C93.4727 93.4414 95.1484 93.9375 96.3281 94.9297C97.5078 95.9141 98.0977 97.2344 98.0977 98.8906C98.0977 99.6484 97.9297 100.359 97.5938 101.023C97.2578 101.688 96.7734 102.273 96.1406 102.781C95.5156 103.281 94.7148 103.68 93.7383 103.977C92.7617 104.266 91.6758 104.41 90.4805 104.41C88.9727 104.41 87.5625 104.184 86.25 103.73C84.9375 103.27 83.8438 102.629 82.9688 101.809L83.6484 101.305C84.4453 102.023 85.4414 102.582 86.6367 102.98C87.832 103.371 89.1133 103.566 90.4805 103.566C92.5898 103.566 94.2461 103.121 95.4492 102.23C96.6523 101.34 97.2539 100.227 97.2539 98.8906C97.2539 97.4766 96.7383 96.3555 95.707 95.5273C94.6758 94.6992 93.207 94.2852 91.3008 94.2852ZM27.9023 114.812H32.8008C33.6055 114.812 34.2852 114.543 34.8398 114.004C35.4023 113.457 35.6836 112.688 35.6836 111.695C35.6836 110.953 35.3906 110.289 34.8047 109.703C34.2188 109.109 33.5508 108.812 32.8008 108.812H25.5586V124H24.7148V107.969H32.8008C33.7852 107.969 34.6523 108.348 35.4023 109.105C36.1523 109.863 36.5273 110.727 36.5273 111.695C36.5273 112.891 36.1641 113.852 35.4375 114.578C34.7109 115.297 33.832 115.656 32.8008 115.656H27.9023V114.812ZM27.9023 116.5H32.8008C33.6133 116.5 34.3633 116.305 35.0508 115.914C35.7461 115.516 36.3047 114.945 36.7266 114.203C37.1562 113.461 37.3711 112.625 37.3711 111.695C37.3711 110.492 36.9102 109.43 35.9883 108.508C35.0742 107.586 34.0117 107.125 32.8008 107.125H23.8711V124H23.0273V106.281H32.8008C33.7461 106.281 34.6367 106.531 35.4727 107.031C36.3086 107.531 36.9727 108.199 37.4648 109.035C37.9648 109.871 38.2148 110.758 38.2148 111.695C38.2148 112.758 37.9648 113.727 37.4648 114.602C36.9648 115.469 36.3008 116.145 35.4727 116.629C34.6523 117.105 33.7617 117.344 32.8008 117.344H27.9023V116.5ZM27.9023 118.188H32.8008C33.6367 118.188 34.4375 118.023 35.2031 117.695C35.9688 117.359 36.6328 116.91 37.1953 116.348C37.7656 115.777 38.2188 115.09 38.5547 114.285C38.8906 113.473 39.0586 112.609 39.0586 111.695C39.0586 110.602 38.7734 109.574 38.2031 108.613C37.6328 107.645 36.8633 106.875 35.8945 106.305C34.9336 105.727 33.9023 105.438 32.8008 105.438H22.1836V124H21.3398V104.594H32.8008C34.0508 104.594 35.2227 104.922 36.3164 105.578C37.4102 106.227 38.2812 107.098 38.9297 108.191C39.5781 109.285 39.9023 110.453 39.9023 111.695C39.9023 112.805 39.7109 113.828 39.3281 114.766C38.9453 115.695 38.4297 116.469 37.7812 117.086C37.1328 117.703 36.3789 118.184 35.5195 118.527C34.6602 118.863 33.7539 119.031 32.8008 119.031H27.9023V118.188ZM27.2461 124H26.4023V109.656H32.8008C33.3555 109.656 33.832 109.859 34.2305 110.266C34.6367 110.672 34.8398 111.148 34.8398 111.695C34.8398 113.211 34.1602 113.969 32.8008 113.969H27.9023V113.125H32.8008C33.1758 113.125 33.4688 113.02 33.6797 112.809C33.8906 112.598 33.9961 112.227 33.9961 111.695C33.9961 111.352 33.8789 111.066 33.6445 110.84C33.418 110.613 33.1367 110.5 32.8008 110.5H27.2461V124ZM53.7305 115.68C53.7305 114.68 53.4219 113.906 52.8047 113.359C52.1875 112.812 51.3711 112.539 50.3555 112.539C49.4961 112.539 48.7578 112.836 48.1406 113.43C47.5234 114.023 47.2148 114.734 47.2148 115.562C47.2148 116.031 47.2773 116.453 47.4023 116.828C47.5273 117.195 47.6953 117.504 47.9062 117.754C48.125 117.996 48.3828 118.199 48.6797 118.363C48.9766 118.52 49.2852 118.633 49.6055 118.703C49.9336 118.773 50.2812 118.809 50.6484 118.809C51.5391 118.809 52.3516 118.59 53.0859 118.152V118.996C52.3281 119.395 51.5117 119.594 50.6367 119.594C50.0742 119.594 49.543 119.52 49.043 119.371C48.5508 119.215 48.1016 118.984 47.6953 118.68C47.2891 118.367 46.9648 117.945 46.7227 117.414C46.4883 116.875 46.3711 116.258 46.3711 115.562C46.3711 114.484 46.75 113.57 47.5078 112.82C48.2656 112.07 49.2148 111.695 50.3555 111.695C51.6133 111.695 52.6289 112.051 53.4023 112.762C54.1836 113.465 54.5742 114.438 54.5742 115.68V124H53.7305V115.68ZM56.2617 115.68V124H55.418V115.68C55.418 114.203 54.9453 113.031 54 112.164C53.0547 111.289 51.8398 110.852 50.3555 110.852C48.9805 110.852 47.832 111.309 46.9102 112.223C45.9883 113.137 45.5273 114.25 45.5273 115.562C45.5273 116.359 45.6641 117.074 45.9375 117.707C46.2188 118.34 46.5977 118.848 47.0742 119.23C47.5508 119.613 48.082 119.906 48.668 120.109C49.2617 120.305 49.8867 120.402 50.543 120.402C51.4336 120.402 52.2812 120.195 53.0859 119.781V120.672C52.2422 121.023 51.3906 121.199 50.5312 121.199C49.7578 121.199 49.0234 121.082 48.3281 120.848C47.6328 120.605 47.0117 120.258 46.4648 119.805C45.918 119.344 45.4844 118.75 45.1641 118.023C44.8438 117.289 44.6836 116.469 44.6836 115.562C44.6836 114.023 45.2266 112.715 46.3125 111.637C47.4062 110.551 48.7539 110.008 50.3555 110.008C51.4805 110.008 52.4883 110.238 53.3789 110.699C54.2695 111.152 54.9727 111.812 55.4883 112.68C56.0039 113.547 56.2617 114.547 56.2617 115.68ZM57.9492 115.68V124H57.1055V115.68C57.1055 114.391 56.8086 113.25 56.2148 112.258C55.6289 111.258 54.8242 110.492 53.8008 109.961C52.7773 109.43 51.6289 109.164 50.3555 109.164C49.1445 109.164 48.0391 109.453 47.0391 110.031C46.0391 110.602 45.2539 111.375 44.6836 112.352C44.1211 113.328 43.8398 114.398 43.8398 115.562C43.8398 116.562 44.0234 117.477 44.3906 118.305C44.7578 119.125 45.25 119.801 45.8672 120.332C46.4922 120.863 47.1992 121.277 47.9883 121.574C48.7852 121.863 49.6172 122.008 50.4844 122.008C51.3672 122.008 52.2344 121.824 53.0859 121.457V122.312C52.1953 122.648 51.3203 122.816 50.4609 122.816C49.1094 122.816 47.8672 122.512 46.7344 121.902C45.6016 121.293 44.6953 120.43 44.0156 119.312C43.3359 118.195 42.9961 116.945 42.9961 115.562C42.9961 114.578 43.1836 113.641 43.5586 112.75C43.9414 111.859 44.457 111.09 45.1055 110.441C45.7539 109.793 46.5352 109.277 47.4492 108.895C48.3633 108.512 49.332 108.32 50.3555 108.32C51.7852 108.32 53.0742 108.625 54.2227 109.234C55.3789 109.844 56.2891 110.711 56.9531 111.836C57.6172 112.961 57.9492 114.242 57.9492 115.68ZM59.6367 115.68V124H58.793V115.68C58.793 114.086 58.4219 112.664 57.6797 111.414C56.9375 110.156 55.9258 109.188 54.6445 108.508C53.3633 107.82 51.9336 107.477 50.3555 107.477C48.8398 107.477 47.4531 107.84 46.1953 108.566C44.9375 109.293 43.9492 110.277 43.2305 111.52C42.5117 112.754 42.1523 114.102 42.1523 115.562C42.1523 116.523 42.3047 117.438 42.6094 118.305C42.9219 119.164 43.3438 119.918 43.875 120.566C44.4141 121.207 45.0312 121.762 45.7266 122.23C46.4297 122.699 47.1836 123.055 47.9883 123.297C48.8008 123.539 49.625 123.66 50.4609 123.66C51.3828 123.66 52.2578 123.484 53.0859 123.133V124C52.2188 124.305 51.3281 124.457 50.4141 124.457C49.4688 124.457 48.5469 124.324 47.6484 124.059C46.7578 123.793 45.9297 123.402 45.1641 122.887C44.4062 122.363 43.7383 121.75 43.1602 121.047C42.582 120.336 42.1289 119.508 41.8008 118.562C41.4727 117.617 41.3086 116.617 41.3086 115.562C41.3086 114.352 41.5352 113.199 41.9883 112.105C42.4492 111.004 43.0742 110.055 43.8633 109.258C44.6602 108.453 45.6211 107.816 46.7461 107.348C47.8789 106.871 49.082 106.633 50.3555 106.633C51.6523 106.633 52.8711 106.852 54.0117 107.289C55.1523 107.727 56.1367 108.336 56.9648 109.117C57.793 109.891 58.4453 110.844 58.9219 111.977C59.3984 113.109 59.6367 114.344 59.6367 115.68ZM78.3633 118.574C78.5273 118.582 78.7266 118.586 78.9609 118.586C79.1953 118.586 79.3906 118.582 79.5469 118.574C79.7109 118.559 79.8789 118.527 80.0508 118.48C80.2227 118.426 80.3594 118.355 80.4609 118.27C80.5625 118.184 80.6445 118.062 80.707 117.906C80.7773 117.742 80.8125 117.547 80.8125 117.32V107.125H81.6562V117.32C81.6562 118.727 80.7578 119.43 78.9609 119.43C78.0547 119.43 77.3828 119.258 76.9453 118.914C76.8828 119.219 76.8086 119.488 76.7227 119.723C77.3164 120.09 78.0625 120.273 78.9609 120.273C80.0078 120.273 80.8594 120.031 81.5156 119.547C82.1719 119.055 82.5 118.312 82.5 117.32V107.125H83.3438V117.32C83.3438 118.547 82.9297 119.488 82.1016 120.145C81.2812 120.793 80.2344 121.117 78.9609 121.117C77.9688 121.117 77.1172 120.914 76.4062 120.508C76.2891 120.758 76.1523 120.996 75.9961 121.223C76.8477 121.715 77.8359 121.961 78.9609 121.961C79.6875 121.961 80.3633 121.859 80.9883 121.656C81.6211 121.453 82.1758 121.16 82.6523 120.777C83.1289 120.395 83.5039 119.906 83.7773 119.312C84.0508 118.719 84.1875 118.055 84.1875 117.32V107.125H85.0312V117.32C85.0312 118.445 84.7539 119.43 84.1992 120.273C83.6523 121.117 82.9219 121.75 82.0078 122.172C81.1016 122.594 80.0859 122.805 78.9609 122.805C77.6484 122.805 76.4922 122.504 75.4922 121.902C75.2734 122.152 75.0742 122.355 74.8945 122.512C76.0586 123.27 77.4141 123.648 78.9609 123.648C80.2344 123.648 81.3906 123.398 82.4297 122.898C83.4688 122.398 84.3008 121.664 84.9258 120.695C85.5586 119.719 85.875 118.594 85.875 117.32V107.125H86.7188V117.32C86.7188 118.398 86.5117 119.391 86.0977 120.297C85.6914 121.203 85.1367 121.961 84.4336 122.57C83.7383 123.18 82.918 123.652 81.9727 123.988C81.0273 124.324 80.0234 124.492 78.9609 124.492C77.1016 124.492 75.5117 124.016 74.1914 123.062C72.8242 124.016 71.2109 124.492 69.3516 124.492C68.2891 124.492 67.2852 124.324 66.3398 123.988C65.3945 123.652 64.5703 123.18 63.8672 122.57C63.1719 121.961 62.6172 121.203 62.2031 120.297C61.7969 119.391 61.5938 118.398 61.5938 117.32V107.125H62.4375V117.32C62.4375 118.281 62.6172 119.164 62.9766 119.969C63.3438 120.773 63.8398 121.441 64.4648 121.973C65.0898 122.504 65.8203 122.918 66.6562 123.215C67.5 123.504 68.3984 123.648 69.3516 123.648C70.5938 123.648 71.7461 123.367 72.8086 122.805C73.8711 122.234 74.7109 121.465 75.3281 120.496C75.9531 119.52 76.2656 118.461 76.2656 117.32V107.125H77.1094V117.32C77.1094 117.547 77.1406 117.742 77.2031 117.906C77.2734 118.062 77.3594 118.184 77.4609 118.27C77.5625 118.355 77.6992 118.426 77.8711 118.48C78.043 118.527 78.207 118.559 78.3633 118.574ZM72.0469 107.125V117.32C72.0469 118.727 71.1484 119.43 69.3516 119.43C67.5547 119.43 66.6562 118.727 66.6562 117.32V107.125H67.5V117.32C67.5 117.547 67.5312 117.742 67.5938 117.906C67.6641 118.062 67.75 118.184 67.8516 118.27C67.9531 118.355 68.0898 118.426 68.2617 118.48C68.4336 118.527 68.5977 118.559 68.7539 118.574C68.918 118.582 69.1172 118.586 69.3516 118.586C69.5859 118.586 69.7812 118.582 69.9375 118.574C70.1016 118.559 70.2695 118.527 70.4414 118.48C70.6133 118.426 70.75 118.355 70.8516 118.27C70.9531 118.184 71.0352 118.062 71.0977 117.906C71.168 117.742 71.2031 117.547 71.2031 117.32V107.125H72.0469ZM73.7344 107.125V117.32C73.7344 118.547 73.3203 119.488 72.4922 120.145C71.6719 120.793 70.625 121.117 69.3516 121.117C68.0781 121.117 67.0273 120.793 66.1992 120.145C65.3789 119.488 64.9688 118.547 64.9688 117.32V107.125H65.8125V117.32C65.8125 118.312 66.1406 119.055 66.7969 119.547C67.4531 120.031 68.3047 120.273 69.3516 120.273C70.3984 120.273 71.25 120.031 71.9062 119.547C72.5625 119.055 72.8906 118.312 72.8906 117.32V107.125H73.7344ZM75.4219 107.125V117.32C75.4219 118.445 75.1445 119.43 74.5898 120.273C74.043 121.117 73.3125 121.75 72.3984 122.172C71.4922 122.594 70.4766 122.805 69.3516 122.805C68.2266 122.805 67.207 122.594 66.293 122.172C65.3867 121.75 64.6562 121.117 64.1016 120.273C63.5547 119.43 63.2812 118.445 63.2812 117.32V107.125H64.125V117.32C64.125 118.055 64.2617 118.719 64.5352 119.312C64.8086 119.906 65.1836 120.395 65.6602 120.777C66.1367 121.16 66.6875 121.453 67.3125 121.656C67.9453 121.859 68.625 121.961 69.3516 121.961C70.0781 121.961 70.7539 121.859 71.3789 121.656C72.0117 121.453 72.5664 121.16 73.043 120.777C73.5195 120.395 73.8945 119.906 74.168 119.312C74.4414 118.719 74.5781 118.055 74.5781 117.32V107.125H75.4219Z" fill="white"/>
</svg>
