<?xml version="1.0" encoding="utf-8"?>
<!-- Generator: Adobe Illustrator 16.0.4, SVG Export Plug-In . SVG Version: 6.00 Build 0)  -->
<!DOCTYPE svg PUBLIC "-//W3C//DTD SVG 1.1//EN" "http://www.w3.org/Graphics/SVG/1.1/DTD/svg11.dtd">
<svg version="1.1" id="Layer_1" xmlns="http://www.w3.org/2000/svg" xmlns:xlink="http://www.w3.org/1999/xlink" x="0px" y="0px"
	 width="170px" height="170px" viewBox="0 0 170 170" enable-background="new 0 0 170 170" xml:space="preserve">
<title>Artboard 9</title>
<g>
	<path fill="#4DA053" d="M169,137.023c-4.963-12.326-9.986-24.77-17.546-35.695c-7.558-10.93-17.976-20.371-30.675-24.283
		c-12.459-3.84-25.903-2.094-38.829-3.806c-16.026-2.122-32.25-6.405-45.588-15.54c-2.556-1.75-5.848-1.991-8.938-1.802
		c-3.092,0.19-6.191,0.753-9.267,0.387c-2.812-0.336-5.477-1.435-8.256-1.976c-2.78-0.542-5.916-0.435-8.108,1.358
		c7.827,3.381,16.014,6.237,24.153,8.777c-8.139,0.465-16.409-0.923-23.649-4.669c8.344,6.72,18.893,9.477,29.275,12.121
		c8.527,2.172,18.02,4.648,24.855,10.461c4.32,3.677,7.371,8.377,11.483,12.261c4.365,4.118,9.407,7.522,14.875,10.004
		c7.804,3.539,16.453,5.187,25.012,4.789c8.246-0.384,17.082-1.874,25.289-0.398c7.738,1.394,14.673,5.813,20.316,11.287
		C159.048,125.771,164.538,130.549,169,137.023z"/>
	<path fill="#66A36D" d="M133.087,109.011c-5.164-0.929-10.575-0.682-15.935-0.276c1.002,0.572,2.052,1.068,3.127,1.472
		c3.498,1.308,7.234,1.813,10.938,2.28c-0.461-0.06-0.177-1.657-0.075-1.881c0.267-0.582,0.813-1.051,1.457-1.137
		c0.084-0.012,0.916-0.072,0.938-0.033c-0.065-0.11-0.095-0.232-0.119-0.354C133.309,109.059,133.198,109.031,133.087,109.011z"/>
	<path fill="#66A36D" d="M83.003,104.711c-0.071-0.031-0.146-0.059-0.217-0.091c-3.326-1.509-6.493-3.364-9.447-5.511
		c0.006,0.078-0.001,0.158,0.007,0.235c0.311,3.25,2.046,6.234,4.289,8.608c2.242,2.373,4.981,4.212,7.71,6.005
		c-0.339-0.224,0.5-1.369,0.665-1.505c0.434-0.354,1.045-0.514,1.581-0.332c0.069,0.021,0.748,0.297,0.751,0.336
		c-0.094-1.175,1.887-1.999,2.771-1.464c-0.334-0.201,0.427-1.399,0.562-1.558c0.366-0.428,0.882-0.748,1.452-0.789
		c-3.264-0.918-5.896-1.197-8.851-3.025C83.836,105.35,83.41,105.042,83.003,104.711z"/>
	<path fill="#78C184" d="M31.519,71.882c0.152-0.181,0.304-0.36,0.454-0.542c2.542-3.05,5.166-6.418,5.387-10.382
		c0.052-0.922-0.033-1.838-0.22-2.738c-0.26-0.173-0.521-0.345-0.777-0.521c-2.556-1.75-5.848-1.991-8.938-1.802
		c-3.092,0.19-6.191,0.753-9.267,0.387c-2.812-0.336-5.477-1.435-8.256-1.976c-2.78-0.542-5.916-0.435-8.108,1.358
		c7.827,3.381,16.014,6.237,24.153,8.777c-8.139,0.465-16.409-0.923-23.649-4.669C10.626,66.483,21.153,69.242,31.519,71.882z"/>
	<path fill="#5A8949" d="M120.779,77.045c-12.459-3.84-25.903-2.094-38.829-3.806c-15.789-2.091-31.768-6.282-44.992-15.142
		c0.104,1.856-0.023,3.75-0.21,5.546c13.192,6.58,27.466,12.921,42.009,15.335c11.443,1.899,23.286,1.111,34.538,3.933
		c12.295,3.082,23.275,10.396,31.982,19.606c8.623,9.125,17.802,22.242,23.135,33.678c0.197,0.272,0.395,0.548,0.588,0.828
		c-4.963-12.326-9.986-24.77-17.546-35.695C143.896,90.398,133.479,80.957,120.779,77.045z"/>
	<g>
		<path fill="#5B5B5B" d="M1.802,56.721c0.014,0.407,0.184,0.811,0.515,0.951c0.334,0.144,0.758-0.012,1.075-0.283
			c0.251-0.215,0.45-0.493,0.635-0.781c-0.692-0.288-1.385-0.576-2.072-0.872C1.865,56.063,1.792,56.395,1.802,56.721z"/>
		<path fill="#5B5B5B" d="M5.67,58.099c0.013,0.407,0.184,0.811,0.515,0.952c0.334,0.143,0.758-0.013,1.075-0.284
			c0.207-0.178,0.377-0.399,0.535-0.632c-0.678-0.266-1.352-0.54-2.025-0.812C5.708,57.582,5.662,57.842,5.67,58.099z"/>
		<path fill="#5B5B5B" d="M10.133,59.85c0.013,0.408,0.183,0.811,0.515,0.952c0.334,0.143,0.757-0.012,1.074-0.284
			c0.223-0.19,0.403-0.431,0.57-0.683c-0.688-0.253-1.374-0.506-2.059-0.765C10.171,59.331,10.124,59.592,10.133,59.85z"/>
		<path fill="#5B5B5B" d="M18.688,62.717c0.013,0.407,0.184,0.811,0.515,0.952c0.334,0.143,0.758-0.013,1.075-0.284
			c0.196-0.169,0.359-0.377,0.511-0.597c-0.681-0.225-1.36-0.452-2.04-0.682C18.708,62.311,18.682,62.515,18.688,62.717z"/>
		<path fill="#5B5B5B" d="M14.225,61.338c0.014,0.408,0.184,0.811,0.515,0.952c0.334,0.143,0.758-0.012,1.075-0.284
			c0.229-0.195,0.413-0.443,0.583-0.702c-0.692-0.24-1.384-0.485-2.075-0.731C14.262,60.828,14.217,61.085,14.225,61.338z"/>
	</g>
	<g>
		<circle fill="#FFFFFF" cx="30.786" cy="62.594" r="3.138"/>
		<circle fill="#002920" cx="30.785" cy="62.59" r="2.351"/>
		<circle fill="#FFFFFF" cx="29.99" cy="60.796" r="0.83"/>
	</g>
	<path fill="#002920" d="M5.359,55.636c0.49-0.59,1.463-0.695,2.068-0.225C7.012,56.097,5.912,56.216,5.359,55.636z"/>
	<path fill="#498C7A" d="M110.661,86.068c0.192,0.761-0.19,1.578-0.784,2.093c-0.594,0.514-1.363,0.772-2.126,0.958
		c-4.265,1.038-8.731,0.145-13.028-0.752c-1.021-0.215-2.088-0.445-2.902-1.1c-0.812-0.654-1.28-1.867-0.764-2.774
		c0.393-0.683,1.195-0.997,1.949-1.222c5.114-1.526,10.768-1.172,15.652,0.979C109.514,84.629,110.432,85.162,110.661,86.068z"/>
	<path fill="#498C7A" d="M124.962,88.76c0.21-0.236-0.08-0.585-0.349-0.757c-2.918-1.876-6.44-2.793-9.903-2.579
		c-0.237,0.016-0.497,0.045-0.662,0.217c-0.353,0.364,0.013,0.961,0.394,1.295c0.925,0.807,2.021,1.414,3.191,1.771
		c2.232,0.68,4.627,0.439,6.947,0.193C124.719,88.886,124.87,88.864,124.962,88.76z"/>
	<path fill="#498C7A" d="M83.07,81.805c-0.197,0.424,0,0.95,0.35,1.262s0.816,0.447,1.272,0.552
		c1.703,0.381,3.492,0.377,5.191-0.013c0.145-0.031,0.299-0.075,0.385-0.194c0.217-0.304-0.19-0.658-0.537-0.8
		c-1.537-0.622-3.146-1.074-4.785-1.344C84.254,81.152,83.366,81.169,83.07,81.805z"/>
	<path fill="#498C7A" d="M53.718,72.971c-0.28,0.374-0.194,0.93,0.084,1.307c0.279,0.375,0.708,0.604,1.134,0.8
		c1.589,0.722,3.34,1.083,5.084,1.05c0.147-0.002,0.308-0.016,0.416-0.111c0.273-0.252-0.054-0.685-0.362-0.892
		c-1.379-0.926-2.86-1.696-4.409-2.295C55.01,72.574,54.137,72.409,53.718,72.971z"/>
	<path fill="#498C7A" d="M115.718,89.932c-0.966-0.48-1.95-0.972-3.016-1.146c-0.283-0.046-0.603-0.062-0.827,0.116
		c-0.445,0.354-0.146,1.084,0.268,1.476c0.953,0.901,2.387,1.263,3.652,0.92c0.254-0.067,0.531-0.192,0.612-0.442
		C116.538,90.454,116.094,90.119,115.718,89.932z"/>
	<path fill="#498C7A" d="M132.023,92.07c-0.737-0.696-1.543-1.396-2.529-1.629c-0.652-0.153-1.401-0.033-1.938,0.34
		c-0.425,0.295-0.423,0.934-0.01,1.24c1.112,0.826,2.291,1.562,3.521,2.201c0.293,0.151,0.621,0.242,0.949,0.215
		c0.881-0.08,1.008-0.875,0.76-1.437C132.613,92.635,132.316,92.346,132.023,92.07z"/>
	<path fill="#498C7A" d="M121.02,91.652c-0.02,0.236,0.233,0.392,0.451,0.48c1.137,0.477,2.342,0.784,3.566,0.912
		c0.094-0.176,0.188-0.354,0.279-0.527c-0.976-0.942-2.385-1.416-3.73-1.252C121.339,91.296,121.038,91.404,121.02,91.652z"/>
	<path fill="#498C7A" d="M135.245,95.88c-0.203,0.425,0.08,0.915,0.379,1.277c0.88,1.065,2.015,1.921,3.28,2.475
		c0.451-0.183,0.826-0.545,1.022-0.987c-0.678-1.211-1.698-2.227-2.916-2.896C136.432,95.43,135.531,95.28,135.245,95.88z"/>
	<path fill="#498C7A" d="M81.524,80.605c-0.144-0.58-0.655-1.017-1.217-1.228c-0.562-0.21-1.172-0.233-1.771-0.256
		c-1.224-0.044-2.447-0.088-3.671-0.132c-0.493-0.02-1.084,0.015-1.337,0.438c-0.24,0.403,0.004,0.955,0.397,1.213
		c0.393,0.256,0.886,0.297,1.355,0.328c1.671,0.115,3.342,0.23,5.013,0.346c0.275,0.021,0.562,0.037,0.817-0.067
		C81.367,81.145,81.578,80.878,81.524,80.605z"/>
	<path fill="#498C7A" d="M131.973,97.007c0.52,0.366,1.037,0.733,1.557,1.101c0.347,0.244,0.796,0.496,1.162,0.287
		c0.457-0.262,0.312-1.004-0.096-1.34c-0.404-0.337-0.953-0.438-1.404-0.711c-0.299-0.18-0.559-0.434-0.889-0.544
		s-0.777-0.002-0.869,0.333C131.335,96.486,131.673,96.796,131.973,97.007z"/>
	<path fill="#498C7A" d="M142.508,101.738c0.611,0.271,0.6,2.02,1.93,1.873c0.065-1.049-0.53-2.108-1.463-2.596
		c-0.121-0.063-0.264-0.119-0.394-0.074C142.292,101.042,142.229,101.614,142.508,101.738z"/>
	<path fill="#498C7A" d="M146.617,106.457c0.611,0.271,0.6,2.02,1.93,1.874c0.064-1.048-0.531-2.108-1.463-2.597
		c-0.121-0.062-0.264-0.118-0.395-0.073C146.402,105.762,146.339,106.333,146.617,106.457z"/>
	<path fill="#498C7A" d="M71.267,78.645c-0.792-0.641-1.881-0.885-2.876-0.68c-0.328,0.067-0.437,0.473-0.186,0.695
		c0.769,0.682,1.819,1.048,2.846,0.963c0.194-0.018,0.412-0.062,0.513-0.23C71.716,79.141,71.496,78.829,71.267,78.645z"/>
	<path fill="#498C7A" d="M65.736,76.82c-0.792-0.641-1.881-0.885-2.876-0.68c-0.328,0.066-0.437,0.471-0.186,0.693
		c0.769,0.684,1.819,1.048,2.846,0.963c0.193-0.017,0.412-0.062,0.513-0.229C66.186,77.316,65.965,77.005,65.736,76.82z"/>
	<g opacity="0.21">
		<path fill="#E6E8E7" d="M8.896,56.28c2.779,0.542,5.443,1.641,8.256,1.976c3.075,0.367,6.175-0.195,9.266-0.386
			c3.092-0.189,6.384,0.052,8.938,1.802c13.339,9.135,29.562,13.418,45.589,15.54c12.926,1.712,26.37-0.034,38.831,3.806
			c12.697,3.912,23.115,13.354,30.675,24.283c6.159,8.906,10.637,18.818,14.771,28.854c1.321,1.533,2.59,3.142,3.78,4.869
			c-4.963-12.324-9.985-24.768-17.546-35.693c-7.559-10.93-17.977-20.371-30.676-24.283c-12.459-3.84-25.902-2.094-38.828-3.806
			C65.924,71.118,49.7,66.835,36.362,57.7c-2.556-1.75-5.848-1.991-8.938-1.802c-3.092,0.19-6.191,0.753-9.267,0.387
			c-2.812-0.336-5.477-1.435-8.256-1.976c-2.78-0.542-5.916-0.435-8.108,1.358c0.526,0.228,1.059,0.446,1.588,0.669
			C5.133,55.854,7.089,55.929,8.896,56.28z"/>
	</g>
	<path fill="#78C184" d="M68.683,109.989c-0.294-0.585-0.857-0.988-1.469-1.189c-0.226-0.073-1.823-0.353-1.891,0.089
		c0.178-1.171-1.558-2.899-2.759-2.287c0.04-0.021,0.032-0.855,0.026-0.939c-0.045-0.646-0.478-1.225-1.043-1.525
		c-0.215-0.113-1.793-0.498-1.88-0.044c0.7-3.667,1.445-7.364,2.972-10.771c1.526-3.408,3.919-6.547,7.218-8.299
		c2.066-1.098,4.41-1.607,6.748-1.721c1.318-0.062,2.8-0.21,3.606,0.836c0.808,1.045,0.836,2.621,0.066,3.693
		c-1.189,1.658-3.563,1.732-5.493,2.395c-3.759,1.283-6.137,5.174-6.776,9.092C67.369,103.236,68.224,106.141,68.683,109.989z"/>
	<g>
		<path fill="#002920" d="M63.075,106.42c0,0-0.084-2.227-0.095-2.518c-0.021-0.293,0.022-0.592,0.031-0.906
			c0.033-0.629,0.069-1.301,0.105-1.971c0.097-0.668,0.194-1.336,0.285-1.963c0.054-0.312,0.072-0.621,0.149-0.901
			c0.068-0.282,0.588-2.444,0.588-2.444s-0.646,2.133-0.729,2.412c-0.094,0.278-0.131,0.585-0.202,0.896
			c-0.128,0.625-0.266,1.293-0.402,1.961c-0.076,0.681-0.151,1.361-0.223,1.998c-0.027,0.32-0.088,0.632-0.085,0.923
			c-0.006,0.291-0.022,1.114-0.025,1.251c0.063,0.16,0.106,0.328,0.118,0.503c0.004,0.062,0.009,0.504-0.003,0.76L63.075,106.42
			L63.075,106.42z"/>
		<path fill="#002920" d="M65.66,106.749c-0.026-0.271-0.054-0.563-0.084-0.874c-0.04-0.312-0.012-0.633-0.021-0.97
			c-0.002-0.675-0.003-1.392-0.005-2.11c0.065-0.72,0.131-1.438,0.192-2.111c0.04-0.336,0.042-0.668,0.108-0.972
			c0.058-0.306,0.495-2.644,0.495-2.644s-0.564,2.312-0.639,2.617c-0.083,0.303-0.104,0.633-0.161,0.97
			c-0.099,0.676-0.204,1.396-0.31,2.116c-0.037,0.729-0.075,1.463-0.11,2.146c-0.009,0.343-0.054,0.681-0.03,0.989
			c0.013,0.312,0.077,1.844,0.091,2.158c0.074,0.176,0.123,0.352,0.14,0.521l0.509-0.035
			C65.835,108.555,65.765,107.831,65.66,106.749z"/>
	</g>
	<path fill="#78C184" d="M133.514,118.859c-0.646,0.082-1.217,0.479-1.609,0.99c-0.146,0.188-0.938,1.601-0.547,1.811
		c-1.043-0.557-3.254,0.504-3.074,1.84c-0.008-0.044-0.797-0.314-0.879-0.337c-0.625-0.173-1.311,0.043-1.784,0.476
		c-0.181,0.163-1.067,1.523-0.667,1.758c-3.227-1.881-6.464-3.813-9.169-6.39c-2.705-2.575-4.868-5.876-5.423-9.567
		c-0.346-2.313-0.049-4.693,0.628-6.937c0.38-1.265,0.731-2.71,1.985-3.124c1.254-0.413,2.752,0.086,3.506,1.169
		c1.168,1.673,0.449,3.937,0.43,5.978c-0.04,3.972,2.834,7.51,6.314,9.416C126.708,117.85,129.732,118.011,133.514,118.859z"/>
	<g opacity="0.2">
		<path fill="#327461" d="M19.769,68.611c3.871,1.254,7.85,2.277,11.804,3.285c8.527,2.17,18.02,4.646,24.855,10.461
			c2.897,2.465,5.228,5.389,7.687,8.221c1.06-1.673,2.366-3.178,3.919-4.363c-2.927-1.874-5.861-3.732-8.875-5.427
			C47.088,74.003,33.562,69.828,19.769,68.611z"/>
		<path fill="#327461" d="M116.908,106.523c-0.008,0.754,0.091,1.492,0.277,2.207c5.348-0.402,10.748-0.646,15.899,0.278
			c7.494,1.351,14.231,5.542,19.774,10.777c-5.784-6.416-12.575-11.675-20.68-14.64c-4.871-1.781-9.97-2.635-15.137-3.215
			C117.323,103.365,116.924,105.007,116.908,106.523z"/>
		<path fill="#327461" d="M110.986,102.503c0.111-0.372,0.225-0.757,0.354-1.13c-7.105-0.634-14.236-1.196-20.999-3.348
			c-5.623-1.787-10.781-4.604-15.817-7.7c-2.444,0.931-4.284,2.969-5.408,5.383c4.08,3.628,8.695,6.656,13.669,8.912
			c7.804,3.539,16.451,5.187,25.012,4.789c0.844-0.039,1.689-0.093,2.543-0.149C110.035,107.002,110.33,104.688,110.986,102.503z"/>
	</g>
	<g>
		<path fill="#002920" d="M128.277,122.959c0,0-2.125-0.662-2.401-0.749c-0.283-0.078-0.551-0.218-0.844-0.331
			c-0.582-0.24-1.203-0.498-1.823-0.756c-0.598-0.314-1.195-0.628-1.756-0.923c-0.276-0.154-0.562-0.275-0.801-0.44
			c-0.243-0.158-2.109-1.367-2.109-1.367s1.796,1.317,2.032,1.49c0.229,0.182,0.508,0.317,0.776,0.488
			c0.547,0.329,1.131,0.681,1.715,1.031c0.617,0.299,1.231,0.598,1.812,0.877c0.292,0.132,0.565,0.293,0.841,0.387
			c0.273,0.104,1.045,0.393,1.172,0.439c0.172-0.006,0.346,0.011,0.514,0.058c0.06,0.017,0.479,0.159,0.718,0.256L128.277,122.959z"
			/>
		<path fill="#002920" d="M129.452,120.631c-0.265-0.064-0.55-0.137-0.853-0.212c-0.309-0.065-0.603-0.199-0.923-0.302
			c-0.636-0.225-1.312-0.461-1.991-0.698c-0.656-0.302-1.312-0.604-1.928-0.886c-0.304-0.149-0.615-0.262-0.88-0.426
			c-0.271-0.155-2.327-1.348-2.327-1.348s1.994,1.303,2.258,1.475c0.256,0.18,0.562,0.309,0.857,0.476
			c0.604,0.317,1.249,0.657,1.895,0.996c0.678,0.278,1.354,0.558,1.986,0.819c0.32,0.121,0.622,0.275,0.924,0.356
			c0.297,0.093,1.764,0.541,2.064,0.636c0.189-0.015,0.372,0,0.538,0.041l0.137-0.492
			C131.212,121.066,130.508,120.893,129.452,120.631z"/>
	</g>
</g>
</svg>
