<?xml version="1.0" encoding="utf-8"?>
<!-- Generator: Adobe Illustrator 16.0.4, SVG Export Plug-In . SVG Version: 6.00 Build 0)  -->
<!DOCTYPE svg PUBLIC "-//W3C//DTD SVG 1.1//EN" "http://www.w3.org/Graphics/SVG/1.1/DTD/svg11.dtd">
<svg version="1.1" id="Layer_1" xmlns="http://www.w3.org/2000/svg" xmlns:xlink="http://www.w3.org/1999/xlink" x="0px" y="0px"
	 width="170px" height="170px" viewBox="0 0 170 170" enable-background="new 0 0 170 170" xml:space="preserve">
<title>Artboard 9</title>
<g>
	<path fill="#4DA187" d="M168.694,166.023c-4.963-12.326-9.987-24.768-17.546-35.695c-7.558-10.929-17.976-20.371-30.674-24.283
		c-12.46-3.84-25.904-2.094-38.83-3.806c-16.026-2.122-32.25-6.405-45.588-15.54c-2.556-1.75-5.848-1.991-8.938-1.802
		c-3.092,0.19-6.191,0.753-9.267,0.387c-2.812-0.336-5.477-1.435-8.256-1.976c-2.78-0.542-5.916-0.435-8.108,1.358
		c7.827,3.381,16.014,6.237,24.153,8.777c-8.139,0.465-16.409-0.923-23.649-4.669c8.344,6.72,18.893,9.477,29.275,12.121
		c8.527,2.171,18.02,4.648,24.855,10.461c4.32,3.675,7.371,8.377,11.483,12.259c4.365,4.119,9.407,7.524,14.875,10.004
		c7.804,3.539,16.453,5.186,25.012,4.789c8.246-0.382,17.082-1.874,25.289-0.398c7.738,1.392,14.673,5.813,20.316,11.287
		C158.742,154.771,164.232,159.549,168.694,166.023z"/>
	<path fill="#3F7A6A" d="M132.781,138.011c-5.164-0.929-10.576-0.682-15.935-0.276c1.003,0.572,2.052,1.068,3.127,1.47
		c3.498,1.307,7.235,1.814,10.94,2.281c-0.461-0.059-0.177-1.658-0.076-1.88c0.266-0.582,0.814-1.051,1.456-1.137
		c0.084-0.012,0.917-0.072,0.94-0.034c-0.066-0.111-0.094-0.233-0.119-0.354C133.003,138.059,132.893,138.031,132.781,138.011z"/>
	<path fill="#3F7A6A" d="M82.697,133.711c-0.071-0.032-0.146-0.059-0.217-0.091c-3.326-1.509-6.493-3.364-9.447-5.511
		c0.006,0.079-0.001,0.158,0.007,0.237c0.311,3.25,2.046,6.234,4.289,8.608c2.242,2.373,4.981,4.212,7.71,6.005
		c-0.339-0.223,0.5-1.369,0.665-1.505c0.433-0.355,1.044-0.512,1.581-0.332c0.069,0.023,0.748,0.297,0.751,0.336
		c-0.094-1.175,1.886-1.999,2.771-1.464c-0.333-0.201,0.427-1.399,0.562-1.556c0.366-0.428,0.881-0.748,1.452-0.79
		c-3.263-0.917-5.897-1.198-8.851-3.026C83.53,134.35,83.104,134.042,82.697,133.711z"/>
	<path fill="#BDE0C4" d="M31.213,100.882c0.152-0.181,0.304-0.361,0.454-0.542c2.542-3.05,5.166-6.418,5.387-10.382
		c0.052-0.922-0.033-1.838-0.22-2.738c-0.26-0.173-0.521-0.345-0.777-0.521c-2.556-1.75-5.848-1.991-8.938-1.802
		c-3.092,0.19-6.191,0.753-9.267,0.387c-2.812-0.336-5.477-1.435-8.256-1.976c-2.78-0.542-5.916-0.435-8.108,1.358
		c7.827,3.381,16.014,6.237,24.153,8.777c-8.139,0.465-16.409-0.923-23.649-4.669C10.32,95.483,20.848,98.242,31.213,100.882z"/>
	<path fill="#498C7A" d="M120.475,106.045c-12.46-3.84-25.904-2.094-38.83-3.806c-15.789-2.091-31.768-6.282-44.992-15.142
		c0.104,1.856-0.023,3.75-0.21,5.546c13.192,6.579,27.466,12.922,42.009,15.336c11.443,1.9,23.286,1.112,34.538,3.932
		c12.295,3.082,23.276,10.396,31.983,19.607c8.623,9.124,17.801,22.243,23.134,33.677c0.197,0.274,0.395,0.548,0.588,0.828
		c-4.963-12.326-9.987-24.768-17.546-35.695C143.591,119.399,133.173,109.957,120.475,106.045z"/>
	<g>
		<path fill="#D1D3D4" d="M1.496,85.721c0.014,0.407,0.184,0.811,0.515,0.951c0.334,0.144,0.758-0.012,1.075-0.283
			c0.251-0.215,0.45-0.493,0.635-0.781c-0.692-0.288-1.385-0.576-2.072-0.872C1.56,85.063,1.486,85.395,1.496,85.721z"/>
		<path fill="#D1D3D4" d="M5.364,87.099c0.013,0.407,0.184,0.811,0.515,0.952c0.334,0.143,0.758-0.013,1.075-0.284
			c0.207-0.178,0.377-0.399,0.535-0.632c-0.678-0.266-1.352-0.54-2.025-0.812C5.402,86.582,5.356,86.842,5.364,87.099z"/>
		<path fill="#D1D3D4" d="M9.827,88.85c0.013,0.408,0.183,0.811,0.515,0.952c0.334,0.143,0.757-0.012,1.074-0.284
			c0.223-0.19,0.403-0.431,0.57-0.683c-0.688-0.253-1.374-0.506-2.059-0.765C9.865,88.331,9.818,88.592,9.827,88.85z"/>
		<path fill="#D1D3D4" d="M18.383,91.717c0.013,0.407,0.184,0.811,0.515,0.952c0.334,0.143,0.758-0.013,1.075-0.284
			c0.196-0.169,0.359-0.377,0.511-0.597c-0.681-0.225-1.36-0.452-2.04-0.682C18.402,91.311,18.376,91.515,18.383,91.717z"/>
		<path fill="#D1D3D4" d="M13.919,90.338c0.014,0.408,0.184,0.811,0.515,0.952c0.334,0.143,0.758-0.012,1.075-0.284
			c0.229-0.195,0.413-0.443,0.583-0.702c-0.692-0.24-1.384-0.485-2.075-0.731C13.956,89.828,13.911,90.085,13.919,90.338z"/>
	</g>
	<g>
		<circle fill="#FFFFFF" cx="30.48" cy="91.594" r="3.138"/>
		<circle fill="#002920" cx="30.479" cy="91.59" r="2.351"/>
		<circle fill="#FFFFFF" cx="29.685" cy="89.796" r="0.83"/>
	</g>
	<path fill="#002920" d="M5.054,84.636c0.49-0.59,1.463-0.695,2.068-0.225C6.706,85.097,5.606,85.216,5.054,84.636z"/>
	<path fill="#498C7A" d="M110.355,115.068c0.192,0.761-0.191,1.579-0.784,2.093c-0.594,0.514-1.363,0.772-2.126,0.958
		c-4.264,1.038-8.732,0.144-13.029-0.752c-1.022-0.214-2.087-0.445-2.901-1.1c-0.813-0.654-1.282-1.867-0.764-2.774
		c0.391-0.683,1.195-0.997,1.949-1.222c5.114-1.526,10.768-1.172,15.652,0.98C109.207,113.629,110.126,114.162,110.355,115.068z"/>
	<path fill="#498C7A" d="M124.656,117.76c0.21-0.237-0.08-0.585-0.348-0.757c-2.918-1.876-6.441-2.793-9.904-2.579
		c-0.237,0.015-0.497,0.045-0.662,0.216c-0.353,0.365,0.012,0.961,0.394,1.295c0.923,0.806,2.019,1.414,3.191,1.771
		c2.232,0.68,4.627,0.44,6.947,0.194C124.413,117.886,124.564,117.864,124.656,117.76z"/>
	<path fill="#498C7A" d="M82.765,110.805c-0.197,0.424,0,0.95,0.35,1.261s0.816,0.448,1.272,0.551
		c1.703,0.381,3.491,0.377,5.191-0.012c0.144-0.032,0.299-0.076,0.385-0.195c0.217-0.302-0.192-0.658-0.537-0.798
		c-1.538-0.624-3.146-1.076-4.785-1.345C83.948,110.152,83.061,110.169,82.765,110.805z"/>
	<path fill="#498C7A" d="M53.412,101.971c-0.28,0.374-0.194,0.93,0.084,1.306c0.279,0.375,0.708,0.605,1.134,0.799
		c1.589,0.722,3.34,1.083,5.084,1.05c0.147-0.002,0.308-0.014,0.416-0.113c0.273-0.251-0.054-0.683-0.362-0.89
		c-1.379-0.926-2.86-1.696-4.409-2.295C54.704,101.574,53.831,101.409,53.412,101.971z"/>
	<path fill="#498C7A" d="M115.412,118.932c-0.966-0.482-1.95-0.972-3.016-1.146c-0.283-0.046-0.603-0.062-0.827,0.117
		c-0.445,0.353-0.146,1.083,0.268,1.475c0.953,0.901,2.386,1.263,3.652,0.92c0.254-0.068,0.531-0.192,0.612-0.442
		C116.232,119.454,115.788,119.119,115.412,118.932z"/>
	<path fill="#498C7A" d="M131.719,121.07c-0.738-0.696-1.543-1.395-2.53-1.628c-0.652-0.154-1.401-0.034-1.938,0.339
		c-0.423,0.295-0.421,0.934-0.008,1.241c1.112,0.826,2.291,1.563,3.521,2.201c0.293,0.152,0.621,0.243,0.949,0.214
		c0.88-0.079,1.008-0.874,0.759-1.435C132.309,121.635,132.012,121.346,131.719,121.07z"/>
	<path fill="#498C7A" d="M120.713,120.652c-0.019,0.236,0.234,0.392,0.452,0.482c1.136,0.476,2.342,0.784,3.566,0.912
		c0.094-0.176,0.188-0.353,0.28-0.529c-0.975-0.942-2.385-1.415-3.731-1.252C121.033,120.296,120.732,120.404,120.713,120.652z"/>
	<path fill="#498C7A" d="M134.939,124.88c-0.203,0.424,0.08,0.915,0.379,1.277c0.88,1.066,2.014,1.921,3.281,2.475
		c0.45-0.183,0.825-0.545,1.023-0.988c-0.678-1.211-1.7-2.226-2.916-2.895C136.125,124.43,135.226,124.28,134.939,124.88z"/>
	<path fill="#498C7A" d="M81.219,109.606c-0.144-0.581-0.655-1.016-1.217-1.227c-0.562-0.21-1.172-0.234-1.771-0.256
		c-1.224-0.044-2.447-0.088-3.671-0.132c-0.493-0.019-1.084,0.015-1.337,0.438c-0.24,0.404,0.004,0.956,0.397,1.213
		s0.886,0.297,1.355,0.329c1.671,0.115,3.342,0.23,5.013,0.346c0.275,0.019,0.562,0.036,0.817-0.069
		C81.062,110.145,81.272,109.878,81.219,109.606z"/>
	<path fill="#498C7A" d="M131.666,126.007c0.519,0.366,1.038,0.733,1.557,1.1c0.346,0.244,0.795,0.496,1.162,0.287
		c0.458-0.261,0.311-1.003-0.095-1.34c-0.405-0.336-0.954-0.439-1.405-0.71c-0.299-0.18-0.558-0.434-0.888-0.544
		c-0.33-0.111-0.777-0.002-0.87,0.333C131.029,125.486,131.367,125.796,131.666,126.007z"/>
	<path fill="#498C7A" d="M142.202,130.738c0.611,0.272,0.599,2.02,1.93,1.874c0.065-1.049-0.532-2.109-1.463-2.596
		c-0.122-0.064-0.264-0.119-0.394-0.074C141.986,130.042,141.923,130.614,142.202,130.738z"/>
	<path fill="#498C7A" d="M146.312,135.457c0.611,0.272,0.6,2.02,1.93,1.874c0.065-1.048-0.532-2.108-1.463-2.596
		c-0.121-0.063-0.264-0.119-0.394-0.074C146.097,134.762,146.033,135.333,146.312,135.457z"/>
	<path fill="#498C7A" d="M70.961,107.645c-0.792-0.641-1.881-0.885-2.876-0.68c-0.328,0.067-0.437,0.472-0.186,0.695
		c0.769,0.682,1.819,1.048,2.846,0.963c0.194-0.017,0.412-0.063,0.513-0.23C71.41,108.141,71.19,107.829,70.961,107.645z"/>
	<path fill="#498C7A" d="M65.431,105.82c-0.792-0.641-1.881-0.884-2.876-0.68c-0.328,0.068-0.437,0.472-0.186,0.695
		c0.769,0.683,1.819,1.048,2.846,0.963c0.193-0.017,0.412-0.063,0.513-0.23C65.88,106.316,65.659,106.005,65.431,105.82z"/>
	<g opacity="0.21">
		<path fill="#FFFFFF" d="M8.591,85.28c2.779,0.542,5.443,1.641,8.256,1.976c3.075,0.367,6.175-0.195,9.266-0.386
			c3.092-0.189,6.384,0.052,8.938,1.802c13.339,9.135,29.562,13.418,45.589,15.54c12.926,1.712,26.37-0.034,38.83,3.806
			c12.698,3.912,23.116,13.354,30.674,24.283c6.16,8.906,10.637,18.818,14.77,28.854c1.322,1.533,2.589,3.14,3.781,4.869
			c-4.963-12.326-9.987-24.768-17.546-35.695c-7.558-10.929-17.976-20.371-30.674-24.283c-12.46-3.84-25.904-2.094-38.83-3.806
			c-16.026-2.122-32.25-6.405-45.588-15.54c-2.556-1.75-5.848-1.991-8.938-1.802c-3.092,0.19-6.191,0.753-9.267,0.387
			c-2.812-0.336-5.477-1.435-8.256-1.976c-2.78-0.542-5.916-0.435-8.108,1.358c0.526,0.228,1.059,0.446,1.588,0.669
			C4.827,84.854,6.783,84.929,8.591,85.28z"/>
	</g>
	<path fill="#498C7A" d="M68.377,138.989c-0.294-0.585-0.857-0.988-1.469-1.189c-0.226-0.073-1.823-0.353-1.891,0.088
		c0.178-1.17-1.558-2.9-2.759-2.287c0.04-0.021,0.032-0.856,0.026-0.94c-0.045-0.646-0.478-1.224-1.043-1.525
		c-0.215-0.114-1.793-0.499-1.88-0.044c0.7-3.667,1.445-7.365,2.972-10.772c1.526-3.408,3.919-6.547,7.218-8.298
		c2.066-1.097,4.41-1.608,6.748-1.72c1.318-0.062,2.8-0.21,3.606,0.835c0.808,1.044,0.836,2.622,0.066,3.694
		c-1.189,1.658-3.563,1.733-5.493,2.394c-3.759,1.284-6.137,5.173-6.776,9.092S67.918,135.141,68.377,138.989z"/>
	<g>
		<path fill="#002920" d="M62.77,135.42c0,0-0.084-2.227-0.095-2.518c-0.021-0.293,0.022-0.591,0.031-0.906
			c0.033-0.629,0.069-1.3,0.105-1.971c0.097-0.668,0.194-1.336,0.285-1.962c0.054-0.312,0.072-0.622,0.149-0.902
			c0.068-0.282,0.588-2.444,0.588-2.444s-0.646,2.132-0.729,2.412c-0.094,0.278-0.131,0.585-0.202,0.896
			c-0.128,0.626-0.266,1.294-0.402,1.961c-0.076,0.681-0.151,1.361-0.223,1.999c-0.027,0.319-0.088,0.631-0.085,0.922
			c-0.006,0.291-0.022,1.115-0.025,1.251c0.063,0.16,0.106,0.329,0.118,0.503c0.004,0.061,0.009,0.504-0.003,0.76H62.77z"/>
		<path fill="#002920" d="M65.354,135.749c-0.026-0.271-0.054-0.564-0.084-0.874c-0.04-0.312-0.012-0.633-0.021-0.97
			c-0.002-0.674-0.003-1.392-0.005-2.11c0.065-0.72,0.131-1.438,0.192-2.112c0.04-0.336,0.042-0.668,0.108-0.971
			c0.058-0.306,0.495-2.643,0.495-2.643s-0.564,2.313-0.639,2.617c-0.083,0.302-0.104,0.633-0.161,0.969
			c-0.099,0.676-0.204,1.396-0.31,2.117c-0.037,0.73-0.075,1.462-0.11,2.146c-0.009,0.343-0.054,0.679-0.03,0.989
			c0.013,0.312,0.077,1.844,0.091,2.159c0.074,0.175,0.123,0.351,0.14,0.521l0.509-0.035
			C65.529,137.554,65.459,136.831,65.354,135.749z"/>
	</g>
	<path fill="#498C7A" d="M133.208,147.859c-0.648,0.083-1.217,0.48-1.61,0.99c-0.145,0.188-0.939,1.601-0.547,1.811
		c-1.043-0.557-3.254,0.504-3.075,1.84c-0.006-0.044-0.796-0.314-0.878-0.337c-0.624-0.173-1.312,0.043-1.785,0.475
		c-0.18,0.164-1.068,1.524-0.667,1.759c-3.226-1.882-6.464-3.815-9.169-6.39s-4.868-5.876-5.421-9.568
		c-0.346-2.314-0.049-4.694,0.626-6.936c0.38-1.265,0.733-2.71,1.987-3.124c1.254-0.413,2.751,0.086,3.506,1.169
		c1.167,1.673,0.448,3.937,0.428,5.977c-0.04,3.971,2.834,7.509,6.316,9.417C126.402,146.85,129.427,147.011,133.208,147.859z"/>
	<g opacity="0.2">
		<path fill="#327461" d="M19.463,97.612c3.871,1.253,7.85,2.276,11.804,3.284c8.527,2.171,18.02,4.648,24.855,10.461
			c2.897,2.465,5.228,5.389,7.687,8.221c1.06-1.673,2.366-3.177,3.919-4.363c-2.927-1.874-5.861-3.733-8.875-5.427
			C46.782,103.003,33.256,98.828,19.463,97.612z"/>
		<path fill="#327461" d="M116.603,135.524c-0.008,0.754,0.091,1.492,0.277,2.207c5.348-0.403,10.748-0.647,15.901,0.279
			c7.494,1.349,14.232,5.542,19.776,10.777c-5.786-6.416-12.577-11.674-20.681-14.638c-4.871-1.783-9.969-2.636-15.136-3.216
			C117.018,132.365,116.618,134.007,116.603,135.524z"/>
		<path fill="#327461" d="M110.682,131.503c0.111-0.372,0.224-0.757,0.354-1.13c-7.106-0.634-14.238-1.196-20.999-3.347
			c-5.623-1.788-10.781-4.605-15.817-7.701c-2.444,0.931-4.284,2.969-5.408,5.383c4.08,3.628,8.695,6.656,13.669,8.912
			c7.804,3.539,16.453,5.186,25.012,4.789c0.842-0.039,1.69-0.092,2.543-0.149C109.729,136.002,110.024,133.687,110.682,131.503z"/>
	</g>
	<g>
		<path fill="#002920" d="M127.973,151.959c0,0-2.125-0.662-2.402-0.749c-0.283-0.078-0.551-0.218-0.844-0.331
			c-0.582-0.241-1.203-0.498-1.823-0.756c-0.598-0.314-1.195-0.628-1.756-0.923c-0.276-0.154-0.562-0.275-0.801-0.44
			c-0.243-0.158-2.109-1.368-2.109-1.368s1.796,1.318,2.032,1.491c0.23,0.181,0.508,0.317,0.777,0.488
			c0.547,0.329,1.131,0.681,1.715,1.032c0.616,0.298,1.232,0.597,1.811,0.876c0.292,0.132,0.566,0.293,0.841,0.387
			c0.273,0.103,1.044,0.393,1.172,0.44c0.172-0.007,0.345,0.01,0.513,0.057c0.059,0.016,0.48,0.159,0.717,0.256L127.973,151.959z"/>
		<path fill="#002920" d="M129.146,149.631c-0.264-0.065-0.55-0.137-0.853-0.212c-0.307-0.065-0.601-0.199-0.921-0.302
			c-0.636-0.224-1.313-0.461-1.992-0.698c-0.656-0.302-1.312-0.604-1.927-0.886c-0.304-0.149-0.616-0.261-0.88-0.426
			c-0.27-0.155-2.327-1.346-2.327-1.346s1.994,1.302,2.256,1.473c0.257,0.18,0.562,0.309,0.859,0.476
			c0.604,0.317,1.249,0.657,1.894,0.996c0.677,0.279,1.354,0.558,1.987,0.819c0.32,0.122,0.622,0.277,0.922,0.358
			c0.298,0.091,1.765,0.541,2.066,0.634c0.19-0.013,0.372,0,0.538,0.041l0.137-0.491
			C130.906,150.067,130.202,149.893,129.146,149.631z"/>
	</g>
</g>
</svg>
