<?xml version="1.0" encoding="utf-8"?>
<!-- Generator: Adobe Illustrator 16.0.4, SVG Export Plug-In . SVG Version: 6.00 Build 0)  -->
<!DOCTYPE svg PUBLIC "-//W3C//DTD SVG 1.1//EN" "http://www.w3.org/Graphics/SVG/1.1/DTD/svg11.dtd">
<svg version="1.1" id="Layer_1" xmlns="http://www.w3.org/2000/svg" xmlns:xlink="http://www.w3.org/1999/xlink" x="0px" y="0px"
	 width="170px" height="170px" viewBox="0 0 170 170" enable-background="new 0 0 170 170" xml:space="preserve">
<title>Artboard 9</title>
<g>
	<path fill="#0C868B" d="M121.973,132.065c-4.656,1.53-9.513,2.323-14.389,2.447c-0.615,4.8-0.146,9.72,1.395,14.337l0.59,0.128
		c2.513,0.545,5.125,0.577,7.652,0.093l1.155-0.221c0.291-4.399,1.313-8.919,2.987-13.184
		C121.488,134.448,121.689,133.243,121.973,132.065z"/>
	<g>
		<path fill="#0C6B68" d="M114.423,146.38c-0.176,1.002-0.353,2.007-0.528,3.011c0.267-0.004,0.532-0.016,0.799-0.031
			c0.274-0.015,0.553-0.026,0.826-0.053c0.105-0.01,0.213-0.031,0.319-0.043C115.768,148.181,115.268,147.125,114.423,146.38z"/>
		<path fill="#0C6B68" d="M111.061,146.27c-0.17,0.956-0.338,1.914-0.506,2.868c0.645,0.105,1.291,0.176,1.94,0.216
			C112.48,148.2,111.956,147.063,111.061,146.27z"/>
		<path fill="#0C6B68" d="M118.331,148.856c-0.185-1.081-0.714-2.088-1.476-2.74c-0.01,1.003-0.019,2.006-0.027,3.01
			c0.13-0.022,0.264-0.03,0.393-0.056L118.331,148.856z"/>
	</g>
	<path fill="#33B0BF" d="M114.062,19.636c-0.342-6.199,4.492-12.09,10.754-14.201s13.509-0.757,19.019,2.729
		c5.511,3.485,9.396,8.888,11.763,14.69c2.368,5.801,3.322,12.019,3.887,18.203c2.998,32.936-4.941,66.663-22.457,95.403
		c-2.344,3.846-3.088,8.834-1.936,13.146c0.079,0.294-0.131,0.682-0.455,0.682l-5.654,0.131c-0.482,0.011-2.248-0.137-2.726-0.22
		c-1.04-0.183-1.959-0.41-2.188-0.811c-3.057-5.318-3.461-11.631-2.096-17.323c-11.539,3.795-24.309,3.133-35.568-1.332
		c-0.152,3.278-3.15,5.086-5.283,7.697c-2.45,2.999-4.353,6.998-3.686,11.308c0.115,0.748-0.66,0.613-1.472,0.613
		c0,0-3.775,0.52-7.929-0.291c-1.191-0.233-2.384-0.59-2.439-1.031c-0.806-6.389,0.414-13.122,2.424-19.418
		c-18.526,12.867-43.224,18.191-65.885,14.01c15.118-0.008,31.036-1.977,42.448-11.223c11.228-9.096,15.633-23.514,25.202-34.13
		c7.009-7.776,16.802-13.333,27.431-15.563c10.631-2.233,22.032-1.129,31.941,3.095c3.164-0.659,4.953-3.299,6.605-5.901
		c4.442-6.995,7.454-14.718,9.631-22.59c2.453-8.864,3.873-18.2,1.889-27.165c-0.828-3.734-2.164-8.678-5.243-11.188
		c-3.078-2.509-8.47,0.327-11.476,0.127c0.406-1.297,0.515-2.885,0.924-4.182c-1.233,2.772-4.532,4.528-7.73,4.886
		C120.561,20.143,117.193,20.33,114.062,19.636z"/>
	<path fill="#0C868B" d="M96.424,133.613c-3.42-0.64-6.783-1.598-10.02-2.881c-0.153,3.279-3.151,5.086-5.284,7.697
		c-0.237,0.291-0.464,0.597-0.689,0.906c0.446,3.163,1.464,6.256,3.031,9.095l0.049,0.01c3.199,0.689,6.522,0.713,9.733,0.074
		l0.42-0.084c-1.048-3.321-0.048-6.794,1.16-10.067C95.4,136.807,96.003,135.217,96.424,133.613z"/>
	<path fill="#0C3648" d="M126.77,9.04c0,0,0.027,0.131,0.096,0.347c0.046,0.1,0.084,0.211,0.17,0.332
		c0.072,0.122,0.183,0.243,0.309,0.358c0.493,0.46,1.495,0.816,2.363,0.712c0.234-0.018,0.335-0.071,0.607-0.204
		c0.197-0.125,0.32-0.181,0.478-0.351c0.157-0.137,0.271-0.309,0.396-0.464c0.08-0.177,0.211-0.332,0.262-0.503
		c0.146-0.327,0.216-0.632,0.254-0.849c0.04-0.223,0.061-0.351,0.061-0.351s0.051,0.119,0.125,0.342
		c0.063,0.221,0.129,0.561,0.078,0.971c-0.002,0.21-0.083,0.425-0.146,0.66c-0.11,0.218-0.197,0.473-0.395,0.683
		c-0.142,0.215-0.449,0.462-0.688,0.613c-0.192,0.111-0.582,0.302-0.896,0.321c-1.31,0.151-2.488-0.505-2.941-1.275
		c-0.233-0.38-0.262-0.753-0.229-0.994C126.716,9.162,126.77,9.04,126.77,9.04z"/>
	<path fill="#0C3648" d="M116.744,17.25c-0.35,0.306-0.811,0.5-1.286,0.543c-0.015-0.333-0.024-0.675,0.074-0.995
		c0.102-0.319,0.337-0.623,0.676-0.73c0.339-0.106,0.774,0.047,0.879,0.367C117.184,16.729,116.984,17.04,116.744,17.25z"/>
	<path fill="#ADE0F0" d="M151.9,32.371c-0.385-4.522-1.463-9.11-4.143-12.897c-2.678-3.787-7.177-6.661-12.043-6.685
		c-5.054-0.025-11.548,4.072-15.898,7.296c1.324-0.042,2.646-0.155,3.939-0.299c3.198-0.358,6.497-2.115,7.73-4.886
		c-0.409,1.297-0.518,2.884-0.924,4.182c3.006,0.199,8.396-2.637,11.476-0.127c3.079,2.511,4.415,7.456,5.243,11.188
		c1.984,8.966,0.564,18.3-1.889,27.166c-0.326,1.185-0.681,2.363-1.047,3.539c-0.023,0.07-0.047,0.139-0.068,0.209
		c-0.362,1.152-0.748,2.298-1.153,3.438C149.712,55.065,152.854,43.586,151.9,32.371z"/>
	<g>
		<path fill="#81CAD1" d="M146.838,28.272c0.078,0.31,0.153,0.615,0.225,0.915c1.394-0.147,2.932-0.666,4.164-1.396
			c-0.067-0.323-0.145-0.643-0.224-0.964C149.823,27.6,148.221,28.148,146.838,28.272z"/>
		<path fill="#81CAD1" d="M145.861,55.562c-0.077,0.297-0.158,0.594-0.236,0.89c0.421,0.058,0.859,0.09,1.314,0.09
			c0.236,0,0.476-0.008,0.713-0.021c0.145-0.316,0.287-0.634,0.423-0.954C147.307,55.631,146.534,55.642,145.861,55.562z"/>
		<path fill="#81CAD1" d="M145.889,25.104c0.104,0.294,0.204,0.59,0.299,0.885c1.396-0.275,2.903-1.057,3.981-1.895
			c-0.116-0.309-0.251-0.608-0.379-0.911C148.732,24.086,147.133,24.877,145.889,25.104z"/>
		<path fill="#81CAD1" d="M146.924,18.4c-0.207-0.247-0.423-0.489-0.646-0.725c-0.758,0.958-1.935,2.038-2.937,2.609
			c0.196,0.242,0.386,0.495,0.563,0.757C145.016,20.402,146.152,19.33,146.924,18.4z"/>
		<path fill="#81CAD1" d="M148.915,21.362c-0.163-0.301-0.337-0.598-0.519-0.891c-0.763,0.994-2.043,2.107-3.324,2.641
			c0.133,0.28,0.259,0.563,0.379,0.852C146.794,23.411,148.064,22.354,148.915,21.362z"/>
		<path fill="#81CAD1" d="M141.954,18.896c0.979-0.627,2.017-1.714,2.653-2.763c-0.254-0.206-0.517-0.403-0.784-0.593
			c-0.634,1.099-1.86,2.357-2.812,2.81C141.343,18.491,141.659,18.667,141.954,18.896z"/>
		<path fill="#81CAD1" d="M151.634,30.076c-1.089,0.935-2.616,1.413-4.101,1.341c0.058,0.311,0.109,0.622,0.16,0.934
			c0.053,0.001,0.104,0.005,0.158,0.005c1.398,0,2.789-0.417,3.922-1.197C151.732,30.799,151.686,30.438,151.634,30.076z"/>
		<path fill="#81CAD1" d="M148.146,41.728c-0.018,0.307-0.039,0.614-0.06,0.921c1.259-0.003,2.515-0.27,3.646-0.778
			c0.045-0.373,0.095-0.747,0.129-1.122C150.746,41.374,149.45,41.714,148.146,41.728z"/>
		<path fill="#81CAD1" d="M148.198,37.945c0.009,0.31,0.017,0.619,0.018,0.927c1.324-0.02,2.64-0.329,3.813-0.902
			c0.013-0.362,0.025-0.722,0.029-1.083C150.906,37.562,149.559,37.924,148.198,37.945z"/>
		<path fill="#81CAD1" d="M147.988,34.6c0.031,0.309,0.062,0.617,0.088,0.927c0.047,0,0.092,0.004,0.139,0.004
			c1.338,0,2.669-0.346,3.818-0.983c-0.014-0.355-0.041-0.711-0.062-1.067C150.82,34.252,149.402,34.649,147.988,34.6z"/>
		<path fill="#81CAD1" d="M147.295,49.017c-0.054,0.304-0.111,0.607-0.17,0.913c0.566,0.106,1.159,0.159,1.742,0.159
			c0.414,0,0.814-0.031,1.203-0.08c0.098-0.325,0.197-0.648,0.287-0.975C149.387,49.221,148.275,49.208,147.295,49.017z"/>
		<path fill="#81CAD1" d="M147.863,45.079c-0.033,0.304-0.07,0.607-0.11,0.912c0.394,0.05,0.794,0.084,1.204,0.084
			c0.738,0,1.477-0.09,2.148-0.254c0.068-0.338,0.141-0.675,0.201-1.016C150.296,45.14,149.004,45.23,147.863,45.079z"/>
		<path fill="#81CAD1" d="M146.703,52.022c-0.064,0.303-0.135,0.605-0.204,0.909c0.146,0.006,0.292,0.016,0.44,0.016
			c0.748,0,1.52-0.066,2.231-0.164c0.117-0.328,0.229-0.658,0.341-0.988C148.619,51.94,147.617,52.038,146.703,52.022z"/>
	</g>
	<path fill="#0C868B" d="M123.134,7.08c-0.268,0.172-0.516,0.373-0.723,0.606c-0.114,0.126-0.222,0.292-0.163,0.449
		c0.064,0.173,0.294,0.233,0.49,0.249c0.859,0.07,1.746-0.231,2.357-0.8c0.166-0.156,0.317-0.34,0.36-0.557
		c0.044-0.216-0.052-0.469-0.267-0.561c-0.146-0.061-0.312-0.041-0.465-0.013C124.156,6.56,123.611,6.773,123.134,7.08z"/>
	<path fill="#0C868B" d="M129.164,5.273c-0.434,0.009-0.871,0.018-1.277,0.152c-0.408,0.135-0.781,0.418-0.896,0.806
		c0.785,0.418,1.822,0.386,2.574-0.082c0.213-0.132,0.42-0.35,0.347-0.577C129.825,5.312,129.456,5.268,129.164,5.273z"/>
	<path fill="#0C868B" d="M120.994,9.121c0.099,0.087-0.065,0.398-0.366,0.696c-0.302,0.298-0.626,0.469-0.725,0.382
		s0.065-0.399,0.366-0.696C120.57,9.205,120.896,9.033,120.994,9.121z"/>
	<path fill="#0C868B" d="M123.523,9.332c0.061,0.114-0.21,0.353-0.604,0.534c-0.395,0.181-0.762,0.235-0.822,0.122
		c-0.061-0.114,0.211-0.353,0.604-0.534S123.464,9.218,123.523,9.332z"/>
	
		<ellipse transform="matrix(0.9992 -0.0387 0.0387 0.9992 -0.105 5.1174)" fill="#0C868B" cx="131.994" cy="5.269" rx="0.794" ry="0.231"/>
	<path fill="#ADE0F0" d="M67.799,129.524c0.784-1.962,1.775-3.852,2.952-5.633c-10.081,6.377-21.935,12.17-31.389,15.714
		c-11.058,4.143-23.304,6.249-34.969,3.996c-0.056,0-0.112,0.002-0.168,0.002c0.184,0.158,0.38,0.302,0.568,0.455
		c21.779,3.29,45.117-2.019,62.88-14.215C67.715,129.738,67.757,129.631,67.799,129.524z"/>
	<path fill="#ADE0F0" d="M123.439,126.4c0.086-0.18,0.188-0.354,0.278-0.534c-4.708,1.574-9.846,2.164-14.864,2.038
		c-7.918-0.197-15.065-1.405-22.742-3.229c0.459,2.141,0.666,3.901,0.293,6.058c10.451,3.957,24.976,5.591,35.438,1.905
		C122.698,130.594,122.488,128.414,123.439,126.4z"/>
	<path fill="#0C868B" d="M100.84,85.998c0.275-0.125,0.551-0.27,0.749-0.486c0.197-0.218,0.304-0.53,0.197-0.797
		c-0.159-0.395-0.675-0.53-1.122-0.585c-2.342-0.295-4.781,0.149-6.831,1.244c-0.216,0.114-0.437,0.244-0.571,0.438
		c-0.136,0.197-0.16,0.479,0.006,0.65c0.109,0.114,0.273,0.162,0.434,0.2C96.062,87.244,98.646,87.004,100.84,85.998z"/>
	<path fill="#0C868B" d="M110.143,86.147c0.26-0.127,0.53-0.325,0.539-0.599c0.008-0.328-0.354-0.548-0.679-0.676
		c-1.528-0.605-3.259-0.76-4.883-0.437c-0.298,0.06-0.601,0.14-0.835,0.32c-0.234,0.179-0.383,0.485-0.284,0.754
		c0.121,0.333,0.538,0.466,0.903,0.558c0.863,0.217,1.732,0.433,2.625,0.497C108.422,86.628,109.348,86.532,110.143,86.147z"/>
	<ellipse fill="#0C868B" cx="115.499" cy="85.106" rx="2.097" ry="0.834"/>
	<ellipse fill="#0C868B" cx="108.95" cy="88.339" rx="0.96" ry="0.448"/>
	<ellipse fill="#0C868B" cx="102.898" cy="87.434" rx="1.072" ry="0.459"/>
	<ellipse fill="#0C868B" cx="99.085" cy="89.012" rx="1.136" ry="0.671"/>
	<ellipse fill="#0C868B" cx="94.372" cy="88.452" rx="1.22" ry="0.56"/>
	<path fill="#0C868B" d="M87.075,92.959c0.307-0.163,0.626-0.182,0.712-0.041c0.088,0.142-0.09,0.39-0.396,0.553
		c-0.307,0.164-0.626,0.184-0.713,0.042C86.591,93.372,86.77,93.124,87.075,92.959z"/>
	<path fill="#0C868B" d="M76.947,95.033c0.307-0.165,0.625-0.184,0.712-0.043c0.086,0.142-0.092,0.387-0.398,0.552
		c-0.307,0.164-0.625,0.184-0.712,0.043C76.462,95.444,76.64,95.197,76.947,95.033z"/>
	<path fill="#0C868B" d="M91.715,90.754c0.344-0.08,0.656-0.017,0.697,0.141c0.043,0.157-0.201,0.35-0.544,0.43
		s-0.655,0.018-0.697-0.141C91.129,91.026,91.373,90.834,91.715,90.754z"/>
	<path fill="#0C868B" d="M88.738,90.286c-1.625,0.57-3.172,0.464-3.454-0.236c-0.282-0.701,0.807-1.729,2.432-2.299
		s3.172-0.464,3.454,0.237C91.453,88.688,90.364,89.718,88.738,90.286z"/>
	<path fill="#0C868B" d="M82.946,93.885c-1.246,0.436-2.431,0.353-2.647-0.185c-0.217-0.537,0.618-1.326,1.863-1.763
		c1.246-0.436,2.431-0.353,2.647,0.185C85.026,92.659,84.191,93.448,82.946,93.885z"/>
	<g>
		<path fill="#81CAD1" d="M38.999,139.735c-0.324,0.12-0.651,0.236-0.978,0.353c0.041,0.848,0.25,1.683,0.618,2.456
			c0.325-0.077,0.65-0.152,0.974-0.231C39.205,141.51,38.989,140.627,38.999,139.735z"/>
		<path fill="#81CAD1" d="M35.168,141.058c-0.322,0.101-0.646,0.196-0.97,0.294c0.07,0.697,0.252,1.381,0.536,2.028
			c0.331-0.062,0.661-0.122,0.989-0.188C35.403,142.519,35.214,141.794,35.168,141.058z"/>
		<path fill="#81CAD1" d="M26.175,143.346c-0.004,0.42,0.052,0.839,0.176,1.242c0.337-0.032,0.675-0.062,1.013-0.1
			c-0.157-0.432-0.225-0.892-0.19-1.344C26.841,143.214,26.508,143.282,26.175,143.346z"/>
		<path fill="#81CAD1" d="M31.186,142.207c-0.323,0.086-0.646,0.168-0.971,0.248c0.089,0.554,0.254,1.093,0.494,1.604
			c0.344-0.05,0.688-0.098,1.031-0.15C31.457,143.374,31.268,142.802,31.186,142.207z"/>
		<path fill="#81CAD1" d="M58.223,131.074c-0.295,0.154-0.592,0.308-0.887,0.459c0.363,1.24,0.969,2.407,1.779,3.438
			c0.289-0.15,0.575-0.306,0.862-0.458C59.156,133.49,58.555,132.32,58.223,131.074z"/>
		<path fill="#81CAD1" d="M63.405,128.266c-0.298,0.168-0.597,0.335-0.896,0.5c0.294,1.206,0.875,2.354,1.683,3.336
			c0.277-0.17,0.55-0.344,0.824-0.517C64.206,130.62,63.643,129.467,63.405,128.266z"/>
		<path fill="#81CAD1" d="M52.994,133.706c-0.307,0.149-0.612,0.293-0.917,0.439c0.248,1.239,0.668,2.436,1.246,3.567
			c0.299-0.129,0.596-0.264,0.895-0.396C53.633,136.177,53.217,134.962,52.994,133.706z"/>
		<path fill="#81CAD1" d="M48.274,135.911c-0.314,0.14-0.626,0.28-0.939,0.418c0.173,1.15,0.558,2.266,1.136,3.29
			c0.309-0.11,0.619-0.221,0.926-0.336C48.793,138.243,48.408,137.093,48.274,135.911z"/>
		<path fill="#81CAD1" d="M43.608,141.222c0.321-0.096,0.64-0.197,0.959-0.296c-0.581-0.886-1.06-1.828-1.429-2.805
			c-0.306,0.126-0.606,0.244-0.91,0.368C42.592,139.435,43.055,140.352,43.608,141.222z"/>
	</g>
	<g>
		<path fill="#81CAD1" d="M100.523,127.31c-0.34-0.039-0.678-0.084-1.016-0.126c-0.845,2.139-1.173,4.471-0.958,6.744
			c0.341,0.056,0.681,0.112,1.021,0.162C99.312,131.803,99.639,129.45,100.523,127.31z"/>
		<path fill="#81CAD1" d="M95.534,126.599c-1.263,1.879-1.941,4.108-1.949,6.33c0.327,0.08,0.653,0.162,0.983,0.238
			c-0.047-2.258,0.666-4.537,2.022-6.397C96.238,126.714,95.887,126.656,95.534,126.599z"/>
		<path fill="#81CAD1" d="M91.923,125.945c-0.33-0.064-0.664-0.137-0.995-0.206c-0.98,1.873-1.486,3.953-1.475,6.04
			c0.331,0.104,0.658,0.213,0.995,0.313C90.376,129.972,90.887,127.835,91.923,125.945z"/>
		<path fill="#81CAD1" d="M104.604,127.687c-0.34-0.023-0.681-0.046-1.019-0.074c-0.821,2.183-1.095,4.549-0.803,6.85
			c0.337,0.032,0.674,0.069,1.01,0.094C103.464,132.251,103.736,129.864,104.604,127.687z"/>
		<path fill="#81CAD1" d="M108.232,127.877c-0.336-0.009-0.668-0.024-1-0.042c-0.535,2.255-0.502,4.634,0.109,6.865
			c0.34,0.005,0.682,0.017,1.02,0.013C107.708,132.5,107.673,130.117,108.232,127.877z"/>
		<path fill="#81CAD1" d="M119.805,126.928c-0.357,0.077-0.717,0.148-1.076,0.216c-0.422,2.04-0.147,4.213,0.793,6.095
			c0.319-0.092,0.631-0.197,0.944-0.296C119.508,131.095,119.286,128.924,119.805,126.928z"/>
		<path fill="#81CAD1" d="M116.113,127.554c-0.348,0.045-0.695,0.08-1.043,0.115c-0.383,2.147-0.146,4.376,0.693,6.41
			c0.334-0.058,0.668-0.119,1-0.184C115.898,131.891,115.676,129.675,116.113,127.554z"/>
		<path fill="#81CAD1" d="M112.091,127.875c-0.345,0.015-0.69,0.026-1.036,0.033c-0.602,2.192-0.445,4.574,0.453,6.674
			c0.344-0.022,0.688-0.047,1.029-0.079C111.573,132.439,111.424,130.044,112.091,127.875z"/>
	</g>
	<g opacity="0.29">
		<path fill="#FFFFFF" d="M43.734,133.788c5.784-4.687,9.757-10.786,13.56-17.05c-3.552,5.77-7.354,11.319-12.711,15.659
			c-11.412,9.246-27.33,11.214-42.448,11.223c2.748,0.507,5.528,0.87,8.322,1.103C22.621,143.915,34.616,141.175,43.734,133.788z"/>
		<path fill="#FFFFFF" d="M68.936,99.659c7.009-7.776,16.802-13.335,27.432-15.567c10.629-2.232,22.03-1.125,31.94,3.097
			c3.164-0.659,4.952-3.3,6.604-5.9c0.224-0.353,0.427-0.714,0.644-1.069c-1.598,2.495-3.365,4.948-6.398,5.578
			c-9.909-4.223-21.311-5.327-31.941-3.094c-10.629,2.231-20.422,7.787-27.431,15.563C66.248,102.192,65.763,103.176,68.936,99.659z
			"/>
		<path fill="#FFFFFF" d="M154.673,20.754c0-0.933-1.442-2.707-1.969-3.537c-0.763-1.203-1.603-2.362-2.526-3.462
			c-0.919-1.093-1.921-2.128-3.003-3.083c-0.401-0.354-3.34-2.183-3.34-2.508c-5.51-3.485-12.757-4.839-19.019-2.729
			c-3.969,1.338-7.359,4.198-9.228,7.69c3.244-6.067,12.591-8.259,19.188-7.271C143.6,7.173,149.855,14.3,154.673,20.754z"/>
	</g>
	<g opacity="0.18">
		<path fill="#1D4043" d="M147.282,28.037c-0.828-3.734-2.164-8.679-5.243-11.188c-2.928-2.388-7.939,0.054-11.012,0.128
			c-0.131,0.726-0.26,1.452-0.465,2.104c3.008,0.199,8.397-2.637,11.477-0.127c3.079,2.511,4.415,7.456,5.243,11.188
			c0.585,2.648,0.868,5.329,0.923,8.021C148.287,34.765,148.021,31.375,147.282,28.037z"/>
		<path fill="#1D4043" d="M68.981,126.928c-14.746,10.241-34.364,16.273-52.792,15.968c-4.657,0.531-9.395,0.723-14.056,0.725
			c22.367,4.126,47.442-1.504,65.885-14.01C68.233,128.736,68.707,127.786,68.981,126.928z"/>
		<path fill="#1D4043" d="M123.757,19.785c2.716-0.304,5.499-1.62,7.034-3.706c0.238-1.09-0.318,1.011,0,0
			c-2.334,1.14-3.836,1.242-7.034,1.6c-3.166,0.355-6.5,0.539-9.606-0.132c-0.09,0.69-0.125,1.387-0.088,2.09
			C117.193,20.33,120.561,20.143,123.757,19.785z"/>
		<path fill="#1D4043" d="M86.404,128.627c-0.03,0.619,0.207,1.575,0,2.105c0.584,0.288,0.781,0.211,1.363,0.507
			c4.854,1.774,10.098,2.792,15.315,3.22c6.368,0.523,13.11,0.206,18.759-1.821c0.319-0.929,0.428-1.461,0.605-2.196
			C110.909,134.233,97.664,133.091,86.404,128.627z"/>
	</g>
	<path fill="#0C868B" d="M71.244,150.418c0.008-1.179-0.529-2.352-1.446-3.162c-0.179,1.021-0.359,2.043-0.539,3.066
		C69.92,150.354,70.582,150.387,71.244,150.418z"/>
	<path fill="#0C868B" d="M74.677,150.516c0.007-1.18-0.529-2.351-1.446-3.163c-0.18,1.023-0.358,2.041-0.539,3.064
		C73.354,150.448,74.015,150.481,74.677,150.516z"/>
	<path fill="#0C868B" d="M77.544,150.23c-0.144-1.17-0.71-2.27-1.527-2.969c-0.009,1.035-0.018,2.07-0.027,3.104
		C76.508,150.322,77.027,150.275,77.544,150.23z"/>
	<g>
		<path fill="#0C6B68" d="M91.079,148.837c-0.063-1.09-0.567-2.156-1.418-2.908c-0.179,1.013-0.354,2.021-0.533,3.034
			C89.779,148.945,90.432,148.906,91.079,148.837z"/>
		<path fill="#0C6B68" d="M93.244,148.514l0.335-0.068c-0.179-1.096-0.716-2.119-1.486-2.776c-0.009,1.017-0.019,2.031-0.026,3.049
			C92.46,148.658,92.854,148.592,93.244,148.514z"/>
		<path fill="#0C6B68" d="M86.296,145.819c-0.175,0.997-0.351,1.994-0.524,2.99c0.653,0.076,1.311,0.122,1.969,0.143
			C87.738,147.784,87.205,146.624,86.296,145.819z"/>
	</g>
	<path fill="#0C868B" d="M128.982,150.418c0.009-1.179-0.528-2.352-1.445-3.162c-0.18,1.021-0.359,2.043-0.539,3.066
		C127.659,150.354,128.32,150.387,128.982,150.418z"/>
	<path fill="#0C868B" d="M132.396,150.326c-0.109-1.175-0.762-2.296-1.756-3.024c-0.076,1.032-0.021,2.024-0.099,3.056
		C131.204,150.332,131.732,150.351,132.396,150.326z"/>
	<path fill="#0C868B" d="M135.116,150.292c-0.085-1.177-0.622-2.3-1.45-3.036c-0.07,1.032-0.062,2.005-0.132,3.038
		C134.088,150.273,134.562,150.313,135.116,150.292z"/>
</g>
</svg>
