<?xml version="1.0" encoding="utf-8"?>
<!-- Generator: Adobe Illustrator 16.0.4, SVG Export Plug-In . SVG Version: 6.00 Build 0)  -->
<!DOCTYPE svg PUBLIC "-//W3C//DTD SVG 1.1//EN" "http://www.w3.org/Graphics/SVG/1.1/DTD/svg11.dtd">
<svg version="1.1" id="Layer_1" xmlns="http://www.w3.org/2000/svg" xmlns:xlink="http://www.w3.org/1999/xlink" x="0px" y="0px"
	 width="170px" height="170px" viewBox="0 0 170 170" enable-background="new 0 0 170 170" xml:space="preserve">
<title>Artboard 9</title>
<g>
	<path fill="#0C868B" d="M121.973,144.724c-4.656,1.642-9.513,2.493-14.389,2.625c-0.615,5.149-0.147,10.427,1.394,15.379
		l0.59,0.138c2.513,0.584,5.125,0.618,7.653,0.1l1.155-0.237c0.291-4.719,1.314-9.568,2.988-14.142
		C121.489,147.281,121.689,145.988,121.973,144.724z"/>
	<g>
		<path fill="#0C6B68" d="M114.423,160.079c-0.176,1.076-0.353,2.153-0.529,3.229c0.267-0.003,0.533-0.016,0.8-0.032
			c0.274-0.016,0.552-0.029,0.826-0.057c0.105-0.011,0.212-0.034,0.319-0.046C115.768,162.011,115.268,160.879,114.423,160.079z"/>
		<path fill="#0C6B68" d="M111.06,159.961c-0.169,1.026-0.338,2.052-0.506,3.077c0.645,0.113,1.292,0.188,1.941,0.231
			C112.481,162.032,111.956,160.812,111.06,159.961z"/>
		<path fill="#0C6B68" d="M118.331,162.736c-0.185-1.16-0.714-2.24-1.476-2.939c-0.01,1.075-0.018,2.151-0.027,3.228
			c0.13-0.024,0.264-0.033,0.393-0.06L118.331,162.736z"/>
	</g>
	<path fill="#33B0BF" d="M114.062,24.126c-0.342-6.649,4.492-12.969,10.755-15.233c6.261-2.264,13.508-0.812,19.018,2.927
		c5.51,3.738,9.396,9.534,11.763,15.757c2.368,6.223,3.322,12.892,3.886,19.525c2.998,35.329-4.941,71.508-22.457,102.336
		c-2.344,4.125-3.087,9.475-1.935,14.1c0.079,0.316-0.131,0.731-0.456,0.731l-5.653,0.141c-0.483,0.011-2.249-0.146-2.726-0.236
		c-1.04-0.196-1.959-0.439-2.189-0.87c-3.056-5.705-3.461-12.475-2.095-18.581c-11.539,4.07-24.309,3.36-35.568-1.429
		c-0.153,3.517-3.151,5.455-5.284,8.257c-2.45,3.217-4.353,7.506-3.686,12.128c0.115,0.804-0.66,0.659-1.472,0.659
		c0,0-3.775,0.556-7.929-0.312c-1.191-0.25-2.384-0.633-2.439-1.107c-0.806-6.853,0.414-14.075,2.424-20.828
		c-18.526,13.802-43.224,19.512-65.885,15.027c15.118-0.009,31.036-2.12,42.448-12.038c11.228-9.757,15.633-25.222,25.202-36.609
		c7.009-8.342,16.802-14.302,27.431-16.696c10.631-2.395,22.032-1.211,31.941,3.32c3.165-0.706,4.953-3.538,6.605-6.329
		c4.443-7.504,7.455-15.788,9.632-24.232c2.453-9.508,3.873-19.522,1.888-29.139c-0.828-4.005-2.164-9.308-5.243-12.001
		c-3.078-2.692-8.469,0.35-11.476,0.136c0.407-1.392,0.515-3.095,0.924-4.486c-1.233,2.974-4.532,4.857-7.73,5.241
		C120.561,24.67,117.194,24.87,114.062,24.126z"/>
	<path fill="#0C868B" d="M96.424,146.385c-3.42-0.686-6.783-1.714-10.02-3.09c-0.153,3.517-3.151,5.455-5.284,8.257
		c-0.237,0.311-0.464,0.64-0.689,0.971c0.446,3.394,1.464,6.711,3.031,9.756l0.049,0.011c3.199,0.739,6.522,0.765,9.733,0.079
		l0.42-0.09c-1.048-3.562-0.048-7.288,1.16-10.798C95.4,149.81,96.003,148.106,96.424,146.385z"/>
	<path fill="#0C3648" d="M126.769,12.76c0,0,0.028,0.141,0.096,0.372c0.046,0.107,0.084,0.226,0.17,0.356
		c0.073,0.131,0.183,0.26,0.309,0.384c0.493,0.493,1.495,0.875,2.363,0.764c0.235-0.02,0.335-0.077,0.607-0.219
		c0.197-0.135,0.321-0.194,0.478-0.376c0.157-0.147,0.271-0.331,0.396-0.498c0.079-0.19,0.211-0.356,0.261-0.54
		c0.146-0.351,0.216-0.678,0.254-0.91c0.04-0.239,0.061-0.376,0.061-0.376s0.05,0.127,0.124,0.367
		c0.064,0.237,0.13,0.601,0.079,1.041c-0.002,0.225-0.083,0.456-0.147,0.708c-0.11,0.234-0.197,0.507-0.394,0.733
		c-0.142,0.231-0.449,0.496-0.688,0.657c-0.192,0.12-0.582,0.324-0.896,0.345c-1.31,0.162-2.488-0.542-2.942-1.368
		c-0.233-0.408-0.262-0.808-0.228-1.066C126.716,12.891,126.769,12.76,126.769,12.76z"/>
	<path fill="#0C3648" d="M116.744,21.567c-0.35,0.328-0.81,0.537-1.286,0.583c-0.014-0.358-0.025-0.724,0.074-1.067
		c0.102-0.343,0.337-0.668,0.676-0.783c0.339-0.114,0.775,0.051,0.879,0.394C117.183,21.009,116.984,21.342,116.744,21.567z"/>
	<path fill="#ADE0F0" d="M151.901,37.786c-0.385-4.851-1.464-9.772-4.143-13.834c-2.678-4.062-7.177-7.145-12.043-7.171
		c-5.054-0.026-11.548,4.368-15.898,7.827c1.324-0.045,2.646-0.166,3.939-0.321c3.198-0.384,6.497-2.268,7.73-5.241
		c-0.409,1.391-0.517,3.094-0.924,4.486c3.007,0.213,8.397-2.829,11.476-0.136c3.079,2.693,4.415,7.997,5.243,12.001
		c1.985,9.617,0.565,19.63-1.888,29.139c-0.327,1.271-0.681,2.535-1.048,3.796c-0.022,0.075-0.046,0.149-0.067,0.224
		c-0.363,1.236-0.749,2.465-1.154,3.688C149.712,62.13,152.854,49.817,151.901,37.786z"/>
	<g>
		<path fill="#81CAD1" d="M146.838,33.39c0.078,0.332,0.153,0.66,0.224,0.982c1.394-0.158,2.932-0.715,4.165-1.498
			c-0.068-0.346-0.145-0.69-0.224-1.034C149.823,32.669,148.221,33.257,146.838,33.39z"/>
		<path fill="#81CAD1" d="M145.862,62.662c-0.078,0.319-0.159,0.637-0.237,0.955c0.421,0.062,0.86,0.097,1.315,0.097
			c0.236,0,0.475-0.009,0.712-0.022c0.145-0.339,0.287-0.68,0.423-1.023C147.307,62.737,146.534,62.748,145.862,62.662z"/>
		<path fill="#81CAD1" d="M145.889,29.991c0.104,0.316,0.204,0.633,0.299,0.95c1.396-0.295,2.903-1.134,3.981-2.033
			c-0.116-0.331-0.251-0.652-0.379-0.977C148.732,28.9,147.133,29.748,145.889,29.991z"/>
		<path fill="#81CAD1" d="M146.924,22.801c-0.207-0.265-0.423-0.524-0.646-0.777c-0.759,1.028-1.935,2.186-2.937,2.798
			c0.196,0.26,0.385,0.531,0.563,0.813C145.016,24.948,146.153,23.798,146.924,22.801z"/>
		<path fill="#81CAD1" d="M148.915,25.978c-0.163-0.323-0.337-0.641-0.518-0.955c-0.763,1.066-2.044,2.26-3.325,2.833
			c0.133,0.3,0.259,0.604,0.379,0.913C146.794,28.176,148.065,27.042,148.915,25.978z"/>
		<path fill="#81CAD1" d="M141.954,23.333c0.979-0.673,2.016-1.839,2.654-2.964c-0.255-0.221-0.517-0.432-0.785-0.636
			c-0.633,1.178-1.86,2.528-2.812,3.014C141.343,22.898,141.659,23.087,141.954,23.333z"/>
		<path fill="#81CAD1" d="M151.634,35.325c-1.089,1.003-2.617,1.516-4.101,1.438c0.058,0.334,0.11,0.667,0.16,1.002
			c0.053,0.001,0.105,0.006,0.159,0.006c1.398,0,2.789-0.448,3.922-1.284C151.732,36.1,151.685,35.713,151.634,35.325z"/>
		<path fill="#81CAD1" d="M148.146,47.823c-0.017,0.329-0.038,0.659-0.059,0.988c1.258-0.004,2.515-0.29,3.646-0.835
			c0.045-0.4,0.094-0.801,0.129-1.203C150.746,47.444,149.45,47.809,148.146,47.823z"/>
		<path fill="#81CAD1" d="M148.198,43.766c0.009,0.332,0.017,0.664,0.018,0.995c1.324-0.022,2.64-0.353,3.813-0.968
			c0.013-0.388,0.025-0.774,0.029-1.162C150.906,43.355,149.558,43.743,148.198,43.766z"/>
		<path fill="#81CAD1" d="M147.988,40.178c0.031,0.331,0.062,0.662,0.088,0.994c0.047,0,0.092,0.005,0.139,0.005
			c1.337,0,2.669-0.372,3.818-1.055c-0.014-0.381-0.041-0.763-0.063-1.145C150.821,39.804,149.402,40.23,147.988,40.178z"/>
		<path fill="#81CAD1" d="M147.295,55.642c-0.054,0.327-0.112,0.652-0.17,0.979c0.567,0.114,1.159,0.171,1.742,0.171
			c0.414,0,0.815-0.033,1.203-0.086c0.098-0.349,0.198-0.695,0.287-1.046C149.387,55.861,148.275,55.847,147.295,55.642z"/>
		<path fill="#81CAD1" d="M147.864,51.418c-0.034,0.326-0.071,0.652-0.111,0.978c0.394,0.054,0.794,0.09,1.204,0.09
			c0.738,0,1.476-0.097,2.148-0.272c0.069-0.363,0.141-0.725,0.202-1.09C150.296,51.483,149.004,51.58,147.864,51.418z"/>
		<path fill="#81CAD1" d="M146.703,58.865c-0.065,0.326-0.134,0.65-0.204,0.976c0.146,0.006,0.292,0.017,0.441,0.017
			c0.748,0,1.519-0.071,2.231-0.176c0.117-0.352,0.229-0.706,0.34-1.06C148.619,58.778,147.617,58.883,146.703,58.865z"/>
	</g>
	<path fill="#0C868B" d="M123.134,10.658c-0.268,0.185-0.516,0.4-0.723,0.65c-0.114,0.136-0.222,0.314-0.163,0.482
		c0.064,0.186,0.294,0.25,0.491,0.267c0.859,0.075,1.745-0.248,2.356-0.858c0.167-0.167,0.318-0.365,0.361-0.597
		c0.044-0.232-0.052-0.503-0.267-0.601c-0.145-0.065-0.311-0.044-0.465-0.014C124.156,10.1,123.611,10.329,123.134,10.658z"/>
	<path fill="#0C868B" d="M129.164,8.72c-0.433,0.009-0.871,0.019-1.278,0.163c-0.407,0.145-0.781,0.448-0.896,0.864
		c0.785,0.449,1.823,0.414,2.575-0.088c0.212-0.141,0.42-0.375,0.346-0.618C129.825,8.762,129.456,8.714,129.164,8.72z"/>
	
		<ellipse transform="matrix(0.7276 0.686 -0.686 0.7276 42.0168 -78.9708)" fill="#0C868B" cx="120.451" cy="13.423" rx="0.246" ry="0.795"/>
	
		<ellipse transform="matrix(0.4421 0.897 -0.897 0.4421 80.5593 -102.6656)" fill="#0C868B" cx="122.805" cy="13.423" rx="0.246" ry="0.795"/>
	
		<ellipse transform="matrix(0.0415 0.9991 -0.9991 0.0415 135.2274 -123.5281)" fill="#0C868B" cx="132" cy="8.72" rx="0.247" ry="0.794"/>
	<path fill="#ADE0F0" d="M67.799,141.999c0.784-2.104,1.775-4.131,2.952-6.042c-10.081,6.841-21.935,13.055-31.389,16.855
		c-11.058,4.445-23.304,6.703-34.969,4.287c-0.056,0-0.112,0.002-0.168,0.002c0.184,0.171,0.38,0.324,0.568,0.489
		c21.779,3.528,45.117-2.166,62.88-15.248C67.715,142.229,67.757,142.113,67.799,141.999z"/>
	<path fill="#ADE0F0" d="M123.439,138.649c0.087-0.194,0.188-0.382,0.279-0.574c-4.708,1.688-9.846,2.321-14.864,2.187
		c-7.918-0.212-15.066-1.508-22.742-3.465c0.459,2.297,0.666,4.186,0.292,6.498c10.452,4.245,24.976,5.997,35.438,2.044
		C122.698,143.147,122.488,140.809,123.439,138.649z"/>
	<path fill="#0C868B" d="M100.84,95.311c0.275-0.135,0.551-0.289,0.749-0.522c0.197-0.234,0.304-0.569,0.197-0.855
		c-0.159-0.423-0.675-0.569-1.122-0.628c-2.341-0.316-4.781,0.161-6.831,1.334c-0.216,0.124-0.437,0.262-0.571,0.472
		c-0.136,0.211-0.161,0.513,0.006,0.697c0.109,0.122,0.273,0.173,0.433,0.214C96.062,96.646,98.646,96.389,100.84,95.311z"/>
	<path fill="#0C868B" d="M110.142,95.471c0.261-0.137,0.531-0.349,0.539-0.643c0.009-0.352-0.354-0.587-0.678-0.724
		c-1.528-0.65-3.259-0.816-4.883-0.468c-0.298,0.063-0.601,0.149-0.835,0.342c-0.234,0.193-0.383,0.521-0.284,0.809
		c0.121,0.357,0.538,0.5,0.903,0.599c0.864,0.232,1.733,0.464,2.626,0.533C108.422,95.986,109.347,95.883,110.142,95.471z"/>
	<ellipse fill="#0C868B" cx="115.499" cy="94.353" rx="2.096" ry="0.895"/>
	<ellipse fill="#0C868B" cx="108.95" cy="97.822" rx="0.96" ry="0.48"/>
	<ellipse fill="#0C868B" cx="102.899" cy="96.85" rx="1.071" ry="0.493"/>
	<ellipse fill="#0C868B" cx="99.085" cy="98.543" rx="1.135" ry="0.72"/>
	<ellipse fill="#0C868B" cx="94.372" cy="97.943" rx="1.22" ry="0.6"/>
	
		<ellipse transform="matrix(0.867 -0.4984 0.4984 0.867 -39.7538 57.1784)" fill="#0C868B" cx="87.226" cy="103.053" rx="0.64" ry="0.316"/>
	
		<ellipse transform="matrix(0.8673 -0.4978 0.4978 0.8673 -42.1734 52.35)" fill="#0C868B" cx="77.102" cy="105.276" rx="0.64" ry="0.315"/>
	
		<ellipse transform="matrix(0.9701 -0.2427 0.2427 0.9701 -21.7004 25.2913)" fill="#0C868B" cx="91.793" cy="100.716" rx="0.64" ry="0.315"/>
	
		<ellipse transform="matrix(-0.9361 0.3517 -0.3517 -0.9361 205.4775 159.766)" fill="#0C868B" cx="88.23" cy="98.543" rx="3.144" ry="1.453"/>
	
		<ellipse transform="matrix(-0.9362 0.3515 -0.3515 -0.9362 195.9525 169.8744)" fill="#0C868B" cx="82.559" cy="102.722" rx="2.409" ry="1.115"/>
	<g>
		<path fill="#81CAD1" d="M38.999,152.952c-0.324,0.129-0.651,0.254-0.978,0.378c0.041,0.909,0.25,1.805,0.618,2.635
			c0.325-0.083,0.65-0.163,0.974-0.248C39.205,154.855,38.989,153.908,38.999,152.952z"/>
		<path fill="#81CAD1" d="M35.168,154.37c-0.322,0.109-0.646,0.211-0.97,0.315c0.07,0.748,0.252,1.482,0.536,2.177
			c0.331-0.067,0.661-0.131,0.989-0.203C35.403,155.938,35.214,155.16,35.168,154.37z"/>
		<path fill="#81CAD1" d="M26.175,156.824c-0.004,0.451,0.052,0.9,0.176,1.333c0.337-0.034,0.675-0.067,1.013-0.107
			c-0.157-0.463-0.225-0.956-0.19-1.44C26.841,156.683,26.508,156.757,26.175,156.824z"/>
		<path fill="#81CAD1" d="M31.186,155.604c-0.323,0.092-0.646,0.179-0.971,0.265c0.089,0.594,0.254,1.173,0.494,1.721
			c0.344-0.054,0.688-0.105,1.031-0.162C31.457,156.855,31.268,156.241,31.186,155.604z"/>
		<path fill="#81CAD1" d="M58.223,143.661c-0.295,0.166-0.592,0.33-0.887,0.494c0.363,1.33,0.969,2.581,1.779,3.686
			c0.289-0.161,0.575-0.327,0.862-0.492C59.156,146.253,58.555,144.998,58.223,143.661z"/>
		<path fill="#81CAD1" d="M63.405,140.648c-0.298,0.181-0.597,0.36-0.896,0.538c0.294,1.293,0.875,2.525,1.683,3.578
			c0.277-0.183,0.55-0.37,0.824-0.555C64.206,143.175,63.643,141.938,63.405,140.648z"/>
		<path fill="#81CAD1" d="M52.994,146.485c-0.307,0.16-0.612,0.314-0.917,0.471c0.248,1.329,0.668,2.613,1.246,3.826
			c0.299-0.138,0.596-0.282,0.895-0.425C53.633,149.135,53.217,147.832,52.994,146.485z"/>
		<path fill="#81CAD1" d="M48.274,148.849c-0.314,0.151-0.626,0.301-0.939,0.449c0.173,1.234,0.558,2.431,1.136,3.529
			c0.309-0.118,0.619-0.236,0.926-0.36C48.793,151.351,48.408,150.117,48.274,148.849z"/>
		<path fill="#81CAD1" d="M43.608,154.546c0.321-0.102,0.64-0.211,0.959-0.317c-0.581-0.95-1.06-1.962-1.429-3.009
			c-0.306,0.136-0.606,0.263-0.91,0.395C42.592,152.63,43.055,153.613,43.608,154.546z"/>
	</g>
	<g>
		<path fill="#81CAD1" d="M100.523,139.623c-0.339-0.042-0.677-0.09-1.015-0.135c-0.845,2.294-1.173,4.796-0.958,7.235
			c0.341,0.059,0.681,0.12,1.021,0.173C99.312,144.443,99.638,141.92,100.523,139.623z"/>
		<path fill="#81CAD1" d="M95.534,138.861c-1.263,2.015-1.941,4.406-1.949,6.79c0.327,0.085,0.653,0.174,0.984,0.255
			c-0.047-2.421,0.665-4.866,2.022-6.862C96.239,138.984,95.887,138.923,95.534,138.861z"/>
		<path fill="#81CAD1" d="M91.923,138.16c-0.33-0.069-0.664-0.147-0.995-0.22c-0.981,2.008-1.487,4.24-1.475,6.478
			c0.331,0.111,0.658,0.229,0.995,0.336C90.376,142.478,90.886,140.188,91.923,138.16z"/>
		<path fill="#81CAD1" d="M104.604,140.028c-0.34-0.025-0.681-0.049-1.019-0.08c-0.822,2.341-1.095,4.879-0.803,7.348
			c0.337,0.034,0.674,0.074,1.01,0.101C103.464,144.924,103.736,142.363,104.604,140.028z"/>
		<path fill="#81CAD1" d="M108.233,140.233c-0.337-0.011-0.669-0.027-1.001-0.045c-0.535,2.417-0.501,4.969,0.11,7.363
			c0.34,0.005,0.682,0.017,1.02,0.014C107.708,145.192,107.673,142.635,108.233,140.233z"/>
		<path fill="#81CAD1" d="M119.805,139.214c-0.358,0.083-0.717,0.159-1.077,0.231c-0.422,2.189-0.147,4.52,0.794,6.538
			c0.319-0.098,0.631-0.211,0.944-0.317C119.508,143.683,119.286,141.356,119.805,139.214z"/>
		<path fill="#81CAD1" d="M116.113,139.886c-0.347,0.048-0.695,0.085-1.042,0.123c-0.383,2.303-0.146,4.694,0.692,6.876
			c0.335-0.062,0.669-0.128,1-0.197C115.899,144.537,115.676,142.16,116.113,139.886z"/>
		<path fill="#81CAD1" d="M112.091,140.231c-0.345,0.015-0.691,0.027-1.036,0.034c-0.602,2.352-0.445,4.907,0.453,7.16
			c0.344-0.025,0.688-0.051,1.029-0.085C111.573,145.126,111.424,142.557,112.091,140.231z"/>
	</g>
	<g opacity="0.29">
		<path fill="#FFFFFF" d="M43.734,146.572c5.784-5.026,9.757-11.569,13.56-18.288c-3.552,6.189-7.354,12.142-12.711,16.797
			c-11.412,9.918-27.33,12.029-42.448,12.038c2.748,0.544,5.528,0.934,8.322,1.183C22.621,157.435,34.616,154.496,43.734,146.572z"
			/>
		<path fill="#FFFFFF" d="M68.936,109.964c7.009-8.342,16.802-14.304,27.432-16.698c10.629-2.395,22.031-1.208,31.941,3.321
			c3.164-0.707,4.952-3.539,6.604-6.329c0.224-0.378,0.427-0.766,0.644-1.146c-1.598,2.675-3.365,5.307-6.399,5.983
			c-9.909-4.531-21.311-5.715-31.941-3.32c-10.629,2.395-20.422,8.354-27.431,16.696C66.248,112.682,65.763,113.737,68.936,109.964z
			"/>
		<path fill="#FFFFFF" d="M154.673,25.325c0-1-1.442-2.903-1.969-3.794c-0.763-1.29-1.603-2.533-2.526-3.713
			c-0.919-1.173-1.921-2.283-3.003-3.307c-0.402-0.38-3.34-2.341-3.34-2.69c-5.51-3.739-12.757-5.191-19.018-2.927
			c-3.97,1.435-7.36,4.503-9.228,8.249c3.244-6.508,12.591-8.859,19.189-7.799C143.6,10.758,149.856,18.403,154.673,25.325z"/>
	</g>
	<g opacity="0.18">
		<path fill="#1D4043" d="M147.282,33.137c-0.828-4.005-2.164-9.309-5.243-12.001c-2.927-2.562-7.939,0.058-11.012,0.138
			c-0.13,0.778-0.26,1.557-0.464,2.256c3.007,0.213,8.397-2.829,11.476-0.136c3.079,2.693,4.415,7.997,5.243,12.001
			c0.585,2.841,0.869,5.717,0.923,8.604C148.287,40.354,148.021,36.718,147.282,33.137z"/>
		<path fill="#1D4043" d="M68.981,139.214c-14.746,10.985-34.364,17.456-52.792,17.128c-4.657,0.57-9.395,0.775-14.056,0.777
			c22.367,4.426,47.442-1.613,65.885-15.027C68.233,141.154,68.707,140.135,68.981,139.214z"/>
		<path fill="#1D4043" d="M123.757,24.286c2.715-0.326,5.499-1.737,7.034-3.975c0.238-1.169-0.318,1.084,0,0
			c-2.334,1.222-3.836,1.332-7.034,1.716c-3.166,0.381-6.5,0.578-9.607-0.142c-0.089,0.74-0.125,1.488-0.087,2.242
			C117.194,24.87,120.561,24.67,123.757,24.286z"/>
		<path fill="#1D4043" d="M86.404,141.036c-0.03,0.664,0.207,1.691,0,2.259c0.585,0.309,0.781,0.227,1.363,0.544
			c4.854,1.903,10.098,2.994,15.316,3.453c6.368,0.561,13.111,0.221,18.759-1.953c0.319-0.996,0.428-1.567,0.605-2.357
			C110.909,147.051,97.664,145.825,86.404,141.036z"/>
	</g>
	<path fill="#0C868B" d="M71.244,164.411c0.008-1.264-0.529-2.522-1.446-3.392c-0.179,1.096-0.359,2.192-0.539,3.289
		C69.92,164.343,70.582,164.377,71.244,164.411z"/>
	<path fill="#0C868B" d="M74.677,164.515c0.007-1.265-0.529-2.521-1.446-3.392c-0.18,1.097-0.358,2.19-0.539,3.287
		C73.354,164.444,74.015,164.479,74.677,164.515z"/>
	<path fill="#0C868B" d="M77.544,164.21c-0.144-1.255-0.71-2.435-1.527-3.184c-0.009,1.11-0.018,2.22-0.027,3.329
		C76.508,164.308,77.027,164.258,77.544,164.21z"/>
	<g>
		<path fill="#0C6B68" d="M91.079,162.715c-0.064-1.169-0.567-2.312-1.418-3.119c-0.178,1.085-0.354,2.168-0.533,3.253
			C89.78,162.831,90.431,162.789,91.079,162.715z"/>
		<path fill="#0C6B68" d="M93.244,162.368l0.335-0.073c-0.179-1.176-0.716-2.273-1.486-2.979c-0.009,1.091-0.019,2.18-0.026,3.271
			C92.46,162.524,92.853,162.452,93.244,162.368z"/>
		<path fill="#0C6B68" d="M86.296,159.479c-0.175,1.069-0.351,2.138-0.525,3.207c0.654,0.082,1.311,0.131,1.969,0.153
			C87.738,161.586,87.205,160.341,86.296,159.479z"/>
	</g>
	<path fill="#0C868B" d="M128.982,164.411c0.009-1.264-0.528-2.522-1.445-3.392c-0.18,1.096-0.359,2.192-0.539,3.289
		C127.659,164.343,128.321,164.377,128.982,164.411z"/>
	<path fill="#0C868B" d="M132.396,164.312c-0.109-1.259-0.761-2.462-1.755-3.243c-0.077,1.107-0.021,2.171-0.099,3.277
		C131.204,164.319,131.732,164.339,132.396,164.312z"/>
	<path fill="#0C868B" d="M135.116,164.275c-0.085-1.261-0.622-2.467-1.45-3.256c-0.071,1.107-0.062,2.151-0.132,3.258
		C134.088,164.256,134.562,164.299,135.116,164.275z"/>
</g>
</svg>
