<?xml version="1.0" encoding="utf-8"?>
<!-- Generator: Adobe Illustrator 16.0.4, SVG Export Plug-In . SVG Version: 6.00 Build 0)  -->
<!DOCTYPE svg PUBLIC "-//W3C//DTD SVG 1.1//EN" "http://www.w3.org/Graphics/SVG/1.1/DTD/svg11.dtd">
<svg version="1.1" id="Layer_1" xmlns="http://www.w3.org/2000/svg" xmlns:xlink="http://www.w3.org/1999/xlink" x="0px" y="0px"
	 width="170px" height="170px" viewBox="0 0 170 170" enable-background="new 0 0 170 170" xml:space="preserve">
<title>Artboard 9</title>
<g>
	<path fill="#4A727E" d="M3.03,141.507c0.809-0.526,1.796-0.706,2.76-0.752c1.639-0.078,3.348,0.228,4.684,1.179
		c1.336,0.952,2.219,2.634,1.925,4.248c-0.285,1.558-1.53,2.732-2.708,3.789c-0.968,0.869-1.936,1.737-2.903,2.605
		c-0.109,0.098-0.222,0.198-0.362,0.241c-0.349,0.108-0.69-0.166-0.953-0.42c-1.546-1.498-3.141-3.067-3.884-5.088
		C0.845,145.289,1.226,142.682,3.03,141.507z"/>
	<path fill="#1B81A5" d="M5.769,146.547c0.352-9.14,4.704-17.805,10.769-24.65c6.066-6.845,13.767-12.041,21.714-16.566
		c10.599-6.034,21.923-11.052,33.921-13.24c11.998-2.189,24.755-1.408,35.821,3.721c9.407,4.361,15.976,12.094,26.048,14.555
		c6.769,1.654,13.863,1.917,20.474,4.121c6.608,2.204,13.011,7.037,14.264,13.892c-3.815,3.647-9.478,4.086-14.719,4.713
		s-10.568,0.486-15.765,1.42c-9.272,1.666-17.559,6.627-26.205,10.37c-9.498,4.111-18.047,5.725-28.396,5.847
		c-10.349,0.124-20.854-2.432-29.491-8.134c-4.776-3.152-10.658-6.162-15.93-8.392c-6.132-2.594-13.406-2.328-19.334,0.707
		C13.012,137.942,7.25,140.055,5.769,146.547z"/>
	<g>
		<path fill="#BCBEC0" d="M38.251,105.33c-1.401,0.799-2.79,1.627-4.168,2.473c-0.228-1.109-0.562-2.268,0.068-3.139
			c0.522-0.723,1.548-0.879,2.379-0.608c0.703,0.228,1.297,0.698,1.863,1.195C38.347,105.278,38.299,105.304,38.251,105.33z"/>
		<path fill="#BCBEC0" d="M50.169,99.209c-0.212-1.01-0.393-2.045-0.204-3.055c0.208-1.111,0.985-2.188,2.062-2.351
			c0.845-0.127,1.693,0.333,2.273,0.985c0.547,0.615,0.897,1.383,1.23,2.148C53.726,97.648,51.938,98.406,50.169,99.209z"/>
		<path fill="#BCBEC0" d="M42.047,103.234c0.062-0.854-0.251-1.768,0.066-2.562c0.396-0.992,1.659-1.338,2.649-1.03
			c0.719,0.224,1.324,0.7,1.883,1.232C45.098,101.633,43.565,102.422,42.047,103.234z"/>
		<path fill="#BCBEC0" d="M26.404,112.964c-0.509-1.139-0.307-2.636,0.638-3.437c1.051-0.891,2.794-0.623,3.588,0.477
			C29.195,110.955,27.781,111.936,26.404,112.964z"/>
		<path fill="#BCBEC0" d="M10.701,130.048c-0.842-0.335-1.189-1.613-0.599-2.338c0.502-0.616,1.5-0.6,2.068-0.081
			C11.655,128.42,11.164,129.228,10.701,130.048z"/>
		<path fill="#BCBEC0" d="M16.538,121.896c-0.636,0.719-1.249,1.461-1.845,2.219c-0.557-0.59-0.849-1.452-0.702-2.264
			c0.171-0.952,0.963-1.763,1.889-1.872c0.659-0.078,1.335,0.229,1.763,0.745C17.276,121.116,16.894,121.494,16.538,121.896z"/>
		<path fill="#BCBEC0" d="M20.233,118.133c-0.321-0.535-0.466-1.184-0.354-1.803c0.172-0.952,0.963-1.763,1.89-1.872
			c0.662-0.078,1.343,0.232,1.771,0.755C22.403,116.148,21.305,117.126,20.233,118.133z"/>
		<path fill="#BCBEC0" d="M124.031,105.936c0.546-0.331,1.093-0.662,1.64-0.992c0.965-0.583,2.111-1.184,3.145-0.744
			c0.89,0.378,1.36,1.446,1.36,2.445c0,0.776-0.228,1.523-0.502,2.251C127.698,108.062,125.834,107.051,124.031,105.936z"/>
		<path fill="#BCBEC0" d="M60.019,95.291c-0.071-0.943-0.107-1.899,0.161-2.797c0.305-1.018,1.096-1.953,2.114-2.071
			c0.793-0.091,1.577,0.327,2.137,0.917c0.561,0.59,0.937,1.338,1.304,2.074c-0.639,0.15-1.23,0.383-1.807,0.641
			C62.616,94.437,61.313,94.85,60.019,95.291z"/>
		<path fill="#BCBEC0" d="M110.709,97.207c-0.883-0.49-1.782-0.963-2.716-1.396c-0.984-0.455-1.986-0.865-2.997-1.254
			c0.965-1.019,2.117-1.846,3.388-2.393c0.503-0.217,1.07-0.392,1.582-0.197c0.899,0.34,1.102,1.579,0.954,2.562
			C110.786,95.421,110.498,96.352,110.709,97.207z"/>
		<path fill="#BCBEC0" d="M120.552,103.65c-1.554-1.064-3.098-2.158-4.675-3.227c0.779-0.3,1.425-0.937,2.126-1.428
			c0.817-0.574,1.968-0.941,2.75-0.316c0.762,0.609,0.743,1.815,0.457,2.77C120.991,102.182,120.661,102.904,120.552,103.65z"/>
		<path fill="#BCBEC0" d="M93.225,91.539c0.657-1.185,1.523-2.652,2.005-3.018c0.956-0.728,2.371-0.96,3.306-0.201
			c0.623,0.506,0.918,1.352,0.952,2.174c0.031,0.746-0.125,1.483-0.298,2.211C97.227,92.207,95.234,91.822,93.225,91.539z"/>
		<path fill="#BCBEC0" d="M80.438,91.082c0.23-1.051,0.482-2.117,1.05-3.017c0.597-0.948,1.625-1.688,2.712-1.593
			c1.002,0.086,1.851,0.865,2.33,1.785c0.439,0.844,0.619,1.799,0.774,2.748C85.019,90.91,82.727,90.938,80.438,91.082z"/>
		<path fill="#BCBEC0" d="M72.172,92.09c-0.958,0.174-1.91,0.373-2.859,0.583c-0.067-1.001-0.114-2.021,0.162-2.979
			c0.293-1.027,1.036-1.984,2.046-2.195c1.009-0.211,2.048,0.374,2.701,1.201c0.65,0.824,0.992,1.856,1.319,2.866
			C74.414,91.717,73.289,91.886,72.172,92.09z"/>
	</g>
	<path fill="#1B81A5" d="M16.538,121.896c6.066-6.845,13.767-12.041,21.714-16.566c10.599-6.034,21.923-11.052,33.921-13.24
		c11.998-2.189,24.755-1.408,35.821,3.721c9.407,4.361,15.976,12.094,26.048,14.555c6.769,1.654,13.863,1.917,20.474,4.121
		c6.608,2.204,13.011,7.037,14.264,13.892c-3.816,3.647-9.478,4.086-14.719,4.713s-10.568,0.486-15.765,1.42
		c-7.089,1.273-13.602,4.474-20.139,7.581c0.015,3.56,0.813,7.76,1.515,10.366c1.013,3.761,4.553,10.921,4.455,10.921l-2.378,0.267
		c-3.383,0.379-6.797,0.402-10.184,0.069l-3.428-0.336c-1.655-3.328-3.207-7.722-4.105-11.37c-0.321-1.306-0.53-2.658-0.605-4.014
		c-6.321,1.83-12.6,2.648-19.732,2.732c-7.185,0.086-14.443-1.122-21.102-3.775c-0.197,0.541-0.394,1.069-0.578,1.58
		c-1.563,4.315-1.488,10.119,0.147,14.409c-2.816,0.394-5.151,0.549-7.359,0.55c-3.849,0.002-6.575-0.55-6.575-0.55
		c-3.064-8.533-5.297-18.064-6.244-27.083c-1.255-0.587-2.499-1.144-3.711-1.656c-6.132-2.594-13.406-2.328-19.334,0.707
		c-5.926,3.033-11.688,5.146-13.169,11.638C6.121,137.407,10.473,128.742,16.538,121.896z"/>
	<path fill="#1B6F8C" d="M62.592,146.952c4.871,1.939,10.063,3.101,15.312,3.554c-0.174,3.323-0.028,6.662,0.464,9.953
		c0,0-3.242,0.402-5.438,0.385c-4.809-0.037-5.785-0.385-5.785-0.385c-2.339-3.982-3.97-8.272-4.822-12.772
		C62.413,147.44,62.5,147.203,62.592,146.952z"/>
	<path fill="#1B6F8C" d="M119.671,152.458c-0.701-2.606-1.5-6.807-1.515-10.366c3.212-1.527,6.419-3.074,9.691-4.406
		c0.877,8.065,3.603,15.931,7.964,22.773l-2.528,0.186c-2.236,0.164-4.483,0.148-6.718-0.043l-1.653-0.143
		c-1.485-1.614-2.926-3.34-4.274-5.15C120.239,154.27,119.894,153.28,119.671,152.458z"/>
	<path fill="#1B2738" d="M156.155,121.528c0,0-0.029,0.158-0.079,0.437c-0.089,0.235-0.188,0.571-0.438,0.908
		c-0.124,0.161-0.261,0.334-0.433,0.475c-0.166,0.147-0.362,0.274-0.568,0.363c-0.038,0.016-0.134,0.07-0.123,0.053l-0.218,0.062
		c-0.168,0.057-0.236,0.037-0.344,0.058c-0.216,0.027-0.479-0.013-0.718-0.051c-0.238-0.063-0.476-0.145-0.68-0.277
		c-0.202-0.122-0.404-0.275-0.533-0.447c-0.205-0.273-0.265-0.356-0.359-0.598c-0.09-0.209-0.145-0.429-0.176-0.635
		c-0.029-0.208-0.038-0.404-0.026-0.583c0.008-0.178,0.047-0.331,0.063-0.466c0.078-0.263,0.123-0.412,0.123-0.412
		c0.008-0.016,0-0.035-0.015-0.043c-0.011-0.005-0.035,0.006-0.035,0.006s-0.118,0.106-0.317,0.331
		c-0.071,0.124-0.194,0.271-0.269,0.468c-0.084,0.194-0.166,0.424-0.195,0.689c-0.031,0.263-0.053,0.562,0.016,0.87
		c0.033,0.28,0.208,0.732,0.347,0.936c0.19,0.323,0.447,0.593,0.753,0.818c0.308,0.22,0.662,0.369,1.027,0.479
		c0.377,0.086,0.746,0.112,1.146,0.062c0.197-0.036,0.441-0.066,0.556-0.131l0.21-0.083c0.157-0.057,0.18-0.097,0.275-0.146
		c0.317-0.176,0.575-0.416,0.764-0.674c0.207-0.245,0.338-0.52,0.43-0.772c0.099-0.254,0.139-0.498,0.152-0.714
		c0.025-0.214-0.011-0.42-0.021-0.567c-0.073-0.274-0.131-0.426-0.131-0.426c-0.016-0.052-0.069-0.078-0.119-0.062
		C156.187,121.464,156.163,121.497,156.155,121.528z"/>
	<path fill="#BCBEC0" d="M158.296,116.15c1.981-2.002,3.152-4.785,3.201-7.602c1.627,2.916,1.528,6.717-0.249,9.543
		C160.037,117.584,159.507,116.658,158.296,116.15z"/>
	<path fill="#4A727E" d="M36.943,112.568c-15.03,4.776-28.112,16.656-31.048,32.146c0.819-8.461,4.983-16.432,10.642-22.818
		c6.066-6.845,13.767-12.041,21.714-16.566c10.599-6.034,21.923-11.052,33.921-13.24c11.998-2.189,24.755-1.408,35.821,3.721
		c9.407,4.361,15.976,12.094,26.048,14.555c6.769,1.654,13.863,1.917,20.474,4.121c6.542,2.182,12.87,6.941,14.215,13.684
		c-0.985,0.092-1.972,0.186-2.958,0.277c-6.46-10.165-19.604-13.531-31.635-12.967s-24.18,4.021-36.108,2.352
		C77.614,114.973,59.527,105.392,36.943,112.568z"/>
	<g opacity="0.31">
		<path fill="#FFFFFF" d="M154.515,116.562c-6.61-2.205-13.705-2.467-20.474-4.121c-10.072-2.463-16.641-10.194-26.048-14.555
			c-11.065-5.129-23.823-5.91-35.821-3.722c-11.998,2.188-23.322,7.206-33.921,13.241c-7.947,4.525-15.648,9.722-21.714,16.565
			c-3.134,3.538-5.806,7.563-7.709,11.887c-1.34,2.789-2.343,5.749-2.933,8.856c0.819-8.461,4.983-16.432,10.642-22.818
			c6.066-6.845,13.767-12.041,21.714-16.566c10.599-6.034,21.923-11.052,33.921-13.24c11.998-2.189,24.755-1.408,35.821,3.721
			c9.407,4.361,15.976,12.094,26.048,14.555c6.769,1.654,13.863,1.917,20.474,4.121c6.542,2.182,12.87,6.941,14.215,13.684
			c-0.194,0.019-0.389,0.037-0.583,0.055C166.062,122.553,160.38,118.519,154.515,116.562z"/>
	</g>
	<g>
		<path fill="#BCBEC0" d="M75.698,115.962c-0.619,0.833-1.68,1.427-2.69,1.184c-0.967-0.233-1.635-1.174-1.846-2.146
			c-0.171-0.793-0.043-2.01,0.096-2.97c1.888,0.397,3.771,0.829,5.651,1.278C76.623,114.213,76.167,115.33,75.698,115.962z"/>
		<path fill="#BCBEC0" d="M96.008,120.41c-0.69,0.823-1.829,1.369-2.854,1.047c-0.897-0.282-1.503-1.162-1.722-2.077
			c-0.129-0.538-0.209-1.706-0.23-2.741c2.058,0.42,4.132,0.795,6.23,1.103C96.994,118.76,96.42,119.916,96.008,120.41z"/>
		<path fill="#BCBEC0" d="M118.946,120.135c-0.348,0.377-0.782,0.703-1.288,0.785c-0.802,0.132-1.595-0.397-2.024-1.087
			c-0.252-0.405-0.592-1.349-0.846-2.196c1.812-0.205,3.627-0.438,5.442-0.679C120.003,118.126,119.514,119.523,118.946,120.135z"/>
		<path fill="#BCBEC0" d="M130.634,118.533c-0.592,0.742-1.609,1.232-2.507,0.922c-0.999-0.348-1.702-1.974-2.329-3.219
			c1.97-0.239,3.938-0.453,5.904-0.604C131.462,116.59,131.127,117.914,130.634,118.533z"/>
		<path fill="#BCBEC0" d="M84.742,118.258c-0.785,0.755-1.997,1.174-2.988,0.723c-0.818-0.373-1.309-1.258-1.449-2.146
			c-0.084-0.533,0.121-1.639,0.329-2.627c1.92,0.469,3.843,0.936,5.775,1.383C85.929,116.57,85.282,117.736,84.742,118.258z"/>
		<path fill="#BCBEC0" d="M56.314,110.009c-0.19,0.995-0.522,2.208-0.867,2.823c-0.483,0.861-1.476,1.521-2.438,1.297
			c-0.748-0.175-1.303-0.84-1.559-1.564c-0.198-0.562-0.132-1.707-0.094-2.551C53.027,109.941,54.678,109.946,56.314,110.009z"/>
		<path fill="#BCBEC0" d="M107.87,118.207c-0.417,0.711-0.698,1.75-1.076,2.356c-0.462,0.74-1.183,1.432-2.056,1.433
			c-0.809,0.001-1.515-0.612-1.868-1.339c-0.268-0.551-0.453-1.606-0.556-2.437C104.162,118.307,106.015,118.289,107.87,118.207z"/>
		<path fill="#BCBEC0" d="M18.357,126.234c-0.597,0.725-1.938,0.581-2.368-0.255c0.673-0.629,1-1.394,1.668-2.023
			C18.558,124.22,18.955,125.509,18.357,126.234z"/>
		<path fill="#BCBEC0" d="M31.062,118.295c-1.218,0.062-2.447-0.575-3.098-1.605c1.196-0.443,2.058-1.264,3.254-1.705
			C31.588,116.055,31.531,117.265,31.062,118.295z"/>
		<path fill="#BCBEC0" d="M24.245,118.654c0.321,0.597,0.457,1.311,0.27,1.96c-0.19,0.655-0.747,1.219-1.422,1.314
			c-0.675,0.097-1.416-0.352-1.552-1.02c0.899-0.318,1.711-1.3,2.366-2.038c0.013-0.008,0.027-0.016,0.04-0.025
			C24.045,118.781,24.147,118.721,24.245,118.654z"/>
		<path fill="#BCBEC0" d="M46.742,112.639c-0.351,0.777-1.114,1.434-1.966,1.389c-0.633-0.033-1.197-0.444-1.57-0.959
			c-0.256-0.352-0.483-1.24-0.668-1.957c1.661-0.345,3.303-0.609,4.922-0.793C47.289,111.134,46.972,112.133,46.742,112.639z"/>
		<path fill="#BCBEC0" d="M64.242,113.971c-0.606,0.783-1.635,1.322-2.589,1.059c-0.881-0.246-1.475-1.115-1.663-2.011
			s-0.043-1.823,0.101-2.726c0.003-0.013,0.006-0.02,0.011-0.031c1.854,0.174,3.694,0.416,5.52,0.711
			C65.331,111.93,64.79,113.266,64.242,113.971z"/>
		<path fill="#BCBEC0" d="M17.683,123.876c0.004,0.028-0.004,0.06-0.026,0.08c-0.022,0.016-0.043,0.015-0.068,0.009
			C17.62,123.935,17.652,123.906,17.683,123.876z"/>
		<path fill="#BCBEC0" d="M17.657,123.956L17.657,123.956L17.657,123.956z"/>
		<path fill="#BCBEC0" d="M38.812,113.693c0.056,0.647-0.193,1.365-0.764,1.674c-0.627,0.34-1.442,0.076-1.95-0.424
			c-0.477-0.471-0.744-1.106-0.986-1.734c0.609-0.219,1.216-0.445,1.832-0.641c0.458-0.145,0.909-0.272,1.362-0.404
			C38.547,112.651,38.767,113.154,38.812,113.693z"/>
	</g>
	<path fill="#BCBEC0" d="M115.361,107.156c0.302-0.722,0.615-1.463,1.164-2.021c0.547-0.56,1.392-0.9,2.128-0.638
		c0.729,0.261,1.166,1.048,1.243,1.819s-0.137,1.539-0.349,2.284C118.086,108.215,116.823,107.541,115.361,107.156z"/>
	<path fill="#BCBEC0" d="M103.223,105.802c0.122-0.934,0.251-1.892,0.613-2.655c0.362-0.763,1.017-1.295,1.693-1.062
		c0.67,0.229,1.189,1.148,1.398,2.094c0.21,0.945,0.172,1.924,0.131,2.874C105.741,106.762,104.54,106.091,103.223,105.802z"/>
	<path fill="#BCBEC0" d="M90.756,102.045c0.25-0.742,0.51-1.503,1.018-2.1c0.506-0.596,1.324-0.996,2.077-0.786
		c0.747,0.208,1.238,0.962,1.369,1.726s-0.027,1.545-0.186,2.304C93.548,102.907,92.241,102.325,90.756,102.045z"/>
	<path fill="#BCBEC0" d="M79.158,100.352c0.126-0.771,0.26-1.565,0.663-2.236s1.145-1.199,1.923-1.113
		c0.771,0.084,1.377,0.748,1.631,1.48c0.254,0.732,0.224,1.529,0.191,2.303C82.055,100.75,80.669,100.389,79.158,100.352z"/>
	<path fill="#BCBEC0" d="M68.292,100.79c-0.053-0.78-0.103-1.584,0.138-2.329c0.239-0.744,0.842-1.428,1.619-1.521
		c0.77-0.093,1.511,0.416,1.925,1.071c0.413,0.656,0.564,1.438,0.709,2.199C71.203,100.52,69.773,100.482,68.292,100.79z"/>
	<path fill="#BCBEC0" d="M57.849,102.01c-0.043-0.635-0.083-1.287,0.111-1.893c0.195-0.604,0.685-1.159,1.316-1.234
		c0.625-0.076,1.227,0.338,1.563,0.87c0.336,0.532,0.459,1.168,0.576,1.786C60.213,101.79,59.051,101.758,57.849,102.01z"/>
	<path fill="#BCBEC0" d="M48.406,104.871c-0.168-0.613-0.337-1.244-0.266-1.877c0.07-0.631,0.441-1.271,1.044-1.471
		c0.598-0.198,1.27,0.088,1.706,0.543c0.435,0.455,0.681,1.053,0.918,1.637C50.68,104.187,49.534,104.387,48.406,104.871z"/>
	<path fill="#BCBEC0" d="M40.149,108.209c-0.167-0.613-0.337-1.244-0.266-1.876c0.072-0.632,0.441-1.272,1.045-1.472
		c0.597-0.197,1.27,0.088,1.705,0.543c0.435,0.456,0.682,1.055,0.919,1.637C42.423,107.525,41.279,107.726,40.149,108.209z"/>
	<path fill="#BCBEC0" d="M32.532,112.293c-0.277-0.572-0.559-1.161-0.604-1.795c-0.045-0.635,0.202-1.332,0.758-1.639
		c0.551-0.303,1.265-0.146,1.775,0.223c0.511,0.368,0.863,0.911,1.203,1.441C34.643,111.205,33.553,111.611,32.532,112.293z"/>
	<path fill="#BCBEC0" d="M24.862,116.414c-0.277-0.572-0.559-1.162-0.605-1.796c-0.045-0.634,0.202-1.331,0.758-1.638
		c0.552-0.304,1.266-0.146,1.776,0.223c0.51,0.367,0.863,0.91,1.202,1.441C26.973,115.326,25.883,115.732,24.862,116.414z"/>
	<path fill="#BCBEC0" d="M115.007,112.789c1.223,0.337,2.526,0.375,3.767,0.109c-0.047-0.837-0.83-1.855-1.664-1.928
		C116.274,110.899,115.197,111.973,115.007,112.789z"/>
	<path fill="#BCBEC0" d="M102.787,112.109c1.222,0.337,2.526,0.375,3.766,0.109c-0.048-0.837-0.829-1.855-1.663-1.927
		C104.055,110.22,102.977,111.293,102.787,112.109z"/>
	<path fill="#BCBEC0" d="M90.562,110.66c1.223,0.338,2.526,0.375,3.767,0.11c-0.047-0.837-0.829-1.854-1.664-1.927
		S90.752,109.846,90.562,110.66z"/>
	<path fill="#BCBEC0" d="M78.368,109.369c1.222,0.337,2.526,0.375,3.766,0.109c-0.048-0.838-0.829-1.855-1.664-1.928
		C79.636,107.479,78.557,108.553,78.368,109.369z"/>
	<path fill="#BCBEC0" d="M67.378,107.271c1.222,0.338,2.526,0.375,3.767,0.109c-0.048-0.836-0.83-1.854-1.665-1.926
		S67.568,106.456,67.378,107.271z"/>
	<path fill="#BCBEC0" d="M57.648,107.737c1.223,0.337,2.527,0.375,3.767,0.108c-0.047-0.836-0.83-1.854-1.665-1.926
		S57.839,106.922,57.648,107.737z"/>
	<path fill="#BCBEC0" d="M48.154,108.038c1.262,0.13,2.555-0.048,3.734-0.515c-0.186-0.818-1.125-1.691-1.961-1.625
		C49.093,105.965,48.208,107.202,48.154,108.038z"/>
	<path fill="#BCBEC0" d="M37.178,111.201c1.237-0.28,2.405-0.863,3.373-1.683c-0.437-0.715-1.607-1.243-2.377-0.912
		C37.404,108.937,36.961,110.393,37.178,111.201z"/>
	<path fill="#BCBEC0" d="M148.311,118.441c0.401,1.774-0.999,3.739-2.808,3.938c-2.353,0.261-4.113-1.079-5.799-2.741
		c-1.686-1.661-2.658-4.021-2.636-6.389C140.134,115.863,144.286,118.284,148.311,118.441z"/>
	<path fill="#BCBEC0" d="M154.104,114.156c-1.414,1.631-4.189,1.82-5.812,0.396c-0.557-2.039-0.193-4.238,0.727-6.141
		s2.546-3.454,4.489-4.283C151.863,107.548,152.453,110.741,154.104,114.156z"/>
	<path fill="#BCBEC0" d="M160.979,132.094c-0.203-0.668-0.254-1.397-0.156-2.088c0.204-1.448,0.932-2.763,1.688-4.015
		c0.744-1.232,1.543-2.457,2.631-3.398c0.224-0.193,0.465-0.369,0.713-0.532c1.445,1.854,2.494,3.962,2.925,6.317
		C166.629,130.433,163.894,131.469,160.979,132.094z"/>
	<path fill="#1B2738" d="M168.739,128.094c0,0-0.194,0.058-0.533,0.158c-0.342,0.084-0.82,0.284-1.41,0.377
		c-0.292,0.057-0.61,0.117-0.946,0.183c-0.331,0.075-0.7,0.079-1.069,0.124c-0.373,0.034-0.756,0.088-1.148,0.073
		c-0.393,0.001-0.79,0.002-1.188,0.003c-0.396-0.036-0.791-0.071-1.182-0.107c-0.39-0.02-0.766-0.107-1.132-0.172
		c-0.363-0.078-0.722-0.112-1.046-0.217c-0.327-0.094-0.636-0.183-0.92-0.264c-0.576-0.144-1.016-0.379-1.342-0.488
		c-0.32-0.126-0.545-0.214-0.545-0.214c-0.233-0.092-0.497,0.022-0.589,0.257c-0.093,0.233,0.022,0.497,0.257,0.59
		c0,0,0.218,0.073,0.562,0.19c0.349,0.1,0.824,0.318,1.435,0.441c0.303,0.07,0.63,0.146,0.977,0.227
		c0.344,0.091,0.721,0.109,1.103,0.17c0.385,0.049,0.778,0.119,1.185,0.119c0.405,0.017,0.815,0.032,1.227,0.049
		c0.411-0.021,0.821-0.043,1.225-0.065c0.405-0.005,0.797-0.081,1.177-0.134c0.38-0.066,0.75-0.089,1.093-0.186
		c0.343-0.085,0.668-0.164,0.967-0.237c0.604-0.13,1.058-0.351,1.399-0.452c0.334-0.118,0.524-0.186,0.524-0.186
		c0.065-0.022,0.1-0.094,0.077-0.16C168.871,128.11,168.804,128.075,168.739,128.094z"/>
	<g>
		<g opacity="0.46">
			<path fill="#1B6F8C" d="M124.003,162.843c-0.044-0.091-0.09-0.182-0.134-0.273h0.049
				C123.979,162.569,123.984,162.727,124.003,162.843z"/>
		</g>
		<g opacity="0.46">
			<path fill="#1B6F8C" d="M124.003,162.843c0.021,0.041,0.041,0.081,0.061,0.122C124.029,162.965,124.015,162.909,124.003,162.843z
				"/>
		</g>
		<g opacity="0.46">
			<path fill="#1B6F8C" d="M82.562,144.35c7.774,0.206,14.565-0.469,21.555-2.406c-0.654,1.929-0.869,4.004-0.751,6.076
				c-6.322,1.831-12.602,2.624-19.735,2.708c-7.185,0.086-14.442-1.122-21.102-3.775c0.705-1.931,1.43-4.026,1.798-6.085
				C70.133,143.047,76.355,144.186,82.562,144.35z"/>
		</g>
		<g opacity="0.63">
			<path fill="#1B6F8C" d="M17.964,129.115c6.039-2.806,14.167-3.602,21.63-1.321c0.781,0.239,1.518,0.489,2.234,0.747
				c-0.325,2.333-0.157,4.745,0.09,7.102l0.003,0.024c-1.255-0.586-2.5-1.143-3.711-1.655c-6.132-2.594-13.407-2.328-19.334,0.706
				c-5.926,3.034-11.688,5.146-13.169,11.638C5.935,140.449,15.247,130.376,17.964,129.115z"/>
		</g>
		<g opacity="0.63">
			<path fill="#1B6F8C" d="M118.795,136.798c6.554-2.23,13.356-4.09,20.043-5.029c5.228-0.733,9.549-0.743,14.811-1.168
				c5.037-0.407,11.146,0.85,15.068-2.24c-3.815,3.648-9.479,4.087-14.72,4.714c-5.241,0.626-10.567,0.485-15.764,1.42
				c-7.089,1.273-13.602,4.473-20.139,7.581c-0.007-1.575,0.139-3.026,0.516-4.156C118.741,137.528,118.792,137.155,118.795,136.798
				z"/>
		</g>
		<g opacity="0.46">
			<path fill="#1B6F8C" d="M168.717,128.188C168.547,127.255,169.064,129.043,168.717,128.188L168.717,128.188z"/>
		</g>
	</g>
	<g>
		<path fill="#1B6F8C" d="M121.157,159.832c0.791,0.225,1.482,0.722,1.996,1.362c0.388,0.853,0.7,1.528,0.858,1.888
			c0.017,0.101,0.02,0.204,0.028,0.307c0,0-2.424,0.267-2.488,0.273l-0.012-0.001C121.422,162.339,121.274,161.153,121.157,159.832z
			"/>
		<path fill="#1B6F8C" d="M113.409,163.773c-0.118-1.322-0.266-2.508-0.384-3.83c1.658,0.472,2.905,2.119,2.909,3.843
			C115.1,163.927,114.241,163.923,113.409,163.773z"/>
		<path fill="#1B6F8C" d="M119.906,163.73c-0.833,0.142-1.692,0.138-2.525-0.012c-0.118-1.322-0.266-2.508-0.382-3.829
			C118.655,160.359,119.903,162.007,119.906,163.73z"/>
	</g>
	<g>
		<path fill="#1B6F8C" d="M51.866,163.386c-0.118-1.239-0.259-2.375-0.374-3.626c1.626,0.457,2.853,2.044,2.91,3.728
			C53.478,163.479,52.625,163.439,51.866,163.386z"/>
		<path fill="#1B6F8C" d="M58.368,163.354c-0.874,0.064-1.704,0.101-2.515,0.119c-0.12-1.302-0.269-2.476-0.389-3.779
			C57.068,160.145,58.28,161.694,58.368,163.354z"/>
		<path fill="#1B6F8C" d="M59.623,159.624c0.158,0.044,0.313,0.1,0.463,0.165c0.612,0.267,1.11,0.731,1.491,1.281
			c0.167,0.646,0.356,1.276,0.584,1.871c-0.758,0.106-1.475,0.191-2.169,0.265C59.875,161.984,59.737,160.86,59.623,159.624z"/>
	</g>
	<g>
		<path fill="#1B515E" d="M78.273,160.471c-0.295,0.035-1.307,0.151-2.494,0.246c-0.092-1.285-0.212-2.45-0.302-3.74
			C76.997,157.438,78.126,158.896,78.273,160.471z"/>
		<path fill="#1B515E" d="M71.627,160.823c-1.066-0.023-1.896-0.064-2.529-0.11c-0.089-1.208-0.2-2.324-0.286-3.551
			C70.385,157.643,71.548,159.186,71.627,160.823z"/>
		<path fill="#1B515E" d="M74.902,160.779c-0.677,0.041-1.365,0.069-1.973,0.064c-0.19-0.002-0.364-0.004-0.543-0.006
			c-0.091-1.295-0.212-2.467-0.303-3.767C73.67,157.555,74.844,159.124,74.902,160.779z"/>
	</g>
	<g>
		<path fill="#1B515E" d="M128.826,157.041c1.61,0.425,2.846,1.955,2.962,3.613c-0.419,0.038-0.827,0.068-1.229,0.094
			c-0.431,0.003-0.862,0.001-1.293-0.009C129.126,159.47,128.964,158.317,128.826,157.041z"/>
		<path fill="#1B515E" d="M128.501,160.719c-0.646-0.025-1.291-0.062-1.936-0.117l-0.611-0.052
			c-0.128-1.109-0.269-2.156-0.393-3.293C127.122,157.669,128.323,159.121,128.501,160.719z"/>
		<path fill="#1B515E" d="M132.214,156.816c1.61,0.425,2.848,1.957,2.962,3.614c-0.872,0.079-1.701,0.127-2.512,0.158
			C132.521,159.29,132.355,158.119,132.214,156.816z"/>
	</g>
</g>
</svg>
