<?xml version="1.0" encoding="utf-8"?>
<!-- Generator: Adobe Illustrator 16.0.4, SVG Export Plug-In . SVG Version: 6.00 Build 0)  -->
<!DOCTYPE svg PUBLIC "-//W3C//DTD SVG 1.1//EN" "http://www.w3.org/Graphics/SVG/1.1/DTD/svg11.dtd">
<svg version="1.1" id="Layer_1" xmlns="http://www.w3.org/2000/svg" xmlns:xlink="http://www.w3.org/1999/xlink" x="0px" y="0px"
	 width="170px" height="170px" viewBox="0 0 170 170" enable-background="new 0 0 170 170" xml:space="preserve">
<title>Artboard 9</title>
<g>
	<path fill="#4A727E" d="M3.03,100.507c0.809-0.526,1.796-0.706,2.76-0.752c1.639-0.078,3.348,0.228,4.684,1.179
		c1.336,0.952,2.219,2.635,1.925,4.248c-0.285,1.56-1.53,2.732-2.708,3.789c-0.968,0.869-1.936,1.737-2.903,2.605
		c-0.109,0.098-0.222,0.197-0.362,0.24c-0.349,0.107-0.69-0.166-0.953-0.42c-1.546-1.498-3.141-3.066-3.884-5.088
		C0.845,104.289,1.226,101.682,3.03,100.507z"/>
	<path fill="#1B81A5" d="M5.769,105.547c0.352-9.14,4.704-17.805,10.769-24.65c6.066-6.845,13.767-12.041,21.714-16.565
		c10.599-6.034,21.923-11.052,33.921-13.24s24.755-1.407,35.821,3.722c9.406,4.36,15.977,12.094,26.048,14.555
		c6.769,1.654,13.862,1.917,20.474,4.121c6.608,2.203,13.012,7.037,14.264,13.892c-3.813,3.647-9.478,4.086-14.719,4.713
		c-5.24,0.628-10.566,0.486-15.765,1.421c-9.272,1.666-17.56,6.627-26.205,10.369c-9.498,4.111-18.047,5.725-28.396,5.848
		c-10.349,0.123-20.854-2.433-29.491-8.135c-4.776-3.152-10.658-6.162-15.93-8.392c-6.132-2.595-13.406-2.328-19.334,0.707
		C13.012,96.941,7.25,99.055,5.769,105.547z"/>
	<g>
		<path fill="#BCBEC0" d="M38.251,64.33c-1.401,0.799-2.79,1.627-4.168,2.473c-0.228-1.109-0.562-2.268,0.068-3.139
			c0.522-0.723,1.548-0.879,2.379-0.607c0.703,0.228,1.297,0.697,1.863,1.194C38.347,64.277,38.299,64.305,38.251,64.33z"/>
		<path fill="#BCBEC0" d="M50.169,58.209c-0.212-1.01-0.393-2.045-0.204-3.055c0.208-1.111,0.985-2.188,2.062-2.352
			c0.845-0.127,1.693,0.333,2.273,0.985c0.547,0.614,0.897,1.383,1.23,2.147C53.726,56.648,51.938,57.406,50.169,58.209z"/>
		<path fill="#BCBEC0" d="M42.047,62.234c0.062-0.854-0.251-1.769,0.066-2.562c0.396-0.992,1.659-1.338,2.649-1.029
			c0.719,0.224,1.324,0.699,1.883,1.231C45.098,60.633,43.565,61.422,42.047,62.234z"/>
		<path fill="#BCBEC0" d="M26.404,71.964c-0.509-1.139-0.307-2.636,0.638-3.437c1.051-0.892,2.794-0.623,3.588,0.477
			C29.195,69.955,27.781,70.936,26.404,71.964z"/>
		<path fill="#BCBEC0" d="M10.701,89.048c-0.842-0.335-1.189-1.612-0.599-2.338c0.502-0.616,1.5-0.601,2.068-0.081
			C11.655,87.42,11.164,88.229,10.701,89.048z"/>
		<path fill="#BCBEC0" d="M16.538,80.896c-0.636,0.719-1.249,1.461-1.845,2.219c-0.557-0.59-0.849-1.452-0.702-2.264
			c0.171-0.953,0.963-1.764,1.889-1.873c0.659-0.078,1.335,0.229,1.763,0.746C17.276,80.116,16.894,80.494,16.538,80.896z"/>
		<path fill="#BCBEC0" d="M20.233,77.133c-0.321-0.535-0.466-1.184-0.354-1.803c0.172-0.952,0.963-1.764,1.89-1.872
			c0.662-0.078,1.343,0.231,1.771,0.755C22.403,75.148,21.305,76.126,20.233,77.133z"/>
		<path fill="#BCBEC0" d="M124.031,64.936c0.546-0.33,1.093-0.662,1.64-0.992c0.966-0.582,2.111-1.184,3.146-0.743
			c0.891,0.378,1.359,1.446,1.359,2.444c0,0.776-0.228,1.523-0.502,2.252C127.698,67.062,125.834,66.051,124.031,64.936z"/>
		<path fill="#BCBEC0" d="M60.019,54.291c-0.071-0.943-0.107-1.898,0.161-2.797c0.305-1.018,1.096-1.953,2.114-2.071
			c0.793-0.091,1.577,0.327,2.137,0.917c0.561,0.59,0.937,1.338,1.304,2.074c-0.639,0.15-1.23,0.383-1.807,0.641
			C62.616,53.438,61.313,53.85,60.019,54.291z"/>
		<path fill="#BCBEC0" d="M110.709,56.207c-0.883-0.49-1.782-0.963-2.716-1.396c-0.984-0.455-1.986-0.865-2.997-1.254
			c0.965-1.019,2.117-1.846,3.388-2.393c0.503-0.217,1.07-0.393,1.582-0.197c0.899,0.34,1.103,1.579,0.954,2.562
			C110.786,54.421,110.498,55.352,110.709,56.207z"/>
		<path fill="#BCBEC0" d="M120.552,62.65c-1.554-1.064-3.098-2.158-4.675-3.228c0.779-0.3,1.425-0.937,2.126-1.428
			c0.817-0.574,1.968-0.94,2.75-0.315c0.763,0.608,0.743,1.814,0.457,2.77C120.991,61.182,120.661,61.904,120.552,62.65z"/>
		<path fill="#BCBEC0" d="M93.225,50.539c0.657-1.186,1.523-2.652,2.006-3.018c0.955-0.729,2.371-0.961,3.307-0.201
			c0.623,0.506,0.918,1.352,0.951,2.174c0.031,0.746-0.125,1.482-0.299,2.211C97.227,51.207,95.234,50.822,93.225,50.539z"/>
		<path fill="#BCBEC0" d="M80.438,50.082c0.23-1.051,0.482-2.117,1.05-3.018c0.597-0.947,1.625-1.688,2.712-1.592
			c1.002,0.086,1.851,0.864,2.329,1.784c0.438,0.845,0.619,1.8,0.775,2.748C85.019,49.91,82.727,49.938,80.438,50.082z"/>
		<path fill="#BCBEC0" d="M72.172,51.09c-0.958,0.174-1.91,0.373-2.859,0.583c-0.067-1.001-0.114-2.021,0.162-2.979
			c0.293-1.026,1.036-1.983,2.046-2.194c1.009-0.211,2.048,0.374,2.701,1.201c0.65,0.823,0.992,1.856,1.319,2.866
			C74.414,50.717,73.289,50.886,72.172,51.09z"/>
	</g>
	<path fill="#1B81A5" d="M16.538,80.896c6.066-6.846,13.767-12.041,21.714-16.566c10.599-6.034,21.923-11.053,33.921-13.24
		c11.998-2.189,24.755-1.408,35.821,3.721c9.406,4.361,15.977,12.095,26.048,14.556c6.769,1.653,13.862,1.917,20.474,4.12
		c6.608,2.205,13.012,7.037,14.264,13.893c-3.814,3.646-9.478,4.086-14.719,4.713c-5.24,0.627-10.566,0.486-15.765,1.421
		c-7.089,1.272-13.603,4.475-20.139,7.58c0.015,3.561,0.813,7.762,1.515,10.366c1.014,3.763,4.553,10.921,4.455,10.921l-2.378,0.268
		c-3.383,0.379-6.797,0.401-10.185,0.068l-3.428-0.336c-1.654-3.328-3.207-7.722-4.104-11.37c-0.321-1.306-0.53-2.657-0.604-4.014
		c-6.322,1.83-12.601,2.647-19.733,2.731c-7.185,0.086-14.443-1.123-21.102-3.774c-0.197,0.541-0.394,1.067-0.578,1.58
		c-1.563,4.313-1.488,10.118,0.147,14.407c-2.816,0.396-5.151,0.551-7.359,0.552c-3.849,0.002-6.575-0.552-6.575-0.552
		c-3.064-8.531-5.297-18.062-6.244-27.082c-1.255-0.588-2.499-1.145-3.711-1.655c-6.132-2.595-13.406-2.328-19.334,0.707
		c-5.926,3.032-11.688,5.146-13.169,11.638C6.121,96.407,10.473,87.742,16.538,80.896z"/>
	<path fill="#1B6F8C" d="M62.592,105.952c4.871,1.938,10.063,3.101,15.312,3.554c-0.174,3.323-0.028,6.662,0.464,9.953
		c0,0-3.242,0.402-5.438,0.385c-4.809-0.037-5.785-0.385-5.785-0.385c-2.339-3.982-3.97-8.271-4.822-12.771
		C62.413,106.439,62.5,106.203,62.592,105.952z"/>
	<path fill="#1B6F8C" d="M119.671,111.458c-0.7-2.606-1.5-6.808-1.515-10.366c3.212-1.527,6.419-3.074,9.691-4.406
		c0.877,8.065,3.603,15.933,7.963,22.773l-2.527,0.186c-2.236,0.164-4.483,0.148-6.719-0.043l-1.652-0.143
		c-1.485-1.613-2.926-3.34-4.273-5.15C120.238,113.27,119.895,112.279,119.671,111.458z"/>
	<path fill="#1B2738" d="M156.154,80.527c0,0-0.028,0.158-0.078,0.438c-0.09,0.235-0.188,0.571-0.438,0.908
		c-0.125,0.161-0.263,0.334-0.435,0.475c-0.166,0.147-0.362,0.274-0.567,0.363c-0.037,0.016-0.135,0.07-0.123,0.053l-0.219,0.062
		c-0.168,0.057-0.234,0.037-0.344,0.058c-0.217,0.027-0.479-0.013-0.719-0.051c-0.237-0.063-0.477-0.146-0.68-0.276
		c-0.203-0.123-0.404-0.275-0.533-0.447c-0.205-0.273-0.266-0.356-0.358-0.599c-0.091-0.209-0.146-0.429-0.177-0.635
		c-0.028-0.208-0.037-0.403-0.025-0.583c0.008-0.178,0.047-0.331,0.062-0.466c0.078-0.263,0.123-0.412,0.123-0.412
		c0.008-0.017,0-0.035-0.016-0.043c-0.011-0.005-0.035,0.006-0.035,0.006s-0.117,0.106-0.316,0.331
		c-0.07,0.124-0.193,0.271-0.27,0.468c-0.084,0.194-0.166,0.425-0.195,0.689c-0.029,0.263-0.053,0.562,0.018,0.87
		c0.033,0.279,0.208,0.731,0.347,0.936c0.19,0.323,0.447,0.594,0.755,0.818c0.307,0.22,0.661,0.369,1.025,0.479
		c0.377,0.086,0.746,0.112,1.146,0.062c0.196-0.036,0.44-0.066,0.557-0.131l0.21-0.084c0.157-0.057,0.18-0.097,0.274-0.146
		c0.316-0.176,0.576-0.416,0.765-0.674c0.207-0.245,0.338-0.521,0.43-0.772c0.099-0.254,0.14-0.498,0.152-0.714
		c0.024-0.214-0.011-0.42-0.021-0.567c-0.074-0.273-0.133-0.426-0.133-0.426c-0.016-0.052-0.068-0.078-0.117-0.062
		C156.188,80.464,156.163,80.497,156.154,80.527z"/>
	<path fill="#BCBEC0" d="M158.296,75.15c1.981-2.002,3.152-4.785,3.201-7.603c1.627,2.916,1.528,6.718-0.249,9.543
		C160.037,76.584,159.507,75.658,158.296,75.15z"/>
	<path fill="#4A727E" d="M36.943,71.568c-15.03,4.775-28.112,16.657-31.048,32.146c0.819-8.461,4.983-16.432,10.642-22.817
		c6.066-6.846,13.767-12.041,21.714-16.566c10.599-6.034,21.923-11.053,33.921-13.24c11.998-2.189,24.755-1.408,35.821,3.721
		c9.407,4.361,15.976,12.095,26.048,14.556c6.77,1.653,13.863,1.917,20.475,4.12c6.541,2.183,12.869,6.941,14.215,13.685
		c-0.984,0.093-1.973,0.187-2.959,0.277c-6.459-10.165-19.604-13.531-31.635-12.968c-12.031,0.564-24.18,4.021-36.107,2.353
		C77.614,73.973,59.527,64.393,36.943,71.568z"/>
	<g opacity="0.31">
		<path fill="#FFFFFF" d="M154.516,75.562c-6.611-2.205-13.705-2.468-20.475-4.121c-10.072-2.463-16.641-10.194-26.048-14.556
			c-11.065-5.129-23.823-5.909-35.821-3.722S48.85,60.37,38.251,66.404c-7.947,4.525-15.648,9.723-21.714,16.565
			c-3.134,3.538-5.806,7.563-7.709,11.889c-1.34,2.789-2.343,5.748-2.933,8.854c0.819-8.461,4.983-16.432,10.642-22.818
			c6.066-6.845,13.767-12.041,21.714-16.565c10.599-6.034,21.923-11.052,33.921-13.24s24.755-1.407,35.821,3.722
			c9.407,4.36,15.976,12.094,26.048,14.555c6.77,1.654,13.863,1.917,20.475,4.121c6.541,2.182,12.869,6.94,14.215,13.684
			c-0.193,0.021-0.39,0.037-0.584,0.056C166.062,81.553,160.38,77.52,154.516,75.562z"/>
	</g>
	<g>
		<path fill="#BCBEC0" d="M75.698,74.962c-0.619,0.833-1.68,1.427-2.69,1.185c-0.967-0.233-1.635-1.174-1.846-2.146
			c-0.171-0.793-0.043-2.01,0.096-2.97c1.888,0.396,3.771,0.829,5.651,1.278C76.623,73.213,76.167,74.33,75.698,74.962z"/>
		<path fill="#BCBEC0" d="M96.008,79.41c-0.689,0.822-1.828,1.369-2.854,1.047c-0.897-0.282-1.504-1.162-1.723-2.077
			c-0.129-0.538-0.209-1.706-0.229-2.741c2.058,0.42,4.132,0.795,6.229,1.104C96.994,77.76,96.42,78.916,96.008,79.41z"/>
		<path fill="#BCBEC0" d="M118.945,79.135c-0.348,0.377-0.781,0.703-1.287,0.785c-0.803,0.132-1.596-0.396-2.024-1.087
			c-0.252-0.405-0.592-1.349-0.846-2.196c1.812-0.205,3.627-0.438,5.442-0.679C120.003,77.126,119.514,78.523,118.945,79.135z"/>
		<path fill="#BCBEC0" d="M130.634,77.533c-0.592,0.742-1.608,1.232-2.507,0.922c-0.999-0.348-1.702-1.975-2.329-3.219
			c1.97-0.239,3.938-0.453,5.904-0.604C131.462,75.59,131.127,76.914,130.634,77.533z"/>
		<path fill="#BCBEC0" d="M84.742,77.258c-0.785,0.756-1.997,1.174-2.988,0.723c-0.818-0.373-1.309-1.258-1.449-2.146
			c-0.084-0.533,0.121-1.64,0.329-2.627c1.92,0.469,3.843,0.937,5.775,1.383C85.93,75.57,85.282,76.736,84.742,77.258z"/>
		<path fill="#BCBEC0" d="M56.314,69.009c-0.19,0.995-0.522,2.208-0.867,2.823c-0.483,0.861-1.476,1.521-2.438,1.297
			c-0.748-0.175-1.303-0.84-1.559-1.564c-0.198-0.562-0.132-1.707-0.094-2.551C53.027,68.941,54.678,68.945,56.314,69.009z"/>
		<path fill="#BCBEC0" d="M107.87,77.207c-0.417,0.711-0.698,1.75-1.076,2.355c-0.462,0.74-1.183,1.433-2.056,1.434
			c-0.809,0.001-1.516-0.612-1.868-1.339c-0.269-0.552-0.453-1.606-0.556-2.437C104.162,77.307,106.016,77.289,107.87,77.207z"/>
		<path fill="#BCBEC0" d="M18.357,85.234c-0.597,0.725-1.938,0.58-2.368-0.256c0.673-0.629,1-1.395,1.668-2.022
			C18.558,83.22,18.955,84.509,18.357,85.234z"/>
		<path fill="#BCBEC0" d="M31.062,77.295c-1.218,0.062-2.447-0.575-3.098-1.605c1.196-0.442,2.058-1.264,3.254-1.705
			C31.588,75.055,31.531,76.266,31.062,77.295z"/>
		<path fill="#BCBEC0" d="M24.245,77.654c0.321,0.597,0.457,1.311,0.27,1.96c-0.19,0.655-0.747,1.219-1.422,1.312
			c-0.675,0.098-1.416-0.352-1.552-1.02c0.899-0.318,1.711-1.301,2.366-2.038c0.013-0.009,0.027-0.017,0.04-0.025
			C24.045,77.781,24.147,77.721,24.245,77.654z"/>
		<path fill="#BCBEC0" d="M46.742,71.639c-0.351,0.777-1.114,1.435-1.966,1.389c-0.633-0.032-1.197-0.443-1.57-0.959
			c-0.256-0.352-0.483-1.239-0.668-1.957c1.661-0.344,3.303-0.608,4.922-0.793C47.289,70.134,46.972,71.133,46.742,71.639z"/>
		<path fill="#BCBEC0" d="M64.242,72.971c-0.606,0.783-1.635,1.322-2.589,1.06c-0.881-0.246-1.475-1.115-1.663-2.011
			c-0.188-0.896-0.043-1.824,0.101-2.727c0.003-0.013,0.006-0.02,0.011-0.031c1.854,0.174,3.694,0.416,5.52,0.711
			C65.331,70.93,64.79,72.266,64.242,72.971z"/>
		<path fill="#BCBEC0" d="M17.683,82.876c0.004,0.028-0.004,0.06-0.026,0.08c-0.022,0.017-0.043,0.015-0.068,0.009
			C17.62,82.936,17.652,82.906,17.683,82.876z"/>
		<path fill="#BCBEC0" d="M17.657,82.956L17.657,82.956L17.657,82.956z"/>
		<path fill="#BCBEC0" d="M38.812,72.693c0.056,0.646-0.193,1.365-0.764,1.674c-0.627,0.34-1.442,0.076-1.95-0.424
			c-0.477-0.471-0.744-1.106-0.986-1.734c0.609-0.219,1.216-0.445,1.832-0.641c0.458-0.146,0.909-0.272,1.362-0.404
			C38.547,71.65,38.767,72.154,38.812,72.693z"/>
	</g>
	<path fill="#BCBEC0" d="M115.361,66.156c0.302-0.723,0.615-1.463,1.164-2.021c0.547-0.56,1.392-0.9,2.127-0.638
		c0.729,0.261,1.166,1.048,1.244,1.819c0.076,0.771-0.139,1.539-0.351,2.283C118.086,67.215,116.823,66.541,115.361,66.156z"/>
	<path fill="#BCBEC0" d="M103.223,64.802c0.123-0.934,0.252-1.892,0.613-2.655c0.362-0.763,1.018-1.295,1.693-1.062
		c0.67,0.229,1.188,1.147,1.396,2.095c0.211,0.944,0.174,1.924,0.133,2.873C105.741,65.762,104.54,65.091,103.223,64.802z"/>
	<path fill="#BCBEC0" d="M90.756,61.045c0.25-0.742,0.51-1.503,1.018-2.1c0.506-0.596,1.324-0.996,2.078-0.786
		c0.746,0.208,1.237,0.962,1.369,1.726c0.131,0.764-0.027,1.545-0.187,2.305C93.548,61.907,92.241,61.325,90.756,61.045z"/>
	<path fill="#BCBEC0" d="M79.158,59.352c0.126-0.771,0.26-1.564,0.663-2.235c0.403-0.671,1.145-1.199,1.923-1.113
		c0.771,0.084,1.377,0.748,1.631,1.479c0.254,0.732,0.224,1.529,0.191,2.304C82.055,59.75,80.669,59.389,79.158,59.352z"/>
	<path fill="#BCBEC0" d="M68.292,59.79c-0.053-0.78-0.103-1.584,0.138-2.329c0.239-0.744,0.842-1.428,1.619-1.521
		c0.77-0.092,1.511,0.416,1.925,1.071c0.413,0.656,0.564,1.438,0.709,2.199C71.203,59.52,69.773,59.482,68.292,59.79z"/>
	<path fill="#BCBEC0" d="M57.849,61.01c-0.043-0.635-0.083-1.287,0.111-1.893c0.195-0.604,0.685-1.159,1.316-1.234
		c0.625-0.076,1.227,0.338,1.563,0.87c0.336,0.532,0.459,1.168,0.576,1.786C60.213,60.79,59.051,60.758,57.849,61.01z"/>
	<path fill="#BCBEC0" d="M48.406,63.871c-0.168-0.613-0.337-1.244-0.266-1.877c0.07-0.631,0.441-1.271,1.044-1.471
		c0.598-0.198,1.27,0.088,1.706,0.543c0.435,0.455,0.681,1.053,0.918,1.637C50.68,63.188,49.534,63.387,48.406,63.871z"/>
	<path fill="#BCBEC0" d="M40.149,67.209c-0.167-0.613-0.337-1.244-0.266-1.876c0.072-0.632,0.441-1.272,1.045-1.472
		c0.597-0.197,1.27,0.088,1.705,0.543c0.435,0.455,0.682,1.055,0.919,1.637C42.423,66.525,41.279,66.727,40.149,67.209z"/>
	<path fill="#BCBEC0" d="M32.532,71.293c-0.277-0.572-0.559-1.161-0.604-1.795c-0.045-0.635,0.202-1.332,0.758-1.639
		c0.551-0.303,1.265-0.146,1.775,0.223c0.511,0.368,0.863,0.911,1.203,1.441C34.643,70.205,33.553,70.611,32.532,71.293z"/>
	<path fill="#BCBEC0" d="M24.862,75.414c-0.277-0.572-0.559-1.162-0.605-1.796c-0.045-0.634,0.202-1.331,0.758-1.638
		c0.552-0.305,1.266-0.146,1.776,0.223c0.51,0.367,0.863,0.91,1.202,1.441C26.973,74.326,25.883,74.732,24.862,75.414z"/>
	<path fill="#BCBEC0" d="M115.007,71.789c1.224,0.337,2.526,0.375,3.767,0.109c-0.047-0.838-0.83-1.855-1.664-1.929
		C116.273,69.898,115.197,70.973,115.007,71.789z"/>
	<path fill="#BCBEC0" d="M102.787,71.109c1.222,0.336,2.525,0.375,3.766,0.108c-0.048-0.837-0.828-1.854-1.662-1.927
		C104.055,69.22,102.977,70.293,102.787,71.109z"/>
	<path fill="#BCBEC0" d="M90.562,69.66c1.223,0.338,2.524,0.375,3.767,0.109c-0.047-0.836-0.829-1.854-1.664-1.927
		C91.83,67.769,90.752,68.846,90.562,69.66z"/>
	<path fill="#BCBEC0" d="M78.368,68.369c1.222,0.337,2.526,0.375,3.766,0.109c-0.048-0.838-0.829-1.855-1.664-1.929
		C79.636,66.479,78.557,67.553,78.368,68.369z"/>
	<path fill="#BCBEC0" d="M67.378,66.271c1.222,0.338,2.526,0.375,3.767,0.108c-0.048-0.836-0.83-1.854-1.665-1.926
		C68.645,64.382,67.568,65.456,67.378,66.271z"/>
	<path fill="#BCBEC0" d="M57.648,66.736c1.223,0.338,2.527,0.375,3.767,0.108c-0.047-0.836-0.83-1.854-1.665-1.926
		C58.915,64.848,57.839,65.922,57.648,66.736z"/>
	<path fill="#BCBEC0" d="M48.154,67.038c1.262,0.13,2.555-0.048,3.734-0.515c-0.186-0.818-1.125-1.691-1.961-1.625
		C49.093,64.965,48.208,66.202,48.154,67.038z"/>
	<path fill="#BCBEC0" d="M37.178,70.201c1.237-0.28,2.405-0.863,3.373-1.684c-0.437-0.715-1.607-1.242-2.377-0.912
		C37.404,67.938,36.961,69.393,37.178,70.201z"/>
	<path fill="#BCBEC0" d="M148.311,77.441c0.401,1.773-0.998,3.738-2.808,3.938c-2.353,0.262-4.112-1.079-5.799-2.74
		c-1.687-1.662-2.658-4.021-2.636-6.39C140.134,74.863,144.286,77.284,148.311,77.441z"/>
	<path fill="#BCBEC0" d="M154.104,73.156c-1.414,1.631-4.188,1.82-5.812,0.396c-0.558-2.038-0.192-4.237,0.728-6.141
		c0.92-1.904,2.545-3.454,4.488-4.283C151.863,66.548,152.453,69.741,154.104,73.156z"/>
	<path fill="#BCBEC0" d="M160.979,91.094c-0.203-0.668-0.254-1.396-0.154-2.088c0.203-1.447,0.932-2.763,1.688-4.015
		c0.743-1.232,1.543-2.457,2.631-3.398c0.225-0.192,0.465-0.368,0.713-0.532c1.444,1.854,2.494,3.962,2.924,6.317
		C166.629,89.434,163.895,90.469,160.979,91.094z"/>
	<path fill="#1B2738" d="M168.738,87.094c0,0-0.193,0.059-0.532,0.158c-0.343,0.084-0.819,0.284-1.41,0.377
		c-0.292,0.057-0.61,0.117-0.946,0.184c-0.33,0.074-0.699,0.078-1.067,0.123c-0.373,0.034-0.757,0.088-1.148,0.073
		c-0.393,0.001-0.79,0.002-1.188,0.003c-0.396-0.035-0.791-0.07-1.182-0.105c-0.391-0.021-0.767-0.107-1.133-0.174
		c-0.363-0.076-0.722-0.11-1.046-0.217c-0.327-0.094-0.636-0.183-0.92-0.264c-0.576-0.145-1.017-0.379-1.343-0.488
		c-0.319-0.125-0.545-0.214-0.545-0.214c-0.232-0.092-0.496,0.022-0.588,0.257c-0.094,0.233,0.021,0.498,0.256,0.59
		c0,0,0.219,0.073,0.562,0.19c0.351,0.101,0.824,0.318,1.437,0.44c0.303,0.07,0.629,0.146,0.977,0.228
		c0.344,0.091,0.721,0.109,1.104,0.17c0.386,0.05,0.777,0.119,1.186,0.119c0.405,0.017,0.814,0.032,1.229,0.049
		c0.41-0.021,0.819-0.043,1.225-0.065c0.404-0.004,0.797-0.079,1.177-0.133c0.38-0.065,0.75-0.09,1.093-0.187
		c0.344-0.085,0.668-0.164,0.967-0.237c0.604-0.13,1.06-0.351,1.399-0.451c0.334-0.119,0.524-0.187,0.524-0.187
		c0.064-0.022,0.1-0.094,0.076-0.16C168.871,87.109,168.805,87.075,168.738,87.094z"/>
	<g>
		<g opacity="0.46">
			<path fill="#1B6F8C" d="M124.003,121.843c-0.044-0.091-0.09-0.182-0.134-0.272h0.049
				C123.979,121.568,123.984,121.727,124.003,121.843z"/>
		</g>
		<g opacity="0.46">
			<path fill="#1B6F8C" d="M124.003,121.843c0.021,0.041,0.041,0.081,0.062,0.122C124.029,121.965,124.016,121.909,124.003,121.843z
				"/>
		</g>
		<g opacity="0.46">
			<path fill="#1B6F8C" d="M82.562,103.35c7.774,0.207,14.565-0.469,21.555-2.406c-0.654,1.931-0.869,4.006-0.751,6.076
				c-6.322,1.832-12.603,2.625-19.735,2.709c-7.185,0.086-14.442-1.123-21.102-3.774c0.705-1.933,1.43-4.026,1.798-6.085
				C70.133,102.047,76.355,103.186,82.562,103.35z"/>
		</g>
		<g opacity="0.63">
			<path fill="#1B6F8C" d="M17.964,88.115c6.039-2.807,14.167-3.602,21.63-1.321c0.781,0.239,1.518,0.489,2.234,0.747
				c-0.325,2.333-0.157,4.745,0.09,7.102l0.003,0.024c-1.255-0.586-2.5-1.144-3.711-1.655c-6.132-2.594-13.407-2.328-19.334,0.706
				c-5.926,3.034-11.688,5.146-13.169,11.638C5.935,99.449,15.247,89.376,17.964,88.115z"/>
		</g>
		<g opacity="0.63">
			<path fill="#1B6F8C" d="M118.795,95.798c6.555-2.229,13.355-4.09,20.043-5.028c5.229-0.732,9.549-0.744,14.811-1.168
				c5.037-0.408,11.146,0.851,15.068-2.24c-3.814,3.647-9.479,4.088-14.72,4.715c-5.241,0.626-10.567,0.484-15.765,1.42
				c-7.088,1.271-13.603,4.473-20.14,7.581c-0.007-1.575,0.14-3.026,0.517-4.156C118.741,96.527,118.792,96.154,118.795,95.798z"/>
		</g>
		<g opacity="0.46">
			<path fill="#1B6F8C" d="M168.717,87.188C168.547,86.255,169.064,88.043,168.717,87.188L168.717,87.188z"/>
		</g>
	</g>
	<g>
		<path fill="#1B6F8C" d="M121.157,118.832c0.791,0.225,1.481,0.723,1.995,1.361c0.389,0.854,0.701,1.529,0.859,1.889
			c0.016,0.102,0.02,0.204,0.026,0.307c0,0-2.425,0.269-2.488,0.273l-0.012-0.001C121.422,121.339,121.273,120.152,121.157,118.832z
			"/>
		<path fill="#1B6F8C" d="M113.409,122.773c-0.118-1.322-0.267-2.508-0.384-3.83c1.658,0.472,2.904,2.119,2.908,3.843
			C115.1,122.927,114.241,122.923,113.409,122.773z"/>
		<path fill="#1B6F8C" d="M119.906,122.73c-0.833,0.142-1.692,0.138-2.525-0.014c-0.117-1.32-0.266-2.508-0.382-3.828
			C118.654,119.359,119.902,121.007,119.906,122.73z"/>
	</g>
	<g>
		<path fill="#1B6F8C" d="M51.866,122.386c-0.118-1.239-0.259-2.375-0.374-3.626c1.626,0.457,2.853,2.045,2.91,3.729
			C53.478,122.479,52.625,122.439,51.866,122.386z"/>
		<path fill="#1B6F8C" d="M58.368,122.354c-0.874,0.064-1.704,0.103-2.515,0.119c-0.12-1.302-0.269-2.476-0.389-3.779
			C57.068,119.145,58.28,120.693,58.368,122.354z"/>
		<path fill="#1B6F8C" d="M59.623,118.624c0.158,0.044,0.313,0.101,0.463,0.165c0.612,0.268,1.11,0.73,1.491,1.281
			c0.167,0.646,0.356,1.274,0.584,1.871c-0.758,0.104-1.475,0.189-2.169,0.265C59.875,120.984,59.737,119.859,59.623,118.624z"/>
	</g>
	<g>
		<path fill="#1B515E" d="M78.273,119.471c-0.295,0.035-1.307,0.151-2.494,0.246c-0.092-1.285-0.212-2.449-0.302-3.74
			C76.997,116.438,78.126,117.896,78.273,119.471z"/>
		<path fill="#1B515E" d="M71.627,119.823c-1.066-0.023-1.896-0.064-2.529-0.11c-0.089-1.208-0.2-2.324-0.286-3.551
			C70.385,116.643,71.548,118.186,71.627,119.823z"/>
		<path fill="#1B515E" d="M74.902,119.779c-0.677,0.041-1.365,0.068-1.973,0.062c-0.19-0.002-0.364-0.004-0.543-0.006
			c-0.091-1.295-0.212-2.467-0.303-3.768C73.67,116.555,74.844,118.124,74.902,119.779z"/>
	</g>
	<g>
		<path fill="#1B515E" d="M128.826,116.041c1.609,0.425,2.846,1.955,2.962,3.613c-0.419,0.037-0.827,0.068-1.229,0.094
			c-0.431,0.003-0.86,0.001-1.293-0.009C129.126,118.471,128.964,117.316,128.826,116.041z"/>
		<path fill="#1B515E" d="M128.501,119.719c-0.646-0.025-1.291-0.062-1.937-0.117l-0.61-0.052c-0.128-1.108-0.269-2.155-0.394-3.293
			C127.122,116.669,128.323,118.121,128.501,119.719z"/>
		<path fill="#1B515E" d="M132.214,115.816c1.61,0.425,2.849,1.957,2.962,3.613c-0.871,0.078-1.701,0.127-2.512,0.157
			C132.521,118.29,132.355,117.119,132.214,115.816z"/>
	</g>
</g>
</svg>
