<?xml version="1.0" encoding="utf-8"?>
<!-- Generator: Adobe Illustrator 22.1.0, SVG Export Plug-In . SVG Version: 6.00 Build 0)  -->
<svg version="1.1"
	 id="Layer_1" xmlns:cc="http://web.resource.org/cc/" xmlns:dc="http://purl.org/dc/elements/1.1/" xmlns:rdf="http://www.w3.org/1999/02/22-rdf-syntax-ns#" xmlns:svg="http://www.w3.org/2000/svg"
	 xmlns="http://www.w3.org/2000/svg" xmlns:xlink="http://www.w3.org/1999/xlink" x="0px" y="0px" viewBox="0 0 125 125"
	 style="enable-background:new 0 0 125 125;" xml:space="preserve">
<style type="text/css">
	.st0{fill:#7F7F7F;}
	.st1{fill:#A9CBE3;}
	.st2{fill:#666666;}
	.st3{fill:#010101;}
	.st4{fill:#2D353A;}
	.st5{fill:#AAAAAA;}
	.st6{fill:#8B9194;}
	.st7{fill:#295C69;}
	.st8{fill:#327081;}
	.st9{fill:#51BCD9;}
	.st10{fill:#3C8CA0;}
	.st11{fill:#404241;}
	.st12{fill:#163139;}
	.st13{fill:#525E66;}
	.st14{fill:#A7DFEB;}
	.st15{fill:#5F7686;}
	.st16{fill:#254856;}
	.st17{fill:#698F75;}
	.st18{fill:#0D1767;}
	.st19{fill:#8A9309;}
	.st20{fill:#A9B209;}
	.st21{fill:#6D7406;}
	.st22{fill:#E7F30B;}
	.st23{fill:#494D03;}
	.st24{fill:#3D3D3D;}
	.st25{fill:#669356;}
	.st26{fill:#393C03;}
	.st27{fill:#FFFFFF;}
	.st28{fill:#696D33;}
	.st29{fill:#370101;}
	.st30{fill:#D30901;}
	.st31{fill:#740701;}
</style>
<path class="st0" d="M35.9,5.8V6h0.7L35.9,5.8z"/>
<path class="st1" d="M46.1,5.8V6h0.9L46.1,5.8z"/>
<path class="st2" d="M35.4,6l0.2,0.2L35.4,6z"/>
<path class="st3" d="M60.3,108.5c0.8-0.8,4.1-2.5,5.1-1.5c1,1,0.1,3.8-1.3,4c-0.7,0.1-1.6-0.6-2.2-0.9c0.5,0.9,1.7,1.3,2,2.3
	c0.2,0.6,0,1.2-0.2,1.8c-1.2,4.2-5.6,2.2-8.4,1.1c-4,3.4-9.2-4-11-6.6h-0.2c0.9,3.7,4.2,7.5,8,8.3c1.7,0.4,3.5,0,5.3,0.1
	c1.7,0.1,4.1,0.7,5.7-0.1c1.9-0.9,1.8-3.5,2.6-5.2c0.4-0.8,1.1-1.6,1.2-2.5c0.2-1-0.7-2.4,0-3.3c1.3-1.6,4.5-2.6,6.3-3.8
	c4.5-3,9.4-7.2,11.6-12.3c2.5,1.7,5.2,4.7,8.4,5c2.8,0.3,3.7-0.8,5.9-2c1.7-1,3.4-1,4.8-2.5c2.6-2.8,0.9-5.8,0-8.9
	c-0.3-0.9-0.1-1.9-0.6-2.7c-1.9-3-6.2-3.2-9.2-4.3c1.5-3.6,3.4-7.1,5.3-10.5c0.6-1,1.1-3,2.3-3.5c3.2-1.3,8.2,6.2,11.1,1.9
	c2.3-3.5,1.9-7.8,1.2-11.9c-1.5-9.2-5.2-17.7-11.2-24.9c-2.3-2.8-5.9-6.6-9.6-7.3v0.2c1.6,0.9,3.5,2,4.7,3.4
	c4.3,5.1,0.6,12.2-0.4,17.6h-0.9c0-4.1-0.4-8-1.8-11.9c-1.1-3.1-2.8-5.9-4-8.9h-0.2c0,2.4,1.6,4.5,2.6,6.6c1.2,2.5,2.1,5.5,2.5,8.2
	c0.2,1.3,0.9,3.3,0.3,4.5c-0.5,1-1.8,0.4-2.6,0.2c-2.5-0.7-4.6-2.6-6.6-4.2c-6.1-4.9-10.4-11.7-16.7-16.4c-2-1.5-4.8-3.6-7.3-4
	l0.9,0.7v0.5c-3.3,0.8-6.5,1.6-9.6,2.9c-2.1,0.9-4.2,2.6-6.4,3.3c-2.8,0.9-6.2,0.5-9.1,1.2c-5.2,1.1-9.2,3.3-13.7,5.8
	c-1.5-6.2,2.4-17.2,8.4-19.9c-3.4,5-6.7,11.3-6.8,17.6h0.2c4.4-7.5,9-17.1,18-19.4c-4,5-12.1,8.7-13.7,15.5c1.8-0.8,3.1-2.7,4.6-4.1
	c4.5-4.1,11.4-10.2,18-8.9v0.5c-4.8,1-9.3,3.9-13.2,6.7c-1.5,1.1-3.5,2.4-4.3,4c1.8-0.4,3.4-1.9,5-2.7c4.8-2.4,10.7-5.5,16.2-5.5
	v-0.2c-3.5,0-6.6,0.6-9.8,2.1c1.9-1.9,6.2-3.3,8.9-3.7c-1-1.9-3.9-1.9-5.7-1.7c-5.4,0.7-8.8,3.7-13.2,6.5l6.6-5.7L47.7,6
	c-2.5,0-5.2-0.1-7.5,1c-4.1,2-6.2,6.5-9.1,9.7L36.6,6C29,6.7,25.7,16.2,24.7,22.4c-0.3,1.9-0.1,3.9-0.6,5.7c-0.5,2-3.7,3.9-5,5.5
	c-2.9,3.5-4.9,7.4-5.8,11.9c-1.1,6-0.9,12.6,1.6,18.3c1.3,3,3,5.7,4.3,8.7c0.4,0.9,1.2,2,1.2,3c0.1,1.4-2.7,3-3.3,4.3
	c-0.8,1.9-0.1,3.8-0.5,5.7c-0.3,1.2-1.7,2-2.2,3.2c-1.3,2.9-0.1,6.9,1.6,9.4c5.1,7.5,15.8,7.6,23.8,9c3.7,0.7,7.4,1.9,11.2,2.1
	C54.3,109.3,57.2,107.9,60.3,108.5z"/>
<path class="st4" d="M42.9,6v0.2h0.9L42.9,6z"/>
<path class="st5" d="M47.8,6.2l0.1,0.2L47.8,6.2z"/>
<path class="st6" d="M34.7,6.2L35,6.5L34.7,6.2z"/>
<path class="st2" d="M42,6.3l0.2,0.1L42,6.3 M36.3,6.5l0.2,0.2L36.3,6.5z"/>
<path class="st6" d="M41.1,6.5l0.2,0.2L41.1,6.5z"/>
<path class="st7" d="M44.5,6.5l0.2,0.1L44.5,6.5z"/>
<path class="st2" d="M47.5,6.5l0.2,0.2L47.5,6.5 M40.7,6.7l0.2,0.2L40.7,6.7z"/>
<path class="st8" d="M43.3,6.8l0.2,0.1L43.3,6.8z"/>
<path class="st9" d="M26.7,25.9h-0.2c-0.6-6.2,4.3-12.4,6.8-17.6c-1.9,0.5-3.3,2.4-4.4,3.9c-3.4,4.6-4.1,10.2-4.1,15.8
	c3-0.6,6-3.2,8.9-4.3c4.7-1.8,9.8-1.2,14.4-2.6c5.4-1.7,9.7-5.3,15.5-6.1c-1.4-2.4-5.2-2.8-7.8-2.7c-7.3,0.1-13.8,5.2-20.1,8.2
	c1.1-1.5,2.8-2.8,4.3-3.9c3.7-2.9,8.7-6.2,13.5-7V9c-6.2,0-11.3,2.9-16,6.9c-2.2,1.9-4.2,4.4-6.6,6.1c2.2-6,8.7-11.5,13.7-15.1
	c-2.4-0.9-5.7,1.6-7.1,3.2C33.4,14.8,29.2,20,26.7,25.9z"/>
<path class="st0" d="M47.3,6.7l0.2,0.2L47.3,6.7 M33.4,6.9l0.2,0.2L33.4,6.9z"/>
<path class="st8" d="M42.4,7l0.2,0.1L42.4,7z"/>
<path class="st0" d="M46.8,6.9l0.2,0.2L46.8,6.9z"/>
<path class="st2" d="M35.9,7.1l0.2,0.2L35.9,7.1z"/>
<path class="st10" d="M41.7,7.2l0.2,0.1L41.7,7.2z"/>
<path class="st2" d="M32.7,7.4l0.2,0.2L32.7,7.4 M39.3,7.4l0.2,0.2L39.3,7.4 M35.6,7.6l0.2,0.2L35.6,7.6z"/>
<path class="st5" d="M45.9,7.6l0.2,0.2L45.9,7.6z"/>
<path class="st6" d="M32,7.8l0.2,0.2L32,7.8z"/>
<path class="st2" d="M38.6,7.8l0.2,0.2L38.6,7.8z"/>
<path class="st0" d="M35.4,8.1l0.2,0.2L35.4,8.1z"/>
<path class="st2" d="M45.2,8.1l0.2,0.2L45.2,8.1z"/>
<path class="st5" d="M37.9,8.3l0.2,0.2L37.9,8.3 M45,8.3l0.2,0.2L45,8.3z"/>
<path class="st6" d="M49.8,8.3v0.2h0.7L49.8,8.3z"/>
<path class="st11" d="M50.5,8.3v0.2h0.7L50.5,8.3 M52.9,8.4l0.2,0.1L52.9,8.4z"/>
<path class="st0" d="M53.4,8.4l0.2,0.1L53.4,8.4 M35.2,8.5l0.2,0.2L35.2,8.5 M37.7,8.5l0.2,0.2L37.7,8.5z"/>
<path class="st7" d="M39.1,8.5l0.2,0.2L39.1,8.5z"/>
<path class="st0" d="M48.8,8.6L49,8.7L48.8,8.6z"/>
<path class="st2" d="M54.4,8.5l0.2,0.2L54.4,8.5z"/>
<path class="st5" d="M30.8,8.7L31.1,9L30.8,8.7z"/>
<path class="st2" d="M37.5,8.7L37.7,9L37.5,8.7 M44.3,8.7L44.5,9L44.3,8.7 M47.9,8.8L48,8.9L47.9,8.8z"/>
<path class="st10" d="M50,8.7V9h3.2L50,8.7z"/>
<path class="st5" d="M55,8.7L55.3,9L55,8.7 M30.6,9l0.2,0.2L30.6,9z"/>
<path class="st6" d="M35,9l0.2,0.2L35,9z"/>
<path class="st2" d="M37.2,9l0.2,0.2L37.2,9z"/>
<path class="st11" d="M47.2,9l0.2,0.1L47.2,9z"/>
<path class="st8" d="M49.1,9v0.2h0.7L49.1,9z"/>
<path class="st5" d="M30.4,9.2l0.2,0.2L30.4,9.2z"/>
<path class="st2" d="M37,9.2l0.2,0.2L37,9.2z"/>
<path class="st6" d="M46.4,9.2l0.2,0.2L46.4,9.2z"/>
<path class="st10" d="M48.6,9.3l0.2,0.1L48.6,9.3z"/>
<path class="st5" d="M30.2,9.4l0.2,0.2L30.2,9.4z"/>
<path class="st7" d="M32.4,9.4l0.2,0.2L32.4,9.4z"/>
<path class="st5" d="M34.7,9.4L35,9.7L34.7,9.4z"/>
<path class="st2" d="M36.8,9.4L37,9.7L36.8,9.4 M43.4,9.4l0.2,0.2L43.4,9.4z"/>
<path class="st12" d="M52.9,9.5l0.2,0.1L52.9,9.5z"/>
<path class="st5" d="M29.9,9.7l0.2,0.2L29.9,9.7z"/>
<path class="st2" d="M36.6,9.7l0.2,0.2L36.6,9.7z"/>
<path class="st5" d="M45.2,9.7l0.2,0.2L45.2,9.7 M29.7,9.9l0.2,0.2L29.7,9.9z"/>
<path class="st2" d="M36.3,9.9l0.2,0.2L36.3,9.9z"/>
<path class="st5" d="M44.8,9.9l0.2,0.2L44.8,9.9z"/>
<path class="st7" d="M32,10.1l0.2,0.2L32,10.1z"/>
<path class="st0" d="M36.1,10.1l0.2,0.2L36.1,10.1z"/>
<path class="st2" d="M42.5,10.1l0.2,0.2L42.5,10.1z"/>
<path class="st5" d="M44.3,10.1l0.2,0.2L44.3,10.1z"/>
<path class="st6" d="M55.5,10.1v0.2h0.7L55.5,10.1z"/>
<path class="st5" d="M35.9,10.3l0.2,0.2L35.9,10.3 M42.3,10.3l0.2,0.2L42.3,10.3z"/>
<path class="st6" d="M54.7,10.4l0.2,0.1L54.7,10.4z"/>
<path class="st5" d="M54.1,10.6l0.2,0.1L54.1,10.6z"/>
<path class="st2" d="M29,10.8l0.2,0.2L29,10.8z"/>
<path class="st7" d="M29.9,10.8l0.2,0.2L29.9,10.8z"/>
<path class="st0" d="M43.2,10.8l0.2,0.2L43.2,10.8z"/>
<path class="st5" d="M53.4,10.9l0.2,0.1L53.4,10.9z"/>
<path class="st6" d="M28.8,11l0.2,0.2L28.8,11z"/>
<path class="st2" d="M33.8,11l0.2,0.2L33.8,11z"/>
<path class="st0" d="M41.3,11l0.2,0.2L41.3,11z"/>
<path class="st2" d="M35.2,11.3l0.2,0.2L35.2,11.3z"/>
<path class="st5" d="M41.1,11.3l0.2,0.2L41.1,11.3z"/>
<path class="st2" d="M42.5,11.3l0.2,0.2L42.5,11.3z"/>
<path class="st6" d="M52.1,11.3l0.2,0.2L52.1,11.3z"/>
<path class="st2" d="M33.6,11.5l0.2,0.2L33.6,11.5z"/>
<path class="st6" d="M35,11.5l0.2,0.2L35,11.5z"/>
<path class="st2" d="M51.4,11.5l0.2,0.2L51.4,11.5z"/>
<path class="st1" d="M54.3,11.6l0.2,0.1L54.3,11.6z"/>
<path class="st0" d="M54.6,11.5v0.2h0.7L54.6,11.5z"/>
<path class="st11" d="M55.3,11.5v0.2H56L55.3,11.5z"/>
<path class="st0" d="M56.1,11.6l0.2,0.1L56.1,11.6z"/>
<path class="st2" d="M28.3,11.7l0.2,0.2L28.3,11.7 M41.8,11.7l0.2,0.2L41.8,11.7z"/>
<path class="st0" d="M50.9,11.7l0.2,0.2L50.9,11.7z"/>
<path class="st6" d="M53.2,11.7l0.2,0.2L53.2,11.7z"/>
<path class="st7" d="M55,11.9v0.2h2.7L55,11.9z"/>
<path class="st0" d="M33.4,11.9l0.2,0.2L33.4,11.9z"/>
<path class="st2" d="M40.2,11.9l0.2,0.2L40.2,11.9z"/>
<path class="st7" d="M43.2,11.9l0.2,0.2L43.2,11.9z"/>
<path class="st5" d="M50.5,11.9l0.2,0.2L50.5,11.9z"/>
<path class="st2" d="M52.3,11.9l0.2,0.2L52.3,11.9 M40,12.2l0.2,0.2L40,12.2z"/>
<path class="st6" d="M41.1,12.2l0.2,0.2L41.1,12.2z"/>
<path class="st13" d="M51.5,12.2l0.2,0.1L51.5,12.2z"/>
<path class="st10" d="M54.3,12.2l0.2,0.1L54.3,12.2z"/>
<path class="st14" d="M58.2,12.2v0.2h0.9L58.2,12.2z"/>
<path class="st0" d="M27.9,12.4l0.2,0.2L27.9,12.4 M33.1,12.4l0.2,0.2L33.1,12.4z"/>
<path class="st6" d="M34.3,12.4l0.2,0.2L34.3,12.4z"/>
<path class="st5" d="M39.8,12.4l0.2,0.2L39.8,12.4z"/>
<path class="st7" d="M46.1,12.4l0.2,0.2L46.1,12.4z"/>
<path class="st2" d="M49.3,12.4l0.2,0.2L49.3,12.4z"/>
<path class="st5" d="M39.5,12.6l0.2,0.2L39.5,12.6z"/>
<path class="st2" d="M48.9,12.6l0.2,0.2L48.9,12.6z"/>
<path class="st6" d="M50,12.6l0.2,0.2L50,12.6z"/>
<path class="st8" d="M52.7,12.7l0.2,0.1L52.7,12.7z"/>
<path class="st5" d="M32.9,12.9l0.2,0.2L32.9,12.9z"/>
<path class="st2" d="M40.2,12.9l0.2,0.2L40.2,12.9z"/>
<path class="st0" d="M48.4,12.9l0.2,0.2L48.4,12.9z"/>
<path class="st13" d="M49.5,12.9l0.2,0.1L49.5,12.9z"/>
<path class="st2" d="M33.8,13.1l0.2,0.2L33.8,13.1z"/>
<path class="st1" d="M47.7,13.5h0.7l-0.2-0.5L47.7,13.5z"/>
<path class="st5" d="M32.7,13.3l0.2,0.2L32.7,13.3 M33.6,13.3l0.2,0.2L33.6,13.3 M39.5,13.3l0.2,0.2L39.5,13.3z"/>
<path class="st11" d="M47.6,13.5l0.1,0.2L47.6,13.5z"/>
<path class="st5" d="M27.2,13.5l0.2,0.2L27.2,13.5z"/>
<path class="st0" d="M62.6,14l0.7-0.2L62.6,14z"/>
<path class="st7" d="M40.2,13.8l0.2,0.2L40.2,13.8z"/>
<path class="st5" d="M27,14l0.2,0.2L27,14z"/>
<path class="st0" d="M33.1,14l0.2,0.2L33.1,14 M38.6,14l0.2,0.2L38.6,14z"/>
<path class="st7" d="M43.4,14l0.2,0.2L43.4,14z"/>
<path class="st8" d="M47.9,14.3l0.2,0.1L47.9,14.3z"/>
<path class="st5" d="M26.7,14.5l0.2,0.2L26.7,14.5z"/>
<path class="st6" d="M37.7,14.5l-0.2,0.5h0.5L37.7,14.5z"/>
<path class="st7" d="M39.3,14.5l0.2,0.2L39.3,14.5z"/>
<path class="st2" d="M65.1,14.7l0.2,0.2L65.1,14.7z"/>
<path class="st6" d="M32.4,14.9l0.2,0.2L32.4,14.9z"/>
<path class="st7" d="M62.8,14.9v0.2h0.7L62.8,14.9z"/>
<path class="st2" d="M65.5,14.9l0.2,0.2L65.5,14.9z"/>
<path class="st12" d="M62,15.2l0.2,0.1L62,15.2z"/>
<path class="st6" d="M66,15.1l0.2,0.2L66,15.1z"/>
<path class="st2" d="M31.5,15.4l0.2,0.2L31.5,15.4z"/>
<path class="st7" d="M41.3,15.4l0.2,0.2L41.3,15.4z"/>
<path class="st0" d="M26.3,15.6l0.2,0.2L26.3,15.6z"/>
<path class="st12" d="M60.2,15.7l0.2,0.1L60.2,15.7z"/>
<path class="st13" d="M62.6,15.6v0.2h0.7L62.6,15.6z"/>
<path class="st1" d="M49.6,21.3l11.2,2.5l9.4-0.6l4.8,0.4c-1.4-2.5-4.4-4.4-6.6-6.1c-0.9-0.7-1.8-1.7-3-1.9c-3.1-0.5-7.2,1.2-10,2.4
	C53.5,18.8,50.6,19.6,49.6,21.3z"/>
<path class="st0" d="M31.3,15.8l0.2,0.2L31.3,15.8z"/>
<path class="st6" d="M31.8,15.8L32,16L31.8,15.8z"/>
<path class="st7" d="M59.3,15.9l0.2,0.1L59.3,15.9z"/>
<path class="st15" d="M61.8,15.9L62,16L61.8,15.9z"/>
<path class="st0" d="M67.1,15.8l0.2,0.2L67.1,15.8z"/>
<path class="st2" d="M26.1,16.2l0.1,0.2L26.1,16.2z"/>
<path class="st7" d="M34.7,16l0.2,0.2L34.7,16z"/>
<path class="st16" d="M58.6,16.1l0.2,0.1L58.6,16.1z"/>
<path class="st17" d="M60.9,16.1l0.2,0.1L60.9,16.1z"/>
<path class="st2" d="M31.2,16.4l0.1,0.2L31.2,16.4z"/>
<path class="st12" d="M57.9,16.4l0.2,0.1L57.9,16.4z"/>
<path class="st15" d="M60,16.4l0.2,0.1L60,16.4z"/>
<path class="st2" d="M67.8,16.3l0.2,0.2L67.8,16.3z"/>
<path class="st13" d="M66.9,16.5l0.2,0.2L66.9,16.5 M25.9,16.9L26,17L25.9,16.9 M57.8,17l0.2,0.2L57.8,17z"/>
<path class="st2" d="M25.7,17.6l0.1,0.2L25.7,17.6z"/>
<path class="st18" d="M30.4,17.4v0.7l0.5-0.7H30.4z"/>
<path class="st0" d="M69.9,17.6l0.2,0.2L69.9,17.6z"/>
<path class="st13" d="M68.7,17.9l0.2,0.2L68.7,17.9z"/>
<path class="st7" d="M39.5,18.1l0.2,0.2L39.5,18.1z"/>
<path class="st9" d="M96.6,39.3c1.7-0.3,2-2.9,2.4-4.3c0.9-3.7,1.6-10.7-1.5-13.6c-1.2-1.1-3-2.4-4.5-3c-0.5-0.2-1.4-0.5-1.8,0.1
	c-0.7,1.1,1.7,4.7,2.2,5.8C95.3,28.5,97.7,34.6,96.6,39.3z"/>
<path class="st11" d="M25.4,18.5l0.1,0.2L25.4,18.5z"/>
<path class="st0" d="M70.8,18.3l0.2,0.2L70.8,18.3 M93.9,18.3l0.2,0.2L93.9,18.3z"/>
<path class="st13" d="M53.9,18.6l0.2,0.2L53.9,18.6z"/>
<path class="st15" d="M69.7,18.6l0.2,0.2L69.7,18.6z"/>
<path class="st0" d="M94.3,18.6l0.2,0.2L94.3,18.6 M90.4,18.8v1.4h0.2L90.4,18.8z"/>
<path class="st5" d="M94.8,18.8L95,19L94.8,18.8z"/>
<path class="st8" d="M25.7,19.2l0.1,0.2L25.7,19.2z"/>
<path class="st7" d="M36.8,19l0.2,0.2L36.8,19z"/>
<path class="st12" d="M91,19.2l0.1,0.2L91,19.2z"/>
<path class="st11" d="M25.2,19.4l0.1,0.2L25.2,19.4z"/>
<path class="st15" d="M70.6,19.2l0.2,0.2L70.6,19.2z"/>
<path class="st5" d="M71.9,19.2l0.2,0.2L71.9,19.2z"/>
<path class="st2" d="M95.4,19.2l0.2,0.2L95.4,19.2z"/>
<path class="st12" d="M27.7,19.6l0.1,0.2L27.7,19.6z"/>
<path class="st2" d="M72.2,19.5l0.2,0.2L72.2,19.5 M72.4,19.7l0.2,0.2L72.4,19.7z"/>
<path class="st7" d="M35.9,19.9v0.5h0.5L35.9,19.9 M49.8,19.9l0.2,0.2L49.8,19.9z"/>
<path class="st2" d="M24.9,20.2v0.7h0.2L24.9,20.2z"/>
<path class="st7" d="M27.5,20.3l0.1,0.2L27.5,20.3z"/>
<path class="st13" d="M71.9,20.4l0.2,0.2L71.9,20.4z"/>
<path class="st0" d="M90.7,20.4l0.2,0.2L90.7,20.4z"/>
<path class="st13" d="M49.8,20.6l0.2,0.2L49.8,20.6z"/>
<path class="st0" d="M97.5,20.6l0.2,0.2L97.5,20.6z"/>
<path class="st2" d="M90.9,20.8l0.2,0.2L90.9,20.8z"/>
<path class="st5" d="M24.8,21.2l0.1,0.2L24.8,21.2z"/>
<path class="st16" d="M27.3,21.2l0.1,0.2L27.3,21.2z"/>
<path class="st10" d="M47.1,21.1v0.2H48L47.1,21.1z"/>
<path class="st8" d="M25.1,21.3V22h0.2L25.1,21.3z"/>
<path class="st12" d="M44.5,21.3v0.2h1.6L44.5,21.3z"/>
<path class="st15" d="M50.5,21.3v0.2h0.9L50.5,21.3z"/>
<path class="st13" d="M72.9,21.3l0.2,0.2L72.9,21.3z"/>
<path class="st2" d="M91.1,21.3l0.2,0.2L91.1,21.3z"/>
<path class="st5" d="M98.4,21.3l0.2,0.2L98.4,21.3z"/>
<path class="st13" d="M24.7,21.5v0.7h0.2L24.7,21.5z"/>
<path class="st7" d="M42.3,21.5v0.2h0.7L42.3,21.5z"/>
<path class="st11" d="M52.1,21.5v0.2h0.7L52.1,21.5z"/>
<path class="st2" d="M98.6,21.5l0.2,0.2L98.6,21.5z"/>
<path class="st8" d="M40.4,21.8V22h0.7L40.4,21.8z"/>
<path class="st12" d="M45.9,21.8V22h0.9L45.9,21.8z"/>
<path class="st7" d="M46.8,21.8V22h3.4L46.8,21.8z"/>
<path class="st13" d="M53.4,21.8V22h0.7L53.4,21.8z"/>
<path class="st2" d="M91.3,21.8l0.2,0.2L91.3,21.8 M98.9,21.8l0.2,0.2L98.9,21.8z"/>
<path class="st16" d="M27,22.1l0.1,0.2L27,22.1z"/>
<path class="st10" d="M39.1,22v0.2h0.7L39.1,22z"/>
<path class="st7" d="M44.3,22v0.2H45L44.3,22z"/>
<path class="st9" d="M40.7,22.7v0.5c12.1,1.1,19.1,14.8,21.7,25.1c0.9,3.5,1.2,7.1,1.8,10.7c0.3,1.7,0.5,3.4,2.3,3.9
	c1.1-2.3,1.3-4.7,2.2-7.1c0.8-2,2.3-4,2.6-6.2c1.2-10-5-22.5-14.6-26.4C51.3,21.1,46.1,22.4,40.7,22.7z"/>
<path class="st10" d="M51.8,22.1l0.2,0.1L51.8,22.1z"/>
<path class="st16" d="M52.1,22v0.2h0.7L52.1,22z"/>
<path class="st15" d="M54.6,22v0.2h0.7L54.6,22z"/>
<path class="st7" d="M38.3,22.3l0.2,0.1L38.3,22.3z"/>
<path class="st12" d="M42.5,22.2v0.2h0.7L42.5,22.2z"/>
<path class="st7" d="M53.4,22.3l0.2,0.1L53.4,22.3z"/>
<path class="st13" d="M55.7,22.3l0.2,0.1L55.7,22.3 M73.8,22.2l0.2,0.2L73.8,22.2z"/>
<path class="st2" d="M91.6,22.2l0.2,0.2L91.6,22.2z"/>
<path class="st16" d="M37.4,22.5l0.2,0.1L37.4,22.5z"/>
<path class="st7" d="M41.3,22.4v0.2H42L41.3,22.4z"/>
<path class="st12" d="M54.5,22.5l0.2,0.1L54.5,22.5z"/>
<path class="st15" d="M56.6,22.5l0.2,0.1L56.6,22.5z"/>
<path class="st2" d="M75.1,22.4l0.2,0.2L75.1,22.4z"/>
<path class="st6" d="M24.5,22.7v0.7h0.2L24.5,22.7z"/>
<path class="st12" d="M36.5,22.7l0.2,0.1L36.5,22.7z"/>
<path class="st17" d="M57.5,22.7l0.2,0.1L57.5,22.7z"/>
<path class="st0" d="M75.4,22.7l0.2,0.2L75.4,22.7 M91.8,22.7l0.2,0.2L91.8,22.7z"/>
<path class="st10" d="M24.9,22.9V24h0.2L24.9,22.9z"/>
<path class="st7" d="M26.8,23l0.1,0.2L26.8,23 M35.6,23l0.2,0.1L35.6,23z"/>
<path class="st5" d="M75.6,22.9l0.2,0.2L75.6,22.9z"/>
<path class="st12" d="M34.9,23.2l0.2,0.1L34.9,23.2z"/>
<path class="st8" d="M41.1,23.1v0.2h0.7L41.1,23.1z"/>
<path class="st4" d="M69.2,23.1v0.2h1.6L69.2,23.1z"/>
<path class="st15" d="M70.9,23.2l0.2,0.1L70.9,23.2z"/>
<path class="st13" d="M74.7,23.1l0.2,0.2L74.7,23.1z"/>
<path class="st0" d="M92,23.1l0.2,0.2L92,23.1z"/>
<path class="st11" d="M24.5,23.5l0.1,0.2L24.5,23.5z"/>
<path class="st12" d="M34.2,23.4l0.2,0.1L34.2,23.4z"/>
<path class="st19" d="M37.2,23.4v0.2h0.9L37.2,23.4z"/>
<path class="st20" d="M38.2,23.4v0.2h1.6L38.2,23.4z"/>
<path class="st16" d="M42.2,23.4l0.2,0.1L42.2,23.4z"/>
<path class="st4" d="M66.5,23.4v0.2h1.4L66.5,23.4z"/>
<path class="st3" d="M65.1,23.6v0.2h8.2C70.9,22.7,67.7,23.6,65.1,23.6z"/>
<path class="st11" d="M71.9,23.4v0.2h0.7L71.9,23.4z"/>
<path class="st13" d="M99.5,23.4l0.2,0.1L99.5,23.4z"/>
<path class="st5" d="M100.7,23.4l0.2,0.2L100.7,23.4z"/>
<path class="st12" d="M33.5,23.7l0.2,0.1L33.5,23.7z"/>
<path class="st21" d="M36.3,23.7l0.2,0.1L36.3,23.7z"/>
<path class="st22" d="M13.5,52.1c1.2-0.3,2-0.9,3,0.2c-1.8-0.4-2.9,0.1-3,2.1c1.8-0.4,3.4-1.7,4.6,0.5c-1.4-0.8-4.1-1.1-4.2,1.1
	c-0.4,5,3.5,10.7,5.4,15.1c1,2.2,1.3,5,4.1,3.9c-0.7-2.5-4-5.3-3.1-8.2c0.7-2.4,3-1.7,4.3-0.4c2.3,2.2,3.5,5.2,4.1,8.2
	c1.9-0.7,4-2.6,5.9-0.9l-4.6,0.7v0.5l7.1,2.5v0.2c-2.4-0.9-4.9-1.8-7.5-1.8c-3.2,0-6.8-0.4-9.6,1.5c-5.4,3.9-1.8,12.3,2.3,15.7
	c7.3,6.1,18.7,2,23.8-4.7c2-2.6,4-6,4.3-9.4c-1.7,0.2-3.7,0.4-5-0.9l11.2-2.7v0.2c-3.2,0.8-2.3,4.6-1.9,7.1c0.8,5.6,2,11.9-2.9,16.2
	c-4.8,4.2-5.7-2.4-9.8-3.5c-2-0.6-3.4,0.3-5.3,0.7c-3.1,0.7-6.3,1.2-9.4,0.2c-2.9-0.9-5.2-2.5-7.2-4.9c-1-1.2-1.7-3.6-3.3-4.1
	c-0.5,1.3-1.6,2.5-1.8,3.9c-1.1,8.8,9.7,12.1,16.4,13.4c5.8,1.2,11.6,3,17.6,3.4c9.3,0.6,18.7-3,26-8.5c2.6-2,5-4.3,7.1-6.8
	c0.7-0.9,1.9-1.8,2.1-3c0.3-1.9-3.1-5.1-4-6.6c-3.3-5.3-6.8-11.2-8.2-17.3h0.2c1.1,2.7,3.3,5.2,6.4,5.3L77.9,64
	c4.4,4.5,9.3,9.4,16,10.3c1.5-8.8,9.9-15.5,8.9-24.7c-0.3-3-1.5-8.2-4.8-9.1c1.9,5.1,5.6,12.8-0.2,16.9c-1.2-4.7-1.1-9.7-2.7-14.4
	c-0.7-1.9-1.1-4.3-3.4-4.3c0.5,1.8,1.6,3.4,2.1,5.3c1.7,5.6,1.3,12.7-4,16.2c-1.6-5.9,0.3-12.2-1.5-18.3c-0.7-2.3-2.1-5.6-4.7-6.2
	c0.9,3.9,3.4,7.2,3.4,11.4c0,2.7-1.7,5.6-2.4,8.2c-0.5,2.1-1.1,3.5-2.4,5.2c-0.5,0.6-1.1,1.6-1.9,0.8c-1-0.9-1-2.8-1-4
	c-0.1-2.6-0.4-5.4-0.8-8c-1.3-10.1-6.6-24.1-18.7-25.1c0.8,1.3,2.1,2,3.2,3c1.8,1.6,3.3,3.4,4.7,5.5c3,4.5,5.4,10.9,4.2,16.4
	c-0.5,2.3-1.8,4-2.5,6.2c-0.5,1.4-0.4,2.9-1,4.3c-0.6,1.4-1.8,2.5-2.4,3.9c-3.7-2.9-3.5-10.1-4.2-14.4c-0.9-5.9-3.5-11.5-7.1-16.2
	c-2.2-3-4.9-5.5-8.1-7.3c-6.1-3.4-12.5-2-18.3,1.4C19.2,32.5,13.5,41.4,13.5,52.1z"/>
<path class="st19" d="M40.4,23.6v0.2h0.7L40.4,23.6z"/>
<path class="st8" d="M43.3,23.7l0.2,0.1L43.3,23.7z"/>
<path class="st4" d="M63.7,23.6v0.2h1.4L63.7,23.6z"/>
<path class="st12" d="M72.9,23.8V24l0.9-0.2H72.9z"/>
<path class="st13" d="M73.8,23.6v0.2h1.1L73.8,23.6z"/>
<path class="st0" d="M92.3,23.6l0.2,0.2L92.3,23.6z"/>
<path class="st1" d="M99.3,23.6c0.5,3.6,1.2,6.8,0.6,10.5c-0.3,2-1.3,3.8-1.8,5.7l2.1,1.1c1.2-2.3,2.6-4.6,3.8-6.8
	c0.5-0.9,1.4-1.9,1.3-3c-0.1-1.6-2.1-3.6-3.1-4.8C101.4,25.2,100.7,24,99.3,23.6z"/>
<path class="st20" d="M35.6,23.9l0.2,0.1L35.6,23.9z"/>
<path class="st21" d="M42,23.9l0.2,0.1L42,23.9z"/>
<path class="st8" d="M44,23.9l0.2,0.1L44,23.9z"/>
<path class="st4" d="M61,23.8V24h1.4L61,23.8z"/>
<path class="st12" d="M65.1,23.8V24h1.4L65.1,23.8z"/>
<path class="st7" d="M66.5,23.8V24h1.6L66.5,23.8z"/>
<path class="st10" d="M68.1,23.8V24h3.4L68.1,23.8z"/>
<path class="st7" d="M71.5,23.8V24h1.4L71.5,23.8z"/>
<path class="st2" d="M76.3,23.8l0.2,0.2L76.3,23.8z"/>
<path class="st8" d="M98.9,24l0.1,0.2L98.9,24z"/>
<path class="st7" d="M26.6,24.2l0.1,0.2L26.6,24.2z"/>
<path class="st23" d="M42.9,24.1l0.2,0.1L42.9,24.1z"/>
<path class="st8" d="M44.7,24.1l0.2,0.1L44.7,24.1 M63.6,24.1l0.2,0.1L63.6,24.1z"/>
<path class="st9" d="M63.3,24.3l3.9,2.3l4.1,1.7l7.8-0.4C76.5,22.7,68.2,23.4,63.3,24.3z"/>
<path class="st7" d="M74.8,24.1l0.2,0.1L74.8,24.1z"/>
<path class="st5" d="M76.5,24l0.2,0.2L76.5,24 M92.5,24l0.2,0.2L92.5,24z"/>
<path class="st21" d="M60.9,24.3l0.2,0.1L60.9,24.3z"/>
<path class="st5" d="M76.7,24.3l0.2,0.2L76.7,24.3z"/>
<path class="st1" d="M24.2,24.5v0.7h0.2L24.2,24.5z"/>
<path class="st5" d="M77,24.5l0.2,0.2L77,24.5 M92.7,24.5l0.2,0.2L92.7,24.5z"/>
<path class="st2" d="M77.2,24.7l0.2,0.2L77.2,24.7z"/>
<path class="st7" d="M99.1,24.7v0.7h0.2L99.1,24.7z"/>
<path class="st12" d="M24.7,25v3h0.2L24.7,25z"/>
<path class="st10" d="M26.3,25v0.7h0.2L26.3,25z"/>
<path class="st7" d="M76.5,25l0.2,0.2L76.5,25z"/>
<path class="st2" d="M77.4,25l0.2,0.2L77.4,25z"/>
<path class="st0" d="M24.2,25.2v0.7h0.2L24.2,25.2z"/>
<path class="st2" d="M77.6,25.2l0.2,0.2L77.6,25.2z"/>
<path class="st11" d="M99.6,25.3l0.1,0.2L99.6,25.3z"/>
<path class="st2" d="M102.3,25.2l0.2,0.2L102.3,25.2 M77.9,25.4l0.2,0.2L77.9,25.4z"/>
<path class="st0" d="M93.2,25.4l0.2,0.2L93.2,25.4 M102.5,25.4l0.2,0.2L102.5,25.4z"/>
<path class="st7" d="M48,25.6l0.2,0.2L48,25.6z"/>
<path class="st2" d="M78.1,25.6l0.2,0.2L78.1,25.6z"/>
<path class="st5" d="M102.8,25.6l0.2,0.2L102.8,25.6z"/>
<path class="st11" d="M24.2,25.9v0.7h0.2L24.2,25.9z"/>
<path class="st21" d="M47.1,25.9l0.2,0.2L47.1,25.9z"/>
<path class="st2" d="M78.3,25.9l0.2,0.2L78.3,25.9 M93.4,25.9l0.2,0.2L93.4,25.9z"/>
<path class="st13" d="M101.8,25.9l0.2,0.2L101.8,25.9z"/>
<path class="st5" d="M78.6,26.1l0.2,0.2L78.6,26.1z"/>
<path class="st12" d="M99.3,26.1v0.7h0.2L99.3,26.1z"/>
<path class="st15" d="M99.8,26.1v0.7h0.2L99.8,26.1z"/>
<path class="st5" d="M78.8,26.3l0.2,0.2L78.8,26.3z"/>
<path class="st7" d="M49.3,26.5l0.2,0.2L49.3,26.5z"/>
<path class="st21" d="M66,26.5l0.2,0.2L66,26.5z"/>
<path class="st5" d="M79,26.5l0.2,0.2L79,26.5z"/>
<path class="st2" d="M103.4,26.5l0.2,0.2L103.4,26.5z"/>
<path class="st21" d="M28.6,26.8l0.2,0.2L28.6,26.8z"/>
<path class="st5" d="M79.2,26.8l0.2,0.2L79.2,26.8 M103.7,26.8l0.2,0.2L103.7,26.8 M79.5,27l0.2,0.2L79.5,27z"/>
<path class="st2" d="M93.9,27l0.2,0.2L93.9,27z"/>
<path class="st13" d="M102.8,27l0.2,0.2L102.8,27z"/>
<path class="st5" d="M79.7,27.2l0.2,0.2L79.7,27.2z"/>
<path class="st21" d="M27.4,27.5l0.2,0.2L27.4,27.5z"/>
<path class="st2" d="M104.1,27.5l0.2,0.2L104.1,27.5z"/>
<path class="st12" d="M99.6,27.7v3.4h0.2L99.6,27.7z"/>
<path class="st5" d="M104.4,27.7l0.2,0.2L104.4,27.7z"/>
<path class="st1" d="M24,27.9v0.9h0.2L24,27.9z"/>
<path class="st7" d="M25.1,28l0.2,0.1L25.1,28 M77.6,27.9v0.2h0.9L77.6,27.9z"/>
<path class="st13" d="M103.4,27.9l0.2,0.2L103.4,27.9z"/>
<path class="st10" d="M74.7,28.1v0.2h0.9L74.7,28.1z"/>
<path class="st4" d="M100,28.1v4.6h0.2L100,28.1z"/>
<path class="st21" d="M26.1,28.4l0.2,0.2L26.1,28.4 M50.5,28.4l0.2,0.2L50.5,28.4z"/>
<path class="st7" d="M69.8,28.5l0.2,0.1L69.8,28.5z"/>
<path class="st10" d="M71.7,28.4v0.2h1.6L71.7,28.4z"/>
<path class="st1" d="M73.5,28.8c2.3,2.9,6,3.4,9.4,3.4C81.5,28.7,76.9,27.4,73.5,28.8z"/>
<path class="st13" d="M77,28.4v0.2h2.7L77,28.4z"/>
<path class="st0" d="M104.8,28.4l0.2,0.2L104.8,28.4z"/>
<path class="st7" d="M63.7,28.6l0.2,0.2L63.7,28.6z"/>
<path class="st9" d="M69.7,28.6c1.5,2.1,3.3,3.9,4.7,6.2c2.9,4.8,4.4,10.4,5.1,16c0.3,2.7,0.3,5.3,0.6,8c0.1,1.1,0,2.4,1.1,3
	c1.5-2.4,1.9-4.4,2.8-7.1c0.6-1.8,1.7-3.6,2.1-5.5c0.9-4.3-0.7-10.8-3.7-14.1c-1.5-1.6-4.2-2.4-6-3.5C74.3,30.4,71.9,28.9,69.7,28.6
	z"/>
<path class="st15" d="M103.9,28.6l0.2,0.2L103.9,28.6z"/>
<path class="st5" d="M23.5,29.1l0.2,0.2L23.5,29.1z"/>
<path class="st15" d="M73.5,29.1l0.2,0.2L73.5,29.1z"/>
<path class="st6" d="M94.6,29.2l0.1,0.2L94.6,29.2z"/>
<path class="st2" d="M105.3,29.1l0.2,0.2L105.3,29.1z"/>
<path class="st5" d="M23.3,29.3l0.2,0.2L23.3,29.3z"/>
<path class="st6" d="M23.1,29.5l0.2,0.2L23.1,29.5z"/>
<path class="st2" d="M81.8,29.5l0.2,0.2L81.8,29.5z"/>
<path class="st13" d="M104.6,29.5l0.2,0.2L104.6,29.5z"/>
<path class="st2" d="M22.9,29.7l0.2,0.2L22.9,29.7z"/>
<path class="st21" d="M65.5,29.7l0.2,0.2L65.5,29.7z"/>
<path class="st2" d="M82,29.7l0.2,0.2L82,29.7 M105.7,29.7l0.2,0.2L105.7,29.7 M22.6,30l0.2,0.2L22.6,30z"/>
<path class="st13" d="M74.9,30l0.2,0.2L74.9,30z"/>
<path class="st2" d="M82.2,30l0.2,0.2L82.2,30z"/>
<path class="st12" d="M95.5,30.1l0.1,0.2L95.5,30.1z"/>
<path class="st2" d="M22.4,30.2l0.2,0.2L22.4,30.2z"/>
<path class="st6" d="M82.4,30.2l0.2,0.2L82.4,30.2z"/>
<path class="st13" d="M105,30.2l0.2,0.2L105,30.2z"/>
<path class="st5" d="M82.7,30.4l0.2,0.2L82.7,30.4z"/>
<path class="st0" d="M106.2,30.4l0.2,0.2L106.2,30.4z"/>
<path class="st23" d="M71,30.7l0.9,0.9L71,30.7z"/>
<path class="st13" d="M81.8,30.7l0.2,0.2L81.8,30.7z"/>
<path class="st5" d="M82.9,30.7l0.2,0.2L82.9,30.7z"/>
<path class="st21" d="M22.9,30.9l0.2,0.2L22.9,30.9z"/>
<path class="st7" d="M65.5,30.9l0.2,0.2L65.5,30.9z"/>
<path class="st21" d="M66.5,30.9l0.2,0.2L66.5,30.9z"/>
<path class="st5" d="M83.1,30.9l0.2,0.2L83.1,30.9 M106.6,31.1l0.2,0.2L106.6,31.1z"/>
<path class="st3" d="M71.9,31.3l1.6,2.3L71.9,31.3z"/>
<path class="st13" d="M77.4,31.3l0.2,0.2L77.4,31.3z"/>
<path class="st15" d="M82.4,31.3l0.2,0.2L82.4,31.3z"/>
<path class="st5" d="M95.3,31.7l0.1,0.2L95.3,31.7z"/>
<path class="st8" d="M96,31.7l0.1,0.2L96,31.7z"/>
<path class="st2" d="M106.9,31.6l0.2,0.2L106.9,31.6z"/>
<path class="st15" d="M78.6,32l0.2,0.2L78.6,32z"/>
<path class="st11" d="M95.4,32.3v0.7h0.2L95.4,32.3z"/>
<path class="st12" d="M99.3,32.3v0.9h0.2L99.3,32.3z"/>
<path class="st5" d="M107.3,32.3l0.2,0.2L107.3,32.3z"/>
<path class="st7" d="M66.7,32.5l0.2,0.2L66.7,32.5z"/>
<path class="st21" d="M67.6,32.5l0.2,0.2L67.6,32.5z"/>
<path class="st7" d="M81.8,32.5v0.2h1.1L81.8,32.5z"/>
<path class="st9" d="M105.7,32.5c-0.7,2-1.5,4-2.7,5.7c-0.6,0.9-2,1.9-2.1,3c-0.2,1.2,1.2,3,1.6,4.1c0.5,1.3,0.6,3,2.2,3.4
	c1.7-1.4,4.5-1.1,6-3c0.7-1,0.1-2.8-0.2-3.8c-1-3.3-2.5-6.2-4-9.4H105.7 M80.4,32.7c1,1.9,5.2,3.3,7.3,3.7
	C86.3,33.4,83.3,32.7,80.4,32.7z"/>
<path class="st2" d="M107.5,32.7l0.2,0.2L107.5,32.7z"/>
<path class="st6" d="M85.2,32.9l0.2,0.2L85.2,32.9z"/>
<path class="st5" d="M95.4,32.9v0.7h0.2L95.4,32.9z"/>
<path class="st16" d="M96.1,32.9v0.7h0.2L96.1,32.9z"/>
<path class="st21" d="M54.8,33.2l0.2,0.2L54.8,33.2z"/>
<path class="st7" d="M79.2,33.2l0.2,0.2L79.2,33.2z"/>
<path class="st13" d="M104.4,33.2l0.2,0.2L104.4,33.2z"/>
<path class="st2" d="M19.2,33.4l0.2,0.2L19.2,33.4z"/>
<path class="st0" d="M19,33.6l0.2,0.2L19,33.6z"/>
<path class="st3" d="M73.5,33.6c0.7,2.2,2.1,4.2,2.9,6.4c1.5,4,2.2,8.5,2.6,12.8c0.2,2.4-0.3,7.5,1.6,9.1c-1-3.3-0.9-6.7-1.2-10
	c-0.3-3.4-1-6.7-2-10C76.7,39.2,75.6,35.6,73.5,33.6z"/>
<path class="st5" d="M86.1,33.6l0.2,0.2L86.1,33.6z"/>
<path class="st24" d="M99.9,33.8l0.1,0.2L99.9,33.8z"/>
<path class="st5" d="M18.8,33.9l0.2,0.2L18.8,33.9z"/>
<path class="st2" d="M86.3,33.9l0.2,0.2L86.3,33.9z"/>
<path class="st13" d="M95.7,33.9v0.7h0.2L95.7,33.9z"/>
<path class="st12" d="M99.2,34l0.1,0.2L99.2,34z"/>
<path class="st5" d="M108.2,33.9l0.2,0.2L108.2,33.9z"/>
<path class="st8" d="M96.4,34.1v0.7h0.2L96.4,34.1z"/>
<path class="st17" d="M99.9,34.2l0.1,0.2L99.9,34.2z"/>
<path class="st0" d="M108.5,34.3l0.2,0.2L108.5,34.3z"/>
<path class="st5" d="M87.2,34.5l0.2,0.2L87.2,34.5z"/>
<path class="st0" d="M18.1,34.8l0.2,0.2L18.1,34.8z"/>
<path class="st7" d="M68.1,34.8l0.2,0.2L68.1,34.8z"/>
<path class="st2" d="M87.5,34.8l0.2,0.2L87.5,34.8z"/>
<path class="st7" d="M98.9,34.9l0.1,0.2L98.9,34.9z"/>
<path class="st2" d="M108.7,34.8l0.2,0.2L108.7,34.8z"/>
<path class="st7" d="M86.5,35l0.2,0.2L86.5,35z"/>
<path class="st13" d="M99.6,35.1l0.1,0.2L99.6,35.1z"/>
<path class="st0" d="M95.9,35.2v0.7h0.2L95.9,35.2z"/>
<path class="st13" d="M103.2,35.2l0.2,0.2L103.2,35.2z"/>
<path class="st2" d="M108.9,35.2l0.2,0.2L108.9,35.2 M17.6,35.5l0.2,0.2L17.6,35.5z"/>
<path class="st19" d="M83.4,35.5v0.5l0.5-0.5H83.4z"/>
<path class="st6" d="M88.4,35.5l0.2,0.2L88.4,35.5 M17.4,35.7l0.2,0.2L17.4,35.7z"/>
<path class="st7" d="M82.7,35.7l0.2,0.2L82.7,35.7z"/>
<path class="st12" d="M98.7,35.8l0.1,0.2L98.7,35.8z"/>
<path class="st21" d="M84.5,35.9l0.2,0.2L84.5,35.9z"/>
<path class="st6" d="M89.3,36.1l0.2,0.2L89.3,36.1z"/>
<path class="st2" d="M16.9,36.4l0.2,0.2L16.9,36.4z"/>
<path class="st10" d="M96.6,36.4v2.7h0.2L96.6,36.4z"/>
<path class="st21" d="M17.8,36.6l0.2,0.2L17.8,36.6z"/>
<path class="st16" d="M86.7,36.9l0.2,0.1L86.7,36.9z"/>
<path class="st2" d="M90.2,36.8l0.2,0.2L90.2,36.8z"/>
<path class="st11" d="M96.1,36.8v0.7h0.2L96.1,36.8z"/>
<path class="st17" d="M99.2,37l0.1,0.2L99.2,37z"/>
<path class="st13" d="M102.3,36.8l0.2,0.2L102.3,36.8z"/>
<path class="st2" d="M16.5,37l0.2,0.2L16.5,37z"/>
<path class="st7" d="M86.4,37.2l0.1,0.2L86.4,37.2z"/>
<path class="st9" d="M86.5,37c0.6,2.7,2.5,5,3.1,7.8c1,4.7,0.3,9.6,0.3,14.4c2.3-0.4,3.1-4.2,3.5-6.2C94.6,47.7,93.5,37.4,86.5,37z"
	/>
<path class="st2" d="M90.9,37.3l0.2,0.2L90.9,37.3z"/>
<path class="st13" d="M102.1,37.3l0.2,0.2L102.1,37.3z"/>
<path class="st7" d="M103.4,37.3l0.2,0.2L103.4,37.3z"/>
<path class="st5" d="M110.1,37.3l0.2,0.2L110.1,37.3z"/>
<path class="st6" d="M91.3,37.5l0.2,0.2L91.3,37.5z"/>
<path class="st13" d="M98.9,37.5l0.2,0.2L98.9,37.5z"/>
<path class="st5" d="M16,37.7l0.2,0.2L16,37.7 M110.3,37.7l0.2,0.2L110.3,37.7z"/>
<path class="st0" d="M92.3,38v0.2h0.7L92.3,38 M15.8,38.2l0.2,0.2L15.8,38.2z"/>
<path class="st6" d="M93.3,38.3l0.2,0.1L93.3,38.3z"/>
<path class="st2" d="M96,38.3l0.1,0.2L96,38.3z"/>
<path class="st5" d="M110.5,38.2l0.2,0.2L110.5,38.2z"/>
<path class="st23" d="M70.6,38.6l0.1,0.2L70.6,38.6z"/>
<path class="st20" d="M91.6,38.4v0.2h0.9L91.6,38.4z"/>
<path class="st6" d="M94.2,38.5l0.2,0.1L94.2,38.5z"/>
<path class="st0" d="M15.6,38.6l0.2,0.2L15.6,38.6z"/>
<path class="st6" d="M95.1,38.7l0.2,0.1L95.1,38.7z"/>
<path class="st7" d="M102.5,38.6l0.2,0.2L102.5,38.6z"/>
<path class="st21" d="M16.5,38.9l0.2,0.2L16.5,38.9z"/>
<path class="st13" d="M101.2,38.9l0.2,0.2L101.2,38.9z"/>
<path class="st6" d="M110.7,38.9l0.2,0.2L110.7,38.9z"/>
<path class="st0" d="M15.3,39.1l0.2,0.2L15.3,39.1z"/>
<path class="st23" d="M70.9,39.3l0.1,0.2L70.9,39.3z"/>
<path class="st13" d="M98.2,39.1l0.2,0.2L98.2,39.1z"/>
<path class="st12" d="M96.6,39.3v0.2h0.9L96.6,39.3z"/>
<path class="st0" d="M15.1,39.6l0.2,0.2L15.1,39.6z"/>
<path class="st10" d="M93.6,39.6v0.2h1.1L93.6,39.6 M109.7,39.7l0.1,0.2L109.7,39.7z"/>
<path class="st20" d="M76.4,39.9l0.1,0.2L76.4,39.9z"/>
<path class="st9" d="M93.9,39.8c2.3,5.6,2.9,11.2,3.7,17.1c1.8-0.5,2.4-3.2,2.8-4.8C101.4,47.4,99.5,39.8,93.9,39.8z"/>
<path class="st7" d="M95.6,39.9l0.2,0.1L95.6,39.9z"/>
<path class="st5" d="M14.9,40l0.2,0.2L14.9,40z"/>
<path class="st10" d="M96.4,40v0.2H97L96.4,40z"/>
<path class="st8" d="M70.4,40.4l0.1,0.2L70.4,40.4 M85,40.4l0.1,0.2L85,40.4z"/>
<path class="st19" d="M94.1,40.2v0.7h0.2L94.1,40.2z"/>
<path class="st23" d="M98.1,40.3l0.2,0.1L98.1,40.3z"/>
<path class="st10" d="M109.9,40.4l0.1,0.2L109.9,40.4z"/>
<path class="st20" d="M76.6,40.6l0.1,0.2L76.6,40.6z"/>
<path class="st13" d="M100.2,40.5l0.2,0.2L100.2,40.5z"/>
<path class="st21" d="M71.3,40.9l0.1,0.2L71.3,40.9z"/>
<path class="st7" d="M100.7,40.7l0.2,0.2L100.7,40.7z"/>
<path class="st21" d="M34,40.9v0.2h1.8L34,40.9z"/>
<path class="st8" d="M85.3,41.1l0.1,0.2L85.3,41.1z"/>
<path class="st25" d="M94.4,41.1l0.1,0.2L94.4,41.1z"/>
<path class="st10" d="M110.1,41.1l0.1,0.2L110.1,41.1z"/>
<path class="st5" d="M14.4,41.2l0.2,0.2L14.4,41.2z"/>
<path class="st23" d="M33.3,41.2l0.2,0.1L33.3,41.2z"/>
<path class="st3" d="M32.4,41.6v0.2c3.3-0.4,4.8,1.2,7.8,1.8C38.8,41.1,34.9,40.7,32.4,41.6z"/>
<path class="st19" d="M36.5,41.2l0.2,0.1L36.5,41.2z"/>
<path class="st8" d="M70.6,41.3l0.1,0.2L70.6,41.3 M100.5,41.3l0.1,0.2L100.5,41.3z"/>
<path class="st13" d="M111.7,41.5l0.1,0.2L111.7,41.5z"/>
<path class="st19" d="M33.1,41.6v0.2h0.7L33.1,41.6 M35.2,41.6v0.2h0.7L35.2,41.6z"/>
<path class="st21" d="M71.6,41.8l0.1,0.2L71.6,41.8z"/>
<path class="st8" d="M85.5,41.8l0.1,0.2L85.5,41.8z"/>
<path class="st21" d="M85.9,41.8l0.1,0.2L85.9,41.8z"/>
<path class="st20" d="M88.2,41.8l0.1,0.2L88.2,41.8z"/>
<path class="st19" d="M94.6,41.8l0.1,0.2L94.6,41.8z"/>
<path class="st6" d="M14.2,41.8l0.2,0.2L14.2,41.8z"/>
<path class="st19" d="M32.6,41.9l0.2,0.1L32.6,41.9z"/>
<path class="st12" d="M77.5,42l0.1,0.2L77.5,42z"/>
<path class="st7" d="M70.9,42.2l0.1,0.2L70.9,42.2z"/>
<path class="st10" d="M92.6,42.2l0.1,0.2L92.6,42.2z"/>
<path class="st25" d="M94.8,42.1v0.7H95L94.8,42.1z"/>
<path class="st7" d="M100.9,42.1l0.2,0.2L100.9,42.1z"/>
<path class="st6" d="M111.9,42.1l0.2,0.2L111.9,42.1z"/>
<path class="st20" d="M88.4,42.5l0.1,0.2L88.4,42.5z"/>
<path class="st13" d="M14,42.7l0.1,0.2L14,42.7z"/>
<path class="st21" d="M37.9,42.5l0.2,0.2L37.9,42.5z"/>
<path class="st8" d="M85.7,42.7l0.1,0.2L85.7,42.7z"/>
<path class="st23" d="M86.2,42.7l0.1,0.2L86.2,42.7z"/>
<path class="st8" d="M110.6,42.7l0.1,0.2L110.6,42.7z"/>
<path class="st21" d="M39.5,42.8l0.2,0.2L39.5,42.8z"/>
<path class="st19" d="M71.7,42.8v0.7h0.2L71.7,42.8z"/>
<path class="st21" d="M77.2,42.8v0.7h0.2L77.2,42.8z"/>
<path class="st12" d="M89.1,42.9l0.1,0.2L89.1,42.9z"/>
<path class="st10" d="M92.8,42.9l0.1,0.2L92.8,42.9z"/>
<path class="st25" d="M95,42.8v0.7h0.2L95,42.8z"/>
<path class="st13" d="M112.2,42.9l0.1,0.2L112.2,42.9z"/>
<path class="st20" d="M14.7,43.1l0.1,0.2L14.7,43.1z"/>
<path class="st12" d="M60.8,43.1l0.1,0.2L60.8,43.1z"/>
<path class="st21" d="M88.6,43v0.7h0.2L88.6,43z"/>
<path class="st23" d="M93.5,43.1l0.1,0.2L93.5,43.1z"/>
<path class="st2" d="M13.8,43.4l0.1,0.2L13.8,43.4z"/>
<path class="st19" d="M86.4,43.4l0.1,0.2L86.4,43.4z"/>
<path class="st26" d="M33.1,43.4v0.2h2.1L33.1,43.4z"/>
<path class="st19" d="M35.2,43.4v0.2h0.7L35.2,43.4z"/>
<path class="st26" d="M40.2,43.4l-0.5,0.2v0.2L40.2,43.4z"/>
<path class="st7" d="M85.9,43.4v0.7h0.2L85.9,43.4z"/>
<path class="st8" d="M93,43.6l0.1,0.2L93,43.6z"/>
<path class="st25" d="M95.3,43.6l0.1,0.2L95.3,43.6z"/>
<path class="st2" d="M112.4,43.6l0.1,0.2L112.4,43.6z"/>
<path class="st3" d="M29.9,48.9h0.7c0.1-0.7,0.3-1.4,0.7-2.1c2.6-4.7,6.8-0.9,10.1,0.5c-1.3-2.8-6.8-5-9.6-3
	C30.2,45.4,30,47.2,29.9,48.9z"/>
<path class="st10" d="M71,43.7v0.9h0.2L71,43.7z"/>
<path class="st21" d="M77.5,43.8l0.1,0.2L77.5,43.8z"/>
<path class="st12" d="M89.4,43.8l0.1,0.2L89.4,43.8z"/>
<path class="st10" d="M110.8,43.8l0.1,0.2L110.8,43.8z"/>
<path class="st21" d="M88.9,44l0.1,0.2L88.9,44z"/>
<path class="st23" d="M93.7,44l0.1,0.2L93.7,44z"/>
<path class="st21" d="M99.5,44l0.2,0.1L99.5,44z"/>
<path class="st2" d="M13.6,44.3l0.1,0.2L13.6,44.3z"/>
<path class="st7" d="M99.6,44.1v0.7h0.2L99.6,44.1z"/>
<path class="st21" d="M71.9,44.4v1.4h0.2L71.9,44.4z"/>
<path class="st19" d="M86.5,44.4V45h0.2L86.5,44.4z"/>
<path class="st8" d="M93.2,44.4V45h0.2L93.2,44.4z"/>
<path class="st25" d="M95.4,44.4V45h0.2L95.4,44.4z"/>
<path class="st2" d="M112.6,44.5l0.1,0.2L112.6,44.5z"/>
<path class="st20" d="M14.3,44.7l0.1,0.2L14.3,44.7 M33.1,44.6v0.2h2.5L33.1,44.6z"/>
<path class="st23" d="M35.8,44.7l0.2,0.1L35.8,44.7 M77.7,44.7l0.1,0.2L77.7,44.7z"/>
<path class="st7" d="M89.6,44.7l0.1,0.2L89.6,44.7 M111,44.6v0.7h0.2L111,44.6z"/>
<path class="st21" d="M36.7,44.9l0.2,0.1L36.7,44.9z"/>
<path class="st7" d="M78.4,45l0.1,0.2L78.4,45z"/>
<path class="st21" d="M93.9,44.8v0.7h0.2L93.9,44.8z"/>
<path class="st0" d="M13.3,45.2l0.1,0.2L13.3,45.2z"/>
<path class="st21" d="M32.4,45l0.2,0.2L32.4,45z"/>
<path class="st12" d="M61.5,45.2l0.1,0.2L61.5,45.2z"/>
<path class="st23" d="M89.1,45.2l0.1,0.2L89.1,45.2z"/>
<path class="st25" d="M95.8,45.2l0.1,0.2L95.8,45.2z"/>
<path class="st12" d="M102.4,45.2l0.1,0.2L102.4,45.2z"/>
<path class="st6" d="M112.8,45l0.2,0.2L112.8,45z"/>
<path class="st12" d="M71.3,45.3v0.9h0.2L71.3,45.3z"/>
<path class="st7" d="M86.1,45.3v0.9h0.2L86.1,45.3z"/>
<path class="st16" d="M93.4,45.3V46h0.2L93.4,45.3z"/>
<path class="st7" d="M99.8,45.3l0.2,0.2L99.8,45.3z"/>
<path class="st19" d="M14,45.5v0.7h0.2L14,45.5 M61.1,45.6l0.1,0.2L61.1,45.6 M89.1,45.5v0.7h0.2L89.1,45.5z"/>
<path class="st20" d="M95.8,45.6l0.1,0.2L95.8,45.6z"/>
<path class="st12" d="M100,45.5l0.2,0.2L100,45.5z"/>
<path class="st26" d="M71.9,45.7v2.1h0.2L71.9,45.7z"/>
<path class="st23" d="M77.9,45.9L78,46L77.9,45.9z"/>
<path class="st7" d="M89.7,45.7v1.4H90L89.7,45.7z"/>
<path class="st13" d="M113.1,45.9l0.1,0.2L113.1,45.9z"/>
<path class="st21" d="M39.3,46l0.2,0.2L39.3,46z"/>
<path class="st8" d="M78.6,46v0.7h0.2L78.6,46z"/>
<path class="st26" d="M94.1,46v0.9h0.2L94.1,46z"/>
<path class="st17" d="M95.9,46v0.7h0.2L95.9,46z"/>
<path class="st1" d="M111.4,46c-1.7,0.5-3.1,1.9-4.8,2.4c-0.7,0.2-2.1,0-2.6,0.5c-0.5,0.5-0.5,2.1-0.2,2.7c0.3,0.6,1.3,0.6,1.9,0.7
	c1.5,0.2,5.4,0.1,6.4-1.2C112.8,50.1,111.6,47.1,111.4,46z"/>
<path class="st7" d="M71.3,46.2v2.7h0.2L71.3,46.2z"/>
<path class="st10" d="M86.1,46.2V48h0.2L86.1,46.2z"/>
<path class="st20" d="M86.8,46.2V48H87L86.8,46.2z"/>
<path class="st15" d="M111.4,46.2v0.7h0.2L111.4,46.2z"/>
<path class="st2" d="M13,46.4v0.7h0.2L13,46.4z"/>
<path class="st23" d="M13.7,46.4v0.7H14L13.7,46.4z"/>
<path class="st19" d="M61.3,46.6l0.1,0.2L61.3,46.6 M100.2,46.4v0.7h0.2L100.2,46.4z"/>
<path class="st21" d="M41.1,46.6l0.2,0.2L41.1,46.6z"/>
<path class="st12" d="M62,46.8l0.1,0.2L62,46.8z"/>
<path class="st13" d="M109.8,46.6l0.2,0.2L109.8,46.6 M113.3,46.6v0.7h0.2L113.3,46.6z"/>
<path class="st20" d="M41.4,47l0.1,0.2L41.4,47z"/>
<path class="st21" d="M89.3,46.9v1.4h0.2L89.3,46.9 M78.1,47.1V48h0.2L78.1,47.1z"/>
<path class="st17" d="M96.1,47.1v0.7h0.2L96.1,47.1z"/>
<path class="st13" d="M109.1,47.1l0.2,0.2L109.1,47.1z"/>
<path class="st21" d="M61.5,47.5l0.1,0.2L61.5,47.5z"/>
<path class="st10" d="M93.6,47.3v4.3h0.2L93.6,47.3z"/>
<path class="st21" d="M94.3,47.3v1.1h0.2L94.3,47.3z"/>
<path class="st15" d="M111.7,47.3V48h0.2L111.7,47.3z"/>
<path class="st2" d="M12.8,47.5v1.4H13L12.8,47.5z"/>
<path class="st16" d="M78.8,47.5v0.7H79L78.8,47.5 M100.5,47.5v0.9h0.2L100.5,47.5z"/>
<path class="st21" d="M102.6,47.7l0.1,0.2L102.6,47.7z"/>
<path class="st5" d="M113.5,47.5v0.7h0.2L113.5,47.5z"/>
<path class="st23" d="M29.7,47.8v0.9h0.2L29.7,47.8z"/>
<path class="st20" d="M71.9,47.8v0.9h0.2L71.9,47.8z"/>
<path class="st21" d="M13.5,48v1.1h0.2L13.5,48z"/>
<path class="st19" d="M30.6,48v0.7h0.2L30.6,48z"/>
<path class="st7" d="M86.1,48v0.9h0.2L86.1,48z"/>
<path class="st20" d="M89.3,48.2v1.1h0.2L89.3,48.2z"/>
<path class="st25" d="M96.4,48.2v1.6h0.2L96.4,48.2z"/>
<path class="st23" d="M61.7,48.6l0.1,0.2L61.7,48.6z"/>
<path class="st21" d="M78.3,48.5v0.7h0.2L78.3,48.5z"/>
<path class="st7" d="M90,48.5v1.4h0.2L90,48.5z"/>
<path class="st26" d="M94.3,48.5v1.4h0.2L94.3,48.5z"/>
<path class="st25" d="M100.5,48.5v1.1h0.2L100.5,48.5z"/>
<path class="st11" d="M105.5,48.5v0.2h0.7L105.5,48.5z"/>
<path class="st15" d="M111.9,48.5v0.7h0.2L111.9,48.5z"/>
<path class="st7" d="M79.1,48.8l0.1,0.2L79.1,48.8z"/>
<path class="st23" d="M86.5,48.7v0.7h0.2L86.5,48.7z"/>
<path class="st21" d="M102.8,48.7v0.7h0.2L102.8,48.7z"/>
<path class="st13" d="M103.7,48.7l0.2,0.2L103.7,48.7z"/>
<path class="st20" d="M13.5,49.1v0.9h0.2L13.5,49.1z"/>
<path class="st21" d="M71.7,49.1v0.7h0.2L71.7,49.1z"/>
<path class="st12" d="M85.9,49.3l0.1,0.2L85.9,49.3z"/>
<path class="st13" d="M103.4,49.1v2.7h0.2L103.4,49.1z"/>
<path class="st2" d="M113.7,49.1v0.7h0.2L113.7,49.1z"/>
<path class="st7" d="M62.7,49.5l0.1,0.2L62.7,49.5z"/>
<path class="st20" d="M102.8,49.4v0.9h0.2L102.8,49.4z"/>
<path class="st1" d="M12.6,49.6v1.1h0.2L12.6,49.6z"/>
<path class="st17" d="M100.7,49.6l-0.2,1.6h0.2V49.6z"/>
<path class="st15" d="M112.2,49.8l0.1,0.2L112.2,49.8z"/>
<path class="st21" d="M61.9,49.8v0.7h0.2L61.9,49.8z"/>
<path class="st12" d="M90,49.8v3.7h0.2L90,49.8z"/>
<path class="st25" d="M96.6,49.8v1.4h0.2L96.6,49.8z"/>
<path class="st19" d="M78.6,50.1v1.4h0.2L78.6,50.1z"/>
<path class="st8" d="M62.8,50.3V51H63L62.8,50.3z"/>
<path class="st19" d="M71.6,50.4l0.1,0.2L71.6,50.4z"/>
<path class="st12" d="M79.2,50.3v1.1h0.2L79.2,50.3z"/>
<path class="st26" d="M94.3,50.3v1.4h0.2L94.3,50.3z"/>
<path class="st13" d="M112.3,50.5v0.7h0.2L112.3,50.5z"/>
<path class="st2" d="M113.9,50.5v0.7h0.2L113.9,50.5z"/>
<path class="st0" d="M12.6,50.7v2.7h0.2L12.6,50.7z"/>
<path class="st23" d="M62.1,51.2v0.7h0.2L62.1,51.2z"/>
<path class="st3" d="M100.5,51.2l-1.8,5.5C100,55.6,101.2,53,100.5,51.2z"/>
<path class="st23" d="M14.9,51.4v0.2H16L14.9,51.4z"/>
<path class="st10" d="M63.1,51.6l0.1,0.2L63.1,51.6z"/>
<path class="st24" d="M111.1,51.5l0.2,0.1L111.1,51.5z"/>
<path class="st20" d="M94.3,51.7v0.9h0.2L94.3,51.7z"/>
<path class="st25" d="M96.8,51.7v1.8H97L96.8,51.7z"/>
<path class="st7" d="M111.9,51.7v0.2h0.7L111.9,51.7z"/>
<path class="st1" d="M114.2,51.8l0.1,0.2L114.2,51.8z"/>
<path class="st21" d="M14.6,51.9v0.2h0.9L14.6,51.9z"/>
<path class="st12" d="M63,51.9v0.7h0.2L63,51.9z"/>
<path class="st21" d="M78.8,51.9v1.6H79L78.8,51.9 M102.8,51.9v1.6h0.2L102.8,51.9z"/>
<path class="st15" d="M103.8,52L104,52L103.8,52z"/>
<path class="st24" d="M109.5,52l0.2,0.1L109.5,52z"/>
<path class="st10" d="M111.4,52l0.2,0.1L111.4,52z"/>
<path class="st9" d="M101.8,59.2c3.9,0.7,6.1,3.8,10.3,3.4c0.8-3.6,0.7-7.1,0.5-10.7l-5.7,0.9l-3.1,0l-0.5,2L101.8,59.2z"/>
<path class="st10" d="M112.6,51.9V53h0.2L112.6,51.9z"/>
<path class="st21" d="M16.2,52.2l0.2,0.1L16.2,52.2z"/>
<path class="st10" d="M104.6,52.1l-1.1,0.7L104.6,52.1z"/>
<path class="st6" d="M104.8,52.1v0.2h0.9L104.8,52.1z"/>
<path class="st13" d="M108.2,52.2l0.2,0.1L108.2,52.2z"/>
<path class="st8" d="M110.4,52.2l0.2,0.1L110.4,52.2z"/>
<path class="st0" d="M114.2,52.1v0.7h0.2L114.2,52.1z"/>
<path class="st16" d="M109.1,52.3v0.2h0.7L109.1,52.3z"/>
<path class="st7" d="M79.5,52.6v0.9h0.2L79.5,52.6 M100.1,52.7l0.1,0.2L100.1,52.7z"/>
<path class="st12" d="M105.9,52.6v0.2h0.9L105.9,52.6z"/>
<path class="st10" d="M108.2,52.6v0.2h0.7L108.2,52.6z"/>
<path class="st21" d="M62.4,52.8v0.7h0.2L62.4,52.8z"/>
<path class="st16" d="M93.5,53l0.1,0.2L93.5,53z"/>
<path class="st21" d="M100.5,52.8v0.7h0.2L100.5,52.8z"/>
<path class="st11" d="M114.2,53l0.1,0.2L114.2,53z"/>
<path class="st21" d="M94.1,53v0.7h0.2L94.1,53z"/>
<path class="st7" d="M63.3,53.4l0.1,0.2L63.3,53.4z"/>
<path class="st20" d="M89.3,53.3v2.1h0.2L89.3,53.3z"/>
<path class="st1" d="M12.6,53.5v0.9h0.2L12.6,53.5z"/>
<path class="st12" d="M79.5,53.5v0.9h0.2L79.5,53.5z"/>
<path class="st7" d="M90,53.5v1.8h0.2L90,53.5 M93.2,53.9l0.1,0.2L93.2,53.9z"/>
<path class="st19" d="M84.8,54.1l0.1,0.2L84.8,54.1z"/>
<path class="st12" d="M99.6,54.1l0.1,0.2L99.6,54.1z"/>
<path class="st21" d="M102.6,54.1l0.1,0.2L102.6,54.1z"/>
<path class="st10" d="M103.2,53.9v1.4h0.2L103.2,53.9z"/>
<path class="st7" d="M112.8,53.9v1.1h0.2L112.8,53.9z"/>
<path class="st1" d="M114.4,53.9v0.7h0.2L114.4,53.9z"/>
<path class="st23" d="M62.7,54.3l0.1,0.2L62.7,54.3z"/>
<path class="st21" d="M79,54.2V56h0.2L79,54.2z"/>
<path class="st20" d="M93.9,54.3l0.1,0.2L93.9,54.3z"/>
<path class="st25" d="M97,54.2v1.4h0.2L97,54.2z"/>
<path class="st21" d="M14.6,54.4l0.2,0.2L14.6,54.4z"/>
<path class="st19" d="M62.6,54.6v0.7h0.2L62.6,54.6z"/>
<path class="st12" d="M93,54.8l0.1,0.2L93,54.8z"/>
<path class="st0" d="M114.4,54.6v0.9h0.2L114.4,54.6z"/>
<path class="st19" d="M84.6,55l0.1,0.2L84.6,55z"/>
<path class="st12" d="M63.5,55.1v1.1h0.2L63.5,55.1z"/>
<path class="st10" d="M112.8,55.1v3h0.2L112.8,55.1z"/>
<path class="st11" d="M12.9,55.5l0.1,0.2L12.9,55.5z"/>
<path class="st20" d="M69.3,55.5l0.1,0.2L69.3,55.5z"/>
<path class="st10" d="M79.7,55.3v0.9h0.2L79.7,55.3z"/>
<path class="st21" d="M89.3,55.3v2.1h0.2L89.3,55.3z"/>
<path class="st10" d="M90,55.3v1.4h0.2L90,55.3z"/>
<path class="st19" d="M97.1,55.7l0.1,0.2L97.1,55.7z"/>
<path class="st11" d="M114.4,55.5v3.2h0.2L114.4,55.5z"/>
<path class="st0" d="M12.9,55.9l0.1,0.2L12.9,55.9z"/>
<path class="st21" d="M62.8,55.8v0.7H63L62.8,55.8z"/>
<path class="st19" d="M84.3,55.9l0.1,0.2L84.3,55.9z"/>
<path class="st23" d="M69,56v0.7h0.2L69,56z"/>
<path class="st4" d="M97.3,56l0.2,0.2L97.3,56z"/>
<path class="st1" d="M12.9,56.4l0.1,0.2L12.9,56.4z"/>
<path class="st12" d="M68.4,56.4l0.1,0.2L68.4,56.4z"/>
<path class="st7" d="M79.7,56.2v0.9h0.2L79.7,56.2z"/>
<path class="st23" d="M13.7,56.5v0.7H14L13.7,56.5z"/>
<path class="st8" d="M63.7,56.5v0.7h0.2L63.7,56.5z"/>
<path class="st23" d="M98.4,56.5l-0.2,0.7L98.4,56.5z"/>
<path class="st21" d="M79.2,56.7V59h0.2L79.2,56.7z"/>
<path class="st19" d="M84.1,56.8l0.1,0.2L84.1,56.8z"/>
<path class="st23" d="M63.1,57.1l0.1,0.2L63.1,57.1z"/>
<path class="st7" d="M83.1,56.9v1.4h0.2L83.1,56.9z"/>
<path class="st21" d="M92.7,56.9l0.2,0.2L92.7,56.9z"/>
<path class="st18" d="M97.9,57l0.2,0.1L97.9,57z"/>
<path class="st13" d="M13,57.1v0.7h0.2L13,57.1z"/>
<path class="st26" d="M36.1,57.1v0.2H37L36.1,57.1z"/>
<path class="st3" d="M34,59.9c1.3-0.3,2.6-1.5,3.9-1.5c3.1-0.2,5.9,4.1,6.2,6.8c1.4-3.4-2.8-7.1-5.7-7.8
	C36.4,56.8,34.3,57.7,34,59.9z"/>
<path class="st20" d="M38.1,57.2l0.2,0.1L38.1,57.2z"/>
<path class="st16" d="M68.1,57.1v0.7h0.2L68.1,57.1z"/>
<path class="st12" d="M79.7,57.1V58h0.2L79.7,57.1z"/>
<path class="st20" d="M97.9,57.2l0.2,0.1L97.9,57.2z"/>
<path class="st26" d="M89.3,57.4v1.8h0.2L89.3,57.4z"/>
<path class="st21" d="M14,57.7l0.1,0.2L14,57.7 M83.8,57.6v0.7H84L83.8,57.6z"/>
<path class="st19" d="M68.7,57.8v0.7H69L68.7,57.8z"/>
<path class="st12" d="M89.7,57.8V59H90L89.7,57.8z"/>
<path class="st8" d="M102.1,58l0.1,0.2L102.1,58z"/>
<path class="st7" d="M112.8,58V59h0.2L112.8,58z"/>
<path class="st2" d="M37,58.3l0.2,0.2L37,58.3z"/>
<path class="st27" d="M35.6,60.1c4.2,1.4,6.2,7,1.4,9.1c1.2,4.4,5.8,1.3,7-1.4c1.2-2.6-1.1-6.8-3.1-8.3C39,58.1,36.8,57.8,35.6,60.1
	z"/>
<path class="st2" d="M38.5,58.4l0.2,0.1L38.5,58.4z"/>
<path class="st19" d="M63.3,58.4l0.1,0.2L63.3,58.4z"/>
<path class="st7" d="M63.9,58.3V59h0.2L63.9,58.3z"/>
<path class="st10" d="M67.8,58.3v1.1h0.2L67.8,58.3z"/>
<path class="st2" d="M13.3,58.7l0.1,0.2L13.3,58.7 M39.3,58.5l0.2,0.2L39.3,58.5z"/>
<path class="st23" d="M14.3,58.9l0.1,0.2L14.3,58.9z"/>
<path class="st2" d="M36.3,58.7l0.2,0.2L36.3,58.7z"/>
<path class="st0" d="M39.8,58.7L40,59L39.8,58.7z"/>
<path class="st23" d="M68.5,58.7v0.7h0.2L68.5,58.7z"/>
<path class="st5" d="M114.5,58.9l0.1,0.2L114.5,58.9 M40.4,59.2l0.2,0.2L40.4,59.2z"/>
<path class="st19" d="M63.6,59.3l0.1,0.2L63.6,59.3z"/>
<path class="st7" d="M79.9,59.2v0.7h0.2L79.9,59.2 M90.2,59.2v0.2h0.7L90.2,59.2 M101.8,59.2v0.2h0.9L101.8,59.2z"/>
<path class="st19" d="M33.8,59.4l0.5,0.7L33.8,59.4z"/>
<path class="st5" d="M114.2,59.4l0.2,0.2L114.2,59.4z"/>
<path class="st6" d="M13.6,59.8l0.1,0.2L13.6,59.8z"/>
<path class="st23" d="M14.5,59.8l0.1,0.2L14.5,59.8z"/>
<path class="st28" d="M35.4,59.6v0.5l0.5-0.5H35.4z"/>
<path class="st8" d="M64.2,59.6v0.7h0.2L64.2,59.6z"/>
<path class="st26" d="M79.5,59.6v0.9h0.2L79.5,59.6z"/>
<path class="st2" d="M41.3,59.9l0.2,0.2L41.3,59.9z"/>
<path class="st19" d="M89.9,60L90,60L89.9,60z"/>
<path class="st8" d="M112.6,59.9v0.7h0.2L112.6,59.9z"/>
<path class="st3" d="M35.4,60.1c0.7,1.1,2.2,1.4,2.9,2.5c1.7,2.5,0.8,6.6-2.7,5.5c0.5-0.9,1.5-1.1,1.9-2.1c0.6-1.4-0.5-5.2-2.7-4.1
	c-1,0.5-0.7,2.5-0.6,3.4c0.4,3.3,1.8,5.1,4.7,6.8l-1.1,0.2v0.2c3.4,0,6.5-2.4,8-5.5h-1.4c-1.2,3.6-5.5,6.2-7.5,1.8
	c3.7-0.4,3.6-5.2,1.6-7.5C37.7,60.6,36.5,60.4,35.4,60.1z"/>
<path class="st2" d="M35.9,60.1l0.2,0.2L35.9,60.1 M41.6,60.1l0.2,0.2L41.6,60.1z"/>
<path class="st20" d="M63.8,60.3l0.1,0.2L63.8,60.3z"/>
<path class="st21" d="M99.8,60.1l0.2,0.2L99.8,60.1z"/>
<path class="st12" d="M35.2,60.3l0.7,0.5v-0.2L35.2,60.3z"/>
<path class="st2" d="M36.6,60.3l0.2,0.2L36.6,60.3 M41.8,60.3l0.2,0.2L41.8,60.3z"/>
<path class="st21" d="M68.1,60.3l0.2,0.2L68.1,60.3z"/>
<path class="st1" d="M101.2,60.3v0.2h0.7L101.2,60.3 M102.4,60.4l0.2,0.1L102.4,60.4z"/>
<path class="st2" d="M102.9,60.4l0.2,0.1L102.9,60.4z"/>
<path class="st7" d="M105.3,60.3l0.2,0.2L105.3,60.3z"/>
<path class="st0" d="M13.7,60.6l0.2,0.2L13.7,60.6z"/>
<path class="st2" d="M37.2,60.6l0.2,0.2L37.2,60.6z"/>
<path class="st6" d="M103.7,60.6l0.2,0.2L103.7,60.6z"/>
<path class="st17" d="M35,60.8l-0.2,0.9c2.7,0.5,4.6,4.5,1.1,5.5c0.2,1.2,1.9,1.7,2.7,0.6C40.6,64.8,38.1,60.9,35,60.8z"/>
<path class="st4" d="M36.3,60.9l0.2,0.1L36.3,60.9z"/>
<path class="st0" d="M37.7,60.8l0.2,0.2L37.7,60.8z"/>
<path class="st21" d="M99.3,60.8l0.2,0.2L99.3,60.8z"/>
<path class="st0" d="M14,61v0.7h0.2L14,61z"/>
<path class="st2" d="M104.8,61l0.2,0.2L104.8,61 M113.3,61l0.2,0.2L113.3,61z"/>
<path class="st0" d="M42.5,61.2l0.2,0.2L42.5,61.2z"/>
<path class="st2" d="M38.4,61.5l0.2,0.2L38.4,61.5z"/>
<path class="st12" d="M80.6,62.2l0.9-0.7L80.6,62.2z"/>
<path class="st2" d="M100.5,61.5l0.2,0.2L100.5,61.5 M113,61.5l0.2,0.2L113,61.5z"/>
<path class="st13" d="M35.3,61.8l0.2,0.1L35.3,61.8z"/>
<path class="st2" d="M105.9,61.7l0.2,0.2L105.9,61.7z"/>
<path class="st0" d="M42.9,61.9l0.2,0.2L42.9,61.9 M100.2,61.9l0.2,0.2L100.2,61.9 M112.8,61.9l0.2,0.2L112.8,61.9z"/>
<path class="st5" d="M14.2,62.2l0.2,0.2L14.2,62.2z"/>
<path class="st2" d="M38.8,62.2l0.2,0.2L38.8,62.2z"/>
<path class="st5" d="M106.6,62.2l0.2,0.2L106.6,62.2z"/>
<path class="st23" d="M15.4,62.5l0.1,0.2L15.4,62.5z"/>
<path class="st5" d="M43.2,62.4l0.2,0.2L43.2,62.4z"/>
<path class="st0" d="M100,62.4l0.2,0.2L100,62.4z"/>
<path class="st2" d="M107.1,62.4l0.2,0.2L107.1,62.4z"/>
<path class="st5" d="M112.6,62.4l0.2,0.2L112.6,62.4z"/>
<path class="st0" d="M14.4,62.6l0.2,0.2L14.4,62.6z"/>
<path class="st11" d="M35.6,62.7l0.2,0.1L35.6,62.7z"/>
<path class="st2" d="M39.1,62.6l0.2,0.2L39.1,62.6z"/>
<path class="st8" d="M109.5,62.7l0.2,0.1L109.5,62.7z"/>
<path class="st10" d="M111,62.6v0.2h0.7L111,62.6z"/>
<path class="st23" d="M34,62.8v0.7h0.2L34,62.8z"/>
<path class="st5" d="M35.2,62.8l0.2,0.2L35.2,62.8z"/>
<path class="st27" d="M35.4,63.8l0.7-0.9L35.4,63.8z"/>
<path class="st2" d="M43.4,62.8l0.2,0.2L43.4,62.8z"/>
<path class="st5" d="M99.8,62.8l0.2,0.2L99.8,62.8z"/>
<path class="st2" d="M14.6,63.1l0.2,0.2L14.6,63.1 M112.1,63.1l0.2,0.2L112.1,63.1z"/>
<path class="st6" d="M35.9,63.3l0.2,0.2L35.9,63.3z"/>
<path class="st21" d="M44.2,63.5l0.1,0.2L44.2,63.5z"/>
<path class="st2" d="M108.9,63.3v0.2h0.7L108.9,63.3z"/>
<path class="st0" d="M111.6,63.4l0.2,0.1L111.6,63.4 M35.2,63.5l0.2,0.2L35.2,63.5z"/>
<path class="st5" d="M35.6,63.5l0.2,0.2L35.6,63.5z"/>
<path class="st13" d="M39.6,63.7l0.1,0.2L39.6,63.7z"/>
<path class="st1" d="M110.1,63.5v0.2h0.9L110.1,63.5z"/>
<path class="st5" d="M14.9,63.8l0.2,0.2L14.9,63.8z"/>
<path class="st11" d="M43.9,64v0.9h0.2L43.9,64z"/>
<path class="st5" d="M15.1,64.2l0.2,0.2L15.1,64.2z"/>
<path class="st15" d="M37.7,64.2v0.9h0.2L37.7,64.2z"/>
<path class="st16" d="M39.1,64.2v0.9h0.2L39.1,64.2z"/>
<path class="st6" d="M39.8,64.2v0.7H40L39.8,64.2z"/>
<path class="st21" d="M77.6,64.2v0.7h0.2L77.6,64.2z"/>
<path class="st2" d="M98.9,64.4l0.2,0.2L98.9,64.4z"/>
<path class="st0" d="M15.3,64.7l0.2,0.2L15.3,64.7z"/>
<path class="st20" d="M21.9,64.9v0.2h1.1L21.9,64.9z"/>
<path class="st11" d="M39.8,64.9v0.9H40L39.8,64.9z"/>
<path class="st0" d="M98.6,64.9l0.2,0.2L98.6,64.9 M15.6,65.1l0.2,0.2L15.6,65.1z"/>
<path class="st26" d="M34,65.1v1.6h0.2L34,65.1z"/>
<path class="st0" d="M44.1,65.1l0.2,0.2L44.1,65.1z"/>
<path class="st21" d="M23.5,65.4l0.2,0.2L23.5,65.4z"/>
<path class="st3" d="M44.1,65.4l0.2,1.1h0.2L44.1,65.4z"/>
<path class="st0" d="M98.4,65.4l0.2,0.2L98.4,65.4 M15.8,65.6l0.2,0.2L15.8,65.6z"/>
<path class="st6" d="M39.8,66l0.1,0.2L39.8,66z"/>
<path class="st11" d="M44.2,66l0.1,0.2L44.2,66z"/>
<path class="st5" d="M98.2,65.8l0.2,0.2L98.2,65.8z"/>
<path class="st0" d="M16,66l0.2,0.2L16,66z"/>
<path class="st27" d="M21.9,66.3v0.5c2.8,0.7,4.5,5.3,1.6,6.8c0.6,1.8,3.1,1,4.6,0.9C27.6,71,26.1,66.4,21.9,66.3z"/>
<path class="st6" d="M23.2,66.3l0.2,0.1L23.2,66.3z"/>
<path class="st16" d="M38.8,66.3v0.9h0.2L38.8,66.3z"/>
<path class="st5" d="M98,66.3l0.2,0.2L98,66.3z"/>
<path class="st0" d="M16.2,66.5l0.2,0.2L16.2,66.5z"/>
<path class="st9" d="M78.8,66.5c1.2,7.7,11.3,11.2,17.6,13.9c2.1,0.9,4.5,2.3,6.8,2.5c-0.1-5.1-3.6-5.9-7.8-7.2
	c-3.3-1.1-6.7-2.2-9.8-3.9C83.1,70.4,81.3,67.7,78.8,66.5z"/>
<path class="st5" d="M22.6,66.8l0.2,0.1L22.6,66.8z"/>
<path class="st6" d="M24.2,66.7l0.2,0.2L24.2,66.7z"/>
<path class="st2" d="M39.5,66.7l0.2,0.2L39.5,66.7z"/>
<path class="st0" d="M16.5,67l0.2,0.2L16.5,67z"/>
<path class="st19" d="M19.9,67v0.7h0.2L19.9,67z"/>
<path class="st16" d="M21.3,67.6h0.2l0.7-0.5C21.6,66.9,21.4,67,21.3,67.6z"/>
<path class="st19" d="M45.5,67l0.5,0.5V67H45.5z"/>
<path class="st17" d="M21.5,67.2c0.7,1.9,3.8,3.3,1.1,5.3v0.5c2.1,1.1,2.6-1,2.2-2.7C24.5,68.7,22.9,67.4,21.5,67.2z"/>
<path class="st5" d="M23.3,67.2l0.2,0.2L23.3,67.2z"/>
<path class="st2" d="M39.3,67.2l0.2,0.2L39.3,67.2z"/>
<path class="st5" d="M16.7,67.4l0.2,0.2L16.7,67.4 M23.5,67.4l0.2,0.2L23.5,67.4z"/>
<path class="st16" d="M35.6,67.4v0.7h0.2L35.6,67.4z"/>
<path class="st2" d="M44.2,67.6l0.1,0.2L44.2,67.6z"/>
<path class="st21" d="M73.3,67.4l0.2,0.2L73.3,67.4z"/>
<path class="st20" d="M20.1,67.6l0.2,1.1h0.2L20.1,67.6z"/>
<path class="st5" d="M16.9,67.9l0.2,0.2L16.9,67.9z"/>
<path class="st6" d="M38.8,67.9l0.2,0.2L38.8,67.9z"/>
<path class="st21" d="M78.6,68l0.1,0.2L78.6,68z"/>
<path class="st2" d="M97,67.9l0.2,0.2L97,67.9z"/>
<path class="st0" d="M24,68.1l0.2,0.2L24,68.1z"/>
<path class="st6" d="M25.6,68.1l0.2,0.2L25.6,68.1z"/>
<path class="st2" d="M38.6,68.1l0.2,0.2L38.6,68.1 M43.9,68.1l0.2,0.2L43.9,68.1z"/>
<path class="st5" d="M17.2,68.3l0.2,0.2L17.2,68.3z"/>
<path class="st15" d="M36.3,68.3v0.2h1.6L36.3,68.3z"/>
<path class="st2" d="M38.4,68.3l0.2,0.2L38.4,68.3 M43.6,68.3l0.2,0.2L43.6,68.3 M96.8,68.3l0.2,0.2L96.8,68.3z"/>
<path class="st24" d="M21.9,69.2h0.2l0.7-0.5L21.9,69.2z"/>
<path class="st2" d="M24.2,68.5l0.2,0.2L24.2,68.5z"/>
<path class="st6" d="M38.2,68.5l0.2,0.2L38.2,68.5z"/>
<path class="st5" d="M43.4,68.5l0.2,0.2L43.4,68.5z"/>
<path class="st27" d="M22.2,68.8l0.7,0.7L22.2,68.8z"/>
<path class="st2" d="M37.7,68.8l0.2,0.2L37.7,68.8z"/>
<path class="st5" d="M43.2,68.8l0.2,0.2L43.2,68.8z"/>
<path class="st12" d="M79.5,68.9l0.1,0.2L79.5,68.9z"/>
<path class="st2" d="M96.6,68.8l0.2,0.2L96.6,68.8 M24.5,69.2l0.1,0.2L24.5,69.2z"/>
<path class="st21" d="M35.2,69l0.2,0.2L35.2,69z"/>
<path class="st0" d="M36.8,69.5l0.7-0.2L36.8,69.5z"/>
<path class="st21" d="M20.6,69.2v0.7h0.2L20.6,69.2z"/>
<path class="st0" d="M22.2,69.2l0.2,0.2L22.2,69.2z"/>
<path class="st21" d="M43.9,69.2l0.2,0.2L43.9,69.2z"/>
<path class="st2" d="M96.4,69.2l0.2,0.2L96.4,69.2 M26.5,69.5l0.2,0.2L26.5,69.5 M42.5,69.7l0.2,0.2L42.5,69.7z"/>
<path class="st7" d="M82.4,69.7l0.2,0.2L82.4,69.7z"/>
<path class="st2" d="M96.1,69.7l0.2,0.2L96.1,69.7 M26.7,69.9l0.2,0.2L26.7,69.9z"/>
<path class="st0" d="M42.3,69.9l0.2,0.2L42.3,69.9z"/>
<path class="st7" d="M74.1,70l0.2,0.1L74.1,70z"/>
<path class="st19" d="M78.6,70.1l0.1,0.2L78.6,70.1z"/>
<path class="st5" d="M42,70.1l0.2,0.2L42,70.1z"/>
<path class="st9" d="M74,70.1c0.4,2.5,2.2,4.9,3.5,7.1c3,5.1,5.7,10.7,10.7,14.2c2.2,1.5,8.8,4.7,10,0.4
	c-5.6-3.1-10.4-6.7-14.5-11.6C80.6,76.6,78.8,71.5,74,70.1z"/>
<path class="st2" d="M95.9,70.1l0.2,0.2L95.9,70.1 M18.3,70.4l0.2,0.2L18.3,70.4z"/>
<path class="st4" d="M27,70.4l0.5,1.4h0.2L27,70.4z"/>
<path class="st2" d="M37.5,70.4l0.2,0.2L37.5,70.4z"/>
<path class="st5" d="M41.8,70.4l0.2,0.2L41.8,70.4z"/>
<path class="st7" d="M83.4,70.4l0.2,0.2L83.4,70.4z"/>
<path class="st13" d="M23.8,70.6v0.9H24L23.8,70.6z"/>
<path class="st1" d="M24.9,70.6v1.8h0.2L24.9,70.6z"/>
<path class="st5" d="M41.6,70.6l0.2,0.2L41.6,70.6z"/>
<path class="st2" d="M95.7,70.6l0.2,0.2L95.7,70.6 M18.5,70.8l0.2,0.2L18.5,70.8z"/>
<path class="st0" d="M41.3,70.8l0.2,0.2L41.3,70.8z"/>
<path class="st20" d="M77.2,70.8v0.2h1.4L77.2,70.8z"/>
<path class="st1" d="M79.5,71.1c-0.9,0.4-0.6,1.4-0.3,2c0.9,1.8,2.1,3.4,3.3,5c3.3,4.4,7.6,8.4,12.2,11.4c2,1.2,3.8,2.8,6.2,1.7
	c2.2-1,5-5.1,2.4-7.2c-1.7-1.4-4.7-2-6.8-2.8c-3.4-1.4-6.9-3.1-10-5.1c-1.8-1.2-3.5-2.4-5-3.9C81,71.7,80.3,70.8,79.5,71.1z"/>
<path class="st7" d="M84,70.8l0.2,0.2L84,70.8z"/>
<path class="st21" d="M42,71.1l0.2,0.2L42,71.1z"/>
<path class="st2" d="M95.4,71.1l0.2,0.2L95.4,71.1 M18.8,71.3l0.2,0.2L18.8,71.3 M38.8,71.3l0.2,0.2L38.8,71.3 M40.7,71.3l0.2,0.2
	L40.7,71.3z"/>
<path class="st0" d="M39.3,71.5v0.2h0.9L39.3,71.5z"/>
<path class="st2" d="M95.2,71.5l0.2,0.2L95.2,71.5 M19,71.7l0.2,0.2L19,71.7z"/>
<path class="st3" d="M27.7,71.7v0.7h0.2L27.7,71.7z"/>
<path class="st11" d="M78.6,71.9l0.1,0.2L78.6,71.9z"/>
<path class="st13" d="M22.4,72.7l0.7-0.2L22.4,72.7z"/>
<path class="st21" d="M37.9,72.2v0.2h0.7L37.9,72.2z"/>
<path class="st0" d="M27.7,72.4v0.7h0.2L27.7,72.4z"/>
<path class="st26" d="M37.7,72.7v0.2h1.4L37.7,72.7z"/>
<path class="st20" d="M39.2,72.7l0.2,0.1L39.2,72.7z"/>
<path class="st5" d="M19.4,72.9l0.2,0.2L19.4,72.9z"/>
<path class="st21" d="M31.8,72.9v0.2h2.1L31.8,72.9z"/>
<path class="st5" d="M94.5,73.1l0.2,0.2L94.5,73.1z"/>
<path class="st1" d="M28,73.5l0.1,0.2L28,73.5z"/>
<path class="st21" d="M32,73.3v0.2h0.7L32,73.3z"/>
<path class="st20" d="M32.7,73.3v0.2h1.8L32.7,73.3z"/>
<path class="st23" d="M93.9,73.5l0.1,0.2L93.9,73.5z"/>
<path class="st5" d="M23.4,73.7l0.1,0.2L23.4,73.7z"/>
<path class="st21" d="M29.9,73.6l0.2,0.2L29.9,73.6z"/>
<path class="st13" d="M79.5,73.6l0.2,0.2L79.5,73.6z"/>
<path class="st0" d="M19.9,73.8l0.2,0.2L19.9,73.8z"/>
<path class="st19" d="M28.3,73.8v0.7h0.2L28.3,73.8z"/>
<path class="st15" d="M83.6,74l0.2,0.2L83.6,74z"/>
<path class="st20" d="M92.9,74.1l0.2,0.1L92.9,74.1z"/>
<path class="st5" d="M94.2,74.2l0.1,0.2L94.2,74.2z"/>
<path class="st2" d="M20.1,74.3l0.2,0.2L20.1,74.3z"/>
<path class="st19" d="M23.4,74.6l0.1,0.2L23.4,74.6z"/>
<path class="st5" d="M26.7,74.5v0.2h0.7L26.7,74.5z"/>
<path class="st11" d="M24.9,74.7v0.2h1.6L24.9,74.7z"/>
<path class="st13" d="M80.2,74.7l0.2,0.2L80.2,74.7z"/>
<path class="st15" d="M84.5,74.7l0.2,0.2L84.5,74.7z"/>
<path class="st5" d="M94.9,74.8l0.2,0.1L94.9,74.8z"/>
<path class="st6" d="M20.3,74.9l0.2,0.2L20.3,74.9z"/>
<path class="st23" d="M23,75l0.2,0.1L23,75z"/>
<path class="st5" d="M95.8,75l0.2,0.1L95.8,75z"/>
<path class="st20" d="M31.7,75.2l0.2,0.1L31.7,75.2z"/>
<path class="st13" d="M85.2,75.2l0.2,0.2L85.2,75.2z"/>
<path class="st0" d="M96.4,75.2v0.2H97L96.4,75.2z"/>
<path class="st5" d="M20.7,75.5l0.1,0.2L20.7,75.5z"/>
<path class="st21" d="M24.5,75.4v0.2h0.9L24.5,75.4z"/>
<path class="st20" d="M25.4,75.4v0.2h1.1L25.4,75.4 M27.4,75.4v0.2h1.8L27.4,75.4z"/>
<path class="st21" d="M32.2,75.4v0.2h0.7L32.2,75.4 M54.7,75.5l0.2,0.1L54.7,75.5z"/>
<path class="st15" d="M80.6,75.4l0.2,0.2L80.6,75.4z"/>
<path class="st6" d="M97.4,75.5l0.2,0.1L97.4,75.5z"/>
<path class="st23" d="M23.2,75.7l0.2,0.1L23.2,75.7z"/>
<path class="st21" d="M30.8,75.6v0.2h0.7L30.8,75.6 M33.3,75.7l0.2,0.1L33.3,75.7z"/>
<path class="st7" d="M80.2,75.6l0.2,0.2L80.2,75.6z"/>
<path class="st13" d="M85.9,75.6l0.2,0.2L85.9,75.6z"/>
<path class="st12" d="M95.6,75.7l0.2,0.1L95.6,75.7z"/>
<path class="st1" d="M98.3,75.7l0.2,0.1L98.3,75.7z"/>
<path class="st19" d="M22.6,75.9l0.2,0.1L22.6,75.9 M32.1,75.9l0.2,0.1L32.1,75.9z"/>
<path class="st20" d="M34.2,75.9l0.2,0.1L34.2,75.9z"/>
<path class="st16" d="M96.3,75.9l0.2,0.1L96.3,75.9z"/>
<path class="st5" d="M99,75.9l0.2,0.1L99,75.9z"/>
<path class="st20" d="M21.9,76.2l0.2,0.1L21.9,76.2 M34.9,76.2l0.2,0.1L34.9,76.2z"/>
<path class="st13" d="M81.1,76.1l0.2,0.2L81.1,76.1 M86.5,76.1l0.2,0.2L86.5,76.1z"/>
<path class="st2" d="M99.6,76.1l0.2,0.2L99.6,76.1 M20.1,76.3l0.2,0.2L20.1,76.3z"/>
<path class="st20" d="M54.1,76.3v1.1h0.2L54.1,76.3z"/>
<path class="st7" d="M80.6,76.3l0.2,0.2L80.6,76.3z"/>
<path class="st15" d="M87.2,76.5l0.2,0.2L87.2,76.5z"/>
<path class="st5" d="M100.7,76.5l0.2,0.2L100.7,76.5z"/>
<path class="st6" d="M19.4,76.8l0.2,0.2L19.4,76.8z"/>
<path class="st13" d="M81.5,76.8l0.2,0.2L81.5,76.8z"/>
<path class="st2" d="M19.2,77l0.2,0.2L19.2,77z"/>
<path class="st19" d="M36.6,77v0.5H37L36.6,77z"/>
<path class="st29" d="M53.9,86.1l-0.5-8.9c-2.8,0.7-3.2,4.7-4.1,7.1c-0.4,1-1.1,2.4,0.1,3.2C50.8,88.3,52.6,86.4,53.9,86.1z"/>
<path class="st21" d="M49.5,77.5l0.2,0.1L49.5,77.5z"/>
<path class="st13" d="M88.8,77.5l0.2,0.2L88.8,77.5z"/>
<path class="st0" d="M102.1,77.5l0.2,0.2L102.1,77.5z"/>
<path class="st19" d="M48.4,77.7v0.2h0.7L48.4,77.7z"/>
<path class="st13" d="M82.2,77.7l0.2,0.2L82.2,77.7z"/>
<path class="st2" d="M102.3,77.7l0.2,0.2L102.3,77.7z"/>
<path class="st20" d="M45.3,78.1l0.1,0.2L45.3,78.1 M45.7,77.9v0.2h2.1L45.7,77.9z"/>
<path class="st2" d="M102.5,77.9l0.2,0.2L102.5,77.9 M18.1,78.1l0.2,0.2L18.1,78.1 M102.8,78.1l0.2,0.2L102.8,78.1z"/>
<path class="st5" d="M17.8,78.4l0.2,0.2L17.8,78.4 M103,78.4l0.2,0.2L103,78.4z"/>
<path class="st23" d="M46.4,78.6v0.2h0.7L46.4,78.6z"/>
<path class="st19" d="M49.8,78.6v0.2l0.5,0.5h0.2L49.8,78.6z"/>
<path class="st13" d="M82.9,78.6l0.2,0.2L82.9,78.6z"/>
<path class="st21" d="M47.3,78.8V79h2.3L47.3,78.8z"/>
<path class="st20" d="M54.1,79.7v1.4h0.2L54.1,79.7z"/>
<path class="st13" d="M84,80l0.2,0.2L84,80z"/>
<path class="st15" d="M94.3,80.2l0.2,0.2L94.3,80.2z"/>
<path class="st5" d="M105.9,82.2l0.1,0.2L105.9,82.2z"/>
<path class="st21" d="M19.4,82.5l0.1,0.2L19.4,82.5z"/>
<path class="st11" d="M19,82.7l0.1,0.2L19,82.7z"/>
<path class="st7" d="M81.9,82.5l0.2,0.2L81.9,82.5 M105.3,82.7l0.1,0.2L105.3,82.7z"/>
<path class="st13" d="M105.9,82.7l0.1,0.2L105.9,82.7z"/>
<path class="st1" d="M18.8,83.6l0.1,0.2L18.8,83.6z"/>
<path class="st15" d="M100.9,83.5l0.2,0.2L100.9,83.5z"/>
<path class="st19" d="M56.6,83.7v0.7h0.2L56.6,83.7z"/>
<path class="st10" d="M103.3,83.8l0.2,0.1L103.3,83.8z"/>
<path class="st0" d="M18.7,83.9v1.6h0.2L18.7,83.9z"/>
<path class="st15" d="M102,83.9l0.2,0.2L102,83.9z"/>
<path class="st13" d="M88.8,84.1l0.2,0.2L88.8,84.1z"/>
<path class="st15" d="M103.1,84.4l0.2,0.2L103.1,84.4z"/>
<path class="st21" d="M82.4,84.6l0.2,0.2L82.4,84.6z"/>
<path class="st13" d="M89.2,84.6l0.2,0.2L89.2,84.6z"/>
<path class="st7" d="M83.3,84.8l0.2,0.2L83.3,84.8z"/>
<path class="st15" d="M104.3,84.8l0.2,0.2L104.3,84.8z"/>
<path class="st19" d="M56.8,85.3V86H57L56.8,85.3z"/>
<path class="st21" d="M82.8,85.3l0.2,0.2L82.8,85.3z"/>
<path class="st15" d="M105.4,85.3l0.2,0.2L105.4,85.3z"/>
<path class="st0" d="M106.8,85.3l0.2,0.2L106.8,85.3z"/>
<path class="st1" d="M18.7,85.5v0.7h0.2L18.7,85.5z"/>
<path class="st23" d="M19.4,85.5v0.7h0.2L19.4,85.5z"/>
<path class="st21" d="M19.7,86.6l0.1,0.2L19.7,86.6z"/>
<path class="st2" d="M107.3,86.6l0.1,0.2L107.3,86.6z"/>
<path class="st11" d="M18.9,86.7v0.7h0.2L18.9,86.7z"/>
<path class="st21" d="M57,86.7v0.9h0.2L57,86.7z"/>
<path class="st13" d="M91.9,87.1l0.2,0.2L91.9,87.1z"/>
<path class="st5" d="M18.7,87.3l0.2,0.2L18.7,87.3z"/>
<path class="st23" d="M19.9,87.5l0.1,0.2L19.9,87.5z"/>
<path class="st13" d="M106.3,87.3v1.6h0.2L106.3,87.3z"/>
<path class="st0" d="M107.5,87.3v1.6h0.2L107.5,87.3z"/>
<path class="st6" d="M18.4,87.6l0.2,0.2L18.4,87.6z"/>
<path class="st21" d="M84.4,87.6l0.2,0.2L84.4,87.6z"/>
<path class="st2" d="M18.2,87.8l0.2,0.2L18.2,87.8 M18,88l0.2,0.2L18,88z"/>
<path class="st30" d="M52.7,94.2h-0.2l-0.2-1.6c-2.1,1.1-4.4,7-0.7,7.7c1.5,0.3,2.7-1.3,3.3-2.4c1.7-3.1,1.2-6.5,1.2-9.8
	C53.5,88.4,52.7,91.9,52.7,94.2z"/>
<path class="st2" d="M17.8,88.3l0.2,0.2L17.8,88.3z"/>
<path class="st21" d="M19.3,88.3l0.2,0.1L19.3,88.3z"/>
<path class="st31" d="M56.1,88.3v2.1h0.2L56.1,88.3z"/>
<path class="st13" d="M93.3,88.3l0.2,0.2L93.3,88.3z"/>
<path class="st5" d="M17.5,88.5l0.2,0.2L17.5,88.5z"/>
<path class="st21" d="M57.3,88.5v1.6h0.2L57.3,88.5z"/>
<path class="st30" d="M43.8,95.8c1.1,0.6,2.3,1.1,3.2,2.1c1.2,1.2,1.6,2.8,3.4,3c-0.6-1.2-1.6-2.7-1.5-4.1c0.2-2.9,3.6-4,4.1-6.6
	l-2.7-0.8L48.5,91L43.8,95.8z"/>
<path class="st15" d="M94.2,88.9l0.2,0.2L94.2,88.9z"/>
<path class="st2" d="M17.1,89.2l0.2,0.2L17.1,89.2z"/>
<path class="st24" d="M106.2,89.5l0.1,0.2L106.2,89.5z"/>
<path class="st13" d="M95.1,89.6l0.2,0.2L95.1,89.6z"/>
<path class="st2" d="M107.2,89.6l0.2,0.2L107.2,89.6z"/>
<path class="st13" d="M105.9,90.1l0.2,0.2L105.9,90.1z"/>
<path class="st19" d="M86.5,90.5l0.1,0.2L86.5,90.5z"/>
<path class="st21" d="M20.7,90.8L21,91L20.7,90.8z"/>
<path class="st2" d="M106.6,91l0.2,0.2L106.6,91 M16.2,91.2v0.7h0.2L16.2,91.2z"/>
<path class="st6" d="M87.1,91.5l0.2,0.1L87.1,91.5z"/>
<path class="st15" d="M97.9,91.5l0.2,0.2L97.9,91.5z"/>
<path class="st31" d="M56.1,91.7v1.8h0.2L56.1,91.7z"/>
<path class="st0" d="M86.7,91.7l0.2,0.2L86.7,91.7z"/>
<path class="st5" d="M87.4,91.7l0.2,0.2L87.4,91.7z"/>
<path class="st13" d="M104.5,91.7l0.2,0.2L104.5,91.7z"/>
<path class="st5" d="M106.1,91.7l0.2,0.2L106.1,91.7z"/>
<path class="st16" d="M98.6,91.9l0.7,0.5v-0.2L98.6,91.9z"/>
<path class="st5" d="M105.9,91.9l0.2,0.2L105.9,91.9 M86.5,92.1l0.2,0.2L86.5,92.1z"/>
<path class="st15" d="M103.8,92.1l0.2,0.2L103.8,92.1z"/>
<path class="st5" d="M105.6,92.1l0.2,0.2L105.6,92.1z"/>
<path class="st21" d="M16.8,92.4v2.3h0.2L16.8,92.4z"/>
<path class="st12" d="M99,92.4v0.2l1.4,0.5L99,92.4z"/>
<path class="st5" d="M105.4,92.4l0.2,0.2L105.4,92.4z"/>
<path class="st2" d="M88.5,92.6l0.2,0.2L88.5,92.6z"/>
<path class="st0" d="M86,92.8l0.2,0.2L86,92.8z"/>
<path class="st6" d="M88.8,92.8L89,93L88.8,92.8z"/>
<path class="st2" d="M104.7,92.8L105,93L104.7,92.8z"/>
<path class="st21" d="M44.7,93l0.2,0.2L44.7,93z"/>
<path class="st13" d="M101.7,93.1l0.2,0.1L101.7,93.1z"/>
<path class="st0" d="M16.2,93.5v0.9h0.2L16.2,93.5z"/>
<path class="st19" d="M57.3,93.5v0.7h0.2L57.3,93.5z"/>
<path class="st2" d="M85.6,93.5l0.2,0.2L85.6,93.5 M89.7,93.5l0.2,0.2L89.7,93.5 M103.4,93.5l0.2,0.2L103.4,93.5z"/>
<path class="st5" d="M102.8,93.8l0.2,0.1L102.8,93.8z"/>
<path class="st21" d="M84,94l0.2,0.2L84,94z"/>
<path class="st5" d="M102.1,94l0.2,0.1L102.1,94z"/>
<path class="st2" d="M85.1,94.2l0.2,0.2L85.1,94.2z"/>
<path class="st6" d="M90.6,94.2l0.2,0.2L90.6,94.2z"/>
<path class="st1" d="M101.2,94.3l0.2,0.1L101.2,94.3z"/>
<path class="st7" d="M99.5,94.4l0.2,0.2L99.5,94.4z"/>
<path class="st0" d="M100.9,94.4l0.2,0.2L100.9,94.4z"/>
<path class="st19" d="M57.1,94.8l0.1,0.2L57.1,94.8z"/>
<path class="st2" d="M100.6,94.6l0.2,0.2L100.6,94.6z"/>
<path class="st19" d="M17.2,95l0.1,0.2L17.2,95z"/>
<path class="st6" d="M84.6,94.9l0.2,0.2L84.6,94.9z"/>
<path class="st0" d="M91.7,94.9l0.2,0.2L91.7,94.9z"/>
<path class="st2" d="M100.4,94.9l0.2,0.2L100.4,94.9 M92.2,95.1l0.2,0.2L92.2,95.1z"/>
<path class="st8" d="M94.9,95.1v0.2h0.7L94.9,95.1z"/>
<path class="st2" d="M100.2,95.1l0.2,0.2L100.2,95.1z"/>
<path class="st31" d="M55.7,95.5l0.1,0.2L55.7,95.5z"/>
<path class="st7" d="M96.5,95.3v0.2h1.1L96.5,95.3z"/>
<path class="st2" d="M99.9,95.3l0.2,0.2L99.9,95.3z"/>
<path class="st5" d="M84,95.8l0.2,0.2L84,95.8z"/>
<path class="st2" d="M93.5,95.8l0.2,0.2L93.5,95.8 M99.3,95.8l0.2,0.2L99.3,95.8z"/>
<path class="st1" d="M16.7,96.2l0.1,0.2L16.7,96.2z"/>
<path class="st2" d="M83.7,96l0.2,0.2L83.7,96z"/>
<path class="st19" d="M43.1,96.2v0.2h0.7L43.1,96.2z"/>
<path class="st2" d="M98.3,96.2l0.2,0.2L98.3,96.2z"/>
<path class="st20" d="M29.1,96.5l0.2,0.1L29.1,96.5z"/>
<path class="st23" d="M38.2,96.5l0.2,0.1L38.2,96.5z"/>
<path class="st1" d="M95.4,96.5v0.2h0.9L95.4,96.5z"/>
<path class="st0" d="M96.3,96.5v0.2h1.1L96.3,96.5z"/>
<path class="st1" d="M97.6,96.5l0.2,0.1L97.6,96.5z"/>
<path class="st2" d="M16.8,96.7l0.2,0.2L16.8,96.7z"/>
<path class="st21" d="M30,96.8l0.2,0.1L30,96.8z"/>
<path class="st20" d="M36.7,96.7v0.2h0.7L36.7,96.7z"/>
<path class="st21" d="M31,96.9v0.2h0.9L31,96.9z"/>
<path class="st20" d="M31.9,96.9v0.2h0.9L31.9,96.9 M34.7,96.9v0.2H36L34.7,96.9 M39.6,97l0.2,0.1L39.6,97z"/>
<path class="st21" d="M45.2,96.9l0.2,0.2L45.2,96.9z"/>
<path class="st19" d="M38.7,97.2l0.2,0.1L38.7,97.2z"/>
<path class="st23" d="M37.3,97.5l0.2,0.1L37.3,97.5z"/>
<path class="st21" d="M45.8,97.4l0.2,0.2L45.8,97.4z"/>
<path class="st5" d="M82.6,97.4l0.2,0.2L82.6,97.4z"/>
<path class="st19" d="M30.1,97.6v0.2h0.7L30.1,97.6 M36.2,97.7l0.2,0.1L36.2,97.7z"/>
<path class="st5" d="M82.4,97.6l0.2,0.2L82.4,97.6z"/>
<path class="st21" d="M31.7,97.8v0.2H34L31.7,97.8z"/>
<path class="st20" d="M34,97.8v0.2h0.9L34,97.8z"/>
<path class="st6" d="M82.1,97.8l0.2,0.2L82.1,97.8z"/>
<path class="st2" d="M81.9,98.1l0.2,0.2L81.9,98.1 M81.7,98.3l0.2,0.2L81.7,98.3 M17.8,98.5l0.2,0.2L17.8,98.5 M81.4,98.5l0.2,0.2
	L81.4,98.5 M81.2,98.8l0.2,0.2L81.2,98.8z"/>
<path class="st5" d="M18,99l0.2,0.2L18,99z"/>
<path class="st21" d="M18.9,99l0.2,0.2L18.9,99z"/>
<path class="st0" d="M81,99l0.2,0.2L81,99z"/>
<path class="st5" d="M80.8,99.2l0.2,0.2L80.8,99.2 M80.5,99.4l0.2,0.2L80.5,99.4 M80.3,99.7l0.2,0.2L80.3,99.7z"/>
<path class="st2" d="M18.7,99.9l0.2,0.2L18.7,99.9z"/>
<path class="st31" d="M51.3,100.4v0.2h0.9L51.3,100.4z"/>
<path class="st21" d="M20.7,100.6l0.2,0.2L20.7,100.6z"/>
<path class="st20" d="M42.6,101l0.7-0.2L42.6,101z"/>
<path class="st2" d="M79.2,100.6l0.2,0.2L79.2,100.6z"/>
<path class="st3" d="M42.9,100.8v0.2l1.6,0.5L42.9,100.8z"/>
<path class="st21" d="M76.7,100.8l0.2,0.2L76.7,100.8z"/>
<path class="st0" d="M78.9,100.8l0.2,0.2L78.9,100.8z"/>
<path class="st5" d="M19.6,101l0.2,0.2L19.6,101z"/>
<path class="st21" d="M48.8,101l0.2,0.2L48.8,101z"/>
<path class="st5" d="M19.8,101.3l0.2,0.2L19.8,101.3z"/>
<path class="st19" d="M51.5,101.3l0.2,0.1L51.5,101.3z"/>
<path class="st5" d="M20,101.5l0.2,0.2L20,101.5z"/>
<path class="st26" d="M44.2,101.5l0.9,0.5L44.2,101.5z"/>
<path class="st21" d="M49.7,101.5v0.2h0.9L49.7,101.5z"/>
<path class="st5" d="M20.3,101.7l0.2,0.2L20.3,101.7z"/>
<path class="st0" d="M77.8,101.7L78,102L77.8,101.7z"/>
<path class="st5" d="M20.5,102l0.2,0.2L20.5,102z"/>
<path class="st3" d="M44.9,102c2,6.1,14.7,7.1,16.9,0.7c-3.6,1.3-8,4.8-12.1,3.1C47.8,104.9,46.8,102.7,44.9,102z"/>
<path class="st21" d="M45.4,102l0.2,0.2L45.4,102 M75.1,102l0.2,0.2L75.1,102 M44.9,102.4l0.2,0.2L44.9,102.4 M74.4,102.4l0.2,0.2
	L74.4,102.4z"/>
<path class="st0" d="M76.9,102.4l0.2,0.2L76.9,102.4 M21.6,102.9l0.2,0.2L21.6,102.9 M22.3,103.3l0.2,0.2L22.3,103.3z"/>
<path class="st6" d="M75.3,103.5l0.2,0.2L75.3,103.5z"/>
<path class="st5" d="M74.6,104l0.2,0.2L74.6,104z"/>
<path class="st2" d="M24.2,104.2l0.2,0.2L24.2,104.2z"/>
<path class="st0" d="M24.6,104.5l0.2,0.2L24.6,104.5z"/>
<path class="st5" d="M25.1,104.7l0.2,0.2L25.1,104.7z"/>
<path class="st0" d="M73.5,104.7l0.2,0.2L73.5,104.7z"/>
<path class="st23" d="M56.7,105l0.2,0.1L56.7,105z"/>
<path class="st13" d="M26.4,105.2l0.2,0.1L26.4,105.2z"/>
<path class="st23" d="M56,105.2l0.2,0.1L56,105.2z"/>
<path class="st5" d="M72.8,105.1l0.2,0.2L72.8,105.1z"/>
<path class="st6" d="M26.9,105.4l0.2,0.2L26.9,105.4z"/>
<path class="st19" d="M31.5,105.4v0.2h0.7L31.5,105.4z"/>
<path class="st21" d="M55.1,105.5l0.2,0.1L55.1,105.5z"/>
<path class="st0" d="M72.3,105.4l0.2,0.2L72.3,105.4z"/>
<path class="st11" d="M27.7,105.7l0.2,0.1L27.7,105.7z"/>
<path class="st23" d="M32.6,105.6v0.2h0.7L32.6,105.6z"/>
<path class="st20" d="M49.6,105.7l0.2,0.1L49.6,105.7 M53.6,105.6v0.2h0.7L53.6,105.6z"/>
<path class="st13" d="M28.4,105.9l0.2,0.1L28.4,105.9z"/>
<path class="st21" d="M34.1,105.9l0.2,0.1L34.1,105.9 M50.2,105.8v0.2h1.6L50.2,105.8z"/>
<path class="st26" d="M51.8,105.8v0.2h1.4L51.8,105.8z"/>
<path class="st21" d="M35.1,106.1v0.2h0.7L35.1,106.1z"/>
<path class="st5" d="M71.2,106.1l0.2,0.2L71.2,106.1z"/>
<path class="st2" d="M30,106.4l0.2,0.1L30,106.4z"/>
<path class="st21" d="M36.4,106.4l0.2,0.1L36.4,106.4z"/>
<path class="st0" d="M70.7,106.3l0.2,0.2L70.7,106.3z"/>
<path class="st11" d="M31.2,106.6l0.2,0.1L31.2,106.6z"/>
<path class="st19" d="M37.5,106.6l0.2,0.1L37.5,106.6z"/>
<path class="st21" d="M55.7,106.5v0.2h0.7L55.7,106.5z"/>
<path class="st2" d="M70.3,106.5l0.2,0.2L70.3,106.5 M31.9,106.7v0.2h0.7L31.9,106.7z"/>
<path class="st19" d="M38.5,106.8l0.2,0.1L38.5,106.8z"/>
<path class="st21" d="M50.4,106.7v0.2h0.9L50.4,106.7z"/>
<path class="st26" d="M51.3,106.7v0.2h1.1L51.3,106.7 M53.1,106.7v0.2H55L53.1,106.7z"/>
<path class="st2" d="M69.8,106.7L70,107L69.8,106.7z"/>
<path class="st5" d="M32.8,107v0.2h0.7L32.8,107z"/>
<path class="st19" d="M39.2,107v0.2h0.7L39.2,107z"/>
<path class="st5" d="M34.3,107.3l0.2,0.1L34.3,107.3z"/>
<path class="st13" d="M34.7,107.2v0.2h0.7L34.7,107.2z"/>
<path class="st21" d="M40.1,107.2v0.2h0.7L40.1,107.2z"/>
<path class="st5" d="M35.8,107.4v0.2h0.7L35.8,107.4z"/>
<path class="st21" d="M41,107.4v0.2h0.7L41,107.4z"/>
<path class="st0" d="M36.9,107.7v0.2h0.9L36.9,107.7z"/>
<path class="st11" d="M37.8,107.7v0.2h0.7L37.8,107.7z"/>
<path class="st20" d="M42.3,107.7l0.2,0.1L42.3,107.7z"/>
<path class="st23" d="M63.1,107.7l0.2,0.1L63.1,107.7z"/>
<path class="st2" d="M38.5,107.9v0.2h0.9L38.5,107.9z"/>
<path class="st19" d="M43.3,108l0.2,0.1L43.3,108z"/>
<path class="st8" d="M67,108l0.2,0.1L67,108z"/>
<path class="st9" d="M62.7,109.5c0.2,0.7,0.6,1.1,1.1,1.7c0.6,0.5,1.7,1.7,2.6,1.4c1.1-0.4,2.3-3.7,0.9-4.3c-0.7-0.3-2,0.3-2.7,0.5
	C64.1,108.9,63.4,109.2,62.7,109.5z"/>
<path class="st0" d="M39.8,108.2l0.2,0.1L39.8,108.2z"/>
<path class="st11" d="M40.3,108.2l0.2,0.1L40.3,108.2z"/>
<path class="st21" d="M44,108.1v0.2h0.7L44,108.1z"/>
<path class="st23" d="M61.5,108.2l0.2,0.1L61.5,108.2z"/>
<path class="st8" d="M66.3,108.2l0.2,0.1L66.3,108.2z"/>
<path class="st5" d="M41.2,108.4l0.2,0.1L41.2,108.4z"/>
<path class="st2" d="M41.5,108.3v0.2h0.7L41.5,108.3z"/>
<path class="st21" d="M45.3,108.4l0.2,0.1L45.3,108.4 M60.6,108.4l0.2,0.1L60.6,108.4z"/>
<path class="st10" d="M65.6,108.4l0.2,0.1L65.6,108.4z"/>
<path class="st13" d="M68.7,108.5l0.1,0.2L68.7,108.5z"/>
<path class="st0" d="M42.6,108.6v0.2h0.7L42.6,108.6z"/>
<path class="st21" d="M46.4,108.6l0.2,0.1L46.4,108.6z"/>
<path class="st23" d="M59.5,108.6v0.2h0.7L59.5,108.6z"/>
<path class="st13" d="M44.2,108.9l0.2,0.1L44.2,108.9z"/>
<path class="st23" d="M47.6,108.9l0.2,0.1L47.6,108.9z"/>
<path class="st20" d="M47.9,108.8v0.2h0.7L47.9,108.8z"/>
<path class="st19" d="M58.2,108.8v0.2h0.7L58.2,108.8z"/>
<path class="st2" d="M45.1,109.1l0.2,0.1L45.1,109.1z"/>
<path class="st21" d="M49,109v0.2h1.4L49,109 M56.6,109v0.2h0.9L56.6,109z"/>
<path class="st7" d="M68,109v1.1h0.2L68,109z"/>
<path class="st2" d="M45.6,109.3l0.2,0.2L45.6,109.3z"/>
<path class="st26" d="M51.3,109.3v0.2h0.9L51.3,109.3z"/>
<path class="st21" d="M52.2,109.3v0.2H55L52.2,109.3z"/>
<path class="st26" d="M55,109.3v0.2h0.9L55,109.3z"/>
<path class="st10" d="M62.9,109.3l0.2,0.1L62.9,109.3z"/>
<path class="st11" d="M69,109.4l0.1,0.2L69,109.4z"/>
<path class="st9" d="M46.3,109.5c0.7,3.2,4.2,6.7,7.3,7.6c1.4,0.4,3.2,0.8,4.1-0.5l-5.1-5.9L46.3,109.5z"/>
<path class="st8" d="M47,109.5v0.2h0.7L47,109.5z"/>
<path class="st7" d="M62.6,109.6l0.1,0.2L62.6,109.6z"/>
<path class="st8" d="M48.4,109.7v0.2H49L48.4,109.7z"/>
<path class="st13" d="M59.1,109.7v0.2h1.4L59.1,109.7z"/>
<path class="st6" d="M60.4,109.7v0.2h1.1L60.4,109.7z"/>
<path class="st1" d="M52.9,110.9c2,3.5,4.6,7,8.9,7.1c1.2,0,2.8,0.3,3.6-0.9c1.8-2.8-0.7-5.9-3.4-7
	C59.8,109.1,55.2,110.3,52.9,110.9z"/>
<path class="st7" d="M50.3,110l0.2,0.1L50.3,110z"/>
<path class="st15" d="M57.3,109.9v0.2h0.9L57.3,109.9z"/>
<path class="st12" d="M62.3,109.9l1.8,1.8l0.2-0.2L62.3,109.9z"/>
<path class="st7" d="M51.8,110.2v0.2h0.7L51.8,110.2z"/>
<path class="st11" d="M55.7,110.2v0.2h0.7L55.7,110.2z"/>
<path class="st24" d="M54.2,110.5l0.2,0.1L54.2,110.5z"/>
<path class="st15" d="M54.5,110.4v0.2h0.7L54.5,110.4z"/>
<path class="st5" d="M46.4,110.8l0.1,0.2L46.4,110.8z"/>
<path class="st15" d="M53.1,110.7l0.2,0.1L53.1,110.7z"/>
<path class="st7" d="M67.5,111.1l0.2,0.2L67.5,111.1z"/>
<path class="st0" d="M46.5,111.3l0.2,0.2L46.5,111.3z"/>
<path class="st6" d="M68.7,111.5l0.2,0.2L68.7,111.5 M46.8,111.8L47,112L46.8,111.8z"/>
<path class="st7" d="M67.1,111.8l0.2,0.2L67.1,111.8z"/>
<path class="st15" d="M64.3,112l0.2,0.2L64.3,112z"/>
<path class="st6" d="M68.2,112.2l0.2,0.2L68.2,112.2z"/>
<path class="st5" d="M68,112.7l0.2,0.2L68,112.7z"/>
<path class="st0" d="M47.4,112.9l0.2,0.2L47.4,112.9 M67.8,113.1l0.2,0.2L67.8,113.1 M47.7,113.4l0.2,0.2L47.7,113.4z"/>
<path class="st5" d="M67.6,113.7l0.1,0.2L67.6,113.7z"/>
<path class="st6" d="M48.1,114l0.2,0.2L48.1,114z"/>
<path class="st15" d="M65.9,114.7v0.7h0.2L65.9,114.7z"/>
<path class="st5" d="M48.8,115l0.2,0.2L48.8,115z"/>
<path class="st6" d="M49,115.2l0.2,0.2L49,115.2z"/>
<path class="st5" d="M67.1,115.3l0.1,0.2L67.1,115.3z"/>
<path class="st2" d="M49.3,115.4l0.2,0.2L49.3,115.4 M49.5,115.6l0.2,0.2L49.5,115.6 M49.7,115.9l0.2,0.2L49.7,115.9 M49.9,116.1
	l0.2,0.2L49.9,116.1z"/>
<path class="st1" d="M66.9,116.3l0.1,0.2L66.9,116.3z"/>
<path class="st6" d="M50.2,116.3l0.2,0.2L50.2,116.3z"/>
<path class="st5" d="M50.4,116.6l0.2,0.2L50.4,116.6 M66.7,116.9l0.1,0.2L66.7,116.9z"/>
<path class="st2" d="M51.1,117l0.2,0.2L51.1,117z"/>
<path class="st10" d="M53.5,117.1l0.2,0.1L53.5,117.1z"/>
<path class="st13" d="M58.2,117l0.2,0.2L58.2,117 M65.2,117l0.2,0.2L65.2,117z"/>
<path class="st8" d="M54.1,117.2v0.2h0.7L54.1,117.2z"/>
<path class="st13" d="M58.6,117.2l0.2,0.2L58.6,117.2z"/>
<path class="st0" d="M51.8,117.5l0.2,0.2L51.8,117.5z"/>
<path class="st2" d="M52.2,117.7l0.2,0.2L52.2,117.7z"/>
<path class="st15" d="M60.1,117.8l0.2,0.1L60.1,117.8 M64.6,117.7l0.2,0.2L64.6,117.7z"/>
<path class="st0" d="M66.2,117.7l0.2,0.2L66.2,117.7z"/>
<path class="st2" d="M52.7,117.9l0.2,0.2L52.7,117.9z"/>
<path class="st13" d="M60.9,117.9v0.2h1.4L60.9,117.9z"/>
<path class="st6" d="M62.3,117.9v0.2h2.3L62.3,117.9z"/>
<path class="st2" d="M65.9,117.9l0.2,0.2L65.9,117.9z"/>
<path class="st13" d="M53.3,118.2l0.2,0.1L53.3,118.2z"/>
<path class="st0" d="M65.7,118.2l0.2,0.2L65.7,118.2z"/>
<path class="st2" d="M54,118.5l0.2,0.1L54,118.5z"/>
<path class="st6" d="M54.7,118.6v0.2h0.7L54.7,118.6z"/>
<path class="st11" d="M55.4,118.6v0.2h2.1L55.4,118.6z"/>
<path class="st0" d="M57.6,118.7l0.2,0.1L57.6,118.7z"/>
<path class="st1" d="M57.9,118.6v0.2h1.4L57.9,118.6z"/>
<path class="st0" d="M59.3,118.6v0.2H60L59.3,118.6z"/>
<path class="st11" d="M60.1,118.7l0.2,0.1L60.1,118.7z"/>
<path class="st2" d="M64.8,118.6l0.2,0.2L64.8,118.6z"/>
<path class="st1" d="M60.9,118.8v0.2h0.7L60.9,118.8z"/>
<path class="st0" d="M61.6,118.8v0.2h0.7L61.6,118.8z"/>
<path class="st11" d="M62.3,118.8v0.2h1.6L62.3,118.8z"/>
<path class="st6" d="M63.9,118.8v0.2h0.7L63.9,118.8z"/>
</svg>
