<?xml version="1.0" encoding="utf-8"?>
<!-- Generator: Adobe Illustrator 22.1.0, SVG Export Plug-In . SVG Version: 6.00 Build 0)  -->
<svg version="1.1"
	 id="svg2" inkscape:version="0.91 r13725" sodipodi:docname="fish-cartoon.svg" xmlns:cc="http://creativecommons.org/ns#" xmlns:dc="http://purl.org/dc/elements/1.1/" xmlns:inkscape="http://www.inkscape.org/namespaces/inkscape" xmlns:rdf="http://www.w3.org/1999/02/22-rdf-syntax-ns#" xmlns:sodipodi="http://sodipodi.sourceforge.net/DTD/sodipodi-0.dtd" xmlns:svg="http://www.w3.org/2000/svg"
	 xmlns="http://www.w3.org/2000/svg" xmlns:xlink="http://www.w3.org/1999/xlink" x="0px" y="0px" viewBox="0 0 125 125"
	 style="enable-background:new 0 0 125 125;" xml:space="preserve">
<style type="text/css">
	.st0{fill:#FDE239;stroke:#000000;stroke-width:0.4861;}
	.st1{fill:#E28611;stroke:#000000;stroke-width:0.4861;}
	.st2{fill:#DDBF0A;stroke:#000000;stroke-width:0.4501;}
	.st3{fill:#FFFAFA;}
	.st4{stroke:#000000;stroke-width:0.4861;}
	.st5{fill:#DF5B09;stroke:#000000;stroke-width:0.4861;}
	.st6{fill:#DF5B09;}
	.st7{fill:#DA4E08;}
	.st8{fill:#FFFFFF;}
	.st9{fill:#F9AB1A;fill-opacity:0.354;}
	.st10{fill:#F9AB1A;stroke:#000000;stroke-width:0.4861;}
	.st11{fill:#E45A14;}
	.st12{fill:none;stroke:#000000;stroke-width:0.4861;}
</style>
<sodipodi:namedview  bordercolor="#666666" borderopacity="1.0" id="base" inkscape:current-layer="layer1" inkscape:cx="368.15193" inkscape:cy="357.69734" inkscape:document-units="px" inkscape:pageopacity="0.0" inkscape:pageshadow="2" inkscape:window-height="705" inkscape:window-maximized="1" inkscape:window-width="1366" inkscape:window-x="-8" inkscape:window-y="-8" inkscape:zoom="1" pagecolor="#ffffff" showgrid="false" units="px">
	</sodipodi:namedview>
<g id="layer1" transform="translate(0,-452.36216)" inkscape:groupmode="layer" inkscape:label="Layer 1">
	<path id="path4188" inkscape:connector-curvature="0" sodipodi:nodetypes="ssssssssss" class="st0" d="M21.1,509.7
		c-1.1,0-2.4,0.1-3.2,0.8c-0.9,0.7-1.4,2-1.4,3.1c0,0.9,0.4,1.9,1.1,2.6c0.7,0.8,1.8,1.3,2.9,1.4c0.9,0.1,1.9-0.2,2.6-0.7
		c0.6-0.4,1.2-1.3,1.5-2c0.3-0.9,0.2-2.2-0.2-3.1c-0.3-0.9-1-1.2-1.8-1.7C22.1,509.9,21.6,509.7,21.1,509.7L21.1,509.7z"/>
	
		<path id="path4147" inkscape:connector-curvature="0" sodipodi:nodetypes="cssssssssscsssssssssssssassssscssssssaaacssssssssssc" class="st1" d="
		M40.5,492.7c0,0-7.2,4-10.7,6.3c-2.8,1.9-4.2,3.2-7.1,4.9c-0.9,0.6-2.6,1.9-3.9,2.7c-1.5,0.9-3.4,1.2-4.8,2.3c-1.8,1.4-3,3.3-4.3,5
		c-1,1.2-1.3,1.1-2.1,2.4c-0.2,0.3,0.3,0.7,0,1.1c-0.4,0.6-1.7,1.2-1.6,1.8c0.1,0.3,0.4,0.7,0.8,0.8c1.1,0.1,7.6,5.2,7.5,5.3
		c0.1-0.1-7.2-5.2-8-4c-0.5,0.7-0.5,2-0.1,2.5c0.5,0.6,0.7,0.3,1,0.7c1.2,1.3,0.9,2.7,1.6,3.3c3.3,3.3,6.6,5,10.3,7
		c3.8,2.1,7.9,4.1,12,5.6c3.3,1.2,6.8,1.6,10.1,2.7c1.8,0.6,3.6,1.4,5.4,2.1c2.6,1,5,3,7.8,3c0.6,0,1-0.6,1.6-0.6
		c1,0,1.8,1.3,2.8,1.2c1.6-0.2,3.2-1.3,3.8-2.8c0.4-0.9-1.1-2.3-0.4-3c1.4-1.4,4.2-1.6,6.4-1.5c1.1,0,2.2,0.5,3.3,0.9
		c3.6,1.2,7.4,1.9,11.3,2.4c3.1,0.3,6.4,1,9.3,0c2.8-0.9,6.1-2.3,7.3-5c1-2.3,0-5.3-1.2-7.5c-0.5-1-2.5-2.3-2.5-2.3
		s10.3,4.9,15.8,4.8c2.6,0,5.6-0.4,7.3-2.3c1.7-1.9,1.4-4.6,1.1-7.1c-0.4-3.4-2.8-6.5-3.6-9.8c-0.6-2.5,0.2-5.1-0.6-7.5
		c-0.7-2.2-1.3-5.4-3.6-5.8c-2-0.3-3.2,2.4-4.7,3.7c-1.6,1.3-3,3-4.9,4.1c-1.3,0.7-2.9,1.1-4.4,1.4c-1.3,0.3-4.1,0.2-4.1,0.2
		s1-4.8,0.5-7.4c-0.7-3.7-2.2-7.3-4.4-10.4c-1.8-2.4-3.8-5.4-6.8-5.8c-1.7-0.3-3.7,0.8-4.8,2.1c-1.3,1.5-3.1,5.5-4.3,5
		c0,0-4.7-1.7-6.8-3c-2.5-1.5-4.2-4.3-6.9-5.6c-1.7-0.8-3.7-1.2-5.6-1.2c-2.1,0-4.2,0.5-6.2,1.1c-2.3,0.7-4.7,1.3-6.5,2.9
		C41.6,490.1,40.5,492.7,40.5,492.7L40.5,492.7z"/>
	<path id="path4190" inkscape:connector-curvature="0" sodipodi:nodetypes="sssssssss" class="st2" d="M20.8,511.2
		c-1.1,0.2-2.3,0.7-2.8,1.7c-0.3,0.7-0.1,1.6,0.2,2.2c0.4,0.7,1.1,1.3,1.8,1.5c0.8,0.3,1.7,0.2,2.5-0.1c0.7-0.3,1.2-0.9,1.6-1.5
		c0.3-0.6,0.4-1.3,0.2-1.9c-0.2-0.6-0.7-1.1-1.2-1.4C22.4,511.3,21.5,511,20.8,511.2z"/>
	<path id="path4149" inkscape:connector-curvature="0" sodipodi:nodetypes="cssccscc" class="st3" d="M94.9,512.1
		c0,0,0.9,4.9,0.9,7.4c0,3-0.7,3.4-1,6.3c-0.1,0.6-0.2,3.5-0.2,3.5c2.6,0,5.4,0.5,6.8,1.6c-0.1-3.7,0.4-7.4,0.7-10.9
		c0.3-3.5-0.5-6.6,1.4-10.3C100.8,511.1,97.9,512.4,94.9,512.1L94.9,512.1z"/>
	<path id="path4184" inkscape:connector-curvature="0" sodipodi:nodetypes="sacssaaasss" class="st4" d="M110.7,505
		c-1.5-0.4-3,1.6-4.3,2.7c-1.3,1.1-3.1,2.3-3.3,3.7c0,0-0.8,8.5-0.7,11.2c0.1,1.8-1.2,6.4,0,7.8c1.4,1.6,8.1,3.8,11.6,2.1
		c2.4-1.1,3.1-4.4,3.8-6.9c0.3-1.2,0.2-2.6-0.1-3.8c-0.3-1.7-1.5-3.2-2-4.9c-0.9-3-0.8-4.4-1.7-7.9
		C113.6,507.4,112.3,505.4,110.7,505z"/>
	<path id="path4151" inkscape:connector-curvature="0" sodipodi:nodetypes="sscsssssss" class="st5" d="M109.2,507.4
		c-1.7-0.2-2.9,1.3-4.3,2.7c-1.2,1.2-1.8,6.8-1.8,6.8c0,0-0.6,5.4-0.5,8.2c0.1,1.8-0.4,4,0.8,5.4c1.4,1.6,4,2.2,6.2,2
		c1.8-0.2,3.9-1.1,4.7-2.7c1.3-2.4,2.5-6.2,1.8-9.3c-0.7-3.1-1.9-6.3-3.4-9.2C111.7,509.8,110.9,507.6,109.2,507.4z"/>
	<path id="path4153" inkscape:connector-curvature="0" sodipodi:nodetypes="sssssasassssssscs" class="st6" d="M93.2,510.5
		c1-3.2-1.5-7.6-3.2-10.4c-1.7-2.6-3.9-4.9-6.6-5.9c-1.5-0.6-3.3-1.4-4.8-0.6c-2.3,1.2-2,4.4-2,6.5c0,2.9-2.7,5.2-3.6,7.9
		c-1.2,3.6-2.4,6.9-2.4,11c0,3.9-0.2,7.8,0.1,11.7c0.2,3.1-1.1,6.6,1.1,9.2c1.2,1.3,3.1,1.9,4.9,2c3.2,0.3,6.5,0.2,9.7-0.4
		c3.3-0.7,8.6-4.6,8.7-7.8c0.1-2.3-1.5-2-1.3-4.3c0.3-3.9,1.1-7.7,1.2-11.6c0-1.8,0.8-3.9-0.3-5.3c-0.6-0.8-2.7-1-2.7-1
		S93.1,511,93.2,510.5L93.2,510.5z"/>
	
		<path id="path4155" inkscape:connector-curvature="0" sodipodi:nodetypes="csccccccccccccccccccccccccccccccccccccsssscsssc" class="st7" d="
		M46.4,535.1c0,0,4.4,3.1,7,3c2.8-0.1,7.8-3.4,7.8-3.4l-0.3-1.4l0.7-0.5L61,532l1-0.5l-0.4-0.6l0.9-0.5l-0.5-0.6l0.9-0.4l-0.6-0.6
		l0.7-0.3l-0.6-0.7l0.9-0.5l-0.6-0.5l0.6-0.4l-0.7-0.5l0.8-1l-1-0.1l1-1l-0.8-0.2l0.3-0.7l-1.4,0.2l1.2-1.2l-1.5-1l0.9-0.6l-0.7-0.3
		l0.5-0.8l-1,0l0.2-0.6l-1.1-0.1l0.5-1l-0.6-0.2l-0.3-0.9l-0.9,0l-0.6-0.8l-2-0.3c0,0-1.6-0.4-2.4-0.2c-2.5,0.8-4.3,3.2-6.2,5
		c-0.6,0.5-1.3,1.3-1.9,1.8c-0.5,0.4-0.8,0.4-1.3,0.9c-1.2,1.2-2.7,4.2-2.7,4.2s2.4-2.4,3.8-2.1c1.9,0.4,3.3,2.6,3.7,4.5
		c0.3,1.3-0.4,2.6-1.1,3.7C47.7,534,46.4,535.1,46.4,535.1L46.4,535.1z"/>
	<path id="path4160" inkscape:connector-curvature="0" sodipodi:nodetypes="sscssssssss" class="st4" d="M61.6,542.1
		c-1.1-1.5-3.2-0.9-5.1-1.1c-1.1-0.1-3.3,0.7-3.3,0.7s-1.6,0.2-1.8,0.6c-0.5,1.2-0.2,0.4-1.2,1.2c-0.4,0.3-2.6,0.9-2.5,1.4
		c0.2,1.2,3.4,2.3,4.6,2.6c1.3,0.3,2.5-0.4,3.8-0.1c0.8,0.2,1.9,1.1,2.8,1.1c1.5-0.1,1.6-1.2,2.3-2.6
		C61.7,545.1,62.2,543,61.6,542.1z"/>
	<path id="path4162" inkscape:connector-curvature="0" sodipodi:nodetypes="ssasssssacssss" class="st6" d="M53.7,541.7
		c3-1.2,7.2,1.1,8.9,0.1c0.7-0.4,1.5-1.9,1-2.7c-1-1.5-2.9,0-5.5-0.4c-3.3-0.5-10.3,0.2-11.6-2.9c-0.4-0.9,1-1.4,1.7-2
		c5.5-4.4-1.3-9.5-5.5-9.4c-2.4,0.1-3.3,6-3.6,6.2c-0.3,0.3-4.8,3.7-7.4,5.2c-1.5,0.9-4.8,2.3-4.8,2.3s5,2.2,7.6,2.6
		c5.9,1,11.8,4.3,13.4,5c1,0.4,1.7-1.1,2.6-1.8C51.6,543.3,52.4,542.1,53.7,541.7L53.7,541.7z"/>
	<path id="path4164" inkscape:connector-curvature="0" sodipodi:nodetypes="csassssassscccc" class="st8" d="M20,505.9
		c0.4-0.1,3.3,1.6,4.8,2.8c0.9,0.7,1.8,1.6,2.5,2.6c0.8,1.2,1.3,2.7,1.8,4.1c0.5,1.2,1,2.4,1.2,3.7c0.4,2.2,0,4.5,0.1,6.7
		c0.1,1.2-0.5,2.7,0.4,3.5c0.4,0.4,1.2,0.3,1.8,0c1.7-0.9,2.3-3.1,3.1-4.8c1.2-2.4,2.9-5,2.6-7.8c-0.2-2.6-2.4-4.8-3.9-7
		c-0.7-1.1-2.4-3-2.4-3l-4.6-2.4c-0.9-0.6-1.7-1.2-2.7-1.5C21.9,504.4,21.3,504.9,20,505.9L20,505.9z"/>
	<path id="path4166" inkscape:connector-curvature="0" sodipodi:nodetypes="sssssssaasas" class="st9" d="M21.5,520.4
		c3.5-0.4,4.9-1.2,5.7-4c0.7-2.2-0.9-4.6-2.4-6.3c-0.7-0.9-1.8-2.1-2.9-1.7c-0.6,0.2-0.7,1.2-0.1,1.2c2.7,0.1,3.5,3,3.6,3.5
		c0.1,0.8,0.3,1.9-0.1,2.8c-0.4,0.8-1,1.5-1.8,1.9c-0.9,0.4-2,0.4-3,0.3c-1.4-0.2-3.6-2.7-4-1.6c-0.2,0.6,1.1,2.2,2,2.9
		C19.2,520,20.9,520.5,21.5,520.4L21.5,520.4z"/>
	<path id="path4168" inkscape:connector-curvature="0" sodipodi:nodetypes="saasascassszzaasss" class="st10" d="M13.1,526.9
		c-1.5-0.7-2.4-2.3-4-2.8c-0.9-0.3-2.2,0.6-2.9,0c-0.5-0.4-0.4-1.4-0.3-2c0.1-0.5,0.2-0.8,0.6-1c1.1-0.3,2.2,0.8,3.1,1.3
		c1.4,0.7,4.1,2.8,4.1,2.8s-3.1-2.6-4.7-3.7c-0.8-0.5-1.6-0.8-2.4-1.3c-0.3-0.2-0.9-0.3-0.9-0.7c0.1-0.6,0.9-1.1,1.8-1.8
		c1-0.8,2.6,0.9,3.5,1.3c1,0.4,1.8,0.7,2.5,1.3c0.7,0.6,1.2,1.4,1.6,2.2c0.4,0.7,0.9,1.4,1.2,2.2c0.2,0.4,0.4,0.9,0.3,1.4
		c-0.2,0.7-0.9,1.4-1.6,1.6C14.3,527.8,13.7,527.3,13.1,526.9z"/>
	<path id="path4174" inkscape:connector-curvature="0" sodipodi:nodetypes="csscssassccccc" class="st4" d="M49.6,518.2
		c0.3-0.3,7.6-8.9,10.8-13.2c2-2.7,4.1-5.3,5.5-8.3c0.7-1.5,1.5-4.8,1.5-4.8s-0.2-1.6-0.7-2.2c-1.6-2-4.3-3.1-6.7-3.8
		c-2.2-0.6-4.4-0.9-6.6-0.7c-3.3,0.3-7.2,1.7-9.6,2.9c-1.5,0.7-2.7,3.2-3.8,4.8c-0.5,0.7,1.2,0.6,1.2,0.6l17.8-5.1l4.1,3.8l-2,2.5
		L49.6,518.2z"/>
	<path id="path4172" inkscape:connector-curvature="0" sodipodi:nodetypes="ccscccscccsscssccc" class="st11" d="M62.5,495l3.2-2.2
		c0,0-2.9-0.1-2.6-0.5c0.3-0.3,1.7-1.4,1.7-1.4l-3.5-0.7l1.1-1.6c0,0-2.8,0-3.2,0.2c-0.4,0.2-0.8-1.5-0.8-1.5l-2.7,0.2l-2.4,0.2
		c0,0,0.4-1.6,0-1.4c-0.4,0.2-1.5,0.6-2.2,0.9l-2.4,1c0,0,0.9-1.6-0.1-1.2c-1,0.4-2.3,0.5-3.2,1.2s-2.6,2.5-2.6,2.5l-1.5,2.5
		L62.5,495z"/>
	<path id="path4170" inkscape:connector-curvature="0" sodipodi:nodetypes="sssssaasacaasaas" class="st6" d="M45.7,522.1
		c4-1.8,4.9-6.6,7.5-10.1c2.6-3.5,5.4-7.5,7.8-11.1c0.8-1.2,2.2-2.2,2.4-3.7c0.1-0.8,0-1.7-0.6-2.3c-2.3-2-6.2-0.1-9.1-0.8
		c-1.7-0.4-3.1-1.7-4.8-1.9c-2.8-0.3-7.7,0.8-8.4,1.1c-0.6,0.3-4.9,2.5-7.2,3.9c-2.2,1.4-6.2,4.4-6.2,4.4s4.1,1.7,5.7,3.1
		c1.9,1.7,3.3,3.9,4.5,6.2c0.5,1,0.6,2.2,1.1,3.3c0.7,1.6,0,3.8-0.3,5.7c-0.7,4.2-6.9,10.1-3.2,12.3
		C39.1,534.8,45.1,522.4,45.7,522.1L45.7,522.1z"/>
	
		<path id="path4176" inkscape:connector-curvature="0" sodipodi:nodetypes="casssssccccccccccccccccccccccccsccccccscscccccccsccccccsacc" class="st4" d="
		M24.7,502.7c0.5,0.1,6.7,3.8,9.1,6.7c1.9,2.2,3.6,4.7,3.9,7.7c0.2,2.9-1.1,5.3-2.3,7.7c-0.9,1.9-2,2.9-3.1,5.1
		c-0.4,0.7,0,1.8-0.1,2.6c-0.1,0.8-0.4,1.3-0.3,2c0.1,0.5,0.7,1.3,0.7,1.3l0.5-2.3l1.8,1l-0.9-1.6l1.2,0.3l-0.1-0.9l1.1,0.9
		l-0.7-1.5l-0.2-0.5l1.3,0.3l1.7-0.1l-1.7-0.4l-1.2-0.4l2.5-0.3l-1.4-0.4l-0.3-0.6l1.6-0.4l-0.7-0.1l0.9-0.8l-1.3-0.3l0.4-1l0.2-2.7
		l0.6-0.6l1.1,1.6c0,0-1.2-1.7-0.7-2.4c0.5-0.6,1.8,0,1.8,0l-1-1.5l1,0l-0.5-0.4l1.4-0.3l-1.6-0.6c0,0-0.2-0.5,0.8-1
		c1-0.5,0.2-0.6,0.2-0.6s1.7-0.9,1.2-0.7c-0.5,0.2-1,0.2-1,0.2l0.5-0.8l-1.2,0.5l1.6-1.4l-1.7,0.6l1.4-1.5l-1.3,0.3
		c0,0,1.1-1.4,0.8-1.2l-2.4,1l1.1-2.3l-1.2,1.1l0.1-1.8l-0.7,1.3l0.2-2.1c0,0-0.3-1.9-0.9-3c-0.7-1-3.2-3-5-4.1
		c-1.7-1.1-5.5-2.5-5.5-2.5L24.7,502.7z"/>
	<path id="path4178" inkscape:connector-curvature="0" sodipodi:nodetypes="aazaa" class="st4" d="M21.1,515.4
		c-0.8,0.3-2.1-0.3-2.2-1.1c-0.2-0.8,1-1.7,1.7-1.9c0.7-0.2,1.5,0.1,1.7,0.7C22.5,513.9,21.9,515.1,21.1,515.4L21.1,515.4z"/>
	<path id="path4180" inkscape:connector-curvature="0" sodipodi:nodetypes="csc" class="st12" d="M24.9,514.1
		c0.3,0.1-0.5,3.3-3.1,3.5c-1.3,0.1-3.4-1.1-3.4-1.1"/>
	<path id="path4182" inkscape:connector-curvature="0" sodipodi:nodetypes="sscsaaaacassasaaas" class="st8" d="M74.7,496
		c1.8-0.6-6-2.9-7.2-4c-0.7-0.7-6.4,17-15.9,24.4c0,0,5-4.2,7.4-5.1c1.9-0.7,3.7,0.6,4.9,1.9c1.9,1.9,2.1,4.9,2.7,7.5
		c0.4,2,0.9,4,0.6,6c-0.5,3.2-1.8,6.4-4,8.9c-1.3,1.5-5,3.3-5,3.3s2.9,0.2,4.4,0c0.6-0.1,1.4-0.8,1.7-0.3c0.9,1-2.9,5.3-1.6,4.1
		c2-2,5.4-0.9,6.7-3c3.3-5.2-0.2-12.4-0.5-18.3c-0.2-4.8,1-9.6,2.3-14.3c0.7-2.7,2.2-5,2.9-7.7c0.2-0.6,0.2-1.2,0.3-1.8
		C74.5,497.1,73.9,496.3,74.7,496L74.7,496z"/>
	<ellipse id="path4192" class="st8" cx="20.8" cy="513.1" rx="0.3" ry="0.3"/>
</g>
</svg>
