<?xml version="1.0" encoding="utf-8"?>
<!-- Generator: Adobe Illustrator 22.1.0, SVG Export Plug-In . SVG Version: 6.00 Build 0)  -->
<svg version="1.1"
	 id="svg2" inkscape:version="0.91 r13725" xmlns:cc="http://creativecommons.org/ns#" xmlns:dc="http://purl.org/dc/elements/1.1/" xmlns:inkscape="http://www.inkscape.org/namespaces/inkscape" xmlns:ns1="http://sozi.baierouge.fr" xmlns:rdf="http://www.w3.org/1999/02/22-rdf-syntax-ns#" xmlns:sodipodi="http://sodipodi.sourceforge.net/DTD/sodipodi-0.dtd" xmlns:svg="http://www.w3.org/2000/svg"
	 xmlns="http://www.w3.org/2000/svg" xmlns:xlink="http://www.w3.org/1999/xlink" x="0px" y="0px" viewBox="0 0 125 125"
	 style="enable-background:new 0 0 125 125;" xml:space="preserve">
<style type="text/css">
	.st0{fill:#98FECB;}
	.st1{fill:#ADE07A;}
	.st2{fill:#8FC25C;}
	.st3{fill:#538620;}
	.st4{fill:#356802;}
	.st5{fill:#174A00;}
</style>
<g id="layer1" transform="translate(-401.12845,-489.66989)">
	<g id="g3568" transform="translate(125,30.714286)">
		<path id="path3582" class="st0" d="M298.3,545.7v-4.1h-4.1h-4.1v-4.1v-4.1h-4.1h-4.1v-8.1v-8.1h4.1h4.1v-4.1v-4.1h8.1h8.1v-4.1
			v-4.1h24.3h24.3v4.1v4.1h8.1h8.1v-4.1v-4.1h4.1h4.1V497V493h4.1h4.1v4.1v4.1h4.1h4.1v20.3v20.3h-4.1h-4.1v4.1v4.1h-4.1h-4.1v-4.1
			v-4.1h-4.1h-4.1v-4.1v-4.1h-4.1h-4.1v4.1v4.1h-8.1H347v4.1v4.1h-24.3h-24.3V545.7z"/>
		<path id="path3580" class="st1" d="M298.3,545.7v-4.1h-4.1h-4.1v-4.1v-4.1h-4.1h-4.1v-8.1v-8.1h4.1h4.1v-4.1v-4.1h8.1h8.1v-4.1
			v-4.1h24.3h24.3v4.1v4.1h8.1h8.1v-4.1v-4.1h4.1h4.1V497V493h4.1h4.1v4.1v4.1h4.1h4.1v20.3v20.3h-4.1h-4.1v4.1v4.1h-4.1h-4.1v-4.1
			v-4.1h-4.1h-4.1v-4.1v-4.1h-4.1h-4.1v4.1v4.1h-8.1H347v4.1v4.1h-24.3h-24.3V545.7z M347,537.6v-4.1h8.1h8.1v-4.1v-4.1h-8.1H347
			v4.1v4.1h-24.3h-24.3v4.1v4.1h24.3H347V537.6z M387.5,537.6v-4.1h-4.1h-4.1v-4.1v-4.1h-4.1h-4.1v4.1v4.1h4.1h4.1v4.1v4.1h4.1h4.1
			V537.6z"/>
		<path id="path3578" class="st2" d="M298.3,545.7v-4.1h-4.1h-4.1v-4.1v-4.1h-4.1h-4.1v-8.1v-8.1h4.1h4.1v-4.1v-4.1h8.1h8.1v-4.1
			v-4.1h24.3h24.3v4.1v4.1h8.1h8.1v-4.1v-4.1h4.1h4.1V497V493h4.1h4.1v4.1v4.1h4.1h4.1v20.3v20.3h-4.1h-4.1v4.1v4.1h-4.1h-4.1v-4.1
			v-4.1h-4.1h-4.1v-4.1v-4.1h-4.1h-4.1v4.1v4.1h-8.1H347v4.1v4.1h-24.3h-24.3V545.7z M347,537.6v-4.1h8.1h8.1v-4.1v-4.1h-8.1H347
			v4.1v4.1h-4.1h-4.1v-4.1v-4.1h-4.1h-4.1v4.1v4.1h-4.1h-4.1v-4.1v-4.1h-8.1h-8.1v4.1v4.1h-4.1h-4.1v4.1v4.1h24.3H347V537.6z
			 M387.5,533.5v-8.1h-8.1h-8.1v4.1v4.1h4.1h4.1v4.1v4.1h4.1h4.1V533.5z"/>
		<path id="path3576" class="st3" d="M298.3,545.7v-4.1h-4.1h-4.1v-4.1v-4.1h-4.1h-4.1v-8.1v-8.1h4.1h4.1v-4.1v-4.1h8.1h8.1v-4.1
			v-4.1h24.3h24.3v4.1v4.1h8.1h8.1v-4.1v-4.1h4.1h4.1V497V493h4.1h4.1v4.1v4.1h4.1h4.1v20.3v20.3h-4.1h-4.1v4.1v4.1h-4.1h-4.1v-4.1
			v-4.1h-4.1h-4.1v-4.1v-4.1h-4.1h-4.1v4.1v4.1h-8.1H347v4.1v4.1h-24.3h-24.3V545.7z M347,537.6v-4.1h8.1h8.1v-4.1v-4.1h-28.4h-28.4
			v4.1v4.1h-4.1h-4.1v4.1v4.1h24.3H347V537.6z M387.5,533.5v-8.1h-8.1h-8.1v4.1v4.1h4.1h4.1v4.1v4.1h4.1h4.1V533.5z"/>
		<path id="path3574" class="st4" d="M298.3,545.7v-4.1h-4.1h-4.1v-4.1v-4.1h-4.1h-4.1v-8.1v-8.1h4.1h4.1v-4.1v-4.1h8.1h8.1v-4.1
			v-4.1h24.3h24.3v4.1v4.1h8.1h8.1v-4.1v-4.1h4.1h4.1V497V493h4.1h4.1v4.1v4.1h4.1h4.1v20.3v20.3h-4.1h-4.1v4.1v4.1h-4.1h-4.1v-4.1
			v-4.1h-4.1h-4.1v-4.1v-4.1h-4.1h-4.1v4.1v4.1h-8.1H347v4.1v4.1h-24.3h-24.3V545.7z M347,537.6v-4.1h8.1h8.1v-4.1v-4.1h-4.1h-4.1
			v-4.1v-4.1h-28.4h-28.4v4.1v4.1h-4.1h-4.1v4.1v4.1h4.1h4.1v4.1v4.1h24.3H347V537.6z M387.5,533.5v-8.1h-8.1h-8.1v4.1v4.1h4.1h4.1
			v4.1v4.1h4.1h4.1V533.5z"/>
		<path id="path3572" class="st5" d="M298.3,545.7v-4.1h-4.1h-4.1v-4.1v-4.1h-4.1h-4.1v-8.1v-8.1h4.1h4.1v-4.1v-4.1h8.1h8.1v-4.1
			v-4.1h24.3h24.3v4.1v4.1h8.1h8.1v-4.1v-4.1h4.1h4.1V497V493h4.1h4.1v4.1v4.1h4.1h4.1v20.3v20.3h-4.1h-4.1v4.1v4.1h-4.1h-4.1v-4.1
			v-4.1h-4.1h-4.1v-4.1v-4.1h-4.1h-4.1v4.1v4.1h-8.1H347v4.1v4.1h-24.3h-24.3V545.7z M347,537.6v-4.1h8.1h8.1v-8.1v-8.1h-4.1h-4.1
			v-4.1v-4.1H351H347v4.1v4.1h-4.1h-4.1v-4.1v-4.1h-4.1h-4.1v4.1v4.1h-16.2h-16.2v4.1v4.1h-4.1h-4.1v4.1v4.1h4.1h4.1v4.1v4.1h24.3
			H347V537.6z M387.5,529.5v-12.2h-8.1h-8.1v8.1v8.1h4.1h4.1v4.1v4.1h4.1h4.1V529.5z"/>
		<path id="path3570" d="M298.3,545.7v-4.1h-4.1h-4.1v-4.1v-4.1h-4.1h-4.1v-8.1v-8.1h4.1h4.1v-4.1v-4.1h8.1h8.1v-4.1v-4.1h24.3h24.3
			v4.1v4.1h8.1h8.1v-4.1v-4.1h4.1h4.1V497V493h4.1h4.1v4.1v4.1h4.1h4.1v20.3v20.3h-4.1h-4.1v4.1v4.1h-4.1h-4.1v-4.1v-4.1h-4.1h-4.1
			v-4.1v-4.1h-4.1h-4.1v4.1v4.1h-8.1H347v4.1v4.1h-24.3h-24.3V545.7z M347,537.6v-4.1h8.1h8.1v-4.1v-4.1h4.1h4.1v4.1v4.1h4.1h4.1
			v4.1v4.1h4.1h4.1v-20.3v-20.3h-4.1h-4.1v4.1v4.1h-4.1h-4.1v4.1v4.1h-8.1h-8.1v-4.1v-4.1h-24.3h-24.3v4.1v4.1h-8.1h-8.1v8.1v8.1
			h4.1h4.1v4.1v4.1h24.3H347V537.6z"/>
	</g>
</g>
</svg>
