<?xml version="1.0" encoding="utf-8"?>
<!-- Generator: Adobe Illustrator 22.1.0, SVG Export Plug-In . SVG Version: 6.00 Build 0)  -->
<svg version="1.1"
	 id="svg2" inkscape:version="0.91 r13725" sodipodi:docname="blue-fish.svg" xmlns:cc="http://creativecommons.org/ns#" xmlns:dc="http://purl.org/dc/elements/1.1/" xmlns:inkscape="http://www.inkscape.org/namespaces/inkscape" xmlns:rdf="http://www.w3.org/1999/02/22-rdf-syntax-ns#" xmlns:sodipodi="http://sodipodi.sourceforge.net/DTD/sodipodi-0.dtd" xmlns:svg="http://www.w3.org/2000/svg"
	 xmlns="http://www.w3.org/2000/svg" xmlns:xlink="http://www.w3.org/1999/xlink" x="0px" y="0px" viewBox="0 0 125 125"
	 style="enable-background:new 0 0 125 125;" xml:space="preserve">
<style type="text/css">
	.st0{fill:url(#path4144-4_1_);}
	.st1{fill:#241D49;}
	.st2{fill:#0D0C0F;}
	.st3{fill:#3585AB;}
</style>
<sodipodi:namedview  bordercolor="#666666" borderopacity="1" fit-margin-bottom="0" fit-margin-left="0" fit-margin-right="0" fit-margin-top="0" gridtolerance="10" guidetolerance="10" id="namedview4" inkscape:current-layer="svg2" inkscape:cx="476.881" inkscape:cy="377.81591" inkscape:pageopacity="0" inkscape:pageshadow="2" inkscape:window-height="715" inkscape:window-maximized="1" inkscape:window-width="1366" inkscape:window-x="-8" inkscape:window-y="-8" inkscape:zoom="0.71463371" objecttolerance="10" pagecolor="#ffffff" showgrid="false">
	</sodipodi:namedview>
<g id="g4206" transform="translate(-35.291282,-4.0891616)">
	
		<radialGradient id="path4144-4_1_" cx="134.1087" cy="80.5717" r="57.6551" gradientTransform="matrix(1 0 0 -0.8064 -35.2913 132.1908)" gradientUnits="userSpaceOnUse">
		<stop  offset="0" style="stop-color:#C4C7E4"/>
		<stop  offset="1" style="stop-color:#8D93CD"/>
	</radialGradient>
	
		<path id="path4144-4" inkscape:connector-curvature="0" sodipodi:nodetypes="sssssssssssssssssssscsssscscsssssssssssssssssssssssssssssssssssssssssssssssssssscssssssssssssssssssssssscsssssssssssssssssssssssscsssssssssssscsssssssssssssssssssccsscsss" class="st0" d="
		M85.9,113.5c-1.9-0.5-2.6-0.8-4.2-1.5c-1-0.5-2.1-1.1-2.6-1.6c-1-0.8-1.9-1.4-2.7-1.5c-0.3-0.1-1-0.2-1.5-0.4
		c-0.5-0.1-1.2-0.2-1.4-0.2c-0.4,0.1-2.4-0.2-3.2-0.6c-0.2-0.1-0.8-0.2-1.2-0.3c-0.4-0.1-1.1-0.4-1.6-0.7c-0.5-0.3-1.4-0.7-2.1-1
		c-0.7-0.3-1.3-0.6-1.5-0.7c-0.6-0.5-1.2-0.7-1.6-0.5c-0.2,0.1-1,0.2-1.7,0.2c-1.5,0-6.4-0.4-6.7-0.6c-0.1-0.1-0.8-0.2-1.6-0.4
		c-2.2-0.4-3.6-0.9-4.5-1.3c-0.5-0.2-1.1-0.6-1.4-0.7c-0.8-0.3-2.2-1.7-2.8-2.6c-0.3-0.4-0.7-1.1-1-1.4c-0.6-0.7-1.3-2.7-1.4-4.1
		c0-0.6,0-1.8,0.1-2.6c0.1-1.2,0.3-1.7,0.8-2.7c0.7-1.4,1.3-2.4,2.5-3.7c0.4-0.5,0.8-1,0.8-1.1c0-0.2,0.5-0.6,1.3-0.9
		c0.4-0.2,1.1-0.5,1.4-0.7c0.3-0.2,0.9-0.5,1.3-0.6c0.4-0.1,1-0.3,1.2-0.5c0.8-0.4,2.7-0.8,4.3-1c1.7-0.2,2.4-0.4,3.8-1.5
		c1.1-0.8,2.8-2.7,3.7-4c0.4-0.6,1-1.4,1.3-1.8s1.1-1.6,1.7-2.7c0.6-1.1,1.2-2.1,1.3-2.2c0.3-0.2,0.7-0.9,0.9-1.6
		c0.2-0.6,0.2-0.7-0.8-3c-1.4-3.5-1.6-4.5-1.3-6.1c0.1-0.4,0.3-1.3,0.4-2c0.3-1.6,0.7-2.5,1.7-3.8c2.3-3,4.6-4.6,6.9-5
		c1.1-0.2,1.2-0.3,1.8-1.2c0.8-1.3,2.9-3.2,5.5-4.9c0.7-0.5,1.6-1,2-1.3c0.4-0.3,1.1-0.6,1.5-0.7c1.1-0.3,1.2-0.4,1.7-1.5
		c0.5-1,1.2-2.2,1.9-3c0.2-0.3,0.7-1,1-1.5c0.8-1.4,2.7-3.2,4.7-4.5c0.4-0.2,1-0.6,1.3-0.9c0.4-0.3,1.4-0.8,2.3-1.3
		c0.9-0.5,1.7-1,1.8-1.1c0.2-0.4,1.2-0.9,2.2-1.1c1-0.2,2.3-0.7,2.9-1.3c0.3-0.3,0.4-0.3,0.6-0.1c0.1,0.1,0.4,0.2,0.7,0.1
		c2.5-0.4,3.3-0.5,4.2-0.6c0.6,0,1.6-0.2,2.2-0.3c1-0.3,1.3-0.3,2.2-0.2c1.9,0.3,3.3,0.6,5.6,1.2c2.9,0.8,3.9,1.2,4.3,1.5
		c0.2,0.2,0.4,0.4,0.6,0.4c0.2,0.1,0.7,0.5,1.2,0.9c0.5,0.4,1.1,0.8,1.4,1s1.1,0.8,1.8,1.6c1.2,1.2,1.3,1.4,1.5,2.2
		c0.2,1.2,0.1,1.8-0.5,2.3c-0.6,0.5-0.8,0.5-2,0.1c-2.5-0.9-6.9-0.1-9.8,1.7c-1.2,0.7-1.2,0.9-0.3,2.1c0.4,0.5,1.2,1.6,1.7,2.3
		c1.8,2.7,3.2,3.8,5.9,4.9c0.5,0.2,1,0.5,1.1,0.6s0.6,0.4,1,0.7c0.5,0.2,1.1,0.7,1.4,1c0.3,0.3,0.6,0.6,0.6,0.6
		c0.3,0,1.9,1.2,3.2,2.5c0.4,0.4,1,0.9,1.3,1.1c0.3,0.2,0.8,0.8,1.2,1.4c0.3,0.5,1.2,1.6,1.9,2.5c1.4,1.7,2.1,2.6,2.5,3.6
		c0.2,0.4,0.4,0.7,0.4,0.7c0.1,0,0.2-0.2,0.4-0.4c0.1-0.2,1-1.3,1.8-2.3s1.8-2.3,2.1-2.7c0.3-0.4,0.6-0.8,0.7-0.8s1.2-1.1,2.6-2.4
		c1.3-1.3,3.3-3,4.3-3.9c3.5-2.7,4.2-2.7,3.4,0.3c-0.2,0.7-0.4,1.6-0.5,2s-0.3,1.1-0.5,1.4c-0.2,0.3-0.3,0.8-0.3,1
		c0,0.2-0.1,0.6-0.2,1c-0.4,1-0.7,2.5-0.8,3.4c0,0.5-0.2,1.2-0.4,1.6c-0.2,0.4-0.7,2.4-1.1,4.4c-0.4,2-1,4.9-1.4,6.3
		c-0.3,1.4-0.7,3.7-0.9,4.9c-0.4,3.1-0.7,4.8-1.1,6.5c-0.9,4.1-1.2,7.1-1.3,12.2c-0.1,4.9-0.2,5.5-1.3,7.4c-0.7,1.2-1.2,1.1-1.8-0.1
		c-0.4-0.9-1.3-1.7-3-2.6c-0.8-0.4-1.5-1-1.7-1.2s-0.5-1.1-0.8-1.9c-0.3-0.8-0.6-1.5-0.6-1.6s-0.7,0.6-1.5,1.3
		c-2.4,2.3-7,5.4-9.6,6.4c-0.6,0.2-1.2,0.5-1.3,0.6c-0.2,0.2-0.1,0.3,1.6,0.9c1.2,0.4,2.7,1.4,3.5,2.4c1.4,1.8,1.5,2,1.5,2.5
		c0,0.3,0.1,1.2,0.3,1.9c0.5,2.3,0.6,3.4,0.4,3.9c-0.3,0.7-0.8,0.9-2,1.1c-2.6,0.4-4.3,0.1-5.9-1c-1.9-1.2-4.3-3.8-5.9-6.3
		c-0.3-0.5-0.8-1.3-1.1-1.7c-0.5-0.7-0.5-0.7-1.1-0.6c-0.8,0.1-1.8,0.5-4.1,1.6c-0.9,0.4-2,0.8-2.4,0.9c-0.4,0.1-0.9,0.2-1.2,0.4
		c-0.7,0.4-3.5,1-6.1,1.4c-1.2,0.2-2.6,0.4-3.2,0.5c-0.6,0.1-1.3,0.2-1.6,0.2s-1,0.1-1.5,0.2s-1.3,0.3-1.8,0.5
		c-0.5,0.1-1.3,0.4-1.8,0.5c-0.5,0.2-1.4,0.3-2,0.3c-0.6,0-1.4,0.1-1.7,0.2c-0.3,0.1-0.7,0.2-0.8,0.2c-0.1,0-0.1,0.3,0.3,1
		c0.3,0.6,0.5,1.2,0.5,1.5c0,0.7-0.8,2.4-1.2,2.6C88.1,113.8,86.9,113.8,85.9,113.5L85.9,113.5z M95.6,69.8c0.6-0.1,1.3-0.3,1.6-0.4
		c1-0.4,2.6-2.4,3.2-4.3c0.3-0.9,0.4-2.1,0.1-2.2c-0.1-0.1-0.5,0.3-1,0.7c-0.7,0.7-2,1.5-2.5,1.5c-0.4,0-1.4-0.6-1.6-1
		c-0.6-0.9-0.4-3,0.3-4.5l0.3-0.6L95.6,59c-0.2-0.1-1-0.2-1.7-0.2c-2.1,0-3.5,0.6-5,2.1c-1.1,1.1-3.2,3.9-3.2,4.3
		c0,0.4,0.7,2.1,0.9,2.1c0.1,0,0.3,0.3,0.4,0.6c0.3,0.6,1.7,1.6,2.6,1.9c0.6,0.2,3,0.4,4.1,0.4C94.1,70.1,95,70,95.6,69.8L95.6,69.8
		z M68.9,60.3c0.1-0.1,0.2-0.4,0.3-0.6c0.1-0.2,0.2-0.6,0.3-0.8c0.3-0.7,1.1-3,1.1-3.2c0-0.5-1.8,0.7-2.3,1.6
		c-0.3,0.5-0.3,0.7,0,2.3C68.6,60.5,68.7,60.7,68.9,60.3z M102.4,57.9c0-0.3-0.1-0.5-0.2-0.5c-0.1,0-0.1,0.2-0.1,0.3
		c0.1,0.2,0.1,0.4,0.1,0.5c0,0.1,0.1,0.2,0.1,0.1C102.4,58.4,102.4,58.2,102.4,57.9z M116.2,40.5c0,0-0.1-0.1-0.2-0.1
		c-0.1,0-0.2,0-0.2,0.1s0.1,0.1,0.2,0.1S116.2,40.5,116.2,40.5z"/>
	<path id="path4142" inkscape:connector-curvature="0" class="st1" d="M85.4,113.2c-0.8-0.2-1.7-0.5-2.2-0.6
		c-1.3-0.4-3.6-1.8-4.5-2.5c-1.5-1.4-2.5-1.7-5.7-2c-0.9-0.1-2.1-0.3-2.6-0.5s-1.3-0.4-1.7-0.5c-0.4-0.1-1-0.3-1.3-0.5
		c-0.3-0.2-1.2-0.6-1.9-0.9c-0.7-0.3-1.6-0.8-2-1c-0.7-0.4-0.7-0.4-3.2-0.3c-2.8,0.1-5.9-0.2-6.8-0.5c-0.3-0.1-0.8-0.3-1.2-0.3
		s-1.2-0.3-1.8-0.5s-1.2-0.4-1.4-0.4s-0.7-0.2-1.3-0.5c-0.6-0.3-1.3-0.6-1.5-0.6c-0.5-0.1-2.6-2.2-3-2.9c-0.1-0.3-0.5-0.7-0.7-1
		c-0.2-0.3-0.7-1.1-0.9-1.8c-0.4-1.2-0.5-1.5-0.5-3c0-2,0.2-3.2,0.9-4.6c0.6-1.3,1.2-2.2,2.4-3.6c0.5-0.6,0.9-1.1,0.9-1.2
		s0.5-0.4,1-0.6c0.6-0.3,1.2-0.6,1.4-0.7c0.6-0.4,2.9-1.3,4.3-1.7c0.6-0.2,1.7-0.4,2.5-0.4c1.5-0.1,2.3-0.4,3.6-1.4
		c1.2-0.9,3.2-3,4.1-4.2c0.4-0.5,1-1.3,1.3-1.8c0.3-0.4,1.1-1.6,1.7-2.6c0.6-1,1.3-2.2,1.6-2.6s0.6-1,0.7-1.3c0.2-0.6,0.2-0.7-0.8-3
		c-1.4-3.4-1.4-3.6-1.3-5.4c0.2-3.9,1-5.6,4.1-8.7c1.4-1.4,2.6-2.1,4.1-2.5c1.9-0.4,1.9-0.4,2.4-1.3c1-1.6,3.3-3.6,6-5.3
		c0.8-0.5,1.6-1,1.8-1.2s0.8-0.4,1.4-0.6l1-0.3l0.6-1.2c0.7-1.3,1.9-3.2,2.3-3.5c0.1-0.1,0.5-0.6,0.7-1.1c0.5-0.9,2.2-2.8,3-3.3
		c0.3-0.2,0.8-0.6,1.3-0.9c1-0.8,1.9-1.4,3.9-2.4c0.9-0.5,2-1.1,2.3-1.4c0.4-0.4,0.9-0.6,1.5-0.7c0.9-0.2,2.6-0.9,3.1-1.3
		c0.2-0.2,0.3-0.2,0.5-0.1c0.2,0.1,0.8,0.1,2.5-0.2c1.3-0.2,2.5-0.4,2.7-0.3c0.2,0.1,0.8,0,1.3-0.1c1.4-0.4,2.2-0.4,3.1-0.3
		c0.5,0.1,1.3,0.2,1.9,0.3c0.6,0.1,1.4,0.3,1.8,0.4s1.2,0.4,1.9,0.5c1.6,0.4,3.3,1.1,3.8,1.4c1.2,0.9,2.9,2.1,3.2,2.3
		c0.7,0.4,2.9,2.8,3.1,3.4c0.3,1,0.2,1.9-0.2,2.3c-0.4,0.4-1,0.4-2.2,0c-1.8-0.6-4.8-0.3-7.3,0.6c-1.8,0.7-3.5,1.8-3.5,2.3
		c0,0.1,0.4,0.8,1,1.5c0.5,0.7,1.3,1.8,1.7,2.4c0.4,0.6,1.2,1.6,1.8,2.2c0.9,0.9,1.4,1.2,3,2c1.1,0.5,2,1,2.1,1.1
		c0.1,0.1,0.4,0.3,0.8,0.5c0.4,0.2,1,0.6,1.4,0.9c0.4,0.3,0.7,0.6,0.8,0.6c0.3,0,2.2,1.5,3.1,2.4c0.3,0.3,0.9,0.9,1.3,1.1
		c0.4,0.3,1,1,1.4,1.5c0.4,0.6,1.3,1.8,2.1,2.8c0.8,1,1.7,2.3,2,2.9c0.3,0.6,0.7,1.1,0.8,1.1c0.1,0,0.4-0.4,0.7-0.8s1.2-1.5,2-2.5
		c0.8-1,1.7-2.1,1.9-2.5c0.2-0.4,0.5-0.7,0.7-0.7c0.1,0,1.3-1.1,2.5-2.4c2.1-2.1,5.7-5.1,6.8-5.6c0.6-0.3,0.9-0.1,0.8,0.5
		c-0.2,1.2-0.9,3.9-1.2,4.7c-0.1,0.4-0.3,1.1-0.4,1.5c-0.1,0.4-0.4,1.3-0.6,2.1c-0.2,0.8-0.4,1.7-0.4,2s-0.2,1-0.4,1.7
		c-0.2,0.7-0.8,3.1-1.3,5.4s-1.1,5.1-1.4,6.1c-0.3,1.1-0.5,2.2-0.5,2.5c0,0.7-0.8,5.4-1.3,8.1c-1,5-1.2,6.7-1.3,12.1
		c-0.1,4.5-0.1,4.8-0.5,5.7c-0.7,1.7-1.4,2.6-1.9,2.3c-0.1-0.1-0.3-0.4-0.5-0.8c-0.4-0.9-1.3-1.7-2.9-2.5c-0.7-0.4-1.4-0.8-1.6-1.1
		c-0.4-0.4-1.5-2.8-1.5-3.3c0-0.1-0.1-0.3-0.2-0.4c-0.2-0.2-0.5,0.1-1.7,1.3c-2.9,2.8-6.4,5.1-9.7,6.5c-2.1,0.9-2.1,1,0,1.7
		c1.7,0.6,2.9,1.3,3.6,2.2c0.2,0.3,0.7,0.9,1,1.3c0.3,0.4,0.6,0.8,0.6,1s0.2,1.3,0.5,2.6c0.3,1.3,0.5,2.6,0.5,2.9
		c0,1.2-0.7,1.6-3.1,1.8c-1.9,0.1-3.2-0.2-4.7-1.1c-1.4-1-3.8-3.3-4.9-5c-1.1-1.7-2.3-3.4-2.5-3.6c-0.3-0.3-1.9,0.2-4.5,1.4
		c-1,0.5-2.2,0.9-2.7,1c-0.5,0.1-1,0.2-1.2,0.3c-1,0.5-6.9,1.7-10.6,2.1c-0.6,0.1-1.9,0.3-2.9,0.6c-1,0.3-2.2,0.6-2.7,0.7
		c-0.5,0.1-1.3,0.2-1.8,0.2c-1,0-2.9,0.4-3,0.7c0,0.1,0.1,0.6,0.4,1.1c0.3,0.5,0.5,1.1,0.5,1.4c0,0.6-0.8,2.2-1.2,2.5
		C87.7,113.7,87,113.6,85.4,113.2L85.4,113.2z M86.3,106.9c2-0.1,2.7-0.1,3-0.3c0.2-0.2,0.9-0.3,2-0.4c1.3-0.1,1.8-0.2,2.5-0.5
		c0.5-0.2,1-0.4,1.2-0.4c0.2,0,0.9-0.1,1.6-0.2c0.7-0.1,1.6-0.3,2.2-0.4s1.1-0.2,1.3-0.2c0.2-0.1,0.9-0.1,1.5-0.2
		c0.6,0,1.4-0.1,1.8-0.2s1.2-0.2,1.8-0.3c2-0.3,4.1-0.8,4.9-1.3c0.2-0.1,0.9-0.3,1.5-0.5c0.7-0.2,1.9-0.6,2.7-0.9
		c0.8-0.3,1.7-0.6,1.9-0.6s0.5-0.2,0.7-0.4c0.2-0.2,0.6-0.5,0.9-0.6c0.3-0.1,0.9-0.3,1.4-0.5c0.6-0.3,1.1-0.4,1.5-0.3
		c0.9,0,2.4-0.4,4.1-1.3c0.7-0.4,1.4-0.7,1.5-0.7c0.3,0,2.7-1.1,4-1.9c1.6-0.9,2.3-1.4,5.1-3.7c0.4-0.3,1.1-1,1.5-1.6
		c0.5-0.6,1-1.1,1.2-1.1c0.2-0.1,0.4-0.2,0.4-0.4c0-0.1,0.1-0.4,0.2-0.5c0.4-0.3,0.6,0.1,0.7,1.6c0.1,1.7,0.5,2.8,1.4,3.5
		c0.5,0.5,0.8,0.6,2.1,1.3c0.3,0.2,1.1,0.8,1.6,1.4c0.8,0.8,1,1,1,0.8c0-0.2,0.1-0.4,0.1-0.5c0.1-0.1,0.2-0.5,0.2-0.9
		c0-0.7,0-0.8-0.3-0.8c-0.2,0-0.7-0.4-1.1-0.9c-1.7-1.9-2.5-2.8-2.5-2.9c0-0.1,0-0.5,0-1c0-0.6-0.2-1.2-0.4-1.6
		c-0.2-0.4-0.3-0.9-0.3-1.1c0-0.3-0.1-0.5-0.3-0.6c-0.2-0.1-0.3-0.2-0.3-0.4s-0.3-0.5-0.7-0.9c-0.7-0.6-0.9-1.1-1.1-2.8
		c0-0.4-0.2-0.8-0.3-0.9c-0.2-0.2-0.2-0.3-0.1-1c0.1-0.4,0.1-1.6,0.1-2.6c0-1.5,0-1.9,0.3-2.5c0.3-0.6,0.3-0.9,0.2-1.8
		c-0.1-0.8,0-1.2,0.1-1.6c0.1-0.3,0.4-1,0.5-1.5c0.1-0.5,0.4-1,0.5-1c0.1-0.1,0.2-0.4,0.2-0.7c0-0.3,0.1-0.7,0.2-0.8
		c0.5-0.4,0.7-1.1,0.6-1.8c-0.1-0.5,0-0.8,0.2-1.1c0.2-0.2,0.3-0.3,0.4-0.3c0.1,0.1,0.6-0.8,0.6-1.1c0-0.1,0.1-0.2,0.2-0.2
		c0.1,0,0.1-0.1,0-0.3c-0.2-0.3-0.1-0.3,0.1-0.5c0.2-0.1,0.3-0.5,0.4-1.2c0.1-0.5,0.2-1.1,0.4-1.2c0.1-0.1,0.3-0.5,0.3-0.8
		c0.1-0.8,0.6-1.6,0.9-1.7c0.1,0,0.2-0.2,0.2-0.4s0.2-0.5,0.3-0.7c0.6-0.6,2.3-3.1,2.5-3.6c0.1-0.3,0-0.3-0.8,0.3
		c-0.5,0.3-1.1,0.8-1.4,1.1c-0.7,0.8-2.5,3.2-3.6,5c-0.9,1.5-2.4,3.3-2.6,3.3c-0.1,0-0.1-0.4,0-1c0.1-0.8,0.1-1.1-0.2-1.5
		c-0.2-0.3-0.4-0.7-0.4-1c-0.1-0.2-0.4-0.9-0.8-1.5c-0.4-0.6-0.7-1.2-0.8-1.5c-0.3-1.3-3.3-4.7-6-6.9c-0.9-0.7-1.9-1.5-2.2-1.7
		c-0.3-0.3-1.9-1.1-3.5-1.9c-1.6-0.8-3.4-1.7-3.9-2.1s-1.3-0.7-1.6-0.8c-0.9-0.2-2.6-1.1-3.3-1.6c-0.6-0.5-1.4-0.8-2.7-1
		c-0.5-0.1-0.9-0.2-1-0.2c-0.1-0.1-0.9-0.2-1.8-0.4c-0.9-0.1-2-0.3-2.4-0.4c-1.2-0.2-7.8-0.4-8.5-0.2c-0.3,0.1-1.5,0.2-2.7,0.3
		c-1.1,0.1-2.4,0.2-2.8,0.3c-0.4,0.1-1.4,0.3-2.2,0.5c-0.8,0.1-1.7,0.4-2,0.6c-0.4,0.2-1.6,0.6-2.7,0.9s-2.3,0.7-2.6,0.8
		s-1,0.5-1.5,0.7c-1,0.4-3,2.1-3.2,2.6c0,0.1-0.4,0.5-0.8,0.7c-1,0.6-1.6,1.2-2.3,2.5c-0.4,0.6-0.7,1.3-0.8,1.4
		c-0.1,0.1-0.7,1.2-1.3,2.4c-0.8,1.6-1.2,2.4-1.3,3c-0.1,0.5-0.3,1.2-0.5,1.7c-0.2,0.5-0.4,1.1-0.5,1.5c-0.2,1.3-0.5,2.2-0.9,2.9
		c-0.2,0.4-0.4,0.9-0.4,1c0,0.3-0.4,1.4-0.8,2c-0.3,0.6-0.8,1.7-1.1,2.5c-0.2,0.5-0.6,1.5-1,2.2s-0.9,1.5-1.1,1.8s-0.6,0.9-0.9,1.3
		s-0.7,0.8-0.7,1.1c-0.2,0.6-1,1.9-1.6,2.5C64.2,76,64,76.3,64,76.6c0,0.4-0.4,1-1.1,1.7c-0.2,0.2-0.6,0.7-0.9,1.1
		c-0.3,0.5-0.6,0.7-0.9,0.8c-0.2,0.1-0.8,0.4-1.2,0.8c-0.6,0.6-0.7,0.8-0.5,0.9c0.1,0.1,1.7,0.5,3.4,1c2.1,0.5,3.3,0.9,3.6,1.1
		c0.2,0.2,0.7,0.3,1.6,0.5c0.7,0.1,1.5,0.2,1.7,0.4s0.6,0.2,0.8,0.2c0.4,0,4.1,0.7,4.8,0.9c0.3,0.1,1.2,0.1,2.2,0.1
		c0.9,0,2.1-0.1,2.6-0.1c0.5,0,1-0.1,1.1-0.2c0.1-0.1,0.7-0.3,1.4-0.4c0.8-0.2,1.4-0.5,2.1-0.9c0.5-0.4,1.1-0.7,1.3-0.8
		c0.4-0.1,1.5-1.1,2.1-1.8c0.3-0.4,1.4-1.4,2.4-2.3c2.4-2,2.4-2,2.7-1.9c0.4,0.2,0.5,0.9,0.1,2.2c-0.2,0.7-0.4,1.8-0.5,2.4
		c-0.3,1.7-0.5,2.4-2.1,5.7c-2,4.3-2.6,5.1-4.4,7.1c-0.8,0.8-3.3,2.7-4.9,3.6c-0.6,0.3-1.3,0.8-1.7,1.1c-0.8,0.7-1,0.8-3.5,1.6
		c-2.5,0.8-4.7,1.2-6.4,1c-0.7-0.1-1.6,0-2,0.1c-0.4,0.1-1.2,0.2-1.7,0.3c-1,0.1-1.6,0.5-1.4,0.8c0.2,0.2,2.2,1.1,3.5,1.5
		c0.6,0.2,1.5,0.5,1.9,0.7c1.2,0.6,2.6,0.8,5,0.8c2.2,0,2.2,0,2.5-0.4c0.3-0.5,0.5-0.5,1,0.1c0.3,0.4,0.5,0.5,1.1,0.5
		c0.4,0,1,0.1,1.5,0.1c0.4,0.1,1.2,0.1,1.8,0.1C83.3,107,84.9,106.9,86.3,106.9L86.3,106.9z M89.9,71.7c-1.3-0.3-1.9-0.6-2-1
		c-0.1-0.5-0.6-0.7-1.1-0.6c-0.8,0.2-1.6-0.8-2.6-3c-0.7-1.7-1-2.7-1-4.5c0-1.3,0-1.6,0.4-2.4c0.2-0.5,0.5-1.2,0.7-1.6
		c0.8-1.9,1.9-3.6,3.3-5c1.8-1.8,2.7-2.3,4.7-2.5c1.3-0.2,1.5-0.2,2.7,0.1c2.1,0.5,3.5,1.3,4.8,2.6c1.6,1.6,1.9,2.4,1.8,4.3
		c-0.1,0.6,0,0.6,0.5,0.7c0.5,0.1,0.6,0.1,0.7,0.8c0.1,0.5,0.2,1.3,0.1,2.4c-0.1,1.4-0.2,1.9-0.6,3.2c-0.3,0.9-0.7,1.7-0.8,1.9
		c-0.1,0.2-0.8,1-1.6,1.7c-1.2,1.2-1.4,1.4-1.9,1.4c-0.4,0-0.5,0.1-0.5,0.3c0,0.4-1.2,1-1.5,0.8c-0.2-0.1-0.5-0.1-0.9,0
		c-0.4,0.1-1,0.2-1.4,0.2c-0.4,0-0.8,0.1-0.8,0.1C92.6,71.9,90.6,71.9,89.9,71.7L89.9,71.7z M94.9,70.2c0.8-0.2,1.6-0.4,1.8-0.4
		c1.3-0.2,3.8-3.7,4-5.7c0.1-0.8-0.1-1.5-0.4-1.5c-0.1,0-0.7,0.4-1.2,1c-1.6,1.5-2.6,1.7-3.6,0.5c-0.3-0.4-0.4-0.6-0.4-1.2
		c0-1,0.2-2,0.6-2.9c0.3-0.7,0.3-0.8,0.1-1c-0.4-0.4-2.7-0.5-3.9-0.1c-2,0.6-3.1,1.4-5.3,4.3c-1.5,1.9-1.5,2.1-0.9,3.4
		c1,1.9,1.3,2.3,2.7,3c0.8,0.4,1.4,0.6,2.6,0.7C93.3,70.6,93.3,70.6,94.9,70.2L94.9,70.2z M69,60.4c0.1-0.4,0.4-1,0.5-1.3
		c0.5-1.2,1.4-4,1.4-4.1c-0.1-0.1-1.6,0.8-2.4,1.6c-1,1-1,1.2-0.6,3.2c0.1,0.6,0.3,1.1,0.3,1.2C68.4,61.3,68.7,61.1,69,60.4L69,60.4
		z M50.1,54.1C50,54,50,53.9,50.1,53.9s0.3,0.1,0.4,0.1c0.1,0.1,0.2,0.1,0.1,0.1S50.3,54.1,50.1,54.1z"/>
	<path id="path4140" inkscape:connector-curvature="0" class="st2" d="M85.2,113c-2.8-0.7-5.4-2-7-3.6c-0.4-0.4-0.9-0.7-1.1-0.8
		s-0.6-0.2-0.8-0.2c-0.7-0.3-2.5-0.5-3.3-0.5c-0.9,0-4.9-1-5.6-1.4c-0.3-0.2-1.2-0.6-2-1c-0.8-0.4-1.7-0.8-2-1
		c-0.5-0.3-0.7-0.3-2.8-0.3c-2.5,0.1-6.4-0.2-7-0.5c-0.2-0.1-0.9-0.3-1.4-0.4c-0.6-0.1-1.3-0.3-1.5-0.4c-0.3-0.1-0.9-0.3-1.4-0.4
		c-0.5-0.1-1.3-0.4-1.8-0.6c-0.4-0.2-0.9-0.4-1-0.4c-0.6,0-2.8-2.1-3.2-3.2c-0.1-0.3-0.3-0.5-0.5-0.6c-0.3-0.1-0.7-0.9-1.1-2.3
		c-0.2-0.8-0.3-1.5-0.3-2.7c0-1.4,0.1-1.8,0.5-3.2c0.7-2,1.6-3.6,3.1-5.1c1-1.1,1.3-1.3,3.3-2.3c2.4-1.2,4.3-1.8,6.4-2
		c0.9-0.1,1.5-0.2,2.1-0.5c2.9-1.5,5.6-4.5,8.9-10.1c2.5-4.1,2.4-3.4,1-6.9c-1.3-3.4-1.4-4-1-6.9c0.5-2.7,1.3-4.3,3.8-6.8
		c1.3-1.3,3.1-2.2,4.7-2.5c1.1-0.2,1.4-0.4,2.4-1.9c1.1-1.7,6.2-5.3,8.4-6c1.1-0.3,1.6-0.7,1.8-1.4c0.2-0.7,1-1.9,2.1-3.3
		c0.4-0.6,0.9-1.3,1.1-1.6c0.5-0.8,1.6-2.1,3.4-3.5c2-1.6,2.4-1.9,3.8-2.7c0.6-0.4,1.9-1,2.7-1.5s2.1-1,2.8-1.3s1.4-0.5,1.7-0.7
		c0.3-0.2,0.7-0.3,1.1-0.3c0.3,0,1.2-0.1,1.9-0.2s2-0.3,2.9-0.4s2-0.2,2.6-0.4c0.6-0.1,1.2-0.2,1.7-0.1c2.5,0.4,3.2,0.5,4.1,0.7
		c0.5,0.2,1.6,0.4,2.2,0.6c2.8,0.8,5.8,2.6,8.2,5c1.2,1.2,1.4,1.6,1.5,2.6c0.2,1.5-0.5,1.9-2.4,1.2c-0.8-0.3-1.2-0.3-2.8-0.2
		c-2.3,0.1-3.8,0.5-5.8,1.4c-1.3,0.6-2.5,1.5-2.5,1.9c0,0.1,0.4,0.6,0.9,1.2s1.3,1.6,1.7,2.4c1,1.6,2.7,3.4,3.9,4.1
		c0.5,0.3,1.3,0.8,1.9,1c1,0.4,2.2,1.2,3.8,2.3c0.3,0.2,0.9,0.6,1.5,1c2.5,1.6,8,8,9.2,10.5c0.3,0.6,0.5,1,0.7,0.9
		c0.1,0,0.5-0.5,0.9-1c2.6-3.6,7.9-9.3,10.9-11.6c1.5-1.2,3-2.1,3.2-2.1c0.4,0-0.1,2.3-1,4.9c-0.5,1.4-0.9,3.1-1.4,5.3
		c-0.8,3.7-2.5,11.1-3,13.4c-0.3,1.2-0.6,3.1-0.8,4.2c-0.3,2.5-0.6,4.1-1.4,8.4c-0.8,4.1-1,6.6-1.1,11.7c0,3.9-0.2,4.5-1.1,6
		c-0.5,0.9-0.7,0.9-1.1,0.4c-0.8-1.3-1.1-1.6-1.9-2.2c-0.5-0.3-1.3-0.8-1.7-1c-0.5-0.2-1.1-0.7-1.3-1.1c-0.5-0.6-1.1-2.2-1.4-3.1
		c-0.2-0.7-0.6-0.5-2,0.8c-1.1,1.1-2.6,2.4-4.1,3.4c-2.5,1.7-3.8,2.5-6.7,3.7c-0.7,0.3-0.9,0.5-0.9,0.7c0,0.3,0.2,0.4,1.5,0.8
		c1.4,0.4,2.7,1.1,3.3,1.7c0.5,0.5,2.1,2.6,2.1,2.9c0,0.1,0.2,1.4,0.5,2.7c0.7,3.7,0.6,3.8-2.3,4.1c-3,0.3-4.4-0.3-7.4-3.3
		c-1.1-1.1-1.7-1.9-2.8-3.6c-0.5-0.7-1.3-1.9-1.9-2.6l-0.3-0.4l-1,0.3c-0.6,0.1-2,0.7-3.2,1.3c-1.2,0.5-2.5,1.1-3,1.2
		s-1,0.3-1.2,0.4c-0.2,0.1-0.5,0.2-0.6,0.2s-0.7,0.1-1.2,0.3c-0.9,0.3-6.4,1.3-8.7,1.5c-1.2,0.1-1.3,0.2-4.5,1
		c-1.2,0.3-2.5,0.6-2.9,0.6c-1,0-3,0.5-3.1,0.7c0,0.1,0.2,0.7,0.5,1.2s0.5,1.2,0.5,1.4c0,0.6-0.7,1.9-1.1,2.2
		C87.6,113.5,87.3,113.5,85.2,113L85.2,113z M87.5,112.5c0.2-0.1,0.4-0.4,0.5-0.6c0.2-0.4,0.2-0.6,0-1.5c-0.2-0.8-0.4-1.1-0.9-1.6
		c-0.7-0.7-1.3-0.8-2.2-0.5c-0.9,0.3-3.9,0.5-4.6,0.2c-0.6-0.2-1.2-0.1-1.2,0.2c0,0.3,1.7,1.7,2.4,2c0.3,0.1,1,0.4,1.6,0.6
		c0.6,0.2,1.6,0.6,2.2,0.8C86.6,112.7,87.1,112.7,87.5,112.5L87.5,112.5z M131,109.8c0.3,0,0.7-0.1,0.8-0.1c0.2-0.2,0.1-1.2-0.3-2.5
		c-0.1-0.5-0.4-1.3-0.5-1.7c-0.3-1.3-1.2-2.9-2.1-3.7c-1.1-1-1.5-1.2-2.8-1.3c-0.6-0.1-1.4-0.3-1.7-0.4c-0.4-0.2-1.1-0.3-2.3-0.3
		c-1.8,0-2.2,0.1-2.7,0.6c-0.3,0.3-0.3,0.3,0.5,1.7c0.6,1.1,1.3,2,2.8,3.7c1.1,1.3,2.4,2.5,2.8,2.8c0.4,0.3,1,0.7,1.2,0.8
		c0.4,0.3,1.8,0.5,2.9,0.4C130,109.9,130.6,109.8,131,109.8L131,109.8z M86.4,107.2c2.2-0.1,2.7-0.1,3-0.3c0.2-0.2,0.7-0.3,1.9-0.3
		c1.3-0.1,1.8-0.2,2.5-0.5c0.5-0.2,1-0.4,1.2-0.4c0.4,0,3.8-0.6,4.3-0.7c0.7-0.2,2-0.3,2.5-0.2c0.4,0.1,0.7,0.1,0.9-0.1
		c0.2-0.1,1.3-0.3,2.3-0.5c1.9-0.2,4.4-1,5.2-1.5c0.2-0.1,0.5-0.2,0.6-0.2c0.4,0,2.5-0.6,3.9-1.2c0.7-0.3,1.4-0.5,1.5-0.5
		c0.2,0,0.5-0.2,0.7-0.4c0.6-0.6,2.7-1.3,3.9-1.4c1.3-0.1,2.4-0.5,3.9-1.3c0.6-0.3,1.5-0.7,1.9-0.9c1.1-0.3,4.6-2.2,5.1-2.6
		c0.2-0.2,0.6-0.5,0.9-0.7s0.8-0.6,1.2-0.9c0.4-0.3,1-0.8,1.4-1.1c0.8-0.6,0.7-0.5,1.8-1.8c0.5-0.7,0.9-1,1.2-1
		c0.3-0.1,0.5-0.2,0.5-0.4c0-0.2,0.1-0.3,0.1-0.2c0.1,0,0.2,0.7,0.2,1.4c0.1,0.8,0.2,1.6,0.4,2c0.5,1.1,1.9,2.4,2.9,2.7
		c0.2,0.1,1,0.7,1.7,1.3c0.7,0.7,1.3,1.2,1.4,1.2c0.3,0,0.6-1.5,0.7-2.7c0-0.8,0.1-1.4,0.1-1.5c0-0.1,0.1-0.5,0.1-1
		c0-0.5,0.1-1.9,0.2-3.2c0.1-1.3,0.1-2.8,0.1-3.4c-0.1-0.8,0-1.1,0.2-1.6c0.2-0.5,0.3-1,0.4-3c0.1-3.2,0.4-5,1.8-10.5
		c0.2-0.7,0.3-1.8,0.4-2.3c0-0.5,0.1-1.5,0.3-2.1c0.1-0.6,0.3-1.6,0.3-2.2c0.1-1.2,0.9-4.6,1.6-7.1c0.3-0.9,0.7-2.7,0.9-4
		c0.4-2,0.8-3.5,1.5-5.9c0.1-0.4-0.2-0.3-1.1,0.2c-1.3,0.8-2.1,1.5-3.5,3.2c-0.7,0.9-1.8,2-2.3,2.4c-0.5,0.4-1.2,1-1.6,1.3
		c-0.7,0.6-2.8,3.4-4.2,5.6c-0.5,0.9-1.3,1.8-1.6,2.1l-0.6,0.5l0.1-0.8c0.1-0.7,0-0.9-0.2-1.2c-0.2-0.2-0.4-0.7-0.5-1
		c-0.1-0.3-0.5-1.1-0.9-1.8c-0.4-0.6-0.7-1.2-0.7-1.3c0-0.2-1-1.6-2-2.8c-1.6-1.9-3.9-4-5.7-5.3c-1.5-1-2.1-1.4-4.7-2.8
		c-1.5-0.8-3.1-1.6-3.5-1.9S120.3,42,120,42c-0.7-0.1-2.7-1.1-3.5-1.7c-0.5-0.4-1.9-0.9-2.5-0.9c-0.2,0-0.6-0.1-0.9-0.2
		c-0.3-0.1-1.7-0.4-3-0.6c-2.8-0.4-8.7-0.7-10.1-0.4c-0.5,0.1-1.6,0.2-2.5,0.2c-2.4,0.1-5.7,0.8-7.6,1.7c-0.5,0.2-1.6,0.6-2.5,0.8
		c-2.7,0.7-4.3,1.5-6.2,3.1c-2.1,1.8-3.2,2.8-3.6,3.5c-0.2,0.3-0.5,0.8-0.7,1.1c-0.2,0.3-0.5,0.8-0.7,1.2c-0.1,0.4-0.7,1.4-1.2,2.4
		c-1,1.9-1.2,2.5-1.6,4c-0.1,0.6-0.3,1.2-0.4,1.4c-0.1,0.2-0.2,0.7-0.3,1.1c-0.1,0.8-0.6,2.1-1,2.7c-0.2,0.2-0.3,0.5-0.3,0.7
		c0,0.2-0.2,0.8-0.5,1.4c-0.3,0.6-0.5,1.2-0.5,1.4s-0.1,0.4-0.1,0.4c-0.1,0.1-0.3,0.7-0.6,1.4c-0.4,1.3-1.7,3.5-2.9,5.1
		c-0.4,0.5-0.7,1-0.7,1.1c0,0.3-1,1.9-1.5,2.5c-0.2,0.2-0.6,0.9-0.9,1.4c-0.4,0.7-0.7,1.2-1.6,1.9c-2.1,1.8-2.7,2.2-3.6,2.4
		c-0.5,0.1-0.9,0.4-1.1,0.6c-0.2,0.2-0.4,0.4-0.5,0.4c-0.1,0-0.5,0.1-0.8,0.3s-1.2,0.5-1.9,0.6c-0.7,0.2-1.7,0.4-2.2,0.6
		c-0.5,0.2-1.1,0.3-1.3,0.3c-1,0-1.8,0.7-3.1,2.8c-1.3,1.9-1.8,3-2,4.5c-0.1,0.7-0.4,1.6-0.5,1.9c-0.1,0.3-0.2,1.2-0.2,1.9
		c0,1.8,0.3,2.4,1.9,4.1c1.2,1.3,1.8,1.6,2.7,1.6c0.2,0,1.1,0.4,2,0.8c1.3,0.6,1.8,0.8,2.9,0.9c0.7,0.1,1.7,0.3,2.2,0.4
		c0.7,0.2,1.6,0.3,4,0.3c3,0,3.1,0,3.5,0.3c0.7,0.6,3,1.7,4.2,2c0.6,0.2,1.4,0.5,1.8,0.7c1.3,0.6,2.6,0.9,5.1,0.9
		c2.4,0,2.6-0.1,2.9-0.6c0.1-0.1,0.2,0,0.5,0.3c0.4,0.5,0.5,0.5,1.3,0.5c0.5,0,1.1,0.1,1.3,0.1c0.3,0.1,1,0.1,1.6,0.1
		C83.2,107.3,84.9,107.2,86.4,107.2L86.4,107.2z M90.2,71.5c-0.3-0.1-0.3-0.1,0-0.3c0.3-0.2,0.2-0.5-0.2-0.5c-0.1,0-0.2,0.1-0.2,0.3
		c0,0.3-0.1,0.4-1,0.1c-0.4-0.1-0.6-0.2-0.6-0.5c0-0.5-0.9-0.9-1.5-0.8c-0.4,0.1-0.6,0-1-0.4c-1.2-1.2-2.3-4.5-2.3-6.8
		c0-1.3,0-1.5,0.6-3c1.1-2.7,2.2-4.4,3.5-5.7c1.6-1.6,2.3-2,3.6-2.3c2.1-0.5,4.2-0.2,6.4,0.9c2.4,1.3,4.3,3.9,3.7,5.2
		c-0.3,0.7-0.2,1.5,0.3,1.5c0.2,0,0.4,0,0.5,0c0.3,0,0.5,0.9,0.5,2.3c0,1.4-0.5,3.7-1.1,5c-0.3,0.7-1.5,2.1-1.8,2.1
		c-0.1,0-0.2,0.2-0.3,0.3c-0.1,0.4-1.4,1.3-1.9,1.3c-0.2,0-0.3,0.1-0.3,0.3c0,0.4-0.8,0.8-1.2,0.6c-0.2-0.1-0.4-0.1-0.6,0
		c-0.2,0.1-0.8,0.2-1.4,0.2c-0.6,0-1.1,0.1-1.2,0.2C92.7,71.6,90.7,71.6,90.2,71.5L90.2,71.5z M93.8,70.7c0.3-0.1,2-0.5,3-0.7
		c0.5-0.1,1.7-1.2,2.3-2.1c0.3-0.4,0.8-1.4,1.2-2.1c0.6-1.2,0.6-1.3,0.6-2.1c-0.2-1.5-0.8-2-1.4-1c-0.4,0.6-1.6,1.6-2.3,1.8
		c-0.4,0.1-0.6,0.1-1.1-0.2c-0.3-0.2-0.7-0.5-0.7-0.6c-0.4-0.9-0.1-2.7,0.5-4c0.3-0.7,0.4-0.8,0.2-1c-0.9-0.6-3.3-0.7-4.7-0.2
		c-1.8,0.6-2.9,1.6-5,4.2c-1.2,1.6-1.4,1.9-1.4,2.4c0,0.3,0.6,1.6,1.1,2.6c0.7,1.3,2.5,2.2,4.6,2.5c0.8,0.1,1.6,0.3,1.7,0.4
		C92.6,71,93,70.9,93.8,70.7z M101.2,66.5c0.1-0.2,0.1-0.3,0-0.4c-0.3-0.2-0.6,0.1-0.5,0.4C100.8,66.7,101,66.7,101.2,66.5
		L101.2,66.5z M85.9,61.9c0.9-1.4,3.1-3.6,3.9-4c1.8-0.8,2.7-1,4.7-0.9c1.3,0,2,0.1,2.2,0.2c0.1,0.1,0.4,0.2,0.7,0.2
		c0.3,0,0.7,0.1,0.9,0.3c0.5,0.5,1.7,1.2,1.9,1.2c0.1,0,0.2-0.1,0.2-0.2c0-0.3-0.9-2.1-1-2.1c-0.1,0-0.3-0.3-0.6-0.7
		c-0.9-1.5-2.9-2.6-5.2-3c-0.8-0.1-1.1-0.1-1.5,0.1c-0.3,0.1-0.8,0.3-1.1,0.4c-1.2,0.4-3.2,2.1-3.9,3.4c-0.2,0.4-0.7,1.3-1,1.8
		c-0.3,0.5-0.7,1.3-0.8,1.7c-0.1,0.4-0.2,0.9-0.3,1.1c-0.1,0.2-0.2,0.6-0.2,1c-0.1,0.5-0.1,0.6,0.2,0.5
		C85.2,62.9,85.6,62.5,85.9,61.9z M69.4,60.1c0.2-0.5,0.6-1.8,1-2.9c0.8-2.3,0.9-2.6,0.7-2.6c-0.4,0-1.9,1-2.7,1.8
		c-0.7,0.7-0.9,0.9-1,1.5c-0.1,0.4,0,0.8,0,1c0.1,0.2,0.2,0.7,0.3,1.1c0.1,0.5,0.2,1,0.4,1.2c0.3,0.3,0.3,0.3,0.6,0.1
		C68.9,61.2,69.2,60.7,69.4,60.1z M69.2,54.3c0.4-0.3,0.9-0.6,1.1-0.8s0.6-0.4,1-0.6c0.4-0.2,0.8-0.4,0.9-0.6
		c0.4-0.4,1.4-2.5,1.3-2.6c-0.1-0.1-1.6,0.2-2.4,0.6c-0.5,0.2-0.7,0.4-0.7,0.7c0,0.2-0.4,0.7-0.7,1c-0.3,0.3-0.7,0.8-0.8,1.1
		s-0.4,0.6-0.5,0.9c-0.2,0.2-0.3,0.5-0.2,0.6C68.3,54.9,68.3,54.9,69.2,54.3L69.2,54.3z M115.6,37.1c0.1-0.1-0.3-0.7-0.7-1.3
		c-0.7-1-0.8-1.3-0.8-1.8c0-0.5,0.2-0.8,1.1-1.7c0.6-0.6,1.4-1.3,1.7-1.5c0.4-0.2,1-0.7,1.4-1c1.4-1.2,3.3-1.8,5.7-2
		c0.7-0.1,1.4-0.2,1.4-0.2c0-0.2-0.6-0.6-1.2-0.8c-0.3-0.1-0.7-0.3-0.8-0.4c-0.1-0.1-1.1-0.5-2.1-0.9l-1.8-0.7l-3.7-0.1
		c-3.7-0.1-3.7-0.1-5.5,0.3c-2.2,0.5-5.1,1.4-5.8,1.8c-0.3,0.2-0.6,0.3-0.7,0.3c-0.4,0-6.4,3-7,3.6c-0.4,0.3-0.9,0.7-1.2,0.9
		c-0.7,0.4-5.4,5.1-5.4,5.3c0,0.2,0.6,0.2,1.5,0c0.3-0.1,1.4-0.2,2.3-0.3c0.9-0.1,2.2-0.3,2.8-0.5c2.1-0.6,7.2-0.9,10-0.6
		c2.9,0.3,6.3,0.9,7.4,1.3C115.2,37.3,115.4,37.4,115.6,37.1L115.6,37.1z"/>
	
		<path id="path4144-9" inkscape:connector-curvature="0" sodipodi:nodetypes="ssssssssssssssscsscssccsssssssssssssssscssssssssssssssssssssssssssssccsccsscccsssssssssscss" class="st3" d="
		M53.1,67.1c-0.1-0.1-0.4-0.4-0.7-0.5c-0.5-0.2-0.7-0.4-0.8-0.9c-0.1-0.4-0.4-0.8-0.5-1.1c-0.6-0.7-0.7-1.2-0.3-2.4
		c0.5-1.4,0.9-1.9,2-2.5c0.7-0.4,1-0.4,1.6-0.3c1.4,0.2,2.2,1,2.8,2.6c0.6,1.7,0.4,2.7-0.8,3.7C54.5,67.2,53.4,67.6,53.1,67.1
		L53.1,67.1z M53.3,63.2c0.2-0.1,0.7-0.3,1.2-0.3c1-0.1,1.1-0.1,0.9-0.7c-0.5-1.3-2.5-1.4-3.1-0.2C51.7,63.2,52.3,63.9,53.3,63.2
		L53.3,63.2z M57.8,56.8c-1.1-1.1-1.3-2.9-0.4-4c1.2-1.6,2.9-1.2,4,0.9c0.3,0.6,0.3,1.1,0,1.8c-0.1,0.2-0.2,0.5-0.3,0.7
		c-0.2,0.6-0.8,0.9-1.8,1C58.4,57.3,58.3,57.3,57.8,56.8L57.8,56.8z M58.8,54.5c0.5-0.3,0.7-0.7,0.5-1.2c-0.1-0.4-0.5-0.4-1.2-0.1
		c-0.5,0.3-0.7,0.7-0.5,1.1C57.9,54.7,58.2,54.8,58.8,54.5L58.8,54.5z M47.6,56.6c-0.7-0.3-1.4-0.9-1.4-1.2c0-0.1-0.2-0.5-0.4-0.9
		c-0.8-1.6-0.5-3.4,0.9-4.4c0.6-0.4,0.7-0.5,1.3-0.4c1,0.2,2.3,0.9,2.7,1.6c1,1.4,1,3.2,0.1,4.4C50.1,56.8,48.9,57.1,47.6,56.6z
		 M48.3,53.2c0.4-0.3,0.4-0.4,0.3-0.8c-0.4-1.2-1.8-0.7-1.8,0.6c0,0.2,0,0.4,0.1,0.5C47.1,53.7,47.9,53.6,48.3,53.2z M53.2,49.6
		c-1-0.3-3.1-1.5-4-2.4c-0.8-0.7-1-1.2-1.9-3.5c-0.4-0.9-0.4-1.2-0.3-2.8c0.1-1.5,0.1-2,0.4-2.5c1.1-2.1,4.2-3.7,6.4-3.3
		c1.2,0.2,2.3,0.9,3.5,2.1c0.8,0.8,1.2,1.3,1.4,1.9c0.2,0.4,0.4,0.9,0.5,1.2c0.1,0.2,0.2,1,0.3,1.9c0.2,3.1-1,5.8-3.3,7.2
		C55.2,49.7,54.2,49.8,53.2,49.6z M51.7,42.3c0.3-0.3,0.6-0.9,0.8-1.2c0.5-0.9,0.8-1.2,1.6-1.5c0.9-0.4,0.9-0.7-0.1-0.9
		c-1-0.3-1.6-0.3-2,0c-0.6,0.3-1.6,1.6-1.5,1.9c0.1,0.1,0,0.5-0.2,0.7c-0.3,0.6-0.2,1.3,0.3,1.8c0.3,0.3,0.4,0.3,0.5,0.1
		C51.1,43.1,51.4,42.7,51.7,42.3L51.7,42.3z M60.3,47c-0.4-0.3-0.6-1-0.3-1.3c0.3-0.4,0.9-0.4,1.3,0.1c0.4,0.5,0.4,0.9,0.1,1.2
		C61,47.2,60.6,47.2,60.3,47L60.3,47z M44.3,41.2c-0.4-0.4-0.4-1.2,0-1.4c0.8-0.4,1.9,0.4,1.6,1.2C45.7,41.5,44.8,41.6,44.3,41.2
		L44.3,41.2z M42,33c-0.5-0.3-1.2-0.9-1.7-1.4c-0.9-0.9-0.9-0.8-1.1-3.1c-0.1-0.5,0-1,0.1-1.1c0.1-0.1,0.2-0.4,0.3-0.8
		c0.2-0.9,0.6-1.4,1.4-1.8c0.9-0.4,1.8-0.4,2.8,0.1c1.1,0.6,2.3,2,2.5,3c0,0.3,0.2,0.7,0.2,1.1c0.7,2.5-0.6,4.4-2.8,4.4
		C43,33.4,42.6,33.3,42,33L42,33z M43.5,27.7c0.4-0.1,0.7-0.3,0.6-0.4c-0.2-0.3-1.3-0.8-1.8-0.7c-0.7,0.1-1.1,0.7-1.2,1.9l-0.1,1
		l0.9-0.8C42.4,28.3,43.1,27.8,43.5,27.7z"/>
</g>
</svg>
