<?xml version="1.0" encoding="utf-8"?>
<!-- Generator: Adobe Illustrator 22.1.0, SVG Export Plug-In . SVG Version: 6.00 Build 0)  -->
<svg version="1.1"
	 id="svg3793" inkscape:export-filename="/Users/jgillanders/Development/Games/Colibrium/Pictures/Blowfish-happy.png" inkscape:export-xdpi="196.09" inkscape:export-ydpi="196.09" inkscape:version="0.91 r13725" sodipodi:docname="Blowfish-happy.svg" xmlns:cc="http://creativecommons.org/ns#" xmlns:dc="http://purl.org/dc/elements/1.1/" xmlns:inkscape="http://www.inkscape.org/namespaces/inkscape" xmlns:rdf="http://www.w3.org/1999/02/22-rdf-syntax-ns#" xmlns:sodipodi="http://sodipodi.sourceforge.net/DTD/sodipodi-0.dtd" xmlns:svg="http://www.w3.org/2000/svg"
	 xmlns="http://www.w3.org/2000/svg" xmlns:xlink="http://www.w3.org/1999/xlink" x="0px" y="0px" viewBox="0 0 125 125"
	 style="enable-background:new 0 0 125 125;" xml:space="preserve">
<style type="text/css">
	.st0{fill:url(#path3877_1_);stroke:#154E73;stroke-width:0.75;stroke-linecap:round;stroke-linejoin:round;}
	.st1{filter:url(#filter5067);}
	.st2{fill:none;stroke:#154E73;stroke-width:0.75;stroke-linecap:round;stroke-linejoin:round;}
	.st3{fill:#618CA8;stroke:#154E73;stroke-width:0.75;stroke-linecap:round;stroke-linejoin:round;}
	.st4{filter:url(#filter4998);}
	.st5{fill:none;stroke:#154E73;stroke-width:0.75;}
	.st6{opacity:0.8833;filter:url(#filter4629);}
	.st7{fill:#487E9B;stroke:#487E9B;stroke-width:0.75;}
	.st8{fill:#FFFFFF;stroke:#000000;stroke-width:0.75;stroke-linecap:round;}
	.st9{filter:url(#filter3301);}
	.st10{fill:url(#SVGID_1_);}
	.st11{fill:none;stroke:#000000;stroke-width:0.75;stroke-linecap:round;}
	.st12{fill:url(#SVGID_2_);}
	.st13{fill:url(#SVGID_3_);}
	.st14{stroke:#000000;stroke-width:0.75;stroke-linecap:round;}
	.st15{stroke:#000000;stroke-width:0.75;}
	.st16{filter:url(#filter3405);}
	.st17{fill:#FFFFFF;}
	.st18{fill:url(#SVGID_4_);}
	.st19{fill:url(#SVGID_5_);}
	.st20{fill:url(#SVGID_6_);}
</style>
<filter  color-interpolation-filters="sRGB" id="filter5067">
	<feGaussianBlur  id="feGaussianBlur5069" stdDeviation="1.9881496"></feGaussianBlur>
</filter>
<filter  color-interpolation-filters="sRGB" id="filter4998">
	<feGaussianBlur  id="feGaussianBlur5000" stdDeviation="1.0500536"></feGaussianBlur>
</filter>
<filter  color-interpolation-filters="sRGB" id="filter4629">
	<feGaussianBlur  id="feGaussianBlur4631" stdDeviation="3.6784172"></feGaussianBlur>
</filter>
<filter  height="1.453" id="filter3405" inkscape:collect="always" width="1.4362" x="-.21811" y="-.22650">
	<feGaussianBlur  id="feGaussianBlur3407" inkscape:collect="always" stdDeviation="0.61965375"></feGaussianBlur>
</filter>
<filter  height="1.2351" id="filter3301" inkscape:collect="always" width="1.2316" x="-.11580" y="-.11755">
	<feGaussianBlur  id="feGaussianBlur3303" inkscape:collect="always" stdDeviation="1.6419579"></feGaussianBlur>
</filter>
<sodipodi:namedview  bordercolor="#666666" borderopacity="1" fit-margin-bottom="0" fit-margin-left="0" fit-margin-right="0" fit-margin-top="0" gridtolerance="10" guidetolerance="10" id="namedview5350" inkscape:current-layer="g4070" inkscape:cx="406.85081" inkscape:cy="590.51282" inkscape:pageopacity="0" inkscape:pageshadow="2" inkscape:window-height="815" inkscape:window-maximized="1" inkscape:window-width="1440" inkscape:window-x="0" inkscape:window-y="1" inkscape:zoom="0.46939854" objecttolerance="10" pagecolor="#ffffff" showgrid="false">
	</sodipodi:namedview>
<g id="g4070">
	<g id="g4971">
		
			<radialGradient id="path3877_1_" cx="37.0614" cy="-319.5279" r="70.5462" gradientTransform="matrix(1.1588 -0.6777 -0.5679 -0.9711 -180.923 -191.9149)" gradientUnits="userSpaceOnUse">
			<stop  offset="0" style="stop-color:#FFFFFF"/>
			<stop  offset="1" style="stop-color:#50ADCB"/>
		</radialGradient>
		<path id="path3877" inkscape:connector-curvature="0" class="st0" d="M58.4,18.5c12.2-3.1,49.5,11.5,45.4,48.3
			c-4.6,37.6-32,38.9-37.4,39.7C19,104.9,15.3,69.3,15.7,65.2C14.9,59.7,22.2,26,58.4,18.5L58.4,18.5z"/>
		<g id="path3879" inkscape:connector-curvature="0" class="st1">
			<path class="st2" d="M91.3,37.7c5.4,5.2,6,12.5,5.9,19.7"/>
		</g>
		<path id="path4438" inkscape:connector-curvature="0" class="st2" d="M44.4,22.9c-1.1-2.4-3.9-3.7-6.5-3.8
			c-1.2-0.8-1.4,0.8-1.1,1.6c-0.5,0.1-2.5-0.9-1.1,1.4c-0.4,0-2.9-0.4-0.8,1.4c-0.9,0.3-1.7,0.6-0.3,1.8c-0.9,1-0.8,1.6,0,1.8
			c-0.4,0.7-0.9,1.4,0,1.4c-0.8,0.8-0.3,0.9,0.1,1.1C37.4,27.2,39.8,24.6,44.4,22.9L44.4,22.9z"/>
		<path id="path5037" inkscape:connector-curvature="0" class="st3" d="M23.6,40.6c-1.4,0.2-2.8,0.5-4.2,0.9
			c-0.5,0.1-0.6,0.6-0.3,0.9c0.5,1.2,0.9,2.5,1.5,3.7c0.5,0.4,0.8-0.4,1-0.8c0.8-1.4,1.6-2.8,2.5-4.2C24.2,40.9,23.9,40.5,23.6,40.6
			L23.6,40.6z"/>
		<path id="path5015" inkscape:connector-curvature="0" class="st3" d="M78.6,18.1c-1.7,0.5-3.4,1-5.1,1.6c-0.5,0.2-0.3,0.8,0.1,0.9
			c2,0.8,4,1.6,6,2.6c0.4,0.2,0.8-0.3,0.5-0.7c-0.4-1.4-0.7-2.8-1.1-4.2C79,18.1,78.8,18,78.6,18.1L78.6,18.1z"/>
		<g id="path4454" inkscape:connector-curvature="0" class="st4">
			<polyline class="st2" points="56.9,26.3 56.6,23.2 60.7,26.2 			"/>
		</g>
		<g id="path4456" inkscape:connector-curvature="0" class="st4">
			<polyline class="st2" points="68.3,28.1 72,27.2 72.8,29.7 			"/>
		</g>
		<g id="path4458" inkscape:connector-curvature="0" class="st4">
			<polyline class="st2" points="80.7,29.7 85.7,29.4 85.7,32.6 			"/>
		</g>
		<g id="path4464" inkscape:connector-curvature="0" class="st4">
			<polyline class="st2" points="36.7,37.1 31.9,37.4 35,41.4 			"/>
		</g>
		<g id="path4466" inkscape:connector-curvature="0" class="st4">
			<polyline class="st2" points="32.2,44.9 27.8,44.5 30,48.7 			"/>
		</g>
		<g id="path4472" inkscape:connector-curvature="0" class="st4">
			<polyline class="st2" points="26.3,54.8 23,57.7 26.5,58.7 			"/>
		</g>
		<g id="path4474" inkscape:connector-curvature="0" class="st4">
			<polyline class="st2" points="40.6,49.4 37.5,50.6 40.9,51.9 			"/>
		</g>
		<g id="path4476" inkscape:connector-curvature="0" class="st4">
			<polyline class="st2" points="46.8,53.3 44.9,55.1 47.8,56.4 			"/>
		</g>
		<g id="path4478" inkscape:connector-curvature="0" class="st4">
			<polyline class="st2" points="40.4,58.2 35,59.2 38.2,61 			"/>
		</g>
		<g id="path4480" inkscape:connector-curvature="0" class="st4">
			<polyline class="st2" points="71.7,59 76.5,59.6 74.2,62 			"/>
		</g>
		<g id="path4482" inkscape:connector-curvature="0" class="st4">
			<polyline class="st2" points="83.6,52.3 87.4,53.8 85.1,55.7 			"/>
		</g>
		<g id="path4484" inkscape:connector-curvature="0" class="st4">
			<polyline class="st2" points="96.8,58.8 99.5,61.9 97,63.6 			"/>
		</g>
		<g id="path4488" inkscape:connector-curvature="0" class="st4">
			<polyline class="st2" points="91,63.6 94.2,65.8 92.1,67.1 			"/>
		</g>
		<g id="path4490" inkscape:connector-curvature="0" class="st4">
			<polyline class="st2" points="74.1,70.8 77.5,72.5 74.8,73.9 			"/>
		</g>
		<g id="path4492" inkscape:connector-curvature="0" class="st4">
			<polyline class="st2" points="62.7,58.5 65.8,60.7 62.7,61.1 			"/>
		</g>
		<g id="path4494" inkscape:connector-curvature="0" class="st4">
			<polyline class="st2" points="48,62.8 49.2,66.5 51.8,64.1 			"/>
		</g>
		<g id="path4496" inkscape:connector-curvature="0" class="st4">
			<polyline class="st2" points="59.7,67.4 63.1,71 62.9,66.7 			"/>
		</g>
		<g id="path4498" inkscape:connector-curvature="0" class="st4">
			<polyline class="st2" points="24.7,66 22.9,70.5 27.1,69.3 			"/>
		</g>
		<g id="path4500" inkscape:connector-curvature="0" class="st4">
			<polyline class="st2" points="35.8,67 34.4,70.6 38.4,68.9 			"/>
		</g>
		<g id="path4502" inkscape:connector-curvature="0" class="st4">
			<polyline class="st2" points="47.1,76 46.8,80.1 49.7,77.2 			"/>
		</g>
		<g id="path4504" inkscape:connector-curvature="0" class="st4">
			<polyline class="st2" points="54.8,75.1 58.4,78.7 60,75.3 			"/>
		</g>
		<g id="path4506" inkscape:connector-curvature="0" class="st4">
			<polyline class="st2" points="62.2,81.3 66.3,84.8 66.2,81.1 			"/>
		</g>
		<g id="path4508" inkscape:connector-curvature="0" class="st4">
			<polyline class="st2" points="68.5,76.2 72.4,79.1 73.5,76.8 			"/>
		</g>
		<g id="path4510" inkscape:connector-curvature="0" class="st4">
			<polyline class="st2" points="91,74.7 91.7,79.7 87.4,79 			"/>
		</g>
		<g id="path4512" inkscape:connector-curvature="0" class="st4">
			<polyline class="st2" points="95.9,71.5 99.9,74.9 96.3,77.3 			"/>
		</g>
		<g id="path4518" inkscape:connector-curvature="0" class="st4">
			<polyline class="st2" points="91.9,84.9 94.3,87.9 90,90.3 			"/>
		</g>
		<g id="path4520" inkscape:connector-curvature="0" class="st4">
			<polyline class="st2" points="83.7,84.7 85.7,87.6 81.4,88.3 			"/>
		</g>
		<g id="path4522" inkscape:connector-curvature="0" class="st4">
			<polyline class="st2" points="80.2,93.6 81.8,98.7 77.8,98.3 			"/>
		</g>
		<g id="path4524" inkscape:connector-curvature="0" class="st4">
			<polyline class="st2" points="73.4,94.7 69.6,99.8 67.7,96.9 			"/>
		</g>
		<g id="path4526" inkscape:connector-curvature="0" class="st4">
			<polyline class="st2" points="58.9,94.8 54.6,98.5 52.7,94.2 			"/>
		</g>
		<g id="path4528" inkscape:connector-curvature="0" class="st4">
			<polyline class="st2" points="51.2,84.7 54.6,89.3 55.5,86.9 			"/>
		</g>
		<g id="path4530" inkscape:connector-curvature="0" class="st4">
			<polyline class="st2" points="38.5,87.5 36.8,91.8 42.7,91.8 			"/>
		</g>
		<g id="path4532" inkscape:connector-curvature="0" class="st4">
			<polyline class="st2" points="30.1,77.5 28,81.3 31.9,80.9 			"/>
		</g>
		<path id="path5007" inkscape:connector-curvature="0" class="st3" d="M37.2,18.9c-0.8,0.1-0.8,1.1-0.6,1.7c-0.5,0-1.2-0.3-1.5,0.3
			c-0.1,0.4,0.3,0.8,0.3,1.1c-0.5,0-1.2-0.2-1.3,0.5c-0.1,0.5,0.4,0.7,0.6,1.1c-0.5,0.2-1.2,0.6-0.8,1.1c0.1,0.3,0.5,0.5,0.5,0.7
			c-0.3,0.4-0.8,1.1-0.3,1.6c0.1,0.1,0.4,0.1,0.2,0.3c-0.2,0.4-0.5,1,0,1.3c0.2,0.1,0.2,0.5,0.5,0.5c0.6,0.2,1-0.5,1.4-0.8
			c2.2-2,4.6-4,7.5-5.1c0.5-0.1,0.8-0.7,0.4-1.1c-0.9-1.4-2.4-2.3-3.9-2.8c-0.8-0.3-1.6-0.3-2.4-0.4C37.7,18.9,37.5,18.8,37.2,18.9
			L37.2,18.9z"/>
		<path id="path5035" inkscape:connector-curvature="0" class="st3" d="M16.4,55.6c-1.1,0.1-2.3,0.3-3.4,0.4c-0.6,0.2-0.2,0.8,0,1.1
			c0.7,1.2,1.4,2.6,2.2,3.8c0.3,0.4,0.8,0,0.8-0.4c0.3-1.5,0.7-3,1.1-4.5C17.1,55.6,16.7,55.5,16.4,55.6L16.4,55.6z"/>
		<path id="path5033" inkscape:connector-curvature="0" class="st3" d="M15.9,71.1c-0.5,0.1-0.5,0.8-0.7,1.2
			c-0.4,1.1-0.8,2.3-1.1,3.4c0.1,0.5,0.9,0.6,1.3,0.9c0.8,0.4,1.5,0.9,2.3,1.1c0.5,0.1,0.5-0.6,0.3-0.9c-0.7-1.8-1.1-3.6-1.6-5.4
			C16.3,71.3,16.1,71.1,15.9,71.1L15.9,71.1z"/>
		<path id="path5011" inkscape:connector-curvature="0" class="st3" d="M49.9,16.2c-0.6,0.2-0.3,1-0.3,1.5c0.1,0.9,0.1,1.8,0.2,2.7
			c0.4,0.5,1.1,0,1.5-0.1c0.7-0.2,1.4-0.4,2-0.7c0.4-0.5-0.4-0.9-0.7-1.2c-0.8-0.7-1.6-1.5-2.5-2.2C50.1,16.2,50,16.2,49.9,16.2
			L49.9,16.2z"/>
		<path id="path5013" inkscape:connector-curvature="0" class="st3" d="M65.6,14.9c-1.3,0.8-2.7,1.6-3.9,2.5
			c-0.3,0.4,0.2,0.8,0.6,0.7c1.6,0,3.2,0.2,4.8,0.5c0.5,0,0.5-0.6,0.3-0.9c-0.4-0.9-0.8-1.8-1.4-2.7C65.9,14.8,65.8,14.9,65.6,14.9
			L65.6,14.9z"/>
		<path id="path5017" inkscape:connector-curvature="0" class="st3" d="M93.3,26.7c-1.7,0.3-3.4,0.6-5,1c-0.5,0.3,0,0.9,0.3,1.1
			c1.3,1.1,2.5,2.2,3.7,3.3c0.3,0.3,0.8-0.1,0.7-0.5c0.2-1.5,0.5-3,0.7-4.6C93.7,26.8,93.5,26.7,93.3,26.7L93.3,26.7z"/>
		<path id="path5019" inkscape:connector-curvature="0" class="st3" d="M104.4,61.7c-0.3,0.5-0.2,1.2-0.3,1.8c0,1.1-0.2,2.3-0.2,3.4
			c0.2,0.5,0.8,0.3,1.1,0c0.8-0.6,1.8-1.1,2.5-1.8c0.2-0.5-0.4-0.8-0.7-1.2c-0.6-0.8-1.2-1.6-1.9-2.2
			C104.7,61.5,104.6,61.6,104.4,61.7L104.4,61.7z"/>
		<path id="path5021" inkscape:connector-curvature="0" class="st3" d="M102.4,75.7c-0.4,0.4-0.4,1.1-0.7,1.6
			c-0.2,0.9-0.6,1.8-0.8,2.7c0.1,0.6,0.7,0.3,1,0.2c0.6-0.3,1.4-0.5,1.9-0.9c0.2-0.6-0.2-1.2-0.3-1.7c-0.2-0.6-0.3-1.3-0.8-1.8
			C102.7,75.7,102.5,75.7,102.4,75.7L102.4,75.7z"/>
		<path id="path5023" inkscape:connector-curvature="0" class="st3" d="M98.7,85.8c-0.6,0.2-0.6,1-1,1.4c-0.6,1.1-1.3,2.1-1.9,3.2
			c-0.1,0.6,0.6,0.5,1,0.5c1.2-0.1,2.5,0,3.7-0.2c0.6-0.2,0.2-0.9,0-1.3c-0.5-1.2-0.8-2.4-1.4-3.5C99,85.9,98.8,85.8,98.7,85.8
			L98.7,85.8z"/>
		<path id="path5025" inkscape:connector-curvature="0" class="st3" d="M91.4,95.8c-0.8,0.4-1.3,1.1-2,1.6c-0.8,0.8-1.8,1.3-2.6,2.2
			c-0.2,0.4,0.3,0.8,0.7,0.7c1.3-0.1,2.6-0.2,3.9-0.3c0.5-0.3,0.3-1,0.4-1.5c0-0.8,0.1-1.5,0.2-2.3C91.9,95.9,91.7,95.8,91.4,95.8
			L91.4,95.8z"/>
		<path id="path5027" inkscape:connector-curvature="0" class="st3" d="M73.5,105.3c-2,0.4-3.9,0.7-5.9,1c-0.4,0-0.7,0.6-0.3,0.8
			c1.3,1,2.6,2.1,4,3c0.6,0.1,0.7-0.7,1-1c0.6-1.1,1.2-2.2,1.7-3.4C74.1,105.5,73.8,105.2,73.5,105.3L73.5,105.3z"/>
		<path id="path5029" inkscape:connector-curvature="0" class="st3" d="M47,103.5c-0.5,0-0.5,0.6-0.2,0.8c1.1,1.4,2.2,2.8,3.3,4.1
			c0.5,0.3,0.8-0.4,1.2-0.7c0.7-0.7,1.5-1.4,2.1-2.2c0.2-0.5-0.4-0.6-0.8-0.6c-1.9-0.4-3.7-0.9-5.6-1.4L47,103.5L47,103.5L47,103.5z
			"/>
		<path id="path5031" inkscape:connector-curvature="0" class="st3" d="M24.8,89.7c-0.3,0.5,0,1.1-0.1,1.6c0.1,0.9,0,1.9,0.2,2.8
			c0.3,0.4,1,0.1,1.5,0.2c0.8-0.1,1.5-0.1,2.3-0.2c0.5-0.3,0.1-0.8-0.2-1c-1.1-1.1-2.1-2.2-3.2-3.3C25.2,89.6,25,89.6,24.8,89.7
			L24.8,89.7z"/>
		<path id="path5265" inkscape:connector-curvature="0" class="st3" d="M104,38.7c-3.1,0-5.9,1.4-8.5,2.9c-0.5,0.2-0.3,0.8-0.1,1.1
			c1.3,3.4,1.8,7.1,2.2,10.7c0.1,0.9,0.1,1.8,0.3,2.7c0.3,0.6,1,0,1.4-0.1c2.8-1.2,5.8-2.5,9-2c0.7,0.1,1.4,0.4,2.1,0.4
			c0.5-0.4,1.4-0.5,1.6-1.1c0-0.6-0.7-0.6-1.1-0.8c-0.3-0.1-0.7-0.1-1-0.2c0.4-0.2,1.2-0.4,1.1-1c-0.2-0.5-0.9-0.7-1.2-1
			c0.4-0.2,1.2-0.5,1-1.1c-0.2-0.5-0.7-0.8-0.9-1.2c0.4-0.4,1.1-0.7,1-1.3c-0.2-0.6-1-0.9-1.4-1.3c0.1-0.6,0.8-1,0.7-1.6
			c-0.3-0.5-1.1-0.3-1.4-0.6c0.2-0.5,0.7-0.9,0.6-1.4c-0.4-0.5-1.1-0.2-1.6-0.3c0.6-0.3,1.5-0.4,1.9-1.1c0.2-0.6-0.6-0.9-1.1-1
			C107.1,38.8,105.5,38.6,104,38.7L104,38.7z"/>
		<path id="path3881" inkscape:connector-curvature="0" class="st2" d="M95.2,41.8c4.2-2.2,7.4-3.9,13.1-2.7c1.4,0,3.1,1.3-0.4,2.2
			c2-0.1,2.3,0.1,1,1.8c3,0.3,1,1,0.8,2.1c2,1.2,1.9,1.7,0.3,2.7c0.8,0.6,2,1.7,0,2.3c1.8,0.8,1.8,1.5,0.1,2
			c3.1,0.4,2.8,1.2,0.3,2.2c-4.7-1.5-8.4,0.6-12.3,2.2v0.1C97.6,51.8,97.5,46.8,95.2,41.8L95.2,41.8z"/>
		<path id="path4446" inkscape:connector-curvature="0" class="st5" d="M50.1,20.7l-0.3-4.9l4,3.9"/>
		<path id="path4448" inkscape:connector-curvature="0" class="st5" d="M60.6,18.2l5.2-3.4l2,4.3"/>
		<path id="path4450" inkscape:connector-curvature="0" class="st5" d="M72.7,19.9l6.6-2l1.3,5.3"/>
		<path id="path4452" inkscape:connector-curvature="0" class="st5" d="M87.8,27.7l6-1.1l-0.9,5.8"/>
		<path id="path4468" inkscape:connector-curvature="0" class="st5" d="M24.1,40.5l-5.2,1.1l1.8,4.5"/>
		<path id="path4470" inkscape:connector-curvature="0" class="st5" d="M17,55.5l-4.3,0.6l3,5.2"/>
		<path id="path4486" inkscape:connector-curvature="0" class="st5" d="M104.3,61c0.6,0.3,3.4,3.9,3.4,3.9l-3.6,2.4"/>
		<path id="path4514" inkscape:connector-curvature="0" class="st5" d="M102.6,74.9l1.4,4.3l-3.2,1.3"/>
		<path id="path4516" inkscape:connector-curvature="0" class="st5" d="M99,85.6l1.9,5l-5.1,0.2"/>
		<path id="path4534" inkscape:connector-curvature="0" class="st5" d="M16.3,70.6l-2,5l3.9,2.3"/>
		<path id="path4536" inkscape:connector-curvature="0" class="st5" d="M24.8,89.4l0.2,4.8l4.2-0.3"/>
		<path id="path4538" inkscape:connector-curvature="0" class="st5" d="M46.2,103.3l4.2,5.2l3.1-3.1"/>
		<path id="path4540" inkscape:connector-curvature="0" class="st5" d="M66.8,106.5l4.9,3.7l2.5-5"/>
		<path id="path4542" inkscape:connector-curvature="0" class="st5" d="M86,100.2l5.4-0.4l0.4-4.3"/>
		<g id="g4610" transform="translate(406.3505,319.1745)" class="st6">
			<g id="g5039_2_" transform="translate(146,0)">
				<path id="path4554_2_" inkscape:connector-curvature="0" class="st2" d="M-456.1-274c3.1-3.5,7.3-4.1,11-4"/>
				<path id="path4556_2_" inkscape:connector-curvature="0" class="st2" d="M-455.5-271.8c3.3-3.3,7.6-4.3,11.7-3.4"/>
				<path id="path4558_2_" inkscape:connector-curvature="0" class="st2" d="M-454.8-268.2c3.2-3.4,7.3-3.3,11.4-3.5"/>
				<path id="path4560_2_" inkscape:connector-curvature="0" class="st2" d="M-454.7-266c1.9-1.1,1.9-3.9,10.5-2.5"/>
				<path id="path4562_2_" inkscape:connector-curvature="0" class="st2" d="M-456.6-276.3c2.8-2.4,6.7-3.7,11-3.8"/>
			</g>
		</g>
		<path id="path4568" inkscape:connector-curvature="0" class="st2" d="M38.5,20.6c1.4,0.8,3.5,1.1,3.9,2.7 M35.7,21.2
			c1.5,1.1,3.9,1,4.4,3.4 M34.9,24.3c0.9,0.7,1.7,0.2,2.9,2.2l0.2,0.1"/>
		
			<g id="layer1" transform="matrix(-0.28850342,-0.03573401,-0.03573401,0.28850342,465.76189,339.22442)" inkscape:label="Layer 1">
			<path id="path3022" inkscape:connector-curvature="0" sodipodi:nodetypes="cacac" class="st7" d="M1471.9-820.1
				c0,0,25.6,3.3,38.4,3c11.1-0.2,33.2-3.8,33.2-3.8s-17.5,13.6-28,14.5C1500.3-805.1,1471.9-820.1,1471.9-820.1z"/>
			<path id="path3020" inkscape:connector-curvature="0" sodipodi:nodetypes="cacacac" class="st7" d="M1471.9-822.6
				c0,0,20-6.9,30.2-5.8c3,0.3,8.2,3.6,8.2,3.6s7.4-4.5,11.5-4.9c8.8-0.9,26,5.2,26,5.2s-28.2,4.5-42.5,4.7
				C1494.2-819.7,1471.9-822.6,1471.9-822.6z"/>
			<path id="path10049" inkscape:connector-curvature="0" sodipodi:nodetypes="cccascacccccsccccccccccsacccscc" d="M1556.6-834.3
				c0.7,4.9,7,6.6,1.1,7.2c-3.9,0.9-9.1,1.3-13-1.4c-3.6-0.6-8-2.6-12.1-3.3c-4.2-0.7-8.7-0.9-12.9-1.1c-5.4-0.2-8,4.5-9.8,5.8
				c-5.1-4.1-4.3-3.7-7-4.1c-12.4-2.1-33.9,9.1-37.1,7.5c-3.4,0.1-6.7-3-2.6-6.8c-6.2,0.4-6.2,8.6-5.1,12.9c0,3.1,1.5-7.8,5-5.2
				c3.7,0.6,6.8,3.5,9.9,5.5c12.5,7.5,25.7,13.5,40.8,12.5c11.5-0.8,21.7-8.6,35.3-18.4c4-0.1,8.7-4.3,11.7-1.1
				c0.7,2.3-0.3,3.7,0.2,7.3c1.9-3.4,3.5-7.9,0.6-11.2C1560.6-830,1558.3-832.9,1556.6-834.3L1556.6-834.3z M1526.2-829.9
				c5.2,0.5,14.4,3,18.7,5.5c-0.2,2-5.2,0.2-7.3,1.2c-19.8,4.4-40.9,4.7-60.8,0.4c-2.1-0.6-5.8,0.8-1.3-1.3c5.5-0.3,13.8-2.8,20.7-4
				c1.6-0.3,3.3-1,4.9-0.6c3.5,0.8,3.9,1.8,9,5.8C1514.3-827,1514.5-830.3,1526.2-829.9L1526.2-829.9z M1541.4-821.1
				c-12.5,13.7-28.7,16.6-46.6,10.9c-7.2-2.3-13.6-6.3-20.3-9.8C1496.8-817,1515.7-815.4,1541.4-821.1z"/>
		</g>
		<g id="layer1-1" transform="matrix(0.16128264,0.15778227,-0.15778227,0.16128264,362.56657,72.62485)" inkscape:label="Layer 1">
			<g id="g4000" transform="matrix(0.98650176,-0.16375067,0.16375067,0.98650176,-61.459482,79.691975)">
				
					<ellipse id="path3185" transform="matrix(-0.2415 0.9704 -0.9704 -0.2415 -870.1105 1841.0878)" class="st8" cx="-1154.6" cy="580.5" rx="18.2" ry="18.5"/>
				<g id="path3305" class="st9">
					
						<radialGradient id="SVGID_1_" cx="-1018.218" cy="745.9526" r="2.9467" gradientTransform="matrix(1.8419 1.0008 1.2192 -1.7984 -190.9419 2935.0247)" gradientUnits="userSpaceOnUse">
						<stop  offset="0" style="stop-color:#000000"/>
						<stop  offset="1" style="stop-color:#000000;stop-opacity:0"/>
					</radialGradient>
					<path class="st10" d="M-1150.4,565c8.8,2.2,14.3,11.1,12.1,19.8s-11.1,14-19.9,11.8s-14.3-11.1-12.1-19.8
						C-1168.1,568.1-1159.2,562.8-1150.4,565z"/>
					
						<ellipse transform="matrix(0.7538 -0.6571 0.6571 0.7538 -665.774 -615.4734)" class="st11" cx="-1154.3" cy="580.8" rx="3.7" ry="3.7"/>
				</g>
				<g id="path3325" class="st9">
					
						<radialGradient id="SVGID_2_" cx="-714.741" cy="545.5714" r="2.9467" gradientTransform="matrix(1.0534 0.239 0.7662 -0.998 -813.4749 1302.274)" gradientUnits="userSpaceOnUse">
						<stop  offset="0" style="stop-color:#00A1FF"/>
						<stop  offset="1" style="stop-color:#000001"/>
					</radialGradient>
					<path class="st12" d="M-1150.4,565c8.8,2.2,14.3,11.1,12.1,19.8s-11.1,14-19.9,11.8s-14.3-11.1-12.1-19.8
						C-1168.1,568.1-1159.2,562.8-1150.4,565z"/>
					
						<ellipse transform="matrix(0.7538 -0.6571 0.6571 0.7538 -665.774 -615.4734)" class="st11" cx="-1154.3" cy="580.8" rx="3.7" ry="3.7"/>
				</g>
				<g id="path3409" class="st9">
					
						<radialGradient id="SVGID_3_" cx="-956.5581" cy="910.0167" r="2.9482" gradientTransform="matrix(0.6857 0.872 1.3313 -0.1587 -1712.1023 1568.3223)" gradientUnits="userSpaceOnUse">
						<stop  offset="0" style="stop-color:#00A1FF"/>
						<stop  offset="1" style="stop-color:#000001"/>
					</radialGradient>
					<path class="st13" d="M-1150.4,565c8.8,2.2,14.3,11.1,12.1,19.8s-11.1,14-19.9,11.8s-14.3-11.1-12.1-19.8
						C-1168.1,568.1-1159.2,562.8-1150.4,565z"/>
					
						<ellipse transform="matrix(0.7538 -0.6571 0.6571 0.7538 -665.774 -615.4734)" class="st11" cx="-1154.3" cy="580.8" rx="3.7" ry="3.7"/>
				</g>
				<circle id="path3323" class="st14" cx="-1152.8" cy="578.5" r="8.3"/>
				<path id="path3170" inkscape:connector-curvature="0" sodipodi:nodetypes="cscccssscscscssscsssc" class="st15" d="
					M-1163.5,562.5c-15.8,7.9-22.2,23.1-22.2,23.1c2.1-3,4.6-5.7,7.3-8.1c-4.2,6.5-6,12.6-6,12.6l-3,4c0.4,1,4.1,2.7,5.3-1
					c12.3-36.9,39.8-27.8,50-22.9c0,0,0.1,0,0.1,0.1c0.1,0.1,1,0.4,2.5,1.3c-0.3,2.2-1.5,15.5-12.1,24.8c-6.7,5.9-20.5,5.9-31.9,5.5
					c0,0,14.3,2.8,27-1c14.9-4.5,19.9-23,20.4-28.7c0.4-0.2,0.7-0.4,0.7-0.4c0,0,6.8-3.6,4.3-4.8c-5.1-2.3-9.7-3.9-13.9-5
					c-1.8-0.4-3.5-0.7-5.2-1c6.1-1.1,10.3-1.5,10.6-1.7c0,0,0,0-0.1-0.1c-0.6-0.1-4.6-1.2-10.7-1.5
					C-1149.7,557.4-1157.3,559.4-1163.5,562.5L-1163.5,562.5z"/>
				<g id="path3335" class="st16">
					
						<ellipse transform="matrix(0.7538 -0.6571 0.6571 0.7538 -663.4749 -613.3547)" class="st17" cx="-1150.3" cy="578.8" rx="0.9" ry="0.9"/>
				</g>
			</g>
		</g>
		<g id="g4009" transform="matrix(-0.21899596,0.05429645,0.05429645,0.21899596,633.18726,125.62502)" inkscape:label="Layer 1">
			<g id="g4011">
				
					<ellipse id="ellipse4013" transform="matrix(0.9704 -0.2415 0.2415 0.9704 305.0467 531.2463)" class="st8" cx="2319.6" cy="-978.7" rx="18.5" ry="-18.2"/>
				<g id="ellipse4015" class="st9">
					
						<radialGradient id="SVGID_4_" cx="2407.5012" cy="-904.0895" r="2.9467" gradientTransform="matrix(-0.2932 -2.0128 2.1893 -0.4291 5002.3564 3473.3201)" gradientUnits="userSpaceOnUse">
						<stop  offset="0" style="stop-color:#000000"/>
						<stop  offset="1" style="stop-color:#000000;stop-opacity:0"/>
					</radialGradient>
					<path class="st18" d="M2323.8-994.2c8.8,2.2,14.3,11.1,12.1,19.8c-2.2,8.7-11.1,14-19.9,11.8c-8.8-2.2-14.3-11.1-12.1-19.8
						C2306-991.1,2314.9-996.4,2323.8-994.2z"/>
					
						<ellipse transform="matrix(0.8838 -0.4679 0.4679 0.8838 727.5073 971.8278)" class="st11" cx="2319.9" cy="-978.4" rx="3.7" ry="3.7"/>
				</g>
				<g id="ellipse4017" class="st9">
					
						<radialGradient id="SVGID_5_" cx="2057.5117" cy="-872.1502" r="2.9467" gradientTransform="matrix(-0.1158 -0.9089 1.2974 -0.4765 3695.5286 482.3654)" gradientUnits="userSpaceOnUse">
						<stop  offset="0" style="stop-color:#00A1FF"/>
						<stop  offset="1" style="stop-color:#000001"/>
					</radialGradient>
					<path class="st19" d="M2323.8-994.2c8.8,2.2,14.3,11.1,12.1,19.8c-2.2,8.7-11.1,14-19.9,11.8c-8.8-2.2-14.3-11.1-12.1-19.8
						C2306-991.1,2314.9-996.4,2323.8-994.2z"/>
					
						<ellipse transform="matrix(0.8838 -0.4679 0.4679 0.8838 727.5073 971.8278)" class="st11" cx="2319.9" cy="-978.4" rx="3.7" ry="3.7"/>
				</g>
				<g id="ellipse4019" class="st9">
					
						<radialGradient id="SVGID_6_" cx="2312.782" cy="-717.6414" r="2.9482" gradientTransform="matrix(0.5518 -0.6931 1.3922 0.5524 2040.6312 1029.9746)" gradientUnits="userSpaceOnUse">
						<stop  offset="0" style="stop-color:#00A1FF"/>
						<stop  offset="1" style="stop-color:#000001"/>
					</radialGradient>
					<path class="st20" d="M2323.8-994.2c8.8,2.2,14.3,11.1,12.1,19.8c-2.2,8.7-11.1,14-19.9,11.8c-8.8-2.2-14.3-11.1-12.1-19.8
						C2306-991.1,2314.9-996.4,2323.8-994.2z"/>
					
						<ellipse transform="matrix(0.8838 -0.4679 0.4679 0.8838 727.5073 971.8278)" class="st11" cx="2319.9" cy="-978.4" rx="3.7" ry="3.7"/>
				</g>
				<circle id="circle4021" class="st14" cx="2321.4" cy="-980.7" r="8.3"/>
				<path id="path4023" inkscape:connector-curvature="0" sodipodi:nodetypes="cscccssscscscssscsssc" class="st15" d="
					M2310.6-996.7c-15.8,7.9-22.2,23.1-22.2,23.1c2.1-3,4.6-5.7,7.3-8.1c-4.2,6.5-6,12.6-6,12.6l-3,4c0.4,1,4.1,2.7,5.3-1
					c12.3-36.9,39.8-27.8,50-22.9c0,0,0.1,0,0.1,0.1c0.1,0.1,1,0.4,2.5,1.3c-0.3,2.2-1.5,15.5-12.1,24.8c-6.7,5.9-20.5,5.9-31.9,5.5
					c0,0,14.3,2.8,27-1c14.9-4.5,19.9-23,20.4-28.7c0.4-0.2,0.7-0.4,0.7-0.4c0,0,6.8-3.6,4.3-4.8c-5.1-2.3-9.7-3.9-13.9-5
					c-1.8-0.4-3.5-0.7-5.2-1c6.1-1.1,10.3-1.5,10.6-1.7c0,0,0,0-0.1-0.1c-0.6-0.1-4.6-1.2-10.7-1.5
					C2324.5-1001.8,2316.8-999.8,2310.6-996.7L2310.6-996.7z"/>
				<g id="ellipse4025" class="st16">
					
						<ellipse transform="matrix(0.8838 -0.4679 0.4679 0.8838 728.9061 973.4517)" class="st17" cx="2323.8" cy="-980.4" rx="0.9" ry="0.9"/>
				</g>
			</g>
		</g>
	</g>
</g>
</svg>
