<?xml version="1.0" encoding="utf-8"?>
<!-- Generator: Adobe Illustrator 22.1.0, SVG Export Plug-In . SVG Version: 6.00 Build 0)  -->
<svg version="1.1"
	 id="svg2" inkscape:version="0.48.2 r9819" sodipodi:docname="bone-fish.svg" xmlns:cc="http://creativecommons.org/ns#" xmlns:dc="http://purl.org/dc/elements/1.1/" xmlns:inkscape="http://www.inkscape.org/namespaces/inkscape" xmlns:rdf="http://www.w3.org/1999/02/22-rdf-syntax-ns#" xmlns:sodipodi="http://sodipodi.sourceforge.net/DTD/sodipodi-0.dtd" xmlns:svg="http://www.w3.org/2000/svg"
	 xmlns="http://www.w3.org/2000/svg" xmlns:xlink="http://www.w3.org/1999/xlink" x="0px" y="0px" viewBox="0 0 125 125"
	 style="enable-background:new 0 0 125 125;" xml:space="preserve">
<style type="text/css">
	.st0{fill:#C6C6C6;}
	.st1{fill:#FFFFFF;}
</style>
<sodipodi:namedview  bordercolor="#666666" borderlayer="true" borderopacity="1.0" id="base" inkscape:current-layer="layer1" inkscape:cx="295.20472" inkscape:cy="405.71429" inkscape:document-units="px" inkscape:pageopacity="0.0" inkscape:pageshadow="2" inkscape:window-height="1005" inkscape:window-maximized="0" inkscape:window-width="1018" inkscape:window-x="166" inkscape:window-y="-20" inkscape:zoom="0.41353141" pagecolor="#ffffff" showgrid="false">
	</sodipodi:namedview>
<g id="layer1" transform="translate(0,-752.36218)" inkscape:groupmode="layer" inkscape:label="Layer 1">
	<g id="g4905" transform="matrix(7.1092869,0,0,5.8333896,-5493.7734,-929.849)">
		
			<path id="path4254" inkscape:connector-curvature="0" sodipodi:nodetypes="cssssssccscssscsscsccssscscscscsccscsscssscsscsccsccsscsssscscssssccsscsscsscccccscc" class="st0" d="
			M775.2,303.2c-0.3-0.2-1.2-0.8-0.9-1c3.1-2.2,0.2-0.4-0.4-0.6c-1.2-0.6-1-1.4-0.4-2.5c0.7-1.2,3.3-3.6,3.6-3.3
			c0,0-0.1,0.4-0.2,0.8c-0.4,1-0.7,2.7-0.4,2.9c0.1,0.1,0.2,0,0.3-0.2c0.1-0.2,0.2-0.5,0.3-0.7c0.2-0.4,0.2-0.4,0.2,0.2
			c0,0.9,0.4,0.8,0.6,0c0.1-0.4,0.2-0.7,0.3-0.7s0.1,0.2,0.1,0.4c-0.1,0.7,0.1,0.9,0.4,0.3l0.2-0.6l0,0.6c0,0.4,0.1,0.6,0.2,0.6
			c0.1,0,0.2-0.2,0.2-0.4c0-0.2,0.1-0.5,0.2-0.6c0.1-0.2,0.2-0.1,0.2,0.4c0,0.5,0.1,0.6,0.3,0.6c0.2,0,0.3-0.3,0.4-0.6
			c0.2-0.8,0.3-0.9,0.3-0.1c0,0.5,0.1,0.7,0.2,0.7c0.1,0,0.2-0.2,0.2-0.4c0-0.2,0.1-0.5,0.2-0.6c0.1-0.2,0.2-0.1,0.2,0.4
			c0,0.8,0.3,0.8,0.5-0.1l0.2-0.6l0.1,0.7c0.1,0.8,0.4,1,0.6,0.3c0.1-0.7,0.4-0.8,0.4-0.2c0,0.5,0.2,0.7,0.4,0.3
			c0.1-0.1,0.2-0.1,0.3,0.1c0.2,0.4,0.4,0.3,0.5-0.1l0.1-0.4l0.1,0.4c0.1,0.4,0.1,0.4,0.4,0.1c0.2-0.2,0.3-0.3,0.3-0.1
			c0.2,0.3,1.1,0.2,1.6-0.2c0.2-0.2,0.6-0.6,0.8-0.9c0.6-1,1.2-1.7,1.7-2c0.3-0.1,0.6-0.2,0.6-0.2c0,0.1-0.1,0.5-0.3,1
			c-0.8,2-0.8,3.9,0,5.9c0.2,0.5,0.3,0.9,0.3,0.9c-0.3,0.3-1.7-0.9-2.1-1.8c-0.4-0.9-1.3-1.7-1.9-1.6c-0.3,0-0.5,0.1-0.6,0.2
			c-0.1,0.1-0.2,0-0.3-0.2c-0.2-0.3-0.2-0.3-0.4,0.1l-0.1,0.4l-0.2-0.4c-0.2-0.4-0.2-0.4-0.4-0.1c-0.1,0.2-0.2,0.2-0.3,0.1
			c-0.2-0.3-0.4-0.2-0.4,0.4c0,0.5-0.1,0.5-0.2,0.2c-0.4-1-0.6-1.1-0.7-0.3c-0.1,0.6-0.1,0.5-0.4-0.2c-0.2-0.5-0.4-0.3-0.4,0.3
			c0,0.5,0,0.6-0.2,0.4c-0.1-0.1-0.2-0.4-0.2-0.6c0-0.2-0.1-0.4-0.2-0.4c-0.2,0-0.2,0.2-0.2,0.6c0,0.7-0.3,0.6-0.3-0.1
			c0-0.2-0.2-0.4-0.3-0.5c-0.2,0-0.3,0.1-0.3,0.6c0,0.5,0,0.6-0.2,0.4c-0.1-0.1-0.2-0.4-0.2-0.6c0-0.6-0.4-0.5-0.5,0.2l-0.1,0.5
			l-0.2-0.6c-0.2-0.5-0.2-0.5-0.4-0.3c-0.1,0.2-0.1,0.4,0,0.6c0.1,0.2,0,0.3-0.1,0.3c-0.1,0-0.2-0.3-0.3-0.6c-0.1-0.8-0.5-0.8-0.5,0
			c0,0.5,0,0.6-0.2,0.4c-0.1-0.1-0.2-0.4-0.2-0.6c0-0.3-0.3-0.5-0.5-0.3c0,0,0,0.7,0.1,1.4c0.1,1.3,0.1,2.1-0.2,2.1
			C776.2,303.8,775.8,303.6,775.2,303.2L775.2,303.2z"/>
		
			<path id="path4896" sodipodi:cx="696.30786" sodipodi:cy="86.981667" sodipodi:rx="12.481832" sodipodi:ry="18.722748" sodipodi:type="arc" class="st1" d="
			M776,298.5c0,0.5-0.2,0.9-0.5,0.9s-0.5-0.4-0.5-0.9s0.2-0.9,0.5-0.9S776,297.9,776,298.5z"/>
		
			<path id="path4898" sodipodi:cx="504.62262" sodipodi:cy="59.343323" sodipodi:rx="7.1324754" sodipodi:ry="6.2409158" sodipodi:type="arc" d="
			M775.7,298c0,0.2-0.1,0.3-0.3,0.3s-0.3-0.2-0.3-0.3s0.1-0.3,0.3-0.3S775.7,297.9,775.7,298z"/>
	</g>
</g>
</svg>
