<?xml version="1.0" encoding="utf-8"?>
<!-- Generator: Adobe Illustrator 22.1.0, SVG Export Plug-In . SVG Version: 6.00 Build 0)  -->
<svg version="1.1"
	 id="svg4591" xmlns:cc="http://creativecommons.org/ns#" xmlns:dc="http://purl.org/dc/elements/1.1/" xmlns:rdf="http://www.w3.org/1999/02/22-rdf-syntax-ns#"
	 xmlns="http://www.w3.org/2000/svg" xmlns:xlink="http://www.w3.org/1999/xlink" x="0px" y="0px" viewBox="0 0 125 125"
	 style="enable-background:new 0 0 125 125;" xml:space="preserve">
<style type="text/css">
	.st0{fill:#FFFFFF;}
	.st1{fill:#295F96;}
	.st2{fill:#19426B;}
	.st3{fill:#235587;}
	.st4{fill:#225282;}
	.st5{fill:#E6E6E6;}
	.st6{fill:#CCCCCC;}
	.st7{fill:#3C71A6;}
	.st8{fill:#336699;}
	.st9{fill:#669999;}
	.st10{fill:#4D7878;}
	.st11{fill:#406666;}
	.st12{fill:#71ADAD;}
	.st13{fill:#558585;}
</style>
<g id="layer1" transform="translate(787.58 -209.65)">
	<g id="g4508" transform="matrix(.070865 0 0 .070865 -1188 -207.54)">
		<path id="path26" d="M6908.1,6460.7c17.4,1.3,39,4.5,47.4,11.6c4.6,3.9,7.3,9.5,7.3,15.5c0,2.8-0.6,5.6-1.7,8.1
			c-3.7,8.3-11,11.5-18.9,14.3c1.7,0,3.3,0.1,4.9,0.2c2.9,0.3,5.8,0.3,8.8,0.9c9.9,1.7,18.8,7.4,20.1,18.2c0.6,4.2-0.3,8.4-2.3,12.2
			c-3.5,6.2-9.3,9.4-15.8,11.5c-5.3,1.9-10.8,3.2-16.3,4.5c-7.5,1.9-14.9,3.6-22.4,5.3c-2.8,0.7-5.6,1.3-8.4,2
			c6.9,3.4,13.8,6.7,20.9,9.8c8.4,3.7,19.3,8.1,28.6,7.8c9.7-0.3,19.3-5.4,27.3-10.4c15-9.4,28.8-21.1,42.5-32.3
			c40.8-33.2,81.7-66.5,124.9-96.5c41.8-29.1,85.7-54.8,133-73.9c20.8-8.4,42.1-15.8,63.7-21.6c7.5-2,15-3.9,22.7-5.1
			c11.5-1.8,23.8-0.1,28.4,12.7c1,3,1.3,6.3,0.8,9.5c-1.4,9-8,14-15.2,18.3c-5.4,3.2-11,6.1-16.5,8.8c-15.2,7.8-30.4,15.2-45.5,23.2
			c-6,3.1-11.9,6.3-17.8,9.7c-28.8,16.3-55.3,35.6-80.4,57.2c-14.3,12.2-29,25.2-40.9,39.8c-0.7,0.8-1.5,1.9-2.4,3
			c7.8,1.9,17.2,2.8,24.5,3.6c7.7,0.8,15.3,1.4,23,2.2c6.3,0.6,12.6,1.2,18.9,2.7c9.8,2.4,17.9,8.8,18.6,19.6
			c0.9,13.6-9.9,20.3-21,24.3c-6.6,2.4-13.2,4.2-20,6.1c-14.7,4-30.1,7.7-44.1,13.5c-6.1,2.6-11.7,5.4-15.4,11.1s-6.2,13.8-7.5,20.5
			c-1.3,6.5-0.8,10.9,0.7,17.3c2.7,12,7.3,19.7,16.8,27.5c8.5,6.9,19,12.6,28.6,17.5c10.6,5.4,21.4,10.3,32.2,15.2
			c5.9,2.8,11.8,5.5,17.4,8.5c2.4,1.3,4.7,2.7,6.9,4.3c7,5.3,10.7,13.6,8.1,22.4c-3.6,12.1-14.7,15.1-25.9,14.1
			c-8.3-0.8-33-5-44-3.9c1.9,9.5,11.5,27.7,14.5,33.6c9.1,17.9,18.6,36.1,32,51c14.2,15.9,32.5,28.5,51.2,38.5c2,1,4,2.1,6.1,3.1
			c9.2,4.7,18.6,9,27.8,13.8c4,2,7.8,4.1,11.4,6.7c7.7,5.6,12.6,13.6,10.5,23.3c-1.2,5.4-4.5,10-9.1,13c-10.8,6.9-31.1,4.2-43.3,2.2
			c-20.5-3.4-40.9-9.6-59.7-18.1c-42.8-19.4-82-52.2-116.3-83.9c-15.6-14.4-30.7-29.2-45.8-44.1c-11-11-21.9-22.1-33.4-32.5
			c-9.5-8.8-17.3-15.7-29.7-19.8c-7.2-2.4-11-3.9-16.3,2.1c-2.9,3.3-5.4,7.4-7.7,11.2c-4,6.7-7.5,13.5-11.1,20.2
			c-11.6,21.7-23.7,43.3-36.8,64.1c-11.1,17.9-22.9,35.3-35,52.5c0.8-0.7,1.7-1.4,2.6-2.1c8.3-6.2,18.7-8.6,27.5-1.3
			c0.8,0.7,1.7,1.5,2.4,2.3c3.9-4,7.7-8.3,11.5-12.6c4.2-4.7,8.4-9.4,12.7-14.2c5.6-6.2,11.3-12.4,17.4-18.2c2.6-2.5,5.3-4.9,8.3-7
			c8.8-6.1,20.2-6.6,28,1.9c6.9,7.5,6.1,16.8,2.6,25.6c-1.9,5-4.4,9.7-6.9,14.3c-6.8,12.3-14.6,24.2-23,35.5c0,0.1-0.1,0.2-0.2,0.3
			c1.4-0.7,2.9-1.3,4.4-1.9c9.6-3.8,20.2-3,26.5,6.2c4.7,7,4.3,15.8-0.5,22.6c-4.5,6.2-12.9,12.6-19,17.4c-0.6,0.4-1.2,0.9-1.8,1.3
			c8.9-0.6,17.2,3.1,20.8,11.9c4.3,10.4-0.7,19.7-9.4,25.4c-3.1,2-6.3,3.7-9.6,5.4c-17,8.7-34.6,16.3-52.3,23.5
			c-25.9,10.5-52.3,20.1-79.2,28.1c-6.6,1.9-13.3,3.8-20,5.6c-38.9,10.1-79.1,16.2-119.1,18.4l-4.9,0.3c-5.5,3.2-11,6.3-16.5,9.4
			c-4,2.1-7.8,4.2-11.8,6.2c-30,15.8-61,26.8-93.3,36.4c17.3-0.3,34.4-1.6,51-4.3c12-1.9,23.7-4.8,35.4-7.9c4-1.1,8-2.2,12-3.1
			c7.2-1.7,14.1-2.1,20.6,2.6c2.5,1.8,4.6,4.2,6,7c5,9.9,0.8,19.5-7,26.1c-1.7,1.3-3.4,2.7-5.1,3.9c1,1.1,1.9,2.2,2.6,3.4
			c1.7,2.9,2.7,6.1,2.9,9.4c0.5,9.9-5.7,17-12.4,23.2c-1.2,1.2-2.4,2.4-3.8,3.5c7.9-0.2,15.4,2.8,19.5,10.4c2.4,4.2,3,9.2,1.9,13.9
			c-1.8,8.3-9.4,14.9-16.6,20.1h0.1c9.8,0.6,18.6,5.1,21.4,15.2c1.6,5.9,0.3,12.1-3.2,17.1c-6.1,8.4-22.6,14.5-32.2,18
			c-8.8,3.3-18.1,6.3-27.2,8.8c-4.5,1.3-9.1,2.4-13.6,3.5c0,0,0.1,0.1,0.2,0.1c8.9,4.4,15.2,12.4,13.3,22.8
			c-1.9,10.4-10.5,15.8-20.4,16.3c-5.6,0.3-11.1-0.3-16.7-0.8c-8.1-0.8-16.2-1.9-24.3-3.3c-56.9-9.5-116.8-18-171.9-35.2
			c-50.2-15.7-97.4-40.6-140.2-71.1c-27.7-19.7-53.7-41.8-78.8-64.7l-1.3-1.3c-45.5-6.2-91.1-16.1-134.8-30.7
			c-75.3-25.3-141.5-64.9-197.6-121.4c-43.1-43.3-79.5-95.3-106.6-149.9c-9.4-19-17.7-38.6-25.1-58.5c-4.5-12.3-8.6-24.9-13.7-37.1
			c-1.3-3.2-2.9-6.6-4.9-9.5l-1.8-2.7l-0.2-0.1l-1.6-1.2c-1.8-1.3-4-2.4-6.1-3.2c-12-5.3-24.2-9.7-35.4-16.9
			c-12-7.8-21.5-18.6-25.9-32.4c-3.7-11.6-3.6-25,0-36.6c4.1-12.9,12-20.6,22.9-28.1c21-14.2,41.7-14.7,63.9-5.7
			c-2.2-9.5,0.7-19.2,5.8-27.6c3.2-5.2,6.6-8.8,11-12.9c4.5-4.2,9-8.3,14.4-11.4c7.2-4,15.7-5.9,23.8-4.2c0.9,0.2,1.9,0.4,2.7,0.7
			c0.8-1.3,1.5-2.6,2.3-3.9c6.6-10.4,13.7-20.4,21.1-30.2c2.3-3,4.6-6.1,7-9c-0.2-3.6-0.3-7.2-0.3-10.7c0-46.4,15.6-93.7,46.2-129
			c30.2-34.7,90.1-69.8,136.9-69.8c40.3,0,76.7,17.5,104,45.7c19.2-27,39.2-52.6,64.1-75c30.7-27.6,70.5-53.1,108.7-68.9
			c13.9-5.7,28.5-10.5,43.3-13.3c9.8-1.9,23.2-4,31.9,1.9c4.4,2.9,7.3,7.5,8.3,12.6c0.8,4,0.3,8.1-1.4,11.7
			c-3.3,7-9.2,10.1-15.8,12.9c-4.6,1.9-9.4,3.5-14.1,5.3c-2.5,0.9-5.1,1.9-7.7,2.9c-10,4-16.5,8.5-24.9,15.2
			c-11.3,9.1-22.4,18.8-32.5,29.2c23.4-19.8,48.9-36.6,76.7-49.8c10.2-4.8,21.1-9.2,31.8-13.1c11.3-4.1,32.3-12,43.9-7.3
			c5,1.9,8.9,5.7,11,10.6c4.2,9.9-0.2,19-7.8,25.5c-3.2,2.7-6.6,5-9.9,7.3c-8.6,5.9-17.4,11.5-25.9,17.3
			c-6.7,4.6-13.2,9.4-19.6,14.5c16.8-11.4,34.5-22.2,52.9-29.8c15.8-6.6,30.6-9.3,47.6-10.6l2.8-0.3c5.8-0.4,11.7-0.8,17.5-0.8
			c11.6,0.1,23.3,3.3,26.2,16.4c1.2,5.6-0.2,11.5-3.6,16.2c-4.2,5.6-11.1,8.5-17.4,11.1c-0.1,0-0.2,0.1-0.3,0.1
			c8.6-2.6,16.7-4,22.6-2.5c5.6,1.4,10.3,4.8,13.1,9.8c1.6,2.7,2.4,5.4,2.8,8.1c12-15.2,25-29.7,39-42.3
			c12.7-11.5,26.6-21.7,41.4-30.2c8.7-5,21.3-11.6,31.1-12.7c7.9-0.8,15.5,2,20,8.7c7.5,11,1.9,21.5-4.6,30.7
			c-3.4,4.6-6.7,9.2-9.8,14c1.3-0.7,2.5-1.3,3.7-1.9c9.8-5,20-9.5,30.4-12.8c12.3-4,27.5-6.2,35.3,7.1c1.8,3,2.8,6.4,2.8,9.9
			c0.1,2.4-0.3,4.8-1,7c6.5-2.6,13.3-4.7,19-5.3c8.4-0.8,16.4,2.4,20.9,9.9c1.4,2.4,2.4,5.1,2.6,8c1,9.1-4.3,16.3-9.8,22.7
			c-4.2,5.1-8.6,10.1-12.3,15.4c3.7-1.7,7.4-3.5,11.2-5.1c1.3-0.6,2.8-1.2,4.1-1.8c10.4-4.4,21.2-8.4,32.3-11.3
			c12.6-3.3,28.5-5.1,35.6,9c1.3,2.7,2,5.6,2.1,8.6c0.3,10.8-7.6,18.2-14.9,24.7c-6.1,5.5-12.5,10.6-18.6,16
			c-3.8,3.4-7.6,6.7-11,10.4c-1.3,1.3-3.5,4-5.6,6.7h1.2c11.4,0.3,22.7-0.5,34-0.9c19.4-0.7,65.2-2.7,81.2,6
			c6.2,3.3,10.8,8.8,12,15.9c2.6,13.6-7.3,23.1-17.7,29.6C6908.5,6460.5,6908.3,6460.6,6908.1,6460.7z M6488.2,6320.5
			c-3.6,1.8-6.9,3.5-10.1,5.5C6481,6324.3,6484.4,6322.4,6488.2,6320.5z"/>
		<path id="path28" class="st0" d="M6903.6,6451.6c17.4,1.3,39,4.5,47.5,11.6c4.5,4,7.2,9.5,7.2,15.6c0,2.8-0.6,5.5-1.7,8
			c-3.7,8.3-11,11.5-18.8,14.3l4.8,0.3c2.9,0.2,5.8,0.3,8.8,0.8c9.9,1.7,18.8,7.5,20.1,18.2c0.6,4.3-0.2,8.5-2.3,12.2
			c-3.5,6.2-9.3,9.4-15.8,11.5c-5.3,1.9-10.8,3.2-16.3,4.5c-7.4,1.9-14.9,3.6-22.4,5.4c-2.8,0.7-5.6,1.3-8.4,1.9
			c6.9,3.5,13.8,6.7,20.9,9.9c8.5,3.6,19.3,8,28.6,7.7c9.7-0.3,19.3-5.4,27.3-10.4c15-9.4,28.8-21.1,42.5-32.3
			c40.8-33.2,81.7-66.4,124.9-96.5c41.8-29.1,85.8-54.8,133.1-73.9c20.7-8.4,42-15.8,63.6-21.6c7.5-2,15-4,22.7-5.1
			c11.5-1.8,23.8-0.1,28.4,12.7c1,3.1,1.3,6.4,0.8,9.6c-1.4,9-8,13.9-15.2,18.2c-5.4,3.2-11,6.1-16.5,8.8
			c-15.1,7.8-30.4,15.2-45.5,23.2c-6,3.1-11.9,6.3-17.8,9.7c-28.8,16.3-55.2,35.6-80.4,57.2c-14.3,12.3-29,25.2-40.9,39.8
			c-0.6,0.8-1.5,1.9-2.4,3.1c7.8,1.9,17.2,2.8,24.5,3.5c7.7,0.8,15.3,1.4,23,2.2c6.3,0.7,12.7,1.2,18.9,2.7
			c9.8,2.4,17.9,8.8,18.6,19.6c0.9,13.6-9.9,20.3-21,24.3c-6.5,2.4-13.2,4.1-20,6c-14.6,4.1-30,7.8-44.1,13.6
			c-6.1,2.5-11.7,5.3-15.4,11s-6.2,13.8-7.5,20.5c-1.3,6.5-0.7,10.9,0.8,17.3c2.6,12,7.2,19.8,16.8,27.5c8.5,6.8,19,12.5,28.6,17.4
			c10.6,5.4,21.4,10.3,32.2,15.2c5.9,2.8,11.8,5.5,17.5,8.6c2.4,1.3,4.6,2.6,6.8,4.3c7,5.3,10.7,13.6,8.1,22.3
			c-3.6,12.1-14.7,15.1-25.9,14.1c-8.3-0.8-33-5-44-3.9c1.9,9.5,11.5,27.7,14.5,33.7c9.1,17.8,18.6,36,32.1,51
			c14.2,15.8,32.4,28.4,51.1,38.4c2,1.1,4,2.1,6.1,3.1c9.2,4.7,18.6,9,27.8,13.8c4,2.1,7.8,4.2,11.4,6.7
			c7.7,5.6,12.6,13.6,10.5,23.3c-1.2,5.5-4.5,10-9.1,13c-10.8,6.9-31.1,4.3-43.3,2.2c-20.5-3.4-40.9-9.6-59.7-18.1
			c-42.8-19.4-82-52.2-116.3-83.9c-15.6-14.4-30.7-29.1-45.8-44.1c-11-11-21.9-22-33.4-32.5c-9.5-8.8-17.3-15.7-29.7-19.8
			c-7.2-2.4-11-3.9-16.3,2.1c-2.9,3.3-5.4,7.4-7.7,11.2c-3.9,6.7-7.5,13.5-11.1,20.3c-11.6,21.7-23.7,43.2-36.7,64.1
			c-11.2,17.8-23,35.2-35.1,52.4c0.8-0.7,1.7-1.3,2.6-2.1c8.3-6.2,18.7-8.6,27.5-1.3c0.9,0.8,1.7,1.5,2.4,2.4
			c3.9-4.1,7.7-8.3,11.5-12.6c4.2-4.7,8.4-9.4,12.7-14.2c5.6-6.2,11.4-12.4,17.4-18.2c2.6-2.5,5.3-4.9,8.3-7
			c8.8-6.1,20.2-6.5,28,1.9c6.9,7.6,6.1,16.8,2.6,25.7c-1.9,4.9-4.4,9.6-6.9,14.2c-6.7,12.4-14.6,24.2-22.9,35.5l-0.3,0.3
			c1.4-0.7,2.9-1.3,4.4-1.9c9.6-3.7,20.3-2.9,26.5,6.2c4.7,7,4.3,15.8-0.5,22.6c-4.5,6.2-12.9,12.6-19,17.4
			c-0.6,0.5-1.2,0.9-1.8,1.4c8.9-0.7,17.2,3,20.8,11.9c4.3,10.3-0.6,19.6-9.4,25.3c-3.1,2-6.3,3.7-9.6,5.4
			c-17,8.7-34.6,16.3-52.3,23.5c-25.9,10.6-52.3,20.1-79.1,28.1c-6.7,1.9-13.4,3.9-20,5.6c-38.8,10.1-79.1,16.3-119.1,18.4l-4.9,0.3
			c-5.4,3.3-11,6.3-16.5,9.4c-3.9,2.1-7.8,4.2-11.8,6.3c-30,15.7-61,26.7-93.3,36.4c17.2-0.3,34.3-1.6,51-4.4
			c12-1.9,23.7-4.7,35.4-7.8c4-1.1,8-2.3,12-3.2c7.2-1.7,14.1-2.1,20.6,2.6c2.5,1.9,4.6,4.2,6.1,7.1c4.9,9.8,0.7,19.5-7.1,26
			c-1.7,1.4-3.4,2.7-5.1,4c1,1,1.9,2.1,2.6,3.4c1.7,2.8,2.7,6,2.9,9.3c0.5,9.9-5.7,17.1-12.4,23.3c-1.2,1.1-2.4,2.3-3.8,3.4
			c8-0.1,15.4,2.8,19.5,10.4c2.4,4.3,3,9.2,2,14c-1.9,8.2-9.4,14.9-16.6,20v0.1c9.8,0.5,18.6,5.1,21.4,15.2
			c1.6,5.9,0.3,12.2-3.2,17.1c-6.1,8.4-22.6,14.5-32.2,18c-8.8,3.3-18.1,6.3-27.2,8.9c-4.5,1.3-9.1,2.4-13.6,3.5
			c0.1,0.1,0.1,0.1,0.2,0.1c8.9,4.4,15.2,12.4,13.3,22.8c-1.9,10.4-10.5,15.8-20.4,16.3c-5.6,0.3-11.1-0.2-16.6-0.8
			c-8.2-0.8-16.3-1.9-24.3-3.3c-56.9-9.4-116.8-18-171.9-35.2c-50.2-15.7-97.4-40.5-140.2-71.1c-27.7-19.7-53.7-41.7-78.8-64.7
			l-1.3-1.3c-45.6-6.1-91.2-16-134.9-30.7c-75.3-25.2-141.5-64.9-197.6-121.3c-43.1-43.3-79.5-95.4-106.6-149.9
			c-9.4-19-17.7-38.6-25.1-58.5c-4.5-12.3-8.5-24.9-13.7-37.1c-1.3-3.2-2.9-6.6-4.8-9.5l-1.9-2.7l-0.2-0.1l-1.6-1.2
			c-1.8-1.3-4-2.3-6.1-3.2c-12-5.3-24.2-9.6-35.4-16.9c-12-7.8-21.5-18.5-25.9-32.4c-3.7-11.5-3.6-25,0-36.6
			c4.1-12.9,12-20.7,23-28.1c20.9-14.2,41.6-14.6,63.9-5.7c-2.2-9.4,0.7-19.1,5.8-27.5c3.2-5.2,6.6-8.8,11-12.9
			c4.5-4.2,9-8.3,14.4-11.4c7.2-4.1,15.7-6,23.8-4.3c1,0.3,1.9,0.4,2.7,0.7c0.8-1.3,1.5-2.6,2.3-3.9c6.6-10.4,13.7-20.4,21.1-30.2
			c2.3-3,4.6-6.1,7-9c-0.2-3.5-0.3-7.2-0.3-10.7c0-46.4,15.5-93.7,46.1-128.9c30.2-34.8,90.1-69.9,136.9-69.9
			c40.3,0,76.7,17.6,104.1,45.7c19.1-27,39.2-52.6,64-75c30.7-27.6,70.5-53.1,108.7-68.9c13.9-5.7,28.5-10.5,43.3-13.3
			c9.9-1.9,23.2-4,31.9,1.9c4.4,2.9,7.3,7.5,8.3,12.7c0.8,4,0.3,8-1.4,11.6c-3.3,7-9.2,10.1-15.8,12.9c-4.6,1.9-9.4,3.6-14.1,5.3
			c-2.5,0.9-5.1,1.9-7.7,2.9c-10,4-16.5,8.6-24.9,15.2c-11.3,9.1-22.3,18.8-32.5,29.2c23.4-19.7,48.9-36.6,76.7-49.7
			c10.2-4.9,21.1-9.3,31.8-13.2c11.4-4.1,32.3-12,43.9-7.3c5,1.9,8.9,5.7,11,10.6c4.3,9.9-0.2,19-7.8,25.5c-3.2,2.7-6.6,5.1-9.9,7.3
			c-8.6,5.9-17.4,11.5-25.9,17.4c-6.7,4.5-13.2,9.4-19.6,14.4c16.8-11.4,34.5-22.2,52.9-29.8c15.9-6.5,30.6-9.2,47.6-10.6l2.8-0.3
			c5.8-0.4,11.7-0.8,17.5-0.8c11.6,0.1,23.3,3.4,26.2,16.4c1.2,5.7-0.2,11.5-3.6,16.2c-4.2,5.6-11.1,8.5-17.4,11.1
			c-0.1,0.1-0.2,0.1-0.3,0.2c8.6-2.7,16.7-4,22.6-2.5c5.6,1.3,10.3,4.7,13.2,9.7c1.5,2.7,2.4,5.5,2.7,8.1c12-15.2,25-29.7,39-42.3
			c12.7-11.5,26.6-21.7,41.4-30.2c8.7-5,21.3-11.6,31.2-12.7c7.8-0.8,15.5,2,20,8.8c7.4,11,1.9,21.4-4.7,30.7
			c-3.3,4.5-6.7,9.1-9.7,13.9c1.2-0.6,2.4-1.3,3.6-1.9c9.8-5,20-9.4,30.4-12.8c12.3-4,27.5-6.1,35.4,7.2c1.7,2.9,2.7,6.4,2.8,9.9
			c0,2.4-0.4,4.8-1.1,7c6.5-2.6,13.3-4.7,19-5.2c8.4-0.8,16.5,2.4,20.9,9.9c1.4,2.4,2.4,5.2,2.6,8c1,9.2-4.3,16.3-9.8,22.8
			c-4.2,5-8.5,10-12.3,15.4c3.7-1.8,7.4-3.5,11.2-5.1c1.3-0.6,2.8-1.2,4.1-1.8c10.4-4.4,21.3-8.3,32.3-11.3
			c12.6-3.3,28.5-5.1,35.6,9.1c1.3,2.6,2,5.6,2.1,8.6c0.3,10.7-7.6,18.1-14.9,24.7c-6.1,5.4-12.5,10.5-18.6,15.9
			c-3.8,3.4-7.6,6.8-11,10.4c-1.3,1.3-3.5,4-5.6,6.7h1.2c11.4,0.3,22.7-0.5,34.1-0.9c19.3-0.6,65.1-2.7,81.1,6
			c6.2,3.4,10.8,8.9,12.1,15.9c2.5,13.6-7.4,23.1-17.8,29.6C6904,6451.4,6903.8,6451.5,6903.6,6451.6z M6483.6,6311.5
			c-3.5,1.7-6.9,3.5-10.1,5.4C6476.5,6315.2,6479.9,6313.3,6483.6,6311.5z"/>
		<path id="path30" d="M6678.2,6345.4c1.9-1.5,3.9-3.1,5.8-4.6c14-10.8,29.3-20.6,45.2-28.4c7.3-3.5,21-9.9,29.1-10.7
			c2.8-0.3,5.6,0.3,7.1,2.9c2.8,4.7-3,10.7-5.8,14.1c-4.5,5.5-9.1,10.7-13.1,16.5c-1,1.5-2,3-2.9,4.5c-3.8,6-7.3,12.8-9.6,19.5
			c-0.6,1.7-2.4,8.2-1.7,10.2c2.7,0.6,12.1-3.5,14.3-4.5c9.7-4.2,19.1-9.1,28.9-13.3c1.3-0.6,2.6-1.1,3.9-1.7
			c9.8-4,20.2-7.9,30.4-10.6c4.9-1.3,15.9-4.5,19,1.5c0.3,0.8,0.6,1.6,0.6,2.4c0.1,4.8-6.8,10.5-10.1,13.5
			c-6.1,5.4-12.4,10.5-18.5,15.9c-4.1,3.6-8.2,7.3-12,11.3c-4.2,4.4-17.2,19.5-13.2,26.5c0.3,0.6,0.8,1.1,1.3,1.4
			c3.8,2.9,13.1,3.2,17.7,3.4c11.5,0.3,23.3-0.6,34.8-0.9c14.8-0.5,61.7-2.4,73.8,4.2c2.4,1.2,4.2,3.1,4.7,5.8
			c1.3,6.5-6.5,11.7-11.2,14.6c-7.8,4.9-16.7,9-25.1,12.6c-5.6,2.5-11.4,4.8-17,7.1c-8.8,3.5-17.6,6.9-26.4,10.3
			c19-2.2,38-4,57.2-3.5c10.4,0.2,48.6,2.4,56.4,8.9c1.3,1.2,2.2,2.7,2.2,4.5c0,5.6-8.6,7.8-12.9,9.4c-7.4,2.5-14.8,5-22.2,8.1
			c-3,1.3-6,2.6-8.8,4c-6.7,3.3-13.5,7.1-19.6,11.3c-1.3,0.8-4.8,3.4-7.1,5.6c8.8,0.8,33.9-1.1,38.7-1.3c1.9-0.1,3.6-0.2,5.5-0.2
			c8.1-0.3,16.3-0.3,24.3,0.2c4.5,0.3,14.7,0.4,15.4,6.5c0.7,4.8-4.7,6.9-8.3,8.1c-4.9,1.7-10.1,3-15.1,4.2
			c-7.3,1.9-14.7,3.5-22.2,5.3c-15.6,3.6-31.2,7.4-46.7,11.5c10.3,5.1,20.5,10.3,30.7,15.4c8.6,4.2,17.2,8.5,26,12.3
			c10.7,4.6,22.9,9.3,34.8,8.9c12.6-0.3,24.2-6.1,34.6-12.6c15.2-9.6,29.9-22,44-33.4c40.4-32.9,81.2-66,124.1-95.9
			c40.9-28.6,83.7-53.6,130.1-72.3c20-8.1,41.1-15.4,62.1-21.1c6.8-1.9,14-3.7,21-4.8c4-0.6,10.8-1.7,12.5,3.2
			c0.3,0.8,0.3,1.7,0.3,2.5c-0.6,3.6-5.5,6.3-8.3,8c-5.1,3-10.4,5.7-15.7,8.4c-15.2,7.8-30.6,15.2-45.7,23.2
			c-6.1,3.2-12.1,6.5-18.2,9.9c-30,17-56.5,36.4-82.6,58.8c-14.9,12.8-30.3,26.5-42.7,41.7c-3,3.8-10.3,12.8-9.2,18
			c0.7,3.3,5.1,5.3,7.9,6.3c9.4,3.5,23.1,4.9,33,5.9c7.8,0.8,15.4,1.5,23.2,2.3c5.4,0.5,11.6,1,16.8,2.3c3.4,0.8,7.3,2.5,7.6,6.6
			c0.4,5.6-7.2,8.2-11.4,9.6c-6.1,2.3-12.6,4-19,5.7c-14.9,4.2-31.4,8.2-45.7,14.1c-9.1,3.8-16.6,8.3-22,16.7
			c-4.7,7.3-8,17.1-9.6,25.6c-1.7,8.5-1.1,14.7,0.8,23.2c3.4,15,9.7,25.7,21.8,35.5c9.2,7.5,20.7,13.8,31.3,19.2
			c10.8,5.5,21.7,10.4,32.7,15.5c5.6,2.5,11.2,5.1,16.6,8.1c1.7,0.9,3.5,1.9,5.1,3.1c2.1,1.6,3.8,3.8,2.9,6.7
			c-1.3,4.5-7,4.1-10.6,3.8c-12.2-1.1-47.6-8.3-57.3-0.5c-9.9,7.8,8.8,42,13.5,51.3c9.9,19.1,19.8,38,34.2,54.1
			c15.4,17.2,35,30.7,55.2,41.6c2.1,1.1,4.1,2.2,6.2,3.3c9.2,4.6,18.6,9,27.7,13.7c3.3,1.7,6.7,3.5,9.6,5.6c2.8,1.9,5.6,4.8,4.9,8.5
			c-0.4,1.6-1.4,2.9-2.8,3.8c-6.4,4-26,1.3-33.1,0.1c-19.1-3.1-38.5-9-56.1-17c-40.9-18.4-79.6-51-112.5-81.4
			c-15.5-14.2-30.5-28.9-45.5-43.7c-11.1-11-22.2-22.2-33.7-32.9c-11.4-10.4-20.3-18-35-22.9c-12.9-4.2-22.2-4.6-31.8,6.3
			c-3.5,4-6.6,8.8-9.3,13.4c-4,6.8-7.8,13.9-11.5,20.8c-11.5,21.6-23.2,42.5-36.2,63.3c-18.5,29.5-38.9,58.3-59.8,86.2
			c-18.6,24.7-38.2,49.4-59,72.4c4.5-2.4,9-4.8,13.4-7.4c12.9-7.6,24.8-16.2,36-25.9c9.4-8.3,18.2-17.3,27-26.3
			c7.4-7.5,14.9-15.1,22.7-22.2c2.7-2.4,5.4-4.9,8.3-7.1c2.6-1.9,6.3-4.3,9.4-1.7c1.1,0.8,1.7,2.2,1.8,3.5c0.3,4.1-7,15.3-9.2,19
			c-0.8,1.3-2.7,4.6-4.4,7.8c6-4,14-10.4,16.7-12.7c11-9.2,19.5-18.8,29.1-29.4c4.1-4.7,8.3-9.4,12.6-14.1
			c5.4-5.9,11-11.9,16.8-17.4c2-1.9,4.2-4,6.5-5.5c2.8-1.9,6.4-3.2,9.1-0.3c2.6,2.9,1.1,7.4-0.2,10.6c-1.7,4.3-4,8.5-6.1,12.6
			c-6.4,11.6-14,23.2-21.9,33.8c-1.7,2.3-3.4,4.5-5.1,6.7c-8.3,10.4-17.2,20-26.3,29.7c-1.5,1.5-6.6,6.7-9.9,10.7
			c10.2-2.7,30.1-11.4,35-13.6c7.2-3.3,14.3-6.7,21.6-10.2c3.7-1.8,12-6.7,15.2-1.9c1.3,1.9,0.9,4.2-0.3,6.1
			c-2.9,4.2-12,11-16.1,14.2c-9.4,7.4-19.2,14.5-29.1,21.1s-20.1,12.9-30.2,19.3c-1.6,0.9-5.6,3.4-9.2,5.8
			c5.5-0.8,11.9-2.2,14.1-2.7c13.8-2.9,27.4-6.7,40.9-10.6c1.3-0.4,2.4-0.8,3.7-1.1c4.3-1.3,8.6-2.5,13-3.5c3.5-0.8,9.5-2.5,11.4,2
			c1.4,3.5-1.3,5.9-3.8,7.5c-2.7,1.7-5.6,3.2-8.4,4.6c-16.5,8.4-34,16-51.1,23c-25.4,10.4-51.5,19.9-77.8,27.7
			c-6.5,1.9-13.1,3.7-19.6,5.5c-37.7,9.8-77.2,15.8-116.2,17.9l-8.3,0.5c-6.3,3.7-12.6,7.3-19.1,10.9c-3.9,2-7.8,4.1-11.5,6.1
			c-30.3,15.8-60.4,26.4-93.1,36.1c-29.6,8.7-59.7,16.3-90.1,22.4c12.1,1.3,24.4,2.4,36.6,3.4c37,2.6,76.6,3.5,113.3-2.6
			c12.5-2,24.6-4.9,36.7-8.2c3.9-1,7.8-2.1,11.6-3c2.7-0.7,6.3-1.5,8.8,0.3c0.7,0.4,1.2,1,1.6,1.8c1.7,3.5-1,6.4-3.5,8.4
			c-2.4,2.1-5.3,4-8,5.7c-8.8,5.7-18.3,11-27.7,15.8c-2.4,1.3-5,2.5-7.5,3.7c-8.8,4.3-17.5,8.3-26.3,12.5c-0.3,0.2-0.8,0.3-1.4,0.7
			c7.8-1.3,16.6-3.5,19.7-4.2c8.8-2.3,17.3-5.1,25.9-7.8c4.2-1.3,13.6-4.6,17.7-2.4c0.8,0.4,1.5,1.1,2,1.9
			c3.1,5.1-3.6,11.4-6.9,14.5c-6,5.6-13,10.8-19.6,15.5c-3.2,2.2-6.4,4.3-9.6,6.4c-3.6,2.4-20.6,13.1-26.5,18.5
			c7.2,0.5,23.2-2.5,27.3-3.5c0.9-0.2,1.9-0.4,2.7-0.6c7.6-1.9,14.9-4,22.4-6c4.4-1.1,13.5-4.2,16.3,0.9c0.7,1.2,0.8,2.5,0.5,3.8
			c-1.1,5.1-11.7,12.1-15.8,14.9c-9.6,6.3-20.2,12-30.8,16.3c-9.8,3.9-19.9,6.7-30,9.3c8.8,0.5,17.7,0.4,26.5,0.1
			c2.5-0.1,5.1-0.3,7.5-0.4c9.8-0.6,19.5-1.5,29.1-2.1c3.4-0.2,6.9-0.4,10.3-0.2c3.3,0.2,7.2,0.8,8.3,4.5c0.4,1.7,0,3.4-1,4.7
			c-5.4,7.4-42.3,18.9-51.5,21.5c-6.2,1.7-12.5,3.3-18.8,4.5c-12,2.4-23.9,3.7-36.1,4.4c-1.8,0.1-7.7,0.3-12,0.7
			c6.3,3.8,17.9,8.6,21.2,9.9c1.9,0.8,4,1.6,6,2.3c6.1,2.3,12.2,4.4,18.3,6.7c3.8,1.4,12,3.9,11,9.4c-0.7,3.5-4,4.3-7,4.5
			c-4.5,0.3-9.8-0.3-14.3-0.7c-7.8-0.8-15.7-1.9-23.4-3.2c-53.8-9-117.8-18.4-169.9-34.7c-48.8-15.2-94.6-39.4-136.1-69.1
			c-27.1-19.4-52.9-41.1-77.4-63.6l-4.7-4.4c-47.3-6.1-93.9-16.3-136.6-30.6c-73.3-24.6-137.4-63-192-117.8
			c-41.9-42-77.5-93-103.9-146.2c-9.2-18.6-17.2-37.6-24.4-57.1c-4.6-12.4-8.8-25.5-14-37.7c-1.7-4-3.7-8.2-6.1-11.9l-4.1-6.2
			l-2.1-0.9l-0.4-0.2l-0.3-0.3c-2.8-1.9-5.8-3.4-8.8-4.7c-11.1-5-23.2-9.2-33.4-15.8c-9.2-6-16.6-14.1-20-24.7
			c-2.8-8.8-2.8-19.1,0-27.8c2.9-9.6,9.1-15,17.2-20.5c18-12.3,34.9-11.4,54.6-2.5c14.3,6.5,28.8,16.4,41.7,25.4
			c8.3,5.7,16.5,11.6,24.8,17.4c6.6,4.5,13.4,9.2,20.3,13.1c2.2,1.2,10.8,5.6,14.2,5.5c-0.3-2.4-3.5-6.8-4.5-8.2
			c-7-9.4-18.1-18.9-27.1-26.3c-7.9-6.6-16-12.8-24.3-18.9c-6.2-4.5-12.7-8.8-19-13.4c-3.5-2.7-7.7-5.8-9.7-9.9
			c-3.3-6.7-0.7-14.1,2.9-20c2.5-4.1,5-6.6,8.5-9.8c3.6-3.3,7.5-7,11.7-9.4c4.2-2.3,9-3.5,13.8-2.6c3.7,0.8,6.2,2.6,9.4,4.5
			c0.2,0.1,0.7,0.3,0.9,0.5c0.6-0.3,1.5-1.5,1.8-1.9c2.9-3.8,5.5-8.8,8-12.7c6.3-10.1,13.2-19.8,20.5-29.2c3.3-4.5,6.7-8.8,10.1-13
			l-0.3-5c-0.2-3.5-0.3-7-0.3-10.5c0-43,14.3-86.9,42.5-119.4c26.6-30.7,82.8-64.9,125.9-64.9c42.5,0,79.9,21.8,105.3,54.8
			c22-31.8,43.6-61.7,72.6-87.8c29.2-26.4,68.2-51.2,104.5-66.3c12.9-5.3,26.7-9.9,40.4-12.5c4.5-0.8,16.9-3.1,21.1-0.3
			c1.2,0.8,1.9,1.9,2.2,3.2c0.8,4.9-5.1,7.2-8.6,8.6c-4.5,1.9-9,3.5-13.5,5.1c-2.7,1-5.5,2-8.2,3.1c-11.6,4.7-18.6,9.5-28.5,17.4
			c-14.1,11.3-28,23.7-40.1,37.1c-13.1,14.2-23.8,29.7-31.8,47.4c-2.8,6.1-5.3,12.5-7.1,19c-0.4,1.5-1.5,6.1-1.6,8.8
			c5.4-2.8,15-12.2,19-16c10.5-10.1,20.9-20.5,31.6-30.4c2.9-2.7,5.9-5.4,8.8-8.1c24.5-21.6,51.1-39.9,80.7-53.8
			c9.4-4.5,54.7-24,64.1-20.2c1.3,0.5,2.4,1.5,3,2.9c1.5,3.5-1.3,6.7-3.9,8.8c-2.7,2.3-5.8,4.4-8.8,6.4
			c-8.5,5.9-17.3,11.5-25.9,17.4c-19.9,13.6-38.8,28.7-53.7,47.8c-5.7,7.3-11.2,15.6-15.3,24c-1,2-4.5,9.6-4.6,13
			c8.3-1.5,38.8-24.1,44.7-28.4c4.8-3.5,9.6-6.9,14.5-10.4c18.8-13.1,40.2-27.4,61.5-36.1c14.7-6.1,27.5-8.3,43.2-9.6
			c0.9-0.1,1.8-0.2,2.7-0.3c5.4-0.4,11-0.8,16.3-0.8c4,0,11-0.1,12,5c0.3,1.5,0,3.1-1,4.3c-1.9,2.7-8.3,5.2-11.4,6.6
			c-5.9,2.4-11.8,4.8-17.7,7.2c-2.9,1.3-5.7,2.4-8.6,3.8c-12.7,5.9-23.2,12.6-32.8,22.7c-8.9,9.4-17,21.5-21.2,33.8
			c-1.3,3.9-2.4,8.2-2.6,12.2c-0.1,1-0.2,4.2,0.3,5.5c0.2,0,0.3-0.1,0.3-0.1c4.1-1.3,13.4-9.6,16.8-12.6c9.5-8.1,19-15.9,29.5-22.8
			c2.4-1.6,5-3.1,7.4-4.6c9.4-5.5,42.2-22.7,53-20.1c1.7,0.4,3.2,1.3,4.1,2.9c2.5,4.4-1.4,9.5-4,12.9c-3.5,4.3-7.2,8.3-10.9,12.6
			c-1.9,2.1-3.8,4.4-5.6,6.7c-7.9,10.1-11.6,19.2-15.1,31.5c-2.5,9-4.1,17.2-4.5,26.6v0.9c4,1,8.2,2.1,12.2,3.1l0.5-0.9
			c4.4-8.3,9-16.3,13.7-24.3c20.9-35,47.2-72.3,77.6-99.7c11.8-10.7,25.1-20.5,38.9-28.5c6.1-3.5,18.3-10,25.4-10.8
			c2.5-0.3,5,0.3,6.5,2.4c3,4.4-1.9,10.4-4.5,14c-4,5.6-8,10.9-11.5,16.7c-1.2,1.9-2.2,3.9-3.3,5.9c-3,5.9-5.9,12.5-7.7,18.9
			c-0.4,1.7-1.9,7.6-1.3,9.8c2.7,0,10.1-3.8,12-4.8c8.1-4.2,15.9-8.8,24.1-12.9c8.9-4.5,18.7-8.9,28.2-12c4.8-1.5,15.2-5,18.4,0.7
			c0.5,0.8,0.8,1.9,0.8,2.8c0.1,4.5-5.8,10.4-8.8,13.4c-5.3,5.6-10.9,10.8-16.2,16.3c-3.4,3.5-6.7,7.1-9.9,10.8
			C6685.7,6330.9,6680.3,6338.6,6678.2,6345.4z"/>
		<path id="path32" class="st1" d="M6303.2,6380.8c72.3,3.3,147.8,16,227.2,39.2c21.1,6.1,42.5,13.1,63.7,20.5l-0.1,0.1
			c-25.9,37.4-48.4,78.3-65.9,120.1c-5.2,12.4-10.1,25.1-14.3,37.9c-3.5-1.9-6.8-4-10.1-6.4c-9.8-7.2-18.2-16.7-25.7-26.3
			c-10.9-13.9-20.8-29-30.8-43.5c-12.6-18.1-25.2-36.1-38.9-53.2c-7.6-9.5-15.5-18.7-23.8-27.5
			C6350.6,6406.3,6329.7,6388.6,6303.2,6380.8z M6858.3,6553.4c54.2,27,76.8,39.9,98.2,39.3c24.3-0.7,47-19.1,81.3-47
			c34.2-27.9,80.1-65.3,123.8-95.8c43.7-30.4,85.2-54.1,129.2-71.8c44-17.8,90.3-29.6,89.5-25.1c-0.7,4.5-48.4,25.3-85.5,46.3
			c-37.1,21.1-63.6,42.3-83.4,59.3c-19.9,17-33.1,29.8-43.3,42.3c-10.1,12.6-17.3,24.9,0.8,31.5c17.9,6.6,60.9,7.5,73.5,10.6
			c12.6,3-5.4,8.3-22.8,13.1c-17.4,4.9-34.4,9.4-46.2,14.3c-12,4.9-19,10.3-24.2,18.4c-5.1,8-8.6,18.7-10.2,27.2
			c-1.7,8.4-1.4,14.7,0.8,25c2.3,10.3,6.7,24.5,23.3,38.1c16.7,13.6,45.5,26.3,64.9,35.3c19.4,8.9,29.3,14.2,16.3,13
			c-13.1-1.2-48.9-8.8-60.6,0.5c-11.5,9.2,1.2,35.2,12.4,56.9c11.1,21.7,20.6,39.2,34.8,55c14.2,15.8,33,30.1,56.4,42.5
			c23.4,12.6,51.3,23.4,45.4,27.2c-5.9,3.8-45.7,0.5-84.8-17.3c-39.3-17.7-78-49.9-111.4-80.5c-33.3-30.7-61.2-60.1-79.2-76.6
			c-17.9-16.6-25.9-20.4-36.6-23.9c-10.7-3.5-23.9-6.8-36.6,7.6c-12.8,14.4-25.1,46.6-57.5,98.1c-32.3,51.6-84.8,122.4-126.4,166.9
			c-41.6,44.4-72.3,62.3-99.2,77c-27,14.7-50.1,26-103.8,41.9c-53.6,15.8-137.7,36.1-231.1,39.7c-93.3,3.5-195.9-9.7-277.7-37.1
			c-81.7-27.5-142.7-69-190.2-116.8c-47.5-47.8-81.5-101.6-103-145c-21.6-43.4-30.6-76.2-38.3-94.5c-2.3-5.3-4.5-9.4-6.6-12.6
			c7.6,3.6,15.1,7.4,22.4,11.4c23.7,12.7,46.3,27.5,68.8,42.1c30.7,20.1,61.2,40.4,92.3,59.8c36.5,22.7,73.5,44.8,111,65.7
			c25.1,14,50.5,27.5,76.4,40.2c22.6,11.1,45.7,21.7,69.4,30.4c45.6,16.8,88.3,25,135.7,10.9c8.1-2.4,16.1-5.4,24-8.6
			c43.2-17.5,88.4-44.6,120.6-78.6c28.7-30.2,49.7-68.8,59.7-109.3c4-15.8,6-31.4,7.4-47.5c0.9-11.4,1.4-23.8,3.8-35
			c1.6-7.8,4.4-14.6,8.3-21.6c3.3-5.9,7.2-11.5,9.8-17.7c1-2.4,1.9-4.6,2.4-7.1c29.1-7.2,58.5-16.5,86.5-26.6
			c16.3-5.9,32.6-12.3,48.4-19.5c21.6-9.8,42-21.2,62.9-32.4c20-10.6,39.8-20.4,61-28.1c11.2-4,22.7-7.6,34.1-10.9L6858.3,6553.4z"
			/>
		<path id="path34" class="st1" d="M5849.3,6685.7c10.4,13.8,5.9,21.4-15.6,9.4c-21.5-12-60-43.7-86.5-55.7
			c-26.5-12-40.9-4.1-50,2.1c-9.3,6.3-13.2,11-15.5,18.1c-2.3,7.1-2.7,16.5,0,25c2.7,8.5,8.6,16.1,18.2,22.3
			c9.5,6.2,22.7,11,32.7,15.4c3.5,1.6,6.7,3.1,9.7,5.3c11,5,21.8,10.3,32.7,16.1c44,23.7,86.5,55.3,161.4,102.1
			c74.9,46.8,182.2,108.8,255.9,135.9c73.7,27.2,113.9,19.6,156.4,2.4c42.5-17.2,87.4-44.1,119.1-77.5c31.7-33.3,50.1-73,58.6-107.2
			c8.5-34.3,7.1-63.1,11.1-82.3c4-19.1,13.5-28.6,18.4-40.2c5-11.5,5.4-25.3-0.8-37.6c-6.1-12.2-18.9-23.2-31.9-30.4
			c-13-7.3-26.2-11.1-48.9-40.2c-22.7-29.1-54.8-83.5-93.3-123.8c-61.5-64.5-79.5-68.6-164.1-63.7c-30.4,1.8-60.2,5.2-88.8,10.1
			c-25.3-36.7-63.8-60.2-107-60.2c-76.1,0-137.7,72.9-137.7,162.7c0,1.9,0.1,4,0.1,5.9c-16.1,15.8-28,30.6-36.9,42.3
			c-19.7,26.1-24.7,37-28.4,42c-3.7,5-6.1,4-8.6,2.5c-2.5-1.4-5.1-3.3-8.1-3.9c-3.1-0.7-6.7-0.1-10.6,2.1c-3.9,2.2-7.8,6-11,8.8
			c-3,2.8-5.1,4.7-7.7,8.8c-2.4,4.1-5.3,10.4-2.7,15.6c2.6,5.3,10.6,9.5,27.3,21.7C5813.7,6651.8,5839,6671.9,5849.3,6685.7z"/>
		<path id="path36" class="st2" d="M5830.8,6642.8c-22.5-12.4-42.5-20.3-61.8-27.1c0.2,0.8,0.4,1.5,0.8,2.2
			c2.6,5.3,10.6,9.5,27.3,21.7c16.7,12.1,42,32.3,52.3,46.1c8.6,11.4,7.1,18.4-5.6,14c14.1,6.1,30.2,13.9,63.3,35.8
			c37.4,24.9,96.6,67.8,126.5,89.5c29.1,21.1,97.6,52.3,134.1,53.4c11.8,0.4,31.7-0.1,26.2-3.3c-5.4-3.2-36.1-9.1-64.6-21.4
			c-28.6-12.4-54.9-31.2-87.7-56.4c-32.7-25.2-71.8-56.7-108.8-84.9C5895.8,6684.4,5861,6659.5,5830.8,6642.8z"/>
		<path id="path38" class="st3" d="M5765.9,6649.6c-6.6-4-12.9-7.6-18.7-10.2c-26.5-12-40.9-4.1-50,2.1c-9.3,6.3-13.2,11-15.5,18.1
			c-2.3,7.1-2.7,16.5,0,25c2.7,8.5,8.6,16.1,18.2,22.3c9.5,6.2,22.7,11,32.7,15.4c3.5,1.6,6.7,3.1,9.7,5.3c11,5,21.8,10.3,32.7,16.1
			c44,23.7,86.5,55.3,161.4,102.1c74.9,46.8,182.2,108.8,255.9,135.9c73.7,27.2,113.9,19.6,156.4,2.4
			c42.5-17.2,87.4-44.1,119.1-77.5c31.7-33.3,50.1-73,58.6-107.2c8.5-34.3,7.1-63.1,11.1-82.3c4-19.1,13.5-28.6,18.4-40.2
			c5-11.5,5.4-25.3-0.8-37.6c-6.1-12.2-18.9-23.2-31.9-30.4c-9-5.1-18.1-8.5-30.5-19.8c13.7,25.4,20.8,43.3,22,72.1
			c1.3,32-4.9,77.4-7.8,105.3c-2.9,27.9-2.4,38.2-10.6,56.4c-8.3,18.2-25.3,44.2-37.6,61.7c-12.3,17.5-19.9,26.5-35.5,37.4
			s-39.3,23.6-71.2,32.1c-31.8,8.5-72,12.8-117.7,5.5c-45.6-7.3-96.6-26.3-127.8-39.9c-31.3-13.7-42.5-22.2-80.9-45.2
			c-38.2-22.9-103.5-60.3-141.3-83.6c-37.8-23.2-48.3-32.5-63.7-44.7c-15.4-12.2-35.8-27.5-49.4-36.7c-13.6-9.3-20.1-12.6-30.2-17.6
			c-10.1-5.1-23.7-11.8-28.8-19.1c-5.1-7.4-1.9-15.4,2.7-20.2c4.5-4.8,10.4-6.3,19-6.3C5742.9,6646.3,5754.4,6647.9,5765.9,6649.6z"
			/>
		<path id="path40" class="st4" d="M5857.6,6521.1c-0.2-3.4-0.3-6.8-0.3-10.3c0-59.6,27.1-111.7,67.6-140
			c-6.8,7.3-12.9,15.3-18.2,23.8c-18.5,29.6-27.7,64.3-27.7,99.1c0,1.3,0,2.7,0.1,4C5871.5,6505.4,5864.4,6513.1,5857.6,6521.1z"/>
		<path id="path42" d="M6030.9,6374.9c9.6,2,18.6,5.7,26.9,11c37.5,23.8,50.4,72.2,41.7,114c-8.7,41.8-39.7,81-83.6,88
			c-9.6,1.5-19.5,1.3-29-0.6c-9.5-2-18.6-5.7-26.9-11c-37.4-23.8-50.3-72.3-41.7-114c8.7-41.8,39.8-81,83.6-88
			C6011.5,6372.8,6021.3,6372.9,6030.9,6374.9z"/>
		<path id="path44" class="st5" d="M6029.9,6379.4c47.6,9.9,76.7,63.3,65,119.5c-11.6,56.2-59.6,93.8-107.2,83.9
			c-47.5-9.9-76.7-63.3-65-119.5C5934.4,6407.1,5982.4,6369.5,6029.9,6379.4z"/>
		<path id="path46" d="M5956.3,6451.5c9.9,2.1,16,13.3,13.6,25c-2.4,11.8-12.5,19.6-22.4,17.6c-9.9-2.1-16-13.3-13.6-25
			C5936.3,6457.4,5946.4,6449.5,5956.3,6451.5z"/>
		<path id="path48" class="st6" d="M5985.8,6406.1c16.8-5.1,36.6-5.8,56.5-2.2c12.7,2.4,25.4,6.4,38.3,11.1
			c-12-18.1-29.5-31.3-50.7-35.6c-40.9-8.4-82,18.1-100.2,61.4c4.3-3.6,8.9-7.3,13.9-11.1C5955.2,6420.8,5969,6411.2,5985.8,6406.1z
			"/>
		<path id="path50" class="st6" d="M5966.8,6550.1c-14.8-10.4-29.9-26.5-45.1-43.8c6.1,38.2,31.1,69.2,66.1,76.5
			c42.4,8.8,85.1-20,102.1-66.2c-7.7,8.5-15.2,16.4-22.7,23.2c-15.4,14-30.1,22.8-46.6,25.3
			C6004.1,6567.5,5985.7,6563.4,5966.8,6550.1z"/>
		<path id="path52" class="st3" d="M6137.4,6464.1c4,8.8,12.6,37.5,15.9,65.5c3.4,28.1,1.6,55.6-7.2,77.9
			c-8.8,22.3-24.9,39.5-44.5,50.5c-19.7,11-43.1,16-64.5,16.7c-21.3,0.8-40.8-2.8-55.8-8.8c-15.2-5.9-26-14.2-37.5-27.7
			c-11.5-13.6-23.5-32.5-18.4-31.8c5.1,0.8,27.3,21.1,57.6,28.6c30.2,7.4,68.5,1.9,94-13.1c25.5-15,38.3-39.6,45.7-56.6
			s9.2-26.5,10.3-39.9c1-13.5,1.3-30.9,1.2-45.2C6133.9,6466.1,6133.5,6455.2,6137.4,6464.1z"/>
		<path id="path54" class="st7" d="M5922.7,6420.5c7-11.3,17.2-24,28.4-34.8c11.3-10.7,23.5-19.5,32-24.8
			c8.4-5.3,13.1-7.2,20.2-10.2c7.2-2.9,17-7,14.7-8.6c-2.3-1.7-16.8-1-27.3,1.4c-10.6,2.4-17.4,6.3-24.3,10.3
			c-7.1,4-14.3,7.9-22.7,16.5c-8.4,8.6-17.9,22-24.5,34.7c-6.7,12.6-10.6,24.7-12,32.3c-1.3,7.6-0.3,10.8,2.2,7.5
			C5911.8,6441.7,5915.6,6431.8,5922.7,6420.5z M5883.8,6505.2c-7,11.6-16.8,22.7-25.9,33.8c-9,11.1-17.3,22.2-23.5,31.8
			c-6.3,9.5-10.5,17.6-16,20c-5.6,2.4-12.3-0.8-18.5-0.3c-6.2,0.3-12,4.2-15.8,8.1c-3.8,3.8-5.6,7.6,0.3,12
			c5.9,4.5,19.5,9.7,33.5,16.7c14,6.9,28.4,15.5,44.4,26.5s33.6,24.5,34.6,22.3c1-2.3-14.6-20.2-24.9-31.1
			c-10.4-10.8-15.7-14.4-21.6-18.1c-6-3.6-12.7-7.3-17.9-9.9s-8.8-4.1-12-5.4c-3-1.2-5.5-2.2-1.4-2.7c4-0.5,14.7-0.7,19.5-3.8
			c4.7-3.2,3.5-9.5,4.4-16.8c0.9-7.4,3.9-15.9,10.4-25.5c6.5-9.7,16.5-20.4,23.5-28.8c7-8.3,10.9-14.4,13.8-19.5
			c2.9-5.1,5-9.4,6.2-16.8c1.3-7.2,1.7-17.7-0.1-16.8C5894.9,6481.6,5890.8,6493.7,5883.8,6505.2z M5757.8,6668.5
			c15.8,10.3,50.2,29.8,85.9,55c35.6,25.2,72.5,55.9,104.1,78.3c31.5,22.5,57.8,36.6,81.9,44.8c24.1,8.2,46,10.4,45,7.8
			c-1.1-2.6-25.2-9.9-50.4-23.7c-25.1-13.7-51.4-33.9-77.5-53s-52.1-37.3-77.3-53.5c-25.4-16.2-49.9-30.4-70-41.4
			c-20-11-35.6-18.8-45-22.2C5745.1,6657.3,5742.1,6658.3,5757.8,6668.5z"/>
		<g>
			<path id="path56" class="st8" d="M6291.6,6427.7c30.9,15.6,65.2,44,93.3,77.8s50.1,73,62.3,107.2c12.3,34.2,14.9,63.3,13.1,75.6
				c-1.8,12.4-7.9,8.2-7,20.6c1,12.6,9,41.9,4.5,73.5c-4.5,31.8-21.6,65.8-34.4,86.6c-12.9,20.7-21.6,28.2-40.8,36.5
				c-19.2,8.3-48.7,17.4-74.4,21.6c-25.6,4.3-47.3,3.7-72.6-1.6c-25.4-5.4-54.2-15.5-65.5-19.6c-11.4-4.1-5.2-2.3,10.4,0.8
				c15.6,3,40.6,7.3,71.4,4c30.7-3.3,67.3-14.2,91.7-21.1c24.3-7,36.5-10.1,48-20.3c11.5-10.2,22.4-27.5,29.5-45.3
				c7.1-17.9,10.4-36.3,11.1-56.9c0.7-20.6-1.2-43.2-4.6-43.8c-3.5-0.6-8.4,20.9-12,34c-3.7,13.1-6.1,17.9-10,23.4
				c-4,5.6-9.7,11.9-13.8,16.4c-4.2,4.5-6.7,7.1-12,10.4c-5.2,3.5-13,7.8-25.6,11.9c-12.7,4.1-30.2,8.2-48.7,10.5
				c-18.6,2.4-38.2,3-50.4,2.8c-12.1-0.3-16.9-1.4-2.4-4.8c14.4-3.5,47.9-9.1,73.4-20.6c25.4-11.5,42.6-28.7,53.4-43.7
				c10.7-15,15-27.8,19.1-43c4.1-15.2,8.2-32.9,8.3-56.3c0.2-23.2-3.6-52.1-6.6-54.6c-2.9-2.4-5.1,21.4-9.7,41.4
				c-4.6,20-11.7,36.1-18.8,46.3c-7.2,10.3-14.2,14.8-12.7,3.5c1.6-11.4,11.7-38.5,16.4-65.8c4.8-27.3,4-54.8-3.6-81.3
				c-7.7-26.6-22.3-52.4-39.8-72.4c-17.4-20-37.8-34.3-51.6-42.9c-13.7-8.7-20.9-11.8-34.7-16.8s-34.3-12-42.2-15
				c-7.8-2.9-3.1-1.7,13.1,0.3C6232.9,6409.3,6260.6,6412.1,6291.6,6427.7z"/>
			<path id="path58" class="st8" d="M6106.7,6436.5c1.9,12.5,2.9,26,2.2,41.8c-0.7,15.8-3.2,33.8-8.7,50s-14,30.6-23.8,41.1
				s-21.1,17.1-32.1,21.9c-11,4.7-21.7,7.5-22,9.8c-0.3,2.3,10,3.9,22.2,2.9c12.1-1.1,26-4.9,26.5-3.2c0.4,1.8-12.7,8.9-24.2,12.9
				c-11.5,4-21.2,4.7-33,3.1c-11.9-1.6-25.7-5.5-37.9-12.4c-12.2-7-22.8-16.8-24.9-16.2c-2,0.8,4.5,12,13.9,20.4
				c9.4,8.3,21.4,13.6,34.1,16.2c12.7,2.5,26,2.4,39.6,0c13.5-2.4,27.2-6.9,39.9-19c12.7-12.2,24.4-32,32.9-54.8s13.6-48.6,11.1-74
				c-2.4-25.4-12.6-50.5-16.3-57.4C6102.3,6412.6,6104.8,6424,6106.7,6436.5z"/>
			<path id="path60" class="st8" d="M5925,6699.6c11.7,10.9,34.3,29.2,53.7,44.5c19.4,15.3,35.5,27.5,50.5,38.9
				c15,11.3,28.7,21.7,41.4,30.7c12.6,9.1,24.2,16.8,36,23.1c11.7,6.3,23.7,11.3,41.7,13.6c18,2.4,42.1,2.4,41.8-0.3
				c-0.3-2.6-24.9-7.8-42.9-13c-18-5.1-29.2-10.2-42.1-18.8c-12.9-8.6-27.4-20.6-47.1-36c-19.8-15.4-44.7-34-67.8-55.2
				c-23.1-21.1-44.4-44.6-62.4-61.5c-18.1-17-33-27.4-37.1-27.8c-4-0.4,2.7,9.2,8,17.1c5.4,7.9,9.4,14.2,11.4,18.4
				c1.9,4.3,1.9,6.6,2.2,9.4S5913.3,6688.8,5925,6699.6z"/>
		</g>
		<path id="path62" class="st0" d="M6071.2,6433.5c8.4,10.1,9.5,26.8,6.4,42.6c-3,15.8-10.3,30.8-18.2,41.8
			c-7.9,10.9-16.5,17.8-26.6,22.5c-10.1,4.7-21.6,7.3-20.6,3.9c1.1-3.5,14.9-13.1,24-24.5c9.1-11.4,13.5-24.6,10.8-27.3
			c-2.7-2.6-12.6,5.3-21.6,10.4c-9.2,5.2-17.7,7.7-15.2,1.4c2.5-6.2,16.2-21.2,22.2-35.3c6.1-14,4.5-27,3-35.6
			c-1.5-8.7-2.9-13.1,4.3-13.4C6047,6419.6,6062.8,6423.3,6071.2,6433.5z"/>
		<path id="path64" class="st9" d="M6563.7,6666.7c36.2-9.3,90.1-26.3,131.9-45.2c45.7-20.6,77.2-43.6,124.3-60.7
			c47.2-17.1,110-28.5,127.4-34.5c17.4-6.1-10.7-6.7-35.2-5.8c-24.4,0.9-45.2,3.5-45.2-1.8c0.2-5.3,21.1-18.5,40.1-26.6
			c18.9-8,35.6-10.9,31.7-14.3c-4-3.4-28.8-7.4-53.6-7.9c-24.7-0.4-49.3,2.6-65.5,4.6c-16.3,2-24.3,2.9-13.6-1.8
			c10.7-4.7,40.3-15.1,63.5-25.3c23.3-10.2,40.4-20,31.3-24.9c-9-4.8-44-4.6-71.5-3.6c-27.5,0.9-47.6,2.5-55.4-3.4
			c-7.8-5.9-3.3-19.4,11.4-34.7c14.7-15.3,39.5-32.6,39.3-37.5c-0.1-4.8-25.2,2.7-47.5,12.4c-22.3,9.8-42,21.6-47.7,17.3
			c-5.8-4.2,2.2-24.5,13.2-40.4c11-15.8,24.9-27.2,16-26.4c-8.8,0.8-40.5,13.8-71.9,38.2s-62.4,60.1-89.1,98.7
			c-26.7,38.6-49,80.2-65.5,119.3c-5.6,13.3-10.4,26.3-14.4,38.3c1.7,0.9,3.3,1.8,5.1,2.7l2.7,1.5c13.1,7.3,27,18.8,33.7,32.3
			C6563.9,6646.6,6565.3,6656.8,6563.7,6666.7z"/>
		<g>
			<path id="path66" class="st10" d="M6614.2,6444.7c25.5-35.5,53.8-66.6,83.4-90.6c19.4-15.6,39.3-28.1,59.3-39.5
				c4.6-5.6,6.7-8.9,1.8-8.4c-8.8,0.8-40.5,13.8-71.9,38.2s-62.4,60.1-89.1,98.7c-26.7,38.6-49,80.2-65.5,119.3
				c-5.6,13.3-10.4,26.3-14.4,38.3l5.1,2.7l2.7,1.5c13.1,7.3,27,18.8,33.7,32.3c4.6,9.3,6,19.5,4.4,29.4
				c36.2-9.3,90.1-26.3,131.9-45.2c45.7-20.6,77.2-43.6,124.3-60.7c47.2-17.1,110-28.5,127.4-34.5c2.9-1,4.5-1.9,5.1-2.6
				c-33.1,4.2-75.1,10.8-111.9,20.6c-43.7,11.7-80.1,28.1-120.9,45.7c-40.7,17.8-85.8,36.9-102.4,39.3c-16.5,2.5-4.5-11.7-7.2-16.5
				c-2.7-4.9-20.2-0.3-22.5-5.2c-2.2-4.8,10.8-19,33.8-36.1c23.1-17.1,56.2-37.2,80.9-54.2c24.7-17,41-30.9,30.3-27
				c-10.6,4-48.2,26-81.9,48.1c-33.6,22.1-63.4,44.3-71.6,44.2c-8.2-0.2,5.3-22.6,28.1-49.4c22.7-26.8,54.6-58,81.7-82.9
				c27.2-24.9,49.6-43.6,45.5-43.3c-4.1,0.4-34.8,19.8-64.1,44.3c-29.3,24.6-57.2,54.4-78.9,79.7s-37.4,46.1-44.3,50.1
				c-7,4-5.3-8.8,6.8-35C6566,6519.9,6588.7,6480.2,6614.2,6444.7z"/>
			<path id="path68" class="st10" d="M6596.8,6436.5c21.6-30.7,47.4-62,76.2-86.7c0.1-6.9,4.6-16.3,13-26.5
				c12.6-15.3,34-32.6,33.9-37.4c-0.1-4.9-21.6,2.7-40.9,12.4c-19.2,9.7-36.1,21.5-41,17.3c-5-4.3,1.9-24.6,11.4-40.4
				c9.4-15.8,21.4-27.2,13.8-26.4c-7.7,0.8-34.9,13.8-61.8,38.2c-27,24.3-53.7,60.1-76.7,98.7c-4.7,7.9-9.3,16-13.7,24.1
				c7,1.9,13.9,3.9,20.8,5.8c21.4,6.3,42.7,13.2,63.8,20.6L6596.8,6436.5z"/>
			<path id="path70" class="st10" d="M6730.5,7049c33.7-1.9,74.1-7.1,115.4-17.9c61.7-16,125.3-44.4,147.6-55.8
				c22.2-11.3,3-5.6-12.6-1.2c-15.6,4.5-27.6,7.8-41.2,10.8c-13.6,2.9-28.7,5.6-25.2,0.7c3.5-4.8,25.8-17.1,46.9-31.3
				c21.1-14.2,41.2-30.2,44.1-34.3c2.9-4-11.6,4-30.8,12.7c-19.3,8.8-43.4,18.2-44.5,13.7c-1-4.5,21-22.9,40.3-47.3
				c19.4-24.5,36.1-55,33.5-57.8c-2.6-2.9-24.6,22-38.2,37.2c-13.6,15.2-18.8,20.9-29.6,29.8c-10.7,9-27,21.3-26.9,15.7
				c0.1-5.7,16.6-29.3,16.4-32.9c-0.3-3.5-17.3,13-34.5,30.3c-17.1,17.4-34.4,35.5-63.9,53c-7.4,4.3-15.6,8.7-24.3,12.8
				c-16.9,18.1-35.2,35.1-55.3,49.8C6742.2,7041.4,6736.4,7045.3,6730.5,7049z M6323.9,7147.4c24.9,23.6,57.9,52.8,91.6,76.9
				c44.6,31.8,90.2,54.4,134.9,68.4c44.6,13.9,88.4,19.1,99,18.5c10.6-0.6-11.8-7-29.7-13.9c-17.9-7-31.1-14.6-26.8-17.3
				c4.2-2.7,25.9-0.6,54.6-6.4c28.6-5.8,64-19.5,67.5-24.2c3.4-4.8-25.2-0.5-50.4,0.6c-25.2,1-46.9-1.1-45.7-3.6
				c1.1-2.5,25.1-5.5,47.4-14.5c22.3-9,43-24,43.9-28c0.8-4-18,3.1-36.5,7.2c-18.4,4.2-36.4,5.4-34.6-0.2s23.2-17.9,39.8-29.5
				c16.5-11.5,28.1-22.4,24.9-24.2c-3.2-1.8-21.1,5.6-40.2,10.5c-19,5-39.1,7.5-36.6,3.8c2.5-3.8,27.5-14,48.9-24.9s39.1-22.4,37-24
				c-2.1-1.5-24.1,7-53.7,11.9c-29.7,4.8-67.1,6-114.4,2.5c-16.2-1.1-33.4-2.9-51.1-5c-42.1,7.8-84.8,13-127.3,14.6
				C6352.5,7147.4,6338.2,7147.6,6323.9,7147.4z"/>
		</g>
		<path id="path72" class="st11" d="M6231.4,7141.2c22.5,20.6,49.6,43.7,77,63.3c44.6,31.8,90.2,54.5,134.9,68.4
			c34.9,11,69.2,16.4,87.6,18.1c-42-15.2-81.7-37.1-118-62.9c-32.4-23.2-63.3-49.9-92.1-77.3l-3.5-3.4
			C6289,7146.7,6260.2,7144.7,6231.4,7141.2z"/>
		<path id="path74" class="st8" d="M6959.7,6614.8c-1.3-4.3,0.6-5.9,9.5-9.6c9-3.8,25.1-9.9,48.4-26.5c23.4-16.6,54.2-43.8,82-65.5
			c27.9-21.7,52.9-38,71.9-49.1c19-11.1,32-17,28.1-13.1c-4,3.9-25.1,17.6-46,33.9c-20.9,16.3-41.7,35.2-61.4,52.2
			c-19.8,17-38.4,32.1-56.2,43.9c-17.7,11.9-34.5,20.4-29.7,20.8c4.7,0.5,30.9-7.1,53.5-12.3c22.6-5.1,41.5-8,41.1-5.6
			c-0.3,2.4-20,9.9-38.5,17s-36.1,13.7-30.6,17c5.4,3.3,33.8,3.3,53.7,2.7c19.8-0.6,31.2-1.8,25.6,0.4c-5.6,2.1-28,7.5-51.6,10.4
			c-23.7,2.9-48.4,3.5-50,8.2c-1.6,4.7,20.2,13.7,46.9,23.7c26.7,9.9,58.3,20.8,79.7,27.5c21.4,6.7,32.5,9.3,30.7,11
			c-1.9,1.7-16.8,2.4-38-0.8s-48.5-10.3-69.6-16.7c-21-6.3-35.6-12-28.5-5.1c7.2,6.8,36.3,26.2,55.4,41.5
			c19.1,15.4,28.4,26.7,43.8,43c15.5,16.3,37.2,37.6,33.9,36.4c-3.5-1.2-32.1-24.9-58.4-45.6c-26.4-20.8-50.5-38.8-72.7-51.5
			s-42.5-20-47.6-26.3c-5.1-6.4,5.1-11.9,5.1-19s-10.2-15.8-17.5-23.8C6965.4,6626.2,6960.9,6619.1,6959.7,6614.8z"/>
		<path id="path76" class="st3" d="M5858,6800.8l-16.4-10.9c-22.5-14.7-45.2-29.4-68.8-42.1c-7.3-4-14.8-7.7-22.4-11.4
			c2.1,3.3,4.3,7.3,6.6,12.6c7.8,18.4,16.8,51.1,38.3,94.5c21.5,43.4,55.5,97.2,103,145c47.5,47.8,108.5,89.3,190.2,116.8
			c81.8,27.4,184.4,40.6,277.7,37.1c93.3-3.5,177.5-23.8,231.1-39.7c53.7-15.8,76.8-27.2,103.8-41.9c4-2.2,8.3-4.5,12.6-6.9
			c-0.8,0.3-1.6,0.5-2.4,0.8c-48.7,15.3-99.1,31.1-159.8,43.5c-60.7,12.4-131.6,21.3-205.8,21.3c-74.2,0-151.7-8.9-216.5-26.9
			c-64.7-18-116.8-44.9-160.9-80.4c-44.2-35.5-80.6-79.4-106.8-117.9c-26.3-38.5-42.3-71.6-32.3-85.2
			C5833.8,6802.6,5844.4,6800.5,5858,6800.8z"/>
		<path id="path78" class="st3" d="M6217,6381.2c-30.4,1.8-60.2,5.2-88.8,10.1c-0.2-0.2-0.3-0.3-0.4-0.5c-5.4,6.1-9.6,10.6-1.1,10.7
			c9.1,0.2,32.5-4.5,83.8-2.1c37.7,1.9,90.6,7.6,140.2,15.6C6310.7,6379.2,6285.9,6377.2,6217,6381.2z M6303.2,6380.8
			c19.2,5.6,35.5,16.5,55.8,35.5c14.8,2.4,29.3,5.1,42.9,7.9c59.6,12.4,101.6,27.6,168.5,53c7.5-12.6,15.4-24.8,23.7-36.7l0.1-0.1
			c-21.2-7.4-42.6-14.3-63.7-20.5C6451,6396.8,6375.5,6384.1,6303.2,6380.8z M6855.6,6554.1c-11.5,3.3-22.9,6.8-34.1,10.9
			c-3.8,1.3-7.6,2.9-11.4,4.4c28.5,11,31.6,12,43.7,15c14.7,3.5,42.5,9.9,66.5,12.7c21.2,2.6,39.4,2.4,57.4-9.3
			c-7.2,2.9-14.1,4.6-21.1,4.9c-21.4,0.6-44-12.4-98.2-39.3L6855.6,6554.1z"/>
		<path id="path80" class="st10" d="M6202.2,6297c-30.2,27.1-51.6,57.6-72.8,88.2c0.3,0.4,0.6,0.8,0.8,1.2c28.6-4.8,57.5-8,86.5-9.7
			c86.8-5,185.2,6.4,272.9,27.7c0.4-11.4,2.4-19.5,4.6-27.7c2.9-10.4,6.4-20.8,15.9-33c9.4-12.3,25.1-26.3,18.8-27.9
			c-6.2-1.5-34.4,9.5-56.8,24.2c-22.5,14.7-39.3,33.3-47.5,35.9c-8.3,2.7-8.1-10.4-3.7-23.4c4.4-12.9,12.9-25.5,22.2-35.4
			c9.4-9.9,19.5-16.9,34.1-23.8s33.8-13.3,36-16.2c2.2-2.9-12.6-2.2-26.1-1.1c-13.5,1.2-25.8,2.7-41.9,9.3
			c-16.1,6.7-35.9,18.4-60.6,35.6c-24.6,17.4-54,40.3-63.1,39.7c-9-0.6,2.4-24.7,17.7-44.4c15.3-19.8,34.7-35.1,54.7-48.9
			c20-13.6,40.6-25.8,36.4-27.4c-4.1-1.7-32.9,7.1-60.5,20c-27.5,13.1-53.7,30.2-79.6,53.2c-25.9,23-51.4,51.6-61.5,55.7
			c-10,4.1-4.5-16.2,3.6-34.2c8.2-18.1,19.1-33.9,32.6-48.7c13.5-14.7,29.5-28.5,40.7-37.5c11.1-9,17.5-13.2,29.6-18.1
			c12-4.8,29.8-10.3,27.2-12s-25.5,0.1-57.2,13.2S6233.3,6269,6202.2,6297z"/>
		<path id="path82" class="st8" d="M6930.9,6640.3c-8.1,4.3-23.2,9.9-37.8,21.6c-14.7,11.5-28.8,29.1-31.1,36.7
			c-2.3,7.7,7.4,5.6,21.1-2.1c13.7-7.7,31.4-21,35.1-14.4c3.6,6.5-6.7,32.7-4.9,38.8c1.9,6.1,16.1-7.8,28.1-22
			c11.9-14.2,21.6-28.6,25.1-26.5c3.6,1.9,1,20.4-7.1,44.3c-8,23.8-21.5,53.2-44,88.1c-22.4,35-53.8,75.6-83.4,107.7
			c-29.5,32.2-57.2,55.8-60.5,55.6c-3.3-0.3,17.7-24.3,35.5-48.9s32.5-49.6,44.1-74.2c11.6-24.6,20.1-48.7,16.7-50.4
			c-3.4-1.6-18.8,19.2-37.2,40.4c-18.4,21.3-39.9,43-43.2,41.6s11.5-26,22.8-52c11.2-26,18.8-53.4,12.9-52.8
			c-6,0.6-25.4,29.1-49.9,59.6c-24.6,30.3-54.4,62.5-94.6,91c-40.1,28.5-90.7,53.2-93.2,49.9c-2.5-3.5,43.1-35.1,76.7-69.5
			s55.1-71.5,70.1-98.6c15-27,23.5-44.1,14.7-42.6c-8.8,1.3-34.7,21.2-53.7,35.2c-18.9,13.9-30.7,22-31.2,13.2s10.4-34.3,2.3-36.6
			c-8.2-2.2-35.4,18.8-49.2,20.7c-13.8,1.9-14.2-15.4-24.2-10.3c-9.9,5.1-29.3,32.5-44.9,55.2c-15.6,22.7-27.5,40.6-28.5,37.8
			c-1.1-2.9,8.6-26.5,16-53.3c7.5-26.8,12.6-56.9,17.4-79.9c4.7-23.1,8.9-39.1,11.9-40.4c2.9-1.3,4.6,12.2,12,9.6
			c7.5-2.6,20.7-21.3,25.9-22.7c5.2-1.3,2.4,14.5,13.3,18.8c10.9,4.4,35.4-2.7,53-9.3c17.6-6.7,28.3-12.8,43.4-21
			c15.2-8.1,34.8-18.3,53.7-25.7c18.9-7.5,37.1-12.2,49-14.6c12-2.4,17.6-2.4,37.8-3.3c20.2-0.9,54.9-2.9,71.9-2.4
			C6939.9,6633.2,6938.9,6636.1,6930.9,6640.3z"/>
		<path id="path84" class="st7" d="M5916.1,6868.5c19.9,11.7,67.9,48.8,115.5,77.4c47.6,28.6,94.9,48.7,139.9,62
			c45,13.4,87.8,20,132.2,17c44.5-2.9,90.6-15.5,137.9-36.8c47.4-21.4,96.1-51.6,110.3-55.7c14.2-4-6.1,18.2-29.2,36.2
			c-23,18.1-48.8,32.1-69.1,42.5c-20.3,10.5-35.2,17.6-28.8,21.6c6.3,4,34,5,70.2,0.2c36.1-4.9,80.8-15.5,119.4-30.1
			c38.5-14.5,70.8-32.9,73.4-29.5c2.4,3.4-24.9,28.6-57.8,48.2c-32.9,19.5-71.2,33.2-116.9,42.6c-45.7,9.4-98.9,14.7-157.9,12.5
			c-59.1-2.3-124.1-12-188-32.8s-126.8-52.7-169-81.2c-42.1-28.5-63.7-53.5-78.5-72.9C5904.6,6870.5,5896.3,6856.8,5916.1,6868.5z"
			/>
		<path id="path86" class="st9" d="M6455.3,6372.3c1.6-6.3,11.5-14.8,22-22.7c10.6-7.9,21.9-15.2,22.9-13.2
			c1,1.9-8.3,13.1-15.6,23.1c-7.2,9.9-12.5,18.5-18.4,20.8C6460.3,6382.6,6453.7,6378.5,6455.3,6372.3z M6362.4,6355.2
			c5-9.6,20.4-24,35.9-35.5c15.6-11.4,31.3-19.8,45.6-25.8c14.3-5.9,27.2-9.5,25.1-6.6c-2.1,2.9-19.1,12.2-36,25.7
			c-16.9,13.5-33.7,31.1-44.5,42c-10.9,10.9-15.7,15.2-20.7,14.8C6362.7,6369.7,6357.4,6364.8,6362.4,6355.2z M6290.2,6343.4
			c12.6-10.4,29.5-25.9,46.1-39.9c16.7-14.1,33.3-26.8,34-30.1c0.8-3.4-14.2,2.8-31.8,15.2c-17.6,12.3-37.8,30.9-51.3,44.7
			c-13.5,13.8-20.2,22.9-19.3,24.6C6268.8,6359.6,6277.5,6353.9,6290.2,6343.4z M6168.2,6352.8c5.6-10.4,21.9-30.2,41.4-48.5
			c19.5-18.3,42.2-35.2,59.7-46.8c17.6-11.5,30-17.6,29.1-15.3c-0.9,2.3-15.2,13.1-31.3,28c-16,14.8-33.8,33.9-49.7,50.5
			c-15.9,16.6-30.2,30.8-39.8,37.3C6167.8,6364.4,6162.6,6363.3,6168.2,6352.8z"/>
		<path id="path88" class="st9" d="M6544.6,6389.5c2.4-12.6,15.8-34.4,28.7-52.1c12.8-17.8,24.9-31.6,36.1-43.2
			c11.3-11.5,21.6-20.9,20.7-16.5s-12.8,22.5-23.5,40.9c-10.8,18.5-20.3,37.4-26.9,50.7c-6.5,13.3-9.9,21-3,18.3
			c6.8-2.6,24-15.7,40.9-28.6c16.9-13,33.6-25.9,35-22.8c1.4,3-12.4,21.9-25,36.9c-12.6,14.9-24.1,25.9-28.4,27.8
			c-4.3,1.9-1.5-5.3-6.9-5.5c-5.5-0.2-19.2,6.7-30.3,8.4C6550.8,6405.5,6542.2,6402,6544.6,6389.5z"/>
		<path id="path90" class="st12" d="M6584.1,6517.2c2.4-7,18.3-32.7,36.6-56.3c18.4-23.5,39-45.1,54.2-59.1
			c15.2-14.1,25.1-20.6,20.2-12.7c-4.8,7.9-24.3,30.3-42,51.5c-17.6,21.1-33.3,40.8-46.8,56.4
			C6592.9,6512.6,6581.6,6524.2,6584.1,6517.2z M6786.7,6367.5c-1.3,4-14,17.8-25.3,32.1c-11.3,14.2-21.2,29.1-24.6,30.8
			c-3.4,1.6-0.2-9.9,6.1-21.5s15.8-23,25.4-31.5C6778.1,6368.9,6788.1,6363.3,6786.7,6367.5z M6865.3,6437.6
			c-9.1,4.6-34.8,13.1-61.3,28.3c-26.5,15.2-53.8,37.1-60.2,39.8c-6.4,2.8,8.2-13.6,23.3-27.2c15.2-13.6,31-24.2,46.4-31.5
			s30.4-11.3,41.8-13S6874.3,6433,6865.3,6437.6z M6645.5,6521.7c-2.1-1.7,18.1-22,45.8-38.1c27.7-16.2,62.9-28.1,64.9-26.5
			c2.1,1.7-29,16.9-56.7,33C6671.9,6506.4,6647.6,6523.4,6645.5,6521.7z M6881.3,6493.2c-6.3,6-42,21.8-80.1,39
			c-38.2,17.1-78.8,35.5-87.9,36.1c-8.9,0.6,13.7-16.7,40.4-31.9c26.5-15.2,57-28.5,83.9-37
			C6864.4,6490.9,6887.6,6487.1,6881.3,6493.2z M6625.7,6592.3c8.1-8.1,32.8-24.5,51.9-35.8c19-11.3,32.5-17.4,29.3-12.8
			c-3.3,4.6-23.2,20-38.1,31.2c-14.8,11.1-24.5,18.1-33.6,21.7C6626.1,6600.2,6617.6,6600.4,6625.7,6592.3z"/>
		<path id="path92" class="st13" d="M6786.4,7029.8c8.6,2.2,37.3-3,64.3-9.7c26.9-6.6,52.1-14.7,54.3-16.6s-18.4,2.2-37.1,5.7
			s-35.1,6.6-34.3,3.8c0.9-2.8,19.2-11.3,37.1-21s35.2-20.6,35.5-22.6c0.4-2-16.3,4.8-29.1,9.3c-12.9,4.5-21.8,6.7-18.6,0.3
			c3.3-6.3,18.8-21.2,19.9-24.3s-12.1,5.8-26.7,16s-30.6,21.6-39.3,28.1c-8.7,6.5-10.1,8-16.6,13.6
			C6789.4,7018,6777.9,7027.6,6786.4,7029.8z"/>
		<path id="path94" class="st13" d="M6476.3,7147.3c12.6-1.4,14-0.8,26.8,0.7c12.9,1.5,37.1,4,61.6,4.1c24.5,0.2,49.4-2.1,53.5-0.8
			c4.1,1.3-12.4,6.1-30.6,9.1c-18.2,2.9-38.1,4-53.9,4.5c-15.8,0.6-27.6,0.6-24.8,4c2.9,3.5,20.5,10.3,42.3,14.1
			c21.7,3.7,47.6,4.3,55.9,6.3c8.3,1.9-0.9,5.4-20.4,7.2c-19.4,1.8-49,1.9-79.9-3.3c-30.9-5.2-62.9-15.8-62.8-12.9
			c0.1,2.9,32.2,19,64.1,28c31.9,9,63.6,10.8,71.7,12.9c8.1,2-7.4,4.4-23.8,5.1c-16.4,0.7-33.8-0.4-51.4-3.7
			c-17.6-3.4-35.5-8.8-36.6-7s14.3,11.2,32.8,20.6c18.4,9.4,39.8,18.8,40.4,21.4c0.5,2.6-19.8-1.6-47.8-13.8
			c-28-12.1-63.5-32.3-89.5-48.3c-25.9-16.1-42.4-28.1-38.7-34.1c3.7-6,27.5-5.9,51.2-7.5C6440,7152.1,6463.8,7148.7,6476.3,7147.3z
			"/>
		<path id="path96" d="M5823.9,6649.7c2.9-0.1,23,10.8,44.1,25.6c21,14.8,43,33.6,65.9,52.4c22.8,18.7,46.6,37.4,70.2,54.9
			c23.6,17.5,46.9,33.9,52.5,39.8c5.6,5.8-6.7,1.1-25.7-11.5s-44.6-33.2-69.9-52.1c-25.4-18.9-50.4-36-68.9-50.2
			c-18.4-14.2-30.4-25.6-43.6-36.7C5835.3,6660.7,5821,6649.8,5823.9,6649.7z"/>
	</g>
</g>
</svg>
