<?xml version="1.0" encoding="utf-8"?>
<!-- Generator: Adobe Illustrator 22.1.0, SVG Export Plug-In . SVG Version: 6.00 Build 0)  -->
<svg version="1.1"
	 id="svg2" inkscape:export-filename="C:\Users\CAES\Documents\My Dropbox\CAES\Cartazes\JantarAniv\peixe final.png" inkscape:export-xdpi="90" inkscape:export-ydpi="90" inkscape:version="0.47 r22583" sodipodi:docname="peixe final.svg" xmlns:cc="http://creativecommons.org/ns#" xmlns:dc="http://purl.org/dc/elements/1.1/" xmlns:inkscape="http://www.inkscape.org/namespaces/inkscape" xmlns:ns1="http://sozi.baierouge.fr" xmlns:rdf="http://www.w3.org/1999/02/22-rdf-syntax-ns#" xmlns:sodipodi="http://sodipodi.sourceforge.net/DTD/sodipodi-0.dtd" xmlns:svg="http://www.w3.org/2000/svg"
	 xmlns="http://www.w3.org/2000/svg" xmlns:xlink="http://www.w3.org/1999/xlink" x="0px" y="0px" viewBox="0 0 125 125"
	 style="enable-background:new 0 0 125 125;" xml:space="preserve">
<style type="text/css">
	.st0{fill:#808000;stroke:#000000;stroke-width:0.75;}
	.st1{opacity:0.5081;fill:#FFFFFF;stroke:#000000;stroke-width:0.75;enable-background:new    ;}
	.st2{fill:#FFFFFF;stroke:#000000;stroke-width:0.75;}
	.st3{stroke:#000000;stroke-width:0.75;}
	.st4{opacity:0.7112;fill:#FFFFFF;enable-background:new    ;}
	.st5{fill:#FFCC00;stroke:#000000;stroke-width:0.75;}
	.st6{fill:#AA8800;stroke:#000000;stroke-width:0.75;}
	.st7{opacity:0.5081;fill:#806600;enable-background:new    ;}
	.st8{fill:#FFFFFF;stroke:#010101;stroke-width:0.75;}
	.st9{fill:#010101;}
	.st10{fill:#DCDDDE;}
</style>
<sodipodi:namedview  bordercolor="#666666" borderopacity="1.0" fit-margin-bottom="0" fit-margin-left="0" fit-margin-right="0" fit-margin-top="0" id="base" inkscape:current-layer="layer1" inkscape:cx="377.71308" inkscape:cy="210.8479" inkscape:document-units="px" inkscape:pageopacity="0.0" inkscape:pageshadow="2" inkscape:window-height="746" inkscape:window-maximized="0" inkscape:window-width="1024" inkscape:window-x="20" inkscape:window-y="20" inkscape:zoom="0.7746008" pagecolor="#ffffff" showgrid="false">
	</sodipodi:namedview>
<g id="layer1" transform="translate(12 -211.41)" inkscape:groupmode="layer" inkscape:label="Layer 1">
	
		<path id="path2989" inkscape:connector-curvature="0" inkscape:original-d="M 161.48131,574.28835 15.767019,648.57407 1.4813046,471.43121 155.76702,528.57407 z" inkscape:path-effect="#path-effect2991" class="st0" d="
		M22.8,297.3l-30.5,15.6l-3-37.1l32.3,12L22.8,297.3"/>
	
		<path id="path3176" inkscape:connector-curvature="0" inkscape:original-d="m 525.33842,479.28835 c 0,0 34.28574,22.85714 14.28574,45.71429 -20.00004,22.85714 -25.71424,22.85714 -25.71424,22.85714" inkscape:path-effect="#path-effect3049" class="st1" d="
		M99,277.4c1.5,1,2.6,2.5,3.2,4.3c0.5,1.7,0.5,3.6-0.2,5.3c-0.9,2.3-3,4.2-5.4,4.8"/>
	
		<path id="path2993" sodipodi:cx="-244.28572" sodipodi:cy="443.79074" sodipodi:rx="58.57143" sodipodi:ry="57.142857" sodipodi:type="arc" class="st2" d="
		M107.1,279.2c0,6.6-5.4,12-12.2,12c-6.8,0-12.3-5.3-12.3-11.9c0,0,0-0.1,0-0.1c0-6.6,5.4-12,12.2-12s12.3,5.3,12.3,11.9
		C107.1,279.1,107.1,279.1,107.1,279.2z"/>
	
		<path id="path2997" sodipodi:cx="-1157.1428" sodipodi:cy="252.36218" sodipodi:rx="20" sodipodi:ry="20" sodipodi:type="arc" class="st3" d="
		M99.3,277.4c0,2.3-1.9,4.2-4.2,4.2c-2.3,0-4.2-1.9-4.2-4.2s1.9-4.2,4.2-4.2C97.4,273.2,99.3,275.1,99.3,277.4z"/>
	
		<path id="path3869" sodipodi:cx="-1157.1428" sodipodi:cy="252.36218" sodipodi:rx="20" sodipodi:ry="20" sodipodi:type="arc" class="st4" d="
		M102.4,279.2c0,2.3-1.9,4.2-4.2,4.2s-4.2-1.9-4.2-4.2c0-2.3,1.9-4.2,4.2-4.2S102.4,276.9,102.4,279.2z"/>
	
		<path id="path2987" sodipodi:cx="342.85715" sodipodi:cy="572.36218" sodipodi:rx="237.14285" sodipodi:ry="97.14286" sodipodi:type="arc" class="st5" d="
		M109.7,291.9c0,11.2-22.3,20.4-49.7,20.4s-49.7-9.1-49.7-20.4s22.3-20.4,49.7-20.4S109.7,280.7,109.7,291.9z"/>
	
		<path id="path3180" inkscape:connector-curvature="0" inkscape:original-d="m 231.05271,529.28835 c 0,0 34.2857,22.85714 14.2857,45.71429 -20,22.85714 -25.7142,22.85714 -25.7142,22.85714" inkscape:path-effect="#path-effect3182" class="st1" d="
		M37.4,287.9c1.5,1,2.6,2.5,3.2,4.3c0.5,1.7,0.5,3.6-0.2,5.3c-0.9,2.3-3,4.2-5.4,4.8"/>
	
		<path id="path3184" inkscape:connector-curvature="0" inkscape:original-d="m 317.48128,488.57407 c 0,0 34.2857,22.85714 14.2857,45.71429 -20,22.85714 -25.7142,22.85714 -25.7142,22.85714" inkscape:path-effect="#path-effect3186" class="st1" d="
		M55.5,279.3c1.5,1,2.6,2.5,3.2,4.3c0.5,1.7,0.5,3.6-0.2,5.3c-0.9,2.3-3,4.2-5.4,4.8"/>
	
		<path id="path3188" inkscape:connector-curvature="0" inkscape:original-d="m 186.0527,480.71693 c 0,0 34.2857,22.85714 14.2857,45.71429 -20,22.85714 -25.7142,22.85714 -25.7142,22.85714" inkscape:path-effect="#path-effect3190" class="st1" d="
		M27.9,277.7c1.5,1,2.6,2.5,3.2,4.3c0.5,1.7,0.5,3.6-0.2,5.3c-0.9,2.3-3,4.2-5.4,4.8"/>
	
		<path id="path3194" inkscape:connector-curvature="0" inkscape:original-d="m 266.76699,476.43121 c 0,0 34.2857,22.85714 14.2857,45.71429 -20,22.85714 -25.7142,22.85714 -25.7142,22.85714" inkscape:path-effect="#path-effect3202" class="st1" d="
		M44.8,276.8c1.5,1,2.6,2.5,3.2,4.3c0.5,1.7,0.5,3.6-0.2,5.3c-0.9,2.3-3,4.2-5.4,4.8"/>
	
		<path id="path3196" inkscape:connector-curvature="0" inkscape:original-d="m 339.62414,564.28836 c 0,0 34.2857,22.85714 14.2857,45.71429 -20,22.85714 -25.7142,22.85714 -25.7142,22.85714" inkscape:path-effect="#path-effect3204" class="st1" d="
		M60.1,295.2c1.5,1,2.6,2.5,3.2,4.3c0.5,1.7,0.5,3.6-0.2,5.3c-0.9,2.3-3,4.2-5.4,4.8"/>
	
		<path id="path3198" inkscape:connector-curvature="0" inkscape:original-d="m 273.19557,556.43121 c 0,0 34.2857,22.85714 14.2857,45.71429 -20,22.85714 -25.7142,22.85714 -25.7142,22.85714" inkscape:path-effect="#path-effect3206" class="st1" d="
		M46.2,293.6c1.5,1,2.6,2.5,3.2,4.3c0.5,1.7,0.5,3.6-0.2,5.3c-0.9,2.3-3,4.2-5.4,4.8"/>
	<path id="path3786" inkscape:connector-curvature="0" sodipodi:nodetypes="csscscsc" class="st3" d="M101.3,294.9
		c-0.4,0-0.9,0-1.3,0.1c-2.4,0.6-4.2,2.7-4.1,4.7c0,0.3,0.1,0.7,0.2,1c0.3-1.7,2-3.4,4-3.9c2-0.5,3.7,0.2,4.3,1.7
		c0-0.3,0.2-0.8,0.2-1.1C104.6,295.8,103.1,294.9,101.3,294.9L101.3,294.9z"/>
	
		<path id="path3002" inkscape:connector-curvature="0" inkscape:original-d="m 366.48131,451.43121 -171.42857,-42.14286 62.14286,29.28572 -102.85715,2.85714 71.42857,20 c 0,0 129.28572,-25.71429 140.71429,-10 z" inkscape:path-effect="#path-effect3004" sodipodi:nodetypes="cccccc" class="st0" d="
		M65.7,271.6l-35.9-8.8l13,6.1l-21.6,0.6l15,4.2L65.7,271.6"/>
	
		<path id="path3006" inkscape:connector-curvature="0" inkscape:original-d="m 326.61275,549.84777 -105.24186,-10.76266 26.31047,53.8133 78.93139,-21.52532" inkscape:path-effect="#path-effect3008" class="st0" d="
		M57.4,292.2l-22.1-2.3l5.5,11.3l16.5-4.5"/>
	
		<path id="path3881" inkscape:connector-curvature="0" inkscape:original-d="m 350.07382,487.1455 c 0,0 -37.25408,27.7924 -7.45082,64.84894 29.80328,37.05653 32.28688,37.05653 32.28688,37.05653" inkscape:path-effect="#path-effect3830" class="st6" d="
		M62.3,279c-2.6,3.9-3.2,9.2-1.6,13.6c1.2,3.3,3.7,6.1,6.8,7.8"/>
	
		<path id="path3887" inkscape:connector-curvature="0" inkscape:original-d="m 412.90988,642.85978 -136.42857,50 37.14286,-34.28572 -77.14286,11.42858 48.57143,-25.71429 c 0,0 111.42858,-22.85714 127.85714,-1.42857 z" inkscape:path-effect="#path-effect3889" sodipodi:nodetypes="cccccc" class="st0" d="
		M75.5,311.7l-28.6,10.5l7.8-7.2l-16.2,2.4l10.2-5.4L75.5,311.7"/>
	
		<path id="path3025" inkscape:connector-curvature="0" inkscape:original-d="m 415.04414,612.41169 c 0,0 -25.6356,37.72532 52.42355,23.55839 78.05919,-14.16694 73.3432,-46.8485 73.3432,-46.8485" inkscape:path-effect="#path-effect3027" class="st5" d="
		M75.9,305.3c2.8,3,6.9,4.8,11,4.9c3.2,0.1,6.5-0.8,9.2-2.5c2.7-1.7,4.9-4.3,6.2-7.3"/>
	
		<path id="path3827" inkscape:connector-curvature="0" inkscape:transform-center-x="0.44435015" inkscape:transform-center-y="-2.1324515" sodipodi:nodetypes="ccccccccccccc" class="st7" d="
		M9.3,299.7l-7,4.6l1.9-5.3l-8.2,2.7l4.1-5.2l-9.4-0.2l10.2-2.5l-8.9-3.3l9.5,0.7l-4.5-6.2l7.8,4l-0.6-6.3
		C11.7,287,14,307.8,9.3,299.7L9.3,299.7z"/>
	
		<path id="path3832" inkscape:connector-curvature="0" inkscape:original-d="m 362.07382,487.1455 c 0,0 -37.25408,27.7924 -7.45082,64.84894 29.80328,37.05653 32.28688,37.05653 32.28688,37.05653" inkscape:path-effect="#path-effect3834" class="st6" d="
		M64.8,279c-2.6,3.9-3.2,9.2-1.6,13.6c1.2,3.3,3.7,6.1,6.8,7.8"/>
	<g id="layer1-7" transform="matrix(.12001 -.016442 .013103 .15059 488.95 515.07)" inkscape:label="Layer 1">
		<path id="path4734" inkscape:connector-curvature="0" sodipodi:nodetypes="ccccc" d="M-3035.5-1828.7c0,0-97.1,29.8-110.9-19
			c0,0,15.1,72.1,103,41.2c0,0,74.4,44.4,85-36.9C-2958.4-1843.4-3001.3-1791.3-3035.5-1828.7L-3035.5-1828.7z"/>
	</g>
	<g id="g3637" transform="translate(-232.38 -215.59)">
		<g id="g3437" transform="translate(416.05 441.17)">
			<path id="path3439" inkscape:connector-curvature="0" class="st8" d="M-91.4,47.8l2.4-23.3c0,0,13.6-0.8,12.1-9.1
				C-78.4,7.1-84.5,7-84.5,7s0.2-5.5-5.1-6c-5.4-0.5-10.3-1.9-12.2,1.7c-1.7,3.3,0,0,0,0s-4.2-0.8-6.5-0.6c-2.3,0.2-5.3,3.4-5.3,3.4
				s-10.8-1-10.5,5.4c0.3,6.4,4.4,7.7,4.4,7.7s-2.3,3.8,1.2,5c3.5,1.2,4.8,1.3,4.8,1.3l2.1,21.5L-91.4,47.8L-91.4,47.8z"/>
			<polygon id="polygon3441" class="st9" points="-93.4,42.2 -109,39.9 -108.9,41.1 			"/>
		</g>
		<path id="path3443" inkscape:connector-curvature="0" class="st10" d="M338.2,459.3c0,0-3,2.2-4.8,2.2s-7.2-1-7.7-1
			c-18.2,1.8,1,4.4,1,4.4s3.6-0.3,5.9-1.1C334.9,463,338.2,459.3,338.2,459.3L338.2,459.3z"/>
		<path id="path3445" inkscape:connector-curvature="0" class="st10" d="M297.4,460.5c0,0-1.5,1.4-1,2.2c0.5,0.8,4.2,2.5,6,2.6
			c1.8,0.1,6.3,0.5,6.8-1c0.5-1.5-2.5-2.2-5.2-2.6C301.4,461.4,297.4,460.5,297.4,460.5L297.4,460.5z"/>
	</g>
	<g id="g3035" transform="translate(15.053 -23.788)">
		
			<path id="path3037" inkscape:connector-curvature="0" inkscape:original-d="m 444.5714,506.6479 c 0,0 34.28574,22.85714 14.28574,45.71429 -20.00004,22.85714 -25.71424,22.85714 -25.71424,22.85714" inkscape:path-effect="#path-effect3178" class="st1" d="
			M70.2,301.9c1.5,1,2.6,2.5,3.2,4.3c0.5,1.7,0.5,3.6-0.2,5.3c-0.9,2.3-3,4.2-5.4,4.8"/>
		
			<path id="path3039" sodipodi:cx="-244.28572" sodipodi:cy="443.79074" sodipodi:rx="58.57143" sodipodi:ry="57.142857" sodipodi:type="arc" class="st2" d="
			M78.2,303.7c0,6.6-5.5,12-12.3,12s-12.3-5.4-12.3-12c0-6.6,5.5-12,12.3-12S78.2,297.1,78.2,303.7L78.2,303.7z"/>
		
			<path id="path3041" sodipodi:cx="-1157.1428" sodipodi:cy="252.36218" sodipodi:rx="20" sodipodi:ry="20" sodipodi:type="arc" class="st3" d="
			M70.5,301.9c0,2.3-1.9,4.2-4.2,4.2c-2.3,0-4.2-1.9-4.2-4.2c0-2.3,1.9-4.2,4.2-4.2C68.6,297.7,70.5,299.6,70.5,301.9L70.5,301.9z"
			/>
		
			<path id="path3043" sodipodi:cx="-1157.1428" sodipodi:cy="252.36218" sodipodi:rx="20" sodipodi:ry="20" sodipodi:type="arc" class="st4" d="
			M72.3,303.7c0,2.3-1.9,4.2-4.2,4.2s-4.2-1.9-4.2-4.2s1.9-4.2,4.2-4.2S72.3,301.4,72.3,303.7L72.3,303.7z"/>
	</g>
</g>
</svg>
