<?xml version="1.0" encoding="utf-8"?>
<!-- Generator: Adobe Illustrator 22.1.0, SVG Export Plug-In . SVG Version: 6.00 Build 0)  -->
<svg version="1.1" id="Layer_1" xmlns="http://www.w3.org/2000/svg" xmlns:xlink="http://www.w3.org/1999/xlink" x="0px" y="0px"
	 viewBox="0 0 125 125" style="enable-background:new 0 0 125 125;" xml:space="preserve">
<style type="text/css">
	.st0{fill:url(#SVGID_1_);}
	.st1{fill:url(#SVGID_2_);}
	.st2{fill:#D8D9DA;}
	.st3{fill:#81ADA8;}
	.st4{fill:#EFF0F0;}
	.st5{fill:url(#SVGID_3_);}
	.st6{fill:url(#SVGID_4_);}
</style>
<title>Artboard 25</title>
<g>
	
		<linearGradient id="SVGID_1_" gradientUnits="userSpaceOnUse" x1="48.2732" y1="94.6292" x2="63.2671" y2="66.3076" gradientTransform="matrix(1 0 0 -1 0 125.276)">
		<stop  offset="0" style="stop-color:#FFFFFF"/>
		<stop  offset="3.750000e-02" style="stop-color:#F3F6F7"/>
		<stop  offset="0.1259" style="stop-color:#DDE6E7"/>
		<stop  offset="0.2231" style="stop-color:#CEDADC"/>
		<stop  offset="0.3349" style="stop-color:#C5D3D5"/>
		<stop  offset="0.4944" style="stop-color:#C2D1D3"/>
		<stop  offset="0.6077" style="stop-color:#BBCDCF"/>
		<stop  offset="0.7596" style="stop-color:#AAC3C3"/>
		<stop  offset="0.9328" style="stop-color:#8FB4B1"/>
		<stop  offset="1" style="stop-color:#81ADA8"/>
	</linearGradient>
	<path class="st0" d="M76.4,46.1c-0.7,0.1-1.3,0.1-2.2,0.1c-1.1-1.6-2-3.5-3.2-5c-0.2-0.3-0.5-0.6-0.8-0.8c-0.7-1.1-1.6-2-2.4-3
		c-1.5-1.3-2.7-2.9-4.3-4.1c-0.1-0.3-0.5-0.6-0.8-0.6c0.5,0.8,1.5,1.1,2,2c2.2,1.9,4,4.1,5.8,6.4c1.3,1.5,2.4,3.5,3.4,5.2
		c-0.7,0.1-1.6,0.1-2.4,0.2c-1.3-2.3-2.8-4.4-4.3-6.6c-1.9-2.1-3.7-4.3-6-6c0-0.2-0.1-0.1-0.1-0.3c-0.3-0.1-0.3-0.5-0.7-0.4
		c0.8,1.1,2,1.7,2.8,2.8c0.7,0.5,1.4,1.2,1.9,2c1.3,1.5,2.7,2.8,3.7,4.6c0.7,0.8,1.1,1.8,1.8,2.5c0.2,0.6,0.6,0.9,0.9,1.4
		c-1.1,0.1-2,0.2-2.8,0.4c-0.2-0.5-0.7-1-0.7-1.4c-1.5-1.8-2.8-3.8-4.3-5.6c-0.5-0.4-1.1-0.8-1.4-1.4c-1-0.7-1.7-1.9-2.7-2.3
		c0,0.3,0.3,0.5,0.5,0.7c0.4,0.3,0.7,0.5,1,0.9c0.3,0.3,0.7,0.7,1,0.9c0,0.1-0.1,0.1-0.1,0.2c0.2-0.1,0.1,0,0.3,0
		c0.1,0.2,0.2,0.5,0.5,0.5c0.4,0.5,0.9,1.1,1.4,1.6c0.3,0.4,0.6,0.7,0.9,1.1c0.6,0.8,1.2,1.7,1.9,2.4c0.5,0.8,1,1.6,1.5,2.4
		c-0.9,0.3-1.9,0.4-3,0.6c-0.7-1-1.1-2.3-1.9-3.3c-1.3-1.6-2.5-3.2-4-4.5c-0.7-0.2-1-0.8-1.7-1c0.1,0.5,1,0.8,1.5,1.2
		c0.2,0.2,0.5,0.4,0.7,0.6c0.5,0.5,0.9,1.1,1.4,1.6c1.4,1.6,2.8,3.3,3.7,5.4c-0.7,0.3-1.6,0.4-2.4,0.6c-1.2-2.9-3.2-5.2-5.5-7
		c-0.1,0.5,0.7,0.6,0.8,1.1c0.7,0.4,1.1,1.2,1.8,1.6c1,1.4,2,2.8,2.8,4.4c-0.8,0.2-1.4,0.5-2.3,0.7c-0.8-1.5-1.8-2.8-3-3.8
		c-0.5-0.6-1.1-1.2-1.9-1.4c0.6,0.7,1.4,1.1,2.1,1.8c0.3,0.3,0.5,0.7,0.7,1c0.2,0.1,0.4,0.3,0.5,0.6c0.6,0.6,1,1.3,1.4,2.1
		c-0.8,0.3-1.8,0.5-2.5,0.9c-1-1.5-2-2.9-3.6-3.9c0.1,0.5,0.7,0.7,1.1,1.1c0.6,0.5,1.2,1.3,1.7,2c0.1,0.1,0.1,0.4,0.2,0.5
		c0.1,0.2,0.3,0.2,0.3,0.4c-0.7,0.2-1.3,0.6-2,0.8c-0.8-1.6-1.9-3-3.5-3.8c0.3,0.6,1.1,0.8,1.4,1.3c0.1,0.1,0.2,0.1,0.3,0.1
		c0.6,0.8,1.2,1.5,1.7,2.5c-0.8,0.2-1.4,0.5-2.1,0.8c-1.3-1.1-2.2-2.5-3.6-3.5c0.1,0.5,0.7,0.9,1.1,1.2c0.5,0.6,1,1.2,1.6,1.7
		c0.2,0.3,0.4,0.5,0.6,0.7c-0.4,0.5-1.2,0.7-1.8,0.9c-0.3,0.2-0.6,0.5-1,0.6c-1-1.2-2-2.4-2.9-3.6c0,0.5,0.4,0.9,0.7,1.2
		c0.7,0.8,1.4,1.6,2,2.4c-0.6,0.6-1.5,0.8-2.2,1.2c-0.6-1.2-1.5-2.1-2.7-2.7c0,0.4,0.4,0.5,0.8,0.6c0.2,0.3,0.4,0.5,0.8,0.7
		c0.3,0.6,0.8,0.9,1,1.5c-0.8,0.5-1.6,1.1-2.5,1.6c-0.4-0.5-0.7-1.1-1.2-1.5c-0.1,0.6,0.7,1.1,1,1.7c-0.4,0.5-1.1,0.7-1.5,1.2
		c-0.3-0.1-0.4-0.3-0.6-0.4c0.6-1.3,0.8-2.7,1.1-4c0.1-0.4,0.3-0.7,0.3-1c0-0.3,0-0.5,0.1-0.8c0.6-2.7,3.1-3.3,5.4-4.5
		c1.5-0.9,3.6-1.1,4.9-2.1c1.1-1.2,0.4-2.7,0.7-4.4c0-0.2,0.1-0.6,0.2-0.8c0,0,0.1,0,0.2-0.1c0.1-0.3,0.3-0.6,0.5-0.8
		c0.7-0.6,1.4-0.9,1.8-1.8c0.6-1.5-0.2-3.7,0.9-4.9c0.4-0.3,0.9-0.5,1.4-0.7c1.4-0.2,3.2-0.4,4.3,0.2c0.6,0.3,0.9,1,1.4,1.3
		c1.8,2.4,3.7,4.7,5.9,6.7C72.9,41.7,74.7,43.8,76.4,46.1L76.4,46.1z"/>
	
		<linearGradient id="SVGID_2_" gradientUnits="userSpaceOnUse" x1="7.0736" y1="60.0561" x2="32.7481" y2="60.0561" gradientTransform="matrix(1 0 0 -1 0 125.276)">
		<stop  offset="0" style="stop-color:#FFFFFF"/>
		<stop  offset="3.750000e-02" style="stop-color:#F3F6F7"/>
		<stop  offset="0.1259" style="stop-color:#DDE6E7"/>
		<stop  offset="0.2231" style="stop-color:#CEDADC"/>
		<stop  offset="0.3349" style="stop-color:#C5D3D5"/>
		<stop  offset="0.4944" style="stop-color:#C2D1D3"/>
		<stop  offset="0.6077" style="stop-color:#BBCDCF"/>
		<stop  offset="0.7596" style="stop-color:#AAC3C3"/>
		<stop  offset="0.9328" style="stop-color:#8FB4B1"/>
		<stop  offset="1" style="stop-color:#81ADA8"/>
	</linearGradient>
	<path class="st1" d="M32.3,56.8c-0.2,1-0.6,1.9-0.8,3c-0.2,1.6,0.2,3.1,0.2,4.7c0,1.2-0.4,2.3-0.3,3.4c0.1,0.9,0.7,1.8,0.8,2.7
		c0.1,1-0.2,2-0.1,3c0.1,0.7,0.3,1.3,0.6,1.9c-1.1,0.3-2.1,0.6-3,1.1c-0.6,0-0.9,0.3-1.2,0.5c-1.7,0.6-3.3,1.4-4.8,2.2
		c-1.6,0.8-3.1,1.6-4.6,2.3c-1.2,0.7-2.3,1.4-3.5,2.1c-1.2,0.7-2.5,1.1-3.8,1.8c-1.1,0.2-2,0.8-3.2,0.4c0-0.2-0.1-0.2-0.2-0.3
		c-0.3-2.4,1.6-3.1,2.5-4.4c0.5-0.7,0.4-1.6,0.2-2.5c-0.2-0.7-0.4-1.3,0.3-1.9c0.2-0.2,0.5-0.3,0.7-0.4c0.6-0.5,1.2-1,1.6-1.5
		c0.3-1.1-0.3-1.9-0.3-3c0.5-0.9,1.9-1,2.8-1.5c0.7-0.4,0.6-1,0.3-1.8c-0.2-0.4-0.4-0.9-0.3-1.4c0.2-0.8,1.1-1.4,1-2.2
		c-0.1-1-2.1-1.3-2.4-2.2c0-0.5,0-0.9,0-1.5c-0.2-0.8-0.8-1.2-1.3-1.7c-0.2-0.2-0.5-0.5-0.7-0.8c-0.8-1.6,0-4.5-0.5-6.4
		c-0.7-2.2-3.4-2-4.4-3.8c0-0.3-0.1-0.5-0.3-0.7c-0.1-1.1-0.4-2-0.4-3.3c0.1-0.1,0.3-0.3,0.4-0.3c1.3,0.2,2.3,0.8,3.4,1.4
		c2.5,1.5,5.1,2.9,7.6,4.4C23.2,52.3,28,54.3,32.3,56.8L32.3,56.8z M30.5,56.8c-1.6-0.6-3.2-1.3-4.7-2c-2-0.9-4.1-1.9-5.9-2.9
		c-1.8-0.8-3.5-1.8-5.2-2.7c-1.7-0.9-3.2-2.1-5-3c-0.1,0-0.1,0-0.1,0.1v0.2c1.1,0.6,2.1,1.2,3.1,1.9c0.4,0.2,0.7,0.4,1.1,0.6
		c1.4,0.8,2.8,1.7,4.3,2.3c0.7,0.7,1.8,0.9,2.6,1.4c0.9,0.5,1.8,1,2.7,1.4c1.4,0.6,2.6,1.3,4.1,1.7c1.4,0.7,2.7,1.4,4.4,1.8
		C31.5,57.1,31,57,30.5,56.8z M12.3,49.9c1.6,1.1,3.1,2.2,5,3c1.7,1.1,3.6,2,5.6,2.9c2,0.9,4.1,1.8,6.2,2.5c0.7,0.2,1.5,0.5,2.2,0.4
		c-7-2.1-13.4-5.2-19-9C12.4,49.8,12.4,49.8,12.3,49.9L12.3,49.9z M29.9,60.1c-1.1-0.3-2.1-0.7-3.2-1c-1-0.3-2-0.7-3-1.1
		c-3.2-1.1-6.3-2.5-9.3-3.9c-0.1,0-0.1,0-0.2,0.1c5.1,2.5,10.8,4.8,16.6,6.3C30.7,60.1,30.2,60.2,29.9,60.1z M29.4,62
		c-1.3-0.3-2.5-0.9-3.8-1c-0.1-0.1-0.2-0.1-0.3-0.2c-3.3-0.8-6.8-2.4-9.8-3.8c-0.1,0-0.1,0-0.1,0.1v0.2c4.7,2.3,10,4.3,15.6,5.4
		C30.8,62,29.9,62.1,29.4,62L29.4,62z M16.7,60.4C16.7,60.3,16.7,60.4,16.7,60.4c-0.1,0.1-0.1,0.1-0.1,0.2c2.1,0.5,4.1,1.2,6.4,1.6
		c1.9,0.7,3.8,1,5.6,1.6H29c0.4,0.2,0.9,0.3,1.3,0.4c0.1,0.1,0.6,0.3,0.6,0C26.2,62.8,21.8,61.6,16.7,60.4L16.7,60.4z M27.9,64.9
		c-0.7-0.1-1.5-0.4-2.2-0.5c-2.5-0.5-4.8-0.7-7.4-1.1c-0.1,0-0.1,0-0.1,0.1c0,0-0.1,0-0.1,0.1c1.3,0.3,2.9,0.3,4.3,0.6
		c1.1,0.2,2.3,0.5,3.4,0.7c0.8,0.1,1.6,0.3,2.4,0.4c0.9,0.2,1.8,0.7,2.7,0.5C30,65.2,28.8,65.1,27.9,64.9L27.9,64.9z M27.7,66.7
		c-1.9-0.2-4.2-0.3-6.2-0.2c-0.2,0.1-0.8,0-1.3,0.1c-0.3,0-0.6,0.1-0.9,0.2c-0.4,0-0.8-0.1-1,0.2c0.8,0.1,1.6-0.1,2.5-0.2
		c2.9-0.2,5.7,0,8.2,0.5c0.5,0.1,0.9,0.2,1.3,0.1C29.6,67,28.6,66.8,27.7,66.7L27.7,66.7z M30.3,68.8c-0.8-0.1-1.6-0.2-2.4-0.2
		c-3-0.2-5.7,0.2-8.6,0.5c-0.4,0-0.9-0.1-1.2,0.3c0.9,0.1,1.7-0.2,2.6-0.3c0.8-0.1,1.7-0.2,2.6-0.3c2.8-0.2,5.6,0.1,8,0.2
		C31.2,68.9,30.7,68.8,30.3,68.8z M30.9,71.2c-3.7-0.7-6.9-0.2-10.3,0.2c-0.7,0.3-1.5,0.4-2.3,0.5c-0.5,0.4-1.6,0.3-2,0.9
		c2.4-0.8,4.9-1.3,7.7-1.5c0.4,0,0.7-0.1,1.1-0.2c2.1-0.1,4.3,0.1,6.4,0.3C31.3,71.2,31,71.2,30.9,71.2L30.9,71.2z M16.1,75.1
		c-0.5,0.4-1.5,0.2-1.8,0.8c2.2-0.5,4.6-1.4,7.2-1.9c2.9-0.5,5.9-0.8,8.7-1c0.4,0,0.8,0.1,1.1-0.2C26.5,72.8,20.7,73.9,16.1,75.1
		L16.1,75.1z M22.2,75.9c-0.1,0.1-0.1,0.1-0.2,0.2c-2.7,0.8-5.4,1.8-7.6,2.9c-0.6,0.3-1.3,0.5-1.7,0.9c0.8-0.2,1.5-0.6,2.3-1
		c0.7-0.4,1.5-0.8,2.4-1c0.3-0.3,1-0.4,1.3-0.7c2-0.6,3.8-1.3,5.9-1.8c0.1-0.1,0.1-0.1,0.2-0.2c1.9-0.3,3.7-0.8,5.5-1
		c0.4-0.1,0.9,0.1,1.1-0.3C28.2,74.4,25.3,75.2,22.2,75.9L22.2,75.9z M29.5,75.4c-3.9,1-7.4,2.4-10.8,3.8c-2.3,1.2-4.8,2.3-6.8,3.8
		c-0.4,0.3-1,0.3-1.1,0.9c4-2.5,8.1-4.9,13.1-6.5c0.7-0.5,1.6-0.6,2.5-0.9c1.1-0.3,2.2-0.7,3.4-1c0.6-0.1,1.3-0.1,1.8-0.5
		C30.8,75.1,30.1,75.3,29.5,75.4L29.5,75.4z"/>
	<path d="M31.9,57.5c-1.7-0.4-3-1.1-4.4-1.8c-1.4-0.5-2.7-1.1-4.1-1.7c-0.9-0.4-1.8-0.9-2.7-1.4c-0.9-0.5-1.9-0.7-2.6-1.4
		c-1.6-0.6-2.9-1.5-4.3-2.3c-0.4-0.2-0.7-0.4-1.1-0.6c-1-0.6-2-1.3-3.1-1.9v-0.2c0,0,0.1-0.1,0.1-0.1c1.7,0.9,3.2,2.1,5,3
		c1.7,0.9,3.4,1.9,5.2,2.7c1.9,1.1,3.9,2,5.9,2.9c1.5,0.7,3.1,1.3,4.7,2C31,57,31.5,57.1,31.9,57.5z"/>
	<path d="M95.5,50.2c0,0.2-0.5,0-0.8-0.1c-5.1-1.9-10.9-3.1-17.5-3.2c-0.9,0-1.8-0.1-2.8-0.1c-0.9,0-1.8,0.2-2.7,0.3
		c-2.5,0.3-5.1,0.4-7.3,1c-3.1,0.9-6.1,1.7-8.8,2.8c-5.5,2.3-10.4,5.4-14.6,8.8c0.4-0.6,1.1-0.9,1.6-1.4c2.7-2,5.5-3.9,8.6-5.5
		c0.6-0.3,1.3-0.6,1.9-0.9c0.6-0.3,1.2-0.7,1.9-0.9c2-0.8,4.1-1.5,6.2-2.2c2.9-0.9,6-1.4,9.2-1.8C79.6,45.9,88.7,47.6,95.5,50.2
		L95.5,50.2z"/>
	<path d="M96,51.3c-0.6,0-1.1-0.2-1.7-0.4c-3.9-1.3-8.3-2.3-13-2.8c-3.5-0.4-7.2-0.2-11,0.2c-1.1,0.1-2.6,0.3-3.9,0.5
		c-1.3,0.2-2.4,0.6-3.7,0.8c-1.2,0.2-2.3,0.7-3.4,1c-2.3,0.6-4.4,1.5-6.5,2.5c-1,0.5-2.1,0.9-3,1.4c-0.9,0.5-1.9,1-2.8,1.6
		c-1.9,1.2-3.6,2.5-5.3,3.6c0.6-0.7,1.4-1.1,2.1-1.7c0.7-0.5,1.5-1,2.3-1.5c2.9-2,6.4-3.6,10-5.1c1.8-0.7,3.7-1.1,5.6-1.9
		c4.5-1.1,8.8-1.7,14-1.9c2.5-0.1,4.2,0.1,6.5,0.4C87.1,48.5,91.8,49.7,96,51.3L96,51.3z"/>
	<path d="M12.3,49.7c5.6,3.8,12,7,19,9c-0.8,0.1-1.5-0.2-2.2-0.4c-2.2-0.7-4.3-1.6-6.2-2.5c-2-0.9-3.9-1.8-5.6-2.9
		c-1.8-0.8-3.4-1.9-5-3C12.4,49.8,12.4,49.8,12.3,49.7L12.3,49.7z"/>
	<path d="M89,52.4c-0.4,0.1-0.8-0.1-1.2-0.2c-1.4-0.2-2.7-0.5-4-0.8c-4.2-0.7-9-0.7-13.8-0.3c-1.4,0.1-2.9,0.5-4.4,0.8
		c-1.5,0.3-3.1,0.6-4.5,1c0.4-0.3,0.9-0.4,1.4-0.5c1-0.2,2-0.4,3.1-0.6c0.4-0.1,0.9-0.3,1.3-0.4c1.8-0.3,3.8-0.6,5.8-0.7
		C78.6,50.5,84,51.2,89,52.4L89,52.4z"/>
	<path class="st2" d="M117.4,64.7c-0.5,1.5-1.5,2.5-2.7,3.2c-2,1-3.9,2-5.1,3.7c-0.9,0.6-1.7,1.8-3.4,1.3c-2.1-1.1-4.8-1.6-5.8-3.7
		c-0.3-1-0.7-2.5-0.8-3.6c-0.2-1.6-0.5-3.3-0.1-4.6c0.1-0.3,0.4-0.6,0.6-0.9c0.2-0.3,0.3-0.7,0.6-0.9c0.1-0.8,0.5-1.5-0.1-2.1
		c-0.8-0.7-2.4,0.2-3.4-0.3c0,0-0.1-0.1-0.3-0.2c-0.4-0.3-1.6-1.9-0.9-2.8c0.1-0.1,0.2-0.1,0.4-0.3c0.4-0.4,0.6-1,0.9-1.2
		c0.5-0.3,2.2-0.6,2.9-0.4c0.9,0.3,1.9,0.9,2.9,1.5c0.7,0.4,1.4,0.8,2.1,1.2c0.5,0.3,1.1,0.6,1.5,1c0.2,0,0.2,0.1,0.3,0.1
		c1.4,1.2,3.2,2.2,4.4,3.6c0.1,0,0.1,0.1,0.3,0.1c0.6,0.8,1.6,1.2,2.2,2.1c0.5,0.2,0.7,0.7,1.2,0.9C115.9,63.2,116.6,64,117.4,64.7
		L117.4,64.7z M97.8,52.4c-0.5,0.5-1,1-1.4,1.7c0.8-0.4,1-1.4,2-1.7c0.5-0.1,1.2,0,1.8-0.3C99.4,52,98.7,52.2,97.8,52.4L97.8,52.4z
		 M103.6,54c2.2,1.4,4.4,2.7,6.3,4.3c1,0.5,1.5,1.4,2.5,1.9c0.5,0.6,1.2,1,1.7,1.6c0.2,0,0.2,0.1,0.3,0.1c0.6,0.9,1.4,1.6,2.2,2.3
		c-0.2-0.5-0.6-0.7-0.9-1c-0.8-1.2-2-2-3-2.9c-0.3-0.2-0.5-0.6-0.8-0.7c-0.5-0.6-1.2-1.1-1.9-1.5c0-0.1,0.1-0.1,0-0.2
		c-1.4-0.8-2.4-1.9-3.9-2.6c0-0.1-0.1-0.1-0.1-0.2c-1.4-0.7-2.8-1.5-4.2-2.3C102.2,53.5,102.9,53.7,103.6,54L103.6,54z M104.7,68
		c0.7,0,1.5-0.1,2.1-0.4c1.2-0.5,2.2-1.9,2.3-3.1c0.1-0.4,0.1-1.1,0-1.5c-0.1-0.4-0.4-1.2-0.6-1.5c0,0-0.2,0-0.3-0.1
		c-0.1-0.1-0.1-0.2-0.1-0.3c-0.2-0.3-0.3-0.4-0.5-0.5c-0.5-0.4-1.3-0.8-1.9-0.9c-2.2-0.4-3.8,0.6-4.8,2.3
		C100,65.3,101.9,67.8,104.7,68L104.7,68z M100.4,67.8c0,0.5,0.2,0.7,0.2,1.1c0.5,1.3,1.6,2,2.9,2.5c0,0.1,0.2,0,0.1,0.2
		c1.6,0.3,2.9,1.7,4.6,0.9c0-0.1,0-0.2,0.1-0.2c1.2-0.7,1.8-1.9,3.1-2.8c1.7-1.2,4.5-1.9,5.4-4c-0.4,0.1-0.3,0.5-0.5,0.8
		c-0.1,0.2-0.4,0.4-0.6,0.6c-0.9,0.6-1.9,1.2-2.8,1.7c-0.2,0.1-0.5,0.3-0.7,0.4c-1,0.6-1.7,1.3-2.6,2c-0.7,0.9-1.7,2-3.3,1.5
		c-1.9-1.1-4.6-1.5-5.5-3.6c-0.3-1.3-0.5-2.4-0.7-3.7c0,0,0-0.1-0.1-0.1C99.9,66,100.1,67.1,100.4,67.8L100.4,67.8z"/>
	<path class="st3" d="M93.7,52.1c0.8,0.1,1.7,0.6,2.6,0.9c0,0.3-0.2,0.3-0.3,0.5C95.2,53.1,94.5,52.6,93.7,52.1L93.7,52.1z"/>
	<path d="M100.2,52.1c-0.6,0.2-1.3,0.2-1.8,0.3c-1.1,0.2-1.2,1.2-2,1.7c0.4-0.6,0.9-1.1,1.4-1.7C98.7,52.2,99.4,52,100.2,52.1
		L100.2,52.1z"/>
	<path d="M56.5,54c-0.6,0.5-1.5,0.5-2.4,0.8c-1,0.4-2.3,0.8-3.4,1.3c-0.9,0.4-1.8,0.9-2.7,1.4c-1.4,0.7-2.6,1.7-4,2.5
		c0.3-0.5,1-0.8,1.7-1.2c0.4-0.3,0.9-0.6,1.3-0.8c0.9-0.8,2.4-1.1,3.4-1.9C52.4,55.4,54.3,54.5,56.5,54L56.5,54z"/>
	<path d="M30.9,60.5C25,59,19.4,56.7,14.3,54.2c0-0.1,0.1-0.1,0.2-0.1c3,1.4,6.1,2.8,9.3,3.9c1,0.3,2,0.8,3,1.1
		c1.1,0.3,2.1,0.7,3.2,1C30.2,60.2,30.7,60.1,30.9,60.5z"/>
	<path class="st2" d="M95.6,54.5c0,1.1,0.6,2.5,1.6,2.8c1,0.3,2.3-0.4,3.2,0.2c0.5,1.1-0.6,2-1.1,2.9c-0.4,1.2-0.3,2.8-0.6,4.4
		c-0.1,0.6-0.3,1.4-0.4,2.2c-0.1,1.5,0.3,2.8,0.8,4.1c-0.1,0.1-0.3,0.2-0.4,0.4c-0.4,0.2-0.9,0-1.2-0.2c-0.5-0.7-0.8-1.6-1.4-2.4
		c-0.6-0.8-1.6-1.3-1.9-2.4c-0.2-0.5-0.1-1-0.2-1.6c-0.3-2.6-0.8-5.1-0.2-7.7C94.2,56.1,94.9,55.3,95.6,54.5L95.6,54.5z M94.5,56.3
		c-0.4,1-0.5,2.7-0.6,4.3c0,0.4-0.2,0.9,0.1,1.1c0-2.4,0.1-4.8,1.1-6.2H95C94.9,55.8,94.7,56.1,94.5,56.3L94.5,56.3z M96.4,57.3
		c0.6,0.3,1.2,0.6,2,0.5c0.5-0.1,1-0.3,1.5-0.2c0.1,0.1,0.2,0.2,0.3,0.4c-0.2,1.2-1.3,2-1.5,3.4c-0.2,1.3-0.2,2.4-0.4,3.7
		c-0.2,1.1-0.5,2.2-0.4,3c0.1,1.1,0.7,2,0.8,3c-0.9,0.6-1.3-0.9-1.7-1.5c-0.4-0.8-1-1.2-1.5-1.8c-0.9-1.1-1-2.7-1.3-4.3
		c0.2,1,0,2.3,0.5,3.4c0.3,0.7,1,1.1,1.5,1.7c0.3,0.4,0.5,0.8,0.7,1.2c0.4,0.8,1,2,2,1.3c-0.2-0.7-0.3-1.3-0.6-1.9
		c-0.4-1.3,0-3.3,0.2-4.5c0.2-1.2,0.1-2.4,0.3-3.4c0.3-1.3,1.3-2.2,1.5-3.4c-0.1-0.1-0.2-0.2-0.2-0.4c-0.5-0.3-1.2,0-1.8,0.1
		c-1.4,0.2-2.1-0.7-2.7-1.5C95.7,56.7,96.2,56.8,96.4,57.3L96.4,57.3z"/>
	<path class="st3" d="M89.9,54.7c1.4,0.3,3.1,0.5,4.4,0.7c-0.1,0.3-0.3,0.4-0.4,0.7c-0.3-0.1-0.7-0.2-1-0.4
		c-0.6-0.1-1.2-0.3-1.7-0.6C90.8,55.1,90.2,55,89.9,54.7L89.9,54.7z"/>
	<path d="M95,55.5h0.2c-1,1.4-1.1,3.8-1.1,6.2c-0.3-0.2-0.1-0.7-0.1-1.1c0-1.6,0.1-3.3,0.6-4.3C94.7,56.1,94.9,55.8,95,55.5L95,55.5
		z"/>
	<path d="M95.7,56.2c0.7,0.8,1.4,1.7,2.7,1.5c0.6-0.1,1.3-0.4,1.8-0.1c0,0.2,0,0.3,0.2,0.4c-0.2,1.2-1.3,2.1-1.5,3.4
		c-0.2,1-0.2,2.2-0.3,3.4c-0.2,1.2-0.6,3.2-0.2,4.5c0.3,0.6,0.4,1.3,0.6,1.9c-1,0.7-1.5-0.5-2-1.3c-0.2-0.4-0.4-0.8-0.7-1.2
		c-0.5-0.6-1.2-1-1.5-1.7c-0.5-1.1-0.4-2.4-0.5-3.4c0.3,1.6,0.4,3.2,1.3,4.3c0.5,0.6,1.1,1,1.5,1.8c0.3,0.6,0.8,2.1,1.7,1.5
		c-0.1-1-0.6-1.8-0.8-3c-0.1-0.8,0.2-1.9,0.4-3c0.2-1.3,0.2-2.4,0.4-3.7c0.2-1.4,1.3-2.2,1.5-3.4c-0.1-0.1-0.2-0.2-0.3-0.4
		c-0.5-0.1-1,0.1-1.5,0.2c-0.9,0.1-1.4-0.2-2-0.5C96.2,56.8,95.7,56.7,95.7,56.2L95.7,56.2z"/>
	<path d="M31.1,62.5c-5.6-1.1-10.9-3.1-15.6-5.4V57c0,0,0.1-0.1,0.1-0.1c3.1,1.4,6.5,3,9.8,3.8c0.1,0.1,0.2,0.1,0.3,0.2
		c1.3,0.1,2.5,0.8,3.8,1C29.9,62.1,30.8,62,31.1,62.5L31.1,62.5z"/>
	<path class="st2" d="M42.6,57.5c-0.4,0.4-0.9,1-1.4,1.1C41.4,58,41.9,57,42.6,57.5z"/>
	<path d="M33,57.9c0-0.1,0.1,0,0.1-0.1c2.1,0.9,4.3,1.9,6.8,2.1C37.4,60,35,58.8,33,57.9z"/>
	<path d="M32.6,58.8h0.2c-0.1,0.4-0.3,0.7-0.4,1.1c-0.2,1.2,0.4,2.4,0.5,3.6c0.1,0.9-0.3,1.8-0.5,2.8c-0.1,0.7,0.1,1.2,0.2,1.9
		c0.8,1.8,1,3.3,0.5,5.4c-0.1-0.9,0.2-1.9,0.2-2.8c-0.1-1.7-1.1-2.9-0.9-4.5c0.1-0.9,0.6-1.8,0.5-2.8c-0.1-0.8-0.5-1.7-0.6-2.5
		C32.1,60.2,32.4,59.5,32.6,58.8L32.6,58.8z"/>
	<path d="M101.1,62c1-1.7,2.6-2.7,4.8-2.3c0.6,0.1,1.3,0.5,1.9,0.9c0.2,0.1,0.3,0.3,0.5,0.5c0,0.1,0,0.2,0.1,0.3
		c0.1,0.1,0.2,0.1,0.3,0.1c0.2,0.3,0.5,1.1,0.6,1.5c0.1,0.5,0.1,1.1,0,1.5c-0.2,1.2-1.1,2.6-2.3,3.1c-0.5,0.2-1.4,0.4-2.1,0.4
		C101.9,67.8,100,65.3,101.1,62L101.1,62z M103.4,60.3c-1.2,0.7-2.1,1.6-2.3,3c-0.4,2.1,1.3,4.3,3.7,4.4c2,0.1,3.6-1.5,4-3.1
		c0.5-2.1-1-3.5-2.4-4.3C105.4,59.9,104.4,60,103.4,60.3L103.4,60.3z"/>
	<path class="st4" d="M106.4,60.2c1.4,0.9,2.9,2.3,2.4,4.3c-0.4,1.6-2,3.2-4,3.1c-2.3-0.1-4.1-2.3-3.7-4.4c0.3-1.4,1.1-2.3,2.3-3
		C104.4,60,105.4,59.9,106.4,60.2L106.4,60.2z M103.8,62.1c-0.3,0.2-0.7,0.7-0.8,1.1c-0.1,0.4,0,0.8,0,1.3c0.4,0.6,0.8,1.2,1.6,1.3
		c1.6,0.2,2.7-1,2.4-2.4c-0.1-0.5-0.5-0.8-0.8-1.2C105.4,61.8,104.5,61.7,103.8,62.1L103.8,62.1z"/>
	<path d="M30.9,64.1c0,0.3-0.5,0.1-0.6,0c-0.5-0.1-0.9-0.2-1.3-0.4h-0.4c-1.7-0.6-3.7-0.9-5.6-1.6c-2.2-0.4-4.2-1.1-6.4-1.6
		c0-0.1,0-0.1,0.1-0.1c0-0.1,0-0.1,0.1-0.1C21.8,61.6,26.2,62.8,30.9,64.1L30.9,64.1z"/>
	<path d="M40.8,60.7c-0.5,0.5-1.2,1-1.8,1.4c-0.1,0.3-0.4,0.6-0.6,0.8c-0.3,0.7-0.8,1.5-0.9,2.4c-0.2,1,0,2.1,0.2,3
		c0.5,1.2,1.2,2.2,2.1,3c-0.2,0.1-0.7-0.3-0.9-0.6c-0.3-0.3-0.4-0.7-0.7-0.9c-0.2-0.5-0.5-1-0.7-1.5c-0.9-3.7,0.9-6.3,3.2-7.7H40.8
		L40.8,60.7z"/>
	<path d="M106.2,62.1c0.3,0.5,0.7,0.7,0.8,1.2c0.3,1.4-0.8,2.7-2.4,2.4c-0.8-0.1-1.2-0.7-1.6-1.3c0-0.5-0.1-0.9,0-1.3
		c0.1-0.3,0.5-0.9,0.8-1.1C104.5,61.7,105.4,61.8,106.2,62.1L106.2,62.1z"/>
	<path d="M41.1,62.2c-0.6,0.8-1.2,1.7-1.5,2.7c0,0.3,0,0.6-0.2,0.8c0,0.8,0,1.5,0.2,2.1c0.2,0.9,0.8,1.5,1,2.2
		c-0.6-0.6-0.9-1.5-1.1-2.4c0-0.1-0.1-0.3-0.2-0.4c-0.1-2.4,0.7-3.7,1.8-5L41.1,62.2L41.1,62.2z"/>
	<path d="M30.9,65.7c-0.9,0.1-1.8-0.4-2.7-0.5c-0.8-0.1-1.6-0.3-2.4-0.4c-1.2-0.2-2.3-0.5-3.4-0.7c-1.5-0.2-3-0.2-4.3-0.6
		c0-0.1,0-0.1,0.1-0.1c0,0,0.1-0.1,0.1-0.1c2.6,0.4,4.9,0.6,7.4,1.1c0.8,0.1,1.5,0.4,2.2,0.5C28.8,65.1,30,65.2,30.9,65.7z"/>
	<path class="st2" d="M93.5,63.5c0.3,1.5,0.3,3.2,0.9,4.3c1.3,1,2,2.5,2.9,3.9c0.9,0.4,2.3,0.2,2.1-0.9c0-0.1-0.2-0.2-0.2-0.4
		c-0.2-0.5-0.2-1.2-0.5-1.5c-0.3-1.5,0.1-3.2,0.3-4.6c0.1,1,0.2,2.1,0.4,3c0.2,1.1,0.6,2.4,1.2,3.1c0.1,0.1,0.1,0.2,0.2,0.3
		c0.5,0.4,1.4,0.9,2.1,1.2c0.1,0.1,0.2,0.2,0.3,0.2c0.5,0.2,1,0.3,1.5,0.5c0.5,0.2,1,0.6,1.5,0.7c1.1,0.2,2.1-0.2,2.8-0.7
		c0.5-0.6,1.2-1.1,1.6-1.8c0.6-0.4,1.1-1,1.8-1.3c1.6-0.9,3.4-1.7,4.5-3c0.5,0.1,1,0.1,1.5,0.3c-0.7,2.1-2.2,3.6-3.8,4.9
		c-0.9,0.7-2,1.1-2.9,1.6c-2.3,1.2-4.2,2.9-6,4.4c-1.3,0.8-3,1.4-4.9,0.7c-0.8-0.3-1.7-0.9-2.3-1.5c-0.3-0.3-0.4-0.4-0.7-0.6
		c-0.7-1-1-2.4-1.6-3.5c-0.7-0.6-1.3-1.1-2-1.7C92.8,69,93.3,66.2,93.5,63.5L93.5,63.5z M93.7,69.5c0.5,2,2.9,2.5,3.5,4.6
		c0.1,0.9,0.7,1.4,1,2.2c0.7,0.7,1.6,1.3,2.5,1.8c1.3,0.6,3,0.4,4.3-0.2c1.7-1.2,3.2-2.6,5-3.8c1.8-1,3.7-1.9,5.3-3
		c0.5-0.5,0.9-1.1,1.5-1.5c0.3-0.7,1-1.2,1.2-2.1c-0.5,0.7-0.9,1.3-1.3,2.1c-0.5,0.3-0.8,0.8-1.3,1.2c-1.5,1.2-3.4,2-5.1,3
		c-0.5,0.4-0.9,0.7-1.4,1c-1.3,0.9-2.5,2.2-3.8,2.9c-0.4,0.2-1,0.5-1.5,0.6c-1.7,0.4-2.8-0.5-4.1-1.1c-0.6-0.6-1.3-1.1-1.7-1.9
		c-0.4-0.8-0.5-1.6-0.9-2.3c-0.6-1.1-1.8-1.4-2.5-2.4c-0.7-1-0.7-2.5-0.7-3.8c0,0,0-0.1-0.1-0.1C93.5,67.6,93.6,68.6,93.7,69.5
		L93.7,69.5z"/>
	<path d="M99.9,65.2c0.1,0,0.1,0,0.1,0.1c0.2,1.3,0.4,2.4,0.7,3.7c0.9,2.1,3.6,2.5,5.5,3.6c1.6,0.5,2.6-0.6,3.3-1.5
		c0.8-0.7,1.5-1.4,2.6-2c0.2-0.1,0.5-0.3,0.7-0.4c0.9-0.5,2-1.1,2.8-1.7c0.2-0.1,0.5-0.4,0.6-0.6c0.2-0.2,0.1-0.7,0.5-0.8
		c-0.8,2-3.6,2.8-5.4,4c-1.3,0.9-1.9,2.1-3.1,2.8c-0.1,0-0.1,0.1-0.1,0.2c-1.6,0.9-3-0.6-4.6-0.9c0.1-0.2-0.1-0.1-0.1-0.2
		c-1.3-0.5-2.4-1.2-2.9-2.5c0-0.4-0.2-0.6-0.2-1.1C100.1,67.1,99.9,66,99.9,65.2L99.9,65.2z"/>
	<path d="M30.3,67.3c-0.4,0.1-0.9,0-1.3-0.1c-2.5-0.5-5.3-0.7-8.2-0.5c-0.9,0.1-1.7,0.3-2.5,0.2c0.2-0.3,0.6-0.2,1-0.2
		c0.3,0,0.6-0.1,0.9-0.2c0.4,0,1.1,0,1.3-0.1c2.1-0.1,4.4,0,6.2,0.2C28.6,66.8,29.6,67,30.3,67.3L30.3,67.3z"/>
	<path d="M93.5,66.7c0.1,0,0.1,0,0.1,0.1c0.1,1.3,0,2.8,0.7,3.8c0.7,1,1.9,1.4,2.5,2.4c0.4,0.6,0.5,1.5,0.9,2.3
		c0.4,0.8,1.1,1.3,1.7,1.9c1.2,0.6,2.3,1.4,4.1,1.1c0.5-0.1,1.1-0.3,1.5-0.6c1.3-0.7,2.5-2,3.8-2.9c0.5-0.3,0.9-0.7,1.4-1
		c1.8-0.9,3.7-1.8,5.1-3c0.4-0.4,0.8-0.9,1.3-1.2c0.4-0.7,0.9-1.4,1.3-2.1c-0.2,0.8-0.8,1.3-1.2,2.1c-0.6,0.4-1,1-1.5,1.5
		c-1.6,1.2-3.5,2-5.3,3c-1.7,1.2-3.3,2.6-5,3.8c-1.3,0.6-3,0.8-4.3,0.2c-0.9-0.5-1.7-1.1-2.5-1.8c-0.4-0.7-0.9-1.3-1-2.2
		c-0.6-2.1-3-2.6-3.5-4.6C93.6,68.6,93.5,67.6,93.5,66.7L93.5,66.7z"/>
	<path d="M31.4,69.1c-2.4-0.1-5.2-0.4-8-0.2c-0.9,0-1.7,0.2-2.6,0.3c-0.9,0.1-1.8,0.3-2.6,0.3c0.3-0.3,0.8-0.2,1.2-0.3
		c2.8-0.4,5.6-0.7,8.6-0.5c0.8,0,1.6,0.1,2.4,0.2C30.7,68.8,31.2,68.9,31.4,69.1z"/>
	<path d="M31.4,71.4c-2.1-0.2-4.3-0.4-6.4-0.3c-0.4,0-0.7,0.1-1.1,0.2c-2.8,0.2-5.3,0.8-7.7,1.5c0.4-0.6,1.5-0.5,2-0.9
		c0.8-0.1,1.7-0.2,2.3-0.5c3.5-0.4,6.7-0.9,10.3-0.2C31,71.2,31.3,71.2,31.4,71.4L31.4,71.4z"/>
	<path d="M57.5,78.4c-0.3,0.2-0.9-0.3-1.4-0.2c-0.6-0.2-1.2-0.4-1.9-0.5c0-0.2-0.3,0-0.2-0.2c-4.5-1.3-7.9-3.5-11.4-5.8
		c0-0.1,0-0.1-0.1-0.1c0-0.1,0.1-0.1,0.2-0.1c1.1,0.9,2.4,1.7,3.7,2.5c0.2,0.1,0.3,0.2,0.6,0.4c0.2,0.1,0.6,0.4,0.9,0.5
		c1.8,0.9,3.6,1.6,5.6,2.3C54.7,77.6,56.1,78,57.5,78.4L57.5,78.4z"/>
	<path d="M31.2,72.9c-0.3,0.3-0.7,0.1-1.1,0.2c-2.7,0.2-5.8,0.5-8.7,1c-2.6,0.5-4.9,1.3-7.2,1.9c0.3-0.5,1.3-0.4,1.8-0.8
		C20.7,73.9,26.5,72.8,31.2,72.9L31.2,72.9z"/>
	<path d="M41.6,73C41.6,73,41.6,73.1,41.6,73c1.9,1.1,3.7,2.3,5.6,3.4c1.9,1,3.9,2,5.9,2.8c1.4,0.6,2.9,1,4.3,1.5
		c2.9,1,6,1.7,9.2,2.2c2.4,0.3,4.6,0.7,7.3,0.8c3.4,0.1,8.2-0.2,12-0.8c4.6-0.7,8.9-2.2,12.8-3.6c-0.9,0.5-1.9,0.9-3,1.2
		c-2.6,0.9-5.4,1.6-8.4,2.2c-3.8,0.7-8.5,1.2-12.3,1c-0.7,0-1.5,0-2.3,0c-4.7-0.2-9.2-1.1-13.2-2.3c-6.9-1.8-12.5-4.8-17.9-8.3
		C41.6,73.2,41.6,73.1,41.6,73L41.6,73z"/>
	<path d="M39.6,73.1c-0.1,0.3-0.4,0.2-0.6,0.2c-0.7,0.1-1.3,0.3-2.2,0.4c-0.2,0-0.3,0.1-0.4,0.2c-1.2,0.2-2.1,0.6-3.2,0.9
		c0.8-0.7,2.2-0.8,3.3-1.1c0.1,0,0.2-0.1,0.3-0.2c1-0.1,1.7-0.3,2.6-0.4H39.6L39.6,73.1z"/>
	
		<linearGradient id="SVGID_3_" gradientUnits="userSpaceOnUse" x1="30.383" y1="41.7024" x2="48.6284" y2="48.5625" gradientTransform="matrix(1 0 0 -1 0 125.276)">
		<stop  offset="0" style="stop-color:#FFFFFF"/>
		<stop  offset="3.750000e-02" style="stop-color:#F3F6F7"/>
		<stop  offset="0.1259" style="stop-color:#DDE6E7"/>
		<stop  offset="0.2231" style="stop-color:#CEDADC"/>
		<stop  offset="0.3349" style="stop-color:#C5D3D5"/>
		<stop  offset="0.4944" style="stop-color:#C2D1D3"/>
		<stop  offset="0.6077" style="stop-color:#BBCDCF"/>
		<stop  offset="0.7596" style="stop-color:#AAC3C3"/>
		<stop  offset="0.9328" style="stop-color:#8FB4B1"/>
		<stop  offset="1" style="stop-color:#81ADA8"/>
	</linearGradient>
	<path class="st5" d="M51.8,80.1c-2.2,2.5-6.1,3.3-9.3,4.7c-0.7,0.3-1.8,1.1-2.7,1.2c-0.3,0.1-0.8,0.1-1-0.2c-0.3-1.1,1.5-1.1,1.3-2
		c-0.1-0.5-1.3-0.8-1.4-1.3c-0.1-0.6,1.3-1.3,1.4-2.1c0.1-0.8-0.5-1.2-0.7-1.8c-0.3-0.6,0.4-1.2,0.8-1.7c0.4-0.4,0.9-0.7,0.5-1.6
		c0.5-0.1,0.8-0.3,1.1-0.6c-0.3-0.3-0.9,0.3-1.1,0.5c-0.3-0.5-0.8-0.8-1.2-1.2c0.4-0.2,0.8-0.2,1.3-0.3
		C44.1,76.2,47.7,78.4,51.8,80.1L51.8,80.1z M41.3,76.7c-0.3,0.1-0.6,0.1-0.9,0.3c0.9,0,2.1-0.4,2.5-1.2
		C42.3,76,41.9,76.4,41.3,76.7L41.3,76.7z M43.8,77c-1,0.7-2.4,1.1-3.6,1.6c1,0,2.2-0.7,3.2-1c0.1-0.3,0.6-0.2,0.7-0.6
		C44.1,76.9,43.9,77,43.8,77L43.8,77z M45.3,77.7c-0.9,0.9-2,1.5-3.2,2c-0.3,0-0.5,0.1-0.8,0.2c-0.2,0-0.5,0-0.5,0.3
		c0.5,0,0.8-0.3,1.3-0.3c0.4-0.2,0.8-0.4,1.3-0.5c0.6-0.6,1.8-0.9,2-1.7H45.3L45.3,77.7z M47,78.4c0,0.1-0.1,0.1-0.1,0.1
		c-1,1-1.8,1.9-3.1,2.5c-0.5,0.3-1.1,0.4-1.7,0.6c-0.4,0.1-0.7,0.3-1.1,0.4c-0.3,0.1-0.8-0.1-0.9,0.3c0.6,0.1,1.7-0.3,2.3-0.5
		c1.9-0.7,3.8-1.7,4.8-3.3C47.1,78.4,47,78.4,47,78.4L47,78.4z M49.5,79.4c-0.5,0.3-1,0.7-1.5,1c-0.5,0.3-1,0.7-1.5,0.9
		c-1.3,0.7-2.7,1.1-4.2,1.5c-0.4,0.1-0.9,0.2-1.4,0.5c0.9-0.1,2-0.5,3-0.7c1.8-0.7,3.4-1.5,4.9-2.6c0.2-0.1,0.4-0.3,0.7-0.4
		c-0.1-0.2,0.3-0.1,0.2-0.4L49.5,79.4L49.5,79.4z M50.7,80.2c-2.1,1.5-4.7,2.9-7.5,3.7c-0.7,0.2-1.8,0.2-2.2,0.7
		c1.6-0.2,3-0.6,4.2-1.2c1.5-0.4,2.6-1.2,3.9-1.8c0.5-0.5,1.5-0.9,1.8-1.4L50.7,80.2L50.7,80.2z"/>
	<path d="M31.5,74.1c-0.2,0.4-0.7,0.3-1.1,0.3c-1.9,0.3-3.7,0.7-5.5,1c-0.1,0-0.1,0.1-0.2,0.2c-2.1,0.4-3.9,1.2-5.9,1.8
		c-0.4,0.3-1,0.3-1.3,0.7c-0.9,0.2-1.7,0.6-2.4,1c-0.8,0.4-1.5,0.8-2.3,1c0.4-0.5,1.1-0.6,1.7-0.9c2.3-1.2,4.9-2.1,7.6-2.9
		c0.1,0,0.1-0.1,0.2-0.2C25.3,75.2,28.2,74.4,31.5,74.1L31.5,74.1z"/>
	<path class="st3" d="M96.6,74.6c0.2,0.1,0.3,0.4,0.3,0.7c-1.4,0.2-2.8,0.4-4.3,0.7C93.9,75.5,95.3,75.1,96.6,74.6L96.6,74.6z"/>
	<path d="M31.6,75.1c-0.5,0.4-1.2,0.3-1.8,0.5c-1.2,0.3-2.3,0.7-3.4,1c-0.9,0.3-1.8,0.4-2.5,0.9c-4.9,1.6-9.1,3.9-13.1,6.5
		c0.1-0.5,0.7-0.6,1.1-0.9c2-1.5,4.5-2.6,6.8-3.8c3.4-1.4,6.9-2.9,10.8-3.8C30.1,75.3,30.8,75.1,31.6,75.1L31.6,75.1z"/>
	<path d="M42.9,75.7c-0.4,0.8-1.6,1.3-2.5,1.2c0.2-0.2,0.6-0.2,0.9-0.3C41.9,76.4,42.3,76,42.9,75.7L42.9,75.7z"/>
	<path d="M44.1,77c-0.1,0.3-0.6,0.2-0.7,0.6c-1,0.3-2.1,1-3.2,1c1.2-0.5,2.6-0.9,3.6-1.6C43.9,77,44.1,76.9,44.1,77L44.1,77z"/>
	<path class="st3" d="M99,77.7c-1,0.4-1.9,0.9-3,1.2c0.9-0.5,1.8-1,2.6-1.5C98.7,77.4,98.7,77.7,99,77.7z"/>
	<path d="M45.5,77.7c-0.2,0.8-1.4,1.1-2,1.7c-0.5,0.1-0.9,0.3-1.3,0.5c-0.5,0-0.8,0.3-1.3,0.3C40.8,80,41.1,80,41.3,80
		c0.2-0.1,0.4-0.2,0.8-0.2c1.2-0.5,2.3-1.1,3.2-2H45.5L45.5,77.7z"/>
	<path d="M47.2,78.4c-1,1.6-2.9,2.6-4.8,3.3c-0.6,0.2-1.7,0.5-2.3,0.5c0.1-0.4,0.6-0.2,0.9-0.3c0.4-0.1,0.7-0.3,1.1-0.4
		c0.6-0.2,1.2-0.3,1.7-0.6c1.3-0.6,2.1-1.5,3.1-2.5c0,0,0.1-0.1,0.1-0.1C47,78.4,47.1,78.4,47.2,78.4L47.2,78.4z"/>
	<path d="M90.5,78.9c-2,0.6-4.2,1.1-6.4,1.3c-3.6,0.4-8.2,0.8-12.4,0.5c-0.4,0-1-0.1-1.6-0.2c-0.8-0.1-1.6-0.2-2.5-0.4
		c-1.8-0.2-3.6-0.4-5.3-0.9c2.7,0.4,5.6,0.9,8.6,1.1c0.3,0,0.5,0.1,0.8,0.2c3.3,0.2,7.1,0.1,10.5-0.4c0.7-0.1,1.3-0.1,2-0.2
		c0.6-0.1,1.2-0.3,1.8-0.4c1.5-0.2,3-0.3,4.1-0.8C90.2,78.9,90.4,78.8,90.5,78.9L90.5,78.9z"/>
	<path d="M49.6,79.4c0.1,0.3-0.2,0.1-0.2,0.4c-0.2,0.1-0.5,0.2-0.7,0.4c-1.5,1.1-3.1,2-4.9,2.6c-1,0.2-2,0.6-3,0.7
		c0.5-0.3,0.9-0.4,1.4-0.5c1.5-0.4,2.9-0.9,4.2-1.5c0.5-0.3,1.1-0.6,1.5-0.9c0.5-0.3,1-0.8,1.5-1L49.6,79.4L49.6,79.4z"/>
	<path d="M50.8,80.2c-0.3,0.6-1.3,0.9-1.8,1.4c-1.4,0.5-2.4,1.4-3.9,1.8c-1.2,0.6-2.6,1-4.2,1.2c0.4-0.4,1.5-0.5,2.2-0.7
		c2.8-0.8,5.4-2.2,7.5-3.7L50.8,80.2L50.8,80.2z"/>
	<path class="st3" d="M52.7,80.6c1.7,0.6,3.3,1.2,5.1,1.8c-1.6,1.2-3.9,0.2-5.7,0c-0.1-0.1-0.4-0.2-0.6-0.3
		C51.8,81.5,52.6,81.4,52.7,80.6z"/>
	
		<linearGradient id="SVGID_4_" gradientUnits="userSpaceOnUse" x1="54.6366" y1="28.6378" x2="78.2357" y2="40.2986" gradientTransform="matrix(1 0 0 -1 0 125.276)">
		<stop  offset="0" style="stop-color:#FFFFFF"/>
		<stop  offset="3.750000e-02" style="stop-color:#F3F6F7"/>
		<stop  offset="0.1259" style="stop-color:#DDE6E7"/>
		<stop  offset="0.2231" style="stop-color:#CEDADC"/>
		<stop  offset="0.3349" style="stop-color:#C5D3D5"/>
		<stop  offset="0.4944" style="stop-color:#C2D1D3"/>
		<stop  offset="0.6077" style="stop-color:#BBCDCF"/>
		<stop  offset="0.7596" style="stop-color:#AAC3C3"/>
		<stop  offset="0.9328" style="stop-color:#8FB4B1"/>
		<stop  offset="1" style="stop-color:#81ADA8"/>
	</linearGradient>
	<path class="st6" d="M86.3,84.3c-0.4,0.9-1.2,1.5-1.8,2.3c-2.4,2.2-5.4,3.6-9.1,4.3c-1.4,0.3-2.9,0.3-4.1,0.7
		c-2-0.1-3.6,1.6-5.6,1.2c-0.7-0.1-1.4-0.5-1.9-0.9c0.4-0.4,1-0.4,1.4-0.7c0.9-0.5,1.2-1.6,1.2-2.9c-0.3-0.3-0.8-0.2-1-0.5
		c-0.5-0.5,0.1-1.7,0.7-2c0.5-0.2,0.9-0.1,1.2-0.4c0.3-0.2,0.4-0.5,0.6-0.6v-0.4c5.3,0.7,10.6,0.6,16.1,0
		C84.8,84.6,85.4,84.4,86.3,84.3L86.3,84.3z M83,85.9c-1.8,1.1-3.7,2.1-5.6,2.9c-1.4,0.6-3.3,1.2-4.9,1.8c-0.4,0.1-0.9,0.2-1.3,0.3
		c-1.1,0.2-2.2,0.4-3.1,0.6c-0.4,0.1-0.8-0.1-1,0.3c7-0.7,12.8-3.3,17.6-6.7c-0.1,0-0.1-0.1-0.2-0.1C83.9,85.2,83.5,85.6,83,85.9
		L83,85.9z M69.2,85c-0.3,0.4-1.4,0.3-1.6,0.7c0.6,0,1.4-0.2,1.9-0.6C69.4,85.1,69.4,85,69.2,85L69.2,85z M80.9,85.2
		c-0.6,0.5-1.3,0.7-1.9,1.2c-2.5,1.2-4.9,2.4-7.8,3.1c-0.7,0.1-1.5,0.3-2.1,0.4c-0.9,0.1-1.8,0-2.2,0.3c1.8,0.1,3.1-0.2,4.9-0.7
		c0.5-0.1,1.1-0.2,1.5-0.3c1.3-0.4,2.4-1.1,3.6-1.4c0.5-0.4,1-0.7,1.6-0.9c0.8-0.7,1.9-0.9,2.5-1.8L80.9,85.2L80.9,85.2z M72.6,85.5
		c-0.3,0.1-0.5,0.2-0.9,0.2c-0.6,0.3-1.4,0.4-2.2,0.5c-0.6,0.1-1.2,0.2-1.7,0.5c0.8-0.1,1.8-0.3,2.5-0.5c0.6-0.1,1.2-0.2,1.8-0.4
		c0.2-0.1,0.6-0.2,0.6-0.4L72.6,85.5L72.6,85.5z M69.2,88.1c-0.5,0.1-1.3-0.2-1.7,0.2c3.8,0.2,6.3-1,8.9-2.3c-0.1,0,0-0.1-0.1-0.1
		C74.2,86.8,71.9,87.8,69.2,88.1L69.2,88.1z"/>
	<path d="M84.5,84.9c0.1,0,0.1,0.1,0.2,0.1C79.8,88.4,74,91,67,91.7c0.3-0.3,0.7-0.2,1-0.3c0.9-0.2,2-0.4,3.1-0.6
		c0.4-0.1,0.9-0.2,1.3-0.3c1.6-0.5,3.5-1.1,4.9-1.8c1.9-0.9,3.8-1.9,5.6-2.9C83.5,85.6,83.9,85.2,84.5,84.9L84.5,84.9z"/>
	<path d="M69.5,85.1c-0.4,0.4-1.3,0.6-1.9,0.6c0.2-0.4,1.3-0.3,1.6-0.7C69.4,85,69.4,85.1,69.5,85.1L69.5,85.1z"/>
	<path d="M81.1,85.2c-0.6,0.8-1.8,1.1-2.5,1.8c-0.6,0.2-1.1,0.5-1.6,0.9c-1.2,0.3-2.3,1-3.6,1.4c-0.5,0.1-1,0.2-1.5,0.3
		c-1.8,0.5-3.1,0.7-4.9,0.7c0.5-0.3,1.4-0.2,2.2-0.3c0.6-0.1,1.4-0.3,2.1-0.4c2.9-0.7,5.3-1.9,7.8-3.1c0.5-0.5,1.3-0.8,1.9-1.2
		L81.1,85.2L81.1,85.2z"/>
	<path d="M72.7,85.5c-0.1,0.2-0.4,0.4-0.6,0.4c-0.5,0.1-1.2,0.2-1.8,0.4c-0.6,0.2-1.6,0.4-2.5,0.5c0.4-0.3,1.1-0.4,1.7-0.5
		c0.8-0.1,1.7-0.2,2.2-0.5c0.4,0,0.6-0.1,0.9-0.2L72.7,85.5L72.7,85.5z"/>
	<path d="M76.2,85.9c0.1,0,0,0.1,0.1,0.1c-2.6,1.4-5.1,2.5-8.9,2.3c0.4-0.3,1.2-0.1,1.7-0.2C71.9,87.8,74.2,86.8,76.2,85.9
		L76.2,85.9z"/>
	<path d="M101.7,52.9c1.4,0.7,2.8,1.5,4.2,2.3c0,0.1,0.1,0.1,0.1,0.2c1.4,0.7,2.5,1.8,3.9,2.6c0.1,0.1,0,0.1,0,0.2
		c0.7,0.4,1.3,0.9,1.9,1.5c0.4,0,0.5,0.4,0.8,0.7c1.1,0.9,2.2,1.7,3,2.9c0.4,0.3,0.8,0.5,0.9,1c-0.8-0.7-1.6-1.4-2.2-2.3
		c-0.2,0-0.2-0.1-0.3-0.1c-0.5-0.6-1.2-1-1.7-1.6c-1-0.5-1.5-1.4-2.5-1.9c-1.9-1.7-4.1-3-6.3-4.3C102.9,53.7,102.2,53.5,101.7,52.9
		L101.7,52.9z"/>
	<path d="M76.9,46.1c5.3,0.2,9.5,0.7,13.8,1.9c0.6,0,0.9,0.3,1.4,0.3c0.2,0.2,0.4,0.3,0.8,0.3c4.3,1.5,8.2,3.2,11.9,5.3
		c3.5,2,6.5,4.6,9.5,7.1c1,1.1,2.1,2.2,3.2,3.2c0,0.4,0.3,0.3,0.4,0.6c0.1,0.5-0.6,0.9-0.7,1.4c0.6,0.2,1.4,0.2,1.9,0.4
		c-0.5,1.5-1.5,2.9-2.5,4c-0.1,0.1-0.2,0.4-0.3,0.5c-0.4,0.4-0.9,0.5-1.2,1c-2.2,1.3-4.5,2.4-6.5,3.9c-0.3,0.2-0.5,0.5-0.8,0.7
		c-1.2,0.9-2.4,2.1-4.1,2.4c-0.1,0-0.5-0.1-0.8-0.1c-0.3,0.1-0.5,0.4-0.9,0.2c-0.4,0.5-0.9,0.7-1.7,0.8c-1.2,0.7-2.9,1.3-4.4,1.8
		c-2.7,0.9-5.6,1.7-8.7,2.3c-0.9,1.1-1.9,2.2-2.8,3.2c-0.7,0.5-1.3,0.9-1.9,1.4c-0.2,0-0.3,0.1-0.5,0.2c-1.5,0.8-3.1,1.4-5.1,1.9
		c-2.7,0.7-5.6,0.8-8.2,1.8c-0.9,0.4-1.8,0.7-3.1,0.5c-0.6-0.1-2.2-0.6-2.1-1.5c0.5-0.3,1.2-0.5,1.8-0.8c0.5-0.6,1-1.4,0.9-2.3
		c-0.2-0.1-0.6-0.2-0.8-0.3C65.2,88.2,65.1,88,65,88c0-0.7,0-1.4,0.3-1.8c0.5-0.8,1.9-0.6,2.3-1.5c-1.2-0.4-3.1-0.6-4.5-0.9
		c-1.6-0.3-3.1-0.8-4.5-1.2c-1.7,1.3-5.4,0.5-7.5-0.2c-0.1-1.2,1.1-1.1,1.4-2C52,80.4,51.7,81,51.3,81c-0.8,0.7-1.6,1.3-2.6,1.9
		c-0.4,0.2-0.8,0.2-1.2,0.4c-2.1,0.8-4.3,1.7-6.2,2.6c-0.3,0.1-0.6,0.1-0.7,0.3c-0.6,0.1-1.3,0.3-2,0.2c-0.2-0.5-0.3-1.1,0-1.5
		c0.3-0.4,0.9-0.4,1.1-0.8c-0.4-0.4-0.9-0.6-1.3-1c-0.4-1.7,1.9-1.8,1.2-3.3c-0.2-0.4-0.8-1-0.7-1.7c0.1-0.4,0.6-0.9,0.9-1.2
		c0.3-0.3,0.9-0.7,0.5-1.3c-0.2-0.3-1.2-1.1-1.5-1.2c-0.3-0.1-1.3,0.2-1.9,0.4c-1.3,0.3-2.7,0.7-4,1.2c-1,0.4-2,0.7-3.2,1.1
		c-0.8,0.3-1.6,0.8-2.4,1.1c-1.6,0.7-3.3,1.4-4.9,2.3c-2,1-4,2.2-6,3.3c-1.4,0.8-3.1,1.5-4.6,2.2c-1.3,0.2-2.3,0.7-3.5,0.3
		c0-0.2-0.3-0.3-0.4-0.4c-0.7-2.6,2.2-3.8,2.9-5.4c0.4-0.8-0.9-2.1-0.3-3.4c0.8-0.9,2-1.4,2.6-2.4c0.2-1.2-0.6-1.9-0.3-3.1
		c0.7-1,2.4-1,3.2-1.9c-0.1-1-0.8-1.6-0.5-2.6c0.2-0.7,1-1.3,1-1.9c-0.1-0.6-1.6-1.2-2-1.6c-0.1-0.1-0.2-0.3-0.4-0.5
		c0.3-1.9-0.6-2.6-1.5-3.4c-1.4-1.9-0.1-4.5-0.9-6.9c-0.6-2-3-2-4.2-3.4c-0.8-1.4-1-3-0.9-4.9c1.2-0.8,2.5,0.4,3.7,0.7v0.2
		c3.2,1.6,6.1,3.6,9.2,5.2c2.5,1,5,2,7.3,3.2c1.3,0.3,2.5,1.2,3.7,1.8c0.6,0.3,1.1,0.6,1.7,0.9c1.8,1,4,2.2,6.4,2.5
		c0.3,0,0.5,0.1,0.7,0.2c0.9,0.2,1.8,0.4,1.4-0.9c0.4-0.7,1-1.2,1.4-1.9c0.2-0.6,0.2-1.3,0.4-2c0-0.1,0.2-0.3,0.2-0.4
		c0.1-0.3,0.1-0.7,0.2-1.1c0.1-0.2,0.2-0.4,0.3-0.6c0.1-0.3,0-0.6,0.1-0.9c0.3-1.5,1-2.3,2.1-3.2c1.7-0.8,3.4-1.9,5.3-2.6
		c1-0.3,2.1-0.6,2.9-1.2c0.1-0.4,0.4-0.6,0.5-1c0.3-1-0.1-2.3,0.1-3.4c0.1-0.3,0.3-0.5,0.2-0.8c0.7-1.1,2.1-1.5,2.5-2.9
		c0.2-1.4,0-3.7,0.9-4.6c1.7-0.8,4.6-1.4,6.3-0.4c0.2,0.1,0.5,0.5,0.8,0.8c0.3,0.3,0.6,0.6,0.8,0.8c0.2,0.2,0.2,0.5,0.4,0.7
		c0.1,0.2,0.4,0.3,0.6,0.5c0.1,0.1,0,0.2,0.1,0.2c0.6,0.5,1.2,1.5,1.8,2.2c0.2,0.2,0.5,0.4,0.7,0.6c0.2,0.2,0.2,0.5,0.4,0.6
		c0.2,0.2,0.4,0.3,0.6,0.4c0.3,0.3,0.6,0.7,1,1C73.2,41.3,75.2,43.6,76.9,46.1L76.9,46.1z M71.3,39.4c-2.2-2-4.1-4.3-5.9-6.7
		c-0.6-0.3-0.8-1-1.4-1.3c-1.1-0.6-2.9-0.4-4.3-0.2c-0.5,0.2-1,0.4-1.4,0.7c-1.2,1.2-0.3,3.4-0.9,4.9c-0.4,0.9-1.1,1.2-1.8,1.8
		c-0.2,0.2-0.4,0.5-0.5,0.8c0,0-0.1,0-0.2,0.1c-0.1,0.2-0.2,0.6-0.2,0.8c-0.3,1.7,0.4,3.2-0.7,4.4c-1.3,1-3.5,1.2-4.9,2.1
		c-2.3,1.2-4.7,1.8-5.4,4.5c-0.1,0.2,0,0.5-0.1,0.8c-0.1,0.4-0.2,0.7-0.3,1c-0.3,1.3-0.5,2.7-1.1,4c0.2,0.1,0.3,0.3,0.6,0.4
		c0.5-0.5,1.1-0.7,1.5-1.2c-0.3-0.6-1.1-1.1-1-1.7c0.4,0.5,0.7,1.1,1.2,1.5c0.8-0.5,1.7-1.1,2.5-1.6c-0.3-0.6-0.7-1-1-1.5
		c-0.3-0.1-0.5-0.4-0.8-0.7c-0.3-0.1-0.7-0.2-0.8-0.6c1.2,0.6,2.1,1.5,2.7,2.7c0.7-0.4,1.6-0.7,2.2-1.2c-0.6-0.8-1.4-1.6-2-2.4
		c-0.3-0.4-0.7-0.7-0.7-1.2c1,1.2,2,2.4,2.9,3.6c0.4-0.1,0.7-0.3,1-0.6c0.7-0.3,1.4-0.4,1.8-0.9c-0.2-0.2-0.5-0.4-0.6-0.7
		c-0.6-0.5-1.1-1.1-1.6-1.7c-0.4-0.3-1-0.7-1.1-1.2c1.4,1,2.3,2.4,3.6,3.5c0.7-0.3,1.3-0.6,2.1-0.8c-0.4-1-1.1-1.7-1.7-2.5
		C53.2,48,53.1,48,53,48c-0.4-0.6-1.2-0.7-1.4-1.3c1.6,0.8,2.7,2.2,3.5,3.8c0.8-0.2,1.3-0.5,2-0.8c0.1-0.2-0.2-0.3-0.3-0.4
		c-0.1-0.1-0.1-0.4-0.2-0.5c-0.5-0.7-1.2-1.4-1.7-2c-0.4-0.4-0.9-0.6-1.1-1.1c1.6,0.9,2.5,2.4,3.6,3.9c0.8-0.4,1.7-0.6,2.5-0.9
		c-0.4-0.8-0.8-1.5-1.4-2.1c-0.1-0.3-0.3-0.4-0.5-0.6c-0.2-0.3-0.4-0.7-0.7-1c-0.6-0.6-1.5-1.1-2.1-1.8c0.8,0.3,1.4,0.8,1.9,1.4
		c1.2,1,2.2,2.4,3,3.8c0.9-0.1,1.5-0.5,2.3-0.7c-0.8-1.6-1.8-3-2.8-4.4c-0.7-0.4-1-1.2-1.8-1.6c-0.2-0.4-0.9-0.6-0.8-1.1
		c2.3,1.9,4.3,4.1,5.5,7c0.8-0.2,1.8-0.2,2.4-0.6c-0.9-2.1-2.3-3.8-3.7-5.4c-0.5-0.5-0.8-1.1-1.4-1.6c-0.2-0.2-0.4-0.4-0.7-0.6
		c-0.5-0.4-1.4-0.7-1.5-1.2c0.7,0.2,1,0.8,1.7,1c1.5,1.3,2.7,3,4,4.5c0.7,1,1.2,2.2,1.9,3.3c1.1-0.2,2.1-0.3,3-0.6
		c-0.5-0.8-1.1-1.6-1.5-2.4c-0.8-0.8-1.3-1.6-1.9-2.4c-0.3-0.4-0.6-0.7-0.9-1.1c-0.5-0.5-1-1.1-1.4-1.6c-0.3-0.1-0.4-0.3-0.5-0.5
		c-0.2,0-0.1-0.1-0.3,0c0-0.1,0.1-0.1,0.1-0.2c-0.3-0.3-0.7-0.6-1-0.9c-0.3-0.3-0.7-0.6-1-0.9c-0.2-0.2-0.5-0.4-0.5-0.7
		c1,0.5,1.8,1.6,2.7,2.3c0.3,0.6,0.9,1,1.4,1.4c1.5,1.8,2.9,3.8,4.3,5.6c0,0.5,0.6,0.9,0.7,1.4c0.8-0.2,1.7-0.3,2.8-0.4
		c-0.3-0.5-0.7-0.9-0.9-1.4c-0.7-0.7-1.1-1.8-1.8-2.5c-1-1.8-2.4-3.1-3.7-4.6c-0.5-0.8-1.2-1.4-1.9-2c-0.8-1-2-1.7-2.8-2.8
		c0.4,0,0.4,0.3,0.7,0.4c0,0.2,0.1,0.1,0.1,0.3c2.3,1.7,4.1,4,6,6c1.5,2.1,3,4.2,4.3,6.6c0.8-0.1,1.7,0,2.4-0.2
		c-0.9-1.7-2-3.7-3.4-5.2c-1.8-2.3-3.6-4.5-5.8-6.4c-0.5-0.8-1.5-1.1-2-2c0.3,0,0.7,0.3,0.8,0.6c1.6,1.2,2.8,2.8,4.3,4.1
		c0.8,1.1,1.7,1.9,2.4,3c0.3,0.2,0.6,0.5,0.8,0.8c1.2,1.5,2,3.4,3.2,5c0.9,0,1.4,0,2.2-0.1C74.7,43.8,72.9,41.7,71.3,39.4L71.3,39.4
		z M18.4,50.3c-2.5-1.5-5.1-3-7.6-4.4c-1-0.6-2.1-1.2-3.4-1.4c-0.1-0.1-0.3,0.2-0.4,0.3C7,46,7.3,46.9,7.4,48
		c0.2,0.1,0.3,0.4,0.3,0.7c1,1.8,3.7,1.6,4.4,3.8c0.6,1.8-0.3,4.7,0.5,6.4c0.2,0.3,0.5,0.6,0.7,0.8c0.5,0.5,1.1,0.9,1.3,1.7
		c0,0.6,0,1,0,1.5c0.4,0.9,2.3,1.1,2.4,2.2c0.1,0.8-0.8,1.4-1,2.2c-0.1,0.5,0.1,1.1,0.3,1.4c0.3,0.8,0.4,1.3-0.3,1.8
		c-0.9,0.6-2.3,0.7-2.8,1.5c0,1.1,0.6,1.9,0.3,3c-0.4,0.5-1,1.1-1.6,1.5c-0.2,0.1-0.5,0.2-0.7,0.4c-0.6,0.6-0.5,1.2-0.3,1.9
		c0.2,0.9,0.3,1.8-0.2,2.5c-0.9,1.3-2.9,2-2.5,4.4c0.1,0,0.2,0.1,0.2,0.3c1.2,0.4,2.1-0.2,3.2-0.4c1.3-0.6,2.6-1.1,3.8-1.8
		c1.2-0.7,2.4-1.4,3.5-2.1c1.6-0.7,3.1-1.6,4.6-2.3c1.5-0.7,3.1-1.6,4.8-2.2c0.3-0.3,0.7-0.5,1.2-0.5c0.9-0.5,1.9-0.8,3-1.1
		c-0.3-0.7-0.6-1.2-0.6-1.9c-0.1-1,0.2-2,0.1-3c-0.1-1-0.7-1.8-0.8-2.7c-0.1-1.1,0.3-2.2,0.3-3.4c0-1.6-0.4-3.1-0.2-4.7
		c0.1-1,0.6-2,0.8-3C28,54.3,23.2,52.3,18.4,50.3L18.4,50.3z M93,49.1c-2.1-0.7-4.5-1.4-6.8-1.8c-3.5-0.5-8.5-1.1-12.2-0.8
		c-3.9,0.2-8.2,0.8-11.8,1.9c-1.7,0.5-3.3,1-4.9,1.6c-2.1,0.9-4.2,1.7-6.2,2.7c-0.5,0.2-0.9,0.6-1.4,0.9c-0.7,0.4-1.5,0.7-2.1,1.1
		c-0.6,0.4-1.1,0.8-1.7,1c-1.2,1-2.5,1.9-3.8,2.9c-0.4,0.3-0.9,0.9-1.3,1c-0.2,0-0.7-0.1-1-0.2c-2.3-0.4-4.5-1.1-6.3-2
		c-0.2-0.3-0.5-0.4-0.8-0.5c-0.1,1-0.6,1.9-0.7,2.8c-0.3,1.8,0.3,3.7,0.2,5.5c-0.1,0.6-0.3,1.1-0.3,1.7c-0.1,1.3,0.7,2.1,0.8,3.4
		c0.1,1.2-0.3,2.6,0,3.6c0.1,0.5,0.4,0.9,0.5,1.3c1.7-0.5,3.8-1,5.7-1.4c0.6-0.1,1.4-0.5,2-0.4c0.2,0,0.7,0.5,1.1,0.7
		c2.7,1.8,5.5,3.5,8.5,4.9c2.5,1.2,5.4,2.4,8.2,3.2c1,0.3,2,0.6,2.9,0.9c0.7,0.2,1.6,0.3,2.3,0.4c3.7,0.7,7.3,1.3,11.3,1.3
		c1.4,0,2.9-0.1,4.3-0.2c5.7-0.2,10.7-1.5,15.4-2.9c2.4-0.8,4.7-1.7,6.8-2.7c-1-0.2-1.8-0.7-2.6-1.1c-3.9,1.6-8.3,3.1-13.1,3.8
		c-3.5,0.5-7.3,0.8-10.7,0.6c-3.8-0.2-7.6-0.7-11.2-1.4c-1.6-0.3-3-0.6-4.5-0.9c-0.2,0-0.6-0.1-0.8-0.3c1.6,0.1,3.1,0.6,4.7,0.9
		c1,0.2,2.1,0.3,3.2,0.5c1.3,0.3,2.7,0.4,3.9,0.6c3.2,0.4,6.2,0.6,9.3,0.5c1.3,0,2.6-0.3,3.6-0.4c2.3-0.2,4.6-0.5,6.5-1
		c1.4-0.3,2.7-0.6,3.9-1.1c1.6-0.6,3-1.5,4.3-2.4c-0.5-0.5-0.9-1-1.2-1.7c-5.2,1-11.1,1.5-16.1,2c-0.6,0-1.1,0-1.7,0
		c-3.4,0.1-6.5-0.1-9.5-0.3c-1.4-0.1-2.9-0.1-4.2-0.5c3.9,0.2,7.3,0.6,11.5,0.6c3.9,0,6-0.1,9.5-0.6c0.7-0.1,1.4-0.1,2.1-0.2
		c2.9-0.4,5.5-1.4,7.8-2.2c-0.5-2.1-2.9-2.4-3.4-4.5c-0.4-1.7-0.3-3.5-0.1-5.4c0.2-2.3,0.1-5.8,0.7-8.1c-2.7-1.2-5.8-2-9.1-2.4
		c-5.6-0.6-11.6-0.7-17.1-0.4c-1.6,0.1-3.1,0.4-4.6,0.3c0.7-0.3,1.4-0.2,2.2-0.3c1.5-0.1,2.9-0.3,4.4-0.4c8.3-0.5,16.9,0.6,24.8,2
		c0.4-0.6,0.9-1.1,1.3-1.7c-1.3-0.8-2.6-1.5-4-2.2c-1-0.5-2.4-0.8-3.7-1.1c-3.9-0.9-7.5-1.3-11.9-1.1c-2.4,0.1-4.2,0.2-6,0.4
		c-1.1,0.1-2.1,0.4-3.2,0.6c-2.9,0.5-5.7,1.3-8.6,2c-0.6,0.1-1.3,0.4-1.9,0.4c0.2-0.2,0.6-0.2,0.8-0.3c1.5-0.4,3.1-0.8,4.5-1.2
		c2.2-0.6,4.7-1,6.9-1.4c2.5-0.5,5-0.4,7.3-0.6c1.8-0.1,3.4,0,5.2,0.1c3.4,0.2,6.7,1,9.7,1.8c1.6,0.4,3,1.3,4.5,1.5
		c0.2,0.3,0.7,0.3,0.9,0.5c0.5-0.9,1.8-1.2,2.8-1.4C97.3,50.6,95.2,49.8,93,49.1L93,49.1z M115.2,62.4c-0.5-0.2-0.7-0.7-1.2-0.9
		c-0.6-0.8-1.6-1.3-2.2-2.1c-0.1,0-0.1-0.1-0.3-0.1c-1.3-1.4-3-2.3-4.4-3.6c-0.1,0-0.2-0.1-0.3-0.1c-0.4-0.4-0.9-0.7-1.5-1
		c-0.7-0.4-1.4-0.8-2.1-1.2c-1-0.5-2.1-1.2-2.9-1.5c-0.7-0.2-2.4,0.1-2.9,0.4c-0.3,0.2-0.6,0.9-0.9,1.2c-0.1,0.1-0.3,0.1-0.4,0.3
		c-0.7,0.9,0.5,2.6,0.9,2.8c0.1,0.1,0.2,0.2,0.3,0.2c1,0.5,2.6-0.4,3.4,0.3c0.6,0.6,0.2,1.3,0.1,2.1c-0.3,0.2-0.4,0.6-0.6,0.9
		c-0.2,0.3-0.5,0.6-0.6,0.9c-0.4,1.3-0.1,3,0.1,4.6c0.1,1.2,0.6,2.6,0.8,3.6c1,2.1,3.8,2.6,5.8,3.7c1.7,0.4,2.4-0.7,3.4-1.3
		c1.2-1.7,3.2-2.7,5.1-3.7c1.2-0.7,2.2-1.7,2.7-3.2C116.6,64,115.9,63.2,115.2,62.4L115.2,62.4z M96,53.5c0.1-0.2,0.3-0.2,0.3-0.5
		c-0.8-0.3-1.8-0.7-2.6-0.9C94.5,52.6,95.2,53.1,96,53.5L96,53.5z M93.9,57.2c-0.6,2.6-0.1,5.2,0.2,7.7c0.1,0.6,0.1,1.1,0.2,1.6
		c0.3,1.1,1.3,1.6,1.9,2.4c0.6,0.8,0.9,1.7,1.4,2.4c0.3,0.1,0.7,0.3,1.2,0.2c0.1-0.2,0.2-0.3,0.4-0.4c-0.5-1.3-0.8-2.6-0.8-4.1
		c0-0.8,0.3-1.6,0.4-2.2c0.2-1.5,0.2-3.2,0.6-4.4c0.5-0.9,1.6-1.7,1.1-2.9c-0.9-0.6-2.2,0.1-3.2-0.2c-1-0.3-1.6-1.7-1.6-2.8
		C94.9,55.3,94.2,56.1,93.9,57.2L93.9,57.2z M91.3,55.2c0.5,0.3,1,0.4,1.7,0.6c0.3,0.2,0.6,0.3,1,0.4c0.1-0.3,0.3-0.4,0.4-0.7
		c-1.3-0.2-3-0.4-4.4-0.7C90.2,55,90.8,55.1,91.3,55.2L91.3,55.2z M41.2,58.6c0.5-0.2,1-0.7,1.4-1.1C41.9,57,41.4,58,41.2,58.6z
		 M94.3,71.1c0.7,0.5,1.4,1.1,2,1.7c0.6,1.1,0.9,2.4,1.6,3.5c0.3,0.2,0.4,0.4,0.7,0.6c0.6,0.6,1.5,1.2,2.3,1.5
		c1.8,0.7,3.6,0.1,4.9-0.7c1.9-1.6,3.8-3.2,6-4.4c1-0.5,2-0.9,2.9-1.6c1.6-1.3,3-2.8,3.8-4.9c-0.5-0.1-1-0.2-1.5-0.3
		c-1.1,1.4-2.9,2.1-4.5,3c-0.7,0.4-1.2,1-1.8,1.3c-0.4,0.7-1.1,1.1-1.6,1.8c-0.8,0.5-1.7,0.9-2.8,0.7c-0.5-0.1-1-0.5-1.5-0.7
		c-0.5-0.2-1-0.3-1.5-0.5c-0.1,0-0.2-0.2-0.3-0.2c-0.6-0.3-1.6-0.7-2.1-1.2c-0.1-0.1-0.1-0.2-0.2-0.3c-0.7-0.7-1-2-1.2-3.1
		c-0.2-1-0.2-2-0.4-3c-0.2,1.5-0.6,3.2-0.3,4.6c0.3,0.3,0.3,1,0.5,1.5c0.1,0.2,0.2,0.2,0.2,0.4c0.2,1.2-1.3,1.3-2.1,0.9
		c-0.9-1.4-1.7-2.9-2.9-3.9c-0.7-1.1-0.7-2.8-0.9-4.3C93.3,66.2,92.8,69,94.3,71.1L94.3,71.1z M40.6,73.9c-0.4,0.1-0.9,0.1-1.3,0.3
		c0.4,0.4,0.9,0.7,1.2,1.2c0.3-0.2,0.9-0.8,1.1-0.5c-0.3,0.2-0.6,0.5-1.1,0.6c0.3,0.9-0.1,1.2-0.5,1.6c-0.4,0.4-1.1,1.1-0.8,1.7
		c0.2,0.5,0.8,1,0.7,1.8c-0.1,0.8-1.4,1.5-1.4,2.1c0,0.5,1.3,0.8,1.4,1.3c0.2,0.9-1.7,0.9-1.3,2c0.2,0.2,0.6,0.2,1,0.2
		c0.9-0.2,2.1-0.9,2.7-1.2c3.3-1.4,7.2-2.2,9.3-4.7C47.7,78.4,44.1,76.2,40.6,73.9L40.6,73.9z M92.7,76c1.5-0.3,2.9-0.5,4.3-0.7
		c0-0.3-0.1-0.5-0.3-0.7C95.3,75.1,93.9,75.5,92.7,76L92.7,76z M98.5,77.4c-0.8,0.5-1.7,1-2.6,1.5c1.1-0.3,2.1-0.8,3-1.2
		C98.7,77.7,98.7,77.4,98.5,77.4z M51.4,82.1c0.2,0.1,0.5,0.1,0.6,0.3c1.8,0.2,4.2,1.2,5.7,0c-1.7-0.6-3.4-1.2-5.1-1.8
		C52.6,81.4,51.8,81.5,51.4,82.1z M84,84.7c-5.5,0.6-10.8,0.7-16.1,0V85c-0.3,0.1-0.3,0.4-0.6,0.6c-0.3,0.2-0.8,0.2-1.2,0.4
		c-0.6,0.3-1.1,1.4-0.7,2c0.2,0.3,0.7,0.1,1,0.5c0,1.3-0.3,2.4-1.2,2.9c-0.4,0.3-1,0.2-1.4,0.7c0.5,0.5,1.2,0.8,1.9,0.9
		c2,0.3,3.6-1.3,5.6-1.2c1.2-0.4,2.7-0.5,4.1-0.7c3.7-0.7,6.7-2.1,9.1-4.3c0.6-0.8,1.4-1.4,1.8-2.3C85.4,84.4,84.8,84.6,84,84.7
		L84,84.7z"/>
	<path class="st3" d="M99.2,51.5c-1,0.2-2.3,0.5-2.8,1.4c-0.3-0.2-0.7-0.2-0.9-0.5c-1.5-0.3-2.9-1.1-4.5-1.5c-3-0.8-6.3-1.6-9.7-1.8
		c-1.8-0.1-3.4-0.2-5.2-0.1c-2.4,0.1-4.9,0.1-7.3,0.6c-2.2,0.5-4.6,0.9-6.9,1.4c-1.4,0.4-3,0.8-4.5,1.2c-0.3,0.1-0.6,0.1-0.8,0.3
		c0.7,0.1,1.3-0.2,1.9-0.4c2.9-0.7,5.7-1.5,8.6-2c1.1-0.2,2.1-0.4,3.2-0.6c1.8-0.2,3.6-0.3,6-0.4c4.4-0.2,8,0.2,11.9,1.1
		c1.2,0.3,2.6,0.6,3.7,1.1c1.4,0.7,2.6,1.4,4,2.2c-0.4,0.6-0.9,1.1-1.3,1.7c-7.9-1.4-16.5-2.4-24.8-2c-1.5,0.1-2.9,0.2-4.4,0.4
		c-0.7,0.1-1.5,0-2.2,0.3c1.5,0.1,3-0.2,4.6-0.3c5.5-0.4,11.5-0.3,17.1,0.4c3.3,0.4,6.3,1.2,9.1,2.4c-0.6,2.3-0.5,5.7-0.7,8.1
		c-0.2,1.9-0.3,3.6,0.1,5.4c0.5,2.1,2.8,2.4,3.4,4.5c-2.3,0.8-5,1.8-7.8,2.2c-0.7,0.1-1.4,0.1-2.1,0.2c-3.5,0.5-5.6,0.6-9.5,0.6
		c-4.2,0-7.6-0.4-11.5-0.6c1.3,0.4,2.8,0.4,4.2,0.5c2.9,0.2,6.1,0.5,9.5,0.3c0.5,0,1.1,0,1.7,0c5-0.4,10.9-1,16.1-2
		c0.3,0.6,0.7,1.2,1.2,1.7C97,78,95.6,78.9,94,79.6c-1.2,0.5-2.5,0.7-3.9,1.1c-1.9,0.5-4.2,0.8-6.5,1c-1,0.1-2.3,0.3-3.6,0.4
		c-3.1,0.1-6.2,0-9.3-0.5c-1.3-0.2-2.6-0.3-3.9-0.6c-1-0.2-2.1-0.4-3.2-0.5c-1.6-0.3-3.1-0.8-4.7-0.9c0.2,0.2,0.5,0.3,0.8,0.3
		c1.5,0.3,2.9,0.6,4.5,0.9c3.6,0.7,7.4,1.2,11.2,1.4c3.5,0.2,7.3-0.1,10.7-0.6c4.8-0.7,9.2-2.2,13.1-3.8c0.8,0.4,1.6,0.8,2.6,1.1
		c-2.1,1-4.4,2-6.8,2.7c-4.8,1.5-9.8,2.7-15.4,2.9c-1.5,0.1-2.9,0.2-4.3,0.2c-4,0-7.6-0.5-11.3-1.3c-0.8-0.2-1.6-0.2-2.3-0.4
		c-1-0.2-1.9-0.6-2.9-0.9c-2.9-0.8-5.7-1.9-8.2-3.2c-2.9-1.4-5.8-3-8.5-4.9c-0.4-0.3-0.9-0.7-1.1-0.7c-0.6-0.1-1.4,0.3-2,0.4
		c-1.9,0.4-4,1-5.7,1.4c-0.1-0.4-0.4-0.8-0.5-1.3c-0.3-1,0.1-2.4,0-3.6c-0.1-1.3-0.9-2.1-0.8-3.4c0-0.6,0.3-1.1,0.3-1.7
		c0.2-1.9-0.4-3.8-0.2-5.5c0.2-1,0.6-1.9,0.7-2.8c0.3,0.1,0.7,0.2,0.8,0.5c1.8,0.9,4,1.5,6.3,2c0.4,0.1,0.8,0.2,1,0.2
		c0.4-0.1,0.9-0.7,1.3-1c1.3-1,2.6-1.9,3.8-2.9c0.6-0.3,1.1-0.7,1.7-1c0.6-0.4,1.3-0.7,2.1-1.1c0.5-0.3,0.9-0.6,1.4-0.9
		c2-1,4.1-1.8,6.2-2.7c1.6-0.6,3.2-1.1,4.9-1.6c3.6-1.1,8-1.6,11.8-1.9c3.7-0.3,8.7,0.2,12.2,0.8c2.4,0.4,4.7,1,6.8,1.8
		C95.2,49.8,97.3,50.6,99.2,51.5L99.2,51.5z M70.7,47.1c-3.3,0.4-6.3,0.9-9.2,1.8c-2.1,0.7-4.3,1.4-6.2,2.2
		c-0.7,0.3-1.3,0.6-1.9,0.9c-0.6,0.3-1.3,0.6-1.9,0.9c-3.1,1.5-5.9,3.5-8.6,5.5c-0.5,0.5-1.2,0.8-1.6,1.4c4.2-3.4,9.1-6.5,14.6-8.8
		c2.7-1.1,5.7-1.9,8.8-2.8c2.2-0.6,4.8-0.8,7.3-1c0.9-0.1,1.8-0.3,2.7-0.3c1,0,1.9,0,2.8,0.1c6.6,0.1,12.3,1.3,17.5,3.2
		c0.3,0.1,0.7,0.3,0.8,0.1C88.7,47.6,79.6,45.9,70.7,47.1L70.7,47.1z M82.1,48c-2.2-0.2-3.9-0.5-6.5-0.4c-5.2,0.2-9.5,0.8-14,1.9
		c-1.9,0.8-3.8,1.2-5.6,1.9c-3.6,1.5-7,3-10,5.1c-0.7,0.5-1.6,1-2.3,1.5c-0.7,0.5-1.5,1-2.1,1.7c1.7-1.2,3.5-2.4,5.3-3.6
		c0.9-0.6,1.9-1.1,2.8-1.6c1-0.6,2-0.9,3-1.4c2-1,4.2-1.8,6.5-2.5c1.1-0.3,2.2-0.8,3.4-1c1.2-0.3,2.4-0.6,3.7-0.8
		c1.2-0.2,2.7-0.4,3.9-0.5c3.8-0.4,7.5-0.5,11-0.2c4.7,0.5,9.1,1.5,13,2.8c0.5,0.2,1.1,0.5,1.7,0.4C91.8,49.7,87.1,48.5,82.1,48
		L82.1,48z M72.6,50.8c-2,0.1-3.9,0.3-5.8,0.7c-0.5,0.1-0.9,0.3-1.3,0.4c-1.1,0.2-2.1,0.4-3.1,0.6c-0.5,0.1-1,0.1-1.4,0.5
		c1.4-0.3,3-0.7,4.5-1c1.5-0.3,3.1-0.7,4.4-0.8c4.8-0.4,9.6-0.4,13.8,0.3c1.4,0.2,2.7,0.5,4,0.8c0.4,0.1,0.8,0.3,1.2,0.2
		C84,51.2,78.6,50.5,72.6,50.8L72.6,50.8z M50.4,56.1c-1,0.8-2.4,1.1-3.4,1.9c-0.5,0.2-0.9,0.5-1.3,0.8C45,59.2,44.3,59.6,44,60
		c1.4-0.8,2.6-1.8,4-2.5c0.9-0.5,1.9-1,2.7-1.4c1.1-0.5,2.4-0.9,3.4-1.3c0.9-0.3,1.7-0.4,2.4-0.8C54.3,54.5,52.4,55.4,50.4,56.1
		L50.4,56.1z M39.9,59.9c-2.5-0.2-4.7-1.2-6.8-2.1c0,0-0.1,0-0.1,0.1C35,58.8,37.4,60,39.9,59.9z M32.1,61c0,0.9,0.5,1.7,0.6,2.5
		c0.1,1-0.3,1.9-0.5,2.8c-0.2,1.6,0.8,2.8,0.9,4.5c0.1,0.9-0.2,2-0.2,2.8c0.6-2.1,0.3-3.6-0.5-5.4c-0.1-0.7-0.2-1.2-0.2-1.9
		c0.1-0.9,0.5-1.9,0.5-2.8c-0.1-1.2-0.7-2.4-0.5-3.6c0.1-0.4,0.3-0.7,0.4-1.1h-0.2C32.4,59.5,32.1,60.2,32.1,61L32.1,61z M40.6,60.7
		c-2.2,1.4-4,4-3.2,7.7c0.2,0.5,0.5,1,0.7,1.5c0.3,0.1,0.4,0.6,0.7,0.9c0.2,0.2,0.7,0.7,0.9,0.6c-0.9-0.8-1.6-1.8-2.1-3
		c-0.2-1-0.3-2.1-0.2-3c0.2-0.9,0.7-1.7,0.9-2.4c0.3-0.2,0.5-0.4,0.6-0.8c0.6-0.5,1.2-0.9,1.8-1.4L40.6,60.7L40.6,60.7z M40.9,62.2
		c-1,1.3-1.8,2.6-1.8,5c0.1,0.1,0.2,0.2,0.2,0.4c0.3,0.9,0.5,1.8,1.1,2.4c-0.2-0.7-0.8-1.3-1-2.2c-0.2-0.6-0.2-1.3-0.2-2.1
		c0.1-0.2,0.2-0.4,0.2-0.8c0.4-1,0.9-1.9,1.5-2.7L40.9,62.2L40.9,62.2z M53.5,77.2c-2-0.7-3.8-1.5-5.6-2.3c-0.3-0.2-0.6-0.4-0.9-0.5
		c-0.2-0.1-0.4-0.2-0.6-0.4c-1.3-0.8-2.5-1.6-3.7-2.5c-0.1,0-0.2,0-0.2,0.1c0,0,0.1,0,0.1,0.1c3.5,2.3,6.9,4.5,11.4,5.8
		c0,0.2,0.2,0,0.2,0.2c0.6,0.1,1.3,0.3,1.9,0.5c0.5-0.1,1.1,0.4,1.4,0.2C56.1,78,54.7,77.6,53.5,77.2L53.5,77.2z M41.6,73.2
		c5.3,3.5,11,6.4,17.9,8.3c4,1.2,8.5,2,13.2,2.3c0.8,0,1.6,0,2.3,0c3.8,0.2,8.6-0.4,12.3-1c3-0.5,5.8-1.2,8.4-2.2
		c1-0.4,2.1-0.7,3-1.2c-3.9,1.3-8.2,2.8-12.8,3.6c-3.9,0.6-8.6,0.9-12,0.8c-2.7-0.1-5-0.5-7.3-0.8c-3.2-0.4-6.4-1.2-9.2-2.2
		c-1.5-0.5-3-0.9-4.3-1.5c-2-0.9-4.1-1.8-5.9-2.8c-1.9-1-3.7-2.2-5.5-3.3c0,0,0-0.1-0.1-0.1C41.6,73.1,41.6,73.2,41.6,73.2
		L41.6,73.2z M39.5,73.1c-1,0.1-1.6,0.3-2.6,0.4c-0.1,0-0.2,0.1-0.3,0.2c-1.1,0.4-2.4,0.5-3.3,1.1c1.1-0.3,2-0.8,3.2-0.9
		c0.1-0.1,0.2-0.2,0.4-0.2c0.8-0.1,1.5-0.2,2.2-0.4c0.2,0,0.5,0.1,0.6-0.2L39.5,73.1L39.5,73.1z M90.1,78.9
		c-1.2,0.5-2.6,0.6-4.1,0.8c-0.6,0.1-1.2,0.3-1.8,0.4c-0.6,0.1-1.3,0.1-2,0.2c-3.4,0.4-7.2,0.6-10.5,0.4c-0.3,0-0.5-0.1-0.8-0.2
		c-2.9-0.2-5.8-0.7-8.6-1.1c1.6,0.6,3.5,0.7,5.3,0.9c0.9,0.1,1.7,0.3,2.5,0.4c0.6,0,1.2,0.1,1.6,0.2c4.2,0.3,8.8-0.1,12.4-0.5
		c2.2-0.2,4.4-0.7,6.4-1.3C90.4,78.8,90.2,78.9,90.1,78.9L90.1,78.9z"/>
</g>
</svg>
