<?xml version="1.0" encoding="utf-8"?>
<!-- Generator: Adobe Illustrator 22.1.0, SVG Export Plug-In . SVG Version: 6.00 Build 0)  -->
<svg version="1.1"
	 id="svg2" inkscape:version="0.48.0 r9654" sodipodi:docname="рыба.svg" xmlns:cc="http://creativecommons.org/ns#" xmlns:dc="http://purl.org/dc/elements/1.1/" xmlns:inkscape="http://www.inkscape.org/namespaces/inkscape" xmlns:ns1="http://sozi.baierouge.fr" xmlns:rdf="http://www.w3.org/1999/02/22-rdf-syntax-ns#" xmlns:sodipodi="http://sodipodi.sourceforge.net/DTD/sodipodi-0.dtd" xmlns:svg="http://www.w3.org/2000/svg"
	 xmlns="http://www.w3.org/2000/svg" xmlns:xlink="http://www.w3.org/1999/xlink" x="0px" y="0px" viewBox="0 0 125 125"
	 style="enable-background:new 0 0 125 125;" xml:space="preserve">
<style type="text/css">
	.st0{fill:#9DBBBF;}
	.st1{fill:#F9F9F9;}
	.st2{fill:#B8447F;}
	.st3{fill:#C4BB5C;}
	.st4{fill:#8264A7;}
</style>
<sodipodi:namedview  bordercolor="#666666" borderopacity="1.0" fit-margin-bottom="0" fit-margin-left="0" fit-margin-right="0" fit-margin-top="0" id="base" inkscape:current-layer="g3796" inkscape:cx="157.57607" inkscape:cy="-468.62463" inkscape:document-units="px" inkscape:pageopacity="0.0" inkscape:pageshadow="2" inkscape:window-height="904" inkscape:window-maximized="1" inkscape:window-width="1280" inkscape:window-x="-4" inkscape:window-y="-4" inkscape:zoom="0.175" pagecolor="#ffffff" showgrid="false">
	</sodipodi:namedview>
<g id="layer1" transform="translate(829.27 -396.68)" inkscape:groupmode="layer" inkscape:label="Layer 1">
	<g id="g3796" transform="matrix(.75103 0 0 .75103 -206.46 208.69)">
		<path id="path2880" inkscape:connector-curvature="0" sodipodi:nodetypes="ccsscsccccsscsccsscscsccccccccc" d="M-793.3,295.3
			c0,16.5-6.6,14.2-5.5,30.9c-13.2-2.5-18.1,11-26.1,8.7c-0.5-0.1-2.3,0.2-0.7,1.2c13.6,8.1,27.6,3.3,32.9,1.7
			c1.2,3.5,33.8,28.2,61.5,30.2c3.1,0.2,6.1,0.4,9.2,0.4c0.1,1,0,2.4-0.3,4.4l4-4.4c24.3-0.2,45.8-6.8,46.2-28.2
			c0.6-0.1,1.2,0.1,1.7,0.1c0.8,0,1.2-0.1,1.6-0.9c1-2.1,1.2-7.9-1.9-8.6c-0.1-1.4-0.9-8-4.7-7.4c-0.6,0.1-1.1,0.3-1.7,0.5
			c-0.2-0.3-0.4-0.5-0.5-0.8c1.3-1.6,2.2-3.9,2.6-6.5c0.7-5.3-1.2-9.8-4.3-10.2c-1.5-0.2-3.1,0.7-4.3,2.2c-1.1-2.1-2.8-3.4-4.6-3.4
			c-2.1,0-4,1.7-5.1,4.3c-9.7-5.1-21.6-7.3-33.3-5.1c-3.4,0.7-6.5,1.7-9.2,2.9c-5.6-4.5-14.6-9.7-27.5-10.7c3.3,3.4,3.3,5.9-0.3,7.5
			c2,0.4,3.9,7.3-1.9,7.7c4.1,4.8,0.1,7.7-1.9,8c3.5,2.8,2.4,7.1-1.5,7.8c2.6,2.2,2,4.2,1.5,6.1c-4.4,1.7-9.7,1-17-4.1
			C-781,316.6-787,305.9-793.3,295.3L-793.3,295.3z"/>
		<path id="path3722" inkscape:connector-curvature="0" sodipodi:nodetypes="cccc" class="st0" d="M-709.4,301.1
			c5.3-2.7,7.8,1.1,9.4,5.8c0.4,0.1,0.7,0.3,1.1,0.4C-700.6,301-704.7,297.3-709.4,301.1L-709.4,301.1z"/>
		<path id="path3699" inkscape:connector-curvature="0" class="st0" d="M-688.3,306.2c-3.1,0-5.7,4.1-5.7,9.3c0,5.1,2.5,9.3,5.7,9.3
			c3.1,0,5.7-4.1,5.7-9.3C-682.6,310.3-685.1,306.2-688.3,306.2z M-679.8,307.3c-1.3,0-2.6,0.7-3.7,2c0.8,1.7,1.3,3.8,1.3,6
			c0,3.2-0.9,6-2.4,7.9c0.7,0.9,1.5,1.5,2.6,1.6c2.9,0.3,5.8-3.4,6.5-8.2c0.7-4.8-1.1-9-4-9.3C-679.6,307.4-679.7,307.4-679.8,307.3
			L-679.8,307.3z M-687.1,311c1.5,0,2.7,1.9,2.7,4.3s-1.2,4.3-2.7,4.3s-2.7-1.9-2.7-4.3S-688.5,311-687.1,311z M-679.3,312.1
			c1.1,0,2,1.6,2,3.5c0,1.9-0.9,3.5-2,3.5s-2-1.6-2-3.5C-681.3,313.6-680.4,312.1-679.3,312.1z"/>
		<path id="path3712" inkscape:connector-curvature="0" class="st1" d="M-693.5,311.6c-0.3,1.2-0.5,2.5-0.5,3.9
			c0,0.8,0.1,1.6,0.2,2.4l7.9-2.1C-685.9,315.8-691.3,312.8-693.5,311.6L-693.5,311.6z M-682.2,313.7c0.1,0.6,0.1,1.1,0.1,1.7
			c0,0.5,0,0.9-0.1,1.4l3.9-1C-678.3,315.8-680.2,314.8-682.2,313.7z"/>
		<path id="path2882" inkscape:connector-curvature="0" class="st2" d="M-792.9,297.1c0,0,0,4.8-0.5,7.8c3.7,6.1,5.5,11.4,6.4,15.6
			c0.8,3.9,0.8,7,0.9,9c0.3,0,0.6,0,0.9,0c0,0,1.6-7.3,1.1-11.5C-784.9,310.6-792.9,297.1-792.9,297.1L-792.9,297.1z M-793.6,305.9
			c-0.4,1.8-1.3,3.4-2.1,5c4.3,6.1,7.4,12.6,7.9,18.8c0.3-0.1,0.6-0.1,1-0.1c0-2.1-0.1-5-0.9-8.9
			C-788.5,316.7-790.2,311.7-793.6,305.9L-793.6,305.9z M-796.1,311.6c-0.5,1.1-1,2.3-1.3,3.5c-0.2,0.9-0.3,2.1-0.4,3.4
			c2.9,3.2,5.6,6.6,7.8,11.9c0.5-0.2,0.9-0.4,1.5-0.6C-789,324-791.9,317.6-796.1,311.6L-796.1,311.6z M-719.5,318.1
			c-1.2,2.5-1.9,5.2-7.1,5.8l16.5,13c0.2-0.8,0.4-1.5,0.7-2.3L-719.5,318.1L-719.5,318.1z M-797.8,319.5c-0.1,3.6,0.1,7.4,0.1,7.4
			s-3.4-0.7-7.2,0c3.7,2.6,7.2,4.7,12.7,5.5c0.4-0.7,1-1.3,1.7-1.7C-792.6,325.8-795,322.6-797.8,319.5L-797.8,319.5z M-727,324.3
			c0.2,4-2.5,6.4-5,8.9l21.5,5.6c0.1-0.4,0.2-0.8,0.3-1.3L-727,324.3L-727,324.3z M-805.7,327.2c-0.9,0.2-1.8,0.5-2.6,0.9
			c-1,0.5-1.9,1-2.8,1.7c5.2,2.3,10.9,4.5,18.3,4.4c0.1-0.4,0.2-0.7,0.4-1C-798.2,332.2-801.9,329.9-805.7,327.2L-805.7,327.2z
			 M-811.8,330.2c-1.4,1.1-2.8,2.3-4.3,3.3c5.9,2,13.1,3.5,22.8,2.7c0-0.5,0.1-1,0.2-1.5C-800.7,334.9-806.5,332.5-811.8,330.2
			L-811.8,330.2z M-732.2,333.9c0.8,2.7,1.5,5.5-1.3,9.4l22.6,1.2c-0.1-1.6,0-3.3,0.3-5L-732.2,333.9L-732.2,333.9z M-816.8,334
			c-0.9,0.6-1.9,1.1-3,1.5c-1.7,0.5-5.3,0.3-5.3,0.3s8.2,4.5,17.6,4.5c4.9,0,14.3-2.9,14.3-2.9c0-0.2,0-0.3,0-0.5
			C-803.3,337.7-810.7,336.1-816.8,334L-816.8,334z M-733.4,344c2.9,2.7,3.6,5.4,2.3,8l20.4-4.8c-0.1-0.7-0.2-1.4-0.3-2.1
			L-733.4,344L-733.4,344z M-710.4,347.9l-20.5,4.8c2.4,1.7,4.8,3.3,5.6,8.4l15.5-11.1C-710,349.3-710.2,348.6-710.4,347.9
			L-710.4,347.9z M-709.5,350.6l-15.5,11c3.6,2.2,4.4,5.6,3.3,9.8l13.4-18.6C-708.7,352.1-709.1,351.4-709.5,350.6L-709.5,350.6z"/>
		<path id="path3690" inkscape:connector-curvature="0" sodipodi:nodetypes="ssccsscccc" class="st3" d="M-675.2,324.1
			c-0.3,0-0.5,0.1-0.8,0.1c-18.3,6.2-20.4,14-23,21.6c3.6-4.8,9.6-15.1,26.8-14.9c0.6-1.9,0.3-3.1-0.7-5.2
			C-673.5,324.5-674.4,324.1-675.2,324.1L-675.2,324.1z M-698.8,346c8.7-3.3,16.1-8,28.9-6.3c1-2.1,1.6-5.4-0.9-7.8
			C-686.2,331-694.3,339.6-698.8,346L-698.8,346z"/>
		<path id="path3720" inkscape:connector-curvature="0" sodipodi:nodetypes="cssssssc" class="st0" d="M-711.5,301.2
			c0,0,2.4-1.6,3.6-1.2c2,0.7,3.1,3.2,3.8,5.2c2.1,6.2,0.9,21.7,12.1,23.8c0.9,0.2,1.5-1,0.3-1.5c-9.3-3.4-8.2-13.7-11.3-22.8
			c-0.8-2.3-2.4-4.9-4.8-5.4C-709.2,299.1-711.5,301.2-711.5,301.2L-711.5,301.2z"/>
		
			<path id="path3724" inkscape:connector-curvature="0" sodipodi:nodetypes="cccccccscccccccsccccccccccccscccccccc" class="st4" d="
			M-761.1,298.4c1.3,2.3,0.9,4.2-0.5,6c8.8,1.9,14,4.3,18.8,7.2c1.8-1.3,3.8-2.5,6-3.6C-739.7,305.4-749.5,298.8-761.1,298.4
			L-761.1,298.4z M-761.8,305c1.5,2.5,1.2,5.5-1.2,7.4c1.6,0.1,4,0.5,6.6,1.3c2.4,0.7,5,1.7,7.3,3.1c1.7-1.7,3.6-3.3,5.7-4.9
			C-748,309.2-753.1,306.9-761.8,305L-761.8,305z M-763.4,313.1c0.6,2.6,0.8,5.1-1.6,7c3.5,0.5,7.3,1.1,11,2
			c1.4-1.6,2.9-3.2,4.5-4.8c-2.2-1.3-4.7-2.3-7-2.9C-759.4,313.6-762,313.2-763.4,313.1L-763.4,313.1z M-765.4,320.7
			c1.3,2.4,2.3,4.9-1.5,7.6c2.1,0.2,4.3,0.4,6.4,0.7c1.9-1.9,3.9-4.1,5.9-6.4C-758.2,321.7-761.9,321.2-765.4,320.7L-765.4,320.7z
			 M-766.8,329c0.7,0.9,0.7,2.6,0.3,4.6c1.9-0.9,3.7-2.3,5.4-3.9C-763,329.4-764.9,329.1-766.8,329L-766.8,329z M-790.9,332.2
			c-2.2,1.9-1.8,3.7-1.6,5.5c17,16.3,46.7,28.6,62.7,29.5c2.7,0.1,5.3,0.2,7.8,0.2c-0.1-1.7-0.9-3.5-4-5.4c-0.8-3.4-2-5.5-3.2-6.9
			C-760.4,350.4-783.1,338-790.9,332.2L-790.9,332.2z M-677.4,354.5c-11.4,1.9-22.3,2.5-32.6,2.2l-7.5,10.6
			C-690.9,366.7-681.2,358.9-677.4,354.5L-677.4,354.5z"/>
	</g>
</g>
</svg>
