<?xml version="1.0" encoding="utf-8"?>
<!-- Generator: Adobe Illustrator 22.1.0, SVG Export Plug-In . SVG Version: 6.00 Build 0)  -->
<svg version="1.1"
	 id="Layer_1" xmlns:cc="http://web.resource.org/cc/" xmlns:dc="http://purl.org/dc/elements/1.1/" xmlns:inkscape="http://www.inkscape.org/namespaces/inkscape" xmlns:ns1="http://sozi.baierouge.fr" xmlns:rdf="http://www.w3.org/1999/02/22-rdf-syntax-ns#" xmlns:sodipodi="http://sodipodi.sourceforge.net/DTD/sodipodi-0.dtd" xmlns:svg="http://www.w3.org/2000/svg"
	 xmlns="http://www.w3.org/2000/svg" xmlns:xlink="http://www.w3.org/1999/xlink" x="0px" y="0px" viewBox="0 0 125 125"
	 style="enable-background:new 0 0 125 125;" xml:space="preserve">
<style type="text/css">
	.st0{clip-path:url(#SVGID_2_);}
	.st1{clip-path:url(#SVGID_4_);}
	.st2{clip-path:url(#SVGID_6_);}
	.st3{clip-path:url(#SVGID_8_);}
	.st4{clip-path:url(#SVGID_10_);}
	.st5{clip-path:url(#SVGID_12_);}
	.st6{clip-path:url(#SVGID_14_);}
	.st7{clip-path:url(#SVGID_16_);}
	.st8{clip-path:url(#SVGID_18_);fill:#FFFFFF;}
	.st9{fill:#FFFFFF;}
</style>
<g>
	<g>
		<g>
			<defs>
				<path id="SVGID_1_" d="M124,43.8L96.6,59.6C88,51.1,71.2,37.5,51.9,37.5c-28,0-50.8,28.6-50.8,28.6s22.7,28.6,50.8,28.6
					c19.3,0,36.2-13.7,44.7-22.1L124,88.5V43.8z"/>
			</defs>
			<clipPath id="SVGID_2_">
				<use xlink:href="#SVGID_1_"  style="overflow:visible;"/>
			</clipPath>
			<path class="st0" d="M-1.8,31.3c-19.3,0-34.9,15.6-34.9,34.9S-21.1,101-1.8,101S33,85.4,33,66.1S17.4,31.3-1.8,31.3z M10.6,79.9
				l-4.7-3.3c0-4.5,19.6-0.7,19.6-0.7C16.3,75.9,10.6,78.5,10.6,79.9z"/>
		</g>
		<g>
			<defs>
				<path id="SVGID_3_" d="M124,43.8L96.6,59.6C88,51.1,71.2,37.5,51.9,37.5c-28,0-50.8,28.6-50.8,28.6s22.7,28.6,50.8,28.6
					c19.3,0,36.2-13.7,44.7-22.1L124,88.5V43.8z"/>
			</defs>
			<clipPath id="SVGID_4_">
				<use xlink:href="#SVGID_3_"  style="overflow:visible;"/>
			</clipPath>
			<path class="st1" d="M10.4,104.2v-6.4C27.8,97.8,42,83.6,42,66.1S27.8,34.4,10.4,34.4V28c21,0,38.1,17.1,38.1,38.1
				C48.5,87.1,31.4,104.2,10.4,104.2z"/>
		</g>
		<g>
			<defs>
				<path id="SVGID_5_" d="M124,43.8L96.6,59.6C88,51.1,71.2,37.5,51.9,37.5c-28,0-50.8,28.6-50.8,28.6s22.7,28.6,50.8,28.6
					c19.3,0,36.2-13.7,44.7-22.1L124,88.5V43.8z"/>
			</defs>
			<clipPath id="SVGID_6_">
				<use xlink:href="#SVGID_5_"  style="overflow:visible;"/>
			</clipPath>
			<path class="st2" d="M25.6,104.2v-6.4c17.5,0,31.7-14.2,31.7-31.7S43.1,34.4,25.6,34.4V28c21,0,38.1,17.1,38.1,38.1
				C63.7,87.1,46.6,104.2,25.6,104.2z"/>
		</g>
		<g>
			<defs>
				<path id="SVGID_7_" d="M124,43.8L96.6,59.6C88,51.1,71.2,37.5,51.9,37.5c-28,0-50.8,28.6-50.8,28.6s22.7,28.6,50.8,28.6
					c19.3,0,36.2-13.7,44.7-22.1L124,88.5V43.8z"/>
			</defs>
			<clipPath id="SVGID_8_">
				<use xlink:href="#SVGID_7_"  style="overflow:visible;"/>
			</clipPath>
			<path class="st3" d="M39.6,104.2v-6.4c17.5,0,31.7-14.2,31.7-31.7S57.1,34.4,39.6,34.4V28c21,0,38.1,17.1,38.1,38.1
				C77.7,87.1,60.6,104.2,39.6,104.2z"/>
		</g>
		<g>
			<defs>
				<path id="SVGID_9_" d="M124,43.8L96.6,59.6C88,51.1,71.2,37.5,51.9,37.5c-28,0-50.8,28.6-50.8,28.6s22.7,28.6,50.8,28.6
					c19.3,0,36.2-13.7,44.7-22.1L124,88.5V43.8z"/>
			</defs>
			<clipPath id="SVGID_10_">
				<use xlink:href="#SVGID_9_"  style="overflow:visible;"/>
			</clipPath>
			<path class="st4" d="M52.3,104.2v-6.4C69.7,97.8,84,83.6,84,66.1S69.7,34.4,52.3,34.4V28c21,0,38.1,17.1,38.1,38.1
				C90.3,87.1,73.3,104.2,52.3,104.2z"/>
		</g>
		<g>
			<defs>
				<path id="SVGID_11_" d="M124,43.8L96.6,59.6C88,51.1,71.2,37.5,51.9,37.5c-28,0-50.8,28.6-50.8,28.6s22.7,28.6,50.8,28.6
					c19.3,0,36.2-13.7,44.7-22.1L124,88.5V43.8z"/>
			</defs>
			<clipPath id="SVGID_12_">
				<use xlink:href="#SVGID_11_"  style="overflow:visible;"/>
			</clipPath>
			<path class="st5" d="M65.6,104.2v-6.4c17.5,0,31.7-14.2,31.7-31.7S83.1,34.4,65.6,34.4V28c21,0,38.1,17.1,38.1,38.1
				C103.7,87.1,86.6,104.2,65.6,104.2z"/>
		</g>
		<g>
			<defs>
				<path id="SVGID_13_" d="M124,43.8L96.6,59.6C88,51.1,71.2,37.5,51.9,37.5c-28,0-50.8,28.6-50.8,28.6s22.7,28.6,50.8,28.6
					c19.3,0,36.2-13.7,44.7-22.1L124,88.5V43.8z"/>
			</defs>
			<clipPath id="SVGID_14_">
				<use xlink:href="#SVGID_13_"  style="overflow:visible;"/>
			</clipPath>
			<path class="st6" d="M78.6,104.2v-6.4c17.5,0,31.7-14.2,31.7-31.7S96.1,34.4,78.6,34.4V28c21,0,38.1,17.1,38.1,38.1
				C116.7,87.1,99.6,104.2,78.6,104.2z"/>
		</g>
		<g>
			<defs>
				<path id="SVGID_15_" d="M124,43.8L96.6,59.6C88,51.1,71.2,37.5,51.9,37.5c-28,0-50.8,28.6-50.8,28.6s22.7,28.6,50.8,28.6
					c19.3,0,36.2-13.7,44.7-22.1L124,88.5V43.8z"/>
			</defs>
			<clipPath id="SVGID_16_">
				<use xlink:href="#SVGID_15_"  style="overflow:visible;"/>
			</clipPath>
			<path class="st7" d="M91.6,104.2v-6.4c17.5,0,31.7-14.2,31.7-31.7s-14.2-31.7-31.7-31.7V28c21,0,38.1,17.1,38.1,38.1
				C129.7,87.1,112.6,104.2,91.6,104.2z"/>
		</g>
		<g>
			<defs>
				<path id="SVGID_17_" d="M124,43.8L96.6,59.6C88,51.1,71.2,37.5,51.9,37.5c-28,0-50.8,28.6-50.8,28.6s22.7,28.6,50.8,28.6
					c19.3,0,36.2-13.7,44.7-22.1L124,88.5V43.8z"/>
			</defs>
			<clipPath id="SVGID_18_">
				<use xlink:href="#SVGID_17_"  style="overflow:visible;"/>
			</clipPath>
			<circle class="st8" cx="18.1" cy="58.8" r="4.4"/>
		</g>
	</g>
	<circle cx="18.1" cy="58.8" r="1.7"/>
	<circle class="st9" cx="17.3" cy="57.9" r="0.3"/>
</g>
</svg>
