<?xml version="1.0" encoding="utf-8"?>
<!-- Generator: Adobe Illustrator 22.1.0, SVG Export Plug-In . SVG Version: 6.00 Build 0)  -->
<svg version="1.1"
	 id="svg2" inkscape:version="0.91 r13725" xmlns:cc="http://web.resource.org/cc/" xmlns:dc="http://purl.org/dc/elements/1.1/" xmlns:inkscape="http://www.inkscape.org/namespaces/inkscape" xmlns:ns1="http://sozi.baierouge.fr" xmlns:rdf="http://www.w3.org/1999/02/22-rdf-syntax-ns#" xmlns:sodipodi="http://sodipodi.sourceforge.net/DTD/sodipodi-0.dtd" xmlns:svg="http://www.w3.org/2000/svg"
	 xmlns="http://www.w3.org/2000/svg" xmlns:xlink="http://www.w3.org/1999/xlink" x="0px" y="0px" viewBox="0 0 125 125"
	 style="enable-background:new 0 0 125 125;" xml:space="preserve">
<style type="text/css">
	.st0{display:none;}
	.st1{display:inline;fill:url(#path3272_1_);stroke:#000000;stroke-width:4.6;stroke-linecap:round;}
	.st2{fill:none;stroke:#000000;stroke-width:0.75;stroke-linecap:round;}
	.st3{fill:url(#path2398_1_);}
	.st4{fill:url(#path2400_1_);}
	.st5{fill:url(#path2402_1_);}
	.st6{fill:url(#path2404_1_);}
	.st7{fill:url(#path2406_1_);}
	.st8{fill:url(#path3317_1_);}
	.st9{fill:url(#path3349_1_);}
	.st10{fill:url(#path2396_1_);}
	.st11{display:none;opacity:0.8068;fill:#151165;enable-background:new    ;}
	.st12{fill:#9B9070;stroke:#000000;stroke-width:0.75;stroke-linecap:round;}
	.st13{fill:url(#path3197_1_);}
	.st14{fill:url(#path3225_1_);}
	.st15{opacity:0.34;filter:url(#filter3267);enable-background:new    ;}
	.st16{fill:none;stroke:#565390;stroke-width:0.75;stroke-linecap:round;}
	.st17{opacity:0.3459;filter:url(#filter3259);enable-background:new    ;}
	.st18{fill:none;stroke:#585591;stroke-width:0.75;stroke-linecap:round;}
	.st19{fill:url(#path3463_1_);}
	.st20{opacity:0.6391;fill:none;stroke:#2F2B76;stroke-width:0.75;stroke-linecap:round;enable-background:new    ;}
</style>
<filter  id="filter3267">
	<feGaussianBlur  id="feGaussianBlur3269" inkscape:collect="always" stdDeviation="1.1406222"></feGaussianBlur>
</filter>
<filter  id="filter3259">
	<feGaussianBlur  id="feGaussianBlur3261" inkscape:collect="always" stdDeviation="1.3857905"></feGaussianBlur>
</filter>
<g id="layer4" transform="translate(-64.954 -387.16)" class="st0">
	
		<linearGradient id="path3272_1_" gradientUnits="userSpaceOnUse" x1="191.3136" y1="144.5265" x2="195.0036" y2="-31.4535" gradientTransform="matrix(1 0 0 -1 -64.954 512.726)">
		<stop  offset="0" style="stop-color:#151165"/>
		<stop  offset="1" style="stop-color:#FFFFFF"/>
	</linearGradient>
	<path id="path3272" class="st1" d="M226.7,300.3c-27,11-52.4,22.9-95.9,76.8l-9.3-7.7c-2.5-1.7-6.8-2.9-9.9-4.7l-8.9-2.9l-9.8-4.3
		l-6.9-1.9c-6.8-0.4-12.6-1.4-13.2-6.5c-2.9-1.1-6.3,3.5-8.9-2.4c-2.8,0.6-5.7,1.4-7.1-3.3l-4.4-2.1c-5.7,1.9-7.2-1.8-8.9-5.3
		c-4.2,2.4-6.7,1.9-8.1-3.9c-5.1,1.6-9.3-0.2-11.7-8.2c-5.8-0.3-8.5-4.7-8.7-12.5c-2.4,0.7-7.1,1-7.1-9
		c-11.5,23-17.9,46.6-22.5,70.3l8.5,0.3c-61.9,7.9-104.2,27.8-135.7,47.4c-22.6,14-53.1,31.5-52.3,37.8c0.8,6.2,42,21.5,36.8,23.8
		c-3.5,1.5-42.9-2.8-38.8,5.8c8.5,9.8,41.9,26.7,84.2,38.8c29.4,8.4,63.1,14.1,95.2,16.9c16.6,16.1,13.2,34.9,37.5,55.1
		c5.5,3.6,3.6-12,10.1-26.1c6.9-15,8.4-27.6-5.4-26.9l-0.9-0.1c48.5,0.4,90.2-11.5,135-25.8c33.9,29.1,53.9,34.2,75,38.5
		c-17.9-6.3-37.4-20.2-41.9-30.4c-4.3-9.8,21.3-16,5.3-20.3c4.2-1.3,8.4-2.6,12.6-3.9c2.8,0.7,4.6,1.9,6,3.3c1.4-2.8,4.7-2,7.9-1.7
		c-1.2-1.7-2.5-3.3-4.2-4.6c4.2-1.2,8.4-2.5,12.6-3.8c2.4,0.7,4,1.9,5.3,3.2c1.4-2.8,4.7-2,7.9-1.7c-1.1-1.6-2.3-3.1-3.8-4.4
		c4.6-1.4,9.3-2.8,13.9-4.3c2.4,0.7,3.9,1.9,5.2,3.2c1.4-2.8,4.8-2,7.9-1.7c-1.1-1.6-2.3-3.1-3.8-4.3c3.6-1.1,7.2-2.3,10.8-3.4
		c2,0.7,3.3,1.7,4.5,2.9c1.4-2.8,4.8-2,7.9-1.7c-1-1.5-2.2-2.9-3.5-4.1c3.9-1.3,7.9-2.6,11.9-3.9c1.6,0.7,2.8,1.6,3.8,2.6
		c1.4-2.8,4.7-2,7.9-1.7c-1-1.3-1.9-2.7-3.2-3.8c2.2-0.7,4.3-1.5,6.5-2.2c1.9,0.7,3.2,1.7,4.3,2.8c1.4-2.8,4.7-2,7.9-1.7
		c-1-1.5-2.2-2.9-3.5-4.1c3.9-1.4,7.8-2.7,11.8-4.1c1.7,0.7,2.9,1.6,3.9,2.7c1.4-2.8,4.7-2,7.9-1.7c-1-1.4-2.1-2.8-3.4-4
		c2.5-0.9,4.9-1.8,7.4-2.7c2.5,0.7,4.2,1.9,5.5,3.2c1.4-2.8,4.7-2,7.9-1.7c-1.2-1.7-2.5-3.3-4.2-4.7c0.1,0,0.2,0,0.2-0.1
		c6.2,4.6,13.1,9.2,15.6,16.6c3.9,11.8,30.6,55.6,74.7,73.5c-55.5-62.6-65-126.2,3.3-191.5c-29,7.6-45.4,25.4-61.8,43.1
		C368,420.4,374,430,357.1,439.7c-0.1,0-0.2-0.1-0.3-0.1c2-1.5,3.4-3.4,4.7-5.3c-3.1,0.5-6.5,1.3-7.9-1.4c-1.6,1.7-3.8,3.2-7.5,4
		c-2.3-0.6-4.5-1.2-6.8-1.8c2-1.4,3.4-3.3,4.7-5.3c-3.1,0.5-6.5,1.3-7.9-1.4c-1.5,1.6-3.5,3-6.9,3.8h0c-3.6-1-7.3-2.1-11-3.2
		c2.5-1.5,4.1-3.7,5.6-5.9c-3.1,0.4-6.5,1.3-7.9-1.4c-1.8,1.8-4.1,3.4-8.4,4.1c-1.5-0.5-3.1-0.9-4.6-1.3c2.3-1.5,3.8-3.5,5.2-5.7
		c-3.1,0.5-6.5,1.4-7.9-1.4c-1.7,1.7-3.8,3.2-7.7,4c-3.4-1-6.8-2-10.2-3.1c2.5-1.5,4.1-3.6,5.6-5.9c-3.1,0.5-6.5,1.3-7.9-1.4
		c-1.7,1.8-4,3.4-8.2,4.1c-3-0.9-6-1.8-9-2.8c2.5-1.5,4.1-3.6,5.5-5.9c-3.1,0.5-6.5,1.3-7.9-1.4c-1.7,1.8-4,3.4-8.2,4.1
		c-4.1-1.2-8.1-2.4-12.2-3.7c2.1-1.5,3.5-3.4,4.8-5.4c-3.1,0.4-6.5,1.3-7.9-1.4c-1.5,1.6-3.5,3-6.9,3.9c0,0,0,0,0,0
		c-3.9-1.1-7.7-2.2-11.6-3.4c2-1.4,3.3-3.3,4.6-5.2c-3.1,0.5-6.5,1.3-7.9-1.4c-1.5,1.6-3.5,3-6.8,3.8c-2.9-0.8-5.8-1.6-8.8-2.4
		c1.9-1.4,3.3-3.3,4.6-5.2c-3.1,0.5-6.5,1.3-7.9-1.4c-1.5,1.6-3.5,3.1-7,3.9c-3.1-0.8-6.3-1.6-9.4-2.4c21.9-10.2-11.4-15.1-5.9-31.8
		C179.3,339.8,204,313.7,226.7,300.3L226.7,300.3z"/>
</g>
<g id="g3515" transform="translate(-64.954 -387.16)">
	<path id="path3330" class="st2" d="M147.2,423.4c-5.2,2.1-10,4.4-18.3,14.7l-1.8-1.5c-0.5-0.3-1.3-0.6-1.9-0.9l-1.7-0.6l-1.9-0.8
		l-1.3-0.4c-1.3-0.1-2.4-0.3-2.5-1.2c-0.6-0.2-1.2,0.7-1.7-0.5c-0.5,0.1-1.1,0.3-1.4-0.6l-0.8-0.4c-1.1,0.4-1.4-0.3-1.7-1
		c-0.8,0.5-1.3,0.4-1.6-0.7c-1,0.3-1.8,0-2.2-1.6c-1.1-0.1-1.6-0.9-1.7-2.4c-0.5,0.1-1.4,0.2-1.4-1.7c-2.2,4.4-3.4,8.9-4.3,13.4
		l1.6,0.1c-11.9,1.5-20,5.3-26,9.1c-4.3,2.7-10.2,6-10,7.2c0.2,1.2,8,4.1,7,4.5c-0.7,0.3-8.2-0.5-7.4,1.1c1.6,1.9,8,5.1,16.1,7.4
		c5.6,1.6,12.1,2.7,18.2,3.2c3.2,3.1,2.5,6.7,7.2,10.5c1,0.7,0.7-2.3,1.9-5c1.3-2.9,1.6-5.3-1-5.1l-0.2,0c9.3,0.1,17.3-2.2,25.8-4.9
		c6.5,5.6,10.3,6.5,14.3,7.4c-3.4-1.2-7.2-3.9-8-5.8c-0.8-1.9,4.1-3.1,1-3.9c0.8-0.3,1.6-0.5,2.4-0.7c0.5,0.1,0.9,0.4,1.1,0.6
		c0.3-0.5,0.9-0.4,1.5-0.3c-0.2-0.3-0.5-0.6-0.8-0.9c0.8-0.2,1.6-0.5,2.4-0.7c0.5,0.1,0.8,0.4,1,0.6c0.3-0.5,0.9-0.4,1.5-0.3
		c-0.2-0.3-0.4-0.6-0.7-0.8c0.9-0.3,1.8-0.5,2.7-0.8c0.5,0.1,0.8,0.4,1,0.6c0.3-0.5,0.9-0.4,1.5-0.3c-0.2-0.3-0.4-0.6-0.7-0.8
		c0.7-0.2,1.4-0.4,2.1-0.7c0.4,0.1,0.6,0.3,0.9,0.5c0.3-0.5,0.9-0.4,1.5-0.3c-0.2-0.3-0.4-0.6-0.7-0.8c0.8-0.2,1.5-0.5,2.3-0.7
		c0.3,0.1,0.5,0.3,0.7,0.5c0.3-0.5,0.9-0.4,1.5-0.3c-0.2-0.3-0.4-0.5-0.6-0.7c0.4-0.1,0.8-0.3,1.2-0.4c0.4,0.1,0.6,0.3,0.8,0.5
		c0.3-0.5,0.9-0.4,1.5-0.3c-0.2-0.3-0.4-0.6-0.7-0.8c0.7-0.3,1.5-0.5,2.3-0.8c0.3,0.1,0.6,0.3,0.7,0.5c0.3-0.5,0.9-0.4,1.5-0.3
		c-0.2-0.3-0.4-0.5-0.7-0.8c0.5-0.2,0.9-0.3,1.4-0.5c0.5,0.1,0.8,0.4,1.1,0.6c0.3-0.5,0.9-0.4,1.5-0.3c-0.2-0.3-0.5-0.6-0.8-0.9
		c0,0,0,0,0,0c1.2,0.9,2.5,1.8,3,3.2c0.7,2.2,5.8,10.6,14.3,14.1c-10.6-12-12.4-24.1,0.6-36.6c-5.5,1.5-8.7,4.9-11.8,8.2
		c-4.1,4.4-3,6.3-6.2,8.1c0,0,0,0-0.1,0c0.4-0.3,0.7-0.6,0.9-1c-0.6,0.1-1.2,0.3-1.5-0.3c-0.3,0.3-0.7,0.6-1.4,0.8
		c-0.4-0.1-0.9-0.2-1.3-0.4c0.4-0.3,0.6-0.6,0.9-1c-0.6,0.1-1.2,0.3-1.5-0.3c-0.3,0.3-0.7,0.6-1.3,0.7h0c-0.7-0.2-1.4-0.4-2.1-0.6
		c0.5-0.3,0.8-0.7,1.1-1.1c-0.6,0.1-1.2,0.3-1.5-0.3c-0.3,0.4-0.8,0.7-1.6,0.8c-0.3-0.1-0.6-0.2-0.9-0.3c0.4-0.3,0.7-0.7,1-1.1
		c-0.6,0.1-1.2,0.3-1.5-0.3c-0.3,0.3-0.7,0.6-1.5,0.8c-0.6-0.2-1.3-0.4-2-0.6c0.5-0.3,0.8-0.7,1.1-1.1c-0.6,0.1-1.2,0.3-1.5-0.3
		c-0.3,0.3-0.8,0.6-1.6,0.8c-0.6-0.2-1.2-0.4-1.7-0.5c0.5-0.3,0.8-0.7,1.1-1.1c-0.6,0.1-1.2,0.3-1.5-0.3c-0.3,0.3-0.8,0.6-1.6,0.8
		c-0.8-0.2-1.6-0.5-2.3-0.7c0.4-0.3,0.7-0.6,0.9-1c-0.6,0.1-1.2,0.3-1.5-0.3c-0.3,0.3-0.7,0.6-1.3,0.7c-0.7-0.2-1.5-0.4-2.2-0.6
		c0.4-0.3,0.6-0.6,0.9-1c-0.6,0.1-1.2,0.3-1.5-0.3c-0.3,0.3-0.7,0.6-1.3,0.7c-0.6-0.2-1.1-0.3-1.7-0.5c0.4-0.3,0.6-0.6,0.9-1
		c-0.6,0.1-1.2,0.3-1.5-0.3c-0.3,0.3-0.7,0.6-1.3,0.7c-0.6-0.2-1.2-0.3-1.8-0.5c4.2-1.9-2.2-2.9-1.1-6.1
		C138.1,431,142.8,426,147.2,423.4L147.2,423.4z"/>
	<g id="g3309">
		
			<linearGradient id="path2398_1_" gradientUnits="userSpaceOnUse" x1="204.2749" y1="41.0597" x2="204.7703" y2="41.7101" gradientTransform="matrix(1 0 0 -1 -64.954 512.726)">
			<stop  offset="0" style="stop-color:#3F4134"/>
			<stop  offset="1" style="stop-color:#637500"/>
		</linearGradient>
		<path id="path2398" class="st3" d="M134.1,465.2c6.6,5.8,10.5,6.7,14.6,7.6c-3.4-1.2-7.2-3.9-8-5.8c-0.8-1.9,4.2-3.1,0.9-3.9"/>
		
			<radialGradient id="path2400_1_" cx="-753.4533" cy="-1200.4432" r="9.1205" gradientTransform="matrix(0.1164 0 0 -0.103 268.6701 328.0008)" gradientUnits="userSpaceOnUse">
			<stop  offset="0" style="stop-color:#3F4134"/>
			<stop  offset="1" style="stop-color:#637500"/>
		</radialGradient>
		<path id="path2400" class="st4" d="M171.9,450.2c3.5-1.9,2.2-3.7,6.4-8.3c3.1-3.4,6.3-6.8,11.8-8.2c-13.1,12.5-11.3,24.7-0.6,36.6
			c-8.4-3.4-13.5-11.8-14.3-14.1c-0.5-1.4-1.8-2.3-3-3.2L171.9,450.2L171.9,450.2z"/>
		
			<linearGradient id="path2402_1_" gradientUnits="userSpaceOnUse" x1="166.9476" y1="35.6568" x2="167.4661" y2="36.0891" gradientTransform="matrix(1 0 0 -1 -64.954 512.726)">
			<stop  offset="0" style="stop-color:#3F4134"/>
			<stop  offset="1" style="stop-color:#637500"/>
		</linearGradient>
		<path id="path2402" class="st5" d="M100.4,469.8c3.4,3.1,2.6,6.8,7.4,10.7c1,0.7,0.7-2.3,1.9-5c1.3-2.9,1.6-5.3-1-5.1"/>
		
			<linearGradient id="path2404_1_" gradientUnits="userSpaceOnUse" x1="166.549" y1="82.8917" x2="165.6097" y2="83.326" gradientTransform="matrix(1 0 0 -1 -64.954 512.726)">
			<stop  offset="0" style="stop-color:#3F4134"/>
			<stop  offset="1" style="stop-color:#637500"/>
		</linearGradient>
		<path id="path2404" class="st6" d="M101,437.3c0.9-4.5,2.1-9,4.3-13.4c0,1.9,0.9,1.9,1.4,1.7c0,1.5,0.6,2.3,1.7,2.4
			c0.5,1.5,1.3,1.9,2.2,1.6c0.3,1.1,0.8,1.2,1.6,0.7c0.3,0.7,0.6,1.4,1.7,1l0.8,0.4c0.3,0.9,0.8,0.8,1.4,0.6
			c0.5,1.1,1.1,0.3,1.7,0.5c0.1,1,1.2,1.2,2.5,1.3l1.3,0.4l1.9,0.8l1.7,0.6c0.6,0.3,1.4,0.6,1.9,0.9l2.1,1.8L101,437.3L101,437.3z"
			/>
		
			<linearGradient id="path2406_1_" gradientUnits="userSpaceOnUse" x1="200.2702" y1="83.7136" x2="200.9837" y2="83.2067" gradientTransform="matrix(1 0 0 -1 -64.954 512.726)">
			<stop  offset="0" style="stop-color:#3F4134"/>
			<stop  offset="1" style="stop-color:#637500"/>
		</linearGradient>
		<path id="path2406" class="st7" d="M128.7,438.3c8.4-10.5,13.3-12.7,18.5-14.9c-4.3,2.6-9.1,7.6-10.2,10.8c-1,3.2,5.3,4.1,1.1,6.1
			"/>
		
			<linearGradient id="path3317_1_" gradientUnits="userSpaceOnUse" x1="232.5246" y1="60.299" x2="233.0737" y2="59.9432" gradientTransform="matrix(1 0 0 -1 -64.954 512.726)">
			<stop  offset="0" style="stop-color:#3F4134"/>
			<stop  offset="1" style="stop-color:#637500"/>
		</linearGradient>
		<path id="path3317" class="st8" d="M141.3,440.1c-0.4,0.4-0.9,0.8-2.1,0.8l1.4,0.9c1.2-0.2,1.7-0.8,2.2-1.5
			C142.2,440.4,141.6,440.6,141.3,440.1z M144.9,441.1c-0.4,0.4-0.9,0.8-2.1,0.8l1.4,0.9c1.2-0.2,1.7-0.8,2.2-1.5
			C145.8,441.4,145.2,441.6,144.9,441.1z M149.1,442.3c-0.4,0.4-0.9,0.8-2.1,0.8l1.4,0.9c1.2-0.2,1.7-0.8,2.2-1.5
			C150,442.6,149.4,442.8,149.1,442.3z M153.6,443.5c-0.4,0.4-0.9,0.8-2.1,0.8l1.4,0.9c1.2-0.2,1.7-0.8,2.2-1.5
			C154.5,443.8,153.9,444,153.6,443.5L153.6,443.5z M157.3,444.6c-0.4,0.4-0.9,0.8-2.1,0.8l1.4,0.9c1.2-0.2,1.7-0.8,2.2-1.5
			C158.2,445,157.6,445.1,157.3,444.6z M161.2,445.8c-0.4,0.4-0.9,0.8-2.1,0.8l1.4,0.9c1.2-0.2,1.7-0.8,2.2-1.5
			C162.1,446.2,161.5,446.4,161.2,445.8z M164.2,446.7c-0.4,0.4-0.9,0.8-2.1,0.8l1.4,0.9c1.2-0.2,1.7-0.8,2.2-1.5
			C165.1,447,164.5,447.2,164.2,446.7L164.2,446.7z M168.1,447.9c-0.4,0.4-0.9,0.8-2.1,0.8l1.4,0.9c1.2-0.2,1.7-0.8,2.2-1.5
			C169,448.3,168.4,448.4,168.1,447.9z M171.4,448.8c-0.4,0.4-0.9,0.8-2.1,0.8l1.4,0.9c1.2-0.2,1.7-0.8,2.2-1.5
			C172.4,449.1,171.7,449.3,171.4,448.8z"/>
		
			<linearGradient id="path3349_1_" gradientUnits="userSpaceOnUse" x1="216.2881" y1="50.5615" x2="216.8697" y2="50.9174" gradientTransform="matrix(1 0 0 -1 -64.954 512.726)">
			<stop  offset="0" style="stop-color:#3F4134"/>
			<stop  offset="1" style="stop-color:#637500"/>
		</linearGradient>
		<path id="path3349" class="st9" d="M170.8,452.6l-1.4,1c1.1,0,1.7,0.4,2.1,0.8c0.3-0.5,0.9-0.4,1.5-0.3
			C172.5,453.3,172,452.7,170.8,452.6L170.8,452.6z M167.5,453.6l-1.4,1c1.1,0,1.7,0.4,2.1,0.8c0.3-0.5,0.9-0.4,1.5-0.3
			C169.2,454.3,168.6,453.7,167.5,453.6z M163.6,455l-1.4,1c1.1,0,1.7,0.4,2.1,0.8c0.3-0.5,0.9-0.4,1.5-0.3
			C165.4,455.7,164.8,455.1,163.6,455z M160.7,455.9l-1.4,1c1.1,0,1.7,0.4,2.1,0.8c0.3-0.5,0.9-0.4,1.5-0.3
			C162.4,456.7,161.8,456,160.7,455.9z M156.8,457.3l-1.4,1c1.1,0,1.7,0.4,2.1,0.8c0.3-0.5,0.9-0.4,1.5-0.3
			C158.5,458,158,457.4,156.8,457.3L156.8,457.3z M153.1,458.5l-1.4,1c1.1,0,1.7,0.4,2.1,0.8c0.3-0.5,0.9-0.4,1.5-0.3
			C154.8,459.3,154.3,458.6,153.1,458.5L153.1,458.5z M148.7,459.9l-1.4,1c1.1,0,1.7,0.4,2.1,0.8c0.3-0.5,0.9-0.4,1.5-0.3
			C150.4,460.6,149.9,460,148.7,459.9L148.7,459.9z M144.5,461.2l-1.4,1c1.1,0,1.7,0.4,2.1,0.8c0.3-0.5,0.9-0.4,1.5-0.3
			C146.2,462,145.7,461.3,144.5,461.2z"/>
		<g id="layer2">
			
				<linearGradient id="path2396_1_" gradientUnits="userSpaceOnUse" x1="187.2523" y1="76.1829" x2="187.9583" y2="42.5173" gradientTransform="matrix(1 0 0 -1 -64.954 512.726)">
				<stop  offset="0" style="stop-color:#151165"/>
				<stop  offset="1" style="stop-color:#FFFFFF"/>
			</linearGradient>
			<path id="path2396" class="st10" d="M179.2,451.9c-3.5-2.9-3.7-1-5.7-1.5c-18-4.4-40.9-14-60.9-13.8c-17.5,0.2-28.3,5-35.9,9.7
				c-4.3,2.7-10.2,6-10,7.2c0.2,1.2,8,4.1,7,4.5c-0.7,0.3-8.2-0.5-7.4,1.1c1.6,1.9,8,5.1,16.1,7.4c8.1,2.3,17.9,3.5,26,3.6
				c13.2,0.1,23.7-4.5,37-8.4c8.5-2.5,17-5.2,26-8.6C174.7,452.1,176.3,454.6,179.2,451.9L179.2,451.9z"/>
		</g>
		<g id="layer3">
			<path id="path3188" class="st11" d="M81.9,452.6c0,1.1-0.9,1.9-2,1.9c-1.1,0-2-0.9-2-1.9s0.9-1.9,2-1.9
				C81,450.6,81.9,451.5,81.9,452.6z"/>
			<path id="path3195" class="st12" d="M81.7,452.6c0,1-0.8,1.7-1.8,1.7c-1,0-1.8-0.8-1.8-1.7c0-1,0.8-1.7,1.8-1.7
				C80.9,450.9,81.7,451.6,81.7,452.6z"/>
			
				<radialGradient id="path3197_1_" cx="144.562" cy="54.2734" r="1.4293" gradientTransform="matrix(1 0 0 -0.9588 -64.954 504.3716)" gradientUnits="userSpaceOnUse">
				<stop  offset="0" style="stop-color:#D6D1C4"/>
				<stop  offset="1" style="stop-color:#D6D1C4;stop-opacity:0"/>
			</radialGradient>
			<path id="path3197" class="st13" d="M79.8,451.2c-1.4-0.1-1.9,2.3-0.5,2.6c1.2,0.5,2.6-1.1,1.7-2.1
				C80.7,451.4,80.3,451.2,79.8,451.2z"/>
			<path id="path3215" d="M79.3,451.3c-1.4,0.1-0.9,2.3,0.3,2c1.1-0.2,1.1-1.9-0.1-2C79.5,451.3,79.4,451.3,79.3,451.3z"/>
			
				<radialGradient id="path3225_1_" cx="259.2981" cy="9.929456e-02" r="0.9962" gradientTransform="matrix(0.7207 0 0 -0.7028 -107.7369 451.9423)" gradientUnits="userSpaceOnUse">
				<stop  offset="0" style="stop-color:#FFFFFF"/>
				<stop  offset="1" style="stop-color:#FFFFFF;stop-opacity:0"/>
			</radialGradient>
			<path id="path3225" class="st14" d="M79.3,451.3c-1.4,0.1-0.9,2.3,0.3,2c1.1-0.2,1.1-1.9-0.1-2C79.5,451.3,79.4,451.3,79.3,451.3
				z"/>
			<g id="path3235" class="st15">
				<path class="st16" d="M88.3,450.1c4.9,12.3-0.5,15.8-3.7,15.4"/>
			</g>
			<g id="path3237" class="st17">
				<path class="st18" d="M98.2,451.9c1.2,12.3-6.6,15.8-10.2,15.4"/>
			</g>
		</g>
	</g>
	
		<linearGradient id="path3463_1_" gradientUnits="userSpaceOnUse" x1="173.855" y1="66.0634" x2="174.0712" y2="65.4206" gradientTransform="matrix(1 0 0 -1 -64.954 512.726)">
		<stop  offset="0" style="stop-color:#3F4134"/>
		<stop  offset="1" style="stop-color:#637500"/>
	</linearGradient>
	<path id="path3463" class="st19" d="M97.8,452.9c12.1-7.2,20.9-4.5,25.6-2.1c-5.4,4.3-10.7,5.9-15.9,7.2
		C108.6,452.2,102.6,453.2,97.8,452.9L97.8,452.9z"/>
	<path id="path3473" class="st20" d="M72.1,456.3c3.8,1.8,5.9,1.5,6,2c0.3,1.3-0.7,3.2-3.9,0.5"/>
</g>
</svg>
