<?xml version="1.0" encoding="utf-8"?>
<!-- Generator: Adobe Illustrator 22.1.0, SVG Export Plug-In . SVG Version: 6.00 Build 0)  -->
<svg version="1.1"
	 id="svg1338" xmlns:cc="http://web.resource.org/cc/" xmlns:dc="http://purl.org/dc/elements/1.1/" xmlns:rdf="http://www.w3.org/1999/02/22-rdf-syntax-ns#" xmlns:svg="http://www.w3.org/2000/svg"
	 xmlns="http://www.w3.org/2000/svg" xmlns:xlink="http://www.w3.org/1999/xlink" x="0px" y="0px" viewBox="0 0 125 125"
	 style="enable-background:new 0 0 125 125;" xml:space="preserve">
<style type="text/css">
	.st0{fill:#FFFFFF;stroke:#000000;stroke-width:0.5;}
	.st1{fill:url(#path4449_1_);}
	.st2{fill:url(#path1358_1_);}
	.st3{fill:#A29E9B;}
	.st4{fill:#797359;stroke:#000000;stroke-width:0.5;}
	.st5{fill:none;stroke:#000000;stroke-width:0.5;}
	.st6{fill:#C7AF8E;stroke:#000000;stroke-width:0.5;}
	.st7{fill:#6F5932;}
	.st8{fill:#877163;}
	.st9{fill:#89826F;stroke:#000000;stroke-width:0.5;}
	.st10{fill:#9B9585;stroke:#000000;stroke-width:0.5;}
	.st11{fill:#BCB8AE;stroke:#000000;stroke-width:0.5;}
	.st12{fill:#E2D3D0;stroke:#000000;stroke-width:0.5;}
	.st13{fill:#867E72;stroke:#000000;stroke-width:0.5;}
	.st14{fill:#B8ABA4;stroke:#000000;stroke-width:0.5;}
	.st15{fill:url(#path1346_1_);stroke:#000000;stroke-width:0.5;}
	.st16{fill:url(#path1353_1_);stroke:#000000;stroke-width:0.5;}
	.st17{fill:#3F3709;}
	.st18{fill:#9A9580;stroke:#000000;stroke-width:0.5;}
	.st19{fill:#3C1E1E;stroke:#000000;stroke-width:0.5;}
	.st20{fill:#E1E0DC;stroke:#000000;stroke-width:0.5;}
	.st21{fill:url(#path2853_1_);}
	.st22{fill:#D1CEC7;stroke:#000000;stroke-width:0.5;}
	.st23{fill:url(#path3623_1_);stroke:#000000;stroke-width:0.5;}
</style>
<g id="g1965" transform="matrix(1.2804 0 0 1.357 -9.2638 -581.97)">
	<path id="path1347" class="st0" d="M10.2,475c0,0-0.3-0.2-0.5-0.4c-0.1-0.2-0.1-0.3-0.1-0.5c0.1-0.3,0.2-0.3,0.5-0.4
		c0.3-0.2,0.5-0.2,0.5-0.2l0.8-0.1l2.1-0.8l3.2-1l2.4-0.7l2.9-0.6l2.8-1l2.7-1.5l3-1.1l3.3-0.8l2.8-0.1l5.9,0.3l3.8,0.2l4.7,0.7
		l4.3,0.7L59,468l2.3,0.7l2.2,0.8l2.7,1l3.7,1.4l3.5,1l3.1,0.9l2.4,0.9l2.6,0.1l3.2,0.2l1.1-0.1l1.9-0.8l0.5-0.4l1,0.5l1.1,0.6
		l0.9,1.1l0.1,1.3l0.1,2.2l-0.2,2l-0.9,1.1l-1.6,0.9l-0.4,0.5l-1.8-0.9l-2.8-0.4h-4.9l-4.1,0.7l-3.3,0.9l-2.4,0.7l-3.7,0.9l-2,0.5
		l0.8,0.9l1.6,1.3l3.5,2.6l-3.3-1.4l-2.3-1.7l-1.6-1.4l-1.9,0.9l-2.9,0.5l-2.5,0.1l-7.9-0.2l-4.9-0.6l-3.6-0.9l-0.8-0.3l-1,0.3
		l-1.7,0.3l-2-0.4l-2.8-0.8c0,0-1.6-0.1-3.3-0.6c-1.6-0.4-3.2-1.1-3.2-1.1l-2.3-0.7l-2.8-0.4l-2.6,0.1l-2-0.2l-1.8-0.5l-2.1-0.9
		l-1.5-0.9l-0.4-1l0.2-0.4l1.5-1.1l0.2,0.9l0.4,0.3l1.1-0.4l1.5-0.1l0.8-0.1l-1.3-1.3l-1.5-1.2L10.2,475L10.2,475z"/>
	
		<linearGradient id="path4449_1_" gradientUnits="userSpaceOnUse" x1="-141.5709" y1="-229.1597" x2="-147.9395" y2="-356.901" gradientTransform="matrix(2.6512 0 0 -0.6554 443.2926 282.5192)">
		<stop  offset="0" style="stop-color:#AFAFAF"/>
		<stop  offset="1" style="stop-color:#AFAFAF;stop-opacity:0"/>
	</linearGradient>
	<path id="path4449" class="st1" d="M31,472.6l6-0.1l10,1.5l9.6,2l11.1,1.4l23.5,1.2l0.1,0.7l-0.2,1.7l-0.1,0.3l-0.9,1.1l-1.5,0.9
		l-0.4,0.5l-1.8-1l-2.8-0.4l-4.9,0l-4.1,0.7L63.4,486l-1.4,0.3l-2,0.9l-2.9,0.4l-2.3,0.1l-4.1-0.1l-3.8-0.1l-5-0.5l-4.4-1.2
		l-2.7,0.5l-2.1-0.4l-2.7-0.7l-2.6-0.4l-1.9-0.5l-2.2-0.9l0.6,0l3.2,0.4l2.8-0.4l0.6-0.4l0.3-0.6l0-0.4l0.7-0.3l1.2-1l0-0.9l0.8-0.7
		l0.4-1l0-0.8l0.1-0.6l-0.1-0.5l0.2-0.9l-0.2-0.6l-2.8-1.5L31,472.6L31,472.6L31,472.6L31,472.6L31,472.6"/>
	
		<linearGradient id="path1358_1_" gradientUnits="userSpaceOnUse" x1="-8.7287" y1="218.6038" x2="-9.4884" y2="206.184" gradientTransform="matrix(1.2804 0 0 -1.357 69.2619 769.1189)">
		<stop  offset="0" style="stop-color:#A7ABC7"/>
		<stop  offset="1" style="stop-color:#A7ABC7;stop-opacity:0"/>
	</linearGradient>
	<path id="path1358" class="st2" d="M31.1,472.6l6-0.3l9.9,1.6l9.7,2l11,1.4l23.6,1.2v2.5l-1.1,1.4l-1.3,0.8l-0.4,0.6l-1.8-0.9
		l-2.8-0.3H79l-5,0.7L63.5,486l-1.5,0.4l-2.2,0.9l-2.9,0.4l-9.7-0.2l-5.3-0.5l-4.5-1.2l-2.5,0.6c0,0-2.6-0.6-4.8-1.2
		c-2.2-0.3-2.2-0.3-3.7-0.7c-1.6-0.4-2.7-1-2.7-1l1.3,0.1l2.2,0.2c0,0,2.2-0.3,3.1-0.6c0.5-0.2,0.3-0.5,0.6-1.2
		c0.6-0.4,1.9-1.2,1.9-1.2l0.1-0.9c0,0,0.4-0.5,0.9-1.2c0.5-0.7,0.3-2.7,0.3-2.7s0.3-0.8,0.1-1.3c-0.2-0.5-0.2-0.4-1-0.7
		c-0.8-0.4-1.3-0.7-1.9-1.1C31,472.6,31.1,472.6,31.1,472.6L31.1,472.6z"/>
	<path id="path4332" class="st3" d="M11.6,476.3l0,0.3l0.2-0.1L11.6,476.3L11.6,476.3z"/>
	<path id="path4330" class="st3" d="M11.3,475.9l-0.1,0.5l0.4-0.1L11.3,475.9z"/>
	<path id="path4328" class="st3" d="M10.9,475.6l0,0.5l0.4-0.2C11.2,476,10.9,475.6,10.9,475.6z"/>
	<path id="path4326" class="st3" d="M10.3,475.2l0,0.7l0.4-0.3L10.3,475.2z"/>
	<path id="path3598" class="st3" d="M9.8,474.7l0.1,0.9l0.5-0.5L9.8,474.7z"/>
	<path id="path3574" class="st4" d="M18.6,480.4c0.2,0.4,2.3,1,2.3,1s1.7,0.4,3,0.2c1.3-0.3,1.4-0.5,2.2-1.3
		c0.4-0.4,0.7-0.8,1.1-2.1c0.3-1.3,0.4-1.7,0.2-3c-0.2-1.3-0.6-1.5-1.2-2.3c-0.6-0.8-1-1.2-1-1.2l-1.9-1.9l-1.1,0.4l-4.8,1.1
		c0,0-5.2,1.7-5.4,1.7c-0.1,0.1-0.3,0.3-0.4,0.6c-0.1,0.3,0,0.4,0.1,0.5c0.1,0.1,0.8,0.9,0.8,0.9l0.6,0.6c0,0,1.4,0.3,1.8,0.4
		c0.4,0.1,2.4,1.7,2.4,1.7s0.6,0.4,1,1.1C18.5,479.6,18.4,480,18.6,480.4L18.6,480.4z"/>
	<path id="path1351" class="st5" d="M70.4,491.6l1.9,0.9l1.9,0.4l0.4-0.9l1.5-0.8l0.7-0.9l0.9-0.7l0.5-1.1l0.6-1.1l0.2-1.2v-0.8
		l-1.2-0.6l-1.4-0.5l-1.6-1l-3.6,1l-4.3,1.1l-2.7,0.6l-0.7,0.2l0.7,1l3.4,2.7l1.7,1.2L70.4,491.6L70.4,491.6z"/>
	<path id="path1355" class="st5" d="M35.6,486.4l-0.1,1.4l1.9,4.4c0,0,1.6,2.8,1.9,3.1c0.3,0.3,0.3,0.4,0.7,0.5c0.4,0.1,0.7,0.1,1,0
		c0.3-0.1,0.2-0.4,0.2-0.4l1.3,0.9c0,0,0.4,0.3,0.9,0.3c0.5,0.1,0.7,0.1,1.1,0c0.4-0.1,0.5-0.5,0.5-0.5s0,0.3,0.4,0.3
		c0.3,0,0.6-0.1,0.8-0.2c0.3-0.2,0.1-0.5,0.1-0.5s0.7,0.1,1-0.2c0.3-0.3,0.4-0.9,0.4-0.9v-0.9c0,0,0.5,0.1,0.7-0.2
		c0.2-0.3,0.2-0.6,0.1-0.9c-0.1-0.3-0.4-0.3-0.4-0.3s0-0.1,0.2-0.3c0.2-0.2,0.5-0.2,0.6-0.6c0.1-0.3,0-0.5-0.2-0.8
		c-0.2-0.3-0.3-0.3-0.3-0.3l-0.4-0.3l0.5-0.6c0,0,0.1-0.1,0.2-0.4c0.1-0.3,0.2-0.3-0.1-0.6c-0.3-0.3-1-0.5-1-0.5l-2.8-0.4l-2.9-0.3
		l-2.5-0.7l-1.7-0.5L35.6,486.4L35.6,486.4z"/>
	<path id="path1356" class="st6" d="M88.3,473.7l6.5-4.3l4.8-2.5l2.2-0.6l0.4,0c0,0,0.1,0.1,0.1,0.3c0,0.2,0,1.4,0,1.4l-0.4,1.7
		l-1,2.6l-1.9,3.5l-0.8,1.4l-0.4,1.9l0.6,2.1l2.2,3.8l0.7,1.6l0.7,2.4l0.5,2.1l0,1l-0.8,0.2l-1.7-0.5l-4.5-2.2l-2.8-2.1l-4.1-3.5
		l0.4-0.5l1.6-1l0.8-1.1l0.3-1.9l-0.3-3.6l-0.8-1.2L88.3,473.7L88.3,473.7z"/>
	<path id="path1367" class="st4" d="M13,475.7l1.7,0.4c0,0,0.9,0.4,1.6,1c0.8,0.6,1.1,1.1,1.5,1.4c0.3,0.3,0.3,0.3,0.5,0.7
		c0.2,0.4,0.2,0.9,0.2,0.9s0,0.4-0.2,0.6c-0.2,0.2-0.2,0.2-0.5,0.2c-0.2,0-1.2,0.1-1.7,0c-0.5-0.1-0.5-0.2-0.8-0.5
		c-0.3-0.3-0.9-1.2-0.9-1.2l-1.9-2l-1.8-1.6l-0.9-0.8c0,0-0.3-0.3-0.2-0.5c0.1-0.3,0.2-0.3,0.5-0.5c0.4-0.2,0.6-0.2,1.1-0.3
		c0.5-0.1,0.8-0.2,0.8-0.2s-0.6,0.4-0.4,1c0.2,0.6,1.1,1.3,1.1,1.3l1.2,1.3l0.8,0.9l1.2,1.6l0,0"/>
	<path id="path2834" class="st7" d="M18.8,476.5c0.5,0,0.8-0.1,1-0.2c0.2-0.1,0.4-0.3,0.5-0.5c0.1-0.3,0.2-0.6,0.1-1
		c-0.1-0.4-0.3-0.6-0.5-0.7c-0.1-0.1-0.2-0.2-0.7-0.3c-0.5-0.1-0.9-0.1-1.2,0c-0.3,0.1-0.6,0.5-0.8,0.7c-0.1,0.3-0.2,0.9-0.1,1.1
		c0.1,0.3,0.4,0.5,0.6,0.6C18.1,476.4,18.3,476.5,18.8,476.5z"/>
	<path id="path2105" class="st8" d="M18.8,476.3c0.4,0,0.7-0.1,0.9-0.2c0.2-0.1,0.3-0.2,0.4-0.5c0.1-0.2,0.2-0.5,0.1-0.9
		c-0.1-0.4-0.3-0.5-0.4-0.6c-0.1-0.1-0.2-0.2-0.6-0.3c-0.4-0.1-0.8-0.1-1.1,0c-0.3,0.1-0.6,0.4-0.7,0.7c-0.1,0.2-0.1,0.8,0,1
		c0.1,0.2,0.3,0.4,0.5,0.6C18.2,476.2,18.4,476.3,18.8,476.3L18.8,476.3z"/>
	<path id="path2836" d="M18.7,474.4c0.3,0,0.6,0.3,0.6,0.6c0,0.3-0.3,0.6-0.6,0.6c-0.3,0-0.6-0.3-0.6-0.6
		C18.2,474.7,18.4,474.4,18.7,474.4"/>
	<path id="path3584" class="st4" d="M26.5,473.3c0,0,0.5,0.2,0.9,0.7s0.5,0.6,0.7,1.1c0.1,0.5,0.3,1.5,0.1,2.7
		c-0.1,1.1-0.1,1.1-0.5,1.9c-0.4,0.8-1.5,1.6-1.5,1.6s-0.3,0.7-0.8,0.9s-0.9,0.3-1,0.3c-0.9-0.2-1.6-0.7-1.6-0.7l1.6-0.1
		c0,0,0.5-0.1,1.2-0.7c0.7-0.6,1.3-1.4,1.4-1.5c0.1-0.2,0.4-1,0.5-2c0.1-1,0.1-1.2,0-2c-0.1-0.8-0.4-1.4-0.4-1.4L26.5,473.3
		L26.5,473.3z"/>
	<path id="path3592" class="st4" d="M31.3,476.5c0,0-0.6,1-1.1,2.1c-0.6,1.1-1.5,2.3-1.5,2.3s-0.6,0.9-1.3,1.4
		c-0.8,0.5-0.9,0.4-1.7,0.4c-0.8,0-1.4-0.3-1.4-0.3s0.7,0.1,1.4-0.4c0.3-0.3,0.3-0.5,0.5-0.8c0.2-0.2,0.7-0.3,1-0.8
		c0.6-0.9,0.8-0.9,1-2.2c0.2-1.3,0.2-2.2,0-2.9c-0.2-0.7-0.6-1.2-1-1.5c-0.4-0.3-0.5-0.3-0.5-0.3l-2.1-2.3l-1.2-1.2
		c0,0,1.6,0.1,2.8,0.3c1.3,0.2,1.2,0.1,2.2,0.5c1.1,0.4,1.4,0.6,2.1,1.3c0.7,0.6,0.6,1.1,0.8,1.2c0.1,0.1,2.6,1.3,2.8,1.6
		c0.2,0.2,0.3,0.8-0.1,1.8c-0.4,1-0.8,1.2-1.7,2.2c-1,0.9-1.3,1-2.1,1.4c-0.8,0.5-1.1,0.5-1.1,0.5"/>
	<path id="path3599" class="st9" d="M34,476.2c0,0,0.2,0.5,0.1,1.1c-0.1,0.6-0.5,1.2-0.5,1.2s-0.7,0.9-1.5,1.5
		c-0.8,0.7-1.7,1.2-1.7,1.2l-1.9,0.9l-1,0.3l-0.6,0.1l1.1-0.7c0,0,0.3-0.3,0.9-1.1c0.1-0.1,2.4-1.1,3.3-1.9
		C34.1,476.8,34,476.2,34,476.2L34,476.2z"/>
	<path id="path3604" class="st10" d="M34.1,477.4c0,0,0.1,0.6-0.1,1.2c-0.2,0.6-0.2,0.6-0.8,1.2c-0.6,0.6-1.3,1.3-1.3,1.3l-2.2,1.2
		l-1.3,0.4c0,0-1.7,0.3-1.7,0.2c0.1-0.1,1.9-0.7,1.9-0.7l1.3-0.6c0,0,1.5-0.8,2.4-1.6c0.9-0.8,1.5-1.6,1.5-1.6L34.1,477.4
		L34.1,477.4z"/>
	<path id="path3608" class="st11" d="M32.9,480.1l-0.1,0.8l-1.2,1l-2,1.1l-2,0.4l-4.1,0.2l-1.3-0.3l2.2-0.1l1.9-0.2l2.1-0.4l1.3-0.4
		l2.3-1.2L32.9,480.1L32.9,480.1z"/>
	<path id="path3614" class="st5" d="M30.8,482.3c0,0,0,0.6-0.4,1c-0.4,0.4-0.3,0.2-1.1,0.4c-0.9,0.2-2.2,0.4-2.2,0.4l-3.6-0.5
		l4.1-0.2l1.9-0.4L30.8,482.3z"/>
	<path id="path1348" class="st12" d="M34.4,465.7l1.1-4.7l1.4-3.4c0,0,0,0.7,0.1,0.8c0,0.1,0.1,0.2,0.3,0.3c0.1,0,0.4,0.2,0.8-0.2
		S39,457,39,457s0.1,0.6,0.2,0.7c0.1,0.2,0.1,0.3,0.2,0.4c0.1,0,0.3,0.2,0.8-0.2c0.5-0.4,1.2-1.3,1.2-1.3s-0.2,0.9-0.2,1.1
		c0,0.2,0.2,0.3,0.6,0.3c0.3,0,0.4,0,0.8-0.3c0.4-0.2,0.9-0.9,0.9-0.9s-0.1,0.6-0.1,0.8c0,0.2,0.1,0.3,0.2,0.3c0.1,0,0.3,0,0.8-0.1
		c0.5-0.1,1.2-0.5,1.2-0.5s-0.3,0.6-0.4,0.9c0,0.3,0.1,0.3,0.2,0.3c0.1,0,0.7,0,1.2,0c0.5-0.1,0.8-0.3,0.8-0.3s-0.2,0.7-0.2,0.8
		c0,0.1,0.1,0.2,0.3,0.2c0.2,0,0.5,0.2,0.9,0.1c0.5-0.1,1-0.5,1-0.5s-0.2,0.6-0.3,0.7c0,0.1-0.1,0.2,0,0.3c0.1,0.1,0.1,0.2,0.7,0.3
		c0.6,0,1.8-0.2,1.8-0.2s-0.4,0.7-0.5,0.8c-0.1,0.1,0,0.3,0.1,0.3c0.1,0.1,0.3,0.1,0.7,0.1c0.4,0,0.8-0.3,0.8-0.3s-0.3,0.8-0.3,1
		c0,0.1,0,0.2,0.2,0.2c0.2,0,1.4-0.1,1.4-0.1s-0.3,0.5-0.4,0.8c-0.2,0.3-0.2,0.3-0.1,0.4c0.1,0.1,0.3,0.1,0.6,0.1
		c0.3,0,0.8-0.1,0.8-0.1S55,463.9,55,464c0,0.1,0.1,0.2,0.2,0.2c0.1,0,0.6-0.1,0.6-0.1s-0.1,0.6-0.1,0.7c0,0.1,0.1,0.2,0.2,0.2
		c0.1,0,0.6,0,0.6,0s-0.3,0.4-0.1,0.6c0.1,0.2,0.6,0.2,0.6,0.2s-0.1,0.3-0.3,0.5c-0.2,0.2-1.2,1.2-1.2,1.2l-8.9-1.3l-8.6-0.5
		L34.4,465.7z"/>
	<path id="path1350" class="st6" d="M57.9,467.8c0,0,1.9-1.9,3.2-2.9c1.3-1.1,1.5-1.2,1.9-1.4c0.5-0.3,1.3-0.7,1.7-0.9
		c0.4-0.2,1.1-0.4,1.8-0.3c0.7,0,1.4,0.1,3,0.6c1.6,0.5,2,0.5,3.5,1.3c1.6,0.8,1.4,1,2.6,2c1.2,1,2,2.1,2,2.1l1.6,1.7l2,1.5
		c0,0-1,0.6-1.7,1.3c-0.7,0.7-1.2,1.5-1.2,1.5l-8.3-2.5l-6.5-2.4l-4.5-1.5L57.9,467.8L57.9,467.8z"/>
	<path id="path1330" class="st4" d="M31.1,472.6l6.1-0.1l9.9,1.5l9.6,2l11.3,1.4l9.1,0.5l7.5,0.4l6.9,0.4l-0.1-2.9l-0.9-1.1l-2.1-1
		L88,474l-2,0.9l-1.3,0.1l-5.5-0.3l-9-2.8l-7.4-2.8l-3.8-1.2l-12.5-1.6l-8.3-0.5l-3.7,0.1l-3.6,0.7l-3.1,1.1l-2.6,1.5l-1.8,0.6
		l4.3,0.6l1.3,0.5l1.4,0.8L31.1,472.6z"/>
	<path id="path1331" class="st13" d="M35.3,465.7c0,0,0.2-1.6,0.4-3c0.3-1.4,0.3-1.3,0.6-2.6c0.3-1.3,0.5-2.5,0.5-2.5l-1.4,3.3
		l-0.7,3l-0.3,1.8H35.3L35.3,465.7z"/>
	<path id="path1334" class="st14" d="M36.6,465.7l0.6-3.3c0,0,0.4-1.7,0.9-3.1c0.5-1.3,1-2.3,1-2.3s-0.8,0.9-1.4,2.2
		c-0.6,1.3-1,3-1,3l-0.4,1.7l-0.4,1.8L36.6,465.7L36.6,465.7z"/>
	<path id="path1337" class="st14" d="M37.8,465.7l0.2-1.1c0,0,0.3-1,0.7-2.1c0.4-1.1,1.1-2.3,1.1-2.3l1.3-2.5l0.2-0.8l-0.6,0.7
		l-1.2,2c0,0-1.2,2.6-1.7,3.9c-0.6,1.5-0.5,2.2-0.5,2.2H37.8L37.8,465.7z"/>
	<path id="path1340" class="st14" d="M39,465.7l0.7,0c0,0,0.1-0.4,0.5-1.5c0.4-1.1,1.2-2.9,1.2-2.9l1.3-2.8l0.8-1.6
		c0,0-0.3,0.1-1.1,1.5c-0.8,1.4-2,4.1-2,4.1l-0.9,1.9L39,465.7L39,465.7z"/>
	<path id="path1343" class="st14" d="M41.3,465.9l0.9-2.2l2.3-4.2l1.2-2.1l-0.4,0.2l-2.2,3.3l-1.6,3.3l-0.6,1.6L41.3,465.9
		L41.3,465.9z"/>
	<path id="path1345" class="st14" d="M42.4,466l1.7-3.2c0,0,0.3-0.5,1.1-1.6c0.7-1.1,1.9-2.7,1.9-2.7l0.4-0.2l-0.3,0.6l-1.4,1.9
		l-1.8,3.1l-1.1,2.2L42.4,466L42.4,466z"/>
	<path id="path1349" class="st14" d="M44,466.1l2.9-4.2l2.3-2.9l0.4-0.2l-0.2,0.6l-0.8,1.2l-1.9,2.5l-1.9,2.9L44,466.1L44,466.1z"/>
	<path id="path1352" class="st14" d="M46.4,465.8l3-3.8l1.9-2l0.4,0l-0.2,0.3l-0.6,0.9c0,0-1.1,1.3-2.1,2.6c-1,1.3-1.9,2.6-1.9,2.6
		l-0.7-0.1L46.4,465.8L46.4,465.8z"/>
	<path id="path1357" class="st14" d="M47.9,466.4l1.9-2.4l1.5-1.9l1-1.1l0.5-0.2l-0.5,0.7l-0.8,1l-1.6,2l-1.5,1.9L47.9,466.4
		L47.9,466.4z"/>
	<path id="path1361" class="st14" d="M50,466.6c0.1,0,0.8-1.1,1.6-2c0.7-0.8,1.3-1.4,1.3-1.4l0.6-0.7l0.6-0.7l-0.4,0l-1.1,0.9
		l-1.5,1.6l-1.7,2.2L50,466.6L50,466.6z"/>
	<path id="path1364" class="st14" d="M51.5,466.9l1.7-1.9l1.8-1.8l-0.7,0l-1.8,1.8l-1.7,1.7L51.5,466.9z"/>
	<path id="path1368" class="st14" d="M52.4,467l1.4-1.3l1.7-1.5l0.2-0.1l-0.1,0.3c0,0,0,0-0.6,0.7c-0.6,0.6-1.9,1.9-1.9,1.9
		L52.4,467z"/>
	<path id="path1372" class="st14" d="M55.6,467.4l1.1-1.1l0.3-0.5l-0.4,0l-1.7,1.4L55.6,467.4z"/>
	<path id="path1376" class="st14" d="M56.3,465.3l-1,1l-0.9,1l-0.6-0.1c0,0,0.7-0.7,1.3-1.2c0.6-0.5,1-0.9,1-0.9l0.4,0L56.3,465.3z"
		/>
	
		<linearGradient id="path1346_1_" gradientUnits="userSpaceOnUse" x1="-8.9609" y1="215.2966" x2="17.9603" y2="198.176" gradientTransform="matrix(1.2804 0 0 -1.357 69.2719 769.9644)">
		<stop  offset="0" style="stop-color:#D2BCC4"/>
		<stop  offset="1" style="stop-color:#D2BCC4;stop-opacity:0"/>
	</linearGradient>
	<path id="path1346" class="st15" d="M74.8,483.3l-11.3,2.8l0.7,1l2.4,1.9l2.4,1.8l3.2,1.6l2,0.4l0.5-0.9l1.4-0.7l0.7-1l0.9-0.7
		l1-2.1l0.2-1.2l0-0.8l-1.2-0.6l-1.4-0.5L74.8,483.3z"/>
	
		<linearGradient id="path1353_1_" gradientUnits="userSpaceOnUse" x1="-92.2072" y1="181.574" x2="-78.8195" y2="171.5308" gradientTransform="matrix(1.2804 0 0 -1.357 156.2719 733.9644)">
		<stop  offset="0" style="stop-color:#E1D2D7"/>
		<stop  offset="1" style="stop-color:#E1D2D7;stop-opacity:0"/>
	</linearGradient>
	<path id="path1353" class="st16" d="M35.5,486.4l0,1.4l1.9,4.4l1.8,3l0.5,0.6l0.6,0.2h0.6c0,0,0.3,0,0.4-0.2
		c0.1-0.1-0.1-0.3-0.1-0.3l1.3,0.9l1,0.3l0.9,0l0.5-0.2L45,496l0,0.3c0,0,0,0.2,0.3,0.2c0.3,0,0.6-0.1,0.8-0.2
		c0.2-0.1,0.2-0.2,0.2-0.2l-0.1-0.3c0,0,0.4,0.1,0.8,0s0.5-0.1,0.6-0.6c0.2-0.5,0.1-1.4,0.1-1.4l0.5-0.1c0,0,0.3-0.1,0.4-0.3
		c0.1-0.2,0.1-0.4,0-0.6s-0.3-0.4-0.3-0.4s-0.2,0.1-0.1,0c0-0.1,0.1-0.3,0.3-0.5c0.2-0.2,0.3-0.2,0.3-0.2s0.3-0.3,0.2-0.6
		c0-0.3-0.4-0.6-0.4-0.6l-0.6-0.5l0.4-0.6c0,0,0.3-0.4,0.2-0.7c0-0.3-0.4-0.5-0.4-0.5l-0.9-0.4l-5.5-0.6l-4.3-1.2L35.5,486.4
		L35.5,486.4z"/>
	<path id="path1363" class="st17" d="M89.1,483.3c0,0,2,1.9,3.7,3.3c1.7,1.4,1.8,1.4,3.2,2.4c1.4,1,2.6,1.6,2.6,1.6s-1-0.7-2.4-1.7
		c-1.4-1.1-1.4-1.1-3.1-2.5c-1.6-1.4-3.4-3.1-3.4-3.1l0.4-0.2c0,0,1.4,1.3,3.5,2.8s7,4.5,7,4.5l-6.8-4.9l-3.3-2.8
		c0,0,2.6,1.8,4.5,2.9c1.9,1.1,4.5,2.6,4.5,2.6s-5-3.3-6.9-4.5c-1.9-1.2-1.9-1.4-1.8-1.5c0.1-0.1,0.4,0,0.4,0l4,2.4l3.6,2l-5.6-3.6
		l-1.8-1.2l0.2-0.1l4,1.9l3,1.3l-7.1-3.7l0.2-0.4c0,0,2.1,0.9,3.6,1.5c1.5,0.5,2.8,0.9,2.8,0.9l-6.6-2.9l0.3-0.3l3.4,1l1.4,0.2
		l-5-1.7l3.2,0l-3.3-0.8l0.1-0.3l2.7,0l1.4-0.1l-4.3-0.2l3.1-0.8l0.9-0.4l-3.8,0.5V477c0,0,2.8-0.7,4.4-1.2c1.6-0.4,2.1-0.5,2.1-0.5
		s-0.7-0.1-2.3,0.2c-1.6,0.3-4.2,1-4.2,1l-0.1-0.3l5-1.7l2.2-0.8c0,0-1.4,0.2-3.2,0.8c-1.8,0.5-4.1,1.4-4.1,1.4l-0.2-0.3l3-1.6
		l4.6-1.7l-4.4,1.3l-3.2,1.7l-0.3-0.2c0,0,3-1.9,4-2.4c1.3-0.7,4.6-2,4.6-2s-3.4,0.8-4.9,1.6c-1,0.5-3.9,2.4-3.9,2.4l-0.4-0.2
		c0,0,3-2.1,4.5-2.9c1.4-0.8,6.6-3.6,6.6-3.6s-6.3,2.9-7.5,3.5c-1.1,0.6-3.9,2.6-3.9,2.6l-0.4-0.1c0,0,3.7-2.7,5.2-3.6
		c1.6-1,3-1.7,3-1.7l2.9-1.6c0,0-4.1,2-6,3.1c-1.9,1.1-5.9,3.7-5.9,3.7l1.5,0.8l0.9,1.1l0.1,2.8l0.1,0.9l-0.2,2l-0.8,1L89.1,483.3
		L89.1,483.3z"/>
	<path id="path3562" class="st17" d="M59.8,468.1l3.2-2.9l1.4-0.9l-4,3.8l0.5,0.2l3.4-3.4l2-1.4l-2,1.7l-3,3.2l0.4,0.1l2.4-2.2
		l1.8-1.8l1.7-1.5l-2.6,2.7l-2.8,3l0.5,0.2l1.3-1.6l1.9-1.7l2.1-2l0.3-0.1l-0.2,0.3l-1,1.1l-2,1.9l-2,2.3l0.6,0.2l1.1-1.4l1.8-1.7
		l2-1.6l1.6-1.1c0,0-0.3,0.5-1.3,1.4c-0.9,0.9-2.4,2.2-2.4,2.2l-2.4,2.5l0.5,0.2l1.1-1.3l1.9-1.7l3.3-2.4l-2.3,2.1l-2.2,2l-1.5,1.5
		l0.6,0.2l2.6-2.5l3-2.6l-2.1,2.5l-2.2,2l-0.7,0.7l0.5,0.2l2.1-2.1l1.9-1.9l1.8-1.2l-2.2,2.1l-3.1,3.3l0.6,0.2l2-2.1L72,467l1.6-0.9
		l-3.8,3.7l-1.3,1.3l0.5,0.2l2-2l3.4-2.7l-2.8,2.9l-1.8,2.1l0.8,0.3l1.9-2.3l2.1-2l-0.8,1.4l-2.6,3.1l0.5,0.1c0,0,1.5-1.7,2.6-2.6
		c1.1-0.9,1.7-1.1,1.7-1.1l-2.1,2.2l-1.6,1.7l0.6,0.2c0,0,1.1-1.3,1.7-1.9c0.6-0.7,0.7-0.7,0.7-0.7s0,0.3-0.4,0.9
		c-0.4,0.7-1.4,1.8-1.4,1.8l0.5,0.2l1.9-1.9l0.9-0.9l-1,1.6l-1.3,1.4l0.7,0.2l1.5-1.8l1.8-1.6l-1.9,2.2l-1,1.3l0.4,0.1l1.2-1.5
		l1.6-1.3l-1.6,2.1l-0.8,0.8l0.6,0.2l1.9-2.1l0.4-0.6l-1.3,2l-0.6,0.8l0.4,0.2l0.8-1.2l1.2-1.1l-1,1.3l-0.8,1.1l-5.6-1.7l-2.3-0.7
		l-5.6-2.1L59.8,468.1L59.8,468.1z"/>
	<path id="path4290" class="st17" d="M58.6,467.8l1.6-1.5l2.4-1.9l1.4-0.7l-1.3,1.1l-1.9,1.6l-1.1,1.1l-0.5,0.5L58.6,467.8z"/>
	<path id="path1383" class="st18" d="M10.4,481.3l1.7,0.7l1.9,0.5l1.9,0.2c0,0,2.3-0.1,2.7-0.1c0.3,0,2.8,0.4,2.8,0.4l0.8,0.3
		l1.2-0.1h1.1l1.9-0.2l0.5-0.1l-0.2-0.2l-1,0l-0.8-0.2c0,0-0.2-0.1-0.5-0.2c-0.3-0.1-0.4-0.1-0.7-0.2c-0.4-0.1-0.7-0.4-0.7-0.4
		l-0.2-0.1c0,0-0.6,0-1.3-0.2s-1.2-0.3-1.2-0.3s-1.2-0.5-1.4-0.6c-0.2-0.1-0.4-0.4-0.4-0.4s-0.1,0.2-0.1,0.4
		c-0.1,0.2-0.2,0.2-0.3,0.3c-0.1,0-1.1,0.1-1.1,0.1l-0.8-0.1l-0.5-0.2l-0.1,0.1l-1.4,0.3l-1.6,0.2l-1.4,0.1L10.4,481.3L10.4,481.3z"
		/>
	<path id="path1386" class="st19" d="M8.9,478.5l1-0.7l0.2,0.9l0.4,0.3l1.1-0.4l2.3-0.2l0.6,0.7l0.3,0.4l-2.3,0.4l-1.7,0.1l-0.9-0.2
		l-0.6-0.4l-0.3-0.4L8.9,478.5L8.9,478.5z"/>
	<path id="path1371" class="st4" d="M14.8,479.5l-2.4,0.4l-1.6,0.1l-0.9-0.2l-0.4-0.6l-0.1-0.6l0.1-0.4l-1.1,0.7l-0.2,0.5l0.3,0.8
		l0.9,0.7l0.9,0.4l0.9,0.1l1.3-0.1l1.4-0.2l0.8-0.2l0.5-0.1l0.4-0.2C15.7,480.7,14.8,479.5,14.8,479.5z"/>
	<path id="path2114" class="st20" d="M14.3,478.9l-1.9,0.3c0,0-1.5,0.2-1.9,0.1c-0.2,0-0.5-0.4-0.5-0.5c0,0-0.3-0.6-0.3-0.9
		c0.2-0.1,0.2-0.2,0.2-0.2s0.1,0.5,0.2,0.8c0.2,0.3,0.2,0.3,0.4,0.3c0.2,0,1.1-0.3,1.1-0.3l2.2-0.2L14.3,478.9L14.3,478.9z"/>
	<path id="path4334" class="st3" d="M11,479.5l-0.2,0.4l0.3,0L11,479.5z"/>
	
		<radialGradient id="path2853_1_" cx="-760.0535" cy="202.7143" r="5.0079" gradientTransform="matrix(-0.615 -0.4091 -0.485 0.6952 -345.9821 25.8552)" gradientUnits="userSpaceOnUse">
		<stop  offset="0" style="stop-color:#D0B76D"/>
		<stop  offset="1" style="stop-color:#D0B76D;stop-opacity:0"/>
	</radialGradient>
	<path id="path2853" class="st21" d="M21.4,480.3c-1.3-0.9-1.6-2.8-0.6-4.2c1-1.4,2.9-1.8,4.2-1c1.3,0.9,1.6,2.8,0.6,4.2
		C24.6,480.7,22.7,481.2,21.4,480.3"/>
	<path id="path1396" class="st22" d="M30.9,482.2l-0.1,0.4l-0.3,0.5l-0.4,0.4l-3,0.5l-3.4-0.4l0.5-0.1l3.4-0.1l1.9-0.4L30.9,482.2
		L30.9,482.2z"/>
	<path id="path5068" class="st3" d="M11.7,479.5l-0.1,0.4l0.3,0L11.7,479.5z"/>
	<path id="path5070" class="st3" d="M12.5,479.4l-0.2,0.4l0.4-0.1L12.5,479.4z"/>
	<path id="path5072" class="st3" d="M13.2,479.3l-0.1,0.4l0.3-0.1L13.2,479.3z"/>
	<path id="path5074" class="st3" d="M10.5,479.5l-0.2,0.2l0.2,0L10.5,479.5z"/>
	<path id="path5076" class="st3" d="M12.1,478.1l-0.2,0.4l0.3,0L12.1,478.1z"/>
	<path id="path5078" class="st3" d="M12.6,478.1l-0.1,0.4l0.3,0L12.6,478.1z"/>
	<path id="path5080" class="st3" d="M11.6,478.2l-0.1,0.4l0.3-0.1L11.6,478.2z"/>
	<path id="path5082" class="st3" d="M10.9,478.4l0,0.4l0.2-0.1L10.9,478.4L10.9,478.4z"/>
	
		<linearGradient id="path3623_1_" gradientUnits="userSpaceOnUse" x1="-28.6235" y1="211.8183" x2="-14.9485" y2="213.4302" gradientTransform="matrix(1.2804 0 0 -1.357 69.5635 770.5477)">
		<stop  offset="0" style="stop-color:#E1D2D7"/>
		<stop  offset="1" style="stop-color:#E1D2D7;stop-opacity:0"/>
	</linearGradient>
	<path id="path3623" class="st23" d="M32.9,481l3.2-1.4l3.6-0.9l2.7-0.2l2.5,0.3l1.3,0.7l0.3,1l-0.8,1.9l-1.2,1.8l-1.2,1.1l-2.2,0.2
		l-2.8-0.6l-2.5-0.8l-1.8-0.4l0-1.8l0,0.1"/>
	<path id="path3625" class="st5" d="M33.3,481.5l2.6-1.1l2.5-0.8l1.6-0.4l1.5-0.5l-1.6,0.1l-3.6,0.9l-3.4,1.5L33.3,481.5z"/>
</g>
</svg>
