<?xml version="1.0" encoding="utf-8"?>
<!-- Generator: Adobe Illustrator 22.1.0, SVG Export Plug-In . SVG Version: 6.00 Build 0)  -->
<svg version="1.1"
	 id="svg8" inkscape:version="0.92.3 (2405546, 2018-03-11)" sodipodi:docname="Deepsea fish b_w.svg.2020_05_17_10_58_57.0.svg" xmlns:cc="http://creativecommons.org/ns#" xmlns:dc="http://purl.org/dc/elements/1.1/" xmlns:inkscape="http://www.inkscape.org/namespaces/inkscape" xmlns:rdf="http://www.w3.org/1999/02/22-rdf-syntax-ns#" xmlns:sodipodi="http://sodipodi.sourceforge.net/DTD/sodipodi-0.dtd" xmlns:svg="http://www.w3.org/2000/svg"
	 xmlns="http://www.w3.org/2000/svg" xmlns:xlink="http://www.w3.org/1999/xlink" x="0px" y="0px" viewBox="0 0 125 125"
	 style="enable-background:new 0 0 125 125;" xml:space="preserve">
<style type="text/css">
	.st0{fill:#00FFFF;}
	.st1{fill:#FFCC00;}
	.st2{fill:url(#path129-6_1_);}
	.st3{fill:#0088AA;}
	.st4{opacity:0.61;fill:url(#path989-7_1_);enable-background:new    ;}
	.st5{fill:#2C89A0;}
	.st6{fill:#098DAE;}
	.st7{fill:#0D90B0;}
	.st8{fill:#0A8EAF;}
	.st9{fill:#1192B2;}
	.st10{fill:#93ACA7;}
	.st11{fill:#217867;}
	.st12{fill:#0000D4;}
	.st13{fill:#FFFFFF;}
	.st14{fill:#1D9AB9;}
	.st15{fill:#098EAF;}
</style>
<title  id="title23">Deepsea fish</title>
<sodipodi:namedview  bordercolor="#666666" borderopacity="1.0" fit-margin-bottom="0" fit-margin-left="0" fit-margin-right="0" fit-margin-top="0" id="base" inkscape:current-layer="layer2" inkscape:cx="501.32554" inkscape:cy="402.00758" inkscape:document-units="mm" inkscape:pageopacity="0.0" inkscape:pageshadow="2" inkscape:window-height="969" inkscape:window-maximized="1" inkscape:window-width="1280" inkscape:window-x="0" inkscape:window-y="27" inkscape:zoom="0.70710678" pagecolor="#ffffff" showgrid="false">
	</sodipodi:namedview>
<g id="layer2" inkscape:groupmode="layer" inkscape:label="bund">
	<path id="path127" inkscape:connector-curvature="0" class="st0" d="M73.8,48.3c-0.6,0-1.3,0.1-1.8,0.4c-0.4,0.4-0.8,0.9-1.1,1.3
		c-0.2,0.4-0.5,0.7-0.6,1.1c0,0.3,0.2,0.6,0.3,0.9c0.4,0.5,0.8,1.1,1.4,1.4c0.6,0.2,1.2,0,1.8-0.1c0.6-0.1,1.2-0.2,1.8-0.5
		c0.4-0.3,0.7-0.8,0.8-1.4c0-0.4,0.1-0.8-0.1-1.2c-0.3-0.7-0.8-1.3-1.4-1.7C74.5,48.3,74.1,48.3,73.8,48.3L73.8,48.3z"/>
	<path id="path129" inkscape:connector-curvature="0" class="st1" d="M85.3,25.4c-0.8,0-1.7,0-2.5,0.3c-0.7,0.2-1.4,0.4-2.1,0.7
		c-0.4,0.1-0.7,0.4-0.9,0.8c-0.5,0.7-0.9,1.4-0.9,2.3c0,0.8,0.4,1.5,1,2c0.6,0.7,1.4,1.2,2.2,1.5c0.9,0.3,1.8,0.6,2.8,0.8
		c0.5,0.1,1,0.2,1.5,0.1c0.6-0.2,1.2-0.4,1.7-0.6c0.7-0.3,1.5-0.5,2.1-1.1c0.6-0.6,0.9-1.4,1.1-2.1c0.1-0.4,0.2-0.9,0.1-1.3
		c0-0.5-0.4-0.9-0.8-1.3c-0.7-0.6-1.4-1.2-2.3-1.6c-0.7-0.3-1.4-0.4-2.2-0.4C85.9,25.4,85.6,25.4,85.3,25.4L85.3,25.4z"/>
	
		<radialGradient id="path129-6_1_" cx="-201.4978" cy="237.1972" r="2.2186" gradientTransform="matrix(2.8346 0 0 -1.9173 656.3461 484.3941)" gradientUnits="userSpaceOnUse">
		<stop  offset="0" style="stop-color:#FFFF00"/>
		<stop  offset="1" style="stop-color:#FFFF00;stop-opacity:0"/>
	</radialGradient>
	<path id="path129-6" inkscape:connector-curvature="0" class="st2" d="M85.3,25.4c-0.8,0-1.7,0-2.5,0.3c-0.7,0.2-1.4,0.4-2.1,0.7
		c-0.4,0.1-0.7,0.4-0.9,0.8c-0.5,0.7-0.9,1.4-0.9,2.3c0,0.8,0.4,1.5,1,2c0.6,0.7,1.4,1.2,2.2,1.5c0.9,0.3,1.8,0.6,2.8,0.8
		c0.5,0.1,1,0.2,1.5,0.1c0.6-0.2,1.2-0.4,1.7-0.6c0.7-0.3,1.5-0.5,2.1-1.1c0.6-0.6,0.9-1.4,1.1-2.1c0.1-0.4,0.2-0.9,0.1-1.3
		c0-0.5-0.4-0.9-0.8-1.3c-0.7-0.6-1.4-1.2-2.3-1.6c-0.7-0.3-1.4-0.4-2.2-0.4C85.9,25.4,85.6,25.4,85.3,25.4z"/>
	<path id="path989" inkscape:connector-curvature="0" class="st3" d="M77,13.3c-2,0.4-4.1,1.3-5.2,3.1c-1.5,2.3-2.4,5-2.8,7.7
		c-0.2,2.4-0.1,4.9,0.6,7.2c0.3,1.7,0.4,3.4,0.1,5.1c-0.5,1.1-1.1,2.7-2.6,2.7c-2.8,0.4-5.2,2-7.5,3.5c-1.7,1.1-3.6,1.9-5.1,3.4
		c-2.9,2.7-6,5.2-8.8,8c-3.9,3.8-7.5,7.9-11.4,11.7c-1,0.9-2.4,2.1-3.9,1.6c-1.5-0.3-2.1-1.9-3-2.9c-1.6-2.3-3-4.8-5-6.8
		c-2.6-2.7-5.4-5.3-8.5-7.3c-2.2-1.1-4.4-2.4-6.7-3.2c-0.5-0.1-0.4,0.6-0.1,0.7c2.2,1.5,4.6,2.7,6.7,4.4c3.5,2.8,7.1,5.6,9.4,9.6
		c2.2,3.6,3.4,7.6,5.2,11.4c0.3,0.4,0,1-0.4,0.7c-1.3-1.3-2-3.1-3.1-4.6c-2.3-3.7-5.5-6.7-9-9.3c-1-1-2.2-1.7-3.6-2
		c-0.9-0.2-1.8-0.7-2.7-0.5c0.5,0.7,1.5,0.9,2.2,1.4c3,1.9,5.3,4.6,8.1,6.8c2.1,2,4.2,4.1,5.6,6.7c0.1,0.6-0.6,0.1-0.7-0.1
		c-1.5-1.9-2.9-3.8-4.9-5.1c-1.8-1.2-3.7-2.2-5.7-3.2c-1-0.1-2.1-0.2-3.1,0.1c0.5,0.6,1.4,0.7,2.1,1.1c3,1.1,5.6,3.2,7.8,5.5
		c1,1,2.1,1.9,3,3c-0.5,0.5-1.5-0.1-2.1-0.3c-1.2-0.6-2.6-1.2-4-0.9c-2.5,0.2-5,0.9-7.1,2.2c-0.2,0.4,0.7,0.2,0.9,0.3
		c2.6,0.2,5.2,0.2,7.7,1c2.4,0.7,4.7,1.5,7.1,2c0.2,0,1.1,0.3,0.7,0.6c-1.6,0.4-3.3,0.1-4.8,0.9c-2.3,0.6-4.8,0.1-7.1,0.9
		c-0.4,0.3,0.4,0.6,0.6,0.6c2.3,0.3,4.6,0.2,6.8-0.4c1.4-0.4,2.8-0.4,4.1-0.8c0.5,0.1-0.1,0.8-0.4,0.8c-2.8,1.4-5.9,2.4-8.7,3.6
		c0.3,0.6,1.2,0.5,1.8,0.6c2.5-0.3,4.7-1.5,7.1-2.1c0.4,0.2-0.3,0.6-0.4,0.8c-1.4,1.1-3.2,1.8-4.4,3.2c0.3,0.5,1.1,0.4,1.6,0.5
		c2,0.2,3.6-1.1,5-2.3c1.4-1.2,1.8-3,2.3-4.7c0.1-0.4,0.5-0.8,0.8-0.4c1.1,0.6,2.6,0.5,3.7,1.2c2.5,1.6,4.4,4,6.5,6
		c3.5,3.3,6.4,7.5,10.8,9.6c2.7,1.3,5.4,2.9,8.3,3.7c0.5,0,1.4,0.2,1.7-0.3c-0.9-2.5-2.4-4.7-3.7-7c-0.5-1-1.4-1.8-1.8-2.9
		c0.3-0.2,0.7,0.5,0.9,0.6c2.2,2.9,3.8,6.2,5.5,9.4c0,2,0.2,4.4-1.5,5.9c-1.2,1.1-2.6,2-4.2,2.2c-2,0.7-4,1.4-5.8,2.6
		c0,0.4,0.7,0.2,1,0.2c3.4-0.6,6.8-1.6,9.9-3c1.2-0.7,1.8-2.1,2.7-3.1c0.2,0.9-0.5,1.8-1,2.5c-1.2,1.3-2.9,2-4.6,2.6
		c-1.8,0.5-3.6,1.4-5.5,1.7c-0.4,0-0.8,0.4-0.3,0.6c1.6,1.1,3.7,0.6,5.5,0.2c1.9-0.6,3.4-2,5-3.2c1.2-0.9,2.2-2,3.1-3.2
		c0.4-0.1,0.2,0.7,0.1,0.9c-0.6,2.5-2,4.8-2.9,7.2c0.3,0.5,1.1,0,1.5-0.1c1.6-0.6,2.7-1.9,3.3-3.4c0.7-1.3,0.3-2.8,0.8-4.1
		c0.5,0.1,0.2,0.9,0.4,1.3c0.5,1.7,1.1,3.5,2.2,4.9c0.2,0.4,0.8,0.3,0.7-0.2c0-3.2-1.8-5.8-3-8.6c0-0.3,0.5,0.2,0.6,0.2
		c2.3,1.6,3.9,4.1,5.3,6.5c0.3,0.8,1.5,1.4,2.2,0.6c0-1.2-0.6-2.3-1-3.4c-1.3-3.1-3.9-5.4-6.5-7.4c-1.4-1.1-3.3-1.3-4.8-2.1
		c-0.2-1.8,0.2-3.8-0.9-5.5c-1-2.1-2.6-3.8-4.6-4.8c-0.5-0.2-0.2-0.8,0.3-0.6c1.8,0.8,3.1,2.3,4.3,3.8c1.2,1.8,1.8,3.9,1.6,6
		c-0.1,1,1.2,0.8,1.7,1.2c3,1,5.3,3.4,7.5,5.6c3.9,0.7,7.8,0.3,11.7,0c0.7,0.1,1.7-0.7,2.1,0.2c0.1,0.5-0.8,0.5-1.1,0.6
		c-1.5,0.3-3-0.1-4.4,0.4c0,0.5,0.6,0.9,0.9,1.4c0.8,1.2,1.9,2.2,3.2,2.7c1.1,0.7,2.5,0.2,3.8,0.3c2.4-0.1,4.7,0.1,7.1-0.1
		c4.4-1.1,8.8-2.3,12.6-4.9c2.8-3.4,4.9-7.3,6.6-11.3c0.1-1.4-0.4-2.8-1.3-3.8c-0.6-0.4-0.8,0.7-0.9,1.1c-0.7,1.1-2,1.6-3.2,1.9
		c-2,0.3-4-0.5-6-0.8c-4-0.7-7.9-1.9-11.6-3.4c-2.6-1.1-5.2-2.1-7.6-3.6c-3.6-2.1-7.3-4.1-10.3-7.1c-0.8-0.8-2-1.2-2.9-2
		c1.2-2,2.9-3.6,4.4-5.3c1.3-1.2,2.7-2.6,4.5-2.7c2.2-0.4,4.4-0.1,6.6-0.5c1.9-0.6,2.6-2.7,3.7-4.1c0.6-0.9,1.4-1.5,2.4-1.8
		c0.3-0.3-0.4-0.7-0.4-1c-2.1-2.8-4.4-5.5-6.8-8c-2.6-2.9-5.1-5.8-7.5-8.8c-2.3-3.2-5-6-7.2-9.2c-2.4-3.9-4.1-8.6-3.5-13.2
		c0.7-1.8,2.2-3.3,3.8-4.2c1.3-0.1,2.8-0.2,4,0.4c1.3,0.9,2.5,2.3,2.4,4c0.1,0.9-0.1,2.1,0.5,2.9c0.9,0.1,1.9-0.2,2.7-0.3
		c-1-2.8-0.2-6.1-1.8-8.6c-0.9-1.4-2.3-2.5-3.9-2.8C78.4,12.9,77.7,13.2,77,13.3L77,13.3z M73.3,43c2.5,0,5.2,0.9,6.9,2.9
		c0.8,1.5,2.1,2.9,2.1,4.7c0.1,1.8,0.2,3.7-0.9,5.2c-1.4,2.1-3.3,4.1-5.9,4.6c-1.8,0.5-3.7-0.1-5.5-0.6c-2.9-1.1-4.5-4.1-5.5-6.8
		c-0.5-1.4-0.1-2.9,0.7-4.1c0.4-1,0.5-2.3,1.4-3.1c1.3-1.6,3.2-2.7,5.3-2.7C72.4,43,72.8,43,73.3,43L73.3,43z"/>
	
		<radialGradient id="path989-7_1_" cx="-209.3352" cy="253.4417" r="19.7842" gradientTransform="matrix(2.8346 0 0 -2.5735 656.3461 715.9997)" gradientUnits="userSpaceOnUse">
		<stop  offset="0" style="stop-color:#AAEEFF"/>
		<stop  offset="1" style="stop-color:#AAEEFF;stop-opacity:0"/>
	</radialGradient>
	<path id="path989-7" inkscape:connector-curvature="0" class="st4" d="M77,13.3c-2,0.4-4.1,1.3-5.2,3.1c-1.5,2.3-2.4,5-2.8,7.7
		c-0.2,2.4-0.1,4.9,0.6,7.2c0.3,1.7,0.4,3.4,0.1,5.1c-0.5,1.1-1.1,2.7-2.6,2.7c-2.8,0.4-5.2,2-7.5,3.5c-1.7,1.1-3.6,1.9-5.1,3.4
		c-2.9,2.7-6,5.2-8.8,8c-3.9,3.8-7.5,7.9-11.4,11.7c-1,0.9-2.4,2.1-3.9,1.6c-1.5-0.3-2.1-1.9-3-2.9c-1.6-2.3-3-4.8-5-6.8
		c-2.6-2.7-5.4-5.3-8.5-7.3c-2.2-1.1-4.4-2.4-6.7-3.2c-0.5-0.1-0.4,0.6-0.1,0.7c2.2,1.5,4.6,2.7,6.7,4.4c3.5,2.8,7.1,5.6,9.4,9.6
		c2.2,3.6,3.4,7.6,5.2,11.4c0.3,0.4,0,1-0.4,0.7c-1.3-1.3-2-3.1-3.1-4.6c-2.3-3.7-5.5-6.7-9-9.3c-1-1-2.2-1.7-3.6-2
		c-0.9-0.2-1.8-0.7-2.7-0.5c0.5,0.7,1.5,0.9,2.2,1.4c3,1.9,5.3,4.6,8.1,6.8c2.1,2,4.2,4.1,5.6,6.7c0.1,0.6-0.6,0.1-0.7-0.1
		c-1.5-1.9-2.9-3.8-4.9-5.1c-1.8-1.2-3.7-2.2-5.7-3.2c-1-0.1-2.1-0.2-3.1,0.1c0.5,0.6,1.4,0.7,2.1,1.1c3,1.1,5.6,3.2,7.8,5.5
		c1,1,2.1,1.9,3,3c-0.5,0.5-1.5-0.1-2.1-0.3c-1.2-0.6-2.6-1.2-4-0.9c-2.5,0.2-5,0.9-7.1,2.2c-0.2,0.4,0.7,0.2,0.9,0.3
		c2.6,0.2,5.2,0.2,7.7,1c2.4,0.7,4.7,1.5,7.1,2c0.2,0,1.1,0.3,0.7,0.6c-1.6,0.4-3.3,0.1-4.8,0.9c-2.3,0.6-4.8,0.1-7.1,0.9
		c-0.4,0.3,0.4,0.6,0.6,0.6c2.3,0.3,4.6,0.2,6.8-0.4c1.4-0.4,2.8-0.4,4.1-0.8c0.5,0.1-0.1,0.8-0.4,0.8c-2.8,1.4-5.9,2.4-8.7,3.6
		c0.3,0.6,1.2,0.5,1.8,0.6c2.5-0.3,4.7-1.5,7.1-2.1c0.4,0.2-0.3,0.6-0.4,0.8c-1.4,1.1-3.2,1.8-4.4,3.2c0.3,0.5,1.1,0.4,1.6,0.5
		c2,0.2,3.6-1.1,5-2.3c1.4-1.2,1.8-3,2.3-4.7c0.1-0.4,0.5-0.8,0.8-0.4c1.1,0.6,2.6,0.5,3.7,1.2c2.5,1.6,4.4,4,6.5,6
		c3.5,3.3,6.4,7.5,10.8,9.6c2.7,1.3,5.4,2.9,8.3,3.7c0.5,0,1.4,0.2,1.7-0.3c-0.9-2.5-2.4-4.7-3.7-7c-0.5-1-1.4-1.8-1.8-2.9
		c0.3-0.2,0.7,0.5,0.9,0.6c2.2,2.9,3.8,6.2,5.5,9.4c0,2,0.2,4.4-1.5,5.9c-1.2,1.1-2.6,2-4.2,2.2c-2,0.7-4,1.4-5.8,2.6
		c0,0.4,0.7,0.2,1,0.2c3.4-0.6,6.8-1.6,9.9-3c1.2-0.7,1.8-2.1,2.7-3.1c0.2,0.9-0.5,1.8-1,2.5c-1.2,1.3-2.9,2-4.6,2.6
		c-1.8,0.5-3.6,1.4-5.5,1.7c-0.4,0-0.8,0.4-0.3,0.6c1.6,1.1,3.7,0.6,5.5,0.2c1.9-0.6,3.4-2,5-3.2c1.2-0.9,2.2-2,3.1-3.2
		c0.4-0.1,0.2,0.7,0.1,0.9c-0.6,2.5-2,4.8-2.9,7.2c0.3,0.5,1.1,0,1.5-0.1c1.6-0.6,2.7-1.9,3.3-3.4c0.7-1.3,0.3-2.8,0.8-4.1
		c0.5,0.1,0.2,0.9,0.4,1.3c0.5,1.7,1.1,3.5,2.2,4.9c0.2,0.4,0.8,0.3,0.7-0.2c0-3.2-1.8-5.8-3-8.6c0-0.3,0.5,0.2,0.6,0.2
		c2.3,1.6,3.9,4.1,5.3,6.5c0.3,0.8,1.5,1.4,2.2,0.6c0-1.2-0.6-2.3-1-3.4c-1.3-3.1-3.9-5.4-6.5-7.4c-1.4-1.1-3.3-1.3-4.8-2.1
		c-0.2-1.8,0.2-3.8-0.9-5.5c-1-2.1-2.6-3.8-4.6-4.8c-0.5-0.2-0.2-0.8,0.3-0.6c1.8,0.8,3.1,2.3,4.3,3.8c1.2,1.8,1.8,3.9,1.6,6
		c-0.1,1,1.2,0.8,1.7,1.2c3,1,5.3,3.4,7.5,5.6c3.9,0.7,7.8,0.3,11.7,0c0.7,0.1,1.7-0.7,2.1,0.2c0.1,0.5-0.8,0.5-1.1,0.6
		c-1.5,0.3-3-0.1-4.4,0.4c0,0.5,0.6,0.9,0.9,1.4c0.8,1.2,1.9,2.2,3.2,2.7c1.1,0.7,2.5,0.2,3.8,0.3c2.4-0.1,4.7,0.1,7.1-0.1
		c4.4-1.1,8.8-2.3,12.6-4.9c2.8-3.4,4.9-7.3,6.6-11.3c0.1-1.4-0.4-2.8-1.3-3.8c-0.6-0.4-0.8,0.7-0.9,1.1c-0.7,1.1-2,1.6-3.2,1.9
		c-2,0.3-4-0.5-6-0.8c-4-0.7-7.9-1.9-11.6-3.4c-2.6-1.1-5.2-2.1-7.6-3.6c-3.6-2.1-7.3-4.1-10.3-7.1c-0.8-0.8-2-1.2-2.9-2
		c1.2-2,2.9-3.6,4.4-5.3c1.3-1.2,2.7-2.6,4.5-2.7c2.2-0.4,4.4-0.1,6.6-0.5c1.9-0.6,2.6-2.7,3.7-4.1c0.6-0.9,1.4-1.5,2.4-1.8
		c0.3-0.3-0.4-0.7-0.4-1c-2.1-2.8-4.4-5.5-6.8-8c-2.6-2.9-5.1-5.8-7.5-8.8c-2.3-3.2-5-6-7.2-9.2c-2.4-3.9-4.1-8.6-3.5-13.2
		c0.7-1.8,2.2-3.3,3.8-4.2c1.3-0.1,2.8-0.2,4,0.4c1.3,0.9,2.5,2.3,2.4,4c0.1,0.9-0.1,2.1,0.5,2.9c0.9,0.1,1.9-0.2,2.7-0.3
		c-1-2.8-0.2-6.1-1.8-8.6c-0.9-1.4-2.3-2.5-3.9-2.8C78.4,12.9,77.7,13.2,77,13.3L77,13.3z M73.3,43c2.5,0,5.2,0.9,6.9,2.9
		c0.8,1.5,2.1,2.9,2.1,4.7c0.1,1.8,0.2,3.7-0.9,5.2c-1.4,2.1-3.3,4.1-5.9,4.6c-1.8,0.5-3.7-0.1-5.5-0.6c-2.9-1.1-4.5-4.1-5.5-6.8
		c-0.5-1.4-0.1-2.9,0.7-4.1c0.4-1,0.5-2.3,1.4-3.1c1.3-1.6,3.2-2.7,5.3-2.7C72.4,43,72.8,43,73.3,43L73.3,43z"/>
	<path id="path94" inkscape:connector-curvature="0" class="st5" d="M65.2,113.9C65.2,113.9,65.2,113.9,65.2,113.9
		C65.1,113.9,65.1,113.9,65.2,113.9c-0.1,0-0.1,0-0.1,0.1c0,0,0,0.1-0.1,0.1c0,0.1,0,0.1,0,0.2c0,0,0,0.1,0,0.1c0,0,0,0,0,0
		c0,0,0,0,0,0c0,0,0,0,0,0C65.1,114.2,65.1,114.1,65.2,113.9C65.2,113.9,65.2,113.9,65.2,113.9C65.2,113.9,65.2,113.9,65.2,113.9
		L65.2,113.9z"/>
	<path id="path96" inkscape:connector-curvature="0" class="st5" d="M92.2,110c-0.2,0-0.3,0-0.5,0c0,0,0,0,0,0c0,0,0,0,0,0
		C91.9,110,92,110,92.2,110c0.1,0,0.3,0.1,0.4,0c0,0,0,0,0,0c0,0,0,0,0,0c0,0,0,0,0,0C92.5,110,92.4,110,92.2,110L92.2,110z"/>
	<path id="path98" inkscape:connector-curvature="0" class="st5" d="M115.3,101C115.3,101,115.3,101,115.3,101
		c-0.1,0.1-0.1,0.2-0.2,0.3c-0.1,0.1-0.1,0.2-0.2,0.3c0,0,0,0,0,0c0,0,0,0,0,0c0,0,0,0,0,0c0.1-0.1,0.1-0.2,0.2-0.3
		C115.2,101.2,115.3,101.1,115.3,101C115.4,101,115.4,101,115.3,101C115.4,101,115.3,101,115.3,101z"/>
	<path id="path100" inkscape:connector-curvature="0" class="st5" d="M51.8,111c0,0-0.1,0.1-0.1,0.1c0,0,0,0.1,0.1,0.1
		c0,0,0.1,0,0.1,0c0,0,0,0,0,0C51.9,111.1,51.9,111.1,51.8,111C51.9,111,51.9,111,51.8,111C51.8,111,51.8,111,51.8,111L51.8,111z"/>
	<path id="path108" inkscape:connector-curvature="0" class="st6" d="M12,63.9c-0.2,0-0.4,0-0.6,0c-0.1,0-0.2,0-0.3,0.1
		c0,0-0.1,0.1-0.1,0.1c0,0,0,0.1,0,0.1c0,0,0.1,0.1,0.1,0.1c0.1,0,0.1,0.1,0.2,0.1c0,0,0,0,0,0c-0.1-0.1-0.1-0.1-0.2-0.2
		c0,0,0,0,0,0c0.4-0.1,0.9-0.2,1.4-0.2c0.2,0,0.3,0,0.5,0c0,0,0,0,0,0c0,0,0,0,0,0C12.6,63.9,12.3,63.9,12,63.9L12,63.9z"/>
	<path id="path110" inkscape:connector-curvature="0" class="st7" d="M13.9,58.6C13.9,58.6,13.8,58.6,13.9,58.6
		C13.9,58.6,13.9,58.6,13.9,58.6c0.1,0.1,0.3,0.2,0.4,0.2c0,0,0,0,0,0c0,0,0,0,0,0c0,0,0,0,0,0c0,0,0,0-0.1-0.1c0,0,0,0,0,0
		c0,0,0,0-0.1-0.1C14.1,58.6,14,58.6,13.9,58.6C13.9,58.6,13.9,58.6,13.9,58.6C13.9,58.6,13.9,58.6,13.9,58.6L13.9,58.6z"/>
	<path id="path116" inkscape:connector-curvature="0" class="st8" d="M9.5,57.6c0,0-0.1,0-0.1,0c0,0,0,0,0,0c0,0,0,0,0,0
		c0.1,0,0.2,0.1,0.2,0.1c0,0,0,0,0,0c0,0,0,0,0,0c0,0,0,0,0,0C9.6,57.7,9.6,57.6,9.5,57.6C9.5,57.6,9.5,57.6,9.5,57.6L9.5,57.6z"/>
	<path id="path118" inkscape:connector-curvature="0" class="st8" d="M17.9,84.2c0,0-0.1,0-0.1,0c0,0-0.1,0-0.1,0c0,0,0,0,0,0.1
		c0,0,0,0,0,0c0,0,0,0,0,0C17.7,84.2,17.8,84.2,17.9,84.2C17.9,84.2,17.9,84.2,17.9,84.2C17.9,84.2,17.9,84.2,17.9,84.2L17.9,84.2z"
		/>
	<path id="path120" inkscape:connector-curvature="0" class="st8" d="M20.2,84.7c-0.1,0-0.1,0-0.2,0c-0.2,0-0.4,0.1-0.6,0.1
		c0,0,0,0-0.1,0c0,0,0,0,0,0c0,0,0,0,0,0c0.2,0,0.3,0,0.5-0.1C20,84.8,20.1,84.8,20.2,84.7C20.2,84.7,20.2,84.7,20.2,84.7
		C20.2,84.7,20.2,84.7,20.2,84.7L20.2,84.7z"/>
	<path id="path122" inkscape:connector-curvature="0" class="st9" d="M19.1,84.8C19.1,84.8,19.1,84.8,19.1,84.8
		C19.1,84.9,19.1,84.9,19.1,84.8c0.1,0,0.1,0,0.2,0c0,0,0,0,0.1,0c0,0,0,0,0,0c0,0,0,0,0,0C19.3,84.8,19.2,84.8,19.1,84.8
		C19.1,84.8,19.1,84.8,19.1,84.8L19.1,84.8z"/>
	<path id="path124" inkscape:connector-curvature="0" class="st9" d="M82.2,24.6C82.2,24.6,82.2,24.6,82.2,24.6
		C82.2,24.6,82.2,24.6,82.2,24.6c0,0,0.1,0,0.1,0c0,0,0.1,0,0.1,0c0,0,0,0,0,0c0,0,0,0,0,0C82.4,24.6,82.3,24.6,82.2,24.6
		C82.3,24.6,82.2,24.6,82.2,24.6L82.2,24.6L82.2,24.6z"/>
	<path id="path126" inkscape:connector-curvature="0" class="st10" d="M72.1,46c-0.5,0-1.1,0-1.6,0.3c-0.4,0.2-0.9,0.4-1.3,0.8
		c-0.4,0.3-0.6,0.7-0.7,1.1c-0.3,0.8-0.4,1.7-0.4,2.6c0,1,0,2.1,0.4,3.1c0.2,0.6,0.7,1.2,1.3,1.5c0.3,0.2,0.7,0.2,1,0.2
		c0.3,0,0.5,0,0.8,0.1c0.4-0.1,0.9-0.2,1.3-0.3c0.6-0.1,1.3-0.1,1.9-0.3c1-0.3,1.9-0.8,2.8-1.4c0.6-0.4,1.2-1,1.5-1.6
		c0.1-0.3,0.3-0.6,0.3-0.9c0-0.6-0.2-1.1-0.5-1.7c-0.3-0.7-0.8-1.4-1.3-1.9c-0.2-0.1-0.4-0.3-0.6-0.3c-0.2-0.1-0.4-0.2-0.6-0.3
		c-0.4-0.2-0.7-0.5-1.1-0.7C74.6,46,74,46,73.4,46C73,46,72.5,46,72.1,46L72.1,46z M73.8,47.5c0.3,0,0.7,0,1,0.1
		c0.4,0.2,0.7,0.5,1.1,0.8c0.4,0.4,0.8,0.7,1,1.2c0.3,0.6,0.3,1.3,0.3,2c0,0.4-0.2,0.8-0.5,1.2c-0.3,0.4-0.6,0.7-1,0.8
		c-0.6,0.2-1.1,0.4-1.7,0.5c-0.6,0.1-1.2,0.2-1.8,0.2c-0.4,0-0.7-0.2-1-0.5c-0.5-0.5-1-1-1.4-1.6c-0.1-0.2-0.3-0.5-0.3-0.8
		c0-0.1,0-0.3,0.1-0.4c0.2-0.6,0.6-1.1,0.9-1.6c0.2-0.3,0.4-0.6,0.7-0.9c0.3-0.3,0.8-0.5,1.2-0.7C72.7,47.7,73.3,47.5,73.8,47.5
		L73.8,47.5z"/>
	<path id="path128" inkscape:connector-curvature="0" class="st11" d="M73.2,43.6c-1.2,0.1-2.5,0.3-3.7,0.7c-0.8,0.4-1.4,1.1-2,1.7
		c-0.5,0.4-0.7,1-1,1.6c-0.5,1.1-1.1,2.2-1.5,3.4c-0.2,1.3,0.2,2.5,0.7,3.6c0.7,1.6,1.9,3,3.3,3.9c1.2,0.8,2.6,1,4,1.2
		c0.3,0.1,0.7,0.2,1.1,0.1c2.6-0.3,5-2,6.4-4.3c0.8-1.4,1.2-2.9,1.1-4.5c-0.1-1.9-1.2-3.6-2.4-5c-0.7-0.9-1.6-1.5-2.7-1.8
		c-1.1-0.3-2.1-0.6-3.2-0.6C73.3,43.6,73.3,43.6,73.2,43.6L73.2,43.6z M71.9,45.1c1,0,2,0.1,3,0.3c0.6,0.2,1,0.6,1.5,0.8
		c0.7,0.4,1.7,0.6,2.1,1.3c0.7,1.1,1.4,2.2,1.6,3.5c0.1,0.8-0.5,1.6-0.9,2.2c-0.9,1.2-2.3,1.9-3.7,2.4c-1.3,0.4-2.6,0.7-3.9,0.7
		c-0.9,0-1.7-0.2-2.5-0.5c-1-0.5-1.5-1.7-1.7-2.8c-0.2-1.1-0.2-2.3-0.1-3.5c0.1-0.9,0.3-1.8,0.7-2.6c0.7-0.9,1.8-1.4,2.9-1.8
		C71.3,45.2,71.6,45.1,71.9,45.1z"/>
	<path id="path130" inkscape:connector-curvature="0" class="st12" d="M43,48.1c-0.1,0-0.2,0.1-0.1,0.2c0.4,0.5,1,0.6,1.6,0.8
		c0.5,0.1,1,0.3,1.4,0.5c0.4,0.2,1,0.1,1.4,0.4c0.2,0.1,0.2,0.4,0.1,0.6c-0.3,0.3-0.7,0.3-1.1,0.5c-1.3,0.3-2.7,0.5-4,0.6
		c-0.1,0-0.3,0-0.2,0.2c0.2,0.3,0.6,0.4,0.9,0.5c0.8,0.1,1.7,0,2.5-0.3c0.4-0.1,0.8-0.2,1.2-0.3c0.5-0.2,0.9-0.6,1.3-0.9
		c0.6-0.5,1.2-1,1.7-1.6c0-0.1,0.2-0.2,0.1-0.3c-0.2-0.1-0.5,0-0.8-0.1c-1.1,0-2.2,0-3.2-0.1C44.9,48.6,44,48.2,43,48.1
		C43.1,48.1,43,48.1,43,48.1L43,48.1z"/>
	<path id="path132" inkscape:connector-curvature="0" class="st12" d="M44.9,53.2c-0.7,0-1.3,0.3-1.9,0.4c-0.5,0.1-0.9,0.1-1.4,0.1
		c-0.1,0-0.1,0.1,0,0.2c0.2,0.2,0.6,0.3,0.9,0.4c0.5,0.2,1.1,0.2,1.6-0.1c0.4-0.2,0.8-0.5,1.1-0.8C45.1,53.3,45.1,53.2,44.9,53.2
		C44.9,53.2,44.9,53.2,44.9,53.2L44.9,53.2z"/>
	<path id="path134" inkscape:connector-curvature="0" class="st13" d="M79.4,72.2c-0.3,0-0.5,0.3-0.4,0.6c0.1,0.2,0.3,0.2,0.4,0.1
		c0.1,0,0.3-0.1,0.3-0.3c0-0.2,0-0.4-0.2-0.4C79.5,72.2,79.4,72.2,79.4,72.2L79.4,72.2z"/>
	<path id="path136" inkscape:connector-curvature="0" class="st13" d="M81.8,70c-0.3,0-0.4,0.3-0.6,0.5c-0.1,0.3,0,0.6,0.1,0.8
		c0.1,0.3,0.2,0.5,0.4,0.8c0.1,0,0-0.1,0.1-0.2c0.1-0.5,0.2-1.1,0.3-1.6C82.1,70.2,82,70,81.8,70z"/>
	<path id="path138" inkscape:connector-curvature="0" class="st13" d="M84.3,68.8c-0.3,0-0.6,0-0.8,0.1c-0.1,0-0.2,0.1-0.1,0.2
		c0.3,0.8,0.5,1.7,0.7,2.5c0.1,0,0-0.1,0.1-0.1c0.1-0.8,0.2-1.6,0.4-2.4c0-0.1,0.1-0.3-0.1-0.3C84.4,68.8,84.4,68.8,84.3,68.8z"/>
	<path id="path140" inkscape:connector-curvature="0" class="st13" d="M86.2,68.8c-0.2,0-0.4,0-0.5,0.1c-0.1,0.1,0,0.2,0.1,0.3
		c0.2,0.4,0.3,0.8,0.5,1.2c0.2,0.5,0.3,1.1,0.5,1.6c0,0.1,0.1,0.1,0.1,0c0.1-0.3,0.1-0.7,0.2-1c0.1-0.6,0.1-1.2,0.4-1.7
		c0-0.1,0.1-0.3-0.1-0.3c-0.3-0.1-0.6-0.1-0.8-0.1C86.4,68.8,86.3,68.8,86.2,68.8L86.2,68.8z"/>
	<path id="path142" inkscape:connector-curvature="0" class="st13" d="M88.5,68.6c-0.1,0-0.2,0-0.2,0.2c0.1,0.2,0.3,0.4,0.4,0.6
		c0.4,0.8,0.6,1.7,0.9,2.5c0,0.1,0.1,0.2,0.1,0.1c0.1-0.2,0.1-0.4,0.1-0.6c0.1-0.7,0.1-1.4,0.1-2c0-0.2-0.1-0.5-0.3-0.6
		C89.3,68.7,88.9,68.6,88.5,68.6L88.5,68.6z"/>
	<path id="path144" inkscape:connector-curvature="0" class="st13" d="M93.2,67.2c-0.4,0.3-0.8,0.7-1.3,0.9
		c-0.2,0.1-0.5,0.1-0.6,0.2c-0.1,0.2,0,0.5,0,0.7c0.1,0.6,0.3,1.2,0.6,1.8c0.1,0.1,0.1,0.2,0.2,0.3c0.1-0.1,0.2-0.2,0.2-0.3
		c0.3-0.8,0.4-1.6,0.6-2.4C93,68,93.1,67.6,93.2,67.2C93.2,67.2,93.2,67.2,93.2,67.2L93.2,67.2z"/>
	<path id="path146" inkscape:connector-curvature="0" class="st13" d="M96.7,62.8c-0.3,0.1-0.6,0.2-0.9,0.3
		c-0.1,0.1-0.2,0.2-0.3,0.3c-0.3,0.5-0.7,0.9-1,1.4c-0.3,0.4-0.5,0.9-0.7,1.3c0.3,0.3,0.6,0.6,0.8,1c0.6,1,0.8,2.2,1.4,3.3
		c0.1,0.1,0.1,0.3,0.3,0.3c0.1,0,0.1-0.1,0.1-0.2c0.1-0.9,0.1-1.8,0.2-2.6c0.1-1.6,0.1-3.2,0.1-4.8C96.8,62.9,96.8,62.8,96.7,62.8
		L96.7,62.8L96.7,62.8z"/>
	<path id="path148" inkscape:connector-curvature="0" class="st13" d="M79.3,77.1c-0.1,0-0.2,0.1-0.2,0.2c0,0.3,0.1,0.5,0.2,0.7
		c0.1,0.2,0.3,0.5,0.6,0.7c0.1,0,0.2,0.1,0.3,0.1c0.1-0.1,0-0.2,0-0.3c-0.1-0.3-0.2-0.6-0.4-0.9C79.6,77.4,79.5,77.2,79.3,77.1
		C79.3,77.1,79.3,77.1,79.3,77.1L79.3,77.1z"/>
	<path id="path150" inkscape:connector-curvature="0" class="st13" d="M88.9,76.8c-0.2,0.1-0.2,0.3-0.3,0.5
		c-0.4,1.2-0.5,2.5-1.1,3.6c-0.2,0.3-0.3,0.7-0.7,0.9c-0.1,0.1-0.2,0-0.3-0.1c-0.6-0.9-1-1.8-1.5-2.7c-0.3-0.5-0.5-1-0.9-1.5
		c-0.1-0.1-0.3-0.2-0.4-0.1c-0.3,0.3-0.4,0.7-0.6,1.1c-0.2,0.7-0.4,1.4-0.4,2.1c0,0.3,0.4,0.4,0.6,0.6c0.9,0.6,1.9,1.1,2.8,1.7
		c0.3,0.2,0.6,0.5,0.9,0.6c1.4,0.9,2.9,1.6,4.3,2.4c0.4,0.2,0.8,0.4,1.3,0.5c0.9,0.3,1.8,0.8,2.7,1.1c2,0.8,4.1,1.5,6.1,2.3
		c1.3,0.5,2.6,0.6,3.9,0.9c2.1,0.4,4.1,0.8,6.2,1.1c0.6,0.1,1.3,0.2,2,0.1c0.6-0.2,1.2-0.5,1.7-0.8c0.5-0.3,0.9-0.8,1-1.4
		c0-0.2,0-0.5-0.2-0.6c-0.5-0.5-0.7-1.1-1-1.7c-0.4-1-0.6-2-0.7-3c-0.1-0.7-0.4-1.4-0.4-2.1c0-1-0.3-2.1-0.7-3
		c-0.1-0.1-0.1-0.3-0.2-0.3c-0.1,0.1-0.2,0.3-0.2,0.4c-0.4,1.6-0.6,3.3-0.9,5c-0.1,0.5-0.2,1-0.5,1.4c-0.1,0.1-0.3,0.2-0.4,0.1
		c-0.4-0.3-0.5-0.8-0.7-1.2c-0.3-0.7-0.5-1.5-0.6-2.2c-0.3-1.1-0.6-2.2-0.9-3.2c-0.1-0.1-0.1-0.4-0.3-0.4c-0.2,0-0.2,0.2-0.2,0.4
		c-0.2,1-0.2,2-0.2,3c-0.1,1.1-0.1,2.2-0.3,3.3c-0.1,0.3-0.2,0.7-0.5,0.8c-0.3,0.1-0.4-0.2-0.6-0.4c-0.3-0.5-0.5-1.1-0.7-1.7
		c-0.4-1-0.6-1.9-0.9-2.9c-0.3-1-0.6-1.9-1.1-2.9c0-0.1-0.1-0.3-0.2-0.2c-0.2,0.3-0.2,0.6-0.3,0.9c-0.3,1.4-0.5,2.8-0.8,4.2
		c-0.2,0.8-0.3,1.6-0.6,2.4c0,0.1-0.1,0.2-0.2,0.1c-0.3-0.1-0.5-0.4-0.7-0.7c-0.2-0.4-0.3-0.8-0.5-1.2c-0.3-0.5-0.6-1.1-0.7-1.7
		c-0.1-0.5-0.4-0.9-0.5-1.4c-0.2-0.5-0.3-1-0.5-1.5c0-0.1-0.2-0.1-0.2,0c-0.2,0.4-0.2,0.8-0.3,1.2c-0.1,1.2-0.5,2.3-0.9,3.4
		c-0.1,0.3-0.2,0.7-0.5,0.9c-0.2,0.2-0.6,0-0.7-0.2c-0.3-0.6-0.5-1.3-0.8-2c-0.5-1.3-1.1-2.5-1.7-3.8c-0.2-0.4-0.2-0.7-0.4-1.1
		c0-0.1-0.1-0.2-0.2-0.1c-0.1,0.8-0.1,1.6-0.2,2.4c-0.1,1-0.1,2.1-0.2,3.1c0,0.2-0.1,0.5-0.3,0.5c-0.3,0-0.6-0.3-0.7-0.5
		c-0.5-0.7-0.9-1.5-1.2-2.3c-0.5-1.1-0.9-2.2-1.3-3.4C89.2,77.3,89.2,77,88.9,76.8C88.9,76.8,88.9,76.8,88.9,76.8L88.9,76.8z"/>
	<path id="path152" inkscape:connector-curvature="0" class="st14" d="M67.3,98C67.3,98,67.3,98,67.3,98c0,0.1,0,0.1,0,0.2
		c0,0,0,0,0.1,0c0,0,0,0,0,0c0,0,0,0,0,0C67.4,98.1,67.4,98,67.3,98C67.4,98,67.3,98,67.3,98L67.3,98z"/>
	<path id="path154" inkscape:connector-curvature="0" class="st14" d="M62.4,100.1C62.4,100.2,62.4,100.2,62.4,100.1
		c-0.1,0.1-0.1,0.1-0.1,0.1c0,0,0,0,0,0c0,0,0,0,0,0C62.4,100.2,62.4,100.2,62.4,100.1C62.5,100.2,62.5,100.2,62.4,100.1
		C62.5,100.2,62.5,100.2,62.4,100.1C62.4,100.1,62.4,100.1,62.4,100.1L62.4,100.1z"/>
	<path id="path156" inkscape:connector-curvature="0" class="st15" d="M64.2,109.9C64.1,109.9,64.1,109.9,64.2,109.9
		c-0.4,0.3-0.7,0.5-1,0.8c0,0,0,0,0,0c0,0,0,0,0,0c0.2-0.1,0.4-0.3,0.6-0.4C63.9,110.1,64,110,64.2,109.9
		C64.2,109.9,64.2,109.9,64.2,109.9z"/>
</g>
<g id="layer1" transform="translate(-0.34291322,-2.4549991)" inkscape:groupmode="layer" inkscape:label="Layer 1">
	<path id="path21" inkscape:connector-curvature="0" d="M64.4,117.6c-0.5-0.5-0.5-0.4,0.1-1.3c0.7-1.1,2.3-4.5,2.2-4.5
		c0,0-0.4,0.2-0.7,0.5c-0.4,0.3-0.8,0.7-1.1,0.9c-0.2,0.2-0.8,0.6-1.3,0.9c-0.5,0.3-1.3,0.8-1.8,1.1c-0.5,0.3-1.2,0.6-1.7,0.7
		c-0.5,0.1-1.3,0.2-1.9,0.4c-1.3,0.3-1.9,0.3-2.6,0.1c-0.3-0.1-0.6-0.2-0.8-0.3c-1.2-0.2-1.8-0.6-2-0.9c-0.1-0.4-0.3-0.4-1.3-0.4
		c-1.6,0-2.3-0.2-2.3-0.5c0-0.4,0.9-1.1,1.8-1.4c0.3-0.1,0.7-0.3,0.8-0.4c0.4-0.3,2-1.1,2.9-1.3c0.5-0.2,1.1-0.4,1.3-0.6
		c0.2-0.1,1-0.4,1.8-0.5c1.2-0.2,2.5-0.8,2.8-1.2c0-0.1,0.3-0.3,0.6-0.4c0.3-0.2,0.6-0.5,0.8-0.7c0.7-1.3,0.8-1.8,0.8-2.7l0-1.1
		l-1,0c-1.4,0-2-0.2-4.2-1.3c-1.1-0.5-2-0.9-2.1-0.9c-0.1,0-1-0.5-2-1.1c-1-0.6-2.2-1.2-2.6-1.4c-1.3-0.5-4.4-3.3-6.8-6.1
		c-1.2-1.4-7.3-7.6-8.2-8.2c-0.4-0.3-1-0.7-1.4-0.9c-0.6-0.3-2.7-0.7-2.9-0.5c-0.1,0-0.2,0.4-0.2,0.7c-0.2,1-1.3,3.2-1.9,3.7
		c-1.1,1.1-3.6,2.5-4.7,2.7c-1.7,0.3-3.6-0.3-3.9-1.2c-0.1-0.6,0.1-0.9,1.1-1.4c1-0.5,0.7-0.6-0.5-0.2c-1.3,0.5-2.4,0.5-3.7,0
		c-0.5-0.2-1.2-0.4-1.5-0.5c-0.3-0.1-0.5-0.2-0.6-0.5c-0.1-0.4,0-0.5,0.6-0.6c0.4-0.1,1.1-0.3,1.6-0.4c0.9-0.2,3.7-1.2,3.9-1.4
		c0,0-1.3-0.1-3,0c-2.9,0-3.1,0-4.2-0.4c-1.4-0.6-1.6-1.1-0.4-1.5c1.4-0.5,3.4-0.8,5.3-0.8c1.6,0,2-0.1,2.8-0.5
		c0.9-0.4,1.1-0.8,0.4-0.8c-0.2,0-0.4-0.1-0.5-0.2c-0.3-0.2-1.9-0.7-2.4-0.7c-0.3,0-1.1-0.2-1.8-0.5c-1.2-0.4-1.7-0.5-3.7-0.5
		c-3.2,0-4.4-0.2-4.5-0.7c-0.2-0.8,0.7-1.4,3.7-2.6c1.6-0.6,2.1-0.7,4.8-0.9c1.3-0.1,1.8-0.1,2.2,0.2c0.3,0.2,0.7,0.3,0.8,0.3
		c0.3,0-1.1-1.6-2.5-2.8c-0.8-0.6-1.5-1.3-1.7-1.5c-0.6-0.6-2.3-1.5-3.4-1.8c-0.5-0.2-1.4-0.5-1.9-0.7c-0.5-0.2-1.3-0.6-1.8-0.7
		c-1.4-0.5-1.1-1,0.8-1.4c1.3-0.3,3.3-0.2,4,0.2c0.7,0.4,2,1.1,2.5,1.3c0.4,0.1,0.4,0.1-0.3-0.6c-2.6-2.8-4.4-4.2-6.5-5.3
		c-3.2-1.6-3.5-1.8-3.5-2.3c0-0.4,0-0.4,1-0.3c0.5,0.1,1.3,0.2,1.8,0.2c0.5,0,1.3,0.3,1.9,0.5c0.6,0.2,1.5,0.5,2,0.6
		c0.7,0.2,1.3,0.5,2.2,1.3c0.7,0.6,1.7,1.4,2.3,1.7c1.4,0.9,5.3,4.9,6.1,6.3c0.4,0.7,1,1.5,1.3,1.8l0.6,0.6l-0.1-0.5
		c-0.1-0.3-0.2-0.8-0.4-1.1c-0.1-0.3-0.4-0.8-0.5-1.2c-0.4-0.9-2.2-4.6-2.7-5.3c-1.1-1.6-3.2-4-4.2-4.8c-0.6-0.5-1.9-1.6-2.9-2.5
		c-2.1-2-3.3-2.8-6-4.2c-2.4-1.2-4-2.6-4.1-3.4c0-0.5,0-0.5,1.2-0.4c0.9,0.1,1.5,0.2,2.3,0.6c0.6,0.3,1.1,0.6,1.1,0.7
		c0,0.1,0.1,0.1,0.3,0.1c0.2,0,0.4,0.1,0.6,0.2c0.2,0.1,1,0.5,1.8,0.8c1.4,0.7,3.1,1.6,3.5,2c0.1,0.1,0.5,0.5,0.9,0.8
		c0.4,0.3,1,0.8,1.3,1c0.3,0.2,0.8,0.7,1.2,0.9c0.8,0.6,1.5,1.2,3.3,3.2c3,3.4,3.5,4,4.1,5c1.3,2.4,3.3,4.7,4.3,5
		c1.2,0.3,2.6-0.6,4.7-3c0.6-0.7,1.7-1.8,2.4-2.6c0.7-0.7,2.2-2.3,3.4-3.4c1.7-1.7,2-2.1,1.7-2.2c-0.2-0.1-0.8-0.3-1.3-0.4
		c-1.7-0.5-2.6-1.4-2.2-2c0.2-0.2,0.5-0.2,1.4-0.2l1.2,0.1l-1.2-0.8c-0.6-0.5-1.2-0.8-1.3-0.8s-0.1-0.2-0.1-0.5c0-0.6,0-0.6,1.2-0.3
		c1.1,0.3,2.4,0.3,3.6,0l0.9-0.2L45,52.3c-0.3-0.1-0.6-0.2-0.8-0.2c-0.8,0-3.3-2.4-3.3-3.2c0-0.5,0.2-0.5,0.9-0.1
		c0.5,0.4,2,0.9,4.1,1.4c1,0.2,1.6,0.3,3.1,0.2c2.7-0.2,3-0.3,4.6-1.8c1.4-1.4,3.1-2.6,4.7-3.5c0.5-0.2,1.2-0.7,1.6-1
		c0.8-0.7,3.2-2.1,3.5-2.1c0.1,0,0.7-0.2,1.2-0.5c0.5-0.3,1.6-0.6,2.4-0.7c1.4-0.2,1.5-0.3,2.1-1.4c0.5-1,0.6-3.2,0.2-4.9
		c-0.6-2.4-1-4.9-1-5.8c0-1.6,0.6-4.5,1.3-6.5c0.8-2.2,1.4-3.3,2.4-4.6c1.4-1.7,2.4-2.1,5.8-2.9c1.5-0.3,1.7-0.3,2.4-0.1
		c1.9,0.6,3.3,1.9,4.2,3.7c0.6,1.1,0.7,1.9,1,4.8c0.1,1.2,0.2,2.3,0.3,2.5c0.1,0.4,1.3,1.2,2.1,1.3c1.9,0.4,4.3,2.2,4.8,3.6
		c0.4,1,0.3,1.8-0.4,3.1c-0.8,1.6-1.4,2.2-2.6,2.6c-0.6,0.2-1.2,0.4-1.4,0.5c-1,0.6-1.8,0.7-3.5,0.2c-0.9-0.3-1.8-0.5-2-0.5
		c-0.7,0-1.9-0.7-3-1.8c-1.1-1-1.3-1.5-1.5-3c-0.1-0.9-0.1-1,0.8-2.2c0.6-0.8,1.1-1.4,1.6-1.6c0.4-0.2,0.8-0.4,0.8-0.4
		c0,0,0-0.4-0.2-0.8c-0.1-0.4-0.2-1.4-0.2-2.2c0-1.3,0-1.6-0.5-2.2c-0.7-1.1-1.2-1.4-2.5-1.7c-1.7-0.3-2.8,0.1-4.4,1.6
		c-1.3,1.3-1.7,4.1-1,7.1c0.9,3.9,2.2,6.8,3.8,8.5c0.2,0.3,0.8,1,1.2,1.5c0.4,0.6,1.2,1.5,1.7,2.1c0.5,0.5,1.4,1.6,2,2.4
		c1.6,2.1,4,5,5.2,6.4c0.6,0.7,1.4,1.5,1.7,1.9c0.5,0.7,2.1,2.5,4.3,4.6c0.7,0.7,1.7,1.8,2.1,2.4c0.5,0.6,1.3,1.6,1.8,2.3
		c2.1,2.6,2.7,3.6,2.7,4c0,0.3-0.2,0.4-0.6,0.4l-0.5,0l-0.1,2c-0.1,1.1-0.1,3.4-0.1,5.2c0,1.8,0,3.3-0.1,3.3c-0.2,0.2-0.8-0.4-1-1
		c-0.1-0.3-0.4-0.9-0.7-1.4c-0.3-0.5-0.8-1.6-1.1-2.3c-0.3-0.8-0.6-1.3-0.7-1.2c-0.1,0.1-0.3,0.7-0.4,1.5c-0.1,0.7-0.4,1.7-0.7,2.2
		c-0.2,0.5-0.5,1.1-0.6,1.4c-0.2,1-0.9,0.5-1.1-0.7c-0.1-0.9-0.5-1.2-0.5-0.5c0,1-0.4,2.1-0.7,2.1c-0.4,0-1-0.9-1.4-2
		c-0.5-1.6-0.6-1.6-0.9,0.7c-0.1,0.4-0.3,0.9-0.5,1.1c-0.4,0.4-0.4,0.4-0.7,0.2c-0.1-0.1-0.5-0.8-0.7-1.5c-0.2-0.7-0.5-1.3-0.5-1.3
		c0,0-0.1,0.4-0.2,0.9c-0.2,1.4-0.3,1.6-0.7,1.6c-0.6,0-1.1-0.6-1.3-1.4c-0.2-0.8-0.4-0.9-0.4-0.2c0,0.7-0.5,1.9-0.8,1.9
		c-0.4,0-0.6-0.3-0.7-0.8c-0.1-0.3-0.2-0.6-0.4-0.7c-0.3-0.2-0.3-0.2-0.5,0.8c-0.2,0.7-0.9,1-1.6,0.6c-0.5-0.3-0.5-0.3-0.9,0.3
		c-0.2,0.3-0.6,0.8-0.9,1.2c-0.6,0.7-0.6,0.8,0.5,1.3l0.7,0.4l0.3-0.5c0.2-0.2,0.4-0.5,0.5-0.5c0.4,0,1.5,0.6,1.6,0.9
		c0.1,0.2,0.3,0.9,0.6,1.6c0.5,1.3,0.8,1.8,0.8,1.3c0-0.2,0.2-0.9,0.4-1.5c0.4-1.2,1-2,1.5-2c0.6,0,1.3,0.9,2.1,2.5
		c0.4,0.9,0.9,1.7,0.9,1.7c0.2,0,0.5-0.9,0.8-2.4c0.4-1.8,0.6-2.4,1-2.6c0.4-0.1,1.3,0.6,1.6,1.4c1.5,3.9,1.9,5,2,5.2
		c0.1,0.1,0.2-1.1,0.2-2.5c0.1-1.5,0.2-2.8,0.2-3c0.4-0.9,1.4,0.2,2.2,2.3c0.3,0.9,0.9,2.3,1.3,3l0.7,1.4l0.3-1
		c0.1-0.5,0.5-1.9,0.8-3.1c0.5-1.9,0.5-2.1,0.9-2.1c0.4,0,0.4,0,1.5,3.7c0.1,0.3,0.3,0.9,0.4,1.3c0.2,0.9,0.8,2,1,1.7
		c0.2-0.3,0.7-2.4,0.9-3.9c0.3-2,0.7-3,1.2-3.1c0.3-0.1,0.5,0.1,0.7,0.3c0.4,0.6,1.5,3.7,1.6,4.6c0.1,0.4,0.2,1,0.4,1.4
		c0.1,0.4,0.3,0.9,0.4,1c0.3,0.8,0.4-0.1,0.4-2.1c0-1.2,0.1-2.7,0.2-3.3c0.1-0.6,0.2-1.3,0.3-1.5c0.2-1,1.5,0,1.9,1.5
		c0.1,0.4,0.2,1,0.3,1.2c0,0.2,0.3,1.3,0.6,2.4c0.5,2,0.5,2,0.7,1.4c0.1-0.3,0.4-1.5,0.5-2.5s0.4-2.4,0.6-2.9
		c0.2-0.5,0.3-1.2,0.3-1.4c0-0.4,0.1-0.5,0.5-0.5c0.4,0,0.5,0.1,0.7,1c0.1,0.5,0.4,1.6,0.6,2.3c0.2,0.7,0.4,2,0.6,2.9
		c0.4,2.9,0.7,4.2,1.3,4.6c0.3,0.2,0.7,0.7,0.9,1c0.2,0.3,0.5,0.6,0.7,0.6c0.2,0,0.7,0.4,1.1,0.8c0.6,0.6,0.8,1,1.1,2
		c0.3,1.1,0.3,1.4,0.1,2.4c-0.2,1-0.5,1.9-0.8,2.2c-0.1,0-0.4,0.6-0.7,1.3c-0.8,1.5-1.7,3.3-1.9,3.4c-0.1,0.1-0.4,0.6-0.7,1.3
		c-0.3,0.6-0.7,1.3-0.8,1.4c-0.1,0.1-0.6,0.7-1.2,1.3c-0.5,0.6-1.3,1.3-1.7,1.5c-0.4,0.2-1.2,0.7-1.8,1c-1.1,0.7-5.7,2.3-8.7,3
		c-1.7,0.4-2.3,0.5-6.4,0.5l-4.5,0.1l-1.7-0.5c-1.5-0.5-1.8-0.6-2.5-1.5c-1.4-1.5-2.4-2.8-2.4-3.1c0-0.2-0.6-0.2-2.5-0.2
		c-1.4,0-2.8,0-3.2-0.1c-0.8-0.2-0.9-0.1-0.2,1.1c0.8,1.3,1.7,4.3,1.7,5c0,0.5-0.2,0.7-0.6,1c-0.3,0.2-0.6,0.4-0.7,0.5
		c-0.1,0.1-0.5,0-1.2-0.4c-1-0.5-1.1-0.6-1.9-2.3c-0.8-1.6-2-3.3-2.1-3.2c0,0,0.1,0.4,0.2,0.7c0.4,1,1.2,4.1,1.2,4.8
		c0,0.9-0.5,1.4-1.5,1.4c-0.6,0-0.7-0.1-0.9-0.5c-0.1-0.3-0.3-0.6-0.4-0.8c-0.1-0.1-0.4-0.7-0.7-1.1c-0.3-0.5-0.5-0.9-0.6-0.9
		c0,0-0.3,0.4-0.5,0.9c-1,2-3.2,3.6-5,3.6C65,118,64.7,117.9,64.4,117.6L64.4,117.6z M67.8,116.2c1-0.7,1.2-1,1.9-2.2
		c0.5-1,0.7-1.7,0.7-2.2c0-1.4,0.2-2.7,0.5-2.7c0.2,0,0.4,0.5,0.5,1.3c0,0.6,1.1,3.4,1.7,4.4c1,1.7,1.4,0.9,0.8-1.7
		c-0.3-1.1-0.7-2.3-1-2.9c-0.3-0.5-0.8-1.5-1.1-2.2c-0.3-0.6-0.6-1.3-0.7-1.5c-0.6-1,2,0.9,3.5,2.6c0.9,1,1.3,1.7,2.6,4.2
		c0.5,0.9,1.1,1.2,1.9,1c0.3-0.1,0.4-0.2,0.3-0.7c-0.3-1.3-1.2-3.6-2-4.7c-0.9-1.4-2.9-3.5-4.4-4.6c-0.6-0.4-1.1-0.9-1.2-0.9
		c-0.2-0.3-1.9-1-3.3-1.5l-1.6-0.5l-0.1-0.7c-0.1-0.4,0-1,0-1.4c0.4-2.4-2.2-6.7-4.8-7.9c-1-0.5-1.2-0.7-0.8-1
		c0.3-0.3,0.4-0.2,1.2,0.2c1.5,0.8,3.5,2.9,4.2,4.2c1,2,1.1,2.5,1.1,4.2l0,1.6l0.6,0.3c0.3,0.1,1,0.4,1.6,0.5c1.3,0.3,3.7,2.1,5.7,4
		l1.5,1.4l1.7,0.2c1.2,0.2,2.4,0.2,4.3,0.1c1.5-0.1,3.4-0.2,4.3-0.2c0.9,0,1.9-0.2,2.3-0.3c0.6-0.2,0.7-0.2,1,0.1
		c0.7,0.8,0.1,1-2.5,1.1c-1.8,0-2.8,0.1-2.8,0.3c0,0.1,1.7,2.3,2.3,2.9c0.3,0.3,1.1,0.8,1.7,1c1.1,0.4,1.3,0.5,5.8,0.4
		c4.1,0,4.8-0.1,6.1-0.4c0.8-0.2,1.8-0.5,2.3-0.6c0.4-0.1,1.4-0.4,2.2-0.7c0.7-0.3,1.8-0.7,2.4-0.8c0.6-0.2,1.3-0.5,1.7-0.7
		s1.2-0.7,1.8-1s1.2-0.7,1.3-0.8c0.1-0.2,0.6-0.8,1.1-1.4c0.9-1.1,1.9-2.5,1.9-2.7c0-0.1,0.4-0.8,0.9-1.8c1.5-2.7,2.5-4.7,2.6-5.4
		c0.2-0.9-0.3-2.5-0.9-3.2c-0.3-0.3-0.5-0.5-0.6-0.5c-0.1,0-0.2,0.3-0.4,0.7c-0.3,0.9-0.4,1-1.7,1.8c-1.3,0.8-2.3,0.9-4.4,0.5
		c-0.8-0.2-2.1-0.4-2.9-0.5c-3.9-0.7-6-1.3-8.6-2.2c-4.2-1.5-4.5-1.6-5.2-2c-1-0.5-1.9-0.9-2.4-1.1c-0.6-0.2-4.5-2.3-5.8-3.1
		c-0.5-0.3-1.1-0.7-1.3-0.8c-0.2-0.1-0.9-0.5-1.5-0.9c-0.6-0.4-1.1-0.7-1.2-0.7c-0.1,0-0.6-0.4-1.2-0.9c-0.6-0.5-1.3-1-1.6-1.2
		c-0.3-0.2-0.7-0.6-1-1c-0.3-0.4-1-0.9-1.9-1.4c-0.8-0.4-1.4-0.8-1.5-1c-0.1-0.2,0.1-0.4,0.4-0.7c0.3-0.2,0.8-0.9,1.2-1.5
		c0.9-1.4,4.4-4.8,5.5-5.4c1-0.6,3-0.8,6.2-0.8c1.4,0,1.9-0.1,2.7-0.4c1-0.4,1.3-0.7,2.8-3.1c1.1-1.7,1.5-2.1,2.4-2.4
		c0.4-0.1,0.7-0.2,0.7-0.3c0-0.2-1.6-2.2-2.6-3.3c-0.6-0.7-1.1-1.3-1.1-1.4c0-0.1-0.7-0.9-1.7-1.9c-3-3.1-3.9-4.1-4.4-4.8
		c-0.3-0.4-1-1.3-1.6-1.9c-1.5-1.6-3.3-3.7-4.4-5.3c-1.1-1.6-1.8-2.4-3-3.8c-2.2-2.5-3.6-4.5-4.7-6.6c-0.6-1.2-1.1-2.4-1.2-2.6
		c0-0.2-0.2-0.8-0.4-1.3c-0.2-0.4-0.3-1-0.3-1.2c0-0.2-0.1-0.7-0.3-1.1c-0.1-0.4-0.3-1.6-0.3-2.6c0-1.7,0-2,0.5-3
		c0.4-0.9,0.8-1.4,1.7-2.2c0.7-0.6,1.4-1.1,1.7-1.3c0.6-0.3,1.7-0.3,3.2,0c1.3,0.2,1.8,0.6,2.9,2.2c0.5,0.7,0.5,0.8,0.5,2.4
		c0,0.9,0.1,1.9,0.2,2.3c0.2,0.5,0.3,0.6,0.8,0.5c0.3-0.1,0.9-0.2,1.3-0.2l0.8-0.1l-0.2-0.6c-0.1-0.3-0.3-1.5-0.4-2.7
		c-0.2-3.7-0.4-4.4-1.6-5.8c-1-1.2-1.5-1.6-2.5-1.9l-1-0.3l-2.3,0.6c-2.4,0.6-3,0.9-4.4,2.4c-0.4,0.4-0.9,1.2-1.2,1.7
		c-0.6,1-1.6,4.1-2,5.7c-0.4,1.7-0.3,4.8,0,6.2c0.7,2.7,0.8,3.1,0.7,5c0,1.9,0,2-0.6,2.9c-0.3,0.5-0.6,1-0.6,1
		c0,0.2-0.7,0.6-1.1,0.7c-0.1,0-0.7,0.1-1.2,0.1c-0.8,0.1-1.3,0.3-3.7,1.4c-0.8,0.4-3.1,1.9-3.5,2.3c-0.1,0.1-0.7,0.5-1.2,0.7
		c-1.4,0.6-3.6,2.3-4.3,3.1c-0.3,0.4-1.1,1.1-1.8,1.7c-1.3,1-4,3.5-6.5,5.9c-1.9,1.9-8.2,8.5-8.6,9c-0.2,0.3-1,1.1-1.9,2
		c-1.7,1.7-3.1,2.5-4,2.3c-1.8-0.4-1.8-0.5-2.5-1.4c-0.3-0.5-0.8-1.2-1.1-1.4c-0.4-0.4-0.8-1-2.1-3.4c-0.5-0.9-5.2-6.2-5.9-6.7
		c-0.2-0.1-1.4-1.1-2.7-2.2c-2.2-1.8-2.6-2.1-5.8-3.6c-1.9-0.9-3.6-1.7-3.8-1.7c-0.5,0-0.2,0.6,0.5,1c3.6,1.9,5.7,3.3,8.3,5.7
		c0.4,0.3,1.2,1,1.8,1.5c3.5,2.8,6.2,6.6,8.2,11.7c0.4,0.9,0.9,2.3,1.2,2.9c0.3,0.6,0.7,1.5,0.8,2c0.2,0.4,0.4,1,0.5,1.1
		c0.2,0.2,0.2,0.5,0.2,0.8c-0.2,0.9-1.2,0.1-2.2-1.8c-0.2-0.5-0.6-1-0.8-1.3c-0.2-0.2-0.4-0.5-0.4-0.6s-0.1-0.3-0.3-0.4
		c-0.1-0.1-0.7-0.9-1.2-1.8c-1.1-1.7-4.6-5.4-6.3-6.5c-1-0.6-3.1-2.4-3.2-2.6c0-0.1-0.2-0.1-0.3-0.1c-0.2,0-1-0.2-1.9-0.6
		S10.4,60,10.2,60L9.7,60l0.5,0.3c1.5,0.7,3,1.7,3.7,2.4c0.4,0.4,1.1,1,1.5,1.2c0.3,0.3,1.1,1,1.7,1.6c0.6,0.6,1.6,1.5,2.3,2
		s1.4,1.2,1.7,1.5c0.3,0.4,1,1.1,1.7,1.7c0.6,0.6,1.3,1.4,1.5,1.8c0.2,0.4,0.7,1.1,1,1.5c0.6,0.8,0.7,1.3,0.2,1.3
		c-0.3,0-0.8-0.5-2.1-2.3c-1.2-1.6-3.4-3.5-5.4-4.5c-0.9-0.5-2-1-2.3-1.3c-0.4-0.2-0.9-0.5-1.1-0.6c-0.7-0.3-2.7-0.4-3.1-0.2
		c-0.3,0.2-0.2,0.2,0.4,0.5c0.4,0.2,0.9,0.4,1.1,0.5c0.2,0.1,0.8,0.3,1.4,0.5c1.4,0.6,2.4,1.2,4.3,2.6c1.5,1.2,2.9,2.6,3.5,3.4
		c0.1,0.2,0.7,0.7,1.2,1.1c1.9,1.4,0.7,1.9-1.7,0.7c-1.7-0.9-1.7-0.9-4-0.7c-2,0.2-3.8,0.7-5.6,1.6L11,77.3l0.6,0.2
		c0.3,0.1,1.6,0.2,2.8,0.2c1.6,0,2.4,0.1,3.3,0.3c0.6,0.2,1.7,0.5,2.5,0.6c0.7,0.2,1.8,0.5,2.3,0.7c0.5,0.3,1.7,0.6,2.6,0.7
		c1.9,0.3,2.6,0.6,2.6,0.9c0,0.4-0.4,0.5-1.9,0.5c-1.3,0-1.7,0-2.6,0.5c-1,0.4-1.4,0.5-3.4,0.5c-2.3,0-4.3,0.4-4.2,0.7
		c0.1,0.3,1.6,0.6,2.7,0.5c0.6,0,1.7-0.1,2.5-0.2c0.9,0,1.7-0.2,2-0.4c0.3-0.2,1.2-0.3,1.9-0.4c0.7-0.1,1.6-0.2,1.9-0.3
		c0.6-0.3,1-0.1,0.9,0.4c0,0.2-0.5,0.5-1.3,0.8c-0.7,0.3-1.6,0.6-2.1,0.9c-1.3,0.6-5.5,2.2-5.8,2.2c-0.6,0,0.3,0.5,1.1,0.7
		c0.6,0.1,1.1,0,2-0.4c0.7-0.3,1.7-0.6,2.3-0.8c0.6-0.2,1.6-0.5,2.1-0.7c0.5-0.2,1.1-0.4,1.2-0.3c0.5,0.2,0.1,0.7-1.2,1.5
		c-1.9,1.2-3.7,2.4-3.6,2.7c0.1,0.3,1.7,0.5,2.6,0.4c0.5-0.1,1.3-0.4,2.1-1c2.4-1.6,3.2-2.7,3.6-5c0.3-1.5,0.8-2.1,1.3-1.5
		c0.1,0.2,0.6,0.3,1.2,0.4c1.2,0.1,3.3,1.1,4.1,1.9c1.4,1.4,7.6,7.8,9.1,9.4c0.9,1,1.9,2,2.2,2.3c0.3,0.2,0.9,0.8,1.4,1.1
		c0.5,0.4,1.7,1.1,2.8,1.7c7,3.6,8.2,4.1,9.5,3.9c0.4,0,0.7-0.1,0.7-0.2c0,0-0.5-1.1-1.1-2.3c-1.4-2.8-3.1-5.8-3.9-6.7
		c-0.3-0.4-0.6-0.8-0.6-0.9c0.4-1.2,3,2.6,6.3,9.4c0.4,0.8,0.5,2.5,0.2,4c-0.3,1.5-1.1,2.5-2.5,3.5c-1.6,1-1.6,1.1-2.1,1.1
		c-1.6,0.2-1.9,0.3-5.4,2c-1.7,0.8-1.8,0.9-1.4,1c0.3,0,1.1-0.1,1.8-0.2c0.7-0.2,1.8-0.4,2.4-0.5c0.6-0.1,1.3-0.4,1.6-0.5
		c0.3-0.1,1.4-0.5,2.4-0.9c1-0.3,2.2-0.8,2.6-1c0.6-0.4,1.7-1.6,2.2-2.7c0.3-0.6,0.6-0.5,0.5,0.1c-0.2,1-0.7,2.1-1.3,2.6
		c-0.6,0.6-3.9,2.3-4.4,2.3c-0.4,0-1.4,0.4-2.6,0.9c-0.4,0.2-1.2,0.4-1.9,0.5c-1.8,0.3-1.9,0.5-0.4,1.1c0.6,0.3,1.1,0.3,1.5,0.3
		c0.3-0.1,1.3-0.2,2-0.3c1.4-0.2,1.4-0.2,4.1-1.8c1.2-0.8,1.2-0.7,3.3-2.8c0.8-0.8,1.5-1.6,1.6-1.8c0.1-0.4,0.6-0.4,0.6,0
		c0,0.8-0.7,3.1-1.5,4.6c-0.5,0.9-1,2-1.1,2.3c-0.1,0.3-0.3,0.6-0.4,0.6c-0.1,0-0.1,0.2-0.1,0.4c0,0.3,0.1,0.4,0.7,0.3
		C66.4,117,67.2,116.6,67.8,116.2L67.8,116.2z M73.9,63.2c-0.3-0.1-1.2-0.2-1.9-0.3c-2.6-0.4-4.4-1.8-5.8-4.3
		c-1.2-2.2-1.6-3.1-1.6-4.6c0-1,0.1-1.3,0.7-2.3c0.6-1.1,0.7-1.3,0.7-2c0-0.4,0.9-1.7,1.9-2.6c1.4-1.2,2.2-1.5,4.3-1.7
		c2-0.2,2.9-0.1,5.6,0.7c0.8,0.2,2.9,1.9,2.9,2.3c0,0.1,0.3,0.6,0.7,1.1c1.1,1.5,1.5,2.8,1.5,4.8c0,1.8-0.5,3.5-1.3,4.6
		c-0.3,0.3-0.7,0.9-1.1,1.4c-0.9,1.1-2.1,2-3.4,2.5C75.4,63.2,74.6,63.4,73.9,63.2L73.9,63.2z M75.7,62.1c3.3-1,5.6-3.6,6.2-6.8
		c0.4-2.1-0.2-3.9-1.7-6c-1.4-1.9-1.8-2.2-3.8-2.7c-1-0.3-2.1-0.5-2.5-0.5c-0.8,0-2.8,0.3-3.7,0.6c-0.7,0.2-2.7,2.1-2.9,2.7
		c-0.1,0.2-0.5,1.1-0.9,2c-1,1.8-1.1,2.4-0.8,3.7c0.5,2,1.7,4.1,3.3,5.4c1.2,1,2.3,1.4,3.9,1.6c0.5,0.1,1,0.1,1.1,0.2
		C74,62.4,74.9,62.3,75.7,62.1L75.7,62.1z M70.6,58.8c-1.3-0.3-1.9-0.6-2.3-1.6c-0.9-1.8-0.8-5.2,0.1-7.5c0.4-1,3.1-2.3,4.2-2.1
		c0.2,0,1,0.1,1.7,0.1c1,0.1,1.4,0.1,1.8,0.5c0.3,0.3,0.9,0.6,1.4,0.8c1.1,0.4,1.2,0.5,1.9,1.6c0.7,1.1,1.2,2.5,1.2,3.3
		c0,0.6-0.7,1.9-1.6,2.7c-1,1-3.1,1.9-5,2.2C71.9,59.1,71.9,59.1,70.6,58.8L70.6,58.8z M72.6,58c0.3-0.1,1.1-0.2,1.6-0.3
		c1.8-0.2,4.3-1.6,5-2.9c0.4-0.7,0.5-1,0.4-1.5c-0.3-1.5-1.6-3.5-2.3-3.5c-0.1,0-0.6-0.3-1.2-0.6c-0.9-0.6-1-0.6-2.8-0.7
		c-1.7,0-2,0-2.7,0.4c-1.3,0.7-1.6,1-1.9,2.5c-0.3,1.4-0.3,3.4,0.1,4.8c0.3,1.1,1.1,1.7,2.1,1.8c0.5,0,0.9,0.1,0.9,0.1
		C71.9,58.1,72.2,58.1,72.6,58L72.6,58z M72,56.7c-0.9-0.3-2.4-2.1-2.4-2.9c0-0.4,0.7-1.6,1.6-2.8c0.4-0.6,1.9-1.1,3-1.1
		c0.7,0,1,0.1,1.6,0.6c1.3,1,1.6,1.5,1.6,2.8c0.1,1,0,1.2-0.4,1.9c-0.3,0.5-0.7,0.8-1.2,1C74.1,56.8,72.7,57,72,56.7L72,56.7z
		 M74.6,55.6c0.5-0.1,1-0.3,1.2-0.4c0.6-0.3,1-1.3,0.8-2.1c-0.1-0.7-1-1.8-1.7-2.2c-0.5-0.2-1.7-0.1-2.5,0.2
		c-0.4,0.2-1.9,2.2-1.9,2.6c0,0.4,0.8,1.6,1.4,1.9C72.5,56,73,56,74.6,55.6L74.6,55.6z M115.2,93.8c0.9-0.5,1.3-1,1.3-1.8
		c0-0.2-0.1-0.4-0.2-0.5c-0.6-0.4-1.5-2.7-1.7-4.3c0-0.4-0.2-1-0.3-1.4c-0.1-0.3-0.2-0.9-0.2-1.3c0-0.6-0.3-1.9-0.7-2.9
		c-0.1-0.3-0.2-0.2-0.4,0.4c-0.1,0.4-0.3,1.5-0.5,2.4c-0.4,2.4-0.4,2.3-0.6,3.2c-0.3,1.1-0.8,1.1-1.4-0.2c-0.2-0.6-0.5-1.3-0.6-1.7
		c-0.1-0.6-0.3-1.6-0.9-3.6c-0.4-1.6-0.7-0.9-0.8,2.5c-0.1,2.9-0.3,3.9-0.7,4.1c-0.3,0.2-0.7-0.2-1-1.1c-0.2-0.4-0.4-1.1-0.6-1.6
		c-0.2-0.4-0.4-1.2-0.5-1.7c-0.3-1-0.9-2.9-1.2-3.4c-0.2-0.3-0.2-0.3-0.4,0.2c-0.1,0.3-0.3,1.3-0.4,2.2c-0.3,1.9-1,4.8-1.2,5
		c-0.2,0.2-0.9-0.4-1-0.9c-0.1-0.3-0.3-0.8-0.6-1.1c-0.2-0.4-0.5-1-0.6-1.3c-0.1-0.3-0.2-0.7-0.3-0.8c-0.1-0.1-0.3-0.6-0.4-1.2
		c-0.2-0.6-0.4-1.1-0.5-1.1c-0.2-0.1-0.4,0.6-0.5,1.7c0,0.4-0.3,1.5-0.6,2.4c-0.5,1.4-0.6,1.6-1,1.6c-0.4,0-0.5-0.2-0.9-1.4
		c-0.3-0.7-0.8-2.1-1.3-3.1c-0.5-0.9-0.9-2-1-2.3c-0.1-0.3-0.2-0.6-0.2-0.5c-0.1,0.1-0.1,1.4-0.2,3.1c-0.1,2.8-0.1,3-0.5,3
		c-0.3,0-0.5-0.2-0.9-0.6c-0.5-0.8-1.8-3.6-2.3-5c-0.2-0.5-0.4-1-0.5-1.2c-0.2-0.3-0.4,0.1-0.8,2.1c-0.4,1.7-1.1,3-1.5,2.8
		c-0.1-0.1-0.7-1-1.3-2.1c-1.1-2.3-1.3-2.5-1.6-2.4c-0.3,0.2-0.9,1.7-1,2.6c-0.1,0.8-0.1,0.9,0.5,1.2c0.3,0.2,0.9,0.5,1.2,0.8
		c0.4,0.2,0.9,0.6,1.3,0.8s0.7,0.4,0.8,0.5c0.2,0.2,5.4,3.1,5.7,3.1c0.1,0,0.9,0.3,1.6,0.7c0.7,0.4,2.5,1,3.8,1.5
		c1.3,0.5,2.9,1,3.4,1.2c0.5,0.2,1.4,0.5,1.9,0.5c0.9,0.2,3.7,0.7,6,1.1c2.2,0.4,3.8,0.6,4.3,0.5C114,94.4,114.6,94.1,115.2,93.8
		L115.2,93.8z M80.5,80.8c-0.2-0.6-0.6-1.2-0.8-1.2c-0.3,0-0.2,0.7,0.2,1.2C80.3,81.3,80.6,81.3,80.5,80.8z M80,75
		c0-0.5-0.6-0.4-0.7,0.1c0,0.2,0.1,0.3,0.3,0.3C79.9,75.4,80,75.3,80,75L80,75z M82.4,72.8c0-0.4-0.4-0.4-0.7,0
		c-0.2,0.3-0.2,0.5,0.1,1l0.3,0.7l0.1-0.7C82.3,73.4,82.4,73,82.4,72.8L82.4,72.8z M87.4,73.3c0.1-0.6,0.2-1.2,0.3-1.4
		c0.3-0.5,0.1-0.6-0.9-0.6c-0.8,0-0.9,0.1-0.6,0.4c0.1,0.1,0.3,0.7,0.5,1.3c0.4,1.5,0.5,1.6,0.5,1.5C87.2,74.4,87.3,73.9,87.4,73.3
		L87.4,73.3z M90.3,73c0.1-1.5,0-1.7-0.9-1.8c-0.7-0.1-0.9,0-0.4,0.4c0.2,0.2,0.5,0.8,0.6,1.4C90.1,74.9,90.1,74.9,90.3,73L90.3,73z
		 M84.8,71.8c0.1-0.6,0.1-0.6-0.5-0.5c-0.5,0.1-0.6,0.1-0.5,0.4c0.1,0.2,0.3,0.8,0.4,1.4l0.3,1.1l0.1-0.9
		C84.6,72.8,84.8,72.1,84.8,71.8L84.8,71.8z M93,72.1c0.2-0.8,0.4-1.7,0.4-1.9l0.1-0.5l-0.6,0.5c-0.3,0.3-0.7,0.5-0.9,0.5
		c-0.2,0-0.4,0.1-0.4,0.3c-0.1,0.4,0.6,2.6,0.9,2.6C92.6,73.6,92.8,72.9,93,72.1L93,72.1z M97.1,67.7l0-2.5l-0.5,0.2
		c-0.3,0.1-0.5,0.2-0.5,0.3c0,0.1-0.2,0.4-0.5,0.8c-0.3,0.3-0.7,1-0.9,1.4l-0.3,0.7l0.5,0.5c0.3,0.3,0.7,1.1,1,1.9
		c0.3,0.8,0.6,1.6,0.8,1.9c0.3,0.4,0.3,0.4,0.4-1.1C97,70.9,97.1,69.1,97.1,67.7L97.1,67.7z M44.8,56.3c0.9-0.7,0.7-0.8-0.6-0.4
		c-0.5,0.2-1.3,0.3-1.8,0.3c-0.8,0-0.8,0.2,0.1,0.5C43.5,57,44,56.9,44.8,56.3z M45.8,54.4c0.5-0.2,1.1-0.3,1.2-0.3
		c0.4,0.1,3.1-2.3,3.1-2.7c0-0.1-0.8-0.1-1.9-0.1c-1.4,0-2.2-0.1-3.3-0.4c-1.8-0.5-1.9-0.5-1.5-0.1c0.2,0.2,0.7,0.4,1.2,0.5
		c0.5,0.1,1.1,0.3,1.4,0.5c0.3,0.2,0.7,0.3,0.9,0.3c1,0,1.3,0.7,0.6,1.1C47,53.5,44,54,43,54c-0.5,0-0.6,0.1-0.5,0.2
		C42.9,54.7,44.4,54.8,45.8,54.4L45.8,54.4z M87.2,36.1c0.4-0.2,1.2-0.4,1.7-0.6c1.2-0.4,1.9-1,2.4-2.1c0.6-1.3,0.6-2.3,0.2-2.9
		c-0.6-0.8-2.2-2-3.2-2.3c-1.1-0.3-3.8-0.4-4.8,0c-0.4,0.1-1.2,0.4-1.8,0.6c-0.9,0.3-1.1,0.4-1.6,1.1c-1.2,1.7-1,3.1,0.5,4.5
		c0.9,0.8,1.8,1.2,3.7,1.7C86.1,36.4,86.3,36.4,87.2,36.1L87.2,36.1z"/>
</g>
</svg>
