<?xml version="1.0" encoding="utf-8"?>
<!-- Generator: Adobe Illustrator 22.1.0, SVG Export Plug-In . SVG Version: 6.00 Build 0)  -->
<svg version="1.1"
	 id="svg1022" inkscape:version="0.91 r13725" xmlns:cc="http://web.resource.org/cc/" xmlns:dc="http://purl.org/dc/elements/1.1/" xmlns:inkscape="http://www.inkscape.org/namespaces/inkscape" xmlns:ns1="http://sozi.baierouge.fr" xmlns:rdf="http://www.w3.org/1999/02/22-rdf-syntax-ns#" xmlns:sodipodi="http://sodipodi.sourceforge.net/DTD/sodipodi-0.dtd" xmlns:svg="http://www.w3.org/2000/svg"
	 xmlns="http://www.w3.org/2000/svg" xmlns:xlink="http://www.w3.org/1999/xlink" x="0px" y="0px" viewBox="0 0 125 125"
	 style="enable-background:new 0 0 125 125;" xml:space="preserve">
<style type="text/css">
	.st0{fill:url(#path2946_1_);stroke:#000000;}
	.st1{fill:url(#path2880_1_);stroke:#000000;}
	.st2{fill:url(#path2869_1_);stroke:#000000;}
	.st3{fill:url(#path2963_1_);stroke:#000000;}
	.st4{fill:url(#path2858_1_);stroke:#000000;}
	.st5{fill:url(#path1097_1_);stroke:#000000;}
	.st6{stroke:#000000;}
	.st7{fill:url(#path2766_1_);stroke:#000000;}
	.st8{fill:url(#path2897_1_);stroke:#000000;}
	.st9{fill:url(#path2928_1_);stroke:#000000;}
	.st10{fill:url(#path1064_1_);stroke:#000000;}
	.st11{fill:url(#path1087_1_);stroke:#000000;}
	.st12{fill:url(#path2025_1_);stroke:#000000;}
	.st13{fill:#A3A6B9;stroke:#000000;}
	.st14{fill:url(#path3021_1_);stroke:#000000;stroke-width:0.8724;}
</style>
<g id="g6383" transform="matrix(.31324 0 0 .31324 -19.623 -60.021)">
	
		<linearGradient id="path2946_1_" gradientUnits="userSpaceOnUse" x1="-1000.5721" y1="1324.3604" x2="-1000.5721" y2="1324.7036" gradientTransform="matrix(13.4941 0 0 -39.4116 13769.0547 52691.8008)">
		<stop  offset="0" style="stop-color:#9B7630"/>
		<stop  offset="1" style="stop-color:#6C5221"/>
	</linearGradient>
	<path id="path2946" class="st0" d="M268.1,441.9c6.2,10.4,8.5,22.6,11.3,34.2c2.3,13.8,1.2,28.5-4.7,41.4c-2.8,1.3-6.3-0.3-7.4-3.2
		c-2.3-4.9-2.4-10.4-4-15.5c-3-11.4-6.3-22.8-7-34.6c-1.2-7.7-2.5-15.5-2.3-23.3c0-0.1-0.1-0.7-0.1-0.8"/>
	
		<linearGradient id="path2880_1_" gradientUnits="userSpaceOnUse" x1="-1062.0874" y1="1334.7113" x2="-1062.5531" y2="1334.5325" gradientTransform="matrix(78.6648 0 0 -101.5154 83745.9766 135867.9219)">
		<stop  offset="0" style="stop-color:#815604"/>
		<stop  offset="0.3367" style="stop-color:#A4861C"/>
		<stop  offset="1" style="stop-color:#C9C9C9"/>
	</linearGradient>
	<path id="path2880" class="st1" d="M191.1,363.5c-26.2-16.5-50.3-38.4-81.3-45.3c-14.1-7.2-37.8-3.9-37.6,15.8
		c0.1,20.5,14,37.6,24.9,53.9c9.3,15,30.1,28.1,23.1,48.3c-6.7,18.2-18.8,36.5-15.1,56.8c4.2,18.9,26.4,28.4,42.9,18.3
		c16.1-3.4,24.7-18.1,36.2-28.3c15.1-13,22.8-31.6,34.8-47.1c3.4-5.2,6.5-10.7,8.6-16.7"/>
	
		<linearGradient id="path2869_1_" gradientUnits="userSpaceOnUse" x1="-1030.7476" y1="1325.813" x2="-1031.6425" y2="1325.6631" gradientTransform="matrix(23.8516 0 0 -48.6866 24848.0625 64823.9258)">
		<stop  offset="0" style="stop-color:#815604"/>
		<stop  offset="0.3367" style="stop-color:#A4861C"/>
		<stop  offset="1" style="stop-color:#C9C9C9"/>
	</linearGradient>
	<path id="path2869" class="st2" d="M245.9,303.3c0.7-10.6-5.1-20.1-6.7-30.3c-3.7-10.7-9.1-20.8-15.7-30c-3-2.8-7.1,0.2-8.7,3.1
		c-3.8,5.4-6.5,11.4-9.4,17.3c-3.7,7.9-6.5,16.3-6.4,25.1c-0.2,7.4,0,14.9-0.2,22.3c0.4,7.6,1.8,15.6,6.9,21.5
		c3.1,2.6,7.2,3.3,10.3,5.7"/>
	
		<linearGradient id="path2963_1_" gradientUnits="userSpaceOnUse" x1="-988.1287" y1="1326.5942" x2="-988.1287" y2="1326.9133" gradientTransform="matrix(11.8106 0 0 -45.4366 11906.9727 60780.0898)">
		<stop  offset="0" style="stop-color:#9B7630"/>
		<stop  offset="1" style="stop-color:#6C5221"/>
	</linearGradient>
	<path id="path2963" class="st3" d="M239.2,439.6c-2.6,24-12.6,46.7-14.3,70.9c1.3,6.1-0.2,13,3,18.6c3,1.7,2.8-4.9,4.2-6.6
		c2.7-8.6,5.2-17.2,7.6-25.9c3.7-14.9,5.8-30.2,8.4-45.3c0.2-3.3,0.1-6.7,0-10"/>
	
		<linearGradient id="path2858_1_" gradientUnits="userSpaceOnUse" x1="-1065.1149" y1="1331.4086" x2="-1065.2748" y2="1331.8776" gradientTransform="matrix(91.4992 0 0 -78.373 97750.2422 104765.875)">
		<stop  offset="0" style="stop-color:#815604"/>
		<stop  offset="0.3367" style="stop-color:#A4861C"/>
		<stop  offset="1" style="stop-color:#C9C9C9"/>
	</linearGradient>
	<path id="path2858" class="st4" d="M355.5,302c-18.1-7.8-38.2-5.8-57.4-6.9c-12.1-0.4-22.9,0.9-34.9,1.9c-8.7,1-18.6,3.2-26.7,7
		c-8.6,3.9-17.7,7.9-24.3,14.8c-5.7,6-7.9,14.8-5.7,22.8c1.9,7.9,0.5,16.1,1.9,24c0.5,2.9,2.7,15.9,0.2,8.1
		c-4.8-5.7-12.1-9.9-19.2-12c-8.8-1.2-12.9,8.4-14.1,15.5c-2.7,14.7,4.9,28.3,8.9,42c3.2,8.9,7.8,19.2,17.5,22.3
		c8.9,3.5,13-5.7,19.3-8.8c7.9-0.1,11.6,8.9,18.9,10.9c11.8,5,24.9,1.8,37,4.9c1.1,0.4,2.3,0.8,3.4,1.3"/>
	
		<linearGradient id="path1097_1_" gradientUnits="userSpaceOnUse" x1="-914.7925" y1="1287.2178" x2="-914.6666" y2="1286.5602" gradientTransform="matrix(5.8009 0 0 -13.0972 5712.5737 17183.5391)">
		<stop  offset="0" style="stop-color:#A0A600"/>
		<stop  offset="0.3367" style="stop-color:#D0D800"/>
		<stop  offset="1" style="stop-color:#E6E6E6"/>
	</linearGradient>
	<path id="path1097" class="st5" d="M402.2,329.1c-2.4,7.4,2.5,26.5,7.8,25.9c6-5.2,1.8-13.7-1.4-18.7
		C407.1,334.8,403.9,330.4,402.2,329.1z"/>
	<path id="path1127" class="st6" d="M402.1,336.3c2.6,3,7,9.4,4.7,11.5c-2.5,1.4-4.2-2.4-5-4.6c-0.6-1.8-1.1-3.4-0.2-5.1"/>
	
		<linearGradient id="path2766_1_" gradientUnits="userSpaceOnUse" x1="-1065.182" y1="1330.5931" x2="-1065.2688" y2="1330.9026" gradientTransform="matrix(85.5291 0 0 -70.2477 91466.2578 93888.0781)">
		<stop  offset="0" style="stop-color:#815604"/>
		<stop  offset="0.3367" style="stop-color:#A4861C"/>
		<stop  offset="1" style="stop-color:#C9C9C9"/>
	</linearGradient>
	<path id="path2766" class="st7" d="M369,314.2c-11.1,0.5-18,1.5-29,2.7c0,0,0,0-0.1,0c-14.4,2.6-29.8,2-42.3,9.5l0,0
		c-12.4,10-21.6,24-26.6,39.1c0,0,0,0,0,0.1c-2.6,15.2-1.9,31.5,4.5,45.6c8.7,17.2,26.5,27.5,44.1,34c0,0,0,0,0.1,0
		c11.1,3.2,21.8,8.5,33.2,7.7c17.5-3.3,34.3-9.8,51.8-14.2c0,0,0,0,0.1,0c4.8-1.8,10.1-3.3,14.8-5.7c4.6-2.4,10.7-4.2,12.9-9.1
		c1.1-5.7,1.5-12.2,3.5-17.5c2-5.3,3.4-10.6,2.2-16.3c-1.4-5.6-5.1-9.5-9.5-13.1c-4.4-3.6-9.4-6.9-13-11.4c0,0,0-0.1-0.1-0.1
		c-3.7-6.2-8.3-12-12.4-18c0,0,0,0-0.1-0.1c-4.8-6-0.5-12.3-2-18.6c-2.7-4-9.7-6.4-13.5-7.7c-3.7-1.2-7.8-2.6-10.8-6.8L369,314.2
		C369.1,314.2,369,314.2,369,314.2z"/>
	
		<linearGradient id="path2897_1_" gradientUnits="userSpaceOnUse" x1="-1055.0204" y1="1327.4413" x2="-1055.0302" y2="1327.7604" gradientTransform="matrix(46.9873 0 0 -48.026 49856.5625 64273.0938)">
		<stop  offset="0" style="stop-color:#9B7630"/>
		<stop  offset="1" style="stop-color:#6C5221"/>
	</linearGradient>
	<path id="path2897" class="st8" d="M286.4,449.9c-3.7,15-15.3,26.5-18.7,41.5c-8,15.7-22,27.3-30.3,42.9
		c-0.1,9.4,11.6,12.3,18.9,9.3c9.5-3.3,19.2-5.8,29-8.1c14.6-3.9,31-8.5,40-21.6c6.6-9.8,6.7-23.4-0.4-32.9
		c-3.3-5.9-6.9-12.6-5.1-19.6"/>
	
		<linearGradient id="path2928_1_" gradientUnits="userSpaceOnUse" x1="-1057.7555" y1="1320.0256" x2="-1057.7795" y2="1320.427" gradientTransform="matrix(50.03 0 0 -31.1419 53323.0156 41609.2695)">
		<stop  offset="0" style="stop-color:#9B7630"/>
		<stop  offset="1" style="stop-color:#6C5221"/>
	</linearGradient>
	<path id="path2928" class="st9" d="M395.6,452.5c13.8,11.5,27.7,22.9,40.3,35.7c4.7,5.9,17.4,9.5,15,18.4c-4.3,6.9-13.6,5-20.4,6.7
		c-13,1.9-26.5,0-38-6.4c-18.7-9.2-35.7-24.9-40.1-46"/>
	
		<linearGradient id="path1064_1_" gradientUnits="userSpaceOnUse" x1="-1066.3706" y1="1332.2015" x2="-1066.5238" y2="1332.8301" gradientTransform="matrix(97.1498 0 0 -87.7435 103953.9219 117353.3047)">
		<stop  offset="0" style="stop-color:#815604"/>
		<stop  offset="0.3367" style="stop-color:#A4861C"/>
		<stop  offset="1" style="stop-color:#C9C9C9"/>
	</linearGradient>
	<path id="path1064" class="st10" d="M340.9,299.3c-1.5,0-3,0-4.6,0.1c-18.8-1.1-37,5.5-53.4,14c-23.3,32.2-60.5,76.1-24.8,113.9
		c24.7,37.1,80.1,63.4,110.7,30.1c6.1,18.4,50.4-12.2,62-31.5c-12.5,4.1-26.3,5.3-38.9,8.6c-12.7,0.4-26.3,1.6-38.6-2h0
		c-13.5,0.5-26.9-4.5-40.1-6.5c-0.8-0.8-1.4-1.6-1.9-2.4c-5.2-0.4-10.2-1.7-14.5-6.2c-13.6-12.2-1.2-28.9,2.9-42.1
		c-0.1-2.2,0-4.5,0-6.8c1.2,0.2,2.5-0.2,4-1.5c4.2-6.7,9-13.9,8.9-22.2c0-3.3-1.5-6.6-3.8-8.9c0.1-0.1,0.2-0.3,0.3-0.4
		c10.1,9.8,19,20.6,29.2,29.4c17.7,9.8,49.7,18.3,58.2-6.9c0.9-14.2-4.6-27.6-13.5-38.1C372.1,308.1,359.2,299.6,340.9,299.3
		L340.9,299.3z M434,393.9c0.3,0.8,0.5,1.6,0.7,2.4C434.5,395.5,434.3,394.7,434,393.9z M435.2,401.3c0,6.9-2.7,14.1-6.7,19.1
		C432.5,415.4,435.2,408.2,435.2,401.3z M317.3,406.1c-0.5,0.4-0.9,0.9-1.4,1.3C316.4,407,316.8,406.5,317.3,406.1z M314.3,409.2
		c-0.4,0.4-0.7,0.9-1.1,1.3C313.6,410.1,313.9,409.7,314.3,409.2z M311.9,412.5c-0.3,0.5-0.6,1-0.8,1.5
		C311.3,413.5,311.6,413,311.9,412.5z M362.7,431.1c-1.7,0.5-3.4,0.7-5,0.9C359.3,431.9,361,431.6,362.7,431.1z"/>
	
		<linearGradient id="path1087_1_" gradientUnits="userSpaceOnUse" x1="-980.8773" y1="1302.5778" x2="-980.813" y2="1301.9781" gradientTransform="matrix(10.4794 0 0 -17.9937 10579.7236 23763.4785)">
		<stop  offset="0" style="stop-color:#A0A600"/>
		<stop  offset="0.3367" style="stop-color:#D0D800"/>
		<stop  offset="1" style="stop-color:#E6E6E6"/>
	</linearGradient>
	<path id="path1087" class="st11" d="M303.3,332.8c-7.6,3.6-12.1,12-11.4,20.3c-0.1,5.7,4.4,19.9,11.7,13.8c4.2-6.7,9-13.9,8.9-22.2
		C312.5,339.3,308.7,334.1,303.3,332.8z"/>
	<path id="path1126" class="st6" d="M305.2,355.5c1.7-4.1,0.9-9.6-2.8-12.3c-5-2-6.7,4.9-5.8,8.5c-0.2,3.4,4.4,10.1,7.6,6.5
		C304.6,357.3,304.8,356.4,305.2,355.5z"/>
	
		<linearGradient id="path2025_1_" gradientUnits="userSpaceOnUse" x1="-1059.5519" y1="1321.288" x2="-1059.7153" y2="1321.7957" gradientTransform="matrix(58.4565 0 0 -38.2189 62293.7031 50862.7891)">
		<stop  offset="0" style="stop-color:#815604"/>
		<stop  offset="0.3367" style="stop-color:#A4861C"/>
		<stop  offset="1" style="stop-color:#C9C9C9"/>
	</linearGradient>
	<path id="path2025" class="st12" d="M341,299.1c-1.5,0-3,0-4.6,0.1c-18.3-1.1-36.1,5.2-52.2,13.4c-0.5,0.4-1.1,0.7-1.6,1.1
		c-0.5,0.7-1,1.4-1.5,2.1c24.8,10.6,38.8,33.3,57.2,49.1c17.7,9.8,49.7,18.3,58.2-6.9c1-15.7-5.7-30.4-16.3-41.3c0,0,0,0,0-0.1
		c0,0,0,0,0,0c-0.5-0.5-1.1-1-1.6-1.5c-1.3-1.2-2.6-2.5-4-3.6c-0.5-0.4-1.1-0.8-1.6-1.2c-1.4-1-2.8-2-4.2-2.9
		c-0.6-0.4-1.2-0.7-1.7-1C359.5,302,351.1,299.3,341,299.1L341,299.1z"/>
	<path id="path1052" class="st13" d="M392.9,419.6c11.9-3.1,24.8,9.1,35.6,0.9c8-10.1,10.7-28.9-2.6-36c-15.9-9.3-35.1-4.8-52.5-4.3
		c-17.3,2.7-34.1,9.5-48.6,19.3c-7.1,6-21.8,16.8-11.7,26.4c16.2,2.5,32.9,9.7,49.5,5.2C373,428.2,382.8,422.9,392.9,419.6z"/>
	
		<radialGradient id="path3021_1_" cx="-1059.021" cy="1312.8102" r="0.3094" gradientTransform="matrix(54.5419 0 0 -24.2281 58133.4688 32212.5137)" gradientUnits="userSpaceOnUse">
		<stop  offset="0" style="stop-color:#D18484"/>
		<stop  offset="1" style="stop-color:#5B4646"/>
	</radialGradient>
	<path id="path3021" class="st14" d="M390,418c10.2-2.8,21.3,8.1,30.6,0.8c6.9-8.9,9.2-25.6-2.2-31.9c-13.7-8.2-30.2-4.3-45.1-3.8
		c-14.9,2.4-29.3,8.4-41.7,17.1c-6.1,5.3-18.7,14.9-10.1,23.4c13.9,2.3,28.2,8.6,42.5,4.6C373,425.6,381.4,421,390,418L390,418z"/>
</g>
</svg>
