<?xml version="1.0" encoding="utf-8"?>
<!-- Generator: Adobe Illustrator 22.1.0, SVG Export Plug-In . SVG Version: 6.00 Build 0)  -->
<svg version="1.1"
	 id="svg4805" inkscape:version="0.91 r13725" sodipodi:docname="fish.svg" xmlns:cc="http://creativecommons.org/ns#" xmlns:dc="http://purl.org/dc/elements/1.1/" xmlns:inkscape="http://www.inkscape.org/namespaces/inkscape" xmlns:rdf="http://www.w3.org/1999/02/22-rdf-syntax-ns#" xmlns:sodipodi="http://sodipodi.sourceforge.net/DTD/sodipodi-0.dtd" xmlns:svg="http://www.w3.org/2000/svg"
	 xmlns="http://www.w3.org/2000/svg" xmlns:xlink="http://www.w3.org/1999/xlink" x="0px" y="0px" viewBox="0 0 125 125"
	 style="enable-background:new 0 0 125 125;" xml:space="preserve">
<style type="text/css">
	.st0{fill:#D7E3F4;stroke:#000000;}
	.st1{fill:#2C5AA0;stroke:#000000;}
	.st2{fill:#87AADE;stroke:#000000;}
	.st3{fill:none;stroke:#000000;stroke-linecap:round;}
	.st4{fill:#FFFFFF;stroke:#000000;}
	.st5{stroke:#000000;}
</style>
<sodipodi:namedview  bordercolor="#666666" borderopacity="1.0" fit-margin-bottom="20" fit-margin-left="20" fit-margin-right="20" fit-margin-top="20" id="base" inkscape:current-layer="layer1" inkscape:cx="431.59748" inkscape:cy="173.8952" inkscape:document-units="px" inkscape:pageopacity="0.0" inkscape:pageshadow="2" inkscape:window-height="705" inkscape:window-maximized="1" inkscape:window-width="1366" inkscape:window-x="-8" inkscape:window-y="-8" inkscape:zoom="0.76289062" pagecolor="#ffffff" showgrid="false">
	</sodipodi:namedview>
<g id="layer1" transform="translate(-13.904743,-244.59498)" inkscape:groupmode="layer" inkscape:label="1. réteg">
	<path id="path4324" inkscape:connector-curvature="0" sodipodi:nodetypes="csssscc" class="st0" d="M26.1,323.9
		c0,0-1.1,1.2-1.2,1.9c-0.1,0.9,0.1,1.9,0.7,2.5c0.8,0.8,2.3,0.9,3.5,1c1.9,0.1,3.8-0.7,5.7-1.2c1.6-0.5,4.8-1.7,4.8-1.7L26.1,323.9
		z"/>
	<path id="path4380" inkscape:connector-curvature="0" sodipodi:nodetypes="csssssssscsscc" class="st1" d="M107.3,298.3
		c0,0,3.8-3.1,5.9-4.2c2.6-1.2,5.5-1.8,8.3-2.2c2.7-0.3,5.4-0.4,8,0c2.2,0.3,4.8,0.2,6.4,1.8c0.7,0.7,0.9,1.9,0.8,2.9
		c-0.1,0.9-0.7,1.7-1.2,2.5c-0.9,1.3-1.9,2.3-3.5,3.2c-2,1.2-4.9,2.5-7.2,3.2c-1.5,0.4-4.6,0.4-4.6,0.4s-1.1-2.1-1.9-2.9
		c-1.6-1.5-3.7-2.4-5.8-3.2c-1.7-0.6-5.4-1-5.4-1L107.3,298.3z"/>
	<path id="path4328" inkscape:connector-curvature="0" sodipodi:nodetypes="csscsscsscssc" class="st1" d="M53.7,291.3
		c0,0,1.1-3.5,2.1-5c1-1.5,2.3-2.8,3.6-4c1.3-1.2,4.3-3,4.3-3s6.2,0,9.3,0.4c3.2,0.4,6.3,1.3,9.4,2.1c2.6,0.6,7.9,2.1,7.9,2.1
		s-0.2,2.5-0.7,3.6c-0.4,1-1.2,1.8-1.8,2.6c-0.5,0.7-1.5,1.9-1.5,1.9s-7.9-0.8-11.9-1c-4.7-0.2-9.5-0.1-14.3,0
		C58,291.1,53.7,291.3,53.7,291.3L53.7,291.3z"/>
	<path id="path4342" inkscape:connector-curvature="0" sodipodi:nodetypes="csssssssscsc" class="st1" d="M53.3,325.2
		c0,0,2.4,4.7,4.2,6.6c0.9,1,2,2,3.2,2.6c0.6,0.3,1.2,0.6,1.8,0.6c0.9,0,1.8-0.6,2.6-1.1c1.2-0.7,2.1-1.8,3-2.8
		c0.5-0.6,1.3-1,1.5-1.8c0.2-0.7,0-1.6-0.4-2.2c-1.1-1.5-3.3-1.8-4.8-2.8c-1.8-1.1-5.3-3.5-5.3-3.5s-2,1.5-3,2.2
		C55.2,323.9,53.3,325.2,53.3,325.2L53.3,325.2z"/>
	<path id="path4326" inkscape:connector-curvature="0" sodipodi:nodetypes="csssssssssscssssscac" class="st2" d="M20.5,314.3
		c0,0,2.8-5.8,4.8-8.2c2.5-3,5.7-5.3,9-7.5c3.8-2.5,7.7-4.8,12-6.2c4.4-1.4,9.2-1.7,13.8-2.1c4.6-0.4,9.3-0.4,14-0.1
		c3.4,0.2,6.8,0.8,10.1,1.4c3.9,0.7,7.8,1.4,11.6,2.5c5.5,1.5,10.8,3.4,16.1,5.7c2.2,1,4.6,1.7,6.4,3.3c0.9,0.8,2,1.8,2.1,3
		c0,0.6-0.7,1.5-0.7,1.5s-13.1,1-19.5,2.1c-3.5,0.6-7.1,1.4-10.5,2.4c-3.9,1.1-7.7,2.5-11.5,3.7c-5.5,1.8-11,3.5-16.3,5.7
		c-2.2,0.9-4.2,2.3-6.5,3c-2.7,0.9-8.4,1.7-8.4,1.7s-10.4-2.2-15.2-4.5C27.7,319.9,20.5,314.3,20.5,314.3L20.5,314.3z"/>
	<path id="path4330" inkscape:connector-curvature="0" sodipodi:nodetypes="cssc" class="st3" d="M68.3,279.9c0,0-2.5,1.7-3.5,2.8
		c-0.6,0.6-1,1.2-1.5,1.9c-0.5,0.8-1.5,2.8-1.5,2.8"/>
	<path id="path4332" inkscape:connector-curvature="0" sodipodi:nodetypes="cssc" class="st3" d="M73,280c0,0-2.1,1.7-3,2.8
		c-0.7,0.8-1.2,1.7-1.8,2.6c-0.7,1.1-1.9,3.3-1.9,3.3"/>
	<path id="path4334" inkscape:connector-curvature="0" sodipodi:nodetypes="csc" class="st3" d="M77.5,280.8c0,0-2,1.8-2.8,2.9
		c-0.9,1.2-2.2,3.7-2.2,3.7"/>
	<path id="path4336" inkscape:connector-curvature="0" sodipodi:nodetypes="csc" class="st3" d="M82.5,281.8c0,0-1.7,1.8-2.5,2.8
		c-0.6,0.7-1.5,2.4-1.5,2.4"/>
	<path id="path4338" inkscape:connector-curvature="0" sodipodi:nodetypes="ccc" class="st3" d="M86.2,283.2l-1.5,1.4l-1.1,1.4"/>
	<path id="path4340" inkscape:connector-curvature="0" sodipodi:nodetypes="cssscsc" class="st3" d="M58.3,302.6c0,0,1.8,5,2.4,7.6
		c0.3,1.4,0.5,2.8,0.4,4.2c-0.1,1.1-0.3,2.3-0.7,3.3c-0.4,1-1.7,2.8-1.7,2.8s-1.4,1.4-2.2,1.9c-1,0.7-3.3,1.8-3.3,1.8"/>
	<path id="path4344" inkscape:connector-curvature="0" class="st3" d="M59,328.2l5,6.5"/>
	<path id="path4346" inkscape:connector-curvature="0" class="st3" d="M64.2,331.6l1.9,1.4"/>
	<path id="path4348" inkscape:connector-curvature="0" sodipodi:nodetypes="cssc" class="st3" d="M71.6,295.2c0,0-0.5,5.1-1.2,7.6
		c-0.5,1.6-1.2,3.1-1.9,4.6c-0.9,1.8-3.3,5-3.3,5"/>
	<path id="path4350" inkscape:connector-curvature="0" sodipodi:nodetypes="cssc" class="st3" d="M78.1,295.5c0,0-1.7,6.1-2.9,9
		c-1.1,2.6-2.1,5.3-3.7,7.6c-0.9,1.3-3.2,3.3-3.2,3.3"/>
	<path id="path4352" inkscape:connector-curvature="0" sodipodi:nodetypes="cssc" class="st3" d="M85.6,296.1c0,0-1.9,5.8-3,8.6
		c-0.6,1.6-1.2,3.2-2.1,4.6c-0.6,1-2.2,2.6-2.2,2.6"/>
	<path id="path4354" inkscape:connector-curvature="0" sodipodi:nodetypes="csc" class="st3" d="M92.2,298.1c0,0-2.2,4.6-3.6,6.8
		c-1,1.5-3.2,4.3-3.2,4.3"/>
	<path id="path4356" inkscape:connector-curvature="0" sodipodi:nodetypes="csc" class="st3" d="M96.2,298.8c0,0-1.2,3.7-2.4,5.3
		c-0.6,0.8-2.1,1.9-2.1,1.9"/>
	<path id="path4358" inkscape:connector-curvature="0" class="st3" d="M92.1,299.5c3.9,3.9,4,3.9,4,3.9"/>
	<path id="path4360" inkscape:connector-curvature="0" sodipodi:nodetypes="cssc" class="st3" d="M85.4,297.9c0,0,1.6,1.7,2.4,2.6
		c0.9,1,1.7,2.1,2.6,3.2c0.7,0.8,2.1,2.4,2.1,2.4"/>
	<path id="path4362" inkscape:connector-curvature="0" sodipodi:nodetypes="cssc" class="st3" d="M75,296.2c0,0,4.1,3.4,5.8,5.4
		c1.3,1.5,2.2,3.3,3.5,4.8c0.9,1.2,2.9,3.5,2.9,3.5"/>
	<path id="path4364" inkscape:connector-curvature="0" sodipodi:nodetypes="csssc" class="st3" d="M66,295.5c0,0,3.9,3.6,5.8,5.5
		c1.2,1.2,2.5,2.3,3.5,3.6c0.8,1,1.2,2.3,1.9,3.3c0.7,1.1,2.5,3,2.5,3"/>
	<path id="path4366" inkscape:connector-curvature="0" sodipodi:nodetypes="cssc" class="st3" d="M61.8,302c0,0,3.5,2.5,5,4
		c1,1,1.9,2,2.6,3.2c1,1.5,2.4,4.8,2.4,4.8"/>
	<path id="path4368" inkscape:connector-curvature="0" sodipodi:nodetypes="sssssssssscs" class="st1" d="M85.3,312.7
		c0.3,1.2,0.5,2.4,1,3.5c0.7,1.7,1.5,3.3,2.6,4.7c0.7,0.9,1.5,2,2.6,2.4c1.3,0.4,2.8,0,4-0.6c0.8-0.3,1.6-0.9,2.1-1.7
		c0.3-0.6,0.6-1.3,0.4-1.9c-0.5-1.7-2.5-2.5-3.9-3.6c-1.9-1.5-3.7-3.2-5.9-4c-0.6-0.2-1.3-0.2-1.9-0.3c-0.4,0-1.2,0-1.2,0
		S85.2,312.2,85.3,312.7L85.3,312.7z"/>
	<path id="path4370" inkscape:connector-curvature="0" sodipodi:nodetypes="cssscc" class="st3" d="M35.3,319.9c0,0,1.1-3,2.1-4.2
		c0.9-1.1,2.1-1.8,3.3-2.5c1.4-0.8,2.8-1.4,4.3-1.9c1.8-0.7,5.5-1.7,5.5-1.7l0,0"/>
	<path id="path4372" inkscape:connector-curvature="0" sodipodi:nodetypes="cssssssscsc" class="st4" d="M38.7,314.6
		c0,0-2-2.6-2.2-4.2c-0.2-1.3,0.2-2.8,0.7-4c0.5-1.3,1.2-2.8,2.5-3.3c0.8-0.3,1.9-0.1,2.6,0.4c0.7,0.5,0.9,1.5,1.1,2.4
		c0.2,0.9,0.2,2,0,2.9c-0.2,0.9-0.3,1.2-0.6,2.1c-0.1,0.4-1,1.8-1,1.8s-1,0.4-1.5,0.7C39.7,313.7,38.7,314.6,38.7,314.6z"/>
	<path id="path4374" inkscape:connector-curvature="0" sodipodi:nodetypes="sssssccs" class="st5" d="M37,310
		c-0.5-1.4-0.3-1.8,0.8-1.9c1.1-0.1,1,0.2,1.4,0.4c0.6,0.3,0.7,1.2,0.8,1.9c0.1,0.6,0,1.2,0,1.8c0,0.4-0.1,1.2-0.1,1.2l-1.2,0.7
		L37,310z"/>
	<path id="path4322" inkscape:connector-curvature="0" sodipodi:nodetypes="csssssssssssc" class="st0" d="M47.5,326.4
		c0,0-3.6-0.7-5.4-1.2c-3.4-1.1-6.7-2.5-10-4c-2.6-1.3-5.1-2.9-7.6-4.3c-1.4-0.8-2.7-1.7-4.2-2.2c-1-0.4-2.1-1-3.2-0.7
		c-0.7,0.2-1.3,0.8-1.5,1.5c-0.3,1.1,0.4,2.2,1,3.2c0.7,1.2,1.9,2,3,2.8c2.1,1.3,4.5,1.9,6.8,2.6c2.7,0.8,5.5,1.4,8.3,1.9
		c2.5,0.4,5,0.9,7.5,1C44,326.9,47.5,326.4,47.5,326.4z"/>
	<path id="path4376" inkscape:connector-curvature="0" sodipodi:nodetypes="cscc" class="st3" d="M43,304.6c0,0-0.3-1.6-0.8-2.3
		c-0.3-0.4-1.5-1.3-1.5-1.3l0,0"/>
	<path id="path4378" inkscape:connector-curvature="0" sodipodi:nodetypes="cssssssssccc" class="st1" d="M104.8,309.3
		c0,0,2,3.2,3.3,4.6c2,2,4.8,3.8,7.2,5.3c2,1.3,3.7,2.2,5.9,3c1.7,0.7,3.5,1.1,5.3,1.2c1.5,0.1,3.2,0.5,4.4-0.4
		c0.7-0.5,0.9-1.6,1-2.5c0.1-1.3,0-2.6-0.6-3.7c-1.2-2.4-3.6-3.9-5.7-5.5c-1.8-1.5-5.8-4-5.8-4l-13.4,1.8L104.8,309.3z"/>
	<path id="path4382" inkscape:connector-curvature="0" sodipodi:nodetypes="cc" class="st3" d="M119.9,297.7l13.7-5.2"/>
	<path id="path4384" inkscape:connector-curvature="0" class="st3" d="M125.4,298.1l10.7-2.9"/>
	<path id="path4386" inkscape:connector-curvature="0" sodipodi:nodetypes="cc" class="st3" d="M124.2,316.5l7.8,4.2"/>
	<path id="path4388" inkscape:connector-curvature="0" sodipodi:nodetypes="cc" class="st3" d="M120.3,318.1l9.2,5.5"/>
</g>
</svg>
