<?xml version="1.0" encoding="utf-8"?>
<!-- Generator: Adobe Illustrator 22.1.0, SVG Export Plug-In . SVG Version: 6.00 Build 0)  -->
<svg version="1.1"
	 id="Layer_1" inkscape:version="0.91 r13725" sodipodi:docname="Fish-Feet.svg" xmlns:cc="http://creativecommons.org/ns#" xmlns:dc="http://purl.org/dc/elements/1.1/" xmlns:inkscape="http://www.inkscape.org/namespaces/inkscape" xmlns:rdf="http://www.w3.org/1999/02/22-rdf-syntax-ns#" xmlns:sodipodi="http://sodipodi.sourceforge.net/DTD/sodipodi-0.dtd" xmlns:svg="http://www.w3.org/2000/svg"
	 xmlns="http://www.w3.org/2000/svg" xmlns:xlink="http://www.w3.org/1999/xlink" x="0px" y="0px" viewBox="0 0 125 125"
	 style="enable-background:new 0 0 125 125;" xml:space="preserve">
<style type="text/css">
	.st0{fill:#00A1E7;}
	.st1{fill:#FEC80D;}
	.st2{fill:#FFFFFF;}
</style>
<sodipodi:namedview  bordercolor="#666666" borderlayer="true" borderopacity="1" fit-margin-bottom="0" fit-margin-left="0" fit-margin-right="0" fit-margin-top="0" gridtolerance="10" guidetolerance="10" id="namedview4" inkscape:current-layer="Layer_1" inkscape:cx="242.5" inkscape:cy="124" inkscape:guide-bbox="true" inkscape:pageopacity="0" inkscape:pageshadow="2" inkscape:showpageshadow="false" inkscape:window-height="705" inkscape:window-maximized="1" inkscape:window-width="1366" inkscape:window-x="-8" inkscape:window-y="-8" inkscape:zoom="2.237903225806452" objecttolerance="10" pagecolor="#ffffff" showborder="true" showgrid="false" showguides="true">
	</sodipodi:namedview>
<path id="path5415" inkscape:connector-curvature="0" sodipodi:nodetypes="ccccccccccccccccccccccc" class="st0" d="M62.4,66.6
	l4.8,7l2.2,3.2L69.1,77l-8.7,3.3L52,83.5l-3.3-2l-3.5-2.1L45,79.2l5.2-2.4l5.2-2.5l-2.4-2.5L48.2,67L62.4,66.6z M80.4,67.3l5.1,6.8
	l3,4.1l0.2,0.3l-1.5,1.7l-1.5,1.7L77.6,76l-10.8-8.3L80.4,67.3z"/>
<path id="path5426" class="st1" d="M2.4,70.9l-0.2,0.1l0-0.9L1.9,58L1.7,46.7l7,3.3l6.9,3.4l3.9-1.9l3.9-1.9l12.2-4l12.2-4l13.3-2
	l13.3-2l6.6,0.6l6.6,0.6l7.5,1.2l7.5,1.2l4.2,1.5l4.2,1.5l2.9,1.6l2.9,1.7l-2.8,1.8l-2.8,1.7l-0.4,1.7l-0.4,1.7l1,1.6l1,1.6l3.1,1
	l4.1,1.3l0.9,0.3l-0.9,0.8l-2.8,2.3l-1.8,1.5l-8.6,2.7l-8.6,2.7l-10.2,0L72.8,70l-4.6-0.2L66.6,70L65,70.2l-6.8-0.4l-6.8-0.4
	l-8.5-0.2L34.3,69l-6-1.3l-6-1.3l-3.3-1.5l-3.3-1.5l-6.5,3.7L2.4,70.9z"/>
<path id="path5424" class="st2" d="M93,48.5h1.2l1.1-0.5l1.1-0.5l0.7-0.7l0.7-0.7v-1.2v-1.2l-0.7-0.7l-0.7-0.7l-1.1-0.5l-1.1-0.5H93
	h-1.2l-1.1,0.5l-1.1,0.5L89,42.9l-0.6,0.7l-0.1,1.1l-0.1,1.1l0.8,0.9l0.8,0.9l1.1,0.5l1.1,0.5L93,48.5z"/>
<path id="path5417" class="st1" d="M120.3,58.2l-2.2-0.5l-1.9-0.5l-1.8-0.9l-1.8-0.9l-0.2-1.1l-0.2-1.1l1-1l1-1l2.2-0.5l2.2-0.5
	l2.7-0.2l2.7-0.2l-0.2,1.1l-0.2,1.4l0,0.3l-1.8,0l-1.8,0l-1.2,0.3l-1.8,0.4l-0.6,0.1l0,0.3l0.2,0.7l0.2,0.3l3.2,0.6l3.3,0.6
	l-0.2,0.7l-0.3,0.6l-1.1,0.5L120.3,58.2z"/>
<path id="path5413" inkscape:connector-curvature="0" sodipodi:nodetypes="cccccccccccccccccccccccccccccccccccccccccccc" d="
	M56.1,89.7l-2.2-0.3l-1.9-0.3l-3.3-1.4l-3.3-1.4l-1.7-2.1L42,82l1.1-0.8l1.1-0.6l2.8,1.9l2.8,1.9l3.3,1.1l3.3,1.1v1.6v1.6L56.1,89.7
	z M93.9,80.9l-4.6,4.4l-1.6-1.4l-1.6-1.4l4.7-4.5l4.7-4.5l1.5,0.6l1.5,0.6l-0.1,0.9l-0.1,0.9L93.9,80.9z M91.7,47.2h-0.5l-0.7-0.6
	L89.8,46v-0.6v-0.6l0.6-0.6l0.6-0.6h0.7h0.7l0.6,0.6l0.6,0.6v0.6V46l-0.7,0.6l-0.7,0.6H91.7z"/>
</svg>
