<?xml version="1.0" encoding="utf-8"?>
<!-- Generator: Adobe Illustrator 22.1.0, SVG Export Plug-In . SVG Version: 6.00 Build 0)  -->
<svg version="1.1"
	 id="svg2" inkscape:label="Pozadí" inkscape:version="0.91 r13725" sodipodi:docname="Machovka-Happy-fish-asleep.svg" sodipodi:version="0.32" xmlns:cc="http://creativecommons.org/ns#" xmlns:dc="http://purl.org/dc/elements/1.1/" xmlns:inkscape="http://www.inkscape.org/namespaces/inkscape" xmlns:rdf="http://www.w3.org/1999/02/22-rdf-syntax-ns#" xmlns:sodipodi="http://sodipodi.sourceforge.net/DTD/sodipodi-0.dtd" xmlns:svg="http://www.w3.org/2000/svg"
	 xmlns="http://www.w3.org/2000/svg" xmlns:xlink="http://www.w3.org/1999/xlink" x="0px" y="0px" viewBox="0 0 124 125"
	 style="enable-background:new 0 0 124 125;" xml:space="preserve">
<style type="text/css">
	.st0{fill:url(#path10998_1_);stroke:#000000;stroke-width:0.75;stroke-linecap:round;stroke-linejoin:round;}
	.st1{fill:url(#rect2007_1_);stroke:#000000;stroke-width:0.75;stroke-linecap:round;stroke-linejoin:round;}
	.st2{fill:url(#path7373_1_);stroke:#000000;stroke-width:0.75;stroke-linecap:round;stroke-linejoin:round;}
	.st3{fill:url(#path23581_1_);stroke:#000000;stroke-width:0.75;stroke-linecap:round;stroke-linejoin:round;}
	.st4{fill:#FF4500;stroke:#000000;stroke-width:0.75;stroke-linecap:round;stroke-linejoin:round;}
	.st5{fill:url(#path1883_1_);stroke:#000000;stroke-width:0.75;stroke-linecap:round;stroke-linejoin:round;}
	.st6{fill:url(#path10986_1_);stroke:#000000;stroke-width:0.75;stroke-linecap:round;stroke-linejoin:round;}
	.st7{fill:url(#path1874_1_);stroke:#000000;stroke-width:0.75;stroke-linecap:round;stroke-linejoin:round;}
	.st8{fill:#FD9018;fill-opacity:0.8824;stroke:#000000;stroke-width:0.75;stroke-linecap:round;stroke-linejoin:round;}
	.st9{fill:none;stroke:#000000;stroke-width:0.75;stroke-linecap:round;stroke-linejoin:round;}
	.st10{fill:url(#path17237_1_);stroke:#000000;stroke-width:0.75;stroke-linecap:round;stroke-linejoin:round;}
	.st11{fill:#E6E6E6;}
	.st12{fill:url(#path15447_1_);stroke:#000000;stroke-width:0.75;stroke-linecap:round;stroke-linejoin:round;}
	.st13{fill:url(#path15445_1_);stroke:#000000;stroke-width:0.75;stroke-linecap:round;stroke-linejoin:round;}
	.st14{fill:url(#path14552_1_);stroke:#000000;stroke-width:0.75;stroke-linecap:round;stroke-linejoin:round;}
	.st15{fill:url(#path15439_1_);stroke:#000000;stroke-width:0.75;stroke-linecap:round;stroke-linejoin:round;}
	.st16{fill:url(#path15441_1_);stroke:#000000;stroke-width:0.75;stroke-linecap:round;stroke-linejoin:round;}
	.st17{fill:url(#path15443_1_);stroke:#000000;stroke-width:0.75;stroke-linecap:round;stroke-linejoin:round;}
	.st18{fill:url(#path18138_1_);stroke:#000000;stroke-width:0.75;stroke-linecap:round;stroke-linejoin:round;}
	.st19{fill:url(#path5587_1_);stroke:#000000;stroke-width:0.75;stroke-linecap:round;stroke-linejoin:round;}
	.st20{fill:url(#path9185_1_);stroke:#000000;stroke-width:0.75;stroke-linecap:round;stroke-linejoin:round;}
	.st21{fill:url(#path10081_1_);stroke:#000000;stroke-width:0.75;stroke-linecap:round;stroke-linejoin:round;}
</style>
<sodipodi:namedview  bordercolor="#666666" borderopacity="1.0" height="744.09448px" id="base" inkscape:current-layer="layer1" inkscape:cx="645.17103" inkscape:cy="151.69545" inkscape:document-units="px" inkscape:guide-bbox="true" inkscape:pageopacity="0.0" inkscape:pageshadow="2" inkscape:window-height="801" inkscape:window-maximized="1" inkscape:window-width="1536" inkscape:window-x="-8" inkscape:window-y="-8" inkscape:zoom="0.63508653" pagecolor="#ffffff" showgrid="false" showguides="true" width="1052.3622px">
	</sodipodi:namedview>
<g id="layer1" transform="translate(-66.961 -25.788)" inkscape:groupmode="layer" inkscape:label="Vrstva 1">
	
		<linearGradient id="path10998_1_" gradientUnits="userSpaceOnUse" x1="127.9387" y1="-57.923" x2="140.1262" y2="-57.923" gradientTransform="matrix(0.8715 0 0 -0.8574 7.7414 69.6147)">
		<stop  offset="0" style="stop-color:#00FF0E"/>
		<stop  offset="1" style="stop-color:#000000;stop-opacity:0"/>
	</linearGradient>
	<path id="path10998" inkscape:connector-curvature="0" sodipodi:nodetypes="ccccsccccsc" class="st0" d="M120.7,111.6L120.7,111.6
		c-4.9,10.4,6.8,15,7.6,15.3l0,0c0,0,0,0,0,0c0,0,0.1,0,0.1,0l1.3-5.1C134.6,111.5,121.6,111.9,120.7,111.6L120.7,111.6L120.7,111.6
		C120.8,111.6,120.7,111.6,120.7,111.6L120.7,111.6z"/>
	
		<linearGradient id="rect2007_1_" gradientUnits="userSpaceOnUse" x1="244.7074" y1="0.1237" x2="272.2315" y2="0.1237" gradientTransform="matrix(0.8715 0 0 -0.8574 -49.3009 89.0816)">
		<stop  offset="0" style="stop-color:#5354FF"/>
		<stop  offset="1" style="stop-color:#000000;stop-opacity:0"/>
	</linearGradient>
	<path id="rect2007" inkscape:connector-curvature="0" sodipodi:nodetypes="ccssscsscss" class="st1" d="M171.5,58.3
		c3.8-3.4,11.6-7.1,16.1-7.5c-7.8,6.2-7.8,9.9-8.6,15.1c-0.8,5.2-3.7,12.1-3.4,22.2c0.3,9.2,3.8,17.8,4.5,23.2
		c0.8,5.4,0.3,10,7.4,15.7c-4.4-0.3-14.1-5.2-15.7-6.8c-6.5-6.1-4.2-14.9-3-19.9c2.1-8.8-3-5.2-4.6-11.4c1.6-6.2,6.6-3,4.6-11.7
		C167.9,72.8,165.1,64,171.5,58.3L171.5,58.3z"/>
	
		<radialGradient id="path7373_1_" cx="258.1855" cy="-18.1049" r="13.764" gradientTransform="matrix(0.8715 0 0 -2.7903 -49.0098 38.3804)" gradientUnits="userSpaceOnUse">
		<stop  offset="0" style="stop-color:#FF4100"/>
		<stop  offset="1" style="stop-color:#FF0000;stop-opacity:0"/>
	</radialGradient>
	<path id="path7373" inkscape:connector-curvature="0" sodipodi:nodetypes="ccssscsscss" class="st2" d="M171.6,58.2
		c3.8-3.4,11.6-7.1,16.1-7.5c-7.8,6.2-7.8,9.9-8.6,15.1c-0.8,5.2-3.7,12.1-3.4,22.2c0.3,9.2,3.8,17.8,4.5,23.2
		c0.8,5.4,0.3,10,7.4,15.7c-4.4-0.3-14.1-5.2-15.7-6.8c-6.5-6.1-4.2-14.9-3-19.9c2.1-8.8-3-5.2-4.6-11.4c1.6-6.2,6.6-3,4.6-11.7
		C167.9,72.8,165.1,63.9,171.6,58.2L171.6,58.2z"/>
	
		<linearGradient id="path23581_1_" gradientUnits="userSpaceOnUse" x1="270.2976" y1="-137.5813" x2="289.2755" y2="-122.0324" gradientTransform="matrix(0.8715 0 0 -0.8574 -102.1644 -54.7678)">
		<stop  offset="0" style="stop-color:#57D544"/>
		<stop  offset="1" style="stop-color:#57D544;stop-opacity:0"/>
	</linearGradient>
	<path id="path23581" inkscape:connector-curvature="0" sodipodi:nodetypes="csccsssc" class="st3" d="M124.1,60.3
		c3.8-1.7,6.8-2.9,10-3.8c3.2-0.9,7.5-1.8,14.5-2.7c-7.1,5.5-6.8,7.8-4.5,12.2c-1.3-0.6-4.6-2.3-7.9-3.1c-4.1-1-6.1-0.8-9.4-0.9
		c-3.2,0-5.5,0.6-6.5,0.9C119.3,63.2,119.8,62.4,124.1,60.3z"/>
	<ellipse id="path2777" class="st4" cx="101.4" cy="73.5" rx="6.4" ry="6.3"/>
	
		<linearGradient id="path1883_1_" gradientUnits="userSpaceOnUse" x1="-99.4784" y1="1.3975" x2="-79.8887" y2="-17.7589" gradientTransform="matrix(1.4373 0 0 -1.3719 249.9077 84.4115)">
		<stop  offset="0" style="stop-color:#FF6400"/>
		<stop  offset="1" style="stop-color:#E5D7CE;stop-opacity:0"/>
	</linearGradient>
	<path id="path1883" inkscape:connector-curvature="0" sodipodi:nodetypes="csscccssc" class="st5" d="M137.2,87.7
		c0,6.7-2.6,12.7-6.8,17.1c-4.2,4.4-11.5,7-14.5,7.1c-1.9,0-18.4-3.9-22.6-8.3c-4.8-4.1-6.8-7.2-7.4-11.4
		c-0.2-2.7,2.2-12.6,7.1-16.8c4.2-4.4,17.1-11.8,23.6-11.8c6.4,0,9.7,2.7,13.9,7.1C134.6,75,137.2,81,137.2,87.7z"/>
	
		<linearGradient id="path10986_1_" gradientUnits="userSpaceOnUse" x1="124.6469" y1="12.3191" x2="89.1394" y2="26.9631" gradientTransform="matrix(0.8715 0 0 -0.8574 26.7435 106.1314)">
		<stop  offset="0" style="stop-color:#FFFF00"/>
		<stop  offset="1" style="stop-color:#FFFF00;stop-opacity:0"/>
	</linearGradient>
	<path id="path10986" inkscape:connector-curvature="0" sodipodi:nodetypes="csscccssc" class="st6" d="M137.3,87.5
		c0,6.7-2.6,12.7-6.8,17.1c-4.2,4.4-11.5,7-14.5,7.1c-1.9,0-19.1-4.1-23.3-8.5c-4.8-4.1-6.1-6.9-6.7-11.2C85.6,89.2,88,79.3,93,75.1
		c4.2-4.4,17.1-11.8,23.6-11.8c6.4,0,9.7,2.7,13.9,7.1C134.7,74.8,137.3,80.8,137.3,87.5z"/>
	
		<linearGradient id="path1874_1_" gradientUnits="userSpaceOnUse" x1="252.0243" y1="-13.6194" x2="283.6239" y2="-4.2995" gradientTransform="matrix(0.8715 0 0 -0.8574 -80.8153 72.5719)">
		<stop  offset="0" style="stop-color:#49D636"/>
		<stop  offset="1" style="stop-color:#49D636;stop-opacity:0"/>
	</linearGradient>
	<path id="path1874" inkscape:connector-curvature="0" sodipodi:nodetypes="ccscsscccsc" class="st7" d="M127.1,61.7
		c-4,0-7.9,0.7-11.4,1.8c11.4,3.8,19.4,13.2,19.4,24.1s-8,20.3-19.4,24.1c3.5,1.2,7.4,1.8,11.4,1.8c8.5,0,16.2-2.9,21.8-7.6
		c2.8-2.4,7.5-8.1,13.7-10.9c6.2-2.8,8.5-2.8,8.5-6.4c0-3.6-2.9-3.7-9.1-7.1c-6.2-3.4-10.4-10-13.1-12.3
		C143.4,64.6,135.6,61.7,127.1,61.7L127.1,61.7z"/>
	<g id="g4288">
		<ellipse id="path1886-4" class="st8" cx="104" cy="72.6" rx="6.4" ry="6.3"/>
		<path id="path1886" inkscape:connector-curvature="0" sodipodi:nodetypes="ccsscc" class="st4" d="M110.4,72.6
			c-3.3,4.2-9,3.5-12.4,2.2c0,0-0.4-1.4-0.4-2.2c0-3.5,2.9-6.3,6.4-6.3c3.4,0,6.2,2.6,6.4,5.9C110.3,72.3,110.4,72.5,110.4,72.6
			L110.4,72.6z"/>
	</g>
	<path id="path6337" inkscape:connector-curvature="0" sodipodi:nodetypes="cc" class="st9" d="M112.2,79
		c11.8,23.6-25.9,14.3-25.9,14.3"/>
	<path id="path9184" inkscape:connector-curvature="0" class="st9" d="M110.5,79.9l3.1-1.6"/>
	
		<linearGradient id="path17237_1_" gradientUnits="userSpaceOnUse" x1="268.2545" y1="-36.3326" x2="233.2394" y2="-13.3441" gradientTransform="matrix(0.8715 0 0 -0.8574 -80.8153 72.5719)">
		<stop  offset="0" style="stop-color:#FF0000"/>
		<stop  offset="1" style="stop-color:#FF0000;stop-opacity:0"/>
	</linearGradient>
	<path id="path17237" inkscape:connector-curvature="0" sodipodi:nodetypes="ccscsscccsc" class="st10" d="M127.1,61.7
		c-4,0-7.9,0.7-11.4,1.8c11.4,3.8,19.4,13.2,19.4,24.1s-8,20.3-19.4,24.1c3.5,1.2,7.4,1.8,11.4,1.8c8.5,0,16.2-2.9,21.8-7.6
		c2.8-2.4,7.5-8.1,13.7-10.9c6.2-2.8,8.5-2.8,8.5-6.4c0-3.6-2.9-3.7-9.1-7.1c-6.2-3.4-10.4-10-13.1-12.3
		C143.4,64.6,135.6,61.7,127.1,61.7L127.1,61.7z"/>
	<g id="g22661" transform="matrix(0.8715,0,0,0.85742,23.665688,-22.379022)">
		<ellipse id="path19957" class="st11" cx="70.3" cy="84.2" rx="5.6" ry="5"/>
		<ellipse id="path19959" class="st11" cx="62.8" cy="94.3" rx="3.2" ry="2.9"/>
		<ellipse id="path19961" class="st11" cx="68.3" cy="123.1" rx="3.9" ry="3.7"/>
		<ellipse id="path19963" class="st11" cx="65.5" cy="111.1" rx="4.6" ry="4.3"/>
		<ellipse id="path19965" class="st11" cx="56.7" cy="102" rx="2.9" ry="2.6"/>
		<ellipse id="path19967" class="st11" cx="65.1" cy="96.8" rx="3.6" ry="3.3"/>
		<ellipse id="path19969" class="st11" cx="79.5" cy="86.7" rx="3.1" ry="2.8"/>
		<g id="g19946" transform="translate(2,-2)">
			
				<linearGradient id="path15447_1_" gradientUnits="userSpaceOnUse" x1="-534.5692" y1="-454.8505" x2="-526.4856" y2="-446.9482" gradientTransform="matrix(0.8302 0 0 -0.7695 506.2011 -258.0562)">
				<stop  offset="0" style="stop-color:#FFA4A4"/>
				<stop  offset="1" style="stop-color:#FFA4A4;stop-opacity:0"/>
			</linearGradient>
			<ellipse id="path15447" class="st12" cx="67.2" cy="87.6" rx="5.6" ry="5"/>
			
				<linearGradient id="path15445_1_" gradientUnits="userSpaceOnUse" x1="-155.1716" y1="-544.9673" x2="-141.0322" y2="-550.7933" gradientTransform="matrix(0.4718 0 0 -0.4434 128.0875 -145.8897)">
				<stop  offset="0" style="stop-color:#FFA4A4"/>
				<stop  offset="1" style="stop-color:#FFA4A4;stop-opacity:0"/>
			</linearGradient>
			<ellipse id="path15445" class="st13" cx="59.7" cy="97.7" rx="3.2" ry="2.9"/>
			
				<linearGradient id="path14552_1_" gradientUnits="userSpaceOnUse" x1="-337.8757" y1="-125.0674" x2="-352.2099" y2="-136.6003" gradientTransform="matrix(0.5766 0 0 -0.5745 263.0703 52.1346)">
				<stop  offset="0" style="stop-color:#FFA4A4"/>
				<stop  offset="1" style="stop-color:#FFA4A4;stop-opacity:0"/>
			</linearGradient>
			<ellipse id="path14552" class="st14" cx="65.2" cy="126.5" rx="3.9" ry="3.7"/>
			
				<linearGradient id="path15439_1_" gradientUnits="userSpaceOnUse" x1="-406.6918" y1="-233.9645" x2="-402.4687" y2="-246.4915" gradientTransform="matrix(0.6821 0 0 -0.6613 337.6093 -46.7745)">
				<stop  offset="0" style="stop-color:#FFA4A4"/>
				<stop  offset="1" style="stop-color:#FFA4A4;stop-opacity:0"/>
			</linearGradient>
			<ellipse id="path15439" class="st15" cx="62.4" cy="114.5" rx="4.6" ry="4.3"/>
			
				<linearGradient id="path15441_1_" gradientUnits="userSpaceOnUse" x1="14.504" y1="-470.0408" x2="23.8428" y2="-475.8965" gradientTransform="matrix(0.4297 0 0 -0.3999 45.2238 -83.8589)">
				<stop  offset="0" style="stop-color:#FFA4A4"/>
				<stop  offset="1" style="stop-color:#FFA4A4;stop-opacity:0"/>
			</linearGradient>
			<ellipse id="path15441" class="st16" cx="53.6" cy="105.4" rx="2.9" ry="2.6"/>
			
				<linearGradient id="path15443_1_" gradientUnits="userSpaceOnUse" x1="-261.1697" y1="-461.6235" x2="-249.5165" y2="-469.4596" gradientTransform="matrix(0.5349 0 0 -0.5088 201.6931 -134.6522)">
				<stop  offset="0" style="stop-color:#FFA4A4"/>
				<stop  offset="1" style="stop-color:#FFA4A4;stop-opacity:0"/>
			</linearGradient>
			<ellipse id="path15443" class="st17" cx="62" cy="100.2" rx="3.6" ry="3.3"/>
			
				<linearGradient id="path18138_1_" gradientUnits="userSpaceOnUse" x1="-355.5163" y1="-675.7236" x2="-340.4881" y2="-684.9542" gradientTransform="matrix(0.4541 0 0 -0.4279 235.5076 -200.4328)">
				<stop  offset="0" style="stop-color:#FFA4A4"/>
				<stop  offset="1" style="stop-color:#FFA4A4;stop-opacity:0"/>
			</linearGradient>
			<ellipse id="path18138" class="st18" cx="76.4" cy="90" rx="3.1" ry="2.8"/>
		</g>
	</g>
	<path id="path27156" inkscape:connector-curvature="0" sodipodi:nodetypes="cc" class="st9" d="M131.5,57.3
		c-5.3,2.1-3.5,4.3-3.5,4.3"/>
	<path id="path28946" inkscape:connector-curvature="0" sodipodi:nodetypes="cc" class="st9" d="M140.4,55c-9.7,2.9-7.4,6.9-7.4,6.9
		"/>
	<path id="path28948" inkscape:connector-curvature="0" sodipodi:nodetypes="cc" class="st9" d="M148.2,53.8
		c-12.5,3.5-10.4,9.3-10.4,9.3"/>
	
		<linearGradient id="path5587_1_" gradientUnits="userSpaceOnUse" x1="261.815" y1="-12.5377" x2="205.3465" y2="0.9835" gradientTransform="matrix(0.8715 0 0 -0.8574 -49.3009 89.0816)">
		<stop  offset="0" style="stop-color:#0D00FF"/>
		<stop  offset="1" style="stop-color:#000000;stop-opacity:0"/>
	</linearGradient>
	<path id="path5587" inkscape:connector-curvature="0" sodipodi:nodetypes="ccscsscccsc" class="st19" d="M127.1,61.7
		c-4,0-7.9,0.7-11.4,1.8c11.4,3.8,19.4,13.2,19.4,24.1s-8,20.3-19.4,24.1c3.5,1.2,7.4,1.8,11.4,1.8c8.5,0,16.2-2.9,21.8-7.6
		c2.8-2.4,7.5-8.1,13.7-10.9c6.2-2.8,8.5-2.8,8.5-6.4c0-3.6-2.9-3.7-9.1-7.1c-6.2-3.4-10.4-10-13.1-12.3
		C143.4,64.6,135.6,61.7,127.1,61.7L127.1,61.7z"/>
	<g id="g10976" transform="matrix(0.8715,0,0,0.85742,55.18,-5.8694)">
		
			<linearGradient id="path9185_1_" gradientUnits="userSpaceOnUse" x1="172.992" y1="-37.4507" x2="199.8641" y2="-26.3764" gradientTransform="matrix(0.8715 0 0 -0.8574 -64.7063 116.6097)">
			<stop  offset="0" style="stop-color:#FF2A2A"/>
			<stop  offset="1" style="stop-color:#FF2A2A;stop-opacity:0"/>
		</linearGradient>
		<path id="path9185" inkscape:connector-curvature="0" sodipodi:nodetypes="cccscsc" class="st20" d="M100.5,159.8
			c-4.5,8.4-14.8-1.3-17.3-5.5c-2.8-4.5-4.7-10.4,2.4-21.7c1-1.3-0.6-3.7,4.5-3.3c3.3,0.3,0.5,4.7,2.7,7c2.4,2.3,5.1,6,6.8,9.3
			C101.6,149.5,102.8,155.4,100.5,159.8L100.5,159.8z"/>
		
			<linearGradient id="path10081_1_" gradientUnits="userSpaceOnUse" x1="175.2625" y1="-26.0671" x2="179.5396" y2="-41.01" gradientTransform="matrix(0.8715 0 0 -0.8574 -64.7063 116.6097)">
			<stop  offset="0" style="stop-color:#DCFF00"/>
			<stop  offset="1" style="stop-color:#000000;stop-opacity:0"/>
		</linearGradient>
		<path id="path10081" inkscape:connector-curvature="0" sodipodi:nodetypes="cccscsc" class="st21" d="M100.5,159.8
			c-4.5,8.4-14.8-1.3-17.3-5.5c-2.8-4.5-4.7-10.4,2.4-21.7c1-1.3-0.6-3.7,4.5-3.3c3.3,0.3,0.5,4.7,2.7,7c2.4,2.3,5.1,6,6.8,9.3
			C101.6,149.5,102.8,155.4,100.5,159.8L100.5,159.8z"/>
	</g>
</g>
</svg>
