<?xml version="1.0" encoding="utf-8"?>
<!-- Generator: Adobe Illustrator 22.1.0, SVG Export Plug-In . SVG Version: 6.00 Build 0)  -->
<svg version="1.1" id="图层_2" xmlns="http://www.w3.org/2000/svg" xmlns:xlink="http://www.w3.org/1999/xlink" x="0px" y="0px"
	 viewBox="0 0 125 125" style="enable-background:new 0 0 125 125;" xml:space="preserve">
<style type="text/css">
	.st0{fill:#E3AA00;}
	.st1{opacity:0.21;}
	.st2{fill:#FFFF94;}
	.st3{fill:#CF9B00;}
	.st4{fill:#FFFFFF;stroke:#B2B2B2;}
	.st5{fill:#F7F7F7;}
	.st6{fill:#FFBF00;}
	.st7{opacity:0.21;fill:#FFFF94;enable-background:new    ;}
	.st8{opacity:0.54;fill:#E3AA00;enable-background:new    ;}
	.st9{opacity:0.46;fill:#8B5C29;enable-background:new    ;}
	.st10{opacity:0.16;fill:#8F0000;enable-background:new    ;}
	.st11{opacity:0.2;fill:#E3AA00;enable-background:new    ;}
	.st12{opacity:0.29;fill:#5A3D1C;enable-background:new    ;}
	.st13{opacity:0.47;fill:#E3AA00;enable-background:new    ;}
</style>
<path class="st0" d="M75,33.9c-10.2-10-28.4-20-47.9-2c-3.3,3-5.9,7.5-6.8,11.8C17.4,56.9,0.6,61.5,5.2,72.9
	C7,77.5,17.1,76,21.5,86.8c7.2,17.3,35.7,27,62.1,4.1c0,0,11.7-15.5,18.2-7.1c6.5,8.4,19.2,22.3,19.2-10c0-28.2-6-17.8-15.1-13.6
	c-9.1,4.2-10.5,7.9-22.5-14.4C83.4,45.8,80.7,39.6,75,33.9z"/>
<g class="st1">
	<g>
		<path class="st2" d="M21.7,51.1c0.9-4.2,3.4-8.7,6.6-11.8c19-17.9,36.6-8,46.5,2c5.5,5.6,8.2,11.9,8.2,11.9
			c11.6,22.3,13,18.6,21.8,14.4c8.8-4.2,14.7-14.6,14.7,13.6c0,3.2-0.1,5.9-0.3,8.3c1.1-3.2,1.8-8.2,1.8-15.7
			c0-28.2-6-17.8-15.1-13.6c-9.1,4.2-10.5,7.9-22.5-14.4c0,0-2.7-6.2-8.5-11.9c-10.2-10-28.4-20-47.9-2c-3.3,3-5.9,7.5-6.8,11.8
			C17.2,56.9,0.5,61.5,5,72.9c0.3,0.7,0.8,1.3,1.5,1.8C8.1,67,19.4,61.9,21.7,51.1z"/>
	</g>
</g>
<path class="st3" d="M33.2,29.5c0,0,15.7-19.9,41.6-17.5c19.4,1.8,21.6,51.4,11.5,42.3C77.7,46.4,60.9,11,33.2,29.5z"/>
<path class="st0" d="M38.9,23.6c0,0,17.6-13.6,34.2-6.6c0,0,9.1,4.2,12.7,15C90.6,46.5,67.6,18.9,38.9,23.6z"/>
<g>
	<g>
		<ellipse transform="matrix(0.4529 -0.8916 0.8916 0.4529 -36.7186 38.7386)" class="st4" cx="13.2" cy="49.3" rx="8.7" ry="8.3"/>
		<path class="st5" d="M17.1,41.5c-4.1-2.1-9.2-0.3-11.4,4C3.6,49.8,5.2,54.9,9.3,57c4.1,2.1,9.2,0.3,11.4-4
			C22.8,48.8,21.2,43.6,17.1,41.5z M9.7,53.9c-3.2-1.6-4.5-5.7-2.8-9.1s5.7-4.8,8.9-3.1c3.2,1.6,4.5,5.7,2.8,9.1
			C16.9,54.2,12.9,55.6,9.7,53.9z"/>
	</g>
	<circle cx="10.7" cy="49" r="1.9"/>
</g>
<path class="st3" d="M119.8,58.6L119.8,58.6c1.6,33.3-17,29.5-15.6,22.7c1.4-6.8,0-13.4,0-13.4c-3.7-1.4-5.8-2.9-6.6-4.5
	c-3.5-0.1-6.9-4.1-14.1-17.6c0,0-2.7-6.2-8.5-11.9c-10.2-10-28.4-20-47.9-2c-3.3,3-5.9,7.5-6.8,11.8C17.4,56.9,0.6,61.5,5.2,72.9
	C7,77.5,17.1,76,21.5,86.8c7.2,17.3,35.7,27,62.1,4.1c0,0,11.7-15.5,18.2-7.1c6.5,8.4,19.2,22.3,19.2-10
	C121,66.2,120.6,61.4,119.8,58.6z"/>
<path class="st3" d="M36.7,98.1c0,0,27.6,28.1,42.4,10.6s8.4-31.7-0.8-23.2C69.1,94.1,60.9,102.1,36.7,98.1z"/>
<path class="st6" d="M83.4,45.8c0,0-2.7-6.2-8.5-11.9c-10.2-10-28.4-20-47.9-2c-3.3,3-5.9,7.5-6.8,11.8c-3.7,16.8-20,14.1-15.1,29.2
	c1.5,4.7,11.9,3.1,16.4,13.9c7.2,17.3,35.7,27,62.1,4.1c0,0,2.9-3.3,6.5-6.1c4-5.4,11.1-2.5,12.7-7.2c3.9-11-2.3-14.3-3.8-14.3
	C94.9,64.2,91.6,61.1,83.4,45.8z"/>
<path class="st7" d="M20.2,51.8c0.9-4.2,3.5-8.7,6.8-11.8c19.6-17.9,37.8-8,47.9,2c5.7,5.6,8.5,11.9,8.5,11.9
	c8.2,15.3,12.3,14.5,16.5,13.6c1.5,0,2.8,0.1,3.7,0.4c-1-3.5-3.7-4.7-4.6-4.7c-4.2,0.9-7.4-2.1-15.6-17.4c0,0-2.7-6.2-8.5-11.9
	c-10.2-10-28.4-20-47.9-2c-3.3,3-5.9,7.5-6.8,11.8C16.6,60.3,0.6,57.9,5,72.3C7.8,66.1,17.5,64.4,20.2,51.8z"/>
<path class="st8" d="M95.2,76.6c-3.9,2.8-6.9,6.1-6.9,6.1c-28,22.8-58.1,13.2-65.7-4.1C17.9,67.9,2.4,80.2,5.2,64.7
	c-0.8,2.1-0.8,4.6,0.4,8.2C7.2,77.6,17.6,76,22,86.8c7.2,17.3,35.7,27,62.1,4.1c0,0,2.9-3.3,6.5-6.1c4-5.4,11.1-2.5,12.7-7.2
	c0.7-2,1.1-3.7,1.2-5.2C101.6,73.1,97.8,73.3,95.2,76.6z"/>
<path class="st9" d="M5.1,72.9c0,0,4.1-0.1,10.8-4.7c3.4-2.3,6.9-3.6,4.6,0C12.4,80.4,7.1,75,7.1,75S6,74.5,5.1,72.9z"/>
<g>
	<ellipse transform="matrix(0.4529 -0.8916 0.8916 0.4529 -33.5395 48.148)" class="st10" cx="22.5" cy="51.4" rx="11.2" ry="9.8"/>
	
		<ellipse transform="matrix(0.4529 -0.8916 0.8916 0.4529 -31.9944 46.9133)" class="st4" cx="22.2" cy="49.5" rx="10.6" ry="10.1"/>
	<path class="st5" d="M27,40.1c-5-2.5-11.2-0.4-13.8,4.8s-0.7,11.5,4.3,14c5,2.5,11.2,0.4,13.8-4.8S32,42.7,27,40.1z M17.9,55.2
		c-3.9-2-5.4-6.9-3.4-11c2.1-4.1,6.9-5.8,10.9-3.8c3.9,2,5.4,6.9,3.4,11C26.7,55.5,21.9,57.2,17.9,55.2z"/>
</g>
<circle cx="19.2" cy="49.1" r="2.3"/>
<path class="st11" d="M99.5,68.3c-6.7,0-12.7,3.6-12.7,3.6c-31.1,12.3-50,8.4-64.2,0.6C12.3,67,2.4,78.6,5.2,64.7
	c-0.8,2.1-1.3,4.6-0.1,8.1c1.5,4.7,12.1,3.5,16.6,14.2c7.2,17.3,36,26.6,62.4,3.8c0,0,2.9-3.3,6.5-6.1c4-5.4,11.1-2.5,12.7-7.2
	c1.5-4.3,1.5-7.4,0.8-9.6C103,67.3,101.5,68.3,99.5,68.3z"/>
<path class="st0" d="M43.4,103.9c0,0,20.6,1.8,29.3-2.9c14.9-8.1,8.5,5.7-5.6,8C57.8,110.5,43.4,103.9,43.4,103.9z"/>
<path class="st3" d="M104.6,71l7.6,2.5c0,0-8.6-1-8,1.4C104.6,77.3,104.6,71,104.6,71z"/>
<path class="st12" d="M20.5,68.2c2.3-3.5-1.2-2.3-4.6,0c-6.7,4.6-10.8,4.7-10.8,4.7c0.5,0.9,1,1.4,1.4,1.7c0.8,0.3,2.9,0.6,5.8-2.4
	c3.7-3.7,8.6-5.4,7.3-2.8C19.9,69,20.2,68.6,20.5,68.2z"/>
<circle class="st3" cx="77.5" cy="24.9" r="2"/>
<circle class="st3" cx="67.5" cy="19.1" r="0.8"/>
<circle class="st3" cx="73.7" cy="21.8" r="1.4"/>
<circle class="st0" cx="58.8" cy="74.9" r="1.5"/>
<circle class="st0" cx="65.1" cy="73.4" r="0.8"/>
<circle class="st13" cx="64.6" cy="68.3" r="1.1"/>
<circle class="st0" cx="51.1" cy="76.4" r="1.9"/>
</svg>
