<?xml version="1.0" encoding="utf-8"?>
<!-- Generator: Adobe Illustrator 22.1.0, SVG Export Plug-In . SVG Version: 6.00 Build 0)  -->
<svg version="1.1"
	 id="svg11066" xmlns:cc="http://creativecommons.org/ns#" xmlns:dc="http://purl.org/dc/elements/1.1/" xmlns:inkscape="http://www.inkscape.org/namespaces/inkscape" xmlns:ns1="http://sozi.baierouge.fr" xmlns:rdf="http://www.w3.org/1999/02/22-rdf-syntax-ns#" xmlns:sodipodi="http://sodipodi.sourceforge.net/DTD/sodipodi-0.dtd" xmlns:svg="http://www.w3.org/2000/svg"
	 xmlns="http://www.w3.org/2000/svg" xmlns:xlink="http://www.w3.org/1999/xlink" x="0px" y="0px" viewBox="0 0 125 125"
	 style="enable-background:new 0 0 125 125;" xml:space="preserve">
<style type="text/css">
	.st0{fill:#53676C;stroke:#000000;stroke-width:0.25;stroke-linecap:round;}
	.st1{stroke:#000000;stroke-width:0.25;stroke-linecap:round;}
	.st2{fill:#1B2123;}
	.st3{fill:#22292B;}
	.st4{fill:#4E6065;stroke:#000000;stroke-width:0.25;stroke-linecap:round;}
	.st5{fill:#800000;}
	.st6{fill:#FF0000;}
	.st7{fill:#3A484B;stroke:#000000;stroke-width:0.25;stroke-linecap:round;}
	.st8{fill:#FFFFFF;stroke:#000000;stroke-width:0.25;stroke-linecap:round;}
	.st9{fill:#53676C;fill-opacity:0.734;stroke:#000000;stroke-width:0.25;stroke-linecap:round;}
</style>
<title  id="title11126">black/red fish</title>
<g id="layer1" transform="translate(-21.062 -354.12)">
	<path id="path11743-4-2" class="st0" d="M115.5,439.2c0,0.1,0,1.3-0.4,1.8c-0.8,0.9-1.1,1.8-1.4,2.3c-0.3,0.5-1.7,2.6-2.5,2.9
		c-0.7,0.4,0.8-2.1,0.7-2.7c0.1-1.3-1.1-2.6-1.2-2.7C111.4,440,115.8,438,115.5,439.2L115.5,439.2z"/>
	<path id="path1611-3" class="st1" d="M26.1,439.2c-0.2-0.8,1.6-2.4,1.5-3.4c-0.2-1,0-1.7,0.6-2.5s0.4-5.4-0.7-6.6
		c-1.1-1.2-1.8-5.4-2.3-8.1c-0.5-2.7,0.5-5.1,0-5.9c-0.5-0.8-0.8-2.6-0.8-2.6s1.4-0.6,5.2-0.8c3.8-0.2,10.3,3.1,13.6,4.3
		c3.3,1.1,7.8,0,7.8,0s14.6-5,22-9.3c11.1-6.4,20.3-7.5,32.7-5.5c12.4,2,10.2,1,12.4,2.6c2.2,1.6,12.1,4.3,19.5,13.9
		c0,0,2.4,1.6,2.7,2.6c0.4,1,1.1,1.4,1.1,2.2c0,0.9-1,3.1-2.1,3.3c-1.2,0.2-4.7,0.3-5.1,1.1c-0.4,0.8,1.4,0.9,1.4,0.9
		s5.5-1.9,5.2,0.7c-7.7,8.7-14.1,12-19.4,12.9c-2.6,0-11.2,1.4-16.6-0.1c-5.4-1.4-9.2,0.1-19.3-3.6c-2.7-0.7-8-3-10.3-3.1
		c-2.3-0.1-10.3-0.2-13.7-1c-3.4-0.8-6.1-2-9.4-1.9c-3.3,0.1-13.2,4.3-15.2,5.9C34.8,436.7,27.3,439.3,26.1,439.2L26.1,439.2z"/>
	<path id="path1611-3-03" class="st2" d="M140.6,425.6c-7.7,8.7-14.1,12-19.4,12.9c-2.6,0-11.2,1.4-16.6-0.1
		c-5.4-1.4-9.2,0.1-19.3-3.6c-2.7-0.7-8-3-10.3-3.1c-2.3-0.1-10.3-0.2-13.7-1c-3.4-0.8-6.4-1.4-9.7-1.3
		C84.7,419.8,120,453.9,140.6,425.6L140.6,425.6z"/>
	<path id="path1611-3-0" class="st3" d="M50.9,414.1c0,0,14.6-5,22-9.3c11.1-6.4,20.3-7.5,32.7-5.5c12.4,2,11.4,1.9,11.4,1.9
		c4.5,3.2,13.1,5,20.5,14.6C100.3,392.1,88.7,409.8,50.9,414.1L50.9,414.1z"/>
	<path id="path1613-3" class="st4" d="M105.2,425.2c-0.3,2.8-2,2.1-1.2,3.2c0.9,1,3.1,5.8,2.2,7.1c-1,1.2-3.7-0.4-5.5-0.7
		c-1.8-0.4-3.6-1.4-5.4-1.1c-1.8,0.3-4.7-0.2-6.5-0.4c-1.8-0.2,0-1,0.8-1.5c0.8-0.5,6.8-1.4,8-2.5c1.2-1.1,1.6-2.9,2.5-3.6
		c0.9-0.7,4.2-1.5,4.2-1.5L105.2,425.2z"/>
	<path id="path1617-4" class="st5" d="M109.2,410.8c-1.8,1.5-1.9,5.2-2.6,6.3c-0.7,1.2-1,4.9-0.7,7.6c0.3,2.7,2.3,8.9,4.2,10.7
		c1.9,1.7,6.3,3.6,7,3.5c0.7-0.1,3.7-0.1,3.7-0.1s-6.8-3.8-8.4-5.2c-1.6-1.4-3.2-2.5-4.2-5.6c-0.9-3.1-1.8-8-0.1-9.3
		C109.8,417.2,109.8,411.2,109.2,410.8L109.2,410.8z"/>
	<path id="path1615-8" class="st6" d="M109.3,412.7c-0.9,1-1.5,2-1,3.3c0.6,1.3-1.3,2.1-1.2,3.7c0.1,1.5-0.8,5.3,0,7
		c0.8,1.8,2.5,5,3.4,5.8c0.9,0.9,5.5,4.4,6.8,4.8c1.3,0.5,3.3,1.2,4,1.4l5.4-1.7c-1.1-0.7-7.9,3.1-9.6-4.6c-2.1-2,0.2-12.3,0.2-14.1
		c0-1.7-0.2-3.1-0.4-4.2c-0.5-2.1-7-5.1-7.7-3.1C109.2,411.1,109.3,411.6,109.3,412.7L109.3,412.7z"/>
	<path id="path1619-6" class="st0" d="M137.4,422.6c-1.7,0.3-3.7,0.2-4.6,1.2c-0.9,1-3.1,0.2-3.1,0.2c2.5,2,5,2.2,9,1.8
		c1.7-0.2,1.4-0.5,1.4-0.5c-2.2-1.1-7.9-0.4-5.5-1.3c0.8-0.3,4.7-1,4.7-1S138.1,422.6,137.4,422.6L137.4,422.6z"/>
	<path id="path1621-7" class="st7" d="M52.3,413.4c-1.6-2-0.2-2.3-0.6-3.7c-0.4-1.3-0.6-2.5,1-3.1c1.6-0.6,2.7-0.3,6.3-1.5
		c3.6-1.2,6.3-1.5,8.5-0.9c2.2,0.6,2.9,0.7,4.5,0.7c1.6,0.1-2.3,1.4-4.7,2.4C61.6,411,53.8,412.6,52.3,413.4L52.3,413.4z"/>
	<path id="path1623-0" class="st7" d="M50.7,435.3c-1.1-1.1-0.1-2.9,0.6-4.6c0.7-1.7,0-1.3,1.4-1.4c1.4-0.1,6.2,1.9,9.1,1.7
		c4.3,0.3,10.6-0.9,14.5,1c0,0,1.3,1.2-1.9,1.9c-3.2,0.8-12.7,1.5-14.3,2.1C58.5,436.6,51.7,436.4,50.7,435.3L50.7,435.3z"/>
	<path id="path1625-4" class="st8" d="M129.2,414.2c0.3,1.4-0.7,2.8-2.1,3.1c-1.4,0.3-2.8-0.7-3.1-2.1c-0.3-1.4,0.7-2.8,2.1-3.1
		S128.9,412.7,129.2,414.2z"/>
	<path id="path1627-7" class="st1" d="M128.2,414.8c0.1,0.4-0.2,0.8-0.6,0.9c-0.4,0.1-0.8-0.2-0.9-0.6c-0.1-0.4,0.2-0.8,0.6-0.9
		S128.1,414.4,128.2,414.8z"/>
	<path id="path1611-37-5" class="st9" d="M26.8,438.6c-0.1-0.8,1.5-2.2,1.4-3.2c-0.2-0.9,0-1.6,0.5-2.4c0.5-0.7,0.4-5.1-0.7-6.2
		c-1-1.1-1.7-5.1-2.2-7.6c-0.5-2.5,0.4-4.8,0-5.5c-0.5-0.7-0.8-2.5-0.8-2.5s1.4-0.6,4.9-0.7c3.5-0.2,9.2,4.2,12.4,5.2
		c-2.2,4.8-2.7,9.6,2.8,13.2C43.3,430.4,27.9,438.7,26.8,438.6L26.8,438.6z"/>
	<path id="path11743-4" class="st0" d="M114.2,438.5c0.1,0.1,0.2,1.6-0.3,2.2c-0.8,1.2-1.2,2.3-1.4,3c-0.3,0.6-1.8,3.4-2.6,3.9
		c-0.8,0.6,0.8-2.7,0.6-3.3c0-1.6-1.7-3-1.8-3.2C109.3,440,114.4,437,114.2,438.5L114.2,438.5z"/>
</g>
</svg>
