<?xml version="1.0" encoding="utf-8"?>
<!-- Generator: Adobe Illustrator 16.0.4, SVG Export Plug-In . SVG Version: 6.00 Build 0)  -->
<!DOCTYPE svg PUBLIC "-//W3C//DTD SVG 1.1//EN" "http://www.w3.org/Graphics/SVG/1.1/DTD/svg11.dtd">
<svg version="1.1" id="Layer_1" xmlns="http://www.w3.org/2000/svg" xmlns:xlink="http://www.w3.org/1999/xlink" x="0px" y="0px"
	 width="170px" height="170px" viewBox="0 0 170 170" enable-background="new 0 0 170 170" xml:space="preserve">
<title>Artboard 9</title>
<g>
	<path fill="#AB5E6D" d="M79.224,102.152c-0.375-1.528-0.706-3.064-0.97-4.615c-0.256-1.508,0.387-3.018,1.6-3.951
		c1.195-0.919,2.244-1.952,3.154-3.107c-1.646-0.369-3.28-0.819-4.883-1.397c-1.293,3.133-3.191,5.632-5.768,7.614
		c-0.203,0.156-0.383,0.332-0.553,0.521c0.421,1.602,0.89,3.434,1.167,4.957c0.441,2.434,2.099,4.479,4.438,5.279
		c1.054,0.357,2.064,0.844,3.002,1.443c0.717,0.459,1.437,1.004,2.284,1.095c0.49,0.054,0.981-0.054,1.462-0.156
		c1.305-0.284,2.686-0.242,3.989-0.524c-1.472-1.502-3.309-2.767-5.309-3.363C81.048,105.407,79.668,103.969,79.224,102.152z"/>
	<path fill="#AB5E6D" d="M119.846,83.689c-0.012,0.154-0.021,0.312-0.039,0.47c-0.981,3.95-2.763,7.569-5.216,10.86
		c-0.184,3.099,0.249,6.549,0.568,9.638c1.554,1.102,3.431,1.911,5.272,2.396c1.051,0.277,2.094,0.668,3.012,1.271
		c0.304,0.198,0.008,0.698-0.346,0.614c-1.467-0.35-2.906-0.797-4.312-1.34c1.978,1.183,5.942,2.688,5.928,3.508
		c-0.011,0.549-5.384-0.789-7.344-2.602c0.164,0.35,2.004,2.201,2.307,2.648c0.304,0.445,0.688,0.795,0.162,0.924
		c-0.354,0.088-1.794-0.821-2.089-1.033c-1.667-1.189-3.334-2.378-5.002-3.568c-0.682-0.484-0.998-1.291-0.992-2.127v-0.015
		c-0.441,0.289-0.938,0.494-1.453,0.606c-0.55,0.117-0.939-0.533-0.566-0.953c0.438-0.496,1.039-0.854,1.691-0.967
		c-0.634-3.319-1.162-7.269-1.796-10.59c-0.062-0.328-0.089-0.662-0.09-0.998c0.767-1.812,1.36-3.693,1.751-5.66
		C114.238,86.021,117.102,84.982,119.846,83.689z"/>
	<path fill="#FBD795" d="M85.921,109.359c0.927,0.399,1.733,0.494,2.738,0.388c0.063-0.747-0.22-1.515-0.751-2.042
		c-0.534-0.528-1.307-0.803-2.051-0.729C85.279,107.979,85.586,108.557,85.921,109.359z"/>
	<path fill="#FBD795" d="M84.096,109.76c0.925,0.401,1.734,0.494,2.738,0.389c0.062-0.746-0.219-1.517-0.752-2.043
		c-0.531-0.525-1.305-0.801-2.049-0.729C83.584,108.376,83.617,108.98,84.096,109.76z"/>
	<path fill="#FBD795" d="M82.032,110.372c0.926,0.401,1.732,0.493,2.736,0.389c0.065-0.747-0.218-1.517-0.751-2.044
		c-0.532-0.525-1.304-0.801-2.05-0.729C81.642,108.376,81.272,109.787,82.032,110.372z"/>
	<path fill="#CD729A" d="M1.593,48.977c17.022,3.109,33.116,11.144,45.833,22.877c4.684,4.321,9.403,9.189,15.541,10.901
		c2.245,4.269,0.905,8.224,0.435,13.753c-0.053,0.637,1.469,5.438,2.073,8.771c0.44,2.434,2.099,4.479,4.438,5.277
		c1.053,0.359,2.063,0.848,3.001,1.446c0.718,0.459,1.437,1.001,2.285,1.092c0.491,0.054,0.981-0.053,1.462-0.155
		c1.304-0.282,2.687-0.242,3.991-0.523c-1.472-1.504-3.308-2.768-5.307-3.365c-1.792-0.535-3.171-1.975-3.618-3.791
		c-0.374-1.527-0.706-3.064-0.969-4.613c-0.256-1.508,0.387-3.019,1.599-3.951c2.577-1.981,4.475-4.48,5.768-7.613
		c7.54,2.719,15.65,3.124,23.471,1.375c0.188,2.579-1.429,5.355-0.941,7.896c0.634,3.319,1.16,7.269,1.796,10.59
		c-0.653,0.113-1.257,0.469-1.692,0.966c-0.369,0.421,0.018,1.069,0.562,0.952c0.52-0.11,1.016-0.316,1.457-0.605
		c-0.01,0.842,0.309,1.653,0.992,2.143c1.666,1.189,3.334,2.379,5.002,3.569c0.295,0.209,1.735,1.119,2.088,1.031
		c0.523-0.129,0.143-0.478-0.159-0.925c-0.306-0.446-2.146-2.297-2.31-2.646c1.959,1.812,7.332,3.148,7.344,2.598
		c0.019-0.816-3.949-2.324-5.928-3.506c1.432,0.556,2.899,1.008,4.396,1.358c0.381,0.091,0.589-0.42,0.261-0.635
		c-0.917-0.601-1.959-0.99-3.011-1.267c-1.843-0.485-3.72-1.299-5.271-2.396c-0.32-3.089-0.752-6.541-0.568-9.641
		c2.732-3.668,4.641-7.739,5.527-12.229c15.951-4.062,29.488-16.575,34.793-32.159c0.799-2.344,1.551-4.934,3.582-6.352
		c2.077-1.449,4.838-1.216,7.359-1.453c3.049-0.286,6.021-1.358,8.543-3.097c0.453-0.312,0.807-0.762,0.948-1.291
		c0.47-1.752-1.534-2.728-3.087-3.364c-3.707-1.522-6.853-4.177-10.526-5.775c-4.661-2.027-10.789-0.224-13.795,3.875
		c-1.353,1.843-2.438,3.861-3.392,6.013c-1.953,4.402-3.463,9.104-7.223,12.429c-1.408,1.243-3.096,2.163-4.945,2.485
		c-5.898,1.033-9.551-3.932-13.489-7.545c-8.427-7.729-21.306-10.207-31.995-6.158c-7.552,2.858-13.843,8.599-21.597,10.85
		c-8.831,2.562-18.276,0.27-27.096-2.331C20.399,51.232,10.693,47.656,1.593,48.977z"/>
	<path fill="#AE6190" d="M151.348,48.148c0,0-0.142-0.035-0.392-0.088c-0.126-0.021-0.274-0.062-0.438-0.106
		c-0.166-0.041-0.349-0.095-0.549-0.163c-0.199-0.061-0.408-0.146-0.631-0.232c-0.223-0.08-0.441-0.205-0.678-0.307
		c-0.227-0.122-0.46-0.247-0.688-0.393c-0.236-0.129-0.451-0.299-0.678-0.453c-0.212-0.17-0.438-0.328-0.628-0.516
		c-0.203-0.179-0.392-0.365-0.571-0.549c-0.164-0.195-0.348-0.369-0.488-0.56c-0.146-0.188-0.289-0.363-0.403-0.538
		c-0.242-0.344-0.425-0.646-0.544-0.868c-0.121-0.221-0.196-0.351-0.196-0.351s0.015,0.146,0.056,0.397
		c0.02,0.13,0.053,0.281,0.107,0.453c0.046,0.175,0.107,0.369,0.201,0.571c0.08,0.21,0.189,0.425,0.32,0.646
		c0.121,0.229,0.281,0.446,0.449,0.675c0.182,0.213,0.354,0.447,0.577,0.645c0.206,0.213,0.445,0.396,0.679,0.59
		c0.25,0.164,0.494,0.342,0.758,0.479c0.252,0.154,0.529,0.254,0.785,0.367c0.265,0.094,0.521,0.187,0.771,0.236
		c0.248,0.061,0.486,0.104,0.711,0.121c0.221,0.031,0.428,0.034,0.607,0.029c0.184,0.002,0.338-0.008,0.463-0.028
		C151.203,48.175,151.348,48.148,151.348,48.148z"/>
	<circle fill="#AE6190" cx="152.592" cy="40.813" r="3.556"/>
	<circle fill="#FFFFFF" cx="153.201" cy="40.302" r="2.728"/>
	<circle fill="#501940" cx="153.2" cy="40.302" r="2.047"/>
	<circle fill="#FFFFFF" cx="154.525" cy="39.226" r="0.722"/>
	<path fill="#501940" d="M158.568,44.252c0.158,0.046,0.345,0.077,0.541,0.12c0.801,0.144,1.877,0.244,2.961,0.28
		c0.541,0.011,1.084-0.002,1.592-0.021c0.508-0.014,0.979-0.05,1.382-0.092c0.22-0.021,0.41-0.039,0.58-0.062
		c-0.069,0.06-0.136,0.119-0.208,0.168c-0.281,0.192-0.57,0.377-0.861,0.554c-0.275,0.022-0.562,0.043-0.871,0.055
		c-0.521,0.026-1.08-0.002-1.638-0.026c-0.558-0.041-1.114-0.086-1.63-0.188c-0.518-0.089-0.993-0.228-1.389-0.371
		c-0.194-0.082-0.379-0.139-0.529-0.222s-0.286-0.146-0.391-0.215c-0.203-0.135-0.312-0.219-0.312-0.219s0.137,0.041,0.359,0.125
		C158.266,44.182,158.41,44.208,158.568,44.252z"/>
	<path fill="#501940" d="M164.794,42.15c-0.183-0.483-0.858-1.198-1.205-0.813C163.218,41.751,164.264,42.312,164.794,42.15z"/>
	<g>
		<path fill="#FFB663" d="M74.957,46.6l0.171,5.61c0.019,0.604-0.122,1.218-0.469,1.715c-1.325,1.902-3.788,0.308-4.319-1.542
			c-0.287-1.006-0.263-2.062-0.292-3.113C69.16,49.79,71.884,48.188,71,48.712C73.928,46.968,75.414,46.378,74.957,46.6z"/>
		<path fill="#FFB663" d="M26.077,53.988l-0.227-1.172c0.925,0.283,1.841,0.562,2.75,0.832c-0.006,0.104-0.013,0.207-0.027,0.312
			c-0.001,0.01-0.003,0.021-0.005,0.032C28.359,55.369,26.342,55.355,26.077,53.988z"/>
		<path fill="#FFB663" d="M89.529,50.536c-0.276-1.248,0.121-2.531,0.341-3.789c0.19-1.097,0.229-2.213,0.142-3.322
			c-0.361-0.015,2.567,0.162,4.367,0.485l-0.713,6.434c-0.064,0.581-0.273,1.149-0.665,1.586
			C91.701,53.379,89.863,52.038,89.529,50.536z"/>
		<path fill="#FFB663" d="M84.385,58.448c-0.379,1.188-0.95,2.375-2.092,2.997c-0.665,0.361-1.479,0.433-2.153,0.087
			c-1.456-0.748-1.359-2.736-1.085-4.306c0.664-3.791,2.171-12.427,2.237-12.957c1.442-0.354,2.908-0.598,4.386-0.735
			C85.017,48.339,85.891,53.749,84.385,58.448z"/>
		<path fill="#FFB663" d="M49.282,60.025c-0.15-0.67-0.215-1.368-0.215-2.039c0-0.241,0.005-0.485,0.014-0.729
			c0.726-0.021,1.451-0.06,2.173-0.132l0.08,2.646C51.37,61.032,49.559,61.255,49.282,60.025z"/>
		<path fill="#FFB663" d="M36.83,57.629l-0.755-1.941c0.738,0.177,1.479,0.338,2.222,0.489c-0.007,0.398-0.014,0.796-0.021,1.193
			C38.262,58.191,37.127,58.396,36.83,57.629z"/>
		<path fill="#FFB663" d="M32.852,58.412c-0.75-0.212-0.927-0.91-1.068-1.546c-0.181-0.816-0.362-1.634-0.544-2.449
			c1.108,0.313,2.225,0.617,3.347,0.901c0.229,0.714,0.316,1.442-0.014,2.207C34.284,58.193,33.552,58.609,32.852,58.412z"/>
		<path fill="#FFB663" d="M43.406,64.008c-0.695,0.305-1.507-0.018-1.911-0.658c-0.861-1.371-0.265-2.834,0.011-4.256
			c0.148-0.764,0.192-1.544,0.146-2.318c0.858,0.13,1.716,0.236,2.574,0.317c0.027,1.58,0.054,3.161,0.081,4.742
			C44.321,62.664,44.284,63.624,43.406,64.008z"/>
		<path fill="#FFB663" d="M60.546,57.167c-0.005-0.012-0.009-0.022-0.014-0.035c-0.278-0.748-0.379-1.546-0.51-2.336
			c0.63-0.276,1.255-0.563,1.873-0.872c0.194,0.856,0.406,1.708,0.649,2.553C62.913,57.751,61.023,58.405,60.546,57.167z"/>
		<path fill="#FFB663" d="M121.165,59.128c0.028,0.002,0.06,0.006,0.088,0.009C121.225,59.134,121.193,59.13,121.165,59.128z"/>
		<path fill="#FFB663" d="M120.471,59.042c0.055,0.01,0.108,0.019,0.164,0.024C120.58,59.061,120.523,59.052,120.471,59.042z"/>
		<path fill="#FFB663" d="M121.88,59.155c0.054,0,0.108-0.003,0.163-0.005C121.988,59.152,121.934,59.155,121.88,59.155z"/>
		<path fill="#FFB663" d="M118.033,58.268c-0.452,1.434-1.043,2.817-1.816,4.133c-0.285,0.483-0.646,1-1.336,0.904
			c-0.578-0.082-1.031-0.562-1.137-1.136c-0.35-1.91,0.322-3.739,0.762-5.578c0.051-0.202,0.096-0.409,0.137-0.618
			C115.709,56.886,116.824,57.693,118.033,58.268z"/>
		<path fill="#FFB663" d="M119.873,58.924c0.033,0.008,0.066,0.014,0.098,0.021C119.939,58.938,119.906,58.932,119.873,58.924z"/>
		<path fill="#FFB663" d="M64.756,52.387c0.774-0.438,1.545-0.892,2.312-1.349c0.216,1.481,0.432,2.965,0.646,4.446
			c0.091,0.617,0.164,1.316-0.423,1.738c-0.54,0.389-1.299,0.243-1.743-0.253c-0.927-1.03-0.63-2.36-0.675-3.604
			C64.861,53.036,64.82,52.709,64.756,52.387z"/>
		<path fill="#FFB663" d="M101.561,61.468c-0.617-3.711,0.649-7.436,1.574-11.082c0.266-1.051,0.499-2.137,0.652-3.229
			c2.064,1.101,4.001,2.438,5.757,3.993c-0.472,0.735-0.657,1.703-0.795,2.594c-0.321,2.081-0.644,4.16-0.964,6.24
			c-0.21,1.363-0.439,2.776-1.393,3.843c-0.521,0.582-1.25,0.978-2.031,0.965C102.674,64.766,101.818,63.021,101.561,61.468z"/>
		<path fill="#FFB663" d="M100.016,45.457c-0.137,0.841-0.197,1.693-0.16,2.547c0.054,1.225,0.276,2.487-0.371,3.61
			c-0.262,0.452-0.688,0.812-1.194,0.936c-1.269,0.304-2.042-0.844-2.125-1.918c-0.065-0.842,0.188-1.672,0.336-2.504
			c0.224-1.247,0.19-2.532-0.056-3.774C97.656,44.652,98.848,45.02,100.016,45.457z"/>
		<path fill="#FFB663" d="M119.186,58.729c0.035,0.011,0.068,0.022,0.104,0.032C119.254,58.751,119.221,58.736,119.186,58.729z"/>
		<path fill="#FFB663" d="M118.58,58.506c0.043,0.018,0.087,0.034,0.13,0.051C118.667,58.54,118.623,58.523,118.58,58.506z"/>
		<path fill="#FFB663" d="M58.926,60.535c0.086,1.64-2.33,1.876-2.529,0.246c-0.031-0.251-0.056-0.502-0.075-0.751
			c-0.099-1.267-0.101-2.552-0.208-3.814c-0.416,0.117-0.281,0.089,0.201-0.052c0.66-0.191,1.306-0.416,1.946-0.654
			C58.612,57.165,58.837,58.848,58.926,60.535z"/>
		<path fill="#FFB663" d="M122.729,59.107c-0.062,0.008-0.125,0.013-0.188,0.018C122.604,59.12,122.667,59.115,122.729,59.107z"/>
		<path fill="#FFB663" d="M4.839,48.708c0.211-0.006,0.422-0.005,0.634-0.006C5.261,48.703,5.05,48.702,4.839,48.708z"/>
		<path fill="#FFB663" d="M20.395,51.193c0.215,0.062,0.43,0.121,0.644,0.184C20.825,51.314,20.61,51.255,20.395,51.193z"/>
		<path fill="#FFB663" d="M22.083,51.682c0.198,0.061,0.396,0.116,0.592,0.176C22.479,51.798,22.281,51.739,22.083,51.682z"/>
		<path fill="#FFB663" d="M18.726,50.732c0.223,0.062,0.444,0.121,0.667,0.183C19.17,50.854,18.948,50.794,18.726,50.732z"/>
		<path fill="#FFB663" d="M23.854,52.21c0.145,0.045,0.29,0.088,0.434,0.132C24.144,52.298,23.999,52.255,23.854,52.21z"/>
		<path fill="#FFB663" d="M3.745,48.764c-0.179,0.012-0.357,0.019-0.536,0.031C3.388,48.78,3.566,48.773,3.745,48.764z"/>
		<path fill="#FFB663" d="M17.067,50.307c0.216,0.053,0.43,0.108,0.645,0.163C17.497,50.415,17.283,50.357,17.067,50.307z"/>
		<path fill="#FFB663" d="M9.833,48.95c0.208,0.022,0.417,0.045,0.625,0.071C10.249,48.995,10.041,48.975,9.833,48.95z"/>
		<path fill="#FFB663" d="M15.411,49.913c0.186,0.042,0.371,0.087,0.557,0.131C15.781,50,15.596,49.955,15.411,49.913z"/>
		<path fill="#FFB663" d="M6.483,48.709c0.22,0.005,0.441,0.016,0.663,0.023C6.924,48.725,6.703,48.714,6.483,48.709z"/>
		<path fill="#FFB663" d="M8.145,48.791c0.22,0.016,0.439,0.032,0.659,0.052C8.584,48.823,8.364,48.807,8.145,48.791z"/>
		<path fill="#FFB663" d="M11.594,49.188c0.171,0.026,0.342,0.049,0.512,0.078C11.936,49.236,11.765,49.214,11.594,49.188z"/>
		<path fill="#FFB663" d="M13.755,49.562c0.025,0.004,0.05,0.011,0.075,0.017C13.805,49.573,13.78,49.566,13.755,49.562z"/>
	</g>
	<g>
		<path fill="#FFB663" d="M140.828,43.305c-0.441,1.057-2.038,1.028-2.956,0.344c-0.544-0.405-0.956-0.953-1.375-1.489
			c0.487-0.961,1.009-1.894,1.585-2.784c0.316,0.331,0.648,0.648,1.006,0.938C140.059,41.094,141.309,42.154,140.828,43.305z"/>
		<path fill="#FFB663" d="M120.275,63.064c-0.627-0.276-0.795-1.071-0.881-1.752c-0.111-0.877-0.226-1.754-0.334-2.631
			c0.904,0.312,1.864,0.485,2.896,0.474c0.04,0.327,0.079,0.657,0.119,0.985c0.084,0.694,0.163,1.43-0.114,2.073
			C121.688,62.857,120.918,63.348,120.275,63.064z"/>
		<path fill="#FFB663" d="M131.209,56.486c-0.452-0.584-0.729-1.267-0.963-1.969c0.988-1.244,1.789-2.604,2.497-4.021
			c0.899,1.196,1.629,2.522,2.147,3.93c0.277,0.755,0.488,1.623,0.111,2.332C134.296,58.093,132.134,57.682,131.209,56.486z"/>
		<path fill="#FFB663" d="M140.419,51.761c-0.565,0.539-1.521,0.431-2.171-0.008c-0.648-0.438-1.078-1.125-1.54-1.756
			c-0.726-0.99-1.575-1.888-2.521-2.668c0.459-1.076,1.389-3.247,1.389-3.247c1.33,1.415,2.658,2.831,3.988,4.246
			C140.466,49.288,141.373,50.854,140.419,51.761z"/>
		<path fill="#FFB663" d="M128.146,62.193c-1.125,0.526-2.442-0.366-3.062-1.444c-0.354-0.614-0.566-1.276-0.717-1.965
			c1.447-0.429,2.775-1.207,3.921-2.207c0.151,0.42,0.304,0.84,0.455,1.26C129.296,59.357,129.611,61.508,128.146,62.193z"/>
	</g>
	<path fill="#FBD795" d="M78.726,112.668c0.926,0.4,1.734,0.492,2.737,0.387c0.064-0.746-0.218-1.516-0.75-2.041
		c-0.534-0.529-1.306-0.804-2.051-0.729C78.084,111.284,78.391,111.864,78.726,112.668z"/>
	<path fill="#FBD795" d="M76.901,113.066c0.926,0.401,1.734,0.494,2.738,0.388c0.064-0.745-0.219-1.517-0.751-2.042
		c-0.533-0.526-1.305-0.803-2.05-0.729C76.389,111.684,76.422,112.287,76.901,113.066z"/>
	<path fill="#FBD795" d="M74.837,113.68c0.926,0.402,1.733,0.493,2.737,0.389c0.063-0.748-0.219-1.517-0.751-2.045
		c-0.532-0.523-1.305-0.801-2.05-0.728C74.447,111.684,74.077,113.094,74.837,113.68z"/>
	<g opacity="0.16">
		<path fill="#FFFFFF" d="M166.363,43.357c-0.586-0.819-1.786-1.373-2.795-1.787c-3.705-1.522-6.854-4.178-10.527-5.774
			c-4.661-2.027-10.79-0.225-13.796,3.874c-1.351,1.842-2.437,3.862-3.39,6.012c-1.953,4.404-3.463,9.104-7.225,12.43
			c-1.404,1.244-3.096,2.162-4.943,2.486c-5.898,1.032-9.551-3.933-13.49-7.548c-8.426-7.729-21.305-10.207-31.997-6.157
			c-7.551,2.859-13.841,8.601-21.596,10.851c-8.831,2.563-18.276,0.271-27.096-2.33c-6.945-2.047-14.437-4.688-21.75-5.082
			c-2.039-0.521-4.095-0.976-6.165-1.354c9.1-1.318,18.806,2.258,27.625,4.856c8.82,2.601,18.266,4.896,27.096,2.331
			c7.754-2.251,14.045-7.989,21.597-10.85c10.69-4.049,23.569-1.569,31.995,6.158c3.939,3.613,7.591,8.577,13.49,7.545
			c1.851-0.322,3.537-1.242,4.944-2.485c3.761-3.325,5.271-8.024,7.224-12.429c0.953-2.149,2.039-4.17,3.391-6.013
			c3.006-4.1,9.134-5.902,13.795-3.875c3.676,1.599,6.82,4.252,10.527,5.775C164.83,40.632,166.834,41.605,166.363,43.357z"/>
	</g>
	<g opacity="0.27">
		<path fill="#AB5E6D" d="M111.318,84.771c0.938-0.24,1.873-0.498,2.798-0.787c9.377-2.926,17.993-8.23,24.866-15.245
			c-6.801,9.209-16.735,16.141-27.846,18.97c-0.007,0.027-0.014,0.057-0.019,0.085c-0.017,0.006-0.032,0.011-0.048,0.017
			C111.271,86.812,111.359,85.797,111.318,84.771z"/>
	</g>
	<g opacity="0.27">
		<path fill="#AB5E6D" d="M79.684,84.307c0.281,0.082,0.558,0.17,0.84,0.246c6.842,1.885,14.02,2.504,21.087,1.883
			c0.021,1.356,0.043,2.711,0.063,4.067c-0.047-0.009-0.075-0.022-0.079-0.049c-7.736,1.729-15.76,1.349-23.229-1.293
			C79.046,87.625,79.498,85.992,79.684,84.307z"/>
	</g>
	<g opacity="0.27">
		<path fill="#AB5E6D" d="M62.756,76.995c-0.054,1.897-0.158,3.842,0.122,5.706c-0.067-0.02-0.111-0.025-0.126-0.016
			c-6.032-1.767-10.697-6.563-15.324-10.834c-6.317-5.828-13.468-10.74-21.15-14.595c-1.211-0.946-2.469-1.838-3.793-2.649
			C36.944,59.753,49.35,69.589,62.756,76.995z"/>
	</g>
</g>
</svg>
