<?xml version="1.0" encoding="utf-8"?>
<!-- Generator: Adobe Illustrator 16.0.4, SVG Export Plug-In . SVG Version: 6.00 Build 0)  -->
<!DOCTYPE svg PUBLIC "-//W3C//DTD SVG 1.1//EN" "http://www.w3.org/Graphics/SVG/1.1/DTD/svg11.dtd">
<svg version="1.1" id="Layer_1" xmlns="http://www.w3.org/2000/svg" xmlns:xlink="http://www.w3.org/1999/xlink" x="0px" y="0px"
	 width="170px" height="170px" viewBox="0 0 170 170" enable-background="new 0 0 170 170" xml:space="preserve">
<title>Artboard 9</title>
<g>
	<path fill="#AB5E6D" d="M79.224,151.153c-0.375-1.529-0.706-3.065-0.97-4.616c-0.256-1.508,0.387-3.017,1.6-3.951
		c1.195-0.919,2.244-1.952,3.154-3.107c-1.646-0.37-3.28-0.821-4.883-1.399c-1.293,3.133-3.191,5.632-5.768,7.615
		c-0.203,0.156-0.383,0.333-0.553,0.521c0.421,1.601,0.89,3.433,1.167,4.957c0.441,2.433,2.099,4.479,4.438,5.279
		c1.054,0.359,2.064,0.844,3.002,1.445c0.717,0.459,1.437,1.003,2.284,1.093c0.49,0.054,0.981-0.052,1.462-0.156
		c1.305-0.284,2.686-0.242,3.99-0.526c-1.471-1.502-3.308-2.765-5.308-3.362C81.048,154.407,79.668,152.969,79.224,151.153z"/>
	<path fill="#AB5E6D" d="M119.846,132.689c-0.012,0.156-0.021,0.312-0.039,0.47c-0.983,3.95-2.763,7.569-5.216,10.86
		c-0.184,3.099,0.249,6.55,0.568,9.638c1.554,1.102,3.431,1.911,5.272,2.396c1.052,0.277,2.094,0.667,3.012,1.269
		c0.304,0.199,0.008,0.699-0.346,0.615c-1.465-0.349-2.905-0.797-4.31-1.339c1.977,1.181,5.944,2.687,5.928,3.507
		c-0.011,0.55-5.384-0.788-7.344-2.601c0.164,0.35,2.004,2.201,2.307,2.648c0.303,0.445,0.687,0.795,0.162,0.924
		c-0.353,0.088-1.794-0.821-2.089-1.033c-1.667-1.189-3.334-2.378-5.002-3.568c-0.681-0.486-0.998-1.291-0.992-2.127v-0.015
		c-0.442,0.289-0.939,0.494-1.455,0.606c-0.548,0.117-0.938-0.533-0.565-0.953c0.438-0.496,1.038-0.852,1.691-0.966
		c-0.633-3.32-1.162-7.268-1.795-10.59c-0.063-0.328-0.089-0.663-0.09-0.999c0.765-1.811,1.361-3.693,1.751-5.66
		C114.239,135.022,117.102,133.982,119.846,132.689z"/>
	<path fill="#FBD795" d="M85.921,158.36c0.927,0.4,1.734,0.493,2.738,0.387c0.063-0.747-0.22-1.515-0.751-2.042
		c-0.534-0.528-1.306-0.802-2.051-0.729C85.279,156.978,85.586,157.557,85.921,158.36z"/>
	<path fill="#FBD795" d="M84.096,158.76c0.925,0.401,1.734,0.494,2.738,0.388c0.063-0.746-0.219-1.516-0.752-2.043
		c-0.531-0.526-1.305-0.801-2.049-0.729C83.584,157.376,83.617,157.98,84.096,158.76z"/>
	<path fill="#FBD795" d="M82.032,159.372c0.926,0.402,1.732,0.493,2.736,0.389c0.065-0.747-0.218-1.517-0.751-2.044
		c-0.532-0.526-1.304-0.801-2.05-0.729C81.642,157.376,81.272,158.787,82.032,159.372z"/>
	<path fill="#CD729A" d="M1.593,97.976c17.022,3.11,33.116,11.143,45.833,22.877c4.684,4.322,9.403,9.19,15.541,10.902
		c2.245,4.268,0.905,8.224,0.435,13.753c-0.053,0.636,1.469,5.438,2.073,8.771c0.44,2.434,2.099,4.479,4.438,5.278
		c1.053,0.36,2.063,0.847,3.001,1.447c0.718,0.459,1.437,1.001,2.285,1.092c0.491,0.053,0.981-0.053,1.462-0.157
		c1.304-0.282,2.687-0.242,3.991-0.523c-1.472-1.504-3.308-2.767-5.307-3.365c-1.792-0.535-3.171-1.975-3.618-3.791
		c-0.374-1.527-0.706-3.065-0.969-4.613c-0.256-1.509,0.387-3.019,1.599-3.951c2.577-1.983,4.475-4.482,5.768-7.615
		c7.54,2.719,15.651,3.124,23.471,1.375c0.186,2.579-1.429,5.356-0.942,7.896c0.633,3.32,1.161,7.268,1.795,10.59
		c-0.653,0.113-1.255,0.468-1.692,0.965c-0.371,0.421,0.017,1.07,0.564,0.953c0.518-0.111,1.014-0.317,1.456-0.606
		c-0.01,0.842,0.308,1.653,0.992,2.142c1.667,1.19,3.335,2.38,5.002,3.57c0.295,0.209,1.736,1.119,2.089,1.031
		c0.523-0.129,0.141-0.478-0.161-0.925c-0.304-0.446-2.145-2.297-2.308-2.646c1.959,1.812,7.331,3.148,7.343,2.598
		c0.018-0.818-3.95-2.326-5.927-3.506c1.431,0.554,2.899,1.008,4.394,1.358c0.381,0.091,0.589-0.42,0.261-0.635
		c-0.917-0.601-1.959-0.99-3.011-1.267c-1.842-0.485-3.718-1.297-5.272-2.396c-0.319-3.089-0.751-6.541-0.567-9.64
		c2.732-3.668,4.64-7.74,5.527-12.228c15.952-4.062,29.489-16.575,34.793-32.159c0.798-2.344,1.551-4.934,3.582-6.352
		c2.078-1.449,4.837-1.215,7.36-1.453c3.049-0.286,6.02-1.359,8.543-3.095c0.453-0.312,0.806-0.763,0.948-1.292
		c0.47-1.752-1.534-2.727-3.086-3.365c-3.706-1.523-6.852-4.177-10.527-5.775c-4.661-2.027-10.789-0.224-13.795,3.875
		c-1.352,1.842-2.437,3.861-3.39,6.012c-1.954,4.403-3.463,9.103-7.223,12.428c-1.408,1.244-3.096,2.163-4.945,2.486
		c-5.9,1.033-9.551-3.931-13.491-7.545c-8.426-7.729-21.304-10.207-31.995-6.158c-7.552,2.859-13.843,8.598-21.597,10.849
		c-8.831,2.563-18.276,0.269-27.096-2.331C20.399,100.233,10.693,96.656,1.593,97.976z"/>
	<path fill="#AE6190" d="M151.348,97.149c0,0-0.142-0.036-0.392-0.088c-0.126-0.02-0.274-0.062-0.438-0.107
		c-0.166-0.041-0.349-0.094-0.549-0.163c-0.2-0.06-0.409-0.147-0.631-0.232c-0.223-0.081-0.442-0.206-0.678-0.307
		c-0.227-0.122-0.46-0.247-0.688-0.392c-0.235-0.129-0.451-0.299-0.676-0.454c-0.212-0.17-0.437-0.328-0.628-0.516
		c-0.203-0.177-0.39-0.364-0.573-0.547c-0.163-0.196-0.346-0.37-0.487-0.56c-0.146-0.188-0.29-0.363-0.404-0.538
		c-0.242-0.342-0.425-0.648-0.544-0.868c-0.121-0.221-0.196-0.349-0.196-0.349s0.015,0.144,0.056,0.397
		c0.018,0.129,0.052,0.281,0.107,0.453c0.046,0.175,0.107,0.369,0.201,0.571c0.08,0.21,0.19,0.425,0.32,0.646
		c0.122,0.229,0.282,0.447,0.449,0.674c0.183,0.213,0.356,0.449,0.579,0.645c0.206,0.213,0.445,0.396,0.677,0.59
		c0.251,0.164,0.495,0.341,0.758,0.478c0.252,0.155,0.529,0.255,0.785,0.368c0.265,0.094,0.521,0.185,0.773,0.236
		c0.248,0.061,0.487,0.104,0.711,0.121c0.22,0.031,0.426,0.034,0.608,0.029c0.183,0.002,0.337-0.008,0.462-0.028
		C151.203,97.175,151.348,97.149,151.348,97.149z"/>
	<circle fill="#AE6190" cx="152.592" cy="89.813" r="3.556"/>
	<circle fill="#FFFFFF" cx="153.201" cy="89.302" r="2.728"/>
	<circle fill="#501940" cx="153.2" cy="89.302" r="2.047"/>
	<circle fill="#FFFFFF" cx="154.525" cy="88.226" r="0.722"/>
	<path fill="#501940" d="M158.568,93.252c0.158,0.046,0.345,0.077,0.542,0.12c0.8,0.143,1.877,0.244,2.96,0.28
		c0.542,0.011,1.085-0.002,1.592-0.019c0.508-0.014,0.979-0.05,1.382-0.092c0.219-0.019,0.41-0.039,0.58-0.061
		c-0.069,0.059-0.135,0.119-0.208,0.169c-0.281,0.192-0.57,0.376-0.861,0.552c-0.276,0.023-0.563,0.043-0.871,0.055
		c-0.523,0.026-1.081-0.002-1.638-0.027c-0.557-0.041-1.114-0.086-1.63-0.189c-0.518-0.089-0.993-0.227-1.388-0.371
		c-0.195-0.082-0.379-0.139-0.53-0.222s-0.286-0.145-0.39-0.214c-0.204-0.135-0.313-0.219-0.313-0.219s0.136,0.041,0.359,0.124
		C158.266,93.181,158.41,93.208,158.568,93.252z"/>
	<path fill="#501940" d="M164.794,91.151c-0.182-0.484-0.859-1.199-1.205-0.814C163.218,90.751,164.263,91.313,164.794,91.151z"/>
	<g>
		<path fill="#FFB663" d="M74.957,95.599l0.171,5.611c0.019,0.605-0.122,1.218-0.469,1.715c-1.325,1.902-3.788,0.307-4.319-1.542
			c-0.287-1.006-0.263-2.063-0.292-3.114c-0.888,0.521,1.836-1.082,0.952-0.557C73.928,95.968,75.414,95.378,74.957,95.599z"/>
		<path fill="#FFB663" d="M26.077,102.988l-0.227-1.171c0.925,0.282,1.841,0.561,2.75,0.831c-0.006,0.104-0.013,0.208-0.027,0.312
			c-0.001,0.01-0.003,0.021-0.005,0.032C28.359,104.369,26.342,104.356,26.077,102.988z"/>
		<path fill="#FFB663" d="M89.53,99.536c-0.277-1.248,0.121-2.531,0.34-3.789c0.19-1.096,0.229-2.213,0.142-3.322
			c-0.361-0.015,2.567,0.162,4.367,0.485l-0.713,6.434c-0.064,0.581-0.274,1.149-0.665,1.585
			C91.701,102.379,89.864,101.038,89.53,99.536z"/>
		<path fill="#FFB663" d="M84.385,107.448c-0.379,1.188-0.95,2.375-2.092,2.997c-0.665,0.362-1.479,0.433-2.153,0.087
			c-1.456-0.748-1.359-2.736-1.085-4.305c0.664-3.791,2.171-12.426,2.237-12.957c1.442-0.354,2.908-0.597,4.386-0.736
			C85.017,97.339,85.89,102.749,84.385,107.448z"/>
		<path fill="#FFB663" d="M49.282,109.025c-0.15-0.669-0.215-1.368-0.215-2.038c0-0.242,0.005-0.486,0.014-0.729
			c0.726-0.022,1.451-0.06,2.173-0.132l0.08,2.648C51.37,110.032,49.559,110.255,49.282,109.025z"/>
		<path fill="#FFB663" d="M36.83,106.629l-0.755-1.942c0.738,0.176,1.479,0.338,2.222,0.49c-0.007,0.398-0.014,0.795-0.021,1.193
			C38.262,107.192,37.127,107.396,36.83,106.629z"/>
		<path fill="#FFB663" d="M32.852,107.412c-0.75-0.212-0.927-0.91-1.068-1.546c-0.181-0.816-0.362-1.633-0.544-2.449
			c1.108,0.314,2.225,0.617,3.347,0.902c0.229,0.713,0.316,1.443-0.014,2.207C34.284,107.194,33.552,107.61,32.852,107.412z"/>
		<path fill="#FFB663" d="M43.406,113.008c-0.695,0.304-1.507-0.018-1.911-0.659c-0.861-1.371-0.265-2.834,0.011-4.255
			c0.148-0.764,0.192-1.544,0.146-2.319c0.858,0.129,1.716,0.237,2.574,0.318c0.027,1.58,0.054,3.161,0.081,4.742
			C44.321,111.664,44.284,112.624,43.406,113.008z"/>
		<path fill="#FFB663" d="M60.546,106.167c-0.005-0.012-0.009-0.023-0.014-0.035c-0.278-0.748-0.379-1.546-0.51-2.336
			c0.63-0.276,1.255-0.564,1.873-0.872c0.194,0.856,0.406,1.708,0.649,2.552C62.913,106.751,61.023,107.405,60.546,106.167z"/>
		<path fill="#FFB663" d="M121.165,108.128c0.029,0.002,0.059,0.006,0.088,0.009C121.224,108.134,121.194,108.13,121.165,108.128z"
			/>
		<path fill="#FFB663" d="M120.471,108.042c0.054,0.01,0.108,0.018,0.164,0.025C120.58,108.06,120.524,108.052,120.471,108.042z"/>
		<path fill="#FFB663" d="M121.88,108.155c0.053,0,0.108-0.003,0.163-0.004C121.988,108.152,121.933,108.155,121.88,108.155z"/>
		<path fill="#FFB663" d="M118.033,107.268c-0.452,1.432-1.043,2.817-1.816,4.132c-0.286,0.484-0.646,1-1.336,0.904
			c-0.578-0.082-1.032-0.562-1.137-1.135c-0.349-1.91,0.323-3.74,0.762-5.578c0.05-0.203,0.096-0.41,0.136-0.619
			C115.709,105.886,116.824,106.694,118.033,107.268z"/>
		<path fill="#FFB663" d="M119.873,107.924c0.033,0.008,0.066,0.014,0.098,0.021C119.939,107.938,119.906,107.932,119.873,107.924z"
			/>
		<path fill="#FFB663" d="M64.756,101.387c0.774-0.44,1.545-0.892,2.312-1.349c0.216,1.482,0.432,2.965,0.646,4.447
			c0.091,0.617,0.164,1.317-0.423,1.738c-0.54,0.389-1.299,0.244-1.743-0.252c-0.927-1.031-0.63-2.361-0.675-3.606
			C64.861,102.036,64.82,101.709,64.756,101.387z"/>
		<path fill="#FFB663" d="M101.56,110.468c-0.617-3.711,0.65-7.436,1.575-11.082c0.266-1.051,0.499-2.137,0.652-3.229
			c2.065,1.101,4.001,2.438,5.757,3.994c-0.471,0.736-0.658,1.703-0.795,2.593c-0.321,2.081-0.644,4.16-0.964,6.241
			c-0.21,1.363-0.44,2.777-1.393,3.842c-0.521,0.582-1.249,0.977-2.031,0.965C102.674,113.765,101.818,112.022,101.56,110.468z"/>
		<path fill="#FFB663" d="M100.015,94.457c-0.136,0.841-0.196,1.694-0.16,2.547c0.053,1.224,0.277,2.487-0.371,3.61
			c-0.262,0.453-0.687,0.813-1.195,0.936c-1.267,0.304-2.042-0.844-2.125-1.918c-0.066-0.842,0.188-1.672,0.336-2.504
			c0.222-1.247,0.192-2.532-0.054-3.775C97.656,93.653,98.848,94.02,100.015,94.457z"/>
		<path fill="#FFB663" d="M119.185,107.728c0.035,0.01,0.069,0.023,0.104,0.033C119.254,107.751,119.22,107.737,119.185,107.728z"/>
		<path fill="#FFB663" d="M118.58,107.506c0.043,0.018,0.087,0.034,0.13,0.051C118.667,107.54,118.623,107.523,118.58,107.506z"/>
		<path fill="#FFB663" d="M58.926,109.535c0.086,1.64-2.33,1.876-2.529,0.246c-0.031-0.251-0.056-0.502-0.075-0.751
			c-0.099-1.267-0.101-2.551-0.208-3.814c-0.416,0.117-0.281,0.088,0.201-0.052c0.66-0.191,1.306-0.416,1.946-0.654
			C58.612,106.165,58.837,107.847,58.926,109.535z"/>
		<path fill="#FFB663" d="M122.729,108.108c-0.062,0.007-0.126,0.012-0.188,0.017C122.604,108.12,122.667,108.115,122.729,108.108z"
			/>
		<path fill="#FFB663" d="M4.839,97.708c0.211-0.006,0.422-0.005,0.634-0.006C5.261,97.703,5.05,97.702,4.839,97.708z"/>
		<path fill="#FFB663" d="M20.395,100.194c0.215,0.061,0.43,0.121,0.644,0.183C20.825,100.315,20.61,100.255,20.395,100.194z"/>
		<path fill="#FFB663" d="M22.083,100.682c0.198,0.059,0.396,0.116,0.592,0.175C22.479,100.798,22.281,100.739,22.083,100.682z"/>
		<path fill="#FFB663" d="M18.726,99.733c0.223,0.061,0.444,0.12,0.667,0.182C19.17,99.854,18.948,99.794,18.726,99.733z"/>
		<path fill="#FFB663" d="M23.854,101.21c0.145,0.045,0.29,0.088,0.434,0.132C24.144,101.298,23.999,101.255,23.854,101.21z"/>
		<path fill="#FFB663" d="M3.745,97.763c-0.179,0.012-0.357,0.018-0.536,0.032C3.388,97.78,3.566,97.774,3.745,97.763z"/>
		<path fill="#FFB663" d="M17.067,99.306c0.216,0.053,0.43,0.109,0.645,0.164C17.497,99.415,17.283,99.358,17.067,99.306z"/>
		<path fill="#FFB663" d="M9.833,97.95c0.208,0.023,0.417,0.045,0.625,0.072C10.249,97.995,10.041,97.974,9.833,97.95z"/>
		<path fill="#FFB663" d="M15.411,98.913c0.186,0.042,0.371,0.087,0.557,0.131C15.781,99,15.596,98.955,15.411,98.913z"/>
		<path fill="#FFB663" d="M6.483,97.709c0.22,0.005,0.441,0.015,0.663,0.024C6.924,97.724,6.703,97.714,6.483,97.709z"/>
		<path fill="#FFB663" d="M8.145,97.791c0.22,0.015,0.439,0.032,0.659,0.052C8.584,97.823,8.364,97.806,8.145,97.791z"/>
		<path fill="#FFB663" d="M11.594,98.187c0.171,0.027,0.342,0.05,0.512,0.078C11.936,98.236,11.765,98.214,11.594,98.187z"/>
		<path fill="#FFB663" d="M13.755,98.562c0.025,0.005,0.05,0.011,0.075,0.017C13.805,98.573,13.78,98.567,13.755,98.562z"/>
	</g>
	<g>
		<path fill="#FFB663" d="M140.828,92.304c-0.441,1.057-2.038,1.029-2.956,0.344c-0.544-0.406-0.956-0.952-1.375-1.49
			c0.487-0.961,1.009-1.892,1.585-2.784c0.317,0.331,0.648,0.649,1.006,0.938C140.059,90.094,141.309,91.154,140.828,92.304z"/>
		<path fill="#FFB663" d="M120.276,112.064c-0.627-0.276-0.796-1.071-0.882-1.751c-0.111-0.877-0.224-1.754-0.334-2.631
			c0.906,0.311,1.866,0.486,2.898,0.473c0.04,0.328,0.079,0.657,0.119,0.986c0.084,0.695,0.163,1.43-0.114,2.074
			C121.688,111.858,120.918,112.347,120.276,112.064z"/>
		<path fill="#FFB663" d="M131.209,105.487c-0.452-0.584-0.728-1.266-0.963-1.969c0.988-1.244,1.789-2.605,2.497-4.02
			c0.9,1.198,1.629,2.523,2.148,3.93c0.278,0.753,0.489,1.623,0.112,2.332C134.296,107.093,132.134,106.681,131.209,105.487z"/>
		<path fill="#FFB663" d="M140.419,100.761c-0.566,0.539-1.521,0.431-2.171-0.008c-0.649-0.438-1.078-1.125-1.54-1.756
			c-0.725-0.99-1.575-1.887-2.521-2.668c0.46-1.076,1.389-3.247,1.389-3.247c1.33,1.415,2.659,2.831,3.988,4.246
			C140.466,98.288,141.373,99.853,140.419,100.761z"/>
		<path fill="#FFB663" d="M128.146,111.194c-1.124,0.527-2.442-0.367-3.061-1.445c-0.352-0.614-0.567-1.277-0.717-1.965
			c1.448-0.428,2.776-1.207,3.921-2.207c0.152,0.42,0.304,0.84,0.455,1.26C129.296,108.358,129.611,110.508,128.146,111.194z"/>
	</g>
	<path fill="#FBD795" d="M78.726,161.668c0.926,0.4,1.734,0.492,2.737,0.386c0.064-0.746-0.218-1.515-0.75-2.041
		c-0.534-0.528-1.306-0.803-2.051-0.729C78.084,160.284,78.391,160.864,78.726,161.668z"/>
	<path fill="#FBD795" d="M76.901,162.067c0.926,0.402,1.734,0.493,2.738,0.387c0.064-0.745-0.219-1.516-0.751-2.042
		c-0.533-0.526-1.305-0.803-2.05-0.729C76.389,160.683,76.422,161.287,76.901,162.067z"/>
	<path fill="#FBD795" d="M74.837,162.68c0.926,0.402,1.733,0.493,2.737,0.388c0.063-0.747-0.219-1.516-0.751-2.044
		c-0.532-0.525-1.305-0.801-2.05-0.728C74.447,160.683,74.077,162.094,74.837,162.68z"/>
	<g opacity="0.16">
		<path fill="#FFFFFF" d="M166.364,92.358c-0.587-0.82-1.787-1.373-2.796-1.787c-3.705-1.523-6.852-4.178-10.527-5.775
			c-4.661-2.027-10.79-0.225-13.796,3.874c-1.35,1.842-2.436,3.862-3.39,6.011c-1.953,4.405-3.463,9.104-7.223,12.43
			c-1.406,1.244-3.096,2.163-4.944,2.486c-5.899,1.033-9.551-3.932-13.491-7.547c-8.425-7.729-21.305-10.207-31.997-6.158
			c-7.551,2.86-13.841,8.6-21.596,10.85c-8.831,2.564-18.276,0.27-27.096-2.33c-6.945-2.047-14.437-4.689-21.75-5.082
			c-2.039-0.521-4.095-0.975-6.165-1.354c9.1-1.319,18.806,2.258,27.625,4.857c8.82,2.6,18.266,4.895,27.096,2.331
			c7.754-2.251,14.045-7.989,21.597-10.849c10.691-4.049,23.569-1.57,31.995,6.158c3.94,3.614,7.591,8.578,13.491,7.545
			c1.85-0.323,3.537-1.242,4.945-2.486c3.76-3.325,5.269-8.024,7.223-12.428c0.953-2.15,2.038-4.171,3.39-6.012
			c3.006-4.1,9.134-5.902,13.795-3.875c3.676,1.599,6.821,4.252,10.527,5.775C164.83,89.632,166.834,90.606,166.364,92.358z"/>
	</g>
	<g opacity="0.27">
		<path fill="#AB5E6D" d="M111.319,133.772c0.938-0.241,1.872-0.498,2.797-0.787c9.377-2.927,17.993-8.231,24.867-15.246
			c-6.802,9.209-16.736,16.141-27.846,18.97c-0.006,0.027-0.013,0.057-0.018,0.085c-0.015,0.006-0.032,0.011-0.047,0.017
			C111.271,135.813,111.36,134.797,111.319,133.772z"/>
	</g>
	<g opacity="0.27">
		<path fill="#AB5E6D" d="M79.684,133.307c0.281,0.081,0.558,0.169,0.84,0.246c6.842,1.885,14.02,2.504,21.088,1.883
			c0.021,1.356,0.042,2.711,0.064,4.067c-0.047-0.009-0.077-0.023-0.08-0.049c-7.737,1.73-15.759,1.349-23.229-1.293
			C79.046,136.625,79.498,134.992,79.684,133.307z"/>
	</g>
	<g opacity="0.27">
		<path fill="#AB5E6D" d="M62.756,125.995c-0.054,1.898-0.158,3.842,0.122,5.706c-0.067-0.02-0.111-0.025-0.126-0.015
			c-6.032-1.766-10.697-6.564-15.324-10.834c-6.317-5.828-13.468-10.741-21.15-14.594c-1.211-0.947-2.469-1.838-3.793-2.65
			C36.944,108.753,49.35,118.589,62.756,125.995z"/>
	</g>
</g>
</svg>
