<?xml version="1.0" encoding="utf-8"?>
<!DOCTYPE svg PUBLIC "-//W3C//DTD SVG 1.1//EN" "http://www.w3.org/Graphics/SVG/1.1/DTD/svg11.dtd">
<svg version="1.1"
	 id="Layer_1" xmlns:dc="http://purl.org/dc/elements/1.1/" xmlns:cc="http://creativecommons.org/ns#" xmlns:rdf="http://www.w3.org/1999/02/22-rdf-syntax-ns#" xmlns:svg="http://www.w3.org/2000/svg" xmlns:sodipodi="http://sodipodi.sourceforge.net/DTD/sodipodi-0.dtd" xmlns:inkscape="http://www.inkscape.org/namespaces/inkscape" sodipodi:docname="Friends_logo.svg.2012_11_05_15_40_59.0.svg" inkscape:version="0.48.2 r9819"
	 xmlns="http://www.w3.org/2000/svg" xmlns:xlink="http://www.w3.org/1999/xlink" x="0px" y="0px" width="1185.615px"
	 height="195.918px" viewBox="0 0 1185.615 195.918" enable-background="new 0 0 1185.615 195.918" xml:space="preserve">
<path id="path7-1-0" inkscape:connector-curvature="0" fill="#E91E23" d="M143.966,94.64c0-3.676-1.546-7.096-4.12-9.724
	c-2.83-2.891-5.921-4.199-9.779-4.199c-3.602,0-6.949,1.314-9.778,4.199c-2.574,2.628-3.858,6.042-3.858,9.724
	c0,3.937,1.284,7.356,3.858,9.973c2.829,2.903,6.176,4.205,9.778,4.205c3.858,0,6.949-1.309,9.779-4.205
	C142.426,101.997,143.966,98.577,143.966,94.64L143.966,94.64z"/>
<path id="path9-7-6" inkscape:connector-curvature="0" fill="#02B2E7" d="M348.831,86.984c-2.829-2.629-5.921-3.938-9.778-3.938
	s-6.949,1.314-9.778,3.938c-2.574,2.89-3.858,6.042-3.858,9.979c0,3.942,1.284,7.095,3.858,9.985
	c2.829,2.628,6.176,3.942,9.778,3.942c3.864,0,6.949-1.32,9.778-3.942c2.574-2.891,4.113-6.037,4.113-9.985
	C352.955,93.026,351.405,89.874,348.831,86.984L348.831,86.984z"/>
<path id="path11-4-1" inkscape:connector-curvature="0" fill="#FABC16" d="M470.833,88.037c-2.829-2.891-5.914-4.205-9.778-4.205
	c-3.603,0-6.949,1.314-9.778,4.205c-2.574,2.628-3.858,6.036-3.858,9.718c0,3.937,1.284,7.351,3.858,9.991
	c2.829,2.891,6.176,4.192,9.778,4.192c3.864,0,6.949-1.309,9.778-4.192c2.574-2.641,4.12-6.049,4.12-9.991
	C474.953,94.073,473.407,90.665,470.833,88.037L470.833,88.037z"/>
<path id="path13-0-3" inkscape:connector-curvature="0" fill="#E91E23" d="M653.091,101.283c0-3.937-1.284-7.095-3.864-9.985
	c-2.829-2.622-6.17-4.198-9.772-4.198c-3.857,0-6.949,1.576-9.772,4.198c-2.574,2.891-3.864,6.043-3.864,9.985
	c0,3.676,1.29,7.096,3.864,9.986c2.83,2.628,5.921,3.931,9.772,3.931c3.608,0,6.949-1.309,9.772-3.931
	C651.807,108.379,653.091,104.959,653.091,101.283L653.091,101.283z"/>
<path id="path15-9-8" inkscape:connector-curvature="0" fill="#FABC16" d="M843.266,88.821c-2.835-2.628-6.182-4.198-9.778-4.198
	c-3.864,0-6.949,1.57-9.778,4.198c-2.574,2.891-3.858,6.043-3.858,9.986c0,3.681,1.284,7.095,3.858,9.985
	c2.835,2.628,5.92,3.931,9.778,3.931c3.603,0,6.949-1.309,9.778-3.931c2.574-2.891,3.858-6.298,3.858-9.985
	C847.124,94.864,845.84,91.712,843.266,88.821L843.266,88.821z"/>
<path id="path17-4-9" inkscape:connector-curvature="0" fill="#02B2E7" d="M1062.511,87.545c-2.567-2.89-5.921-4.204-9.517-4.204
	c-3.858,0-7.205,1.314-9.772,4.204c-2.83,2.629-4.12,6.037-4.12,9.718c0,3.938,1.29,7.351,4.12,9.992
	c2.573,2.89,5.921,4.192,9.772,4.192c3.602,0,6.955-1.309,9.517-4.192c2.836-2.642,4.12-6.049,4.12-9.992
	C1066.62,93.582,1065.34,90.174,1062.511,87.545L1062.511,87.545z"/>
<path fill-rule="evenodd" clip-rule="evenodd" d="M596.829,70.662h-9.1c-1.03-0.46-2.17-0.62-3.29-0.47l-3.45,0.47h-49.68l0.01-0.11
	c0.45-2.48,1.46-3.27,3.03-3.77c0.19-0.06,0.38-0.13,0.56-0.21c9.07-3.9,22-7.19,39.5-10.05c0.78-0.09,1.51-0.33,2.17-0.69
	c2.04-1.1,3.32-3.32,3.18-5.71v-7.38c0.06-2.58-1.54-5.01-4.1-5.9c-16.81-5.81-33.19-3.9-48.69,5.69
	c-5.35,2.68-10.02,8.06-14.28,16.43l-0.11,0.22l-0.1,0.22l-8.64,19.98c-2.15,4.21-3.16,9.64-3.16,17.06c0,4.71-0.71,8.779-2.1,12.09
	l-0.14,0.38c-1.98,5.78-2.91,15.591-2.91,30.87c0,1.73,0.74,3.38,2.03,4.529c1.12,1.011,2.57,1.551,4.06,1.551
	c0.22,0,0.44-0.01,0.66-0.03c17.45-1.909,31.33-4.38,42.44-7.54c16.49-4.699,29.41-11.57,38.38-20.449
	c1.75-1.73,2.28-4.351,1.35-6.641c-0.94-2.279-3.16-3.77-5.63-3.77c-7.88,0-17.12,1.59-27.47,4.72l-0.13,0.04l-0.1,0.029
	l-24.66,8.311c-2.11-0.189-2.91-1.08-3.55-2.58l-0.13-0.29c-0.96-1.94-1.02-4.2-0.2-6.739c5.05-8,6.64-9.591,6.9-9.83l0.28-0.24
	c2.62-2.521,5.43-3.26,9.09-2.41c0.45,0.1,0.91,0.16,1.37,0.16c3.88,0,6.06-2.95,7.4-4.98l4.07,0.44c1.93,0.35,6.81,1.1,10.42-2.1
	c1.79-1.19,7.18-2.71,9.19-3.27c4.64-1.07,8.78-3.04,12.34-5.86h1.82l1.61,0.44c6.941,2.8,11.621-0.02,13.821-1.98
	c1.359-1.22,2.05-2.92,2.029-4.61C602.88,73.352,600.169,70.662,596.829,70.662z M792.779,6.902c-2.47,0.17-4.59,1.82-5.36,4.18
	c-2.709,8.28-7.52,20.35-13.93,34.9c-6.52,14.77-11.47,27.17-14.32,35.87l-4.909,13.5c-1.431,2.151-2.47,2.38-5.06,1.3
	c-13.621-5.62-23.871-13.58-30.471-23.67l-7.58-15.19c-0.07-0.15-0.15-0.3-0.24-0.44c-2.369-4.21-5.439-8.54-10.149-9.17
	c-2.64-0.35-5.16,0.56-7.12,2.56l-0.07,0.07c-8.65,9.14-14.13,22.12-16.279,38.59c-0.03,0.23-0.051,0.45-0.051,0.67l-3.31,40.489
	c-0.021,0.15-0.03,0.301-0.03,0.451c-0.07,2.529,1.43,4.77,3.65,5.74l0.41,1.459c0.05,0.221,0.119,0.44,0.209,0.66
	c0.11,0.29,0.24,0.57,0.391,0.83c1.13,2.02,3.13,3.29,5.4,3.42l0.39,0.01c2.34,0,4.47-1.22,5.88-3.39l0.109-0.17
	c2.711-4.49,4.621-10.08,5.69-16.62c0.03-0.15,0.04-0.3,0.06-0.449l2.261-15.631l0.03-0.21l0.02-0.25
	c0.6-6.93,1.76-9.53,2.141-10.22c0.629-1.19,0.739-1.17,1.729-1.03c0.29,0.04,0.58,0.07,0.88,0.07c3.43,0,7.21,1.22,10.92,3.54
	l0.32,0.18c3.05,1.66,6.699,4.59,11.48,9.21l12.789,13.06l0.09,0.09l0.061,0.07c6.12,5.91,10.83,9.73,15.25,12.381
	c0.939,0.56,2.02,0.859,3.12,0.859c9.159,0,13.81-2.93,13.81-8.71c0-10,1.5-21.43,4.45-34c2.021-7.71,5.62-19.5,10.69-35.04
	c0.189-0.61,0.3-1.22,0.3-1.86c0.01-0.5,0.42-2.65,2.01-6.64l0.07-0.17c1.22-2.85,2.649-6.77,2.989-10.16
	c0.351-0.74,0.94-1.81,1.74-2.77c0.211-0.24,0.391-0.5,0.561-0.77l3.479-5.33c0.08-0.13,0.16-0.26,0.23-0.39
	c3.72-6.04,4.12-12.43,1.159-18.49C797.579,8.072,795.229,6.732,792.779,6.902z M961.169,101.992l-15.699,3.931
	c-6.691,1.59-11.83,3.159-15.43,4.729c-2.57,0-5.15-2.101-8.24-6.57c-1.541-2.09-3.09-3.409-4.621-3.68c-1.289,0-2.84,0.53-4.9,1.59
	l-6.18,2.36l-8.49-0.271l9.262-24.69c3.34-9.98,5.658-18.38,6.949-24.68c4.369,1.57,11.07,2.36,19.301,2.36l20.84,0.78
	c7.729,0.79,13.648,3.16,17.76,6.57c5.41,4.47,8.75,11.04,10.289,20.23C979.95,92.532,973.009,98.311,961.169,101.992z
	 M981.858,48.302c-13.359-10.23-26.809-14.21-39.988-11.82l-20.641-2.26c-8.451-1.08-15.811-1.15-21.291-0.22
	c-1.619,0.28-3.049,1.19-3.979,2.53c-0.932,1.34-1.291,3.01-0.98,4.61c1.91,9.99,0.549,21.39-4.051,33.9l-13.52,33.34
	c-3.83,7.371-4.85,15.351-2.959,23.11l0.039,0.16l0.061,0.19l5.129,17.56c0.76,2.59,3.141,4.38,5.84,4.38h5.15
	c3.359,0,6.08-2.73,6.08-6.09v-12.37c0.59-0.101,1.141-0.271,1.65-0.511c6.77-2.809,18.92-5.84,37.061-9.239
	c17.5-3.069,30.689-6.95,40.309-11.86c0.26-0.13,0.5-0.27,0.73-0.439c4.871-3.41,8.66-7.1,11.41-9.94l0.301-0.319
	c4.059-4.82,6.08-8.791,6.309-12.431c2.971-16.14-1.119-30.49-11.859-41.54C982.419,48.772,982.149,48.522,981.858,48.302z
	 M1182.55,94.152c-8.25-4.69-19.26-6.87-31.83-6.31l-0.16,0.01l-27.189,0.23l-0.012-0.15l0.301-3.78
	c14.641-11.55,28.83-19.46,42.221-23.54c0.24-0.08,0.49-0.17,0.729-0.28c4.33-1.95,6.781-5.71,6.92-10.59
	c0.031-0.36,0.031-0.72-0.01-1.08l-0.779-7.62c-0.32-3.16-2.98-5.48-6.119-5.47h-7.621c-0.629,0.01-1.279,0.09-1.91,0.29
	c-0.709,0.23-1.369,0.59-1.939,1.05c-9.041,7.12-19.061,13.95-29.791,20.3c-9.83,4.04-37.699,15.77-34.139,35.44
	c0.08,0.45,0.209,0.89,0.389,1.32c2.561,5.951,7.361,10.041,13.91,11.839c0.26,0.08,0.541,0.141,0.82,0.181
	c0.281,0.04,0.561,0.06,0.83,0.069l15.82,0.511c0.27,0.01,0.539,0,0.801-0.021l18.09-1.799l15.619,0.719l1.18,2
	c0,0.061-0.039,0.311-0.24,0.74l-1.689,3.061c-5.471,4.49-12.109,8.439-19.76,11.74l-0.211,0.1c-7.25,3.47-14.629,5.79-22.559,7.1
	c-1.35,0.23-2.59,0.9-3.51,1.91c-4.531,4.98-6.73,9.75-6.73,14.61c0,2.36,1.369,4.51,3.51,5.51c0.82,0.38,1.699,0.569,2.57,0.569
	c1.41,0,2.799-0.489,3.92-1.42c4.141-3.489,9.859-6.76,17-9.729l21.779-7.84l0.17-0.069l0.18-0.07c8.9-3.7,15.541-7.44,20.32-11.45
	l0.09-0.08c6.801-5.95,10.861-13.31,12.061-21.87C1185.919,97.811,1184.72,95.382,1182.55,94.152z M401.229,27.512
	c-0.33-0.04-0.66-0.06-1-0.06h-4.9c-2.79-0.05-5.35,1.82-6.04,4.64c-4.97,20.33-10.89,51.41-18.1,95.02
	c-0.05,0.33-0.08,0.66-0.08,0.99c0,5.779,4.64,8.699,13.81,8.699c2.95,0,5.48-2.109,5.99-5.02c0.3-1.71,1.23-8.16,0.6-19.87
	c0-3.06,0.03-11.55,1.49-15.37l0.17-0.38l11.29-29.09l0.12-0.33l0.11-0.33c3.58-12.45,4.14-23.9,1.64-34.06
	C405.839,29.832,403.789,27.882,401.229,27.512z M227.839,69.222c-6.17,5.25-11.83,9.2-17.5,12.35c-5.91,3.15-10.54,4.73-13.38,3.94
	c0-7.35,0.51-12.87,1.8-16.55c1.8-4.99,5.149-9.19,10.55-12.08c5.66-3.15,11.58-5.78,17.5-8.14c9.26-3.42,15.44-3.94,18.26-1.58
	c1.561,1.31,0.53,3.94-3.08,8.4C238.649,59.772,234.019,64.232,227.839,69.222z M276.729,107.522c-6.53,0-14.34-1.36-23.85-4.17
	l-23.74-7.99l-2.18-3.18c-0.19-0.41-0.33-0.77-0.44-1.07c2-2.99,5.22-5.92,9.77-8.89l16.74-9.84l0.12-0.07l0.12-0.08
	c7-4.46,11.55-8.82,13.92-13.31c0.07-0.13,0.14-0.27,0.2-0.41c2.9-6.67,1.7-14-3.58-21.79c-3.15-4.94-8.88-8.45-17.02-10.45
	l-0.18-0.04c-7.08-1.5-13.87-1.49-20.17,0.03l-0.18,0.05c-0.88,0.23-1.67,0.66-2.33,1.21c-5.63,4.34-10.75,7.12-15.66,8.5
	c-5.03,1.26-8.99,0.34-12.1-2.84c-1.04-1.07-2.37-1.67-3.75-1.8c-2.96-0.3-5.78,1.62-6.51,4.61l-2.569,10.48
	c-3.55,13.92-8.021,33.99-12.931,58.06c-5.88,29.08-9.569,45.689-12.729,57.25c-2.36,7.391-1.53,16.891,2.61,29.85
	c0.82,2.59,3.22,4.24,5.79,4.24c0.18,0,0.36-0.01,0.53-0.029c2.97-0.25,5.38-2.65,5.56-5.711l1.28-22.24l0.311-3.789
	c0.61-7.4,1.09-13.24,1.92-17.9l0.03-0.141c2.33-14.989,7.31-26.079,14.8-32.959c3.14-2.16,8.58-2.561,15.76-1.15
	c5.36,1.2,12.53,3.59,21.86,7.301c20.38,8.26,36.84,10.039,50.33,5.449c0.8-0.23,1.54-0.63,2.17-1.16c1.46-1.22,2.29-3.07,2.19-4.98
	v-4.949C282.819,110.253,280.099,107.522,276.729,107.522z M98.309,59.652l-11.45,1.3h-0.05l-49.51,3.91
	c-0.49-0.02-1.311-0.2-2.66-1.58c-0.9-0.92-1.21-1.68-1.31-2.29c2.93-11.99,7.23-21.04,12.79-26.93l17.04-7.1
	c6.771-2.55,13.3-4.02,18.84-5.12c2.36-0.21,6.11-1.47,9.27-6.73c2.65-3.99,2.03-7.07,1.03-8.96c-1.391-2.65-4-4.09-7.771-4.3
	c-9.33-2.7-19.149-2.45-30,0.76c-9.54,2.86-17.42,7.45-23.439,13.63c-6.15,3.87-10.46,11.26-13.15,22.54l-0.03,0.12v0.02
	l-2.81,12.76c-1.26,4.89-2.35,8.32-3.5,10.97l-5.51,7.58l-0.09,0.13l-0.07,0.09c-4.44,6.58-3.78,12.21-2.44,15.78
	c0.3,0.79,0.76,1.51,1.351,2.11c0.31,0.32,0.84,1.44,0.84,3.62c0,0.3,0.02,0.59,0.06,0.88c0.96,6.64,1.2,14.18,0.71,22.49
	c-0.22,5.16-1.13,12.341-2.28,21.421l-0.25,1.989l-3.05,24.16c-0.03,0.18-0.05,0.351-0.06,0.53c-0.85,10.09-1.03,18.6-0.54,26.02
	c0.02,0.28,0.05,0.551,0.1,0.811c0.53,2.859,3.04,4.97,5.98,4.97l0.41-0.011c2.97-0.199,5.29-2.489,5.63-5.34l6.89-46.84l0.061-0.35
	c2.319-17.07,5.22-32.77,8.63-46.65c0.09-0.37,0.14-0.74,0.16-1.11c0.189-0.28,0.84-1.05,2.649-2.18c2.89-1.57,5.32-2.45,7.23-2.61
	c0.149-0.01,0.3-0.03,0.45-0.05c5.33-0.86,11-2.26,16.87-4.16c0.23-0.07,0.45-0.16,0.66-0.26l14.75-6.23l0.26-0.11
	c4.73-2.09,9.35-3.91,13.73-5.42l3.73-0.89l11.22-1.27c3.34-0.38,5.74-3.39,5.36-6.73C104.669,61.682,101.649,59.272,98.309,59.652z
	"/>
</svg>
