<svg width="324" height="272" viewBox="0 0 324 272" fill="none" xmlns="http://www.w3.org/2000/svg">
<path d="M314.743 128.261C314.743 170.12 264.122 218.891 172.846 204.843C0.65765 178.342 111.863 415.94 0.657651 128.261C-8.84258 27.2502 85.9542 15.0183 196.362 15.0184C288.435 15.0184 314.743 70.6536 314.743 128.261Z" fill="white"/>
<path d="M62.3434 104.944C62.4714 104.304 62.5354 103.264 62.5354 101.824C62.5354 100.352 62.2954 99.008 61.8154 97.792C61.3354 96.544 60.6314 95.92 59.7034 95.92C58.5834 95.92 57.4954 97.376 56.4394 100.288C55.3834 103.168 54.8554 106.272 54.8554 109.6C54.8554 112.896 55.1754 115.488 55.8154 117.376C56.4554 119.232 57.3994 120.16 58.6474 120.16C59.8954 120.16 60.8394 119.584 61.4794 118.432C62.1194 117.28 62.5994 115.584 62.9194 113.344C61.7674 113.344 60.5354 113.456 59.2234 113.68L58.2154 108.928C61.1274 108.736 64.7754 108.384 69.1594 107.872C69.3514 109.536 69.4474 111.056 69.4474 112.432C69.4474 113.808 69.0314 115.52 68.1994 117.568C67.3994 119.616 66.1834 121.424 64.5514 122.992C62.9514 124.56 61.1914 125.344 59.2714 125.344C55.9434 125.344 53.2714 124.048 51.2554 121.456C49.2714 118.864 48.2794 115.2 48.2794 110.464C48.2794 106.976 48.7114 103.712 49.5754 100.672C50.4394 97.632 51.7194 95.136 53.4154 93.184C55.1114 91.232 57.0474 90.256 59.2234 90.256C61.3354 90.256 63.3194 91.024 65.1754 92.56C66.1354 93.36 66.9034 94.512 67.4794 96.016C68.0874 97.488 68.3914 99.04 68.3914 100.672C68.3914 102.304 68.2474 103.888 67.9594 105.424L62.3434 104.944ZM79.4336 112.72C79.4336 114.384 79.8016 115.872 80.5376 117.184C81.2736 118.496 82.1376 119.152 83.1296 119.152C84.1536 119.152 84.9696 118.704 85.5776 117.808C86.1856 116.912 86.6176 115.728 86.8736 114.256C87.3216 111.664 87.5456 108.672 87.5456 105.28C87.5456 101.856 87.3376 96.848 86.9216 90.256L93.4496 90.928C93.8976 97.52 94.1216 102 94.1216 104.368C94.1216 106.736 94.0896 108.4 94.0256 109.36C93.9616 110.288 93.8336 111.376 93.6416 112.624C93.4496 113.872 93.1936 115.04 92.8736 116.128C92.5536 117.216 92.1216 118.304 91.5776 119.392C91.0336 120.48 90.3936 121.408 89.6576 122.176C88.0256 123.936 85.8016 124.816 82.9856 124.816C80.2016 124.816 77.8176 123.568 75.8336 121.072C73.8496 118.576 72.8576 115.792 72.8576 112.72C72.8576 105.968 73.2256 98.768 73.9616 91.12L80.4896 91.744C79.7856 98.752 79.4336 105.744 79.4336 112.72ZM99.7406 124.192C99.6126 119.136 99.5486 114.352 99.5486 109.84C99.5486 105.328 99.8046 99.456 100.317 92.224C105.789 91.392 111.133 90.976 116.349 90.976V96.88C112.733 96.88 109.373 96.992 106.269 97.216C106.141 100.8 106.061 103.552 106.029 105.472C108.461 105.12 111.341 104.912 114.669 104.848L115.581 110.128C113.437 110.16 110.221 110.4 105.933 110.848C105.933 114.688 105.949 117.456 105.981 119.152C108.765 118.928 112.093 118.448 115.965 117.712L116.781 122.992C114.061 124.24 110.845 124.864 107.133 124.864L99.7406 124.192ZM132.105 103.024C132.521 101.456 132.729 100.144 132.729 99.088C132.729 98.032 132.441 97.168 131.865 96.496C131.289 95.792 130.537 95.44 129.609 95.44C128.713 95.44 127.961 95.888 127.353 96.784C126.745 97.68 126.441 98.704 126.441 99.856C126.441 102.096 127.721 104.016 130.281 105.616C132.841 107.28 134.585 108.48 135.513 109.216C136.441 109.952 137.097 110.624 137.481 111.232C138.441 112.8 138.921 114.416 138.921 116.08C138.921 118.96 137.945 121.264 135.993 122.992C134.073 124.688 131.897 125.536 129.465 125.536C126.585 125.536 124.169 124.32 122.217 121.888C120.809 120.128 119.513 117.936 118.329 115.312L122.985 113.056C123.721 114.976 124.633 116.608 125.721 117.952C126.841 119.264 128.025 119.92 129.273 119.92C130.073 119.92 130.793 119.664 131.433 119.152C132.073 118.64 132.393 117.872 132.393 116.848C132.393 115.792 131.993 114.816 131.193 113.92C130.393 113.024 129.321 112.112 127.977 111.184C126.633 110.256 125.593 109.504 124.857 108.928C124.121 108.32 123.305 107.552 122.409 106.624C120.713 104.832 119.865 102.544 119.865 99.76C119.865 96.944 120.841 94.592 122.793 92.704C124.745 90.784 127.065 89.824 129.753 89.824C132.441 89.824 134.697 90.864 136.521 92.944C138.377 95.024 139.305 97.168 139.305 99.376C139.305 101.552 138.889 103.424 138.057 104.992L132.105 103.024ZM154.887 103.024C155.303 101.456 155.511 100.144 155.511 99.088C155.511 98.032 155.223 97.168 154.647 96.496C154.071 95.792 153.319 95.44 152.391 95.44C151.495 95.44 150.743 95.888 150.135 96.784C149.527 97.68 149.223 98.704 149.223 99.856C149.223 102.096 150.503 104.016 153.063 105.616C155.623 107.28 157.367 108.48 158.295 109.216C159.223 109.952 159.879 110.624 160.263 111.232C161.223 112.8 161.703 114.416 161.703 116.08C161.703 118.96 160.727 121.264 158.775 122.992C156.855 124.688 154.679 125.536 152.247 125.536C149.367 125.536 146.951 124.32 144.999 121.888C143.591 120.128 142.295 117.936 141.111 115.312L145.767 113.056C146.503 114.976 147.415 116.608 148.503 117.952C149.623 119.264 150.807 119.92 152.055 119.92C152.855 119.92 153.575 119.664 154.215 119.152C154.855 118.64 155.175 117.872 155.175 116.848C155.175 115.792 154.775 114.816 153.975 113.92C153.175 113.024 152.103 112.112 150.759 111.184C149.415 110.256 148.375 109.504 147.639 108.928C146.903 108.32 146.087 107.552 145.191 106.624C143.495 104.832 142.647 102.544 142.647 99.76C142.647 96.944 143.623 94.592 145.575 92.704C147.527 90.784 149.847 89.824 152.535 89.824C155.223 89.824 157.479 90.864 159.303 92.944C161.159 95.024 162.087 97.168 162.087 99.376C162.087 101.552 161.671 103.424 160.839 104.992L154.887 103.024ZM189.149 93.952L193.949 94.384C194.173 96.944 194.509 100.336 194.957 104.56C195.437 108.752 195.773 111.728 195.965 113.488L196.205 113.44C198.477 103.648 199.949 95.984 200.621 90.448L206.909 90.976C205.117 101.568 202.493 112.448 199.037 123.616L194.429 123.232C193.341 119.456 192.125 114.512 190.781 108.4C189.405 114.992 188.093 120.256 186.845 124.192L182.237 123.808C179.517 110.24 177.677 99.232 176.717 90.784L182.909 91.312C183.421 96.72 184.221 104.112 185.309 113.488L185.549 113.44C187.405 104.896 188.605 98.4 189.149 93.952ZM216.273 99.952L216.321 105.472L223.521 105.04C223.521 100.048 223.601 94.752 223.761 89.152L230.097 89.728C229.809 94.816 229.665 100.336 229.665 106.288C229.665 112.208 229.841 118.16 230.193 124.144L224.049 123.616C223.761 120.864 223.585 116.448 223.521 110.368L216.465 110.8C216.561 115.344 216.705 119.968 216.897 124.672L210.369 124.096C210.017 117.344 209.841 111.136 209.841 105.472C209.841 99.808 209.969 94.912 210.225 90.784L216.561 91.36C216.369 94.208 216.273 97.072 216.273 99.952ZM244.98 125.632C241.94 125.632 239.364 124.272 237.252 121.552C235.172 118.8 234.132 114.64 234.132 109.072C234.132 103.472 235.268 98.912 237.54 95.392C239.844 91.872 242.548 90.112 245.652 90.112C248.756 90.112 251.332 91.488 253.38 94.24C255.46 96.992 256.5 101.136 256.5 106.672C256.5 112.208 255.348 116.752 253.044 120.304C250.74 123.856 248.052 125.632 244.98 125.632ZM245.7 95.824C244.292 95.824 243.076 97.072 242.052 99.568C241.028 102.032 240.516 105.152 240.516 108.928C240.516 112.672 240.948 115.456 241.812 117.28C242.708 119.072 243.812 119.968 245.124 119.968C246.436 119.968 247.588 118.72 248.58 116.224C249.604 113.728 250.116 110.608 250.116 106.864C250.116 103.088 249.684 100.304 248.82 98.512C247.988 96.72 246.948 95.824 245.7 95.824ZM268.763 90.4C271.227 90.4 273.163 91.2 274.571 92.8C275.979 94.368 276.683 96.352 276.683 98.752C276.683 99.872 276.475 100.816 276.059 101.584C275.643 102.352 275.307 102.928 275.051 103.312C274.827 103.696 274.427 104.208 273.851 104.848C273.307 105.488 272.891 105.952 272.603 106.24C271.515 107.488 270.523 108.56 269.627 109.456C268.187 110.992 267.467 112.368 267.467 113.584C267.467 114.032 267.547 114.528 267.707 115.072L263.627 114.592C262.603 113.888 262.091 113.056 262.091 112.096C262.091 111.104 262.411 110.112 263.051 109.12C263.691 108.096 264.427 107.12 265.259 106.192C266.091 105.232 266.811 104.416 267.419 103.744C268.059 103.04 268.523 102.512 268.811 102.16C269.131 101.808 269.483 101.376 269.867 100.864C270.571 99.872 270.923 99.056 270.923 98.416C270.923 97.744 270.731 97.2 270.347 96.784C269.963 96.368 269.435 96.16 268.763 96.16C267.259 96.16 264.891 97.744 261.659 100.912L257.243 97.072C261.435 92.624 265.275 90.4 268.763 90.4ZM268.043 117.568C268.395 118.208 268.571 119.328 268.571 120.928C268.571 122.528 268.315 123.92 267.803 125.104L262.091 124C262.411 122.816 262.571 121.584 262.571 120.304C262.571 118.992 262.539 117.888 262.475 116.992L268.043 117.568Z" fill="black"/>
</svg>
