<?xml version="1.0" encoding="utf-8"?>
<!-- Generator: Adobe Illustrator 16.0.4, SVG Export Plug-In . SVG Version: 6.00 Build 0)  -->
<!DOCTYPE svg PUBLIC "-//W3C//DTD SVG 1.1//EN" "http://www.w3.org/Graphics/SVG/1.1/DTD/svg11.dtd">
<svg version="1.1" id="Layer_1" xmlns="http://www.w3.org/2000/svg" xmlns:xlink="http://www.w3.org/1999/xlink" x="0px" y="0px"
	 width="170px" height="170px" viewBox="0 0 170 170" enable-background="new 0 0 170 170" xml:space="preserve">
<title>Artboard 9</title>
<g>
	<path fill="#BE1E2D" d="M98.613,114.905c6.385,1.215,16.635,3.324,22.823,5.306c3.689,1.181,7.519,2.146,11.366,2.502
		c-0.729-0.75-1.105-1.969-1.23-3.043c-1.252-0.062-2.462-0.762-3.111-1.83c-0.695-1.145-1.027-2.551-0.377-3.72
		c-1.439,0.022-2.86-0.793-3.564-2.043c-0.702-1.25-0.496-2.962,0.275-4.172c-1.756,0.346-3.67,0.401-5.243-0.449
		c-1.572-0.851-2.672-2.999-1.972-4.638c-2.016,0.818-4.463-0.201-5.712-1.977c-1.248-1.775-1.223-4.031-0.839-6.164
		c-1.982,1.176-4.608,1.179-6.594,0.01c-1.984-1.171-3.105-3.437-3.023-5.73c-1.457,1.484-3.637,2.231-5.702,1.955
		c-2.067-0.275-3.653-1.654-4.666-3.469c-1.281,2.107-3.642,3.527-6.113,3.678c-2.472,0.148-4.998-0.853-6.526-2.791
		c-0.359,2.41-1.961,4.604-4.154,5.686c-2.193,1.084-5.125,0.983-7.27-0.19c1.085,1.979,0.766,4.628-0.759,6.297
		c-1.524,1.668-4.259,2.733-6.342,1.845c0.776,1.837,0.421,4.096-0.881,5.608s-3.79,2.186-5.732,1.704
		c0.618,1.718,0.282,3.742-0.858,5.171s-2.445,2.608-4.266,2.397c0.508,1.639,0.101,3.526-1.036,4.814
		c-1.137,1.287-2.723,1.888-4.42,1.598c0.131,2.248-1.747,4.427-4,4.64c-0.025,0.104-0.042,0.209-0.055,0.316
		c7.265-2.929,12.616-7.918,23.089-10.848C72.34,114.398,83.315,111.994,98.613,114.905z"/>
	<path fill="#EF4F00" d="M88.696,106.963c-3.708-0.939-7.608-1.113-11.384-0.51c-1.538,0.246-3.07,0.625-4.454,1.336
		c-1.287,0.662-2.557,1.991-2.118,3.364c0.321,1.003,1.468,1.545,2.526,1.549c1.058,0.005,2.067-0.399,3.074-0.72
		c2.383-0.758,4.911-1.059,7.406-0.887c1.886,0.131,3.806,0.526,5.642,0.08c0.901-0.221,1.858-0.777,1.997-1.691
		c0.102-0.666-0.286-1.336-0.825-1.746C90.022,107.328,89.354,107.129,88.696,106.963z"/>
	<path fill="#EF4F00" d="M91.716,92.648c-4.01-0.125-8.037,1.682-10.599,4.756c-0.988,1.184-1.792,2.742-1.361,4.221
		c0.431,1.473,1.989,2.377,3.516,2.593c1.679,0.237,3.444-0.198,4.817-1.188c1.117-0.807,1.95-1.934,2.885-2.943
		c0.936-1.01,2.058-1.953,3.416-2.194c1.359-0.242,2.964,0.462,3.303,1.793c0.259,1.017-0.252,2.077-0.171,3.124
		c0.137,1.76,1.874,2.967,3.563,3.498c1.935,0.607,4.208,0.625,5.822-0.598c1.614-1.222,2.085-3.938,0.55-5.258
		c-1.881-1.619-5.158-0.273-7.075-1.852c-0.822-0.676-1.189-1.74-1.773-2.629C97.156,93.76,94.37,92.732,91.716,92.648z"/>
	<path fill="#EF4F00" d="M125.233,115.446c0.315-1.389-0.661-2.739-1.738-3.677c-2.804-2.44-6.587-3.535-10.306-3.746
		c-2.138-0.119-4.281,0.028-6.418,0.176c-1.084,0.075-2.277,0.198-3.025,0.985c-1.125,1.185-0.508,3.297,0.841,4.222
		c1.349,0.924,3.112,0.955,4.744,0.807c1.631-0.148,3.298-0.441,4.887-0.047c1.383,0.346,2.58,1.181,3.786,1.938
		c1.206,0.756,2.517,1.467,3.941,1.512C123.371,117.66,124.918,116.83,125.233,115.446z"/>
	<path fill="#EF4F00" d="M66.412,104.231c-3.289,1.066-5.22,4.397-8.021,6.417c-0.992,0.716-2.183,1.373-2.543,2.539
		c-0.461,1.495,0.837,3.103,2.37,3.447c1.257,0.282,2.647-0.111,3.566-1.012c1.112-1.09,1.472-2.741,2.46-3.942
		c1.065-1.294,2.72-1.915,4.198-2.712c1.124-0.605,2.302-1.57,2.236-2.839c-0.046-0.896-0.761-1.668-1.61-1.973
		C68.219,103.854,67.27,103.953,66.412,104.231z"/>
	<g opacity="0.27">
		<path fill="#FFFFFF" d="M124.168,111.104c-0.158,0.875-0.069,1.791,0.352,2.541c0.647,1.152,1.906,1.926,3.227,2.025
			c-0.025-0.535,0.066-1.062,0.338-1.55c-1.439,0.022-2.86-0.793-3.564-2.043C124.351,111.775,124.236,111.445,124.168,111.104z"/>
		<path fill="#FFFFFF" d="M111.868,102.408c1.214,1.726,3.561,2.732,5.541,2.035c-0.091-0.555-0.048-1.115,0.171-1.625
			c-2.016,0.818-4.463-0.201-5.712-1.977c-0.645-0.918-0.947-1.966-1.039-3.057C110.708,99.428,110.919,101.057,111.868,102.408z"/>
		<path fill="#FFFFFF" d="M119.552,109.023c1.386,0.75,3.036,0.795,4.609,0.559c0.103-0.599,0.316-1.18,0.634-1.677
			c-1.756,0.346-3.67,0.401-5.243-0.449c-1.003-0.543-1.812-1.614-2.085-2.745C117.025,106.3,118.082,108.228,119.552,109.023z"/>
		<path fill="#FFFFFF" d="M128.461,119.406c0.649,1.069,1.859,1.768,3.111,1.831c0.052,0.447,0.15,0.917,0.297,1.37
			c0.311,0.037,0.623,0.076,0.934,0.105c-0.729-0.75-1.105-1.969-1.23-3.043c-1.252-0.062-2.462-0.762-3.111-1.83
			c-0.285-0.471-0.504-0.984-0.624-1.508C127.573,117.35,127.889,118.467,128.461,119.406z"/>
		<path fill="#FFFFFF" d="M42.686,124.826c1.698,0.291,3.283-0.31,4.42-1.597c0.992-1.124,1.427-2.703,1.185-4.177
			c-0.142,0.959-0.542,1.881-1.185,2.609c-1.137,1.287-2.723,1.888-4.42,1.598c0.131,2.248-1.747,4.427-4,4.64
			c-0.025,0.104-0.042,0.209-0.055,0.316c1.32-0.531,2.576-1.134,3.812-1.776C42.628,125.925,42.718,125.378,42.686,124.826z"/>
		<path fill="#FFFFFF" d="M48.346,118.43c1.714,0.103,2.965-1.038,4.062-2.412c0.921-1.154,1.306-2.694,1.099-4.15
			c-0.137,0.938-0.507,1.842-1.099,2.583c-1.14,1.429-2.445,2.608-4.266,2.397C48.301,117.359,48.36,117.896,48.346,118.43z"/>
		<path fill="#FFFFFF" d="M58.999,109.143c1.013-1.176,1.449-2.803,1.23-4.332c-0.144,1.013-0.561,1.988-1.23,2.765
			c-1.302,1.513-3.79,2.186-5.732,1.704c0.188,0.523,0.277,1.074,0.293,1.629C55.453,111.258,57.761,110.581,58.999,109.143z"/>
		<path fill="#FFFFFF" d="M66.222,101.689c1.095-1.198,1.563-2.901,1.342-4.5c-0.15,1.083-0.603,2.123-1.342,2.933
			c-1.524,1.668-4.259,2.733-6.342,1.845c0.229,0.543,0.358,1.124,0.394,1.711C62.297,104.287,64.792,103.254,66.222,101.689z"/>
		<path fill="#FFFFFF" d="M74.25,95.584c2.193-1.083,3.795-3.275,4.154-5.688c1.529,1.939,4.055,2.941,6.526,2.791
			c2.471-0.149,4.832-1.569,6.113-3.678c1.013,1.814,2.599,3.194,4.666,3.471c2.065,0.275,4.245-0.472,5.702-1.957
			c-0.082,2.295,1.039,4.561,3.023,5.73c1.916,1.129,4.43,1.161,6.385,0.105c0.035-0.562,0.109-1.126,0.209-1.682
			c-1.982,1.176-4.608,1.179-6.594,0.01c-1.984-1.171-3.105-3.437-3.023-5.73c-1.457,1.484-3.637,2.231-5.702,1.955
			c-2.067-0.275-3.653-1.654-4.666-3.469c-1.281,2.107-3.642,3.527-6.113,3.678c-2.472,0.148-4.998-0.853-6.526-2.791
			c-0.359,2.41-1.961,4.604-4.154,5.686c-2.193,1.084-5.125,0.983-7.27-0.19c0.314,0.574,0.507,1.204,0.591,1.852
			C69.643,96.571,72.252,96.57,74.25,95.584z"/>
	</g>
	<g>
		<path fill="#980F13" d="M102.117,88.971c0.165-0.58,0.296-1.056,0.331-1.477c0.064-0.455,0.019-0.822-0.031-1.049
			c-0.055-0.259-0.138-0.42-0.138-0.42l-0.083-0.162l-0.149,0.104c0,0-0.148,0.104-0.318,0.307c-0.149,0.178-0.361,0.48-0.514,0.906
			c-0.165,0.395-0.271,0.877-0.394,1.465l-4.143,19.992l-1.486,5.857l0.737,0.107L102.117,88.971z"/>
		<path fill="#980F13" d="M116.79,104.918l2.903-3.627c0.37-0.447,0.693-0.85,0.895-1.221c0.241-0.395,0.346-0.75,0.392-0.977
			c0.052-0.259,0.041-0.439,0.041-0.439l-0.012-0.182l-0.18,0.036c0,0-0.177,0.036-0.412,0.155
			c-0.208,0.103-0.523,0.297-0.834,0.628c-0.311,0.296-0.601,0.696-0.948,1.188l-11.512,16.303l0.696,0.15L116.79,104.918z"/>
		<path fill="#980F13" d="M110.252,97.273l1.947-3.742c0.276-0.512,0.514-0.969,0.638-1.372c0.159-0.432,0.192-0.8,0.192-1.033
			c0.001-0.265-0.046-0.439-0.046-0.439l-0.047-0.177l-0.168,0.07c0,0-0.168,0.071-0.375,0.234
			c-0.185,0.142-0.455,0.393-0.695,0.776c-0.245,0.351-0.452,0.801-0.695,1.351l-8.292,18.67l-1.918,3.877l0.705,0.139
			L110.252,97.273z"/>
		<path fill="#980F13" d="M122.887,110.479l3.115-2.854c0.451-0.402,0.816-0.737,1.071-1.072c0.298-0.354,0.456-0.688,0.535-0.906
			c0.092-0.248,0.107-0.43,0.107-0.43l0.017-0.18l-0.182,0.008c0,0-0.182,0.01-0.433,0.092c-0.222,0.071-0.562,0.215-0.92,0.494
			c-0.351,0.246-0.7,0.598-1.118,1.031l-11.193,11.653l0.766,0.187L122.887,110.479z"/>
		<path fill="#980F13" d="M50.767,119.089l-1.413-1.813l-2.272-3.066c-0.32-0.443-0.588-0.805-0.874-1.061
			c-0.297-0.3-0.597-0.467-0.797-0.553c-0.226-0.1-0.398-0.125-0.398-0.125l-0.163-0.023l-0.018,0.162c0,0-0.018,0.172,0.024,0.414
			c0.035,0.214,0.124,0.543,0.341,0.895c0.187,0.346,0.473,0.689,0.827,1.104l2.448,2.941l3.181,3.57l0.745-0.377
			C52.397,121.156,51.251,119.714,50.767,119.089z"/>
		<path fill="#980F13" d="M130.854,113.16c0.34-0.313,0.538-0.625,0.646-0.832c0.122-0.236,0.161-0.413,0.161-0.413l0.036-0.177
			l-0.18-0.014c0,0-0.188-0.014-0.44,0.035c-0.229,0.044-0.585,0.145-0.975,0.377c-0.379,0.199-0.77,0.506-1.238,0.885
			c0,0-2.912,2.281-3.327,2.622l-5.267,4.374l0.893,0.274l5.047-3.756l3.449-2.446C130.155,113.748,130.56,113.461,130.854,113.16z"
			/>
		<path fill="#980F13" d="M56.11,111.645l-1.414-1.814l-2.272-3.065c-0.32-0.444-0.588-0.805-0.874-1.062
			c-0.297-0.299-0.597-0.467-0.796-0.553c-0.227-0.1-0.398-0.124-0.398-0.124l-0.164-0.023l-0.018,0.163
			c0,0-0.018,0.172,0.024,0.412c0.036,0.215,0.125,0.543,0.341,0.895c0.186,0.346,0.473,0.691,0.827,1.104l8.947,10.374l0.71-0.217
			C61.023,117.734,57.113,112.938,56.11,111.645z"/>
		<path fill="#980F13" d="M61.899,103.983l-1.118-2.009l-1.773-3.377c-0.248-0.486-0.457-0.883-0.699-1.181
			c-0.248-0.342-0.519-0.552-0.702-0.667c-0.208-0.134-0.376-0.186-0.376-0.186l-0.157-0.046l-0.043,0.157
			c0,0-0.043,0.168-0.039,0.412c0.002,0.216,0.04,0.555,0.2,0.936c0.13,0.369,0.371,0.771,0.647,1.218l1.966,3.278
			c0,0,3.088,4.789,3.958,6.18l4.324,7.176l0.668-0.154C68.754,115.721,62.691,105.414,61.899,103.983z"/>
		<path fill="#980F13" d="M81.431,111.539c-0.076-0.681-2.48-24.646-2.48-24.646c-0.035-0.594-0.069-1.08-0.174-1.48
			c-0.091-0.445-0.256-0.773-0.377-0.967c-0.138-0.225-0.27-0.348-0.27-0.348l-0.131-0.123l-0.106,0.145c0,0-0.106,0.146-0.199,0.39
			c-0.083,0.214-0.182,0.564-0.186,1.011c-0.027,0.422,0.032,0.906,0.112,1.492l2.68,19.939l0.615,6.934l0.767-0.045
			C81.682,113.84,81.47,111.891,81.431,111.539z"/>
		<path fill="#980F13" d="M91.646,84.053c-0.098-0.246-0.207-0.391-0.207-0.391l-0.11-0.146l-0.129,0.128
			c0,0-0.129,0.127-0.26,0.355c-0.118,0.201-0.274,0.534-0.352,0.98c-0.097,0.416-0.12,0.91-0.139,1.51c0,0-0.172,3.683-0.187,4.22
			c0,0-0.106,6.291-0.16,8.104l-0.296,7.403l-0.575,7.657l0.766,0.052l1.783-27.334c0.063-0.576,0.112-1.09,0.077-1.51
			C91.841,84.623,91.733,84.268,91.646,84.053z"/>
		<path fill="#980F13" d="M135.079,117.197c0,0-0.169-0.022-0.441,0.018c-0.23,0.031-0.591,0.116-0.991,0.332
			c-0.39,0.184-0.793,0.472-1.277,0.828c0,0-3.011,2.148-3.441,2.471l-1.525,1.165l1.37,0.284l4.343-2.816
			c0.511-0.32,0.928-0.588,1.237-0.877c0.353-0.297,0.565-0.6,0.681-0.803c0.133-0.229,0.181-0.403,0.181-0.403l0.045-0.176
			L135.079,117.197z"/>
		<path fill="#980F13" d="M74.248,110.775l-6.081-15.547l-1.24-3.604c-0.17-0.518-0.317-0.941-0.511-1.271
			c-0.193-0.377-0.43-0.625-0.593-0.766c-0.186-0.164-0.343-0.239-0.343-0.239l-0.148-0.071l-0.066,0.15
			c0,0-0.069,0.158-0.103,0.401c-0.03,0.214-0.044,0.556,0.055,0.954c0.073,0.385,0.242,0.801,0.455,1.302l1.446,3.536
			c0,0,2.323,5.195,2.975,6.705l2.813,6.748l2.004,5.464l0.758-0.111C75.668,114.427,74.854,112.361,74.248,110.775z"/>
	</g>
	<path fill="#EF4F00" d="M3.97,154.457c-1.617-2.088-2.263-4.988-1.48-7.508c0.796-2.562,4.291-6.117,6.497-7.658
		c9.426-6.584,18.756-6.771,29.469-10.972c7.423-2.91,12.775-8.001,23.396-10.972c10.621-2.97,21.596-5.373,36.892-2.463
		c6.386,1.215,16.636,3.324,22.824,5.305c6.188,1.982,12.77,3.37,19.175,2.259c0.863-1.26,2.74-1.726,4.27-1.646
		c1.531,0.081,2.99,1.001,3.718,2.344c3.731-0.599,7.42,0.081,10.765,1.834c3.345,1.752,6.093,4.607,7.709,8.008
		c-0.324,0.951-1.139,1.856-2.569,3.026c-4.213,2.494-8.127,3.997-13.028,4.089c-4.901,0.09-9.773-0.661-14.617-1.409
		c-5.703,0.845-12.166,2.336-15.902,6.707c-1.768,2.068-2.786,4.695-3.249,7.371c-0.52,3.005-0.369,6.123,0.439,9.064
		c-5.21,1.34-10.15,1.451-15.479,0.702c-1.482-4.08-2.01-7.489-2.021-11.828c-11.369,2.911-27.044,3.906-37.56-4.053
		c2.058,4.187,1.728,9.017-0.758,12.968c-4.241,1.606-9.298,1.682-13.458-0.12c-0.229-2.313-0.101-5.371-0.33-7.685
		c-2.996-3.13-4.922-7.324-5.304-11.631c-10.449-4.019-23.259-2.747-32.574,3.445c-1.84,1.224-3.634,2.711-4.47,4.751
		c-1.709,4.168,1.19,8.827,4.635,11.744C10.257,160.542,5.521,156.46,3.97,154.457z"/>
	<path fill="#CF421E" d="M121.086,145.4c-1.768,2.068-2.786,4.695-3.249,7.371c-0.391,2.256-0.402,4.577-0.041,6.838
		c3.8,1.243,8.121,0.819,11.586-1.172c-2.954-4.822-4.484-10.465-4.52-16.114C123.438,143.153,122.149,144.157,121.086,145.4z"/>
	<path fill="#CF421E" d="M63.217,146.657c1.677,3.411,1.742,7.242,0.374,10.685c3.202,0.967,6.727,1.271,9.479-0.208
		c0.341-1.99,1.042-3.672,2.156-5.234C70.882,150.98,66.755,149.335,63.217,146.657z"/>
	<g opacity="0.32">
		<path fill="#B93F18" d="M100.798,151.661c0.07-0.104,0.142-0.208,0.212-0.312c-0.154-1.384-0.229-2.81-0.232-4.356
			c-11.369,2.91-28.861,3.173-39.376-4.787c0.708,1.439,1.237,2.743,1.949,4.497c10.333,7.83,26.51,6.667,37.428,3.872
			C100.778,150.945,100.788,151.303,100.798,151.661z"/>
		<path fill="#B93F18" d="M6.128,153.017c-0.883-0.828-1.675-1.654-2.158-2.277c-0.78-1.009-1.332-2.205-1.608-3.456
			c-0.571,2.403,0.09,5.078,1.608,7.038c1.552,2.003,6.288,6.085,6.989,5.673C8.803,158.168,6.861,155.66,6.128,153.017z"/>
		<path fill="#B93F18" d="M48.779,153.335c0.029-0.003,0.058-0.007,0.088-0.009c-0.048-1.776-0.042-3.668-0.196-5.225
			c-2.996-3.129-4.922-7.323-5.304-11.631c-10.449-4.018-23.259-2.747-32.574,3.446c-1.84,1.223-3.634,2.711-4.47,4.75
			c-0.594,1.448-0.63,2.956-0.282,4.43c0.074-0.285,0.167-0.567,0.282-0.848c0.836-2.039,2.629-3.526,4.47-4.75
			c9.315-6.192,22.125-7.464,32.574-3.445c0.382,4.307,2.308,8.501,5.304,11.631C48.723,152.202,48.756,152.759,48.779,153.335z"/>
		<path fill="#B93F18" d="M137.64,135.977c2.613,0.136-12.817,1.335-16.554,5.706c-1.768,2.067-2.786,4.694-3.249,7.371
			c-0.305,1.76-0.372,3.559-0.219,5.339c0.05-0.589,0.118-1.175,0.219-1.757c0.463-2.676,1.481-5.303,3.249-7.371
			c3.736-4.371,10.199-5.862,15.902-6.707c4.844,0.748,9.716,1.499,14.617,1.409c4.901-0.092,8.815-1.595,13.028-4.089
			C155.91,137.214,146.305,137.653,137.64,135.977z"/>
	</g>
	<g>
		<path fill="#852915" d="M142.695,126.611c0,0,0.009,0.036,0.023,0.103c0.018,0.065,0.033,0.17,0.074,0.282
			c0.031,0.115,0.09,0.252,0.159,0.404c0.08,0.15,0.18,0.311,0.298,0.476c0.129,0.159,0.272,0.327,0.447,0.478
			c0.169,0.157,0.377,0.287,0.59,0.412c0.218,0.121,0.46,0.202,0.705,0.271c0.239,0.056,0.523,0.073,0.739,0.06
			c0.316-0.032,0.506-0.086,0.756-0.183c0.229-0.107,0.454-0.227,0.648-0.38c0.188-0.157,0.37-0.317,0.509-0.499
			c0.147-0.175,0.26-0.361,0.359-0.537c0.089-0.181,0.161-0.352,0.213-0.51c0.044-0.159,0.079-0.302,0.091-0.422
			c0.033-0.238,0.033-0.382,0.033-0.382c0-0.052,0.042-0.1,0.095-0.099c0.045,0,0.082,0.032,0.091,0.075
			c0,0,0.008,0.037,0.021,0.106c0.009,0.07,0.043,0.174,0.041,0.308c0.012,0.135,0.005,0.297-0.013,0.486
			c-0.024,0.188-0.066,0.397-0.146,0.619c-0.085,0.218-0.188,0.453-0.346,0.675c-0.146,0.229-0.34,0.443-0.563,0.643
			c-0.228,0.194-0.487,0.369-0.778,0.501c-0.28,0.123-0.659,0.213-0.924,0.237c-0.366,0.019-0.666-0.021-0.983-0.1
			c-0.307-0.088-0.589-0.224-0.841-0.382c-0.248-0.164-0.47-0.349-0.646-0.552c-0.187-0.195-0.322-0.412-0.438-0.613
			c-0.109-0.206-0.182-0.407-0.231-0.586c-0.042-0.183-0.073-0.341-0.082-0.478c-0.02-0.135-0.001-0.231-0.001-0.301
			c0.004-0.068,0.005-0.104,0.005-0.104c0.002-0.026,0.024-0.047,0.051-0.046C142.674,126.575,142.691,126.591,142.695,126.611z"/>
		<path fill="#852915" d="M145.641,129.803c-0.275,0-0.527-0.032-0.821-0.105c-0.294-0.085-0.582-0.216-0.858-0.39
			c-0.268-0.176-0.489-0.366-0.66-0.564c-0.193-0.203-0.333-0.429-0.443-0.623c-0.1-0.187-0.177-0.382-0.239-0.601
			c-0.051-0.221-0.076-0.367-0.083-0.49c-0.015-0.095-0.009-0.174-0.005-0.237c0.002-0.024,0.003-0.047,0.003-0.066l0.006-0.11
			c0.002-0.058,0.052-0.104,0.111-0.104c0.054,0.003,0.095,0.036,0.107,0.085c0,0,0.032,0.14,0.038,0.162
			c0.013,0.061,0.028,0.138,0.057,0.217c0.033,0.123,0.096,0.264,0.158,0.399c0.073,0.14,0.172,0.296,0.292,0.466
			c0.116,0.144,0.261,0.314,0.436,0.465c0.158,0.147,0.347,0.269,0.581,0.406c0.181,0.101,0.394,0.181,0.689,0.265
			c0.17,0.039,0.375,0.062,0.573,0.062c0.051,0,0.1-0.002,0.146-0.005c0.316-0.032,0.496-0.085,0.737-0.179
			c0.272-0.126,0.469-0.242,0.631-0.369c0.177-0.148,0.361-0.309,0.498-0.488c0.146-0.175,0.258-0.357,0.355-0.53
			c0.086-0.179,0.157-0.348,0.208-0.499c0.045-0.161,0.076-0.295,0.087-0.407c0.033-0.233,0.033-0.376,0.033-0.376
			c0.002-0.095,0.071-0.162,0.158-0.162c0.076,0,0.141,0.055,0.153,0.128c0,0,0.029,0.15,0.034,0.175
			c0.013,0.062,0.031,0.149,0.029,0.251c0.011,0.117,0.008,0.267-0.012,0.491c-0.029,0.223-0.079,0.437-0.15,0.635
			c-0.084,0.213-0.19,0.461-0.354,0.69c-0.139,0.219-0.332,0.438-0.571,0.653c-0.251,0.214-0.519,0.385-0.795,0.51
			c-0.274,0.12-0.652,0.218-0.944,0.243C145.76,129.802,145.699,129.803,145.641,129.803z M142.661,126.738
			c0,0.018-0.003,0.04-0.004,0.062c-0.004,0.061-0.009,0.13,0.005,0.215c0.007,0.123,0.03,0.263,0.079,0.474
			c0.06,0.206,0.134,0.395,0.228,0.57c0.105,0.186,0.239,0.403,0.425,0.599c0.166,0.192,0.379,0.373,0.636,0.543
			c0.266,0.167,0.542,0.294,0.823,0.375c0.341,0.084,0.622,0.113,0.964,0.097c0.271-0.024,0.643-0.12,0.9-0.232
			c0.267-0.12,0.523-0.286,0.764-0.491c0.23-0.205,0.416-0.416,0.55-0.627c0.157-0.223,0.261-0.461,0.341-0.665
			c0.067-0.188,0.115-0.392,0.144-0.604c0.018-0.214,0.021-0.356,0.011-0.474c0.001-0.094-0.014-0.169-0.026-0.229
			c-0.007-0.028-0.012-0.054-0.014-0.075l-0.021-0.104c-0.004-0.027-0.06-0.026-0.06,0.007c0,0.011,0,0.154-0.034,0.396
			c-0.011,0.119-0.044,0.258-0.091,0.43c-0.054,0.16-0.127,0.334-0.218,0.521c-0.103,0.181-0.218,0.37-0.368,0.551
			c-0.144,0.187-0.334,0.353-0.517,0.507c-0.173,0.136-0.377,0.255-0.662,0.389c-0.249,0.096-0.445,0.153-0.776,0.188
			c-0.05,0.003-0.104,0.004-0.156,0.004c-0.208,0-0.424-0.022-0.604-0.064c-0.208-0.059-0.476-0.143-0.721-0.277
			c-0.196-0.114-0.421-0.251-0.603-0.421c-0.181-0.156-0.33-0.332-0.453-0.483c-0.126-0.178-0.228-0.34-0.304-0.486
			c-0.067-0.145-0.132-0.291-0.166-0.418c-0.029-0.082-0.048-0.167-0.062-0.229L142.661,126.738z"/>
	</g>
	<path fill="#852915" d="M161.497,130.146c-0.211-0.619-0.454-1.282-0.998-1.647c-0.544-0.366-1.473-0.201-1.61,0.438
		c-0.117,0.541,0.401,1.04,0.942,1.171C160.373,130.239,160.94,130.13,161.497,130.146z"/>
	<g>
		<path fill="#BE1E2D" d="M103.856,115.891c-1.851-0.377-3.594-0.717-5.113-1.006c-1.108-0.211-2.19-0.391-3.256-0.549
			c1.465,0.844,1.181,3.044,0.679,4.677c-1.192,3.882-2.386,7.762-3.578,11.644c-0.471,1.532-0.947,3.13-0.696,4.713
			c0.252,1.583,1.465,3.138,3.072,3.222c1.394,0.075,2.646-0.972,3.268-2.214c0.621-1.244,0.752-2.664,0.921-4.043
			c0.626-5.106,1.924-10.131,3.851-14.904C103.212,116.91,103.501,116.357,103.856,115.891z"/>
		<path fill="#BE1E2D" d="M87.807,133.862c0.966-0.16,1.667-1.057,1.921-1.996c0.253-0.941,0.152-1.935,0.094-2.906
			c-0.228-3.78,0.213-7.598,1.294-11.228c0.302-1.013,0.674-2.047,1.42-2.797c0.396-0.397,0.926-0.688,1.476-0.802
			c-1.77-0.226-3.481-0.379-5.141-0.468c0.188,0.264,0.308,0.591,0.32,0.914c0.027,0.695-0.288,1.354-0.579,1.988
			c-1.788,3.875-2.991,8.017-3.56,12.244c-0.15,1.11-0.249,2.276,0.162,3.319C85.624,133.177,86.695,134.044,87.807,133.862z"/>
		<path fill="#BE1E2D" d="M86.945,113.59c-5.585-0.141-10.593,0.434-15.325,1.365c-0.044,0.764-0.513,1.653-0.991,2.312
			c-2.724,3.753-4.731,8.02-5.883,12.506c-0.463,1.804-0.489,4.243,1.244,4.943c1.336,0.542,2.816-0.419,3.733-1.527
			c4.114-4.978,2.68-12.993,6.978-17.814c0.707-0.793,1.885-1.497,2.775-0.913c1.117,0.731,0.475,2.44-0.2,3.589
			c-2.284,3.888-3.732,8.257-4.219,12.734c-0.157,1.432-0.072,3.165,1.162,3.918c1.294,0.789,3.071-0.125,3.792-1.454
			c0.72-1.33,0.708-2.912,0.807-4.42c0.35-5.318,2.348-10.519,5.654-14.714C86.613,113.934,86.771,113.75,86.945,113.59z"/>
		<path fill="#BE1E2D" d="M67.979,115.805c0.009-0.021,0.02-0.043,0.029-0.065c-2.083,0.493-4.126,1.041-6.156,1.608
			c-1.174,0.328-2.28,0.683-3.335,1.057c-0.655,1.782-1.31,3.563-1.965,5.347c-0.533,1.448-1.074,2.958-0.92,4.493
			c0.153,1.536,1.222,3.098,2.761,3.284c2.195,0.268,3.669-2.116,4.547-4.136C64.619,123.53,66.299,119.668,67.979,115.805z"/>
		<path fill="#BE1E2D" d="M126.417,121.568c-0.078,2.06-0.157,4.12-0.235,6.18c-0.029,0.761-0.054,1.549,0.234,2.255
			c0.289,0.704,0.98,1.307,1.742,1.24c0.863-0.075,1.451-0.957,1.57-1.811c0.121-0.853-0.09-1.715-0.137-2.574
			c-0.085-1.564,0.424-3.141,1.356-4.4C129.429,122.238,127.917,121.934,126.417,121.568z"/>
		<path fill="#BE1E2D" d="M138.682,127.044c0.523-0.355,0.623-1.069,0.674-1.697c0.075-0.908,0.149-1.817,0.225-2.727
			c-0.95,0.12-1.904,0.185-2.86,0.207c-0.011,0.165-0.026,0.327-0.05,0.486c-0.133,0.897-0.377,1.829-0.103,2.695
			C136.844,126.873,137.927,127.556,138.682,127.044z"/>
		<path fill="#BE1E2D" d="M133.822,128.759c0.521-0.072,0.735-0.688,0.844-1.199c0.336-1.574,0.671-3.149,1.006-4.724
			c-1.01-0.011-2.021-0.071-3.03-0.172c0.048,1.503,0.096,3.005,0.143,4.508C132.808,127.889,133.108,128.859,133.822,128.759z"/>
		<path fill="#BE1E2D" d="M121.98,133.304c0.584-1.43,0.449-3.031,0.504-4.572c0.096-2.662,0.807-5.296,2.04-7.659
			c-0.994-0.274-1.981-0.569-2.957-0.883c-1.137-0.364-2.413-0.732-3.776-1.1c-0.368,3.808-0.737,7.616-1.105,11.423
			c-0.176,1.818-0.064,4.139,1.639,4.817C119.763,135.903,121.398,134.733,121.98,133.304z"/>
		<path fill="#BE1E2D" d="M111.51,132.431c0.526-2.827,0.537-5.746,1.284-8.524c0.539-1.999,1.572-3.984,3.121-5.305
			c-2.688-0.683-5.603-1.348-8.43-1.953c0.009,0.06,0.021,0.118,0.026,0.178c0.073,0.876-0.211,1.738-0.47,2.578
			c-1.187,3.863-1.897,7.87-2.113,11.904c-0.061,1.128-0.077,2.292,0.322,3.351c0.4,1.058,1.308,1.997,2.437,2.119
			C109.811,137.008,111.119,134.521,111.51,132.431z"/>
	</g>
	<g>
		<path fill="#BE1E2D" d="M15.552,136.35c-0.04-0.278-0.064-0.558-0.081-0.837c-1.289,0.572-2.573,1.217-3.855,1.962
			c-0.019,0.708,0,1.415,0.083,2.119c0.115,0.984,0.366,1.963,0.747,2.882c1.55-0.898,3.179-1.672,4.866-2.316
			C16.306,139.158,15.752,137.759,15.552,136.35z"/>
		<path fill="#BE1E2D" d="M20.922,133.475c-0.921,0.293-1.838,0.604-2.751,0.942c-0.503,1.84-0.719,3.754-0.632,5.659
			c1.036-0.388,2.092-0.727,3.163-1.018C20.637,137.195,20.706,135.327,20.922,133.475z"/>
		<path fill="#BE1E2D" d="M31.46,130.516c-0.266,0.077-0.532,0.152-0.796,0.227c-0.62,1.781-0.968,3.656-1.007,5.541
			c-0.639-1.575-1.029-3.25-1.163-4.944c-1.185,0.32-2.356,0.631-3.518,0.949c-0.299,1.954-0.38,3.94-0.247,5.912
			c2.029-0.317,4.087-0.471,6.141-0.455C30.672,135.325,30.872,132.872,31.46,130.516z"/>
		<path fill="#BE1E2D" d="M38.064,128.334c-0.547,0.21-1.092,0.412-1.632,0.604c-0.903,2.941-1.255,6.049-1.041,9.118
			c0.703,0.091,1.402,0.202,2.096,0.335C36.985,135.046,37.184,131.599,38.064,128.334z"/>
		<path fill="#BE1E2D" d="M6.324,148.249c0.531-1.295,1.45-2.367,2.521-3.291c-0.814-1.33-1.392-2.801-1.674-4.333
			c-1.956,1.771-4.082,4.261-4.681,6.188c-0.782,2.52-0.137,5.419,1.48,7.508c1.552,2.003,6.288,6.085,6.989,5.673
			C7.514,157.077,4.614,152.418,6.324,148.249z"/>
	</g>
	<path fill="#CF421E" d="M62.336,159.748c-0.258-0.629-0.53-1.275-1.024-1.744c-0.494-0.467-1.275-0.705-1.871-0.376
		c-0.509,0.278-0.747,0.914-0.945,1.459c-0.292-0.9-1.291-1.514-2.23-1.368c-0.939,0.146-1.704,1.031-1.708,1.977
		c0.013-0.028,0.021,0.077,0.034,0.048c-0.142-0.546-0.388-1.082-0.804-1.466c-0.416-0.385-1.021-0.594-1.566-0.438
		c-0.447,0.127-0.804,0.481-1.017,0.893c-0.214,0.411-0.299,0.876-0.342,1.338c0.033-0.036,0.065-0.072,0.098-0.107
		C54.7,160.806,58.685,160.909,62.336,159.748z"/>
	<path fill="#CF421E" d="M117.788,161.763c-0.259-0.628-0.53-1.275-1.023-1.743c-0.494-0.467-1.275-0.706-1.872-0.377
		c-0.509,0.279-0.747,0.915-0.944,1.459c-0.292-0.899-1.291-1.513-2.23-1.368c-0.939,0.146-1.704,1.032-1.707,1.978
		c0.013-0.029,0.02,0.076,0.033,0.048c-0.142-0.547-0.388-1.083-0.804-1.467c-0.415-0.384-1.021-0.593-1.566-0.438
		c-0.446,0.128-0.805,0.482-1.018,0.894s-0.298,0.877-0.342,1.337c0.033-0.036-0.114,0.65-0.082,0.614
		C110.118,163.081,114.329,162.719,117.788,161.763z"/>
	<path fill="#AE381E" d="M72.942,157.312c-0.206-0.627-0.422-1.275-0.816-1.742c-0.393-0.469-1.015-0.706-1.491-0.378
		c-0.405,0.28-0.595,0.914-0.751,1.459c-0.232-0.9-1.029-1.512-1.776-1.367c-0.748,0.146-1.357,1.03-1.36,1.978
		c0.01-0.03,0.017,0.076,0.027,0.046c-0.113-0.546-0.309-1.082-0.64-1.466c-0.331-0.385-0.813-0.592-1.248-0.438
		c-0.355,0.128-0.64,0.481-0.81,0.894c-0.17,0.411-0.238,0.877-0.272,1.337c0.026-0.036,0.052-0.071,0.078-0.107
		C66.859,158.369,70.034,158.475,72.942,157.312z"/>
	<path fill="#AE381E" d="M129.146,158.4c-0.307-0.586-0.627-1.189-1.092-1.587c-0.465-0.396-1.119-0.529-1.532-0.128
		c-0.354,0.342-0.437,0.999-0.501,1.562c-0.379-0.85-1.265-1.324-1.979-1.059s-1.169,1.239-1.015,2.173
		c0.005-0.03,0.028,0.072,0.033,0.041c-0.201-0.52-0.483-1.016-0.873-1.341c-0.39-0.324-0.899-0.452-1.303-0.229
		c-0.33,0.184-0.552,0.581-0.651,1.014c-0.1,0.434-0.091,0.904-0.048,1.364C120.204,160.171,126.276,160.757,129.146,158.4z"/>
	<g opacity="0.21">
		<path fill="#FBC8B7" d="M2.489,148.463c0.796-2.563,4.291-6.118,6.497-7.659c9.426-6.583,18.756-6.77,29.469-10.971
			c7.423-2.911,12.775-8.002,23.396-10.972c10.621-2.971,21.596-5.373,36.892-2.463c6.386,1.215,16.636,3.324,22.824,5.306
			c6.188,1.98,12.77,3.367,19.175,2.257c0.863-1.26,2.74-1.726,4.27-1.646c1.531,0.079,2.99,1,3.718,2.344
			c3.731-0.599,7.42,0.08,10.765,1.833c2.868,1.503,5.296,3.819,6.95,6.593c0.253-0.078,0.507-0.151,0.759-0.233
			c-1.616-3.4-4.364-6.256-7.709-8.008c-3.345-1.753-7.033-2.433-10.765-1.834c-0.728-1.343-2.187-2.263-3.718-2.344
			c-1.529-0.08-3.406,0.386-4.27,1.646c-6.405,1.111-12.987-0.275-19.175-2.258c-6.188-1.98-16.438-4.09-22.824-5.306
			c-15.296-2.91-26.271-0.507-36.892,2.463c-10.621,2.972-15.973,8.062-23.396,10.972c-10.713,4.201-20.043,4.388-29.469,10.971
			c-2.206,1.542-5.7,5.097-6.497,7.659c-0.306,0.985-0.391,2.028-0.288,3.059C2.253,149.395,2.347,148.922,2.489,148.463z"/>
	</g>
	<path fill="#852915" d="M166.912,132.435c-0.096,0.025-0.196,0.053-0.312,0.085c-0.557,0.136-1.354,0.398-2.304,0.591
		c-0.477,0.107-0.992,0.222-1.539,0.344c-0.544,0.131-1.133,0.202-1.734,0.313c-0.605,0.097-1.227,0.226-1.868,0.278
		c-0.64,0.068-1.289,0.139-1.938,0.209c-0.652,0.027-1.305,0.054-1.947,0.08c-0.644,0.046-1.275,0.013-1.887-0.018
		c-0.611-0.037-1.207-0.028-1.764-0.101c-0.556-0.078-1.082-0.15-1.568-0.218c-0.488-0.054-0.931-0.136-1.313-0.25
		c-0.386-0.099-1.888-0.479-1.888-0.479c-0.055-0.013-0.111,0.019-0.127,0.072c-0.018,0.057,0.015,0.116,0.071,0.132
		c0,0,1.487,0.442,1.875,0.559c0.384,0.131,0.827,0.233,1.319,0.308c0.49,0.088,1.021,0.185,1.582,0.286
		c0.562,0.097,1.165,0.112,1.784,0.175c0.621,0.058,1.263,0.116,1.916,0.098c0.654,0,1.318-0.001,1.982-0.001
		c0.663-0.043,1.325-0.088,1.978-0.132c0.655-0.026,1.29-0.131,1.908-0.204c0.616-0.087,1.217-0.135,1.779-0.246
		c0.564-0.102,1.098-0.197,1.59-0.287c0.993-0.161,1.774-0.385,2.343-0.499c0.04-0.01,0.07-0.017,0.107-0.024
		c0.093-0.174,0.188-0.346,0.246-0.519C167.114,132.8,167.009,132.619,166.912,132.435z"/>
</g>
</svg>
