<?xml version="1.0" encoding="utf-8"?>
<!-- Generator: Adobe Illustrator 16.0.4, SVG Export Plug-In . SVG Version: 6.00 Build 0)  -->
<!DOCTYPE svg PUBLIC "-//W3C//DTD SVG 1.1//EN" "http://www.w3.org/Graphics/SVG/1.1/DTD/svg11.dtd">
<svg version="1.1" id="Layer_1" xmlns="http://www.w3.org/2000/svg" xmlns:xlink="http://www.w3.org/1999/xlink" x="0px" y="0px"
	 width="170px" height="170px" viewBox="0 0 170 170" enable-background="new 0 0 170 170" xml:space="preserve">
<title>Artboard 9</title>
<g>
	<path fill="#BE1E2D" d="M98.613,74.905c6.385,1.215,16.635,3.323,22.822,5.306c3.689,1.182,7.52,2.146,11.366,2.502
		c-0.729-0.75-1.104-1.969-1.229-3.043c-1.252-0.062-2.463-0.762-3.111-1.83c-0.695-1.145-1.027-2.551-0.377-3.72
		c-1.439,0.022-2.859-0.793-3.564-2.043c-0.701-1.25-0.496-2.962,0.275-4.172c-1.756,0.346-3.67,0.401-5.243-0.449
		c-1.571-0.851-2.672-2.999-1.972-4.638c-2.016,0.817-4.463-0.201-5.712-1.978c-1.248-1.774-1.224-4.03-0.839-6.164
		c-1.982,1.177-4.608,1.179-6.594,0.011c-1.984-1.172-3.105-3.438-3.023-5.73c-1.457,1.484-3.637,2.23-5.702,1.955
		c-2.067-0.275-3.653-1.654-4.666-3.469c-1.28,2.106-3.642,3.526-6.113,3.678c-2.472,0.148-4.998-0.854-6.526-2.791
		c-0.359,2.41-1.961,4.604-4.154,5.686c-2.193,1.084-5.125,0.983-7.27-0.189c1.085,1.979,0.766,4.628-0.759,6.297
		c-1.524,1.668-4.259,2.732-6.342,1.845c0.776,1.837,0.421,4.097-0.881,5.608c-1.302,1.512-3.79,2.186-5.732,1.704
		c0.618,1.718,0.282,3.741-0.858,5.171c-1.14,1.429-2.445,2.607-4.266,2.396c0.508,1.639,0.101,3.526-1.036,4.814
		c-1.137,1.287-2.723,1.888-4.42,1.598c0.131,2.248-1.747,4.428-4,4.641c-0.025,0.104-0.042,0.209-0.055,0.315
		c7.265-2.929,12.616-7.918,23.089-10.848C72.34,74.398,83.315,71.994,98.613,74.905z"/>
	<path fill="#EF4F00" d="M88.695,66.963c-3.708-0.939-7.607-1.113-11.383-0.51c-1.538,0.246-3.07,0.625-4.454,1.336
		c-1.287,0.662-2.557,1.99-2.118,3.363c0.321,1.004,1.468,1.546,2.526,1.55c1.058,0.005,2.067-0.399,3.074-0.72
		c2.383-0.758,4.911-1.06,7.406-0.888c1.886,0.132,3.806,0.526,5.643,0.08c0.9-0.221,1.857-0.776,1.996-1.69
		c0.102-0.666-0.285-1.336-0.824-1.746S89.354,67.129,88.695,66.963z"/>
	<path fill="#EF4F00" d="M91.716,52.648c-4.01-0.125-8.037,1.682-10.599,4.756c-0.988,1.184-1.792,2.742-1.361,4.221
		c0.431,1.473,1.989,2.377,3.516,2.593c1.679,0.237,3.444-0.198,4.817-1.188c1.117-0.808,1.95-1.935,2.886-2.943
		c0.936-1.01,2.058-1.953,3.416-2.194c1.358-0.242,2.963,0.463,3.303,1.793c0.259,1.018-0.252,2.078-0.172,3.125
		c0.138,1.76,1.875,2.967,3.563,3.498c1.935,0.606,4.208,0.625,5.822-0.599c1.614-1.222,2.085-3.938,0.55-5.258
		c-1.881-1.619-5.158-0.272-7.075-1.853c-0.821-0.676-1.188-1.74-1.772-2.629C97.156,53.76,94.37,52.732,91.716,52.648z"/>
	<path fill="#EF4F00" d="M125.232,75.445c0.315-1.389-0.66-2.738-1.737-3.676c-2.804-2.44-6.587-3.535-10.306-3.746
		c-2.139-0.119-4.281,0.027-6.418,0.176c-1.084,0.074-2.277,0.197-3.025,0.984c-1.125,1.186-0.508,3.297,0.841,4.223
		c1.349,0.924,3.112,0.955,4.744,0.807c1.631-0.148,3.298-0.441,4.887-0.047c1.384,0.346,2.58,1.182,3.786,1.938
		s2.518,1.467,3.941,1.513C123.371,77.66,124.918,76.83,125.232,75.445z"/>
	<path fill="#EF4F00" d="M66.412,64.23c-3.289,1.066-5.22,4.397-8.021,6.418c-0.992,0.716-2.183,1.373-2.543,2.539
		c-0.461,1.494,0.837,3.103,2.37,3.446c1.257,0.282,2.647-0.11,3.566-1.012c1.112-1.09,1.472-2.741,2.46-3.942
		c1.065-1.294,2.72-1.914,4.198-2.712c1.124-0.604,2.302-1.569,2.236-2.839c-0.046-0.896-0.761-1.668-1.61-1.973
		C68.219,63.854,67.27,63.953,66.412,64.23z"/>
	<g opacity="0.27">
		<path fill="#FFFFFF" d="M124.168,71.104c-0.158,0.875-0.068,1.791,0.352,2.541c0.647,1.152,1.906,1.926,3.228,2.025
			c-0.024-0.535,0.065-1.062,0.338-1.55c-1.438,0.022-2.86-0.793-3.563-2.043C124.352,71.775,124.236,71.445,124.168,71.104z"/>
		<path fill="#FFFFFF" d="M111.868,62.408c1.214,1.726,3.562,2.732,5.541,2.035c-0.091-0.555-0.048-1.115,0.171-1.625
			c-2.016,0.817-4.463-0.201-5.712-1.978c-0.646-0.918-0.947-1.966-1.039-3.057C110.708,59.428,110.919,61.057,111.868,62.408z"/>
		<path fill="#FFFFFF" d="M119.552,69.023c1.386,0.75,3.036,0.795,4.609,0.559c0.103-0.6,0.315-1.18,0.634-1.677
			c-1.756,0.346-3.67,0.401-5.243-0.449c-1.003-0.543-1.812-1.614-2.085-2.745C117.025,66.3,118.082,68.229,119.552,69.023z"/>
		<path fill="#FFFFFF" d="M128.461,79.406c0.648,1.068,1.859,1.768,3.111,1.83c0.052,0.447,0.15,0.918,0.297,1.371
			c0.311,0.037,0.623,0.076,0.934,0.104c-0.729-0.75-1.104-1.969-1.229-3.043c-1.253-0.062-2.462-0.762-3.111-1.83
			c-0.285-0.471-0.504-0.983-0.624-1.508C127.573,77.35,127.889,78.467,128.461,79.406z"/>
		<path fill="#FFFFFF" d="M42.686,84.826c1.698,0.291,3.283-0.311,4.42-1.598c0.992-1.123,1.427-2.703,1.185-4.177
			c-0.142,0.959-0.542,1.882-1.185,2.609c-1.137,1.287-2.723,1.888-4.42,1.598c0.131,2.248-1.747,4.427-4,4.64
			c-0.025,0.104-0.042,0.209-0.055,0.316c1.32-0.531,2.576-1.134,3.812-1.775C42.628,85.925,42.718,85.378,42.686,84.826z"/>
		<path fill="#FFFFFF" d="M48.346,78.43c1.714,0.104,2.965-1.037,4.062-2.412c0.921-1.153,1.306-2.693,1.099-4.149
			C53.37,72.807,53,73.71,52.408,74.451c-1.14,1.429-2.445,2.607-4.266,2.396C48.301,77.359,48.36,77.896,48.346,78.43z"/>
		<path fill="#FFFFFF" d="M58.999,69.143c1.013-1.176,1.449-2.803,1.23-4.332c-0.144,1.014-0.561,1.988-1.23,2.766
			c-1.302,1.513-3.79,2.186-5.732,1.704c0.188,0.522,0.277,1.073,0.293,1.629C55.453,71.258,57.761,70.581,58.999,69.143z"/>
		<path fill="#FFFFFF" d="M66.222,61.689c1.095-1.198,1.563-2.901,1.342-4.5c-0.15,1.082-0.603,2.123-1.342,2.933
			c-1.524,1.668-4.259,2.733-6.342,1.845c0.229,0.543,0.358,1.124,0.394,1.711C62.297,64.287,64.792,63.254,66.222,61.689z"/>
		<path fill="#FFFFFF" d="M74.25,55.584c2.193-1.083,3.795-3.275,4.154-5.688c1.529,1.938,4.055,2.94,6.526,2.791
			c2.47-0.149,4.832-1.569,6.113-3.679c1.014,1.814,2.6,3.194,4.666,3.472c2.064,0.274,4.245-0.473,5.702-1.957
			c-0.082,2.295,1.039,4.561,3.022,5.729c1.916,1.129,4.43,1.161,6.385,0.104c0.035-0.562,0.109-1.125,0.209-1.682
			c-1.981,1.176-4.607,1.18-6.594,0.01c-1.983-1.17-3.104-3.437-3.022-5.729c-1.457,1.483-3.638,2.231-5.702,1.955
			c-2.066-0.275-3.652-1.654-4.666-3.47c-1.281,2.107-3.643,3.527-6.113,3.679c-2.472,0.147-4.998-0.853-6.526-2.791
			c-0.359,2.41-1.961,4.604-4.154,5.687c-2.193,1.084-5.125,0.982-7.27-0.19c0.314,0.573,0.507,1.204,0.591,1.852
			C69.643,56.57,72.252,56.57,74.25,55.584z"/>
	</g>
	<g>
		<path fill="#980F13" d="M102.117,48.971c0.165-0.58,0.296-1.056,0.331-1.477c0.063-0.455,0.019-0.822-0.031-1.049
			c-0.056-0.26-0.138-0.42-0.138-0.42l-0.084-0.162l-0.148,0.104c0,0-0.148,0.104-0.318,0.307c-0.148,0.179-0.36,0.48-0.514,0.906
			c-0.165,0.396-0.271,0.877-0.395,1.465l-4.143,19.992l-1.486,5.857l0.738,0.107L102.117,48.971z"/>
		<path fill="#980F13" d="M116.79,64.918l2.903-3.627c0.369-0.447,0.693-0.85,0.895-1.221c0.241-0.396,0.346-0.75,0.393-0.978
			c0.052-0.259,0.041-0.438,0.041-0.438l-0.013-0.182l-0.18,0.035c0,0-0.177,0.036-0.412,0.155
			c-0.208,0.103-0.522,0.297-0.834,0.628c-0.312,0.296-0.601,0.695-0.948,1.188l-11.512,16.304l0.695,0.149L116.79,64.918z"/>
		<path fill="#980F13" d="M110.252,57.273l1.947-3.742c0.275-0.512,0.514-0.969,0.638-1.372c0.159-0.433,0.192-0.8,0.192-1.033
			c0-0.265-0.047-0.438-0.047-0.438l-0.047-0.178l-0.168,0.07c0,0-0.168,0.07-0.375,0.234c-0.185,0.142-0.455,0.393-0.694,0.775
			c-0.245,0.352-0.452,0.801-0.695,1.352l-8.292,18.67l-1.918,3.877l0.705,0.139L110.252,57.273z"/>
		<path fill="#980F13" d="M122.887,70.479l3.115-2.854c0.451-0.402,0.816-0.736,1.071-1.072c0.298-0.354,0.456-0.688,0.534-0.906
			c0.093-0.248,0.107-0.43,0.107-0.43l0.018-0.18l-0.183,0.008c0,0-0.182,0.01-0.433,0.092c-0.223,0.071-0.562,0.215-0.92,0.494
			c-0.352,0.246-0.7,0.598-1.118,1.031l-11.192,11.652l0.766,0.188L122.887,70.479z"/>
		<path fill="#980F13" d="M50.767,79.089l-1.413-1.813l-2.272-3.065c-0.32-0.442-0.588-0.806-0.874-1.062
			c-0.297-0.299-0.597-0.467-0.797-0.553c-0.226-0.1-0.398-0.125-0.398-0.125l-0.163-0.022l-0.018,0.161
			c0,0-0.018,0.173,0.024,0.414c0.035,0.215,0.124,0.543,0.341,0.896c0.187,0.347,0.473,0.688,0.827,1.104l2.448,2.94l3.181,3.57
			l0.745-0.377C52.397,81.156,51.251,79.714,50.767,79.089z"/>
		<path fill="#980F13" d="M130.854,73.16c0.34-0.312,0.539-0.625,0.646-0.832c0.122-0.236,0.161-0.413,0.161-0.413l0.036-0.177
			l-0.18-0.014c0,0-0.188-0.015-0.44,0.034c-0.229,0.044-0.585,0.146-0.976,0.377c-0.379,0.199-0.77,0.507-1.238,0.886
			c0,0-2.911,2.28-3.326,2.621l-5.268,4.375l0.894,0.273l5.047-3.756l3.449-2.446C130.154,73.748,130.561,73.461,130.854,73.16z"/>
		<path fill="#980F13" d="M56.11,71.645l-1.414-1.813l-2.272-3.065c-0.32-0.443-0.588-0.805-0.874-1.062
			c-0.297-0.3-0.597-0.468-0.796-0.554c-0.227-0.1-0.398-0.123-0.398-0.123l-0.164-0.023l-0.018,0.163c0,0-0.018,0.172,0.024,0.412
			c0.036,0.215,0.125,0.543,0.341,0.896c0.186,0.346,0.473,0.69,0.827,1.104l8.947,10.374l0.71-0.218
			C61.023,77.734,57.113,72.938,56.11,71.645z"/>
		<path fill="#980F13" d="M61.899,63.982l-1.118-2.008l-1.773-3.377c-0.248-0.486-0.457-0.884-0.699-1.182
			c-0.248-0.342-0.519-0.552-0.702-0.667c-0.208-0.134-0.376-0.187-0.376-0.187l-0.157-0.045l-0.043,0.156
			c0,0-0.043,0.168-0.039,0.412c0.002,0.216,0.04,0.555,0.2,0.936c0.13,0.369,0.371,0.771,0.647,1.219l1.966,3.277
			c0,0,3.088,4.789,3.958,6.181l4.324,7.176l0.668-0.153C68.754,75.721,62.691,65.414,61.899,63.982z"/>
		<path fill="#980F13" d="M81.431,71.539c-0.076-0.682-2.48-24.646-2.48-24.646c-0.035-0.594-0.069-1.08-0.174-1.479
			c-0.091-0.445-0.256-0.773-0.377-0.967c-0.138-0.225-0.27-0.348-0.27-0.348l-0.131-0.123l-0.106,0.145c0,0-0.106,0.146-0.199,0.39
			c-0.083,0.214-0.182,0.564-0.186,1.012c-0.027,0.422,0.032,0.905,0.112,1.492l2.68,19.938l0.615,6.934l0.767-0.045
			C81.682,73.84,81.47,71.891,81.431,71.539z"/>
		<path fill="#980F13" d="M91.646,44.053c-0.099-0.246-0.207-0.391-0.207-0.391l-0.11-0.146L91.2,43.644c0,0-0.13,0.127-0.261,0.355
			c-0.117,0.201-0.273,0.534-0.352,0.98c-0.097,0.416-0.12,0.91-0.139,1.51c0,0-0.172,3.683-0.188,4.22c0,0-0.105,6.291-0.16,8.104
			l-0.295,7.403l-0.576,7.657l0.767,0.052l1.782-27.334c0.063-0.575,0.113-1.09,0.078-1.51
			C91.841,44.623,91.732,44.268,91.646,44.053z"/>
		<path fill="#980F13" d="M135.079,77.197c0,0-0.169-0.022-0.44,0.018c-0.23,0.031-0.592,0.116-0.992,0.332
			c-0.39,0.184-0.793,0.473-1.276,0.828c0,0-3.011,2.148-3.44,2.471l-1.525,1.165l1.369,0.284l4.344-2.816
			c0.511-0.319,0.928-0.588,1.236-0.877c0.354-0.297,0.565-0.6,0.682-0.803c0.133-0.229,0.181-0.402,0.181-0.402l0.046-0.177
			L135.079,77.197z"/>
		<path fill="#980F13" d="M74.248,70.775l-6.081-15.547l-1.24-3.604c-0.17-0.519-0.317-0.94-0.511-1.271
			c-0.193-0.377-0.43-0.625-0.593-0.767c-0.186-0.164-0.343-0.239-0.343-0.239l-0.148-0.07l-0.066,0.149
			c0,0-0.069,0.158-0.103,0.401c-0.03,0.214-0.044,0.556,0.055,0.954c0.073,0.385,0.242,0.801,0.455,1.302l1.446,3.536
			c0,0,2.323,5.194,2.975,6.705l2.813,6.748l2.004,5.464l0.758-0.111C75.668,74.427,74.854,72.361,74.248,70.775z"/>
	</g>
	<path fill="#EF4F00" d="M3.97,114.457c-1.617-2.088-2.263-4.988-1.48-7.508c0.796-2.562,4.291-6.117,6.497-7.658
		c9.426-6.584,18.756-6.771,29.469-10.973c7.423-2.909,12.775-8,23.396-10.971s21.596-5.373,36.892-2.464
		c6.386,1.216,16.636,3.324,22.824,5.306c6.188,1.981,12.77,3.369,19.175,2.259c0.862-1.261,2.739-1.726,4.271-1.646
		c1.53,0.081,2.989,1.001,3.717,2.345c3.731-0.6,7.42,0.08,10.766,1.834c3.345,1.752,6.093,4.606,7.709,8.008
		c-0.324,0.951-1.139,1.855-2.568,3.025c-4.214,2.494-8.128,3.997-13.029,4.09c-4.9,0.09-9.772-0.662-14.616-1.41
		c-5.703,0.846-12.166,2.337-15.902,6.707c-1.769,2.068-2.786,4.695-3.249,7.371c-0.52,3.006-0.369,6.123,0.439,9.064
		c-5.211,1.34-10.15,1.451-15.479,0.702c-1.481-4.08-2.01-7.489-2.021-11.828c-11.369,2.911-27.044,3.906-37.56-4.053
		c2.058,4.187,1.728,9.017-0.758,12.968c-4.241,1.605-9.298,1.682-13.458-0.12c-0.229-2.313-0.101-5.371-0.33-7.685
		c-2.996-3.131-4.922-7.324-5.304-11.631c-10.449-4.02-23.259-2.748-32.574,3.444c-1.84,1.224-3.634,2.712-4.47,4.751
		c-1.709,4.168,1.19,8.827,4.635,11.744C10.257,120.542,5.521,116.46,3.97,114.457z"/>
	<path fill="#CF421E" d="M121.086,105.4c-1.768,2.067-2.786,4.695-3.249,7.371c-0.392,2.256-0.401,4.576-0.041,6.838
		c3.8,1.242,8.121,0.818,11.586-1.172c-2.954-4.822-4.483-10.465-4.521-16.114C123.438,103.152,122.148,104.157,121.086,105.4z"/>
	<path fill="#CF421E" d="M63.217,106.657c1.677,3.411,1.742,7.241,0.374,10.685c3.202,0.967,6.727,1.271,9.479-0.208
		c0.341-1.989,1.042-3.672,2.156-5.233C70.882,110.98,66.755,109.335,63.217,106.657z"/>
	<g opacity="0.32">
		<path fill="#B93F18" d="M100.798,111.661c0.07-0.104,0.142-0.208,0.212-0.312c-0.154-1.385-0.229-2.811-0.232-4.356
			c-11.368,2.909-28.86,3.173-39.375-4.787c0.708,1.438,1.237,2.743,1.949,4.497c10.333,7.83,26.51,6.667,37.428,3.872
			C100.777,110.945,100.788,111.303,100.798,111.661z"/>
		<path fill="#B93F18" d="M6.128,113.018c-0.883-0.828-1.675-1.654-2.158-2.277c-0.78-1.01-1.332-2.205-1.608-3.456
			c-0.571,2.403,0.09,5.077,1.608,7.038c1.552,2.003,6.288,6.085,6.989,5.673C8.803,118.168,6.861,115.66,6.128,113.018z"/>
		<path fill="#B93F18" d="M48.779,113.335c0.029-0.003,0.058-0.007,0.088-0.009c-0.048-1.776-0.042-3.668-0.196-5.225
			c-2.996-3.129-4.922-7.324-5.304-11.631c-10.449-4.019-23.259-2.748-32.574,3.445c-1.84,1.223-3.634,2.711-4.47,4.75
			c-0.594,1.448-0.63,2.956-0.282,4.43c0.074-0.285,0.167-0.566,0.282-0.848c0.836-2.039,2.629-3.525,4.47-4.75
			c9.315-6.191,22.125-7.464,32.574-3.445c0.382,4.307,2.308,8.502,5.304,11.631C48.723,112.202,48.756,112.759,48.779,113.335z"/>
		<path fill="#B93F18" d="M137.641,95.977c2.612,0.137-12.817,1.336-16.555,5.707c-1.768,2.066-2.786,4.693-3.249,7.371
			c-0.305,1.76-0.372,3.559-0.219,5.338c0.05-0.588,0.118-1.175,0.219-1.757c0.463-2.676,1.481-5.303,3.249-7.37
			c3.736-4.371,10.199-5.863,15.902-6.707c4.844,0.748,9.716,1.498,14.617,1.408c4.9-0.092,8.814-1.595,13.027-4.089
			C155.91,97.214,146.305,97.652,137.641,95.977z"/>
	</g>
	<g>
		<path fill="#852915" d="M142.695,86.611c0,0,0.009,0.035,0.022,0.103c0.019,0.065,0.033,0.17,0.074,0.282
			c0.031,0.115,0.09,0.252,0.159,0.404c0.08,0.149,0.18,0.311,0.298,0.476c0.129,0.159,0.272,0.327,0.446,0.478
			c0.17,0.157,0.378,0.287,0.591,0.412c0.218,0.121,0.46,0.202,0.705,0.271c0.239,0.056,0.522,0.072,0.739,0.061
			c0.315-0.033,0.506-0.087,0.756-0.184c0.229-0.107,0.453-0.227,0.647-0.38c0.188-0.157,0.37-0.317,0.509-0.499
			c0.147-0.176,0.26-0.361,0.359-0.537c0.089-0.182,0.161-0.352,0.213-0.51c0.044-0.159,0.079-0.303,0.092-0.422
			c0.032-0.238,0.032-0.383,0.032-0.383c0-0.052,0.042-0.1,0.095-0.099c0.045,0,0.082,0.032,0.092,0.075
			c0,0,0.008,0.037,0.021,0.105c0.009,0.07,0.043,0.174,0.041,0.309c0.013,0.135,0.005,0.297-0.013,0.486
			c-0.024,0.188-0.066,0.396-0.146,0.618c-0.085,0.218-0.188,0.453-0.346,0.675c-0.146,0.229-0.34,0.443-0.562,0.644
			c-0.229,0.194-0.487,0.369-0.778,0.501c-0.28,0.123-0.659,0.213-0.925,0.236c-0.365,0.02-0.666-0.021-0.982-0.1
			c-0.307-0.088-0.589-0.224-0.841-0.382c-0.248-0.164-0.47-0.349-0.646-0.552c-0.188-0.195-0.322-0.412-0.438-0.613
			c-0.109-0.206-0.183-0.406-0.231-0.586c-0.041-0.184-0.072-0.341-0.082-0.479c-0.02-0.135,0-0.23,0-0.301
			c0.004-0.068,0.004-0.104,0.004-0.104c0.002-0.026,0.024-0.047,0.051-0.046C142.674,86.575,142.691,86.591,142.695,86.611z"/>
		<path fill="#852915" d="M145.641,89.803c-0.274,0-0.526-0.031-0.82-0.104c-0.295-0.085-0.582-0.216-0.858-0.39
			c-0.269-0.177-0.489-0.367-0.66-0.564c-0.192-0.203-0.333-0.43-0.442-0.623c-0.101-0.188-0.178-0.382-0.239-0.602
			c-0.052-0.221-0.076-0.367-0.083-0.489c-0.016-0.095-0.01-0.175-0.005-0.237c0.002-0.023,0.003-0.047,0.003-0.066l0.006-0.109
			c0.002-0.059,0.052-0.104,0.111-0.104c0.054,0.002,0.095,0.035,0.106,0.084c0,0,0.032,0.141,0.038,0.162
			c0.014,0.061,0.028,0.139,0.057,0.217c0.033,0.123,0.097,0.265,0.158,0.399c0.073,0.14,0.172,0.296,0.293,0.466
			c0.115,0.145,0.26,0.314,0.436,0.465c0.158,0.147,0.347,0.27,0.58,0.406c0.182,0.102,0.395,0.182,0.689,0.266
			c0.17,0.039,0.375,0.062,0.573,0.062c0.051,0,0.101-0.002,0.146-0.005c0.316-0.032,0.496-0.085,0.737-0.18
			c0.272-0.125,0.47-0.241,0.632-0.369c0.176-0.147,0.36-0.309,0.498-0.487c0.146-0.175,0.258-0.356,0.354-0.53
			c0.086-0.179,0.157-0.348,0.208-0.498c0.045-0.162,0.076-0.296,0.087-0.408c0.032-0.232,0.032-0.375,0.032-0.375
			c0.002-0.096,0.072-0.162,0.158-0.162c0.076,0,0.142,0.055,0.153,0.127c0,0,0.029,0.15,0.034,0.176
			c0.014,0.062,0.031,0.148,0.029,0.251c0.011,0.117,0.008,0.267-0.012,0.491c-0.029,0.223-0.08,0.437-0.15,0.635
			c-0.084,0.213-0.19,0.461-0.354,0.689c-0.14,0.22-0.332,0.438-0.572,0.653c-0.25,0.214-0.519,0.386-0.795,0.511
			c-0.273,0.119-0.651,0.217-0.943,0.242C145.76,89.802,145.699,89.803,145.641,89.803z M142.661,86.738
			c0,0.018-0.003,0.039-0.004,0.062c-0.005,0.062-0.009,0.13,0.005,0.216c0.007,0.123,0.029,0.262,0.079,0.474
			c0.06,0.206,0.134,0.395,0.228,0.569c0.105,0.187,0.239,0.403,0.426,0.6c0.166,0.191,0.379,0.373,0.635,0.543
			c0.267,0.167,0.543,0.294,0.824,0.375c0.34,0.084,0.621,0.113,0.963,0.097c0.271-0.024,0.644-0.12,0.9-0.231
			c0.268-0.121,0.523-0.286,0.764-0.491c0.23-0.205,0.416-0.416,0.551-0.627c0.156-0.224,0.261-0.462,0.341-0.665
			c0.067-0.188,0.114-0.393,0.144-0.604c0.019-0.215,0.021-0.356,0.012-0.475c0-0.094-0.014-0.169-0.026-0.229
			c-0.007-0.028-0.012-0.055-0.015-0.076l-0.021-0.104c-0.004-0.027-0.06-0.025-0.06,0.008c0,0.01,0,0.153-0.034,0.396
			c-0.011,0.118-0.044,0.258-0.091,0.43c-0.055,0.16-0.127,0.334-0.219,0.521c-0.103,0.182-0.217,0.371-0.367,0.552
			c-0.145,0.187-0.334,0.353-0.518,0.507c-0.173,0.137-0.377,0.255-0.662,0.389c-0.248,0.096-0.445,0.153-0.775,0.188
			c-0.051,0.003-0.104,0.004-0.156,0.004c-0.208,0-0.424-0.022-0.604-0.063c-0.209-0.06-0.477-0.144-0.722-0.277
			c-0.196-0.114-0.421-0.251-0.603-0.421c-0.182-0.156-0.33-0.332-0.453-0.483c-0.126-0.178-0.229-0.34-0.305-0.486
			c-0.066-0.145-0.131-0.291-0.166-0.418c-0.028-0.082-0.047-0.166-0.062-0.229L142.661,86.738z"/>
	</g>
	<path fill="#852915" d="M161.497,90.146c-0.211-0.619-0.454-1.282-0.998-1.647c-0.544-0.366-1.474-0.201-1.61,0.438
		c-0.117,0.541,0.401,1.039,0.942,1.17C160.373,90.239,160.939,90.13,161.497,90.146z"/>
	<g>
		<path fill="#BE1E2D" d="M103.855,75.891c-1.851-0.377-3.594-0.717-5.112-1.006c-1.108-0.211-2.19-0.391-3.257-0.549
			c1.466,0.844,1.182,3.044,0.68,4.678c-1.191,3.881-2.387,7.762-3.578,11.644c-0.471,1.532-0.947,3.13-0.695,4.713
			s1.465,3.138,3.071,3.222c1.394,0.075,2.646-0.972,3.269-2.214c0.621-1.244,0.752-2.664,0.92-4.043
			c0.627-5.106,1.925-10.131,3.852-14.903C103.212,76.91,103.501,76.357,103.855,75.891z"/>
		<path fill="#BE1E2D" d="M87.807,93.861c0.967-0.159,1.668-1.057,1.922-1.995c0.252-0.941,0.151-1.935,0.094-2.906
			c-0.229-3.78,0.213-7.599,1.294-11.228c0.302-1.014,0.674-2.047,1.42-2.797c0.396-0.397,0.926-0.688,1.476-0.803
			c-1.77-0.226-3.48-0.379-5.141-0.468c0.188,0.265,0.309,0.591,0.32,0.914c0.026,0.694-0.289,1.354-0.58,1.987
			c-1.787,3.875-2.99,8.018-3.56,12.244c-0.15,1.11-0.249,2.276,0.162,3.319C85.624,93.177,86.695,94.044,87.807,93.861z"/>
		<path fill="#BE1E2D" d="M86.945,73.59c-5.585-0.141-10.593,0.434-15.325,1.365c-0.044,0.764-0.513,1.652-0.991,2.312
			c-2.724,3.752-4.731,8.02-5.883,12.506c-0.463,1.804-0.489,4.242,1.244,4.942c1.336,0.542,2.816-0.419,3.733-1.526
			c4.114-4.979,2.68-12.994,6.978-17.814c0.707-0.793,1.885-1.497,2.775-0.913c1.117,0.731,0.475,2.44-0.2,3.589
			c-2.284,3.889-3.732,8.258-4.219,12.734c-0.157,1.432-0.072,3.165,1.162,3.918c1.294,0.789,3.071-0.125,3.792-1.454
			c0.72-1.33,0.708-2.912,0.807-4.42c0.35-5.318,2.348-10.519,5.655-14.714C86.613,73.934,86.771,73.75,86.945,73.59z"/>
		<path fill="#BE1E2D" d="M67.979,75.805c0.009-0.021,0.02-0.043,0.029-0.064c-2.083,0.492-4.126,1.041-6.156,1.607
			c-1.174,0.328-2.28,0.684-3.335,1.058c-0.655,1.782-1.31,3.562-1.965,5.347c-0.533,1.448-1.074,2.958-0.92,4.493
			c0.153,1.536,1.222,3.098,2.761,3.284c2.195,0.268,3.669-2.116,4.547-4.137C64.619,83.53,66.299,79.668,67.979,75.805z"/>
		<path fill="#BE1E2D" d="M126.417,81.568c-0.078,2.06-0.157,4.119-0.235,6.18c-0.029,0.761-0.054,1.549,0.234,2.255
			c0.289,0.704,0.98,1.308,1.742,1.24c0.863-0.075,1.451-0.957,1.57-1.812c0.121-0.853-0.09-1.715-0.138-2.574
			c-0.085-1.563,0.425-3.141,1.356-4.399C129.43,82.238,127.917,81.934,126.417,81.568z"/>
		<path fill="#BE1E2D" d="M138.682,87.044c0.523-0.354,0.623-1.069,0.674-1.696c0.076-0.908,0.149-1.817,0.226-2.728
			c-0.95,0.12-1.904,0.185-2.86,0.207c-0.011,0.165-0.025,0.327-0.05,0.485c-0.133,0.897-0.377,1.83-0.103,2.695
			C136.844,86.873,137.927,87.557,138.682,87.044z"/>
		<path fill="#BE1E2D" d="M133.822,88.759c0.521-0.071,0.734-0.688,0.844-1.198c0.336-1.574,0.671-3.149,1.006-4.725
			c-1.01-0.011-2.021-0.07-3.029-0.172c0.047,1.503,0.096,3.005,0.143,4.508C132.809,87.889,133.107,88.859,133.822,88.759z"/>
		<path fill="#BE1E2D" d="M121.98,93.305c0.584-1.431,0.449-3.031,0.504-4.572c0.096-2.662,0.807-5.297,2.039-7.659
			c-0.994-0.274-1.98-0.569-2.957-0.884c-1.137-0.363-2.412-0.731-3.775-1.1c-0.368,3.809-0.736,7.616-1.105,11.424
			c-0.176,1.817-0.063,4.139,1.64,4.816C119.764,95.902,121.398,94.732,121.98,93.305z"/>
		<path fill="#BE1E2D" d="M111.51,92.432c0.526-2.828,0.537-5.746,1.284-8.524c0.539-1.999,1.572-3.984,3.121-5.306
			c-2.688-0.683-5.603-1.348-8.431-1.953c0.01,0.061,0.021,0.119,0.027,0.179c0.072,0.876-0.212,1.737-0.471,2.578
			c-1.188,3.862-1.896,7.87-2.113,11.903c-0.061,1.129-0.076,2.293,0.322,3.352c0.4,1.058,1.309,1.997,2.438,2.119
			C109.811,97.008,111.119,94.521,111.51,92.432z"/>
	</g>
	<g>
		<path fill="#BE1E2D" d="M15.552,96.35c-0.04-0.277-0.064-0.558-0.081-0.836c-1.289,0.571-2.573,1.217-3.855,1.961
			c-0.019,0.709,0,1.416,0.083,2.119c0.115,0.984,0.366,1.963,0.747,2.883c1.55-0.898,3.179-1.672,4.866-2.316
			C16.306,99.158,15.752,97.759,15.552,96.35z"/>
		<path fill="#BE1E2D" d="M20.922,93.475c-0.921,0.293-1.838,0.604-2.751,0.942c-0.503,1.84-0.719,3.754-0.632,5.659
			c1.036-0.389,2.092-0.727,3.163-1.018C20.637,97.195,20.706,95.327,20.922,93.475z"/>
		<path fill="#BE1E2D" d="M31.46,90.516c-0.266,0.077-0.532,0.152-0.796,0.228c-0.62,1.78-0.968,3.655-1.007,5.541
			c-0.639-1.575-1.029-3.25-1.163-4.944c-1.185,0.32-2.356,0.631-3.518,0.949c-0.299,1.954-0.38,3.939-0.247,5.912
			c2.029-0.317,4.087-0.471,6.141-0.455C30.672,95.325,30.872,92.872,31.46,90.516z"/>
		<path fill="#BE1E2D" d="M38.064,88.334c-0.547,0.21-1.092,0.412-1.632,0.604c-0.903,2.941-1.255,6.049-1.041,9.119
			c0.703,0.09,1.402,0.201,2.096,0.334C36.985,95.046,37.184,91.6,38.064,88.334z"/>
		<path fill="#BE1E2D" d="M6.324,108.249c0.531-1.295,1.45-2.367,2.521-3.291c-0.814-1.33-1.392-2.801-1.674-4.333
			c-1.956,1.771-4.082,4.261-4.681,6.188c-0.782,2.521-0.137,5.42,1.48,7.508c1.552,2.004,6.288,6.086,6.989,5.674
			C7.514,117.077,4.614,112.418,6.324,108.249z"/>
	</g>
	<path fill="#CF421E" d="M62.336,119.748c-0.258-0.629-0.53-1.275-1.024-1.744c-0.494-0.467-1.275-0.705-1.871-0.376
		c-0.509,0.278-0.747,0.914-0.945,1.459c-0.292-0.899-1.291-1.514-2.23-1.368c-0.939,0.146-1.704,1.031-1.708,1.977
		c0.013-0.027,0.021,0.078,0.034,0.049c-0.142-0.546-0.388-1.082-0.804-1.467s-1.021-0.594-1.566-0.438
		c-0.447,0.127-0.804,0.48-1.017,0.893c-0.214,0.412-0.299,0.877-0.342,1.338c0.033-0.035,0.065-0.071,0.098-0.106
		C54.7,120.807,58.685,120.909,62.336,119.748z"/>
	<path fill="#CF421E" d="M117.788,121.764c-0.259-0.629-0.53-1.275-1.022-1.744c-0.494-0.467-1.275-0.705-1.873-0.377
		c-0.509,0.279-0.746,0.916-0.943,1.459c-0.292-0.898-1.291-1.513-2.23-1.367s-1.703,1.031-1.707,1.978
		c0.014-0.028,0.021,0.076,0.033,0.048c-0.143-0.547-0.388-1.083-0.804-1.467c-0.415-0.384-1.021-0.593-1.566-0.438
		c-0.446,0.127-0.805,0.481-1.018,0.894c-0.214,0.412-0.298,0.877-0.343,1.337c0.033-0.036-0.113,0.65-0.082,0.614
		C110.118,123.081,114.329,122.719,117.788,121.764z"/>
	<path fill="#AE381E" d="M72.942,117.312c-0.206-0.627-0.422-1.275-0.816-1.742c-0.393-0.469-1.015-0.706-1.491-0.379
		c-0.405,0.281-0.595,0.914-0.751,1.459c-0.232-0.899-1.029-1.512-1.776-1.366c-0.748,0.146-1.357,1.03-1.36,1.978
		c0.01-0.029,0.017,0.076,0.027,0.047c-0.113-0.547-0.309-1.082-0.64-1.467c-0.331-0.385-0.813-0.592-1.248-0.438
		c-0.355,0.128-0.64,0.48-0.81,0.894c-0.17,0.411-0.238,0.877-0.272,1.337c0.026-0.035,0.052-0.07,0.078-0.107
		C66.859,118.369,70.034,118.475,72.942,117.312z"/>
	<path fill="#AE381E" d="M129.146,118.4c-0.308-0.586-0.627-1.189-1.092-1.588c-0.466-0.396-1.119-0.528-1.533-0.127
		c-0.354,0.342-0.437,0.998-0.5,1.562c-0.379-0.851-1.266-1.324-1.979-1.06c-0.714,0.266-1.169,1.239-1.015,2.174
		c0.005-0.03,0.027,0.072,0.033,0.041c-0.201-0.521-0.483-1.017-0.873-1.342c-0.391-0.324-0.899-0.451-1.304-0.229
		c-0.329,0.184-0.552,0.581-0.651,1.014c-0.1,0.434-0.09,0.904-0.047,1.364C120.204,120.171,126.275,120.757,129.146,118.4z"/>
	<g opacity="0.21">
		<path fill="#FBC8B7" d="M2.489,108.463c0.796-2.562,4.291-6.117,6.497-7.658c9.426-6.584,18.756-6.771,29.469-10.972
			c7.423-2.911,12.775-8.002,23.396-10.972c10.621-2.971,21.596-5.373,36.892-2.463c6.386,1.215,16.636,3.324,22.823,5.306
			c6.188,1.979,12.771,3.366,19.176,2.257c0.863-1.26,2.74-1.727,4.27-1.646c1.531,0.08,2.99,1,3.719,2.345
			c3.73-0.599,7.42,0.08,10.765,1.833c2.868,1.503,5.296,3.818,6.95,6.593c0.253-0.078,0.507-0.151,0.759-0.233
			c-1.616-3.399-4.364-6.256-7.709-8.008c-3.345-1.753-7.033-2.433-10.765-1.834c-0.729-1.343-2.188-2.263-3.719-2.344
			c-1.529-0.08-3.406,0.386-4.27,1.646c-6.405,1.11-12.987-0.275-19.176-2.258c-6.188-1.98-16.438-4.091-22.823-5.307
			c-15.296-2.91-26.271-0.507-36.892,2.463c-10.621,2.973-15.973,8.062-23.396,10.973c-10.713,4.2-20.043,4.387-29.469,10.971
			c-2.206,1.541-5.7,5.097-6.497,7.658c-0.306,0.985-0.391,2.028-0.288,3.06C2.253,109.395,2.347,108.922,2.489,108.463z"/>
	</g>
	<path fill="#852915" d="M166.912,92.436c-0.096,0.024-0.196,0.053-0.312,0.084c-0.557,0.137-1.354,0.398-2.304,0.592
		c-0.478,0.106-0.991,0.222-1.539,0.344c-0.544,0.131-1.133,0.202-1.733,0.312c-0.605,0.098-1.228,0.227-1.869,0.278
		c-0.639,0.068-1.288,0.14-1.938,0.209c-0.652,0.027-1.305,0.054-1.947,0.08c-0.644,0.046-1.274,0.013-1.887-0.019
		c-0.611-0.037-1.207-0.027-1.764-0.101c-0.557-0.077-1.082-0.149-1.568-0.218c-0.488-0.055-0.931-0.137-1.312-0.25
		c-0.387-0.1-1.889-0.479-1.889-0.479c-0.055-0.014-0.11,0.019-0.127,0.071c-0.018,0.058,0.016,0.116,0.071,0.132
		c0,0,1.487,0.442,1.875,0.56c0.384,0.131,0.827,0.233,1.319,0.308c0.49,0.088,1.021,0.186,1.582,0.286
		c0.562,0.097,1.164,0.112,1.783,0.175c0.621,0.059,1.264,0.116,1.916,0.098c0.654,0,1.318,0,1.982,0
		c0.663-0.043,1.325-0.088,1.979-0.133c0.654-0.025,1.289-0.131,1.908-0.203c0.615-0.088,1.217-0.136,1.778-0.246
		c0.563-0.103,1.099-0.197,1.59-0.287c0.993-0.161,1.774-0.385,2.343-0.499c0.041-0.011,0.07-0.017,0.107-0.024
		c0.093-0.174,0.188-0.346,0.246-0.52C167.113,92.8,167.009,92.619,166.912,92.436z"/>
</g>
</svg>
