<?xml version="1.0" encoding="utf-8"?>
<svg version="1.1" id="Layer_1" xmlns="http://www.w3.org/2000/svg" xmlns:xlink="http://www.w3.org/1999/xlink" x="0px" y="0px"
	 viewBox="0 0 1632 1754.27" enable-background="new 0 0 1632 1754.27" xml:space="preserve">
<g>
	<path fill="#201E1F" stroke="#201E1F" stroke-width="0.5" d="M717.424,77.898c1.686-1.82,4.065,0.089,5.852,0.838
		c8.588,5.293,15.791,12.474,23.608,18.806c33.335,28.477,70.109,52.833,109.017,73.013c7.248,3.73,14.473,7.583,22.201,10.274
		c23.485,8.845,49.059,10.721,73.906,8.498c23.72-2.155,46.959-8.163,69.238-16.517c22.771-8.409,44.603-19.286,65.363-31.85
		c2.68-1.508,5.003-3.708,7.973-4.679c8.621,14.964,14.652,31.347,18.929,48.065c6.544,25.987,8.119,53.358,3.495,79.803
		c-4.02,25.004-14.339,48.534-26.545,70.556c-15.177,27.561-34.574,52.699-56.652,75.045c6.254,25.975,11.335,52.308,13.993,78.932
		c0.748,5.628,0.715,11.369,2.11,16.919c-0.167,0.391-0.502,1.173-0.67,1.563c-2.166-4.735-2.401-9.95-2.825-15.043
		c-2.557-23.72-5.852-47.439-11.625-70.612c-1.106-3.082-1.374-7.169-4.657-8.766c-2.658,1.82-3.964,5.048-6.745,6.712
		c-2.144,1.374-4.378,2.602-6.265,4.311c-5.93,5.651-12.999,9.872-19.856,14.272c-18.047,10.832-39.198,18.426-60.505,15.634
		c-13.535-1.91-26.456-7.784-36.797-16.707c-15.355-13.088-27.796-29.147-39.354-45.563c-10.71-15.936-21.185-32.039-30.387-48.902
		c-22.916-39.991-42.805-81.634-61.644-123.68c-12.362-28.421-24.457-56.976-35.066-86.101c-1.418-3.942-2.904-7.851-4.433-11.737
		c-3.998-11.882-8.219-23.731-11.045-35.959C717.569,82.678,717.044,80.277,717.424,77.898z"/>
	<path fill="#201E1F" stroke="#201E1F" stroke-width="0.5" d="M152.239,83.125c30.04-4.009,60.438-3.205,90.669-2.524
		c65.408,3.004,130.57,10.319,195.408,19.409c5.115,0.938,10.397,1.117,15.4,2.624l0.279,1.083
		c-5.885,0.324-11.402,2.457-16.974,4.143c-11.871,3.696-23.552,7.985-34.854,13.144c-3.931,1.831-8.041,3.194-12.094,4.69
		c-8.632,2.557-17.321,4.891-25.92,7.538c-80.082,22.502-160.03,45.541-240.1,68.066c-2.39,1.005-3.495-1.876-4.735-3.294
		c-9.559-13.568-17.667-28.309-22.849-44.111c-3.797-12.295-5.751-25.92-1.161-38.271c3.395-9.772,11.324-17.287,20.235-22.156
		C126.878,87.469,139.642,84.923,152.239,83.125z"/>
	<path fill="#876455" stroke="#876455" stroke-width="0.5" d="M480.975,97.118c48.534-8.621,98.475-5.305,146.517,4.78
		c10.821,2.39,21.866,4.299,32.296,8.152c-7.449,0.536-14.317-2.792-21.43-4.322c-38.974-8.822-79.021-13.546-119-11.603
		c-15.936,0.994-31.727,3.384-47.428,6.187c-6.008,1.027-11.793,3.294-17.935,3.406l-0.279-1.083l1.139-0.223
		C463.61,100.881,472.186,98.491,480.975,97.118z"/>
	<path fill="#774C9E" stroke="#774C9E" stroke-width="0.5" d="M519.358,94.125c39.98-1.943,80.026,2.781,119,11.603
		c7.114,1.53,13.982,4.858,21.43,4.322c23.496,5.684,46.367,13.814,68.87,22.636c1.552,0.547,3.417,1.418,4.858,0.033
		c10.609,29.125,22.703,57.68,35.066,86.101c18.839,42.045,38.729,83.689,61.644,123.68c9.202,16.863,19.677,32.966,30.387,48.902
		c11.558,16.416,23.999,32.475,39.354,45.563c10.341,8.923,23.262,14.797,36.797,16.707c21.307,2.792,42.459-4.802,60.505-15.634
		c6.857-4.4,13.926-8.621,19.856-14.272c2.111,0.491,2.658,2.703,3.183,4.534c22.636,93.416,20.157,192.728-6.946,284.938
		c-4.735,17.164-11.357,33.782-19.766,49.472c-15.634,29.281-35.959,55.781-57.78,80.685
		c-46.01,51.482-99.178,96.152-155.462,135.964c-47.216,32.977-96.721,63.04-149.566,86.135
		c-21.263,8.945-43.084,17.019-65.843,21.185c-7.505,1.385-15.121,1.776-22.726,1.921l0.369,0.748
		c24.97,4.098,50.32-0.86,74.398-7.516c41.253-12.217,80.249-31.012,117.582-52.197c56.373-32.509,109.14-71.338,156.825-115.617
		c25.596-23.608,49.416-49.159,70.869-76.598c21.821-28.131,41.264-58.428,54.765-91.484c6.142-15.11,10.531-30.844,14.819-46.557
		c11.368-42.849,17.51-86.994,19.141-131.262c-0.101-20.325,0.67-40.728-1.742-60.952c0.168-0.391,0.503-1.173,0.67-1.563
		c7.103,5.126,12.374,12.418,18.27,18.862c12.552,15.646,24.546,31.85,34.474,49.327c8.487,14.071,15.076,29.147,21.966,44.033
		c0.279,1.072,1.161,2.2,0.804,3.395c-0.871,2.077-0.089,4.266,0.391,6.366c5.416,21.408,6.075,43.721,4.634,65.665
		c-3.06,35.892-13.892,71.003-30.967,102.685c-13.546,25.406-31.291,48.69-52.934,67.731c-2.267,1.809-4.478,3.696-6.388,5.885
		c8.889-3.507,16.651-9.224,24.535-14.518c25.92-18.426,47.194-43.542,60.327-72.555c9.191-20.381,14.976-42.38,16.505-64.704
		c1.184-14.54,0.034-29.102-1.005-43.609c3.317,0.625,5.561,3.406,8.119,5.416c12.843,10.587,25.339,21.576,37.914,32.475
		c8.755,8.588,17.868,16.796,27.07,24.915c1.027,1.273-0.123,2.557-0.893,3.607c-13.234,15.266-21.475,34.228-26.869,53.526
		c-10.274,34.932-8.108,73.661,7.415,106.727c6.265,13.669,14.886,26.288,25.752,36.707c11.246,11.033,25.406,19.152,40.728,22.971
		c21.341,5.841,43.732,9.839,65.877,6.79c15.109-2.133,30.052-9.504,39.008-22.134c3.551-10.442,7.248-20.961,8.432-32.006
		c4.433-35.579-2.234-72.466-18.583-104.36c-7.572-14.104-17.108-27.282-28.924-38.126c-6.153-5.673-14.138-10.899-22.905-9.515
		c-8.688,1.34-14.83,8.431-19.163,15.545c-7.907,14.015-11.447,30.04-12.932,45.932c-0.771,12.206-0.771,24.836,3.484,36.462
		c1.798,4.702,5.025,9.392,9.906,11.246c8.699,1.753,17.79-1.642,24.345-7.371c10.665-9.961,14.886-26.567,9.928-40.314
		c-3.719-9.738-17.578-11.581-24.624-4.489c-1.698,2.446-2.691,5.293-4.255,7.828c0.022-7.75,5.338-14.339,11.458-18.527
		c4.791-3.384,12.217-3.976,16.595,0.424c5.137,4.858,7.873,11.737,9.269,18.56c2.646,15.366-2.613,32.274-14.428,42.671
		c-8.476,6.723-19.901,10.363-30.632,8.108c-7.415-2.502-12.016-9.704-14.574-16.718c-5.126-15.378-4.679-32.017-2.524-47.886
		c2.546-16.338,7.638-32.776,17.656-46.144c5.059-6.432,12.027-12.173,20.481-12.921c9.883-1.206,19.063,4.233,26.266,10.475
		c24.568,22.1,40.471,52.9,46.568,85.219c3.819,19.777,4.4,40.225,1.441,60.17c-1.039,4.266,2.97,7.147,5.104,10.308
		c17.689,23.507,35.378,47.037,52.9,70.679c11.536,17.109,22.603,34.541,32.888,52.431c12.161,20.403,22.514,42.023,29.884,64.626
		c-0.089,0.569-0.268,1.709-0.357,2.278c-3.552-8.074-8.666-15.311-13.803-22.402c-10.933-14.964-24.133-28.578-40.203-38.003
		c-21.419-13.233-48.5-16.148-72.477-8.811c-19.231,5.416-36.529,16.048-52.018,28.432c-27.651,22.77-49.673,51.973-65.598,83.957
		c-9.437,19.465-15.925,40.27-20.046,61.488c-4.054,22.871-5.561,46.412-2.01,69.462c3.239,24.01,11.346,47.998,26.847,66.949
		c6.365,7.259,13.367,14.562,22.402,18.438l-0.558,0.569c-8.275,2.089-15.567,6.678-23.552,9.548
		c-45.161,18.538-91.607,33.86-138.711,46.646c-14.071,3.406-27.896,7.839-42.157,10.386c-13.211,3.004-26.299,7.393-39.89,8.163
		c1.519-8.655,4.166-17.086,5.36-25.808c11.045-64.403-3.931-132.658-40.281-186.876c-14.495-21.486-32.341-40.895-53.593-55.837
		c-18.65-12.809-39.845-22.201-62.214-26.02c-35.099-6.544-72.22,0.636-102.953,18.594c-29.571,17.142-53.57,44.603-64.559,77.156
		c-8.108,23.574-8.945,49.472-2.959,73.638c10.43,42.838,41.889,77,52.018,119.938c2.803,11.29,2.803,23.172,0.369,34.53
		l-0.983-0.19c-5.171-1.586-10.631-0.804-15.925-1.295c-22.022-0.089-43.922-2.591-65.81-4.668
		c-15.288-2.501-30.777-3.897-45.876-7.404c-17.968-3.261-35.39-8.889-52.889-13.926c-1.027-0.078-2.021,0-2.993,0.212l-0.86,0.101
		c-31.503-10.386-62.917-21.285-92.991-35.356c-41.565-19.074-80.618-44.413-112.814-77.089
		c-6.455-6.723-12.563-13.769-18.974-20.526c-3.875-5.919-8.744-11.067-12.898-16.751c-14.25-19.565-26.31-40.638-37.054-62.303
		c-0.558-0.905-0.759-1.865-0.614-2.859c0.48-5.104-3.272-9.325-5.003-13.881c-9.515-21.955-17.678-44.536-24.122-67.596
		c-11.681-38.595-19.42-78.239-25.775-117.995c-0.67-5.55-1.496-11.078-2.669-16.528c-0.368-1.965-1.809-3.384-3.093-4.746
		c-6.544-6.488-13.111-12.954-19.387-19.677c-0.983-1.05-2.189-1.776-3.35-2.479c-5.695-4.199-9.593-10.33-14.272-15.545
		c-10.531-11.636-19.476-24.568-28.935-37.054c-0.994-1.262-1.954-2.569-2.367-4.11c-1.206-4.366-4.009-7.962-6.477-11.648
		c-25.674-37.69-47.037-78.295-63.364-120.888c-4.288-8.588-6.31-18.024-9.816-26.925c-3.641-11.145-6.566-22.514-9.839-33.77
		c-2.87-12.91-5.695-25.83-8.096-38.829c-4.255-28.153-6.801-56.63-6.086-85.107c1.396-12.184,1.173-24.524,3.272-36.629
		c3.082-23.787,7.828-47.428,15.947-70.042c7.404-23.128,17.578-45.228,27.662-67.273c5.025-9.336,8.297-19.509,13.892-28.544
		c2.289-3.708,3.83-7.817,4.746-12.072c0.402-1.608,0.893-3.272,2.222-4.355c3.976-3.585,5.327-8.934,8.052-13.356
		c3.942-6.276,6.7-13.2,10.788-19.376c7.326-11.703,13.937-23.842,21.542-35.378c5.037-6.611,8.666-14.149,13.781-20.716
		c6.578-10.397,14.283-20.001,21.419-30.007c3.116-3.964,6.834-7.449,9.459-11.804c2.401-3.953,6.377-6.901,7.728-11.458
		c0.86-2.535,3.105-4.199,4.679-6.265c13.401-16.271,28.131-31.369,43.307-45.988c15.065-12.876,29.538-26.523,45.809-37.914
		c7.102-5.26,14.585-9.995,21.911-14.953c1.161-0.849,2.501-1.418,3.964-1.586c-17.209,14.283-34.105,29.08-49.327,45.519
		c-3.752,4.411-8.186,8.275-11.29,13.211c20.325-18.728,41.331-37.266,65.888-50.298c11.692-6.053,24.602-11.491,38.07-10.118
		c8.264,0.659,15.724,6.622,18.058,14.618c4.02,11.458,0.279,23.429-2.245,34.742c4.266-8.778,7.27-18.136,10.084-27.461
		c2.535-10.33,4.947-21.33,2.267-31.861c-1.362-6.008-6.231-11.491-12.53-12.24c-7.784-1.34-15.433,1.005-22.804,3.194l0.29-0.949
		c4.054-1.496,8.163-2.859,12.094-4.69c11.301-5.159,22.983-9.448,34.854-13.144c5.573-1.686,11.089-3.819,16.974-4.143
		c6.142-0.112,11.927-2.379,17.935-3.406C487.631,97.508,503.422,95.119,519.358,94.125 M551.185,111.412
		c-38.718,13.691-72.376,43.609-87.14,82.326c7.482-6.544,14.294-13.848,22.045-20.101c15.366-13.055,31.928-24.814,50.041-33.77
		c19.789-10.073,41.755-16.517,64.079-16.617c24.568-0.033,48.813,7.426,69.897,19.867c33.849,19.923,59.857,50.689,80.484,83.644
		c12.061,19.387,22.435,39.879,30.174,61.376c1.072,2.334,0.793,5.349,2.423,7.359c0.145-7.46-0.692-14.886-2.178-22.179
		c-4.445-21.777-12.642-42.615-22.302-62.582c-8.197-16.159-16.84-32.352-28.376-46.423
		c-28.053-29.839-64.593-53.302-105.521-59.891C600.221,100.032,574.592,102.902,551.185,111.412 M292.681,221.523
		c-9.113,2.524-17.365,7.404-24.881,13.032c-24.133,17.712-43.899,40.549-62.136,64.09c-14.183,19.018-27.405,38.818-38.349,59.902
		c-9.269,17.935-17.756,36.585-21.575,56.53c-1.742,8.99-1.82,18.985,3.551,26.847c-2.334,2.948-5.539,5.025-8.197,7.661
		c-14.473,13.635-26.612,30.063-34.373,48.422c2.624-0.882,4.567-2.971,6.667-4.69c14.328-12.586,29.806-23.775,45.787-34.139
		c1.519,1.619-0.491,2.602-1.63,3.585c-21.173,15.802-35.658,39.555-42.112,65.017c-7.359,28.79-6.22,59.243,0.29,88.089
		c1.362,7.527,4.288,14.641,5.885,22.134c1.418,6.176,4.478,11.759,7.114,17.477l-0.882-0.402
		c3.172,10.162,8.42,19.554,13.635,28.801c18.538,31.448,46.814,58.484,82.047,69.852c24.323,7.17,50.12,7.795,75.191,5.025
		c44.312-5.494,86.648-24.535,120.966-52.967c0.949-0.748,1.508-1.72,1.675-2.915c13.077-5.226,25.875-11.368,37.701-19.096
		c6.968-4.835,14.507-8.967,20.57-14.976c0.726-1.385,1.228-2.881,1.563-4.4c34.429-27.07,64.715-59.165,91.316-93.896
		c1.072-1.474,2.725-3.339,4.657-1.831c15.523,8.052,27.293,21.922,35.669,37.042c2.702,4.746,4.21,10.084,7.192,14.685
		c-0.525-5.517-0.826-11.078-1.988-16.505c-2.937-16.126-11.893-31.045-24.881-41.074c-18.326-14.116-44.067-18.728-65.888-10.631
		c-7.192,2.982-14.484,7.013-18.784,13.747c5.461-2.312,10.911-4.858,16.896-5.494c12.15-1.385,24.546-0.424,36.439,2.323
		c1.385,0.514,3.261,0.491,4.177,1.898c-4.344,6.812-9.827,12.798-14.786,19.152c-16.416,19.588-33.938,38.304-52.99,55.368
		c-6.533,5.762-12.988,11.692-20.202,16.606c-1.094-1.396-1.999-2.904-2.434-4.59c-2.982-9.001-6.723-17.89-7.974-27.338
		c0.302-47.919-20.459-94.633-52.9-129.408c-5.829-7.237-13.256-12.943-20.604-18.538c-8.476-7.817-18.225-14.171-28.321-19.699
		c-10.676-6.22-21.777-11.815-33.569-15.579c-8.889-2.77-17.712-6.109-26.925-7.583c-4.065-2.624-7.951-5.718-12.575-7.27
		c3.964-1.161,7.985,0.815,11.971,1.184c41.32,8.152,78.719,30.766,108.782,59.813c14.853,14.294,28.913,29.616,40.169,46.948
		c2.2,3.306,5.327,5.852,7.549,9.168c15.177,22.581,28.924,46.289,38.986,71.628c0.983,2.044,1.117,4.757,3.038,6.209
		c0.123-9.66-2.01-19.186-4.244-28.522c-5.919-22.056-15.031-43.162-25.819-63.241c2.557,0.748,5.171-1.396,7.706-2.01
		c24.557-8.711,50.734-13.122,76.787-12.764c-14.897-8.711-27.405-21.576-35.39-36.886c-10.363-19.04-13.222-41.811-8.8-62.951
		c3.976-19.007,14.227-36.585,28.667-49.539c15.534-14.149,36.071-22.547,57.021-23.775c19.476-0.905,39.499,3.964,55.748,14.931
		c-1.24,2.077-4.78,1.999-6.767,3.54c-4.154-0.413-7.516-3.138-11.357-4.501c-22.916-9.425-50.142-8.498-71.997,3.373
		c-15.177,7.884-27.941,20.481-35.814,35.68c-11.558,21.43-13.166,48.009-4.076,70.623c6.522,17.131,18.817,31.95,34.418,41.543
		c6.03,3.674,12.452,7.393,19.61,8.13c10.475,0.67,20.939,1.653,31.291,3.428c4.836,0.96,9.76,0,14.484-1.15
		c17.566-4.389,33.826-14.361,45.262-28.455c13.613-16.115,20.76-37.645,19.376-58.696c2.725-1.91,4.556-4.947,7.56-6.488
		c0.815,12.184,0.369,24.58-3.261,36.328c-6.176,22.324-21.252,41.878-40.996,53.916c-5.852,3.696-12.396,6.031-18.583,9.034
		c3.998,1.843,8.443,2.435,12.619,3.853c11.603,3.328,22.793,7.884,33.837,12.72c7.583,3.92,15.277,7.672,22.391,12.441
		c1.675,0.893,3.953,3.093,5.785,1.273c13.289-13.97,24.937-29.661,33.368-47.06c23.307-47.026,26.065-104.047,6.555-152.871
		c-14.607-37.31-42.068-69.73-77.312-89.038c-38.785-21.743-86.682-26.344-128.928-12.508
		c-37.936,12.161-70.991,38.215-92.612,71.583c-26.132,39.912-35.993,90.088-27.439,136.969c-1.898-0.212-3.25-1.642-4.623-2.77
		c-33.502-27.919-74.107-48.143-117.471-54.587c-22.67-3.696-45.943-2.557-68.445,1.72c-4.232,0.759-8.309,2.379-12.63,2.49
		c1.898-4.11,7.94-6.097,7.784-10.944c1.441-1.764,2.848-3.551,4.478-5.148c0.313,0.257,0.927,0.793,1.24,1.05
		c1.642-1.552,3.004-3.54,3.194-5.852c0.804-0.983,1.619-1.954,2.446-2.915l-0.179,0.994c3.763-2.211,5.762-6.254,8.61-9.403
		c1.497-1.954,3.663-3.83,3.495-6.522c2.758-4.232,5.785-8.264,8.923-12.228c1.642,0.547,2.446-1.374,3.328-2.345
		c10.542-15.121,20.302-30.8,28.667-47.227c9.425-18.348,17.968-37.556,21.363-58.026c0.905-7.471,1.541-15.936-2.993-22.402
		C305.68,220.272,298.421,219.982,292.681,221.523z"/>
	<path fill="#240146" stroke="#240146" stroke-width="0.5" d="M551.185,111.412c23.407-8.51,49.036-11.38,73.627-6.991
		c40.929,6.589,77.469,30.052,105.521,59.891c11.536,14.071,20.18,30.264,28.376,46.423c9.66,19.967,17.857,40.806,22.302,62.582
		c1.485,7.292,2.323,14.719,2.178,22.179c-1.63-2.01-1.351-5.025-2.423-7.359c-7.739-21.497-18.114-41.99-30.174-61.376
		c-20.626-32.955-46.635-63.721-80.484-83.644c-21.084-12.44-45.329-19.9-69.897-19.867c-22.324,0.101-44.29,6.544-64.079,16.617
		c-18.114,8.956-34.675,20.716-50.041,33.77c-7.75,6.254-14.562,13.557-22.045,20.101
		C478.809,155.021,512.467,125.103,551.185,111.412z"/>
	<path fill="#240146" stroke="#240146" stroke-width="0.5" d="M389.782,126.644c7.371-2.189,15.02-4.534,22.804-3.194
		c6.298,0.748,11.167,6.231,12.53,12.24c2.68,10.531,0.268,21.531-2.267,31.861c-2.814,9.325-5.818,18.683-10.084,27.461
		c2.524-11.313,6.265-23.284,2.245-34.742c-2.334-7.996-9.794-13.959-18.058-14.618c-13.468-1.374-26.378,4.065-38.07,10.118
		c-24.557,13.032-45.563,31.57-65.888,50.298c3.104-4.936,7.538-8.8,11.29-13.211c15.221-16.439,32.118-31.235,49.327-45.519
		c4.166-3.373,8.99-5.807,13.379-8.856c1.284-0.603,2.591-1.184,3.92-1.742c3.92-0.715,8.364-1.91,10.319-5.762
		C383.952,129.302,386.856,127.951,389.782,126.644z"/>
	<path fill="#391B0F" stroke="#391B0F" stroke-width="0.5" d="M370.909,136.74c3.138-2.423,6.656-4.266,10.319-5.762
		C379.273,134.83,374.828,136.025,370.909,136.74z"/>
	<path fill="#240146" stroke="#240146" stroke-width="0.5" d="M292.681,221.523c5.74-1.541,12.999-1.251,16.807,4.009
		c4.534,6.466,3.897,14.931,2.993,22.402c-3.395,20.47-11.938,39.678-21.363,58.026c-8.364,16.427-18.125,32.106-28.667,47.227
		c-0.882,0.972-1.686,2.892-3.328,2.345c12.429-17.611,23.508-36.238,32.441-55.871c4.69-10.732,8.923-21.777,11.089-33.324
		c1.005-6.176,1.586-12.731-0.547-18.739c-1.318-3.864-4.869-6.89-9.001-7.114c-8.04-0.748-15.422,3.395-22.123,7.326
		c-14.093,8.923-26.277,20.526-37.634,32.676c-15.199,16.383-28.678,34.295-40.817,53.034
		c-12.083,18.951-22.96,38.863-30.208,60.193c-2.747,8.699-5.226,17.734-4.802,26.936c0.335,4.188,1.15,9.102,4.891,11.67
		c12.965-7.907,26.4-15.188,40.784-20.202c4.355-1.854,9.559-2.256,13.066-5.729c3.641-3.518,7.192-7.136,10.654-10.832
		c0.156,4.847-5.885,6.834-7.784,10.944c4.322-0.112,8.398-1.731,12.63-2.49c22.502-4.277,45.775-5.416,68.445-1.72
		c43.363,6.444,83.968,26.668,117.471,54.587c1.374,1.128,2.725,2.557,4.623,2.77c-8.554-46.881,1.307-97.056,27.439-136.969
		c21.62-33.368,54.676-59.422,92.612-71.583c42.247-13.836,90.144-9.235,128.928,12.508c35.244,19.309,62.705,51.728,77.312,89.038
		c19.51,48.824,16.751,105.845-6.555,152.871c-8.431,17.399-20.079,33.089-33.368,47.06c-1.831,1.82-4.11-0.38-5.785-1.273
		c-7.114-4.769-14.808-8.521-22.391-12.441c26.746-30.42,41.42-71.003,40.493-111.473c-0.514-41.375-17.6-82.528-47.428-111.351
		c-26.902-26.5-64.57-41.833-102.383-41.018c-40.404,0.391-79.68,19.23-106.627,49.092c-33.391,36.283-48.176,88.346-39.968,136.846
		c0.19,2.356,2.222,3.786,3.808,5.293c12.977,10.788,22.1,25.216,31.191,39.209c4.746,7.706,9.336,15.512,13.568,23.519
		c10.788,20.079,19.9,41.186,25.819,63.241c2.233,9.336,4.366,18.862,4.244,28.522c-1.921-1.452-2.055-4.165-3.038-6.209
		c-10.062-25.339-23.809-49.047-38.986-71.628c-2.222-3.317-5.349-5.863-7.549-9.168c-11.257-17.332-25.317-32.654-40.169-46.948
		c-30.063-29.047-67.463-51.661-108.782-59.813c-3.987-0.369-8.007-2.345-11.971-1.184c-1.943,0.056-3.965,0.324-5.807-0.346
		c-6.98-2.591-14.127-5.74-21.732-5.204c-4.69,0.223-9.504-0.793-14.06,0.681c-3.953,1.307-8.119,1.563-12.15,2.434
		c-6.622,1.485-10.721,7.583-17.042,9.76c0.156-0.614,0.48-1.865,0.636-2.479c-9.526,1.764-18.404,5.874-27.405,9.325
		c-12.273,5.829-24.702,11.569-35.982,19.219c-15.981,10.363-31.459,21.553-45.787,34.139c-2.099,1.72-4.043,3.808-6.667,4.69
		c7.761-18.359,19.9-34.787,34.373-48.422c2.658-2.636,5.863-4.713,8.197-7.661c-5.371-7.862-5.293-17.857-3.551-26.847
		c3.819-19.945,12.306-38.595,21.575-56.53c10.944-21.084,24.166-40.884,38.349-59.902c18.237-23.541,38.003-46.378,62.136-64.09
		C275.315,228.927,283.568,224.047,292.681,221.523z"/>
	<path fill="#FEFEFD" stroke="#FEFEFD" stroke-width="0.5" d="M270.982,247.811c6.7-3.931,14.082-8.074,22.123-7.326
		c4.132,0.223,7.683,3.25,9.001,7.114c2.133,6.008,1.552,12.563,0.547,18.739c-2.167,11.547-6.399,22.592-11.089,33.324
		c-8.934,19.632-20.012,38.26-32.441,55.871c-3.138,3.964-6.164,7.996-8.923,12.228c-3.763,5.148-7.929,9.973-11.927,14.931
		c-0.826,0.96-1.642,1.932-2.446,2.915c-1.452,1.63-2.937,3.216-4.433,4.802c-1.63,1.597-3.038,3.384-4.478,5.148
		c-3.462,3.696-7.013,7.315-10.654,10.832c-3.506,3.473-8.711,3.875-13.066,5.729c-14.384,5.014-27.818,12.295-40.784,20.202
		c-3.741-2.568-4.556-7.482-4.891-11.67c-0.424-9.202,2.055-18.236,4.802-26.936c7.248-21.33,18.125-41.241,30.208-60.193
		c12.139-18.739,25.618-36.652,40.817-53.034C244.705,268.337,256.889,256.734,270.982,247.811 M250.356,293.173
		c-7.035,3.752-12.954,9.28-18.27,15.154c-13.535,15.5-23.831,34.094-28.488,54.207c-1.463,7.918-2.825,16.986,1.63,24.211
		c2.557,4.266,8.029,5.405,12.597,4.199c9.504-2.569,16.919-9.515,23.586-16.416c11.212-12.508,20.414-27.126,25.886-43.051
		c-1.184,1.016-2.535,1.943-3.294,3.339c-2.993-0.011-5.963-0.29-8.912-0.558c-3.384-2.535-5.796-6.365-5.628-10.698
		c-0.581-4.567,1.876-8.565,3.149-12.742c2.747-2.077,4.802-5.159,8.23-6.22c2.569-1.117,5.416-0.659,8.152-0.692
		c0.279,1.575,1.921,2.233,3.16,2.993c0.436-5.64-1.061-12.407-6.354-15.389C260.82,288.974,255.013,290.806,250.356,293.173z"/>
	<path fill="#967557" stroke="#967557" stroke-width="0.5" d="M228.367,259.816c1.675-2.077,3.227-4.366,5.573-5.774
		c-1.351,4.556-5.327,7.505-7.728,11.458c-2.624,4.355-6.343,7.84-9.459,11.804c-7.136,10.006-14.842,19.61-21.419,30.007
		c-5.115,6.566-8.744,14.105-13.781,20.716c-7.605,11.536-14.216,23.675-21.542,35.378c-4.087,6.176-6.846,13.099-10.788,19.376
		c-2.725,4.422-4.076,9.772-8.052,13.356c2.49-8.018,7.493-14.964,11.212-22.424C174.54,333.756,199.768,295.463,228.367,259.816z"
		/>
	<path fill="#FEFEFE" stroke="#FEFEFE" stroke-width="0.5" d="M464.548,324.107c26.947-29.862,66.223-48.701,106.627-49.092
		c37.813-0.815,75.481,14.518,102.383,41.018c29.828,28.823,46.914,69.975,47.428,111.351
		c0.927,40.471-13.747,81.053-40.493,111.473c-11.045-4.836-22.234-9.392-33.837-12.72c-4.177-1.418-8.621-2.01-12.619-3.853
		c6.187-3.004,12.731-5.338,18.583-9.034c19.744-12.038,34.82-31.593,40.996-53.916c3.629-11.748,4.076-24.144,3.261-36.328
		c-3.004,1.541-4.835,4.579-7.56,6.488c-9.582,6.89-21.855,9.09-33.368,7.013c-6.823-2.312-13.636-5.204-18.806-10.375
		c-9.85-9.135-14.752-23.407-12.128-36.64c2.01-13.099,10.877-24.781,23.106-29.973c1.988-1.541,5.528-1.463,6.767-3.54
		c-16.249-10.966-36.272-15.835-55.748-14.931c-20.95,1.228-41.487,9.626-57.021,23.775c-14.439,12.954-24.691,30.532-28.667,49.539
		c-4.422,21.14-1.563,43.91,8.8,62.951c7.985,15.311,20.492,28.176,35.39,36.886c-26.054-0.357-52.23,4.054-76.787,12.764
		c-2.535,0.614-5.148,2.758-7.706,2.01c-4.233-8.007-8.822-15.813-13.568-23.519c-9.09-13.993-18.214-28.421-31.191-39.209
		c-1.586-1.508-3.618-2.937-3.808-5.293C416.371,412.453,431.157,360.39,464.548,324.107z"/>
	<path fill="#735093" stroke="#735093" stroke-width="0.5" d="M250.356,293.173c4.657-2.368,10.464-4.199,15.445-1.664
		c5.293,2.982,6.79,9.749,6.354,15.389c-1.24-0.759-2.881-1.418-3.16-2.993c-1.016-3.585-2.546-7.694-6.41-8.99
		c-6.019-1.965-12.262,1.005-17.176,4.344c-12.161,8.733-21.33,20.995-28.499,33.994c-5.997,11.156-10.933,23.239-11.804,35.993
		c-0.246,5.394-0.112,11.759,4.288,15.646c3.183,3.373,8.42,2.636,12.418,1.318c7.761-3.049,14.06-8.867,19.699-14.853
		c9.459-10.799,17.444-23.05,22.491-36.54c0.759-1.396,2.111-2.323,3.294-3.339c-5.472,15.925-14.674,30.543-25.886,43.051
		c-6.667,6.901-14.082,13.848-23.586,16.416c-4.567,1.206-10.04,0.067-12.597-4.199c-4.456-7.225-3.093-16.293-1.63-24.211
		c4.657-20.113,14.953-38.706,28.488-54.207C237.402,302.454,243.321,296.926,250.356,293.173z"/>
	<path fill="#DCB3FB" stroke="#DCB3FB" stroke-width="0.5" d="M245.409,299.26c4.914-3.339,11.156-6.31,17.176-4.344
		c3.864,1.295,5.394,5.405,6.41,8.99c-2.736,0.033-5.584-0.424-8.152,0.692c-3.428,1.061-5.483,4.143-8.23,6.22
		c-8.967,0.38-15.556,7.348-20.905,13.814c-5.774,7.638-10.866,16.092-13.267,25.451c-0.1,0.357-0.302,1.094-0.413,1.463
		c-1.329,4.556-1.943,9.515-0.67,14.172c0.804,3.205,4.143,5.416,7.437,4.679c7.605-1.597,13.289-7.594,18.047-13.367
		c5.171-6.879,10.14-14.328,12.251-22.77c2.948,0.268,5.919,0.547,8.912,0.558c-5.048,13.49-13.032,25.741-22.491,36.54
		c-5.64,5.986-11.938,11.804-19.699,14.853c-3.998,1.318-9.236,2.055-12.418-1.318c-4.4-3.886-4.534-10.252-4.288-15.646
		c0.871-12.753,5.807-24.836,11.804-35.993C224.079,320.254,233.248,307.993,245.409,299.26z"/>
	<path fill="#201E20" stroke="#201E20" stroke-width="0.5" d="M231.706,324.632c5.349-6.466,11.938-13.434,20.905-13.814
		c-1.273,4.177-3.73,8.175-3.149,12.742c-0.168,4.333,2.245,8.163,5.628,10.698c-2.111,8.443-7.08,15.891-12.251,22.77
		c-4.757,5.774-10.442,11.77-18.047,13.367c-3.294,0.737-6.633-1.474-7.437-4.679c-1.273-4.657-0.659-9.615,0.67-14.172
		c0.212,1.597,0.458,3.216,0.994,4.769c5.963,2.915,12.452-5.986,8.711-10.989c-3.797-2.758-7.583,1.642-9.291,4.757
		C220.841,340.724,225.933,332.271,231.706,324.632z"/>
	<path fill="#FBFBF9" stroke="#FBFBF9" stroke-width="0.5" d="M218.44,350.083c1.709-3.116,5.494-7.516,9.291-4.757
		c3.741,5.003-2.747,13.903-8.711,10.989c-0.536-1.552-0.782-3.172-0.994-4.769C218.138,351.177,218.339,350.44,218.44,350.083z"/>
	<path fill="#DDB3FE" stroke="#DDB3FE" stroke-width="0.5" d="M564.765,358.391c21.855-11.871,49.081-12.798,71.997-3.373
		c3.842,1.362,7.203,4.087,11.357,4.501c-12.228,5.193-21.095,16.874-23.106,29.973c-0.156-0.737-0.458-2.211-0.603-2.948
		c-18.214-7.873-40.884-3.976-55.145,9.894c-13.01,11.837-18.907,30.766-15.132,47.931c-4.601,6.745-4.802,17.187,1.965,22.603
		c3.518,3.529,8.632,3.875,13.334,4.099c13.97,14.395,37.165,17.913,55.301,9.872c10.598-4.601,19.51-12.898,24.937-23.083
		c3.641-6.566,5.115-14.015,6.276-21.352c11.514,2.077,23.787-0.123,33.368-7.013c1.385,21.051-5.762,42.582-19.376,58.696
		c-11.435,14.093-27.695,24.066-45.262,28.455c-4.724,1.15-9.649,2.111-14.484,1.15c-10.352-1.776-20.816-2.758-31.291-3.428
		c-7.158-0.737-13.58-4.456-19.61-8.13c-15.601-9.593-27.896-24.412-34.418-41.543c-9.09-22.614-7.482-49.193,4.076-70.623
		C536.824,378.872,549.588,366.276,564.765,358.391z"/>
	<path fill="#201E20" stroke="#201E20" stroke-width="0.5" d="M238.273,382.692c3.998-4.958,8.163-9.783,11.927-14.931
		c0.168,2.691-1.999,4.567-3.495,6.522c-2.848,3.149-4.847,7.192-8.61,9.403L238.273,382.692z"/>
	<path fill="#201E1F" stroke="#201E1F" stroke-width="0.5" d="M569.265,396.439c14.261-13.87,36.931-17.767,55.145-9.894
		c0.145,0.737,0.447,2.211,0.603,2.948c-2.624,13.233,2.278,27.505,12.128,36.64c5.171,5.171,11.983,8.063,18.806,10.375
		c-1.161,7.337-2.635,14.786-6.276,21.352c-5.427,10.185-14.339,18.482-24.937,23.083c-18.136,8.041-41.331,4.523-55.301-9.872
		c6.31-1.876,12.206-6.7,13.044-13.58c1.854-9.001-5.684-18.281-14.797-18.583c-5.159-0.558-9.772,2.267-13.546,5.461
		C550.359,427.205,556.255,408.276,569.265,396.439z"/>
	<path fill="#201E20" stroke="#201E20" stroke-width="0.5" d="M231.394,390.408c1.496-1.586,2.982-3.172,4.433-4.802
		c-0.19,2.312-1.552,4.299-3.194,5.852C232.321,391.201,231.706,390.665,231.394,390.408z"/>
	<path fill="#957357" stroke="#957357" stroke-width="0.5" d="M131.68,413.413c2.591-4.21,3.842-9.28,7.27-12.921
		c-0.916,4.255-2.457,8.364-4.746,12.072c-5.595,9.035-8.867,19.208-13.892,28.544c-10.084,22.045-20.258,44.145-27.662,67.273
		c-8.119,22.614-12.865,46.256-15.947,70.042c-2.099,12.105-1.876,24.446-3.272,36.629c-0.715,28.477,1.831,56.954,6.086,85.107
		c2.401,12.999,5.226,25.92,8.096,38.829c3.272,11.257,6.198,22.625,9.839,33.77c3.506,8.9,5.528,18.337,9.816,26.925
		c16.327,42.593,37.69,83.198,63.364,120.888c2.468,3.685,5.271,7.281,6.477,11.648c-2.468-1.776-3.808-4.579-5.483-6.991
		c-26.31-38.517-48.5-79.881-65.397-123.378c-17.276-44.446-28.991-91.205-32.955-138.778
		c-4.769-54.855,1.686-110.837,20.224-162.766C104.286,470.546,117.955,441.913,131.68,413.413z"/>
	<path fill="#240147" stroke="#240147" stroke-width="0.5" d="M1023.39,419.455c2.781-1.664,4.087-4.891,6.745-6.712
		c3.283,1.597,3.551,5.684,4.657,8.766c5.773,23.172,9.068,46.892,11.625,70.612c0.424,5.092,0.659,10.308,2.825,15.043
		c2.412,20.224,1.642,40.627,1.742,60.952c-1.63,44.268-7.773,88.413-19.141,131.262c-4.288,15.713-8.677,31.448-14.819,46.557
		c-13.501,33.056-32.944,63.353-54.765,91.484c-21.453,27.439-45.273,52.99-70.869,76.598
		c-47.685,44.279-100.451,83.108-156.825,115.617c-37.333,21.185-76.33,39.979-117.582,52.197
		c-24.077,6.656-49.427,11.614-74.398,7.516l-0.369-0.748c7.605-0.145,15.221-0.536,22.726-1.921
		c22.759-4.165,44.58-12.24,65.843-21.185c52.844-23.094,102.35-53.157,149.566-86.135
		c56.284-39.812,109.452-84.482,155.462-135.964c21.821-24.904,42.146-51.404,57.78-80.685c8.409-15.69,15.031-32.307,19.766-49.472
		c27.103-92.21,29.583-191.522,6.946-284.938c-0.525-1.831-1.072-4.043-3.183-4.534
		C1019.012,422.057,1021.245,420.829,1023.39,419.455z"/>
	<path fill="#201E1F" stroke="#201E1F" stroke-width="0.5" d="M251.116,420.918c4.556-1.474,9.37-0.458,14.06-0.681
		c7.605-0.536,14.752,2.613,21.732,5.204c1.843,0.67,3.864,0.402,5.807,0.346c4.623,1.552,8.51,4.646,12.575,7.27
		c4.646,3.529,8.599,8.029,11.145,13.312c3.06,6.589,2.535,14.685-1.34,20.827c-4.11,7.214-11.67,11.592-19.242,14.406
		c-11.871,4.634-24.959,4.433-37.411,2.915c-10.508-1.831-20.973-5.372-29.46-11.994c-6.622-4.702-12.552-11.301-13.993-19.543
		c-1.485-7.225,1.195-15.177,6.935-19.867c6.321-2.178,10.419-8.275,17.042-9.76C242.997,422.481,247.162,422.225,251.116,420.918z"
		/>
	<path fill="#5C3681" stroke="#5C3681" stroke-width="0.5" d="M195.155,439.958c9.001-3.451,17.879-7.56,27.405-9.325
		c-0.156,0.614-0.48,1.865-0.636,2.479c-5.74,4.69-8.42,12.641-6.935,19.867c1.441,8.242,7.37,14.842,13.993,19.543
		c8.487,6.622,18.951,10.162,29.46,11.994c12.452,1.519,25.54,1.72,37.411-2.915c7.572-2.814,15.132-7.192,19.242-14.406
		c3.875-6.142,4.4-14.238,1.34-20.827c-2.546-5.282-6.5-9.783-11.145-13.312c9.213,1.474,18.035,4.813,26.925,7.583
		c11.793,3.763,22.893,9.358,33.569,15.579c10.095,5.528,19.845,11.882,28.321,19.699c7.348,5.595,14.775,11.301,20.604,18.538
		c32.441,34.775,53.202,81.489,52.9,129.408c1.251,9.448,4.992,18.337,7.974,27.338c0.436,1.686,1.34,3.194,2.434,4.59
		c-0.168,3.104,0.257,6.801,3.172,8.61c-0.335,1.519-0.838,3.015-1.563,4.4c-6.064,6.008-13.602,10.14-20.57,14.976
		c-11.826,7.728-24.624,13.87-37.701,19.096c-18.337,8.141-38.003,12.999-57.792,16.025c-26.277,3.562-53.38,2.379-78.887-5.126
		c-17.734-5.26-34.485-14.104-48.277-26.467c-16.483-14.797-27.863-34.921-32.81-56.451c-5.606-24.379-4.367-49.952,0.994-74.252
		c1.173-7.136,3.864-13.915,4.88-21.062c-4.344,5.472-6.823,12.117-9.827,18.359c-6.187,13.926-11.581,28.187-16.64,42.548
		c-3.708,9.034-5.986,18.661-10.665,27.271c-5.673,10.04-11.782,19.934-19.532,28.522c-4.21,4.422-9.47,9.358-16.048,8.867
		c-3.574-0.223-5.952-3.082-8.029-5.628c-2.636-5.718-5.696-11.301-7.114-17.477c-1.597-7.493-4.523-14.607-5.885-22.134
		c-6.511-28.846-7.65-59.299-0.29-88.089c6.455-25.462,20.939-49.215,42.112-65.017c1.139-0.983,3.149-1.965,1.63-3.585
		C170.453,451.528,182.882,445.788,195.155,439.958z"/>
	<path fill="#FEFDFD" stroke="#FEFDFD" stroke-width="0.5" d="M554.133,444.37c3.775-3.194,8.387-6.019,13.546-5.461
		c9.113,0.301,16.651,9.582,14.797,18.583c-0.838,6.879-6.734,11.704-13.044,13.58c-4.701-0.223-9.816-0.57-13.334-4.099
		C549.331,461.556,549.532,451.115,554.133,444.37z"/>
	<path fill="#DDB3FF" stroke="#DDB3FF" stroke-width="0.5" d="M199.634,553.9c3.004-6.243,5.483-12.887,9.827-18.359
		c-1.016,7.147-3.708,13.926-4.88,21.062c-5.36,24.3-6.6,49.874-0.994,74.252c4.947,21.531,16.327,41.655,32.81,56.451
		c13.792,12.362,30.543,21.207,48.277,26.467c25.507,7.504,52.61,8.688,78.887,5.126c19.789-3.026,39.455-7.884,57.792-16.025
		c-0.168,1.195-0.726,2.167-1.675,2.915c-34.318,28.432-76.653,47.473-120.966,52.967c-25.071,2.769-50.868,2.144-75.191-5.025
		c-35.233-11.369-63.509-38.405-82.047-69.852c-5.215-9.247-10.464-18.638-13.635-28.801l0.882,0.402
		c2.077,2.546,4.456,5.405,8.029,5.628c6.578,0.491,11.837-4.445,16.048-8.867c7.75-8.588,13.859-18.482,19.532-28.522
		c4.679-8.61,6.957-18.236,10.665-27.271C188.053,582.087,193.447,567.826,199.634,553.9z"/>
	<path fill="#240247" stroke="#240247" stroke-width="0.5" d="M527.264,552.191c21.821-8.096,47.562-3.484,65.888,10.631
		c12.988,10.028,21.944,24.948,24.881,41.074c1.161,5.427,1.463,10.989,1.988,16.505c-2.982-4.601-4.489-9.939-7.192-14.685
		c-8.376-15.121-20.146-28.991-35.669-37.042c-1.932-1.508-3.585,0.357-4.657,1.831c-26.601,34.731-56.887,66.826-91.316,93.896
		c-2.915-1.809-3.339-5.506-3.172-8.61c7.214-4.914,13.669-10.844,20.202-16.606c19.052-17.064,36.573-35.781,52.99-55.368
		c4.958-6.354,10.442-12.34,14.786-19.152c-0.916-1.407-2.792-1.385-4.177-1.898c-11.893-2.747-24.289-3.708-36.439-2.323
		c-5.986,0.637-11.435,3.183-16.896,5.494C512.78,559.205,520.072,555.173,527.264,552.191z"/>
	<path fill="#250147" stroke="#250147" stroke-width="0.5" d="M1125.818,627.583c-0.48-2.099-1.262-4.288-0.391-6.366
		c7.773,16.673,11.57,34.954,15.099,52.945c1.039,14.507,2.189,29.069,1.005,43.609c-1.53,22.324-7.315,44.324-16.505,64.704
		c-13.133,29.013-34.407,54.129-60.327,72.555c-7.884,5.293-15.646,11.011-24.535,14.518c1.91-2.189,4.121-4.076,6.388-5.885
		c21.643-19.04,39.388-42.325,52.934-67.731c17.075-31.682,27.907-66.793,30.967-102.685
		C1131.893,671.303,1131.234,648.991,1125.818,627.583z"/>
	<path fill="#DDB3FF" stroke="#DDB3FF" stroke-width="0.5" d="M1258.665,711.73c7.226-0.089,14.373-1.608,21.631-1.173
		c10.62-0.033,21.028,2.367,31.258,4.947c4.165,2.211,9.213,1.921,13.2,4.556c6.689,3.473,14.093,5.539,20.291,9.973
		c5.952,2.613,11.056,6.6,16.126,10.631c3.216,1.988,5.495,5.226,9.291,6.354c1.139,1.921,2.915,3.049,5.003,3.964
		c5.171,5.975,10.978,11.357,16.785,16.695c1.876,2.624,5.282,3.842,6.444,7.013c0.435,2.088,3.149,1.965,3.976,3.741
		c0.994,2.546,3.518,3.965,4.858,6.332c2.401,4.165,5.16,8.13,8.42,11.703c4.769,6.555,8.286,13.926,12.63,20.839
		c1.574,2.356,1.429,5.573,3.607,7.605c2.356,2.245,2.099,5.807,3.775,8.498c1.608,2.803,3.004,5.774,3.373,9.046
		c0.447-0.536,0.927-1.061,1.441-1.575c0.022,2.915,0.078,5.919,0.927,8.766c1.966,0.804,1.831,3.16,2.367,4.936
		c0.737,3.339,1.485,6.701,1.921,10.118c0.469-0.48,0.971-0.949,1.507-1.385c0.905,3.775,0.413,7.962,3.026,11.112
		c-0.279,8.108,1.429,16.092,1.161,24.2c0.022,7.069,0.045,14.138,0.011,21.218c0.234,7.951-1.307,15.824-1.307,23.776
		c-0.436,0.369-1.296,1.094-1.731,1.463c-2.222,6.578-4.177,13.367-3.451,20.425c-1.15-2.379-0.179-5.305-1.452-7.605
		c-0.145,2.747,0.569,5.762-1.083,8.23c-1.854,2.904-1.775,6.41-2.122,9.727c-2.312,0.927-2.501,3.763-3.629,5.707
		c-1.463,2.714-2.088,5.74-1.988,8.845c-17.522-23.641-35.211-47.171-52.9-70.679c-2.133-3.161-6.142-6.042-5.104-10.308
		c2.959-19.945,2.379-40.393-1.441-60.17c-6.097-32.319-22-63.119-46.568-85.219c-7.203-6.243-16.383-11.681-26.266-10.475
		c-8.454,0.748-15.422,6.488-20.481,12.921c-10.017,13.367-15.11,29.806-17.656,46.144c-2.156,15.869-2.602,32.508,2.524,47.886
		c2.557,7.013,7.158,14.216,14.574,16.718c10.732,2.256,22.156-1.385,30.632-8.108c11.815-10.397,17.075-27.304,14.428-42.671
		c-1.396-6.823-4.132-13.703-9.269-18.56c-4.378-4.4-11.804-3.808-16.595-0.424c-6.12,4.188-11.436,10.777-11.458,18.527
		c1.563-2.535,2.557-5.383,4.255-7.828c7.047-7.091,20.905-5.249,24.624,4.489c4.958,13.747,0.737,30.353-9.928,40.314
		c-6.555,5.729-15.646,9.124-24.345,7.371c-4.88-1.854-8.108-6.544-9.906-11.246c-4.255-11.625-4.255-24.256-3.484-36.462
		c1.485-15.891,5.025-31.917,12.932-45.932c4.333-7.114,10.475-14.205,19.163-15.545c8.766-1.385,16.751,3.842,22.905,9.515
		c11.815,10.844,21.352,24.021,28.924,38.126c16.349,31.894,23.016,68.78,18.583,104.36c-1.184,11.045-4.88,21.564-8.432,32.006
		c-8.956,12.63-23.898,20.001-39.008,22.134c-22.145,3.049-44.536-0.949-65.877-6.79c-15.322-3.819-29.482-11.938-40.728-22.971
		c-10.866-10.419-19.487-23.038-25.752-36.707c-15.523-33.067-17.689-71.795-7.415-106.727c5.394-19.297,13.635-38.26,26.869-53.526
		c0.771-1.05,1.921-2.334,0.893-3.607c6.086-0.357,7.672-7.292,12.708-9.481c5.64-3.261,10.52-7.929,16.874-9.872
		c4.69-1.318,9.157-3.429,14.038-4.076C1257.604,713.092,1258.308,712.188,1258.665,711.73z"/>
	<path fill="#8E6B57" stroke="#8E6B57" stroke-width="0.5" d="M222.683,988.928c1.161,0.704,2.367,1.429,3.35,2.479
		c6.276,6.723,12.843,13.189,19.387,19.677c1.284,1.363,2.725,2.781,3.093,4.746c1.173,5.45,1.999,10.978,2.669,16.528
		c6.354,39.756,14.093,79.401,25.775,117.995c6.444,23.061,14.607,45.641,24.122,67.596c1.731,4.556,5.483,8.778,5.003,13.881
		c-1.787-2.144-2.915-4.69-3.942-7.225c-12.117-27.182-22.056-55.324-29.817-84.046c-6.466-24.367-12.206-48.936-16.774-73.728
		c-2.144-10.732-3.674-21.564-5.863-32.263c-0.983-6.153-1.764-12.329-2.825-18.46c-0.168-1.374-1.429-2.178-2.2-3.138
		c-6.801-6.6-13.289-13.49-19.811-20.358C223.833,991.552,223.13,990.257,222.683,988.928z"/>
	<path fill="#F4D875" stroke="#F4D875" stroke-width="0.5" d="M249.061,1035.251l0.625-0.681
		c2.189,10.698,3.719,21.531,5.863,32.263c4.567,24.792,10.308,49.36,16.774,73.728h-0.994c-3.373-8.856-4.657-18.326-7.259-27.405
		c-1.843-5.595-2.356-11.502-4.054-17.12c-3.172-12.139-4.512-24.68-7.65-36.797
		C251.998,1051.153,249.318,1043.325,249.061,1035.251z"/>
	<path fill="#DDB3FF" stroke="#DDB3FF" stroke-width="0.5" d="M1370.865,1040.533c23.977-7.337,51.058-4.422,72.477,8.811
		c16.07,9.425,29.27,23.038,40.203,38.003c5.137,7.091,10.252,14.328,13.803,22.402c2.021,5.394,5.461,10.106,7.761,15.389
		c2.635,6.254,6.231,12.083,8.286,18.605c3.093,7.393,6.589,14.652,8.789,22.402c9.369,23.731,15.746,48.478,21.654,73.27
		c5.126,24.635,9.369,49.528,11.123,74.654c3.082,29.627,3.373,59.545,1.619,89.272c-0.279,14.551-2.669,28.991-3.428,43.509
		c-41.476-13.401-88.446-11.849-127.666,7.906c-4.925,2.401-9.436,5.561-14.35,7.974c-1.943-5.316-5.204-9.973-7.672-15.02
		c-4.233-8.744-10.766-16.014-16.126-24.043c-6.5-7.605-12.798-15.523-20.671-21.777c-4.925-3.987-10.006-7.784-15.009-11.648
		c-11.1-6.22-23.519-10.062-36.093-11.826c-10.129-1.072-20.492-2.557-29.627-7.315c-1.776-0.86-3.641-1.385-5.495-1.843
		c-9.034-3.875-16.036-11.179-22.402-18.438c-15.501-18.951-23.608-42.939-26.847-66.949c-3.551-23.05-2.044-46.591,2.01-69.462
		c4.121-21.218,10.609-42.023,20.046-61.488c15.925-31.984,37.947-61.186,65.598-83.957
		C1334.336,1056.58,1351.634,1045.949,1370.865,1040.533z"/>
	<path fill="#F4D875" stroke="#F4D875" stroke-width="0.5" d="M1497.705,1107.471c2.301,1.329,2.613,4.422,3.92,6.6
		c6.231,11.916,12.307,23.943,16.93,36.596c3.719,7.259,6.12,15.087,9.771,22.369c1.452,9.157,5.907,17.511,7.281,26.713
		c3.696,11.882,6.522,24.01,9.626,36.082c3.897,20.023,8.61,39.935,10.531,60.282c-0.022,8.286,2.58,16.349,2.222,24.646
		c-0.134,5.975,1.351,11.849,1.173,17.834c-0.257,6.365,1.184,12.63,1.072,18.996c-0.111,9.325,0.034,18.65-0.056,27.974
		c-1.117,12.586-1.798,25.227-2.301,37.88c-0.693,8.13-2.278,16.193-2.256,24.39c-2.904,19.565-5.405,39.309-10.62,58.45
		c-2.021,5.014-2.49,10.486-4.545,15.478c-0.726,1.027-0.983,3.049-2.557,3.026c1.999-7.393,4.903-14.562,5.986-22.167
		c2.87-9.269,4.299-18.895,6.064-28.399c1.575-9.057,3.451-18.147,3.205-27.371c0.759-14.518,3.149-28.957,3.428-43.509
		c1.753-29.728,1.463-59.645-1.619-89.272c-1.753-25.127-5.997-50.019-11.123-74.654c-5.908-24.792-12.284-49.539-21.654-73.27
		c-2.2-7.75-5.696-15.009-8.789-22.402c-2.055-6.522-5.651-12.351-8.286-18.605c-2.301-5.282-5.74-9.995-7.761-15.389
		C1497.437,1109.179,1497.616,1108.04,1497.705,1107.471z"/>
	<path fill="#DDB3FF" stroke="#DDB3FF" stroke-width="0.5" d="M781.893,1168.624c30.733-17.957,67.853-25.138,102.953-18.594
		c22.368,3.819,43.564,13.211,62.214,26.02c21.252,14.942,39.097,34.351,53.593,55.837c36.35,54.218,51.326,122.473,40.281,186.876
		c-1.195,8.722-3.842,17.153-5.36,25.808c-0.313,0.558-0.938,1.675-1.251,2.234c-3.417,5.092-4.177,11.324-6.354,16.952
		c-2.77,7.136-5.372,14.372-8.901,21.185c-2.111,4.4-4.958,8.565-5.617,13.524c-4.958,9.079-10.229,17.979-15.389,26.936
		c-6.131,9.492-12.385,18.895-18.996,28.064c-6.723,8.13-13.111,16.539-20.068,24.479c-11.547,12.306-23.541,24.233-36.473,35.099
		c-4.411,3.741-9.459,6.801-13.267,11.201c-1.396,0.525-2.781,1.038-4.132,1.608c-3.697-18.638-11.86-36.406-24.3-50.812
		c-16.651-20.101-39.354-34.653-63.766-43.486c-23.887-8.755-49.606-11.581-74.911-9.816l-0.022-1.061
		c5.885-5.048,10.14-11.581,14.741-17.745c4.098-5.327,6.231-11.771,8.476-18.013c1.307-3.54,1.273-7.337,1.418-11.033
		c2.434-11.357,2.434-23.239-0.369-34.53c-10.129-42.939-41.588-77.1-52.018-119.938c-5.986-24.166-5.148-50.064,2.959-73.638
		C728.323,1213.226,752.322,1185.766,781.893,1168.624z"/>
	<path fill="#DDB3FF" stroke="#DDB3FF" stroke-width="0.5" d="M356.648,1313.745c6.41,6.756,12.519,13.803,18.974,20.526
		c32.196,32.676,71.248,58.015,112.814,77.089c30.074,14.071,61.488,24.97,92.991,35.356c0.503,12.385,3.183,24.568,4.266,36.92
		c-20.023-1.731-40.337-2.401-60.181,1.34c-29.482,5.193-58.082,17.812-80.071,38.382c-2.479,2.345-4.724,5.07-7.94,6.421
		c-2.837-4.11-5.696-8.208-8.431-12.363c-1.753-2.2-1.709-5.293-3.842-7.181c-1.329-3.317-4.065-5.718-5.517-8.912
		c-0.648-1.541-1.709-2.758-2.87-3.853c-0.994-2.68-1.508-5.573-3.473-7.75c-4.813-5.852-6.22-13.568-10.274-19.867
		c-3.462-5.628-5.416-11.916-7.761-18.024c-0.491,0.458-0.961,0.949-1.396,1.463c-0.089-2.624-0.045-5.394-1.206-7.75
		c-4.701-3.585-2.792-10.475-6.343-14.853c-0.503,0.424-0.983,0.871-1.429,1.363c0.916-8.13-4.534-14.864-6.477-22.402
		c-2.356-9.168-6.656-17.801-7.907-27.237c-1.094-4.255-2.714-8.353-3.931-12.53c-0.391-5.059-3.529-9.414-3.607-14.506
		c0.223-5.506-3.886-10.073-3.384-15.646C360.322,1330.853,354.269,1322.623,356.648,1313.745z"/>
	<path fill="#EED184" stroke="#EED184" stroke-width="0.5" d="M1280.442,1369.258c1.854,0.458,3.719,0.983,5.495,1.843
		c9.135,4.757,19.498,6.243,29.627,7.315c12.574,1.764,24.993,5.606,36.093,11.826c5.003,3.864,10.084,7.661,15.009,11.648
		c7.873,6.254,14.172,14.172,20.671,21.777c5.36,8.029,11.893,15.299,16.126,24.043c2.468,5.048,5.729,9.704,7.672,15.02
		c1.798,5.461,4.679,10.464,6.946,15.746c0.067,0.156,0.201,0.458,0.279,0.614c1.463,3.473,2.792,7.024,4.233,10.542
		c0.056,0.145,0.19,0.447,0.246,0.592c2.055,4.847,3.875,9.805,5.997,14.652c0.871,6.689,4.612,12.619,5.215,19.376
		c-0.491-0.313-1.474-0.938-1.977-1.24c-0.86-7.739-4.31-14.808-6.767-22.1c-3.384-10.374-8.197-20.18-12.441-30.197
		c-3.953-7.873-6.678-16.494-12.385-23.329c-3.484-3.976-4.3-9.504-7.806-13.434c-5.684-7.326-10.665-15.221-17.633-21.43
		c-5.64-5.573-11.089-11.547-18.002-15.556c-7.381-3.83-14.127-8.979-22.134-11.491c-5.829-1.854-11.759-3.484-17.767-4.556
		c-11.514-0.29-22.983-2.982-33.435-7.795c-2.915-1.742-5.986,0.346-8.699,1.407c-23.105,10.196-46.769,19.04-70.456,27.762
		c-11.648,4.065-23.474,7.56-35.066,11.782c-21.531,6.008-42.794,12.999-64.526,18.236c-18.203,4.701-36.484,8.968-54.832,13.043
		c-4.59,0.949-9.336,1.508-13.658,3.384c-2.903,3.049-3.172,7.572-4.59,11.369c-2.267,7.002-5.93,13.457-8.286,20.425
		c-1.91,6.388-5.55,12.039-8.141,18.158c-0.503-0.056-1.496-0.167-1.999-0.223c0.659-4.958,3.506-9.124,5.617-13.524
		c3.529-6.812,6.131-14.049,8.901-21.185c2.178-5.629,2.937-11.86,6.354-16.952c10.754-1.24,21.229-4.177,31.827-6.354
		c69.339-15.947,137.684-36.842,203.136-64.861c3.585-1.764,7.94-2.557,10.598-5.762L1280.442,1369.258z"/>
	<path fill="#896659" stroke="#896659" stroke-width="0.5" d="M1256.332,1379.376c7.985-2.87,15.277-7.46,23.552-9.548
		c-2.658,3.205-7.013,3.998-10.598,5.762c-65.452,28.019-133.797,48.914-203.136,64.861c-10.598,2.178-21.073,5.115-31.827,6.354
		c0.313-0.558,0.938-1.675,1.251-2.234c13.591-0.771,26.679-5.159,39.89-8.163c14.261-2.546,28.086-6.98,42.157-10.386
		C1164.725,1413.236,1211.17,1397.914,1256.332,1379.376z"/>
	<path fill="#774C9E" stroke="#774C9E" stroke-width="0.5" d="M1425.485,1454.756c39.22-19.755,86.19-21.307,127.666-7.906
		c0.246,9.224-1.63,18.315-3.205,27.371c-1.765,9.504-3.194,19.13-6.064,28.399c-3.931,7.359-4.858,15.813-7.951,23.508
		c-5.081,15.366-12.597,30.241-23.977,41.911c-8.789,8.733-21.888,14.674-34.306,10.966c-10.799-1.854-18.906-9.749-26.109-17.388
		c-5.662-7.583-10.665-15.958-12.63-25.328c-3.105-10.531-4.657-21.743-10.073-31.414c-2.122-4.847-3.942-9.805-5.997-14.652
		c-0.056-0.145-0.19-0.447-0.246-0.592c-1.441-3.518-2.77-7.069-4.233-10.542c-0.078-0.156-0.212-0.458-0.279-0.614
		c-2.267-5.282-5.148-10.285-6.946-15.746C1416.049,1460.318,1420.56,1457.157,1425.485,1454.756z"/>
	<path fill="#886557" stroke="#886557" stroke-width="0.5" d="M582.286,1446.615c0.972-0.212,1.965-0.29,2.993-0.212
		c17.499,5.037,34.921,10.665,52.889,13.926c15.098,3.507,30.588,4.903,45.876,7.404c21.888,2.077,43.788,4.579,65.81,4.668
		c5.293,0.491,10.754-0.29,15.925,1.295c-6.019,0.782-12.094,0.458-18.125,0.279
		C691.727,1472.043,635.309,1465.287,582.286,1446.615z"/>
	<path fill="#EFD489" stroke="#EFD489" stroke-width="0.5" d="M581.426,1446.716l0.86-0.101
		c53.023,18.672,109.441,25.428,165.368,27.36c6.03,0.179,12.105,0.503,18.125-0.279l0.983,0.19
		c-0.145,3.697-0.112,7.493-1.418,11.033c-2.245,6.243-4.378,12.686-8.476,18.013c0.123-1.117,0.223-2.222,0.279-3.306
		c-0.402-0.101-1.206-0.302-1.608-0.402c4.936-5.349,5.662-12.776,8.387-19.23c0.815-1.44,0.346-3.093-0.849-4.087
		c-4.891-0.704-9.861-0.034-14.741-0.692c-9.135-1.329-18.382-0.134-27.505-1.385c-8.119-0.469-16.182-1.519-24.289-1.831
		c-14.049-2.055-28.243-3.049-42.224-5.629c-11.793-1.898-23.407-4.735-35.032-7.426c-11.447-2.044-22.245-6.645-33.491-9.448
		c-2.401,1.117-1.608,4.221-1.474,6.354c2.3,11.927,3.116,24.088,5.193,36.06c0.904,4.5,0.156,9.894,3.786,13.367
		c-0.569,0.022-1.708,0.067-2.278,0.1l-0.849-0.369c-0.302-0.57-0.916-1.709-1.217-2.278c-0.067-4.802-0.771-9.548-1.363-14.294
		c-0.19-0.637-0.57-1.921-0.748-2.569c-0.29-0.558-0.871-1.675-1.15-2.234C584.609,1471.284,581.929,1459.1,581.426,1446.716z"/>
	<path fill="#B29363" stroke="#B29363" stroke-width="0.5" d="M1418.081,1478.476c0.067,0.156,0.201,0.458,0.279,0.614
		C1418.282,1478.934,1418.148,1478.632,1418.081,1478.476z"/>
	<path fill="#774C9E" stroke="#774C9E" stroke-width="0.5" d="M525.511,1484.975c19.845-3.741,40.158-3.071,60.181-1.34
		c0.279,0.558,0.86,1.675,1.15,2.234c0.179,0.648,0.558,1.932,0.748,2.569c0.592,4.746,1.295,9.492,1.363,14.294
		c0.301,0.57,0.916,1.709,1.217,2.278l0.849,0.369c-0.514,18.236,4.59,36.127,4.054,54.363c-0.078,11.927,0.335,23.865-0.246,35.781
		c-1.039,8.23-3.976,17.555-11.67,21.832c-11.893,2.278-24.077,0.201-36.06,0.201c0.391-0.581,0.815-1.139,1.251-1.664
		c-3.775-0.324-7.728-0.235-11.112-2.111c-2.569-1.441-5.483-1.82-8.353-1.965c0.96-0.469,1.954-0.871,2.959-1.295
		c-5.014-0.726-9.626-2.926-14.54-4.009c0.156-0.648,0.324-1.262,0.503-1.854c-7.125-2.01-12.284-7.449-18.694-10.832
		c-3.797-2.468-7.739-4.903-10.654-8.409c-2.892-3.473-7.08-5.505-9.972-8.956c-11.983-10.33-21.475-23.139-32.397-34.507
		c-2.479-4.355-6.31-7.728-8.588-12.172c3.216-1.351,5.461-4.076,7.94-6.421C467.429,1502.787,496.029,1490.168,525.511,1484.975z"
		/>
	<path fill="#AF9361" stroke="#AF9361" stroke-width="0.5" d="M586.843,1485.869c0.179,0.648,0.558,1.932,0.748,2.569
		C587.401,1487.801,587.021,1486.516,586.843,1485.869z"/>
	<path fill="#BCA154" stroke="#BCA154" stroke-width="0.5" d="M1422.593,1489.632c0.056,0.145,0.19,0.447,0.246,0.592
		C1422.782,1490.079,1422.648,1489.777,1422.593,1489.632z"/>
	<path fill="#9D9100" stroke="#9D9100" stroke-width="0.5" d="M588.953,1502.731c0.301,0.57,0.916,1.709,1.217,2.278
		C589.869,1504.44,589.255,1503.301,588.953,1502.731z"/>
	<path fill="#947856" stroke="#947856" stroke-width="0.5" d="M1535.931,1526.127c3.093-7.694,4.02-16.148,7.951-23.508
		c-1.083,7.605-3.987,14.775-5.986,22.167c-1.396,4.166-3.194,8.208-4.154,12.53c-3.741,8.532-7.65,17.131-13.658,24.356
		c-4.042,4.847-7.605,10.52-13.379,13.49c-4.713,2.568-9.537,5.159-14.842,6.209c-9.213,1.474-19.052-0.011-26.847-5.327
		c-9.582-4.981-16.36-13.825-21.654-22.994c-4.344-9.124-7.371-18.918-9.314-28.801c-0.603-6.756-4.344-12.686-5.215-19.376
		c5.416,9.671,6.969,20.883,10.073,31.414c1.965,9.37,6.968,17.745,12.63,25.328c7.203,7.639,15.311,15.534,26.109,17.388
		c12.418,3.708,25.518-2.234,34.306-10.966C1523.334,1556.369,1530.85,1541.494,1535.931,1526.127z"/>
	<path fill="#957B51" stroke="#957B51" stroke-width="0.5" d="M729.574,1530.55c4.411-3.026,7.225-8.286,12.552-9.872l0.022,1.061
		c-5.416,5.07-11.033,9.917-16.539,14.886c-9.448,6.823-17.12,15.724-24.635,24.535c-11.558,15.78-19.364,34.373-22.29,53.727
		c-1.485,7.706,0.201,15.735,3.194,22.882c6.689,13.435,19.599,22.648,33.156,28.321c23.251,9.66,49.159,10.352,73.884,7.695
		c42.068-5.338,82.326-22.603,116.209-47.931c1.351-0.57,2.736-1.083,4.132-1.608c-4.623,6.03-11.771,9.18-17.89,13.39
		c-14.272,10.062-30.353,17.019-46.244,24.077c-9.325,3.875-19.297,5.706-28.812,9.023c-21.196,5.528-43.274,7.438-65.117,5.874
		c-15.098-1.507-30.141-5.115-43.799-11.815c-9.09-3.026-15.288-10.788-21.754-17.41c-4.389-4.143-5.863-10.207-7.884-15.646
		c-3.964-12.463,0.324-25.417,3.976-37.377c4.266-11.112,8.632-22.447,16.104-31.85c3.529-5.305,7.248-10.564,12.139-14.707
		C716.731,1542.287,722.527,1535.709,729.574,1530.55z"/>
	<path fill="#774C9E" stroke="#774C9E" stroke-width="0.5" d="M742.148,1521.739c25.305-1.764,51.024,1.061,74.911,9.816
		c24.412,8.833,47.116,23.385,63.766,43.486c12.441,14.406,20.604,32.173,24.3,50.812c-33.882,25.328-74.141,42.593-116.209,47.931
		c-24.725,2.658-50.633,1.965-73.884-7.695c-13.557-5.673-26.467-14.886-33.156-28.321c-2.993-7.147-4.679-15.177-3.194-22.882
		c2.926-19.353,10.732-37.947,22.29-53.727c7.516-8.811,15.188-17.712,24.635-24.535
		C731.115,1531.655,736.732,1526.809,742.148,1521.739z"/>
</g>
</svg>
