<svg width="151" height="113" viewBox="0 0 151 113" fill="none" xmlns="http://www.w3.org/2000/svg">
<path d="M145.85 53.285C145.85 70.675 122.393 90.9363 80.096 85.1002C0.304752 74.0906 51.8365 172.799 0.304752 53.285C-4.09761 11.3209 39.8307 6.23927 90.9933 6.23929C133.659 6.23931 145.85 29.3524 145.85 53.285Z" fill="#F3E711"/>
<path d="M25.2416 43.472C25.3056 43.152 25.3376 42.632 25.3376 41.912C25.3376 41.176 25.2176 40.504 24.9776 39.896C24.7376 39.272 24.3856 38.96 23.9216 38.96C23.3616 38.96 22.8176 39.688 22.2896 41.144C21.7616 42.584 21.4976 44.136 21.4976 45.8C21.4976 47.448 21.6576 48.744 21.9776 49.688C22.2976 50.616 22.7696 51.08 23.3936 51.08C24.0176 51.08 24.4896 50.792 24.8096 50.216C25.1296 49.64 25.3696 48.792 25.5296 47.672C24.9536 47.672 24.3376 47.728 23.6816 47.84L23.1776 45.464C24.6336 45.368 26.4576 45.192 28.6496 44.936C28.7456 45.768 28.7936 46.528 28.7936 47.216C28.7936 47.904 28.5856 48.76 28.1696 49.784C27.7696 50.808 27.1616 51.712 26.3456 52.496C25.5456 53.28 24.6656 53.672 23.7056 53.672C22.0416 53.672 20.7056 53.024 19.6976 51.728C18.7056 50.432 18.2096 48.6 18.2096 46.232C18.2096 44.488 18.4256 42.856 18.8576 41.336C19.2896 39.816 19.9296 38.568 20.7776 37.592C21.6256 36.616 22.5936 36.128 23.6816 36.128C24.7376 36.128 25.7296 36.512 26.6576 37.28C27.1376 37.68 27.5216 38.256 27.8096 39.008C28.1136 39.744 28.2656 40.52 28.2656 41.336C28.2656 42.152 28.1936 42.944 28.0496 43.712L25.2416 43.472ZM33.7867 47.36C33.7867 48.192 33.9707 48.936 34.3387 49.592C34.7067 50.248 35.1387 50.576 35.6347 50.576C36.1467 50.576 36.5547 50.352 36.8587 49.904C37.1627 49.456 37.3787 48.864 37.5067 48.128C37.7307 46.832 37.8427 45.336 37.8427 43.64C37.8427 41.928 37.7387 39.424 37.5307 36.128L40.7947 36.464C41.0187 39.76 41.1307 42 41.1307 43.184C41.1307 44.368 41.1147 45.2 41.0827 45.68C41.0507 46.144 40.9867 46.688 40.8907 47.312C40.7947 47.936 40.6667 48.52 40.5067 49.064C40.3467 49.608 40.1307 50.152 39.8587 50.696C39.5867 51.24 39.2667 51.704 38.8987 52.088C38.0827 52.968 36.9707 53.408 35.5627 53.408C34.1707 53.408 32.9787 52.784 31.9867 51.536C30.9947 50.288 30.4987 48.896 30.4987 47.36C30.4987 43.984 30.6827 40.384 31.0507 36.56L34.3147 36.872C33.9627 40.376 33.7867 43.872 33.7867 47.36ZM43.9402 53.096C43.8762 50.568 43.8442 48.176 43.8442 45.92C43.8442 43.664 43.9722 40.728 44.2282 37.112C46.9642 36.696 49.6362 36.488 52.2442 36.488V39.44C50.4362 39.44 48.7562 39.496 47.2042 39.608C47.1402 41.4 47.1002 42.776 47.0842 43.736C48.3002 43.56 49.7402 43.456 51.4042 43.424L51.8602 46.064C50.7882 46.08 49.1802 46.2 47.0362 46.424C47.0362 48.344 47.0442 49.728 47.0602 50.576C48.4522 50.464 50.1162 50.224 52.0522 49.856L52.4602 52.496C51.1002 53.12 49.4922 53.432 47.6362 53.432L43.9402 53.096ZM60.1226 42.512C60.3306 41.728 60.4346 41.072 60.4346 40.544C60.4346 40.016 60.2906 39.584 60.0026 39.248C59.7146 38.896 59.3386 38.72 58.8746 38.72C58.4266 38.72 58.0506 38.944 57.7466 39.392C57.4426 39.84 57.2906 40.352 57.2906 40.928C57.2906 42.048 57.9306 43.008 59.2106 43.808C60.4906 44.64 61.3626 45.24 61.8266 45.608C62.2906 45.976 62.6186 46.312 62.8106 46.616C63.2906 47.4 63.5306 48.208 63.5306 49.04C63.5306 50.48 63.0426 51.632 62.0666 52.496C61.1066 53.344 60.0186 53.768 58.8026 53.768C57.3626 53.768 56.1546 53.16 55.1786 51.944C54.4746 51.064 53.8266 49.968 53.2346 48.656L55.5626 47.528C55.9306 48.488 56.3866 49.304 56.9306 49.976C57.4906 50.632 58.0826 50.96 58.7066 50.96C59.1066 50.96 59.4666 50.832 59.7866 50.576C60.1066 50.32 60.2666 49.936 60.2666 49.424C60.2666 48.896 60.0666 48.408 59.6666 47.96C59.2666 47.512 58.7306 47.056 58.0586 46.592C57.3866 46.128 56.8666 45.752 56.4986 45.464C56.1306 45.16 55.7226 44.776 55.2746 44.312C54.4266 43.416 54.0026 42.272 54.0026 40.88C54.0026 39.472 54.4906 38.296 55.4666 37.352C56.4426 36.392 57.6026 35.912 58.9466 35.912C60.2906 35.912 61.4186 36.432 62.3306 37.472C63.2586 38.512 63.7226 39.584 63.7226 40.688C63.7226 41.776 63.5146 42.712 63.0986 43.496L60.1226 42.512ZM71.5132 42.512C71.7212 41.728 71.8252 41.072 71.8252 40.544C71.8252 40.016 71.6812 39.584 71.3932 39.248C71.1052 38.896 70.7292 38.72 70.2652 38.72C69.8172 38.72 69.4412 38.944 69.1372 39.392C68.8332 39.84 68.6812 40.352 68.6812 40.928C68.6812 42.048 69.3212 43.008 70.6012 43.808C71.8812 44.64 72.7532 45.24 73.2172 45.608C73.6812 45.976 74.0092 46.312 74.2012 46.616C74.6812 47.4 74.9212 48.208 74.9212 49.04C74.9212 50.48 74.4332 51.632 73.4572 52.496C72.4972 53.344 71.4092 53.768 70.1932 53.768C68.7532 53.768 67.5452 53.16 66.5692 51.944C65.8652 51.064 65.2172 49.968 64.6252 48.656L66.9532 47.528C67.3212 48.488 67.7772 49.304 68.3212 49.976C68.8812 50.632 69.4732 50.96 70.0972 50.96C70.4972 50.96 70.8572 50.832 71.1772 50.576C71.4972 50.32 71.6572 49.936 71.6572 49.424C71.6572 48.896 71.4572 48.408 71.0572 47.96C70.6572 47.512 70.1212 47.056 69.4492 46.592C68.7772 46.128 68.2572 45.752 67.8892 45.464C67.5212 45.16 67.1132 44.776 66.6652 44.312C65.8172 43.416 65.3932 42.272 65.3932 40.88C65.3932 39.472 65.8812 38.296 66.8572 37.352C67.8332 36.392 68.9932 35.912 70.3372 35.912C71.6812 35.912 72.8092 36.432 73.7212 37.472C74.6492 38.512 75.1132 39.584 75.1132 40.688C75.1132 41.776 74.9052 42.712 74.4892 43.496L71.5132 42.512ZM88.6444 37.976L91.0444 38.192C91.1564 39.472 91.3244 41.168 91.5484 43.28C91.7884 45.376 91.9564 46.864 92.0524 47.744L92.1724 47.72C93.3084 42.824 94.0444 38.992 94.3804 36.224L97.5244 36.488C96.6284 41.784 95.3164 47.224 93.5884 52.808L91.2844 52.616C90.7404 50.728 90.1324 48.256 89.4604 45.2C88.7724 48.496 88.1164 51.128 87.4924 53.096L85.1884 52.904C83.8284 46.12 82.9084 40.616 82.4284 36.392L85.5244 36.656C85.7804 39.36 86.1804 43.056 86.7244 47.744L86.8444 47.72C87.7724 43.448 88.3724 40.2 88.6444 37.976ZM102.206 40.976L102.23 43.736L105.83 43.52C105.83 41.024 105.87 38.376 105.95 35.576L109.118 35.864C108.974 38.408 108.902 41.168 108.902 44.144C108.902 47.104 108.99 50.08 109.166 53.072L106.094 52.808C105.95 51.432 105.862 49.224 105.83 46.184L102.302 46.4C102.35 48.672 102.422 50.984 102.518 53.336L99.2544 53.048C99.0784 49.672 98.9904 46.568 98.9904 43.736C98.9904 40.904 99.0544 38.456 99.1824 36.392L102.35 36.68C102.254 38.104 102.206 39.536 102.206 40.976ZM116.56 53.816C115.04 53.816 113.752 53.136 112.696 51.776C111.656 50.4 111.136 48.32 111.136 45.536C111.136 42.736 111.704 40.456 112.84 38.696C113.992 36.936 115.344 36.056 116.896 36.056C118.448 36.056 119.736 36.744 120.76 38.12C121.8 39.496 122.32 41.568 122.32 44.336C122.32 47.104 121.744 49.376 120.592 51.152C119.44 52.928 118.096 53.816 116.56 53.816ZM116.92 38.912C116.216 38.912 115.608 39.536 115.096 40.784C114.584 42.016 114.328 43.576 114.328 45.464C114.328 47.336 114.544 48.728 114.976 49.64C115.424 50.536 115.976 50.984 116.632 50.984C117.288 50.984 117.864 50.36 118.36 49.112C118.872 47.864 119.128 46.304 119.128 44.432C119.128 42.544 118.912 41.152 118.48 40.256C118.064 39.36 117.544 38.912 116.92 38.912ZM128.452 36.2C129.684 36.2 130.652 36.6 131.356 37.4C132.06 38.184 132.412 39.176 132.412 40.376C132.412 40.936 132.308 41.408 132.1 41.792C131.892 42.176 131.724 42.464 131.596 42.656C131.484 42.848 131.284 43.104 130.996 43.424C130.724 43.744 130.516 43.976 130.372 44.12C129.828 44.744 129.332 45.28 128.884 45.728C128.164 46.496 127.804 47.184 127.804 47.792C127.804 48.016 127.844 48.264 127.924 48.536L125.884 48.296C125.372 47.944 125.116 47.528 125.116 47.048C125.116 46.552 125.276 46.056 125.596 45.56C125.916 45.048 126.284 44.56 126.7 44.096C127.116 43.616 127.476 43.208 127.78 42.872C128.1 42.52 128.332 42.256 128.476 42.08C128.636 41.904 128.812 41.688 129.004 41.432C129.356 40.936 129.532 40.528 129.532 40.208C129.532 39.872 129.436 39.6 129.244 39.392C129.052 39.184 128.788 39.08 128.452 39.08C127.7 39.08 126.516 39.872 124.9 41.456L122.692 39.536C124.788 37.312 126.708 36.2 128.452 36.2ZM128.092 49.784C128.268 50.104 128.356 50.664 128.356 51.464C128.356 52.264 128.228 52.96 127.972 53.552L125.116 53C125.276 52.408 125.356 51.792 125.356 51.152C125.356 50.496 125.34 49.944 125.308 49.496L128.092 49.784Z" fill="black"/>
</svg>
