<?xml version="1.0" encoding="utf-8"?>
<!-- Generator: Adobe Illustrator 16.0.0, SVG Export Plug-In . SVG Version: 6.00 Build 0)  -->
<!DOCTYPE svg PUBLIC "-//W3C//DTD SVG 1.1//EN" "http://www.w3.org/Graphics/SVG/1.1/DTD/svg11.dtd">
<svg version="1.1" id="Layer_1" xmlns="http://www.w3.org/2000/svg" xmlns:xlink="http://www.w3.org/1999/xlink" x="0px" y="0px"
	 width="1000px" height="521.669px" viewBox="0 0 1000 521.669" enable-background="new 0 0 1000 521.669" xml:space="preserve">
<g>
	<path fill-rule="evenodd" clip-rule="evenodd" fill="#035094" d="M282.723,494.085c-14.393,1.237-28.117-7.301-33.361-20.764
		c-15.996-40.99-34.398-84.005-59.047-137.962c-10.447,3.865-21.896,6.913-34.835,8.023c-2.41,0.209-4.868,0.344-7.311,0.399
		c-29.511,0.747-57.976-10.737-80.104-32.34c-25.465-24.854-40.64-61.298-40.601-97.494c0.05-55.446,41.478-102.507,98.51-111.901
		c3.161-0.517,6.377-0.919,9.559-1.193c28.722-2.471,55.493,5.02,76.65,21.214l1.62-0.343c15.096-3.189,30.692-6.486,46.441-9.249
		c0.962-0.168,1.924-0.292,2.885-0.376c1.662-0.143,3.33-0.156,4.973-0.05c1.683-0.719,3.426-1.299,5.235-1.736
		c11.994-2.901,24.441-4.837,36.474-6.712c6.097-0.948,12.402-1.93,18.27-2.988c0.953-0.178,1.988-0.317,3.023-0.407
		c7.273-0.626,14.646,1.233,20.759,5.226c1.196,0.779,2.329,1.619,3.402,2.506c13.266-11.47,30.058-19.476,47.385-22.259
		c2.892-0.461,5.808-0.823,8.657-1.067c21.651-1.862,41.524,2.747,56.984,13.053c11.638-10.118,26.437-17.267,42.545-20.177
		c3.381-0.605,6.806-1.063,10.191-1.35c19.411-1.67,39.176,1.772,58.924,10.234c12.781-10.208,28.817-16.613,45.931-18.086
		l0.633-0.051c17.711-1.359,35.441,1.524,52.186,8.402c24.062-27.915,59.647-44.521,104.086-48.336
		c20.68-1.778,38.685-0.389,50.132,1.088c33.227,4.279,59.98,13.745,81.785,28.943c35.781,24.934,55.185,62.668,57.668,112.149
		c2.498,49.984-24.464,91.319-75.926,116.404c-20.437,9.957-40.717,15.495-54.73,18.453l-18.397,31.106
		c13.657,15.597,19.788,35.283,16.324,54.551c-5.401,30.019-32.379,52.184-67.122,55.172c-8.204,0.704-16.565,0.302-24.849-1.184
		c-15.46-2.779-29.726-9.224-41.222-18.479c-14.955,14.108-34.027,23.482-54.352,26.203c-1.596,0.216-3.139,0.385-4.68,0.516
		c-19.514,1.676-38.334-2.624-54.661-11.985c-5.169,7.087-13.141,12.072-22.489,13.229c-4.521,0.559-9.355,1.056-15.194,1.56
		c-2.658,0.229-5.299,0.434-7.928,0.645l-0.704,0.056c-2.717,0.217-5.387,0.43-8.052,0.656c-4.846,0.417-11.203,1.016-17.403,1.975
		c-0.756,0.118-1.482,0.203-2.213,0.267c-2.083,0.179-4.175,0.16-6.233-0.056c-1.596,0.485-3.227,0.851-4.886,1.091
		c-5.805,0.843-11.647,1.654-17.478,2.463l-0.418,0.061c-10.479,1.453-21.307,2.955-31.594,4.595
		c-0.838,0.135-1.601,0.229-2.367,0.293c-8.076,0.694-16.083-1.613-22.559-6.487c-0.825-0.622-1.614-1.279-2.37-1.973
		c-4.474,4.354-10.203,7.45-16.655,8.691c-5.829,1.121-11.657,2.215-17.453,3.298c-11.044,2.07-21.375,4.006-31.502,6.106
		c-1.29,0.267-2.589,0.456-3.863,0.564c-4.227,0.365-8.354-0.088-12.213-1.238c-3.71,2.926-8.082,5.073-12.896,6.182
		c-16.853,3.883-33.824,7.4-50.438,10.45C284.785,493.857,283.75,493.996,282.723,494.085"/>
	<path fill="#FFFFFF" d="M132.074,101.202c1.154-0.133,2.31-0.249,3.458-0.349c28.722-2.467,55.493,5.021,76.65,21.215l1.622-0.342
		c15.093-3.189,30.693-6.484,46.438-9.25c0.656-0.113,1.31-0.208,1.962-0.285c0.307-0.035,0.614-0.063,0.92-0.09
		c1.664-0.144,3.329-0.158,4.975-0.053c1.683-0.716,3.426-1.295,5.235-1.732c11.994-2.902,24.441-4.838,36.474-6.717
		c6.097-0.945,12.402-1.928,18.27-2.989c0.671-0.124,1.38-0.229,2.102-0.311c0.306-0.038,0.613-0.066,0.919-0.094
		c7.278-0.625,14.648,1.232,20.761,5.228c1.198,0.779,2.329,1.616,3.402,2.506c13.266-11.472,30.061-19.475,47.385-22.259
		c1.813-0.29,3.634-0.54,5.444-0.746c1.078-0.124,2.149-0.231,3.213-0.322c21.651-1.862,41.524,2.744,56.984,13.053
		c11.641-10.12,26.437-17.267,42.545-20.176c2.353-0.424,4.725-0.772,7.09-1.043c1.038-0.119,2.073-0.222,3.102-0.31
		c19.411-1.668,39.176,1.771,58.924,10.234c12.162-9.713,27.276-15.986,43.463-17.838c0.819-0.091,1.644-0.173,2.468-0.244
		l0.635-0.055c17.709-1.359,35.441,1.525,52.182,8.404c22.96-26.635,56.41-42.974,98.03-47.73c2.001-0.229,4.02-0.432,6.06-0.608
		c20.681-1.775,38.683-0.387,50.13,1.09c33.226,4.28,59.983,13.745,81.785,28.943c35.781,24.934,55.185,62.666,57.668,112.15
		c2.501,49.982-24.461,91.318-75.924,116.404c-20.438,9.957-40.719,15.496-54.735,18.454l-18.395,31.105
		c13.657,15.597,19.788,35.28,16.324,54.549c-5.268,29.276-31.062,51.085-64.563,54.915c-0.849,0.098-1.699,0.182-2.561,0.256
		c-8.202,0.709-16.563,0.305-24.85-1.183c-15.454-2.778-29.721-9.221-41.221-18.479c-14.95,14.109-34.025,23.481-54.348,26.205
		c-0.645,0.087-1.282,0.166-1.911,0.236c-0.93,0.105-1.849,0.199-2.769,0.276c-19.516,1.676-38.333-2.619-54.663-11.982
		c-5.169,7.085-13.143,12.073-22.489,13.227c-0.962,0.118-1.938,0.236-2.938,0.35c-3.687,0.422-7.658,0.814-12.257,1.209
		c-2.656,0.23-5.299,0.437-7.928,0.646l-0.704,0.058c-2.717,0.217-5.387,0.427-8.05,0.656c-2.826,0.24-6.168,0.548-9.689,0.952
		c-2.521,0.286-5.13,0.623-7.716,1.022c-0.424,0.066-0.838,0.121-1.249,0.17c-0.321,0.037-0.643,0.068-0.961,0.095
		c-2.086,0.181-4.18,0.16-6.236-0.056c-1.596,0.484-3.227,0.854-4.886,1.091c-5.805,0.842-11.647,1.655-17.478,2.462l-0.418,0.061
		c-10.479,1.453-21.305,2.955-31.594,4.6c-0.514,0.081-0.998,0.148-1.475,0.201c-0.301,0.035-0.598,0.064-0.892,0.09
		c-8.076,0.693-16.083-1.61-22.559-6.486c-0.825-0.622-1.611-1.283-2.368-1.975c-4.477,4.353-10.205,7.45-16.657,8.692
		c-5.832,1.123-11.657,2.214-17.451,3.298c-11.046,2.067-21.378,4.006-31.505,6.105c-0.988,0.201-1.978,0.362-2.96,0.474
		c-0.302,0.034-0.606,0.064-0.905,0.093c-4.222,0.362-8.354-0.091-12.21-1.239c-3.712,2.925-8.082,5.071-12.896,6.182
		c-16.853,3.88-33.827,7.398-50.438,10.447c-0.762,0.141-1.506,0.251-2.244,0.334c-0.295,0.035-0.589,0.065-0.882,0.088
		c-14.393,1.238-28.117-7.3-33.361-20.761c-15.996-40.99-34.398-84.008-59.047-137.966c-9.515,3.522-19.86,6.363-31.403,7.683
		c-1.133,0.13-2.276,0.245-3.432,0.346c-2.408,0.205-4.868,0.34-7.311,0.396c-29.511,0.749-57.976-10.735-80.104-32.34
		c-25.465-24.852-40.64-61.296-40.601-97.49c0.05-55.447,41.48-102.511,98.507-111.903
		C127.992,101.717,130.035,101.436,132.074,101.202 M128.956,73.914c-2.478,0.285-4.978,0.63-7.428,1.033
		C51.163,86.534,0.062,144.981,0,213.925c-0.046,43.45,18.226,87.253,48.884,117.176c27.47,26.814,62.966,41.068,99.953,40.136
		c2.981-0.068,6.006-0.231,8.986-0.487c1.401-0.121,2.813-0.26,4.206-0.421c4.367-0.497,8.707-1.188,13.05-2.072
		c19.65,43.652,34.949,79.824,48.7,115.052c9.625,24.722,34.836,40.413,61.296,38.144c0.582-0.053,1.113-0.105,1.648-0.169
		c1.344-0.152,2.705-0.354,4.051-0.598c17.011-3.124,34.386-6.725,51.675-10.706c4.266-0.985,8.354-2.399,12.236-4.237
		c3.004,0.189,6.032,0.154,9.068-0.105c0.538-0.047,1.101-0.103,1.664-0.168c1.796-0.203,3.616-0.496,5.405-0.867
		c10.158-2.104,20.748-4.088,30.993-6.005c5.836-1.091,11.709-2.191,17.584-3.321c4.138-0.798,8.146-2.015,11.979-3.623
		c8.432,3.242,17.537,4.563,26.689,3.789c0.579-0.047,1.156-0.105,1.744-0.171c0.885-0.103,1.767-0.221,2.692-0.371
		c9.926-1.583,20.532-3.056,30.792-4.48l0.236-0.03l0.067-0.013l0.065-0.007l0.363-0.053c5.31-0.734,11.472-1.594,17.563-2.476
		c1.199-0.171,2.402-0.385,3.604-0.632c1.988,0.023,3.98-0.051,5.958-0.222c0.536-0.047,1.119-0.104,1.704-0.171
		c0.797-0.092,1.598-0.2,2.378-0.32c1.985-0.31,4.203-0.602,6.586-0.875c3.38-0.385,6.542-0.669,8.921-0.875
		c2.35-0.2,4.72-0.387,7.121-0.58l0.759-0.061l0.698-0.055l1.498-0.118c2.196-0.174,4.401-0.35,6.619-0.542
		c4.795-0.411,9.057-0.833,13.015-1.285c1.081-0.124,2.139-0.251,3.182-0.38c8.418-1.04,16.463-3.861,23.627-8.159
		c16.629,6.154,34.472,8.569,52.507,7.023c1.229-0.104,2.382-0.223,3.543-0.354c0.813-0.093,1.638-0.196,2.473-0.309
		c18.444-2.471,36.426-9.331,52.226-19.761c10.766,5.622,22.523,9.643,34.805,11.85c10.679,1.917,21.464,2.425,32.063,1.514
		c1.101-0.095,2.219-0.205,3.322-0.332c45.534-5.207,81.088-36.286,88.476-77.337c3.714-20.672-0.167-41.943-10.717-60.646
		l3.438-5.815c13.981-3.601,31.438-9.227,49.083-17.824c30.144-14.691,53.412-34.392,69.173-58.55
		c16.239-24.899,23.692-53.133,22.152-83.917c-1.433-28.554-7.944-54.28-19.354-76.465c-11.681-22.721-28.52-41.847-50.041-56.843
		c-25.507-17.783-56.252-28.792-93.979-33.651c-12.78-1.651-32.871-3.2-55.992-1.214c-2.28,0.198-4.577,0.427-6.824,0.683
		c-40.995,4.688-76.037,19.636-102.477,43.537c-15.28-4.069-30.927-5.514-46.718-4.303l-0.116,0.005l-0.113,0.01l-0.635,0.055
		c-1.102,0.095-2.181,0.203-3.255,0.324c-15.708,1.797-30.653,6.73-43.978,14.44c-19.205-6.231-38.538-8.557-57.643-6.913
		c-1.268,0.108-2.576,0.239-3.869,0.387c-2.929,0.334-5.896,0.771-8.821,1.296c-14.289,2.583-27.822,7.69-39.942,15.006
		c-17.119-7.158-36.518-9.982-57.089-8.213c-1.291,0.111-2.636,0.245-3.983,0.397c-2.177,0.25-4.411,0.558-6.639,0.91
		c-15.883,2.553-31.514,8.497-45.436,17.146c-7.735-2.561-15.979-3.563-24.154-2.857c-0.565,0.048-1.125,0.106-1.68,0.169
		c-1.322,0.15-2.631,0.344-3.895,0.573c-5.636,1.02-11.975,2.004-17.572,2.874l-0.166,0.026
		c-12.539,1.955-25.507,3.978-38.555,7.135c-1.161,0.279-2.317,0.595-3.468,0.947c-0.882,0.038-1.762,0.093-2.634,0.167
		c-0.571,0.049-1.129,0.108-1.688,0.171c-1.2,0.136-2.415,0.313-3.602,0.521c-12.75,2.239-25.278,4.788-37.504,7.351
		c-24.619-15.104-54.251-21.914-84.799-19.288C131.776,73.611,130.356,73.752,128.956,73.914"/>
	<path fill-rule="evenodd" clip-rule="evenodd" fill="#408ECC" d="M125.973,102.049c3.161-0.52,6.376-0.919,9.557-1.196
		c28.724-2.467,55.498,5.02,76.653,21.218l1.621-0.346c15.096-3.189,30.692-6.484,46.441-9.246c0.962-0.171,1.92-0.294,2.882-0.379
		c1.661-0.143,3.328-0.155,4.974-0.047c1.681-0.719,3.428-1.302,5.234-1.735c11.995-2.902,24.442-4.839,36.477-6.717
		c6.094-0.945,12.402-1.928,18.27-2.989c0.953-0.177,1.986-0.316,3.021-0.403c7.276-0.626,14.648,1.23,20.761,5.225
		c1.196,0.781,2.325,1.618,3.403,2.505c13.266-11.47,30.058-19.474,47.383-22.258c2.893-0.46,5.808-0.823,8.656-1.069
		c21.654-1.862,41.525,2.747,56.988,13.055c11.638-10.122,26.435-17.267,42.542-20.179c3.385-0.606,6.808-1.061,10.192-1.352
		c19.413-1.666,39.176,1.773,58.926,10.238c12.778-10.208,28.814-16.616,45.931-18.084l0.633-0.056
		c17.71-1.355,35.441,1.527,52.184,8.405c24.063-27.915,59.65-44.521,104.088-48.335c20.68-1.779,38.682-0.393,50.129,1.086
		c33.228,4.277,59.985,13.746,81.791,28.944c33.249,23.168,52.333,57.406,56.862,101.839
		c-3.753-46.436-22.952-82.089-57.219-105.968c-21.802-15.199-48.561-24.667-81.793-28.942c-11.446-1.478-29.446-2.865-50.124-1.089
		c-44.44,3.82-80.026,20.424-104.088,48.337c-16.745-6.876-34.475-9.766-52.184-8.401l-0.634,0.053
		c-17.111,1.47-33.153,7.878-45.937,18.086c-19.742-8.461-39.505-11.904-58.923-10.237c-3.382,0.293-6.808,0.746-10.188,1.352
		c-16.111,2.912-30.904,10.058-42.544,20.179c-15.46-10.308-35.333-14.912-56.988-13.055c-2.852,0.245-5.765,0.606-8.652,1.068
		c-17.33,2.782-34.127,10.791-47.384,22.258c-1.08-0.887-2.208-1.724-3.408-2.505c-6.113-3.996-13.482-5.852-20.756-5.225
		c-1.033,0.087-2.073,0.227-3.029,0.403c-5.865,1.062-12.165,2.042-18.265,2.992c-12.036,1.873-24.482,3.811-36.474,6.712
		c-1.81,0.435-3.555,1.02-5.235,1.736c-1.644-0.11-3.31-0.095-4.979,0.05c-0.955,0.083-1.914,0.205-2.878,0.374
		c-15.744,2.765-31.343,6.062-46.44,9.249l-1.622,0.345c-21.162-16.197-47.929-23.684-76.65-21.213
		c-3.182,0.273-6.398,0.674-9.563,1.196c-57.028,9.386-98.458,56.449-98.506,111.899c-0.008,4.777,0.269,9.555,0.783,14.314
		c-0.261-3.39-0.438-6.79-0.427-10.188C27.513,158.505,68.943,111.441,125.973,102.049"/>
	<path fill-rule="evenodd" clip-rule="evenodd" fill="#408ECC" d="M840.138,372.908c-0.756-13.773-6.193-27.2-15.542-38.625
		l-1.275,2.162C832.691,347.158,838.523,359.801,840.138,372.908"/>
	<path fill-rule="evenodd" clip-rule="evenodd" fill="#035094" d="M902.77,75.458c-18.98-13.229-42.701-21.524-72.526-25.362
		c-10.432-1.349-26.824-2.615-45.673-0.995c-45.736,3.929-79.815,22.718-99.573,54.033c-17.717-10.709-37.307-15.589-56.772-14.09
		l-0.555,0.045c-18.173,1.562-33.826,10.166-43.775,22.666c-0.563-0.459-1.177-0.875-1.845-1.231
		c-20.064-10.668-39.998-15.241-59.237-13.586c-2.755,0.237-5.533,0.609-8.263,1.098c-16.994,3.074-35.289,13.387-44.692,30.089
		c-2.455-3.579-5.147-6.645-7.809-8.986c-11.934-10.537-29.321-15.412-48.956-13.727c-2.34,0.204-4.743,0.5-7.129,0.885
		c-17.845,2.862-35.607,13.295-46.363,27.233c-3.727,4.835-6.805,10.176-9.278,15.848c-0.689-3.848-1.411-7.685-2.146-11.503
		c-0.053-0.282-0.083-0.59-0.131-0.907c-0.369-2.965-1.259-9.91-7.609-14.061c-2.236-1.465-4.898-2.126-7.545-1.897
		c-0.372,0.029-0.741,0.08-1.095,0.145c-6.109,1.104-12.545,2.104-18.768,3.076c-11.623,1.807-23.635,3.679-34.786,6.376
		c-2.553,0.617-4.717,2.015-6.292,3.885c-2.079-1.208-4.517-1.807-7.038-1.591c-0.351,0.033-0.706,0.078-1.062,0.138
		c-15.393,2.704-30.819,5.962-45.733,9.115l-7.88,1.661c-1.169,0.246-2.294,0.669-3.326,1.241
		c-17.899-17.41-42.553-25.726-69.593-23.401c-2.639,0.227-5.313,0.561-7.957,0.995c-46.909,7.722-80.985,46.135-81.025,91.324
		c-0.031,30.677,12.795,61.53,34.305,82.528c18.069,17.637,41.174,27.013,65.028,26.408c1.994-0.045,4.016-0.156,6.023-0.327h0.003
		c17.984-1.546,33.137-7.798,46.818-14.312c0.442-0.212,0.882-0.42,1.325-0.635c-0.023,1.752,0.342,3.514,1.087,5.144
		c28.064,60.941,48.381,108.112,65.882,152.959c1.938,4.962,6.911,7.993,12.125,7.545c0.379-0.031,0.76-0.082,1.142-0.155
		c16.284-2.987,32.945-6.441,49.524-10.256c5.247-1.211,9.029-5.78,9.244-11.152c0.246-6.092,0.504-12.475,0.791-19.082
		c2.025,5.921,3.906,11.535,5.645,16.729c1.767,5.277,6.903,8.569,12.325,8.102c0.467-0.037,0.939-0.108,1.412-0.205
		c10.361-2.149,20.823-4.109,31.908-6.188c5.76-1.074,11.551-2.156,17.348-3.276c5.31-1.021,9.271-5.486,9.647-10.885
		c1.005-14.549,1.958-29.094,2.907-43.642c1.264-19.438,2.554-39.205,4.008-59.039c4.695,30.342,9.636,63.997,14.314,102.586
		c0.39,3.216,2.069,6.139,4.662,8.094c2.351,1.774,5.283,2.606,8.201,2.356c0.289-0.026,0.571-0.061,0.861-0.105
		c10.432-1.67,21.401-3.191,32.007-4.663c5.931-0.825,11.872-1.649,17.791-2.506c2.186-0.315,4.143-1.206,5.755-2.496
		c2.007,1.054,4.287,1.519,6.563,1.324c0.269-0.023,0.537-0.058,0.802-0.095c6.82-1.056,13.639-1.703,18.815-2.148
		c2.722-0.234,5.447-0.447,8.181-0.667c2.818-0.226,5.651-0.448,8.498-0.689c5.566-0.48,10.153-0.948,14.425-1.48
		c6.3-0.776,10.889-6.351,10.438-12.679c-0.561-7.949-1.153-15.789-1.765-23.532c15.525,23.756,40.952,37.316,69.239,34.889h0.008
		c1.223-0.105,2.447-0.236,3.699-0.404c23.378-3.132,44.36-17.362,56.533-37.81c1.938,3.496,4.333,6.855,7.207,9.979
		c9.482,10.322,23.083,17.512,38.294,20.244c6.479,1.171,12.998,1.48,19.374,0.93c25.218-2.164,44.655-17.458,48.361-38.058
		c3.199-17.792-6.127-35.507-22.562-46.948c0.424-0.501,0.82-1.028,1.164-1.604l30.852-52.16
		c10.885-1.822,34.855-6.828,58.749-18.476c44.105-21.492,66.31-54.89,64.221-96.584C949.379,128.83,932.976,96.509,902.77,75.458
		 M831.537,162.02c-2.242,48.539-37.232,64.452-57.549,66.197c-0.005,0.002-0.01,0.002-0.01,0.002
		c-7.846,0.672-16.393,0.084-25.418-1.748c-1.127-0.23-2.268-0.293-3.398-0.196c-2.415,0.208-4.748,1.156-6.642,2.752
		c-2.788,2.336-4.358,5.822-4.261,9.457l2.375,87.529c0.041,1.419,0.324,2.78,0.819,4.039c-7.604,2.044-14.407,5.353-20.056,9.689
		c-1.785-20.25-9.992-40.08-26.159-53.25c-17.036-13.835-38.922-20.379-61.627-18.427c-1.666,0.145-3.326,0.329-4.998,0.565
		c-25.131,3.481-45.989,16.4-55.808,34.554c-1.519,2.808-2.83,5.896-3.938,9.196c-3.258-8.021-8.056-15.008-15.48-19.892
		c-11.222-7.351-25.628-10.694-40.562-9.41c-3.847,0.329-7.68,0.965-11.435,1.884c-0.002-0.024-0.005-0.05-0.008-0.075
		c-0.822-5.975-1.602-11.625-1.975-17.313c-0.214-3.198-1.705-6.179-4.136-8.265c-2.43-2.083-5.593-3.105-8.785-2.829h-0.008
		c-3.194,0.278-6.332,0.578-9.429,0.899c2.795-1.666,5.577-3.518,8.338-5.573c14.822,6.232,34.542,9.009,52.905,7.433
		c21.004-1.804,37.633-8.675,48.718-19.566c0.572,0.482,1.173,0.925,1.837,1.299c13.87,7.746,32.696,11.251,51.64,9.625
		c37.45-3.219,62.423-25.111,63.619-55.768c0.442-11.085-2.423-21.346-8.029-30.124l86.536,15.557
		c1.041,0.188,2.086,0.23,3.122,0.145c2.288-0.2,4.492-1.056,6.335-2.502c2.685-2.091,4.336-5.235,4.561-8.625
		c0.671-10.198,6.027-39.606,21.344-40.922c1.445-0.126,3.05-0.031,4.752,0.271C826.836,130.089,832.345,144.444,831.537,162.02"/>
	<path fill-rule="evenodd" clip-rule="evenodd" fill="#911A1C" d="M417.755,275.451c-5.215,53.531-8.073,107.17-11.808,160.816
		c-16.71,3.216-33.421,6.171-49.418,9.492c-8.149-24.361-16.53-48.615-25.715-72.597c-1.729,26.052-2.918,52.184-3.953,78.26
		c-16.431,3.785-32.76,7.171-48.997,10.153c-20.277-51.942-42.797-102.872-66.158-153.604c17.053-3.697,34.562-7.163,51.612-10.992
		c10.982,27.565,21.004,55.42,30.936,83.3c0.332-25.724,0.224-51.423,0.49-77.156c16.375-2.937,32.86-5.744,49.708-8.311
		c7.432,22.722,14.838,45.413,21.846,68.247c0.131-27.326-1.222-54.593-1.38-81.928C381.675,278.5,400.554,277.616,417.755,275.451"
		/>
	<path fill-rule="evenodd" clip-rule="evenodd" fill="#911A1C" d="M481.448,268.541c0.714,10.854,2.73,21.138,3.875,32.86
		c17.296-8.609,39.69-9.092,55.463,1.244c13.019,8.566,15.46,27.613,17.651,50.399c2.226,22.929,4.117,46,5.748,69.04
		c-17.423,2.156-33.604,2.453-50.281,5.032c-2.193-25.511-5.066-50.945-8.223-76.324c-0.95-7.812-0.984-18.44-6.926-18.817
		c-10.024-0.664-7.64,11.483-6.637,18.813c3.44,25.738,6.242,51.698,8.781,77.58c-16.74,2.425-33.69,4.591-49.977,7.197
		c-7.874-65.008-16.594-116.719-23.352-160.242C445.084,272.591,462.558,270.173,481.448,268.541"/>
	<path fill-rule="evenodd" clip-rule="evenodd" fill="#911A1C" d="M624.191,280.62c20.958-2.91,41.306,2.191,57.466,15.312
		c24.28,19.775,27.401,59.371,15.246,86.024c-9.21,20.142-28.646,35.392-51.222,38.415c-37.611,5.015-65.71-22.829-73.104-58.044
		c-3.84-18.361-2.739-39.621,4.657-53.29C584.98,294.712,602.014,283.696,624.191,280.62 M626.942,351.861
		c1.201,12.179,8.067,31.037,13.897,27.212c10.338-6.77,8.682-64.868-6.726-65.026C627.686,314,625.439,336.645,626.942,351.861"/>
	<path fill="#911A1C" d="M818.088,275.291l-32.139,57.976l-39.049-5.897l-4.823-87.43c104.887,18.272,113.84-116.878,71.228-123.314
		c-36.663-5.534-38.644,52.731-38.644,52.731l-101.437-15.317c14.378-95.239,111.099-96.134,146.422-92.576
		c36.026,3.616,106.942,17.843,113.925,107.056C940.552,257.737,818.088,275.291,818.088,275.291 M765.172,341.814
		c-26.297-3.972-50.065,9.011-53.081,29.003c-3.024,19.989,15.851,39.407,42.152,43.385c26.296,3.971,50.067-9.011,53.095-29.001
		C810.352,365.209,791.477,345.789,765.172,341.814"/>
	<path fill-rule="evenodd" clip-rule="evenodd" fill="#911A1C" d="M197.294,154.499c-12.058,11.201-21.858,24.193-33.911,35.085
		c-12.563-12.631-39.781-16.373-48.501,0.766c-10.615,20.833,2.636,61.866,23.781,72.493c8.388,4.237,24.871,1.517,33.925-3.619
		c-5.297-17.274-16.683-30.264-25.461-41.913c20.838-4.915,41.708-9.727,62.655-14.274c1.473,24.181,7.654,48.146,20.192,68.694
		c-9.744,12.634-22.314,19.146-36.636,25.938c-13.769,6.556-29.521,13.065-48.004,13.492c-50.841,1.292-87.182-48.228-87.129-96.998
		c0.036-40.725,31.696-73.09,71.029-79.569C154.08,130.522,179.464,136.643,197.294,154.499"/>
	<path fill-rule="evenodd" clip-rule="evenodd" fill="#911A1C" d="M409.203,208.596c12.976,17.591,38.165,8.328,51.555-4.079
		c5.18,11.67,11.402,22.17,16.78,33.647c-17.434,15.165-36.392,20.416-57.119,22.678c-18.309,2.007-35.744-6.052-46.66-17.408
		c-24.389-25.284-29.076-73.5-6.775-102.445c8.165-10.583,22.929-20.192,38.803-22.738c19.979-3.211,36.171,1.059,46.3,10.002
		c8.53,7.503,18.117,25.688,11.456,40.703C454.194,190.052,429.187,199.273,409.203,208.596 M418.054,166.231
		c3.804-5.489,3.364-15.679-5.351-13.669c-7.084,1.662-11.404,17.411-10.822,25.202
		C408.442,176.273,414.742,171.043,418.054,166.231"/>
	<path fill-rule="evenodd" clip-rule="evenodd" fill="#911A1C" d="M574.387,121.231c-5.004,10.011-10.738,19.702-16.219,29.998
		c-4.559-1.618-10.658-5.101-17.21-7.037c-3.943-1.146-17.308-4.359-18.426,2.913c-1.238,8.001,13.187,9.374,18.354,10.505
		c22.649,4.931,44.383,18.618,43.661,44.878c-1.319,48.795-68.567,52.244-101.033,38.326c2.286-12.718,3.813-26.246,5.804-39.058
		c6.334,1.925,13.106,4.53,22.055,6.348c4.113,0.803,22.202,4.75,24.124-1.776c2.357-8.158-11.987-9.716-16.979-10.801
		c-8.996-1.954-14.799-2.923-21.083-5.749c-12.902-5.805-25.125-18.983-24.048-38.966c1.153-21.982,20.614-37.139,41.217-40.86
		C535.633,106.162,555.863,111.39,574.387,121.231"/>
	<path fill-rule="evenodd" clip-rule="evenodd" fill="#911A1C" d="M678.267,114.423c-4.986,9.658-10.038,19.89-16.453,29.166
		c-3.688-2.626-9.588-5.146-15.83-7.377c-3.141-1.091-15.356-5.947-16.648,2.458c-1.263,8.104,17.682,10.954,22.675,12.542
		c19.437,6.173,34.986,21.288,34.117,43.323c-1.789,45.803-66.559,53.482-97.524,36.201c2.06-13.508,5.032-26.045,6.861-39.498
		c6.154,2.599,12.493,5.312,21.002,7.537c4.573,1.22,20.883,5.365,22.863-1.772c2.007-7.193-10.916-9.61-15.749-10.719
		c-21.079-4.78-41.599-18.205-41.225-42.863c0.362-24.291,21.856-40.535,44.727-42.305
		C645.16,99.722,663.045,104.85,678.267,114.423"/>
	<path fill-rule="evenodd" clip-rule="evenodd" fill="#911A1C" d="M331.849,133.069c2.217,1.455,2.091,4.875,2.551,7.248
		c8.112,41.832,12.963,84.707,23.959,126.006c-14.895,1.554-28.568,4.311-42.985,6.173c-0.974-3.668-2.725-6.577-3.386-10.579
		c-4.199,2.999-5.855,7.695-9.703,10.885c-7.464,6.208-18.325,9.999-32.561,9.361c-33.455-1.54-40.737-39.615-46.037-66.222
		c-3.958-19.958-8.341-40.291-13.06-60.274c17.711-3.722,35.378-7.57,53.229-10.698c5.088,24.228,10.162,48.53,14.878,72.737
		c1.39,7.24,1.762,20.195,8.221,21.038c6.042,0.764,8.554-4.825,8.8-8.977c0.427-6.767-2.133-15.542-3.508-22.725
		c-4.185-21.601-8.542-43.171-13.271-64.661C295.569,138.369,314.342,136.238,331.849,133.069"/>
	<path fill-rule="evenodd" clip-rule="evenodd" fill="#FFFFFF" d="M902.77,75.458c-18.98-13.229-42.701-21.524-72.526-25.362
		c-10.432-1.349-26.824-2.615-45.673-0.995c-45.736,3.929-79.815,22.718-99.573,54.033c-17.717-10.709-37.307-15.589-56.772-14.09
		l-0.555,0.045c-18.173,1.562-33.826,10.166-43.775,22.666c-0.563-0.459-1.177-0.875-1.845-1.231
		c-20.064-10.668-39.998-15.241-59.237-13.586c-2.755,0.237-5.533,0.609-8.263,1.098c-16.994,3.074-35.289,13.387-44.692,30.089
		c-2.455-3.579-5.147-6.645-7.809-8.986c-11.934-10.537-29.321-15.412-48.956-13.727c-2.34,0.204-4.743,0.5-7.129,0.885
		c-17.845,2.862-35.607,13.295-46.363,27.233c-3.727,4.835-6.805,10.176-9.278,15.848c-0.689-3.848-1.411-7.685-2.146-11.503
		c-0.053-0.282-0.083-0.59-0.131-0.907c-0.369-2.965-1.259-9.91-7.609-14.061c-2.236-1.465-4.898-2.126-7.545-1.897
		c-0.372,0.029-0.741,0.08-1.095,0.145c-6.109,1.104-12.545,2.104-18.768,3.076c-11.623,1.807-23.635,3.679-34.786,6.376
		c-2.553,0.617-4.717,2.015-6.292,3.885c-2.079-1.208-4.517-1.807-7.038-1.591c-0.351,0.033-0.706,0.078-1.062,0.138
		c-15.393,2.704-30.819,5.962-45.733,9.115l-7.88,1.661c-1.169,0.246-2.294,0.669-3.326,1.241
		c-17.899-17.41-42.553-25.726-69.593-23.401c-2.639,0.227-5.313,0.561-7.957,0.995c-46.909,7.722-80.985,46.135-81.025,91.324
		c-0.031,30.677,12.795,61.53,34.305,82.528c18.069,17.637,41.174,27.013,65.028,26.408c1.994-0.045,4.016-0.156,6.023-0.327h0.003
		c17.984-1.546,33.137-7.798,46.818-14.312c0.442-0.212,0.882-0.42,1.325-0.635c-0.023,1.752,0.342,3.514,1.087,5.144
		c28.064,60.941,48.381,108.112,65.882,152.959c1.938,4.962,6.911,7.993,12.125,7.545c0.379-0.031,0.76-0.082,1.142-0.155
		c16.284-2.987,32.945-6.441,49.524-10.256c5.247-1.211,9.029-5.78,9.244-11.152c0.246-6.092,0.504-12.475,0.791-19.082
		c2.025,5.921,3.906,11.535,5.645,16.729c1.767,5.277,6.903,8.569,12.325,8.102c0.467-0.037,0.939-0.108,1.412-0.205
		c10.361-2.149,20.823-4.109,31.908-6.188c5.76-1.074,11.551-2.156,17.348-3.276c5.31-1.021,9.271-5.486,9.647-10.885
		c1.005-14.549,1.958-29.094,2.907-43.642c1.264-19.438,2.554-39.205,4.008-59.039c4.695,30.342,9.636,63.997,14.314,102.586
		c0.39,3.216,2.069,6.139,4.662,8.094c2.351,1.774,5.283,2.606,8.201,2.356c0.289-0.026,0.571-0.061,0.861-0.105
		c10.432-1.67,21.401-3.191,32.007-4.663c5.931-0.825,11.872-1.649,17.791-2.506c2.186-0.315,4.143-1.206,5.755-2.496
		c2.007,1.054,4.287,1.519,6.563,1.324c0.269-0.023,0.537-0.058,0.802-0.095c6.82-1.056,13.639-1.703,18.815-2.148
		c2.722-0.234,5.447-0.447,8.181-0.667c2.818-0.226,5.651-0.448,8.498-0.689c5.566-0.48,10.153-0.948,14.425-1.48
		c6.3-0.776,10.889-6.351,10.438-12.679c-0.561-7.949-1.153-15.789-1.765-23.532c15.525,23.756,40.952,37.316,69.239,34.889h0.008
		c1.223-0.105,2.447-0.236,3.699-0.404c23.378-3.132,44.36-17.362,56.533-37.81c1.938,3.496,4.333,6.855,7.207,9.979
		c9.482,10.322,23.083,17.512,38.294,20.244c6.479,1.171,12.998,1.48,19.374,0.93c25.218-2.164,44.655-17.458,48.361-38.058
		c3.199-17.792-6.127-35.507-22.562-46.948c0.424-0.501,0.82-1.028,1.164-1.604l30.852-52.16
		c10.885-1.822,34.855-6.828,58.749-18.476c44.105-21.492,66.31-54.89,64.221-96.584C949.379,128.83,932.976,96.509,902.77,75.458
		 M831.537,162.02c-2.242,48.539-37.232,64.452-57.549,66.197c-0.005,0.002-0.01,0.002-0.01,0.002
		c-7.846,0.672-16.393,0.084-25.418-1.748c-1.127-0.23-2.268-0.293-3.398-0.196c-2.415,0.208-4.748,1.156-6.642,2.752
		c-2.788,2.336-4.358,5.822-4.261,9.457l2.375,87.529c0.041,1.419,0.324,2.78,0.819,4.039c-7.604,2.044-14.407,5.353-20.056,9.689
		c-1.785-20.25-9.992-40.08-26.159-53.25c-17.036-13.835-38.922-20.379-61.627-18.427c-1.666,0.145-3.326,0.329-4.998,0.565
		c-25.131,3.481-45.989,16.4-55.808,34.554c-1.519,2.808-2.83,5.896-3.938,9.196c-3.258-8.021-8.056-15.008-15.48-19.892
		c-11.222-7.351-25.628-10.694-40.562-9.41c-3.847,0.329-7.68,0.965-11.435,1.884c-0.002-0.024-0.005-0.05-0.008-0.075
		c-0.822-5.975-1.602-11.625-1.975-17.313c-0.214-3.198-1.705-6.179-4.136-8.265c-2.43-2.083-5.593-3.105-8.785-2.829h-0.008
		c-3.194,0.278-6.332,0.578-9.429,0.899c2.795-1.666,5.577-3.518,8.338-5.573c14.822,6.232,34.542,9.009,52.905,7.433
		c21.004-1.804,37.633-8.675,48.718-19.566c0.572,0.482,1.173,0.925,1.837,1.299c13.87,7.746,32.696,11.251,51.64,9.625
		c37.45-3.219,62.423-25.111,63.619-55.768c0.442-11.085-2.423-21.346-8.029-30.124l86.536,15.557
		c1.041,0.188,2.086,0.23,3.122,0.145c2.288-0.2,4.492-1.056,6.335-2.502c2.685-2.091,4.336-5.235,4.561-8.625
		c0.671-10.198,6.027-39.606,21.344-40.922c1.445-0.126,3.05-0.031,4.752,0.271C826.836,130.089,832.345,144.444,831.537,162.02"/>
	<path fill-rule="evenodd" clip-rule="evenodd" fill="#911A1C" d="M417.755,275.451c-5.215,53.531-8.073,107.17-11.808,160.816
		c-16.71,3.216-33.421,6.171-49.418,9.492c-8.149-24.361-16.53-48.615-25.715-72.597c-1.729,26.052-2.918,52.184-3.953,78.26
		c-16.431,3.785-32.76,7.171-48.997,10.153c-20.277-51.942-42.797-102.872-66.158-153.604c17.053-3.697,34.562-7.163,51.612-10.992
		c10.982,27.565,21.004,55.42,30.936,83.3c0.332-25.724,0.224-51.423,0.49-77.156c16.375-2.937,32.86-5.744,49.708-8.311
		c7.432,22.722,14.838,45.413,21.846,68.247c0.131-27.326-1.222-54.593-1.38-81.928C381.675,278.5,400.554,277.616,417.755,275.451"
		/>
	<path fill-rule="evenodd" clip-rule="evenodd" fill="#911A1C" d="M481.448,268.541c0.714,10.854,2.73,21.138,3.875,32.86
		c17.296-8.609,39.69-9.092,55.463,1.244c13.019,8.566,15.46,27.613,17.651,50.399c2.226,22.929,4.117,46,5.748,69.04
		c-17.423,2.156-33.604,2.453-50.281,5.032c-2.193-25.511-5.066-50.945-8.223-76.324c-0.95-7.812-0.984-18.44-6.926-18.817
		c-10.024-0.664-7.64,11.483-6.637,18.813c3.44,25.738,6.242,51.698,8.781,77.58c-16.74,2.425-33.69,4.591-49.977,7.197
		c-7.874-65.008-16.594-116.719-23.352-160.242C445.084,272.591,462.558,270.173,481.448,268.541"/>
	<path fill-rule="evenodd" clip-rule="evenodd" fill="#911A1C" d="M624.191,280.62c20.958-2.91,41.306,2.191,57.466,15.312
		c24.28,19.775,27.401,59.371,15.246,86.024c-9.21,20.142-28.646,35.392-51.222,38.415c-37.611,5.015-65.71-22.829-73.104-58.044
		c-3.84-18.361-2.739-39.621,4.657-53.29C584.98,294.712,602.014,283.696,624.191,280.62 M626.942,351.861
		c1.201,12.179,8.067,31.037,13.897,27.212c10.338-6.77,8.682-64.868-6.726-65.026C627.686,314,625.439,336.645,626.942,351.861"/>
	<path fill="#911A1C" d="M819.053,275.842l-33.842,56.996l-38.856-7.052l-2.232-87.528
		c104.298,21.365,117.249-113.46,74.854-121.157c-36.494-6.613-40.198,51.568-40.198,51.568l-100.935-18.315
		c17.197-94.772,113.901-92.802,149.104-88.201c35.904,4.68,106.363,21.004,110.705,110.385
		C941.986,261.925,819.053,275.842,819.053,275.842 M764.192,340.769c-26.166-4.746-50.316,7.524-53.918,27.419
		c-3.617,19.888,14.679,39.858,40.853,44.612c26.165,4.749,50.309-7.519,53.924-27.414
		C808.657,365.492,790.362,345.52,764.192,340.769"/>
	<path fill-rule="evenodd" clip-rule="evenodd" fill="#911A1C" d="M197.294,154.499c-12.058,11.201-21.858,24.193-33.911,35.085
		c-12.563-12.631-39.781-16.373-48.501,0.766c-10.615,20.833,2.636,61.866,23.781,72.493c8.388,4.237,24.871,1.517,33.925-3.619
		c-5.297-17.274-16.683-30.264-25.461-41.913c20.838-4.915,41.708-9.727,62.655-14.274c1.473,24.181,7.654,48.146,20.192,68.694
		c-9.744,12.634-22.314,19.146-36.636,25.938c-13.769,6.556-29.521,13.065-48.004,13.492c-50.841,1.292-87.182-48.228-87.129-96.998
		c0.036-40.725,31.696-73.09,71.029-79.569C154.08,130.522,179.464,136.643,197.294,154.499"/>
	<path fill-rule="evenodd" clip-rule="evenodd" fill="#911A1C" d="M409.203,208.596c12.976,17.591,38.165,8.328,51.555-4.079
		c5.18,11.67,11.402,22.17,16.78,33.647c-17.434,15.165-36.392,20.416-57.119,22.678c-18.309,2.007-35.744-6.052-46.66-17.408
		c-24.389-25.284-29.076-73.5-6.775-102.445c8.165-10.583,22.929-20.192,38.803-22.738c19.979-3.211,36.171,1.059,46.3,10.002
		c8.53,7.503,18.117,25.688,11.456,40.703C454.194,190.052,429.187,199.273,409.203,208.596 M418.054,166.231
		c3.804-5.489,3.364-15.679-5.351-13.669c-7.084,1.662-11.404,17.411-10.822,25.202
		C408.442,176.273,414.742,171.043,418.054,166.231"/>
	<path fill-rule="evenodd" clip-rule="evenodd" fill="#911A1C" d="M574.387,121.231c-5.004,10.011-10.738,19.702-16.219,29.998
		c-4.559-1.618-10.658-5.101-17.21-7.037c-3.943-1.146-17.308-4.359-18.426,2.913c-1.238,8.001,13.187,9.374,18.354,10.505
		c22.649,4.931,44.383,18.618,43.661,44.878c-1.319,48.795-68.567,52.244-101.033,38.326c2.286-12.718,3.813-26.246,5.804-39.058
		c6.334,1.925,13.106,4.53,22.055,6.348c4.113,0.803,22.202,4.75,24.124-1.776c2.357-8.158-11.987-9.716-16.979-10.801
		c-8.996-1.954-14.799-2.923-21.083-5.749c-12.902-5.805-25.125-18.983-24.048-38.966c1.153-21.982,20.614-37.139,41.217-40.86
		C535.633,106.162,555.863,111.39,574.387,121.231"/>
	<path fill-rule="evenodd" clip-rule="evenodd" fill="#911A1C" d="M678.267,114.423c-4.986,9.658-10.038,19.89-16.453,29.166
		c-3.688-2.626-9.588-5.146-15.83-7.377c-3.141-1.091-15.356-5.947-16.648,2.458c-1.263,8.104,17.682,10.954,22.675,12.542
		c19.437,6.173,34.986,21.288,34.117,43.323c-1.789,45.803-66.559,53.482-97.524,36.201c2.06-13.508,5.032-26.045,6.861-39.498
		c6.154,2.599,12.493,5.312,21.002,7.537c4.573,1.22,20.883,5.365,22.863-1.772c2.007-7.193-10.916-9.61-15.749-10.719
		c-21.079-4.78-41.599-18.205-41.225-42.863c0.362-24.291,21.856-40.535,44.727-42.305
		C645.16,99.722,663.045,104.85,678.267,114.423"/>
	<path fill-rule="evenodd" clip-rule="evenodd" fill="#911A1C" d="M331.849,133.069c2.217,1.455,2.091,4.875,2.551,7.248
		c8.112,41.832,12.963,84.707,23.959,126.006c-14.895,1.554-28.568,4.311-42.985,6.173c-0.974-3.668-2.725-6.577-3.386-10.579
		c-4.199,2.999-5.855,7.695-9.703,10.885c-7.464,6.208-18.325,9.999-32.561,9.361c-33.455-1.54-40.737-39.615-46.037-66.222
		c-3.958-19.958-8.341-40.291-13.06-60.274c17.711-3.722,35.378-7.57,53.229-10.698c5.088,24.228,10.162,48.53,14.878,72.737
		c1.39,7.24,1.762,20.195,8.221,21.038c6.042,0.764,8.554-4.825,8.8-8.977c0.427-6.767-2.133-15.542-3.508-22.725
		c-4.185-21.601-8.542-43.171-13.271-64.661C295.569,138.369,314.342,136.238,331.849,133.069"/>
	<path fill-rule="evenodd" clip-rule="evenodd" fill="#D0202E" d="M421.703,273.037c-5.209,53.525-8.072,107.164-11.804,160.809
		c-16.711,3.221-33.423,6.176-49.418,9.495c-8.15-24.359-16.528-48.615-25.72-72.595c-1.733,26.048-2.919,52.184-3.948,78.262
		c-16.432,3.78-32.763,7.17-49.008,10.149c-20.266-51.944-42.791-102.873-66.151-153.604c17.061-3.7,34.566-7.163,51.62-10.995
		c10.977,27.566,20.995,55.426,30.921,83.305c0.345-25.727,0.229-51.424,0.496-77.158c16.374-2.942,32.857-5.746,49.715-8.306
		c7.433,22.721,14.833,45.409,21.841,68.246c0.13-27.328-1.219-54.595-1.377-81.932
		C385.627,276.085,404.503,275.193,421.703,273.037"/>
	<path fill-rule="evenodd" clip-rule="evenodd" fill="#D0202E" d="M485.393,266.124c0.719,10.851,2.737,21.138,3.882,32.859
		c17.293-8.611,39.693-9.091,55.461,1.243c13.02,8.564,15.46,27.612,17.653,50.4c2.225,22.926,4.114,45.998,5.74,69.043
		c-17.421,2.154-33.6,2.446-50.278,5.029c-2.194-25.512-5.066-50.945-8.223-76.322c-0.95-7.817-0.982-18.438-6.924-18.817
		c-10.02-0.665-7.637,11.485-6.64,18.808c3.442,25.739,6.245,51.7,8.786,77.581c-16.745,2.43-33.693,4.596-49.977,7.195
		c-7.877-65.006-16.6-116.717-23.352-160.235C449.036,270.171,466.5,267.753,485.393,266.124"/>
	<path fill-rule="evenodd" clip-rule="evenodd" fill="#D0202E" d="M628.139,278.205c20.958-2.91,41.307,2.189,57.469,15.31
		c24.275,19.773,27.399,59.371,15.244,86.021c-9.21,20.142-28.644,35.392-51.217,38.417c-37.611,5.011-65.718-22.828-73.108-58.046
		c-3.84-18.363-2.73-39.621,4.659-53.287C588.929,292.297,605.966,281.278,628.139,278.205 M630.896,349.445
		c1.201,12.176,8.067,31.039,13.888,27.214c10.343-6.771,8.689-64.87-6.718-65.033C631.637,311.581,629.385,334.228,630.896,349.445
		"/>
	<path fill="#D0202E" d="M823.063,273.385l-33.749,57.054l-38.864-6.987l-2.375-87.534c104.33,21.199,117.068-113.643,74.648-121.27
		c-36.498-6.557-40.108,51.631-40.108,51.631l-100.97-18.152c17.048-94.798,113.751-92.983,148.959-88.441
		c35.917,4.623,106.401,20.825,110.892,110.202C945.977,259.266,823.063,273.385,823.063,273.385 M768.311,338.402
		c-26.173-4.702-50.303,7.604-53.882,27.51c-3.571,19.892,14.747,39.837,40.936,44.544c26.173,4.708,50.294-7.607,53.876-27.499
		C812.82,363.054,794.489,343.112,768.311,338.402"/>
	<path fill-rule="evenodd" clip-rule="evenodd" fill="#D0202E" d="M201.245,152.083c-12.052,11.199-21.859,24.191-33.906,35.084
		c-12.57-12.631-39.794-16.372-48.504,0.767c-10.625,20.834,2.631,61.864,23.777,72.489c8.391,4.24,24.87,1.519,33.922-3.611
		c-5.297-17.28-16.677-30.272-25.452-41.915c20.838-4.917,41.707-9.729,62.658-14.279c1.46,24.188,7.645,48.146,20.182,68.697
		c-9.745,12.633-22.318,19.146-36.635,25.938c-13.766,6.558-29.513,13.065-48.001,13.493c-50.841,1.289-87.183-48.232-87.133-96.999
		c0.041-40.722,31.703-73.089,71.031-79.565C158.03,128.103,183.412,134.227,201.245,152.083"/>
	<path fill-rule="evenodd" clip-rule="evenodd" fill="#D0202E" d="M413.153,206.174c12.973,17.592,38.164,8.332,51.554-4.078
		c5.184,11.673,11.399,22.175,16.785,33.651c-17.443,15.162-36.395,20.414-57.117,22.673c-18.315,2.01-35.753-6.046-46.668-17.403
		c-24.386-25.284-29.063-73.501-6.769-102.449c8.159-10.576,22.923-20.189,38.799-22.736c19.981-3.209,36.168,1.059,46.297,10.005
		c8.539,7.501,18.122,25.681,11.462,40.698C458.147,187.636,433.132,196.856,413.153,206.174 M422.007,163.813
		c3.798-5.489,3.358-15.675-5.357-13.667c-7.089,1.659-11.395,17.408-10.821,25.201
		C412.395,173.859,418.691,168.628,422.007,163.813"/>
	<path fill-rule="evenodd" clip-rule="evenodd" fill="#D0202E" d="M578.337,118.815c-4.999,10.005-10.737,19.699-16.216,29.997
		c-4.566-1.62-10.663-5.106-17.213-7.041c-3.948-1.142-17.307-4.358-18.423,2.915c-1.243,8.003,13.179,9.375,18.346,10.504
		c22.649,4.931,44.388,18.62,43.672,44.878c-1.324,48.796-68.579,52.249-101.043,38.326c2.29-12.718,3.82-26.245,5.809-39.055
		c6.337,1.922,13.11,4.529,22.052,6.346c4.116,0.804,22.2,4.751,24.122-1.775c2.36-8.16-11.985-9.715-16.976-10.801
		c-8.994-1.955-14.794-2.925-21.089-5.747c-12.897-5.809-25.118-18.988-24.04-38.968c1.153-21.986,20.617-37.143,41.217-40.862
		C539.586,103.742,559.813,108.97,578.337,118.815"/>
	<path fill-rule="evenodd" clip-rule="evenodd" fill="#D0202E" d="M682.216,112.004c-4.984,9.657-10.039,19.892-16.454,29.163
		c-3.686-2.621-9.58-5.144-15.832-7.377c-3.132-1.091-15.36-5.944-16.65,2.462c-1.256,8.102,17.69,10.954,22.682,12.536
		c19.437,6.182,34.991,21.291,34.117,43.325c-1.789,45.81-66.559,53.484-97.528,36.202c2.06-13.507,5.038-26.047,6.861-39.495
		c6.155,2.597,12.491,5.31,21.006,7.532c4.572,1.223,20.882,5.368,22.862-1.767c2.011-7.195-10.917-9.613-15.746-10.721
		c-21.082-4.78-41.604-18.204-41.227-42.864c0.357-24.287,21.858-40.534,44.729-42.303
		C649.112,97.303,666.996,102.431,682.216,112.004"/>
	<path fill-rule="evenodd" clip-rule="evenodd" fill="#D0202E" d="M335.801,130.653c2.218,1.451,2.088,4.877,2.547,7.248
		c8.111,41.828,12.962,84.704,23.962,126.002c-14.89,1.56-28.572,4.312-42.997,6.174c-0.964-3.669-2.718-6.574-3.372-10.58
		c-4.205,3-5.857,7.695-9.708,10.887c-7.464,6.209-18.326,10.001-32.558,9.358c-33.46-1.538-40.74-39.613-46.036-66.216
		c-3.96-19.963-8.341-40.292-13.063-60.276c17.709-3.724,35.381-7.57,53.227-10.701c5.086,24.232,10.163,48.53,14.88,72.736
		c1.385,7.24,1.764,20.195,8.225,21.041c6.039,0.761,8.549-4.828,8.796-8.984c0.424-6.76-2.136-15.536-3.508-22.718
		c-4.185-21.602-8.542-43.174-13.265-64.661C299.517,135.949,318.298,133.817,335.801,130.653"/>
	<path fill="#E38F7B" d="M367.591,378.472c0.013-4.246-0.018-8.494-0.073-12.731c-5.378-17.169-16.624-51.302-22.238-68.41
		c-14.947,2.281-29.566,4.782-44.083,7.401c-0.013,1.024-0.008,2.054-0.023,3.089c13.611-2.436,27.32-4.771,41.322-6.909
		C349.103,321.059,361.364,358.225,367.591,378.472"/>
	<path fill="#E38F7B" d="M418.02,278.062c-15.263,1.925-32.005,2.727-46.861,5.066c0.013,1.057,0.021,2.121,0.044,3.177
		c14.127-2.023,29.722-2.857,44.025-4.659c-4.488,46.453-7.485,102.949-10.655,149.506c0.863-0.168,1.719-0.326,2.581-0.496
		C410.429,383.072,413.434,325.541,418.02,278.062"/>
	<path fill="#E38F7B" d="M324.428,447.74c0.894-0.201,1.776-0.397,2.671-0.599c0.774-19.974,2.776-54.013,3.988-73.981
		c-0.743-1.965-1.462-3.936-2.21-5.897C327.415,389.379,325.297,425.601,324.428,447.74"/>
	<path fill="#E38F7B" d="M295.804,393.792c0.044-3.698,0.074-7.397,0.097-11.096c-7.956-22.212-21.54-60.955-30.313-82.93
		c-15.125,3.414-30.651,6.499-45.782,9.788c0.419,0.908,0.832,1.814,1.253,2.718c13.845-2.969,27.953-5.818,41.737-8.921
		C272.562,327.795,286.979,369.065,295.804,393.792"/>
	<path fill="#E38F7B" d="M487.431,304.19c-1.093-11.115-3.676-22.596-4.367-32.894c-17.916,1.567-31.069,3.455-47.682,6.06
		c0.171,1.09,0.348,2.206,0.524,3.301c15.436-2.376,27.514-4.072,44.174-5.525c0.696,10.291,3.274,21.774,4.37,32.894
		c16.399-8.183,36.985-10.376,51.946-0.59c12.363,8.125,14.688,26.183,16.784,47.794c2.008,20.608,3.725,41.322,5.236,62.025
		c1.074-0.123,2.151-0.229,3.23-0.367c-1.548-21.856-3.365-43.734-5.482-65.487c-2.1-21.615-4.427-39.672-16.784-47.796
		C524.411,293.819,503.834,296.01,487.431,304.19"/>
	<path fill="#E38F7B" d="M490.233,358.04c2.933,21.789,5.333,43.756,7.517,65.674c1.034-0.15,2.074-0.292,3.115-0.444
		c-2.273-22.958-4.775-45.981-7.846-68.813c-0.516-3.762-1.428-8.934-0.393-12.532C487.902,344.176,489.485,352.594,490.233,358.04"
		/>
	<path fill="#E38F7B" d="M640.608,385.62c1.069-0.816,1.946-2.258,2.645-4.127c-5.523,3.668-13.55-14.352-15.594-26.262
		c-1.899-11.029-2.067-26.168,0.492-33.645c-5.375,2.826-5.772,23.747-3.342,37.89C626.871,371.537,635.075,389.852,640.608,385.62"
		/>
	<path fill="#E38F7B" d="M683.986,297.005c-14.344-11.625-32.393-16.136-50.983-13.543c-17.777,2.48-31.805,10.726-39.397,21.665
		c7.996-9.136,20.824-15.878,36.604-18.079c18.592-2.596,36.65,1.915,50.991,13.541c21.549,17.527,24.343,52.647,13.579,76.296
		c-1.556,3.423-3.458,6.684-5.644,9.742c3.379-4.054,6.242-8.526,8.434-13.323C708.338,349.653,705.541,314.533,683.986,297.005"/>
	<path fill="#E38F7B" d="M879.813,80.644c0,0,48.206,16.711,52.854,76.748c4.652,60.042-32.362,79.978-32.362,79.978
		c0-0.009,29.714-23.54,27.016-78.113C925.634,125.095,910.159,98.846,879.813,80.644"/>
	<path fill="#E38F7B" d="M752.804,242.628c0,0,68.371,9.974,85.744-46.671C838.548,195.957,842.643,254.721,752.804,242.628"/>
	<polygon fill="#E38F7B" points="813.255,279.415 785.192,326.66 752.261,320.07 782.604,322.283 	"/>
	<path fill="#E38F7B" d="M771.171,342.005c0,0,19.126,7.029,27.99,24.344c5.645,11.015,3.225,22.494-4.714,33.466
		c0,0,18.078-14.886,6.486-36.945C795.968,353.41,778.338,343.23,771.171,342.005"/>
	<path fill="#E38F7B" d="M702.99,147.372l73.255,10.849c0,0,3.543-18.015,13.731-32.584c0,0-11.585,13.885-17.508,27.709
		L702.99,147.372z"/>
	<path fill="#E38F7B" d="M130.708,137.833c21.954-3.6,44.374,1.786,60.176,17.49c1.043-1.03,2.091-2.065,3.177-3.068
		c-15.808-15.828-38.312-21.258-60.339-17.646c-17.865,2.942-33.928,11.916-45.363,24.815
		C99.521,148.257,114.373,140.524,130.708,137.833"/>
	<path fill="#E38F7B" d="M211.272,202.306c-18.577,4.035-37.08,8.303-55.549,12.661c0.528,0.706,1.076,1.42,1.624,2.144
		c16.935-3.982,33.888-7.885,50.907-11.577c1.301,21.441,6.782,42.681,17.89,60.899c-0.658,0.861-1.337,1.674-2.03,2.47
		c1.77-1.738,3.45-3.619,5.048-5.691C218.052,244.99,212.566,223.753,211.272,202.306"/>
	<path fill="#E38F7B" d="M112.628,189.855c-11.661,22.163,2.47,65.596,25.361,76.734c9.072,4.441,26.991,1.455,36.847-4.049
		c-0.181-0.617-0.402-1.221-0.611-1.832c-10.145,4.117-24.65,5.855-32.521,2.002c-22.889-11.138-37.024-54.573-25.362-76.735
		c0.527-1.025,1.138-1.965,1.799-2.853C115.939,184.91,114.058,187.132,112.628,189.855"/>
	<path fill="#E38F7B" d="M402.012,179.207c-0.458-6.11,1.799-16.584,5.931-22.892c-6.484,4.305-10.292,19.16-9.713,26.932
		c6.639-1.512,13.015-6.471,16.885-11.381C411.43,175.227,406.794,178.116,402.012,179.207"/>
	<path fill="#E38F7B" d="M407.67,120.848c17.711-2.845,32.069,0.938,41.05,8.87c7.564,6.656,16.058,22.774,10.156,36.084
		c-1.533,3.466-3.544,6.562-5.918,9.369c3.691-3.622,6.782-7.743,8.929-12.59c5.902-13.313-2.588-29.433-10.153-36.088
		c-8.981-7.926-23.333-11.713-41.048-8.869c-13.299,2.139-25.718,9.869-33.147,18.626
		C385.078,128.875,396.035,122.72,407.67,120.848"/>
	<path fill="#E38F7B" d="M464.064,205.571c-12.757,10.712-36.121,19.129-48.498,6.05c-1.52,0.65-3.022,1.298-4.483,1.938
		c12.043,14.885,36.465,6.278,49.628-4.765c4.604,9.778,10.206,18.565,15.043,28.146c1.213-0.867,2.422-1.762,3.619-2.709
		C474.478,224.452,468.758,215.528,464.064,205.571"/>
	<path fill="#E38F7B" d="M519.69,111.833c18.649-3.363,36.574,1.27,53.003,10c-3.841,7.68-8.168,15.173-12.413,22.964
		c0.36,0.144,0.719,0.284,1.054,0.403c4.846-9.128,9.937-17.722,14.375-26.596c-16.426-8.723-34.361-13.352-53.003-9.997
		c-10.841,1.96-21.293,7.512-28.252,15.757C501.244,117.895,510.327,113.519,519.69,111.833"/>
	<path fill="#E38F7B" d="M534.409,208.629c0.063-0.231,0.073-0.44,0.113-0.664c-5.223,1.816-15.636-0.431-18.493-0.985
		c-7.926-1.611-13.928-3.929-19.545-5.633c-0.2,1.317-0.392,2.657-0.585,3.987c4.936,1.583,10.321,3.487,17.119,4.87
		C516.663,210.914,532.7,214.417,534.409,208.629"/>
	<path fill="#E38F7B" d="M585.028,198.865c0.7-25.449-20.369-38.718-42.32-43.493c-5.004-1.098-18.983-2.425-17.78-10.185
		c0.019-0.108,0.063-0.191,0.084-0.297c-1.77,0.638-3.064,1.804-3.379,3.825c-1.198,7.753,12.776,9.083,17.785,10.178
		c21.944,4.775,43.014,18.049,42.315,43.496c-0.282,10.2-3.539,18.343-8.781,24.728
		C580.098,220.301,584.698,211.054,585.028,198.865"/>
	<path fill="#E38F7B" d="M623.885,103.779c18.644-3.36,36.574,1.271,53.003,9.999c-3.843,7.685-8.168,15.177-12.41,22.967
		c0.35,0.141,0.709,0.288,1.054,0.401c4.85-9.129,9.935-17.717,14.372-26.595c-16.427-8.724-34.356-13.356-53.003-9.998
		c-10.837,1.959-21.296,7.517-28.244,15.759C605.434,109.842,614.52,105.47,623.885,103.779"/>
	<path fill="#E38F7B" d="M638.601,200.577c0.07-0.232,0.075-0.44,0.123-0.664c-5.228,1.815-15.644-0.43-18.493-0.985
		c-7.929-1.611-13.936-3.928-19.547-5.63c-0.206,1.312-0.395,2.657-0.585,3.987c4.935,1.585,10.313,3.485,17.113,4.865
		C620.863,202.863,636.891,206.358,638.601,200.577"/>
	<path fill="#E38F7B" d="M689.224,190.816c0.694-25.452-20.371-38.723-42.317-43.498c-5.008-1.098-18.983-2.428-17.783-10.18
		c0.023-0.11,0.063-0.194,0.084-0.299c-1.761,0.635-3.065,1.801-3.379,3.824c-1.203,7.753,12.775,9.083,17.783,10.179
		c21.943,4.772,43.015,18.046,42.315,43.495c-0.274,10.195-3.535,18.341-8.771,24.724C684.296,212.246,688.893,203,689.224,190.816"
		/>
	<path fill="#E38F7B" d="M278.374,222.899c1.237,6.418,1.558,17.903,7.287,18.651c3.421,0.432,5.564-1.435,6.723-3.801
		c-1.016,0.517-2.241,0.761-3.705,0.578c-5.729-0.746-6.054-12.233-7.298-18.649c-4.169-21.459-11.007-52.917-15.51-74.399
		c-15.824,2.777-31.488,6.185-47.183,9.487c0.187,0.819,0.372,1.644,0.558,2.468c14.506-3.061,28.991-6.165,43.609-8.733
		C267.361,169.982,274.196,201.439,278.374,222.899"/>
	<path fill="#E38F7B" d="M287.774,140.987c0.177,0.812,0.348,1.617,0.527,2.425c13.809-3.046,29.031-4.873,43.324-7.456
		c1.97,1.289,1.857,4.322,2.265,6.426c7.003,36.14,11.286,73.167,20.524,108.916c1.239-0.149,2.476-0.294,3.734-0.432
		c-9.755-36.613-14.056-74.625-21.248-111.709c-0.404-2.1-0.293-5.136-2.26-6.426C319.123,135.544,302.48,137.429,287.774,140.987"
		/>
	<g>
		<path fill="#045093" d="M857.843,450.224c5.37,0,9.872,4.238,9.872,9.793c0,5.657-4.502,9.896-9.872,9.896
			c-5.396,0-9.922-4.239-9.922-9.896C847.921,454.462,852.447,450.224,857.843,450.224z M857.843,468.466
			c4.556,0,8.081-3.633,8.081-8.449c0-4.712-3.525-8.346-8.081-8.346c-4.605,0-8.133,3.634-8.133,8.346
			C849.71,464.833,853.237,468.466,857.843,468.466z M854,454.304h4.447c2.739,0,4.027,1.079,4.027,3.291
			c0,2.079-1.313,2.947-3.026,3.132l3.292,5.08h-1.924l-3.131-4.948h-1.895v4.948H854V454.304z M855.791,459.411h1.867
			c1.579,0,3.027-0.078,3.027-1.896c0-1.526-1.314-1.763-2.526-1.763h-2.368V459.411z"/>
	</g>
</g>
</svg>
