<svg width="1086" height="315" viewBox="0 0 1086 315" fill="none" xmlns="http://www.w3.org/2000/svg">
<circle cx="934.045" cy="151.003" r="135.5" transform="rotate(7 934.045 151.003)" fill="#EEEEEE"/>
<path d="M925.838 186.337C927.531 188.963 928.192 190.958 927.823 192.324C926.984 194.236 925.09 195.716 922.14 196.764C919.214 197.614 916.164 197.844 912.988 197.454C903.658 196.308 896.295 193.087 890.901 187.79C885.729 182.319 883.594 175.911 884.496 168.566C884.837 165.787 885.551 163.255 886.637 160.971C889.204 154.838 893.212 150.091 898.662 146.73C904.336 143.195 912.488 139.158 923.121 134.62C934.571 129.981 943.48 125.534 949.846 121.278C956.212 117.022 960.974 111.058 964.133 103.386C965.07 100.68 965.684 98.1356 965.977 95.7535C966.805 89.0042 965.156 83.5627 961.029 79.4289C956.902 75.2951 952.258 72.9114 947.097 72.2777C941.539 71.5952 936.578 71.7921 932.214 72.8683C933.691 78.8932 934.039 85.0818 933.259 91.4341C932.894 94.4117 932.267 97.055 931.379 99.364C928.269 106.639 923.58 112.008 917.311 115.47C911.043 118.931 903.442 120.114 894.509 119.017C883.789 117.701 875.508 113.762 869.664 107.201C863.844 100.442 861.495 92.4961 862.616 83.3647C863.006 80.1885 863.781 77.1604 864.941 74.2802C869.478 61.9413 879.506 53.2989 895.024 48.3533C910.766 43.2335 929.951 42.0629 952.581 44.8415C971.837 47.2058 988.332 52.3545 1002.07 60.2876C1015.8 68.2207 1025.91 77.8237 1032.38 89.0968C1038.88 100.171 1041.41 111.565 1039.97 123.277C1039.54 126.85 1038.55 130.759 1037.02 135.004C1033.45 144.439 1028.31 151.768 1021.63 156.992C1015.16 162.042 1006.03 165.858 994.229 168.438C982.65 170.845 966.727 172.517 946.462 173.454C938.748 173.918 933.428 174.574 930.503 175.424C927.577 176.274 925.596 177.643 924.558 179.53L924.114 180.685C923.968 181.876 924.543 183.76 925.838 186.337ZM899.641 202.767C907.581 203.742 913.951 206.841 918.75 212.065C923.573 217.09 925.583 222.878 924.779 229.429C924.392 234.218 922.43 238.712 918.892 242.912C915.552 247.137 911.119 250.421 905.592 252.765C900.089 254.91 894.162 255.593 887.81 254.813C879.671 253.814 873.202 250.702 868.403 245.478C863.826 240.08 861.952 234.007 862.781 227.257C863.342 222.692 865.28 218.396 868.595 214.37C872.109 210.368 876.518 207.283 881.822 205.113C887.349 202.769 893.288 201.987 899.641 202.767Z" fill="#FBD85D"/>
<path d="M550 102.385C550 107.185 548.867 111.385 546.6 114.985C544.333 118.452 541.467 121.118 538 122.985C534.667 124.718 531.4 125.585 528.2 125.585C525.133 125.585 522.2 124.852 519.4 123.385C516.733 121.785 515 119.985 514.2 117.985L465.6 199.185C461.867 205.452 458.467 209.918 455.4 212.585C452.467 215.118 449.067 216.385 445.2 216.385C436.267 216.385 431.2 210.652 430 199.185L423.6 140.385L383.2 199.185C378.533 205.985 374.733 210.585 371.8 212.985C369 215.252 365.733 216.385 362 216.385C353.867 216.385 348.933 209.985 347.2 197.185L334.4 106.785C334 104.118 333.2 101.985 332 100.385C330.933 98.7851 329.533 97.2517 327.8 95.7851C326.6 94.7184 325.733 93.8517 325.2 93.1851C324.667 92.3851 324.4 91.5184 324.4 90.5851C323.733 85.6517 326.667 83.1851 333.2 83.1851H383C386.067 83.1851 388.333 83.8517 389.8 85.1851C391.4 86.3851 392.133 88.0517 392 90.1851C392 91.2517 391.667 92.3184 391 93.3851C390.467 94.3184 389.867 95.1851 389.2 95.9851C387.733 97.5851 386.667 99.1184 386 100.585C385.333 102.052 385.133 103.985 385.4 106.385L390.6 154.585L420.6 111.585L420 106.785C419.733 104.252 419.067 102.185 418 100.585C416.933 98.9851 415.467 97.4517 413.6 95.9851C412.267 94.7851 411.333 93.8517 410.8 93.1851C410.267 92.3851 410 91.5184 410 90.5851C409.333 85.6517 412.267 83.1851 418.8 83.1851H468.8C471.867 83.1851 474.2 83.8517 475.8 85.1851C477.4 86.3851 478.133 88.0517 478 90.1851C478 91.9184 477.067 93.8517 475.2 95.9851C473.867 97.5851 472.867 99.1184 472.2 100.585C471.533 102.052 471.267 103.985 471.4 106.385L473.8 149.985L500.8 102.785C505.2 95.1851 509.467 89.9184 513.6 86.9851C517.733 83.9184 523.133 82.3851 529.8 82.3851C535.8 82.3851 540.667 84.1851 544.4 87.7851C548.133 91.3851 550 96.2517 550 102.385Z" fill="#D74EDA"/>
<path d="M702.511 83.1851C705.311 83.1851 707.444 83.6517 708.911 84.5851C710.511 85.5184 711.311 86.7184 711.311 88.1851C711.311 88.8517 711.111 89.7184 710.711 90.7851C710.311 91.7184 709.711 92.5851 708.911 93.3851C708.244 94.0517 707.578 94.5851 706.911 94.9851C706.378 95.2517 705.978 95.5184 705.711 95.7851C703.578 96.9851 701.844 98.3184 700.511 99.7851C699.178 101.252 698.044 103.518 697.111 106.585L672.511 192.785C671.978 194.518 671.711 196.185 671.711 197.785C671.711 199.385 671.911 200.652 672.311 201.585C672.844 202.518 673.578 203.718 674.511 205.185C674.644 205.318 674.978 205.852 675.511 206.785C676.178 207.585 676.511 208.452 676.511 209.385C676.511 209.652 676.378 210.318 676.111 211.385C675.444 213.252 674.178 214.585 672.311 215.385C670.444 216.052 667.644 216.385 663.911 216.385H616.911C614.111 216.385 611.911 215.918 610.311 214.985C608.844 214.052 608.111 212.785 608.111 211.185C608.111 210.385 608.311 209.518 608.711 208.585C609.244 207.518 609.978 206.652 610.911 205.985C611.844 205.185 612.778 204.518 613.711 203.985C615.844 202.785 617.578 201.452 618.911 199.985C620.244 198.385 621.378 195.985 622.311 192.785L631.911 159.385H596.511L586.911 192.785C586.378 194.518 586.111 196.185 586.111 197.785C586.111 199.385 586.311 200.652 586.711 201.585C587.244 202.518 587.978 203.718 588.911 205.185C589.044 205.318 589.378 205.852 589.911 206.785C590.578 207.585 590.911 208.452 590.911 209.385C590.911 209.652 590.778 210.318 590.511 211.385C589.844 213.252 588.578 214.585 586.711 215.385C584.844 216.052 582.044 216.385 578.311 216.385H531.311C528.511 216.385 526.378 215.918 524.911 214.985C523.311 214.052 522.511 212.785 522.511 211.185C522.511 210.385 522.711 209.518 523.111 208.585C523.644 207.518 524.378 206.652 525.311 205.985C526.244 205.185 527.178 204.518 528.111 203.985C530.244 202.785 531.978 201.452 533.311 199.985C534.644 198.385 535.778 195.985 536.711 192.785L561.311 106.585C561.844 104.852 562.111 103.185 562.111 101.585C562.111 100.118 561.844 98.9184 561.311 97.9851C560.911 96.9184 560.311 95.7184 559.511 94.3851C558.978 93.7184 558.511 93.0517 558.111 92.3851C557.711 91.5851 557.511 90.7851 557.511 89.9851C557.511 89.7184 557.644 89.0517 557.911 87.9851C558.444 86.2517 559.644 85.0517 561.511 84.3851C563.378 83.5851 566.178 83.1851 569.911 83.1851H616.911C619.711 83.1851 621.844 83.6517 623.311 84.5851C624.911 85.5184 625.711 86.7184 625.711 88.1851C625.711 88.8517 625.511 89.7184 625.111 90.7851C624.711 91.7184 624.111 92.5851 623.311 93.3851C622.644 94.0517 621.978 94.5851 621.311 94.9851C620.778 95.2517 620.378 95.5184 620.111 95.7851C617.978 96.9851 616.244 98.3184 614.911 99.7851C613.578 101.252 612.444 103.518 611.511 106.585L602.111 139.385H637.511L646.911 106.585C647.444 104.852 647.711 103.185 647.711 101.585C647.711 100.118 647.444 98.9184 646.911 97.9851C646.511 96.9184 645.911 95.7184 645.111 94.3851C644.578 93.7184 644.111 93.0517 643.711 92.3851C643.311 91.5851 643.111 90.7851 643.111 89.9851C643.111 89.7184 643.244 89.0517 643.511 87.9851C644.044 86.2517 645.244 85.0517 647.111 84.3851C648.978 83.5851 651.778 83.1851 655.511 83.1851H702.511Z" fill="#D74EDA"/>
<path d="M791.908 80.1851C808.708 80.1851 821.841 84.1851 831.308 92.1851C840.774 100.052 845.508 111.452 845.508 126.385C845.508 133.452 844.441 141.052 842.308 149.185C838.308 164.118 832.108 176.785 823.708 187.185C815.308 197.585 805.308 205.452 793.708 210.785C782.108 216.118 769.508 218.785 755.908 218.785C739.241 218.785 726.174 214.852 716.708 206.985C707.241 198.985 702.508 187.518 702.508 172.585C702.508 165.785 703.641 157.985 705.908 149.185C709.774 134.385 715.841 121.852 724.108 111.585C732.508 101.185 742.441 93.3851 753.908 88.1851C765.508 82.8517 778.174 80.1851 791.908 80.1851ZM788.308 99.7851C784.308 99.7851 780.708 101.385 777.508 104.585C774.308 107.785 771.108 113.052 767.908 120.385C764.841 127.585 761.508 137.652 757.908 150.585C752.574 169.252 749.908 182.118 749.908 189.185C749.908 193.318 750.641 196.318 752.108 198.185C753.574 200.052 755.908 200.985 759.108 200.985C763.108 200.985 766.708 199.385 769.908 196.185C773.108 192.852 776.241 187.585 779.308 180.385C782.374 173.185 785.774 163.252 789.508 150.585C794.708 132.185 797.308 119.252 797.308 111.785C797.308 107.518 796.574 104.452 795.108 102.585C793.641 100.718 791.374 99.7851 788.308 99.7851Z" fill="#D74EDA"/>
<path fill-rule="evenodd" clip-rule="evenodd" d="M559.511 94.3851C560.311 95.7184 560.911 96.9184 561.311 97.9851C561.844 98.9184 562.111 100.118 562.111 101.585C562.111 103.185 561.844 104.852 561.311 106.585L536.711 192.785C535.778 195.985 534.644 198.385 533.311 199.985C531.978 201.452 530.244 202.785 528.111 203.985C527.178 204.518 526.244 205.185 525.311 205.985C524.378 206.652 523.644 207.518 523.111 208.585C522.711 209.518 522.511 210.385 522.511 211.185C522.511 212.785 523.311 214.052 524.911 214.985C526.378 215.918 528.511 216.385 531.311 216.385H578.311C582.044 216.385 584.844 216.052 586.711 215.385C588.578 214.585 589.844 213.252 590.511 211.385C590.778 210.318 590.911 209.652 590.911 209.385C590.911 208.452 590.578 207.585 589.911 206.785C589.378 205.852 589.044 205.318 588.911 205.185C587.978 203.718 587.244 202.518 586.711 201.585C586.311 200.652 586.111 199.385 586.111 197.785C586.111 196.185 586.378 194.518 586.911 192.785L596.511 159.385H631.911L622.311 192.785C621.378 195.985 620.244 198.385 618.911 199.985C617.578 201.452 615.844 202.785 613.711 203.985C612.778 204.518 611.844 205.185 610.911 205.985C609.978 206.652 609.244 207.518 608.711 208.585C608.311 209.518 608.111 210.385 608.111 211.185C608.111 212.785 608.844 214.052 610.311 214.985C611.911 215.918 614.111 216.385 616.911 216.385H663.911C667.644 216.385 670.444 216.052 672.311 215.385C674.178 214.585 675.444 213.252 676.111 211.385C676.378 210.318 676.511 209.652 676.511 209.385C676.511 208.452 676.178 207.585 675.511 206.785C674.978 205.852 674.644 205.318 674.511 205.185C673.578 203.718 672.844 202.518 672.311 201.585C671.911 200.652 671.711 199.385 671.711 197.785C671.711 196.185 671.978 194.518 672.511 192.785L697.111 106.585C698.044 103.518 699.178 101.252 700.511 99.7851C701.844 98.3184 703.578 96.9851 705.711 95.7851C705.978 95.5184 706.378 95.2517 706.911 94.9851C707.578 94.5851 708.244 94.0517 708.911 93.3851C709.711 92.5851 710.311 91.7184 710.711 90.7851C711.111 89.7184 711.311 88.8517 711.311 88.1851C711.311 86.7184 710.511 85.5184 708.911 84.5851C707.444 83.6517 705.311 83.1851 702.511 83.1851H655.511C651.778 83.1851 648.978 83.5851 647.111 84.3851C645.244 85.0517 644.044 86.2517 643.511 87.9851C643.244 89.0517 643.111 89.7184 643.111 89.9851C643.111 90.7851 643.311 91.5851 643.711 92.3851C644.111 93.0517 644.578 93.7184 645.111 94.3851C645.911 95.7184 646.511 96.9184 646.911 97.9851C647.444 98.9184 647.711 100.118 647.711 101.585C647.711 103.185 647.444 104.852 646.911 106.585L637.511 139.385H602.111L611.511 106.585C612.444 103.518 613.578 101.252 614.911 99.7851C616.244 98.3184 617.978 96.9851 620.111 95.7851C620.378 95.5184 620.778 95.2517 621.311 94.9851C621.978 94.5851 622.644 94.0517 623.311 93.3851C624.111 92.5851 624.711 91.7184 625.111 90.7851C625.511 89.7184 625.711 88.8517 625.711 88.1851C625.711 86.7184 624.911 85.5184 623.311 84.5851C621.844 83.6517 619.711 83.1851 616.911 83.1851H569.911C566.178 83.1851 563.378 83.5851 561.511 84.3851C559.644 85.0517 558.444 86.2517 557.911 87.9851C557.644 89.0517 557.511 89.7184 557.511 89.9851C557.511 90.7851 557.711 91.5851 558.111 92.3851C558.511 93.0517 558.978 93.7184 559.511 94.3851ZM558.586 76.9371C561.921 75.5664 565.94 75.1851 569.911 75.1851H616.911C620.343 75.1851 624.189 75.7132 627.473 77.7522C630.731 79.6979 633.711 83.1687 633.711 88.1851C633.711 90.2577 633.134 92.1732 632.602 93.594L632.537 93.7668L632.464 93.9364C631.62 95.9062 630.405 97.6042 628.968 99.0419C627.933 100.077 626.758 101.046 625.427 101.845L625.271 101.938L624.991 102.219L624.033 102.758C622.478 103.632 621.471 104.462 620.83 105.166C620.639 105.377 619.952 106.346 619.183 108.855L612.726 131.385H631.482L639.242 104.307L639.265 104.232C639.594 103.161 639.711 102.289 639.711 101.585C639.711 101.557 639.711 101.532 639.71 101.508L639.646 101.396L639.42 100.794C639.263 100.374 638.974 99.7483 638.483 98.8962C637.894 98.1258 637.347 97.3278 636.851 96.501L636.693 96.2376L636.556 95.9628C635.666 94.1845 635.111 92.1672 635.111 89.9851C635.111 88.9897 635.297 88.0627 635.361 87.7407L635.366 87.716C635.468 87.2065 635.602 86.6362 635.75 86.0448L635.802 85.837L635.865 85.6324C637.19 81.3252 640.307 78.3924 644.186 76.9369C647.521 75.5663 651.541 75.1851 655.511 75.1851H702.511C705.943 75.1851 709.789 75.7132 713.073 77.752C716.331 79.6976 719.311 83.1684 719.311 88.1851C719.311 90.2577 718.734 92.1732 718.202 93.5941L718.137 93.7668L718.064 93.9364C717.22 95.9062 716.005 97.6043 714.568 99.0419C713.533 100.077 712.358 101.046 711.027 101.845L710.871 101.938L710.591 102.219L709.633 102.758C708.078 103.632 707.071 104.462 706.43 105.166C706.239 105.377 705.553 106.345 704.784 108.851L680.181 195.059L680.157 195.138C679.828 196.209 679.711 197.081 679.711 197.785C679.711 198.061 679.721 198.273 679.734 198.43C680.091 199.026 680.533 199.742 681.066 200.584C681.373 201 681.577 201.335 681.633 201.425C681.638 201.434 681.642 201.441 681.645 201.445C681.811 201.711 681.99 202.01 682.176 202.329C683.599 204.28 684.511 206.678 684.511 209.385C684.511 210.381 684.325 211.308 684.26 211.63L684.256 211.654C684.154 212.164 684.02 212.734 683.872 213.325L683.777 213.706L683.645 214.076C682.209 218.096 679.318 221.086 675.462 222.738L675.235 222.836L675.002 222.919C671.814 224.058 667.9 224.385 663.911 224.385H616.911C613.364 224.385 609.575 223.817 606.28 221.895L606.146 221.817L606.016 221.734C602.48 219.484 600.111 215.792 600.111 211.185C600.111 209.052 600.642 207.105 601.358 205.434L601.45 205.218L601.556 205.007C602.591 202.936 604.059 201.13 605.944 199.708C607.138 198.706 608.402 197.805 609.742 197.039L609.765 197.026L609.789 197.012C611.235 196.199 612.208 195.424 612.852 194.753C613.215 194.264 613.901 193.043 614.625 190.564C614.627 190.558 614.629 190.551 614.631 190.545L621.288 167.385H602.535L594.579 195.067L594.557 195.138C594.228 196.209 594.111 197.081 594.111 197.785C594.111 198.061 594.121 198.273 594.134 198.43C594.491 199.026 594.933 199.742 595.466 200.584C595.773 201 595.977 201.335 596.033 201.425C596.038 201.434 596.042 201.441 596.045 201.445C596.211 201.711 596.39 202.01 596.576 202.329C597.999 204.28 598.911 206.678 598.911 209.385C598.911 210.381 598.725 211.308 598.66 211.63L598.656 211.654C598.554 212.164 598.42 212.734 598.272 213.325L598.177 213.706L598.045 214.076C596.609 218.096 593.718 221.086 589.862 222.738L589.635 222.836L589.402 222.919C586.214 224.058 582.3 224.385 578.311 224.385H531.311C527.879 224.385 524.032 223.857 520.748 221.818C517.217 219.708 514.511 216.067 514.511 211.185C514.511 209.052 515.042 207.105 515.758 205.434L515.85 205.218L515.956 205.007C516.991 202.936 518.459 201.13 520.344 199.708C521.538 198.706 522.802 197.805 524.142 197.039L524.165 197.026L524.189 197.012C525.635 196.199 526.608 195.424 527.252 194.753C527.615 194.265 528.3 193.044 529.024 190.568C529.026 190.56 529.029 190.553 529.031 190.545L547.407 126.154C545.698 127.638 543.826 128.934 541.793 130.029L541.742 130.056L541.691 130.083C537.416 132.306 532.891 133.585 528.2 133.585C523.903 133.585 519.795 132.569 515.964 130.615L472.473 203.28C472.472 203.281 472.472 203.282 472.471 203.283C468.591 209.795 464.675 215.122 460.649 218.622L460.639 218.631L460.629 218.64C456.246 222.425 450.992 224.385 445.2 224.385C438.863 224.385 433.017 222.261 428.705 217.383C424.642 212.785 422.737 206.625 422.045 200.034C422.045 200.028 422.044 200.023 422.043 200.018L417.981 162.691L389.796 203.712C389.795 203.713 389.794 203.714 389.794 203.715C385.081 210.583 380.744 216.004 376.866 219.177L376.85 219.19L376.834 219.203C372.554 222.667 367.494 224.385 362 224.385C355.471 224.385 349.857 221.649 345.864 216.469C342.18 211.691 340.23 205.312 339.276 198.284L326.484 107.943C326.215 106.171 325.775 105.418 325.6 105.185L325.467 105.007L325.344 104.823C324.76 103.947 323.894 102.96 322.632 101.892L322.558 101.829L322.485 101.764C321.187 100.61 319.916 99.386 318.953 98.1826L318.736 97.9115L318.544 97.6227C317.269 95.7103 316.521 93.5161 316.414 91.1747C315.965 87.0215 316.922 82.3003 320.951 78.9122C324.574 75.8653 329.263 75.1851 333.2 75.1851H383C386.902 75.1851 391.372 75.9809 394.894 79.0116C398.549 81.8992 400.206 86.0502 399.997 90.4486C399.945 93.095 399.101 95.4692 397.874 97.4797C397.133 98.7604 396.291 99.9722 395.346 101.107L395.225 101.252L395.097 101.391C394.086 102.494 393.572 103.3 393.33 103.797C393.323 103.831 393.315 103.884 393.308 103.958C393.278 104.24 393.266 104.738 393.351 105.502L393.352 105.514L396.262 132.487L412.281 109.528L412.052 107.7L412.044 107.623C411.871 105.975 411.497 105.253 411.344 105.023C410.842 104.27 410.008 103.337 408.657 102.276L408.447 102.11L408.248 101.931C406.863 100.685 405.518 99.389 404.553 98.1826L404.336 97.9115L404.144 97.6227C402.869 95.7103 402.121 93.5161 402.014 91.1747C401.565 87.0215 402.522 82.3003 406.551 78.9122C410.174 75.8653 414.863 75.1851 418.8 75.1851H468.8C472.821 75.1851 477.209 76.0292 480.764 78.9095C484.509 81.801 486.209 85.9987 485.997 90.4495C485.908 94.8593 483.608 98.504 481.294 101.169C480.34 102.322 479.794 103.221 479.497 103.865C479.487 103.897 479.455 104.011 479.425 104.228C479.376 104.585 479.343 105.142 479.388 105.941L479.388 105.945L480.3 122.511L493.866 98.7948L493.877 98.7768C498.471 90.8408 503.41 84.4309 508.901 80.5098C514.76 76.1906 521.955 74.3851 529.8 74.3851C537.522 74.3851 544.495 76.7627 549.953 82.0263L544.4 87.7851C540.667 84.1851 535.8 82.3851 529.8 82.3851C523.133 82.3851 517.733 83.9184 513.6 86.9851C509.467 89.9184 505.2 95.1851 500.8 102.785L473.8 149.985L471.4 106.385C471.267 103.985 471.533 102.052 472.2 100.585C472.867 99.1184 473.867 97.5851 475.2 95.9851C477.067 93.8517 478 91.9184 478 90.1851C478.133 88.0517 477.4 86.3851 475.8 85.1851C474.2 83.8517 471.867 83.1851 468.8 83.1851H418.8C412.267 83.1851 409.333 85.6517 410 90.5851C410 91.5184 410.267 92.3851 410.8 93.1851C411.333 93.8517 412.267 94.7851 413.6 95.9851C415.467 97.4517 416.933 98.9851 418 100.585C419.067 102.185 419.733 104.252 420 106.785L420.6 111.585L390.6 154.585L385.4 106.385C385.133 103.985 385.333 102.052 386 100.585C386.667 99.1184 387.733 97.5851 389.2 95.9851C389.867 95.1851 390.467 94.3184 391 93.3851C391.667 92.3184 392 91.2517 392 90.1851C392.133 88.0517 391.4 86.3851 389.8 85.1851C388.333 83.8517 386.067 83.1851 383 83.1851H333.2C326.667 83.1851 323.733 85.6517 324.4 90.5851C324.4 91.5184 324.667 92.3851 325.2 93.1851C325.733 93.8517 326.6 94.7184 327.8 95.7851C329.533 97.2517 330.933 98.7851 332 100.385C333.2 101.985 334 104.118 334.4 106.785L347.2 197.185C348.933 209.985 353.867 216.385 362 216.385C365.733 216.385 369 215.252 371.8 212.985C374.733 210.585 378.533 205.985 383.2 199.185L423.6 140.385L430 199.185C431.2 210.652 436.267 216.385 445.2 216.385C449.067 216.385 452.467 215.118 455.4 212.585C458.467 209.918 461.867 205.452 465.6 199.185L514.2 117.985C515 119.985 516.733 121.785 519.4 123.385C519.628 123.504 519.856 123.619 520.086 123.728C522.678 124.966 525.383 125.585 528.2 125.585C531.4 125.585 534.667 124.718 538 122.985C541.467 121.118 544.333 118.452 546.6 114.985C548.867 111.385 550 107.185 550 102.385C550 96.2517 548.133 91.3851 544.4 87.7851L549.953 82.0263C550.391 82.4483 550.809 82.8809 551.209 83.3235C552.804 80.2627 555.445 78.1156 558.586 76.9371ZM850.041 151.235L850.035 151.255C845.791 167.1 839.135 180.816 829.931 192.212C820.794 203.525 809.823 212.181 797.05 218.054C784.334 223.9 770.585 226.785 755.908 226.785C738.035 226.785 722.936 222.562 711.595 213.138L711.569 213.117L711.544 213.095C699.91 203.264 694.508 189.343 694.508 172.585C694.508 164.93 695.779 156.438 698.161 147.19L698.164 147.176L698.168 147.163C702.275 131.443 708.796 117.845 717.877 106.568L717.884 106.558C727.014 95.2547 737.921 86.654 750.586 80.9071C763.307 75.0624 777.117 72.1851 791.908 72.1851C809.911 72.1851 825.095 76.4741 836.445 86.0526C848.114 95.7619 853.508 109.643 853.508 126.385C853.508 134.252 852.321 142.54 850.046 151.215L850.041 151.235ZM831.308 92.1851C821.841 84.1851 808.708 80.1851 791.908 80.1851C778.174 80.1851 765.508 82.8517 753.908 88.1851C742.441 93.3851 732.508 101.185 724.108 111.585C715.841 121.852 709.774 134.385 705.908 149.185C703.641 157.985 702.508 165.785 702.508 172.585C702.508 187.518 707.241 198.985 716.708 206.985C726.174 214.852 739.241 218.785 755.908 218.785C769.508 218.785 782.108 216.118 793.708 210.785C805.308 205.452 815.308 197.585 823.708 187.185C832.108 176.785 838.308 164.118 842.308 149.185C844.441 141.052 845.508 133.452 845.508 126.385C845.508 111.452 840.774 100.052 831.308 92.1851ZM765.607 152.757L765.6 152.783C760.233 171.567 757.908 183.4 757.908 189.185C757.908 190.812 758.056 191.926 758.229 192.635C758.258 192.753 758.286 192.853 758.312 192.938C758.503 192.964 758.765 192.985 759.108 192.985C760.685 192.985 762.304 192.453 764.194 190.585C766.403 188.259 769.06 184.031 771.948 177.25C774.835 170.47 778.13 160.887 781.821 148.366C787.029 129.933 789.308 118.001 789.308 111.785C789.308 110.074 789.157 108.899 788.977 108.146C788.946 108.016 788.916 107.906 788.888 107.814C788.743 107.797 788.552 107.785 788.308 107.785C786.715 107.785 785.079 108.327 783.165 110.242C781.022 112.385 778.308 116.561 775.255 123.551C772.392 130.28 769.172 139.952 765.615 152.73L765.607 152.757ZM767.908 120.385C771.108 113.052 774.308 107.785 777.508 104.585C780.708 101.385 784.308 99.7851 788.308 99.7851C791.374 99.7851 793.641 100.718 795.108 102.585C796.574 104.452 797.308 107.518 797.308 111.785C797.308 119.252 794.708 132.185 789.508 150.585C785.774 163.252 782.375 173.185 779.308 180.385C776.241 187.585 773.108 192.852 769.908 196.185C766.708 199.385 763.108 200.985 759.108 200.985C755.908 200.985 753.574 200.052 752.108 198.185C750.641 196.318 749.908 193.318 749.908 189.185C749.908 182.118 752.574 169.252 757.908 150.585C761.508 137.652 764.841 127.585 767.908 120.385Z" fill="white"/>
<path d="M32.6 188.985C28.1333 188.985 24.0666 188.018 20.4 186.085C16.8 184.085 13.9333 181.185 11.8 177.385C9.66664 173.518 8.59998 168.918 8.59998 163.585C8.59998 159.518 9.29998 154.985 10.7 149.985C13.7666 139.318 18.5666 131.785 25.1 127.385C31.7 122.985 38.7333 120.785 46.2 120.785C53 120.785 59.1333 123.252 64.6 128.185L67.6 125.285C69.2666 123.885 70.7 122.918 71.9 122.385C73.1 121.852 74.5 121.585 76.1 121.585C77.8333 121.585 79.2333 122.018 80.3 122.885C81.3666 123.685 81.9 124.785 81.9 126.185C81.9 126.718 81.8 127.352 81.6 128.085L78 140.685C77.3333 142.818 76.5333 144.318 75.6 145.185C74.7333 146.052 73.5333 146.485 72 146.485C70.4 146.485 68.9666 146.085 67.7 145.285C66.5 144.485 65.1 143.052 63.5 140.985C61.3666 138.185 59.4666 136.218 57.8 135.085C56.2 133.885 54.4333 133.285 52.5 133.285C49.5 133.285 46.6333 134.818 43.9 137.885C41.2333 140.885 38.9 145.918 36.9 152.985C35.6333 157.585 35 161.552 35 164.885C35 168.418 35.6666 171.118 37 172.985C38.4 174.785 40.3333 175.685 42.8 175.685C44.9333 175.685 46.5666 175.185 47.7 174.185C48.9 173.185 49.8333 171.452 50.5 168.985L51.2 166.485C51.5333 165.152 51.7 164.252 51.7 163.785C51.7 162.985 51.5 162.418 51.1 162.085C50.7666 161.752 50.1666 161.385 49.3 160.985L45.8 159.685C44.2666 159.085 43.5 157.985 43.5 156.385C43.5 155.918 43.5333 155.552 43.6 155.285C43.8666 154.418 44.3333 153.785 45 153.385C45.7333 152.985 46.8333 152.785 48.3 152.785L78.5 152.885C80.7 152.885 81.8 153.585 81.8 154.985C81.8 155.252 81.7333 155.652 81.6 156.185C81.3333 157.185 80.9 157.985 80.3 158.585C79.7 159.185 78.8333 159.785 77.7 160.385L75.1 161.885C74.4333 162.285 73.9333 162.685 73.6 163.085C73.2667 163.418 73.0333 163.852 72.9 164.385L67.6 182.885C66.9333 185.085 66.1666 186.552 65.3 187.285C64.5 188.018 63.5 188.385 62.3 188.385H58.1C56.5 188.385 55.1666 188.052 54.1 187.385C53.1 186.718 52.2666 185.418 51.6 183.485L50.6 180.585C45.8 186.185 39.8 188.985 32.6 188.985Z" fill="#379D00"/>
<path d="M139.784 135.285C141.05 130.685 142.817 127.218 145.084 124.885C147.417 122.552 150.617 121.385 154.684 121.385C157.884 121.385 160.45 122.418 162.384 124.485C164.317 126.485 165.284 128.985 165.284 131.985C165.284 132.985 165.117 134.152 164.784 135.485C164.05 138.418 162.75 140.552 160.884 141.885C159.017 143.152 156.984 143.785 154.784 143.785C153.65 143.785 152.617 143.718 151.684 143.585C150.817 143.385 149.984 143.152 149.184 142.885L143.284 164.585C141.15 172.518 137.584 178.585 132.584 182.785C127.584 186.918 120.784 188.985 112.184 188.985C104.317 188.985 98.1836 187.485 93.7836 184.485C89.4502 181.485 87.2836 176.818 87.2836 170.485C87.2836 167.418 87.8169 164.052 88.8836 160.385L96.4836 133.485C96.7502 132.618 96.8836 131.785 96.8836 130.985C96.8836 130.185 96.7502 129.552 96.4836 129.085C96.2836 128.552 95.9836 127.952 95.5836 127.285C94.9836 126.418 94.6836 125.718 94.6836 125.185C94.6836 124.918 94.7502 124.585 94.8836 124.185C95.1502 123.318 95.7502 122.718 96.6836 122.385C97.6169 121.985 98.9836 121.785 100.784 121.785H124.284C127.15 121.785 128.584 122.652 128.584 124.385C128.584 124.785 128.55 125.118 128.484 125.385C128.284 125.985 127.984 126.485 127.584 126.885C127.25 127.218 126.717 127.618 125.984 128.085C124.917 128.685 124.05 129.352 123.384 130.085C122.717 130.818 122.15 131.952 121.684 133.485L112.984 164.085C112.384 166.352 112.084 168.285 112.084 169.885C112.084 174.352 114.484 176.585 119.284 176.585C122.217 176.585 124.65 175.652 126.584 173.785C128.584 171.852 130.25 168.585 131.584 163.985L139.784 135.285Z" fill="#379D00"/>
<path d="M222.792 121.785C225.259 121.785 227.159 122.318 228.492 123.385C229.892 124.452 230.592 125.918 230.592 127.785C230.592 128.718 230.459 129.618 230.192 130.485L227.592 139.785C227.125 141.585 226.425 142.852 225.492 143.585C224.625 144.252 223.359 144.585 221.692 144.585C220.092 144.585 218.825 144.252 217.892 143.585C217.025 142.852 216.359 141.685 215.892 140.085L214.292 134.385C213.959 133.185 213.559 132.385 213.092 131.985C212.625 131.585 211.725 131.385 210.392 131.385H199.892L194.892 149.185H199.292C199.759 149.185 200.392 148.852 201.192 148.185L204.592 145.185C205.592 144.318 206.459 143.685 207.192 143.285C207.925 142.885 208.825 142.685 209.892 142.685C211.092 142.685 212.059 143.018 212.792 143.685C213.592 144.285 213.992 145.085 213.992 146.085C213.992 146.352 213.925 146.752 213.792 147.285L209.692 161.185C209.292 162.652 208.592 163.752 207.592 164.485C206.659 165.152 205.625 165.485 204.492 165.485C202.625 165.485 201.225 164.518 200.292 162.585L198.592 159.085C198.125 158.085 197.392 157.585 196.392 157.585H192.492L186.592 178.785H195.392C196.659 178.785 197.759 178.552 198.692 178.085C199.692 177.552 200.759 176.652 201.892 175.385L207.892 168.785C208.959 167.652 209.959 166.852 210.892 166.385C211.892 165.852 213.092 165.585 214.492 165.585C215.959 165.585 217.159 165.918 218.092 166.585C219.025 167.252 219.492 168.252 219.492 169.585C219.492 170.118 219.392 170.752 219.192 171.485L216.292 181.585C215.559 184.118 214.492 185.885 213.092 186.885C211.692 187.885 209.659 188.385 206.992 188.385H159.292C157.892 188.385 156.825 188.152 156.092 187.685C155.292 187.218 154.892 186.585 154.892 185.785C154.892 185.385 154.992 184.952 155.192 184.485C155.459 183.752 155.892 183.185 156.492 182.785C157.092 182.385 157.459 182.152 157.592 182.085C158.659 181.418 159.525 180.752 160.192 180.085C160.859 179.352 161.425 178.185 161.892 176.585L174.192 133.485C174.459 132.618 174.592 131.818 174.592 131.085C174.592 130.285 174.459 129.618 174.192 129.085C173.992 128.552 173.659 127.985 173.192 127.385C172.592 126.518 172.292 125.818 172.292 125.285C172.292 125.085 172.359 124.718 172.492 124.185C172.759 123.318 173.359 122.718 174.292 122.385C175.225 121.985 176.592 121.785 178.392 121.785H222.792Z" fill="#379D00"/>
<path d="M261.982 121.185C265.715 121.185 269.149 121.652 272.282 122.585C275.482 123.452 278.715 124.852 281.982 126.785L284.282 124.885C285.882 123.618 287.182 122.752 288.182 122.285C289.249 121.818 290.449 121.585 291.782 121.585C293.382 121.585 294.649 121.952 295.582 122.685C296.515 123.352 296.982 124.352 296.982 125.685C296.982 126.218 296.882 126.785 296.682 127.385L292.482 141.185C292.015 142.785 291.415 143.918 290.682 144.585C290.015 145.252 288.982 145.585 287.582 145.585C286.115 145.585 284.815 145.152 283.682 144.285C282.615 143.352 280.915 141.485 278.582 138.685C276.249 136.018 274.115 134.152 272.182 133.085C270.315 131.952 268.382 131.385 266.382 131.385C264.915 131.385 263.682 131.885 262.682 132.885C261.682 133.818 261.182 134.985 261.182 136.385C261.182 137.985 261.982 139.485 263.582 140.885C265.182 142.218 267.682 143.918 271.082 145.985C274.549 148.052 277.415 149.918 279.682 151.585C281.949 153.252 283.882 155.318 285.482 157.785C287.082 160.252 287.882 163.085 287.882 166.285C287.882 168.352 287.549 170.418 286.882 172.485C285.282 177.818 282.182 181.885 277.582 184.685C272.982 187.418 267.615 188.785 261.482 188.785C256.882 188.785 253.015 188.252 249.882 187.185C246.749 186.118 243.549 184.318 240.282 181.785L236.682 184.785C235.015 186.185 233.649 187.152 232.582 187.685C231.515 188.152 230.315 188.385 228.982 188.385C227.449 188.385 226.215 188.018 225.282 187.285C224.415 186.552 223.982 185.552 223.982 184.285C223.982 183.618 224.115 182.918 224.382 182.185L229.282 167.285C229.815 165.552 230.549 164.318 231.482 163.585C232.415 162.852 233.615 162.485 235.082 162.485C236.615 162.485 237.982 163.018 239.182 164.085C240.449 165.152 242.082 167.085 244.082 169.885C246.215 172.952 248.182 175.085 249.982 176.285C251.849 177.485 254.049 178.085 256.582 178.085C258.382 178.085 259.749 177.818 260.682 177.285C261.682 176.685 262.382 175.752 262.782 174.485C262.915 174.152 262.982 173.652 262.982 172.985C262.982 171.385 262.215 169.918 260.682 168.585C259.149 167.252 256.782 165.652 253.582 163.785C250.182 161.718 247.415 159.885 245.282 158.285C243.149 156.618 241.282 154.552 239.682 152.085C238.149 149.618 237.382 146.718 237.382 143.385C237.382 141.052 237.749 138.752 238.482 136.485C239.882 131.885 242.749 128.185 247.082 125.385C251.415 122.585 256.382 121.185 261.982 121.185Z" fill="#379D00"/>
<path d="M330.927 121.185C334.661 121.185 338.094 121.652 341.227 122.585C344.427 123.452 347.661 124.852 350.927 126.785L353.227 124.885C354.827 123.618 356.127 122.752 357.127 122.285C358.194 121.818 359.394 121.585 360.727 121.585C362.327 121.585 363.594 121.952 364.527 122.685C365.461 123.352 365.927 124.352 365.927 125.685C365.927 126.218 365.827 126.785 365.627 127.385L361.427 141.185C360.961 142.785 360.361 143.918 359.627 144.585C358.961 145.252 357.927 145.585 356.527 145.585C355.061 145.585 353.761 145.152 352.627 144.285C351.561 143.352 349.861 141.485 347.527 138.685C345.194 136.018 343.061 134.152 341.127 133.085C339.261 131.952 337.327 131.385 335.327 131.385C333.861 131.385 332.627 131.885 331.627 132.885C330.627 133.818 330.127 134.985 330.127 136.385C330.127 137.985 330.927 139.485 332.527 140.885C334.127 142.218 336.627 143.918 340.027 145.985C343.494 148.052 346.361 149.918 348.627 151.585C350.894 153.252 352.827 155.318 354.427 157.785C356.027 160.252 356.827 163.085 356.827 166.285C356.827 168.352 356.494 170.418 355.827 172.485C354.227 177.818 351.127 181.885 346.527 184.685C341.927 187.418 336.561 188.785 330.427 188.785C325.827 188.785 321.961 188.252 318.827 187.185C315.694 186.118 312.494 184.318 309.227 181.785L305.627 184.785C303.961 186.185 302.594 187.152 301.527 187.685C300.461 188.152 299.261 188.385 297.927 188.385C296.394 188.385 295.161 188.018 294.227 187.285C293.361 186.552 292.927 185.552 292.927 184.285C292.927 183.618 293.061 182.918 293.327 182.185L298.227 167.285C298.761 165.552 299.494 164.318 300.427 163.585C301.361 162.852 302.561 162.485 304.027 162.485C305.561 162.485 306.927 163.018 308.127 164.085C309.394 165.152 311.027 167.085 313.027 169.885C315.161 172.952 317.127 175.085 318.927 176.285C320.794 177.485 322.994 178.085 325.527 178.085C327.327 178.085 328.694 177.818 329.627 177.285C330.627 176.685 331.327 175.752 331.727 174.485C331.861 174.152 331.927 173.652 331.927 172.985C331.927 171.385 331.161 169.918 329.627 168.585C328.094 167.252 325.727 165.652 322.527 163.785C319.127 161.718 316.361 159.885 314.227 158.285C312.094 156.618 310.227 154.552 308.627 152.085C307.094 149.618 306.327 146.718 306.327 143.385C306.327 141.052 306.694 138.752 307.427 136.485C308.827 131.885 311.694 128.185 316.027 125.385C320.361 122.585 325.327 121.185 330.927 121.185Z" fill="#379D00"/>
<path fill-rule="evenodd" clip-rule="evenodd" d="M16.5913 193.121L16.5148 193.078C11.543 190.316 7.63875 186.315 4.82411 181.301L4.80963 181.276L4.79535 181.25C1.88626 175.977 0.599976 169.991 0.599976 163.585C0.599976 158.62 1.45108 153.347 2.99626 147.828L3.00375 147.801L3.01142 147.775C6.38791 136.03 12.0063 126.558 20.6312 120.75L20.6467 120.739L20.6624 120.729C28.4904 115.51 37.0534 112.785 46.2 112.785C52.6986 112.785 58.6979 114.535 64.1012 117.844C65.5489 116.751 67.0761 115.775 68.6509 115.075C71.0716 113.999 73.6196 113.585 76.1 113.585C79.137 113.585 82.4197 114.353 85.2256 116.581C86.4162 117.497 87.3799 118.573 88.1161 119.761C89.3997 117.446 91.4414 115.822 93.7551 114.939C96.1154 113.982 98.6751 113.785 100.784 113.785H124.284C126.262 113.785 129.082 114.038 131.648 115.589C134.411 117.26 136.072 119.939 136.483 122.913C137.33 121.615 138.28 120.408 139.345 119.311L139.386 119.269L139.427 119.228C143.594 115.061 149.018 113.385 154.684 113.385C159.253 113.385 163.581 114.778 167.059 117.88C168.247 116.545 169.738 115.56 171.364 114.939C173.724 113.982 176.284 113.785 178.392 113.785H222.792C226.264 113.785 230.167 114.517 233.415 117.079C235.419 118.627 236.835 120.57 237.673 122.736C239.178 121.231 240.872 119.873 242.74 118.666C248.478 114.958 254.979 113.185 261.982 113.185C266.346 113.185 270.527 113.726 274.47 114.89C276.697 115.499 278.896 116.304 281.065 117.29C282.29 116.411 283.551 115.618 284.799 115.036L284.887 114.995L284.975 114.956C287.19 113.987 289.504 113.585 291.782 113.585C294.507 113.585 297.652 114.202 300.384 116.285C303.314 118.449 304.674 121.534 304.935 124.576C306.821 122.32 309.085 120.346 311.686 118.666C317.423 114.958 323.924 113.185 330.927 113.185C335.291 113.185 339.472 113.726 343.415 114.89C345.642 115.499 347.841 116.304 350.01 117.29C351.235 116.411 352.496 115.618 353.744 115.036L353.832 114.995L353.921 114.956C356.135 113.987 358.45 113.585 360.727 113.585C363.452 113.585 366.598 114.202 369.329 116.285C372.616 118.712 373.927 122.301 373.927 125.685C373.927 127.173 373.657 128.558 373.256 129.796L369.093 143.474C368.473 145.583 367.371 148.288 365.146 150.378C363.803 151.675 362.295 152.471 360.818 152.946C360.926 153.107 361.033 153.269 361.139 153.432C363.654 157.309 364.827 161.682 364.827 166.285C364.827 169.199 364.359 172.067 363.466 174.862C361.312 181.98 357.013 187.668 350.687 191.519L350.651 191.541L350.614 191.563C344.605 195.133 337.785 196.785 330.427 196.785C325.266 196.785 320.466 196.194 316.249 194.758C314.025 194.001 311.853 192.992 309.73 191.765C308.221 192.969 306.655 194.066 305.105 194.841L304.922 194.932L304.734 195.014C302.52 195.983 300.205 196.385 297.927 196.385C295.13 196.385 291.993 195.704 289.285 193.576L289.171 193.486L289.06 193.392C287.458 192.037 286.361 190.401 285.702 188.646C284.485 189.693 283.165 190.652 281.742 191.519L281.705 191.541L281.669 191.563C275.66 195.133 268.84 196.785 261.482 196.785C256.321 196.785 251.521 196.194 247.304 194.758C245.08 194.001 242.907 192.992 240.785 191.765C239.276 192.969 237.71 194.066 236.16 194.841L235.976 194.932L235.789 195.014C233.574 195.983 231.26 196.385 228.982 196.385C226.184 196.385 223.048 195.704 220.339 193.576L220.225 193.486L220.114 193.392C219.723 193.061 219.362 192.714 219.031 192.352C218.629 192.719 218.2 193.068 217.742 193.395C214.424 195.765 210.471 196.385 206.992 196.385H159.292C157.249 196.385 154.471 196.086 151.927 194.516C149.19 192.867 146.892 189.861 146.892 185.785C146.892 184.148 147.277 182.706 147.755 181.536C148.568 179.424 149.988 177.507 152.055 176.129L152.125 176.082C152.432 175.877 152.951 175.53 153.463 175.231C153.706 175.076 153.902 174.94 154.059 174.824C154.103 174.7 154.153 174.548 154.207 174.364C154.208 174.358 154.21 174.352 154.212 174.345L160.947 150.747C159.074 151.402 157.101 151.755 155.055 151.783L151.009 166.663C151.008 166.665 151.008 166.668 151.007 166.67C148.558 175.772 144.271 183.415 137.729 188.911L137.705 188.931L137.681 188.951C130.838 194.608 122.034 196.985 112.184 196.985C103.435 196.985 95.4997 195.338 89.2769 191.095L89.2533 191.079L89.2299 191.063C82.4644 186.379 79.441 179.221 79.2896 171.13L75.2738 185.147L75.2562 185.205C74.5293 187.604 73.2548 190.961 70.5964 193.281C68.1803 195.444 65.2281 196.385 62.3 196.385H58.1C55.4042 196.385 52.5017 195.82 49.86 194.169L49.7602 194.107L49.6624 194.042C49.1414 193.694 48.6633 193.315 48.2242 192.912C43.5931 195.598 38.3481 196.985 32.6 196.985C26.9364 196.985 21.5737 195.748 16.6687 193.162L16.5913 193.121ZM44.0366 186.092C45.6127 185.198 47.0999 184.096 48.4982 182.787C49.2227 182.109 49.9232 181.375 50.6 180.585L51.6 183.485C52.2666 185.418 53.1 186.718 54.1 187.385C54.3344 187.532 54.5817 187.662 54.8419 187.776C55.7656 188.182 56.8516 188.385 58.1 188.385H62.3C63.5 188.385 64.5 188.018 65.3 187.285C66.1666 186.552 66.9333 185.085 67.6 182.885L72.9 164.385C73.0333 163.852 73.2666 163.418 73.6 163.085C73.9333 162.685 74.4333 162.285 75.1 161.885L77.7 160.385C77.9745 160.24 78.2334 160.094 78.4766 159.949C78.4844 159.944 78.4922 159.94 78.5 159.935C79.25 159.485 79.85 159.035 80.3 158.585C80.9 157.985 81.3333 157.185 81.6 156.185C81.7333 155.652 81.8 155.252 81.8 154.985C81.8 153.594 80.7137 152.894 78.5412 152.885C78.5275 152.885 78.5138 152.885 78.5 152.885L48.3 152.785C46.9281 152.785 45.877 152.96 45.1467 153.31C45.0963 153.334 45.0474 153.359 45 153.385C44.4444 153.719 44.0277 154.214 43.7499 154.871C43.7434 154.887 43.7369 154.903 43.7304 154.918C43.6826 155.036 43.6392 155.158 43.6 155.285C43.5333 155.552 43.5 155.918 43.5 156.385C43.5 157.03 43.6244 157.593 43.8731 158.075C44.242 158.79 44.8843 159.327 45.8 159.685L49.3 160.985C50.1666 161.385 50.7666 161.752 51.1 162.085C51.5 162.418 51.7 162.985 51.7 163.785C51.7 164.252 51.5333 165.152 51.2 166.485L50.5 168.985C49.8333 171.452 48.9 173.185 47.7 174.185C46.931 174.864 45.9318 175.312 44.7024 175.53C44.5857 175.551 44.4669 175.569 44.3461 175.586C43.8637 175.652 43.3484 175.685 42.8 175.685C40.3333 175.685 38.4 174.785 37 172.985C35.6666 171.118 35 168.418 35 164.885C35 162.927 35.2186 160.75 35.6558 158.354C35.7727 157.714 35.9053 157.057 36.0535 156.385C36.2541 155.476 36.4834 154.537 36.7413 153.571C36.7737 153.449 36.8065 153.327 36.8398 153.205C36.8597 153.132 36.8797 153.059 36.9 152.985C37.3221 151.494 37.759 150.093 38.2108 148.783C39.8997 143.884 41.7961 140.252 43.9 137.885C46.6333 134.818 49.5 133.285 52.5 133.285C54.4333 133.285 56.2 133.885 57.8 135.085C59.4666 136.218 61.3666 138.185 63.5 140.985C64.8412 142.718 66.042 144.005 67.1021 144.847C67.3067 145.01 67.5059 145.156 67.7 145.285C68.9666 146.085 70.4 146.485 72 146.485C73.5333 146.485 74.7333 146.052 75.6 145.185C75.7025 145.09 75.8035 144.987 75.9028 144.877C76.7075 143.981 77.4066 142.584 78 140.685L81.6 128.085C81.8 127.352 81.9 126.718 81.9 126.185C81.9 124.785 81.3666 123.685 80.3 122.885C79.2333 122.018 77.8333 121.585 76.1 121.585C74.5 121.585 73.1 121.852 71.9 122.385C70.7 122.918 69.2666 123.885 67.6 125.285L64.6 128.185C59.1333 123.252 53 120.785 46.2 120.785C38.7333 120.785 31.7 122.985 25.1 127.385C18.5666 131.785 13.7666 139.318 10.7 149.985C9.29998 154.985 8.59998 159.518 8.59998 163.585C8.59998 168.918 9.66664 173.518 11.8 177.385C13.9333 181.185 16.8 184.085 20.4 186.085C24.0666 188.018 28.1333 188.985 32.6 188.985C36.8255 188.985 40.6377 188.021 44.0366 186.092ZM84.4489 146.19C84.5806 145.906 84.7045 145.622 84.8213 145.339L84.564 146.25C84.5256 146.23 84.4873 146.21 84.4489 146.19ZM78.636 160.891C78.6346 160.893 78.6017 160.892 78.5417 160.885C78.6075 160.887 78.6375 160.89 78.636 160.891ZM88.8836 160.385C87.8169 164.052 87.2836 167.418 87.2836 170.485C87.2836 176.818 89.4502 181.485 93.7836 184.485C98.1836 187.485 104.317 188.985 112.184 188.985C120.784 188.985 127.584 186.918 132.584 182.785C137.584 178.585 141.15 172.518 143.284 164.585L149.184 142.885C149.984 143.152 150.817 143.385 151.684 143.585C151.734 143.592 151.784 143.599 151.835 143.606C152.729 143.725 153.711 143.785 154.784 143.785C156.984 143.785 159.017 143.152 160.884 141.885C162.75 140.552 164.05 138.418 164.784 135.485C165.117 134.152 165.284 132.985 165.284 131.985C165.284 128.985 164.317 126.485 162.384 124.485C160.45 122.418 157.884 121.385 154.684 121.385C150.617 121.385 147.417 122.552 145.084 124.885C142.817 127.218 141.05 130.685 139.784 135.285L131.584 163.985C130.25 168.585 128.584 171.852 126.584 173.785C124.65 175.652 122.217 176.585 119.284 176.585C114.484 176.585 112.084 174.352 112.084 169.885C112.084 168.285 112.384 166.352 112.984 164.085L121.684 133.485C122.15 131.952 122.717 130.818 123.384 130.085C123.476 129.984 123.572 129.884 123.671 129.785C123.747 129.71 123.825 129.636 123.905 129.562C124.026 129.451 124.152 129.342 124.284 129.234C124.779 128.827 125.345 128.444 125.984 128.085C126.717 127.618 127.25 127.218 127.584 126.885C127.984 126.485 128.284 125.985 128.484 125.385C128.55 125.118 128.584 124.785 128.584 124.385C128.584 122.652 127.15 121.785 124.284 121.785H100.784C98.9836 121.785 97.6169 121.985 96.6836 122.385C95.7502 122.718 95.1502 123.318 94.8836 124.185C94.7502 124.585 94.6836 124.918 94.6836 125.185C94.6836 125.718 94.9836 126.418 95.5836 127.285C95.9836 127.952 96.2836 128.552 96.4836 129.085C96.7502 129.552 96.8836 130.185 96.8836 130.985C96.8836 131.785 96.7502 132.618 96.4836 133.485L88.8836 160.385ZM124.693 129.807C124.692 129.808 124.667 129.805 124.619 129.797C124.671 129.801 124.694 129.805 124.693 129.807ZM129.355 135.754L120.7 166.199C120.457 167.122 120.303 167.88 120.21 168.49C120.617 168.387 120.838 168.213 121.027 168.03L126.58 173.782L121.023 168.033C121.535 167.539 122.707 165.867 123.895 161.774C123.897 161.768 123.898 161.763 123.9 161.758L131.918 133.695C131.345 134.137 130.776 134.518 130.279 134.834L130.095 134.951L129.906 135.058C129.734 135.155 129.605 135.238 129.511 135.303C129.466 135.419 129.414 135.568 129.355 135.754ZM56.3349 144.812C54.8393 142.964 53.8254 142.057 53.3015 141.701L53.1482 141.596L53 141.485C52.8271 141.355 52.7302 141.32 52.7023 141.31C52.6773 141.302 52.6237 141.285 52.5 141.285C52.4248 141.285 52.2453 141.29 51.8732 141.489C51.4556 141.713 50.7729 142.198 49.8759 143.204C49.5195 143.605 49.1337 144.127 48.7263 144.787L56.3349 144.812ZM157.592 182.085C157.459 182.152 157.092 182.385 156.492 182.785C155.892 183.185 155.459 183.752 155.192 184.485C154.992 184.952 154.892 185.385 154.892 185.785C154.892 186.585 155.292 187.218 156.092 187.685C156.825 188.152 157.892 188.385 159.292 188.385H206.992C209.659 188.385 211.692 187.885 213.092 186.885C214.433 185.927 215.468 184.266 216.198 181.901C216.23 181.797 216.261 181.692 216.292 181.585L219.192 171.485C219.392 170.752 219.492 170.118 219.492 169.585C219.492 168.252 219.025 167.252 218.092 166.585C217.622 166.25 217.085 165.998 216.48 165.832C215.883 165.667 215.22 165.585 214.492 165.585C213.092 165.585 211.892 165.852 210.892 166.385C210.473 166.595 210.04 166.872 209.594 167.216C209.583 167.224 209.572 167.233 209.561 167.241C209.024 167.659 208.468 168.174 207.892 168.785L201.892 175.385C200.759 176.652 199.692 177.552 198.692 178.085C197.759 178.552 196.659 178.785 195.392 178.785H186.592L192.492 157.585H196.392C197.392 157.585 198.125 158.085 198.592 159.085L200.292 162.585C200.587 163.195 200.928 163.709 201.315 164.127C202.103 164.976 203.084 165.427 204.256 165.48C204.299 165.482 204.342 165.483 204.385 165.484C204.42 165.485 204.456 165.485 204.492 165.485C205.625 165.485 206.659 165.152 207.592 164.485C208.165 164.065 208.639 163.525 209.015 162.865C209.036 162.828 209.056 162.791 209.076 162.754C209.329 162.288 209.534 161.765 209.692 161.185L213.792 147.285C213.925 146.752 213.992 146.352 213.992 146.085C213.992 145.085 213.592 144.285 212.792 143.685C212.059 143.018 211.092 142.685 209.892 142.685C209.341 142.685 208.834 142.739 208.371 142.846C207.939 142.945 207.546 143.092 207.192 143.285C206.459 143.685 205.592 144.318 204.592 145.185L201.192 148.185C200.392 148.852 199.759 149.185 199.292 149.185H194.892L199.892 131.385H210.392C211.725 131.385 212.625 131.585 213.092 131.985C213.559 132.385 213.959 133.185 214.292 134.385L215.892 140.085C215.906 140.133 215.92 140.181 215.935 140.228C216.399 141.755 217.052 142.874 217.892 143.585C218.826 144.252 220.092 144.585 221.692 144.585C221.76 144.585 221.827 144.585 221.894 144.583C223.461 144.557 224.661 144.225 225.492 143.585C226.425 142.852 227.125 141.585 227.592 139.785L230.192 130.485C230.459 129.618 230.592 128.718 230.592 127.785C230.592 125.918 229.892 124.452 228.492 123.385C227.159 122.318 225.259 121.785 222.792 121.785H178.392C176.592 121.785 175.225 121.985 174.292 122.385C173.359 122.718 172.759 123.318 172.492 124.185C172.359 124.718 172.292 125.085 172.292 125.285C172.292 125.818 172.592 126.518 173.192 127.385C173.659 127.985 173.992 128.552 174.192 129.085C174.459 129.618 174.592 130.285 174.592 131.085C174.592 131.818 174.459 132.618 174.192 133.485L161.892 176.585C161.425 178.185 160.859 179.352 160.192 180.085C160.092 180.185 159.988 180.285 159.879 180.385C159.813 180.445 159.746 180.505 159.678 180.565C159.555 180.673 159.426 180.781 159.292 180.888C158.797 181.287 158.23 181.686 157.592 182.085ZM230.208 150.049C227.416 152.121 224.198 152.585 221.692 152.585C221.329 152.585 220.958 152.575 220.579 152.552L218.911 158.207C220.218 158.599 221.516 159.2 222.742 160.075C223.017 160.272 223.279 160.477 223.528 160.688C224.293 159.464 225.273 158.29 226.539 157.295C228.252 155.949 230.138 155.169 232.022 154.786C231.235 153.266 230.635 151.682 230.208 150.049ZM239.182 164.085C237.982 163.018 236.615 162.485 235.082 162.485C233.615 162.485 232.415 162.852 231.482 163.585C230.549 164.318 229.815 165.552 229.282 167.285L224.382 182.185C224.198 182.692 224.077 183.183 224.02 183.659C223.995 183.871 223.982 184.079 223.982 184.285C223.982 185.552 224.415 186.552 225.282 187.285C226.215 188.018 227.449 188.385 228.982 188.385C230.315 188.385 231.515 188.152 232.582 187.685C233.649 187.152 235.015 186.185 236.682 184.785L240.282 181.785C243.549 184.318 246.749 186.118 249.882 187.185C253.015 188.252 256.882 188.785 261.482 188.785C267.615 188.785 272.982 187.418 277.582 184.685C282.182 181.885 285.282 177.818 286.882 172.485C287.549 170.418 287.882 168.352 287.882 166.285C287.882 163.085 287.082 160.252 285.482 157.785C283.882 155.318 281.949 153.252 279.682 151.585C277.415 149.918 274.549 148.052 271.082 145.985C267.682 143.918 265.182 142.218 263.582 140.885C261.982 139.485 261.182 137.985 261.182 136.385C261.182 134.985 261.682 133.818 262.682 132.885C263.682 131.885 264.915 131.385 266.382 131.385C268.382 131.385 270.315 131.952 272.182 133.085C274.115 134.152 276.249 136.018 278.582 138.685C280.915 141.485 282.615 143.352 283.682 144.285C284.815 145.152 286.115 145.585 287.582 145.585C288.982 145.585 290.015 145.252 290.682 144.585C291.415 143.918 292.015 142.785 292.482 141.185L296.682 127.385C296.882 126.785 296.982 126.218 296.982 125.685C296.982 124.352 296.515 123.352 295.582 122.685C294.649 121.952 293.382 121.585 291.782 121.585C290.449 121.585 289.249 121.818 288.182 122.285C287.182 122.752 285.882 123.618 284.282 124.885L281.982 126.785C278.715 124.852 275.482 123.452 272.282 122.585C269.149 121.652 265.715 121.185 261.982 121.185C256.382 121.185 251.415 122.585 247.082 125.385C242.749 128.185 239.882 131.885 238.482 136.485C237.749 138.752 237.382 141.052 237.382 143.385C237.382 146.718 238.149 149.618 239.682 152.085C241.282 154.552 243.149 156.618 245.282 158.285C247.415 159.885 250.182 161.718 253.582 163.785C256.782 165.652 259.149 167.252 260.682 168.585C262.215 169.918 262.982 171.385 262.982 172.985C262.982 173.652 262.915 174.152 262.782 174.485C262.382 175.752 261.682 176.685 260.682 177.285C259.749 177.818 258.382 178.085 256.582 178.085C254.049 178.085 251.849 177.485 249.982 176.285C248.182 175.085 246.215 172.952 244.082 169.885C242.082 167.085 240.449 165.152 239.182 164.085ZM298.596 147.266C297.989 148.355 297.21 149.43 296.2 150.378C294.857 151.675 293.35 152.471 291.873 152.946C291.981 153.107 292.088 153.269 292.194 153.432C293.166 154.931 293.938 156.505 294.52 158.138C294.821 157.845 295.143 157.563 295.485 157.295C297.197 155.949 299.084 155.169 300.967 154.786C299.74 152.417 298.969 149.89 298.596 147.266ZM308.127 164.085C306.927 163.018 305.561 162.485 304.027 162.485C302.561 162.485 301.361 162.852 300.427 163.585C299.494 164.318 298.761 165.552 298.227 167.285L293.327 182.185C293.061 182.918 292.927 183.618 292.927 184.285C292.927 185.552 293.361 186.552 294.227 187.285C295.161 188.018 296.394 188.385 297.927 188.385C299.261 188.385 300.461 188.152 301.527 187.685C302.594 187.152 303.961 186.185 305.627 184.785L309.227 181.785C312.494 184.318 315.694 186.118 318.827 187.185C321.961 188.252 325.827 188.785 330.427 188.785C336.561 188.785 341.927 187.418 346.527 184.685C351.127 181.885 354.227 177.818 355.827 172.485C356.494 170.418 356.827 168.352 356.827 166.285C356.827 163.085 356.027 160.252 354.427 157.785C352.827 155.318 350.894 153.252 348.627 151.585C346.361 149.918 343.494 148.052 340.027 145.985C336.627 143.918 334.127 142.218 332.527 140.885C330.927 139.485 330.127 137.985 330.127 136.385C330.127 134.985 330.627 133.818 331.627 132.885C332.627 131.885 333.861 131.385 335.327 131.385C337.327 131.385 339.261 131.952 341.127 133.085C343.061 134.152 345.194 136.018 347.527 138.685C349.861 141.485 351.561 143.352 352.627 144.285C353.761 145.152 355.061 145.585 356.527 145.585C357.927 145.585 358.961 145.252 359.627 144.585C360.361 143.918 360.961 142.785 361.427 141.185L365.627 127.385C365.827 126.785 365.927 126.218 365.927 125.685C365.927 124.352 365.461 123.352 364.527 122.685C363.594 121.952 362.327 121.585 360.727 121.585C359.394 121.585 358.194 121.818 357.127 122.285C356.127 122.752 354.827 123.618 353.227 124.885L350.927 126.785C347.661 124.852 344.427 123.452 341.227 122.585C338.094 121.652 334.661 121.185 330.927 121.185C325.327 121.185 320.361 122.585 316.027 125.385C311.694 128.185 308.827 131.885 307.427 136.485C306.694 138.752 306.327 141.052 306.327 143.385C306.327 146.718 307.094 149.618 308.627 152.085C310.227 154.552 312.094 156.618 314.227 158.285C316.361 159.885 319.127 161.718 322.527 163.785C325.727 165.652 328.094 167.252 329.627 168.585C331.161 169.918 331.927 171.385 331.927 172.985C331.927 173.652 331.861 174.152 331.727 174.485C331.327 175.752 330.627 176.685 329.627 177.285C328.694 177.818 327.327 178.085 325.527 178.085C322.994 178.085 320.794 177.485 318.927 176.285C317.127 175.085 315.161 172.952 313.027 169.885C311.027 167.085 309.394 165.152 308.127 164.085Z" fill="white"/>
</svg>
