<svg width="624" height="377" viewBox="0 0 624 377" fill="none" xmlns="http://www.w3.org/2000/svg">
<circle cx="433.578" cy="189" r="135.5" transform="rotate(21 433.578 189)" fill="#EEEEEE"/>
<path d="M417.067 221.299C418.074 224.256 418.233 226.352 417.545 227.588C416.268 229.24 414.072 230.218 410.956 230.521C407.912 230.638 404.896 230.123 401.909 228.976C393.133 225.608 386.769 220.701 382.816 214.256C379.121 207.697 378.6 200.962 381.252 194.054C382.255 191.44 383.56 189.156 385.167 187.202C389.141 181.872 394.179 178.236 400.28 176.294C406.64 174.236 415.527 172.292 426.942 170.461C439.174 168.73 448.894 166.569 456.101 163.98C463.307 161.391 469.371 156.756 474.292 150.075C475.856 147.676 477.067 145.357 477.927 143.116C480.364 136.768 480.081 131.089 477.076 126.079C474.072 121.07 470.142 117.634 465.288 115.77C460.06 113.763 455.199 112.754 450.704 112.743C450.679 118.946 449.52 125.035 447.227 131.01C446.152 133.811 444.904 136.224 443.484 138.249C438.706 144.556 432.858 148.631 425.938 150.473C419.018 152.316 411.357 151.624 402.955 148.399C392.872 144.529 385.789 138.704 381.706 130.924C377.694 122.957 377.337 114.679 380.634 106.09C381.781 103.103 383.265 100.352 385.087 97.8378C392.475 86.9631 404.296 81.0035 420.55 79.959C437.062 78.7994 455.961 82.305 477.247 90.4758C495.358 97.4282 510.118 106.415 521.527 117.435C532.935 128.455 540.417 140.218 543.972 152.722C547.598 165.04 547.297 176.707 543.068 187.723C541.778 191.084 539.878 194.639 537.368 198.389C531.615 206.678 524.863 212.548 517.111 215.999C509.618 219.335 499.833 220.828 487.757 220.477C475.939 220.011 460.085 217.781 440.195 213.788C432.598 212.371 427.277 211.721 424.233 211.838C421.189 211.955 418.935 212.804 417.472 214.384L416.762 215.397C416.332 216.517 416.433 218.485 417.067 221.299ZM387.673 230.903C395.142 233.769 400.572 238.318 403.965 244.547C407.43 250.59 407.979 256.693 405.614 262.854C404.081 267.407 401.089 271.293 396.64 274.513C392.378 277.804 387.281 279.918 381.352 280.855C375.494 281.606 369.577 280.834 363.602 278.54C355.947 275.602 350.423 271.018 347.03 264.788C343.896 258.443 343.547 252.097 345.984 245.748C347.632 241.454 350.552 237.755 354.743 234.65C359.12 231.618 364.145 229.69 369.816 228.868C375.746 227.931 381.698 228.609 387.673 230.903Z" fill="#FBD85D"/>
<path d="M38.6 93.5995C34.1333 93.5995 30.0667 92.6328 26.4 90.6995C22.8 88.6995 19.9333 85.7995 17.8 81.9995C15.6667 78.1328 14.6 73.5328 14.6 68.1995C14.6 64.1328 15.3 59.5995 16.7 54.5995C19.7667 43.9328 24.5667 36.3995 31.1 31.9995C37.7 27.5995 44.7333 25.3995 52.2 25.3995C59 25.3995 65.1333 27.8662 70.6 32.7995L73.6 29.8995C75.2667 28.4995 76.7 27.5328 77.9 26.9995C79.1 26.4662 80.5 26.1995 82.1 26.1995C83.8333 26.1995 85.2333 26.6328 86.3 27.4995C87.3667 28.2995 87.9 29.3995 87.9 30.7995C87.9 31.3328 87.8 31.9662 87.6 32.6995L84 45.2995C83.3333 47.4328 82.5333 48.9328 81.6 49.7995C80.7333 50.6662 79.5333 51.0995 78 51.0995C76.4 51.0995 74.9667 50.6995 73.7 49.8995C72.5 49.0995 71.1 47.6662 69.5 45.5995C67.3667 42.7995 65.4667 40.8328 63.8 39.6995C62.2 38.4995 60.4333 37.8995 58.5 37.8995C55.5 37.8995 52.6333 39.4328 49.9 42.4995C47.2333 45.4995 44.9 50.5328 42.9 57.5995C41.6333 62.1995 41 66.1662 41 69.4995C41 73.0328 41.6667 75.7328 43 77.5995C44.4 79.3995 46.3333 80.2995 48.8 80.2995C50.9333 80.2995 52.5667 79.7995 53.7 78.7995C54.9 77.7995 55.8333 76.0662 56.5 73.5995L57.2 71.0995C57.5333 69.7662 57.7 68.8662 57.7 68.3995C57.7 67.5995 57.5 67.0328 57.1 66.6995C56.7667 66.3662 56.1667 65.9995 55.3 65.5995L51.8 64.2995C50.2667 63.6995 49.5 62.5995 49.5 60.9995C49.5 60.5328 49.5333 60.1662 49.6 59.8995C49.8667 59.0328 50.3333 58.3995 51 57.9995C51.7333 57.5995 52.8333 57.3995 54.3 57.3995L84.5 57.4995C86.7 57.4995 87.8 58.1995 87.8 59.5995C87.8 59.8662 87.7333 60.2662 87.6 60.7995C87.3333 61.7995 86.9 62.5995 86.3 63.1995C85.7 63.7995 84.8333 64.3995 83.7 64.9995L81.1 66.4995C80.4333 66.8995 79.9333 67.2995 79.6 67.6995C79.2667 68.0328 79.0333 68.4662 78.9 68.9995L73.6 87.4995C72.9333 89.6995 72.1667 91.1662 71.3 91.8995C70.5 92.6328 69.5 92.9995 68.3 92.9995H64.1C62.5 92.9995 61.1667 92.6662 60.1 91.9995C59.1 91.3328 58.2667 90.0328 57.6 88.0995L56.6 85.1995C51.8 90.7995 45.8 93.5995 38.6 93.5995Z" fill="#E2542C"/>
<path d="M145.784 39.8995C147.05 35.2995 148.817 31.8328 151.084 29.4995C153.417 27.1662 156.617 25.9995 160.684 25.9995C163.884 25.9995 166.45 27.0328 168.384 29.0995C170.317 31.0995 171.284 33.5995 171.284 36.5995C171.284 37.5995 171.117 38.7662 170.784 40.0995C170.05 43.0328 168.75 45.1662 166.884 46.4995C165.017 47.7662 162.984 48.3995 160.784 48.3995C159.65 48.3995 158.617 48.3328 157.684 48.1995C156.817 47.9995 155.984 47.7662 155.184 47.4995L149.284 69.1995C147.15 77.1328 143.584 83.1995 138.584 87.3995C133.584 91.5328 126.784 93.5995 118.184 93.5995C110.317 93.5995 104.184 92.0995 99.7836 89.0995C95.4503 86.0995 93.2836 81.4328 93.2836 75.0995C93.2836 72.0328 93.8169 68.6662 94.8836 64.9995L102.484 38.0995C102.75 37.2328 102.884 36.3995 102.884 35.5995C102.884 34.7995 102.75 34.1662 102.484 33.6995C102.284 33.1662 101.984 32.5662 101.584 31.8995C100.984 31.0328 100.684 30.3328 100.684 29.7995C100.684 29.5328 100.75 29.1995 100.884 28.7995C101.15 27.9328 101.75 27.3328 102.684 26.9995C103.617 26.5995 104.984 26.3995 106.784 26.3995H130.284C133.15 26.3995 134.584 27.2662 134.584 28.9995C134.584 29.3995 134.55 29.7328 134.484 29.9995C134.284 30.5995 133.984 31.0995 133.584 31.4995C133.25 31.8328 132.717 32.2328 131.984 32.6995C130.917 33.2995 130.05 33.9662 129.384 34.6995C128.717 35.4328 128.15 36.5662 127.684 38.0995L118.984 68.6995C118.384 70.9662 118.084 72.8995 118.084 74.4995C118.084 78.9662 120.484 81.1995 125.284 81.1995C128.217 81.1995 130.65 80.2662 132.584 78.3995C134.584 76.4662 136.25 73.1995 137.584 68.5995L145.784 39.8995Z" fill="#5DA745"/>
<path d="M228.792 26.3995C231.259 26.3995 233.159 26.9328 234.492 27.9995C235.892 29.0662 236.592 30.5328 236.592 32.3995C236.592 33.3328 236.459 34.2328 236.192 35.0995L233.592 44.3995C233.126 46.1995 232.426 47.4662 231.492 48.1995C230.626 48.8662 229.359 49.1995 227.692 49.1995C226.092 49.1995 224.826 48.8662 223.892 48.1995C223.026 47.4662 222.359 46.2995 221.892 44.6995L220.292 38.9995C219.959 37.7995 219.559 36.9995 219.092 36.5995C218.626 36.1995 217.726 35.9995 216.392 35.9995H205.892L200.892 53.7995H205.292C205.759 53.7995 206.392 53.4662 207.192 52.7995L210.592 49.7995C211.592 48.9328 212.459 48.2995 213.192 47.8995C213.926 47.4995 214.826 47.2995 215.892 47.2995C217.092 47.2995 218.059 47.6328 218.792 48.2995C219.592 48.8995 219.992 49.6995 219.992 50.6995C219.992 50.9662 219.926 51.3662 219.792 51.8995L215.692 65.7995C215.292 67.2662 214.592 68.3662 213.592 69.0995C212.659 69.7662 211.626 70.0995 210.492 70.0995C208.626 70.0995 207.226 69.1328 206.292 67.1995L204.592 63.6995C204.126 62.6995 203.392 62.1995 202.392 62.1995H198.492L192.592 83.3995H201.392C202.659 83.3995 203.759 83.1662 204.692 82.6995C205.692 82.1662 206.759 81.2662 207.892 79.9995L213.892 73.3995C214.959 72.2662 215.959 71.4662 216.892 70.9995C217.892 70.4662 219.092 70.1995 220.492 70.1995C221.959 70.1995 223.159 70.5328 224.092 71.1995C225.026 71.8662 225.492 72.8662 225.492 74.1995C225.492 74.7328 225.392 75.3662 225.192 76.0995L222.292 86.1995C221.559 88.7328 220.492 90.4995 219.092 91.4995C217.692 92.4995 215.659 92.9995 212.992 92.9995H165.292C163.892 92.9995 162.826 92.7662 162.092 92.2995C161.292 91.8328 160.892 91.1995 160.892 90.3995C160.892 89.9995 160.992 89.5662 161.192 89.0995C161.459 88.3662 161.892 87.7995 162.492 87.3995C163.092 86.9995 163.459 86.7662 163.592 86.6995C164.659 86.0328 165.526 85.3662 166.192 84.6995C166.859 83.9662 167.426 82.7995 167.892 81.1995L180.192 38.0995C180.459 37.2328 180.592 36.4328 180.592 35.6995C180.592 34.8995 180.459 34.2328 180.192 33.6995C179.992 33.1662 179.659 32.5995 179.192 31.9995C178.592 31.1328 178.292 30.4328 178.292 29.8995C178.292 29.6995 178.359 29.3328 178.492 28.7995C178.759 27.9328 179.359 27.3328 180.292 26.9995C181.226 26.5995 182.592 26.3995 184.392 26.3995H228.792Z" fill="#D5B4DD"/>
<path d="M267.982 25.7995C271.715 25.7995 275.149 26.2662 278.282 27.1995C281.482 28.0662 284.715 29.4662 287.982 31.3995L290.282 29.4995C291.882 28.2328 293.182 27.3662 294.182 26.8995C295.249 26.4328 296.449 26.1995 297.782 26.1995C299.382 26.1995 300.649 26.5662 301.582 27.2995C302.515 27.9662 302.982 28.9662 302.982 30.2995C302.982 30.8328 302.882 31.3995 302.682 31.9995L298.482 45.7995C298.015 47.3995 297.415 48.5328 296.682 49.1995C296.015 49.8662 294.982 50.1995 293.582 50.1995C292.115 50.1995 290.815 49.7662 289.682 48.8995C288.615 47.9662 286.915 46.0995 284.582 43.2995C282.249 40.6328 280.115 38.7662 278.182 37.6995C276.315 36.5662 274.382 35.9995 272.382 35.9995C270.915 35.9995 269.682 36.4995 268.682 37.4995C267.682 38.4328 267.182 39.5995 267.182 40.9995C267.182 42.5995 267.982 44.0995 269.582 45.4995C271.182 46.8328 273.682 48.5328 277.082 50.5995C280.549 52.6662 283.415 54.5328 285.682 56.1995C287.949 57.8662 289.882 59.9328 291.482 62.3995C293.082 64.8662 293.882 67.6995 293.882 70.8995C293.882 72.9662 293.549 75.0328 292.882 77.0995C291.282 82.4328 288.182 86.4995 283.582 89.2995C278.982 92.0328 273.615 93.3995 267.482 93.3995C262.882 93.3995 259.015 92.8662 255.882 91.7995C252.749 90.7328 249.549 88.9328 246.282 86.3995L242.682 89.3995C241.015 90.7995 239.649 91.7662 238.582 92.2995C237.515 92.7662 236.315 92.9995 234.982 92.9995C233.449 92.9995 232.215 92.6328 231.282 91.8995C230.415 91.1662 229.982 90.1662 229.982 88.8995C229.982 88.2328 230.115 87.5328 230.382 86.7995L235.282 71.8995C235.815 70.1662 236.549 68.9328 237.482 68.1995C238.415 67.4662 239.615 67.0995 241.082 67.0995C242.615 67.0995 243.982 67.6328 245.182 68.6995C246.449 69.7662 248.082 71.6995 250.082 74.4995C252.215 77.5662 254.182 79.6995 255.982 80.8995C257.849 82.0995 260.049 82.6995 262.582 82.6995C264.382 82.6995 265.749 82.4328 266.682 81.8995C267.682 81.2995 268.382 80.3662 268.782 79.0995C268.915 78.7662 268.982 78.2662 268.982 77.5995C268.982 75.9995 268.215 74.5328 266.682 73.1995C265.149 71.8662 262.782 70.2662 259.582 68.3995C256.182 66.3328 253.415 64.4995 251.282 62.8995C249.149 61.2328 247.282 59.1662 245.682 56.6995C244.149 54.2328 243.382 51.3328 243.382 47.9995C243.382 45.6662 243.749 43.3662 244.482 41.0995C245.882 36.4995 248.749 32.7995 253.082 29.9995C257.415 27.1995 262.382 25.7995 267.982 25.7995Z" fill="#78511D"/>
<path d="M336.927 25.7995C340.661 25.7995 344.094 26.2662 347.227 27.1995C350.427 28.0662 353.661 29.4662 356.927 31.3995L359.227 29.4995C360.827 28.2328 362.127 27.3662 363.127 26.8995C364.194 26.4328 365.394 26.1995 366.727 26.1995C368.327 26.1995 369.594 26.5662 370.527 27.2995C371.461 27.9662 371.927 28.9662 371.927 30.2995C371.927 30.8328 371.827 31.3995 371.627 31.9995L367.427 45.7995C366.961 47.3995 366.361 48.5328 365.627 49.1995C364.961 49.8662 363.927 50.1995 362.527 50.1995C361.061 50.1995 359.761 49.7662 358.627 48.8995C357.561 47.9662 355.861 46.0995 353.527 43.2995C351.194 40.6328 349.061 38.7662 347.127 37.6995C345.261 36.5662 343.327 35.9995 341.327 35.9995C339.861 35.9995 338.627 36.4995 337.627 37.4995C336.627 38.4328 336.127 39.5995 336.127 40.9995C336.127 42.5995 336.927 44.0995 338.527 45.4995C340.127 46.8328 342.627 48.5328 346.027 50.5995C349.494 52.6662 352.361 54.5328 354.627 56.1995C356.894 57.8662 358.827 59.9328 360.427 62.3995C362.027 64.8662 362.827 67.6995 362.827 70.8995C362.827 72.9662 362.494 75.0328 361.827 77.0995C360.227 82.4328 357.127 86.4995 352.527 89.2995C347.927 92.0328 342.561 93.3995 336.427 93.3995C331.827 93.3995 327.961 92.8662 324.827 91.7995C321.694 90.7328 318.494 88.9328 315.227 86.3995L311.627 89.3995C309.961 90.7995 308.594 91.7662 307.527 92.2995C306.461 92.7662 305.261 92.9995 303.927 92.9995C302.394 92.9995 301.161 92.6328 300.227 91.8995C299.361 91.1662 298.927 90.1662 298.927 88.8995C298.927 88.2328 299.061 87.5328 299.327 86.7995L304.227 71.8995C304.761 70.1662 305.494 68.9328 306.427 68.1995C307.361 67.4662 308.561 67.0995 310.027 67.0995C311.561 67.0995 312.927 67.6328 314.127 68.6995C315.394 69.7662 317.027 71.6995 319.027 74.4995C321.161 77.5662 323.127 79.6995 324.927 80.8995C326.794 82.0995 328.994 82.6995 331.527 82.6995C333.327 82.6995 334.694 82.4328 335.627 81.8995C336.627 81.2995 337.327 80.3662 337.727 79.0995C337.861 78.7662 337.927 78.2662 337.927 77.5995C337.927 75.9995 337.161 74.5328 335.627 73.1995C334.094 71.8662 331.727 70.2662 328.527 68.3995C325.127 66.3328 322.361 64.4995 320.227 62.8995C318.094 61.2328 316.227 59.1662 314.627 56.6995C313.094 54.2328 312.327 51.3328 312.327 47.9995C312.327 45.6662 312.694 43.3662 313.427 41.0995C314.827 36.4995 317.694 32.7995 322.027 29.9995C326.361 27.1995 331.327 25.7995 336.927 25.7995Z" fill="#ED9F3E"/>
<path d="M163.15 123.9C163.15 127.02 162.413 129.75 160.94 132.09C159.467 134.343 157.603 136.076 155.35 137.29C153.183 138.416 151.06 138.98 148.98 138.98C146.987 138.98 145.08 138.503 143.26 137.55C141.527 136.51 140.4 135.34 139.88 134.04L108.29 186.82C105.863 190.893 103.653 193.796 101.66 195.53C99.7533 197.176 97.5433 198 95.03 198C89.2233 198 85.93 194.273 85.15 186.82L80.99 148.6L54.73 186.82C51.6967 191.24 49.2267 194.23 47.32 195.79C45.5 197.263 43.3767 198 40.95 198C35.6633 198 32.4567 193.84 31.33 185.52L23.01 126.76C22.75 125.026 22.23 123.64 21.45 122.6C20.7567 121.56 19.8467 120.563 18.72 119.61C17.94 118.916 17.3767 118.353 17.03 117.92C16.6833 117.4 16.51 116.836 16.51 116.23C16.0767 113.023 17.9833 111.42 22.23 111.42H54.6C56.5933 111.42 58.0667 111.853 59.02 112.72C60.06 113.5 60.5367 114.583 60.45 115.97C60.45 116.663 60.2333 117.356 59.8 118.05C59.4533 118.656 59.0633 119.22 58.63 119.74C57.6767 120.78 56.9833 121.776 56.55 122.73C56.1167 123.683 55.9867 124.94 56.16 126.5L59.54 157.83L79.04 129.88L78.65 126.76C78.4767 125.113 78.0433 123.77 77.35 122.73C76.6567 121.69 75.7033 120.693 74.49 119.74C73.6233 118.96 73.0167 118.353 72.67 117.92C72.3233 117.4 72.15 116.836 72.15 116.23C71.7167 113.023 73.6233 111.42 77.87 111.42H110.37C112.363 111.42 113.88 111.853 114.92 112.72C115.96 113.5 116.437 114.583 116.35 115.97C116.35 117.096 115.743 118.353 114.53 119.74C113.663 120.78 113.013 121.776 112.58 122.73C112.147 123.683 111.973 124.94 112.06 126.5L113.62 154.84L131.17 124.16C134.03 119.22 136.803 115.796 139.49 113.89C142.177 111.896 145.687 110.9 150.02 110.9C153.92 110.9 157.083 112.07 159.51 114.41C161.937 116.75 163.15 119.913 163.15 123.9Z" fill="#A3E1F6"/>
<path d="M262.282 111.42C264.102 111.42 265.489 111.723 266.442 112.33C267.482 112.936 268.002 113.716 268.002 114.67C268.002 115.103 267.872 115.666 267.612 116.36C267.352 116.966 266.962 117.53 266.442 118.05C266.009 118.483 265.575 118.83 265.142 119.09C264.795 119.263 264.535 119.436 264.362 119.61C262.975 120.39 261.849 121.256 260.982 122.21C260.115 123.163 259.379 124.636 258.772 126.63L242.782 182.66C242.435 183.786 242.262 184.87 242.262 185.91C242.262 186.95 242.392 187.773 242.652 188.38C242.999 188.986 243.475 189.766 244.082 190.72C244.169 190.806 244.385 191.153 244.732 191.76C245.165 192.28 245.382 192.843 245.382 193.45C245.382 193.623 245.295 194.056 245.122 194.75C244.689 195.963 243.865 196.83 242.652 197.35C241.439 197.783 239.619 198 237.192 198H206.642C204.822 198 203.392 197.696 202.352 197.09C201.399 196.483 200.922 195.66 200.922 194.62C200.922 194.1 201.052 193.536 201.312 192.93C201.659 192.236 202.135 191.673 202.742 191.24C203.349 190.72 203.955 190.286 204.562 189.94C205.949 189.16 207.075 188.293 207.942 187.34C208.809 186.3 209.545 184.74 210.152 182.66L216.392 160.95H193.382L187.142 182.66C186.795 183.786 186.622 184.87 186.622 185.91C186.622 186.95 186.752 187.773 187.012 188.38C187.359 188.986 187.835 189.766 188.442 190.72C188.529 190.806 188.745 191.153 189.092 191.76C189.525 192.28 189.742 192.843 189.742 193.45C189.742 193.623 189.655 194.056 189.482 194.75C189.049 195.963 188.225 196.83 187.012 197.35C185.799 197.783 183.979 198 181.552 198H151.002C149.182 198 147.795 197.696 146.842 197.09C145.802 196.483 145.282 195.66 145.282 194.62C145.282 194.1 145.412 193.536 145.672 192.93C146.019 192.236 146.495 191.673 147.102 191.24C147.709 190.72 148.315 190.286 148.922 189.94C150.309 189.16 151.435 188.293 152.302 187.34C153.169 186.3 153.905 184.74 154.512 182.66L170.502 126.63C170.849 125.503 171.022 124.42 171.022 123.38C171.022 122.426 170.849 121.646 170.502 121.04C170.242 120.346 169.852 119.566 169.332 118.7C168.985 118.266 168.682 117.833 168.422 117.4C168.162 116.88 168.032 116.36 168.032 115.84C168.032 115.666 168.119 115.233 168.292 114.54C168.639 113.413 169.419 112.633 170.632 112.2C171.845 111.68 173.665 111.42 176.092 111.42H206.642C208.462 111.42 209.849 111.723 210.802 112.33C211.842 112.936 212.362 113.716 212.362 114.67C212.362 115.103 212.232 115.666 211.972 116.36C211.712 116.966 211.322 117.53 210.802 118.05C210.369 118.483 209.935 118.83 209.502 119.09C209.155 119.263 208.895 119.436 208.722 119.61C207.335 120.39 206.209 121.256 205.342 122.21C204.475 123.163 203.739 124.636 203.132 126.63L197.022 147.95H220.032L226.142 126.63C226.489 125.503 226.662 124.42 226.662 123.38C226.662 122.426 226.489 121.646 226.142 121.04C225.882 120.346 225.492 119.566 224.972 118.7C224.625 118.266 224.322 117.833 224.062 117.4C223.802 116.88 223.672 116.36 223.672 115.84C223.672 115.666 223.759 115.233 223.932 114.54C224.279 113.413 225.059 112.633 226.272 112.2C227.485 111.68 229.305 111.42 231.732 111.42H262.282Z" fill="#06147A"/>
<path d="M320.39 109.47C331.31 109.47 339.847 112.07 346 117.27C352.153 122.383 355.23 129.793 355.23 139.5C355.23 144.093 354.537 149.033 353.15 154.32C350.55 164.026 346.52 172.26 341.06 179.02C335.6 185.78 329.1 190.893 321.56 194.36C314.02 197.826 305.83 199.56 296.99 199.56C286.157 199.56 277.663 197.003 271.51 191.89C265.357 186.69 262.28 179.236 262.28 169.53C262.28 165.11 263.017 160.04 264.49 154.32C267.003 144.7 270.947 136.553 276.32 129.88C281.78 123.12 288.237 118.05 295.69 114.67C303.23 111.203 311.463 109.47 320.39 109.47ZM318.05 122.21C315.45 122.21 313.11 123.25 311.03 125.33C308.95 127.41 306.87 130.833 304.79 135.6C302.797 140.28 300.63 146.823 298.29 155.23C294.823 167.363 293.09 175.726 293.09 180.32C293.09 183.006 293.567 184.956 294.52 186.17C295.473 187.383 296.99 187.99 299.07 187.99C301.67 187.99 304.01 186.95 306.09 184.87C308.17 182.703 310.207 179.28 312.2 174.6C314.193 169.92 316.403 163.463 318.83 155.23C322.21 143.27 323.9 134.863 323.9 130.01C323.9 127.236 323.423 125.243 322.47 124.03C321.517 122.816 320.043 122.21 318.05 122.21Z" fill="#5DA745"/>
</svg>
