<?xml version="1.0" encoding="utf-8"?>
<!-- Generator: Adobe Illustrator 27.0.0, SVG Export Plug-In . SVG Version: 6.00 Build 0)  -->
<svg version="1.1" id="Layer_1" xmlns="http://www.w3.org/2000/svg" xmlns:xlink="http://www.w3.org/1999/xlink" x="0px" y="0px"
	 viewBox="0 0 1000 521.7" style="enable-background:new 0 0 1000 521.7;" xml:space="preserve">
<style type="text/css">
	.st0{fill-rule:evenodd;clip-rule:evenodd;fill:#FF0000;}
	.st1{fill:#FF0000;}
</style>
<path class="st0" d="M421.7,273c-5.2,53.5-8.1,107.2-11.8,160.8c-16.7,3.2-33.4,6.2-49.4,9.5c-8.1-24.4-16.5-48.6-25.7-72.6
	c-1.7,26-2.9,52.2-3.9,78.3c-16.4,3.8-32.8,7.2-49,10.1c-20.3-51.9-42.8-102.9-66.2-153.6c17.1-3.7,34.6-7.2,51.6-11
	c11,27.6,21,55.4,30.9,83.3c0.3-25.7,0.2-51.4,0.5-77.2c16.4-2.9,32.9-5.7,49.7-8.3c7.4,22.7,14.8,45.4,21.8,68.2
	c0.1-27.3-1.2-54.6-1.4-81.9C385.6,276.1,404.5,275.2,421.7,273"/>
<path class="st0" d="M485.4,266.1c0.7,10.9,2.7,21.1,3.9,32.9c17.3-8.6,39.7-9.1,55.5,1.2c13,8.6,15.5,27.6,17.7,50.4
	c2.2,22.9,4.1,46,5.7,69c-17.4,2.2-33.6,2.4-50.3,5c-2.2-25.5-5.1-50.9-8.2-76.3c-1-7.8-1-18.4-6.9-18.8c-10-0.7-7.6,11.5-6.6,18.8
	c3.4,25.7,6.2,51.7,8.8,77.6c-16.7,2.4-33.7,4.6-50,7.2c-7.9-65-16.6-116.7-23.4-160.2C449,270.2,466.5,267.8,485.4,266.1"/>
<path class="st0" d="M628.1,278.2c21-2.9,41.3,2.2,57.5,15.3c24.3,19.8,27.4,59.4,15.2,86c-9.2,20.1-28.6,35.4-51.2,38.4
	c-37.6,5-65.7-22.8-73.1-58c-3.8-18.4-2.7-39.6,4.7-53.3C588.9,292.3,606,281.3,628.1,278.2 M630.9,349.4c1.2,12.2,8.1,31,13.9,27.2
	c10.3-6.8,8.7-64.9-6.7-65C631.6,311.6,629.4,334.2,630.9,349.4"/>
<path class="st1" d="M823.1,273.4l-33.7,57.1l-38.9-7l-2.4-87.5c104.3,21.2,117.1-113.6,74.6-121.3c-36.5-6.6-40.1,51.6-40.1,51.6
	l-101-18.2c17-94.8,113.8-93,149-88.4c35.9,4.6,106.4,20.8,110.9,110.2C946,259.3,823.1,273.4,823.1,273.4 M768.3,338.4
	c-26.2-4.7-50.3,7.6-53.9,27.5c-3.6,19.9,14.7,39.8,40.9,44.5c26.2,4.7,50.3-7.6,53.9-27.5C812.8,363.1,794.5,343.1,768.3,338.4"/>
<path class="st0" d="M201.2,152.1c-12.1,11.2-21.9,24.2-33.9,35.1c-12.6-12.6-39.8-16.4-48.5,0.8c-10.6,20.8,2.6,61.9,23.8,72.5
	c8.4,4.2,24.9,1.5,33.9-3.6c-5.3-17.3-16.7-30.3-25.5-41.9c20.8-4.9,41.7-9.7,62.7-14.3c1.5,24.2,7.6,48.1,20.2,68.7
	c-9.7,12.6-22.3,19.1-36.6,25.9c-13.8,6.6-29.5,13.1-48,13.5c-50.8,1.3-87.2-48.2-87.1-97c0-40.7,31.7-73.1,71-79.6
	C158,128.1,183.4,134.2,201.2,152.1"/>
<path class="st0" d="M413.2,206.2c13,17.6,38.2,8.3,51.6-4.1c5.2,11.7,11.4,22.2,16.8,33.7c-17.4,15.2-36.4,20.4-57.1,22.7
	c-18.3,2-35.8-6-46.7-17.4c-24.4-25.3-29.1-73.5-6.8-102.4c8.2-10.6,22.9-20.2,38.8-22.7c20-3.2,36.2,1.1,46.3,10
	c8.5,7.5,18.1,25.7,11.5,40.7C458.1,187.6,433.1,196.9,413.2,206.2 M422,163.8c3.8-5.5,3.4-15.7-5.4-13.7
	c-7.1,1.7-11.4,17.4-10.8,25.2C412.4,173.9,418.7,168.6,422,163.8"/>
<path class="st0" d="M578.3,118.8c-5,10-10.7,19.7-16.2,30c-4.6-1.6-10.7-5.1-17.2-7c-3.9-1.1-17.3-4.4-18.4,2.9
	c-1.2,8,13.2,9.4,18.3,10.5c22.6,4.9,44.4,18.6,43.7,44.9c-1.3,48.8-68.6,52.2-101,38.3c2.3-12.7,3.8-26.2,5.8-39.1
	c6.3,1.9,13.1,4.5,22.1,6.3c4.1,0.8,22.2,4.8,24.1-1.8c2.4-8.2-12-9.7-17-10.8c-9-2-14.8-2.9-21.1-5.7c-12.9-5.8-25.1-19-24-39
	c1.2-22,20.6-37.1,41.2-40.9C539.6,103.7,559.8,109,578.3,118.8"/>
<path class="st0" d="M682.2,112c-5,9.7-10,19.9-16.5,29.2c-3.7-2.6-9.6-5.1-15.8-7.4c-3.1-1.1-15.4-5.9-16.7,2.5
	c-1.3,8.1,17.7,11,22.7,12.5c19.4,6.2,35,21.3,34.1,43.3c-1.8,45.8-66.6,53.5-97.5,36.2c2.1-13.5,5-26,6.9-39.5
	c6.2,2.6,12.5,5.3,21,7.5c4.6,1.2,20.9,5.4,22.9-1.8c2-7.2-10.9-9.6-15.7-10.7c-21.1-4.8-41.6-18.2-41.2-42.9
	c0.4-24.3,21.9-40.5,44.7-42.3C649.1,97.3,667,102.4,682.2,112"/>
<path class="st0" d="M335.8,130.7c2.2,1.5,2.1,4.9,2.5,7.2c8.1,41.8,13,84.7,24,126c-14.9,1.6-28.6,4.3-43,6.2
	c-1-3.7-2.7-6.6-3.4-10.6c-4.2,3-5.9,7.7-9.7,10.9c-7.5,6.2-18.3,10-32.6,9.4c-33.5-1.5-40.7-39.6-46-66.2c-4-20-8.3-40.3-13.1-60.3
	c17.7-3.7,35.4-7.6,53.2-10.7c5.1,24.2,10.2,48.5,14.9,72.7c1.4,7.2,1.8,20.2,8.2,21c6,0.8,8.5-4.8,8.8-9c0.4-6.8-2.1-15.5-3.5-22.7
	c-4.2-21.6-8.5-43.2-13.3-64.7C299.5,135.9,318.3,133.8,335.8,130.7"/>
</svg>
