<svg xmlns="http://www.w3.org/2000/svg" xmlns:xlink="http://www.w3.org/1999/xlink" width="126" zoomAndPan="magnify" viewBox="0 0 94.5 60" height="80" preserveAspectRatio="xMidYMid meet" version="1.0"><defs><g/><clipPath id="id1"><path d="M 3 4 L 91.125 4 L 91.125 56.914062 L 3 56.914062 Z M 3 4 " clip-rule="nonzero"/></clipPath></defs><g clip-path="url(#id1)"><path fill="#f9f7e1" d="M 13.734375 5.90625 C 19.96875 4.109375 27.539062 5.457031 33.992188 5.007812 C 48.683594 3.660156 63.378906 4.785156 78.070312 4.785156 L 78.515625 5.007812 C 91.203125 5.007812 91.425781 16.464844 90.980469 27.027344 C 90.757812 31.519531 90.757812 37.359375 87.863281 41.179688 C 85.636719 44.101562 82.964844 43.875 79.628906 44.324219 C 64.714844 46.570312 49.796875 46.121094 34.882812 44.773438 C 31.59375 44.320312 28.203125 44.171875 24.847656 44.125 C 22.832031 47.796875 24.484375 53.695312 25.980469 56.90625 C 22.46875 53.976562 19.796875 49.042969 18.605469 44.132812 C 15.019531 44.273438 10.027344 44.785156 7.28125 43.203125 C 4.386719 41.402344 3.71875 36.910156 3.496094 33.539062 C 3.050781 24.554688 3.050781 8.601562 13.734375 5.90625 " fill-opacity="1" fill-rule="nonzero"/></g><g fill="#f99c17" fill-opacity="1"><g transform="translate(17.961481, 21.954343)"><g><path d="M 1.234375 -13.9375 C 1.234375 -13.9375 -0.0703125 -4.03125 2.265625 0.421875 C 2.265625 0.421875 7.386719 0 9.628906 -0.269531 L 9.679688 -2.753906 L 10.960938 -2.851562 L 10.753906 -5.226562 C 8.386719 -5.445312 5.9375 -4.957031 5.9375 -4.957031 L 6.019531 -3.832031 L 6.980469 -3.769531 L 7.054688 -2.285156 C 6.765625 -2.277344 6.425781 -2.265625 5.992188 -2.265625 C 5.820312 -2.265625 4.121094 -2.3125 3.984375 -2.519531 C 3.914062 -2.671875 3.625 -5.6875 3.625 -5.6875 C 3.625 -5.6875 3.546875 -6.253906 3.894531 -6.75 C 4.203125 -7.179688 7.773438 -7.035156 8.359375 -7.144531 C 8.359375 -7.117188 8.367188 -7.117188 8.378906 -7.144531 L 8.359375 -7.144531 C 8.339844 -7.296875 8.574219 -8.664062 8.574219 -8.664062 C 8.574219 -9.476562 8.519531 -12.640625 8.457031 -13.480469 C 6.890625 -13.660156 2.796875 -14.136719 1.234375 -13.9375 Z M 1.234375 -13.9375 "/></g></g></g><g fill="#f99c17" fill-opacity="1"><g transform="translate(29.124344, 21.954343)"><g><path d="M 1.835938 -0.523438 L 11.480469 -0.171875 C 11.480469 -0.171875 11.929688 -13.171875 11.8125 -13.199219 C 10.375 -13.53125 9.449219 -13.453125 9.449219 -13.453125 L 8.996094 -13.316406 C 8.996094 -13.316406 8.878906 -8.835938 8.917969 -4.742188 L 6.621094 -4.589844 C 6.621094 -5.121094 6.828125 -11.238281 6.792969 -12.714844 C 6.308594 -12.839844 3.015625 -12.9375 1.816406 -12.859375 C 1.683594 -10.859375 1.726562 -1.53125 1.664062 -0.835938 Z M 1.835938 -0.523438 "/></g></g></g><g fill="#f99c17" fill-opacity="1"><g transform="translate(41.960288, 21.954343)"><g><path d="M 10.328125 -10.023438 C 10.789062 -11.4375 10.375 -13.46875 10.375 -13.46875 L 9.808594 -13.503906 L 2.085938 -13.308594 C 2.085938 -13.308594 1.753906 -12.589844 1.71875 -12.011719 C 1.683594 -11.4375 1.628906 -2.292969 2.035156 -1.214844 C 2.230469 -0.683594 2.410156 -0.136719 2.609375 -0.0898438 C 2.808594 -0.046875 5.09375 0.136719 8.027344 0.109375 C 10.960938 0.0820312 10.3125 0.152344 10.3125 0.152344 L 10.222656 -2.402344 C 10.222656 -2.402344 9.796875 -2.679688 9.816406 -2.664062 C 9.835938 -2.644531 10.070312 -2.628906 10.070312 -2.628906 L 5.675781 -2.664062 L 5.453125 -2.90625 L 5.515625 -5.183594 C 8.449219 -5.210938 9.953125 -5.316406 9.953125 -5.316406 L 9.953125 -6.433594 C 9.953125 -6.433594 9.796875 -7.34375 9.816406 -7.324219 C 9.835938 -7.304688 8.71875 -7.289062 8.71875 -7.289062 L 6.386719 -7.277344 C 5.992188 -8.394531 6.101562 -9.761719 6.101562 -9.761719 C 9.734375 -9.941406 10.328125 -10.023438 10.328125 -10.023438 Z M 10.328125 -10.023438 "/></g></g></g><g fill="#f99c17" fill-opacity="1"><g transform="translate(53.950696, 21.954343)"><g><path d="M 10.914062 -0.226562 C 11.101562 -0.304688 11.300781 -4.785156 11.300781 -4.785156 L 11.15625 -4.941406 L 3.546875 -5.34375 L 3.671875 -6.605469 C 3.671875 -6.605469 9.78125 -6.558594 9.988281 -6.605469 C 10.183594 -6.640625 9.953125 -13.414062 9.78125 -13.453125 C 9.320312 -13.542969 1.890625 -13.054688 1.726562 -12.929688 C 1.710938 -12.921875 1.476562 -12.597656 1.476562 -12.597656 C 1.054688 -12.039062 0.9375 -4.542969 1.035156 -4.542969 C 1.035156 -4.542969 2.359375 -4.148438 5.804688 -3.976562 C 5.730469 -3.417969 5.605469 -2.65625 5.605469 -2.65625 C 5.398438 -2.65625 1.609375 -3.175781 1.609375 -3.175781 C 1.582031 -3.160156 1.402344 -2.84375 1.402344 -2.84375 C 1.402344 -2.84375 1.414062 -0.683594 1.554688 -0.40625 Z M 10.914062 -0.226562 "/></g></g></g><g fill="#f99c17" fill-opacity="1"><g transform="translate(65.833164, 21.954343)"><g><path d="M 10.914062 -0.226562 C 11.101562 -0.304688 11.300781 -4.785156 11.300781 -4.785156 L 11.15625 -4.941406 L 3.546875 -5.34375 L 3.671875 -6.605469 C 3.671875 -6.605469 9.78125 -6.558594 9.988281 -6.605469 C 10.183594 -6.640625 9.953125 -13.414062 9.78125 -13.453125 C 9.320312 -13.542969 1.890625 -13.054688 1.726562 -12.929688 C 1.710938 -12.921875 1.476562 -12.597656 1.476562 -12.597656 C 1.054688 -12.039062 0.9375 -4.542969 1.035156 -4.542969 C 1.035156 -4.542969 2.359375 -4.148438 5.804688 -3.976562 C 5.730469 -3.417969 5.605469 -2.65625 5.605469 -2.65625 C 5.398438 -2.65625 1.609375 -3.175781 1.609375 -3.175781 C 1.582031 -3.160156 1.402344 -2.84375 1.402344 -2.84375 C 1.402344 -2.84375 1.414062 -0.683594 1.554688 -0.40625 Z M 10.914062 -0.226562 "/></g></g></g><path stroke-linecap="butt" transform="matrix(0.75, 0, 0, 0.75, 11.791362, 6.55504)" fill="none" stroke-linejoin="miter" d="M 9.080268 1.416197 C 9.080268 1.416197 7.340685 14.624532 10.460477 20.562033 C 10.460477 20.562033 17.288603 19.999533 20.272978 19.640158 L 20.345895 16.327658 L 22.04902 16.197449 L 21.772978 13.030782 C 18.616728 12.744324 15.356311 13.390157 15.356311 13.390157 L 15.465686 14.890157 L 16.746936 14.973491 L 16.840686 16.952658 C 16.460477 16.963074 16.002144 16.978699 15.429227 16.978699 C 15.200061 16.978699 12.934435 16.916199 12.752144 16.640158 C 12.658394 16.437033 12.272977 12.416199 12.272977 12.416199 C 12.272977 12.416199 12.163602 11.66099 12.632352 11.00474 C 13.038602 10.426615 17.804228 10.619323 18.580269 10.47349 C 18.580269 10.509948 18.595894 10.509948 18.606311 10.47349 L 18.580269 10.47349 C 18.559436 10.270365 18.871936 8.447448 18.871936 8.447448 C 18.871936 7.369323 18.799019 3.145364 18.715686 2.030781 C 16.627144 1.785989 11.16881 1.150572 9.080268 1.416197 Z M 24.76777 19.301616 L 37.627147 19.770366 C 37.627147 19.770366 38.231314 2.437031 38.075064 2.400572 C 36.153188 1.957864 34.918813 2.062031 34.918813 2.062031 L 34.319855 2.244322 C 34.319855 2.244322 34.163605 8.218282 34.21048 13.676616 L 31.153188 13.879741 C 31.153188 13.171407 31.429229 5.015156 31.377146 3.046406 C 30.731313 2.879739 26.340687 2.749531 24.746937 2.853697 C 24.564645 5.520364 24.627145 17.963074 24.538604 18.88495 Z M 53.210482 6.634948 C 53.819857 4.749531 53.267774 2.041197 53.267774 2.041197 L 52.512566 1.994322 L 42.220898 2.254739 C 42.220898 2.254739 41.772981 3.218281 41.726106 3.983906 C 41.679231 4.749531 41.606314 16.942241 42.147981 18.379741 C 42.413606 19.088075 42.653189 19.82245 42.913606 19.879741 C 43.179231 19.942241 46.226106 20.181825 50.137565 20.145366 C 54.049024 20.108908 53.184441 20.202658 53.184441 20.202658 L 53.064649 16.796408 C 53.064649 16.796408 52.502149 16.426616 52.522982 16.447449 C 52.549024 16.473491 52.861524 16.494324 52.861524 16.494324 L 47.007357 16.447449 L 46.705273 16.124533 L 46.788607 13.088074 C 50.700065 13.051615 52.705274 12.91099 52.705274 12.91099 L 52.705274 11.421407 C 52.705274 11.421407 52.502149 10.207865 52.522982 10.233907 C 52.549024 10.259948 51.05944 10.280782 51.05944 10.280782 L 47.955273 10.296407 C 47.424023 8.806823 47.569857 6.983906 47.569857 6.983906 C 52.418816 6.744323 53.210482 6.634948 53.210482 6.634948 Z M 69.97611 19.702658 C 70.22611 19.593283 70.491735 13.619324 70.491735 13.619324 L 70.299026 13.416199 L 60.147983 12.874532 L 60.319858 11.19224 C 60.319858 11.19224 68.465693 11.25474 68.741735 11.19224 C 69.002151 11.145365 68.689651 2.114114 68.465693 2.062031 C 67.851109 1.942239 57.944858 2.593281 57.726108 2.759947 C 57.700066 2.770364 57.392775 3.202656 57.392775 3.202656 C 56.825066 3.947448 56.668816 13.942241 56.804233 13.942241 C 56.804233 13.942241 58.56465 14.468282 63.163609 14.697449 C 63.06465 15.442241 62.897984 16.463074 62.897984 16.463074 C 62.621942 16.463074 57.569858 15.765158 57.569858 15.765158 C 57.5334 15.791199 57.293816 16.207866 57.293816 16.207866 C 57.293816 16.207866 57.304233 19.088075 57.496941 19.457866 Z M 85.819862 19.702658 C 86.069862 19.593283 86.335487 13.619324 86.335487 13.619324 L 86.142779 13.416199 L 75.991735 12.874532 L 76.163611 11.19224 C 76.163611 11.19224 84.309445 11.25474 84.585487 11.19224 C 84.845903 11.145365 84.533403 2.114114 84.309445 2.062031 C 83.694862 1.942239 73.783402 2.593281 73.56986 2.759947 C 73.543818 2.770364 73.236527 3.202656 73.236527 3.202656 C 72.668818 3.947448 72.512568 13.942241 72.647985 13.942241 C 72.647985 13.942241 74.408402 14.468282 79.002153 14.697449 C 78.908403 15.442241 78.741736 16.463074 78.741736 16.463074 C 78.465694 16.463074 73.41361 15.765158 73.41361 15.765158 C 73.377152 15.791199 73.137568 16.207866 73.137568 16.207866 C 73.137568 16.207866 73.147985 19.088075 73.340693 19.457866 Z M 85.819862 19.702658 " stroke="#44500a" stroke-width="0.491406" stroke-opacity="1" stroke-miterlimit="4"/><g fill="#f99c17" fill-opacity="1"><g transform="translate(24.113824, 39.954341)"><g><path d="M 5.769531 -7.214844 L 5.191406 -6.164062 L 4.230469 -4.382812 L 3.976562 -13.351562 L 1.503906 -13.273438 C 1.503906 -13.273438 1.144531 -0.449219 1.257812 -0.421875 C 2.699219 -0.0898438 3.714844 -0.261719 3.714844 -0.261719 L 4.164062 -0.394531 L 5.578125 -3.300781 L 7.765625 -0.136719 C 8.84375 0.449219 10.914062 0.1875 10.914062 0.1875 L 11.363281 0.0546875 C 11.363281 0.0546875 11.597656 -9.25 11.300781 -13.117188 L 10.996094 -13.53125 L 8.089844 -13.632812 L 7.800781 -13.542969 C 7.800781 -13.542969 7.757812 -11.707031 7.757812 -11.515625 C 7.746094 -11.320312 7.855469 -4.445312 7.855469 -4.445312 Z M 5.769531 -7.214844 "/></g></g></g><g fill="#f99c17" fill-opacity="1"><g transform="translate(36.527, 39.954341)"><g><path d="M 1.664062 -12.8125 C 1.664062 -12.8125 1.828125 -0.496094 1.855469 -0.476562 C 1.863281 -0.46875 2.265625 -0.304688 2.292969 -0.296875 C 2.320312 -0.289062 4.851562 -0.179688 4.851562 -0.179688 C 4.824219 -0.179688 5.046875 -5.136719 5.046875 -5.136719 C 5.046875 -5.136719 6.757812 -5.183594 6.757812 -5.15625 C 6.757812 -5.128906 6.9375 -0.414062 6.9375 -0.269531 C 6.9375 -0.125 10.652344 0 10.652344 0 L 10.464844 -13.273438 C 9.25 -13.945312 6.335938 -13.542969 6.335938 -13.542969 L 6.207031 -9.636719 L 6.164062 -8.214844 L 4.335938 -8.152344 C 4.335938 -8.152344 4.183594 -8.324219 4.183594 -8.367188 L 4.238281 -13 C 3.273438 -13.183594 1.664062 -12.8125 1.664062 -12.8125 Z M 1.664062 -12.8125 "/></g></g></g><g fill="#f99c17" fill-opacity="1"><g transform="translate(48.310522, 39.954341)"><g><path d="M 6.828125 -7.199219 C 6.757812 -6.488281 6.703125 -4.023438 6.308594 -3.996094 C 6.308594 -3.996094 5.9375 -3.851562 5.9375 -3.867188 C 5.9375 -3.894531 4.050781 -3.734375 3.859375 -3.894531 L 3.617188 -4.21875 L 3.457031 -5.148438 C 3.457031 -5.148438 3.265625 -7.316406 3.4375 -7.574219 C 3.4375 -7.574219 3.804688 -7.9375 5.714844 -7.9375 C 6.515625 -7.9375 6.890625 -7.910156 6.828125 -7.199219 Z M 10.105469 -13.117188 C 5.148438 -14.171875 1.808594 -13.117188 1.808594 -13.117188 L 1.207031 -12.507812 C 0.40625 -7.253906 1.878906 -1.257812 1.878906 -1.257812 L 2.050781 -0.640625 C 4.09375 1.375 8.429688 0.109375 8.429688 0.136719 C 8.429688 0.160156 9.203125 -0.613281 9.203125 -0.613281 C 11.320312 -5.34375 10.457031 -12.667969 10.457031 -12.667969 Z M 10.105469 -13.117188 "/></g></g></g><g fill="#f99c17" fill-opacity="1"><g transform="translate(59.806202, 39.954341)"><g><path d="M 10.664062 -1.351562 C 10.664062 -1.351562 10.941406 -1.539062 10.96875 -1.738281 C 10.996094 -1.933594 11.003906 -2.078125 11.003906 -2.078125 L 11.183594 -3.851562 C 11.355469 -5.507812 10.886719 -13.308594 10.886719 -13.308594 C 9.320312 -13.503906 2.257812 -13.027344 0.691406 -12.847656 C 0.628906 -12.011719 0.574219 -7.855469 0.574219 -7.046875 C 0.574219 -6.261719 0.648438 -6.253906 0.773438 -5.523438 C 1.285156 -5.417969 7.199219 -5.570312 7.503906 -5.128906 C 7.773438 -4.742188 7.808594 -4.398438 7.703125 -3.742188 C 7.675781 -3.546875 7.503906 -3.273438 6.613281 -3.273438 L 5.957031 -3.273438 L 5.839844 -3.140625 C 5.839844 -3.140625 5.777344 0.730469 5.804688 0.703125 C 5.832031 0.675781 6.882812 1.105469 8.359375 0.621094 C 8.359375 0.621094 8.339844 -0.421875 8.351562 -0.882812 C 8.351562 -1.007812 8.367188 -1.160156 8.367188 -1.160156 L 8.457031 -1.25 C 8.457031 -1.25 9.96875 -1.144531 10.664062 -1.351562 Z M 8.566406 3.382812 C 8.566406 3.300781 8.566406 3.230469 8.519531 3.160156 C 8.296875 2.644531 7.890625 2.546875 7.332031 2.546875 C 6.675781 2.546875 5.578125 2.835938 5.578125 3.597656 C 5.578125 4.292969 6.34375 4.714844 6.957031 4.714844 C 7.628906 4.714844 8.566406 4.058594 8.566406 3.382812 Z M 8.566406 3.382812 "/></g></g></g><path stroke-linecap="butt" transform="matrix(0.75, 0, 0, 0.75, 11.791362, 6.55504)" fill="none" stroke-linejoin="miter" d="M 23.33027 34.379743 L 22.564645 35.780785 L 21.278186 38.155786 L 20.944853 26.197451 L 17.642769 26.306826 C 17.642769 26.306826 17.163603 43.400578 17.319853 43.437036 C 19.241728 43.879745 20.595895 43.650578 20.595895 43.650578 L 21.194853 43.473495 L 23.08027 39.598494 L 25.991729 43.822453 C 27.434437 44.598495 30.194854 44.249536 30.194854 44.249536 L 30.793813 44.072453 C 30.793813 44.072453 31.106313 31.666201 30.710479 26.509951 L 30.299021 25.957867 L 26.42402 25.822451 L 26.043812 25.942242 C 26.043812 25.942242 25.981312 28.390159 25.981312 28.645368 C 25.970895 28.905784 26.11152 38.072452 26.11152 38.072452 Z M 34.408397 26.916201 C 34.408397 26.916201 34.627147 43.338078 34.663605 43.36412 C 34.674022 43.374536 35.215688 43.593286 35.252147 43.603703 C 35.288605 43.61412 38.658397 43.759953 38.658397 43.759953 C 38.621939 43.759953 38.924022 37.150577 38.924022 37.150577 C 38.924022 37.150577 41.200064 37.088077 41.200064 37.124535 C 41.200064 37.160994 41.439647 43.447453 41.439647 43.640161 C 41.439647 43.83287 46.397981 43.999536 46.397981 43.999536 L 46.142773 26.306826 C 44.522981 25.405784 40.637564 25.942242 40.637564 25.942242 L 40.470897 31.150576 L 40.408397 33.04641 L 37.976105 33.129743 C 37.976105 33.129743 37.767772 32.900576 37.767772 32.843285 L 37.840689 26.666201 C 36.559439 26.426617 34.408397 26.916201 34.408397 26.916201 Z M 57.007358 34.400577 C 56.913608 35.348493 56.840691 38.634952 56.314649 38.671411 C 56.314649 38.671411 55.819858 38.864119 55.819858 38.843286 C 55.819858 38.806827 53.299024 39.020369 53.049024 38.806827 L 52.726107 38.374536 L 52.507357 37.14016 C 52.507357 37.14016 52.257357 34.244327 52.486524 33.900577 C 52.486524 33.900577 52.976107 33.416202 55.522983 33.416202 C 56.590691 33.416202 57.090691 33.45266 57.007358 34.400577 Z M 61.37715 26.509951 C 54.767774 25.1037 50.314649 26.509951 50.314649 26.509951 L 49.512565 27.322451 C 48.444857 34.332868 50.408399 42.322453 50.408399 42.322453 L 50.637565 43.150578 C 53.361524 45.838078 59.142775 44.14537 59.142775 44.181828 C 59.142775 44.218286 60.174025 43.181828 60.174025 43.181828 C 62.996942 36.874535 61.8459 27.108909 61.8459 27.108909 Z M 77.444861 42.202661 C 77.444861 42.202661 77.819861 41.947453 77.856319 41.687036 C 77.892777 41.421411 77.903194 41.228703 77.903194 41.228703 L 78.142777 38.864119 C 78.371944 36.655785 77.746944 26.254742 77.746944 26.254742 C 75.658402 25.994326 66.241734 26.629742 64.153192 26.869326 C 64.069859 27.983909 63.996942 33.525577 63.996942 34.603702 C 63.996942 35.650577 64.095901 35.660994 64.262567 36.634952 C 64.944859 36.775577 72.830277 36.572452 73.236527 37.160994 C 73.595902 37.676619 73.642777 38.134952 73.502152 39.009952 C 73.465693 39.275577 73.236527 39.634952 72.049027 39.634952 L 71.174026 39.634952 L 71.017776 39.812036 C 71.017776 39.812036 70.934443 44.973495 70.970901 44.937036 C 71.002151 44.900578 72.408402 45.473495 74.377152 44.827661 C 74.377152 44.827661 74.35111 43.437036 74.361527 42.822453 C 74.361527 42.655786 74.387569 42.452661 74.387569 42.452661 L 74.50736 42.332869 C 74.50736 42.332869 76.522986 42.478703 77.444861 42.202661 Z M 74.653194 48.509954 C 74.653194 48.400579 74.653194 48.306829 74.590694 48.213079 C 74.293819 47.525578 73.752152 47.39537 73.00736 47.39537 C 72.13236 47.39537 70.668818 47.780787 70.668818 48.796412 C 70.668818 49.723495 71.689652 50.285995 72.502152 50.285995 C 73.403193 50.285995 74.653194 49.410995 74.653194 48.509954 Z M 74.653194 48.509954 " stroke="#44500a" stroke-width="0.491406" stroke-opacity="1" stroke-miterlimit="4"/></svg>