<?xml version="1.0" encoding="utf-8"?>
<!-- Generator: Adobe Illustrator 16.0.4, SVG Export Plug-In . SVG Version: 6.00 Build 0)  -->
<!DOCTYPE svg PUBLIC "-//W3C//DTD SVG 1.1//EN" "http://www.w3.org/Graphics/SVG/1.1/DTD/svg11.dtd">
<svg version="1.1" id="Layer_1" xmlns="http://www.w3.org/2000/svg" xmlns:xlink="http://www.w3.org/1999/xlink" x="0px" y="0px"
	 width="170px" height="170px" viewBox="0 0 170 170" enable-background="new 0 0 170 170" xml:space="preserve">
<title>Artboard 9</title>
<g>
	<path fill="#FFB331" d="M111.057,77.263c-17.863,1.856-35.429,5.867-53.081,9.208c-6.775,1.283-13.668,2.874-19.874-0.174
		c-4.651-7.958-3.864-18.012-1.675-26.996c1.616-6.633,4.273-13.025,5.581-19.722c1-5.119,0.817-10.477-0.544-15.511
		c-0.619-2.291-1.781-3.844-2.653-5.854c-0.857-1.979-2.241-3.618-4.506-3.859c-2.383-0.253-4.443,1.643-5.174,3.959
		c-8.859,1.241-17.291,5.452-23.666,11.824c-0.272,0.272-0.458,0.372-0.67,0.694c8.051,2.761,17.207,3.189,25.319,0.615
		c1.696,0.564,2.294,2.489,2.477,4.292c0.183,1.804-0.318,3.599-0.812,5.34c-1.781,6.259-3.561,12.519-5.34,18.779
		c-1.546,5.438-3.1,10.917-3.557,16.557c-0.725,8.971,1.439,18.16,6.083,25.826c0.391,0.645,0.806,1.275,1.23,1.897
		c-1.171,1.949-2.977,3.527-4.768,4.961c-2.339,1.874-4.829,3.753-6.178,6.449c-1.299,2.596-0.269,8.5,0.645,8.244
		c0.427-0.105-0.019-2.463-0.143-4.252c-0.051-0.741,0.174-2.086,0.163-1.952c-0.012,2.464,0.595,3.911,1.799,6.049
		c0.088,0.155,0.215,0.33,0.391,0.318c0.229-0.018,0.305-0.322,0.299-0.556c-0.033-1.067-0.539-2.049-0.885-3.057
		c-0.201-0.584-0.359-1.406-0.462-2.017c0.197,0.642,0.598,1.203,1.126,2.014c0.64,0.986,2.124,2.841,2.469,2.402
		c0.385-0.262-0.393-1.285-0.815-1.828c-1.323-1.697-2.255-3.702-2.193-5.867c1.64-2.357,3.766-4.362,6.201-5.849
		c1.376-0.841,2.907-1.59,4.223-2.526c4.456,5.581,10.299,10.021,16.856,12.726c5.636,2.324,11.985,3.323,17.902,2.174
		c2.049,2.022,4.316,3.815,6.76,5.321c-1.393,9.031-0.988,18.193,0.345,27.233c-3.539,0.858-7.149,2.846-10.403,4.496
		c-0.364,0.185-0.724,0.384-1.073,0.6c-0.155,0.095-0.306,0.195-0.453,0.3c-0.137,0.099-0.271,0.202-0.398,0.312
		c-0.057,0.048-0.11,0.098-0.164,0.149c-0.166,0.154-0.326,0.317-0.464,0.5c-0.652,0.844-0.921,2.08-0.381,3.002
		c3.14,1.219,6.105,1.567,9.463,1.748c2.627-1.705,4.802-3.826,6.565-6.362c0.772-1.114,1.153-2.466,1.119-3.827
		c-0.234-9.087,0.741-18.201,3.948-26.597c1.062-2.782,0.559-5.93-1.387-8.168c-1.08-1.239-2.158-2.48-3.236-3.722
		c4.656-4.235,7.703-10.688,6.812-16.705c2.245-4.829,6.308-8.616,10.887-11.237c4.58-2.624,9.679-4.168,14.796-5.389
		c17.601-4.198,37.062-5.274,54.882-2.186C147.252,75.769,128.92,75.408,111.057,77.263z"/>
	<path fill="#D87A19" d="M24.032,96.979c0.768,0.039,1.555,0.119,2.341,0.188c-0.294-0.681-0.569-1.366-0.829-2.061
		c-1.142,0.216-2.313,0.332-3.461,0.42c-2.971,0.229-6.069,0.376-8.671,1.849c-2.503,1.417-4.894,6.899-3.996,7.205
		c0.411,0.154,1.337-2.053,2.218-3.608c0.365-0.644,1.291-1.632,1.208-1.526c-1.364,2.035-1.658,3.581-1.833,6.036
		c-0.013,0.18-0.004,0.397,0.15,0.487c0.2,0.115,0.43-0.094,0.552-0.291c0.56-0.905,0.68-2.005,0.946-3.039
		c0.157-0.607,0.483-1.386,0.734-1.953c-0.195,0.651-0.173,1.346-0.182,2.328c-0.009,1.181,0.202,3.561,0.73,3.393
		c0.463,0.001,0.38-1.289,0.328-1.979c-0.165-2.16,0.164-4.352,1.404-6.112C18.329,97.289,21.195,96.83,24.032,96.979z"/>
	<path fill="#D87A19" d="M67.746,128.626c1.047-1.829,1.161-3.957,0.362-5.852c-0.435-0.393-0.867-0.788-1.284-1.2
		c-4.238,0.824-8.692,0.529-12.953-0.549c1.785,1.952,3.783,3.744,5.984,5.305c-2.319,7.853-2.869,16.024-2.483,24.193
		c-3.604,0.359-7.398,1.715-10.804,2.81c-0.549,0.177-1.1,0.375-1.612,0.626c-0.145,0.072-0.288,0.148-0.425,0.23
		c-0.062,0.035-0.12,0.075-0.179,0.115c-0.182,0.116-0.356,0.244-0.513,0.388c-0.185,0.17-0.347,0.363-0.481,0.571
		c-0.2,0.312-0.335,0.66-0.379,1.013c-0.043,0.353,0.004,0.707,0.17,1.037c0.374,0.18,0.747,0.347,1.119,0.502
		c2.237,0.938,4.459,1.479,6.876,1.911c0.403,0.071,0.812,0.14,1.227,0.207c2.788-1.214,5.168-2.849,7.184-4.899
		c0.885-0.899,1.403-2.055,1.509-3.266C61.774,143.682,63.688,135.708,67.746,128.626z"/>
	<path fill="#FBD795" d="M44.873,157.67c-1.456,0.495-2.69,0.528-4.197,0.231c0-1.156,0.528-2.302,1.403-3.043
		c0.876-0.738,2.082-1.06,3.202-0.851C46.026,155.627,45.485,156.478,44.873,157.67z"/>
	<path fill="#FBD795" d="M47.586,158.526c-1.456,0.496-2.69,0.529-4.197,0.233c0-1.156,0.528-2.302,1.403-3.043
		c0.875-0.74,2.082-1.06,3.202-0.852C48.542,156.463,48.413,157.391,47.586,158.526z"/>
	<path fill="#FBD795" d="M50.633,159.741c-1.454,0.498-2.69,0.53-4.196,0.234c0-1.157,0.529-2.303,1.404-3.043
		c0.875-0.741,2.08-1.061,3.201-0.851C51.486,156.72,51.861,158.94,50.633,159.741z"/>
	<path fill="#FFFFFF" d="M37.766,20.675c0.068,2.312-1.724,4.24-4,4.308c-2.275,0.067-4.175-1.752-4.241-4.062
		c-0.067-2.312,1.725-4.242,4-4.309C35.802,16.544,37.7,18.363,37.766,20.675z"/>
	
		<ellipse transform="matrix(0.9996 -0.0297 0.0297 0.9996 -0.6023 1.0075)" fill="#603913" cx="33.646" cy="20.797" rx="3.094" ry="3.141"/>
	
		<ellipse transform="matrix(0.9996 -0.0295 0.0295 0.9996 -0.5531 0.941)" fill="#FFFFFF" cx="31.597" cy="19.205" rx="1.092" ry="1.108"/>
	<g>
		<path fill="#FBD795" d="M83.114,107.394c-3.015,2.16-6.528,3.639-10.148,4.454c0.062,0.07,2.794,3.213,4.099,4.712
			C79.784,114.086,81.957,110.854,83.114,107.394z"/>
		<path fill="#FBD795" d="M65.814,120.543c-0.294-0.315-0.584-0.633-0.87-0.958c-0.034-0.037-0.067-0.075-0.1-0.113
			c-0.276-0.314-0.545-0.634-0.81-0.958c-0.04-0.047-0.08-0.096-0.119-0.144c-0.259-0.319-0.513-0.644-0.764-0.973
			c-0.041-0.053-0.08-0.104-0.12-0.159c-0.248-0.328-0.49-0.66-0.727-0.996c-0.037-0.053-0.073-0.104-0.109-0.157
			c-0.238-0.341-0.471-0.687-0.698-1.034c-0.03-0.046-0.059-0.093-0.09-0.14c-0.232-0.358-0.458-0.721-0.677-1.087
			c-0.018-0.029-0.035-0.062-0.052-0.091c-0.229-0.385-0.453-0.772-0.669-1.166c-1.334-0.104-2.666-0.248-3.99-0.427
			c-5.066-0.681-10.188-1.852-14.506-4.624c-2.464-1.583-4.552-3.64-6.283-5.997c-0.058,0.734-0.201,1.447-0.5,2.127
			c-0.562,1.279-1.538,2.225-2.666,3.028c4.456,5.581,10.299,10.021,16.856,12.726c5.636,2.324,11.985,3.323,17.902,2.174
			c-0.322-0.316-0.636-0.64-0.947-0.967C65.856,120.586,65.835,120.564,65.814,120.543z"/>
		<path fill="#FBD795" d="M29.404,86.742c-1.191-8.213,0.115-16.585,1.876-24.693c1.761-8.107,3.988-16.155,4.666-24.429
			c0.158-1.914,0.225-3.882-0.351-5.711c-0.578-1.828-1.916-3.513-3.745-4.002c-1.955-0.524-3.969,0.37-5.862,1.093
			c-6.648,2.537-14.02,3.079-20.96,1.547c-0.016,0.015-0.032,0.031-0.046,0.047c0.088,0.133,0.185,0.26,0.277,0.389
			c7.939,2.621,16.897,2.989,24.854,0.465c1.696,0.564,2.294,2.489,2.477,4.292c0.183,1.804-0.318,3.599-0.812,5.34
			c-1.781,6.259-3.561,12.519-5.34,18.779c-1.546,5.438-3.1,10.917-3.557,16.557c-0.725,8.971,1.439,18.16,6.083,25.826
			c0.391,0.645,0.806,1.275,1.23,1.897c0.358-0.596,0.663-1.224,0.882-1.896c0.621-1.903,0.292-4.198,1.128-5.91
			C30.819,93.304,29.881,90.031,29.404,86.742z"/>
	</g>
	<g>
		<path fill="#FBD795" d="M83.114,107.394c-3.015,2.16-6.528,3.639-10.148,4.454c0.062,0.07,2.794,3.213,4.099,4.712
			C79.784,114.086,81.957,110.854,83.114,107.394z"/>
		<path fill="#FBD795" d="M65.814,120.543c-0.294-0.315-0.584-0.633-0.87-0.958c-0.034-0.037-0.067-0.075-0.1-0.113
			c-0.276-0.314-0.545-0.634-0.81-0.958c-0.04-0.047-0.08-0.096-0.119-0.144c-0.259-0.319-0.513-0.644-0.764-0.973
			c-0.041-0.053-0.08-0.104-0.12-0.159c-0.248-0.328-0.49-0.66-0.727-0.996c-0.037-0.053-0.073-0.104-0.109-0.157
			c-0.238-0.341-0.471-0.687-0.698-1.034c-0.03-0.046-0.059-0.093-0.09-0.14c-0.232-0.358-0.458-0.721-0.677-1.087
			c-0.018-0.029-0.035-0.062-0.052-0.091c-0.229-0.385-0.453-0.772-0.669-1.166c-1.334-0.104-2.666-0.248-3.99-0.427
			c-5.066-0.681-10.188-1.852-14.506-4.624c-2.464-1.583-4.552-3.64-6.283-5.997c-0.058,0.734-0.201,1.447-0.5,2.127
			c-0.562,1.279-1.538,2.225-2.666,3.028c4.456,5.581,10.299,10.021,16.856,12.726c5.636,2.324,11.985,3.323,17.902,2.174
			c-0.322-0.316-0.636-0.64-0.947-0.967C65.856,120.586,65.835,120.564,65.814,120.543z"/>
		<path fill="#FBD795" d="M29.404,86.742c-1.191-8.213,0.115-16.585,1.876-24.693c1.761-8.107,3.988-16.155,4.666-24.429
			c0.158-1.914,0.225-3.882-0.351-5.711c-0.578-1.828-1.916-3.513-3.745-4.002c-1.955-0.524-3.969,0.37-5.862,1.093
			c-6.648,2.537-14.02,3.079-20.96,1.547c-0.016,0.015-0.032,0.031-0.046,0.047c0.088,0.133,0.185,0.26,0.277,0.389
			c7.939,2.621,16.897,2.989,24.854,0.465c1.696,0.564,2.294,2.489,2.477,4.292c0.183,1.804-0.318,3.599-0.812,5.34
			c-1.781,6.259-3.561,12.519-5.34,18.779c-1.546,5.438-3.1,10.917-3.557,16.557c-0.725,8.971,1.439,18.16,6.083,25.826
			c0.391,0.645,0.806,1.275,1.23,1.897c0.358-0.596,0.663-1.224,0.882-1.896c0.621-1.903,0.292-4.198,1.128-5.91
			C30.819,93.304,29.881,90.031,29.404,86.742z"/>
	</g>
	<path fill="#FBD795" d="M62.352,163.856c-1.39,0.662-2.612,0.839-4.144,0.72c-0.131-1.147,0.265-2.349,1.051-3.186
		c0.787-0.837,1.947-1.297,3.084-1.218C63.053,161.498,62.735,162.652,62.352,163.856z"/>
	<path fill="#FBD795" d="M65.152,164.721c-1.39,0.661-2.612,0.839-4.144,0.72c-0.13-1.149,0.266-2.35,1.052-3.187
		c0.786-0.838,1.948-1.295,3.085-1.217C65.861,162.232,65.817,163.447,65.152,164.721z"/>
	<path fill="#FBD795" d="M68.309,165.246c-1.39,0.661-2.614,0.839-4.144,0.72c-0.13-1.149,0.266-2.349,1.052-3.187
		c0.786-0.837,1.947-1.296,3.083-1.217C68.813,162.144,69.437,164.308,68.309,165.246z"/>
	<g>
		<path fill="#EF4F00" d="M34.277,78.117c-0.381,0.565-0.279,1.41,0.225,1.868c0.311,0.28,0.745,0.367,1.154,0.304
			c-0.25-0.958-0.443-1.936-0.592-2.924C34.783,77.598,34.476,77.823,34.277,78.117z"/>
		<path fill="#EF4F00" d="M34.757,69.984c0.078-1.443,0.229-2.891,0.433-4.33c-0.746,0.214-1.446,0.618-1.877,1.266
			c-0.516,0.774-0.551,1.91,0.073,2.597C33.725,69.893,34.263,70.047,34.757,69.984z"/>
		<path fill="#EF4F00" d="M34.323,63.877c0.216,0.493,0.564,0.907,0.939,1.293c0.208-1.372,0.459-2.736,0.752-4.082
			c-0.548,0.201-1.13,0.34-1.512,0.773C34.034,62.394,34.038,63.227,34.323,63.877z"/>
		<path fill="#EF4F00" d="M78.732,82.401c0.78,2.422,0.508,5.691,2.803,6.517c2.031,0.731,4-1.522,4.35-3.684
			c0.225-1.383,0.087-2.806,0.098-4.209C83.564,81.473,81.148,81.932,78.732,82.401z"/>
		<path fill="#EF4F00" d="M100.61,81.463c0.268-0.941,0.221-1.984,0.385-2.94c-2.855,0.413-5.705,0.87-8.551,1.355
			c0.076,0.656,0.175,1.306,0.392,1.894c0.603,1.622,2.291,2.76,3.996,2.692C98.539,84.396,100.134,83.128,100.61,81.463z"/>
		<path fill="#EF4F00" d="M35.996,45.839c-0.651,1.595,1.583,3,1.622,4.727c0.007,0.385-0.096,0.785,0.032,1.147
			c0.122,0.346,0.412,0.556,0.751,0.707c0.741-2.363,1.502-4.721,2.186-7.096c-0.483-0.117-0.968-0.276-1.439-0.401
			C37.991,44.614,36.455,44.719,35.996,45.839z"/>
		<path fill="#EF4F00" d="M39.799,43.01c0.446,0.099,0.906,0.152,1.347,0.264c0.272-1.039,0.521-2.082,0.738-3.132
			c-0.651-0.32-1.334-0.552-2.045-0.486c-1.052,0.1-2.067,1.178-1.698,2.184C38.387,42.508,39.113,42.858,39.799,43.01z"/>
		<path fill="#EF4F00" d="M40.496,87.243c-0.784,1.646-1.369,3.386-1.06,5.151c0.407,2.323,3.211,4.255,5.102,2.886
			c1.167-0.845,1.442-2.48,1.423-3.934c-0.014-1.101-0.131-2.239,0.06-3.306C44.145,88.019,42.296,87.793,40.496,87.243z"/>
		<path fill="#EF4F00" d="M33.886,75.016c0.3,0.021,0.628,0.09,0.926,0.208c-0.088-1.099-0.125-2.209-0.114-3.325
			c-0.497,0.093-1.019,0.125-1.512,0.244c-0.872,0.21-1.791,1.021-1.499,1.882C31.966,74.844,33.033,74.957,33.886,75.016z"/>
		<path fill="#EF4F00" d="M70.797,83.965c-0.002,0.037-0.007,0.076-0.01,0.111c0.018-0.04,0.034-0.079,0.053-0.119L70.797,83.965z"
			/>
		<path fill="#EF4F00" d="M70.787,84.076c-0.153,0.347-0.299,0.695-0.443,1.043C70.612,84.817,70.75,84.454,70.787,84.076z"/>
		<path fill="#EF4F00" d="M114.795,79.906c1.571,0.153,3.182-0.893,3.703-2.407c0.099-0.281,0.169-0.587,0.25-0.883
			c-2.356,0.154-4.709,0.35-7.055,0.586C112.07,78.62,113.348,79.768,114.795,79.906z"/>
		<path fill="#EF4F00" d="M108.224,77.578c0.239,0.186,0.476,0.375,0.711,0.564c0.181-0.281,0.417-0.52,0.681-0.719
			C109.151,77.475,108.687,77.524,108.224,77.578z"/>
		<path fill="#EF4F00" d="M34.955,56.776c0.222,0.851,0.856,1.508,1.625,1.94c0.373-1.472,0.785-2.934,1.228-4.39
			c-0.342-0.146-0.688-0.271-1.057-0.273C35.508,54.044,34.636,55.555,34.955,56.776z"/>
		<path fill="#EF4F00" d="M35.959,81.361c-0.785,0.368-1.546,0.789-2.193,1.365c-0.873,0.781-1.523,1.902-1.479,3.083
			c0.046,1.18,0.94,2.351,2.101,2.437c1.404,0.107,2.464-1.211,3.578-2.204C37.117,84.548,36.456,82.98,35.959,81.361z"/>
		<path fill="#EF4F00" d="M52.48,95.671c1.796-0.562,2.552-2.674,3.057-4.514c0.407-1.485,0.814-2.969,1.221-4.453
			c-2.693,0.517-5.395,1.03-8.06,1.242c-0.517,1.299-0.855,2.647-0.7,4.024C48.248,94.189,50.379,96.326,52.48,95.671z"/>
		<path fill="#EF4F00" d="M66.348,93.123c0.727-2.638-1.292-5.327-1.281-8.025c-1.669,0.329-3.341,0.655-5.01,0.975
			c0.217,0.817,0.009,1.729-0.31,2.529c-0.375,0.935-0.892,1.827-1.047,2.824c-0.312,1.982,1.103,4.086,3.035,4.516
			C63.667,96.37,65.814,95.059,66.348,93.123z"/>
	</g>
	<path fill="#EF4F00" d="M67.744,104.072c0.361,0.318,0.869,0.388,1.344,0.428c0.631,0.051,1.28,0.067,1.886-0.122
		c0.604-0.19,1.167-0.619,1.38-1.227c0.324-0.932-0.24-1.92-0.78-2.743c-0.516-0.785-1.031-1.571-1.547-2.357
		c-0.158-0.238-0.321-0.484-0.56-0.639c-0.238-0.153-0.574-0.191-0.794-0.011c-0.72,0.482-1.159,1.312-1.354,2.167
		c-0.196,0.854-0.174,1.742-0.152,2.619C67.186,102.865,67.24,103.628,67.744,104.072z"/>
	<path fill="#EF4F00" d="M72.553,88.09c-0.968,0.644-1.632,1.737-1.763,2.903c-0.131,1.167,0.276,2.385,1.077,3.23
		c0.674,0.713,1.845,1.138,2.611,0.526c0.681-0.543,0.678-1.599,0.438-2.443c-0.243-0.847-0.663-1.673-0.601-2.551
		c0.041-0.59,0.275-1.269-0.106-1.715C73.812,87.575,73.057,87.755,72.553,88.09z"/>
	<path fill="#EF4F00" d="M90.715,84.775c-1.663,0.993-2.375,3.351-1.548,5.12c0.503,0.298,1.159-0.001,1.563-0.426
		c0.403-0.427,0.676-0.978,1.122-1.358c0.662-0.565,1.686-0.742,2.074-1.529c0.369-0.746-0.104-1.723-0.854-2.066
		C92.324,84.17,91.424,84.352,90.715,84.775z"/>
	<path fill="#EF4F00" d="M110.013,80.534c-0.251-0.932-1.42-1.474-2.278-1.054c-0.86,0.42-1.173,1.691-0.608,2.474
		c0.565,0.78,1.853,0.859,2.506,0.15C110.01,81.693,110.16,81.078,110.013,80.534z"/>
	<path fill="#EF4F00" d="M53.34,96.922c-0.463,0.747-0.586,1.726-0.236,2.532s1.2,1.39,2.067,1.332
		c0.867-0.059,1.662-0.814,1.695-1.697c0.034-0.9-0.644-1.751-0.466-2.634c0.057-0.278,0.196-0.533,0.245-0.812
		c0.051-0.278-0.02-0.615-0.269-0.743c-0.256-0.131-0.56,0.018-0.808,0.164C54.727,95.558,53.856,96.087,53.34,96.922z"/>
	<path fill="#EF4F00" d="M45.504,97.949c0.512,0.151,1.108-0.079,1.394-0.535c0.284-0.456,0.233-1.102-0.12-1.506
		c-0.517-0.591-1.6-0.483-1.993,0.198C44.406,96.762,44.785,97.735,45.504,97.949z"/>
	<path fill="#EF4F00" d="M63.771,98.848c-0.411-0.326-1.016,0.012-1.342,0.422c-0.454,0.574-0.712,1.304-0.721,2.04
		c0.378,0.217,0.83,0.305,1.26,0.244c0.043-0.512,0.458-0.897,0.752-1.314C64.016,99.821,64.169,99.163,63.771,98.848z"/>
	<path fill="#501900" d="M10.416,29.19c-0.501,0.183-1.033,0.28-1.565,0.285c0.234-0.669,0.788-1.216,1.453-1.434
		c0.253-0.082,0.57-0.104,0.744,0.101c0.156,0.184,0.116,0.48-0.031,0.669C10.869,29.002,10.641,29.109,10.416,29.19z"/>
	<path fill="#8B4C00" d="M5.009,30.347c0,0,1.6,0.28,2.017,0.353c0.415,0.081,0.885,0.155,1.402,0.19
		c0.514,0.048,1.072,0.102,1.661,0.158c0.587,0.071,1.217,0.039,1.862,0.066c0.646,0.008,1.313,0.046,1.991-0.016
		c0.676-0.038,1.364-0.077,2.052-0.116c0.683-0.09,1.365-0.182,2.036-0.271c0.675-0.067,1.324-0.229,1.955-0.358
		c0.627-0.146,1.247-0.231,1.811-0.412c0.567-0.166,1.103-0.322,1.598-0.467c0.498-0.13,0.942-0.29,1.332-0.446
		c0.392-0.148,1.926-0.727,1.926-0.727c0.207-0.078,0.437,0.028,0.514,0.238c0.077,0.211-0.035,0.447-0.241,0.525
		c0,0-1.561,0.536-1.964,0.674c-0.401,0.146-0.859,0.295-1.372,0.414c-0.508,0.132-1.058,0.274-1.64,0.425
		c-0.579,0.166-1.212,0.234-1.854,0.364c-0.646,0.111-1.308,0.254-1.994,0.303c-0.683,0.07-1.377,0.14-2.07,0.211
		c-0.697,0.019-1.394,0.036-2.079,0.055c-0.686,0.041-1.359-0.018-2.011-0.046c-0.651-0.045-1.282-0.034-1.876-0.124
		c-0.594-0.075-1.155-0.146-1.673-0.211c-0.521-0.052-0.99-0.14-1.401-0.234c-0.413-0.085-2.005-0.412-2.005-0.412
		c-0.037-0.008-0.061-0.044-0.053-0.083C4.939,30.364,4.974,30.341,5.009,30.347z"/>
	<g opacity="0.41">
		<path fill="#FFFFFF" d="M84.004,102.697c0.013-0.248,0.023-0.498,0.021-0.745c-0.025,0.056-0.057,0.104-0.083,0.16
			C83.971,102.307,83.984,102.503,84.004,102.697z"/>
		<path fill="#FFFFFF" d="M38.143,87.744c6.206,3.048,13.099,1.456,19.875,0.174c17.652-3.342,35.219-7.354,53.08-9.208
			c11.123-1.155,22.425-1.451,33.521-0.236c4.522,0.051,9.021,0.332,13.449,0.847c-15.305-3.605-31.34-3.685-47.012-2.057
			c-17.863,1.856-35.429,5.867-53.081,9.208c-6.775,1.283-13.668,2.874-19.874-0.174c-2.129-3.644-3.109-7.729-3.346-11.947
			C34.834,79.08,35.772,83.686,38.143,87.744z"/>
		<path fill="#FFFFFF" d="M29.172,19.762c0.73-2.317,2.791-4.213,5.173-3.959c2.267,0.241,3.65,1.879,4.508,3.86
			c0.871,2.009,2.033,3.563,2.652,5.854c0.604,2.231,0.961,4.526,1.102,6.836c0.003-0.466-0.022-0.932-0.039-1.399
			c-0.137-2.326-0.497-4.636-1.104-6.883c-0.619-2.291-1.781-3.844-2.653-5.854c-0.857-1.979-2.241-3.618-4.506-3.859
			c-2.383-0.253-4.443,1.643-5.174,3.959c-8.859,1.241-17.291,5.452-23.666,11.824c-0.029,0.03-0.053,0.05-0.081,0.076
			c0.388,0.125,0.775,0.253,1.167,0.369C12.788,24.775,20.787,20.935,29.172,19.762z"/>
	</g>
	<g opacity="0.31">
		<path fill="#B86029" d="M80.594,112.462c-1.617,0.912-3.302,1.699-5.027,2.375c0.499,0.575,0.998,1.147,1.498,1.723
			C78.389,115.354,79.582,113.966,80.594,112.462z"/>
		<path fill="#B86029" d="M32.065,106.675c4.456,5.581,10.299,10.021,16.856,12.726c5.636,2.324,11.985,3.323,17.902,2.174
			c-0.322-0.316-0.636-0.64-0.947-0.967c-0.02-0.021-0.042-0.043-0.062-0.064c-0.294-0.315-0.584-0.633-0.87-0.958
			c-0.034-0.037-0.067-0.075-0.1-0.113c-0.276-0.314-0.545-0.634-0.81-0.958c-0.04-0.047-0.08-0.096-0.119-0.144
			c-0.242-0.298-0.477-0.6-0.71-0.904c-1.146,0.049-2.292,0.06-3.439-0.001c-9.794-0.517-19.284-5.069-26.042-12.271
			C33.244,105.748,32.682,106.235,32.065,106.675z"/>
		<path fill="#B86029" d="M30.195,104.141c0.358-0.596,0.663-1.224,0.882-1.896c0.015-0.047,0.024-0.098,0.038-0.147
			c-0.285-0.378-0.575-0.753-0.848-1.145c-3.059-4.396-5.19-9.384-7.005-14.443c0.865,5.555,2.799,10.942,5.702,15.734
			C29.355,102.888,29.771,103.519,30.195,104.141z"/>
	</g>
	<g>
		<path fill="#FBB040" d="M26.838,58.451c-0.105,0.373-0.211,0.745-0.317,1.117c1.177,0.139,2.363,0.198,3.546,0.163
			c0.587-0.018,1.174-0.063,1.758-0.124c0.09-0.395,0.179-0.789,0.27-1.184C30.354,58.635,28.586,58.643,26.838,58.451z"/>
		<path fill="#FBB040" d="M24.285,91.288c1.967-0.202,3.898-0.729,5.694-1.566c-0.089-0.383-0.169-0.768-0.246-1.151
			c-1.8,0.873-3.751,1.408-5.737,1.592C24.089,90.539,24.184,90.915,24.285,91.288z"/>
		<path fill="#FBB040" d="M23.561,71.424c1.954,0.416,3.946,0.63,5.936,0.644c0.048-0.384,0.099-0.768,0.153-1.152
			c-1.97-0.002-3.944-0.212-5.878-0.625C23.696,70.667,23.629,71.046,23.561,71.424z"/>
		<path fill="#FBB040" d="M28.315,66.304c0.71-0.021,1.422-0.075,2.131-0.158c0.075-0.398,0.151-0.797,0.23-1.194
			c-1.883,0.25-3.783,0.26-5.66,0.054c-0.099,0.377-0.199,0.754-0.295,1.131C25.913,66.277,27.113,66.339,28.315,66.304z"/>
		<path fill="#FBB040" d="M22.885,76.389l-0.004,0.028c-0.03,0.376-0.047,0.754-0.068,1.13c2.049,0.277,4.118,0.396,6.182,0.349
			c0.015-0.388,0.035-0.774,0.059-1.162C26.994,76.786,24.93,76.671,22.885,76.389z"/>
		<path fill="#FBB040" d="M31.453,42.225c-0.104,0.364-0.207,0.729-0.311,1.093c1.27,0.431,2.608,0.652,3.941,0.613
			c0.024-0.001,0.048-0.005,0.072-0.007c0.063-0.385,0.113-0.772,0.172-1.16C34.021,42.843,32.698,42.653,31.453,42.225z"/>
		<path fill="#FBB040" d="M29.102,83.999c-0.031-0.388-0.055-0.775-0.077-1.163c-2.019,0.386-4.093,0.496-6.15,0.336
			c0.03,0.393,0.072,0.783,0.114,1.175c0.812,0.057,1.625,0.077,2.438,0.053C26.661,84.363,27.89,84.224,29.102,83.999z"/>
		<path fill="#FBB040" d="M31.909,95.617c-0.155-0.362-0.307-0.725-0.45-1.093c-1.529,1.2-3.186,2.22-4.941,3.029
			c0.156,0.349,0.319,0.694,0.484,1.039C28.741,97.791,30.383,96.786,31.909,95.617z"/>
		<path fill="#FBB040" d="M28.455,52.768c-0.104,0.368-0.209,0.737-0.314,1.105c1.545,0.325,3.125,0.477,4.698,0.43
			c0.068-0.001,0.136-0.011,0.205-0.014c0.089-0.388,0.179-0.775,0.266-1.165C31.69,53.219,30.053,53.095,28.455,52.768z"/>
		<path fill="#FBB040" d="M29.569,48.85c1.476,0.401,2.997,0.631,4.526,0.68c0.081-0.385,0.156-0.772,0.234-1.159
			c-1.5-0.034-2.995-0.234-4.445-0.627C29.778,48.112,29.674,48.481,29.569,48.85z"/>
	</g>
	<g>
		<path fill="#FBB040" d="M36.016,102.5c-0.241-0.297-0.488-0.587-0.716-0.896c-0.028,0.027-0.057,0.056-0.086,0.082
			c-0.066,0.671-0.21,1.336-0.482,1.96C35.173,103.284,35.603,102.896,36.016,102.5z"/>
		<path fill="#FBB040" d="M51.545,111.371c-0.373-0.078-0.748-0.154-1.116-0.242c-0.165,1.864-0.435,3.72-0.967,5.501
			c-0.273,0.911-0.614,1.764-1.006,2.56c0.156,0.065,0.308,0.146,0.466,0.211c0.194,0.079,0.391,0.154,0.587,0.23
			c0.405-0.832,0.755-1.722,1.037-2.667C51.094,115.134,51.374,113.254,51.545,111.371z"/>
		<path fill="#FBB040" d="M40.56,106.833c-0.318-0.229-0.64-0.451-0.943-0.694c-1.526,1.33-3.191,2.49-4.958,3.464
			c0.272,0.283,0.539,0.572,0.817,0.848C37.288,109.426,39,108.22,40.56,106.833z"/>
		<path fill="#FBB040" d="M63.927,121.961c0.269-0.902,0.503-1.818,0.704-2.74c-0.201-0.234-0.401-0.469-0.596-0.707
			c-0.04-0.047-0.08-0.096-0.119-0.144c-0.072-0.09-0.14-0.18-0.211-0.27c-0.256,1.33-0.587,2.642-0.988,3.931
			C63.121,122.016,63.524,121.993,63.927,121.961z"/>
		<path fill="#FBB040" d="M42.541,116.063c1.541-1.857,2.781-3.972,3.655-6.231c-0.357-0.137-0.712-0.273-1.063-0.423
			c-0.847,2.192-2.063,4.232-3.571,6.021C41.884,115.648,42.212,115.854,42.541,116.063z"/>
		<path fill="#FBB040" d="M55.871,121.48c0.826-2.992,1.344-6.07,1.548-9.171c-0.376-0.044-0.751-0.088-1.126-0.137
			c-0.197,3.07-0.711,6.116-1.533,9.075C55.129,121.332,55.5,121.408,55.871,121.48z"/>
	</g>
	<g>
		<path fill="#FBB040" d="M74.803,111.365c-0.385,0.113-0.77,0.217-1.16,0.313c-0.019,0.29-0.04,0.58-0.067,0.869
			c0.338,0.388,0.675,0.775,1.011,1.163C74.683,112.931,74.758,112.15,74.803,111.365z"/>
		<path fill="#FBB040" d="M79.895,109.346c-0.382,0.196-0.769,0.384-1.16,0.562c-0.086,1.868-0.279,3.734-0.576,5.581
			c0.48-0.503,0.936-1.035,1.37-1.58C79.719,112.394,79.844,110.869,79.895,109.346z"/>
	</g>
</g>
</svg>
