<?xml version="1.0" encoding="utf-8"?>
<!-- Generator: Adobe Illustrator 16.0.4, SVG Export Plug-In . SVG Version: 6.00 Build 0)  -->
<!DOCTYPE svg PUBLIC "-//W3C//DTD SVG 1.1//EN" "http://www.w3.org/Graphics/SVG/1.1/DTD/svg11.dtd">
<svg version="1.1" id="Layer_1" xmlns="http://www.w3.org/2000/svg" xmlns:xlink="http://www.w3.org/1999/xlink" x="0px" y="0px"
	 width="170px" height="170px" viewBox="0 0 170 170" enable-background="new 0 0 170 170" xml:space="preserve">
<title>Artboard 9</title>
<g>
	<path fill="#FFB331" d="M111.057,59.545c-17.863,1.688-35.429,5.333-53.081,8.371c-6.775,1.167-13.668,2.613-19.874-0.158
		c-4.651-7.235-3.864-16.375-1.675-24.543c1.616-6.03,4.273-11.841,5.581-17.93c1-4.654,0.817-9.525-0.544-14.102
		c-0.619-2.083-1.781-3.494-2.653-5.322c-0.857-1.799-2.241-3.289-4.506-3.508c-2.383-0.23-4.443,1.494-5.174,3.599
		c-8.859,1.128-17.291,4.957-23.666,10.75c-0.272,0.247-0.458,0.338-0.67,0.631c8.051,2.51,17.207,2.899,25.319,0.559
		c1.696,0.512,2.294,2.263,2.477,3.902c0.183,1.64-0.318,3.271-0.812,4.854c-1.781,5.69-3.561,11.381-5.34,17.073
		c-1.546,4.944-3.1,9.925-3.557,15.053c-0.725,8.155,1.439,16.51,6.083,23.479c0.391,0.586,0.806,1.158,1.23,1.726
		c-1.171,1.771-2.977,3.205-4.768,4.51c-2.339,1.703-4.829,3.411-6.178,5.862c-1.299,2.36-0.269,7.728,0.645,7.495
		c0.427-0.095-0.019-2.239-0.143-3.865c-0.051-0.674,0.174-1.896,0.163-1.775c-0.012,2.24,0.595,3.556,1.799,5.499
		c0.088,0.142,0.215,0.301,0.391,0.29c0.229-0.017,0.305-0.293,0.299-0.506c-0.033-0.97-0.539-1.863-0.885-2.779
		c-0.201-0.531-0.359-1.278-0.462-1.833c0.197,0.583,0.598,1.093,1.126,1.83c0.64,0.897,2.124,2.583,2.469,2.185
		c0.385-0.239-0.393-1.169-0.815-1.662c-1.323-1.543-2.255-3.366-2.193-5.334c1.64-2.143,3.766-3.966,6.201-5.317
		c1.376-0.766,2.907-1.445,4.223-2.297c4.456,5.074,10.299,9.11,16.856,11.569c5.636,2.113,11.985,3.021,17.902,1.977
		c2.049,1.839,4.316,3.469,6.76,4.839c-1.393,8.209-0.988,16.539,0.345,24.758c-3.539,0.779-7.149,2.587-10.403,4.088
		c-0.364,0.168-0.724,0.349-1.073,0.545c-0.155,0.087-0.306,0.178-0.453,0.273c-0.137,0.09-0.271,0.183-0.398,0.283
		c-0.057,0.043-0.11,0.09-0.164,0.136c-0.166,0.141-0.326,0.287-0.464,0.454c-0.652,0.768-0.921,1.892-0.381,2.729
		c3.14,1.108,6.105,1.424,9.463,1.589c2.627-1.55,4.802-3.479,6.565-5.784c0.772-1.013,1.153-2.241,1.119-3.479
		c-0.234-8.261,0.741-16.547,3.948-24.18c1.062-2.529,0.559-5.392-1.387-7.427c-1.08-1.126-2.158-2.254-3.236-3.383
		c4.656-3.851,7.703-9.717,6.812-15.188c2.245-4.391,6.308-7.834,10.888-10.216c4.58-2.386,9.678-3.79,14.795-4.899
		c17.602-3.817,37.062-4.795,54.883-1.988C147.252,58.187,128.92,57.859,111.057,59.545z"/>
	<path fill="#D87A19" d="M24.032,77.47c0.768,0.035,1.555,0.108,2.341,0.171c-0.294-0.619-0.569-1.242-0.829-1.874
		c-1.142,0.197-2.313,0.302-3.461,0.382c-2.971,0.209-6.069,0.343-8.671,1.682c-2.503,1.288-4.894,6.271-3.996,6.55
		c0.411,0.141,1.337-1.866,2.218-3.279c0.365-0.586,1.291-1.484,1.208-1.389c-1.364,1.851-1.658,3.257-1.833,5.489
		c-0.013,0.163-0.004,0.36,0.15,0.441c0.2,0.105,0.43-0.085,0.552-0.265c0.56-0.822,0.68-1.822,0.946-2.763
		c0.157-0.551,0.483-1.26,0.734-1.775c-0.195,0.592-0.173,1.225-0.182,2.116c-0.009,1.074,0.202,3.238,0.73,3.085
		c0.463,0.001,0.38-1.172,0.328-1.799c-0.165-1.964,0.164-3.957,1.404-5.557C18.329,77.752,21.195,77.334,24.032,77.47z"/>
	<path fill="#D87A19" d="M67.746,106.241c1.047-1.663,1.161-3.598,0.362-5.32c-0.435-0.357-0.867-0.716-1.284-1.091
		c-4.238,0.75-8.692,0.481-12.953-0.499c1.785,1.774,3.783,3.404,5.984,4.823c-2.319,7.14-2.869,14.567-2.483,21.995
		c-3.604,0.326-7.398,1.559-10.804,2.555c-0.549,0.16-1.1,0.341-1.612,0.568c-0.145,0.066-0.288,0.135-0.425,0.21
		c-0.062,0.032-0.12,0.067-0.179,0.104c-0.182,0.104-0.356,0.222-0.513,0.352c-0.185,0.154-0.347,0.33-0.481,0.521
		c-0.2,0.283-0.335,0.6-0.379,0.92c-0.043,0.321,0.004,0.643,0.17,0.942c0.374,0.164,0.747,0.316,1.119,0.457
		c2.237,0.853,4.459,1.345,6.876,1.738c0.403,0.063,0.812,0.127,1.227,0.188c2.788-1.104,5.168-2.59,7.184-4.454
		c0.885-0.817,1.403-1.868,1.509-2.97C61.774,119.929,63.688,112.68,67.746,106.241z"/>
	<path fill="#FBD795" d="M44.873,132.646c-1.456,0.45-2.69,0.48-4.197,0.21c0-1.051,0.528-2.092,1.403-2.767
		c0.876-0.671,2.082-0.964,3.202-0.773C46.026,130.789,45.485,131.563,44.873,132.646z"/>
	<path fill="#FBD795" d="M47.586,133.424c-1.456,0.451-2.69,0.481-4.197,0.213c0-1.051,0.528-2.093,1.403-2.767
		c0.875-0.672,2.082-0.964,3.202-0.774C48.542,131.549,48.413,132.393,47.586,133.424z"/>
	<path fill="#FBD795" d="M50.633,134.529c-1.454,0.453-2.69,0.482-4.196,0.213c0-1.052,0.529-2.094,1.404-2.767
		s2.08-0.965,3.201-0.773C51.486,131.783,51.861,133.801,50.633,134.529z"/>
	<path fill="#FFFFFF" d="M37.766,8.099c0.068,2.102-1.724,3.855-4,3.917c-2.275,0.061-4.175-1.593-4.241-3.693
		c-0.067-2.102,1.725-3.856,4-3.917C35.802,4.343,37.7,5.997,37.766,8.099z"/>
	<path fill="#603913" d="M33.555,5.355c1.708-0.046,3.134,1.194,3.186,2.771c0.051,1.577-1.292,2.892-3,2.938
		c-1.708,0.046-3.135-1.194-3.186-2.771C30.503,6.717,31.847,5.401,33.555,5.355z"/>
	<path fill="#FFFFFF" d="M31.565,5.756c0.603-0.016,1.106,0.422,1.125,0.978c0.018,0.556-0.456,1.02-1.059,1.036
		c-0.603,0.017-1.106-0.421-1.124-0.978C30.488,6.237,30.962,5.772,31.565,5.756z"/>
	<g>
		<path fill="#FBD795" d="M83.114,86.939c-3.015,1.964-6.528,3.308-10.148,4.048c0.062,0.064,2.794,2.921,4.099,4.285
			C79.784,93.022,81.957,90.084,83.114,86.939z"/>
		<path fill="#FBD795" d="M65.814,98.893c-0.294-0.285-0.584-0.575-0.87-0.871c-0.034-0.033-0.067-0.068-0.1-0.102
			c-0.276-0.286-0.545-0.577-0.81-0.872c-0.04-0.043-0.08-0.087-0.119-0.131c-0.259-0.29-0.513-0.585-0.764-0.885
			c-0.041-0.048-0.08-0.094-0.12-0.144c-0.248-0.299-0.49-0.601-0.727-0.906c-0.037-0.048-0.073-0.094-0.109-0.143
			c-0.238-0.31-0.471-0.624-0.698-0.94c-0.03-0.041-0.059-0.084-0.09-0.127c-0.232-0.325-0.458-0.656-0.677-0.988
			c-0.018-0.026-0.035-0.057-0.052-0.083c-0.229-0.35-0.453-0.701-0.669-1.061c-1.334-0.094-2.666-0.225-3.99-0.387
			c-5.066-0.62-10.188-1.685-14.506-4.205c-2.464-1.438-4.552-3.309-6.283-5.451c-0.058,0.667-0.201,1.315-0.5,1.934
			c-0.562,1.162-1.538,2.022-2.666,2.753c4.456,5.073,10.299,9.11,16.856,11.57c5.636,2.112,11.985,3.02,17.902,1.976
			c-0.322-0.287-0.636-0.582-0.947-0.879C65.856,98.932,65.835,98.912,65.814,98.893z"/>
		<path fill="#FBD795" d="M29.404,68.163c-1.191-7.467,0.115-15.078,1.876-22.45c1.761-7.371,3.988-14.687,4.666-22.209
			c0.158-1.74,0.225-3.53-0.351-5.192c-0.578-1.662-1.916-3.194-3.745-3.638c-1.955-0.477-3.969,0.336-5.862,0.994
			c-6.648,2.307-14.02,2.799-20.96,1.406c-0.016,0.014-0.032,0.028-0.046,0.042c0.088,0.121,0.185,0.237,0.277,0.354
			c7.939,2.383,16.897,2.717,24.854,0.423c1.696,0.513,2.294,2.263,2.477,3.902c0.183,1.64-0.318,3.272-0.812,4.855
			c-1.781,5.69-3.561,11.381-5.34,17.073c-1.546,4.944-3.1,9.925-3.557,15.053c-0.725,8.156,1.439,16.51,6.083,23.479
			c0.391,0.586,0.806,1.159,1.23,1.725c0.358-0.542,0.663-1.113,0.882-1.724c0.621-1.73,0.292-3.817,1.128-5.373
			C30.819,74.129,29.881,71.153,29.404,68.163z"/>
	</g>
	<g>
		<path fill="#FBD795" d="M83.114,86.939c-3.015,1.964-6.528,3.308-10.148,4.048c0.062,0.064,2.794,2.921,4.099,4.285
			C79.784,93.022,81.957,90.084,83.114,86.939z"/>
		<path fill="#FBD795" d="M65.814,98.893c-0.294-0.285-0.584-0.575-0.87-0.871c-0.034-0.033-0.067-0.068-0.1-0.102
			c-0.276-0.286-0.545-0.577-0.81-0.872c-0.04-0.043-0.08-0.087-0.119-0.131c-0.259-0.29-0.513-0.585-0.764-0.885
			c-0.041-0.048-0.08-0.094-0.12-0.144c-0.248-0.299-0.49-0.601-0.727-0.906c-0.037-0.048-0.073-0.094-0.109-0.143
			c-0.238-0.31-0.471-0.624-0.698-0.94c-0.03-0.041-0.059-0.084-0.09-0.127c-0.232-0.325-0.458-0.656-0.677-0.988
			c-0.018-0.026-0.035-0.057-0.052-0.083c-0.229-0.35-0.453-0.701-0.669-1.061c-1.334-0.094-2.666-0.225-3.99-0.387
			c-5.066-0.62-10.188-1.685-14.506-4.205c-2.464-1.438-4.552-3.309-6.283-5.451c-0.058,0.667-0.201,1.315-0.5,1.934
			c-0.562,1.162-1.538,2.022-2.666,2.753c4.456,5.073,10.299,9.11,16.856,11.57c5.636,2.112,11.985,3.02,17.902,1.976
			c-0.322-0.287-0.636-0.582-0.947-0.879C65.856,98.932,65.835,98.912,65.814,98.893z"/>
		<path fill="#FBD795" d="M29.404,68.163c-1.191-7.467,0.115-15.078,1.876-22.45c1.761-7.371,3.988-14.687,4.666-22.209
			c0.158-1.74,0.225-3.53-0.351-5.192c-0.578-1.662-1.916-3.194-3.745-3.638c-1.955-0.477-3.969,0.336-5.862,0.994
			c-6.648,2.307-14.02,2.799-20.96,1.406c-0.016,0.014-0.032,0.028-0.046,0.042c0.088,0.121,0.185,0.237,0.277,0.354
			c7.939,2.383,16.897,2.717,24.854,0.423c1.696,0.513,2.294,2.263,2.477,3.902c0.183,1.64-0.318,3.272-0.812,4.855
			c-1.781,5.69-3.561,11.381-5.34,17.073c-1.546,4.944-3.1,9.925-3.557,15.053c-0.725,8.156,1.439,16.51,6.083,23.479
			c0.391,0.586,0.806,1.159,1.23,1.725c0.358-0.542,0.663-1.113,0.882-1.724c0.621-1.73,0.292-3.817,1.128-5.373
			C30.819,74.129,29.881,71.153,29.404,68.163z"/>
	</g>
	<path fill="#FBD795" d="M62.352,138.271c-1.39,0.602-2.612,0.763-4.144,0.654c-0.131-1.042,0.265-2.136,1.051-2.896
		c0.787-0.762,1.947-1.18,3.084-1.108C63.053,136.127,62.735,137.176,62.352,138.271z"/>
	<path fill="#FBD795" d="M65.152,139.057c-1.39,0.602-2.612,0.764-4.144,0.655c-0.13-1.045,0.266-2.137,1.052-2.897
		c0.786-0.762,1.948-1.178,3.085-1.106C65.861,136.795,65.817,137.899,65.152,139.057z"/>
	<path fill="#FBD795" d="M68.309,139.534c-1.39,0.602-2.614,0.763-4.144,0.654c-0.13-1.045,0.266-2.135,1.052-2.896
		c0.786-0.762,1.947-1.18,3.083-1.106C68.813,136.715,69.437,138.682,68.309,139.534z"/>
	<g>
		<path fill="#EF4F00" d="M34.277,60.322c-0.381,0.514-0.279,1.282,0.225,1.698c0.311,0.255,0.745,0.334,1.154,0.277
			c-0.25-0.871-0.443-1.76-0.592-2.658C34.783,59.85,34.476,60.055,34.277,60.322z"/>
		<path fill="#EF4F00" d="M34.757,52.928c0.078-1.312,0.229-2.629,0.433-3.937c-0.746,0.195-1.446,0.562-1.877,1.151
			c-0.516,0.704-0.551,1.736,0.073,2.361C33.725,52.845,34.263,52.985,34.757,52.928z"/>
		<path fill="#EF4F00" d="M34.323,47.375c0.216,0.448,0.564,0.825,0.939,1.175c0.208-1.247,0.459-2.487,0.752-3.711
			c-0.548,0.183-1.13,0.309-1.512,0.703C34.034,46.027,34.038,46.785,34.323,47.375z"/>
		<path fill="#EF4F00" d="M78.732,64.216c0.78,2.202,0.508,5.174,2.803,5.925c2.031,0.664,4-1.383,4.35-3.349
			c0.225-1.257,0.088-2.551,0.098-3.827C83.564,63.373,81.148,63.79,78.732,64.216z"/>
		<path fill="#EF4F00" d="M100.609,63.363c0.269-0.855,0.222-1.803,0.386-2.672c-2.854,0.375-5.705,0.791-8.552,1.231
			c0.076,0.597,0.176,1.188,0.393,1.722c0.604,1.475,2.291,2.509,3.996,2.447C98.539,66.03,100.134,64.877,100.609,63.363z"/>
		<path fill="#EF4F00" d="M35.996,30.976c-0.651,1.451,1.583,2.728,1.622,4.298c0.007,0.35-0.096,0.714,0.032,1.042
			c0.122,0.315,0.412,0.506,0.751,0.643c0.741-2.148,1.502-4.292,2.186-6.451c-0.483-0.106-0.968-0.251-1.439-0.365
			C37.991,29.863,36.455,29.958,35.996,30.976z"/>
		<path fill="#EF4F00" d="M39.799,28.404c0.446,0.09,0.906,0.138,1.347,0.24c0.272-0.945,0.521-1.893,0.738-2.848
			c-0.651-0.291-1.334-0.502-2.045-0.441c-1.052,0.09-2.067,1.071-1.698,1.985C38.387,27.948,39.113,28.266,39.799,28.404z"/>
		<path fill="#EF4F00" d="M40.496,68.619c-0.784,1.496-1.369,3.078-1.06,4.683c0.407,2.111,3.211,3.867,5.102,2.624
			c1.167-0.769,1.442-2.256,1.423-3.577c-0.014-1.001-0.131-2.035,0.06-3.005C44.145,69.324,42.296,69.119,40.496,68.619z"/>
		<path fill="#EF4F00" d="M33.886,57.502c0.3,0.019,0.628,0.082,0.926,0.189c-0.088-0.999-0.125-2.008-0.114-3.023
			c-0.497,0.085-1.019,0.114-1.512,0.222c-0.872,0.191-1.791,0.928-1.499,1.711C31.966,57.346,33.033,57.449,33.886,57.502z"/>
		<path fill="#EF4F00" d="M70.797,65.638c-0.002,0.034-0.007,0.069-0.01,0.101c0.018-0.036,0.034-0.072,0.053-0.108L70.797,65.638z"
			/>
		<path fill="#EF4F00" d="M70.787,65.739c-0.153,0.315-0.299,0.632-0.443,0.948C70.612,66.413,70.75,66.083,70.787,65.739z"/>
		<path fill="#EF4F00" d="M114.795,61.948c1.571,0.139,3.182-0.812,3.703-2.188c0.1-0.256,0.169-0.534,0.25-0.803
			c-2.355,0.14-4.709,0.318-7.055,0.533C112.07,60.779,113.348,61.823,114.795,61.948z"/>
		<path fill="#EF4F00" d="M108.225,59.832c0.238,0.169,0.476,0.341,0.711,0.513c0.181-0.255,0.416-0.473,0.681-0.654
			C109.15,59.738,108.688,59.782,108.225,59.832z"/>
		<path fill="#EF4F00" d="M34.955,40.919c0.222,0.774,0.856,1.372,1.625,1.764c0.373-1.338,0.785-2.667,1.228-3.991
			c-0.342-0.133-0.688-0.246-1.057-0.249C35.508,38.436,34.636,39.81,34.955,40.919z"/>
		<path fill="#EF4F00" d="M35.959,63.271c-0.785,0.335-1.546,0.718-2.193,1.241c-0.873,0.71-1.523,1.729-1.479,2.803
			c0.046,1.073,0.94,2.138,2.101,2.216c1.404,0.098,2.464-1.101,3.578-2.004C37.117,66.168,36.456,64.743,35.959,63.271z"/>
		<path fill="#EF4F00" d="M52.48,76.28c1.796-0.51,2.552-2.431,3.057-4.103c0.407-1.351,0.814-2.7,1.221-4.049
			c-2.693,0.47-5.395,0.937-8.06,1.128c-0.517,1.182-0.855,2.407-0.7,3.659C48.248,74.934,50.379,76.876,52.48,76.28z"/>
		<path fill="#EF4F00" d="M66.348,73.964c0.727-2.398-1.292-4.843-1.281-7.295c-1.669,0.299-3.341,0.595-5.01,0.887
			c0.217,0.743,0.009,1.571-0.31,2.298c-0.375,0.851-0.892,1.662-1.047,2.568c-0.312,1.802,1.103,3.714,3.035,4.105
			C63.667,76.916,65.814,75.724,66.348,73.964z"/>
	</g>
	<path fill="#EF4F00" d="M67.744,83.919c0.361,0.289,0.869,0.353,1.344,0.389c0.631,0.046,1.28,0.061,1.886-0.111
		c0.604-0.173,1.167-0.562,1.38-1.116c0.324-0.847-0.24-1.745-0.78-2.492c-0.516-0.714-1.031-1.429-1.547-2.144
		c-0.158-0.217-0.321-0.44-0.56-0.581c-0.238-0.139-0.574-0.174-0.794-0.011c-0.72,0.439-1.159,1.193-1.354,1.972
		c-0.196,0.775-0.174,1.584-0.152,2.381C67.186,82.821,67.24,83.515,67.744,83.919z"/>
	<path fill="#EF4F00" d="M72.553,69.388c-0.968,0.586-1.632,1.58-1.763,2.64c-0.131,1.061,0.276,2.168,1.077,2.936
		c0.674,0.648,1.845,1.035,2.611,0.479c0.681-0.493,0.678-1.453,0.438-2.22c-0.243-0.771-0.663-1.522-0.601-2.32
		c0.041-0.537,0.275-1.153-0.106-1.559C73.812,68.92,73.057,69.084,72.553,69.388z"/>
	<path fill="#EF4F00" d="M90.715,66.375c-1.663,0.903-2.375,3.047-1.548,4.655c0.503,0.271,1.159,0,1.563-0.387
		c0.402-0.388,0.676-0.889,1.121-1.234c0.662-0.514,1.687-0.675,2.074-1.39c0.369-0.678-0.104-1.566-0.854-1.878
		C92.324,65.825,91.424,65.99,90.715,66.375z"/>
	<path fill="#EF4F00" d="M110.014,62.519c-0.252-0.847-1.421-1.34-2.279-0.958c-0.859,0.382-1.172,1.538-0.607,2.25
		c0.564,0.709,1.854,0.781,2.506,0.136C110.01,63.573,110.16,63.014,110.014,62.519z"/>
	<path fill="#EF4F00" d="M53.34,77.418c-0.463,0.679-0.586,1.569-0.236,2.302s1.2,1.264,2.067,1.211
		c0.867-0.054,1.662-0.739,1.695-1.543c0.034-0.817-0.644-1.592-0.466-2.395c0.057-0.253,0.196-0.484,0.245-0.738
		c0.051-0.252-0.02-0.56-0.269-0.675c-0.256-0.119-0.56,0.016-0.808,0.149C54.727,76.179,53.856,76.659,53.34,77.418z"/>
	<path fill="#EF4F00" d="M45.504,78.352c0.512,0.137,1.108-0.071,1.394-0.486c0.284-0.414,0.233-1.001-0.12-1.369
		c-0.517-0.538-1.6-0.439-1.993,0.18C44.406,77.272,44.785,78.156,45.504,78.352z"/>
	<path fill="#EF4F00" d="M63.771,79.169c-0.411-0.297-1.016,0.011-1.342,0.384c-0.454,0.521-0.712,1.186-0.721,1.855
		c0.378,0.196,0.83,0.276,1.26,0.222c0.043-0.466,0.458-0.816,0.752-1.195C64.016,80.053,64.169,79.455,63.771,79.169z"/>
	<path fill="#501900" d="M10.416,15.84c-0.501,0.167-1.033,0.254-1.565,0.259c0.234-0.608,0.788-1.105,1.453-1.304
		c0.253-0.075,0.57-0.094,0.744,0.092c0.156,0.167,0.116,0.437-0.031,0.608C10.869,15.669,10.641,15.766,10.416,15.84z"/>
	<path fill="#8B4C00" d="M5.009,16.892c0,0,1.6,0.254,2.017,0.321c0.415,0.074,0.885,0.141,1.402,0.173
		c0.514,0.043,1.072,0.093,1.661,0.144c0.587,0.064,1.217,0.035,1.862,0.06c0.646,0.007,1.313,0.042,1.991-0.015
		c0.676-0.035,1.364-0.07,2.052-0.105c0.683-0.082,1.365-0.166,2.036-0.247c0.675-0.061,1.324-0.208,1.955-0.325
		c0.627-0.133,1.247-0.21,1.811-0.375c0.567-0.151,1.103-0.293,1.598-0.425c0.498-0.118,0.942-0.264,1.332-0.406
		c0.392-0.134,1.926-0.661,1.926-0.661c0.207-0.071,0.437,0.026,0.514,0.216c0.077,0.192-0.035,0.406-0.241,0.478
		c0,0-1.561,0.487-1.964,0.612c-0.401,0.133-0.859,0.269-1.372,0.376c-0.508,0.121-1.058,0.249-1.64,0.387
		c-0.579,0.151-1.212,0.213-1.854,0.331c-0.646,0.101-1.308,0.231-1.994,0.276c-0.683,0.063-1.377,0.127-2.07,0.192
		c-0.697,0.017-1.394,0.033-2.079,0.05c-0.686,0.037-1.359-0.016-2.011-0.042c-0.651-0.041-1.282-0.03-1.876-0.113
		c-0.594-0.068-1.155-0.133-1.673-0.192c-0.521-0.047-0.99-0.127-1.401-0.212c-0.413-0.077-2.005-0.375-2.005-0.375
		c-0.037-0.007-0.061-0.04-0.053-0.076C4.939,16.908,4.974,16.886,5.009,16.892z"/>
	<g opacity="0.41">
		<path fill="#FFFFFF" d="M84.004,82.669c0.013-0.226,0.023-0.453,0.021-0.678c-0.025,0.051-0.057,0.095-0.083,0.145
			C83.971,82.313,83.984,82.492,84.004,82.669z"/>
		<path fill="#FFFFFF" d="M38.143,69.074c6.206,2.771,13.099,1.324,19.875,0.158c17.652-3.038,35.218-6.686,53.08-8.371
			c11.123-1.05,22.426-1.319,33.521-0.214c4.521,0.046,9.021,0.302,13.449,0.77c-15.305-3.277-31.34-3.35-47.012-1.87
			c-17.863,1.687-35.43,5.333-53.082,8.372c-6.775,1.166-13.668,2.612-19.874-0.159c-2.129-3.313-3.109-7.027-3.346-10.861
			C34.834,61.197,35.772,65.385,38.143,69.074z"/>
		<path fill="#FFFFFF" d="M29.172,7.269c0.73-2.107,2.791-3.831,5.173-3.6c2.267,0.22,3.65,1.709,4.508,3.51
			c0.871,1.826,2.033,3.239,2.652,5.322c0.604,2.028,0.961,4.115,1.102,6.215c0.003-0.424-0.022-0.848-0.039-1.272
			c-0.137-2.115-0.497-4.215-1.104-6.258c-0.619-2.083-1.781-3.495-2.653-5.322c-0.857-1.799-2.241-3.289-4.506-3.508
			c-2.383-0.23-4.443,1.494-5.174,3.6c-8.859,1.128-17.291,4.957-23.666,10.75c-0.029,0.027-0.053,0.045-0.081,0.069
			c0.388,0.114,0.775,0.23,1.167,0.336C12.788,11.826,20.787,8.335,29.172,7.269z"/>
	</g>
	<g opacity="0.31">
		<path fill="#B86029" d="M80.594,91.546c-1.617,0.829-3.302,1.545-5.027,2.159c0.499,0.523,0.998,1.043,1.498,1.567
			C78.389,94.175,79.582,92.913,80.594,91.546z"/>
		<path fill="#B86029" d="M32.065,86.285c4.456,5.073,10.299,9.109,16.856,11.569c5.636,2.112,11.985,3.021,17.902,1.977
			c-0.322-0.287-0.636-0.581-0.947-0.88c-0.02-0.019-0.042-0.039-0.062-0.058c-0.294-0.286-0.584-0.575-0.87-0.871
			c-0.034-0.033-0.067-0.068-0.1-0.103c-0.276-0.285-0.545-0.576-0.81-0.87c-0.04-0.044-0.08-0.088-0.119-0.132
			c-0.242-0.271-0.477-0.545-0.71-0.822c-1.146,0.045-2.292,0.056-3.439,0c-9.794-0.47-19.284-4.609-26.042-11.156
			C33.244,85.442,32.682,85.885,32.065,86.285z"/>
		<path fill="#B86029" d="M30.195,83.98c0.358-0.541,0.663-1.112,0.882-1.723c0.015-0.043,0.024-0.09,0.038-0.135
			c-0.285-0.343-0.575-0.685-0.848-1.04c-3.059-3.997-5.19-8.532-7.005-13.131c0.865,5.05,2.799,9.949,5.702,14.305
			C29.355,82.843,29.771,83.416,30.195,83.98z"/>
	</g>
	<g>
		<path fill="#FBB040" d="M26.838,42.442c-0.105,0.339-0.211,0.677-0.317,1.016c1.177,0.126,2.363,0.18,3.546,0.148
			c0.587-0.016,1.174-0.057,1.758-0.113c0.09-0.359,0.179-0.717,0.27-1.076C30.354,42.609,28.586,42.617,26.838,42.442z"/>
		<path fill="#FBB040" d="M24.285,72.296c1.967-0.184,3.898-0.663,5.694-1.423c-0.089-0.349-0.169-0.699-0.246-1.048
			c-1.8,0.794-3.751,1.28-5.737,1.448C24.089,71.615,24.184,71.957,24.285,72.296z"/>
		<path fill="#FBB040" d="M23.561,54.236c1.954,0.378,3.946,0.573,5.936,0.586c0.048-0.349,0.099-0.698,0.153-1.047
			c-1.97-0.002-3.944-0.193-5.878-0.568C23.696,53.548,23.629,53.893,23.561,54.236z"/>
		<path fill="#FBB040" d="M28.315,49.582c0.71-0.019,1.422-0.068,2.131-0.144c0.075-0.362,0.151-0.725,0.23-1.085
			c-1.883,0.227-3.783,0.236-5.66,0.049c-0.099,0.343-0.199,0.685-0.295,1.028C25.913,49.557,27.113,49.614,28.315,49.582z"/>
		<path fill="#FBB040" d="M22.885,58.751l-0.004,0.025c-0.03,0.342-0.047,0.686-0.068,1.027c2.049,0.252,4.118,0.36,6.182,0.317
			c0.015-0.353,0.035-0.704,0.059-1.056C26.994,59.112,24.93,59.007,22.885,58.751z"/>
		<path fill="#FBB040" d="M31.453,27.691c-0.104,0.331-0.207,0.663-0.311,0.993c1.27,0.392,2.608,0.593,3.941,0.558
			c0.024,0,0.048-0.005,0.072-0.006c0.063-0.35,0.113-0.702,0.172-1.055C34.021,28.252,32.698,28.08,31.453,27.691z"/>
		<path fill="#FBB040" d="M29.102,65.669c-0.031-0.353-0.055-0.705-0.077-1.058c-2.019,0.351-4.093,0.451-6.15,0.305
			c0.03,0.357,0.072,0.712,0.114,1.069c0.812,0.051,1.625,0.07,2.438,0.048C26.661,66,27.89,65.874,29.102,65.669z"/>
		<path fill="#FBB040" d="M31.909,76.231c-0.155-0.329-0.307-0.658-0.45-0.994c-1.529,1.092-3.186,2.019-4.941,2.754
			c0.156,0.318,0.319,0.632,0.484,0.945C28.741,78.208,30.383,77.295,31.909,76.231z"/>
		<path fill="#FBB040" d="M28.455,37.276c-0.104,0.334-0.209,0.67-0.314,1.004c1.545,0.296,3.125,0.434,4.698,0.391
			c0.068,0,0.136-0.01,0.205-0.012c0.089-0.353,0.179-0.705,0.266-1.059C31.69,37.686,30.053,37.573,28.455,37.276z"/>
		<path fill="#FBB040" d="M29.569,33.714c1.476,0.364,2.997,0.574,4.526,0.618c0.081-0.35,0.156-0.702,0.234-1.054
			c-1.5-0.031-2.995-0.212-4.445-0.57C29.778,33.042,29.674,33.378,29.569,33.714z"/>
	</g>
	<g>
		<path fill="#FBB040" d="M36.016,82.489c-0.241-0.27-0.488-0.533-0.716-0.815c-0.028,0.025-0.057,0.052-0.086,0.075
			c-0.066,0.61-0.21,1.214-0.482,1.782C35.173,83.202,35.603,82.85,36.016,82.489z"/>
		<path fill="#FBB040" d="M51.545,90.555c-0.373-0.071-0.748-0.141-1.116-0.221c-0.165,1.695-0.435,3.383-0.967,5.001
			c-0.273,0.829-0.614,1.604-1.006,2.327c0.156,0.06,0.308,0.134,0.466,0.192c0.194,0.072,0.391,0.14,0.587,0.209
			c0.405-0.756,0.755-1.565,1.037-2.425C51.094,93.976,51.374,92.266,51.545,90.555z"/>
		<path fill="#FBB040" d="M40.56,86.429c-0.318-0.209-0.64-0.41-0.943-0.632c-1.526,1.21-3.191,2.265-4.958,3.15
			c0.272,0.257,0.539,0.52,0.817,0.771C37.288,88.786,39,87.689,40.56,86.429z"/>
		<path fill="#FBB040" d="M63.927,100.182c0.269-0.82,0.503-1.652,0.704-2.491c-0.201-0.213-0.401-0.426-0.596-0.643
			c-0.04-0.043-0.08-0.087-0.119-0.131c-0.072-0.081-0.14-0.164-0.211-0.245c-0.256,1.209-0.587,2.402-0.988,3.574
			C63.121,100.231,63.524,100.211,63.927,100.182z"/>
		<path fill="#FBB040" d="M42.541,94.819c1.541-1.688,2.781-3.61,3.655-5.664c-0.357-0.124-0.712-0.249-1.063-0.385
			c-0.847,1.993-2.063,3.847-3.571,5.474C41.884,94.443,42.212,94.63,42.541,94.819z"/>
		<path fill="#FBB040" d="M55.871,99.745c0.826-2.721,1.344-5.519,1.548-8.339c-0.376-0.039-0.751-0.079-1.126-0.124
			c-0.197,2.791-0.711,5.561-1.533,8.251C55.129,99.61,55.5,99.68,55.871,99.745z"/>
	</g>
	<g>
		<path fill="#FBB040" d="M74.803,90.549c-0.385,0.104-0.77,0.197-1.16,0.284c-0.019,0.264-0.04,0.527-0.067,0.79
			c0.338,0.354,0.675,0.705,1.011,1.058C74.683,91.973,74.758,91.263,74.803,90.549z"/>
		<path fill="#FBB040" d="M79.895,88.713c-0.382,0.179-0.769,0.35-1.16,0.512c-0.086,1.697-0.279,3.395-0.576,5.073
			c0.48-0.457,0.936-0.94,1.37-1.437C79.719,91.484,79.844,90.098,79.895,88.713z"/>
	</g>
</g>
</svg>
