<?xml version="1.0" encoding="utf-8"?>
<!-- Generator: Adobe Illustrator 16.0.4, SVG Export Plug-In . SVG Version: 6.00 Build 0)  -->
<!DOCTYPE svg PUBLIC "-//W3C//DTD SVG 1.1//EN" "http://www.w3.org/Graphics/SVG/1.1/DTD/svg11.dtd">
<svg version="1.1" id="Layer_1" xmlns="http://www.w3.org/2000/svg" xmlns:xlink="http://www.w3.org/1999/xlink" x="0px" y="0px"
	 width="170px" height="170px" viewBox="0 0 170 170" enable-background="new 0 0 170 170" xml:space="preserve">
<title>Artboard 9</title>
<g>
	<path fill="#F2B226" d="M77.075,67.928c1.624-5.146,1.759-11.706,6.324-14.585c4.215-2.658,9.471-2.883,14.456-2.929
		c16.911-0.153,33.812,1.113,50.543,3.585c-1.24-0.042-3.002,0.376-4.194,0.722c-7.316,2.124-14.746,3.86-22.247,5.199
		c-4.138,0.739-8.567,1.485-11.635,4.36c-2.776,2.6-3.904,6.451-5.151,10.043c-4.568,13.163-12.254,25.227-22.239,34.945
		c-8.161-5.079-16.103-10.573-24.004-16.131C67.438,86.937,73.906,77.972,77.075,67.928z"/>
	<path fill="#AACF39" d="M53.308,89.181c-1.516-3.536-1.888-7.552-1.047-11.306c2.819-2.41,5.329-5.198,8.149-7.608
		c0.515-0.44,1.045-0.9,1.332-1.514c0.286-0.615,0.26-1.431-0.247-1.881c-0.657-0.583-1.677-0.289-2.493,0.036
		c-7.359,2.93-14.719,5.859-22.077,8.789c-10.451,4.16-21.233,6.719-30.545,13.026c-2.068,1.401-4.277,3.238-4.367,5.734
		c13.003-0.217,26.119-0.783,39.122-1c5.573,4.264,8.678,10.658,10.85,17.332c2.172,6.673,4.566,13.753,10.033,18.151
		c4.909,3.947,11.694,5.06,17.892,3.942c6.199-1.117,11.872-4.258,16.9-8.05c8.398,2.321,16.447,4.045,24.845,6.366
		c5.081,1.404,15.261,6.046,15.312,5.414c1.394-0.122-6.84-3.432-10.651-4.89c3.379,0.937,9.011,2.548,12.446,3.283
		c0.979,0.209,1.211-0.439,0.267-0.778c-3.081-1.104-8.123-2.784-11.337-3.276c2.842,0.368,5.692,0.692,8.54,1.035
		c0.339,0.04,0.438-0.45,0.109-0.541c-5.427-1.49-11.065-2.211-16.396-4.017C95.427,119.126,74.395,104.037,53.308,89.181z"/>
	<path fill="#FFC546" d="M53.308,89.181c-1.516-3.536-1.888-7.552-1.047-11.306c2.819-2.41,5.329-5.198,8.149-7.608
		c0.515-0.44,1.045-0.9,1.332-1.514c0.286-0.615,0.26-1.431-0.247-1.881c-0.657-0.583-1.677-0.289-2.493,0.036
		c-7.359,2.93-14.719,5.859-22.077,8.789c-10.451,4.16-21.233,6.719-30.545,13.026c-2.068,1.401-4.277,3.238-4.367,5.734
		c13.003-0.217,26.119-0.783,39.122-1c5.573,4.264,8.678,10.658,10.85,17.332c2.172,6.673,4.566,13.753,10.033,18.151
		c4.909,3.947,11.694,5.06,17.892,3.942c6.199-1.117,11.872-4.258,16.9-8.05c8.398,2.321,16.447,4.045,24.845,6.366
		c5.081,1.404,15.261,6.046,15.312,5.414c1.394-0.122-6.84-3.432-10.651-4.89c3.379,0.937,9.011,2.548,12.446,3.283
		c0.979,0.209,1.211-0.439,0.267-0.778c-3.081-1.104-8.123-2.784-11.337-3.276c2.842,0.368,5.692,0.692,8.54,1.035
		c0.339,0.04,0.438-0.45,0.109-0.541c-5.427-1.49-11.065-2.211-16.396-4.017C95.427,119.126,74.395,104.037,53.308,89.181z"/>
	<path fill="#FFDC65" d="M100.801,76.731c4.884-3.347,9.804-6.9,15.518-8.453c5.593-1.519,11.568-0.996,17.189,0.411
		c12.177,3.046,22.944,10.017,33.456,16.874c-10.618-0.669-20.404-0.123-30.982,1.022c-2.694,0.292-5.479,0.677-7.768,2.127
		c-2.427,1.538-3.995,4.08-5.607,6.458c-4.964,7.318-11.104,13.836-18.114,19.229c-1.91,1.468-3.98,2.875-6.227,3.67
		c-11.125-5.783-21.432-12.462-31.821-19.646C78.144,91.534,89.599,84.406,100.801,76.731z"/>
	<g>
		<path fill="#FFC546" d="M96.498,103.501c-7.347-3.62-15.395-5.729-22.3-7.312c-0.312-0.072-0.507-0.383-0.434-0.695
			c0.071-0.311,0.386-0.505,0.693-0.434c6.97,1.598,15.1,3.728,22.553,7.4c4.631,2.283,8.685,5.041,12.035,8.154
			c-0.289,0.258-0.585,0.511-0.877,0.764C104.917,108.378,100.987,105.714,96.498,103.501z"/>
		<path fill="#FFC546" d="M148.02,85.563c-1.029,0.06-2.064,0.132-3.098,0.208c-17.872-5.535-37.332-5.574-55.171,0.143
			c-0.089,0.028-0.177,0.033-0.262,0.021c-0.211-0.031-0.397-0.18-0.466-0.396c-0.098-0.305,0.068-0.631,0.373-0.729
			C108.382,78.726,129.184,79.077,148.02,85.563z"/>
		<path fill="#FFC546" d="M78.76,93.398c-0.314,0.067-0.622-0.129-0.691-0.441c-0.069-0.313,0.128-0.621,0.44-0.691
			c14.21-3.136,29.705-1.543,43.189,4.186c-0.228,0.324-0.452,0.649-0.687,0.97C107.803,91.865,92.657,90.33,78.76,93.398z"/>
	</g>
	<circle fill="#FFFFFF" cx="44.026" cy="84.073" r="4.241"/>
	<circle fill="#363D00" cx="44.025" cy="84.073" r="3.182"/>
	<circle fill="#FFFFFF" cx="46.308" cy="82.718" r="1.123"/>
	<path fill="#F2B226" d="M105.659,135.988c5.217,2.11,10.804,3.157,16.136,4.959c0.323,0.109,0.195,0.594-0.141,0.534
		c-2.822-0.507-5.648-0.996-8.466-1.528c3.179,0.677,8.117,2.647,11.128,3.929c0.923,0.391,0.656,1.026-0.311,0.76
		c-3.387-0.933-8.917-2.866-12.235-3.997c3.721,1.675,11.748,5.454,10.35,5.497c-0.085,0.628-9.979-4.596-14.971-6.291
		c-7.257-2.466-16.397-5.245-24.026-7.756c3.001-0.894,5.865-2.221,8.578-3.831C96.263,131.134,101.057,134.124,105.659,135.988z"/>
	<path fill="#EEA81E" d="M2.013,94.457c0.09-2.496,2.299-4.333,4.367-5.734c7.1-4.808,15.054-7.439,23.063-10.261
		c1.061,1.014,1.918,2.265,2.609,3.567c1.867,3.529,2.693,7.597,2.366,11.576C23.624,93.868,12.781,94.277,2.013,94.457z"/>
	<g opacity="0.32">
		<path fill="#E58823" d="M6.043,92.477c0.73-0.084,1.458-0.176,2.188-0.249c11.916-0.248,23.906-0.727,35.807-0.925
			c5.574,4.264,8.678,10.659,10.85,17.332c2.172,6.672,4.565,13.754,10.035,18.151c4.907,3.948,11.693,5.059,17.891,3.943
			c5-0.9,9.647-3.134,13.902-5.946l-0.007,0.041c-0.003,0.029-0.001,0.058-0.003,0.085c-5.005,3.756-10.64,6.865-16.795,7.974
			c-6.198,1.117-12.983,0.005-17.892-3.942c-5.467-4.398-7.861-11.479-10.033-18.151c-2.172-6.674-5.277-13.068-10.85-17.332
			c-13.003,0.216-26.119,0.783-39.122,1c0.008-0.203,0.034-0.401,0.068-0.596C3.371,93.245,4.696,92.81,6.043,92.477z"/>
	</g>
	<g opacity="0.26">
		<path fill="#FFFFFF" d="M122.549,68.132c0.988-0.094,1.943-0.268,2.851-0.711c2.729,0.146,5.458,0.605,8.108,1.268
			c12.177,3.046,22.944,10.017,33.456,16.874c-1.46-0.092-2.904-0.156-4.337-0.204c-9.262-5.963-22.875-13.247-33.52-15.91
			C128.198,69.221,125.219,68.457,122.549,68.132z"/>
	</g>
	<path fill="#FFC546" d="M64.834,99.295c11.881-8.398,25.372-16.398,37.097-23.339c4.306-2.548,8.303-5.644,12.877-7.667
		c4.573-2.024,14.417-2.996,14.602-2.445c-0.032,0.385-3.825,1.013-5.796,1.089c2.59-0.371,7.464,0.614,7.264,0.792
		c0.07,0.346-4.555,0.592-7.064,0.38c2.088-0.007,6.242,1.099,6.033,1.438c0.148,0.426-10.658-3.327-14.288-0.5
		c-14.682,11.431-31.225,22.738-47.319,32.079C65.364,99.3,66.456,100.107,64.834,99.295z"/>
	<g opacity="0.13">
		<path fill="#FFFFFF" d="M61.409,69.277c-0.062-0.11-0.127-0.219-0.225-0.307c-0.655-0.583-1.677-0.289-2.493,0.036
			c-7.359,2.93-14.718,5.859-22.077,8.789c-10.45,4.16-21.232,6.719-30.545,13.027c-1.438,0.974-2.941,2.159-3.755,3.628
			c-0.101,0.002-0.201,0.005-0.3,0.007c0.09-2.496,2.299-4.333,4.367-5.734c9.312-6.307,20.095-8.866,30.545-13.026
			c7.358-2.93,14.718-5.859,22.077-8.789c0.816-0.325,1.835-0.619,2.493-0.036c0.507,0.451,0.533,1.267,0.247,1.881
			C61.653,68.942,61.537,69.114,61.409,69.277z"/>
		<path fill="#FFFFFF" d="M51.913,80.18c-0.281,3.055,0.187,6.18,1.396,9c21.087,14.856,42.119,29.945,66.637,38.249
			c5.33,1.806,10.969,2.526,16.396,4.017c0.329,0.091,0.229,0.581-0.109,0.541c-10.206-1.227-20.234-3.833-29.74-7.745
			c-9.608-3.953-18.494-9.397-27.219-14.986c-0.182-0.116-0.365-0.234-0.547-0.352c-8.748-5.619-17.23-11.638-25.727-17.625
			C51.509,87.808,51.129,83.875,51.913,80.18z"/>
	</g>
	<path fill="#501900" d="M29.235,82.064c-0.366-0.023-0.724-0.168-1.003-0.408c0.195-0.172,0.397-0.349,0.643-0.44
		c0.245-0.092,0.544-0.082,0.74,0.092c0.194,0.174,0.215,0.533-0.002,0.68C29.505,82.062,29.366,82.072,29.235,82.064z"/>
	<path fill="#BE6F30" d="M1.983,94.453c0.027-0.002,0.055-0.007,0.082-0.018c9.312-3.36,19.048-5.075,28.957-5.108
		c1.696-0.004,3.436-0.119,4.394-1.418c0.096-0.13,0.067-0.311-0.062-0.405c-0.126-0.097-0.31-0.069-0.405,0.062
		c-0.796,1.081-2.377,1.175-3.929,1.183c-9.965,0.029-19.776,1.759-29.152,5.144c-0.15,0.054-0.227,0.22-0.174,0.371
		C1.738,94.386,1.858,94.461,1.983,94.453z"/>
</g>
</svg>
