<?xml version="1.0" encoding="utf-8"?>
<svg version="1.1" id="Layer_1" xmlns="http://www.w3.org/2000/svg" xmlns:xlink="http://www.w3.org/1999/xlink" x="0px" y="0px"
	 viewBox="0 0 1316.472 1645.737" enable-background="new 0 0 1316.472 1645.737" xml:space="preserve">
<g>
	<path fill="#F2DBAA" stroke="#F2DBAA" stroke-width="0.4167" d="M634.399,22.868h35.392c40.817,1.3,81.592,4.667,122.042,10.292
		c51.1,7.275,101.875,18.408,150.258,36.625c23.692,8.933,46.75,19.642,68.575,32.5c-5.308,4.467-10.283,9.333-14.833,14.575
		c-3.875-0.642-7.492,1.175-11.075,2.308c-7.983,2.5-15.625,6.142-22.542,10.833c-4.425,3.625-9.117,7.475-11.358,12.892
		c-0.9,1.992-1.725,4.017-2.392,6.092c-10.983-4.4-21.8-9.208-32.867-13.383c-80.15-30.75-165.775-45.658-251.367-49.1
		c-20.275-0.9-40.567-0.592-60.85-0.542c-75.708,1.625-151.175,11.217-225.083,27.567c-2.95,0.583-5.867,1.325-8.725,2.267
		c-6.992-5.492-14.608-10.083-22.35-14.417c52.867-31.475,111.35-53.05,171.533-65.492
		C556.799,27.977,595.583,23.977,634.399,22.868z"/>
	<path fill="#231F20" stroke="#231F20" stroke-width="0.4167" d="M241.658,35.202c6.642-0.383,13.333-0.717,19.967-0.125
		c3.508,1.258,6.267,3.975,9.392,5.958c22.242,15.808,43.258,33.408,62.1,53.167c11.025,11.933,21.408,24.658,29.083,39.042
		c4.892,9.325,8.833,19.433,9.517,30.025c-0.942,2.758-0.95,5.65,0,8.4c-0.383,7.667-3.333,14.933-7.05,21.558
		c-4.467,8-10.583,15.008-17.525,20.967c-16.342,13.892-36.383,22.125-54.967,32.442c-13.408,7.392-26.492,16.008-36.425,27.833
		c-8.25,9.658-14.017,21.317-17.183,33.6c-2.692,9.975-3.275,20.325-4.825,30.5c-3.592,24.6-8.392,49.125-16.325,72.717
		c-4.2,12.042-9.1,24.108-17.017,34.233c-4.517,5.442-11.442,10.417-18.883,8.25c1.3-0.167,2.608-0.35,3.917-0.533
		c6.392-14.3,10.233-29.592,13.358-44.892c8.075-43.233,8.608-87.417,8-131.25c-0.342-14.108-0.333-28.217-1.242-42.3
		c-0.708-31.75-2.775-63.458-2.533-95.217c0.25-16.658-0.917-33.725,3.875-49.9c4.375-15.675,13.15-29.817,23.942-41.883
		c3.767-4.475,8.275-8.242,12.167-12.592H241.658z"/>
	<path fill="#414042" stroke="#414042" stroke-width="0.4167" d="M165.349,59.81c22.883-14.3,49.317-23.117,76.308-24.608h1.342
		c-3.892,4.35-8.4,8.117-12.167,12.592c-10.792,12.067-19.567,26.208-23.942,41.883c-4.792,16.175-3.625,33.242-3.875,49.9
		c-0.242,31.758,1.825,63.467,2.533,95.217c0.908,14.083,0.9,28.192,1.242,42.3c0.608,43.833,0.075,88.017-8,131.25
		c-3.125,15.3-6.967,30.592-13.358,44.892c-1.308,0.183-2.617,0.367-3.917,0.533c-3.65-0.975-6.6-3.5-9.333-5.975
		c-5.1-5.783-8.825-12.708-14.667-17.85c-8.917-8.783-19.383-15.742-29.717-22.7c-18.742-12.317-38.058-23.958-55.017-38.725
		c-14.4-12.508-27.067-27.8-33.275-46.075c-2.417-6.925-3.767-14.192-4.458-21.483v-14.3c1.883-16.583,6.5-32.683,11.133-48.667
		c13.325-43.817,32.533-86.308,60.217-122.992C122.741,93.468,142.299,74.093,165.349,59.81z"/>
	<path fill="#414042" stroke="#414042" stroke-width="0.4167" d="M1129.308,57.443c18.3-2.083,37.35-1.633,54.808,4.775
		c13.1,4.683,24.783,13,33.933,23.433c9.842,11.067,17.1,24.15,23.242,37.558c12.933,28.708,21.317,59.183,33.667,88.125
		c9.242,21.775,7.425,46.475,1.717,68.925c-4.417,17.117-11.158,33.567-19.158,49.308c-12.45,24-27.383,46.858-45.35,67.1
		c0.05,0.45,0.142,1.333,0.192,1.783c-0.242-0.158-0.733-0.458-0.975-0.617c-4.25,4.675-8.575,9.283-13.15,13.633
		c-5.442,5.067-11.117,9.983-17.6,13.667c-4.767,2.775-10.292,3.642-15.558,4.967c-8.6,1.883-17.458,3.25-26.275,2.508
		c-0.725-1.392-0.758-2.925-0.017-4.317c6.983-16.4,9.467-34.367,9.475-52.092c0.192-21.242-2.492-42.358-5.458-63.35
		c-4.133-28.383-9.15-56.625-13.85-84.917c-1.708-9.85-2.933-19.842-6.192-29.342c-7.317-22.725-21.575-42.567-38.058-59.558
		c-17.817-18.3-38.542-33.433-59.925-47.25C1055.858,71.393,1092.716,61.693,1129.308,57.443z"/>
	<path fill="#FFF4D2" stroke="#FFF4D2" stroke-width="0.4167" d="M378.299,113.527c73.908-16.35,149.375-25.942,225.083-27.567
		c20.283-0.05,40.575-0.358,60.85,0.542c85.592,3.442,171.217,18.35,251.367,49.1c11.067,4.175,21.883,8.983,32.867,13.383
		c-0.992,7.967,1.033,16.033,4.783,23.058c14.542,27.35,35.142,50.75,55.167,74.15c14.85,17.658,29.925,36,37.642,58.075
		c8.758,26.267,19.575,51.833,31.867,76.633c7.133,14.083,14.792,27.975,24.258,40.65c4.933,6.383,10.333,12.967,17.858,16.367
		c5.217,2.467,12.375-0.233,13.925-5.992c1.592,0.25,3.208,0.467,4.833,0.683c8.817,0.742,17.675-0.625,26.275-2.508
		c5.267-1.325,10.792-2.192,15.558-4.967c6.483-3.683,12.158-8.6,17.6-13.667c-11.35,72.308-22.475,145.05-44.475,215.058
		c-7.95,26.742-20.792,52.275-39.158,73.4c-16.383,19.117-37.042,34.358-59.642,45.35c-13.883,6.65-28.433,11.9-43.342,15.742
		c-4.2,1.067-8.583,1.65-12.433,3.775c-35.675-9.942-71.925-17.8-107.35-28.667c-14.667-4.858-29.9-9.65-42.183-19.375
		c0.675-21.667-0.467-43.5-4.692-64.792c-5.075-25.65-15.783-50.883-34.367-69.692c-18.442-19.008-43.483-30.3-69.083-35.85
		c-13.5-2.908-27.258-4.692-41.058-5.142c-10.808-0.583-21.642-0.533-32.45-0.008c-32.708,1.217-65.708,6.533-95.975,19.433
		c-25.05,10.625-47.767,27.308-64.083,49.225c-14.383,19.083-23.808,41.55-29.267,64.725c-1.983,7.875-2.742,16.075-5.683,23.7
		c-4.875,13.458-14.2,24.875-25.092,33.967c-17.242,14.292-37.683,23.95-58.075,32.825c-29.125,12.442-59.058,22.992-87.75,36.467
		c-19.608,9.242-38.825,19.708-55.8,33.308c-20.833,16.55-37.542,38.325-47.983,62.808c-8.817,20.683-12.492,43.367-11.617,65.792
		c0.125,4.858,0.667,9.692,1.167,14.525c-23.033-38.575-33.967-82.892-41.192-126.842c-9.5-59.808-12.392-120.417-14.55-180.858
		c-1.208-42.825-2.867-85.767-9.417-128.167c-2.583-16.308-4.792-32.775-4.108-49.333c1.058-28.708,5.292-57.175,9.225-85.6
		c10.333,6.958,20.8,13.917,29.717,22.7c0.8,5.1,3.992,9.375,7.3,13.167c1.933,2.258,4.475,3.925,7.367,4.683
		c2.733,2.475,5.683,5,9.333,5.975c7.442,2.167,14.367-2.808,18.883-8.25c2.517-0.492,4.992-1.275,7.183-2.617
		c13.583-7.65,24.267-19.675,32.108-33.008c9.892-15.417,16.45-32.65,22.567-49.825c6.842-19.042,12.117-38.667,20.208-57.25
		c2.567-5.708,5.467-11.417,9.825-16c3.05-3.308,7.317-4.958,11.133-7.175c23.1-13.008,45.375-27.933,64.367-46.542
		c12.517-12.433,23.617-26.842,29.558-43.617c4.375-12.867,5.717-27.475,0.417-40.275c-5.65-13.742-16.475-24.642-28.192-33.417
		C372.433,114.852,375.349,114.11,378.299,113.527 M374.233,277.01c-22.583,5.625-44.592,13.375-66.167,22.067
		c-3.958,1.867-8.292,3.033-11.95,5.467c-0.083,0.425-0.233,1.275-0.317,1.7c3.167-0.908,6.233-2.1,9.317-3.267
		c19.633-7.433,39.692-13.75,60-19.067c20.375-5.05,41.292-9.45,62.408-8.2c8.233,0.633,17.008,2.392,23.367,8.025
		c10.158,10.167,19.467,21.142,28.617,32.2c9.192,11.058,18.092,22.408,28.358,32.5c4.042,3.792,8.183,7.658,13.25,10.042
		c3.2,1.558,6.992,1.933,9.767,4.325c4.45,3.742,7.633,8.717,10.6,13.658c6.317,11.033,10.792,23.067,13.908,35.375
		c4.542,19.092,6.008,39.325,1.317,58.542c-0.808,3.633-2.45,7.042-3.15,10.708c0.375,0.058,1.125,0.183,1.5,0.242
		c2.092-3.342,3.108-7.225,4.342-10.933c5.592-19.508,4.783-40.358,0.425-60.025c-3.325-14.4-8.275-28.6-16.2-41.158
		c-2.933-4.433-6.142-8.842-10.467-12.017c-3.242-2.442-7.517-2.7-10.917-4.85c-7.092-4.358-12.717-10.625-18.25-16.75
		c-14.708-16.708-28.267-34.425-43.725-50.467c-2.992-3.133-5.908-6.442-9.675-8.658c-7.392-4.517-16.167-5.983-24.692-6.35
		C408.433,269.552,391.141,272.952,374.233,277.01 M971.916,294.077c-2.867,2.35-4.683,5.692-7.275,8.317
		c-9.642,11.1-23.025,18.625-37.333,21.792c-21.717,5.108-44.067,6.5-66.158,9.083c-13.458,1.75-27.317,1.842-40.25,6.383
		c-19.608,6.583-35.05,21.908-45.575,39.325c-13.283,22.267-20.417,47.633-24.7,73.05c-1.983,13.742-3.883,27.6-3.683,41.508
		c0.375,0.083,1.125,0.25,1.5,0.325c0.733-3.075,0.542-6.258,0.833-9.383c1.2-15.483,3.575-30.875,7.017-46.017
		c3.658-15.633,8.5-31.067,15.608-45.5c5.492-11.342,12.45-22.075,21.308-31.083c8.65-8.7,19.217-15.7,31.033-19.217
		c9.4-3.008,19.333-3.442,29.058-4.667c22.267-2.65,44.692-4.367,66.725-8.717c11.683-2.475,23.475-5.992,33.233-13.117
		c7.633-5.617,14.233-12.667,19.5-20.517C973.549,295.11,972.691,293.085,971.916,294.077 M342.549,340.452
		c-33.425,6.3-64.467,24.15-86.908,49.683c-20,22.6-33.217,51.142-37.292,81.058c-4.6,32.367,1.342,66.158,16.883,94.942
		c-1.508,28.425,10.875,57.242,32.792,75.458c20.183,17.092,46.183,25.567,71.983,29.475c19.208,2.675,38.925,4.342,58.117,0.575
		c17.025-3.158,33.258-10.108,47.55-19.842c22.967-15.683,40.567-38.375,52.292-63.433c1.425-3.333,3.383-6.567,3.642-10.267
		c13.175-20.308,21.808-43.608,24.425-67.708c3.517-30.775-2.317-62.592-16.858-89.958c-14.675-27.908-38.075-51.117-66.108-65.542
		C412.441,338.935,376.416,333.952,342.549,340.452 M642.824,357.46c-10.583,0.417-21.225,1.1-31.6,3.342
		c-3.308,0.875-6.783,1.583-9.683,3.483c-1.183,0.825-2.85,2.308-1.733,3.842c1.95,2.617,5.367,3.375,8.317,4.3
		c13.683,3.517,27.908,4.017,41.958,4.325c14.217-0.45,28.65-0.792,42.425-4.708c2.667-0.867,5.725-1.825,7.275-4.35
		c0.392-2.45-2.333-3.7-4.142-4.567c-7.967-3.167-16.6-3.917-25.042-4.875C661.358,357.61,652.091,357.06,642.824,357.46
		 M947.491,359.385c-39.975,6.217-76.908,29.092-100.6,61.842c-15.658,21.433-25.675,46.975-28.633,73.367
		c-2.742,23.375,0.008,47.308,7.642,69.55c0.117,4.758,1.783,9.267,3.175,13.767c7.517,23.717,18.492,46.575,34.025,66.117
		c15.442,19.475,36.442,35.025,60.55,41.767c18.283,5.242,37.725,5.65,56.433,2.65c31.183-4.45,61.65-16.725,85.675-37.342
		c22.942-19.408,39.742-45.517,49.667-73.758c0.975-3.25,2.6-6.492,2.125-9.975c3.05-8.217,5.342-16.708,7.033-25.308
		c0.842-5.342,2.158-10.725,1.983-16.15c1.125-8.908,1.1-18.008,0-26.925c-0.583-13.392-3.975-26.633-8.375-39.267
		c-14.383-40.233-46.242-73.758-85.667-90.2c-15.683-6.492-32.483-10.892-49.467-11.525c-6.958-0.717-14.033-0.75-20.992-0.017
		C957.183,357.685,952.324,358.793,947.491,359.385 M144.474,511.935c-3.425,3.9-3.7,9.325-4.425,14.225
		c-1.308,11.917-1.175,24,0.325,35.892c0.558,3.458,1.15,7.05,2.892,10.15c0.633,0.9,1.442,1.075,2.433,0.517
		c1.308-1.433,1.792-3.375,2.283-5.2c1.992-8.9,2.267-18.067,2.225-27.158c-0.133-7.825-0.642-15.725-2.525-23.342
		C147.283,514.96,146.008,513.293,144.474,511.935 M157.716,602.993c-3.258,9.908-3.775,20.425-5.1,30.7
		c-2.308,23.017-4.7,46.058-5.308,69.2c-0.708,18.058-0.083,36.15,1.183,54.175c2.725,33.5,8.708,66.958,20.517,98.525
		c4.108,10.442,8.383,20.958,14.733,30.275c1.367,1.775,2.875,4.333,5.5,3.95c5.033-0.325,7.317-5.9,7.65-10.267
		c0.867-11.117-4.075-21.583-9.133-31.15c-6.758-11.892-8.992-25.583-11.675-38.808c-3.158-17.717-5.258-35.608-7.125-53.508
		c-4.033-42.35-6.558-84.85-7.492-127.383c-0.542-8.317-0.5-16.758-2.442-24.9C158.699,603.602,158.041,603.193,157.716,602.993z"/>
	<path fill="#231F20" stroke="#231F20" stroke-width="0.4167" d="M1010.666,102.285c4.492-3.775,9.25-7.217,14.108-10.5
		c21.383,13.817,42.108,28.95,59.925,47.25c16.483,16.992,30.742,36.833,38.058,59.558c3.258,9.5,4.483,19.492,6.192,29.342
		c4.7,28.292,9.717,56.533,13.85,84.917c2.967,20.992,5.65,42.108,5.458,63.35c-0.008,17.725-2.492,35.692-9.475,52.092
		c-0.742,1.392-0.708,2.925,0.017,4.317c-1.625-0.217-3.242-0.433-4.833-0.683c-12.258-1.908-23.233-9.45-29.942-19.808
		c-8.692-13.108-12.408-28.767-14.608-44.142c-2.017-17.45-8.033-34.142-15.208-50.067c-12.333-26.975-28.242-52.142-45.217-76.392
		c-17.65-24.958-36.583-49.017-56.767-71.975c1.85-19.567,10.892-37.9,23.608-52.683
		C1000.383,111.618,1005.358,106.752,1010.666,102.285z"/>
	<path fill="#F4DC9F" stroke="#F4DC9F" stroke-width="0.4167" d="M333.116,94.202c4.775,2.25,9.492,4.617,14.108,7.175
		c7.742,4.333,15.358,8.925,22.35,14.417c11.717,8.775,22.542,19.675,28.192,33.417c5.3,12.8,3.958,27.408-0.417,40.275
		c-5.942,16.775-17.042,31.183-29.558,43.617c-18.992,18.608-41.267,33.533-64.367,46.542c-3.817,2.217-8.083,3.867-11.133,7.175
		c-4.358,4.583-7.258,10.292-9.825,16c-8.092,18.583-13.367,38.208-20.208,57.25c-6.117,17.175-12.675,34.408-22.567,49.825
		c-7.842,13.333-18.525,25.358-32.108,33.008c-2.192,1.342-4.667,2.125-7.183,2.617c7.917-10.125,12.817-22.192,17.017-34.233
		c7.933-23.592,12.733-48.117,16.325-72.717c1.55-10.175,2.133-20.525,4.825-30.5c3.167-12.283,8.933-23.942,17.183-33.6
		c9.933-11.825,23.017-20.442,36.425-27.833c18.583-10.317,38.625-18.55,54.967-32.442c6.942-5.958,13.058-12.967,17.525-20.967
		c3.717-6.625,6.667-13.892,7.05-21.558c0.217-2.792,0.208-5.6,0-8.4c-0.683-10.592-4.625-20.7-9.517-30.025
		C354.524,118.86,344.141,106.135,333.116,94.202z"/>
	<path fill="#F4DC9F" stroke="#F4DC9F" stroke-width="0.4167" d="M984.758,119.168c3.583-1.133,7.2-2.95,11.075-2.308
		c-12.717,14.783-21.758,33.117-23.608,52.683c20.183,22.958,39.117,47.017,56.767,71.975c16.975,24.25,32.883,49.417,45.217,76.392
		c7.175,15.925,13.192,32.617,15.208,50.067c2.2,15.375,5.917,31.033,14.608,44.142c6.708,10.358,17.683,17.9,29.942,19.808
		c-1.55,5.758-8.708,8.458-13.925,5.992c-7.525-3.4-12.925-9.983-17.858-16.367c-9.467-12.675-17.125-26.567-24.258-40.65
		c-12.292-24.8-23.108-50.367-31.867-76.633c-7.717-22.075-22.792-40.417-37.642-58.075c-20.025-23.4-40.625-46.8-55.167-74.15
		c-3.75-7.025-5.775-15.092-4.783-23.058c0.667-2.075,1.492-4.1,2.392-6.092c2.242-5.417,6.933-9.267,11.358-12.892
		C969.133,125.31,976.774,121.668,984.758,119.168z"/>
	<path fill="#07060E" stroke="#07060E" stroke-width="0.4167" d="M371.716,171.668c-0.95-2.75-0.942-5.642,0-8.4
		C371.924,166.068,371.933,168.877,371.716,171.668z"/>
	<path fill="#F4DC9F" stroke="#F4DC9F" stroke-width="0.4167" d="M374.233,277.01c16.908-4.058,34.2-7.458,51.667-6.892
		c8.525,0.367,17.3,1.833,24.692,6.35c3.767,2.217,6.683,5.525,9.675,8.658c15.458,16.042,29.017,33.758,43.725,50.467
		c5.533,6.125,11.158,12.392,18.25,16.75c3.4,2.15,7.675,2.408,10.917,4.85c4.325,3.175,7.533,7.583,10.467,12.017
		c7.925,12.558,12.875,26.758,16.2,41.158c4.358,19.667,5.167,40.517-0.425,60.025c-1.233,3.708-2.25,7.592-4.342,10.933
		c-0.375-0.058-1.125-0.183-1.5-0.242c0.7-3.667,2.342-7.075,3.15-10.708c4.692-19.217,3.225-39.45-1.317-58.542
		c-3.117-12.308-7.592-24.342-13.908-35.375c-2.967-4.942-6.15-9.917-10.6-13.658c-2.775-2.392-6.567-2.767-9.767-4.325
		c-5.067-2.383-9.208-6.25-13.25-10.042c-10.267-10.092-19.167-21.442-28.358-32.5c-9.15-11.058-18.458-22.033-28.617-32.2
		c-6.358-5.633-15.133-7.392-23.367-8.025c-21.117-1.25-42.033,3.15-62.408,8.2c-20.308,5.317-40.367,11.633-60,19.067
		c-3.083,1.167-6.15,2.358-9.317,3.267c0.083-0.425,0.233-1.275,0.317-1.7c3.658-2.433,7.992-3.6,11.95-5.467
		C329.641,290.385,351.649,282.635,374.233,277.01z"/>
	<path fill="#F4DC9F" stroke="#F4DC9F" stroke-width="0.4167" d="M971.916,294.077c0.775-0.992,1.633,1.033,0.842,1.567
		c-5.267,7.85-11.867,14.9-19.5,20.517c-9.758,7.125-21.55,10.642-33.233,13.117c-22.033,4.35-44.458,6.067-66.725,8.717
		c-9.725,1.225-19.658,1.658-29.058,4.667c-11.817,3.517-22.383,10.517-31.033,19.217c-8.858,9.008-15.817,19.742-21.308,31.083
		c-7.108,14.433-11.95,29.867-15.608,45.5c-3.442,15.142-5.817,30.533-7.017,46.017c-0.292,3.125-0.1,6.308-0.833,9.383
		c-0.375-0.075-1.125-0.242-1.5-0.325c-0.2-13.908,1.7-27.767,3.683-41.508c4.283-25.417,11.417-50.783,24.7-73.05
		c10.525-17.417,25.967-32.742,45.575-39.325c12.933-4.542,26.792-4.633,40.25-6.383c22.092-2.583,44.442-3.975,66.158-9.083
		c14.308-3.167,27.692-10.692,37.333-21.792C967.233,299.768,969.049,296.427,971.916,294.077z"/>
	<path fill="#6D6E71" stroke="#6D6E71" stroke-width="0.4167" d="M342.549,340.452c33.867-6.5,69.892-1.517,100.517,14.442
		c28.033,14.425,51.433,37.633,66.108,65.542c14.542,27.367,20.375,59.183,16.858,89.958c-2.617,24.1-11.25,47.4-24.425,67.708
		c-14.542,21.75-34.392,39.983-57.617,52.1c-29.083,15.375-63.158,20.958-95.65,15.917c-27.142-4.075-53.075-15.658-74.325-33.017
		c-15.842-12.908-29.117-28.958-38.783-46.967c-15.542-28.783-21.483-62.575-16.883-94.942
		c4.075-29.917,17.292-58.458,37.292-81.058C278.083,364.602,309.124,346.752,342.549,340.452 M340.941,392.91
		c-5.992,2.125-12.217,3.983-17.55,7.533c-11.508,5.825-21.742,14.167-30.242,23.867c-19.458,22.125-28.667,52.775-24.7,81.975
		c3.542,28.942,20.083,55.892,44.1,72.375c24.575,17.267,56.817,22.825,85.817,15.142c27.283-6.975,51.25-25.667,64.842-50.325
		c14.65-26.025,17.117-58.45,6.808-86.458c-9.458-26.192-29.908-48.292-55.433-59.483l-0.142-0.283
		c-6.275-2.717-12.758-4.958-19.367-6.708C377.316,385.935,358.241,386.877,340.941,392.91z"/>
	<path fill="#FFFFFF" stroke="#FFFFFF" stroke-width="0.4167" d="M642.824,357.46c9.267-0.4,18.533,0.15,27.775,0.792
		c8.442,0.958,17.075,1.708,25.042,4.875c1.808,0.867,4.533,2.117,4.142,4.567c-1.55,2.525-4.608,3.483-7.275,4.35
		c-13.775,3.917-28.208,4.258-42.425,4.708c-14.05-0.308-28.275-0.808-41.958-4.325c-2.95-0.925-6.367-1.683-8.317-4.3
		c-1.117-1.533,0.55-3.017,1.733-3.842c2.9-1.9,6.375-2.608,9.683-3.483C621.599,358.56,632.241,357.877,642.824,357.46z"/>
	<path fill="#58595B" stroke="#58595B" stroke-width="0.4167" d="M947.491,359.385c4.833-0.592,9.692-1.7,14.575-1.408
		c6.917,1.067,14.075,1.025,20.992,0.017c16.983,0.633,33.783,5.033,49.467,11.525c39.425,16.442,71.283,49.967,85.667,90.2
		c4.4,12.633,7.792,25.875,8.375,39.267c-0.858,3.45-0.767,7.008-0.508,10.533c0.417,5.458-0.9,11.008,0.508,16.392
		c0.175,5.425-1.142,10.808-1.983,16.15c-1.692,8.6-3.983,17.092-7.033,25.308c-9.717,25.1-25.742,47.767-46.575,64.858
		c-21.808,18.058-48.667,29.958-76.717,33.875c-30.717,4.35-62.733-0.575-90.542-14.408c-27.2-13.375-50.267-34.942-65.492-61.142
		c-4.95-8.383-8.9-17.308-12.325-26.408c-7.633-22.242-10.383-46.175-7.642-69.55c2.958-26.392,12.975-51.933,28.633-73.367
		C870.583,388.477,907.516,365.602,947.491,359.385 M933.216,409.935l0.442,0.308c-6.4,0.858-12.583,2.933-18.567,5.3
		c-23.475,9.425-43.308,27.608-54.558,50.275c-11.925,23.617-14.183,51.842-6.483,77.125c4.633,15.333,12.917,29.533,23.9,41.2
		c19.458,20.8,47.742,33.092,76.267,32.725c27.858,0.175,55.483-11.658,74.725-31.783c22.05-22.458,32.817-55.3,28.408-86.45
		c-3.817-30.508-22.167-58.65-48.292-74.783c-10.517-6.383-22.05-11.525-34.25-13.517l0.483-0.242
		C961.474,407.135,947.066,407.227,933.216,409.935z"/>
	<path fill="#40434A" stroke="#40434A" stroke-width="0.4167" d="M962.066,357.977c6.958-0.733,14.033-0.7,20.992,0.017
		C976.141,359.002,968.983,359.043,962.066,357.977z"/>
	<path fill="#414042" stroke="#414042" stroke-width="0.4167" d="M340.941,392.91c17.3-6.033,36.375-6.975,54.133-2.367
		c6.608,1.75,13.092,3.992,19.367,6.708l0.142,0.283c0.1,0.192,0.292,0.583,0.392,0.775c21.975,11.283,38.867,31.8,45.833,55.483
		c8.825,29.117,2.308,62.467-17.4,85.75c-17.983,22.058-46.6,34.9-75.042,33.55c-31-0.867-60.817-18.7-76.325-45.55
		c-15.208-25.333-17-58.075-4.825-84.967c6.4-14.2,16.308-26.858,28.792-36.2c2.892-2.125,6.017-3.933,8.8-6.217l-1.417,0.283
		C328.724,396.893,334.949,395.035,340.941,392.91 M360.341,423.293c-14.642,2.542-28.208,10.825-37.083,22.758
		c-8.133,10.683-12.4,24.208-11.842,37.625c0.342,15.225,7.1,30.058,18.008,40.617c10.133,9.942,24.025,15.875,38.175,16.608
		c15.117,0.825,30.475-4.475,41.858-14.442c7.525-6.467,13.275-14.9,16.783-24.167c5.108-13.983,4.842-29.9-0.992-43.625
		c-6.042-14.583-18.208-26.467-32.933-32.15C382.241,422.418,371.033,421.602,360.341,423.293z"/>
	<path fill="#231F20" stroke="#231F20" stroke-width="0.4167" d="M414.974,398.31c-0.1-0.192-0.292-0.583-0.392-0.775
		c25.525,11.192,45.975,33.292,55.433,59.483c10.308,28.008,7.842,60.433-6.808,86.458c-13.592,24.658-37.558,43.35-64.842,50.325
		c-29,7.683-61.242,2.125-85.817-15.142c-24.017-16.483-40.558-43.433-44.1-72.375c-3.967-29.2,5.242-59.85,24.7-81.975
		c8.5-9.7,18.733-18.042,30.242-23.867l1.417-0.283c-2.783,2.283-5.908,4.092-8.8,6.217c-12.483,9.342-22.392,22-28.792,36.2
		c-12.175,26.892-10.383,59.633,4.825,84.967c15.508,26.85,45.325,44.683,76.325,45.55c28.442,1.35,57.058-11.492,75.042-33.55
		c19.708-23.283,26.225-56.633,17.4-85.75C453.841,430.11,436.949,409.593,414.974,398.31z"/>
	<path fill="#F2DBAA" stroke="#F2DBAA" stroke-width="0.4167" d="M1211.383,397.835c0.242,0.158,0.733,0.458,0.975,0.617
		c3.05,11.45,4.775,23.175,6.075,34.933c0.167,11.792,0.65,23.608-0.3,35.392c-2.483,34.617-8.858,68.8-12.458,103.3
		c-1.35,11.95-2.358,23.942-3.442,35.917c-0.325,3.75-1.167,7.658,0.283,11.292c-0.542,7.05-1.058,14.108-1.517,21.167
		c0.275-3.442,0.292-6.917-0.417-10.292c-0.667,4.1-0.608,8.3,0.258,12.375c-1.25,27.592-1.167,55.242,0.475,82.817
		c0.242,8.35,1.25,16.683,0.783,25.042c-0.908,29.85-7.358,59.317-16.708,87.608c-9.942,29.6-23.275,58.142-40.442,84.25
		c5.55-13.542,9.858-27.917,9.592-42.692c-0.083-14.85-5.117-29.517-13.833-41.5c-7.267-10.058-16.558-18.542-26.692-25.633
		c-21.267-14.858-45.375-25.025-69.733-33.608c-14.85-5.233-29.967-9.675-45.1-14.025c3.85-2.125,8.233-2.708,12.433-3.775
		c14.908-3.842,29.458-9.092,43.342-15.742c22.6-10.992,43.258-26.233,59.642-45.35c18.367-21.125,31.208-46.658,39.158-73.4
		c22-70.008,33.125-142.75,44.475-215.058C1202.808,407.118,1207.133,402.51,1211.383,397.835z"/>
	<path fill="#414042" stroke="#414042" stroke-width="0.4167" d="M933.216,409.935c13.85-2.708,28.258-2.8,42.075,0.158
		l-0.483,0.242c-0.142,0.075-0.442,0.217-0.592,0.292c12.658,3.017,24.917,8.167,35.275,16.133
		c12.033,8.925,21.733,20.883,28.167,34.408c12.892,26.55,11.842,59.308-2.683,85.008c-14.85,27.125-44.033,45.717-74.933,47.442
		c-27.617,2.042-55.742-9.267-74.375-29.717c-11.6-12.575-19.658-28.425-22.833-45.242c-4.6-22.875,0.083-47.425,12.6-67.108
		c13.067-20.783,34.625-36.108,58.775-40.942c-0.133-0.092-0.417-0.275-0.55-0.367L933.216,409.935 M937.216,452.485
		c-19.467,5.4-35.342,21.717-40.5,41.217c-5.117,18.658-0.558,39.767,12.317,54.308c10.567,12.358,26.408,20.142,42.708,20.467
		c16.292,0.808,32.783-5.692,44.15-17.383c10.975-10.825,17.367-26.167,17.258-41.592c0.217-15.475-6.125-30.875-17.042-41.817
		c-9.883-10.117-23.517-16.383-37.575-17.533l0.908,0.967c-3.767-0.417-7.575-0.4-11.333,0.042l0.95-0.942
		C944.991,450.227,941.116,451.527,937.216,452.485z"/>
	<path fill="#231F20" stroke="#231F20" stroke-width="0.4167" d="M915.091,415.543c5.983-2.367,12.167-4.442,18.567-5.3
		c0.133,0.092,0.417,0.275,0.55,0.367c-24.15,4.833-45.708,20.158-58.775,40.942c-12.517,19.683-17.2,44.233-12.6,67.108
		c3.175,16.817,11.233,32.667,22.833,45.242c18.633,20.45,46.758,31.758,74.375,29.717c30.9-1.725,60.083-20.317,74.933-47.442
		c14.525-25.7,15.575-58.458,2.683-85.008c-6.433-13.525-16.133-25.483-28.167-34.408c-10.358-7.967-22.617-13.117-35.275-16.133
		c0.15-0.075,0.45-0.217,0.592-0.292c12.2,1.992,23.733,7.133,34.25,13.517c26.125,16.133,44.475,44.275,48.292,74.783
		c4.408,31.15-6.358,63.992-28.408,86.45c-19.242,20.125-46.867,31.958-74.725,31.783c-28.525,0.367-56.808-11.925-76.267-32.725
		c-10.983-11.667-19.267-25.867-23.9-41.2c-7.7-25.283-5.442-53.508,6.483-77.125C871.783,443.152,891.616,424.968,915.091,415.543z
		"/>
	<path fill="#231F20" stroke="#231F20" stroke-width="0.4167" d="M360.341,423.293c10.692-1.692,21.9-0.875,31.975,3.225
		c14.725,5.683,26.892,17.567,32.933,32.15c5.833,13.725,6.1,29.642,0.992,43.625c-3.508,9.267-9.258,17.7-16.783,24.167
		c-11.383,9.967-26.742,15.267-41.858,14.442c-14.15-0.733-28.042-6.667-38.175-16.608c-10.908-10.558-17.667-25.392-18.008-40.617
		c-0.558-13.417,3.708-26.942,11.842-37.625C332.133,434.118,345.699,425.835,360.341,423.293 M337.083,435.568
		c-7.983,5.267-13.158,14.45-13.542,24c-0.425,8.583,2.967,17.267,9.142,23.242c5.642,5.6,13.525,8.8,21.475,8.733
		c-0.708,5.517,1.308,11.383,5.883,14.708c5.075,3.975,12.675,4.2,17.942,0.458c4.983-3.283,7.55-9.642,6.392-15.475
		c-0.633-4.308-3.508-7.925-7.017-10.342c4.75-5.692,7.517-13.042,7.258-20.492c-0.008-10.15-5.658-19.95-14.225-25.292
		C360.466,428.677,346.824,428.885,337.083,435.568z"/>
	<path fill="#F2DA9F" stroke="#F2DA9F" stroke-width="0.4167" d="M157.516,429.943c5.842,5.142,9.567,12.067,14.667,17.85
		c-2.892-0.758-5.433-2.425-7.367-4.683C161.508,439.318,158.316,435.043,157.516,429.943z"/>
	<path fill="#FFFFFF" stroke="#FFFFFF" stroke-width="0.4167" d="M337.083,435.568c9.742-6.683,23.383-6.892,33.308-0.458
		c8.567,5.342,14.217,15.142,14.225,25.292c0.258,7.45-2.508,14.8-7.258,20.492c3.508,2.417,6.383,6.033,7.017,10.342
		c1.158,5.833-1.408,12.192-6.392,15.475c-5.267,3.742-12.867,3.517-17.942-0.458c-4.575-3.325-6.592-9.192-5.883-14.708
		c-7.95,0.067-15.833-3.133-21.475-8.733c-6.175-5.975-9.567-14.658-9.142-23.242C323.924,450.018,329.099,440.835,337.083,435.568z
		"/>
	<path fill="#FFF4D2" stroke="#FFF4D2" stroke-width="0.4167" d="M1218.433,433.385c5.808,21.533,5.842,44.242,2.742,66.208
		c-2.617,18.783-6.65,37.325-9.958,55.992c-3.842,21.092-6.817,42.342-8.7,63.7c-1.45-3.633-0.608-7.542-0.283-11.292
		c1.083-11.975,2.092-23.967,3.442-35.917c3.6-34.5,9.975-68.683,12.458-103.3C1219.083,456.993,1218.599,445.177,1218.433,433.385z
		"/>
	<path fill="#231F20" stroke="#231F20" stroke-width="0.4167" d="M937.216,452.485c3.9-0.958,7.775-2.258,11.842-2.267l-0.95,0.942
		c-6.933,1.317-13.458,4.75-18.267,9.942c-7.517,7.842-10.683,19.55-8.133,30.108c2.008,9.175,8.283,17.075,16.408,21.667
		c-0.783,3.525-1.158,7.308,0.1,10.775c2.092,6.408,8.425,11.158,15.2,11.208c7.45,0.392,14.65-4.983,16.483-12.192
		c0.917-3.217,0.492-6.583-0.183-9.792c6.45-3.75,11.883-9.425,14.708-16.4c4.2-9.942,3.117-21.917-2.892-30.9
		c-4.942-7.625-13.158-12.9-22.092-14.458l-0.908-0.967c14.058,1.15,27.692,7.417,37.575,17.533
		c10.917,10.942,17.258,26.342,17.042,41.817c0.108,15.425-6.283,30.767-17.258,41.592c-11.367,11.692-27.858,18.192-44.15,17.383
		c-16.3-0.325-32.142-8.108-42.708-20.467c-12.875-14.542-17.433-35.65-12.317-54.308
		C901.874,474.202,917.749,457.885,937.216,452.485z"/>
	<path fill="#FFFFFF" stroke="#FFFFFF" stroke-width="0.4167" d="M929.841,461.102c4.808-5.192,11.333-8.625,18.267-9.942
		c3.758-0.442,7.567-0.458,11.333-0.042c8.933,1.558,17.15,6.833,22.092,14.458c6.008,8.983,7.092,20.958,2.892,30.9
		c-2.825,6.975-8.258,12.65-14.708,16.4c0.675,3.208,1.1,6.575,0.183,9.792c-1.833,7.208-9.033,12.583-16.483,12.192
		c-6.775-0.05-13.108-4.8-15.2-11.208c-1.258-3.467-0.883-7.25-0.1-10.775c-8.125-4.592-14.4-12.492-16.408-21.667
		C919.158,480.652,922.324,468.943,929.841,461.102z"/>
	<path fill="#46484E" stroke="#46484E" stroke-width="0.4167" d="M1126.058,509.518c-0.258-3.525-0.35-7.083,0.508-10.533
		c1.1,8.917,1.125,18.017,0,26.925C1125.158,520.527,1126.474,514.977,1126.058,509.518z"/>
	<path fill="#FFFFFF" stroke="#FFFFFF" stroke-width="0.4167" d="M144.474,511.935c1.533,1.358,2.808,3.025,3.208,5.083
		c1.883,7.617,2.392,15.517,2.525,23.342c0.042,9.092-0.233,18.258-2.225,27.158c-0.492,1.825-0.975,3.767-2.283,5.2
		c-0.992,0.558-1.8,0.383-2.433-0.517c-1.742-3.1-2.333-6.692-2.892-10.15c-1.5-11.892-1.633-23.975-0.325-35.892
		C140.774,521.26,141.049,515.835,144.474,511.935z"/>
	<path fill="#58595B" stroke="#58595B" stroke-width="0.4167" d="M572.024,560.702c30.267-12.9,63.267-18.217,95.975-19.433
		c5.6,1.25,11.35,0.658,17.033,0.758c5.142-0.067,10.358,0.475,15.417-0.75c13.8,0.45,27.558,2.233,41.058,5.142
		c25.6,5.55,50.642,16.842,69.083,35.85c18.583,18.808,29.292,44.042,34.367,69.692c4.225,21.292,5.367,43.125,4.692,64.792
		c12.283,9.725,27.517,14.517,42.183,19.375c35.425,10.867,71.675,18.725,107.35,28.667c15.133,4.35,30.25,8.792,45.1,14.025
		c24.358,8.583,48.467,18.75,69.733,33.608c-13.458,25.05-29.592,48.75-48.75,69.8c-21.483,23.633-47.258,43.642-76.308,57.1
		c-33.392,15.758-70.675,22.633-107.492,21.567c1.842-2.425,3.633-5.75,1.792-8.7c-2.183-4.35-9.2-4.35-11.258,0.117
		c-1.633,2.808-0.05,5.875,1.475,8.333c-36.6-1.783-72.583-10.383-107.033-22.583c-20.95-7.45-41.308-16.433-61.35-26.033
		c-7.083-3.433-14.075-7.15-21.617-9.5c-0.1-0.367-0.308-1.092-0.408-1.45c1.425-18.258,1.458-36.592,1.567-54.892
		c-0.092-21.125-0.358-42.275-2.233-63.325c-0.442-5.35-1.2-10.683-2.625-15.858c15.575,0.017,31.625-2.242,45.483-9.742
		c9.633-5.15,17.517-13.25,22.825-22.758c2.65-4.375,4.517-9.192,5.967-14.083c3.258-10.825,4.65-22.117,4.983-33.383
		c0.258-11.008,0.775-22.117-1.017-33.033c-1.733-10.95-6.225-21.958-14.825-29.3c-8.517-7.425-19.733-10.708-30.7-12.333
		c-10.733-1.558-21.617-1.625-32.425-1.317c-8.883,0.508-17.775-0.475-26.65,0.15c-14.808,0.958-29.867,3.842-42.9,11.217
		c-9.608,5.433-17.725,13.883-21.633,24.317c-3.283,8.492-4.092,17.775-3.342,26.8c1.783,15.85,4.175,31.783,9.608,46.85
		c1.75,5.267,4,10.383,7.033,15.05c6.05,10.225,15.2,18.625,26.125,23.383c15.617,6.925,33.025,8.033,49.892,8.2
		c-2.267,7.308-2.658,14.992-3.25,22.567c-1.458,19.958-1.708,39.975-1.767,59.975c0.125,18.908,0.508,37.817,1.892,56.683
		c-12.033,7.133-23.092,15.767-34.592,23.7c-27.733,19.667-56.6,37.875-87.15,52.858c-28.992,14.233-59.392,25.692-90.792,33.35
		c-36.45,8.992-74.192,12.825-111.692,10.725c-33.55-2.05-66.8-9.7-97.692-23.008c-23.867-10.317-46.325-23.925-66.483-40.35
		c-0.875-22.425,2.8-45.108,11.617-65.792c10.442-24.483,27.15-46.258,47.983-62.808c16.975-13.6,36.192-24.067,55.8-33.308
		c28.692-13.475,58.625-24.025,87.75-36.467c20.392-8.875,40.833-18.533,58.075-32.825c10.892-9.092,20.217-20.508,25.092-33.967
		c2.942-7.625,3.7-15.825,5.683-23.7c5.458-23.175,14.883-45.642,29.267-64.725C524.258,588.01,546.974,571.327,572.024,560.702
		 M652.524,583.935c-16.8,1.658-33.633,5.55-48.583,13.592c-12.475,6.608-23.525,15.908-32.033,27.183
		c-16,20.867-23.542,46.658-28.95,72.017c-5.267,24.675-10.725,50.475-26.342,70.992c-15.258,20.783-37.933,34.567-61.225,44.708
		c-16.55,6.942-32.975,14.242-48.633,23.058c-36.2,20.083-69.758,44.967-99.442,73.842c-1.217,1.25-2.733,2.467-3.008,4.308
		c1.4,0.358,2.442-0.6,3.358-1.492c9.433-9.475,19.608-18.175,30.017-26.558c34.017-27.2,71.683-49.983,112.042-66.433
		c8.15-3.3,16.158-6.917,23.967-10.967c18.417-9.733,35.783-22.45,47.917-39.625c10.075-13.95,16.35-30.267,20.542-46.858
		c5.9-23.35,9.392-47.567,19.492-69.633c5.192-11.833,12.208-22.933,21.108-32.333c8.942-9.275,19.842-16.625,31.758-21.525
		c17.783-7.375,37.225-9.917,56.358-9.808c16.592-0.242,33.267,0.817,49.558,4.083c10.608,2.017,21.083,5.108,30.742,10.017
		c10.408,5.025,19.692,12.467,26.583,21.775c10.15,14.042,14.233,31.55,14.725,48.65c0.442,11.667-1.142,23.3-0.692,34.967
		c0.308,18.892,3.925,38.45,14.717,54.317c7.575,11.383,18.883,19.667,30.883,25.908c16.483,8.083,34.183,13.275,51.875,17.983
		c17.6,4.983,35.7,7.867,53.4,12.433c28.15,7.067,53.208,22.6,76.492,39.45c2.142,1.425,4.167,3.633,6.992,3.375
		c-2.683-3.925-7.2-5.883-10.767-8.842c-18.817-13.367-38.508-26.133-60.525-33.55c-18.417-6.358-37.75-9.358-56.542-14.358
		c-18.283-4.892-36.667-9.883-53.925-17.767c-13.25-6.008-25.708-14.642-34.017-26.767c-4.117-6.342-7.375-13.267-9.483-20.525
		c-4.825-16.783-4.933-34.475-3.85-51.767c1.2-19.783-0.608-40.55-10.208-58.25c-5.783-11.158-14.825-20.467-25.433-27.125
		c-17.583-11.15-38.425-15.567-58.85-17.833C685.933,582.877,669.158,582.585,652.524,583.935 M584.466,781.543
		c-4.317,1.667-5.225,8.075-1.5,10.85c3.675,3.233,10.208,0.425,10.317-4.492C593.858,783.352,588.616,779.568,584.466,781.543
		 M738.691,782.368c-4.433,0.85-6.283,6.758-3.467,10.15c2.75,3.917,9.767,2.742,11.008-1.933
		C747.974,786.102,743.291,781.027,738.691,782.368 M748.099,821.06c2.492,2.517,5.725,4.042,8.7,5.892
		c12.892,7.717,26.3,14.783,40.675,19.317c7.008,2.058,14.458,3.733,21.775,2.408c4.258-0.675,8.158-2.675,12.383-3.55
		c10.583-2.317,21.525-3.017,32.308-1.925c16.967,1.525,34.017,5.267,49.15,13.308c3.675,1.875,6.833,4.575,10.467,6.533
		c-1.142-1.492-2.467-2.825-4.025-3.842c-4.167-2.85-8.475-5.558-13.117-7.558c-17.417-7.6-36.567-11.108-55.542-10.567
		c-9.417,0.092-18.867,1.533-27.7,4.867c-8.575,3.217-17.925,1.2-26.392-1.308c-13.808-4.458-26.817-11.05-39.25-18.442
		C754.416,824.418,751.524,822.202,748.099,821.06 M532.858,822.41c-4.342,1.183-5.983,7.2-2.792,10.4
		c3.033,3.583,9.608,2.125,10.775-2.45C542.508,825.718,537.474,820.743,532.858,822.41 M789.474,823.977
		c-4.192,1.933-4.567,8.517-0.65,10.933c3.7,2.75,9.658,0.067,9.9-4.592C799.524,825.435,793.716,821.627,789.474,823.977
		 M609.299,828.918c-4.8,1.625-5.225,9.117-0.742,11.367c3.733,2.4,9.4-0.508,9.433-5.008
		C618.624,830.718,613.424,827.018,609.299,828.918 M713.583,829.86c-4.692,1.167-6.067,7.933-2.275,10.883
		c3.633,3.583,10.667,0.542,10.45-4.583C722.116,831.943,717.566,828.46,713.583,829.86 M549.358,847.277
		c-4.258,1.717-5.05,8.192-1.275,10.85c3.667,3.1,9.908,0.408,10.242-4.358C559.008,849.085,553.599,845.152,549.358,847.277
		 M772.908,848.26c-4.467,1.533-5.475,8.142-1.7,10.942c3.742,3.292,10.425,0.308,10.317-4.708
		C781.858,850.093,776.983,846.543,772.908,848.26 M511.091,853.202c-4.65,0.95-6.342,7.475-2.892,10.65
		c3.192,3.467,9.775,1.75,10.642-2.958C520.191,856.427,515.516,851.885,511.091,853.202 M811.874,854.727
		c-4.333,1.675-5.108,8.3-1.225,10.892c3.592,2.908,9.792,0.4,10.092-4.292C821.624,856.577,816.158,852.568,811.874,854.727
		 M446.916,859.802c-4.483,1.858-4.908,8.342-1.142,11.175c3.258-1.892,6.625-3.617,10.2-4.808
		C456.166,861.535,451.274,857.768,446.916,859.802 M590.374,859.91c-4.2,1.925-4.692,8.408-0.8,10.925
		c3.658,2.917,9.858,0.067,9.95-4.633C600.191,861.427,594.591,857.668,590.374,859.91 M731.999,860.727
		c-4.567,1.2-5.933,7.833-2.317,10.825c3.383,3.283,10.05,1.092,10.483-3.725C741.166,863.31,736.299,859.193,731.999,860.727
		 M876.066,860.635c-4.467,0.917-6.217,6.883-3.292,10.258c2.883,3.733,9.533,2.533,10.908-2.008
		C885.491,864.335,880.758,859.177,876.066,860.635 M595.091,875.51c-21.475,5.658-42.675,12.442-63.225,20.867
		c-29.692,12.367-55.542,31.933-80.825,51.458c3.833-1.392,6.683-4.458,10.1-6.575c21.358-15.808,43.183-31.4,67.408-42.567
		c-0.125,2.692-0.45,5.95,1.925,7.867c3.417,3.325,10.033,1.117,10.542-3.7c0.792-3.358-1.967-5.758-4.192-7.725
		c22.442-9.017,45.583-16.225,69.042-22.083C602.141,873.21,598.683,874.693,595.091,875.51 M738.408,873.76
		c1.508,1.475,3.208,2.742,5,3.883c13.692,9.308,28.808,17.567,45.483,19.617c-2.292,2.217-3.858,5.717-2.092,8.733
		c2.033,4.2,8.683,4.45,11,0.4c1.933-2.933,0.583-6.517-1.508-8.917c10.158-0.467,20.208,1.333,30.325,1.858
		c1.725,1.567,3.417,3.633,5.958,3.75c2.558,0.317,4.842-1.842,7.417-1.142c8.192,1.625,16.233,4,24.042,6.975
		c4.092,1.583,7.75,4.092,11.908,5.542c-10.783-7.967-24.125-11.417-36.992-14.408c0.45-2.342,1.075-5.083-0.617-7.1
		c-2.15-3.183-7.175-3.483-9.725-0.65c-1.583,1.467-1.708,3.725-1.967,5.733c-4.408-0.517-8.85-0.725-13.242-1.333
		c-5.833-0.367-11.683-0.158-17.525-0.192c-17.658-0.233-34.283-7.692-48.792-17.275
		C744.233,877.343,741.474,875.277,738.408,873.76 M491.183,889.81c-4.142,1.8-4.825,8.075-1.183,10.733
		c3.6,3.117,10.133,0.492,10.275-4.367C500.983,891.418,495.399,887.602,491.183,889.81 M591.174,895.777
		c-4.392,1.342-5.808,7.675-2.308,10.708c3.375,3.442,10.167,1.242,10.617-3.658C600.491,898.252,595.474,894.202,591.174,895.777
		 M731.074,897.285c-4.533,1.983-4.625,9.267-0.108,11.333c4,2.308,9.608-1.042,9.267-5.7
		C740.458,898.36,735.033,895.168,731.074,897.285 M415.991,902.227c-4.542,1.625-5.358,8.308-1.383,11
		c3.542,2.817,9.425,0.517,10.058-3.992C425.824,904.552,420.316,900.177,415.991,902.227 M906.883,903.168
		c-4.633,1.208-6.083,7.975-2.258,10.908c3.383,3.208,9.725,1.042,10.375-3.583C916.058,905.968,911.274,901.627,906.883,903.168
		 M556.074,920.66c-4.117,1.35-5.658,7.267-2.475,10.317c3.2,3.783,10.275,1.842,10.867-3.158
		C565.574,923.16,560.491,918.844,556.074,920.66 M767.083,921.66c-4.3,1.175-6.117,7.15-2.925,10.383
		c3.025,3.675,9.808,2.158,10.867-2.525C776.516,924.927,771.658,920.102,767.083,921.66 M491.891,933.185
		c-4.033,1.225-5.7,6.717-2.933,9.942c2.8,4.017,9.817,2.742,11.05-1.983C501.774,936.393,496.574,931.36,491.891,933.185
		 M832.066,934.093c-4.483,0.617-6.825,6.458-4.008,9.992c2.717,4.242,10.267,2.967,11.258-2.033
		C840.708,937.727,836.466,933.093,832.066,934.093 M443.191,953.293c2.558-1.533,4.942-3.342,7.4-5.033
		C447.116,946.768,443.691,949.952,443.191,953.293 M442.783,954.327c0.767,4.133,5.058,7.6,9.258,5.608
		c5.233-1.942,4.858-10.142-0.358-11.9C448.858,950.327,445.799,952.294,442.783,954.327z"/>
	<path fill="#46484E" stroke="#46484E" stroke-width="0.4167" d="M667.999,541.268c10.808-0.525,21.642-0.575,32.45,0.008
		c-5.058,1.225-10.275,0.683-15.417,0.75C679.349,541.927,673.599,542.518,667.999,541.268z"/>
	<path fill="#F4DC9F" stroke="#F4DC9F" stroke-width="0.4167" d="M825.899,564.143c3.425,9.1,7.375,18.025,12.325,26.408
		c15.225,26.2,38.292,47.767,65.492,61.142c27.808,13.833,59.825,18.758,90.542,14.408c28.05-3.917,54.908-15.817,76.717-33.875
		c20.833-17.092,36.858-39.758,46.575-64.858c0.475,3.483-1.15,6.725-2.125,9.975c-9.925,28.242-26.725,54.35-49.667,73.758
		c-24.025,20.617-54.492,32.892-85.675,37.342c-18.708,3-38.15,2.592-56.433-2.65c-24.108-6.742-45.108-22.292-60.55-41.767
		c-15.533-19.542-26.508-42.4-34.025-66.117C827.683,573.41,826.016,568.902,825.899,564.143z"/>
	<path fill="#F4DC9F" stroke="#F4DC9F" stroke-width="0.4167" d="M235.233,566.135c9.667,18.008,22.942,34.058,38.783,46.967
		c21.25,17.358,47.183,28.942,74.325,33.017c32.492,5.042,66.567-0.542,95.65-15.917c23.225-12.117,43.075-30.35,57.617-52.1
		c-0.258,3.7-2.217,6.933-3.642,10.267c-11.725,25.058-29.325,47.75-52.292,63.433c-14.292,9.733-30.525,16.683-47.55,19.842
		c-19.192,3.767-38.908,2.1-58.117-0.575c-25.8-3.908-51.8-12.383-71.983-29.475C246.108,623.377,233.724,594.56,235.233,566.135z"
		/>
	<path fill="#414042" stroke="#414042" stroke-width="0.4167" d="M652.524,583.935c16.633-1.35,33.408-1.058,50.017,0.642
		c20.425,2.267,41.267,6.683,58.85,17.833c10.608,6.658,19.65,15.967,25.433,27.125c9.6,17.7,11.408,38.467,10.208,58.25
		c-1.083,17.292-0.975,34.983,3.85,51.767c2.108,7.258,5.367,14.183,9.483,20.525c8.308,12.125,20.767,20.758,34.017,26.767
		c17.258,7.883,35.642,12.875,53.925,17.767c18.792,5,38.125,8,56.542,14.358c22.017,7.417,41.708,20.183,60.525,33.55
		c3.567,2.958,8.083,4.917,10.767,8.842c-2.825,0.258-4.85-1.95-6.992-3.375c-23.283-16.85-48.342-32.383-76.492-39.45
		c-17.7-4.567-35.8-7.45-53.4-12.433c-17.692-4.708-35.392-9.9-51.875-17.983c-12-6.242-23.308-14.525-30.883-25.908
		c-10.792-15.867-14.408-35.425-14.717-54.317c-0.45-11.667,1.133-23.3,0.692-34.967c-0.492-17.1-4.575-34.608-14.725-48.65
		c-6.892-9.308-16.175-16.75-26.583-21.775c-9.658-4.908-20.133-8-30.742-10.017c-16.292-3.267-32.967-4.325-49.558-4.083
		c-19.133-0.108-38.575,2.433-56.358,9.808c-11.917,4.9-22.817,12.25-31.758,21.525c-8.9,9.4-15.917,20.5-21.108,32.333
		c-10.1,22.067-13.592,46.283-19.492,69.633c-4.192,16.592-10.467,32.908-20.542,46.858c-12.133,17.175-29.5,29.892-47.917,39.625
		c-7.808,4.05-15.817,7.667-23.967,10.967c-40.358,16.45-78.025,39.233-112.042,66.433c-10.408,8.383-20.583,17.083-30.017,26.558
		c-0.917,0.892-1.958,1.85-3.358,1.492c0.275-1.842,1.792-3.058,3.008-4.308c29.683-28.875,63.242-53.758,99.442-73.842
		c15.658-8.817,32.083-16.117,48.633-23.058c23.292-10.142,45.967-23.925,61.225-44.708c15.617-20.517,21.075-46.317,26.342-70.992
		c5.408-25.358,12.95-51.15,28.95-72.017c8.508-11.275,19.558-20.575,32.033-27.183
		C618.891,589.485,635.724,585.593,652.524,583.935z"/>
	<path fill="#FFFFFF" stroke="#FFFFFF" stroke-width="0.4167" d="M157.716,602.993c0.325,0.2,0.983,0.608,1.308,0.808
		c1.942,8.142,1.9,16.583,2.442,24.9c0.933,42.533,3.458,85.033,7.492,127.383c1.867,17.9,3.967,35.792,7.125,53.508
		c2.683,13.225,4.917,26.917,11.675,38.808c5.058,9.567,10,20.033,9.133,31.15c-0.333,4.367-2.617,9.942-7.65,10.267
		c-2.625,0.383-4.133-2.175-5.5-3.95c-6.35-9.317-10.625-19.833-14.733-30.275c-11.808-31.567-17.792-65.025-20.517-98.525
		c-1.267-18.025-1.892-36.117-1.183-54.175c0.608-23.142,3-46.183,5.308-69.2C153.941,623.418,154.458,612.902,157.716,602.993z"/>
	<path fill="#231F20" stroke="#231F20" stroke-width="0.4167" d="M610.516,622.418c13.033-7.375,28.092-10.258,42.9-11.217
		c8.875-0.625,17.767,0.358,26.65-0.15c10.808-0.308,21.692-0.242,32.425,1.317c10.967,1.625,22.183,4.908,30.7,12.333
		c8.6,7.342,13.092,18.35,14.825,29.3c1.792,10.917,1.275,22.025,1.017,33.033c-0.333,11.267-1.725,22.558-4.983,33.383
		c-6.908-0.175-13.9-0.217-20.658-1.783c-2.342-0.633-5.008-1.367-6.392-3.542c-0.025-3.108,1.317-6.008,2.025-8.983
		c1.267-5.142,2.517-10.442,2.033-15.758c-0.175-2.058-1.142-4.65-3.5-4.892c-3.4-0.642-6.342,1.908-7.65,4.825
		c-2.917,6-3.5,12.758-5.067,19.175c-1.042,6.067-2.533,12.708,0.05,18.592c1.892,4.25,6.8,5.775,11.083,6.1
		c7.358,0.383,14.742-0.242,22.108,0.35c-5.308,9.508-13.192,17.608-22.825,22.758c-13.858,7.5-29.908,9.758-45.483,9.742
		c1.425,5.175,2.183,10.508,2.625,15.858c1.875,21.05,2.142,42.2,2.233,63.325c-0.108,18.3-0.142,36.633-1.567,54.892
		c-0.067,0.417-0.2,1.25-0.267,1.667c-2.642,1.008-5.258,2.108-7.725,3.5c-1.383-18.867-1.767-37.775-1.892-56.683
		c0.058-20,0.308-40.017,1.767-59.975c0.592-7.575,0.983-15.258,3.25-22.567c-16.867-0.167-34.275-1.275-49.892-8.2
		c-10.925-4.758-20.075-13.158-26.125-23.383l0.25-1.008c7.775-0.5,15.567,0.15,23.333-0.275c3.95-0.3,8.333-1.483,10.65-4.975
		c2.567-4.058,2.2-9.15,1.683-13.708c-0.925-5.992-2.275-11.908-3.533-17.825c-1.075-3.992-2.125-8.55-5.667-11.108
		c-2.4-1.875-6.833-1.567-7.583,1.867c-1.608,7.175,0.767,14.5,2.675,21.4c0.375,1.983,1.842,4.558,0.125,6.292
		c-2.742,2.308-6.458,2.85-9.883,3.375c-6.325,0.833-12.717,0.875-19.083,0.917c-5.433-15.067-7.825-31-9.608-46.85
		c-0.75-9.025,0.058-18.308,3.342-26.8C592.791,636.302,600.908,627.852,610.516,622.418 M664.116,622.977
		c-3.767,0.725-8.1,0.958-10.85,4c3.267,3.083,7.992,3.283,12.175,4.042c12.867,1.475,25.942,1.5,38.808-0.075
		c3.992-0.75,8.567-0.925,11.617-3.983c-2.575-2.95-6.758-3.192-10.333-3.917C691.816,621.218,677.841,621.202,664.116,622.977z"/>
	<path fill="#FFFFFF" stroke="#FFFFFF" stroke-width="0.4167" d="M664.116,622.977c13.725-1.775,27.7-1.758,41.417,0.067
		c3.575,0.725,7.758,0.967,10.333,3.917c-3.05,3.058-7.625,3.233-11.617,3.983c-12.867,1.575-25.942,1.55-38.808,0.075
		c-4.183-0.758-8.908-0.958-12.175-4.042C656.016,623.935,660.349,623.702,664.116,622.977z"/>
	<path fill="#FEEEC1" stroke="#FEEEC1" stroke-width="0.4167" d="M1200.583,630.16c0.708,3.375,0.692,6.85,0.417,10.292
		c-0.042,0.517-0.117,1.558-0.158,2.083C1199.974,638.46,1199.916,634.26,1200.583,630.16z"/>
	<path fill="#414042" stroke="#414042" stroke-width="0.4167" d="M621.316,688.402c0.75-3.433,5.183-3.742,7.583-1.867
		c3.542,2.558,4.592,7.117,5.667,11.108c1.258,5.917,2.608,11.833,3.533,17.825c0.517,4.558,0.883,9.65-1.683,13.708
		c-2.317,3.492-6.7,4.675-10.65,4.975c-7.767,0.425-15.558-0.225-23.333,0.275l-0.25,1.008c-3.033-4.667-5.283-9.783-7.033-15.05
		c6.367-0.042,12.758-0.083,19.083-0.917c3.425-0.525,7.142-1.067,9.883-3.375c1.717-1.733,0.25-4.308-0.125-6.292
		C622.083,702.902,619.708,695.577,621.316,688.402z"/>
	<path fill="#414042" stroke="#414042" stroke-width="0.4167" d="M719.908,690.285c1.308-2.917,4.25-5.467,7.65-4.825
		c2.358,0.242,3.325,2.833,3.5,4.892c0.483,5.317-0.767,10.617-2.033,15.758c-0.708,2.975-2.05,5.875-2.025,8.983
		c1.383,2.175,4.05,2.908,6.392,3.542c6.758,1.567,13.75,1.608,20.658,1.783c-1.45,4.892-3.317,9.708-5.967,14.083
		c-7.367-0.592-14.75,0.033-22.108-0.35c-4.283-0.325-9.192-1.85-11.083-6.1c-2.583-5.883-1.092-12.525-0.05-18.592
		C716.408,703.043,716.991,696.285,719.908,690.285z"/>
	<path fill="#231F20" stroke="#231F20" stroke-width="0.4167" d="M584.466,781.543c4.15-1.975,9.392,1.808,8.817,6.358
		c-0.108,4.917-6.642,7.725-10.317,4.492C579.241,789.618,580.149,783.21,584.466,781.543z"/>
	<path fill="#231F20" stroke="#231F20" stroke-width="0.4167" d="M738.691,782.368c4.6-1.342,9.283,3.733,7.542,8.217
		c-1.242,4.675-8.258,5.85-11.008,1.933C732.408,789.127,734.258,783.218,738.691,782.368z"/>
	<path fill="#414042" stroke="#414042" stroke-width="0.4167" d="M1065.266,882.227c19.158-21.05,35.292-44.75,48.75-69.8
		c10.133,7.092,19.425,15.575,26.692,25.633c8.717,11.983,13.75,26.65,13.833,41.5c0.267,14.775-4.042,29.15-9.592,42.692
		c-4.892,9.942-9.592,20.158-16.733,28.733c-23.958,30.642-50.092,59.75-79.492,85.283c-25.833,22.3-54.392,42.633-87.167,53.233
		c-10.542,2.875-21.408,5.067-32.392,4.667c-15.2-0.592-30.142-4.175-44.45-9.192c-22.033-7.85-42.708-19.117-62.267-31.858
		c-25.35-16.342-48.858-35.392-71.25-55.542c-10.542-9.483-20.783-19.283-30.725-29.392c-13.3-13.208-26.175-26.85-38.317-41.125
		c-33.292,41.883-72.025,79.658-115.833,110.475c-5.483,4.017-11.492,7.267-16.808,11.5c7.25-1.7,14.075-4.775,21.058-7.283
		c30.375-11.9,59.892-26.708,85.85-46.625c8.017-6.067,15.342-12.967,22.567-19.933c17.325,18.875,37.383,35.217,59.217,48.592
		c23.65,14.342,49.875,24.808,77.367,28.592c-11.167,16.717-25.733,31-41.95,42.817c-24.808,17.567-54.233,28.6-84.55,31.242
		c-10.592,1.025-21.267,0.792-31.875,0.1c-29.175-2.908-57.658-12.992-81.8-29.7c-13.2-9.05-25.083-20-35.333-32.283
		c-1.933-2.258-3.533-4.8-5.692-6.842c-35.45,19.683-74.683,34.358-115.558,35.95c-6.092-1.217-12.458-1.25-18.542,0.025
		c-17.275-0.808-34.308-4.192-51.258-7.483c-7.525-1.567-15-3.35-22.433-5.317c-27.858-7.45-54.983-18.533-78.85-34.883
		c-22.825-15.625-43.017-35.417-57.75-58.925c-1.608-2.733-1.608-6-2.142-9.033c-0.5-4.833-1.042-9.667-1.167-14.525
		c20.158,16.425,42.617,30.033,66.483,40.35c30.892,13.308,64.142,20.958,97.692,23.008c37.5,2.1,75.242-1.733,111.692-10.725
		c31.4-7.658,61.8-19.117,90.792-33.35c30.55-14.983,59.417-33.192,87.15-52.858c11.5-7.933,22.558-16.567,34.592-23.7
		c2.467-1.392,5.083-2.492,7.725-3.5c0.067-0.417,0.2-1.25,0.267-1.667c0.1,0.358,0.308,1.083,0.408,1.45
		c7.542,2.35,14.533,6.067,21.617,9.5c20.042,9.6,40.4,18.583,61.35,26.033c34.45,12.2,70.433,20.8,107.033,22.583
		c2.658,0.133,5.325,0.192,7.992,0.25c36.817,1.067,74.1-5.808,107.492-21.567C1018.008,925.868,1043.783,905.86,1065.266,882.227z"
		/>
	<path fill="#444446" stroke="#444446" stroke-width="0.4167" d="M748.099,821.06c3.425,1.142,6.317,3.358,9.433,5.133
		c12.433,7.392,25.442,13.983,39.25,18.442c8.467,2.508,17.817,4.525,26.392,1.308c8.833-3.333,18.283-4.775,27.7-4.867
		c18.975-0.542,38.125,2.967,55.542,10.567c4.642,2,8.95,4.708,13.117,7.558c1.558,1.017,2.883,2.35,4.025,3.842
		c-3.633-1.958-6.792-4.658-10.467-6.533c-15.133-8.042-32.183-11.783-49.15-13.308c-10.783-1.092-21.725-0.392-32.308,1.925
		c-4.225,0.875-8.125,2.875-12.383,3.55c-7.317,1.325-14.767-0.35-21.775-2.408c-14.375-4.533-27.783-11.6-40.675-19.317
		C753.824,825.102,750.591,823.577,748.099,821.06z"/>
	<path fill="#231F20" stroke="#231F20" stroke-width="0.4167" d="M532.858,822.41c4.617-1.667,9.65,3.308,7.983,7.95
		c-1.167,4.575-7.742,6.033-10.775,2.45C526.874,829.61,528.516,823.593,532.858,822.41z"/>
	<path fill="#231F20" stroke="#231F20" stroke-width="0.4167" d="M789.474,823.977c4.242-2.35,10.05,1.458,9.25,6.342
		c-0.242,4.658-6.2,7.342-9.9,4.592C784.908,832.493,785.283,825.91,789.474,823.977z"/>
	<path fill="#231F20" stroke="#231F20" stroke-width="0.4167" d="M609.299,828.918c4.125-1.9,9.325,1.8,8.692,6.358
		c-0.033,4.5-5.7,7.408-9.433,5.008C604.074,838.035,604.499,830.543,609.299,828.918z"/>
	<path fill="#231F20" stroke="#231F20" stroke-width="0.4167" d="M713.583,829.86c3.983-1.4,8.533,2.083,8.175,6.3
		c0.217,5.125-6.817,8.167-10.45,4.583C707.516,837.793,708.891,831.027,713.583,829.86z"/>
	<path fill="#231F20" stroke="#231F20" stroke-width="0.4167" d="M549.358,847.277c4.242-2.125,9.65,1.808,8.967,6.492
		c-0.333,4.767-6.575,7.458-10.242,4.358C544.308,855.468,545.099,848.993,549.358,847.277z"/>
	<path fill="#231F20" stroke="#231F20" stroke-width="0.4167" d="M772.908,848.26c4.075-1.717,8.95,1.833,8.617,6.233
		c0.108,5.017-6.575,8-10.317,4.708C767.433,856.402,768.441,849.793,772.908,848.26z"/>
	<path fill="#231F20" stroke="#231F20" stroke-width="0.4167" d="M511.091,853.202c4.425-1.317,9.1,3.225,7.75,7.692
		c-0.867,4.708-7.45,6.425-10.642,2.958C504.749,860.677,506.441,854.152,511.091,853.202z"/>
	<path fill="#231F20" stroke="#231F20" stroke-width="0.4167" d="M811.874,854.727c4.283-2.158,9.75,1.85,8.867,6.6
		c-0.3,4.692-6.5,7.2-10.092,4.292C806.766,863.027,807.541,856.402,811.874,854.727z"/>
	<path fill="#231F20" stroke="#231F20" stroke-width="0.4167" d="M446.916,859.802c4.358-2.033,9.25,1.733,9.058,6.367
		c-3.575,1.192-6.942,2.917-10.2,4.808C442.008,868.143,442.433,861.66,446.916,859.802z"/>
	<path fill="#231F20" stroke="#231F20" stroke-width="0.4167" d="M590.374,859.91c4.217-2.242,9.817,1.517,9.15,6.292
		c-0.092,4.7-6.292,7.55-9.95,4.633C585.683,868.318,586.174,861.835,590.374,859.91z"/>
	<path fill="#231F20" stroke="#231F20" stroke-width="0.4167" d="M731.999,860.727c4.3-1.533,9.167,2.583,8.167,7.1
		c-0.433,4.817-7.1,7.008-10.483,3.725C726.066,868.56,727.433,861.927,731.999,860.727z"/>
	<path fill="#231F20" stroke="#231F20" stroke-width="0.4167" d="M876.066,860.635c4.692-1.458,9.425,3.7,7.617,8.25
		c-1.375,4.542-8.025,5.742-10.908,2.008C869.849,867.518,871.599,861.552,876.066,860.635z"/>
	<path fill="#231F20" stroke="#231F20" stroke-width="0.4167" d="M595.091,875.51c3.592-0.817,7.05-2.3,10.775-2.458
		c-23.458,5.858-46.6,13.067-69.042,22.083c2.225,1.967,4.983,4.367,4.192,7.725c-0.508,4.817-7.125,7.025-10.542,3.7
		c-2.375-1.917-2.05-5.175-1.925-7.867c-24.225,11.167-46.05,26.758-67.408,42.567c-3.417,2.117-6.267,5.183-10.1,6.575
		c25.283-19.525,51.133-39.092,80.825-51.458C552.416,887.952,573.616,881.168,595.091,875.51z"/>
	<path fill="#393738" stroke="#393738" stroke-width="0.4167" d="M738.408,873.76c3.067,1.517,5.825,3.583,8.675,5.475
		c14.508,9.583,31.133,17.042,48.792,17.275c5.842,0.033,11.692-0.175,17.525,0.192c4.392,0.608,8.833,0.817,13.242,1.333
		c4.142,0.4,8.267,1.008,12.308,2.017c12.867,2.992,26.208,6.442,36.992,14.408c-4.158-1.45-7.817-3.958-11.908-5.542
		c-7.808-2.975-15.85-5.35-24.042-6.975c-2.575-0.7-4.858,1.458-7.417,1.142c-2.542-0.117-4.233-2.183-5.958-3.75
		c-10.117-0.525-20.167-2.325-30.325-1.858c-2.475,0-4.95,0-7.4-0.217c-16.675-2.05-31.792-10.308-45.483-19.617
		C741.616,876.502,739.916,875.235,738.408,873.76z"/>
	<path fill="#231F20" stroke="#231F20" stroke-width="0.4167" d="M491.183,889.81c4.217-2.208,9.8,1.608,9.092,6.367
		c-0.142,4.858-6.675,7.483-10.275,4.367C486.358,897.885,487.041,891.61,491.183,889.81z"/>
	<path fill="#231F20" stroke="#231F20" stroke-width="0.4167" d="M828.608,892.302c2.55-2.833,7.575-2.533,9.725,0.65
		c1.692,2.017,1.067,4.758,0.617,7.1c-4.042-1.008-8.167-1.617-12.308-2.017C826.899,896.027,827.024,893.768,828.608,892.302z"/>
	<path fill="#231F20" stroke="#231F20" stroke-width="0.4167" d="M591.174,895.777c4.3-1.575,9.317,2.475,8.308,7.05
		c-0.45,4.9-7.242,7.1-10.617,3.658C585.366,903.452,586.783,897.118,591.174,895.777z"/>
	<path fill="#231F20" stroke="#231F20" stroke-width="0.4167" d="M731.074,897.285c3.958-2.117,9.383,1.075,9.158,5.633
		c0.342,4.658-5.267,8.008-9.267,5.7C726.449,906.552,726.541,899.268,731.074,897.285z"/>
	<path fill="#231F20" stroke="#231F20" stroke-width="0.4167" d="M788.891,897.26c2.45,0.217,4.925,0.217,7.4,0.217
		c2.092,2.4,3.442,5.983,1.508,8.917c-2.317,4.05-8.967,3.8-11-0.4C785.033,902.977,786.599,899.477,788.891,897.26z"/>
	<path fill="#231F20" stroke="#231F20" stroke-width="0.4167" d="M415.991,902.227c4.325-2.05,9.833,2.325,8.675,7.008
		c-0.633,4.508-6.517,6.808-10.058,3.992C410.633,910.535,411.449,903.852,415.991,902.227z"/>
	<path fill="#231F20" stroke="#231F20" stroke-width="0.4167" d="M906.883,903.168c4.392-1.542,9.175,2.8,8.117,7.325
		c-0.65,4.625-6.992,6.792-10.375,3.583C900.799,911.143,902.249,904.377,906.883,903.168z"/>
	<path fill="#231F20" stroke="#231F20" stroke-width="0.4167" d="M556.074,920.66c4.417-1.817,9.5,2.5,8.392,7.158
		c-0.592,5-7.667,6.942-10.867,3.158C550.416,927.927,551.958,922.01,556.074,920.66z"/>
	<path fill="#231F20" stroke="#231F20" stroke-width="0.4167" d="M767.083,921.66c4.575-1.558,9.433,3.267,7.942,7.858
		c-1.058,4.683-7.842,6.2-10.867,2.525C760.966,928.81,762.783,922.835,767.083,921.66z"/>
	<path fill="#231F20" stroke="#231F20" stroke-width="0.4167" d="M566.324,1037.535c43.808-30.817,82.542-68.592,115.833-110.475
		c12.142,14.275,25.017,27.917,38.317,41.125c9.942,10.108,20.183,19.908,30.725,29.392c22.392,20.15,45.9,39.2,71.25,55.542
		c-2.292-0.333-4.592-0.5-6.875-0.742c-27.492-3.783-53.717-14.25-77.367-28.592c-21.833-13.375-41.892-29.717-59.217-48.592
		c-7.225,6.967-14.55,13.867-22.567,19.933c-25.958,19.917-55.475,34.725-85.85,46.625c-6.983,2.508-13.808,5.583-21.058,7.283
		C554.833,1044.802,560.841,1041.552,566.324,1037.535z"/>
	<path fill="#231F20" stroke="#231F20" stroke-width="0.4167" d="M491.891,933.185c4.683-1.825,9.883,3.208,8.117,7.958
		c-1.233,4.725-8.25,6-11.05,1.983C486.191,939.902,487.858,934.41,491.891,933.185z"/>
	<path fill="#231F20" stroke="#231F20" stroke-width="0.4167" d="M832.066,934.093c4.4-1,8.642,3.633,7.25,7.958
		c-0.992,5-8.542,6.275-11.258,2.033C825.241,940.552,827.583,934.71,832.066,934.093z"/>
	<path fill="#231F20" stroke="#231F20" stroke-width="0.4167" d="M443.191,953.293c0.5-3.342,3.925-6.525,7.4-5.033
		C448.133,949.952,445.749,951.76,443.191,953.293z"/>
	<path fill="#231F20" stroke="#231F20" stroke-width="0.4167" d="M442.783,954.327c3.017-2.033,6.075-4,8.9-6.292
		c5.217,1.758,5.592,9.958,0.358,11.9C447.841,961.927,443.549,958.46,442.783,954.327z"/>
	<path fill="#231F20" stroke="#231F20" stroke-width="0.4167" d="M871.999,952.31c2.058-4.467,9.075-4.467,11.258-0.117
		c1.842,2.95,0.05,6.275-1.792,8.7c-2.667-0.058-5.333-0.117-7.992-0.25C871.949,958.185,870.366,955.118,871.999,952.31z"/>
	<path fill="#FFF4D2" stroke="#FFF4D2" stroke-width="0.4167" d="M961.558,1089.502c32.775-10.6,61.333-30.933,87.167-53.233
		c10.417,63.583,14.158,128.092,14.667,192.458c0.258,8.875,0.225,17.775-0.1,26.658c0.083,11.225-0.267,22.458-0.542,33.683
		c-1.983,3.167-2.583,6.9-3.517,10.467c-3.725,13.492-7.992,26.875-13.667,39.683c-3.708,8.058-7.783,16.2-14.117,22.55
		c-3.367,3.35-8.133,6.025-13.017,5.008c-4.992-1.158-8.567-5.258-11.225-9.383c-9.383-15.067-12.692-32.8-16.967-49.758
		c0.008,3.167,0.283,6.333,0.8,9.475c5.708,43.675,10.967,87.433,18.217,130.892c0.917,5.017,1.742,10.083,3.092,15.017
		c0.883,3.4,3.65,5.775,5.883,8.333c5.575,6.033,11.033,12.667,13.2,20.767c-2.425,4.933-6.492,8.783-10.033,12.908
		c-5.375,5.725-11.033,11.325-17.708,15.55c-7.633,4.783-16.625,6.442-25.317,8.192c-6.742,1.45-13.783,2.942-19.383,7.208
		c-3.125,2.358-6.567,4.55-10.533,5.05c-8.425,1.258-16.842-2.25-23.283-7.492c-4.042-3.158-6.875-7.608-11.083-10.558
		c-5.792-4.233-12.867-5.925-19.6-7.983c-3.108-0.9-5.733-2.867-8.692-4.092c-3.533,0.367-4.975,4.258-6.875,6.758
		c-1.308-2.308-2.275-4.783-2.867-7.342c-1.133-7.917,1.25-15.775,4.225-23.025c2.892-7.408,7.192-14.167,9.975-21.608
		c5.775-14.55,8.558-30.083,10.25-45.575c4-39.275,0.383-78.742-1.508-118.025c-1.092-20.017-1.85-40.067-1.283-60.108
		c0.117-7.1,3.075-13.642,4.925-20.375c-4.233,3.158-5.667,8.492-7.208,13.283c-4.458,15.717-7.058,31.883-9.542,48.008
		c-5.975,40.133-10.342,80.492-15.35,120.758c-2.717,20.808-5.217,41.675-9.158,62.308c-1.325,5.942-2.117,12.133-4.725,17.7
		c-3.792,6.417-10.942,9.742-17.708,12.125c-8.842,2.9-18.067,4.55-27.308,5.558c14.058-29.858,22.292-62.308,25.142-95.15
		c3.45-40.55-0.683-81.917-13.575-120.592c-8.883-26.375-21.667-51.642-39.292-73.283c-16.617-20.725-37.983-38.092-62.758-48.025
		c-18.508-7.358-38.842-10.367-58.65-7.892c-29.217,3.392-56.442,17.875-77.383,38.25c-22.6,21.217-39.017,48.258-50.55,76.858
		c-12.375,31.433-18.892,65.117-19.692,98.867c-1,32.808,3.3,65.783,12.975,97.158c1.55,4.883,3.342,9.692,4.892,14.592
		c-0.708,0.025-2.125,0.092-2.833,0.125c-7.283-1.033-14.7-1.675-21.642-4.258c-11.9-4-21.983-12.383-29.142-22.575
		c-9.65-13.875-14.75-30.342-17.967-46.783c-8.375-45.075-4.325-91.1-2.1-136.542c0.6-11.5,0.925-23.117-1.158-34.5
		c-1.708-9.075-3.442-18.267-7-26.825c-0.675,7.883-0.05,15.825-0.717,23.725c-1.742,40.625-6.625,81.067-7.775,121.733
		c-0.45,18.325-0.125,36.717,2.1,54.925c1.942,15.533,5.425,31.017,11.95,45.317c5.742,11.758,11.592,23.758,13.842,36.767
		c0.042,0.233,0.108,0.708,0.142,0.942c-3.275,1.817-4.717,5.383-6.583,8.417c-4.042,6.825-9.875,12.858-17.192,16.117
		c-7.417,3.083-15.492-1.017-23.042,1.183c-3.567,1.333-5.5,5.133-9.083,6.492c-4.617,1.708-9.55,2.433-14.442,2.792
		c-9,0.4-18.242,0.158-26.842-2.783c-4.767-1.517-6.867-6.692-11.283-8.758c-5.592-2.717-12.05-1.5-17.808-0.008
		c-5.192,1.242-10.225,3.967-15.708,3.267c-3.967-0.283-7.517-2.225-10.7-4.458c-9.833-10.15-15.208-25.533-11.183-39.4
		c2.842-9.642,9.9-17.225,17.117-23.883c3.108-3.033,7.017-5.842,7.95-10.358c2.517-9.942,4.367-20.05,6.033-30.15
		c0.275-0.125,0.833-0.367,1.108-0.492c3.733,3.958,7.567,7.817,11.542,11.542c5.158-5.142,6.858-12.492,8.7-19.275
		c4.492-19.383,6.15-39.275,7.842-59.05c3.017-41.042,4.1-82.2,4.267-123.342c-0.3-5.983,0.775-12.042-0.517-17.95
		c-1.442,17.4-2.817,34.85-5.817,52.075c-2.617,15.667-6.133,31.283-12.15,46.033c-3.525,8.058-7.9,16.158-14.9,21.742
		c-5.008,4.05-12.1,5.775-18.267,3.633c-4.258-1.5-7.175-5.258-9.217-9.108c-3.592-6.925-5.2-14.667-6.267-22.325
		c-2.617-20.075-1.95-40.4-0.617-60.542c7.225-2.35,11.333-9.125,14.592-15.517c5.975-12.275,9.733-25.467,13.25-38.617
		c8-31.333,12.967-63.308,17.783-95.25c16.95,3.292,33.983,6.675,51.258,7.483c16.217,4.567,32.908,7.433,49.708,8.708
		c19.417,1.175,39.283,0.2,57.892-5.858c2.35-0.667,4.633-1.983,7.108-1.883c4.133,1.75,7.733,4.55,11.783,6.508
		c36.508,19.167,78.058,30.042,119.442,27.125c3.717-0.175,7.408-0.742,10.992-1.75c10.608,0.692,21.283,0.925,31.875-0.1
		c30.317-2.642,59.742-13.675,84.55-31.242c6.442-0.742,12.325-3.7,18.6-5.175c10.717-2.783,22.042-6.208,33.125-3.342
		c14.667,3.575,28.983,8.492,43.808,11.458c26.55,5.758,54.942,6.425,80.808-2.8
		C953.974,1093.744,958.533,1092.827,961.558,1089.502z"/>
	<path fill="#F4DC9F" stroke="#F4DC9F" stroke-width="0.4167" d="M815.574,1052.377c2.283,0.242,4.583,0.408,6.875,0.742
		c19.558,12.742,40.233,24.008,62.267,31.858c14.308,5.017,29.25,8.6,44.45,9.192c10.983,0.4,21.85-1.792,32.392-4.667
		c-3.025,3.325-7.583,4.242-11.592,5.833c-25.867,9.225-54.258,8.558-80.808,2.8c-14.825-2.967-29.142-7.883-43.808-11.458
		c-11.083-2.867-22.408,0.558-33.125,3.342c-6.275,1.475-12.158,4.433-18.6,5.175
		C789.841,1083.377,804.408,1069.093,815.574,1052.377z"/>
	<path fill="#F4DC9F" stroke="#F4DC9F" stroke-width="0.4167" d="M418.816,1093.66c40.875-1.592,80.108-16.266,115.558-35.95
		c2.158,2.042,3.758,4.583,5.692,6.842c10.25,12.283,22.133,23.233,35.333,32.283c24.142,16.708,52.625,26.792,81.8,29.7
		c-3.583,1.008-7.275,1.575-10.992,1.75c-41.383,2.917-82.933-7.958-119.442-27.125c-4.05-1.958-7.65-4.758-11.783-6.508
		c-2.475-0.1-4.758,1.217-7.108,1.883c-18.608,6.058-38.475,7.033-57.892,5.858c-16.8-1.275-33.492-4.142-49.708-8.708
		C406.449,1094.01,412.641,1093.968,418.816,1093.66z"/>
	<path fill="#FFFFFF" stroke="#FFFFFF" stroke-width="0.4167" d="M326.583,1080.885c7.433,1.967,14.908,3.75,22.433,5.317
		c-4.817,31.942-9.783,63.917-17.783,95.25c-3.517,13.15-7.275,26.342-13.25,38.617c-3.258,6.392-7.367,13.167-14.592,15.517
		c2.492-37.925,8.125-75.575,14.6-113c0.792-5.6,2.25-11.092,2.6-16.742C322.499,1097.502,324.466,1089.177,326.583,1080.885z"/>
	<path fill="#2B2D37" stroke="#2B2D37" stroke-width="0.4167" d="M400.274,1093.685c6.083-1.275,12.45-1.242,18.542-0.025
		C412.641,1093.968,406.449,1094.01,400.274,1093.685z"/>
	<path fill="#F4DC9F" stroke="#F4DC9F" stroke-width="0.4167" d="M297.883,1214.402c6.475-36.408,14.142-72.592,22.708-108.558
		c-0.35,5.65-1.808,11.142-2.6,16.742c-6.475,37.425-12.108,75.075-14.6,113c-1.333,20.142-2,40.467,0.617,60.542
		c1.067,7.658,2.675,15.4,6.267,22.325c2.042,3.85,4.958,7.608,9.217,9.108c6.167,2.142,13.258,0.417,18.267-3.633
		c7-5.583,11.375-13.683,14.9-21.742c6.017-14.75,9.533-30.367,12.15-46.033c3-17.225,4.375-34.675,5.817-52.075
		c1.292,5.908,0.217,11.967,0.517,17.95c-0.167,41.142-1.25,82.3-4.267,123.342c-1.692,19.775-3.35,39.667-7.842,59.05
		c-1.842,6.783-3.542,14.133-8.7,19.275c-3.975-3.725-7.808-7.583-11.542-11.542c-0.275,0.125-0.833,0.367-1.108,0.492
		c0.017-0.317,0.058-0.942,0.083-1.258c-8.075-8.892-15.742-18.175-22.317-28.242c-14.708-22.183-25.075-47.792-26.858-74.533
		c-0.308-9.95-0.208-19.925,0.608-29.85C290.999,1257.177,294.216,1235.735,297.883,1214.402z"/>
	<path fill="#F7E7BA" stroke="#F7E7BA" stroke-width="0.4167" d="M662.508,1156.402c19.808-2.475,40.142,0.533,58.65,7.892
		c24.775,9.933,46.142,27.3,62.758,48.025c17.625,21.642,30.408,46.908,39.292,73.283c12.892,38.675,17.025,80.042,13.575,120.592
		c-2.85,32.842-11.083,65.292-25.142,95.15c-3.508,7.417-7.5,14.583-11.633,21.667c-42.317,4.533-84.95,5.925-127.483,4.85
		c-42.15-1.292-84.317-5.217-125.692-13.575c-0.608-3.358-2.408-6.258-3.983-9.208c-3.542-7.192-6.658-14.575-9.592-22.033
		c-1.125-0.3-2.225-0.567-3.342-0.792c0.708-0.033,2.125-0.1,2.833-0.125c-1.55-4.9-3.342-9.708-4.892-14.592
		c-9.675-31.375-13.975-64.35-12.975-97.158c0.8-33.75,7.317-67.433,19.692-98.867c11.533-28.6,27.95-55.642,50.55-76.858
		C606.066,1174.277,633.291,1159.793,662.508,1156.402 M771.991,1235.727c-3.292,1.425-5.817,4.192-7.692,7.183
		c-4.175,6.958-5.408,15.292-5.117,23.292c0.333,7.525,2.317,15.25,7.017,21.275c2.725,3.542,7.317,6.142,11.883,5.008
		c5.133-1.475,8.667-6,10.8-10.667c3.45-7.725,4.183-16.467,3.125-24.792c-1.083-7.125-3.517-14.6-9.217-19.375
		C779.908,1235.06,775.583,1234.318,771.991,1235.727 M797.891,1299.894c-3.275,1.233-5.058,4.533-6.575,7.475
		c-3.05,6.383-5.067,13.375-5.208,20.483c0.225,21.867,0.45,43.758-0.625,65.608c-1.058,19.533-2.45,39.158-6.667,58.317
		c-1.692,7.333-3.783,14.775-7.908,21.15c-3.392,4.483-7.983,8.417-9.3,14.133c-1.242,3.825,1.167,8.042,4.867,9.4
		c7.308,3.05,17.692,0.983,21.25-6.7c3.533-7.983,5.55-16.517,7.642-24.958c6.35-27.183,10.258-54.892,12.592-82.683
		c1.292-18.783,1.758-37.683,0.042-56.45c-0.808-7.233-1.625-14.617-4.45-21.383
		C802.566,1302.077,800.633,1299.385,797.891,1299.894z"/>
	<path fill="#F4DC9F" stroke="#F4DC9F" stroke-width="0.4167" d="M450.908,1210.768c3.558,8.558,5.292,17.75,7,26.825
		c2.083,11.383,1.758,23,1.158,34.5c-2.225,45.442-6.275,91.467,2.1,136.542c3.217,16.442,8.317,32.908,17.967,46.783
		c7.158,10.192,17.242,18.575,29.142,22.575c6.942,2.583,14.358,3.225,21.642,4.258c1.117,0.225,2.217,0.492,3.342,0.792
		c2.933,7.458,6.05,14.842,9.592,22.033c1.575,2.95,3.375,5.85,3.983,9.208c-25.95-5.2-51.708-11.8-76.525-21.05
		c-2.25-13.008-8.1-25.008-13.842-36.767c-6.525-14.3-10.008-29.783-11.95-45.317c-2.225-18.208-2.55-36.6-2.1-54.925
		c1.15-40.667,6.033-81.108,7.775-121.733C450.858,1226.593,450.233,1218.652,450.908,1210.768z"/>
	<path fill="#F4DC9F" stroke="#F4DC9F" stroke-width="0.4167" d="M895.433,1234.885c1.542-4.792,2.975-10.125,7.208-13.283
		c-1.85,6.733-4.808,13.275-4.925,20.375c-0.567,20.042,0.192,40.092,1.283,60.108c1.892,39.283,5.508,78.75,1.508,118.025
		c-1.692,15.492-4.475,31.025-10.25,45.575c-2.783,7.442-7.083,14.2-9.975,21.608c-2.975,7.25-5.358,15.108-4.225,23.025
		c-25.008,6.025-50.5,9.85-76.05,12.692c4.133-7.083,8.125-14.25,11.633-21.667c9.242-1.008,18.467-2.658,27.308-5.558
		c6.767-2.383,13.917-5.708,17.708-12.125c2.608-5.567,3.4-11.758,4.725-17.7c3.942-20.633,6.442-41.5,9.158-62.308
		c5.008-40.267,9.375-80.625,15.35-120.758C888.374,1266.769,890.974,1250.602,895.433,1234.885z"/>
	<path fill="#FFFFFF" stroke="#FFFFFF" stroke-width="0.4167" d="M771.991,1235.727c3.592-1.408,7.917-0.667,10.8,1.925
		c5.7,4.775,8.133,12.25,9.217,19.375c1.058,8.325,0.325,17.067-3.125,24.792c-2.133,4.667-5.667,9.192-10.8,10.667
		c-4.567,1.133-9.158-1.467-11.883-5.008c-4.7-6.025-6.683-13.75-7.017-21.275c-0.292-8,0.942-16.333,5.117-23.292
		C766.174,1239.918,768.699,1237.152,771.991,1235.727z"/>
	<path fill="#F4DC9F" stroke="#F4DC9F" stroke-width="0.4167" d="M1059.233,1299.535c0.933-3.567,1.533-7.3,3.517-10.467
		c-0.117,12.1-0.908,24.183-1.433,36.267c-1.425,19.742-1.975,39.975-8.925,58.742c-0.175,0.075-0.517,0.217-0.683,0.292
		c-0.425,5.325-3.292,10.008-5.317,14.85c-8.833,18.6-21.8,35.1-37.133,48.783c-7.25-43.458-12.508-87.217-18.217-130.892
		c-0.517-3.142-0.792-6.308-0.8-9.475c4.275,16.958,7.583,34.692,16.967,49.758c2.658,4.125,6.233,8.225,11.225,9.383
		c4.883,1.017,9.65-1.658,13.017-5.008c6.333-6.35,10.408-14.492,14.117-22.55
		C1051.241,1326.41,1055.508,1313.027,1059.233,1299.535z"/>
	<path fill="#FFFFFF" stroke="#FFFFFF" stroke-width="0.4167" d="M797.891,1299.894c2.742-0.508,4.675,2.183,5.658,4.391
		c2.825,6.767,3.642,14.15,4.45,21.383c1.717,18.767,1.25,37.667-0.042,56.45c-2.333,27.792-6.242,55.5-12.592,82.683
		c-2.092,8.442-4.108,16.975-7.642,24.958c-3.558,7.683-13.942,9.75-21.25,6.7c-3.7-1.358-6.108-5.575-4.867-9.4
		c1.317-5.717,5.908-9.65,9.3-14.133c4.125-6.375,6.217-13.817,7.908-21.15c4.217-19.158,5.608-38.783,6.667-58.317
		c1.075-21.85,0.85-43.742,0.625-65.608c0.142-7.108,2.158-14.1,5.208-20.483C792.833,1304.427,794.616,1301.127,797.891,1299.894z"
		/>
	<path fill="#58595B" stroke="#58595B" stroke-width="0.4167" d="M315.449,1383.143c6.575,10.067,14.242,19.35,22.317,28.242
		c-0.025,0.317-0.067,0.942-0.083,1.258c-1.667,10.1-3.517,20.208-6.033,30.15c-0.933,4.517-4.842,7.325-7.95,10.358
		c-7.217,6.658-14.275,14.242-17.117,23.883c-4.025,13.867,1.35,29.25,11.183,39.4c-3.158-1.792-5.4-4.683-7.933-7.183
		c3.383,7.417,9.333,13.975,17.158,16.725c8.808,3.225,18.575,1.908,27.183-1.317c9.625,8.508,22.233,13.492,35.067,13.917
		c11.175,0.358,22.317-2.575,32.225-7.642c2.625-1.433,5.408-2.958,8.517-2.517c8.733,0.542,18.133,0.808,25.942-3.8
		c4.408-2.667,8.008-6.492,11.192-10.492c4.317-5.658,3.95-13.242,3.333-19.95c-0.033-0.233-0.1-0.708-0.142-0.942
		c24.817,9.25,50.575,15.85,76.525,21.05c41.375,8.358,83.542,12.283,125.692,13.575c42.533,1.075,85.167-0.317,127.483-4.85
		c25.55-2.842,51.042-6.667,76.05-12.692c0.592,2.558,1.558,5.033,2.867,7.342c4.575,6.675,12.5,9.558,19.75,12.317
		c5.05,2,10.942,3.75,13.717,8.875c3.692,6.308,9.908,10.892,16.858,13.017c10.533,3.275,21.842,2.275,32.492,0.083
		c9.275-1.825,18.158-5.125,26.917-8.583c15.6-4.117,29.367-14.383,38.142-27.875c4.45-6.808,6.75-15.35,4.633-23.375
		c-2.167-8.1-7.625-14.733-13.2-20.767c-2.233-2.558-5-4.933-5.883-8.333c-1.35-4.933-2.175-10-3.092-15.017
		c15.333-13.683,28.3-30.183,37.133-48.783c2.025-4.842,4.892-9.525,5.317-14.85c0.167-0.075,0.508-0.217,0.683-0.292
		c1.05,0.792,2.125,1.575,3.35,2.15c25.175,10.475,50.108,22.875,70.633,41.133c11.5,10.4,21.75,23.383,24.858,38.917
		c2.592,12.308-0.375,25.283-6.758,35.975c-6.225,10.6-15.05,19.425-24.592,27.058c-11.683,9.325-24.608,16.95-37.908,23.717
		c-21.883,11.017-44.917,19.575-68.275,26.908c-32.6,10.125-65.95,17.692-99.533,23.708
		c-75.125,13.292-151.467,18.808-227.708,19.225h-9.525c-85.225-0.508-170.658-7.242-254.233-24.342
		c-37.183-7.742-74.05-17.525-109.458-31.383c-23.308-9.267-46.217-20.183-66.367-35.275c-12.592-9.558-24.342-21.067-30.975-35.625
		c-5.167-11.2-6.117-24.342-2.058-36.025c5.25-15.608,16.942-28.017,29.508-38.192
		C264.899,1404.977,290.016,1393.152,315.449,1383.143z"/>
	<path fill="#F7D589" stroke="#F7D589" stroke-width="0.4167" d="M1031.433,1492.118c2.117,8.025-0.183,16.567-4.633,23.375
		c-8.775,13.492-22.542,23.758-38.142,27.875c-8.758,3.458-17.642,6.758-26.917,8.583c-10.65,2.192-21.958,3.192-32.492-0.083
		c-6.95-2.125-13.167-6.708-16.858-13.017c-2.775-5.125-8.667-6.875-13.717-8.875c-7.25-2.758-15.175-5.642-19.75-12.317
		c1.9-2.5,3.342-6.392,6.875-6.758c2.958,1.225,5.583,3.192,8.692,4.092c6.733,2.058,13.808,3.75,19.6,7.983
		c4.208,2.95,7.042,7.4,11.083,10.558c6.442,5.242,14.858,8.75,23.283,7.492c3.967-0.5,7.408-2.692,10.533-5.05
		c5.6-4.267,12.642-5.758,19.383-7.208c8.692-1.75,17.683-3.408,25.317-8.192c6.675-4.225,12.333-9.825,17.708-15.55
		C1024.941,1500.902,1029.008,1497.052,1031.433,1492.118z"/>
	<path fill="#F7D589" stroke="#F7D589" stroke-width="0.4167" d="M463.866,1502.594c1.867-3.033,3.308-6.6,6.583-8.417
		c0.617,6.708,0.983,14.292-3.333,19.95c-3.183,4-6.783,7.825-11.192,10.492c-7.808,4.608-17.208,4.342-25.942,3.8
		c-3.108-0.442-5.892,1.083-8.517,2.517c-9.908,5.067-21.05,8-32.225,7.642c-12.833-0.425-25.442-5.408-35.067-13.917
		c-8.608,3.225-18.375,4.542-27.183,1.317c-7.825-2.75-13.775-9.308-17.158-16.725c2.533,2.5,4.775,5.392,7.933,7.183
		c3.183,2.233,6.733,4.175,10.7,4.458c5.483,0.7,10.517-2.025,15.708-3.267c5.758-1.492,12.217-2.708,17.808,0.008
		c4.417,2.067,6.517,7.242,11.283,8.758c8.6,2.942,17.842,3.183,26.842,2.783c4.892-0.358,9.825-1.083,14.442-2.792
		c3.583-1.358,5.517-5.158,9.083-6.492c7.55-2.2,15.625,1.9,23.042-1.183C453.991,1515.452,459.824,1509.418,463.866,1502.594z"/>
</g>
</svg>
