<?xml version="1.0" encoding="UTF-8" standalone="no"?> <!-- Created with Vectornator for iOS (http://vectornator.io/) --><!DOCTYPE svg PUBLIC "-//W3C//DTD SVG 1.1//EN" "http://www.w3.org/Graphics/SVG/1.1/DTD/svg11.dtd">
<svg height="100%" style="fill-rule:nonzero;clip-rule:evenodd;stroke-linecap:round;stroke-linejoin:round;" xmlns:xlink="http://www.w3.org/1999/xlink" xmlns="http://www.w3.org/2000/svg" xml:space="preserve" width="100%" xmlns:vectornator="http://vectornator.io" version="1.1" viewBox="0 0 125 124.47">
<metadata>
<vectornator:setting key="DimensionsVisible" value="1"/>
<vectornator:setting key="PencilOnly" value="0"/>
<vectornator:setting key="SnapToPoints" value="0"/>
<vectornator:setting key="OutlineMode" value="0"/>
<vectornator:setting key="CMYKEnabledKey" value="0"/>
<vectornator:setting key="RulersVisible" value="1"/>
<vectornator:setting key="SnapToEdges" value="0"/>
<vectornator:setting key="GuidesVisible" value="1"/>
<vectornator:setting key="DisplayWhiteBackground" value="0"/>
<vectornator:setting key="doHistoryDisabled" value="0"/>
<vectornator:setting key="SnapToGuides" value="1"/>
<vectornator:setting key="TimeLapseWatermarkDisabled" value="0"/>
<vectornator:setting key="Units" value="Points"/>
<vectornator:setting key="DynamicGuides" value="0"/>
<vectornator:setting key="IsolateActiveLayer" value="0"/>
<vectornator:setting key="SnapToGrid" value="0"/>
</metadata>
<defs/>
<g id="Person 21" vectornator:layerName="Person 21">
<path stroke="#000000" stroke-width="0.75" d="M35.62+86.8C35.62+86.8+36.62+93.93+40.32+98.15C44.02+102.37+49.4+104.83+61.23+104.83C73.06+104.83+79.37+100.74+81.15+98.9C82.93+97.06+87.15+90.57+89.29+86.42" fill="none" stroke-linecap="butt" opacity="1" stroke-linejoin="miter"/>
<g opacity="1">
<g opacity="1">
<path stroke="#000000" stroke-width="0.75" d="M43.02+60.12L82.89+60.12L82.89+60.12L82.89+87.2L82.89+87.2L43.02+87.2L43.02+87.2L43.02+60.12L43.02+60.12Z" fill="#1e4918" stroke-linecap="butt" opacity="1" stroke-linejoin="miter"/>
<path stroke="#020202" stroke-width="0.75" d="M52.08+72.41C52.08+72.41+51.59+78.79+50.59+81.12C49.59+83.45+37.85+86.12+37.85+86.12C37.85+86.12+36.37+87.56+37.1+88.9C37.83+90.24+53.3+104.9+63.49+104.3C73.68+103.7+88.49+89.91+90.05+88.9C91.61+87.89+90.69+87.16+90.69+87.16C90.69+87.16+76.83+84.37+75.42+81.88C74.01+79.39+74.26+72.12+74.26+72.12L52.08+72.41Z" fill="#d19a75" stroke-linecap="butt" opacity="1" stroke-linejoin="miter"/>
</g>
<path stroke="#020202" stroke-width="0.75" d="M42.47+55.7C42.47+55.7+45.37+67.63+50.47+72.58C55.75+77.67+58.41+80.49+64.47+80.49C70.53+80.49+75.77+71.56+78.89+64.82C82.01+58.08+83.27+51.82+82.83+48.33C82.39+44.84+76.92+22.91+62+22.88C42.85+22.83+41.36+45.6+42.47+55.7Z" fill="#d19a75" stroke-linecap="butt" opacity="1" stroke-linejoin="miter"/>
<path stroke="#000000" stroke-width="0.75" d="M65.13+54.25C65.72+55.67+68.57+57.07+67.43+58.84C66.58+60.16+62.27+60.84+62.25+58.84" fill="none" stroke-linecap="butt" opacity="1" stroke-linejoin="miter"/>
</g>
<path stroke="#000000" stroke-width="0.75" d="M5.47+124.71C6.08+117.91+7.28+111.3+8.05+106.63C8.82+101.96+9+100+11.48+96C13.96+92+18.09+90.72+22.48+89.87C27.12+88.96+29.11+87.87+33.76+87.24C36.429+86.6887+39.026+85.8331+41.5+84.69C42.44+84.27+41.84+92.26+49.27+96C58.0701+100.162+68.3946+99.4889+76.58+94.22C79.98+91.96+81.28+88.33+83.48+84.69C86.82+85.34+90.54+85.38+93.75+86.45C99.29+88.28+111.09+90.25+113.38+97.11C116.04+105.11+116.93+115.46+117.21+124.9" fill="#6a75c1" stroke-linecap="butt" opacity="1" stroke-linejoin="miter"/>
<path stroke="#000000" stroke-width="0.75" d="M95.77+86.15C95.0315+85.6203+94.2151+85.2087+93.35+84.93C92.95+83.67+92.74+82.06+91.35+81.28C91.11+81.15+89.04+80.91+88.94+80.49C88.94+80.49+89.75+79.21+90.01+78.7C90.5137+77.4188+90.3047+75.967+89.46+74.88C88.69+74.02+87.19+73.4+87.29+72.09C88.1431+59.1931+87.5055+46.2408+85.39+33.49C85.0843+31.0261+84.4486+28.6145+83.5+26.32C80.36+19.51+75.5+11.76+62.5+11.97C49.5+12.18+40.42+21.21+38.77+33.47C37.57+42.47+38.13+51.54+38.54+60.56C38.8127+65.6884+38.3786+70.8299+37.25+75.84C36.79+77.77+35.52+79.84+35.97+81.78C36.38+83.49+38.48+84.55+38.82+86.3C38.8681+86.4736+38.8502+86.6588+38.77+86.82C38.15+87.82+39.17+100.1+43.49+107.26C47.81+114.42+53.2+122.47+62.03+122.68C73.14+122.93+82.03+113.11+88.45+105.24C92+101+95.82+97+96.83+91.31C97.11+89.71+97+87.52+95.77+86.15ZM80.77+73.66C79.4+82.66+69.96+86.78+60.77+86.25C56.64+86.01+51.98+85.42+49.77+81.52C47.0209+76.6023+45.5043+71.0918+45.35+65.46C45.2+57.29+44.09+38.81+47.42+34.31C50.75+29.81+59+24.84+63+25.11C67+25.38+78.5+31.92+78.36+38.36C78.15+47.93+81.2+70.66+80.75+73.66L80.77+73.66Z" fill="#8363a6" stroke-linecap="butt" opacity="1" stroke-linejoin="miter"/>
<path stroke="#231f20" stroke-width="0.75" d="M57.54+34.09C57.54+34.09+55.3+31.6+53.75+34.42C52.2+37.24+51.63+38.57+51.63+38.57" fill="none" stroke-linecap="butt" opacity="1" stroke-linejoin="miter"/>
<path stroke="#231f20" stroke-width="0.75" d="M70.35+34.52C70.35+34.52+71.87+32.86+73.6+35.08C74.6047+36.3416+75.3799+37.77+75.89+39.3" fill="none" stroke-linecap="butt" opacity="1" stroke-linejoin="miter"/>
<path stroke="#231f20" stroke-width="0.75" d="M59.24+45.44C59.0166+46.834+58.5745+48.1839+57.93+49.44C55.93+52.27+52.6+53.74+49.29+52.08C47+50.93+45.44+48.25+44.71+45.87C43.59+42.16+44.15+40.87+45.05+40.61C47.0002+40.0646+49.0314+39.8682+51.05+40.03C53.67+40.31+56.58+41.03+57.76+42.17C58.94+43.31+59.53+44.15+59.24+45.44Z" fill="#231f20" stroke-linecap="butt" opacity="1" stroke-linejoin="miter"/>
<path stroke="#231f20" stroke-width="0.75" d="M65.46+45.46C65.6784+46.8538+66.1172+48.2041+66.76+49.46C67.57+50.6+68.94+52.46+71.22+52.76C72.6372+53.0133+74.0983+52.7955+75.38+52.14C77.6122+50.6836+79.2506+48.4777+80+45.92C81.15+42.21+80.59+40.92+79.69+40.66C77.7423+40.1007+75.7104+39.8941+73.69+40.05C71.07+40.32+68.15+41.05+66.97+42.16C65.79+43.27+65.18+44.16+65.46+45.46Z" fill="#231f20" stroke-linecap="butt" opacity="1" stroke-linejoin="miter"/>
<path stroke="#231f20" stroke-width="0.75" d="M65.18+42.7966C64.0384+42.8923+62.8907+42.8923+61.7491+42.7966C61.2273+42.5968+57.5632+39.2103+55.9532+38.6329C53.1994+37.7312+50.3116+37.3069+47.4148+37.3782C44.8833+37.6558+41.3524+38.4886+40.875+40.0652C40.3975+41.6419+40.9638+45.417+42.1852+48.5703C43.4065+51.7236+44.7944+53.6223+47.6591+54.8659C50.5237+56.1094+53.0442+56.3537+54.9428+55.4543C57.4266+54.2966+59.3396+52.1875+60.2502+49.6029C61.1051+46.9381+62.4708+45.9833+63.3036+45.9944C64.8061+46.0993+65.9933+47.3103+66.0683+48.8146C66.4458+51.2795+69.3993+55.6764+73.2965+55.8319C80.1028+56.0983+84.7662+51.3128+85.9986+44.7952C86.6759+41.2311+86.4872+39.61+85.2436+38.7439C84.0001+37.8779+79.6143+36.8453+76.1723+37.3893C72.7302+37.9334+67.2563+39.0659+65.18+42.7966Z" fill="#231f20" stroke-linecap="butt" opacity="1" stroke-linejoin="miter"/>
<path stroke="#231f20" stroke-width="0.75" d="M60.128+45.2949C59.8674+46.8944+59.3539+48.4423+58.6069+49.8805C56.253+53.156+52.4446+54.8659+48.6139+52.945C45.9603+51.6126+44.1726+48.5037+43.3177+45.7501C42.0075+41.4531+42.6626+39.9431+43.7063+39.6655C45.9661+39.037+48.3183+38.8077+50.657+38.9882C53.6881+39.3213+57.0635+40.1763+58.4292+41.4642C59.7949+42.7522+60.4611+43.7959+60.128+45.2949Z" fill="#3d3d3d" stroke-linecap="butt" opacity="1" stroke-linejoin="miter"/>
<path stroke="#231f20" stroke-width="0.75" d="M67.323+45.306C67.5775+46.9091+68.0873+48.461+68.833+49.9027C69.7768+51.224+71.3534+53.4224+73.9849+53.7222C75.6257+54.0143+77.317+53.7648+78.8037+53.0116C81.3731+51.3318+83.262+48.7936+84.1333+45.85C85.4657+41.5531+84.8217+40.0319+83.778+39.7654C81.5206+39.1237+79.1674+38.8869+76.8273+39.0659C73.7962+39.3879+70.4208+40.1763+69.0551+41.5086C67.6894+42.841+67.001+43.807+67.323+45.306Z" fill="#3d3d3d" stroke-linecap="butt" opacity="1" stroke-linejoin="miter"/>
<path stroke="#000000" stroke-width="0.75" d="M39+86.46C39+86.46+49.41+100.99+61+98.69C72.59+96.39+81.14+88.88+88.86+80.49" fill="none" stroke-linecap="butt" opacity="1" stroke-linejoin="miter"/>
<path stroke="#000000" stroke-width="0.75" d="M38.46+85.37C40.4707+90.3664+43.0333+95.1226+46.1+99.55C47.6815+101.611+49.4128+103.553+51.28+105.36C53.19+107.29+55.08+109.36+57.59+110.54C64.04+113.54+70.74+109.25+75.52+105.11C81+100.36+86.78+94.87+91.07+89C92.046+87.7614+92.8158+86.3736+93.35+84.89" fill="none" stroke-linecap="butt" opacity="1" stroke-linejoin="miter"/>
<path stroke="#020202" stroke-width="0.75" d="M62.124+71.4412C66.4435+71.5589+71.692+67.657+72.084+66.2948C72.4759+64.9325+64.1395+66.8459+59.8043+66.7304C55.4691+66.615+52.8431+63.6278+52.4555+65.0197C52.068+66.4116+57.836+71.3187+62.124+71.4412Z" fill="#ffffff" stroke-linecap="butt" opacity="1" stroke-linejoin="miter"/>
</g>
</svg>
