<svg version="1.1" id="Layer_1" xmlns="http://www.w3.org/2000/svg" xmlns:xlink="http://www.w3.org/1999/xlink" x="0px" y="0px"
	 width="100%" viewBox="0 0 2480 2240" enable-background="new 0 0 2480 2240" xml:space="preserve">
<path fill="#FFFFFF" opacity="1.000000" stroke="none" 
	d="
M300.000000,2242.000000 
	C200.677582,2242.000000 101.355171,2242.000000 2.016377,2242.000000 
	C2.016377,1495.426270 2.016377,748.852661 2.016377,2.139477 
	C828.482788,2.139477 1654.965698,2.139477 2481.724121,2.139477 
	C2481.724121,748.666626 2481.724121,1495.333252 2481.724121,2242.000000 
	C2377.809082,2242.000000 2273.820557,2242.000000 2168.428711,2241.295898 
	C2167.217529,2228.992676 2165.256104,2218.454102 2156.761475,2209.335938 
	C2139.572021,2190.885498 2124.190674,2170.708008 2103.412109,2155.278809 
	C2105.886475,2150.599854 2108.172607,2146.224121 2110.505859,2141.874023 
	C2120.415039,2123.399658 2130.701904,2105.070068 2136.719482,2084.846191 
	C2138.981934,2077.240967 2141.523438,2069.317139 2141.563477,2061.526367 
	C2141.687988,2037.226929 2141.392822,2012.877197 2139.879395,1988.633179 
	C2138.678955,1969.411377 2132.256836,1951.490479 2120.073975,1936.148438 
	C2114.487793,1929.113281 2108.339355,1922.526978 2102.646484,1915.572998 
	C2100.854736,1913.384521 2098.994629,1910.822754 2098.400146,1908.156616 
	C2095.459717,1894.967773 2090.565918,1890.505249 2076.844482,1888.992554 
	C2074.664307,1888.752075 2072.125488,1888.241455 2070.512451,1886.924683 
	C2053.749023,1873.242554 2036.185059,1860.354248 2020.706665,1845.326416 
	C1995.377319,1820.734497 1971.072266,1795.145020 1943.735718,1772.628052 
	C1924.850830,1757.072388 1914.187500,1737.051514 1916.085083,1711.700562 
	C1916.109863,1711.369141 1916.119019,1711.030884 1916.083740,1710.701416 
	C1914.102295,1692.195801 1921.107300,1676.582642 1932.825195,1663.163208 
	C1943.315552,1651.149048 1954.861572,1640.043945 1966.127075,1628.722046 
	C1985.820679,1608.929199 2007.414551,1590.992554 2022.553589,1566.910400 
	C2034.998169,1547.114502 2044.529663,1526.063843 2045.781494,1502.857056 
	C2046.941162,1481.356689 2045.083862,1459.630737 2043.596680,1438.070190 
	C2042.408081,1420.838745 2035.928101,1405.213623 2026.243530,1390.810913 
	C2016.096313,1375.720581 2003.161621,1363.295898 1989.924683,1351.095703 
	C1969.067261,1331.871826 1947.781494,1313.148682 1921.894897,1300.813232 
	C1903.883789,1292.230591 1885.656372,1284.080322 1867.344604,1276.154907 
	C1841.887695,1265.136963 1817.355225,1252.584839 1795.793823,1234.885010 
	C1775.454468,1218.188354 1755.322021,1201.238770 1734.922363,1184.616821 
	C1721.668579,1173.817261 1710.079468,1161.616821 1699.981812,1147.775269 
	C1688.303833,1131.767700 1680.049072,1114.001709 1671.467896,1096.335449 
	C1663.767212,1080.481445 1659.445923,1064.163940 1660.607910,1046.254517 
	C1661.900757,1026.326538 1660.388550,1006.112183 1662.957520,986.395142 
	C1667.082397,954.737122 1674.403687,923.570190 1683.740601,892.969360 
	C1690.240967,871.665161 1697.704346,850.628906 1703.466919,829.132263 
	C1710.233398,803.890503 1720.354126,780.099731 1732.630371,757.262878 
	C1748.720459,727.331055 1763.369629,696.772583 1775.999878,665.246155 
	C1778.466064,659.090088 1780.452148,652.690369 1782.067993,646.254456 
	C1787.250977,625.611572 1792.549194,604.983032 1796.998901,584.177002 
	C1799.139282,574.169434 1800.180176,563.796692 1800.476685,553.553284 
	C1801.016602,534.905090 1800.713989,516.229736 1800.612915,497.566437 
	C1800.397949,457.832428 1792.418213,420.258942 1769.568848,386.850159 
	C1760.530029,373.634399 1751.680298,360.207153 1738.702515,350.413696 
	C1720.912476,336.988708 1702.981201,323.744171 1684.889160,310.729950 
	C1678.976196,306.476624 1672.469482,303.007141 1666.065552,299.485870 
	C1648.425415,289.786255 1628.995972,285.008270 1609.989258,278.924286 
	C1564.954102,264.508728 1518.658936,256.696869 1471.690063,254.671951 
	C1424.785767,252.649811 1377.776978,253.696884 1331.226196,261.748260 
	C1289.199341,269.017181 1248.988281,280.865509 1213.759033,306.090790 
	C1207.670410,310.450378 1204.560791,309.971832 1199.403198,304.573700 
	C1193.256714,298.140564 1186.039795,293.394989 1177.185181,292.074188 
	C1157.446289,289.129700 1137.725220,285.433441 1117.859985,284.126343 
	C1092.962402,282.488068 1067.915039,282.273590 1042.956665,282.740631 
	C1028.744019,283.006592 1014.263245,284.530212 1000.459900,287.822021 
	C972.686340,294.445435 945.266418,302.568787 917.755066,310.268036 
	C903.354858,314.298035 888.990723,318.417572 875.754211,325.768524 
	C848.428772,340.943878 820.983643,355.869202 794.705566,372.880035 
	C774.956604,385.664307 758.405396,401.953644 741.523499,418.055786 
	C721.662598,436.999298 703.574097,457.361298 689.641907,480.995422 
	C678.790588,499.403198 670.030029,518.904175 669.813843,540.911438 
	C669.555237,567.238220 669.668945,593.569153 669.750732,619.897949 
	C669.759888,622.841736 670.179260,625.932861 671.142273,628.700195 
	C676.152039,643.096863 676.611389,658.105408 676.851135,673.033325 
	C677.159058,692.208618 681.141174,710.770081 686.231079,728.969849 
	C691.765808,748.760010 698.793945,768.164246 705.845581,787.490601 
	C714.615234,811.525391 723.518860,835.527710 736.736145,857.665100 
	C740.266174,863.577515 742.673584,870.245544 744.976990,876.784851 
	C748.399658,886.501587 750.968018,896.521545 754.456299,906.212219 
	C758.464294,917.346375 760.217896,928.750793 760.220032,940.502563 
	C760.223572,959.499634 760.127625,978.497559 760.283386,997.493347 
	C760.326843,1002.791077 760.539307,1008.205200 761.647095,1013.356628 
	C767.059814,1038.525757 768.079773,1064.205322 769.669434,1089.701050 
	C771.346191,1116.594116 770.468689,1143.650635 770.534851,1170.635986 
	C770.545349,1174.925781 769.853699,1179.251953 769.139343,1183.502808 
	C766.061890,1201.814697 758.824036,1218.693848 749.335144,1234.367065 
	C738.913696,1251.580200 726.054871,1267.034180 707.306946,1275.911621 
	C691.409424,1283.439209 675.281372,1290.529541 658.984741,1297.147095 
	C648.535950,1301.390137 637.773010,1305.137207 626.839050,1307.849365 
	C604.902832,1313.291016 582.750732,1317.861450 560.691956,1322.810059 
	C539.901367,1327.474243 519.277161,1332.569824 500.077728,1342.291870 
	C479.239258,1352.843750 459.423584,1365.046875 440.429993,1378.581055 
	C430.160095,1385.899048 418.739166,1391.956177 410.992706,1402.298340 
	C399.023804,1418.277588 386.855164,1434.151855 375.778015,1450.742920 
	C362.302429,1470.926270 349.851990,1491.795044 336.996124,1512.391113 
	C330.484314,1522.823242 323.747833,1533.132446 317.677368,1543.817871 
	C311.766357,1554.222412 306.194122,1564.859497 301.164062,1575.714722 
	C294.748688,1589.559570 287.574524,1603.301147 283.320953,1617.845703 
	C275.445404,1644.775146 273.786438,1672.858887 272.261383,1700.753540 
	C271.353027,1717.367920 271.940033,1734.074829 272.195801,1750.734985 
	C272.266022,1755.311646 272.810181,1760.163452 274.453339,1764.375488 
	C278.070770,1773.648071 281.882904,1782.958862 286.779877,1791.593628 
	C296.126984,1808.075317 306.411438,1824.022583 316.030518,1840.354492 
	C318.690979,1844.871704 321.494293,1849.791626 322.266083,1854.828125 
	C323.670990,1863.995972 323.951355,1873.384766 324.078217,1882.689819 
	C324.328064,1901.016846 323.892700,1919.355103 324.264557,1937.677979 
	C324.443512,1946.494995 323.371521,1954.938477 320.093811,1963.044556 
	C315.609894,1974.133911 311.439026,1985.403076 306.122070,1996.091797 
	C292.502075,2023.471680 278.178589,2050.500977 264.448120,2077.827148 
	C259.827271,2087.023438 255.528412,2096.476562 252.150757,2106.184326 
	C242.488846,2133.953125 240.393753,2162.738037 242.046677,2191.894531 
	C242.442917,2198.883789 245.978470,2204.512939 250.542267,2209.531250 
	C259.649506,2219.545898 270.868622,2226.583740 282.896057,2232.546875 
	C288.726471,2235.437744 294.306549,2238.833008 300.000000,2242.000000 
z"/>
<path fill="#020202" opacity="1.000000" stroke="none" 
	d="
M300.937317,2242.000000 
	C294.306549,2238.833008 288.726471,2235.437744 282.896057,2232.546875 
	C270.868622,2226.583740 259.649506,2219.545898 250.542267,2209.531250 
	C245.978470,2204.512939 242.442917,2198.883789 242.046677,2191.894531 
	C240.393753,2162.738037 242.488846,2133.953125 252.150757,2106.184326 
	C255.528412,2096.476562 259.827271,2087.023438 264.448120,2077.827148 
	C278.178589,2050.500977 292.502075,2023.471680 306.122070,1996.091797 
	C311.439026,1985.403076 315.609894,1974.133911 320.093811,1963.044556 
	C323.371521,1954.938477 324.443512,1946.494995 324.264557,1937.677979 
	C323.892700,1919.355103 324.328064,1901.016846 324.078217,1882.689819 
	C323.951355,1873.384766 323.670990,1863.995972 322.266083,1854.828125 
	C321.494293,1849.791626 318.690979,1844.871704 316.030518,1840.354492 
	C306.411438,1824.022583 296.126984,1808.075317 286.779877,1791.593628 
	C281.882904,1782.958862 278.070770,1773.648071 274.453339,1764.375488 
	C272.810181,1760.163452 272.266022,1755.311646 272.195801,1750.734985 
	C271.940033,1734.074829 271.353027,1717.367920 272.261383,1700.753540 
	C273.786438,1672.858887 275.445404,1644.775146 283.320953,1617.845703 
	C287.574524,1603.301147 294.748688,1589.559570 301.164062,1575.714722 
	C306.194122,1564.859497 311.766357,1554.222412 317.677368,1543.817871 
	C323.747833,1533.132446 330.484314,1522.823242 336.996124,1512.391113 
	C349.851990,1491.795044 362.302429,1470.926270 375.778015,1450.742920 
	C386.855164,1434.151855 399.023804,1418.277588 410.992706,1402.298340 
	C418.739166,1391.956177 430.160095,1385.899048 440.429993,1378.581055 
	C459.423584,1365.046875 479.239258,1352.843750 500.077728,1342.291870 
	C519.277161,1332.569824 539.901367,1327.474243 560.691956,1322.810059 
	C582.750732,1317.861450 604.902832,1313.291016 626.839050,1307.849365 
	C637.773010,1305.137207 648.535950,1301.390137 658.984741,1297.147095 
	C675.281372,1290.529541 691.409424,1283.439209 707.306946,1275.911621 
	C726.054871,1267.034180 738.913696,1251.580200 749.335144,1234.367065 
	C758.824036,1218.693848 766.061890,1201.814697 769.139343,1183.502808 
	C769.853699,1179.251953 770.545349,1174.925781 770.534851,1170.635986 
	C770.468689,1143.650635 771.346191,1116.594116 769.669434,1089.701050 
	C768.079773,1064.205322 767.059814,1038.525757 761.647095,1013.356628 
	C760.539307,1008.205200 760.326843,1002.791077 760.283386,997.493347 
	C760.127625,978.497559 760.223572,959.499634 760.220032,940.502563 
	C760.217896,928.750793 758.464294,917.346375 754.456299,906.212219 
	C750.968018,896.521545 748.399658,886.501587 744.976990,876.784851 
	C742.673584,870.245544 740.266174,863.577515 736.736145,857.665100 
	C723.518860,835.527710 714.615234,811.525391 705.845581,787.490601 
	C698.793945,768.164246 691.765808,748.760010 686.231079,728.969849 
	C681.141174,710.770081 677.159058,692.208618 676.851135,673.033325 
	C676.611389,658.105408 676.152039,643.096863 671.142273,628.700195 
	C670.179260,625.932861 669.759888,622.841736 669.750732,619.897949 
	C669.668945,593.569153 669.555237,567.238220 669.813843,540.911438 
	C670.030029,518.904175 678.790588,499.403198 689.641907,480.995422 
	C703.574097,457.361298 721.662598,436.999298 741.523499,418.055786 
	C758.405396,401.953644 774.956604,385.664307 794.705566,372.880035 
	C820.983643,355.869202 848.428772,340.943878 875.754211,325.768524 
	C888.990723,318.417572 903.354858,314.298035 917.755066,310.268036 
	C945.266418,302.568787 972.686340,294.445435 1000.459900,287.822021 
	C1014.263245,284.530212 1028.744019,283.006592 1042.956665,282.740631 
	C1067.915039,282.273590 1092.962402,282.488068 1117.859985,284.126343 
	C1137.725220,285.433441 1157.446289,289.129700 1177.185181,292.074188 
	C1186.039795,293.394989 1193.256714,298.140564 1199.403198,304.573700 
	C1204.560791,309.971832 1207.670410,310.450378 1213.759033,306.090790 
	C1248.988281,280.865509 1289.199341,269.017181 1331.226196,261.748260 
	C1377.776978,253.696884 1424.785767,252.649811 1471.690063,254.671951 
	C1518.658936,256.696869 1564.954102,264.508728 1609.989258,278.924286 
	C1628.995972,285.008270 1648.425415,289.786255 1666.065552,299.485870 
	C1672.469482,303.007141 1678.976196,306.476624 1684.889160,310.729950 
	C1702.981201,323.744171 1720.912476,336.988708 1738.702515,350.413696 
	C1751.680298,360.207153 1760.530029,373.634399 1769.568848,386.850159 
	C1792.418213,420.258942 1800.397949,457.832428 1800.612915,497.566437 
	C1800.713989,516.229736 1801.016602,534.905090 1800.476685,553.553284 
	C1800.180176,563.796692 1799.139282,574.169434 1796.998901,584.177002 
	C1792.549194,604.983032 1787.250977,625.611572 1782.067993,646.254456 
	C1780.452148,652.690369 1778.466064,659.090088 1775.999878,665.246155 
	C1763.369629,696.772583 1748.720459,727.331055 1732.630371,757.262878 
	C1720.354126,780.099731 1710.233398,803.890503 1703.466919,829.132263 
	C1697.704346,850.628906 1690.240967,871.665161 1683.740601,892.969360 
	C1674.403687,923.570190 1667.082397,954.737122 1662.957520,986.395142 
	C1660.388550,1006.112183 1661.900757,1026.326538 1660.607910,1046.254517 
	C1659.445923,1064.163940 1663.767212,1080.481445 1671.467896,1096.335449 
	C1680.049072,1114.001709 1688.303833,1131.767700 1699.981812,1147.775269 
	C1710.079468,1161.616821 1721.668579,1173.817261 1734.922363,1184.616821 
	C1755.322021,1201.238770 1775.454468,1218.188354 1795.793823,1234.885010 
	C1817.355225,1252.584839 1841.887695,1265.136963 1867.344604,1276.154907 
	C1885.656372,1284.080322 1903.883789,1292.230591 1921.894897,1300.813232 
	C1947.781494,1313.148682 1969.067261,1331.871826 1989.924683,1351.095703 
	C2003.161621,1363.295898 2016.096313,1375.720581 2026.243530,1390.810913 
	C2035.928101,1405.213623 2042.408081,1420.838745 2043.596680,1438.070190 
	C2045.083862,1459.630737 2046.941162,1481.356689 2045.781494,1502.857056 
	C2044.529663,1526.063843 2034.998169,1547.114502 2022.553589,1566.910400 
	C2007.414551,1590.992554 1985.820679,1608.929199 1966.127075,1628.722046 
	C1954.861572,1640.043945 1943.315552,1651.149048 1932.825195,1663.163208 
	C1921.107300,1676.582642 1914.102295,1692.195801 1916.083740,1710.701416 
	C1916.119019,1711.030884 1916.109863,1711.369141 1916.085083,1711.700562 
	C1914.187500,1737.051514 1924.850830,1757.072388 1943.735718,1772.628052 
	C1971.072266,1795.145020 1995.377319,1820.734497 2020.706665,1845.326416 
	C2036.185059,1860.354248 2053.749023,1873.242554 2070.512451,1886.924683 
	C2072.125488,1888.241455 2074.664307,1888.752075 2076.844482,1888.992554 
	C2090.565918,1890.505249 2095.459717,1894.967773 2098.400146,1908.156616 
	C2098.994629,1910.822754 2100.854736,1913.384521 2102.646484,1915.572998 
	C2108.339355,1922.526978 2114.487793,1929.113281 2120.073975,1936.148438 
	C2132.256836,1951.490479 2138.678955,1969.411377 2139.879395,1988.633179 
	C2141.392822,2012.877197 2141.687988,2037.226929 2141.563477,2061.526367 
	C2141.523438,2069.317139 2138.981934,2077.240967 2136.719482,2084.846191 
	C2130.701904,2105.070068 2120.415039,2123.399658 2110.505859,2141.874023 
	C2108.172607,2146.224121 2105.886475,2150.599854 2103.412109,2155.278809 
	C2124.190674,2170.708008 2139.572021,2190.885498 2156.761475,2209.335938 
	C2165.256104,2218.454102 2167.217529,2228.992676 2167.512939,2241.295898 
	C2154.624756,2242.000000 2141.249268,2242.000000 2127.044922,2241.236816 
	C2127.098633,2235.854492 2123.973145,2233.060791 2121.380859,2230.090332 
	C2117.458252,2225.595703 2113.494385,2221.131836 2109.407715,2216.787109 
	C2102.807373,2209.769531 2096.215332,2202.736328 2089.389160,2195.941406 
	C2083.496582,2190.075439 2081.901123,2190.399170 2077.156738,2197.068604 
	C2071.000000,2205.723389 2064.652100,2214.243408 2058.574951,2222.952881 
	C2054.223145,2229.189941 2050.180664,2235.643311 2046.000000,2242.000000 
	C2031.291504,2242.000000 2016.583008,2242.000000 2000.871582,2241.262207 
	C2005.687988,2230.944580 2011.142822,2221.118652 2017.404175,2211.837158 
	C2029.299805,2194.204590 2042.231812,2177.250977 2053.682373,2159.343262 
	C2069.275879,2134.956543 2083.542725,2109.718506 2094.479736,2082.849121 
	C2097.936523,2074.356934 2100.805908,2065.066650 2101.219482,2056.017090 
	C2101.976562,2039.452759 2099.934082,2022.771729 2100.452881,2006.182739 
	C2101.312744,1978.673218 2090.323975,1957.354248 2068.817627,1940.386597 
	C2039.924438,1944.837402 2012.909424,1955.626343 1986.177612,1967.570923 
	C1960.013672,1979.261475 1938.353027,1997.623047 1915.391602,2014.044800 
	C1893.400391,2029.772339 1870.791504,2044.118286 1845.369019,2053.889404 
	C1812.494629,2066.524902 1779.823975,2079.702637 1747.217041,2093.017578 
	C1717.217773,2105.267822 1686.108765,2113.167236 1654.150146,2117.941162 
	C1636.460815,2120.583740 1618.755371,2123.158447 1601.006592,2125.354492 
	C1581.973511,2127.709229 1562.918701,2130.822266 1543.806396,2131.403809 
	C1506.910034,2132.526367 1469.935303,2132.341797 1433.200073,2127.869385 
	C1411.840088,2125.268799 1390.229980,2123.212158 1369.387451,2118.191406 
	C1328.501831,2108.342529 1289.971069,2091.621094 1252.970703,2071.872070 
	C1233.542969,2061.502197 1213.714844,2052.259521 1193.350342,2044.125732 
	C1174.842407,2036.733521 1156.160645,2029.675659 1137.219971,2023.500122 
	C1122.460815,2018.688110 1107.329102,2014.735718 1092.102295,2011.716919 
	C1075.223511,2008.370605 1058.063965,2006.406616 1040.998169,2004.047485 
	C1022.914001,2001.547241 1004.839722,1999.645142 986.479675,1999.377075 
	C948.834045,1998.827393 911.413452,2002.039307 872.991333,2004.106934 
	C837.414673,2004.086670 802.767273,2004.159546 767.178833,2004.184326 
	C756.604614,2003.823608 746.950989,2003.801147 737.343750,2003.121582 
	C726.448181,2002.350830 715.601318,2000.913452 704.719971,1999.911133 
	C694.484680,1998.968506 684.182068,1998.602295 673.997925,1997.292236 
	C656.600281,1995.054199 639.221497,1992.576416 621.927063,1989.653320 
	C597.761292,1985.568848 573.569641,1981.511108 549.589233,1976.486694 
	C514.118774,1969.054932 481.551971,1953.783081 449.929596,1936.690552 
	C424.814636,1923.115112 399.520691,1909.574219 379.300079,1888.615845 
	C375.378021,1884.550781 370.369171,1881.534302 364.180023,1876.728149 
	C364.180023,1882.339478 364.180054,1885.579224 364.179993,1888.818970 
	C364.179626,1908.466797 364.430328,1928.119507 364.037384,1947.759521 
	C363.906586,1954.297241 362.914978,1961.051147 360.951080,1967.275146 
	C355.050751,1985.973755 347.923737,2004.172119 338.548004,2021.529175 
	C328.926086,2039.341675 320.266632,2057.677246 311.316742,2075.848633 
	C303.975372,2090.754395 295.478241,2105.275635 289.946655,2120.839111 
	C283.623993,2138.628662 281.480682,2157.542480 281.748444,2176.637695 
	C281.828400,2182.339111 283.501434,2186.401611 288.252411,2189.015869 
	C297.856903,2194.301025 307.293854,2200.057861 317.352966,2204.312500 
	C334.671967,2211.638184 350.465820,2221.280273 365.011292,2233.020508 
	C367.884735,2235.339844 369.697937,2238.972900 372.000031,2242.000000 
	C348.624878,2242.000000 325.249756,2242.000000 300.937317,2242.000000 
M1547.582275,711.375732 
	C1547.346924,711.268188 1547.111450,711.160645 1546.876099,711.053040 
	C1546.847412,711.314697 1546.818604,711.576355 1546.789917,711.838013 
	C1547.230713,711.841431 1547.671509,711.844910 1547.193970,712.623352 
	C1547.613525,713.687927 1548.033081,714.752502 1549.088013,717.442566 
	C1551.439697,735.609924 1540.568481,746.071899 1522.552002,743.165161 
	C1517.979614,742.427429 1513.311035,741.941162 1508.685425,741.932068 
	C1463.038818,741.842651 1417.391968,741.880859 1371.745117,741.872498 
	C1368.747681,741.871948 1365.713257,742.071655 1362.759644,741.687927 
	C1352.697266,740.380676 1345.121338,731.994263 1344.731567,722.018005 
	C1344.346313,712.156250 1351.440186,703.304443 1361.567383,701.486816 
	C1365.136353,700.846313 1368.854492,700.878479 1372.504761,700.875488 
	C1418.151611,700.838501 1463.798950,700.725403 1509.444702,700.956238 
	C1518.749634,701.003296 1528.047729,702.391724 1538.005493,703.216064 
	C1532.448486,695.709106 1527.110596,688.939392 1522.244995,681.845825 
	C1504.614868,656.143860 1484.980469,632.542419 1456.857056,617.507202 
	C1454.233887,616.104858 1451.974854,614.037476 1449.437500,612.453857 
	C1446.937988,610.893860 1444.456177,609.035828 1441.696655,608.206055 
	C1424.805176,603.127686 1408.495361,596.834045 1392.476196,589.275024 
	C1373.590820,580.363403 1353.749634,573.475281 1334.312988,565.735107 
	C1328.148438,563.280273 1321.953857,560.900818 1315.769043,558.496887 
	C1308.368286,555.620300 1300.871460,552.967834 1293.580322,549.836487 
	C1281.083130,544.469116 1268.727539,538.772827 1256.271240,533.308777 
	C1254.795410,532.661438 1253.073242,532.517273 1251.444580,532.287415 
	C1245.643921,531.468811 1239.834229,530.713806 1233.376221,529.847351 
	C1222.850098,536.568787 1211.372070,543.347107 1200.484863,550.969238 
	C1180.222778,565.154602 1162.189819,581.664795 1147.023071,601.468384 
	C1134.419312,617.925293 1123.898560,635.628540 1113.904907,653.589478 
	C1105.414062,668.849548 1098.942749,685.233337 1091.493286,701.302307 
	C1105.374878,699.243225 1119.153198,697.202026 1132.930542,695.155212 
	C1154.731201,691.916321 1176.666992,690.907898 1198.668335,691.542114 
	C1202.194336,691.643799 1206.004150,692.572632 1209.117920,694.199768 
	C1216.774902,698.201111 1220.676514,707.188660 1218.991699,715.316406 
	C1217.031860,724.770996 1209.914551,731.467224 1200.373291,731.966064 
	C1191.066528,732.452515 1181.628418,731.452271 1172.417114,732.539368 
	C1145.995972,735.657532 1119.646240,739.401550 1093.298218,743.111206 
	C1082.711426,744.601746 1072.215820,746.270447 1061.006592,741.174011 
	C1049.231567,760.925171 1035.085571,779.120422 1027.926270,801.744568 
	C1035.309204,800.875183 1041.849365,799.541748 1048.408447,799.442566 
	C1065.391724,799.185547 1082.404297,798.964966 1099.366333,799.668030 
	C1121.615601,800.590210 1143.828125,802.406006 1166.055664,803.849609 
	C1176.924316,804.555481 1186.771484,808.590027 1196.234985,813.555786 
	C1208.947754,820.226624 1220.464478,828.581909 1230.744019,838.680481 
	C1234.017700,841.896484 1237.904907,844.530273 1241.689697,847.175232 
	C1250.072388,853.033264 1260.015503,856.690735 1266.448242,865.336426 
	C1267.597290,866.880676 1270.396362,868.115051 1272.338501,867.991882 
	C1280.591553,867.468506 1288.808838,866.380432 1296.922729,865.511047 
	C1301.980713,852.137024 1312.191895,842.338440 1321.776367,832.517639 
	C1329.548828,824.553589 1339.359741,818.521301 1348.509888,811.972107 
	C1363.503540,801.240417 1380.079956,793.767212 1397.887451,789.023987 
	C1408.129395,786.295837 1418.420532,783.745789 1428.623657,780.880554 
	C1455.844116,773.236267 1482.984131,765.248779 1511.480103,763.812744 
	C1517.790771,763.494751 1524.099976,762.925171 1530.411987,762.893799 
	C1549.351074,762.799622 1568.371704,760.714661 1587.158203,764.963501 
	C1589.187378,765.422424 1591.266846,765.659119 1594.900635,766.259644 
	C1592.776245,763.347961 1591.706909,761.746216 1590.501709,760.254456 
	C1585.495605,754.058716 1580.592041,747.771912 1575.382446,741.750854 
	C1567.788940,732.974487 1559.964478,724.397949 1551.899170,714.583862 
	C1550.591797,713.740173 1549.284546,712.896484 1547.582275,711.375732 
M1528.233276,1206.282349 
	C1525.670166,1209.738281 1522.972778,1213.103760 1520.573853,1216.670044 
	C1516.327393,1222.982788 1512.484253,1229.576660 1508.056030,1235.754395 
	C1504.051636,1241.340698 1499.490845,1246.528320 1495.012939,1252.093628 
	C1502.956909,1259.766357 1503.734009,1268.349976 1500.680664,1278.819580 
	C1500.579590,1293.127686 1500.478516,1307.435669 1500.184814,1323.469849 
	C1500.091431,1328.039917 1499.997925,1332.609863 1498.695190,1338.387451 
	C1498.580688,1342.835571 1498.466064,1347.283691 1498.155518,1353.633545 
	C1497.951172,1363.282959 1497.926392,1372.940674 1497.483276,1382.579102 
	C1497.155396,1389.710693 1498.771484,1396.304321 1501.029907,1403.007202 
	C1508.957031,1426.535767 1522.303955,1447.263428 1534.376099,1468.655518 
	C1535.005737,1469.771240 1535.989380,1470.818359 1537.051880,1471.537354 
	C1543.783203,1476.092773 1550.583496,1480.546509 1557.568359,1485.171021 
	C1561.857178,1476.081055 1567.191406,1466.978516 1568.625732,1456.075928 
	C1569.962158,1445.918579 1573.337769,1435.998047 1574.294922,1425.830078 
	C1575.628296,1411.666504 1575.626953,1397.371826 1575.969116,1383.127686 
	C1576.013672,1381.279297 1574.894043,1379.299561 1573.990723,1377.547241 
	C1565.024292,1360.154053 1556.303467,1342.623657 1546.872192,1325.484619 
	C1539.770020,1312.578125 1533.141113,1299.207642 1530.799072,1284.919312 
	C1526.548218,1258.987061 1525.832642,1232.702148 1531.544922,1205.854858 
	C1531.541504,1204.972412 1531.538208,1204.089844 1531.534912,1203.207397 
	C1530.759155,1203.925781 1529.983398,1204.644165 1528.233276,1206.282349 
M1044.124390,1252.136597 
	C1044.169067,1266.032227 1044.213867,1279.927856 1044.082520,1295.493286 
	C1041.342529,1307.774292 1038.543213,1320.042480 1035.885864,1332.341309 
	C1034.419922,1339.125977 1032.735107,1345.909912 1031.950684,1352.785645 
	C1030.257690,1367.622559 1028.949341,1382.507690 1027.738403,1397.393799 
	C1026.826172,1408.607300 1025.895020,1419.851318 1025.841919,1431.085815 
	C1025.823120,1435.054932 1027.414795,1439.844849 1029.941650,1442.860107 
	C1037.394531,1451.753418 1045.245239,1460.425049 1053.798340,1468.244995 
	C1059.492432,1473.451050 1064.906128,1479.608398 1073.617432,1482.348999 
	C1076.984741,1477.196289 1080.269287,1472.267334 1083.456421,1467.276123 
	C1095.073608,1449.082153 1099.397461,1428.124756 1105.754150,1407.949951 
	C1106.530029,1405.487427 1106.349854,1402.684326 1106.389648,1400.035645 
	C1106.695312,1379.764160 1106.969238,1359.491943 1107.168091,1339.219116 
	C1107.183838,1337.616211 1106.689697,1335.967041 1106.212158,1334.406860 
	C1100.167236,1314.657471 1097.762817,1294.292114 1096.310425,1273.814941 
	C1095.944580,1268.657593 1094.259888,1265.400391 1089.977783,1262.379272 
	C1082.669678,1257.222900 1075.244629,1251.864258 1069.237915,1245.331543 
	C1062.778931,1238.307007 1056.280151,1234.630859 1046.924194,1238.099731 
	C1046.031128,1238.430908 1045.196167,1238.918457 1043.682861,1239.647095 
	C1043.912231,1243.143555 1044.147705,1246.734253 1044.124390,1252.136597 
M1142.170532,1306.198242 
	C1141.996338,1306.911377 1141.822144,1307.624634 1141.685791,1309.918335 
	C1144.914185,1321.779785 1147.948853,1333.580322 1147.636230,1346.126221 
	C1147.179688,1364.442383 1147.730591,1382.782104 1147.396362,1401.103516 
	C1147.288818,1407.000977 1146.163696,1412.975098 1144.757202,1418.731812 
	C1142.551758,1427.758423 1139.850098,1436.672974 1137.089111,1445.551025 
	C1135.420654,1450.915894 1133.673462,1456.332764 1131.212646,1461.359619 
	C1124.245605,1475.591553 1116.893066,1489.634644 1109.183716,1504.749023 
	C1130.192749,1517.880493 1151.498169,1531.404907 1173.016113,1544.582153 
	C1190.795532,1555.469604 1210.605225,1559.364380 1231.140259,1560.318359 
	C1245.781982,1560.998657 1260.435669,1561.472656 1275.065308,1562.349976 
	C1291.006104,1563.305908 1306.910400,1564.923218 1322.857056,1565.718750 
	C1358.543823,1567.498779 1394.032715,1563.174072 1429.619507,1561.804443 
	C1466.950317,1560.367798 1500.516479,1548.732056 1529.475464,1524.333740 
	C1516.659546,1514.289185 1506.895264,1501.359497 1498.571777,1487.243774 
	C1496.376587,1483.520996 1494.249634,1479.757690 1492.023804,1476.053589 
	C1480.181274,1456.346191 1469.694824,1435.968262 1462.140259,1414.209961 
	C1459.979248,1407.986084 1457.555298,1401.511475 1457.248779,1395.057007 
	C1456.602295,1381.443726 1457.043579,1367.760742 1457.460815,1354.119141 
	C1458.101196,1333.170898 1459.127563,1312.234497 1459.894897,1291.289673 
	C1459.968872,1289.269409 1459.372559,1287.224609 1459.216675,1286.113159 
	C1447.051880,1293.718872 1435.650269,1301.799072 1423.398682,1308.269775 
	C1407.556152,1316.637207 1391.151367,1323.980103 1374.779175,1331.295532 
	C1349.682373,1342.509521 1324.067993,1350.449341 1295.759766,1348.917236 
	C1276.108276,1347.853638 1256.574707,1346.620117 1237.203369,1343.323608 
	C1220.125244,1340.417236 1203.090820,1336.924805 1187.353027,1329.426514 
	C1172.360107,1322.283203 1157.777344,1314.278931 1142.170532,1306.198242 
M1011.647217,1959.852295 
	C1029.053955,1962.099243 1046.498657,1964.090210 1063.856567,1966.666382 
	C1080.530273,1969.140991 1097.163574,1971.959839 1113.723755,1975.106445 
	C1132.039185,1978.586426 1149.314331,1985.464722 1166.767090,1991.860474 
	C1194.829712,2002.144287 1222.983154,2012.167236 1249.887817,2025.272705 
	C1268.692383,2034.432495 1286.911865,2044.890137 1306.077026,2053.187256 
	C1327.362427,2062.402344 1349.013306,2071.250244 1371.252686,2077.666260 
	C1399.925781,2085.938232 1429.703491,2088.911377 1459.581177,2089.980469 
	C1469.783813,2090.345215 1479.974731,2091.042236 1491.998901,2091.881348 
	C1510.592407,2091.768799 1529.186035,2091.656250 1549.437622,2091.646973 
	C1555.700317,2090.975586 1561.985107,2090.464355 1568.222046,2089.605469 
	C1595.138184,2085.899414 1622.072388,2082.303955 1648.938721,2078.261475 
	C1676.908813,2074.053223 1704.288208,2067.500244 1730.578247,2056.730713 
	C1757.949707,2045.518433 1785.488037,2034.714355 1812.902100,2023.605103 
	C1826.435669,2018.120850 1840.560669,2013.591431 1853.153809,2006.412354 
	C1870.723755,1996.395874 1887.718750,1985.109741 1903.872437,1972.925659 
	C1934.613647,1949.738525 1966.860352,1929.606445 2003.555420,1917.203125 
	C2012.259277,1914.261230 2020.807861,1910.859619 2030.388672,1907.313843 
	C2027.594116,1904.953369 2025.667847,1903.200317 2023.614502,1901.611450 
	C2005.675049,1887.730225 1988.744507,1872.672607 1973.687378,1855.742432 
	C1960.580811,1841.005615 1946.578857,1827.245483 1930.945435,1815.387817 
	C1906.382812,1796.757812 1888.261963,1773.686523 1878.299072,1744.419922 
	C1877.129272,1740.983398 1876.550293,1737.345703 1875.986938,1731.976074 
	C1875.887451,1718.722412 1875.787842,1705.468628 1875.910522,1690.597290 
	C1879.659546,1671.640503 1887.339478,1654.273193 1899.895386,1639.742065 
	C1912.924927,1624.662842 1927.162598,1610.608643 1941.156250,1596.385864 
	C1957.673706,1579.598145 1976.166382,1564.780640 1989.048950,1544.481201 
	C1997.805542,1530.683105 2003.869507,1515.822510 2005.670288,1500.049072 
	C2007.891113,1480.595825 2005.987793,1460.868774 2003.458252,1441.392578 
	C2001.889160,1429.311646 1997.080811,1418.477539 1989.686035,1408.706299 
	C1977.925781,1393.166748 1962.799927,1381.068237 1948.405273,1368.279053 
	C1939.244629,1360.140259 1929.841064,1351.711304 1919.176025,1345.948608 
	C1897.854492,1334.428223 1875.849854,1324.062622 1853.652466,1314.299805 
	C1824.601196,1301.522705 1796.462769,1287.391846 1771.779907,1267.146118 
	C1754.307739,1252.814941 1737.272217,1237.915283 1719.326050,1224.206177 
	C1692.785889,1203.932007 1670.373535,1180.125488 1654.109253,1150.940674 
	C1646.021851,1136.428589 1639.229126,1121.194824 1631.855957,1106.284790 
	C1630.487427,1103.517212 1629.144531,1100.736938 1626.869385,1096.077515 
	C1623.822266,1101.503540 1621.554077,1104.735229 1620.083740,1108.296265 
	C1612.460327,1126.757446 1604.611206,1145.065552 1593.385254,1161.750488 
	C1590.443848,1166.122070 1588.387817,1171.137085 1586.279419,1176.010010 
	C1583.257446,1182.994019 1580.992798,1190.332397 1577.631226,1197.137329 
	C1571.509888,1209.528809 1567.070557,1222.137939 1567.945801,1236.269287 
	C1568.398071,1243.572388 1567.469482,1250.979736 1568.161987,1258.244751 
	C1569.005737,1267.095337 1569.573730,1276.343140 1572.643799,1284.524902 
	C1577.403442,1297.208862 1583.736572,1309.375854 1590.202637,1321.329102 
	C1599.844727,1339.153564 1609.907715,1356.732788 1615.970337,1377.955933 
	C1616.056763,1393.267212 1616.143188,1408.578369 1615.995117,1425.489990 
	C1614.527588,1431.954468 1613.059570,1438.418823 1611.592773,1444.883423 
	C1608.955200,1456.508301 1606.792725,1468.269409 1603.509521,1479.708984 
	C1601.423340,1486.977783 1597.582764,1493.731934 1594.683960,1500.780640 
	C1585.148438,1523.967285 1571.269043,1543.964355 1551.286987,1559.345825 
	C1545.772095,1563.590820 1539.842896,1567.396240 1533.757446,1570.780396 
	C1522.162354,1577.228516 1510.792725,1584.514771 1498.449707,1589.069092 
	C1484.841675,1594.090088 1470.381958,1597.232300 1456.035522,1599.686768 
	C1444.660400,1601.633179 1432.882568,1601.128662 1421.308472,1602.032593 
	C1404.775757,1603.323608 1388.265991,1604.907227 1369.926758,1606.089966 
	C1350.009521,1606.153198 1330.092163,1606.216553 1308.395142,1606.090698 
	C1292.973755,1604.674316 1277.573853,1602.452026 1262.125732,1602.039917 
	C1241.536987,1601.490601 1220.955688,1601.252930 1200.701294,1597.275635 
	C1191.657715,1595.499634 1182.324341,1593.525146 1174.103882,1589.590210 
	C1158.268677,1582.010620 1142.919922,1573.332886 1127.765259,1564.436279 
	C1112.876221,1555.696045 1098.475098,1546.124268 1083.867188,1536.905884 
	C1080.035889,1534.488403 1076.306396,1533.293579 1071.769287,1535.638794 
	C1061.873413,1540.754028 1046.376099,1530.436035 1046.187378,1519.352905 
	C1046.116577,1515.201416 1044.405640,1512.468628 1041.447632,1510.015503 
	C1038.633179,1507.681030 1035.943115,1505.196167 1033.203857,1502.771362 
	C1012.980530,1484.869995 992.886230,1466.867065 984.373108,1438.208496 
	C984.298584,1429.387695 984.223999,1420.566895 984.471985,1410.210205 
	C986.335022,1399.434937 989.046021,1388.725098 989.881653,1377.870728 
	C991.538513,1356.349731 993.035156,1334.905640 999.187683,1314.029907 
	C1001.426453,1306.433716 1003.630310,1298.508667 1003.817749,1290.684937 
	C1004.446411,1264.441772 1004.911926,1238.119141 1000.090027,1212.134033 
	C998.346191,1202.737183 996.573730,1193.178833 993.244812,1184.281494 
	C988.025696,1170.332275 981.463135,1156.886353 975.491943,1143.217651 
	C972.961060,1137.424072 971.101685,1131.236816 967.877136,1125.864868 
	C955.906921,1105.922241 943.412903,1086.295166 931.283569,1066.446899 
	C924.877747,1055.964355 919.548340,1044.743408 912.391235,1034.823975 
	C905.684875,1025.529419 903.140076,1015.819519 904.416748,1004.835876 
	C904.913025,1000.565918 905.542542,996.129761 907.166931,992.206360 
	C912.275879,979.867065 912.625183,967.038818 912.112854,954.039001 
	C912.060425,952.708374 912.077332,951.373291 912.108704,950.041443 
	C912.349426,939.818054 918.533203,932.330933 928.388123,930.313843 
	C939.628845,928.013123 942.368713,925.171936 942.057251,913.838196 
	C941.754578,902.823120 945.207397,893.048157 949.428833,883.134399 
	C954.860596,870.378052 961.131165,857.908569 962.590759,843.636047 
	C963.092590,838.729004 966.848511,834.093384 969.362183,829.466431 
	C974.257141,820.456177 980.896729,812.053650 984.024902,802.487427 
	C993.318726,774.066223 1007.465820,748.303955 1024.240967,723.865845 
	C1032.685791,711.563477 1042.193726,699.995789 1050.902954,687.867615 
	C1054.961426,682.216003 1059.624756,676.451538 1061.664917,669.995850 
	C1069.088501,646.506714 1082.329468,625.957336 1094.996460,605.454651 
	C1115.195068,572.761658 1140.138550,543.695923 1172.110962,521.509827 
	C1181.677734,514.871216 1191.586182,508.719727 1201.417358,502.469757 
	C1206.522705,499.224121 1210.440063,495.683075 1212.925537,489.511902 
	C1219.258545,473.787720 1239.927612,474.414459 1247.088623,485.717712 
	C1248.484741,487.921356 1250.181885,489.934326 1250.531982,490.406494 
	C1259.653442,492.782654 1267.280151,493.988403 1274.297729,496.744781 
	C1294.936890,504.851440 1314.385010,515.575684 1335.619995,522.620728 
	C1358.572266,530.235474 1380.509399,540.864746 1403.076050,549.702209 
	C1417.861572,555.492371 1431.274902,564.543640 1447.391479,567.310852 
	C1454.134155,568.468506 1460.855469,571.396057 1466.866943,574.792664 
	C1476.674194,580.333984 1486.186279,586.519897 1495.254883,593.204285 
	C1501.366455,597.708984 1506.310913,603.760681 1512.107666,608.735657 
	C1528.866943,623.118958 1543.031494,639.648438 1555.191040,658.094238 
	C1560.456909,666.082458 1566.557739,673.771362 1573.445557,680.381165 
	C1583.980347,690.491028 1594.767700,700.244080 1603.402954,712.140381 
	C1608.073486,718.574646 1613.250122,724.639160 1618.082153,730.959351 
	C1622.294434,736.468872 1626.680908,741.888062 1630.398804,747.724060 
	C1639.817749,762.509033 1644.769897,779.017456 1648.009888,797.922241 
	C1648.049683,816.612366 1648.089478,835.302429 1647.798584,855.515503 
	C1644.581787,862.761108 1643.262695,870.242188 1645.297852,878.256287 
	C1651.482056,861.483093 1657.966919,844.759338 1661.984009,827.462402 
	C1668.587158,799.030273 1680.248291,772.624817 1692.304810,746.393921 
	C1701.720337,725.909058 1713.202881,706.383423 1722.975098,686.050903 
	C1732.903320,665.393677 1742.021362,644.374329 1746.734009,621.687439 
	C1749.902588,606.433960 1754.130249,591.402893 1757.686768,576.226135 
	C1758.817749,571.399963 1760.072632,566.410095 1759.976318,561.520630 
	C1759.380493,531.264648 1762.340454,500.918060 1758.102173,470.759247 
	C1755.978638,455.649841 1753.413818,440.628174 1745.895996,426.951111 
	C1734.955444,407.046936 1723.635010,387.604919 1704.007935,374.540619 
	C1691.841187,366.442078 1679.848511,357.987823 1668.449341,348.854950 
	C1655.238281,338.270172 1640.521606,330.722382 1624.621948,325.693695 
	C1591.402344,315.187103 1558.052002,304.990875 1523.321045,300.538879 
	C1509.851685,298.812317 1496.360596,296.793152 1482.822021,296.184204 
	C1464.530518,295.361450 1446.182007,295.884338 1427.860840,295.622681 
	C1401.576050,295.247314 1375.414917,296.320648 1349.292847,299.697479 
	C1321.430908,303.299255 1294.706055,310.894806 1268.605957,320.873779 
	C1262.156494,323.339630 1256.308472,327.396729 1250.224854,330.795410 
	C1245.904785,333.208862 1243.861450,336.541931 1243.404053,341.906799 
	C1242.654175,350.700623 1235.109253,358.247772 1226.818970,359.700928 
	C1218.790405,361.108215 1211.347046,358.457703 1205.294067,353.658783 
	C1198.304565,348.117310 1188.521240,346.734955 1183.365845,338.588104 
	C1182.947266,337.926819 1181.533936,337.947021 1180.641968,337.525482 
	C1171.617065,333.260590 1162.417847,329.661346 1152.331909,328.705048 
	C1137.518555,327.300476 1122.725342,325.684784 1106.233032,323.844879 
	C1086.414795,323.364594 1066.598022,322.767548 1046.776978,322.497437 
	C1042.552002,322.439880 1038.311035,323.571167 1032.352661,324.043640 
	C1024.814453,324.990265 1017.083923,325.175873 1009.773376,327.023468 
	C985.975586,333.037781 962.236877,339.332916 938.658264,346.152222 
	C920.166199,351.500427 901.391418,356.306274 884.725037,366.605621 
	C878.223572,370.623383 871.704407,374.656982 864.936584,378.191772 
	C829.341125,396.783173 796.263062,418.653473 768.377686,448.055023 
	C753.009888,464.258423 737.390137,480.097961 725.763916,499.338959 
	C717.611633,512.830627 710.656738,526.959229 710.179382,542.978210 
	C709.594055,562.620422 710.304871,582.297791 710.092957,601.956116 
	C709.984741,611.995911 710.867004,621.732056 713.618652,631.465820 
	C715.307495,637.440308 715.346497,643.894592 715.994995,650.147095 
	C717.670776,666.303101 718.390869,682.616150 721.098328,698.594421 
	C725.995361,727.494812 736.376160,754.901855 746.874390,782.117371 
	C754.391357,801.604370 761.651550,821.244690 772.898132,839.178101 
	C782.341980,854.236877 785.223877,872.045715 791.224854,888.560120 
	C798.830139,909.489258 801.682434,931.046387 801.614502,953.148010 
	C801.566345,968.810852 801.424316,984.477173 801.699829,1000.135315 
	C801.810181,1006.406982 802.854858,1012.669678 803.602356,1018.921143 
	C804.902405,1029.793945 806.790710,1040.620972 807.547729,1051.528687 
	C808.743164,1068.755005 809.131775,1086.036255 810.054688,1103.283936 
	C810.211426,1106.212402 811.333313,1109.089478 811.652344,1113.840210 
	C811.775635,1135.225708 811.898865,1156.611084 811.709290,1179.552490 
	C811.160583,1181.119995 810.348206,1182.647339 810.102905,1184.260864 
	C806.668579,1206.848511 798.984436,1227.929077 787.920227,1247.860840 
	C772.972961,1274.787720 753.696533,1297.298584 725.931335,1312.031738 
	C698.795105,1326.431152 670.435242,1337.794434 640.927063,1345.741699 
	C611.825989,1353.579224 582.130188,1359.190796 552.752136,1366.023193 
	C530.130005,1371.284302 509.659241,1381.720947 490.233856,1394.023560 
	C466.692780,1408.932861 442.526703,1423.093628 427.074097,1447.857178 
	C417.761871,1462.780396 406.454163,1476.445923 396.823792,1491.186768 
	C387.933594,1504.794556 380.111786,1519.098755 371.769196,1533.066284 
	C364.789368,1544.752319 357.589203,1556.309448 350.770691,1568.088257 
	C346.451324,1575.549927 342.675507,1583.325073 338.615967,1590.938354 
	C329.062775,1608.854370 320.356873,1627.112183 317.979828,1647.599487 
	C314.536469,1677.277466 311.886353,1706.962158 311.714752,1736.940796 
	C311.613861,1754.562256 320.129822,1767.727173 327.694580,1782.865601 
	C329.836670,1781.030884 331.059052,1780.043701 332.215363,1778.984497 
	C345.648499,1766.679688 362.038330,1771.265503 366.383057,1788.841797 
	C368.202911,1796.203735 368.769745,1803.867310 370.197662,1811.338135 
	C370.798798,1814.483154 371.566833,1817.862305 373.260010,1820.489990 
	C385.768860,1839.902588 400.787964,1857.093384 419.295288,1871.072754 
	C423.002625,1873.873047 426.536804,1876.999268 430.541687,1879.292480 
	C447.859680,1889.208984 465.256195,1898.993286 482.747864,1908.600464 
	C513.013000,1925.223389 545.299011,1936.228271 579.282227,1942.043213 
	C623.365967,1949.586426 667.453552,1957.180542 712.121094,1960.602173 
	C726.285095,1961.687134 740.423096,1963.838745 754.590820,1964.006836 
	C793.231384,1964.465332 831.881409,1964.128662 870.527649,1964.099731 
	C874.854309,1964.096436 879.198425,1964.288574 883.504578,1963.977295 
	C900.994568,1962.712524 918.472900,1961.286621 937.831177,1960.127808 
	C961.844727,1959.991211 985.858337,1959.854614 1011.647217,1959.852295 
M1272.622314,953.728943 
	C1265.859497,957.288818 1259.407349,961.732239 1252.274658,964.239624 
	C1232.534790,971.178955 1212.670532,977.875977 1192.543701,983.565369 
	C1178.826904,987.442566 1164.619507,991.646301 1150.572144,991.862793 
	C1121.010498,992.318542 1091.371948,990.852661 1061.838135,989.006653 
	C1041.311768,987.723633 1022.572815,979.432800 1004.225769,970.509094 
	C992.666870,964.887024 980.913330,959.665039 969.339966,954.306580 
	C956.519714,969.714966 951.082581,987.442444 950.056885,1006.807373 
	C949.697998,1013.581787 950.375061,1019.955750 954.493286,1025.750122 
	C956.383972,1028.410278 957.408752,1031.686035 959.076294,1035.211426 
	C971.466614,1037.001831 977.163635,1045.017700 979.308105,1057.288574 
	C980.471619,1063.946411 983.125183,1070.952515 987.046631,1076.406738 
	C999.268860,1093.405518 1011.755920,1110.307617 1025.404053,1126.158936 
	C1037.361328,1140.046265 1048.656494,1154.309204 1058.257812,1169.846680 
	C1071.712769,1191.620728 1089.197144,1209.724731 1108.423462,1226.280518 
	C1116.231201,1233.003906 1125.198730,1238.499756 1132.397583,1245.781006 
	C1141.623535,1255.112305 1151.969849,1262.605957 1162.813354,1269.818970 
	C1186.634155,1285.664917 1211.844482,1297.829590 1240.393677,1302.173096 
	C1251.567505,1303.873047 1262.688232,1306.344482 1273.925781,1307.118896 
	C1298.515625,1308.813354 1323.108276,1309.958130 1346.396362,1298.798828 
	C1367.359985,1288.753540 1388.640137,1279.369751 1409.760864,1269.651245 
	C1411.260498,1268.961060 1412.693604,1268.039429 1413.994507,1267.017700 
	C1427.849854,1256.134888 1441.847778,1245.422119 1455.413086,1234.187256 
	C1460.489624,1229.982910 1465.042358,1224.907715 1468.959229,1219.585938 
	C1480.772827,1203.535278 1492.287109,1187.259155 1503.669189,1170.897827 
	C1513.723511,1156.445190 1523.236816,1141.614136 1533.386108,1127.230347 
	C1539.883057,1118.023071 1547.415649,1109.544434 1553.872559,1100.311646 
	C1557.458618,1095.183594 1559.200806,1088.762817 1562.804321,1083.650879 
	C1571.083130,1071.906006 1574.915771,1058.671509 1577.829346,1044.900391 
	C1579.396484,1037.494263 1581.469727,1030.125000 1584.101196,1023.030640 
	C1588.136353,1012.151733 1592.363525,1001.673340 1592.030029,989.505798 
	C1591.610840,974.213806 1593.789307,959.082886 1599.044434,944.395691 
	C1600.745239,939.642456 1599.311401,933.767700 1599.311401,928.042969 
	C1588.028931,934.379578 1578.017212,941.031860 1567.198608,945.885193 
	C1534.952026,960.351196 1500.458740,966.544983 1465.632202,969.499512 
	C1436.815674,971.944275 1407.753784,971.502136 1378.800171,972.319946 
	C1376.161743,972.394531 1373.519287,972.329895 1369.997192,972.329895 
	C1378.343872,980.155823 1386.766113,986.435547 1388.877686,996.770691 
	C1390.656738,1005.478210 1391.847778,1014.627869 1391.140137,1023.407898 
	C1390.670898,1029.230347 1387.812134,1036.451660 1383.512207,1040.026367 
	C1375.731201,1046.494873 1366.441895,1051.535034 1357.118286,1055.676758 
	C1340.548828,1063.037231 1322.465332,1061.081909 1304.955688,1061.914307 
	C1294.233887,1062.423950 1286.075317,1053.623413 1285.538208,1043.081909 
	C1284.983398,1032.192017 1291.589600,1023.348450 1302.388306,1021.867004 
	C1310.923706,1020.696045 1319.610107,1020.560791 1328.238159,1020.148804 
	C1336.313721,1019.763245 1343.864380,1018.137817 1350.503662,1012.397339 
	C1349.666016,1010.944641 1349.283569,1009.526123 1348.358276,1008.791199 
	C1336.170532,999.111023 1324.271484,989.007874 1311.558838,980.064514 
	C1298.750366,971.053772 1284.502563,963.686829 1285.691650,943.800964 
	C1281.085571,947.402466 1277.493042,950.211548 1272.622314,953.728943 
M1601.415649,832.844360 
	C1594.385986,819.793152 1580.983154,814.524597 1569.582642,806.817017 
	C1569.062256,806.465210 1568.322266,806.394897 1567.669189,806.288940 
	C1545.491699,802.691345 1523.387939,802.901917 1501.469238,808.051636 
	C1488.637817,811.066284 1475.851196,814.307434 1463.145264,817.811707 
	C1450.695312,821.245483 1438.321045,824.978333 1426.014648,828.897888 
	C1418.759644,831.208618 1411.215088,833.277771 1404.665283,836.983643 
	C1394.022949,843.004822 1382.556641,848.792542 1374.225952,857.382446 
	C1362.461304,869.513306 1356.745239,884.986511 1357.485596,902.875732 
	C1357.873535,912.247742 1362.807007,919.003113 1368.744019,922.546997 
	C1377.872437,927.995850 1388.317627,932.698669 1399.818604,931.961914 
	C1408.748779,931.389832 1417.859619,929.345154 1426.554077,930.495300 
	C1436.964111,931.872437 1446.966431,931.632751 1457.195801,930.062134 
	C1469.315186,928.201355 1481.577515,927.198608 1493.637085,925.038452 
	C1512.955933,921.577942 1531.487305,915.477783 1549.925903,908.607910 
	C1568.775879,901.584717 1585.072754,891.836487 1597.036499,875.581482 
	C1599.265747,872.552734 1600.676636,868.695068 1601.639648,865.004639 
	C1604.280273,854.884888 1602.262573,844.621277 1601.415649,832.844360 
M1186.124878,872.903564 
	C1183.294434,870.634460 1180.795898,867.249573 1177.575439,866.291870 
	C1164.538574,862.414734 1151.442749,857.492676 1138.066650,856.275940 
	C1114.923828,854.170776 1091.559326,854.258545 1068.281494,854.002319 
	C1059.391968,853.904480 1050.319946,854.577087 1041.624023,856.341980 
	C1027.984619,859.110413 1015.346008,864.296021 1003.649170,872.522949 
	C990.053345,882.085632 985.431946,894.304504 987.885437,910.023560 
	C988.632812,914.812012 990.848083,918.209778 995.382568,920.948181 
	C1011.702698,930.803772 1029.044556,938.365723 1046.735107,945.235596 
	C1062.690308,951.431580 1079.017090,955.257629 1096.384033,954.359192 
	C1109.685059,953.671143 1123.043701,954.159546 1136.371582,953.882751 
	C1140.313965,953.800903 1144.325562,953.249268 1148.157959,952.310608 
	C1169.105103,947.179688 1189.945068,941.597656 1210.950806,936.725952 
	C1220.430786,934.527466 1227.822266,929.209412 1235.074341,923.374512 
	C1236.282471,922.402466 1237.540527,920.840942 1237.758911,919.397949 
	C1239.009888,911.134216 1238.249146,903.245544 1230.866333,897.830200 
	C1226.866577,894.896301 1222.460571,892.476196 1218.089844,890.096313 
	C1207.892456,884.543823 1197.605591,879.155762 1186.124878,872.903564 
z"/>
<path fill="#286745" opacity="1.000000" stroke="none" 
	d="
M372.937347,2242.000000 
	C369.697937,2238.972900 367.884735,2235.339844 365.011292,2233.020508 
	C350.465820,2221.280273 334.671967,2211.638184 317.352966,2204.312500 
	C307.293854,2200.057861 297.856903,2194.301025 288.252411,2189.015869 
	C283.501434,2186.401611 281.828400,2182.339111 281.748444,2176.637695 
	C281.480682,2157.542480 283.623993,2138.628662 289.946655,2120.839111 
	C295.478241,2105.275635 303.975372,2090.754395 311.316742,2075.848633 
	C320.266632,2057.677246 328.926086,2039.341675 338.548004,2021.529175 
	C347.923737,2004.172119 355.050751,1985.973755 360.951080,1967.275146 
	C362.914978,1961.051147 363.906586,1954.297241 364.037384,1947.759521 
	C364.430328,1928.119507 364.179626,1908.466797 364.179993,1888.818970 
	C364.180054,1885.579224 364.180023,1882.339478 364.180023,1876.728149 
	C370.369171,1881.534302 375.378021,1884.550781 379.300079,1888.615845 
	C399.520691,1909.574219 424.814636,1923.115112 449.929596,1936.690552 
	C481.551971,1953.783081 514.118774,1969.054932 549.589233,1976.486694 
	C573.569641,1981.511108 597.761292,1985.568848 621.927063,1989.653320 
	C639.221497,1992.576416 656.600281,1995.054199 673.997925,1997.292236 
	C684.182068,1998.602295 694.484680,1998.968506 704.719971,1999.911133 
	C715.601318,2000.913452 726.448181,2002.350830 737.343750,2003.121582 
	C746.950989,2003.801147 756.604614,2003.823608 767.747681,2004.782715 
	C770.225464,2005.615601 771.193115,2005.964355 772.161072,2005.965210 
	C803.965027,2005.995605 835.769043,2006.026978 867.572632,2005.917847 
	C869.690552,2005.910645 871.804688,2004.798340 873.920532,2004.200195 
	C911.413452,2002.039307 948.834045,1998.827393 986.479675,1999.377075 
	C1004.839722,1999.645142 1022.914001,2001.547241 1040.998169,2004.047485 
	C1058.063965,2006.406616 1075.223511,2008.370605 1092.102295,2011.716919 
	C1107.329102,2014.735718 1122.460815,2018.688110 1137.219971,2023.500122 
	C1156.160645,2029.675659 1174.842407,2036.733521 1193.350342,2044.125732 
	C1213.714844,2052.259521 1233.542969,2061.502197 1252.970703,2071.872070 
	C1289.971069,2091.621094 1328.501831,2108.342529 1369.387451,2118.191406 
	C1390.229980,2123.212158 1411.840088,2125.268799 1433.200073,2127.869385 
	C1469.935303,2132.341797 1506.910034,2132.526367 1543.806396,2131.403809 
	C1562.918701,2130.822266 1581.973511,2127.709229 1601.006592,2125.354492 
	C1618.755371,2123.158447 1636.460815,2120.583740 1654.150146,2117.941162 
	C1686.108765,2113.167236 1717.217773,2105.267822 1747.217041,2093.017578 
	C1779.823975,2079.702637 1812.494629,2066.524902 1845.369019,2053.889404 
	C1870.791504,2044.118286 1893.400391,2029.772339 1915.391602,2014.044800 
	C1938.353027,1997.623047 1960.013672,1979.261475 1986.177612,1967.570923 
	C2012.909424,1955.626343 2039.924438,1944.837402 2068.817627,1940.386597 
	C2090.323975,1957.354248 2101.312744,1978.673218 2100.452881,2006.182739 
	C2099.934082,2022.771729 2101.976562,2039.452759 2101.219482,2056.017090 
	C2100.805908,2065.066650 2097.936523,2074.356934 2094.479736,2082.849121 
	C2083.542725,2109.718506 2069.275879,2134.956543 2053.682373,2159.343262 
	C2042.231812,2177.250977 2029.299805,2194.204590 2017.404175,2211.837158 
	C2011.142822,2221.118652 2005.687988,2230.944580 1999.934326,2241.262207 
	C1457.958252,2242.000000 915.916443,2242.000000 372.937347,2242.000000 
z"/>
<path fill="#2A6646" opacity="1.000000" stroke="none" 
	d="
M2046.937256,2242.000000 
	C2050.180664,2235.643311 2054.223145,2229.189941 2058.574951,2222.952881 
	C2064.652100,2214.243408 2071.000000,2205.723389 2077.156738,2197.068604 
	C2081.901123,2190.399170 2083.496582,2190.075439 2089.389160,2195.941406 
	C2096.215332,2202.736328 2102.807373,2209.769531 2109.407715,2216.787109 
	C2113.494385,2221.131836 2117.458252,2225.595703 2121.380859,2230.090332 
	C2123.973145,2233.060791 2127.098633,2235.854492 2126.107910,2241.236816 
	C2099.958252,2242.000000 2073.916260,2242.000000 2046.937256,2242.000000 
z"/>
<path fill="#286745" opacity="1.000000" stroke="none" 
	d="
M1107.923462,324.159058 
	C1122.725342,325.684784 1137.518555,327.300476 1152.331909,328.705048 
	C1162.417847,329.661346 1171.617065,333.260590 1180.641968,337.525482 
	C1181.533936,337.947021 1182.947266,337.926819 1183.365845,338.588104 
	C1188.521240,346.734955 1198.304565,348.117310 1205.294067,353.658783 
	C1211.347046,358.457703 1218.790405,361.108215 1226.818970,359.700928 
	C1235.109253,358.247772 1242.654175,350.700623 1243.404053,341.906799 
	C1243.861450,336.541931 1245.904785,333.208862 1250.224854,330.795410 
	C1256.308472,327.396729 1262.156494,323.339630 1268.605957,320.873779 
	C1294.706055,310.894806 1321.430908,303.299255 1349.292847,299.697479 
	C1375.414917,296.320648 1401.576050,295.247314 1427.860840,295.622681 
	C1446.182007,295.884338 1464.530518,295.361450 1482.822021,296.184204 
	C1496.360596,296.793152 1509.851685,298.812317 1523.321045,300.538879 
	C1558.052002,304.990875 1591.402344,315.187103 1624.621948,325.693695 
	C1640.521606,330.722382 1655.238281,338.270172 1668.449341,348.854950 
	C1679.848511,357.987823 1691.841187,366.442078 1704.007935,374.540619 
	C1723.635010,387.604919 1734.955444,407.046936 1745.895996,426.951111 
	C1753.413818,440.628174 1755.978638,455.649841 1758.102173,470.759247 
	C1762.340454,500.918060 1759.380493,531.264648 1759.976318,561.520630 
	C1760.072632,566.410095 1758.817749,571.399963 1757.686768,576.226135 
	C1754.130249,591.402893 1749.902588,606.433960 1746.734009,621.687439 
	C1742.021362,644.374329 1732.903320,665.393677 1722.975098,686.050903 
	C1713.202881,706.383423 1701.720337,725.909058 1692.304810,746.393921 
	C1680.248291,772.624817 1668.587158,799.030273 1661.984009,827.462402 
	C1657.966919,844.759338 1651.482056,861.483093 1645.297852,878.256287 
	C1643.262695,870.242188 1644.581787,862.761108 1648.554443,854.166626 
	C1649.512329,835.028076 1649.746826,817.238647 1649.839111,799.448425 
	C1649.844971,798.322815 1648.742188,797.191406 1648.155151,796.062683 
	C1644.769897,779.017456 1639.817749,762.509033 1630.398804,747.724060 
	C1626.680908,741.888062 1622.294434,736.468872 1618.082153,730.959351 
	C1613.250122,724.639160 1608.073486,718.574646 1603.402954,712.140381 
	C1594.767700,700.244080 1583.980347,690.491028 1573.445557,680.381165 
	C1566.557739,673.771362 1560.456909,666.082458 1555.191040,658.094238 
	C1543.031494,639.648438 1528.866943,623.118958 1512.107666,608.735657 
	C1506.310913,603.760681 1501.366455,597.708984 1495.254883,593.204285 
	C1486.186279,586.519897 1476.674194,580.333984 1466.866943,574.792664 
	C1460.855469,571.396057 1454.134155,568.468506 1447.391479,567.310852 
	C1431.274902,564.543640 1417.861572,555.492371 1403.076050,549.702209 
	C1380.509399,540.864746 1358.572266,530.235474 1335.619995,522.620728 
	C1314.385010,515.575684 1294.936890,504.851440 1274.297729,496.744781 
	C1267.280151,493.988403 1259.653442,492.782654 1250.531982,490.406494 
	C1250.181885,489.934326 1248.484741,487.921356 1247.088623,485.717712 
	C1239.927612,474.414459 1219.258545,473.787720 1212.925537,489.511902 
	C1210.440063,495.683075 1206.522705,499.224121 1201.417358,502.469757 
	C1191.586182,508.719727 1181.677734,514.871216 1172.110962,521.509827 
	C1140.138550,543.695923 1115.195068,572.761658 1094.996460,605.454651 
	C1082.329468,625.957336 1069.088501,646.506714 1061.664917,669.995850 
	C1059.624756,676.451538 1054.961426,682.216003 1050.902954,687.867615 
	C1042.193726,699.995789 1032.685791,711.563477 1024.240967,723.865845 
	C1007.465820,748.303955 993.318726,774.066223 984.024902,802.487427 
	C980.896729,812.053650 974.257141,820.456177 969.362183,829.466431 
	C966.848511,834.093384 963.092590,838.729004 962.590759,843.636047 
	C961.131165,857.908569 954.860596,870.378052 949.428833,883.134399 
	C945.207397,893.048157 941.754578,902.823120 942.057251,913.838196 
	C942.368713,925.171936 939.628845,928.013123 928.388123,930.313843 
	C918.533203,932.330933 912.349426,939.818054 912.108704,950.041443 
	C912.077332,951.373291 912.060425,952.708374 912.112854,954.039001 
	C912.625183,967.038818 912.275879,979.867065 907.166931,992.206360 
	C905.542542,996.129761 904.913025,1000.565918 904.416748,1004.835876 
	C903.140076,1015.819519 905.684875,1025.529419 912.391235,1034.823975 
	C919.548340,1044.743408 924.877747,1055.964355 931.283569,1066.446899 
	C943.412903,1086.295166 955.906921,1105.922241 967.877136,1125.864868 
	C971.101685,1131.236816 972.961060,1137.424072 975.491943,1143.217651 
	C981.463135,1156.886353 988.025696,1170.332275 993.244812,1184.281494 
	C996.573730,1193.178833 998.346191,1202.737183 1000.090027,1212.134033 
	C1004.911926,1238.119141 1004.446411,1264.441772 1003.817749,1290.684937 
	C1003.630310,1298.508667 1001.426453,1306.433716 999.187683,1314.029907 
	C993.035156,1334.905640 991.538513,1356.349731 989.881653,1377.870728 
	C989.046021,1388.725098 986.335022,1399.434937 983.683105,1411.566406 
	C982.118103,1422.014771 980.112671,1431.158203 984.028503,1440.054077 
	C992.886230,1466.867065 1012.980530,1484.869995 1033.203857,1502.771362 
	C1035.943115,1505.196167 1038.633179,1507.681030 1041.447632,1510.015503 
	C1044.405640,1512.468628 1046.116577,1515.201416 1046.187378,1519.352905 
	C1046.376099,1530.436035 1061.873413,1540.754028 1071.769287,1535.638794 
	C1076.306396,1533.293579 1080.035889,1534.488403 1083.867188,1536.905884 
	C1098.475098,1546.124268 1112.876221,1555.696045 1127.765259,1564.436279 
	C1142.919922,1573.332886 1158.268677,1582.010620 1174.103882,1589.590210 
	C1182.324341,1593.525146 1191.657715,1595.499634 1200.701294,1597.275635 
	C1220.955688,1601.252930 1241.536987,1601.490601 1262.125732,1602.039917 
	C1277.573853,1602.452026 1292.973755,1604.674316 1309.870972,1606.753418 
	C1330.312012,1607.594238 1349.277100,1607.800781 1368.242676,1607.880981 
	C1369.408447,1607.885864 1370.578369,1606.893921 1371.746338,1606.365723 
	C1388.265991,1604.907227 1404.775757,1603.323608 1421.308472,1602.032593 
	C1432.882568,1601.128662 1444.660400,1601.633179 1456.035522,1599.686768 
	C1470.381958,1597.232300 1484.841675,1594.090088 1498.449707,1589.069092 
	C1510.792725,1584.514771 1522.162354,1577.228516 1533.757446,1570.780396 
	C1539.842896,1567.396240 1545.772095,1563.590820 1551.286987,1559.345825 
	C1571.269043,1543.964355 1585.148438,1523.967285 1594.683960,1500.780640 
	C1597.582764,1493.731934 1601.423340,1486.977783 1603.509521,1479.708984 
	C1606.792725,1468.269409 1608.955200,1456.508301 1611.592773,1444.883423 
	C1613.059570,1438.418823 1614.527588,1431.954468 1616.692383,1424.106934 
	C1617.577515,1408.312866 1617.804688,1393.902100 1617.877197,1379.490601 
	C1617.882812,1378.368286 1616.806885,1377.240479 1616.233643,1376.115234 
	C1609.907715,1356.732788 1599.844727,1339.153564 1590.202637,1321.329102 
	C1583.736572,1309.375854 1577.403442,1297.208862 1572.643799,1284.524902 
	C1569.573730,1276.343140 1569.005737,1267.095337 1568.161987,1258.244751 
	C1567.469482,1250.979736 1568.398071,1243.572388 1567.945801,1236.269287 
	C1567.070557,1222.137939 1571.509888,1209.528809 1577.631226,1197.137329 
	C1580.992798,1190.332397 1583.257446,1182.994019 1586.279419,1176.010010 
	C1588.387817,1171.137085 1590.443848,1166.122070 1593.385254,1161.750488 
	C1604.611206,1145.065552 1612.460327,1126.757446 1620.083740,1108.296265 
	C1621.554077,1104.735229 1623.822266,1101.503540 1626.869385,1096.077515 
	C1629.144531,1100.736938 1630.487427,1103.517212 1631.855957,1106.284790 
	C1639.229126,1121.194824 1646.021851,1136.428589 1654.109253,1150.940674 
	C1670.373535,1180.125488 1692.785889,1203.932007 1719.326050,1224.206177 
	C1737.272217,1237.915283 1754.307739,1252.814941 1771.779907,1267.146118 
	C1796.462769,1287.391846 1824.601196,1301.522705 1853.652466,1314.299805 
	C1875.849854,1324.062622 1897.854492,1334.428223 1919.176025,1345.948608 
	C1929.841064,1351.711304 1939.244629,1360.140259 1948.405273,1368.279053 
	C1962.799927,1381.068237 1977.925781,1393.166748 1989.686035,1408.706299 
	C1997.080811,1418.477539 2001.889160,1429.311646 2003.458252,1441.392578 
	C2005.987793,1460.868774 2007.891113,1480.595825 2005.670288,1500.049072 
	C2003.869507,1515.822510 1997.805542,1530.683105 1989.048950,1544.481201 
	C1976.166382,1564.780640 1957.673706,1579.598145 1941.156250,1596.385864 
	C1927.162598,1610.608643 1912.924927,1624.662842 1899.895386,1639.742065 
	C1887.339478,1654.273193 1879.659546,1671.640503 1875.240479,1691.992920 
	C1874.390137,1705.739136 1874.166016,1718.089355 1874.104370,1730.440552 
	C1874.098755,1731.558105 1875.141479,1732.680908 1875.697388,1733.801270 
	C1876.550293,1737.345703 1877.129272,1740.983398 1878.299072,1744.419922 
	C1888.261963,1773.686523 1906.382812,1796.757812 1930.945435,1815.387817 
	C1946.578857,1827.245483 1960.580811,1841.005615 1973.687378,1855.742432 
	C1988.744507,1872.672607 2005.675049,1887.730225 2023.614502,1901.611450 
	C2025.667847,1903.200317 2027.594116,1904.953369 2030.388672,1907.313843 
	C2020.807861,1910.859619 2012.259277,1914.261230 2003.555420,1917.203125 
	C1966.860352,1929.606445 1934.613647,1949.738525 1903.872437,1972.925659 
	C1887.718750,1985.109741 1870.723755,1996.395874 1853.153809,2006.412354 
	C1840.560669,2013.591431 1826.435669,2018.120850 1812.902100,2023.605103 
	C1785.488037,2034.714355 1757.949707,2045.518433 1730.578247,2056.730713 
	C1704.288208,2067.500244 1676.908813,2074.053223 1648.938721,2078.261475 
	C1622.072388,2082.303955 1595.138184,2085.899414 1568.222046,2089.605469 
	C1561.985107,2090.464355 1555.700317,2090.975586 1547.979004,2091.103027 
	C1528.922241,2090.390381 1511.324097,2090.191650 1493.725586,2090.120605 
	C1492.542725,2090.115967 1491.355957,2091.075928 1490.171021,2091.587402 
	C1479.974731,2091.042236 1469.783813,2090.345215 1459.581177,2089.980469 
	C1429.703491,2088.911377 1399.925781,2085.938232 1371.252686,2077.666260 
	C1349.013306,2071.250244 1327.362427,2062.402344 1306.077026,2053.187256 
	C1286.911865,2044.890137 1268.692383,2034.432495 1249.887817,2025.272705 
	C1222.983154,2012.167236 1194.829712,2002.144287 1166.767090,1991.860474 
	C1149.314331,1985.464722 1132.039185,1978.586426 1113.723755,1975.106445 
	C1097.163574,1971.959839 1080.530273,1969.140991 1063.856567,1966.666382 
	C1046.498657,1964.090210 1029.053955,1962.099243 1010.159790,1959.231201 
	C985.547485,1958.430664 962.422546,1958.225342 939.297302,1958.151367 
	C938.185303,1958.147827 937.069580,1959.304077 935.955566,1959.920288 
	C918.472900,1961.286621 900.994568,1962.712524 883.504578,1963.977295 
	C879.198425,1964.288574 874.854309,1964.096436 870.527649,1964.099731 
	C831.881409,1964.128662 793.231384,1964.465332 754.590820,1964.006836 
	C740.423096,1963.838745 726.285095,1961.687134 712.121094,1960.602173 
	C667.453552,1957.180542 623.365967,1949.586426 579.282227,1942.043213 
	C545.299011,1936.228271 513.013000,1925.223389 482.747864,1908.600464 
	C465.256195,1898.993286 447.859680,1889.208984 430.541687,1879.292480 
	C426.536804,1876.999268 423.002625,1873.873047 419.295288,1871.072754 
	C400.787964,1857.093384 385.768860,1839.902588 373.260010,1820.489990 
	C371.566833,1817.862305 370.798798,1814.483154 370.197662,1811.338135 
	C368.769745,1803.867310 368.202911,1796.203735 366.383057,1788.841797 
	C362.038330,1771.265503 345.648499,1766.679688 332.215363,1778.984497 
	C331.059052,1780.043701 329.836670,1781.030884 327.694580,1782.865601 
	C320.129822,1767.727173 311.613861,1754.562256 311.714752,1736.940796 
	C311.886353,1706.962158 314.536469,1677.277466 317.979828,1647.599487 
	C320.356873,1627.112183 329.062775,1608.854370 338.615967,1590.938354 
	C342.675507,1583.325073 346.451324,1575.549927 350.770691,1568.088257 
	C357.589203,1556.309448 364.789368,1544.752319 371.769196,1533.066284 
	C380.111786,1519.098755 387.933594,1504.794556 396.823792,1491.186768 
	C406.454163,1476.445923 417.761871,1462.780396 427.074097,1447.857178 
	C442.526703,1423.093628 466.692780,1408.932861 490.233856,1394.023560 
	C509.659241,1381.720947 530.130005,1371.284302 552.752136,1366.023193 
	C582.130188,1359.190796 611.825989,1353.579224 640.927063,1345.741699 
	C670.435242,1337.794434 698.795105,1326.431152 725.931335,1312.031738 
	C753.696533,1297.298584 772.972961,1274.787720 787.920227,1247.860840 
	C798.984436,1227.929077 806.668579,1206.848511 810.102905,1184.260864 
	C810.348206,1182.647339 811.160583,1181.119995 812.463379,1178.190308 
	C813.439575,1156.331665 813.691345,1135.835205 813.802063,1115.338135 
	C813.808105,1114.225464 812.634094,1113.106323 812.009338,1111.990234 
	C811.333313,1109.089478 810.211426,1106.212402 810.054688,1103.283936 
	C809.131775,1086.036255 808.743164,1068.755005 807.547729,1051.528687 
	C806.790710,1040.620972 804.902405,1029.793945 803.602356,1018.921143 
	C802.854858,1012.669678 801.810181,1006.406982 801.699829,1000.135315 
	C801.424316,984.477173 801.566345,968.810852 801.614502,953.148010 
	C801.682434,931.046387 798.830139,909.489258 791.224854,888.560120 
	C785.223877,872.045715 782.341980,854.236877 772.898132,839.178101 
	C761.651550,821.244690 754.391357,801.604370 746.874390,782.117371 
	C736.376160,754.901855 725.995361,727.494812 721.098328,698.594421 
	C718.390869,682.616150 717.670776,666.303101 715.994995,650.147095 
	C715.346497,643.894592 715.307495,637.440308 713.618652,631.465820 
	C710.867004,621.732056 709.984741,611.995911 710.092957,601.956116 
	C710.304871,582.297791 709.594055,562.620422 710.179382,542.978210 
	C710.656738,526.959229 717.611633,512.830627 725.763916,499.338959 
	C737.390137,480.097961 753.009888,464.258423 768.377686,448.055023 
	C796.263062,418.653473 829.341125,396.783173 864.936584,378.191772 
	C871.704407,374.656982 878.223572,370.623383 884.725037,366.605621 
	C901.391418,356.306274 920.166199,351.500427 938.658264,346.152222 
	C962.236877,339.332916 985.975586,333.037781 1009.773376,327.023468 
	C1017.083923,325.175873 1024.814453,324.990265 1033.815430,324.660034 
	C1058.354614,325.485535 1081.430786,325.719818 1104.507568,325.828278 
	C1105.643555,325.833618 1106.784668,324.740601 1107.923462,324.159058 
z"/>
<path fill="#FDF5DA" opacity="1.000000" stroke="none" 
	d="
M1273.261353,953.374756 
	C1277.493042,950.211548 1281.085571,947.402466 1285.691650,943.800964 
	C1284.502563,963.686829 1298.750366,971.053772 1311.558838,980.064514 
	C1324.271484,989.007874 1336.170532,999.111023 1348.358276,1008.791199 
	C1349.283569,1009.526123 1349.666016,1010.944641 1350.503662,1012.397339 
	C1343.864380,1018.137817 1336.313721,1019.763245 1328.238159,1020.148804 
	C1319.610107,1020.560791 1310.923706,1020.696045 1302.388306,1021.867004 
	C1291.589600,1023.348450 1284.983398,1032.192017 1285.538208,1043.081909 
	C1286.075317,1053.623413 1294.233887,1062.423950 1304.955688,1061.914307 
	C1322.465332,1061.081909 1340.548828,1063.037231 1357.118286,1055.676758 
	C1366.441895,1051.535034 1375.731201,1046.494873 1383.512207,1040.026367 
	C1387.812134,1036.451660 1390.670898,1029.230347 1391.140137,1023.407898 
	C1391.847778,1014.627869 1390.656738,1005.478210 1388.877686,996.770691 
	C1386.766113,986.435547 1378.343872,980.155823 1369.997192,972.329895 
	C1373.519287,972.329895 1376.161743,972.394531 1378.800171,972.319946 
	C1407.753784,971.502136 1436.815674,971.944275 1465.632202,969.499512 
	C1500.458740,966.544983 1534.952026,960.351196 1567.198608,945.885193 
	C1578.017212,941.031860 1588.028931,934.379578 1599.311401,928.042969 
	C1599.311401,933.767700 1600.745239,939.642456 1599.044434,944.395691 
	C1593.789307,959.082886 1591.610840,974.213806 1592.030029,989.505798 
	C1592.363525,1001.673340 1588.136353,1012.151733 1584.101196,1023.030640 
	C1581.469727,1030.125000 1579.396484,1037.494263 1577.829346,1044.900391 
	C1574.915771,1058.671509 1571.083130,1071.906006 1562.804321,1083.650879 
	C1559.200806,1088.762817 1557.458618,1095.183594 1553.872559,1100.311646 
	C1547.415649,1109.544434 1539.883057,1118.023071 1533.386108,1127.230347 
	C1523.236816,1141.614136 1513.723511,1156.445190 1503.669189,1170.897827 
	C1492.287109,1187.259155 1480.772827,1203.535278 1468.959229,1219.585938 
	C1465.042358,1224.907715 1460.489624,1229.982910 1455.413086,1234.187256 
	C1441.847778,1245.422119 1427.849854,1256.134888 1413.994507,1267.017700 
	C1412.693604,1268.039429 1411.260498,1268.961060 1409.760864,1269.651245 
	C1388.640137,1279.369751 1367.359985,1288.753540 1346.396362,1298.798828 
	C1323.108276,1309.958130 1298.515625,1308.813354 1273.925781,1307.118896 
	C1262.688232,1306.344482 1251.567505,1303.873047 1240.393677,1302.173096 
	C1211.844482,1297.829590 1186.634155,1285.664917 1162.813354,1269.818970 
	C1151.969849,1262.605957 1141.623535,1255.112305 1132.397583,1245.781006 
	C1125.198730,1238.499756 1116.231201,1233.003906 1108.423462,1226.280518 
	C1089.197144,1209.724731 1071.712769,1191.620728 1058.257812,1169.846680 
	C1048.656494,1154.309204 1037.361328,1140.046265 1025.404053,1126.158936 
	C1011.755920,1110.307617 999.268860,1093.405518 987.046631,1076.406738 
	C983.125183,1070.952515 980.471619,1063.946411 979.308105,1057.288574 
	C977.163635,1045.017700 971.466614,1037.001831 959.076294,1035.211426 
	C957.408752,1031.686035 956.383972,1028.410278 954.493286,1025.750122 
	C950.375061,1019.955750 949.697998,1013.581787 950.056885,1006.807373 
	C951.082581,987.442444 956.519714,969.714966 969.339966,954.306580 
	C980.913330,959.665039 992.666870,964.887024 1004.225769,970.509094 
	C1022.572815,979.432800 1041.311768,987.723633 1061.838135,989.006653 
	C1091.371948,990.852661 1121.010498,992.318542 1150.572144,991.862793 
	C1164.619507,991.646301 1178.826904,987.442566 1192.543701,983.565369 
	C1212.670532,977.875977 1232.534790,971.178955 1252.274658,964.239624 
	C1259.407349,961.732239 1265.859497,957.288818 1273.261353,953.374756 
M1139.390625,1157.060913 
	C1139.390625,1157.060913 1139.325562,1157.124634 1139.989014,1158.266602 
	C1146.851929,1168.457153 1155.389893,1177.093506 1163.871094,1185.959961 
	C1174.270752,1196.832275 1185.769409,1205.140869 1199.793335,1210.128784 
	C1211.971924,1214.460449 1224.653564,1217.635132 1234.608765,1226.721436 
	C1236.241943,1228.211914 1238.743530,1228.798584 1240.900513,1229.660645 
	C1263.871460,1238.840820 1288.150024,1240.111206 1312.361694,1240.360352 
	C1337.904297,1240.623169 1359.871948,1231.518433 1379.616211,1214.542114 
	C1395.890991,1200.548828 1412.323853,1186.265503 1431.863647,1176.393311 
	C1436.425415,1174.088501 1440.982422,1170.270874 1443.569702,1165.964478 
	C1446.422974,1161.215454 1450.367065,1158.232910 1454.202393,1154.733154 
	C1459.552246,1149.851318 1464.740356,1144.726440 1469.446167,1139.233276 
	C1471.699463,1136.602905 1473.328613,1133.035156 1474.112061,1129.632080 
	C1475.742798,1122.551025 1472.581543,1119.896118 1465.597900,1121.152100 
	C1454.839600,1123.086548 1444.020264,1126.008179 1433.212280,1126.072632 
	C1407.997314,1126.223145 1382.653809,1127.715698 1357.593628,1123.046753 
	C1355.898682,1122.730957 1353.391602,1122.980713 1352.259888,1124.036743 
	C1343.378540,1132.323242 1331.806152,1134.765381 1321.407593,1138.873413 
	C1313.442017,1134.805298 1305.835205,1130.763428 1298.080322,1127.028809 
	C1294.431152,1125.271362 1290.886353,1125.369263 1286.655273,1126.852661 
	C1279.227539,1129.456543 1271.353271,1131.344971 1263.524536,1132.139404 
	C1241.761841,1134.348022 1219.947266,1136.177368 1198.113892,1137.516846 
	C1178.207397,1138.738159 1158.247925,1139.090210 1138.314941,1139.899170 
	C1133.902466,1140.078247 1129.300659,1139.580200 1124.065186,1142.663452 
	C1127.041382,1146.071045 1129.543213,1148.935303 1132.478882,1152.772827 
	C1133.396484,1153.255371 1134.313965,1153.737793 1135.940186,1155.321045 
	C1137.090210,1155.871338 1138.240356,1156.421753 1139.390625,1157.060913 
z"/>
<path fill="#FDF5DA" opacity="1.000000" stroke="none" 
	d="
M1552.238403,715.736206 
	C1559.964478,724.397949 1567.788940,732.974487 1575.382446,741.750854 
	C1580.592041,747.771912 1585.495605,754.058716 1590.501709,760.254456 
	C1591.706909,761.746216 1592.776245,763.347961 1594.900635,766.259644 
	C1591.266846,765.659119 1589.187378,765.422424 1587.158203,764.963501 
	C1568.371704,760.714661 1549.351074,762.799622 1530.411987,762.893799 
	C1524.099976,762.925171 1517.790771,763.494751 1511.480103,763.812744 
	C1482.984131,765.248779 1455.844116,773.236267 1428.623657,780.880554 
	C1418.420532,783.745789 1408.129395,786.295837 1397.887451,789.023987 
	C1380.079956,793.767212 1363.503540,801.240417 1348.509888,811.972107 
	C1339.359741,818.521301 1329.548828,824.553589 1321.776367,832.517639 
	C1312.191895,842.338440 1301.980713,852.137024 1296.922729,865.511047 
	C1288.808838,866.380432 1280.591553,867.468506 1272.338501,867.991882 
	C1270.396362,868.115051 1267.597290,866.880676 1266.448242,865.336426 
	C1260.015503,856.690735 1250.072388,853.033264 1241.689697,847.175232 
	C1237.904907,844.530273 1234.017700,841.896484 1230.744019,838.680481 
	C1220.464478,828.581909 1208.947754,820.226624 1196.234985,813.555786 
	C1186.771484,808.590027 1176.924316,804.555481 1166.055664,803.849609 
	C1143.828125,802.406006 1121.615601,800.590210 1099.366333,799.668030 
	C1082.404297,798.964966 1065.391724,799.185547 1048.408447,799.442566 
	C1041.849365,799.541748 1035.309204,800.875183 1027.926270,801.744568 
	C1035.085571,779.120422 1049.231567,760.925171 1061.006592,741.174011 
	C1072.215820,746.270447 1082.711426,744.601746 1093.298218,743.111206 
	C1119.646240,739.401550 1145.995972,735.657532 1172.417114,732.539368 
	C1181.628418,731.452271 1191.066528,732.452515 1200.373291,731.966064 
	C1209.914551,731.467224 1217.031860,724.770996 1218.991699,715.316406 
	C1220.676514,707.188660 1216.774902,698.201111 1209.117920,694.199768 
	C1206.004150,692.572632 1202.194336,691.643799 1198.668335,691.542114 
	C1176.666992,690.907898 1154.731201,691.916321 1132.930542,695.155212 
	C1119.153198,697.202026 1105.374878,699.243225 1091.493286,701.302307 
	C1098.942749,685.233337 1105.414062,668.849548 1113.904907,653.589478 
	C1123.898560,635.628540 1134.419312,617.925293 1147.023071,601.468384 
	C1162.189819,581.664795 1180.222778,565.154602 1200.484863,550.969238 
	C1211.372070,543.347107 1222.850098,536.568787 1233.376221,529.847351 
	C1239.834229,530.713806 1245.643921,531.468811 1251.444580,532.287415 
	C1253.073242,532.517273 1254.795410,532.661438 1256.271240,533.308777 
	C1268.727539,538.772827 1281.083130,544.469116 1293.580322,549.836487 
	C1300.871460,552.967834 1308.368286,555.620300 1315.769043,558.496887 
	C1321.953857,560.900818 1328.148438,563.280273 1334.312988,565.735107 
	C1353.749634,573.475281 1373.590820,580.363403 1392.476196,589.275024 
	C1408.495361,596.834045 1424.805176,603.127686 1441.696655,608.206055 
	C1444.456177,609.035828 1446.937988,610.893860 1449.437500,612.453857 
	C1451.974854,614.037476 1454.233887,616.104858 1456.857056,617.507202 
	C1484.980469,632.542419 1504.614868,656.143860 1522.244995,681.845825 
	C1527.110596,688.939392 1532.448486,695.709106 1538.005493,703.216064 
	C1528.047729,702.391724 1518.749634,701.003296 1509.444702,700.956238 
	C1463.798950,700.725403 1418.151611,700.838501 1372.504761,700.875488 
	C1368.854492,700.878479 1365.136353,700.846313 1361.567383,701.486816 
	C1351.440186,703.304443 1344.346313,712.156250 1344.731567,722.018005 
	C1345.121338,731.994263 1352.697266,740.380676 1362.759644,741.687927 
	C1365.713257,742.071655 1368.747681,741.871948 1371.745117,741.872498 
	C1417.391968,741.880859 1463.038818,741.842651 1508.685425,741.932068 
	C1513.311035,741.941162 1517.979614,742.427429 1522.552002,743.165161 
	C1540.568481,746.071899 1551.439697,735.609924 1549.717529,716.641602 
	C1550.977539,715.805786 1551.608032,715.770996 1552.238403,715.736206 
z"/>
<path fill="#FEF6DA" opacity="1.000000" stroke="none" 
	d="
M1143.014160,1306.653320 
	C1157.777344,1314.278931 1172.360107,1322.283203 1187.353027,1329.426514 
	C1203.090820,1336.924805 1220.125244,1340.417236 1237.203369,1343.323608 
	C1256.574707,1346.620117 1276.108276,1347.853638 1295.759766,1348.917236 
	C1324.067993,1350.449341 1349.682373,1342.509521 1374.779175,1331.295532 
	C1391.151367,1323.980103 1407.556152,1316.637207 1423.398682,1308.269775 
	C1435.650269,1301.799072 1447.051880,1293.718872 1459.216675,1286.113159 
	C1459.372559,1287.224609 1459.968872,1289.269409 1459.894897,1291.289673 
	C1459.127563,1312.234497 1458.101196,1333.170898 1457.460815,1354.119141 
	C1457.043579,1367.760742 1456.602295,1381.443726 1457.248779,1395.057007 
	C1457.555298,1401.511475 1459.979248,1407.986084 1462.140259,1414.209961 
	C1469.694824,1435.968262 1480.181274,1456.346191 1492.023804,1476.053589 
	C1494.249634,1479.757690 1496.376587,1483.520996 1498.571777,1487.243774 
	C1506.895264,1501.359497 1516.659546,1514.289185 1529.475464,1524.333740 
	C1500.516479,1548.732056 1466.950317,1560.367798 1429.619507,1561.804443 
	C1394.032715,1563.174072 1358.543823,1567.498779 1322.857056,1565.718750 
	C1306.910400,1564.923218 1291.006104,1563.305908 1275.065308,1562.349976 
	C1260.435669,1561.472656 1245.781982,1560.998657 1231.140259,1560.318359 
	C1210.605225,1559.364380 1190.795532,1555.469604 1173.016113,1544.582153 
	C1151.498169,1531.404907 1130.192749,1517.880493 1109.183716,1504.749023 
	C1116.893066,1489.634644 1124.245605,1475.591553 1131.212646,1461.359619 
	C1133.673462,1456.332764 1135.420654,1450.915894 1137.089111,1445.551025 
	C1139.850098,1436.672974 1142.551758,1427.758423 1144.757202,1418.731812 
	C1146.163696,1412.975098 1147.288818,1407.000977 1147.396362,1401.103516 
	C1147.730591,1382.782104 1147.179688,1364.442383 1147.636230,1346.126221 
	C1147.948853,1333.580322 1144.914185,1321.779785 1142.033081,1308.726929 
	C1142.591675,1307.241577 1142.802856,1306.947510 1143.014160,1306.653320 
z"/>
<path fill="#3C3C3C" opacity="1.000000" stroke="none" 
	d="
M1601.679199,833.629028 
	C1602.262573,844.621277 1604.280273,854.884888 1601.639648,865.004639 
	C1600.676636,868.695068 1599.265747,872.552734 1597.036499,875.581482 
	C1585.072754,891.836487 1568.775879,901.584717 1549.925903,908.607910 
	C1531.487305,915.477783 1512.955933,921.577942 1493.637085,925.038452 
	C1481.577515,927.198608 1469.315186,928.201355 1457.195801,930.062134 
	C1446.966431,931.632751 1436.964111,931.872437 1426.554077,930.495300 
	C1417.859619,929.345154 1408.748779,931.389832 1399.818604,931.961914 
	C1388.317627,932.698669 1377.872437,927.995850 1368.744019,922.546997 
	C1362.807007,919.003113 1357.873535,912.247742 1357.485596,902.875732 
	C1356.745239,884.986511 1362.461304,869.513306 1374.225952,857.382446 
	C1382.556641,848.792542 1394.022949,843.004822 1404.665283,836.983643 
	C1411.215088,833.277771 1418.759644,831.208618 1426.014648,828.897888 
	C1438.321045,824.978333 1450.695312,821.245483 1463.145264,817.811707 
	C1475.851196,814.307434 1488.637817,811.066284 1501.469238,808.051636 
	C1523.387939,802.901917 1545.491699,802.691345 1567.669189,806.288940 
	C1568.322266,806.394897 1569.062256,806.465210 1569.582642,806.817017 
	C1580.983154,814.524597 1594.385986,819.793152 1601.679199,833.629028 
z"/>
<path fill="#3C3C3C" opacity="1.000000" stroke="none" 
	d="
M1186.739990,873.302368 
	C1197.605591,879.155762 1207.892456,884.543823 1218.089844,890.096313 
	C1222.460571,892.476196 1226.866577,894.896301 1230.866333,897.830200 
	C1238.249146,903.245544 1239.009888,911.134216 1237.758911,919.397949 
	C1237.540527,920.840942 1236.282471,922.402466 1235.074341,923.374512 
	C1227.822266,929.209412 1220.430786,934.527466 1210.950806,936.725952 
	C1189.945068,941.597656 1169.105103,947.179688 1148.157959,952.310608 
	C1144.325562,953.249268 1140.313965,953.800903 1136.371582,953.882751 
	C1123.043701,954.159546 1109.685059,953.671143 1096.384033,954.359192 
	C1079.017090,955.257629 1062.690308,951.431580 1046.735107,945.235596 
	C1029.044556,938.365723 1011.702698,930.803772 995.382568,920.948181 
	C990.848083,918.209778 988.632812,914.812012 987.885437,910.023560 
	C985.431946,894.304504 990.053345,882.085632 1003.649170,872.522949 
	C1015.346008,864.296021 1027.984619,859.110413 1041.624023,856.341980 
	C1050.319946,854.577087 1059.391968,853.904480 1068.281494,854.002319 
	C1091.559326,854.258545 1114.923828,854.170776 1138.066650,856.275940 
	C1151.442749,857.492676 1164.538574,862.414734 1177.575439,866.291870 
	C1180.795898,867.249573 1183.294434,870.634460 1186.739990,873.302368 
z"/>
<path fill="#2A6645" opacity="1.000000" stroke="none" 
	d="
M1044.383179,1250.324951 
	C1044.147705,1246.734253 1043.912231,1243.143555 1043.682861,1239.647095 
	C1045.196167,1238.918457 1046.031128,1238.430908 1046.924194,1238.099731 
	C1056.280151,1234.630859 1062.778931,1238.307007 1069.237915,1245.331543 
	C1075.244629,1251.864258 1082.669678,1257.222900 1089.977783,1262.379272 
	C1094.259888,1265.400391 1095.944580,1268.657593 1096.310425,1273.814941 
	C1097.762817,1294.292114 1100.167236,1314.657471 1106.212158,1334.406860 
	C1106.689697,1335.967041 1107.183838,1337.616211 1107.168091,1339.219116 
	C1106.969238,1359.491943 1106.695312,1379.764160 1106.389648,1400.035645 
	C1106.349854,1402.684326 1106.530029,1405.487427 1105.754150,1407.949951 
	C1099.397461,1428.124756 1095.073608,1449.082153 1083.456421,1467.276123 
	C1080.269287,1472.267334 1076.984741,1477.196289 1073.617432,1482.348999 
	C1064.906128,1479.608398 1059.492432,1473.451050 1053.798340,1468.244995 
	C1045.245239,1460.425049 1037.394531,1451.753418 1029.941650,1442.860107 
	C1027.414795,1439.844849 1025.823120,1435.054932 1025.841919,1431.085815 
	C1025.895020,1419.851318 1026.826172,1408.607300 1027.738403,1397.393799 
	C1028.949341,1382.507690 1030.257690,1367.622559 1031.950684,1352.785645 
	C1032.735107,1345.909912 1034.419922,1339.125977 1035.885864,1332.341309 
	C1038.543213,1320.042480 1041.342529,1307.774292 1044.762695,1294.090576 
	C1045.610718,1279.741089 1045.820068,1266.794556 1045.876831,1253.847290 
	C1045.881958,1252.675415 1044.904419,1251.499146 1044.383179,1250.324951 
z"/>
<path fill="#2A6646" opacity="1.000000" stroke="none" 
	d="
M1501.882812,1277.545410 
	C1503.734009,1268.349976 1502.956909,1259.766357 1495.012939,1252.093628 
	C1499.490845,1246.528320 1504.051636,1241.340698 1508.056030,1235.754395 
	C1512.484253,1229.576660 1516.327393,1222.982788 1520.573853,1216.670044 
	C1522.972778,1213.103760 1525.670166,1209.738281 1529.081787,1206.121826 
	C1529.930420,1205.961304 1530.634766,1206.581787 1530.634766,1206.581787 
	C1525.832642,1232.702148 1526.548218,1258.987061 1530.799072,1284.919312 
	C1533.141113,1299.207642 1539.770020,1312.578125 1546.872192,1325.484619 
	C1556.303467,1342.623657 1565.024292,1360.154053 1573.990723,1377.547241 
	C1574.894043,1379.299561 1576.013672,1381.279297 1575.969116,1383.127686 
	C1575.626953,1397.371826 1575.628296,1411.666504 1574.294922,1425.830078 
	C1573.337769,1435.998047 1569.962158,1445.918579 1568.625732,1456.075928 
	C1567.191406,1466.978516 1561.857178,1476.081055 1557.568359,1485.171021 
	C1550.583496,1480.546509 1543.783203,1476.092773 1537.051880,1471.537354 
	C1535.989380,1470.818359 1535.005737,1469.771240 1534.376099,1468.655518 
	C1522.303955,1447.263428 1508.957031,1426.535767 1501.029907,1403.007202 
	C1498.771484,1396.304321 1497.155396,1389.710693 1497.483276,1382.579102 
	C1497.926392,1372.940674 1497.951172,1363.282959 1498.794678,1352.122070 
	C1499.590698,1346.133789 1499.747681,1341.656860 1499.904541,1337.179932 
	C1499.997925,1332.609863 1500.091431,1328.039917 1500.816040,1322.007324 
	C1501.592529,1306.211792 1501.737671,1291.878540 1501.882812,1277.545410 
z"/>
<path fill="#436753" opacity="1.000000" stroke="none" 
	d="
M1107.078247,324.001953 
	C1106.784668,324.740601 1105.643555,325.833618 1104.507568,325.828278 
	C1081.430786,325.719818 1058.354614,325.485535 1034.677856,324.715607 
	C1038.311035,323.571167 1042.552002,322.439880 1046.776978,322.497437 
	C1066.598022,322.767548 1086.414795,323.364594 1107.078247,324.001953 
z"/>
<path fill="#68786F" opacity="1.000000" stroke="none" 
	d="
M872.991333,2004.106934 
	C871.804688,2004.798340 869.690552,2005.910645 867.572632,2005.917847 
	C835.769043,2006.026978 803.965027,2005.995605 772.161072,2005.965210 
	C771.193115,2005.964355 770.225464,2005.615601 768.688721,2004.830566 
	C802.767273,2004.159546 837.414673,2004.086670 872.991333,2004.106934 
z"/>
<path fill="#4C5C53" opacity="1.000000" stroke="none" 
	d="
M936.893372,1960.024048 
	C937.069580,1959.304077 938.185303,1958.147827 939.297302,1958.151367 
	C962.422546,1958.225342 985.547485,1958.430664 1009.272156,1959.164062 
	C985.858337,1959.854614 961.844727,1959.991211 936.893372,1960.024048 
z"/>
<path fill="#507F66" opacity="1.000000" stroke="none" 
	d="
M811.830811,1112.915283 
	C812.634094,1113.106323 813.808105,1114.225464 813.802063,1115.338135 
	C813.691345,1135.835205 813.439575,1156.331665 812.619812,1177.412354 
	C811.898865,1156.611084 811.775635,1135.225708 811.830811,1112.915283 
z"/>
<path fill="#627A6D" opacity="1.000000" stroke="none" 
	d="
M1370.836548,1606.227783 
	C1370.578369,1606.893921 1369.408447,1607.885864 1368.242676,1607.880981 
	C1349.277100,1607.800781 1330.312012,1607.594238 1310.760864,1606.848145 
	C1330.092163,1606.216553 1350.009521,1606.153198 1370.836548,1606.227783 
z"/>
<path fill="#53625A" opacity="1.000000" stroke="none" 
	d="
M1491.084961,2091.734375 
	C1491.355957,2091.075928 1492.542725,2090.115967 1493.725586,2090.120605 
	C1511.324097,2090.191650 1528.922241,2090.390381 1547.149902,2091.051514 
	C1529.186035,2091.656250 1510.592407,2091.768799 1491.084961,2091.734375 
z"/>
<path fill="#516159" opacity="1.000000" stroke="none" 
	d="
M1648.082520,796.992432 
	C1648.742188,797.191406 1649.844971,798.322815 1649.839111,799.448425 
	C1649.746826,817.238647 1649.512329,835.028076 1648.719849,853.405151 
	C1648.089478,835.302429 1648.049683,816.612366 1648.082520,796.992432 
z"/>
<path fill="#54645C" opacity="1.000000" stroke="none" 
	d="
M1616.102051,1377.035645 
	C1616.806885,1377.240479 1617.882812,1378.368286 1617.877197,1379.490601 
	C1617.804688,1393.902100 1617.577515,1408.312866 1616.809570,1423.306641 
	C1616.143188,1408.578369 1616.056763,1393.267212 1616.102051,1377.035645 
z"/>
<path fill="#75857D" opacity="1.000000" stroke="none" 
	d="
M1044.253784,1251.230713 
	C1044.904419,1251.499146 1045.881958,1252.675415 1045.876831,1253.847290 
	C1045.820068,1266.794556 1045.610718,1279.741089 1044.850586,1293.255615 
	C1044.213867,1279.927856 1044.169067,1266.032227 1044.253784,1251.230713 
z"/>
<path fill="#5C6B63" opacity="1.000000" stroke="none" 
	d="
M1501.281738,1278.182495 
	C1501.737671,1291.878540 1501.592529,1306.211792 1500.912354,1321.144287 
	C1500.478516,1307.435669 1500.579590,1293.127686 1501.281738,1278.182495 
z"/>
<path fill="#607168" opacity="1.000000" stroke="none" 
	d="
M1875.842163,1732.888672 
	C1875.141479,1732.680908 1874.098755,1731.558105 1874.104370,1730.440552 
	C1874.166016,1718.089355 1874.390137,1705.739136 1875.129395,1692.801758 
	C1875.787842,1705.468628 1875.887451,1718.722412 1875.842163,1732.888672 
z"/>
<path fill="#54836A" opacity="1.000000" stroke="none" 
	d="
M984.200806,1439.131348 
	C980.112671,1431.158203 982.118103,1422.014771 983.521851,1412.334473 
	C984.223999,1420.566895 984.298584,1429.387695 984.200806,1439.131348 
z"/>
<path fill="#657B6F" opacity="1.000000" stroke="none" 
	d="
M1499.299805,1337.783691 
	C1499.747681,1341.656860 1499.590698,1346.133789 1498.892700,1351.171265 
	C1498.466064,1347.283691 1498.580688,1342.835571 1499.299805,1337.783691 
z"/>
<path fill="#8A8882" opacity="1.000000" stroke="none" 
	d="
M1552.068848,715.160034 
	C1551.608032,715.770996 1550.977539,715.805786 1549.399902,715.828857 
	C1548.033081,714.752502 1547.613525,713.687927 1547.619385,712.286987 
	C1548.044800,711.950684 1547.977173,712.052856 1547.977173,712.052856 
	C1549.284546,712.896484 1550.591797,713.740173 1552.068848,715.160034 
z"/>
<path fill="#2A6646" opacity="1.000000" stroke="none" 
	d="
M1529.569092,1205.661987 
	C1529.983398,1204.644165 1530.759155,1203.925781 1531.534912,1203.207397 
	C1531.538208,1204.089844 1531.541504,1204.972412 1531.089844,1206.218262 
	C1530.634766,1206.581787 1529.930420,1205.961304 1529.569092,1205.661987 
z"/>
<path fill="#FEF6DA" opacity="1.000000" stroke="none" 
	d="
M1142.014160,1307.936646 
	C1141.822144,1307.624634 1141.996338,1306.911377 1142.592285,1306.425781 
	C1142.802856,1306.947510 1142.591675,1307.241577 1142.014160,1307.936646 
z"/>
<path fill="#8A8882" opacity="1.000000" stroke="none" 
	d="
M1548.078613,711.899536 
	C1547.671509,711.844910 1547.230713,711.841431 1546.789917,711.838013 
	C1546.818604,711.576355 1546.847412,711.314697 1546.876099,711.053101 
	C1547.111450,711.160645 1547.346924,711.268188 1547.779785,711.714294 
	C1547.977173,712.052856 1548.044800,711.950684 1548.078613,711.899536 
z"/>
<path fill="#D30251" opacity="1.000000" stroke="none" 
	d="
M1132.044922,1151.799561 
	C1129.543213,1148.935303 1127.041382,1146.071045 1124.065186,1142.663452 
	C1129.300659,1139.580200 1133.902466,1140.078247 1138.314941,1139.899170 
	C1158.247925,1139.090210 1178.207397,1138.738159 1198.113892,1137.516846 
	C1219.947266,1136.177368 1241.761841,1134.348022 1263.524536,1132.139404 
	C1271.353271,1131.344971 1279.227539,1129.456543 1286.655273,1126.852661 
	C1290.886353,1125.369263 1294.431152,1125.271362 1298.080322,1127.028809 
	C1305.835205,1130.763428 1313.442017,1134.805298 1321.407593,1138.873413 
	C1331.806152,1134.765381 1343.378540,1132.323242 1352.259888,1124.036743 
	C1353.391602,1122.980713 1355.898682,1122.730957 1357.593628,1123.046753 
	C1382.653809,1127.715698 1407.997314,1126.223145 1433.212280,1126.072632 
	C1444.020264,1126.008179 1454.839600,1123.086548 1465.597900,1121.152100 
	C1472.581543,1119.896118 1475.742798,1122.551025 1474.112061,1129.632080 
	C1473.328613,1133.035156 1471.699463,1136.602905 1469.446167,1139.233276 
	C1464.740356,1144.726440 1459.552246,1149.851318 1454.202393,1154.733154 
	C1450.367065,1158.232910 1446.422974,1161.215454 1443.569702,1165.964478 
	C1440.982422,1170.270874 1436.425415,1174.088501 1431.863647,1176.393311 
	C1412.323853,1186.265503 1395.890991,1200.548828 1379.616211,1214.542114 
	C1359.871948,1231.518433 1337.904297,1240.623169 1312.361694,1240.360352 
	C1288.150024,1240.111206 1263.871460,1238.840820 1240.900513,1229.660645 
	C1238.743530,1228.798584 1236.241943,1228.211914 1234.608765,1226.721436 
	C1224.653564,1217.635132 1211.971924,1214.460449 1199.793335,1210.128784 
	C1185.769409,1205.140869 1174.270752,1196.832275 1163.871094,1185.959961 
	C1155.389893,1177.093506 1146.851929,1168.457153 1140.433838,1157.394287 
	C1145.604858,1157.842529 1150.359741,1159.070190 1155.051147,1160.504639 
	C1162.642334,1162.826050 1170.217773,1167.246826 1177.751953,1167.147583 
	C1185.781372,1167.042114 1193.389160,1168.156616 1201.060425,1169.484009 
	C1220.315796,1172.816040 1239.455322,1176.580444 1259.188843,1176.154297 
	C1267.743774,1175.969604 1276.437500,1176.861084 1284.889771,1178.306885 
	C1307.127197,1182.110229 1329.407837,1180.606934 1351.313354,1177.421753 
	C1375.529785,1173.900391 1399.474854,1168.076660 1421.913940,1157.663330 
	C1424.308472,1156.552124 1426.008789,1153.944824 1428.811157,1152.031250 
	C1437.797974,1151.543457 1443.972290,1146.906738 1450.722778,1141.941162 
	C1455.919067,1139.179932 1460.416870,1136.498413 1464.914795,1133.816772 
	C1454.879883,1134.389404 1453.215820,1135.473022 1449.218140,1141.980225 
	C1441.186768,1144.397339 1433.645630,1146.261230 1427.242676,1152.052856 
	C1417.830444,1155.467773 1409.283203,1159.197144 1400.454590,1162.058716 
	C1373.837402,1170.686523 1346.643555,1176.217163 1318.498779,1175.998413 
	C1307.838623,1175.915527 1297.152466,1176.251099 1286.525635,1175.609009 
	C1273.996826,1174.851562 1261.512329,1173.307495 1249.021973,1171.979248 
	C1238.843262,1170.896851 1228.662354,1169.788208 1218.522705,1168.397705 
	C1209.349243,1167.139526 1200.278809,1164.887817 1191.076294,1164.140869 
	C1176.439087,1162.952881 1162.256714,1160.374512 1148.783813,1154.367554 
	C1144.537476,1152.474365 1140.192993,1150.801147 1135.891724,1149.031372 
	C1133.132690,1147.896118 1132.351440,1149.520752 1132.044922,1151.799561 
z"/>
<path fill="#BB1152" opacity="1.000000" stroke="none" 
	d="
M1428.031250,1152.031738 
	C1426.008789,1153.944824 1424.308472,1156.552124 1421.913940,1157.663330 
	C1399.474854,1168.076660 1375.529785,1173.900391 1351.313354,1177.421753 
	C1329.407837,1180.606934 1307.127197,1182.110229 1284.889771,1178.306885 
	C1276.437500,1176.861084 1267.743774,1175.969604 1259.188843,1176.154297 
	C1239.455322,1176.580444 1220.315796,1172.816040 1201.060425,1169.484009 
	C1193.389160,1168.156616 1185.781372,1167.042114 1177.751953,1167.147583 
	C1170.217773,1167.246826 1162.642334,1162.826050 1155.051147,1160.504639 
	C1150.359741,1159.070190 1145.604858,1157.842529 1140.102051,1156.823242 
	C1139.325562,1157.124634 1139.390625,1157.060913 1139.287598,1156.285400 
	C1137.866943,1155.080078 1136.549194,1154.650146 1135.231567,1154.220337 
	C1134.313965,1153.737793 1133.396484,1153.255371 1132.261963,1152.286133 
	C1132.351440,1149.520752 1133.132690,1147.896118 1135.891724,1149.031372 
	C1140.192993,1150.801147 1144.537476,1152.474365 1148.783813,1154.367554 
	C1162.256714,1160.374512 1176.439087,1162.952881 1191.076294,1164.140869 
	C1200.278809,1164.887817 1209.349243,1167.139526 1218.522705,1168.397705 
	C1228.662354,1169.788208 1238.843262,1170.896851 1249.021973,1171.979248 
	C1261.512329,1173.307495 1273.996826,1174.851562 1286.525635,1175.609009 
	C1297.152466,1176.251099 1307.838623,1175.915527 1318.498779,1175.998413 
	C1346.643555,1176.217163 1373.837402,1170.686523 1400.454590,1162.058716 
	C1409.283203,1159.197144 1417.830444,1155.467773 1427.254150,1152.068604 
	C1428.002075,1152.002075 1428.031250,1152.031738 1428.031250,1152.031738 
z"/>
<path fill="#D30251" opacity="1.000000" stroke="none" 
	d="
M1135.585938,1154.770752 
	C1136.549194,1154.650146 1137.866943,1155.080078 1139.287476,1156.240967 
	C1138.240356,1156.421753 1137.090210,1155.871338 1135.585938,1154.770752 
z"/>
<path fill="#BB1152" opacity="1.000000" stroke="none" 
	d="
M1427.990723,1151.986328 
	C1433.645630,1146.261230 1441.186768,1144.397339 1449.230225,1141.992188 
	C1449.999634,1141.999512 1450.024414,1142.020752 1450.024414,1142.020752 
	C1443.972290,1146.906738 1437.797974,1151.543457 1428.811157,1152.031250 
	C1428.031250,1152.031738 1428.002075,1152.002075 1427.990723,1151.986328 
z"/>
<path fill="#BB1152" opacity="1.000000" stroke="none" 
	d="
M1449.987549,1141.987549 
	C1453.215820,1135.473022 1454.879883,1134.389404 1464.914795,1133.816772 
	C1460.416870,1136.498413 1455.919067,1139.179932 1450.722778,1141.941162 
	C1450.024414,1142.020752 1449.999634,1141.999512 1449.987549,1141.987549 
z"/>
</svg>