<?xml version="1.0" encoding="utf-8"?>
<!-- Generator: Adobe Illustrator 24.3.0, SVG Export Plug-In . SVG Version: 6.00 Build 0)  -->
<svg version="1.1" id="Layer_1" xmlns="http://www.w3.org/2000/svg" xmlns:xlink="http://www.w3.org/1999/xlink" x="0px" y="0px"
	 width="125px" height="132.4px" viewBox="0 0 125 132.4" style="enable-background:new 0 0 125 132.4;" xml:space="preserve">
<style type="text/css">
	.st0{fill:#D19A75;stroke:#020202;stroke-width:0.75;stroke-miterlimit:10;}
	.st1{fill:#FFFFFF;stroke:#020202;stroke-width:0.75;stroke-miterlimit:10;}
	.st2{fill:#F44711;stroke:#020202;stroke-width:0.75;stroke-miterlimit:10;}
	.st3{fill:#23211B;stroke:#000000;stroke-width:0.75;stroke-miterlimit:10;}
	.st4{fill:#6A3E00;stroke:#020202;stroke-width:0.75;stroke-miterlimit:10;}
	.st5{fill:none;stroke:#020202;stroke-width:0.75;stroke-miterlimit:10;}
	.st6{fill:#91E3F9;stroke:#020202;stroke-width:0.75;stroke-miterlimit:10;}
	.st7{fill:#08AF2B;}
	.st8{fill:#B5CCD6;stroke:#020202;stroke-width:0.75;stroke-linejoin:round;stroke-miterlimit:10;}
	.st9{fill:#647C83;stroke:#000000;stroke-width:0.75;stroke-linejoin:round;stroke-miterlimit:10;}
	.st10{fill:#D7E3EE;stroke:#000000;stroke-width:0.75;stroke-linejoin:round;stroke-miterlimit:10;}
</style>
<g id="Person_2">
	<g id="head">
		<path id="neck" class="st0" d="M77,86.5c0,0-0.7-0.3-0.7-1v-6.9l-27,1.4c0,0,0.3,8.2-0.3,8.9c0,0-1.6,2-0.6,3.9
			c1,1.9,7.2,6.1,11.6,6.7c4.4,0.6,15.1-0.2,17-2.8C78.9,94.3,80.7,87.7,77,86.5z"/>
		<path id="face" class="st0" d="M81,61.1c0,0-0.5,9.6-0.7,10.3c-0.3,1.3-0.9,2.6-1.5,3.7c-1.7,2.8-3.6,5.3-5.8,7.8
			c-1,1.1-3.2,4.3-4.5,4.6c-2,0.5-4,0.9-6.1,1c-1.3-0.1-6-0.7-7-1.3c-1.1-0.5-4.6-4.8-7.5-8.7c-2.9-3.9-4.5-7-4.7-8
			c-0.2-1.5-0.2-3-0.3-4.5l-0.5,0.1c0,0-0.1,1-1,1.1c-1.3,0.1-2-1.4-2.3-2.3c-0.5-1.6-0.3-3.3-0.9-4.9c-0.5-1.6-3.2-7.1-1.1-8.5
			c1.8-1.3,3.4,0.5,4,2.1c0.2,0.5,0.3,1.2,0.4,1.7l0.3-0.1c0,0,0-3.1,0-5.2c0.1-4-1.2-8.5,0.3-12.5c5-12.9,9.7-13.3,21.2-13.7
			c10.3-0.3,16.1,8,16.8,11.8c0.6,3.1,1,6.2,0.9,9.4c-0.2,2.9-0.5,9.9-0.5,9.9l0.3,0.1c0.4-1.2,0.9-2.3,1.4-3.4c0.3-1,1.4-1.4,2.3-1
			c1,0.3,1.4,1.4,1,2.3c-0.3,1.1-0.9,4.3-1.1,5.5c-0.1,1-0.1,1.9,0,2.9c0,0.9-0.3,3.8-1.6,3.8C82.6,65,80.7,65,81,61.1z"/>
	</g>
	<g id="collar">
		<rect x="48.6" y="94.3" class="st1" width="30.5" height="28.1"/>
		<path id="Collar-2" class="st1" d="M45.9,89.4c0.3-0.6,0.5-1.4,0.7-2c0.1-0.9,0.3-1.8,0.7-2.6c0.4-0.4,1.7-0.5,1.7-0.5
			s-1.1,1.6-0.5,2.1c1.3,1.2,2.6,2.2,4,3.1c1.6,1,8.7,4.6,9.5,5c0.7,0.4-0.1,0.5-0.5,0.5c-1.6,0.2-3,1-4.3,1.9c-1.1,1.2-8,8.1-8,8.1
			S45.4,89.9,45.9,89.4z"/>
		<path id="collar-3" class="st1" d="M76.7,83.9c0,0,0.7-0.3,1,0.3s0.4,2,0.4,2.5c1,1,1.9,1.8,3,2.6L78,104.1c0,0-6.8-5-9.5-6.4
			s-6.2-2.9-6-3.1c0.2-0.2,13.5-7,14.2-10c0-0.1,0-0.3,0-0.4L76.7,83.9z"/>
	</g>
	<g id="tie">
		<path class="st2" d="M57.7,113.7c0,0,1.1-5.2,1.5-6.6c0.3-1.1,1.3-5,1.3-5.3s1.8-0.3,2.5-0.4c1.3-0.1,2.3,0,2.6,0.7
			c0.5,1.8,1,3.6,1.3,5.5c0.2,1.7,1.7,10,1.7,10.5c0,0.5,1.2,3.4,0.9,3.7c-0.3,0.3-4.3,0.7-5.5,0.4c-1.3-0.3-6.8,0.2-6.6-0.4
			C57.4,121.2,57.7,114,57.7,113.7z"/>
		<path class="st2" d="M67.2,97c0,0.2-0.1,0.3-0.2,0.4c-0.3,0.4-0.6,0.9-1.1,1.3c-0.3,0.3-0.4,0.6-0.4,1.1c0.1,0.2,0.2,0.4,0.3,0.6
			s0.1,0.5-0.1,0.6c-0.1,0-0.2,0.1-0.2,0.1c-1.7,0.2-3.3,0.2-5,0.1c-0.1,0-0.2,0-0.3-0.1c-0.3-0.2-0.2-0.6,0-0.9
			c0.2-0.2,0.4-0.6,0.3-0.9c-0.1-0.2-0.2-0.3-0.4-0.4c-0.5-0.3-1.3-0.4-1.8-0.9c-0.2-0.1-0.4-0.3-0.6-0.5c-0.7-1.1,4.2-3,5.1-3
			c1.3,0,1.8,0.6,2.8,1.1c0.5,0.2,1,0.5,1.4,0.7C67,96.6,67.1,96.7,67.2,97z"/>
	</g>
	<g id="hair">
		<path class="st3" d="M43.7,50.7c0,0-1.3,6.2-2,4.5c-0.7-1.7-0.6-2.8-1.2-4s-2.5-4.8-2.2-5.4c0.1-2.5,0.1-5,0-7.5
			c-0.1-2.2-0.6-7.1,0.3-9.1c1.1-2,2.5-3.7,4-5.3c0.4-0.2,1.4-0.7,1.4-0.7c0-1.9,1.1-3.7,2.7-4.7c2.9-1.8,9.8-5.3,17.2-5.5
			c7.4-0.2,16,6.7,17.6,8.6c1,1.4,1.7,2.9,2,4.6c0,0,2,2.7,2.1,3.5c0,0.9,0,1.6,0,2.5c-0.1,2.9,2.7,9.3-0.2,11.7
			c-0.3,0.3-0.6,0.5-1,0.9c-0.2,1.8-0.5,3.6-1,5.3c-0.4,1.3-0.6,3.5-1.5,3.9c-0.5,0.2-1,0.4-1.4,0.7c0.1-3,0.4-6.1,0.4-9.1
			s-0.1-4.9-2.5-6.9c-1.4-1.2-3.2-1.7-4.9-1.5c-2.6,0.1-7,1.7-8.5-0.2c-1.5-1.9,0.6-4.2-2.1-4.5c-2.5-0.3-5,0.5-7.5,0.5
			c-1.5,0.1-4.2,0-5.4-1l-0.7-0.5c-0.3,1.2-0.9,2.2-1.5,3.3c-0.7,1.3-1.2,2.7-1.4,4c-0.2,1.6-1.5,1.8-2.1,3.2S44.1,48.9,43.7,50.7z"
			/>
	</g>
	<g id="eyes">
		<path id="Eye" class="st4" d="M56.7,51c0,1.4-0.5,2.6-1.3,2.6c-0.7,0-1.3-1.2-1.3-2.6c0-1.4,0-2.6,1.3-2.6
			C56.2,48.5,56.7,49.7,56.7,51z"/>
		<path id="Eye-2" class="st4" d="M73.5,50.6c0,1.5-0.6,2.8-1.3,2.8s-1.3-1.3-1.3-2.8s0-2.8,1.3-2.8C73.1,47.8,73.5,49,73.5,50.6z"
			/>
		<path id="undereye" class="st5" d="M56.3,55.1c-0.6,0.5-1.4,1-2.2,1.1c-1.2,0-2.8-0.5-3.1-1.4"/>
		<path id="undereye-2" class="st5" d="M68.5,55.2c1,0.6,2,1.2,3.1,1.3c1.1-0.1,2-0.7,2.7-1.6"/>
		<path id="eyebrow" class="st5" d="M66.8,43.5c0,0,2-2,4-2c2,0,3,2,5.1,3"/>
		<path id="eyebrow-2" class="st5" d="M60.7,44.5c-1-0.9-1.9-1.5-3.1-2c-2-1.2-4.6-0.7-6.1,1.1c-2,2-2,2-3.1,2"/>
	</g>
	<g id="nose">
		<path class="st5" d="M64.7,54.6c0,0,2.1,8.4,2.2,9.2c0.1,0.7,1.2,3.5,0.9,3.9c-0.3,0.4-0.3,1.5-1.2,1.7c-1,0.1-1.9,0-2.9-0.1
			c-0.5-0.1-1.1-0.2-1.5-0.5c0,0-1.2,0.3-1.6,0.1c-0.4-0.3-0.7-0.7-0.7-1.3c0.2-0.5,0.5-1.1,1-1.5"/>
	</g>
	<g id="sweater">
		<path id="Sweater-2" class="st6" d="M124.6,132.3c0,0-2.6-11.6-5-16.3c-3-5.4-7.6-9.7-13.1-12.3c-6-2.7-26.3-15.7-26.3-14.9
			c0,0.7-2.5,15.1-7.4,22.1c-4.9,6.9-9.1,9.7-9.7,9.7s-7.6-5.3-10.4-11.1c-2.9-5.8-5.6-16.3-6-17.4c-0.3-1.1-0.7-2.8-0.7-2.8
			S20.4,102.8,17.9,104c-2.6,1.2-6.3,2.9-8.8,6s-7.1,15.1-7.9,18.6s-0.7,3.8-0.7,3.8"/>
	</g>
	<g id="alligator">
		<path class="st7" d="M90.3,125.4c-0.2,0-0.4,0-0.6,0c-0.4,0-0.7-0.1-1.2-0.2c-0.1,0-0.1-0.1-0.2-0.1c-0.2-0.1-0.3-0.2-0.5-0.2
			c-0.1,0-0.3-0.1-0.4-0.1c-0.4,0-0.7,0.1-1.1,0.3l-0.2,0.1c-0.2,0.1-0.4,0.2-0.6,0.2l0,0c-0.2,0-0.4-0.1-0.6-0.2
			c-0.3-0.2-0.6-0.3-1.1-0.4c-0.2,0-0.4,0.1-0.6,0.2l-0.2,0.1h-0.1c-0.2,0.1-0.5,0.1-0.7,0.1s-0.3,0-0.5,0c-0.3-0.1-0.5-0.3-0.7-0.5
			c-0.1-0.2-0.2-0.4-0.2-0.6c-0.3-1-0.1-1.9,0.4-2.7c0.4-0.4,1-0.6,1.5-0.7c0.4-0.1,0.7-0.1,1.2-0.2l0.7-0.1h0.2
			c0.2,0,0.4-0.1,0.7-0.1h0.1c0.3,0,0.5,0.1,0.7,0.3c0.1,0.1,0.1,0.3,0,0.5c-0.1,0.1-0.2,0.1-0.3,0.2c-0.3,0.1-0.7,0.1-1.1,0.1h-0.4
			c-0.3,0-0.5,0-0.9,0.1l-0.4,0.1c-0.2,0.1-0.4,0.3-0.4,0.5s0.2,0.5,0.4,0.5c0.1,0,0.2,0,0.4,0h0.2H84c0.3,0,0.6,0,1,0
			s0.6,0,0.9,0.1h0.2c0.2,0.1,0.4,0.1,0.6,0.1c0.2,0,0.5-0.1,0.7-0.2c0.1-0.1,0.3-0.1,0.4-0.1H88c0.1,0.1,0.2,0.1,0.3,0.1h0.1
			c0.1,0,0.2,0,0.3,0l2.3-0.4h0.2c0.1,0.2,0.2,0.5,0.2,0.7l-0.4,0.1c-0.3,0.1-0.6,0.2-0.9,0.3c-0.2,0.1-0.4,0.1-0.6,0.1l0,0h-0.2H89
			h-0.1c-0.4,0-0.5,0.3-0.5,0.4c-0.1,0.4,0.4,0.5,0.5,0.6c0.3,0.1,0.6,0.2,1,0.2h0.5h0.1h0.2c0.1,0,0.3,0.1,0.4,0.1
			c0.2,0.1,0.4,0.1,0.5,0.2c-0.1,0.2-0.4,0.4-0.6,0.5C90.8,125.5,90.6,125.4,90.3,125.4z"/>
		<path d="M85.2,120.6L85.2,120.6c0.2,0,0.4,0.1,0.5,0.2l0,0h-0.1c-0.3,0.1-0.6,0.1-1,0.1h-0.4c-0.3,0-0.6,0-1,0.1
			c-0.2,0-0.3,0.1-0.5,0.1c-0.3,0.1-0.6,0.4-0.6,0.9v0.2c0,0.4,0.3,0.7,0.7,0.9c0.1,0,0.3,0.1,0.4,0.1h0.2H84c0.3,0,0.6,0,1,0
			c0.2,0,0.5,0,0.7,0.1h0.2c0.2,0.1,0.5,0.1,0.7,0.1h0.1c0.2,0,0.5-0.1,0.7-0.2c0.1,0,0.2-0.1,0.3-0.1l0,0c0.1,0.1,0.2,0.1,0.4,0.1
			h0.3c-0.3,0.1-0.5,0.3-0.6,0.7c0,0.3,0.1,0.7,0.9,1.1c0.3,0.1,0.7,0.2,1.1,0.2h0.3h0.2h0.2l0,0h0.1c-0.2,0-0.3,0-0.5,0
			s-0.4,0-0.6,0c-0.3,0-0.6-0.1-1-0.2l-0.2-0.1c-0.2-0.1-0.4-0.2-0.6-0.3c-0.2-0.1-0.4-0.1-0.6-0.1c-0.4,0-1,0.1-1.3,0.4l-0.2,0.1
			c-0.1,0.1-0.3,0.2-0.4,0.2c-0.1,0-0.3-0.1-0.4-0.2c-0.4-0.3-0.9-0.4-1.4-0.4l0,0c-0.3,0-0.5,0.1-0.7,0.2c0,0-0.1,0-0.1,0.1
			l-0.1,0.1h-0.1c-0.2,0-0.4,0.1-0.5,0.1c-0.1,0-0.3,0-0.4,0c-0.2-0.1-0.3-0.2-0.5-0.4c-0.1-0.2-0.1-0.3-0.1-0.5
			c-0.2-0.7-0.1-1.6,0.3-2.3c0.3-0.3,0.9-0.5,1.3-0.6c0.3-0.1,0.7-0.1,1.2-0.1l0.7-0.1h0.2C84.8,120.6,85,120.6,85.2,120.6
			 M91.1,122.5L91.1,122.5L91.1,122.5c-0.4,0.1-0.6,0.2-1,0.3c-0.2,0.1-0.3,0.1-0.5,0.1h-0.1h-0.3H89l1-0.2L91.1,122.5 M85.2,119.8
			c-0.3,0-0.6,0-1,0.1c-0.6,0.1-1.3,0.1-1.9,0.2c-0.6,0.1-1.3,0.4-1.7,0.9c-0.6,0.9-0.9,2-0.5,3c0,0.3,0.2,0.5,0.3,0.9
			c0.2,0.3,0.5,0.5,1,0.6c0.2,0,0.4,0,0.6,0.1c0.2,0,0.5,0,0.7-0.1l0.2-0.1c0.2,0,0.5-0.3,0.7-0.3l0,0c0.6,0,1.1,0.6,1.7,0.6h0.1
			c0.3-0.1,0.6-0.2,1-0.4s0.6-0.2,1-0.3c0.1,0,0.2,0,0.3,0c0.2,0.1,0.4,0.2,0.6,0.3c0.4,0.2,0.9,0.3,1.3,0.3c0.2,0,0.4,0,0.7,0
			c0.3,0,0.5,0,0.9-0.1c0.5-0.1,0.9-0.5,1-1.1v-0.1c0-0.1-0.2-0.1-0.3-0.1c-0.3,0-0.6-0.2-1-0.3h-0.1c-0.1,0-0.2,0-0.4,0h-0.2
			c-0.3,0-0.5,0-0.9-0.1c-0.1-0.1-0.5-0.2-0.1-0.3h0.1c0.2,0,0.3,0,0.4,0l0,0c0.2,0,0.4,0,0.7-0.1c0.4-0.1,0.9-0.3,1.4-0.4
			c0.1,0,0.2-0.1,0.2-0.1c0-0.1,0-0.1,0-0.2c0-0.3-0.1-0.5-0.2-0.9c0-0.1-0.1-0.2-0.2-0.2c-0.1,0-0.1-0.1-0.2-0.1
			c-0.1,0-0.2,0-0.2,0l-2.3,0.5h-0.2h-0.4c-0.1,0-0.2-0.1-0.3-0.1c-0.1,0-0.2,0-0.2,0c-0.4,0-0.7,0.2-1.2,0.3h-0.1
			c-0.2,0-0.5-0.1-0.7-0.1c-0.3-0.1-0.6-0.1-1-0.1c-0.4,0-1,0-1.4,0.1h-0.2c-0.1,0-0.2,0-0.3,0c-0.1,0-0.1,0-0.1-0.1
			c0-0.1,0.1-0.1,0.2-0.2l0.3-0.1c0.3,0,0.5-0.1,0.9-0.1c0.5,0,1.1,0,1.5-0.1c0.2,0,0.4-0.1,0.6-0.3c0.3-0.3,0.3-0.7,0-1.1
			c-0.2-0.3-0.6-0.4-1-0.4L85.2,119.8z"/>
	</g>
	<path id="mouth" class="st1" d="M53.7,69.8c1,0.3,1.9,1,2.5,1.8c1.2,1.5,2.8,2.6,4.6,3.1c2.6,0.6,3.7,0.9,3.5,2.1
		c-0.2,1.3-2.2,1.8-3.5,2.3c-2,0.4-4.3,0.1-6.1-1c-1.3-0.7-2.1-2.1-2.3-3.6C51.9,72.8,52.2,69,53.7,69.8z"/>
</g>
<path class="st8" d="M41.2,53c0,0,7.5,0.9,11.2,0.1c3.7-0.8,5.2-3.2,9.4-3.2S68.3,51.7,73,52s8.8,0,8.6,1c-0.3,2.1,1.8-1.8,1.8-1.8
	l-0.9,1.9c0,0-0.6,1.2-0.9,2.6c-0.3,1.3,0.4,1.6-0.6,3.7c-1,2.1-0.9,3.6-1,4.5s-1.3,0.7-0.2,2s2.2,3.6,2.7,4.2S80.3,71,80.3,71
	s-7.5,7.9-8.9,9.2c-1.3,1.3-8.3,3.4-10.1,3.6c-1.8,0.1-8.8-2.4-11.3-4.9c-2.6-2.4-5-6.3-6-7c-1-0.7-0.7,0.6-0.6-0.8
	c0.1-1.4-0.1-3.2-0.1-3.2l0.9-3.2L41.2,53z"/>
<path class="st9" d="M43.3,71.9c0.3,0.1-0.6-0.9,0.6-1c0.6,0,2.7,1.8,5.7,3.8c3.5,2.4,8.2,4.9,13.1,4.7c4.9-0.2,9.5-3.7,13.3-6.4
	c3.1-2.3,5.7-3.8,6-3.9c0.3-0.1,0.2,0.3,0.4,0.6c0.2,0.3,0.6,0.5,0.2,0.9c-0.2,0.2-0.8,0.4-1.4,0.4c-0.4,0-0.7-0.1-0.9,0.1
	c-0.5,0.5-1.1,0.9-1.6,1.5c-1.9,2.3-7.6,9.1-10.7,9.4c-1,0.1-3.1,1.7-6.1,1.8c-2.8,0.1-6.5-1.2-8.6-2.6c-2.7-1.8-4.6-3.7-5.4-4.4
	c-1.8-1.9-3.3-4.2-3.3-4.2L43.3,71.9z"/>
<path class="st10" d="M83.4,51.3l-0.9,1.8c0,0-0.2,0.4-0.4,1c-0.2,0.4-0.3,1-0.5,1.6c-0.7,0.6-7.3-0.6-8-0.8c0,0-8.9-2-11.5-1.8
	c-2.6,0.2-5.3,2-9.8,2.9s-10.4,0-10.4,0L41.1,53c0,0,7.5,0.9,11.2,0.1c3.7-0.8,5.2-3.2,9.4-3.2s6.5,1.9,11.2,2.1
	c4.7,0.3,8.8,0,8.6,1C81.2,55.1,83.3,51.4,83.4,51.3z"/>
</svg>
