<?xml version="1.0" encoding="UTF-8" standalone="no"?> <!-- Created with Vectornator for iOS (http://vectornator.io/) --><!DOCTYPE svg PUBLIC "-//W3C//DTD SVG 1.1//EN" "http://www.w3.org/Graphics/SVG/1.1/DTD/svg11.dtd">
<svg height="100%" style="fill-rule:nonzero;clip-rule:evenodd;stroke-linecap:round;stroke-linejoin:round;" xmlns:xlink="http://www.w3.org/1999/xlink" xmlns="http://www.w3.org/2000/svg" xml:space="preserve" width="100%" xmlns:vectornator="http://vectornator.io" version="1.1" viewBox="0 0 125 125">
<metadata>
<vectornator:setting key="DimensionsVisible" value="1"/>
<vectornator:setting key="PencilOnly" value="0"/>
<vectornator:setting key="SnapToPoints" value="0"/>
<vectornator:setting key="OutlineMode" value="0"/>
<vectornator:setting key="CMYKEnabledKey" value="0"/>
<vectornator:setting key="RulersVisible" value="1"/>
<vectornator:setting key="SnapToEdges" value="0"/>
<vectornator:setting key="GuidesVisible" value="1"/>
<vectornator:setting key="DisplayWhiteBackground" value="0"/>
<vectornator:setting key="doHistoryDisabled" value="0"/>
<vectornator:setting key="SnapToGuides" value="1"/>
<vectornator:setting key="TimeLapseWatermarkDisabled" value="0"/>
<vectornator:setting key="Units" value="Points"/>
<vectornator:setting key="DynamicGuides" value="0"/>
<vectornator:setting key="IsolateActiveLayer" value="0"/>
<vectornator:setting key="SnapToGrid" value="0"/>
</metadata>
<defs/>
<g id="Layer_138" vectornator:layerName="Layer_138">
<path stroke="#020202" stroke-width="0.75" d="M76.1+80.4C76.1+80.4+75.4+80.1+75.4+79.5L75.4+72.8L49.4+74.1C49.4+74.1+49.7+82+49.1+82.7C49.1+82.7+46+85+46.9+86.9C48.8+90.8+54.1+93.2+58.2+93.8C63.2+94.6+70.8+93.8+75.2+91C78.1+89.2+80+82.1+76.1+80.4Z" fill="#fce7d4" stroke-linecap="butt" opacity="1" stroke-linejoin="miter"/>
<path stroke="#020202" stroke-width="0.75" d="M80.1+55.9C80.1+55.9+80.3155+64.8332+80.1155+65.5332C79.8155+66.8332+79.3036+70.2709+78.6036+71.3709C76.9036+73.9709+76.4716+75.1759+74.4716+77.5759C73.4716+78.5759+69.3+81+68.1+81.4C66.2+81.9+64.2+82.2+62.2+82.3C61+82.2+56.4+81.6+55.4+81C54.4+80.4+49.029+77.4594+46.229+73.6594C43.429+69.8594+44+65.9+43.8+65C43.6+63.6+43.6+62.1+43.5+60.7L43+60.8C43+60.8+42.9+61.8+42.1+61.9C41+62+40.3+60.5+40+59.6C39.5+58.1+39.7+56.4+39.2+54.8C38.7+53.2+36.1+47.9+38.1+46.6C39.9+45.4+41.4+47.1+42+48.7C42.2+49.2+42.3+49.8+42.4+50.3L42.7+50.2C42.7+50.2+42.7+47.2+42.7+45.1C42.8+41.2+41.6+36.9+43+33.1C47.8+20.8+52.3+20.3+63.4+20C73.3+19.7+78.9+27.7+79.6+31.4C80.3+34.4+80.6+37.4+80.5+40.4C80.3+43.1+80+49.9+80+49.9L80.3+50C80.7+48.9+81.1+47.8+81.6+46.7C82+45.8+83+45.5+83.9+45.9C84.7+46.3+85+47.2+84.8+48C84.5+49.1+84+52.1+83.8+53.4C83.7+54.3+83.7+55.2+83.8+56.1C83.8+56.9+83.4+59.8+82.2+59.8C81.5+59.6+79.7+59.7+80.1+55.9Z" fill="#fce7d4" stroke-linecap="butt" opacity="1" stroke-linejoin="miter"/>
<path stroke="#020202" stroke-width="0.75" d="M2+125.5C2+125.5+2.3+124.4+3+121C3.7+117.6+8.2+106+10.6+103C13+100+16.6+98.5+19.1+97.3C21.6+96.1+46.2+83.2+46.2+83.2C51+86.4+56.5+88.1+62.3+88.2C71.6+88.2+79.3+82.6+79.3+82.6C79.3+81.9+98.9+94.3+104.6+96.9C110+99.4+114.4+103.5+117.2+108.7C119.6+113.2+122.2+125.1+122.2+125.1" fill="#6c95ca" stroke-linecap="butt" opacity="1" stroke-linejoin="miter"/>
<path d="M51.5+125.2L45.8+125.2L45.4+84L45.7+83.8L49.3+98.9L51.5+96.5L51.5+125.2Z" opacity="0.5184" fill="#ffffff"/>
<path stroke="#020202" stroke-width="0.75" d="M46.2+83.2C46.5+82.6+46.8+81.9+46.9+81.2C47+80.3+47.2+79.5+47.6+78.7C48+78.3+49.2+78.2+49.2+78.2C49.2+78.2+48.2+79.7+48.7+80.2C49.9+81.3+51.2+82.3+52.6+83.2C54.2+84.1+61+87.6+61.7+88C62.4+88.4+61.6+88.5+61.2+88.5C60.8+88.5+57.7+88.9+56.7+90C55.7+91.1+49.4+98.2+49.4+98.2C49.4+98.2+45.6+83.7+46.2+83.2Z" fill="#6c95ca" stroke-linecap="butt" opacity="1" stroke-linejoin="miter"/>
<path stroke="#020202" stroke-width="0.75" d="M75.8+77.9C75.8+77.9+76.6+77.6+76.8+78.2C77+78.8+77.2+80.2+77.2+80.5C78.1+81.4+79+82.2+80+83L77+97.4C77+97.4+70.4+92.6+67.9+91.2C65.4+89.8+62+88.4+62.1+88.2C62.2+88+75.1+81.4+75.7+78.6C75.7+78.5+75.7+78.3+75.7+78.2L75.8+77.9Z" fill="#6c95ca" stroke-linecap="butt" opacity="1" stroke-linejoin="miter"/>
<path stroke="#020202" stroke-width="0.75" d="M58.7+88.8L58.7+125.2" fill="none" stroke-linecap="butt" opacity="1" stroke-linejoin="miter"/>
<path stroke="#020202" stroke-width="0.75" d="M66.9+90.3L66.9+125.2" fill="none" stroke-linecap="butt" opacity="1" stroke-linejoin="miter"/>
<g opacity="1">
<path d="M61.2+103C61.2+102.116+61.9163+101.4+62.8+101.4C63.6837+101.4+64.4+102.116+64.4+103C64.4+103.884+63.6837+104.6+62.8+104.6C61.9163+104.6+61.2+103.884+61.2+103Z" opacity="1" fill="#ffffff"/>
<path d="M62.8+101.8C63.5+101.8+64+102.3+64+103C64+103.7+63.5+104.2+62.8+104.2C62.1+104.2+61.6+103.7+61.6+103C61.6+102.3+62.1+101.8+62.8+101.8M62.8+101C61.7+101+60.8+101.9+60.8+103C60.8+104.1+61.7+105+62.8+105C63.9+105+64.8+104.1+64.8+103C64.8+101.9+63.9+101+62.8+101Z" opacity="1" fill="#000000"/>
</g>
<g opacity="1">
<path d="M61.2+118.9C61.2+118.016+61.9163+117.3+62.8+117.3C63.6837+117.3+64.4+118.016+64.4+118.9C64.4+119.784+63.6837+120.5+62.8+120.5C61.9163+120.5+61.2+119.784+61.2+118.9Z" opacity="1" fill="#ffffff"/>
<path d="M62.8+117.7C63.5+117.6+64.1+118.1+64.1+118.8C64.1+119.5+63.7+120.1+63+120.1C62.9+120.1+62.9+120.1+62.8+120.1C62.1+120+61.6+119.4+61.7+118.8C61.7+118.2+62.2+117.8+62.8+117.7M62.8+117C61.7+117+60.8+117.9+60.8+119C60.8+120.1+61.7+121+62.8+121C63.9+121+64.8+120.1+64.8+119C64.8+117.9+63.9+117+62.8+117Z" opacity="1" fill="#000000"/>
</g>
<path stroke="#020202" stroke-width="0.75" d="M56.5+46.2C56.5+47.6+55.9+48.7+55.2+48.7C54.5+48.7+54+47.6+54+46.2C54+44.8+54+43.7+55.3+43.7C56.1+43.8+56.5+44.9+56.5+46.2Z" fill="#008e19" stroke-linecap="butt" opacity="1" stroke-linejoin="miter"/>
<path stroke="#020202" stroke-width="0.75" d="M72.7+45.8C72.7+47.3+72.1+48.5+71.4+48.5C70.7+48.5+70.1+47.3+70.1+45.8C70.1+44.3+70.1+43.1+71.4+43.1C72.3+43.1+72.7+44.3+72.7+45.8Z" fill="#008e19" stroke-linecap="butt" opacity="1" stroke-linejoin="miter"/>
<path stroke="#020202" stroke-width="0.75" d="M64.3+49.6C64.3+49.6+66.4+57.7+66.5+58.4C66.6+59.1+66.9387+61.0891+66.5387+61.4891C66.1387+61.8891+65.7185+63.0364+64.9185+63.1364C64.0185+63.2364+64.1676+63.4086+63.2676+63.3086C62.7676+63.2086+62.4+63.5+62+63.2C62+63.2+60.9+63.5+60.5+63.3C60.1+63+59.8+62.5+59.8+62C60+61.5+60.3+61+60.7+60.6" fill="none" stroke-linecap="butt" opacity="1" stroke-linejoin="miter"/>
<path stroke="#020202" stroke-width="0.75" d="M80.1+25C79.9+25+79.8+25+79.6+25C79.9+25.2+80.1+24.6+80+24.2C78.4+19.3+74+15.5+69.1+13.8C63.9+12+56.3+11.5+51.5+14.7C47+17.7+43.6+22+41.7+27.1C41.1+28.8+40.7+30.5+40+32.1C39.3+33.8+38.1+35.1+36.6+36C35+36.8+33+36.6+31.7+35.3C30.6+38.4+32.2+41.9+35.4+42.9C36.6+43.3+38+43.4+39.2+43L39.4+46.1C40.9+46.7+42+47.9+42.6+49.4C43.7+47.5+43.4+45+44.3+42.9C45.1+41.2+46.9+39.9+47+38C47.2+35.2+43.7+32.8+50.2+29.2C50.3+29.1+50.5+29.1+50.7+29.1C52.9+29+54.8+30.4+56.8+31.5C60.1+33.3+63.9+33.9+67.5+33.4C71.2+32.8+74.5+30.8+76.8+27.8C76+30.2+75.8+32.6+76.1+35.1C76.7+37.5+77.5+39.8+78.7+42C79.7+43.9+80.2+46+80.4+48.1C80.4+48.3+80.5+48.4+80.7+48.4C80.8+48.4+80.9+48.3+81+48.2C81.3+47.7+81.5+47.1+81.8+46.6C82.2+45.9+82.5+45.1+82.7+44.4C84+40+83.8+35.2+82+31C81.9+30.8+81.8+30.5+81.8+30.2C81.9+29.5+82.8+29.2+83.4+29.6C84+30+84.4+30.5+84.6+31.2C85.4+28.9+84.2+26.3+81.9+25.5C81.2+25.1+80.6+25+80.1+25Z" fill="#f7de48" stroke-linecap="butt" opacity="1" stroke-linejoin="miter"/>
<path stroke="#020202" stroke-width="0.75" d="M56.5821+67.2763C57.6248+67.2249+58.5793+67.5231+59.4456+68.1708C60.9502+69.1228+62.8258+69.6249+64.5617+69.4338C67.1185+69.1639+68.2221+68.9848+68.3738+70.3104C68.5254+71.6359+66.9626+72.6144+65.9986+73.4866C64.2473+74.532+62.1677+74.9509+60.2313+74.5765C58.8329+74.2235+57.6779+73.3598+57.0216+72.1071C55.8546+70.6111+54.9344+67.1178+56.5821+67.2763Z" fill="#ffffff" stroke-linecap="butt" opacity="1" stroke-linejoin="miter"/>
<path d="M85.7382+39.0432C82.8933+38.4961+80.0484+38.2773+77.0941+38.3867C74.0304+38.6055+67.0276+40.9033+65.824+41.2316C64.9487+41.4504+64.0733+41.5598+63.198+41.5598C61.9944+41.4504+60.7908+41.2316+59.6966+40.7939C59.0401+40.575+53.5691+38.4961+51.709+38.4961C48.9736+38.2773+46.2381+38.2773+43.5026+38.3867C40.8766+38.7149+40.5483+38.9338+40.5483+39.1526L40.986+41.7787C41.2049+41.8881+41.4237+41.8881+41.5331+41.9975C41.7519+42.1069+41.8614+42.3257+41.9708+42.5446C42.0802+42.7634+44.7062+49.1097+44.8157+49.3285C45.0345+49.8756+45.2533+50.4227+45.691+50.8604C46.3475+51.5169+47.1135+51.9546+47.9888+52.2828C48.9736+52.6111+49.9583+52.8299+50.9431+52.9393C52.1467+53.0488+53.2409+52.9393+54.4445+52.8299C55.7575+52.6111+56.9611+52.064+57.9459+51.1886C58.9307+50.3133+59.6966+49.3285+60.3531+48.1249C60.6814+47.359+61.7755+44.8424+61.9944+44.5141C62.3226+44.1859+62.8697+43.967+63.3074+43.967C63.9639+43.967+64.511+44.2953+64.7298+44.8424C65.0581+45.3895+65.9334+47.7967+66.59+49.0003C67.4653+50.751+69.1066+52.064+70.9667+52.6111C73.1551+53.1582+75.3434+53.1582+77.5318+52.5017C78.4072+52.2828+79.2825+51.9546+80.0484+51.4075C80.4861+50.9698+80.9238+50.4227+81.252+49.7662C81.5803+49.1097+82.5651+45.4989+82.6745+45.1706C83.2216+44.0764+83.7687+43.0917+84.5346+42.2163C84.7534+41.9975+85.0817+41.8881+85.3005+41.7787L85.7382+39.1526C85.8476+39.262+85.8476+39.1526+85.7382+39.0432ZM58.493+47.359C57.9459+48.5626+57.2894+49.6568+56.414+50.5321C54.9916+51.4075+53.3503+51.8452+51.709+51.6263C50.2866+51.6263+48.8642+51.2981+47.5511+50.6416C46.6758+50.2039+46.2381+49.1097+45.8004+48.0155C45.3628+46.4836+45.2533+44.9518+45.2533+43.4199C45.2533+43.4199+45.2533+43.3105+45.2533+43.2011C45.2533+42.7634+45.4722+42.3257+45.8004+41.9975C46.7852+41.0127+48.4265+41.0127+49.7395+41.0127C51.2714+40.9033+52.6938+41.0127+54.2257+41.2316C55.6481+41.4504+58.8212+41.7787+59.0401+43.7482C59.1495+44.9518+58.9307+46.1554+58.493+47.359ZM80.3767+47.9061C79.939+49.0003+79.6108+50.2039+78.626+50.5321C77.313+51.1886+75.8905+51.5169+74.4681+51.5169C72.8268+51.7357+71.1855+51.2981+69.7631+50.4227C68.8878+49.5474+68.2312+48.4532+67.6841+47.2496C67.2465+46.1554+67.0276+44.9518+67.0276+43.7482C67.2465+42.2163+69.216+41.5598+70.529+41.341C72.2797+41.0127+74.0304+40.7939+75.7811+40.7939C77.2036+40.7939+79.0637+40.7939+80.2673+41.8881C80.5955+42.2163+80.8144+42.654+80.8144+43.0917C80.8144+43.0917+80.8144+43.2011+80.8144+43.3105C81.0332+44.9518+80.8144+46.3742+80.3767+47.9061L80.3767+47.9061Z" opacity="1" fill="#000000"/>
<path d="M24.5+125.7L18.8+125.7L18.8+97.8L24.5+94.8L24.5+125.7Z" opacity="0.5184" fill="#ffffff"/>
<path d="M38.1+125.2L32.5+125.2L32.5+90.8L38.1+87.8L38.1+125.2Z" opacity="0.5184" fill="#ffffff"/>
<path d="M58.4+102.2L58.4+107.9L8.4+107.9C8.9+106.6+9.6+105.4+10.3+104.2C10.6+103.8+10.9+103.4+11.3+102.9C11.5+102.6+11.7+102.4+12+102.2C12+102.2+58.4+102.2+58.4+102.2Z" opacity="0.5184" fill="#ffffff"/>
<path d="M58.3+114.2L58.3+119.9L3.6+119.9C3.9+118.8+4.3+117.7+4.7+116.6C4.9+116.1+5.1+115.4+5.3+114.9C5.3+114.8+5.5+114.2+5.6+114.2C5.6+114.2+58.3+114.2+58.3+114.2Z" opacity="0.5184" fill="#ffffff"/>
<path d="M74.1+125.1L79.7+125.1L80.7+83.7L80.4+83.6L77.4+98L74.1+95.7L74.1+125.1Z" opacity="0.5184" fill="#ffffff"/>
<path d="M101.1+125.1L106.8+125.1L106.8+98.6L101.1+95.6L101.1+125.1Z" opacity="0.5184" fill="#ffffff"/>
<path d="M87.4+125.1L93.1+125.1L93+91L87.4+87.6L87.4+125.1Z" opacity="0.5184" fill="#ffffff"/>
<path d="M67.2+102L67.2+107.7L115.9+107.7C115.3+106.5+114.5+105.4+113.7+104.4C113.3+103.9+112.5+103.2+112.1+102.7C112.1+102.6+111.4+102+111.4+102C111.4+102+67.2+102+67.2+102Z" opacity="0.5184" fill="#ffffff"/>
<path d="M67.2+114L67.2+119.7L120.4+119.8C120.1+118.7+120+117.6+119.6+116.5C119.4+116+119.2+115.3+119+114.8C119+114.7+118.8+114.1+118.7+114.1L67.2+114Z" opacity="0.5184" fill="#ffffff"/>
</g>
</svg>
