<?xml version="1.0" encoding="UTF-8" standalone="no"?> <!-- Created with Vectornator for iOS (http://vectornator.io/) --><!DOCTYPE svg PUBLIC "-//W3C//DTD SVG 1.1//EN" "http://www.w3.org/Graphics/SVG/1.1/DTD/svg11.dtd">
<svg height="100%" style="fill-rule:nonzero;clip-rule:evenodd;stroke-linecap:round;stroke-linejoin:round;" xmlns:xlink="http://www.w3.org/1999/xlink" xmlns="http://www.w3.org/2000/svg" xml:space="preserve" width="100%" xmlns:vectornator="http://vectornator.io" version="1.1" viewBox="0 0 125 125">
<metadata>
<vectornator:setting key="DimensionsVisible" value="1"/>
<vectornator:setting key="PencilOnly" value="0"/>
<vectornator:setting key="SnapToPoints" value="0"/>
<vectornator:setting key="OutlineMode" value="0"/>
<vectornator:setting key="CMYKEnabledKey" value="0"/>
<vectornator:setting key="RulersVisible" value="1"/>
<vectornator:setting key="SnapToEdges" value="0"/>
<vectornator:setting key="GuidesVisible" value="1"/>
<vectornator:setting key="DisplayWhiteBackground" value="0"/>
<vectornator:setting key="doHistoryDisabled" value="0"/>
<vectornator:setting key="SnapToGuides" value="1"/>
<vectornator:setting key="TimeLapseWatermarkDisabled" value="0"/>
<vectornator:setting key="Units" value="Points"/>
<vectornator:setting key="DynamicGuides" value="0"/>
<vectornator:setting key="IsolateActiveLayer" value="0"/>
<vectornator:setting key="SnapToGrid" value="0"/>
</metadata>
<defs/>
<g id="person_8" vectornator:layerName="person_8">
<g opacity="1">
<path stroke="#020202" stroke-width="0.75" d="M78.8+83.5C78.8+83.5+77.3+81.6+77.3+81C77.3+80.4+76.9+68.7+76.9+68.7L46.8+68.7C46.8+68.7+47.1+81.3+46.5+82C45+83.7+43.8+85.7+43+87.8C41.4+91.8+46.8+96.5+49.5+97.7C55.1+100.1+63.1+100.1+69.1+98.6C73.6+97.5+77.7+95+80.8+91.4C82.6+89.1+83+85.8+78.8+83.5Z" fill="#fce7d4" stroke-linecap="butt" opacity="1" stroke-linejoin="miter"/>
<path stroke="#020202" stroke-width="0.75" d="M79.5+57C79.5+57+79+66+78.8+66.7C78.5+67.9+78+69.1+77.4+70.2C75.8+72.8+74+75.2+72.1+77.5C71.2+78.5+69.1+81.5+67.9+81.8C66+82.3+64.1+82.6+62.2+82.7C61+82.6+56.6+82+55.6+81.5C54.6+81+51.3+77+48.6+73.3C45.9+69.6+44.4+66.7+44.2+65.8C44+64.4+44+63+43.9+61.6L43.4+61.7C43.4+61.7+43.3+62.6+42.5+62.7C41.3+62.9+40.6+61.4+40.3+60.5C39.8+59+40+57.4+39.5+55.9C39+54.4+36.5+49.2+38.5+47.9C40.2+46.7+41.7+48.4+42.3+49.9C42.5+50.4+42.6+51+42.7+51.5L43+51.4C43+51.4+43+48.5+43+46.5C43.1+42.7+41.9+38.5+43.3+34.8C48+22.7+52.4+22.3+63.2+21.9C72.8+21.6+78.2+29.5+78.9+33C79.6+35.9+79.8+38.8+79.8+41.8C79.7+44.5+79.3+51.1+79.3+51.1L79.6+51.2C80+50.1+80.4+49+80.9+48C81.3+47.2+82.3+46.8+83.1+47.2C83.9+47.6+84.2+48.4+84+49.2C83.7+50.2+83.2+53.2+83+54.4C82.9+55.3+82.9+56.2+83+57.1C83+57.9+82.7+60.7+81.5+60.7C80.9+60.6+79.1+60.7+79.5+57Z" fill="#fce7d4" stroke-linecap="butt" opacity="1" stroke-linejoin="miter"/>
</g>
<path stroke="#000000" stroke-width="0.75" d="M121+125C121+125+118+112.3+115.7+107.8C113+102.7+108.6+98.7+103.4+96.3C97.8+93.7+78.7+81.6+78.7+82.3C78.9+86.4+77.5+90.5+74.7+93.6C70.7+97.9+56.5+96.6+51.1+94C48.1+92.6+45.9+89.8+45.2+86.6C44.9+85.6+44.5+84+44.5+84C44.5+84+22.5+95.6+20.1+96.7C17.7+97.8+14.1+99.4+11.8+102.3C9.5+105.2+5.1+116.5+4.4+119.8C4+121.5+3.8+123.3+3.8+125.1" fill="#202133" stroke-linecap="butt" opacity="1" stroke-linejoin="miter"/>
<path stroke="#000000" stroke-width="0.75" d="M48.2+22.5C48.2+22.5+49.8+15.5+53.8+13.4C58.6+10.7+63+12.4+67.4+14.6C70.9+16.4+74.1+18.6+76.9+21.4C80.1+24.3+84+29.2+84.2+30C84.4+30.9+84.4+31.8+84.2+32.8C84.1+33.3+83+34.1+83+34.1C83+34.1+83.7+39.8+82.3+42.1C80.4+45.3+80.3+50+80+51.1C79.7+52.2+79.3+51.8+79.3+51.7C79.3+51.6+79.4+41.9+79+40.7C78.6+39.5+77.8+38.4+78.2+37.4C78.5+36.3+78.7+35.2+78.8+34C78.8+34+74.5+30.8+73.5+30.1C72.5+29.4+69.2+27.6+67.6+27.5C65.9+27.4+64.1+27.6+62.5+28.1C60.6+28.7+60.2+29.9+59.7+29.8C59.2+29.7+56.7+27.8+53.3+27.7C49.9+27.6+48.2+27.7+46.8+29.1C45.4+30.5+44.1+32+44.3+34.6C44.5+37.2+44.4+37.8+44.3+38.3C43.9+39.2+43.6+40.1+43.5+41.1C43.5+42.1+43.6+51.7+43.5+52C43.4+52.3+43+51.9+42.8+51C42.6+50.1+42.1+45.5+42+44.6C41.9+43.7+39.5+38.4+39.3+35.9C39.1+33.4+38.5+30.3+39.7+27.2C40.9+24.1+42+22.5+43+21.7C44+20.9+47.3+21.9+48.2+22.5Z" fill="#8e570e" stroke-linecap="butt" opacity="1" stroke-linejoin="miter"/>
<path stroke="#020202" stroke-width="0.75" d="M61.7+56.7C61.7+56.7+68+54.5+67.4+58.3C66.8+62.1+61+61.5+61+61.5" fill="#fce7d4" stroke-linecap="butt" opacity="1" stroke-linejoin="miter"/>
<path stroke="#020202" stroke-width="0.75" d="M57.3+71.5C57.3+71.5+60.5+70.5+62.1+70.7C63.7+70.9+66.4+73.1+67.7+73.3" fill="none" stroke-linecap="butt" opacity="1" stroke-linejoin="miter"/>
<g opacity="1">
<path stroke="#000000" stroke-width="0.75" d="M49.4+64.7L49.4+65.3" fill="none" stroke-linecap="butt" opacity="1" stroke-linejoin="miter"/>
<path stroke="#000000" stroke-width="0.75" d="M47.1+59L47.1+59.7" fill="none" stroke-linecap="butt" opacity="1" stroke-linejoin="miter"/>
<path stroke="#000000" stroke-width="0.75" d="M48.5+68.3L48.5+69" fill="none" stroke-linecap="butt" opacity="1" stroke-linejoin="miter"/>
<path stroke="#000000" stroke-width="0.75" d="M54.4+65.6L54.4+66.3" fill="none" stroke-linecap="butt" opacity="1" stroke-linejoin="miter"/>
<path stroke="#000000" stroke-width="0.75" d="M51.4+70.4L51.4+71" fill="none" stroke-linecap="butt" opacity="1" stroke-linejoin="miter"/>
<path stroke="#000000" stroke-width="0.75" d="M52.2+60L52.2+60.7" fill="none" stroke-linecap="butt" opacity="1" stroke-linejoin="miter"/>
<path stroke="#000000" stroke-width="0.75" d="M70.7+60L70.7+60.7" fill="none" stroke-linecap="butt" opacity="1" stroke-linejoin="miter"/>
<path stroke="#000000" stroke-width="0.75" d="M75.3+59.7L75.3+60.3" fill="none" stroke-linecap="butt" opacity="1" stroke-linejoin="miter"/>
<path stroke="#000000" stroke-width="0.75" d="M69.6+65L69.6+65.7" fill="none" stroke-linecap="butt" opacity="1" stroke-linejoin="miter"/>
<path stroke="#000000" stroke-width="0.75" d="M66.5+67.2L66.5+67.9" fill="none" stroke-linecap="butt" opacity="1" stroke-linejoin="miter"/>
<path stroke="#000000" stroke-width="0.75" d="M65.3+77.8L65.3+78.4" fill="none" stroke-linecap="butt" opacity="1" stroke-linejoin="miter"/>
<path stroke="#000000" stroke-width="0.75" d="M58.7+78.7L58.7+79.4" fill="none" stroke-linecap="butt" opacity="1" stroke-linejoin="miter"/>
<path stroke="#000000" stroke-width="0.75" d="M60.7+76.1L60.7+76.8" fill="none" stroke-linecap="butt" opacity="1" stroke-linejoin="miter"/>
<path stroke="#000000" stroke-width="0.75" d="M74+67.3L74+68" fill="none" stroke-linecap="butt" opacity="1" stroke-linejoin="miter"/>
<path stroke="#000000" stroke-width="0.75" d="M77.3+65.3L77.3+66" fill="none" stroke-linecap="butt" opacity="1" stroke-linejoin="miter"/>
</g>
<g opacity="1">
<path stroke="#020202" stroke-width="0.75" d="M55.5+46.5C55.5+47.8+55+48.9+54.3+48.9C53.6+48.9+53+47.8+53+46.5C53+45.2+53+44+54.2+44C55.1+44+55.5+45.1+55.5+46.5Z" fill="#008e19" stroke-linecap="butt" opacity="1" stroke-linejoin="miter"/>
<path stroke="#020202" stroke-width="0.75" d="M71.3+46C71.3+47.4+70.7+48.6+70.1+48.6C69.5+48.6+68.9+47.4+68.9+46C68.9+44.6+68.9+43.4+70.1+43.4C70.9+43.4+71.3+44.6+71.3+46Z" fill="#008e19" stroke-linecap="butt" opacity="1" stroke-linejoin="miter"/>
<path stroke="#020202" stroke-width="0.75" d="M55.2+50.2C54.6+50.7+53.9+51.1+53.1+51.2C52+51.2+50.5+50.6+50.2+49.9" fill="none" stroke-linecap="butt" opacity="1" stroke-linejoin="miter"/>
<path stroke="#020202" stroke-width="0.75" d="M66.6+50.3C67.5+50.9+68.5+51.4+69.5+51.5C70.5+51.4+71.4+50.8+72+50" fill="none" stroke-linecap="butt" opacity="1" stroke-linejoin="miter"/>
<path stroke="#020202" stroke-width="0.75" d="M65+39.3C65+39.3+66.9+37.4+68.8+37.4C70.7+37.4+71.7+39.3+73.6+40.2" fill="none" stroke-linecap="butt" opacity="1" stroke-linejoin="miter"/>
<path stroke="#020202" stroke-width="0.75" d="M59.3+40.3C58.4+39.5+57.5+38.9+56.4+38.4C54.5+37.3+52.1+37.7+50.7+39.4C48.8+41.3+48.8+41.3+47.8+41.3" fill="none" stroke-linecap="butt" opacity="1" stroke-linejoin="miter"/>
</g>
<g opacity="1">
<path d="M81.3+23.1C78.6+22.6+75.9+22.4+73.1+22.5C69.9+22.9+66.6+23.4+63.5+24.2C62.7+24.4+61.9+24.6+61+24.6C59.9+24.5+58.8+24.3+57.7+23.9C55.5+23.3+53.4+22.9+51.2+22.7C48.6+22.5+46+22.5+43.4+22.6C40.9+22.9+40.6+23.1+40.6+23.3L41+25.8C41.2+25.9+41.4+25.9+41.5+26C41.7+26.1+41.8+26.3+41.9+26.5C42+26.7+43.5+31.7+43.6+31.9C43.8+32.4+44.1+32.9+44.4+33.3C45+33.9+45.7+34.4+46.5+34.7C47.4+35+48.3+35.2+49.3+35.3C50.4+35.4+51.5+35.4+52.6+35.2C53.8+35+54.9+34.4+55.9+33.7C56.8+32.9+57.6+31.9+58.1+30.8C58.4+30.1+59.4+27.7+59.6+27.4C59.9+27+60.4+26.8+60.9+26.9C61.5+26.9+62+27.2+62.2+27.7C62.5+28.3+63.4+30.5+64+31.6C64.8+33.3+66.4+34.5+68.2+35C70.2+35.6+72.4+35.6+74.4+35C75.3+34.8+76.1+34.4+76.8+33.9C77.3+33.5+77.7+33+78+32.4C78.3+31.8+79.2+28.4+79.3+28C79.5+27.4+79.7+26.7+80+26.2C80.2+26+80.5+25.9+80.8+25.8L81.2+23.3C81.4+23.2+81.4+23.2+81.3+23.1ZM56.5+30C56+31.1+55.3+32.1+54.5+33C53.2+33.8+51.6+34.2+50.1+34C48.7+34+47.4+33.6+46.2+33C45.4+32.6+45+31.5+44.6+30.5C44.2+29.1+44.1+27.6+44.1+26.2C44.1+26.1+44.1+26.1+44.1+26C44.1+25.6+44.3+25.2+44.6+25C45.6+24.1+47.1+24.1+48.3+24C49.7+23.9+51.1+24+52.5+24.2C53.8+24.4+56.8+24.7+57+26.6C57.1+27.8+56.9+28.9+56.5+30ZM77.3+30.5C76.9+31.5+76.5+32.6+75.7+33C74.5+33.6+73.1+34+71.8+34C70.3+34.2+68.7+33.8+67.4+33C66.6+32.1+65.9+31.1+65.4+30C65+29+64.8+27.8+64.8+26.7C65+25.3+66.9+24.7+68.1+24.4C69.8+24+71.4+23.9+73.1+23.9C74.4+23.9+76.2+23.9+77.3+24.9C77.6+25.2+77.8+25.6+77.8+26L77.8+26.2C77.8+27.7+77.6+29.1+77.3+30.5L77.3+30.5Z" opacity="1" fill="#000000"/>
<path d="M44.6+25C44.3+25.3+44.1+25.7+44.1+26.1C44.1+26.2+44.1+26.2+44.1+26.3C44+27.7+44.2+29.2+44.6+30.6C45+31.6+45.4+32.7+46.2+33.1C47.4+33.8+48.7+34.1+50.1+34.1C51.6+34.3+53.2+33.9+54.5+33.1C55.3+32.2+56+31.2+56.5+30.1C56.8+29+57.1+27.9+57.1+26.7C56.9+24.9+53.9+24.6+52.6+24.3C51.2+24+49.8+23.9+48.3+24C47.1+24.1+45.6+24.1+44.6+25Z" opacity="0.49" fill="#000000"/>
<path d="M77.2+25C77.5+25.3+77.7+25.7+77.7+26.1L77.7+26.3C77.8+27.7+77.6+29.2+77.2+30.6C76.8+31.6+76.4+32.7+75.6+33.1C74.4+33.8+73+34.1+71.7+34.1C70.2+34.3+68.6+33.9+67.3+33.1C66.5+32.2+65.8+31.2+65.3+30.1C64.9+29.1+64.7+27.9+64.7+26.8C64.9+25.4+66.8+24.8+68+24.6C69.6+24.3+71.3+24.1+73+24.1C74.3+24+76.2+24+77.2+25Z" opacity="0.49" fill="#000000"/>
</g>
<path stroke="#020202" stroke-width="0.75" d="M79.5625+51.9062C79.43+51.6413+78.9612+52.0424+78.75+52.25C78.4983+52.4974+78.4134+55.1648+78.0625+55.7812C77.5407+56.6978+78.0153+57.2311+77.9375+58.125C77.8647+58.9614+77.1936+58.5886+77.125+59.1562C76.9177+60.8724+77.6494+61.9648+76.125+63.4375C76.116+63.4462+75.8868+63.2033+75.875+63.1875C75.3201+62.4476+75.2124+63.2+74.75+62.9688C74.4172+62.8023+74.2557+62.2997+73.9062+62.125C73.5385+61.9411+72.6182+62.6852+72.1562+62.5312C71.6212+62.3529+69.5282+61.878+69.0625+62.0312C67.8578+62.4278+66.8127+63.109+65.625+63.5C65.5094+63.5381+65.614+62.7159+65.0938+62.8438C64.0615+63.0974+63.0029+63.5361+61.9688+63.875C61.2442+64.1124+59.8177+63.1901+59.1875+62.875C58.5948+62.5787+55.1438+63.1438+54.8438+62.8438C54.3994+62.3994+53.7937+62.2164+52.9062+62.0625C52.1833+61.9371+51.2001+61.7401+50.4688+61.875C49.9611+61.9687+49.415+62.3267+48.875+62.2188C48.2975+62.1032+48.551+61.2911+48.2188+61.125C47.5019+60.7666+46.3931+61.509+45.6875+61.1562C45.3199+60.9725+45.7936+59.8059+45.625+59.4688C45.5037+59.2262+45.0862+59.1774+44.9062+58.9375C44.5684+58.487+44.5061+57.1362+44.2812+56.5625C43.6795+55.0266+44.5601+52.5932+42.8438+52.1562C42.6485+52.1065+42.7721+53.524+42.875+53.9375C43.1541+55.0587+43.0826+56.4506+42.7188+57.5312C42.3325+58.6785+42.2701+60.4089+41.5938+61.4062C41.3861+61.7124+39.4708+63.8028+39.9688+63.9688C40.3548+64.0974+41.8951+63.6139+41.9688+63.6875C42.3136+64.0323+41.4156+64.5147+41.125+64.9062C40.4854+65.768+39.5522+67.0191+39.3438+68.125C39.2199+68.782+41.596+68.846+41.8125+69.0625C42.1883+69.4383+41.2863+70.0159+41.1562+70.5312C40.8951+71.5664+40.9533+73.1223+41.4688+74.0625C41.6234+74.3445+42.083+73.9902+42.0938+74.0312C42.3749+75.1072+42.7878+77.7689+43.9375+78.3438C44.1798+78.4649+44.4688+77.1666+44.4688+77.125C44.4688+76.8164+44.5347+77.7283+44.5938+78.0312C44.6102+78.1157+44.6388+78.197+44.6562+78.2812C45.0194+80.0318+44.749+79.1761+45.3438+80.8125C45.782+82.0183+46.5537+83.1154+47.4062+84.0312C47.7121+84.3599+47.6168+83.8355+47.7188+83.9375C48.1018+84.3206+48.3312+85.7176+48.7188+86.2812C48.7351+86.305+48.9732+86.4652+49.0312+86.4062C49.1924+86.2424+48.9375+85.5821+48.9375+85.3438C48.9375+85.0616+49.1357+85.8983+49.25+86.1562C49.4306+86.5639+49.5887+86.9728+49.7812+87.375C50.4303+88.7308+51.4759+90.241+52.9375+90.8125C53.2267+90.9256+52.9504+90.1849+52.9688+89.875C52.9857+89.5886+52.9884+89.3266+52.9375+89.0312C52.9296+88.9855+52.7864+88.6276+52.9062+88.6875C53.0877+88.7782+53.364+90.2795+53.4375+90.5C53.7494+91.4358+54.6646+92.1647+55.3438+92.8438C55.439+92.939+57.005+94.4286+57.0938+94.1875C57.3969+93.3642+57.2247+92.4159+57.4375+91.5625C57.5097+91.2729+57.6259+92.1348+57.75+92.4062C57.9183+92.7742+58.6294+94.4444+59.0312+94.4375C59.5873+94.4279+59.3481+92.3501+59.8438+92.0938C60.0145+92.0054+61.1593+94.8139+61.5625+94.8125C62.4322+94.8095+63.135+93.7485+63.8438+93.4688C64.1879+93.3329+63.7152+94.7548+64.0312+94.5625C64.5655+94.2374+66.7187+92.8136+66.7188+92.1562C66.7188+91.9273+66.7478+92.6166+66.7188+92.8438C66.7054+92.9479+66.3342+94.053+66.5312+94.25C66.7844+94.5032+67.0888+93.8089+67.375+93.5938C67.8552+93.2329+68.5342+92.596+69.0938+92.4062C69.2441+92.3553+69.0938+93.8583+69.0938+93.7812C69.0938+93.0114+71.9562+89.7436+72.1875+88.9375C72.4939+87.8696+72.4688+88.2079+72.4688+89.25C72.4688+89.3415+72.3772+89.5328+72.4688+89.5312C72.6136+89.5288+74.7404+85.1645+75.2188+85.1562C75.2188+85.1562+75.2187+86.0999+75.2188+86.9062C75.2188+86.9861+75.2188+87.2049+75.2188+87.125C75.2188+85.9088+76.7825+83.9152+77.1562+82.7812C77.247+82.5058+77.5329+80.8157+77.8125+80.5312C78.065+80.2744+78.0938+81.9226+78.0938+81.5625C78.0938+80.2983+78.9967+77.7233+79.2812+76.4062C79.4362+75.6891+79.6015+74.9685+79.75+74.25C79.7866+74.0729+79.6835+73.592+79.8125+73.7188C80.2818+74.18+79.875+74.863+79.875+75.3438C79.875+75.8294+80.1211+74.3873+80.1875+73.9062C80.275+73.2723+80.1875+72.64+80.1875+72C80.1875+71.7997+80.1875+71.6065+80.1875+71.4062C80.1875+70.349+81.2357+72.2478+81.2812+71.0312C81.2919+70.7462+80.8208+68.8468+81+68.8438C81.0668+68.8426+81.6441+70.0501+82.0312+69.6562C82.1378+69.5478+81.2492+67.3336+81.1875+67.2188C81.1469+67.143+81.0172+67.039+81.0938+67C81.3577+66.8657+82.3842+67.5887+82.625+67.3438C82.7232+67.2439+82.4668+67.1058+82.375+67C81.8593+66.4054+81.2601+65.8529+81.0625+65.0625C80.9931+64.7848+81.0501+64.4711+81+64.1875C80.9771+64.0579+80.8372+63.782+80.9688+63.7812C81.0708+63.7807+81.8138+64.0502+81.6562+63.6562C81.1422+62.3712+79.9387+61.2561+79.6562+59.8438C79.4871+58.9979+79.234+56.4932+79.25+56.4062C79.5316+54.88+80.303+53.3873+79.5625+51.9062ZM57.6875+67.9375C58.525+67.9275+59.4865+68.0102+60.6875+68.1562C60.9181+68.1843+61.1228+68.2091+61.4375+68.25C62.5944+68.4004+62.8609+68.4143+63.2188+68.4375C64.767+68.515+66.6081+68.5284+67.4375+68.75C67.9628+68.8903+68.4247+69.0898+68.875+69.375C69.8628+70.0008+70.5998+71.0025+70.625+72.4375C70.6484+73.7732+70.0572+74.7287+69.2188+75.4062C68.8408+75.7117+68.4458+75.9357+68+76.125C65.892+77.0201+61.3932+77.5335+57.625+77.3125C56.2672+77.2329+54.6365+76.44+53.5938+75.4375C51.1751+73.1122+51.8408+69.3754+55.4062+68.25C56.1145+68.0264+56.85+67.9475+57.6875+67.9375Z" fill="#a65d20" stroke-linecap="round" opacity="1" stroke-linejoin="round"/>
</g>
</svg>
