<svg id="Layer_1" data-name="Layer 1" xmlns="http://www.w3.org/2000/svg" viewBox="0 0 125 125"><defs><style>.cls-1{fill:#099160;}.cls-1,.cls-2,.cls-4,.cls-7,.cls-9{stroke:#020202;}.cls-1,.cls-2,.cls-3,.cls-4,.cls-5,.cls-7,.cls-8,.cls-9{stroke-miterlimit:10;stroke-width:0.75px;}.cls-2{fill:#fce7d4;}.cls-3{fill:#7f4c0e;}.cls-3,.cls-8{stroke:#000;}.cls-4,.cls-5{fill:none;}.cls-5{stroke:#231f20;}.cls-6,.cls-9{fill:#fff;}.cls-7{fill:#008e19;}.cls-8{fill:#f99c16;}</style></defs><g id="Layer_137" data-name="Layer 137"><path id="shirt-3" class="cls-1" d="M116,125c0-7.1-.7-5.6-1.3-10.7a129.75,129.75,0,0,0-3.5-18.6c-2.5-10.1-10.8-13.2-18.4-17.2-1.9-1-12.9-4.3-12.9-4.3H79c-1.9-.2-30-1.7-30-1.7C40,76.7,27.4,80,19.5,87c-5.2,4.6-9.4,15.2-9.4,21.8,0,1.8-.4,3.4-.4,5.2,0,2.2-.9,4.4-.9,6.6,0,1.2.2,3.3.2,4.5"/><path class="cls-2" d="M48.9,72.4l-7.4,3.1V94.4c0,5.5,1.2,10,5.6,13.6a26.93,26.93,0,0,0,16.2,6.2,32.19,32.19,0,0,0,14-2.8c2.8-1.3,5.8-3.1,7.4-6,2-3.6,1.1-8.2,1.3-12.1.2-5.7.3-11.3.4-17a30.94,30.94,0,0,0-6.7-2.2C71.1,72,56,71.5,48.9,72.4Z"/><path id="head-3" class="cls-2" d="M48.6,81.3a70.47,70.47,0,0,0,.9-7.9c-.1-1.7,0-7.9,0-7.9A33.5,33.5,0,0,1,46.8,61a41.16,41.16,0,0,0-2.3-5.8c-1.3-2.7-1.1-6.4.6-6.7s3.7,1.1,4.4,2.1,3.1,4.5,3.1,4.5.3-4.8,1-6.4,5.4-8.4,5.9-11a9.09,9.09,0,0,0,.3-3.3s4.6,2.8,7.9.9,7-3.8,7-3.8,1.1,3,2.1,3.5,6.3,1.2,7,3.2a35,35,0,0,1,1,12c-.4,5-1.2,15.5-2.3,18.3a68.48,68.48,0,0,1-3.7,7.1l1.1,4.5"/><path class="cls-3" d="M63.2,114.3s.3-5.5.5-7.4"/><path class="cls-2" d="M62.4,78.5s2.7,4.3,7.2,4.2c4.2-.1,5.2-5.3,5.2-5.3"/><path class="cls-4" d="M62.9,85.6c-1.5-.4-3-.8-4.5-1.3"/><path class="cls-5" d="M63.4,79.7s-3.8-.5-4.9-2.4"/><path class="cls-5" d="M76.2,34.7c2,1.2,4.4,1.3,6.3,2.3,2.4,1.2,2,4.7,2.3,7s-.3,12.8-1.7,21.6A18.41,18.41,0,0,1,81,71.7a18.68,18.68,0,0,1-6.6,6.5"/><path class="cls-5" d="M74.6,31.1V32"/><path class="cls-5" d="M50.1,64.8a.91.91,0,0,0,1.2-.1c.7-.5.9-.1.9-.1"/><g id="earring"><path class="cls-6" d="M47.3,66.2a3.12,3.12,0,0,1-3.1-3.1A3.08,3.08,0,0,1,47.1,60h.3a3.06,3.06,0,0,1,3.1,2.8,3.13,3.13,0,0,1-2.8,3.4h-.4Z"/><path d="M47.3,60.3A2.78,2.78,0,0,1,50.1,63a2.72,2.72,0,0,1-2.5,2.7h-.2a2.76,2.76,0,0,1-.3-5.5l.2.1m-.1-.8H47a3.46,3.46,0,0,0-3.3,3.6,3.61,3.61,0,0,0,3.6,3.4h.3a3.46,3.46,0,0,0,3.3-3.6,3.57,3.57,0,0,0-3.7-3.4Z"/></g><g id="earring-2"><path class="cls-6" d="M46,77.4a2.15,2.15,0,1,1-.1-4.3H46a2.15,2.15,0,0,1,.1,4.3H46Z"/><path d="M46,73.4A1.83,1.83,0,0,1,47.8,75a2,2,0,0,1-.4,1.3,1.43,1.43,0,0,1-1.2.6H46a1.79,1.79,0,0,1-1.8-1.8,1.73,1.73,0,0,1,1.6-1.7H46m0-.7h-.2a2.54,2.54,0,0,0-2.3,2.7A2.51,2.51,0,0,0,46,77.7h.2a2.52,2.52,0,0,0,2-3,2.68,2.68,0,0,0-2.2-2Z"/></g><g id="earring-3"><path class="cls-6" d="M46.2,82a2.15,2.15,0,0,1-.1-4.3h.2a2.15,2.15,0,1,1,.1,4.3Z"/><path d="M46.2,78.1A1.83,1.83,0,0,1,48,79.7a2,2,0,0,1-.4,1.3,1.43,1.43,0,0,1-1.2.6h-.2A1.8,1.8,0,0,1,46,78l.2.1m0-.8H46A2.54,2.54,0,0,0,43.7,80a2.51,2.51,0,0,0,2.5,2.3h.2a2.52,2.52,0,0,0,2-3,2.68,2.68,0,0,0-2.2-2Z"/></g><g id="earring-4"><path class="cls-6" d="M47,86.7a2.15,2.15,0,0,1-.1-4.3h.2a2.16,2.16,0,0,1,2.1,2,2.14,2.14,0,0,1-2,2.3H47Z"/><path d="M47.1,82.8a1.65,1.65,0,0,1,1.7,1.8,1.73,1.73,0,0,1-1.6,1.7H47a1.83,1.83,0,0,1-1.8-1.6,1.71,1.71,0,0,1,1.6-1.9h.3m0-.7h-.2a2.52,2.52,0,0,0-2,3,2.44,2.44,0,0,0,2.2,2h.2a2.52,2.52,0,0,0,2-3A2.44,2.44,0,0,0,47.1,82.1Z"/></g><g id="earring-5"><path class="cls-6" d="M50.1,90.6a2.09,2.09,0,0,1-2.1-2,1.94,1.94,0,0,1,.5-1.6,2.75,2.75,0,0,1,1.5-.8h.2a2.15,2.15,0,1,1,.1,4.3h0Z"/><path d="M50.1,86.7a1.83,1.83,0,0,1,1.8,1.6,2,2,0,0,1-.4,1.3,1.43,1.43,0,0,1-1.2.6h-.2a1.86,1.86,0,0,1-1.7-1.9,1.81,1.81,0,0,1,1.5-1.6h.2m.1-.8H50a2.52,2.52,0,0,0-2,3,2.44,2.44,0,0,0,2.2,2h.2a2.52,2.52,0,0,0,2-3A2.56,2.56,0,0,0,50.2,85.9Z"/></g><path class="cls-5" d="M76.2,40.3s2.9-2.1,4.5,1.7"/><path class="cls-5" d="M65.3,40a3.28,3.28,0,0,0-3.8,1.2"/><path class="cls-7" d="M76.7,55.5a1.1,1.1,0,1,0,2.2.2v-.4a1.16,1.16,0,0,0-1.2-1.2h0A1.22,1.22,0,0,0,76.7,55.5Z"/><path class="cls-7" d="M63.6,55.3a1.16,1.16,0,0,0,1.2,1.2,1.39,1.39,0,0,0,.9-1.7,1.55,1.55,0,0,0-1.2-1A1.31,1.31,0,0,0,63.6,55.3Z"/><path class="cls-5" d="M79.3,59.8s-.1.4-1.4.1a2.79,2.79,0,0,1-1.7-.9"/><path class="cls-5" d="M65.4,58.9s-1.2,1.5-2.3,1.2a4.17,4.17,0,0,1-1.6-.9"/><path class="cls-5" d="M65.7,44.6s-2.3-2.5-3.8.3-2.2,4.2-2.2,4.2"/><path class="cls-5" d="M76.6,45s1.5-1.7,3.3.6a14.4,14.4,0,0,1,2.3,4.2"/><path id="nose-4" class="cls-5" d="M70.3,59.3s1.7,3.1,3.3,4.1c7,4.3-5.5,7-6,3.3"/><path id="hair-10" class="cls-8" d="M44.3,48.7s-2.1-7-2.1-10.1c0-6.7,3.5-13.2,3.5-13.2a12.49,12.49,0,0,1,.4-5.1c.7-2.2,5.4-7.4,10.1-7.9s8.1.2,9.1.7c1.4.8,2.7,1.6,4,2.5A16.78,16.78,0,0,1,77.8,14c4.5.4,8.3,1.4,9.7,3.3s3.1,3.6,3.3,6.7a41.47,41.47,0,0,1-.2,6.1,13.54,13.54,0,0,1,.7,4.9c-.1,2.4-1.9,7.4-2.9,9.6a51.49,51.49,0,0,1-3.7,5.8s-.2-7.9-.2-9.3-1.3-4-3-4.4S76.7,36,76.1,35s-1.6-3.2-1.6-3.2-.8.4-3,1.6-3.1,2.5-4.7,3.1-4-.2-4.8-.3a12,12,0,0,1-2.4-1.5,10.54,10.54,0,0,1-.2,5,35.12,35.12,0,0,1-4.2,7c-1.7,2.3-2.7,8.8-2.7,8.8s-4.3-5.8-5.3-6.4C46.1,48,44.3,48.7,44.3,48.7Z"/><path class="cls-9" d="M66,71.6l-.8-.8c-.3-.4-1.5-2-2.2-1.8s-.7,2.8-.7,3.4a3.14,3.14,0,0,0,.5,2.1,4,4,0,0,0,1.9,1.1,25,25,0,0,0,2.6.7,4.3,4.3,0,0,0,1.6,0,1.41,1.41,0,0,0,1.1-1,1.34,1.34,0,0,0-.6-1.4,6.38,6.38,0,0,0-1.4-.8A9.51,9.51,0,0,1,66,71.6Z"/><g id="glasses-2"><path d="M91.7,49.8a35.08,35.08,0,0,0-7.9-.6c-2.8.2-9.2,2.3-10.3,2.6a20,20,0,0,1-2.4.4,11.43,11.43,0,0,1-3.2-.7c-.6-.2-5.6-2.1-7.3-2.2a64.25,64.25,0,0,0-7.6-.1c-2.4.3-2.8.5-2.7.7l.4,2.4c.2.1.4.1.5.2a1,1,0,0,1,.4.5c.1.2,2.5,6,2.6,6.2a6.38,6.38,0,0,0,.8,1.4,5.71,5.71,0,0,0,2.1,1.3,11.82,11.82,0,0,0,5.9.5,6.33,6.33,0,0,0,3.2-1.5,11.83,11.83,0,0,0,2.2-2.8c.3-.7,1.3-3,1.5-3.3a1.54,1.54,0,0,1,1.3-.5,1.34,1.34,0,0,1,1.3.8,39.5,39.5,0,0,0,1.8,3.8,6.57,6.57,0,0,0,4,3.3,11.12,11.12,0,0,0,6-.1,6.71,6.71,0,0,0,2.3-1,4.18,4.18,0,0,0,1.1-1.5c.3-.6,1.2-3.9,1.3-4.2a16.09,16.09,0,0,1,1.7-2.8,2.51,2.51,0,0,1,.7-.4l.4-2.4C91.7,49.9,91.7,49.9,91.7,49.8Z"/></g><g id="earring-6"><path class="cls-6" d="M53.5,94.3a2.15,2.15,0,1,1-.1-4.3h.2a2.15,2.15,0,1,1,.1,4.3Z"/><path d="M53.5,90.4a1.65,1.65,0,0,1,1.7,1.8,1.73,1.73,0,0,1-1.6,1.7h-.2a1.83,1.83,0,0,1-1.8-1.6,1.71,1.71,0,0,1,1.6-1.9h.3m0-.8h-.2a2.52,2.52,0,0,0-2,3,2.44,2.44,0,0,0,2.2,2h.2a2.51,2.51,0,0,0,2.1-2.9A2.55,2.55,0,0,0,53.5,89.6Z"/></g><g id="earring-7"><path class="cls-6" d="M57.9,96.7a2.15,2.15,0,0,1-.1-4.3H58a2.16,2.16,0,0,1,2.1,2,2.14,2.14,0,0,1-2,2.3h-.2Z"/><path d="M57.9,92.7a1.77,1.77,0,0,1,1.7,1.8A1.73,1.73,0,0,1,58,96.2h-.2A1.83,1.83,0,0,1,56,94.6a1.71,1.71,0,0,1,1.6-1.9h.3m-.1-.7h-.2a2.52,2.52,0,0,0-2,3,2.44,2.44,0,0,0,2.2,2H58a2.52,2.52,0,0,0,2-3A2.27,2.27,0,0,0,57.8,92Z"/></g><g id="earring-8"><path class="cls-6" d="M62.9,96.7a2.15,2.15,0,0,1-.1-4.3H63a2.15,2.15,0,0,1,.1,4.3Z"/><path d="M62.9,92.7a1.83,1.83,0,0,1,1.8,1.6,2,2,0,0,1-.4,1.3,1.43,1.43,0,0,1-1.2.6h-.2a1.8,1.8,0,1,1-.2-3.6h0l.2.1m0-.7h-.2a2.52,2.52,0,0,0-2,3,2.44,2.44,0,0,0,2.2,2h.2a2.52,2.52,0,0,0,2-3A2.44,2.44,0,0,0,62.9,92Z"/></g><g id="earring-9"><path class="cls-6" d="M67.6,96.3a2.14,2.14,0,0,1-2.1-2.2,2.39,2.39,0,0,1,.5-1.4,2.85,2.85,0,0,1,1.4-.8h.2a2.15,2.15,0,0,1,.1,4.3h-.1Z"/><path d="M67.6,92.4A1.83,1.83,0,0,1,69.4,94a1.71,1.71,0,0,1-1.6,1.9h-.2a1.65,1.65,0,0,1-1.7-1.8,1.75,1.75,0,0,1,1.7-1.7h0m0-.8h-.2a2.52,2.52,0,0,0-2,3,2.44,2.44,0,0,0,2.2,2h.2a2.52,2.52,0,0,0,2-3A2.56,2.56,0,0,0,67.6,91.6Z"/></g><g id="earring-10"><path class="cls-6" d="M72.3,94.5a2.15,2.15,0,1,1-.1-4.3h.2a2.15,2.15,0,1,1,.1,4.3h-.2Z"/><path d="M72.3,90.6a1.83,1.83,0,0,1,1.8,1.6,1.71,1.71,0,0,1-1.6,1.9h-.2a1.83,1.83,0,0,1-1.8-1.6,1.71,1.71,0,0,1,1.6-1.9h.2m0-.8h-.2a2.52,2.52,0,0,0-2,3,2.44,2.44,0,0,0,2.2,2h.2a2.54,2.54,0,0,0,2.3-2.7,2.51,2.51,0,0,0-2.5-2.3Z"/></g><g id="earring-11"><path class="cls-6" d="M76.2,91.8A2.07,2.07,0,0,1,74,89.7a2.14,2.14,0,0,1,2.1-2.2h.2a2.07,2.07,0,0,1,2.2,2.1,2.14,2.14,0,0,1-2.1,2.2h-.2Z"/><path d="M76.2,87.9A1.79,1.79,0,0,1,78,89.7a1.73,1.73,0,0,1-1.6,1.7h-.2a1.83,1.83,0,0,1-1.8-1.6A1.71,1.71,0,0,1,76,87.9h.2m0-.8H76A2.51,2.51,0,0,0,73.9,90a2.55,2.55,0,0,0,2.3,2.1h.2a2.51,2.51,0,0,0,2.1-2.9,2.55,2.55,0,0,0-2.3-2.1Z"/></g><g id="earring-12"><path class="cls-6" d="M78.9,87.8a2.09,2.09,0,0,1-2.1-2,1.94,1.94,0,0,1,.5-1.6,2.75,2.75,0,0,1,1.5-.8H79a2.07,2.07,0,0,1,2.2,2.1,2.14,2.14,0,0,1-2.1,2.2Z"/><path d="M78.9,83.8a1.83,1.83,0,0,1,1.8,1.6,1.71,1.71,0,0,1-1.6,1.9h-.2a1.79,1.79,0,0,1-1.8-1.8,1.73,1.73,0,0,1,1.6-1.7h.2m0-.7h-.2a2.54,2.54,0,0,0-2.3,2.7,2.51,2.51,0,0,0,2.5,2.3h.2a2.52,2.52,0,0,0,2-3,2.56,2.56,0,0,0-2.2-2Z"/></g><g id="earring-13"><path class="cls-6" d="M80.8,83.2a2.09,2.09,0,0,1-2.1-2,1.94,1.94,0,0,1,.5-1.6,2.75,2.75,0,0,1,1.5-.8h.2a2.07,2.07,0,0,1,2.2,2.1A2.14,2.14,0,0,1,81,83.1Z"/><path d="M80.8,79.3a1.83,1.83,0,0,1,1.8,1.6A1.71,1.71,0,0,1,81,82.8h-.2A1.79,1.79,0,0,1,79,81a1.73,1.73,0,0,1,1.6-1.7h.2m0-.8h-.2a2.52,2.52,0,0,0-2,3,2.44,2.44,0,0,0,2.2,2H81a2.52,2.52,0,0,0,2-3,2.56,2.56,0,0,0-2.2-2Z"/></g><g id="earring-14"><path class="cls-6" d="M82.3,78.6a2.15,2.15,0,1,1-.1-4.3h.2a2.16,2.16,0,0,1,2.1,2,2.14,2.14,0,0,1-2,2.3h-.2Z"/><path d="M82.4,74.6a1.65,1.65,0,0,1,1.7,1.8,1.73,1.73,0,0,1-1.6,1.7h-.2a1.65,1.65,0,0,1-1.7-1.8,1.73,1.73,0,0,1,1.6-1.7h.2m0-.7h-.2a2.54,2.54,0,0,0-2.3,2.7,2.51,2.51,0,0,0,2.5,2.3h.2a2.52,2.52,0,0,0,2-3,2.56,2.56,0,0,0-2.2-2Z"/></g></g></svg>