<?xml version="1.0" encoding="utf-8"?>
<!-- Generator: Adobe Illustrator 16.0.4, SVG Export Plug-In . SVG Version: 6.00 Build 0)  -->
<!DOCTYPE svg PUBLIC "-//W3C//DTD SVG 1.1//EN" "http://www.w3.org/Graphics/SVG/1.1/DTD/svg11.dtd">
<svg version="1.1" id="Layer_1" xmlns="http://www.w3.org/2000/svg" xmlns:xlink="http://www.w3.org/1999/xlink" x="0px" y="0px"
	 width="170px" height="170px" viewBox="0 0 170 170" enable-background="new 0 0 170 170" xml:space="preserve">
<title>Artboard 9</title>
<g>
	<g>
		<path fill="#C37F9A" d="M98.391,96.764l4.685-3.502c0.489-0.365,0.715-1.013,0.558-1.594l-2.527-9.309
			c-0.147-0.539-0.717-0.783-1.209-0.521l-8.492,4.574c-0.529,0.286-0.844,0.896-0.772,1.502l0.687,5.813
			C93.73,94.562,96.098,95.594,98.391,96.764z"/>
		<path fill="#C37F9A" d="M110.658,104.629l5.23-2.259c0.522-0.228,0.87-0.767,0.853-1.329l-0.279-9.012
			c-0.017-0.521-0.481-0.867-0.985-0.734l-8.713,2.316c-0.546,0.146-0.963,0.633-1.029,1.199l-0.676,5.762
			C105.059,100.572,109.328,103.633,110.658,104.629z"/>
		<path fill="#C37F9A" d="M77.067,91.461c2.516-0.111,5.037,0.079,7.538,0.518l3.374-4.89c0.348-0.503,0.355-1.188,0.02-1.688
			l-5.368-8.016c-0.31-0.463-0.929-0.513-1.309-0.105l-6.588,7.046c-0.412,0.439-0.515,1.117-0.253,1.67L77.067,91.461z"/>
		<path fill="#C37F9A" d="M134.578,122.174l3.736-2.146c0.399-0.229,0.633-0.694,0.565-1.146l-1.055-7.219
			c-0.06-0.416-0.468-0.654-0.86-0.5l-6.785,2.661c-0.426,0.166-0.726,0.596-0.727,1.058v4.263
			C131.102,120.27,132.802,121.309,134.578,122.174z"/>
		<path fill="#C37F9A" d="M122.566,114l4.651-2.01c0.458-0.197,0.761-0.67,0.745-1.162l-0.245-7.889
			c-0.015-0.455-0.422-0.76-0.862-0.643l-7.625,2.028c-0.478,0.127-0.842,0.553-0.9,1.049l-0.562,4.801
			C119.361,111.456,120.96,112.734,122.566,114z"/>
		<path fill="#C37F9A" d="M65.143,94.079l6.315-2.085l1.141-5.503c0.112-0.542-0.123-1.116-0.58-1.417l-7.302-4.795
			c-0.422-0.277-0.956-0.103-1.13,0.373l-3.015,8.199c-0.188,0.512-0.035,1.114,0.377,1.481L65.143,94.079z"/>
		<path fill="#C37F9A" d="M29.715,115.175l3.652,1.952c1.564-0.929,3.089-1.938,4.583-3.005l-0.134-3.987
			c-0.014-0.431-0.297-0.82-0.698-0.965l-6.398-2.287c-0.37-0.132-0.741,0.1-0.786,0.488l-0.776,6.751
			C29.11,114.544,29.336,114.971,29.715,115.175z"/>
		<path fill="#C37F9A" d="M39.287,108.344l4.311,1.439c1.774-1.438,3.529-2.906,5.288-4.356l-0.97-4.733
			c-0.104-0.508-0.521-0.918-1.027-1.006l-8.088-1.426c-0.467-0.082-0.863,0.268-0.837,0.74l0.446,8.201
			C38.438,107.717,38.793,108.18,39.287,108.344z"/>
		<path fill="#C37F9A" d="M49.328,98.677l5.1,2.337c1.395-1.055,2.807-2.064,4.249-3.009l1.182-0.841l-0.533-5.596
			c-0.053-0.549-0.447-1.029-0.971-1.183l-8.392-2.429c-0.485-0.141-0.943,0.186-0.97,0.688l-0.462,8.726
			C48.501,97.916,48.825,98.447,49.328,98.677z"/>
	</g>
	<g opacity="0.29">
		<path fill="#FFFFFF" d="M58.354,90.387l-8.392-2.429c-0.485-0.142-0.943,0.187-0.97,0.688l-0.462,8.725
			c-0.007,0.143,0.011,0.283,0.048,0.418l0.414-7.809c0.026-0.504,0.484-0.83,0.97-0.689l8.392,2.43
			c0.524,0.151,0.918,0.633,0.971,1.182l0.413,4.349l0.12-0.086l-0.533-5.597C59.272,91.02,58.878,90.539,58.354,90.387z"/>
		<path fill="#FFFFFF" d="M37.118,109.17l-6.398-2.287c-0.37-0.132-0.741,0.1-0.786,0.488l-0.776,6.751
			c-0.021,0.187,0.018,0.367,0.092,0.535l0.684-5.952c0.045-0.391,0.417-0.621,0.786-0.488l6.398,2.287
			c0.4,0.143,0.683,0.533,0.697,0.964l0.102,3.063l0.044-0.028l-0.146-4.368C37.802,109.704,37.518,109.312,37.118,109.17z"/>
		<path fill="#FFFFFF" d="M46.889,99.688l-8.088-1.426c-0.467-0.082-0.863,0.268-0.837,0.74l0.055,1.008
			c0.122-0.295,0.432-0.477,0.782-0.415l8.088,1.427c0.505,0.088,0.922,0.496,1.027,1.006l0.83,4.05l0.231-0.206l-1.061-5.178
			C47.811,100.186,47.394,99.775,46.889,99.688z"/>
		<path fill="#FFFFFF" d="M138.881,118.881c0.021,0.219-0.009,0.447-0.105,0.645l-0.948-6.521c-0.056-0.427-0.47-0.654-0.862-0.502
			l-6.781,2.66c-0.427,0.164-0.718,0.59-0.729,1.058v-1.338c0.011-0.458,0.299-0.884,0.727-1.058l6.785-2.661
			c0.395-0.153,0.807,0.086,0.86,0.5L138.881,118.881z"/>
		<path fill="#FFFFFF" d="M115.477,91.295l-8.713,2.316c-0.546,0.146-0.963,0.633-1.029,1.199l-0.676,5.762
			c0,0,0.129,0.096,0.145,0.107l0.531-4.535c0.066-0.566,0.483-1.055,1.029-1.199l8.713-2.316c0.504-0.134,0.969,0.213,0.985,0.732
			l0.247,7.943c0.016-0.089,0.036-0.175,0.032-0.265l-0.279-9.013C116.445,91.508,115.98,91.162,115.477,91.295z"/>
		<path fill="#FFFFFF" d="M126.855,102.298l-7.625,2.028c-0.478,0.127-0.842,0.553-0.9,1.049l-0.592,5.042
			c0,0,0.128,0.097,0.144,0.106l0.448-3.814c0.059-0.497,0.424-0.922,0.9-1.049l7.625-2.027c0.44-0.117,0.849,0.186,0.862,0.641
			l0.212,6.817c0.018-0.086,0.035-0.173,0.033-0.263l-0.245-7.889C127.704,102.484,127.297,102.182,126.855,102.298z"/>
		<path fill="#FFFFFF" d="M72.02,85.074l-7.302-4.795c-0.422-0.277-0.956-0.103-1.13,0.373l-3.015,8.199
			c-0.132,0.358-0.088,0.76,0.088,1.096l2.927-7.963c0.174-0.474,0.708-0.648,1.13-0.373l7.302,4.797
			c0.214,0.141,0.374,0.346,0.478,0.574l0.102-0.491C72.712,85.949,72.477,85.375,72.02,85.074z"/>
		<path fill="#FFFFFF" d="M101.104,82.359c-0.146-0.539-0.717-0.783-1.207-0.521l-8.492,4.574c-0.53,0.286-0.846,0.896-0.773,1.502
			l0.082,0.692c0.118-0.359,0.354-0.68,0.691-0.86l8.492-4.574c0.49-0.264,1.061-0.021,1.207,0.519l2.436,8.966
			c0.137-0.31,0.184-0.657,0.094-0.989L101.104,82.359z"/>
		<path fill="#FFFFFF" d="M82.629,77.385c-0.31-0.463-0.929-0.513-1.309-0.104l-6.588,7.046c-0.412,0.439-0.515,1.117-0.253,1.67
			l0.01,0.021c0.062-0.129,0.143-0.252,0.243-0.356l6.588-7.047c0.38-0.406,0.999-0.357,1.309,0.104l5.368,8.016
			c0.034,0.05,0.049,0.107,0.073,0.16c0.234-0.476,0.223-1.054-0.073-1.494L82.629,77.385z"/>
	</g>
	<path fill="#F9ED32" d="M157.721,119.068c-4.396,3.791-10.299,6.005-16.063,5.314c-5.509-0.658-10.382-3.799-14.834-7.107
		c-8.269-6.146-15.894-13.209-24.744-18.478c-8.935-5.317-19.382-8.782-29.435-6.831c-17.328,3.362-28.286,20.854-44.492,27.848
		c-4.449,1.92-9.223,3.006-13.675,4.918c-4.452,1.914-8.741,4.871-10.761,9.275c7.83,5.18,22.563,3.04,33.75,4.783
		c4.919,0.766,9.824,1.589,14.729,2.393c1.896,5.015,2.53,10.51,1.747,15.815h9.675c2.863-4.187,4.901-8.247,6.025-13.179
		c6.763,0.889,13.551,1.568,20.394,1.834c3.118,0.119,6.257,0.188,9.396,0.177c1.055,3.655,1.484,7.646-0.056,11.096h12.329
		c2.469-3.962,4.294-8.014,5.99-12.345c6.727-0.991,13.306-2.664,19.559-5.367c14.706-6.357,27.521-18.843,29.572-34.732
		C165.092,110.023,162.116,115.275,157.721,119.068z"/>
	<g>
		<path fill="#8C6072" d="M107.768,102.525c0.203-0.564,1.518-4.141,1.789-4.967l-0.732-0.24c-0.268,0.813-0.705,2.006-1.129,3.158
			c-0.198,0.539-0.398,1.082-0.584,1.597C107.329,102.225,107.549,102.373,107.768,102.525z"/>
		<path fill="#8C6072" d="M94.359,94.896c0.088-0.668,0.49-3.987,0.584-4.621l-0.764-0.113c-0.094,0.64-0.479,3.818-0.56,4.43
			C93.867,94.689,94.113,94.795,94.359,94.896z"/>
		<path fill="#8C6072" d="M96.234,95.721c0.388-0.531,0.763-1.074,1.104-1.586c0.421-0.633,0.818-1.229,1.141-1.613l-0.59-0.496
			c-0.349,0.416-0.74,1.002-1.193,1.684c-0.36,0.544-0.758,1.134-1.17,1.689C95.764,95.503,95.998,95.611,96.234,95.721z"/>
		<path fill="#8C6072" d="M82.11,91.615c0.089-0.447,0.833-4.176,1.006-5.094l-0.758-0.144c-0.172,0.916-0.927,4.699-1.021,5.175
			C81.594,91.574,81.853,91.588,82.11,91.615z"/>
		<path fill="#8C6072" d="M119.825,111.826c0.12-0.381,0.247-0.771,0.375-1.164c0.372-1.143,0.757-2.325,0.92-3.053l-0.75-0.168
			c-0.156,0.69-0.537,1.854-0.903,2.981c-0.096,0.295-0.193,0.593-0.287,0.886C119.395,111.48,119.609,111.652,119.825,111.826z"/>
		<path fill="#8C6072" d="M132.497,121.07c0.231,0.135,0.465,0.264,0.698,0.393c0.352-0.354,2.527-2.564,3.01-3.029l-0.534-0.556
			c-0.485,0.468-1.194,1.188-1.905,1.911C133.32,120.24,132.887,120.682,132.497,121.07z"/>
		<path fill="#8C6072" d="M120.904,112.689c0.269-0.183,2.793-1.888,3.346-2.265l-0.436-0.637c-0.553,0.377-3.211,2.174-3.541,2.396
			C120.484,112.354,120.695,112.521,120.904,112.689z"/>
		<path fill="#8C6072" d="M132.188,120.898c0.405-1.416,0.785-3.351,0.967-4.498l-0.762-0.119c-0.181,1.142-0.529,2.89-0.889,4.199
			C131.73,120.621,131.958,120.764,132.188,120.898z"/>
		<path fill="#8C6072" d="M108.051,102.723c0.235,0.168,0.475,0.332,0.709,0.502c0.323-0.164,0.653-0.332,0.988-0.5
			c1.12-0.561,2.277-1.141,2.891-1.551l-0.431-0.64c-0.571,0.384-1.706,0.952-2.806,1.501
			C108.927,102.275,108.471,102.506,108.051,102.723z"/>
		<path fill="#8C6072" d="M46.418,107.469c0.202-0.166,0.403-0.334,0.604-0.5c-0.374-0.628-0.808-1.271-1.235-1.904
			c-0.651-0.967-1.267-1.879-1.617-2.649l-0.702,0.317c0.377,0.83,1.01,1.771,1.68,2.763
			C45.595,106.155,46.042,106.826,46.418,107.469z"/>
		<path fill="#8C6072" d="M35.775,115.617c0.223-0.147,0.444-0.297,0.666-0.446c-0.139-0.43-0.292-0.882-0.447-1.33
			c-0.347-1.01-0.707-2.054-0.833-2.72l-0.757,0.145c0.137,0.719,0.504,1.789,0.861,2.825
			C35.443,114.609,35.624,115.136,35.775,115.617z"/>
		<path fill="#8C6072" d="M45.312,108.381l-4.095-2.541l-0.406,0.655l3.873,2.403C44.893,108.729,45.102,108.555,45.312,108.381z"/>
		<path fill="#8C6072" d="M34.908,116.18c0.239-0.152,0.478-0.305,0.715-0.461c-0.445-0.281-0.934-0.588-1.417-0.89
			c-0.925-0.576-1.882-1.173-2.459-1.574l-0.44,0.634c0.593,0.412,1.559,1.014,2.492,1.596
			C34.173,115.718,34.549,115.953,34.908,116.18z"/>
		<path fill="#8C6072" d="M79.208,91.439c0.261,0.006,0.521,0.006,0.782,0.02c-0.09-0.589-0.179-1.223-0.267-1.846
			c-0.176-1.242-0.357-2.526-0.537-3.426l-0.756,0.148c0.175,0.879,0.356,2.152,0.529,3.384
			C79.042,90.301,79.125,90.885,79.208,91.439z"/>
		<path fill="#8C6072" d="M69.2,92.846c-0.141-1.426-0.395-3.19-0.621-4.563l-0.761,0.124c0.234,1.42,0.499,3.263,0.633,4.688
			C68.7,93.008,68.949,92.924,69.2,92.846z"/>
		<path fill="#8C6072" d="M67.208,93.542c0.274-0.104,0.548-0.213,0.826-0.312c-0.403-0.34-3.08-2.621-3.707-3.125l-0.482,0.602
			c0.622,0.5,1.521,1.266,2.419,2.031C66.583,93.012,66.899,93.28,67.208,93.542z"/>
		<path fill="#8C6072" d="M55.647,100.105c0.22-0.16,0.439-0.32,0.661-0.479c-0.441-0.308-0.915-0.642-1.384-0.974
			c-1.031-0.729-2.096-1.483-2.773-1.902l-0.405,0.656c0.657,0.404,1.712,1.152,2.733,1.876
			C54.874,99.562,55.268,99.84,55.647,100.105z"/>
		<path fill="#8C6072" d="M56.649,99.382c0.221-0.157,0.445-0.31,0.668-0.464c-0.173-0.593-0.361-1.214-0.546-1.827
			c-0.335-1.104-0.65-2.147-0.814-2.813l-0.748,0.185c0.168,0.687,0.487,1.74,0.824,2.854
			C56.245,98.012,56.458,98.719,56.649,99.382z"/>
	</g>
	<path fill="#E5C759" d="M99.432,145.832c-3.139,0.012-6.275-0.057-9.396-0.178c-1.063-0.041-2.122-0.109-3.183-0.17
		c-0.744,3.377-1.917,6.724-2.896,9.551H92.6c2.946-2.938,5.159-5.422,6.85-9.143C99.441,145.872,99.438,145.854,99.432,145.832z"/>
	<path fill="#E5C759" d="M52.195,141.184c-2.117-0.347-4.234-0.695-6.352-1.043c-0.862,5.273-3.473,11.034-5.132,14.748h8.584
		c1.866-1.484,3.47-2.849,4.899-4.398C53.991,147.312,53.321,144.162,52.195,141.184z"/>
	<g opacity="0.21">
		<path fill="#FFFFFF" d="M13.321,126.917c4.728-1.709,9.986-2.351,14.831-4.44c16.206-6.992,27.164-24.485,44.492-27.848
			c10.053-1.951,20.5,1.514,29.435,6.83c8.853,5.27,16.478,12.333,24.744,18.479c4.452,3.309,9.325,6.448,14.834,7.106
			c5.766,0.688,11.668-1.522,16.063-5.315c3.234-2.791,5.694-6.375,7.463-10.28c0.771-2.237,1.332-4.562,1.644-6.964
			c-1.734,5.539-4.71,10.791-9.106,14.584c-4.396,3.791-10.298,6.006-16.062,5.315c-5.51-0.657-10.381-3.799-14.834-7.108
			c-8.268-6.145-15.893-13.209-24.744-18.477c-8.934-5.316-19.382-8.781-29.435-6.831c-17.328,3.362-28.286,20.854-44.492,27.849
			c-4.449,1.92-9.223,3.004-13.675,4.918c-4.452,1.912-8.741,4.871-10.761,9.274c0.361,0.239-0.391-0.209,0,0
			C6.302,130.216,9.651,128.245,13.321,126.917z"/>
	</g>
	<path fill="#006838" d="M3.716,134.009c0.024,0.005-0.013,0.056-0.056-0.065c0.219,0.029,0.537,0.14,0.91,0.146
		c0.368,0.035,0.781,0.089,1.247,0.074c0.456,0.044,0.943-0.037,1.428-0.039c0.24-0.038,0.479-0.078,0.717-0.103
		c0.241-0.012,0.465-0.084,0.69-0.119c0.454-0.069,0.862-0.188,1.224-0.277c0.37-0.07,0.654-0.195,0.874-0.253
		c0.213-0.067,0.347-0.095,0.347-0.095s-0.087,0.096-0.263,0.24c-0.181,0.131-0.411,0.397-0.768,0.562
		c-0.17,0.1-0.365,0.188-0.567,0.294c-0.204,0.104-0.438,0.151-0.672,0.233c-0.469,0.17-0.999,0.216-1.521,0.281
		c-0.528,0.004-1.056,0.023-1.544-0.07c-0.487-0.059-0.939-0.197-1.312-0.334c-0.382-0.113-0.565-0.327-0.771-0.422
		C3.486,133.945,3.716,134.009,3.716,134.009z"/>
	<path fill="#006838" d="M13.485,128.131c0,0-0.002,0.128-0.024,0.346c-0.026,0.113-0.009,0.238,0.022,0.362
		c0.015,0.126,0.048,0.261,0.114,0.419c0.04,0.156,0.133,0.307,0.223,0.465c0.077,0.164,0.235,0.289,0.345,0.442
		c0.152,0.117,0.291,0.259,0.469,0.332c0.133,0.118,0.412,0.131,0.475,0.187c0.237-0.002,0.531,0.026,0.651-0.043
		c0.154-0.018,0.344-0.117,0.521-0.192c0.149-0.119,0.338-0.201,0.458-0.343c0.131-0.131,0.264-0.256,0.346-0.4
		c0.105-0.137,0.179-0.271,0.229-0.404c0.064-0.129,0.112-0.248,0.116-0.352c0.036-0.206,0.067-0.338,0.067-0.338
		s0.04,0.113,0.091,0.341c0.036,0.112,0.038,0.251,0.024,0.414c0.002,0.167-0.019,0.354-0.101,0.544
		c-0.051,0.205-0.161,0.398-0.299,0.597c-0.121,0.21-0.322,0.375-0.518,0.556c-0.232,0.137-0.441,0.316-0.772,0.385
		c-0.34,0.113-0.549,0.08-0.803,0.1c-0.408-0.084-0.633-0.133-0.901-0.306c-0.274-0.124-0.452-0.353-0.647-0.54
		c-0.152-0.221-0.313-0.43-0.385-0.664c-0.091-0.227-0.156-0.444-0.161-0.659c-0.038-0.201-0.018-0.403,0.023-0.581
		c0.026-0.178,0.062-0.312,0.119-0.402c0.097-0.196,0.164-0.307,0.164-0.307c0.023-0.039,0.074-0.051,0.114-0.027
		C13.471,128.074,13.485,128.102,13.485,128.131z"/>
	<path fill="#D4D665" d="M142.332,131.128c-4.582,1.022-12.898,0.774-22.456,0.213c0.396,4.154-2.056,12.925-2.181,13.242
		c6.787-0.987,13.248-2.642,19.559-5.367c7.729-3.341,14.355-7.718,19.752-14.047C153.084,128.102,147.146,130.053,142.332,131.128z
		"/>
	<path fill="#C37F9A" d="M158.191,120.291c-0.478,0.47-1.791,1.568-1.939,1.574c-1.473-2.396-2.286-5.192-2.326-8.004
		C155.607,115.836,157.257,117.872,158.191,120.291z"/>
	<path fill="#C37F9A" d="M161.089,117.169c-0.76-2.272-2.138-4.567-3.753-6.34c0.211,2.749,1.197,5.435,2.814,7.667
		C160.613,118.189,160.893,117.688,161.089,117.169z"/>
	<path fill="#C37F9A" d="M163.173,113.248c-0.761-2.273-2.139-4.568-3.754-6.341c0.211,2.749,1.197,5.435,2.813,7.668
		C162.698,114.271,162.977,113.768,163.173,113.248z"/>
	<ellipse fill="#D4D665" cx="78.358" cy="95.725" rx="4.022" ry="1.254"/>
	<ellipse fill="#D4D665" cx="89.502" cy="96.848" rx="2.078" ry="1.121"/>
	<ellipse fill="#D4D665" cx="67.788" cy="97.786" rx="1.929" ry="0.938"/>
	<ellipse fill="#D4D665" cx="74.515" cy="99.616" rx="1.336" ry="0.89"/>
	<ellipse fill="#D4D665" cx="83.27" cy="99.616" rx="1.583" ry="0.89"/>
	<ellipse fill="#D4D665" cx="90.641" cy="102.814" rx="3.215" ry="1.318"/>
	<ellipse fill="#D4D665" cx="95.34" cy="99.171" rx="1.484" ry="0.445"/>
	<ellipse fill="#D4D665" cx="62.347" cy="101.389" rx="2.918" ry="0.884"/>
	<ellipse fill="#D4D665" cx="69.701" cy="101.832" rx="0.775" ry="0.439"/>
	<ellipse fill="#D4D665" cx="99.396" cy="101.424" rx="0.791" ry="0.408"/>
	<ellipse fill="#D4D665" cx="103.749" cy="103.146" rx="0.594" ry="0.329"/>
	<ellipse fill="#D4D665" cx="55.03" cy="103.804" rx="0.837" ry="0.329"/>
	<path fill="#C37F9A" d="M111.705,156.928c0.043-0.806-0.055-2.205-0.415-2.945c-0.36-0.741-1.245-1.354-2.153-1.211
		c-0.828,0.129-1.404,0.847-1.541,1.574c-0.136,0.727-0.146,0.549,0.062,1.264c-0.009-0.764-0.017-0.791-0.384-1.483
		c-0.369-0.692-1.188-1.263-2.057-1.163c-0.85,0.1-1.469,0.812-1.634,1.547c-0.166,0.735-0.324,0.147-0.138,0.879
		c0.088-0.896,0.25-0.384-0.248-1.172c-0.496-0.787-1.801-1.246-2.59-0.67c-0.912,0.669-0.48,2.572-1.231,3.383
		C99.376,156.928,108.693,157.025,111.705,156.928z"/>
	<path fill="#C37F9A" d="M92.023,153.079c-0.217-0.496-0.78-0.922-1.381-0.854c-0.549,0.063-0.943,0.52-1.055,0.991
		c-0.021,0.097-0.037,0.154-0.05,0.212c-0.032-0.095-0.076-0.197-0.156-0.363c-0.223-0.465-0.747-0.861-1.317-0.818
		c-0.562,0.041-0.986,0.49-1.115,0.97c-0.016,0.058-0.03,0.099-0.043,0.134c-0.02-0.048-0.075-0.117-0.202-0.336
		c-0.306-0.529-1.147-0.867-1.681-0.512c-0.619,0.415-0.742,1.893-1.066,2.533c0,0,6.279-0.026,8.26-0.01
		C92.266,154.498,92.241,153.576,92.023,153.079z"/>
	<path fill="#C37F9A" d="M63.548,154.74c-0.296-0.672-1.021-1.227-1.766-1.098c-0.68,0.117-1.152,0.769-1.263,1.426
		c-0.021,0.119-0.036,0.207-0.049,0.283c-0.046-0.125-0.113-0.268-0.216-0.481c-0.302-0.628-0.976-1.144-1.687-1.054
		c-0.697,0.091-1.204,0.734-1.34,1.398c-0.019,0.094-0.034,0.172-0.047,0.242c-0.06-0.137-0.144-0.289-0.268-0.506
		c-0.408-0.713-1.477-1.129-2.124-0.605c-0.75,0.604-0.383,1.922-0.999,2.653h9.829C63.652,156.271,63.844,155.41,63.548,154.74z"/>
	<path fill="#C37F9A" d="M49.405,152.997c-0.195-0.588-0.774-1.12-1.434-1.085c-0.603,0.031-1.074,0.527-1.232,1.064
		c-0.03,0.103-0.053,0.176-0.071,0.238c-0.027-0.109-0.068-0.234-0.141-0.432c-0.204-0.551-0.742-1.047-1.368-1.039
		c-0.615,0.006-1.116,0.494-1.296,1.033c-0.029,0.088-0.045,0.145-0.065,0.207c-0.039-0.121-0.093-0.256-0.184-0.457
		c-0.289-0.633-0.917-1.012-1.529-0.639c-0.708,0.43-0.77,2.449-1.374,2.998h8.543C49.353,154.286,49.6,153.585,49.405,152.997z"/>
	<g>
		<path fill="#D4D665" d="M48.912,134.382c-0.168-0.25-0.316-0.513-0.453-0.782c-5.821,1.354-12.703,2.883-23.702,4.305
			c4.373,0.142,8.76,0.272,12.709,0.889c4.973,0.773,9.934,1.607,14.892,2.419C51.49,138.807,50.34,136.503,48.912,134.382z"/>
		<path fill="#D4D665" d="M95.493,133.045c-0.181-1.044-0.265-2.124-0.243-3.199c-2.393-0.106-4.741-0.188-7.006-0.229
			c-7.886-0.137-13.856,0.018-18.76,0.384c0.084,0.257,0.18,0.511,0.252,0.771c1.121,4.051,0.858,8.381-0.059,12.482
			c-0.042,0.188-0.095,0.367-0.14,0.555c6.798,0.895,13.62,1.58,20.498,1.846c3.158,0.121,6.335,0.189,9.515,0.176
			c-0.112-0.41-0.229-0.816-0.358-1.219C97.975,140.746,96.18,137.04,95.493,133.045z"/>
	</g>
	<path fill="#FBD75C" d="M157.006,125.169c-5.396,6.329-12.023,10.706-19.752,14.047c-6.311,2.728-12.771,4.38-19.559,5.367
		c0.121-0.31,2.576-9.088,2.181-13.242c9.558,0.562,17.874,0.81,22.456-0.213C147.146,130.053,153.084,128.102,157.006,125.169z
		 M48.912,134.382c-0.168-0.25-0.316-0.513-0.453-0.782c-5.821,1.354-12.703,2.883-23.702,4.305
		c4.373,0.142,8.76,0.272,12.709,0.889c4.973,0.773,9.934,1.607,14.892,2.419C51.49,138.807,50.34,136.503,48.912,134.382z
		 M95.493,133.045c-0.181-1.044-0.265-2.124-0.243-3.199c-2.393-0.106-4.741-0.188-7.006-0.229
		c-7.886-0.137-13.856,0.018-18.76,0.384c0.084,0.257,0.18,0.511,0.252,0.771c1.121,4.051,0.858,8.381-0.059,12.482
		c-0.042,0.188-0.095,0.367-0.14,0.555c6.798,0.895,13.62,1.58,20.498,1.846c3.158,0.121,6.335,0.189,9.515,0.176
		c-0.112-0.41-0.229-0.816-0.358-1.219C97.975,140.746,96.18,137.04,95.493,133.045z"/>
	<g>
		<path fill="#FBB040" d="M40.596,135.325c-0.223,0.045-0.448,0.09-0.675,0.134l-0.419,0.113c0.317,1.181,0.508,2.402,0.572,3.632
			c0.375,0.062,0.751,0.12,1.126,0.18C41.146,138.014,40.946,136.645,40.596,135.325z"/>
		<path fill="#FBB040" d="M74.625,144.434c0.576-4.902,0.137-9.908-1.324-14.662c-0.391,0.019-0.776,0.037-1.154,0.059
			c1.482,4.688,1.934,9.635,1.364,14.479C73.882,144.352,74.254,144.391,74.625,144.434z"/>
		<path fill="#FBB040" d="M44.32,139.891c0.062-1.759-0.122-3.531-0.548-5.23c-0.36,0.079-0.726,0.156-1.097,0.234
			c0.396,1.563,0.573,3.193,0.528,4.814C43.575,139.77,43.948,139.829,44.32,139.891z"/>
		<path fill="#FBB040" d="M38.519,138.889c-0.029-1.039-0.164-2.074-0.394-3.082c-0.363,0.068-0.732,0.139-1.107,0.205
			c0,0,0.316,2.371,0.359,2.769c0.029,0.005,0.06,0.009,0.089,0.013c0.353,0.057,0.705,0.111,1.058,0.167
			C38.521,138.936,38.521,138.913,38.519,138.889z"/>
		<path fill="#FBB040" d="M94.02,145.773c0.377,0.01,0.756,0.018,1.135,0.023c0.834-5.326,0.457-10.816-1.133-16.006
			c-0.396-0.018-0.791-0.03-1.186-0.046C94.488,134.932,94.879,140.439,94.02,145.773z"/>
		<path fill="#FBB040" d="M149.848,128.902c-0.351,0.134-0.701,0.262-1.056,0.385c0.377,0.915,0.658,1.861,0.851,2.827
			c0.328-0.251,0.654-0.503,0.979-0.763C150.425,130.52,150.172,129.699,149.848,128.902z"/>
		<path fill="#FBB040" d="M135.13,140.076c0.433-0.169,0.862-0.346,1.292-0.523c0.544-2.56,0.521-5.227-0.033-7.785
			c-0.373,0.017-0.75,0.027-1.139,0.037C135.877,134.523,135.833,137.378,135.13,140.076z"/>
		<path fill="#FBB040" d="M48.305,140.545c0.193-2.277,0.107-4.604-0.244-6.854c-0.36,0.084-0.726,0.168-1.095,0.254
			c0.322,2.106,0.402,4.283,0.229,6.416C47.564,140.423,47.935,140.482,48.305,140.545z"/>
		<path fill="#FBB040" d="M140.309,137.809c0.409-0.201,0.817-0.402,1.221-0.61c0.193-1.954,0.029-3.94-0.459-5.839
			c-0.355,0.056-0.729,0.104-1.117,0.149C140.498,133.555,140.617,135.712,140.309,137.809z"/>
		<path fill="#FBB040" d="M79.736,144.965c0.68-5.128,0.249-10.383-1.306-15.357c-0.395,0.008-0.782,0.017-1.165,0.024
			c1.589,4.921,2.034,10.138,1.354,15.224C78.991,144.893,79.363,144.93,79.736,144.965z"/>
		<path fill="#FBB040" d="M132.329,141.105c0.79-3.037,0.729-6.278-0.198-9.282c-0.393-0.003-0.783-0.007-1.188-0.015
			c1.051,3.135,1.082,6.573,0.099,9.725C131.473,141.395,131.9,141.251,132.329,141.105z"/>
		<path fill="#FBB040" d="M144.486,135.562c0.4-0.234,0.798-0.475,1.188-0.719c0.063-1.484-0.13-2.979-0.601-4.398
			c-0.366,0.101-0.729,0.195-1.09,0.285C144.502,132.271,144.664,133.939,144.486,135.562z"/>
		<path fill="#FBB040" d="M127.605,142.543c0.818-3.568,0.664-7.359-0.467-10.841c-0.397-0.017-0.797-0.03-1.201-0.048
			c1.256,3.582,1.405,7.545,0.438,11.216C126.788,142.768,127.195,142.652,127.605,142.543z"/>
		<path fill="#FBB040" d="M83.741,145.297c0.373,0.028,0.747,0.051,1.121,0.075c0.76-5.271,0.34-10.687-1.265-15.804
			c-0.396,0-0.787,0-1.172,0C84.077,134.65,84.511,140.052,83.741,145.297z"/>
		<path fill="#FBB040" d="M89.999,145.652c0.813-5.336,0.411-10.832-1.205-16.022c-0.183-0.004-0.969-0.019-1.179-0.021
			c1.673,5.168,2.086,10.662,1.255,15.99C89.247,145.615,89.622,145.639,89.999,145.652z"/>
		<path fill="#FBB040" d="M122.046,143.834c0.403-0.079,0.808-0.154,1.211-0.24c0.899-3.941,0.986-8.099,0.234-12.055
			c-0.382-0.02-0.765-0.038-1.15-0.061C123.152,135.527,123.041,139.809,122.046,143.834z"/>
	</g>
	<g opacity="0.2">
		<path fill="#755A29" d="M126.221,138.271c-2.304,0.359-4.877,0.678-7.193,0.906c-0.353,1.534-1.207,5.088-1.332,5.404
			c0.131-0.02,0.078-0.016,0.207-0.033c0.768-0.115,1.533-0.236,2.296-0.369c0.067-0.013,1.737-0.316,2.501-0.473
			c0.08-0.016,1.736-0.368,2.478-0.543c0.134-0.031,1.776-0.436,2.46-0.62c0.182-0.049,0.36-0.104,0.541-0.155
			c0.635-0.175,1.268-0.353,1.898-0.545c0.281-0.086,0.558-0.183,0.839-0.271c0.526-0.168,1.054-0.332,1.576-0.512
			c0.418-0.146,0.831-0.305,1.245-0.457c0.385-0.141,0.77-0.271,1.148-0.42c0.795-0.308,1.584-0.629,2.369-0.969
			c5.309-2.295,10.367-5.393,14.766-9.156C144.051,134.3,135.169,136.866,126.221,138.271z"/>
		<path fill="#755A29" d="M95.42,145.799c1.377,0.021,2.753,0.037,4.131,0.031c-0.113-0.41-0.23-0.816-0.357-1.219
			c-0.491-1.562-1.078-3.102-1.648-4.641c-2.449-0.011-20.615-0.263-27.25-0.436c-0.138,1.251-0.343,2.496-0.616,3.719
			c-0.042,0.188-0.095,0.367-0.14,0.555c1.261,0.166,9.739,1.112,10.239,1.159c1.255,0.116,4.67,0.382,5.121,0.411
			c1.71,0.116,3.421,0.209,5.138,0.275C91.609,145.716,95.203,145.795,95.42,145.799z"/>
	</g>
	<g opacity="0.2">
		<path fill="#755A29" d="M51.374,138.824c-6.604-0.338-15.756-1.088-22.877-1.705c-0.684-0.075-7.816-0.242-10.553-0.489
			c-3.272-0.296-7.533-0.29-10.74-0.911c4.742,1.487,11.574,1.989,17.554,2.187c0.122,0.04,0.575,0.038,1.031,0.034
			c0.542,0.02,5.229,0.223,5.825,0.26c0.654,0.078,1.328,0.165,1.76,0.132c0.462,0.039,0.928,0.073,1.383,0.12
			c0.131,0.013,0.261,0.027,0.391,0.042c0.786,0.087,1.562,0.182,2.318,0.3c2.484,0.387,12.411,2.014,14.892,2.419
			C52.066,140.4,51.73,139.607,51.374,138.824z"/>
	</g>
	<ellipse fill="#C37F9A" cx="103.749" cy="145.153" rx="1.425" ry="2.469"/>
	<ellipse fill="#C37F9A" cx="56.895" cy="145.832" rx="1.426" ry="1.825"/>
</g>
</svg>
