<?xml version="1.0" encoding="utf-8"?>
<!-- Generator: Adobe Illustrator 16.0.4, SVG Export Plug-In . SVG Version: 6.00 Build 0)  -->
<!DOCTYPE svg PUBLIC "-//W3C//DTD SVG 1.1//EN" "http://www.w3.org/Graphics/SVG/1.1/DTD/svg11.dtd">
<svg version="1.1" id="Layer_1" xmlns="http://www.w3.org/2000/svg" xmlns:xlink="http://www.w3.org/1999/xlink" x="0px" y="0px"
	 width="170px" height="170px" viewBox="0 0 170 170" enable-background="new 0 0 170 170" xml:space="preserve">
<title>Artboard 9</title>
<g>
	<g>
		<path fill="#C37F9A" d="M98.391,70.764l4.686-3.502c0.488-0.365,0.715-1.013,0.558-1.594l-2.526-9.309
			c-0.147-0.539-0.717-0.783-1.209-0.521l-8.492,4.574c-0.529,0.286-0.844,0.896-0.772,1.502l0.687,5.812
			C93.73,68.562,96.098,69.594,98.391,70.764z"/>
		<path fill="#C37F9A" d="M110.658,78.629l5.23-2.259c0.521-0.228,0.869-0.767,0.853-1.329l-0.279-9.012
			c-0.017-0.521-0.481-0.867-0.985-0.734l-8.713,2.316c-0.546,0.146-0.963,0.633-1.029,1.199l-0.676,5.762
			C105.059,74.572,109.328,77.633,110.658,78.629z"/>
		<path fill="#C37F9A" d="M77.067,65.461c2.516-0.111,5.037,0.079,7.538,0.518l3.374-4.89c0.349-0.503,0.355-1.188,0.021-1.688
			l-5.368-8.016c-0.31-0.463-0.929-0.513-1.309-0.105l-6.588,7.046c-0.412,0.439-0.515,1.117-0.253,1.67L77.067,65.461z"/>
		<path fill="#C37F9A" d="M134.578,96.174l3.736-2.146c0.398-0.229,0.633-0.693,0.564-1.146l-1.055-7.219
			c-0.061-0.416-0.469-0.654-0.86-0.5l-6.784,2.661c-0.427,0.166-0.727,0.596-0.728,1.058v4.263
			C131.102,94.27,132.802,95.309,134.578,96.174z"/>
		<path fill="#C37F9A" d="M122.566,88l4.65-2.01c0.458-0.197,0.762-0.67,0.745-1.162l-0.245-7.889
			c-0.015-0.455-0.422-0.76-0.861-0.644l-7.625,2.028c-0.479,0.127-0.842,0.553-0.9,1.049l-0.562,4.801
			C119.361,85.456,120.96,86.734,122.566,88z"/>
		<path fill="#C37F9A" d="M65.143,68.079l6.315-2.085l1.141-5.503c0.112-0.542-0.123-1.116-0.58-1.417l-7.302-4.795
			c-0.422-0.277-0.956-0.103-1.13,0.373l-3.015,8.2c-0.188,0.512-0.035,1.113,0.377,1.48L65.143,68.079z"/>
		<path fill="#C37F9A" d="M29.715,89.175l3.652,1.952c1.564-0.929,3.089-1.938,4.583-3.005l-0.134-3.987
			c-0.014-0.431-0.297-0.82-0.698-0.965l-6.398-2.287c-0.37-0.132-0.741,0.1-0.786,0.488l-0.776,6.751
			C29.11,88.544,29.336,88.971,29.715,89.175z"/>
		<path fill="#C37F9A" d="M39.287,82.344l4.311,1.439c1.774-1.438,3.529-2.906,5.288-4.356l-0.97-4.733
			c-0.104-0.508-0.521-0.918-1.027-1.006l-8.088-1.426c-0.467-0.082-0.863,0.269-0.837,0.74l0.446,8.201
			C38.438,81.717,38.793,82.18,39.287,82.344z"/>
		<path fill="#C37F9A" d="M49.328,72.677l5.1,2.337c1.395-1.055,2.807-2.063,4.249-3.009l1.182-0.841l-0.533-5.596
			c-0.053-0.549-0.447-1.029-0.971-1.184l-8.392-2.429c-0.485-0.142-0.943,0.187-0.97,0.688l-0.462,8.726
			C48.501,71.916,48.825,72.447,49.328,72.677z"/>
	</g>
	<g opacity="0.29">
		<path fill="#FFFFFF" d="M58.354,64.387l-8.392-2.429c-0.485-0.142-0.943,0.187-0.97,0.688l-0.462,8.725
			c-0.007,0.143,0.011,0.283,0.048,0.418l0.414-7.809c0.026-0.504,0.484-0.83,0.97-0.689l8.392,2.43
			c0.524,0.151,0.918,0.633,0.971,1.182l0.413,4.35l0.12-0.086l-0.533-5.598C59.272,65.02,58.878,64.539,58.354,64.387z"/>
		<path fill="#FFFFFF" d="M37.118,83.17l-6.398-2.287c-0.37-0.132-0.741,0.1-0.786,0.488l-0.776,6.751
			c-0.021,0.187,0.018,0.367,0.092,0.535l0.684-5.952c0.045-0.391,0.417-0.621,0.786-0.488l6.398,2.287
			c0.4,0.143,0.683,0.533,0.697,0.964l0.102,3.063l0.044-0.028l-0.146-4.368C37.802,83.704,37.518,83.312,37.118,83.17z"/>
		<path fill="#FFFFFF" d="M46.889,73.688l-8.088-1.426c-0.467-0.082-0.863,0.269-0.837,0.74l0.055,1.008
			c0.122-0.295,0.432-0.477,0.782-0.415l8.088,1.427c0.505,0.088,0.922,0.496,1.027,1.006l0.83,4.051l0.231-0.206l-1.061-5.179
			C47.811,74.186,47.394,73.775,46.889,73.688z"/>
		<path fill="#FFFFFF" d="M138.881,92.881c0.021,0.219-0.009,0.447-0.105,0.645l-0.947-6.521c-0.057-0.427-0.471-0.653-0.862-0.502
			l-6.78,2.66c-0.428,0.164-0.719,0.59-0.729,1.058v-1.338c0.011-0.458,0.299-0.884,0.728-1.058l6.784-2.661
			c0.396-0.153,0.808,0.086,0.86,0.5L138.881,92.881z"/>
		<path fill="#FFFFFF" d="M115.477,65.295l-8.713,2.316c-0.546,0.146-0.963,0.633-1.029,1.199l-0.676,5.762
			c0,0,0.129,0.096,0.146,0.107l0.53-4.535c0.066-0.566,0.483-1.056,1.029-1.199l8.713-2.316c0.504-0.134,0.969,0.213,0.985,0.732
			l0.247,7.943c0.016-0.09,0.036-0.176,0.032-0.266l-0.279-9.014C116.445,65.508,115.98,65.162,115.477,65.295z"/>
		<path fill="#FFFFFF" d="M126.855,76.298l-7.625,2.028c-0.479,0.127-0.842,0.553-0.9,1.049l-0.592,5.042
			c0,0,0.128,0.097,0.144,0.106l0.448-3.814c0.059-0.497,0.424-0.922,0.9-1.049l7.625-2.027c0.439-0.117,0.849,0.186,0.861,0.641
			l0.213,6.817c0.018-0.086,0.034-0.173,0.032-0.263l-0.245-7.889C127.704,76.484,127.297,76.182,126.855,76.298z"/>
		<path fill="#FFFFFF" d="M72.02,59.074l-7.302-4.795c-0.422-0.277-0.956-0.103-1.13,0.373l-3.015,8.2
			c-0.132,0.357-0.088,0.76,0.088,1.096l2.927-7.963c0.174-0.474,0.708-0.648,1.13-0.373l7.302,4.797
			c0.214,0.141,0.374,0.346,0.478,0.574l0.102-0.491C72.712,59.949,72.477,59.375,72.02,59.074z"/>
		<path fill="#FFFFFF" d="M101.104,56.359c-0.146-0.539-0.717-0.783-1.207-0.521l-8.492,4.574c-0.529,0.286-0.846,0.896-0.772,1.502
			l0.082,0.691c0.118-0.358,0.354-0.68,0.69-0.859l8.492-4.574c0.49-0.264,1.062-0.021,1.207,0.519l2.437,8.966
			c0.137-0.31,0.185-0.657,0.094-0.989L101.104,56.359z"/>
		<path fill="#FFFFFF" d="M82.629,51.385c-0.31-0.463-0.929-0.513-1.309-0.104l-6.588,7.046c-0.412,0.439-0.515,1.117-0.253,1.67
			l0.01,0.021c0.062-0.129,0.143-0.252,0.243-0.355l6.588-7.047c0.38-0.406,0.999-0.357,1.309,0.104l5.368,8.016
			c0.034,0.051,0.049,0.107,0.073,0.16c0.234-0.476,0.223-1.054-0.073-1.494L82.629,51.385z"/>
	</g>
	<path fill="#F9ED32" d="M157.721,93.068c-4.396,3.791-10.299,6.005-16.062,5.313c-5.51-0.657-10.383-3.799-14.834-7.106
		c-8.27-6.146-15.895-13.209-24.744-18.479c-8.936-5.316-19.382-8.781-29.435-6.831C55.317,69.328,44.359,86.82,28.153,93.814
		c-4.449,1.92-9.223,3.006-13.675,4.918c-4.452,1.914-8.741,4.871-10.761,9.274c7.83,5.181,22.563,3.04,33.75,4.783
		c4.919,0.767,9.824,1.589,14.729,2.394c1.896,5.015,2.53,10.51,1.747,15.814h9.675c2.863-4.188,4.901-8.247,6.025-13.18
		c6.763,0.89,13.551,1.568,20.394,1.834c3.117,0.119,6.257,0.188,9.396,0.178c1.055,3.654,1.483,7.646-0.057,11.096h12.329
		c2.469-3.962,4.294-8.014,5.989-12.345c6.728-0.991,13.307-2.664,19.56-5.367c14.706-6.356,27.521-18.843,29.572-34.731
		C165.092,84.023,162.116,89.275,157.721,93.068z"/>
	<g>
		<path fill="#8C6072" d="M107.768,76.525c0.203-0.564,1.519-4.142,1.789-4.967l-0.731-0.24c-0.269,0.812-0.705,2.006-1.13,3.158
			c-0.197,0.539-0.397,1.082-0.584,1.597C107.329,76.225,107.549,76.373,107.768,76.525z"/>
		<path fill="#8C6072" d="M94.359,68.896c0.088-0.668,0.49-3.987,0.584-4.621l-0.764-0.113c-0.095,0.64-0.479,3.818-0.561,4.43
			C93.867,68.689,94.113,68.795,94.359,68.896z"/>
		<path fill="#8C6072" d="M96.234,69.721c0.388-0.531,0.763-1.074,1.104-1.586c0.421-0.633,0.818-1.229,1.141-1.613l-0.59-0.496
			c-0.349,0.416-0.74,1.002-1.193,1.685c-0.359,0.544-0.758,1.134-1.17,1.688C95.764,69.503,95.998,69.611,96.234,69.721z"/>
		<path fill="#8C6072" d="M82.11,65.615c0.089-0.447,0.833-4.176,1.006-5.094l-0.758-0.145c-0.172,0.916-0.927,4.699-1.021,5.175
			C81.594,65.574,81.853,65.588,82.11,65.615z"/>
		<path fill="#8C6072" d="M119.825,85.826c0.12-0.381,0.247-0.771,0.375-1.164c0.372-1.143,0.757-2.325,0.92-3.053l-0.75-0.168
			c-0.156,0.689-0.537,1.854-0.903,2.98c-0.096,0.295-0.193,0.594-0.287,0.887C119.395,85.48,119.609,85.652,119.825,85.826z"/>
		<path fill="#8C6072" d="M132.497,95.07c0.231,0.135,0.465,0.264,0.698,0.393c0.352-0.354,2.527-2.564,3.01-3.029l-0.534-0.556
			c-0.485,0.468-1.194,1.188-1.905,1.911C133.32,94.24,132.887,94.682,132.497,95.07z"/>
		<path fill="#8C6072" d="M120.904,86.689c0.269-0.184,2.793-1.889,3.346-2.266l-0.436-0.637c-0.553,0.377-3.211,2.174-3.541,2.396
			C120.484,86.354,120.695,86.521,120.904,86.689z"/>
		<path fill="#8C6072" d="M132.188,94.898c0.405-1.416,0.785-3.352,0.967-4.498l-0.762-0.119c-0.181,1.142-0.529,2.89-0.889,4.199
			C131.73,94.621,131.958,94.764,132.188,94.898z"/>
		<path fill="#8C6072" d="M108.051,76.723c0.235,0.168,0.475,0.332,0.709,0.502c0.323-0.164,0.653-0.332,0.988-0.5
			c1.12-0.561,2.277-1.141,2.891-1.551l-0.431-0.64c-0.571,0.384-1.706,0.952-2.806,1.501
			C108.927,76.275,108.471,76.506,108.051,76.723z"/>
		<path fill="#8C6072" d="M46.418,81.469c0.202-0.166,0.403-0.334,0.604-0.5c-0.374-0.628-0.808-1.271-1.235-1.904
			c-0.651-0.967-1.267-1.879-1.617-2.648l-0.702,0.316c0.377,0.83,1.01,1.771,1.68,2.764C45.595,80.155,46.042,80.826,46.418,81.469
			z"/>
		<path fill="#8C6072" d="M35.775,89.617c0.223-0.147,0.444-0.297,0.666-0.446c-0.139-0.43-0.292-0.882-0.447-1.33
			c-0.347-1.01-0.707-2.054-0.833-2.72l-0.757,0.145c0.137,0.719,0.504,1.789,0.861,2.825
			C35.443,88.609,35.624,89.136,35.775,89.617z"/>
		<path fill="#8C6072" d="M45.312,82.381l-4.095-2.541l-0.406,0.655l3.873,2.403C44.893,82.729,45.102,82.555,45.312,82.381z"/>
		<path fill="#8C6072" d="M34.908,90.18c0.239-0.152,0.478-0.305,0.715-0.461c-0.445-0.281-0.934-0.588-1.417-0.89
			c-0.925-0.576-1.882-1.173-2.459-1.574l-0.44,0.634c0.593,0.412,1.559,1.014,2.492,1.596
			C34.173,89.718,34.549,89.953,34.908,90.18z"/>
		<path fill="#8C6072" d="M79.208,65.439c0.261,0.006,0.521,0.006,0.782,0.02c-0.09-0.589-0.179-1.223-0.267-1.846
			c-0.176-1.242-0.357-2.526-0.537-3.426l-0.756,0.147c0.175,0.879,0.356,2.151,0.529,3.384
			C79.042,64.301,79.125,64.885,79.208,65.439z"/>
		<path fill="#8C6072" d="M69.2,66.846c-0.141-1.426-0.395-3.189-0.621-4.562l-0.761,0.124c0.234,1.42,0.499,3.263,0.633,4.688
			C68.7,67.008,68.949,66.924,69.2,66.846z"/>
		<path fill="#8C6072" d="M67.208,67.542c0.274-0.104,0.548-0.213,0.826-0.312c-0.403-0.34-3.08-2.621-3.707-3.125l-0.482,0.602
			c0.622,0.5,1.521,1.266,2.419,2.031C66.583,67.012,66.899,67.28,67.208,67.542z"/>
		<path fill="#8C6072" d="M55.647,74.105c0.22-0.16,0.439-0.32,0.661-0.479c-0.441-0.308-0.915-0.642-1.384-0.974
			c-1.031-0.729-2.096-1.483-2.773-1.902l-0.405,0.656c0.657,0.404,1.712,1.152,2.733,1.876
			C54.874,73.562,55.268,73.84,55.647,74.105z"/>
		<path fill="#8C6072" d="M56.649,73.382c0.221-0.157,0.445-0.31,0.668-0.464c-0.173-0.593-0.361-1.214-0.546-1.827
			c-0.335-1.104-0.65-2.147-0.814-2.813l-0.748,0.186c0.168,0.688,0.487,1.74,0.824,2.854
			C56.245,72.012,56.458,72.719,56.649,73.382z"/>
	</g>
	<path fill="#E5C759" d="M99.432,119.832c-3.139,0.012-6.274-0.057-9.396-0.178c-1.063-0.041-2.122-0.109-3.183-0.17
		c-0.744,3.377-1.917,6.724-2.896,9.551H92.6c2.946-2.938,5.159-5.422,6.851-9.143C99.441,119.872,99.438,119.854,99.432,119.832z"
		/>
	<path fill="#E5C759" d="M52.195,115.184c-2.117-0.347-4.234-0.694-6.352-1.043c-0.862,5.273-3.473,11.034-5.132,14.748h8.584
		c1.866-1.483,3.47-2.849,4.899-4.397C53.991,121.312,53.321,118.162,52.195,115.184z"/>
	<g opacity="0.21">
		<path fill="#FFFFFF" d="M13.321,100.917c4.728-1.709,9.986-2.351,14.831-4.44c16.206-6.992,27.164-24.484,44.492-27.848
			c10.053-1.951,20.5,1.514,29.435,6.83c8.853,5.27,16.478,12.333,24.744,18.479c4.452,3.31,9.325,6.448,14.834,7.106
			c5.766,0.688,11.668-1.522,16.063-5.315c3.233-2.791,5.693-6.375,7.463-10.279c0.771-2.237,1.332-4.562,1.644-6.965
			c-1.734,5.539-4.71,10.791-9.106,14.584c-4.396,3.791-10.298,6.007-16.062,5.315c-5.511-0.657-10.382-3.799-14.834-7.108
			c-8.269-6.145-15.894-13.209-24.744-18.477c-8.935-5.316-19.382-8.781-29.435-6.831C55.318,69.33,44.36,86.822,28.154,93.816
			c-4.449,1.92-9.223,3.004-13.675,4.918c-4.452,1.912-8.741,4.871-10.761,9.274c0.361,0.239-0.391-0.209,0,0
			C6.302,104.216,9.651,102.245,13.321,100.917z"/>
	</g>
	<path fill="#006838" d="M3.716,108.009c0.024,0.005-0.013,0.056-0.056-0.065c0.219,0.029,0.537,0.141,0.91,0.146
		c0.368,0.035,0.781,0.09,1.247,0.074c0.456,0.044,0.943-0.037,1.428-0.039c0.24-0.038,0.479-0.078,0.717-0.104
		c0.241-0.012,0.465-0.084,0.69-0.119c0.454-0.068,0.862-0.188,1.224-0.276c0.37-0.069,0.654-0.194,0.874-0.253
		c0.213-0.066,0.347-0.096,0.347-0.096s-0.087,0.097-0.263,0.24c-0.181,0.131-0.411,0.397-0.768,0.562
		c-0.17,0.1-0.365,0.188-0.567,0.294c-0.204,0.104-0.438,0.151-0.672,0.233c-0.469,0.17-0.999,0.216-1.521,0.281
		c-0.528,0.004-1.056,0.022-1.544-0.07c-0.487-0.06-0.939-0.197-1.312-0.334c-0.382-0.113-0.565-0.327-0.771-0.422
		C3.486,107.945,3.716,108.009,3.716,108.009z"/>
	<path fill="#006838" d="M13.485,102.131c0,0-0.002,0.128-0.024,0.346c-0.026,0.113-0.009,0.238,0.022,0.362
		c0.015,0.126,0.048,0.261,0.114,0.419c0.04,0.156,0.133,0.307,0.223,0.465c0.077,0.164,0.235,0.289,0.345,0.442
		c0.152,0.117,0.291,0.259,0.469,0.332c0.133,0.118,0.412,0.131,0.475,0.187c0.237-0.002,0.531,0.026,0.651-0.043
		c0.154-0.018,0.344-0.117,0.521-0.191c0.149-0.119,0.338-0.201,0.458-0.344c0.131-0.131,0.264-0.256,0.346-0.399
		c0.105-0.138,0.179-0.271,0.229-0.404c0.064-0.129,0.112-0.248,0.116-0.352c0.036-0.206,0.067-0.339,0.067-0.339
		s0.04,0.113,0.091,0.342c0.036,0.111,0.038,0.251,0.024,0.414c0.002,0.167-0.019,0.354-0.101,0.544
		c-0.051,0.205-0.161,0.397-0.299,0.597c-0.121,0.21-0.322,0.375-0.518,0.557c-0.232,0.137-0.441,0.315-0.772,0.385
		c-0.34,0.113-0.549,0.08-0.803,0.1c-0.408-0.084-0.633-0.133-0.901-0.306c-0.274-0.124-0.452-0.353-0.647-0.54
		c-0.152-0.221-0.313-0.43-0.385-0.664c-0.091-0.227-0.156-0.444-0.161-0.659c-0.038-0.2-0.018-0.403,0.023-0.581
		c0.026-0.178,0.062-0.312,0.119-0.402c0.097-0.195,0.164-0.307,0.164-0.307c0.023-0.039,0.074-0.051,0.114-0.027
		C13.471,102.074,13.485,102.102,13.485,102.131z"/>
	<path fill="#D4D665" d="M142.332,105.128c-4.582,1.022-12.898,0.774-22.456,0.213c0.396,4.154-2.056,12.925-2.181,13.242
		c6.787-0.987,13.248-2.642,19.559-5.367c7.729-3.341,14.355-7.718,19.752-14.047C153.084,102.102,147.146,104.053,142.332,105.128z
		"/>
	<path fill="#C37F9A" d="M158.191,94.291c-0.479,0.47-1.791,1.568-1.939,1.574c-1.473-2.396-2.286-5.192-2.326-8.004
		C155.607,89.836,157.257,91.872,158.191,94.291z"/>
	<path fill="#C37F9A" d="M161.089,91.169c-0.76-2.272-2.138-4.567-3.753-6.34c0.211,2.749,1.197,5.435,2.814,7.667
		C160.613,92.189,160.893,91.688,161.089,91.169z"/>
	<path fill="#C37F9A" d="M163.173,87.248c-0.761-2.273-2.139-4.568-3.754-6.341c0.211,2.749,1.197,5.435,2.813,7.668
		C162.698,88.271,162.977,87.768,163.173,87.248z"/>
	<ellipse fill="#B7B75A" cx="78.358" cy="69.725" rx="4.022" ry="1.254"/>
	<ellipse fill="#B7B75A" cx="89.502" cy="70.848" rx="2.078" ry="1.121"/>
	<ellipse fill="#B7B75A" cx="67.788" cy="71.786" rx="1.929" ry="0.938"/>
	<ellipse fill="#B7B75A" cx="74.515" cy="73.616" rx="1.336" ry="0.89"/>
	<ellipse fill="#B7B75A" cx="83.27" cy="73.616" rx="1.583" ry="0.89"/>
	<ellipse fill="#B7B75A" cx="90.641" cy="76.814" rx="3.215" ry="1.318"/>
	<ellipse fill="#B7B75A" cx="95.34" cy="73.171" rx="1.484" ry="0.445"/>
	<ellipse fill="#B7B75A" cx="62.347" cy="75.389" rx="2.918" ry="0.884"/>
	<ellipse fill="#B7B75A" cx="69.701" cy="75.832" rx="0.775" ry="0.439"/>
	<ellipse fill="#B7B75A" cx="99.396" cy="75.424" rx="0.791" ry="0.408"/>
	<ellipse fill="#B7B75A" cx="103.749" cy="77.146" rx="0.594" ry="0.329"/>
	<ellipse fill="#B7B75A" cx="55.03" cy="77.804" rx="0.837" ry="0.329"/>
	<path fill="#C37F9A" d="M111.705,130.928c0.043-0.806-0.055-2.205-0.415-2.945s-1.245-1.354-2.153-1.211
		c-0.828,0.129-1.404,0.848-1.541,1.574c-0.136,0.728-0.146,0.549,0.062,1.264c-0.01-0.764-0.018-0.791-0.385-1.482
		c-0.369-0.691-1.188-1.263-2.057-1.163c-0.85,0.101-1.469,0.812-1.634,1.547c-0.166,0.735-0.324,0.147-0.138,0.88
		c0.088-0.896,0.25-0.385-0.248-1.173c-0.496-0.786-1.801-1.245-2.59-0.67c-0.912,0.669-0.48,2.572-1.231,3.384
		C99.376,130.928,108.693,131.025,111.705,130.928z"/>
	<path fill="#C37F9A" d="M92.023,127.079c-0.217-0.496-0.78-0.922-1.381-0.854c-0.55,0.063-0.943,0.521-1.056,0.991
		c-0.021,0.097-0.037,0.154-0.05,0.212c-0.032-0.095-0.076-0.197-0.156-0.363c-0.223-0.465-0.747-0.86-1.316-0.817
		c-0.562,0.041-0.986,0.489-1.115,0.97c-0.016,0.059-0.03,0.1-0.043,0.135c-0.02-0.049-0.075-0.117-0.202-0.336
		c-0.306-0.529-1.147-0.867-1.681-0.513c-0.619,0.415-0.742,1.894-1.066,2.533c0,0,6.279-0.026,8.26-0.011
		C92.266,128.498,92.241,127.576,92.023,127.079z"/>
	<path fill="#C37F9A" d="M63.548,128.74c-0.296-0.672-1.021-1.227-1.766-1.098c-0.68,0.116-1.152,0.769-1.263,1.426
		c-0.021,0.119-0.036,0.207-0.049,0.283c-0.046-0.125-0.113-0.269-0.216-0.481c-0.302-0.628-0.976-1.144-1.687-1.054
		c-0.697,0.091-1.204,0.733-1.34,1.397c-0.019,0.095-0.034,0.172-0.047,0.242c-0.06-0.138-0.144-0.289-0.268-0.506
		c-0.408-0.714-1.477-1.13-2.124-0.604c-0.75,0.604-0.383,1.922-0.999,2.652h9.829C63.652,130.271,63.844,129.41,63.548,128.74z"/>
	<path fill="#C37F9A" d="M49.405,126.997c-0.195-0.588-0.774-1.12-1.434-1.085c-0.603,0.031-1.074,0.527-1.232,1.064
		c-0.03,0.103-0.053,0.176-0.071,0.237c-0.027-0.108-0.068-0.233-0.141-0.432c-0.204-0.552-0.742-1.048-1.368-1.039
		c-0.615,0.006-1.116,0.493-1.296,1.032c-0.029,0.088-0.045,0.146-0.065,0.207c-0.039-0.121-0.093-0.256-0.184-0.457
		c-0.289-0.633-0.917-1.012-1.529-0.639c-0.708,0.43-0.77,2.449-1.374,2.998h8.543C49.353,128.286,49.6,127.585,49.405,126.997z"/>
	<g>
		<path fill="#D4D665" d="M48.912,108.382c-0.168-0.25-0.316-0.513-0.453-0.782c-5.821,1.354-12.703,2.883-23.702,4.305
			c4.373,0.143,8.76,0.272,12.709,0.89c4.973,0.772,9.934,1.606,14.892,2.419C51.49,112.807,50.34,110.503,48.912,108.382z"/>
		<path fill="#D4D665" d="M95.493,107.045c-0.181-1.044-0.265-2.124-0.243-3.199c-2.393-0.105-4.741-0.188-7.006-0.229
			c-7.886-0.137-13.856,0.018-18.76,0.384c0.084,0.257,0.18,0.511,0.252,0.771c1.121,4.052,0.858,8.381-0.059,12.482
			c-0.042,0.188-0.095,0.367-0.14,0.555c6.798,0.896,13.62,1.58,20.498,1.846c3.158,0.121,6.335,0.189,9.515,0.177
			c-0.112-0.41-0.229-0.815-0.358-1.22C97.975,114.746,96.18,111.04,95.493,107.045z"/>
	</g>
	<path fill="#FBD75C" d="M157.006,99.169c-5.396,6.329-12.023,10.706-19.752,14.047c-6.311,2.728-12.771,4.38-19.559,5.367
		c0.121-0.31,2.576-9.088,2.181-13.242c9.558,0.562,17.874,0.81,22.456-0.213C147.146,104.053,153.084,102.102,157.006,99.169z
		 M48.912,108.382c-0.168-0.25-0.316-0.513-0.453-0.782c-5.821,1.354-12.703,2.883-23.702,4.305c4.373,0.143,8.76,0.272,12.709,0.89
		c4.973,0.772,9.934,1.606,14.892,2.419C51.49,112.807,50.34,110.503,48.912,108.382z M95.493,107.045
		c-0.181-1.044-0.265-2.124-0.243-3.199c-2.393-0.105-4.741-0.188-7.006-0.229c-7.886-0.137-13.856,0.018-18.76,0.384
		c0.084,0.257,0.18,0.511,0.252,0.771c1.121,4.052,0.858,8.381-0.059,12.482c-0.042,0.188-0.095,0.367-0.14,0.555
		c6.798,0.896,13.62,1.58,20.498,1.846c3.158,0.121,6.335,0.189,9.515,0.177c-0.112-0.41-0.229-0.815-0.358-1.22
		C97.975,114.746,96.18,111.04,95.493,107.045z"/>
	<g>
		<path fill="#FBB040" d="M40.596,109.325c-0.223,0.045-0.448,0.09-0.675,0.134l-0.419,0.113c0.317,1.181,0.508,2.402,0.572,3.632
			c0.375,0.062,0.751,0.12,1.126,0.18C41.146,112.014,40.946,110.645,40.596,109.325z"/>
		<path fill="#FBB040" d="M74.625,118.434c0.576-4.901,0.137-9.908-1.324-14.662c-0.391,0.02-0.776,0.037-1.154,0.06
			c1.482,4.688,1.934,9.635,1.364,14.479C73.882,118.352,74.254,118.391,74.625,118.434z"/>
		<path fill="#FBB040" d="M44.32,113.891c0.062-1.759-0.122-3.531-0.548-5.229c-0.36,0.079-0.726,0.155-1.097,0.233
			c0.396,1.563,0.573,3.193,0.528,4.814C43.575,113.77,43.948,113.829,44.32,113.891z"/>
		<path fill="#FBB040" d="M38.519,112.889c-0.029-1.039-0.164-2.074-0.394-3.082c-0.363,0.068-0.732,0.139-1.107,0.205
			c0,0,0.316,2.371,0.359,2.77c0.029,0.005,0.06,0.009,0.089,0.013c0.353,0.058,0.705,0.11,1.058,0.167
			C38.521,112.936,38.521,112.913,38.519,112.889z"/>
		<path fill="#FBB040" d="M94.02,119.773c0.377,0.01,0.756,0.018,1.135,0.022c0.834-5.326,0.457-10.815-1.133-16.006
			c-0.396-0.019-0.791-0.03-1.186-0.046C94.488,108.932,94.879,114.439,94.02,119.773z"/>
		<path fill="#FBB040" d="M149.848,102.902c-0.351,0.134-0.701,0.262-1.056,0.385c0.377,0.915,0.658,1.861,0.851,2.827
			c0.328-0.251,0.654-0.503,0.979-0.763C150.425,104.52,150.172,103.699,149.848,102.902z"/>
		<path fill="#FBB040" d="M135.13,114.076c0.433-0.169,0.862-0.346,1.292-0.523c0.544-2.56,0.521-5.227-0.033-7.785
			c-0.373,0.018-0.75,0.027-1.139,0.037C135.877,108.523,135.833,111.378,135.13,114.076z"/>
		<path fill="#FBB040" d="M48.305,114.545c0.193-2.277,0.107-4.604-0.244-6.854c-0.36,0.084-0.726,0.168-1.095,0.254
			c0.322,2.105,0.402,4.283,0.229,6.416C47.564,114.423,47.935,114.482,48.305,114.545z"/>
		<path fill="#FBB040" d="M140.309,111.809c0.409-0.201,0.817-0.401,1.221-0.609c0.193-1.954,0.029-3.94-0.459-5.84
			c-0.354,0.057-0.729,0.104-1.116,0.149C140.498,107.555,140.617,109.712,140.309,111.809z"/>
		<path fill="#FBB040" d="M79.736,118.965c0.68-5.128,0.249-10.383-1.306-15.357c-0.395,0.009-0.782,0.018-1.165,0.024
			c1.589,4.921,2.034,10.138,1.354,15.224C78.991,118.893,79.363,118.93,79.736,118.965z"/>
		<path fill="#FBB040" d="M132.329,115.105c0.79-3.037,0.729-6.278-0.198-9.282c-0.393-0.003-0.783-0.007-1.188-0.015
			c1.051,3.135,1.082,6.572,0.099,9.725C131.473,115.395,131.9,115.251,132.329,115.105z"/>
		<path fill="#FBB040" d="M144.486,109.562c0.399-0.234,0.798-0.476,1.188-0.72c0.062-1.483-0.13-2.979-0.601-4.397
			c-0.366,0.101-0.729,0.195-1.091,0.285C144.502,106.271,144.664,107.939,144.486,109.562z"/>
		<path fill="#FBB040" d="M127.605,116.543c0.817-3.568,0.664-7.359-0.467-10.841c-0.397-0.017-0.798-0.03-1.201-0.048
			c1.256,3.582,1.404,7.545,0.438,11.216C126.788,116.768,127.195,116.652,127.605,116.543z"/>
		<path fill="#FBB040" d="M83.741,119.297c0.373,0.028,0.747,0.051,1.121,0.075c0.76-5.271,0.34-10.687-1.265-15.804
			c-0.396,0-0.787,0-1.172,0C84.077,108.65,84.511,114.052,83.741,119.297z"/>
		<path fill="#FBB040" d="M89.999,119.652c0.813-5.336,0.411-10.832-1.205-16.022c-0.183-0.004-0.969-0.019-1.179-0.021
			c1.673,5.168,2.086,10.662,1.255,15.99C89.247,119.615,89.622,119.639,89.999,119.652z"/>
		<path fill="#FBB040" d="M122.046,117.834c0.403-0.079,0.808-0.154,1.211-0.24c0.899-3.941,0.986-8.099,0.234-12.055
			c-0.382-0.02-0.765-0.038-1.15-0.061C123.152,109.527,123.041,113.809,122.046,117.834z"/>
	</g>
	<g opacity="0.2">
		<path fill="#755A29" d="M126.221,112.271c-2.304,0.358-4.877,0.678-7.193,0.905c-0.353,1.534-1.207,5.089-1.332,5.404
			c0.132-0.021,0.078-0.017,0.207-0.033c0.769-0.114,1.533-0.235,2.297-0.368c0.066-0.014,1.736-0.316,2.501-0.474
			c0.079-0.017,1.735-0.368,2.478-0.543c0.135-0.031,1.776-0.437,2.461-0.62c0.182-0.049,0.359-0.104,0.541-0.154
			c0.635-0.176,1.268-0.354,1.897-0.546c0.28-0.086,0.558-0.183,0.839-0.271c0.525-0.168,1.055-0.332,1.576-0.512
			c0.418-0.146,0.83-0.306,1.244-0.457c0.386-0.142,0.771-0.271,1.148-0.42c0.795-0.309,1.584-0.629,2.369-0.97
			c5.309-2.295,10.367-5.393,14.766-9.155C144.051,108.3,135.169,110.866,126.221,112.271z"/>
		<path fill="#755A29" d="M95.42,119.799c1.377,0.021,2.753,0.037,4.131,0.031c-0.113-0.41-0.23-0.816-0.357-1.219
			c-0.49-1.562-1.077-3.103-1.647-4.641c-2.448-0.012-20.615-0.264-27.25-0.437c-0.138,1.251-0.343,2.495-0.616,3.719
			c-0.042,0.188-0.095,0.367-0.14,0.556c1.261,0.166,9.739,1.111,10.239,1.158c1.255,0.116,4.67,0.383,5.121,0.411
			c1.709,0.116,3.42,0.209,5.138,0.274C91.609,119.716,95.203,119.795,95.42,119.799z"/>
	</g>
	<g opacity="0.2">
		<path fill="#755A29" d="M51.374,112.824c-6.604-0.338-15.756-1.088-22.877-1.705c-0.684-0.075-7.816-0.242-10.553-0.489
			c-3.272-0.296-7.533-0.29-10.74-0.911c4.742,1.487,11.574,1.989,17.554,2.188c0.122,0.039,0.575,0.037,1.031,0.033
			c0.542,0.021,5.229,0.224,5.825,0.261c0.654,0.077,1.328,0.165,1.76,0.132c0.462,0.039,0.928,0.072,1.383,0.12
			c0.131,0.013,0.261,0.026,0.391,0.042c0.786,0.087,1.562,0.182,2.318,0.3c2.484,0.388,12.411,2.015,14.892,2.419
			C52.066,114.4,51.73,113.607,51.374,112.824z"/>
	</g>
	<ellipse fill="#C37F9A" cx="103.749" cy="119.153" rx="1.425" ry="2.469"/>
	<ellipse fill="#C37F9A" cx="56.895" cy="119.832" rx="1.426" ry="1.825"/>
</g>
</svg>
