<?xml version="1.0" encoding="utf-8"?>
<!-- Generator: Adobe Illustrator 16.0.4, SVG Export Plug-In . SVG Version: 6.00 Build 0)  -->
<!DOCTYPE svg PUBLIC "-//W3C//DTD SVG 1.1//EN" "http://www.w3.org/Graphics/SVG/1.1/DTD/svg11.dtd">
<svg version="1.1" id="Layer_1" xmlns="http://www.w3.org/2000/svg" xmlns:xlink="http://www.w3.org/1999/xlink" x="0px" y="0px"
	 width="170px" height="170px" viewBox="0 0 170 170" enable-background="new 0 0 170 170" xml:space="preserve">
<title>Artboard 9</title>
<g>
	<g>
		<path fill="#B0E465" d="M98.39,103.764l4.685-3.502c0.489-0.365,0.715-1.013,0.558-1.594l-2.528-9.309
			c-0.147-0.538-0.717-0.783-1.208-0.52l-8.492,4.574c-0.53,0.286-0.845,0.896-0.773,1.502l0.686,5.813
			C93.731,101.563,96.098,102.594,98.39,103.764z"/>
		<path fill="#B0E465" d="M110.658,111.629l5.231-2.259c0.522-0.227,0.87-0.766,0.852-1.329l-0.279-9.012
			c-0.017-0.521-0.481-0.867-0.985-0.734l-8.714,2.317c-0.545,0.146-0.962,0.632-1.028,1.198l-0.677,5.762
			C105.058,107.572,109.328,110.633,110.658,111.629z"/>
		<path fill="#B0E465" d="M77.067,98.461c2.516-0.111,5.037,0.079,7.538,0.518l3.374-4.89c0.347-0.503,0.355-1.188,0.019-1.688
			l-5.368-8.016c-0.31-0.463-0.929-0.513-1.309-0.105l-6.588,7.046c-0.412,0.44-0.515,1.118-0.253,1.67L77.067,98.461z"/>
		<path fill="#B0E465" d="M134.578,129.174l3.737-2.146c0.399-0.229,0.632-0.695,0.565-1.146l-1.055-7.219
			c-0.06-0.416-0.467-0.654-0.86-0.5l-6.786,2.661c-0.425,0.166-0.725,0.596-0.726,1.058v4.263
			C131.102,127.27,132.802,128.309,134.578,129.174z"/>
		<path fill="#B0E465" d="M122.566,121l4.652-2.01c0.458-0.197,0.76-0.67,0.745-1.162l-0.245-7.889
			c-0.015-0.455-0.422-0.759-0.862-0.642l-7.626,2.028c-0.477,0.127-0.842,0.553-0.9,1.049l-0.562,4.801
			C119.362,118.456,120.96,119.734,122.566,121z"/>
		<path fill="#B0E465" d="M65.143,101.079l6.315-2.085l1.141-5.503c0.112-0.542-0.123-1.116-0.58-1.417l-7.302-4.795
			c-0.422-0.277-0.956-0.102-1.13,0.373l-3.015,8.199c-0.188,0.512-0.035,1.115,0.377,1.482L65.143,101.079z"/>
		<path fill="#B0E465" d="M29.715,122.175l3.652,1.952c1.564-0.929,3.089-1.938,4.583-3.005l-0.134-3.987
			c-0.014-0.431-0.297-0.821-0.698-0.965l-6.398-2.287c-0.37-0.132-0.741,0.1-0.786,0.488l-0.776,6.751
			C29.11,121.544,29.336,121.971,29.715,122.175z"/>
		<path fill="#B0E465" d="M39.287,115.344l4.311,1.439c1.774-1.438,3.529-2.906,5.288-4.356l-0.97-4.733
			c-0.104-0.508-0.521-0.918-1.027-1.007l-8.088-1.425c-0.467-0.082-0.863,0.268-0.837,0.74l0.446,8.201
			C38.438,114.717,38.793,115.18,39.287,115.344z"/>
		<path fill="#B0E465" d="M49.328,105.677l5.1,2.337c1.395-1.055,2.807-2.065,4.249-3.009l1.182-0.841l-0.533-5.596
			c-0.053-0.549-0.447-1.029-0.971-1.182l-8.392-2.429c-0.485-0.141-0.943,0.186-0.97,0.688l-0.462,8.725
			C48.501,104.916,48.825,105.447,49.328,105.677z"/>
	</g>
	<g opacity="0.29">
		<path fill="#FFFFFF" d="M58.354,97.387l-8.392-2.429c-0.485-0.141-0.943,0.186-0.97,0.688l-0.462,8.725
			c-0.007,0.143,0.011,0.283,0.048,0.418l0.414-7.809c0.026-0.504,0.484-0.83,0.97-0.689l8.392,2.43
			c0.524,0.151,0.918,0.632,0.971,1.182l0.413,4.348l0.12-0.086l-0.533-5.596C59.272,98.02,58.878,97.539,58.354,97.387z"/>
		<path fill="#FFFFFF" d="M37.118,116.17l-6.398-2.287c-0.37-0.132-0.741,0.1-0.786,0.488l-0.776,6.751
			c-0.021,0.186,0.018,0.367,0.092,0.535l0.684-5.952c0.045-0.39,0.417-0.621,0.786-0.488l6.398,2.287
			c0.4,0.143,0.683,0.533,0.697,0.964l0.102,3.063l0.044-0.028l-0.146-4.368C37.802,116.704,37.518,116.313,37.118,116.17z"/>
		<path fill="#FFFFFF" d="M46.889,106.687l-8.088-1.425c-0.467-0.082-0.863,0.268-0.837,0.74l0.055,1.008
			c0.122-0.295,0.432-0.477,0.782-0.415l8.088,1.427c0.505,0.088,0.922,0.496,1.027,1.006l0.83,4.049l0.231-0.206l-1.061-5.177
			C47.811,107.186,47.394,106.775,46.889,106.687z"/>
		<path fill="#FFFFFF" d="M138.881,125.881c0.022,0.218-0.009,0.447-0.106,0.644l-0.948-6.521c-0.055-0.427-0.469-0.655-0.862-0.502
			l-6.782,2.66c-0.426,0.164-0.717,0.59-0.728,1.058v-1.338c0.011-0.458,0.299-0.884,0.726-1.058l6.786-2.661
			c0.394-0.153,0.807,0.086,0.86,0.5L138.881,125.881z"/>
		<path fill="#FFFFFF" d="M115.477,98.295l-8.714,2.317c-0.545,0.146-0.962,0.632-1.028,1.198l-0.677,5.762
			c0,0,0.129,0.096,0.145,0.107l0.532-4.535c0.066-0.566,0.483-1.054,1.028-1.199l8.714-2.316c0.504-0.134,0.969,0.213,0.985,0.733
			l0.247,7.942c0.015-0.088,0.036-0.174,0.032-0.264l-0.279-9.012C116.445,98.508,115.98,98.162,115.477,98.295z"/>
		<path fill="#FFFFFF" d="M126.856,109.298l-7.626,2.028c-0.477,0.127-0.842,0.553-0.9,1.049l-0.592,5.042
			c0,0,0.128,0.096,0.144,0.107l0.448-3.815c0.059-0.497,0.424-0.922,0.9-1.049l7.626-2.027c0.44-0.117,0.848,0.186,0.862,0.641
			l0.212,6.817c0.018-0.086,0.035-0.173,0.033-0.263l-0.245-7.889C127.704,109.484,127.297,109.181,126.856,109.298z"/>
		<path fill="#FFFFFF" d="M72.02,92.074l-7.302-4.795c-0.422-0.277-0.956-0.102-1.13,0.373l-3.015,8.199
			c-0.132,0.359-0.088,0.76,0.088,1.096l2.927-7.962c0.174-0.474,0.708-0.649,1.13-0.373l7.302,4.796
			c0.214,0.141,0.374,0.346,0.478,0.575l0.102-0.492C72.712,92.949,72.477,92.375,72.02,92.074z"/>
		<path fill="#FFFFFF" d="M101.104,89.359c-0.147-0.538-0.717-0.783-1.208-0.52l-8.492,4.574c-0.53,0.286-0.845,0.896-0.773,1.502
			l0.082,0.693c0.118-0.36,0.354-0.68,0.691-0.861l8.492-4.574c0.491-0.264,1.061-0.02,1.208,0.519l2.435,8.965
			c0.137-0.31,0.184-0.657,0.094-0.989L101.104,89.359z"/>
		<path fill="#FFFFFF" d="M82.629,84.385c-0.31-0.463-0.929-0.513-1.309-0.105l-6.588,7.046c-0.412,0.44-0.515,1.118-0.253,1.67
			l0.01,0.022c0.062-0.13,0.143-0.252,0.243-0.357l6.588-7.047c0.38-0.406,0.999-0.357,1.309,0.105l5.368,8.015
			c0.034,0.05,0.049,0.108,0.074,0.161c0.234-0.476,0.222-1.054-0.074-1.494L82.629,84.385z"/>
	</g>
	<path fill="#4BB64A" d="M157.72,126.068c-4.396,3.791-10.298,6.005-16.063,5.315c-5.509-0.658-10.381-3.799-14.834-7.108
		c-8.268-6.145-15.893-13.209-24.744-18.477c-8.934-5.317-19.382-8.782-29.435-6.831c-17.328,3.362-28.286,20.854-44.492,27.848
		c-4.449,1.92-9.223,3.005-13.675,4.918s-8.741,4.871-10.761,9.275c7.83,5.179,22.563,3.04,33.75,4.783
		c4.919,0.766,9.824,1.589,14.729,2.392c1.896,5.015,2.53,10.511,1.747,15.816h9.675c2.863-4.186,4.901-8.247,6.025-13.178
		c6.763,0.888,13.551,1.567,20.394,1.833c3.119,0.12,6.257,0.188,9.396,0.177c1.054,3.656,1.484,7.645-0.056,11.096h12.329
		c2.469-3.962,4.294-8.014,5.99-12.345c6.727-0.991,13.306-2.664,19.559-5.367c14.706-6.357,27.521-18.843,29.572-34.732
		C165.092,117.023,162.116,122.275,157.72,126.068z"/>
	<g>
		<path fill="#98AD3F" d="M107.767,109.525c0.204-0.564,1.518-4.14,1.789-4.966l-0.732-0.241c-0.267,0.814-0.705,2.006-1.129,3.159
			c-0.198,0.538-0.398,1.081-0.584,1.596C107.329,109.225,107.549,109.373,107.767,109.525z"/>
		<path fill="#98AD3F" d="M94.359,101.896c0.088-0.668,0.49-3.987,0.584-4.621l-0.763-0.113c-0.094,0.64-0.48,3.818-0.56,4.43
			C93.867,101.69,94.113,101.795,94.359,101.896z"/>
		<path fill="#98AD3F" d="M96.234,102.721c0.388-0.532,0.763-1.075,1.104-1.586c0.421-0.633,0.818-1.23,1.141-1.613l-0.59-0.496
			c-0.349,0.416-0.741,1.002-1.193,1.683c-0.361,0.544-0.759,1.134-1.17,1.689C95.764,102.503,95.998,102.611,96.234,102.721z"/>
		<path fill="#98AD3F" d="M82.11,98.615c0.089-0.447,0.833-4.175,1.006-5.093l-0.758-0.144c-0.172,0.916-0.927,4.699-1.021,5.175
			C81.594,98.574,81.853,98.588,82.11,98.615z"/>
		<path fill="#98AD3F" d="M119.825,118.826c0.12-0.381,0.247-0.771,0.375-1.164c0.372-1.143,0.757-2.325,0.92-3.052l-0.75-0.169
			c-0.156,0.691-0.537,1.855-0.903,2.982c-0.096,0.295-0.193,0.593-0.287,0.885C119.395,118.48,119.609,118.653,119.825,118.826z"/>
		<path fill="#98AD3F" d="M132.497,128.071c0.232,0.134,0.465,0.263,0.698,0.392c0.352-0.353,2.528-2.565,3.01-3.03l-0.534-0.555
			c-0.485,0.468-1.195,1.189-1.906,1.911C133.321,127.24,132.886,127.682,132.497,128.071z"/>
		<path fill="#98AD3F" d="M120.905,119.689c0.268-0.182,2.792-1.887,3.345-2.264l-0.436-0.637c-0.552,0.377-3.21,2.174-3.54,2.396
			C120.484,119.354,120.695,119.521,120.905,119.689z"/>
		<path fill="#98AD3F" d="M132.187,127.898c0.406-1.415,0.785-3.35,0.967-4.497l-0.761-0.12c-0.181,1.142-0.529,2.89-0.889,4.199
			C131.731,127.621,131.958,127.763,132.187,127.898z"/>
		<path fill="#98AD3F" d="M108.051,109.723c0.235,0.168,0.474,0.332,0.709,0.502c0.323-0.164,0.653-0.332,0.988-0.5
			c1.12-0.561,2.278-1.141,2.89-1.551l-0.43-0.64c-0.571,0.384-1.706,0.952-2.806,1.501
			C108.927,109.275,108.47,109.506,108.051,109.723z"/>
		<path fill="#98AD3F" d="M46.418,114.469c0.202-0.166,0.403-0.334,0.604-0.5c-0.374-0.628-0.808-1.272-1.235-1.904
			c-0.651-0.967-1.267-1.879-1.617-2.65l-0.702,0.318c0.377,0.83,1.01,1.77,1.68,2.762
			C45.595,113.155,46.042,113.826,46.418,114.469z"/>
		<path fill="#98AD3F" d="M35.775,122.617c0.223-0.147,0.444-0.296,0.666-0.446c-0.139-0.43-0.292-0.882-0.447-1.33
			c-0.347-1.01-0.707-2.054-0.833-2.72l-0.757,0.144c0.137,0.72,0.504,1.79,0.861,2.826
			C35.443,121.61,35.624,122.136,35.775,122.617z"/>
		<path fill="#98AD3F" d="M45.312,115.381l-4.095-2.541l-0.406,0.655l3.873,2.403C44.893,115.728,45.102,115.555,45.312,115.381z"/>
		<path fill="#98AD3F" d="M34.908,123.179c0.239-0.152,0.478-0.304,0.715-0.46c-0.445-0.282-0.934-0.588-1.417-0.89
			c-0.925-0.576-1.882-1.173-2.459-1.574l-0.44,0.633c0.593,0.413,1.559,1.014,2.492,1.596
			C34.173,122.718,34.549,122.953,34.908,123.179z"/>
		<path fill="#98AD3F" d="M79.208,98.439c0.261,0.006,0.521,0.007,0.782,0.02c-0.09-0.589-0.179-1.223-0.267-1.846
			c-0.176-1.242-0.357-2.526-0.537-3.426l-0.756,0.149c0.175,0.879,0.356,2.152,0.529,3.384
			C79.042,97.301,79.125,97.885,79.208,98.439z"/>
		<path fill="#98AD3F" d="M69.2,99.846c-0.141-1.426-0.395-3.191-0.621-4.564l-0.761,0.124c0.234,1.42,0.499,3.263,0.633,4.688
			C68.7,100.008,68.949,99.924,69.2,99.846z"/>
		<path fill="#98AD3F" d="M67.208,100.542c0.274-0.105,0.548-0.213,0.826-0.312c-0.403-0.34-3.08-2.621-3.707-3.125l-0.482,0.602
			c0.622,0.5,1.521,1.266,2.419,2.031C66.583,100.012,66.899,100.28,67.208,100.542z"/>
		<path fill="#98AD3F" d="M55.647,107.105c0.22-0.16,0.439-0.32,0.661-0.479c-0.441-0.307-0.915-0.642-1.384-0.974
			c-1.031-0.729-2.096-1.483-2.773-1.902l-0.405,0.656c0.657,0.405,1.712,1.153,2.733,1.876
			C54.874,106.562,55.268,106.84,55.647,107.105z"/>
		<path fill="#98AD3F" d="M56.649,106.382c0.221-0.157,0.445-0.31,0.668-0.464c-0.173-0.593-0.361-1.214-0.546-1.827
			c-0.335-1.104-0.65-2.147-0.814-2.813l-0.748,0.184c0.168,0.686,0.487,1.74,0.824,2.854
			C56.245,105.012,56.458,105.719,56.649,106.382z"/>
	</g>
	<path fill="#3A893E" d="M99.432,152.832c-3.139,0.012-6.276-0.057-9.396-0.177c-1.063-0.042-2.122-0.11-3.183-0.171
		c-0.744,3.377-1.917,6.724-2.896,9.551H92.6c2.946-2.938,5.159-5.422,6.849-9.143C99.442,152.872,99.438,152.853,99.432,152.832z"
		/>
	<path fill="#3A893E" d="M52.195,148.184c-2.117-0.347-4.234-0.696-6.352-1.044c-0.862,5.274-3.473,11.035-5.132,14.749h8.584
		c1.866-1.484,3.47-2.849,4.899-4.399C53.991,154.312,53.321,151.162,52.195,148.184z"/>
	<g opacity="0.21">
		<path fill="#FFFFFF" d="M13.321,133.917c4.728-1.709,9.986-2.351,14.831-4.44c16.206-6.993,27.164-24.486,44.492-27.848
			c10.053-1.951,20.501,1.514,29.435,6.83c8.852,5.269,16.477,12.333,24.744,18.478c4.453,3.309,9.325,6.449,14.834,7.107
			c5.766,0.689,11.668-1.522,16.063-5.315c3.235-2.791,5.695-6.375,7.464-10.281c0.771-2.237,1.331-4.561,1.643-6.964
			c-1.734,5.54-4.71,10.792-9.106,14.585c-4.396,3.791-10.298,6.005-16.063,5.315c-5.509-0.658-10.381-3.799-14.834-7.108
			c-8.268-6.145-15.893-13.209-24.744-18.477c-8.934-5.317-19.382-8.782-29.435-6.831c-17.328,3.362-28.286,20.854-44.492,27.848
			c-4.449,1.92-9.223,3.005-13.675,4.918s-8.741,4.871-10.761,9.275c0.361,0.239-0.391-0.209,0,0
			C6.302,137.216,9.651,135.245,13.321,133.917z"/>
	</g>
	<path fill="#006838" d="M3.716,141.009c0.024,0.004-0.013,0.055-0.056-0.066c0.219,0.03,0.537,0.14,0.91,0.146
		c0.368,0.035,0.781,0.089,1.247,0.074c0.456,0.044,0.943-0.037,1.428-0.039c0.24-0.038,0.479-0.078,0.717-0.102
		c0.241-0.012,0.465-0.084,0.69-0.12c0.454-0.069,0.862-0.187,1.224-0.277c0.37-0.07,0.654-0.195,0.874-0.253
		c0.213-0.068,0.347-0.095,0.347-0.095s-0.087,0.096-0.263,0.241c-0.181,0.13-0.411,0.397-0.768,0.562
		c-0.17,0.099-0.365,0.188-0.567,0.294c-0.204,0.104-0.438,0.151-0.672,0.234c-0.469,0.169-0.999,0.215-1.521,0.281
		c-0.528,0.003-1.056,0.023-1.544-0.07c-0.487-0.059-0.939-0.198-1.312-0.335c-0.382-0.113-0.565-0.327-0.771-0.421
		C3.486,140.945,3.716,141.009,3.716,141.009z"/>
	<path fill="#006838" d="M13.485,135.131c0,0-0.002,0.128-0.024,0.346c-0.026,0.113-0.009,0.238,0.022,0.362
		c0.015,0.126,0.048,0.261,0.114,0.419c0.04,0.156,0.133,0.307,0.223,0.464c0.077,0.165,0.235,0.29,0.345,0.443
		c0.152,0.117,0.291,0.259,0.469,0.332c0.133,0.118,0.412,0.131,0.475,0.186c0.237-0.001,0.531,0.027,0.651-0.043
		c0.154-0.017,0.344-0.117,0.521-0.192c0.149-0.119,0.338-0.201,0.458-0.343c0.131-0.131,0.264-0.256,0.346-0.4
		c0.105-0.136,0.179-0.271,0.229-0.404c0.064-0.129,0.112-0.248,0.116-0.352c0.036-0.206,0.067-0.337,0.067-0.337
		s0.04,0.113,0.091,0.34c0.036,0.113,0.038,0.251,0.024,0.414c0.002,0.167-0.019,0.354-0.101,0.544
		c-0.051,0.205-0.161,0.398-0.299,0.597c-0.121,0.21-0.322,0.375-0.518,0.555c-0.232,0.137-0.441,0.317-0.772,0.385
		c-0.34,0.114-0.549,0.08-0.803,0.1c-0.408-0.084-0.633-0.133-0.901-0.306c-0.274-0.124-0.452-0.353-0.647-0.54
		c-0.152-0.221-0.313-0.43-0.385-0.664c-0.091-0.227-0.156-0.444-0.161-0.659c-0.038-0.201-0.018-0.404,0.023-0.581
		c0.026-0.178,0.062-0.312,0.119-0.403c0.097-0.196,0.164-0.306,0.164-0.306c0.023-0.039,0.074-0.051,0.114-0.027
		C13.471,135.074,13.485,135.102,13.485,135.131z"/>
	<path fill="#D4D665" d="M142.332,138.128c-4.582,1.022-12.899,0.775-22.456,0.213c0.396,4.154-2.056,12.925-2.181,13.242
		c6.788-0.987,13.249-2.641,19.559-5.367c7.728-3.341,14.356-7.718,19.752-14.047C153.084,135.101,147.146,137.053,142.332,138.128z
		"/>
	<path fill="#B0E465" d="M158.192,127.291c-0.478,0.47-1.791,1.568-1.94,1.574c-1.473-2.396-2.286-5.192-2.326-8.004
		C155.608,122.836,157.257,124.872,158.192,127.291z"/>
	<path fill="#B0E465" d="M161.089,124.169c-0.76-2.273-2.138-4.567-3.753-6.34c0.211,2.749,1.197,5.434,2.814,7.667
		C160.614,125.19,160.893,124.688,161.089,124.169z"/>
	<path fill="#B0E465" d="M163.173,120.248c-0.761-2.274-2.139-4.568-3.754-6.341c0.211,2.749,1.197,5.435,2.814,7.668
		C162.698,121.271,162.976,120.768,163.173,120.248z"/>
	<ellipse fill="#D4D665" cx="78.358" cy="102.725" rx="4.022" ry="1.254"/>
	<ellipse fill="#D4D665" cx="89.502" cy="103.848" rx="2.078" ry="1.121"/>
	<ellipse fill="#D4D665" cx="67.788" cy="104.786" rx="1.929" ry="0.939"/>
	<ellipse fill="#D4D665" cx="74.515" cy="106.616" rx="1.336" ry="0.89"/>
	<ellipse fill="#D4D665" cx="83.27" cy="106.616" rx="1.583" ry="0.89"/>
	<ellipse fill="#D4D665" cx="90.64" cy="109.814" rx="3.215" ry="1.318"/>
	<ellipse fill="#D4D665" cx="95.34" cy="106.171" rx="1.484" ry="0.445"/>
	<ellipse fill="#D4D665" cx="62.347" cy="108.389" rx="2.918" ry="0.884"/>
	<ellipse fill="#D4D665" cx="69.701" cy="108.832" rx="0.775" ry="0.44"/>
	<ellipse fill="#D4D665" cx="99.396" cy="108.424" rx="0.792" ry="0.408"/>
	<ellipse fill="#D4D665" cx="103.749" cy="110.145" rx="0.594" ry="0.329"/>
	<ellipse fill="#D4D665" cx="55.03" cy="110.804" rx="0.837" ry="0.329"/>
	<path fill="#3A893E" d="M111.705,163.928c0.043-0.806-0.054-2.205-0.415-2.946s-1.245-1.354-2.153-1.211
		c-0.829,0.13-1.404,0.847-1.541,1.574c-0.136,0.727-0.146,0.55,0.061,1.264c-0.009-0.764-0.016-0.791-0.384-1.483
		c-0.369-0.693-1.188-1.263-2.056-1.163c-0.85,0.1-1.469,0.812-1.634,1.547c-0.166,0.735-0.324,0.147-0.137,0.878
		c0.087-0.896,0.25-0.383-0.249-1.171c-0.496-0.787-1.8-1.247-2.589-0.67c-0.913,0.669-0.481,2.572-1.232,3.382
		C99.376,163.928,108.693,164.026,111.705,163.928z"/>
	<path fill="#3A6D3E" d="M92.023,160.079c-0.216-0.496-0.78-0.922-1.38-0.854c-0.549,0.063-0.944,0.519-1.055,0.991
		c-0.022,0.096-0.037,0.154-0.05,0.212c-0.032-0.095-0.076-0.198-0.156-0.364c-0.223-0.464-0.747-0.861-1.318-0.818
		c-0.562,0.041-0.986,0.491-1.115,0.97c-0.016,0.057-0.03,0.099-0.043,0.134c-0.02-0.048-0.075-0.118-0.202-0.336
		c-0.305-0.53-1.147-0.868-1.681-0.512c-0.619,0.415-0.742,1.892-1.066,2.533c0,0,6.279-0.026,8.26-0.01
		C92.266,161.498,92.241,160.576,92.023,160.079z"/>
	<path fill="#3A893E" d="M63.548,161.74c-0.296-0.671-1.021-1.227-1.766-1.097c-0.68,0.117-1.152,0.768-1.263,1.425
		c-0.021,0.12-0.036,0.207-0.049,0.283c-0.046-0.124-0.113-0.267-0.216-0.481c-0.302-0.628-0.976-1.143-1.687-1.053
		c-0.697,0.09-1.204,0.734-1.34,1.398c-0.019,0.094-0.034,0.172-0.047,0.242c-0.06-0.136-0.144-0.289-0.268-0.506
		c-0.408-0.713-1.477-1.129-2.124-0.606c-0.75,0.604-0.383,1.922-0.999,2.654h9.829C63.652,163.271,63.844,162.41,63.548,161.74z"/>
	<path fill="#3A6D3E" d="M49.405,159.997c-0.195-0.588-0.774-1.12-1.434-1.085c-0.603,0.032-1.074,0.527-1.232,1.064
		c-0.03,0.103-0.053,0.176-0.071,0.239c-0.027-0.11-0.068-0.234-0.141-0.432c-0.204-0.55-0.742-1.047-1.368-1.039
		c-0.615,0.006-1.116,0.494-1.296,1.034c-0.029,0.087-0.045,0.144-0.065,0.206c-0.039-0.12-0.093-0.256-0.184-0.456
		c-0.289-0.634-0.917-1.012-1.529-0.64c-0.708,0.431-0.77,2.45-1.374,2.999h8.543C49.353,161.286,49.6,160.585,49.405,159.997z"/>
	<g>
		<path fill="#D4D665" d="M48.912,141.382c-0.168-0.25-0.316-0.513-0.453-0.782c-5.821,1.354-12.703,2.883-23.702,4.305
			c4.373,0.141,8.76,0.272,12.709,0.888c4.973,0.774,9.934,1.607,14.892,2.419C51.49,145.806,50.34,143.503,48.912,141.382z"/>
		<path fill="#D4D665" d="M95.493,140.045c-0.18-1.044-0.265-2.124-0.243-3.199c-2.393-0.107-4.741-0.188-7.006-0.229
			c-7.886-0.137-13.856,0.018-18.76,0.384c0.084,0.257,0.18,0.511,0.252,0.771c1.121,4.05,0.858,8.381-0.059,12.482
			c-0.042,0.188-0.095,0.367-0.14,0.554c6.798,0.895,13.62,1.58,20.498,1.847c3.158,0.121,6.335,0.189,9.515,0.175
			c-0.113-0.41-0.23-0.817-0.358-1.219C97.974,147.746,96.179,144.04,95.493,140.045z"/>
	</g>
	<path fill="#FBD75C" d="M157.006,132.169c-5.396,6.329-12.024,10.706-19.752,14.047c-6.31,2.727-12.771,4.38-19.559,5.367
		c0.121-0.31,2.577-9.088,2.181-13.242c9.557,0.562,17.874,0.81,22.456-0.213C147.146,137.053,153.084,135.101,157.006,132.169z
		 M48.912,141.382c-0.168-0.25-0.316-0.513-0.453-0.782c-5.821,1.354-12.703,2.883-23.702,4.305
		c4.373,0.141,8.76,0.272,12.709,0.888c4.973,0.774,9.934,1.607,14.892,2.419C51.49,145.806,50.34,143.503,48.912,141.382z
		 M95.493,140.045c-0.18-1.044-0.265-2.124-0.243-3.199c-2.393-0.107-4.741-0.188-7.006-0.229
		c-7.886-0.137-13.856,0.018-18.76,0.384c0.084,0.257,0.18,0.511,0.252,0.771c1.121,4.05,0.858,8.381-0.059,12.482
		c-0.042,0.188-0.095,0.367-0.14,0.554c6.798,0.895,13.62,1.58,20.498,1.847c3.158,0.121,6.335,0.189,9.515,0.175
		c-0.113-0.41-0.23-0.817-0.358-1.219C97.974,147.746,96.179,144.04,95.493,140.045z"/>
	<g>
		<path fill="#FBB040" d="M40.596,142.325c-0.223,0.045-0.448,0.09-0.675,0.134l-0.419,0.113c0.317,1.181,0.508,2.403,0.572,3.632
			c0.375,0.061,0.751,0.12,1.126,0.18C41.146,145.013,40.946,143.645,40.596,142.325z"/>
		<path fill="#FBB040" d="M74.625,151.433c0.576-4.902,0.137-9.908-1.324-14.662c-0.391,0.019-0.776,0.038-1.154,0.059
			c1.482,4.687,1.934,9.635,1.364,14.479C73.882,151.352,74.254,151.39,74.625,151.433z"/>
		<path fill="#FBB040" d="M44.32,146.89c0.062-1.758-0.122-3.53-0.548-5.23c-0.36,0.079-0.726,0.157-1.097,0.235
			c0.396,1.563,0.573,3.193,0.528,4.814C43.575,146.77,43.948,146.829,44.32,146.89z"/>
		<path fill="#FBB040" d="M38.519,145.889c-0.029-1.04-0.164-2.075-0.394-3.082c-0.363,0.068-0.732,0.138-1.107,0.205
			c0,0,0.316,2.371,0.359,2.768c0.029,0.005,0.06,0.009,0.089,0.013c0.353,0.056,0.705,0.111,1.058,0.167
			C38.521,145.936,38.521,145.913,38.519,145.889z"/>
		<path fill="#FBB040" d="M94.019,152.774c0.378,0.009,0.757,0.017,1.135,0.023c0.834-5.327,0.458-10.816-1.133-16.006
			c-0.396-0.017-0.791-0.03-1.185-0.046C94.489,141.932,94.879,147.439,94.019,152.774z"/>
		<path fill="#FBB040" d="M149.847,135.903c-0.35,0.133-0.701,0.261-1.055,0.384c0.377,0.915,0.658,1.862,0.851,2.827
			c0.327-0.251,0.654-0.503,0.978-0.762C150.425,137.52,150.172,136.699,149.847,135.903z"/>
		<path fill="#FBB040" d="M135.13,147.076c0.433-0.169,0.862-0.345,1.292-0.523c0.544-2.56,0.522-5.227-0.033-7.785
			c-0.373,0.016-0.75,0.027-1.139,0.036C135.877,141.523,135.833,144.378,135.13,147.076z"/>
		<path fill="#FBB040" d="M48.305,147.545c0.193-2.277,0.107-4.604-0.244-6.853c-0.36,0.083-0.726,0.168-1.095,0.253
			c0.322,2.107,0.402,4.283,0.229,6.416C47.564,147.423,47.935,147.483,48.305,147.545z"/>
		<path fill="#FBB040" d="M140.308,144.808c0.41-0.2,0.818-0.402,1.221-0.61c0.194-1.954,0.03-3.94-0.458-5.838
			c-0.356,0.055-0.73,0.104-1.118,0.149C140.498,140.554,140.617,142.712,140.308,144.808z"/>
		<path fill="#FBB040" d="M79.736,151.965c0.68-5.128,0.249-10.383-1.306-15.358c-0.395,0.008-0.782,0.017-1.165,0.025
			c1.589,4.921,2.034,10.138,1.354,15.224C78.991,151.892,79.363,151.93,79.736,151.965z"/>
		<path fill="#FBB040" d="M132.329,148.105c0.79-3.037,0.729-6.278-0.198-9.282c-0.393-0.003-0.784-0.007-1.187-0.014
			c1.05,3.134,1.081,6.573,0.098,9.724C131.473,148.395,131.9,148.251,132.329,148.105z"/>
		<path fill="#FBB040" d="M144.487,142.563c0.4-0.235,0.797-0.475,1.188-0.719c0.064-1.485-0.13-2.979-0.601-4.398
			c-0.366,0.1-0.729,0.194-1.089,0.285C144.502,139.272,144.664,140.939,144.487,142.563z"/>
		<path fill="#FBB040" d="M127.606,149.543c0.818-3.568,0.664-7.359-0.467-10.841c-0.398-0.016-0.797-0.03-1.202-0.048
			c1.256,3.582,1.406,7.545,0.439,11.216C126.788,149.767,127.196,149.652,127.606,149.543z"/>
		<path fill="#FBB040" d="M83.741,152.297c0.373,0.028,0.747,0.05,1.121,0.075c0.76-5.27,0.34-10.686-1.265-15.803
			c-0.396-0.001-0.787-0.001-1.172-0.001C84.077,141.651,84.511,147.052,83.741,152.297z"/>
		<path fill="#FBB040" d="M89.999,152.653c0.813-5.337,0.411-10.833-1.205-16.023c-0.183-0.004-0.969-0.018-1.179-0.021
			c1.673,5.168,2.086,10.663,1.255,15.99C89.247,152.615,89.622,152.638,89.999,152.653z"/>
		<path fill="#FBB040" d="M122.046,150.834c0.403-0.079,0.808-0.154,1.211-0.24c0.899-3.942,0.986-8.099,0.234-12.055
			c-0.382-0.02-0.765-0.038-1.15-0.06C123.152,142.528,123.041,146.808,122.046,150.834z"/>
	</g>
	<g opacity="0.2">
		<path fill="#755A29" d="M126.22,145.271c-2.303,0.36-4.876,0.678-7.193,0.907c-0.352,1.534-1.206,5.087-1.331,5.404
			c0.13-0.019,0.078-0.015,0.207-0.033c0.767-0.115,1.533-0.236,2.295-0.369c0.068-0.013,1.738-0.317,2.501-0.473
			c0.081-0.016,1.736-0.368,2.478-0.543c0.133-0.031,1.776-0.436,2.46-0.62c0.182-0.049,0.36-0.104,0.541-0.155
			c0.635-0.175,1.268-0.353,1.898-0.545c0.281-0.086,0.558-0.183,0.839-0.272c0.526-0.168,1.054-0.332,1.576-0.512
			c0.418-0.145,0.831-0.304,1.246-0.456c0.384-0.141,0.769-0.272,1.148-0.42c0.795-0.308,1.584-0.63,2.369-0.969
			c5.308-2.295,10.367-5.393,14.766-9.156C144.051,141.3,135.169,143.866,126.22,145.271z"/>
		<path fill="#755A29" d="M95.42,152.799c1.377,0.022,2.753,0.037,4.131,0.031c-0.113-0.41-0.23-0.817-0.358-1.219
			c-0.491-1.562-1.078-3.101-1.648-4.641c-2.449-0.01-20.615-0.262-27.25-0.435c-0.138,1.251-0.343,2.496-0.616,3.719
			c-0.042,0.188-0.095,0.367-0.14,0.554c1.261,0.166,9.739,1.113,10.239,1.16c1.255,0.116,4.67,0.382,5.121,0.411
			c1.71,0.116,3.422,0.209,5.138,0.275C91.609,152.716,95.203,152.795,95.42,152.799z"/>
	</g>
	<g opacity="0.2">
		<path fill="#755A29" d="M51.374,145.824c-6.604-0.338-15.756-1.088-22.877-1.705c-0.684-0.075-7.816-0.242-10.553-0.489
			c-3.272-0.296-7.533-0.29-10.74-0.911c4.742,1.487,11.574,1.989,17.554,2.186c0.122,0.041,0.575,0.039,1.031,0.035
			c0.542,0.019,5.229,0.222,5.825,0.259c0.654,0.078,1.328,0.165,1.76,0.132c0.462,0.039,0.928,0.073,1.383,0.12
			c0.131,0.013,0.261,0.028,0.391,0.042c0.786,0.087,1.562,0.182,2.318,0.3c2.484,0.387,12.411,2.013,14.892,2.419
			C52.066,147.4,51.73,146.607,51.374,145.824z"/>
	</g>
	<ellipse fill="#3A893E" cx="103.749" cy="152.153" rx="1.425" ry="2.469"/>
	<ellipse fill="#3A893E" cx="56.895" cy="152.832" rx="1.426" ry="1.825"/>
</g>
</svg>
