<?xml version="1.0" encoding="UTF-8" standalone="no"?>
<!-- Created with Inkscape (http://www.inkscape.org/) -->

<svg
   xmlns:dc="http://purl.org/dc/elements/1.1/"
   xmlns:cc="http://creativecommons.org/ns#"
   xmlns:rdf="http://www.w3.org/1999/02/22-rdf-syntax-ns#"
   xmlns:svg="http://www.w3.org/2000/svg"
   xmlns="http://www.w3.org/2000/svg"
   xmlns:xlink="http://www.w3.org/1999/xlink"
   xmlns:sodipodi="http://sodipodi.sourceforge.net/DTD/sodipodi-0.dtd"
   xmlns:inkscape="http://www.inkscape.org/namespaces/inkscape"
   width="299.44727"
   height="357.08078"
   id="svg4689"
   version="1.1"
   inkscape:version="0.48.4 r9939"
   sodipodi:docname="Nouveau document 10">
  <defs
     id="defs4691">
    <linearGradient
       id="linearGradient5585">
      <stop
         style="stop-color:#ffef6d;stop-opacity:1;"
         offset="0"
         id="stop5587" />
      <stop
         style="stop-color:#ffb22a;stop-opacity:1;"
         offset="1"
         id="stop5589" />
    </linearGradient>
    <linearGradient
       inkscape:collect="always"
       id="linearGradient5576">
      <stop
         style="stop-color:#ffffff;stop-opacity:1;"
         offset="0"
         id="stop5578" />
      <stop
         style="stop-color:#ffffff;stop-opacity:0;"
         offset="1"
         id="stop5580" />
    </linearGradient>
    <linearGradient
       id="linearGradient5535">
      <stop
         style="stop-color:#ffd1e8;stop-opacity:0;"
         offset="0"
         id="stop5537" />
      <stop
         style="stop-color:#ff84c2;stop-opacity:1;"
         offset="1"
         id="stop5539" />
    </linearGradient>
    <linearGradient
       id="linearGradient5514">
      <stop
         style="stop-color:#ff75a4;stop-opacity:1;"
         offset="0"
         id="stop5516" />
      <stop
         style="stop-color:#ff1b69;stop-opacity:1;"
         offset="1"
         id="stop5518" />
    </linearGradient>
    <linearGradient
       id="linearGradient5506">
      <stop
         style="stop-color:#f619ff;stop-opacity:1;"
         offset="0"
         id="stop5508" />
      <stop
         style="stop-color:#fedbff;stop-opacity:1;"
         offset="1"
         id="stop5510" />
    </linearGradient>
    <linearGradient
       id="linearGradient5490">
      <stop
         style="stop-color:#ffd1e8;stop-opacity:1;"
         offset="0"
         id="stop5492" />
      <stop
         style="stop-color:#ffa1d0;stop-opacity:1;"
         offset="1"
         id="stop5494" />
    </linearGradient>
    <linearGradient
       inkscape:collect="always"
       id="linearGradient5460">
      <stop
         style="stop-color:#ffffff;stop-opacity:1;"
         offset="0"
         id="stop5462" />
      <stop
         style="stop-color:#ffffff;stop-opacity:0;"
         offset="1"
         id="stop5464" />
    </linearGradient>
    <linearGradient
       inkscape:collect="always"
       xlink:href="#linearGradient5460"
       id="linearGradient5466"
       x1="313.71429"
       y1="229.42027"
       x2="325.23535"
       y2="299.59885"
       gradientUnits="userSpaceOnUse" />
    <linearGradient
       inkscape:collect="always"
       xlink:href="#linearGradient5460"
       id="linearGradient5488"
       x1="447.70752"
       y1="377.06201"
       x2="432.05634"
       y2="402.82089"
       gradientUnits="userSpaceOnUse" />
    <linearGradient
       inkscape:collect="always"
       xlink:href="#linearGradient5490"
       id="linearGradient5496"
       x1="364.26022"
       y1="356.28458"
       x2="361.98334"
       y2="336.83914"
       gradientUnits="userSpaceOnUse" />
    <linearGradient
       inkscape:collect="always"
       xlink:href="#linearGradient5490"
       id="linearGradient5504"
       x1="354.41165"
       y1="439.15817"
       x2="381.76489"
       y2="436.38025"
       gradientUnits="userSpaceOnUse" />
    <linearGradient
       inkscape:collect="always"
       xlink:href="#linearGradient5506"
       id="linearGradient5512"
       x1="318.38745"
       y1="326.56235"
       x2="318.13492"
       y2="314.18799"
       gradientUnits="userSpaceOnUse" />
    <linearGradient
       inkscape:collect="always"
       xlink:href="#linearGradient5514"
       id="linearGradient5520"
       x1="322.73413"
       y1="349.12457"
       x2="322.29916"
       y2="341.92725"
       gradientUnits="userSpaceOnUse" />
    <linearGradient
       inkscape:collect="always"
       xlink:href="#linearGradient5535"
       id="linearGradient5541"
       x1="354.14285"
       y1="275.76785"
       x2="314.38501"
       y2="264.875"
       gradientUnits="userSpaceOnUse" />
    <linearGradient
       inkscape:collect="always"
       xlink:href="#linearGradient5576"
       id="linearGradient5582"
       x1="296.22464"
       y1="223.82175"
       x2="312.84158"
       y2="221.04382"
       gradientUnits="userSpaceOnUse" />
    <linearGradient
       inkscape:collect="always"
       xlink:href="#linearGradient5585"
       id="linearGradient5591"
       x1="305.55072"
       y1="215.52223"
       x2="316.17923"
       y2="214.45081"
       gradientUnits="userSpaceOnUse" />
    <linearGradient
       inkscape:collect="always"
       xlink:href="#linearGradient5576"
       id="linearGradient5606"
       gradientUnits="userSpaceOnUse"
       x1="318.33847"
       y1="308.09689"
       x2="320.23386"
       y2="329.52548" />
    <filter
       inkscape:collect="always"
       id="filter5610"
       x="-0.063476004"
       width="1.1269521"
       y="-0.32126632"
       height="1.6425326"
       color-interpolation-filters="sRGB">
      <feGaussianBlur
         inkscape:collect="always"
         stdDeviation="7.0277008"
         id="feGaussianBlur5612" />
    </filter>
  </defs>
  <sodipodi:namedview
     id="base"
     pagecolor="#ffffff"
     bordercolor="#666666"
     borderopacity="1.0"
     inkscape:pageopacity="0.0"
     inkscape:pageshadow="2"
     inkscape:zoom="1.4"
     inkscape:cx="216.55054"
     inkscape:cy="184.9732"
     inkscape:document-units="px"
     inkscape:current-layer="layer1"
     showgrid="false"
     fit-margin-top="0"
     fit-margin-left="0"
     fit-margin-right="0"
     fit-margin-bottom="0"
     inkscape:window-width="1871"
     inkscape:window-height="1056"
     inkscape:window-x="49"
     inkscape:window-y="24"
     inkscape:window-maximized="1" />
  <metadata
     id="metadata4694">
    <rdf:RDF>
      <cc:Work
         rdf:about="">
        <dc:format>image/svg+xml</dc:format>
        <dc:type
           rdf:resource="http://purl.org/dc/dcmitype/StillImage" />
        <dc:title></dc:title>
      </cc:Work>
    </rdf:RDF>
  </metadata>
  <g
     inkscape:label="Calque 1"
     inkscape:groupmode="layer"
     id="layer1"
     transform="translate(-214.20495,-147.14789)">
    <path
       sodipodi:type="arc"
       style="fill:#ff49a4;fill-opacity:0.70980392;stroke:none;filter:url(#filter5610)"
       id="path5608"
       sodipodi:cx="375.35715"
       sodipodi:cy="475.39789"
       sodipodi:rx="132.85715"
       sodipodi:ry="26.25"
       d="m 508.21429,475.39789 c 0,14.49747 -59.48217,26.25 -132.85714,26.25 -73.37498,0 -132.85715,-11.75253 -132.85715,-26.25 0,-14.49748 59.48217,-26.25 132.85715,-26.25 73.37497,0 132.85714,11.75252 132.85714,26.25 z"
       transform="translate(-11.428571,-14.285714)" />
    <path
       style="fill:#960067;fill-opacity:1;stroke:none"
       d="m 297.1875,147.15625 c -0.10874,0.0123 -0.21001,0.0402 -0.3125,0.0937 -3.88399,3.25862 -2.39128,9.84461 -3.15625,14.46875 -0.13059,5.13961 0.32309,10.25483 1,15.34375 -1.35848,2.54054 -2.17602,5.31305 -2.15625,8.40625 -0.40516,4.19111 0.3021,8.65961 2.875,12.03125 -1.61013,2.66908 -2.61619,5.61975 -2.4375,9.0625 -0.19343,3.91803 0.95306,7.72938 3.0625,11 -1.0108,1.42234 -1.34792,3.01353 -1.6875,4.5625 -13.9658,2.67325 -28.10249,8.15918 -37.53125,18.875 -11.292,-2.55861 -20.19749,-10.70889 -26.8125,-19.8125 -1.42244,17.82031 1.2167,39.14787 16.875,50.15625 4.44524,1.59661 0.56676,7.30437 1.59375,10.84375 -0.26822,7.52554 1.03666,15.31889 3.09375,22.21875 -6.03834,5.04697 -8.0324,14.39775 -5.9375,21.75 1.84897,1.54014 3.99337,-2.08439 3.84375,-1.875 0.78669,8.86469 7.69193,15.14418 14.78125,19.65625 -0.97461,-3.44231 -2.36675,-6.8463 -2.4375,-10.46875 6.54207,7.9438 17.53068,12.71268 27.8125,10.46875 -2.94879,-3.74665 3.31693,1.02125 5.0625,1.0625 1.2403,0.50234 2.52537,0.91547 3.84375,1.25 -4.1803,6.29453 -5.11741,14.60883 -4.25,21.9375 0.81283,4.84447 3.07716,0.10572 2.375,5.09375 0.4306,10.92007 11.86851,17.21817 14.0625,27.375 0.01,9.37978 -0.81945,19.23006 -2.15625,28.21875 -10.48987,1.33526 -24.16581,4.0804 -27.40625,15.84375 -2.76623,9.2323 4.84967,18.06804 13.53125,19.71875 7.18426,1.36601 13.00848,1.35023 16.78125,0.8125 9.45767,-1.34798 18.29195,-7.57618 22.625,-16.1875 5.81208,8.18801 13.67718,7.21905 19.71875,8.375 5.97244,1.18881 11.82501,-1.69007 17.65625,-3.0625 0.86931,6.01314 5.42974,12.74645 14.10431,13.36028 8.67458,0.61382 15.33872,1.93527 20.08319,-2.45403 -1.05038,4.37462 0.49673,8.77114 1.5,12.78125 1.4852,-2.58491 2.57566,-4.0769 4.28125,-1.3125 8.91086,5.5492 20.30019,2.90581 30.15625,2.25 20.28376,-2.91996 42.84547,-8.00428 56.21875,-24.78125 8.34897,-10.36404 7.84767,-25.72083 0.375,-36.40625 C 488.21766,401.99577 471.96036,391.78159 457,381.1875 446.66893,368.45372 434.77722,356.1441 418.46875,351.625 c -10.87509,-3.42568 -22.90666,-4.21002 -32.0625,-11.84375 -1.60039,-0.9515 -2.98012,-1.95919 -4.0625,-2.75 -1.50453,-2.51423 -3.3075,-4.78626 -5.5,-6.6875 0.10223,-0.10056 0.20351,-0.16941 0.3125,-0.28125 4.16118,-2.6871 6.88652,-7.6318 6.3125,-12.625 2.90479,2.03251 4.88195,4.88631 7.1875,7.59375 0.96657,-8.27971 -1.03233,-17.98384 -8.0625,-22.71875 3.38198,-10.6201 4.28038,-22.33626 1.78125,-33.28125 16.55009,-12.95775 21.32132,-36.24541 16.15625,-56 l -2.625,2.46875 c -9.11928,8.51184 -19.6677,15.89542 -31.5625,19.71875 -10.54527,-8.68118 -23.22146,-15.32322 -37.25,-15.15625 -3.84051,-0.16521 -7.69019,-0.13305 -11.53125,-0.0312 1.28189,-6.63396 -0.94699,-13.31767 -4.71875,-18.78125 0.0808,-0.11673 0.17065,-0.22639 0.25,-0.34375 -4e-4,-5.50071 0.19935,-12.55837 -4.3125,-16.375 0.17546,-0.35733 0.32278,-0.72461 0.46875,-1.09375 0.27214,-5.79946 -1.66127,-11.31851 -4.4375,-16.3125 0.33316,-1.24401 0.3944,-2.58261 -0.0312,-4.0625 -0.99863,-5.56757 -2.05868,-12.08666 -6.59375,-15.90625 -0.32184,0.0629 -0.67378,-0.0368 -1,0 z M 373.34375,326.125 c 0.11166,0.5748 0.15202,1.1965 0.1875,1.8125 -0.24892,-0.14651 -0.4931,-0.29965 -0.75,-0.4375 -0.0831,-0.0178 -0.18931,-0.0366 -0.28125,-0.0625 0.30088,-0.43562 0.58603,-0.86717 0.84375,-1.3125 z m -34.65625,87.6875 c 3.71295,1.95768 7.73222,3.21039 11.65625,4.625 l 1.03125,2 c 1.88674,3.91019 5.03782,7.98367 6.875,11.28125 -6.96774,0.006 -15.47664,0.46377 -20.9375,5.03125 1.08592,-7.60776 1.10669,-15.71157 1.375,-22.9375 z m 113.5,13.03125 c 5.13881,1.96922 12.83882,5.73061 12.84375,12 -5.91268,5.38213 -16.61211,3.0784 -20.125,2.45089 3.53005,-2.72505 4.83856,-9.29025 4.375,-13.04464 0.97137,-0.45573 1.92928,-0.97516 2.90625,-1.40625 z"
       id="path4880"
       inkscape:connector-curvature="0"
       sodipodi:nodetypes="ccccccccccccccccccccccccccsscccsccccccccccccccccccccccccccccccccccccccccccccc" />
    <path
       style="fill:#ffd1e8;fill-opacity:1;stroke:none"
       d="m 399.25,216.96875 c -17.93021,16.92006 -33.3125,20.4375 -33.3125,20.4375 -15.58346,-11.51821 -21.74092,-16.1462 -47.78125,-15.375 4.2985,4.53577 4.75633,11.9451 3.5625,17.875 -0.0917,0.10545 -0.18908,0.20732 -0.28125,0.3125 4.55921,4.29718 5.3075,11.24266 5.5,17.25 1.80485,10.68078 -8.76565,20.13103 -19.15625,17.9375 -6.22207,-0.22204 -13.5228,-5.52447 -11.09375,-12.4375 0.23865,-0.3036 0.47432,-0.60609 0.71875,-0.90625 -3.96474,-5.81387 -3.6747,-13.61893 -1.53125,-20.09375 0.30675,-0.43552 0.61702,-0.85396 0.9375,-1.28125 -4.1638,-4.15057 -3.88643,-10.62121 -2.84375,-16.40625 -27.53375,5.29229 -36.125,18.9375 -36.125,18.9375 0,0 -14.38325,-1.7565 -26,-16.65625 -1.51523,37.12311 19.4375,44.9375 19.4375,44.9375 -2.85714,22.5 3.03125,33.59375 3.03125,33.59375 -8.33376,4.04061 -7.59629,18.17735 -7.34375,19.1875 0.25254,1.01016 2.53966,-8.56504 4.8125,-8.3125 -3.03046,15.9099 8.84375,22.71875 8.84375,22.71875 0,0 -2.02284,-7.31837 0.25,-9.84375 10.10153,15.40483 25.5,13.625 25.5,13.625 l -4.53125,-7.3125 c 0,0 8.5606,8.07599 21.1875,9.84375 12.62691,1.76777 18.4375,-7.8125 18.4375,-7.8125 0,0 6.82154,7.80409 21.46875,5.53125 14.64721,-2.27284 31.16964,-15.36161 29.5625,-21.96875 3.21429,2.5 3.15625,7.90625 3.15625,7.90625 0,0 9.00446,-5.00892 4.71875,-15.1875 4.82143,1.78572 8.28125,6.03125 8.28125,6.03125 0,0 0.69196,-11.79911 -8.59375,-15.90625 6.96429,-19.82143 2.03125,-35.375 2.03125,-35.375 0,0 23.97478,-15.64212 17.15625,-51.25 z m -51.85031,85.99554 c 6.13642,0.11143 9.88984,3.05539 9.88984,3.05539 l 6.19708,-2.9099 -5.85751,8.39022 c 0,0 -3.07926,-6.28883 -10.22941,-5.28632 -7.15015,1.00246 -10.99344,3.24939 -10.99344,3.24939 0,0 4.85701,-6.61021 10.99344,-6.49878 z m -56.82072,4.20982 c 5.55815,-0.0653 10.32728,4.84235 10.32728,4.84235 0,0 -4.00053,-1.62834 -11.12491,-1.71972 -7.12438,-0.0914 -9.57162,6.10951 -9.57162,6.10951 l -6.54901,-7.15039 6.38109,2.03651 c 0,0 3.3819,-3.20488 9.40369,-4.02775 0.37637,-0.0514 0.76294,-0.0861 1.13348,-0.0905 z m 28.13978,4.35714 c 5.90982,-0.19178 13.91598,1.01155 16.125,7.4375 -4.48716,4.54058 -7.91585,10.91689 -13.90625,13.53125 -6.45016,-1.50106 -10.47438,-8.16537 -15.5625,-12.09375 1.90183,-5.55241 7.72125,-8.7864 13.34375,-8.875 z"
       id="path4762"
       inkscape:connector-curvature="0"
       sodipodi:nodetypes="ccccccccccccccccscccccscscccccccscccscsccscccccccccc" />
    <path
       style="fill:url(#linearGradient5466);fill-opacity:1;stroke:none"
       d="m 396.3125,224.84375 -0.78125,0.65625 -0.5625,0.46875 c -8.83996,7.09408 -18.87325,12.96714 -29.875,15.84375 -10.67384,-9.05365 -23.9416,-16.23173 -38.5,-15.75 -2.18552,0.0723 -3.97224,0.10213 -5.78125,0.15625 1.75572,4.21924 1.7803,9.34597 0.90625,13.6875 -0.0917,0.10545 -0.18908,0.20732 -0.28125,0.3125 4.55921,4.29718 5.3075,11.24266 5.5,17.25 1.80485,10.68078 -8.76565,20.13103 -19.15625,17.9375 -6.22207,-0.22204 -13.5228,-5.52447 -11.09375,-12.4375 0.23865,-0.3036 0.47432,-0.60609 0.71875,-0.90625 -3.96474,-5.81387 -3.6747,-13.61893 -1.53125,-20.09375 0.30675,-0.43552 0.61702,-0.85396 0.9375,-1.28125 -3.0789,-3.06912 -3.72908,-7.42148 -3.4375,-11.8125 -1.34187,0.1896 -2.56022,0.34206 -4.0625,0.5625 -11.39345,1.67185 -22.99852,8.0294 -29.53125,18.09375 -8.87369,-0.95368 -17.14726,-5.11991 -23.78125,-10.84375 0.93738,12.83296 6.42816,27.67656 19.625,32.21875 -1.65094,12.84403 -2.33229,26.68902 4.1875,38.375 54.66143,-3.19685 99.83453,-5.33601 115.875,-3.25 4.47029,-11.9394 5.61499,-25.31123 1.8125,-37.53125 13.77665,-8.57748 20.30349,-25.8233 18.8125,-41.65625 z"
       id="path5454"
       inkscape:connector-curvature="0"
       sodipodi:nodetypes="ccccsccccccccccsccccccc" />
    <path
       style="fill:url(#linearGradient5512);fill-opacity:1;stroke:none"
       d="m 307.78085,319.93845 c 0,0 2.58852,-6.75539 12.81631,-6.43972 10.2278,0.31567 11.93243,5.1139 11.93243,5.1139 0,0 -9.78585,11.86929 -11.86929,11.93242 -2.08344,0.0631 -12.87945,-10.6066 -12.87945,-10.6066 z"
       id="path4768"
       inkscape:connector-curvature="0" />
    <path
       style="fill:url(#linearGradient5591);fill-opacity:1;stroke:none"
       d="m 297.5,149.15625 c -0.90503,0.10606 -2.92493,12.11738 -1.03125,25.53125 1.42857,-1.42857 4.42411,-5 6.65625,-7.5 -0.33459,-10.66873 -4.85869,-18.12105 -5.625,-18.03125 z m 6.15625,20.15625 c -2.75571,3.08009 -4.48558,5.01914 -7.1875,8.0625 -2.89073,7.46728 -2.49678,15.23424 0.3125,18.4375 l 10.4375,-11.71875 c 0.34629,-7.21759 -2.08129,-12.06988 -3.5625,-14.78125 z m 4.0625,16.9375 c -3.65337,4.07281 -7.09082,7.91562 -10.875,12.1875 -3.26918,7.9223 -1.62399,14.14835 0.40625,17.1875 l 13.84375,-14.78125 c 0.20922,-6.29447 -0.57651,-12.57678 -3.375,-14.59375 z m 3.9375,17.03125 c -4.48588,4.74975 -9.58389,10.16871 -14.3125,15.25 -2.83484,9.1931 -2.64458,17.82649 0.59375,20.46875 L 315.5,220.28125 c 0.9835,-6.15275 0.23745,-10.95114 -3.84375,-17 z m 4.375,19.4375 c -4.61511,4.8769 -13.17381,13.9268 -18,19.15625 -2.62862,7.36744 -2.02002,14.46412 0.625,18.28125 l 21.09375,-20.625 c 1.89876,-8.60406 -1.47349,-15.44537 -3.71875,-16.8125 z M 320.25,241.875 c -5.04883,4.91089 -16.0233,15.62671 -21.5,21.125 -3.11922,9.82144 10.46297,10.83971 12.625,10.65625 11.61884,-0.98594 13.375,-10.84375 13.375,-10.84375 0,0 1.55582,-15.6725 -4.5,-20.9375 z"
       id="path4798"
       inkscape:connector-curvature="0" />
    <path
       style="fill:url(#linearGradient5520);fill-opacity:1;stroke:none"
       d="m 321.28125,340.65625 c -2.55862,2.91182 -5.83958,4.7312 -9.40625,5.6875 0.10189,4.13261 1.71426,8.76059 8.84375,8.96875 8.69086,0.25375 13.29271,-5.93928 15.34375,-10.25 -4.50852,-0.24321 -8.90408,-1.47434 -12.875,-4 l -1.21875,6.5625 -0.6875,-6.96875 z"
       id="path4800"
       inkscape:connector-curvature="0" />
    <path
       style="fill:url(#linearGradient5496);fill-opacity:1;stroke:none"
       d="m 371.25,329.0625 c -1.79158,2.17442 -3.99035,4.18879 -6.1875,5.875 -3.2714,2.52104 -7.04303,4.7515 -11.0625,6.5 1.20954,0.47743 2.46495,1.02935 3.71875,1.65625 6.31345,3.15672 14.90625,17.0625 14.90625,17.0625 0,0 -11.63372,-13.87706 -20.09375,-16.78125 -0.66748,-0.22913 -1.38109,-0.38771 -2.09375,-0.53125 -3.94509,1.35957 -8.03918,2.20599 -12.09375,2.28125 -3.14344,6.955 -9.67322,12.68873 -17.625,12.1875 -0.49234,0.0378 -0.96575,0.0328 -1.4375,0 -0.021,0.0216 -0.0415,0.0409 -0.0625,0.0625 -9.09137,9.34392 -2.90625,23.125 -2.90625,23.125 0,0 1.01047,-11.49365 6.1875,-12.125 0,0 -5.67783,4.54125 -3.53125,12.875 2.46394,9.56585 8.20733,6.81504 9.34375,6.5625 -1.6415,-2.65165 -3.53347,-10.62278 2.90625,-17.0625 -1.01015,2.27284 -3.03252,7.60216 -2.90625,9.875 0.12627,2.27284 0.11596,11.34598 10.34375,4.90625 10.2278,-6.43972 11.35644,-22.59153 10.09375,-29.03125 5.68211,11.49049 -2.40625,24.25 -2.40625,24.25 0,0 7.9559,8.3125 18.5625,8.3125 10.6066,0 18.43702,-10.1012 21.59375,-18.6875 3.09216,-8.41069 -1.18588,-29.86742 -11.09375,-38.8125 -1.26848,0.79603 -1.59062,-0.009 -1.71875,-1.375 -0.77567,-0.48924 -1.5896,-0.85389 -2.4375,-1.125 z"
       id="path4802"
       inkscape:connector-curvature="0" />
    <path
       style="fill:#ffd1e8;fill-opacity:1;stroke:none"
       d="m 384.3125,340.78125 c 2.22803,4.88285 3.60277,10.26863 4.5625,15.28125 2.65528,11.03484 -2.00618,22.48423 -10.46875,29.65625 -9.45608,9.01961 -24.63414,5.40058 -33.03125,-3.15625 -3.44921,2.8252 -8.7504,8.46799 -14.625,6.96875 -3.65473,1.00032 -10.50476,0.7145 -13.23779,-3.13261 -4.13815,-5.82503 -8.78248,-19.48354 -0.63721,-29.58614 -4.12833,-1.40071 -6.97092,-5.50806 -7.15625,-9.96875 -2.97272,0.49368 -6.08216,0.4218 -9.09375,-0.125 -1.39844,1.69697 -2.60332,3.91388 -3.25,6.875 -2.39912,10.98541 -1.15625,14 -1.15625,14 l 4.6875,-5.53125 c 0,0 -3.67655,7.17639 -1.65625,14.5 2.02031,7.3236 12.64864,17.19416 13.40625,22.75 0.75762,5.55584 -1.78125,29.28125 -1.78125,29.28125 l 7.3125,1.5 c 0,0 -21.19749,0.52776 -29.53125,7.09375 -8.33376,6.56599 -6.51339,15.36607 -3.03125,19.5625 3.48214,4.19643 10.90625,6.15625 10.90625,6.15625 0,0 -7.60715,-3.49107 -7.875,-11.4375 -0.26786,-7.94642 3.75,-11.6875 3.75,-11.6875 0,0 -3.71171,11.38356 -0.96875,16.59375 3.71302,7.0528 14.28125,6.625 14.28125,6.625 0,0 -4.29465,-3.48214 -3.9375,-11.25 0.35714,-7.76786 5.28125,-11.1875 5.28125,-11.1875 0,0 -4.83929,10.29017 -2.875,14.84375 1.96429,4.55357 3.75,8.11161 8.125,7.84375 4.375,-0.26786 18.58929,-6.78125 21.625,-19.28125 3.03572,-12.5 2.59375,-30.625 2.59375,-30.625 L 319.375,401.375 c 0,0 22.05803,12.78125 31.96875,15.28125 9.91071,2.5 12.24107,9.28125 23.9375,13.03125 11.69643,3.75 17.84375,1.875 17.84375,1.875 0,0 -2.41518,-1.15625 -2.59375,-21.78125 -0.17858,-20.625 7.40625,-27.40625 7.40625,-27.40625 0,0 -6.60268,12.5 -5.53125,30 1.07142,17.5 1.60268,17.3125 3.65625,20.4375 2.05357,3.125 7.34375,5.53125 7.34375,5.53125 l 13.5625,2.3125 c 0,0 -12.69196,-1.06698 -24.65625,0.0937 -11.96429,1.16071 -18.90625,2.58035 -18.90625,11.6875 0,9.10714 7.75,11.96875 7.75,11.96875 0,0 -3.46429,-6.68304 -1.5,-12.21875 1.96428,-5.53571 8.46875,-6.96875 8.46875,-6.96875 0,0 -7.58035,4.82143 -7.3125,10 0.26786,5.17858 0.80357,7.5 2.5,9.375 1.69643,1.875 5.71875,0.8125 5.71875,0.8125 0,0 -1.89286,-7.76339 0.25,-11.78125 2.14285,-4.01786 8.75,-6.25 8.75,-6.25 0,0 -8.04464,4.25893 -8.3125,11.3125 -0.26785,7.05357 1.45536,6.61607 4.3125,7.0625 2.85714,0.44643 7.83036,1.08482 11.9375,-3.46875 0.38456,-0.42636 1.13978,-0.99666 2.03125,-1.59375 -0.42736,-0.0343 -1.23086,0.12966 -2.5625,0.5625 5.06991,-6.68009 11.57854,-12.62766 19.78125,-15.03125 5.26018,-0.91771 4.79068,-1.72736 -0.53125,-3.5 5.44375,-1.12853 11.14274,-2.0171 16.71875,-1.59375 3.37462,-2.57398 5.64895,-5.00411 5.90625,-7.0625 1.07143,-8.57143 -3.65625,-8.5625 -3.65625,-8.5625 l -14.09375,3.78125 c 5.42549,-1.58107 16.13172,-5.30238 17.65625,-10.40625 C 449.27233,412 444.65625,392 444.65625,392 c 0,0 4.17411,8.05357 5.15625,17.875 0.95062,9.50616 -3.65625,14.53125 -3.65625,14.53125 l 2.25,2.0625 3.625,-1.78125 c 4.27212,1.39188 10.49624,4.1463 13.90625,9.71875 5.17703,8.46003 -6.96019,9.83994 -14.03125,10.21875 -7.07107,0.3788 -5.25893,-2.73214 -20.4375,-1.125 0,0 4.49554,1.13839 5.03125,3.28125 0,0 -14.51786,-1.82143 -26.125,11.75 0,0 2.54465,-0.41517 4.6875,0.65625 -10.35714,3.92858 -6.96875,14.46875 -6.96875,14.46875 0,0 1.33482,-1.79464 2.40625,-2.6875 0.35714,3.57143 2.92036,7.37754 17.0625,7.125 14.14213,-0.25254 65.38626,-5.29425 73.59375,-35.09375 7.04804,-25.5898 -28.40364,-48.93432 -44.8125,-59.5 -8.37065,-10.19197 -17.76589,-20.16432 -25.375,-24.25 -18.125,-9.73214 -28.12054,-7.78125 -37.40625,-12.78125 -3.66443,-1.97315 -6.78251,-3.9686 -9.25,-5.6875 z"
       id="path4817"
       inkscape:connector-curvature="0"
       sodipodi:nodetypes="cccccscccsccssccsscscscscsssccsscscssccsscscsscscssscccccsccscscccssccccccsscssc" />
    <path
       style="fill:url(#linearGradient5504);fill-opacity:1;stroke:none"
       d="m 353.15625,419.5 c 3.62763,6.9573 9.375,14.40625 9.375,14.40625 0,0 -12.40022,-1.02792 -19.21875,1.75 -3.18954,1.29944 -5.19942,2.54931 -6.46875,3.90625 -0.20038,2.42932 -0.75989,4.78634 -1.625,7.03125 1.35955,3.38788 6.34375,6.625 6.34375,6.625 0,0 -2.66006,-2.89309 -2.28125,-7.3125 0.3788,-4.41942 4.4375,-6.46875 4.4375,-6.46875 0,0 -3.53633,4.43575 -3.03125,7.71875 0.50507,3.28299 1.63213,5.67989 4.03125,6.4375 2.39911,0.75761 3.90625,0.5 3.90625,0.5 0,0 -1.3915,-4.41672 0.25,-9.59375 1.64149,-5.17703 7.59375,-4.78125 7.59375,-4.78125 0,0 -6.81504,2.37151 -6.5625,8.9375 0.25254,6.56599 3.25586,6.58868 5.78125,7.09375 1.72852,0.34571 10.29504,-1.8849 15.65625,-3.34375 -0.0134,-2.3979 0.58279,-4.80822 1.9375,-7 6.12426,-7.37048 17.0387,-6.03698 25.65625,-7.09375 -0.89279,-0.98869 -3.90248,-2.89097 -4.90625,-4.90625 -10.5645,1.92388 -21.86528,-1.39946 -30.5,-7.5625 -3.02843,-2.97748 -6.61376,-4.84252 -10.375,-6.34375 z"
       id="path4819"
       inkscape:connector-curvature="0" />
    <path
       style="fill:url(#linearGradient5488);fill-opacity:1;stroke:none"
       d="m 386.4375,346.28125 c 1.05597,3.25893 1.82821,6.59895 2.4375,9.78125 2.65528,11.03484 -2.00618,22.48423 -10.46875,29.65625 -7.09902,6.77134 -17.42883,6.43543 -25.6875,2.21875 -1.32571,2.96477 -2.63206,3.93179 -7.3125,0 -6.59088,6.28125 -16.70861,7.48562 -25.15625,5.03125 -1.30388,2.63222 -2.75767,3.04135 -5.125,3.9375 12.28455,1.62185 21.46081,11.14399 33.25,14.46875 7.93896,2.12843 15.05408,6.12666 21.25,11.375 5.46129,3.17816 11.83112,5.10657 18.28125,5.15625 -2.17682,-15.77461 -3.31719,-33.89079 6.375,-47.46875 3.25754,-3.18365 7.40254,-5.22951 11.09375,-7.875 -5.59539,14.4506 -11.14167,29.71136 -8.59375,45.46875 -0.26375,6.70352 1.40225,15.5826 9.375,16.75 5.82417,1.13203 12.49633,1.18032 17.1875,5.09375 5.36686,-3.3984 12.49025,-0.95011 18.25761,-2.36485 2.13545,-1.32579 2.8796,-5.66393 1.46114,-7.7914 -6.78156,2.00197 -14.18396,5.19528 -21.09375,1.625 4.82694,-8.04586 16.2443,-6.51968 21.40625,-13.84375 1.60439,-11.88218 -4.18285,-23.59157 -2.375,-35.625 10.39958,9.46015 14.99493,24.81211 11.75,38.46875 -0.0892,1.59381 4.28097,0.91081 5.6875,2.46875 6.76414,3.50479 15.36691,10.71523 11.75,19.25 -9.22216,6.41722 0.39903,13.96933 5.21875,21.84375 10.96644,-5.12197 22.57906,-14.056 22.5625,-27.46875 -0.0354,-14.47701 -12.02544,-25.3111 -22.0625,-34.03125 -9.82211,-8.62179 -22.37906,-14.04981 -30,-25 -9.93843,-11.77538 -23.42079,-20.04602 -38.71875,-22.59375 -3.64432,-0.67926 -13.77036,-5.3595 -20.75,-8.53125 z"
       id="path5479"
       inkscape:connector-curvature="0"
       sodipodi:nodetypes="ccccccccccccccccccccccccccccc" />
    <path
       style="fill:url(#linearGradient5541);fill-opacity:1;stroke:none"
       d="m 327.125,259.53125 c 0.17138,6.89934 -4.66509,12.9411 -10.9375,15.21875 11.56974,0.85191 27.59447,2.89065 36.3125,7.78125 14.64286,8.21429 23.40625,20.1875 23.40625,20.1875 l 2.03125,-5.875 c 1.50818,-6.0361 2.12388,-12.29282 1.71875,-18.46875 -3.09322,-3.36316 -8.67533,-8.1009 -17.875,-11.71875 -10.35998,-4.07415 -25.37002,-6.15572 -34.65625,-7.125 z m -24.5625,14.5625 -0.0625,0.0625 c 0,0 0.17178,-1.1e-4 0.1875,0 -0.0422,-0.0192 -0.083,-0.0429 -0.125,-0.0625 z"
       id="path5522"
       inkscape:connector-curvature="0" />
    <path
       style="fill:url(#linearGradient5582);fill-opacity:1;stroke:none"
       d="m 298.28125,154.0625 -0.125,1 -0.0625,0.375 c -0.49857,4.81331 -0.55078,9.89672 -0.0937,14.59375 5.66914,-3.87494 1.80944,-10.87697 0.28125,-15.96875 z m 4.28125,19.5625 c -0.74905,0.0591 -1.66521,0.91599 -2.71875,2.96875 l -1.65625,1.875 c -1.56582,4.39164 -2.37379,9.25543 -1.03125,13.90625 3.01477,-4.47347 10.08605,-7.7762 7.71875,-14.03125 -0.25904,-2.66893 -1.06408,-4.81717 -2.3125,-4.71875 z m 5.09375,15.71875 -3.8125,4.28125 c -5.66192,4.25172 -8.39169,11.73228 -6.0625,18.5 3.36063,-4.68692 9.65913,-8.21381 11.34375,-13.5625 -0.0593,-3.11219 -0.2515,-6.32311 -1.46875,-9.21875 z m 3.6875,17.21875 -5.28125,5.59375 c -4.34472,4.1245 -8.83288,8.48498 -8.5,14.90625 -0.29029,2.9151 -0.41973,5.99082 0.59375,8.78125 5.06839,-5.66557 10.88646,-11.10056 15.5,-16.90625 0.67862,-4.23469 -0.11346,-8.68833 -2.3125,-12.375 z m 4.6875,19.09375 -7.4375,7.875 c -4.50947,5.02656 -11.03848,9.41933 -10.25,17 0.0561,2.28747 -0.0297,9.09589 3,4.1875 5.34096,-5.82006 12.24011,-10.82276 16.71875,-17.09375 0.56909,-4.10249 0.18157,-8.46073 -2.03125,-11.96875 z m 4.125,19.125 -3.21875,3.125 c -5.37147,5.78572 -12.08025,10.82747 -16.59375,17 -0.61453,5.82425 7.61185,7.05822 11.875,6.625 7.56626,-0.50593 12.28298,-8.35932 10.65625,-15.46875 -0.21495,-3.88406 -0.6814,-7.86605 -2.71875,-11.28125 z"
       id="path5551"
       inkscape:connector-curvature="0" />
    <path
       style="fill:url(#linearGradient5606);fill-opacity:1;stroke:none"
       d="m 358,314.75 c -1.81536,0.0103 -3.89174,0.0971 -6.21875,0.28125 -5.60303,0.4434 -11.67276,2.04075 -17.0625,3.65625 0.0368,0.0965 0.091,0.18223 0.125,0.28125 -4.48716,4.54058 -7.91585,10.91689 -13.90625,13.53125 -6.35499,-1.47891 -10.36088,-7.95798 -15.34375,-11.90625 -1.95316,-0.88696 -6.51909,-2.27571 -16.125,-1.90625 -13.92857,0.53571 -16.58505,4.58458 -16.53125,7.5 0.0727,3.93747 6.78125,6.625 6.78125,6.625 0,0 19.10715,9.1116 29.375,8.21875 10.26786,-0.89286 11.875,-6.34375 11.875,-6.34375 0,0 14.19643,5.60714 29.375,2.75 15.17858,-2.85715 21.27678,-15.86607 19.9375,-18.8125 -1.08817,-2.39397 -4.41469,-3.91977 -12.28125,-3.875 z"
       id="path5593"
       inkscape:connector-curvature="0" />
  </g>
</svg>
