<svg version="1.1" id="Layer_1" xmlns="http://www.w3.org/2000/svg" xmlns:xlink="http://www.w3.org/1999/xlink" x="0px" y="0px"
	 width="100%" viewBox="0 0 2088 1959" enable-background="new 0 0 2088 1959" xml:space="preserve">
<path fill="#FFFFFF" opacity="1.000000" stroke="none" 
	d="
M424.000000,1960.000000 
	C283.008179,1960.000000 142.016357,1960.000000 1.018399,1960.000000 
	C1.012266,1307.046021 1.012266,654.092102 1.012266,1.069072 
	C696.913574,1.069072 1392.827148,1.069072 2088.870361,1.069072 
	C2088.870361,653.875732 2088.870361,1306.751465 2088.870361,1960.000000 
	C1932.967529,1960.000000 1776.934692,1960.000000 1620.441895,1959.531250 
	C1620.173828,1949.911743 1620.145996,1940.749756 1620.601807,1931.612061 
	C1621.654663,1910.500366 1623.862061,1889.403442 1623.933472,1868.294922 
	C1624.063599,1829.848145 1623.160156,1791.393433 1622.344727,1752.949341 
	C1621.797729,1727.153198 1623.843628,1701.823975 1632.226685,1677.188477 
	C1634.294556,1671.112061 1635.911621,1664.513184 1635.894775,1658.159302 
	C1635.818481,1629.366333 1635.953613,1600.525879 1634.330933,1571.797485 
	C1632.817993,1545.012207 1626.772827,1518.771606 1619.063110,1493.092896 
	C1614.272095,1477.135620 1607.364868,1461.770020 1595.928101,1449.357788 
	C1587.385986,1440.087402 1577.786011,1431.726318 1568.177002,1423.522827 
	C1558.695312,1415.428223 1548.207764,1408.493042 1538.899414,1400.219116 
	C1528.953613,1391.378784 1518.005981,1384.350586 1506.033325,1378.846802 
	C1494.569336,1373.576660 1482.853149,1368.999878 1472.629517,1361.215088 
	C1456.687134,1349.075806 1439.351440,1339.250122 1420.387573,1332.518066 
	C1414.297363,1330.355957 1407.888794,1328.917725 1402.073364,1326.193237 
	C1392.459106,1321.688965 1383.184448,1316.453369 1373.814819,1311.436401 
	C1369.578247,1309.167847 1364.512207,1307.527100 1361.476440,1304.125366 
	C1354.829224,1296.676636 1347.424805,1292.749268 1336.570923,1295.228149 
	C1338.618652,1283.385986 1340.322388,1272.251709 1342.491699,1261.208740 
	C1352.236572,1211.601318 1362.380127,1162.070679 1371.853516,1112.411987 
	C1378.676758,1076.644897 1384.674927,1040.720581 1391.031616,1004.864502 
	C1393.380493,991.615051 1397.434692,978.395081 1397.697998,965.101929 
	C1398.376709,930.828247 1397.477661,896.519836 1397.015625,862.227905 
	C1396.446167,819.967102 1395.782104,777.707092 1394.962524,735.450500 
	C1394.471924,710.150879 1394.164429,684.827393 1392.755859,659.571472 
	C1391.239380,632.381897 1384.650757,606.015076 1377.601318,579.785645 
	C1371.061035,555.450134 1361.040527,532.453918 1350.999023,509.466644 
	C1336.439575,476.136353 1322.042725,442.727142 1306.866089,409.677887 
	C1299.738159,394.155914 1292.241333,378.518463 1280.495361,365.771881 
	C1261.234253,344.870087 1239.337891,326.929230 1215.562256,311.432556 
	C1197.606689,299.729309 1179.209839,288.687347 1160.801147,277.699799 
	C1145.120361,268.340515 1129.218262,259.341675 1113.223755,250.528870 
	C1110.493042,249.024384 1106.791260,248.710388 1103.562256,248.792862 
	C1094.865723,249.015015 1089.246216,254.177094 1085.558960,261.320404 
	C1076.519409,259.809540 1067.878540,257.691254 1059.128052,257.034790 
	C1036.843262,255.362885 1014.483887,255.417511 992.470459,259.631073 
	C972.078918,263.534241 951.871033,268.417267 931.623962,273.050812 
	C901.758606,279.885406 872.484680,288.516052 845.033264,302.474274 
	C803.938293,323.369812 767.346802,350.880066 733.141846,381.344147 
	C704.598816,406.765472 682.330811,437.824951 664.114685,471.251923 
	C637.456238,520.170715 616.695374,571.348633 606.522095,626.695435 
	C597.928040,673.451233 589.935974,720.084106 591.123474,767.831665 
	C591.380249,778.152405 590.064270,788.657349 591.537598,798.776794 
	C597.139709,837.254028 607.155701,874.600891 622.772888,910.327332 
	C632.153442,931.786743 642.781372,952.804443 650.612854,974.816101 
	C667.237305,1021.541992 691.953796,1063.687744 720.809021,1103.533325 
	C743.830017,1135.322632 767.985657,1166.290283 791.839661,1197.890137 
	C788.497925,1203.162476 786.043823,1209.555176 789.081238,1215.840332 
	C792.912903,1223.768677 792.400696,1231.887939 792.614929,1240.154663 
	C792.718628,1244.156372 791.310608,1247.053711 788.930603,1250.036987 
	C779.958069,1261.283936 768.433594,1269.586304 756.469360,1277.024658 
	C735.545898,1290.032959 712.304016,1297.469971 688.438293,1303.098511 
	C677.310120,1305.723022 666.337646,1309.060547 655.145142,1311.340576 
	C647.861755,1312.824219 640.176025,1312.350220 632.904419,1313.871216 
	C618.131348,1316.961792 603.523865,1320.839478 588.834351,1324.335205 
	C580.607605,1326.292969 571.899536,1327.047363 564.206299,1330.256836 
	C548.313293,1336.886597 532.705811,1344.325195 517.468689,1352.356445 
	C508.287048,1357.196045 499.314301,1362.964600 491.515686,1369.768921 
	C480.254364,1379.594604 470.293915,1390.895386 459.501038,1401.278320 
	C448.086700,1412.259033 438.935638,1424.997559 431.737427,1438.871582 
	C423.379272,1454.981323 418.327515,1472.265503 415.666992,1490.437866 
	C412.699066,1510.710205 412.553986,1530.876343 414.025543,1551.168457 
	C415.012756,1564.781616 415.445679,1578.483276 417.362244,1591.969727 
	C420.451569,1613.708374 420.358643,1635.370728 418.216919,1657.113647 
	C417.140259,1668.044067 415.281891,1678.947144 414.993347,1689.894653 
	C414.463501,1709.997559 413.508636,1730.132812 416.924866,1750.179932 
	C418.874176,1761.618774 420.539642,1773.232544 420.824127,1784.804688 
	C421.646790,1818.266846 421.736755,1851.747559 421.973236,1885.221924 
	C421.985474,1886.953979 421.025055,1888.951294 419.938690,1890.386963 
	C415.658081,1896.043579 413.870972,1902.131226 415.740601,1909.126587 
	C416.470093,1911.856201 416.892181,1914.675293 417.733521,1917.366333 
	C422.074768,1931.253174 423.977692,1945.485107 424.000000,1960.000000 
z"/>
<path fill="#DCF3FF" opacity="1.000000" stroke="none" 
	d="
M1579.000000,1960.000000 
	C1208.302368,1960.000000 837.604858,1960.000000 466.448059,1959.572754 
	C465.346252,1954.372192 464.283997,1949.612549 464.130554,1944.823730 
	C463.277924,1918.212646 462.373718,1891.598145 462.015167,1864.977783 
	C461.658447,1838.493652 462.177216,1811.997437 461.797089,1785.514038 
	C461.642426,1774.739014 461.137329,1763.780762 459.020996,1753.262085 
	C454.800690,1732.286377 454.863495,1711.226685 456.019165,1690.124268 
	C456.690887,1677.858398 459.513824,1665.694214 459.938080,1653.434570 
	C460.725311,1630.685303 461.555298,1607.904053 457.937195,1585.202393 
	C456.319061,1575.049438 456.651978,1564.601562 455.549683,1554.346680 
	C453.422821,1534.560059 453.158905,1514.904541 456.443726,1495.162231 
	C459.203796,1478.573730 464.377441,1463.155396 473.384979,1448.834473 
	C481.589233,1435.790649 493.201202,1425.990967 503.591125,1415.029297 
	C515.974670,1401.964111 528.825317,1389.394653 545.965393,1384.070190 
	C549.975708,1387.781860 554.066223,1391.331543 557.884338,1395.153198 
	C564.809387,1402.084595 571.768127,1408.999756 578.356262,1416.245972 
	C587.852661,1426.690918 597.098572,1437.366821 606.324402,1448.053711 
	C614.438354,1457.452637 623.836243,1466.141113 630.060486,1476.682373 
	C639.992859,1493.503784 647.434387,1511.773804 656.517273,1529.123535 
	C674.935974,1564.305908 686.795410,1601.344116 689.875244,1641.071533 
	C690.661926,1651.218018 699.028870,1658.851196 709.132324,1659.195557 
	C719.712463,1659.556274 728.676147,1652.680664 730.025818,1642.451294 
	C730.647583,1637.739014 730.299438,1632.810303 729.770081,1628.048828 
	C725.560486,1590.178711 714.530579,1554.291870 697.915344,1520.074463 
	C690.446411,1504.693115 682.578003,1489.499023 675.406738,1473.981567 
	C666.358948,1454.403809 653.879883,1437.347168 638.884460,1422.019775 
	C633.427490,1416.442139 627.527527,1411.278320 622.296692,1405.502808 
	C611.041931,1393.076050 600.088501,1380.376343 589.034607,1367.768311 
	C588.906250,1367.621948 589.083252,1367.207764 589.133057,1366.789307 
	C592.592224,1365.857300 596.076843,1364.828247 599.605652,1363.983643 
	C614.278015,1360.471802 628.883423,1356.608765 643.674316,1353.690430 
	C652.608765,1351.927368 662.314453,1353.154785 670.844666,1350.436890 
	C694.073547,1343.036011 718.024353,1338.431274 740.997253,1329.736084 
	C766.231384,1320.184814 788.463318,1306.722412 808.197144,1288.884521 
	C819.842407,1278.358154 830.930725,1267.017456 833.811340,1250.013794 
	C834.713379,1251.013062 835.534546,1251.765625 836.170898,1252.651001 
	C850.520691,1272.615601 867.446594,1290.251343 885.128967,1307.239380 
	C901.573059,1323.037720 918.133728,1338.716553 931.414001,1357.491455 
	C937.358459,1365.895264 943.999634,1373.848999 950.772888,1381.616211 
	C973.192139,1407.325195 996.006409,1432.691528 1018.293945,1458.513306 
	C1033.294312,1475.892334 1047.522217,1493.936523 1062.426880,1511.400635 
	C1065.446289,1514.938599 1069.613403,1517.913086 1073.832886,1519.932495 
	C1086.184937,1525.843872 1100.893555,1517.771362 1102.010620,1504.118530 
	C1102.507080,1498.051270 1101.784180,1491.153442 1099.258057,1485.730591 
	C1094.798096,1476.156860 1088.109741,1467.651001 1083.095459,1458.300537 
	C1060.012939,1415.257324 1037.184204,1372.078125 1014.282471,1328.937988 
	C1013.788635,1328.007812 1013.507507,1326.964600 1013.060852,1325.801392 
	C1022.221802,1329.943115 1030.780273,1334.347168 1039.724609,1337.730835 
	C1053.072144,1342.780029 1066.604126,1347.333984 1081.236206,1347.106934 
	C1094.892456,1346.894775 1108.565308,1347.391602 1122.210449,1346.948975 
	C1129.791992,1346.703003 1137.479736,1345.809326 1144.859741,1344.091553 
	C1160.208984,1340.518921 1175.492554,1336.564209 1190.600220,1332.082520 
	C1203.445068,1328.271729 1216.072754,1323.684204 1228.647217,1319.036621 
	C1232.093262,1317.762817 1235.002686,1315.037354 1238.152344,1312.981934 
	C1245.232056,1333.468018 1252.102051,1353.535034 1259.156372,1373.537109 
	C1260.097534,1376.205444 1260.074219,1377.947266 1258.043945,1380.173462 
	C1254.047241,1384.555908 1252.352417,1390.009521 1253.256592,1395.904663 
	C1260.284424,1441.726440 1282.886963,1478.252808 1319.531982,1506.294067 
	C1331.996338,1515.831909 1349.938354,1509.224609 1352.450928,1493.777222 
	C1353.233398,1488.965820 1352.101807,1483.410034 1350.419434,1478.705322 
	C1342.646606,1456.968140 1337.753540,1434.426147 1335.355957,1411.721680 
	C1332.937012,1388.813110 1333.931152,1365.542480 1333.488159,1342.429321 
	C1333.445435,1340.199219 1333.814209,1337.961304 1334.026245,1335.295410 
	C1336.804688,1337.186523 1338.993896,1338.968994 1341.433594,1340.287720 
	C1353.701416,1346.920044 1365.990112,1353.517090 1378.365845,1359.944946 
	C1383.803223,1362.769043 1389.232422,1366.032715 1395.067505,1367.587891 
	C1412.823364,1372.320312 1428.875244,1380.228394 1443.701660,1390.972290 
	C1455.818970,1399.753174 1468.277832,1407.936768 1482.507568,1413.166870 
	C1496.361328,1418.258789 1508.262085,1426.528809 1518.546875,1437.275269 
	C1500.407593,1462.089233 1483.573853,1487.731567 1469.352173,1515.060059 
	C1459.231445,1534.507935 1454.389893,1555.438843 1451.012207,1576.816040 
	C1445.277710,1613.109619 1439.701172,1649.428345 1434.114624,1685.745117 
	C1433.221436,1691.551880 1434.168945,1697.068604 1437.906006,1701.804077 
	C1443.106934,1708.394165 1449.987305,1711.279663 1458.197021,1709.595093 
	C1466.548096,1707.881348 1472.398560,1702.732788 1474.019897,1694.198975 
	C1475.879517,1684.410522 1476.841431,1674.455444 1478.416504,1664.608398 
	C1483.274780,1634.236572 1488.236206,1603.881226 1493.163818,1573.520508 
	C1495.276489,1560.504028 1498.234985,1547.614258 1504.731812,1536.095459 
	C1514.752441,1518.328735 1525.398560,1500.908081 1536.068481,1483.517944 
	C1540.459595,1476.361206 1545.600830,1469.664551 1550.237915,1462.993042 
	C1566.080078,1473.321289 1575.323242,1488.032349 1579.783081,1504.975830 
	C1585.308594,1525.967285 1590.270630,1547.343018 1592.642456,1568.865112 
	C1595.222046,1592.274292 1594.376953,1616.049194 1595.365723,1639.650269 
	C1595.910645,1652.654785 1592.971924,1664.933594 1589.909424,1677.425903 
	C1586.442749,1691.567871 1582.741333,1706.053955 1582.375000,1720.472534 
	C1581.555664,1752.708862 1582.919189,1784.995361 1583.056152,1817.262817 
	C1583.160156,1841.743408 1583.137817,1866.237305 1582.444702,1890.704834 
	C1581.789795,1913.817139 1580.186279,1936.902710 1579.000000,1960.000000 
z"/>
<path fill="#110A09" opacity="1.000000" stroke="none" 
	d="
M1579.468628,1960.000000 
	C1580.186279,1936.902710 1581.789795,1913.817139 1582.444702,1890.704834 
	C1583.137817,1866.237305 1583.160156,1841.743408 1583.056152,1817.262817 
	C1582.919189,1784.995361 1581.555664,1752.708862 1582.375000,1720.472534 
	C1582.741333,1706.053955 1586.442749,1691.567871 1589.909424,1677.425903 
	C1592.971924,1664.933594 1595.910645,1652.654785 1595.365723,1639.650269 
	C1594.376953,1616.049194 1595.222046,1592.274292 1592.642456,1568.865112 
	C1590.270630,1547.343018 1585.308594,1525.967285 1579.783081,1504.975830 
	C1575.323242,1488.032349 1566.080078,1473.321289 1550.237915,1462.993042 
	C1545.600830,1469.664551 1540.459595,1476.361206 1536.068481,1483.517944 
	C1525.398560,1500.908081 1514.752441,1518.328735 1504.731812,1536.095459 
	C1498.234985,1547.614258 1495.276489,1560.504028 1493.163818,1573.520508 
	C1488.236206,1603.881226 1483.274780,1634.236572 1478.416504,1664.608398 
	C1476.841431,1674.455444 1475.879517,1684.410522 1474.019897,1694.198975 
	C1472.398560,1702.732788 1466.548096,1707.881348 1458.197021,1709.595093 
	C1449.987305,1711.279663 1443.106934,1708.394165 1437.906006,1701.804077 
	C1434.168945,1697.068604 1433.221436,1691.551880 1434.114624,1685.745117 
	C1439.701172,1649.428345 1445.277710,1613.109619 1451.012207,1576.816040 
	C1454.389893,1555.438843 1459.231445,1534.507935 1469.352173,1515.060059 
	C1483.573853,1487.731567 1500.407593,1462.089233 1518.546875,1437.275269 
	C1508.262085,1426.528809 1496.361328,1418.258789 1482.507568,1413.166870 
	C1468.277832,1407.936768 1455.818970,1399.753174 1443.701660,1390.972290 
	C1428.875244,1380.228394 1412.823364,1372.320312 1395.067505,1367.587891 
	C1389.232422,1366.032715 1383.803223,1362.769043 1378.365845,1359.944946 
	C1365.990112,1353.517090 1353.701416,1346.920044 1341.433594,1340.287720 
	C1338.993896,1338.968994 1336.804688,1337.186523 1334.026245,1335.295410 
	C1333.814209,1337.961304 1333.445435,1340.199219 1333.488159,1342.429321 
	C1333.931152,1365.542480 1332.937012,1388.813110 1335.355957,1411.721680 
	C1337.753540,1434.426147 1342.646606,1456.968140 1350.419434,1478.705322 
	C1352.101807,1483.410034 1353.233398,1488.965820 1352.450928,1493.777222 
	C1349.938354,1509.224609 1331.996338,1515.831909 1319.531982,1506.294067 
	C1282.886963,1478.252808 1260.284424,1441.726440 1253.256592,1395.904663 
	C1252.352417,1390.009521 1254.047241,1384.555908 1258.043945,1380.173462 
	C1260.074219,1377.947266 1260.097534,1376.205444 1259.156372,1373.537109 
	C1252.102051,1353.535034 1245.232056,1333.468018 1238.152344,1312.981934 
	C1235.002686,1315.037354 1232.093262,1317.762817 1228.647217,1319.036621 
	C1216.072754,1323.684204 1203.445068,1328.271729 1190.600220,1332.082520 
	C1175.492554,1336.564209 1160.208984,1340.518921 1144.859741,1344.091553 
	C1137.479736,1345.809326 1129.791992,1346.703003 1122.210449,1346.948975 
	C1108.565308,1347.391602 1094.892456,1346.894775 1081.236206,1347.106934 
	C1066.604126,1347.333984 1053.072144,1342.780029 1039.724609,1337.730835 
	C1030.780273,1334.347168 1022.221802,1329.943115 1013.060852,1325.801392 
	C1013.507507,1326.964600 1013.788635,1328.007812 1014.282471,1328.937988 
	C1037.184204,1372.078125 1060.012939,1415.257324 1083.095459,1458.300537 
	C1088.109741,1467.651001 1094.798096,1476.156860 1099.258057,1485.730591 
	C1101.784180,1491.153442 1102.507080,1498.051270 1102.010620,1504.118530 
	C1100.893555,1517.771362 1086.184937,1525.843872 1073.832886,1519.932495 
	C1069.613403,1517.913086 1065.446289,1514.938599 1062.426880,1511.400635 
	C1047.522217,1493.936523 1033.294312,1475.892334 1018.293945,1458.513306 
	C996.006409,1432.691528 973.192139,1407.325195 950.772888,1381.616211 
	C943.999634,1373.848999 937.358459,1365.895264 931.414001,1357.491455 
	C918.133728,1338.716553 901.573059,1323.037720 885.128967,1307.239380 
	C867.446594,1290.251343 850.520691,1272.615601 836.170898,1252.651001 
	C835.534546,1251.765625 834.713379,1251.013062 833.811340,1250.013794 
	C830.930725,1267.017456 819.842407,1278.358154 808.197144,1288.884521 
	C788.463318,1306.722412 766.231384,1320.184814 740.997253,1329.736084 
	C718.024353,1338.431274 694.073547,1343.036011 670.844666,1350.436890 
	C662.314453,1353.154785 652.608765,1351.927368 643.674316,1353.690430 
	C628.883423,1356.608765 614.278015,1360.471802 599.605652,1363.983643 
	C596.076843,1364.828247 592.592224,1365.857300 589.133057,1366.789307 
	C589.083252,1367.207764 588.906250,1367.621948 589.034607,1367.768311 
	C600.088501,1380.376343 611.041931,1393.076050 622.296692,1405.502808 
	C627.527527,1411.278320 633.427490,1416.442139 638.884460,1422.019775 
	C653.879883,1437.347168 666.358948,1454.403809 675.406738,1473.981567 
	C682.578003,1489.499023 690.446411,1504.693115 697.915344,1520.074463 
	C714.530579,1554.291870 725.560486,1590.178711 729.770081,1628.048828 
	C730.299438,1632.810303 730.647583,1637.739014 730.025818,1642.451294 
	C728.676147,1652.680664 719.712463,1659.556274 709.132324,1659.195557 
	C699.028870,1658.851196 690.661926,1651.218018 689.875244,1641.071533 
	C686.795410,1601.344116 674.935974,1564.305908 656.517273,1529.123535 
	C647.434387,1511.773804 639.992859,1493.503784 630.060486,1476.682373 
	C623.836243,1466.141113 614.438354,1457.452637 606.324402,1448.053711 
	C597.098572,1437.366821 587.852661,1426.690918 578.356262,1416.245972 
	C571.768127,1408.999756 564.809387,1402.084595 557.884338,1395.153198 
	C554.066223,1391.331543 549.975708,1387.781860 545.965393,1384.070190 
	C528.825317,1389.394653 515.974670,1401.964111 503.591125,1415.029297 
	C493.201202,1425.990967 481.589233,1435.790649 473.384979,1448.834473 
	C464.377441,1463.155396 459.203796,1478.573730 456.443726,1495.162231 
	C453.158905,1514.904541 453.422821,1534.560059 455.549683,1554.346680 
	C456.651978,1564.601562 456.319061,1575.049438 457.937195,1585.202393 
	C461.555298,1607.904053 460.725311,1630.685303 459.938080,1653.434570 
	C459.513824,1665.694214 456.690887,1677.858398 456.019165,1690.124268 
	C454.863495,1711.226685 454.800690,1732.286377 459.020996,1753.262085 
	C461.137329,1763.780762 461.642426,1774.739014 461.797089,1785.514038 
	C462.177216,1811.997437 461.658447,1838.493652 462.015167,1864.977783 
	C462.373718,1891.598145 463.277924,1918.212646 464.130554,1944.823730 
	C464.283997,1949.612549 465.346252,1954.372192 465.994446,1959.572754 
	C452.312439,1960.000000 438.624878,1960.000000 424.468658,1960.000000 
	C423.977692,1945.485107 422.074768,1931.253174 417.733521,1917.366333 
	C416.892181,1914.675293 416.470093,1911.856201 415.740601,1909.126587 
	C413.870972,1902.131226 415.658081,1896.043579 419.938690,1890.386963 
	C421.025055,1888.951294 421.985474,1886.953979 421.973236,1885.221924 
	C421.736755,1851.747559 421.646790,1818.266846 420.824127,1784.804688 
	C420.539642,1773.232544 418.874176,1761.618774 416.924866,1750.179932 
	C413.508636,1730.132812 414.463501,1709.997559 414.993347,1689.894653 
	C415.281891,1678.947144 417.140259,1668.044067 418.216919,1657.113647 
	C420.358643,1635.370728 420.451569,1613.708374 417.362244,1591.969727 
	C415.445679,1578.483276 415.012756,1564.781616 414.025543,1551.168457 
	C412.553986,1530.876343 412.699066,1510.710205 415.666992,1490.437866 
	C418.327515,1472.265503 423.379272,1454.981323 431.737427,1438.871582 
	C438.935638,1424.997559 448.086700,1412.259033 459.501038,1401.278320 
	C470.293915,1390.895386 480.254364,1379.594604 491.515686,1369.768921 
	C499.314301,1362.964600 508.287048,1357.196045 517.468689,1352.356445 
	C532.705811,1344.325195 548.313293,1336.886597 564.206299,1330.256836 
	C571.899536,1327.047363 580.607605,1326.292969 588.834351,1324.335205 
	C603.523865,1320.839478 618.131348,1316.961792 632.904419,1313.871216 
	C640.176025,1312.350220 647.861755,1312.824219 655.145142,1311.340576 
	C666.337646,1309.060547 677.310120,1305.723022 688.438293,1303.098511 
	C712.304016,1297.469971 735.545898,1290.032959 756.469360,1277.024658 
	C768.433594,1269.586304 779.958069,1261.283936 788.930603,1250.036987 
	C791.310608,1247.053711 792.718628,1244.156372 792.614929,1240.154663 
	C792.400696,1231.887939 792.912903,1223.768677 789.081238,1215.840332 
	C786.043823,1209.555176 788.497925,1203.162476 791.839661,1197.890137 
	C767.985657,1166.290283 743.830017,1135.322632 720.809021,1103.533325 
	C691.953796,1063.687744 667.237305,1021.541992 650.612854,974.816101 
	C642.781372,952.804443 632.153442,931.786743 622.772888,910.327332 
	C607.155701,874.600891 597.139709,837.254028 591.537598,798.776794 
	C590.064270,788.657349 591.380249,778.152405 591.123474,767.831665 
	C589.935974,720.084106 597.928040,673.451233 606.522095,626.695435 
	C616.695374,571.348633 637.456238,520.170715 664.114685,471.251923 
	C682.330811,437.824951 704.598816,406.765472 733.141846,381.344147 
	C767.346802,350.880066 803.938293,323.369812 845.033264,302.474274 
	C872.484680,288.516052 901.758606,279.885406 931.623962,273.050812 
	C951.871033,268.417267 972.078918,263.534241 992.470459,259.631073 
	C1014.483887,255.417511 1036.843262,255.362885 1059.128052,257.034790 
	C1067.878540,257.691254 1076.519409,259.809540 1085.558960,261.320404 
	C1089.246216,254.177094 1094.865723,249.015015 1103.562256,248.792862 
	C1106.791260,248.710388 1110.493042,249.024384 1113.223755,250.528870 
	C1129.218262,259.341675 1145.120361,268.340515 1160.801147,277.699799 
	C1179.209839,288.687347 1197.606689,299.729309 1215.562256,311.432556 
	C1239.337891,326.929230 1261.234253,344.870087 1280.495361,365.771881 
	C1292.241333,378.518463 1299.738159,394.155914 1306.866089,409.677887 
	C1322.042725,442.727142 1336.439575,476.136353 1350.999023,509.466644 
	C1361.040527,532.453918 1371.061035,555.450134 1377.601318,579.785645 
	C1384.650757,606.015076 1391.239380,632.381897 1392.755859,659.571472 
	C1394.164429,684.827393 1394.471924,710.150879 1394.962524,735.450500 
	C1395.782104,777.707092 1396.446167,819.967102 1397.015625,862.227905 
	C1397.477661,896.519836 1398.376709,930.828247 1397.697998,965.101929 
	C1397.434692,978.395081 1393.380493,991.615051 1391.031616,1004.864502 
	C1384.674927,1040.720581 1378.676758,1076.644897 1371.853516,1112.411987 
	C1362.380127,1162.070679 1352.236572,1211.601318 1342.491699,1261.208740 
	C1340.322388,1272.251709 1338.618652,1283.385986 1336.570923,1295.228149 
	C1347.424805,1292.749268 1354.829224,1296.676636 1361.476440,1304.125366 
	C1364.512207,1307.527100 1369.578247,1309.167847 1373.814819,1311.436401 
	C1383.184448,1316.453369 1392.459106,1321.688965 1402.073364,1326.193237 
	C1407.888794,1328.917725 1414.297363,1330.355957 1420.387573,1332.518066 
	C1439.351440,1339.250122 1456.687134,1349.075806 1472.629517,1361.215088 
	C1482.853149,1368.999878 1494.569336,1373.576660 1506.033325,1378.846802 
	C1518.005981,1384.350586 1528.953613,1391.378784 1538.899414,1400.219116 
	C1548.207764,1408.493042 1558.695312,1415.428223 1568.177002,1423.522827 
	C1577.786011,1431.726318 1587.385986,1440.087402 1595.928101,1449.357788 
	C1607.364868,1461.770020 1614.272095,1477.135620 1619.063110,1493.092896 
	C1626.772827,1518.771606 1632.817993,1545.012207 1634.330933,1571.797485 
	C1635.953613,1600.525879 1635.818481,1629.366333 1635.894775,1658.159302 
	C1635.911621,1664.513184 1634.294556,1671.112061 1632.226685,1677.188477 
	C1623.843628,1701.823975 1621.797729,1727.153198 1622.344727,1752.949341 
	C1623.160156,1791.393433 1624.063599,1829.848145 1623.933472,1868.294922 
	C1623.862061,1889.403442 1621.654663,1910.500366 1620.601807,1931.612061 
	C1620.145996,1940.749756 1620.173828,1949.911743 1619.990967,1959.531250 
	C1606.645752,1960.000000 1593.291504,1960.000000 1579.468628,1960.000000 
M1288.708862,817.163818 
	C1290.444824,816.774353 1292.226074,816.519165 1293.902710,815.953491 
	C1295.283936,815.487366 1296.541382,814.653625 1297.853760,813.982910 
	C1296.500244,813.215149 1295.146851,812.447388 1293.385742,810.962219 
	C1299.201172,806.775635 1305.068970,807.581543 1312.219238,811.953979 
	C1313.322510,802.697571 1314.306763,794.438599 1315.304321,786.069519 
	C1302.585205,784.010681 1290.668823,786.489319 1280.061035,792.313904 
	C1266.732300,799.632507 1256.086060,809.959900 1249.989624,824.649658 
	C1243.917358,839.280762 1244.749268,853.287537 1250.814087,867.495605 
	C1255.130249,877.606506 1264.849854,882.024170 1272.576294,888.497559 
	C1282.591187,896.888184 1294.879883,898.566345 1307.349243,898.878113 
	C1319.145142,899.173035 1330.985107,898.878784 1342.059937,894.085999 
	C1344.173584,893.171265 1347.093872,890.770142 1347.148193,888.979248 
	C1347.570312,875.057617 1347.381470,861.117371 1347.381470,847.446350 
	C1340.232422,846.260742 1333.641968,845.167786 1327.097534,844.082458 
	C1327.097534,848.676025 1327.323120,853.509827 1327.015137,858.309387 
	C1326.822021,861.315796 1325.826416,864.270630 1324.592285,866.827576 
	C1325.118286,859.803406 1325.886230,852.786682 1326.102783,845.752991 
	C1326.323486,838.583862 1321.716675,834.117065 1314.679810,833.717651 
	C1313.996582,839.651428 1313.638672,845.620117 1312.546997,851.451477 
	C1311.416626,857.489502 1306.937134,858.697510 1301.745972,855.459961 
	C1294.128296,850.709045 1295.245850,840.489319 1298.009277,832.869507 
	C1299.136963,829.760681 1301.305664,828.313110 1304.555908,828.889893 
	C1309.301392,829.731934 1313.998413,831.305664 1318.788940,829.153931 
	C1317.851562,824.117737 1311.036499,818.764771 1304.587158,818.959229 
	C1298.402344,819.145813 1292.242188,820.151794 1286.102417,820.214966 
	C1286.700195,819.258667 1287.297974,818.302429 1288.708862,817.163818 
M1094.973267,860.254211 
	C1094.663818,854.289856 1095.077759,848.179504 1093.908447,842.388733 
	C1090.467285,825.346191 1088.987427,818.247620 1071.048218,819.834045 
	C1070.882935,819.848633 1070.713013,819.855530 1070.549316,819.834167 
	C1062.798584,818.822510 1057.802734,822.860535 1054.465820,829.166443 
	C1051.314819,835.121338 1048.698486,841.359253 1045.684204,847.821350 
	C1045.108521,847.603699 1044.013062,847.189514 1042.899292,846.768494 
	C1042.899292,857.524597 1041.210693,868.402893 1043.316528,878.488892 
	C1046.098633,891.814026 1064.299316,895.002869 1073.734375,890.481323 
	C1080.142212,887.410645 1085.001465,882.339966 1088.111084,875.756775 
	C1090.289551,871.145020 1092.647339,866.617920 1095.032837,862.867371 
	C1092.111816,869.446655 1089.743774,876.348450 1086.138550,882.528564 
	C1080.909668,891.491638 1073.045532,896.288391 1062.067993,895.187866 
	C1050.163940,893.994507 1038.540039,885.246460 1039.072266,871.664062 
	C1039.337891,864.886414 1039.118530,858.089661 1039.118530,851.176331 
	C1031.101196,854.203247 1026.642578,854.175659 1023.270447,851.212036 
	C1020.100586,848.426086 1018.951782,845.900513 1019.877686,842.592712 
	C1023.676636,847.053711 1026.939697,852.011658 1033.901733,849.550171 
	C1040.698853,847.146973 1039.960571,841.032837 1041.641602,836.007019 
	C1027.008057,830.993103 1026.194824,830.445862 1025.308105,823.983887 
	C1027.479004,825.808838 1028.966064,827.091248 1030.487061,828.331970 
	C1037.090210,833.718506 1042.898193,831.977600 1045.300537,823.892212 
	C1045.810791,822.175110 1046.267090,820.442078 1046.756836,818.685608 
	C1034.523193,816.768005 1025.689087,810.875427 1021.107361,797.969849 
	C1017.436768,804.067078 1013.665649,808.981689 1011.312073,814.500793 
	C1004.938660,829.446045 1001.033691,844.902344 1000.640015,861.436279 
	C1000.288513,876.194702 1006.224976,887.011047 1017.018005,896.037109 
	C1026.361328,903.850830 1037.434326,908.648499 1049.048096,910.573364 
	C1060.093140,912.404053 1071.726440,912.544006 1082.879517,911.353027 
	C1094.568481,910.104919 1105.604248,905.139954 1114.848145,897.658264 
	C1123.403076,890.734131 1131.851929,883.413025 1138.964478,875.085510 
	C1142.491211,870.956421 1143.733398,864.289368 1144.544922,858.563049 
	C1145.810547,849.631226 1144.271606,840.460693 1139.285522,833.036682 
	C1134.292480,825.602173 1127.720581,819.142822 1121.353027,812.741211 
	C1115.248291,806.603882 1109.383423,799.294434 1101.881348,795.675354 
	C1086.356323,788.185974 1070.011597,781.849182 1052.332886,781.570068 
	C1047.235596,781.489624 1041.509155,782.304810 1037.143311,784.680176 
	C1031.631714,787.678955 1027.217773,792.695312 1022.526611,796.674805 
	C1023.859558,798.508667 1024.850952,799.593689 1025.526123,800.848877 
	C1028.740845,806.825500 1033.498901,811.060852 1039.837036,813.377441 
	C1047.890869,816.321289 1048.180664,815.909302 1052.141479,808.986450 
	C1040.840210,808.002258 1031.183716,798.961914 1032.143311,790.177612 
	C1036.470947,794.990112 1039.952881,801.958191 1045.285889,803.936584 
	C1050.800659,805.982483 1058.112671,803.183167 1064.506592,802.517151 
	C1065.169678,803.184021 1066.157715,804.629517 1067.521240,805.454407 
	C1070.333374,807.155701 1073.489502,808.303467 1076.242432,810.083801 
	C1080.507446,812.841858 1085.482666,815.223389 1088.448853,819.078735 
	C1091.898926,823.562805 1094.969971,829.301270 1095.579346,834.786987 
	C1096.543091,843.465454 1095.321899,852.386475 1094.973267,860.254211 
M1107.039307,293.194183 
	C1106.922729,293.561798 1106.806152,293.929382 1106.847900,294.985626 
	C1117.031616,316.018250 1127.205811,337.055542 1137.401855,358.082214 
	C1149.246826,382.509552 1161.816040,406.617188 1172.745239,431.447083 
	C1181.644287,451.664459 1191.046875,471.884644 1194.441650,494.124603 
	C1195.024048,497.939789 1196.813843,500.497467 1201.959961,501.586792 
	C1215.009155,504.348969 1227.957275,508.059326 1240.494751,512.628052 
	C1251.803467,516.748962 1259.756592,525.779968 1268.054932,534.337158 
	C1287.584961,554.476379 1305.066772,576.257812 1320.616821,599.485718 
	C1329.072021,612.115906 1335.625854,626.023376 1342.956177,639.399170 
	C1345.149658,643.401489 1347.069458,647.553833 1349.114624,651.637451 
	C1349.636475,651.569580 1350.158325,651.501770 1350.680176,651.433960 
	C1350.460815,647.759460 1350.776001,643.957520 1349.934814,640.431396 
	C1344.690063,618.439819 1340.504883,596.073181 1333.415894,574.676575 
	C1325.574829,551.010315 1315.277222,528.132080 1305.532959,505.129425 
	C1295.714111,481.950684 1285.860718,458.749634 1274.876953,436.114227 
	C1267.451782,420.812408 1259.874390,404.942291 1249.100220,392.056213 
	C1232.330444,371.999512 1211.077637,356.341522 1188.894409,342.324371 
	C1169.655518,330.167694 1150.377686,318.067535 1130.937134,306.238129 
	C1123.322388,301.604645 1115.217407,297.776825 1107.039307,293.194183 
M875.021545,1133.000244 
	C874.992798,1107.693848 874.964111,1082.387573 875.002502,1056.218262 
	C875.352966,1053.595093 875.777100,1050.979370 876.040710,1048.347534 
	C877.028137,1038.489868 877.871460,1028.616821 878.949036,1018.769226 
	C879.703186,1011.877991 881.920898,1004.917114 881.334961,998.174133 
	C880.758423,991.538574 882.415771,986.144653 885.204468,980.623962 
	C885.644714,979.752502 885.988586,978.814209 886.245544,977.870972 
	C890.236084,963.221069 894.216003,948.568176 898.176392,933.910095 
	C908.313660,896.390869 918.215881,858.800171 933.334351,822.855164 
	C943.661743,798.301208 952.665955,773.097229 964.469421,749.277954 
	C985.807556,706.217407 1011.149719,665.395874 1040.274170,627.116577 
	C1054.342773,608.625732 1066.965942,588.840759 1084.574585,573.236145 
	C1101.758789,558.007690 1118.985718,542.826904 1136.279785,527.723389 
	C1138.607666,525.690308 1139.717529,523.757385 1139.223755,520.511169 
	C1137.651367,510.171417 1141.781738,502.679596 1151.341309,498.399384 
	C1154.087036,497.170044 1154.629272,495.658661 1153.578247,492.913788 
	C1151.335205,487.055450 1149.560425,481.012756 1147.203369,475.204010 
	C1140.052368,457.580139 1133.349854,439.734680 1125.294189,422.527222 
	C1114.610229,399.705139 1102.744263,377.438446 1091.520752,354.866119 
	C1085.167480,342.088562 1079.132568,329.153046 1072.850220,316.339752 
	C1070.815430,312.189941 1067.351318,308.410004 1066.534058,304.084320 
	C1065.658691,299.451538 1062.560059,299.073303 1059.596680,297.903503 
	C1058.117554,297.319550 1056.353271,297.457275 1053.832764,297.099609 
	C1042.292969,297.130066 1030.753174,297.160492 1018.408936,297.003937 
	C1016.039673,297.634888 1013.705200,298.542542 1011.294678,298.846161 
	C1003.332581,299.849030 995.214661,300.013397 987.390686,301.631592 
	C971.237854,304.972412 955.226196,309.002319 939.174438,312.823914 
	C913.069336,319.039093 887.472961,326.599457 863.268982,338.605530 
	C843.056030,348.631958 824.416077,361.081360 806.419250,374.422760 
	C789.477356,386.982117 772.917419,400.186401 757.209351,414.246460 
	C739.017151,430.529968 725.318420,450.816406 711.585632,470.829803 
	C696.522461,492.781982 685.017883,516.686829 675.308228,541.449585 
	C669.392944,556.535522 662.302368,571.300415 657.962158,586.830627 
	C651.835571,608.753113 647.401978,631.177673 642.935974,653.525757 
	C639.640198,670.017639 637.366089,686.717529 634.835693,703.355042 
	C634.329468,706.683533 634.993958,710.177002 634.643982,713.545044 
	C633.924561,720.468445 632.847656,727.353943 632.008362,734.266113 
	C631.851318,735.559875 632.117004,736.905029 632.137878,739.133423 
	C632.159485,758.338196 632.181091,777.542908 632.042725,797.582397 
	C633.533936,804.157410 635.348450,810.678406 636.458435,817.317200 
	C640.477600,841.356018 647.551147,864.502563 656.923645,886.921875 
	C663.562561,902.802490 671.211609,918.259888 677.890442,934.124817 
	C686.746582,955.161621 694.141602,976.862915 703.879578,997.468018 
	C719.959473,1031.492188 740.277710,1063.051025 763.274353,1092.895752 
	C779.910889,1114.486450 795.795410,1136.658447 812.516357,1158.181885 
	C831.592468,1182.736816 851.173218,1206.901367 870.692810,1231.108032 
	C872.681335,1233.574097 872.693115,1235.553345 871.822205,1238.254639 
	C869.467529,1245.558105 872.441650,1254.334961 878.334351,1259.281860 
	C886.437683,1266.084717 895.107849,1272.424805 902.162720,1280.207153 
	C909.910583,1288.753662 915.940247,1298.836182 923.022461,1308.014893 
	C928.077393,1314.566040 933.819153,1320.585693 938.915100,1327.107666 
	C944.003235,1333.619507 948.677124,1340.455688 953.516785,1347.161011 
	C956.324829,1351.051758 960.222961,1354.589600 961.679138,1358.939453 
	C965.798462,1371.244873 973.946899,1380.856934 981.563599,1390.788086 
	C988.374634,1399.668701 1000.713684,1401.443115 1009.542114,1394.833618 
	C1019.162659,1387.631104 1020.687744,1374.536377 1014.165894,1365.546631 
	C1008.758850,1358.093506 1004.098816,1350.094604 999.187805,1342.287231 
	C996.809753,1338.506470 994.866638,1334.432007 992.288208,1330.801758 
	C985.869568,1321.765015 979.382507,1312.764404 972.580139,1304.015869 
	C965.503723,1294.914917 957.869202,1286.248413 950.772217,1277.162720 
	C945.170532,1269.991211 939.974731,1262.500000 934.669495,1255.100220 
	C927.768738,1245.474731 917.859314,1239.229370 908.948364,1231.836060 
	C905.588867,1229.048706 901.915771,1225.946411 900.050415,1222.166382 
	C889.818848,1201.431396 883.978027,1179.211182 879.200378,1156.700684 
	C877.597229,1149.147583 876.348999,1141.519165 875.021545,1133.000244 
M1189.500366,1002.582642 
	C1180.348877,1002.756226 1171.177368,1002.611694 1162.051514,1003.189636 
	C1152.286133,1003.808105 1142.582397,1005.644714 1132.818481,1005.980652 
	C1119.035278,1006.454834 1108.325928,996.813904 1106.328247,983.171631 
	C1104.832031,972.954895 1108.740234,964.034668 1116.498535,959.429138 
	C1123.065430,955.530701 1134.504761,955.516968 1141.348267,962.800171 
	C1142.169678,963.674255 1143.968262,964.077759 1145.263428,963.986145 
	C1153.535034,963.401001 1161.780518,962.280518 1170.057739,961.983093 
	C1180.130615,961.621216 1190.226318,961.897095 1200.760010,961.897095 
	C1192.148438,930.622009 1180.134155,900.615601 1181.433472,866.634705 
	C1175.774536,869.846741 1171.135498,872.627563 1166.360840,875.151917 
	C1160.684448,878.153015 1155.508667,880.920593 1151.121582,886.519287 
	C1144.440552,895.045288 1135.636719,902.091125 1127.044189,908.893860 
	C1113.479736,919.632874 1097.791260,925.955322 1080.584961,928.136169 
	C1063.821655,930.260864 1047.737793,927.475525 1032.055542,921.309082 
	C1018.947021,916.154724 1007.159668,908.853882 998.251343,898.126282 
	C989.858765,888.019897 984.142456,876.268921 985.588562,862.321716 
	C986.037109,857.995544 985.053711,854.719116 979.783386,854.176147 
	C976.354919,853.822998 972.978638,852.855774 969.614075,852.022034 
	C966.458374,851.240051 964.952881,852.296936 963.840149,855.465027 
	C947.939270,900.733887 936.035156,947.146118 924.206848,993.578491 
	C923.652405,995.754761 923.769897,998.258606 924.180786,1000.498718 
	C926.693176,1014.197876 928.945679,1027.967041 932.131592,1041.513916 
	C935.353577,1055.214355 938.389404,1069.157349 943.645508,1082.127319 
	C949.403748,1096.336426 957.695618,1109.509277 964.726868,1123.213989 
	C975.161621,1143.552612 989.557251,1160.370117 1007.948120,1174.026123 
	C1028.519165,1189.301147 1048.418213,1205.339600 1065.874878,1224.342896 
	C1074.404785,1233.628540 1085.749512,1238.562256 1098.958496,1238.055664 
	C1106.945435,1237.749390 1114.956421,1238.129150 1122.951782,1237.966675 
	C1132.704346,1237.768555 1141.517456,1234.410156 1149.376099,1228.837646 
	C1161.703369,1220.096680 1173.865601,1211.120850 1186.023804,1202.144287 
	C1207.786011,1186.077026 1227.988647,1168.390625 1243.826782,1146.184937 
	C1246.136353,1142.947021 1248.640015,1139.813965 1251.333374,1136.889893 
	C1259.342896,1128.193848 1267.623169,1119.745239 1275.557739,1110.982788 
	C1290.451782,1094.534546 1302.688354,1076.220947 1314.350098,1057.345093 
	C1326.450806,1037.758545 1333.840454,1016.864929 1337.235596,994.290894 
	C1339.681885,978.026550 1342.659180,961.838074 1344.874390,945.544312 
	C1346.329834,934.839905 1346.849609,924.008301 1347.869629,912.299622 
	C1335.100830,916.987854 1323.568970,918.074341 1311.746704,918.012756 
	C1297.772949,917.940002 1283.911743,916.957947 1271.340820,910.665161 
	C1264.115356,907.048157 1257.688843,901.634583 1251.367798,896.461548 
	C1243.331909,889.885254 1235.692505,882.671753 1232.174927,872.528748 
	C1230.405762,867.426880 1227.004028,865.960999 1221.083496,865.430908 
	C1222.395264,875.942261 1222.940063,886.093323 1225.062866,895.902954 
	C1227.929810,909.153015 1232.163696,922.101135 1235.527466,935.251343 
	C1239.217529,949.677246 1243.120483,964.082642 1245.928955,978.689575 
	C1248.310181,991.075867 1239.993896,1001.308167 1227.425293,1002.027466 
	C1215.145264,1002.730225 1202.810303,1002.477905 1189.500366,1002.582642 
M1160.176270,844.386658 
	C1161.501953,848.553894 1162.827515,852.721191 1163.978271,856.338928 
	C1166.476807,855.259827 1168.576782,854.430847 1170.596069,853.437683 
	C1171.291138,853.095825 1171.784546,852.344299 1172.370117,851.779907 
	C1169.300293,849.035706 1172.901611,849.056458 1173.874634,848.798950 
	C1179.885742,847.207886 1181.638062,843.151611 1181.846069,837.329102 
	C1182.391602,822.061096 1186.161255,807.316467 1192.629395,793.662781 
	C1203.859009,769.957947 1221.332153,751.365967 1243.909180,738.098999 
	C1251.632568,733.560547 1260.538940,729.133118 1269.188965,728.492676 
	C1284.500122,727.358948 1300.031616,729.100464 1315.464600,729.783447 
	C1319.285522,729.952515 1323.081787,730.676880 1327.114014,731.173706 
	C1325.619385,724.344788 1324.182251,718.382996 1323.029053,712.366821 
	C1321.343872,703.576233 1320.666382,694.508972 1318.144409,685.977905 
	C1310.546997,660.278381 1297.390747,637.229492 1282.378174,615.234375 
	C1267.518921,593.463745 1250.179810,573.714233 1231.846069,554.830933 
	C1230.023071,552.953430 1227.831543,551.082214 1225.443604,550.163147 
	C1212.117188,545.034424 1198.494385,540.860840 1184.119019,540.119019 
	C1182.199097,540.019897 1179.776978,541.345276 1178.280640,542.749756 
	C1170.884521,549.692200 1164.009644,557.208252 1156.423706,563.926819 
	C1130.929932,586.505798 1103.528198,607.034241 1084.227783,635.944275 
	C1067.810425,660.535767 1050.502563,684.532410 1033.624756,708.817322 
	C1032.669800,710.191284 1032.042236,711.792786 1031.632812,712.577942 
	C1043.553223,714.098572 1055.007568,716.043762 1066.543335,716.939026 
	C1098.862305,719.447083 1125.975830,732.917419 1148.193237,755.978943 
	C1158.504517,766.681885 1166.927246,778.836426 1165.329102,795.279541 
	C1164.424194,804.590393 1159.033325,812.183167 1150.027954,814.554077 
	C1148.077759,815.067566 1146.024780,815.190735 1144.999634,815.345642 
	C1149.992065,824.861816 1154.926758,834.267883 1160.176270,844.386658 
M1259.797974,1317.738159 
	C1259.901733,1318.395630 1259.947510,1319.068604 1260.117676,1319.708496 
	C1263.899902,1333.932251 1269.064087,1347.849121 1269.230103,1362.857910 
	C1269.279419,1367.319458 1269.129761,1372.009277 1270.400879,1376.190430 
	C1274.874146,1390.905640 1275.802246,1406.497925 1282.607300,1420.687500 
	C1289.419922,1434.892578 1294.717773,1449.816284 1301.188843,1464.195923 
	C1305.213013,1473.138062 1316.243896,1477.115356 1325.337280,1473.768066 
	C1337.215210,1469.396118 1342.304932,1457.738525 1337.468750,1445.851562 
	C1335.040283,1439.882935 1332.477905,1433.968750 1330.021851,1428.011230 
	C1325.592041,1417.265747 1320.037598,1406.813354 1317.085327,1395.673340 
	C1313.546265,1382.318237 1312.212769,1368.375977 1309.981689,1354.678589 
	C1309.317627,1350.601318 1309.185425,1346.411255 1308.225708,1342.413086 
	C1305.168579,1329.676392 1301.751709,1317.026489 1298.649048,1304.300293 
	C1297.240234,1298.521851 1295.898071,1292.680786 1295.250977,1286.788452 
	C1295.029785,1284.774170 1296.973022,1282.492798 1298.016968,1280.377563 
	C1298.986450,1278.412720 1299.616089,1275.939209 1301.187134,1274.668335 
	C1310.465820,1267.162354 1312.536499,1257.097290 1306.978394,1246.767578 
	C1305.870117,1244.707886 1305.523682,1241.774292 1305.936157,1239.439819 
	C1307.828857,1228.732422 1310.154175,1218.102295 1312.253540,1207.430420 
	C1316.452637,1186.085571 1320.632812,1164.736938 1324.766602,1143.379272 
	C1326.882690,1132.445923 1328.881958,1121.489746 1331.211182,1109.065674 
	C1329.029785,1110.483276 1327.759155,1110.985107 1326.956787,1111.898438 
	C1325.316284,1113.766235 1324.072144,1115.984863 1322.413330,1117.833496 
	C1297.448730,1145.653442 1274.100586,1174.893921 1248.412109,1202.084106 
	C1246.804199,1203.786011 1245.787109,1206.648315 1245.657715,1209.033936 
	C1245.246582,1216.604492 1245.264893,1224.206421 1245.348511,1231.793701 
	C1245.429077,1239.100708 1244.645142,1246.824951 1250.886841,1252.362427 
	C1253.590698,1254.761230 1254.185791,1257.381958 1254.097290,1260.724854 
	C1253.595215,1279.685669 1253.776001,1298.596680 1259.797974,1317.738159 
M1170.281494,1294.788452 
	C1177.036255,1293.141235 1183.809937,1291.567505 1190.541382,1289.829590 
	C1200.627563,1287.225342 1210.438843,1284.011230 1218.240723,1276.442505 
	C1210.039185,1265.230469 1203.265503,1253.786987 1205.173828,1238.996460 
	C1195.483765,1245.869385 1186.267212,1252.025146 1177.474487,1258.736206 
	C1165.537476,1267.846924 1152.715942,1275.205688 1137.669922,1276.850952 
	C1124.334839,1278.309326 1110.843262,1278.658203 1097.411987,1278.835815 
	C1077.721680,1279.096069 1060.152466,1272.400024 1045.026611,1260.073730 
	C1037.074585,1253.593384 1030.444946,1245.516602 1022.753845,1238.683350 
	C1013.313354,1230.295654 1003.453003,1222.373779 993.654846,1214.397095 
	C981.853699,1204.789795 969.927063,1195.336304 957.657654,1185.497803 
	C958.689514,1193.062134 958.483704,1200.995972 960.988953,1207.953857 
	C966.198975,1222.423462 972.803650,1236.393921 978.972290,1250.509644 
	C979.527649,1251.780518 981.085815,1253.516968 982.168640,1253.510132 
	C990.535461,1253.457275 995.983459,1258.120605 1001.088379,1263.992676 
	C1018.064087,1283.519653 1040.201294,1294.786743 1064.196899,1303.084595 
	C1074.840454,1306.765137 1085.787842,1306.254395 1096.740601,1306.227661 
	C1114.000244,1306.185669 1131.334229,1307.410400 1148.054443,1301.233154 
	C1155.015503,1298.661377 1162.315796,1297.007935 1170.281494,1294.788452 
M1007.555115,791.110657 
	C1011.985352,786.455322 1016.055969,781.374512 1020.935730,777.251099 
	C1027.202881,771.955444 1034.068115,766.541199 1042.508179,766.154358 
	C1052.823486,765.681641 1063.349365,765.118286 1073.412598,768.984436 
	C1085.329224,773.562744 1097.545898,777.425232 1109.222046,782.535767 
	C1114.606567,784.892456 1119.015625,789.478149 1123.867065,793.053223 
	C1123.579468,790.953979 1122.871094,789.139099 1121.687622,787.720337 
	C1109.009766,772.520630 1092.862305,763.039734 1073.526123,759.055969 
	C1068.993286,758.122131 1064.237549,758.217712 1059.740967,757.168945 
	C1045.820557,753.922241 1031.667847,753.546936 1017.601013,754.537720 
	C1011.476318,754.969055 1004.877319,756.744507 1001.827148,764.114502 
	C995.996338,778.203552 989.451721,791.995422 983.486511,806.031006 
	C979.235413,816.033203 975.447327,826.232239 971.525879,836.158142 
	C976.921753,838.512085 981.692261,840.593140 986.636230,842.749939 
	C990.201050,824.253174 996.251770,806.995850 1007.555115,791.110657 
M1249.017090,800.566956 
	C1252.515503,797.119751 1255.723999,793.298828 1259.577515,790.309204 
	C1266.020996,785.310059 1272.537109,780.218140 1279.661743,776.338867 
	C1285.850586,772.969238 1292.924194,771.224548 1298.668335,769.107605 
	C1284.707642,767.152039 1269.863037,766.775879 1257.343994,777.601807 
	C1252.580688,781.720947 1248.436523,786.547180 1243.801514,790.825073 
	C1229.475220,804.047180 1224.551636,821.364319 1222.340942,839.838928 
	C1222.203613,840.986267 1223.354126,843.063721 1224.362305,843.421692 
	C1227.027832,844.368225 1229.944580,844.607300 1232.832031,845.140991 
	C1233.156494,828.304688 1239.292847,814.135925 1249.017090,800.566956 
M1317.703735,797.962708 
	C1316.693970,803.127075 1315.684204,808.291504 1314.568237,813.998901 
	C1319.573120,820.605774 1322.085327,822.188965 1326.067993,818.827148 
	C1329.670898,815.786011 1331.841919,811.048706 1334.545654,807.199463 
	C1338.740479,812.042480 1333.076782,820.476257 1322.308838,823.985168 
	C1324.687256,832.272217 1326.995728,834.028259 1333.157715,831.634705 
	C1339.538208,829.156189 1344.073120,823.046082 1344.435059,817.624939 
	C1344.877319,811.001221 1346.285645,802.220886 1336.775879,798.012207 
	C1330.291382,795.142395 1324.614014,790.448975 1317.798706,786.071960 
	C1317.798706,790.759094 1317.798706,793.908936 1317.703735,797.962708 
M1329.170898,835.332458 
	C1325.927124,835.176086 1326.142578,836.627563 1327.818359,838.474487 
	C1333.132202,844.331482 1340.061646,842.923340 1347.238403,843.084290 
	C1346.758423,836.426514 1346.318604,830.326050 1345.823608,823.461914 
	C1341.479370,829.778687 1337.834351,835.497253 1329.170898,835.332458 
M1058.193359,810.181946 
	C1057.380005,812.058167 1056.515747,813.914429 1055.767944,815.816406 
	C1055.046265,817.651978 1054.444458,819.534729 1053.790039,821.396729 
	C1054.224731,821.736389 1054.659424,822.076111 1055.094238,822.415771 
	C1061.773926,813.422180 1071.613892,816.848694 1081.354370,815.740051 
	C1073.737915,810.797791 1066.527954,809.629944 1058.193359,810.181946 
M1332.251953,775.316772 
	C1334.717163,776.803894 1337.182495,778.291077 1340.243286,780.137573 
	C1339.839966,777.564636 1339.548584,775.705261 1339.303955,774.144592 
	C1335.324341,773.540222 1331.954834,773.028503 1327.574951,772.363281 
	C1329.504272,773.593384 1330.577515,774.277588 1332.251953,775.316772 
M1053.520630,823.326416 
	C1053.520630,823.326416 1053.432983,823.506836 1053.432983,823.506836 
	C1053.432983,823.506836 1053.605713,823.472534 1053.520630,823.326416 
z"/>
<path fill="#654C47" opacity="1.000000" stroke="none" 
	d="
M1054.718018,297.268585 
	C1056.353271,297.457275 1058.117554,297.319550 1059.596680,297.903503 
	C1062.560059,299.073303 1065.658691,299.451538 1066.534058,304.084320 
	C1067.351318,308.410004 1070.815430,312.189941 1072.850220,316.339752 
	C1079.132568,329.153046 1085.167480,342.088562 1091.520752,354.866119 
	C1102.744263,377.438446 1114.610229,399.705139 1125.294189,422.527222 
	C1133.349854,439.734680 1140.052368,457.580139 1147.203369,475.204010 
	C1149.560425,481.012756 1151.335205,487.055450 1153.578247,492.913788 
	C1154.629272,495.658661 1154.087036,497.170044 1151.341309,498.399384 
	C1141.781738,502.679596 1137.651367,510.171417 1139.223755,520.511169 
	C1139.717529,523.757385 1138.607666,525.690308 1136.279785,527.723389 
	C1118.985718,542.826904 1101.758789,558.007690 1084.574585,573.236145 
	C1066.965942,588.840759 1054.342773,608.625732 1040.274170,627.116577 
	C1011.149719,665.395874 985.807556,706.217407 964.469421,749.277954 
	C952.665955,773.097229 943.661743,798.301208 933.334351,822.855164 
	C918.215881,858.800171 908.313660,896.390869 898.176392,933.910095 
	C894.216003,948.568176 890.236084,963.221069 886.245544,977.870972 
	C885.988586,978.814209 885.644714,979.752502 885.204468,980.623962 
	C882.415771,986.144653 880.758423,991.538574 881.334961,998.174133 
	C881.920898,1004.917114 879.703186,1011.877991 878.949036,1018.769226 
	C877.871460,1028.616821 877.028137,1038.489868 876.040710,1048.347534 
	C875.777100,1050.979370 875.352966,1053.595093 874.585083,1056.841064 
	C874.113708,1082.447754 874.054260,1107.431519 874.044922,1132.415283 
	C874.044678,1132.918457 874.627686,1133.421875 874.938538,1133.925171 
	C876.348999,1141.519165 877.597229,1149.147583 879.200378,1156.700684 
	C883.978027,1179.211182 889.818848,1201.431396 900.050415,1222.166382 
	C901.915771,1225.946411 905.588867,1229.048706 908.948364,1231.836060 
	C917.859314,1239.229370 927.768738,1245.474731 934.669495,1255.100220 
	C939.974731,1262.500000 945.170532,1269.991211 950.772217,1277.162720 
	C957.869202,1286.248413 965.503723,1294.914917 972.580139,1304.015869 
	C979.382507,1312.764404 985.869568,1321.765015 992.288208,1330.801758 
	C994.866638,1334.432007 996.809753,1338.506470 999.187805,1342.287231 
	C1004.098816,1350.094604 1008.758850,1358.093506 1014.165894,1365.546631 
	C1020.687744,1374.536377 1019.162659,1387.631104 1009.542114,1394.833618 
	C1000.713684,1401.443115 988.374634,1399.668701 981.563599,1390.788086 
	C973.946899,1380.856934 965.798462,1371.244873 961.679138,1358.939453 
	C960.222961,1354.589600 956.324829,1351.051758 953.516785,1347.161011 
	C948.677124,1340.455688 944.003235,1333.619507 938.915100,1327.107666 
	C933.819153,1320.585693 928.077393,1314.566040 923.022461,1308.014893 
	C915.940247,1298.836182 909.910583,1288.753662 902.162720,1280.207153 
	C895.107849,1272.424805 886.437683,1266.084717 878.334351,1259.281860 
	C872.441650,1254.334961 869.467529,1245.558105 871.822205,1238.254639 
	C872.693115,1235.553345 872.681335,1233.574097 870.692810,1231.108032 
	C851.173218,1206.901367 831.592468,1182.736816 812.516357,1158.181885 
	C795.795410,1136.658447 779.910889,1114.486450 763.274353,1092.895752 
	C740.277710,1063.051025 719.959473,1031.492188 703.879578,997.468018 
	C694.141602,976.862915 686.746582,955.161621 677.890442,934.124817 
	C671.211609,918.259888 663.562561,902.802490 656.923645,886.921875 
	C647.551147,864.502563 640.477600,841.356018 636.458435,817.317200 
	C635.348450,810.678406 633.533936,804.157410 632.371338,796.855347 
	C632.760071,777.765808 632.830505,759.403259 632.850464,741.040649 
	C632.851501,740.102844 632.418518,739.164551 632.187622,738.226440 
	C632.117004,736.905029 631.851318,735.559875 632.008362,734.266113 
	C632.847656,727.353943 633.924561,720.468445 634.643982,713.545044 
	C634.993958,710.177002 634.329468,706.683533 634.835693,703.355042 
	C637.366089,686.717529 639.640198,670.017639 642.935974,653.525757 
	C647.401978,631.177673 651.835571,608.753113 657.962158,586.830627 
	C662.302368,571.300415 669.392944,556.535522 675.308228,541.449585 
	C685.017883,516.686829 696.522461,492.781982 711.585632,470.829803 
	C725.318420,450.816406 739.017151,430.529968 757.209351,414.246460 
	C772.917419,400.186401 789.477356,386.982117 806.419250,374.422760 
	C824.416077,361.081360 843.056030,348.631958 863.268982,338.605530 
	C887.472961,326.599457 913.069336,319.039093 939.174438,312.823914 
	C955.226196,309.002319 971.237854,304.972412 987.390686,301.631592 
	C995.214661,300.013397 1003.332581,299.849030 1011.294678,298.846161 
	C1013.705200,298.542542 1016.039673,297.634888 1019.120972,297.344025 
	C1026.576782,297.794617 1033.321655,298.027832 1040.064209,297.974579 
	C1044.950439,297.935974 1049.833496,297.517578 1054.718018,297.268585 
z"/>
<path fill="#E2D6C1" opacity="1.000000" stroke="none" 
	d="
M1190.000000,1002.613647 
	C1202.810303,1002.477905 1215.145264,1002.730225 1227.425293,1002.027466 
	C1239.993896,1001.308167 1248.310181,991.075867 1245.928955,978.689575 
	C1243.120483,964.082642 1239.217529,949.677246 1235.527466,935.251343 
	C1232.163696,922.101135 1227.929810,909.153015 1225.062866,895.902954 
	C1222.940063,886.093323 1222.395264,875.942261 1221.083496,865.430908 
	C1227.004028,865.960999 1230.405762,867.426880 1232.174927,872.528748 
	C1235.692505,882.671753 1243.331909,889.885254 1251.367798,896.461548 
	C1257.688843,901.634583 1264.115356,907.048157 1271.340820,910.665161 
	C1283.911743,916.957947 1297.772949,917.940002 1311.746704,918.012756 
	C1323.568970,918.074341 1335.100830,916.987854 1347.869629,912.299622 
	C1346.849609,924.008301 1346.329834,934.839905 1344.874390,945.544312 
	C1342.659180,961.838074 1339.681885,978.026550 1337.235596,994.290894 
	C1333.840454,1016.864929 1326.450806,1037.758545 1314.350098,1057.345093 
	C1302.688354,1076.220947 1290.451782,1094.534546 1275.557739,1110.982788 
	C1267.623169,1119.745239 1259.342896,1128.193848 1251.333374,1136.889893 
	C1248.640015,1139.813965 1246.136353,1142.947021 1243.826782,1146.184937 
	C1227.988647,1168.390625 1207.786011,1186.077026 1186.023804,1202.144287 
	C1173.865601,1211.120850 1161.703369,1220.096680 1149.376099,1228.837646 
	C1141.517456,1234.410156 1132.704346,1237.768555 1122.951782,1237.966675 
	C1114.956421,1238.129150 1106.945435,1237.749390 1098.958496,1238.055664 
	C1085.749512,1238.562256 1074.404785,1233.628540 1065.874878,1224.342896 
	C1048.418213,1205.339600 1028.519165,1189.301147 1007.948120,1174.026123 
	C989.557251,1160.370117 975.161621,1143.552612 964.726868,1123.213989 
	C957.695618,1109.509277 949.403748,1096.336426 943.645508,1082.127319 
	C938.389404,1069.157349 935.353577,1055.214355 932.131592,1041.513916 
	C928.945679,1027.967041 926.693176,1014.197876 924.180786,1000.498718 
	C923.769897,998.258606 923.652405,995.754761 924.206848,993.578491 
	C936.035156,947.146118 947.939270,900.733887 963.840149,855.465027 
	C964.952881,852.296936 966.458374,851.240051 969.614075,852.022034 
	C972.978638,852.855774 976.354919,853.822998 979.783386,854.176147 
	C985.053711,854.719116 986.037109,857.995544 985.588562,862.321716 
	C984.142456,876.268921 989.858765,888.019897 998.251343,898.126282 
	C1007.159668,908.853882 1018.947021,916.154724 1032.055542,921.309082 
	C1047.737793,927.475525 1063.821655,930.260864 1080.584961,928.136169 
	C1097.791260,925.955322 1113.479736,919.632874 1127.044189,908.893860 
	C1135.636719,902.091125 1144.440552,895.045288 1151.121582,886.519287 
	C1155.508667,880.920593 1160.684448,878.153015 1166.360840,875.151917 
	C1171.135498,872.627563 1175.774536,869.846741 1181.433472,866.634705 
	C1180.134155,900.615601 1192.148438,930.622009 1200.760010,961.897095 
	C1190.226318,961.897095 1180.130615,961.621216 1170.057739,961.983093 
	C1161.780518,962.280518 1153.535034,963.401001 1145.263428,963.986145 
	C1143.968262,964.077759 1142.169678,963.674255 1141.348267,962.800171 
	C1134.504761,955.516968 1123.065430,955.530701 1116.498535,959.429138 
	C1108.740234,964.034668 1104.832031,972.954895 1106.328247,983.171631 
	C1108.325928,996.813904 1119.035278,1006.454834 1132.818481,1005.980652 
	C1142.582397,1005.644714 1152.286133,1003.808105 1162.051514,1003.189636 
	C1171.177368,1002.611694 1180.348877,1002.756226 1190.000000,1002.613647 
M1012.835815,1041.838623 
	C1019.021973,1056.078369 1022.860657,1071.165771 1030.717163,1084.881836 
	C1039.932373,1100.969971 1050.267822,1115.719849 1065.021606,1127.109009 
	C1080.911377,1139.375122 1097.308838,1149.337646 1118.948120,1147.393555 
	C1132.188477,1146.203979 1144.086426,1142.841919 1154.341919,1134.667114 
	C1166.337036,1125.105713 1175.011719,1112.698608 1182.032959,1099.203857 
	C1186.887817,1089.872803 1190.208862,1080.074951 1189.639038,1069.206909 
	C1189.065430,1058.266479 1183.329712,1049.111938 1174.130737,1046.431152 
	C1169.862305,1045.187256 1165.359863,1044.676636 1160.932007,1044.061157 
	C1141.905029,1041.416382 1122.699707,1039.708984 1103.878662,1036.027344 
	C1084.777588,1032.291016 1067.172729,1023.779236 1049.996704,1014.727356 
	C1046.626709,1012.951477 1043.672485,1010.122681 1041.011475,1007.319153 
	C1035.004761,1000.990723 1025.156860,998.878540 1017.200623,1002.619873 
	C1008.999084,1006.476379 1004.858643,1014.867798 1005.559814,1023.871033 
	C1006.080078,1030.551147 1009.133850,1035.825684 1012.835815,1041.838623 
z"/>
<path fill="#E2D6C1" opacity="1.000000" stroke="none" 
	d="
M1160.018799,844.030334 
	C1154.926758,834.267883 1149.992065,824.861816 1144.999634,815.345642 
	C1146.024780,815.190735 1148.077759,815.067566 1150.027954,814.554077 
	C1159.033325,812.183167 1164.424194,804.590393 1165.329102,795.279541 
	C1166.927246,778.836426 1158.504517,766.681885 1148.193237,755.978943 
	C1125.975830,732.917419 1098.862305,719.447083 1066.543335,716.939026 
	C1055.007568,716.043762 1043.553223,714.098572 1031.632812,712.577942 
	C1032.042236,711.792786 1032.669800,710.191284 1033.624756,708.817322 
	C1050.502563,684.532410 1067.810425,660.535767 1084.227783,635.944275 
	C1103.528198,607.034241 1130.929932,586.505798 1156.423706,563.926819 
	C1164.009644,557.208252 1170.884521,549.692200 1178.280640,542.749756 
	C1179.776978,541.345276 1182.199097,540.019897 1184.119019,540.119019 
	C1198.494385,540.860840 1212.117188,545.034424 1225.443604,550.163147 
	C1227.831543,551.082214 1230.023071,552.953430 1231.846069,554.830933 
	C1250.179810,573.714233 1267.518921,593.463745 1282.378174,615.234375 
	C1297.390747,637.229492 1310.546997,660.278381 1318.144409,685.977905 
	C1320.666382,694.508972 1321.343872,703.576233 1323.029053,712.366821 
	C1324.182251,718.382996 1325.619385,724.344788 1327.114014,731.173706 
	C1323.081787,730.676880 1319.285522,729.952515 1315.464600,729.783447 
	C1300.031616,729.100464 1284.500122,727.358948 1269.188965,728.492676 
	C1260.538940,729.133118 1251.632568,733.560547 1243.909180,738.098999 
	C1221.332153,751.365967 1203.859009,769.957947 1192.629395,793.662781 
	C1186.161255,807.316467 1182.391602,822.061096 1181.846069,837.329102 
	C1181.638062,843.151611 1179.885742,847.207886 1173.874634,848.798950 
	C1172.901611,849.056458 1169.300293,849.035706 1172.370117,851.779907 
	C1171.784546,852.344299 1171.291138,853.095825 1170.596069,853.437683 
	C1168.576782,854.430847 1166.476807,855.259827 1163.978271,856.338928 
	C1162.827515,852.721191 1161.501953,848.553894 1160.018799,844.030334 
z"/>
<path fill="#664E49" opacity="1.000000" stroke="none" 
	d="
M1107.335693,293.582092 
	C1115.217407,297.776825 1123.322388,301.604645 1130.937134,306.238129 
	C1150.377686,318.067535 1169.655518,330.167694 1188.894409,342.324371 
	C1211.077637,356.341522 1232.330444,371.999512 1249.100220,392.056213 
	C1259.874390,404.942291 1267.451782,420.812408 1274.876953,436.114227 
	C1285.860718,458.749634 1295.714111,481.950684 1305.532959,505.129425 
	C1315.277222,528.132080 1325.574829,551.010315 1333.415894,574.676575 
	C1340.504883,596.073181 1344.690063,618.439819 1349.934814,640.431396 
	C1350.776001,643.957520 1350.460815,647.759460 1350.680176,651.433960 
	C1350.158325,651.501770 1349.636475,651.569580 1349.114624,651.637451 
	C1347.069458,647.553833 1345.149658,643.401489 1342.956177,639.399170 
	C1335.625854,626.023376 1329.072021,612.115906 1320.616821,599.485718 
	C1305.066772,576.257812 1287.584961,554.476379 1268.054932,534.337158 
	C1259.756592,525.779968 1251.803467,516.748962 1240.494751,512.628052 
	C1227.957275,508.059326 1215.009155,504.348969 1201.959961,501.586792 
	C1196.813843,500.497467 1195.024048,497.939789 1194.441650,494.124603 
	C1191.046875,471.884644 1181.644287,451.664459 1172.745239,431.447083 
	C1161.816040,406.617188 1149.246826,382.509552 1137.401855,358.082214 
	C1127.205811,337.055542 1117.031616,316.018250 1106.937988,294.469482 
	C1107.027954,293.953339 1107.335693,293.582123 1107.335693,293.582092 
z"/>
<path fill="#463633" opacity="1.000000" stroke="none" 
	d="
M1259.653931,1317.350830 
	C1253.776001,1298.596680 1253.595215,1279.685669 1254.097290,1260.724854 
	C1254.185791,1257.381958 1253.590698,1254.761230 1250.886841,1252.362427 
	C1244.645142,1246.824951 1245.429077,1239.100708 1245.348511,1231.793701 
	C1245.264893,1224.206421 1245.246582,1216.604492 1245.657715,1209.033936 
	C1245.787109,1206.648315 1246.804199,1203.786011 1248.412109,1202.084106 
	C1274.100586,1174.893921 1297.448730,1145.653442 1322.413330,1117.833496 
	C1324.072144,1115.984863 1325.316284,1113.766235 1326.956787,1111.898438 
	C1327.759155,1110.985107 1329.029785,1110.483276 1331.211182,1109.065674 
	C1328.881958,1121.489746 1326.882690,1132.445923 1324.766602,1143.379272 
	C1320.632812,1164.736938 1316.452637,1186.085571 1312.253540,1207.430420 
	C1310.154175,1218.102295 1307.828857,1228.732422 1305.936157,1239.439819 
	C1305.523682,1241.774292 1305.870117,1244.707886 1306.978394,1246.767578 
	C1312.536499,1257.097290 1310.465820,1267.162354 1301.187134,1274.668335 
	C1299.616089,1275.939209 1298.986450,1278.412720 1298.016968,1280.377563 
	C1296.973022,1282.492798 1295.029785,1284.774170 1295.250977,1286.788452 
	C1295.898071,1292.680786 1297.240234,1298.521851 1298.649048,1304.300293 
	C1301.751709,1317.026489 1305.168579,1329.676392 1308.225708,1342.413086 
	C1309.185425,1346.411255 1309.317627,1350.601318 1309.981689,1354.678589 
	C1312.212769,1368.375977 1313.546265,1382.318237 1317.085327,1395.673340 
	C1320.037598,1406.813354 1325.592041,1417.265747 1330.021851,1428.011230 
	C1332.477905,1433.968750 1335.040283,1439.882935 1337.468750,1445.851562 
	C1342.304932,1457.738525 1337.215210,1469.396118 1325.337280,1473.768066 
	C1316.243896,1477.115356 1305.213013,1473.138062 1301.188843,1464.195923 
	C1294.717773,1449.816284 1289.419922,1434.892578 1282.607300,1420.687500 
	C1275.802246,1406.497925 1274.874146,1390.905640 1270.400879,1376.190430 
	C1269.129761,1372.009277 1269.279419,1367.319458 1269.230103,1362.857910 
	C1269.064087,1347.849121 1263.899902,1333.932251 1260.117676,1319.708496 
	C1259.947510,1319.068604 1259.901733,1318.395630 1259.653931,1317.350830 
z"/>
<path fill="#E1D5C0" opacity="1.000000" stroke="none" 
	d="
M1095.025269,861.204895 
	C1095.321899,852.386475 1096.543091,843.465454 1095.579346,834.786987 
	C1094.969971,829.301270 1091.898926,823.562805 1088.448853,819.078735 
	C1085.482666,815.223389 1080.507446,812.841858 1076.242432,810.083801 
	C1073.489502,808.303467 1070.333374,807.155701 1067.521240,805.454407 
	C1066.157715,804.629517 1065.169678,803.184021 1064.506592,802.517151 
	C1058.112671,803.183167 1050.800659,805.982483 1045.285889,803.936584 
	C1039.952881,801.958191 1036.470947,794.990112 1032.143311,790.177612 
	C1031.183716,798.961914 1040.840210,808.002258 1052.141479,808.986450 
	C1048.180664,815.909302 1047.890869,816.321289 1039.837036,813.377441 
	C1033.498901,811.060852 1028.740845,806.825500 1025.526123,800.848877 
	C1024.850952,799.593689 1023.859558,798.508667 1022.526611,796.674805 
	C1027.217773,792.695312 1031.631714,787.678955 1037.143311,784.680176 
	C1041.509155,782.304810 1047.235596,781.489624 1052.332886,781.570068 
	C1070.011597,781.849182 1086.356323,788.185974 1101.881348,795.675354 
	C1109.383423,799.294434 1115.248291,806.603882 1121.353027,812.741211 
	C1127.720581,819.142822 1134.292480,825.602173 1139.285522,833.036682 
	C1144.271606,840.460693 1145.810547,849.631226 1144.544922,858.563049 
	C1143.733398,864.289368 1142.491211,870.956421 1138.964478,875.085510 
	C1131.851929,883.413025 1123.403076,890.734131 1114.848145,897.658264 
	C1105.604248,905.139954 1094.568481,910.104919 1082.879517,911.353027 
	C1071.726440,912.544006 1060.093140,912.404053 1049.048096,910.573364 
	C1037.434326,908.648499 1026.361328,903.850830 1017.018005,896.037109 
	C1006.224976,887.011047 1000.288513,876.194702 1000.640015,861.436279 
	C1001.033691,844.902344 1004.938660,829.446045 1011.312073,814.500793 
	C1013.665649,808.981689 1017.436768,804.067078 1021.107361,797.969849 
	C1025.689087,810.875427 1034.523193,816.768005 1046.756836,818.685608 
	C1046.267090,820.442078 1045.810791,822.175110 1045.300537,823.892212 
	C1042.898193,831.977600 1037.090210,833.718506 1030.487061,828.331970 
	C1028.966064,827.091248 1027.479004,825.808838 1025.308105,823.983887 
	C1026.194824,830.445862 1027.008057,830.993103 1041.641602,836.007019 
	C1039.960571,841.032837 1040.698853,847.146973 1033.901733,849.550171 
	C1026.939697,852.011658 1023.676636,847.053711 1019.877686,842.592712 
	C1018.951782,845.900513 1020.100586,848.426086 1023.270447,851.212036 
	C1026.642578,854.175659 1031.101196,854.203247 1039.118530,851.176331 
	C1039.118530,858.089661 1039.337891,864.886414 1039.072266,871.664062 
	C1038.540039,885.246460 1050.163940,893.994507 1062.067993,895.187866 
	C1073.045532,896.288391 1080.909668,891.491638 1086.138550,882.528564 
	C1089.743774,876.348450 1092.111816,869.446655 1095.062988,862.255127 
	C1095.093262,861.642944 1095.025269,861.204895 1095.025269,861.204895 
z"/>
<path fill="#E1D6C0" opacity="1.000000" stroke="none" 
	d="
M1169.871704,1294.862671 
	C1162.315796,1297.007935 1155.015503,1298.661377 1148.054443,1301.233154 
	C1131.334229,1307.410400 1114.000244,1306.185669 1096.740601,1306.227661 
	C1085.787842,1306.254395 1074.840454,1306.765137 1064.196899,1303.084595 
	C1040.201294,1294.786743 1018.064087,1283.519653 1001.088379,1263.992676 
	C995.983459,1258.120605 990.535461,1253.457275 982.168640,1253.510132 
	C981.085815,1253.516968 979.527649,1251.780518 978.972290,1250.509644 
	C972.803650,1236.393921 966.198975,1222.423462 960.988953,1207.953857 
	C958.483704,1200.995972 958.689514,1193.062134 957.657654,1185.497803 
	C969.927063,1195.336304 981.853699,1204.789795 993.654846,1214.397095 
	C1003.453003,1222.373779 1013.313354,1230.295654 1022.753845,1238.683350 
	C1030.444946,1245.516602 1037.074585,1253.593384 1045.026611,1260.073730 
	C1060.152466,1272.400024 1077.721680,1279.096069 1097.411987,1278.835815 
	C1110.843262,1278.658203 1124.334839,1278.309326 1137.669922,1276.850952 
	C1152.715942,1275.205688 1165.537476,1267.846924 1177.474487,1258.736206 
	C1186.267212,1252.025146 1195.483765,1245.869385 1205.173828,1238.996460 
	C1203.265503,1253.786987 1210.039185,1265.230469 1218.240723,1276.442505 
	C1210.438843,1284.011230 1200.627563,1287.225342 1190.541382,1289.829590 
	C1183.809937,1291.567505 1177.036255,1293.141235 1169.871704,1294.862671 
z"/>
<path fill="#E1D6C1" opacity="1.000000" stroke="none" 
	d="
M1325.190918,867.248657 
	C1325.826416,864.270630 1326.822021,861.315796 1327.015137,858.309387 
	C1327.323120,853.509827 1327.097534,848.676025 1327.097534,844.082458 
	C1333.641968,845.167786 1340.232422,846.260742 1347.381470,847.446350 
	C1347.381470,861.117371 1347.570312,875.057617 1347.148193,888.979248 
	C1347.093872,890.770142 1344.173584,893.171265 1342.059937,894.085999 
	C1330.985107,898.878784 1319.145142,899.173035 1307.349243,898.878113 
	C1294.879883,898.566345 1282.591187,896.888184 1272.576294,888.497559 
	C1264.849854,882.024170 1255.130249,877.606506 1250.814087,867.495605 
	C1244.749268,853.287537 1243.917358,839.280762 1249.989624,824.649658 
	C1256.086060,809.959900 1266.732300,799.632507 1280.061035,792.313904 
	C1290.668823,786.489319 1302.585205,784.010681 1315.304321,786.069519 
	C1314.306763,794.438599 1313.322510,802.697571 1312.219238,811.953979 
	C1305.068970,807.581543 1299.201172,806.775635 1293.603760,811.385193 
	C1293.821777,811.808167 1293.954102,811.804077 1293.615234,811.515137 
	C1292.655518,811.810120 1292.034668,812.394043 1291.215332,813.132507 
	C1290.335083,813.676514 1289.653076,814.066040 1288.630615,814.620728 
	C1288.153931,815.177307 1288.018066,815.568787 1287.920898,815.946289 
	C1287.959473,815.932251 1287.914429,815.863403 1287.579834,815.719482 
	C1285.854370,817.385986 1284.463257,819.196350 1282.848267,821.124512 
	C1282.482666,821.535278 1282.340942,821.828125 1282.011230,822.425049 
	C1280.553833,828.053467 1278.583496,833.328064 1278.202026,838.715149 
	C1277.777344,844.712463 1278.798950,850.812073 1279.182739,857.243835 
	C1280.119995,860.424805 1280.922729,863.286987 1282.034912,866.023499 
	C1286.911255,878.021545 1297.557495,882.778442 1309.855347,879.232788 
	C1316.773682,877.238159 1321.243408,872.727661 1325.190918,867.248657 
z"/>
<path fill="#DED3BF" opacity="1.000000" stroke="none" 
	d="
M1007.336853,791.399963 
	C996.251770,806.995850 990.201050,824.253174 986.636230,842.749939 
	C981.692261,840.593140 976.921753,838.512085 971.525879,836.158142 
	C975.447327,826.232239 979.235413,816.033203 983.486511,806.031006 
	C989.451721,791.995422 995.996338,778.203552 1001.827148,764.114502 
	C1004.877319,756.744507 1011.476318,754.969055 1017.601013,754.537720 
	C1031.667847,753.546936 1045.820557,753.922241 1059.740967,757.168945 
	C1064.237549,758.217712 1068.993286,758.122131 1073.526123,759.055969 
	C1092.862305,763.039734 1109.009766,772.520630 1121.687622,787.720337 
	C1122.871094,789.139099 1123.579468,790.953979 1123.867065,793.053223 
	C1119.015625,789.478149 1114.606567,784.892456 1109.222046,782.535767 
	C1097.545898,777.425232 1085.329224,773.562744 1073.412598,768.984436 
	C1063.349365,765.118286 1052.823486,765.681641 1042.508179,766.154358 
	C1034.068115,766.541199 1027.202881,771.955444 1020.935730,777.251099 
	C1016.055969,781.374512 1011.985352,786.455322 1007.336853,791.399963 
z"/>
<path fill="#655654" opacity="1.000000" stroke="none" 
	d="
M1094.999268,860.729553 
	C1095.025269,861.204895 1095.093262,861.642944 1095.009155,861.848022 
	C1092.647339,866.617920 1090.289551,871.145020 1088.111084,875.756775 
	C1085.001465,882.339966 1080.142212,887.410645 1073.734375,890.481323 
	C1064.299316,895.002869 1046.098633,891.814026 1043.316528,878.488892 
	C1041.210693,868.402893 1042.899292,857.524597 1042.899292,846.768494 
	C1044.013062,847.189514 1045.108521,847.603699 1045.684204,847.821350 
	C1048.698486,841.359253 1051.314819,835.121338 1054.465820,829.166443 
	C1057.802734,822.860535 1062.798584,818.822510 1070.549316,819.834167 
	C1070.713013,819.855530 1070.882935,819.848633 1071.048218,819.834045 
	C1088.987427,818.247620 1090.467285,825.346191 1093.908447,842.388733 
	C1095.077759,848.179504 1094.663818,854.289856 1094.999268,860.729553 
M1079.552979,837.994324 
	C1078.209351,836.341187 1077.172852,833.926636 1075.443604,833.228760 
	C1073.310059,832.367737 1069.742676,831.880676 1068.286133,833.065308 
	C1061.592285,838.509705 1058.837769,845.815491 1059.802612,854.577942 
	C1060.357056,859.613708 1063.182007,862.820007 1068.234131,863.193176 
	C1074.875122,863.683594 1078.595337,859.323608 1081.543213,854.533813 
	C1084.889404,849.096924 1084.520874,843.524536 1079.552979,837.994324 
z"/>
<path fill="#645553" opacity="1.000000" stroke="none" 
	d="
M1324.891602,867.038086 
	C1321.243408,872.727661 1316.773682,877.238159 1309.855347,879.232788 
	C1297.557495,882.778442 1286.911255,878.021545 1282.034912,866.023499 
	C1280.922729,863.286987 1280.119995,860.424805 1279.438232,856.933350 
	C1280.121094,849.327393 1280.489502,842.404968 1280.978394,835.490967 
	C1281.294067,831.027832 1281.786255,826.577271 1282.199219,822.120972 
	C1282.340942,821.828125 1282.482666,821.535278 1283.222412,821.095154 
	C1284.570679,820.897827 1285.321045,820.847778 1286.071289,820.797729 
	C1292.242188,820.151794 1298.402344,819.145813 1304.587158,818.959229 
	C1311.036499,818.764771 1317.851562,824.117737 1318.788940,829.153931 
	C1313.998413,831.305664 1309.301392,829.731934 1304.555908,828.889893 
	C1301.305664,828.313110 1299.136963,829.760681 1298.009277,832.869507 
	C1295.245850,840.489319 1294.128296,850.709045 1301.745972,855.459961 
	C1306.937134,858.697510 1311.416626,857.489502 1312.546997,851.451477 
	C1313.638672,845.620117 1313.996582,839.651428 1314.679810,833.717651 
	C1321.716675,834.117065 1326.323486,838.583862 1326.102783,845.752991 
	C1325.886230,852.786682 1325.118286,859.803406 1324.891602,867.038086 
z"/>
<path fill="#DCD1BE" opacity="1.000000" stroke="none" 
	d="
M1248.761719,800.820923 
	C1239.292847,814.135925 1233.156494,828.304688 1232.832031,845.140991 
	C1229.944580,844.607300 1227.027832,844.368225 1224.362305,843.421692 
	C1223.354126,843.063721 1222.203613,840.986267 1222.340942,839.838928 
	C1224.551636,821.364319 1229.475220,804.047180 1243.801514,790.825073 
	C1248.436523,786.547180 1252.580688,781.720947 1257.343994,777.601807 
	C1269.863037,766.775879 1284.707642,767.152039 1298.668335,769.107605 
	C1292.924194,771.224548 1285.850586,772.969238 1279.661743,776.338867 
	C1272.537109,780.218140 1266.020996,785.310059 1259.577515,790.309204 
	C1255.723999,793.298828 1252.515503,797.119751 1248.761719,800.820923 
z"/>
<path fill="#DED3C0" opacity="1.000000" stroke="none" 
	d="
M1317.751221,797.510742 
	C1317.798706,793.908936 1317.798706,790.759094 1317.798706,786.071960 
	C1324.614014,790.448975 1330.291382,795.142395 1336.775879,798.012207 
	C1346.285645,802.220886 1344.877319,811.001221 1344.435059,817.624939 
	C1344.073120,823.046082 1339.538208,829.156189 1333.157715,831.634705 
	C1326.995728,834.028259 1324.687256,832.272217 1322.308838,823.985168 
	C1333.076782,820.476257 1338.740479,812.042480 1334.545654,807.199463 
	C1331.841919,811.048706 1329.670898,815.786011 1326.067993,818.827148 
	C1322.085327,822.188965 1319.573120,820.605774 1314.568237,813.998901 
	C1315.684204,808.291504 1316.693970,803.127075 1317.751221,797.510742 
z"/>
<path fill="#DCD1BE" opacity="1.000000" stroke="none" 
	d="
M1329.559326,835.336487 
	C1337.834351,835.497253 1341.479370,829.778687 1345.823608,823.461914 
	C1346.318604,830.326050 1346.758423,836.426514 1347.238403,843.084290 
	C1340.061646,842.923340 1333.132202,844.331482 1327.818359,838.474487 
	C1326.142578,836.627563 1325.927124,835.176086 1329.559326,835.336487 
z"/>
<path fill="#605250" opacity="1.000000" stroke="none" 
	d="
M1058.538574,810.258301 
	C1066.527954,809.629944 1073.737915,810.797791 1081.354370,815.740051 
	C1071.613892,816.848694 1061.773926,813.422180 1055.094238,822.415771 
	C1054.659424,822.076111 1054.224731,821.736389 1053.790039,821.396729 
	C1054.444458,819.534729 1055.046265,817.651978 1055.767944,815.816406 
	C1056.515747,813.914429 1057.380005,812.058167 1058.538574,810.258301 
z"/>
<path fill="#C6C4C4" opacity="1.000000" stroke="none" 
	d="
M874.980042,1133.462646 
	C874.627686,1133.421875 874.044678,1132.918457 874.044922,1132.415283 
	C874.054260,1107.431519 874.113708,1082.447754 874.551514,1057.272583 
	C874.964111,1082.387573 874.992798,1107.693848 874.980042,1133.462646 
z"/>
<path fill="#CFCECD" opacity="1.000000" stroke="none" 
	d="
M632.162720,738.679932 
	C632.418518,739.164551 632.851501,740.102844 632.850464,741.040649 
	C632.830505,759.403259 632.760071,777.765808 632.451294,796.437988 
	C632.181091,777.542908 632.159485,758.338196 632.162720,738.679932 
z"/>
<path fill="#E4E3E3" opacity="1.000000" stroke="none" 
	d="
M1331.951294,775.139282 
	C1330.577515,774.277588 1329.504272,773.593384 1327.574951,772.363281 
	C1331.954834,773.028503 1335.324341,773.540222 1339.303955,774.144592 
	C1339.548584,775.705261 1339.839966,777.564636 1340.243286,780.137573 
	C1337.182495,778.291077 1334.717163,776.803894 1331.951294,775.139282 
z"/>
<path fill="#AAA8A7" opacity="1.000000" stroke="none" 
	d="
M1054.275391,297.184082 
	C1049.833496,297.517578 1044.950439,297.935974 1040.064209,297.974579 
	C1033.321655,298.027832 1026.576782,297.794617 1019.523193,297.437500 
	C1030.753174,297.160492 1042.292969,297.130066 1054.275391,297.184082 
z"/>
<path fill="#654C47" opacity="1.000000" stroke="none" 
	d="
M1288.971191,814.455566 
	C1289.653076,814.066040 1290.335083,813.676514 1291.607666,813.129883 
	C1292.783691,812.583191 1293.368896,812.193604 1293.954102,811.804077 
	C1293.954102,811.804077 1293.821777,811.808167 1293.807617,811.743896 
	C1295.146851,812.447388 1296.500244,813.215149 1297.853760,813.982910 
	C1296.541382,814.653625 1295.283936,815.487366 1293.902710,815.953491 
	C1292.226074,816.519165 1290.444824,816.774353 1288.335449,816.882263 
	C1287.946167,816.354919 1287.930298,816.109192 1287.914429,815.863403 
	C1287.914429,815.863403 1287.959473,815.932251 1288.227295,815.812927 
	C1288.653809,815.280945 1288.812500,814.868225 1288.971191,814.455566 
z"/>
<path fill="#241D1B" opacity="1.000000" stroke="none" 
	d="
M1287.579834,815.719482 
	C1287.930298,816.109192 1287.946167,816.354919 1287.928955,816.973450 
	C1287.297974,818.302429 1286.700195,819.258667 1286.086914,820.506348 
	C1285.321045,820.847778 1284.570679,820.897827 1283.446289,820.977295 
	C1284.463257,819.196350 1285.854370,817.385986 1287.579834,815.719482 
z"/>
<path fill="#605250" opacity="1.000000" stroke="none" 
	d="
M1053.563232,823.399475 
	C1053.605713,823.472534 1053.432983,823.506836 1053.432983,823.506836 
	C1053.432983,823.506836 1053.520630,823.326416 1053.563232,823.399475 
z"/>
<path fill="#664E49" opacity="1.000000" stroke="none" 
	d="
M1106.858765,294.125183 
	C1106.806152,293.929382 1106.922729,293.561798 1107.187500,293.388153 
	C1107.335693,293.582123 1107.027954,293.953339 1106.858765,294.125183 
z"/>
<path fill="#110A09" opacity="1.000000" stroke="none" 
	d="
M1012.681885,1041.492432 
	C1009.133850,1035.825684 1006.080078,1030.551147 1005.559814,1023.871033 
	C1004.858643,1014.867798 1008.999084,1006.476379 1017.200623,1002.619873 
	C1025.156860,998.878540 1035.004761,1000.990723 1041.011475,1007.319153 
	C1043.672485,1010.122681 1046.626709,1012.951477 1049.996704,1014.727356 
	C1067.172729,1023.779236 1084.777588,1032.291016 1103.878662,1036.027344 
	C1122.699707,1039.708984 1141.905029,1041.416382 1160.932007,1044.061157 
	C1165.359863,1044.676636 1169.862305,1045.187256 1174.130737,1046.431152 
	C1183.329712,1049.111938 1189.065430,1058.266479 1189.639038,1069.206909 
	C1190.208862,1080.074951 1186.887817,1089.872803 1182.032959,1099.203857 
	C1175.011719,1112.698608 1166.337036,1125.105713 1154.341919,1134.667114 
	C1144.086426,1142.841919 1132.188477,1146.203979 1118.948120,1147.393555 
	C1097.308838,1149.337646 1080.911377,1139.375122 1065.021606,1127.109009 
	C1050.267822,1115.719849 1039.932373,1100.969971 1030.717163,1084.881836 
	C1022.860657,1071.165771 1019.021973,1056.078369 1012.681885,1041.492432 
M1103.170776,1103.417725 
	C1111.872925,1108.417847 1125.328247,1107.382935 1131.306641,1100.708984 
	C1135.806519,1095.685303 1139.626953,1090.052979 1144.250854,1084.040161 
	C1130.922241,1082.109741 1118.382080,1080.838135 1106.084961,1078.360107 
	C1093.696411,1075.863892 1081.549316,1072.168823 1069.108887,1068.950439 
	C1076.239502,1084.209595 1087.985474,1094.967651 1103.170776,1103.417725 
z"/>
<path fill="#241D1B" opacity="1.000000" stroke="none" 
	d="
M1282.011230,822.425110 
	C1281.786255,826.577271 1281.294067,831.027832 1280.978394,835.490967 
	C1280.489502,842.404968 1280.121094,849.327393 1279.446289,856.556763 
	C1278.798950,850.812073 1277.777344,844.712463 1278.202026,838.715149 
	C1278.583496,833.328064 1280.553833,828.053467 1282.011230,822.425110 
z"/>
<path fill="#110A09" opacity="1.000000" stroke="none" 
	d="
M1293.615234,811.515137 
	C1293.368896,812.193604 1292.783691,812.583191 1291.806152,812.975342 
	C1292.034668,812.394043 1292.655518,811.810120 1293.615234,811.515137 
z"/>
<path fill="#241D1B" opacity="1.000000" stroke="none" 
	d="
M1288.630493,814.620728 
	C1288.812500,814.868225 1288.653809,815.280945 1288.188721,815.826904 
	C1288.018066,815.568787 1288.153931,815.177307 1288.630493,814.620728 
z"/>
<path fill="#120A0A" opacity="1.000000" stroke="none" 
	d="
M1079.703613,838.334778 
	C1084.520874,843.524536 1084.889404,849.096924 1081.543213,854.533813 
	C1078.595337,859.323608 1074.875122,863.683594 1068.234131,863.193176 
	C1063.182007,862.820007 1060.357056,859.613708 1059.802612,854.577942 
	C1058.837769,845.815491 1061.592285,838.509705 1068.286133,833.065308 
	C1069.742676,831.880676 1073.310059,832.367737 1075.443604,833.228760 
	C1077.172852,833.926636 1078.209351,836.341187 1079.703613,838.334778 
z"/>
<path fill="#FCFCFC" opacity="1.000000" stroke="none" 
	d="
M1102.830688,1103.239258 
	C1087.985474,1094.967651 1076.239502,1084.209595 1069.108887,1068.950439 
	C1081.549316,1072.168823 1093.696411,1075.863892 1106.084961,1078.360107 
	C1118.382080,1080.838135 1130.922241,1082.109741 1144.250854,1084.040161 
	C1139.626953,1090.052979 1135.806519,1095.685303 1131.306641,1100.708984 
	C1125.328247,1107.382935 1111.872925,1108.417847 1102.830688,1103.239258 
z"/>
</svg>