<?xml version="1.0" encoding="utf-8"?>
<svg version="1.1" id="Layer_1" xmlns="http://www.w3.org/2000/svg" xmlns:xlink="http://www.w3.org/1999/xlink" x="0px" y="0px"
	 viewBox="0 0 1826.197 1652.469" enable-background="new 0 0 1826.197 1652.469" xml:space="preserve">
<g>
	<path fill="#231F20" stroke="#231F20" stroke-width="2" d="M289.731,29.539c4.347-1.241,8.802-2.569,13.355-2.579
		c7.112,1.153,14.4,1.143,21.512,0.01c3.644-0.127,7.239,0.752,10.844,1.231c29.123,5.139,56.76,16.344,83.392,28.908
		c36.948,17.78,72.294,38.794,106.125,61.938c1.446,1.299,3.39,0.537,5.109,0.44c2.999-0.537,6.194-0.557,8.939-2.042
		c20.017-10.209,43.063-14.127,65.367-11.85c20.477,1.553,39.927,8.48,59.818,13.023c-6.243-14.019-13.58-27.608-22.587-40.055
		c-3.615-5.305-7.454-10.443-10.922-15.846c19.285,6.477,38.814,12.485,57.239,21.2c30.598,14.166,59.007,34.193,79.914,60.893
		c14.019,17.976,24.55,38.872,29.503,61.186c56.985-57.464,132.522-96.766,212.758-108.382c7.904-0.996,15.846-2.257,23.828-2.257
		c6.409,1.172,12.993,1.241,19.412-0.01c14.928,0.567,30.529,4.152,42.438,13.638c10.277,8.167,16.12,21.053,16.793,34.037
		c1.427,19.509-4.826,38.423-10.873,56.692c-7.425,19.431-17.409,37.729-26.534,56.389c-19.666,38.755-38.159,78.126-54.718,118.327
		c-6.594,15.348-11.655,31.487-20.633,45.701c-9.164,15.094-21.366,28.351-35.785,38.55c-14.83,10.6-31.829,17.917-49.433,22.489
		c15.172,38.433,32.425,76.016,50.381,113.218c34.554,70.672,73.095,139.605,118.415,203.985
		c22.206,31.399,46.131,61.645,72.606,89.576c27.208,28.488,57.2,54.777,91.393,74.589c24.404,14.088,51.182,24.639,79.23,28.302
		c23.359,3.009,46.961,0.44,70.232-2.052c87.172-10.502,170.935-42.057,246.443-86.313c46.59-27.481,90.787-59.339,130.226-96.424
		c4.455-4.191,8.411-8.871,12.944-12.974c2.833,8.314,5.93,16.598,7.552,25.264c5.021,25.303,4.348,51.993-3.605,76.641
		c-5.774,18.23-16.081,34.681-27.892,49.589c-7.132,9.056-15.318,17.223-24.052,24.726c12.319-0.117,24.804,0.498,36.743,3.81
		c5.295,1.583,10.727,3.761,14.586,7.894c4.64,4.963,5.842,12.808,2.765,18.894c-3.263,6.497-8.744,11.499-14.244,16.081
		c-11.577,9.388-24.541,16.872-37.573,24.013c-17.79,9.545-36.117,18.034-54.621,26.084c7.288,7.132,14.654,14.586,19.001,23.955
		c2.296,4.846,3.263,10.698,0.889,15.709c-2.472,5.637-8.411,8.294-13.57,10.942c-16.784,8.011-34.662,13.599-52.813,17.575
		c-13.355,2.745-26.964,4.65-40.621,4.426c-14.39,0.234-29.083,2.814-43.239-0.85c11.977,46.434,21.59,93.649,25.469,141.51
		c0.303,8.275,1.504,16.549,1.026,24.844c-1.221,6.741-1.26,13.677,0,20.428c0.107,16.696-1.974,33.431-5.354,49.785
		c-5.148,23.622-14.781,47.196-32.376,64.312c-3.351,3.507-7.366,6.262-11.049,9.369c-2.999,5.979-1.329,12.661-0.449,18.943
		c2.521,19.685,4.045,39.556,3.312,59.417c-0.234,4.807-0.909,9.594-0.87,14.42c-51.162,37.378-112.045,59.271-173.807,71.453
		c-42.81,8.568-86.43,12.476-130.031,13.755c-1.172-0.01-2.325-0.068-3.458-0.186c-6.897-1.456-13.951-0.694-20.926-0.801
		c-7.307,0.147-14.693-0.694-21.903,0.811c-10.297,0.449-20.613-0.635-30.91-0.86c-47.45-2.394-94.753-7.601-141.598-15.563
		c-16.354-2.853-32.679-5.891-48.818-9.808c2.286-13.306,5.148-26.514,9.203-39.39c-28.8,3.585-57.874-0.87-86.107-6.546
		c-0.469,10.561-0.342,21.151-0.342,31.731c-28.273,2.364-56.575,4.416-84.896,6.223c-20.369,1.006-40.758,2.589-61.137,2.902
		c-6.663-1.358-13.472-0.782-20.193-0.479c0.615,0.313,1.837,0.938,2.442,1.26c-2.218,0.264-4.455,0.401-6.673,0.186
		c-6.868-1.846-14-0.938-20.994-1.075c-5.09,0.049-10.522-0.752-15.133,1.925c-5.461,0.703-11.137,0.313-16.657,0.186
		c-8.665-1.338-17.624-1.358-26.28,0.01c-24.58,0.381-49.199-0.948-73.7-2.999c-19.939-2.13-40.299-4.396-58.919-12.319
		c-1.299-0.498-2.599,0.361-3.869,0.596c-21.854,6.34-44.695,8.402-67.35,9.388c-24.726,1.172-49.482,0.107-74.179-1.465
		c-17.35-1.182-34.662-2.96-51.905-5.217c3.029-16.52,8.177-32.63,15.436-47.782c7.386-15.387,15.807-30.422,26.583-43.708
		c14.254-17.312,32.493-30.93,51.973-41.833c17.507-9.701,35.912-17.741,54.767-24.414c17.927-6.155,36.235-11.479,55.021-14.195
		c9.808-1.622,20.135-3.683,28.038-10.15c12.309-10.336,22.108-23.31,30.5-36.928c11.87-19.363,20.819-40.299,29.836-61.078
		c6.106-14.351,12.896-28.419,18.425-43.015c15.543-40.563,26.25-82.796,35.101-125.263
		c13.873-67.888,22.597-136.742,28.536-205.743c0.977-14.566,2.599-29.152,2.882-43.718c-16.403-21.327-34.476-41.461-54.416-59.544
		c-18.493,6.223-37.661,10.561-55.568,18.435c-9.906,4.65-18.747,11.176-27.784,17.263c-15.113,10.502-31.946,18.161-48.808,25.361
		c-11.352,4.601-22.587,9.74-34.652,12.192c-28.351,6.047-58.128,1.123-84.681-9.75c-25.264-10.375-47.997-26.075-68.562-43.884
		c-18.327-15.924-35.023-33.656-50.645-52.217c-20.506,3.83-41.412,4.934-62.221,5.617c-33.284,1.641-67.126-4.953-96.922-20.027
		c-17.81-9.125-34.203-21.747-45.682-38.296c-7.083-10.434-12.847-21.766-17.145-33.616c-8.49-23.554-10.365-49.277-6.301-73.925
		c5.813-36.43,22.479-70.183,42.839-100.595c20.516-30.295,44.939-57.854,71.766-82.688c5.617-5.178,11.372-10.209,17.311-15.025
		c21.737,7.845,44.402,13.091,67.35,15.719c11.684,1.319,23.417,2.042,35.16,2.53c9.232,0.068,18.63,0.225,27.608-2.237
		c9.33-2.55,18.064-6.77,27.11-10.111c16.52-6.555,32.62-14.273,47.792-23.554c15.23-9.408,28.996-22.196,36.42-38.745
		c-14.185-6.272-28.322-13.452-39.615-24.277c-16.246-15.592-27.686-35.414-36.928-55.764c-8.343-19.129-15.866-38.706-21.219-58.89
		c-4.181-14.977-4.123-30.608-5.266-45.985c-2.247-30.07-4.631-60.219-10.238-89.888c-1.934-9.594-4.181-19.207-8.128-28.204
		c-3.869-9.877-7.2-20.545-5.569-31.262C278.506,38.527,282.844,31.64,289.731,29.539 M297.713,45.346
		c-1.153,0.332-2.823,0.576-2.882,2.12c-1.504,10.199,3.361,19.773,6.839,29.054c4.553,13.071,7.024,26.758,9.213,40.396
		c5.1,33.245,7.278,66.842,9.418,100.381c0.899,9.73,3.878,19.109,6.712,28.409c1.973,5.696,3.634,11.528,6.379,16.911
		c0.303,2.306,1.465,4.377,2.315,6.516c9.027,21.278,20.213,41.911,35.414,59.447c11.225,12.857,25.322,23.867,42.047,28.351
		c1.446-3.146,2.716-6.37,3.918-9.613c-5.862-7.063-11.372-14.439-16.032-22.352c-17.731-29.806-25.674-64.458-27.882-98.798
		c-1.768-30.94,0.762-62.006,6.448-92.428c-13.863-6.555-27.237-14.175-39.801-22.968c-1.925-0.957-2.266-3.097-2.814-4.953
		c-0.01-1.524-0.127-3.048-0.215-4.562c55.861,11.489,107.239,44.568,139.966,91.393c1.094,2.501,3.429,0.342,4.992-0.391
		c8.128-4.738,16.833-8.333,25.244-12.515c-11.948-0.488-23.671-3.615-34.32-9.046c3.478-4.064,6.917-8.167,10.512-12.134
		c9.115-10.15,20.33-18.064,31.936-25.078c-31.233-21.688-64.165-40.944-98.231-57.825c-25.918-12.456-52.638-23.984-80.949-29.679
		C323.377,43.627,310.276,42.308,297.713,45.346 M673.473,96.948c8.236,17.712,13.384,36.704,16.833,55.891
		c3.536,20.359,5.266,41.188,3.156,61.801c-0.821-0.059-2.452-0.166-3.273-0.225c0.186-5.783,0.059-11.586-0.918-17.292
		c-3.048-19.06-9.896-37.202-16.022-55.422c-0.703-1.534-0.957-3.898-3.068-3.957c-16.862-3.898-34.115-5.881-51.368-6.868
		c0.615-0.274,1.866-0.821,2.491-1.094c-9.252-0.625-18.581-0.742-27.813,0.02c0.42,0.264,1.26,0.791,1.68,1.045
		c-20.164,1.182-40.435,4.386-59.222,12.075c-11.459,4.807-22.724,10.834-31.79,19.451c8.353,0.801,16.794,0.479,25.078-0.83
		c24.834-4.523,50.723-2.814,74.912,4.308c14.928,4.699,29.943,11.528,40.68,23.251c-5.627-2.765-11.528-4.982-17.702-6.096
		c-19.392-3.712-39.224-3.654-58.851-5.139c-3.292-0.469-6.487,0.508-9.584,1.475c-26.407,8.128-52.423,18.142-76.279,32.19
		c-11.557,7.102-23.095,14.918-31.633,25.615c17.126-4.455,34.613-7.395,52.256-8.665c9.623-0.518,19.255-0.01,28.869,0.01
		c3.224,1.114,6.721,1.036,10.063,1.651c8.792,1.446,17.546,3.683,25.645,7.483c1.387,0.391,1.778,1.807,2.374,2.96
		c-15.201-4.23-30.92-0.059-46.16,1.7c-4.299,0.684-8.88,0.254-12.827,2.345c6.35,15.289,11.811,30.959,16.295,46.903
		c6.878,25,11.528,51.006,9.457,77.022c-0.938,8.695-2.012,17.751-6.624,25.4c-6.858,11.743-17.839,20.379-29.132,27.599
		c-19.715,12.309-41.715,20.447-63.97,26.836c-41.422,11.528-84.378,17.223-127.325,18.249c-1.719-1.426-4.035-1.153-6.106-1.202
		c-6.194,0.088-12.388,0.088-18.581,0.01c-2.081,0.02-4.347-0.147-6.106,1.182c-37.026-0.909-74.228-5.471-109.73-16.344
		c-1.182-0.225-2.706-1.065-3.712,0.029c-3.673,3.048-7.024,6.448-10.453,9.75c-26.416,25.869-50.244,54.503-69.89,85.863
		c-19.412,31.37-34.984,66.276-37.847,103.458c-0.371-0.664-1.094-1.993-1.456-2.657c-0.742,8.538-0.782,17.214-0.088,25.752
		c0.44,0.01,1.319,0.029,1.758,0.049c1.163,12.407,4.084,24.658,8.851,36.186c5.93,14.107,13.833,27.882,25.684,37.856
		c13.306,11.45,30.178,17.946,47.255,21.229c23.134,4.367,46.903,3.644,70.174,0.84c11.391-1.319,22.704-3.195,33.958-5.344
		c-9.349-11.928-18.21-24.238-26.319-37.046c0.86,0.313,1.729,0.635,2.589,0.967c1.163,2.862,3.449,5.07,5.315,7.474
		c28.742,33.724,60.795,64.82,96.619,90.973c24.541,17.644,51.162,33.099,80.324,41.657c25.117,7.435,52.745,8.685,77.559-0.586
		c21.395-8.197,41.286-19.812,60.355-32.386c20.301-13.619,39.722-28.497,58.47-44.187c32.962-27.403,63.97-57.073,94.079-87.573
		c30.637-31.448,60.502-63.706,88.315-97.694c-21.512-14.693-47.001-22.733-72.723-25.733c3.468-7.347,7.952-14.195,12.153-21.131
		c10.746,0.83,21.268,4.084,31.399,7.718c25.918,9.613,48.017,28.107,63.482,50.869c2.647,3.468,4.465,7.542,7.22,10.912
		c2.657,5.539,6.008,10.737,8.314,16.442c-2.833-0.742-4.123-3.683-6.164-5.52c-8.695-8.88-19.021-15.944-29.142-23.056l0.371-0.899
		c-3.497,2.696-5.617,6.653-8.323,10.063c-49.756,68.093-104.376,133.157-168.024,188.745c7.376-1.925,14.556-4.553,21.835-6.809
		c18.845-6.321,37.837-12.3,56.418-19.314c20.037-6.663,39.761-14.312,59.466-21.913c35.443-14.078,70.818-28.781,103.946-47.811
		c9.623-5.666,19.119-11.704,27.452-19.177c4.728-4.465,9.721-9.427,11.205-15.992c0.83-6.194,0.098-12.495-0.84-18.63
		c-3.204-18.777-9.291-36.899-15.348-54.904c-25.107-71.991-56.154-142.311-71.981-217.203c-4.054-16.823-3.634-34.281-6.575-51.299
		c1.25,0.391,2.521,0.801,3.791,1.211c0.85,15.26,4.191,30.285,9.066,44.744c7.982,23.847,18.611,46.717,26.485,70.603
		c9.545,1.241,19.187,2.755,28.83,2.589c9.291,0.996,18.747,1.016,28.048,0c3.243,0.371,6.497-0.205,9.73-0.567
		c17.36-2.071,34.613-6.79,49.824-15.563c17.556-9.945,31.623-25.557,40.426-43.659c6.467-13.716,11.42-28.097,17.526-41.989
		c17.155-40.904,36.411-80.891,56.536-120.408c7.22-14.732,15.016-29.259,20.652-44.705c3.927-12.368,8.275-24.805,9.291-37.837
		c-11.86,3.243-23.759,6.565-35.258,10.883c-1.749,4.299-1.934,9.066-3.097,13.55c-8.558,40.484-21.454,80.373-41.647,116.637
		c-20.32,36.567-49.16,69.402-86.293,89.458c-12.329,6.868-25.654,11.606-39.136,15.602c-8.363,1.211-16.637,3.585-25.166,3.204
		c-0.01-1.749-0.987-3.869,0.615-5.197c28.331-33.148,50.908-70.642,72.85-108.177c-5.559,0.391-11.088,1.114-16.569,2.11
		c-27.599,5.012-54.503,13.12-81.232,21.483c2.638-6.751,5.383-13.462,8.206-20.135c10.727-24.306,28.224-44.959,47.724-62.71
		c22.802-20.594,48.642-37.583,75.469-52.452c37.72-20.721,77.53-37.583,118.425-50.947c-6.907-9.408-18.845-12.905-29.865-14.508
		c-18.806-2.403-37.856-0.342-56.448,2.814c-40.387,7.151-78.36,24.414-112.749,46.414c-29.171,18.63-55.949,40.787-81.086,64.537
		c-6.145,5.656-11.958,11.684-18.591,16.784c-0.313,1.583,0.059,3.185,0.234,4.767c2.354,16.325,1.036,33.206-4.162,48.886
		c-0.371,1.163-1.182,2.091-1.895,3.058c-0.557-9.066,0.234-18.181-0.557-27.237c-2.345-39.068-12.974-78.253-34.486-111.234
		C731.796,133.632,704.667,110.713,673.473,96.948 M400.262,147.583c-4.816,24.541-7.63,49.56-7.278,74.589
		c0.029,24.248,3.585,48.681,12.114,71.444c5.119,13.042,11.528,25.781,20.477,36.635c6.37-10.873,11.968-22.499,21.121-31.399
		c3.077-3.39,7.327-5.793,9.476-9.965c2.687-5.021,5.246-10.111,7.141-15.494c3.576-9.369,9.525-17.497,15.514-25.43
		c-13.902,3.097-27.657,6.868-41.071,11.674c-5.989,2.13-11.811,4.699-17.868,6.653c1.544-5.91,3.214-11.782,4.953-17.634
		c3.146-10.316,9.525-19.295,16.823-27.091c6.311-6.858,13.941-12.27,21.19-18.034c-1.993-4.24-5.275-7.689-8.099-11.372
		C440.023,173.618,421.061,158.759,400.262,147.583 M975.337,200.24c-25.557,13.111-50.273,28.312-71.698,47.557
		c-12.427,11.459-24.091,24.091-32.356,38.941c20.809-5.52,41.745-11.46,63.345-12.73c6.321-0.059,13.433-0.283,18.806,3.595
		c4.25,3.322,5.627,9.545,3.204,14.371c-4.269,8.929-10.463,16.774-16.413,24.629c-23.544,30.109-49.677,58.06-75.097,86.537
		c4.347-1.407,8.402-3.576,12.505-5.578c14.625-7.337,28.761-15.69,42.028-25.293c40.406-28.859,72.811-68.61,93.356-113.804
		c12.212-26.934,21.053-55.627,24.316-85.082C1016.144,181.043,995.462,190.109,975.337,200.24 M472.819,278.268
		c9.164-4.347,17.946-9.467,27.051-13.931c-1.817-4.328-3.429-8.724-5.119-13.101C483.409,256.004,476.815,267.189,472.819,278.268
		 M477.489,282.752c-15.494,12.036-26.319,28.966-34.447,46.6c-6.526,14.302-12.046,29.064-16.667,44.08
		c-6.848,22.851-10.922,46.405-14.312,69.978c18.884-5.559,37.231-12.925,54.914-21.542c1.866-0.996,3.732-1.983,5.588-2.989
		c4.162-2.169,8.363-4.318,12.182-7.063c7.991-4.592,15.406-10.18,22.059-16.549c5.061-4.963,9.789-10.717,11.782-17.644
		c1.631-6.741,1.299-13.746,1.348-20.623c-0.117-2.442,0.137-5.021-0.821-7.317c0.361-5.227-0.498-10.463-1.641-15.543
		c-3.566-21.737-10.932-42.634-19.06-63.032C490.932,273.96,483.907,277.975,477.489,282.752 M344.557,450.649
		c14.586-1.69,29.162-3.8,43.503-6.985c1.241-7.161,2.98-14.224,4.396-21.346C377.792,433.836,361.282,442.579,344.557,450.649
		 M847.007,486.893c15.631,44.578,33.626,88.315,48.251,133.245c5.569,18.015,11.03,36.362,11.958,55.314
		c0.528,7.815-1.671,15.68-6.194,22.079c-6.516,9.594-15.514,17.175-24.785,24.003c-26.358,18.835-55.891,32.571-85.463,45.486
		c-39.644,17.028-80.324,31.477-121.121,45.467c3.097,3.722,6.78,6.897,9.935,10.57c10.864,12.055,19.959,25.586,28.028,39.634
		c7.972,13.599,15.221,27.608,22.968,41.334c9.779,17.096,18.542,34.779,26.172,52.94c15.445,36.508,26.289,74.794,34.935,113.432
		c2.052-10.072,2.706-20.408,4.201-30.588c3.615-28.82,7.063-57.786,6.692-86.879c0.195-11.538-1.954-23.046-0.44-34.564
		c2.784,7.61,4.074,15.68,5.842,23.564c4.738,23.876,6.878,48.212,7.395,72.538c0.713,49.98-5.881,99.833-16.471,148.602
		c-9.447,43.122-22.049,85.512-37.046,127.022c-14.234,39.39-30.578,78.048-49.394,115.474c9.271-2.149,18.894-1.641,28.155-3.8
		c6.057-1.006,12.212-1.221,18.318-1.788c9.486-0.694,18.933-1.993,28.429-2.345c-3.195,1.27-6.575,1.925-9.877,2.833
		c-40.68,11.225-80.852,24.375-119.988,40.191c-35.561,14.498-70.496,30.891-103.009,51.426
		c-14.429,9.3-28.702,19.197-40.582,31.692c-3.82,4.22-7.718,8.822-8.988,14.527c-2.149,8.763-0.43,18.64,5.295,25.723
		c3.155,2.784,7.454,3.8,11.352,5.178c12.261,3.615,25,5.217,37.671,6.682c-0.137-13.169,0.996-26.465,4.826-39.117
		c4.279-14.742,12.28-28.497,23.583-38.96c14.986-13.863,34.808-22.05,55.041-24.013c-4.103,2.266-8.626,3.634-12.739,5.862
		c-15.201,7.649-28.585,19.265-37.251,33.997c-11.323,19.07-14.947,41.999-12.993,63.882c18.337,0.967,36.694,1.71,55.06,1.622
		c13.374,0.625,26.739-0.264,40.113-0.02c-0.244-12.427-0.068-24.892,1.817-37.202c2.54-16.696,7.825-33.509,18.552-46.844
		c9.486-12.016,23.876-20.281,39.244-21.414c-2.696,2.237-5.647,4.152-8.363,6.379c-12.642,10.199-21.981,24.423-26.241,40.113
		c-5.266,19.021-3.859,39.341,1.524,58.167c21.121-0.117,42.233-1.368,63.345-2.208c25.068-1.339,50.156-2.56,75.176-4.699
		c9.779-0.293,19.519-1.417,29.279-2.061c0.195-6.487,0.186-12.974,0.567-19.431c2.442-47,8.558-94.128,22.636-139.155
		c4.338-14.566,11.381-28.175,19.578-40.914c17.858-27.677,40.045-52.237,62.954-75.781c27.247-27.364,55.871-53.409,85.971-77.618
		l0.029-0.508c3.028-2.042,5.842-4.377,8.665-6.682c0.889,0.567,1.788,1.143,2.706,1.749c-6.546,7.728-13.326,15.26-19.822,23.036
		c-11.518,12.856-22.831,25.908-34.476,38.657c-12.612,14.039-25.645,27.696-38.482,41.53c11.42,11.499,23.954,21.815,36.166,32.454
		c30.1,25.264,62.212,48.144,96.219,67.858c13.951,7.962,29.445,14.322,45.77,14.166c-0.713-8.578-1.954-17.096-2.716-25.674
		c-3.556-38.667-3.576-77.833,2.628-116.236c4.123-24.199,10.678-48.114,21.043-70.418c14.156-31.086,36.039-58.743,63.648-78.937
		c30.041-22.186,66.041-35.375,102.794-40.992c22.167-3.4,44.734-4.279,67.086-2.403c1.719,0.342,4.318-0.137,4.631,2.247
		c-10.395,0.127-20.721,1.299-31.008,2.696c-40.817,5.813-81.145,18.415-116.324,40.24c-28.722,17.712-53.36,42.409-69.402,72.225
		c-17.556,32.835-26.778,69.783-29.044,106.838c-0.166,11.245-1.29,22.509-0.703,33.744c-0.908,12.593-1.075,25.322,0,37.915
		c-0.567,5.354,0.469,10.717,0.899,16.061c0.918,7.21,2.403,15.182,8.118,20.242c4.66,4.132,11.284,3.908,17.106,3.556
		c23.124-1.661,46.102,3.136,68.425,8.685c12.661,3.39,25.41,6.565,37.788,10.922c9.203,3.136,18.542,5.93,27.511,9.691
		c9.476,4.826,19.099,9.388,28.468,14.429c-51.768-14.752-105.021-24.677-158.811-27.706l0.908-0.742
		c-7.18-1.485-14.566-0.459-21.825-0.762c-7.268,0.303-14.654-0.752-21.825,0.781l0.908,0.723
		c-28.995,1.876-58.343,6.389-84.955,18.591c-17.067,7.835-32.649,18.943-45.467,32.688c-23.036,24.453-36.43,56.448-43.318,88.98
		c17.175,3.781,34.574,6.604,51.993,8.988c3.146-14.322,8.079-28.273,14.83-41.286c12.827-24.99,33.382-46.356,59.056-58.167
		c19.92-9.301,42.116-13.257,64.009-12.984c-19.343,4.875-38.022,12.544-54.982,23.085c-24.932,15.328-46.072,37.876-56.614,65.445
		c-3.175,8.685-6.194,17.624-6.907,26.905c31.878,3.712,63.824,7.239,95.906,8.48c1.739,0.361,1.797-1.719,2.208-2.814
		c5.168-19.607,12.573-38.706,22.812-56.242c8.226-14.009,18.513-27.061,31.496-36.967c12.173-9.476,26.964-15.465,42.292-17.184
		c-23.554,14.781-44.9,33.91-59.232,57.972c-10.287,16.969-16.237,36.479-17.116,56.311c58.05,1.69,116.422-0.899,173.69-11.02
		c33.284-5.989,66.295-14.341,97.743-26.924c12.407-4.582,24.433-10.189,36.235-16.149c12.388-6.555,24.707-13.413,36.02-21.698
		c0.987-3.019,0.371-6.34,0.703-9.457c0.567-9.818,0.645-19.656,1.202-29.465c0.039,2.276,0.303,4.553,0.537,6.848l0.596,0.01
		c-0.01-14.869,0.459-29.748-0.234-44.597l-1.143,0.098c-1.358-36.782-6.203-73.642-17.37-108.812
		c1.534,0.791,3.908,0.801,4.582,2.735c7.014,19.597,13.706,39.478,16.647,60.179c4.601-3.087,8.392-7.18,11.997-11.352
		c11.118-13.306,17.888-29.719,21.903-46.453c5.119-21.424,6.233-43.601,5.705-65.553c-0.762-23.72-3.468-47.343-7.425-70.73
		c-7.894-46.561-20.223-92.282-34.72-137.192c-2.569-6.936-4.132-14.273-7.503-20.877c-2.228-9.652-6.516-18.786-9.769-28.156
		c7.806,9.193,14.703,19.138,21.219,29.289c7.776,13.003,14.556,26.612,19.9,40.797c0.576,2.345,3.019,3.058,5.012,3.869
		c12.046,4.533,24.922,6.233,37.7,7.151c26.114,1.446,52.384-0.342,78.126-4.885c8.363-1.68,16.95-3.165,24.658-7.014
		c-2.716-5.725-7.014-10.473-11.421-14.938c-4.953-4.807-9.681-10.033-15.592-13.667c-8.929-4.435-17.986-8.607-26.983-12.896
		c5.383-0.303,10.141-2.95,15.055-4.885c19.177-7.815,38.374-15.582,57.483-23.593c18.757-7.962,37.612-15.846,55.558-25.567
		c4.738-2.921,10.258-5.461,13.023-10.58c-7.806-3.468-16.452-4.211-24.804-5.393c-28.322-3.507-56.926-4.699-85.424-3.585
		c6.985-3.39,14.371-5.92,21.327-9.418c24.824-11.997,48.788-27.286,66.5-48.74c3.878-5.1,8.148-10.15,10.326-16.256
		c1.036-0.537,1.358-1.807,1.983-2.726c12.27-24.443,15.172-52.921,10.619-79.708c-0.85,0.596-1.661,1.231-2.442,1.885
		c-41.256,36.733-86.664,68.737-134.769,95.877c-75.469,42.507-158.684,72.518-244.987,82.366
		c-18.718,1.983-37.554,3.761-56.399,3.038c-39.84-1.993-77.999-16.882-111.762-37.524c-32.141-19.617-60.902-44.285-87.446-70.887
		c-51.26-52.178-94.323-111.801-133.02-173.7c-42.868-69.011-80.441-141.265-113.247-215.571
		c-3.536-8.411-7.044-16.842-10.57-25.264C871.117,488.584,859.003,487.06,847.007,486.893 M710.938,924.201
		c0.078,3.712,0.41,7.444,0.068,11.167c-3.058,35.639-8.45,71.023-14.615,106.252c-9.154,49.629-20.291,98.935-34.711,147.313
		c-11.723,39.537-25.762,78.448-43.484,115.719c-16.295,34.535-32.825,69.284-55.099,100.459c15.191-1.612,30.275,1.954,45.437,2.55
		c-1.026,0.186-2.052,0.381-3.068,0.577c-41.432,4.943-82.464,13.882-121.912,27.55c-36.205,12.661-71.492,29.552-101.191,54.152
		c-24.902,20.653-45.301,47.948-53.605,79.552c18.953,2.198,38.013,3.478,57.083,4.094c0.41-19.5,4.445-39.244,13.96-56.418
		c15.025-27.647,43.464-46.493,73.818-53.214c-4.904,2.687-10.287,4.416-15.055,7.366c-17.565,9.838-31.839,25.146-40.914,43.073
		c-9.369,18.484-14.166,39.185-14.635,59.867c29.582-0.02,59.584-0.557,88.413-7.825c-1.915-5.051-3.81-10.199-4.289-15.611
		c-1.163-10.6,1.534-21.336,6.506-30.676c6.331-11.977,15.807-21.981,26.123-30.627c14.517-12.114,30.871-21.805,47.645-30.441
		c33.675-17.135,69.343-29.963,105.314-41.324c2.579-0.967,3.156-4.123,4.553-6.214c8.646-16.715,18.161-32.981,25.987-50.117
		c10.356-22.137,19.275-44.91,28.107-67.682c2.54-7.122,5.891-13.98,7.835-21.278c3.986-7.835,6.545-16.295,9.916-24.394
		c8.206-21.239,15.953-42.741,21.102-64.957c4.455-18.669,6.653-37.817,7.454-56.965c0.782-13.716,2.218-27.638-0.283-41.246
		c-9.164-40.992-22.724-81.106-41.813-118.561C728.123,951.878,720.297,937.507,710.938,924.201 M939.513,1360.287
		c-10.981,14.664-21.317,30.099-27.911,47.294c-2.95,8.324-5.529,16.803-7.669,25.381c3.537-3.595,7.151-7.112,11-10.375
		c26.573-22.665,61.234-34.154,95.711-36.792c5.823,1.622,11.948,0.655,17.907,0.752l0.401-1.368
		c-20.799-19.079-41.393-38.403-61.039-58.675C957.958,1337.339,948.403,1348.554,939.513,1360.287 M961.885,1413.833
		c-29.328,10.805-53.409,34.105-66.745,62.192c-3.908,19.754-5.705,39.918-7.2,59.994c6.995,1.622,14.068,2.941,21.18,4.045
		c2.755-19.636,8.363-39.273,19.422-55.92c8.529-13.091,20.418-23.974,34.281-31.203c17.175-8.978,36.84-12.778,56.145-11.968
		c-0.694,0.449-1.426,0.772-2.208,0.997c-13.872,1.583-27.345,6.536-39.078,14.078c-13.755,8.851-24.57,21.776-32.083,36.215
		c-8.138,15.719-12.749,33.089-14.674,50.635c16.383,1.856,33.372,2.491,49.414-1.993c12.876-32.083,34.642-60.99,63.784-79.943
		c15.641-10.453,33.157-17.673,51.084-23.154c-8.363-4.25-15.563-10.326-23.583-15.142c-9.701-5.891-17.976-14.244-28.83-18.093
		c-7.659-2.99-16.061-3.204-24.14-2.237C999.468,1404.523,980.027,1406.868,961.885,1413.833z"/>
	<path fill="#060202" stroke="#060202" stroke-width="2" d="M303.086,26.96c7.122-1.045,14.381-0.889,21.512,0.01
		C317.486,28.103,310.198,28.113,303.086,26.96z"/>
	<path fill="#E3B383" stroke="#E3B383" stroke-width="2" d="M297.713,45.346c12.563-3.038,25.664-1.719,38.228,0.635
		c28.312,5.696,55.031,17.223,80.949,29.679c34.066,16.882,66.999,36.137,98.231,57.825c-11.606,7.014-22.821,14.928-31.936,25.078
		c-3.595,3.966-7.034,8.07-10.512,12.134c10.649,5.432,22.372,8.558,34.32,9.046c-8.411,4.181-17.116,7.776-25.244,12.515
		c-1.563,0.733-3.898,2.892-4.992,0.391c-32.727-46.825-84.105-79.904-139.966-91.393c0.088,1.514,0.205,3.038,0.215,4.562
		c0.02,5.754-1.075,11.42-1.7,17.126c-4.172,38.433-5.774,77.217-3.41,115.836c0.147,7.972,1.612,15.856,1.495,23.837
		c-2.745-5.383-4.406-11.215-6.379-16.911c-2.833-9.3-5.813-18.679-6.712-28.409c-2.139-33.538-4.318-67.135-9.418-100.381
		c-2.188-13.638-4.66-27.325-9.213-40.396c-3.478-9.281-8.343-18.855-6.839-29.054C294.889,45.922,296.56,45.678,297.713,45.346z"/>
	<path fill="#0A0607" stroke="#0A0607" stroke-width="2" d="M1033.924,95.356c6.448-0.557,12.944-0.596,19.412-0.01
		C1046.918,96.596,1040.333,96.528,1033.924,95.356z"/>
	<path fill="#E3B383" stroke="#E3B383" stroke-width="2" d="M673.473,96.948c31.194,13.765,58.323,36.684,76.875,65.318
		c21.512,32.981,32.141,72.167,34.486,111.234c0.791,9.056,0,18.171,0.557,27.237c0.713-0.967,1.524-1.895,1.895-3.058
		c5.197-15.68,6.516-32.561,4.162-48.886c-0.176-1.583-0.547-3.185-0.234-4.767c6.633-5.1,12.446-11.127,18.591-16.784
		c25.137-23.749,51.915-45.906,81.086-64.537c34.388-22.001,72.362-39.263,112.749-46.414c18.591-3.156,37.641-5.217,56.448-2.814
		c11.02,1.602,22.958,5.1,29.865,14.508c-40.895,13.365-80.705,30.227-118.425,50.947c-26.827,14.869-52.667,31.858-75.469,52.452
		c-19.5,17.751-36.997,38.403-47.724,62.71c-2.823,6.673-5.569,13.384-8.206,20.135c26.729-8.363,53.634-16.471,81.232-21.483
		c5.481-0.996,11.01-1.719,16.569-2.11c-21.942,37.534-44.519,75.029-72.85,108.177c-1.602,1.329-0.625,3.449-0.615,5.197
		c8.529,0.381,16.803-1.993,25.166-3.204c31.77,4.445,64.117,3.302,95.867-0.84c1.837-0.186,3.693-0.283,5.559-0.352
		c-8.802,18.103-22.87,33.714-40.426,43.659c-15.211,8.773-32.464,13.492-49.824,15.563c-3.234,0.361-6.487,0.938-9.73,0.567
		c-9.281-1.25-18.786-1.26-28.048,0c-9.642,0.166-19.285-1.348-28.83-2.589c-7.874-23.886-18.503-46.756-26.485-70.603
		c-4.875-14.459-8.216-29.484-9.066-44.744c-1.27-0.41-2.54-0.821-3.791-1.211c2.941,17.018,2.521,34.476,6.575,51.299
		c15.826,74.892,46.874,145.212,71.981,217.203c6.057,18.005,12.143,36.127,15.348,54.904c0.938,6.135,1.671,12.437,0.84,18.63
		c-1.485,6.565-6.477,11.528-11.205,15.992c-8.333,7.474-17.829,13.511-27.452,19.177c-1.016-27.061-10.795-53.429-26.426-75.42
		c-3.732-5.119-7.395-10.395-12.27-14.508c-2.755-3.37-4.572-7.444-7.22-10.912c-15.465-22.763-37.563-41.256-63.482-50.869
		c-10.131-3.634-20.653-6.887-31.399-7.718c-4.201,6.936-8.685,13.785-12.153,21.131c-5.578-1.837-11.547-1.153-17.311-1.329
		c-79.894-0.899-158.919,13.052-238.5,17.585c1.983-9.828,0.225-20.379-5.266-28.82c-7.767-12.192-20.408-20.164-33.03-26.602
		c-16.54-8.021-33.968-14.019-51.367-19.871c-35.17-11.469-70.877-21.2-106.76-30.139c-7.659-2.501-15.172-5.559-23.134-7.014
		c-17.644-3.751-37.534-3.087-52.784,7.571c-6.37-9.388-10.316-20.135-14.83-30.481c3.429-3.302,6.78-6.702,10.453-9.75
		c1.006-1.094,2.53-0.254,3.712-0.029c35.502,10.873,72.704,15.436,109.73,16.344c10.258,0.283,20.535,0.274,30.793,0.01
		c42.946-1.026,85.902-6.721,127.325-18.249c22.255-6.389,44.255-14.527,63.97-26.836c11.293-7.22,22.274-15.856,29.132-27.599
		c4.611-7.649,5.686-16.706,6.624-25.4c2.071-26.016-2.579-52.022-9.457-77.022c-4.484-15.944-9.945-31.614-16.295-46.903
		c3.947-2.091,8.529-1.661,12.827-2.345c15.24-1.758,30.959-5.93,46.16-1.7c-0.596-1.153-0.987-2.569-2.374-2.96
		c-8.099-3.8-16.852-6.037-25.645-7.483c-3.341-0.615-6.839-0.537-10.063-1.651c-4.084-2.394-8.89-1.719-13.394-1.739
		c-6.282,0.049-12.583-0.166-18.835,0.449c1.104,0.44,2.227,0.869,3.361,1.28c-17.644,1.27-35.131,4.211-52.256,8.665
		c8.538-10.697,20.076-18.513,31.633-25.615c23.857-14.048,49.873-24.062,76.279-32.19c3.097-0.967,6.291-1.944,9.584-1.475
		c19.627,1.485,39.459,1.426,58.851,5.139c6.174,1.114,12.075,3.331,17.702,6.096c-10.737-11.723-25.752-18.552-40.68-23.251
		c-24.189-7.122-50.078-8.832-74.912-4.308c-8.284,1.309-16.725,1.631-25.078,0.83c9.066-8.617,20.33-14.644,31.79-19.451
		c18.787-7.689,39.058-10.893,59.222-12.075c7.874-0.322,15.758-0.322,23.642,0.029c17.253,0.987,34.506,2.97,51.368,6.868
		c2.11,0.059,2.364,2.423,3.068,3.957c6.125,18.22,12.974,36.362,16.022,55.422c0.977,5.705,1.104,11.508,0.918,17.292
		c0.821,0.059,2.452,0.166,3.273,0.225c2.11-20.613,0.381-41.442-3.156-61.801C686.857,133.652,681.708,114.66,673.473,96.948
		 M655.605,236.65c-1.993,10.61-2.735,21.971,1.27,32.229c-16.706,15.455-32.454,31.936-47.333,49.16
		c-20.545,23.955-39.478,49.453-54.845,77.061c-9.525,17.36-17.321,36.01-20.125,55.725c-1.856,14.977-0.821,30.744,5.901,44.47
		c7.786,16.579,22.978,28.908,39.967,35.219c9.076,3.175,18.708,4.396,28.282,4.904c19.636,0.791,39.292-1.475,58.509-5.442
		c19.168-4.113,38.081-9.828,55.842-18.191c12.27-5.891,24.472-12.886,33.45-23.329c4.152-4.689,5.471-11.059,5.862-17.126
		c0.528-9.955-1.241-19.871-3.39-29.543c-4.992-21.219-12.798-41.657-21.297-61.694c-15.905-36.811-34.584-72.421-55.705-106.506
		C673.756,260.908,665.775,247.895,655.605,236.65z"/>
	<path fill="#B7926B" stroke="#B7926B" stroke-width="2" d="M337.005,105.819c0.547,1.856,0.889,3.996,2.814,4.953
		c12.563,8.792,25.938,16.413,39.801,22.968c-5.686,30.422-8.216,61.489-6.448,92.428c2.208,34.339,10.15,68.991,27.882,98.798
		c4.66,7.913,10.17,15.289,16.032,22.352c-1.202,3.243-2.472,6.467-3.918,9.613c-16.725-4.484-30.822-15.494-42.047-28.351
		c-15.201-17.536-26.387-38.169-35.414-59.447c-0.85-2.139-2.013-4.211-2.315-6.516c0.117-7.982-1.348-15.865-1.495-23.837
		c-2.364-38.618-0.762-77.403,3.41-115.836C335.93,117.239,337.025,111.573,337.005,105.819z"/>
	<path fill="#0A0B13" stroke="#0A0B13" stroke-width="2" d="M593.491,129.802c9.232-0.762,18.562-0.645,27.813-0.02
		c-0.625,0.274-1.876,0.821-2.491,1.094c-7.884-0.352-15.768-0.352-23.642-0.029C594.751,130.594,593.911,130.066,593.491,129.802z"
		/>
	<path fill="#A76C68" stroke="#A76C68" stroke-width="2" d="M400.262,147.583c20.799,11.176,39.761,26.035,54.494,44.578
		c2.823,3.683,6.106,7.132,8.099,11.372c-7.249,5.764-14.879,11.176-21.19,18.034c-7.298,7.796-13.677,16.774-16.823,27.091
		c-1.739,5.852-3.41,11.723-4.953,17.634c6.057-1.954,11.88-4.523,17.868-6.653c13.413-4.807,27.169-8.578,41.071-11.674
		c-5.989,7.933-11.938,16.061-15.514,25.43c-1.895,5.383-4.455,10.473-7.141,15.494c-2.149,4.172-6.399,6.575-9.476,9.965
		c-9.154,8.9-14.752,20.526-21.121,31.399c-8.949-10.854-15.357-23.593-20.477-36.635c-8.529-22.763-12.085-47.196-12.114-71.444
		C392.632,197.143,395.446,172.123,400.262,147.583z"/>
	<path fill="#B7926B" stroke="#B7926B" stroke-width="2" d="M1059.803,165.558c11.499-4.318,23.398-7.64,35.258-10.883
		c-1.016,13.032-5.363,25.469-9.291,37.837c-5.637,15.445-13.433,29.973-20.652,44.705c-20.125,39.517-39.38,79.503-56.536,120.408
		c-6.106,13.892-11.059,28.273-17.526,41.989c-1.866,0.068-3.722,0.166-5.559,0.352c-31.751,4.142-64.097,5.285-95.867,0.84
		c13.482-3.996,26.807-8.734,39.136-15.602c37.133-20.057,65.973-52.892,86.293-89.458c20.193-36.264,33.089-76.152,41.647-116.637
		C1057.869,174.624,1058.055,169.857,1059.803,165.558z"/>
	<path fill="#A76C68" stroke="#A76C68" stroke-width="2" d="M975.337,200.24c20.125-10.131,40.807-19.197,61.997-26.856
		c-3.263,29.455-12.104,58.147-24.316,85.082c-20.545,45.193-52.95,84.945-93.356,113.804
		c-13.267,9.603-27.403,17.956-42.028,25.293c-4.103,2.003-8.157,4.172-12.505,5.578c25.42-28.478,51.553-56.428,75.097-86.537
		c5.95-7.855,12.143-15.699,16.413-24.629c2.423-4.826,1.045-11.049-3.204-14.371c-5.373-3.878-12.485-3.654-18.806-3.595
		c-21.6,1.27-42.536,7.21-63.345,12.73c8.265-14.849,19.93-27.481,32.356-38.941C925.064,228.551,949.781,213.35,975.337,200.24z"/>
	<path fill="#EBBA88" stroke="#EBBA88" stroke-width="2" d="M499.675,227.203c6.252-0.615,12.554-0.401,18.835-0.449
		c4.504,0.02,9.31-0.655,13.394,1.739c-9.613-0.02-19.246-0.528-28.869-0.01C501.903,228.073,500.779,227.643,499.675,227.203z"/>
	<path fill="#231F20" stroke="#231F20" stroke-width="2" d="M655.605,236.65c10.17,11.245,18.151,24.257,26.387,36.938
		c21.121,34.085,39.8,69.695,55.705,106.506c8.499,20.037,16.305,40.475,21.297,61.694c2.149,9.672,3.918,19.588,3.39,29.543
		c-0.391,6.067-1.71,12.436-5.862,17.126c-8.978,10.444-21.18,17.438-33.45,23.329c-17.761,8.363-36.674,14.078-55.842,18.191
		c-19.216,3.966-38.872,6.233-58.509,5.442c-9.574-0.508-19.207-1.729-28.282-4.904c-16.989-6.311-32.18-18.64-39.967-35.219
		c-6.721-13.726-7.757-29.494-5.901-44.47c2.804-19.715,10.6-38.364,20.125-55.725c15.367-27.608,34.3-53.106,54.845-77.061
		c14.879-17.223,30.627-33.704,47.333-49.16C652.869,258.622,653.612,247.26,655.605,236.65 M648.883,305.622
		c-26.114,24.619-50.097,51.729-69.47,82.014c-10.912,17.184-20.574,35.492-25.518,55.363c-3.488,14.351-4.299,30.119,1.866,43.884
		c5.852,13.384,18.308,22.89,31.829,27.686c11.108,3.634,22.919,4.201,34.515,4.338c29.474-0.625,58.91-5.842,86.742-15.611
		c13.814-5.227,28.077-11.186,38.472-22.059c3.029-2.735,3.703-7.024,3.429-10.903c-0.684-8.343-3.185-16.383-5.832-24.277
		c-5.656-16.188-12.681-31.858-19.861-47.421c-17.565-37.505-36.684-74.257-55.422-111.176
		C662.453,293.205,655.614,299.36,648.883,305.622z"/>
	<path fill="#E3B383" stroke="#E3B383" stroke-width="2" d="M472.819,278.268c3.996-11.079,10.59-22.264,21.932-27.032
		c1.69,4.377,3.302,8.773,5.119,13.101C490.766,268.801,481.983,273.921,472.819,278.268z"/>
	<path fill="#FFFFFF" stroke="#FFFFFF" stroke-width="2" d="M477.489,282.752c6.419-4.777,13.443-8.792,20.926-11.645
		c8.128,20.398,15.494,41.295,19.06,63.032c-3.8-6.037-8.704-12.065-15.885-14.019c-9.76-3.087-20.047,1.827-26.993,8.626
		c-13.57,13.228-20.057,32.288-21.395,50.869c-0.723,14.976,2.179,31.711,13.775,42.253c-17.683,8.617-36.03,15.983-54.914,21.542
		c3.39-23.574,7.464-47.128,14.312-69.978c4.621-15.016,10.141-29.777,16.667-44.08C451.17,311.718,461.995,294.788,477.489,282.752
		z"/>
	<path fill="#FFFFFF" stroke="#FFFFFF" stroke-width="2" d="M648.883,305.622c6.731-6.262,13.57-12.417,20.75-18.161
		c18.738,36.919,37.856,73.671,55.422,111.176c7.181,15.563,14.205,31.233,19.861,47.421c2.648,7.894,5.148,15.934,5.832,24.277
		c0.274,3.878-0.401,8.167-3.429,10.903c-10.395,10.873-24.658,16.833-38.472,22.059c-27.833,9.769-57.268,14.986-86.742,15.611
		c-11.596-0.137-23.407-0.703-34.515-4.338c-13.521-4.797-25.977-14.302-31.829-27.686c-6.164-13.765-5.354-29.533-1.866-43.884
		c4.943-19.871,14.605-38.179,25.518-55.363C598.786,357.351,622.77,330.241,648.883,305.622 M656.826,377.066
		c-11.45,3.39-20.897,11.753-27.276,21.669c-9.926,15.631-13.208,35.57-7.962,53.409c3.029,10.512,9.418,20.379,18.816,26.231
		c9.398,5.93,21.502,6.956,31.868,3.048c8.128-3.107,15.69-8.372,20.711-15.553l0.576-0.186c3.224-4.416,6.809-8.978,8.148-14.351
		c4.719-8.753,5.969-19.041,5.852-28.869c-0.293-14.947-6.292-30.529-18.474-39.742C680.067,375.786,667.67,373.695,656.826,377.066
		z"/>
	<path fill="#456490" stroke="#456490" stroke-width="2" d="M474.597,328.746c6.946-6.799,17.233-11.714,26.993-8.626
		c7.181,1.954,12.085,7.982,15.885,14.019c1.143,5.08,2.003,10.316,1.641,15.543c-2.384-4.025-4.113-8.382-6.301-12.495
		c-3.888-6.448-10.854-11.87-18.728-11.323c-8.109-0.088-15.074,5.09-20.193,10.922c-9.476,10.297-14.039,24.082-15.934,37.71
		c-1.544,9.808-0.176,19.949,3.185,29.25c2.179,6.086,6.712,10.883,11.42,15.133c-1.856,1.006-3.722,1.993-5.588,2.989
		c-11.596-10.541-14.498-27.276-13.775-42.253C454.541,361.034,461.028,341.974,474.597,328.746z"/>
	<path fill="#637DA2" stroke="#637DA2" stroke-width="2" d="M473.894,336.787c5.119-5.832,12.085-11.01,20.193-10.922
		c7.874-0.547,14.84,4.875,18.728,11.323c2.188,4.113,3.918,8.47,6.301,12.495c0.957,2.296,0.703,4.875,0.821,7.317
		c-0.049,6.878,0.283,13.882-1.348,20.623c-1.993,6.927-6.721,12.681-11.782,17.644c-0.352-0.41-1.036-1.211-1.387-1.622
		c5.51-11.762,8.998-25.166,5.92-38.091c-1.651-7.737-5.92-16.012-13.863-18.728c-5.188-1.934-10.727,0.166-14.947,3.302
		c0.137,0.469,0.41,1.397,0.547,1.856c-2.052,1.729-4.015,3.546-5.754,5.588c-1.993,0.528-3.927,1.485-4.875,3.429
		c-5.285,8.832-8.431,19.08-8.128,29.435c-0.274,8.353,1.573,17.136,7.024,23.691c3.351,4.172,8.841,5.344,13.404,7.689
		c-3.82,2.745-8.021,4.894-12.182,7.063c-4.709-4.25-9.242-9.046-11.42-15.133c-3.361-9.3-4.728-19.441-3.185-29.25
		C459.855,360.868,464.418,347.084,473.894,336.787z"/>
	<path fill="#7E94B2" stroke="#7E94B2" stroke-width="2" d="M482.53,340.128c4.22-3.136,9.76-5.236,14.947-3.302
		c7.943,2.716,12.212,10.991,13.863,18.728c3.077,12.925-0.41,26.329-5.92,38.091c0.352,0.41,1.036,1.211,1.387,1.622
		c-6.653,6.37-14.068,11.958-22.059,16.549c-4.562-2.345-10.053-3.517-13.404-7.689c-5.451-6.555-7.298-15.338-7.024-23.691
		c-0.303-10.356,2.843-20.604,8.128-29.435c0.948-1.944,2.882-2.901,4.875-3.429c-0.791,2.716-1.446,5.481-1.798,8.304
		c-0.518-0.127-1.553-0.381-2.071-0.508c-6.194,10.697-8.294,24.013-4.894,35.981c1.534,5.725,5.373,10.991,10.805,13.56
		c4.973,2.179,10.698,0.166,14.869-2.853c6.096-4.66,10.014-11.626,12.495-18.777c3.087-9.105,4.152-19.177,1.319-28.488
		c-1.377-5.07-4.494-9.711-8.89-12.622c-2.823-1.944-6.379-1.641-9.623-1.739c-0.147,0.703-0.43,2.11-0.567,2.814
		c-1.964-0.449-3.937-0.86-5.891-1.26C482.94,341.525,482.667,340.597,482.53,340.128z"/>
	<path fill="#8EA1BC" stroke="#8EA1BC" stroke-width="2" d="M489.535,340.431c3.243,0.098,6.799-0.205,9.623,1.739
		c4.396,2.911,7.513,7.552,8.89,12.622c2.833,9.31,1.768,19.382-1.319,28.488c-2.481,7.151-6.399,14.117-12.495,18.777
		c-4.172,3.019-9.896,5.031-14.869,2.853c-5.432-2.569-9.271-7.835-10.805-13.56c-3.4-11.967-1.299-25.283,4.894-35.981
		c0.518,0.127,1.553,0.381,2.071,0.508c-0.039,1.407-0.01,2.823,0.107,4.24c-2.481,2.677-4.035,6.067-4.357,9.711
		c-0.84,7.395-1.739,15.309,1.29,22.352c2.159,4.562,6.321,9.066,11.753,8.998c6.721,0.234,11.997-5.041,15.299-10.356
		c4.738-7.044,6.223-15.651,6.819-23.964c-0.088-7.044-1.895-14.879-7.464-19.636c-2.462-2.208-5.871-1.846-8.861-1.319
		c-0.381-0.899-0.762-1.778-1.143-2.657C489.105,342.541,489.388,341.134,489.535,340.431z"/>
	<path fill="#FFFFFF" stroke="#FFFFFF" stroke-width="2" d="M477.323,347.572c1.739-2.042,3.703-3.859,5.754-5.588
		c1.954,0.401,3.927,0.811,5.891,1.26c0.381,0.879,0.762,1.759,1.143,2.657c0.42,0.996,0.811,2.022,1.192,3.048
		c0.225,5.549-0.928,11.753-5.383,15.504c-1.632,1.504-4.064,2.003-6.125,1.182c-1.583-0.987-2.667-2.55-3.859-3.937
		c-0.068-0.401-0.225-1.182-0.303-1.583c-0.117-1.417-0.147-2.833-0.107-4.24C475.877,353.053,476.532,350.288,477.323,347.572z"/>
	<path fill="#9DADC4" stroke="#9DADC4" stroke-width="2" d="M490.111,345.901c2.989-0.528,6.399-0.889,8.861,1.319
		c5.569,4.758,7.376,12.593,7.464,19.636c-0.596,8.314-2.081,16.921-6.819,23.964c-3.302,5.315-8.577,10.59-15.299,10.356
		c-5.432,0.068-9.594-4.435-11.753-8.998c-3.029-7.044-2.13-14.957-1.29-22.352c0.322-3.644,1.876-7.034,4.357-9.711
		c0.078,0.401,0.234,1.182,0.303,1.583c-2.345,7.347-4.338,15.152-2.54,22.87c1.094,5.285,4.386,11.225,10.238,12.075
		c6.331,0.821,11.508-4.172,14.625-9.125c5.481-9.115,7.405-21.004,3.087-30.949c-1.7-4.191-5.686-6.848-10.043-7.62
		C490.922,347.924,490.531,346.898,490.111,345.901z"/>
	<path fill="#231F20" stroke="#231F20" stroke-width="2" d="M491.303,348.95c4.357,0.772,8.343,3.429,10.043,7.62
		c4.318,9.945,2.394,21.835-3.087,30.949c-3.116,4.953-8.294,9.945-14.625,9.125c-5.852-0.85-9.144-6.79-10.238-12.075
		c-1.798-7.718,0.195-15.524,2.54-22.87c1.192,1.387,2.276,2.95,3.859,3.937c2.061,0.821,4.494,0.322,6.125-1.182
		C490.375,360.702,491.528,354.499,491.303,348.95z"/>
	<path fill="#3A5B89" stroke="#3A5B89" stroke-width="2" d="M656.826,377.066c10.844-3.37,23.241-1.28,32.259,5.656
		c12.182,9.213,18.181,24.795,18.474,39.742c0.117,9.828-1.133,20.115-5.852,28.869c-0.02-6.174,2.872-11.821,3.517-17.898
		c2.091-15.23-0.889-32.014-11.293-43.806c-6.331-7.522-16.002-12.436-25.948-11.958c-9.193-0.586-18.122,3.146-25.215,8.783
		c-11.919,9.535-19.128,24.199-21.092,39.185c-0.645,9.447-0.869,19.236,2.267,28.321c3.556,10.942,11.43,20.809,22.089,25.479
		c13.531,5.49,29.758,1.456,40.113-8.568c2.052-1.934,3.878-4.445,6.839-5.002c-5.021,7.18-12.583,12.446-20.711,15.553
		c-10.365,3.908-22.47,2.882-31.868-3.048c-9.398-5.852-15.787-15.719-18.816-26.231c-5.246-17.839-1.964-37.778,7.962-53.409
		C635.929,388.818,645.376,380.456,656.826,377.066z"/>
	<path fill="#4E6C95" stroke="#4E6C95" stroke-width="2" d="M642.768,386.454c7.093-5.637,16.022-9.369,25.215-8.783
		c9.945-0.479,19.617,4.435,25.948,11.958c10.404,11.792,13.384,28.575,11.293,43.806c-0.645,6.077-3.536,11.723-3.517,17.898
		c-1.338,5.373-4.924,9.935-8.148,14.351l-0.576,0.186c-2.96,0.557-4.787,3.068-6.839,5.002
		c-10.356,10.023-26.583,14.058-40.113,8.568c-10.658-4.67-18.533-14.537-22.089-25.479c-3.136-9.086-2.911-18.874-2.267-28.321
		C623.639,410.653,630.849,395.989,642.768,386.454 M662.472,386.659c-7.21,1.368-14.048,4.855-19.216,10.082
		c-10.18,9.935-15.484,24.296-15.309,38.423c0.664,9.926,3.38,20.262,10.434,27.628c6.829,8.04,18.23,12.368,28.566,9.496
		c7.435-1.485,13.619-6.262,18.835-11.518c11.411-13.111,16.315-32.034,11.225-48.837
		C693.373,396.966,678.455,383.787,662.472,386.659z"/>
	<path fill="#7087A9" stroke="#7087A9" stroke-width="2" d="M662.472,386.659c15.983-2.872,30.901,10.307,34.535,25.273
		c5.09,16.803,0.186,35.727-11.225,48.837c-5.217,5.256-11.401,10.033-18.835,11.518c-10.336,2.872-21.737-1.456-28.566-9.496
		c-7.054-7.366-9.769-17.702-10.434-27.628c-0.176-14.127,5.129-28.488,15.309-38.423
		C648.424,391.515,655.263,388.027,662.472,386.659 M659.034,397.748c-6.067-0.127-11.401,4.289-12.573,10.209
		c-0.293-0.264-0.869-0.791-1.162-1.055c-3.351,1.876-4.767,5.725-6.389,8.988c-3.761,7.913-4.24,17.038-2.726,25.567
		c1.915,10.014,9.086,19.431,19.246,22.02c5.91,2.061,12.427,0.361,17.673-2.677c17.575-10.346,24.101-35.551,13.501-53.019
		c-3.644-7.044-10.991-11.547-18.718-12.69C664.651,394.436,661.515,395.745,659.034,397.748z"/>
	<path fill="#8C9FBA" stroke="#8C9FBA" stroke-width="2" d="M659.034,397.748c2.481-2.003,5.617-3.312,8.851-2.657
		c7.728,1.143,15.074,5.647,18.718,12.69c10.6,17.468,4.074,42.673-13.501,53.019c-5.246,3.038-11.762,4.738-17.673,2.677
		c-10.16-2.589-17.331-12.007-19.246-22.02c-1.514-8.529-1.036-17.653,2.726-25.567c1.622-3.263,3.038-7.112,6.389-8.988
		c0.293,0.264,0.869,0.791,1.162,1.055c-0.049,2.403-0.107,4.816-0.01,7.239c-4.523,4.074-5.442,10.336-5.901,16.09
		c-0.694,8.275,2.628,16.901,9.017,22.284c5.598,5.207,14.586,5.657,21.092,1.925c11.137-5.735,16.579-19.001,15.944-31.067
		c-0.635-10.668-8.236-21.542-19.353-22.968c-0.703,0.801-1.387,1.612-2.071,2.423C663.655,401.353,661.349,399.487,659.034,397.748
		z"/>
	<path fill="#FFFFFF" stroke="#FFFFFF" stroke-width="2" d="M646.46,407.957c1.172-5.92,6.506-10.336,12.573-10.209
		c2.315,1.739,4.621,3.605,6.145,6.135c0.195,0.791,0.381,1.592,0.557,2.413c1.309,6.555-2.472,14.83-9.613,15.807
		c-3.693,0.625-6.76-1.954-8.685-4.816c-0.244-0.518-0.742-1.573-0.987-2.091C646.353,412.773,646.412,410.36,646.46,407.957z"/>
	<path fill="#9DADC4" stroke="#9DADC4" stroke-width="2" d="M665.179,403.883c0.684-0.811,1.368-1.622,2.071-2.423
		c11.118,1.426,18.718,12.3,19.353,22.968c0.635,12.065-4.807,25.332-15.944,31.067c-6.506,3.732-15.494,3.283-21.092-1.925
		c-6.389-5.383-9.711-14.009-9.017-22.284c0.459-5.754,1.378-12.016,5.901-16.09c0.244,0.518,0.742,1.573,0.987,2.091
		c-2.784,5.959-4.445,12.661-3.204,19.236c1.075,7.122,5.656,14.263,12.866,16.325c6.731,2.071,14.048-1.016,18.562-6.125
		c7.943-8.822,9.848-23.183,3.283-33.294c-2.901-4.24-7.796-8.021-13.208-7.132C665.56,405.475,665.374,404.674,665.179,403.883z"/>
	<path fill="#231F20" stroke="#231F20" stroke-width="2" d="M665.735,406.296c5.412-0.889,10.307,2.892,13.208,7.132
		c6.565,10.111,4.66,24.472-3.283,33.294c-4.513,5.109-11.831,8.197-18.562,6.125c-7.21-2.061-11.792-9.203-12.866-16.325
		c-1.241-6.575,0.42-13.277,3.204-19.236c1.925,2.862,4.992,5.442,8.685,4.816C663.264,421.126,667.044,412.851,665.735,406.296z"/>
	<path fill="#B7926B" stroke="#B7926B" stroke-width="2" d="M344.557,450.649c16.725-8.07,33.235-16.813,47.899-28.331
		c-1.417,7.122-3.156,14.185-4.396,21.346C373.718,446.849,359.142,448.959,344.557,450.649z"/>
	<path fill="#FDC690" stroke="#FDC690" stroke-width="2" d="M863.028,459.402c9.261-1.26,18.767-1.25,28.048,0
		C881.776,460.418,872.319,460.399,863.028,459.402z"/>
	<path fill="#FFFFFF" stroke="#FFFFFF" stroke-width="2" d="M85.121,545.93c19.646-31.36,43.474-59.994,69.89-85.863
		c4.513,10.346,8.46,21.092,14.83,30.481c-11.391,8.021-18.327,20.858-22.01,34.037c-2.521,8.91-4.152,18.122-4.494,27.384
		c-0.635,7.747-0.586,15.543,0.02,23.29c0.899,18.533,5.324,36.782,12.007,54.064c-0.869,9.369,0.996,18.65,2.354,27.882
		c6.594,39.41,22.274,76.739,41.735,111.44c-23.271,2.804-47.04,3.527-70.174-0.84c-17.077-3.282-33.949-9.779-47.255-21.229
		c-11.85-9.975-19.754-23.75-25.684-37.856c-4.767-11.528-7.689-23.779-8.851-36.186c-0.742-7.698-0.723-15.445-0.215-23.144
		C50.136,612.205,65.709,577.299,85.121,545.93z"/>
	<path fill="#060810" stroke="#060810" stroke-width="2" d="M278.906,466.632c1.759-1.329,4.025-1.163,6.106-1.182
		c6.194,0.078,12.388,0.078,18.581-0.01c2.071,0.049,4.386-0.225,6.106,1.202C299.442,466.905,289.164,466.915,278.906,466.632z"/>
	<path fill="#231F20" stroke="#231F20" stroke-width="2" d="M169.841,490.547c15.25-10.658,35.141-11.323,52.784-7.571
		c7.962,1.456,15.475,4.513,23.134,7.014c35.883,8.939,71.59,18.669,106.76,30.139c17.399,5.852,34.828,11.85,51.367,19.871
		c12.622,6.438,25.264,14.41,33.03,26.602c5.49,8.441,7.249,18.992,5.266,28.82c-3.155,14.459-11.997,26.856-21.571,37.808
		c-10.873,10.942-25.234,17.419-39.302,23.212c-24.111,9.418-49.394,15.572-74.873,19.91c-15.377,2.452-30.862,4.562-46.434,4.992
		c-5.881-1.573-11.967-0.684-17.956-0.948c-3.419-0.166-6.829,0.225-10.16,0.938c-11.674-0.469-23.398-2.276-34.427-6.213
		c-12.915-4.699-23.271-14.517-30.989-25.654c-4.435-6.292-7.776-13.238-11.108-20.144c-6.682-17.282-11.108-35.531-12.007-54.064
		c1.456-7.64,1.426-15.651-0.02-23.29c0.342-9.261,1.973-18.474,4.494-27.384C151.514,511.405,158.45,498.568,169.841,490.547
		 M194.499,499.027c-8.705,1.27-16.852,5.979-22.001,13.14c-5.813,8.099-8.626,17.917-10.375,27.618
		c-1.71,10.717-2.481,21.649-1.631,32.493c1.202,19.168,5.217,38.364,13.638,55.715c4.953,10.053,11.557,19.666,20.77,26.25
		c7.522,5.285,16.735,7.259,25.684,8.548c12.612,1.69,25.4,2.091,38.101,1.319c23.202-1.104,46.258-4.513,68.913-9.594
		c17.263-4.005,34.408-8.783,50.801-15.592c12.3-5.285,25.244-11.196,33.441-22.255c6.35-8.275,12.798-17.448,13.687-28.155
		c0.694-8.998-5.315-16.725-11.987-22.04c-13.052-10.395-28.917-16.247-44.353-22.118c-37.915-13.697-76.836-24.384-115.836-34.496
		c-5.92-1.622-11.997-2.667-17.741-4.836C222.644,499.926,208.42,496.956,194.499,499.027z"/>
	<path fill="#B7926B" stroke="#B7926B" stroke-width="2" d="M847.007,486.893c11.997,0.166,24.111,1.69,36.03-0.322
		c3.527,8.421,7.034,16.852,10.57,25.264c-6.047,5.862-11.645,12.808-13.365,21.258c-2.55,11.743,0.723,23.769,4.826,34.76
		c12.769,32.522,34.623,60.785,45.477,94.138c2.98,9.896,5.061,20.496,2.941,30.783c-1.514,8.363-6.252,15.582-10.424,22.812
		c-16.784,27.94-40.904,50.762-67.526,69.245c-43.933,30.588-93.571,51.299-141.656,74.267c-2.159,1.084-4.22,2.325-6.262,3.595
		c-8.07-14.048-17.165-27.579-28.028-39.634c-3.155-3.673-6.839-6.848-9.935-10.57c40.797-13.99,81.477-28.439,121.121-45.467
		c29.572-12.915,59.105-26.651,85.463-45.486c9.271-6.829,18.269-14.41,24.785-24.003c4.523-6.399,6.721-14.263,6.194-22.079
		c-0.928-18.953-6.389-37.3-11.958-55.314C880.633,575.209,862.638,531.471,847.007,486.893z"/>
	<path fill="#58595B" stroke="#58595B" stroke-width="2" d="M194.499,499.027c13.921-2.071,28.146,0.899,41.11,5.998
		c5.744,2.169,11.821,3.214,17.741,4.836c38.999,10.111,77.921,20.799,115.836,34.496c15.436,5.871,31.301,11.723,44.353,22.118
		c6.673,5.315,12.681,13.042,11.987,22.04c-0.889,10.707-7.337,19.881-13.687,28.155c-8.197,11.059-21.141,16.969-33.441,22.255
		c-16.393,6.809-33.538,11.586-50.801,15.592c-22.655,5.08-45.711,8.49-68.913,9.594c-12.7,0.772-25.488,0.371-38.101-1.319
		c-8.949-1.29-18.161-3.263-25.684-8.548c-9.213-6.585-15.817-16.198-20.77-26.25c-8.421-17.35-12.436-36.547-13.638-55.715
		c-0.85-10.844-0.078-21.776,1.631-32.493c1.749-9.701,4.562-19.519,10.375-27.618C177.647,505.006,185.794,500.297,194.499,499.027
		z"/>
	<path fill="#E3B383" stroke="#E3B383" stroke-width="2" d="M880.242,533.093c1.719-8.451,7.317-15.397,13.365-21.258
		c32.806,74.306,70.379,146.561,113.247,215.571c38.697,61.899,81.76,121.522,133.02,173.7
		c26.543,26.602,55.305,51.27,87.446,70.887c33.763,20.643,71.922,35.531,111.762,37.524c18.845,0.723,37.681-1.055,56.399-3.038
		c86.303-9.848,169.518-39.859,244.987-82.366c48.105-27.139,93.513-59.144,134.769-95.877c0.781-0.654,1.592-1.29,2.442-1.885
		c4.553,26.788,1.651,55.265-10.619,79.708c-0.625,0.918-0.948,2.188-1.983,2.726c-6.975,2.862-13.238,7.063-19.822,10.668
		c-45.379,25.488-92.184,48.378-139.966,68.991c-4.045,1.817-8.587,2.911-11.968,5.92c-0.723,1.475-0.449,3.292,0.967,4.289
		c3.947,3.204,9.066,4.396,13.882,5.686c8.91,2.159,18.034,3.253,27.188,3.683c-7.689,14-20.555,24.541-34.73,31.545
		c-16.032,7.708-33.577,11.489-51.016,14.42c-8.323,1.485-16.745,2.432-24.98,4.396c-6.516-10.15-13.413-20.096-21.219-29.289
		c3.253,9.369,7.542,18.503,9.769,28.156c-2.716,42.79,7.62,85.463,2.98,128.233c-1.983,17.868-7.757,35.981-19.939,49.57
		c-13.198,13.882-28.097,25.957-42.419,38.638c-10.795,10.082-21.747,20.398-29.25,33.284c-7.796,12.944-11.381,28.517-9.301,43.532
		c1.016,9.701,4.357,18.913,7.083,28.224c14.058,48.534,22.987,98.759,23.759,149.364c0.664,13.873-1.045,27.745-0.645,41.618
		c-31.448,12.583-64.458,20.936-97.743,26.924c-57.268,10.121-115.64,12.71-173.69,11.02c0.879-19.832,6.829-39.341,17.116-56.311
		c14.332-24.062,35.678-43.191,59.232-57.972c-15.328,1.719-30.119,7.708-42.292,17.184c-12.983,9.906-23.271,22.958-31.496,36.967
		c-10.238,17.536-17.643,36.635-22.812,56.242c-0.41,1.094-0.469,3.175-2.208,2.814c-32.083-1.241-64.029-4.767-95.906-8.48
		c0.713-9.281,3.732-18.22,6.907-26.905c10.541-27.569,31.682-50.117,56.614-65.445c16.96-10.541,35.639-18.21,54.982-23.085
		c-21.893-0.274-44.089,3.683-64.009,12.984c-25.674,11.811-46.229,33.177-59.056,58.167c-6.751,13.013-11.684,26.964-14.83,41.286
		c-17.419-2.384-34.818-5.207-51.993-8.988c6.887-32.532,20.281-64.527,43.318-88.98c12.817-13.746,28.4-24.853,45.467-32.688
		c26.612-12.202,55.959-16.715,84.955-18.591c13.941-0.625,27.892-0.537,41.833,0c53.79,3.029,107.043,12.954,158.811,27.706
		c-9.369-5.041-18.992-9.603-28.468-14.429c-8.968-3.761-18.308-6.555-27.511-9.691c-12.378-4.357-25.127-7.532-37.788-10.922
		c-22.323-5.549-45.301-10.346-68.425-8.685c-5.823,0.352-12.446,0.576-17.106-3.556c-5.715-5.061-7.2-13.032-8.118-20.242
		c-0.43-5.344-1.465-10.707-0.899-16.061c0.987-5.276,0.821-10.658,0.674-15.993c-0.244-7.307,0.801-14.693-0.674-21.922
		c-0.586-11.235,0.537-22.499,0.703-33.744c2.266-37.055,11.489-74.003,29.044-106.838c16.041-29.816,40.68-54.513,69.402-72.225
		c35.18-21.825,75.508-34.427,116.324-40.24c10.287-1.397,20.613-2.569,31.008-2.696c-0.313-2.384-2.911-1.905-4.631-2.247
		c-22.352-1.876-44.92-0.997-67.086,2.403c-36.752,5.617-72.753,18.806-102.794,40.992c-27.608,20.193-49.492,47.85-63.648,78.937
		c-10.365,22.304-16.921,46.219-21.043,70.418c-7.913-1.407-15.983-1.759-23.837-3.517c-19.812-4.074-39.039-11.733-55.471-23.642
		c-10.014-6.985-18.386-15.963-25.801-25.596c6.497-7.776,13.276-15.309,19.822-23.036c-0.918-0.606-1.817-1.182-2.706-1.749
		c-2.823,2.306-5.637,4.641-8.665,6.682c0.303-7.913,2.98-15.465,4.044-23.28c7.552-44.333,6.487-90.191-3.449-134.066
		c-2.569-11-5.178-22.059-9.291-32.6c-0.147,8.861,0.195,17.732-0.352,26.592c-2.257,37.475-14.302,73.827-31.751,106.897
		c-16.52,31.506-37.29,60.531-58.695,88.863c-21.112,27.765-42.819,55.09-62.915,83.606c-19.539,27.774-37.231,57.053-50.215,88.501
		c-5.5,13.081-9.642,26.729-12.036,40.729c-6.292,36.196-4.201,73.114-2.628,109.613c2.081,0.225,4.162,0.449,6.272,0.615
		c-25.019,2.14-50.107,3.361-75.176,4.699c-21.112,0.84-42.223,2.091-63.345,2.208c-5.383-18.826-6.79-39.146-1.524-58.167
		c4.26-15.69,13.599-29.914,26.241-40.113c2.716-2.227,5.666-4.142,8.363-6.379c-15.367,1.133-29.758,9.398-39.244,21.414
		c-10.727,13.335-16.012,30.148-18.552,46.844c-1.885,12.309-2.061,24.775-1.817,37.202c-13.374-0.244-26.739,0.645-40.113,0.02
		c-18.366,0.088-36.723-0.655-55.06-1.622c-1.954-21.884,1.671-44.812,12.993-63.882c8.665-14.732,22.049-26.348,37.251-33.997
		c4.113-2.228,8.636-3.595,12.739-5.862c-20.232,1.964-40.055,10.15-55.041,24.013c-11.303,10.463-19.304,24.218-23.583,38.96
		c-3.83,12.651-4.963,25.947-4.826,39.117c-12.671-1.465-25.41-3.068-37.671-6.682c-3.898-1.377-8.197-2.393-11.352-5.178
		c-5.725-7.083-7.444-16.96-5.295-25.723c1.27-5.705,5.168-10.307,8.988-14.527c11.88-12.495,26.153-22.391,40.582-31.692
		c32.513-20.535,67.448-36.928,103.009-51.426c39.136-15.817,79.308-28.966,119.988-40.191c3.302-0.909,6.682-1.563,9.877-2.833
		c-9.496,0.352-18.943,1.651-28.429,2.345c-6.106,0.567-12.261,0.782-18.318,1.788c-9.261,2.159-18.884,1.651-28.155,3.8
		c18.816-37.427,35.16-76.084,49.394-115.474c14.996-41.51,27.599-83.9,37.046-127.022c10.59-48.769,17.184-98.622,16.471-148.602
		c-0.518-24.326-2.657-48.661-7.395-72.538c-1.768-7.884-3.058-15.953-5.842-23.564c-1.514,11.518,0.635,23.026,0.44,34.564
		c0.371,29.093-3.077,58.059-6.692,86.879c-1.495,10.18-2.149,20.516-4.201,30.588c-8.646-38.638-19.49-76.924-34.935-113.432
		c-7.63-18.161-16.393-35.844-26.172-52.94c-7.747-13.726-14.996-27.735-22.968-41.334c2.042-1.27,4.103-2.511,6.262-3.595
		c48.085-22.968,97.723-43.679,141.656-74.267c26.622-18.484,50.742-41.305,67.526-69.245c4.172-7.229,8.91-14.449,10.424-22.812
		c2.12-10.287,0.039-20.887-2.941-30.783c-10.854-33.353-32.708-61.616-45.477-94.138
		C880.965,556.862,877.692,544.836,880.242,533.093z"/>
	<path fill="#040102" stroke="#040102" stroke-width="2" d="M143.337,551.967c1.446,7.64,1.475,15.651,0.02,23.29
		C142.75,567.51,142.702,559.714,143.337,551.967z"/>
	<path fill="#FFFFFF" stroke="#FFFFFF" stroke-width="2" d="M442.182,595.422c79.582-4.533,158.606-18.484,238.5-17.585
		c5.764,0.176,11.733-0.508,17.311,1.329c25.723,2.999,51.211,11.039,72.723,25.733c-27.813,33.988-57.678,66.246-88.315,97.694
		c-30.109,30.5-61.117,60.17-94.079,87.573c-18.747,15.69-38.169,30.568-58.47,44.187c-19.07,12.573-38.96,24.189-60.355,32.386
		c-24.814,9.271-52.442,8.021-77.559,0.586c-29.162-8.558-55.783-24.013-80.324-41.657c-35.824-26.153-67.878-57.249-96.619-90.973
		c-1.866-2.403-4.152-4.611-5.315-7.474c-2.227-6.751-5.383-13.169-7.181-20.066c-3.126-10.414-4.211-21.248-5.041-32.034
		c11.03,3.937,22.753,5.744,34.427,6.213c9.359,0.606,18.747,0.586,28.116,0.01c15.572-0.43,31.057-2.54,46.434-4.992
		c25.479-4.338,50.762-10.492,74.873-19.91c14.068-5.793,28.429-12.27,39.302-23.212
		C430.186,622.278,439.027,609.88,442.182,595.422z"/>
	<path fill="#C1C3C5" stroke="#C1C3C5" stroke-width="2" d="M777.302,624.564c2.706-3.41,4.826-7.366,8.323-10.063l-0.371,0.899
		c-2.032,5.246-5.881,9.447-8.919,14.087c-34.105,49.902-60.981,104.181-88.804,157.698c-18.581,7.015-37.573,12.993-56.418,19.314
		c-7.278,2.257-14.459,4.885-21.835,6.809C672.926,757.721,727.546,692.656,777.302,624.564z"/>
	<path fill="#FFFFFF" stroke="#FFFFFF" stroke-width="2" d="M785.254,615.4c10.121,7.112,20.447,14.175,29.142,23.056
		c2.042,1.837,3.331,4.777,6.164,5.52c-2.306-5.705-5.656-10.903-8.314-16.442c4.875,4.113,8.538,9.388,12.27,14.508
		c15.631,21.991,25.41,48.359,26.426,75.42c-33.128,19.031-68.503,33.734-103.946,47.811c-19.705,7.601-39.429,15.25-59.466,21.913
		c27.823-53.517,54.699-107.795,88.804-157.698C779.373,624.847,783.222,620.646,785.254,615.4z"/>
	<path fill="#C1C3C5" stroke="#C1C3C5" stroke-width="2" d="M155.363,629.321c3.331,6.907,6.673,13.853,11.108,20.144
		c7.718,11.137,18.073,20.955,30.989,25.654c0.83,10.785,1.915,21.62,5.041,32.034c1.798,6.897,4.953,13.316,7.181,20.066
		c-0.86-0.332-1.729-0.655-2.589-0.967c8.109,12.808,16.969,25.117,26.319,37.046c-11.254,2.149-22.567,4.025-33.958,5.344
		c-19.461-34.701-35.141-72.03-41.735-111.44C156.359,647.971,154.493,638.69,155.363,629.321z"/>
	<path fill="#1B1718" stroke="#1B1718" stroke-width="2" d="M45.818,646.731c0.361,0.664,1.084,1.993,1.456,2.657
		c-0.508,7.698-0.528,15.445,0.215,23.144c-0.44-0.02-1.319-0.039-1.758-0.049C45.037,663.944,45.076,655.269,45.818,646.731z"/>
	<path fill="#040102" stroke="#040102" stroke-width="2" d="M231.886,681.334c3.331-0.713,6.741-1.104,10.16-0.938
		c5.989,0.264,12.075-0.625,17.956,0.948C250.634,681.92,241.245,681.939,231.886,681.334z"/>
	<path fill="#B7926B" stroke="#B7926B" stroke-width="2" d="M1745.254,919.453c6.585-3.605,12.847-7.806,19.822-10.668
		c-2.179,6.106-6.448,11.157-10.326,16.256c-17.712,21.454-41.676,36.743-66.5,48.74c-6.956,3.497-14.341,6.028-21.327,9.418
		c28.497-1.114,57.102,0.078,85.424,3.585c8.353,1.182,16.999,1.924,24.804,5.393c-2.765,5.119-8.284,7.659-13.023,10.58
		c-17.946,9.721-36.801,17.604-55.558,25.567c-19.109,8.011-38.306,15.778-57.483,23.593c-4.914,1.934-9.672,4.582-15.055,4.885
		c8.998,4.289,18.054,8.46,26.983,12.896c5.91,3.634,10.639,8.861,15.592,13.667c4.406,4.465,8.705,9.213,11.421,14.938
		c-7.708,3.849-16.295,5.334-24.658,7.014c-25.742,4.543-52.012,6.331-78.126,4.885c-12.778-0.918-25.654-2.618-37.7-7.151
		c-1.993-0.811-4.435-1.524-5.012-3.869c-5.344-14.185-12.124-27.794-19.9-40.797c8.236-1.964,16.657-2.911,24.98-4.396
		c17.438-2.931,34.984-6.712,51.016-14.42c14.175-7.005,27.042-17.546,34.73-31.545c-9.154-0.43-18.279-1.524-27.188-3.683
		c-4.816-1.289-9.936-2.481-13.882-5.686c-1.417-0.996-1.69-2.814-0.967-4.289c3.38-3.009,7.923-4.103,11.968-5.92
		C1653.07,967.831,1699.875,944.941,1745.254,919.453z"/>
	<path fill="#B7926B" stroke="#B7926B" stroke-width="2" d="M710.938,924.201c9.359,13.306,17.184,27.677,24.648,42.135
		c19.089,37.456,32.649,77.569,41.813,118.561c2.501,13.609,1.065,27.53,0.283,41.246c-0.801,19.148-2.999,38.296-7.454,56.965
		c-5.148,22.216-12.896,43.718-21.102,64.957c-3.37,8.099-5.93,16.559-9.916,24.394c0.381-11.166,2.55-22.147,3.302-33.275
		c3.605-39.615,2.003-80.109-8.734-118.581c-7.767-28.243-20.584-55.012-37.387-78.986c6.164-35.228,11.557-70.613,14.615-106.252
		C711.349,931.645,711.017,927.913,710.938,924.201z"/>
	<path fill="#B7926B" stroke="#B7926B" stroke-width="2" d="M1052.262,1026.017c4.113,10.541,6.721,21.6,9.291,32.6
		c9.936,43.874,11,89.732,3.449,134.066c-1.065,7.816-3.742,15.367-4.044,23.28l-0.029,0.508
		c-30.099,24.209-58.724,50.254-85.971,77.618c-22.909,23.544-45.096,48.104-62.954,75.781
		c-8.197,12.739-15.24,26.348-19.578,40.914c-14.078,45.027-20.193,92.155-22.636,139.155c-0.381,6.458-0.371,12.944-0.567,19.431
		c-9.76,0.645-19.5,1.768-29.279,2.061c-2.11-0.166-4.191-0.391-6.272-0.615c-1.573-36.498-3.664-73.417,2.628-109.613
		c2.393-14,6.536-27.647,12.036-40.729c12.984-31.448,30.676-60.727,50.215-88.501c20.096-28.517,41.803-55.842,62.915-83.606
		c21.405-28.331,42.174-57.356,58.695-88.863c17.448-33.069,29.494-69.421,31.751-106.897
		C1052.457,1043.749,1052.115,1034.878,1052.262,1026.017z"/>
	<path fill="#E3B383" stroke="#E3B383" stroke-width="2" d="M696.392,1041.619c16.803,23.974,29.621,50.742,37.387,78.986
		c10.737,38.472,12.339,78.966,8.734,118.581c-0.752,11.127-2.921,22.108-3.302,33.275c-1.944,7.298-5.295,14.156-7.835,21.278
		c-8.832,22.773-17.751,45.545-28.107,67.682c-7.825,17.136-17.341,33.402-25.987,50.117c-1.397,2.091-1.973,5.246-4.553,6.214
		c-35.971,11.362-71.639,24.189-105.314,41.324c-16.774,8.636-33.128,18.327-47.645,30.441
		c-10.316,8.646-19.793,18.65-26.123,30.627c-4.973,9.34-7.669,20.076-6.506,30.676c0.479,5.412,2.374,10.561,4.289,15.611
		c-28.83,7.269-58.831,7.806-88.413,7.825c0.469-20.682,5.266-41.383,14.635-59.867c9.076-17.927,23.349-33.235,40.914-43.073
		c4.767-2.95,10.15-4.68,15.055-7.366c-30.354,6.721-58.792,25.567-73.818,53.214c-9.515,17.175-13.55,36.918-13.96,56.418
		c-19.07-0.615-38.13-1.895-57.083-4.094c8.304-31.604,28.703-58.9,53.605-79.552c29.699-24.599,64.986-41.491,101.191-54.152
		c39.449-13.667,80.48-22.606,121.912-27.55c1.016-0.195,2.042-0.391,3.068-0.577c-15.162-0.596-30.246-4.162-45.437-2.55
		c22.274-31.174,38.804-65.924,55.099-100.459c17.722-37.27,31.76-76.182,43.484-115.719
		C676.101,1140.554,687.238,1091.248,696.392,1041.619z"/>
	<path fill="#B7926B" stroke="#B7926B" stroke-width="2" d="M1513.182,1057.25c3.37,6.604,4.933,13.941,7.503,20.877
		c14.498,44.91,26.827,90.631,34.72,137.192c3.957,23.388,6.663,47.01,7.425,70.73c0.528,21.952-0.586,44.128-5.705,65.553
		c-4.015,16.735-10.786,33.148-21.903,46.453c-3.605,4.172-7.395,8.265-11.997,11.352c-2.941-20.701-9.633-40.582-16.647-60.179
		c-0.674-1.934-3.048-1.944-4.582-2.735c11.167,35.17,16.012,72.03,17.37,108.812c0.498,12.534,0.283,25.098,0.244,37.641
		c-0.557,9.809-0.635,19.646-1.202,29.465c-0.332,3.116,0.283,6.438-0.703,9.457c-11.313,8.284-23.632,15.143-36.02,21.698
		c-11.802,5.959-23.828,11.567-36.235,16.149c-0.401-13.873,1.309-27.745,0.645-41.618c-0.772-50.605-9.701-100.83-23.759-149.364
		c-2.726-9.31-6.067-18.523-7.083-28.224c-2.081-15.016,1.504-30.588,9.301-43.532c7.503-12.886,18.454-23.202,29.25-33.284
		c14.322-12.681,29.22-24.756,42.419-38.638c12.182-13.589,17.956-31.702,19.939-49.57
		C1520.802,1142.713,1510.466,1100.04,1513.182,1057.25z"/>
	<path fill="#B7926B" stroke="#B7926B" stroke-width="2" d="M1018.03,1272.724c11.645-12.749,22.958-25.801,34.476-38.657
		c7.415,9.633,15.787,18.611,25.801,25.596c16.432,11.909,35.658,19.568,55.471,23.642c7.854,1.758,15.924,2.11,23.837,3.517
		c-6.204,38.403-6.184,77.569-2.628,116.236c0.762,8.578,2.003,17.096,2.716,25.674c-16.325,0.156-31.819-6.204-45.77-14.166
		c-34.007-19.715-66.119-42.595-96.219-67.858c-12.212-10.639-24.746-20.955-36.166-32.454
		C992.385,1300.42,1005.417,1286.763,1018.03,1272.724z"/>
	<path fill="#030000" stroke="#030000" stroke-width="2" d="M1582.261,1324.609c-1.26-6.751-1.221-13.687,0-20.428
		C1582.71,1310.962,1582.71,1317.82,1582.261,1324.609z"/>
	<path fill="#FCC791" stroke="#FCC791" stroke-width="2" d="M1170.334,1352.061c1.475,7.229,0.43,14.615,0.674,21.922
		c0.146,5.334,0.313,10.717-0.674,15.993C1169.26,1377.384,1169.426,1364.654,1170.334,1352.061z"/>
	<path fill="#060303" stroke="#060303" stroke-width="2" d="M1010.644,1385.795c6.086-0.557,12.192-0.625,18.308-0.615l-0.401,1.368
		C1022.592,1386.45,1016.466,1387.417,1010.644,1385.795z"/>
	<path fill="#B7926B" stroke="#B7926B" stroke-width="2" d="M961.885,1413.833c18.142-6.966,37.583-9.31,56.77-11.499
		c8.079-0.967,16.481-0.752,24.14,2.237c10.854,3.849,19.129,12.202,28.83,18.093c8.021,4.816,15.221,10.893,23.583,15.142
		c-17.927,5.481-35.443,12.7-51.084,23.154c-29.142,18.953-50.908,47.86-63.784,79.943c-16.041,4.484-33.03,3.849-49.414,1.993
		c1.925-17.546,6.536-34.916,14.674-50.635c7.513-14.439,18.327-27.364,32.083-36.215c11.733-7.542,25.205-12.495,39.078-14.078
		c0.782-0.225,1.514-0.547,2.208-0.997c-19.304-0.811-38.97,2.99-56.145,11.968c-13.863,7.229-25.752,18.113-34.281,31.203
		c-11.059,16.647-16.667,36.284-19.422,55.92c-7.112-1.104-14.185-2.423-21.18-4.045c1.495-20.076,3.292-40.24,7.2-59.994
		C908.476,1447.938,932.557,1424.638,961.885,1413.833z"/>
	<path fill="#0A0B13" stroke="#0A0B13" stroke-width="2" d="M1157.097,1445.134c7.171-1.534,14.556-0.479,21.825-0.781
		c7.259,0.303,14.644-0.723,21.825,0.762l-0.908,0.742c-13.941-0.537-27.892-0.625-41.833,0L1157.097,1445.134z"/>
	<path fill="#0D0F15" stroke="#0D0F15" stroke-width="2" d="M1519.366,1455.304l1.143-0.098c0.694,14.849,0.225,29.728,0.234,44.597
		l-0.596-0.01c-0.234-2.296-0.498-4.572-0.537-6.848C1519.649,1480.402,1519.864,1467.838,1519.366,1455.304z"/>
	<path fill="#080405" stroke="#080405" stroke-width="2" d="M720.552,1594.098c6.721-0.303,13.531-0.879,20.193,0.479
		c-5.901,0.469-11.831,0.742-17.751,0.781C722.388,1595.036,721.167,1594.411,720.552,1594.098z"/>
	<path fill="#1D191A" stroke="#1D191A" stroke-width="2" d="M680.194,1596.394c4.611-2.677,10.043-1.876,15.133-1.925
		c6.995,0.137,14.127-0.772,20.994,1.075C704.295,1596.081,692.24,1596.638,680.194,1596.394z"/>
	<path fill="#0C0809" stroke="#0C0809" stroke-width="2" d="M637.258,1596.589c8.656-1.368,17.614-1.348,26.28-0.01
		C654.804,1597.107,645.982,1597.097,637.258,1596.589z"/>
	<path fill="#100C0D" stroke="#100C0D" stroke-width="2" d="M1185.35,1625.888c7.21-1.504,14.595-0.664,21.903-0.811
		c6.975,0.107,14.029-0.655,20.926,0.801C1213.926,1626.357,1199.604,1626.347,1185.35,1625.888z"/>
</g>
</svg>
