<?xml version="1.0" encoding="UTF-8" standalone="no"?>
<!-- Created with Inkscape (http://www.inkscape.org/) -->

<svg
   xmlns:dc="http://purl.org/dc/elements/1.1/"
   xmlns:cc="http://creativecommons.org/ns#"
   xmlns:rdf="http://www.w3.org/1999/02/22-rdf-syntax-ns#"
   xmlns:svg="http://www.w3.org/2000/svg"
   xmlns="http://www.w3.org/2000/svg"
   xmlns:sodipodi="http://sodipodi.sourceforge.net/DTD/sodipodi-0.dtd"
   xmlns:inkscape="http://www.inkscape.org/namespaces/inkscape"
   width="67.692596"
   height="76.774147"
   id="svg3666"
   version="1.1"
   inkscape:version="0.48.5 r10040"
   sodipodi:docname="Documento nuevo 9">
  <title
     id="title3736">French Poodle Cartoon Dog</title>
  <defs
     id="defs3668" />
  <sodipodi:namedview
     id="base"
     pagecolor="#ffffff"
     bordercolor="#666666"
     borderopacity="1.0"
     inkscape:pageopacity="0.0"
     inkscape:pageshadow="2"
     inkscape:zoom="7.1508447"
     inkscape:cx="5.8076525"
     inkscape:cy="38.387074"
     inkscape:document-units="px"
     inkscape:current-layer="layer1"
     showgrid="false"
     fit-margin-top="0"
     fit-margin-left="0"
     fit-margin-right="0"
     fit-margin-bottom="0"
     inkscape:window-width="1366"
     inkscape:window-height="724"
     inkscape:window-x="0"
     inkscape:window-y="22"
     inkscape:window-maximized="1" />
  <metadata
     id="metadata3671">
    <rdf:RDF>
      <cc:Work
         rdf:about="">
        <dc:format>image/svg+xml</dc:format>
        <dc:type
           rdf:resource="http://purl.org/dc/dcmitype/StillImage" />
        <dc:title>French Poodle Cartoon Dog</dc:title>
        <cc:license
           rdf:resource="http://creativecommons.org/licenses/publicdomain/" />
        <dc:subject>
          <rdf:Bag>
            <rdf:li>animal</rdf:li>
            <rdf:li>white</rdf:li>
            <rdf:li>cartoon</rdf:li>
            <rdf:li>colour</rdf:li>
            <rdf:li>dog</rdf:li>
            <rdf:li>how i did it</rdf:li>
            <rdf:li>mammal</rdf:li>
            <rdf:li>french poodle</rdf:li>
          </rdf:Bag>
        </dc:subject>
        <dc:creator>
          <cc:Agent>
            <dc:title>Luis Alejandro Bernal Romero</dc:title>
          </cc:Agent>
        </dc:creator>
        <dc:description>French Poodle Cartoon Dog</dc:description>
      </cc:Work>
      <cc:License
         rdf:about="http://creativecommons.org/licenses/publicdomain/">
        <cc:permits
           rdf:resource="http://creativecommons.org/ns#Reproduction" />
        <cc:permits
           rdf:resource="http://creativecommons.org/ns#Distribution" />
        <cc:permits
           rdf:resource="http://creativecommons.org/ns#DerivativeWorks" />
      </cc:License>
    </rdf:RDF>
  </metadata>
  <g
     inkscape:label="Capa 1"
     inkscape:groupmode="layer"
     id="layer1"
     transform="translate(-154.72244,-445.40358)">
    <g
       style="display:inline"
       id="g10628"
       transform="matrix(0.49489824,0,0,0.49489824,-104.2052,37.948669)">
      <path
         inkscape:connector-curvature="0"
         id="path10472"
         style="fill:#b3b3b3;fill-rule:evenodd;stroke:#000000;stroke-width:0.98147511;stroke-linejoin:round;stroke-miterlimit:4;stroke-dasharray:none"
         d="m 589.86955,859.22793 c 0.70395,-14.3137 18.30274,-35.1976 21.3532,-35.4322 3.05046,-0.2347 -6.57021,33.0857 -9.15137,35.4322 -2.58116,2.3465 -11.96718,0.704 -12.20183,0 z" />
      <path
         id="path10580"
         style="fill:#ffffff;stroke:#000000;stroke-width:0.98147511;stroke-linecap:round;stroke-linejoin:round;stroke-miterlimit:4;stroke-dasharray:none"
         inkscape:connector-curvature="0"
         d="m 580.71462,853.05293 c -8.1147,3.0017 -13.45783,10.6978 -15.15964,20.178 -4.52018,-2.9341 -9.45444,-3.9149 -13.85548,-2.287 -6.9937,2.587 -10.68004,11.0137 -9.99939,20.8853 -9.95575,4.668 -13.97225,18.8326 -8.92476,32.4778 3.7205,10.0578 11.34787,17.1158 19.35173,18.9668 0.26801,0.931 0.55833,1.8595 0.90285,2.7908 5.38507,14.5579 18.17758,23.2524 28.55971,19.4119 3.4033,-1.2589 6.11218,-3.737 8.04556,-6.973 7.20863,6.6326 16.28652,9.3814 24.32083,6.4094 10.07005,-3.725 15.50735,-15.3661 14.37558,-28.3901 2.48416,0.1737 4.94057,-0.1562 7.29129,-1.0257 12.36043,-4.5723 17.07783,-22.6283 10.53866,-40.306 l -0.0946,-0.2557 c -6.02443,-16.0034 -19.23491,-26.1177 -30.83807,-24.3092 -7.76995,-14.4004 -22.23928,-22.1122 -34.51313,-17.5721 z" />
      <path
         inkscape:connector-curvature="0"
         id="path10476"
         style="fill:#b3b3b3;stroke:#000000;stroke-width:0.98147511;stroke-linecap:round;stroke-linejoin:round;stroke-miterlimit:4;stroke-dasharray:none"
         d="m 630.89585,968.20903 c 0,10.1088 -8.20338,9.7474 -18.31682,9.7474 -10.10874,0 -18.31682,0.3614 -18.31682,-9.7474 0,-10.1134 8.20808,-18.3168 18.31682,-18.3168 10.11344,0 18.31682,8.2034 18.31682,18.3168 z" />
      <path
         inkscape:connector-curvature="0"
         id="path10478"
         style="fill:#b3b3b3;stroke:#000000;stroke-width:0.98147511;stroke-linecap:round;stroke-linejoin:round;stroke-miterlimit:4;stroke-dasharray:none"
         d="m 588.64937,968.20903 c 0,10.1088 -8.20338,9.7474 -18.31682,9.7474 -5.62223,0 -10.65314,0.1126 -14.01333,-1.5252 -2.6844,-1.3094 -4.30349,-3.7357 -4.30349,-8.2222 0,-10.1134 8.20807,-18.3168 18.31682,-18.3168 10.11344,0 18.31682,8.2034 18.31682,18.3168 z" />
      <path
         d="m 577.07171,976.47893 c 1.64256,-5.3172 -0.23465,-11.5214 -0.23465,-11.5214"
         style="fill:#b3b3b3;stroke:#000000;stroke-width:0.98147511;stroke-linecap:round;stroke-miterlimit:4;stroke-dasharray:none"
         id="path10480"
         inkscape:connector-curvature="0" />
      <path
         d="m 568.61021,977.66153 c -2.0133,-8.5648 0.29097,-15.3602 0.29097,-15.3602"
         style="fill:#b3b3b3;stroke:#000000;stroke-width:0.98147511;stroke-linecap:round;stroke-miterlimit:4;stroke-dasharray:none"
         id="path10482"
         inkscape:connector-curvature="0" />
      <path
         d="m 560.04547,976.77453 c -4.13454,-6.4998 -0.59132,-11.817 -0.59132,-11.817"
         style="fill:#b3b3b3;stroke:#000000;stroke-width:0.98147511;stroke-linecap:round;stroke-miterlimit:4;stroke-dasharray:none"
         id="path10484"
         inkscape:connector-curvature="0" />
      <path
         d="m 583.76761,847.69403 c -6.83137,2.6126 -11.3295,9.3109 -12.76217,17.5622 -3.80532,-2.5538 -7.95923,-3.4074 -11.66426,-1.9906 -5.88766,2.2517 -8.99101,9.5858 -8.41801,18.1777 -8.38127,4.0629 -11.76255,16.3911 -7.51332,28.2674 3.13211,8.7538 9.55322,14.8968 16.29128,16.5078 0.22563,0.8104 0.47003,1.6185 0.76008,2.429 4.53342,12.6706 15.30283,20.2379 24.04304,16.8953 2.86507,-1.0957 5.14555,-3.2525 6.77316,-6.069 6.06861,5.7727 13.71084,8.1652 20.47454,5.5784 8.47749,-3.2421 13.05489,-13.3739 12.10211,-24.7094 2.09129,0.1511 4.15922,-0.136 6.13819,-0.8928 10.40564,-3.9795 14.37699,-19.6947 8.87199,-35.0807 l -0.0796,-0.2225 c -5.07169,-13.9287 -16.19295,-22.7317 -25.96109,-21.1577 -6.54115,-12.5335 -18.72217,-19.2455 -29.05494,-15.294 z"
         inkscape:connector-curvature="0"
         style="fill:#ffffff;stroke:#000000;stroke-width:0.98147511;stroke-linecap:round;stroke-linejoin:round;stroke-miterlimit:4;stroke-dasharray:none"
         id="path10588" />
      <path
         inkscape:connector-curvature="0"
         id="path10488"
         style="fill:#ffffff;stroke:#000000;stroke-width:0.98147511;stroke-linecap:round;stroke-linejoin:round;stroke-miterlimit:4;stroke-dasharray:none"
         d="m 589.52216,887.98953 a 12.851438,12.851438 0 1 1 -25.70174,0 12.851438,12.851438 0 1 1 25.70174,0 z" />
      <path
         inkscape:connector-curvature="0"
         id="path10490"
         style="fill:#ffffff;stroke:#000000;stroke-width:0.98147511;stroke-linecap:round;stroke-linejoin:round;stroke-miterlimit:4;stroke-dasharray:none"
         d="m 619.36033,887.98953 a 12.851438,12.851438 0 1 1 -25.70174,0 12.851438,12.851438 0 1 1 25.70174,0 z" />
      <path
         inkscape:connector-curvature="0"
         id="path10492"
         style="fill:#000000;stroke-width:0.55500001;stroke-miterlimit:4;stroke-dasharray:none"
         d="m 584.50075,889.46443 a 3.9883556,3.9883556 0 1 1 -7.97636,0 3.9883556,3.9883556 0 1 1 7.97636,0 z" />
      <path
         inkscape:connector-curvature="0"
         id="path10494"
         style="fill:#000000;stroke-width:0.55500001;stroke-miterlimit:4;stroke-dasharray:none"
         d="m 606.3608,889.46443 a 3.9883556,3.9883556 0 1 1 -7.97636,0 3.9883556,3.9883556 0 1 1 7.97636,0 z" />
      <path
         inkscape:connector-curvature="0"
         id="path10496"
         style="fill:#000000;stroke-width:0.55500001;stroke-miterlimit:4;stroke-dasharray:none"
         d="m 603.35257,918.23323 c 0,6.4622 -7.07706,11.709 -11.76538,11.709 -5.04498,0 -11.76068,-5.2468 -11.76068,-11.709 0,-6.467 5.27025,-8.1096 11.76068,-8.1096 6.49513,0 11.76538,1.6426 11.76538,8.1096 z" />
      <path
         d="m 606.34799,976.47893 c -1.64256,-5.3172 0.23465,-11.5214 0.23465,-11.5214"
         style="fill:#b3b3b3;stroke:#000000;stroke-width:0.98147511;stroke-linecap:round;stroke-miterlimit:4;stroke-dasharray:none"
         id="path10498"
         inkscape:connector-curvature="0" />
      <path
         d="m 614.80949,977.66153 c 2.0133,-8.5648 -0.29097,-15.3602 -0.29097,-15.3602"
         style="fill:#b3b3b3;stroke:#000000;stroke-width:0.98147511;stroke-linecap:round;stroke-miterlimit:4;stroke-dasharray:none"
         id="path10500"
         inkscape:connector-curvature="0" />
      <path
         d="m 623.37423,976.77453 c 4.13454,-6.4998 0.59132,-11.817 0.59132,-11.817"
         style="fill:#b3b3b3;stroke:#000000;stroke-width:0.98147511;stroke-linecap:round;stroke-miterlimit:4;stroke-dasharray:none"
         id="path10502"
         inkscape:connector-curvature="0" />
      <path
         inkscape:connector-curvature="0"
         id="path10504"
         style="fill:#b3b3b3;fill-rule:evenodd;stroke:#000000;stroke-width:0.98147511;stroke-linejoin:round;stroke-miterlimit:4;stroke-dasharray:none"
         d="m 559.93284,864.15563 c -25.77402,-1.8209 -39.20072,29.2374 -35.68097,38.3888 2.86274,7.4384 18.67349,14.9426 18.03525,8.1189 -2.06962,-22.1416 25.68484,-45.9399 17.64572,-46.5077 z" />
      <path
         inkscape:connector-curvature="0"
         id="path10506"
         style="fill:#b3b3b3;fill-rule:evenodd;stroke:#000000;stroke-width:0.98147511;stroke-linejoin:round;stroke-miterlimit:4;stroke-dasharray:none"
         d="m 623.24624,864.15563 c 25.77402,-1.8209 39.20072,29.2374 35.68097,38.3888 -2.86274,7.4384 -18.67349,14.9426 -18.03524,8.1189 2.06961,-22.1416 -25.68485,-45.9399 -17.64573,-46.5077 z" />
    </g>
  </g>
</svg>
