<svg version="1.1" id="Layer_1" xmlns="http://www.w3.org/2000/svg" xmlns:xlink="http://www.w3.org/1999/xlink" x="0px" y="0px"
	 width="100%" viewBox="0 0 2480 2378" enable-background="new 0 0 2480 2378" xml:space="preserve">
<path fill="#FFFFFF" opacity="1.000000" stroke="none" 
	d="
M590.000000,2380.000000 
	C394.019104,2380.000000 198.038208,2380.000000 2.028651,2380.000000 
	C2.028651,1587.429688 2.028651,794.859375 2.028651,2.144524 
	C828.489746,2.144524 1654.979492,2.144524 2481.734619,2.144524 
	C2481.734619,794.666626 2481.734619,1587.333252 2481.734619,2380.000000 
	C2263.782959,2380.000000 2045.803345,2380.000000 1826.930664,2379.127441 
	C1825.953369,2377.261719 1825.882324,2376.267578 1825.783203,2375.275879 
	C1823.440308,2351.857666 1814.575684,2342.128418 1791.062866,2337.057129 
	C1789.878296,2336.801514 1788.810059,2336.006836 1787.333374,2335.291748 
	C1788.158691,2330.692871 1788.483765,2326.336670 1789.749634,2322.273193 
	C1794.983765,2305.473877 1800.420654,2288.736328 1805.971924,2272.038574 
	C1807.430664,2267.650635 1808.899048,2263.022461 1811.497925,2259.296143 
	C1830.981323,2231.362305 1846.930176,2201.424805 1861.907104,2170.947754 
	C1864.183960,2166.314209 1866.058960,2160.852051 1865.990479,2155.802002 
	C1865.611450,2127.864502 1867.568726,2099.879639 1862.756592,2072.022461 
	C1859.672363,2054.167480 1851.959106,2039.152100 1839.164551,2026.946167 
	C1814.949707,2003.845459 1786.922974,1987.242554 1754.386475,1978.228882 
	C1726.075684,1970.385986 1697.819336,1963.122803 1668.085938,1963.718140 
	C1656.784424,1963.944458 1645.425537,1963.237549 1634.150391,1962.277588 
	C1623.227905,1961.347778 1612.418335,1958.965576 1601.491455,1958.236450 
	C1566.839478,1955.924438 1532.645386,1950.777222 1499.084229,1941.944092 
	C1476.411987,1935.976807 1454.908081,1927.066772 1436.683838,1911.803223 
	C1427.066895,1903.748657 1419.634644,1894.664307 1421.278809,1880.494873 
	C1422.385376,1870.957642 1422.098511,1861.140991 1421.358643,1851.532349 
	C1419.963257,1833.410522 1427.018311,1817.022949 1430.127197,1800.273071 
	C1447.061523,1793.014282 1451.014893,1784.986816 1445.393799,1768.503296 
	C1442.642822,1760.435547 1438.725708,1752.765503 1435.249634,1744.714478 
	C1438.010376,1742.878418 1440.930298,1740.630859 1444.118652,1738.869751 
	C1456.792603,1731.869995 1467.462524,1722.321777 1477.666748,1712.278076 
	C1482.858643,1707.167725 1486.851196,1700.829468 1492.094360,1695.782349 
	C1501.476929,1686.751099 1510.908081,1677.868774 1517.032227,1666.132690 
	C1519.796143,1660.836182 1522.434570,1655.459961 1525.473267,1650.323120 
	C1535.524170,1633.332397 1541.079834,1615.202881 1540.715332,1595.288208 
	C1540.422485,1579.295166 1540.686890,1563.292480 1540.635254,1547.294312 
	C1540.622314,1543.299316 1540.837646,1539.211914 1540.103027,1535.326782 
	C1536.918701,1518.484863 1533.421631,1501.702026 1529.937988,1484.399536 
	C1533.327026,1484.851562 1536.545410,1485.401001 1539.787109,1485.693481 
	C1559.340942,1487.456421 1578.952393,1488.727051 1598.434570,1491.074707 
	C1607.579102,1492.176758 1616.666138,1494.748169 1625.447510,1497.655640 
	C1641.217773,1502.876709 1656.468628,1509.801636 1672.415161,1514.328735 
	C1711.959229,1525.554810 1752.171387,1532.844971 1793.587524,1530.891479 
	C1798.575928,1530.656128 1803.585938,1530.924438 1808.584351,1530.850220 
	C1850.140625,1530.233276 1890.805054,1523.592285 1930.545410,1511.710449 
	C1945.484619,1507.243652 1960.271973,1501.841919 1973.005615,1492.265381 
	C1984.040283,1483.966797 1990.616089,1473.492188 1989.971313,1459.119019 
	C1989.613281,1451.135498 1989.976440,1443.122314 1989.863647,1435.124634 
	C1989.492798,1408.850830 1981.572144,1385.406250 1963.563843,1365.827759 
	C1949.851196,1350.919800 1933.020020,1340.226074 1915.515991,1330.449951 
	C1913.461548,1329.302490 1911.528931,1327.937012 1908.643311,1326.102905 
	C1923.557861,1322.511719 1937.181274,1319.606812 1950.592896,1315.929199 
	C1985.627319,1306.321655 2012.743774,1286.397705 2030.311768,1254.078491 
	C2033.745239,1247.761963 2036.056152,1241.374756 2036.140869,1234.217407 
	C2036.361694,1215.559692 2037.559326,1196.842529 2036.473877,1178.259766 
	C2035.313843,1158.400146 2028.515137,1139.719238 2017.045898,1123.398315 
	C1996.602905,1094.307251 1967.529175,1077.473999 1933.865234,1068.246338 
	C1910.729492,1061.904663 1887.125854,1057.728149 1863.162231,1055.680420 
	C1854.476074,1054.938110 1845.865723,1053.310059 1835.046509,1051.778442 
	C1851.788574,1044.309448 1866.281982,1037.740601 1880.858887,1031.363037 
	C1907.561401,1019.680542 1932.177979,1004.580688 1955.041626,986.551575 
	C1972.947998,972.431580 1988.396484,955.961243 2002.199585,937.856812 
	C2010.608887,926.827026 2015.191895,914.877563 2013.654053,900.694519 
	C2012.903931,893.777832 2013.392456,886.707886 2013.567383,879.713562 
	C2013.969238,863.648621 2008.330811,849.742432 1998.514282,837.379578 
	C1985.094604,820.478577 1966.996338,809.624573 1947.917114,800.842041 
	C1904.505127,780.858948 1858.969116,769.322815 1810.836792,769.576477 
	C1796.505371,769.652039 1782.173218,769.588135 1767.841309,769.588135 
	C1765.327515,769.588135 1762.813721,769.588135 1758.276978,769.588135 
	C1761.284058,765.026306 1763.202271,762.087891 1765.148560,759.168335 
	C1777.517212,740.612671 1789.815308,722.009399 1802.281860,703.519653 
	C1824.990601,669.838989 1847.788330,636.218384 1870.572998,602.588928 
	C1884.015259,582.748352 1897.513184,562.945557 1910.967163,543.112854 
	C1918.149658,532.524780 1920.856689,520.718933 1920.581543,508.053253 
	C1920.386230,499.058228 1919.647705,489.981598 1920.518433,481.075073 
	C1922.723022,458.526154 1912.326538,440.922485 1896.799561,427.345886 
	C1877.672241,410.621246 1855.208130,398.160309 1829.692383,393.725800 
	C1803.603760,389.191772 1777.207397,390.953125 1750.960815,393.170746 
	C1737.860596,394.277588 1725.853882,399.227112 1714.099731,404.980499 
	C1690.508545,416.527863 1671.481812,433.469849 1656.156860,454.459137 
	C1633.724121,485.183533 1609.942627,514.734680 1583.361084,541.976196 
	C1577.547485,547.934326 1571.582275,553.758545 1565.435913,559.369568 
	C1563.592651,561.052307 1560.951782,562.694519 1558.586548,562.834106 
	C1545.515503,563.605591 1534.335815,559.384827 1526.062622,548.862244 
	C1524.916382,547.404419 1523.906494,545.306030 1523.948608,543.530701 
	C1524.320190,527.909241 1523.662964,512.117126 1525.786011,496.716827 
	C1529.205566,471.912842 1538.319458,448.509155 1547.120361,425.162354 
	C1550.343140,416.613068 1551.950806,407.996490 1551.749146,398.823303 
	C1551.405151,383.165619 1551.692871,367.494934 1551.577637,351.830719 
	C1551.550903,348.195770 1551.122559,344.543610 1550.619873,340.935455 
	C1546.585938,311.976624 1536.010498,285.754883 1517.890503,262.661224 
	C1494.791382,233.221786 1470.840698,204.748871 1437.847046,185.509567 
	C1420.410034,175.341629 1402.163208,165.922745 1382.134033,164.920151 
	C1349.609497,163.292068 1316.958130,162.338318 1284.407227,167.623169 
	C1242.894165,174.363098 1206.144165,191.066238 1173.809448,217.508728 
	C1143.928345,241.944763 1119.790405,271.726624 1097.353149,302.878357 
	C1088.790894,314.766266 1084.317261,328.129822 1085.706909,343.256927 
	C1086.477417,351.645233 1085.845093,360.162384 1085.845093,369.913208 
	C1065.193237,361.911987 1045.068848,364.985291 1025.197998,364.461914 
	C1020.202026,364.330292 1015.180603,364.171783 1010.203918,364.510925 
	C999.578003,365.235077 988.737610,365.171387 978.401489,367.379730 
	C933.652161,376.940674 892.449707,395.215851 854.203430,420.182343 
	C833.901001,433.435394 816.088623,449.583679 803.480286,470.393311 
	C795.414734,483.705170 789.321838,498.221466 782.488831,512.267944 
	C777.438416,522.649963 775.661316,533.766846 775.679138,545.231445 
	C775.704590,561.563110 775.719910,577.894714 775.707153,594.226379 
	C775.691956,613.724304 779.062866,632.586121 785.591309,650.981873 
	C790.992188,666.200378 799.293701,679.764893 808.119080,693.108337 
	C809.792664,695.638672 812.733093,697.839478 811.668762,702.552185 
	C808.389038,700.921448 805.828430,699.602051 803.229370,698.363403 
	C783.716553,689.064392 764.542725,678.929260 744.553406,670.800232 
	C731.749756,665.593262 717.902283,661.331665 704.233826,660.229309 
	C680.065979,658.280273 655.641113,658.096252 631.393799,659.017456 
	C612.855347,659.721741 594.229797,662.259399 575.990295,665.780640 
	C545.253601,671.714600 517.424561,685.407715 490.689056,701.285828 
	C465.426788,716.289124 443.943939,735.315491 428.119049,760.424133 
	C422.982880,768.573486 419.885162,777.134460 419.737946,786.683838 
	C419.522156,800.677673 418.934845,814.706543 419.647827,828.662170 
	C420.312225,841.666687 424.032806,854.039307 429.820374,865.934692 
	C439.455353,885.737854 455.090088,900.344604 471.576813,913.721130 
	C493.023956,931.122498 515.960083,946.676086 537.958618,963.414856 
	C552.238037,974.280151 566.172302,985.622070 579.909668,997.168701 
	C588.907471,1004.731567 588.132324,1016.603821 578.116760,1022.846069 
	C569.123535,1028.451172 559.802246,1033.766602 549.033325,1035.540161 
	C528.018311,1039.001465 507.084015,1043.069092 485.979248,1045.842773 
	C451.980957,1050.311157 417.790253,1053.347290 383.828217,1058.052246 
	C332.569061,1065.153564 283.597412,1079.544922 239.949539,1108.411621 
	C212.154388,1126.794189 188.577652,1149.732178 170.420685,1177.831055 
	C167.258713,1182.724365 164.294144,1188.682861 163.977341,1194.303711 
	C162.969482,1212.184937 162.853363,1230.146362 163.180557,1248.062500 
	C163.401260,1260.146484 166.807663,1271.736328 172.282501,1282.568604 
	C180.125046,1298.085815 189.639191,1312.350342 201.551437,1325.229248 
	C226.578812,1352.287720 255.571030,1373.580811 289.449219,1388.044312 
	C330.710876,1405.660034 374.069092,1416.251709 418.087891,1423.571899 
	C471.407990,1432.439087 525.293701,1435.733276 579.367249,1435.638306 
	C625.362427,1435.557495 671.357910,1435.611938 717.353210,1435.625854 
	C754.334656,1435.637085 791.265076,1436.255249 827.641541,1444.182251 
	C837.164978,1446.257568 846.261169,1449.208130 854.251221,1454.992065 
	C857.094238,1457.050293 858.923828,1459.206665 858.222290,1463.282471 
	C856.869446,1471.142212 857.909485,1478.871704 863.922363,1484.628540 
	C870.178589,1490.618408 865.367798,1500.745239 872.651672,1506.094116 
	C875.845947,1508.439697 876.392944,1511.725098 877.005066,1515.561279 
	C878.517029,1525.036743 879.428406,1535.135010 883.530884,1543.543823 
	C889.310364,1555.390259 897.528259,1566.093994 905.114868,1577.000122 
	C914.409912,1590.362305 924.882019,1602.961426 933.455139,1616.754395 
	C942.098145,1630.659668 950.702209,1644.395264 962.327576,1656.051147 
	C965.370178,1659.101685 967.943604,1662.622437 970.709961,1665.945801 
	C977.935730,1674.627197 984.925293,1683.517578 992.421936,1691.957886 
	C1002.718079,1703.550537 1015.424438,1711.998413 1029.761108,1718.378540 
	C1029.293823,1728.622681 1034.485840,1735.623901 1041.831665,1741.495483 
	C1043.634155,1742.936157 1045.557251,1744.467529 1046.762207,1746.375732 
	C1055.370972,1760.008301 1062.056519,1774.228638 1061.663452,1790.999023 
	C1061.288696,1806.988525 1061.217285,1823.005127 1061.711670,1838.988281 
	C1062.047241,1849.837402 1059.133301,1859.921753 1057.072876,1870.345215 
	C1053.837646,1886.710449 1042.693481,1894.831665 1028.652710,1899.375244 
	C1004.681824,1907.132202 981.008057,1915.905762 955.814880,1919.703247 
	C935.768799,1922.724976 916.134155,1928.500488 896.080688,1931.444580 
	C858.869446,1936.907471 821.541565,1941.591309 784.904968,1950.318726 
	C752.815979,1957.962891 721.191101,1967.061157 692.144409,1983.289429 
	C687.221741,1986.039673 682.204041,1988.839111 677.880371,1992.404297 
	C658.884644,2008.067017 639.966309,2023.832886 621.346436,2039.938843 
	C610.795105,2049.065674 599.928040,2058.265869 593.588623,2071.018555 
	C579.286865,2099.788330 572.455627,2130.510010 571.947144,2162.548340 
	C571.561096,2186.873047 572.420593,2211.224854 571.709595,2235.534912 
	C571.053894,2257.955811 575.366821,2279.116943 583.772095,2299.738525 
	C585.873047,2304.893066 587.425293,2310.586182 587.710205,2316.110107 
	C588.807617,2337.389404 589.288940,2358.700684 590.000000,2380.000000 
z"/>
<path fill="#030303" opacity="1.000000" stroke="none" 
	d="
M590.937317,2380.000000 
	C589.288940,2358.700684 588.807617,2337.389404 587.710205,2316.110107 
	C587.425293,2310.586182 585.873047,2304.893066 583.772095,2299.738525 
	C575.366821,2279.116943 571.053894,2257.955811 571.709595,2235.534912 
	C572.420593,2211.224854 571.561096,2186.873047 571.947144,2162.548340 
	C572.455627,2130.510010 579.286865,2099.788330 593.588623,2071.018555 
	C599.928040,2058.265869 610.795105,2049.065674 621.346436,2039.938843 
	C639.966309,2023.832886 658.884644,2008.067017 677.880371,1992.404297 
	C682.204041,1988.839111 687.221741,1986.039673 692.144409,1983.289429 
	C721.191101,1967.061157 752.815979,1957.962891 784.904968,1950.318726 
	C821.541565,1941.591309 858.869446,1936.907471 896.080688,1931.444580 
	C916.134155,1928.500488 935.768799,1922.724976 955.814880,1919.703247 
	C981.008057,1915.905762 1004.681824,1907.132202 1028.652710,1899.375244 
	C1042.693481,1894.831665 1053.837646,1886.710449 1057.072876,1870.345215 
	C1059.133301,1859.921753 1062.047241,1849.837402 1061.711670,1838.988281 
	C1061.217285,1823.005127 1061.288696,1806.988525 1061.663452,1790.999023 
	C1062.056519,1774.228638 1055.370972,1760.008301 1046.762207,1746.375732 
	C1045.557251,1744.467529 1043.634155,1742.936157 1041.831665,1741.495483 
	C1034.485840,1735.623901 1029.293823,1728.622681 1029.761108,1718.378540 
	C1015.424438,1711.998413 1002.718079,1703.550537 992.421936,1691.957886 
	C984.925293,1683.517578 977.935730,1674.627197 970.709961,1665.945801 
	C967.943604,1662.622437 965.370178,1659.101685 962.327576,1656.051147 
	C950.702209,1644.395264 942.098145,1630.659668 933.455139,1616.754395 
	C924.882019,1602.961426 914.409912,1590.362305 905.114868,1577.000122 
	C897.528259,1566.093994 889.310364,1555.390259 883.530884,1543.543823 
	C879.428406,1535.135010 878.517029,1525.036743 877.005066,1515.561279 
	C876.392944,1511.725098 875.845947,1508.439697 872.651672,1506.094116 
	C865.367798,1500.745239 870.178589,1490.618408 863.922363,1484.628540 
	C857.909485,1478.871704 856.869446,1471.142212 858.222290,1463.282471 
	C858.923828,1459.206665 857.094238,1457.050293 854.251221,1454.992065 
	C846.261169,1449.208130 837.164978,1446.257568 827.641541,1444.182251 
	C791.265076,1436.255249 754.334656,1435.637085 717.353210,1435.625854 
	C671.357910,1435.611938 625.362427,1435.557495 579.367249,1435.638306 
	C525.293701,1435.733276 471.407990,1432.439087 418.087891,1423.571899 
	C374.069092,1416.251709 330.710876,1405.660034 289.449219,1388.044312 
	C255.571030,1373.580811 226.578812,1352.287720 201.551437,1325.229248 
	C189.639191,1312.350342 180.125046,1298.085815 172.282501,1282.568604 
	C166.807663,1271.736328 163.401260,1260.146484 163.180557,1248.062500 
	C162.853363,1230.146362 162.969482,1212.184937 163.977341,1194.303711 
	C164.294144,1188.682861 167.258713,1182.724365 170.420685,1177.831055 
	C188.577652,1149.732178 212.154388,1126.794189 239.949539,1108.411621 
	C283.597412,1079.544922 332.569061,1065.153564 383.828217,1058.052246 
	C417.790253,1053.347290 451.980957,1050.311157 485.979248,1045.842773 
	C507.084015,1043.069092 528.018311,1039.001465 549.033325,1035.540161 
	C559.802246,1033.766602 569.123535,1028.451172 578.116760,1022.846069 
	C588.132324,1016.603821 588.907471,1004.731567 579.909668,997.168701 
	C566.172302,985.622070 552.238037,974.280151 537.958618,963.414856 
	C515.960083,946.676086 493.023956,931.122498 471.576813,913.721130 
	C455.090088,900.344604 439.455353,885.737854 429.820374,865.934692 
	C424.032806,854.039307 420.312225,841.666687 419.647827,828.662170 
	C418.934845,814.706543 419.522156,800.677673 419.737946,786.683838 
	C419.885162,777.134460 422.982880,768.573486 428.119049,760.424133 
	C443.943939,735.315491 465.426788,716.289124 490.689056,701.285828 
	C517.424561,685.407715 545.253601,671.714600 575.990295,665.780640 
	C594.229797,662.259399 612.855347,659.721741 631.393799,659.017456 
	C655.641113,658.096252 680.065979,658.280273 704.233826,660.229309 
	C717.902283,661.331665 731.749756,665.593262 744.553406,670.800232 
	C764.542725,678.929260 783.716553,689.064392 803.229370,698.363403 
	C805.828430,699.602051 808.389038,700.921448 811.668762,702.552185 
	C812.733093,697.839478 809.792664,695.638672 808.119080,693.108337 
	C799.293701,679.764893 790.992188,666.200378 785.591309,650.981873 
	C779.062866,632.586121 775.691956,613.724304 775.707153,594.226379 
	C775.719910,577.894714 775.704590,561.563110 775.679138,545.231445 
	C775.661316,533.766846 777.438416,522.649963 782.488831,512.267944 
	C789.321838,498.221466 795.414734,483.705170 803.480286,470.393311 
	C816.088623,449.583679 833.901001,433.435394 854.203430,420.182343 
	C892.449707,395.215851 933.652161,376.940674 978.401489,367.379730 
	C988.737610,365.171387 999.578003,365.235077 1010.203918,364.510925 
	C1015.180603,364.171783 1020.202026,364.330292 1025.197998,364.461914 
	C1045.068848,364.985291 1065.193237,361.911987 1085.845093,369.913208 
	C1085.845093,360.162384 1086.477417,351.645233 1085.706909,343.256927 
	C1084.317261,328.129822 1088.790894,314.766266 1097.353149,302.878357 
	C1119.790405,271.726624 1143.928345,241.944763 1173.809448,217.508728 
	C1206.144165,191.066238 1242.894165,174.363098 1284.407227,167.623169 
	C1316.958130,162.338318 1349.609497,163.292068 1382.134033,164.920151 
	C1402.163208,165.922745 1420.410034,175.341629 1437.847046,185.509567 
	C1470.840698,204.748871 1494.791382,233.221786 1517.890503,262.661224 
	C1536.010498,285.754883 1546.585938,311.976624 1550.619873,340.935455 
	C1551.122559,344.543610 1551.550903,348.195770 1551.577637,351.830719 
	C1551.692871,367.494934 1551.405151,383.165619 1551.749146,398.823303 
	C1551.950806,407.996490 1550.343140,416.613068 1547.120361,425.162354 
	C1538.319458,448.509155 1529.205566,471.912842 1525.786011,496.716827 
	C1523.662964,512.117126 1524.320190,527.909241 1523.948608,543.530701 
	C1523.906494,545.306030 1524.916382,547.404419 1526.062622,548.862244 
	C1534.335815,559.384827 1545.515503,563.605591 1558.586548,562.834106 
	C1560.951782,562.694519 1563.592651,561.052307 1565.435913,559.369568 
	C1571.582275,553.758545 1577.547485,547.934326 1583.361084,541.976196 
	C1609.942627,514.734680 1633.724121,485.183533 1656.156860,454.459137 
	C1671.481812,433.469849 1690.508545,416.527863 1714.099731,404.980499 
	C1725.853882,399.227112 1737.860596,394.277588 1750.960815,393.170746 
	C1777.207397,390.953125 1803.603760,389.191772 1829.692383,393.725800 
	C1855.208130,398.160309 1877.672241,410.621246 1896.799561,427.345886 
	C1912.326538,440.922485 1922.723022,458.526154 1920.518433,481.075073 
	C1919.647705,489.981598 1920.386230,499.058228 1920.581543,508.053253 
	C1920.856689,520.718933 1918.149658,532.524780 1910.967163,543.112854 
	C1897.513184,562.945557 1884.015259,582.748352 1870.572998,602.588928 
	C1847.788330,636.218384 1824.990601,669.838989 1802.281860,703.519653 
	C1789.815308,722.009399 1777.517212,740.612671 1765.148560,759.168335 
	C1763.202271,762.087891 1761.284058,765.026306 1758.276978,769.588135 
	C1762.813721,769.588135 1765.327515,769.588135 1767.841309,769.588135 
	C1782.173218,769.588135 1796.505371,769.652039 1810.836792,769.576477 
	C1858.969116,769.322815 1904.505127,780.858948 1947.917114,800.842041 
	C1966.996338,809.624573 1985.094604,820.478577 1998.514282,837.379578 
	C2008.330811,849.742432 2013.969238,863.648621 2013.567383,879.713562 
	C2013.392456,886.707886 2012.903931,893.777832 2013.654053,900.694519 
	C2015.191895,914.877563 2010.608887,926.827026 2002.199585,937.856812 
	C1988.396484,955.961243 1972.947998,972.431580 1955.041626,986.551575 
	C1932.177979,1004.580688 1907.561401,1019.680542 1880.858887,1031.363037 
	C1866.281982,1037.740601 1851.788574,1044.309448 1835.046509,1051.778442 
	C1845.865723,1053.310059 1854.476074,1054.938110 1863.162231,1055.680420 
	C1887.125854,1057.728149 1910.729492,1061.904663 1933.865234,1068.246338 
	C1967.529175,1077.473999 1996.602905,1094.307251 2017.045898,1123.398315 
	C2028.515137,1139.719238 2035.313843,1158.400146 2036.473877,1178.259766 
	C2037.559326,1196.842529 2036.361694,1215.559692 2036.140869,1234.217407 
	C2036.056152,1241.374756 2033.745239,1247.761963 2030.311768,1254.078491 
	C2012.743774,1286.397705 1985.627319,1306.321655 1950.592896,1315.929199 
	C1937.181274,1319.606812 1923.557861,1322.511719 1908.643311,1326.102905 
	C1911.528931,1327.937012 1913.461548,1329.302490 1915.515991,1330.449951 
	C1933.020020,1340.226074 1949.851196,1350.919800 1963.563843,1365.827759 
	C1981.572144,1385.406250 1989.492798,1408.850830 1989.863647,1435.124634 
	C1989.976440,1443.122314 1989.613281,1451.135498 1989.971313,1459.119019 
	C1990.616089,1473.492188 1984.040283,1483.966797 1973.005615,1492.265381 
	C1960.271973,1501.841919 1945.484619,1507.243652 1930.545410,1511.710449 
	C1890.805054,1523.592285 1850.140625,1530.233276 1808.584351,1530.850220 
	C1803.585938,1530.924438 1798.575928,1530.656128 1793.587524,1530.891479 
	C1752.171387,1532.844971 1711.959229,1525.554810 1672.415161,1514.328735 
	C1656.468628,1509.801636 1641.217773,1502.876709 1625.447510,1497.655640 
	C1616.666138,1494.748169 1607.579102,1492.176758 1598.434570,1491.074707 
	C1578.952393,1488.727051 1559.340942,1487.456421 1539.787109,1485.693481 
	C1536.545410,1485.401001 1533.327026,1484.851562 1529.937988,1484.399536 
	C1533.421631,1501.702026 1536.918701,1518.484863 1540.103027,1535.326782 
	C1540.837646,1539.211914 1540.622314,1543.299316 1540.635254,1547.294312 
	C1540.686890,1563.292480 1540.422485,1579.295166 1540.715332,1595.288208 
	C1541.079834,1615.202881 1535.524170,1633.332397 1525.473267,1650.323120 
	C1522.434570,1655.459961 1519.796143,1660.836182 1517.032227,1666.132690 
	C1510.908081,1677.868774 1501.476929,1686.751099 1492.094360,1695.782349 
	C1486.851196,1700.829468 1482.858643,1707.167725 1477.666748,1712.278076 
	C1467.462524,1722.321777 1456.792603,1731.869995 1444.118652,1738.869751 
	C1440.930298,1740.630859 1438.010376,1742.878418 1435.249634,1744.714478 
	C1438.725708,1752.765503 1442.642822,1760.435547 1445.393799,1768.503296 
	C1451.014893,1784.986816 1447.061523,1793.014282 1430.127197,1800.273071 
	C1427.018311,1817.022949 1419.963257,1833.410522 1421.358643,1851.532349 
	C1422.098511,1861.140991 1422.385376,1870.957642 1421.278809,1880.494873 
	C1419.634644,1894.664307 1427.066895,1903.748657 1436.683838,1911.803223 
	C1454.908081,1927.066772 1476.411987,1935.976807 1499.084229,1941.944092 
	C1532.645386,1950.777222 1566.839478,1955.924438 1601.491455,1958.236450 
	C1612.418335,1958.965576 1623.227905,1961.347778 1634.150391,1962.277588 
	C1645.425537,1963.237549 1656.784424,1963.944458 1668.085938,1963.718140 
	C1697.819336,1963.122803 1726.075684,1970.385986 1754.386475,1978.228882 
	C1786.922974,1987.242554 1814.949707,2003.845459 1839.164551,2026.946167 
	C1851.959106,2039.152100 1859.672363,2054.167480 1862.756592,2072.022461 
	C1867.568726,2099.879639 1865.611450,2127.864502 1865.990479,2155.802002 
	C1866.058960,2160.852051 1864.183960,2166.314209 1861.907104,2170.947754 
	C1846.930176,2201.424805 1830.981323,2231.362305 1811.497925,2259.296143 
	C1808.899048,2263.022461 1807.430664,2267.650635 1805.971924,2272.038574 
	C1800.420654,2288.736328 1794.983765,2305.473877 1789.749634,2322.273193 
	C1788.483765,2326.336670 1788.158691,2330.692871 1787.333374,2335.291748 
	C1788.810059,2336.006836 1789.878296,2336.801514 1791.062866,2337.057129 
	C1814.575684,2342.128418 1823.440308,2351.857666 1825.783203,2375.275879 
	C1825.882324,2376.267578 1825.953369,2377.261719 1826.018799,2379.127441 
	C1813.291138,2380.000000 1800.582397,2380.000000 1786.646118,2379.394531 
	C1781.106567,2374.422852 1777.494995,2376.661621 1774.000000,2380.000000 
	C1769.258911,2380.000000 1764.517700,2380.000000 1758.643311,2379.365479 
	C1749.161499,2374.902344 1747.522461,2365.818848 1742.560181,2359.351807 
	C1735.630127,2350.320312 1736.461182,2342.283936 1743.630859,2333.080566 
	C1745.389893,2330.822510 1747.364380,2328.148926 1747.714111,2325.467529 
	C1750.833374,2301.549072 1760.357178,2279.561035 1768.111694,2257.061523 
	C1770.574463,2249.916016 1773.808838,2242.894043 1777.681030,2236.407227 
	C1784.817505,2224.451904 1793.279541,2213.268066 1800.102295,2201.150635 
	C1808.698364,2185.883789 1816.204956,2170.003662 1824.756104,2153.739502 
	C1825.516846,2136.355225 1825.734863,2119.619629 1825.821411,2102.883545 
	C1825.827393,2101.718018 1824.858032,2100.547119 1824.377197,2098.524414 
	C1824.315674,2095.008545 1824.340942,2092.335938 1824.101929,2089.687500 
	C1822.849243,2075.806396 1819.379883,2062.878418 1808.211914,2053.312988 
	C1793.973511,2041.117920 1778.542603,2030.781494 1761.258667,2023.387817 
	C1758.410889,2022.169800 1755.313477,2021.535522 1753.827515,2021.084961 
	C1750.774658,2028.032227 1749.183838,2034.711426 1745.376343,2039.697754 
	C1736.729736,2051.020996 1726.644165,2061.235596 1717.793091,2072.415039 
	C1708.095337,2084.663818 1699.716187,2097.984131 1689.688354,2109.936279 
	C1678.152954,2123.685059 1665.509888,2136.511230 1653.222046,2149.620361 
	C1638.554199,2165.267822 1625.112915,2181.284668 1621.416016,2203.713867 
	C1619.293701,2216.590576 1603.341187,2221.854004 1591.735962,2214.894287 
	C1579.503296,2207.558350 1575.808716,2179.419434 1585.765869,2169.211670 
	C1586.923340,2168.024902 1588.378418,2167.126465 1589.518921,2165.926270 
	C1591.103394,2164.258545 1592.888062,2162.629639 1593.952881,2160.643799 
	C1604.489868,2140.992920 1620.218140,2125.654541 1635.423340,2109.798096 
	C1644.845825,2099.972168 1653.727783,2089.580811 1662.284180,2078.984375 
	C1670.848877,2068.377686 1678.554199,2057.081787 1686.915161,2046.304565 
	C1696.202026,2034.333984 1705.804321,2022.608032 1715.503662,2010.482910 
	C1713.778320,2009.791992 1712.034302,2008.658447 1710.175537,2008.420288 
	C1698.653687,2006.944824 1687.137573,2005.176025 1675.559937,2004.442383 
	C1656.983276,2003.265137 1638.341309,2003.117554 1619.764526,2001.942261 
	C1609.527588,2001.294800 1599.398071,1999.046509 1589.163452,1998.237305 
	C1578.805786,1997.418701 1577.844604,1998.679688 1574.001709,2008.376221 
	C1562.729858,2036.816650 1548.133789,2062.289795 1522.341675,2081.166016 
	C1496.369385,2100.174072 1469.188965,2116.511719 1439.978760,2129.628174 
	C1433.098633,2132.717529 1425.527222,2134.421631 1418.132080,2136.161133 
	C1412.033691,2137.595703 1405.744019,2138.285400 1399.507935,2139.051025 
	C1385.346680,2140.790039 1371.175659,2143.678955 1356.991821,2143.782715 
	C1307.417114,2144.145508 1257.767212,2145.641113 1208.349487,2140.005859 
	C1191.559204,2138.090820 1174.663940,2136.246094 1158.177490,2132.694336 
	C1123.296753,2125.179199 1094.251465,2105.415527 1065.181396,2086.027344 
	C1058.831299,2081.791992 1052.779053,2077.047852 1046.935303,2072.127686 
	C1030.681763,2058.442627 1014.451538,2044.720825 998.531189,2030.652344 
	C990.067688,2023.173340 982.579041,2014.811890 976.526184,2005.027344 
	C968.882996,1992.672363 959.825806,1981.194946 952.114868,1968.878052 
	C949.297485,1964.377686 946.557373,1962.765015 941.690735,1963.942261 
	C935.880127,1965.347900 930.101318,1967.009033 924.210815,1967.937988 
	C897.981934,1972.074341 871.711243,1975.943848 845.468628,1979.994385 
	C811.251160,1985.275757 777.550476,1992.744629 744.807617,2004.168945 
	C742.921509,2004.827148 741.185852,2005.916748 740.439575,2006.284058 
	C746.332031,2008.685059 752.946594,2010.212280 758.230591,2013.735107 
	C781.277771,2029.100586 795.734253,2051.997559 810.058167,2074.871338 
	C811.968018,2077.921143 813.198669,2081.503906 814.203857,2084.995361 
	C822.287598,2113.072021 830.332581,2141.161133 838.146423,2169.313477 
	C839.454956,2174.027832 841.134460,2177.186523 846.054688,2179.514160 
	C860.339478,2186.271484 862.520691,2202.199219 851.072205,2213.228271 
	C847.006165,2217.145264 842.450500,2220.567383 838.012207,2224.081299 
	C830.629456,2229.926270 822.445984,2232.158936 813.887207,2227.260254 
	C805.885925,2222.680664 801.374695,2215.821533 801.795532,2205.937744 
	C802.336975,2193.221924 800.041992,2180.847900 796.152710,2168.693604 
	C793.119324,2159.214111 790.870972,2149.486816 788.087097,2139.923828 
	C783.542480,2124.312500 778.871948,2108.737549 774.172729,2093.171875 
	C773.704163,2091.619873 772.846619,2090.107178 771.871460,2088.798340 
	C764.511108,2078.920166 757.266968,2068.945068 749.592285,2059.314453 
	C745.029236,2053.588867 739.628784,2049.195557 731.922058,2047.210815 
	C719.316833,2043.964600 714.042480,2032.361938 718.256165,2019.767090 
	C718.608643,2018.713257 718.911377,2017.642700 719.441406,2015.914185 
	C706.652100,2019.385376 698.512085,2028.143555 689.533264,2035.328979 
	C675.257629,2046.753418 661.455078,2058.794434 647.834229,2071.000732 
	C641.429077,2076.740479 634.215454,2082.572266 630.317139,2089.925537 
	C619.466858,2110.392822 613.582031,2132.515137 613.289429,2156.604980 
	C612.530151,2158.552246 612.077393,2159.851074 612.075134,2161.150391 
	C612.024719,2190.113770 611.987976,2219.077393 612.085938,2248.040527 
	C612.093323,2250.218994 613.128052,2252.393799 613.624512,2255.368896 
	C614.226013,2259.402588 614.618103,2262.722168 615.599609,2265.857422 
	C618.966919,2276.613037 623.844238,2287.081299 625.720520,2298.072998 
	C628.327942,2313.348389 628.811035,2328.992432 630.051697,2344.490723 
	C630.364014,2348.391846 630.098450,2352.339111 630.098450,2355.869629 
	C646.761841,2361.982910 650.103394,2366.191650 650.000000,2380.000000 
	C630.624878,2380.000000 611.249756,2380.000000 590.937317,2380.000000 
M1389.517456,1766.809082 
	C1368.807373,1774.673828 1347.659790,1779.497803 1325.217529,1778.758057 
	C1303.247437,1778.034058 1281.234619,1778.613525 1259.240601,1778.597046 
	C1235.236084,1778.578857 1211.371704,1776.621826 1187.831177,1771.989868 
	C1175.458374,1769.555420 1163.303101,1765.954590 1151.125000,1762.606201 
	C1132.368652,1757.449219 1113.677124,1752.056519 1094.142944,1746.533325 
	C1095.009521,1749.299438 1095.807251,1751.388306 1096.314087,1753.545532 
	C1098.202026,1761.580933 1101.282471,1769.591919 1101.577881,1777.697266 
	C1102.414673,1800.658325 1101.961914,1823.663208 1102.274170,1846.647461 
	C1102.557495,1867.509277 1095.717896,1886.455444 1087.040894,1904.902954 
	C1085.134766,1908.955566 1082.168213,1912.509399 1079.405518,1916.727173 
	C1166.640503,1946.574829 1238.978149,1996.803711 1298.970703,2065.607666 
	C1302.036377,2061.870117 1304.717773,2058.473877 1307.533203,2055.193115 
	C1314.459229,2047.121582 1320.474609,2037.882202 1328.652466,2031.367432 
	C1339.218384,2022.950073 1347.574951,2012.759155 1356.597656,2003.036621 
	C1360.214966,1999.138550 1363.869751,1995.185059 1367.999268,1991.869629 
	C1379.947266,1982.277466 1392.745728,1973.992798 1406.771118,1967.652222 
	C1413.793457,1964.477539 1420.605713,1960.838013 1428.258179,1957.038818 
	C1423.739624,1953.522827 1420.504272,1950.633179 1416.916504,1948.281250 
	C1404.678589,1940.259277 1396.061523,1928.926270 1387.635986,1917.300659 
	C1382.527466,1910.251465 1380.255615,1902.619507 1380.328491,1893.992676 
	C1380.474976,1876.665283 1380.143311,1859.331299 1380.486938,1842.009399 
	C1380.624023,1835.096069 1381.256714,1828.006348 1383.001709,1821.347534 
	C1387.563110,1803.941406 1391.207764,1786.427368 1393.228271,1767.909058 
	C1392.494019,1767.479126 1391.759888,1767.049194 1389.517456,1766.809082 
M1179.634521,1431.238525 
	C1174.409790,1433.343140 1171.137695,1437.300171 1168.604370,1442.210571 
	C1166.787720,1445.731567 1164.633301,1449.151978 1162.171997,1452.254517 
	C1146.305054,1472.255249 1124.125732,1480.679443 1099.983032,1481.403320 
	C1061.131104,1482.568359 1022.002258,1484.379639 983.776917,1474.008789 
	C961.329041,1467.918701 938.552795,1462.593872 921.412720,1445.055298 
	C920.694641,1444.320435 919.412354,1444.136841 917.805786,1443.442993 
	C917.805786,1466.314941 917.780640,1488.296387 917.843079,1510.277588 
	C917.849609,1512.585815 918.316406,1514.901001 918.665039,1517.198486 
	C920.755066,1530.971924 928.875854,1541.635620 937.479919,1551.719360 
	C949.854187,1566.221558 960.663940,1581.706665 970.153748,1598.198975 
	C973.797852,1604.532104 977.427856,1611.001465 982.007629,1616.642944 
	C993.952881,1631.357910 1006.411987,1645.655884 1018.681213,1660.107422 
	C1025.661011,1668.328613 1033.758667,1675.039795 1043.737549,1679.462769 
	C1058.626587,1686.062500 1073.243652,1693.297974 1088.268066,1699.563477 
	C1100.200195,1704.539429 1112.412476,1708.985474 1124.782837,1712.734375 
	C1141.958008,1717.939575 1159.551392,1721.776611 1176.685547,1727.101196 
	C1199.158813,1734.085083 1222.276367,1736.727905 1245.512207,1737.477661 
	C1275.808472,1738.455078 1306.153687,1737.971313 1336.477783,1737.975952 
	C1340.091187,1737.976562 1343.758667,1737.349731 1347.309448,1736.587158 
	C1367.254395,1732.304077 1386.026489,1725.286011 1403.937012,1715.177734 
	C1424.715210,1703.451050 1444.391968,1690.829468 1458.597168,1671.140991 
	C1459.557739,1669.809448 1460.810669,1668.614502 1462.131226,1667.628662 
	C1477.387207,1656.239136 1485.467407,1639.617798 1493.404175,1623.225708 
	C1497.065552,1615.663574 1499.355591,1606.758789 1499.653442,1598.369995 
	C1500.667725,1569.805786 1501.231201,1541.098267 1493.970215,1513.101685 
	C1490.319092,1499.023682 1485.450928,1485.260620 1481.092041,1471.368042 
	C1480.696655,1470.107910 1480.158203,1468.834961 1479.419189,1467.750000 
	C1474.598999,1460.673828 1469.704956,1453.647949 1465.008179,1446.855835 
	C1459.684570,1449.141602 1454.166992,1451.396118 1448.743896,1453.858643 
	C1425.444702,1464.438232 1400.756348,1470.135498 1375.468628,1471.498047 
	C1347.882935,1472.984375 1320.173584,1472.094116 1292.521729,1472.492920 
	C1285.646362,1472.591919 1279.402710,1471.348145 1273.434082,1467.895508 
	C1267.308594,1464.352295 1260.948486,1461.214844 1254.495728,1457.796265 
	C1252.681763,1466.272217 1254.624756,1472.496582 1259.318970,1478.963867 
	C1278.665649,1505.618530 1278.031250,1505.787842 1278.434448,1536.526855 
	C1278.599731,1549.125244 1271.887451,1560.154175 1258.919556,1564.682373 
	C1254.548340,1566.208618 1249.980713,1567.813477 1245.429565,1568.066772 
	C1229.498413,1568.953003 1213.520264,1568.998169 1197.589722,1569.890869 
	C1187.270874,1570.469116 1177.795166,1567.622314 1168.462524,1564.083008 
	C1157.857422,1560.061157 1152.978027,1549.603638 1156.143555,1538.860352 
	C1159.120850,1528.755493 1169.947998,1522.269531 1180.641479,1525.720337 
	C1192.091064,1529.415283 1203.611938,1528.905884 1215.217651,1528.898438 
	C1222.472778,1528.893799 1229.727661,1528.593628 1238.111572,1528.400024 
	C1237.438232,1524.376343 1237.692383,1521.165527 1236.364868,1518.868896 
	C1232.712524,1512.550659 1228.772461,1506.319580 1224.258789,1500.596191 
	C1216.988647,1491.377686 1212.431030,1481.407227 1212.908936,1469.456055 
	C1213.038818,1466.208130 1212.928589,1462.950684 1212.928589,1459.141724 
	C1207.984741,1458.854004 1204.046997,1458.775146 1200.143677,1458.368408 
	C1190.197510,1457.331665 1183.041382,1450.059204 1182.153198,1440.089233 
	C1181.918213,1437.452881 1182.129761,1434.776489 1182.984131,1431.796143 
	C1182.311279,1431.477295 1181.638550,1431.158447 1179.634521,1431.238525 
M626.248657,1019.850586 
	C622.956848,1037.415527 612.224121,1049.494385 597.782715,1059.035645 
	C578.645386,1071.679443 556.934692,1076.795898 534.814697,1079.892456 
	C493.617432,1085.659668 452.347687,1091.004272 411.008301,1095.633545 
	C371.388977,1100.070190 332.730927,1108.067749 296.139343,1124.128052 
	C260.333344,1139.843384 230.589767,1163.494873 207.806015,1195.434082 
	C205.279755,1198.975464 203.716507,1203.909302 203.528778,1208.275757 
	C203.042862,1219.578247 203.544922,1230.925049 203.710876,1242.253174 
	C203.845490,1251.440430 206.679428,1259.844727 210.764374,1268.023071 
	C221.610184,1289.737061 238.704849,1306.080078 256.924622,1321.235962 
	C280.586182,1340.918457 308.366974,1352.909424 337.428864,1362.240479 
	C406.889801,1384.542603 478.519165,1392.915405 551.026672,1394.115723 
	C619.999573,1395.257568 689.006653,1394.292847 757.982178,1395.342285 
	C779.860474,1395.675171 801.729980,1399.149170 823.515747,1401.884766 
	C833.987244,1403.199707 844.254517,1406.140625 854.596619,1408.341431 
	C859.203186,1389.147827 862.102722,1386.631958 884.031372,1383.295654 
	C884.559448,1379.433960 885.534607,1375.268311 885.622681,1371.083984 
	C885.854187,1360.090088 885.436646,1349.079712 885.779236,1338.091553 
	C886.068848,1328.804199 883.923645,1320.144165 879.574646,1312.191162 
	C873.205566,1300.543945 866.211731,1289.237915 859.471741,1277.793945 
	C856.944031,1273.501953 854.324280,1269.263550 851.845947,1264.943481 
	C845.725159,1254.274536 839.320190,1243.747192 833.730957,1232.804565 
	C831.228943,1227.906006 829.087097,1222.155029 829.059326,1216.779175 
	C828.951050,1195.814453 829.454346,1174.832764 830.310181,1153.881104 
	C831.042786,1135.948364 838.268921,1119.644897 844.701355,1103.251465 
	C846.113464,1099.652832 848.724487,1096.253784 851.517029,1093.509399 
	C878.077454,1067.406738 910.158081,1053.672607 947.275330,1052.233643 
	C964.248657,1051.575684 981.276917,1051.777710 998.265442,1052.194824 
	C1028.979248,1052.949097 1059.442261,1056.710571 1089.311890,1063.653442 
	C1105.751587,1067.474609 1121.670410,1073.743774 1137.578003,1079.579712 
	C1149.413208,1083.921753 1161.034180,1088.962646 1172.412598,1094.399292 
	C1181.617065,1098.797241 1190.317627,1104.249634 1199.196777,1109.209229 
	C1202.845947,1105.718994 1205.888184,1102.099609 1209.592896,1099.384277 
	C1229.836182,1084.546387 1251.776001,1072.674561 1275.301514,1064.015503 
	C1282.014526,1061.544678 1289.540771,1060.508667 1296.739502,1060.287109 
	C1313.722046,1059.764282 1330.751221,1059.622803 1347.724731,1060.280518 
	C1363.321167,1060.884766 1378.988892,1061.933472 1394.410522,1064.228271 
	C1416.675415,1067.541138 1438.198730,1074.332764 1456.257080,1088.081909 
	C1473.939453,1101.544800 1491.756958,1115.231934 1504.484497,1134.065063 
	C1510.447754,1142.889038 1516.822998,1151.454346 1522.405151,1160.510498 
	C1527.532471,1168.828491 1530.359375,1177.973999 1530.099609,1188.020508 
	C1529.798096,1199.678467 1530.597168,1211.384033 1529.907593,1223.008911 
	C1528.560425,1245.717041 1531.941406,1269.213867 1519.730835,1290.307739 
	C1519.244263,1291.148438 1519.096680,1292.197876 1518.856079,1293.166382 
	C1516.621460,1302.164795 1514.756104,1311.273682 1512.088867,1320.141479 
	C1508.552734,1331.897583 1504.342773,1343.449829 1500.546631,1355.130005 
	C1499.836548,1357.314941 1499.348267,1359.693970 1499.373535,1361.976562 
	C1499.565186,1379.298340 1499.423462,1396.644897 1500.354370,1413.931396 
	C1501.169434,1429.069946 1509.149170,1441.169678 1519.060913,1452.564209 
	C1525.171387,1445.508789 1532.351440,1443.338989 1540.977661,1444.241333 
	C1560.177368,1446.250122 1579.402466,1448.076172 1598.649048,1449.561401 
	C1616.823730,1450.963989 1633.748169,1456.729248 1650.672119,1462.934814 
	C1666.263184,1468.651855 1681.828735,1474.842407 1697.914673,1478.704102 
	C1718.257446,1483.587891 1739.000366,1488.414185 1759.774780,1489.556152 
	C1803.746094,1491.973755 1847.677612,1489.920410 1890.906616,1479.965942 
	C1908.469360,1475.921631 1925.703857,1471.037476 1942.115356,1463.441528 
	C1946.918457,1461.218506 1949.305908,1458.232544 1948.895386,1452.663330 
	C1948.333130,1445.032227 1948.386597,1437.353027 1948.261963,1429.693115 
	C1947.962646,1411.308716 1939.358276,1396.992554 1925.351440,1386.147217 
	C1915.398804,1378.440918 1904.802368,1371.187622 1893.560059,1365.615112 
	C1877.194946,1357.502808 1860.003906,1351.051880 1843.135620,1343.962402 
	C1837.612549,1341.641113 1831.830444,1339.880371 1826.462646,1337.257568 
	C1817.144775,1332.704224 1811.859131,1321.123779 1814.053345,1311.167969 
	C1816.050171,1302.107300 1825.047119,1294.741699 1834.853638,1293.803101 
	C1847.112671,1292.629639 1859.406738,1291.620117 1871.585083,1289.848633 
	C1896.941772,1286.159790 1922.329346,1282.471191 1946.754517,1274.249756 
	C1965.385986,1267.978271 1980.330200,1256.953491 1990.972412,1240.218750 
	C1994.297485,1234.989990 1996.123413,1229.639771 1995.983643,1223.351440 
	C1995.717041,1211.358521 1996.082764,1199.352539 1995.894165,1187.356567 
	C1995.612427,1169.422363 1989.795044,1153.435791 1977.941284,1139.895386 
	C1961.936523,1121.613281 1940.856567,1112.127808 1917.891724,1106.311279 
	C1886.147583,1098.271118 1853.602295,1095.498779 1821.152344,1092.179810 
	C1799.953491,1090.011719 1778.713989,1088.183228 1757.572021,1085.562378 
	C1752.527466,1084.936890 1747.278809,1082.512573 1743.032104,1079.594238 
	C1733.445435,1073.006470 1731.790771,1060.949219 1738.459839,1051.360474 
	C1742.189453,1045.998047 1747.132202,1042.316528 1753.507690,1040.426636 
	C1759.881348,1038.537109 1766.320190,1036.667725 1772.405029,1034.036865 
	C1805.098755,1019.901917 1837.904175,1005.996216 1870.260132,991.117798 
	C1905.140259,975.078613 1935.931641,953.245239 1961.179565,923.895935 
	C1968.892212,914.930603 1974.423462,905.856384 1972.406738,893.473755 
	C1971.772217,889.577393 1972.043335,885.469421 1972.359863,881.494995 
	C1973.113647,872.031982 1969.645142,864.075684 1962.366821,858.675903 
	C1952.257080,851.175659 1941.928467,843.554810 1930.670776,838.093140 
	C1893.071167,819.851440 1852.971558,811.152710 1811.270996,810.332092 
	C1785.282959,809.820618 1759.276245,810.314758 1733.278687,810.203918 
	C1718.309204,810.140137 1710.905762,802.523376 1710.002197,787.512329 
	C1709.245483,774.942078 1713.074097,763.923767 1719.898560,753.658752 
	C1735.937500,729.533691 1751.801147,705.290710 1767.998169,681.272400 
	C1792.020386,645.650635 1816.278320,610.187927 1840.418213,574.645569 
	C1852.017700,557.567139 1863.553223,540.445190 1875.168701,523.377747 
	C1878.671265,518.231384 1880.180664,512.719116 1879.878784,506.430695 
	C1879.495605,498.448578 1879.007690,490.355194 1879.886719,482.456909 
	C1881.105347,471.505829 1876.336426,463.134430 1868.652832,457.144958 
	C1854.433960,446.061127 1838.982300,436.066345 1820.663696,433.914490 
	C1805.201172,432.098114 1789.452148,432.567932 1773.825317,432.336670 
	C1745.884155,431.923187 1722.544922,442.904907 1703.455078,462.665375 
	C1694.236084,472.208282 1685.953735,482.766785 1678.077759,493.476196 
	C1652.531006,528.213196 1624.031616,560.269958 1592.791504,589.966003 
	C1582.364624,599.877563 1570.965454,604.922546 1556.017456,604.208984 
	C1530.099121,602.971741 1508.994507,593.458008 1492.865234,573.061951 
	C1488.015503,566.929382 1484.002319,560.241089 1483.760864,552.352783 
	C1483.252441,535.747986 1482.157837,519.022278 1483.527466,502.530914 
	C1485.630615,477.204651 1493.125366,452.908234 1502.247437,429.249542 
	C1507.689941,415.134064 1511.736572,401.058655 1510.458618,385.640991 
	C1509.662842,376.040985 1510.364258,366.320923 1510.300049,356.655396 
	C1510.151855,334.368927 1504.126221,313.677338 1490.917480,295.811005 
	C1479.661621,280.586151 1466.790771,266.563477 1454.842285,251.840164 
	C1443.277466,237.589737 1428.468018,227.435318 1412.865845,218.380753 
	C1402.184082,212.181717 1390.820923,206.424652 1378.378540,205.924530 
	C1349.115112,204.748306 1319.803955,203.479996 1290.615967,208.068848 
	C1256.512573,213.430481 1226.609375,227.715057 1199.706055,249.024918 
	C1179.660278,264.903015 1164.157227,285.006317 1147.602417,304.125977 
	C1141.730347,310.907654 1136.375854,318.207214 1131.445190,325.704498 
	C1128.981445,329.450562 1126.653809,334.157318 1126.600342,338.458588 
	C1126.418335,353.096527 1127.378906,367.745361 1127.669556,382.394653 
	C1127.750610,386.475586 1129.403931,389.186432 1132.522461,391.613800 
	C1147.757935,403.472534 1156.789185,419.657318 1163.703247,437.211853 
	C1167.172852,446.020844 1168.205688,455.272308 1167.629517,464.691864 
	C1166.965454,475.552185 1160.362183,483.684692 1150.790649,485.578064 
	C1141.553101,487.405334 1132.995605,482.685699 1128.054810,473.151001 
	C1126.844360,470.815125 1125.693848,468.312378 1123.943481,466.414124 
	C1111.356689,452.763611 1102.604126,436.725494 1094.604126,420.178558 
	C1093.643188,418.190826 1092.402100,415.375183 1090.708618,414.861145 
	C1079.620361,411.495300 1068.506348,406.926300 1057.144775,406.042328 
	C1038.928467,404.625000 1020.499634,405.363190 1002.188049,405.991455 
	C993.286926,406.296844 984.205383,407.527496 975.623840,409.870941 
	C942.350159,418.957306 910.954529,432.599457 881.706787,450.948456 
	C864.326599,461.852173 848.591125,474.870087 837.848389,492.548492 
	C830.967712,503.871368 825.473022,516.130310 820.341797,528.382080 
	C817.841736,534.351257 816.740051,541.233398 816.502991,547.756775 
	C815.958496,562.735840 816.123413,577.752014 816.384094,592.746399 
	C816.747559,613.655273 820.258179,634.095337 830.995422,652.247864 
	C839.619751,666.828369 849.363953,680.857483 859.715454,694.279541 
	C875.581299,714.851746 892.465210,734.636292 908.776123,754.868652 
	C915.873840,763.672852 922.941284,772.534241 929.443909,781.776794 
	C936.707336,792.100708 935.518311,807.231140 927.515869,814.993835 
	C918.592041,823.650513 909.188416,823.928650 896.751953,816.058838 
	C877.568604,803.919495 859.615173,790.215576 842.506287,775.264160 
	C807.731201,744.874268 767.720032,723.153931 724.757385,706.908752 
	C714.331665,702.966492 702.837585,700.471619 691.723877,700.016052 
	C669.106750,699.088867 646.409119,699.781982 623.754944,700.275513 
	C615.129639,700.463318 606.477905,701.581116 597.931824,702.887512 
	C564.734680,707.962280 534.936279,721.897339 506.753387,739.369446 
	C490.825562,749.243958 476.836212,761.603149 465.999176,777.228760 
	C462.065155,782.901062 459.621918,788.655762 460.039398,795.763550 
	C460.488098,803.403259 460.267181,811.092407 460.109436,818.755310 
	C459.840424,831.825439 462.656372,844.295654 470.823914,854.400208 
	C478.932312,864.431335 487.763184,874.281738 497.834686,882.240417 
	C520.038513,899.786377 543.007874,916.393555 566.075867,932.806091 
	C584.042969,945.589417 600.670471,959.881409 616.778931,974.841858 
	C622.327698,979.994995 625.732300,986.376587 626.121460,995.840210 
	C626.254822,1003.335083 626.388184,1010.829956 626.248657,1019.850586 
M1307.117554,1100.913940 
	C1300.220215,1101.708862 1292.668579,1100.966919 1286.543091,1103.574829 
	C1264.547729,1112.939575 1242.415161,1122.386841 1225.805664,1140.765747 
	C1223.407959,1143.418945 1219.815308,1144.953491 1216.981934,1147.259155 
	C1208.474854,1154.181641 1199.066040,1153.559692 1189.554199,1150.385498 
	C1185.499512,1149.032227 1181.601685,1146.919189 1177.979980,1144.607178 
	C1158.825195,1132.379272 1138.168091,1123.658813 1117.104492,1115.108765 
	C1083.772705,1101.578857 1049.066406,1096.886963 1013.929443,1094.107788 
	C992.389343,1092.404175 970.646912,1092.956543 948.997009,1093.026245 
	C926.914429,1093.097412 907.484314,1101.487915 889.626038,1113.820190 
	C886.406311,1116.043701 882.800598,1118.930298 881.407654,1122.341553 
	C877.657532,1131.525391 873.254028,1140.983276 872.288879,1150.649780 
	C870.343506,1170.134888 870.466064,1189.829224 869.863708,1209.441162 
	C869.805359,1211.340088 870.211243,1213.510132 871.131897,1215.142578 
	C879.775085,1230.467407 887.811462,1246.212769 897.543945,1260.823730 
	C907.775085,1276.183472 916.068542,1292.300171 922.373169,1309.535278 
	C923.828491,1313.513794 924.878784,1317.640259 926.220215,1322.042603 
	C931.751038,1319.657349 936.609863,1317.549072 941.478821,1315.464722 
	C955.914062,1309.284790 970.752869,1304.178345 986.553955,1303.792358 
	C1005.534851,1303.328735 1024.540649,1303.760498 1043.533813,1303.970459 
	C1053.589478,1304.081665 1063.483887,1305.346680 1072.697021,1309.805786 
	C1081.966431,1314.291870 1091.055786,1319.198120 1100.522217,1323.218018 
	C1113.605591,1328.773560 1123.774780,1337.066040 1128.789062,1350.458252 
	C1139.055908,1350.740967 1146.468262,1355.766479 1152.334961,1362.865967 
	C1159.268921,1371.256836 1165.526733,1380.206543 1171.577148,1388.248657 
	C1185.556152,1385.331055 1199.847046,1382.483765 1214.049438,1379.247314 
	C1216.345337,1378.724121 1218.491089,1376.721680 1220.287476,1374.972900 
	C1227.404785,1368.044556 1234.019409,1360.560059 1241.486694,1354.045410 
	C1246.452026,1349.713379 1252.969849,1347.186035 1258.057251,1342.964355 
	C1273.621826,1330.048828 1292.757080,1325.979736 1311.555176,1322.702393 
	C1330.131958,1319.463379 1349.283813,1319.323853 1368.210815,1318.365479 
	C1379.512817,1317.793213 1390.923096,1317.556274 1402.184204,1318.443848 
	C1415.386230,1319.484619 1428.583496,1321.379150 1441.581055,1323.930542 
	C1449.594116,1325.503418 1457.230591,1328.994385 1465.271240,1331.703491 
	C1467.966797,1323.568237 1471.682983,1315.877197 1472.941040,1307.802979 
	C1475.374146,1292.188599 1480.809692,1277.653076 1486.306763,1263.044800 
	C1487.223999,1260.607178 1487.994141,1257.956665 1488.065430,1255.383179 
	C1488.645508,1234.430908 1489.208862,1213.474731 1489.354248,1192.516846 
	C1489.382935,1188.388306 1488.592041,1183.614014 1486.457520,1180.220215 
	C1476.719116,1164.737549 1466.927734,1149.177368 1452.261475,1137.621460 
	C1442.103027,1129.617310 1433.250854,1119.841675 1421.117676,1114.502686 
	C1403.564697,1106.778687 1385.174927,1102.379272 1366.040527,1101.749756 
	C1347.066284,1101.125366 1328.070435,1101.164917 1307.117554,1100.913940 
M1098.870850,2060.250244 
	C1104.838135,2063.858398 1110.745361,2067.570801 1116.784180,2071.054688 
	C1134.087524,2081.037354 1151.618286,2090.250977 1171.562134,2094.320557 
	C1203.327026,2100.802734 1235.582520,2101.334961 1267.723755,2103.393311 
	C1268.172485,2103.422119 1268.673950,2102.628662 1269.149170,2102.216797 
	C1267.070190,2091.958252 1266.004517,2089.389893 1259.812500,2083.038574 
	C1249.379272,2072.337158 1239.118408,2061.431885 1228.161011,2051.286133 
	C1211.812012,2036.147827 1194.879517,2021.663696 1175.393677,2010.511475 
	C1171.366821,2008.206543 1167.706177,2005.267456 1163.834595,2002.683960 
	C1156.645508,1997.887207 1149.727295,1992.581787 1142.163574,1988.467651 
	C1115.235474,1973.820557 1086.924927,1962.264526 1057.956787,1952.347046 
	C1053.660400,1950.876099 1048.870117,1950.496826 1044.279907,1950.310303 
	C1035.305176,1949.945801 1026.035034,1951.415283 1017.397095,1949.642090 
	C1007.667664,1947.644653 1000.529053,1952.132935 992.081665,1954.651001 
	C1001.023010,1970.883423 1011.054321,1985.187378 1023.132751,1997.981445 
	C1045.406372,2021.574951 1071.903320,2040.087524 1098.870850,2060.250244 
M1346.903442,2103.708252 
	C1368.020020,2101.335205 1389.173584,2099.238770 1410.230103,2096.416992 
	C1416.354614,2095.596191 1422.478027,2093.296631 1428.128540,2090.660400 
	C1453.812744,2078.678467 1477.898315,2064.173584 1500.422241,2046.758545 
	C1518.697876,2032.628418 1528.207886,2013.640137 1536.662842,1992.110107 
	C1531.271362,1991.003174 1526.812622,1990.083984 1522.352417,1989.173096 
	C1513.569580,1987.379150 1504.730469,1983.875610 1496.014160,1984.157349 
	C1478.105225,1984.736084 1460.217163,1987.140503 1443.650146,1994.997070 
	C1435.538452,1998.843628 1427.117188,2002.168457 1419.406860,2006.700806 
	C1406.555298,2014.255005 1393.340088,2021.389648 1383.896606,2033.665161 
	C1378.437134,2040.761841 1372.993164,2048.484619 1365.852783,2053.538818 
	C1353.299927,2062.424072 1344.605591,2074.475098 1335.123657,2085.965820 
	C1330.969482,2091.000244 1327.419189,2096.532471 1326.472046,2103.707764 
	C1333.018188,2103.707764 1339.008179,2103.707764 1346.903442,2103.708252 
M1020.964600,1344.155273 
	C1015.308228,1344.154785 1009.626648,1344.499023 1004.000183,1344.088501 
	C988.015808,1342.922363 972.984009,1346.662598 958.430054,1352.678223 
	C954.907898,1354.133911 951.010071,1356.214355 948.866455,1359.158813 
	C944.130615,1365.663818 941.510681,1373.261108 941.475464,1381.510376 
	C941.451355,1387.166626 941.728088,1392.838135 941.401123,1398.475586 
	C941.018738,1405.068848 944.099182,1409.649536 948.515747,1414.103516 
	C959.840942,1425.524414 974.691650,1429.719360 989.380920,1433.335205 
	C1011.331482,1438.739014 1033.690918,1442.048828 1056.510498,1440.887817 
	C1066.134644,1440.398193 1075.811523,1440.575928 1085.451660,1440.869507 
	C1095.532715,1441.176514 1105.133179,1439.422974 1114.887085,1436.853271 
	C1131.533447,1432.467896 1137.463501,1413.468384 1127.837280,1398.981812 
	C1124.222412,1393.541870 1119.094604,1389.130127 1115.091553,1383.915527 
	C1113.031616,1381.232178 1110.963257,1380.201538 1107.618652,1380.265625 
	C1097.738892,1380.454468 1091.524292,1375.191406 1087.995605,1366.271118 
	C1087.411987,1364.795654 1086.916992,1362.713745 1085.762207,1362.123779 
	C1074.019043,1356.124146 1063.248535,1347.682861 1049.777588,1345.830200 
	C1040.924438,1344.612549 1031.895020,1344.676147 1020.964600,1344.155273 
M1311.767090,1364.622559 
	C1295.224731,1366.399048 1282.363892,1375.759766 1268.970581,1385.153564 
	C1275.286255,1393.564209 1275.524048,1403.109375 1275.394043,1412.834473 
	C1275.352295,1415.953857 1275.457275,1420.320435 1277.360596,1421.991211 
	C1283.546387,1427.421143 1290.308960,1432.102173 1299.401489,1431.978027 
	C1319.367920,1431.705078 1339.361572,1432.467896 1359.305542,1431.745361 
	C1385.011963,1430.814087 1410.043701,1426.218384 1433.863037,1415.740967 
	C1448.016846,1409.515015 1455.882080,1398.473267 1454.114380,1382.091187 
	C1453.382446,1375.307373 1449.749878,1370.732178 1444.489624,1368.123535 
	C1438.322510,1365.065430 1431.466553,1362.942017 1424.674072,1361.681396 
	C1400.595093,1357.212158 1376.235474,1359.192017 1352.007935,1359.875366 
	C1339.110352,1360.239136 1326.272095,1362.701294 1311.767090,1364.622559 
z"/>
<path fill="#66A62C" opacity="1.000000" stroke="none" 
	d="
M613.805664,2155.956787 
	C613.582031,2132.515137 619.466858,2110.392822 630.317139,2089.925537 
	C634.215454,2082.572266 641.429077,2076.740479 647.834229,2071.000732 
	C661.455078,2058.794434 675.257629,2046.753418 689.533264,2035.328979 
	C698.512085,2028.143555 706.652100,2019.385376 719.441406,2015.914185 
	C718.911377,2017.642700 718.608643,2018.713257 718.256165,2019.767090 
	C714.042480,2032.361938 719.316833,2043.964600 731.922058,2047.210815 
	C739.628784,2049.195557 745.029236,2053.588867 749.592285,2059.314453 
	C757.266968,2068.945068 764.511108,2078.920166 771.871460,2088.798340 
	C772.846619,2090.107178 773.704163,2091.619873 774.172729,2093.171875 
	C778.871948,2108.737549 783.542480,2124.312500 788.087097,2139.923828 
	C790.870972,2149.486816 793.119324,2159.214111 796.152710,2168.693604 
	C800.041992,2180.847900 802.336975,2193.221924 801.795532,2205.937744 
	C801.374695,2215.821533 805.885925,2222.680664 813.887207,2227.260254 
	C822.445984,2232.158936 830.629456,2229.926270 838.012207,2224.081299 
	C842.450500,2220.567383 847.006165,2217.145264 851.072205,2213.228271 
	C862.520691,2202.199219 860.339478,2186.271484 846.054688,2179.514160 
	C841.134460,2177.186523 839.454956,2174.027832 838.146423,2169.313477 
	C830.332581,2141.161133 822.287598,2113.072021 814.203857,2084.995361 
	C813.198669,2081.503906 811.968018,2077.921143 810.058167,2074.871338 
	C795.734253,2051.997559 781.277771,2029.100586 758.230591,2013.735107 
	C752.946594,2010.212280 746.332031,2008.685059 740.439575,2006.284058 
	C741.185852,2005.916748 742.921509,2004.827148 744.807617,2004.168945 
	C777.550476,1992.744629 811.251160,1985.275757 845.468628,1979.994385 
	C871.711243,1975.943848 897.981934,1972.074341 924.210815,1967.937988 
	C930.101318,1967.009033 935.880127,1965.347900 941.690735,1963.942261 
	C946.557373,1962.765015 949.297485,1964.377686 952.114868,1968.878052 
	C959.825806,1981.194946 968.882996,1992.672363 976.526184,2005.027344 
	C982.579041,2014.811890 990.067688,2023.173340 998.531189,2030.652344 
	C1014.451538,2044.720825 1030.681763,2058.442627 1046.935303,2072.127686 
	C1052.779053,2077.047852 1058.831299,2081.791992 1065.181396,2086.027344 
	C1094.251465,2105.415527 1123.296753,2125.179199 1158.177490,2132.694336 
	C1174.663940,2136.246094 1191.559204,2138.090820 1208.349487,2140.005859 
	C1257.767212,2145.641113 1307.417114,2144.145508 1356.991821,2143.782715 
	C1371.175659,2143.678955 1385.346680,2140.790039 1399.507935,2139.051025 
	C1405.744019,2138.285400 1412.033691,2137.595703 1418.132080,2136.161133 
	C1425.527222,2134.421631 1433.098633,2132.717529 1439.978760,2129.628174 
	C1469.188965,2116.511719 1496.369385,2100.174072 1522.341675,2081.166016 
	C1548.133789,2062.289795 1562.729858,2036.816650 1574.001709,2008.376221 
	C1577.844604,1998.679688 1578.805786,1997.418701 1589.163452,1998.237305 
	C1599.398071,1999.046509 1609.527588,2001.294800 1619.764526,2001.942261 
	C1638.341309,2003.117554 1656.983276,2003.265137 1675.559937,2004.442383 
	C1687.137573,2005.176025 1698.653687,2006.944824 1710.175537,2008.420288 
	C1712.034302,2008.658447 1713.778320,2009.791992 1715.503662,2010.482910 
	C1705.804321,2022.608032 1696.202026,2034.333984 1686.915161,2046.304565 
	C1678.554199,2057.081787 1670.848877,2068.377686 1662.284180,2078.984375 
	C1653.727783,2089.580811 1644.845825,2099.972168 1635.423340,2109.798096 
	C1620.218140,2125.654541 1604.489868,2140.992920 1593.952881,2160.643799 
	C1592.888062,2162.629639 1591.103394,2164.258545 1589.518921,2165.926270 
	C1588.378418,2167.126465 1586.923340,2168.024902 1585.765869,2169.211670 
	C1575.808716,2179.419434 1579.503296,2207.558350 1591.735962,2214.894287 
	C1603.341187,2221.854004 1619.293701,2216.590576 1621.416016,2203.713867 
	C1625.112915,2181.284668 1638.554199,2165.267822 1653.222046,2149.620361 
	C1665.509888,2136.511230 1678.152954,2123.685059 1689.688354,2109.936279 
	C1699.716187,2097.984131 1708.095337,2084.663818 1717.793091,2072.415039 
	C1726.644165,2061.235596 1736.729736,2051.020996 1745.376343,2039.697754 
	C1749.183838,2034.711426 1750.774658,2028.032227 1753.827515,2021.084961 
	C1755.313477,2021.535522 1758.410889,2022.169800 1761.258667,2023.387817 
	C1778.542603,2030.781494 1793.973511,2041.117920 1808.211914,2053.312988 
	C1819.379883,2062.878418 1822.849243,2075.806396 1824.101929,2089.687500 
	C1824.340942,2092.335938 1824.315674,2095.008545 1824.266357,2099.510254 
	C1824.140869,2119.030029 1824.161377,2136.708984 1824.181763,2154.388184 
	C1816.204956,2170.003662 1808.698364,2185.883789 1800.102295,2201.150635 
	C1793.279541,2213.268066 1784.817505,2224.451904 1777.681030,2236.407227 
	C1773.808838,2242.894043 1770.574463,2249.916016 1768.111694,2257.061523 
	C1760.357178,2279.561035 1750.833374,2301.549072 1747.714111,2325.467529 
	C1747.364380,2328.148926 1745.389893,2330.822510 1743.630859,2333.080566 
	C1736.461182,2342.283936 1735.630127,2350.320312 1742.560181,2359.351807 
	C1747.522461,2365.818848 1749.161499,2374.902344 1757.754883,2379.365479 
	C1749.950928,2380.000000 1741.901855,2380.000000 1732.641724,2379.963867 
	C1730.959106,2379.530029 1730.482300,2379.554199 1730.000000,2380.000000 
	C1729.111084,2380.000000 1728.222168,2380.000000 1726.283325,2379.436523 
	C1722.822266,2379.248779 1720.411133,2379.624512 1718.000000,2380.000000 
	C1713.916626,2380.000000 1709.833374,2380.000000 1705.025391,2379.189941 
	C1703.184082,2377.736816 1702.106323,2376.619873 1700.944336,2376.524170 
	C1689.730347,2375.600098 1678.496338,2374.104736 1667.279419,2374.194336 
	C1640.090332,2374.411621 1612.907104,2375.376465 1585.722412,2376.075928 
	C1581.744263,2376.178467 1577.729004,2376.208252 1573.817749,2376.824219 
	C1572.413330,2377.044922 1571.265137,2378.893799 1570.000000,2380.000000 
	C1568.500000,2380.000000 1567.000000,2380.000000 1564.748047,2379.374023 
	C1562.664062,2379.165283 1561.332031,2379.582764 1560.000000,2380.000000 
	C1257.291504,2380.000000 954.583069,2380.000000 650.937317,2380.000000 
	C650.103394,2366.191650 646.761841,2361.982910 630.098450,2355.869629 
	C630.098450,2352.339111 630.364014,2348.391846 630.051697,2344.490723 
	C628.811035,2328.992432 628.327942,2313.348389 625.720520,2298.072998 
	C623.844238,2287.081299 618.966919,2276.613037 615.599609,2265.857422 
	C614.618103,2262.722168 614.226013,2259.402588 613.723877,2254.387939 
	C613.857910,2220.391113 613.831787,2188.174072 613.805664,2155.956787 
z"/>
<path fill="#0B0C0A" opacity="1.000000" stroke="none" 
	d="
M1570.937256,2380.000000 
	C1571.265137,2378.893799 1572.413330,2377.044922 1573.817749,2376.824219 
	C1577.729004,2376.208252 1581.744263,2376.178467 1585.722412,2376.075928 
	C1612.907104,2375.376465 1640.090332,2374.411621 1667.279419,2374.194336 
	C1678.496338,2374.104736 1689.730347,2375.600098 1700.944336,2376.524170 
	C1702.106323,2376.619873 1703.184082,2377.736816 1704.150391,2379.189941 
	C1659.958252,2380.000000 1615.916382,2380.000000 1570.937256,2380.000000 
z"/>
<path fill="#4D6E2F" opacity="1.000000" stroke="none" 
	d="
M1774.856934,2380.000000 
	C1777.494995,2376.661621 1781.106567,2374.422852 1785.709351,2379.394531 
	C1782.571289,2380.000000 1779.142578,2380.000000 1774.856934,2380.000000 
z"/>
<path fill="#0B0C0A" opacity="1.000000" stroke="none" 
	d="
M1718.799927,2380.000000 
	C1720.411133,2379.624512 1722.822266,2379.248779 1725.616699,2379.436523 
	C1723.866577,2380.000000 1721.733276,2380.000000 1718.799927,2380.000000 
z"/>
<path fill="#0B0C0A" opacity="1.000000" stroke="none" 
	d="
M1560.666626,2380.000000 
	C1561.332031,2379.582764 1562.664062,2379.165283 1563.998047,2379.374023 
	C1563.111084,2380.000000 1562.222168,2380.000000 1560.666626,2380.000000 
z"/>
<path fill="#0B0C0A" opacity="1.000000" stroke="none" 
	d="
M1730.500000,2380.000000 
	C1730.482300,2379.554199 1730.959106,2379.530029 1731.715332,2379.963867 
	C1732.000000,2380.000000 1731.000000,2380.000000 1730.500000,2380.000000 
z"/>
<path fill="#FE6D00" opacity="1.000000" stroke="none" 
	d="
M626.486206,994.027283 
	C625.732300,986.376587 622.327698,979.994995 616.778931,974.841858 
	C600.670471,959.881409 584.042969,945.589417 566.075867,932.806091 
	C543.007874,916.393555 520.038513,899.786377 497.834686,882.240417 
	C487.763184,874.281738 478.932312,864.431335 470.823914,854.400208 
	C462.656372,844.295654 459.840424,831.825439 460.109436,818.755310 
	C460.267181,811.092407 460.488098,803.403259 460.039398,795.763550 
	C459.621918,788.655762 462.065155,782.901062 465.999176,777.228760 
	C476.836212,761.603149 490.825562,749.243958 506.753387,739.369446 
	C534.936279,721.897339 564.734680,707.962280 597.931824,702.887512 
	C606.477905,701.581116 615.129639,700.463318 623.754944,700.275513 
	C646.409119,699.781982 669.106750,699.088867 691.723877,700.016052 
	C702.837585,700.471619 714.331665,702.966492 724.757385,706.908752 
	C767.720032,723.153931 807.731201,744.874268 842.506287,775.264160 
	C859.615173,790.215576 877.568604,803.919495 896.751953,816.058838 
	C909.188416,823.928650 918.592041,823.650513 927.515869,814.993835 
	C935.518311,807.231140 936.707336,792.100708 929.443909,781.776794 
	C922.941284,772.534241 915.873840,763.672852 908.776123,754.868652 
	C892.465210,734.636292 875.581299,714.851746 859.715454,694.279541 
	C849.363953,680.857483 839.619751,666.828369 830.995422,652.247864 
	C820.258179,634.095337 816.747559,613.655273 816.384094,592.746399 
	C816.123413,577.752014 815.958496,562.735840 816.502991,547.756775 
	C816.740051,541.233398 817.841736,534.351257 820.341797,528.382080 
	C825.473022,516.130310 830.967712,503.871368 837.848389,492.548492 
	C848.591125,474.870087 864.326599,461.852173 881.706787,450.948456 
	C910.954529,432.599457 942.350159,418.957306 975.623840,409.870941 
	C984.205383,407.527496 993.286926,406.296844 1002.188049,405.991455 
	C1020.499634,405.363190 1038.928467,404.625000 1057.144775,406.042328 
	C1068.506348,406.926300 1079.620361,411.495300 1090.708618,414.861145 
	C1092.402100,415.375183 1093.643188,418.190826 1094.604126,420.178558 
	C1102.604126,436.725494 1111.356689,452.763611 1123.943481,466.414124 
	C1125.693848,468.312378 1126.844360,470.815125 1128.054810,473.151001 
	C1132.995605,482.685699 1141.553101,487.405334 1150.790649,485.578064 
	C1160.362183,483.684692 1166.965454,475.552185 1167.629517,464.691864 
	C1168.205688,455.272308 1167.172852,446.020844 1163.703247,437.211853 
	C1156.789185,419.657318 1147.757935,403.472534 1132.522461,391.613800 
	C1129.403931,389.186432 1127.750610,386.475586 1127.669556,382.394653 
	C1127.378906,367.745361 1126.418335,353.096527 1126.600342,338.458588 
	C1126.653809,334.157318 1128.981445,329.450562 1131.445190,325.704498 
	C1136.375854,318.207214 1141.730347,310.907654 1147.602417,304.125977 
	C1164.157227,285.006317 1179.660278,264.903015 1199.706055,249.024918 
	C1226.609375,227.715057 1256.512573,213.430481 1290.615967,208.068848 
	C1319.803955,203.479996 1349.115112,204.748306 1378.378540,205.924530 
	C1390.820923,206.424652 1402.184082,212.181717 1412.865845,218.380753 
	C1428.468018,227.435318 1443.277466,237.589737 1454.842285,251.840164 
	C1466.790771,266.563477 1479.661621,280.586151 1490.917480,295.811005 
	C1504.126221,313.677338 1510.151855,334.368927 1510.300049,356.655396 
	C1510.364258,366.320923 1509.662842,376.040985 1510.458618,385.640991 
	C1511.736572,401.058655 1507.689941,415.134064 1502.247437,429.249542 
	C1493.125366,452.908234 1485.630615,477.204651 1483.527466,502.530914 
	C1482.157837,519.022278 1483.252441,535.747986 1483.760864,552.352783 
	C1484.002319,560.241089 1488.015503,566.929382 1492.865234,573.061951 
	C1508.994507,593.458008 1530.099121,602.971741 1556.017456,604.208984 
	C1570.965454,604.922546 1582.364624,599.877563 1592.791504,589.966003 
	C1624.031616,560.269958 1652.531006,528.213196 1678.077759,493.476196 
	C1685.953735,482.766785 1694.236084,472.208282 1703.455078,462.665375 
	C1722.544922,442.904907 1745.884155,431.923187 1773.825317,432.336670 
	C1789.452148,432.567932 1805.201172,432.098114 1820.663696,433.914490 
	C1838.982300,436.066345 1854.433960,446.061127 1868.652832,457.144958 
	C1876.336426,463.134430 1881.105347,471.505829 1879.886719,482.456909 
	C1879.007690,490.355194 1879.495605,498.448578 1879.878784,506.430695 
	C1880.180664,512.719116 1878.671265,518.231384 1875.168701,523.377747 
	C1863.553223,540.445190 1852.017700,557.567139 1840.418213,574.645569 
	C1816.278320,610.187927 1792.020386,645.650635 1767.998169,681.272400 
	C1751.801147,705.290710 1735.937500,729.533691 1719.898560,753.658752 
	C1713.074097,763.923767 1709.245483,774.942078 1710.002197,787.512329 
	C1710.905762,802.523376 1718.309204,810.140137 1733.278687,810.203918 
	C1759.276245,810.314758 1785.282959,809.820618 1811.270996,810.332092 
	C1852.971558,811.152710 1893.071167,819.851440 1930.670776,838.093140 
	C1941.928467,843.554810 1952.257080,851.175659 1962.366821,858.675903 
	C1969.645142,864.075684 1973.113647,872.031982 1972.359863,881.494995 
	C1972.043335,885.469421 1971.772217,889.577393 1972.406738,893.473755 
	C1974.423462,905.856384 1968.892212,914.930603 1961.179565,923.895935 
	C1935.931641,953.245239 1905.140259,975.078613 1870.260132,991.117798 
	C1837.904175,1005.996216 1805.098755,1019.901917 1772.405029,1034.036865 
	C1766.320190,1036.667725 1759.881348,1038.537109 1753.507690,1040.426636 
	C1747.132202,1042.316528 1742.189453,1045.998047 1738.459839,1051.360474 
	C1731.790771,1060.949219 1733.445435,1073.006470 1743.032104,1079.594238 
	C1747.278809,1082.512573 1752.527466,1084.936890 1757.572021,1085.562378 
	C1778.713989,1088.183228 1799.953491,1090.011719 1821.152344,1092.179810 
	C1853.602295,1095.498779 1886.147583,1098.271118 1917.891724,1106.311279 
	C1940.856567,1112.127808 1961.936523,1121.613281 1977.941284,1139.895386 
	C1989.795044,1153.435791 1995.612427,1169.422363 1995.894165,1187.356567 
	C1996.082764,1199.352539 1995.717041,1211.358521 1995.983643,1223.351440 
	C1996.123413,1229.639771 1994.297485,1234.989990 1990.972412,1240.218750 
	C1980.330200,1256.953491 1965.385986,1267.978271 1946.754517,1274.249756 
	C1922.329346,1282.471191 1896.941772,1286.159790 1871.585083,1289.848633 
	C1859.406738,1291.620117 1847.112671,1292.629639 1834.853638,1293.803101 
	C1825.047119,1294.741699 1816.050171,1302.107300 1814.053345,1311.167969 
	C1811.859131,1321.123779 1817.144775,1332.704224 1826.462646,1337.257568 
	C1831.830444,1339.880371 1837.612549,1341.641113 1843.135620,1343.962402 
	C1860.003906,1351.051880 1877.194946,1357.502808 1893.560059,1365.615112 
	C1904.802368,1371.187622 1915.398804,1378.440918 1925.351440,1386.147217 
	C1939.358276,1396.992554 1947.962646,1411.308716 1948.261963,1429.693115 
	C1948.386597,1437.353027 1948.333130,1445.032227 1948.895386,1452.663330 
	C1949.305908,1458.232544 1946.918457,1461.218506 1942.115356,1463.441528 
	C1925.703857,1471.037476 1908.469360,1475.921631 1890.906616,1479.965942 
	C1847.677612,1489.920410 1803.746094,1491.973755 1759.774780,1489.556152 
	C1739.000366,1488.414185 1718.257446,1483.587891 1697.914673,1478.704102 
	C1681.828735,1474.842407 1666.263184,1468.651855 1650.672119,1462.934814 
	C1633.748169,1456.729248 1616.823730,1450.963989 1598.649048,1449.561401 
	C1579.402466,1448.076172 1560.177368,1446.250122 1540.977661,1444.241333 
	C1532.351440,1443.338989 1525.171387,1445.508789 1519.060913,1452.564209 
	C1509.149170,1441.169678 1501.169434,1429.069946 1500.354370,1413.931396 
	C1499.423462,1396.644897 1499.565186,1379.298340 1499.373535,1361.976562 
	C1499.348267,1359.693970 1499.836548,1357.314941 1500.546631,1355.130005 
	C1504.342773,1343.449829 1508.552734,1331.897583 1512.088867,1320.141479 
	C1514.756104,1311.273682 1516.621460,1302.164795 1518.856079,1293.166382 
	C1519.096680,1292.197876 1519.244263,1291.148438 1519.730835,1290.307739 
	C1531.941406,1269.213867 1528.560425,1245.717041 1529.907593,1223.008911 
	C1530.597168,1211.384033 1529.798096,1199.678467 1530.099609,1188.020508 
	C1530.359375,1177.973999 1527.532471,1168.828491 1522.405151,1160.510498 
	C1516.822998,1151.454346 1510.447754,1142.889038 1504.484497,1134.065063 
	C1491.756958,1115.231934 1473.939453,1101.544800 1456.257080,1088.081909 
	C1438.198730,1074.332764 1416.675415,1067.541138 1394.410522,1064.228271 
	C1378.988892,1061.933472 1363.321167,1060.884766 1347.724731,1060.280518 
	C1330.751221,1059.622803 1313.722046,1059.764282 1296.739502,1060.287109 
	C1289.540771,1060.508667 1282.014526,1061.544678 1275.301514,1064.015503 
	C1251.776001,1072.674561 1229.836182,1084.546387 1209.592896,1099.384277 
	C1205.888184,1102.099609 1202.845947,1105.718994 1199.196777,1109.209229 
	C1190.317627,1104.249634 1181.617065,1098.797241 1172.412598,1094.399292 
	C1161.034180,1088.962646 1149.413208,1083.921753 1137.578003,1079.579712 
	C1121.670410,1073.743774 1105.751587,1067.474609 1089.311890,1063.653442 
	C1059.442261,1056.710571 1028.979248,1052.949097 998.265442,1052.194824 
	C981.276917,1051.777710 964.248657,1051.575684 947.275330,1052.233643 
	C910.158081,1053.672607 878.077454,1067.406738 851.517029,1093.509399 
	C848.724487,1096.253784 846.113464,1099.652832 844.701355,1103.251465 
	C838.268921,1119.644897 831.042786,1135.948364 830.310181,1153.881104 
	C829.454346,1174.832764 828.951050,1195.814453 829.059326,1216.779175 
	C829.087097,1222.155029 831.228943,1227.906006 833.730957,1232.804565 
	C839.320190,1243.747192 845.725159,1254.274536 851.845947,1264.943481 
	C854.324280,1269.263550 856.944031,1273.501953 859.471741,1277.793945 
	C866.211731,1289.237915 873.205566,1300.543945 879.574646,1312.191162 
	C883.923645,1320.144165 886.068848,1328.804199 885.779236,1338.091553 
	C885.436646,1349.079712 885.854187,1360.090088 885.622681,1371.083984 
	C885.534607,1375.268311 884.559448,1379.433960 884.031372,1383.295654 
	C862.102722,1386.631958 859.203186,1389.147827 854.596619,1408.341431 
	C844.254517,1406.140625 833.987244,1403.199707 823.515747,1401.884766 
	C801.729980,1399.149170 779.860474,1395.675171 757.982178,1395.342285 
	C689.006653,1394.292847 619.999573,1395.257568 551.026672,1394.115723 
	C478.519165,1392.915405 406.889801,1384.542603 337.428864,1362.240479 
	C308.366974,1352.909424 280.586182,1340.918457 256.924622,1321.235962 
	C238.704849,1306.080078 221.610184,1289.737061 210.764374,1268.023071 
	C206.679428,1259.844727 203.845490,1251.440430 203.710876,1242.253174 
	C203.544922,1230.925049 203.042862,1219.578247 203.528778,1208.275757 
	C203.716507,1203.909302 205.279755,1198.975464 207.806015,1195.434082 
	C230.589767,1163.494873 260.333344,1139.843384 296.139343,1124.128052 
	C332.730927,1108.067749 371.388977,1100.070190 411.008301,1095.633545 
	C452.347687,1091.004272 493.617432,1085.659668 534.814697,1079.892456 
	C556.934692,1076.795898 578.645386,1071.679443 597.782715,1059.035645 
	C612.224121,1049.494385 622.956848,1037.415527 626.895630,1018.418457 
	C627.190430,1009.333313 626.838318,1001.680298 626.486206,994.027283 
z"/>
<path fill="#E6D18F" opacity="1.000000" stroke="none" 
	d="
M1308.100830,1100.913574 
	C1328.070435,1101.164917 1347.066284,1101.125366 1366.040527,1101.749756 
	C1385.174927,1102.379272 1403.564697,1106.778687 1421.117676,1114.502686 
	C1433.250854,1119.841675 1442.103027,1129.617310 1452.261475,1137.621460 
	C1466.927734,1149.177368 1476.719116,1164.737549 1486.457520,1180.220215 
	C1488.592041,1183.614014 1489.382935,1188.388306 1489.354248,1192.516846 
	C1489.208862,1213.474731 1488.645508,1234.430908 1488.065430,1255.383179 
	C1487.994141,1257.956665 1487.223999,1260.607178 1486.306763,1263.044800 
	C1480.809692,1277.653076 1475.374146,1292.188599 1472.941040,1307.802979 
	C1471.682983,1315.877197 1467.966797,1323.568237 1465.271240,1331.703491 
	C1457.230591,1328.994385 1449.594116,1325.503418 1441.581055,1323.930542 
	C1428.583496,1321.379150 1415.386230,1319.484619 1402.184204,1318.443848 
	C1390.923096,1317.556274 1379.512817,1317.793213 1368.210815,1318.365479 
	C1349.283813,1319.323853 1330.131958,1319.463379 1311.555176,1322.702393 
	C1292.757080,1325.979736 1273.621826,1330.048828 1258.057251,1342.964355 
	C1252.969849,1347.186035 1246.452026,1349.713379 1241.486694,1354.045410 
	C1234.019409,1360.560059 1227.404785,1368.044556 1220.287476,1374.972900 
	C1218.491089,1376.721680 1216.345337,1378.724121 1214.049438,1379.247314 
	C1199.847046,1382.483765 1185.556152,1385.331055 1171.577148,1388.248657 
	C1165.526733,1380.206543 1159.268921,1371.256836 1152.334961,1362.865967 
	C1146.468262,1355.766479 1139.055908,1350.740967 1128.789062,1350.458252 
	C1123.774780,1337.066040 1113.605591,1328.773560 1100.522217,1323.218018 
	C1091.055786,1319.198120 1081.966431,1314.291870 1072.697021,1309.805786 
	C1063.483887,1305.346680 1053.589478,1304.081665 1043.533813,1303.970459 
	C1024.540649,1303.760498 1005.534851,1303.328735 986.553955,1303.792358 
	C970.752869,1304.178345 955.914062,1309.284790 941.478821,1315.464722 
	C936.609863,1317.549072 931.751038,1319.657349 926.220215,1322.042603 
	C924.878784,1317.640259 923.828491,1313.513794 922.373169,1309.535278 
	C916.068542,1292.300171 907.775085,1276.183472 897.543945,1260.823730 
	C887.811462,1246.212769 879.775085,1230.467407 871.131897,1215.142578 
	C870.211243,1213.510132 869.805359,1211.340088 869.863708,1209.441162 
	C870.466064,1189.829224 870.343506,1170.134888 872.288879,1150.649780 
	C873.254028,1140.983276 877.657532,1131.525391 881.407654,1122.341553 
	C882.800598,1118.930298 886.406311,1116.043701 889.626038,1113.820190 
	C907.484314,1101.487915 926.914429,1093.097412 948.997009,1093.026245 
	C970.646912,1092.956543 992.389343,1092.404175 1013.929443,1094.107788 
	C1049.066406,1096.886963 1083.772705,1101.578857 1117.104492,1115.108765 
	C1138.168091,1123.658813 1158.825195,1132.379272 1177.979980,1144.607178 
	C1181.601685,1146.919189 1185.499512,1149.032227 1189.554199,1150.385498 
	C1199.066040,1153.559692 1208.474854,1154.181641 1216.981934,1147.259155 
	C1219.815308,1144.953491 1223.407959,1143.418945 1225.805664,1140.765747 
	C1242.415161,1122.386841 1264.547729,1112.939575 1286.543091,1103.574829 
	C1292.668579,1100.966919 1300.220215,1101.708862 1308.100830,1100.913574 
M1385.188477,1244.464966 
	C1370.483276,1244.368164 1356.089966,1246.231201 1341.923706,1250.390381 
	C1335.930420,1252.150024 1329.594116,1252.920044 1323.355713,1253.633423 
	C1302.237671,1256.048096 1281.087891,1258.184692 1259.966431,1260.570190 
	C1257.027466,1260.901978 1254.068604,1261.755005 1251.309570,1262.847900 
	C1243.507324,1265.938354 1237.959473,1274.538696 1238.362671,1282.464600 
	C1238.780884,1290.686157 1244.727173,1298.851074 1252.809326,1300.986084 
	C1256.519531,1301.966064 1260.710571,1301.748779 1264.599854,1301.317993 
	C1280.103638,1299.600830 1295.567139,1297.523193 1311.059692,1295.698975 
	C1327.171631,1293.801514 1343.303589,1292.880493 1359.180908,1288.463379 
	C1376.591187,1283.619873 1394.597412,1284.479492 1412.492798,1287.474609 
	C1417.541016,1288.319458 1423.263794,1288.210938 1428.080688,1286.672241 
	C1436.251953,1284.062134 1440.783813,1275.587280 1440.229126,1266.874756 
	C1439.691528,1258.426880 1434.066284,1251.824463 1425.528076,1248.568115 
	C1413.038574,1243.804688 1400.078613,1244.392456 1385.188477,1244.464966 
z"/>
<path fill="#E5D08E" opacity="1.000000" stroke="none" 
	d="
M1182.136230,1432.118530 
	C1182.129761,1434.776489 1181.918213,1437.452881 1182.153198,1440.089233 
	C1183.041382,1450.059204 1190.197510,1457.331665 1200.143677,1458.368408 
	C1204.046997,1458.775146 1207.984741,1458.854004 1212.928589,1459.141724 
	C1212.928589,1462.950684 1213.038818,1466.208130 1212.908936,1469.456055 
	C1212.431030,1481.407227 1216.988647,1491.377686 1224.258789,1500.596191 
	C1228.772461,1506.319580 1232.712524,1512.550659 1236.364868,1518.868896 
	C1237.692383,1521.165527 1237.438232,1524.376343 1238.111572,1528.400024 
	C1229.727661,1528.593628 1222.472778,1528.893799 1215.217651,1528.898438 
	C1203.611938,1528.905884 1192.091064,1529.415283 1180.641479,1525.720337 
	C1169.947998,1522.269531 1159.120850,1528.755493 1156.143555,1538.860352 
	C1152.978027,1549.603638 1157.857422,1560.061157 1168.462524,1564.083008 
	C1177.795166,1567.622314 1187.270874,1570.469116 1197.589722,1569.890869 
	C1213.520264,1568.998169 1229.498413,1568.953003 1245.429565,1568.066772 
	C1249.980713,1567.813477 1254.548340,1566.208618 1258.919556,1564.682373 
	C1271.887451,1560.154175 1278.599731,1549.125244 1278.434448,1536.526855 
	C1278.031250,1505.787842 1278.665649,1505.618530 1259.318970,1478.963867 
	C1254.624756,1472.496582 1252.681763,1466.272217 1254.495728,1457.796265 
	C1260.948486,1461.214844 1267.308594,1464.352295 1273.434082,1467.895508 
	C1279.402710,1471.348145 1285.646362,1472.591919 1292.521729,1472.492920 
	C1320.173584,1472.094116 1347.882935,1472.984375 1375.468628,1471.498047 
	C1400.756348,1470.135498 1425.444702,1464.438232 1448.743896,1453.858643 
	C1454.166992,1451.396118 1459.684570,1449.141602 1465.008179,1446.855835 
	C1469.704956,1453.647949 1474.598999,1460.673828 1479.419189,1467.750000 
	C1480.158203,1468.834961 1480.696655,1470.107910 1481.092041,1471.368042 
	C1485.450928,1485.260620 1490.319092,1499.023682 1493.970215,1513.101685 
	C1501.231201,1541.098267 1500.667725,1569.805786 1499.653442,1598.369995 
	C1499.355591,1606.758789 1497.065552,1615.663574 1493.404175,1623.225708 
	C1485.467407,1639.617798 1477.387207,1656.239136 1462.131226,1667.628662 
	C1460.810669,1668.614502 1459.557739,1669.809448 1458.597168,1671.140991 
	C1444.391968,1690.829468 1424.715210,1703.451050 1403.937012,1715.177734 
	C1386.026489,1725.286011 1367.254395,1732.304077 1347.309448,1736.587158 
	C1343.758667,1737.349731 1340.091187,1737.976562 1336.477783,1737.975952 
	C1306.153687,1737.971313 1275.808472,1738.455078 1245.512207,1737.477661 
	C1222.276367,1736.727905 1199.158813,1734.085083 1176.685547,1727.101196 
	C1159.551392,1721.776611 1141.958008,1717.939575 1124.782837,1712.734375 
	C1112.412476,1708.985474 1100.200195,1704.539429 1088.268066,1699.563477 
	C1073.243652,1693.297974 1058.626587,1686.062500 1043.737549,1679.462769 
	C1033.758667,1675.039795 1025.661011,1668.328613 1018.681213,1660.107422 
	C1006.411987,1645.655884 993.952881,1631.357910 982.007629,1616.642944 
	C977.427856,1611.001465 973.797852,1604.532104 970.153748,1598.198975 
	C960.663940,1581.706665 949.854187,1566.221558 937.479919,1551.719360 
	C928.875854,1541.635620 920.755066,1530.971924 918.665039,1517.198486 
	C918.316406,1514.901001 917.849609,1512.585815 917.843079,1510.277588 
	C917.780640,1488.296387 917.805786,1466.314941 917.805786,1443.442993 
	C919.412354,1444.136841 920.694641,1444.320435 921.412720,1445.055298 
	C938.552795,1462.593872 961.329041,1467.918701 983.776917,1474.008789 
	C1022.002258,1484.379639 1061.131104,1482.568359 1099.983032,1481.403320 
	C1124.125732,1480.679443 1146.305054,1472.255249 1162.171997,1452.254517 
	C1164.633301,1449.151978 1166.787720,1445.731567 1168.604370,1442.210571 
	C1171.137695,1437.300171 1174.409790,1433.343140 1180.575439,1431.374756 
	C1181.516235,1431.510986 1182.136230,1432.118530 1182.136230,1432.118530 
M1303.785522,1611.437500 
	C1282.942261,1601.254395 1260.233032,1597.391357 1237.941650,1592.195923 
	C1227.289551,1589.713257 1216.461304,1586.481201 1205.679688,1586.352051 
	C1177.079590,1586.010010 1148.461548,1587.170776 1119.850586,1587.736938 
	C1113.842041,1587.855835 1108.098267,1589.835693 1105.126953,1594.855957 
	C1099.417236,1604.502930 1094.926392,1615.039062 1095.938721,1626.513428 
	C1096.382812,1631.546387 1099.494751,1636.426025 1101.761475,1641.201538 
	C1110.287109,1659.162109 1123.646118,1671.693359 1142.695801,1678.245850 
	C1168.679932,1687.183716 1195.101074,1693.081177 1222.781250,1691.932251 
	C1227.435547,1691.739014 1232.106201,1691.829712 1236.766724,1691.916992 
	C1270.245972,1692.543213 1301.152222,1683.904785 1329.218628,1665.692993 
	C1333.179077,1663.123047 1337.369385,1659.141846 1338.896362,1654.894653 
	C1345.376343,1636.871338 1339.485962,1621.519653 1319.420654,1616.500977 
	C1314.617798,1615.299561 1309.961548,1613.512207 1303.785522,1611.437500 
z"/>
<path fill="#E6D18F" opacity="1.000000" stroke="none" 
	d="
M1392.475586,1768.456909 
	C1391.207764,1786.427368 1387.563110,1803.941406 1383.001709,1821.347534 
	C1381.256714,1828.006348 1380.624023,1835.096069 1380.486938,1842.009399 
	C1380.143311,1859.331299 1380.474976,1876.665283 1380.328491,1893.992676 
	C1380.255615,1902.619507 1382.527466,1910.251465 1387.635986,1917.300659 
	C1396.061523,1928.926270 1404.678589,1940.259277 1416.916504,1948.281250 
	C1420.504272,1950.633179 1423.739624,1953.522827 1428.258179,1957.038818 
	C1420.605713,1960.838013 1413.793457,1964.477539 1406.771118,1967.652222 
	C1392.745728,1973.992798 1379.947266,1982.277466 1367.999268,1991.869629 
	C1363.869751,1995.185059 1360.214966,1999.138550 1356.597656,2003.036621 
	C1347.574951,2012.759155 1339.218384,2022.950073 1328.652466,2031.367432 
	C1320.474609,2037.882202 1314.459229,2047.121582 1307.533203,2055.193115 
	C1304.717773,2058.473877 1302.036377,2061.870117 1298.970703,2065.607666 
	C1238.978149,1996.803711 1166.640503,1946.574829 1079.405518,1916.727173 
	C1082.168213,1912.509399 1085.134766,1908.955566 1087.040894,1904.902954 
	C1095.717896,1886.455444 1102.557495,1867.509277 1102.274170,1846.647461 
	C1101.961914,1823.663208 1102.414673,1800.658325 1101.577881,1777.697266 
	C1101.282471,1769.591919 1098.202026,1761.580933 1096.314087,1753.545532 
	C1095.807251,1751.388306 1095.009521,1749.299438 1094.142944,1746.533325 
	C1113.677124,1752.056519 1132.368652,1757.449219 1151.125000,1762.606201 
	C1163.303101,1765.954590 1175.458374,1769.555420 1187.831177,1771.989868 
	C1211.371704,1776.621826 1235.236084,1778.578857 1259.240601,1778.597046 
	C1281.234619,1778.613525 1303.247437,1778.034058 1325.217529,1778.758057 
	C1347.659790,1779.497803 1368.807373,1774.673828 1390.604126,1767.197266 
	C1391.952515,1767.875977 1392.214111,1768.166504 1392.475586,1768.456909 
z"/>
<path fill="#90E4B5" opacity="1.000000" stroke="none" 
	d="
M1098.236572,2059.901855 
	C1071.903320,2040.087524 1045.406372,2021.574951 1023.132751,1997.981445 
	C1011.054321,1985.187378 1001.023010,1970.883423 992.081665,1954.651001 
	C1000.529053,1952.132935 1007.667664,1947.644653 1017.397095,1949.642090 
	C1026.035034,1951.415283 1035.305176,1949.945801 1044.279907,1950.310303 
	C1048.870117,1950.496826 1053.660400,1950.876099 1057.956787,1952.347046 
	C1086.924927,1962.264526 1115.235474,1973.820557 1142.163574,1988.467651 
	C1149.727295,1992.581787 1156.645508,1997.887207 1163.834595,2002.683960 
	C1167.706177,2005.267456 1171.366821,2008.206543 1175.393677,2010.511475 
	C1194.879517,2021.663696 1211.812012,2036.147827 1228.161011,2051.286133 
	C1239.118408,2061.431885 1249.379272,2072.337158 1259.812500,2083.038574 
	C1266.004517,2089.389893 1267.070190,2091.958252 1269.149902,2102.217773 
	C1268.673950,2102.628662 1268.172485,2103.422119 1267.723755,2103.393311 
	C1235.582520,2101.334961 1203.327026,2100.802734 1171.562134,2094.320557 
	C1151.618286,2090.250977 1134.087524,2081.037354 1116.784180,2071.054688 
	C1110.745361,2067.570801 1104.838135,2063.858398 1098.236572,2059.901855 
z"/>
<path fill="#90E4B5" opacity="1.000000" stroke="none" 
	d="
M1345.950806,2103.708008 
	C1339.008179,2103.707764 1333.018188,2103.707764 1326.472046,2103.707764 
	C1327.419189,2096.532471 1330.969482,2091.000244 1335.123657,2085.965820 
	C1344.605591,2074.475098 1353.299927,2062.424072 1365.852783,2053.538818 
	C1372.993164,2048.484619 1378.437134,2040.761841 1383.896606,2033.665161 
	C1393.340088,2021.389648 1406.555298,2014.255005 1419.406860,2006.700806 
	C1427.117188,2002.168457 1435.538452,1998.843628 1443.650146,1994.997070 
	C1460.217163,1987.140503 1478.105225,1984.736084 1496.014160,1984.157349 
	C1504.730469,1983.875610 1513.569580,1987.379150 1522.352417,1989.173096 
	C1526.812622,1990.083984 1531.271362,1991.003174 1536.662842,1992.110107 
	C1528.207886,2013.640137 1518.697876,2032.628418 1500.422241,2046.758545 
	C1477.898315,2064.173584 1453.812744,2078.678467 1428.128540,2090.660400 
	C1422.478027,2093.296631 1416.354614,2095.596191 1410.230103,2096.416992 
	C1389.173584,2099.238770 1368.020020,2101.335205 1345.950806,2103.708008 
z"/>
<path fill="#FBFBFB" opacity="1.000000" stroke="none" 
	d="
M1021.954590,1344.160645 
	C1031.895020,1344.676147 1040.924438,1344.612549 1049.777588,1345.830200 
	C1063.248535,1347.682861 1074.019043,1356.124146 1085.762207,1362.123779 
	C1086.916992,1362.713745 1087.411987,1364.795654 1087.995605,1366.271118 
	C1091.524292,1375.191406 1097.738892,1380.454468 1107.618652,1380.265625 
	C1110.963257,1380.201538 1113.031616,1381.232178 1115.091553,1383.915527 
	C1119.094604,1389.130127 1124.222412,1393.541870 1127.837280,1398.981812 
	C1137.463501,1413.468384 1131.533447,1432.467896 1114.887085,1436.853271 
	C1105.133179,1439.422974 1095.532715,1441.176514 1085.451660,1440.869507 
	C1075.811523,1440.575928 1066.134644,1440.398193 1056.510498,1440.887817 
	C1033.690918,1442.048828 1011.331482,1438.739014 989.380920,1433.335205 
	C974.691650,1429.719360 959.840942,1425.524414 948.515747,1414.103516 
	C944.099182,1409.649536 941.018738,1405.068848 941.401123,1398.475586 
	C941.728088,1392.838135 941.451355,1387.166626 941.475464,1381.510376 
	C941.510681,1373.261108 944.130615,1365.663818 948.866455,1359.158813 
	C951.010071,1356.214355 954.907898,1354.133911 958.430054,1352.678223 
	C972.984009,1346.662598 988.015808,1342.922363 1004.000183,1344.088501 
	C1009.626648,1344.499023 1015.308228,1344.154785 1021.954590,1344.160645 
M1019.790833,1411.625488 
	C1031.964600,1417.390015 1044.850220,1418.073730 1057.779175,1415.872437 
	C1065.096802,1414.626343 1071.890381,1411.091064 1074.065308,1403.044800 
	C1076.418945,1394.337769 1073.207153,1387.249146 1065.795776,1382.411011 
	C1050.362061,1372.335815 1033.759521,1367.281128 1015.197571,1371.681885 
	C1007.408447,1373.528687 1004.883240,1376.500244 1003.680542,1384.106812 
	C1001.643982,1396.987671 1008.522583,1404.718750 1019.790833,1411.625488 
z"/>
<path fill="#FAFAFA" opacity="1.000000" stroke="none" 
	d="
M1312.587036,1364.419434 
	C1326.272095,1362.701294 1339.110352,1360.239136 1352.007935,1359.875366 
	C1376.235474,1359.192017 1400.595093,1357.212158 1424.674072,1361.681396 
	C1431.466553,1362.942017 1438.322510,1365.065430 1444.489624,1368.123535 
	C1449.749878,1370.732178 1453.382446,1375.307373 1454.114380,1382.091187 
	C1455.882080,1398.473267 1448.016846,1409.515015 1433.863037,1415.740967 
	C1410.043701,1426.218384 1385.011963,1430.814087 1359.305542,1431.745361 
	C1339.361572,1432.467896 1319.367920,1431.705078 1299.401489,1431.978027 
	C1290.308960,1432.102173 1283.546387,1427.421143 1277.360596,1421.991211 
	C1275.457275,1420.320435 1275.352295,1415.953857 1275.394043,1412.834473 
	C1275.524048,1403.109375 1275.286255,1393.564209 1268.970581,1385.153564 
	C1282.363892,1375.759766 1295.224731,1366.399048 1312.587036,1364.419434 
M1361.193359,1419.946777 
	C1369.714966,1420.507690 1377.739868,1419.073608 1384.715942,1413.807861 
	C1394.745361,1406.237549 1395.193359,1393.128296 1385.712158,1385.012451 
	C1383.448120,1383.074585 1381.003540,1381.348877 1378.661987,1379.500122 
	C1367.340576,1370.561768 1353.919067,1370.854492 1340.863159,1372.137207 
	C1330.253052,1373.179810 1320.120972,1387.370117 1323.018066,1396.032593 
	C1325.903931,1404.661499 1330.876587,1412.429932 1340.122070,1415.525879 
	C1346.348999,1417.611084 1352.973389,1418.509277 1361.193359,1419.946777 
z"/>
<path fill="#748466" opacity="1.000000" stroke="none" 
	d="
M613.289429,2156.604980 
	C613.831787,2188.174072 613.857910,2220.391113 613.784668,2253.589355 
	C613.128052,2252.393799 612.093323,2250.218994 612.085938,2248.040527 
	C611.987976,2219.077393 612.024719,2190.113770 612.075134,2161.150391 
	C612.077393,2159.851074 612.530151,2158.552246 613.289429,2156.604980 
z"/>
<path fill="#6C7C5E" opacity="1.000000" stroke="none" 
	d="
M1824.756104,2153.739502 
	C1824.161377,2136.708984 1824.140869,2119.030029 1824.231445,2100.364746 
	C1824.858032,2100.547119 1825.827393,2101.718018 1825.821411,2102.883545 
	C1825.734863,2119.619629 1825.516846,2136.355225 1824.756104,2153.739502 
z"/>
<path fill="#AE886C" opacity="1.000000" stroke="none" 
	d="
M626.303833,994.933716 
	C626.838318,1001.680298 627.190430,1009.333313 627.031982,1017.655579 
	C626.388184,1010.829956 626.254822,1003.335083 626.303833,994.933716 
z"/>
<path fill="#E6D18F" opacity="1.000000" stroke="none" 
	d="
M1391.358276,1767.102295 
	C1391.759888,1767.049194 1392.494019,1767.479126 1392.851929,1768.182983 
	C1392.214111,1768.166504 1391.952515,1767.875977 1391.358276,1767.102295 
z"/>
<path fill="#E5D08E" opacity="1.000000" stroke="none" 
	d="
M1181.240967,1431.175293 
	C1181.638550,1431.158447 1182.311279,1431.477295 1182.560181,1431.957275 
	C1182.136230,1432.118530 1181.516235,1431.510986 1181.240967,1431.175293 
z"/>
<path fill="#040404" opacity="1.000000" stroke="none" 
	d="
M1386.158081,1244.465088 
	C1400.078613,1244.392456 1413.038574,1243.804688 1425.528076,1248.568115 
	C1434.066284,1251.824463 1439.691528,1258.426880 1440.229126,1266.874756 
	C1440.783813,1275.587280 1436.251953,1284.062134 1428.080688,1286.672241 
	C1423.263794,1288.210938 1417.541016,1288.319458 1412.492798,1287.474609 
	C1394.597412,1284.479492 1376.591187,1283.619873 1359.180908,1288.463379 
	C1343.303589,1292.880493 1327.171631,1293.801514 1311.059692,1295.698975 
	C1295.567139,1297.523193 1280.103638,1299.600830 1264.599854,1301.317993 
	C1260.710571,1301.748779 1256.519531,1301.966064 1252.809326,1300.986084 
	C1244.727173,1298.851074 1238.780884,1290.686157 1238.362671,1282.464600 
	C1237.959473,1274.538696 1243.507324,1265.938354 1251.309570,1262.847900 
	C1254.068604,1261.755005 1257.027466,1260.901978 1259.966431,1260.570190 
	C1281.087891,1258.184692 1302.237671,1256.048096 1323.355713,1253.633423 
	C1329.594116,1252.920044 1335.930420,1252.150024 1341.923706,1250.390381 
	C1356.089966,1246.231201 1370.483276,1244.368164 1386.158081,1244.465088 
z"/>
<path fill="#030303" opacity="1.000000" stroke="none" 
	d="
M1304.511719,1611.715820 
	C1309.961548,1613.512207 1314.617798,1615.299561 1319.420654,1616.500977 
	C1339.485962,1621.519653 1345.376343,1636.871338 1338.896362,1654.894653 
	C1337.369385,1659.141846 1333.179077,1663.123047 1329.218628,1665.692993 
	C1301.152222,1683.904785 1270.245972,1692.543213 1236.766724,1691.916992 
	C1232.106201,1691.829712 1227.435547,1691.739014 1222.781250,1691.932251 
	C1195.101074,1693.081177 1168.679932,1687.183716 1142.695801,1678.245850 
	C1123.646118,1671.693359 1110.287109,1659.162109 1101.761475,1641.201538 
	C1099.494751,1636.426025 1096.382812,1631.546387 1095.938721,1626.513428 
	C1094.926392,1615.039062 1099.417236,1604.502930 1105.126953,1594.855957 
	C1108.098267,1589.835693 1113.842041,1587.855835 1119.850586,1587.736938 
	C1148.461548,1587.170776 1177.079590,1586.010010 1205.679688,1586.352051 
	C1216.461304,1586.481201 1227.289551,1589.713257 1237.941650,1592.195923 
	C1260.233032,1597.391357 1282.942261,1601.254395 1304.511719,1611.715820 
M1228.977295,1651.162354 
	C1245.168213,1651.675781 1261.185913,1650.884277 1277.387451,1644.993042 
	C1233.027954,1629.727295 1188.596191,1622.410400 1142.041748,1628.184814 
	C1145.030151,1634.988037 1150.546387,1637.710083 1156.577148,1639.893311 
	C1179.338989,1648.133545 1202.758423,1652.198120 1228.977295,1651.162354 
z"/>
<path fill="#242427" opacity="1.000000" stroke="none" 
	d="
M1019.149048,1411.223877 
	C1008.522583,1404.718750 1001.643982,1396.987671 1003.680542,1384.106812 
	C1004.883240,1376.500244 1007.408447,1373.528687 1015.197571,1371.681885 
	C1033.759521,1367.281128 1050.362061,1372.335815 1065.795776,1382.411011 
	C1073.207153,1387.249146 1076.418945,1394.337769 1074.065308,1403.044800 
	C1071.890381,1411.091064 1065.096802,1414.626343 1057.779175,1415.872437 
	C1044.850220,1418.073730 1031.964600,1417.390015 1019.149048,1411.223877 
M1048.689697,1412.890503 
	C1052.603271,1412.298828 1056.735840,1412.316528 1060.390259,1411.003418 
	C1072.386230,1406.693726 1074.578247,1393.973022 1064.316284,1386.398682 
	C1059.151733,1382.586670 1052.880371,1379.831421 1046.697632,1377.956909 
	C1039.522461,1375.781128 1031.939819,1374.601440 1024.449707,1373.925293 
	C1018.801331,1373.415527 1012.652649,1374.582153 1009.454712,1379.841797 
	C1006.238098,1385.131958 1006.381836,1391.229126 1009.502136,1396.885498 
	C1012.488708,1402.299561 1016.723389,1406.854370 1022.621094,1408.436523 
	C1030.521606,1410.555908 1038.746704,1411.464844 1048.689697,1412.890503 
z"/>
<path fill="#2E2E30" opacity="1.000000" stroke="none" 
	d="
M1360.306641,1419.942627 
	C1352.973389,1418.509277 1346.348999,1417.611084 1340.122070,1415.525879 
	C1330.876587,1412.429932 1325.903931,1404.661499 1323.018066,1396.032593 
	C1320.120972,1387.370117 1330.253052,1373.179810 1340.863159,1372.137207 
	C1353.919067,1370.854492 1367.340576,1370.561768 1378.661987,1379.500122 
	C1381.003540,1381.348877 1383.448120,1383.074585 1385.712158,1385.012451 
	C1395.193359,1393.128296 1394.745361,1406.237549 1384.715942,1413.807861 
	C1377.739868,1419.073608 1369.714966,1420.507690 1360.306641,1419.942627 
M1358.786133,1376.401611 
	C1355.471802,1376.584595 1351.824219,1377.755493 1348.903931,1376.770508 
	C1339.039062,1373.443115 1334.032349,1379.627563 1329.018066,1385.986572 
	C1326.121826,1389.659546 1325.964600,1393.424683 1328.014282,1398.012939 
	C1332.761353,1408.639771 1341.400513,1413.231567 1352.074585,1414.997559 
	C1362.344971,1416.696777 1372.643188,1417.560669 1381.792480,1410.954712 
	C1388.539429,1406.083130 1390.979736,1395.730591 1385.788452,1390.923950 
	C1378.556396,1384.228027 1371.289062,1376.987183 1358.786133,1376.401611 
z"/>
<path fill="#EEEEEE" opacity="1.000000" stroke="none" 
	d="
M1227.988281,1651.162354 
	C1202.758423,1652.198120 1179.338989,1648.133545 1156.577148,1639.893311 
	C1150.546387,1637.710083 1145.030151,1634.988037 1142.041748,1628.184814 
	C1188.596191,1622.410400 1233.027954,1629.727295 1277.387451,1644.993042 
	C1261.185913,1650.884277 1245.168213,1651.675781 1227.988281,1651.162354 
z"/>
<path fill="#4D59B1" opacity="1.000000" stroke="none" 
	d="
M1047.761108,1412.891968 
	C1038.746704,1411.464844 1030.521606,1410.555908 1022.621094,1408.436523 
	C1016.723389,1406.854370 1012.488708,1402.299561 1009.502136,1396.885498 
	C1006.381836,1391.229126 1006.238098,1385.131958 1009.454712,1379.841797 
	C1012.652649,1374.582153 1018.801331,1373.415527 1024.449707,1373.925293 
	C1031.939819,1374.601440 1039.522461,1375.781128 1046.697632,1377.956909 
	C1052.880371,1379.831421 1059.151733,1382.586670 1064.316284,1386.398682 
	C1074.578247,1393.973022 1072.386230,1406.693726 1060.390259,1411.003418 
	C1056.735840,1412.316528 1052.603271,1412.298828 1047.761108,1412.891968 
z"/>
<path fill="#4D59B2" opacity="1.000000" stroke="none" 
	d="
M1359.598267,1376.407837 
	C1371.289062,1376.987183 1378.556396,1384.228027 1385.788452,1390.923950 
	C1390.979736,1395.730591 1388.539429,1406.083130 1381.792480,1410.954712 
	C1372.643188,1417.560669 1362.344971,1416.696777 1352.074585,1414.997559 
	C1341.400513,1413.231567 1332.761353,1408.639771 1328.014282,1398.012939 
	C1325.964600,1393.424683 1326.121826,1389.659546 1329.018066,1385.986572 
	C1334.032349,1379.627563 1339.039062,1373.443115 1348.903931,1376.770508 
	C1351.824219,1377.755493 1355.471802,1376.584595 1359.598267,1376.407837 
z"/>
</svg>