<?xml version="1.0" encoding="UTF-8" standalone="no"?> <!-- Created with Vectornator for iOS (http://vectornator.io/) --><!DOCTYPE svg PUBLIC "-//W3C//DTD SVG 1.1//EN" "http://www.w3.org/Graphics/SVG/1.1/DTD/svg11.dtd">
<svg height="100%" style="fill-rule:nonzero;clip-rule:evenodd;stroke-linecap:round;stroke-linejoin:round;" xmlns:xlink="http://www.w3.org/1999/xlink" xmlns="http://www.w3.org/2000/svg" xml:space="preserve" width="100%" xmlns:vectornator="http://vectornator.io" version="1.1" viewBox="0 0 125 125">
<metadata>
<vectornator:setting key="DimensionsVisible" value="1"/>
<vectornator:setting key="PencilOnly" value="0"/>
<vectornator:setting key="SnapToPoints" value="0"/>
<vectornator:setting key="OutlineMode" value="0"/>
<vectornator:setting key="CMYKEnabledKey" value="0"/>
<vectornator:setting key="RulersVisible" value="1"/>
<vectornator:setting key="SnapToEdges" value="0"/>
<vectornator:setting key="GuidesVisible" value="1"/>
<vectornator:setting key="DisplayWhiteBackground" value="0"/>
<vectornator:setting key="doHistoryDisabled" value="0"/>
<vectornator:setting key="SnapToGuides" value="1"/>
<vectornator:setting key="TimeLapseWatermarkDisabled" value="0"/>
<vectornator:setting key="Units" value="Points"/>
<vectornator:setting key="DynamicGuides" value="0"/>
<vectornator:setting key="IsolateActiveLayer" value="0"/>
<vectornator:setting key="SnapToGrid" value="0"/>
</metadata>
<defs/>
<g id="person_11" vectornator:layerName="person_11">
<path stroke="#020202" stroke-width="0.75" d="M73.5+72.8C73.5+72.8+74.2+83.1+74.9+84.1C75.6+85.1+78.2+86.1+80.5+87L85.8+89C85.8+89+82.6+95.1+77.8+98C73+100.9+59.2+100.6+53.9+99.3C48.6+98+38.6+88.1+38.6+88.1C38.6+88.1+50.1+84.8+51.7+83.7C53.3+82.6+53.1+72.8+53.1+72.8L73.5+72.8Z" fill="#fce7d4" stroke-linecap="butt" opacity="1" stroke-linejoin="miter"/>
<path stroke="#020202" stroke-width="0.75" d="M7.4+125.3C9.9+113.6+9+97.5+21.9+92.3C22.1+92.2+24.2+91.2+24.4+91.1C29.8+88.4+36.3+85.8+41.7+83.2C42.8+82.7+43.9+82.1+44.9+81.6C45.7+81.3+46.4+80.7+46.9+79.9C48.3+78.1+51.3+78.2+51.4+75.5C51.4+75+51.4+74.5+51.4+74C51.6+73.5+51.7+73+51.8+72.5C51.8+72.4+51.4+68.9+51.4+68.9C51.4+68.9+58+79.4+63.8+81.2L65.4+87.3L66.7+80.8C73.7+78.7+75.6+68.9+75.6+68.9C75.4+67.7+75.6+72.2+75.6+72.4C75.7+73+75.4+73.5+75.5+74C75.6+74.7+75.9+75.3+76.3+75.8C76.7+76.4+77.3+76.8+77.8+77.3C78.1+77.8+78.5+78.4+78.7+79C79.2+79.7+79.9+79.8+80.6+80.2C81.6+80.7+82+81.1+83+81.6L88.8+84.7C93+86.9+97.1+89+101.4+91C106.6+93.3+112.4+97.6+114.6+101.6C116.8+105.6+119.1+124.9+119.1+124.9" fill="#2b2b2c" stroke-linecap="butt" opacity="1" stroke-linejoin="miter"/>
<path stroke="#020202" stroke-width="0.75" d="M25.7+125.3C26+123.1+25.2+117.2+26.6+116.3C27+116+28.4+116.3+28.9+116.3L89.4+116.3C92.5+116.3+95.9+115.8+99+116.3C99.2+118.3+98.8+118.7+99+120.7C99.2+122.8+100+122.8+100.3+125" fill="#d4d4d4" stroke-linecap="butt" opacity="1" stroke-linejoin="miter"/>
<path stroke="#020202" stroke-width="0.75" d="M81+52.7C81+52.7+80.5+61.3+80.3+62C80+63.2+79.5+64.3+78.9+65.3C75.8+70.9+71.4+77.8+64.2+77.4C57.4+77+55+73.5+51.1+68.4C49.3+66.2+47.9+63.7+47+61.1C46.8+59.8+46.8+58.4+46.8+57L46.3+57.1C46.3+57.1+46.2+58+45.5+58.1C44.4+58.2+43.7+56.8+43.4+56C42.9+54.6+43.1+53.1+43.1+51.4C43.1+49.7+40.5+45.4+43.1+44C44.9+43.1+44.6+44.3+45.2+45.8C45.4+46.3+45.5+46.8+45.6+47.3L45.9+47.2C45.9+47.2+45.9+44.4+45.9+42.4C46+38.8+44.9+34.7+46.2+31.2C50.8+19.7+55+19.3+65.4+19C74.7+18.7+79.9+26.2+80.6+29.7C81.2+32.5+81.5+35.3+81.4+38.1C81.3+40.6+81+47+81+47L81.3+47.1C81.6+46.1+82.1+45+82.5+44C82.8+43.2+83.8+42.8+84.6+43.1C85.4+43.4+85.8+44.4+85.5+45.2L85.5+45.2C85.2+46.2+84.7+49.1+84.5+50.2C84.4+51.1+84.4+51.9+84.5+52.8C84.5+53.6+84.2+56.3+83+56.2C82.3+56.2+80.6+56.2+81+52.7Z" fill="#fce7d4" stroke-linecap="butt" opacity="1" stroke-linejoin="miter"/>
<path stroke="#231f20" stroke-width="0.75" d="M63.4+53.5C64.3+54.2+65.3+54.6+66.4+54.8C72+55.3+63.8+60+62.8+58.1" fill="none" stroke-linecap="butt" opacity="1" stroke-linejoin="miter"/>
<path stroke="#020202" stroke-width="0.75" d="M76+17.7C77+19.1+78+20.6+78.9+22.1C79.7+23.7+82.3+30.1+81.7+33.1C81.3+36.1+81.1+39+81.1+42C81.1+42.3+80.1+38.1+78.8+37.1C77.5+36.1+75.6+32.7+75.2+29.5C74.8+26.3+74.9+18.2+76+17.7Z" fill="#a4a4a9" stroke-linecap="butt" opacity="1" stroke-linejoin="miter"/>
<path stroke="#020202" stroke-width="0.75" d="M45.5+32.9C45.5+32.9+45.6+27.4+45.5+25.1C45.4+22.8+48.3+18.3+51.1+17.5C53.9+16.7+60.2+13.6+61.4+13.6C62.6+13.6+71.1+14.6+72.7+15.5C74.3+16.4+75.6+15.8+76.3+18.8C77+21.8+76.9+29.4+77.1+31.2C77.2+32.9+77.2+34.5+77.1+36.2L45.5+32.9Z" fill="#2b2b2c" stroke-linecap="butt" opacity="1" stroke-linejoin="miter"/>
<path stroke="#020202" stroke-width="0.75" d="M80.5+40.7C80.5+40.7+80.6+35.4+75.8+34C68.5+32.1+61+31.5+53.5+32.1C49.7+32.3+45.9+32.8+42.2+33.6C40.9+33.9+38+34.3+37.7+36.1C37.6+36.8+38.9+37.1+39.3+37.3C40.9+38+42.6+38.3+44.3+38.4C44.7+38.9+45.1+39.3+45.5+39.7C45.2+38.9+45.5+37.9+46.1+37.4C47.3+36.5+51.9+35.2+58.5+35.1C64.7+35.2+70.9+36+77+37.4C78.5+38+79.8+39.2+80.5+40.7Z" fill="#dadada" stroke-linecap="butt" opacity="1" stroke-linejoin="miter"/>
<path stroke="#020202" stroke-width="0.75" d="M66.3+66C63.5+67.1+60.4+66.7+58+65" fill="none" stroke-linecap="butt" opacity="1" stroke-linejoin="miter"/>
<g opacity="1">
<path stroke="#020202" stroke-width="0.75" d="M70+45.8C70+46.5+70.6+47.1+71.3+47.1C72+46.9+72.4+46.3+72.3+45.6C72.4+45+71.9+44.4+71.3+44.3C70.7+44.2+70.1+44.7+70+45.3C69.9+45.5+69.9+45.7+70+45.8L70+45.8Z" fill="#0096ff" stroke-linecap="butt" opacity="1" stroke-linejoin="miter"/>
<path stroke="#020202" stroke-width="0.75" d="M59.1+45.6C59.3+46.2+59.9+46.6+60.6+46.4C61.3+46.2+61.6+45.6+61.4+44.9C61.2+44.4+60.7+44+60.2+44.1C59.4+44.3+59+44.9+59.1+45.6Z" fill="#0096ff" stroke-linecap="butt" opacity="1" stroke-linejoin="miter"/>
<path stroke="#231f20" stroke-width="0.75" d="M61.1+49.3C61.1+49.3+59.9+50.9+58.8+50.6C58.2+50.4+57.6+50.1+57.1+49.6" fill="none" stroke-linecap="butt" opacity="1" stroke-linejoin="miter"/>
<path stroke="#231f20" stroke-width="0.75" d="M73.2+49.3C73.2+49.3+72+50.9+70.9+50.6C70.3+50.4+69.7+50.1+69.2+49.6" fill="none" stroke-linecap="butt" opacity="1" stroke-linejoin="miter"/>
<path stroke="#231f20" stroke-width="0.75" d="M61.3+40.4C61.3+40.4+59+37.8+57.3+40.7C55.6+43.6+55+45.1+55+45.1" fill="none" stroke-linecap="butt" opacity="1" stroke-linejoin="miter"/>
<path stroke="#231f20" stroke-width="0.75" d="M69.9+40.8C69.9+40.8+71.5+39+73.3+41.4C74.4+42.7+75.2+44.2+75.7+45.8" fill="none" stroke-linecap="butt" opacity="1" stroke-linejoin="miter"/>
</g>
</g>
<g id="Layer_140" vectornator:layerName="Layer_140">
<g opacity="1">
<path stroke="#020202" stroke-width="0.749999" d="M63.2699+97.6994L63.9086+89.0229L63.9086+89.0229L66.9005+89.2431L66.9005+89.2431L66.2618+97.9196L66.2618+97.9196L63.2699+97.6994L63.2699+97.6994Z" fill="#020202" stroke-linecap="butt" opacity="1" stroke-linejoin="miter"/>
<path stroke="#020202" stroke-width="0.75" d="M64.8+85.9L66+85.9L66+85.9L66+89.2L66+89.2L64.8+89.2L64.8+89.2L64.8+85.9L64.8+85.9Z" fill="#020202" stroke-linecap="butt" opacity="1" stroke-linejoin="miter"/>
<path stroke="#020202" stroke-width="0.75" d="M65.2+87C65.2+87+66.3+86.5+65.6+103.4C65+117.2+65.4+125+65.4+125" fill="none" stroke-linecap="butt" opacity="1" stroke-linejoin="miter"/>
</g>
<path stroke="#020202" stroke-width="0.75" d="M42.5672+82.6947C42.8132+82.3045+41.2953+81.9465+41.1017+81.8952C40.0961+81.6287+36.6092+82.2044+37.5146+84.0151C37.8436+84.6732+38.3627+84.8772+38.9915+85.1915C39.0495+85.2205+39.692+85.2415+39.6905+85.3312C39.6893+85.398+39.1109+85.6751+39.0228+85.805C38.3797+86.7532+38.5019+88.1946+39.3298+89.0273C40.0464+89.7481+40.8627+89.9347+41.8862+89.9347C41.9318+89.9347+42.3261+89.9051+42.3408+89.9347C42.8727+91.0077+41.9991+92.3186+43.2583+93.1533C43.722+93.4607+46.3121+93.5822+46.3121+92.8373C46.3121+92.6847+46.2765+93.141+46.2765+93.2936C46.2765+93.5642+46.3327+93.7433+46.4162+93.9938C46.6187+94.6012+47.336+95.3967+47.9852+95.6116C48.5433+95.7963+49.5055+95.8664+50.0576+95.6808C50.389+95.5694+50.5822+94.7231+50.8294+94.9704C50.9064+95.0473+50.8663+95.8146+50.8993+95.947C51.0391+96.5086+52.4181+97.3631+52.9644+97.4991C53.5527+97.6456+54.4736+97.2987+54.9801+97.0421C55.158+96.9521+55.2575+96.4761+55.3998+96.6159C55.5383+96.752+55.5875+97.4635+55.6442+97.6912C55.8118+98.3644+57.0634+99.094+57.6533+99.2644C58.4411+99.4919+59.5329+99.5988+60.2525+99.1626C60.6156+98.9425+60.866+98.51+61.2248+98.3276C61.258+98.3107+61.4255+98.0672+61.4349+98.0789C61.7354+98.451+61.7178+98.9776+61.9985+99.3294C62.9035+100.464+66.0728+100.565+67.3346+100.279C68.0231+100.123+68.3962+99.5069+68.6315+98.9086C68.7177+98.6893+68.5199+98.2166+68.7555+98.2126C68.8227+98.2114+69.7337+98.9939+69.7953+99.023C70.7063+99.453+73.407+100.387+74.2428+99.6473C74.996+98.9807+75.3543+97.7414+75.3543+96.7712C75.3543+96.5883+75.6633+96.9794+75.8401+97.0259C76.1592+97.1098+76.6031+97.1173+76.9124+97.1433C77.9269+97.2285+78.7911+97.0677+79.3978+96.177C79.8454+95.5197+80.9201+94.0298+81.0366+93.1455C81.0622+92.9512+81.3086+91.9924+81.2299+91.6777C81.2104+91.5996+80.9953+91.2543+81.0523+91.2159C82.2858+90.3842+83.8808+90.5968+84.2625+88.7925C84.3495+88.3815+83.4757+87.4491+83.5611+87.2723C83.8224+86.7313+85.0274+86.8999+85.2572+85.9134C85.4308+85.1678+84.5763+84.5179+84.1722+84.1138C83.8749+83.8165+84.9568+83.7165+85.1873+83.3648C85.6346+82.6823+84.569+82.6982+84.566+82.1643C84.565+81.9824+85.121+81.7324+84.9164+81.4256C84.3663+80.6004+82.6597+79.5454+81.7411+80.4484C81.4712+80.7137+82.3079+81.077+82.6863+81.077C82.6979+81.077+82.7329+81.077+82.7212+81.077C82.2701+81.077+81.9967+81.7304+82.0463+82.121C82.0696+82.3046+82.2977+82.6551+82.4304+82.7887C82.5194+82.8781+82.8715+82.9988+82.7453+82.9988C81.6461+82.9988+80.5537+84.0534+80.7175+85.2445C80.7909+85.7778+80.8571+85.8109+81.2004+86.1542C81.2201+86.1739+81.4374+86.3379+81.4105+86.3644C80.8495+86.9159+79.2307+86.0949+79.0004+87.465C78.9321+87.8713+78.8516+88.622+79.0444+89.0075C79.2004+89.3194+79.6236+89.7558+79.3749+90.0003C78.7081+90.6558+76.9861+89.8183+76.4627+91.1135C76.2695+91.5916+76.6341+94.0955+76.6138+94.1155C76.2912+94.4326+74.4757+93.0355+73.8154+93.4682C72.6755+94.2153+72.1841+97.1644+71.8315+97.28C71.7302+97.3132+71.5078+97.1694+71.4408+97.1023C70.4495+96.111+69.4469+95.6653+68.0162+95.4256C66.3841+95.1521+66.2586+96.8807+65.2503+97.3763C65.0616+97.469+64.571+96.3822+64.4013+96.2329C63.8192+95.7209+62.8595+95.3736+62.099+95.263C61.0724+95.1137+60.0745+94.9416+59.0561+95.1775C58.6053+95.282+57.8963+96.1426+57.5762+96.1372C57.2815+96.1322+57.4689+95.5547+57.3685+95.2775C57.0983+94.5316+56.7148+93.8551+56.1295+93.3725C55.129+92.5477+54.214+93.0158+53.31+93.7163C53.2362+93.7735+52.959+93.9656+52.9192+93.9258C52.3496+93.3562+52.6009+92.1041+52.0601+91.5633C51.3037+90.8069+50.1303+91.1518+49.261+91.3357C48.9746+91.3963+48.7451+91.5159+48.515+91.6855C48.4214+91.7545+48.2664+92.0469+48.2664+91.9305C48.2664+90.2554+48.1374+89.9796+46.639+89.5228C45.9579+89.3152+45.3023+89.3389+44.61+89.509C44.5286+89.529+44.3686+89.6626+44.3686+89.5788C44.3686+88.3491+44.7626+87.253+43.1572+87.0857C43.0192+87.0713+42.2832+87.1322+42.1915+87.0405C42.1629+87.0119+42.4736+86.6839+42.4913+86.657C42.7104+86.3241+43.0348+85.6145+42.87+85.1939C42.5966+84.496+41.6249+83.9922+41.1252+83.4925C41.0889+83.4562+41.3366+83.3859+41.3702+83.3859C41.5527+83.3859+42.1803+83.1608+42.3083+83.0307C42.4074+82.9299+42.4918+82.8143+42.5672+82.6947Z" fill="#fff95a" stroke-linecap="butt" opacity="1" stroke-linejoin="miter"/>
<path stroke="#020202" stroke-width="0.75" d="M46.3081+80.4532C46.5654+80.1771+46.358+80.9095+46.3735+81.0806C46.4117+81.5034+46.6698+82.0477+46.7985+82.4599C47.2877+84.027+48.0792+85.077+49.3814+86.0567C52.6066+88.4832+58.293+89.469+62.2008+89.6698C65.9913+89.8645+69.7332+89.5604+72.9225+87.2783C74.6007+86.0775+76.9294+82.7599+78.0931+80.9842C78.4075+80.5046+78.7079+79.9798+79.1774+79.741C81.2681+78.6776+77.9908+82.9237+77.8125+83.1866C77.3545+83.8621+77.256+84.8381+76.7426+85.4733C75.4088+87.1237+74.076+88.6594+72.0423+89.4964C66.7763+91.6636+61.4486+91.3241+56.0626+90.1219C54.2995+89.7283+52.4121+89.5037+50.7385+88.7432C48.0755+87.533+44.8182+84.0719+45.4282+80.9692C45.4674+80.77+46.1331+80.6411+46.3081+80.4532Z" fill="#fff95a" stroke-linecap="butt" opacity="1" stroke-linejoin="miter"/>
<path stroke="#020202" stroke-width="0.75" d="M65.4646+101.16C65.1082+101.026+63.8094+103.224+64.178+103.592C64.5356+103.95+65.5885+103.786+66.045+103.67C66.1095+103.654+67.2306+103.677+67.2305+103.67C67.2288+103.568+65.7942+101.285+65.4646+101.16Z" fill="#fff95a" stroke-linecap="butt" opacity="1" stroke-linejoin="miter"/>
<path stroke="#020202" stroke-width="0.75" d="M65.4863+105.092C65.9135+104.933+64.4109+105.297+64.066+105.468C62.8761+106.058+61.7224+106.806+61.5355+108.255C61.0551+111.976+61.6906+115.897+66.5592+115.221C70.2129+114.713+70.9202+111.201+69.979+108.114C69.6671+107.092+67.8047+106.016+66.9186+105.516C66.4876+105.273+65.0519+105.254+65.4863+105.092Z" fill="#fff95a" stroke-linecap="butt" opacity="1" stroke-linejoin="miter"/>
<path stroke="#020202" stroke-width="0.75" d="M56.5362+22.2939C56.3664+21.8621+53.2553+26.0288+52.6188+26.5906C52.4538+26.7361+51.7038+27.5835+51.7975+27.6773C52.0147+27.8944+53.2447+28.7717+53.5791+28.6021C55.3596+27.6991+57.0835+25.0236+58.1747+23.3586C58.1948+23.3279+57.7959+23.2166+57.7274+23.1618C57.3428+22.8541+56.7091+22.7338+56.5362+22.2939Z" fill="#ffffff" stroke-linecap="butt" opacity="1" stroke-linejoin="miter"/>
<path stroke="#020202" stroke-width="0.75" d="M62.9434+21.1298C61.3988+21.4642+59.7327+24.4182+58.6479+25.5628C58.6314+25.5803+55.7692+28.3711+55.7646+28.637C55.761+28.8491+56.1895+28.6202+56.401+28.637C57.3088+28.7093+58.2837+28.7594+59.194+28.699C59.2031+28.6984+60.6564+26.6267+60.987+26.2937C61.5682+25.7084+65.3587+21.8675+65.1521+21.4543C64.9805+21.1109+63.2974+21.0531+62.9434+21.1298Z" fill="#ffffff" stroke-linecap="butt" opacity="1" stroke-linejoin="miter"/>
<path stroke="#020202" stroke-width="0.75" d="M69.1878+20.413C68.2571+20.5159+67.5832+22.1621+66.803+22.9005C65.1903+24.4266+63.413+25.779+61.8377+27.3474C61.5534+27.6305+60.4591+29.0356+60.1423+29.0356C59.8851+29.0356+60.6508+28.9528+60.9075+28.9368C61.45+28.9031+62.0454+29.0297+62.5807+28.9368C63.919+28.7046+64.7823+27.048+65.7771+26.1203C67.2903+24.7092+68.964+23.4545+70.3974+22.0064C70.5594+21.8427+71.4008+20.772+71.2463+20.5403C71.0164+20.1955+69.6576+20.361+69.1878+20.413Z" fill="#ffffff" stroke-linecap="butt" opacity="1" stroke-linejoin="miter"/>
<path stroke="#020202" stroke-width="0.75" d="M15.8586+97.3953C16.1512+96.7016+14.2231+98.6899+13.8441+99.2536C12.7499+100.881+11.6898+102.922+11.266+104.875C10.4423+108.672+9.24519+112.371+8.51873+116.18C8.22651+117.712+8.34981+119.467+7.97325+120.954C7.94659+121.059+7.14387+125.186+7.18996+125.279C7.19995+125.299+7.37862+125.276+7.40008+125.279C7.73109+125.324+9.92579+125.201+10.1618+124.721C10.2202+124.602+9.96162+124.528+9.92939+124.399C9.7835+123.818+9.77219+123.214+9.73974+122.623C9.61431+120.341+9.46153+118.037+9.7283+115.762C10.4937+109.236+13.4019+103.22+15.8586+97.3953Z" fill="#ffffff" stroke-linecap="butt" opacity="1" stroke-linejoin="miter"/>
<path stroke="#020202" stroke-width="0.75" d="M16.5417+101.144C15.2431+101.159+14.7204+104.357+14.2444+105.632C12.7785+109.557+12.7485+113.817+11.5375+117.815C11.3148+118.551+11.4045+119.783+11.0733+120.434C10.6912+121.185+11.4197+124.787+10.8024+125.384C10.7836+125.402+10.8461+125.348+10.8722+125.348C11.2325+125.348+12.1467+124.782+12.4226+124.501C12.4771+124.446+12.9434+120.55+12.9434+120.167C12.9434+117.596+12.8781+114.604+13.5581+112.105C14.1814+109.814+15.8546+107.979+16.4583+105.653C16.7439+104.553+18.074+101.126+16.5417+101.144Z" fill="#ffffff" stroke-linecap="butt" opacity="1" stroke-linejoin="miter"/>
<path stroke="#020202" stroke-width="0.75" d="M17.0131+110.933C15.4176+114.385+15.9664+118.743+15.1987+122.42C14.9849+123.444+15.1027+124.546+14.9236+125.576C14.9151+125.624+14.7947+125.942+14.8525+125.962C16.2713+126.432+16.9508+124.722+16.9508+123.695C16.9508+120.807+17.1263+118.077+16.911+115.19C16.8345+114.165+16.7386+112.98+16.8376+111.957C16.8663+111.66+16.9514+111.342+17.008+111.054C17.0374+110.904+17.2781+110.509+17.1922+110.635C17.1269+110.731+17.0617+110.828+17.0131+110.933Z" fill="#ffffff" stroke-linecap="butt" opacity="1" stroke-linejoin="miter"/>
<path stroke="#020202" stroke-width="0.75" d="M112.826+101.231C113.161+100.127+114.005+101.795+114.275+102.479C115.044+104.424+115.46+106.322+116.12+108.298C116.415+109.182+116.28+110.203+116.467+111.12C117.085+114.145+117.833+117.082+118.228+120.15C118.355+121.135+119.003+123.589+118.516+124.546C118.441+124.694+118.189+124.595+118.026+124.626C117.38+124.745+117.485+123.456+117.317+122.824C116.771+120.769+116.699+118.233+116.445+116.092C116.01+112.432+114.512+108.892+113.754+105.278C113.493+104.03+112.472+102.4+112.826+101.231Z" fill="#ffffff" stroke-linecap="butt" opacity="1" stroke-linejoin="miter"/>
<path stroke="#020202" stroke-width="0.75" d="M111.671+106.824C111.722+106.608+111.774+106.38+111.901+106.198C111.992+106.07+112.068+106.468+112.116+106.618C112.309+107.219+112.477+107.827+112.653+108.433C112.914+109.332+113.263+110.187+113.441+111.116C114.049+114.287+114.634+117.418+115.207+120.596C115.307+121.153+116.35+124.674+115.831+124.878C115.785+124.897+115.195+124.991+115.192+124.983C114.28+123.037+114.182+120.175+113.84+118.024C113.262+114.386+110.821+110.398+111.671+106.824Z" fill="#ffffff" stroke-linecap="butt" opacity="1" stroke-linejoin="miter"/>
<path stroke="#020202" stroke-width="0.75" d="M111.302+114.931C111.654+115.283+112.932+121.627+112.966+122.15C113.019+122.951+113.648+124.309+112.91+124.671C112.874+124.689+112.699+124.889+112.697+124.881C112.323+123.287+112.568+121.656+112.176+120.073C111.746+118.332+111.401+116.596+111.074+114.847C110.931+114.08+110.515+113.4+110.515+112.659" fill="#ffffff" stroke-linecap="butt" opacity="1" stroke-linejoin="miter"/>
</g>
</svg>
