<?xml version="1.0" encoding="utf-8"?>
<!-- Generator: Adobe Illustrator 24.3.0, SVG Export Plug-In . SVG Version: 6.00 Build 0)  -->
<svg version="1.1" id="Layer_1" xmlns="http://www.w3.org/2000/svg" xmlns:xlink="http://www.w3.org/1999/xlink" x="0px" y="0px"
	 width="125px" height="130.1px" viewBox="0 0 125 130.1" style="enable-background:new 0 0 125 130.1;" xml:space="preserve">
<style type="text/css">
	.st0{fill:#D8821D;stroke:#020202;stroke-width:0.75;stroke-miterlimit:10;}
	.st1{fill:#E8D5AA;stroke:#020202;stroke-width:0.75;stroke-miterlimit:10;}
	.st2{fill:none;stroke:#020202;stroke-miterlimit:10;}
	.st3{fill:#EFEEED;stroke:#020202;stroke-width:0.75;stroke-miterlimit:10;}
	.st4{fill:#FFFFFF;stroke:#020202;stroke-width:0.75;stroke-miterlimit:10;}
	.st5{fill:none;stroke:#020202;stroke-width:0.75;stroke-miterlimit:10;}
	.st6{fill:#6A3E00;stroke:#000000;stroke-width:0.25;stroke-miterlimit:10;}
	.st7{clip-path:url(#SVGID_2_);}
	.st8{clip-path:url(#SVGID_4_);fill:#B5CCD6;}
	.st9{clip-path:url(#SVGID_4_);fill:none;stroke:#020202;stroke-width:0.75;stroke-linejoin:round;stroke-miterlimit:10;}
	.st10{clip-path:url(#SVGID_4_);fill:#647C83;}
	.st11{clip-path:url(#SVGID_4_);fill:none;stroke:#000000;stroke-width:0.75;stroke-linejoin:round;stroke-miterlimit:10;}
	.st12{clip-path:url(#SVGID_4_);fill:#D7E3EE;}
</style>
<g id="turtleneck">
	<path class="st0" d="M115.4,114c-2.7-5-7-9-12.2-11.4c-4.6-2.1-9.1-4.4-13.6-6.8c-2.1-1.1-4.2-2.2-6.3-3.4c-1-0.6-1.5-1-2.6-1.5
		c-0.5-0.3-1.1-0.4-1.6-0.7s-0.9-1.8-1.3-2.2c-1.3-1.2-2.2-1.9-2.6-3.5c-0.1-0.4,0.2-1.5,0.1-2c0-0.2-0.1-5,0-3.7l-26.1-0.2
		c0,0,0.4,3.8,0.4,3.9c0,0.8-0.7,1.7-0.5,2.5c0.1,0.8,0,1.5-0.3,2.2c-0.5,1.4-2.3,1.5-3.4,2.3s-1.3,2-2.7,2.6s-2.7,1.3-4,1.9
		c-5.9,2.8-11.7,5.7-17.6,8.6c-0.2,0.1-0.5,0.2-0.7,0.3c-9.6,3.9-12.6,13.5-14.6,22.9c-0.7,3.3-1,4.4-1,4.4l115.4-0.3
		C120.3,129.9,117.7,118.4,115.4,114z"/>
</g>
<path id="head-3" class="st1" d="M83.8,53.5c0,0,1.6-10.9,1.5-13.1c-0.2-3.4-0.8-7-2.9-9.8c-3.7-5-9.6-9.3-15.9-10.4
	s-12.6,1-17.8,4.3c-0.9,0.6-1.8,1.2-2.7,1.9c-6.2,4.8-9.3,9.8-7.8,17.7s1.8,8.3,1.8,8.3s-0.5-3.6-2.2-4.9s-4-1.8-5,0.8
	c-0.9,2.4-0.6,5.2,0.9,7.3c1.4,2.1,2.8,7.4,3.1,8.8c0.3,1.4,2,2.6,3,3.3c0.8,0.3,1.6,0.3,2.4,0c0,0,0.4,4.4,1.6,6.2
	c3.8,5.3,10.3,11.3,17.1,11.7c6.6,0.4,11.6-3.7,16-8.1c0.6-0.6,4-3.9,4.4-4.9c0.3-1.7,0.5-3.5,0.5-5.3c0,0,1.8,1.5,2.5,0.9
	c0.7-0.6,2.1-0.9,2.8-2.1s0.4-4.4,1.3-5.8s2.1-2.4,2.9-4.4s1.4-4.9,0-7c-0.9-1.4-2.8-1.9-4.3-1c0,0-0.1,0-0.1,0.1
	C85.5,49.5,84.4,51.5,83.8,53.5z"/>
<path id="nose-4" class="st1" d="M65.9,55.4c1-0.1,1.7-0.6,2.3,0.5s1.4,3.2,0.7,4.5s-3.5,3.1-5.5,1.2l-2-1.9c0,0-1.6,1.7-2.4,0.5
	c-0.6-0.7-0.6-1.7,0-2.3c0.3-0.3,1.1-0.2,1.1-0.2"/>
<path class="st2" d="M56.6,35.6c0,0,1.5-10.9,4.7-11.7"/>
<path class="st2" d="M62.5,35.6c0,0,1.5-10.9,4.7-11.7"/>
<g>
	<path class="st3" d="M40.3,54.1C42,52,41.6,49,41,46.4c-1-4-2.6-8-2.3-12.2c0,0.5-5.3,3.6-5.8,4.2c-0.3,0.3-0.5,0.6-0.6,0.9
		c-0.1,0.4-0.1,0.9,0,1.4c0.7,2.9,2.9,5.2,4.7,7.6C38.3,50.1,39.4,52.1,40.3,54.1z"/>
	<path class="st3" d="M83.8,54.1c-1.8-2-1.6-5-1-7.6c0.8-4.1,2.2-8.1,1.8-12.3c0.1,0.5,5.4,3.4,6,4c0.3,0.3,0.5,0.6,0.7,0.9
		c0.1,0.4,0.1,0.9,0,1.4c-0.6,2.9-2.7,5.3-4.4,7.8C85.6,50,84.6,52,83.8,54.1z"/>
</g>
<g id="glasses">
	<circle class="st4" cx="53.1" cy="46.5" r="5.4"/>
	<circle class="st4" cx="71.8" cy="46.5" r="5.4"/>
	<path class="st5" d="M66.3,46.5c-1.1-0.9-2.4-1.5-3.9-1.6c-1.4,0.1-2.8,0.6-3.9,1.6"/>
</g>
<g id="mouth-2">
	<path class="st1" d="M58.6,62.9c0,0-4.7,3-5.6,4.3s-2,5.9-0.8,7"/>
	<path class="st1" d="M71.3,62.9c0,0,2.2,3,3.7,4.7c1.5,1.7,0.9,5.9-0.4,6.6"/>
	<line class="st5" x1="59.2" y1="70.1" x2="67.2" y2="70.1"/>
	<path class="st5" d="M60.8,78.1c0,0,3.9-1.2,5.9,0"/>
</g>
<circle class="st6" cx="53.1" cy="46.5" r="0.8"/>
<circle class="st6" cx="72.1" cy="46.5" r="0.8"/>
<g id="Artwork_80_1_">
	<g>
		<defs>
			<rect id="SVGID_1_" x="39.7" y="49.6" width="45.6" height="36.8"/>
		</defs>
		<clipPath id="SVGID_2_">
			<use xlink:href="#SVGID_1_"  style="overflow:visible;"/>
		</clipPath>
		<g class="st7">
			<defs>
				<rect id="SVGID_3_" x="39.7" y="49.6" width="45.6" height="36.8"/>
			</defs>
			<clipPath id="SVGID_4_">
				<use xlink:href="#SVGID_3_"  style="overflow:visible;"/>
			</clipPath>
			<path class="st8" d="M40.2,53.4c0,0,8,0.9,11.8,0.1c3.9-0.8,5.5-3.4,10-3.4c4.4,0,6.8,2,11.8,2.3c5,0.3,9.3,0,9.1,1.1
				c-0.4,2.2,1.9-1.9,1.9-1.9l-0.9,2c0,0-0.6,1.3-0.9,2.7c-0.4,1.4,0.5,1.6-0.6,3.9c-1.1,2.2-0.9,3.8-1.1,4.8
				c-0.1,1.1-1.4,0.7-0.2,2.1c1.2,1.4,2.3,3.8,2.8,4.5c0.5,0.7-2.5,0.9-2.5,0.9s-8,8.3-9.4,9.7c-1.4,1.4-8.8,3.6-10.7,3.8
				c-1.9,0.1-9.3-2.6-12-5.1s-5.3-6.7-6.3-7.4c-1.1-0.7-0.8,0.7-0.7-0.8c0.1-1.5-0.2-3.3-0.2-3.3l0.9-3.4L40.2,53.4z"/>
			<path class="st9" d="M40.2,53.4c0,0,8,0.9,11.8,0.1c3.9-0.8,5.5-3.4,10-3.4c4.4,0,6.8,2,11.8,2.3c5,0.3,9.3,0,9.1,1.1
				c-0.4,2.2,1.9-1.9,1.9-1.9l-0.9,2c0,0-0.6,1.3-0.9,2.7c-0.4,1.4,0.5,1.6-0.6,3.9c-1.1,2.2-0.9,3.8-1.1,4.8
				c-0.1,1.1-1.4,0.7-0.2,2.1c1.2,1.4,2.3,3.8,2.8,4.5c0.5,0.7-2.5,0.9-2.5,0.9s-8,8.3-9.4,9.7c-1.4,1.4-8.8,3.6-10.7,3.8
				c-1.9,0.1-9.3-2.6-12-5.1s-5.3-6.7-6.3-7.4c-1.1-0.7-0.8,0.7-0.7-0.8c0.1-1.5-0.2-3.3-0.2-3.3l0.9-3.4L40.2,53.4z"/>
			<path class="st10" d="M42.4,73.3c0.3,0.1-0.6-1,0.6-1c0.6,0,2.8,1.9,6,4.1c3.7,2.5,8.7,5.2,13.9,5c5.2-0.2,10.1-3.9,14-6.8
				c3.3-2.4,6.1-4,6.3-4.1c0.3-0.1,0.2,0.3,0.4,0.7c0.2,0.3,0.7,0.5,0.3,1c-0.2,0.2-0.9,0.4-1.4,0.4c-0.5,0-0.7-0.1-0.9,0.1
				c-0.5,0.5-1.2,1-1.7,1.6c-2,2.5-8.1,9.6-11.3,9.9c-1,0.1-3.3,1.7-6.4,1.9c-3,0.1-6.9-1.3-9.1-2.7c-2.9-1.9-4.9-3.9-5.7-4.7
				c-1.9-2-3.5-4.4-3.5-4.4L42.4,73.3z"/>
			<path class="st11" d="M42.4,73.3c0.3,0.1-0.6-1,0.6-1c0.6,0,2.8,1.9,6,4.1c3.7,2.5,8.7,5.2,13.9,5c5.2-0.2,10.1-3.9,14-6.8
				c3.3-2.4,6.1-4,6.3-4.1c0.3-0.1,0.2,0.3,0.4,0.7c0.2,0.3,0.7,0.5,0.3,1c-0.2,0.2-0.9,0.4-1.4,0.4c-0.5,0-0.7-0.1-0.9,0.1
				c-0.5,0.5-1.2,1-1.7,1.6c-2,2.5-8.1,9.6-11.3,9.9c-1,0.1-3.3,1.7-6.4,1.9c-3,0.1-6.9-1.3-9.1-2.7c-2.9-1.9-4.9-3.9-5.7-4.7
				c-1.9-2-3.5-4.4-3.5-4.4L42.4,73.3z"/>
			<path class="st12" d="M84.8,51.5l-0.9,2c0,0-0.2,0.4-0.4,1c-0.2,0.5-0.4,1-0.5,1.7c-0.7,0.6-7.8-0.7-8.5-0.8
				c0,0-9.4-2.1-12.2-1.9c-2.7,0.2-5.6,2.1-10.4,3c-4.8,0.9-11,0-11,0l-0.8-3.1c0,0,8,0.9,11.8,0.1c3.9-0.8,5.5-3.4,10-3.4
				s6.8,2,11.8,2.3c5,0.3,9.3,0,9.1,1.1C82.5,55.5,84.7,51.7,84.8,51.5"/>
			<path class="st11" d="M84.8,51.5l-0.9,2c0,0-0.2,0.4-0.4,1c-0.2,0.5-0.4,1-0.5,1.7c-0.7,0.6-7.8-0.7-8.5-0.8
				c0,0-9.4-2.1-12.2-1.9c-2.7,0.2-5.6,2.1-10.4,3c-4.8,0.9-11,0-11,0l-0.8-3.1c0,0,8,0.9,11.8,0.1c3.9-0.8,5.5-3.4,10-3.4
				s6.8,2,11.8,2.3c5,0.3,9.3,0,9.1,1.1C82.5,55.5,84.7,51.7,84.8,51.5z"/>
		</g>
	</g>
</g>
</svg>
