<svg id="Layer_1" data-name="Layer 1" xmlns="http://www.w3.org/2000/svg" viewBox="0 0 111.54 122.85"><defs><style>.cls-1{fill:#fce7d4;}.cls-1,.cls-2,.cls-4,.cls-6,.cls-8{stroke:#020202;}.cls-1,.cls-11,.cls-2,.cls-3,.cls-4,.cls-5,.cls-6,.cls-7{stroke-miterlimit:10;}.cls-1,.cls-10,.cls-11,.cls-2,.cls-3,.cls-4,.cls-5,.cls-6,.cls-7,.cls-8,.cls-9{stroke-width:0.75px;}.cls-11,.cls-2{fill:none;}.cls-3{fill:#dcb1e0;}.cls-10,.cls-11,.cls-3,.cls-5,.cls-9{stroke:#000;}.cls-4{fill:#008e19;}.cls-5,.cls-6{fill:#fff;}.cls-7{fill:#a5e5cf;stroke:#a5e5cf;}.cls-8{fill:#b5ccd6;}.cls-10,.cls-8,.cls-9{stroke-linejoin:round;}.cls-9{fill:#647c83;}.cls-10{fill:#d7e3ee;}</style></defs><path id="neck-2" class="cls-1" d="M51.2,80.5s-.3,12-.7,13.3S43,96,41.4,97.9s1,5.4,2.2,6.7c5.8,6.5,20.5,7.2,28.3,5.6,4.3-.9,13.8-6.2,14.6-11.2.4-2.4-6.8-3.8-8.5-4.9s-2.5-13.9-2.5-13.9Z" transform="translate(-6.63 -12.12)"/><path id="head-3" class="cls-1" d="M62.5,36a29.71,29.71,0,0,0-10.2,1.5,9.88,9.88,0,0,0-5.5,3.9,12.56,12.56,0,0,0-1.3,3.7c-1.1,4.8-1.9,9.5-2.6,14.4-.3-.8-.2-1.5-.5-2a1.23,1.23,0,0,0-2,.5,4.34,4.34,0,0,0,.5,2.5,11.42,11.42,0,0,1,.9,2.6c.5,3.1-.3,3.3,0,5.7A2.48,2.48,0,0,0,43,70.4c.2.1,1.2.4,1.2-.1a34.76,34.76,0,0,0,1.1,8.5c1.1,3.4,4.6,6.1,7.1,8.3a27.86,27.86,0,0,0,6.3,4.5c6.2,2.8,12.3-1.2,15.7-6.4,2.3-3.5,5.4-5.9,5.8-10a23,23,0,0,0,.5-4.5c0-.4.6-.3.8-.3,1.7.1,2-2.3,2.2-3.6.3-2.1.2-4.4,1-6.4.4-1,1.6-2.5.3-3.4a2.11,2.11,0,0,0-2.4,0c-.9.6-.9,1.6-1.2,2.5a53.37,53.37,0,0,0-2-13.2,11.77,11.77,0,0,0-1.6-3.8,13.29,13.29,0,0,0-5.7-4.8,21.34,21.34,0,0,0-4.9-1.5C65.8,36.1,64.2,36,62.5,36Z" transform="translate(-6.63 -12.12)"/><path id="nose-4" class="cls-2" d="M63,68.1c-1.2,3.5-8.2,2.7-8.4,4.6-.2,2.9,5.1,2.4,7.3,1.4" transform="translate(-6.63 -12.12)"/><path class="cls-3" d="M80.9,57.5s.3-10.6-2.8-12.2c-2.8-1.5-5.6-3.2-8.8-3.6a67,67,0,0,0-10-.5c-2.7.2-8.1-.1-10,2.4-1.5,2-5.2,18.6-6,17.5a15.62,15.62,0,0,1-2.5-6.6,24.59,24.59,0,0,1,1.5-12.6c1.6-3.8,0-2.7,2.3-6.1A25.65,25.65,0,0,1,52.1,29c1.1-.6.8-1.1,1.2-1.2.2-.1.5-.2.6-.4,0,0-1.2-2.5-1.6-3.6a25.33,25.33,0,0,1-1.2-3.6,4.19,4.19,0,0,1,.8-3.6c.8-.9,2.1-2.5,3.2-2.8a10.55,10.55,0,0,1,5.3.2c.9.3,1.5.7,2.2.4s1.8-1.8,2.8-1.9c1.8,0,5.2,1.5,5.7,3.4s.1,1.7,1.7,2.7,3,4.2,3.4,6c.3,1.3,0,3.1-1.7,3.6-.6.2-1.6.4-1.6.4s1.7,1.1,1.8,1.8v1.2l.6.9s7.3,3.1,8.1,6,.3,3.8,1.2,4.8a7.5,7.5,0,0,1,1.6,5,35.87,35.87,0,0,1-1.1,7.2c-.2.9-1.8,3.1-2.3,4s-1.5,3-1.9,2.7S80.9,58,80.9,57.5Z" transform="translate(-6.63 -12.12)"/><path class="cls-2" d="M54,27.5a6.27,6.27,0,0,1,3.8-.6,22.85,22.85,0,0,1,3.7,1.2" transform="translate(-6.63 -12.12)"/><path class="cls-2" d="M73.2,28.6s-6.3.1-9.8-5" transform="translate(-6.63 -12.12)"/><path class="cls-2" d="M62.8,14.4a8.37,8.37,0,0,0,1.4,4c2.1,3.4,4.1,4,4.1,4" transform="translate(-6.63 -12.12)"/><path class="cls-2" d="M56.7,13.8a6.49,6.49,0,0,0,.1,6.2,12.43,12.43,0,0,0,3.5,4.4" transform="translate(-6.63 -12.12)"/><path class="cls-2" d="M76,32.6c-.1.2-.5-.4-3.5-1.2" transform="translate(-6.63 -12.12)"/><path class="cls-2" d="M57.4,39c-1.3-1-3.2-2.8-2.8-4.7a7.12,7.12,0,0,1,2.8-3.6" transform="translate(-6.63 -12.12)"/><path class="cls-2" d="M71.2,39.7s4.6-1.9,3.6-4.2" transform="translate(-6.63 -12.12)"/><path class="cls-2" d="M62.8,38.7s3.5-.9,2.4-3.8a14.73,14.73,0,0,1-1.1-4.6" transform="translate(-6.63 -12.12)"/><g id="eyes-7"><path class="cls-2" d="M65.8,53.5c4.3-.6,9.5-5.3,11.3-1.2" transform="translate(-6.63 -12.12)"/><path class="cls-2" d="M57.7,57c-2.8-.6-9.5-4.9-11.3-.8" transform="translate(-6.63 -12.12)"/><circle class="cls-4" cx="64.67" cy="49.37" r="1.2"/><circle class="cls-4" cx="46.57" cy="49.37" r="1.2"/><path class="cls-2" d="M67.7,60.7s3.4-1.7,4.7-1.2S74.1,61,74.8,61" transform="translate(-6.63 -12.12)"/><path class="cls-2" d="M56.1,61.8s-1.2-2.8-2.7-2.4a15.83,15.83,0,0,0-3.1.9" transform="translate(-6.63 -12.12)"/></g><path id="shirt-3" class="cls-5" d="M7,134.7c.6-6.8,1.8-12.4,2.6-17.1s1-6.6,3.4-10.7,6.6-5.3,11-6.1c4.6-.9,6.6-2,11.3-2.6A38.55,38.55,0,0,0,43,95.7c.9-.4.3,7.6,7.8,11.3a28,28,0,0,0,27.3-1.8c3.4-2.3,4.7-5.9,6.9-9.5,3.3.7,6.4,2.1,9.7,3.1,5.5,1.8,15.4,1.3,17.7,8.2,2.7,8,3.7,19.1,5.4,27.9" transform="translate(-6.63 -12.12)"/><line id="beauty_mark" data-name="beauty mark" class="cls-2" x1="69.37" y1="51.47" x2="69.37" y2="52.47"/><path id="mouth-4" class="cls-6" d="M66.7,82.9c0,2-4,2.2-4.5,2.2s-.9-1.6-.9-3.6.4-3.6.9-3.6S66.7,80.9,66.7,82.9Z" transform="translate(-6.63 -12.12)"/><g id="stripe"><polygon class="cls-7" points="109.07 115.17 1.57 115.17 0.97 118.78 109.67 118.78 109.07 115.17"/><polygon class="cls-7" points="108.17 106.88 2.97 106.88 2.37 110.58 108.77 110.58 108.17 106.88"/><path class="cls-7" d="M43.3,111h-32a4.92,4.92,0,0,0-.6,1.7c-.2.6-.3,1.5-.4,1.9H50Z" transform="translate(-6.63 -12.12)"/><path class="cls-7" d="M37.8,102.4l-18.6.2a1.7,1.7,0,0,0-.7.1,4.67,4.67,0,0,0-1,.5,13.39,13.39,0,0,1-1.2.6,8,8,0,0,0-2.1,2l-.2.3,25.4-.1c-.3-.5-.2-.3-.3-.7-.3-.6-.5-1.1-.8-1.7A6.12,6.12,0,0,1,37.8,102.4Z" transform="translate(-6.63 -12.12)"/><path class="cls-7" d="M88.3,102.6l19.9.2h.1l.2.1a7.26,7.26,0,0,1,.9.5c.3.2.4.4.6.5a4.74,4.74,0,0,1,1,1,3.59,3.59,0,0,1,.7,1c0,.1.1.2.1.3H85.9c.4-.4.2-.3.4-.8a16.29,16.29,0,0,0,1.1-1.7A3.33,3.33,0,0,0,88.3,102.6Z" transform="translate(-6.63 -12.12)"/><path class="cls-7" d="M82.1,111h31.1s.4,1.5.4,1.7a13.62,13.62,0,0,1,.4,2H74.6l2.5-1.1a22.88,22.88,0,0,0,2.3-1l1.5-.8.8-.4C81.8,111.1,82,111,82.1,111Z" transform="translate(-6.63 -12.12)"/></g><path class="cls-8" d="M43.3,61.1s6.19,4,9.59,3.31,4.85-3,8.74-3,6,1.73,10.38,2,8.14,0,8,1c-.31,2,.9-2.14.9-2.14l0,2.22a14.74,14.74,0,0,0-.82,2.37c-.31,1.23.41,1.44-.52,3.39a10.36,10.36,0,0,0-.92,4.22c-.11.93-1.24.62-.21,1.85a36.26,36.26,0,0,1,2.47,3.91c.41.62-2.16.82-2.16.82s-7,7.31-8.23,8.54-7.72,3.19-9.36,3.29-8.13-2.24-10.5-4.5-4.63-5.89-5.55-6.5-.69.6-.59-.74a15.65,15.65,0,0,0-.14-2.94l.83-3Z" transform="translate(-6.63 -12.12)"/><path class="cls-9" d="M44.43,81.81c.24.06-.57-.85.54-.92.55,0,2.49,1.7,5.23,3.57,3.25,2.2,7.62,4.57,12.16,4.39s8.85-3.42,12.29-5.93a53.91,53.91,0,0,1,5.53-3.63c.26-.11.2.3.38.6s.6.48.23.86a2.31,2.31,0,0,1-1.26.38c-.42,0-.66-.06-.81.11-.44.46-1,.86-1.48,1.42-1.79,2.16-7.09,8.42-9.91,8.7-.89.09-2.87,1.54-5.65,1.63a15.44,15.44,0,0,1-8-2.4,30.66,30.66,0,0,1-5-4.1,33.19,33.19,0,0,1-3.06-3.85Z" transform="translate(-6.63 -12.12)"/><path class="cls-10" d="M80.74,61.5v2.92s-.17.37-.37.92-.32.92-.46,1.45c-.62.53-6.8-.59-7.41-.72,0,0-8.28-1.83-10.67-1.65s-4.94,1.83-9.13,2.65-9-2.82-9-2.82L43.3,61.1s6.06,4,9.45,3.31,4.85-3,8.75-3,6,1.73,10.37,2,8.15,0,8,1C79.56,66.25,80.64,61.67,80.74,61.5Z" transform="translate(-6.63 -12.12)"/><g id="shirt_seams" data-name="shirt seams"><path class="cls-11" d="M37.2,97.8s1,7.1,4.7,11.3,9.1,6.7,20.9,6.7,18.1-4.1,19.9-5.9,6-8.3,8.2-12.5" transform="translate(-6.63 -12.12)"/></g><path id="shirt-3-2" data-name="shirt-3" class="cls-11" d="M7,134.7c.6-6.8,1.8-12.4,2.6-17.1s1-6.6,3.4-10.7,6.6-5.3,11-6.1c4.6-.9,6.6-2,11.3-2.6A38.55,38.55,0,0,0,43,95.7c.9-.4.3,7.6,7.8,11.3a28,28,0,0,0,27.3-1.8c3.4-2.3,4.7-5.9,6.9-9.5,3.3.7,6.4,2.1,9.7,3.1,5.5,1.8,15.4,1.3,17.7,8.2,2.7,8,3.7,19.1,5.4,27.9" transform="translate(-6.63 -12.12)"/></svg>