<?xml version="1.0" encoding="UTF-8" standalone="no"?> <!-- Created with Vectornator for iOS (http://vectornator.io/) --><!DOCTYPE svg PUBLIC "-//W3C//DTD SVG 1.1//EN" "http://www.w3.org/Graphics/SVG/1.1/DTD/svg11.dtd">
<svg height="100%" style="fill-rule:nonzero;clip-rule:evenodd;stroke-linecap:round;stroke-linejoin:round;" xmlns:xlink="http://www.w3.org/1999/xlink" xmlns="http://www.w3.org/2000/svg" xml:space="preserve" width="100%" xmlns:vectornator="http://vectornator.io" version="1.1" viewBox="0 0 125 134.8">
<metadata>
<vectornator:setting key="DimensionsVisible" value="1"/>
<vectornator:setting key="PencilOnly" value="0"/>
<vectornator:setting key="SnapToPoints" value="0"/>
<vectornator:setting key="OutlineMode" value="0"/>
<vectornator:setting key="CMYKEnabledKey" value="0"/>
<vectornator:setting key="RulersVisible" value="1"/>
<vectornator:setting key="SnapToEdges" value="0"/>
<vectornator:setting key="GuidesVisible" value="1"/>
<vectornator:setting key="DisplayWhiteBackground" value="0"/>
<vectornator:setting key="doHistoryDisabled" value="0"/>
<vectornator:setting key="SnapToGuides" value="1"/>
<vectornator:setting key="TimeLapseWatermarkDisabled" value="0"/>
<vectornator:setting key="Units" value="Points"/>
<vectornator:setting key="DynamicGuides" value="0"/>
<vectornator:setting key="IsolateActiveLayer" value="0"/>
<vectornator:setting key="SnapToGrid" value="0"/>
</metadata>
<defs/>
<g id="person_14" vectornator:layerName="person_14">
<path stroke="#020202" stroke-width="0.75" d="M51.8+80.2C51.8+80.2+51.5+92.1+51.1+93.4C50.7+94.7+43.7+95.6+42+97.5C40.3+99.4+43+102.9+44.2+104.2C50+110.6+64.6+111.4+72.3+109.7C76.5+108.8+86.1+103.5+86.9+98.6C87.3+96.2+80.1+94.8+78.4+93.7C76.7+92.6+75.9+79.9+75.9+79.9L51.8+80.2Z" fill="#fce7d4" stroke-linecap="butt" opacity="1" stroke-linejoin="miter"/>
<path stroke="#020202" stroke-width="0.75" d="M110.4+121C107.9+116.3+107.2+111.3+101.1+108.6C96.1+106.4+97.2+104.5+92.4+101.9C90.1+100.7+88.8+98.9+86.5+97.7C85.4+97.1+84.9+96.6+83.8+96C83.2+95.7+82.6+95.6+82.1+95.3C81.6+95+81.1+93.3+80.7+92.9C79.3+91.6+78.3+90.9+77.9+89.1C77.8+88.7+78.1+87.5+78+86.9C78+86.7+77.9+81.5+78+82.9L49.9+82.7L50.4+86.9C50.4+87.8+49.7+88.8+49.8+89.6C49.9+90.4+49.8+91.3+49.4+92C48.9+93.5+46.9+93.6+45.7+94.4C44.5+95.2+44.3+96.6+42.9+97.2C41.5+97.8+40+98.6+38.6+99.3C32.3+102.3+31.2+104.5+24.9+107.5C24.7+107.6+24.4+107.8+24.1+107.9C21.5+109.2+17.7+110.8+15.2+113.9C12.7+117+11.1+129+10.4+132.6" fill="#0b0b7f" stroke-linecap="butt" opacity="1" stroke-linejoin="miter"/>
<path stroke="#020202" stroke-width="0.75" d="M63+35.3C59.6+35.2+56.1+35.7+52.9+36.8C50.7+37.4+48.8+38.8+47.4+40.7C46.8+41.9+46.3+43.1+46.1+44.4C45+49.1+44.2+53.9+43.5+58.7C43.3+57.9+43.3+57.3+43+56.7C42.7+56.1+41.2+56.2+41+57.2C40.9+58.1+41.1+58.9+41.4+59.7C41.8+60.5+42.1+61.4+42.3+62.3C42.8+65.4+41.8+64.9+42.1+67.3C42.3+68+42.7+68.5+43.3+68.8C43.5+68.9+44.5+69.2+44.5+68.7C44.8+71.8+45.5+74.9+46.5+77.9C48.9+85.3+56.5+91.3+64.2+91.3C71.5+91.3+76.7+84.9+78.9+78.1C79.9+75.4+80.6+72.7+81.1+69.9C81.2+69.5+81.7+69.6+81.9+69.6C83.6+69.7+83.9+67.3+84.1+66.1C84.4+64+84.3+61.8+85.1+59.8C85.5+58.8+86.7+57.3+85.4+56.4C84.7+55.9+83.7+55.9+83+56.4C82.3+57+82.3+58+82+58.9C81.9+54.4+81.2+50+80+45.7C79.7+44.3+79.2+43.1+78.4+41.9C77+39.8+75+38.2+72.8+37.1C71.3+36.4+69.6+35.9+68+35.7C66.3+35.5+64.7+35.3+63+35.3Z" fill="#fce7d4" stroke-linecap="butt" opacity="1" stroke-linejoin="miter"/>
<g opacity="1">
<path stroke="#000000" stroke-width="0.75" d="M81.3+57.3C81.3+57.3+81.6+46.8+78.5+45.1C75.8+43.6+72.9+41.9+69.8+41.6C66.5+41.2+63.1+41+59.8+41.1C57.1+41.3+51.7+40.9+49.8+43.5C48.3+45.5+44.6+62+43.8+60.9C42.5+58.9+41.6+56.7+41.3+54.3C40.7+50.1+41.3+45.7+43+41.8C44.6+38.1+43+39.2+45.3+35.8C47.3+33.1+49.9+30.7+52.8+29C53.9+28.4+53.6+28+54+27.8C54.2+27.7+54.4+27.6+54.6+27.4C54.6+27.4+53.4+24.9+53+23.8C52.5+22.6+52.1+21.4+51.8+20.2C51.5+18.9+51.9+17.6+52.6+16.6C53.4+15.7+54.6+14.1+55.8+13.8C57.6+13.4+59.4+13.5+61.1+14C62+14.3+62.6+14.7+63.3+14.4C64+14.1+65.1+12.6+66.1+12.6C67.9+12.6+71.3+14.1+71.8+16C72.3+17.9+71.9+17.7+73.5+18.6C75.1+19.5+76.5+22.8+76.9+24.6C77.2+25.9+76.9+27.7+75.2+28.2C74.6+28.4+73.7+28.6+73.7+28.6C73.7+28.6+75.4+29.6+75.5+30.4C75.5+30.8+75.5+31.2+75.5+31.6C75.7+31.9+75.9+32.2+76.1+32.5C76.1+32.5+83.4+35.6+84.2+38.5C85+41.4+84.6+42.2+85.4+43.3C86.5+44.7+87.1+46.5+86.9+48.3C86.8+50.7+86.4+53.1+85.8+55.5C85.6+56.4+84+58.6+83.5+59.5C83+60.4+82+62.5+81.6+62.2C81.2+61.9+81.3+57.8+81.3+57.3Z" fill="#332e28" stroke-linecap="butt" opacity="1" stroke-linejoin="miter"/>
<path stroke="#020202" stroke-width="0.75" d="M54.5+27.4C55.7+26.8+57+26.6+58.3+26.8C59.6+27.1+60.8+27.5+62+28" fill="none" stroke-linecap="butt" opacity="1" stroke-linejoin="miter"/>
<path stroke="#020202" stroke-width="0.75" d="M73.7+28.5C73.7+28.5+67.4+28.5+63.9+23.5" fill="none" stroke-linecap="butt" opacity="1" stroke-linejoin="miter"/>
<path stroke="#020202" stroke-width="0.75" d="M63.3+14.4C63.4+15.8+63.9+17.2+64.7+18.4C66.8+21.8+68.8+22.4+68.8+22.4" fill="none" stroke-linecap="butt" opacity="1" stroke-linejoin="miter"/>
<path stroke="#020202" stroke-width="0.75" d="M57.2+13.8C56.2+15.7+56.2+18+57.3+19.9C58.1+21.6+59.3+23.1+60.8+24.2" fill="none" stroke-linecap="butt" opacity="1" stroke-linejoin="miter"/>
<path stroke="#020202" stroke-width="0.75" d="M76.4+32.5C76.4+32.7+75.9+32.1+73+31.3" fill="none" stroke-linecap="butt" opacity="1" stroke-linejoin="miter"/>
<path stroke="#020202" stroke-width="0.75" d="M57.9+38.8C56.6+37.8+54.7+36+55.1+34.1C55.6+32.6+56.6+31.4+57.9+30.5" fill="none" stroke-linecap="butt" opacity="1" stroke-linejoin="miter"/>
<path stroke="#020202" stroke-width="0.75" d="M71.6+39.6C71.6+39.6+76.1+37.7+75.2+35.4" fill="none" stroke-linecap="butt" opacity="1" stroke-linejoin="miter"/>
<path stroke="#020202" stroke-width="0.75" d="M63.3+38.5C63.3+38.5+66.8+37.6+65.7+34.7C65.1+33.2+64.7+31.7+64.6+30.1" fill="none" stroke-linecap="butt" opacity="1" stroke-linejoin="miter"/>
</g>
<path stroke="#020202" stroke-width="0.75" d="M63.7+64.6C62.6+70+58.5+70.6+58.3+72.4C58.1+75.3+62.4+75.2+64.6+74.1" fill="none" stroke-linecap="butt" opacity="1" stroke-linejoin="miter"/>
<g opacity="1">
<path stroke="#020202" stroke-width="0.75" d="M66.3+53.3C70.5+52.7+75.7+48+77.5+52.1" fill="none" stroke-linecap="butt" opacity="1" stroke-linejoin="miter"/>
<path stroke="#020202" stroke-width="0.75" d="M58.2+54.6C55.5+54+48.7+49.7+46.9+53.8" fill="none" stroke-linecap="butt" opacity="1" stroke-linejoin="miter"/>
<path stroke="#020202" stroke-width="0.75" d="M70.5+61.3C70.5+60.6373+71.0373+60.1+71.7+60.1C72.3627+60.1+72.9+60.6373+72.9+61.3C72.9+61.9627+72.3627+62.5+71.7+62.5C71.0373+62.5+70.5+61.9627+70.5+61.3Z" fill="#744100" stroke-linecap="butt" opacity="1" stroke-linejoin="miter"/>
<path stroke="#020202" stroke-width="0.75" d="M52.5+61.2C52.5+60.5373+53.0373+60+53.7+60C54.3627+60+54.9+60.5373+54.9+61.2C54.9+61.8627+54.3627+62.4+53.7+62.4C53.0373+62.4+52.5+61.8627+52.5+61.2Z" fill="#744100" stroke-linecap="butt" opacity="1" stroke-linejoin="miter"/>
<path stroke="#020202" stroke-width="0.75" d="M68.4+61.2C68.4+61.2+71.3+58.8+72.7+59C74.1+59.2+74.7+60.1+75.4+60" fill="none" stroke-linecap="butt" opacity="1" stroke-linejoin="miter"/>
<path stroke="#020202" stroke-width="0.75" d="M56.6+61.5C56.1+60.6+55.4+59.9+54.5+59.3C53.7+58.8+52.3+58.7+50+59.4" fill="none" stroke-linecap="butt" opacity="1" stroke-linejoin="miter"/>
</g>
<path stroke="#000000" stroke-width="0.75" d="M6.7+135.2C7.8+128.6+9.1+121.7+9.9+117C10.7+112.3+10.8+110.5+13.2+106.5C15.6+102.5+20.4+101.1+24.7+100.3C29.3+99.4+31.3+98.3+35.9+97.7C38.6+97.2+41.1+96.3+43.6+95.2C44.5+94.8+43.9+102.7+51.3+106.4C60.1+110.5+70.3+109.9+78.5+104.6C81.9+102.4+83.2+98.8+85.4+95.1C88.7+95.7+91.8+97.1+95+98.2C100.5+100+110.1+99.6+112.6+106.3C115.4+114.2+116.3+127+118.1+135.2" fill="#6f33aa" stroke-linecap="butt" opacity="1" stroke-linejoin="miter"/>
<g opacity="1">
<path stroke="#020202" stroke-width="0.75" d="M83.5+98.5L88.6+101.8" fill="none" stroke-linecap="butt" opacity="1" stroke-linejoin="miter"/>
<path stroke="#020202" stroke-width="0.75" d="M80.1+103.4L83.9+108.4" fill="none" stroke-linecap="butt" opacity="1" stroke-linejoin="miter"/>
<path stroke="#020202" stroke-width="0.75" d="M74.1+107L76.7+113.1" fill="none" stroke-linecap="butt" opacity="1" stroke-linejoin="miter"/>
<path stroke="#020202" stroke-width="0.75" d="M66.1+109.1L66.4+115.3" fill="none" stroke-linecap="butt" opacity="1" stroke-linejoin="miter"/>
<path stroke="#020202" stroke-width="0.75" d="M59.1+109.1L57.4+115" fill="none" stroke-linecap="butt" opacity="1" stroke-linejoin="miter"/>
<path stroke="#020202" stroke-width="0.75" d="M52.3+107.2L48.1+113" fill="none" stroke-linecap="butt" opacity="1" stroke-linejoin="miter"/>
<path stroke="#000000" stroke-width="0.75" d="M48.1+104.4L42.3+107.8" fill="none" stroke-linecap="butt" opacity="1" stroke-linejoin="miter"/>
<path stroke="#000000" stroke-width="0.75" d="M44.7+98.9L38.7+100.6" fill="none" stroke-linecap="butt" opacity="1" stroke-linejoin="miter"/>
<path stroke="#000000" stroke-width="0.75" d="M37.8+97.3C37.8+97.3+38.8+104.4+42.5+108.6C46.2+112.8+51.5+115.2+63.3+115.2C75.1+115.2+81.3+111.1+83.1+109.3C86.3+105.5+89+101.3+91.3+97" fill="none" stroke-linecap="butt" opacity="1" stroke-linejoin="miter"/>
</g>
<g opacity="1">
<path stroke="#000000" stroke-width="0.75" d="M71.2+115.2C71.2+115.2+74.3+124.4+72.9+127.6C71.5+130.3+69.8+132.9+67.9+135.2" fill="none" stroke-linecap="butt" opacity="1" stroke-linejoin="miter"/>
<path stroke="#000000" stroke-width="0.75" d="M54.5+115.2C54.5+115.2+50.3+125+52.8+129C53.9+130.7+55.8+132.9+57.7+135.2" fill="none" stroke-linecap="butt" opacity="1" stroke-linejoin="miter"/>
<path stroke="#000000" stroke-width="0.75" d="M63.7+116.4C63.7+116.4+61.7+122.1+63.4+126.7C64.6+129.9+66.8+132.6+68.6+135.4" fill="none" stroke-linecap="butt" opacity="1" stroke-linejoin="miter"/>
<path stroke="#000000" stroke-width="0.75" d="M63+118.7C63.7+120.3+64.1+122+64.3+123.7C64.4+125+64.2+126.3+63.6+127.5" fill="none" stroke-linecap="butt" opacity="1" stroke-linejoin="miter"/>
</g>
<path stroke="#020202" stroke-width="0.749976" d="M58.1049+82.3284C58.0571+81.2802+60.1651+80.3326+62.8132+80.2118C65.4613+80.0911+67.6468+80.843+67.6946+81.8912C67.7424+82.9395+65.6344+83.8871+62.9862+84.0078C60.3381+84.1285+58.1526+83.3766+58.1049+82.3284Z" fill="#ffffff" stroke-linecap="butt" opacity="1" stroke-linejoin="miter"/>
<path d="M83.7+54.3C81+53.8+78.3+53.6+75.5+53.7C72.2+54.1+69+54.7+65.8+55.4C65+55.6+64.2+55.8+63.3+55.8C62.2+55.7+61+55.5+60+55.1C57.8+54.5+55.6+54.1+53.4+53.9C50.8+53.7+48.2+53.7+45.6+53.8C43.1+54.1+42.8+54.3+42.8+54.5L43.2+57C43.4+57.1+43.6+57.1+43.7+57.2C43.9+57.3+44+57.5+44.1+57.7C44.2+57.9+45.7+62.9+45.8+63.2C46+63.7+46.3+64.2+46.6+64.6C47.2+65.2+47.9+65.7+48.7+66C49.6+66.3+50.5+66.5+51.5+66.6C52.6+66.7+53.7+66.7+54.8+66.5C56+66.3+57.2+65.8+58.2+65C59.1+64.2+59.9+63.2+60.4+62.1C60.7+61.4+61.7+59+62+58.7C62.3+58.3+62.8+58.1+63.3+58.2C63.9+58.2+64.4+58.5+64.7+59C65+59.6+65.9+61.8+66.5+62.9C67.3+64.6+68.9+65.8+70.7+66.3C72.7+66.9+74.9+66.8+76.9+66.2C77.7+66+78.5+65.6+79.2+65.1C79.7+64.7+80.1+64.2+80.4+63.6C80.7+63+81.6+59.6+81.7+59.2C81.8+58.5+82.1+57.9+82.4+57.4C82.6+57.2+82.9+57.1+83.2+57L83.6+54.5C83.7+54.5+83.7+54.4+83.7+54.3ZM58.8+61.2C58.3+62.3+57.6+63.3+56.8+64.2C55.5+65+53.9+65.4+52.3+65.2C50.9+65.2+49.6+64.9+48.4+64.2C47.5+63.8+47.2+62.7+46.8+61.7C46.4+60.3+46.3+58.8+46.3+57.4C46.3+57.3+46.3+57.3+46.3+57.2C46.3+56.8+46.5+56.4+46.8+56.1C47.8+55.2+49.3+55.2+50.6+55.1C52+55+53.5+55.1+54.9+55.3C56.2+55.5+59.2+55.8+59.5+57.7C59.3+58.9+59.1+60.1+58.8+61.2ZM79.6+61.7C79.2+62.7+78.8+63.9+78+64.2C76.8+64.9+75.4+65.2+74.1+65.2C72.5+65.4+71+65+69.7+64.2C68.9+63.3+68.2+62.3+67.7+61.2C67.3+60.1+67.1+59+67.1+57.8C67.3+56.4+69.2+55.8+70.4+55.6C72+55.3+73.7+55.1+75.4+55.1C76.7+55.1+78.6+55.1+79.6+56.1C79.9+56.4+80.1+56.8+80.1+57.2C80.1+57.2+80.1+57.3+80.1+57.4C80.1+58.9+79.9+60.3+79.6+61.7Z" opacity="1" fill="#d329f7"/>
<g opacity="1">
<path stroke="#020202" stroke-width="0.75" d="M40.9+71.8C40.9+69.867+41.9745+68.3+43.3+68.3C44.6255+68.3+45.7+69.867+45.7+71.8C45.7+73.733+44.6255+75.3+43.3+75.3C41.9745+75.3+40.9+73.733+40.9+71.8Z" fill="#f7de48" stroke-linecap="butt" opacity="1" stroke-linejoin="miter"/>
<path stroke="#000000" stroke-width="0.75" d="M42.5+68.3L40.7+65.9L42.5+65.9L43.6+63.3L44.5+65.9L46.3+65.9L44.3+68.3L42.5+68.3" fill="#3caa33" stroke-linecap="butt" opacity="1" stroke-linejoin="miter"/>
<path stroke="#020202" stroke-width="0.75" d="M80.8+71.4C80.8+69.5775+81.8745+68.1+83.2+68.1C84.5255+68.1+85.6+69.5775+85.6+71.4C85.6+73.2225+84.5255+74.7+83.2+74.7C81.8745+74.7+80.8+73.2225+80.8+71.4Z" fill="#f7de48" stroke-linecap="butt" opacity="1" stroke-linejoin="miter"/>
<path stroke="#000000" stroke-width="0.75" d="M82.1+68.2L80.3+65.7L82.1+65.8L83.2+63.1L84.1+65.8L85.9+65.8L83.9+68.2L82.1+68.2" fill="#3caa33" stroke-linecap="butt" opacity="1" stroke-linejoin="miter"/>
</g>
</g>
</svg>
