<?xml version="1.0" encoding="utf-8"?>
<!-- Generator: Adobe Illustrator 24.0.3, SVG Export Plug-In . SVG Version: 6.00 Build 0)  -->
<svg version="1.1" id="Layer_1" xmlns="http://www.w3.org/2000/svg" xmlns:xlink="http://www.w3.org/1999/xlink" x="0px" y="0px"
	 viewBox="0 0 125 124.5" style="enable-background:new 0 0 125 124.5;" xml:space="preserve">
<style type="text/css">
	.st0{fill:#A56621;stroke:#000000;stroke-width:0.75;stroke-miterlimit:10;}
	.st1{fill:#D7F6F9;stroke:#020202;stroke-width:0.75;stroke-miterlimit:10;}
	.st2{fill:#202133;stroke:#000000;stroke-width:0.75;stroke-miterlimit:10;}
	.st3{fill:#23211B;stroke:#000000;stroke-width:0.75;stroke-miterlimit:10;}
	.st4{fill:#6A3E00;stroke:#020202;stroke-width:0.75;stroke-miterlimit:10;}
	.st5{fill:none;stroke:#020202;stroke-width:0.75;stroke-miterlimit:10;}
	.st6{fill:#F7DE48;stroke:#020202;stroke-width:0.75;stroke-miterlimit:10;}
	.st7{fill:#FFFFFF;stroke:#020202;stroke-width:0.75;stroke-miterlimit:10;}
	.st8{fill:#AF1804;stroke:#020202;stroke-width:0.75;stroke-miterlimit:10;}
	.st9{fill:#FFFFFF;stroke:#FFFFFF;stroke-width:0.5;stroke-miterlimit:10;}
</style>
<title>Artboard 54 copy</title>
<g id="Layer_150">
	<path id="neck-2" class="st0" d="M77.4,81.2c0,0-0.7-0.3-0.7-0.9v-6.5l-25.3,1.3c0,0,0.3,7.7-0.3,8.4c0,0-1.5,1.9-0.6,3.7
		s6.8,5.7,10.9,6.3s14.2-0.2,16-2.6S80.9,82.3,77.4,81.2z"/>
	<path id="face-2" class="st0" d="M81.2,57.3c0,0-0.5,9-0.7,9.7c-0.3,1.2-0.8,2.4-1.4,3.5c-1.6,2.6-3.4,5-5.4,7.3
		c-0.9,1-3,4-4.2,4.3c-1.9,0.5-3.8,0.8-5.7,0.9c-1.2-0.1-5.6-0.7-6.6-1.2s-4.3-4.5-7-8.2s-4.2-6.6-4.3-7.5c-0.2-1.4-0.3-2.8-0.3-4.2
		l-0.5,0.1c0,0-0.1,0.9-0.9,1c-1.2,0.2-1.9-1.3-2.2-2.2c-0.5-1.5-0.3-3.1-0.8-4.6s-3-6.7-1-8c1.7-1.2,3.2,0.5,3.8,2
		c0.2,0.5,0.3,1.1,0.4,1.6l0.3-0.1c0,0,0-2.9,0-4.9c0.1-3.8-1.1-8,0.3-11.7c4.7-12.1,9.1-12.5,19.9-12.9c9.7-0.3,15.1,7.5,15.8,11.1
		c0.6,2.9,0.9,5.8,0.8,8.7c-0.1,2.7-0.5,9.3-0.5,9.3l0.3,0.1c0.4-1.1,0.8-2.2,1.3-3.2c0.3-0.9,1.3-1.3,2.2-0.9
		c0.9,0.3,1.3,1.3,0.9,2.2l0,0c-0.3,1-0.8,4-1,5.2c-0.1,0.9-0.1,1.8,0,2.7c0,0.8-0.3,3.6-1.5,3.6C82.6,61,80.8,61,81.2,57.3z"/>
	<rect x="50.7" y="88.5" class="st1" width="28.6" height="26.5"/>
	<path id="Collar-2" class="st1" d="M48.2,83.9c0.3-0.6,0.5-1.2,0.7-1.9c0.1-0.8,0.3-1.7,0.7-2.4c0.4-0.4,1.6-0.5,1.6-0.5
		s-1,1.5-0.4,2c1.2,1.1,2.4,2.1,3.8,2.9c1.5,0.9,8.2,4.3,8.9,4.7s-0.1,0.5-0.5,0.5c-1.5,0.2-2.8,0.9-4,1.8c-1,1.1-7.5,7.6-7.5,7.6
		S47.7,84.4,48.2,83.9z"/>
	<path id="collar-3" class="st1" d="M77.1,78.8c0,0,0.7-0.3,0.9,0.3s0.4,1.9,0.4,2.3c0.9,0.9,1.8,1.7,2.8,2.4l-2.9,14
		c0,0-6.4-4.7-8.9-6s-5.8-2.7-5.6-2.9s12.7-6.6,13.3-9.4c0-0.1,0-0.3,0-0.4V78.8z"/>
	<path class="st2" d="M59.3,106.7c0,0,1-4.9,1.4-6.2c0.3-1,1.2-4.7,1.2-5s1.7-0.3,2.3-0.4c1.2-0.1,2.2,0,2.4,0.7
		c0.5,1.7,0.9,3.4,1.2,5.2c0.2,1.6,1.6,9.4,1.6,9.9s1.1,3.2,0.9,3.5s-4,0.7-5.2,0.4s-6.4,0.2-6.2-0.4S59.2,107,59.3,106.7z"/>
	<path class="st2" d="M68.1,91c0,0.2-0.1,0.3-0.2,0.4c-0.3,0.4-0.6,0.8-1,1.2c-0.3,0.3-0.4,0.6-0.4,1c0.1,0.2,0.2,0.4,0.3,0.6
		c0.1,0.2,0.1,0.5-0.1,0.6c-0.1,0-0.2,0.1-0.2,0.1c-1.6,0.2-3.1,0.2-4.7,0.1c-0.1,0-0.2,0-0.3-0.1c-0.3-0.2-0.2-0.6,0-0.8
		s0.4-0.6,0.3-0.8c-0.1-0.2-0.2-0.3-0.4-0.4c-0.5-0.3-1.2-0.4-1.7-0.8c-0.2-0.1-0.4-0.3-0.6-0.5c-0.6-1,3.9-2.8,4.8-2.8
		c1.2,0,1.8,0.6,2.6,1c0.5,0.2,0.9,0.5,1.3,0.7C68,90.7,68.1,90.8,68.1,91z"/>
	<path class="st3" d="M46.1,47.6c0,0-1.2,5.8-1.9,4.2s-0.6-2.6-1.1-3.8s-2.3-4.5-2.1-5.1c0.1-2.3,0.1-4.7,0-7
		c-0.1-2.1-0.5-6.7,0.3-8.5c1-1.8,2.3-3.5,3.8-5c0.4-0.2,1.3-0.7,1.3-0.7c0-1.8,1-3.6,2.5-4.5c2.7-1.7,9.2-5,16.1-5.2
		s12.9,6.4,14.4,8.3c0.9,1.2,1.5,2.5,1.8,3.9c0.4,1,0.8,2.1,1.1,3.2c0.1,0.8,0.6,2.9,0.6,3c-0.1,2.7,1.4,2.8,1.4,7v4.4
		c-0.2,1.7-0.5,3.4-0.9,5c-0.5,1.3-0.9,3.9-1.7,4.2s-1.1,0.2-1.1,0.2c0.1-2.8,0.4-5.7,0.4-8.5s-0.1-4.5-2.2-6.4
		c-1.3-1.1-3-1.6-4.6-1.4c-2.4,0.1-6.6,1.6-8-0.2s0.6-3.9-2-4.2c-2.3-0.3-4.7,0.5-7,0.5c-1.4,0.1-3.9,0-5.1-0.9l-0.7-0.5
		c-0.3,1.1-0.7,2.2-1.3,3.2c-0.7,1.2-1.1,2.5-1.3,3.8c-0.2,1.5-1.4,1.7-1.9,3S46.5,45.9,46.1,47.6z"/>
	<path id="Eye" class="st4" d="M58.3,47.9c0,1.3-0.5,2.4-1.2,2.4s-1.2-1.1-1.2-2.4s0-2.4,1.2-2.4C57.9,45.5,58.3,46.6,58.3,47.9z"/>
	<path id="Eye-2" class="st4" d="M74.1,47.5c0,1.4-0.6,2.6-1.2,2.6s-1.2-1.2-1.2-2.6s0-2.6,1.2-2.6C73.7,44.9,74.1,46.1,74.1,47.5z"
		/>
	<path id="eyebrow" class="st5" d="M67.8,40.8c0,0,1.9-1.9,3.8-1.9s2.8,1.9,4.8,2.8"/>
	<path id="eyebrow-2" class="st5" d="M62.1,41.8c-0.9-0.8-1.8-1.4-2.9-1.9c-1.9-1.1-4.3-0.7-5.7,1c-1.9,1.9-1.9,1.9-2.9,1.9"/>
	<path class="st5" d="M65.8,51.2c0,0,2,7.9,2.1,8.6s1.1,3.3,0.8,3.7s-0.3,1.4-1.1,1.6c-0.9,0-1.8,0-2.8-0.1c-0.5-0.1-1-0.2-1.4-0.5
		c0,0-1.1,0.3-1.5,0.1c-0.4-0.3-0.7-0.7-0.7-1.2c0.2-0.5,0.5-1,0.9-1.4"/>
	<path id="Sweater-4" class="st6" d="M122,124.2c0,0-2.4-10.9-4.7-15.3c-2.7-5.1-7-9.1-12.3-11.5c-5.6-2.5-24.7-14.7-24.7-14
		s-2.3,14.2-6.9,20.8s-8.6,9.1-9.2,9.1s-7.1-5-9.7-10.4s-5.3-15.3-5.6-16.3s-0.7-2.6-0.7-2.6s-24,12.6-26.4,13.7s-6,2.7-8.3,5.6
		s-6.7,14.2-7.4,17.5s-0.7,3.6-0.7,3.6"/>
	<path id="mouth-4" class="st7" d="M55.5,65.6c0.9,0.3,1.8,0.9,2.3,1.7c1.1,1.4,2.6,2.4,4.3,2.9c2.4,0.6,3.5,0.8,3.3,2
		s-2.1,1.7-3.3,2.2c-1.9,0.4-4,0.1-5.7-0.9c-1.2-0.7-2-2-2.2-3.4C53.8,68.3,54.1,64.8,55.5,65.6z"/>
	<path class="st8" d="M71.6,9.2c0,0,8.6,4.3,9.7,6.3s2.3,7.4,2.6,11.6c0.2,3.9,0.7,12.6,0.7,13s-3.9-4.3-5.7-6.1
		c-1.4-1.5-6.6-5.8-7.2-9.8S70.2,9.8,71.6,9.2z"/>
	<path id="front_of_hat" class="st8" d="M40.5,29c0,0,0.1-6.6,0-9.4c-0.2-4.8,3.8-7,7.8-8.7c2.7-1.1,7.3-4.2,10.3-4
		C60,7,69.9,7.8,71.5,9.2c4.8,4.1,4.6,10.7,5.4,17.9c0.1,2,0.1,4,0,6L40.5,29z"/>
	<path class="st9" d="M58.5,16.1v4.8c0,0.6,0,1.2-0.2,1.8c-0.2,0.4-0.5,0.7-0.9,0.9c-0.5,0.3-1.1,0.4-1.7,0.4
		c-0.4,0-0.7-0.1-1.1-0.2c-0.2-0.1-0.4-0.4-0.4-0.6c0-0.2,0.1-0.4,0.2-0.5c0.1-0.1,0.3-0.2,0.5-0.2c0.3,0,0.6,0.2,0.7,0.5
		c0.1,0.2,0.2,0.4,0.4,0.4c0.2,0,0.4-0.1,0.4-0.3c0.1-0.4,0.1-0.8,0.1-1.2V18c0-0.2,0-0.4-0.1-0.6c-0.2-0.1-0.4-0.2-0.6-0.2h-0.2
		v-0.6L58.5,16.1z M56.4,13.1c0-0.3,0.1-0.6,0.3-0.8c0.4-0.4,1-0.4,1.4-0.1c0,0,0,0,0.1,0.1c0.4,0.4,0.4,1.1,0,1.5c0,0,0,0,0,0
		c-0.2,0.2-0.5,0.3-0.7,0.3C56.9,14.2,56.4,13.7,56.4,13.1z"/>
	<path class="st8" d="M82.8,38.3c0,0-6.3-7.5-11.9-11c-0.8-0.5-5-4.3-17.8-3.1c-7,0.7-9.4,1-14.6,3.1c-1.7,0.7-7.7,3.2-8.1,5.4
		c-0.1,0.8,2,1.6,2.6,1.7c2,0.6,4.1,1,6.2,1.2c0.5,0.6,1,1.1,1.5,1.6c-0.2-1.1-0.2-2.2,0.8-3c1.5-1.2,7.6-2.8,16.3-2.9
		c6.5-0.1,12.9,0.7,19.2,2.2C78.8,34.1,82.8,38.3,82.8,38.3z"/>
</g>
</svg>
