<?xml version="1.0" encoding="utf-8"?>
<!-- Generator: Adobe Illustrator 24.0.3, SVG Export Plug-In . SVG Version: 6.00 Build 0)  -->
<svg version="1.1" id="Layer_1" xmlns="http://www.w3.org/2000/svg" xmlns:xlink="http://www.w3.org/1999/xlink" x="0px" y="0px"
	 viewBox="0 0 125 125" style="enable-background:new 0 0 125 125;" xml:space="preserve">
<style type="text/css">
	.st0{fill:#F7BB92;stroke:#020202;stroke-width:0.75;stroke-miterlimit:10;}
	.st1{fill:#A56621;stroke:#000000;stroke-width:0.75;stroke-miterlimit:10;}
	.st2{fill:#7F4C0E;stroke:#000000;stroke-width:0.75;stroke-miterlimit:10;}
	.st3{fill:none;stroke:#020202;stroke-width:0.75;stroke-miterlimit:10;}
	.st4{fill:none;stroke:#231F20;stroke-width:0.75;stroke-miterlimit:10;}
	.st5{fill:#FFFFFF;}
	.st6{fill:#0096FF;stroke:#020202;stroke-width:0.75;stroke-miterlimit:10;}
	.st7{fill:#231F20;stroke:#000000;stroke-width:0.75;stroke-miterlimit:10;}
	.st8{fill:#F44711;stroke:#020202;stroke-width:0.75;stroke-miterlimit:10;}
	.st9{fill:#FFFFFF;stroke:#020202;stroke-width:0.75;stroke-miterlimit:10;}
</style>
<title>Artboard 1</title>
<g id="person_9">
	<path id="shirt_1_" class="st0" d="M114.9,125c0-7-0.9-6.1-1.5-11.2c-0.7-6.2-1.9-12.4-3.5-18.4c-2.5-10-10.7-13.2-18.3-17.1
		c-1.9-1-12.8-4.3-12.8-4.3H78c-1.9-0.2-29.8-1.7-29.8-1.7c-9,4.2-21.4,7.5-29.2,14.4c-5.2,4.6-9.3,15.1-9.3,21.7
		c0,1.7-0.4,3.4-0.4,5.1c0,2.2-0.9,4.3-0.9,6.6c0,1.2,0,3.9,0,5"/>
	<g id="head_and_neck">
		<path class="st1" d="M48.1,72.2l-7.3,3.1v10.6v8.2c0,5.5,1.2,9.9,5.6,13.5c4.5,3.8,10.2,6,16.1,6.2c4.8,0.1,9.5-0.8,13.8-2.8
			c2.8-1.3,5.8-3.1,7.3-5.9c2-3.6,1.1-8.1,1.3-12c0.2-5.6,0.3-11.2,0.4-16.8c-2.1-0.9-4.3-1.7-6.6-2.2
			C70.1,71.8,55.1,71.3,48.1,72.2z"/>
		<path id="head-3" class="st1" d="M47.8,81.1c0,0,1-6.2,0.9-7.8s0-7.8,0-7.8c-1-1.4-1.9-2.9-2.6-4.4c-0.6-2-1.4-3.9-2.3-5.8
			c-1.2-2.6-1.1-6.4,0.6-6.7s3.6,1.1,4.3,2.1s3,4.4,3,4.4s0.3-4.8,1-6.4s5.3-8.3,5.8-11s0.3-3.3,0.3-3.3s4.6,2.8,7.8,0.9
			c3.2-1.9,6.9-3.8,6.9-3.8s1.1,3.1,2.1,3.5s6.3,1.2,7,3.2s1.4,7,1,11.9s-1.2,15.4-2.3,18.1c-1.1,2.4-2.3,4.7-3.7,7l1.1,4.4"/>
		<path class="st2" d="M62.3,113.8c0,0,0.3-5.4,0.5-7.3"/>
		<path class="st1" d="M61.5,78.2c0,0,2.7,4.2,7.2,4.2c4.2-0.1,5.2-5.2,5.2-5.2"/>
		<path class="st3" d="M62,85.3c-1.5-0.4-3-0.8-4.5-1.3"/>
		<path class="st4" d="M62.5,79.5c0,0-3.8-0.5-4.9-2.4"/>
		<path class="st4" d="M73.6,29.2c0,0,1.6,0.1,1.6,3.1c0,1.1-0.5,1.2,0.4,1.7c2,1.1,3.9,2.1,5.9,3.1c2.4,1.2,2,4.7,2.3,7
			s-0.3,12.7-1.7,21.5c-0.4,2.1-1.1,4.2-2.1,6.1c-1.6,2.6-3.9,4.9-6.5,6.5"/>
		<path class="st4" d="M49.3,64.7c0.4,0.3,0.9,0.2,1.2-0.1c0.7-0.5,0.9-0.1,0.9-0.1"/>
		<path class="st4" d="M46.3,62.2c-0.5-1-0.4-2.8-1.2-3.9c-1-1.7-1.8-3.6-2.3-5.5c-0.3-1.3,0.3-3.9,1.4-4.2s2.7-0.8,4,1.3
			s3.4,5.2,3.4,5.2s0.1-4.9,1.5-7.5s4.8-6.8,4.8-8.1s1.7-3.6,1.1-4.4s-1.2,0.1,3,0.6s10.2-3.6,11.6-6.1"/>
	</g>
	<g id="earring">
		<path class="st5" d="M46.5,66c-1.6,0-3-1.2-3.1-2.8c-0.1-1.7,1.1-3.2,2.8-3.4h0.3c1.7,0,3.1,1.4,3.1,3.1c0,1.6-1.2,3-2.9,3.1H46.5
			z"/>
		<path d="M46.5,60.2c1.5,0,2.7,1.3,2.6,2.8c0,1.4-1.1,2.5-2.4,2.6h-0.2c-1.5,0-2.7-1.3-2.6-2.8c0-1.4,1.1-2.5,2.4-2.6H46.5
			 M46.5,59.4h-0.3c-1.9,0.2-3.3,1.9-3.1,3.8c0.2,1.7,1.6,3.1,3.4,3.1h0.3c1.9-0.1,3.3-1.8,3.2-3.7C49.9,60.8,48.3,59.4,46.5,59.4
			L46.5,59.4z"/>
	</g>
	<g id="eyes-4">
		<path class="st4" d="M75.1,40.3c0,0,2.9-2.1,4.5,1.7"/>
		<path class="st4" d="M64.3,40c-1.4-0.5-2.9,0-3.8,1.2"/>
		<path class="st6" d="M75.7,55.5c0.2,0.6,0.8,0.9,1.4,0.8s0.9-0.8,0.8-1.4c-0.1-0.5-0.6-0.8-1.2-0.8C76,54.2,75.6,54.8,75.7,55.5
			L75.7,55.5z"/>
		<path class="st6" d="M62.6,55.3c0.2,0.6,0.8,0.9,1.4,0.8c0.6-0.1,0.9-0.8,0.8-1.4c-0.1-0.5-0.6-0.8-1.2-0.8
			C63,54,62.5,54.6,62.6,55.3z"/>
		<path class="st4" d="M78.2,59.7c0,0-0.1,0.4-1.4,0.1s-1.6-0.9-1.6-0.9"/>
		<path class="st4" d="M64.5,58.8c0,0-1.2,1.5-2.2,1.2c-0.6-0.2-1.2-0.5-1.6-0.9"/>
		<path class="st4" d="M64.8,44.6c0,0-2.2-2.5-3.8,0.3s-2.1,4.2-2.1,4.2"/>
		<path class="st4" d="M75.6,45c0,0,1.5-1.7,3.2,0.6c1,1.3,1.8,2.7,2.3,4.2"/>
	</g>
	<path id="nose-4" class="st4" d="M69.3,59.2c0,0,1.7,3.1,3.3,4.1c6.9,4.3-5.4,7-5.9,3.3"/>
	<path id="hair-4" class="st7" d="M43.5,48.7c0,0-2.1-6.9-2.1-10c0-6.7,3.5-13.2,3.5-13.2c-0.2-1.7-0.1-3.4,0.4-5.1
		c0.7-2.3,5.4-7.4,10.1-7.8s8,0.2,9,0.7c1.4,0.8,2.7,1.6,3.9,2.5c2.6-1.2,5.6-1.8,8.5-1.6c4.4,0.4,8.2,1.4,9.7,3.2s3.1,3.6,3.2,6.6
		c0.1,2,0,4-0.1,6.1c0.5,1.6,0.8,3.2,0.7,4.8c-0.1,2.4-1.9,7.4-2.9,9.5c-1.1,2-2.3,3.9-3.6,5.7c0,0-0.2-7.8-0.2-9.2s-1.3-4-3-4.4
		s-4.8-0.7-5.3-1.7s-1.6-3.2-1.6-3.2s-0.8,0.4-3,1.6c-2.2,1.2-3,2.5-4.7,3.1s-4-0.3-4.8-0.5c-0.8-0.4-1.6-0.9-2.4-1.5
		c0.3,1.7,0.3,3.4-0.2,5c-1.1,2.5-2.5,4.8-4.2,6.9c-1.7,2.3-2.7,8.7-2.7,8.7s-4.3-5.8-5.2-6.4C45.5,48.2,44.4,48.2,43.5,48.7z"/>
	<g id="headband">
		<path class="st8" d="M46.7,48.9c1.1,0.9,2.1,1.9,2.9,3.1c1.1-2.6,1.7-5,2.7-7.6c1.4-3,2.9-5.8,4.6-8.6c0.4-1.2,1.2-2.2,2.2-2.9
			c2.3-1.3,4.6-2.8,6.7-4.5c0.9-0.8,2.4-2.6,3.7-2.6c1,0,3.6,2.7,4.6,3c1.6,0.5,2.5,1.5,3.8,2.5c3.7,2.7,4.5,6.5,5,10
			c0.4,2.9,0.9,7.9,1,10.8l3.5-7.7c0,0,0.4-12.8-6.2-16.7c-4.8-2.7-10.1-2.3-12.9-2.2c-3.4,0.1-7.8-0.3-10.7,1.4
			c-3.9,2.1-6.9,5.5-8.7,9.5c-1.4,3.3-3.8,8.5-5.1,11.9C44.8,48.1,45.8,48.3,46.7,48.9z"/>
		<path class="st8" d="M70,24.8c0,0-1.1-4.3-6.5-3.4s-6.9,4.2-9.8,4.3S48.8,26,48.8,26s4.8,4.2,8.8,4.4S66.8,29.5,70,24.8z"/>
		<path class="st8" d="M69.3,25c-0.7-3,3.1-5.5,5.8-5c3.1,0.6,5.2,2.9,7.6,4.7s4.7,1.4,7.4,1.7c0,0-4.4,2.8-8.4,3.1
			c-2.3,0.2-6.2,0-8.2-1.1c-1.7-0.9-3.3-1.2-4-3.1C69.4,25.2,69.3,25.1,69.3,25z"/>
	</g>
	<g id="mouth-3">
		<path class="st9" d="M65.1,71.4c-0.3-0.3-0.5-0.5-0.8-0.8c-0.4-0.4-1.5-2-2.2-1.8s-0.7,2.7-0.7,3.4c0,0.7,0.2,1.5,0.6,2.1
			c0.5,0.5,1.1,0.9,1.8,1.1c0.9,0.3,1.7,0.5,2.6,0.7c0.5,0.1,1,0.1,1.6,0c0.5-0.1,0.9-0.5,1.1-1c0.1-0.5-0.1-1.1-0.6-1.4
			c-0.4-0.3-0.9-0.6-1.3-0.8C66.4,72.5,65.7,72,65.1,71.4z"/>
	</g>
</g>
</svg>
