<?xml version="1.0" encoding="utf-8"?>
<!-- Generator: Adobe Illustrator 24.0.3, SVG Export Plug-In . SVG Version: 6.00 Build 0)  -->
<svg version="1.1" id="Layer_1" xmlns="http://www.w3.org/2000/svg" xmlns:xlink="http://www.w3.org/1999/xlink" x="0px" y="0px"
	 viewBox="0 0 125 125" style="enable-background:new 0 0 125 125;" xml:space="preserve">
<style type="text/css">
	.st0{fill:#FCE7D4;stroke:#020202;stroke-width:0.75;stroke-miterlimit:10;}
	.st1{fill:#202133;stroke:#000000;stroke-width:0.75;stroke-miterlimit:10;}
	.st2{fill:none;stroke:#020202;stroke-width:0.75;stroke-miterlimit:10;}
	.st3{fill:#FFFFFF;stroke:#020202;stroke-width:0.75;stroke-miterlimit:10;}
	.st4{fill:#008E19;stroke:#020202;stroke-width:0.75;stroke-miterlimit:10;}
	.st5{fill:#7F500B;stroke:#020202;stroke-width:0.75;stroke-miterlimit:10;}
</style>
<title>Artboard 25</title>
<g id="person_18">
	<path id="neck-2" class="st0" d="M77,80.6c0,0-0.7-0.3-0.7-0.9V73l-26,1.3c0,0,0.3,7.9-0.3,8.6c0,0-3.1,2.3-2.2,4.2
		c1.9,4,7.2,6.3,11.3,7c5,0.8,12.6,0,17-2.8C79,89.4,80.8,82.3,77,80.6z"/>
	<path id="face-2" class="st0" d="M81,56.1c0,0-0.5,9.2-0.7,9.9c-0.3,1.3-0.8,2.5-1.5,3.6c-1.7,2.6-3.5,5.1-5.5,7.5
		c-1,1-3.1,4.1-4.3,4.5c-1.9,0.5-3.9,0.8-5.8,0.9c-1.2-0.1-5.8-0.7-6.8-1.3s-4.4-4.6-7.2-8.4s-4.3-6.8-4.5-7.7
		c-0.2-1.4-0.2-2.9-0.3-4.3L44,61c0,0-0.1,1-0.9,1.1c-1.2,0.2-1.9-1.3-2.2-2.3c-0.5-1.5-0.3-3.2-0.8-4.8S37,48.2,39,46.8
		c1.8-1.2,3.3,0.5,3.9,2.1c0.2,0.5,0.3,1.1,0.4,1.6l0.3-0.1c0,0,0-3,0-5.1c0.1-3.9-1.1-8.2,0.3-12c4.8-12.4,9.3-12.8,20.4-13.2
		c9.9-0.3,15.5,7.7,16.2,11.4c0.7,3,1,6,0.9,9c-0.2,2.7-0.5,9.5-0.5,9.5l0.3,0.1c0.4-1.1,0.8-2.2,1.3-3.3c0.4-0.9,1.4-1.2,2.3-0.8
		c0.8,0.4,1.1,1.3,0.9,2.1c-0.3,1.1-0.8,4.1-1,5.4c-0.1,0.9-0.1,1.8,0,2.7c0,0.8-0.3,3.7-1.6,3.7C82.4,59.8,80.6,59.9,81,56.1z"/>
	<path id="Sweater-4" class="st1" d="M2.8,125.7c0,0,0.3-1.1,1-4.5s5.2-15,7.6-17.9s6-4.5,8.5-5.7S47,83.4,47,83.4
		c4.8,3.2,10.3,4.9,16.1,5c9.3,0,17-5.6,17-5.6c0-0.7,19.6,11.7,25.3,14.3c5.4,2.5,9.8,6.6,12.6,11.8c2.4,4.5,5,16.4,5,16.4"/>
	<path class="st2" d="M44.3,48.4c0.2,4.1,3.6,7.4,7.7,7.2c3.9-0.1,7.1-3.3,7.2-7.2c0-4,1.1-7.2-7.5-7.2
		C44.8,41.2,44.3,44.4,44.3,48.4z"/>
	<path class="st2" d="M79.5,48.2c-0.1,4.1-3.6,7.2-7.6,7.1c-3.8-0.1-6.9-3.2-7.1-7.1c0-3.9-1.1-7.1,7.3-7.1
		C79.1,41.2,79.5,44.3,79.5,48.2z"/>
	<path class="st2" d="M65.1,47c0,0-3.5-1.7-5.8,0"/>
	<path id="Collar-2" class="st1" d="M47,83.4c0.3-0.6,0.6-1.3,0.7-2c0.1-0.9,0.3-1.7,0.7-2.5c0.4-0.4,1.6-0.5,1.6-0.5s-1,1.5-0.5,2
		c1.2,1.1,2.5,2.1,3.9,3c1.6,0.9,8.4,4.4,9.1,4.8s-0.1,0.5-0.5,0.5s-3.5,0.4-4.5,1.5s-7.3,8.2-7.3,8.2S46.5,83.9,47,83.4z"/>
	<path id="collar-3" class="st1" d="M76.7,78.1c0,0,0.8-0.3,1,0.3s0.4,2,0.4,2.3c0.9,0.9,1.8,1.7,2.8,2.5l-3,14.4
		c0,0-6.6-4.8-9.1-6.2s-5.9-2.8-5.8-3s13-6.8,13.6-9.6c0-0.1,0-0.3,0-0.4L76.7,78.1z"/>
	<line class="st2" x1="59.6" y1="89" x2="59.6" y2="125.5"/>
	<line class="st2" x1="67.8" y1="90.5" x2="67.8" y2="125.5"/>
	<circle id="button" class="st3" cx="63.7" cy="103.2" r="2"/>
	<circle id="button-2" class="st3" cx="63.7" cy="119.2" r="2"/>
	<path id="Eye" class="st4" d="M57.4,46.5c0,1.4-0.6,2.5-1.3,2.5s-1.3-1.1-1.3-2.5s0-2.5,1.3-2.5C57,44,57.4,45.1,57.4,46.5z"/>
	<path id="Eye-2" class="st4" d="M73.6,46c0,1.5-0.6,2.7-1.3,2.7s-1.3-1.2-1.3-2.7s0-2.7,1.3-2.7C73.2,43.3,73.6,44.5,73.6,46z"/>
	<path id="undereye" class="st2" d="M57.2,50.3c-0.6,0.6-1.4,1-2.2,1.1c-1.1,0-2.7-0.6-3-1.3"/>
	<path id="undereye-2" class="st2" d="M68.8,50.5c0.9,0.7,1.9,1.1,3,1.3c1-0.1,2-0.7,2.5-1.5"/>
	<path class="st2" d="M65.2,49.9c0,0,2.1,8.1,2.2,8.8s1.2,3.4,0.8,3.8s-0.3,1.5-1.1,1.6c-0.9,0.1-1.9,0-2.8-0.1
		c-0.5-0.1-1-0.2-1.4-0.5c0,0-1.1,0.3-1.5,0.1c-0.4-0.3-0.7-0.8-0.7-1.3c0.2-0.5,0.5-0.9,0.9-1.3"/>
	<path class="st5" d="M81,25.2h-0.5c0.3,0.2,0.5-0.4,0.4-0.8c-1.6-4.9-6-8.7-10.9-10.4c-5.2-1.8-12.8-2.3-17.6,0.9
		c-4.5,2.9-7.9,7.3-9.8,12.3c-0.6,1.7-1,3.4-1.8,5c-0.7,1.6-1.9,3-3.4,3.9c-1.6,0.8-3.6,0.6-4.9-0.7c-1.1,3.1,0.5,6.6,3.7,7.7
		c1.2,0.4,2.5,0.5,3.8,0.1l0.1,3.1c1.5,0.6,2.6,1.8,3.2,3.3c1.1-1.9,0.8-4.4,1.7-6.5c0.8-1.7,2.6-3,2.7-4.9c0.2-2.8-3.2-5.2,3.2-8.8
		c0.1-0.1,0.3-0.1,0.5-0.1c2.2-0.1,4.1,1.3,6.1,2.4c3.3,1.8,7.1,2.5,10.7,1.9c3.7-0.6,7-2.6,9.3-5.6c-0.8,2.3-1,4.8-0.7,7.2
		c0.4,2.4,1.6,4.6,2.5,6.9c1,1.9,1.6,4,1.7,6.1c0,0.2,0.1,0.3,0.3,0.3c0.1,0,0.2-0.1,0.3-0.2c0.3-0.5,0.5-1.1,0.8-1.6
		c0.4-0.7,0.7-1.5,0.9-2.2c1.3-4.4,1.1-9.2-0.7-13.4c-0.1-0.2-0.2-0.5-0.2-0.8c0.1-0.7,1-1,1.6-0.6c0.6,0.4,1,0.9,1.2,1.6
		c0.8-2.3-0.4-4.9-2.7-5.7C82.1,25.3,81.5,25.2,81,25.2L81,25.2z"/>
	<path id="mouth-4" class="st3" d="M54.6,64.6c1,0.3,1.8,0.9,2.4,1.8c1.1,1.4,2.7,2.5,4.4,2.9c2.5,0.6,3.6,0.8,3.3,2.1
		s-2.2,1.7-3.3,2.2c-2,0.4-4.1,0.1-5.8-0.9c-1.2-0.8-2-2-2.2-3.5C52.8,67.4,53.1,63.8,54.6,64.6z"/>
</g>
</svg>
