<?xml version="1.0" encoding="UTF-8" standalone="no"?> <!-- Created with Vectornator for iOS (http://vectornator.io/) --><!DOCTYPE svg PUBLIC "-//W3C//DTD SVG 1.1//EN" "http://www.w3.org/Graphics/SVG/1.1/DTD/svg11.dtd">
<svg height="100%" style="fill-rule:nonzero;clip-rule:evenodd;stroke-linecap:round;stroke-linejoin:round;" xmlns:xlink="http://www.w3.org/1999/xlink" xmlns="http://www.w3.org/2000/svg" xml:space="preserve" width="100%" xmlns:vectornator="http://vectornator.io" version="1.1" viewBox="0 0 125 124.5">
<metadata>
<vectornator:setting key="DimensionsVisible" value="1"/>
<vectornator:setting key="PencilOnly" value="0"/>
<vectornator:setting key="SnapToPoints" value="0"/>
<vectornator:setting key="OutlineMode" value="0"/>
<vectornator:setting key="CMYKEnabledKey" value="0"/>
<vectornator:setting key="RulersVisible" value="1"/>
<vectornator:setting key="SnapToEdges" value="0"/>
<vectornator:setting key="GuidesVisible" value="1"/>
<vectornator:setting key="DisplayWhiteBackground" value="0"/>
<vectornator:setting key="doHistoryDisabled" value="0"/>
<vectornator:setting key="SnapToGuides" value="1"/>
<vectornator:setting key="TimeLapseWatermarkDisabled" value="0"/>
<vectornator:setting key="Units" value="Points"/>
<vectornator:setting key="DynamicGuides" value="0"/>
<vectornator:setting key="IsolateActiveLayer" value="0"/>
<vectornator:setting key="SnapToGrid" value="0"/>
</metadata>
<defs/>
<g id="Layer_149" vectornator:layerName="Layer_149">
<path stroke="#020202" stroke-width="0.75" d="M78.1+63.8C78.1+63.8+76.9+78.9+77.5+80C78.4+81.4+79.7+82.5+81.4+83C83.7+83.9+86.8+85.1+86.8+85.1C86.8+85.1+82.8+112+77.9+114.9C73+117.8+58.4+117.2+52.8+117.2C45+117+38.5+84+38.5+84C38.5+84+48.3+80.6+50+79.5C51.7+78.4+50.4+63.8+50.4+63.8L78.1+63.8Z" fill="#e8d5aa" stroke-linecap="butt" opacity="1" stroke-linejoin="miter"/>
<path stroke="#020202" stroke-width="0.75" d="M81.8+53.7C81.8+53.7+81.3+62.5+81.1+63.2C81+64.5+80.5+65.6+79.7+66.6C75.1+72.3+72+79+64.7+79C56.4+79+58.1+76.3+53+71.5C51.1+69.7+48.3+66.6+47.2+64.2C47+63.7+46.8+58.7+46.7+58L46.3+58.3C46.3+58.3+46.2+59.2+45.4+59.3C44.3+59.4+43.6+58+43.3+57.1C42.8+55.6+43+54.1+43+52.4C43+50.7+40.4+46.2+43+44.8C44.8+43.8+44.6+45.1+45.1+46.6C45.3+47.1+45.4+47.6+45.5+48.2L45.8+48.1C45.8+48.1+45.8+45.3+45.8+43.2C45.9+39.5+44.8+35.3+46.1+31.7C50.8+19.9+55.1+19.4+65.8+19.1C75.3+18.8+80.6+26.5+81.4+30C82+32.8+82.3+35.7+82.2+38.6L81.7+47.7L82+47.8C82.4+46.7+82.8+45.7+83.3+44.6C83.8+43.8+84.8+43.6+85.6+44C86.2+44.4+86.5+45.1+86.3+45.8C86+46.8+85.5+49.8+85.3+51C85.2+51.9+85.2+52.7+85.3+53.6C85.3+54.4+85+57.1+83.8+57.1C83.2+57.3+81.5+57.3+81.8+53.7Z" fill="#e8d5aa" stroke-linecap="butt" opacity="1" stroke-linejoin="miter"/>
<path stroke="#231f20" stroke-width="0.75" d="M63.9+54.5C64.8+55.2+65.9+55.6+67+55.9C72.8+56.4+64.3+61.2+63.3+59.3" fill="none" stroke-linecap="butt" opacity="1" stroke-linejoin="miter"/>
<path stroke="#020202" stroke-width="0.75" d="M121.6+125C121.6+125+116.9+104.8+115.6+101.4C114.3+98+114.8+96.3+113.7+95.6C112.6+94.9+107.5+90.5+105.6+89.8C104.1+89.2+102.7+88.4+101.3+87.6C99.2+86.5+97.1+85.3+94.9+84.2L92.9+83C92.1+82.7+91.4+82.3+90.8+81.7C90.7+81.5+90.6+81.3+90.5+81.1C90+80+89.2+79+88.3+78.2C87.4+77.4+86.3+76.8+85.5+75.9C84.3+74.6+83.8+73.1+81.8+73.1C80.4+73.1+78.9+73+77.5+72.9L77.3+79C77.3+79+77.5+80.8+80+82.4C81.4+83.3+81.3+84.8+79.8+87.2C78.3+89.6+74.7+97.2+73+99.2C70.8+101.5+68.4+103.5+65.7+105.3C64.7+106+63.2+109.6+63.2+109.6C63.2+109.6+56.1+102.2+55.3+100C54.5+97.8+54.3+94.9+48.6+88.8C46.6+86.7+43.7+84.7+44.6+82.3C44.6+82.3+44.4+81.8+47+80.9C51+79.5+50.4+79+50.4+79L50.8+73C50.8+73+44.3+75.1+42.4+76C40.5+76.9+37.3+78.6+37.1+79.6C36.9+80.6+35+82.2+35+82.2C35+82.2+23.3+88.6+19.4+90.1C15.5+91.6+9.5+95.4+9.2+96.5C8.2+99.8+5.1+114.2+4.5+117.2C3.9+120.2+3.5+124.9+3.5+124.9" fill="#91e3f9" stroke-linecap="butt" opacity="1" stroke-linejoin="miter"/>
<path stroke="#020202" stroke-width="0.75" d="M35.1+82.2C35.1+82.2+30.7+88.8+30.7+89.4C30.7+90+37.4+88.8+38.5+89.4C39.5+90+40.4+90.9+40.9+92C41.3+92.9+45.6+94.7+46.9+96.4C48.8+98.7+56.4+101.6+56.4+101.6" fill="none" stroke-linecap="butt" opacity="1" stroke-linejoin="miter"/>
<path stroke="#020202" stroke-width="0.75" d="M90.4+81.1C91.1+83.2+91.6+85.3+92+87.5C92.2+89.8+93.7+91.8+92+91.8C90+91.8+88+91.5+86+91C84.9+90.6+83.6+90.9+82.8+91.8C82.8+91.8+77.1+104.2+67.4+104.2" fill="none" stroke-linecap="butt" opacity="1" stroke-linejoin="miter"/>
<path stroke="#020202" stroke-width="0.75" d="M63.3+109.7C63.3+109.7+63.3+122.7+63.3+125" fill="#f44711" stroke-linecap="butt" opacity="1" stroke-linejoin="miter"/>
<path stroke="#020202" stroke-width="0.75" d="M67.8+114.7C67.8+113.651+68.6507+112.8+69.7+112.8C70.7493+112.8+71.6+113.651+71.6+114.7C71.6+115.749+70.7493+116.6+69.7+116.6C68.6507+116.6+67.8+115.749+67.8+114.7Z" fill="#0b177f" stroke-linecap="butt" opacity="1" stroke-linejoin="miter"/>
<path stroke="#020202" stroke-width="0.75" d="M70.083+67.2985C66.1887+68.3968+61.738+67.9974+58.4+66.3" fill="none" stroke-linecap="butt" opacity="1" stroke-linejoin="miter"/>
<path stroke="#231f20" stroke-width="0.75" d="M58.8+41.1C58.8+41.1+56.4+38.4+54.7+41.5C53+44.6+52.5+46+52.5+46" fill="none" stroke-linecap="butt" opacity="1" stroke-linejoin="miter"/>
<path stroke="#231f20" stroke-width="0.75" d="M70.5+41.6C70.5+41.6+72.1+39.8+74+42.2C75.1+43.6+75.9+45.1+76.5+46.7" fill="none" stroke-linecap="butt" opacity="1" stroke-linejoin="miter"/>
<path stroke="#020202" stroke-width="0.75" d="M50+79.5C51.4+83.2+53.3+86.5+56.4+88.7C65.3+95.1+75.1+88.2+77.5+79.9" fill="none" stroke-linecap="butt" opacity="1" stroke-linejoin="miter"/>
<g opacity="1">
<path d="M83.4+43.3C80.8+42.8+78.1+42.6+75.4+42.7C72.2+43.1+69+43.7+65.9+44.5C65.1+44.7+64.3+44.8+63.5+44.9C62.4+44.8+61.3+44.5+60.2+44.2C58.1+43.6+55.9+43.2+53.7+43C51.1+42.8+48.6+42.8+46+42.9C43.5+43.2+43.2+43.4+43.2+43.6L43.6+46.1C43.8+46.2+44+46.2+44.1+46.3C44.3+46.4+44.4+46.6+44.5+46.8C44.6+47+46+52.1+46.1+52.3C46.3+52.8+46.6+53.3+46.9+53.7C47.5+54.3+48.2+54.8+49+55.1C49.9+55.4+50.8+55.6+51.8+55.7C52.9+55.8+54+55.8+55+55.6C56.2+55.3+57.3+54.8+58.3+54C59.2+53.1+59.9+52.2+60.5+51.1C60.8+50.3+61.8+47.9+62+47.6C62.3+47.2+62.8+47+63.3+47C63.9+47+64.4+47.3+64.6+47.8C64.9+48.4+65.7+50.6+66.4+51.8C67.2+53.5+68.7+54.7+70.5+55.2C72.5+55.8+74.6+55.7+76.7+55.1C77.5+54.9+78.3+54.5+79+54C79.5+53.6+79.9+53+80.2+52.5C80.5+51.9+81.4+48.4+81.5+48.1C81.6+47.4+81.9+46.8+82.2+46.2C82.4+46+82.7+45.9+82.9+45.8L83.3+43.3C83.5+43.4+83.4+43.3+83.4+43.3ZM58.9+50.2C58.4+51.3+57.7+52.3+56.9+53.2C55.6+54+54.1+54.4+52.5+54.2C51.1+54.2+49.8+53.9+48.6+53.2C47.8+52.8+47.4+51.7+47+50.7C46.6+49.3+46.5+47.8+46.5+46.4L46.5+46.2C46.5+45.8+46.7+45.4+47+45.1C48+44.2+49.5+44.2+50.7+44.1C52.1+44+53.5+44.1+54.9+44.3C56.2+44.5+59.2+44.8+59.4+46.7C59.4+47.9+59.3+49.1+58.9+50.2ZM79.4+50.8C79+51.9+78.6+53+77.8+53.3C76.6+54+75.3+54.3+73.9+54.3C72.4+54.5+70.8+54.1+69.5+53.3C68.7+52.4+68+51.4+67.5+50.3C67.1+49.2+66.9+48.1+66.9+47C67.1+45.6+69+44.9+70.1+44.7C71.7+44.4+73.4+44.2+75.1+44.2C76.4+44.2+78.2+44.2+79.3+45.2C79.6+45.5+79.8+45.9+79.8+46.3L79.8+46.5C79.9+47.9+79.8+49.4+79.4+50.8Z" opacity="1" fill="#000000"/>
<path d="M46.5+44.8C46.2+45.1+46+45.6+46+46L46+46.2C45.9+47.8+46.1+49.4+46.5+51C46.9+52.1+47.3+53.4+48.3+53.8C49.6+54.5+51.1+54.9+52.6+54.9C54.3+55.1+56+54.7+57.4+53.8C58.3+52.8+59.1+51.7+59.6+50.5C60+49.3+60.2+48+60.2+46.7C59.9+44.7+56.7+44.3+55.3+44.1C53.8+43.9+52.2+43.8+50.7+43.8C49.2+43.8+47.5+43.8+46.5+44.8Z" opacity="1" fill="#000000"/>
<path d="M79.4+45.2C79.7+45.5+79.9+45.9+79.9+46.3L79.9+46.5C80+48+79.8+49.4+79.4+50.8C79+51.8+78.6+53+77.8+53.3C76.6+54+75.3+54.3+73.9+54.3C72.4+54.5+70.8+54.1+69.5+53.3C68.7+52.4+68+51.4+67.5+50.3C67.1+49.2+66.9+48.1+66.9+47C67.1+45.6+69+44.9+70.1+44.7C71.7+44.4+73.4+44.2+75.1+44.2C76.5+44.2+78.3+44.1+79.4+45.2Z" opacity="1" fill="#000000"/>
</g>
<path stroke="#020202" stroke-width="0.75" d="M84+38.6C83.3+38.8+82.8+37.9+82.4+37.2C82.4+36.4+82.4+35.5+82.3+34.5C82.2+29.4+82+24+79.3+19.6C77.8+17.3+75.9+15.4+73.6+13.9C71+12+67.9+10.8+64.7+10.4C61.1+10.1+57.6+11.2+54.3+12.6C51.6+13.8+48.5+14.9+47.2+17.8C47+18.3+46.8+18.9+46.5+19.4C46.2+19.9+45.8+20.5+45.4+21C44.6+22.1+44.1+23.4+43.9+24.7C43.5+26.7+43.4+28.8+43.8+30.8C44+32.2+44.6+34.6+43.4+35.4C41.6+36.7+39.7+36.4+37.6+36.6C37.5+36.6+38.2+37.9+38.2+37.9C38.6+38.4+39+38.9+39.4+39.3C40.4+40.2+41.6+40.8+42.8+41.1L43.9+43.3L46.9+42.9L46.6+41.2C47.6+40.6+48.4+39.7+49+38.7C49.9+37.2+50.5+35.9+51.9+35.1C52.7+34.7+53.6+34.4+54.5+34.3C55.9+33.9+58.4+33.3+59.3+32C60.1+30.7+60.2+27.7+60.2+27.7L59.6+27.8C60.3+27.6+61.2+27.4+61.7+28C62+28.5+61.8+29+61.8+29.6C61.7+31.2+63.2+32.5+64.7+32.8C66.3+33+67.9+32.9+69.4+32.4C70.9+32+72.5+32+74.1+32.4C76.7+33.4+77.9+36.5+77.9+39.3C77.9+42.1+77.5+41.7+77.4+43C78.3+43.3+79.3+43.3+80.2+43.2C81.4+43.2+81.9+43.2+81.9+43.2C82+42.4+82.1+41.6+82.1+40.9C83.5+40.7+85+38.3+84+38.6Z" fill="#f7de48" stroke-linecap="butt" opacity="1" stroke-linejoin="miter"/>
<path stroke="#020202" stroke-width="0.75" d="M77.1+10.7C78.2+12.1+79.3+13.6+80.2+15.1C81.1+16.7+83.9+23.2+83.3+26.3C82.9+29.3+82.7+32.3+82.6+35.4C82.6+35.7+81.5+31.4+80.1+30.4C78.7+29.4+76.7+25.9+76.2+22.7C75.7+19.5+75.9+11.1+77.1+10.7Z" fill="#0b0b7f" stroke-linecap="butt" opacity="1" stroke-linejoin="miter"/>
<path stroke="#000000" stroke-width="0.75" d="M44.1+26.2C44.1+26.2+44.2+20.6+44.1+18.2C44+15.8+47.2+11.3+50.1+10.4C53+9.5+59.9+6.4+61.3+6.5C62.7+6.6+71.9+7.5+73.6+8.5C75.3+9.5+76.7+8.8+77.5+11.9C78.3+15+78.2+22.7+78.4+24.6C78.5+26.3+78.5+28+78.4+29.7L44.1+26.2Z" fill="#334aaa" stroke-linecap="butt" opacity="1" stroke-linejoin="miter"/>
<path stroke="#020202" stroke-width="0.75" d="M82+34.1C82+34.1+82.1+28.7+76.9+27.3C69+25.4+60.8+24.7+52.7+25.3C48.6+25.5+44.5+26+40.4+26.9C39+27.2+35.8+27.6+35.5+29.4C35.4+30.1+36.8+30.4+37.3+30.6C38.8+31.2+40.4+31.8+42+32.3C42.7+32.5+43.4+32.7+44+33C43.7+32.1+44+31.2+44.7+30.6C46+29.7+51+28.4+58.2+28.3C65+28.4+71.7+29.2+78.3+30.6C79.6+31.1+81.6+32.9+82+34.1Z" fill="#0b0b7f" stroke-linecap="butt" opacity="1" stroke-linejoin="miter"/>
<path stroke="#020202" stroke-width="0.75" d="M52.5+125L52.8+117.2L29+117.1L28.7+125" fill="#91e3f9" stroke-linecap="butt" opacity="1" stroke-linejoin="miter"/>
<path stroke="#020202" stroke-width="0.75" d="M101.3+125L101.5+117.2L77.8+117.1L77.5+125" fill="#91e3f9" stroke-linecap="butt" opacity="1" stroke-linejoin="miter"/>
<path stroke="#000000" stroke-width="0.75" d="M62.2+94.7C62.2+92.8222+62.9611+91.3+63.9+91.3C64.8389+91.3+65.6+92.8222+65.6+94.7C65.6+96.5778+64.8389+98.1+63.9+98.1C62.9611+98.1+62.2+96.5778+62.2+94.7Z" fill="#fffe6c" stroke-linecap="butt" opacity="1" stroke-linejoin="miter"/>
<path stroke="#000000" stroke-opacity="0.031465" stroke-width="0.75" d="M52.3882+20.1296C51.3133+17.0593+54.548+18.0352+56.1603+17.6269C57.0876+17.3921+58.6761+17.0849+59.588+16.7784C61.0747+16.2786+59.7725+14.1065+59.7667+13.4226C59.7645+13.1641+60.2698+13.5846+60.4719+13.7459C60.837+14.0371+61.3855+14.5275+61.5657+14.9812C63.2274+19.1641+56.7159+18.1932+54.5802+18.5672C53.9075+18.6849+53.0505+18.5163+52.7099+19.186C52.5284+19.5427+52.4202+20.2212+52.3882+20.1296Z" fill="#bbc6f2" stroke-linecap="butt" opacity="1" stroke-linejoin="miter"/>
<path stroke="#000000" stroke-opacity="0.031465" stroke-width="0.75" d="M57.7776+20.311C61.337+19.4097+65.4222+20.6795+64.7308+15.2882C64.6169+14.4003+63.3136+13.4114+63.3024+12.7504C63.2984+12.5162+65.4579+13.1696+65.7352+13.3909C66.5007+14.0017+66.5434+16.3235+66.1172+17.1652C65.7093+17.9705+64.8484+19.136+63.9176+19.3647C63.6915+19.4203+61.9861+19.8724+61.9861+20.0256" fill="#bbc6f2" stroke-linecap="butt" opacity="1" stroke-linejoin="miter"/>
<path stroke="#000000" stroke-opacity="0.031465" stroke-width="0.75" d="M67.005+20.1215C66.9583+20.0845+68.6417+19.2493+69.1023+18.4173C69.5783+17.5573+69.1533+15.256+69.3764+15.0291C69.6232+14.7781+70.6294+16.0742+70.6686+16.2717C71.0845+18.3655+69.6134+19.188+68.0949+19.9344C67.7315+20.113+67.3323+20.3812+67.005+20.1215Z" fill="#bbc6f2" stroke-linecap="butt" opacity="1" stroke-linejoin="miter"/>
</g>
</svg>
