<?xml version="1.0" encoding="UTF-8" standalone="no"?> <!-- Created with Vectornator for iOS (http://vectornator.io/) --><!DOCTYPE svg PUBLIC "-//W3C//DTD SVG 1.1//EN" "http://www.w3.org/Graphics/SVG/1.1/DTD/svg11.dtd">
<svg height="100%" style="fill-rule:nonzero;clip-rule:evenodd;stroke-linecap:round;stroke-linejoin:round;" xmlns:xlink="http://www.w3.org/1999/xlink" xmlns="http://www.w3.org/2000/svg" xml:space="preserve" width="100%" xmlns:vectornator="http://vectornator.io" version="1.1" viewBox="0 0 125 124.5">
<metadata>
<vectornator:setting key="DimensionsVisible" value="1"/>
<vectornator:setting key="PencilOnly" value="0"/>
<vectornator:setting key="SnapToPoints" value="0"/>
<vectornator:setting key="OutlineMode" value="0"/>
<vectornator:setting key="CMYKEnabledKey" value="0"/>
<vectornator:setting key="RulersVisible" value="1"/>
<vectornator:setting key="SnapToEdges" value="0"/>
<vectornator:setting key="GuidesVisible" value="1"/>
<vectornator:setting key="DisplayWhiteBackground" value="0"/>
<vectornator:setting key="doHistoryDisabled" value="0"/>
<vectornator:setting key="SnapToGuides" value="1"/>
<vectornator:setting key="TimeLapseWatermarkDisabled" value="0"/>
<vectornator:setting key="Units" value="Points"/>
<vectornator:setting key="DynamicGuides" value="0"/>
<vectornator:setting key="IsolateActiveLayer" value="0"/>
<vectornator:setting key="SnapToGrid" value="0"/>
</metadata>
<defs/>
<g id="Layer_151" vectornator:layerName="Layer_151">
<g opacity="1">
<path stroke="#020202" stroke-width="0.75" d="M39.3+112.1C38.9+111.1+38.6+110.1+38.5+109.1C38.5+108+38.6+106.8+38.9+105.7C38.6+104.8+38.3+103.8+38.3+102.8C38.3+101.9+38.5+100.9+39+100.1C38.5+98.4+38.2+96.6+38+94.9C37.7+92.1+38.7+91.6+38.7+91.6C38.6+90.9+38.4+90.3+38.2+89.6C37.8+88.1+38.9+84.4+38.9+84.4C38.3+82.5+37.8+80.5+37.4+78.5C37.2+76.9+37.4+75.3+38+73.8C37.6+72.6+37.3+71.4+37.2+70.2C37+67.9+37.2+65.6+37.7+63.4C37.3+61.9+37+60.4+36.8+58.9C36.6+57.4+36.6+55.9+36.8+54.4C37+52.8+37.4+51.5+37.7+50C38.2+47.1+39+44.2+38.9+42.1C38.6+37.7+43+23.8+43+23.8C47.7+21.7+52+18.7+55.6+15C55.6+15+55.4+21.5+49.7+31.5C46.7+36.8+42.4+44.6+42.6+47.4C42.7+49.3+42.9+51.3+43.4+53.2C43.5+53.5+44+57.1+44.1+57.2C44.5+58.5+44.8+59.8+45+61.1C45.2+63.5+45.1+65.8+44.7+68.2C45.3+69.3+45.6+70.5+45.7+71.7C45.9+73.8+45.8+75.9+45.4+78C45.9+79.5+46.2+81.1+46.4+82.7C46.5+84.4+46.2+86.2+45.7+87.8C46.1+89.2+46.1+90.8+45.9+92.2C45.7+93.6+45.4+95+44.9+96.4C44.9+96.4+45.1+97.4+45.4+99.1C45.6+100.2+45.2+101.3+44.5+102.1C44.5+102.1+45+103.8+45.2+104.7C45.4+105.6+43.9+108.5+43.9+108.5C43.2+109.6+42.7+110.7+42.5+112C43.2+113+43.5+114.3+43.4+115.5C43.4+116.6+43.3+117.7+43+118.8C42.8+119.8+42.3+120.6+41.5+121.2C40.6+122+38.6+122+37.6+122C38.1+120.5+38.4+118.9+38.5+117.3C38.6+115.5+38.9+113.8+39.3+112.1Z" fill="#262626" stroke-linecap="butt" opacity="1" stroke-linejoin="miter"/>
<path stroke="#000000" stroke-width="0.75" d="M45+57C45+57+43.2+58.8+41.9+63.9" fill="none" stroke-linecap="butt" opacity="1" stroke-linejoin="miter"/>
<path stroke="#000000" stroke-width="0.75" d="M38.6+63.8C38.7+63.3+40.7+65.6+40.8+65.8C41.8+67.2+42.3+68.9+43.2+70.4" fill="none" stroke-linecap="butt" opacity="1" stroke-linejoin="miter"/>
<path stroke="#000000" stroke-width="0.75" d="M44.6+68C43.7+69.3+42.6+70.2+42+71.7C41.4+73.2+41.4+75.2+41+76.8" fill="none" stroke-linecap="butt" opacity="1" stroke-linejoin="miter"/>
<path stroke="#000000" stroke-width="0.75" d="M39.2+75.9C40.8+78+42.2+79.8+42.3+82.6" fill="none" stroke-linecap="butt" opacity="1" stroke-linejoin="miter"/>
<path stroke="#000000" stroke-width="0.75" d="M45.2+78.2C45.2+78.2+41.5+82+41.5+86" fill="none" stroke-linecap="butt" opacity="1" stroke-linejoin="miter"/>
<path stroke="#000000" stroke-width="0.75" d="M39.9+84.4C41+85.5+41.9+86.7+42.5+88C42.9+88.8+43.1+89.7+43.3+90.5" fill="none" stroke-linecap="butt" opacity="1" stroke-linejoin="miter"/>
<path stroke="#000000" stroke-width="0.75" d="M46.6+87.7C46.6+87.7+43.6+91.1+43.2+93.8" fill="none" stroke-linecap="butt" opacity="1" stroke-linejoin="miter"/>
<path stroke="#000000" stroke-width="0.75" d="M40.8+93C40.8+93+43.5+95.1+43.6+98.1" fill="none" stroke-linecap="butt" opacity="1" stroke-linejoin="miter"/>
<path stroke="#000000" stroke-width="0.75" d="M45.5+96.4C45.5+96.4+42.2+99.2+41.7+101.3" fill="none" stroke-linecap="butt" opacity="1" stroke-linejoin="miter"/>
<path stroke="#000000" stroke-width="0.75" d="M40+100.1C41+101.3+41.9+102.6+42.5+104.1" fill="none" stroke-linecap="butt" opacity="1" stroke-linejoin="miter"/>
<path stroke="#000000" stroke-width="0.75" d="M45.4+102C45.4+102+41.9+105.7+41.3+107.8" fill="none" stroke-linecap="butt" opacity="1" stroke-linejoin="miter"/>
<path stroke="#000000" stroke-width="0.75" d="M39.9+105.7C40.8+106.9+41.6+108.3+42.2+109.6" fill="none" stroke-linecap="butt" opacity="1" stroke-linejoin="miter"/>
<path stroke="#020202" stroke-width="0.75" d="M38+53.8C38+53.8+42.1+57.7+43+60.3" fill="#f7de48" stroke-linecap="butt" opacity="1" stroke-linejoin="miter"/>
<path stroke="#000000" stroke-width="0.75" d="M43.5+113L40.2+112.9L40.3+112.1L43.4+112.1L43.5+113Z" fill="#332e28" stroke-linecap="butt" opacity="1" stroke-linejoin="miter"/>
</g>
<path stroke="#020202" stroke-width="0.75" d="M51.2+67.9C51.2+67.9+50.9+79.9+50.5+81.2C50.1+82.5+43+83.4+41.4+85.3C39.8+87.2+42.4+90.7+43.6+92C49.4+98.5+64.1+99.2+71.9+97.6C76.2+96.7+85.7+91.3+86.6+86.4C87+84+79.8+82.6+78.1+81.5C76.4+80.4+75.6+67.6+75.6+67.6L51.2+67.9Z" fill="#d19a75" stroke-linecap="butt" opacity="1" stroke-linejoin="miter"/>
<path stroke="#020202" stroke-width="0.75" d="M62.5+23.3C59.1+23.2+55.6+23.7+52.3+24.8C50.1+25.4+48.1+26.8+46.8+28.7C46.2+29.9+45.7+31.1+45.5+32.4C44.4+37.2+43.6+41.9+42.9+46.8C42.8+46.1+42.6+45.5+42.4+44.8C42.1+44.1+40.6+44.3+40.4+45.3C40.3+46.2+40.5+47+40.9+47.8C41.3+48.6+41.6+49.5+41.8+50.4C42.3+53.5+41.5+53.7+41.8+56.1C42+56.8+42.4+57.4+43+57.6C43.2+57.7+44.2+58+44.1+57.5C44.1+60.4+44.5+63.2+45.2+66C46.3+69.4+49.8+72.1+52.3+74.3C54.2+76.1+56.3+77.6+58.7+78.8C64.9+81.6+71+77.6+74.4+72.4C76.7+68.9+79.8+66.5+80.2+62.4C80.5+60.9+80.7+59.4+80.7+57.9C80.7+57.4+81.3+57.6+81.5+57.6C83.2+57.7+83.5+55.3+83.7+54.1C84+52+83.9+49.7+84.7+47.7C85.1+46.7+86.3+45.2+85+44.3C84.3+43.8+83.3+43.8+82.6+44.3C81.7+44.9+81.7+45.9+81.4+46.8C81.3+42.3+80.6+37.9+79.4+33.6C79.1+32.2+78.5+30.9+77.8+29.8C76.4+27.7+74.4+26+72.1+25C70.5+24.3+68.9+23.8+67.2+23.5C65.8+23.5+64.2+23.4+62.5+23.3Z" fill="#d19a75" stroke-linecap="butt" opacity="1" stroke-linejoin="miter"/>
<path stroke="#020202" stroke-width="0.75" d="M63+55.5C61.8+59+54.8+58.2+54.6+60.1C54.4+63+59.7+62.6+61.9+61.5" fill="none" stroke-linecap="butt" opacity="1" stroke-linejoin="miter"/>
<path stroke="#020202" stroke-width="0.75" d="M65.8+40.9C70.1+40.3+75.3+35.6+77.1+39.7" fill="none" stroke-linecap="butt" opacity="1" stroke-linejoin="miter"/>
<path stroke="#020202" stroke-width="0.75" d="M57.7+44.3C54.9+43.7+48.2+39.4+46.4+43.5" fill="none" stroke-linecap="butt" opacity="1" stroke-linejoin="miter"/>
<path stroke="#020202" stroke-width="0.75" d="M70+48.9C70+48.2373+70.5373+47.7+71.2+47.7C71.8627+47.7+72.4+48.2373+72.4+48.9C72.4+49.5627+71.8627+50.1+71.2+50.1C70.5373+50.1+70+49.5627+70+48.9Z" fill="#6a3e00" stroke-linecap="butt" opacity="1" stroke-linejoin="miter"/>
<path stroke="#020202" stroke-width="0.75" d="M51.9+48.9C51.9+48.2373+52.4373+47.7+53.1+47.7C53.7627+47.7+54.3+48.2373+54.3+48.9C54.3+49.5627+53.7627+50.1+53.1+50.1C52.4373+50.1+51.9+49.5627+51.9+48.9Z" fill="#6a3e00" stroke-linecap="butt" opacity="1" stroke-linejoin="miter"/>
<path stroke="#020202" stroke-width="0.75" d="M67.7+48C67.7+48+71.1+46.3+72.4+46.8C73.7+47.3+74.1+48.3+74.8+48.4" fill="none" stroke-linecap="butt" opacity="1" stroke-linejoin="miter"/>
<path stroke="#020202" stroke-width="0.75" d="M56.1+49.2C56.1+49.2+54.9+46.4+53.4+46.8C52.3+47+51.3+47.3+50.3+47.7" fill="none" stroke-linecap="butt" opacity="1" stroke-linejoin="miter"/>
<path stroke="#020202" stroke-width="0.75" d="M7+124C7.6+117.2+8.8+109.6+9.6+104.9C10.4+100.2+10.6+98.3+13+94.2C15.4+90.1+19.6+88.9+24+88.1C28.6+87.2+30.6+86.1+35.3+85.5C38+84.9+40.5+84.1+43+83C43.9+82.6+43.3+90.6+50.8+94.3C59.6+98.5+69.9+97.8+78.1+92.5C81.5+90.2+82.8+86.6+85+83C88.3+83.7+91.4+85.1+94.7+86.1C100.2+87.9+110.1+87.4+112.4+94.3C115.1+102.3+116.1+115.5+117.8+124.2" fill="#e0cf1a" stroke-linecap="butt" opacity="1" stroke-linejoin="miter"/>
<path d="M44.6+119.2L45.6+119.2L45.6+122.3L40+122.3L40+119.2L41+119.2L39.8+117.2L38.2+117.2L38.2+119.2L39.2+119.2L39.2+122.3L33.6+122.3L33.6+119.2L34.7+119.2L34.7+112.1L33.6+112.1L33.6+109L39.2+109L39.2+112L38.2+112L38.2+114L39.7+114L40.9+112L40+112L40+109L45.5+109L45.5+112L44.5+112L42.5+115.6L44.6+119.2Z" opacity="1" fill="#ffffff"/>
<path d="M62.7+119.2L62.7+122.3L57.1+122.3L57.1+119.2L58+119.2L57.8+118.1L55.7+118.1L55.5+119.2L56.4+119.2L56.4+122.3L50.8+122.3L50.8+119.2L52+119.2L53.2+112.1L52.3+112.1L52.3+109L61.1+109L61.1+112.1L60.2+112.1L61.4+119.2L62.7+119.2ZM57.4+116L56.7+112L56+116L57.4+116Z" opacity="1" fill="#ffffff"/>
<path d="M78+118.2L78+122.2L67.9+122.2L67.9+119.1L69+119.1L69+112L67.9+112L67.9+109L73.6+109L73.6+112.1L72.5+112.1L72.5+119.2L74.6+119.2L74.6+118.2L78+118.2Z" opacity="1" fill="#ffffff"/>
<path d="M93.4+109L93.4+113L90+113L90+112L87.9+112L87.9+114L91.6+114L91.6+117.1L90.5+117.1L89.7+117.1L87.8+117.1L87.8+119.1L90+119.1L90+118.1L93.4+118.1L93.4+122.1L83.3+122.1L83.3+119L84.4+119L84.4+112L83.3+112L83.3+109L93.4+109Z" opacity="1" fill="#ffffff"/>
<path stroke="#000000" stroke-width="0.75" d="M37.2+85.1C37.2+85.1+38.2+92.2+41.9+96.4C45.6+100.6+51+103.1+62.8+103.1C74.6+103.1+80.9+99+82.7+97.2C84.5+95.4+88.7+88.9+90.9+84.7" fill="none" stroke-linecap="butt" opacity="1" stroke-linejoin="miter"/>
<g opacity="1">
<path stroke="#020202" stroke-width="3" d="M59.3+48.2C60+47.3+61+46.7+62.1+46.7C63.3+46.8+64.4+47.3+65.1+48.2" fill="#000000" stroke-linecap="butt" opacity="1" stroke-linejoin="miter"/>
<path d="M51.7+40.2C46.9+40.2+43.1+44.1+43.1+48.8C43.1+53.5+47+57.4+51.7+57.4C56.4+57.4+60.3+53.5+60.3+48.8C60.3+44.1+56.4+40.2+51.7+40.2ZM51.7+54.7C48.5+54.7+45.9+52.1+45.9+48.9C45.9+45.7+48.5+43.1+51.7+43.1C54.9+43.1+57.5+45.7+57.5+48.9L57.5+48.9C57.5+52.1+54.9+54.7+51.7+54.7Z" opacity="1" fill="#000000"/>
<path d="M72.4+40.2C67.6+40.2+63.8+44.1+63.8+48.8C63.8+53.5+67.7+57.4+72.4+57.4C77.2+57.4+81+53.5+81+48.8L81+48.8C81.1+44.1+77.2+40.2+72.4+40.2ZM72.4+54.7C69.2+54.7+66.6+52.1+66.6+48.9C66.6+45.7+69.2+43.1+72.4+43.1C75.6+43.1+78.2+45.7+78.2+48.9L78.2+48.9C78.2+52.1+75.7+54.6+72.4+54.7L72.4+54.7Z" opacity="1" fill="#000000"/>
</g>
<path stroke="#020202" stroke-width="0.75" d="M67.6391+70.5549C67.6391+72.0327+58.8358+72.1805+57.7354+72.1805C56.6349+72.1805+55.7546+70.9982+55.7546+69.5204C55.7546+68.0425+56.6349+66.8602+57.7354+66.8602C58.8358+66.8602+67.6391+69.1509+67.6391+70.5549Z" fill="#ffffff" stroke-linecap="butt" opacity="1" stroke-linejoin="miter"/>
<g opacity="1">
<path stroke="#020202" stroke-width="0.75" d="M89.7+111.5C90.1+110.5+90.3+109.5+90.3+108.4C90.3+107.3+90.1+106.1+89.7+105C90+104+90.1+103+90.2+102C90.2+101.1+89.9+100.1+89.3+99.4C89.7+97.7+90+95.9+90.1+94.2C90.2+91.4+89.2+90.9+89.2+90.9C89.3+90.2+89.4+89.6+89.5+88.9C89.8+87.4+88.5+83.7+88.5+83.7C89+81.7+89.4+79.7+89.6+77.7C89.7+76.1+89.4+74.5+88.7+73C89+71.8+89.2+70.6+89.3+69.3C89.3+67+89+64.8+88.5+62.5C88.8+61+89+59.5+89.1+58C89+55.8+88.7+53.6+88.3+51.5C87.2+49.1+86.7+46.5+86.6+43.9C86.7+39.5+83.7+21.5+83.7+21.5C79.5+14.1+48.8+14.6+48.8+14.6C48.8+14.6+56.8+28.8+67.8+32.8C81.2+37.7+82.5+44.2+82.5+46.9C82.5+49.6+82.1+50.3+81.7+52.6C81.7+52.9+81.9+56.4+81.9+56.5C81.5+57.8+81.3+59.1+81.2+60.5C81.1+62.9+81.4+65.3+81.9+67.6C81.4+68.7+81.2+69.9+81.2+71.1C81.1+73.2+81.4+75.3+81.8+77.4C81.4+79+81.2+80.5+81.1+82.1C81.1+83.8+81.5+85.6+82.1+87.2C81.8+88.7+81.9+90.2+82.2+91.6C82.4+93+82.9+94.4+83.5+95.7C83.5+95.7+83.3+96.7+83.1+98.4C83+99.5+83.4+100.5+84.1+101.3C84.1+101.3+83.7+103.1+83.6+104C83.5+104.9+85.2+107.7+85.2+107.7C86+108.7+86.5+109.9+86.8+111.1C86.9+111.9+85.5+113.5+85.5+114.6C85.6+116.8+89.8+120.9+92+121C91.6+119.4+91.2+117.8+91+116.2C90.6+114.8+90.2+113.1+89.7+111.5Z" fill="#262626" stroke-linecap="butt" opacity="1" stroke-linejoin="miter"/>
<path stroke="#000000" stroke-width="0.75" d="M82.7+56C82.7+56+84.6+57.7+86.2+62.7" fill="none" stroke-linecap="butt" opacity="1" stroke-linejoin="miter"/>
<path stroke="#000000" stroke-width="0.75" d="M88.5+63.1C88.4+62.7+86.9+64.8+86.8+64.9C86.1+66.2+85.7+67.7+85.1+69" fill="none" stroke-linecap="butt" opacity="1" stroke-linejoin="miter"/>
<path stroke="#000000" stroke-width="0.75" d="M81.7+67.8C82.7+69.1+83.8+69.9+84.5+71.4C85.2+72.9+85.3+74.9+85.8+76.4" fill="none" stroke-linecap="butt" opacity="1" stroke-linejoin="miter"/>
<path stroke="#000000" stroke-width="0.75" d="M88.8+72.9C87.3+75.1+86+77+86.1+79.7" fill="none" stroke-linecap="butt" opacity="1" stroke-linejoin="miter"/>
<path stroke="#000000" stroke-width="0.75" d="M81.7+77.9C81.7+77.9+85.7+81.5+85.9+85.5" fill="none" stroke-linecap="butt" opacity="1" stroke-linejoin="miter"/>
<path stroke="#000000" stroke-width="0.75" d="M88.4+83.8C86.7+85.5+85.6+87.7+85.3+90.1" fill="none" stroke-linecap="butt" opacity="1" stroke-linejoin="miter"/>
<path stroke="#000000" stroke-width="0.75" d="M81.9+87.4C81.9+87.4+85.1+90.6+85.7+93.3" fill="none" stroke-linecap="butt" opacity="1" stroke-linejoin="miter"/>
<path stroke="#000000" stroke-width="0.75" d="M88.8+91.1C88.8+91.1+86.2+93.4+86.2+96.4" fill="none" stroke-linecap="butt" opacity="1" stroke-linejoin="miter"/>
<path stroke="#000000" stroke-width="0.75" d="M83.5+96.1C83.5+96.1+87+98.7+87.6+100.8" fill="none" stroke-linecap="butt" opacity="1" stroke-linejoin="miter"/>
<path stroke="#000000" stroke-width="0.75" d="M89.2+99.4C88.2+100.7+87.5+102.1+87+103.6" fill="none" stroke-linecap="butt" opacity="1" stroke-linejoin="miter"/>
<path stroke="#000000" stroke-width="0.75" d="M84+101.7C84+101.7+87.7+105.1+88.4+107.2" fill="none" stroke-linecap="butt" opacity="1" stroke-linejoin="miter"/>
<path stroke="#000000" stroke-width="0.75" d="M89.7+105C88.9+106.3+88.2+107.7+87.6+109.1" fill="none" stroke-linecap="butt" opacity="1" stroke-linejoin="miter"/>
<path stroke="#020202" stroke-width="0.75" d="M88.9+54.3C88.9+54.3+86.1+58.4+85.5+61" fill="#f7de48" stroke-linecap="butt" opacity="1" stroke-linejoin="miter"/>
<path stroke="#000000" stroke-width="0.75" d="M86.2+111.1L90.1+111.1L90.1+111.1L90.1+111.9L90.1+111.9L86.2+111.9L86.2+111.9L86.2+111.1L86.2+111.1Z" fill="#332e28" stroke-linecap="butt" opacity="1" stroke-linejoin="miter"/>
</g>
<path stroke="#020202" stroke-width="0.75" d="M72.1+8.4C72.1+8.4+81.3+12.9+82.4+15C83.5+17.1+84.8+22.9+85.1+27.3C85.4+31.4+85.8+40.7+85.8+41.2C85.8+41.7+81.6+36.7+79.7+34.7C78.2+33.1+72.6+28.5+72.1+24.2C71.6+19.9+70.7+9+72.1+8.4Z" fill="#0b0b7f" stroke-linecap="butt" opacity="1" stroke-linejoin="miter"/>
<path stroke="#020202" stroke-width="0.75" d="M38.9+29.4C38.9+29.4+39+22.3+38.9+19.4C38.7+14.2+43+11.9+47.2+10.1C50.1+8.9+55+5.6+58.2+5.9C59.8+6+70.4+6.9+72.1+8.4C77.2+12.7+77+19.8+77.9+27.4C78+29.5+78+31.6+77.9+33.8L38.9+29.4Z" fill="#0b0b7f" stroke-linecap="butt" opacity="1" stroke-linejoin="miter"/>
<path stroke="#ffffff" stroke-width="0.5" d="M58.2+15.8L58.2+20.9C58.2+21.5+58.2+22.2+58+22.8C57.8+23.2+57.5+23.6+57.1+23.8C56.5+24.1+55.9+24.2+55.3+24.2C54.9+24.2+54.5+24.2+54.1+24C53.8+23.9+53.7+23.6+53.7+23.3C53.7+23.1+53.8+22.9+53.9+22.8C54+22.7+54.2+22.6+54.4+22.6C54.8+22.6+55.1+22.8+55.2+23.2C55.3+23.4+55.4+23.6+55.6+23.6C55.8+23.6+56+23.5+56+23.3C56.1+22.9+56.1+22.4+56.1+22L56.1+17.9C56.1+17.7+56.1+17.5+56+17.3C55.9+17.2+55.7+17.1+55.3+17.1L55.1+17.1L55.1+16.4L58.2+15.8ZM56+12.5C56+11.9+56.5+11.4+57.1+11.4C57.7+11.4+58.2+11.9+58.2+12.5C58.2+12.8+58.1+13.1+57.9+13.3C57.7+13.5+57.4+13.6+57.1+13.6C56.5+13.7+56+13.2+56+12.5Z" fill="#ffffff" stroke-linecap="butt" opacity="1" stroke-linejoin="miter"/>
<path stroke="#020202" stroke-width="0.75" d="M84+39.4C84+39.4+77.3+31.4+71.3+27.7C70.5+27.2+65.9+23.1+52.4+24.4C45+25.1+42.4+25.4+36.9+27.7C35.1+28.4+28.7+31.1+28.3+33.5C28.2+34.4+30.5+35.2+31.1+35.4C33.2+36+35.4+36.4+37.7+36.6C38.2+37.2+38.8+37.8+39.4+38.3C39+37.1+39+36+40.1+35.1C41.7+33.9+48.2+32.1+57.5+32C64.4+31.9+71.3+32.7+78+34.3C79.8+35+84+39.4+84+39.4Z" fill="#040434" stroke-linecap="butt" opacity="1" stroke-linejoin="miter"/>
</g>
</svg>
