<?xml version="1.0" encoding="utf-8"?>
<!-- Generator: Adobe Illustrator 16.0.4, SVG Export Plug-In . SVG Version: 6.00 Build 0)  -->
<!DOCTYPE svg PUBLIC "-//W3C//DTD SVG 1.1//EN" "http://www.w3.org/Graphics/SVG/1.1/DTD/svg11.dtd">
<svg version="1.1" id="Layer_1" xmlns="http://www.w3.org/2000/svg" xmlns:xlink="http://www.w3.org/1999/xlink" x="0px" y="0px"
	 width="170px" height="170px" viewBox="0 0 170 170" enable-background="new 0 0 170 170" xml:space="preserve">
<title>Artboard 9</title>
<g>
	<path fill="#5E7A29" d="M98.109,103.782c-5.104,5.058-13.216,11.103-21.542,11.567c-2.221,3.43-3.436,4.743-7.631,7.816
		c4.824,4.438,7.727,13.345,6.269,20.579H86.21c0.515-0.065,1.028-0.116,1.543-0.185c0.296-3.492-2.69-7.016-5.287-9.367
		c-2.597-2.353-6.238-4.44-6.097-7.941c0.113-2.79,2.983-5.867,5.331-7.379c2.281-1.469,5.001-2.354,7.491-3.73
		C93.036,113.02,96.173,108.28,98.109,103.782z"/>
	<path fill="#83A734" d="M125.359,36.97c11.26,4.965,24.646,4.283,35.309-1.865c0.02-5.585-2.393-11.137-6.484-14.937
		c-4.096-3.8-9.238-5.906-14.806-5.47c0.009-2.234-2.021-4.273-4.256-4.273c-2.593,0-4.661,2.086-4.651,4.32
		c-0.77,0.052-1.459,0.241-2.229,0.293c-0.557-2.096-3.251-3.946-5.405-3.712c-2.155,0.234-4.041,1.539-5.665,2.974
		c-6.663,5.885-10.281,15.479-10.053,24.366c0.15,5.882-7.986,8.377-13.391,10.705C88.327,51.7,82.52,52.965,77.061,55.16
		c-6.245,2.511-11.936,6.196-17.908,9.302c-5.971,3.106-12.439,5.679-19.17,5.679c-5.223-0.002-10.302-1.553-15.411-2.639
		c-5.109-1.085-10.559-1.69-15.455,0.132c7.619,0.991,14.607,5.874,20.076,11.271c5.468,5.396,9.81,11.805,14.475,17.909
		c4.665,6.104,9.799,12.043,16.357,16.047c-1.073,2.257-3.623,5.455-4.988,8.309c-0.834,1.744,0.078,3.713,0.947,5.439
		c2.924,5.81,3.091,12.936,0.441,18.875h14.778c0.363-2.051-0.874-4.271-2.416-5.668c-1.542-1.398-3.427-2.369-5.031-3.695
		c-1.604-1.328-2.981-3.202-2.901-5.283c0.068-1.773,1.193-3.357,2.562-4.488c1.368-1.132,2.951-1.828,4.523-2.65
		c4.981-2.61,7.116-5.195,9.338-9.588c7.076,1.215,15.453-5.668,20.583-10.688c5.132-5.021,8.457-11.571,11.395-18.124
		c1.418-3.163,2.778-6.367,4.27-9.501c1.232-0.221,2.468-0.44,3.697-0.662c1.614-0.288,3.557-0.469,4.617,0.78
		c0.865,1.02,0.697,2.617-0.027,3.738c-0.724,1.123-3.938,2.396-4.137,3.104c-0.434,1.536,5.438-1.713,6.818-3.983
		c1.503,2.459-5.487,5.578-4.602,5.867c0.18,1.338,3.065-0.55,4.27-1.51c1.201-0.961,2.342-2.218,2.686-3.717
		c2.482,2.893-4.912,6.27-4.47,7.333c0.647,1.479,6.171-3.188,6.806-6.029c0.633-2.843-0.824-6.021-3.391-7.396
		c-2.456-1.316-5.438-0.994-8.178-0.48c-1.002,0.188-1.981,0.438-2.953,0.646c1.293-2.543,2.705-5.016,4.354-7.345
		c4.15-5.858,10.051-10.857,17.102-12.213c3.729-0.718,7.586-0.389,11.355-0.862c3.771-0.472,7.153-1.883,9.082-5.157
		C145.247,48.442,134.041,44.237,125.359,36.97z"/>
	<g>
		<path fill="#FBD75C" d="M108.357,76.725c-0.519,0.092-1.062-0.078-1.498-0.389c-2.037,3.944-4.088,7.896-6.697,11.499
			c-3.831,5.29-8.658,10.588-14.624,13.403c-0.657,0.311-1.328,0.593-2.01,0.844c-0.429,0.158-1.574,0.23-1.889,0.488
			c-0.547,0.453-0.575,2.039-0.772,2.748c-0.306,1.095-0.688,2.168-1.098,3.226c-0.734,1.896-1.57,3.756-2.489,5.567
			c-0.21,0.416-0.424,0.832-0.663,1.231c8.645-0.577,16.058-5.608,21.281-10.62c5.181-4.971,8.762-12.873,11.699-19.426
			c1.426-3.186,2.795-6.415,4.299-9.566C112.05,76.062,110.203,76.393,108.357,76.725z"/>
		<path fill="#FBD75C" d="M76.506,115.538c0.04-0.063,0.073-0.129,0.11-0.192c-0.017,0-0.033,0.004-0.049,0.004
			C76.54,115.41,76.502,115.521,76.506,115.538z"/>
		<path fill="#FBD75C" d="M120.797,57.563c-4.882,3.369-8.314,8.393-11.204,13.606c0.009,0.481,0.031,0.962,0.034,1.442
			c0.002,0.606,0.443,1.14,1.045,1.212c1.467,0.173,2.907-0.089,4.371-0.416c1.282-2.515,2.682-4.96,4.314-7.265
			c4.146-5.858,10.049-10.857,17.1-12.213c1.348-0.26,2.71-0.381,4.08-0.454c0.365-0.141,0.734-0.278,1.107-0.402
			C134.43,52.223,126.777,53.437,120.797,57.563z"/>
	</g>
	<path fill="#909091" d="M133.838,41.982c0.504-0.771,1.169-1.898,1.169-2.122c0.308,0.104-0.882-0.313-1.905-0.493
		C133.415,40.571,133.619,41.142,133.838,41.982z"/>
	<path fill="#909091" d="M137.607,40.084c0.348,0.795,0.8,1.827,1.264,2.886c0.371-0.957,0.74-1.914,1.113-2.871
		C139.191,40.094,138.398,40.089,137.607,40.084z"/>
	<path fill="#909091" d="M142.748,40.24c0.387,0.999,0.773,1.792,1.161,2.791c0.334-1.057,0.669-1.861,1.003-2.918
		C144.189,40.17,143.471,40.182,142.748,40.24z"/>
	<path fill="#909091" d="M150.543,39.195c-1.066,0.229-2.133,0.459-3.199,0.689c0.68,1.197,1.359,2.394,2.038,3.591
		C149.77,42.049,150.154,40.622,150.543,39.195z"/>
	<path fill="#909091" d="M152.079,38.808c0.846,1.122,1.517,2.378,1.971,3.708c0.539-1.57,1.078-3.139,1.617-4.709
		C154.471,38.14,153.275,38.474,152.079,38.808z"/>
	<path fill="#909091" d="M160.154,35.51c-0.961,0.451-1.922,0.902-2.885,1.354c0.567,1.125,1.138,2.25,1.707,3.376
		C159.369,38.663,159.762,37.086,160.154,35.51z"/>
	<path fill="#909091" d="M139.665,44.945c0.524-0.954,1.05-1.907,1.575-2.861c0.205,1.199,0.41,2.399,0.613,3.598
		C141.125,45.436,140.396,45.191,139.665,44.945z"/>
	<path fill="#909091" d="M135.057,43.578c0.524-0.954,1.049-1.907,1.574-2.861c0.206,1.199,0.411,2.398,0.616,3.597
		C136.518,44.069,135.786,43.823,135.057,43.578z"/>
	<path fill="#909091" d="M143.995,46.241c0.585-1.115,1.171-2.229,1.757-3.344c0.214,1.329,0.428,2.657,0.643,3.985
		C145.594,46.669,144.794,46.455,143.995,46.241z"/>
	<path fill="#909091" d="M149.072,47.537c0.666-1.216,1.336-2.253,2.027-3.518c0.241,1.294,0.485,2.587,0.729,3.881
		C150.91,47.84,149.991,47.596,149.072,47.537z"/>
	<path fill="#909091" d="M156.665,47.952c-0.808-0.185-1.647-0.223-2.47-0.11c0.461-1.097,0.921-2.194,1.381-3.292
		C155.939,45.684,156.303,46.818,156.665,47.952z"/>
	<path fill="#5E7A29" d="M134.439,62.592c-2.729-0.563-5.498,0.595-7.977,1.866c-2.152,1.106-4.081,2.521-6.377,2.917
		c-0.589,0.102-1.146-0.271-1.334-0.836c-0.857,1.24-1.656,2.518-2.404,3.822c0.564,0.625,1.59,0.83,2.344,0.453
		c2.684-1.351,5.367-2.697,8.05-4.047c1.464-0.735,3.274-1.46,4.647-0.564c1.117,0.73,1.411,2.311,1.037,3.592
		c-0.377,1.282-3.095,3.418-3.084,4.15c0.021,1.598,4.727-3.188,5.402-5.758c2.142,1.93-3.676,6.907-2.742,6.934
		c0.555,1.23,2.787-1.398,3.664-2.661s1.611-2.793,1.52-4.328c3.198,2.065-2.929,7.407-2.199,8.302
		c1.039,1.234,5.01-4.811,4.808-7.716C139.592,65.813,137.291,63.181,134.439,62.592z"/>
	<path fill="#FBD75C" d="M29.195,78.907c5.468,5.396,9.81,11.805,14.475,17.909c4.623,6.05,9.884,12.045,16.357,16.047
		c0.761-1.999,1.358-4.729,0.782-8.375c-7.428-0.403-10.524-7.271-15.39-12.896c-4.866-5.627-8.957-12.052-14.86-16.576
		c-4.86-3.727-10.843-5.883-16.946-6.341C19.477,70.605,24.82,74.589,29.195,78.907z"/>
	<path fill="#314C13" d="M122.766,17.263c0,0,0,0.153,0,0.421c0.008,0.127-0.035,0.309,0.012,0.468
		c0.054,0.156,0.093,0.322,0.127,0.502c0.041,0.18,0.183,0.37,0.27,0.569c0.084,0.21,0.288,0.349,0.424,0.542
		c0.021,0.024,0.108,0.139,0.073,0.09l0.546,0.375c0.242,0.124,0.441,0.14,0.659,0.252c0.254,0.008,0.515,0.073,0.761,0.055
		c0.225-0.061,0.539-0.059,0.684-0.15c0.23-0.129,0.564-0.21,0.688-0.363c0.146-0.148,0.33-0.245,0.448-0.406
		c0.11-0.167,0.233-0.312,0.339-0.45c0.104-0.137,0.124-0.287,0.182-0.397c0.1-0.232,0.176-0.41,0.176-0.41
		c0.035-0.081,0.129-0.118,0.209-0.083c0.066,0.029,0.104,0.099,0.097,0.167c0,0-0.022,0.16-0.062,0.44
		c-0.033,0.137-0.031,0.325-0.113,0.507c-0.084,0.18-0.174,0.393-0.299,0.615c-0.123,0.22-0.354,0.418-0.562,0.647
		c-0.223,0.249-0.454,0.316-0.695,0.49c-0.349,0.201-0.654,0.191-1.002,0.29c-0.339,0.042-0.688-0.013-1.039-0.025
		c-0.345-0.109-0.75-0.226-1.021-0.393l-0.535-0.387c-0.165-0.12-0.136-0.147-0.209-0.226c-0.184-0.275-0.438-0.498-0.509-0.794
		c-0.091-0.288-0.214-0.533-0.239-0.8c-0.021-0.271-0.036-0.518-0.029-0.728c0.004-0.208,0.077-0.343,0.104-0.478
		c0.079-0.256,0.122-0.403,0.122-0.403c0.032-0.109,0.147-0.17,0.258-0.137C122.708,17.091,122.766,17.175,122.766,17.263z"/>
	<path fill="#314C13" d="M132.555,18.493c0,0,0.098,0.119,0.25,0.335c0.078,0.101,0.152,0.257,0.278,0.375
		c0.135,0.104,0.28,0.208,0.414,0.332c0.122,0.131,0.362,0.188,0.536,0.304c0.177,0.138,0.424,0.123,0.634,0.197l0.192,0.054
		c-0.15-0.016-0.039-0.005-0.071-0.008l0.606-0.017c0.162,0.016,0.272-0.018,0.36-0.064c0.103-0.037,0.198-0.068,0.3-0.095
		c0.2-0.062,0.407-0.224,0.616-0.32c0.172-0.155,0.343-0.309,0.504-0.458c0.071-0.122,0.286-0.436,0.388-0.612
		c0.066-0.192,0.151-0.365,0.233-0.542c0.11-0.398,0.255-0.735,0.302-0.99c0.062-0.249,0.115-0.393,0.115-0.393
		c0.032-0.096,0.139-0.148,0.232-0.116c0.062,0.021,0.104,0.075,0.121,0.133c0,0,0.138,0.593,0.063,1.552
		c-0.037,0.25-0.106,0.533-0.188,0.826c-0.11,0.282-0.174,0.432-0.375,0.791c-0.221,0.244-0.438,0.526-0.709,0.741
		c-0.309,0.166-0.578,0.389-0.938,0.493c-0.354,0.071-0.802,0.217-1.062,0.168l-0.684-0.06l-0.273-0.104
		c-0.305-0.126-0.61-0.218-0.821-0.43c-0.224-0.198-0.451-0.333-0.593-0.566c-0.152-0.217-0.27-0.424-0.363-0.596
		c-0.08-0.173-0.092-0.332-0.133-0.458c-0.061-0.257-0.084-0.409-0.084-0.409c-0.006-0.045,0.025-0.087,0.07-0.095
		C132.509,18.458,132.538,18.471,132.555,18.493z"/>
	<path fill="#314C13" d="M153.42,31.523c0.385,0.121,0.796,0.155,1.193,0.097c-0.115-0.542-0.254-1.125-0.678-1.485
		c-0.424-0.359-1.222-0.304-1.391,0.224C152.379,30.875,152.904,31.36,153.42,31.523z"/>
	<path fill="#314C13" d="M157.991,30.239c-0.207,0.346-0.491,0.646-0.827,0.867c-0.273-0.482-0.557-1.011-0.48-1.56
		c0.078-0.549,0.709-1.038,1.188-0.758C158.337,29.062,158.268,29.774,157.991,30.239z"/>
	<path fill="#5E8129" d="M71.817,145.486c-0.001-1.057-0.175-2.113-0.513-3.115c-0.182-0.539-0.477-1.123-1.024-1.277
		c-0.372-0.104-0.782,0.025-1.087,0.264c-0.304,0.236-0.519,0.572-0.701,0.914c-0.552,1.037-0.497,2.162-0.505,3.338
		c-0.033-1.084-0.073-2.198-0.517-3.188c-0.443-0.987-1.396-1.832-2.48-1.807c-1.042,0.024-1.932,0.847-2.345,1.803
		c-0.413,0.958-0.226,2.085-0.22,3.127c-0.111-0.756-0.227-1.526-0.57-2.211c-0.343-0.685-0.958-1.274-1.714-1.392
		c-0.853-0.127-1.7,0.387-2.214,1.076c-0.516,0.691-0.764,1.541-1.002,2.369C61.863,145.333,66.877,145.54,71.817,145.486z"/>
	<path fill="#495B29" d="M87.718,143.645c0-1.057-0.142-2.112-0.416-3.115c-0.147-0.538-0.387-1.122-0.829-1.276
		c-0.304-0.104-0.636,0.024-0.883,0.263c-0.247,0.237-0.422,0.572-0.569,0.916c-0.449,1.035-0.403,2.16-0.41,3.338
		c-0.027-1.084-0.06-2.199-0.419-3.189c-0.36-0.988-1.133-1.832-2.012-1.807c-0.845,0.023-1.568,0.847-1.903,1.804
		s-0.184,2.084-0.179,3.126c-0.09-0.756-0.184-1.527-0.462-2.211c-0.277-0.684-0.776-1.275-1.39-1.391
		c-0.692-0.127-1.379,0.385-1.797,1.075c-0.418,0.691-0.619,1.54-0.812,2.369C79.643,143.49,83.711,143.697,87.718,143.645z"/>
	<g>
		<path fill="#A6AE3D" d="M45.135,72.271c0.325-0.875,0.432-1.812,0.508-2.742c-1.867,0.369-3.759,0.582-5.673,0.582
			c-0.079,0-0.156-0.008-0.234-0.01c-0.032,0.26-0.055,0.519-0.07,0.773c-0.069,1.218-0.03,2.613,0.894,3.411
			c0.742,0.641,1.892,0.665,2.76,0.212C44.188,74.046,44.795,73.191,45.135,72.271z"/>
		<path fill="#A6AE3D" d="M65.289,71.829c-0.319-0.548-0.949-0.968-1.569-0.837c-0.561,0.117-0.943,0.625-1.264,1.1
			c-0.276,0.409-0.551,0.829-0.696,1.301c-0.145,0.474-0.146,1.01,0.107,1.435c0.35,0.585,1.071,0.812,1.732,0.979
			c0.533,0.135,1.138,0.254,1.602-0.043c0.648-0.41,0.638-1.344,0.553-2.104C65.684,73.025,65.607,72.376,65.289,71.829z"/>
		<path fill="#A6AE3D" d="M48.827,69.327c-0.072,0.513,0.022,1.073,0.369,1.458c0.47,0.521,1.299,0.589,1.944,0.314
			c0.645-0.271,1.134-0.818,1.534-1.396c0.413-0.597,0.762-1.257,0.851-1.978c0.027-0.215,0.017-0.434-0.012-0.648
			c-1.485,0.613-2.995,1.161-4.525,1.618C48.917,68.902,48.856,69.111,48.827,69.327z"/>
		<path fill="#A6AE3D" d="M68.862,76.156c0.65,0.309,1.435,0.425,2.085,0.117c0.651-0.311,1.077-1.127,0.789-1.785
			c-0.719-0.178-1.437-0.354-2.156-0.532c-0.524-0.129-1.148-0.235-1.543,0.132c-0.322,0.299-0.348,0.827-0.149,1.219
			C68.087,75.697,68.465,75.969,68.862,76.156z"/>
		<path fill="#A6AE3D" d="M56.274,65.854c-0.041,1.166,0.082,2.337,0.375,3.464c0.213,0.822,0.561,1.681,1.284,2.123
			c1.058,0.646,2.528,0.086,3.254-0.918c0.727-1.004,0.878-2.309,0.908-3.545c0.025-1.042-0.019-2.084-0.132-3.122
			c-0.031-0.28-0.081-0.573-0.157-0.856c-0.884,0.485-1.771,0.966-2.666,1.431C58.198,64.924,57.241,65.398,56.274,65.854z"/>
		<path fill="#A6AE3D" d="M55.174,73.52c-0.693,0.305-1.16,0.974-1.466,1.664c-0.269,0.607-0.443,1.303-0.236,1.935
			c0.206,0.631,0.909,1.131,1.538,0.917c0.373-0.127,0.633-0.456,0.872-0.771c0.191-0.254,0.383-0.507,0.575-0.76
			c0.269-0.354,0.541-0.714,0.701-1.128c0.161-0.415,0.197-0.897-0.003-1.294C56.812,73.406,55.867,73.214,55.174,73.52z"/>
		<path fill="#A6AE3D" d="M34.077,69.805c-0.086,0.665-0.157,1.399,0.224,1.953c0.339,0.494,0.98,0.719,1.579,0.686
			c1.261-0.07,2.291-1.162,2.626-2.383c-1.472-0.078-2.935-0.252-4.391-0.504C34.103,69.641,34.087,69.723,34.077,69.805z"/>
		<path fill="#A6AE3D" d="M25.097,70.273c0.584-0.241,0.982-0.805,1.208-1.395c0.119-0.312,0.194-0.637,0.23-0.967
			c-0.658-0.151-1.317-0.299-1.976-0.438c-1.135-0.242-2.287-0.457-3.446-0.631c0.325,0.875,0.689,1.741,1.284,2.454
			C23.054,70.086,24.15,70.665,25.097,70.273z"/>
		<path fill="#A6AE3D" d="M112.223,20.123c0.603,0.406,1.336,0.645,2.061,0.635c1.701-0.022,3.316-1.164,3.979-2.733
			c0.592-1.403,0.422-3.074-0.359-4.381c-0.254,0.205-0.502,0.414-0.744,0.628C115.255,15.952,113.609,17.941,112.223,20.123z"/>
		<path fill="#A6AE3D" d="M51.923,73.438c-0.228-0.726-1.029-1.16-1.79-1.155c-0.761,0.004-1.477,0.358-2.104,0.791
			c-1.991,1.364-3.37,3.591-3.708,5.979c-0.145,1.022-0.095,2.113,0.413,3.012c0.507,0.897,1.556,1.541,2.567,1.336
			c1.319-0.268,1.987-1.709,2.455-2.973c0.64-1.724,1.279-3.447,1.918-5.172C51.891,74.672,52.11,74.033,51.923,73.438z"/>
		<path fill="#A6AE3D" d="M37.926,73.789c-0.471-0.193-1.036-0.158-1.464,0.116c-0.434,0.278-0.691,0.76-0.875,1.241
			c-0.198,0.521-0.331,1.062-0.396,1.617c-0.085,0.733,0.014,1.602,0.632,2.01c0.458,0.304,1.088,0.246,1.566-0.024
			s0.825-0.726,1.104-1.198c0.477-0.81,0.789-1.808,0.457-2.687C38.769,74.389,38.397,73.98,37.926,73.789z"/>
		<path fill="#A6AE3D" d="M31.068,70.868c0.688-0.257,1.222-0.879,1.394-1.595l0.003-0.028c-1.444-0.29-2.884-0.621-4.322-0.958
			C28.027,68.872,28.122,69.5,28.45,70C28.996,70.83,30.138,71.216,31.068,70.868z"/>
		<path fill="#A6AE3D" d="M107.887,38.026c0.854-0.046,1.706-0.092,2.562-0.138c0.611-0.033,1.234-0.067,1.824-0.25
			c0.588-0.182,1.147-0.529,1.463-1.06c0.449-0.761,0.296-1.783-0.234-2.491c-0.527-0.708-1.369-1.132-2.23-1.329
			c-0.861-0.196-1.756-0.187-2.641-0.176c-0.365,0.004-0.73,0.008-1.096,0.012c-0.294,1.815-0.438,3.64-0.43,5.443
			C107.366,38.048,107.631,38.04,107.887,38.026z"/>
		<path fill="#A6AE3D" d="M75.068,67.15c-0.242-1.682-0.484-3.359-0.727-5.041c-0.257-1.784-0.685-3.8-2.183-4.752
			c-2.489,1.248-4.922,2.612-7.356,3.978c0.214,1.853,0.444,3.714,1.009,5.49c0.591,1.855,1.578,3.636,3.09,4.863
			c0.754,0.611,1.648,1.084,2.611,1.207c0.964,0.123,2-0.133,2.701-0.805C75.471,70.891,75.317,68.874,75.068,67.15z"/>
		<path fill="#A6AE3D" d="M102.342,54.71c-0.812,0.408-1.729,0.966-1.809,1.872c-0.069,0.821,0.65,1.542,1.443,1.763
			c0.793,0.221,1.639,0.067,2.445-0.088c0.82-0.157,1.676-0.331,2.328-0.851c0.652-0.521,1.02-1.504,0.581-2.215
			c-0.202-0.329-0.541-0.55-0.894-0.714C105.148,53.872,103.557,53.963,102.342,54.71z"/>
		<path fill="#A6AE3D" d="M117.908,26.6c0.238-1.227,0-2.617-0.907-3.477c-0.884-0.838-2.192-1.017-3.408-1.075
			c-0.839-0.04-1.694-0.034-2.534,0.053c-1.523,2.844-2.623,5.949-3.271,9.119c0.739,0.312,1.555,0.492,2.345,0.543
			c1.696,0.109,3.443-0.238,4.891-1.132C116.467,29.734,117.583,28.269,117.908,26.6z"/>
		<path fill="#A6AE3D" d="M103.193,51.527c0.82-0.33,1.572-0.894,1.988-1.674c0.586-1.097,0.438-2.434,0.16-3.647
			c-0.156-0.689-0.367-1.404-0.867-1.904c-0.076-0.077-0.164-0.137-0.248-0.2c-2.134,1.741-5.131,3.021-7.903,4.159
			c0.022,0.075,0.038,0.153,0.063,0.227c0.475,1.303,1.492,2.397,2.76,2.962C100.413,52.016,101.907,52.044,103.193,51.527z"/>
		<path fill="#A6AE3D" d="M108.256,51.646c-0.561,0-1.011,0.654-0.812,1.177c0.199,0.523,0.97,0.713,1.391,0.343
			c0.262-0.232,0.359-0.632,0.234-0.959C108.943,51.879,108.604,51.646,108.256,51.646z"/>
		<path fill="#A6AE3D" d="M110.949,48.438c0.676-0.318,1.258-0.876,1.503-1.583c0.243-0.706,0.108-1.557-0.421-2.084
			c-0.588-0.585-1.491-0.676-2.318-0.734c-0.712-0.051-1.515-0.07-2.031,0.421c-0.373,0.358-0.5,0.905-0.533,1.423
			c-0.035,0.569,0.021,1.16,0.295,1.661c0.318,0.584,0.914,0.995,1.562,1.14C109.654,48.83,110.348,48.721,110.949,48.438z"/>
		<path fill="#A6AE3D" d="M111.247,42.438c0.851,0.233,1.763-0.054,2.522-0.501c0.405-0.239,0.797-0.534,1.039-0.939
			c0.244-0.404,0.312-0.936,0.086-1.348c-0.201-0.361-0.6-0.578-1.002-0.659c-0.406-0.081-0.822-0.043-1.233-0.005
			c-0.552,0.051-1.111,0.104-1.622,0.318c-0.51,0.214-0.969,0.618-1.11,1.152C109.701,41.308,110.398,42.204,111.247,42.438z"/>
		<path fill="#A6AE3D" d="M82.914,65.604c0.256-0.401,0.469-0.938,0.199-1.33c-0.282-0.411-0.886-0.381-1.379-0.306
			c-0.503,0.076-1.005,0.153-1.508,0.229c-0.573,0.087-1.193,0.198-1.589,0.623c-0.552,0.593-0.393,1.638,0.224,2.163
			c0.618,0.523,1.55,0.562,2.294,0.246C81.9,66.909,82.478,66.286,82.914,65.604z"/>
		<path fill="#A6AE3D" d="M86.75,64.841c-0.439,0.376-0.624,1.074-0.314,1.565c0.338,0.537,1.062,0.644,1.695,0.697
			c0.467,0.039,0.979,0.064,1.355-0.211c0.509-0.375,0.537-1.111,0.502-1.743c-0.5-0.292-1.023-0.569-1.594-0.673
			C87.822,64.374,87.191,64.464,86.75,64.841z"/>
		<path fill="#A6AE3D" d="M84.699,52.509c0.438,2.12,0.93,4.253,1.988,6.136c1.146,2.045,3.088,3.786,5.416,4.086
			c1.804,0.233,3.922-0.721,4.271-2.506c0.178-0.918-0.134-1.852-0.44-2.734c-0.606-1.749-1.218-3.497-1.826-5.246
			c-0.312-0.895-0.649-1.83-1.227-2.563C90.209,50.773,87.455,51.645,84.699,52.509z"/>
		<path fill="#A6AE3D" d="M77.154,58.968c0.209,0.95,0.674,1.933,1.552,2.353c0.58,0.276,1.276,0.263,1.871,0.021
			c0.595-0.241,1.09-0.695,1.44-1.233c0.475-0.729,0.693-1.639,0.525-2.493c-0.168-0.855-0.742-1.636-1.54-1.986
			c-0.633-0.278-1.361-0.277-2.035-0.119c-0.673,0.157-1.301,0.463-1.914,0.783C76.927,57.181,76.961,58.092,77.154,58.968z"/>
		<path fill="#A6AE3D" d="M78.4,73.154c0.638-0.106,1.176-0.569,1.5-1.129c0.396-0.685,0.448-1.676-0.177-2.158
			c-0.337-0.262-0.806-0.311-1.217-0.197c-0.411,0.111-0.771,0.368-1.073,0.668c-0.53,0.525-0.923,1.319-0.638,2.01
			C77.043,72.943,77.763,73.262,78.4,73.154z"/>
	</g>
	<g>
		<path fill="#FBBD43" d="M39.171,83.865c-0.227-0.28-0.455-0.562-0.684-0.84l-2.227,3.97c0.224,0.287,0.45,0.571,0.671,0.858
			L39.171,83.865z"/>
		<path fill="#FBBD43" d="M42.852,88.491c-0.227-0.282-0.452-0.565-0.677-0.849l-2.298,4.109c0.22,0.295,0.44,0.589,0.659,0.883
			L42.852,88.491z"/>
		<path fill="#FBBD43" d="M32.778,82.751c0.229,0.265,0.458,0.528,0.684,0.796l2.345-3.63c-0.234-0.256-0.471-0.508-0.708-0.758
			L32.778,82.751z"/>
		<path fill="#FBBD43" d="M52.497,100.348l-1.865,4.713c0.254,0.269,0.511,0.53,0.77,0.791l1.876-4.742
			C53.013,100.864,52.752,100.609,52.497,100.348z"/>
		<path fill="#FBBD43" d="M45.419,91.593c-0.082-0.096-0.162-0.192-0.244-0.286l-2.187,4.604c0.228,0.302,0.681,0.905,0.681,0.905
			l2.217-4.664C45.732,91.966,45.579,91.777,45.419,91.593z"/>
		<path fill="#FBBD43" d="M26.075,72.195c-0.302-0.156-0.606-0.312-0.914-0.456L23.5,73.993c0.27,0.2,0.536,0.403,0.801,0.608
			L26.075,72.195z"/>
		<path fill="#FBBD43" d="M19.917,71.594c0.288,0.172,0.574,0.35,0.858,0.528l1.179-1.699c-0.33-0.114-0.662-0.226-0.996-0.33
			L19.917,71.594z"/>
		<path fill="#FBBD43" d="M49.551,96.867c-0.228-0.295-0.454-0.594-0.682-0.895l-2.243,4.567c0.234,0.284,0.468,0.565,0.706,0.849
			L49.551,96.867z"/>
		<path fill="#FBBD43" d="M30.664,75.1c-0.036-0.025-0.069-0.057-0.105-0.084c-0.231-0.177-0.477-0.332-0.713-0.502l-2.007,3.098
			c0.25,0.231,0.499,0.466,0.744,0.699L30.664,75.1z"/>
		<path fill="#FBBD43" d="M57.105,103.65c-0.314-0.131-0.615-0.281-0.913-0.439l-1.842,5.421c0.272,0.238,0.548,0.47,0.824,0.701
			L57.105,103.65z"/>
	</g>
	<path fill="#5E8129" d="M81.151,103.703C81.066,103.866,81.139,103.734,81.151,103.703
		C81.158,103.684,81.143,103.723,81.151,103.703c2.185-5.953,0.556-11.896-2.149-13.567C81.597,94.062,81.368,99.164,81.151,103.703
		z"/>
	<path fill="#5E8129" d="M72.639,119.053c0.22-0.296,0.418-0.621,0.478-0.984c0.059-0.36-0.046-0.771-0.34-0.991
		c-0.424-0.318-1.028-0.146-1.505,0.086c-1.273,0.614-2.384,1.562-3.196,2.722c-0.233,0.333-0.448,0.758-0.282,1.126
		c0.222,0.497,0.926,0.503,1.452,0.358C70.59,121,71.804,120.17,72.639,119.053z"/>
	<path fill="#5E8129" d="M105.721,65.197c-2.041,3.896-1.996,8.785,0.475,12.425c0.164-0.362,0.33-0.724,0.494-1.086
		C104.98,73.008,104.786,69.003,105.721,65.197z"/>
	<g opacity="0.25">
		<path fill="#B86029" d="M50.14,100.852c-6.429-6.295-11.469-13.867-17.641-20.414c-4.472-4.744-9.8-9.027-15.8-11.363
			c-1.023-0.176-2.051-0.319-3.086-0.396c5.864,1.932,11.208,5.913,15.583,10.231c5.468,5.396,9.81,11.805,14.475,17.907
			c4.623,6.052,9.884,12.045,16.357,16.049c0.421-1.107,0.786-2.448,0.935-4.036C56.986,106.796,53.326,103.973,50.14,100.852z"/>
	</g>
	<g opacity="0.25">
		<path fill="#B86029" d="M76.506,115.538c0.04-0.063,0.073-0.129,0.11-0.192c-0.017,0-0.033,0.004-0.049,0.004
			C76.54,115.41,76.502,115.521,76.506,115.538z"/>
		<path fill="#B86029" d="M130.378,56.044c-6.586,3.645-11.877,9.722-16.039,16.127c-5.379,8.279-9.432,17.422-15.472,25.231
			c-5.151,6.66-12.251,12.418-20.35,14.115c-0.394,0.875-0.805,1.738-1.237,2.594c-0.21,0.416-0.424,0.832-0.663,1.231
			c8.645-0.577,16.058-5.608,21.281-10.62c5.181-4.971,8.762-12.873,11.699-19.426c2.936-6.552,5.609-13.297,9.762-19.156
			c2.904-4.103,6.672-7.78,11.088-10.083C130.422,56.057,130.4,56.049,130.378,56.044z"/>
	</g>
	<g>
		<path fill="#FBBD43" d="M88.34,99.677c1.999,2.912,2.969,6.935,2.725,10.53c0.357-0.27,0.711-0.454,1.062-0.73
			c0.056-3.555-0.976-7.543-2.938-10.414C88.904,99.273,88.623,99.479,88.34,99.677z"/>
		<path fill="#FBBD43" d="M116.786,70.279c0.2-0.346,0.405-0.687,0.612-1.026c-0.461-0.823-1.082-1.56-1.83-2.147
			c-0.781-0.614-1.688-1.054-2.642-1.304c-0.204,0.295-0.405,0.592-0.604,0.892c0.948,0.191,1.854,0.599,2.62,1.201
			C115.747,68.525,116.379,69.354,116.786,70.279z"/>
		<path fill="#FBBD43" d="M83.075,102.2c1.171,3.797,1.018,8.266-0.378,11.997c0.416-0.151,0.848-0.252,1.256-0.422
			c1.188-3.698,1.267-8.207,0.142-11.911C83.768,101.955,83.404,102.145,83.075,102.2z"/>
		<path fill="#FBBD43" d="M121.057,63.832c-1.303-1.183-2.861-2.093-4.533-2.649c-0.256,0.269-0.508,0.541-0.754,0.818
			c1.725,0.497,3.338,1.4,4.66,2.614C120.637,64.353,120.844,64.09,121.057,63.832z"/>
		<path fill="#FBBD43" d="M125.982,58.961c-1.09-1.017-2.385-1.812-3.789-2.319c-0.385,0.226-0.764,0.463-1.137,0.711
			c1.539,0.413,2.961,1.196,4.135,2.265C125.452,59.395,125.715,59.175,125.982,58.961z"/>
		<path fill="#FBBD43" d="M112.177,76.039c0.371,0.396,0.718,0.812,1.03,1.255c0.159-0.344,0.32-0.687,0.482-1.028
			c-0.117-0.148-0.252-0.285-0.375-0.43C112.936,75.902,112.557,75.973,112.177,76.039z"/>
		<path fill="#FBBD43" d="M105.543,78.938c-0.156,0.297-0.314,0.595-0.471,0.89c2.023,1.178,3.691,2.963,4.742,5.054
			c0.172-0.385,0.344-0.771,0.515-1.156C109.182,81.751,107.518,80.078,105.543,78.938z"/>
		<path fill="#FBBD43" d="M92.857,96.207c2.097,2.676,3.591,6.045,4.035,9.561c0.307-0.312,0.604-0.621,0.895-0.93
			c-0.57-3.477-2.008-6.777-4.104-9.432C93.447,95.674,93.1,95.941,92.857,96.207z"/>
		<path fill="#FBBD43" d="M130.559,53.471c-0.533,0.108-1.063,0.235-1.593,0.372c0.983,0.379,1.911,0.909,2.75,1.554
			c0.347-0.153,0.695-0.299,1.05-0.434C132.083,54.389,131.348,53.884,130.559,53.471z"/>
		<path fill="#FBBD43" d="M97.924,90.704c2.237,2.646,3.615,5.991,3.829,9.407c0.326-0.408,0.621-0.997,0.935-1.418
			c-0.449-3.283-1.867-6.272-4.062-8.811C98.398,90.15,98.163,90.425,97.924,90.704z"/>
		<path fill="#FBBD43" d="M102.174,84.83c-0.179,0.287-0.349,0.556-0.531,0.839c2.028,1.81,3.65,4.25,4.609,6.788
			c0.206-0.387,0.389-0.803,0.588-1.191C105.788,88.844,104.167,86.57,102.174,84.83z"/>
	</g>
	<path fill="#5E8129" d="M108.415,75.742c0.192-0.348,0.124-0.82-0.159-1.098c-0.283-0.278-0.758-0.336-1.102-0.137
		c-0.225,0.131-0.385,0.359-0.437,0.613c-0.081,0.422,0.181,0.885,0.585,1.031C107.707,76.303,108.204,76.117,108.415,75.742z"/>
	<g opacity="0.38">
		<path fill="#5E7A29" d="M156.473,47.712c-0.457,0.027-0.912,0.033-1.367,0.044c-2.373,1.883-5.58,2.886-8.646,3.304
			c-4.5,0.614-9.165,0.35-13.478,1.78c-4.601,1.527-8.489,5.037-10.549,9.42c3.711-4.036,8.35-7.204,13.67-8.292
			c3.725-0.761,7.582-0.478,11.349-0.993C151.215,52.459,154.582,51.009,156.473,47.712z"/>
	</g>
	<path fill="#5E8129" d="M109.996,68.881c0.07,0.389,0.143,0.789,0.059,1.176c-0.087,0.393-0.322,0.729-0.556,1.059
		c0.135-1.707-0.045-3.438-0.522-5.082C109.609,66.83,109.812,67.879,109.996,68.881z"/>
	<g opacity="0.15">
		<path fill="#FFFFFF" d="M140.766,16.964c5.568-0.436,10.711,1.671,14.805,5.469c1.004,0.93,1.902,1.966,2.691,3.081
			c-1.057-1.991-2.427-3.813-4.078-5.346c-3.933-3.65-8.834-5.729-14.146-5.503C140.493,15.345,140.77,16.141,140.766,16.964z"/>
		<path fill="#FFFFFF" d="M25.962,69.77c5.109,1.086,10.188,2.638,15.411,2.639c6.73,0.002,13.199-2.572,19.17-5.68
			c5.971-3.104,11.663-6.791,17.907-9.302c5.459-2.195,11.265-3.459,16.668-5.789c5.403-2.33,13.538-4.823,13.388-10.705
			c-0.229-8.887,3.391-18.48,10.053-24.367c1.625-1.435,3.512-2.739,5.666-2.974c2.154-0.234,4.851,1.617,5.404,3.712
			c0.77-0.053,1.459-0.241,2.229-0.293c-0.01-2.233,2.062-4.32,4.65-4.32c1.021,0,1.996,0.429,2.758,1.104
			c-0.445-1.851-2.219-3.37-4.146-3.37c-2.593,0-4.661,2.086-4.651,4.32c-0.77,0.052-1.459,0.241-2.229,0.293
			c-0.557-2.096-3.252-3.946-5.405-3.712c-2.155,0.234-4.041,1.539-5.665,2.974c-6.663,5.885-10.281,15.479-10.053,24.366
			c0.15,5.882-7.986,8.377-13.391,10.705C88.325,51.7,82.519,52.965,77.06,55.16c-6.245,2.511-11.937,6.196-17.908,9.302
			c-5.971,3.106-12.44,5.679-19.17,5.679c-5.223-0.002-10.302-1.553-15.411-2.639c-5.109-1.085-10.559-1.69-15.455,0.132
			c1.794,0.233,3.552,0.688,5.264,1.31C18.187,68.425,22.168,68.963,25.962,69.77z"/>
	</g>
	<path fill="#D8E183" d="M59.124,145.736c-0.541-0.785-0.127-1.99,0.724-2.42c0.851-0.433,1.95-0.151,2.628,0.518
		c0.479,0.473,0.78,1.669,0.832,2.339C61.927,146.395,60.262,146.229,59.124,145.736z"/>
	<path fill="#D8E183" d="M64.108,145.736c-0.541-0.785-0.127-1.99,0.724-2.42c0.851-0.433,1.95-0.151,2.628,0.518
		c0.479,0.473,0.78,1.669,0.832,2.339C66.911,146.395,65.246,146.229,64.108,145.736z"/>
	<path fill="#D8E183" d="M69.161,145.736c-0.541-0.785-0.128-1.99,0.723-2.42c0.852-0.433,1.95-0.151,2.629,0.518
		c0.479,0.473,0.78,1.669,0.831,2.339C71.963,146.395,70.298,146.229,69.161,145.736z"/>
	<path fill="#D8E183" d="M76.941,144.157c-0.473-0.785-0.112-1.991,0.633-2.423c0.745-0.43,1.706-0.149,2.3,0.521
		c0.419,0.472,0.682,1.668,0.728,2.338C79.393,144.816,77.936,144.648,76.941,144.157z"/>
	<path fill="#D8E183" d="M81.484,144.157c-0.495-0.785-0.117-1.991,0.662-2.423c0.779-0.43,1.785-0.149,2.407,0.521
		c0.438,0.472,0.714,1.668,0.761,2.338C84.049,144.816,82.525,144.648,81.484,144.157z"/>
	<path fill="#D8E183" d="M85.538,143.895c-0.498-0.785-0.118-1.99,0.666-2.42c0.782-0.432,1.794-0.15,2.419,0.519
		c0.439,0.472,0.718,1.668,0.766,2.339C88.118,144.552,86.584,144.385,85.538,143.895z"/>
</g>
</svg>
