<?xml version="1.0" encoding="utf-8"?>
<!-- Generator: Adobe Illustrator 16.0.4, SVG Export Plug-In . SVG Version: 6.00 Build 0)  -->
<!DOCTYPE svg PUBLIC "-//W3C//DTD SVG 1.1//EN" "http://www.w3.org/Graphics/SVG/1.1/DTD/svg11.dtd">
<svg version="1.1" id="Layer_1" xmlns="http://www.w3.org/2000/svg" xmlns:xlink="http://www.w3.org/1999/xlink" x="0px" y="0px"
	 width="170px" height="170px" viewBox="0 0 170 170" enable-background="new 0 0 170 170" xml:space="preserve">
<title>Artboard 9</title>
<g>
	<path fill="#5E7A29" d="M98.11,122.782c-5.104,5.058-13.217,11.103-21.543,11.567c-2.221,3.43-3.436,4.745-7.631,7.818
		c4.824,4.438,7.727,13.345,6.269,20.579H86.21c0.515-0.067,1.028-0.116,1.543-0.184c0.296-3.491-2.69-7.015-5.287-9.366
		c-2.597-2.353-6.238-4.442-6.097-7.943c0.113-2.79,2.983-5.867,5.331-7.379c2.281-1.468,5.001-2.354,7.492-3.731
		C93.036,132.019,96.173,127.28,98.11,122.782z"/>
	<path fill="#83A734" d="M125.36,55.97c11.259,4.965,24.647,4.283,35.308-1.865c0.019-5.585-2.392-11.137-6.485-14.937
		c-4.095-3.8-9.237-5.906-14.805-5.47c0.009-2.234-2.021-4.273-4.256-4.273c-2.592,0-4.661,2.086-4.651,4.32
		c-0.77,0.052-1.459,0.241-2.229,0.293c-0.556-2.096-3.251-3.946-5.405-3.712c-2.156,0.234-4.041,1.539-5.665,2.974
		c-6.663,5.885-10.281,15.479-10.053,24.366c0.151,5.882-7.986,8.377-13.39,10.705c-5.402,2.329-11.208,3.594-16.667,5.789
		c-6.245,2.511-11.936,6.196-17.908,9.302c-5.971,3.106-12.439,5.679-19.17,5.678c-5.223-0.002-10.302-1.552-15.411-2.638
		c-5.109-1.085-10.559-1.69-15.455,0.132c7.619,0.991,14.607,5.874,20.076,11.271c5.468,5.396,9.81,11.805,14.475,17.909
		c4.665,6.105,9.799,12.044,16.357,16.047c-1.073,2.257-3.623,5.455-4.988,8.309c-0.834,1.744,0.078,3.713,0.947,5.439
		c2.924,5.81,3.091,12.936,0.441,18.876h14.778c0.363-2.051-0.874-4.27-2.416-5.669c-1.542-1.398-3.427-2.369-5.031-3.695
		c-1.604-1.328-2.981-3.202-2.901-5.283c0.068-1.774,1.193-3.358,2.562-4.489c1.368-1.131,2.951-1.828,4.523-2.651
		c4.981-2.61,7.116-5.195,9.338-9.587c7.076,1.214,15.452-5.668,20.583-10.689s8.457-11.572,11.394-18.124
		c1.418-3.163,2.778-6.368,4.269-9.501c1.233-0.221,2.467-0.441,3.698-0.662c1.614-0.289,3.557-0.469,4.617,0.78
		c0.865,1.019,0.697,2.617-0.027,3.739c-0.724,1.124-3.938,2.397-4.137,3.104c-0.434,1.536,5.438-1.713,6.818-3.984
		c1.503,2.459-5.487,5.578-4.602,5.866c0.18,1.338,3.067-0.548,4.27-1.508c1.201-0.961,2.342-2.218,2.686-3.717
		c2.482,2.891-4.913,6.268-4.47,7.333c0.647,1.479,6.171-3.188,6.805-6.029c0.633-2.843-0.824-6.021-3.39-7.397
		c-2.456-1.316-5.438-0.994-8.178-0.48c-1.002,0.188-1.981,0.438-2.953,0.646c1.293-2.542,2.705-5.015,4.354-7.345
		c4.15-5.858,10.05-10.857,17.1-12.213c3.73-0.718,7.586-0.389,11.356-0.862c3.771-0.472,7.154-1.883,9.082-5.157
		C145.247,67.442,134.041,63.237,125.36,55.97z"/>
	<g>
		<path fill="#FBD75C" d="M108.357,95.724c-0.517,0.092-1.061-0.077-1.497-0.388c-2.038,3.944-4.089,7.896-6.698,11.499
			c-3.831,5.29-8.658,10.588-14.624,13.403c-0.657,0.311-1.328,0.593-2.01,0.844c-0.429,0.158-1.574,0.23-1.889,0.489
			c-0.547,0.452-0.575,2.038-0.772,2.748c-0.306,1.094-0.688,2.167-1.098,3.225c-0.734,1.896-1.57,3.756-2.489,5.568
			c-0.21,0.416-0.424,0.832-0.663,1.232c8.645-0.578,16.058-5.61,21.281-10.621c5.181-4.97,8.762-12.873,11.699-19.425
			c1.427-3.185,2.795-6.415,4.299-9.567C112.05,95.062,110.203,95.393,108.357,95.724z"/>
		<path fill="#FBD75C" d="M76.506,134.538c0.04-0.063,0.073-0.129,0.11-0.193c-0.017,0.001-0.033,0.004-0.049,0.005
			C76.54,134.41,76.502,134.521,76.506,134.538z"/>
		<path fill="#FBD75C" d="M120.797,76.563c-4.882,3.369-8.314,8.393-11.204,13.606c0.008,0.481,0.031,0.962,0.034,1.443
			c0.002,0.607,0.443,1.139,1.045,1.211c1.467,0.173,2.907-0.088,4.371-0.416c1.282-2.515,2.682-4.96,4.315-7.265
			c4.147-5.858,10.048-10.857,17.099-12.213c1.348-0.26,2.71-0.381,4.08-0.454c0.366-0.141,0.734-0.278,1.108-0.402
			C134.43,71.223,126.777,72.437,120.797,76.563z"/>
	</g>
	<path fill="#D1D3D4" d="M133.838,60.982c0.504-0.771,1.169-1.898,1.169-2.122c0.307,0.104-0.882-0.313-1.905-0.493
		C133.415,59.571,133.619,60.142,133.838,60.982z"/>
	<path fill="#D1D3D4" d="M137.608,59.084c0.347,0.795,0.799,1.827,1.263,2.886c0.371-0.957,0.741-1.914,1.113-2.871
		C139.191,59.094,138.399,59.089,137.608,59.084z"/>
	<path fill="#D1D3D4" d="M142.748,59.24c0.387,0.999,0.774,1.792,1.161,2.791c0.334-1.057,0.669-1.861,1.003-2.918
		C144.19,59.17,143.47,59.182,142.748,59.24z"/>
	<path fill="#D1D3D4" d="M150.543,58.195c-1.066,0.229-2.133,0.459-3.199,0.689c0.68,1.197,1.359,2.394,2.038,3.591
		C149.77,61.049,150.155,59.622,150.543,58.195z"/>
	<path fill="#D1D3D4" d="M152.079,57.808c0.846,1.122,1.516,2.378,1.971,3.708c0.539-1.57,1.078-3.139,1.617-4.709
		C154.471,57.14,153.276,57.474,152.079,57.808z"/>
	<path fill="#D1D3D4" d="M160.155,54.51c-0.962,0.451-1.923,0.902-2.885,1.354c0.568,1.125,1.137,2.25,1.706,3.376
		C159.369,57.663,159.762,56.086,160.155,54.51z"/>
	<path fill="#D1D3D4" d="M139.665,63.945c0.524-0.954,1.05-1.907,1.575-2.861c0.205,1.199,0.41,2.399,0.614,3.598
		C141.125,64.436,140.396,64.191,139.665,63.945z"/>
	<path fill="#D1D3D4" d="M135.056,62.578c0.525-0.954,1.05-1.907,1.575-2.861c0.206,1.199,0.411,2.398,0.616,3.597
		C136.518,63.069,135.786,62.823,135.056,62.578z"/>
	<path fill="#D1D3D4" d="M143.995,65.241c0.585-1.115,1.171-2.229,1.757-3.344c0.214,1.329,0.428,2.657,0.643,3.985
		C145.594,65.669,144.794,65.455,143.995,65.241z"/>
	<path fill="#D1D3D4" d="M149.072,66.537c0.666-1.216,1.336-2.253,2.028-3.518c0.242,1.294,0.486,2.587,0.728,3.881
		C150.91,66.84,149.991,66.596,149.072,66.537z"/>
	<path fill="#D1D3D4" d="M156.665,66.952c-0.808-0.185-1.648-0.223-2.469-0.11c0.46-1.097,0.92-2.194,1.38-3.292
		C155.939,64.684,156.303,65.818,156.665,66.952z"/>
	<path fill="#5E7A29" d="M134.439,81.592c-2.728-0.563-5.497,0.595-7.975,1.866c-2.154,1.106-4.081,2.521-6.377,2.917
		c-0.589,0.102-1.148-0.271-1.334-0.836c-0.859,1.24-1.657,2.517-2.406,3.822c0.566,0.625,1.591,0.831,2.345,0.453
		c2.683-1.349,5.366-2.697,8.049-4.046c1.464-0.736,3.275-1.461,4.647-0.565c1.119,0.73,1.413,2.31,1.039,3.592
		c-0.377,1.282-3.095,3.418-3.084,4.151c0.021,1.597,4.726-3.188,5.402-5.758c2.141,1.929-3.674,6.908-2.742,6.933
		c0.553,1.23,2.787-1.398,3.664-2.661s1.613-2.793,1.519-4.328c3.199,2.065-2.928,7.407-2.199,8.302
		c1.039,1.234,5.009-4.811,4.807-7.716S137.291,82.181,134.439,81.592z"/>
	<path fill="#FBD75C" d="M29.195,97.907c5.468,5.396,9.81,11.805,14.475,17.909c4.623,6.05,9.884,12.045,16.357,16.047
		c0.761-1.999,1.358-4.727,0.782-8.375c-7.428-0.403-10.524-7.269-15.39-12.896c-4.866-5.627-8.957-12.052-14.86-16.577
		c-4.86-3.726-10.843-5.882-16.946-6.34C19.477,89.606,24.82,93.589,29.195,97.907z"/>
	<path fill="#314C13" d="M122.765,36.263c0,0,0,0.153,0,0.421c0.008,0.127-0.034,0.309,0.012,0.468
		c0.053,0.156,0.092,0.322,0.127,0.502c0.042,0.18,0.182,0.37,0.269,0.569c0.084,0.21,0.288,0.349,0.422,0.542
		c0.021,0.024,0.11,0.139,0.075,0.09l0.546,0.375c0.242,0.124,0.441,0.14,0.659,0.252c0.254,0.008,0.513,0.073,0.761,0.055
		c0.224-0.061,0.539-0.059,0.683-0.15c0.231-0.129,0.565-0.21,0.688-0.363c0.146-0.148,0.33-0.245,0.448-0.406
		c0.112-0.167,0.235-0.312,0.339-0.45c0.103-0.137,0.124-0.287,0.18-0.397c0.1-0.232,0.177-0.41,0.177-0.41
		c0.034-0.081,0.129-0.118,0.209-0.083c0.067,0.029,0.104,0.099,0.096,0.167c0,0-0.022,0.16-0.061,0.44
		c-0.033,0.137-0.031,0.325-0.113,0.507c-0.085,0.18-0.175,0.393-0.299,0.615c-0.123,0.22-0.354,0.418-0.563,0.647
		c-0.222,0.249-0.454,0.316-0.695,0.49c-0.349,0.201-0.655,0.191-1.002,0.29c-0.339,0.042-0.69-0.013-1.04-0.025
		c-0.344-0.109-0.75-0.226-1.022-0.393l-0.535-0.387c-0.165-0.12-0.135-0.147-0.209-0.226c-0.182-0.275-0.436-0.498-0.509-0.794
		c-0.089-0.288-0.212-0.533-0.239-0.8c-0.023-0.271-0.036-0.518-0.03-0.728c0.004-0.208,0.078-0.343,0.104-0.478
		c0.079-0.256,0.123-0.403,0.123-0.403c0.032-0.109,0.147-0.17,0.257-0.137C122.708,36.091,122.765,36.175,122.765,36.263z"/>
	<path fill="#314C13" d="M132.555,37.493c0,0,0.098,0.119,0.249,0.335c0.079,0.101,0.153,0.257,0.279,0.375
		c0.135,0.104,0.28,0.208,0.414,0.332c0.122,0.131,0.363,0.188,0.536,0.304c0.177,0.138,0.424,0.123,0.634,0.197l0.193,0.054
		c-0.151-0.016-0.04-0.005-0.072-0.008l0.606-0.017c0.162,0.016,0.274-0.018,0.362-0.064c0.101-0.037,0.198-0.068,0.298-0.095
		c0.202-0.062,0.409-0.224,0.618-0.32c0.172-0.155,0.342-0.309,0.504-0.458c0.071-0.122,0.286-0.436,0.387-0.612
		c0.067-0.192,0.152-0.365,0.234-0.542c0.111-0.398,0.255-0.735,0.3-0.99c0.064-0.249,0.117-0.393,0.117-0.393
		c0.032-0.096,0.137-0.148,0.233-0.116c0.062,0.021,0.105,0.075,0.121,0.133c0,0,0.137,0.593,0.064,1.552
		c-0.037,0.25-0.106,0.533-0.188,0.826c-0.112,0.282-0.175,0.432-0.376,0.791c-0.22,0.244-0.437,0.526-0.709,0.741
		c-0.308,0.166-0.577,0.389-0.939,0.493c-0.353,0.071-0.802,0.217-1.062,0.168l-0.683-0.06l-0.274-0.104
		c-0.305-0.126-0.611-0.218-0.822-0.43c-0.224-0.198-0.451-0.333-0.593-0.566c-0.152-0.217-0.268-0.424-0.363-0.596
		c-0.08-0.173-0.092-0.332-0.132-0.458c-0.061-0.257-0.084-0.409-0.084-0.409c-0.007-0.045,0.024-0.087,0.07-0.095
		C132.509,37.458,132.538,37.471,132.555,37.493z"/>
	<path fill="#314C13" d="M153.42,50.523c0.385,0.121,0.796,0.155,1.194,0.097c-0.116-0.542-0.255-1.125-0.679-1.485
		c-0.423-0.359-1.22-0.304-1.389,0.224C152.379,49.875,152.904,50.36,153.42,50.523z"/>
	<path fill="#314C13" d="M157.991,49.239c-0.207,0.346-0.491,0.646-0.827,0.867c-0.274-0.482-0.557-1.011-0.48-1.56
		s0.708-1.038,1.187-0.758C158.337,48.062,158.268,48.774,157.991,49.239z"/>
	<path fill="#5E8129" d="M71.817,164.487c-0.001-1.057-0.175-2.114-0.513-3.116c-0.182-0.539-0.477-1.123-1.024-1.277
		c-0.372-0.106-0.782,0.025-1.087,0.264c-0.304,0.236-0.519,0.571-0.701,0.913c-0.552,1.037-0.497,2.162-0.505,3.338
		c-0.033-1.084-0.073-2.199-0.517-3.189c-0.443-0.988-1.396-1.832-2.48-1.807c-1.042,0.025-1.932,0.847-2.345,1.803
		c-0.413,0.958-0.226,2.085-0.22,3.127c-0.111-0.756-0.227-1.527-0.57-2.211s-0.958-1.275-1.714-1.39
		c-0.853-0.128-1.7,0.385-2.214,1.076c-0.516,0.691-0.764,1.54-1.002,2.369C61.863,164.333,66.877,164.54,71.817,164.487z"/>
	<path fill="#495B29" d="M87.718,162.645c0-1.057-0.142-2.114-0.416-3.116c-0.147-0.539-0.387-1.123-0.83-1.277
		c-0.303-0.106-0.635,0.025-0.882,0.262c-0.247,0.238-0.422,0.573-0.569,0.915c-0.449,1.037-0.403,2.162-0.41,3.338
		c-0.027-1.084-0.06-2.199-0.419-3.189c-0.36-0.988-1.133-1.832-2.012-1.807c-0.845,0.025-1.568,0.847-1.903,1.804
		c-0.335,0.957-0.184,2.084-0.179,3.126c-0.09-0.756-0.184-1.527-0.462-2.211c-0.277-0.684-0.776-1.275-1.39-1.39
		c-0.692-0.128-1.379,0.385-1.797,1.076s-0.619,1.54-0.812,2.369C79.643,162.49,83.711,162.697,87.718,162.645z"/>
	<g>
		<path fill="#A6AE3D" d="M45.135,91.272c0.325-0.875,0.432-1.812,0.508-2.743c-1.867,0.369-3.759,0.582-5.673,0.582
			c-0.079,0-0.156-0.008-0.234-0.009c-0.032,0.259-0.055,0.518-0.07,0.774c-0.069,1.218-0.03,2.613,0.894,3.411
			c0.742,0.641,1.892,0.665,2.76,0.212S44.795,92.191,45.135,91.272z"/>
		<path fill="#A6AE3D" d="M65.289,90.829c-0.319-0.548-0.949-0.967-1.569-0.837c-0.561,0.118-0.943,0.625-1.264,1.1
			c-0.276,0.409-0.551,0.829-0.696,1.301c-0.145,0.472-0.146,1.01,0.107,1.433c0.35,0.585,1.071,0.811,1.732,0.979
			c0.533,0.135,1.138,0.253,1.602-0.043c0.648-0.411,0.638-1.343,0.553-2.104C65.684,92.026,65.607,91.376,65.289,90.829z"/>
		<path fill="#A6AE3D" d="M48.827,88.327c-0.072,0.513,0.022,1.073,0.369,1.458c0.47,0.521,1.299,0.589,1.944,0.315
			c0.645-0.272,1.134-0.819,1.534-1.395c0.413-0.595,0.762-1.257,0.851-1.976c0.027-0.215,0.017-0.434-0.012-0.65
			c-1.485,0.615-2.995,1.161-4.525,1.618C48.917,87.903,48.856,88.112,48.827,88.327z"/>
		<path fill="#A6AE3D" d="M68.862,95.156c0.65,0.309,1.435,0.425,2.085,0.117c0.651-0.309,1.077-1.126,0.789-1.785
			c-0.719-0.178-1.437-0.354-2.156-0.532c-0.524-0.129-1.148-0.235-1.543,0.132c-0.322,0.299-0.348,0.827-0.149,1.218
			C68.087,94.697,68.465,94.969,68.862,95.156z"/>
		<path fill="#A6AE3D" d="M56.274,84.854c-0.041,1.166,0.082,2.337,0.375,3.465c0.213,0.821,0.561,1.68,1.284,2.122
			c1.058,0.646,2.528,0.087,3.254-0.917c0.727-1.004,0.878-2.308,0.908-3.546c0.025-1.042-0.019-2.084-0.132-3.12
			c-0.031-0.28-0.081-0.573-0.157-0.856c-0.884,0.485-1.771,0.966-2.666,1.431C58.198,83.924,57.241,84.398,56.274,84.854z"/>
		<path fill="#A6AE3D" d="M55.174,92.519c-0.693,0.304-1.16,0.973-1.466,1.665c-0.269,0.607-0.443,1.302-0.236,1.933
			c0.206,0.631,0.909,1.131,1.538,0.917c0.373-0.127,0.633-0.456,0.872-0.771c0.191-0.253,0.383-0.506,0.575-0.759
			c0.269-0.354,0.541-0.714,0.701-1.128c0.161-0.415,0.197-0.898-0.003-1.294C56.812,92.406,55.867,92.214,55.174,92.519z"/>
		<path fill="#A6AE3D" d="M34.077,88.805c-0.086,0.665-0.157,1.399,0.224,1.953c0.339,0.494,0.98,0.718,1.579,0.685
			c1.261-0.071,2.291-1.163,2.626-2.383c-1.472-0.078-2.935-0.252-4.391-0.503C34.103,88.64,34.087,88.723,34.077,88.805z"/>
		<path fill="#A6AE3D" d="M25.097,89.273c0.584-0.241,0.982-0.803,1.208-1.393c0.119-0.312,0.194-0.637,0.23-0.967
			c-0.658-0.151-1.317-0.299-1.976-0.439c-1.135-0.241-2.287-0.456-3.446-0.629c0.325,0.875,0.689,1.741,1.284,2.454
			C23.054,89.086,24.15,89.665,25.097,89.273z"/>
		<path fill="#A6AE3D" d="M112.222,39.123c0.602,0.406,1.337,0.645,2.06,0.635c1.703-0.022,3.318-1.164,3.98-2.733
			c0.591-1.403,0.421-3.074-0.359-4.381c-0.254,0.205-0.503,0.414-0.746,0.628C115.255,34.952,113.609,36.941,112.222,39.123z"/>
		<path fill="#A6AE3D" d="M51.923,92.438c-0.228-0.726-1.029-1.16-1.79-1.157c-0.761,0.004-1.477,0.359-2.104,0.791
			c-1.991,1.366-3.37,3.591-3.708,5.981c-0.145,1.022-0.095,2.113,0.413,3.012c0.507,0.897,1.556,1.54,2.567,1.336
			c1.319-0.268,1.987-1.71,2.455-2.973c0.64-1.724,1.279-3.447,1.918-5.172C51.891,93.672,52.11,93.033,51.923,92.438z"/>
		<path fill="#A6AE3D" d="M37.926,92.789c-0.471-0.193-1.036-0.158-1.464,0.116c-0.434,0.278-0.691,0.76-0.875,1.241
			c-0.198,0.521-0.331,1.064-0.396,1.617c-0.085,0.735,0.014,1.602,0.632,2.011c0.458,0.303,1.088,0.246,1.566-0.025
			c0.478-0.271,0.825-0.725,1.104-1.198c0.477-0.81,0.789-1.808,0.457-2.687C38.769,93.389,38.397,92.981,37.926,92.789z"/>
		<path fill="#A6AE3D" d="M31.068,89.868c0.688-0.256,1.222-0.879,1.394-1.594l0.003-0.029c-1.444-0.29-2.884-0.621-4.322-0.958
			C28.027,87.872,28.122,88.5,28.45,89C28.996,89.83,30.138,90.216,31.068,89.868z"/>
		<path fill="#A6AE3D" d="M107.886,57.026c0.854-0.046,1.707-0.092,2.562-0.138c0.613-0.033,1.235-0.067,1.825-0.25
			c0.589-0.182,1.148-0.529,1.463-1.06c0.45-0.761,0.295-1.783-0.235-2.491c-0.529-0.708-1.369-1.132-2.231-1.329
			c-0.862-0.196-1.756-0.187-2.64-0.176c-0.366,0.004-0.731,0.008-1.096,0.012c-0.294,1.815-0.439,3.64-0.428,5.443
			C107.366,57.048,107.631,57.04,107.886,57.026z"/>
		<path fill="#A6AE3D" d="M75.068,86.15c-0.242-1.68-0.484-3.359-0.727-5.039c-0.257-1.784-0.685-3.8-2.183-4.752
			c-2.489,1.248-4.922,2.612-7.356,3.978c0.214,1.853,0.444,3.714,1.009,5.49c0.591,1.856,1.578,3.636,3.09,4.864
			c0.754,0.612,1.648,1.084,2.611,1.208c0.964,0.123,2-0.134,2.701-0.805C75.471,89.89,75.317,87.874,75.068,86.15z"/>
		<path fill="#A6AE3D" d="M102.342,73.71c-0.812,0.408-1.729,0.966-1.809,1.872c-0.069,0.821,0.65,1.542,1.443,1.763
			c0.794,0.221,1.639,0.067,2.447-0.088c0.82-0.157,1.675-0.331,2.328-0.851s1.019-1.504,0.581-2.215
			c-0.202-0.329-0.541-0.55-0.893-0.714C105.148,72.872,103.557,72.963,102.342,73.71z"/>
		<path fill="#A6AE3D" d="M117.908,45.6c0.238-1.227,0-2.617-0.907-3.477c-0.884-0.838-2.192-1.017-3.408-1.075
			c-0.839-0.04-1.694-0.034-2.535,0.053c-1.524,2.844-2.622,5.949-3.271,9.119c0.741,0.311,1.555,0.492,2.345,0.543
			c1.696,0.109,3.443-0.238,4.889-1.132C116.467,48.734,117.583,47.269,117.908,45.6z"/>
		<path fill="#A6AE3D" d="M103.194,70.527c0.82-0.33,1.571-0.894,1.987-1.674c0.586-1.097,0.438-2.434,0.162-3.647
			c-0.158-0.689-0.369-1.404-0.869-1.904c-0.076-0.077-0.164-0.137-0.248-0.2c-2.132,1.741-5.13,3.021-7.903,4.159
			c0.023,0.075,0.039,0.153,0.064,0.227c0.475,1.303,1.493,2.397,2.759,2.962C100.413,71.016,101.907,71.044,103.194,70.527z"/>
		<path fill="#A6AE3D" d="M108.256,70.646c-0.561,0-1.011,0.654-0.813,1.177c0.199,0.523,0.969,0.713,1.39,0.343
			c0.261-0.232,0.36-0.632,0.235-0.959C108.943,70.879,108.604,70.646,108.256,70.646z"/>
		<path fill="#A6AE3D" d="M110.949,67.438c0.676-0.318,1.258-0.876,1.503-1.583c0.244-0.706,0.109-1.557-0.421-2.084
			c-0.588-0.585-1.491-0.676-2.318-0.734c-0.712-0.051-1.515-0.07-2.031,0.421c-0.374,0.358-0.5,0.905-0.533,1.423
			c-0.036,0.569,0.021,1.16,0.294,1.661c0.318,0.584,0.914,0.995,1.562,1.14C109.654,67.83,110.347,67.721,110.949,67.438z"/>
		<path fill="#A6AE3D" d="M111.247,61.438c0.85,0.233,1.763-0.054,2.522-0.501c0.407-0.239,0.797-0.534,1.039-0.939
			c0.244-0.404,0.314-0.936,0.086-1.348c-0.2-0.361-0.598-0.578-1.002-0.659c-0.405-0.081-0.822-0.043-1.233-0.005
			c-0.551,0.051-1.111,0.104-1.622,0.318c-0.509,0.214-0.969,0.618-1.11,1.152C109.701,60.308,110.398,61.204,111.247,61.438z"/>
		<path fill="#A6AE3D" d="M82.914,84.604c0.256-0.401,0.469-0.938,0.199-1.33c-0.282-0.411-0.886-0.381-1.379-0.306
			c-0.503,0.076-1.005,0.153-1.508,0.229c-0.573,0.087-1.193,0.198-1.589,0.623c-0.552,0.593-0.393,1.638,0.224,2.162
			c0.618,0.524,1.55,0.563,2.294,0.246C81.9,85.909,82.478,85.286,82.914,84.604z"/>
		<path fill="#A6AE3D" d="M86.75,83.841c-0.44,0.376-0.624,1.074-0.314,1.565c0.337,0.538,1.062,0.644,1.695,0.698
			c0.467,0.039,0.979,0.065,1.355-0.212c0.509-0.374,0.537-1.111,0.502-1.741c-0.499-0.292-1.023-0.569-1.594-0.673
			C87.822,83.374,87.191,83.464,86.75,83.841z"/>
		<path fill="#A6AE3D" d="M84.699,71.509c0.438,2.12,0.93,4.253,1.988,6.136c1.147,2.045,3.089,3.786,5.416,4.086
			c1.804,0.233,3.923-0.721,4.271-2.506c0.178-0.918-0.134-1.852-0.44-2.734c-0.608-1.749-1.218-3.497-1.826-5.246
			c-0.312-0.895-0.651-1.83-1.227-2.563C90.209,69.773,87.455,70.645,84.699,71.509z"/>
		<path fill="#A6AE3D" d="M77.154,77.968c0.209,0.95,0.674,1.933,1.552,2.353c0.58,0.276,1.276,0.263,1.871,0.021
			c0.595-0.241,1.09-0.695,1.44-1.233c0.475-0.729,0.693-1.639,0.525-2.493c-0.168-0.855-0.742-1.636-1.54-1.986
			c-0.633-0.278-1.361-0.277-2.035-0.119c-0.673,0.157-1.301,0.463-1.914,0.783C76.927,76.181,76.961,77.092,77.154,77.968z"/>
		<path fill="#A6AE3D" d="M78.4,92.154c0.638-0.106,1.176-0.569,1.5-1.129c0.396-0.683,0.448-1.676-0.177-2.158
			c-0.337-0.261-0.806-0.31-1.217-0.197c-0.411,0.111-0.771,0.368-1.073,0.668c-0.53,0.525-0.923,1.319-0.638,2.009
			C77.043,91.944,77.763,92.262,78.4,92.154z"/>
	</g>
	<g>
		<path fill="#FBBD43" d="M39.171,102.865c-0.227-0.28-0.455-0.562-0.684-0.839l-2.227,3.969c0.224,0.287,0.45,0.571,0.671,0.859
			L39.171,102.865z"/>
		<path fill="#FBBD43" d="M42.852,107.491c-0.227-0.282-0.452-0.565-0.677-0.849l-2.298,4.111c0.22,0.295,0.44,0.589,0.659,0.883
			L42.852,107.491z"/>
		<path fill="#FBBD43" d="M32.778,101.751c0.229,0.264,0.458,0.528,0.684,0.796l2.345-3.63c-0.234-0.256-0.471-0.508-0.708-0.758
			L32.778,101.751z"/>
		<path fill="#FBBD43" d="M52.497,119.348l-1.865,4.713c0.254,0.267,0.511,0.53,0.77,0.791l1.876-4.743
			C53.013,119.864,52.752,119.609,52.497,119.348z"/>
		<path fill="#FBBD43" d="M45.419,110.593c-0.082-0.096-0.162-0.192-0.244-0.287l-2.187,4.605c0.228,0.302,0.681,0.905,0.681,0.905
			l2.217-4.664C45.732,110.966,45.579,110.777,45.419,110.593z"/>
		<path fill="#FBBD43" d="M26.075,91.195c-0.302-0.156-0.606-0.311-0.914-0.456L23.5,92.993c0.27,0.2,0.536,0.403,0.801,0.608
			L26.075,91.195z"/>
		<path fill="#FBBD43" d="M19.917,90.594c0.288,0.171,0.574,0.349,0.858,0.528l1.179-1.699c-0.33-0.115-0.662-0.226-0.996-0.33
			L19.917,90.594z"/>
		<path fill="#FBBD43" d="M49.551,115.867c-0.228-0.295-0.454-0.594-0.682-0.895l-2.243,4.569c0.234,0.284,0.468,0.566,0.706,0.848
			L49.551,115.867z"/>
		<path fill="#FBBD43" d="M30.664,94.1c-0.036-0.027-0.069-0.057-0.105-0.084c-0.231-0.177-0.477-0.333-0.713-0.503l-2.007,3.098
			c0.25,0.232,0.499,0.465,0.744,0.7L30.664,94.1z"/>
		<path fill="#FBBD43" d="M57.105,122.651c-0.314-0.131-0.615-0.282-0.913-0.44l-1.842,5.421c0.272,0.238,0.548,0.47,0.824,0.701
			L57.105,122.651z"/>
	</g>
	<path fill="#5E8129" d="M81.151,122.703C81.066,122.866,81.139,122.735,81.151,122.703
		C81.158,122.683,81.143,122.722,81.151,122.703c2.185-5.953,0.556-11.896-2.149-13.567
		C81.597,113.062,81.368,118.164,81.151,122.703z"/>
	<path fill="#5E8129" d="M72.639,138.053c0.22-0.296,0.418-0.621,0.478-0.984c0.059-0.362-0.046-0.771-0.34-0.993
		c-0.424-0.318-1.028-0.145-1.505,0.086c-1.273,0.616-2.384,1.563-3.196,2.722c-0.233,0.333-0.448,0.757-0.282,1.126
		c0.222,0.497,0.926,0.502,1.452,0.358C70.59,140,71.804,139.17,72.639,138.053z"/>
	<path fill="#5E8129" d="M105.721,84.197c-2.041,3.898-1.996,8.785,0.474,12.425c0.165-0.362,0.33-0.724,0.495-1.086
		C104.98,92.008,104.786,88.003,105.721,84.197z"/>
	<g opacity="0.25">
		<path fill="#B86029" d="M50.14,119.852c-6.429-6.296-11.469-13.867-17.641-20.414c-4.472-4.744-9.8-9.029-15.8-11.365
			c-1.023-0.174-2.051-0.319-3.086-0.396c5.864,1.931,11.208,5.913,15.583,10.231c5.468,5.396,9.81,11.805,14.475,17.909
			c4.623,6.05,9.884,12.045,16.357,16.047c0.421-1.107,0.786-2.448,0.935-4.036C56.986,125.796,53.326,122.973,50.14,119.852z"/>
	</g>
	<g opacity="0.25">
		<path fill="#B86029" d="M76.506,134.538c0.04-0.063,0.073-0.129,0.11-0.193c-0.017,0.001-0.033,0.004-0.049,0.005
			C76.54,134.41,76.502,134.521,76.506,134.538z"/>
		<path fill="#B86029" d="M130.378,75.044c-6.586,3.645-11.877,9.722-16.039,16.127c-5.379,8.279-9.432,17.422-15.472,25.232
			c-5.151,6.659-12.251,12.417-20.35,14.115c-0.394,0.874-0.805,1.739-1.237,2.594c-0.21,0.416-0.424,0.832-0.663,1.232
			c8.645-0.578,16.058-5.61,21.281-10.621c5.181-4.97,8.762-12.873,11.699-19.425c2.936-6.552,5.611-13.297,9.762-19.156
			c2.904-4.103,6.672-7.78,11.088-10.083C130.422,75.057,130.401,75.049,130.378,75.044z"/>
	</g>
	<g>
		<path fill="#FBBD43" d="M88.34,118.677c1.999,2.912,2.969,6.935,2.725,10.53c0.357-0.269,0.711-0.454,1.06-0.73
			c0.055-3.555-0.975-7.543-2.938-10.414C88.905,118.274,88.623,118.479,88.34,118.677z"/>
		<path fill="#FBBD43" d="M116.786,89.279c0.2-0.345,0.406-0.685,0.613-1.026c-0.461-0.823-1.082-1.559-1.831-2.148
			c-0.781-0.615-1.686-1.053-2.64-1.303c-0.205,0.295-0.407,0.592-0.605,0.891c0.949,0.192,1.854,0.598,2.621,1.201
			C115.747,87.525,116.379,88.353,116.786,89.279z"/>
		<path fill="#FBBD43" d="M83.075,121.2c1.171,3.797,1.018,8.266-0.378,11.997c0.416-0.151,0.848-0.251,1.256-0.422
			c1.188-3.698,1.267-8.207,0.142-11.911C83.768,120.955,83.404,121.144,83.075,121.2z"/>
		<path fill="#FBBD43" d="M121.057,82.832c-1.303-1.183-2.862-2.093-4.533-2.649c-0.256,0.269-0.508,0.541-0.755,0.818
			c1.724,0.497,3.338,1.4,4.661,2.614C120.636,83.353,120.844,83.09,121.057,82.832z"/>
		<path fill="#FBBD43" d="M125.982,77.961c-1.09-1.017-2.385-1.812-3.789-2.319c-0.385,0.226-0.764,0.463-1.137,0.711
			c1.539,0.413,2.961,1.196,4.136,2.265C125.452,78.395,125.715,78.175,125.982,77.961z"/>
		<path fill="#FBBD43" d="M112.177,95.039c0.371,0.396,0.717,0.813,1.03,1.255c0.159-0.344,0.321-0.687,0.482-1.028
			c-0.117-0.15-0.252-0.285-0.375-0.43C112.936,94.903,112.557,94.972,112.177,95.039z"/>
		<path fill="#FBBD43" d="M105.543,97.938c-0.156,0.296-0.314,0.593-0.471,0.888c2.023,1.178,3.692,2.963,4.742,5.054
			c0.172-0.385,0.344-0.771,0.515-1.157C109.181,100.751,107.517,99.078,105.543,97.938z"/>
		<path fill="#FBBD43" d="M92.857,115.207c2.097,2.676,3.591,6.045,4.035,9.561c0.307-0.312,0.604-0.622,0.895-0.93
			c-0.57-3.476-2.008-6.778-4.104-9.432C93.447,114.674,93.1,114.942,92.857,115.207z"/>
		<path fill="#FBBD43" d="M130.559,72.471c-0.534,0.108-1.065,0.235-1.593,0.372c0.983,0.379,1.911,0.909,2.75,1.554
			c0.347-0.153,0.695-0.299,1.049-0.434C132.083,73.389,131.347,72.884,130.559,72.471z"/>
		<path fill="#FBBD43" d="M97.924,109.704c2.237,2.646,3.615,5.992,3.829,9.407c0.326-0.408,0.621-0.997,0.934-1.417
			c-0.448-3.284-1.867-6.273-4.061-8.81C98.398,109.151,98.163,109.425,97.924,109.704z"/>
		<path fill="#FBBD43" d="M102.174,103.83c-0.179,0.287-0.349,0.556-0.532,0.839c2.029,1.81,3.651,4.25,4.61,6.788
			c0.206-0.386,0.389-0.803,0.588-1.192C105.788,107.844,104.167,105.571,102.174,103.83z"/>
	</g>
	<path fill="#5E8129" d="M108.415,94.742c0.193-0.347,0.124-0.82-0.159-1.098c-0.284-0.278-0.758-0.336-1.102-0.135
		c-0.224,0.13-0.385,0.359-0.435,0.613c-0.082,0.422,0.18,0.885,0.583,1.032C107.707,95.303,108.204,95.117,108.415,94.742z"/>
	<g opacity="0.38">
		<path fill="#5E7A29" d="M156.472,66.712c-0.456,0.027-0.911,0.033-1.367,0.044c-2.372,1.883-5.579,2.886-8.646,3.304
			c-4.5,0.614-9.165,0.35-13.476,1.78c-4.601,1.527-8.491,5.037-10.55,9.42c3.711-4.036,8.349-7.204,13.671-8.292
			c3.723-0.761,7.582-0.478,11.347-0.993C151.215,71.459,154.582,70.009,156.472,66.712z"/>
	</g>
	<path fill="#5E8129" d="M109.996,87.881c0.07,0.389,0.142,0.789,0.058,1.175c-0.086,0.392-0.322,0.73-0.555,1.058
		c0.135-1.707-0.045-3.438-0.522-5.082C109.61,85.83,109.812,86.879,109.996,87.881z"/>
	<g opacity="0.15">
		<path fill="#FFFFFF" d="M140.765,35.964c5.569-0.436,10.712,1.671,14.805,5.469c1.003,0.93,1.902,1.966,2.691,3.081
			c-1.056-1.991-2.426-3.813-4.078-5.346c-3.932-3.65-8.833-5.729-14.147-5.503C140.493,34.345,140.77,35.141,140.765,35.964z"/>
		<path fill="#FFFFFF" d="M25.962,88.77c5.109,1.086,10.188,2.636,15.411,2.637c6.73,0.002,13.199-2.572,19.17-5.678
			c5.971-3.106,11.663-6.791,17.907-9.302c5.459-2.195,11.265-3.459,16.668-5.789s13.538-4.823,13.388-10.705
			c-0.229-8.887,3.39-18.48,10.052-24.367c1.626-1.435,3.512-2.739,5.666-2.974c2.155-0.234,4.85,1.617,5.405,3.712
			c0.769-0.053,1.459-0.241,2.229-0.293c-0.011-2.233,2.06-4.32,4.65-4.32c1.021,0,1.996,0.429,2.758,1.104
			c-0.445-1.851-2.219-3.37-4.146-3.37c-2.592,0-4.661,2.086-4.651,4.32c-0.77,0.052-1.459,0.241-2.229,0.293
			c-0.557-2.096-3.251-3.946-5.405-3.712c-2.155,0.234-4.041,1.539-5.665,2.974c-6.663,5.885-10.281,15.479-10.053,24.366
			c0.151,5.882-7.986,8.377-13.39,10.705c-5.402,2.329-11.208,3.594-16.667,5.789c-6.245,2.511-11.937,6.196-17.908,9.302
			c-5.971,3.106-12.44,5.679-19.17,5.678c-5.223-0.002-10.302-1.552-15.411-2.638c-5.109-1.085-10.559-1.69-15.455,0.132
			c1.794,0.233,3.552,0.688,5.264,1.31C18.187,87.425,22.168,87.963,25.962,88.77z"/>
	</g>
	<path fill="#D8E183" d="M59.124,164.736c-0.541-0.785-0.127-1.99,0.724-2.42c0.851-0.431,1.95-0.151,2.628,0.518
		c0.479,0.472,0.78,1.669,0.832,2.339C61.927,165.395,60.262,165.228,59.124,164.736z"/>
	<path fill="#D8E183" d="M64.108,164.736c-0.541-0.785-0.127-1.99,0.724-2.42c0.851-0.431,1.95-0.151,2.628,0.518
		c0.479,0.472,0.78,1.669,0.832,2.339C66.911,165.395,65.246,165.228,64.108,164.736z"/>
	<path fill="#D8E183" d="M69.161,164.736c-0.541-0.785-0.128-1.99,0.723-2.42c0.852-0.431,1.95-0.151,2.629,0.518
		c0.479,0.472,0.78,1.669,0.831,2.339C71.963,165.395,70.298,165.228,69.161,164.736z"/>
	<path fill="#D8E183" d="M76.941,163.157c-0.473-0.785-0.112-1.991,0.633-2.422c0.745-0.43,1.706-0.15,2.3,0.52
		c0.419,0.472,0.682,1.668,0.728,2.338C79.393,163.816,77.936,163.648,76.941,163.157z"/>
	<path fill="#D8E183" d="M81.484,163.157c-0.495-0.785-0.117-1.991,0.662-2.422c0.779-0.43,1.785-0.15,2.407,0.52
		c0.438,0.472,0.714,1.668,0.761,2.338C84.049,163.816,82.525,163.648,81.484,163.157z"/>
	<path fill="#D8E183" d="M85.538,162.894c-0.498-0.785-0.118-1.99,0.666-2.42c0.783-0.431,1.794-0.151,2.419,0.518
		c0.44,0.472,0.718,1.668,0.766,2.339C88.118,163.552,86.584,163.385,85.538,162.894z"/>
</g>
</svg>
