<?xml version="1.0" encoding="utf-8"?>
<!-- Generator: Adobe Illustrator 16.0.4, SVG Export Plug-In . SVG Version: 6.00 Build 0)  -->
<!DOCTYPE svg PUBLIC "-//W3C//DTD SVG 1.1//EN" "http://www.w3.org/Graphics/SVG/1.1/DTD/svg11.dtd">
<svg version="1.1" id="Layer_1" xmlns="http://www.w3.org/2000/svg" xmlns:xlink="http://www.w3.org/1999/xlink" x="0px" y="0px"
	 width="170px" height="170px" viewBox="0 0 170 170" enable-background="new 0 0 170 170" xml:space="preserve">
<title>Artboard 9</title>
<g>
	<path fill="#6A9394" d="M86.488,85.579c-0.059-0.476,0.207-0.937,0.547-1.271c0.34-0.336,0.757-0.584,1.117-0.897
		c1.468-1.272,1.799-3.381,2.104-5.3c0.306-1.918,0.673-4.178,2.306-5.229c-0.549,0.299-1.117,0.715-1.614,1.094
		c-4.894,3.732-8.684,8.893-10.784,14.676C82.218,87.383,84.277,86.545,86.488,85.579z"/>
	<path fill="#6AA7B2" d="M164.882,103.3c-4.276-1.483-8.464-3.455-12.944-3.251c-2.164,0.1-4.268,0.719-6.397,1.111
		c-2.131,0.395-4.394,0.554-6.413-0.232c-0.044-0.018-0.084-0.041-0.128-0.059c3.242-3.086,6.19-6.484,8.798-9.85
		c7.416-9.576,13.26-20.946,18.74-31.748c-7.863,7.172-16.756,13.916-27.266,15.595c-9.801,1.565-19.602,3.13-29.401,4.694
		c-8.06,1.287-16.228,2.605-23.666,5.963c-8.402,3.791-15.532,10.033-23.999,13.678c-9.588,4.125-20.272,4.672-30.693,5.262
		c-5.304,0.301-10.473,2.387-15.773,2.043c-4.538-0.293-10.139,2.164-13.435,8.096c3.012,2.047,6.603,2.695,10.242,2.58
		c3.64-0.115,7.212-0.949,10.785-1.652c13.382-2.637,26.951-4.436,40.602-2.94c6.767,0.741,13.451,2.119,20.183,3.054
		c1.088,0.151,2.177,0.291,3.268,0.414c0.152,1.957-0.526,3.916-0.379,5.879c0.14,1.856,1.03,3.604,2.255,5.006
		c1.225,1.404,2.77,2.494,4.372,3.44c6.438,3.806,13.245,4.972,20.554,4.134c0.924-0.106,1.256-1.285,0.521-1.856
		c-0.966-0.752-2.263-1.572-3.09-2.873c-1.406-2.209-2.494-4.646-4.252-6.587c-2.228-2.459-5.323-3.903-8.242-5.477
		c-0.653-0.353-1.308-0.722-1.946-1.113c10.045-0.117,20.07-2.397,29.15-6.702c2.965-1.405,5.781-3.245,8.439-5.349
		c0.279,0.111,0.553,0.225,0.805,0.34c5.115,2.34,8.726,5.834,14.271,6.785c5.739,0.983,10.442-0.738,15.321-3.816
		C170.604,104.43,167.947,104.361,164.882,103.3z"/>
	<path fill="#6A9394" d="M122.066,77.614c1.262-3.647,4.457-6.53,6.453-9.949c2.602-4.46,3.108-9.795,3.56-14.938
		c-7.938,6.102-13.166,15.585-14.142,25.546C119.312,78.055,120.689,77.834,122.066,77.614z"/>
	<path fill="#45454D" d="M12.827,108.671c0,0,0.072,0.093,0.171,0.259c0.059,0.077,0.096,0.198,0.184,0.291
		c0.091,0.088,0.172,0.187,0.26,0.283c0.086,0.1,0.226,0.188,0.339,0.286c0.052,0.058,0.121,0.096,0.195,0.128
		c0.068,0.039,0.138,0.078,0.209,0.118l0.077,0.051c-0.098-0.043-0.025-0.012-0.047-0.021l0.178,0.056l0.293,0.103
		c0.182,0.047,0.309,0.028,0.469,0.066c0.17-0.034,0.35-0.023,0.518-0.059c0.146-0.058,0.359-0.098,0.456-0.154
		c0.086-0.053,0.171-0.102,0.254-0.15c0.089-0.047,0.164-0.097,0.205-0.148c0.101-0.104,0.23-0.18,0.315-0.295
		c0.09-0.119,0.173-0.229,0.245-0.325c0.076-0.101,0.104-0.205,0.148-0.287c0.086-0.172,0.136-0.271,0.136-0.271
		s0.005,0.109,0.014,0.303c-0.008,0.096,0.015,0.226-0.02,0.357c-0.041,0.137-0.087,0.289-0.137,0.455
		c-0.062,0.166-0.192,0.329-0.312,0.516c-0.13,0.197-0.277,0.273-0.425,0.426l-0.085,0.078l-0.042,0.025
		c0,0-0.416,0.194-0.528,0.245c-0.229,0.085-0.482,0.104-0.73,0.144c-0.259-0.021-0.564-0.036-0.784-0.096l-0.29-0.111l-0.226-0.096
		l-0.109-0.078c-0.181-0.152-0.386-0.267-0.501-0.449c-0.115-0.184-0.243-0.326-0.312-0.506c-0.06-0.184-0.115-0.344-0.145-0.484
		c-0.03-0.139-0.006-0.251-0.005-0.35C12.807,108.785,12.827,108.671,12.827,108.671z"/>
	<g>
		<path fill="#456975" d="M93.073,83.002c-1.648,0.489-3.274,1.045-4.871,1.682c0.478,3.358,1.968,5.918,3.348,5.729
			c1.392-0.19,2.144-3.103,1.679-6.504C93.186,83.6,93.132,83.298,93.073,83.002z"/>
		<path fill="#456975" d="M82.077,88.739c-0.048-0.353-0.109-0.692-0.179-1.024c-1.581,0.885-3.133,1.826-4.671,2.794
			c0.604,2.854,1.932,4.903,3.172,4.734C81.791,95.053,82.542,92.143,82.077,88.739z"/>
		<path fill="#456975" d="M110.549,86.768c1.393-0.19,2.145-3.104,1.68-6.504c-0.051-0.361-0.112-0.709-0.185-1.05
			c-0.726,0.116-4.024,0.644-4.952,0.795c0.021,0.31,0.053,0.623,0.096,0.942C107.652,84.354,109.157,86.957,110.549,86.768z"/>
		<path fill="#456975" d="M63.994,101.814c0.769-0.104,1.184-1.713,0.927-3.592c-0.013-0.095-0.028-0.188-0.044-0.279
			c-0.867,0.438-1.743,0.855-2.637,1.24C62.572,100.77,63.308,101.908,63.994,101.814z"/>
		<path fill="#456975" d="M116.583,78.956c0.465,3.401,1.97,6.006,3.36,5.815c1.392-0.191,2.144-3.103,1.679-6.504
			c-0.026-0.192-0.058-0.383-0.089-0.568c-1.668,0.266-3.336,0.531-5.004,0.799C116.546,78.65,116.562,78.802,116.583,78.956z"/>
		<path fill="#456975" d="M143.368,77.906c0.891-0.122,1.37-1.984,1.073-4.161c-0.006-0.047-0.015-0.093-0.021-0.14
			c-1.036,0.336-2.085,0.638-3.154,0.877C141.605,76.511,142.52,78.021,143.368,77.906z"/>
		<path fill="#456975" d="M71.396,99.465c0.943-0.129,1.452-2.102,1.138-4.406c-0.067-0.49-0.167-0.951-0.29-1.379
			c-1.031,0.651-2.068,1.293-3.114,1.914C69.456,97.864,70.463,99.593,71.396,99.465z"/>
		<path fill="#456975" d="M129.122,82.312c1.093-0.149,1.685-2.437,1.317-5.107c-0.043-0.311-0.097-0.611-0.16-0.902
			c-1.293,0.207-2.586,0.413-3.879,0.62c0.019,0.271,0.043,0.543,0.082,0.823C126.848,80.417,128.029,82.461,129.122,82.312z"/>
		<path fill="#456975" d="M96.83,82.366c0.465,3.401,1.97,6.006,3.361,5.815c1.391-0.191,2.143-3.103,1.679-6.505
			c-0.034-0.249-0.075-0.491-0.12-0.731c-1.664,0.318-3.32,0.666-4.961,1.062C96.802,82.127,96.812,82.246,96.83,82.366z"/>
		<path fill="#456975" d="M55.575,101.477c0.358,1.418,1.041,2.404,1.682,2.316c0.701-0.096,1.105-1.441,0.978-3.104
			C57.354,100.977,56.468,101.236,55.575,101.477z"/>
		<path fill="#456975" d="M45.882,103.325c-0.846,0.106-1.694,0.207-2.545,0.294c0.379,1.17,0.982,1.941,1.553,1.863
			C45.451,105.406,45.822,104.525,45.882,103.325z"/>
		<path fill="#456975" d="M137.852,75.094c-1.312,0.209-2.623,0.418-3.935,0.629c0.414,2.506,1.54,4.377,2.587,4.233
			C137.562,79.812,138.146,77.658,137.852,75.094z"/>
		<path fill="#456975" d="M31.511,104.463c-0.333,0.02-0.666,0.039-0.998,0.059c0.372,1.287,1.013,2.158,1.616,2.074
			c0.572-0.078,0.947-0.988,0.996-2.225C32.587,104.402,32.048,104.434,31.511,104.463z"/>
		<path fill="#456975" d="M52.149,102.292c-0.845,0.176-1.694,0.338-2.547,0.483c0.379,1.162,0.98,1.93,1.548,1.852
			C51.739,104.547,52.119,103.583,52.149,102.292z"/>
		<path fill="#456975" d="M39.729,103.941c-0.849,0.065-1.697,0.127-2.547,0.184c0.379,1.182,0.986,1.961,1.56,1.883
			C39.288,105.934,39.654,105.095,39.729,103.941z"/>
		<path fill="#456975" d="M150.083,71.261c-0.992,0.5-1.998,0.964-3.022,1.384c0.422,1.597,1.198,2.695,1.928,2.597
			C149.854,75.122,150.33,73.357,150.083,71.261z"/>
		<path fill="#456975" d="M153.402,72.377c0.679-0.093,1.045-1.512,0.818-3.17c-0.014-0.088-0.031-0.17-0.047-0.257
			c-0.744,0.467-1.5,0.914-2.264,1.341C152.227,71.562,152.832,72.455,153.402,72.377z"/>
		<path fill="#456975" d="M159.045,65.574c-0.654,0.496-1.316,0.982-1.984,1.455c0.311,0.883,0.776,1.461,1.222,1.4
			C158.896,68.346,159.232,67.074,159.045,65.574z"/>
	</g>
	
		<ellipse transform="matrix(-0.3359 -0.9419 0.9419 -0.3359 64.8128 247.6782)" fill="#456975" cx="119.72" cy="100.991" rx="1.231" ry="3.872"/>
	
		<ellipse transform="matrix(-0.4755 -0.8797 0.8797 -0.4755 131.0996 250.5441)" fill="#456975" cx="140.235" cy="86.192" rx="1.231" ry="3.872"/>
	
		<ellipse transform="matrix(-0.3365 -0.9417 0.9417 -0.3365 52.0213 243.7043)" fill="#456975" cx="111.866" cy="103.525" rx="0.749" ry="2.357"/>
	
		<ellipse transform="matrix(-0.5711 -0.8209 0.8209 -0.5711 139.6975 258.0767)" fill="#456975" cx="137.266" cy="92.545" rx="0.749" ry="2.357"/>
	
		<ellipse transform="matrix(-0.1076 -0.9942 0.9942 -0.1076 7.6199 218.3702)" fill="#456975" cx="101.819" cy="105.765" rx="0.749" ry="1.819"/>
	
		<ellipse transform="matrix(0.58 -0.8146 0.8146 0.58 -59.6888 124.9947)" fill="#456975" cx="91.374" cy="120.383" rx="0.749" ry="1.819"/>
	
		<ellipse transform="matrix(-0.3481 -0.9374 0.9374 -0.3481 89.2916 246.9545)" fill="#456975" cx="130.509" cy="92.432" rx="0.749" ry="1.818"/>
	
		<ellipse transform="matrix(0.4662 -0.8847 0.8847 0.4662 -61.4334 154.9701)" fill="#456975" cx="97.701" cy="128.393" rx="0.532" ry="1.29"/>
	
		<ellipse transform="matrix(-0.5297 -0.8482 0.8482 -0.5297 157.6123 250.619)" fill="#456975" cx="148.291" cy="81.611" rx="0.532" ry="1.29"/>
	
		<ellipse transform="matrix(-0.1149 -0.9934 0.9934 -0.1149 1.0496 210.9577)" fill="#456975" cx="94.504" cy="105.011" rx="1.551" ry="3.069"/>
	
		<ellipse transform="matrix(0.5877 -0.809 0.809 0.5877 -63.4074 126.1132)" fill="#456975" cx="92.043" cy="125.274" rx="1.551" ry="3.069"/>
	
		<ellipse transform="matrix(-0.1056 -0.9944 0.9944 -0.1056 57.5588 263.7594)" fill="#456975" cx="147.392" cy="105.996" rx="0.749" ry="1.819"/>
	
		<ellipse transform="matrix(-0.2367 -0.9716 0.9716 -0.2367 89.9829 286.2893)" fill="#456975" cx="157.449" cy="107.798" rx="0.532" ry="1.291"/>
	
		<ellipse transform="matrix(-0.2365 -0.9716 0.9716 -0.2365 89.8586 279.093)" fill="#456975" cx="154.587" cy="104.24" rx="0.531" ry="1.291"/>
	
		<ellipse transform="matrix(-0.0958 -0.9954 0.9954 -0.0958 56.9051 270.1191)" fill="#456975" cx="151.143" cy="109.213" rx="1.55" ry="3.069"/>
	<g opacity="0.22">
		<path fill="#FFFFFF" d="M15.948,108.052c5.301,0.343,10.47-1.741,15.773-2.043c10.421-0.59,21.105-1.137,30.693-5.262
			c8.467-3.644,15.598-9.886,23.999-13.677c7.438-3.357,15.606-4.676,23.666-5.963c9.802-1.565,19.603-3.131,29.403-4.695
			c9.699-1.549,18.021-7.417,25.429-13.951c0.545-1.066,1.087-2.131,1.624-3.188c-7.863,7.17-16.756,13.916-27.266,15.594
			c-9.801,1.564-19.602,3.13-29.401,4.695c-8.06,1.287-16.228,2.604-23.666,5.963C77.8,89.316,70.67,95.559,62.203,99.202
			c-9.588,4.125-20.272,4.672-30.693,5.262c-5.304,0.302-10.473,2.386-15.773,2.043c-4.538-0.293-10.139,2.164-13.435,8.097
			c0.272,0.185,0.555,0.346,0.835,0.508C6.484,109.93,11.686,107.777,15.948,108.052z"/>
	</g>
	<path fill="#B2AB9E" d="M87.382,116.057c-1.091-0.125-2.18-0.264-3.268-0.414c-6.731-0.936-13.416-2.312-20.183-3.055
		c-13.65-1.494-27.22,0.305-40.602,2.939c-3.573,0.705-7.146,1.537-10.785,1.654c-3.51,0.11-6.968-0.502-9.91-2.38
		c-0.022-0.059-0.052-0.112-0.073-0.173c4.165,0.655,8.229,0.152,12.206-1.246c14.98-5.27,32.396-5.414,48.777-4.957
		c6.738,0.188,13.5,0.735,20.244,0.99c1.729,1.871,3.312,3.917,3.583,6.438C87.379,115.923,87.377,115.989,87.382,116.057z
		 M138.998,100.869c3.242-3.086,6.191-6.484,8.798-9.85c3.274-4.229,6.242-8.809,9.009-13.533
		c-6.832,7.791-14.729,14.711-23.453,20.099C135.376,98.378,136.982,100.04,138.998,100.869z M127.328,102.107
		c-0.383-0.135-0.689-0.368-0.921-0.653c-6.968,3.469-14.382,5.946-22.136,7.137c-4.431,0.681-8.889,0.931-13.359,0.952
		c0.254,0.602,0.503,1.207,0.797,1.77c1.193,2.28,3.242,3.935,5.465,5.295c10.045-0.116,20.07-2.396,29.15-6.701
		c2.965-1.405,5.781-3.245,8.439-5.35C132.508,103.655,129.454,102.857,127.328,102.107z"/>
	<g opacity="0.46">
		<g opacity="0.24">
			<path fill="#456975" d="M87.382,116.057c-0.005-0.066-0.003-0.134-0.01-0.201c-0.11-1.023-0.444-1.967-0.909-2.854
				c-0.639-0.062-1.275-0.126-1.913-0.194c-6.755-0.742-13.477-1.929-20.263-2.476c-13.687-1.103-27.199,1.085-40.5,4.103
				c-3.551,0.808-7.099,1.741-10.733,1.963c-3.159,0.19-6.297-0.199-9.079-1.592c-0.47-0.045-0.94-0.1-1.413-0.174
				c0.021,0.061,0.051,0.114,0.073,0.174c1.839,1.172,3.878,1.853,6.006,2.17c0.013,0.002,0.026,0.002,0.039,0.004
				c0.41,0.061,0.822,0.107,1.238,0.143c0.118,0.01,0.238,0.012,0.357,0.02c0.313,0.021,0.627,0.043,0.943,0.049
				c0.44,0.011,0.883,0.009,1.326-0.006c3.64-0.115,7.212-0.949,10.785-1.652c13.382-2.637,26.951-4.436,40.602-2.94
				c6.767,0.741,13.451,2.119,20.183,3.054C85.202,115.793,87.382,116.057,87.382,116.057z"/>
		</g>
		<g opacity="0.24">
			<path fill="#456975" d="M128.146,108.973c0.328-0.178,0.654-0.361,0.979-0.551c0.148-0.086,0.297-0.169,0.443-0.257
				c0.391-0.231,0.775-0.474,1.16-0.718c0.248-0.159,1.039-0.689,1.188-0.791c0.968-0.664,1.917-1.364,2.846-2.1
				c-1.145-0.457-2.494-0.889-3.824-1.3c-1.412,0.963-2.865,1.841-4.36,2.603c-8.957,4.564-18.916,7.133-28.958,7.537
				c-1.479,0.06-2.953,0.062-4.424,0.024c1.119,1.253,2.508,2.285,3.978,3.187h0.017c4.39-0.053,8.773-0.519,13.078-1.385
				c0.051-0.011,0.103-0.021,0.152-0.033c1.18-0.239,2.354-0.508,3.52-0.81c0.115-0.028,1.328-0.354,1.817-0.494
				c0.214-0.061,1.416-0.421,1.806-0.543c0.135-0.043,1.328-0.433,1.789-0.592c0.131-0.046,1.312-0.468,1.771-0.64
				c0.448-0.17,1.616-0.633,1.754-0.688c0.394-0.159,1.548-0.653,1.735-0.735c0.574-0.254,1.146-0.516,1.713-0.783
				c0.468-0.223,0.93-0.459,1.39-0.7C127.857,109.129,128.002,109.051,128.146,108.973z"/>
		</g>
		<g opacity="0.24">
			<path fill="#456975" d="M149.529,88.703c0.277-0.383,1.824-2.578,2.062-2.93c0.183-0.268,2.171-3.301,2.375-3.623
				c0.188-0.299,2.644-4.332,2.837-4.664c-3.271,3.732-6.791,7.263-10.527,10.521c-2.969,3.911-6.368,7.805-10.149,11.172
				c0.924,0.629,1.845,1.268,2.872,1.689c0.803-0.764,1.587-1.547,2.354-2.344c0.017-0.019,0.031-0.034,0.049-0.051
				c0.75-0.783,1.48-1.578,2.195-2.382c0.034-0.04,0.069-0.079,0.105-0.12c0.697-0.789,1.378-1.586,2.039-2.386
				c0.042-0.051,1.433-1.764,2.056-2.567C148.234,90.454,149.384,88.902,149.529,88.703z"/>
		</g>
	</g>
	<path fill="#45454D" d="M13.599,113.175c-0.217,0.109-0.464,0.226-0.747,0.322c-0.279,0.104-0.58,0.219-0.899,0.339
		c-0.314,0.129-0.672,0.195-1.024,0.309c-0.356,0.099-0.719,0.221-1.105,0.271c-0.381,0.07-0.768,0.143-1.154,0.213
		c-0.391,0.037-0.782,0.074-1.167,0.11c-0.384,0.054-0.765,0.03-1.132,0.03c-0.365-0.012-0.727,0.03-1.056-0.015
		c-0.331-0.03-0.644-0.06-0.933-0.086c-0.287-0.019-0.558-0.056-0.799-0.108c-0.24-0.043-1.067-0.19-1.134-0.201
		c-0.016,0.027-0.033,0.055-0.05,0.082l-0.039,0.193c0.295,0.198,0.597,0.377,0.901,0.549c0.062,0.015,0.12,0.026,0.188,0.041
		c0.235,0.058,0.507,0.114,0.821,0.133c0.31,0.029,0.645,0.062,0.999,0.096c0.355,0.045,0.725,0.012,1.109,0.013
		c0.384-0.012,0.78-0.003,1.18-0.069c0.398-0.051,0.805-0.104,1.21-0.153c0.396-0.097,0.794-0.192,1.185-0.287
		c0.394-0.081,0.761-0.231,1.121-0.358c0.355-0.139,0.714-0.23,1.021-0.402c0.312-0.156,1.145-0.572,1.264-0.641
		c0.116-0.076,1.312-0.887,1.312-0.887S13.818,113.068,13.599,113.175z"/>
</g>
</svg>
