<?xml version="1.0" encoding="utf-8"?>
<!-- Generator: Adobe Illustrator 16.0.4, SVG Export Plug-In . SVG Version: 6.00 Build 0)  -->
<!DOCTYPE svg PUBLIC "-//W3C//DTD SVG 1.1//EN" "http://www.w3.org/Graphics/SVG/1.1/DTD/svg11.dtd">
<svg version="1.1" id="Layer_1" xmlns="http://www.w3.org/2000/svg" xmlns:xlink="http://www.w3.org/1999/xlink" x="0px" y="0px"
	 width="170px" height="170px" viewBox="0 0 170 170" enable-background="new 0 0 170 170" xml:space="preserve">
<title>Artboard 9</title>
<g>
	<path fill="#6A9394" d="M86.489,113.579c-0.06-0.475,0.206-0.936,0.546-1.271s0.757-0.584,1.118-0.897
		c1.467-1.273,1.798-3.381,2.104-5.299s0.672-4.179,2.306-5.229c-0.549,0.298-1.118,0.714-1.615,1.093
		c-4.893,3.733-8.684,8.893-10.784,14.677C82.218,115.383,84.277,114.545,86.489,113.579z"/>
	<path fill="#6AA7B2" d="M164.882,131.3c-4.277-1.483-8.464-3.455-12.944-3.251c-2.165,0.1-4.268,0.718-6.398,1.111
		c-2.131,0.395-4.393,0.554-6.413-0.232c-0.044-0.018-0.084-0.041-0.128-0.059c3.242-3.086,6.191-6.484,8.798-9.85
		c7.416-9.575,13.26-20.946,18.74-31.747c-7.863,7.171-16.756,13.916-27.265,15.594c-9.801,1.565-19.602,3.13-29.402,4.695
		c-8.059,1.287-16.228,2.605-23.666,5.963c-8.402,3.791-15.532,10.033-23.999,13.677c-9.588,4.125-20.272,4.672-30.693,5.262
		c-5.304,0.301-10.473,2.386-15.773,2.043c-4.538-0.293-10.139,2.164-13.435,8.096c3.012,2.047,6.603,2.695,10.242,2.58
		c3.64-0.116,7.212-0.949,10.785-1.653c13.382-2.636,26.951-4.435,40.602-2.94c6.767,0.741,13.451,2.119,20.183,3.054
		c1.088,0.151,2.177,0.29,3.268,0.414c0.152,1.956-0.526,3.916-0.379,5.878c0.14,1.857,1.03,3.604,2.255,5.007
		c1.225,1.404,2.769,2.493,4.372,3.44c6.439,3.805,13.245,4.971,20.553,4.133c0.925-0.106,1.256-1.284,0.521-1.856
		c-0.966-0.752-2.262-1.572-3.09-2.873c-1.406-2.209-2.494-4.646-4.252-6.587c-2.227-2.459-5.323-3.903-8.242-5.477
		c-0.653-0.352-1.307-0.721-1.946-1.113c10.045-0.117,20.07-2.397,29.15-6.702c2.965-1.405,5.782-3.245,8.439-5.349
		c0.28,0.112,0.553,0.225,0.805,0.34c5.116,2.34,8.726,5.834,14.271,6.785c5.739,0.984,10.442-0.738,15.321-3.816
		C170.604,132.43,167.947,132.362,164.882,131.3z"/>
	<path fill="#6A9394" d="M122.066,105.614c1.262-3.647,4.458-6.53,6.453-9.949c2.602-4.46,3.109-9.795,3.56-14.938
		c-7.938,6.102-13.166,15.586-14.142,25.547C119.313,106.054,120.689,105.834,122.066,105.614z"/>
	<path fill="#45454D" d="M12.827,136.671c0,0,0.072,0.092,0.171,0.259c0.059,0.077,0.096,0.198,0.184,0.29
		c0.091,0.089,0.172,0.187,0.26,0.284c0.086,0.099,0.226,0.187,0.339,0.286c0.052,0.058,0.121,0.096,0.195,0.128
		c0.068,0.039,0.138,0.078,0.209,0.118l0.077,0.051c-0.098-0.043-0.025-0.012-0.047-0.021l0.178,0.056l0.293,0.102
		c0.182,0.047,0.309,0.029,0.469,0.067c0.17-0.034,0.35-0.023,0.518-0.059c0.146-0.057,0.359-0.097,0.456-0.154
		c0.086-0.052,0.171-0.101,0.254-0.15c0.089-0.047,0.164-0.097,0.205-0.149c0.101-0.103,0.23-0.179,0.315-0.295
		c0.09-0.119,0.173-0.229,0.245-0.325c0.076-0.101,0.104-0.205,0.148-0.287c0.086-0.172,0.136-0.27,0.136-0.27
		s0.005,0.109,0.014,0.302c-0.008,0.096,0.015,0.226-0.02,0.358c-0.041,0.136-0.087,0.289-0.137,0.455
		c-0.062,0.166-0.192,0.329-0.312,0.516c-0.13,0.197-0.277,0.273-0.425,0.425l-0.085,0.078l-0.042,0.026
		c0,0-0.416,0.194-0.528,0.245c-0.229,0.085-0.482,0.105-0.73,0.143c-0.259-0.021-0.564-0.036-0.784-0.096l-0.29-0.11l-0.226-0.096
		l-0.109-0.078c-0.181-0.153-0.386-0.267-0.501-0.45s-0.243-0.326-0.312-0.505c-0.06-0.184-0.115-0.345-0.145-0.485
		c-0.03-0.138-0.006-0.251-0.005-0.35C12.807,136.785,12.827,136.671,12.827,136.671z"/>
	<g>
		<path fill="#456975" d="M93.073,111.002c-1.648,0.489-3.274,1.045-4.871,1.681c0.478,3.359,1.968,5.919,3.348,5.73
			c1.392-0.19,2.143-3.103,1.679-6.504C93.186,111.599,93.132,111.298,93.073,111.002z"/>
		<path fill="#456975" d="M82.077,116.739c-0.048-0.352-0.109-0.692-0.179-1.024c-1.581,0.884-3.133,1.826-4.671,2.794
			c0.604,2.854,1.932,4.903,3.172,4.734C81.791,123.053,82.542,120.142,82.077,116.739z"/>
		<path fill="#456975" d="M110.549,114.767c1.392-0.19,2.144-3.103,1.679-6.504c-0.05-0.36-0.112-0.709-0.184-1.049
			c-0.725,0.116-4.025,0.644-4.952,0.795c0.022,0.31,0.052,0.623,0.096,0.942C107.652,112.354,109.157,114.957,110.549,114.767z"/>
		<path fill="#456975" d="M63.994,129.814c0.769-0.104,1.184-1.713,0.927-3.591c-0.013-0.095-0.028-0.188-0.044-0.28
			c-0.867,0.438-1.743,0.856-2.637,1.241C62.572,128.769,63.308,129.908,63.994,129.814z"/>
		<path fill="#456975" d="M116.583,106.956c0.465,3.402,1.97,6.006,3.361,5.815s2.143-3.102,1.678-6.504
			c-0.026-0.192-0.057-0.382-0.089-0.568c-1.668,0.266-3.336,0.532-5.004,0.799C116.546,106.65,116.562,106.802,116.583,106.956z"/>
		<path fill="#456975" d="M143.368,105.906c0.891-0.122,1.371-1.984,1.074-4.161c-0.007-0.047-0.015-0.093-0.022-0.14
			c-1.036,0.337-2.085,0.638-3.155,0.877C141.605,104.511,142.52,106.022,143.368,105.906z"/>
		<path fill="#456975" d="M71.396,127.465c0.943-0.129,1.452-2.102,1.138-4.407c-0.067-0.489-0.167-0.951-0.29-1.378
			c-1.031,0.651-2.068,1.292-3.114,1.914C69.456,125.864,70.463,127.593,71.396,127.465z"/>
		<path fill="#456975" d="M129.122,110.312c1.093-0.149,1.684-2.436,1.318-5.107c-0.043-0.311-0.097-0.611-0.16-0.902
			c-1.293,0.207-2.586,0.413-3.879,0.62c0.018,0.27,0.043,0.543,0.081,0.823C126.848,108.417,128.029,110.461,129.122,110.312z"/>
		<path fill="#456975" d="M96.83,110.366c0.465,3.402,1.97,6.006,3.361,5.815s2.143-3.102,1.679-6.504
			c-0.034-0.249-0.075-0.492-0.12-0.731c-1.664,0.317-3.32,0.666-4.961,1.062C96.802,110.127,96.813,110.246,96.83,110.366z"/>
		<path fill="#456975" d="M55.575,129.477c0.358,1.418,1.041,2.404,1.682,2.316c0.701-0.096,1.105-1.442,0.978-3.104
			C57.354,128.977,56.468,129.236,55.575,129.477z"/>
		<path fill="#456975" d="M45.882,131.325c-0.846,0.106-1.694,0.207-2.545,0.294c0.379,1.17,0.982,1.941,1.553,1.863
			C45.451,133.406,45.822,132.525,45.882,131.325z"/>
		<path fill="#456975" d="M137.851,103.094c-1.312,0.209-2.622,0.418-3.934,0.628c0.414,2.506,1.54,4.377,2.587,4.234
			C137.563,107.812,138.147,105.658,137.851,103.094z"/>
		<path fill="#456975" d="M31.511,132.463c-0.333,0.019-0.666,0.039-0.998,0.059c0.372,1.286,1.013,2.157,1.616,2.074
			c0.572-0.078,0.947-0.989,0.996-2.225C32.587,132.402,32.048,132.433,31.511,132.463z"/>
		<path fill="#456975" d="M52.149,130.292c-0.845,0.176-1.694,0.338-2.547,0.483c0.379,1.163,0.98,1.93,1.548,1.852
			C51.739,132.547,52.119,131.583,52.149,130.292z"/>
		<path fill="#456975" d="M39.729,131.941c-0.849,0.066-1.697,0.127-2.547,0.184c0.379,1.181,0.986,1.961,1.56,1.883
			C39.288,133.933,39.654,133.095,39.729,131.941z"/>
		<path fill="#456975" d="M150.083,99.261c-0.992,0.5-1.998,0.964-3.022,1.383c0.422,1.597,1.198,2.696,1.928,2.597
			C149.854,103.122,150.33,101.358,150.083,99.261z"/>
		<path fill="#456975" d="M153.402,100.377c0.679-0.093,1.045-1.512,0.818-3.17c-0.013-0.088-0.031-0.17-0.046-0.257
			c-0.745,0.467-1.5,0.914-2.264,1.341C152.226,99.562,152.832,100.455,153.402,100.377z"/>
		<path fill="#456975" d="M159.045,93.574c-0.655,0.496-1.316,0.982-1.985,1.455c0.311,0.883,0.777,1.461,1.222,1.4
			C158.897,96.346,159.232,95.074,159.045,93.574z"/>
	</g>
	
		<ellipse transform="matrix(0.9418 -0.3362 0.3362 0.9418 -36.3973 47.7581)" fill="#456975" cx="119.719" cy="128.989" rx="3.873" ry="1.231"/>
	
		<ellipse transform="matrix(0.8797 -0.4755 0.4755 0.8797 -37.4297 80.4241)" fill="#456975" cx="140.238" cy="114.189" rx="3.873" ry="1.231"/>
	
		<ellipse transform="matrix(0.9418 -0.3362 0.3362 0.9418 -37.7078 45.2707)" fill="#456975" cx="111.868" cy="131.519" rx="2.357" ry="0.749"/>
	
		<ellipse transform="matrix(0.8207 -0.5713 0.5713 0.8207 -44.2611 100.0369)" fill="#456975" cx="137.272" cy="120.546" rx="2.357" ry="0.749"/>
	
		<ellipse transform="matrix(0.9942 -0.1077 0.1077 0.9942 -13.8129 11.7425)" fill="#456975" cx="101.816" cy="133.764" rx="1.818" ry="0.749"/>
	
		<ellipse transform="matrix(0.8148 0.5798 -0.5798 0.8148 102.9528 -25.4921)" fill="#456975" cx="91.372" cy="148.377" rx="1.818" ry="0.749"/>
	
		<ellipse transform="matrix(0.9375 -0.3481 0.3481 0.9375 -33.7585 52.9633)" fill="#456975" cx="130.504" cy="120.423" rx="1.818" ry="0.749"/>
	
		<ellipse transform="matrix(0.8844 0.4666 -0.4666 0.8844 84.2729 -27.5181)" fill="#456975" cx="97.701" cy="156.404" rx="1.29" ry="0.532"/>
	
		<ellipse transform="matrix(0.8484 -0.5294 0.5294 0.8484 -35.5435 95.1198)" fill="#456975" cx="148.286" cy="109.611" rx="1.29" ry="0.532"/>
	
		<ellipse transform="matrix(0.9934 -0.115 0.115 0.9934 -14.6713 11.7529)" fill="#456975" cx="94.504" cy="133.004" rx="3.069" ry="1.551"/>
	
		<ellipse transform="matrix(0.809 0.5878 -0.5878 0.809 107.6772 -24.8268)" fill="#456975" cx="92.041" cy="153.275" rx="3.069" ry="1.551"/>
	
		<ellipse transform="matrix(0.9944 -0.1058 0.1058 0.9944 -13.3525 16.3513)" fill="#456975" cx="147.394" cy="133.989" rx="1.818" ry="0.749"/>
	
		<ellipse transform="matrix(0.9716 -0.2365 0.2365 0.9716 -27.6495 41.0857)" fill="#456975" cx="157.452" cy="135.807" rx="1.291" ry="0.532"/>
	
		<ellipse transform="matrix(0.9716 -0.2365 0.2365 0.9716 -26.8891 40.3079)" fill="#456975" cx="154.59" cy="132.249" rx="1.291" ry="0.531"/>
	
		<ellipse transform="matrix(0.9954 -0.0958 0.0958 0.9954 -12.4482 15.1079)" fill="#456975" cx="151.141" cy="137.215" rx="3.069" ry="1.55"/>
	<g opacity="0.22">
		<path fill="#FFFFFF" d="M15.948,136.052c5.301,0.343,10.47-1.742,15.773-2.043c10.421-0.59,21.105-1.137,30.693-5.262
			c8.467-3.643,15.598-9.886,23.999-13.677c7.438-3.357,15.607-4.676,23.666-5.963c9.802-1.565,19.603-3.13,29.403-4.695
			c9.7-1.549,18.021-7.417,25.429-13.951c0.545-1.066,1.087-2.131,1.624-3.188c-7.863,7.171-16.756,13.916-27.265,15.594
			c-9.801,1.565-19.602,3.13-29.402,4.695c-8.059,1.287-16.228,2.605-23.666,5.963c-8.402,3.791-15.532,10.033-23.999,13.677
			c-9.588,4.125-20.272,4.672-30.693,5.262c-5.304,0.301-10.473,2.386-15.773,2.043c-4.538-0.293-10.139,2.164-13.435,8.096
			c0.272,0.185,0.555,0.346,0.835,0.508C6.484,137.93,11.686,135.777,15.948,136.052z"/>
	</g>
	<path fill="#B2AB9E" d="M87.382,144.056c-1.091-0.124-2.18-0.263-3.268-0.414c-6.731-0.935-13.416-2.312-20.183-3.054
		c-13.65-1.494-27.22,0.305-40.602,2.94c-3.573,0.704-7.146,1.537-10.785,1.653c-3.51,0.111-6.968-0.501-9.91-2.379
		c-0.022-0.059-0.052-0.113-0.073-0.173c4.165,0.655,8.229,0.152,12.206-1.246c14.98-5.27,32.396-5.414,48.777-4.957
		c6.738,0.188,13.5,0.735,20.244,0.99c1.73,1.871,3.312,3.917,3.583,6.438C87.379,143.923,87.377,143.989,87.382,144.056z
		 M138.998,128.869c3.242-3.086,6.191-6.484,8.798-9.85c3.274-4.229,6.242-8.808,9.008-13.532
		c-6.831,7.791-14.729,14.71-23.452,20.098C135.376,126.378,136.982,128.04,138.998,128.869z M127.328,130.107
		c-0.383-0.135-0.69-0.368-0.921-0.653c-6.968,3.469-14.381,5.946-22.135,7.137c-4.431,0.68-8.889,0.93-13.36,0.952
		c0.254,0.602,0.503,1.207,0.797,1.769c1.193,2.281,3.242,3.935,5.465,5.296c10.045-0.117,20.07-2.397,29.15-6.702
		c2.965-1.405,5.782-3.245,8.439-5.349C132.508,131.655,129.454,130.858,127.328,130.107z"/>
	<g opacity="0.46">
		<g opacity="0.24">
			<path fill="#456975" d="M87.382,144.056c-0.005-0.066-0.003-0.133-0.01-0.2c-0.11-1.024-0.444-1.968-0.909-2.855
				c-0.639-0.062-1.275-0.126-1.913-0.195c-6.755-0.742-13.477-1.928-20.263-2.475c-13.687-1.103-27.199,1.085-40.5,4.103
				c-3.551,0.807-7.099,1.741-10.733,1.962c-3.159,0.191-6.297-0.199-9.079-1.591c-0.47-0.045-0.94-0.1-1.413-0.174
				c0.021,0.06,0.051,0.114,0.073,0.173c1.839,1.173,3.878,1.853,6.006,2.17c0.013,0.002,0.026,0.003,0.039,0.005
				c0.41,0.06,0.822,0.107,1.238,0.142c0.118,0.01,0.238,0.012,0.357,0.02c0.313,0.021,0.627,0.042,0.943,0.049
				c0.44,0.01,0.883,0.008,1.326-0.006c3.64-0.116,7.212-0.949,10.785-1.653c13.382-2.636,26.951-4.435,40.602-2.94
				c6.767,0.741,13.451,2.119,20.183,3.054C85.202,143.793,87.382,144.056,87.382,144.056z"/>
		</g>
		<g opacity="0.24">
			<path fill="#456975" d="M128.146,136.973c0.328-0.178,0.655-0.362,0.979-0.551c0.148-0.086,0.297-0.169,0.444-0.257
				c0.39-0.231,0.775-0.473,1.159-0.718c0.248-0.159,1.039-0.689,1.188-0.791c0.968-0.664,1.917-1.364,2.846-2.1
				c-1.145-0.457-2.494-0.888-3.824-1.299c-1.412,0.963-2.865,1.84-4.361,2.603c-8.957,4.564-18.916,7.132-28.958,7.536
				c-1.479,0.06-2.953,0.062-4.424,0.025c1.12,1.253,2.508,2.285,3.978,3.186h0.016c4.39-0.053,8.774-0.518,13.079-1.384
				c0.051-0.011,0.102-0.022,0.152-0.033c1.18-0.24,2.354-0.509,3.52-0.81c0.114-0.029,1.327-0.354,1.817-0.494
				c0.213-0.061,1.416-0.421,1.805-0.543c0.135-0.043,1.329-0.433,1.789-0.592c0.132-0.046,1.313-0.468,1.771-0.64
				c0.448-0.169,1.616-0.632,1.754-0.688c0.393-0.16,1.548-0.654,1.735-0.736c0.574-0.253,1.146-0.515,1.713-0.783
				c0.468-0.222,0.93-0.458,1.39-0.7C127.858,137.129,128.002,137.051,128.146,136.973z"/>
		</g>
		<g opacity="0.24">
			<path fill="#456975" d="M149.529,116.703c0.278-0.382,1.825-2.578,2.062-2.929c0.183-0.268,2.171-3.301,2.375-3.623
				c0.188-0.3,2.643-4.332,2.837-4.664c-3.272,3.732-6.792,7.262-10.528,10.521c-2.969,3.911-6.368,7.804-10.149,11.171
				c0.924,0.63,1.845,1.268,2.872,1.69c0.803-0.764,1.587-1.547,2.353-2.344c0.017-0.018,0.032-0.034,0.049-0.051
				c0.75-0.782,1.481-1.577,2.195-2.381c0.035-0.04,0.07-0.08,0.106-0.121c0.697-0.789,1.378-1.585,2.039-2.385
				c0.042-0.051,1.433-1.764,2.056-2.568C148.234,118.454,149.384,116.902,149.529,116.703z"/>
		</g>
	</g>
	<path fill="#45454D" d="M13.599,141.175c-0.217,0.109-0.464,0.226-0.747,0.322c-0.279,0.104-0.58,0.219-0.899,0.339
		c-0.314,0.129-0.672,0.195-1.024,0.308c-0.356,0.099-0.719,0.221-1.105,0.272c-0.381,0.07-0.768,0.142-1.154,0.213
		c-0.391,0.037-0.782,0.074-1.167,0.11c-0.384,0.054-0.765,0.031-1.132,0.031c-0.365-0.012-0.727,0.03-1.056-0.015
		c-0.331-0.03-0.644-0.06-0.933-0.086c-0.287-0.018-0.558-0.056-0.799-0.108c-0.24-0.044-1.067-0.191-1.134-0.202
		c-0.016,0.027-0.033,0.055-0.05,0.083l-0.039,0.193c0.295,0.198,0.597,0.376,0.901,0.549c0.062,0.014,0.12,0.026,0.188,0.041
		c0.235,0.057,0.507,0.114,0.821,0.133c0.31,0.029,0.645,0.062,0.999,0.095c0.355,0.045,0.725,0.012,1.109,0.013
		c0.384-0.012,0.78-0.003,1.18-0.07c0.398-0.051,0.805-0.103,1.21-0.153c0.396-0.097,0.794-0.192,1.185-0.287
		c0.394-0.081,0.761-0.232,1.121-0.358c0.355-0.139,0.714-0.231,1.021-0.402c0.312-0.157,1.145-0.573,1.264-0.641
		c0.116-0.077,1.312-0.887,1.312-0.887S13.818,141.069,13.599,141.175z"/>
</g>
</svg>
