<svg width="250" height="250" viewBox="0 0 250 250" fill="none" xmlns="http://www.w3.org/2000/svg">
<path d="M65.1403 82.367C71.3677 70.8691 82.7756 65.0946 90.6206 69.4694C94.388 71.5702 96.813 75.7784 97.3624 81.1683C97.9117 86.5581 96.5402 92.688 93.5498 98.2095C87.3224 109.707 75.9145 115.482 68.0695 111.107C60.2244 106.732 58.913 93.865 65.1403 82.367V82.367Z" fill="#96C4D4"/>
<path d="M65.1403 82.367C71.3677 70.8691 82.7756 65.0946 90.6206 69.4694C94.388 71.5702 96.813 75.7784 97.3624 81.1683C97.9117 86.5581 96.5402 92.688 93.5498 98.2095C87.3224 109.707 75.9145 115.482 68.0695 111.107C60.2244 106.732 58.913 93.865 65.1403 82.367V82.367Z" stroke="#356879" stroke-width="2" stroke-miterlimit="10" stroke-linejoin="round"/>
<path d="M116.12 65.7623C122.347 54.2643 133.755 48.4899 141.6 52.8646C145.368 54.9655 147.793 59.1737 148.342 64.5635C148.891 69.9534 147.52 76.0833 144.529 81.6048C138.302 93.1028 126.894 98.8772 119.049 94.5024C111.204 90.1277 109.893 77.2602 116.12 65.7623V65.7623Z" fill="#96C4D4"/>
<path d="M116.12 65.7623C122.347 54.2643 133.755 48.4899 141.6 52.8646C145.368 54.9655 147.793 59.1737 148.342 64.5635C148.891 69.9534 147.52 76.0833 144.529 81.6048C138.302 93.1028 126.894 98.8772 119.049 94.5024C111.204 90.1277 109.893 77.2602 116.12 65.7623V65.7623Z" stroke="#356879" stroke-width="2" stroke-miterlimit="10" stroke-linejoin="round"/>
<path d="M150.226 90.5444C156.453 79.0464 167.861 73.272 175.706 77.6468C179.473 79.7476 181.898 83.9558 182.448 89.3456C182.997 94.7355 181.626 100.865 178.635 106.387C172.408 117.885 161 123.659 153.155 119.285C145.31 114.91 143.998 102.042 150.226 90.5444V90.5444Z" fill="#96C4D4"/>
<path d="M150.226 90.5444C156.453 79.0464 167.861 73.272 175.706 77.6468C179.473 79.7476 181.898 83.9558 182.448 89.3456C182.997 94.7355 181.626 100.865 178.635 106.387C172.408 117.885 161 123.659 153.155 119.285C145.31 114.91 143.998 102.042 150.226 90.5444V90.5444Z" stroke="#356879" stroke-width="2" stroke-miterlimit="10" stroke-linejoin="round"/>
<path d="M161.028 145.04C167.255 133.542 178.663 127.767 186.508 132.142C190.275 134.243 192.7 138.451 193.25 143.841C193.799 149.231 192.428 155.361 189.437 160.882C183.21 172.38 171.802 178.154 163.957 173.78C156.112 169.405 154.8 156.537 161.028 145.04V145.04Z" fill="#96C4D4"/>
<path d="M161.028 145.04C167.255 133.542 178.663 127.767 186.508 132.142C190.275 134.243 192.7 138.451 193.25 143.841C193.799 149.231 192.428 155.361 189.437 160.882C183.21 172.38 171.802 178.154 163.957 173.78C156.112 169.405 154.8 156.537 161.028 145.04V145.04Z" stroke="#356879" stroke-width="2" stroke-miterlimit="10" stroke-linejoin="round"/>
<path d="M144.051 181.724C143.814 177.677 141.91 169.741 141.196 165.059C140.482 160.377 140.083 158.156 139.765 153.632C139.448 149.109 139.848 142.998 139.293 137.919C138.737 132.84 138.257 126.968 136.431 123.158C134.605 119.348 131.592 116.884 128.338 115.058C125.085 113.233 121.436 111.727 116.911 112.203C112.387 112.679 106.35 115.929 101.192 117.914C96.0326 119.898 92.3855 122.284 85.9576 124.11C79.5297 125.935 68.3389 126.567 62.6243 128.868C56.9097 131.17 54.1311 133.872 51.6698 137.919C49.2085 141.967 47.3007 148.074 47.8564 153.153C48.4121 158.232 51.4324 164.981 55.0041 168.394C58.5757 171.807 63.3343 171.964 69.2863 173.631C75.2383 175.298 84.8429 174.349 90.7161 178.396C96.5894 182.444 100.32 193.472 104.526 197.916C108.732 202.361 111.111 204.35 115.953 205.064C120.795 205.778 129.131 204.822 133.576 202.202C138.021 199.582 140.875 192.757 142.62 189.344C144.366 185.931 144.289 185.772 144.051 181.724V181.724Z" fill="#96C4D4"/>
<path d="M144.051 181.724C143.814 177.677 141.91 169.741 141.196 165.059C140.482 160.377 140.083 158.156 139.765 153.632C139.448 149.109 139.848 142.998 139.293 137.919C138.737 132.84 138.257 126.968 136.431 123.158C134.605 119.348 131.592 116.884 128.338 115.058C125.085 113.233 121.436 111.727 116.911 112.203C112.387 112.679 106.35 115.929 101.192 117.914C96.0326 119.898 92.3855 122.284 85.9576 124.11C79.5297 125.935 68.3389 126.567 62.6243 128.868C56.9097 131.17 54.1311 133.872 51.6698 137.919C49.2085 141.967 47.3007 148.074 47.8564 153.153C48.4121 158.232 51.4324 164.981 55.0041 168.394C58.5757 171.807 63.3343 171.964 69.2863 173.631C75.2383 175.298 84.8429 174.349 90.7161 178.396C96.5894 182.444 100.32 193.472 104.526 197.916C108.732 202.361 111.111 204.35 115.953 205.064C120.795 205.778 129.131 204.822 133.576 202.202C138.021 199.582 140.875 192.757 142.62 189.344C144.366 185.931 144.289 185.772 144.051 181.724V181.724Z" stroke="#356879" stroke-width="2" stroke-miterlimit="10" stroke-linejoin="round"/>
<path d="M137.97 145.461C137.914 141.565 138.61 135.957 137.379 132.563C136.149 129.17 133.686 126.755 130.586 125.101C127.486 123.447 122.943 121.962 118.778 122.639C114.614 123.316 109.573 127.445 105.599 129.163C101.625 130.882 99.1151 131.876 94.933 132.951C90.751 134.025 85.0243 134.153 80.5064 135.609C75.9885 137.065 70.8296 138.65 67.8257 141.687C64.8218 144.723 62.704 149.152 62.483 153.829C62.262 158.507 63.6404 166.36 66.4999 169.752C69.3594 173.144 75.1123 172.461 79.6401 174.183C84.1678 175.904 89.4438 176.944 93.6663 180.083C97.8888 183.223 101.734 189.29 104.975 193.02C108.217 196.75 109.38 200.78 113.114 202.465C116.848 204.149 123.133 204.332 127.377 203.128C131.62 201.923 136.073 198.616 138.574 195.238C141.075 191.86 142.081 187.004 142.381 182.86C142.68 178.715 141.15 174.856 140.372 170.369C139.594 165.882 138.114 160.087 137.714 155.936C137.314 151.785 138.026 149.356 137.97 145.461V145.461Z" fill="#6B96A6"/>
<path d="M167.146 146.829C171.939 137.983 180.745 133.563 186.816 136.955C189.731 138.584 191.613 141.833 192.047 145.988C192.481 150.144 191.432 154.864 189.131 159.112C184.338 167.957 175.532 172.378 169.461 168.986C163.391 165.594 162.354 155.674 167.146 146.829V146.829Z" fill="#6B96A6"/>
<path d="M156.154 92.3334C160.946 83.4881 169.752 79.0674 175.823 82.4594C178.738 84.0883 180.62 87.3378 181.054 91.4931C181.488 95.6485 180.439 100.369 178.138 104.617C173.346 113.462 164.539 117.883 158.469 114.491C152.398 111.099 151.361 101.179 156.154 92.3334V92.3334Z" fill="#6B96A6"/>
<path d="M122.968 66.4685C127.761 57.6233 136.567 53.2025 142.638 56.5945C145.553 58.2234 147.435 61.4729 147.869 65.6283C148.303 69.7836 147.254 74.5043 144.953 78.752C140.16 87.5972 131.354 92.018 125.283 88.626C119.213 85.234 118.176 75.3138 122.968 66.4685V66.4685Z" fill="#6B96A6"/>
<path d="M72.3657 84.2868C77.1579 75.4415 85.9642 71.0208 92.035 74.4127C94.9503 76.0416 96.8319 79.2912 97.2661 83.4465C97.7002 87.6018 96.6513 92.3226 94.3499 96.5702C89.5577 105.415 80.7514 109.836 74.6806 106.444C68.6098 103.052 67.5734 93.132 72.3657 84.2868V84.2868Z" fill="#6B96A6"/>
<path d="M82.4453 135.397H83.0781V143H82.4453V135.397ZM84.9766 135.397H85.6094V143H84.9766V135.397ZM83.7109 135.397H84.3438V143H83.7109V135.397ZM81.8125 135.397V143C80.6992 143.422 79.5449 143.633 78.3496 143.633C77.3125 143.633 76.3193 143.442 75.3701 143.062C74.4209 142.681 73.5859 142.153 72.8652 141.479C72.1445 140.8 71.5674 139.962 71.1338 138.966C70.7061 137.964 70.4922 136.883 70.4922 135.723C70.4922 134.65 70.7002 133.628 71.1162 132.655C71.5381 131.677 72.1006 130.836 72.8037 130.133C73.5127 129.424 74.3535 128.861 75.3262 128.445C76.3047 128.023 77.3301 127.812 78.4023 127.812C79.7383 127.812 80.9805 128.123 82.1289 128.744C83.2773 129.365 84.2148 130.209 84.9414 131.275L84.4141 131.618C83.7461 130.64 82.8818 129.866 81.8213 129.298C80.7666 128.729 79.627 128.445 78.4023 128.445C77.418 128.445 76.4746 128.639 75.5723 129.025C74.6758 129.406 73.9023 129.922 73.252 130.572C72.6016 131.223 72.083 131.999 71.6963 132.901C71.3154 133.798 71.125 134.738 71.125 135.723C71.125 136.783 71.3213 137.773 71.7139 138.693C72.1123 139.613 72.6396 140.384 73.2959 141.005C73.958 141.626 74.7256 142.115 75.5986 142.473C76.4717 142.824 77.3799 143 78.3232 143C79.3135 143 80.2656 142.845 81.1797 142.534V141.928C80.3066 142.221 79.3896 142.367 78.4287 142.367C77.7314 142.367 77.0518 142.271 76.3896 142.077C75.7334 141.878 75.124 141.588 74.5615 141.207C74.0049 140.82 73.5156 140.363 73.0938 139.836C72.6777 139.303 72.3496 138.685 72.1094 137.981C71.875 137.272 71.7578 136.52 71.7578 135.723C71.7578 134.521 72.0537 133.411 72.6455 132.392C73.2432 131.372 74.0518 130.566 75.0713 129.975C76.0908 129.377 77.2012 129.078 78.4023 129.078C79.5273 129.078 80.5732 129.342 81.54 129.869C82.5068 130.391 83.2949 131.1 83.9043 131.996L83.377 132.339C82.8262 131.53 82.1113 130.892 81.2324 130.423C80.3594 129.948 79.416 129.711 78.4023 129.711C77.5879 129.711 76.8086 129.869 76.0645 130.186C75.3203 130.502 74.6787 130.93 74.1396 131.469C73.6064 132.002 73.1816 132.641 72.8652 133.385C72.5488 134.129 72.3906 134.908 72.3906 135.723C72.3906 136.455 72.4961 137.144 72.707 137.788C72.9238 138.427 73.2197 138.986 73.5947 139.467C73.9756 139.941 74.418 140.352 74.9219 140.697C75.4258 141.037 75.9736 141.295 76.5654 141.471C77.1631 141.646 77.7754 141.734 78.4023 141.734C79.375 141.734 80.3008 141.57 81.1797 141.242V140.609C80.3125 140.943 79.4072 141.11 78.4639 141.11C77.749 141.11 77.0664 140.99 76.416 140.75C75.7656 140.504 75.1855 140.158 74.6758 139.713C74.1719 139.268 73.7705 138.699 73.4717 138.008C73.1729 137.316 73.0234 136.555 73.0234 135.723C73.0234 134.75 73.2637 133.851 73.7441 133.024C74.2246 132.198 74.8779 131.545 75.7041 131.064C76.5303 130.584 77.4297 130.344 78.4023 130.344C79.3105 130.344 80.1543 130.555 80.9336 130.977C81.7188 131.398 82.3574 131.973 82.8496 132.699L82.3223 133.042C81.8887 132.409 81.3262 131.908 80.6348 131.539C79.9492 131.164 79.2051 130.977 78.4023 130.977C77.541 130.977 76.7471 131.19 76.0205 131.618C75.2939 132.04 74.7168 132.614 74.2891 133.341C73.8672 134.067 73.6562 134.861 73.6562 135.723C73.6562 136.32 73.7412 136.877 73.9111 137.393C74.0811 137.908 74.3154 138.354 74.6143 138.729C74.9131 139.104 75.2617 139.423 75.6602 139.687C76.0645 139.95 76.498 140.149 76.9609 140.284C77.4238 140.413 77.9043 140.478 78.4023 140.478C79.3926 140.478 80.3184 140.281 81.1797 139.889V139.282C80.3477 139.651 79.4482 139.836 78.4814 139.836C77.9248 139.836 77.4004 139.751 76.9082 139.581C76.416 139.411 75.9707 139.162 75.5723 138.834C75.1797 138.506 74.8662 138.075 74.6318 137.542C74.4033 137.003 74.2891 136.396 74.2891 135.723C74.2891 135.166 74.3975 134.636 74.6143 134.132C74.8311 133.622 75.124 133.183 75.4932 132.813C75.8623 132.444 76.2988 132.151 76.8027 131.935C77.3125 131.718 77.8457 131.609 78.4023 131.609C79.0996 131.609 79.7471 131.773 80.3447 132.102C80.9424 132.424 81.4287 132.863 81.8037 133.42L81.2852 133.763C80.9688 133.294 80.5557 132.925 80.0459 132.655C79.542 132.38 78.9941 132.242 78.4023 132.242C77.4414 132.242 76.6211 132.582 75.9414 133.262C75.2617 133.941 74.9219 134.762 74.9219 135.723C74.9219 136.314 75.0186 136.839 75.2119 137.296C75.4053 137.747 75.6689 138.11 76.0029 138.386C76.3428 138.655 76.7178 138.86 77.1279 139.001C77.5439 139.136 77.9893 139.203 78.4639 139.203C79.4365 139.203 80.3418 139.001 81.1797 138.597V135.397H81.8125ZM95.4707 137.393V130.344H96.1035V137.393C96.1035 138.061 95.8457 138.635 95.3301 139.115C94.8203 139.596 94.2051 139.836 93.4844 139.836C92.7637 139.836 92.1455 139.596 91.6299 139.115C91.1201 138.635 90.8652 138.061 90.8652 137.393V130.344H91.498V137.393C91.498 137.891 91.6914 138.318 92.0781 138.676C92.4707 139.027 92.9395 139.203 93.4844 139.203C94.0293 139.203 94.4951 139.027 94.8818 138.676C95.2744 138.318 95.4707 137.891 95.4707 137.393ZM96.7363 137.393V130.344H97.3691V137.393C97.3691 138.418 96.9883 139.294 96.2266 140.021C95.4648 140.741 94.5508 141.102 93.4844 141.102C92.418 141.102 91.5039 140.741 90.7422 140.021C89.9805 139.294 89.5996 138.418 89.5996 137.393V130.344H90.2324V137.393C90.2324 138.242 90.5488 138.969 91.1816 139.572C91.8203 140.17 92.5879 140.469 93.4844 140.469C94.375 140.469 95.1396 140.17 95.7783 139.572C96.417 138.969 96.7363 138.242 96.7363 137.393ZM98.002 137.393V130.344H98.6348V137.393C98.6348 138.289 98.4033 139.121 97.9404 139.889C97.4775 140.65 96.8506 141.254 96.0596 141.699C95.2686 142.145 94.4102 142.367 93.4844 142.367C92.5586 142.367 91.7002 142.145 90.9092 141.699C90.1182 141.254 89.4912 140.65 89.0283 139.889C88.5654 139.121 88.334 138.289 88.334 137.393V130.344H88.9668V137.393C88.9668 138.172 89.1689 138.896 89.5732 139.563C89.9775 140.231 90.5254 140.762 91.2168 141.154C91.9141 141.541 92.6699 141.734 93.4844 141.734C94.2988 141.734 95.0518 141.541 95.7432 141.154C96.4404 140.762 96.9912 140.231 97.3955 139.563C97.7998 138.896 98.002 138.172 98.002 137.393ZM99.2676 137.393V130.344H99.9004V137.393C99.9004 138.236 99.7305 139.045 99.3906 139.818C99.0508 140.586 98.5938 141.248 98.0195 141.805C97.4453 142.361 96.7627 142.804 95.9717 143.132C95.1807 143.466 94.3516 143.633 93.4844 143.633C92.6172 143.633 91.7881 143.466 90.9971 143.132C90.2061 142.804 89.5234 142.361 88.9492 141.805C88.375 141.248 87.918 140.586 87.5781 139.818C87.2383 139.045 87.0684 138.236 87.0684 137.393V130.344H87.7012V137.393C87.7012 138.4 87.959 139.335 88.4746 140.196C88.9961 141.058 89.6992 141.74 90.584 142.244C91.4746 142.748 92.4414 143 93.4844 143C94.5273 143 95.4912 142.748 96.376 142.244C97.2666 141.74 97.9697 141.058 98.4854 140.196C99.0068 139.335 99.2676 138.4 99.2676 137.393ZM104.655 143H104.022V130.344H104.655V143ZM103.39 143H102.757V130.344H103.39V143ZM102.124 143H101.491V130.344H102.124V143ZM105.921 139.836H111.977V140.469H105.921V141.102H111.977V141.734H105.921V142.367H111.977V143H105.288V130.344H111.977V130.977H105.921V131.609H111.977V132.242H105.921V132.875H111.977V133.508H105.921V135.081H111.625V135.714H105.921V136.347H111.625V136.979H105.921V137.612H111.625V138.245H105.921V139.836ZM119.315 136.979H118.313C117.083 136.979 116.137 136.73 115.475 136.232C114.812 135.729 114.481 135.037 114.481 134.158C114.481 133.338 114.871 132.655 115.65 132.11C116.43 131.56 117.522 131.284 118.929 131.284C119.866 131.284 120.739 131.413 121.548 131.671C122.362 131.929 123.039 132.292 123.578 132.761L123.086 133.156C122.605 132.764 122.002 132.459 121.275 132.242C120.549 132.025 119.767 131.917 118.929 131.917C117.692 131.917 116.746 132.128 116.09 132.55C115.439 132.972 115.114 133.508 115.114 134.158C115.114 134.861 115.381 135.403 115.914 135.784C116.453 136.159 117.253 136.347 118.313 136.347H119.28C120.528 136.347 121.483 136.599 122.146 137.103C122.813 137.601 123.147 138.289 123.147 139.168C123.147 139.988 122.758 140.674 121.979 141.225C121.199 141.77 120.106 142.042 118.7 142.042C117.763 142.042 116.887 141.913 116.072 141.655C115.264 141.397 114.59 141.034 114.051 140.565L114.543 140.17C115.023 140.562 115.627 140.867 116.354 141.084C117.08 141.301 117.862 141.409 118.7 141.409C119.937 141.409 120.88 141.198 121.53 140.776C122.187 140.354 122.515 139.818 122.515 139.168C122.515 138.465 122.245 137.926 121.706 137.551C121.173 137.17 120.376 136.979 119.315 136.979ZM119.315 138.245H118.313C116.685 138.245 115.428 137.876 114.543 137.138C113.658 136.394 113.216 135.4 113.216 134.158C113.216 133.59 113.342 133.057 113.594 132.559C113.846 132.061 114.206 131.624 114.675 131.249C115.149 130.868 115.753 130.569 116.485 130.353C117.218 130.13 118.032 130.019 118.929 130.019C120.06 130.019 121.117 130.191 122.102 130.537C123.086 130.877 123.906 131.354 124.562 131.97L124.053 132.348C123.455 131.809 122.708 131.393 121.812 131.1C120.915 130.801 119.954 130.651 118.929 130.651C117.347 130.651 116.104 130.985 115.202 131.653C114.3 132.321 113.849 133.156 113.849 134.158C113.849 135.219 114.235 136.06 115.009 136.681C115.782 137.302 116.884 137.612 118.313 137.612H119.28C121.015 137.612 121.882 138.131 121.882 139.168C121.882 139.637 121.615 140.023 121.082 140.328C120.555 140.627 119.761 140.776 118.7 140.776C117.956 140.776 117.265 140.691 116.626 140.521C115.987 140.346 115.46 140.097 115.044 139.774L115.545 139.388C116.277 139.892 117.329 140.144 118.7 140.144C119.579 140.144 120.224 140.053 120.634 139.871C121.044 139.689 121.249 139.455 121.249 139.168C121.249 138.834 121.105 138.597 120.818 138.456C120.531 138.315 120.03 138.245 119.315 138.245ZM119.315 135.714H118.313C116.603 135.714 115.747 135.195 115.747 134.158C115.747 133.689 116.011 133.306 116.538 133.007C117.071 132.702 117.868 132.55 118.929 132.55C119.673 132.55 120.364 132.638 121.003 132.813C121.642 132.983 122.169 133.229 122.585 133.552L122.084 133.938C121.352 133.435 120.3 133.183 118.929 133.183C118.05 133.183 117.405 133.273 116.995 133.455C116.585 133.637 116.38 133.871 116.38 134.158C116.38 134.492 116.523 134.729 116.811 134.87C117.098 135.011 117.599 135.081 118.313 135.081H119.315C120.944 135.081 122.201 135.453 123.086 136.197C123.971 136.936 124.413 137.926 124.413 139.168C124.413 139.736 124.287 140.27 124.035 140.768C123.783 141.266 123.42 141.705 122.945 142.086C122.477 142.461 121.876 142.76 121.144 142.982C120.411 143.199 119.597 143.308 118.7 143.308C117.569 143.308 116.512 143.138 115.527 142.798C114.543 142.452 113.723 141.972 113.066 141.356L113.576 140.979C114.174 141.518 114.921 141.937 115.817 142.235C116.714 142.528 117.675 142.675 118.7 142.675C120.282 142.675 121.524 142.341 122.427 141.673C123.329 141.005 123.78 140.17 123.78 139.168C123.78 138.107 123.394 137.267 122.62 136.646C121.847 136.024 120.745 135.714 119.315 135.714ZM131.62 136.979H130.618C129.388 136.979 128.441 136.73 127.779 136.232C127.117 135.729 126.786 135.037 126.786 134.158C126.786 133.338 127.176 132.655 127.955 132.11C128.734 131.56 129.827 131.284 131.233 131.284C132.171 131.284 133.044 131.413 133.853 131.671C134.667 131.929 135.344 132.292 135.883 132.761L135.391 133.156C134.91 132.764 134.307 132.459 133.58 132.242C132.854 132.025 132.071 131.917 131.233 131.917C129.997 131.917 129.051 132.128 128.395 132.55C127.744 132.972 127.419 133.508 127.419 134.158C127.419 134.861 127.686 135.403 128.219 135.784C128.758 136.159 129.558 136.347 130.618 136.347H131.585C132.833 136.347 133.788 136.599 134.45 137.103C135.118 137.601 135.452 138.289 135.452 139.168C135.452 139.988 135.062 140.674 134.283 141.225C133.504 141.77 132.411 142.042 131.005 142.042C130.067 142.042 129.191 141.913 128.377 141.655C127.568 141.397 126.895 141.034 126.355 140.565L126.848 140.17C127.328 140.562 127.932 140.867 128.658 141.084C129.385 141.301 130.167 141.409 131.005 141.409C132.241 141.409 133.185 141.198 133.835 140.776C134.491 140.354 134.819 139.818 134.819 139.168C134.819 138.465 134.55 137.926 134.011 137.551C133.478 137.17 132.681 136.979 131.62 136.979ZM131.62 138.245H130.618C128.989 138.245 127.732 137.876 126.848 137.138C125.963 136.394 125.521 135.4 125.521 134.158C125.521 133.59 125.646 133.057 125.898 132.559C126.15 132.061 126.511 131.624 126.979 131.249C127.454 130.868 128.058 130.569 128.79 130.353C129.522 130.13 130.337 130.019 131.233 130.019C132.364 130.019 133.422 130.191 134.406 130.537C135.391 130.877 136.211 131.354 136.867 131.97L136.357 132.348C135.76 131.809 135.013 131.393 134.116 131.1C133.22 130.801 132.259 130.651 131.233 130.651C129.651 130.651 128.409 130.985 127.507 131.653C126.604 132.321 126.153 133.156 126.153 134.158C126.153 135.219 126.54 136.06 127.313 136.681C128.087 137.302 129.188 137.612 130.618 137.612H131.585C133.319 137.612 134.187 138.131 134.187 139.168C134.187 139.637 133.92 140.023 133.387 140.328C132.859 140.627 132.065 140.776 131.005 140.776C130.261 140.776 129.569 140.691 128.931 140.521C128.292 140.346 127.765 140.097 127.349 139.774L127.85 139.388C128.582 139.892 129.634 140.144 131.005 140.144C131.884 140.144 132.528 140.053 132.938 139.871C133.349 139.689 133.554 139.455 133.554 139.168C133.554 138.834 133.41 138.597 133.123 138.456C132.836 138.315 132.335 138.245 131.62 138.245ZM131.62 135.714H130.618C128.907 135.714 128.052 135.195 128.052 134.158C128.052 133.689 128.315 133.306 128.843 133.007C129.376 132.702 130.173 132.55 131.233 132.55C131.978 132.55 132.669 132.638 133.308 132.813C133.946 132.983 134.474 133.229 134.89 133.552L134.389 133.938C133.656 133.435 132.604 133.183 131.233 133.183C130.354 133.183 129.71 133.273 129.3 133.455C128.89 133.637 128.685 133.871 128.685 134.158C128.685 134.492 128.828 134.729 129.115 134.87C129.402 135.011 129.903 135.081 130.618 135.081H131.62C133.249 135.081 134.506 135.453 135.391 136.197C136.275 136.936 136.718 137.926 136.718 139.168C136.718 139.736 136.592 140.27 136.34 140.768C136.088 141.266 135.725 141.705 135.25 142.086C134.781 142.461 134.181 142.76 133.448 142.982C132.716 143.199 131.901 143.308 131.005 143.308C129.874 143.308 128.816 143.138 127.832 142.798C126.848 142.452 126.027 141.972 125.371 141.356L125.881 140.979C126.479 141.518 127.226 141.937 128.122 142.235C129.019 142.528 129.979 142.675 131.005 142.675C132.587 142.675 133.829 142.341 134.731 141.673C135.634 141.005 136.085 140.17 136.085 139.168C136.085 138.107 135.698 137.267 134.925 136.646C134.151 136.024 133.05 135.714 131.62 135.714ZM75.7393 164.109H79.4131C80.0166 164.109 80.5264 163.907 80.9424 163.503C81.3643 163.093 81.5752 162.516 81.5752 161.771C81.5752 161.215 81.3555 160.717 80.916 160.277C80.4766 159.832 79.9756 159.609 79.4131 159.609H73.9814V171H73.3486V158.977H79.4131C80.1514 158.977 80.8018 159.261 81.3643 159.829C81.9268 160.397 82.208 161.045 82.208 161.771C82.208 162.668 81.9355 163.389 81.3906 163.934C80.8457 164.473 80.1865 164.742 79.4131 164.742H75.7393V164.109ZM75.7393 165.375H79.4131C80.0225 165.375 80.585 165.229 81.1006 164.936C81.6221 164.637 82.041 164.209 82.3574 163.652C82.6797 163.096 82.8408 162.469 82.8408 161.771C82.8408 160.869 82.4951 160.072 81.8037 159.381C81.1182 158.689 80.3213 158.344 79.4131 158.344H72.7158V171H72.083V157.711H79.4131C80.1221 157.711 80.79 157.898 81.417 158.273C82.0439 158.648 82.542 159.149 82.9111 159.776C83.2861 160.403 83.4736 161.068 83.4736 161.771C83.4736 162.568 83.2861 163.295 82.9111 163.951C82.5361 164.602 82.0381 165.108 81.417 165.472C80.8018 165.829 80.1338 166.008 79.4131 166.008H75.7393V165.375ZM75.7393 166.641H79.4131C80.04 166.641 80.6406 166.518 81.2148 166.271C81.7891 166.02 82.2871 165.683 82.709 165.261C83.1367 164.833 83.4766 164.317 83.7285 163.714C83.9805 163.104 84.1064 162.457 84.1064 161.771C84.1064 160.951 83.8926 160.181 83.4648 159.46C83.0371 158.733 82.46 158.156 81.7334 157.729C81.0127 157.295 80.2393 157.078 79.4131 157.078H71.4502V171H70.8174V156.445H79.4131C80.3506 156.445 81.2295 156.691 82.0498 157.184C82.8701 157.67 83.5234 158.323 84.0098 159.144C84.4961 159.964 84.7393 160.84 84.7393 161.771C84.7393 162.604 84.5957 163.371 84.3086 164.074C84.0215 164.771 83.6348 165.352 83.1484 165.814C82.6621 166.277 82.0967 166.638 81.4521 166.896C80.8076 167.147 80.1279 167.273 79.4131 167.273H75.7393V166.641ZM75.2471 171H74.6143V160.242H79.4131C79.8291 160.242 80.1865 160.395 80.4854 160.699C80.79 161.004 80.9424 161.361 80.9424 161.771C80.9424 162.908 80.4326 163.477 79.4131 163.477H75.7393V162.844H79.4131C79.6943 162.844 79.9141 162.765 80.0723 162.606C80.2305 162.448 80.3096 162.17 80.3096 161.771C80.3096 161.514 80.2217 161.3 80.0459 161.13C79.876 160.96 79.665 160.875 79.4131 160.875H75.2471V171ZM95.1104 164.76C95.1104 164.01 94.8789 163.43 94.416 163.02C93.9531 162.609 93.3408 162.404 92.5791 162.404C91.9346 162.404 91.3809 162.627 90.918 163.072C90.4551 163.518 90.2236 164.051 90.2236 164.672C90.2236 165.023 90.2705 165.34 90.3643 165.621C90.458 165.896 90.584 166.128 90.7422 166.315C90.9062 166.497 91.0996 166.649 91.3223 166.772C91.5449 166.89 91.7764 166.975 92.0166 167.027C92.2627 167.08 92.5234 167.106 92.7988 167.106C93.4668 167.106 94.0762 166.942 94.627 166.614V167.247C94.0586 167.546 93.4463 167.695 92.79 167.695C92.3682 167.695 91.9697 167.64 91.5947 167.528C91.2256 167.411 90.8887 167.238 90.584 167.01C90.2793 166.775 90.0361 166.459 89.8545 166.061C89.6787 165.656 89.5908 165.193 89.5908 164.672C89.5908 163.863 89.875 163.178 90.4434 162.615C91.0117 162.053 91.7236 161.771 92.5791 161.771C93.5225 161.771 94.2842 162.038 94.8643 162.571C95.4502 163.099 95.7432 163.828 95.7432 164.76V171H95.1104V164.76ZM97.0088 164.76V171H96.376V164.76C96.376 163.652 96.0215 162.773 95.3125 162.123C94.6035 161.467 93.6924 161.139 92.5791 161.139C91.5479 161.139 90.6865 161.481 89.9951 162.167C89.3037 162.853 88.958 163.688 88.958 164.672C88.958 165.27 89.0605 165.806 89.2656 166.28C89.4766 166.755 89.7607 167.136 90.1182 167.423C90.4756 167.71 90.874 167.93 91.3135 168.082C91.7588 168.229 92.2275 168.302 92.7197 168.302C93.3877 168.302 94.0234 168.146 94.627 167.836V168.504C93.9941 168.768 93.3555 168.899 92.7109 168.899C92.1309 168.899 91.5801 168.812 91.0586 168.636C90.5371 168.454 90.0713 168.193 89.6611 167.854C89.251 167.508 88.9258 167.062 88.6855 166.518C88.4453 165.967 88.3252 165.352 88.3252 164.672C88.3252 163.518 88.7324 162.536 89.5469 161.728C90.3672 160.913 91.3779 160.506 92.5791 160.506C93.4229 160.506 94.1787 160.679 94.8467 161.024C95.5146 161.364 96.042 161.859 96.4287 162.51C96.8154 163.16 97.0088 163.91 97.0088 164.76ZM98.2744 164.76V171H97.6416V164.76C97.6416 163.793 97.4189 162.938 96.9736 162.193C96.5342 161.443 95.9307 160.869 95.1631 160.471C94.3955 160.072 93.5342 159.873 92.5791 159.873C91.6709 159.873 90.8418 160.09 90.0918 160.523C89.3418 160.951 88.7529 161.531 88.3252 162.264C87.9033 162.996 87.6924 163.799 87.6924 164.672C87.6924 165.422 87.8301 166.107 88.1055 166.729C88.3809 167.344 88.75 167.851 89.2129 168.249C89.6816 168.647 90.2119 168.958 90.8037 169.181C91.4014 169.397 92.0254 169.506 92.6758 169.506C93.3379 169.506 93.9883 169.368 94.627 169.093V169.734C93.959 169.986 93.3027 170.112 92.6582 170.112C91.6445 170.112 90.7129 169.884 89.8633 169.427C89.0137 168.97 88.334 168.322 87.8242 167.484C87.3145 166.646 87.0596 165.709 87.0596 164.672C87.0596 163.934 87.2002 163.23 87.4814 162.562C87.7686 161.895 88.1553 161.317 88.6416 160.831C89.1279 160.345 89.7139 159.958 90.3994 159.671C91.085 159.384 91.8115 159.24 92.5791 159.24C93.6514 159.24 94.6182 159.469 95.4795 159.926C96.3467 160.383 97.0293 161.033 97.5273 161.877C98.0254 162.721 98.2744 163.682 98.2744 164.76ZM99.54 164.76V171H98.9072V164.76C98.9072 163.564 98.6289 162.498 98.0723 161.561C97.5156 160.617 96.7568 159.891 95.7959 159.381C94.835 158.865 93.7627 158.607 92.5791 158.607C91.4424 158.607 90.4023 158.88 89.459 159.425C88.5156 159.97 87.7744 160.708 87.2354 161.64C86.6963 162.565 86.4268 163.576 86.4268 164.672C86.4268 165.393 86.541 166.078 86.7695 166.729C87.0039 167.373 87.3203 167.938 87.7188 168.425C88.123 168.905 88.5859 169.321 89.1074 169.673C89.6348 170.024 90.2002 170.291 90.8037 170.473C91.4131 170.654 92.0312 170.745 92.6582 170.745C93.3496 170.745 94.0059 170.613 94.627 170.35V171C93.9766 171.229 93.3086 171.343 92.623 171.343C91.9141 171.343 91.2227 171.243 90.5488 171.044C89.8809 170.845 89.2598 170.552 88.6855 170.165C88.1172 169.772 87.6162 169.312 87.1826 168.785C86.749 168.252 86.4092 167.631 86.1631 166.922C85.917 166.213 85.7939 165.463 85.7939 164.672C85.7939 163.764 85.9639 162.899 86.3037 162.079C86.6494 161.253 87.1182 160.541 87.71 159.943C88.3076 159.34 89.0283 158.862 89.8721 158.511C90.7217 158.153 91.624 157.975 92.5791 157.975C93.5518 157.975 94.4658 158.139 95.3213 158.467C96.1768 158.795 96.915 159.252 97.5361 159.838C98.1572 160.418 98.6465 161.133 99.0039 161.982C99.3613 162.832 99.54 163.758 99.54 164.76ZM113.585 166.931C113.708 166.937 113.857 166.939 114.033 166.939C114.209 166.939 114.355 166.937 114.473 166.931C114.596 166.919 114.722 166.896 114.851 166.86C114.979 166.819 115.082 166.767 115.158 166.702C115.234 166.638 115.296 166.547 115.343 166.43C115.396 166.307 115.422 166.16 115.422 165.99V158.344H116.055V165.99C116.055 167.045 115.381 167.572 114.033 167.572C113.354 167.572 112.85 167.443 112.521 167.186C112.475 167.414 112.419 167.616 112.354 167.792C112.8 168.067 113.359 168.205 114.033 168.205C114.818 168.205 115.457 168.023 115.949 167.66C116.441 167.291 116.688 166.734 116.688 165.99V158.344H117.32V165.99C117.32 166.91 117.01 167.616 116.389 168.108C115.773 168.595 114.988 168.838 114.033 168.838C113.289 168.838 112.65 168.686 112.117 168.381C112.029 168.568 111.927 168.747 111.81 168.917C112.448 169.286 113.189 169.471 114.033 169.471C114.578 169.471 115.085 169.395 115.554 169.242C116.028 169.09 116.444 168.87 116.802 168.583C117.159 168.296 117.44 167.93 117.646 167.484C117.851 167.039 117.953 166.541 117.953 165.99V158.344H118.586V165.99C118.586 166.834 118.378 167.572 117.962 168.205C117.552 168.838 117.004 169.312 116.318 169.629C115.639 169.945 114.877 170.104 114.033 170.104C113.049 170.104 112.182 169.878 111.432 169.427C111.268 169.614 111.118 169.767 110.983 169.884C111.856 170.452 112.873 170.736 114.033 170.736C114.988 170.736 115.855 170.549 116.635 170.174C117.414 169.799 118.038 169.248 118.507 168.521C118.981 167.789 119.219 166.945 119.219 165.99V158.344H119.852V165.99C119.852 166.799 119.696 167.543 119.386 168.223C119.081 168.902 118.665 169.471 118.138 169.928C117.616 170.385 117.001 170.739 116.292 170.991C115.583 171.243 114.83 171.369 114.033 171.369C112.639 171.369 111.446 171.012 110.456 170.297C109.431 171.012 108.221 171.369 106.826 171.369C106.029 171.369 105.276 171.243 104.567 170.991C103.858 170.739 103.24 170.385 102.713 169.928C102.191 169.471 101.775 168.902 101.465 168.223C101.16 167.543 101.008 166.799 101.008 165.99V158.344H101.641V165.99C101.641 166.711 101.775 167.373 102.045 167.977C102.32 168.58 102.692 169.081 103.161 169.479C103.63 169.878 104.178 170.188 104.805 170.411C105.438 170.628 106.111 170.736 106.826 170.736C107.758 170.736 108.622 170.525 109.419 170.104C110.216 169.676 110.846 169.099 111.309 168.372C111.777 167.64 112.012 166.846 112.012 165.99V158.344H112.645V165.99C112.645 166.16 112.668 166.307 112.715 166.43C112.768 166.547 112.832 166.638 112.908 166.702C112.984 166.767 113.087 166.819 113.216 166.86C113.345 166.896 113.468 166.919 113.585 166.931ZM108.848 158.344V165.99C108.848 167.045 108.174 167.572 106.826 167.572C105.479 167.572 104.805 167.045 104.805 165.99V158.344H105.438V165.99C105.438 166.16 105.461 166.307 105.508 166.43C105.561 166.547 105.625 166.638 105.701 166.702C105.777 166.767 105.88 166.819 106.009 166.86C106.138 166.896 106.261 166.919 106.378 166.931C106.501 166.937 106.65 166.939 106.826 166.939C107.002 166.939 107.148 166.937 107.266 166.931C107.389 166.919 107.515 166.896 107.644 166.86C107.772 166.819 107.875 166.767 107.951 166.702C108.027 166.638 108.089 166.547 108.136 166.43C108.188 166.307 108.215 166.16 108.215 165.99V158.344H108.848ZM110.113 158.344V165.99C110.113 166.91 109.803 167.616 109.182 168.108C108.566 168.595 107.781 168.838 106.826 168.838C105.871 168.838 105.083 168.595 104.462 168.108C103.847 167.616 103.539 166.91 103.539 165.99V158.344H104.172V165.99C104.172 166.734 104.418 167.291 104.91 167.66C105.402 168.023 106.041 168.205 106.826 168.205C107.611 168.205 108.25 168.023 108.742 167.66C109.234 167.291 109.48 166.734 109.48 165.99V158.344H110.113ZM111.379 158.344V165.99C111.379 166.834 111.171 167.572 110.755 168.205C110.345 168.838 109.797 169.312 109.111 169.629C108.432 169.945 107.67 170.104 106.826 170.104C105.982 170.104 105.218 169.945 104.532 169.629C103.853 169.312 103.305 168.838 102.889 168.205C102.479 167.572 102.273 166.834 102.273 165.99V158.344H102.906V165.99C102.906 166.541 103.009 167.039 103.214 167.484C103.419 167.93 103.7 168.296 104.058 168.583C104.415 168.87 104.828 169.09 105.297 169.242C105.771 169.395 106.281 169.471 106.826 169.471C107.371 169.471 107.878 169.395 108.347 169.242C108.821 169.09 109.237 168.87 109.595 168.583C109.952 168.296 110.233 167.93 110.438 167.484C110.644 167.039 110.746 166.541 110.746 165.99V158.344H111.379ZM127.261 164.979H126.259C125.028 164.979 124.082 164.73 123.42 164.232C122.758 163.729 122.427 163.037 122.427 162.158C122.427 161.338 122.816 160.655 123.596 160.11C124.375 159.56 125.468 159.284 126.874 159.284C127.812 159.284 128.685 159.413 129.493 159.671C130.308 159.929 130.984 160.292 131.523 160.761L131.031 161.156C130.551 160.764 129.947 160.459 129.221 160.242C128.494 160.025 127.712 159.917 126.874 159.917C125.638 159.917 124.691 160.128 124.035 160.55C123.385 160.972 123.06 161.508 123.06 162.158C123.06 162.861 123.326 163.403 123.859 163.784C124.398 164.159 125.198 164.347 126.259 164.347H127.226C128.474 164.347 129.429 164.599 130.091 165.103C130.759 165.601 131.093 166.289 131.093 167.168C131.093 167.988 130.703 168.674 129.924 169.225C129.145 169.77 128.052 170.042 126.646 170.042C125.708 170.042 124.832 169.913 124.018 169.655C123.209 169.397 122.535 169.034 121.996 168.565L122.488 168.17C122.969 168.562 123.572 168.867 124.299 169.084C125.025 169.301 125.808 169.409 126.646 169.409C127.882 169.409 128.825 169.198 129.476 168.776C130.132 168.354 130.46 167.818 130.46 167.168C130.46 166.465 130.19 165.926 129.651 165.551C129.118 165.17 128.321 164.979 127.261 164.979ZM127.261 166.245H126.259C124.63 166.245 123.373 165.876 122.488 165.138C121.604 164.394 121.161 163.4 121.161 162.158C121.161 161.59 121.287 161.057 121.539 160.559C121.791 160.061 122.151 159.624 122.62 159.249C123.095 158.868 123.698 158.569 124.431 158.353C125.163 158.13 125.978 158.019 126.874 158.019C128.005 158.019 129.062 158.191 130.047 158.537C131.031 158.877 131.852 159.354 132.508 159.97L131.998 160.348C131.4 159.809 130.653 159.393 129.757 159.1C128.86 158.801 127.899 158.651 126.874 158.651C125.292 158.651 124.05 158.985 123.147 159.653C122.245 160.321 121.794 161.156 121.794 162.158C121.794 163.219 122.181 164.06 122.954 164.681C123.728 165.302 124.829 165.612 126.259 165.612H127.226C128.96 165.612 129.827 166.131 129.827 167.168C129.827 167.637 129.561 168.023 129.027 168.328C128.5 168.627 127.706 168.776 126.646 168.776C125.901 168.776 125.21 168.691 124.571 168.521C123.933 168.346 123.405 168.097 122.989 167.774L123.49 167.388C124.223 167.892 125.274 168.144 126.646 168.144C127.524 168.144 128.169 168.053 128.579 167.871C128.989 167.689 129.194 167.455 129.194 167.168C129.194 166.834 129.051 166.597 128.764 166.456C128.477 166.315 127.976 166.245 127.261 166.245ZM127.261 163.714H126.259C124.548 163.714 123.692 163.195 123.692 162.158C123.692 161.689 123.956 161.306 124.483 161.007C125.017 160.702 125.813 160.55 126.874 160.55C127.618 160.55 128.31 160.638 128.948 160.813C129.587 160.983 130.114 161.229 130.53 161.552L130.029 161.938C129.297 161.435 128.245 161.183 126.874 161.183C125.995 161.183 125.351 161.273 124.94 161.455C124.53 161.637 124.325 161.871 124.325 162.158C124.325 162.492 124.469 162.729 124.756 162.87C125.043 163.011 125.544 163.081 126.259 163.081H127.261C128.89 163.081 130.146 163.453 131.031 164.197C131.916 164.936 132.358 165.926 132.358 167.168C132.358 167.736 132.232 168.27 131.98 168.768C131.729 169.266 131.365 169.705 130.891 170.086C130.422 170.461 129.821 170.76 129.089 170.982C128.356 171.199 127.542 171.308 126.646 171.308C125.515 171.308 124.457 171.138 123.473 170.798C122.488 170.452 121.668 169.972 121.012 169.356L121.521 168.979C122.119 169.518 122.866 169.937 123.763 170.235C124.659 170.528 125.62 170.675 126.646 170.675C128.228 170.675 129.47 170.341 130.372 169.673C131.274 169.005 131.726 168.17 131.726 167.168C131.726 166.107 131.339 165.267 130.565 164.646C129.792 164.024 128.69 163.714 127.261 163.714Z" fill="#356879"/>
</svg>
