<svg version="1.1" viewBox="0.0 0.0 270.8267716535433 205.2257217847769" fill="none" stroke="none" stroke-linecap="square" stroke-miterlimit="10" xmlns:xlink="http://www.w3.org/1999/xlink" xmlns="http://www.w3.org/2000/svg"><clipPath id="p.0"><path d="m0 0l270.82678 0l0 205.22572l-270.82678 0l0 -205.22572z" clip-rule="nonzero"/></clipPath><g clip-path="url(#p.0)"><path fill="#000000" fill-opacity="0.0" d="m0 0l270.82678 0l0 205.22572l-270.82678 0z" fill-rule="evenodd"/><path fill="#ffffff" d="m12.476535 196.5533l25.190071 -48.4339l0 0c-43.507416 -32.896675 -42.408054 -82.44542 2.5397873 -114.46983c44.94784 -32.024414 119.034164 -36.04392 171.1577 -9.286049c52.12352 26.75787 65.225876 75.53611 30.269684 112.68978c-34.956207 37.15367 -106.530914 50.52356 -165.35526 30.887726z" fill-rule="evenodd"/><path stroke="#545b7b" stroke-width="8.0" stroke-linejoin="round" stroke-linecap="butt" d="m12.476535 196.5533l25.190071 -48.4339l0 0c-43.507416 -32.896675 -42.408054 -82.44542 2.5397873 -114.46983c44.94784 -32.024414 119.034164 -36.04392 171.1577 -9.286049c52.12352 26.75787 65.225876 75.53611 30.269684 112.68978c-34.956207 37.15367 -106.530914 50.52356 -165.35526 30.887726z" fill-rule="evenodd"/><path fill="#000000" fill-opacity="0.0" d="m21.71916 28.963255l251.2126 0l0 85.637794l-251.2126 0z" fill-rule="evenodd"/><path fill="#545b7b" d="m30.71916 77.787q0 -0.578125 0.15625 -1.0625q0.15625 -0.484375 0.0625 -1.21875q1.6562519 -3.53125 3.750002 -6.546875q2.109375 -3.015625 5.046875 -5.3125q0.484375 -0.375 0.78125 -0.765625q0.296875 -0.40625 0.578125 -0.78125q0.296875 -0.375 0.671875 -0.65625q0.375 -0.296875 0.96875 -0.40625q1.328125 -1.546875 3.1875 -2.828125q1.875 -1.28125 3.90625 -2.453125q2.03125 -1.1875 4.078125 -2.40625q2.0625 -1.234375 3.71875 -2.671875q0.578125 0.375 0.921875 0.25q0.359375 -0.140625 0.734375 -0.03125q0.46875 1.015625 1.234375 1.421875q0.78125 0.390625 1.609375 0.796875q0.828125 0.390625 1.546875 0.953125q0.734375 0.5625 1.09375 1.515625q-0.359375 0 -0.34375 0.28125q0.03125 0.265625 0.140625 0.578125q0.109375 0.3125 0.109375 0.59375q0 0.265625 -0.484375 0.265625q0 0.375 0.375 0.375q0.375 0 0.375 0.359375q0 0.328125 -0.140625 0.515625q-0.125 0.1875 -0.03125 0.609375q-1.28125 0.859375 -2.859375 1.640625q-1.5625 0.765625 -3.296875 1.625q-1.734375 0.84375 -3.53125 1.84375q-1.78125 0.984375 -3.546875 2.265625q-1.75 1.28125 -3.546875 2.828125q-1.78125 1.546875 -3.4375 3.28125q-1.65625 1.734375 -3.109375 3.578125q-1.4375 1.828125 -2.453125 3.59375q0.109375 0.265625 0.296875 0.484375q0.1875 0.21875 0.296875 0.484375q2.03125 0.109375 3.78125 -0.03125q1.765625 -0.140625 3.53125 0.234375q0.21875 -0.15625 0.265625 -0.421875q0.0625 -0.265625 0.328125 -0.375q3.625 -0.375 6.765625 -1.203125q3.15625 -0.828125 6.40625 -1.671875q-0.953125 -0.375 -1.703125 -0.59375q-0.3125 -0.3125 0.03125 -0.546875q0.34375 -0.25 0.5625 -0.515625q-0.859375 -0.484375 -1.421875 -1.28125q-0.5625 -0.796875 -0.671875 -2.078125q0.375 -0.328125 0.375 -0.75q0 -0.4375 -0.375 -0.703125q-0.265625 -0.109375 -0.3125 0q-0.046875 0.109375 -0.078125 0.21875q-0.03125 0.109375 -0.109375 0.21875q-0.078125 0.09375 -0.296875 0q0.0625 -0.59375 0.265625 -0.96875q0.21875 -0.375 0.328125 -0.90625l4.421875 -2.9375q0.703125 0.53125 1.71875 1.125q1.015625 0.59375 2.125 1.1875q1.125 0.578125 2.296875 1.1875q1.171875 0.609375 2.1875 1.203125q0.96875 0.421875 1.65625 1.046875q0.6875 0.609375 1.328125 1.28125q0.640625 0.65625 1.28125 1.296875q0.640625 0.640625 1.5625 1.0625q-0.109375 0.859375 0.09375 1.390625q0.21875 0.53125 0.109375 1.28125q-1.015625 1.8125 -2.453125 3.078125q-1.4375 1.25 -3.234375 2.15625q-1.78125 0.90625 -3.8125 1.53125q-2.03125 0.609375 -4.171875 1.171875q-2.125 0.546875 -4.296875 1.171875q-2.15625 0.609375 -4.234375 1.40625q-0.90625 0 -1.546875 0.0625q-0.640625 0.046875 -1.234375 0.15625q-0.578125 0.109375 -1.171875 0.21875q-0.578125 0.09375 -1.28125 0.15625q-0.265625 -0.0625 -0.34375 0.109375q-0.078125 0.15625 -0.234375 0.265625q-1.078125 0.15625 -1.9375 0.15625q-0.84375 0 -1.421875 0q-0.75 0 -1.5625 0.21875q-0.796875 0.203125 -1.484375 0.15625q-4.8125 -0.21875 -7.53125 -3.421875q-2.718752 -3.203125 -2.984377 -8.796875q0.046875 -0.28125 -0.109375 -0.359375q-0.15625 -0.078125 -0.265625 -0.1875zm51.71704 8.921875q0.265625 1.59375 -0.1875 2.515625q-0.453125 0.90625 -1.28125 1.359375q-0.828125 0.453125 -1.890625 0.5q-1.0625 0.046875 -2.03125 -0.109375q-0.53125 -0.75 -0.96875 -1.859375q-0.421875 -1.125 -0.796875 -2.328125q-0.359375 -1.203125 -0.65625 -2.375q-0.296875 -1.171875 -0.515625 -2.078125q0.265625 -0.640625 0.34375 -1.46875q0.09375 -0.828125 0.109375 -1.671875q0.03125 -0.859375 0.046875 -1.734375q0.03125 -0.890625 0.140625 -1.6875q0.375 -2.25 1.09375 -4.265625q0.71875 -2.03125 1.15625 -4.234375q0.109375 -0.46875 -0.078125 -0.890625q-0.1875 -0.4375 -0.078125 -0.8125q0.046875 -0.21875 0.3125 -0.296875q0.265625 -0.078125 0.328125 -0.34375q0.15625 -0.578125 0.078125 -0.953125q-0.078125 -0.375 0.1875 -0.90625q0.265625 -0.4375 0.65625 -1.265625q0.40625 -0.828125 0.296875 -1.734375q0.484375 -0.3125 0.90625 -0.734375q0.421875 -0.4375 0.875 -0.78125q0.46875 -0.34375 1.015625 -0.609375q0.5625 -0.265625 1.375 -0.265625q0.421875 0.53125 0.546875 1.171875q0.140625 0.640625 0.265625 1.28125q0.140625 0.640625 0.40625 1.203125q0.265625 0.546875 0.90625 0.875q0 0.421875 0 1.0625q0 0.640625 0.046875 1.265625q0.0625 0.609375 0.25 1.125q0.1875 0.5 0.609375 0.65625q-0.953125 2.5625 -1.78125 5.078125q-0.828125 2.5 -1.359375 5.046875q-0.53125 2.53125 -0.671875 5.09375q-0.140625 2.546875 0.34375 5.171875zm7.053955 -20.28125q0.375 -1.125 1.1875 -1.921875q0.828125 -0.796875 1.8125 -1.359375q1.0 -0.5625 2.0625 -0.9375q1.0625 -0.375 2.03125 -0.640625q2.140625 -0.90625 4.5625 -1.734375q2.421875 -0.828125 4.953125 -1.46875q2.546875 -0.640625 5.21875 -0.828125q2.671875 -0.1875 5.59375 0.671875q0.171875 0.53125 0.484375 1.015625q0.328125 0.46875 0.671875 0.953125q0.34375 0.484375 0.609375 0.9375q0.265625 0.453125 0.328125 0.9375q0.53125 0.46875 0.84375 1.03125q0.328125 0.5625 0.109375 1.46875q-0.53125 0.4375 -1.046875 0.78125q-0.5 0.34375 -1.078125 0.609375q-1.984375 -0.484375 -4.015625 -0.3125q-2.015625 0.15625 -3.625 0.265625q-0.484375 -0.484375 -1.15625 -0.484375q-0.65625 0 -1.375 0.21875q-0.71875 0.203125 -1.453125 0.421875q-0.71875 0.21875 -1.359375 0.109375q-0.53125 0.421875 -1.3125 0.5625q-0.765625 0.125 -1.671875 0.234375q-0.046875 0.265625 0.109375 0.34375q0.15625 0.078125 0.046875 0.34375q0.328125 0.375 0.828125 0.546875q0.515625 0.15625 1.078125 0.3125q0.5625 0.15625 0.984375 0.40625q0.421875 0.234375 0.578125 0.765625q0.8125 0 1.390625 0.375q0.59375 0.375 0.96875 0.90625q0.375 0.53125 0.5625 1.15625q0.1875 0.609375 0.1875 1.09375q0.15625 0.421875 0.359375 0.375q0.21875 -0.0625 0.484375 0.203125q0.15625 0.703125 0.796875 1.421875q0.640625 0.71875 1.015625 1.5625q0.109375 1.34375 0.15625 2.390625q0.0625 1.03125 -0.359375 2.09375q-0.8125 1.984375 -2.234375 3.53125q-1.40625 1.546875 -3.1875 2.75q-1.78125 1.203125 -3.8125 2.0625q-2.03125 0.84375 -3.953125 1.4375q-0.21875 -0.0625 -0.4375 -0.015625q-0.203125 0.0625 -0.09375 -0.265625q-0.4375 0.375 -0.9375 0.484375q-0.5 0.109375 -1.09375 0.078125q-0.59375 -0.015625 -1.203125 -0.078125q-0.609375 -0.046875 -1.140625 0.0625q-0.375 -0.375 -0.671875 -0.734375q-0.296875 -0.34375 -0.453125 -0.875q-0.265625 0 -0.25 -0.265625q0.03125 -0.265625 -0.171875 -0.265625q0.3125 -0.53125 0.28125 -0.609375q-0.015625 -0.078125 -0.15625 -0.125q-0.125 -0.0625 -0.234375 -0.140625q-0.109375 -0.078125 -0.0625 -0.25q0.21875 -0.421875 0.15625 -0.984375q-0.046875 -0.5625 -0.109375 -1.140625q-0.046875 -0.59375 0.078125 -1.125q0.140625 -0.53125 0.78125 -0.859375q1.828125 0.21875 3.453125 -0.125q1.625 -0.34375 3.0625 -0.984375q1.4375 -0.640625 2.75 -1.390625q1.3125 -0.75 2.59375 -1.34375q0.15625 -0.46875 0.453125 -0.78125q0.296875 -0.328125 0.609375 -0.59375q0.328125 -0.28125 0.59375 -0.59375q0.265625 -0.328125 0.375 -0.796875q0.046875 -0.375 -0.203125 -0.453125q-0.234375 -0.09375 -0.234375 -0.40625l-0.578125 -0.15625q-1.015625 -0.59375 -2.296875 -0.984375q-1.28125 -0.40625 -2.1875 -0.890625q-0.59375 0.328125 -1.109375 0.171875q-0.5 -0.171875 -1.296875 -0.328125q-1.8125 -0.109375 -3.5 -0.375q-1.671875 -0.265625 -3.21875 -0.953125q-0.109375 -0.28125 -0.28125 -0.484375q-0.15625 -0.21875 -0.578125 -0.109375q-0.328125 -0.421875 -0.65625 -0.828125q-0.3125 -0.40625 -0.578125 -0.875q0.109375 -0.640625 0.15625 -1.09375q0.0625 -0.453125 -0.3125 -0.890625q0.21875 -0.6875 0.3125 -1.109375q0.109375 -0.4375 0.015625 -1.125zm25.353241 0q0.375 -1.125 1.1875 -1.921875q0.828125 -0.796875 1.8125 -1.359375q1.0 -0.5625 2.0625 -0.9375q1.0625 -0.375 2.03125 -0.640625q2.140625 -0.90625 4.5625 -1.734375q2.421875 -0.828125 4.953125 -1.46875q2.546875 -0.640625 5.21875 -0.828125q2.671875 -0.1875 5.59375 0.671875q0.171875 0.53125 0.484375 1.015625q0.328125 0.46875 0.671875 0.953125q0.34375 0.484375 0.609375 0.9375q0.265625 0.453125 0.328125 0.9375q0.53125 0.46875 0.84375 1.03125q0.328125 0.5625 0.109375 1.46875q-0.53125 0.4375 -1.046875 0.78125q-0.5 0.34375 -1.078125 0.609375q-1.984375 -0.484375 -4.015625 -0.3125q-2.015625 0.15625 -3.625 0.265625q-0.484375 -0.484375 -1.15625 -0.484375q-0.65625 0 -1.375 0.21875q-0.71875 0.203125 -1.453125 0.421875q-0.71875 0.21875 -1.359375 0.109375q-0.53125 0.421875 -1.3125 0.5625q-0.765625 0.125 -1.671875 0.234375q-0.046875 0.265625 0.109375 0.34375q0.15625 0.078125 0.046875 0.34375q0.328125 0.375 0.828125 0.546875q0.515625 0.15625 1.078125 0.3125q0.5625 0.15625 0.984375 0.40625q0.421875 0.234375 0.578125 0.765625q0.8125 0 1.390625 0.375q0.59375 0.375 0.96875 0.90625q0.375 0.53125 0.5625 1.15625q0.1875 0.609375 0.1875 1.09375q0.15625 0.421875 0.359375 0.375q0.21875 -0.0625 0.484375 0.203125q0.15625 0.703125 0.796875 1.421875q0.640625 0.71875 1.015625 1.5625q0.109375 1.34375 0.15625 2.390625q0.0625 1.03125 -0.359375 2.09375q-0.8125 1.984375 -2.234375 3.53125q-1.40625 1.546875 -3.1875 2.75q-1.78125 1.203125 -3.8125 2.0625q-2.03125 0.84375 -3.953125 1.4375q-0.21875 -0.0625 -0.4375 -0.015625q-0.203125 0.0625 -0.09375 -0.265625q-0.4375 0.375 -0.9375 0.484375q-0.5 0.109375 -1.09375 0.078125q-0.59375 -0.015625 -1.203125 -0.078125q-0.609375 -0.046875 -1.140625 0.0625q-0.375 -0.375 -0.671875 -0.734375q-0.296875 -0.34375 -0.453125 -0.875q-0.265625 0 -0.25 -0.265625q0.03125 -0.265625 -0.171875 -0.265625q0.3125 -0.53125 0.28125 -0.609375q-0.015625 -0.078125 -0.15625 -0.125q-0.125 -0.0625 -0.234375 -0.140625q-0.109375 -0.078125 -0.0625 -0.25q0.21875 -0.421875 0.15625 -0.984375q-0.046875 -0.5625 -0.109375 -1.140625q-0.046875 -0.59375 0.078125 -1.125q0.140625 -0.53125 0.78125 -0.859375q1.828125 0.21875 3.453125 -0.125q1.625 -0.34375 3.0625 -0.984375q1.4375 -0.640625 2.75 -1.390625q1.3125 -0.75 2.59375 -1.34375q0.15625 -0.46875 0.453125 -0.78125q0.296875 -0.328125 0.609375 -0.59375q0.328125 -0.28125 0.59375 -0.59375q0.265625 -0.328125 0.375 -0.796875q0.046875 -0.375 -0.203125 -0.453125q-0.234375 -0.09375 -0.234375 -0.40625l-0.578125 -0.15625q-1.015625 -0.59375 -2.296875 -0.984375q-1.28125 -0.40625 -2.1875 -0.890625q-0.59375 0.328125 -1.109375 0.171875q-0.5 -0.171875 -1.296875 -0.328125q-1.8125 -0.109375 -3.5 -0.375q-1.671875 -0.265625 -3.21875 -0.953125q-0.109375 -0.28125 -0.28125 -0.484375q-0.15625 -0.21875 -0.578125 -0.109375q-0.328125 -0.421875 -0.65625 -0.828125q-0.3125 -0.40625 -0.578125 -0.875q0.109375 -0.640625 0.15625 -1.09375q0.0625 -0.453125 -0.3125 -0.890625q0.21875 -0.6875 0.3125 -1.109375q0.109375 -0.4375 0.015625 -1.125zm52.72824 19.53125q-0.3125 0.90625 -0.9375 1.84375q-0.609375 0.9375 -1.4375 1.65625q-0.828125 0.71875 -1.84375 1.1875q-1.015625 0.484375 -2.125 0.546875q-0.703125 -0.15625 -0.953125 -0.34375q-0.234375 -0.1875 -0.5 -0.359375q-0.15625 -0.09375 -0.296875 -0.171875q-0.125 -0.09375 -0.234375 -0.140625l-0.640625 -0.265625l0.21875 -0.703125q0.109375 -0.421875 -0.0625 -0.65625q-0.15625 -0.25 -0.640625 -0.671875q-0.15625 -0.15625 -0.3125 -0.3125q-0.15625 -0.171875 -0.265625 -0.328125l-0.90625 -1.015625l1.4375 -0.375q1.328125 -0.375 1.78125 -0.953125q0.453125 -0.59375 0.359375 -1.984375q-1.078125 -0.203125 -1.796875 -0.046875q-0.71875 0.15625 -1.46875 0.375q-0.953125 0.265625 -1.953125 0.453125q-0.984375 0.1875 -2.15625 0.1875q-0.421875 0 -0.796875 -0.03125q-0.375 -0.03125 -0.796875 -0.078125l-0.53125 -0.109375q-0.109375 -0.578125 -0.21875 -0.65625q-0.109375 -0.09375 -0.21875 -0.1875q-0.265625 -0.28125 -0.5625 -0.734375q-0.28125 -0.453125 -0.125 -1.140625q-0.265625 -0.484375 -0.328125 -0.96875q-0.3125 0.640625 -0.46875 1.34375l-0.21875 0.53125l-0.53125 0.109375q-0.109375 0.046875 -0.171875 0.234375q-0.046875 0.1875 -0.046875 0.296875l-0.265625 0.90625q-0.109375 0.109375 -0.21875 0.1875q-0.09375 0.078125 -0.203125 0.1875q-0.109375 0.484375 -0.28125 0.96875q-0.15625 0.46875 -0.3125 0.90625q-0.265625 0.6875 -0.453125 1.359375q-0.1875 0.65625 -0.125 1.296875l-0.21875 0.59375q-0.265625 0.3125 -0.59375 0.5q-0.3125 0.1875 -0.640625 0.359375q-0.09375 0.09375 -0.28125 0.1875q-0.1875 0.078125 -0.296875 0.125l-0.15625 0.59375l-0.640625 0.09375q-0.59375 0.109375 -0.84375 0.15625q-0.234375 0.0625 -0.546875 0.0625l-0.53125 -0.046875q-0.59375 -0.484375 -0.921875 -0.78125q-0.3125 -0.296875 -0.734375 -0.5625q-0.484375 -0.640625 -0.53125 -0.953125q-0.0625 -0.328125 -0.109375 -0.59375q-0.109375 -0.3125 -0.140625 -0.53125q-0.03125 -0.21875 -0.125 -0.3125l-0.703125 -0.640625l0.59375 -0.484375l0.046875 -0.90625q1.0625 -2.71875 2.265625 -5.234375q1.203125 -2.515625 2.484375 -5.125q0.4375 -0.859375 0.828125 -1.703125q0.40625 -0.859375 0.828125 -1.71875q-0.046875 -0.15625 -0.046875 -0.359375q0 -0.21875 0.109375 -0.484375q0.578125 -0.90625 0.953125 -1.625q0.375 -0.71875 0.75 -1.46875q0.421875 -0.90625 0.875 -1.765625q0.453125 -0.859375 1.15625 -1.765625l0.84375 -0.375q0.171875 -0.046875 0.375 -0.125q0.21875 -0.078125 0.484375 -0.078125l0.796875 0.09375q1.5 -0.6875 2.609375 -1.9375q1.125 -1.25 2.296875 -3.015625l0.546875 -0.75l0.6875 0.421875q0.265625 0.171875 0.75 0.3125q0.484375 0.125 1.015625 0.28125q0.953125 0.21875 1.8125 0.484375q0.859375 0.265625 1.390625 0.796875q0.3125 0.859375 0.359375 1.28125q0.0625 0.421875 0.171875 0.859375q0.15625 0.90625 0.28125 1.8125q0.140625 0.90625 0.203125 2.015625q0.265625 0.921875 0.453125 1.796875q0.1875 0.875 0.34375 1.78125q0.265625 1.28125 0.53125 2.484375q0.265625 1.203125 0.6875 2.265625q0.4375 0 0.546875 0.0625q0.265625 -0.109375 0.546875 -0.15625q0.296875 -0.0625 0.671875 -0.109375l0.59375 -0.0625l0.203125 0.53125q0.0625 0.28125 0.546875 0.546875q0.6875 0.046875 1.0 0.296875q0.328125 0.234375 0.59375 0.5q0.21875 0.21875 0.421875 0.3125l0.8125 0.328125l-0.4375 0.796875q-0.53125 0.96875 -1.515625 1.84375q-0.984375 0.875 -2.21875 1.46875q0.0625 0.3125 0.078125 0.609375q0.03125 0.296875 0.140625 0.609375q0.15625 0.921875 0.265625 1.875q0.109375 0.953125 0 1.96875l-0.109375 0.21875zm-15.421875 -9.234375q1.59375 -0.109375 2.90625 -0.234375q1.3125 -0.140625 2.90625 -0.453125q-0.375 -1.609375 -0.796875 -3.34375q-0.421875 -1.734375 -0.90625 -3.4375l-0.328125 0.53125q-1.0625 1.125 -2.046875 2.515625q-0.984375 1.375 -1.6875 2.609375q-0.3125 0.484375 -0.640625 0.96875q-0.3125 0.46875 -0.578125 0.953125q0.3125 -0.0625 0.609375 -0.0625q0.296875 0 0.5625 -0.046875z" fill-rule="nonzero"/><path fill="#000000" fill-opacity="0.0" d="m44.440945 65.96588l209.16534 0l0 85.63779l-209.16534 0z" fill-rule="evenodd"/><path fill="#545b7b" d="m79.75345 113.03963q-0.046875 0.265625 -0.109375 0.453125q-0.046875 0.1875 -0.109375 0.34375q-0.046875 0.15625 -0.046875 0.40625q0 0.234375 0 0.609375q-1.59375 2.828125 -4.03125 4.75q-2.421875 1.921875 -5.34375 3.390625q-2.90625 1.46875 -6.0625 2.671875q-3.1406288 1.1875 -6.125004 2.578125q-1.28125 -0.3125 -1.953125 -1.0625q-0.65625 -0.75 -1.015625 -1.734375q-0.34375 -0.984375 -0.484375 -2.1875q-0.125 -1.203125 -0.234375 -2.484375q0.15625 -0.59375 0.453125 -0.984375q0.296875 -0.40625 0.296875 -1.15625q0.421875 -1.375 0.84375 -2.703125q0.4375 -1.34375 0.546875 -2.734375q0.15625 -0.421875 0.578125 -0.59375q0.28125 -2.5625 0.03125 -5.203125q-0.234375 -2.640625 -0.875 -4.9375q0.046875 -0.53125 0.125 -0.765625q0.078125 -0.25 -0.015625 -0.34375q-0.0625 -0.4375 0.28125 -0.4375q0.359375 0 0.734375 0q0 -0.796875 -0.296875 -1.59375q-0.296875 -0.796875 -0.5625 -1.8125q0.375 -0.8125 0.46875 -1.578125q0.109375 -0.78125 0.484375 -1.359375q2.890625 0.90625 5.53125 2.1875q2.6406288 1.28125 5.203129 1.859375q1.921875 1.390625 3.953125 2.75q2.03125 1.359375 3.671875 3.0q1.65625 1.625 2.78125 3.703125q1.125 2.078125 1.28125 4.96875zm-12.640625 2.9375q1.109375 -0.4375 2.203125 -0.90625q1.09375 -0.484375 2.03125 -1.09375q0.9375 -0.625 1.6875 -1.421875q0.75 -0.796875 1.21875 -1.921875q-0.3125 -0.640625 -0.859375 -1.140625q-0.53125 -0.515625 -1.0625 -0.96875q-0.53125 -0.453125 -1.046875 -0.9375q-0.5 -0.484375 -0.8125 -1.171875q-0.703125 -0.109375 -1.234375 -0.390625q-0.53125 -0.296875 -1.046875 -0.59375q-0.5 -0.296875 -1.0625 -0.5625q-0.5625 -0.265625 -1.296875 -0.3125q-1.1875 -0.59375 -2.1250038 -0.859375q-0.921875 -0.265625 -1.40625 -0.703125q-0.375 0 -0.59375 0.171875q0.546875 2.03125 0.8125 3.8125q0.265625 1.78125 0.28125 3.578125q0.03125 1.78125 -0.1875 3.65625q-0.203125 1.859375 -0.578125 4.046875q0.53125 -0.046875 0.984375 -0.234375q0.453125 -0.1875 0.90625 -0.390625q0.4531288 -0.21875 0.9531288 -0.40625q0.515625 -0.1875 1.21875 -0.25q0.15625 -0.3125 0.4375 -0.515625q0.296875 -0.21875 0.578125 -0.484375zm34.94664 -13.296875q-0.09375 1.390625 -0.3125 2.453125q-0.21875 1.0625 -0.59375 2.25q-0.90625 4.3125 -2.109375 8.21875q-1.203125 3.890625 -2.75 6.984375q-1.375 1.546875 -2.6875 2.734375q-1.3125 1.171875 -2.90625 1.640625q-0.796875 0.109375 -1.421875 0.25q-0.609375 0.125 -1.203125 0.28125q-0.265625 0.0625 -0.5625 0.109375q-0.28125 0.0625 -0.546875 0.15625q-0.8125 -0.15625 -1.53125 -0.234375q-0.71875 -0.078125 -1.296875 -0.078125l-0.703125 -0.21875q-0.53125 -0.15625 -0.828125 -0.265625q-0.296875 -0.109375 -0.53125 -0.1875q-0.234375 -0.078125 -0.53125 -0.125q-0.296875 -0.0625 -0.9375 -0.109375q-0.796875 0.3125 -1.5 0.3125q-0.953125 0 -2.078125 -0.796875q-1.109375 -0.796875 -1.859375 -3.40625q0.109375 -1.015625 0.296875 -1.78125q0.171875 -0.78125 0.390625 -1.21875q1.28125 -0.75 2.140625 -0.75q1.015625 0 1.9375 0.328125q0.9375 0.3125 1.84375 0.6875q0.4375 0.171875 0.59375 0.28125q0.15625 0.09375 0.265625 0.15625q0.109375 0.046875 0.234375 0.046875q0.140625 0 0.5625 0q0.265625 0 0.453125 -0.015625q0.1875 -0.03125 0.40625 -0.09375l0.53125 0.0625q0.3125 0.15625 0.75 0.15625q0.53125 0 1.328125 -0.265625q0.375 -0.15625 0.609375 -0.203125q0.25 -0.0625 0.515625 -0.125l0.421875 -0.421875q0.484375 -0.15625 0.71875 -0.375q0.25 -0.21875 0.4375 -0.484375q0.1875 -0.265625 0.34375 -0.578125q0.15625 -0.328125 0.421875 -0.703125q0.21875 -0.265625 0.40625 -0.53125q0.1875 -0.265625 0.390625 -0.53125l0 -0.53125q0.703125 -1.546875 1.234375 -3.21875q0.53125 -1.6875 0.953125 -3.390625q0.4375 -1.71875 0.71875 -3.3125q0.296875 -1.609375 0.515625 -2.890625l-0.53125 0q-1.328125 0 -2.1875 0.03125q-0.859375 0.015625 -1.5625 0.109375q-0.6875 0.078125 -1.46875 0.234375q-0.765625 0.15625 -1.9375 0.375l-0.796875 0.15625q-0.796875 0.421875 -1.609375 0.75q-0.796875 0.3125 -1.59375 0.3125q-1.390625 0 -2.34375 -1.0625q-1.015625 -0.6875 -1.171875 -1.8125q-0.28125 -0.328125 -0.171875 -0.75q-0.203125 -0.640625 -0.203125 -1.140625q0 -0.515625 0 -0.9375l0 -0.75l0.6875 0q0.265625 -0.265625 0.375 -0.390625q0.109375 -0.140625 0.15625 -0.359375l0.59375 -0.46875q0.90625 -0.109375 1.890625 -0.296875q0.984375 -0.1875 2.0625 -0.40625q1.0 -0.21875 1.71875 -0.3125q0.734375 -0.109375 1.390625 -0.15625q0.671875 -0.0625 1.390625 -0.078125q0.71875 -0.03125 1.6875 -0.03125l1.21875 0q0.171875 -0.21875 0.359375 -0.25q0.1875 -0.03125 0.28125 -0.03125q0.265625 0 0.421875 0.0625q0.171875 0.046875 0.28125 0.109375q1.484375 -0.265625 2.765625 -0.34375q1.28125 -0.09375 2.296875 -0.09375q0.53125 0 0.984375 0q0.46875 0 0.890625 0.0625l1.765625 0l1.171875 0q0.265625 -0.0625 0.84375 -0.0625q0.859375 0 1.09375 0.03125q0.25 0.03125 0.890625 0.140625q0.75 0.09375 1.359375 0.1875q0.609375 0.078125 1.25 0.078125l0.796875 0l0.171875 0.53125l0.421875 0.53125q0.109375 0.265625 0.34375 0.484375q0.25 0.203125 0.515625 0.484375q0.53125 0.53125 1.03125 1.234375q0.515625 0.6875 0.34375 2.0625l-0.359375 0.59375q-0.28125 0.109375 -0.640625 0.484375l-0.484375 0.421875q-0.59375 0.046875 -1.015625 0.078125q-0.421875 0.03125 -0.859375 0.03125q-0.796875 0 -1.625 -0.046875q-0.828125 -0.0625 -1.734375 -0.109375q-0.484375 0 -0.75 0q-0.265625 0 -0.515625 0q-0.234375 0 -0.5 0q-0.265625 0 -0.6875 0q-0.421875 0 -0.640625 0q-0.21875 0 -0.59375 0.046875zm34.85251 -5.609375q0.109375 1.171875 0.375 2.03125q0.265625 0.859375 0.59375 1.65625q0.265625 0.75 0.5 1.46875q0.25 0.71875 0.359375 1.734375q-0.4375 1.390625 -0.625 2.5625q-0.1875 1.171875 -0.390625 2.453125q-0.859375 1.875 -1.65625 3.3125q-0.796875 1.4375 -1.28125 2.5q-0.265625 0.265625 -0.453125 0.625q-0.1875 0.34375 -0.40625 0.71875q-0.109375 0.15625 -0.265625 0.484375q-0.15625 0.3125 -0.265625 0.421875l-1.0625 -0.375l-0.21875 1.328125l-0.75 0.21875l-0.53125 0.640625q-1.015625 1.765625 -2.140625 2.96875q-1.109375 1.1875 -2.53125 2.125q-1.40625 0.9375 -3.203125 1.75q-1.78125 0.796875 -4.03125 1.75q-0.90625 -0.109375 -1.578125 -0.125q-0.65625 -0.03125 -1.25 -0.09375q-1.015625 0 -2.5 -0.15625q-0.171875 -0.421875 -0.5 -0.578125q-0.3125 -0.171875 -0.578125 -0.171875q-0.90625 -0.421875 -1.359375 -1.25q-0.453125 -0.828125 -0.875 -1.78125q-0.265625 -0.59375 -0.53125 -1.09375q-0.265625 -0.515625 -0.59375 -1.046875l0.90625 -0.265625l-1.171875 -1.28125q-0.109375 -0.15625 -0.265625 -0.28125q-0.15625 -0.140625 -0.265625 -0.3125l-0.0625 -0.84375q-0.15625 -3.6875 -0.125 -6.75q0.03125 -3.078125 0.828125 -5.484375l0 -0.578125q0.15625 -1.171875 0.3125 -1.9375q0.171875 -0.78125 0.265625 -1.484375q0.171875 -1.171875 0.484375 -2.1875q0.75 -0.15625 1.125 -0.609375q0.375 -0.453125 0.640625 -0.828125q0.75 -0.0625 1.015625 0.21875q0.265625 0.265625 0.53125 0.84375q0.265625 0.484375 0.65625 1.078125q0.40625 0.578125 1.21875 0.90625q0.09375 0.421875 0.28125 0.875q0.1875 0.453125 0.40625 0.984375q0.421875 0.90625 0.765625 1.90625q0.359375 0.984375 0.40625 1.890625q-0.53125 1.015625 -0.828125 2.34375q-0.296875 1.328125 -0.375 2.703125q-0.078125 1.359375 0.046875 2.609375q0.140625 1.25 0.46875 2.109375l0.3125 0.6875l0.90625 -0.109375q1.609375 -0.421875 2.90625 -0.921875q1.3125 -0.515625 2.4375 -1.203125q1.125 -0.703125 2.125 -1.625q1.015625 -0.9375 2.140625 -2.171875q1.125 -1.21875 1.953125 -2.796875q0.828125 -1.578125 1.390625 -3.28125q0.5625 -1.71875 0.84375 -3.390625q0.296875 -1.6875 0.40625 -3.171875q0.90625 -0.328125 0.90625 -1.28125l-0.109375 -0.59375q-0.203125 -0.3125 0 -0.75q0.328125 -1.015625 1.5 -1.546875q0.84375 0.53125 1.515625 1.171875q0.671875 0.640625 1.25 1.28125zm9.081146 24.828125q-0.59375 2.125 -1.046875 3.21875q-0.453125 1.09375 -1.359375 2.28125q-0.6875 -0.109375 -0.953125 0.15625q-0.265625 0.265625 -0.59375 0.484375q-0.484375 0.09375 -0.703125 -0.015625q-0.203125 -0.09375 -0.359375 -0.234375q-0.15625 -0.125 -0.40625 -0.265625q-0.234375 -0.125 -0.71875 -0.125q-0.109375 -0.4375 -0.25 -0.8125q-0.125 -0.375 -0.703125 -0.265625q0.09375 -0.421875 0.046875 -0.71875q-0.046875 -0.296875 -0.140625 -0.53125q-0.078125 -0.234375 -0.125 -0.46875q-0.046875 -0.25 0.046875 -0.625q-0.265625 0 -0.421875 -0.375q-0.15625 -0.375 -0.375 -0.75q0.15625 -0.953125 0.3125 -1.8125q0.171875 -0.859375 0.40625 -1.59375q0.25 -0.75 0.40625 -1.5q0.15625 -0.75 -0.15625 -1.546875q0.203125 0.15625 0.3125 -0.078125q0.109375 -0.25 0.15625 -0.640625q0.0625 -0.40625 0.0625 -0.796875q0 -0.40625 -0.0625 -0.671875q0.546875 -1.390625 0.890625 -2.859375q0.34375 -1.46875 0.640625 -2.90625q0.296875 -1.4375 0.609375 -2.828125q0.328125 -1.390625 0.859375 -2.5625q0.578125 -0.109375 1.296875 0.140625q0.71875 0.234375 0.890625 0.609375q1.390625 -1.078125 2.453125 -2.59375q1.0625 -1.515625 2.1875 -2.953125q1.125 -1.453125 2.484375 -2.5625q1.359375 -1.125 3.4375 -1.34375q1.0625 0.796875 2.375 1.625q1.3125 0.828125 2.15625 2.171875q0.4375 0.203125 0.71875 0.453125q0.296875 0.234375 0.734375 0.5l0 0.640625q0.640625 0.59375 1.03125 1.375q0.40625 0.765625 0.71875 1.640625q0.328125 0.875 0.640625 1.765625q0.328125 0.875 0.75 1.671875q-0.109375 0.28125 -0.109375 0.46875q0 0.171875 0.078125 0.390625q0.09375 0.21875 0.140625 0.4375q0.0625 0.203125 0 0.578125q-0.15625 2.34375 -1.515625 3.796875q-1.359375 1.4375 -3.28125 2.375q-1.921875 0.921875 -4.109375 1.5625q-2.1875 0.640625 -3.953125 1.390625q0 0.21875 0.1875 0.21875q0.1875 0 0.125 0.265625q1.28125 0.796875 2.03125 1.28125q0.75 0.484375 1.40625 0.8125q0.671875 0.3125 1.4375 0.546875q0.78125 0.234375 2.171875 0.5625q1.390625 0.3125 2.15625 0.5q0.78125 0.1875 1.421875 0.328125q0.640625 0.125 1.3125 0.21875q0.671875 0.078125 1.890625 0.171875q0.484375 0.484375 0.828125 1.15625q0.34375 0.671875 0.453125 1.34375q0.109375 0.65625 0.046875 1.28125q-0.046875 0.609375 -0.359375 0.96875q0.046875 0.171875 0.234375 0.140625q0.1875 -0.03125 0.40625 0.03125q-0.328125 0.203125 -0.546875 0.515625q-0.203125 0.328125 -0.421875 0.640625q-0.21875 0.328125 -0.484375 0.5625q-0.265625 0.25 -0.75 0.296875q-1.640625 0.640625 -4.15625 0.078125q-2.515625 -0.546875 -6.34375 -2.046875q-1.921875 -0.75 -3.125 -1.296875q-1.203125 -0.5625 -2.09375 -1.125q-0.875 -0.5625 -1.59375 -1.203125q-0.71875 -0.640625 -1.734375 -1.546875zm7.625 -18.3125q-0.578125 0.859375 -1.296875 1.5625q-0.71875 0.6875 -1.390625 1.40625q-0.671875 0.71875 -1.203125 1.59375q-0.53125 0.875 -0.75 2.0625q1.875 -0.21875 3.890625 -1.046875q2.03125 -0.828125 3.859375 -1.578125q-0.21875 -1.65625 -1.15625 -2.65625q-0.9375 -1.015625 -1.953125 -1.34375zm43.132385 -6.1875q0.0625 0.375 0.03125 0.5625q-0.03125 0.1875 -0.0625 0.34375q-0.015625 0.15625 -0.015625 0.34375q0 0.1875 0.109375 0.5625q-1.125 1.8125 -2.59375 2.484375q-1.46875 0.65625 -3.1875 0.953125q-1.703125 0.296875 -3.5 0.625q-1.78125 0.3125 -3.53125 1.375q-0.703125 -0.265625 -1.265625 0q-0.546875 0.265625 -1.625 0.171875q-0.3125 0.3125 -0.796875 0.453125q-0.484375 0.125 -0.953125 0.28125q0.203125 0.484375 0.171875 1.0q-0.015625 0.5 0.140625 0.828125q1.875 0.15625 4.140625 -0.0625q2.265625 -0.21875 4.453125 -0.265625q0.046875 0.265625 -0.0625 0.34375q-0.09375 0.078125 -0.046875 0.296875q0.375 0.265625 0.75 0.671875q0.375 0.390625 0.75 0.765625q0.375 0.375 0.765625 0.625q0.40625 0.234375 0.9375 0.1875q0.21875 0.421875 0.296875 0.9375q0.078125 0.5 -0.140625 1.03125q-0.84375 0.59375 -1.703125 1.203125q-0.859375 0.609375 -1.796875 1.09375q-0.921875 0.484375 -1.96875 0.78125q-1.03125 0.28125 -2.3125 0.234375q-0.265625 0 -0.40625 0q-0.140625 0 -0.34375 -0.171875q-0.4375 0.28125 -1.21875 0.171875q-0.765625 -0.109375 -1.1875 0.15625q-0.578125 -0.265625 -1.40625 -0.234375q-0.828125 0.015625 -1.46875 -0.1875q-0.859375 1.109375 -1.5625 2.390625q-0.6875 1.28125 -1.21875 2.734375q1.8125 0.265625 3.015625 0.21875q1.203125 -0.0625 2.265625 -0.1875q1.0625 -0.140625 2.1875 -0.265625q1.125 -0.140625 2.828125 -0.09375q1.078125 -0.578125 2.53125 -0.765625q1.46875 -0.1875 2.703125 -0.625q0.421875 0.171875 0.734375 0.578125q0.328125 0.390625 0.625 0.734375q0.296875 0.34375 0.609375 0.609375q0.328125 0.265625 0.8125 0.21875q0.203125 0.21875 0.28125 0.515625q0.09375 0.28125 0.140625 0.546875q0.046875 0.265625 0.1875 0.453125q0.140625 0.1875 0.453125 0.140625q-0.796875 1.765625 -1.84375 2.703125q-1.03125 0.921875 -2.375 1.40625q-1.328125 0.484375 -2.96875 0.75q-1.625 0.265625 -3.59375 0.640625q-0.484375 0.09375 -0.8125 -0.046875q-0.3125 -0.125 -0.734375 -0.125q-1.234375 0.265625 -2.9375 0.484375q-1.703125 0.21875 -3.46875 0.15625q-1.765625 -0.046875 -3.375 -0.453125q-1.59375 -0.390625 -2.609375 -1.40625q-0.421875 -0.375 -0.5625 -0.875q-0.125 -0.515625 -0.71875 -0.78125q-0.046875 -0.6875 -0.21875 -1.546875q-0.15625 -0.859375 -0.3125 -1.78125q-0.15625 -0.9375 -0.234375 -1.84375q-0.078125 -0.90625 0.078125 -1.65625q0.15625 -0.8125 0.65625 -1.453125q0.515625 -0.640625 0.359375 -1.375q0.265625 -0.0625 0.3125 -0.296875q0.0625 -0.25 0.4375 -0.1875q0.3125 -0.96875 0.6875 -1.8125q0.375 -0.859375 0.765625 -1.65625q0.40625 -0.796875 0.8125 -1.625q0.40625 -0.828125 0.765625 -1.84375q-0.734375 -0.703125 -1.09375 -1.515625q-0.34375 -0.828125 -0.5 -1.65625q-0.15625 -0.828125 -0.265625 -1.703125q-0.109375 -0.890625 -0.375 -1.796875q0.53125 -0.796875 1.296875 -1.296875q0.78125 -0.515625 1.6875 -0.828125q0.90625 -0.328125 1.96875 -0.546875q1.078125 -0.21875 2.25 -0.484375q2.140625 -0.6875 3.8125 -1.0625q1.6875 -0.375 3.3125 -0.609375q1.625 -0.25 3.390625 -0.453125q1.765625 -0.21875 4.0 -0.640625q0.484375 0.46875 0.90625 0.46875q0.21875 -0.46875 0.515625 -0.28125q0.296875 0.1875 0.234375 -0.296875q0.53125 0.90625 1.359375 1.515625q0.828125 0.609375 1.84375 1.046875zm29.09613 4.375q-1.34375 0 -2.890625 0.1875q-1.546875 0.1875 -3.03125 0.390625q-1.078125 0.171875 -2.0625 0.28125q-0.984375 0.09375 -1.78125 0.15625q-0.375 1.171875 -0.75 2.078125q-0.375 0.90625 -0.796875 1.765625q-0.4375 0.90625 -0.78125 1.84375q-0.34375 0.921875 -0.671875 2.0q-0.53125 0.84375 -0.875 1.578125q-0.34375 0.71875 -0.5625 1.625q-0.640625 0.796875 -0.96875 1.6875q-0.3125 0.875 -0.46875 1.515625l-0.21875 0.640625q-0.3125 0.3125 -0.375 0.5q-0.046875 0.1875 -0.265625 0.34375q-0.046875 0.59375 -0.375 1.171875q-0.109375 0.28125 -0.15625 0.515625q-0.046875 0.234375 -0.046875 0.34375q0 0.53125 -0.265625 0.6875q0.046875 0.28125 -0.015625 0.578125q-0.046875 0.28125 -0.09375 0.546875q-0.171875 0.640625 -0.109375 1.015625q0.15625 0.21875 0.28125 0.375q0.140625 0.15625 0.203125 0.421875q0.3125 0.21875 0.46875 0.265625q0.21875 0.171875 0.640625 0.375l0.484375 0.546875q0.265625 1.546875 -0.484375 2.453125q-0.796875 1.015625 -2.71875 1.015625l-0.640625 0q-0.265625 -0.28125 -0.3125 -0.4375q-0.4375 -0.15625 -0.703125 -0.265625q-0.265625 -0.109375 -0.484375 -0.421875q-0.6875 -0.328125 -1.109375 -0.53125l-0.484375 -0.265625q0 -0.59375 0 -0.640625q-0.375 -0.484375 -0.5625 -1.0625q-0.1875 -0.59375 -0.296875 -1.1875q-0.109375 -0.484375 -0.25 -0.90625q-0.125 -0.421875 -0.328125 -0.75q-0.109375 -3.09375 0.578125 -5.21875q0.703125 -2.140625 1.453125 -4.125q0.421875 -1.0625 0.84375 -2.15625q0.4375 -1.09375 0.75 -2.265625l0.484375 -0.53125q0.375 -0.859375 0.609375 -1.421875q0.234375 -0.5625 0.515625 -1.140625q0.15625 -0.375 0.28125 -0.71875q0.140625 -0.359375 0.25 -0.625q-0.328125 0 -0.59375 0.03125q-0.265625 0.03125 -0.53125 0.078125q-0.328125 0.0625 -0.59375 0.09375q-0.265625 0.015625 -0.53125 0.015625q-0.375 0 -0.53125 -0.046875q-0.59375 0.265625 -1.28125 0.265625l-0.53125 0q-0.15625 0 -0.296875 -0.03125q-0.125 -0.03125 -0.234375 -0.03125q-0.53125 0 -0.859375 0.171875q-0.640625 0 -1.21875 0l-0.546875 0q-0.09375 0 -0.265625 0.03125q-0.15625 0.015625 -0.265625 0.015625q-0.375 0 -0.796875 -0.078125q-0.421875 -0.078125 -0.90625 -0.34375q-0.640625 -0.859375 -0.859375 -0.90625l-0.484375 -0.640625q-0.046875 -0.328125 -0.15625 -0.625q-0.109375 -0.296875 -0.203125 -0.65625q-0.21875 -0.546875 -0.40625 -1.15625q-0.1875 -0.609375 -0.1875 -1.46875q0.046875 -0.421875 0.203125 -0.625q0.171875 -0.21875 0.28125 -0.390625l0.15625 -0.796875l0.6875 0.046875l1.5 0q1.703125 0 3.46875 -0.125q1.765625 -0.140625 3.625 -0.296875q1.078125 -0.109375 2.171875 -0.203125q1.09375 -0.109375 2.265625 -0.21875q0.21875 -0.484375 0.421875 -0.90625l0.53125 -0.265625q0.96875 -0.0625 1.359375 0.234375q0.40625 0.296875 0.671875 0.5625q1.171875 -0.109375 2.375 -0.234375q1.203125 -0.140625 2.4375 -0.359375q1.8125 -0.265625 3.640625 -0.46875q1.84375 -0.21875 3.5625 -0.21875q0.75 0 1.4375 0.0625q0.6875 0.046875 1.28125 0.15625l0.53125 0.359375q0.15625 0.328125 0.453125 0.59375q0.296875 0.265625 0.625 0.53125q0.625 0.59375 1.265625 1.390625q0.640625 0.796875 0.484375 2.34375q-0.421875 0.640625 -0.640625 0.75l-0.484375 0.640625l-0.53125 -0.046875q-0.3125 0 -0.578125 0.078125q-0.265625 0.078125 -0.53125 0.1875q-0.21875 0.109375 -0.4375 0.1875q-0.203125 0.078125 -0.46875 0.125q-0.484375 0 -0.78125 -0.015625q-0.296875 -0.03125 -0.609375 -0.03125zm10.56662 -11.046875q0 0.484375 -0.140625 1.171875q-0.125 0.6875 -0.234375 1.390625q-0.109375 0.6875 -0.0625 1.25q0.0625 0.5625 0.484375 0.71875q-0.953125 2.828125 -1.3125 4.75q-0.34375 1.921875 -0.578125 3.65625q-0.234375 1.734375 -0.609375 3.65625q-0.375 1.921875 -1.34375 4.703125q-0.578125 1.703125 -1.4375 2.375q-0.859375 0.65625 -1.828125 0.65625q-0.953125 0 -1.96875 -0.53125q-1.0 -0.53125 -1.859375 -1.171875q-0.15625 -1.015625 -0.03125 -2.484375q0.140625 -1.46875 0.34375 -3.0625q0.21875 -1.609375 0.421875 -3.0625q0.21875 -1.46875 0.328125 -2.484375q0.53125 -0.59375 0.75 -0.96875q0.21875 -0.375 0.296875 -0.796875q0.078125 -0.421875 0.125 -1.0625q0.0625 -0.640625 0.28125 -1.828125q0.09375 -0.578125 -0.09375 -1.03125q-0.1875 -0.453125 -0.078125 -0.890625q0.109375 -0.203125 0.34375 -0.3125q0.25 -0.109375 0.296875 -0.375q0.21875 -0.6875 0.109375 -1.09375q-0.109375 -0.40625 0.15625 -0.984375q0.265625 -0.421875 0.671875 -1.359375q0.40625 -0.9375 0.296875 -1.953125q0.484375 -0.375 0.90625 -0.84375q0.421875 -0.484375 0.875 -0.890625q0.453125 -0.40625 1.015625 -0.671875q0.5625 -0.265625 1.359375 -0.265625q0.4375 0.59375 0.640625 1.125q0.21875 0.53125 0.40625 1.015625q0.1875 0.484375 0.5 0.90625q0.328125 0.421875 0.96875 0.75zm-5.28125 30.359375q0.09375 0.4375 0.140625 0.8125q0.0625 0.375 0.125 0.796875q-0.328125 1.125 -0.703125 2.03125q-0.15625 0.375 -0.21875 0.484375q-0.046875 0.09375 -0.046875 0.15625q0 0.046875 0.046875 0.125q0.0625 0.078125 0.0625 0.453125l-0.265625 0.640625q-0.265625 0.375 -0.625 0.59375q-0.34375 0.21875 -0.703125 0.375q-0.171875 0.109375 -0.359375 0.1875q-0.1875 0.078125 -0.28125 0.1875l-0.171875 0.640625l-0.734375 0.109375q-0.859375 0.203125 -1.5625 0.203125l-0.578125 0q-0.640625 -0.578125 -1.015625 -0.90625q-0.375 -0.3125 -0.859375 -0.578125q-0.578125 -1.015625 -0.6875 -1.765625q-0.109375 -0.703125 -0.265625 -0.90625l-0.75 -0.75l0.640625 -0.484375l-0.640625 -1.015625q0.640625 -0.46875 0.953125 -0.6875q0.328125 -0.21875 0.5625 -0.453125q0.25 -0.25 0.515625 -0.609375q0.265625 -0.375 0.84375 -1.234375l0.484375 -0.6875l0.640625 0.375q0.265625 0.15625 0.984375 0.296875q0.734375 0.125 1.265625 0.234375q0.84375 0.265625 1.671875 0.40625q0.828125 0.125 1.3125 0.546875l0.21875 0.421875z" fill-rule="nonzero"/></g></svg>