<?xml version="1.0" encoding="utf-8"?>
<!-- Generator: Adobe Illustrator 24.3.0, SVG Export Plug-In . SVG Version: 6.00 Build 0)  -->
<svg version="1.1" id="Layer_1" xmlns="http://www.w3.org/2000/svg" xmlns:xlink="http://www.w3.org/1999/xlink" x="0px" y="0px"
	 width="147.5px" height="125px" viewBox="0 0 147.5 125" style="enable-background:new 0 0 147.5 125;" xml:space="preserve">
<style type="text/css">
	.st0{fill:#D19A75;stroke:#020202;stroke-width:0.75;stroke-miterlimit:10;}
	.st1{fill:#FFFFFF;stroke:#020202;stroke-width:0.75;stroke-miterlimit:10;}
	.st2{fill:#F44711;stroke:#020202;stroke-width:0.75;stroke-miterlimit:10;}
	.st3{fill:#23211B;stroke:#000000;stroke-width:0.75;stroke-miterlimit:10;}
	.st4{fill:#6A3E00;stroke:#020202;stroke-width:0.75;stroke-miterlimit:10;}
	.st5{fill:none;stroke:#020202;stroke-width:0.75;stroke-miterlimit:10;}
	.st6{fill:#91E3F9;stroke:#020202;stroke-width:0.75;stroke-miterlimit:10;}
	.st7{fill:#08AF2B;}
	.st8{fill:#B5CCD6;stroke:#020202;stroke-width:0.75;stroke-linejoin:round;stroke-miterlimit:10;}
	.st9{fill:#647C83;stroke:#000000;stroke-width:0.75;stroke-linejoin:round;stroke-miterlimit:10;}
	.st10{fill:#D7E3EE;stroke:#000000;stroke-width:0.75;stroke-linejoin:round;stroke-miterlimit:10;}
	.st11{fill:#D8821D;stroke:#020202;stroke-width:0.75;stroke-miterlimit:10;}
	.st12{fill:#E8D5AA;stroke:#020202;stroke-width:0.75;stroke-miterlimit:10;}
	.st13{fill:none;stroke:#020202;stroke-linecap:round;stroke-miterlimit:10;}
	.st14{fill:#EFEEED;stroke:#020202;stroke-width:0.75;stroke-miterlimit:10;}
	.st15{fill:#6A3E00;stroke:#000000;stroke-width:0.25;stroke-miterlimit:10;}
	.st16{clip-path:url(#SVGID_2_);}
	.st17{clip-path:url(#SVGID_4_);fill:#B5CCD6;}
	.st18{clip-path:url(#SVGID_6_);fill:none;stroke:#020202;stroke-width:0.75;stroke-linejoin:round;stroke-miterlimit:10;}
	.st19{clip-path:url(#SVGID_8_);fill:#647C83;}
	.st20{clip-path:url(#SVGID_10_);fill:none;stroke:#000000;stroke-width:0.75;stroke-linejoin:round;stroke-miterlimit:10;}
	.st21{clip-path:url(#SVGID_12_);fill:#D7E3EE;}
	.st22{clip-path:url(#SVGID_14_);fill:none;stroke:#000000;stroke-width:0.75;stroke-linejoin:round;stroke-miterlimit:10;}
	.st23{fill:#262626;stroke:#020202;stroke-width:0.75;stroke-miterlimit:10;}
	.st24{fill:none;stroke:#000000;stroke-width:0.75;stroke-miterlimit:10;}
	.st25{fill:#F7DE48;stroke:#020202;stroke-width:0.75;stroke-miterlimit:10;}
	.st26{fill:#332E28;stroke:#000000;stroke-width:0.75;stroke-miterlimit:10;}
	.st27{fill:#099160;stroke:#020202;stroke-width:0.75;stroke-miterlimit:10;}
	.st28{fill:#FFFFFF;}
	.st29{fill:none;stroke:#020202;stroke-width:3;stroke-miterlimit:10;}
	.st30{fill:#0B0B7F;stroke:#020202;stroke-width:0.75;stroke-miterlimit:10;}
	.st31{fill:#FFFFFF;stroke:#FFFFFF;stroke-width:0.5;stroke-miterlimit:10;}
	.st32{fill:#FCE7D4;stroke:#020202;stroke-width:0.75;stroke-miterlimit:10;}
	.st33{fill:#7F4C0E;stroke:#000000;stroke-width:0.75;stroke-miterlimit:10;}
	.st34{fill:none;stroke:#231F20;stroke-width:0.75;stroke-miterlimit:10;}
	.st35{fill:#008E19;stroke:#020202;stroke-width:0.75;stroke-miterlimit:10;}
	.st36{fill:#F99C16;stroke:#000000;stroke-width:0.75;stroke-miterlimit:10;}
	.st37{fill:#A5E5CF;stroke:#020202;stroke-width:0.75;stroke-miterlimit:10;}
	.st38{fill:#231F20;stroke:#231F20;stroke-width:0.75;stroke-miterlimit:10;}
	.st39{fill:#3D3D3D;stroke:#231F20;stroke-width:0.75;stroke-miterlimit:10;}
	.st40{fill:#F7CB14;stroke:#020202;stroke-width:0.75;stroke-miterlimit:10;}
	.st41{fill:#FCFAF7;stroke:#000000;stroke-width:0.75;stroke-miterlimit:10;}
	.st42{fill:#286308;stroke:#020202;stroke-width:0.75;stroke-miterlimit:10;}
	.st43{fill:#FFFFFF;stroke:#000000;stroke-width:0.75;stroke-miterlimit:10;}
	.st44{fill:#202133;stroke:#000000;stroke-width:0.75;stroke-miterlimit:10;}
	.st45{fill:#7F500B;stroke:#020202;stroke-width:0.75;stroke-miterlimit:10;}
	.st46{fill:#020202;stroke:#020202;stroke-width:0.75;stroke-miterlimit:10;}
	.st47{fill:#DCB1E0;stroke:#020202;stroke-width:0.75;stroke-miterlimit:10;}
	.st48{clip-path:url(#SVGID_16_);}
	.st49{clip-path:url(#SVGID_18_);}
	.st50{clip-path:url(#SVGID_20_);fill:#F7BB92;}
	.st51{clip-path:url(#SVGID_20_);fill:none;stroke:#020202;stroke-width:0.75;stroke-miterlimit:10;}
	.st52{clip-path:url(#SVGID_20_);fill:#A56621;}
	.st53{clip-path:url(#SVGID_20_);fill:none;stroke:#000000;stroke-width:0.75;stroke-miterlimit:10;}
	.st54{clip-path:url(#SVGID_20_);fill:#7F4C0E;}
	.st55{clip-path:url(#SVGID_20_);fill:none;stroke:#231F20;stroke-width:0.75;stroke-miterlimit:10;}
	.st56{clip-path:url(#SVGID_20_);fill:#FFFFFF;}
	.st57{clip-path:url(#SVGID_20_);}
	.st58{clip-path:url(#SVGID_20_);fill:#0096FF;}
	.st59{clip-path:url(#SVGID_20_);fill:#231F20;}
	.st60{clip-path:url(#SVGID_20_);fill:#F44711;}
	.st61{clip-path:url(#SVGID_20_);fill:#262626;}
	.st62{clip-path:url(#SVGID_20_);fill:#F7DE48;}
	.st63{clip-path:url(#SVGID_20_);fill:#332E28;}
	.st64{clip-path:url(#SVGID_20_);fill:#D19A75;}
	.st65{clip-path:url(#SVGID_20_);fill:#6A3E00;}
	.st66{clip-path:url(#SVGID_20_);fill:#099160;}
	.st67{clip-path:url(#SVGID_20_);fill:none;stroke:#020202;stroke-width:3;stroke-miterlimit:10;}
	.st68{clip-path:url(#SVGID_20_);fill:#0B0B7F;}
	.st69{clip-path:url(#SVGID_20_);fill:none;stroke:#FFFFFF;stroke-width:0.5;stroke-miterlimit:10;}
	.st70{clip-path:url(#SVGID_20_);fill:#FCE7D4;}
	.st71{clip-path:url(#SVGID_20_);fill:#008E19;}
	.st72{clip-path:url(#SVGID_20_);fill:#F99C16;}
	.st73{clip-path:url(#SVGID_20_);fill:#A5E5CF;}
	.st74{clip-path:url(#SVGID_20_);fill:#23211B;}
	.st75{clip-path:url(#SVGID_20_);fill:#3D3D3D;}
	.st76{clip-path:url(#SVGID_20_);fill:#F7CB14;}
	.st77{clip-path:url(#SVGID_20_);fill:#FCFAF7;}
	.st78{clip-path:url(#SVGID_20_);fill:#286308;}
	.st79{clip-path:url(#SVGID_20_);fill:#202133;}
	.st80{clip-path:url(#SVGID_20_);fill:#8E570E;}
	.st81{opacity:0.7;clip-path:url(#SVGID_20_);}
	.st82{clip-path:url(#SVGID_22_);}
	.st83{clip-path:url(#SVGID_24_);}
	.st84{clip-path:url(#SVGID_20_);fill:#7F500B;}
	.st85{clip-path:url(#SVGID_20_);fill:#020202;}
	.st86{clip-path:url(#SVGID_20_);fill:#DCB1E0;}
	.st87{fill:none;stroke:#020202;stroke-miterlimit:10;}
	.st88{clip-path:url(#SVGID_26_);}
	.st89{clip-path:url(#SVGID_28_);fill:#B5CCD6;}
	.st90{clip-path:url(#SVGID_30_);fill:none;stroke:#020202;stroke-width:0.75;stroke-linejoin:round;stroke-miterlimit:10;}
	.st91{clip-path:url(#SVGID_32_);fill:#647C83;}
	.st92{clip-path:url(#SVGID_34_);fill:none;stroke:#000000;stroke-width:0.75;stroke-linejoin:round;stroke-miterlimit:10;}
	.st93{clip-path:url(#SVGID_36_);fill:#D7E3EE;}
	.st94{clip-path:url(#SVGID_38_);fill:none;stroke:#000000;stroke-width:0.75;stroke-linejoin:round;stroke-miterlimit:10;}
	.st95{fill:#F7BB92;stroke:#020202;stroke-width:0.75;stroke-miterlimit:10;}
	.st96{fill:#A56621;stroke:#000000;stroke-width:0.75;stroke-miterlimit:10;}
	.st97{fill:#0096FF;stroke:#020202;stroke-width:0.75;stroke-miterlimit:10;}
	.st98{fill:#231F20;stroke:#000000;stroke-width:0.75;stroke-miterlimit:10;}
	.st99{fill:#8E570E;stroke:#000000;stroke-width:0.75;stroke-miterlimit:10;}
	.st100{opacity:0.7;}
	.st101{clip-path:url(#SVGID_40_);}
	.st102{clip-path:url(#SVGID_42_);}
	.st103{clip-path:url(#SVGID_44_);fill:#D19A75;}
	.st104{clip-path:url(#SVGID_44_);fill:none;stroke:#020202;stroke-width:0.75;stroke-miterlimit:10;}
	.st105{clip-path:url(#SVGID_44_);fill:#FFFFFF;}
	.st106{clip-path:url(#SVGID_44_);fill:#F44711;}
	.st107{clip-path:url(#SVGID_44_);fill:#23211B;}
	.st108{clip-path:url(#SVGID_44_);fill:none;stroke:#000000;stroke-width:0.75;stroke-miterlimit:10;}
	.st109{clip-path:url(#SVGID_44_);fill:#6A3E00;}
	.st110{clip-path:url(#SVGID_44_);fill:#91E3F9;}
	.st111{clip-path:url(#SVGID_44_);fill:#08AF2B;}
	.st112{clip-path:url(#SVGID_44_);}
	.st113{clip-path:url(#SVGID_44_);fill:#B5CCD6;}
	.st114{clip-path:url(#SVGID_44_);fill:none;stroke:#020202;stroke-width:0.75;stroke-linejoin:round;stroke-miterlimit:10;}
	.st115{clip-path:url(#SVGID_44_);fill:#647C83;}
	.st116{clip-path:url(#SVGID_44_);fill:none;stroke:#000000;stroke-width:0.75;stroke-linejoin:round;stroke-miterlimit:10;}
	.st117{clip-path:url(#SVGID_44_);fill:#D7E3EE;}
	.st118{clip-path:url(#SVGID_44_);fill:#262626;}
	.st119{clip-path:url(#SVGID_44_);fill:#F7DE48;}
	.st120{clip-path:url(#SVGID_44_);fill:#332E28;}
	.st121{clip-path:url(#SVGID_44_);fill:#099160;}
	.st122{clip-path:url(#SVGID_44_);fill:none;stroke:#020202;stroke-width:3;stroke-miterlimit:10;}
	.st123{clip-path:url(#SVGID_44_);fill:#0B0B7F;}
	.st124{clip-path:url(#SVGID_44_);fill:none;stroke:#FFFFFF;stroke-width:0.5;stroke-miterlimit:10;}
	.st125{clip-path:url(#SVGID_44_);fill:#FCE7D4;}
	.st126{clip-path:url(#SVGID_44_);fill:#7F4C0E;}
	.st127{clip-path:url(#SVGID_44_);fill:none;stroke:#231F20;stroke-width:0.75;stroke-miterlimit:10;}
	.st128{clip-path:url(#SVGID_44_);fill:#008E19;}
	.st129{clip-path:url(#SVGID_44_);fill:#F99C16;}
	.st130{clip-path:url(#SVGID_44_);fill:#A5E5CF;}
	.st131{clip-path:url(#SVGID_44_);fill:#231F20;}
	.st132{clip-path:url(#SVGID_44_);fill:#3D3D3D;}
	.st133{clip-path:url(#SVGID_44_);fill:#F7CB14;}
	.st134{clip-path:url(#SVGID_44_);fill:#FCFAF7;}
	.st135{clip-path:url(#SVGID_44_);fill:#286308;}
	.st136{clip-path:url(#SVGID_44_);fill:#202133;}
	.st137{clip-path:url(#SVGID_44_);fill:#7F500B;}
	.st138{clip-path:url(#SVGID_44_);fill:#020202;}
	.st139{clip-path:url(#SVGID_44_);fill:#DCB1E0;}
	.st140{clip-path:url(#SVGID_44_);fill:#D8821D;}
	.st141{clip-path:url(#SVGID_44_);fill:#E8D5AA;}
	.st142{clip-path:url(#SVGID_44_);fill:none;stroke:#020202;stroke-miterlimit:10;}
	.st143{clip-path:url(#SVGID_44_);fill:#EFEEED;}
	.st144{clip-path:url(#SVGID_44_);fill:none;stroke:#000000;stroke-width:0.25;stroke-miterlimit:10;}
	.st145{clip-path:url(#SVGID_46_);fill:#B5CCD6;}
	.st146{clip-path:url(#SVGID_46_);fill:none;stroke:#020202;stroke-width:0.75;stroke-linejoin:round;stroke-miterlimit:10;}
	.st147{clip-path:url(#SVGID_46_);fill:#647C83;}
	.st148{clip-path:url(#SVGID_46_);fill:none;stroke:#000000;stroke-width:0.75;stroke-linejoin:round;stroke-miterlimit:10;}
	.st149{clip-path:url(#SVGID_46_);fill:#D7E3EE;}
	.st150{clip-path:url(#SVGID_48_);fill:#F7BB92;}
	.st151{clip-path:url(#SVGID_48_);fill:none;stroke:#020202;stroke-width:0.75;stroke-miterlimit:10;}
	.st152{clip-path:url(#SVGID_48_);fill:#A56621;}
	.st153{clip-path:url(#SVGID_48_);fill:none;stroke:#000000;stroke-width:0.75;stroke-miterlimit:10;}
	.st154{clip-path:url(#SVGID_48_);fill:#7F4C0E;}
	.st155{clip-path:url(#SVGID_48_);fill:none;stroke:#231F20;stroke-width:0.75;stroke-miterlimit:10;}
	.st156{clip-path:url(#SVGID_48_);fill:#FFFFFF;}
	.st157{clip-path:url(#SVGID_48_);}
	.st158{clip-path:url(#SVGID_48_);fill:#0096FF;}
	.st159{clip-path:url(#SVGID_48_);fill:#231F20;}
	.st160{clip-path:url(#SVGID_48_);fill:#F44711;}
	.st161{clip-path:url(#SVGID_48_);fill:#FCE7D4;}
	.st162{clip-path:url(#SVGID_48_);fill:#202133;}
	.st163{clip-path:url(#SVGID_48_);fill:#8E570E;}
	.st164{clip-path:url(#SVGID_48_);fill:#008E19;}
	.st165{opacity:0.7;clip-path:url(#SVGID_48_);}
	.st166{clip-path:url(#SVGID_50_);}
	.st167{clip-path:url(#SVGID_52_);}
	.st168{fill:#EFD298;}
	.st169{font-family:'NewSpirit-SemiBold';}
	.st170{font-size:41px;}
</style>
<g id="turtleneck_3_">
	<path class="st11" d="M19.6,17.8c2.9,5.4,7.6,9.8,13.3,12.4c5,2.3,9.9,4.8,14.8,7.4c2.3,1.2,4.6,2.4,6.9,3.7
		c1.1,0.7,1.6,1.1,2.8,1.6c0.5,0.3,1.2,0.4,1.7,0.8c0.5,0.3,1,2,1.4,2.4c1.4,1.3,2.4,2.1,2.8,3.8c0.1,0.4-0.2,1.6-0.1,2.2
		c0,0.2,0.1,5.4,0,4l28.4,0.3c0,0-0.4-4.1-0.4-4.2c0-0.9,0.8-1.8,0.5-2.7c-0.1-0.9,0-1.6,0.3-2.4c0.5-1.5,2.5-1.6,3.7-2.5
		c1.2-0.9,1.4-2.2,2.9-2.8c1.5-0.7,2.9-1.4,4.4-2.1c6.4-3,12.7-6.2,19.2-9.3c0.2-0.1,0.5-0.2,0.8-0.3c10.5-4.2,13.7-14.7,15.9-24.9
		c0.8-3.6,1.1-4.8,1.1-4.8L14.4,0.5C14.3,0.5,17.1,13,19.6,17.8z"/>
</g>
<path id="head-3_5_" class="st12" d="M53.9,83.7c0,0-1.8,11.9-1.7,14.3c0.2,3.7,0.9,7.6,3.1,10.7c4,5.4,10.4,10.1,17.3,11.4
	c6.9,1.2,13.7-1.1,19.4-4.6c1-0.7,2-1.3,2.9-2.1c6.8-5.2,10.1-10.6,8.5-19.2s-1.9-9-1.9-9s0.5,3.9,2.4,5.3c1.8,1.4,4.4,2,5.4-0.9
	c1-2.6,0.7-5.7-1-7.9c-1.5-2.3-3-8.1-3.4-9.6c-0.3-1.5-2.2-2.8-3.3-3.6c-0.9-0.3-1.7-0.3-2.6,0c0,0-0.4-4.8-1.7-6.8
	c-4.1-5.8-11.2-12.3-18.6-12.8c-7.2-0.4-12.6,4-17.4,8.8c-0.7,0.7-4.4,4.2-4.8,5.3c-0.3,1.8-0.6,3.8-0.6,5.8c0,0-2-1.6-2.7-1
	s-2.3,1-3.1,2.3c-0.8,1.3-0.4,4.8-1.4,6.3c-1,1.5-2.3,2.6-3.2,4.8c-0.9,2.2-1.5,5.3,0,7.6c1,1.5,3,2.1,4.7,1.1c0,0,0.1,0,0.1-0.1
	C52,88,53.2,85.9,53.9,83.7z"/>
<path id="nose-4_6_" class="st12" d="M73.3,81.6c-1.1,0.1-1.9,0.6-2.5-0.5c-0.7-1.2-1.5-3.5-0.8-4.9c0.8-1.4,3.8-3.4,6-1.3l2.2,2.1
	c0,0,1.7-1.8,2.6-0.5c0.7,0.8,0.6,1.9,0,2.5c-0.3,0.3-1.2,0.2-1.2,0.2"/>
<path class="st13" d="M83.4,109.8c0,0-1.7,11.9-5.1,12.7"/>
<path class="st13" d="M77,109.8c0,0-1.7,11.9-5.1,12.7"/>
<g>
	<path class="st14" d="M101.2,83.1c-1.9,2.3-1.4,5.5-0.8,8.4c1.1,4.4,2.8,8.7,2.5,13.3c0-0.5,5.8-3.9,6.3-4.6c0.3-0.3,0.5-0.7,0.7-1
		c0.1-0.4,0.1-1,0-1.5c-0.8-3.2-3.1-5.7-5.1-8.3C103.4,87.5,102.2,85.3,101.2,83.1z"/>
	<path class="st14" d="M53.9,83c2,2.2,1.7,5.4,1.1,8.3c-0.9,4.5-2.4,8.8-2,13.4c-0.1-0.5-5.9-3.7-6.5-4.4c-0.3-0.3-0.5-0.7-0.8-1
		c-0.1-0.4-0.1-1,0-1.5c0.7-3.2,2.9-5.8,4.8-8.5C51.9,87.5,53,85.3,53.9,83z"/>
</g>
<g id="glasses_2_">
	<circle class="st1" cx="87.3" cy="91.4" r="5.9"/>
	<circle class="st1" cx="66.9" cy="91.3" r="5.9"/>
	<path class="st5" d="M72.9,91.3c1.2,1,2.6,1.6,4.2,1.7c1.5-0.1,3-0.6,4.2-1.7"/>
</g>
<g id="mouth-2_2_">
	<path class="st12" d="M81.3,73.5c0,0,5.1-3.3,6.1-4.7c1-1.4,2.2-6.4,0.9-7.6"/>
	<path class="st12" d="M67.5,73.5c0,0-2.4-3.3-4-5.1c-1.6-1.9-1-6.4,0.4-7.2"/>
	<line class="st5" x1="80.7" y1="65.7" x2="72" y2="65.6"/>
	<path class="st5" d="M78.9,57c0,0-4.2,1.3-6.4,0"/>
</g>
<circle class="st15" cx="87.3" cy="91.4" r="0.9"/>
<circle class="st15" cx="66.6" cy="91.3" r="0.9"/>
<g id="Artwork_80_3_">
	<g>
		<g>
			<defs>
				
					<rect id="SVGID_1_" x="57" y="43.1" transform="matrix(1.782671e-03 -1 1 1.782671e-03 8.9849 144.8836)" width="40.1" height="49.6"/>
			</defs>
			<clipPath id="SVGID_2_">
				<use xlink:href="#SVGID_1_"  style="overflow:visible;"/>
			</clipPath>
			<g class="st16">
				<g>
					<defs>
						
							<rect id="SVGID_3_" x="57" y="43.1" transform="matrix(1.782671e-03 -1 1 1.782671e-03 8.9849 144.8836)" width="40.1" height="49.6"/>
					</defs>
					<clipPath id="SVGID_4_">
						<use xlink:href="#SVGID_3_"  style="overflow:visible;"/>
					</clipPath>
					<path class="st17" d="M101.3,83.9c0,0-8.7-1-12.8-0.1c-4.2,0.9-6,3.7-10.9,3.7c-4.8,0-7.4-2.2-12.8-2.5s-10.1,0-9.9-1.2
						c0.4-2.4-2.1,2.1-2.1,2.1l1-2.2c0,0,0.7-1.4,1-2.9c0.4-1.5-0.5-1.7,0.7-4.2c1.2-2.4,1-4.1,1.2-5.2c0.1-1.2,1.5-0.8,0.2-2.3
						c-1.3-1.5-2.5-4.1-3-4.9s2.7-1,2.7-1s8.7-9,10.3-10.5c1.5-1.5,9.6-3.9,11.7-4.1c2.1-0.1,10.1,2.8,13.1,5.6
						c2.9,2.7,5.8,7.3,6.8,8.1c1.2,0.8,0.9-0.8,0.8,0.9c-0.1,1.6,0.2,3.6,0.2,3.6l-1,3.7L101.3,83.9z"/>
				</g>
				<g>
					<defs>
						
							<rect id="SVGID_5_" x="57" y="43.1" transform="matrix(1.782671e-03 -1 1 1.782671e-03 8.9849 144.8836)" width="40.1" height="49.6"/>
					</defs>
					<clipPath id="SVGID_6_">
						<use xlink:href="#SVGID_5_"  style="overflow:visible;"/>
					</clipPath>
					<path class="st18" d="M101.3,83.9c0,0-8.7-1-12.8-0.1c-4.2,0.9-6,3.7-10.9,3.7c-4.8,0-7.4-2.2-12.8-2.5s-10.1,0-9.9-1.2
						c0.4-2.4-2.1,2.1-2.1,2.1l1-2.2c0,0,0.7-1.4,1-2.9c0.4-1.5-0.5-1.7,0.7-4.2c1.2-2.4,1-4.1,1.2-5.2c0.1-1.2,1.5-0.8,0.2-2.3
						c-1.3-1.5-2.5-4.1-3-4.9s2.7-1,2.7-1s8.7-9,10.3-10.5c1.5-1.5,9.6-3.9,11.7-4.1c2.1-0.1,10.1,2.8,13.1,5.6
						c2.9,2.7,5.8,7.3,6.8,8.1c1.2,0.8,0.9-0.8,0.8,0.9c-0.1,1.6,0.2,3.6,0.2,3.6l-1,3.7L101.3,83.9z"/>
				</g>
				<g>
					<defs>
						
							<rect id="SVGID_7_" x="57" y="43.1" transform="matrix(1.782671e-03 -1 1 1.782671e-03 8.9849 144.8836)" width="40.1" height="49.6"/>
					</defs>
					<clipPath id="SVGID_8_">
						<use xlink:href="#SVGID_7_"  style="overflow:visible;"/>
					</clipPath>
					<path class="st19" d="M99,62.2c-0.3-0.1,0.7,1.1-0.7,1.1c-0.7,0-3-2.1-6.5-4.5c-4-2.7-9.5-5.7-15.1-5.5s-11,4.2-15.3,7.4
						c-3.6,2.6-6.6,4.3-6.9,4.5c-0.3,0.1-0.2-0.3-0.4-0.8c-0.2-0.3-0.8-0.5-0.3-1.1c0.2-0.2,1-0.4,1.5-0.4s0.8,0.1,1-0.1
						c0.5-0.5,1.3-1.1,1.9-1.7c2.2-2.7,8.8-10.4,12.3-10.8c1.1-0.1,3.6-1.8,7-2.1c3.3-0.1,7.5,1.4,9.9,3c3.2,2.1,5.3,4.3,6.2,5.1
						c2.1,2.2,3.8,4.8,3.8,4.8L99,62.2z"/>
				</g>
				<g>
					<defs>
						
							<rect id="SVGID_9_" x="57" y="43.1" transform="matrix(1.782671e-03 -1 1 1.782671e-03 8.9849 144.8836)" width="40.1" height="49.6"/>
					</defs>
					<clipPath id="SVGID_10_">
						<use xlink:href="#SVGID_9_"  style="overflow:visible;"/>
					</clipPath>
					<path class="st20" d="M99,62.2c-0.3-0.1,0.7,1.1-0.7,1.1c-0.7,0-3-2.1-6.5-4.5c-4-2.7-9.5-5.7-15.1-5.5s-11,4.2-15.3,7.4
						c-3.6,2.6-6.6,4.3-6.9,4.5c-0.3,0.1-0.2-0.3-0.4-0.8c-0.2-0.3-0.8-0.5-0.3-1.1c0.2-0.2,1-0.4,1.5-0.4s0.8,0.1,1-0.1
						c0.5-0.5,1.3-1.1,1.9-1.7c2.2-2.7,8.8-10.4,12.3-10.8c1.1-0.1,3.6-1.8,7-2.1c3.3-0.1,7.5,1.4,9.9,3c3.2,2.1,5.3,4.3,6.2,5.1
						c2.1,2.2,3.8,4.8,3.8,4.8L99,62.2z"/>
				</g>
				<g>
					<defs>
						
							<rect id="SVGID_11_" x="57" y="43.1" transform="matrix(1.782671e-03 -1 1 1.782671e-03 8.9849 144.8836)" width="40.1" height="49.6"/>
					</defs>
					<clipPath id="SVGID_12_">
						<use xlink:href="#SVGID_11_"  style="overflow:visible;"/>
					</clipPath>
					<path class="st21" d="M52.8,85.9l1-2.2c0,0,0.2-0.4,0.4-1.1c0.2-0.5,0.4-1.1,0.5-1.8c0.8-0.7,8.5,0.8,9.3,0.9
						c0,0,10.2,2.3,13.3,2.1c2.9-0.2,6.1-2.3,11.3-3.2c5.2-1,12,0,12,0l0.9,3.4c0,0-8.7-1-12.8-0.1c-4.2,0.9-6,3.7-10.9,3.7
						c-4.9,0-7.4-2.2-12.8-2.5c-5.4-0.3-10.1,0-9.9-1.2C55.3,81.5,52.9,85.6,52.8,85.9"/>
				</g>
				<g>
					<defs>
						
							<rect id="SVGID_13_" x="57" y="43.1" transform="matrix(1.782671e-03 -1 1 1.782671e-03 8.9849 144.8836)" width="40.1" height="49.6"/>
					</defs>
					<clipPath id="SVGID_14_">
						<use xlink:href="#SVGID_13_"  style="overflow:visible;"/>
					</clipPath>
					<path class="st22" d="M52.8,85.9l1-2.2c0,0,0.2-0.4,0.4-1.1c0.2-0.5,0.4-1.1,0.5-1.8c0.8-0.7,8.5,0.8,9.3,0.9
						c0,0,10.2,2.3,13.3,2.1c2.9-0.2,6.1-2.3,11.3-3.2c5.2-1,12,0,12,0l0.9,3.4c0,0-8.7-1-12.8-0.1c-4.2,0.9-6,3.7-10.9,3.7
						c-4.9,0-7.4-2.2-12.8-2.5c-5.4-0.3-10.1,0-9.9-1.2C55.3,81.5,52.9,85.6,52.8,85.9z"/>
				</g>
			</g>
		</g>
	</g>
</g>
<g>
	<text transform="matrix(1 0 0 1 67.4439 36.9579)" class="st168 st169 st170">?</text>
</g>
</svg>
