<svg width="160" height="160" viewBox="0 0 160 160" fill="none" xmlns="http://www.w3.org/2000/svg">
<path d="M24.1403 34.367C30.3677 22.8691 41.7756 17.0946 49.6206 21.4694C53.388 23.5702 55.813 27.7784 56.3624 33.1683C56.9117 38.5581 55.5402 44.688 52.5498 50.2095C46.3224 61.7075 34.9145 67.482 27.0695 63.1072C19.2244 58.7324 17.913 45.865 24.1403 34.367V34.367Z" fill="#96C4D4"/>
<path d="M24.1403 34.367C30.3677 22.8691 41.7756 17.0946 49.6206 21.4694C53.388 23.5702 55.813 27.7784 56.3624 33.1683C56.9117 38.5581 55.5402 44.688 52.5498 50.2095C46.3224 61.7075 34.9145 67.482 27.0695 63.1072C19.2244 58.7324 17.913 45.865 24.1403 34.367V34.367Z" stroke="#356879" stroke-width="2" stroke-miterlimit="10" stroke-linejoin="round"/>
<path d="M75.1199 17.7623C81.3473 6.26433 92.7552 0.489855 100.6 4.86465C104.368 6.9655 106.793 11.1737 107.342 16.5635C107.891 21.9534 106.52 28.0833 103.529 33.6048C97.3021 45.1028 85.8941 50.8772 78.0491 46.5024C70.204 42.1277 68.8926 29.2602 75.1199 17.7623V17.7623Z" fill="#96C4D4"/>
<path d="M75.1199 17.7623C81.3473 6.26433 92.7552 0.489855 100.6 4.86465C104.368 6.9655 106.793 11.1737 107.342 16.5635C107.891 21.9534 106.52 28.0833 103.529 33.6048C97.3021 45.1028 85.8941 50.8772 78.0491 46.5024C70.204 42.1277 68.8926 29.2602 75.1199 17.7623V17.7623Z" stroke="#356879" stroke-width="2" stroke-miterlimit="10" stroke-linejoin="round"/>
<path d="M109.226 42.5444C115.453 31.0464 126.861 25.272 134.706 29.6468C138.473 31.7476 140.898 35.9558 141.448 41.3456C141.997 46.7355 140.626 52.8654 137.635 58.3869C131.408 69.8849 120 75.6593 112.155 71.2845C104.31 66.9098 102.998 54.0424 109.226 42.5444V42.5444Z" fill="#96C4D4"/>
<path d="M109.226 42.5444C115.453 31.0464 126.861 25.272 134.706 29.6468C138.473 31.7476 140.898 35.9558 141.448 41.3456C141.997 46.7355 140.626 52.8654 137.635 58.3869C131.408 69.8849 120 75.6593 112.155 71.2845C104.31 66.9098 102.998 54.0424 109.226 42.5444V42.5444Z" stroke="#356879" stroke-width="2" stroke-miterlimit="10" stroke-linejoin="round"/>
<path d="M120.028 97.0395C126.255 85.5415 137.663 79.7671 145.508 84.1419C149.275 86.2427 151.7 90.4509 152.25 95.8408C152.799 101.231 151.428 107.361 148.437 112.882C142.21 124.38 130.802 130.154 122.957 125.78C115.112 121.405 113.8 108.537 120.028 97.0395V97.0395Z" fill="#96C4D4"/>
<path d="M120.028 97.0395C126.255 85.5415 137.663 79.7671 145.508 84.1419C149.275 86.2427 151.7 90.4509 152.25 95.8408C152.799 101.231 151.428 107.361 148.437 112.882C142.21 124.38 130.802 130.154 122.957 125.78C115.112 121.405 113.8 108.537 120.028 97.0395V97.0395Z" stroke="#356879" stroke-width="2" stroke-miterlimit="10" stroke-linejoin="round"/>
<path d="M103.051 133.724C102.814 129.677 100.91 121.741 100.196 117.059C99.4818 112.377 99.0826 110.156 98.7653 105.632C98.4481 101.109 98.8485 94.9983 98.2927 89.9192C97.737 84.8401 97.2568 78.968 95.4311 75.1579C93.6053 71.3477 90.5915 68.8842 87.3382 67.0585C84.0849 65.2327 80.4356 63.7275 75.9111 64.2033C71.3867 64.6792 65.3504 67.9292 60.1915 69.9136C55.0326 71.898 51.3855 74.2838 44.9576 76.1096C38.5297 77.9353 27.3389 78.5665 21.6243 80.8681C15.9097 83.1697 13.1311 85.8717 10.6698 89.9192C8.20847 93.9667 6.30067 100.074 6.85638 105.153C7.41209 110.232 10.4324 116.981 14.0041 120.394C17.5757 123.807 22.3343 123.964 28.2863 125.631C34.2383 127.298 43.8429 126.349 49.7161 130.396C55.5894 134.444 59.3197 145.472 63.5258 149.916C67.7319 154.361 70.1112 156.35 74.9529 157.064C79.7946 157.778 88.1313 156.822 92.5759 154.202C97.0205 151.582 99.8746 144.757 101.62 141.344C103.366 137.931 103.289 137.772 103.051 133.724V133.724Z" fill="#96C4D4"/>
<path d="M103.051 133.724C102.814 129.677 100.91 121.741 100.196 117.059C99.4818 112.377 99.0826 110.156 98.7653 105.632C98.4481 101.109 98.8485 94.9983 98.2927 89.9192C97.737 84.8401 97.2568 78.968 95.4311 75.1579C93.6053 71.3477 90.5915 68.8842 87.3382 67.0585C84.0849 65.2327 80.4356 63.7275 75.9111 64.2033C71.3867 64.6792 65.3504 67.9292 60.1915 69.9136C55.0326 71.898 51.3855 74.2838 44.9576 76.1096C38.5297 77.9353 27.3389 78.5665 21.6243 80.8681C15.9097 83.1697 13.1311 85.8717 10.6698 89.9192C8.20847 93.9667 6.30067 100.074 6.85638 105.153C7.41209 110.232 10.4324 116.981 14.0041 120.394C17.5757 123.807 22.3343 123.964 28.2863 125.631C34.2383 127.298 43.8429 126.349 49.7161 130.396C55.5894 134.444 59.3197 145.472 63.5258 149.916C67.7319 154.361 70.1112 156.35 74.9529 157.064C79.7946 157.778 88.1313 156.822 92.5759 154.202C97.0205 151.582 99.8746 144.757 101.62 141.344C103.366 137.931 103.289 137.772 103.051 133.724V133.724Z" stroke="#356879" stroke-width="2" stroke-miterlimit="10" stroke-linejoin="round"/>
<path d="M96.97 97.4606C96.9142 93.5652 97.61 87.9567 96.3793 84.5633C95.1487 81.17 92.6862 78.7546 89.5861 77.1006C86.4859 75.4466 81.9429 73.9621 77.7783 74.6393C73.6138 75.3164 68.573 79.4449 64.5988 81.1634C60.6245 82.882 58.1151 83.8763 53.933 84.9506C49.751 86.0248 44.0243 86.1528 39.5064 87.6088C34.9885 89.0648 29.8296 90.6499 26.8257 93.6866C23.8218 96.7233 21.704 101.152 21.483 105.829C21.262 110.507 22.6404 118.36 25.4999 121.752C28.3594 125.144 34.1123 124.461 38.6401 126.183C43.1678 127.904 48.4438 128.944 52.6663 132.083C56.8888 135.223 60.7339 141.29 63.9752 145.02C67.2165 148.75 68.3804 152.78 72.114 154.465C75.8475 156.149 82.1332 156.332 86.3765 155.128C90.6198 153.923 95.0732 150.616 97.5739 147.238C100.075 143.86 101.081 139.004 101.381 134.86C101.68 130.715 100.15 126.856 99.3723 122.369C98.5945 117.882 97.1144 112.087 96.7141 107.936C96.3137 103.785 97.0258 101.356 96.97 97.4606V97.4606Z" fill="#6B96A6"/>
<path d="M126.146 98.8286C130.939 89.9834 139.745 85.5626 145.816 88.9546C148.731 90.5835 150.613 93.833 151.047 97.9884C151.481 102.144 150.432 106.864 148.131 111.112C143.338 119.957 134.532 124.378 128.461 120.986C122.391 117.594 121.354 107.674 126.146 98.8286V98.8286Z" fill="#6B96A6"/>
<path d="M115.154 44.3334C119.946 35.4881 128.752 31.0674 134.823 34.4594C137.738 36.0883 139.62 39.3378 140.054 43.4931C140.488 47.6485 139.439 52.3692 137.138 56.6168C132.346 65.4621 123.539 69.8829 117.469 66.4909C111.398 63.0989 110.361 53.1786 115.154 44.3334V44.3334Z" fill="#6B96A6"/>
<path d="M81.9685 18.4685C86.7608 9.62327 95.567 5.20252 101.638 8.59451C104.553 10.2234 106.435 13.4729 106.869 17.6283C107.303 21.7836 106.254 26.5043 103.953 30.752C99.1605 39.5972 90.3542 44.018 84.2834 40.626C78.2127 37.234 77.1762 27.3138 81.9685 18.4685V18.4685Z" fill="#6B96A6"/>
<path d="M31.3657 36.2868C36.1579 27.4415 44.9642 23.0208 51.035 26.4127C53.9503 28.0416 55.8319 31.2912 56.2661 35.4465C56.7002 39.6018 55.6513 44.3226 53.3499 48.5702C48.5577 57.4155 39.7514 61.8362 33.6806 58.4442C27.6098 55.0523 26.5734 45.132 31.3657 36.2868V36.2868Z" fill="#6B96A6"/>
<path d="M41.4453 87.3975H42.0781V95H41.4453V87.3975ZM43.9766 87.3975H44.6094V95H43.9766V87.3975ZM42.7109 87.3975H43.3438V95H42.7109V87.3975ZM40.8125 87.3975V95C39.6992 95.4219 38.5449 95.6328 37.3496 95.6328C36.3125 95.6328 35.3193 95.4424 34.3701 95.0615C33.4209 94.6807 32.5859 94.1533 31.8652 93.4795C31.1445 92.7998 30.5674 91.9619 30.1338 90.9658C29.7061 89.9639 29.4922 88.8828 29.4922 87.7227C29.4922 86.6504 29.7002 85.6279 30.1162 84.6553C30.5381 83.6768 31.1006 82.8359 31.8037 82.1328C32.5127 81.4238 33.3535 80.8613 34.3262 80.4453C35.3047 80.0234 36.3301 79.8125 37.4023 79.8125C38.7383 79.8125 39.9805 80.123 41.1289 80.7441C42.2773 81.3652 43.2148 82.209 43.9414 83.2754L43.4141 83.6182C42.7461 82.6396 41.8818 81.8662 40.8213 81.2979C39.7666 80.7295 38.627 80.4453 37.4023 80.4453C36.418 80.4453 35.4746 80.6387 34.5723 81.0254C33.6758 81.4062 32.9023 81.9219 32.252 82.5723C31.6016 83.2227 31.083 83.999 30.6963 84.9014C30.3154 85.7979 30.125 86.7383 30.125 87.7227C30.125 88.7832 30.3213 89.7734 30.7139 90.6934C31.1123 91.6133 31.6396 92.3838 32.2959 93.0049C32.958 93.626 33.7256 94.1152 34.5986 94.4727C35.4717 94.8242 36.3799 95 37.3232 95C38.3135 95 39.2656 94.8447 40.1797 94.5342V93.9277C39.3066 94.2207 38.3896 94.3672 37.4287 94.3672C36.7314 94.3672 36.0518 94.2705 35.3896 94.0771C34.7334 93.8779 34.124 93.5879 33.5615 93.207C33.0049 92.8203 32.5156 92.3633 32.0938 91.8359C31.6777 91.3027 31.3496 90.6846 31.1094 89.9814C30.875 89.2725 30.7578 88.5195 30.7578 87.7227C30.7578 86.5215 31.0537 85.4111 31.6455 84.3916C32.2432 83.3721 33.0518 82.5664 34.0713 81.9746C35.0908 81.377 36.2012 81.0781 37.4023 81.0781C38.5273 81.0781 39.5732 81.3418 40.54 81.8691C41.5068 82.3906 42.2949 83.0996 42.9043 83.9961L42.377 84.3389C41.8262 83.5303 41.1113 82.8916 40.2324 82.4229C39.3594 81.9482 38.416 81.7109 37.4023 81.7109C36.5879 81.7109 35.8086 81.8691 35.0645 82.1855C34.3203 82.502 33.6787 82.9297 33.1396 83.4688C32.6064 84.002 32.1816 84.6406 31.8652 85.3848C31.5488 86.1289 31.3906 86.9082 31.3906 87.7227C31.3906 88.4551 31.4961 89.1436 31.707 89.7881C31.9238 90.4268 32.2197 90.9863 32.5947 91.4668C32.9756 91.9414 33.418 92.3516 33.9219 92.6973C34.4258 93.0371 34.9736 93.2949 35.5654 93.4707C36.1631 93.6465 36.7754 93.7344 37.4023 93.7344C38.375 93.7344 39.3008 93.5703 40.1797 93.2422V92.6094C39.3125 92.9434 38.4072 93.1104 37.4639 93.1104C36.749 93.1104 36.0664 92.9902 35.416 92.75C34.7656 92.5039 34.1855 92.1582 33.6758 91.7129C33.1719 91.2676 32.7705 90.6992 32.4717 90.0078C32.1729 89.3164 32.0234 88.5547 32.0234 87.7227C32.0234 86.75 32.2637 85.8506 32.7441 85.0244C33.2246 84.1982 33.8779 83.5449 34.7041 83.0645C35.5303 82.584 36.4297 82.3438 37.4023 82.3438C38.3105 82.3438 39.1543 82.5547 39.9336 82.9766C40.7188 83.3984 41.3574 83.9727 41.8496 84.6992L41.3223 85.042C40.8887 84.4092 40.3262 83.9082 39.6348 83.5391C38.9492 83.1641 38.2051 82.9766 37.4023 82.9766C36.541 82.9766 35.7471 83.1904 35.0205 83.6182C34.2939 84.04 33.7168 84.6143 33.2891 85.3408C32.8672 86.0674 32.6562 86.8613 32.6562 87.7227C32.6562 88.3203 32.7412 88.877 32.9111 89.3926C33.0811 89.9082 33.3154 90.3535 33.6143 90.7285C33.9131 91.1035 34.2617 91.4229 34.6602 91.6865C35.0645 91.9502 35.498 92.1494 35.9609 92.2842C36.4238 92.4131 36.9043 92.4775 37.4023 92.4775C38.3926 92.4775 39.3184 92.2812 40.1797 91.8887V91.2822C39.3477 91.6514 38.4482 91.8359 37.4814 91.8359C36.9248 91.8359 36.4004 91.751 35.9082 91.5811C35.416 91.4111 34.9707 91.1621 34.5723 90.834C34.1797 90.5059 33.8662 90.0752 33.6318 89.542C33.4033 89.0029 33.2891 88.3965 33.2891 87.7227C33.2891 87.166 33.3975 86.6357 33.6143 86.1318C33.8311 85.6221 34.124 85.1826 34.4932 84.8135C34.8623 84.4443 35.2988 84.1514 35.8027 83.9346C36.3125 83.7178 36.8457 83.6094 37.4023 83.6094C38.0996 83.6094 38.7471 83.7734 39.3447 84.1016C39.9424 84.4238 40.4287 84.8633 40.8037 85.4199L40.2852 85.7627C39.9688 85.2939 39.5557 84.9248 39.0459 84.6553C38.542 84.3799 37.9941 84.2422 37.4023 84.2422C36.4414 84.2422 35.6211 84.582 34.9414 85.2617C34.2617 85.9414 33.9219 86.7617 33.9219 87.7227C33.9219 88.3145 34.0186 88.8389 34.2119 89.2959C34.4053 89.7471 34.6689 90.1104 35.0029 90.3857C35.3428 90.6553 35.7178 90.8604 36.1279 91.001C36.5439 91.1357 36.9893 91.2031 37.4639 91.2031C38.4365 91.2031 39.3418 91.001 40.1797 90.5967V87.3975H40.8125ZM54.4707 89.3926V82.3438H55.1035V89.3926C55.1035 90.0605 54.8457 90.6348 54.3301 91.1152C53.8203 91.5957 53.2051 91.8359 52.4844 91.8359C51.7637 91.8359 51.1455 91.5957 50.6299 91.1152C50.1201 90.6348 49.8652 90.0605 49.8652 89.3926V82.3438H50.498V89.3926C50.498 89.8906 50.6914 90.3184 51.0781 90.6758C51.4707 91.0273 51.9395 91.2031 52.4844 91.2031C53.0293 91.2031 53.4951 91.0273 53.8818 90.6758C54.2744 90.3184 54.4707 89.8906 54.4707 89.3926ZM55.7363 89.3926V82.3438H56.3691V89.3926C56.3691 90.418 55.9883 91.2939 55.2266 92.0205C54.4648 92.7412 53.5508 93.1016 52.4844 93.1016C51.418 93.1016 50.5039 92.7412 49.7422 92.0205C48.9805 91.2939 48.5996 90.418 48.5996 89.3926V82.3438H49.2324V89.3926C49.2324 90.2422 49.5488 90.9688 50.1816 91.5723C50.8203 92.1699 51.5879 92.4688 52.4844 92.4688C53.375 92.4688 54.1396 92.1699 54.7783 91.5723C55.417 90.9688 55.7363 90.2422 55.7363 89.3926ZM57.002 89.3926V82.3438H57.6348V89.3926C57.6348 90.2891 57.4033 91.1211 56.9404 91.8887C56.4775 92.6504 55.8506 93.2539 55.0596 93.6992C54.2686 94.1445 53.4102 94.3672 52.4844 94.3672C51.5586 94.3672 50.7002 94.1445 49.9092 93.6992C49.1182 93.2539 48.4912 92.6504 48.0283 91.8887C47.5654 91.1211 47.334 90.2891 47.334 89.3926V82.3438H47.9668V89.3926C47.9668 90.1719 48.1689 90.8955 48.5732 91.5635C48.9775 92.2314 49.5254 92.7617 50.2168 93.1543C50.9141 93.541 51.6699 93.7344 52.4844 93.7344C53.2988 93.7344 54.0518 93.541 54.7432 93.1543C55.4404 92.7617 55.9912 92.2314 56.3955 91.5635C56.7998 90.8955 57.002 90.1719 57.002 89.3926ZM58.2676 89.3926V82.3438H58.9004V89.3926C58.9004 90.2363 58.7305 91.0449 58.3906 91.8184C58.0508 92.5859 57.5938 93.248 57.0195 93.8047C56.4453 94.3613 55.7627 94.8037 54.9717 95.1318C54.1807 95.4658 53.3516 95.6328 52.4844 95.6328C51.6172 95.6328 50.7881 95.4658 49.9971 95.1318C49.2061 94.8037 48.5234 94.3613 47.9492 93.8047C47.375 93.248 46.918 92.5859 46.5781 91.8184C46.2383 91.0449 46.0684 90.2363 46.0684 89.3926V82.3438H46.7012V89.3926C46.7012 90.4004 46.959 91.335 47.4746 92.1963C47.9961 93.0576 48.6992 93.7402 49.584 94.2441C50.4746 94.748 51.4414 95 52.4844 95C53.5273 95 54.4912 94.748 55.376 94.2441C56.2666 93.7402 56.9697 93.0576 57.4854 92.1963C58.0068 91.335 58.2676 90.4004 58.2676 89.3926ZM63.6553 95H63.0225V82.3438H63.6553V95ZM62.3896 95H61.7568V82.3438H62.3896V95ZM61.124 95H60.4912V82.3438H61.124V95ZM64.9209 91.8359H70.9766V92.4688H64.9209V93.1016H70.9766V93.7344H64.9209V94.3672H70.9766V95H64.2881V82.3438H70.9766V82.9766H64.9209V83.6094H70.9766V84.2422H64.9209V84.875H70.9766V85.5078H64.9209V87.0811H70.625V87.7139H64.9209V88.3467H70.625V88.9795H64.9209V89.6123H70.625V90.2451H64.9209V91.8359ZM78.3154 88.9795H77.3135C76.083 88.9795 75.1367 88.7305 74.4746 88.2324C73.8125 87.7285 73.4814 87.0371 73.4814 86.1582C73.4814 85.3379 73.8711 84.6553 74.6504 84.1104C75.4297 83.5596 76.5225 83.2842 77.9287 83.2842C78.8662 83.2842 79.7393 83.4131 80.5479 83.6709C81.3623 83.9287 82.0391 84.292 82.5781 84.7607L82.0859 85.1562C81.6055 84.7637 81.002 84.459 80.2754 84.2422C79.5488 84.0254 78.7666 83.917 77.9287 83.917C76.6924 83.917 75.7461 84.1279 75.0898 84.5498C74.4395 84.9717 74.1143 85.5078 74.1143 86.1582C74.1143 86.8613 74.3809 87.4033 74.9141 87.7842C75.4531 88.1592 76.2529 88.3467 77.3135 88.3467H78.2803C79.5283 88.3467 80.4834 88.5986 81.1455 89.1025C81.8135 89.6006 82.1475 90.2891 82.1475 91.168C82.1475 91.9883 81.7578 92.6738 80.9785 93.2246C80.1992 93.7695 79.1064 94.042 77.7002 94.042C76.7627 94.042 75.8867 93.9131 75.0723 93.6553C74.2637 93.3975 73.5898 93.0342 73.0508 92.5654L73.543 92.1699C74.0234 92.5625 74.627 92.8672 75.3535 93.084C76.0801 93.3008 76.8623 93.4092 77.7002 93.4092C78.9365 93.4092 79.8799 93.1982 80.5303 92.7764C81.1865 92.3545 81.5146 91.8184 81.5146 91.168C81.5146 90.4648 81.2451 89.9258 80.7061 89.5508C80.1729 89.1699 79.376 88.9795 78.3154 88.9795ZM78.3154 90.2451H77.3135C75.6846 90.2451 74.4277 89.876 73.543 89.1377C72.6582 88.3936 72.2158 87.4004 72.2158 86.1582C72.2158 85.5898 72.3418 85.0566 72.5938 84.5586C72.8457 84.0605 73.2061 83.624 73.6748 83.249C74.1494 82.8682 74.7529 82.5693 75.4854 82.3525C76.2178 82.1299 77.0322 82.0186 77.9287 82.0186C79.0596 82.0186 80.1172 82.1914 81.1016 82.5371C82.0859 82.877 82.9062 83.3545 83.5625 83.9697L83.0527 84.3477C82.4551 83.8086 81.708 83.3926 80.8115 83.0996C79.915 82.8008 78.9541 82.6514 77.9287 82.6514C76.3467 82.6514 75.1045 82.9854 74.2021 83.6533C73.2998 84.3213 72.8486 85.1562 72.8486 86.1582C72.8486 87.2188 73.2354 88.0596 74.0088 88.6807C74.7822 89.3018 75.8838 89.6123 77.3135 89.6123H78.2803C80.0146 89.6123 80.8818 90.1309 80.8818 91.168C80.8818 91.6367 80.6152 92.0234 80.082 92.3281C79.5547 92.627 78.7607 92.7764 77.7002 92.7764C76.9561 92.7764 76.2646 92.6914 75.626 92.5215C74.9873 92.3457 74.46 92.0967 74.0439 91.7744L74.5449 91.3877C75.2773 91.8916 76.3291 92.1436 77.7002 92.1436C78.5791 92.1436 79.2236 92.0527 79.6338 91.8711C80.0439 91.6895 80.249 91.4551 80.249 91.168C80.249 90.834 80.1055 90.5967 79.8184 90.4561C79.5312 90.3154 79.0303 90.2451 78.3154 90.2451ZM78.3154 87.7139H77.3135C75.6025 87.7139 74.7471 87.1953 74.7471 86.1582C74.7471 85.6895 75.0107 85.3057 75.5381 85.0068C76.0713 84.7021 76.8682 84.5498 77.9287 84.5498C78.6729 84.5498 79.3643 84.6377 80.0029 84.8135C80.6416 84.9834 81.1689 85.2295 81.585 85.5518L81.084 85.9385C80.3516 85.4346 79.2998 85.1826 77.9287 85.1826C77.0498 85.1826 76.4053 85.2734 75.9951 85.4551C75.585 85.6367 75.3799 85.8711 75.3799 86.1582C75.3799 86.4922 75.5234 86.7295 75.8105 86.8701C76.0977 87.0107 76.5986 87.0811 77.3135 87.0811H78.3154C79.9443 87.0811 81.2012 87.4531 82.0859 88.1973C82.9707 88.9355 83.4131 89.9258 83.4131 91.168C83.4131 91.7363 83.2871 92.2695 83.0352 92.7676C82.7832 93.2656 82.4199 93.7051 81.9453 94.0859C81.4766 94.4609 80.876 94.7598 80.1436 94.9824C79.4111 95.1992 78.5967 95.3076 77.7002 95.3076C76.5693 95.3076 75.5117 95.1377 74.5273 94.7979C73.543 94.4521 72.7227 93.9717 72.0664 93.3564L72.5762 92.9785C73.1738 93.5176 73.9209 93.9365 74.8174 94.2354C75.7139 94.5283 76.6748 94.6748 77.7002 94.6748C79.2822 94.6748 80.5244 94.3408 81.4268 93.6729C82.3291 93.0049 82.7803 92.1699 82.7803 91.168C82.7803 90.1074 82.3936 89.2666 81.6201 88.6455C80.8467 88.0244 79.7451 87.7139 78.3154 87.7139ZM90.6201 88.9795H89.6182C88.3877 88.9795 87.4414 88.7305 86.7793 88.2324C86.1172 87.7285 85.7861 87.0371 85.7861 86.1582C85.7861 85.3379 86.1758 84.6553 86.9551 84.1104C87.7344 83.5596 88.8271 83.2842 90.2334 83.2842C91.1709 83.2842 92.0439 83.4131 92.8525 83.6709C93.667 83.9287 94.3438 84.292 94.8828 84.7607L94.3906 85.1562C93.9102 84.7637 93.3066 84.459 92.5801 84.2422C91.8535 84.0254 91.0713 83.917 90.2334 83.917C88.9971 83.917 88.0508 84.1279 87.3945 84.5498C86.7441 84.9717 86.4189 85.5078 86.4189 86.1582C86.4189 86.8613 86.6855 87.4033 87.2188 87.7842C87.7578 88.1592 88.5576 88.3467 89.6182 88.3467H90.585C91.833 88.3467 92.7881 88.5986 93.4502 89.1025C94.1182 89.6006 94.4521 90.2891 94.4521 91.168C94.4521 91.9883 94.0625 92.6738 93.2832 93.2246C92.5039 93.7695 91.4111 94.042 90.0049 94.042C89.0674 94.042 88.1914 93.9131 87.377 93.6553C86.5684 93.3975 85.8945 93.0342 85.3555 92.5654L85.8477 92.1699C86.3281 92.5625 86.9316 92.8672 87.6582 93.084C88.3848 93.3008 89.167 93.4092 90.0049 93.4092C91.2412 93.4092 92.1846 93.1982 92.835 92.7764C93.4912 92.3545 93.8193 91.8184 93.8193 91.168C93.8193 90.4648 93.5498 89.9258 93.0107 89.5508C92.4775 89.1699 91.6807 88.9795 90.6201 88.9795ZM90.6201 90.2451H89.6182C87.9893 90.2451 86.7324 89.876 85.8477 89.1377C84.9629 88.3936 84.5205 87.4004 84.5205 86.1582C84.5205 85.5898 84.6465 85.0566 84.8984 84.5586C85.1504 84.0605 85.5107 83.624 85.9795 83.249C86.4541 82.8682 87.0576 82.5693 87.79 82.3525C88.5225 82.1299 89.3369 82.0186 90.2334 82.0186C91.3643 82.0186 92.4219 82.1914 93.4062 82.5371C94.3906 82.877 95.2109 83.3545 95.8672 83.9697L95.3574 84.3477C94.7598 83.8086 94.0127 83.3926 93.1162 83.0996C92.2197 82.8008 91.2588 82.6514 90.2334 82.6514C88.6514 82.6514 87.4092 82.9854 86.5068 83.6533C85.6045 84.3213 85.1533 85.1562 85.1533 86.1582C85.1533 87.2188 85.54 88.0596 86.3135 88.6807C87.0869 89.3018 88.1885 89.6123 89.6182 89.6123H90.585C92.3193 89.6123 93.1865 90.1309 93.1865 91.168C93.1865 91.6367 92.9199 92.0234 92.3867 92.3281C91.8594 92.627 91.0654 92.7764 90.0049 92.7764C89.2607 92.7764 88.5693 92.6914 87.9307 92.5215C87.292 92.3457 86.7646 92.0967 86.3486 91.7744L86.8496 91.3877C87.582 91.8916 88.6338 92.1436 90.0049 92.1436C90.8838 92.1436 91.5283 92.0527 91.9385 91.8711C92.3486 91.6895 92.5537 91.4551 92.5537 91.168C92.5537 90.834 92.4102 90.5967 92.123 90.4561C91.8359 90.3154 91.335 90.2451 90.6201 90.2451ZM90.6201 87.7139H89.6182C87.9072 87.7139 87.0518 87.1953 87.0518 86.1582C87.0518 85.6895 87.3154 85.3057 87.8428 85.0068C88.376 84.7021 89.1729 84.5498 90.2334 84.5498C90.9775 84.5498 91.6689 84.6377 92.3076 84.8135C92.9463 84.9834 93.4736 85.2295 93.8896 85.5518L93.3887 85.9385C92.6562 85.4346 91.6045 85.1826 90.2334 85.1826C89.3545 85.1826 88.71 85.2734 88.2998 85.4551C87.8896 85.6367 87.6846 85.8711 87.6846 86.1582C87.6846 86.4922 87.8281 86.7295 88.1152 86.8701C88.4023 87.0107 88.9033 87.0811 89.6182 87.0811H90.6201C92.249 87.0811 93.5059 87.4531 94.3906 88.1973C95.2754 88.9355 95.7178 89.9258 95.7178 91.168C95.7178 91.7363 95.5918 92.2695 95.3398 92.7676C95.0879 93.2656 94.7246 93.7051 94.25 94.0859C93.7812 94.4609 93.1807 94.7598 92.4482 94.9824C91.7158 95.1992 90.9014 95.3076 90.0049 95.3076C88.874 95.3076 87.8164 95.1377 86.832 94.7979C85.8477 94.4521 85.0273 93.9717 84.3711 93.3564L84.8809 92.9785C85.4785 93.5176 86.2256 93.9365 87.1221 94.2354C88.0186 94.5283 88.9795 94.6748 90.0049 94.6748C91.5869 94.6748 92.8291 94.3408 93.7314 93.6729C94.6338 93.0049 95.085 92.1699 95.085 91.168C95.085 90.1074 94.6982 89.2666 93.9248 88.6455C93.1514 88.0244 92.0498 87.7139 90.6201 87.7139ZM34.7393 116.109H38.4131C39.0166 116.109 39.5264 115.907 39.9424 115.503C40.3643 115.093 40.5752 114.516 40.5752 113.771C40.5752 113.215 40.3555 112.717 39.916 112.277C39.4766 111.832 38.9756 111.609 38.4131 111.609H32.9814V123H32.3486V110.977H38.4131C39.1514 110.977 39.8018 111.261 40.3643 111.829C40.9268 112.397 41.208 113.045 41.208 113.771C41.208 114.668 40.9355 115.389 40.3906 115.934C39.8457 116.473 39.1865 116.742 38.4131 116.742H34.7393V116.109ZM34.7393 117.375H38.4131C39.0225 117.375 39.585 117.229 40.1006 116.936C40.6221 116.637 41.041 116.209 41.3574 115.652C41.6797 115.096 41.8408 114.469 41.8408 113.771C41.8408 112.869 41.4951 112.072 40.8037 111.381C40.1182 110.689 39.3213 110.344 38.4131 110.344H31.7158V123H31.083V109.711H38.4131C39.1221 109.711 39.79 109.898 40.417 110.273C41.0439 110.648 41.542 111.149 41.9111 111.776C42.2861 112.403 42.4736 113.068 42.4736 113.771C42.4736 114.568 42.2861 115.295 41.9111 115.951C41.5361 116.602 41.0381 117.108 40.417 117.472C39.8018 117.829 39.1338 118.008 38.4131 118.008H34.7393V117.375ZM34.7393 118.641H38.4131C39.04 118.641 39.6406 118.518 40.2148 118.271C40.7891 118.02 41.2871 117.683 41.709 117.261C42.1367 116.833 42.4766 116.317 42.7285 115.714C42.9805 115.104 43.1064 114.457 43.1064 113.771C43.1064 112.951 42.8926 112.181 42.4648 111.46C42.0371 110.733 41.46 110.156 40.7334 109.729C40.0127 109.295 39.2393 109.078 38.4131 109.078H30.4502V123H29.8174V108.445H38.4131C39.3506 108.445 40.2295 108.691 41.0498 109.184C41.8701 109.67 42.5234 110.323 43.0098 111.144C43.4961 111.964 43.7393 112.84 43.7393 113.771C43.7393 114.604 43.5957 115.371 43.3086 116.074C43.0215 116.771 42.6348 117.352 42.1484 117.814C41.6621 118.277 41.0967 118.638 40.4521 118.896C39.8076 119.147 39.1279 119.273 38.4131 119.273H34.7393V118.641ZM34.2471 123H33.6143V112.242H38.4131C38.8291 112.242 39.1865 112.395 39.4854 112.699C39.79 113.004 39.9424 113.361 39.9424 113.771C39.9424 114.908 39.4326 115.477 38.4131 115.477H34.7393V114.844H38.4131C38.6943 114.844 38.9141 114.765 39.0723 114.606C39.2305 114.448 39.3096 114.17 39.3096 113.771C39.3096 113.514 39.2217 113.3 39.0459 113.13C38.876 112.96 38.665 112.875 38.4131 112.875H34.2471V123ZM54.1104 116.76C54.1104 116.01 53.8789 115.43 53.416 115.02C52.9531 114.609 52.3408 114.404 51.5791 114.404C50.9346 114.404 50.3809 114.627 49.918 115.072C49.4551 115.518 49.2236 116.051 49.2236 116.672C49.2236 117.023 49.2705 117.34 49.3643 117.621C49.458 117.896 49.584 118.128 49.7422 118.315C49.9062 118.497 50.0996 118.649 50.3223 118.772C50.5449 118.89 50.7764 118.975 51.0166 119.027C51.2627 119.08 51.5234 119.106 51.7988 119.106C52.4668 119.106 53.0762 118.942 53.627 118.614V119.247C53.0586 119.546 52.4463 119.695 51.79 119.695C51.3682 119.695 50.9697 119.64 50.5947 119.528C50.2256 119.411 49.8887 119.238 49.584 119.01C49.2793 118.775 49.0361 118.459 48.8545 118.061C48.6787 117.656 48.5908 117.193 48.5908 116.672C48.5908 115.863 48.875 115.178 49.4434 114.615C50.0117 114.053 50.7236 113.771 51.5791 113.771C52.5225 113.771 53.2842 114.038 53.8643 114.571C54.4502 115.099 54.7432 115.828 54.7432 116.76V123H54.1104V116.76ZM56.0088 116.76V123H55.376V116.76C55.376 115.652 55.0215 114.773 54.3125 114.123C53.6035 113.467 52.6924 113.139 51.5791 113.139C50.5479 113.139 49.6865 113.481 48.9951 114.167C48.3037 114.853 47.958 115.688 47.958 116.672C47.958 117.27 48.0605 117.806 48.2656 118.28C48.4766 118.755 48.7607 119.136 49.1182 119.423C49.4756 119.71 49.874 119.93 50.3135 120.082C50.7588 120.229 51.2275 120.302 51.7197 120.302C52.3877 120.302 53.0234 120.146 53.627 119.836V120.504C52.9941 120.768 52.3555 120.899 51.7109 120.899C51.1309 120.899 50.5801 120.812 50.0586 120.636C49.5371 120.454 49.0713 120.193 48.6611 119.854C48.251 119.508 47.9258 119.062 47.6855 118.518C47.4453 117.967 47.3252 117.352 47.3252 116.672C47.3252 115.518 47.7324 114.536 48.5469 113.728C49.3672 112.913 50.3779 112.506 51.5791 112.506C52.4229 112.506 53.1787 112.679 53.8467 113.024C54.5146 113.364 55.042 113.859 55.4287 114.51C55.8154 115.16 56.0088 115.91 56.0088 116.76ZM57.2744 116.76V123H56.6416V116.76C56.6416 115.793 56.4189 114.938 55.9736 114.193C55.5342 113.443 54.9307 112.869 54.1631 112.471C53.3955 112.072 52.5342 111.873 51.5791 111.873C50.6709 111.873 49.8418 112.09 49.0918 112.523C48.3418 112.951 47.7529 113.531 47.3252 114.264C46.9033 114.996 46.6924 115.799 46.6924 116.672C46.6924 117.422 46.8301 118.107 47.1055 118.729C47.3809 119.344 47.75 119.851 48.2129 120.249C48.6816 120.647 49.2119 120.958 49.8037 121.181C50.4014 121.397 51.0254 121.506 51.6758 121.506C52.3379 121.506 52.9883 121.368 53.627 121.093V121.734C52.959 121.986 52.3027 122.112 51.6582 122.112C50.6445 122.112 49.7129 121.884 48.8633 121.427C48.0137 120.97 47.334 120.322 46.8242 119.484C46.3145 118.646 46.0596 117.709 46.0596 116.672C46.0596 115.934 46.2002 115.23 46.4814 114.562C46.7686 113.895 47.1553 113.317 47.6416 112.831C48.1279 112.345 48.7139 111.958 49.3994 111.671C50.085 111.384 50.8115 111.24 51.5791 111.24C52.6514 111.24 53.6182 111.469 54.4795 111.926C55.3467 112.383 56.0293 113.033 56.5273 113.877C57.0254 114.721 57.2744 115.682 57.2744 116.76ZM58.54 116.76V123H57.9072V116.76C57.9072 115.564 57.6289 114.498 57.0723 113.561C56.5156 112.617 55.7568 111.891 54.7959 111.381C53.835 110.865 52.7627 110.607 51.5791 110.607C50.4424 110.607 49.4023 110.88 48.459 111.425C47.5156 111.97 46.7744 112.708 46.2354 113.64C45.6963 114.565 45.4268 115.576 45.4268 116.672C45.4268 117.393 45.541 118.078 45.7695 118.729C46.0039 119.373 46.3203 119.938 46.7188 120.425C47.123 120.905 47.5859 121.321 48.1074 121.673C48.6348 122.024 49.2002 122.291 49.8037 122.473C50.4131 122.654 51.0312 122.745 51.6582 122.745C52.3496 122.745 53.0059 122.613 53.627 122.35V123C52.9766 123.229 52.3086 123.343 51.623 123.343C50.9141 123.343 50.2227 123.243 49.5488 123.044C48.8809 122.845 48.2598 122.552 47.6855 122.165C47.1172 121.772 46.6162 121.312 46.1826 120.785C45.749 120.252 45.4092 119.631 45.1631 118.922C44.917 118.213 44.7939 117.463 44.7939 116.672C44.7939 115.764 44.9639 114.899 45.3037 114.079C45.6494 113.253 46.1182 112.541 46.71 111.943C47.3076 111.34 48.0283 110.862 48.8721 110.511C49.7217 110.153 50.624 109.975 51.5791 109.975C52.5518 109.975 53.4658 110.139 54.3213 110.467C55.1768 110.795 55.915 111.252 56.5361 111.838C57.1572 112.418 57.6465 113.133 58.0039 113.982C58.3613 114.832 58.54 115.758 58.54 116.76ZM72.585 118.931C72.708 118.937 72.8574 118.939 73.0332 118.939C73.209 118.939 73.3555 118.937 73.4727 118.931C73.5957 118.919 73.7217 118.896 73.8506 118.86C73.9795 118.819 74.082 118.767 74.1582 118.702C74.2344 118.638 74.2959 118.547 74.3428 118.43C74.3955 118.307 74.4219 118.16 74.4219 117.99V110.344H75.0547V117.99C75.0547 119.045 74.3809 119.572 73.0332 119.572C72.3535 119.572 71.8496 119.443 71.5215 119.186C71.4746 119.414 71.4189 119.616 71.3545 119.792C71.7998 120.067 72.3594 120.205 73.0332 120.205C73.8184 120.205 74.457 120.023 74.9492 119.66C75.4414 119.291 75.6875 118.734 75.6875 117.99V110.344H76.3203V117.99C76.3203 118.91 76.0098 119.616 75.3887 120.108C74.7734 120.595 73.9883 120.838 73.0332 120.838C72.2891 120.838 71.6504 120.686 71.1172 120.381C71.0293 120.568 70.9268 120.747 70.8096 120.917C71.4482 121.286 72.1895 121.471 73.0332 121.471C73.5781 121.471 74.085 121.395 74.5537 121.242C75.0283 121.09 75.4443 120.87 75.8018 120.583C76.1592 120.296 76.4404 119.93 76.6455 119.484C76.8506 119.039 76.9531 118.541 76.9531 117.99V110.344H77.5859V117.99C77.5859 118.834 77.3779 119.572 76.9619 120.205C76.5518 120.838 76.0039 121.312 75.3184 121.629C74.6387 121.945 73.877 122.104 73.0332 122.104C72.0488 122.104 71.1816 121.878 70.4316 121.427C70.2676 121.614 70.1182 121.767 69.9834 121.884C70.8564 122.452 71.873 122.736 73.0332 122.736C73.9883 122.736 74.8555 122.549 75.6348 122.174C76.4141 121.799 77.0381 121.248 77.5068 120.521C77.9814 119.789 78.2188 118.945 78.2188 117.99V110.344H78.8516V117.99C78.8516 118.799 78.6963 119.543 78.3857 120.223C78.0811 120.902 77.665 121.471 77.1377 121.928C76.6162 122.385 76.001 122.739 75.292 122.991C74.583 123.243 73.8301 123.369 73.0332 123.369C71.6387 123.369 70.4463 123.012 69.4561 122.297C68.4307 123.012 67.2207 123.369 65.8262 123.369C65.0293 123.369 64.2764 123.243 63.5674 122.991C62.8584 122.739 62.2402 122.385 61.7129 121.928C61.1914 121.471 60.7754 120.902 60.4648 120.223C60.1602 119.543 60.0078 118.799 60.0078 117.99V110.344H60.6406V117.99C60.6406 118.711 60.7754 119.373 61.0449 119.977C61.3203 120.58 61.6924 121.081 62.1611 121.479C62.6299 121.878 63.1777 122.188 63.8047 122.411C64.4375 122.628 65.1113 122.736 65.8262 122.736C66.7578 122.736 67.6221 122.525 68.4189 122.104C69.2158 121.676 69.8457 121.099 70.3086 120.372C70.7773 119.64 71.0117 118.846 71.0117 117.99V110.344H71.6445V117.99C71.6445 118.16 71.668 118.307 71.7148 118.43C71.7676 118.547 71.832 118.638 71.9082 118.702C71.9844 118.767 72.0869 118.819 72.2158 118.86C72.3447 118.896 72.4678 118.919 72.585 118.931ZM67.8477 110.344V117.99C67.8477 119.045 67.1738 119.572 65.8262 119.572C64.4785 119.572 63.8047 119.045 63.8047 117.99V110.344H64.4375V117.99C64.4375 118.16 64.4609 118.307 64.5078 118.43C64.5605 118.547 64.625 118.638 64.7012 118.702C64.7773 118.767 64.8799 118.819 65.0088 118.86C65.1377 118.896 65.2607 118.919 65.3779 118.931C65.501 118.937 65.6504 118.939 65.8262 118.939C66.002 118.939 66.1484 118.937 66.2656 118.931C66.3887 118.919 66.5146 118.896 66.6436 118.86C66.7725 118.819 66.875 118.767 66.9512 118.702C67.0273 118.638 67.0889 118.547 67.1357 118.43C67.1885 118.307 67.2148 118.16 67.2148 117.99V110.344H67.8477ZM69.1133 110.344V117.99C69.1133 118.91 68.8027 119.616 68.1816 120.108C67.5664 120.595 66.7812 120.838 65.8262 120.838C64.8711 120.838 64.083 120.595 63.4619 120.108C62.8467 119.616 62.5391 118.91 62.5391 117.99V110.344H63.1719V117.99C63.1719 118.734 63.418 119.291 63.9102 119.66C64.4023 120.023 65.041 120.205 65.8262 120.205C66.6113 120.205 67.25 120.023 67.7422 119.66C68.2344 119.291 68.4805 118.734 68.4805 117.99V110.344H69.1133ZM70.3789 110.344V117.99C70.3789 118.834 70.1709 119.572 69.7549 120.205C69.3447 120.838 68.7969 121.312 68.1113 121.629C67.4316 121.945 66.6699 122.104 65.8262 122.104C64.9824 122.104 64.2178 121.945 63.5322 121.629C62.8525 121.312 62.3047 120.838 61.8887 120.205C61.4785 119.572 61.2734 118.834 61.2734 117.99V110.344H61.9062V117.99C61.9062 118.541 62.0088 119.039 62.2139 119.484C62.4189 119.93 62.7002 120.296 63.0576 120.583C63.415 120.87 63.8281 121.09 64.2969 121.242C64.7715 121.395 65.2812 121.471 65.8262 121.471C66.3711 121.471 66.8779 121.395 67.3467 121.242C67.8213 121.09 68.2373 120.87 68.5947 120.583C68.9521 120.296 69.2334 119.93 69.4385 119.484C69.6436 119.039 69.7461 118.541 69.7461 117.99V110.344H70.3789ZM86.2607 116.979H85.2588C84.0283 116.979 83.082 116.73 82.4199 116.232C81.7578 115.729 81.4268 115.037 81.4268 114.158C81.4268 113.338 81.8164 112.655 82.5957 112.11C83.375 111.56 84.4678 111.284 85.874 111.284C86.8115 111.284 87.6846 111.413 88.4932 111.671C89.3076 111.929 89.9844 112.292 90.5234 112.761L90.0312 113.156C89.5508 112.764 88.9473 112.459 88.2207 112.242C87.4941 112.025 86.7119 111.917 85.874 111.917C84.6377 111.917 83.6914 112.128 83.0352 112.55C82.3848 112.972 82.0596 113.508 82.0596 114.158C82.0596 114.861 82.3262 115.403 82.8594 115.784C83.3984 116.159 84.1982 116.347 85.2588 116.347H86.2256C87.4736 116.347 88.4287 116.599 89.0908 117.103C89.7588 117.601 90.0928 118.289 90.0928 119.168C90.0928 119.988 89.7031 120.674 88.9238 121.225C88.1445 121.77 87.0518 122.042 85.6455 122.042C84.708 122.042 83.832 121.913 83.0176 121.655C82.209 121.397 81.5352 121.034 80.9961 120.565L81.4883 120.17C81.9688 120.562 82.5723 120.867 83.2988 121.084C84.0254 121.301 84.8076 121.409 85.6455 121.409C86.8818 121.409 87.8252 121.198 88.4756 120.776C89.1318 120.354 89.46 119.818 89.46 119.168C89.46 118.465 89.1904 117.926 88.6514 117.551C88.1182 117.17 87.3213 116.979 86.2607 116.979ZM86.2607 118.245H85.2588C83.6299 118.245 82.373 117.876 81.4883 117.138C80.6035 116.394 80.1611 115.4 80.1611 114.158C80.1611 113.59 80.2871 113.057 80.5391 112.559C80.791 112.061 81.1514 111.624 81.6201 111.249C82.0947 110.868 82.6982 110.569 83.4307 110.353C84.1631 110.13 84.9775 110.019 85.874 110.019C87.0049 110.019 88.0625 110.191 89.0469 110.537C90.0312 110.877 90.8516 111.354 91.5078 111.97L90.998 112.348C90.4004 111.809 89.6533 111.393 88.7568 111.1C87.8604 110.801 86.8994 110.651 85.874 110.651C84.292 110.651 83.0498 110.985 82.1475 111.653C81.2451 112.321 80.7939 113.156 80.7939 114.158C80.7939 115.219 81.1807 116.06 81.9541 116.681C82.7275 117.302 83.8291 117.612 85.2588 117.612H86.2256C87.96 117.612 88.8271 118.131 88.8271 119.168C88.8271 119.637 88.5605 120.023 88.0273 120.328C87.5 120.627 86.7061 120.776 85.6455 120.776C84.9014 120.776 84.21 120.691 83.5713 120.521C82.9326 120.346 82.4053 120.097 81.9893 119.774L82.4902 119.388C83.2227 119.892 84.2744 120.144 85.6455 120.144C86.5244 120.144 87.1689 120.053 87.5791 119.871C87.9893 119.689 88.1943 119.455 88.1943 119.168C88.1943 118.834 88.0508 118.597 87.7637 118.456C87.4766 118.315 86.9756 118.245 86.2607 118.245ZM86.2607 115.714H85.2588C83.5479 115.714 82.6924 115.195 82.6924 114.158C82.6924 113.689 82.9561 113.306 83.4834 113.007C84.0166 112.702 84.8135 112.55 85.874 112.55C86.6182 112.55 87.3096 112.638 87.9482 112.813C88.5869 112.983 89.1143 113.229 89.5303 113.552L89.0293 113.938C88.2969 113.435 87.2451 113.183 85.874 113.183C84.9951 113.183 84.3506 113.273 83.9404 113.455C83.5303 113.637 83.3252 113.871 83.3252 114.158C83.3252 114.492 83.4688 114.729 83.7559 114.87C84.043 115.011 84.5439 115.081 85.2588 115.081H86.2607C87.8896 115.081 89.1465 115.453 90.0312 116.197C90.916 116.936 91.3584 117.926 91.3584 119.168C91.3584 119.736 91.2324 120.27 90.9805 120.768C90.7285 121.266 90.3652 121.705 89.8906 122.086C89.4219 122.461 88.8213 122.76 88.0889 122.982C87.3564 123.199 86.542 123.308 85.6455 123.308C84.5146 123.308 83.457 123.138 82.4727 122.798C81.4883 122.452 80.668 121.972 80.0117 121.356L80.5215 120.979C81.1191 121.518 81.8662 121.937 82.7627 122.235C83.6592 122.528 84.6201 122.675 85.6455 122.675C87.2275 122.675 88.4697 122.341 89.3721 121.673C90.2744 121.005 90.7256 120.17 90.7256 119.168C90.7256 118.107 90.3389 117.267 89.5654 116.646C88.792 116.024 87.6904 115.714 86.2607 115.714Z" fill="#356879"/>
</svg>
