<?xml version="1.0" encoding="utf-8"?>

<!DOCTYPE svg PUBLIC "-//W3C//DTD SVG 1.1//EN" "http://www.w3.org/Graphics/SVG/1.1/DTD/svg11.dtd">
<svg version="1.1" id="Layer_1" xmlns="http://www.w3.org/2000/svg" xmlns:xlink="http://www.w3.org/1999/xlink" x="0px" y="0px"
	 viewBox="-40.9124 -46.8979 1865.8248 2138.7959" enable-background="new -40.9124 -46.8979 1865.8248 2138.7959"
	 xml:space="preserve">
<g>
	<path stroke="#000000" stroke-width="0.0938" d="M232.54,0h19.92c3.83,0.51,7.7,0.69,11.56,0.91
		c38.2,3.75,74.84,16.96,108.97,34.11c48.33,24.68,92.12,57.41,132.58,93.39c5.97,5.17,11.52,10.81,17.59,15.86
		c10.65-4.23,21.01-9.23,31.7-13.41C640.22,96.18,731.3,76.34,823.1,69.7c44.2401-3.17,88.72-3.76,132.98-0.55
		c101.3599,7.23,201.43,33.53,292.84,78.02c1.97,1.01,3.99,1.93,6.0499,2.78c26.2101-24.65,53.4301-48.31,82.6-69.41
		c33.7101-24.49,69.8-46.12,108.7101-61.28c27.23-10.67,56-17.71,85.25-19.26h19.9299c6.42,0.96,12.99,0.65,19.36,2.07
		c1.2401,0.23,2.1001,1.29,3.03,2.09c24.4,25.21,41.37,56.64,53.74,89.22c16.4,43.35,24.4601,89.44,27.49,135.57
		c5.0901,89.52-10.47,180.22-45.24,262.89c-1.23,3.59-4.5599,7.51-1.98,11.25c35.7001,72.47,59.83,150.59,71.47,230.52
		c9.13,63,10.89,127.09,4.9501,190.48c8.87,0.78,17.8099,0.1,26.72,0.33c24.33-0.09,48.67,0.16,73-0.13v9.93
		c-33.6,0.1801-67.2,0-100.79,0.09c-3.95,29.89-9.26,59.67-17.8199,88.62c29.72,7.1201,59.72,13.19,89.4,20.43
		c1.0399,2.9301-0.9,6.35-1.26,9.4301c-29.36-6.2101-58.5801-13.0901-87.88-19.6001c-1.2101-0.1499-3.38-1.1-3.64,0.8101
		c-8.83,27.6-20.28,54.39-34.52,79.65c-1.6,1.76,0.49,3.12,1.87,4.0399c15.5601,10.75,31.04,21.6201,46.5701,32.42
		c2.6799,1.9,5.5499,3.5701,7.97,5.83c-1.63,2.66-3.37,5.25-5.26,7.7401c-6.14-3.4501-11.58-7.9801-17.4401-11.8501
		c-10.62-7.37-21.22-14.76-31.8199-22.1599c-2.67-1.8501-5.1901-3.91-8.1-5.3401c-18.7001,30.3201-41.38,58.2201-67.73,82.24
		c-50.88,46.8501-113.54,79.17-178.66,101.3301c-39.6801,13.61-80.52,23.64-121.74,31.3199c8.8199,14.89,17.62,29.8301,25.23,45.41
		c9.51,19.01,17.63,38.67,25.5699,58.38c6.5601,16.33,12.89,32.75,18.6801,49.37c6.9301,20.26,13.46,40.75,17.29,61.86
		c2.2899,12.39,3.8199,25.0701,2.6599,37.6801c-0.7999,7.4299-2.48,14.9099-6.1699,21.47c-3.75,7.03-9.99,12.67-17.38,15.65
		c-11.2001,4.5599-24.0601,4.24-35.38,0.24c-15.11-5.41-28.1801-15.23-39.8201-26.0801c-3.89-3.24-6.9399-7.34-10.9099-10.45
		c-0.54,55.58-1.15,111.59-11.6801,166.37c-6.35,32.89-16.86,65.54-35.4299,93.6801c-2.7101,4.26-5.9401,8.1399-8.75,12.33
		c2.2799,11.83,4.1,23.79,4.22,35.87c-0.01,21.02,0.4199,42.08-1.39,63.05c-1.47,16.4299-4.05,33.23-11.79,48.0199
		c-5.63,11.1001-14.83,20.4901-26.1799,25.75c-11.7201,5.67-25.01,6.9901-37.87,6.55c-15.5701-0.53-31.78-5.12-43.2101-16.17
		c-11.85-11.01-17.74-26.7799-20.84-42.2999c-3.14-14.4401-3.53-29.26-4.29-43.9601c-7.74,0.77-15.34,2.7201-23.08,3.6801
		c-40.22,6.11-80.97,8.1801-121.63,7.8c-42.28,0.3199-84.67-2.0601-126.43-8.88c-5.47-0.5601-10.75-2.42-16.24-2.5801
		c-0.9,20.8501-1.91,42.2001-9.38,61.9401c-5.12,13.76-14.73,26.26-27.99,32.98c-15.14,7.71-32.8,8.73-49.41,6.64
		c-16.17-2-31.81-10.37-41.1-23.96c-11.12-15.9301-14.46-35.64-16.26-54.5801c-1.05-13.63-1.61-27.3099-1.48-40.98
		c0.05-13.33-0.43-26.71,1.21-39.98c0.57-6.37,1.99-12.61,3.02-18.9c-7.38-9.92-14.22-20.25-19.74-31.33
		c-1.7-4.01-6.14-5.3401-9.5-7.55c-62.33-37.0699-116.75-86.1-165.37-139.62c-51.04-56.39-95.83-118.16-136.63-182.27
		c-3.36-5.33-6.78-10.63-10.01-16.0399c-6.6-11.53-9.66-25.1101-8.43-38.3601c0.7-7.01,3.29-14.24,8.62-19.0599
		c5.18-4.63,12.91-5.22,19.26-2.96c8.18,2.95,14.9,8.99,19.98,15.9199c43.64,64.49,91.18,126.59,145.22,182.77
		c28.04,29.0601,57.81,56.53,89.78,81.24c5.57,3.99,10.69,8.7001,16.67,12.09c-2.36-22.8999-4.2-45.8899-4.68-68.9199
		c-0.77-15.15-0.61-30.3101-1.02-45.4601c-5.2,3.16-9.34,7.78-14.46,11.1001c-9.41,6.6799-19.83,12.2999-31.2,14.73
		c-7.8,1.48-15.84,1.02-23.67,0.0399c-10.21-1.2799-20.46-5.0099-28.08-12.1c-8.31-7.71-12.23-19.11-12.56-30.25
		c-0.44-17.1899,4.22-34.01,9.86-50.09c13.78-38.47,32.63-74.83,48.52-112.4301c8.7-20.8099,18.01-41.3999,28.97-61.1399
		c4.47-8.6001,9.95-16.65,14.4-25.25c-41.27-7.26-82.13-17.0901-121.99-30.0701c-67.73-22.13-133.2-54.5599-186.55-102.42
		c-23.65-21.1599-44.74-45.2-62.48-71.5099c-3.47-4.7001-5.95-10.0701-9.73-14.52c-16.71,11.39-33.2,23.13-49.84,34.63
		c-3.69,2.4399-7.08,5.33-11.02,7.37c-1.94-2.4401-3.67-5.04-5.21-7.75c5.85-4.86,12.44-8.76,18.57-13.26
		c13.79-9.5801,27.53-19.23,41.34-28.76c1.81-1.11,0.09-3.14-0.46-4.4501c-13.97-24.2799-24.51-50.34-33.54-76.7999
		c-30.6,6.17-60.91,13.83-91.48,20.15c-0.41-3.1001-2.18-6.4301-1.31-9.4501c29.82-7.1799,59.93-13.4,89.8-20.4399
		c-4.26-15.76-8.55-31.54-11.39-47.64c-2.94-13.52-4.55-27.28-6.7-40.93c-33.62-0.15-67.25,0.09-100.88-0.11v-9.9
		c30.33,0.24,60.66,0,91,0.12c2.94,0.06,5.9,0.04,8.83-0.33c-5.61-58.36-4.25-117.26,1.63-175.55
		c9.18-88.81,31.61-176.58,69.48-257.58c0.83-1.69,1.54-3.61,0.57-5.41C143.77,416.91,128.85,343.05,128,269
		c-0.52-50.92,5.52-102.11,20.07-150.98C160.62,77.17,179.1,37.07,208.7,5.69c1.14-1.21,2.26-2.49,3.69-3.37
		C218.99,0.7,225.85,0.97,232.54,0 M515.51,600.67c-46.09,4.35-90.22,26.22-121.67,60.18c-28.7,30.41-46.96,70.51-50.94,112.15
		c-3.97,39.11,4.15,79.39,23.51,113.65c16.34,29.08,40.32,53.84,68.91,71.02c46.44,28.23,105.08,35.08,156.85,18.67
		c20.99-6.4,40.72-16.75,58.27-29.9c39.7-29.71,67.24-75.26,74.54-124.35c2.35-13.58,2.19-27.39,1.89-41.1201
		c-2.39-46.3799-22.72-91.48-55.57-124.27c-26.21-26.62-60.39-45.21-96.95-52.86C555.05,599.69,535.14,599.19,515.51,600.67
		 M1232.51,604.66c-50.36,4.09-98.4301,29.32-130.72,68.13c-26.2101,31.05-42.1901,70.61-44.61,111.18
		c-0.39,14.32-0.54,28.7401,1.96,42.9c7.08,46.48,32.25,89.73,68.75,119.29c34.35,28.01,78.7,44.01,123.11,42.84
		c32.0699,0.38,64.0601-8.36,92.04-23.91c30.27-16.79,55.84-41.91,73.1699-71.88c21.51-36.68,29.86-80.64,24.15-122.71
		c-5.13-39.31-23.12-76.72-50.23-105.59c-23.4301-25.04-53.61-43.74-86.5601-53.29C1280.6,604.77,1256.35,602.79,1232.51,604.66
		 M823.19,987.32c-0.3,2.84,2.98,4.83,4.39,7.14c8.58,10.32,17.82,20.11,27.96,28.91c10.83,9.04,22.62,17.8199,36.46,21.49
		c9.2-2.29,17.47-7.28,25.19-12.65c15.6-11.17,28.91-25.1899,41.07-39.95c1.04-1.55,2.87-2.93,2.69-4.98
		c-21.6-9.5-45.49-12.84-68.95-12.23C868.6,974.5,844.67,977.66,823.19,987.32 M195.96,1130.0601
		c23.73,33.7,53.58,62.9399,87.06,86.9099c31.22,22.4301,65.49,40.41,101.03,54.9601c40.35,16.47,82.37,28.5499,124.89,37.9199
		c93.63,20.25,189.48,27.84,285.05,30.9601c27.32,1.12,54.68,0.9299,82.01,1.58c14-0.01,28-0.02,42,0.01
		c23.65-0.84,47.35-0.2001,70.98-1.41c27.95-0.54,55.86-2.01,83.76-3.63c91.91-6.14,184.1801-17.41,272.59-44.25
		c39.92-12.3199,79.01-27.7999,115.4601-48.33c33.73-18.87,65.08-42.1801,92.0699-69.89c13.25-14.03,26.04-28.67,36.6-44.85
		c-166.8099-0.0801-333.61-0.04-500.4099-0.02c-5.28,24.65-19.3101,47.39-39.49,62.58
		c-15.8501,12.0701-35.1801,19.5801-55.0601,21.1c-11.84,1.3501-23.74-0.4299-35.33-2.7799c-4.61,20.72-14.89,40.2799-30.11,55.1799
		c-8.87,8.5-19.57,16.0801-31.99,17.92c-11.27,1.3099-22.14-3.66-31.21-9.9c-20.95-14.98-35.35-38.24-40.96-63.24
		c-16.96,3.95-34.8,4.5-51.75,0.1899c-21.12-5.13-40.58-17.0199-54.6801-33.5699c-11.72-13.45-19.72-29.99-23.41-47.42
		C644.37,1129.89,593.68,1130.05,543,1130C427.32,1130.04,311.64,1129.92,195.96,1130.0601 M887.22,1165.13
		c-10.1299,15.64-24.2,28.77-40.86,37.2c-2.66,0.6901-1.36,3.61-1.07,5.49c4.88,20.6901,17.37,39.9301,35.38,51.5
		c4.91,2.67,10.74,5.8501,16.43,3.77c7.4301-2.45,13.51-7.64,18.98-13.0499c11.82-12.36,20.26-28.16,23.17-45.0701
		c0.77-2.0399-1.68-2.5599-2.92-3.37c-16.11-8.37-29.67-21.26-39.49-36.47C893.63,1164.92,890.42,1164.89,887.22,1165.13
		 M709.21,1360.1c-39.16,55.87-61.6,122.9-66,190.86c-1.71,27.3301-0.64,54.73,0.19,82.0701c1.2,22.9299,2.95,45.9199,7.31,68.51
		c3.55,18.49,8.74,36.8099,17.16,53.72c8.54,17.59,20.88,33.41,36.25,45.5599c14.27,11.4601,30.85,19.7301,48.06,25.8
		c19.38,6.76,39.6,10.88,59.93,13.5699c28.46,3.7401,57.2,4.8101,85.89,4.64c24.69-0.1799,49.4-1.4199,73.89-4.64
		c21.51-2.87,42.93-7.24,63.3099-14.8099c17.53-6.46,34.3-15.4301,48.4801-27.6801c14.4399-12.2899,25.7799-27.98,33.7999-45.1
		c8.0701-17.25,13.09-35.77,16.48-54.46c3.9501-22.5,5.8-45.3,6.76-68.1c0.88-28.3101,1.8201-56.7001-0.2999-84.98
		c-5.41-65.7401-27.36-130.52-65.4401-184.5701c-46.61,2.47-93.29,4.35-139.98,4.6901c-51.67,0.5099-103.36,0.1699-154.99-1.79
		C756.39,1362.8199,732.81,1360.92,709.21,1360.1 M1207.16,1520.3c0.34,1.87,1.6,3.38,2.5,5.0399
		c10.85,18.3101,23.15,35.8201,37.4099,51.65c10.9401,11.85,23.05,23.0601,37.6001,30.3201c7.83,3.9299,17.1699,5.99,25.6499,2.9099
		c5.16-1.74,8.5801-6.58,10.03-11.65c3.14-10.96,1.9601-22.5299,0.4401-33.6499c-4.9-30.29-15.1901-59.3501-25.8301-88.02
		c-0.5699-1.22-0.74-2.73-1.84-3.5701C1264.49,1489.03,1235.85,1504.71,1207.16,1520.3 M487.06,1505.02
		c-9.22,21.1799-18.54,42.5499-23.51,65.21c-1.8,9.1801-3.13,19.0601,0.24,28.05c2.74,6.9,9.94,10.53,16.84,11.9399
		c9.04,1.79,18.83,2.61,27.49-1.2c14.07-5.73,25.74-15.92,36.4-26.5c14.96-15.5801,28.01-33,39.06-51.55
		c-28.78-15.95-57.69-31.6699-86.61-47.36C493.2,1490.5,490.4,1497.9,487.06,1505.02 M627.65,1982.73
		c1.66,8.52,4.5,16.99,9.33,24.27c4.53,6.95,11.73,11.99,19.68,14.28c10.98,3.2,22.76,3.27,33.9301,1.03
		c8.91-1.78,17.31-6.6001,22.67-14.03c5.4-7.52,8.64-16.49,10.14-25.5701C691.49,1982.5601,659.56,1982.52,627.65,1982.73
		 M1060.6,1982.7c1.8301,10.1901,5.5,20.4301,12.41,28.3301c6.65,7.6,16.66,11.23,26.49,12.3099
		c9.74,0.9701,19.83,0.67,29.1801-2.49c6.96-2.2899,13.2699-6.6799,17.5199-12.6799c5.39-7.49,8.4601-16.4501,10.16-25.4501
		C1124.4399,1982.53,1092.51,1982.5699,1060.6,1982.7z"/>
	<path fill="#F2D267" stroke="#F2D267" stroke-width="0.0938" d="M515.51,600.67c19.63-1.48,39.54-0.98,58.84,3.17
		c36.56,7.65,70.7401,26.24,96.95,52.86c32.85,32.79,53.18,77.89,55.57,124.27c0.3,13.73,0.46,27.54-1.89,41.1201
		c-7.3,49.09-34.84,94.64-74.54,124.35c-17.55,13.15-37.28,23.5-58.27,29.9c-51.77,16.41-110.41,9.56-156.85-18.67
		c-28.59-17.18-52.57-41.94-68.91-71.02c-19.36-34.26-27.48-74.54-23.51-113.65c3.98-41.64,22.24-81.74,50.94-112.15
		C425.29,626.89,469.42,605.02,515.51,600.67 M517.48,659.64c-25.66,3.22-50.26,14.18-69.88,31.02
		c-27.23,23.14-44.73,57.56-46.57,93.32c-2.44,33.81,8.9,68.33,30.75,94.23c21.81,26.35,54.14,43.87,88.22,47.2599
		c30.2,3.45,61.5-3.8799,87.01-20.42c23.1-14.82,41.36-36.93,51.69-62.34c13.86-34.15,12.86-74.11-3.03-107.4
		c-13.72-29.23-38.42-53.15-68.12-65.84C565.67,659.85,541.15,656.81,517.48,659.64z"/>
	<path fill="#F2D267" stroke="#F2D267" stroke-width="0.0938" d="M1232.51,604.66c23.84-1.87,48.09,0.11,71.0599,6.96
		c32.9501,9.55,63.13,28.25,86.5601,53.29c27.11,28.8701,45.1,66.28,50.23,105.59c5.71,42.07-2.64,86.03-24.15,122.71
		c-17.33,29.97-42.8999,55.09-73.1699,71.88c-27.98,15.55-59.9701,24.29-92.04,23.91c-44.41,1.17-88.76-14.83-123.11-42.84
		c-36.5-29.56-61.67-72.81-68.75-119.29c-2.5-14.16-2.35-28.58-1.96-42.9C1059.6,743.4,1075.58,703.84,1101.79,672.79
		C1134.08,633.98,1182.15,608.75,1232.51,604.66 M1233.4301,659.51c-16.9301,2.04-33.4801,7.26-48.4,15.53
		c-30.74,16.8-54.42,46.09-64.12,79.78c-6.3,21.79-6.99,45.18-2.03,67.31c7.67,34.79,30.1801,65.88,60.53,84.45
		c33.96,21.11,77.59,25.56,115.15,11.93c32.3999-11.46,59.9299-36,74.98-66.9c18.9299-37.68,18.24-84.4-1.63-121.57
		c-14.78-28.2-39.9701-50.7-69.61-62.29C1277.8101,659.62,1255.29,657.06,1233.4301,659.51z"/>
	<path fill="#0C090A" stroke="#0C090A" stroke-width="0.0938" d="M517.48,659.64c23.67-2.83,48.19,0.21,70.07,9.83
		c29.7,12.69,54.4,36.61,68.12,65.84c15.89,33.29,16.89,73.25,3.03,107.4c-10.33,25.41-28.59,47.52-51.69,62.34
		c-25.51,16.54-56.81,23.87-87.01,20.42c-34.08-3.39-66.41-20.91-88.22-47.2599c-21.85-25.9-33.19-60.42-30.75-94.23
		c1.84-35.76,19.34-70.18,46.57-93.32C467.22,673.82,491.82,662.86,517.48,659.64z"/>
	<path fill="#0C090A" stroke="#0C090A" stroke-width="0.0938" d="M1233.4301,659.51c21.86-2.45,44.38,0.11,64.87,8.24
		c29.6399,11.59,54.83,34.09,69.61,62.29c19.87,37.17,20.5599,83.89,1.63,121.57c-15.05,30.9-42.5801,55.44-74.98,66.9
		c-37.5601,13.63-81.1901,9.18-115.15-11.93c-30.35-18.57-52.86-49.66-60.53-84.45c-4.96-22.13-4.27-45.52,2.03-67.31
		c9.7-33.69,33.38-62.98,64.12-79.78C1199.95,666.77,1216.5,661.55,1233.4301,659.51z"/>
	<path fill="#C68282" stroke="#C68282" stroke-width="0.0938" d="M823.19,987.32c21.48-9.66,45.41-12.82,68.81-12.27
		c23.46-0.61,47.35,2.73,68.95,12.23c0.18,2.05-1.65,3.43-2.69,4.98c-12.16,14.76-25.47,28.78-41.07,39.95
		c-7.72,5.37-15.99,10.36-25.19,12.65c-13.84-3.67-25.63-12.45-36.46-21.49c-10.14-8.8-19.38-18.59-27.96-28.91
		C826.17,992.15,822.89,990.16,823.19,987.32z"/>
	<path fill="#FFFFFF" stroke="#FFFFFF" stroke-width="0.0938" d="M195.96,1130.0601c115.68-0.14,231.36-0.02,347.04-0.0601
		c50.68,0.05,101.37-0.11,152.06,0.08c3.69,17.4301,11.69,33.9701,23.41,47.42c14.1,16.55,33.5601,28.4399,54.6801,33.5699
		c16.95,4.3101,34.79,3.76,51.75-0.1899c5.61,25,20.0099,48.26,40.96,63.24c9.07,6.24,19.94,11.21,31.21,9.9
		c12.42-1.84,23.12-9.42,31.99-17.92c15.22-14.9,25.5-34.46,30.11-55.1799c11.59,2.35,23.49,4.13,35.33,2.7799
		c19.88-1.5199,39.21-9.0299,55.0601-21.1c20.1799-15.1899,34.21-37.9299,39.49-62.58c166.7999-0.02,333.6-0.0601,500.4099,0.02
		c-10.5599,16.1799-23.35,30.8199-36.6,44.85c-26.99,27.71-58.34,51.02-92.0699,69.89c-36.4501,20.53-75.54,36.01-115.4601,48.33
		c-88.4099,26.84-180.6799,38.11-272.59,44.25c-27.9,1.62-55.81,3.09-83.76,3.63c-23.63,1.21-47.33,0.5701-70.98,1.41
		c-14-0.03-28-0.02-42-0.01c-27.33-0.65-54.69-0.46-82.01-1.58c-95.57-3.1201-191.42-10.7101-285.05-30.9601
		c-42.52-9.37-84.54-21.45-124.89-37.9199c-35.54-14.55-69.81-32.53-101.03-54.9601C249.54,1193,219.69,1163.76,195.96,1130.0601z"
		/>
	<path fill="#CD6095" stroke="#CD6095" stroke-width="0.0938" d="M887.22,1165.13c3.2-0.24,6.41-0.21,9.6201,0
		c9.8199,15.21,23.3799,28.1,39.49,36.47c1.24,0.8101,3.69,1.3301,2.92,3.37c-2.91,16.91-11.35,32.7101-23.17,45.0701
		c-5.47,5.4099-11.55,10.6-18.98,13.0499c-5.69,2.0801-11.52-1.1-16.43-3.77c-18.01-11.5699-30.5-30.8099-35.38-51.5
		c-0.29-1.88-1.59-4.7999,1.07-5.49C863.02,1193.9,877.09,1180.77,887.22,1165.13z"/>
	<path fill="#FFFFFF" stroke="#FFFFFF" stroke-width="0.0938" d="M709.21,1360.1c23.6,0.8201,47.18,2.72,70.8,3.29
		c51.63,1.96,103.32,2.2999,154.99,1.79c46.69-0.3401,93.37-2.2201,139.98-4.6901c38.0801,54.05,60.03,118.83,65.4401,184.5701
		c2.12,28.2799,1.1799,56.6699,0.2999,84.98c-0.96,22.7999-2.8099,45.6-6.76,68.1c-3.39,18.6899-8.4099,37.21-16.48,54.46
		c-8.02,17.12-19.36,32.8101-33.7999,45.1C1069.5,1809.95,1052.73,1818.92,1035.2,1825.38
		c-20.3799,7.5699-41.7999,11.9399-63.3099,14.8099c-24.49,3.2201-49.2,4.4601-73.89,4.64c-28.69,0.17-57.43-0.8999-85.89-4.64
		c-20.33-2.6899-40.55-6.8099-59.93-13.5699c-17.21-6.0699-33.79-14.34-48.06-25.8c-15.37-12.1499-27.71-27.97-36.25-45.5599
		c-8.42-16.91-13.61-35.23-17.16-53.72c-4.36-22.5901-6.11-45.5801-7.31-68.51c-0.83-27.3401-1.9-54.74-0.19-82.0701
		C647.61,1483,670.05,1415.97,709.21,1360.1z"/>
	<path fill="#FFFFFF" stroke="#FFFFFF" stroke-width="0.0938" d="M1207.16,1520.3c28.6899-15.5901,57.33-31.27,85.96-46.9701
		c1.1,0.8401,1.27,2.3501,1.84,3.5701c10.64,28.6699,20.9301,57.73,25.8301,88.02c1.52,11.12,2.7,22.6899-0.4401,33.6499
		c-1.45,5.0701-4.87,9.91-10.03,11.65c-8.48,3.0801-17.8199,1.02-25.6499-2.9099c-14.55-7.26-26.66-18.4701-37.6001-30.3201
		c-14.2599-15.83-26.5599-33.34-37.4099-51.65C1208.76,1523.6801,1207.5,1522.17,1207.16,1520.3z"/>
	<path fill="#FFFFFF" stroke="#FFFFFF" stroke-width="0.0938" d="M487.06,1505.02c3.34-7.12,6.14-14.52,9.91-21.41
		c28.92,15.6901,57.83,31.41,86.61,47.36c-11.05,18.55-24.1,35.97-39.06,51.55c-10.66,10.58-22.33,20.77-36.4,26.5
		c-8.66,3.8099-18.45,2.99-27.49,1.2c-6.9-1.4099-14.1-5.0399-16.84-11.9399c-3.37-8.99-2.04-18.87-0.24-28.05
		C468.52,1547.5699,477.84,1526.2,487.06,1505.02z"/>
	<path fill="#FFFFFF" stroke="#FFFFFF" stroke-width="0.0938" d="M627.65,1982.73c31.91-0.21,63.84-0.1699,95.75-0.02
		c-1.5,9.0801-4.7401,18.05-10.14,25.5701c-5.36,7.4299-13.76,12.25-22.67,14.03c-11.17,2.24-22.95,2.1699-33.9301-1.03
		c-7.95-2.29-15.15-7.3301-19.68-14.28C632.15,1999.72,629.31,1991.25,627.65,1982.73z"/>
	<path fill="#FFFFFF" stroke="#FFFFFF" stroke-width="0.0938" d="M1060.6,1982.7c31.91-0.13,63.84-0.1699,95.76,0.02
		c-1.7,9-4.77,17.9601-10.16,25.4501c-4.25,6-10.5599,10.39-17.5199,12.6799c-9.3501,3.16-19.4401,3.4601-29.1801,2.49
		c-9.83-1.08-19.84-4.71-26.49-12.3099C1066.1,2003.13,1062.4301,1992.89,1060.6,1982.7z"/>
</g>
</svg>
