<?xml version="1.0" encoding="utf-8"?>
<!-- Generator: Adobe Illustrator 16.0.4, SVG Export Plug-In . SVG Version: 6.00 Build 0)  -->
<!DOCTYPE svg PUBLIC "-//W3C//DTD SVG 1.1//EN" "http://www.w3.org/Graphics/SVG/1.1/DTD/svg11.dtd">
<svg version="1.1" id="Layer_1" xmlns="http://www.w3.org/2000/svg" xmlns:xlink="http://www.w3.org/1999/xlink" x="0px" y="0px"
	 width="170px" height="170px" viewBox="0 0 170 170" enable-background="new 0 0 170 170" xml:space="preserve">
<title>Artboard 9</title>
<g>
	<g>
		<path fill="#3C773F" d="M50.68,141.26c-0.189,3.356-0.558,6.702-1.125,10.016c-0.199,1.16-0.438,2.357-1.132,3.31
			c-0.647,0.888-1.622,1.466-2.435,2.204c-0.812,0.736-1.41,1.938-1.188,3.013c1.382,0.562,10.548,0.451,14.051,0.298
			c0.886-0.039,1.626-0.676,1.79-1.547c0.552-2.941,1.251-9.701,1.904-13.593C58.538,143.913,54.557,142.712,50.68,141.26z"/>
		<path fill="#4DA053" d="M53.775,100.666c8.584-5.938,19.584-7.918,29.907-6.366c10.322,1.554,19.97,6.452,28.041,13.072
			c6.039,4.952,11.25,10.849,17.293,15.796c6.041,4.949,13.233,9.02,21.035,9.343c5.906,0.245,11.633-2.776,15.538-7.028
			c0.334-0.363,0.897,0.067,0.647,0.492c-4.271,7.2-10.67,13.142-18.209,16.791c-9.168,4.438-19.945,5.449-29.778,2.795
			c-1.688,4.389-4.205,11.275-5.896,15.664c-3.344,0.604-9.15,0.371-13.391-0.084c-0.626-2.273,6.48-6.442,5.016-13.113
			c-8.474,2.104-16.627,2.08-25.236,0.633c-0.242,3.617-0.812,8.863-1.053,12.48c-5.974,1.2-17.002,0-17.002,0
			c0.384-2.354,2.091-4.711,3.149-5.018c0.43-3.516,0.973-6.969,1.403-10.48c-6.85-1.682-13.685-3.727-20.095-6.668
			c-0.245-0.115-0.426-0.531-0.656-0.673c6.617-7.142,10.188-16.483,10.043-26.274C54.473,108.126,55.271,104.27,53.775,100.666z"/>
		<path fill="#3C773F" d="M103.979,148.027c-3.592,0.892-7.127,1.381-10.664,1.562c0.551,1.647,0.748,2.792-0.682,3.408
			c-2.674,1.153-3.703,5.239-4.06,5.944c0.571-0.07,8.034-0.03,11.215-0.012C101.496,156.489,105.061,152.938,103.979,148.027z"/>
		<path fill="#63B767" d="M92.066,99.165c0.25-0.724-0.465-1.401-1.131-1.774c-1.432-0.803-3.045-1.273-4.683-1.369
			c-0.668-0.037-1.493,0.088-1.729,0.713c-0.14,0.373,0.001,0.807,0.26,1.108c0.26,0.302,0.62,0.497,0.979,0.673
			c1.342,0.651,2.778,1.105,4.252,1.344c0.389,0.062,0.789,0.108,1.174,0.02C91.572,99.788,91.939,99.538,92.066,99.165z"/>
		<path fill="#63B767" d="M77.561,96.822c0.491,0.097,0.982,0.191,1.474,0.287c0.483,0.096,0.987,0.189,1.462,0.062
			c0.475-0.127,0.911-0.549,0.882-1.04c-0.023-0.395-0.334-0.722-0.694-0.882c-0.359-0.16-0.762-0.185-1.155-0.206
			c-0.593-0.033-1.186-0.066-1.778-0.1c-0.318-0.018-0.644-0.034-0.947,0.062c-0.304,0.096-0.583,0.333-0.637,0.646
			c-0.057,0.332,0.157,0.666,0.44,0.851C76.888,96.688,77.229,96.758,77.561,96.822z"/>
		<path fill="#63B767" d="M97.209,99.7c-0.475-0.273-0.971-0.556-1.518-0.577c-0.545-0.021-1.147,0.309-1.235,0.847
			c-0.103,0.623,0.485,1.136,1.048,1.425c0.414,0.213,0.85,0.383,1.301,0.504c0.502,0.139,1.131,0.18,1.452-0.23
			c0.263-0.332,0.188-0.838-0.056-1.186C97.955,100.136,97.576,99.913,97.209,99.7z"/>
		<path fill="#63B767" d="M79.762,100.905c0.008,0.468,0.361,0.872,0.778,1.083c0.418,0.21,0.894,0.261,1.359,0.31
			c0.498,0.052,1.015,0.103,1.488-0.059c0.474-0.162,0.895-0.597,0.872-1.097c-0.036-0.744-0.912-1.099-1.633-1.277
			c-0.574-0.143-1.173-0.286-1.751-0.159C80.296,99.831,79.75,100.314,79.762,100.905z"/>
		<path fill="#63B767" d="M73.462,98.577c0.407-0.121,0.823-0.267,1.135-0.556s0.494-0.758,0.332-1.149
			c-0.206-0.495-0.821-0.651-1.354-0.702c-1.541-0.146-3.113,0.059-4.565,0.591c-0.387,0.142-0.775,0.313-1.062,0.608
			c-0.287,0.296-0.452,0.74-0.315,1.13c0.23,0.651,1.089,0.778,1.78,0.752C70.783,99.195,72.147,98.969,73.462,98.577z"/>
		<path fill="#63B767" d="M92.077,104.902c0.472,0.011,1.052-0.045,1.241-0.479c0.123-0.281,0.012-0.622-0.197-0.848
			c-0.209-0.225-0.495-0.359-0.777-0.48c-0.41-0.176-0.846-0.34-1.292-0.311c-0.446,0.031-0.905,0.312-1.003,0.747
			c-0.104,0.46,0.229,0.927,0.648,1.136C91.119,104.88,91.605,104.895,92.077,104.902z"/>
		<path fill="#63B767" d="M78.628,148.593c0.172,0.066,0.349,0.121,0.526,0.167c0.167-0.85,1.38-9.406,0.754-11.604
			c-0.353,0.431-0.851,0.737-1.393,0.864C79.209,140.555,79.071,144.832,78.628,148.593z"/>
		<path fill="#63B767" d="M98.32,128.346c-1.782,1.885-1.747,5.094-1.491,7.492c0.291,2.729,1.219,5.361,2.51,7.771
			c0.646,1.203,1.384,2.367,2.202,3.459c0.348,0.464,0.741,1,1.268,1.277c0.197,0.104,0.416,0.202,0.646,0.148
			c0.084-0.02,0.625-0.363,0.524-0.469C98.955,142.729,96.688,135.3,98.32,128.346z"/>
		<path fill="#63B767" d="M75.851,138.534c-0.241,0.36-0.438,0.751-0.585,1.159c-0.151,0.418-0.223,0.953,0.108,1.25
			c0.273,0.246,0.717,0.201,1.023,0c0.307-0.202,0.508-0.524,0.701-0.838c0.238-0.387,0.483-0.797,0.504-1.25
			s-0.271-0.955-0.723-1.002C76.449,137.811,76.091,138.174,75.851,138.534z"/>
		<path fill="#63B767" d="M74.641,144.547c2.906-0.32-0.569,4.449-0.625,1.455c-0.009-0.508,0.384-1.177,0.731-1.538L74.641,144.547
			z"/>
		<path fill="#63B767" d="M99.802,132.295c0.021,0.639,0.218,1.744,1.013,1.834c0.447,0.051,0.89-0.238,1.097-0.637
			c0.207-0.4,0.205-0.883,0.073-1.312c-0.152-0.505-0.586-1.5-1.241-1.486C99.966,130.711,99.775,131.553,99.802,132.295z"/>
		<path fill="#63B767" d="M77.885,144.654c0.406-0.576,0.585-1.611,0.235-1.967c-0.607-0.615-1.286,0.603-1.453,1.15
			c-0.112,0.367-0.054,0.812,0.241,1.061C77.274,145.203,77.626,145.021,77.885,144.654z"/>
		<path fill="#63B767" d="M99.422,137.371c0.071,0.607,0.038,1.242,0.26,1.812c0.223,0.57,0.822,1.065,1.414,0.898
			c0.527-0.148,0.803-0.773,0.743-1.32c-0.06-0.548-0.366-1.029-0.665-1.492c-0.18-0.276-0.359-0.554-0.539-0.83
			c-0.146-0.228-0.328-0.477-0.595-0.506c-0.302-0.037-0.563,0.238-0.64,0.532C99.326,136.761,99.389,137.07,99.422,137.371z"/>
		<path fill="#63B767" d="M120.422,140.771c0.301-1.729,0.287-3.498,0.049-5.231c-0.375-2.729-1.068-4.821-1.068-4.821
			c0.404,4.12,0.609,8.456-0.393,12.504c-0.197,0.799-0.449,1.576-0.729,2.346c0.15,0.041,0.304,0.074,0.453,0.111
			C119.417,144.075,120.119,142.508,120.422,140.771z"/>
		<path fill="#63B767" d="M102.631,141.178c-1.217,0.5,0.104,3.118,1.208,2.487c0.777-0.442,0.187-1.953-0.385-2.331
			C103.13,141.119,102.848,141.087,102.631,141.178z"/>
		<path fill="#63B767" d="M103.868,135.596c0.317-0.082,0.573-0.408,0.562-0.777c-0.039-1.211-1.135-1.719-1.412-0.25
			c-0.063,0.332,0.039,0.707,0.31,0.908C103.502,135.609,103.695,135.639,103.868,135.596z"/>
		<path fill="#63B767" d="M105.368,145.07c-0.065,0.062-0.124,0.15-0.17,0.271c-0.205,0.533,0.444,1.114,0.95,0.896
			C107.062,145.84,105.928,144.527,105.368,145.07z"/>
		<path fill="#63B767" d="M104.333,139.5c0.692-0.999-1.783-2.857-1.272-0.537c0.092,0.417,0.711,1.061,1.146,0.682
			C104.257,139.598,104.299,139.55,104.333,139.5z"/>
		<g opacity="0.25">
			<path fill="#63B767" d="M65.207,145.896c0.067,0.022,0.135,0.043,0.203,0.066c0.012-1.51,0.068-3.02,0.175-4.525
				c-6.491-1.151-12.927-2.666-19.347-4.182c-0.348,0.58-0.696,1.158-1.044,1.738c6.396,2.93,13.212,4.972,20.045,6.646
				C65.229,145.727,65.217,145.811,65.207,145.896z"/>
		</g>
		<g opacity="0.25">
			<path fill="#63B767" d="M121.311,140.248c-0.318-0.107-0.639-0.221-0.957-0.332c0.071,2.014-0.646,3.79-1.602,5.482
				c0.137,0.099,0.255,0.218,0.332,0.367c9.605,2.379,20.034,1.312,28.943-3.002c3.695-1.789,7.109-4.136,10.142-6.904
				C147.266,142.467,133.432,144.34,121.311,140.248z"/>
		</g>
		<g opacity="0.25">
			<path fill="#63B767" d="M99.061,142.316c-6.43,1.146-13.043,1.332-19.588,0.891c-0.029,1.829-0.223,3.662-0.492,5.488
				c8.208,1.356,16.002,1.406,24.065-0.45C101.323,146.536,99.908,144.568,99.061,142.316z"/>
		</g>
		<g opacity="0.55">
			<g opacity="0.25">
				<path fill="#FFFFFF" d="M82.207,95.938c10.322,1.553,19.97,6.451,28.041,13.071c6.038,4.953,11.251,10.849,17.292,15.798
					c6.042,4.947,13.233,9.018,21.037,9.342c6.103,0.254,12.255-2.924,15.961-7.597c-3.8,3.634-9.136,6.183-14.487,5.959
					c-7.802-0.323-14.994-4.394-21.035-9.343c-6.043-4.947-11.254-10.844-17.293-15.796c-8.07-6.62-17.719-11.521-28.041-13.072
					c-10.322-1.552-21.322,0.429-29.907,6.366c0.075,0.182,0.141,0.363,0.205,0.546C62.292,96.127,72.546,94.484,82.207,95.938z"/>
			</g>
		</g>
		<g>
			<path fill="#63B767" d="M56.001,118.764c-1.544,7.516-5.192,14.604-10.496,20.153c0.385,0.312,0.843,0.528,1.327,0.633
				c0.571,0.124,0.999-0.431,0.855-0.934c0.523,0.19,1.142,0.14,1.535-0.265c0.501-0.517,0.432-1.377,0.012-1.94
				c0.663,0.211,1.475,0.024,1.863-0.566c0.347-0.53,0.265-1.245-0.084-1.766c0.488,0.095,1.025-0.038,1.323-0.443
				c0.277-0.378,0.268-0.888,0.073-1.31c0.332,0.1,0.692,0.102,1.014-0.028c0.711-0.29,1.13-1.146,0.946-1.89
				c-0.058-0.23-0.173-0.439-0.321-0.622c0.09-0.022,0.178-0.054,0.26-0.099c0.576-0.315,0.816-1.095,0.59-1.711
				c-0.118-0.32-0.345-0.586-0.625-0.781c0.642,0.041,1.321-0.278,1.59-0.871c0.288-0.637,0.029-1.418-0.492-1.864
				c0.72,0.104,1.546-0.3,1.734-1.024c0.19-0.731-0.349-1.498-1.041-1.748c0.235-0.009,0.47-0.035,0.7-0.084
				c0.853-0.182,1.279-1.188,0.749-1.879C57.14,119.238,56.596,118.891,56.001,118.764z"/>
			<path fill="#63B767" d="M58.83,102.47c-0.043-0.643-0.603-1.17-1.228-1.321c-0.625-0.153-1.319-0.215-1.902,0.059
				c0.566-0.23,1.137-0.521,1.498-1.016c0.352-0.481,0.432-1.201,0.055-1.656c-0.653,0.375-1.309,0.744-1.969,1.107
				c1.116,3.957,1.653,8.074,1.536,12.186c-0.066,2.324-0.348,4.639-0.814,6.916c0.351,0.033,0.705,0.04,1.054-0.008
				c1.204-0.168,1.515-1.801,0.454-2.395c-0.017-0.009-0.036-0.013-0.053-0.021c0.786-0.025,1.586-0.631,1.634-1.439
				c0.065-1.098-1.294-1.996-2.28-1.507c0.435-0.169,0.87-0.337,1.305-0.505c0.842-0.326,1.025-1.469,0.298-2.003
				c-0.409-0.302-0.917-0.478-1.415-0.462c0.45-0.088,0.89-0.225,1.256-0.492c0.498-0.363,0.825-1.026,0.624-1.609
				c-0.172-0.5-0.854-0.928-1.426-0.947c0.615-0.217,1.194-0.535,1.435-1.119c0.238-0.573,0.026-1.299-0.483-1.653
				c-0.28-0.194-0.7-0.317-1.099-0.322c0.257-0.096,0.504-0.21,0.729-0.366C58.505,103.568,58.868,103.036,58.83,102.47z"/>
		</g>
		<path fill="#E6E7E8" d="M31.608,110.634c-3.56-2.198-5.991-5.604-7.486-9.514c-0.494-1.292-1.226-3.156-2.129-4.328
			c0.441,5.826,2.542,11.519,5.993,16.233C29.417,113.327,31.357,112.075,31.608,110.634z"/>
		<path fill="#4DA053" d="M46.111,84.151c6.508,7.623,10.063,17.705,9.777,27.725c-0.287,10.021-4.412,19.883-11.344,27.122
			c-2.086-0.395-4.179-1.979-6.226-2.29c-5.758-0.879-11.459-0.394-18.007-2.286c-4.146-1.199-9.016-1.497-12.543,0.99
			c-0.444-4.528-0.599-9.357,1.769-13.242c2.999-4.921,6.424-3.566,12.434-6.638c4.998-2.554,4.961-4.343,9.914-6.982
			C35.499,98.884,40.181,92.598,46.111,84.151z"/>
		<g opacity="0.25">
			<path fill="#FFFFFF" d="M9.191,123.707c3.124-4.93,6.677-3.581,12.924-6.664c5.194-2.562,5.16-4.354,10.308-7.002
				c3.772-9.675,8.646-15.973,14.821-24.432c0.146,0.164-0.591-0.823-1.133-1.458c-5.931,8.447-10.612,14.732-14.227,24.398
				c-4.953,2.641-4.916,4.43-9.914,6.982c-6.01,3.07-9.435,1.717-12.434,6.638c-0.813,1.335-1.324,2.784-1.633,4.292
				C8.22,125.506,8.637,124.581,9.191,123.707z"/>
		</g>
		<g>
			<path fill="#B9D6B0" d="M55.07,118.812c-1.545,7.516-5.192,14.604-10.496,20.153c0.385,0.31,0.843,0.528,1.327,0.632
				c0.571,0.125,1-0.43,0.855-0.934c0.522,0.191,1.142,0.141,1.535-0.264c0.501-0.517,0.432-1.377,0.012-1.94
				c0.663,0.211,1.475,0.024,1.863-0.565c0.347-0.53,0.264-1.246-0.084-1.767c0.488,0.095,1.025-0.038,1.322-0.442
				c0.278-0.379,0.268-0.889,0.074-1.311c0.331,0.1,0.692,0.102,1.014-0.029c0.711-0.289,1.13-1.145,0.946-1.889
				c-0.057-0.23-0.172-0.439-0.321-0.622c0.09-0.022,0.179-0.053,0.26-0.099c0.576-0.315,0.816-1.094,0.59-1.711
				c-0.118-0.32-0.344-0.586-0.625-0.78c0.642,0.04,1.321-0.279,1.59-0.872c0.288-0.637,0.029-1.418-0.492-1.864
				c0.72,0.105,1.546-0.3,1.734-1.024c0.19-0.731-0.35-1.498-1.042-1.748c0.235-0.01,0.47-0.034,0.701-0.084
				c0.853-0.182,1.279-1.188,0.749-1.879C56.208,119.287,55.666,118.938,55.07,118.812z"/>
			<path fill="#B9D6B0" d="M47.791,86.277c0.381-0.416,0.766-0.854,0.924-1.394c0.166-0.562,0.007-1.264-0.511-1.537
				c-0.383-0.203-0.867-0.121-1.24,0.099c-0.32,0.188-0.576,0.463-0.819,0.745C46.719,84.867,47.263,85.566,47.791,86.277z"/>
			<path fill="#B9D6B0" d="M57.478,104.63c-0.279-0.194-0.699-0.317-1.098-0.321c0.256-0.097,0.503-0.211,0.728-0.367
				c0.467-0.322,0.829-0.855,0.791-1.424c-0.042-0.642-0.603-1.168-1.228-1.32c-0.625-0.153-1.319-0.215-1.902,0.059
				c0.566-0.23,1.138-0.521,1.498-1.016c0.361-0.494,0.439-1.241,0.028-1.693c-0.286-0.314-0.745-0.424-1.167-0.385
				c-0.423,0.04-0.754,0.016-1.145,0.182c0.546-0.271,1.103-0.566,1.493-1.037c0.39-0.469,0.577-1.158,0.298-1.701
				c-0.258-0.502-0.852-0.76-1.416-0.772c-0.564-0.015-0.997-0.146-1.53,0.039c0.517-0.246,1.046-0.501,1.442-0.914
				c0.397-0.413,0.638-1.024,0.458-1.567c-0.205-0.617-0.896-0.968-1.546-0.979c-0.65-0.012-1.123,0.04-1.723,0.289
				c0.539-0.34,1.091-0.691,1.459-1.21c0.369-0.521,0.511-1.252,0.175-1.792c-0.325-0.523-1.011-0.727-1.622-0.651
				c-0.611,0.074-1.326,0.353-1.866,0.646c0.528-0.356,1.077-0.735,1.377-1.297c0.302-0.562,0.262-1.363-0.26-1.729
				c-0.469-0.329-1.116-0.195-1.647,0.021c-0.47,0.188-0.86,0.328-1.272,0.607c5.423,7.318,8.347,16.475,8.087,25.583
				c-0.067,2.324-0.348,4.64-0.815,6.916c0.351,0.033,0.705,0.04,1.054-0.009c1.204-0.166,1.516-1.801,0.455-2.393
				c-0.017-0.011-0.037-0.014-0.054-0.022c0.787-0.024,1.587-0.631,1.634-1.438c0.065-1.1-1.293-1.998-2.279-1.509
				c0.435-0.168,0.87-0.336,1.305-0.504c0.842-0.326,1.025-1.469,0.298-2.003c-0.409-0.302-0.917-0.479-1.415-0.462
				c0.45-0.087,0.889-0.226,1.256-0.492c0.498-0.362,0.825-1.026,0.624-1.608c-0.172-0.5-0.854-0.929-1.426-0.947
				c0.615-0.219,1.194-0.536,1.436-1.119C58.199,105.71,57.987,104.984,57.478,104.63z"/>
		</g>
		<path fill="#D1D3D4" d="M13.838,133.534c-0.022-0.157-0.039-0.315-0.073-0.472c-0.429-1.972-1.83-3.709-3.667-4.543
			c-0.768-0.351-1.587-0.541-2.424-0.651c-0.304,2.467-0.149,5.051,0.095,7.544C9.54,134.163,11.651,133.617,13.838,133.534z"/>
		<path fill="#E6E7E8" d="M12.689,118.939c-0.346,2.232-1.979,4.218-4.103,4.987c-1.046-0.384-1.741-1.465-2.195-2.481
			c-1.309-2.937-1.745-6.256-1.239-9.43c0.594,1.191,1.364,2.295,2.276,3.264C8.842,116.78,10.716,118.343,12.689,118.939z"/>
		<path fill="#E6E7E8" d="M35.805,107.828c-3.759-1.84-6.512-4.99-8.383-8.733c-0.618-1.237-1.529-3.021-2.543-4.1
			c1.01,5.756,3.659,11.215,7.555,15.569C33.889,110.725,35.696,109.287,35.805,107.828z"/>
		<path fill="#434E53" d="M14.257,120.021c0.272-0.244,0.634-0.439,0.989-0.357c0.355,0.083,0.599,0.568,0.348,0.833
			c-0.761,0.474-1.522,0.946-2.283,1.42C13.371,121.195,13.717,120.502,14.257,120.021z"/>
		<path fill="#434E53" d="M20.229,134.398c0.027,0.008,0.056,0.016,0.083,0.022c0.715,0.206,1.418,0.381,2.114,0.536
			c0.512-0.02,1.062-0.057,1.635-0.094c0.443-0.043,0.9-0.088,1.365-0.133c0.464-0.054,0.937-0.146,1.408-0.219
			c0.472-0.07,0.937-0.232,1.391-0.361l0.338-0.103l0.33-0.135c0.207-0.084,0.412-0.165,0.623-0.276
			c0.425-0.199,0.795-0.435,1.146-0.66c0.341-0.244,0.648-0.49,0.9-0.758c0.273-0.24,0.457-0.531,0.65-0.748
			c0.155-0.255,0.3-0.467,0.395-0.654c0.159-0.389,0.25-0.61,0.25-0.61c0.019-0.047,0-0.103-0.047-0.127
			c-0.049-0.024-0.109-0.006-0.135,0.043c0,0-0.108,0.207-0.292,0.56c-0.106,0.168-0.255,0.36-0.416,0.586
			c-0.199,0.194-0.384,0.453-0.659,0.662c-0.253,0.233-0.56,0.444-0.888,0.664c-0.34,0.199-0.702,0.408-1.097,0.573
			c-0.19,0.097-0.4,0.168-0.612,0.243c-0.21,0.084-0.419,0.146-0.644,0.195c-0.443,0.102-0.881,0.25-1.34,0.312
			c-0.458,0.062-0.912,0.148-1.366,0.193c-0.454,0.037-0.901,0.072-1.334,0.109C23.157,134.266,20.609,134.383,20.229,134.398z"/>
		<g>
			<path fill="#63B767" d="M53.931,98.286c-0.149-0.47-0.303-0.937-0.469-1.397l-14.828,13.146L53.931,98.286z"/>
			<path fill="#63B767" d="M42.272,127.614l8.087,3.6c0.206-0.356,0.408-0.717,0.603-1.08L42.272,127.614z"/>
			<path fill="#63B767" d="M39.195,101.927c0.353-0.508,6.73-9.624,7.052-10.149c0.333-0.521,2.255-3.518,2.583-4.029
				c-0.249-0.368-0.501-0.732-0.762-1.092l-0.175-0.104c0,0-2.294,4.124-2.595,4.664c-0.291,0.548-0.645,1.089-0.989,1.664
				c-0.699,1.146-5.076,8.343-5.396,8.869c-0.296,0.545-2.547,4.696-2.547,4.696S38.867,102.448,39.195,101.927z"/>
			<path fill="#63B767" d="M41.078,116.607l14.566-1.396c0.054-0.476,0.106-0.951,0.143-1.428L41.078,116.607z"/>
			<path fill="#63B767" d="M39.291,112.595l16.403-5.849c-0.044-0.441-0.098-0.882-0.156-1.323L39.291,112.595z"/>
			<path fill="#63B767" d="M46.643,136.609c0.24-0.295,0.475-0.592,0.706-0.893l-7.139-2.847L46.643,136.609z"/>
			<path fill="#63B767" d="M41.787,121.423l11.93,2.363c0.142-0.417,0.28-0.835,0.408-1.256L41.787,121.423z"/>
		</g>
		
			<ellipse transform="matrix(-0.0521 -0.9986 0.9986 -0.0521 -86.842 166.719)" fill="#63B767" cx="35.703" cy="124.574" rx="4.166" ry="4.145"/>
		<circle fill="#FFFFFF" cx="35.002" cy="123.537" r="3.5"/>
		<circle fill="#434E53" cx="35.002" cy="123.537" r="2.626"/>
		<circle fill="#FFFFFF" cx="33.233" cy="122.245" r="0.927"/>
		<g opacity="0.25">
			<path fill="#63B767" d="M45.809,136.917c-2.044-0.501-4.088-1.886-6.093-2.172c-6.038-0.864-12.019-0.362-18.882-2.24
				c-4.346-1.188-9.454-1.475-13.16,1.022c-0.006-0.064-0.012-0.129-0.017-0.193c-0.016,0.012-0.033,0.021-0.049,0.033
				c0.045,0.686,0.095,1.369,0.161,2.045c3.527-2.487,8.398-2.189,12.543-0.99c6.548,1.895,12.249,1.407,18.007,2.286
				c2.046,0.312,4.139,1.896,6.226,2.29c0.565-0.59,1.102-1.205,1.627-1.831C46.033,137.107,45.909,137.023,45.809,136.917z"/>
		</g>
	</g>
	<g>
		<path fill="#C4C4C0" d="M62.54,160.729c0.471-0.695,0.098-1.758-0.657-2.129c-0.755-0.373-1.722-0.119-2.316,0.478
			c-0.418,0.421-0.675,1.478-0.715,2.069C60.072,161.333,61.54,161.173,62.54,160.729z"/>
		<path fill="#C4C4C0" d="M62.276,159.325c0.333-1.155,1.138-2.166,2.189-2.75L62.276,159.325z"/>
		<path fill="#C4C4C0" d="M64.645,159.629c0.333-1.152,1.139-2.166,2.19-2.748L64.645,159.629z"/>
		<path fill="#C4C4C0" d="M64.753,160.997c0.478-0.692,0.113-1.757-0.638-2.138c-0.751-0.379-1.721-0.133-2.32,0.457
			c-0.423,0.418-0.688,1.475-0.734,2.064C62.281,161.579,63.75,161.432,64.753,160.997z"/>
		<path fill="#C4C4C0" d="M67.324,161.456c0.478-0.692,0.113-1.757-0.639-2.138c-0.751-0.377-1.72-0.133-2.319,0.459
			c-0.423,0.416-0.688,1.473-0.734,2.063C64.851,162.038,66.32,161.891,67.324,161.456z"/>
	</g>
	<g>
		<path fill="#C4C4C0" d="M100.391,160.805c0.471-0.697,0.098-1.759-0.658-2.132c-0.754-0.372-1.721-0.118-2.314,0.478
			c-0.419,0.422-0.676,1.479-0.716,2.072C97.922,161.406,99.391,161.246,100.391,160.805z"/>
		<path fill="#C4C4C0" d="M100.126,159.398c0.333-1.155,1.14-2.166,2.188-2.75L100.126,159.398z"/>
		<path fill="#C4C4C0" d="M102.494,159.703c0.334-1.155,1.14-2.166,2.189-2.75L102.494,159.703z"/>
		<path fill="#C4C4C0" d="M102.604,161.07c0.479-0.693,0.114-1.756-0.638-2.137c-0.752-0.379-1.721-0.134-2.319,0.457
			c-0.424,0.418-0.688,1.474-0.734,2.063C100.131,161.65,101.6,161.504,102.604,161.07z"/>
		<path fill="#C4C4C0" d="M105.174,161.529c0.477-0.692,0.113-1.756-0.638-2.137c-0.752-0.379-1.722-0.134-2.321,0.457
			c-0.421,0.418-0.688,1.474-0.732,2.063C102.701,162.109,104.171,161.963,105.174,161.529z"/>
	</g>
	<g>
		<path fill="#C4C4C0" d="M90.957,158.434c0.473-0.697,0.098-1.759-0.657-2.132c-0.755-0.372-1.722-0.118-2.315,0.478
			c-0.418,0.422-0.676,1.479-0.715,2.07C88.49,159.035,89.957,158.875,90.957,158.434z"/>
		<path fill="#C4C4C0" d="M90.693,157.027c0.334-1.155,1.139-2.166,2.189-2.75L90.693,157.027z"/>
		<path fill="#C4C4C0" d="M93.062,157.332c0.332-1.154,1.14-2.166,2.189-2.749L93.062,157.332z"/>
		<path fill="#C4C4C0" d="M93.172,158.7c0.477-0.693,0.112-1.759-0.64-2.138c-0.751-0.379-1.72-0.133-2.319,0.459
			c-0.423,0.416-0.688,1.472-0.734,2.062C90.697,159.281,92.167,159.133,93.172,158.7z"/>
		<path fill="#C4C4C0" d="M95.741,159.159c0.478-0.693,0.112-1.757-0.64-2.138c-0.75-0.379-1.72-0.133-2.318,0.459
			c-0.424,0.416-0.688,1.472-0.733,2.062C93.27,159.74,94.736,159.594,95.741,159.159z"/>
	</g>
	<g>
		<path fill="#C4C4C0" d="M46.662,159.68c0.471-0.697,0.098-1.759-0.657-2.132s-1.722-0.118-2.316,0.478
			c-0.418,0.422-0.675,1.479-0.715,2.07C44.194,160.281,45.662,160.121,46.662,159.68z"/>
		<path fill="#C4C4C0" d="M46.398,158.273c0.333-1.155,1.139-2.166,2.189-2.75L46.398,158.273z"/>
		<path fill="#C4C4C0" d="M48.767,158.578c0.333-1.154,1.139-2.166,2.19-2.749L48.767,158.578z"/>
		<path fill="#C4C4C0" d="M48.875,159.945c0.478-0.692,0.113-1.758-0.638-2.137s-1.721-0.134-2.32,0.459
			c-0.423,0.416-0.688,1.472-0.734,2.062C46.403,160.527,47.872,160.379,48.875,159.945z"/>
		<path fill="#C4C4C0" d="M51.446,160.404c0.477-0.692,0.112-1.756-0.639-2.137c-0.751-0.379-1.72-0.133-2.32,0.459
			c-0.423,0.416-0.688,1.472-0.734,2.062C48.973,160.986,50.442,160.84,51.446,160.404z"/>
	</g>
</g>
</svg>
