<?xml version="1.0" encoding="utf-8"?>
<!-- Generator: Adobe Illustrator 16.0.4, SVG Export Plug-In . SVG Version: 6.00 Build 0)  -->
<!DOCTYPE svg PUBLIC "-//W3C//DTD SVG 1.1//EN" "http://www.w3.org/Graphics/SVG/1.1/DTD/svg11.dtd">
<svg version="1.1" id="Layer_1" xmlns="http://www.w3.org/2000/svg" xmlns:xlink="http://www.w3.org/1999/xlink" x="0px" y="0px"
	 width="170px" height="170px" viewBox="0 0 170 170" enable-background="new 0 0 170 170" xml:space="preserve">
<title>Artboard 9</title>
<g>
	<g>
		<path fill="#908586" d="M50.68,141.26c-0.189,3.356-0.558,6.702-1.125,10.015c-0.199,1.16-0.438,2.358-1.132,3.31
			c-0.647,0.887-1.622,1.466-2.435,2.204c-0.812,0.737-1.41,1.938-1.188,3.013c1.382,0.562,10.548,0.451,14.051,0.297
			c0.886-0.039,1.626-0.675,1.79-1.546c0.552-2.942,1.251-9.701,1.904-13.593C58.538,143.913,54.557,142.712,50.68,141.26z"/>
		<path fill="#AFA1A1" d="M53.775,100.666c8.584-5.938,19.584-7.918,29.907-6.366c10.322,1.553,19.971,6.452,28.04,13.072
			c6.039,4.952,11.251,10.849,17.293,15.796c6.042,4.949,13.234,9.019,21.036,9.343c5.906,0.245,11.633-2.776,15.538-7.028
			c0.334-0.364,0.897,0.067,0.647,0.491c-4.271,7.201-10.67,13.142-18.209,16.791c-9.168,4.438-19.945,5.45-29.778,2.796
			c-1.689,4.388-4.205,11.275-5.895,15.664c-3.344,0.604-9.151,0.371-13.391-0.084c-0.626-2.274,6.481-6.443,5.016-13.113
			c-8.474,2.104-16.627,2.08-25.237,0.632c-0.242,3.618-0.812,8.863-1.053,12.481c-5.974,1.2-17.002,0-17.002,0
			c0.384-2.354,2.091-4.711,3.149-5.018c0.43-3.515,0.973-6.969,1.403-10.481c-6.85-1.681-13.685-3.726-20.095-6.668
			c-0.245-0.114-0.426-0.53-0.656-0.672c6.617-7.142,10.188-16.484,10.043-26.275C54.473,108.126,55.271,104.27,53.775,100.666z"/>
		<path fill="#908586" d="M103.979,148.027c-3.593,0.892-7.127,1.381-10.664,1.562c0.55,1.647,0.747,2.792-0.682,3.408
			c-2.674,1.154-3.703,5.24-4.06,5.944c0.572-0.07,8.034-0.03,11.215-0.011C101.496,156.489,105.06,152.938,103.979,148.027z"/>
		<path fill="#908586" d="M92.067,99.165c0.249-0.724-0.466-1.402-1.132-1.775c-1.431-0.802-3.045-1.273-4.682-1.368
			c-0.668-0.038-1.493,0.087-1.729,0.713c-0.14,0.372,0.001,0.806,0.26,1.108c0.26,0.302,0.62,0.497,0.979,0.672
			c1.342,0.652,2.779,1.106,4.252,1.344c0.389,0.062,0.79,0.109,1.174,0.02C91.572,99.788,91.94,99.538,92.067,99.165z"/>
		<path fill="#908586" d="M77.561,96.822c0.491,0.097,0.982,0.192,1.474,0.288c0.483,0.095,0.987,0.189,1.462,0.061
			c0.475-0.127,0.911-0.549,0.882-1.04c-0.023-0.394-0.334-0.722-0.694-0.882c-0.359-0.16-0.762-0.185-1.155-0.206
			c-0.593-0.033-1.186-0.066-1.778-0.099c-0.318-0.018-0.644-0.035-0.947,0.062c-0.304,0.096-0.583,0.333-0.637,0.646
			c-0.057,0.333,0.157,0.666,0.44,0.851C76.888,96.688,77.229,96.758,77.561,96.822z"/>
		<path fill="#908586" d="M97.209,99.7c-0.474-0.273-0.971-0.555-1.517-0.577s-1.148,0.308-1.236,0.847
			c-0.102,0.623,0.485,1.135,1.048,1.424c0.414,0.213,0.85,0.383,1.3,0.505c0.502,0.138,1.131,0.179,1.453-0.231
			c0.263-0.332,0.189-0.838-0.056-1.185C97.955,100.136,97.576,99.913,97.209,99.7z"/>
		<path fill="#908586" d="M79.762,100.905c0.008,0.468,0.361,0.873,0.778,1.083c0.418,0.21,0.894,0.261,1.359,0.31
			c0.498,0.051,1.015,0.102,1.488-0.059c0.474-0.162,0.895-0.596,0.872-1.096c-0.036-0.744-0.912-1.099-1.633-1.278
			c-0.574-0.143-1.173-0.286-1.751-0.159C80.296,99.831,79.75,100.314,79.762,100.905z"/>
		<path fill="#908586" d="M73.462,98.577c0.407-0.121,0.823-0.266,1.135-0.555s0.494-0.758,0.332-1.15
			c-0.206-0.495-0.821-0.651-1.354-0.702c-1.541-0.146-3.113,0.058-4.565,0.591c-0.387,0.141-0.775,0.313-1.062,0.608
			c-0.287,0.296-0.452,0.741-0.315,1.13c0.23,0.652,1.089,0.779,1.78,0.752C70.783,99.196,72.147,98.969,73.462,98.577z"/>
		<path fill="#908586" d="M92.077,104.903c0.472,0.01,1.052-0.046,1.242-0.479c0.123-0.281,0.011-0.622-0.198-0.848
			c-0.209-0.225-0.495-0.359-0.777-0.48c-0.411-0.176-0.846-0.34-1.292-0.311c-0.446,0.031-0.905,0.312-1.003,0.747
			c-0.104,0.46,0.229,0.927,0.648,1.136C91.119,104.88,91.606,104.894,92.077,104.903z"/>
		<path fill="#908586" d="M78.628,148.593c0.172,0.066,0.349,0.121,0.526,0.167c0.167-0.85,1.38-9.406,0.754-11.605
			c-0.353,0.431-0.851,0.738-1.393,0.864C79.209,140.555,79.071,144.832,78.628,148.593z"/>
		<path fill="#908586" d="M98.321,128.346c-1.783,1.884-1.748,5.093-1.492,7.492c0.291,2.729,1.219,5.361,2.51,7.771
			c0.646,1.204,1.383,2.367,2.202,3.46c0.347,0.463,0.741,1,1.267,1.276c0.198,0.104,0.417,0.203,0.646,0.149
			c0.084-0.02,0.625-0.363,0.525-0.468C98.955,142.728,96.687,135.3,98.321,128.346z"/>
		<path fill="#908586" d="M75.851,138.534c-0.241,0.361-0.438,0.751-0.585,1.159c-0.151,0.418-0.223,0.954,0.108,1.251
			c0.273,0.245,0.717,0.2,1.023-0.001c0.307-0.202,0.508-0.524,0.701-0.837c0.238-0.387,0.483-0.797,0.504-1.25
			c0.021-0.454-0.271-0.956-0.723-1.002C76.449,137.811,76.091,138.174,75.851,138.534z"/>
		<path fill="#908586" d="M74.641,144.547c2.906-0.32-0.569,4.449-0.625,1.455c-0.009-0.508,0.384-1.177,0.731-1.538L74.641,144.547
			z"/>
		<path fill="#908586" d="M99.802,132.295c0.021,0.638,0.218,1.744,1.012,1.834c0.447,0.051,0.89-0.239,1.097-0.637
			c0.207-0.4,0.205-0.883,0.074-1.313c-0.153-0.504-0.587-1.499-1.242-1.485C99.966,130.711,99.776,131.553,99.802,132.295z"/>
		<path fill="#908586" d="M77.885,144.654c0.406-0.576,0.585-1.611,0.235-1.967c-0.607-0.615-1.286,0.603-1.453,1.151
			c-0.112,0.367-0.054,0.813,0.241,1.061C77.274,145.203,77.626,145.022,77.885,144.654z"/>
		<path fill="#908586" d="M99.422,137.371c0.071,0.608,0.038,1.242,0.26,1.812c0.223,0.571,0.822,1.066,1.413,0.899
			c0.528-0.149,0.804-0.773,0.744-1.32c-0.06-0.548-0.366-1.03-0.665-1.492c-0.18-0.277-0.36-0.554-0.539-0.831
			c-0.146-0.227-0.328-0.476-0.595-0.506c-0.301-0.036-0.564,0.239-0.64,0.533C99.326,136.761,99.388,137.07,99.422,137.371z"/>
		<path fill="#908586" d="M120.422,140.771c0.301-1.729,0.287-3.497,0.049-5.231c-0.375-2.729-1.069-4.821-1.069-4.821
			c0.404,4.12,0.61,8.456-0.392,12.503c-0.197,0.8-0.449,1.577-0.729,2.347c0.151,0.041,0.304,0.073,0.454,0.111
			C119.417,144.075,120.119,142.508,120.422,140.771z"/>
		<path fill="#908586" d="M102.631,141.178c-1.217,0.5,0.104,3.118,1.208,2.487c0.777-0.443,0.186-1.953-0.385-2.331
			C103.13,141.119,102.848,141.087,102.631,141.178z"/>
		<path fill="#908586" d="M103.868,135.595c0.318-0.081,0.574-0.408,0.562-0.776c-0.04-1.211-1.135-1.719-1.413-0.251
			c-0.063,0.332,0.039,0.707,0.31,0.909C103.502,135.609,103.695,135.639,103.868,135.595z"/>
		<path fill="#908586" d="M105.368,145.07c-0.065,0.063-0.124,0.151-0.17,0.271c-0.205,0.533,0.445,1.114,0.951,0.895
			C107.062,145.84,105.928,144.528,105.368,145.07z"/>
		<path fill="#908586" d="M104.333,139.5c0.692-0.999-1.783-2.858-1.273-0.537c0.092,0.417,0.711,1.061,1.146,0.681
			C104.257,139.598,104.299,139.55,104.333,139.5z"/>
		<g opacity="0.25">
			<path fill="#908586" d="M65.207,145.897c0.067,0.022,0.135,0.043,0.203,0.066c0.012-1.51,0.068-3.019,0.175-4.525
				c-6.491-1.152-12.927-2.666-19.347-4.182c-0.348,0.58-0.696,1.158-1.044,1.738c6.396,2.93,13.212,4.972,20.045,6.646
				C65.229,145.726,65.217,145.811,65.207,145.897z"/>
		</g>
		<g opacity="0.25">
			<path fill="#908586" d="M121.311,140.248c-0.319-0.107-0.639-0.221-0.957-0.332c0.071,2.013-0.646,3.79-1.602,5.482
				c0.136,0.099,0.255,0.218,0.332,0.367c9.606,2.379,20.034,1.312,28.943-3.001c3.696-1.789,7.11-4.136,10.142-6.905
				C147.266,142.467,133.431,144.34,121.311,140.248z"/>
		</g>
		<g opacity="0.25">
			<path fill="#908586" d="M99.06,142.317c-6.429,1.146-13.043,1.332-19.588,0.89c-0.029,1.829-0.223,3.662-0.492,5.489
				c8.207,1.356,16.003,1.406,24.065-0.451C101.323,146.536,99.908,144.568,99.06,142.317z"/>
		</g>
		<g opacity="0.55">
			<g opacity="0.25">
				<path fill="#FFFFFF" d="M82.207,95.937c10.322,1.553,19.97,6.452,28.041,13.072c6.038,4.953,11.251,10.849,17.292,15.797
					c6.042,4.948,13.234,9.018,21.037,9.342c6.102,0.254,12.255-2.924,15.961-7.596c-3.8,3.634-9.135,6.182-14.487,5.959
					c-7.802-0.324-14.994-4.394-21.036-9.343c-6.042-4.947-11.254-10.844-17.293-15.796c-8.069-6.62-17.718-11.52-28.04-13.072
					c-10.322-1.552-21.322,0.428-29.907,6.366c0.075,0.181,0.141,0.363,0.205,0.546C62.292,96.127,72.546,94.484,82.207,95.937z"/>
			</g>
		</g>
		<g>
			<path fill="#908586" d="M56.001,118.763c-1.544,7.516-5.192,14.604-10.496,20.154c0.385,0.311,0.843,0.528,1.327,0.633
				c0.571,0.124,0.999-0.431,0.855-0.934c0.523,0.191,1.142,0.14,1.535-0.265c0.501-0.516,0.432-1.376,0.012-1.94
				c0.663,0.211,1.475,0.025,1.863-0.566c0.347-0.53,0.265-1.245-0.084-1.766c0.488,0.095,1.025-0.038,1.323-0.443
				c0.277-0.378,0.268-0.888,0.073-1.31c0.332,0.1,0.692,0.102,1.014-0.028c0.711-0.29,1.13-1.146,0.946-1.89
				c-0.058-0.23-0.173-0.439-0.321-0.622c0.09-0.022,0.178-0.053,0.26-0.098c0.576-0.316,0.816-1.095,0.59-1.711
				c-0.118-0.321-0.345-0.586-0.625-0.781c0.642,0.04,1.321-0.279,1.59-0.872c0.288-0.637,0.029-1.418-0.492-1.864
				c0.72,0.105,1.546-0.3,1.734-1.024c0.19-0.732-0.349-1.499-1.041-1.748c0.235-0.009,0.47-0.035,0.7-0.084
				c0.853-0.182,1.279-1.188,0.749-1.88C57.14,119.238,56.596,118.89,56.001,118.763z"/>
			<path fill="#908586" d="M58.83,102.47c-0.043-0.643-0.603-1.17-1.228-1.322c-0.625-0.153-1.319-0.214-1.902,0.059
				c0.566-0.23,1.137-0.521,1.498-1.016c0.352-0.481,0.432-1.201,0.055-1.656c-0.653,0.375-1.309,0.744-1.969,1.107
				c1.116,3.957,1.653,8.075,1.536,12.186c-0.066,2.325-0.348,4.639-0.814,6.916c0.351,0.033,0.705,0.04,1.054-0.008
				c1.204-0.167,1.515-1.801,0.454-2.394c-0.017-0.009-0.036-0.013-0.053-0.022c0.786-0.025,1.586-0.631,1.634-1.439
				c0.065-1.098-1.294-1.996-2.28-1.507c0.435-0.169,0.87-0.337,1.305-0.505c0.842-0.326,1.025-1.468,0.298-2.003
				c-0.409-0.302-0.917-0.478-1.415-0.462c0.45-0.087,0.89-0.225,1.256-0.492c0.498-0.363,0.825-1.026,0.624-1.609
				c-0.172-0.5-0.854-0.928-1.426-0.947c0.615-0.218,1.194-0.535,1.435-1.119c0.238-0.574,0.026-1.299-0.483-1.654
				c-0.28-0.195-0.7-0.317-1.099-0.322c0.257-0.096,0.504-0.21,0.729-0.366C58.505,103.569,58.868,103.036,58.83,102.47z"/>
		</g>
		<path fill="#E6E7E8" d="M31.608,110.634c-3.56-2.199-5.991-5.605-7.486-9.514c-0.494-1.292-1.226-3.156-2.129-4.328
			c0.441,5.826,2.542,11.518,5.993,16.234C29.417,113.327,31.357,112.075,31.608,110.634z"/>
		<path fill="#AFA1A1" d="M46.111,84.151c6.508,7.623,10.063,17.705,9.777,27.725c-0.287,10.021-4.412,19.883-11.344,27.122
			c-2.086-0.394-4.179-1.979-6.226-2.29c-5.758-0.879-11.459-0.393-18.007-2.286c-4.146-1.2-9.016-1.497-12.543,0.99
			c-0.444-4.528-0.599-9.357,1.769-13.242c2.999-4.921,6.424-3.567,12.434-6.638c4.998-2.553,4.961-4.342,9.914-6.982
			C35.499,98.884,40.181,92.598,46.111,84.151z"/>
		<g opacity="0.25">
			<path fill="#FFFFFF" d="M9.191,123.707c3.124-4.929,6.677-3.581,12.924-6.664c5.194-2.563,5.16-4.353,10.308-7.002
				c3.772-9.675,8.646-15.972,14.821-24.431c0.146,0.163-0.591-0.824-1.133-1.459c-5.931,8.446-10.612,14.732-14.227,24.398
				c-4.953,2.641-4.916,4.43-9.914,6.982c-6.01,3.07-9.435,1.717-12.434,6.638c-0.813,1.335-1.324,2.784-1.633,4.292
				C8.22,125.506,8.637,124.581,9.191,123.707z"/>
		</g>
		<g>
			<path fill="#908586" d="M55.07,118.812c-1.545,7.516-5.192,14.604-10.496,20.154c0.385,0.31,0.843,0.528,1.327,0.632
				c0.571,0.125,1-0.43,0.855-0.934c0.522,0.192,1.142,0.141,1.535-0.264c0.501-0.516,0.432-1.377,0.012-1.94
				c0.663,0.211,1.475,0.025,1.863-0.566c0.347-0.53,0.264-1.246-0.084-1.766c0.488,0.094,1.025-0.038,1.322-0.443
				c0.278-0.378,0.268-0.888,0.074-1.31c0.331,0.1,0.692,0.102,1.014-0.029c0.711-0.289,1.13-1.145,0.946-1.889
				c-0.057-0.23-0.172-0.439-0.321-0.622c0.09-0.022,0.179-0.053,0.26-0.098c0.576-0.316,0.816-1.095,0.59-1.712
				c-0.118-0.32-0.344-0.585-0.625-0.78c0.642,0.04,1.321-0.279,1.59-0.872c0.288-0.636,0.029-1.418-0.492-1.864
				c0.72,0.105,1.546-0.3,1.734-1.024c0.19-0.732-0.35-1.499-1.042-1.748c0.235-0.01,0.47-0.035,0.701-0.084
				c0.853-0.182,1.279-1.188,0.749-1.88C56.208,119.287,55.666,118.938,55.07,118.812z"/>
			<path fill="#908586" d="M47.791,86.277c0.381-0.416,0.766-0.854,0.924-1.393c0.166-0.562,0.007-1.264-0.511-1.537
				c-0.383-0.203-0.867-0.121-1.24,0.099c-0.32,0.188-0.576,0.463-0.819,0.745C46.719,84.867,47.263,85.566,47.791,86.277z"/>
			<path fill="#908586" d="M57.478,104.63c-0.279-0.195-0.699-0.317-1.098-0.322c0.256-0.096,0.503-0.211,0.728-0.367
				c0.467-0.322,0.829-0.855,0.791-1.423c-0.042-0.642-0.603-1.169-1.228-1.321c-0.625-0.153-1.319-0.215-1.902,0.059
				c0.566-0.231,1.138-0.521,1.498-1.016c0.361-0.494,0.439-1.241,0.028-1.693c-0.286-0.314-0.745-0.424-1.167-0.385
				c-0.423,0.04-0.754,0.016-1.145,0.182c0.546-0.272,1.103-0.567,1.493-1.037c0.39-0.469,0.577-1.159,0.298-1.701
				c-0.258-0.502-0.852-0.76-1.416-0.773c-0.564-0.014-0.997-0.145-1.53,0.039c0.517-0.246,1.046-0.501,1.442-0.914
				c0.397-0.413,0.638-1.025,0.458-1.568c-0.205-0.617-0.896-0.967-1.546-0.978c-0.65-0.012-1.123,0.04-1.723,0.289
				c0.539-0.339,1.091-0.691,1.459-1.21c0.369-0.52,0.511-1.252,0.175-1.792c-0.325-0.523-1.011-0.727-1.622-0.651
				c-0.611,0.074-1.326,0.352-1.866,0.646c0.528-0.357,1.077-0.736,1.377-1.298c0.302-0.562,0.262-1.363-0.26-1.729
				c-0.469-0.329-1.116-0.195-1.647,0.02c-0.47,0.189-0.86,0.329-1.272,0.608c5.423,7.318,8.347,16.474,8.087,25.583
				c-0.067,2.324-0.348,4.639-0.815,6.916c0.351,0.033,0.705,0.04,1.054-0.009c1.204-0.166,1.516-1.8,0.455-2.393
				c-0.017-0.01-0.037-0.013-0.054-0.022c0.787-0.025,1.587-0.631,1.634-1.439c0.065-1.099-1.293-1.997-2.279-1.508
				c0.435-0.168,0.87-0.336,1.305-0.504c0.842-0.326,1.025-1.469,0.298-2.003c-0.409-0.302-0.917-0.478-1.415-0.462
				c0.45-0.087,0.889-0.225,1.256-0.492c0.498-0.363,0.825-1.026,0.624-1.609c-0.172-0.5-0.854-0.928-1.426-0.947
				c0.615-0.218,1.194-0.536,1.436-1.119C58.199,105.71,57.987,104.985,57.478,104.63z"/>
		</g>
		<path fill="#D1D3D4" d="M13.838,133.534c-0.022-0.157-0.039-0.315-0.073-0.471c-0.429-1.972-1.83-3.709-3.667-4.544
			c-0.768-0.35-1.587-0.541-2.424-0.651c-0.304,2.467-0.149,5.051,0.095,7.544C9.54,134.163,11.651,133.617,13.838,133.534z"/>
		<path fill="#E6E7E8" d="M12.689,118.94c-0.346,2.232-1.979,4.217-4.103,4.987c-1.046-0.384-1.741-1.465-2.195-2.482
			c-1.309-2.936-1.745-6.255-1.239-9.429c0.594,1.191,1.364,2.294,2.276,3.263C8.842,116.78,10.716,118.343,12.689,118.94z"/>
		<path fill="#E6E7E8" d="M35.805,107.828c-3.759-1.84-6.512-4.99-8.383-8.733c-0.618-1.237-1.529-3.021-2.543-4.1
			c1.01,5.756,3.659,11.215,7.555,15.569C33.889,110.724,35.696,109.287,35.805,107.828z"/>
		<path fill="#434E53" d="M14.257,120.021c0.272-0.243,0.634-0.439,0.989-0.357c0.355,0.083,0.599,0.568,0.348,0.833
			c-0.761,0.474-1.522,0.946-2.283,1.42C13.371,121.195,13.717,120.502,14.257,120.021z"/>
		<path fill="#434E53" d="M20.229,134.399c0.027,0.007,0.056,0.015,0.083,0.022c0.715,0.206,1.418,0.381,2.114,0.536
			c0.512-0.019,1.062-0.057,1.635-0.094c0.443-0.043,0.9-0.088,1.365-0.133c0.464-0.053,0.937-0.146,1.408-0.219
			c0.472-0.07,0.937-0.232,1.391-0.361l0.338-0.102l0.33-0.135c0.207-0.084,0.412-0.165,0.623-0.277
			c0.425-0.198,0.795-0.434,1.146-0.66c0.341-0.243,0.648-0.49,0.9-0.757c0.273-0.241,0.457-0.531,0.65-0.749
			c0.155-0.254,0.3-0.466,0.395-0.653c0.159-0.389,0.25-0.611,0.25-0.611c0.019-0.047,0-0.103-0.047-0.127
			c-0.049-0.025-0.109-0.006-0.135,0.043c0,0-0.108,0.207-0.292,0.56c-0.106,0.168-0.255,0.36-0.416,0.586
			c-0.199,0.194-0.384,0.453-0.659,0.662c-0.253,0.233-0.56,0.444-0.888,0.664c-0.34,0.199-0.702,0.408-1.097,0.573
			c-0.19,0.096-0.4,0.168-0.612,0.243c-0.21,0.084-0.419,0.147-0.644,0.196c-0.443,0.101-0.881,0.25-1.34,0.312
			c-0.458,0.063-0.912,0.148-1.366,0.193c-0.454,0.037-0.901,0.073-1.334,0.109C23.157,134.265,20.609,134.383,20.229,134.399z"/>
		<g>
			<path fill="#908586" d="M53.931,98.286c-0.149-0.469-0.303-0.936-0.469-1.397l-14.828,13.146L53.931,98.286z"/>
			<path fill="#908586" d="M42.272,127.614l8.087,3.6c0.206-0.356,0.408-0.717,0.603-1.08L42.272,127.614z"/>
			<path fill="#908586" d="M39.195,101.927c0.353-0.508,6.73-9.624,7.052-10.15c0.333-0.52,2.255-3.517,2.583-4.029
				c-0.249-0.368-0.501-0.732-0.762-1.092l-0.175-0.104c0,0-2.294,4.124-2.595,4.664c-0.291,0.547-0.645,1.088-0.989,1.664
				c-0.699,1.146-5.076,8.342-5.396,8.869c-0.296,0.545-2.547,4.697-2.547,4.697S38.867,102.448,39.195,101.927z"/>
			<path fill="#908586" d="M41.078,116.608l14.566-1.396c0.054-0.476,0.106-0.951,0.143-1.428L41.078,116.608z"/>
			<path fill="#908586" d="M39.291,112.595l16.403-5.849c-0.044-0.441-0.098-0.882-0.156-1.323L39.291,112.595z"/>
			<path fill="#908586" d="M46.643,136.609c0.24-0.294,0.475-0.591,0.706-0.892l-7.139-2.847L46.643,136.609z"/>
			<path fill="#908586" d="M41.787,121.423l11.93,2.363c0.142-0.417,0.28-0.835,0.408-1.256L41.787,121.423z"/>
		</g>
		
			<ellipse transform="matrix(0.9986 -0.0521 0.0521 0.9986 -6.4389 2.0281)" fill="#908586" cx="35.701" cy="124.58" rx="4.145" ry="4.166"/>
		<circle fill="#FFFFFF" cx="35.002" cy="123.537" r="3.5"/>
		<circle fill="#434E53" cx="35.002" cy="123.537" r="2.626"/>
		<circle fill="#FFFFFF" cx="33.233" cy="122.245" r="0.927"/>
		<g opacity="0.25">
			<path fill="#908586" d="M45.809,136.917c-2.044-0.501-4.088-1.886-6.093-2.172c-6.038-0.864-12.019-0.362-18.882-2.24
				c-4.346-1.189-9.454-1.475-13.16,1.022c-0.006-0.064-0.012-0.129-0.017-0.193c-0.016,0.012-0.033,0.022-0.049,0.033
				c0.045,0.686,0.095,1.369,0.161,2.045c3.527-2.487,8.398-2.189,12.543-0.99c6.548,1.894,12.249,1.407,18.007,2.286
				c2.046,0.312,4.139,1.896,6.226,2.29c0.565-0.59,1.102-1.205,1.627-1.831C46.033,137.107,45.909,137.023,45.809,136.917z"/>
		</g>
	</g>
	<g>
		<path fill="#D8E183" d="M62.54,160.729c0.471-0.696,0.098-1.758-0.657-2.13c-0.755-0.373-1.722-0.118-2.316,0.478
			c-0.418,0.421-0.675,1.478-0.715,2.07C60.072,161.333,61.54,161.173,62.54,160.729z"/>
		<path fill="#908586" d="M62.276,159.325c0.333-1.155,1.138-2.166,2.189-2.75L62.276,159.325z"/>
		<path fill="#908586" d="M64.645,159.629c0.333-1.153,1.139-2.166,2.19-2.748L64.645,159.629z"/>
		<path fill="#D8E183" d="M64.753,160.997c0.478-0.693,0.113-1.757-0.638-2.137c-0.751-0.379-1.721-0.133-2.32,0.457
			c-0.423,0.418-0.688,1.474-0.734,2.064C62.281,161.579,63.75,161.431,64.753,160.997z"/>
		<path fill="#D8E183" d="M67.324,161.456c0.478-0.692,0.113-1.757-0.639-2.137c-0.751-0.378-1.72-0.133-2.319,0.459
			c-0.423,0.416-0.688,1.472-0.734,2.063C64.851,162.038,66.32,161.891,67.324,161.456z"/>
	</g>
	<g>
		<path fill="#D8E183" d="M100.39,160.804c0.471-0.697,0.098-1.758-0.657-2.131c-0.754-0.372-1.722-0.118-2.315,0.478
			c-0.419,0.421-0.676,1.479-0.716,2.071C97.922,161.406,99.39,161.246,100.39,160.804z"/>
		<path fill="#908586" d="M100.126,159.398c0.333-1.155,1.139-2.166,2.189-2.749L100.126,159.398z"/>
		<path fill="#908586" d="M102.494,159.703c0.334-1.155,1.14-2.166,2.19-2.75L102.494,159.703z"/>
		<path fill="#D8E183" d="M102.604,161.07c0.478-0.693,0.114-1.756-0.638-2.136s-1.721-0.134-2.32,0.457
			c-0.424,0.417-0.688,1.473-0.734,2.063C100.131,161.651,101.6,161.504,102.604,161.07z"/>
		<path fill="#D8E183" d="M105.174,161.529c0.477-0.692,0.113-1.756-0.638-2.136c-0.752-0.379-1.722-0.134-2.321,0.457
			c-0.421,0.417-0.688,1.473-0.732,2.063C102.701,162.11,104.171,161.963,105.174,161.529z"/>
	</g>
	<g>
		<path fill="#D8E183" d="M90.957,158.433c0.472-0.697,0.097-1.758-0.657-2.131c-0.755-0.373-1.722-0.118-2.316,0.478
			c-0.418,0.421-0.675,1.478-0.715,2.07C88.49,159.035,89.957,158.875,90.957,158.433z"/>
		<path fill="#908586" d="M90.694,157.027c0.333-1.155,1.138-2.166,2.189-2.75L90.694,157.027z"/>
		<path fill="#908586" d="M93.062,157.332c0.333-1.154,1.14-2.166,2.19-2.749L93.062,157.332z"/>
		<path fill="#D8E183" d="M93.172,158.7c0.477-0.693,0.112-1.758-0.64-2.137c-0.751-0.379-1.72-0.134-2.319,0.458
			c-0.423,0.416-0.688,1.472-0.734,2.062C90.697,159.281,92.167,159.133,93.172,158.7z"/>
		<path fill="#D8E183" d="M95.741,159.159c0.478-0.693,0.113-1.757-0.639-2.137c-0.751-0.379-1.72-0.133-2.319,0.458
			c-0.423,0.417-0.688,1.472-0.733,2.063C93.269,159.74,94.737,159.594,95.741,159.159z"/>
	</g>
	<g>
		<path fill="#D8E183" d="M46.662,159.679c0.471-0.697,0.098-1.758-0.657-2.131c-0.755-0.373-1.722-0.118-2.316,0.478
			c-0.418,0.421-0.675,1.478-0.715,2.07C44.194,160.281,45.662,160.121,46.662,159.679z"/>
		<path fill="#908586" d="M46.398,158.273c0.333-1.155,1.139-2.166,2.189-2.75L46.398,158.273z"/>
		<path fill="#908586" d="M48.767,158.578c0.333-1.154,1.139-2.166,2.19-2.749L48.767,158.578z"/>
		<path fill="#D8E183" d="M48.875,159.946c0.478-0.693,0.113-1.758-0.638-2.137s-1.721-0.134-2.32,0.458
			c-0.423,0.416-0.688,1.472-0.734,2.063C46.403,160.527,47.872,160.379,48.875,159.946z"/>
		<path fill="#D8E183" d="M51.446,160.405c0.477-0.693,0.112-1.757-0.639-2.137c-0.751-0.379-1.72-0.133-2.32,0.458
			c-0.423,0.417-0.688,1.472-0.734,2.063C48.973,160.987,50.442,160.84,51.446,160.405z"/>
	</g>
</g>
</svg>
