<?xml version="1.0" encoding="utf-8"?>
<!-- Generator: Adobe Illustrator 16.0.4, SVG Export Plug-In . SVG Version: 6.00 Build 0)  -->
<!DOCTYPE svg PUBLIC "-//W3C//DTD SVG 1.1//EN" "http://www.w3.org/Graphics/SVG/1.1/DTD/svg11.dtd">
<svg version="1.1" id="Layer_1" xmlns="http://www.w3.org/2000/svg" xmlns:xlink="http://www.w3.org/1999/xlink" x="0px" y="0px"
	 width="170px" height="170px" viewBox="0 0 170 170" enable-background="new 0 0 170 170" xml:space="preserve">
<title>Artboard 9</title>
<g>
	<path fill="#BF8AB0" d="M56.588,108.74c-3.087,6.187-2.798,13.843-6.795,19.482c-2.711,3.825-6.981,6.131-11.26,8.145
		c-0.73,0.344-0.846,1.341-0.208,1.835c0.628,0.487,1.273,0.915,1.963,1.28c1.222,0.647,2.718,0.513,3.787-0.366
		c5.334-4.388,10.025-9.582,13.645-15.459c1.612-2.617,3.115-5.444,5.622-7.226c2.864-2.033,6.551-2.365,9.93-3.328
		c1.956-0.558,3.843-1.351,5.615-2.348c-5.687-2.232-10.323-6.455-15.182-10.305C60.771,102.72,58.234,105.441,56.588,108.74z"/>
	<path fill="#DD7CAF" d="M164.251,69.982c-7.538-7.521-19.903-9.793-29.585-5.307c-8.373,3.883-14.355,12.001-23.012,15.2
		c-6.041,2.231-12.688,1.81-19.121,1.537c-15.744-0.659-31.673-0.187-46.979,3.562c-15.306,3.744-30.04,10.938-40.994,22.267
		c7.47-4.978,15.011-9.845,23.486-12.8c8.476-2.955,18.089-3.666,26.292-0.021c5.248,2.332,9.607,6.273,14.135,9.87
		c0.33,0.731,0.696,1.446,1.083,2.147c0.047,0.084,0.091,0.17,0.139,0.254c0.378,0.67,0.784,1.324,1.212,1.964
		c0.065,0.097,0.132,0.192,0.198,0.288c0.437,0.638,0.895,1.258,1.378,1.856c0.055,0.069,0.113,0.136,0.169,0.203
		c0.509,0.621,1.039,1.228,1.595,1.808c0.549,0.57,1.127,1.115,1.719,1.644c0.082,0.071,0.162,0.147,0.245,0.221
		c0.569,0.495,1.158,0.968,1.763,1.417c0.109,0.082,0.218,0.162,0.329,0.241c0.61,0.44,1.234,0.864,1.876,1.259
		c0.095,0.059,0.192,0.112,0.288,0.17c0.678,0.405,1.369,0.793,2.079,1.141c3.869,7.711,9.604,14.213,16.304,19.646
		c0.7,0.568,1.461,1.045,2.26,1.455c2.002,1.024,4.258,1.64,6.488,2.241c0.446,0.121,0.894,0.24,1.334,0.363
		c1.137,0.318,2.361,0.082,3.301-0.635c1.088-0.832,2.143-1.679,3.22-2.516c0.171-0.132,0.274-0.299,0.323-0.475
		c0.119-0.44-0.113-0.938-0.568-1.103c-0.091-0.03-0.189-0.051-0.298-0.054c-3.938-0.081-7.82-0.407-11.779-0.712
		c-1.567-1.724-3.04-3.468-4.397-5.229c-0.678-0.883-1.33-1.769-1.949-2.658c-0.311-0.442-0.612-0.89-0.907-1.336
		c-1.771-2.68-3.26-5.388-4.415-8.103c-0.191-0.453-0.376-0.905-0.55-1.358c-0.349-0.906-0.658-1.812-0.929-2.718
		c-0.158-0.534-0.354-1.08-0.575-1.631c-0.023-0.058-0.054-0.117-0.077-0.175c-0.204-0.495-0.423-0.994-0.663-1.498
		c5.358-0.151,10.747-1.842,15.442-4.504c0.39-0.221,0.759-0.471,1.14-0.703c-0.454,1.77-0.877,3.548-1.252,5.337
		c2.28,1.794,4.985,2.612,7.854,3.091c2.519,0.419,5.073,0.521,7.627,0.484c4.357-0.064,8.711,0.832,12.98,0.121
		c0.193-0.032,0.21-0.31,0.02-0.36c-1.764-0.483-4.351-0.608-5.26-0.842c1.854-0.031,5.469,0.188,5.562-0.095
		c0.194-0.562-4.199-1.41-6.171-1.342c0.271-0.054,3.209-0.938,4.099-1.574c0.106-0.076,0.046-0.25-0.086-0.244
		c-3.321,0.134-6.383,1.479-9.442,2.826c-4.101-1.929-8.492-3.013-13.017-3.278c1.974-2.99,3.28-6.354,4.524-9.718
		c3.597-3.233,6.846-6.896,9.892-10.659c5.788-7.156,11.604-14.281,20.049-17.942c6.418,0.516,12.879,0.487,19.292-0.084
		c0.485-0.043,0.985-0.095,1.411-0.333c0.425-0.237,0.728-0.894,0.64-1.372l0.01-0.004
		C164.496,71.037,164.639,70.369,164.251,69.982z"/>
	<g>
		<path fill="#9B6C87" d="M66.39,95.645c-1.877-0.81-3.768-1.58-5.698-2.232c-16.295-5.521-35.24-1.779-48.596,8.953
			c5.072-3.135,10.303-5.953,15.95-7.924c8.476-2.955,18.089-3.666,26.292-0.02c5.248,2.332,9.607,6.275,14.135,9.87
			c-0.393-0.873-0.745-1.767-1.05-2.674C66.779,99.695,66.341,97.657,66.39,95.645z"/>
		<path fill="#9B6C87" d="M148.463,73.216c-2.945-1.802-6.723-1.854-10.009-0.795s-6.157,3.118-8.787,5.354
			c-5.087,4.33-9.554,9.476-14.503,13.933c0.012,0.147,0.016,0.297,0.01,0.438c-0.104,2.961-1.137,5.801-2.158,8.582
			c-0.107,0.295-0.219,0.59-0.328,0.886c3.598-3.233,6.847-6.896,9.893-10.659c5.788-7.156,11.604-14.281,20.049-17.941
			c1.998,0.16,4,0.262,6.004,0.316C148.574,73.293,148.521,73.251,148.463,73.216z"/>
		<path fill="#9B6C87" d="M105.246,107.208c0.596-2.317,1.25-4.62,1.98-6.897c0.363-1.144,0.758-2.278,1.223-3.385
			c-0.918,0.592-1.855,1.157-2.83,1.67c-6.82,3.588-14.873,4.756-22.437,3.288c0.098,0.233,0.194,0.468,0.295,0.7
			c1.319,3.043,3.593,6.502,5.187,9.831c5.359-0.151,10.747-1.842,15.441-4.504C104.496,107.689,104.865,107.439,105.246,107.208z"
			/>
	</g>
	<path fill="#BF8AB0" d="M163.969,71.225l0.01-0.005c0.52-0.183,0.66-0.851,0.272-1.237c-6.337-6.317-16.083-8.933-24.78-6.938
		c-0.945,1.166-1.596,2.57-1.772,4.061c-0.255,2.104,0.479,4.342,2.036,5.779c0.385,0.354,0.806,0.65,1.25,0.904
		c0.537-0.271,1.084-0.531,1.645-0.773c6.418,0.516,12.879,0.486,19.292-0.084c0.483-0.043,0.986-0.096,1.411-0.332
		C163.756,72.359,164.057,71.703,163.969,71.225z"/>
	<path fill="#878787" d="M114.168,140.186c1.199,0.021,2.127-0.244,3.182-0.813c-0.268-0.851-0.927-1.563-1.75-1.903
		c-0.822-0.338-1.795-0.287-2.582,0.129C112.836,138.956,113.436,139.454,114.168,140.186z"/>
	<path fill="#878787" d="M112.539,141.823c1.199,0.022,2.127-0.242,3.182-0.813c-0.268-0.849-0.926-1.564-1.748-1.902
		c-0.824-0.338-1.797-0.291-2.582,0.127C111.352,140.534,111.66,141.184,112.539,141.823z"/>
	<path fill="#878787" d="M110.033,143.021c1.199,0.021,2.128-0.242,3.183-0.813c-0.268-0.849-0.927-1.565-1.75-1.903
		s-1.796-0.289-2.582,0.127C108.701,141.004,108.934,142.723,110.033,143.021z"/>
	<path fill="#878787" d="M38.905,137.504c-0.119-0.279-0.29-0.555-0.559-0.693c-0.231-0.119-0.51-0.121-0.76-0.05
		c-0.25,0.072-0.475,0.214-0.682,0.37c-0.41,0.312-0.766,0.697-1.044,1.131c-0.114,0.18-0.217,0.409-0.112,0.594
		c0.11,0.191,0.375,0.213,0.596,0.201c0.657-0.037,1.308-0.16,1.932-0.369c0.294-0.097,0.615-0.246,0.712-0.539
		C39.058,137.938,38.991,137.707,38.905,137.504z"/>
	<path fill="#878787" d="M40.334,138.883c-0.119-0.277-0.29-0.554-0.559-0.691c-0.231-0.121-0.51-0.123-0.76-0.051
		c-0.25,0.071-0.475,0.213-0.682,0.37c-0.411,0.312-0.766,0.696-1.044,1.132c-0.114,0.178-0.217,0.407-0.112,0.592
		c0.11,0.192,0.375,0.215,0.596,0.201c0.657-0.037,1.308-0.16,1.932-0.367c0.293-0.098,0.614-0.248,0.711-0.541
		C40.487,139.316,40.421,139.087,40.334,138.883z"/>
	<path fill="#878787" d="M42.348,139.92c-0.119-0.277-0.29-0.554-0.559-0.693c-0.231-0.119-0.51-0.121-0.76-0.05
		c-0.25,0.072-0.475,0.214-0.682,0.37c-0.41,0.312-0.766,0.697-1.044,1.131c-0.115,0.18-0.217,0.409-0.112,0.594
		c0.11,0.191,0.375,0.213,0.596,0.201c0.657-0.037,1.308-0.16,1.932-0.369c0.294-0.097,0.615-0.246,0.712-0.539
		C42.5,140.354,42.434,140.124,42.348,139.92z"/>
	<path fill="#878787" d="M47.111,134.051c-0.119-0.279-0.29-0.555-0.559-0.693c-0.231-0.118-0.51-0.121-0.76-0.051
		c-0.25,0.072-0.475,0.213-0.682,0.371c-0.41,0.312-0.766,0.696-1.044,1.131c-0.115,0.178-0.217,0.408-0.112,0.594
		c0.11,0.191,0.375,0.214,0.596,0.201c0.657-0.037,1.308-0.162,1.932-0.369c0.294-0.098,0.615-0.245,0.712-0.541
		C47.264,134.482,47.198,134.254,47.111,134.051z"/>
	<path fill="#501939" d="M163.969,71.225l0.01-0.005c0.107-0.038,0.194-0.1,0.27-0.173c-0.312,0.004-1.832,0.021-2.145,0.023
		c-0.309-0.004-0.629-0.036-0.965-0.055c-0.67-0.043-1.385-0.091-2.099-0.138c-0.713-0.093-2.753-0.354-3.058-0.405
		c-0.303-0.062-2.621-0.537-2.621-0.537c-0.029-0.006-0.057,0.012-0.064,0.039c-0.007,0.028,0.012,0.061,0.041,0.065
		c0,0,2.303,0.569,2.604,0.646c0.306,0.066,0.629,0.111,0.963,0.174c0.67,0.115,1.383,0.238,2.097,0.361
		c0.724,0.077,2.791,0.303,3.103,0.32c0.311,0.01,1.59,0.047,1.864,0.057C163.988,71.47,163.99,71.342,163.969,71.225z"/>
	<path fill="#BF8AB0" d="M112.012,102.234c2.088,1.373,4.479,2.056,6.994,2.474c2.52,0.419,5.075,0.522,7.627,0.485
		c4.359-0.064,8.711,0.83,12.982,0.121c0.195-0.033,0.21-0.311,0.02-0.36c-1.764-0.485-4.35-0.61-5.261-0.843
		c1.854-0.031,5.468,0.188,5.563-0.096c0.192-0.561-4.201-1.408-6.172-1.343c0.271-0.052,3.211-0.938,4.099-1.571
		c0.106-0.078,0.046-0.25-0.087-0.246c-3.32,0.136-6.381,1.479-9.441,2.828c-4.102-1.93-8.493-3.014-13.016-3.278
		c0.654-0.994,1.229-2.033,1.763-3.097C115.467,99.034,113.782,100.689,112.012,102.234z"/>
	<path fill="#C37F9A" d="M84.33,86.145c-1.153-1.352-3.098-1.972-4.82-1.537c-1.441,0.363-2.674,1.42-3.33,2.754
		c-0.473,0.965-0.651,2.123-0.239,3.113c0.215,0.52,0.575,0.959,0.93,1.395c0.452,0.553,0.913,1.111,1.504,1.512
		c0.748,0.505,1.672,0.721,2.573,0.67c1.773-0.099,3.445-1.271,4.144-2.902C85.791,89.514,85.484,87.495,84.33,86.145z"/>
	<path fill="#C37F9A" d="M66.705,83.704c0.213,1.296,0.771,2.577,1.77,3.43c1.493,1.274,3.79,1.353,5.532,0.448
		c1.742-0.905,2.949-2.648,3.521-4.525c0.183-0.602,0.298-1.231,0.323-1.863c-3.763,0.062-7.522,0.228-11.267,0.521
		C66.569,82.379,66.596,83.046,66.705,83.704z"/>
	<path fill="#C37F9A" d="M108.961,80.691c-0.443,2.22-0.609,4.528,0.27,6.584c0.662,1.552,2.15,2.935,3.828,2.767
		c1.252-0.126,2.256-1.056,3.117-1.972c1.958-2.081,3.729-4.381,4.906-6.984c1.107-2.45,1.666-5.193,1.311-7.854
		c-3.342,2.662-6.758,5.175-10.738,6.646C110.77,80.205,109.869,80.47,108.961,80.691z"/>
	<path fill="#C37F9A" d="M89.482,84.123c-0.252,1.55-0.487,3.152-0.104,4.675c0.384,1.522,1.54,2.961,3.095,3.185
		c1.092,0.158,2.203-0.308,3.043-1.021c0.842-0.716,1.449-1.661,2.004-2.615c0.863-1.482,1.64-3.05,1.955-4.736
		c0.121-0.646,0.168-1.312,0.129-1.973c-2.357-0.004-4.729-0.119-7.068-0.22c-0.903-0.037-1.809-0.069-2.715-0.103
		C89.788,82.252,89.634,83.195,89.482,84.123z"/>
	<path fill="#C37F9A" d="M58.53,83.035c0.051-0.161,0.094-0.325,0.134-0.491c-4.381,0.58-8.731,1.365-13.032,2.414
		c0.627,1.337,1.755,2.448,3.114,3.043c1.889,0.827,4.151,0.679,5.973-0.29C56.539,86.743,57.907,85.001,58.53,83.035z"/>
	<path fill="#C37F9A" d="M129.098,70.172c0.914,0.536,2.074,0.906,3.012,0.411c0.637-0.336,1.025-1.003,1.291-1.671
		c0.463-1.161,0.611-2.557,0.094-3.651c-2.042,1.066-3.949,2.37-5.803,3.771C128.076,69.493,128.574,69.864,129.098,70.172z"/>
	<path fill="#C37F9A" d="M125.051,75.968c0.383,0.06,0.711-0.255,0.971-0.543c0.578-0.643,1.158-1.284,1.736-1.928
		c0.242-0.269,0.498-0.573,0.492-0.935c-0.008-0.479-0.486-0.826-0.957-0.912c-0.785-0.146-1.607,0.235-2.119,0.851
		c-0.512,0.612-0.74,1.423-0.775,2.22c-0.012,0.258-0.004,0.522,0.096,0.762C124.59,75.721,124.795,75.93,125.051,75.968z"/>
	<g>
		<path fill="#C37F9A" d="M76.152,102.045c1.108,0.089,2.2-0.275,3.308-0.365c1.168-0.097,2.428,0.078,3.474-0.39
			c-0.737-1.794-1.441-3.61-2.309-5.332c-1.737,0.34-3.421,0.953-4.964,1.819c-0.899,0.507-1.85,1.271-1.829,2.305
			C73.854,101.193,75.044,101.956,76.152,102.045z"/>
		<path fill="#C37F9A" d="M87.326,110.852c0.172-0.012,0.348-0.025,0.523-0.047c-1.151-2.187-2.479-4.388-3.535-6.457
			c-0.442,0.188-0.871,0.426-1.276,0.678c-1.036,0.642-2.041,1.339-2.948,2.149c-0.541,0.484-1.083,1.108-1.021,1.831
			c0.048,0.562,0.471,1.038,0.972,1.299c0.5,0.26,1.073,0.34,1.634,0.401C83.552,110.913,85.444,110.961,87.326,110.852z"/>
	</g>
	<path fill="#C37F9A" d="M133.689,73.486c-0.457-0.771-1.467-1.051-2.356-0.949c-1.556,0.175-2.913,1.326-3.519,2.77
		c-0.604,1.443-0.508,3.125,0.08,4.575c2.022-0.225,4.973-2.196,5.756-4.077C133.959,75.064,134.098,74.177,133.689,73.486z"/>
	<path fill="#C37F9A" d="M104.018,84.098c0.785-0.136,1.336-0.834,1.782-1.496c0.312-0.461,0.614-0.938,0.845-1.444
		c-1.906,0.304-3.848,0.436-5.801,0.47c0.289,0.717,0.75,1.366,1.352,1.854C102.707,83.896,103.363,84.211,104.018,84.098z"/>
	<g>
		<path fill="#C37F9A" d="M63.28,94.359c0.176-0.44,0.214-0.963,0.217-1.446c0.006-0.813-0.033-1.651-0.365-2.396
			c-0.699-1.562-2.725-2.334-4.33-1.736c-1.383,0.516-2.33,1.927-2.44,3.396c1.459,0.343,2.905,0.75,4.329,1.233
			C61.562,93.705,62.424,94.023,63.28,94.359z"/>
		<path fill="#C37F9A" d="M110.419,95.582c-0.067-0.725-0.304-1.441-0.659-2.078c-0.613-1.104-1.542-1.998-2.52-2.798
			c-0.6-0.492-1.256-0.968-2.021-1.095c-1.289-0.215-2.521,0.611-3.439,1.539c-2.633,2.656-3.959,6.548-3.506,10.26
			c2.545-0.653,5.02-1.592,7.348-2.814C107.305,97.71,108.895,96.689,110.419,95.582z"/>
	</g>
	<path fill="#9B6C87" d="M81.055,85.73c-0.5-0.129-1.047-0.111-1.512,0.109c-0.562,0.271-0.946,0.803-1.277,1.331
		c-0.292,0.47-0.568,0.976-0.592,1.522c-0.02,0.48,0.159,0.957,0.441,1.349c0.692,0.959,2.039,1.384,3.156,0.997
		c1.117-0.389,1.913-1.557,1.864-2.734C83.088,87.124,82.2,86.025,81.055,85.73z"/>
	<path fill="#9B6C87" d="M91.088,81.361c0.016,0.113,0.505,3.272,0.732,4.74c0.119,0.763,0.375,1.683,1.127,1.855
		c0.453,0.105,0.918-0.121,1.295-0.396c0.902-0.656,1.555-1.595,2.189-2.514c0.604-0.874,1.227-1.798,1.34-2.854
		c0.021-0.195,0.017-0.392,0-0.586C96.021,81.57,91.568,81.38,91.088,81.361z"/>
	<path fill="#9B6C87" d="M69.183,81.708c0.018,0.992,0.186,1.979,0.496,2.923c0.21,0.641,0.504,1.282,1.023,1.711
		c0.623,0.514,1.499,0.646,2.291,0.491c1.86-0.363,3.224-2.304,3.063-4.192c-0.042-0.488-0.179-0.959-0.389-1.396
		c-2.164,0.058-4.326,0.147-6.484,0.282C69.184,81.588,69.182,81.648,69.183,81.708z"/>
	<path fill="#9B6C87" d="M111.363,79.979c-0.027,0.223-0.053,0.442-0.073,0.664c-0.073,0.774-0.122,1.565,0.048,2.326
		c0.17,0.762,0.584,1.497,1.252,1.897c0.669,0.399,1.609,0.385,2.168-0.158c0.498-0.483,0.598-1.229,0.743-1.906
		c0.265-1.237,0.767-2.425,1.472-3.478c0.633-0.946,1.467-1.953,1.375-3.051c-2.098,1.449-4.293,2.717-6.693,3.604
		C111.559,79.914,111.459,79.943,111.363,79.979z"/>
	<path fill="#9B6C87" d="M55.677,84.859c0.32-0.582,0.414-1.28,0.29-1.933c-2.441,0.374-4.872,0.812-7.288,1.332
		c0.287,0.425,0.619,0.812,1.006,1.146c0.87,0.751,2.013,1.215,3.16,1.149C53.992,86.496,55.122,85.867,55.677,84.859z"/>
	<path fill="#9B6C87" d="M125.248,74.537c0.191,0.089,0.411-0.037,0.574-0.173c0.51-0.427,0.898-0.996,1.109-1.628
		c-0.764-0.086-1.555,0.396-1.826,1.113C125.016,74.091,125.014,74.428,125.248,74.537z"/>
	<path fill="#9B6C87" d="M131.133,75.08c-0.697-0.225-1.482,0.216-1.842,0.854c-0.359,0.64-0.37,1.418-0.254,2.143
		c0.766-0.622,1.533-1.243,2.299-1.865c0.133-0.105,0.271-0.225,0.32-0.385C131.758,75.503,131.454,75.184,131.133,75.08z"/>
	<path fill="#9B6C87" d="M129.916,68.896c0.686,0.272,1.521-0.183,1.798-0.867c0.216-0.54,0.128-1.157-0.144-1.68
		c-0.844,0.52-1.668,1.072-2.479,1.649C129.258,68.395,129.525,68.739,129.916,68.896z"/>
	<g>
		<path fill="#9B6C87" d="M61.482,93.689c0.257-0.213,0.403-0.543,0.443-0.877c0.082-0.688-0.237-1.408-0.794-1.821
			c-0.557-0.413-1.33-0.511-1.978-0.263c-0.551,0.211-1.022,0.701-1.083,1.287c-0.022,0.213,0.012,0.424,0.086,0.62
			c0.851,0.235,1.697,0.488,2.535,0.772C60.957,93.499,61.219,93.596,61.482,93.689z"/>
		<path fill="#9B6C87" d="M107.602,97.463c0.002-0.634-0.229-1.255-0.537-1.812c-0.326-0.594-0.768-1.159-1.391-1.426
			c-0.852-0.358-1.873-0.06-2.581,0.535c-0.708,0.596-1.157,1.438-1.541,2.278c-0.476,1.048-0.878,2.151-0.932,3.302
			c-0.005,0.121-0.001,0.248,0.014,0.372c1.714-0.573,3.386-1.274,4.985-2.116C106.295,98.24,106.953,97.857,107.602,97.463z"/>
	</g>
	<path fill="#9B6C87" d="M103.869,82.739c0.39-0.071,0.652-0.44,0.797-0.81c0.066-0.174,0.113-0.353,0.146-0.533
		c-0.742,0.078-1.486,0.131-2.235,0.17c0.034,0.105,0.067,0.216,0.114,0.317C102.902,82.365,103.354,82.834,103.869,82.739z"/>
	<g>
		<path fill="#9B6C87" d="M76.704,100.413c0.275,0.073,0.567,0.036,0.849-0.009c1.547-0.242,3.054-0.685,4.55-1.15
			c-0.244-0.595-0.494-1.188-0.754-1.771c-1.58,0.132-3.132,0.602-4.508,1.39c-0.374,0.215-0.784,0.553-0.716,0.979
			C76.17,100.13,76.428,100.34,76.704,100.413z"/>
		<path fill="#9B6C87" d="M87.002,109.238c-0.496-0.896-1.004-1.787-1.492-2.666c-0.573,0.102-1.137,0.246-1.672,0.474
			c-0.834,0.354-1.602,0.912-2.091,1.677c-0.142,0.221-0.26,0.508-0.131,0.737c0.151,0.269,0.529,0.276,0.837,0.251
			c1.217-0.105,2.435-0.21,3.652-0.314C86.402,109.371,86.716,109.329,87.002,109.238z"/>
	</g>
	<path fill="#C37F9A" d="M149.104,64.258c-1.883-0.999-4.334-0.808-6.037,0.471c-1.055,0.793-1.846,2.115-1.559,3.403
		c0.159,0.716,0.629,1.329,1.182,1.812c1.902,1.658,4.943,1.834,7.023,0.404c0.701-0.48,1.311-1.149,1.545-1.969
		c0.232-0.807,0.077-1.697-0.339-2.427C150.504,65.223,149.844,64.65,149.104,64.258z"/>
	<circle fill="#FFFFFF" cx="147.307" cy="66.955" r="2.969"/>
	<circle fill="#501939" cx="147.303" cy="66.952" r="2.224"/>
	<circle fill="#FFFFFF" cx="145.934" cy="65.7" r="0.785"/>
	<g opacity="0.25">
		<path fill="#FFFFFF" d="M45.482,86.209c15.306-3.745,31.235-4.22,46.979-3.561c6.436,0.27,13.08,0.693,19.12-1.537
			c8.655-3.199,14.64-11.318,23.012-15.2c9.654-4.476,21.976-2.226,29.519,5.239c0.404-0.241,0.49-0.817,0.141-1.168
			c-7.538-7.521-19.902-9.793-29.585-5.307c-8.373,3.883-14.354,12.001-23.013,15.2c-6.041,2.231-12.688,1.81-19.12,1.537
			c-15.744-0.659-31.673-0.187-46.979,3.562c-15.306,3.744-30.04,10.938-40.994,22.267c1.327-0.884,2.656-1.765,3.993-2.632
			C18.956,95.486,31.996,89.509,45.482,86.209z"/>
	</g>
	<g>
		<path fill="#C37F9A" d="M66.39,95.645c-1.877-0.81-3.768-1.58-5.698-2.232c-16.295-5.521-35.24-1.779-48.596,8.953
			c5.072-3.135,10.303-5.953,15.95-7.924c8.476-2.955,18.089-3.666,26.292-0.02c5.248,2.332,9.607,6.275,14.135,9.87
			c-0.393-0.873-0.745-1.767-1.05-2.674C66.779,99.695,66.341,97.657,66.39,95.645z"/>
		<path fill="#C37F9A" d="M105.246,107.208c0.596-2.317,1.25-4.62,1.98-6.897c0.363-1.144,0.758-2.278,1.223-3.385
			c-0.918,0.592-1.855,1.157-2.83,1.67c-6.82,3.588-14.873,4.756-22.437,3.288c0.098,0.233,0.194,0.468,0.295,0.7
			c1.319,3.043,3.593,6.502,5.187,9.831c5.359-0.151,10.747-1.842,15.441-4.504C104.496,107.689,104.865,107.439,105.246,107.208z"
			/>
		<path fill="#C689A2" d="M148.463,73.216c-2.945-1.802-6.723-1.854-10.009-0.795s-6.157,3.118-8.787,5.354
			c-5.087,4.33-9.554,9.476-14.503,13.933c0.012,0.147,0.016,0.297,0.01,0.438c-0.104,2.961-1.137,5.801-2.158,8.582
			c-0.107,0.295-0.219,0.59-0.328,0.886c3.598-3.233,6.847-6.896,9.893-10.659c5.788-7.156,11.604-14.281,20.049-17.941
			c1.998,0.16,4,0.262,6.004,0.316C148.574,73.293,148.521,73.251,148.463,73.216z"/>
	</g>
	<g opacity="0.29">
		<path fill="#C37F9A" d="M113.016,100.729c-0.107,0.295-0.219,0.59-0.328,0.888c3.598-3.233,6.847-6.896,9.893-10.659
			c2.82-3.49,5.652-6.971,8.792-10.046c-3.062,2.771-5.892,5.89-8.71,9.019c-2.812,3.121-5.771,6.17-8.963,8.906
			C113.477,99.469,113.245,100.1,113.016,100.729z"/>
		<path fill="#895B77" d="M105.246,107.208c0.24-0.938,0.494-1.873,0.758-2.806c-0.881,0.52-1.777,1.013-2.695,1.47
			c-4.979,2.481-10.637,3.892-16.15,3.653c0.529,0.966,1.049,1.933,1.508,2.89c5.357-0.151,10.747-1.842,15.441-4.504
			C104.496,107.689,104.865,107.439,105.246,107.208z"/>
		<path fill="#895B77" d="M66.926,99.921c-3.482-2.856-6.983-5.696-11.64-7.576c-14.913-6.021-35.716,5.052-27.241,2.097
			c8.476-2.955,18.089-3.666,26.292-0.02c5.248,2.332,9.607,6.275,14.135,9.87c-0.393-0.873-0.745-1.767-1.05-2.674
			C67.236,101.062,67.072,100.493,66.926,99.921z"/>
	</g>
</g>
</svg>
