<?xml version="1.0" encoding="utf-8"?>
<!-- Generator: Adobe Illustrator 16.0.4, SVG Export Plug-In . SVG Version: 6.00 Build 0)  -->
<!DOCTYPE svg PUBLIC "-//W3C//DTD SVG 1.1//EN" "http://www.w3.org/Graphics/SVG/1.1/DTD/svg11.dtd">
<svg version="1.1" id="Layer_1" xmlns="http://www.w3.org/2000/svg" xmlns:xlink="http://www.w3.org/1999/xlink" x="0px" y="0px"
	 width="170px" height="170px" viewBox="0 0 170 170" enable-background="new 0 0 170 170" xml:space="preserve">
<title>Artboard 9</title>
<g>
	<path fill="#E7933B" d="M56.588,129.74c-3.087,6.187-2.798,13.843-6.795,19.483c-2.711,3.826-6.981,6.13-11.26,8.144
		c-0.73,0.344-0.846,1.341-0.208,1.835c0.628,0.487,1.273,0.915,1.963,1.281c1.222,0.648,2.718,0.512,3.787-0.367
		c5.334-4.387,10.025-9.582,13.645-15.459c1.612-2.617,3.115-5.444,5.622-7.225c2.864-2.034,6.551-2.365,9.93-3.328
		c1.956-0.557,3.843-1.35,5.615-2.347c-5.687-2.233-10.323-6.455-15.182-10.305C60.771,123.72,58.234,126.441,56.588,129.74z"/>
	<path fill="#FBB040" d="M164.251,90.982c-7.538-7.519-19.903-9.793-29.585-5.305c-8.373,3.882-14.356,12.001-23.012,15.2
		c-6.041,2.232-12.688,1.808-19.121,1.537c-15.744-0.659-31.673-0.185-46.979,3.561c-15.306,3.745-30.04,10.938-40.994,22.266
		c7.47-4.978,15.011-9.845,23.486-12.8c8.476-2.955,18.089-3.666,26.292-0.02c5.248,2.332,9.607,6.275,14.135,9.87
		c0.33,0.732,0.696,1.447,1.083,2.149c0.047,0.084,0.091,0.17,0.139,0.254c0.378,0.669,0.784,1.323,1.212,1.962
		c0.065,0.097,0.132,0.193,0.198,0.29c0.437,0.636,0.895,1.256,1.378,1.856c0.055,0.069,0.113,0.135,0.169,0.203
		c0.509,0.621,1.039,1.228,1.595,1.807c0.549,0.571,1.127,1.116,1.719,1.643c0.082,0.073,0.162,0.148,0.245,0.221
		c0.569,0.495,1.158,0.967,1.763,1.417c0.109,0.082,0.218,0.162,0.329,0.241c0.61,0.442,1.234,0.864,1.876,1.259
		c0.095,0.058,0.192,0.112,0.288,0.169c0.678,0.406,1.369,0.792,2.079,1.141c3.869,7.71,9.604,14.212,16.303,19.646
		c0.701,0.568,1.461,1.045,2.261,1.455c2.001,1.025,4.256,1.638,6.487,2.241c0.447,0.121,0.893,0.241,1.335,0.365
		c1.137,0.317,2.361,0.081,3.3-0.636c1.088-0.832,2.142-1.678,3.219-2.515c0.171-0.132,0.275-0.299,0.324-0.475
		c0.119-0.44-0.114-0.938-0.569-1.101c-0.091-0.032-0.19-0.051-0.298-0.054c-3.939-0.081-7.82-0.407-11.779-0.712
		c-1.569-1.722-3.04-3.467-4.398-5.229c-0.679-0.882-1.33-1.768-1.95-2.657c-0.31-0.444-0.612-0.89-0.907-1.337
		c-1.771-2.679-3.26-5.387-4.415-8.102c-0.192-0.453-0.376-0.905-0.55-1.358c-0.348-0.906-0.658-1.812-0.928-2.718
		c-0.159-0.535-0.354-1.08-0.576-1.631c-0.023-0.058-0.053-0.117-0.077-0.175c-0.204-0.495-0.423-0.994-0.663-1.498
		c5.359-0.151,10.747-1.842,15.442-4.504c0.39-0.221,0.759-0.471,1.14-0.703c-0.454,1.77-0.877,3.548-1.252,5.337
		c2.281,1.794,4.986,2.613,7.855,3.091c2.518,0.419,5.074,0.522,7.626,0.484c4.359-0.064,8.711,0.832,12.982,0.121
		c0.194-0.032,0.21-0.308,0.019-0.36c-1.763-0.484-4.35-0.609-5.26-0.842c1.854-0.031,5.468,0.188,5.563-0.095
		c0.194-0.561-4.2-1.409-6.171-1.342c0.271-0.052,3.209-0.937,4.098-1.573c0.107-0.077,0.046-0.25-0.086-0.245
		c-3.321,0.134-6.383,1.479-9.443,2.827c-4.1-1.928-8.492-3.012-13.016-3.279c1.973-2.99,3.282-6.354,4.525-9.718
		c3.596-3.233,6.845-6.896,9.891-10.659c5.788-7.156,11.604-14.281,20.049-17.942c6.418,0.516,12.879,0.487,19.292-0.084
		c0.485-0.043,0.986-0.095,1.411-0.333s0.726-0.893,0.639-1.372l0.01-0.004C164.496,92.037,164.639,91.369,164.251,90.982z"/>
	<g>
		<path fill="#FBD795" d="M66.39,116.645c-1.877-0.81-3.768-1.58-5.698-2.234c-16.295-5.521-35.24-1.779-48.596,8.953
			c5.072-3.134,10.303-5.953,15.95-7.922c8.476-2.955,18.089-3.666,26.292-0.02c5.248,2.332,9.607,6.275,14.135,9.87
			c-0.393-0.873-0.745-1.766-1.05-2.674C66.779,120.695,66.341,118.657,66.39,116.645z"/>
		<path fill="#FBD795" d="M148.463,94.216c-2.945-1.802-6.723-1.854-10.009-0.795s-6.157,3.118-8.787,5.355
			c-5.087,4.329-9.554,9.475-14.503,13.932c0.012,0.148,0.016,0.297,0.01,0.439c-0.104,2.961-1.137,5.8-2.159,8.581
			c-0.108,0.295-0.218,0.59-0.327,0.886c3.596-3.233,6.845-6.896,9.891-10.659c5.788-7.156,11.604-14.281,20.049-17.942
			c1.998,0.161,4,0.263,6.004,0.317C148.574,94.293,148.521,94.251,148.463,94.216z"/>
		<path fill="#FBD795" d="M105.246,128.208c0.596-2.317,1.25-4.62,1.98-6.898c0.365-1.143,0.759-2.279,1.223-3.384
			c-0.918,0.592-1.855,1.157-2.83,1.67c-6.82,3.587-14.873,4.755-22.437,3.288c0.098,0.233,0.194,0.468,0.295,0.7
			c1.319,3.043,3.593,6.502,5.187,9.831c5.359-0.151,10.747-1.842,15.442-4.504C104.496,128.69,104.865,128.44,105.246,128.208z"/>
	</g>
	<path fill="#FBD795" d="M163.969,92.224l0.01-0.004c0.518-0.183,0.66-0.851,0.272-1.237c-6.337-6.319-16.083-8.933-24.78-6.939
		c-0.946,1.166-1.596,2.57-1.774,4.059c-0.253,2.106,0.479,4.343,2.037,5.781c0.384,0.354,0.805,0.65,1.251,0.904
		c0.537-0.271,1.083-0.531,1.643-0.774c6.418,0.516,12.879,0.487,19.292-0.084c0.485-0.043,0.986-0.095,1.411-0.333
		S164.056,92.703,163.969,92.224z"/>
	<path fill="#FBD795" d="M114.168,161.185c1.199,0.021,2.127-0.243,3.182-0.814c-0.268-0.849-0.927-1.565-1.75-1.903
		s-1.796-0.289-2.582,0.127C112.836,159.956,113.436,160.454,114.168,161.185z"/>
	<path fill="#FBD795" d="M112.539,162.823c1.199,0.022,2.127-0.242,3.182-0.813c-0.268-0.849-0.926-1.565-1.749-1.903
		s-1.796-0.29-2.582,0.127C111.351,161.534,111.66,162.184,112.539,162.823z"/>
	<path fill="#FBD795" d="M110.033,164.022c1.199,0.021,2.128-0.243,3.183-0.814c-0.268-0.849-0.927-1.565-1.75-1.903
		s-1.796-0.29-2.582,0.127C108.701,162.004,108.934,163.722,110.033,164.022z"/>
	<path fill="#FBD795" d="M38.905,158.504c-0.119-0.279-0.29-0.555-0.559-0.693c-0.231-0.119-0.51-0.122-0.76-0.05
		s-0.475,0.213-0.682,0.37c-0.41,0.312-0.766,0.697-1.044,1.131c-0.114,0.179-0.217,0.409-0.112,0.593
		c0.11,0.192,0.375,0.214,0.596,0.201c0.657-0.036,1.308-0.16,1.932-0.368c0.294-0.097,0.615-0.246,0.712-0.54
		C39.058,158.938,38.991,158.707,38.905,158.504z"/>
	<path fill="#FBD795" d="M40.334,159.883c-0.119-0.278-0.29-0.554-0.559-0.692c-0.231-0.12-0.51-0.122-0.76-0.051
		c-0.25,0.072-0.475,0.214-0.682,0.371c-0.411,0.312-0.766,0.696-1.044,1.131c-0.114,0.178-0.217,0.408-0.112,0.593
		c0.11,0.192,0.375,0.213,0.596,0.201c0.657-0.037,1.308-0.161,1.932-0.368c0.293-0.098,0.614-0.247,0.711-0.541
		C40.487,160.316,40.421,160.087,40.334,159.883z"/>
	<path fill="#FBD795" d="M42.348,160.92c-0.119-0.278-0.29-0.554-0.559-0.693c-0.231-0.119-0.51-0.122-0.76-0.05
		s-0.475,0.213-0.682,0.37c-0.41,0.312-0.766,0.697-1.044,1.131c-0.115,0.179-0.217,0.409-0.112,0.594
		c0.11,0.191,0.375,0.213,0.596,0.2c0.657-0.036,1.308-0.16,1.932-0.368c0.294-0.097,0.615-0.246,0.712-0.54
		C42.5,161.354,42.434,161.124,42.348,160.92z"/>
	<path fill="#FBD795" d="M47.111,155.051c-0.119-0.279-0.29-0.555-0.559-0.693c-0.231-0.12-0.51-0.122-0.76-0.051
		c-0.25,0.072-0.475,0.213-0.682,0.371c-0.41,0.312-0.766,0.696-1.044,1.131c-0.115,0.178-0.217,0.408-0.112,0.593
		c0.11,0.192,0.375,0.213,0.596,0.201c0.657-0.037,1.308-0.161,1.932-0.368c0.294-0.098,0.615-0.247,0.712-0.541
		C47.264,155.483,47.198,155.254,47.111,155.051z"/>
	<path fill="#501939" d="M163.969,92.224l0.01-0.004c0.107-0.038,0.194-0.1,0.268-0.173c-0.312,0.004-1.832,0.021-2.143,0.024
		c-0.309-0.005-0.63-0.037-0.965-0.056c-0.67-0.043-1.385-0.089-2.099-0.136c-0.713-0.093-2.753-0.354-3.058-0.407
		c-0.303-0.062-2.621-0.537-2.621-0.537c-0.029-0.006-0.057,0.012-0.064,0.04c-0.007,0.029,0.011,0.06,0.041,0.066
		c0,0,2.302,0.571,2.604,0.646c0.304,0.067,0.629,0.112,0.962,0.174c0.669,0.115,1.382,0.239,2.096,0.362
		c0.723,0.077,2.791,0.303,3.102,0.32c0.31,0.01,1.589,0.047,1.865,0.056C163.988,92.47,163.99,92.342,163.969,92.224z"/>
	<path fill="#E7933B" d="M112.011,123.234c2.089,1.373,4.479,2.056,6.995,2.474c2.519,0.419,5.075,0.522,7.627,0.485
		c4.359-0.064,8.711,0.831,12.982,0.121c0.195-0.033,0.21-0.309,0.02-0.36c-1.764-0.485-4.35-0.61-5.261-0.842
		c1.854-0.032,5.468,0.187,5.563-0.096c0.194-0.56-4.201-1.409-6.172-1.342c0.271-0.052,3.211-0.937,4.099-1.573
		c0.107-0.077,0.046-0.25-0.086-0.245c-3.321,0.135-6.382,1.479-9.442,2.827c-4.101-1.928-8.493-3.012-13.016-3.278
		c0.655-0.994,1.231-2.033,1.763-3.097C115.467,120.034,113.782,121.689,112.011,123.234z"/>
	<path fill="#C37F9A" d="M84.33,107.145c-1.153-1.352-3.098-1.972-4.82-1.537c-1.441,0.363-2.674,1.419-3.33,2.754
		c-0.473,0.963-0.651,2.122-0.239,3.113c0.215,0.518,0.575,0.959,0.93,1.393c0.452,0.553,0.913,1.112,1.504,1.512
		c0.748,0.505,1.672,0.72,2.573,0.67c1.773-0.099,3.445-1.27,4.144-2.903C85.791,110.513,85.484,108.495,84.33,107.145z"/>
	<path fill="#C37F9A" d="M66.705,104.704c0.213,1.296,0.771,2.577,1.77,3.43c1.493,1.274,3.79,1.353,5.532,0.448
		s2.949-2.648,3.521-4.526c0.183-0.601,0.298-1.232,0.323-1.862c-3.763,0.06-7.522,0.226-11.267,0.519
		C66.569,103.379,66.596,104.046,66.705,104.704z"/>
	<path fill="#C37F9A" d="M108.961,101.691c-0.443,2.22-0.61,4.53,0.27,6.585c0.662,1.551,2.15,2.934,3.828,2.766
		c1.251-0.126,2.255-1.056,3.117-1.971c1.958-2.082,3.729-4.381,4.906-6.985c1.107-2.45,1.666-5.194,1.311-7.854
		c-3.342,2.662-6.758,5.175-10.738,6.646C110.769,101.205,109.869,101.47,108.961,101.691z"/>
	<path fill="#C37F9A" d="M89.482,105.123c-0.252,1.55-0.487,3.152-0.104,4.675c0.383,1.523,1.54,2.961,3.094,3.185
		c1.093,0.157,2.204-0.308,3.044-1.023c0.841-0.716,1.449-1.661,2.004-2.615c0.863-1.484,1.638-3.05,1.955-4.737
		c0.121-0.646,0.168-1.313,0.128-1.972c-2.358-0.004-4.728-0.121-7.069-0.22c-0.903-0.037-1.808-0.07-2.713-0.101
		C89.788,103.252,89.634,104.195,89.482,105.123z"/>
	<path fill="#C37F9A" d="M58.53,104.035c0.051-0.161,0.094-0.325,0.134-0.491c-4.381,0.58-8.731,1.365-13.032,2.414
		c0.627,1.337,1.755,2.448,3.114,3.043c1.889,0.827,4.151,0.678,5.973-0.29C56.539,107.743,57.907,106.001,58.53,104.035z"/>
	<path fill="#C37F9A" d="M129.098,91.172c0.913,0.536,2.074,0.906,3.012,0.411c0.635-0.336,1.025-1.003,1.291-1.671
		c0.463-1.161,0.61-2.556,0.092-3.651c-2.042,1.066-3.949,2.37-5.801,3.77C128.076,90.493,128.574,90.864,129.098,91.172z"/>
	<path fill="#C37F9A" d="M125.051,96.968c0.383,0.06,0.711-0.255,0.97-0.543c0.579-0.643,1.159-1.285,1.737-1.928
		c0.242-0.268,0.498-0.573,0.492-0.934c-0.008-0.478-0.487-0.826-0.957-0.913c-0.785-0.145-1.608,0.237-2.119,0.851
		c-0.512,0.612-0.74,1.423-0.776,2.22c-0.012,0.258-0.004,0.522,0.095,0.762C124.59,96.721,124.795,96.929,125.051,96.968z"/>
	<g>
		<path fill="#C37F9A" d="M76.152,123.045c1.108,0.089,2.2-0.275,3.308-0.365c1.168-0.097,2.428,0.078,3.474-0.39
			c-0.737-1.794-1.441-3.611-2.309-5.332c-1.737,0.34-3.421,0.953-4.964,1.82c-0.899,0.506-1.85,1.272-1.829,2.304
			C73.854,122.193,75.044,122.956,76.152,123.045z"/>
		<path fill="#C37F9A" d="M87.326,131.851c0.172-0.011,0.348-0.026,0.523-0.047c-1.151-2.186-2.478-4.387-3.533-6.457
			c-0.442,0.188-0.871,0.427-1.276,0.678c-1.036,0.641-2.041,1.338-2.948,2.15c-0.541,0.484-1.083,1.108-1.021,1.831
			c0.048,0.562,0.471,1.038,0.972,1.299c0.5,0.26,1.073,0.34,1.634,0.401C83.552,131.913,85.444,131.961,87.326,131.851z"/>
	</g>
	<path fill="#C37F9A" d="M133.689,94.487c-0.457-0.771-1.467-1.051-2.356-0.95c-1.556,0.175-2.913,1.326-3.519,2.77
		c-0.604,1.443-0.507,3.125,0.08,4.575c2.024-0.225,4.973-2.197,5.756-4.077C133.959,96.064,134.098,95.177,133.689,94.487z"/>
	<path fill="#C37F9A" d="M104.017,105.098c0.786-0.136,1.336-0.835,1.783-1.496c0.312-0.462,0.614-0.939,0.844-1.446
		c-1.905,0.304-3.847,0.436-5.8,0.47c0.289,0.717,0.75,1.366,1.351,1.854C102.707,104.897,103.364,105.211,104.017,105.098z"/>
	<g>
		<path fill="#C37F9A" d="M63.28,115.359c0.176-0.44,0.214-0.963,0.217-1.446c0.006-0.813-0.033-1.651-0.365-2.395
			c-0.699-1.563-2.725-2.335-4.33-1.737c-1.383,0.516-2.33,1.927-2.44,3.396c1.459,0.343,2.905,0.75,4.329,1.233
			C61.562,114.705,62.424,115.024,63.28,115.359z"/>
		<path fill="#C37F9A" d="M110.419,116.582c-0.067-0.724-0.304-1.441-0.659-2.078c-0.614-1.103-1.542-1.998-2.52-2.798
			c-0.6-0.492-1.256-0.968-2.021-1.095c-1.289-0.214-2.521,0.611-3.44,1.54c-2.632,2.656-3.958,6.547-3.506,10.259
			c2.546-0.653,5.019-1.591,7.347-2.814C107.304,118.71,108.894,117.69,110.419,116.582z"/>
	</g>
	<path fill="#9B6C87" d="M81.055,106.73c-0.5-0.129-1.047-0.111-1.512,0.111c-0.562,0.271-0.946,0.802-1.277,1.331
		c-0.292,0.468-0.568,0.974-0.592,1.524c-0.02,0.48,0.159,0.956,0.441,1.347c0.692,0.959,2.039,1.384,3.156,0.997
		s1.913-1.555,1.864-2.735C83.088,108.124,82.2,107.025,81.055,106.73z"/>
	<path fill="#9B6C87" d="M91.088,102.361c0.015,0.114,0.505,3.274,0.733,4.741c0.118,0.762,0.375,1.682,1.126,1.856
		c0.453,0.106,0.918-0.121,1.295-0.396c0.902-0.657,1.555-1.594,2.189-2.513c0.604-0.874,1.227-1.798,1.34-2.854
		c0.021-0.195,0.017-0.391,0.001-0.585C96.021,102.57,91.569,102.38,91.088,102.361z"/>
	<path fill="#9B6C87" d="M69.183,102.708c0.018,0.992,0.186,1.98,0.496,2.923c0.21,0.64,0.504,1.282,1.023,1.711
		c0.623,0.514,1.499,0.646,2.291,0.491c1.86-0.363,3.224-2.304,3.063-4.192c-0.042-0.488-0.179-0.959-0.389-1.396
		c-2.164,0.058-4.326,0.148-6.484,0.283C69.184,102.588,69.182,102.648,69.183,102.708z"/>
	<path fill="#9B6C87" d="M111.363,100.978c-0.027,0.222-0.053,0.443-0.073,0.664c-0.073,0.775-0.122,1.566,0.048,2.327
		s0.584,1.497,1.252,1.897c0.669,0.4,1.609,0.385,2.168-0.158c0.498-0.483,0.598-1.229,0.743-1.906
		c0.265-1.238,0.767-2.425,1.471-3.478c0.633-0.946,1.468-1.953,1.376-3.05c-2.098,1.449-4.293,2.716-6.693,3.604
		C111.558,100.914,111.459,100.943,111.363,100.978z"/>
	<path fill="#9B6C87" d="M55.677,105.86c0.32-0.582,0.414-1.281,0.29-1.932c-2.441,0.374-4.872,0.812-7.288,1.332
		c0.287,0.423,0.619,0.812,1.006,1.146c0.87,0.751,2.013,1.215,3.16,1.151C53.992,107.496,55.122,106.867,55.677,105.86z"/>
	<path fill="#9B6C87" d="M125.248,95.537c0.191,0.089,0.411-0.037,0.574-0.173c0.51-0.426,0.898-0.996,1.109-1.627
		c-0.762-0.086-1.553,0.396-1.825,1.112C125.015,95.091,125.014,95.428,125.248,95.537z"/>
	<path fill="#9B6C87" d="M131.133,96.08c-0.697-0.224-1.482,0.216-1.842,0.854s-0.37,1.417-0.254,2.141
		c0.766-0.622,1.533-1.243,2.299-1.865c0.133-0.106,0.271-0.223,0.32-0.385C131.758,96.503,131.454,96.184,131.133,96.08z"/>
	<path fill="#9B6C87" d="M129.916,89.896c0.686,0.274,1.522-0.181,1.798-0.867c0.216-0.54,0.128-1.157-0.143-1.679
		c-0.845,0.519-1.668,1.073-2.479,1.65C129.258,89.395,129.525,89.739,129.916,89.896z"/>
	<g>
		<path fill="#9B6C87" d="M61.482,114.689c0.257-0.212,0.403-0.543,0.443-0.877c0.082-0.688-0.237-1.408-0.794-1.821
			s-1.33-0.51-1.978-0.262c-0.551,0.211-1.022,0.7-1.083,1.287c-0.022,0.212,0.012,0.423,0.086,0.621
			c0.851,0.235,1.697,0.488,2.535,0.772C60.957,114.499,61.219,114.596,61.482,114.689z"/>
		<path fill="#9B6C87" d="M107.602,118.463c0.002-0.634-0.229-1.255-0.537-1.813c-0.326-0.593-0.768-1.16-1.391-1.425
			c-0.852-0.36-1.873-0.06-2.581,0.535s-1.158,1.437-1.541,2.278c-0.476,1.048-0.878,2.152-0.932,3.302
			c-0.005,0.121-0.001,0.248,0.014,0.372c1.714-0.573,3.385-1.274,4.985-2.116C106.295,119.24,106.953,118.858,107.602,118.463z"/>
	</g>
	<path fill="#9B6C87" d="M103.869,103.739c0.39-0.071,0.652-0.44,0.797-0.81c0.067-0.172,0.113-0.351,0.146-0.532
		c-0.741,0.077-1.486,0.131-2.235,0.169c0.034,0.107,0.068,0.216,0.114,0.319C102.903,103.365,103.354,103.834,103.869,103.739z"/>
	<g>
		<path fill="#9B6C87" d="M76.704,121.413c0.275,0.073,0.567,0.036,0.849-0.009c1.547-0.242,3.054-0.683,4.55-1.15
			c-0.244-0.595-0.494-1.187-0.754-1.772c-1.58,0.131-3.132,0.601-4.508,1.389c-0.374,0.215-0.784,0.553-0.716,0.978
			C76.17,121.13,76.428,121.34,76.704,121.413z"/>
		<path fill="#9B6C87" d="M87.002,130.238c-0.496-0.895-1.004-1.787-1.492-2.666c-0.573,0.102-1.137,0.246-1.672,0.474
			c-0.834,0.354-1.602,0.912-2.091,1.676c-0.142,0.222-0.26,0.509-0.131,0.738c0.151,0.269,0.529,0.277,0.837,0.251
			c1.217-0.105,2.435-0.21,3.653-0.314C86.403,130.371,86.716,130.329,87.002,130.238z"/>
	</g>
	<path fill="#C37F9A" d="M149.103,85.258c-1.882-0.999-4.333-0.808-6.036,0.471c-1.056,0.792-1.847,2.115-1.559,3.403
		c0.159,0.716,0.629,1.329,1.182,1.811c1.902,1.659,4.943,1.835,7.023,0.405c0.701-0.482,1.31-1.151,1.545-1.969
		c0.232-0.807,0.077-1.698-0.339-2.427C150.504,86.223,149.844,85.651,149.103,85.258z"/>
	<circle fill="#FFFFFF" cx="147.306" cy="87.955" r="2.969"/>
	<circle fill="#501939" cx="147.303" cy="87.952" r="2.224"/>
	<circle fill="#FFFFFF" cx="145.934" cy="86.7" r="0.785"/>
	<g opacity="0.25">
		<path fill="#FFFFFF" d="M45.482,107.209c15.306-3.745,31.235-4.22,46.979-3.561c6.435,0.27,13.08,0.695,19.12-1.537
			c8.656-3.199,14.639-11.318,23.012-15.2c9.654-4.476,21.975-2.226,29.519,5.24c0.403-0.242,0.49-0.818,0.139-1.169
			c-7.538-7.519-19.903-9.793-29.585-5.305c-8.373,3.882-14.355,12.001-23.012,15.2c-6.041,2.232-12.688,1.808-19.121,1.537
			c-15.744-0.659-31.673-0.185-46.979,3.561c-15.306,3.745-30.04,10.938-40.994,22.266c1.327-0.884,2.656-1.764,3.993-2.631
			C18.956,116.487,31.996,110.509,45.482,107.209z"/>
	</g>
	<g>
		<path fill="#FBD795" d="M66.39,116.645c-1.877-0.81-3.768-1.58-5.698-2.234c-16.295-5.521-35.24-1.779-48.596,8.953
			c5.072-3.134,10.303-5.953,15.95-7.922c8.476-2.955,18.089-3.666,26.292-0.02c5.248,2.332,9.607,6.275,14.135,9.87
			c-0.393-0.873-0.745-1.766-1.05-2.674C66.779,120.695,66.341,118.657,66.39,116.645z"/>
		<path fill="#FBD795" d="M105.246,128.208c0.596-2.317,1.25-4.62,1.98-6.898c0.365-1.143,0.759-2.279,1.223-3.384
			c-0.918,0.592-1.855,1.157-2.83,1.67c-6.82,3.587-14.873,4.755-22.437,3.288c0.098,0.233,0.194,0.468,0.295,0.7
			c1.319,3.043,3.593,6.502,5.187,9.831c5.359-0.151,10.747-1.842,15.442-4.504C104.496,128.69,104.865,128.44,105.246,128.208z"/>
		<path fill="#FBD795" d="M148.463,94.216c-2.945-1.802-6.723-1.854-10.009-0.795s-6.157,3.118-8.787,5.355
			c-5.087,4.329-9.554,9.475-14.503,13.932c0.012,0.148,0.016,0.297,0.01,0.439c-0.104,2.961-1.137,5.8-2.159,8.581
			c-0.108,0.295-0.218,0.59-0.327,0.886c3.596-3.233,6.845-6.896,9.891-10.659c5.788-7.156,11.604-14.281,20.049-17.942
			c1.998,0.161,4,0.263,6.004,0.317C148.574,94.293,148.521,94.251,148.463,94.216z"/>
	</g>
	<g opacity="0.29">
		<path fill="#C57531" d="M113.015,121.729c-0.108,0.295-0.218,0.59-0.327,0.886c3.596-3.233,6.845-6.896,9.891-10.659
			c2.822-3.49,5.654-6.969,8.792-10.046c-3.062,2.772-5.891,5.89-8.71,9.018c-2.814,3.122-5.771,6.17-8.963,8.907
			C113.476,120.469,113.245,121.1,113.015,121.729z"/>
		<path fill="#C57531" d="M105.246,128.208c0.241-0.938,0.494-1.873,0.758-2.806c-0.881,0.52-1.777,1.013-2.695,1.47
			c-4.979,2.481-10.637,3.891-16.152,3.653c0.531,0.966,1.049,1.933,1.508,2.89c5.359-0.151,10.747-1.842,15.442-4.504
			C104.496,128.69,104.865,128.44,105.246,128.208z"/>
		<path fill="#C57531" d="M66.926,120.921c-3.482-2.856-6.983-5.696-11.64-7.576c-14.913-6.021-35.716,5.052-27.241,2.097
			c8.476-2.955,18.089-3.666,26.292-0.02c5.248,2.332,9.607,6.275,14.135,9.87c-0.393-0.873-0.745-1.766-1.05-2.674
			C67.236,122.062,67.072,121.493,66.926,120.921z"/>
	</g>
</g>
</svg>
