<?xml version="1.0" encoding="utf-8"?>
<!-- Generator: Adobe Illustrator 16.0.4, SVG Export Plug-In . SVG Version: 6.00 Build 0)  -->
<!DOCTYPE svg PUBLIC "-//W3C//DTD SVG 1.1//EN" "http://www.w3.org/Graphics/SVG/1.1/DTD/svg11.dtd">
<svg version="1.1" id="Layer_1" xmlns="http://www.w3.org/2000/svg" xmlns:xlink="http://www.w3.org/1999/xlink" x="0px" y="0px"
	 width="170px" height="170px" viewBox="0 0 170 170" enable-background="new 0 0 170 170" xml:space="preserve">
<title>Artboard 9</title>
<g>
	<path fill="#90C2CD" d="M13.709,140.609c1.109-1.508,2.007-3.461,1.263-5.17c-0.856-0.114-1.728,0.227-2.397,0.76
		c-0.671,0.53-1.168,1.236-1.625,1.95c-1.58,2.468-2.795,5.157-3.597,7.956C9.856,144.762,12.045,142.87,13.709,140.609z"/>
	<path fill="#78A2AD" d="M30.576,129.031c7.193-7.802,23.369-19.589,24.471-19.31c5.328,1.356,13.772,3.139,19.173,4.188
		c5.401,1.048,11.166,1.411,16.277-0.582c5.11-1.994,9.344-6.856,9.049-12.198c7.254-1.342,14.489-1.581,21.836-2.306
		c6.667-0.658,13.3,0.761,19.99,0.387s13.729-0.197,19.604,2.935c0.489-5.139-2.332-9.47-6.914-12.085
		c-4.58-2.612-10.104-3.213-15.41-2.994c-0.721-1.577-2.477-3.051-3.941-4.023c-4.65-3.089-9.77-5.497-15.21-7.237
		c-0.39-0.125-0.744,0.259-0.588,0.627c1.034,2.441,1.226,4.775,2.508,7.248c-0.274,0.127-0.553,0.253-0.829,0.379
		c-4.846,2.213-10.111,2.106-15.453,2.505c-17.441,1.303-35.03,3.362-51.425,9.289c-16.499,5.963-34.41,17.924-40.529,30.675
		c-0.087,0.183,0.323,0.259,0.466,0.109c1.306-1.36,2.484-2.839,3.514-4.405c-0.845,1.492-1.785,3.291-2.401,5.011
		c-0.117,0.326,0.312,0.571,0.545,0.311c1.273-1.43,2.36-3.015,3.222-4.709c-0.477,1.502-1.029,3.354-1.525,4.945
		c-0.044,0.142,0.151,0.241,0.242,0.121c1.717-2.249,2.714-4.969,4.242-7.359c3.73-5.838,9.837-10.061,16.548-12.475
		c1.146-0.413,3.491,0.325,4.121,1.345c0.63,1.019,0.491,2.429-0.324,3.313c-4.769,5.175-9.595,8.983-14.219,14.278
		c-1.82,2.085-4.577,5.167-6.626,7.039c-0.404,0.371-1.085,1.12-0.967,1.294c0.543,0.508,2.712-1.457,4.355-2.804
		c-1.43,1.549-1.6,2.757-2.753,4.541c-0.241,0.375,0.27,0.763,0.583,0.445c1.47-1.492,2.249-2.645,3.294-3.797
		c0.188-0.207,0.322-0.173,0.163,0.058c-0.628,0.905-1.497,2.473-1.759,3.872c-0.069,0.367,0.453,0.529,0.63,0.197
		C26.273,134.592,27.876,131.959,30.576,129.031z"/>
	<path fill="#6D939D" d="M87.096,46.913c1.646-1.019,4.489-1.648,4.271-1.968c-0.285-0.423-3.305,0.351-5.227,1.391l3.84-3.178
		c0.221-0.182,0.021-0.533-0.252-0.447c-1.869,0.591-3.317,1.19-4.636,2.61c0.821-1.553,1.599-2.625,2.782-4.015
		c0.154-0.182-0.031-0.444-0.259-0.365c-1.892,0.649-3.504,2.053-4.352,3.822c-0.31,0.648-0.419,1.265-0.429,1.888
		c-0.46-1.141-0.963-2.267-1.555-3.36c-4.026-7.436-11.027-13.024-18.695-16.905c-7.667-3.882-16.046-6.213-24.36-8.52
		c6.262,4.66,11.251,8.627,16.193,14.597c2.835,3.427,5.724,8.969,7.526,13.003c1.702,3.81,2.388,7.983,2.606,12.131
		c0.688,12.96-3.165,26.11-10.776,36.776c-0.408,0.572-0.664,1.171-0.863,1.785c0.266-0.1,0.534-0.21,0.8-0.305
		c11.37-4.109,23.312-6.359,35.381-7.786c-0.763-6.741-1.754-13.835-2.32-20.491c-0.504-5.91-1.067-11.943-2.772-17.595
		C84.704,48.706,85.777,47.73,87.096,46.913z"/>
	<path fill="#78A2AD" d="M10.254,141.876c10.281-13.118,26.812-31.088,39.136-37.792c-4.425,1.698-11.767,5.899-16.925,11.01
		C26.149,121.352,15.065,134.154,10.254,141.876z"/>
	<path fill="#FBB040" d="M160.977,102.145c0.49-5.139-2.332-9.469-6.912-12.085c-4.51-2.575-9.924-3.202-15.135-3.004
		c-1.111,0.792-2.174,1.667-3.449,2.163c-1.431,0.559-3.021,0.594-4.479,1.072c-1.459,0.477-2.892,1.658-2.823,3.152
		c0.045,1.022,0.805,1.91,1.715,2.426c0.908,0.512,1.961,0.721,2.992,0.93c3.277,0.668,6.535,1.447,9.756,2.349
		C148.945,98.872,155.471,99.211,160.977,102.145z"/>
	<path fill="#F15A29" d="M128.404,94.421c0,0,8.818,0.318,10.824,0.391c0.998,0.019,2.051,0.125,3.092,0.197
		c1.051,0.069,2.117,0.219,3.185,0.326c1.062,0.146,2.12,0.329,3.159,0.507c1.023,0.264,2.042,0.451,3.006,0.76
		c0.938,0.345,1.88,0.586,2.71,0.979c0.823,0.406,1.632,0.736,2.321,1.135c0.67,0.432,1.283,0.83,1.826,1.181
		c0.551,0.343,0.922,0.779,1.281,1.067c0.688,0.615,1.084,0.966,1.084,0.966s-0.401-0.343-1.103-0.945
		c-0.366-0.281-0.743-0.707-1.298-1.039c-0.549-0.34-1.17-0.724-1.844-1.141c-0.693-0.383-1.504-0.695-2.324-1.08
		c-0.828-0.377-1.781-0.602-2.725-0.928c-0.945-0.283-1.976-0.454-2.99-0.693c-1.037-0.157-2.09-0.32-3.147-0.443
		c-1.062-0.088-2.116-0.215-3.169-0.265c-1.061-0.053-2.074-0.14-3.079-0.138c-2.005-0.033-10.827-0.186-10.827-0.186
		L128.404,94.421z"/>
	<path fill="#FFFFFF" d="M132.884,96.797c-1.03-0.209-2.084-0.416-2.993-0.93c-0.91-0.515-1.668-1.402-1.714-2.425
		c-0.067-1.494,1.364-2.675,2.823-3.152s3.05-0.513,4.479-1.071c0.885-0.343,1.662-0.87,2.428-1.424
		c-0.406-0.146-0.812-0.296-1.215-0.45c-2.131-0.816-3.424-1.175-5.53-2.046c-1.647-0.682-4.869-1.804-6.66-1.873
		c-2.858-0.106-4.969,1.25-6.571,3.554c-1.602,2.303-1.959,5.352-1.035,7.984c0.539,1.539,1.504,2.914,2.732,4.021
		c0.585-0.053,1.169-0.103,1.756-0.161c6.667-0.658,13.301,0.761,19.99,0.387c0.828-0.047,1.661-0.084,2.495-0.107
		c-0.41,0.011-0.82,0.026-1.229,0.043C139.419,98.246,136.161,97.467,132.884,96.797z"/>
	<path fill="#F7941E" d="M137.906,87.796c-4.08-1.707-7.811-3.38-11.965-4.277c-1.026-0.222-2.113-0.396-3.115-0.087
		c-1.678,0.522-2.684,2.397-2.432,4.091c0.25,1.695,1.565,3.129,3.16,3.857c1.596,0.728,3.43,0.826,5.178,0.601
		c0.703-0.84,1.565-1.412,2.638-1.716c1.017-0.286,2.093-0.284,3.138-0.44C135.555,89.665,137.262,88.612,137.906,87.796z"/>
	<g>
		<ellipse fill="#FFFFFF" cx="126.18" cy="87.916" rx="3.383" ry="3.287"/>
		<ellipse fill="#0D2820" cx="126.176" cy="87.912" rx="2.534" ry="2.462"/>
		<ellipse fill="#FFFFFF" cx="124.826" cy="86.332" rx="0.895" ry="0.868"/>
	</g>
	<g opacity="0.25">
		<path fill="#FFFFFF" d="M119.341,77.576c5.37,1.733,10.425,4.121,15.021,7.173c1.468,0.972,3.224,2.445,3.941,4.022
			c5.309-0.22,10.83,0.381,15.413,2.996c4.015,2.292,6.679,5.903,6.944,10.222c0.104,0.054,0.21,0.102,0.314,0.155
			c0.49-5.139-2.332-9.47-6.912-12.085c-4.582-2.612-10.104-3.213-15.412-2.994c-0.719-1.577-2.476-3.051-3.94-4.023
			c-4.651-3.089-9.771-5.497-15.21-7.237c-0.389-0.125-0.744,0.259-0.588,0.627C119.075,76.816,119.212,77.198,119.341,77.576z"/>
		<path fill="#FFFFFF" d="M13.65,126.638c0.021-0.021,0.042-0.046,0.061-0.066c6.812-12.121,23.874-23.31,39.654-29.012
			c16.397-5.928,33.982-7.987,51.426-9.289c5.34-0.398,10.605-0.291,15.453-2.506c0.275-0.126,0.554-0.253,0.829-0.378
			c-0.226-0.435-0.408-0.862-0.576-1.288c-4.819,2.17-10.054,2.069-15.358,2.465c-17.441,1.303-35.028,3.362-51.425,9.29
			c-16.499,5.963-34.41,17.923-40.529,30.674C13.097,126.711,13.509,126.787,13.65,126.638z"/>
		<path fill="#FFFFFF" d="M41.485,114.443c0.543-0.59,0.778-1.412,0.693-2.199c-0.097,0.176-0.209,0.343-0.345,0.491
			c-4.769,5.175-9.595,8.983-14.219,14.278c-1.82,2.085-4.577,5.167-6.626,7.039c-0.404,0.371-1.085,1.12-0.967,1.294
			c0.28,0.263,0.992-0.136,1.841-0.764c1.834-1.826,3.927-4.167,5.405-5.862C31.89,123.425,36.716,119.618,41.485,114.443z"/>
	</g>
	<g opacity="0.22">
		<path fill="#46636A" d="M40.789,105.932c-0.098-0.155-0.246-0.303-0.415-0.441c-0.845,0.244-1.684,0.495-2.529,0.741
			c-2.925,1.811-5.809,3.68-8.674,5.574c-3.771,3.026-7.497,6.072-10.669,9.574c-1.021,1.935-2,3.888-2.934,5.863
			c1.16-1.35,2.161-2.824,2.962-4.398c-0.477,1.502-1.029,3.354-1.525,4.945c-0.044,0.142,0.151,0.241,0.242,0.121
			c1.717-2.249,2.714-4.969,4.242-7.359c3.73-5.838,9.837-10.061,16.548-12.475c0.736-0.265,1.966-0.054,2.918,0.399
			C41.298,107.664,41.256,106.69,40.789,105.932z"/>
		<path fill="#46636A" d="M140.005,95.722c-6.69,0.374-13.323-1.046-19.989-0.387c-7.348,0.728-14.582,0.965-21.836,2.306
			c0.291,5.345-3.938,10.204-9.05,12.197c-5.112,1.994-10.876,1.631-16.277,0.583c-5.401-1.049-13.846-2.83-19.173-4.187
			c-0.74-0.188-8.27,5.061-15.316,10.892c-5.5,5.462-10.979,10.959-14.982,17.598c-0.178,0.297-0.444,0.443-0.723,0.481
			c-0.284,0.577-0.585,1.185-1.036,1.88c-0.241,0.375,0.27,0.762,0.583,0.445c1.47-1.492,2.249-2.646,3.294-3.797
			c0.188-0.207,0.322-0.174,0.163,0.057c-0.628,0.906-1.497,2.475-1.759,3.873c-0.069,0.367,0.453,0.529,0.63,0.197
			c1.74-3.268,3.343-5.9,6.043-8.828c7.193-7.803,23.369-19.589,24.471-19.31c5.328,1.355,13.772,3.14,19.173,4.188
			c5.401,1.048,11.166,1.411,16.277-0.582c5.111-1.993,9.344-6.855,9.049-12.199c7.254-1.34,14.489-1.579,21.836-2.304
			c6.667-0.66,13.301,0.759,19.99,0.386c6.691-0.374,13.729-0.196,19.604,2.936C161.225,99.568,146.693,95.347,140.005,95.722z"/>
	</g>
	<path fill="#90C2CD" d="M54.603,109.786c14.178-13.493,24.798-30.04,35.278-46.414c4.366-6.822,8.784-13.755,11.09-21.472
		c3.562-11.904,1.819-24.621,0.049-36.9c8.556,9.955,14.619,21.649,18.412,34.082c1.455,4.768,2.532,9.752,1.957,14.693
		c-0.666,5.72-3.486,10.961-6.257,16.05c-5.666,10.407-9.919,20.897-15.585,31.304C85.798,105.463,69.007,108.602,54.603,109.786z"
		/>
	<g>
		<path fill="#78A2AD" d="M124.516,56.864l4.928-1.052c0.281-0.06,0.277-0.462-0.006-0.51c-1.938-0.329-3.504-0.463-5.354,0.188
			c1.474-0.995,2.681-1.587,4.396-2.275c0.224-0.089,0.188-0.405-0.052-0.441c-1.983-0.288-4.086,0.213-5.688,1.389
			c-1.818,1.334-1.893,3.23-2.768,5.608c1.418-1.303,3.161-1.811,5.107-1.959c1.945-0.148,4.76,0.592,4.724,0.21
			C129.755,57.519,126.717,56.821,124.516,56.864z"/>
		<path fill="#78A2AD" d="M119.432,39.083c-0.798-2.616-1.703-5.2-2.707-7.742c1.489,6.093,1.531,12.587,0.455,18.785
			c-1.785,10.273-6.373,19.882-11.464,29.052c-4.438,7.993-9.299,15.782-13.247,24.002c2.426-0.649,4.795-1.331,7.078-2.052
			c5.666-10.406,9.921-20.895,15.585-31.304c2.771-5.088,5.591-10.329,6.257-16.05C121.964,48.834,120.887,43.85,119.432,39.083z"/>
	</g>
	<g opacity="0.28">
		<path fill="#FFFFFF" d="M117.988,42.795c1.457,4.769,2.535,9.752,1.959,14.692c-0.205,1.761-0.616,3.477-1.165,5.155
			c1.263-2.852,2.247-5.789,2.606-8.867c0.574-4.94-0.502-9.924-1.957-14.692c-3.793-12.433-9.857-24.127-18.414-34.082
			c0.315,2.185,0.629,4.383,0.914,6.589C109.251,20.893,114.557,31.539,117.988,42.795z"/>
	</g>
</g>
</svg>
