<?xml version="1.0" encoding="utf-8"?>
<!-- Generator: Adobe Illustrator 16.0.4, SVG Export Plug-In . SVG Version: 6.00 Build 0)  -->
<!DOCTYPE svg PUBLIC "-//W3C//DTD SVG 1.1//EN" "http://www.w3.org/Graphics/SVG/1.1/DTD/svg11.dtd">
<svg version="1.1" id="Layer_1" xmlns="http://www.w3.org/2000/svg" xmlns:xlink="http://www.w3.org/1999/xlink" x="0px" y="0px"
	 width="170px" height="170px" viewBox="0 0 170 170" enable-background="new 0 0 170 170" xml:space="preserve">
<title>Artboard 9</title>
<g>
	<path fill="#90C2CD" d="M13.709,161.16c1.109-1.552,2.007-3.563,1.263-5.321c-0.856-0.118-1.728,0.233-2.397,0.781
		c-0.671,0.546-1.168,1.273-1.625,2.008c-1.58,2.54-2.795,5.307-3.597,8.188C9.856,165.433,12.045,163.486,13.709,161.16z"/>
	<path fill="#78A2AD" d="M30.576,149.243c7.193-8.03,23.369-20.161,24.471-19.874c5.328,1.396,13.772,3.231,19.173,4.31
		c5.401,1.079,11.166,1.453,16.277-0.599s9.344-7.056,9.049-12.555c7.254-1.38,14.489-1.626,21.836-2.372
		c6.667-0.679,13.3,0.782,19.99,0.398c6.691-0.386,13.729-0.203,19.604,3.02c0.49-5.289-2.332-9.747-6.913-12.438
		c-4.581-2.69-10.104-3.308-15.411-3.082c-0.72-1.623-2.476-3.14-3.941-4.141c-4.651-3.179-9.77-5.657-15.21-7.448
		c-0.389-0.128-0.744,0.266-0.588,0.646c1.034,2.512,1.226,4.914,2.508,7.458c-0.275,0.131-0.553,0.261-0.829,0.391
		c-4.846,2.278-10.112,2.168-15.453,2.578c-17.442,1.341-35.03,3.461-51.425,9.561c-16.499,6.137-34.41,18.447-40.529,31.571
		c-0.087,0.189,0.323,0.267,0.466,0.113c1.306-1.4,2.484-2.922,3.514-4.535c-0.845,1.536-1.785,3.388-2.401,5.157
		c-0.117,0.336,0.312,0.589,0.545,0.32c1.273-1.471,2.36-3.102,3.222-4.846c-0.477,1.546-1.029,3.451-1.525,5.09
		c-0.044,0.146,0.151,0.248,0.242,0.124c1.717-2.315,2.714-5.114,4.242-7.575c3.73-6.007,9.837-10.354,16.548-12.838
		c1.146-0.425,3.491,0.335,4.121,1.384s0.491,2.5-0.324,3.41c-4.769,5.326-9.595,9.246-14.219,14.696
		c-1.82,2.145-4.577,5.317-6.626,7.244c-0.404,0.382-1.085,1.154-0.967,1.332c0.543,0.523,2.712-1.5,4.355-2.886
		c-1.43,1.594-1.6,2.838-2.753,4.674c-0.241,0.386,0.27,0.785,0.583,0.458c1.47-1.535,2.249-2.722,3.294-3.907
		c0.188-0.213,0.322-0.178,0.163,0.058c-0.628,0.933-1.497,2.546-1.759,3.986c-0.069,0.378,0.453,0.545,0.63,0.203
		C26.273,154.966,27.876,152.257,30.576,149.243z"/>
	<path fill="#6D939D" d="M87.095,64.725c1.647-1.048,4.49-1.696,4.272-2.026c-0.285-0.435-3.305,0.361-5.227,1.432l3.841-3.271
		c0.22-0.187,0.021-0.549-0.253-0.46c-1.869,0.609-3.317,1.225-4.635,2.686c0.821-1.598,1.598-2.701,2.782-4.132
		c0.154-0.187-0.031-0.457-0.259-0.376c-1.891,0.668-3.504,2.113-4.352,3.934c-0.31,0.667-0.419,1.302-0.429,1.943
		c-0.46-1.174-0.963-2.333-1.555-3.458c-4.026-7.653-11.027-13.405-18.695-17.399c-7.667-3.995-16.046-6.395-24.36-8.769
		c6.262,4.796,11.251,8.879,16.193,15.024c2.835,3.527,5.724,9.231,7.526,13.383c1.702,3.921,2.388,8.216,2.606,12.485
		c0.688,13.34-3.165,26.874-10.776,37.851c-0.408,0.589-0.664,1.206-0.863,1.837c0.266-0.103,0.534-0.215,0.8-0.313
		c11.37-4.23,23.312-6.545,35.381-8.014c-0.763-6.937-1.754-14.239-2.321-21.09c-0.504-6.083-1.067-12.292-2.772-18.109
		C84.704,66.57,85.777,65.566,87.095,64.725z"/>
	<path fill="#78A2AD" d="M10.254,162.463c10.281-13.501,26.812-31.996,39.136-38.896c-4.425,1.748-11.767,6.072-16.925,11.331
		C26.149,141.339,15.065,154.515,10.254,162.463z"/>
	<path fill="#FBB040" d="M160.977,121.571c0.49-5.289-2.333-9.746-6.913-12.438c-4.509-2.65-9.924-3.296-15.134-3.092
		c-1.111,0.814-2.174,1.716-3.45,2.227c-1.43,0.574-3.021,0.61-4.479,1.103c-1.459,0.491-2.892,1.706-2.823,3.244
		c0.045,1.053,0.804,1.966,1.714,2.496c0.909,0.528,1.962,0.742,2.993,0.957c3.277,0.688,6.535,1.491,9.756,2.418
		C148.945,118.202,155.47,118.552,160.977,121.571z"/>
	<path fill="#F15A29" d="M128.405,113.621c0,0,8.817,0.328,10.823,0.403c0.999,0.018,2.052,0.129,3.093,0.202
		c1.05,0.072,2.117,0.225,3.184,0.336c1.062,0.15,2.12,0.339,3.159,0.522c1.023,0.271,2.042,0.464,3.006,0.781
		c0.938,0.355,1.88,0.604,2.71,1.009c0.823,0.418,1.632,0.758,2.321,1.168c0.67,0.444,1.283,0.854,1.827,1.215
		c0.55,0.352,0.921,0.802,1.28,1.099c0.689,0.632,1.084,0.994,1.084,0.994s-0.401-0.353-1.102-0.973
		c-0.366-0.29-0.743-0.729-1.298-1.07c-0.549-0.35-1.169-0.744-1.844-1.174c-0.693-0.394-1.503-0.715-2.324-1.112
		c-0.828-0.387-1.781-0.618-2.724-0.954c-0.946-0.292-1.976-0.467-2.99-0.713c-1.037-0.163-2.09-0.33-3.148-0.458
		c-1.062-0.09-2.116-0.22-3.169-0.272c-1.06-0.054-2.074-0.143-3.079-0.142c-2.005-0.034-10.827-0.19-10.827-0.19L128.405,113.621z"
		/>
	<path fill="#FFFFFF" d="M132.884,116.067c-1.031-0.215-2.084-0.429-2.993-0.957c-0.91-0.53-1.669-1.443-1.714-2.496
		c-0.068-1.538,1.364-2.753,2.823-3.244c1.459-0.492,3.05-0.528,4.479-1.103c0.884-0.353,1.661-0.896,2.427-1.465
		c-0.406-0.152-0.812-0.305-1.214-0.464c-2.132-0.84-3.425-1.209-5.531-2.106c-1.648-0.701-4.869-1.856-6.66-1.927
		c-2.859-0.109-4.969,1.286-6.572,3.657c-1.601,2.37-1.958,5.509-1.035,8.218c0.539,1.584,1.505,2.999,2.733,4.138
		c0.585-0.054,1.169-0.105,1.756-0.165c6.667-0.679,13.3,0.782,19.99,0.398c0.828-0.049,1.661-0.087,2.495-0.112
		c-0.41,0.012-0.82,0.028-1.229,0.046C139.419,117.559,136.161,116.756,132.884,116.067z"/>
	<path fill="#F7941E" d="M137.906,106.803c-4.08-1.757-7.811-3.479-11.965-4.402c-1.026-0.229-2.113-0.408-3.115-0.09
		c-1.678,0.536-2.683,2.467-2.431,4.21c0.25,1.745,1.565,3.22,3.16,3.97c1.595,0.749,3.429,0.851,5.177,0.619
		c0.704-0.865,1.566-1.454,2.638-1.766c1.016-0.295,2.093-0.293,3.138-0.454C135.555,108.726,137.261,107.643,137.906,106.803z"/>
	<g>
		<circle fill="#FFFFFF" cx="126.179" cy="106.926" r="3.383"/>
		<circle fill="#0D2820" cx="126.176" cy="106.922" r="2.534"/>
		<circle fill="#FFFFFF" cx="124.826" cy="105.296" r="0.894"/>
	</g>
	<g opacity="0.25">
		<path fill="#FFFFFF" d="M119.341,96.284c5.37,1.785,10.425,4.241,15.021,7.383c1.467,1.001,3.223,2.517,3.941,4.14
			c5.309-0.226,10.83,0.392,15.413,3.083c4.015,2.359,6.679,6.076,6.944,10.521c0.104,0.055,0.21,0.104,0.315,0.16
			c0.49-5.289-2.332-9.747-6.913-12.438c-4.581-2.69-10.104-3.308-15.411-3.082c-0.72-1.623-2.476-3.14-3.941-4.141
			c-4.651-3.179-9.77-5.657-15.21-7.448c-0.389-0.128-0.744,0.266-0.588,0.646C119.075,95.502,119.212,95.895,119.341,96.284z"/>
		<path fill="#FFFFFF" d="M13.65,146.779c0.021-0.021,0.042-0.046,0.061-0.068c6.812-12.475,23.874-23.99,39.654-29.859
			c16.397-6.101,33.983-8.221,51.426-9.561c5.34-0.41,10.606-0.3,15.453-2.579c0.275-0.13,0.554-0.26,0.829-0.389
			c-0.225-0.447-0.408-0.888-0.576-1.326c-4.819,2.233-10.053,2.13-15.358,2.537c-17.442,1.341-35.028,3.461-51.425,9.561
			c-16.499,6.137-34.41,18.447-40.529,31.571C13.097,146.855,13.509,146.933,13.65,146.779z"/>
		<path fill="#FFFFFF" d="M41.485,134.228c0.543-0.606,0.778-1.452,0.693-2.262c-0.097,0.181-0.209,0.353-0.345,0.505
			c-4.769,5.326-9.595,9.246-14.219,14.696c-1.82,2.145-4.577,5.317-6.626,7.244c-0.404,0.382-1.085,1.154-0.967,1.332
			c0.28,0.27,0.992-0.14,1.841-0.786c1.834-1.879,3.927-4.289,5.405-6.033C31.89,143.473,36.716,139.554,41.485,134.228z"/>
	</g>
	<g opacity="0.22">
		<path fill="#46636A" d="M40.789,125.469c-0.098-0.161-0.246-0.312-0.415-0.456c-0.845,0.253-1.684,0.511-2.529,0.765
			c-2.925,1.863-5.809,3.786-8.674,5.736c-3.771,3.115-7.497,6.25-10.669,9.854c-1.021,1.991-2,4.001-2.934,6.035
			c1.16-1.389,2.161-2.907,2.962-4.527c-0.477,1.546-1.029,3.451-1.525,5.09c-0.044,0.146,0.151,0.248,0.242,0.124
			c1.717-2.315,2.714-5.114,4.242-7.575c3.73-6.007,9.837-10.354,16.548-12.838c0.736-0.273,1.966-0.056,2.918,0.411
			C41.298,127.251,41.256,126.249,40.789,125.469z"/>
		<path fill="#46636A" d="M140.005,114.96c-6.69,0.385-13.323-1.076-19.99-0.397c-7.347,0.747-14.582,0.991-21.836,2.373
			c0.292,5.5-3.938,10.501-9.049,12.553c-5.112,2.052-10.876,1.678-16.277,0.6c-5.401-1.079-13.846-2.913-19.173-4.309
			c-0.74-0.194-8.27,5.208-15.316,11.21c-5.5,5.622-10.979,11.279-14.982,18.112c-0.178,0.305-0.444,0.456-0.723,0.495
			c-0.284,0.594-0.585,1.219-1.036,1.935c-0.241,0.386,0.27,0.785,0.583,0.458c1.47-1.535,2.249-2.722,3.294-3.907
			c0.188-0.213,0.322-0.178,0.163,0.058c-0.628,0.933-1.497,2.546-1.759,3.986c-0.069,0.378,0.453,0.545,0.63,0.203
			c1.74-3.363,3.343-6.072,6.043-9.086c7.193-8.03,23.369-20.161,24.471-19.874c5.328,1.396,13.772,3.231,19.173,4.31
			c5.401,1.079,11.166,1.453,16.277-0.599s9.344-7.056,9.049-12.555c7.254-1.38,14.489-1.626,21.836-2.372
			c6.667-0.679,13.3,0.782,19.99,0.398c6.691-0.386,13.729-0.203,19.604,3.02C161.224,118.919,146.694,114.574,140.005,114.96z"/>
	</g>
	<path fill="#90C2CD" d="M54.603,129.435c14.178-13.887,24.798-30.917,35.278-47.77c4.366-7.022,8.784-14.157,11.09-22.099
		c3.562-12.252,1.819-25.341,0.048-37.979c8.556,10.246,14.62,22.282,18.413,35.078c1.455,4.907,2.532,10.037,1.957,15.122
		c-0.666,5.888-3.486,11.282-6.257,16.519c-5.666,10.712-9.919,21.508-15.585,32.219C85.798,124.986,69.007,128.217,54.603,129.435z
		"/>
	<g>
		<path fill="#78A2AD" d="M124.516,74.967l4.928-1.083c0.281-0.062,0.276-0.476-0.007-0.525c-1.938-0.339-3.504-0.477-5.354,0.194
			c1.474-1.024,2.68-1.634,4.396-2.342c0.223-0.092,0.188-0.417-0.052-0.454c-1.983-0.297-4.086,0.219-5.689,1.429
			c-1.818,1.373-1.893,3.325-2.768,5.772c1.418-1.341,3.162-1.863,5.108-2.016c1.946-0.153,4.76,0.609,4.724,0.216
			C129.755,75.641,126.717,74.923,124.516,74.967z"/>
		<path fill="#78A2AD" d="M119.432,56.666c-0.798-2.693-1.703-5.352-2.707-7.968c1.489,6.271,1.531,12.955,0.455,19.334
			c-1.785,10.574-6.374,20.463-11.464,29.901c-4.438,8.227-9.299,16.244-13.247,24.704c2.426-0.668,4.795-1.37,7.078-2.111
			c5.666-10.711,9.921-21.507,15.585-32.219c2.771-5.237,5.591-10.631,6.257-16.519C121.964,66.702,120.887,61.572,119.432,56.666z"
			/>
	</g>
	<g opacity="0.28">
		<path fill="#FFFFFF" d="M117.989,60.487c1.457,4.908,2.534,10.037,1.958,15.122c-0.205,1.812-0.616,3.578-1.165,5.305
			c1.263-2.935,2.247-5.958,2.606-9.126c0.575-5.085-0.502-10.215-1.957-15.122c-3.793-12.796-9.857-24.832-18.413-35.078
			c0.315,2.249,0.628,4.511,0.913,6.781C109.251,37.944,114.556,48.901,117.989,60.487z"/>
	</g>
</g>
</svg>
