<svg xmlns="http://www.w3.org/2000/svg" data-name="Your Icon" viewBox="0 0 89.82 112.27499999999999" x="0px" y="0px"><title>pokemon</title><path d="M50,94.91A44.91,44.91,0,0,1,18.24,18.24,44.91,44.91,0,0,1,81.76,81.76,44.62,44.62,0,0,1,50,94.91Zm0-84.32A39.41,39.41,0,0,0,22.13,77.87,39.41,39.41,0,0,0,77.87,22.13,39.15,39.15,0,0,0,50,10.59Z" transform="translate(-5.09 -5.09)"/><path d="M18.31,38.36A1.38,1.38,0,0,1,17,36.46a35.72,35.72,0,0,1,20.82-20,1.38,1.38,0,0,1,.94,2.59A33,33,0,0,0,19.59,37.51,1.38,1.38,0,0,1,18.31,38.36Z" transform="translate(-5.09 -5.09)"/><path d="M50.42,62.19A12.19,12.19,0,1,1,62.62,50,12.21,12.21,0,0,1,50.42,62.19Zm0-20.26A8.07,8.07,0,1,0,58.49,50,8.08,8.08,0,0,0,50.42,41.93Z" transform="translate(-5.09 -5.09)"/><circle cx="45.33" cy="44.91" r="4.27"/><rect x="54.22" y="42.16" width="32.7" height="5.5"/><rect x="3.04" y="42.16" width="33.25" height="5.5"/></svg>