<?xml version="1.0" encoding="utf-8"?>
<!-- Generator: Adobe Illustrator 16.0.4, SVG Export Plug-In . SVG Version: 6.00 Build 0)  -->
<!DOCTYPE svg PUBLIC "-//W3C//DTD SVG 1.1//EN" "http://www.w3.org/Graphics/SVG/1.1/DTD/svg11.dtd">
<svg version="1.1" id="Layer_1" xmlns="http://www.w3.org/2000/svg" xmlns:xlink="http://www.w3.org/1999/xlink" x="0px" y="0px"
	 width="170px" height="170px" viewBox="0 0 170 170" enable-background="new 0 0 170 170" xml:space="preserve">
<title>Artboard 9</title>
<g>
	<path fill="#2D4C55" d="M108.521,160.601c-1.64,0.99-3.62,1.229-5.381,0.479c-2.785-3.98-3.852-8.89-4.648-13.683
		c-0.7-4.203-1.236-8.545-0.264-12.693s3.746-8.113,7.811-9.394c1.627-0.514,3.327,0.046,4.518,1.268
		c1.278,1.312,1.097,3.418,0.788,5.224C109.689,141.477,107.266,150.866,108.521,160.601z"/>
	<path fill="#2D4C55" d="M89.058,160.642c-1.016-3.254-0.887-6.768-0.275-10.12s1.688-6.6,2.555-9.896
		c0.867-3.295,1.531-6.695,1.288-10.095c-0.243-3.398-1.475-6.828-3.934-9.188s-5.722-3.652-8.776-2.143
		c-4.386,2.168-7.521,6.525-8.593,11.299c-1.071,4.773-0.176,9.886,2.076,14.229c1.371,2.643,3.216,5.011,4.738,7.572
		c1.522,2.56,2.743,5.425,2.666,8.403C83.407,161.825,86.431,161.706,89.058,160.642z"/>
	<path fill="#1F3A42" d="M107.56,158.124c-0.027,0.911,0.026,1.827,0.162,2.731c0.539,0.004,0.899-0.036,1.438-0.031
		C109.184,159.67,108.505,158.719,107.56,158.124z"/>
	<path fill="#1F3A42" d="M105.73,158.446c-0.027,0.911,0.026,1.828,0.162,2.731c0.539,0.005,0.898-0.036,1.438-0.031
		C107.354,159.993,106.677,159.041,105.73,158.446z"/>
	<path fill="#1F3A42" d="M103.794,158.554c-0.028,0.911,0.026,1.828,0.162,2.731c0.539,0.005,0.899-0.035,1.438-0.031
		C105.418,160.101,104.74,159.148,103.794,158.554z"/>
	<path fill="#1F3A42" d="M82.609,158.021c-0.216,1.024-0.335,2.069-0.354,3.116c0.646,0.107,1.087,0.13,1.732,0.236
		C84.247,160.074,83.625,158.872,82.609,158.021z"/>
	<path fill="#1F3A42" d="M84.636,158.125c-0.044,1.046,0.011,2.097,0.165,3.132c0.654-0.002,1.093-0.052,1.747-0.053
		C86.59,159.88,85.778,158.797,84.636,158.125z"/>
	<path fill="#1F3A42" d="M87.325,157.694c-0.044,1.046,0.011,2.096,0.166,3.132c0.654-0.001,1.092-0.052,1.746-0.053
		C89.279,159.449,88.467,158.366,87.325,157.694z"/>
	<path fill="#4A727E" d="M47.354,117.008c14.146-5.763,28.469-12.6,43.744-12.504c18.367,0.114,35.62,10.306,54.094,9.342
		c2.828-0.148,5.657,0.359,8.227,1.551c3.446,1.599,6.526,3.88,9.553,6.18c1.223,0.93,2.477,1.907,3.195,3.264
		c0.72,1.357,0.751,3.205-0.342,4.282c-1.095,1.078-3.365,0.713-3.702-0.785c-7.096-2.746-14.436-5.101-21.978-4.1
		c-3.099,0.411-6.109,1.469-8.784,3.085c-2.629,1.59-4.893,3.68-7.176,5.748c-1.631,9.602-3.724,18.972-2.538,28.664
		c-1.639,1.043-3.619,1.296-5.381,0.505c-2.785-4.198-3.851-9.377-4.648-14.432c-0.309-1.957-0.576-3.943-0.706-5.927
		c-7.302,3.104-15.463,4.287-23.387,3.546c-2.571-0.24-5.257-0.757-7.981-1.486c-0.753,2.682-1.559,5.35-2.058,8.088
		c-0.611,3.353-0.74,6.867,0.276,10.119c-2.628,1.065-5.652,1.184-8.255,0.062c0.076-2.978-1.145-5.843-2.667-8.404
		c-1.521-2.56-3.365-4.928-4.737-7.572c-1.754-3.382-2.67-7.229-2.49-11.021c-0.847-0.518-1.681-1.041-2.487-1.577
		c-3.51-2.331-7.699-3.423-11.904-3.176c-5.55,0.326-10.92,0.753-17.433,0.572c-9.224-0.256-17.983-1.463-24.926-7.542
		C17.565,127.631,33.207,122.771,47.354,117.008z"/>
	<g>
		<path fill="#9DA5AA" d="M81.256,135.858c8.952,0.576,18.101-1.366,26.835-3.768c1.515-0.416,3.021-0.861,4.526-1.305
			c-0.558,1.155-0.987,2.384-1.265,3.633c-0.543,2.444-0.606,4.952-0.442,7.462c-7.302,3.104-15.463,4.287-23.387,3.546
			c-2.571-0.24-5.257-0.757-7.981-1.486c0.168-0.603,0.337-1.204,0.497-1.808C80.582,140.073,81.044,137.974,81.256,135.858z"/>
		<path fill="#9DA5AA" d="M124.386,127.022c2.853-0.985,5.694-2.001,8.511-3.082c2.846-1.093,5.725-2.246,8.763-2.499
			c4.286-0.357,8.491,1.104,12.545,2.543c3.177,1.127,7.482,2.049,10.111,4.158c0.455,0.365,0.854,0.775,1.207,1.217
			c-1.162,0.769-3.092,0.35-3.4-1.022c-7.095-2.746-14.436-5.101-21.978-4.1c-3.099,0.411-6.109,1.469-8.784,3.085
			c-2.629,1.59-4.893,3.68-7.176,5.748c0.097-0.569,0.193-1.142,0.285-1.713C124.702,129.929,124.861,128.32,124.386,127.022z"/>
		<path fill="#9DA5AA" d="M4.747,123.965c6.965,4.139,15.613,4.556,23.758,4.107c8.557-0.471,17.245-1.728,25.615,0.109
			c2.198,0.482,4.332,1.179,6.448,1.945c-0.214,0.617-0.399,1.244-0.542,1.879c-0.236,1.057-0.362,2.13-0.413,3.207
			c-0.847-0.518-1.681-1.041-2.487-1.577c-3.51-2.331-7.699-3.423-11.904-3.176c-5.55,0.326-10.92,0.753-17.433,0.572
			c-9.224-0.256-17.983-1.463-24.926-7.542C3.489,123.667,4.117,123.821,4.747,123.965z"/>
	</g>
	<g>
		<path fill="#BCBEC0" d="M108.706,106.922c-0.518-3.136-1.683-6.106-3.354-8.556c-0.162-0.237-0.361-0.489-0.613-0.487
			c-0.235,0.002-0.435,0.24-0.519,0.51c-0.084,0.271-0.078,0.57-0.07,0.859c0.055,2.042,0.108,4.084,0.163,6.125
			c0.007,0.235,0.018,0.477,0.054,0.706c1.458,0.306,2.91,0.644,4.361,1.001C108.721,107.027,108.715,106.974,108.706,106.922z"/>
		<path fill="#BCBEC0" d="M139.987,110.294c-0.103-0.136-0.229-0.28-0.391-0.279c-0.15,0.001-0.278,0.138-0.332,0.292
			c-0.054,0.156-0.049,0.326-0.044,0.493c0.029,0.997,0.06,1.995,0.089,2.991c0.833,0.055,1.666,0.096,2.503,0.109
			C141.415,112.586,140.794,111.355,139.987,110.294z"/>
		<path fill="#BCBEC0" d="M116.561,108.751c-0.519-3.136-1.683-6.106-3.355-8.556c-0.162-0.238-0.361-0.489-0.613-0.487
			c-0.234,0.001-0.435,0.239-0.519,0.511c-0.085,0.27-0.078,0.568-0.069,0.858c0.054,2.042,0.108,4.084,0.163,6.126
			c0.007,0.26,0.021,0.527,0.067,0.779c1.457,0.387,2.912,0.785,4.366,1.184C116.597,109.027,116.582,108.885,116.561,108.751z"/>
		<path fill="#BCBEC0" d="M135.245,109.039c-0.117-0.154-0.261-0.316-0.441-0.316c-0.17,0.002-0.313,0.156-0.374,0.331
			c-0.06,0.175-0.055,0.368-0.05,0.556c0.036,1.226,0.073,2.452,0.108,3.679c0.985,0.141,1.973,0.259,2.962,0.354
			C137.016,111.959,136.263,110.378,135.245,109.039z"/>
		<path fill="#BCBEC0" d="M125.382,110.795c-0.518-3.136-1.683-6.106-3.354-8.557c-0.162-0.236-0.361-0.488-0.613-0.486
			c-0.235,0.002-0.435,0.24-0.519,0.51c-0.084,0.271-0.078,0.57-0.07,0.859c0.054,2.042,0.108,4.084,0.163,6.126
			c0.011,0.397,0.031,0.813,0.184,1.161c1.408,0.375,2.819,0.738,4.23,1.08C125.442,111.27,125.42,111.021,125.382,110.795z"/>
		<path fill="#BCBEC0" d="M129.791,105.992c-0.136-0.197-0.303-0.408-0.513-0.406c-0.197,0.002-0.363,0.2-0.434,0.427
			c-0.071,0.226-0.065,0.476-0.059,0.718c0.045,1.709,0.147,5.419,0.162,5.565c1.203,0.254,2.409,0.485,3.618,0.69
			C132.12,110.424,131.161,107.999,129.791,105.992z"/>
		<path fill="#BCBEC0" d="M39.845,115.914c-0.196-0.139-0.425-0.278-0.623-0.203c-0.184,0.069-0.271,0.314-0.258,0.551
			s0.104,0.469,0.194,0.693c0.372,0.928,0.744,1.855,1.116,2.781c0.887-0.318,1.77-0.646,2.648-0.98
			C41.994,117.668,40.959,116.704,39.845,115.914z"/>
		<path fill="#BCBEC0" d="M34.25,118.066c-0.196-0.139-0.425-0.279-0.623-0.204c-0.184,0.069-0.271,0.314-0.259,0.552
			c0.013,0.236,0.105,0.469,0.195,0.693c0.339,0.844,0.677,1.688,1.016,2.532c0.886-0.271,1.77-0.555,2.65-0.849
			C36.327,119.752,35.325,118.828,34.25,118.066z"/>
		<path fill="#BCBEC0" d="M28.872,120.002c-0.196-0.139-0.426-0.277-0.623-0.203c-0.184,0.07-0.271,0.314-0.259,0.551
			c0.013,0.236,0.104,0.469,0.195,0.694c0.283,0.706,0.566,1.411,0.849,2.117c0.873-0.21,1.742-0.435,2.611-0.671
			C30.796,121.547,29.864,120.707,28.872,120.002z"/>
		<path fill="#BCBEC0" d="M23.276,122.154c-0.196-0.139-0.425-0.278-0.623-0.204c-0.184,0.069-0.271,0.315-0.258,0.552
			s0.105,0.469,0.194,0.693c0.155,0.385,0.309,0.769,0.462,1.152c0.781-0.12,1.561-0.252,2.34-0.399
			C24.727,123.283,24.019,122.681,23.276,122.154z"/>
		<path fill="#BCBEC0" d="M55.736,104.699c-0.255-0.175-0.555-0.35-0.806-0.25c-0.236,0.094-0.344,0.411-0.323,0.716
			c0.021,0.306,0.144,0.603,0.265,0.892c0.853,2.031,1.705,4.062,2.558,6.093c0.083,0.196,0.17,0.397,0.271,0.586
			c1.388-0.565,2.78-1.122,4.175-1.663C60.207,108.516,58.095,106.317,55.736,104.699z"/>
		<path fill="#BCBEC0" d="M98.788,98.812c-0.161-0.193-0.361-0.397-0.612-0.396c-0.235,0.001-0.435,0.194-0.52,0.414
			c-0.084,0.22-0.077,0.462-0.069,0.697c0.055,1.657,0.108,3.315,0.163,4.973c0.005,0.152,0.013,0.308,0.034,0.46
			c1.448,0.18,2.892,0.41,4.331,0.676C101.585,103.136,100.435,100.77,98.788,98.812z"/>
		<path fill="#BCBEC0" d="M50.065,109.89c-0.196-0.14-0.425-0.278-0.623-0.204c-0.184,0.07-0.271,0.314-0.258,0.551
			c0.012,0.237,0.104,0.47,0.194,0.695c0.602,1.498,1.203,2.998,1.804,4.498c1.02-0.424,2.041-0.85,3.064-1.273
			C53.069,112.472,51.645,111.01,50.065,109.89z"/>
		<path fill="#BCBEC0" d="M94.438,104.633c0-0.176-0.048-0.367-0.107-0.533c-0.48-1.348-1.25-2.592-2.243-3.621
			c-0.094-0.097-0.2-0.197-0.334-0.212c-0.318-0.034-0.457,0.389-0.479,0.708c-0.087,1.177-0.173,2.354-0.26,3.529
			c0.028,0.001,0.056,0,0.084,0C92.214,104.512,93.327,104.557,94.438,104.633z"/>
		<path fill="#BCBEC0" d="M48.408,116.576c-1.106-1.479-2.404-2.771-3.83-3.781c-0.196-0.14-0.425-0.279-0.623-0.205
			c-0.184,0.07-0.271,0.315-0.258,0.552c0.012,0.237,0.104,0.469,0.194,0.694c0.525,1.31,1.051,2.619,1.576,3.93
			C46.099,117.515,48.056,116.721,48.408,116.576z"/>
	</g>
	<circle fill="#FFFFFF" cx="152.274" cy="119.289" r="3.102"/>
	<circle fill="#112B32" cx="152.271" cy="119.286" r="2.324"/>
	<circle fill="#FFFFFF" cx="150.767" cy="118.063" r="0.82"/>
	<path fill="#2D4C55" d="M120.685,159.307c-0.028,0.912,0.026,1.828,0.162,2.732c0.539,0.005,0.899-0.035,1.438-0.031
		C122.309,160.854,121.631,159.902,120.685,159.307z"/>
	<path fill="#2D4C55" d="M118.856,159.629c-0.028,0.912,0.026,1.828,0.162,2.732c0.538,0.005,0.898-0.035,1.438-0.031
		C120.479,161.176,119.802,160.225,118.856,159.629z"/>
	<path fill="#2D4C55" d="M116.92,159.736c-0.028,0.913,0.026,1.828,0.162,2.733c0.538,0.004,0.898-0.036,1.438-0.032
		C118.543,161.283,117.865,160.333,116.92,159.736z"/>
	<path fill="#BD897D" d="M45.771,117.645c-2.978,1.188-6.017,2.323-9.095,3.332c0.926,1.008,1.853,2.017,2.779,3.024
		c0.91,0.989,1.99,2.058,3.334,2.036c1.764-0.029,2.907-1.918,3.241-3.65C46.333,120.812,46.221,119.182,45.771,117.645z"/>
	<path fill="#BD897D" d="M23.592,124.264c0.095,0.103,0.189,0.206,0.284,0.309c0.803,0.873,1.756,1.816,2.943,1.797
		c1.555-0.025,2.565-1.692,2.86-3.221c0.009-0.05,0.013-0.1,0.021-0.149C27.672,123.505,25.634,123.932,23.592,124.264z"/>
	<path fill="#BD897D" d="M131.338,112.771c-0.536,1.167-1.344,2.189-1.954,3.32c-0.627,1.163-1.042,2.547-0.633,3.805
		c3.917,0.469,7.691-1.951,10.135-5.047c0.264-0.334,0.515-0.68,0.749-1.035C136.85,113.65,134.086,113.279,131.338,112.771z"/>
	<path fill="#BD897D" d="M66.071,111.072c1.426,1.68,1.916,3.934,2.402,6.083c0.485,2.148,1.075,4.401,2.628,5.964
		c1.554,1.561,4.391,2.061,5.902,0.457c0.935-0.992,1.117-2.463,1.162-3.826c0.144-4.328-0.621-8.684-2.229-12.703
		c-0.07-0.175-0.145-0.35-0.221-0.524c-3.606,0.909-7.17,2.071-10.706,3.366C65.34,110.297,65.734,110.675,66.071,111.072z"/>
	<g>
		<path fill="#BD897D" d="M117.453,141.188c0.194,0.828,1.086,1.275,1.905,1.506c1.011,0.284,2.064,0.401,3.113,0.359
			c0.194-1.237,1.222-7.156,1.294-7.564c-1.883,0.858-3.636,2-5.168,3.39C117.928,139.484,117.247,140.309,117.453,141.188z"/>
		<path fill="#BD897D" d="M112.53,138.241c1.832-0.812,3.368-2.213,4.53-3.847c0.493-0.693,0.932-1.617,0.512-2.358
			c-0.475-0.834-1.667-0.824-2.61-0.654c-0.983,0.179-1.953,0.419-2.907,0.707c-0.29,0.761-0.525,1.542-0.701,2.33
			c-0.319,1.438-0.474,2.896-0.515,4.364C111.419,138.659,111.988,138.48,112.53,138.241z"/>
		<path fill="#BD897D" d="M113.998,147.071c-0.811,0.207-1.602,0.488-2.365,0.832l0.325,1.948c0.341,1.928,0.75,3.851,1.305,5.71
			c1.137-0.638,2.11-1.57,2.759-2.701c0.594-1.031,0.913-2.215,0.947-3.403C117.015,147.861,115.544,146.675,113.998,147.071z"/>
	</g>
	<path fill="#BD897D" d="M100.544,112.324c-0.688,2.119-1.737,4.177-1.82,6.404c-0.084,2.227,1.23,4.744,3.443,5.008
		c2.387,0.283,4.198-2.037,5.359-4.141c1.143-2.071,2.176-4.203,3.092-6.385c0.707-1.686,1.346-3.443,1.553-5.246
		c-3.536-0.939-7.081-1.807-10.652-2.438C101.58,107.826,101.253,110.136,100.544,112.324z"/>
	<path fill="#BD897D" d="M126.84,114.243c0.271-0.731,0.488-1.494,0.636-2.269c-3.127-0.707-6.241-1.539-9.354-2.391
		c-0.948,3.18-2.317,6.301-3.242,9.494c-0.312,1.076-0.574,2.231-0.245,3.303c0.144,0.464,0.402,0.902,0.786,1.199
		c1.063,0.823,2.613,0.322,3.782-0.345C122.689,121.248,125.442,118.006,126.84,114.243z"/>
	<path fill="#BD897D" d="M93.846,108.881c0.155-1.403,0.29-2.882,0.116-4.273c-0.951-0.059-1.906-0.098-2.864-0.104
		c-2.985-0.019-5.933,0.23-8.85,0.682c0.009,0.02,0.019,0.041,0.028,0.062c2.09,4.641,1.421,10,2.151,15.037
		c0.186,1.285,0.482,2.596,1.236,3.652c0.752,1.057,2.059,1.809,3.335,1.57c2.019-0.377,2.856-2.77,3.238-4.787
		C92.974,116.806,93.41,112.842,93.846,108.881z"/>
	<path fill="#BD897D" d="M54.826,120.959c0.58,1.193,1.305,2.512,2.586,2.854c0.9,0.241,1.891-0.096,2.584-0.718
		c0.693-0.623,1.119-1.497,1.367-2.396c0.814-2.949-0.158-6.033-1.494-8.838c-2.642,1.053-5.271,2.148-7.891,3.238
		C52.928,117.053,53.877,119.006,54.826,120.959z"/>
	<g>
		<path fill="#BD897D" d="M81.289,135.417c-0.086-0.002-0.17-0.006-0.262-0.006c-2.006,0.011-4.008,0.472-5.817,1.34
			c-0.731,0.352-1.495,0.851-1.689,1.637c-0.175,0.713,0.189,1.474,0.743,1.953c0.554,0.48,1.267,0.729,1.97,0.934
			c1.254,0.362,2.541,0.603,3.84,0.728C80.638,139.842,81.105,137.637,81.289,135.417z"/>
		<path fill="#BD897D" d="M66.825,140.319c1.19-1.39,0.929-3.586-0.078-5.113c-1.428-2.166-4.057-3.307-6.648-3.49
			c-0.023,0.097-0.052,0.192-0.074,0.29c-0.236,1.055-0.372,2.126-0.423,3.201c-0.119,2.49,0.243,5.006,1,7.398
			c1.285-0.198,2.561-0.452,3.793-0.861C65.298,141.445,66.208,141.042,66.825,140.319z"/>
		<path fill="#BD897D" d="M70.062,150.582c0.785-0.902,1.467-2.235,0.803-3.23c-0.532-0.799-1.649-0.916-2.609-0.865
			c-1.826,0.097-3.629,0.528-5.312,1.243c0.581,0.975,1.207,1.922,1.835,2.87c0.623,0.935,1.243,1.87,1.828,2.829
			C67.901,152.671,69.078,151.714,70.062,150.582z"/>
	</g>
	<g>
		<path fill="#4A727E" d="M142.62,121.395c-0.203,0.004-0.406,0.015-0.609,0.027c0.066,0.875,0.091,1.756,0.09,2.638
			c0.203-0.013,0.406-0.025,0.609-0.032C142.71,123.148,142.686,122.269,142.62,121.395z"/>
		<path fill="#4A727E" d="M87.537,145.428c0.203,0.02,0.407,0.034,0.611,0.051c0.591-3.193,0.856-6.434,0.776-9.684
			c-0.203,0.017-0.407,0.029-0.609,0.044C88.393,139.056,88.127,142.267,87.537,145.428z"/>
		<path fill="#4A727E" d="M137.632,122.252c-0.195,0.058-0.39,0.115-0.584,0.177c0.194,0.767,0.343,1.544,0.448,2.329
			c0.198-0.051,0.396-0.101,0.596-0.146C137.982,123.816,137.829,123.028,137.632,122.252z"/>
		<path fill="#4A727E" d="M126.948,126.143c-0.191,0.068-0.384,0.135-0.575,0.203c0.507,1.213,0.901,2.469,1.181,3.749
			c0.174-0.146,0.35-0.291,0.526-0.434C127.802,128.461,127.424,127.283,126.948,126.143z"/>
		<path fill="#4A727E" d="M107.136,132.352c0.622,3.543,0.814,7.164,0.578,10.754c0.21-0.07,0.419-0.14,0.627-0.215
			c0.215-3.573,0.008-7.176-0.614-10.7C107.53,132.244,107.333,132.298,107.136,132.352z"/>
		<path fill="#4A727E" d="M150.975,122.879c-0.198-0.064-0.397-0.128-0.597-0.189c-0.052,0.653-0.153,1.304-0.304,1.943
			c0.199,0.037,0.398,0.08,0.597,0.121C150.816,124.137,150.918,123.51,150.975,122.879z"/>
		<path fill="#4A727E" d="M147.128,124.189c0.115-0.766,0.18-1.537,0.189-2.309c-0.202-0.043-0.404-0.082-0.606-0.119
			c-0.004,0.793-0.071,1.586-0.192,2.374C146.722,124.154,146.925,124.168,147.128,124.189z"/>
		<path fill="#4A727E" d="M159.982,125.883c-0.194-0.072-0.39-0.143-0.587-0.211c-0.06,0.518-0.153,1.033-0.276,1.542
			c0.192,0.069,0.385,0.138,0.577,0.209C159.821,126.916,159.917,126.4,159.982,125.883z"/>
		<path fill="#4A727E" d="M155.451,125.984c0.184-0.471,0.321-0.955,0.42-1.449c-0.197-0.061-0.392-0.123-0.584-0.186
			c-0.095,0.498-0.234,0.988-0.422,1.461C155.061,125.869,155.256,125.924,155.451,125.984z"/>
		<path fill="#4A727E" d="M130.646,124.789c0.321,0.807,0.591,1.637,0.811,2.479c0.182-0.108,0.366-0.21,0.55-0.312
			c-0.218-0.809-0.48-1.604-0.79-2.381C131.026,124.646,130.837,124.718,130.646,124.789z"/>
		<path fill="#4A727E" d="M28.315,131.044c0.204,0.004,0.409,0.01,0.609,0.014l0.075-3.015c-0.165,0.009-0.573,0.033-0.61,0.035
			L28.315,131.044z"/>
		<path fill="#4A727E" d="M33.969,131.036c0.205-0.005,0.41-0.011,0.613-0.017l0.227-3.378c-0.205,0.015-0.409,0.03-0.614,0.045
			L33.969,131.036z"/>
		<path fill="#4A727E" d="M17.919,130.177c0.2,0.034,0.4,0.067,0.602,0.099l0.334-2.249c-0.204-0.017-0.407-0.034-0.609-0.054
			L17.919,130.177z"/>
		<path fill="#4A727E" d="M81.62,144.457c0.2,0.046,0.399,0.086,0.599,0.13c0.859-2.786,1.247-5.712,1.139-8.627
			c-0.204-0.004-0.407-0.012-0.611-0.019C82.859,138.818,82.475,141.708,81.62,144.457z"/>
		<path fill="#4A727E" d="M23.093,128.208c-0.203-0.002-0.407-0.001-0.61-0.005l-0.041,2.539c0.203,0.019,0.406,0.034,0.609,0.05
			L23.093,128.208z"/>
		<path fill="#4A727E" d="M41.816,127.25c-0.203,0.006-0.406,0.012-0.61,0.019c-0.038,1.157-0.141,2.311-0.311,3.455
			c0.208-0.014,0.415-0.025,0.623-0.038C41.682,129.548,41.78,128.401,41.816,127.25z"/>
		<path fill="#4A727E" d="M103,144.436c0.363-3.631,0.132-7.298-0.69-10.855c-0.198,0.047-0.396,0.094-0.594,0.139
			c0.821,3.557,1.044,7.224,0.659,10.851C102.584,144.525,102.792,144.483,103,144.436z"/>
		<path fill="#4A727E" d="M94.342,145.591c0.208-0.008,0.414-0.02,0.621-0.031c0.498-3.47,0.457-7.03-0.124-10.477
			c-0.2,0.032-0.401,0.064-0.603,0.096C94.815,138.604,94.85,142.146,94.342,145.591z"/>
		<path fill="#4A727E" d="M48.853,130.584c0.203,0.024,0.404,0.053,0.606,0.085c0.216-1.042,0.379-2.096,0.495-3.155
			c-0.202-0.021-0.404-0.048-0.606-0.067C49.232,128.499,49.068,129.547,48.853,130.584z"/>
		<path fill="#4A727E" d="M56.629,133.321c0.499-1.345,0.942-2.712,1.331-4.094c-0.193-0.062-0.389-0.12-0.583-0.18
			c-0.375,1.335-0.801,2.655-1.28,3.956C56.275,133.107,56.453,133.212,56.629,133.321z"/>
	</g>
	<g opacity="0.16">
		<path fill="#FFFFFF" d="M47.354,118.155c14.146-5.763,28.469-12.599,43.744-12.504c18.367,0.114,35.62,10.306,54.094,9.341
			c2.828-0.146,5.657,0.36,8.226,1.553c3.447,1.598,6.527,3.879,9.554,6.179c1.223,0.93,2.477,1.907,3.195,3.265
			c0.238,0.447,0.399,0.949,0.471,1.46c0.13-0.871-0.053-1.821-0.471-2.608c-0.719-1.356-1.973-2.334-3.195-3.264
			c-3.026-2.3-6.106-4.581-9.553-6.18c-2.569-1.191-5.398-1.699-8.227-1.551c-18.474,0.964-35.727-9.228-54.094-9.342
			c-15.275-0.096-29.598,6.741-43.744,12.504c-14.147,5.764-29.787,10.623-44.491,6.482c0.694,0.608,1.407,1.165,2.136,1.68
			C19.074,128.301,33.891,123.641,47.354,118.155z"/>
	</g>
	<g opacity="0.18">
		<path fill="#1B373E" d="M2.863,123.49c6.943,6.079,15.702,7.286,24.926,7.542c6.512,0.181,11.883-0.246,17.433-0.572
			c4.206-0.247,8.395,0.845,11.904,3.176c0.802,0.534,1.634,1.056,2.477,1.571c0.048-0.994,0.171-1.984,0.376-2.961
			c-3.589-2.353-11.645-3.676-15.723-3.636C38.697,128.665,11.98,131.48,2.863,123.49z"/>
		<path fill="#1B373E" d="M89.093,142.562c-2.899-0.414-5.839-0.911-8.765-1.563c-0.093,0.379-0.616,2.339-0.785,2.941
			c2.723,0.729,5.411,1.246,7.981,1.486c7.921,0.741,16.08-0.435,23.379-3.537c-0.024-0.37-0.042-0.74-0.055-1.108
			C103.888,143.023,96.349,143.601,89.093,142.562z"/>
	</g>
	<path fill="#2D4C55" d="M71.312,159.527c-0.216,1.024-0.335,2.069-0.353,3.116c0.646,0.105,1.086,0.129,1.732,0.235
		C72.95,161.579,72.328,160.378,71.312,159.527z"/>
	<path fill="#2D4C55" d="M73.34,159.631c-0.045,1.046,0.01,2.096,0.165,3.132c0.654-0.002,1.092-0.052,1.747-0.053
		C75.293,161.385,74.481,160.303,73.34,159.631z"/>
	<path fill="#2D4C55" d="M76.029,159.201c-0.044,1.045,0.011,2.096,0.165,3.131c0.655-0.002,1.092-0.051,1.747-0.053
		C77.983,160.955,77.171,159.872,76.029,159.201z"/>
	<path fill="#112B32" d="M163.088,124.48c-0.131,0.191,0.004,0.467,0.203,0.586c0.199,0.117,0.44,0.131,0.667,0.18
		s0.468,0.16,0.548,0.377c-0.095-0.408-0.319-0.786-0.634-1.064C163.648,124.359,163.256,124.234,163.088,124.48z"/>
</g>
</svg>
