<?xml version="1.0" encoding="utf-8"?>
<!-- Generator: Adobe Illustrator 16.0.4, SVG Export Plug-In . SVG Version: 6.00 Build 0)  -->
<!DOCTYPE svg PUBLIC "-//W3C//DTD SVG 1.1//EN" "http://www.w3.org/Graphics/SVG/1.1/DTD/svg11.dtd">
<svg version="1.1" id="Layer_1" xmlns="http://www.w3.org/2000/svg" xmlns:xlink="http://www.w3.org/1999/xlink" x="0px" y="0px"
	 width="170px" height="170px" viewBox="0 0 170 170" enable-background="new 0 0 170 170" xml:space="preserve">
<title>Artboard 9</title>
<g>
	<path fill="#2D4C55" d="M108.886,133.564c-1.665,1.005-3.677,1.248-5.463,0.486c-2.828-4.042-3.912-9.027-4.72-13.894
		c-0.711-4.268-1.256-8.677-0.268-12.888c0.986-4.211,3.803-8.238,7.93-9.538c1.652-0.522,3.379,0.046,4.587,1.287
		c1.299,1.333,1.115,3.471,0.802,5.304C110.072,114.146,107.611,123.68,108.886,133.564z"/>
	<path fill="#2D4C55" d="M89.124,133.606c-1.032-3.304-0.901-6.873-0.279-10.276c0.621-3.403,1.714-6.701,2.594-10.048
		c0.881-3.346,1.555-6.797,1.308-10.25c-0.246-3.45-1.498-6.933-3.994-9.329c-2.497-2.396-5.81-3.707-8.911-2.176
		c-4.454,2.201-7.636,6.625-8.725,11.473c-1.088,4.846-0.179,10.037,2.107,14.448c1.392,2.683,3.266,5.087,4.811,7.688
		c1.545,2.599,2.785,5.508,2.707,8.532C83.386,134.808,86.457,134.687,89.124,133.606z"/>
	<path fill="#1F3A42" d="M107.91,131.049c-0.027,0.926,0.026,1.855,0.165,2.773c0.547,0.004,0.912-0.037,1.459-0.031
		C109.559,132.619,108.869,131.653,107.91,131.049z"/>
	<path fill="#1F3A42" d="M106.053,131.375c-0.028,0.927,0.025,1.856,0.164,2.773c0.548,0.005,0.911-0.036,1.46-0.03
		C107.7,132.947,107.013,131.98,106.053,131.375z"/>
	<path fill="#1F3A42" d="M104.086,131.486c-0.028,0.924,0.027,1.855,0.165,2.772c0.547,0.005,0.913-0.036,1.46-0.031
		C105.735,133.057,105.047,132.089,104.086,131.486z"/>
	<path fill="#1F3A42" d="M82.576,130.945c-0.219,1.039-0.34,2.1-0.359,3.163c0.656,0.108,1.104,0.133,1.758,0.239
		C84.239,133.029,83.607,131.809,82.576,130.945z"/>
	<path fill="#1F3A42" d="M84.634,131.05c-0.045,1.062,0.011,2.13,0.167,3.181c0.664-0.002,1.111-0.053,1.774-0.054
		C86.618,132.832,85.793,131.732,84.634,131.05z"/>
	<path fill="#1F3A42" d="M87.364,130.612c-0.045,1.062,0.011,2.129,0.169,3.181c0.663-0.001,1.108-0.054,1.771-0.054
		C89.349,132.395,88.523,131.295,87.364,130.612z"/>
	<path fill="#4A727E" d="M46.779,89.302c14.363-5.852,28.907-12.793,44.415-12.696c18.649,0.116,36.168,10.465,54.925,9.485
		c2.872-0.149,5.745,0.365,8.354,1.574c3.5,1.625,6.627,3.94,9.701,6.276c1.241,0.943,2.515,1.937,3.243,3.313
		c0.73,1.378,0.763,3.254-0.347,4.348c-1.112,1.095-3.417,0.724-3.76-0.797c-7.204-2.788-14.657-5.18-22.315-4.163
		c-3.146,0.417-6.202,1.492-8.918,3.133c-2.67,1.614-4.968,3.736-7.286,5.836c-1.656,9.749-3.782,19.264-2.578,29.104
		c-1.664,1.059-3.675,1.316-5.464,0.514c-2.828-4.263-3.909-9.521-4.719-14.653c-0.314-1.987-0.585-4.004-0.717-6.019
		c-7.415,3.151-15.7,4.353-23.746,3.601c-2.61-0.243-5.338-0.769-8.104-1.509c-0.765,2.723-1.583,5.432-2.09,8.212
		c-0.62,3.404-0.751,6.973,0.281,10.275c-2.669,1.08-5.739,1.201-8.382,0.062c0.077-3.023-1.163-5.933-2.708-8.533
		c-1.544-2.6-3.417-5.004-4.81-7.688c-1.781-3.435-2.711-7.34-2.528-11.19c-0.86-0.525-1.707-1.057-2.525-1.602
		c-3.564-2.366-7.817-3.476-12.087-3.225c-5.635,0.331-11.087,0.765-17.701,0.581c-9.366-0.261-18.259-1.486-25.309-7.657
		C16.533,100.088,32.415,95.153,46.779,89.302z"/>
	<g>
		<path fill="#9DA5AA" d="M81.202,108.44c9.089,0.585,18.379-1.386,27.248-3.825c1.537-0.423,3.066-0.875,4.596-1.325
			c-0.567,1.173-1.003,2.421-1.285,3.689c-0.552,2.48-0.615,5.027-0.448,7.576c-7.415,3.152-15.7,4.353-23.746,3.601
			c-2.61-0.244-5.338-0.769-8.104-1.51c0.17-0.611,0.342-1.222,0.504-1.835C80.518,112.721,80.987,110.59,81.202,108.44z"/>
		<path fill="#9DA5AA" d="M124.995,99.469c2.896-0.999,5.78-2.03,8.641-3.129c2.89-1.108,5.813-2.281,8.898-2.537
			c4.351-0.362,8.62,1.121,12.737,2.582c3.226,1.145,7.597,2.081,10.267,4.223c0.462,0.37,0.866,0.786,1.226,1.235
			c-1.181,0.78-3.14,0.354-3.453-1.038c-7.204-2.788-14.657-5.179-22.315-4.164c-3.146,0.419-6.202,1.493-8.918,3.134
			c-2.67,1.614-4.968,3.736-7.286,5.836c0.098-0.578,0.195-1.16,0.289-1.739C125.315,102.422,125.477,100.788,124.995,99.469z"/>
		<path fill="#9DA5AA" d="M3.518,96.365c7.072,4.202,15.853,4.627,24.123,4.171c8.689-0.479,17.51-1.755,26.009,0.11
			c2.231,0.489,4.398,1.196,6.547,1.975c-0.217,0.627-0.405,1.264-0.55,1.908c-0.24,1.073-0.368,2.162-0.419,3.256
			c-0.86-0.526-1.707-1.057-2.525-1.602c-3.564-2.365-7.818-3.476-12.087-3.225c-5.635,0.331-11.088,0.765-17.701,0.581
			c-9.366-0.26-18.259-1.485-25.309-7.657C2.241,96.062,2.879,96.219,3.518,96.365z"/>
	</g>
	<g>
		<path fill="#BCBEC0" d="M109.073,79.061c-0.526-3.184-1.708-6.199-3.405-8.687c-0.165-0.241-0.366-0.497-0.623-0.495
			c-0.238,0.002-0.44,0.244-0.525,0.518c-0.086,0.276-0.079,0.579-0.071,0.873c0.056,2.073,0.108,4.147,0.164,6.219
			c0.008,0.238,0.02,0.483,0.056,0.717c1.48,0.311,2.955,0.653,4.429,1.017C109.089,79.168,109.082,79.114,109.073,79.061z"/>
		<path fill="#BCBEC0" d="M140.834,82.484c-0.104-0.138-0.231-0.284-0.396-0.282c-0.152,0-0.281,0.139-0.337,0.295
			c-0.055,0.159-0.05,0.332-0.044,0.501c0.029,1.013,0.06,2.026,0.09,3.037c0.847,0.056,1.691,0.098,2.542,0.111
			C142.285,84.812,141.654,83.562,140.834,82.484z"/>
		<path fill="#BCBEC0" d="M117.049,80.918c-0.526-3.184-1.709-6.2-3.406-8.687c-0.164-0.242-0.366-0.497-0.623-0.495
			c-0.236,0.001-0.44,0.243-0.526,0.519c-0.087,0.274-0.079,0.577-0.07,0.872c0.055,2.073,0.11,4.146,0.166,6.22
			c0.007,0.264,0.021,0.535,0.067,0.791c1.479,0.393,2.957,0.797,4.434,1.201C117.086,81.198,117.07,81.054,117.049,80.918z"/>
		<path fill="#BCBEC0" d="M136.021,81.21c-0.119-0.156-0.265-0.32-0.447-0.32c-0.174,0.002-0.318,0.158-0.381,0.337
			c-0.061,0.176-0.056,0.373-0.051,0.562c0.037,1.246,0.074,2.491,0.11,3.736c0.999,0.144,2.003,0.263,3.007,0.359
			C137.818,84.175,137.055,82.57,136.021,81.21z"/>
		<path fill="#BCBEC0" d="M126.006,82.993c-0.527-3.184-1.709-6.199-3.406-8.688c-0.164-0.24-0.366-0.496-0.622-0.494
			c-0.239,0.002-0.441,0.244-0.526,0.518c-0.085,0.275-0.079,0.579-0.071,0.873c0.055,2.073,0.109,4.147,0.164,6.22
			c0.013,0.403,0.032,0.826,0.188,1.179c1.431,0.381,2.863,0.75,4.295,1.097C126.066,83.476,126.044,83.224,126.006,82.993z"/>
		<path fill="#BCBEC0" d="M130.482,78.117c-0.139-0.201-0.308-0.415-0.521-0.413c-0.199,0.002-0.368,0.203-0.44,0.435
			c-0.071,0.229-0.065,0.482-0.06,0.728c0.046,1.735,0.148,5.503,0.165,5.651c1.222,0.258,2.444,0.492,3.673,0.701
			C132.848,82.616,131.873,80.154,130.482,78.117z"/>
		<path fill="#BCBEC0" d="M39.155,88.191c-0.199-0.142-0.432-0.283-0.632-0.207c-0.187,0.07-0.275,0.319-0.263,0.56
			c0.014,0.241,0.106,0.476,0.198,0.704c0.377,0.942,0.755,1.884,1.133,2.824c0.9-0.323,1.797-0.656,2.688-0.996
			C41.337,89.972,40.286,88.993,39.155,88.191z"/>
		<path fill="#BCBEC0" d="M33.474,90.376c-0.199-0.142-0.431-0.283-0.632-0.208c-0.187,0.071-0.275,0.319-0.263,0.562
			c0.013,0.24,0.107,0.476,0.198,0.704c0.344,0.856,0.688,1.713,1.032,2.57c0.899-0.275,1.797-0.563,2.69-0.862
			C35.583,92.088,34.566,91.149,33.474,90.376z"/>
		<path fill="#BCBEC0" d="M28.014,92.342c-0.199-0.141-0.433-0.281-0.633-0.206c-0.187,0.071-0.275,0.319-0.263,0.559
			c0.013,0.24,0.105,0.477,0.198,0.705c0.287,0.717,0.575,1.433,0.862,2.15c0.887-0.214,1.769-0.441,2.651-0.682
			C29.967,93.91,29.021,93.058,28.014,92.342z"/>
		<path fill="#BCBEC0" d="M22.332,94.527c-0.199-0.141-0.431-0.283-0.633-0.207c-0.187,0.07-0.275,0.319-0.262,0.56
			c0.014,0.241,0.107,0.477,0.197,0.704c0.158,0.391,0.314,0.78,0.469,1.17c0.793-0.123,1.585-0.257,2.376-0.405
			C23.805,95.673,23.086,95.062,22.332,94.527z"/>
		<path fill="#BCBEC0" d="M55.29,76.804c-0.259-0.178-0.563-0.354-0.818-0.253c-0.24,0.095-0.35,0.417-0.329,0.727
			c0.021,0.31,0.146,0.612,0.27,0.906c0.866,2.062,1.731,4.124,2.597,6.187c0.084,0.198,0.172,0.403,0.275,0.596
			c1.409-0.574,2.822-1.14,4.239-1.689C59.83,80.679,57.686,78.446,55.29,76.804z"/>
		<path fill="#BCBEC0" d="M99.003,70.827c-0.163-0.196-0.366-0.403-0.621-0.402c-0.238,0.001-0.441,0.196-0.527,0.42
			c-0.086,0.223-0.079,0.469-0.07,0.708c0.056,1.682,0.109,3.365,0.165,5.049c0.005,0.155,0.014,0.313,0.035,0.467
			c1.47,0.183,2.936,0.417,4.397,0.686C101.843,75.216,100.676,72.814,99.003,70.827z"/>
		<path fill="#BCBEC0" d="M49.532,82.075c-0.199-0.143-0.432-0.284-0.633-0.208c-0.187,0.071-0.275,0.319-0.262,0.559
			c0.012,0.242,0.105,0.479,0.197,0.706c0.611,1.521,1.222,3.044,1.832,4.567c1.036-0.431,2.072-0.862,3.111-1.292
			C52.582,84.696,51.136,83.211,49.532,82.075z"/>
		<path fill="#BCBEC0" d="M94.586,76.736c0-0.178-0.048-0.373-0.108-0.541c-0.486-1.369-1.269-2.632-2.277-3.677
			c-0.095-0.098-0.202-0.199-0.339-0.214c-0.323-0.036-0.464,0.395-0.486,0.718c-0.089,1.196-0.176,2.391-0.264,3.583
			c0.028,0.001,0.056,0,0.086,0C92.328,76.614,93.459,76.659,94.586,76.736z"/>
		<path fill="#BCBEC0" d="M47.85,88.863c-1.123-1.501-2.441-2.814-3.889-3.839c-0.199-0.143-0.432-0.284-0.633-0.209
			c-0.187,0.071-0.275,0.32-0.262,0.562c0.013,0.24,0.106,0.476,0.197,0.704c0.533,1.331,1.067,2.659,1.6,3.99
			C45.505,89.817,47.492,89.01,47.85,88.863z"/>
	</g>
	<circle fill="#FFFFFF" cx="153.31" cy="91.618" r="3.149"/>
	<circle fill="#112B32" cx="153.308" cy="91.614" r="2.359"/>
	<circle fill="#FFFFFF" cx="151.781" cy="90.373" r="0.833"/>
	<path fill="#2D4C55" d="M121.237,132.25c-0.029,0.926,0.025,1.856,0.164,2.774c0.548,0.005,0.912-0.036,1.46-0.032
		C122.885,133.82,122.197,132.854,121.237,132.25z"/>
	<path fill="#2D4C55" d="M119.379,132.577c-0.027,0.926,0.026,1.856,0.164,2.774c0.548,0.005,0.913-0.036,1.461-0.032
		C121.026,134.147,120.34,133.182,119.379,132.577z"/>
	<path fill="#2D4C55" d="M117.414,132.687c-0.028,0.926,0.025,1.855,0.164,2.774c0.547,0.004,0.912-0.036,1.46-0.032
		C119.062,134.257,118.373,133.292,117.414,132.687z"/>
	<path fill="#BD897D" d="M45.172,89.948c-3.023,1.206-6.109,2.358-9.235,3.383c0.941,1.023,1.882,2.049,2.822,3.071
		c0.924,1.004,2.02,2.089,3.385,2.067c1.791-0.03,2.951-1.947,3.291-3.707C45.743,93.165,45.629,91.509,45.172,89.948z"/>
	<path fill="#BD897D" d="M22.652,96.669c0.097,0.105,0.192,0.209,0.289,0.314c0.815,0.885,1.783,1.843,2.988,1.824
		c1.579-0.025,2.604-1.719,2.904-3.271c0.009-0.049,0.013-0.101,0.021-0.15C26.795,95.898,24.726,96.332,22.652,96.669z"/>
	<path fill="#BD897D" d="M132.053,85c-0.544,1.185-1.364,2.223-1.984,3.37c-0.636,1.182-1.058,2.587-0.642,3.864
		c3.977,0.477,7.808-1.98,10.291-5.124c0.268-0.339,0.521-0.691,0.76-1.051C137.649,85.893,134.843,85.516,132.053,85z"/>
	<path fill="#BD897D" d="M65.784,83.274c1.448,1.706,1.945,3.994,2.439,6.177c0.493,2.181,1.091,4.469,2.668,6.056
		c1.578,1.584,4.458,2.092,5.993,0.464c0.949-1.008,1.134-2.501,1.18-3.885c0.146-4.395-0.63-8.817-2.263-12.898
		c-0.071-0.178-0.147-0.354-0.225-0.531c-3.661,0.922-7.28,2.102-10.871,3.417C65.042,82.487,65.441,82.871,65.784,83.274z"/>
	<g>
		<path fill="#BD897D" d="M117.955,113.853c0.196,0.841,1.103,1.295,1.934,1.529c1.027,0.289,2.096,0.408,3.161,0.364
			c0.197-1.255,1.241-7.266,1.314-7.68c-1.912,0.872-3.692,2.031-5.247,3.442C118.437,112.123,117.746,112.96,117.955,113.853z"/>
		<path fill="#BD897D" d="M112.955,110.861c1.86-0.824,3.421-2.248,4.602-3.906c0.499-0.704,0.945-1.642,0.52-2.395
			c-0.482-0.847-1.693-0.837-2.65-0.664c-0.999,0.182-1.983,0.425-2.952,0.718c-0.294,0.772-0.533,1.565-0.712,2.366
			c-0.323,1.46-0.48,2.939-0.522,4.431C111.828,111.285,112.406,111.104,112.955,110.861z"/>
		<path fill="#BD897D" d="M114.447,119.826c-0.823,0.21-1.627,0.495-2.402,0.845l0.33,1.979c0.347,1.958,0.762,3.91,1.326,5.797
			c1.154-0.647,2.142-1.594,2.8-2.742c0.604-1.047,0.929-2.249,0.962-3.455C117.511,120.629,116.017,119.424,114.447,119.826z"/>
	</g>
	<path fill="#BD897D" d="M100.786,84.546c-0.699,2.151-1.764,4.241-1.848,6.503c-0.085,2.261,1.249,4.816,3.496,5.085
		c2.424,0.287,4.263-2.068,5.44-4.206c1.161-2.103,2.21-4.267,3.14-6.482c0.719-1.712,1.367-3.495,1.577-5.326
		c-3.591-0.953-7.19-1.835-10.815-2.477C101.838,79.979,101.506,82.324,100.786,84.546z"/>
	<path fill="#BD897D" d="M127.485,86.494c0.276-0.742,0.496-1.517,0.647-2.303c-3.176-0.718-6.339-1.563-9.499-2.429
		c-0.962,3.229-2.353,6.397-3.292,9.64c-0.315,1.092-0.582,2.266-0.248,3.354c0.146,0.472,0.408,0.916,0.798,1.218
		c1.08,0.836,2.653,0.326,3.84-0.35C123.271,93.606,126.066,90.314,127.485,86.494z"/>
	<path fill="#BD897D" d="M93.985,81.05c0.157-1.424,0.295-2.926,0.118-4.339c-0.965-0.06-1.935-0.099-2.909-0.105
		c-3.029-0.02-6.023,0.234-8.985,0.692c0.009,0.021,0.019,0.042,0.028,0.063c2.123,4.712,1.443,10.153,2.184,15.268
		c0.189,1.306,0.49,2.636,1.255,3.709c0.764,1.072,2.091,1.836,3.386,1.593c2.051-0.382,2.899-2.812,3.288-4.86
		C93.101,89.098,93.543,85.071,93.985,81.05z"/>
	<path fill="#BD897D" d="M54.366,93.313c0.589,1.212,1.325,2.55,2.626,2.897c0.914,0.246,1.92-0.098,2.624-0.729
		c0.704-0.632,1.136-1.521,1.388-2.433c0.826-2.995-0.16-6.126-1.517-8.974c-2.683,1.068-5.352,2.181-8.012,3.288
		C52.439,89.348,53.402,91.33,54.366,93.313z"/>
	<g>
		<path fill="#BD897D" d="M81.235,107.993c-0.087-0.002-0.172-0.006-0.266-0.006c-2.037,0.011-4.069,0.479-5.906,1.36
			c-0.742,0.358-1.518,0.864-1.715,1.663c-0.177,0.724,0.192,1.495,0.755,1.982c0.562,0.486,1.286,0.74,2,0.948
			c1.273,0.367,2.58,0.612,3.899,0.739C80.575,112.486,81.049,110.247,81.235,107.993z"/>
		<path fill="#BD897D" d="M66.55,112.97c1.208-1.409,0.943-3.641-0.08-5.19c-1.45-2.199-4.119-3.358-6.75-3.544
			c-0.023,0.099-0.053,0.195-0.075,0.295c-0.24,1.07-0.378,2.158-0.43,3.25c-0.121,2.528,0.247,5.083,1.016,7.512
			c1.305-0.201,2.6-0.46,3.851-0.874C64.999,114.114,65.923,113.705,66.55,112.97z"/>
		<path fill="#BD897D" d="M69.836,123.392c0.797-0.916,1.49-2.269,0.816-3.28c-0.541-0.812-1.675-0.93-2.649-0.879
			c-1.854,0.1-3.685,0.538-5.394,1.264c0.59,0.989,1.225,1.951,1.863,2.913c0.633,0.95,1.262,1.898,1.856,2.874
			C67.642,125.513,68.837,124.541,69.836,123.392z"/>
	</g>
	<g>
		<path fill="#4A727E" d="M143.509,93.756c-0.207,0.004-0.413,0.016-0.618,0.027c0.066,0.889,0.091,1.783,0.091,2.68
			c0.207-0.015,0.412-0.026,0.618-0.034C143.6,95.536,143.575,94.645,143.509,93.756z"/>
		<path fill="#4A727E" d="M87.579,118.158c0.207,0.021,0.413,0.034,0.621,0.051c0.599-3.241,0.869-6.532,0.787-9.832
			c-0.206,0.018-0.412,0.03-0.618,0.045C88.448,111.689,88.179,114.949,87.579,118.158z"/>
		<path fill="#4A727E" d="M138.443,94.626c-0.197,0.06-0.396,0.117-0.593,0.181c0.197,0.777,0.348,1.566,0.455,2.364
			c0.2-0.052,0.402-0.103,0.604-0.149C138.8,96.215,138.644,95.413,138.443,94.626z"/>
		<path fill="#4A727E" d="M127.596,98.576c-0.194,0.07-0.39,0.138-0.584,0.207c0.515,1.231,0.914,2.506,1.2,3.807
			c0.176-0.148,0.354-0.295,0.533-0.44C128.463,100.931,128.079,99.734,127.596,98.576z"/>
		<path fill="#4A727E" d="M107.48,104.881c0.63,3.598,0.825,7.274,0.586,10.919c0.213-0.07,0.425-0.142,0.637-0.218
			c0.219-3.627,0.009-7.286-0.624-10.863C107.879,104.771,107.68,104.826,107.48,104.881z"/>
		<path fill="#4A727E" d="M151.991,95.263c-0.2-0.065-0.402-0.13-0.605-0.192c-0.053,0.663-0.156,1.325-0.309,1.974
			c0.202,0.037,0.404,0.081,0.605,0.123C151.83,96.54,151.934,95.903,151.991,95.263z"/>
		<path fill="#4A727E" d="M148.086,96.594c0.116-0.778,0.183-1.561,0.19-2.346c-0.204-0.043-0.409-0.083-0.614-0.12
			c-0.004,0.806-0.071,1.61-0.194,2.41C147.674,96.558,147.879,96.571,148.086,96.594z"/>
		<path fill="#4A727E" d="M161.138,98.312c-0.197-0.073-0.397-0.145-0.598-0.214c-0.061,0.525-0.154,1.049-0.279,1.565
			c0.194,0.07,0.391,0.14,0.585,0.213C160.973,99.362,161.071,98.838,161.138,98.312z"/>
		<path fill="#4A727E" d="M156.536,98.416c0.187-0.478,0.325-0.97,0.427-1.472c-0.2-0.062-0.398-0.125-0.593-0.188
			c-0.098,0.506-0.238,1.003-0.429,1.483C156.14,98.299,156.338,98.354,156.536,98.416z"/>
		<path fill="#4A727E" d="M131.351,97.202c0.325,0.819,0.6,1.662,0.823,2.517c0.185-0.109,0.372-0.212,0.559-0.316
			c-0.222-0.822-0.487-1.629-0.803-2.417C131.735,97.058,131.544,97.13,131.351,97.202z"/>
		<path fill="#4A727E" d="M27.448,103.553c0.207,0.005,0.415,0.012,0.618,0.016l0.076-3.062c-0.167,0.009-0.582,0.034-0.619,0.036
			L27.448,103.553z"/>
		<path fill="#4A727E" d="M33.188,103.545c0.208-0.005,0.417-0.011,0.623-0.017l0.23-3.431c-0.208,0.016-0.416,0.03-0.624,0.046
			L33.188,103.545z"/>
		<path fill="#4A727E" d="M16.893,102.673c0.203,0.034,0.406,0.068,0.611,0.1l0.339-2.282c-0.207-0.018-0.413-0.034-0.618-0.056
			L16.893,102.673z"/>
		<path fill="#4A727E" d="M81.572,117.172c0.203,0.047,0.405,0.088,0.608,0.132c0.872-2.828,1.266-5.799,1.156-8.759
			c-0.208-0.004-0.413-0.012-0.621-0.019C82.83,111.447,82.44,114.381,81.572,117.172z"/>
		<path fill="#4A727E" d="M22.146,100.674c-0.206-0.002-0.413-0.001-0.619-0.005l-0.042,2.578c0.206,0.019,0.413,0.033,0.618,0.051
			L22.146,100.674z"/>
		<path fill="#4A727E" d="M41.156,99.701c-0.206,0.006-0.412,0.012-0.619,0.02c-0.039,1.174-0.144,2.346-0.316,3.508
			c0.211-0.015,0.421-0.025,0.633-0.039C41.021,102.034,41.12,100.869,41.156,99.701z"/>
		<path fill="#4A727E" d="M103.28,117.15c0.368-3.687,0.134-7.409-0.7-11.021c-0.202,0.048-0.402,0.096-0.604,0.143
			c0.834,3.611,1.061,7.333,0.67,11.016C102.857,117.241,103.068,117.198,103.28,117.15z"/>
		<path fill="#4A727E" d="M94.488,118.323c0.212-0.008,0.421-0.021,0.631-0.03c0.506-3.524,0.464-7.14-0.126-10.639
			c-0.203,0.033-0.407,0.064-0.611,0.099C94.969,111.229,95.004,114.826,94.488,118.323z"/>
		<path fill="#4A727E" d="M48.301,103.086c0.207,0.024,0.41,0.054,0.615,0.087c0.219-1.059,0.385-2.128,0.503-3.204
			c-0.205-0.021-0.411-0.049-0.615-0.067C48.686,100.969,48.52,102.033,48.301,103.086z"/>
		<path fill="#4A727E" d="M56.197,105.864c0.507-1.364,0.957-2.752,1.352-4.156c-0.196-0.062-0.395-0.121-0.592-0.183
			c-0.38,1.355-0.813,2.696-1.299,4.017C55.837,105.648,56.018,105.755,56.197,105.864z"/>
	</g>
	<g opacity="0.16">
		<path fill="#FFFFFF" d="M46.779,90.467c14.363-5.852,28.907-12.792,44.415-12.697c18.649,0.117,36.168,10.465,54.925,9.485
			c2.872-0.148,5.745,0.365,8.353,1.577c3.501,1.622,6.628,3.938,9.702,6.274c1.241,0.943,2.515,1.936,3.243,3.314
			c0.241,0.453,0.405,0.963,0.479,1.482c0.131-0.885-0.055-1.85-0.479-2.648c-0.729-1.377-2.004-2.37-3.243-3.313
			c-3.074-2.336-6.2-4.651-9.701-6.276c-2.608-1.208-5.479-1.724-8.354-1.574c-18.757,0.979-36.275-9.369-54.925-9.485
			c-15.508-0.097-30.052,6.845-44.415,12.696c-14.364,5.852-30.245,10.786-45.174,6.582c0.705,0.616,1.429,1.183,2.169,1.705
			C18.065,100.768,33.11,96.036,46.779,90.467z"/>
	</g>
	<g opacity="0.18">
		<path fill="#1B373E" d="M1.605,95.884c7.05,6.171,15.943,7.396,25.309,7.657c6.612,0.184,12.065-0.25,17.701-0.581
			c4.271-0.251,8.524,0.858,12.087,3.225c0.814,0.543,1.659,1.072,2.515,1.596c0.049-1.01,0.174-2.015,0.382-3.007
			c-3.644-2.39-11.824-3.731-15.964-3.692C37.989,101.138,10.862,103.996,1.605,95.884z"/>
		<path fill="#1B373E" d="M89.159,115.249c-2.944-0.421-5.929-0.927-8.899-1.588c-0.095,0.385-0.625,2.375-0.797,2.985
			c2.765,0.741,5.494,1.266,8.103,1.51c8.044,0.752,16.327-0.441,23.738-3.592c-0.023-0.375-0.042-0.752-0.056-1.124
			C104.183,115.717,96.527,116.304,89.159,115.249z"/>
	</g>
	<path fill="#2D4C55" d="M71.105,132.474c-0.219,1.039-0.34,2.101-0.358,3.163c0.656,0.107,1.103,0.131,1.758,0.239
		C72.769,134.558,72.137,133.338,71.105,132.474z"/>
	<path fill="#2D4C55" d="M73.164,132.579c-0.045,1.062,0.011,2.128,0.168,3.181c0.664-0.003,1.109-0.054,1.774-0.055
		C75.147,134.36,74.323,133.262,73.164,132.579z"/>
	<path fill="#2D4C55" d="M75.895,132.143c-0.044,1.062,0.011,2.128,0.167,3.179c0.666-0.002,1.109-0.051,1.774-0.053
		C77.878,133.924,77.054,132.824,75.895,132.143z"/>
	<path fill="#112B32" d="M164.29,96.889c-0.133,0.193,0.005,0.475,0.207,0.596c0.202,0.118,0.446,0.133,0.677,0.182
		c0.231,0.05,0.475,0.163,0.557,0.383c-0.097-0.414-0.323-0.798-0.644-1.08C164.859,96.766,164.461,96.639,164.29,96.889z"/>
</g>
</svg>
