<?xml version="1.0" encoding="utf-8"?>
<!-- Generator: Adobe Illustrator 16.0.4, SVG Export Plug-In . SVG Version: 6.00 Build 0)  -->
<!DOCTYPE svg PUBLIC "-//W3C//DTD SVG 1.1//EN" "http://www.w3.org/Graphics/SVG/1.1/DTD/svg11.dtd">
<svg version="1.1" id="Layer_1" xmlns="http://www.w3.org/2000/svg" xmlns:xlink="http://www.w3.org/1999/xlink" x="0px" y="0px"
	 width="170px" height="170px" viewBox="0 0 170 170" enable-background="new 0 0 170 170" xml:space="preserve">
<title>Artboard 9</title>
<g>
	<path fill="#C92D40" d="M149.467,102.042c-1.912,0.235-3.846,0.089-5.771,0.097c-4.092,0.017-8.327,0.34-12.178,1.728
		c6.5-14.664,17.568-27.094,30.662-36.36c-7.35,1.283-13.746,5.702-19.521,10.425c-5.776,4.723-11.29,9.924-17.96,13.27
		c-11.388,5.711-24.976,5.443-36.585,10.683c-5.708,2.576-10.755,6.402-16.266,9.375c-5.511,2.974-11.694,4.921-17.834,3.693
		c-0.481-1.611-1.373-3.187-2.825-4.031s-3.535-0.733-4.596,0.569c-0.559,0.688-1.11,1.768-1.96,1.517
		c-0.639-0.188-0.792-1.004-1.186-1.54c-0.68-0.923-2.136-0.929-3.109-0.322c-0.973,0.605-1.578,1.645-2.144,2.641
		c-9.045,1.213-18.228,1.535-27.273,2.748c-1.01,0.135-2.193,0.396-2.59,1.334c-0.529,1.252,0.763,2.477,1.909,3.208
		c18.863,12.034,43.049,16.229,64.142,17.155c-0.544,4.15,1.327,8.351,4.171,11.424c2.845,3.072,6.577,5.172,10.36,6.967
		c2.109,1,4.312,1.959,5.938,3.634c1.627,1.675,2.463,4.155,1.445,6.257c2.752-3.27,4.061-7.712,3.521-11.951
		c-0.541-4.238-2.92-8.211-6.404-10.688c-1.992-1.416-4.285-2.339-6.432-3.508c-1.265-0.688-2.207-1.542-3.362-2.397
		c17.862-0.46,34.972-10.916,44.481-26.044c4.963,1.27,10.922,1.174,15.627-0.854c4.705-2.028,8.438-6.834,10.924-11.312
		C153.311,101.141,151.377,101.807,149.467,102.042z"/>
	<path fill="#BDE0C4" d="M122.23,105.223c-2.174,2.514-4.394,5.211-7.488,6.42c-2.516,0.98-5.445,0.898-7.703,2.381
		c-3.568,2.348-4.359,7.888-8.314,9.498c-2.854,1.162-6.021-0.276-9.078-0.668c-4.888-0.627-9.676,1.492-14.067,3.73
		c-4.391,2.239-8.902,4.709-13.828,4.854c-4.927,0.146-10.363-2.941-10.943-7.836c-0.101-0.853-0.075-1.783-0.589-2.472
		c-0.816-1.088-2.455-0.953-3.798-0.737c-12.687,2.034-25.802,1.346-38.208-1.998c-0.046,1.06,1.042,2.051,2.026,2.679
		c11.831,7.548,25.466,11.911,39.195,14.428c13.862,2.541,28.678,4.335,42.595,1.356c8.277-1.771,16.066-4.892,22.885-9.92
		c6.475-4.774,11.404-11.282,15.047-18.404c1.822-3.561,2.918-7.46,4.699-11.002c1.609-3.201,4.479-8.758,7.344-10.959
		C134.807,92.104,128.167,98.357,122.23,105.223z"/>
	<path fill="#BE1E2D" d="M122.23,105.223c-2.174,2.514-4.394,5.211-7.488,6.42c-2.516,0.98-5.445,0.898-7.703,2.381
		c-3.568,2.348-4.359,7.888-8.314,9.498c-2.854,1.162-6.021-0.276-9.078-0.668c-4.888-0.627-9.676,1.492-14.067,3.73
		c-4.391,2.239-8.902,4.709-13.828,4.854c-4.927,0.146-10.363-2.941-10.943-7.836c-0.101-0.853-0.075-1.783-0.589-2.472
		c-0.816-1.088-2.455-0.953-3.798-0.737c-12.687,2.034-25.802,1.346-38.208-1.998c-0.046,1.06,1.042,2.051,2.026,2.679
		c11.831,7.548,25.466,11.911,39.195,14.428c13.862,2.541,29.477,4.423,43.395,1.442c8.276-1.771,15.267-4.978,22.085-10.006
		c6.475-4.774,11.404-11.282,15.047-18.404c1.822-3.561,2.855-7.598,4.904-10.992c2.572-4.264,5.003-8.619,7.139-10.969
		C134.807,92.104,128.167,98.357,122.23,105.223z"/>
	<path fill="#003E3F" d="M40.174,113.314c0,0-0.01,0.121-0.044,0.33c-0.048,0.207-0.061,0.508-0.089,0.842
		c0.015,0.17-0.003,0.352,0.026,0.531c0.058,0.166,0.062,0.39,0.147,0.52l0.151,0.306c0.06,0.083,0.124,0.13,0.176,0.202
		c0.045,0.072,0.114,0.133,0.2,0.186c0.081,0.047,0.147,0.134,0.236,0.154c0.063,0.028,0.215,0.075,0.202,0.1l0.353,0.029
		c0.182-0.033,0.305-0.033,0.49-0.129c0.172-0.054,0.329-0.203,0.457-0.285c0.142-0.146,0.295-0.277,0.383-0.404
		c0.209-0.244,0.382-0.508,0.484-0.684c0.107-0.179,0.178-0.281,0.178-0.281s-0.014,0.121-0.055,0.332
		c-0.055,0.207-0.103,0.506-0.288,0.856c-0.083,0.188-0.195,0.343-0.314,0.511c-0.177,0.182-0.318,0.369-0.563,0.486
		c-0.197,0.139-0.537,0.236-0.815,0.256l-0.354-0.017c-0.235-0.06-0.304-0.103-0.463-0.158c-0.144-0.048-0.235-0.161-0.353-0.241
		c-0.115-0.08-0.218-0.178-0.302-0.306c-0.086-0.116-0.184-0.241-0.24-0.354l-0.119-0.318c-0.12-0.271-0.073-0.504-0.104-0.735
		c-0.001-0.226,0.064-0.431,0.097-0.617c0.111-0.362,0.252-0.641,0.353-0.821C40.106,113.416,40.174,113.314,40.174,113.314z"/>
	<path fill="#003E3F" d="M46.798,113.699c0,0-0.022,0.133-0.077,0.355c-0.029,0.108-0.068,0.244-0.086,0.397
		c-0.014,0.153-0.069,0.319-0.07,0.501c0.017,0.179-0.047,0.376,0.019,0.561c0.021,0.092,0.042,0.186,0.062,0.28
		c0,0,0.026,0.093-0.002,0.024l0.127,0.238c0.102,0.264,0.272,0.305,0.376,0.454c0.181,0.099,0.346,0.233,0.551,0.263l0.144,0.052
		c-0.041,0.004,0.1,0.005,0.141,0.008c0.119-0.004,0.278,0.026,0.362-0.004c0.09-0.026,0.18-0.041,0.274-0.054
		c0.097-0.028,0.196-0.075,0.294-0.11c0.189-0.073,0.38-0.207,0.526-0.298c0.167-0.146,0.345-0.274,0.453-0.404
		c0.252-0.244,0.463-0.509,0.591-0.689c0.132-0.184,0.219-0.287,0.219-0.287s-0.026,0.129-0.09,0.354
		c-0.078,0.219-0.16,0.539-0.394,0.898c-0.106,0.197-0.242,0.352-0.386,0.521c-0.195,0.186-0.371,0.362-0.62,0.489
		c-0.124,0.062-0.243,0.133-0.379,0.188c-0.149,0.043-0.306,0.084-0.464,0.113c-0.163,0.036-0.266,0.01-0.402,0.018
		c-0.087-0.004-0.078,0.012-0.244-0.012l-0.227-0.062c-0.315-0.063-0.562-0.261-0.814-0.429c-0.224-0.233-0.46-0.52-0.511-0.729
		l-0.102-0.249c-0.041-0.125-0.016-0.094-0.026-0.147c-0.007-0.135-0.014-0.269-0.021-0.396c-0.036-0.259,0.083-0.475,0.119-0.681
		c0.047-0.204,0.161-0.362,0.23-0.511c0.072-0.149,0.151-0.263,0.214-0.358C46.715,113.805,46.798,113.699,46.798,113.699z"/>
	<path fill="#FFFFFF" d="M19.166,120.456c0.106-0.458,0.212-0.933,0.126-1.394c-0.086-0.463-0.417-0.914-0.882-0.984
		c-0.479-0.074-0.942,0.281-1.153,0.718s-0.227,0.938-0.239,1.425C17.741,120.295,18.442,120.381,19.166,120.456z"/>
	<path fill="#FFFFFF" d="M26.453,121.369c0.106-0.458,0.213-0.932,0.127-1.395c-0.086-0.461-0.417-0.912-0.882-0.984
		c-0.479-0.073-0.942,0.281-1.153,0.719c-0.21,0.438-0.227,0.939-0.239,1.424C25.028,121.209,25.73,121.294,26.453,121.369z"/>
	<path fill="#FFFFFF" d="M20.808,120.979c-0.106,0.459-0.212,0.933-0.127,1.396c0.086,0.462,0.417,0.912,0.882,0.983
		c0.479,0.074,0.942-0.28,1.153-0.719c0.21-0.437,0.227-0.938,0.239-1.424C22.232,121.141,21.531,121.055,20.808,120.979z"/>
	<path fill="#FFFFFF" d="M13.314,119.506c-0.106,0.457-0.212,0.932-0.126,1.395c0.086,0.461,0.417,0.912,0.882,0.983
		c0.48,0.073,0.942-0.28,1.153-0.718s0.227-0.939,0.239-1.425C14.738,119.666,14.037,119.58,13.314,119.506z"/>
	<path fill="#BE1E2D" d="M129.539,88.355c-1.557,1.041-3.162,2.002-4.842,2.845c-11.387,5.711-24.975,5.444-36.586,10.683
		c-5.708,2.576-10.754,6.402-16.265,9.375c-4.172,2.251-8.729,3.91-13.361,4.053c2.428,0.396,4.87,0.666,7.323,0.566
		c3.739-0.15,7.56-1.236,10.358-3.721c2.011-1.786,3.611-4.336,6.229-4.951c3.878-0.914,7.712,2.972,11.582,2.021
		c4.719-1.158,5.344-8.14,9.569-10.535c4.083-2.314,9.272,0.716,13.858-0.285c3.089-0.674,5.462-3.068,7.646-5.354
		C126.547,91.486,128.043,89.922,129.539,88.355z"/>
	<g opacity="0.23">
		<path fill="#FFFFFF" d="M142.657,77.931c-5.776,4.723-11.29,9.924-17.96,13.27c-11.387,5.711-24.975,5.443-36.586,10.683
			c-5.708,2.576-10.754,6.402-16.265,9.375c-5.511,2.974-11.694,4.921-17.834,3.693c-0.481-1.611-1.373-3.187-2.825-4.031
			s-3.535-0.733-4.596,0.569c-0.559,0.688-1.11,1.768-1.96,1.517c-0.639-0.188-0.792-1.004-1.186-1.54
			c-0.68-0.923-2.136-0.929-3.109-0.322c-0.973,0.605-1.578,1.645-2.144,2.641c-9.045,1.213-18.228,1.535-27.273,2.748
			c-1.01,0.135-2.193,0.396-2.59,1.334c-0.095,0.226-0.129,0.449-0.118,0.67c0.102,0.246,0.254,0.479,0.437,0.703
			c0.397-0.939,1.582-1.204,2.591-1.34c9.045-1.213,18.229-1.534,27.274-2.748c0.566-0.996,1.17-2.034,2.143-2.641
			c0.973-0.605,2.43-0.601,3.109,0.323c0.395,0.535,0.548,1.353,1.186,1.54c0.85,0.251,1.401-0.829,1.96-1.518
			c1.061-1.305,3.143-1.416,4.596-0.569c1.453,0.846,2.344,2.421,2.826,4.03c6.14,1.229,12.323-0.719,17.834-3.692
			s10.558-6.799,16.265-9.374c11.611-5.238,25.199-4.973,36.586-10.684c6.67-3.346,12.185-8.546,17.961-13.271
			c4.478-3.661,9.328-7.132,14.707-9.109c1.049-0.829,2.115-1.632,3.193-2.42C154.07,69.317,148.09,73.488,142.657,77.931z"/>
	</g>
	<path fill="#BE1E2D" d="M66.276,99.191c1.565-6.363,5.778-12.017,4.814-18.758c3.989,5.776,6.735,12.935,6.609,20.056
		c-0.126,7.122-3.487,14.047-9.047,16.579C65.741,111.68,64.851,104.984,66.276,99.191z"/>
	<path fill="#BE1E2D" d="M113.439,99.684c-0.518-0.312-0.752-1.021-0.92-1.664c-2.976-11.391,0.504-24.141,8.367-30.671
		c-0.681,5.798,2.485,11.64,2.785,17.567c0.34,6.665-3.417,12.974-8.792,14.771C114.416,99.84,113.891,99.958,113.439,99.684z"/>
	<g opacity="0.19">
		<path fill="#498C7A" d="M131.223,105.786c-4.375,5.087-9.164,9.754-14.654,13.624c-15.399,10.855-34.946,14.369-53.785,13.98
			c-12.977-0.267-29.149-2.796-41.615-6.429c8.978,4.072,18.597,6.767,28.265,8.538c13.862,2.541,28.678,4.335,42.594,1.355
			c8.279-1.771,16.066-4.891,22.886-9.918c6.476-4.775,11.403-11.283,15.047-18.405
			C130.419,107.635,130.832,106.716,131.223,105.786z"/>
	</g>
</g>
</svg>
