<?xml version="1.0" encoding="utf-8"?>
<!-- Generator: Adobe Illustrator 16.0.4, SVG Export Plug-In . SVG Version: 6.00 Build 0)  -->
<!DOCTYPE svg PUBLIC "-//W3C//DTD SVG 1.1//EN" "http://www.w3.org/Graphics/SVG/1.1/DTD/svg11.dtd">
<svg version="1.1" id="Layer_1" xmlns="http://www.w3.org/2000/svg" xmlns:xlink="http://www.w3.org/1999/xlink" x="0px" y="0px"
	 width="170px" height="170px" viewBox="0 0 170 170" enable-background="new 0 0 170 170" xml:space="preserve">
<title>Artboard 9</title>
<g>
	<path fill="#C61A37" d="M152.491,76.008c-2.002,0.247-4.026,0.093-6.043,0.102c-4.284,0.019-8.718,0.356-12.751,1.81
		c6.806-15.354,18.396-28.369,32.105-38.071c-7.695,1.344-14.394,5.971-20.439,10.916c-6.048,4.945-11.821,10.39-18.805,13.895
		c-11.925,5.979-26.152,5.698-38.307,11.185c-5.977,2.698-11.262,6.704-17.032,9.816c-5.771,3.115-12.245,5.154-18.673,3.867
		c-0.503-1.687-1.438-3.337-2.958-4.221c-1.521-0.883-3.702-0.767-4.812,0.597c-0.585,0.721-1.162,1.851-2.052,1.588
		c-0.669-0.196-0.829-1.052-1.241-1.613c-0.712-0.966-2.237-0.972-3.256-0.336c-1.019,0.633-1.652,1.722-2.245,2.765
		c-9.47,1.271-19.085,1.607-28.556,2.878c-1.057,0.141-2.296,0.415-2.712,1.396c-0.554,1.311,0.799,2.593,1.999,3.359
		c19.75,12.6,45.075,16.993,67.16,17.962c-0.569,4.345,1.39,8.744,4.368,11.962c2.979,3.217,6.886,5.415,10.847,7.294
		c2.208,1.048,4.515,2.052,6.218,3.806c1.704,1.753,2.579,4.351,1.513,6.551c2.882-3.424,4.253-8.075,3.687-12.514
		c-0.566-4.437-3.058-8.598-6.705-11.19c-2.086-1.482-4.486-2.449-6.735-3.673c-1.324-0.72-2.311-1.614-3.52-2.51
		c18.702-0.482,36.617-11.43,46.574-27.27c5.196,1.329,11.436,1.229,16.362-0.895c4.926-2.123,8.835-7.155,11.438-11.844
		C156.516,75.064,154.491,75.762,152.491,76.008z"/>
	<path fill="#BDE0C4" d="M123.974,79.338c-2.276,2.632-4.602,5.457-7.841,6.722c-2.634,1.026-5.702,0.94-8.065,2.493
		c-3.736,2.459-4.564,8.26-8.706,9.944c-2.988,1.217-6.304-0.288-9.505-0.699c-5.118-0.656-10.131,1.562-14.729,3.906
		c-4.598,2.345-9.32,4.931-14.479,5.082c-5.159,0.153-10.851-3.079-11.458-8.205c-0.106-0.893-0.079-1.867-0.617-2.588
		c-0.854-1.139-2.57-0.998-3.977-0.771c-13.284,2.13-27.016,1.409-40.006-2.093c-0.048,1.11,1.091,2.147,2.122,2.806
		c12.387,7.903,26.665,12.471,41.04,15.107c14.514,2.66,30.027,4.539,44.598,1.419c8.667-1.854,16.823-5.122,23.963-10.387
		c6.78-4.998,11.94-11.812,15.755-19.27c1.908-3.729,3.056-7.811,4.921-11.52c1.684-3.352,4.69-9.171,7.689-11.475
		C137.142,65.602,130.189,72.15,123.974,79.338z"/>
	<path fill="#BE1E2D" d="M123.974,79.338c-2.276,2.632-4.602,5.457-7.841,6.722c-2.634,1.026-5.702,0.94-8.065,2.493
		c-3.736,2.459-4.564,8.26-8.706,9.944c-2.988,1.217-6.304-0.288-9.505-0.699c-5.118-0.656-10.131,1.562-14.729,3.906
		c-4.598,2.345-9.32,4.931-14.479,5.082c-5.159,0.153-10.851-3.079-11.458-8.205c-0.106-0.893-0.079-1.867-0.617-2.588
		c-0.854-1.139-2.57-0.998-3.977-0.771c-13.284,2.13-27.016,1.409-40.006-2.093c-0.048,1.11,1.091,2.147,2.122,2.806
		c12.387,7.903,26.665,12.471,41.04,15.107c14.514,2.66,30.864,4.631,45.437,1.509c8.665-1.854,15.986-5.212,23.124-10.477
		c6.78-4.998,11.94-11.812,15.755-19.27c1.908-3.729,2.989-7.956,5.136-11.509c2.691-4.465,5.238-9.025,7.475-11.485
		C137.142,65.602,130.189,72.15,123.974,79.338z"/>
	<path fill="#003E3F" d="M38.055,87.811c0,0-0.01,0.127-0.046,0.346c-0.05,0.217-0.064,0.532-0.093,0.882
		c0.016,0.178-0.003,0.368,0.027,0.557c0.061,0.174,0.065,0.407,0.154,0.544l0.159,0.319c0.062,0.087,0.129,0.137,0.184,0.212
		c0.047,0.076,0.119,0.139,0.209,0.194c0.084,0.049,0.154,0.141,0.247,0.161c0.066,0.03,0.225,0.079,0.211,0.104l0.37,0.031
		c0.19-0.035,0.319-0.035,0.513-0.136c0.18-0.056,0.345-0.212,0.479-0.298c0.149-0.152,0.309-0.29,0.401-0.424
		c0.219-0.255,0.4-0.531,0.507-0.716c0.112-0.187,0.186-0.294,0.186-0.294s-0.015,0.127-0.057,0.348
		c-0.058,0.217-0.108,0.529-0.302,0.896c-0.087,0.197-0.205,0.358-0.329,0.535c-0.186,0.189-0.333,0.386-0.59,0.509
		c-0.207,0.146-0.562,0.247-0.853,0.268l-0.371-0.017c-0.246-0.062-0.318-0.108-0.485-0.166c-0.151-0.05-0.246-0.169-0.37-0.253
		c-0.12-0.084-0.228-0.186-0.316-0.319c-0.09-0.122-0.193-0.253-0.251-0.372l-0.125-0.333c-0.125-0.283-0.077-0.527-0.109-0.769
		c-0.001-0.237,0.067-0.452,0.102-0.646c0.116-0.378,0.264-0.671,0.37-0.859C37.984,87.917,38.055,87.811,38.055,87.811z"/>
	<path fill="#003E3F" d="M44.991,88.214c0,0-0.023,0.139-0.081,0.372c-0.031,0.112-0.071,0.255-0.09,0.415
		c-0.015,0.16-0.072,0.334-0.073,0.524c0.018,0.188-0.049,0.394,0.02,0.588c0.022,0.097,0.044,0.194,0.065,0.293
		c0,0,0.027,0.097-0.002,0.024l0.133,0.249c0.107,0.276,0.285,0.319,0.394,0.476c0.19,0.104,0.363,0.245,0.577,0.275l0.15,0.056
		c-0.043,0.004,0.105,0.005,0.148,0.008c0.125-0.004,0.292,0.026,0.379-0.004c0.094-0.027,0.188-0.043,0.287-0.058
		c0.101-0.028,0.205-0.077,0.308-0.114c0.198-0.077,0.398-0.217,0.551-0.312c0.175-0.153,0.361-0.288,0.475-0.424
		c0.264-0.256,0.484-0.532,0.619-0.721c0.138-0.193,0.229-0.301,0.229-0.301s-0.028,0.135-0.095,0.37
		c-0.081,0.229-0.167,0.564-0.413,0.94c-0.111,0.207-0.253,0.368-0.404,0.545c-0.204,0.195-0.389,0.38-0.649,0.513
		c-0.13,0.065-0.254,0.139-0.396,0.196c-0.156,0.045-0.321,0.088-0.486,0.118c-0.171,0.038-0.279,0.011-0.421,0.019
		c-0.091-0.004-0.081,0.014-0.255-0.012l-0.238-0.064c-0.33-0.066-0.588-0.273-0.853-0.449c-0.234-0.244-0.481-0.545-0.535-0.764
		l-0.107-0.261c-0.043-0.131-0.016-0.099-0.027-0.153c-0.007-0.142-0.015-0.282-0.022-0.415c-0.038-0.271,0.087-0.497,0.125-0.714
		c0.049-0.213,0.168-0.378,0.241-0.534c0.075-0.156,0.158-0.275,0.224-0.375C44.904,88.324,44.991,88.214,44.991,88.214z"/>
	<path fill="#FFFFFF" d="M16.059,95.289c0.111-0.479,0.222-0.977,0.132-1.46c-0.09-0.484-0.437-0.957-0.923-1.03
		c-0.502-0.078-0.987,0.295-1.208,0.752c-0.221,0.457-0.238,0.982-0.25,1.491C14.567,95.12,15.301,95.21,16.059,95.289z"/>
	<path fill="#FFFFFF" d="M23.689,96.245c0.111-0.479,0.223-0.976,0.133-1.461c-0.09-0.482-0.437-0.955-0.923-1.03
		c-0.502-0.077-0.987,0.295-1.208,0.753c-0.22,0.458-0.238,0.983-0.25,1.49C22.196,96.077,22.932,96.166,23.689,96.245z"/>
	<path fill="#FFFFFF" d="M17.778,95.836c-0.111,0.48-0.222,0.978-0.133,1.462c0.09,0.483,0.437,0.955,0.923,1.028
		c0.501,0.078,0.986-0.292,1.207-0.752c0.22-0.457,0.238-0.981,0.25-1.491C19.269,96.006,18.535,95.915,17.778,95.836z"/>
	<path fill="#FFFFFF" d="M9.932,94.294c-0.111,0.479-0.222,0.976-0.132,1.46c0.09,0.482,0.437,0.955,0.923,1.029
		c0.503,0.077,0.987-0.293,1.208-0.751c0.221-0.458,0.237-0.983,0.25-1.492C11.422,94.462,10.688,94.371,9.932,94.294z"/>
	<path fill="#BE1E2D" d="M131.626,61.678c-1.63,1.09-3.312,2.096-5.069,2.979c-11.923,5.979-26.15,5.7-38.308,11.185
		c-5.978,2.697-11.261,6.704-17.031,9.816c-4.369,2.357-9.14,4.095-13.99,4.244c2.542,0.415,5.099,0.697,7.668,0.593
		c3.915-0.157,7.916-1.295,10.845-3.896c2.105-1.87,3.781-4.541,6.522-5.185c4.061-0.957,8.076,3.111,12.126,2.116
		c4.941-1.212,5.596-8.523,10.02-11.03c4.275-2.424,9.709,0.75,14.511-0.299c3.234-0.706,5.719-3.213,8.006-5.606
		C128.493,64.956,130.06,63.317,131.626,61.678z"/>
	<g opacity="0.23">
		<path fill="#FFFFFF" d="M145.361,50.763c-6.048,4.945-11.821,10.391-18.805,13.895c-11.923,5.979-26.15,5.699-38.308,11.185
			c-5.978,2.698-11.261,6.704-17.031,9.816c-5.771,3.114-12.245,5.153-18.673,3.867c-0.504-1.687-1.438-3.336-2.958-4.221
			c-1.521-0.884-3.702-0.768-4.812,0.597c-0.585,0.72-1.162,1.851-2.052,1.588c-0.669-0.197-0.83-1.052-1.242-1.613
			c-0.711-0.966-2.236-0.972-3.255-0.337c-1.019,0.634-1.652,1.723-2.245,2.766c-9.471,1.271-19.086,1.606-28.556,2.878
			c-1.058,0.141-2.296,0.414-2.712,1.396c-0.1,0.236-0.135,0.469-0.124,0.701c0.107,0.258,0.266,0.502,0.458,0.736
			c0.416-0.983,1.656-1.261,2.713-1.404c9.471-1.27,19.086-1.604,28.558-2.877c0.593-1.042,1.225-2.129,2.244-2.765
			c1.018-0.633,2.544-0.629,3.255,0.338c0.414,0.561,0.574,1.417,1.242,1.613c0.889,0.263,1.467-0.868,2.052-1.59
			c1.111-1.366,3.291-1.482,4.812-0.596c1.521,0.886,2.455,2.535,2.959,4.22c6.429,1.286,12.902-0.752,18.673-3.866
			c5.771-3.113,11.055-7.119,17.03-9.815c12.158-5.485,26.385-5.207,38.308-11.186c6.983-3.503,12.759-8.949,18.806-13.896
			c4.689-3.833,9.768-7.467,15.399-9.537c1.099-0.868,2.215-1.709,3.344-2.534C157.312,41.743,151.05,46.11,145.361,50.763z"/>
	</g>
	<path fill="#BE1E2D" d="M65.386,73.023c1.639-6.663,6.05-12.583,5.041-19.641c4.177,6.048,7.052,13.544,6.92,21
		c-0.132,7.457-3.651,14.708-9.473,17.359C64.826,86.1,63.894,79.089,65.386,73.023z"/>
	<path fill="#BE1E2D" d="M114.769,73.539c-0.543-0.326-0.787-1.068-0.963-1.742c-3.117-11.927,0.527-25.277,8.761-32.114
		c-0.714,6.071,2.602,12.188,2.915,18.394c0.357,6.979-3.578,13.585-9.206,15.467C115.791,73.702,115.241,73.826,114.769,73.539z"/>
	<g opacity="0.19">
		<path fill="#498C7A" d="M133.389,79.928c-4.581,5.327-9.596,10.213-15.344,14.265c-16.123,11.366-36.59,15.046-56.315,14.639
			c-13.587-0.28-30.521-2.929-43.573-6.732c9.4,4.264,19.472,7.086,29.595,8.939c14.514,2.661,30.027,4.539,44.597,1.419
			c8.669-1.854,16.822-5.121,23.964-10.385c6.781-4.999,11.939-11.814,15.755-19.271C132.547,81.864,132.979,80.902,133.389,79.928z
			"/>
	</g>
</g>
</svg>
