<?xml version="1.0" encoding="utf-8"?>
<!-- Generator: Adobe Illustrator 16.0.4, SVG Export Plug-In . SVG Version: 6.00 Build 0)  -->
<!DOCTYPE svg PUBLIC "-//W3C//DTD SVG 1.1//EN" "http://www.w3.org/Graphics/SVG/1.1/DTD/svg11.dtd">
<svg version="1.1" id="Layer_1" xmlns="http://www.w3.org/2000/svg" xmlns:xlink="http://www.w3.org/1999/xlink" x="0px" y="0px"
	 width="170px" height="170px" viewBox="0 0 170 170" enable-background="new 0 0 170 170" xml:space="preserve">
<title>Artboard 9</title>
<g>
	<path fill="#4DA187" d="M149.467,102.042c-1.912,0.236-3.846,0.089-5.771,0.097c-4.092,0.016-8.328,0.34-12.178,1.727
		c6.499-14.664,17.568-27.094,30.662-36.36c-7.35,1.283-13.746,5.702-19.522,10.425s-11.29,9.925-17.96,13.27
		c-11.387,5.711-24.975,5.444-36.585,10.683c-5.708,2.576-10.755,6.402-16.266,9.375c-5.511,2.973-11.694,4.921-17.834,3.693
		c-0.481-1.611-1.373-3.186-2.825-4.031s-3.535-0.734-4.596,0.569c-0.559,0.688-1.11,1.768-1.96,1.517
		c-0.639-0.188-0.792-1.004-1.186-1.54c-0.68-0.923-2.136-0.929-3.109-0.323s-1.578,1.645-2.144,2.641
		c-9.045,1.213-18.228,1.535-27.273,2.748c-1.01,0.135-2.193,0.396-2.59,1.334c-0.529,1.252,0.763,2.477,1.909,3.208
		c18.863,12.035,43.049,16.229,64.142,17.155c-0.544,4.151,1.327,8.351,4.171,11.424c2.845,3.073,6.577,5.172,10.36,6.967
		c2.109,1,4.312,1.959,5.938,3.634s2.463,4.155,1.445,6.257c2.752-3.27,4.061-7.712,3.521-11.951
		c-0.54-4.239-2.92-8.212-6.404-10.688c-1.992-1.416-4.285-2.339-6.432-3.508c-1.264-0.688-2.206-1.542-3.362-2.397
		c17.863-0.46,34.972-10.916,44.481-26.044c4.963,1.27,10.922,1.174,15.627-0.854s8.438-6.833,10.924-11.312
		C153.311,101.14,151.377,101.807,149.467,102.042z"/>
	<path fill="#BDE0C4" d="M122.23,105.223c-2.173,2.514-4.393,5.211-7.488,6.419c-2.516,0.981-5.445,0.899-7.703,2.382
		c-3.569,2.347-4.359,7.887-8.314,9.498c-2.854,1.162-6.022-0.277-9.078-0.669c-4.888-0.626-9.677,1.493-14.068,3.731
		c-4.391,2.239-8.902,4.709-13.828,4.854c-4.927,0.146-10.363-2.942-10.943-7.837c-0.101-0.852-0.075-1.783-0.589-2.471
		c-0.816-1.088-2.455-0.953-3.798-0.737c-12.687,2.034-25.802,1.345-38.208-1.999c-0.046,1.06,1.042,2.051,2.026,2.679
		c11.831,7.548,25.466,11.911,39.195,14.428c13.862,2.541,28.678,4.335,42.595,1.356c8.278-1.771,16.066-4.891,22.885-9.919
		c6.475-4.775,11.404-11.283,15.047-18.405c1.822-3.561,2.918-7.46,4.699-11.002c1.609-3.201,4.479-8.758,7.344-10.959
		C134.807,92.103,128.167,98.357,122.23,105.223z"/>
	<path fill="#BDE0C4" d="M122.23,105.223c-2.173,2.514-4.393,5.211-7.488,6.419c-2.516,0.981-5.445,0.899-7.703,2.382
		c-3.569,2.347-4.359,7.887-8.314,9.498c-2.854,1.162-6.022-0.277-9.078-0.669c-4.888-0.626-9.677,1.493-14.068,3.731
		c-4.391,2.239-8.902,4.709-13.828,4.854c-4.927,0.146-10.363-2.942-10.943-7.837c-0.101-0.852-0.075-1.783-0.589-2.471
		c-0.816-1.088-2.455-0.953-3.798-0.737c-12.687,2.034-25.802,1.345-38.208-1.999c-0.046,1.06,1.042,2.051,2.026,2.679
		c11.831,7.548,25.466,11.911,39.195,14.428c13.862,2.541,29.477,4.423,43.395,1.443c8.277-1.772,15.267-4.978,22.085-10.006
		c6.475-4.775,11.404-11.283,15.047-18.405c1.822-3.561,2.855-7.598,4.904-10.992c2.572-4.264,5.003-8.619,7.139-10.969
		C134.807,92.103,128.167,98.357,122.23,105.223z"/>
	<path fill="#003E3F" d="M40.174,113.314c0,0-0.01,0.122-0.044,0.33c-0.048,0.207-0.061,0.509-0.089,0.843
		c0.015,0.169-0.003,0.351,0.026,0.53c0.058,0.166,0.062,0.39,0.147,0.52l0.151,0.306c0.06,0.083,0.124,0.13,0.176,0.202
		c0.045,0.072,0.114,0.133,0.2,0.186c0.081,0.047,0.147,0.133,0.236,0.154c0.063,0.028,0.215,0.075,0.202,0.1l0.353,0.028
		c0.182-0.032,0.305-0.032,0.49-0.128c0.172-0.054,0.329-0.203,0.457-0.285c0.142-0.146,0.295-0.278,0.383-0.405
		c0.209-0.244,0.382-0.507,0.484-0.683c0.107-0.179,0.178-0.281,0.178-0.281s-0.014,0.121-0.055,0.331
		c-0.055,0.208-0.103,0.507-0.288,0.857c-0.083,0.189-0.195,0.343-0.314,0.51c-0.177,0.182-0.318,0.37-0.563,0.487
		c-0.197,0.139-0.537,0.236-0.815,0.256l-0.354-0.017c-0.235-0.059-0.304-0.102-0.463-0.158c-0.144-0.048-0.235-0.161-0.353-0.241
		c-0.115-0.08-0.218-0.178-0.302-0.306c-0.086-0.116-0.184-0.241-0.24-0.354l-0.119-0.318c-0.12-0.272-0.073-0.504-0.104-0.736
		c-0.001-0.225,0.064-0.43,0.097-0.617c0.111-0.363,0.252-0.641,0.353-0.822C40.106,113.416,40.174,113.314,40.174,113.314z"/>
	<path fill="#003E3F" d="M46.798,113.699c0,0-0.022,0.133-0.077,0.355c-0.029,0.109-0.068,0.245-0.086,0.398
		c-0.014,0.154-0.069,0.32-0.07,0.501c0.017,0.179-0.047,0.376,0.019,0.56c0.021,0.092,0.042,0.186,0.062,0.281
		c0,0,0.026,0.093-0.002,0.025l0.127,0.237c0.102,0.265,0.272,0.305,0.376,0.455c0.181,0.099,0.346,0.233,0.551,0.263l0.144,0.051
		c-0.041,0.004,0.1,0.005,0.141,0.008c0.119-0.004,0.278,0.027,0.362-0.004c0.09-0.026,0.18-0.041,0.274-0.053
		c0.097-0.029,0.196-0.076,0.294-0.111c0.189-0.073,0.38-0.207,0.526-0.298c0.167-0.147,0.345-0.274,0.453-0.404
		c0.252-0.244,0.463-0.509,0.591-0.689c0.132-0.184,0.219-0.288,0.219-0.288s-0.026,0.129-0.09,0.354
		c-0.078,0.219-0.16,0.539-0.394,0.898c-0.106,0.197-0.242,0.352-0.386,0.522c-0.195,0.185-0.371,0.362-0.62,0.489
		c-0.124,0.062-0.243,0.133-0.379,0.188c-0.149,0.044-0.306,0.085-0.464,0.114c-0.163,0.036-0.266,0.01-0.402,0.018
		c-0.087-0.005-0.078,0.011-0.244-0.012l-0.227-0.062c-0.315-0.064-0.562-0.261-0.814-0.428c-0.224-0.234-0.46-0.52-0.511-0.729
		l-0.102-0.249c-0.041-0.125-0.016-0.094-0.026-0.148c-0.007-0.135-0.014-0.268-0.021-0.396c-0.036-0.259,0.083-0.475,0.119-0.681
		c0.047-0.204,0.161-0.362,0.23-0.511c0.072-0.149,0.151-0.262,0.214-0.358C46.715,113.805,46.798,113.699,46.798,113.699z"/>
	<path fill="#FFFFFF" d="M19.166,120.456c0.106-0.458,0.212-0.932,0.126-1.394c-0.086-0.463-0.417-0.913-0.882-0.984
		c-0.479-0.074-0.942,0.281-1.153,0.718s-0.227,0.939-0.239,1.425C17.741,120.295,18.442,120.381,19.166,120.456z"/>
	<path fill="#FFFFFF" d="M26.453,121.369c0.106-0.458,0.213-0.932,0.127-1.395c-0.086-0.461-0.417-0.912-0.882-0.984
		c-0.479-0.073-0.942,0.281-1.153,0.719c-0.21,0.438-0.227,0.939-0.239,1.424C25.028,121.209,25.73,121.294,26.453,121.369z"/>
	<path fill="#FFFFFF" d="M20.808,120.979c-0.106,0.459-0.212,0.932-0.127,1.395c0.086,0.462,0.417,0.912,0.882,0.984
		c0.479,0.074,0.942-0.281,1.153-0.719c0.21-0.437,0.227-0.939,0.239-1.424C22.232,121.14,21.531,121.055,20.808,120.979z"/>
	<path fill="#FFFFFF" d="M13.314,119.506c-0.106,0.457-0.212,0.932-0.126,1.394s0.417,0.913,0.882,0.984
		c0.48,0.073,0.942-0.281,1.153-0.718c0.211-0.438,0.227-0.939,0.239-1.425C14.738,119.666,14.037,119.58,13.314,119.506z"/>
	<path fill="#498C7A" d="M129.539,88.356c-1.557,1.04-3.162,2.001-4.842,2.844c-11.387,5.711-24.975,5.444-36.585,10.683
		c-5.708,2.576-10.755,6.402-16.266,9.375c-4.172,2.251-8.729,3.91-13.361,4.053c2.428,0.395,4.87,0.666,7.323,0.566
		c3.739-0.151,7.56-1.236,10.358-3.721c2.011-1.786,3.611-4.335,6.229-4.951c3.879-0.914,7.712,2.972,11.581,2.021
		c4.719-1.157,5.344-8.139,9.57-10.535c4.083-2.314,9.273,0.716,13.859-0.285c3.088-0.674,5.461-3.068,7.645-5.354
		C126.547,91.487,128.043,89.922,129.539,88.356z"/>
	<g opacity="0.23">
		<path fill="#FFFFFF" d="M142.657,77.931c-5.776,4.723-11.29,9.925-17.96,13.27c-11.387,5.711-24.975,5.444-36.585,10.683
			c-5.708,2.576-10.755,6.402-16.266,9.375c-5.511,2.973-11.694,4.921-17.834,3.693c-0.481-1.611-1.373-3.186-2.825-4.031
			s-3.535-0.734-4.596,0.569c-0.559,0.688-1.11,1.768-1.96,1.517c-0.639-0.188-0.792-1.004-1.186-1.54
			c-0.68-0.923-2.136-0.929-3.109-0.323s-1.578,1.645-2.144,2.641c-9.045,1.213-18.228,1.535-27.273,2.748
			c-1.01,0.135-2.193,0.396-2.59,1.334c-0.095,0.226-0.129,0.449-0.118,0.67c0.102,0.246,0.254,0.479,0.437,0.703
			c0.397-0.939,1.582-1.204,2.591-1.34c9.045-1.213,18.229-1.534,27.274-2.748c0.566-0.996,1.17-2.034,2.143-2.64
			c0.973-0.606,2.43-0.601,3.109,0.323c0.395,0.535,0.548,1.352,1.186,1.54c0.85,0.251,1.401-0.829,1.96-1.517
			c1.061-1.305,3.143-1.416,4.596-0.57s2.344,2.421,2.826,4.031c6.14,1.229,12.323-0.72,17.834-3.693
			c5.511-2.973,10.558-6.799,16.265-9.374c11.611-5.238,25.199-4.973,36.586-10.684c6.669-3.345,12.184-8.546,17.96-13.27
			c4.478-3.661,9.329-7.132,14.708-9.109c1.049-0.829,2.115-1.632,3.193-2.42C154.071,69.317,148.09,73.488,142.657,77.931z"/>
	</g>
	<path fill="#4DA187" d="M66.276,99.191c1.565-6.363,5.778-12.016,4.814-18.758c3.989,5.776,6.735,12.935,6.609,20.056
		c-0.126,7.122-3.487,14.047-9.047,16.579C65.741,111.68,64.851,104.984,66.276,99.191z"/>
	<path fill="#4DA187" d="M113.439,99.684c-0.517-0.312-0.752-1.021-0.92-1.664c-2.975-11.391,0.504-24.141,8.367-30.672
		c-0.68,5.798,2.486,11.64,2.786,17.567c0.339,6.665-3.417,12.974-8.792,14.771C114.416,99.84,113.891,99.958,113.439,99.684z"/>
	<g opacity="0.19">
		<path fill="#498C7A" d="M131.222,105.786c-4.374,5.087-9.163,9.754-14.653,13.624c-15.4,10.855-34.947,14.369-53.786,13.981
			c-12.977-0.267-29.149-2.796-41.615-6.429c8.978,4.072,18.597,6.766,28.265,8.538c13.862,2.541,28.678,4.335,42.595,1.356
			c8.278-1.771,16.066-4.891,22.885-9.919c6.475-4.775,11.404-11.283,15.047-18.405
			C130.419,107.635,130.832,106.716,131.222,105.786z"/>
	</g>
</g>
</svg>
