<svg height='100px' width='100px'  fill="#fe010f" xmlns="http://www.w3.org/2000/svg" xmlns:xlink="http://www.w3.org/1999/xlink" version="1.1" x="0px" y="0px" viewBox="0 0 100 100" enable-background="new 0 0 100 100" xml:space="preserve"><g><path fill="none" d="M57.522,83.201c-0.059,2.45,0.29,4.668,1.103,7c2.494-0.395,4.84-0.767,7.298-1.157   c0.154-2.815-0.698-5.313-1.035-8.036C61.685,80.322,59.835,82.389,57.522,83.201z"></path><path fill="none" d="M70.133,21.012c-2.879-6.302-8.006-10.065-14.449-11.95c-4.319-1.264-8.785-1.112-13.175,0.179   c-4.088,1.202-7.525,3.393-10.181,6.686c-1.316,1.631-2.488,3.425-2.905,5.579c-0.341,1.76-0.861,3.491-1.12,5.261   c-0.547,3.745-0.272,7.49,1.629,10.786c2.064,3.576,2.65,3.853,6.338,2.527c0.364-0.131,0.674-0.412,1.045-0.646   c-0.222-1.701-0.685-3.189-1.28-4.676c-1.762-4.398-1.684-8.869,1.074-12.707c2.732-3.801,5.412-6.609,10.502-5.252   c0.607,0.162,1.26,0.157,1.892,0.221c1.981,0.201,3.61,1.144,5.053,2.439c0.708,0.634,1.359,1.332,2.009,2.027   c2.972,3.173,3.325,4.268,2.777,8.579c-0.08,0.629-0.154,1.265-0.305,1.88c-0.353,1.445-0.883,2.777-1.86,3.978   c-1.933,2.374-3.765,4.833-5.557,7.316c-1.674,2.319-2.612,4.774-1.316,7.684c0.683,1.533,1.042,3.21,1.558,4.818   c0.259,0.806,0.461,1.642,0.827,2.398c0.891,1.832,1.32,3.777,1.712,5.759c0.328,1.656,0.804,3.295,1.378,4.883   c0.553,1.532,1.341,1.845,2.957,1.466c0.614-0.143,1.222-0.311,1.875-0.477c1.16-1.725,0.66-3.331,0.492-4.885   c-0.612-5.689-0.867-11.392-0.892-17.114c-0.007-1.555,0.412-2.88,1.269-4.161c0.847-1.268,1.911-2.261,3.193-3.039   c1.177-0.713,2.45-1.284,3.562-2.083c2.012-1.443,3.839-3.173,4.015-5.804c0.146-2.198,0.095-4.46-0.273-6.627   C71.682,24.321,70.877,22.642,70.133,21.012z"></path><path d="M73.167,19.06c-2.211-4.129-5.197-7.419-9.101-9.934c-3.911-2.519-8.157-3.868-12.84-4.091   c-4.343-0.207-8.433,0.496-12.282,2.484c-1.501,0.776-2.98,1.632-4.351,2.615c-4.049,2.903-7.173,6.53-8.579,11.439   c-0.434,1.517-1.042,2.988-1.412,4.518c-0.422,1.741-0.681,3.493-0.393,5.331c0.543,3.474,1.686,6.766,2.865,10.043   c0.457,1.269,1.266,2.448,2.087,3.538c1.296,1.718,2.69,2.062,4.739,1.425c2.557-0.795,4.936-1.977,6.837-3.854   c1.382-1.366,2.208-2.712,0.442-4.668c-2.538-2.808-2.83-6.279-2.59-9.826c0.07-1.025,0.499-2.029,0.793-3.034   c0.682-2.328,2.666-3.457,4.451-4.844c2.556-0.119,4.41,0.706,5.895,2.414c0.345,0.397,0.777,0.716,1.162,1.079   c1.216,1.142,1.905,2.604,1.99,4.214c0.111,2.095,0.175,4.205-0.399,6.285c-0.842,3.054-2.442,5.593-4.77,7.722   c-0.689,0.629-1.543,1.32-1.79,2.142c-0.511,1.7-0.968,3.499-0.438,5.305c1.101,3.751,2.244,7.49,3.385,11.23   c0.247,0.809,0.681,1.577,0.818,2.4c0.701,4.234,2.903,7.894,4.244,11.775c1.101,0.393,2.019,0.428,2.967,0.138   c1.213-0.371,2.449-0.67,3.658-1.052c2.526-0.797,2.963-1.371,3.175-4.072c0.042-0.527,0.038-1.056,0.034-1.586   c-0.032-4.645-0.054-9.29-0.112-13.934c-0.019-1.585-0.114-3.171-0.21-4.754c-0.159-2.585,0.957-4.491,3.086-5.855   c0.802-0.514,1.602-1.054,2.465-1.443c2.319-1.047,3.882-2.887,5.311-4.881c1.083-1.51,1.597-3.223,1.608-5.065   C75.938,27.671,75.403,23.24,73.167,19.06z M72.251,32.685c-0.175,2.631-2.002,4.361-4.015,5.804   c-1.112,0.799-2.385,1.37-3.562,2.083c-1.281,0.777-2.345,1.771-3.193,3.039c-0.857,1.281-1.276,2.606-1.269,4.161   c0.025,5.722,0.28,11.425,0.892,17.114c0.168,1.554,0.668,3.159-0.492,4.885c-0.653,0.166-1.262,0.335-1.875,0.477   c-1.616,0.379-2.404,0.066-2.957-1.466c-0.573-1.588-1.05-3.228-1.378-4.883c-0.393-1.982-0.822-3.927-1.712-5.759   c-0.367-0.756-0.569-1.592-0.827-2.398c-0.516-1.608-0.875-3.286-1.558-4.818c-1.296-2.91-0.358-5.365,1.316-7.684   c1.792-2.483,3.624-4.943,5.557-7.316c0.978-1.2,1.508-2.533,1.86-3.978c0.151-0.616,0.225-1.251,0.305-1.88   c0.548-4.31,0.195-5.406-2.777-8.579c-0.65-0.695-1.302-1.393-2.009-2.027c-1.443-1.295-3.072-2.238-5.053-2.439   c-0.632-0.064-1.285-0.059-1.892-0.221c-5.089-1.357-7.769,1.451-10.502,5.252c-2.759,3.838-2.836,8.309-1.074,12.707   c0.595,1.487,1.058,2.975,1.28,4.676c-0.371,0.234-0.68,0.516-1.045,0.646c-3.689,1.326-4.275,1.049-6.338-2.527   c-1.901-3.296-2.176-7.042-1.629-10.786c0.259-1.77,0.779-3.501,1.12-5.261c0.417-2.155,1.588-3.948,2.905-5.579   c2.656-3.293,6.093-5.484,10.181-6.686c4.39-1.291,8.856-1.443,13.175-0.179c6.442,1.885,11.57,5.648,14.449,11.95   c0.744,1.63,1.55,3.309,1.845,5.046C72.346,28.225,72.398,30.487,72.251,32.685z"></path><path d="M68.083,81.643c-0.66-2.887-1.513-3.536-4.384-3.351c-0.42,0.027-0.833,0.136-1.252,0.176   c-2.473,0.233-4.626,1.475-6.853,2.376c-1.483,0.599-2.685,1.875-3.011,3.785c-0.485,2.843,0.319,5.439,1.117,8.057   c0.449,1.475,1.483,2.279,3.099,2.315c0.94-0.066,1.894-0.053,2.818-0.212c1.557-0.269,3.126-0.547,4.639-0.994   c4.946-1.46,5.44-2.596,4.877-7.194C68.93,84.93,68.46,83.29,68.083,81.643z M65.923,89.043c-2.458,0.39-4.804,0.762-7.298,1.157   c-0.813-2.332-1.162-4.549-1.103-7c2.313-0.812,4.163-2.879,7.366-2.194C65.225,83.73,66.078,86.229,65.923,89.043z"></path></g></svg>