<?xml version="1.0" encoding="utf-8"?>
<!-- Generator: Adobe Illustrator 22.1.0, SVG Export Plug-In . SVG Version: 6.00 Build 0)  -->
<svg version="1.1"
	 id="svg2" inkscape:output_extension="org.inkscape.output.svg.inkscape" inkscape:version="0.45+devel" sodipodi:docbase="/mnt/archiv/artwork" sodipodi:docname="reed_gmv_.svg" sodipodi:version="0.32" xmlns:cc="http://creativecommons.org/ns#" xmlns:dc="http://purl.org/dc/elements/1.1/" xmlns:inkscape="http://www.inkscape.org/namespaces/inkscape" xmlns:ns1="http://sozi.baierouge.fr" xmlns:rdf="http://www.w3.org/1999/02/22-rdf-syntax-ns#" xmlns:sodipodi="http://sodipodi.sourceforge.net/DTD/sodipodi-0.dtd" xmlns:svg="http://www.w3.org/2000/svg"
	 xmlns="http://www.w3.org/2000/svg" xmlns:xlink="http://www.w3.org/1999/xlink" x="0px" y="0px" viewBox="0 0 150 150"
	 style="enable-background:new 0 0 150 150;" xml:space="preserve">
<style type="text/css">
	.st0{fill:url(#path2212_1_);}
	.st1{fill:url(#path2208_1_);}
	.st2{fill:url(#path2188_1_);}
	.st3{fill:url(#path2349_1_);stroke:#435C3F;stroke-width:1.1875;}
	.st4{fill:url(#path2151_1_);stroke:#2C6C22;stroke-width:1.1875;}
	.st5{fill:url(#path2147_1_);stroke:#2C6C22;stroke-width:1.1875;}
	.st6{fill:#BEA992;stroke:#E7E2A5;}
	.st7{fill:url(#path1303_1_);stroke:#000000;stroke-width:0.25;}
	.st8{fill:url(#path2081_1_);stroke:#000000;stroke-width:0.25;}
	.st9{fill:url(#path2093_1_);stroke:#000000;stroke-width:0.25;}
	.st10{fill:url(#path2133_1_);stroke:#2C6C22;stroke-width:1.1875;}
	.st11{fill:url(#path2357_1_);stroke:#435C3F;stroke-width:1.1875;}
	.st12{fill:url(#path2143_1_);stroke:#2C6C22;stroke-width:1.1875;}
	.st13{fill:url(#path2155_1_);stroke:#2C6C22;stroke-width:1.1875;}
	.st14{fill:url(#path2353_1_);stroke:#435C3F;stroke-width:1.1875;}
	.st15{fill:url(#path2216_1_);stroke:#2C6C22;stroke-width:1.1875;}
	.st16{fill:url(#path2361_1_);stroke:#435C3F;stroke-width:1.1875;}
	.st17{fill:url(#path2327_1_);stroke:#435C3F;stroke-width:1.1875;}
	.st18{fill:url(#path2220_1_);stroke:#2C6C22;stroke-width:1.1875;}
	.st19{fill:url(#path2159_1_);}
	.st20{fill:url(#path2169_1_);}
	.st21{fill:url(#path2181_1_);}
	.st22{fill:url(#path2341_1_);stroke:#435C3F;stroke-width:1.1875;}
	.st23{fill:url(#path2345_1_);stroke:#435C3F;stroke-width:1.1875;}
	.st24{fill:url(#path2228_1_);}
	.st25{fill:url(#path2337_1_);stroke:#435C3F;stroke-width:1.1875;}
	.st26{fill:url(#path2232_1_);}
	.st27{fill:url(#path2244_1_);}
	.st28{fill:url(#path2262_1_);}
	.st29{fill:url(#path2266_1_);}
	.st30{fill:url(#path2270_1_);}
	.st31{fill:url(#path2274_1_);}
	.st32{fill:url(#path2278_1_);}
	.st33{fill:url(#path2282_1_);}
	.st34{fill:url(#path2286_1_);}
	.st35{fill:url(#path2290_1_);}
	.st36{fill:url(#path2294_1_);}
	.st37{fill:url(#path2298_1_);}
	.st38{fill:url(#path2315_1_);}
	.st39{fill:url(#path2319_1_);}
</style>
<sodipodi:namedview  bordercolor="#666666" borderopacity="1.0" id="base" inkscape:current-layer="layer1" inkscape:cx="372.04726" inkscape:cy="526.18109" inkscape:document-units="px" inkscape:pageopacity="0.0" inkscape:pageshadow="2" inkscape:window-height="945" inkscape:window-width="1270" inkscape:window-x="0" inkscape:window-y="0" inkscape:zoom="0.72693604" pagecolor="#ffffff" showgrid="false">
	</sodipodi:namedview>
<g id="layer1" transform="translate(-65.085 -138.98)" inkscape:groupmode="layer" inkscape:label="Layer 1">
	
		<linearGradient id="path2212_1_" gradientUnits="userSpaceOnUse" x1="-39.8586" y1="-208.154" x2="2.725" y2="-297.3959" gradientTransform="matrix(1.4941 8.272897e-03 1.872646e-03 -0.3382 172.1118 183.6585)">
		<stop  offset="0" style="stop-color:#37FBFF;stop-opacity:0"/>
		<stop  offset="0.3056" style="stop-color:#1489EA;stop-opacity:0.5876"/>
		<stop  offset="0.6656" style="stop-color:#3A9AFF;stop-opacity:0.5979"/>
		<stop  offset="1" style="stop-color:#28E0FD;stop-opacity:0"/>
	</linearGradient>
	
		<path id="path2212" sodipodi:cx="321.23212" sodipodi:cy="755.84027" sodipodi:rx="353.20996" sodipodi:ry="116.28311" sodipodi:type="arc" class="st0" d="
		M208.8,266.3c0,8.9-32,16-71.4,15.7c-39.4-0.2-71.3-7.6-71.2-16.5c0-8.9,32-16,71.4-15.7S208.9,257.4,208.8,266.3L208.8,266.3z"/>
	
		<linearGradient id="path2208_1_" gradientUnits="userSpaceOnUse" x1="-44.404" y1="142.8278" x2="-20.6345" y2="264.3136" gradientTransform="matrix(1.4925 3.915200e-02 1.597748e-02 -0.1874 178.3372 306.9474)">
		<stop  offset="0" style="stop-color:#37FBFF;stop-opacity:0"/>
		<stop  offset="0.3056" style="stop-color:#1489EA;stop-opacity:0.5876"/>
		<stop  offset="0.6656" style="stop-color:#3A9AFF;stop-opacity:0.5979"/>
		<stop  offset="1" style="stop-color:#28E0FD;stop-opacity:0"/>
	</linearGradient>
	
		<path id="path2208" sodipodi:cx="321.23212" sodipodi:cy="755.84027" sodipodi:rx="353.20996" sodipodi:ry="116.28311" sodipodi:type="arc" class="st1" d="
		M207.6,267.5c-0.4,4.9-32.7,8.1-72,7.1s-70.9-5.9-70.5-10.8s32.7-8.1,72-7.1S208,262.5,207.6,267.5L207.6,267.5z"/>
	
		<linearGradient id="path2188_1_" gradientUnits="userSpaceOnUse" x1="-39.2142" y1="-184.3904" x2="3.3694" y2="-273.6323" gradientTransform="matrix(1.4941 1.381064e-02 2.671290e-03 -0.289 170.8258 196.1022)">
		<stop  offset="0" style="stop-color:#37FBFF;stop-opacity:0"/>
		<stop  offset="0.3056" style="stop-color:#1489EA;stop-opacity:0.5876"/>
		<stop  offset="0.6656" style="stop-color:#3A9AFF;stop-opacity:0.5979"/>
		<stop  offset="1" style="stop-color:#28E0FD;stop-opacity:0"/>
	</linearGradient>
	
		<path id="path2188" sodipodi:cx="321.23212" sodipodi:cy="755.84027" sodipodi:rx="353.20996" sodipodi:ry="116.28311" sodipodi:type="arc" class="st2" d="
		M208.4,260c-0.1,7.6-32.1,13.5-71.4,13.1c-39.4-0.4-71.3-6.8-71.2-14.5c0.1-7.6,32.1-13.5,71.4-13.1S208.4,252.4,208.4,260
		L208.4,260z"/>
	
		<linearGradient id="path2349_1_" gradientUnits="userSpaceOnUse" x1="-283.8493" y1="66.2014" x2="-274.9439" y2="79.8243" gradientTransform="matrix(-0.971 -3.289900e-02 0.2858 -0.8742 -178.2451 317.585)">
		<stop  offset="0" style="stop-color:#3B6B0B"/>
		<stop  offset="1" style="stop-color:#30F213"/>
	</linearGradient>
	<path id="path2349" sodipodi:nodetypes="cccc" class="st3" d="M116.6,269.8c-0.4-7.1-2.5-10.3-5.2-13.7c1.7,4.1,3.2,6.4,3.8,13.8
		C116.4,269.9,115.3,269.9,116.6,269.8L116.6,269.8z"/>
	
		<linearGradient id="path2151_1_" gradientUnits="userSpaceOnUse" x1="-32.8185" y1="243.2871" x2="21.9349" y2="275.1801" gradientTransform="matrix(0.4729 0.1467 0.4397 -1.4179 44.7445 600.1169)">
		<stop  offset="0" style="stop-color:#36B932"/>
		<stop  offset="1" style="stop-color:#EEFFD2"/>
	</linearGradient>
	<path id="path2151" sodipodi:nodetypes="cccc" class="st4" d="M132.1,265.4c16.3-36.9,39.8-68.2,52.8-72.7
		c-15.5,10.4-33.4,35.8-50.8,74.6C132.2,266,133.9,267.1,132.1,265.4L132.1,265.4z"/>
	
		<linearGradient id="path2147_1_" gradientUnits="userSpaceOnUse" x1="240.0049" y1="279.6508" x2="294.7582" y2="311.5438" gradientTransform="matrix(0.4227 0 0 -0.9979 16.5864 532.2978)">
		<stop  offset="0" style="stop-color:#36B932"/>
		<stop  offset="1" style="stop-color:#EEFFD2"/>
	</linearGradient>
	<path id="path2147" sodipodi:nodetypes="cccc" class="st5" d="M118.5,263.7c3.9-26.9,15.2-51.7,24.6-57.2
		c-10,9.8-18.2,29.7-22.6,58C118.7,264.1,120.4,264.5,118.5,263.7z"/>
	<path id="path1291" sodipodi:nodetypes="ccccc" class="st6" d="M125.6,270.1c0.1-31.5,47.6-122.9,68.6-130.8
		c2.9-1.1,2.8,0.8,1.7,2.5c-20.5,7.4-66.6,96.2-68.3,129C125.9,271,125.9,270.4,125.6,270.1L125.6,270.1z"/>
	
		<linearGradient id="path1303_1_" gradientUnits="userSpaceOnUse" x1="139.8579" y1="-11.0144" x2="192.6257" y2="-11.0144" gradientTransform="matrix(0.5889 0 0 -0.7438 75.9321 155.2458)">
		<stop  offset="0" style="stop-color:#6F2B00"/>
		<stop  offset="1" style="stop-color:#FFA312"/>
	</linearGradient>
	<path id="path1303" sodipodi:nodetypes="ccccc" class="st7" d="M182,144.7c-6.9,5.1-17.5,21-23.5,32.4c-2.4,3.8,6.1,7.7,8,5.4
		c7.1-12,18-26.7,22.8-33.3C190.6,146.9,185.4,141.6,182,144.7z"/>
	<path id="path2079" sodipodi:nodetypes="ccccc" class="st6" d="M132,267.2c10.2-50.8,50.9-97,71.8-104.9c2.9-1.1,2.8,0.8,1.7,2.5
		C185,172.2,144.3,220,134,267.9C132.3,268.1,132.3,267.5,132,267.2L132,267.2z"/>
	
		<linearGradient id="path2081_1_" gradientUnits="userSpaceOnUse" x1="103.0824" y1="106.9595" x2="155.8502" y2="106.9595" gradientTransform="matrix(0.5889 0 0 -0.7438 104.2621 262.2774)">
		<stop  offset="0" style="stop-color:#6F2B00"/>
		<stop  offset="1" style="stop-color:#FFA312"/>
	</linearGradient>
	<path id="path2081" sodipodi:nodetypes="ccccc" class="st8" d="M188.7,167.9c-8.3,5.5-17.5,15.7-24,24.2c-2.4,3.8,5.1,7.7,8,5.4
		c6.6-12,13.7-19,23.3-23.2C197.3,172.2,192.1,164.9,188.7,167.9z"/>
	<path id="path2091" sodipodi:nodetypes="ccccc" class="st6" d="M118.2,267c0.1-30,37.5-109,48.8-121c1.9-1.5,2.1,0.7,1.3,2.4
		c-12.7,13-47.3,88-48.5,119.2C118.4,267.8,118.4,267.2,118.2,267z"/>
	
		<linearGradient id="path2093_1_" gradientUnits="userSpaceOnUse" x1="157.0838" y1="199.6019" x2="179.6781" y2="222.6154" gradientTransform="matrix(0.673 0 0 -1.0921 37.6054 404.3812)">
		<stop  offset="0" style="stop-color:#6F2B00"/>
		<stop  offset="1" style="stop-color:#FFA312"/>
	</linearGradient>
	<path id="path2093" sodipodi:nodetypes="ccccc" class="st9" d="M155.9,157.8c-5.1,4.8-12,20-16.4,30.8c-1.8,3.6,4,6.6,5.4,4.4
		c5.2-11.4,12.9-25.2,16.4-31.4C162.3,159.4,158.5,154.8,155.9,157.8z"/>
	
		<linearGradient id="path2133_1_" gradientUnits="userSpaceOnUse" x1="244.8064" y1="216.8736" x2="299.5598" y2="248.7666" gradientTransform="matrix(0.4915 -5.919200e-02 -0.1775 -1.4739 31.4357 588.2392)">
		<stop  offset="0" style="stop-color:#36B932"/>
		<stop  offset="1" style="stop-color:#EEFFD2"/>
	</linearGradient>
	<path id="path2133" sodipodi:nodetypes="cccc" class="st10" d="M115.7,269.5c-0.2-40.3,8.5-78.5,18.5-87.9
		c-9.9,15.8-15.9,46.3-15.9,88.9C116,270.1,118,270.4,115.7,269.5L115.7,269.5z"/>
	
		<linearGradient id="path2357_1_" gradientUnits="userSpaceOnUse" x1="19.0527" y1="55.6724" x2="27.958" y2="69.2953" gradientTransform="matrix(1.0159 7.200300e-02 -0.1977 -0.9748 118.2126 323.0286)">
		<stop  offset="0" style="stop-color:#3B6B0B"/>
		<stop  offset="1" style="stop-color:#30F213"/>
	</linearGradient>
	<path id="path2357" sodipodi:nodetypes="cccc" class="st11" d="M126.2,270.9c1.2-7.6,3.8-10.8,7-14.2c-2.2,4.2-4.1,6.6-5.5,14.5
		C126.4,271,127.5,271.2,126.2,270.9z"/>
	
		<linearGradient id="path2143_1_" gradientUnits="userSpaceOnUse" x1="115.1297" y1="239.9729" x2="169.8831" y2="271.8658" gradientTransform="matrix(0.4951 0 0 -1.4846 70.8738 613.4595)">
		<stop  offset="0" style="stop-color:#36B932"/>
		<stop  offset="1" style="stop-color:#EEFFD2"/>
	</linearGradient>
	<path id="path2143" sodipodi:nodetypes="cccc" class="st12" d="M128.4,272.9c4.6-40.1,12.5-61,20.3-74.3
		c-7.2,17.4-12.8,33.3-17.9,75.5C128.7,273.5,130.7,274,128.4,272.9L128.4,272.9z"/>
	
		<linearGradient id="path2155_1_" gradientUnits="userSpaceOnUse" x1="213.108" y1="226.1341" x2="267.8614" y2="258.0271" gradientTransform="matrix(0.4924 -5.181600e-02 -0.1449 -1.3769 45.3164 576.2599)">
		<stop  offset="0" style="stop-color:#36B932"/>
		<stop  offset="1" style="stop-color:#EEFFD2"/>
	</linearGradient>
	<path id="path2155" sodipodi:nodetypes="cccc" class="st13" d="M119.6,268.4c0.7-37.7,6.4-57.9,13-71.1
		c-5.4,16.9-9.5,32.2-10.4,71.9C119.9,268.9,121.9,269.2,119.6,268.4L119.6,268.4z"/>
	
		<linearGradient id="path2353_1_" gradientUnits="userSpaceOnUse" x1="45.3282" y1="126.3855" x2="54.2335" y2="140.0085" gradientTransform="matrix(0.971 -2.467500e-02 -0.2858 -0.6557 126.1321 352.4837)">
		<stop  offset="0" style="stop-color:#3B6B0B"/>
		<stop  offset="1" style="stop-color:#30F213"/>
	</linearGradient>
	<path id="path2353" sodipodi:nodetypes="cccc" class="st14" d="M133.3,268.9c0.4-5.3,3.9-6.7,6.6-9.2c-1.7,3-4.6,3.7-5.1,9.3
		C133.5,269,134.7,269,133.3,268.9L133.3,268.9z"/>
	
		<linearGradient id="path2216_1_" gradientUnits="userSpaceOnUse" x1="53.1734" y1="235.636" x2="107.9268" y2="267.529" gradientTransform="matrix(0.4925 5.097300e-02 0.1528 -1.4767 70.3954 596.6956)">
		<stop  offset="0" style="stop-color:#36B932"/>
		<stop  offset="1" style="stop-color:#EEFFD2"/>
	</linearGradient>
	<path id="path2216" sodipodi:nodetypes="cccc" class="st15" d="M131.5,267.1c8.7-39.4,18.7-59.4,27.9-71.8
		c-8.9,16.5-16.2,31.8-25.6,73.3C131.7,267.8,133.6,268.5,131.5,267.1L131.5,267.1z"/>
	
		<linearGradient id="path2361_1_" gradientUnits="userSpaceOnUse" x1="77.6922" y1="146.0386" x2="86.5975" y2="159.6616" gradientTransform="matrix(0.9653 -0.1073 -0.3365 -0.5649 104.9021 360.8514)">
		<stop  offset="0" style="stop-color:#3B6B0B"/>
		<stop  offset="1" style="stop-color:#30F213"/>
	</linearGradient>
	<path id="path2361" sodipodi:nodetypes="cccc" class="st16" d="M130.6,270.6c0-4.8,2.1-8.5,4.3-11.4c-0.8,3.7-2.7,6.3-2.8,11.4
		C130.8,270.6,132,270.5,130.6,270.6z"/>
	
		<linearGradient id="path2327_1_" gradientUnits="userSpaceOnUse" x1="58.2206" y1="22.9739" x2="67.126" y2="36.5969" gradientTransform="matrix(0.971 -3.833100e-02 -0.2858 -1.0186 70.6104 295.3175)">
		<stop  offset="0" style="stop-color:#3B6B0B"/>
		<stop  offset="1" style="stop-color:#30F213"/>
	</linearGradient>
	<path id="path2327" sodipodi:nodetypes="cccc" class="st17" d="M120.3,270.5c0.4-8.2,2.5-12,5.2-15.9c-1.7,4.7-3.2,7.5-3.8,16.1
		C120.5,270.6,121.6,270.7,120.3,270.5z"/>
	
		<linearGradient id="path2220_1_" gradientUnits="userSpaceOnUse" x1="154.9862" y1="249.9036" x2="209.7395" y2="281.7966" gradientTransform="matrix(0.4951 0 0 -1.251 45.0938 565.9762)">
		<stop  offset="0" style="stop-color:#36B932"/>
		<stop  offset="1" style="stop-color:#EEFFD2"/>
	</linearGradient>
	<path id="path2220" sodipodi:nodetypes="cccc" class="st18" d="M122.4,266.5c4.6-33.8,17.9-64.8,28.9-71.7
		c-11.7,12.2-21.3,37.2-26.4,72.8C122.6,267,124.6,267.4,122.4,266.5z"/>
	
		<linearGradient id="path2159_1_" gradientUnits="userSpaceOnUse" x1="49.3083" y1="158.0551" x2="56.2686" y2="192.414" gradientTransform="matrix(0.6714 0 0 -0.285 90.1322 318.999)">
		<stop  offset="0" style="stop-color:#6B52CF;stop-opacity:0.7647"/>
		<stop  offset="0.4815" style="stop-color:#3B4CE1;stop-opacity:0.5773"/>
		<stop  offset="1" style="stop-color:#0E5EF6;stop-opacity:0"/>
	</linearGradient>
	
		<path id="path2159" sodipodi:cx="163.72389" sodipodi:cy="705.23944" sodipodi:rx="132.80608" sodipodi:ry="61.835632" sodipodi:type="arc" class="st19" d="
		M140,268.8c0.1,3.4-6.3,6.1-14.2,6.1s-14.4-2.7-14.5-6c0,0,0-0.1,0-0.1c-0.1-3.4,6.3-6.1,14.2-6.1s14.4,2.7,14.5,6
		C140,268.8,140,268.8,140,268.8z"/>
	
		<linearGradient id="path2169_1_" gradientUnits="userSpaceOnUse" x1="66.8964" y1="-841.5906" x2="73.8567" y2="-807.2316" gradientTransform="matrix(1.0722 -0.1977 0.9429 0.421 881.0449 621.8949)">
		<stop  offset="0" style="stop-color:#6B52CF;stop-opacity:0.7647"/>
		<stop  offset="0.4815" style="stop-color:#3B4CE1;stop-opacity:0.5773"/>
		<stop  offset="1" style="stop-color:#0E5EF6;stop-opacity:0"/>
	</linearGradient>
	
		<path id="path2169" sodipodi:cx="163.72389" sodipodi:cy="705.23944" sodipodi:rx="132.80608" sodipodi:ry="61.835632" sodipodi:type="arc" class="st20" d="
		M202.9,256.9c-11-5-30.2-7.2-43-4.9c-12.7,2.3-14.1,8.2-3.1,13.2c0.1,0.1,0.2,0.1,0.3,0.2c11,5,30.2,7.2,43,4.9
		c12.7-2.3,14.1-8.2,3.1-13.2C203.2,257,203,257,202.9,256.9z"/>
	
		<radialGradient id="path2181_1_" cx="-228.5123" cy="189.4241" r="19.8101" gradientTransform="matrix(1.2517 0.1084 2.178980e-02 -0.2517 465.4942 336.0961)" gradientUnits="userSpaceOnUse">
		<stop  offset="0" style="stop-color:#6B52CF;stop-opacity:0.7647"/>
		<stop  offset="0.4815" style="stop-color:#3B4CE1;stop-opacity:0.5773"/>
		<stop  offset="1" style="stop-color:#0E5EF6;stop-opacity:0"/>
	</radialGradient>
	
		<path id="path2181" sodipodi:cx="163.72389" sodipodi:cy="705.23944" sodipodi:rx="132.80608" sodipodi:ry="61.835632" sodipodi:type="arc" class="st21" d="
		M215.1,266.8c-0.1,3-12.2,4.4-27,3.1c-14.8-1.3-26.6-4.7-26.5-7.7c0,0,0-0.1,0-0.1c0.1-3,12.2-4.4,27-3.1
		C203.4,260.3,215.2,263.7,215.1,266.8C215.1,266.7,215.1,266.7,215.1,266.8z"/>
	
		<linearGradient id="path2341_1_" gradientUnits="userSpaceOnUse" x1="94.7268" y1="171.8258" x2="103.6321" y2="185.4488" gradientTransform="matrix(0.971 -2.228800e-02 -0.2858 -0.5923 79.3473 374.7828)">
		<stop  offset="0" style="stop-color:#3B6B0B"/>
		<stop  offset="1" style="stop-color:#30F213"/>
	</linearGradient>
	<path id="path2341" sodipodi:nodetypes="cccc" class="st22" d="M122.3,271.5c0.4-4.8,1.4-7.9,4.1-10.1c-1.7,2.8-2.1,5.2-2.6,10.3
		C122.5,271.6,123.7,271.6,122.3,271.5z"/>
	
		<linearGradient id="path2345_1_" gradientUnits="userSpaceOnUse" x1="71.9127" y1="28.5743" x2="80.818" y2="42.1973" gradientTransform="matrix(0.9476 -3.740000e-02 -0.2789 -0.9938 56.5104 300.2633)">
		<stop  offset="0" style="stop-color:#3B6B0B"/>
		<stop  offset="1" style="stop-color:#30F213"/>
	</linearGradient>
	<path id="path2345" sodipodi:nodetypes="cccc" class="st23" d="M117.6,270.7c0.4-8-2-10.8,1.6-16.2c-2.1,6.1,0.4,7.9-0.1,16.4
		C117.8,270.8,118.9,270.8,117.6,270.7L117.6,270.7z"/>
	
		<radialGradient id="path2228_1_" cx="-84.7216" cy="315.7377" r="19.8101" gradientTransform="matrix(1.2517 0.1084 2.178980e-02 -0.2517 226.4542 357.2961)" gradientUnits="userSpaceOnUse">
		<stop  offset="0" style="stop-color:#6B52CF;stop-opacity:0.7647"/>
		<stop  offset="0.4815" style="stop-color:#3B4CE1;stop-opacity:0.5773"/>
		<stop  offset="1" style="stop-color:#0E5EF6;stop-opacity:0"/>
	</radialGradient>
	
		<path id="path2228" sodipodi:cx="163.72389" sodipodi:cy="705.23944" sodipodi:rx="132.80608" sodipodi:ry="61.835632" sodipodi:type="arc" class="st24" d="
		M158.8,271.8c-0.1,3-12.2,4.4-27,3.1c-14.8-1.3-26.6-4.7-26.5-7.7c0,0,0-0.1,0-0.1c0.1-3,12.2-4.4,27-3.1
		C147.1,265.3,158.9,268.7,158.8,271.8C158.8,271.7,158.8,271.7,158.8,271.8z"/>
	
		<linearGradient id="path2337_1_" gradientUnits="userSpaceOnUse" x1="41.936" y1="24.8616" x2="50.8414" y2="38.4846" gradientTransform="matrix(0.971 -3.833100e-02 -0.2858 -1.0186 91.4661 296.7266)">
		<stop  offset="0" style="stop-color:#3B6B0B"/>
		<stop  offset="1" style="stop-color:#30F213"/>
	</linearGradient>
	<path id="path2337" sodipodi:nodetypes="cccc" class="st25" d="M125.2,270.9c0.4-8.2,1.4-13.5,4.1-17.4c-1.7,4.7-2.1,9-2.6,17.6
		C125.4,271,126.5,271,125.2,270.9z"/>
	
		<radialGradient id="path2232_1_" cx="-91.0555" cy="202.6899" r="19.8101" gradientTransform="matrix(1.2591 -1.091285e-02 6.806883e-03 -0.2889 246.8622 329.3331)" gradientUnits="userSpaceOnUse">
		<stop  offset="0" style="stop-color:#6B52CF;stop-opacity:0.7647"/>
		<stop  offset="0.4815" style="stop-color:#3B4CE1;stop-opacity:0.5773"/>
		<stop  offset="1" style="stop-color:#0E5EF6;stop-opacity:0"/>
	</radialGradient>
	
		<path id="path2232" sodipodi:cx="163.72389" sodipodi:cy="705.23944" sodipodi:rx="132.80608" sodipodi:ry="61.835632" sodipodi:type="arc" class="st26" d="
		M165.3,271.9c0,3.4-11.9,6.3-26.8,6.4c-14.8,0.2-26.9-2.5-27-5.9c0,0,0-0.1,0-0.1c0-3.4,11.9-6.3,26.8-6.4
		c14.8-0.2,26.9,2.5,27,5.9C165.3,271.9,165.3,271.9,165.3,271.9z"/>
	
		<radialGradient id="path2244_1_" cx="-61.6899" cy="-317.8949" r="3.5347" gradientTransform="matrix(1.8119 -4.543000e-02 -1.253200e-02 -0.4998 199.3019 96.3861)" gradientUnits="userSpaceOnUse">
		<stop  offset="0" style="stop-color:#FFFF49"/>
		<stop  offset="0.8518" style="stop-color:#FFFB69;stop-opacity:0.498"/>
		<stop  offset="1" style="stop-color:#FFF889;stop-opacity:0"/>
	</radialGradient>
	
		<path id="path2244" sodipodi:cx="146.31845" sodipodi:cy="572.13751" sodipodi:rx="30.014042" sodipodi:ry="7.5035105" sodipodi:type="arc" class="st27" d="
		M97.9,257.9c0,1-2.8,1.8-6.4,1.9c-3.5,0.1-6.4-0.6-6.4-1.6c0-1,2.8-1.8,6.4-1.9S97.9,257,97.9,257.9z"/>
	
		<radialGradient id="path2262_1_" cx="-37.5223" cy="-158.855" r="3.5347" gradientTransform="matrix(1.431 -3.163800e-02 -9.897500e-03 -0.3481 150.279 203.5406)" gradientUnits="userSpaceOnUse">
		<stop  offset="0" style="stop-color:#FFFF49"/>
		<stop  offset="0.8518" style="stop-color:#FFFB69;stop-opacity:0.498"/>
		<stop  offset="1" style="stop-color:#FFF889;stop-opacity:0"/>
	</radialGradient>
	
		<path id="path2262" sodipodi:cx="146.31845" sodipodi:cy="572.13751" sodipodi:rx="30.014042" sodipodi:ry="7.5035105" sodipodi:type="arc" class="st28" d="
		M103.2,259.9c0,0.7-2.2,1.3-5,1.3c-2.8,0.1-5.1-0.4-5.1-1.1c0-0.7,2.2-1.3,5-1.3C100.9,258.7,103.2,259.2,103.2,259.9z"/>
	
		<radialGradient id="path2266_1_" cx="-26.4486" cy="-147.2998" r="3.5347" gradientTransform="matrix(1.431 -3.163800e-02 -9.897500e-03 -0.3481 129.7 209.2606)" gradientUnits="userSpaceOnUse">
		<stop  offset="0" style="stop-color:#FFFF49"/>
		<stop  offset="0.8518" style="stop-color:#FFFB69;stop-opacity:0.498"/>
		<stop  offset="1" style="stop-color:#FFF889;stop-opacity:0"/>
	</radialGradient>
	
		<path id="path2266" sodipodi:cx="146.31845" sodipodi:cy="572.13751" sodipodi:rx="30.014042" sodipodi:ry="7.5035105" sodipodi:type="arc" class="st29" d="
		M98.4,261.3c0,0.7-2.2,1.3-5,1.3c-2.8,0.1-5.1-0.4-5.1-1.1c0-0.7,2.2-1.3,5-1.3S98.3,260.6,98.4,261.3z"/>
	
		<radialGradient id="path2270_1_" cx="24.0333" cy="33.8186" r="3.5347" gradientTransform="matrix(0.974 2.160400e-02 6.219000e-03 -0.2722 77.2316 270.5995)" gradientUnits="userSpaceOnUse">
		<stop  offset="0" style="stop-color:#FFFF49"/>
		<stop  offset="0.8518" style="stop-color:#FFFB69;stop-opacity:0.498"/>
		<stop  offset="1" style="stop-color:#FFF889;stop-opacity:0"/>
	</radialGradient>
	
		<path id="path2270" sodipodi:cx="146.31845" sodipodi:cy="572.13751" sodipodi:rx="30.014042" sodipodi:ry="7.5035105" sodipodi:type="arc" class="st30" d="
		M104.3,262c0,0.5-1.6,0.9-3.5,0.9c-1.9,0-3.4-0.5-3.4-1c0-0.5,1.6-0.9,3.5-0.9C102.8,261,104.3,261.5,104.3,262z"/>
	
		<radialGradient id="path2274_1_" cx="27.516" cy="50.1566" r="3.5347" gradientTransform="matrix(0.974 2.160400e-02 6.219000e-03 -0.2722 72.6616 276.3195)" gradientUnits="userSpaceOnUse">
		<stop  offset="0" style="stop-color:#FFFF49"/>
		<stop  offset="0.8518" style="stop-color:#FFFB69;stop-opacity:0.498"/>
		<stop  offset="1" style="stop-color:#FFF889;stop-opacity:0"/>
	</radialGradient>
	
		<path id="path2274" sodipodi:cx="146.31845" sodipodi:cy="572.13751" sodipodi:rx="30.014042" sodipodi:ry="7.5035105" sodipodi:type="arc" class="st31" d="
		M103.2,263.3c0,0.5-1.6,0.9-3.5,0.9s-3.4-0.5-3.4-1c0-0.5,1.6-0.9,3.5-0.9C101.7,262.3,103.2,262.8,103.2,263.3z"/>
	
		<radialGradient id="path2278_1_" cx="-200.5752" cy="-119.1149" r="3.5347" gradientTransform="matrix(1.1994 -2.564800e-02 -8.295500e-03 -0.2822 409.9644 213.492)" gradientUnits="userSpaceOnUse">
		<stop  offset="0" style="stop-color:#FFFF49"/>
		<stop  offset="0.8518" style="stop-color:#FFFB69;stop-opacity:0.498"/>
		<stop  offset="1" style="stop-color:#FFF889;stop-opacity:0"/>
	</radialGradient>
	
		<path id="path2278" sodipodi:cx="146.31845" sodipodi:cy="572.13751" sodipodi:rx="30.014042" sodipodi:ry="7.5035105" sodipodi:type="arc" class="st32" d="
		M174.6,252.2c0,0.6-1.9,1-4.2,1.1c-2.3,0.1-4.3-0.4-4.3-0.9c0-0.6,1.9-1,4.2-1.1C172.7,251.2,174.6,251.6,174.6,252.2z"/>
	
		<radialGradient id="path2282_1_" cx="-181.2888" cy="-39.1506" r="3.5347" gradientTransform="matrix(0.9347 -2.265400e-02 -6.465000e-03 -0.2493 334.434 239.4374)" gradientUnits="userSpaceOnUse">
		<stop  offset="0" style="stop-color:#FFFF49"/>
		<stop  offset="0.8518" style="stop-color:#FFFB69;stop-opacity:0.498"/>
		<stop  offset="1" style="stop-color:#FFF889;stop-opacity:0"/>
	</radialGradient>
	
		<path id="path2282" sodipodi:cx="146.31845" sodipodi:cy="572.13751" sodipodi:rx="30.014042" sodipodi:ry="7.5035105" sodipodi:type="arc" class="st33" d="
		M168.5,253.2c0,0.5-1.5,0.9-3.3,1c-1.8,0-3.3-0.3-3.3-0.8s1.5-0.9,3.3-1C167,252.4,168.5,252.7,168.5,253.2z"/>
	
		<radialGradient id="path2286_1_" cx="-183.5773" cy="-17.6268" r="3.5347" gradientTransform="matrix(0.9347 -2.265400e-02 -6.465000e-03 -0.2493 337.414 246.3875)" gradientUnits="userSpaceOnUse">
		<stop  offset="0" style="stop-color:#FFFF49"/>
		<stop  offset="0.8518" style="stop-color:#FFFB69;stop-opacity:0.498"/>
		<stop  offset="1" style="stop-color:#FFF889;stop-opacity:0"/>
	</radialGradient>
	
		<path id="path2286" sodipodi:cx="146.31845" sodipodi:cy="572.13751" sodipodi:rx="30.014042" sodipodi:ry="7.5035105" sodipodi:type="arc" class="st34" d="
		M169.2,254.9c0,0.5-1.5,0.9-3.3,1c-1.8,0-3.3-0.3-3.3-0.8s1.5-0.9,3.3-1C167.7,254,169.2,254.4,169.2,254.9z"/>
	
		<radialGradient id="path2290_1_" cx="-247.0589" cy="170.9069" r="3.5347" gradientTransform="matrix(0.5376 -2.265400e-02 -3.718650e-03 -0.2493 312.5002 305.9774)" gradientUnits="userSpaceOnUse">
		<stop  offset="0" style="stop-color:#FFFF49"/>
		<stop  offset="0.8518" style="stop-color:#FFFB69;stop-opacity:0.498"/>
		<stop  offset="1" style="stop-color:#FFF889;stop-opacity:0"/>
	</radialGradient>
	
		<path id="path2290" sodipodi:cx="146.31845" sodipodi:cy="572.13751" sodipodi:rx="30.014042" sodipodi:ry="7.5035105" sodipodi:type="arc" class="st35" d="
		M180.9,268.9c0,0.5-0.8,0.9-1.9,1c-1,0-1.9-0.3-1.9-0.8c0-0.5,0.8-0.9,1.9-1S180.9,268.4,180.9,268.9z"/>
	
		<radialGradient id="path2294_1_" cx="-256.1552" cy="832.2545" r="3.5347" gradientTransform="matrix(0.2585 -1.232940e-02 -1.788000e-03 -0.1357 243.9262 378.3099)" gradientUnits="userSpaceOnUse">
		<stop  offset="0" style="stop-color:#FFFF49"/>
		<stop  offset="0.8518" style="stop-color:#FFFB69;stop-opacity:0.498"/>
		<stop  offset="1" style="stop-color:#FFF889;stop-opacity:0"/>
	</radialGradient>
	
		<path id="path2294" sodipodi:cx="146.31845" sodipodi:cy="572.13751" sodipodi:rx="30.014042" sodipodi:ry="7.5035105" sodipodi:type="arc" class="st36" d="
		M177.1,268.5c0,0.3-0.4,0.5-0.9,0.5c-0.5,0-0.9-0.2-0.9-0.4c0-0.3,0.4-0.5,0.9-0.5S177.1,268.3,177.1,268.5z"/>
	
		<linearGradient id="path2298_1_" gradientUnits="userSpaceOnUse" x1="-167.8886" y1="-1593.8824" x2="-155.9424" y2="-1593.8824" gradientTransform="matrix(4.2892 0 0 -0.2331 855.2157 -104.4078)">
		<stop  offset="0" style="stop-color:#000000;stop-opacity:0"/>
		<stop  offset="0.1111" style="stop-color:#44350C;stop-opacity:0.2783"/>
		<stop  offset="1" style="stop-color:#000000;stop-opacity:0"/>
	</linearGradient>
	<path id="path2298" sodipodi:nodetypes="ccccc" class="st37" d="M135.5,266.4c11.7-0.8,42.3-1,50.6-0.4c0.5,0.7,0.2,1.1,0.2,1.7
		c-7.5-0.6-40.7-0.4-51,1.1C134.8,268.6,135.4,267.7,135.5,266.4L135.5,266.4z"/>
	
		<linearGradient id="path2315_1_" gradientUnits="userSpaceOnUse" x1="-159.5758" y1="-1568.9788" x2="-147.6297" y2="-1568.9788" gradientTransform="matrix(4.819 0 0 -0.2331 887.2643 -96.8121)">
		<stop  offset="0" style="stop-color:#000000;stop-opacity:0"/>
		<stop  offset="0.1111" style="stop-color:#44350C;stop-opacity:0.2783"/>
		<stop  offset="1" style="stop-color:#000000;stop-opacity:0"/>
	</linearGradient>
	<path id="path2315" sodipodi:nodetypes="ccccc" class="st38" d="M118.7,268.2c13.2-0.8,47.5-1,56.9-0.4c0.5,0.7,0.2,1.1,0.3,1.7
		c-8.5-0.6-45.8-0.4-57.3,1.1C117.9,270.4,118.6,269.5,118.7,268.2L118.7,268.2z"/>
	
		<linearGradient id="path2319_1_" gradientUnits="userSpaceOnUse" x1="-166.9049" y1="-1548.4348" x2="-154.9588" y2="-1548.4348" gradientTransform="matrix(4.7433 0 0 -0.2331 921.496 -90.5478)">
		<stop  offset="0" style="stop-color:#000000;stop-opacity:0"/>
		<stop  offset="0.1111" style="stop-color:#44350C;stop-opacity:0.2783"/>
		<stop  offset="1" style="stop-color:#000000;stop-opacity:0"/>
	</linearGradient>
	<path id="path2319" sodipodi:nodetypes="ccccc" class="st39" d="M130.2,269.7c13-0.8,46.8-1,56-0.4c0.5,0.7,0.2,1.1,0.2,1.7
		c-8.3-0.6-45.1-0.4-56.4,1.1C129.5,271.9,130.1,271,130.2,269.7z"/>
</g>
</svg>
