<?xml version="1.0" encoding="UTF-8" standalone="no"?>
<!-- Created with Inkscape (http://www.inkscape.org/) -->

<svg
   xmlns:dc="http://purl.org/dc/elements/1.1/"
   xmlns:cc="http://creativecommons.org/ns#"
   xmlns:rdf="http://www.w3.org/1999/02/22-rdf-syntax-ns#"
   xmlns:svg="http://www.w3.org/2000/svg"
   xmlns="http://www.w3.org/2000/svg"
   xmlns:sodipodi="http://sodipodi.sourceforge.net/DTD/sodipodi-0.dtd"
   xmlns:inkscape="http://www.inkscape.org/namespaces/inkscape"
   width="67.925186"
   height="77.02877"
   id="svg3837"
   version="1.1"
   inkscape:version="0.48.5 r10040"
   sodipodi:docname="Documento nuevo 14">
  <title
     id="title3910">Dalmatian Cartoon Dog</title>
  <defs
     id="defs3839" />
  <sodipodi:namedview
     id="base"
     pagecolor="#ffffff"
     bordercolor="#666666"
     borderopacity="1.0"
     inkscape:pageopacity="0.0"
     inkscape:pageshadow="2"
     inkscape:zoom="7.1272071"
     inkscape:cx="5.8309565"
     inkscape:cy="38.514385"
     inkscape:document-units="px"
     inkscape:current-layer="layer1"
     showgrid="false"
     fit-margin-top="0"
     fit-margin-left="0"
     fit-margin-right="0"
     fit-margin-bottom="0"
     inkscape:window-width="1366"
     inkscape:window-height="724"
     inkscape:window-x="0"
     inkscape:window-y="22"
     inkscape:window-maximized="1" />
  <metadata
     id="metadata3842">
    <rdf:RDF>
      <cc:Work
         rdf:about="">
        <dc:format>image/svg+xml</dc:format>
        <dc:type
           rdf:resource="http://purl.org/dc/dcmitype/StillImage" />
        <cc:license
           rdf:resource="http://creativecommons.org/licenses/publicdomain/" />
        <dc:title>Dalmatian Cartoon Dog</dc:title>
        <dc:creator>
          <cc:Agent>
            <dc:title>Luis Alejandro Bernal Romero (Aztlek)</dc:title>
          </cc:Agent>
        </dc:creator>
        <dc:rights>
          <cc:Agent>
            <dc:title>Public domain</dc:title>
          </cc:Agent>
        </dc:rights>
        <dc:subject>
          <rdf:Bag>
            <rdf:li>animal</rdf:li>
            <rdf:li>white</rdf:li>
            <rdf:li>cartoon</rdf:li>
            <rdf:li>colour</rdf:li>
            <rdf:li>dog</rdf:li>
            <rdf:li>how i did it</rdf:li>
            <rdf:li>mammal</rdf:li>
            <rdf:li>dalmatian</rdf:li>
          </rdf:Bag>
        </dc:subject>
        <dc:description>Dalmatian cartoon dog</dc:description>
      </cc:Work>
      <cc:License
         rdf:about="http://creativecommons.org/licenses/publicdomain/">
        <cc:permits
           rdf:resource="http://creativecommons.org/ns#Reproduction" />
        <cc:permits
           rdf:resource="http://creativecommons.org/ns#Distribution" />
        <cc:permits
           rdf:resource="http://creativecommons.org/ns#DerivativeWorks" />
      </cc:License>
    </rdf:RDF>
  </metadata>
  <g
     inkscape:label="Capa 1"
     inkscape:groupmode="layer"
     id="layer1"
     transform="translate(188.25097,306.15583)">
    <g
       id="g4021"
       transform="matrix(0.68868559,0,0,-0.68868559,-442.90144,212.12406)">
      <path
         inkscape:connector-curvature="0"
         id="path10650"
         style="fill:#cccccc;fill-rule:evenodd;stroke:#000000;stroke-width:0.80588299;stroke-linejoin:round;stroke-miterlimit:4;stroke-dasharray:none"
         d="m 417.84307,726.63371 c 0.50706,10.31026 13.18361,25.35309 15.38087,25.52211 2.19727,0.16902 -4.73257,-23.8319 -6.5918,-25.52211 -1.85922,-1.69021 -8.62005,-0.50705 -8.78907,0 z" />
      <path
         inkscape:connector-curvature="0"
         id="path10652"
         style="fill:#e6e6e6;stroke:#000000;stroke-width:0.80588299;stroke-linecap:round;stroke-linejoin:round;stroke-miterlimit:4;stroke-dasharray:none"
         d="m 460.69252,688.67569 a 41.709074,41.709074 0 1 0 -83.41447,0 41.709074,41.709074 0 1 0 83.41447,0 z" />
      <path
         inkscape:connector-curvature="0"
         id="path10654"
         style="fill:#cccccc;stroke:#000000;stroke-width:0.80588299;stroke-linecap:round;stroke-linejoin:round;stroke-miterlimit:4;stroke-dasharray:none"
         d="m 447.39463,648.13381 c 0,-7.2814 -5.90896,-7.02111 -13.19375,-7.02111 -7.2814,0 -13.19374,-0.26029 -13.19374,7.02111 0,7.28478 5.91234,13.19374 13.19374,13.19374 7.28479,0 13.19375,-5.90896 13.19375,-13.19374 z" />
      <path
         transform="matrix(0.681962,-0.23188526,-0.23188526,-0.681962,47.943964,1268.8898)"
         d="m 735.08255,640.50842 c 0,4.37146 -2.6193,7.91522 -5.85037,7.91522 -3.23108,0 -5.85038,-3.54376 -5.85038,-7.91522 0,-4.37145 2.6193,-7.91521 5.85038,-7.91521 3.23107,0 5.85037,3.54376 5.85037,7.91521 z"
         sodipodi:ry="7.915215"
         sodipodi:rx="5.8503761"
         sodipodi:cy="640.50842"
         sodipodi:cx="729.23218"
         id="path10704"
         style="fill:#000000;fill-opacity:1;fill-rule:nonzero;stroke:#000000;stroke-width:1.1188041;stroke-linecap:round;stroke-linejoin:miter;stroke-miterlimit:4;stroke-opacity:1;stroke-dasharray:none;stroke-dashoffset:0"
         sodipodi:type="arc" />
      <path
         inkscape:connector-curvature="0"
         id="path10656"
         style="fill:#cccccc;stroke:#000000;stroke-width:0.80588299;stroke-linecap:round;stroke-linejoin:round;stroke-miterlimit:4;stroke-dasharray:none"
         d="m 416.96416,648.13381 c 0,-7.2814 -5.90895,-7.02111 -13.19374,-7.02111 -4.04973,0 -7.67354,-0.0811 -10.0939,1.09863 -1.9336,0.94313 -3.09984,2.69081 -3.09984,5.92248 0,7.28478 5.91233,13.19374 13.19374,13.19374 7.28479,0 13.19374,-5.90896 13.19374,-13.19374 z" />
      <path
         d="m 408.62469,642.17698 c 1.18315,3.83001 -0.16902,8.29892 -0.16902,8.29892"
         style="fill:none;stroke:#000000;stroke-width:0.80588299;stroke-linecap:round;stroke-miterlimit:4;stroke-dasharray:none"
         id="path10658"
         inkscape:connector-curvature="0" />
      <path
         d="m 402.52981,641.32512 c -1.4502,6.16925 0.20959,11.06409 0.20959,11.06409"
         style="fill:none;stroke:#000000;stroke-width:0.80588299;stroke-linecap:round;stroke-miterlimit:4;stroke-dasharray:none"
         id="path10660"
         inkscape:connector-curvature="0" />
      <path
         d="m 396.36056,641.96402 c -2.97814,4.68186 -0.42593,8.51188 -0.42593,8.51188"
         style="fill:none;stroke:#000000;stroke-width:0.80588299;stroke-linecap:round;stroke-miterlimit:4;stroke-dasharray:none"
         id="path10662"
         inkscape:connector-curvature="0" />
      <path
         sodipodi:type="arc"
         style="fill:#000000;fill-opacity:1;fill-rule:nonzero;stroke:#000000;stroke-width:1.27402878;stroke-linecap:round;stroke-linejoin:miter;stroke-miterlimit:4;stroke-opacity:1;stroke-dasharray:none;stroke-dashoffset:0"
         id="path10710"
         sodipodi:cx="729.23218"
         sodipodi:cy="640.50842"
         sodipodi:rx="5.8503761"
         sodipodi:ry="7.915215"
         d="m 735.08255,640.50842 c 0,4.37146 -2.6193,7.91522 -5.85037,7.91522 -3.23108,0 -5.85038,-3.54376 -5.85038,-7.91522 0,-4.37145 2.6193,-7.91521 5.85038,-7.91521 3.23107,0 5.85037,3.54376 5.85037,7.91521 z"
         transform="matrix(0.62889977,-0.08435957,-0.0687461,-0.6269938,-25.26274,1144.6759)" />
      <path
         transform="matrix(0.593249,0.08767562,0.10609835,-0.55702453,-48.325532,981.20677)"
         d="m 735.08255,640.50842 c 0,4.37146 -2.6193,7.91522 -5.85037,7.91522 -3.23108,0 -5.85038,-3.54376 -5.85038,-7.91522 0,-4.37145 2.6193,-7.91521 5.85038,-7.91521 3.23107,0 5.85037,3.54376 5.85037,7.91521 z"
         sodipodi:ry="7.915215"
         sodipodi:rx="5.8503761"
         sodipodi:cy="640.50842"
         sodipodi:cx="729.23218"
         id="path10712"
         style="fill:#000000;fill-opacity:1;fill-rule:nonzero;stroke:#000000;stroke-width:1.38257313;stroke-linecap:round;stroke-linejoin:miter;stroke-miterlimit:4;stroke-opacity:1;stroke-dasharray:none;stroke-dashoffset:0"
         sodipodi:type="arc" />
      <path
         d="m 429.71261,642.17698 c -1.18314,3.83001 0.16903,8.29892 0.16903,8.29892"
         style="fill:none;stroke:#000000;stroke-width:0.80588299;stroke-linecap:round;stroke-miterlimit:4;stroke-dasharray:none"
         id="path10676"
         inkscape:connector-curvature="0" />
      <path
         d="m 435.8075,641.32512 c 1.45019,6.16925 -0.20959,11.06409 -0.20959,11.06409"
         style="fill:none;stroke:#000000;stroke-width:0.80588299;stroke-linecap:round;stroke-miterlimit:4;stroke-dasharray:none"
         id="path10678"
         inkscape:connector-curvature="0" />
      <path
         d="m 441.97675,641.96402 c 2.97813,4.68186 0.42593,8.51188 0.42593,8.51188"
         style="fill:none;stroke:#000000;stroke-width:0.80588299;stroke-linecap:round;stroke-miterlimit:4;stroke-dasharray:none"
         id="path10680"
         inkscape:connector-curvature="0" />
      <path
         inkscape:connector-curvature="0"
         id="path10664"
         style="fill:#e6e6e6;stroke:#000000;stroke-width:0.80588299;stroke-linecap:round;stroke-linejoin:round;stroke-miterlimit:4;stroke-dasharray:none"
         d="m 451.23091,699.82336 a 32.244782,32.244782 0 1 0 -64.48672,0 32.244782,32.244782 0 1 0 64.48672,0 z" />
      <path
         sodipodi:type="arc"
         style="fill:#000000;fill-opacity:1;fill-rule:nonzero;stroke:#000000;stroke-width:1.38257313;stroke-linecap:round;stroke-linejoin:miter;stroke-miterlimit:4;stroke-opacity:1;stroke-dasharray:none;stroke-dashoffset:0"
         id="path10706"
         sodipodi:cx="729.23218"
         sodipodi:cy="640.50842"
         sodipodi:rx="5.8503761"
         sodipodi:ry="7.915215"
         d="m 735.08255,640.50842 c 0,4.37146 -2.6193,7.91522 -5.85037,7.91522 -3.23108,0 -5.85038,-3.54376 -5.85038,-7.91522 0,-4.37145 2.6193,-7.91521 5.85038,-7.91521 3.23107,0 5.85037,3.54376 5.85037,7.91521 z"
         transform="matrix(0.593249,0.08767562,0.10609835,-0.55702453,-54.821412,961.51612)" />
      <path
         inkscape:connector-curvature="0"
         id="path10666"
         style="fill:#ffffff;stroke:#000000;stroke-width:0.80588299;stroke-linecap:round;stroke-linejoin:round;stroke-miterlimit:4;stroke-dasharray:none"
         d="m 417.59284,705.91653 a 9.256988,9.256988 0 1 0 -18.51316,0 9.256988,9.256988 0 1 0 18.51316,0 z" />
      <path
         inkscape:connector-curvature="0"
         id="path10668"
         style="fill:#ffffff;stroke:#000000;stroke-width:0.80588299;stroke-linecap:round;stroke-linejoin:round;stroke-miterlimit:4;stroke-dasharray:none"
         d="m 439.0855,705.91653 a 9.256988,9.256988 0 1 0 -18.51315,0 9.256988,9.256988 0 1 0 18.51315,0 z" />
      <path
         inkscape:connector-curvature="0"
         id="path10670"
         style="fill:#000000;stroke-width:0.55500001;stroke-miterlimit:4;stroke-dasharray:none"
         d="m 413.97588,704.85415 a 2.8728426,2.8728426 0 1 0 -5.74543,0 2.8728426,2.8728426 0 1 0 5.74543,0 z" />
      <path
         inkscape:connector-curvature="0"
         id="path10672"
         style="fill:#000000;stroke-width:0.55500001;stroke-miterlimit:4;stroke-dasharray:none"
         d="m 429.72184,704.85415 a 2.8728426,2.8728426 0 1 0 -5.74543,0 2.8728426,2.8728426 0 1 0 5.74543,0 z" />
      <path
         inkscape:connector-curvature="0"
         id="path10674"
         style="fill:#000000;stroke-width:0.55500001;stroke-miterlimit:4;stroke-dasharray:none"
         d="m 427.555,684.1318 c 0,-4.65482 -5.09767,-8.43412 -8.4747,-8.43412 -3.63394,0 -8.4713,3.7793 -8.4713,8.43412 0,4.65821 3.7962,5.84136 8.4713,5.84136 4.67849,0 8.4747,-1.18315 8.4747,-5.84136 z" />
      <path
         inkscape:connector-curvature="0"
         id="path10682"
         style="fill:#cccccc;fill-rule:evenodd;stroke:#000000;stroke-width:0.80588299;stroke-linejoin:round;stroke-miterlimit:4;stroke-dasharray:none"
         d="m 396.27944,723.08429 c -18.56523,1.31159 -28.23658,-21.05997 -25.70128,-27.65177 2.06205,-5.35795 13.45066,-10.76323 12.99093,-5.84811 -1.49077,15.94877 18.50099,33.09084 12.71035,33.49988 z" />
      <path
         inkscape:connector-curvature="0"
         id="path10684"
         style="fill:#cccccc;fill-rule:evenodd;stroke:#000000;stroke-width:0.80588299;stroke-linejoin:round;stroke-miterlimit:4;stroke-dasharray:none"
         d="m 441.88456,723.08429 c 18.56521,1.31159 28.23656,-21.05997 25.70127,-27.65177 -2.06206,-5.35795 -13.45066,-10.76323 -12.99092,-5.84811 1.49075,15.94877 -18.50099,33.09084 -12.71035,33.49988 z" />
      <path
         transform="matrix(0.49209793,0.07364304,0.08800821,-0.46787213,-36.663676,942.15226)"
         d="m 735.08255,640.50842 c 0,4.37146 -2.6193,7.91522 -5.85037,7.91522 -3.23108,0 -5.85038,-3.54376 -5.85038,-7.91522 0,-4.37145 2.6193,-7.91521 5.85038,-7.91521 3.23107,0 5.85037,3.54376 5.85037,7.91521 z"
         sodipodi:ry="7.915215"
         sodipodi:rx="5.8503761"
         sodipodi:cy="640.50842"
         sodipodi:cx="729.23218"
         id="path10708"
         style="fill:#000000;fill-opacity:1;fill-rule:nonzero;stroke:#000000;stroke-width:1.65635884;stroke-linecap:round;stroke-linejoin:miter;stroke-miterlimit:4;stroke-opacity:1;stroke-dasharray:none;stroke-dashoffset:0"
         sodipodi:type="arc" />
      <path
         sodipodi:type="arc"
         style="fill:#000000;fill-opacity:1;fill-rule:nonzero;stroke:#000000;stroke-width:1.65635884;stroke-linecap:round;stroke-linejoin:miter;stroke-miterlimit:4;stroke-opacity:1;stroke-dasharray:none;stroke-dashoffset:0"
         id="path10714"
         sodipodi:cx="729.23218"
         sodipodi:cy="640.50842"
         sodipodi:rx="5.8503761"
         sodipodi:ry="7.915215"
         d="m 735.08255,640.50842 c 0,4.37146 -2.6193,7.91522 -5.85037,7.91522 -3.23108,0 -5.85038,-3.54376 -5.85038,-7.91522 0,-4.37145 2.6193,-7.91521 5.85038,-7.91521 3.23107,0 5.85037,3.54376 5.85037,7.91521 z"
         transform="matrix(0.49209793,0.07364304,0.08800821,-0.46787213,34.791012,961.63991)" />
      <path
         transform="matrix(0.41702677,-0.2714265,-0.24460464,-0.40843402,284.30699,1182.107)"
         d="m 735.08255,640.50842 c 0,4.37146 -2.6193,7.91522 -5.85037,7.91522 -3.23108,0 -5.85038,-3.54376 -5.85038,-7.91522 0,-4.37145 2.6193,-7.91521 5.85038,-7.91521 3.23107,0 5.85037,3.54376 5.85037,7.91521 z"
         sodipodi:ry="7.915215"
         sodipodi:rx="5.8503761"
         sodipodi:cy="640.50842"
         sodipodi:cx="729.23218"
         id="path10716"
         style="fill:#000000;fill-opacity:1;fill-rule:nonzero;stroke:#000000;stroke-width:1.65635884;stroke-linecap:round;stroke-linejoin:miter;stroke-miterlimit:4;stroke-opacity:1;stroke-dasharray:none;stroke-dashoffset:0"
         sodipodi:type="arc" />
      <path
         inkscape:transform-center-y="-24.207663"
         inkscape:transform-center-x="7.0282712"
         sodipodi:type="arc"
         style="fill:#000000;fill-opacity:1;fill-rule:nonzero;stroke:#000000;stroke-width:2.0610888;stroke-linecap:round;stroke-linejoin:miter;stroke-miterlimit:4;stroke-opacity:1;stroke-dasharray:none;stroke-dashoffset:0"
         id="path10718"
         sodipodi:cx="729.23218"
         sodipodi:cy="640.50842"
         sodipodi:rx="5.8503761"
         sodipodi:ry="7.915215"
         d="m 735.08255,640.50842 c 0,4.37146 -2.6193,7.91522 -5.85037,7.91522 -3.23108,0 -5.85038,-3.54376 -5.85038,-7.91522 0,-4.37145 2.6193,-7.91521 5.85038,-7.91521 3.23107,0 5.85037,3.54376 5.85037,7.91521 z"
         transform="matrix(0.33549071,-0.21789699,-0.19678014,-0.32788451,323.48652,1061.74)" />
      <path
         sodipodi:type="arc"
         style="fill:#000000;fill-opacity:1;fill-rule:nonzero;stroke:#000000;stroke-width:2.00999236;stroke-linecap:round;stroke-linejoin:miter;stroke-miterlimit:4;stroke-opacity:1;stroke-dasharray:none;stroke-dashoffset:0"
         id="path10720"
         sodipodi:cx="729.23218"
         sodipodi:cy="640.50842"
         sodipodi:rx="5.8503761"
         sodipodi:ry="7.915215"
         d="m 735.08255,640.50842 c 0,4.37146 -2.6193,7.91522 -5.85037,7.91522 -3.23108,0 -5.85038,-3.54376 -5.85038,-7.91522 0,-4.37145 2.6193,-7.91521 5.85038,-7.91521 3.23107,0 5.85037,3.54376 5.85037,7.91521 z"
         transform="matrix(0.35034293,-0.1702596,-0.12690586,-0.39716692,253.3865,1121.4158)" />
      <path
         transform="matrix(0.30301166,0.01635812,0.0659188,-0.32016089,133.03325,883.32759)"
         d="m 735.08255,640.50842 c 0,4.37146 -2.6193,7.91522 -5.85037,7.91522 -3.23108,0 -5.85038,-3.54376 -5.85038,-7.91522 0,-4.37145 2.6193,-7.91521 5.85038,-7.91521 3.23107,0 5.85037,3.54376 5.85037,7.91521 z"
         sodipodi:ry="7.915215"
         sodipodi:rx="5.8503761"
         sodipodi:cy="640.50842"
         sodipodi:cx="729.23218"
         id="path10722"
         style="fill:#000000;fill-opacity:1;fill-rule:nonzero;stroke:#000000;stroke-width:2.57310724;stroke-linecap:round;stroke-linejoin:miter;stroke-miterlimit:4;stroke-opacity:1;stroke-dasharray:none;stroke-dashoffset:0"
         sodipodi:type="arc" />
      <path
         sodipodi:type="arc"
         style="fill:#000000;fill-opacity:1;fill-rule:nonzero;stroke:#000000;stroke-width:1.11566901;stroke-linecap:round;stroke-linejoin:miter;stroke-miterlimit:4;stroke-opacity:1;stroke-dasharray:none;stroke-dashoffset:0"
         id="path10724"
         sodipodi:cx="729.23218"
         sodipodi:cy="640.50842"
         sodipodi:rx="5.8503761"
         sodipodi:ry="7.915215"
         d="m 735.08255,640.50842 c 0,4.37146 -2.6193,7.91522 -5.85037,7.91522 -3.23108,0 -5.85038,-3.54376 -5.85038,-7.91522 0,-4.37145 2.6193,-7.91521 5.85038,-7.91521 3.23107,0 5.85037,3.54376 5.85037,7.91521 z"
         transform="matrix(0.62647062,-0.42276278,-0.30062881,-0.6299871,121.78359,1425.6441)" />
    </g>
  </g>
</svg>
