<?xml version="1.0" encoding="utf-8"?>
<!-- Generator: Adobe Illustrator 16.0.4, SVG Export Plug-In . SVG Version: 6.00 Build 0)  -->
<!DOCTYPE svg PUBLIC "-//W3C//DTD SVG 1.1//EN" "http://www.w3.org/Graphics/SVG/1.1/DTD/svg11.dtd">
<svg version="1.1" id="Layer_1" xmlns="http://www.w3.org/2000/svg" xmlns:xlink="http://www.w3.org/1999/xlink" x="0px" y="0px"
	 width="170px" height="170px" viewBox="0 0 170 170" enable-background="new 0 0 170 170" xml:space="preserve">
<title>Artboard 9</title>
<g>
	<path fill="#5BA43B" d="M126.531,84.649c-1.908,0.749-4.038,0.966-6.098,0.827c-5.598-0.377-10.906-2.775-16.32-4.054
		c-10.646-2.515-22.137-1.294-32.016,3.403c-7.332,3.485-13.692,8.759-20.974,12.349c-10.74,5.295-23.355,6.682-34.988,3.842
		c-3.15-0.769-6.377-1.934-8.511-4.375c-2.133-2.439-2.733-6.476-0.538-8.861c-3.725,2.438-3.845,8.258-1.271,11.892
		c2.573,3.632,6.966,5.486,11.251,6.698c8.155,2.306,16.783,2.92,25.183,1.792c4.109-0.552,8.171-1.515,12.312-1.716
		c4.141-0.202,8.762-0.291,11.354,2.945c11.208,13.995,30.495,15.498,45.825,7.76c12.781-6.45,26.039-17.592,31.545-30.992
		c3.051-7.427,4.219-15.607,3.449-23.595c-0.504-5.199-1.141-15.924-7.146-18.028c-6.987-2.449-14.493-3.418-21.875-2.824
		c-2.487,0.2-5.034,0.6-7.185,1.867c-2.151,1.268-3.842,3.572-3.75,6.067c7.572,0.218,15.107,1.582,22.273,4.033
		c-6.924,1.133-13.744,0.817-20.307-1.667c1.122,2.954,4.443,5.097,7.537,5.736c3.975,0.821,8.145,0.239,12.045,1.469
		c2.377,0.75,4.628,2.249,5.727,4.486c1.805,3.684,0.414,9.527-0.824,13.21c-0.894,2.659-2.443,5.185-4.778,6.741
		C127.85,84.056,127.203,84.385,126.531,84.649z"/>
	<path fill="#4B8D3A" d="M111.738,117.148c0.479-0.24,0.961-0.504,1.441-0.758c-1.808,4.111-4.539,7.819-7.986,10.699
		c1.697,8.049,1.39,16.41-0.659,24.376c4.084,0.976,8.157,3.874,10.761,7.363c0.596,0.797,0.167,1.942-0.807,2.149
		c-1.246,0.265-2.491,0.528-3.738,0.793c-1.374,0.291-2.768-0.338-3.488-1.541c-1.42-2.373-3.711-4.797-5.959-6.711
		c-0.746-0.636-1.148-1.58-1.111-2.559c0.312-7.941-1.409-15.957-4.969-23.062c-0.934-1.863-2.021-3.787-1.929-5.868
		c0.004-0.085,0.022-0.163,0.031-0.246C99.596,121.674,105.949,120.072,111.738,117.148z"/>
	<path fill="#4B8D3A" d="M135.646,98.518c0.021,0.053,0.043,0.104,0.062,0.154c0.832,2.232,1.478,4.562,2.612,6.646
		c2.08,0.008,4.199-0.539,6.218-1.151c2.899-0.88,5.896-1.882,8.896-1.463c2.89,0.401,7.783,6.051,7.043,6.667
		c-0.334,0.295-2.014-1.428-3.412-2.557c-0.578-0.467-1.816-1.049-1.699-0.981c2.031,1.401,2.869,2.737,3.926,4.968
		c0.077,0.162,0.146,0.368,0.034,0.508c-0.147,0.184-0.441,0.072-0.63-0.067c-0.858-0.64-1.371-1.623-1.997-2.489
		c-0.369-0.511-0.962-1.118-1.404-1.557c0.421,0.535,0.651,1.193,1.017,2.109c0.438,1.098,1.099,3.399,0.537,3.437
		c-0.439,0.172-0.83-1.063-1.029-1.728c-0.625-2.078-1.73-4.005-3.547-5.193c-2.892,0.02-5.776,0.646-8.416,1.826
		c-1.52,0.683-3.053,1.549-4.619,2.108c-0.536,0.414-1.355,0.487-2.022,0.259c-0.88-0.3-1.56-0.994-2.2-1.666
		c-1.445-1.51-2.889-3.047-4.111-4.732C132.58,101.99,134.173,100.29,135.646,98.518z"/>
	<path fill="#0E381D" d="M135.24,45.775c0,0,0.016,0.14,0.043,0.384c-0.01,0.196-0.027,0.495-0.153,0.835
		c-0.062,0.166-0.139,0.344-0.26,0.503c-0.111,0.163-0.252,0.318-0.407,0.451c-0.02,0.016-0.124,0.113-0.07,0.062l-0.537,0.287
		c-0.231,0.089-0.405,0.055-0.604,0.132c-0.227-0.022-0.462,0.01-0.682-0.034c-0.19-0.078-0.475-0.11-0.588-0.203
		c-0.19-0.152-0.498-0.254-0.592-0.4c-0.119-0.143-0.271-0.24-0.371-0.395c-0.09-0.159-0.19-0.298-0.278-0.426
		c-0.087-0.129-0.106-0.264-0.153-0.367c-0.087-0.212-0.158-0.387-0.158-0.387c-0.046-0.11-0.171-0.162-0.281-0.117
		c-0.088,0.037-0.141,0.127-0.131,0.219c0,0,0.015,0.15,0.041,0.414c0.024,0.129,0.021,0.302,0.084,0.477
		c0.067,0.174,0.143,0.376,0.241,0.589c0.099,0.213,0.3,0.421,0.478,0.651c0.191,0.25,0.384,0.341,0.6,0.512
		c0.309,0.224,0.592,0.25,0.906,0.377c0.312,0.078,0.646,0.064,0.973,0.09c0.338-0.064,0.732-0.158,1.001-0.283l0.522-0.312
		c0.177-0.106,0.148-0.124,0.23-0.19c0.471-0.431,0.682-0.995,0.779-1.46c0.111-0.47,0.004-0.885-0.057-1.169
		c-0.092-0.232-0.155-0.357-0.155-0.357c-0.056-0.108-0.194-0.161-0.302-0.105C135.273,45.597,135.229,45.687,135.24,45.775z"/>
	<path fill="#0E381D" d="M112.057,46.77c-0.57,0.185-1.181,0.246-1.774,0.175c0.272-0.711,0.979-1.235,1.739-1.286
		c0.261-0.018,0.566,0.046,0.677,0.282c0.083,0.18,0.012,0.402-0.128,0.545C112.434,46.631,112.244,46.709,112.057,46.77z"/>
	<g>
		<path fill="#E6E7E8" d="M124.279,53.104c-0.199,0.25-0.522,0.429-0.836,0.365c-0.34-0.069-0.574-0.401-0.639-0.74
			c-0.054-0.289-0.008-0.583,0.051-0.874c0.6,0.149,1.195,0.305,1.791,0.468C124.559,52.6,124.459,52.877,124.279,53.104z"/>
		<path fill="#E6E7E8" d="M120.497,54.283c0.015-0.413,0.05-0.946,0.22-1.197c0.221-0.327,0.721-0.498,1.021-0.239
			c0.189,0.165,0.238,0.442,0.229,0.695c-0.005,0.154-0.006,0.474,0.005,0.756C121.479,54.302,120.988,54.297,120.497,54.283z"/>
		<path fill="#E6E7E8" d="M111.714,51.495c0.272-0.167,0.647-0.153,0.906,0.036c0.243,0.179,0.372,0.482,0.405,0.783
			c0.017,0.167-0.06,0.581-0.139,0.969c-0.592-0.143-1.183-0.298-1.77-0.474C111.219,52.293,111.426,51.672,111.714,51.495z"/>
		<path fill="#E6E7E8" d="M115.762,52.685c0.18-0.359,0.553-0.654,0.952-0.609c0.386,0.044,0.679,0.392,0.783,0.766
			c0.078,0.28,0.041,0.827-0.002,1.245c-0.649-0.07-1.298-0.162-1.943-0.267C115.586,53.398,115.648,52.917,115.762,52.685z"/>
		<path fill="#E6E7E8" d="M119.675,52.251c-0.215,0.175-0.489,0.304-0.763,0.257c-0.336-0.059-0.578-0.375-0.656-0.708
			c-0.038-0.162-0.021-0.547,0.012-0.939c0.695,0.127,1.391,0.267,2.082,0.415C120.146,51.672,119.871,52.089,119.675,52.251z"/>
		<path fill="#E6E7E8" d="M110.861,50.895c-0.332,0.24-0.829,0.215-1.137-0.056c-0.19-0.168-0.279-0.645-0.271-1.068
			c0.602,0.039,1.199,0.085,1.8,0.138C111.203,50.317,111.061,50.752,110.861,50.895z"/>
		<path fill="#E6E7E8" d="M114.85,51.401c-0.203,0.318-0.602,0.545-0.961,0.433c-0.229-0.072-0.404-0.268-0.507-0.486
			c-0.103-0.218-0.142-0.459-0.179-0.697c-0.012-0.064-0.018-0.296-0.016-0.544c0.627,0.072,1.252,0.15,1.877,0.237
			C115.025,50.768,114.967,51.219,114.85,51.401z"/>
	</g>
	<path fill="#53915A" d="M130.824,41.11c2.07-0.298,4.126-1.011,5.722-2.362c1.597-1.351,2.675-3.399,2.541-5.485
		c3.05,1.365,5.922,3.036,8.696,4.897c0.695,0.466,1.242,0.939,1.877,1.485c-3.52,2.612-7.626,4.074-12.003,3.83
		c-2.507-0.14-4.953-0.774-7.415-1.264c-2.463-0.489-5.461-0.683-7.887-0.632C123.038,41.346,128.756,41.408,130.824,41.11z"/>
	<g>
		<path fill="#F15A29" d="M143.958,35.865c0.187,0.109,0.371,0.216,0.558,0.327c-2.535,3.279-6.156,5.711-10.129,6.815
			c-0.471-0.112-0.941-0.219-1.414-0.319C137.268,41.824,141.246,39.341,143.958,35.865z"/>
		<path fill="#F15A29" d="M137.374,39.507c2.054-1.236,3.622-2.931,4.501-4.808c0.188,0.101,0.378,0.2,0.564,0.303
			c-0.936,1.981-2.588,3.762-4.737,5.057c-1.968,1.186-4.171,1.883-6.179,2.345c-0.588-0.107-1.182-0.201-1.772-0.288
			C132.085,41.681,134.93,40.979,137.374,39.507z"/>
		<path fill="#F15A29" d="M146.115,37.187c0.18,0.115,0.361,0.229,0.539,0.346c-2.44,3.146-6.055,5.355-9.945,6.086
			c-0.527-0.152-1.061-0.294-1.594-0.43C139.387,42.829,143.461,40.578,146.115,37.187z"/>
	</g>
	<path fill="#53915A" d="M4.567,93.79c0.28-1.173,0.703-2.308,1.241-3.386c-0.391,2.13,0.351,4.559,1.816,6.236
		c2.133,2.44,5.361,3.605,8.511,4.375c11.633,2.838,24.248,1.452,34.988-3.843c7.281-3.59,13.642-8.862,20.974-12.349
		c9.879-4.697,21.372-5.918,32.016-3.403c5.414,1.279,10.724,3.676,16.32,4.054c2.06,0.139,4.188-0.078,6.098-0.827
		c0.672-0.264,1.316-0.593,1.921-0.996c2.335-1.556,3.886-4.082,4.778-6.741c1.238-3.684,2.629-9.527,0.824-13.21
		c-1.099-2.238-3.35-3.737-5.727-4.486c-3.9-1.229-8.07-0.647-12.045-1.469c-3.094-0.64-6.415-2.783-7.537-5.736
		c6.55,2.479,13.359,2.799,20.271,1.672c0.166,0.008,0.332,0.018,0.498,0.022c0.705-0.885,1.49-1.823,2.59-2.09
		c1.099-0.267,2.498,0.578,2.309,1.693c-0.104,0.614-0.623,1.057-0.975,1.573c-0.35,0.516-0.472,1.343,0.062,1.665
		c0.414,0.25,0.96,0.014,1.309-0.322c0.348-0.337,0.602-0.772,1.002-1.042c0.402-0.269,1.049-0.279,1.277,0.147
		c0.534,0.999-1.908,1.713-1.455,2.75c0.555,0.319,1.25,0.113,1.846-0.122c0.594-0.235,1.254-0.496,1.851-0.267
		c0.596,0.229,0.831,1.23,0.237,1.471c-0.523,0.029-1.075,0.066-1.521,0.346c-0.446,0.281-0.731,0.89-0.478,1.35
		c0.41,0.736,1.512,0.384,2.352,0.451c1.114,0.088,2.012,1.265,1.803,2.362c-0.363,0.479-1.133,0.226-1.607-0.141
		c-0.477-0.367-1.02-0.84-1.596-0.664c-0.646,0.198-0.771,1.144-0.383,1.698c0.389,0.554,1.073,0.803,1.719,1.008
		c0.645,0.205,1.332,0.425,1.758,0.95c0.427,0.526,0.408,1.462-0.206,1.749c-0.47,0.22-1.021-0.035-1.444-0.334
		c-0.423-0.3-0.849-0.667-1.365-0.694c-0.52-0.026-1.066,0.547-0.789,0.985c-0.021,0.673,1.239,1.19,1.826,1.52
		c0.588,0.33,1.258,0.594,1.633,1.152c0.377,0.558,0.205,1.53-0.461,1.627c-0.541,0.08-1.009-0.449-1.555-0.449
		c-0.71,0.001-1.104,0.937-0.852,1.601c0.252,0.665,0.891,1.088,1.492,1.466c0.602,0.379,1.24,0.799,1.498,1.462
		c0.278,0.717-0.021,1.612-0.676,2.018c-0.654,0.404-1.591,0.272-2.107-0.298c-0.271-0.3-0.476-0.727-0.871-0.809
		c-0.729-0.151-1.012,1.039-0.541,1.614c0.471,0.575,1.258,0.799,1.777,1.331c0.938,0.958,0.525,2.837-0.726,3.316
		c-1.25,0.48-2.813-0.644-2.756-1.982c-0.796,1.353-0.224,3.321,1.174,4.037c-0.621,0.586-1.74,0.509-2.278-0.155
		c0.504,0.611,1.035,1.3,1.012,2.091c-0.022,0.793-0.961,1.543-1.607,1.084c-0.12-0.832-0.549-1.912-1.38-1.781
		c-0.675,0.104-0.917,1.01-0.685,1.65c0.231,0.641,0.754,1.129,1.086,1.723c0.332,0.595,0.412,1.457-0.133,1.865
		c-0.131,0.549-0.953,0.615-1.396,0.267c-0.444-0.349-0.637-0.919-0.917-1.408c-0.282-0.487-0.786-0.956-1.339-0.845
		c-0.688,0.14-0.896,1.095-0.586,1.725c0.31,0.628,0.931,1.032,1.445,1.506c0.518,0.477,0.975,1.158,0.793,1.836
		c-0.226,0.84-1.347,1.146-2.15,0.824c-0.807-0.32-1.359-1.059-1.87-1.76c-0.478,0.63-0.293,1.527-0.021,2.271
		c0.271,0.742,0.613,1.539,0.383,2.295c-0.231,0.758-1.396,1.19-1.812,0.519c-0.007-1.394-0.806-2.756-2.019-3.44
		c-0.873,0.961-0.469,2.461-0.252,3.74c0.219,1.281-0.176,3.027-1.473,3.116c-1.318,0.091-1.926-1.604-2.012-2.923
		c-0.085-1.319-0.354-3.004-1.645-3.286c-1.052-0.229-2.033,0.799-2.186,1.862c-0.15,1.064,0.271,2.117,0.654,3.121
		c0.383,1.006,0.736,2.102,0.451,3.137c-0.289,1.035-1.498,1.873-2.455,1.384c-0.471-1.489-0.941-2.979-1.414-4.467
		c-0.668,0.405-0.803,1.321-0.733,2.102c0.07,0.78,0.267,1.591-0.001,2.325c-0.268,0.736-1.281,1.253-1.845,0.711
		c-0.716-0.688-0.113-2.369-1.079-2.597c-0.879,0.551-0.773,1.835-0.633,2.864c0.142,1.027,0.011,2.379-0.987,2.668
		c-0.999,0.289-1.873-0.871-1.92-1.91c-0.047-1.041,0.374-2.062,0.312-3.1c-0.06-1.039-0.973-2.182-1.959-1.853
		c-0.927,1.389-0.512,3.221-0.47,4.889c0.043,1.668-0.788,3.745-2.457,3.74c-1.437-0.003-2.354-1.662-2.284-3.095
		c0.068-1.436,0.775-2.752,1.121-4.146c0.76-3.061-0.396-6.511-2.849-8.495c-0.505,1.146-0.349,2.466-0.097,3.69
		c0.25,1.227,0.588,2.473,0.41,3.711c-0.18,1.238-1.043,2.488-2.285,2.639c-0.855,0.104-1.752-0.38-2.135-1.15
		c-0.383-0.773-0.224-1.78,0.379-2.396c0.09-1.727-0.992-3.229-2.254-4.406c-1.264-1.18-3.291-1.576-4.785-0.705
		c-1.831,1.066-2.293,3.451-2.641,5.543c-0.347,2.092-1,4.485-2.949,5.317c-1.766,0.753-4.073-0.438-4.48-2.313
		c-0.29-1.342,0.278-2.713,0.313-4.086c0.035-1.373-0.945-3.023-2.289-2.746c-1.054,0.218-1.529,1.498-1.443,2.572
		c0.084,1.071,0.533,2.102,0.529,3.176c-0.003,1.076-0.729,2.299-1.804,2.252c-1.153-0.051-1.735-1.477-1.629-2.625
		c0.105-1.15,0.605-2.278,0.432-3.42c-0.172-1.143-1.556-2.188-2.451-1.461c-1.193,0.969,0.049,3.616-1.405,4.11
		c-0.745,0.253-1.49-0.466-1.734-1.214c-0.244-0.748-0.211-1.575-0.536-2.291c-0.324-0.717-1.269-1.268-1.892-0.788
		c0.308,1.065,0.616,2.209,0.284,3.269c-0.332,1.061-1.589,1.9-2.57,1.381c-0.656-0.349-0.936-1.133-1.088-1.858
		c-0.152-0.729-0.254-1.511-0.735-2.077c-0.48-0.564-1.514-0.729-1.912-0.101c-0.72,0.721-0.488,1.905-0.485,2.925
		s-0.725,2.307-1.692,1.984c-0.848-0.281-0.862-1.459-0.731-2.342c0.131-0.885,0.047-2.078-0.823-2.285
		c-0.764-0.182-1.414,0.676-1.464,1.459c-0.051,0.783,0.253,1.551,0.262,2.334c0.008,0.787-0.476,1.703-1.26,1.695
		c-0.96-0.008-1.317-1.236-1.468-2.186c-0.15-0.948-0.781-2.148-1.7-1.87c-0.501-0.185-1.08,0.521-1.153,1.05
		c-0.073,0.528,0.16,1.046,0.36,1.54c0.201,0.496,0.375,1.054,0.188,1.554c-0.187,0.502-0.899,0.812-1.275,0.432
		c-0.205-0.206-0.248-0.541-0.476-0.721c-0.338-0.267-0.875,0.006-1.033,0.405c-0.157,0.397-0.054,0.851,0.05,1.267
		c-0.517,0.097-0.977-0.379-1.154-0.875c-0.176-0.496-0.182-1.043-0.386-1.526c-0.203-0.485-0.731-0.913-1.225-0.731
		c-0.359,0.562-0.188,1.286-0.136,1.95c0.053,0.662-0.162,1.493-0.812,1.629c-0.806,0.169-1.303-0.844-1.467-1.649
		c-0.164-0.807-0.55-1.832-1.372-1.783c-0.578,0.035-0.953,0.633-1.102,1.191c-0.149,0.56-0.186,1.174-0.529,1.639
		c-0.343,0.466-1.173,0.624-1.453,0.117c0.292-1.176-0.752-2.483-1.963-2.459c0.068,0.576,0.135,1.17-0.021,1.729
		c-0.156,0.559-0.593,1.08-1.168,1.154c-0.576,0.072-1.196-0.477-1.05-1.039c0.143-0.547-0.184-0.899-0.637-1.237
		c-0.453-0.338-1.155-0.276-1.542,0.134c-0.594,0.629-0.586,1.938-1.448,2.008c-0.66,0.054-1.019-0.763-1.072-1.422
		c-0.052-0.66-0.066-1.451-0.632-1.797c-0.788-0.479-1.688,0.393-2.215,1.148c-0.526,0.758-1.499,1.583-2.236,1.029
		c-1.047-0.785,0.343-2.974-0.801-3.606c-0.537-0.298-1.212,0.082-1.595,0.562c-0.383,0.48-0.639,1.078-1.134,1.438
		c-0.496,0.362-1.375,0.304-1.539-0.289c0.455-0.442-0.014-1.278-0.63-1.433c-0.617-0.154-1.251,0.101-1.871,0.24
		c-0.621,0.142-1.385,0.113-1.747-0.41c-0.308-0.444-0.184-1.049-0.036-1.569c0.147-0.521,0.299-1.11,0.029-1.581
		c-0.271-0.471-1.162-0.495-1.239,0.041c0.174,0.805-1.15,1.184-1.744,0.613c-0.594-0.568-0.625-1.486-0.695-2.307
		c-0.07-0.82-0.32-1.768-1.083-2.072c-0.311-0.125-0.668-0.123-0.954-0.297C4.364,95.327,4.407,94.464,4.567,93.79z"/>
	<g>
		<path fill="#F15A29" d="M62.908,90.113c0.743-0.478,1.489-0.948,2.238-1.413c0.202,0.271,0.42,0.532,0.646,0.778
			c0.758,0.824,1.631,1.592,2.065,2.623c0.436,1.031,0.246,2.444-0.748,2.959c-0.985,0.51-2.232-0.131-2.844-1.057
			c-0.612-0.925-0.785-2.061-1.099-3.123C63.09,90.623,63.002,90.366,62.908,90.113z"/>
		<path fill="#F15A29" d="M80.031,81.891c0.08,0.234,0.167,0.465,0.258,0.688c0.588,1.428,1.343,2.893,1.158,4.425
			c-0.186,1.532-1.881,2.969-3.233,2.225c-1.393-0.767-1.103-2.793-1.423-4.351c-0.129-0.621-0.403-1.195-0.776-1.701
			C77.333,82.69,78.674,82.262,80.031,81.891z"/>
		<path fill="#F15A29" d="M72.097,84.825c0.291-0.138,0.588-0.264,0.881-0.396c0.644,1.461,1.288,2.924,1.933,4.387
			c0.647,1.471,1.209,3.416,0.019,4.496c-1.007,0.912-2.727,0.477-3.611-0.556c-0.885-1.03-1.145-2.444-1.337-3.79
			c-0.131-0.931-0.262-1.89-0.582-2.765C70.286,85.721,71.184,85.259,72.097,84.825z"/>
		<path fill="#F15A29" d="M88.302,80.897c0.31,1.169,0.569,2.427,0.159,3.564c-0.409,1.137-1.755,2.016-2.848,1.501
			c-1.128-0.532-1.287-2.089-1-3.303c0.147-0.622,0.37-1.246,0.518-1.871c1.009-0.164,2.021-0.299,3.035-0.399
			C88.212,80.559,88.258,80.729,88.302,80.897z"/>
		<path fill="#F15A29" d="M114.912,87.236c-0.105,1-0.666,2.018-1.607,2.373c-1.283,0.486-2.755-0.475-3.31-1.73
			c-0.556-1.256-0.433-2.697-0.269-4.061c0.03-0.253,0.062-0.509,0.084-0.766c1.572,0.489,3.146,0.977,4.733,1.391
			C114.788,85.359,115.014,86.297,114.912,87.236z"/>
		<path fill="#F15A29" d="M105.915,81.888c0.017,0.236,0.047,0.471,0.088,0.693c0.396,2.161,1.177,4.3,0.987,6.489
			c-0.19,2.188-1.805,4.494-3.999,4.439c-1.939-0.048-3.417-1.945-3.704-3.863c-0.288-1.918,0.305-3.844,0.843-5.708
			c0.297-1.031,0.572-2.098,0.683-3.164c1.107,0.18,2.211,0.389,3.303,0.647C104.715,81.564,105.314,81.722,105.915,81.888z"/>
		<path fill="#F15A29" d="M95.771,80.223c-0.174,1.337-0.349,2.674-0.521,4.012c-0.082,0.63-0.171,1.281-0.497,1.826
			s-0.957,0.959-1.58,0.834c-1.097-0.222-1.269-1.7-1.187-2.815c0.099-1.308,0.195-2.616,0.293-3.924
			C93.443,80.136,94.607,80.158,95.771,80.223z"/>
	</g>
	<path fill="#FBD795" d="M113.744,161.675c1.225,0.427,2.266,0.466,3.542,0.235c0.011-0.963-0.425-1.92-1.156-2.545
		c-0.731-0.623-1.747-0.901-2.694-0.738C112.79,159.964,113.238,160.677,113.744,161.675z"/>
	<path fill="#FBD795" d="M111.52,162.811c1.225,0.426,2.268,0.467,3.543,0.235c0.011-0.963-0.426-1.92-1.156-2.544
		c-0.731-0.624-1.747-0.902-2.695-0.738C110.73,161.085,110.832,161.857,111.52,162.811z"/>
	<path fill="#FBD795" d="M108.542,163.197c1.224,0.427,2.267,0.467,3.543,0.234c0.011-0.961-0.425-1.92-1.157-2.543
		c-0.732-0.625-1.746-0.902-2.693-0.738C107.852,160.676,107.514,162.52,108.542,163.197z"/>
	<g opacity="0.25">
		<path fill="#FFFFFF" d="M126.531,84.649c0.672-0.264,1.316-0.593,1.921-0.996c2.335-1.556,3.886-4.082,4.778-6.741
			c0.738-2.197,1.525-5.162,1.662-7.979c0.17,3.25-0.781,6.959-1.662,9.579c-0.894,2.659-2.443,5.185-4.778,6.74
			c-0.604,0.402-1.249,0.732-1.921,0.995c-1.908,0.75-4.038,0.967-6.098,0.828c-5.598-0.378-10.906-2.775-16.32-4.054
			c-10.646-2.516-22.137-1.294-32.016,3.403c-7.332,3.485-13.692,8.76-20.974,12.35c-10.74,5.295-23.355,6.681-34.988,3.842
			c-3.15-0.77-6.377-1.934-8.511-4.375c-1.38-1.579-2.112-3.823-1.868-5.858c0.178,1.548,0.844,3.087,1.868,4.259
			c2.133,2.441,5.361,3.606,8.511,4.375c11.633,2.84,24.248,1.453,34.988-3.842c7.281-3.59,13.642-8.863,20.974-12.349
			c9.879-4.697,21.372-5.918,32.016-3.403c5.414,1.279,10.724,3.676,16.32,4.054C122.493,85.615,124.623,85.398,126.531,84.649z"/>
		<path fill="#FFFFFF" d="M4.097,94.812c-0.222-2.761,0.701-5.535,2.99-7.033c-0.715,0.777-1.128,1.729-1.294,2.744
			C4.787,91.695,4.234,93.211,4.097,94.812z"/>
		<path fill="#FFFFFF" d="M146.732,64.161c-0.502-5.198-1.14-15.923-7.145-18.028c-6.988-2.449-14.492-3.417-21.875-2.823
			c-2.488,0.2-5.033,0.6-7.186,1.867c-1.682,0.992-3.078,2.619-3.564,4.475c-0.061-0.002-0.123-0.005-0.184-0.007
			c-0.094-2.495,1.598-4.799,3.748-6.067c2.15-1.267,4.697-1.667,7.186-1.867c7.383-0.594,14.887,0.375,21.875,2.824
			c6.005,2.104,6.643,12.829,7.145,18.028c0.18,1.863,0.25,3.737,0.22,5.61C146.932,66.833,146.861,65.494,146.732,64.161z"/>
	</g>
	<g opacity="0.33">
		<path fill="#FFFFFF" d="M146.911,39.033c-2.527-1.696-5.14-3.23-7.888-4.522c0.065-0.411,0.09-0.829,0.062-1.248
			c3.051,1.365,5.922,3.036,8.696,4.897c0.694,0.466,1.241,0.939,1.877,1.485c-0.345,0.254-0.692,0.493-1.046,0.725
			C148.053,39.887,147.541,39.456,146.911,39.033z"/>
	</g>
	<path fill="#5BA43B" d="M82.07,158.504c-0.966-0.906-1.53-2.17-1.494-3.494c0.215-7.767-1.508-15.582-4.987-22.529
		c-0.933-1.862-2.02-3.787-1.929-5.867c0.116-2.625,2.049-4.762,3.107-7.165c2.814-6.39-0.756-13.688-0.679-20.669
		c0.04-3.592,1.445-7.59,4.75-9c3.05-1.301,6.41-1.559,8.521,0.998c4.836,5.858,7.238,13.666,6.537,21.23
		c-0.703,7.564-4.504,14.795-10.336,19.664c1.698,8.049,1.391,16.41-0.66,24.376c4.746,1.134,9.479,4.864,11.904,9.099
		c-2.724,0.578-5.447,1.158-8.171,1.735C86.883,163.973,84.628,160.904,82.07,158.504z"/>
	<path fill="#5BA43B" d="M122.975,98.59c0.312-0.453,0.713-0.904,1.254-1.007c0.76-0.144,1.455,0.454,1.92,1.071
		c1.621,2.154,2.031,4.976,2.115,7.668c0.075,2.382-0.059,4.796,0.352,7.131c1.97,0.674,4.152,0.833,6.26,0.896
		c3.029,0.094,6.188,0.102,8.896,1.457c2.607,1.303,5.441,8.221,4.543,8.567c-0.412,0.173-1.453-1.995-2.416-3.513
		c-0.399-0.627-1.387-1.574-1.299-1.473c1.479,1.977,1.846,3.51,2.135,5.959c0.021,0.18,0.021,0.397-0.133,0.493
		c-0.197,0.125-0.438-0.071-0.572-0.266c-0.61-0.88-0.781-1.978-1.1-2.998c-0.186-0.601-0.551-1.366-0.832-1.923
		c0.229,0.644,0.236,1.34,0.288,2.322c0.063,1.182-0.046,3.573-0.59,3.43c-0.47,0.021-0.444-1.273-0.422-1.967
		c0.071-2.168-0.36-4.348-1.701-6.055c-2.745-0.906-5.68-1.234-8.56-0.959c-1.657,0.159-3.387,0.491-5.049,0.521v-0.012
		c-0.644,0.221-1.44,0.039-2-0.391c-0.739-0.564-1.16-1.439-1.555-2.281c-1.242-2.652-2.486-5.35-2.994-8.234
		C121.009,104.146,121.314,101.005,122.975,98.59z"/>
	<g opacity="0.19">
		<path fill="#285E21" d="M134.055,63.702c-1.098-2.238-3.349-3.737-5.726-4.486c-3.899-1.229-8.07-0.647-12.045-1.469
			c-3.095-0.64-6.415-2.783-7.537-5.736c1.147,0.435,2.185,1.139,3.194,1.823c4.783,3.24,10.682,1.476,15.896,3.12
			c2.376,0.75,4.628,2.248,5.725,4.486c0.879,1.794,1.489,2.581,1.24,4.9C134.676,65.391,134.443,64.495,134.055,63.702z"/>
		<path fill="#285E21" d="M5.798,88.915c0.37-0.429,0.795-0.813,1.289-1.136c-0.527,0.572-0.889,1.24-1.111,1.959
			C5.902,89.466,5.842,89.191,5.798,88.915z"/>
		<path fill="#285E21" d="M4.255,92.169c0.262,1.336,0.787,2.627,1.561,3.72c2.573,3.633,6.966,5.486,11.251,6.698
			c8.155,2.306,16.783,2.92,25.183,1.792c4.109-0.55,8.171-1.514,12.312-1.716s9.418-3.079,12.01,0.157
			c3.17,3.957,6.989,6.912,11.18,8.943c0.199,2.266,0.122,4.483-0.58,6.61c-4.222-2.033-8.067-5.001-11.256-8.985
			c-2.592-3.234-7.213-3.146-11.354-2.945c-4.141,0.203-8.203,1.166-12.312,1.717c-8.399,1.128-17.028,0.514-25.183-1.792
			c-4.285-1.212-8.678-3.066-11.251-6.698C4.311,97.545,3.735,94.676,4.255,92.169z"/>
		<path fill="#285E21" d="M128.251,106.057c-0.062-1.552-0.241-3.134-0.705-4.602c6.767-5.037,12.49-11.176,15.738-19.079
			c2.209-5.378,3.426-11.15,3.64-16.959c0.273,7.067-0.951,14.196-3.64,20.74C140.212,93.635,134.723,100.407,128.251,106.057z"/>
		<path fill="#285E21" d="M90.234,91.066c4.16,4.312,6.748,10.106,7.183,16.082c0.19,2.625-0.021,5.261-0.244,7.883
			c5.216-0.508,10.413-2.025,15.224-4.452c3.023-1.526,6.037-3.165,8.951-4.947c0.036,0.472,0.088,0.94,0.168,1.401
			c0.215,1.219,0.565,2.4,0.987,3.562c-3.504,2.52-7.149,4.729-10.765,6.553c-5.834,2.945-12.242,4.549-18.561,4.637
			c1.463-3.07,2.401-6.391,2.717-9.777c0.39-4.185-0.179-8.441-1.576-12.404C93.423,96.562,92.057,93.666,90.234,91.066z"/>
	</g>
	<path fill="#FBD795" d="M94.329,166.037c1.226,0.427,2.267,0.467,3.542,0.234c0.011-0.961-0.426-1.92-1.156-2.543
		c-0.73-0.625-1.747-0.902-2.695-0.739C93.375,164.327,93.823,165.04,94.329,166.037z"/>
	<path fill="#FBD795" d="M92.104,167.174c1.225,0.426,2.268,0.467,3.543,0.233c0.011-0.962-0.426-1.921-1.156-2.544
		c-0.731-0.625-1.746-0.901-2.695-0.738C91.316,165.448,91.417,166.221,92.104,167.174z"/>
	<path fill="#FBD795" d="M89.127,167.561c1.225,0.428,2.268,0.467,3.543,0.234c0.012-0.961-0.425-1.92-1.156-2.544
		c-0.732-0.624-1.746-0.901-2.695-0.737C88.438,165.039,88.1,166.882,89.127,167.561z"/>
</g>
</svg>
