<?xml version="1.0" encoding="utf-8"?>

<!DOCTYPE svg PUBLIC "-//W3C//DTD SVG 1.1//EN" "http://www.w3.org/Graphics/SVG/1.1/DTD/svg11.dtd">
<svg version="1.1" id="Layer_1" xmlns="http://www.w3.org/2000/svg" xmlns:xlink="http://www.w3.org/1999/xlink" x="0px" y="0px"
	 viewBox="-41 -47.2281 1866 2149.4563" enable-background="new -41 -47.2281 1866 2149.4563" xml:space="preserve">
<g>
	<path fill="#FFFFFF" stroke="#FFFFFF" stroke-width="0.0938" d="M217.43,22.51c15.03-2.3,30.34-2.23,45.46-0.8
		c32.43,3.24,63.79,13.53,93.24,27.22c48.71,22.86,92.66,54.69,133.3,89.7c13.93,12.03,27.33,24.64,40.61,37.37
		c77.85-35.85,161.4901-58.56,246.45-69.24c78.77-9.66,158.91-10.51,237.5,1.26c81.3201,11.98,160.71,36.93,234.21,73.73
		c28.53-28.16,58.53-54.92,90.78-78.79c33.4-24.69,69.12-46.66,107.75-62.19c37.75-15.1,79.14-24.09,119.8101-18.27
		c11.5,11.06,20.6899,24.35,28.9099,37.97c21.05,35.78,33.7101,75.92,41.4801,116.53c9.4099,50.39,10.9099,102.11,5.7999,153.07
		c-6.7,67.15-24.95,133.18-54.1799,194.03c61.49,124.9,86.8099,267.01,74.0699,405.51c-70.34,0-140.67-0.01-211,0.01
		c-0.02,6.85-0.03,13.7,0,20.55c69.52,0.02,139.04,0,208.5601,0.01c-3.1901,24.74-8.03,49.3-14.88,73.29
		c-60.4801-13.65-120.9801-27.25-181.4801-40.79c-1.5199,6.73-3.12,13.44-4.49,20.2c59.9801,13.29,119.9,26.86,179.8401,40.37
		c-8.4401,25.84-19.63,50.8101-33.3401,74.28c-45.38-31.49-90.6-63.2001-135.99-94.6801c-3.96,5.62-7.86,11.27-11.8199,16.89
		c45.59,31.83,91.24,63.55,136.8099,95.4c-21.1699,31.9399-47.62,60.3099-77.72,83.99c-30.46,24.09-64.42,43.53-99.91,59.1801
		c-67.5,29.6299-139.8999,46.3899-212.6,57.1899c-1.38-7.12-2.49-14.88-7.8199-20.27c-7.5701-8.5-21.92-12.1-31.48-4.9399
		c-18.3201,11.0299-36.65,22.0399-54.9701,33.0499c-2.61,1.48-5.1599,3.55-8.3099,3.52c-10.6901,0.75-21.38,1.88-32.09,2.0701
		c-20.6801-2.53-41.3-5.5801-61.97-8.17c-7.95,0.47-15.1,5.46-19.43,11.98c-53.4901,1.51-107.04,1.48-160.54,0.63
		c-98.37-2.16-197.06-8.22-293.87-26.7c-45.3-8.7201-90.14-20.3101-133.38-36.4801c-35.67-13.36-70.24-29.9299-102.2-50.71
		c-43.16-27.9299-81.33-64.0699-109.62-107.11c44.32-30.83,88.58-61.75,132.9-92.59c-3.95-5.63-7.82-11.3201-11.81-16.91
		c-44.1,30.55-88.01,61.37-132.09,91.95c-13.34-22.6599-24.1-46.8099-32.58-71.6899c59.79-13.5,119.6-26.93,179.42-40.32
		c-1.52-6.72-2.96-13.45-4.57-20.14c-60.37,13.5-120.71,27.15-181.09,40.65c-6.86-23.96-11.9-48.44-15.14-73.15
		c69.47,0.01,138.94,0.01,208.42,0c0.02-6.85,0.01-13.7,0-20.55c-70.31-0.01-140.62-0.03-210.93,0.01
		c-4.68-48.42-3.99-97.21-0.24-145.67c6.75-85.82,25.77-171,59.46-250.36c2.83-7.23,6.6-14.17,9.16-21.44
		c-38.55-85.89-56.22-181.17-50.28-275.15c3.81-54.68,15.28-109.52,39.46-159C189.23,57.94,201.31,38.4,217.43,22.51 M520.51,610.67
		c-41.62,2.9-82.06,19.89-113.27,47.57c-25.46,22.23-44.64,51.44-55.47,83.42c-12.36,37.16-13.16,78.11-2.07,115.69
		c8.72,29.75,24.83,57.31,46.44,79.54c19.52,20.25,43.57,36.09,69.85,46.1c24.43,9.43,50.82,13.42,76.96,12.29
		c41.85-1.45,82.91-17.54,115-44.38c36.24-30.14,60.96-73.89,67.36-120.64c2.07-12.67,1.79-25.52,1.63-38.3
		c-1.63-30.7-10.85-60.94-26.57-87.35c-16.65-28.07-40.47-51.85-68.71-68.22C598.35,616.85,559.02,607.77,520.51,610.67
		 M1238.51,614.66c-21.48,1.22-42.79,5.94-62.65,14.23c-32.65,13.48-61.48,36.11-82.22,64.71c-21.9,29.9301-34.84,66.33-36.6,103.37
		c-0.04,11.02-0.4601,22.09,1.09,33.03c4.3,37.47,20.2,73.47,44.7,102.11c22.2001,26.05,51.4501,46.05,83.8301,57.16
		c36.7899,12.71,77.45,13.86,114.9099,3.3c37.7201-10.46,71.9701-32.92,96.76-63.2c22.3501-27.1,37.12-60.43,41.9-95.25
		c5.39-38.64-0.89-78.94-18.64-113.75c-16.75-33.33-43.4399-61.61-75.7799-80.21C1313.6,621.34,1275.72,612.46,1238.51,614.66
		 M822.84,1023.21c7.75,10.71,16.87,20.39,26.4,29.54c11.63,10.84,24.51,20.97,39.61,26.4301c3.35,1.5299,6.86-0.13,10-1.4
		c11.12-4.77,21.07-11.87,30.15-19.8c11.82-10.51,22.86-22.02,32.18-34.82c-14.69-6.73-30.7-10.24-46.75-11.73
		c-11.11-1.13-22.28-0.56-33.42-0.68C861.12,1011.4,841,1014.81,822.84,1023.21 M685.47,1093.73c-4.53,20.92-3.53,43.12,3.6,63.35
		c10.67,31.37,35.62,57.4301,66.45,69.53c22.72,9.16,48.35,10.4401,72.04,4.46c3.75,11.9301,9.72,23.12,17.29,33.0601
		c8.9301,11.51,20.11,21.75,33.7,27.4c7.67,3.24,16.48,4.1699,24.51,1.63c8.91-2.79,16.77-8.2201,23.65-14.4301
		c13.95-12.84,24.27-29.52,29.85-47.61c21.47,5.33,44.52,4.87,65.55-2.2c32.67-10.5801,59.8-36.66,71.77-68.8401
		c8.05-21.0299,9.4301-44.38,4.7-66.35c-6.39,2.89-12.6699,6.05-19.2799,8.4c4.5599,26.08-1.92,53.95-18.26,74.88
		c-13.63,17.78-33.7101,30.55-55.67,35.1c-21.39,4.4301-44.35,1.48-63.68-8.8199c-16.46-8.7101-30.31-22.3301-39.26-38.67
		c-3.35-6.4-6.63-12.84-9.84-19.3c-0.29,0-0.88-0.0099-1.1801-0.0099c-3.18,6.48-6.47,12.9199-9.83,19.3099
		c-11.95,22.03-32.93,38.96-57.05,45.83c-23.55,6.78-49.78,4.1001-71.32-7.6899c-17.3-9.3201-31.55-24.14-40.21-41.78
		c-9.02-18.08-11.58-38.99-8.28-58.85C698.11,1099.77,691.82,1096.66,685.47,1093.73z"/>
	<path fill="#F2D267" stroke="#F2D267" stroke-width="0.0938" d="M520.51,610.67c38.51-2.9,77.84,6.18,111.15,25.72
		c28.2401,16.37,52.06,40.15,68.71,68.22c15.72,26.41,24.94,56.65,26.57,87.35c0.16,12.78,0.44,25.63-1.63,38.3
		c-6.4,46.75-31.12,90.5-67.36,120.64c-32.09,26.84-73.15,42.93-115,44.38c-26.14,1.1299-52.53-2.86-76.96-12.29
		c-26.28-10.01-50.33-25.85-69.85-46.1c-21.61-22.23-37.72-49.79-46.44-79.54c-11.09-37.58-10.29-78.53,2.07-115.69
		c10.83-31.98,30.01-61.19,55.47-83.42C438.45,630.56,478.89,613.57,520.51,610.67 M520.49,669.75
		c-14.35,1.49-28.46,5.31-41.58,11.32c-30.3,13.76-55.03,39.25-67.82,69.96c-14.41,34.17-13.8,74.37,1.93,107.99
		c13.99,30.52,39.95,55.34,71.1,67.88c31.69,12.98,68.38,13.05,100.15,0.3c24.36-9.7,45.68-26.79,60.54-48.39
		c19.07-27.28,26.98-61.9,22.25-94.8c-4.39-32.87-21.89-63.62-47.5-84.6C592.27,676.75,555.73,665.89,520.49,669.75z"/>
	<path fill="#F2D267" stroke="#F2D267" stroke-width="0.0938" d="M1238.51,614.66c37.21-2.2,75.09,6.6801,107.3,25.5
		c32.34,18.6,59.0299,46.88,75.7799,80.21c17.75,34.81,24.03,75.11,18.64,113.75c-4.78,34.82-19.5499,68.15-41.9,95.25
		c-24.7899,30.28-59.0399,52.74-96.76,63.2c-37.46,10.56-78.12,9.41-114.9099-3.3c-32.38-11.11-61.63-31.11-83.8301-57.16
		c-24.5-28.64-40.3999-64.64-44.7-102.11c-1.55-10.94-1.13-22.01-1.09-33.03c1.76-37.04,14.7-73.4399,36.6-103.37
		c20.74-28.6,49.5699-51.23,82.22-64.71C1195.72,620.6,1217.03,615.88,1238.51,614.66 M1235.49,669.74
		c-21.88,2.21-43.16,9.99-61.3099,22.41c-29.0801,19.61-49.89,51.1-56.2401,85.62c-6.73,35.21,1.1801,73.03,22.0701,102.23
		c21.73,31.07,57.1799,52.15,94.96,55.91c37.67,4.32,76.9-8.4,104.73-34.19c29.29-26.41,45.78-66.34,43.3501-105.73
		c-1.5-35.94-18.6001-70.79-45.8401-94.22C1309.6899,677.56,1271.9,665.78,1235.49,669.74z"/>
	<path fill="#080607" stroke="#080607" stroke-width="0.0938" d="M520.49,669.75c35.24-3.86,71.78,7,99.07,29.66
		c25.61,20.98,43.11,51.73,47.5,84.6c4.73,32.9-3.18,67.52-22.25,94.8c-14.86,21.6-36.18,38.69-60.54,48.39
		c-31.77,12.75-68.46,12.68-100.15-0.3c-31.15-12.54-57.11-37.36-71.1-67.88c-15.73-33.62-16.34-73.82-1.93-107.99
		c12.79-30.71,37.52-56.2,67.82-69.96C492.03,675.06,506.14,671.24,520.49,669.75z"/>
	<path fill="#080607" stroke="#080607" stroke-width="0.0938" d="M1235.49,669.74c36.41-3.96,74.2,7.82,101.72,32.03
		c27.24,23.43,44.3401,58.28,45.8401,94.22c2.4299,39.39-14.0601,79.32-43.3501,105.73c-27.83,25.79-67.0599,38.51-104.73,34.19
		c-37.78-3.7599-73.23-24.84-94.96-55.91c-20.89-29.2-28.8-67.02-22.0701-102.23c6.3501-34.52,27.16-66.01,56.2401-85.62
		C1192.33,679.73,1213.61,671.95,1235.49,669.74z"/>
	<path fill="#C8748A" stroke="#C8748A" stroke-width="0.0938" d="M822.84,1023.21c18.16-8.4,38.28-11.81,58.17-12.46
		c11.14,0.12,22.31-0.45,33.42,0.68c16.05,1.49,32.06,5,46.75,11.73c-9.32,12.8-20.36,24.31-32.18,34.82
		c-9.08,7.9301-19.03,15.03-30.15,19.8c-3.14,1.27-6.65,2.9299-10,1.4c-15.1-5.4601-27.98-15.5901-39.61-26.4301
		C839.71,1043.6,830.59,1033.92,822.84,1023.21z"/>
	<path fill="#080607" stroke="#080607" stroke-width="0.0938" d="M685.47,1093.73c6.35,2.9301,12.64,6.04,19.25,8.4
		c-3.3,19.86-0.74,40.77,8.28,58.85c8.66,17.64,22.91,32.46,40.21,41.78c21.54,11.79,47.77,14.47,71.32,7.6899
		c24.12-6.87,45.1-23.7999,57.05-45.83c3.36-6.39,6.65-12.83,9.83-19.3099c0.3,0,0.89,0.0099,1.1801,0.0099
		c3.21,6.4601,6.49,12.9,9.84,19.3c8.95,16.34,22.8,29.96,39.26,38.67c19.33,10.2999,42.29,13.25,63.68,8.8199
		c21.96-4.5499,42.04-17.3199,55.67-35.1c16.34-20.9301,22.8199-48.8,18.26-74.88c6.61-2.35,12.8899-5.51,19.2799-8.4
		c4.7301,21.97,3.3501,45.3201-4.7,66.35c-11.97,32.1801-39.1,58.26-71.77,68.8401c-21.03,7.0699-44.08,7.5299-65.55,2.2
		c-5.58,18.09-15.9,34.77-29.85,47.61c-6.88,6.21-14.7401,11.64-23.65,14.4301c-8.03,2.5399-16.84,1.61-24.51-1.63
		c-13.59-5.65-24.77-15.89-33.7-27.4c-7.5699-9.9401-13.54-21.13-17.29-33.0601c-23.69,5.9801-49.32,4.7001-72.04-4.46
		c-30.83-12.1-55.78-38.16-66.45-69.53C681.94,1136.85,680.94,1114.65,685.47,1093.73 M846.83,1224.04
		c4.36,13.7899,11.97,26.6599,22.46,36.6699c5.68,5.5901,12.32,10.55,20.03,12.89c6.76,1.84,13.13-2.1,18.45-5.83
		c14.18-10.89,24.38-26.59,29.46-43.6801c-17.88-8.47-33.5-21.4099-45.23-37.34C880.31,1202.67,864.7,1215.62,846.83,1224.04z"/>
	<path fill="#C8748A" stroke="#C8748A" stroke-width="0.0938" d="M846.83,1224.04c17.87-8.42,33.48-21.37,45.17-37.29
		c11.73,15.9301,27.35,28.87,45.23,37.34c-5.08,17.0901-15.28,32.79-29.46,43.6801c-5.32,3.73-11.69,7.6699-18.45,5.83
		c-7.71-2.34-14.35-7.2999-20.03-12.89C858.8,1250.7,851.19,1237.83,846.83,1224.04z"/>
	<path fill="#FFFFFF" stroke="#FFFFFF" stroke-width="0.0938" d="M614.39,1375.63c4.78-1.74,10.87-1.58,14.35,2.61
		c6.23,7.05,7.6,16.88,8.75,25.88c1.89,22.7-1.34,45.45-5.97,67.64c-8.98,41.16-23.55,81.03-42.1,118.83
		c-16.12,31.87-35.36,62.6901-60.92,87.89c-8.29,7.89-17.24,15.27-27.43,20.59c-5.6,2.76-11.65,5.27-18.02,4.9401
		c-8.92,0.12-18.52-0.75-26.06-5.96c-7.7-5.7001-8.32-16.3401-7.52-25.0701c2.17-18.6799,8.96-36.41,15.86-53.78
		c9.01-21.9399,19.12-43.4199,28.87-65.0399c7.77-16.79,14.63-33.9701,22.2-50.85c8.49-18.6201,18.0099-36.77,28.66-54.25
		c11.62-18.8601,24.56-37.05,40.1-52.9C593.75,1387.92,602.91,1379.52,614.39,1375.63z"/>
	<path fill="#FFFFFF" stroke="#FFFFFF" stroke-width="0.0938" d="M658.18,1402.73c48.61,10.36,98.28,14.55,147.81,17.37
		c62.84,3.0801,125.85,2.88,188.65-0.96c2.23,9.88,3.93,19.88,6.22,29.74c3.52,13.61,19.41,22.4399,32.74,17.77
		c25.26-14.76,50.3101-29.9301,75.5601-44.72c5.58,0.1899,11.1,1.38,16.64,2.09c0.63,22.84,4.9399,45.4399,10.3899,67.59
		c10.5701,41.1,25.8601,81.02,45.5601,118.61c10.55,19.8401,22.41,39.0701,36.29,56.78c1.27,1.79,3.3999,3.47,2.96,5.95
		c-1.01,24.42-2.9399,48.8201-6.39,73.02c-5.59,37.88-15.16,76.15-35.89,108.8c-6.21,9.7999-13.46,18.9299-21.52,27.28
		c4.7201,21.6499,3.37,43.88,3.38,65.86c-0.6799,16.89-1.11,34-5.38,50.46c-2.47,9.03-6.11,18.22-13.0699,24.78
		c-6.83,6.85-16.59,9.85-26.02,10.6799c-10.49,0.62-21.45,0.4701-31.22-3.85c-7.75-3.28-13.9301-9.63-17.72-17.0599
		c-6.2301-12.12-8.17-25.8401-9.51-39.24c-1.04-12.3201-1.38-24.6801-1.51-37.03c-44.19,11.09-89.76,15.36-135.19,16.62
		c-49.97,1.13-100.2-0.1901-149.67-7.8101c-14.62-2.22-29.05-5.48-43.44-8.8099c-0.37,21.21-0.47,42.77-5.99,63.4199
		c-2.59,9.17-6.8,18.3201-14.2,24.6001c-7.89,6.72-18.52,9.1899-28.67,9.35c-9.6,0.34-19.57-0.38-28.32-4.67
		c-7.4-3.53-13.17-9.91-16.76-17.2c-5-10-7.0099-21.15-8.46-32.14c-1.8-16.6-2.19-33.3201-2.06-50.01
		c-0.29-16.03,0.01-32.16,3.43-47.89c-13.7-14.24-24.93-30.79-33.23-48.71c-17.65-38.01-24.27-79.98-28.1-121.38
		c-0.98-13.6-2.31-27.2001-2.37-40.8301c24.98-31.5499,44.31-67.24,59.75-104.3199c16.18-39.39,28.97-80.5,34.2-122.87
		C658.67,1430.3,659.05,1416.48,658.18,1402.73z"/>
	<path fill="#FFFFFF" stroke="#FFFFFF" stroke-width="0.0938" d="M1217.25,1416.98c23.13,30.35,41.33,64.21,56.33,99.23
		c16.14,39,32.3101,78.23,42.7301,119.2201c3.3199,13.6,5.95,27.48,6.0499,41.5199c-0.49,7.6101-1.03,16.0801-6.35,22.0701
		c-5.09,5.38-13.15,5.45-19.98,4.6899c-8.4-1.6799-15.97-6.02-22.97-10.7999c-14.9-10.53-27.3201-24.12-38.55-38.41
		c-25.25-32.5601-44.13-69.64-58.99-107.96c-14.73-38.37-26.27-78.4401-29.13-119.61c13.52,1.6799,26.98,3.73,40.47,5.5599
		c4.5,0.55,9.2001,1.9401,13.62,0.1901C1208.1801,1430.42,1214.0601,1424.17,1217.25,1416.98z"/>
	<path fill="#FFFFFF" stroke="#FFFFFF" stroke-width="0.0938" d="M269.69,1453.6899c1.33-3.4199,4.41-6.47,8.31-6.2999
		c5.43,0.65,10.07,4.01,13.98,7.64c4.93,4.88,8.26,11.0499,12.31,16.63c39.99,58.45,83.64,114.52,132.14,166.1899
		c-3.68,11.41-6.71,23.14-7.59,35.13c-0.73,9.41,0.21,19.1901,4.37,27.78c4.11,8.78,11.9,15.52,20.83,19.12
		c11.02,4.51,23.18,5.29,34.95,4.55c10.15-1.16,19.58-5.6101,28.27-10.78c8.82,6.9,17.48,14.01,26.57,20.5599
		c1.58,1.3,3.99,2.41,3.86,4.8401c3.16,26,8.46,51.7699,16.49,76.72c-35.34-22.76-67.85-49.71-98.27-78.67
		c-70.27-67.4-129-145.86-181.22-227.78c-5.14-8.62-11.6-16.6599-14.53-26.3999C267.22,1473.55,265.86,1463,269.69,1453.6899z"/>
	<path fill="#080607" d="M1784,950.25v-20.8c-33.5,0.05-66.9902,0.11-100.4902-0.03c11.9204-136.94-11.6499-277.21-70.2798-401.71
		c-0.8799-1.8799-1.76-4.03-0.6401-6.01c41.1902-91.04,59.5103-192.47,52-292.1599c-3.1099-40.54-10.5398-80.8901-23.77-119.39
		C1628.96,76.21,1612.6201,43.3301,1588.98,16c-4.25-4.39-7.8501-9.7-13.0801-12.95c-9.3198-2.1101-18.96-2.3701-28.4697-3.05
		h-11.8701c-39.1699,1.29-77.4702,12.3-112.9502,28.54c-36.0898,16.4499-69.71,37.8899-101.3298,61.75
		c-27.1501,20.3999-52.5801,42.97-77.2102,66.3199C1143.6802,108.7,1033.2,82.36,922.04,79.1
		C826.8901,76.54,731.1499,87.38,639.55,113.53c-35.95,10.12-71.0601,23.04-105.3701,37.75C486.9299,106.51,435.1899,65.65,377,36
		C344.6001,19.7,310,7.0601,273.9299,2.1899C267.4102,1.26,260.8301,0.9099,254.3101,0h-17.74
		c-8.8401,0.53-17.7102,1.0901-26.4602,2.52c-1.9399,0.1899-3.6299,1.21-4.9497,2.6C185.5,24.72,170.21,48.3301,158.26,73.29
		c-22.52,47.5-33.97,99.6099-38.48,151.78C111.73,321.86,128.1201,420.49,166.22,509.78c0.8701,1.6799,0.6902,3.58-0.0999,5.25
		c-36.3801,82.12-57.2202,170.6899-64.9502,260.05C96.8201,826.4,96.02,878.1,100.55,929.43c-33.52,0.12-67.03,0.05-100.55,0.04
		v20.77c34.3201,0.04,68.6499-0.01,102.97,0.03c3.55,26.17,8.6599,52.13,15.8,77.5699c-30.5,6.9601-61.0901,13.49-91.52,20.74
		c1.47,6.6801,2.8799,13.37,4.5801,20.01c31.0898-6.71,62.0601-14.02,93.1499-20.76c9.29,27.39,21.1201,53.9301,35.76,78.89
		c-22.6399,15.8401-45.3699,31.5601-67.98,47.4401c3.6799,5.8099,7.75,11.36,11.6699,17.02c22.7-15.2401,44.8-31.37,67.47-46.66
		c21.48,31.95,47.7202,60.6899,77.6401,84.9399c29.1499,23.76,61.5,43.4401,95.4099,59.61
		c76.5,36.3501,159.8801,55.4701,243.3201,67.7001c-0.3201,3.21,0.23,6.62-0.8101,9.72c-2.6499,2.6901-5.8799,4.73-8.6699,7.27
		c-13.1201,11.62-24.47,25.1-34.72,39.28C523.54,1441.58,507.04,1472.83,492.99,1505c-15.4199,37.22-33.3,73.35-48.6799,110.58
		c-47.96-51.48-90.5-107.7799-129.9502-165.97c-7.5098-10.66-18.2197-20.09-31.4399-22.3199
		c-8.71-1.74-18.1499,0.8999-24.5798,7.0399c-6.75,6.41-10.2302,15.5701-11.2102,24.6801c-1.8599,17.02,2.8401,34.47,12.0701,48.79
		c41.1301,65.74,86.2102,129.21,137.6501,187.3199c48.3799,54.5601,102.5298,104.6901,164.46,143.55
		c5.22,3.5299,11.01,6.21,16.0498,10c3.7102,4.5,5.7102,10.1699,9.02,14.98c4.9702,8.1899,10.73,15.87,16.8201,23.26
		c1.8701,1.9299,0.9202,4.73,0.8201,7.12c-0.8701,6.95-1.3201,13.95-1.29,20.96c0.0801,15.02-0.22,30.05,0.48,45.0701
		c0.8701,19.1699,2.6499,38.75,9.99,56.6899c5.29,12.9399,14.75,24.45,27.3801,30.75c8.6899,4.55,18.46,6.22,28.0798,7.5h7.8101
		c10.9099-0.3601,22.02-1.8,32-6.48c12.8801-5.71,22.8101-16.79,28.51-29.52c7.99-17.71,9.71-37.39,10.9199-56.54
		C797,1971.78,847.1001,1974.53,897,1974.26c46.5701-0.12,93.28-3.1,139.0898-11.79c1.2603,19.14,2.9202,38.8101,10.9602,56.5
		c5.45,12.28,14.8499,23.03,27.0798,28.87c8.5601,4.36,18.1301,5.92,27.5601,7.16h13.6401
		c5.0298-0.79,10.1001-1.3999,15.0498-2.6499c11.9902-2.8601,23.04-9.6001,30.77-19.2301c10.1101-12.41,14.5801-28.29,17.0103-43.83
		c3-19.9401,3.1699-40.17,3.0898-60.29c-0.0601-11.08,0.3901-22.2-1.04-33.21c-0.1899-3.1901-1.6001-6.9501,1.0701-9.48
		c18.46-21.8101,31.3-47.89,39.96-74.9901c12.1199-38.2999,16.8601-78.47,19.4299-118.4199c12.23,11.33,25.4102,22.25,41.1899,28.23
		c13.2202,5.13,28.9402,5.36,41.5-1.73c10.1101-5.6801,16.0503-16.7001,18.1602-27.8c3.5498-19.27-0.0701-38.95-4.28-57.7999
		c-9.1899-37.8-23.45-74.0901-38.0798-110.05c-8.4502-20.9399-17.7402-41.5601-28.4502-61.45
		c-15.1799-28.03-32.54-55.2201-54.5698-78.41c-2.1602-2.1-2.6702-5.15-3.2402-7.9501c-1.3101-6.6899-2.73-13.36-3.9697-20.0499
		c44.1699-6.77,88.1199-15.4401,131.0598-27.9c38.9402-11.26,77.1301-25.4299,113.28-43.86
		c33.8799-17.1901,65.8999-38.24,94.3501-63.48c24.5-21.5701,45.9497-46.4601,64.29-73.4401c21.1997,14.52,42.1597,29.4,63.3096,44
		c4.2104-5.52,8.0801-11.27,11.9502-17.02c-21.3398-14.8999-42.6599-29.84-64.0898-44.61c4.5298-8.64,9.52-17.0399,13.72-25.85
		c8.8899-17.99,16.45-36.64,22.6799-55.72c30.98,6.51,61.7603,13.96,92.71,20.58c1.6802-6.63,3.1201-13.33,4.5698-20.01
		c-30.25-7.2699-60.7197-13.61-91.0098-20.7c6.8398-25.5,12.0303-51.43,15.3901-77.62C1715.4302,950.24,1749.71,950.27,1784,950.25z
		 M449.47,1672.98c2.1702-18.6799,8.96-36.41,15.8601-53.78c9.01-21.9399,19.1199-43.4199,28.8699-65.0399
		c7.77-16.79,14.6301-33.9701,22.2-50.85c8.4902-18.6201,18.01-36.77,28.6602-54.25c11.6199-18.8601,24.5601-37.05,40.0999-52.9
		c8.5901-8.24,17.75-16.64,29.2302-20.53c4.7798-1.74,10.8699-1.58,14.3499,2.61c6.23,7.05,7.6001,16.88,8.75,25.88
		c1.8899,22.7-1.3401,45.45-5.97,67.64c-8.98,41.16-23.55,81.03-42.1001,118.83c-16.1199,31.87-35.3599,62.6901-60.9199,87.89
		c-8.29,7.89-17.24,15.27-27.4299,20.59c-5.6001,2.76-11.6501,5.27-18.02,4.9401c-8.9202,0.12-18.52-0.75-26.0601-5.96
		C449.29,1692.35,448.6699,1681.71,449.47,1672.98z M544.29,1708.37c-3.3-2.29-6.4302-4.8099-9.49-7.4
		c2.79-2.75,5.6899-5.38,8.6799-7.9C543.6001,1698.17,544.1299,1703.26,544.29,1708.37z M465.9102,1737.1
		c-70.27-67.4-129-145.86-181.2202-227.78c-5.1399-8.62-11.5999-16.6599-14.5298-26.3999c-2.9402-9.37-4.3003-19.92-0.4702-29.2301
		c1.3301-3.4199,4.4102-6.47,8.3101-6.2999c5.4299,0.65,10.0701,4.01,13.98,7.64c4.9302,4.88,8.26,11.0499,12.3101,16.63
		c39.99,58.45,83.6399,114.52,132.1399,166.1899c-3.6799,11.41-6.71,23.14-7.5898,35.13c-0.7302,9.41,0.21,19.1901,4.3699,27.78
		c4.1101,8.78,11.8999,15.52,20.8301,19.12c11.02,4.51,23.1799,5.29,34.95,4.55c10.1501-1.16,19.5801-5.6101,28.27-10.78
		c8.8201,6.9,17.48,14.01,26.5701,20.5599c1.5798,1.3,3.99,2.41,3.8599,4.8401c3.1602,26,8.46,51.7699,16.49,76.72
		C528.8401,1793.01,496.3301,1766.0601,465.9102,1737.1z M1221,1672.95c-1.01,24.42-2.9399,48.8201-6.3901,73.02
		c-5.5898,37.88-15.1599,76.15-35.8899,108.8c-6.21,9.7999-13.46,18.9299-21.52,27.28c4.72,21.6499,3.3699,43.88,3.3801,65.86
		c-0.6802,16.89-1.1101,34-5.3801,50.46c-2.47,9.03-6.1101,18.22-13.0701,24.78c-6.8298,6.85-16.5898,9.85-26.02,10.6799
		c-10.4897,0.62-21.4497,0.4701-31.2197-3.85c-7.75-3.28-13.9302-9.63-17.7202-17.0599c-6.23-12.12-8.1699-25.8401-9.5098-39.24
		c-1.04-12.3201-1.3801-24.6801-1.5103-37.03c-44.1899,11.09-89.7598,15.36-135.1899,16.62
		c-49.97,1.13-100.2-0.1901-149.6699-7.8101c-14.6201-2.22-29.05-5.48-43.4399-8.8099c-0.3701,21.21-0.4702,42.77-5.9902,63.4199
		c-2.5898,9.17-6.7998,18.3201-14.2,24.6001c-7.8899,6.72-18.5198,9.1899-28.6699,9.35c-9.5999,0.34-19.5701-0.38-28.3201-4.67
		c-7.3999-3.53-13.1699-9.91-16.76-17.2c-5-10-7.01-21.15-8.46-32.14c-1.8-16.6-2.1899-33.3201-2.0598-50.01
		c-0.29-16.03,0.0098-32.16,3.4299-47.89c-13.7-14.24-24.9299-30.79-33.23-48.71c-17.6501-38.01-24.27-79.98-28.1001-121.38
		c-0.98-13.6-2.3101-27.2001-2.3699-40.8301c24.98-31.5499,44.3098-67.24,59.75-104.3199c16.1799-39.39,28.97-80.5,34.2-122.87
		c1.5999-13.7,1.98-27.52,1.1099-41.27c48.6101,10.36,98.28,14.55,147.8101,17.37c62.8401,3.0801,125.8501,2.88,188.6501-0.96
		c2.23,9.88,3.9299,19.88,6.2197,29.74c3.52,13.61,19.4102,22.4399,32.7402,17.77c25.2598-14.76,50.3101-29.9301,75.5601-44.72
		c5.5798,0.1899,11.0999,1.38,16.6399,2.09c0.6301,22.84,4.9399,45.4399,10.3899,67.59c10.5701,41.1,25.8601,81.02,45.5601,118.61
		c10.55,19.8401,22.4102,39.0701,36.29,56.78C1219.3101,1668.79,1221.4399,1670.47,1221,1672.95z M1217.25,1416.98
		c23.1299,30.35,41.3301,64.21,56.3301,99.23c16.1399,39,32.3101,78.23,42.73,119.2201c3.3198,13.6,5.95,27.48,6.0498,41.5199
		c-0.4897,7.6101-1.0298,16.0801-6.3499,22.0701c-5.0901,5.38-13.1501,5.45-19.98,4.6899c-8.4001-1.6799-15.97-6.02-22.97-10.7999
		c-14.8999-10.53-27.3201-24.12-38.55-38.41c-25.25-32.5601-44.1301-69.64-58.99-107.96c-14.73-38.37-26.27-78.4401-29.1299-119.61
		c13.52,1.6799,26.98,3.73,40.4697,5.5599c4.5,0.55,9.2002,1.9401,13.6201,0.1901
		C1208.1802,1430.42,1214.0601,1424.17,1217.25,1416.98z M1662.6201,929.61c-70.3401,0-140.6702-0.01-211,0.01
		c-0.02,6.85-0.0303,13.7,0,20.55c69.52,0.02,139.04,0,208.5601,0.01c-3.1902,24.74-8.0303,49.3-14.8801,73.29
		c-60.4802-13.65-120.9802-27.25-181.4802-40.79c-1.5198,6.73-3.1199,13.44-4.4897,20.2c59.98,13.29,119.8999,26.86,179.8398,40.37
		c-8.4399,25.84-19.6299,50.8101-33.3398,74.28c-45.3801-31.49-90.6001-63.2001-135.9902-94.6801
		c-3.96,5.62-7.8599,11.27-11.8198,16.89c45.5898,31.83,91.24,63.55,136.8101,95.4c-21.1699,31.9399-47.6201,60.3099-77.7202,83.99
		c-30.46,24.09-64.4199,43.53-99.9099,59.1801c-67.5,29.6299-139.8999,46.3899-212.5999,57.1899
		c-1.3801-7.12-2.4902-14.88-7.8201-20.27c-7.5701-8.5-21.9202-12.1-31.48-4.9399c-18.3201,11.0299-36.6501,22.0399-54.97,33.0499
		c-2.6101,1.48-5.1602,3.55-8.3101,3.52c-10.6899,0.75-21.3799,1.88-32.0898,2.0701c-20.6802-2.53-41.3003-5.5801-61.9702-8.17
		c-7.95,0.47-15.1001,5.46-19.4299,11.98c-53.49,1.51-107.04,1.48-160.54,0.63c-98.3699-2.16-197.0601-8.22-293.8699-26.7
		c-45.3-8.7201-90.1401-20.3101-133.3801-36.4801c-35.6699-13.36-70.24-29.9299-102.2-50.71
		c-43.1602-27.9299-81.3301-64.0699-109.6201-107.11c44.3201-30.83,88.5801-61.75,132.9001-92.59
		c-3.95-5.63-7.8201-11.3201-11.8101-16.91c-44.0999,30.55-88.01,61.37-132.0901,91.95
		c-13.3398-22.6599-24.0999-46.8099-32.5798-71.6899c59.7898-13.5,119.5999-26.93,179.4199-40.32
		c-1.52-6.72-2.96-13.45-4.5701-20.14c-60.3699,13.5-120.71,27.15-181.0898,40.65C132.24,999.36,127.2,974.88,123.96,950.17
		c69.47,0.01,138.9399,0.01,208.4199,0c0.02-6.85,0.0103-13.7,0-20.55c-70.3098-0.01-140.6199-0.03-210.9299,0.01
		c-4.6799-48.42-3.99-97.21-0.24-145.67c6.75-85.8199,25.77-171,59.46-250.36c2.8301-7.23,6.6001-14.17,9.1602-21.4401
		C151.28,426.27,133.6099,330.99,139.55,237.01c3.8098-54.6799,15.28-109.52,39.46-159c10.22-20.0701,22.3-39.61,38.4199-55.5
		c15.03-2.3,30.3401-2.23,45.4602-0.8c32.4299,3.24,63.7898,13.53,93.2397,27.22C404.8401,71.79,448.79,103.62,489.4299,138.63
		C503.3599,150.6599,516.76,163.27,530.04,176c77.8501-35.8501,161.49-58.5601,246.45-69.24c78.77-9.66,158.9099-10.51,237.5,1.26
		c81.3201,11.98,160.71,36.9299,234.21,73.73c28.53-28.16,58.53-54.9199,90.78-78.79C1372.3799,78.27,1408.1001,56.3,1446.73,40.77
		c37.75-15.1001,79.1401-24.0901,119.8101-18.27c11.5,11.0601,20.6899,24.35,28.9099,37.97
		c21.05,35.78,33.7102,75.92,41.4802,116.53c9.4097,50.39,10.9097,102.11,5.7998,153.0701
		C1636.03,397.22,1617.78,463.25,1588.55,524.1C1650.04,649,1675.3599,791.11,1662.6201,929.61z"/>
	<path fill="#C50018" stroke="#C50018" stroke-width="0.0938" d="M984.5901,1374.05l6.4199,24.62
		c-1.6035,4.9963-273.9419,6.0779-337.48-18.05l-8.76-15.88L984.5901,1374.05z"/>
	<path fill="#C50018" stroke="#C50018" stroke-width="0.0938" d="M1170.26,1331.28c1.99-1.14,3.91-2.6,6.2-3.05
		c1.0199,0.01,2.0398,0,3.0898-0.03c2.8129-0.0804,2.8073,2.9807,3.1333,4.8865c0.5817,3.399,1.2856,6.7825,1.9379,10.1687
		c1.3054,6.7769,2.6375,13.5486,3.9963,20.3149c2.7177,13.5327,5.5421,27.0439,8.4731,40.532
		c0.4525,2.0824,2.3525,7.5408-1.5605,7.678c-13.2366-0.274-26.7064-3.343-39.8457-5.2097
		c-13.7013-1.9465-27.4131-3.8193-41.1345-5.6182c-0.9604-0.1259-1.921-0.2515-2.8816-0.3767
		c-2.3158-0.3018-4.6772-0.6006-6.9735-0.1755c-3.4049,0.6301-6.0848,3.6766-8.9966,5.4578
		c-4.3107,2.6371-8.65,5.2272-12.9998,7.7993c-8.5839,5.0758-17.2103,10.0798-25.7484,15.2332
		c-7.8733,4.6187-15.6677,9.3701-23.5304,14.0067c-2.1375,1.2605-6.8571,5.3937-9.5226,4.1132
		c-2.9647-1.4242-3.6941-7.5359-4.2489-10.334c0-2.5968-1.1134-5.6154-1.62-8.1702c-0.567-2.8595-1.134-5.7191-1.701-8.5786
		c-1.134-5.7192-2.268-11.4384-3.402-17.1575c-2.1705-10.9465-4.6787-21.9257-6.7549-32.8397c0.01-1.84,0-3.6598-0.01-5.4597
		c-0.0148-2.6658,2.435-2.6871,4.2681-2.3372c3.2529,0.6208,6.5643,1.0393,9.8544,1.5027
		c6.8583,0.9661,13.7177,1.924,20.5783,2.8737c13.7212,1.8997,27.4468,3.7667,41.1768,5.6013
		c3.4323,0.4586,6.8647,0.9152,10.2976,1.3698c2.4384,0.3229,6.2172,1.6945,8.3848,0.0194
		C1123.5699,1358.9,1147.22,1345.59,1170.26,1331.28z"/>
</g>
</svg>
