<?xml version="1.0" encoding="utf-8"?>
<!-- Generator: Adobe Illustrator 16.0.4, SVG Export Plug-In . SVG Version: 6.00 Build 0)  -->
<!DOCTYPE svg PUBLIC "-//W3C//DTD SVG 1.1//EN" "http://www.w3.org/Graphics/SVG/1.1/DTD/svg11.dtd">
<svg version="1.1" id="Layer_1" xmlns="http://www.w3.org/2000/svg" xmlns:xlink="http://www.w3.org/1999/xlink" x="0px" y="0px"
	 width="170px" height="170px" viewBox="0 0 170 170" enable-background="new 0 0 170 170" xml:space="preserve">
<title>Artboard 9</title>
<g>
	<path fill="#8DC63F" d="M84.789,70.057c-11.521,3.814-23.54,8.553-35.43,6.117c-5.531-1.133-10.667-3.777-16.208-4.855
		c-5.541-1.077-10.327,1.933-15.457,4.287c-1.716,0.785-3.431,1.572-5.146,2.359c-2.086,0.958-4.219,1.948-5.838,3.575
		c-1.619,1.626-2.639,4.052-1.981,6.25c3.172,1.461,6.097,0.999,9.583,0.776c-1.854,1.254-3.979,2.494-5.833,3.748
		c6.17,4.188,14.08,5.723,21.368,4.141c9.854-2.139,18.293,4.745,27.426,9.546c0.044,0.072,0.083,0.146,0.127,0.22
		c1.894,3.127,4.249,4.661,7.518,5.471c-0.517,2.551-1.45,5.424-1.967,7.976c-0.284,1.403-0.571,2.847-0.337,4.26
		c0.234,1.413,1.937,4.091,2.466,3.259c0.307-0.479-1.618-3.08-1.515-4.761c0.291,1.528,1.574,2.789,3.073,3.154
		c0.281,0.067,0.459-0.274,0.254-0.479c-0.923-0.924-1.563-2.305-1.74-3.537c0.969,1.479,2.972,2.117,4.69,1.705
		c0.329-0.08,0.352-0.561,0.026-0.656c-1.375-0.409-2.603-1.254-3.381-2.465c0.714-1.703,1.427-3.406,2.142-5.108
		c0.62-1.479,1.238-3.026,1.446-4.59c10.524,1.879,21.63,0.231,31.284-4.388c0.799,1.271,1.65,2.523,2.056,3.963
		c0.62,2.199,0.117,4.539-0.388,6.768c-0.5,2.21-1.123,4.614-2.953,5.948c-1.629,1.188-3.793,1.216-5.762,1.657
		c-2.949,0.664-5.649,2.383-7.502,4.771c2.979,0.654,5.959,1.309,8.94,1.962c3.007-2.325,7.138-3.563,10.931-3.831
		c5.768-9.087,12.012-18.478,14.549-28.936c0.836-3.438,1.469-7.028,0.892-10.502c2.737-3.762,5.36-7.62,8.442-11.104
		c8.927-10.091,21.892-17.749,35.289-19.164C138.389,57.191,110.863,61.424,84.789,70.057z"/>
	<path fill="#7C9F3A" d="M52.901,103.564c-2.606-1.508-5.184-3.033-7.782-4.315c0.301,2.547,1.357,4.571,3.145,6.524
		c-1.842,1.838-4.211,3.713-6.053,5.551c-1.016,1.011-2.052,2.055-2.64,3.361c-0.588,1.306-0.654,4.479,0.248,4.08
		c0.521-0.231,0.358-3.464,1.375-4.805c-0.605,1.434-0.234,3.193,0.811,4.328c0.196,0.211,0.534,0.023,0.478-0.26
		c-0.257-1.279-0.025-2.784,0.509-3.908c-0.011,1.768,1.302,3.408,2.961,4.018c0.318,0.115,0.602-0.271,0.386-0.533
		c-0.918-1.102-1.474-2.483-1.451-3.922c1.538-1.023,3.075-2.049,4.613-3.069c1.98-1.316,4.054-2.737,4.976-4.931
		C53.675,105.236,53.17,104.45,52.901,103.564z"/>
	<path fill="#7C9F3A" d="M100.143,106.613c-4.086,1.828-8.414,3.135-12.832,3.873c-0.1,0.504-0.209,1.003-0.32,1.496
		c-0.5,2.209-1.124,4.613-2.955,5.947c-1.628,1.189-3.792,1.217-5.76,1.659c-2.95,0.663-5.652,2.382-7.504,4.771
		c2.981,0.654,5.961,1.309,8.942,1.961c3.006-2.325,7.137-3.564,10.93-3.831C93.911,117.342,97.33,112.098,100.143,106.613z"/>
	<g opacity="0.24">
		<path fill="#FFFFFF" d="M6.71,83.68c1.619-1.628,3.752-2.617,5.838-3.574c1.715-0.787,3.43-1.574,5.146-2.361
			c5.13-2.354,9.916-5.364,15.457-4.286c5.542,1.077,10.678,3.724,16.208,4.854c11.89,2.437,23.909-2.303,35.43-6.117
			c22.913-7.586,46.947-11.771,71.076-12.401c3.263-1.089,6.611-1.844,9.986-2.2c-27.463-0.4-54.988,3.831-81.062,12.465
			c-11.521,3.813-23.54,8.553-35.43,6.116c-5.531-1.133-10.667-3.776-16.208-4.854s-10.327,1.932-15.457,4.285
			c-1.716,0.787-3.431,1.574-5.146,2.36c-2.086,0.958-4.219,1.948-5.838,3.575c-1.521,1.527-2.494,3.761-2.063,5.85
			C4.931,86.008,5.704,84.689,6.71,83.68z"/>
	</g>
	<circle fill="#FFFFFF" cx="25.686" cy="81.683" r="4.849"/>
	<circle fill="#063E3C" cx="25.686" cy="81.683" r="3.638"/>
	<circle fill="#FFFFFF" cx="28.041" cy="79.768" r="1.284"/>
	<path fill="#063E3C" d="M8.014,83.814c-0.326,0.187-0.668,0.341-1.022,0.463c0.196-0.498,0.455-0.973,0.771-1.404
		c0.118-0.164,0.271-0.335,0.473-0.346c0.201-0.01,0.382,0.164,0.422,0.361c0.041,0.196-0.038,0.403-0.166,0.561
		C8.364,83.604,8.19,83.716,8.014,83.814z"/>
	<path fill="#65BB36" d="M47.941,89.107c0,0,0.481,0.045,1.384,0.127c0.45,0.037,1.011,0.103,1.66,0.145
		c0.644,0.021,1.383,0.049,2.212,0.079c0.826,0.021,1.752-0.026,2.751-0.035c1-0.05,2.08-0.142,3.228-0.252
		c2.297-0.251,4.856-0.744,7.603-1.454c2.745-0.727,5.651-1.768,8.665-3.025c3.008-1.278,6.122-2.784,9.301-4.461
		c0.797-0.412,1.592-0.854,2.396-1.287c0,0,5.855-2.961,7.569-3.784c1.677-0.882,3.519-1.556,5.317-2.288
		c1.811-0.719,3.613-1.469,5.433-2.161c1.847-0.608,7.363-2.435,8.276-2.735c0.91-0.307,1.847-0.529,2.762-0.797
		c1.835-0.523,3.654-1.043,5.453-1.556c1.787-0.554,3.609-0.931,5.355-1.381c3.521-0.849,6.896-1.771,10.18-2.361
		c1.631-0.328,3.218-0.649,4.75-0.959c1.533-0.326,3.013-0.637,4.447-0.853c2.861-0.477,5.483-0.914,7.81-1.301
		c2.325-0.379,4.368-0.611,6.043-0.854c3.354-0.469,5.269-0.734,5.269-0.734l0.094,0.829c0,0-1.914,0.233-5.265,0.644
		c-1.673,0.227-3.715,0.432-6.036,0.793c-2.32,0.393-4.936,0.836-7.787,1.318c-1.434,0.219-2.904,0.53-4.43,0.858
		c-1.521,0.331-3.097,0.672-4.715,1.022c-3.248,0.642-6.617,1.619-10.122,2.525c-0.876,0.23-3.552,0.93-3.974,1.057
		c-0.438,0.142-4.875,1.592-6.676,2.185c-0.895,0.312-1.809,0.578-2.695,0.927c-0.885,0.357-6.215,2.52-7.995,3.24
		c-1.746,0.788-3.47,1.622-5.192,2.425c-1.718,0.826-3.445,1.562-5.121,2.488c-3.371,1.75-6.688,3.471-9.897,5.137
		c-3.242,1.673-6.451,3.19-9.597,4.408c-3.138,1.233-6.199,2.196-9.09,2.823c-2.89,0.642-5.592,0.961-7.988,1.097
		c-1.199,0.044-2.323,0.048-3.358,0.026c-1.037-0.065-1.985-0.08-2.844-0.183c-0.856-0.106-1.621-0.2-2.286-0.284
		c-0.655-0.101-1.196-0.229-1.643-0.311c-0.889-0.178-1.363-0.271-1.363-0.271L47.941,89.107z"/>
	<g>
		<path fill="#008151" d="M121.762,60.727c-0.306-1.584-1.66-2.653-1.66-2.653s-0.858,1.497-0.554,3.081
			c0.011,0.05,0.022,0.096,0.033,0.145c0.737-0.13,1.476-0.242,2.212-0.365C121.782,60.861,121.775,60.795,121.762,60.727z"/>
		<path fill="#008151" d="M124.162,57.715c0,0-0.791,1.399-0.569,2.92c0.735-0.115,1.472-0.23,2.21-0.342
			C125.469,58.754,124.162,57.715,124.162,57.715z"/>
		<path fill="#008151" d="M117.7,61.082c-0.308-1.582-1.662-2.652-1.662-2.652s-0.856,1.498-0.552,3.081
			c0.035,0.183,0.078,0.355,0.123,0.525c0.725-0.14,1.449-0.271,2.176-0.404C117.764,61.453,117.736,61.27,117.7,61.082z"/>
		<path fill="#008151" d="M109.578,62.393c-0.307-1.584-1.662-2.653-1.662-2.653s-0.857,1.497-0.553,3.081
			c0.062,0.32,0.146,0.619,0.24,0.9c0.693-0.158,1.388-0.324,2.082-0.477C109.667,62.971,109.635,62.688,109.578,62.393z"/>
		<path fill="#008151" d="M105.518,63.343c-0.307-1.583-1.662-2.653-1.662-2.653s-0.857,1.498-0.551,3.082
			c0.062,0.322,0.146,0.621,0.239,0.903c0.692-0.17,1.386-0.337,2.081-0.501C105.604,63.906,105.573,63.631,105.518,63.343z"/>
		<path fill="#008151" d="M128.225,57.357c0,0-0.707,1.252-0.598,2.676c0.727-0.104,1.45-0.217,2.178-0.312
			C129.4,58.303,128.225,57.357,128.225,57.357z"/>
		<path fill="#008151" d="M113.639,61.439c-0.307-1.584-1.662-2.652-1.662-2.652s-0.857,1.498-0.552,3.08
			c0.067,0.346,0.156,0.666,0.259,0.963c0.69-0.145,1.381-0.291,2.071-0.43C113.736,62.095,113.703,61.773,113.639,61.439z"/>
		<path fill="#008151" d="M148.532,55.572c0,0-0.632,1.111-0.613,2.43c0.726-0.043,1.449-0.094,2.177-0.129
			C149.675,56.488,148.532,55.572,148.532,55.572z"/>
		<path fill="#008151" d="M101.457,64.295c-0.307-1.584-1.661-2.652-1.661-2.652s-0.858,1.498-0.554,3.08
			c0.068,0.348,0.158,0.67,0.262,0.971c0.688-0.182,1.376-0.348,2.062-0.521C101.547,64.891,101.516,64.6,101.457,64.295z"/>
		<path fill="#008151" d="M132.286,57.001c0,0-0.656,1.146-0.618,2.49c0.721-0.091,1.439-0.179,2.159-0.263
			C133.391,57.885,132.286,57.001,132.286,57.001z"/>
		<path fill="#008151" d="M158.316,57.511c-0.308-1.583-1.66-2.651-1.66-2.651s-0.745,1.32-0.586,2.791
			c0.755-0.019,1.509-0.025,2.262-0.037C158.327,57.578,158.323,57.545,158.316,57.511z"/>
		<path fill="#008151" d="M152.594,55.216c0,0-0.678,1.196-0.607,2.579c0.742-0.031,1.484-0.061,2.227-0.084
			C153.85,56.217,152.594,55.216,152.594,55.216z"/>
		<path fill="#008151" d="M136.348,56.645c0,0-0.609,1.076-0.611,2.366c0.709-0.077,1.422-0.145,2.133-0.215
			C137.416,57.493,136.348,56.645,136.348,56.645z"/>
		<path fill="#008151" d="M144.471,55.93c0,0-0.6,1.062-0.611,2.34c0.714-0.054,1.429-0.106,2.143-0.155
			C145.555,56.795,144.471,55.93,144.471,55.93z"/>
		<path fill="#008151" d="M140.408,56.287c0,0-0.59,1.048-0.609,2.314c0.709-0.066,1.418-0.119,2.127-0.179
			C141.471,57.13,140.408,56.287,140.408,56.287z"/>
		<path fill="#008151" d="M66.818,74.93c-0.306-1.584-1.642-2.656-1.642-2.656s-0.841,1.494-0.534,3.078
			c0.042,0.213,0.09,0.416,0.146,0.612c0.708-0.134,1.415-0.282,2.122-0.44C66.887,75.33,66.857,75.131,66.818,74.93z"/>
		<path fill="#008151" d="M47.189,75.406c0.392-1.563-0.365-3.102-0.365-3.102s-1.393,0.998-1.785,2.562
			c-0.012,0.046-0.018,0.089-0.029,0.134c0.702,0.226,1.406,0.437,2.114,0.63C47.146,75.557,47.17,75.484,47.189,75.406z"/>
		<path fill="#008151" d="M54.488,73.842c0,0-1.294,1.123-1.538,2.719c-0.006,0.041-0.009,0.08-0.014,0.119
			c0.737,0.066,1.473,0.111,2.211,0.131C55.348,75.25,54.488,73.842,54.488,73.842z"/>
		<path fill="#008151" d="M97.396,65.246c-0.307-1.584-1.662-2.652-1.662-2.652s-0.857,1.498-0.551,3.08
			c0.078,0.403,0.185,0.78,0.31,1.117c0.673-0.189,1.348-0.371,2.022-0.555C97.499,65.923,97.462,65.591,97.396,65.246z"/>
		<path fill="#008151" d="M43.597,74.158c0.392-1.564-0.366-3.102-0.366-3.102s-1.394,0.998-1.786,2.562
			c-0.014,0.055-0.021,0.104-0.033,0.159c0.693,0.244,1.388,0.486,2.083,0.724C43.53,74.389,43.567,74.277,43.597,74.158z"/>
		<path fill="#008151" d="M63.136,75.688c-0.307-1.582-1.643-2.655-1.643-2.655s-0.84,1.495-0.533,3.077
			c0.028,0.146,0.063,0.285,0.098,0.425c0.722-0.085,1.442-0.185,2.163-0.3C63.199,76.057,63.173,75.874,63.136,75.688z"/>
		<path fill="#008151" d="M40.044,72.568c0.392-1.564-0.366-3.103-0.366-3.103s-1.394,0.998-1.786,2.562
			c-0.044,0.177-0.078,0.351-0.109,0.521c0.689,0.22,1.374,0.447,2.058,0.685C39.916,73.021,39.986,72.802,40.044,72.568z"/>
		<path fill="#008151" d="M36.229,71.32c0.393-1.564-0.365-3.104-0.365-3.104s-1.393,0.999-1.785,2.562
			c-0.062,0.246-0.106,0.484-0.14,0.719c0.697,0.152,1.388,0.327,2.073,0.521C36.093,71.797,36.167,71.566,36.229,71.32z"/>
		<path fill="#008151" d="M58.128,73.809c0,0-1.122,1.295-1.139,2.907c0,0.034,0.004,0.066,0.004,0.101
			c0.737-0.017,1.475-0.051,2.211-0.106C59.207,75.109,58.128,73.809,58.128,73.809z"/>
		<path fill="#008151" d="M89.797,68.4c-0.307-1.582-1.643-2.655-1.643-2.655s-0.84,1.494-0.535,3.077
			c0.021,0.104,0.048,0.205,0.072,0.307c0.705-0.223,1.408-0.455,2.113-0.672C89.803,68.438,89.801,68.42,89.797,68.4z"/>
		<path fill="#008151" d="M80.5,68.615c0,0-0.833,1.484-0.537,3.061c0.701-0.234,1.399-0.47,2.096-0.703
			C81.656,69.559,80.5,68.615,80.5,68.615z"/>
		<path fill="#008151" d="M93.578,66.827c-0.307-1.583-1.645-2.656-1.645-2.656s-0.84,1.494-0.533,3.077
			c0.047,0.24,0.104,0.467,0.17,0.686c0.693-0.207,1.388-0.416,2.082-0.617C93.634,67.156,93.611,66.994,93.578,66.827z"/>
		<path fill="#008151" d="M74.396,72.846c-0.306-1.582-1.642-2.656-1.642-2.656s-0.841,1.494-0.534,3.078
			c0.055,0.287,0.129,0.558,0.21,0.812c0.688-0.201,1.373-0.407,2.058-0.62C74.466,73.26,74.436,73.057,74.396,72.846z"/>
		<path fill="#008151" d="M70.571,73.682c-0.307-1.584-1.644-2.656-1.644-2.656s-0.84,1.494-0.534,3.076
			c0.069,0.359,0.163,0.694,0.27,1.004c0.674-0.17,1.347-0.346,2.02-0.529C70.664,74.289,70.63,73.991,70.571,73.682z"/>
		<path fill="#008151" d="M78.27,72.059c-0.307-1.582-1.644-2.656-1.644-2.656s-0.84,1.494-0.534,3.078
			c0.03,0.152,0.066,0.297,0.103,0.441c0.702-0.227,1.402-0.455,2.101-0.688C78.286,72.176,78.281,72.119,78.27,72.059z"/>
		<path fill="#008151" d="M162.443,57.578c-0.02-0.141-0.036-0.279-0.065-0.424c-0.306-1.584-1.661-2.652-1.661-2.652
			s-0.857,1.496-0.552,3.078C160.925,57.574,161.684,57.578,162.443,57.578z"/>
		<path fill="#008151" d="M32.394,71.204c0.082-0.228,0.16-0.466,0.223-0.72c0.392-1.563-0.366-3.103-0.366-3.103
			s-1.394,0.999-1.784,2.562c-0.102,0.406-0.165,0.801-0.194,1.164C30.97,71.08,31.676,71.109,32.394,71.204z"/>
		<path fill="#008151" d="M85.938,69.689c-0.399-1.422-1.563-2.371-1.563-2.371s-0.831,1.481-0.536,3.057
			C84.154,70.27,85.555,69.814,85.938,69.689z"/>
		<path fill="#008151" d="M50.957,76.441c0.027-0.094,0.057-0.184,0.082-0.279c0.393-1.564-0.366-3.102-0.366-3.102
			s-1.393,0.998-1.786,2.562c-0.035,0.142-0.062,0.278-0.088,0.418c0.188,0.041,0.372,0.094,0.561,0.133
			C49.892,76.283,50.423,76.361,50.957,76.441z"/>
	</g>
	<path fill="#D1D3D4" d="M89.746,130.424c-1.284,0.559-2.403,0.684-3.795,0.537c-0.09-1.035,0.303-2.102,1.041-2.831
		c0.738-0.731,1.81-1.11,2.843-1.011C90.637,128.508,90.211,129.311,89.746,130.424z"/>
	<path fill="#D1D3D4" d="M92.275,130.979c-1.283,0.558-2.402,0.685-3.795,0.535c-0.09-1.033,0.304-2.1,1.043-2.83
		c0.738-0.729,1.808-1.109,2.842-1.011C92.986,129.061,92.939,129.898,92.275,130.979z"/>
	<path fill="#D1D3D4" d="M94.863,131.291c-1.281,0.559-2.401,0.686-3.795,0.538c-0.088-1.036,0.306-2.103,1.043-2.831
		c0.738-0.73,1.809-1.111,2.843-1.012C95.406,128.521,95.918,130.479,94.863,131.291z"/>
	<path fill="#D1D3D4" d="M73.709,126.102c-1.284,0.559-2.404,0.685-3.794,0.537c-0.089-1.035,0.303-2.102,1.041-2.832
		c0.738-0.73,1.808-1.109,2.843-1.01C74.6,124.186,74.173,124.988,73.709,126.102z"/>
	<path fill="#D1D3D4" d="M76.239,126.656c-1.284,0.558-2.403,0.685-3.794,0.535c-0.089-1.033,0.303-2.1,1.041-2.83
		c0.738-0.729,1.809-1.111,2.843-1.012C76.948,124.736,76.903,125.575,76.239,126.656z"/>
	<path fill="#D1D3D4" d="M78.828,126.969c-1.284,0.559-2.403,0.684-3.794,0.536c-0.088-1.034,0.303-2.101,1.042-2.83
		c0.738-0.731,1.808-1.11,2.842-1.011C79.37,124.199,79.882,126.156,78.828,126.969z"/>
	<path fill="#ACCE9A" d="M160.188,58.574c-11.33,2.669-21.965,9.523-29.623,18.183c-3.082,3.482-5.705,7.343-8.443,11.103
		c-0.043-0.262-0.077-0.523-0.137-0.784c-0.326-1.474-1.168-3.14-2.297-4.611c4.467-3.664,8.846-7.463,13.431-10.962
		C141.139,65.38,150.354,60.031,160.188,58.574z M70.039,108.176c0.145,0.758,0.133,1.518,0.034,2.271
		c10.523,1.878,21.63,0.23,31.284-4.389c-0.146-0.23-0.289-0.461-0.428-0.695c-1.599-2.693-2.555-5.785-2.769-8.908
		c-10.522,4.492-22.258,6.089-33.627,4.743c0.587,1.479,0.906,3.067,1.675,4.459C66.989,107.07,68.427,108.301,70.039,108.176z
		 M56.632,99.923c0.027-0.053,0.062-0.101,0.09-0.151c-4.016-0.979-7.94-2.323-11.689-4.078c-0.669,0.859-1.338,1.72-2.007,2.578
		c4.763,2.062,9.407,5.188,14.246,7.729C56.119,104.044,55.454,102.137,56.632,99.923z"/>
	<g opacity="0.19">
		<path fill="#ACCE9A" d="M138.296,69.443c-0.302,0.238-0.598,0.483-0.896,0.729C137.698,69.928,137.994,69.684,138.296,69.443z"/>
		<path fill="#ACCE9A" d="M70.075,110.427l-0.001,0.021c10.523,1.878,21.63,0.23,31.283-4.389
			C91.705,110.669,80.599,112.307,70.075,110.427z"/>
		<path fill="#ACCE9A" d="M136.41,71.006c-0.273,0.236-0.547,0.475-0.814,0.714C135.863,71.479,136.137,71.242,136.41,71.006z"/>
		<path fill="#ACCE9A" d="M140.236,67.96c-0.336,0.246-0.662,0.5-0.992,0.752C139.574,68.46,139.9,68.205,140.236,67.96z"/>
		<path fill="#ACCE9A" d="M67.981,107.596c0.484,0.313,1.017,0.521,1.582,0.567c-0.246-0.233-0.6-0.368-0.917-0.386
			C68.406,107.768,68.188,107.695,67.981,107.596z"/>
		<path fill="#ACCE9A" d="M151.801,61.35c-0.574,0.245-1.146,0.504-1.716,0.771C150.652,61.854,151.227,61.594,151.801,61.35z"/>
		<path fill="#ACCE9A" d="M143.857,65.51c-0.973,0.61-1.926,1.252-2.863,1.916C141.934,66.762,142.884,66.119,143.857,65.51z"/>
		<path fill="#ACCE9A" d="M122.12,87.859c2.737-3.762,5.36-7.62,8.442-11.104c-3.076,3.479-5.709,7.318-8.447,11.07L122.12,87.859z"
			/>
		<path fill="#ACCE9A" d="M149.646,62.326c-0.533,0.254-1.062,0.517-1.586,0.788C148.586,62.844,149.113,62.58,149.646,62.326z"/>
		<path fill="#ACCE9A" d="M134.568,72.658c-0.242,0.226-0.483,0.449-0.721,0.678C134.085,73.107,134.326,72.884,134.568,72.658z"/>
		<path fill="#ACCE9A" d="M145.507,64.52c-0.503,0.293-1.005,0.586-1.499,0.896C144.502,65.105,145.004,64.812,145.507,64.52z"/>
		<path fill="#ACCE9A" d="M147.537,63.391c-0.506,0.27-1.012,0.541-1.512,0.826C146.525,63.932,147.031,63.658,147.537,63.391z"/>
		<path fill="#ACCE9A" d="M160.188,58.574c-2.783,0.656-5.521,1.564-8.187,2.691C154.665,60.141,157.404,59.229,160.188,58.574z"/>
		<path fill="#ACCE9A" d="M66.209,105.656c0.204,0.371,0.455,0.727,0.742,1.05c-0.278-0.381-0.548-0.769-0.797-1.165
			C66.174,105.578,66.188,105.618,66.209,105.656z"/>
		<path fill="#ACCE9A" d="M56.733,104.986c0.117,0.316,0.246,0.635,0.397,0.938c0.048,0.024,0.094,0.05,0.142,0.075
			C57.073,105.664,56.896,105.325,56.733,104.986z"/>
		<path fill="#ACCE9A" d="M43.026,98.271c2.971,1.287,5.896,2.986,8.852,4.701C48.923,101.257,45.998,99.559,43.026,98.271z"/>
		<path fill="#ACCE9A" d="M132.169,75.018c0.187-0.193,0.378-0.383,0.567-0.574C132.547,74.635,132.354,74.823,132.169,75.018z"/>
		<path fill="#ACCE9A" d="M99.582,102.607c0.302,0.863,0.714,1.701,1.203,2.492C100.326,104.301,99.927,103.467,99.582,102.607z"/>
		<path fill="#427E2E" d="M56.481,100.453c0.005-0.02,0.014-0.032,0.02-0.051c-0.021-0.012-2.212-1.069-3.275-1.596
			c-7.628-3.771-14.99-7.52-23.343-5.681c-6.288,1.384-13.044,0.442-18.751-2.521c-0.907,0.567-1.81,1.137-2.654,1.707
			c6.17,4.188,14.08,5.724,21.368,4.142c4.633-1.005,8.954-0.013,13.181,1.815c2.971,1.287,5.897,2.985,8.852,4.701
			c1.735,1.006,3.48,2.019,5.252,2.953c-0.151-0.305-0.28-0.622-0.397-0.938C56.193,103.525,56.029,101.96,56.481,100.453z"/>
		<path fill="#427E2E" d="M100.785,105.102c-0.489-0.793-0.901-1.631-1.203-2.492c-0.13-0.37-0.242-0.742-0.329-1.119
			c-0.024,0.01-0.048,0.019-0.071,0.029c-10.576,4.491-22.654,5.52-33.719,2.385c-0.078-0.022-0.158-0.04-0.237-0.062
			c0.276,0.59,0.588,1.154,0.929,1.7c0.249,0.396,0.519,0.784,0.797,1.165c0.098,0.135,0.194,0.271,0.294,0.402
			c0.23,0.189,0.473,0.361,0.735,0.485c0.208,0.101,0.425,0.173,0.665,0.185c0.317,0.017,0.671,0.15,0.917,0.385
			c0.148,0.145,0.257,0.322,0.29,0.535c0.093,0.604,0.052,1.152-0.07,1.681c0.097,0.019,0.195,0.03,0.292,0.048
			c10.524,1.881,21.63,0.242,31.282-4.367c0.016-0.009,0.029-0.02,0.045-0.026C101.184,105.73,100.98,105.417,100.785,105.102z"/>
		<path fill="#427E2E" d="M132.736,74.441c0.367-0.371,0.734-0.74,1.111-1.105c0.236-0.229,1.399-1.307,1.746-1.616
			c0.27-0.239,0.541-0.478,0.815-0.714c0.327-0.281,1.584-1.322,1.886-1.562c0.312-0.248,1.605-1.236,1.941-1.482
			c0.248-0.184,0.506-0.355,0.757-0.534c0.938-0.663,1.892-1.306,2.864-1.916c0.051-0.03,0.1-0.063,0.148-0.096
			c0.494-0.31,0.996-0.603,1.499-0.896c0.175-0.101,0.345-0.203,0.519-0.303c0.5-0.285,1.006-0.558,1.513-0.826
			c0.175-0.093,0.349-0.186,0.522-0.275c0.525-0.271,1.055-0.534,1.586-0.788c0.146-0.07,0.293-0.14,0.438-0.207
			c0.567-0.267,1.142-0.524,1.716-0.771c0.067-0.029,0.135-0.057,0.2-0.084c2.664-1.127,5.403-2.035,8.187-2.69
			c1.873-0.441,3.765-0.78,5.666-0.981c-4.853-0.07-9.705,0.012-14.552,0.229c-7.929,3.496-15.151,8.912-20.764,15.295
			c-0.397,0.453-9.707,11.33-9.748,11.379c0.058,0.193,0.11,0.386,0.17,0.578c0.468,0.936,0.799,1.938,1.004,2.962
			c0.052-0.068,0.101-0.138,0.151-0.207c2.738-3.752,5.371-7.593,8.447-11.07c0.521-0.589,1.059-1.167,1.605-1.739
			C132.354,74.823,132.547,74.635,132.736,74.441z"/>
	</g>
	<g>
		<path fill="#65BB36" d="M30.133,96.402c0.859-0.172,1.707-0.273,2.545-0.314c1.479-1.068,2.727-2.453,3.59-4.062
			c1.858-3.465,1.883-7.851,0.065-11.336c0.608,3.545,0,7.289-1.701,10.459C33.535,93.198,31.979,94.992,30.133,96.402z"/>
		<path fill="#65BB36" d="M14.233,94.545c-0.175,0.18-0.363,0.346-0.546,0.518c0.64,0.256,1.29,0.484,1.948,0.69
			c2.681-2.826,3.875-6.995,3.081-10.812C18.337,88.52,16.731,91.956,14.233,94.545z"/>
		<path fill="#65BB36" d="M40.256,94.979c1.83-2.033,3.221-4.596,3.289-7.33c0.067-2.735-1.446-5.52-3.486-6.756
			c1.036,3.428,0.943,7.187-0.262,10.558c-0.639,1.786-1.596,3.454-2.79,4.928c0.493,0.091,0.982,0.196,1.47,0.319
			C39.107,96.163,39.705,95.593,40.256,94.979z"/>
		<path fill="#65BB36" d="M46.469,94.74c1.86-3.467,1.885-7.852,0.065-11.338c0.609,3.546,0,7.289-1.7,10.459
			c-0.78,1.455-1.795,2.777-2.975,3.93c0.505,0.199,1.011,0.41,1.514,0.634C44.636,97.416,45.705,96.166,46.469,94.74z"/>
	</g>
</g>
<path fill="#909091" d="M12.639,88.7c-0.566-0.007-1.246,0.099-1.071,0.073c-0.022,0.12,0.221,0.79,0.414,1.255
	C12.184,89.601,12.35,89.313,12.639,88.7z"/>
<path fill="#909091" d="M9.098,88.791c0.204,0.522,0.405,1.044,0.607,1.564c0.252-0.577,0.5-1.14,0.688-1.573
	C9.962,88.785,9.53,88.788,9.098,88.791z"/>
<path fill="#909091" d="M6.921,88.546c0.124,0.591,0.262,1.046,0.386,1.637c0.264-0.521,0.517-0.931,0.781-1.451
	C7.699,88.661,7.31,88.615,6.921,88.546z"/>
<path fill="#909091" d="M8.733,92.208c-0.032-0.569-0.063-1.137-0.094-1.707c0.339,0.381,0.678,0.762,1.017,1.144
	C9.348,91.833,9.041,92.02,8.733,92.208z"/>
<path fill="#909091" d="M10.685,91.174c-0.075-0.55-0.149-1.103-0.224-1.653c0.36,0.345,0.719,0.688,1.078,1.032
	C11.255,90.761,10.97,90.967,10.685,91.174z"/>
</svg>
