<?xml version="1.0" encoding="utf-8"?>
<!-- Generator: Adobe Illustrator 16.0.4, SVG Export Plug-In . SVG Version: 6.00 Build 0)  -->
<!DOCTYPE svg PUBLIC "-//W3C//DTD SVG 1.1//EN" "http://www.w3.org/Graphics/SVG/1.1/DTD/svg11.dtd">
<svg version="1.1" id="Layer_1" xmlns="http://www.w3.org/2000/svg" xmlns:xlink="http://www.w3.org/1999/xlink" x="0px" y="0px"
	 width="170px" height="170px" viewBox="0 0 170 170" enable-background="new 0 0 170 170" xml:space="preserve">
<title>Artboard 9</title>
<g>
	<path fill="#8DC63F" d="M84.789,103.057c-11.521,3.814-23.54,8.553-35.43,6.117c-5.531-1.133-10.667-3.777-16.208-4.855
		c-5.541-1.078-10.327,1.932-15.457,4.286c-1.716,0.786-3.431,1.573-5.146,2.36c-2.086,0.958-4.219,1.948-5.838,3.575
		c-1.619,1.626-2.639,4.052-1.981,6.25c3.172,1.461,6.097,0.999,9.583,0.777c-1.854,1.253-3.979,2.493-5.833,3.747
		c6.17,4.188,14.08,5.723,21.368,4.141c9.854-2.138,18.293,4.745,27.426,9.546c0.044,0.072,0.083,0.146,0.127,0.22
		c1.894,3.126,4.249,4.661,7.518,5.471c-0.517,2.55-1.45,5.423-1.967,7.975c-0.284,1.403-0.571,2.847-0.337,4.26
		s1.937,4.091,2.466,3.259c0.307-0.48-1.618-3.08-1.515-4.761c0.291,1.528,1.574,2.789,3.073,3.154
		c0.281,0.067,0.459-0.275,0.254-0.479c-0.923-0.924-1.563-2.305-1.74-3.537c0.969,1.479,2.972,2.117,4.69,1.704
		c0.329-0.079,0.352-0.56,0.026-0.655c-1.375-0.41-2.603-1.254-3.381-2.465c0.714-1.703,1.427-3.407,2.142-5.109
		c0.62-1.479,1.238-3.027,1.446-4.59c10.524,1.879,21.63,0.231,31.284-4.388c0.799,1.271,1.651,2.524,2.056,3.963
		c0.62,2.199,0.117,4.539-0.387,6.768c-0.501,2.21-1.124,4.614-2.954,5.948c-1.629,1.188-3.793,1.216-5.761,1.658
		c-2.95,0.664-5.65,2.382-7.503,4.771c2.979,0.654,5.96,1.308,8.941,1.962c3.007-2.326,7.138-3.564,10.93-3.831
		c5.768-9.087,12.012-18.478,14.55-28.936c0.835-3.438,1.468-7.028,0.891-10.502c2.738-3.761,5.361-7.62,8.443-11.103
		c8.926-10.091,21.891-17.749,35.289-19.164C138.389,90.191,110.863,94.424,84.789,103.057z"/>
	<path fill="#7C9F3A" d="M52.901,136.564c-2.606-1.508-5.184-3.033-7.782-4.315c0.301,2.547,1.357,4.571,3.145,6.525
		c-1.842,1.838-4.211,3.712-6.053,5.55c-1.016,1.011-2.052,2.055-2.64,3.361c-0.588,1.306-0.654,4.479,0.248,4.08
		c0.521-0.231,0.358-3.463,1.375-4.804c-0.605,1.433-0.234,3.194,0.811,4.328c0.196,0.211,0.534,0.024,0.478-0.259
		c-0.257-1.28-0.025-2.785,0.509-3.909c-0.011,1.768,1.302,3.408,2.961,4.018c0.318,0.115,0.602-0.272,0.386-0.533
		c-0.918-1.102-1.474-2.484-1.451-3.923c1.538-1.023,3.075-2.048,4.613-3.069c1.98-1.316,4.054-2.737,4.976-4.931
		C53.675,138.236,53.17,137.45,52.901,136.564z"/>
	<path fill="#7C9F3A" d="M100.143,139.613c-4.087,1.829-8.414,3.135-12.832,3.874c-0.1,0.503-0.209,1.002-0.321,1.496
		c-0.5,2.208-1.124,4.613-2.955,5.947c-1.628,1.189-3.792,1.217-5.76,1.659c-2.95,0.663-5.652,2.381-7.504,4.771
		c2.981,0.654,5.961,1.308,8.942,1.961c3.006-2.326,7.137-3.565,10.93-3.832C93.911,150.342,97.33,145.097,100.143,139.613z"/>
	<g opacity="0.24">
		<path fill="#FFFFFF" d="M6.71,116.679c1.619-1.627,3.752-2.616,5.838-3.574c1.715-0.787,3.43-1.574,5.146-2.361
			c5.13-2.354,9.916-5.364,15.457-4.286c5.542,1.077,10.678,3.723,16.208,4.855c11.89,2.436,23.909-2.303,35.43-6.117
			c22.913-7.586,46.947-11.771,71.076-12.402c3.263-1.089,6.611-1.844,9.987-2.2c-27.464-0.401-54.989,3.831-81.063,12.464
			c-11.521,3.814-23.54,8.553-35.43,6.117c-5.531-1.133-10.667-3.777-16.208-4.855c-5.541-1.078-10.327,1.932-15.457,4.286
			c-1.716,0.786-3.431,1.573-5.146,2.36c-2.086,0.958-4.219,1.948-5.838,3.575c-1.521,1.528-2.494,3.761-2.063,5.849
			C4.931,119.008,5.704,117.689,6.71,116.679z"/>
	</g>
	<circle fill="#FFFFFF" cx="25.686" cy="114.683" r="4.849"/>
	<circle fill="#063E3C" cx="25.686" cy="114.683" r="3.638"/>
	<circle fill="#FFFFFF" cx="28.041" cy="112.768" r="1.284"/>
	<path fill="#063E3C" d="M8.014,116.815c-0.326,0.186-0.668,0.34-1.022,0.462c0.196-0.498,0.455-0.972,0.771-1.404
		c0.118-0.164,0.271-0.335,0.473-0.346c0.201-0.01,0.382,0.164,0.422,0.361c0.041,0.197-0.038,0.404-0.166,0.561
		C8.364,116.604,8.19,116.716,8.014,116.815z"/>
	<path fill="#65BB36" d="M47.941,122.108c0,0,0.481,0.044,1.384,0.127c0.45,0.037,1.011,0.102,1.66,0.144
		c0.644,0.022,1.383,0.049,2.212,0.079c0.826,0.021,1.752-0.026,2.751-0.035c1-0.05,2.08-0.142,3.228-0.252
		c2.297-0.251,4.856-0.744,7.603-1.454c2.745-0.727,5.651-1.768,8.665-3.025c3.008-1.279,6.122-2.785,9.301-4.461
		c0.797-0.412,1.592-0.854,2.396-1.287c0,0,5.855-2.961,7.569-3.785c1.676-0.882,3.518-1.555,5.318-2.288
		c1.81-0.719,3.612-1.469,5.432-2.161c1.846-0.609,7.363-2.434,8.277-2.736c0.91-0.306,1.846-0.529,2.761-0.796
		c1.835-0.523,3.655-1.043,5.453-1.556c1.787-0.553,3.61-0.931,5.355-1.381c3.521-0.849,6.897-1.77,10.18-2.361
		c1.631-0.328,3.218-0.649,4.751-0.959c1.532-0.326,3.012-0.637,4.446-0.852c2.862-0.477,5.484-0.914,7.81-1.301
		c2.326-0.379,4.368-0.612,6.043-0.854c3.354-0.468,5.269-0.735,5.269-0.735l0.094,0.83c0,0-1.915,0.233-5.265,0.644
		c-1.673,0.226-3.715,0.431-6.037,0.793c-2.319,0.392-4.935,0.835-7.787,1.317c-1.433,0.219-2.904,0.531-4.429,0.859
		c-1.522,0.331-3.097,0.672-4.715,1.023c-3.248,0.641-6.617,1.618-10.122,2.525c-0.876,0.23-3.552,0.93-3.973,1.056
		c-0.439,0.142-4.875,1.593-6.677,2.185c-0.894,0.311-1.808,0.578-2.695,0.927c-0.885,0.358-6.214,2.519-7.995,3.24
		c-1.746,0.788-3.469,1.622-5.193,2.425c-1.717,0.826-3.445,1.561-5.12,2.488c-3.371,1.75-6.688,3.471-9.898,5.137
		c-3.242,1.673-6.451,3.19-9.597,4.408c-3.138,1.233-6.199,2.197-9.09,2.824c-2.89,0.641-5.592,0.961-7.988,1.096
		c-1.199,0.044-2.323,0.048-3.358,0.027c-1.037-0.066-1.985-0.081-2.844-0.183c-0.856-0.106-1.621-0.201-2.286-0.284
		c-0.655-0.101-1.196-0.229-1.643-0.311c-0.889-0.177-1.363-0.271-1.363-0.271L47.941,122.108z"/>
	<g>
		<path fill="#008151" d="M121.762,93.726c-0.306-1.584-1.661-2.653-1.661-2.653s-0.858,1.498-0.553,3.081
			c0.01,0.05,0.023,0.096,0.033,0.145c0.737-0.13,1.476-0.243,2.212-0.366C121.782,93.862,121.775,93.795,121.762,93.726z"/>
		<path fill="#008151" d="M124.162,90.715c0,0-0.791,1.399-0.569,2.92c0.735-0.116,1.472-0.23,2.21-0.342
			C125.469,91.754,124.162,90.715,124.162,90.715z"/>
		<path fill="#008151" d="M117.7,94.082c-0.307-1.582-1.662-2.652-1.662-2.652s-0.857,1.498-0.552,3.081
			c0.035,0.182,0.078,0.355,0.123,0.525c0.725-0.14,1.45-0.271,2.176-0.404C117.764,94.453,117.737,94.27,117.7,94.082z"/>
		<path fill="#008151" d="M109.578,95.392c-0.307-1.584-1.662-2.653-1.662-2.653s-0.857,1.498-0.552,3.081
			c0.062,0.321,0.146,0.62,0.239,0.901c0.694-0.158,1.388-0.324,2.083-0.477C109.667,95.971,109.635,95.688,109.578,95.392z"/>
		<path fill="#008151" d="M105.517,96.343c-0.306-1.583-1.661-2.653-1.661-2.653s-0.858,1.498-0.552,3.081
			c0.062,0.323,0.146,0.622,0.24,0.904c0.692-0.17,1.386-0.337,2.081-0.501C105.604,96.906,105.573,96.631,105.517,96.343z"/>
		<path fill="#008151" d="M128.224,90.358c0,0-0.706,1.251-0.597,2.675c0.726-0.104,1.45-0.216,2.177-0.312
			C129.401,91.303,128.224,90.358,128.224,90.358z"/>
		<path fill="#008151" d="M113.638,94.439c-0.306-1.583-1.661-2.652-1.661-2.652s-0.858,1.498-0.552,3.08
			c0.067,0.346,0.156,0.666,0.259,0.963c0.69-0.145,1.38-0.291,2.071-0.43C113.737,95.095,113.703,94.773,113.638,94.439z"/>
		<path fill="#008151" d="M148.532,88.572c0,0-0.632,1.111-0.613,2.43c0.725-0.043,1.449-0.094,2.176-0.129
			C149.675,89.488,148.532,88.572,148.532,88.572z"/>
		<path fill="#008151" d="M101.457,97.295c-0.307-1.584-1.661-2.652-1.661-2.652s-0.858,1.497-0.554,3.08
			c0.068,0.347,0.159,0.67,0.262,0.97c0.687-0.181,1.376-0.347,2.063-0.521C101.547,97.891,101.516,97.599,101.457,97.295z"/>
		<path fill="#008151" d="M132.286,90.001c0,0-0.656,1.146-0.618,2.49c0.721-0.09,1.44-0.179,2.159-0.263
			C133.391,90.885,132.286,90.001,132.286,90.001z"/>
		<path fill="#008151" d="M158.316,90.511c-0.307-1.583-1.66-2.652-1.66-2.652s-0.745,1.321-0.585,2.792
			c0.754-0.019,1.508-0.026,2.261-0.038C158.327,90.578,158.323,90.545,158.316,90.511z"/>
		<path fill="#008151" d="M152.594,88.216c0,0-0.678,1.196-0.607,2.579c0.741-0.031,1.483-0.061,2.226-0.084
			C153.849,89.217,152.594,88.216,152.594,88.216z"/>
		<path fill="#008151" d="M136.347,89.645c0,0-0.608,1.076-0.61,2.366c0.709-0.077,1.421-0.145,2.132-0.215
			C137.416,90.493,136.347,89.645,136.347,89.645z"/>
		<path fill="#008151" d="M144.471,88.93c0,0-0.6,1.062-0.611,2.34c0.713-0.054,1.428-0.107,2.142-0.156
			C145.555,89.795,144.471,88.93,144.471,88.93z"/>
		<path fill="#008151" d="M140.408,89.287c0,0-0.59,1.048-0.609,2.314c0.709-0.066,1.418-0.119,2.127-0.178
			C141.471,90.13,140.408,89.287,140.408,89.287z"/>
		<path fill="#008151" d="M66.818,107.93c-0.306-1.584-1.642-2.656-1.642-2.656s-0.841,1.494-0.534,3.078
			c0.042,0.212,0.09,0.416,0.146,0.612c0.708-0.134,1.415-0.282,2.122-0.44C66.887,108.33,66.857,108.131,66.818,107.93z"/>
		<path fill="#008151" d="M47.189,108.406c0.392-1.563-0.365-3.101-0.365-3.101s-1.393,0.998-1.785,2.562
			c-0.012,0.046-0.018,0.089-0.029,0.134c0.702,0.225,1.406,0.437,2.114,0.63C47.146,108.557,47.17,108.484,47.189,108.406z"/>
		<path fill="#008151" d="M54.488,106.842c0,0-1.294,1.123-1.538,2.719c-0.006,0.04-0.009,0.079-0.014,0.119
			c0.737,0.066,1.473,0.111,2.211,0.131C55.348,108.25,54.488,106.842,54.488,106.842z"/>
		<path fill="#008151" d="M97.396,98.246c-0.306-1.584-1.661-2.652-1.661-2.652s-0.858,1.498-0.552,3.08
			c0.078,0.403,0.185,0.78,0.31,1.117c0.673-0.189,1.348-0.371,2.022-0.555C97.499,98.923,97.462,98.591,97.396,98.246z"/>
		<path fill="#008151" d="M43.597,107.158c0.392-1.564-0.366-3.102-0.366-3.102s-1.394,0.998-1.786,2.562
			c-0.014,0.055-0.021,0.105-0.033,0.16c0.693,0.243,1.388,0.485,2.083,0.723C43.53,107.388,43.567,107.277,43.597,107.158z"/>
		<path fill="#008151" d="M63.136,108.688c-0.307-1.583-1.643-2.656-1.643-2.656s-0.84,1.495-0.533,3.077
			c0.028,0.146,0.063,0.285,0.098,0.425c0.722-0.085,1.442-0.184,2.163-0.3C63.199,109.057,63.173,108.874,63.136,108.688z"/>
		<path fill="#008151" d="M40.044,105.568c0.392-1.564-0.366-3.102-0.366-3.102s-1.394,0.998-1.786,2.562
			c-0.044,0.176-0.078,0.35-0.109,0.52c0.689,0.219,1.374,0.447,2.058,0.684C39.916,106.021,39.986,105.802,40.044,105.568z"/>
		<path fill="#008151" d="M36.229,104.32c0.393-1.564-0.365-3.103-0.365-3.103s-1.393,0.999-1.785,2.562
			c-0.062,0.247-0.106,0.485-0.14,0.719c0.697,0.153,1.388,0.327,2.073,0.521C36.093,104.797,36.167,104.566,36.229,104.32z"/>
		<path fill="#008151" d="M58.128,106.808c0,0-1.122,1.296-1.139,2.908c0,0.034,0.004,0.066,0.004,0.101
			c0.737-0.017,1.475-0.052,2.211-0.107C59.207,108.11,58.128,106.808,58.128,106.808z"/>
		<path fill="#008151" d="M89.797,101.401c-0.307-1.583-1.643-2.656-1.643-2.656s-0.84,1.494-0.535,3.077
			c0.021,0.105,0.048,0.205,0.073,0.307c0.704-0.223,1.407-0.455,2.113-0.672C89.803,101.438,89.801,101.42,89.797,101.401z"/>
		<path fill="#008151" d="M80.5,101.615c0,0-0.833,1.484-0.537,3.061c0.701-0.234,1.399-0.47,2.096-0.704
			C81.656,102.559,80.5,101.615,80.5,101.615z"/>
		<path fill="#008151" d="M93.578,99.827c-0.306-1.583-1.644-2.656-1.644-2.656s-0.84,1.494-0.533,3.077
			c0.046,0.24,0.104,0.467,0.169,0.686c0.694-0.207,1.388-0.416,2.083-0.617C93.634,100.156,93.611,99.994,93.578,99.827z"/>
		<path fill="#008151" d="M74.396,105.846c-0.306-1.583-1.642-2.656-1.642-2.656s-0.841,1.494-0.534,3.077
			c0.055,0.288,0.129,0.558,0.21,0.813c0.688-0.201,1.373-0.407,2.058-0.62C74.466,106.26,74.436,106.056,74.396,105.846z"/>
		<path fill="#008151" d="M70.571,106.681c-0.307-1.583-1.644-2.655-1.644-2.655s-0.84,1.493-0.534,3.076
			c0.069,0.359,0.163,0.694,0.27,1.003c0.674-0.169,1.347-0.345,2.02-0.529C70.664,107.289,70.63,106.991,70.571,106.681z"/>
		<path fill="#008151" d="M78.27,105.059c-0.307-1.583-1.644-2.656-1.644-2.656s-0.84,1.494-0.534,3.078
			c0.03,0.152,0.066,0.297,0.103,0.441c0.702-0.227,1.402-0.455,2.101-0.688C78.286,105.176,78.281,105.119,78.27,105.059z"/>
		<path fill="#008151" d="M162.443,90.578c-0.019-0.14-0.036-0.279-0.065-0.424c-0.306-1.584-1.661-2.652-1.661-2.652
			s-0.857,1.496-0.552,3.078C160.925,90.574,161.684,90.578,162.443,90.578z"/>
		<path fill="#008151" d="M32.394,104.204c0.082-0.228,0.16-0.466,0.223-0.72c0.392-1.563-0.366-3.102-0.366-3.102
			s-1.394,0.999-1.784,2.562c-0.102,0.406-0.165,0.8-0.194,1.164C30.97,104.08,31.676,104.11,32.394,104.204z"/>
		<path fill="#008151" d="M85.938,102.69c-0.4-1.423-1.564-2.371-1.564-2.371s-0.831,1.481-0.536,3.056
			C84.154,103.27,85.555,102.814,85.938,102.69z"/>
		<path fill="#008151" d="M50.957,109.442c0.027-0.094,0.057-0.184,0.082-0.28c0.393-1.564-0.366-3.102-0.366-3.102
			s-1.393,0.998-1.786,2.562c-0.035,0.142-0.062,0.279-0.088,0.418c0.188,0.041,0.372,0.094,0.561,0.133
			C49.892,109.283,50.423,109.361,50.957,109.442z"/>
	</g>
	<path fill="#D1D3D4" d="M89.746,163.424c-1.284,0.558-2.403,0.684-3.795,0.537c-0.089-1.035,0.303-2.102,1.041-2.831
		c0.738-0.731,1.81-1.111,2.843-1.011C90.636,161.508,90.211,162.311,89.746,163.424z"/>
	<path fill="#D1D3D4" d="M92.275,163.979c-1.283,0.557-2.402,0.684-3.795,0.535c-0.089-1.033,0.304-2.1,1.043-2.83
		c0.738-0.73,1.808-1.11,2.842-1.011C92.986,162.06,92.939,162.898,92.275,163.979z"/>
	<path fill="#D1D3D4" d="M94.864,164.291c-1.282,0.559-2.402,0.685-3.795,0.538c-0.088-1.036,0.305-2.103,1.043-2.831
		c0.738-0.73,1.808-1.111,2.842-1.011C95.406,161.522,95.918,163.479,94.864,164.291z"/>
	<path fill="#D1D3D4" d="M73.709,159.101c-1.284,0.559-2.404,0.685-3.794,0.537c-0.089-1.035,0.303-2.101,1.041-2.832
		c0.738-0.73,1.808-1.109,2.843-1.009C74.6,157.185,74.173,157.988,73.709,159.101z"/>
	<path fill="#D1D3D4" d="M76.239,159.656c-1.284,0.558-2.403,0.685-3.794,0.536c-0.089-1.034,0.303-2.1,1.041-2.83
		c0.738-0.73,1.809-1.112,2.843-1.012C76.948,157.736,76.903,158.575,76.239,159.656z"/>
	<path fill="#D1D3D4" d="M78.828,159.969c-1.284,0.558-2.403,0.684-3.794,0.536c-0.088-1.034,0.303-2.101,1.042-2.83
		c0.738-0.731,1.808-1.111,2.842-1.011C79.37,157.199,79.882,159.156,78.828,159.969z"/>
	<path fill="#ACCE9A" d="M160.187,91.574c-11.329,2.669-21.965,9.523-29.623,18.183c-3.082,3.482-5.705,7.342-8.443,11.103
		c-0.043-0.262-0.077-0.524-0.136-0.785c-0.327-1.473-1.169-3.139-2.297-4.611c4.467-3.664,8.845-7.463,13.43-10.962
		C141.138,98.38,150.354,93.031,160.187,91.574z M70.039,141.176c0.145,0.757,0.133,1.518,0.034,2.271
		c10.523,1.878,21.63,0.231,31.284-4.388c-0.146-0.231-0.289-0.462-0.428-0.696c-1.598-2.693-2.554-5.785-2.768-8.908
		c-10.522,4.492-22.258,6.089-33.627,4.743c0.587,1.479,0.906,3.068,1.675,4.459C66.989,140.07,68.427,141.301,70.039,141.176z
		 M56.632,132.923c0.027-0.053,0.062-0.101,0.09-0.151c-4.016-0.979-7.94-2.324-11.689-4.078c-0.669,0.859-1.338,1.719-2.007,2.577
		c4.763,2.062,9.407,5.188,14.246,7.73C56.119,137.044,55.454,135.137,56.632,132.923z"/>
	<g opacity="0.19">
		<path fill="#ACCE9A" d="M138.296,102.443c-0.302,0.239-0.598,0.484-0.896,0.729C137.698,102.928,137.994,102.683,138.296,102.443z
			"/>
		<path fill="#ACCE9A" d="M70.075,143.427l-0.001,0.02c10.523,1.878,21.63,0.231,31.284-4.388
			C91.705,143.669,80.599,145.307,70.075,143.427z"/>
		<path fill="#ACCE9A" d="M136.41,104.006c-0.274,0.236-0.546,0.474-0.815,0.714C135.864,104.479,136.136,104.242,136.41,104.006z"
			/>
		<path fill="#ACCE9A" d="M140.237,100.96c-0.336,0.246-0.663,0.5-0.993,0.752C139.574,101.46,139.901,101.205,140.237,100.96z"/>
		<path fill="#ACCE9A" d="M67.981,140.595c0.484,0.314,1.017,0.521,1.582,0.568c-0.246-0.233-0.6-0.368-0.917-0.385
			C68.406,140.768,68.188,140.695,67.981,140.595z"/>
		<path fill="#ACCE9A" d="M151.801,94.349c-0.575,0.246-1.147,0.505-1.716,0.771C150.653,94.854,151.226,94.594,151.801,94.349z"/>
		<path fill="#ACCE9A" d="M143.858,98.51c-0.973,0.61-1.926,1.252-2.864,1.916C141.933,99.762,142.884,99.119,143.858,98.51z"/>
		<path fill="#ACCE9A" d="M122.12,120.859c2.738-3.761,5.361-7.62,8.443-11.103c-3.077,3.478-5.71,7.318-8.448,11.07L122.12,120.859
			z"/>
		<path fill="#ACCE9A" d="M149.646,95.326c-0.532,0.254-1.061,0.517-1.586,0.788C148.586,95.844,149.114,95.58,149.646,95.326z"/>
		<path fill="#ACCE9A" d="M134.568,105.658c-0.242,0.226-0.483,0.45-0.721,0.678C134.085,106.108,134.326,105.884,134.568,105.658z"
			/>
		<path fill="#ACCE9A" d="M145.507,97.52c-0.503,0.293-1.005,0.586-1.499,0.895C144.502,98.106,145.004,97.812,145.507,97.52z"/>
		<path fill="#ACCE9A" d="M147.537,96.39c-0.506,0.27-1.012,0.542-1.512,0.827C146.525,96.932,147.031,96.658,147.537,96.39z"/>
		<path fill="#ACCE9A" d="M160.187,91.574c-2.782,0.656-5.521,1.564-8.186,2.691C154.665,93.141,157.405,92.229,160.187,91.574z"/>
		<path fill="#ACCE9A" d="M66.209,138.656c0.204,0.371,0.455,0.727,0.742,1.05c-0.278-0.381-0.548-0.769-0.797-1.165
			C66.174,138.578,66.188,138.618,66.209,138.656z"/>
		<path fill="#ACCE9A" d="M56.733,137.987c0.117,0.316,0.246,0.634,0.397,0.938c0.048,0.024,0.094,0.05,0.142,0.075
			C57.073,138.664,56.896,138.325,56.733,137.987z"/>
		<path fill="#ACCE9A" d="M43.026,131.271c2.971,1.287,5.896,2.987,8.852,4.701C48.923,134.257,45.998,132.558,43.026,131.271z"/>
		<path fill="#ACCE9A" d="M132.169,108.018c0.186-0.194,0.378-0.383,0.568-0.575C132.547,107.635,132.354,107.823,132.169,108.018z"
			/>
		<path fill="#ACCE9A" d="M99.582,135.608c0.302,0.862,0.714,1.7,1.203,2.492C100.326,137.301,99.927,136.467,99.582,135.608z"/>
		<path fill="#427E2E" d="M56.481,133.453c0.005-0.019,0.014-0.032,0.02-0.05c-0.021-0.012-2.212-1.07-3.275-1.597
			c-7.628-3.771-14.99-7.519-23.343-5.68c-6.288,1.384-13.044,0.443-18.751-2.521c-0.907,0.568-1.81,1.137-2.654,1.708
			c6.17,4.188,14.08,5.723,21.368,4.141c4.633-1.005,8.954-0.013,13.181,1.815c2.971,1.287,5.897,2.986,8.852,4.701
			c1.735,1.007,3.48,2.019,5.252,2.954c-0.151-0.305-0.28-0.622-0.397-0.938C56.193,136.526,56.029,134.96,56.481,133.453z"/>
		<path fill="#427E2E" d="M100.785,138.101c-0.489-0.792-0.901-1.63-1.203-2.492c-0.13-0.37-0.242-0.742-0.329-1.119
			c-0.024,0.01-0.048,0.019-0.072,0.029c-10.575,4.492-22.653,5.52-33.718,2.385c-0.078-0.022-0.158-0.04-0.237-0.062
			c0.276,0.59,0.588,1.154,0.929,1.7c0.249,0.396,0.519,0.784,0.797,1.165c0.098,0.135,0.194,0.271,0.294,0.403
			c0.23,0.189,0.473,0.361,0.735,0.485c0.208,0.101,0.425,0.173,0.665,0.184c0.317,0.017,0.671,0.151,0.917,0.385
			c0.148,0.144,0.257,0.322,0.29,0.535c0.093,0.604,0.052,1.152-0.07,1.681c0.097,0.018,0.195,0.03,0.292,0.048
			c10.524,1.88,21.63,0.242,31.283-4.368c0.015-0.008,0.029-0.019,0.044-0.026C101.184,138.731,100.98,138.417,100.785,138.101z"/>
		<path fill="#427E2E" d="M132.737,107.442c0.366-0.372,0.734-0.741,1.11-1.106c0.237-0.228,1.4-1.307,1.747-1.616
			c0.27-0.24,0.541-0.478,0.815-0.714c0.327-0.281,1.584-1.323,1.886-1.562c0.313-0.248,1.605-1.237,1.941-1.483
			c0.249-0.183,0.506-0.355,0.757-0.534c0.938-0.664,1.892-1.306,2.864-1.916c0.051-0.031,0.1-0.064,0.149-0.096
			c0.494-0.309,0.996-0.602,1.499-0.895c0.174-0.101,0.345-0.203,0.519-0.303c0.5-0.285,1.006-0.558,1.512-0.827
			c0.175-0.092,0.349-0.185,0.523-0.275c0.525-0.271,1.054-0.534,1.586-0.788c0.146-0.07,0.293-0.139,0.438-0.207
			c0.568-0.266,1.141-0.524,1.716-0.771c0.067-0.029,0.134-0.056,0.2-0.083c2.664-1.127,5.403-2.035,8.186-2.691
			c1.873-0.441,3.765-0.78,5.666-0.981c-4.852-0.07-9.705,0.011-14.551,0.228c-7.929,3.497-15.152,8.912-20.764,15.295
			c-0.398,0.454-9.707,11.33-9.748,11.379c0.057,0.193,0.111,0.386,0.17,0.578c0.468,0.936,0.799,1.938,1.004,2.962
			c0.051-0.068,0.101-0.138,0.151-0.207c2.738-3.752,5.371-7.593,8.448-11.07c0.521-0.589,1.058-1.167,1.605-1.739
			C132.354,107.823,132.547,107.635,132.737,107.442z"/>
	</g>
	<g>
		<path fill="#65BB36" d="M30.133,129.402c0.859-0.171,1.707-0.273,2.545-0.314c1.479-1.069,2.727-2.453,3.59-4.062
			c1.858-3.466,1.883-7.851,0.065-11.337c0.608,3.546,0,7.289-1.701,10.46C33.535,126.198,31.979,127.992,30.133,129.402z"/>
		<path fill="#65BB36" d="M14.233,127.545c-0.175,0.18-0.363,0.346-0.546,0.517c0.64,0.257,1.29,0.485,1.948,0.691
			c2.681-2.826,3.875-6.995,3.081-10.811C18.337,121.52,16.731,124.956,14.233,127.545z"/>
		<path fill="#65BB36" d="M40.256,127.979c1.83-2.034,3.221-4.596,3.289-7.331c0.067-2.735-1.446-5.519-3.486-6.755
			c1.036,3.427,0.943,7.186-0.262,10.557c-0.639,1.787-1.596,3.454-2.79,4.928c0.493,0.091,0.982,0.196,1.47,0.319
			C39.107,129.163,39.705,128.593,40.256,127.979z"/>
		<path fill="#65BB36" d="M46.469,127.74c1.86-3.466,1.885-7.852,0.065-11.338c0.609,3.546,0,7.29-1.7,10.46
			c-0.78,1.455-1.795,2.776-2.975,3.929c0.505,0.199,1.011,0.41,1.514,0.634C44.636,130.416,45.705,129.166,46.469,127.74z"/>
	</g>
</g>
</svg>
