<?xml version="1.0" encoding="utf-8"?>
<!-- Generator: Adobe Illustrator 16.0.4, SVG Export Plug-In . SVG Version: 6.00 Build 0)  -->
<!DOCTYPE svg PUBLIC "-//W3C//DTD SVG 1.1//EN" "http://www.w3.org/Graphics/SVG/1.1/DTD/svg11.dtd">
<svg version="1.1" id="Layer_1" xmlns="http://www.w3.org/2000/svg" xmlns:xlink="http://www.w3.org/1999/xlink" x="0px" y="0px"
	 width="170px" height="170px" viewBox="0 0 170 170" enable-background="new 0 0 170 170" xml:space="preserve">
<title>Artboard 9</title>
<g>
	<path fill="#EF9500" d="M129.678,138.167c-11.981-4.571-21.759-13.478-30.638-22.729c-8.879-9.252-19.117-18.746-29.608-26.118
		c-8.021-5.636-19.923-10.729-21.564-20.393c-0.721-4.249-1.056-6.222-1.778-10.469c-0.501-2.953-1.3-5.834-2.443-8.604
		c-2.008-4.866-6.612-5.417-6.536-5.417c-0.604-2.458-2.411-3.893-5.173-3.523c-1.99,0.267-3.105,1.75-3.563,3.705
		c-7.504,1.036-15.007,2.073-22.51,3.109c-0.677-0.795-1.627-0.667-2.166,0.227c-0.539,0.894,0.037,2.24,1.055,2.467
		c5.805,1.298,10.916,3.74,16.533,5.697c3.121,1.088,6.587,2.171,9.641,0.907c2.389,2.699,2.949,6.269,3.408,9.844
		c0.928,7.213,0.177,14.52,0.092,21.791c-0.053,4.504,0.183,9.107,1.188,13.479c-1.32,0.892-2.854,1.525-4.356,2.087
		c-2.452,0.916-5.03,1.796-6.872,3.656c-1.771,1.788-2.17,8.229-1.339,8.264c0.384,0.027,0.634-2.034,1.003-3.542
		c0.153-0.623,0.696-1.67,0.651-1.563c-0.661,2.025-0.535,3.381-0.092,5.466c0.032,0.15,0.093,0.328,0.244,0.365
		c0.196,0.049,0.34-0.182,0.396-0.376c0.254-0.889,0.09-1.832,0.066-2.756c-0.014-0.542,0.073-1.27,0.149-1.802
		c-0.009,0.587,0.178,1.159,0.407,1.979c0.276,0.982,1.028,2.907,1.432,2.639c0.391-0.112,0.011-1.164-0.2-1.725
		c-0.659-1.752-0.91-3.654-0.286-5.42c1.993-1.503,4.302-2.584,6.731-3.155c1-0.236,2.056-0.408,3.077-0.645
		c0.502,1.454,1.089,2.879,1.826,4.244c3.393,6.28,9.247,10.949,15.629,14.145c6.383,3.194,13.335,5.051,20.233,6.889
		c3.066,4.143,6.831,6.991,11.759,8.501c0.041,6.976-0.44,14.04-1.282,20.964c-1.914-0.557-3.42-0.493-5.404-0.298
		c-1.984,0.194-4.009,1.328-4.657,3.212c4.875,0.754,9.509,0.502,14.424,0.083c2.614-8.354,5.215-17.346,7.331-25.84
		c0.646-2.589-1.322-6-2.472-8.406c10.02,8.348,22.097,13.991,35.054,15.482c12.957,1.492,27.679-1.648,36.978-10.795
		C156.335,142.17,141.658,142.737,129.678,138.167z"/>
	<path fill="#C88600" d="M81.654,137.493c-2.858-1.604-5.264-3.799-7.338-6.603c-3.276-0.872-6.562-1.755-9.795-2.776
		c2.141,4.446,5.555,8.28,9.777,10.843c-0.083-0.091-0.404,0.685-0.291,0.637c-0.999,6.044-2.404,12.021-4.202,17.877
		c-1.461-0.661-3.14-0.768-4.656-0.243c-1.516,0.523-2.817,1.645-3.559,3.067c3.797,0.158,9.597,0.341,13.395,0.499
		C77.083,153.254,79.44,145.243,81.654,137.493z"/>
	<path fill="#C88600" d="M22.861,106.687c-0.353-1.839-0.277-3.756,0.636-5.392c2.219-1.142,4.678-1.816,7.169-1.968
		c1.436-0.088,2.955-0.037,4.376-0.234c-0.206-1.362-0.351-2.736-0.449-4.119c-1.719,1.083-3.815,1.581-5.841,1.965
		c-2.571,0.486-5.262,0.918-7.392,2.438c-2.049,1.464-3.535,7.742-2.722,7.917c0.374,0.094,0.97-1.896,1.589-3.318
		c0.256-0.59,0.969-1.53,0.907-1.432c-0.995,1.885-1.101,3.241-1.017,5.369c0.006,0.156,0.036,0.342,0.178,0.403
		c0.185,0.081,0.366-0.121,0.455-0.305c0.401-0.831,0.399-1.79,0.533-2.704c0.078-0.537,0.287-1.238,0.452-1.75
		c-0.108,0.577-0.021,1.173,0.066,2.02c0.104,1.016,0.52,3.04,0.963,2.843C23.169,108.375,22.973,107.274,22.861,106.687z"/>
	<circle fill="#FFFFFF" cx="32.798" cy="45.698" r="3.194"/>
	<circle fill="#501900" cx="32.798" cy="45.698" r="2.396"/>
	<circle fill="#FFFFFF" cx="31.248" cy="44.437" r="0.845"/>
	<path fill="#BE1E2D" d="M69.432,89.32c10.491,7.372,20.729,16.866,29.608,26.118c1.938,2.019,3.923,4.019,5.96,5.963
		c1.52-1.642,2.294-4.697,0.977-6.474c1.163-1.014,1.849-2.554,1.823-4.098c-0.024-1.543,0.007-3.842-1.188-4.818
		c1.059-1.035,1.573-2.599,1.334-4.062c-0.239-1.46-0.594-3.271-1.927-3.915c1.156-1.114,1.52-2.974,0.865-4.441
		c-0.653-1.469-2.178-3.353-3.78-3.237c1.115-1.47,1.117-3.683,0.005-5.153c-1.113-1.469-3.469-2.419-5.186-1.743
		c0.3-1.099,0.377-2.28,0.05-3.369c-0.327-1.09-1.095-2.075-2.146-2.51c-1.053-0.434-2.565-0.382-3.337,0.455
		c0.76-1.749-0.37-3.954-2.144-4.654s-3.456,0.095-4.812,1.436c0.863-2.196-0.247-4.969-2.386-5.962
		c-2.139-0.994-4.625-0.247-5.745,1.828c0.317-2.355-1.249-4.825-3.514-5.543c-2.266-0.72-4.657,0.544-5.755,2.652
		c-0.519-1.678-2.331-2.851-4.074-2.636c-1.742,0.214-3.299,2.242-3.396,3.994c-0.125-1.736-1.842-3.192-3.576-3.031
		c-1.733,0.161-2.88,2.102-2.683,3.832c-0.736-1.15-2.259-1.729-3.573-1.36c-1.227,0.345-2.167,1.492-2.311,2.752
		C51.551,79.478,62.108,84.172,69.432,89.32z"/>
	<g opacity="0.13">
		<path fill="#FFFFFF" d="M62.849,66.367c1.743-0.214,3.555,0.958,4.073,2.637c0.289-0.553,0.667-1.046,1.108-1.463
			c-0.615-1.538-2.316-2.589-3.969-2.385c-0.993,0.122-1.924,0.834-2.561,1.748C61.92,66.621,62.376,66.426,62.849,66.367z"/>
		<path fill="#FFFFFF" d="M72.677,66.352c2.266,0.718,3.832,3.188,3.515,5.544c0.314-0.582,0.739-1.056,1.23-1.42
			c0.202-2.292-1.333-4.64-3.532-5.336c-2.002-0.636-4.101,0.279-5.32,1.955C69.747,66.241,71.237,65.895,72.677,66.352z"/>
		<path fill="#FFFFFF" d="M55.877,67.331c1.733-0.161,3.451,1.296,3.576,3.032c0.043-0.787,0.381-1.626,0.896-2.334
			c-0.593-1.191-1.92-2.034-3.26-1.91c-0.937,0.086-1.7,0.695-2.174,1.509C55.208,67.468,55.531,67.362,55.877,67.331z"/>
		<path fill="#FFFFFF" d="M49.621,69.803c1.314-0.37,2.836,0.209,3.572,1.359c-0.079-0.698,0.064-1.43,0.373-2.065
			c-0.784-0.549-1.808-0.766-2.732-0.506c-0.798,0.225-1.471,0.792-1.886,1.506C49.16,69.974,49.383,69.87,49.621,69.803z"/>
		<path fill="#FFFFFF" d="M107.8,110.83c-0.024-1.543,0.007-3.842-1.188-4.818c1.059-1.035,1.573-2.599,1.334-4.062
			c-0.239-1.46-0.594-3.271-1.927-3.915c1.156-1.114,1.52-2.974,0.865-4.441c-0.653-1.469-2.178-3.353-3.78-3.237
			c1.115-1.47,1.117-3.683,0.005-5.153c-1.113-1.469-3.469-2.419-5.186-1.743c0.3-1.099,0.377-2.28,0.05-3.369
			c-0.327-1.09-1.095-2.075-2.146-2.51c-1.053-0.434-2.565-0.382-3.337,0.455c0.76-1.749-0.37-3.954-2.144-4.654
			s-3.456,0.095-4.812,1.436c0.863-2.196-0.247-4.969-2.386-5.962c-2.015-0.936-4.337-0.326-5.537,1.483
			c1.239-0.816,2.863-0.951,4.325-0.271c2.139,0.994,3.249,3.768,2.386,5.962c1.355-1.339,3.037-2.134,4.811-1.436
			c1.773,0.7,2.903,2.907,2.145,4.654c0.771-0.835,2.283-0.888,3.335-0.454c1.053,0.435,1.82,1.42,2.147,2.51
			s0.25,2.271-0.049,3.369c1.716-0.676,4.071,0.273,5.186,1.744c1.113,1.471,1.11,3.685-0.006,5.151
			c1.603-0.114,3.128,1.771,3.782,3.238c0.652,1.468,0.289,3.327-0.867,4.442c1.335,0.645,1.688,2.454,1.928,3.915
			c0.238,1.462-0.275,3.025-1.334,4.061c1.195,0.977,1.162,3.276,1.188,4.819s-0.661,3.084-1.823,4.098
			c0.989,1.334,0.798,3.391-0.003,5.028c0.08,0.077,0.158,0.156,0.238,0.232c1.52-1.642,2.294-4.697,0.977-6.474
			C107.14,113.914,107.825,112.374,107.8,110.83z"/>
	</g>
	<g>
		<path fill="#BE4545" d="M54.098,78.863c0.203,0.179,0.407,0.355,0.616,0.531V68.015c-0.266,0.604-0.382,1.285-0.308,1.935
			c-0.091-0.143-0.195-0.275-0.309-0.4V78.863z"/>
		<path fill="#BE4545" d="M57.935,81.855c0.135-0.308,0.496-1.733,2.245-9.251c0.564-2.427,0.977-4.254,1.279-5.637
			c-0.456,0.676-0.753,1.453-0.793,2.184c-0.018-0.254-0.074-0.502-0.156-0.739c-1.158,5.155-2.818,12.034-3.078,13.087
			C57.598,81.617,57.766,81.735,57.935,81.855z"/>
		<path fill="#BE4545" d="M106.729,97.089l-17.843,8.294c0.16,0.151,0.321,0.303,0.481,0.455l16.707-7.766
			c-0.02-0.012-0.035-0.027-0.055-0.037C106.306,97.76,106.543,97.438,106.729,97.089z"/>
		<path fill="#BE4545" d="M68.959,66.618c-0.32,0.35-0.601,0.743-0.825,1.174c-0.037-0.117-0.093-0.224-0.14-0.336l-6.242,16.928
			c0.177,0.113,0.354,0.225,0.532,0.336L68.959,66.618z"/>
		<path fill="#BE4545" d="M105.977,114.928c0.138-0.119,0.267-0.247,0.389-0.38l-8.337-0.155c0.202,0.209,0.405,0.417,0.606,0.627
			l7.489,0.14C106.078,115.082,106.031,115.002,105.977,114.928z"/>
		<path fill="#BE4545" d="M107.021,105.549l-13.627,4.17c0.167,0.164,0.335,0.327,0.502,0.49l12.938-3.959
			c-0.072-0.081-0.137-0.17-0.221-0.238C106.76,105.868,106.894,105.711,107.021,105.549z"/>
		<path fill="#BE4545" d="M99.027,83.243c-0.384,0.012-0.757,0.08-1.104,0.217c0.012-0.044,0.021-0.088,0.031-0.132L80.412,97.832
			c0.16,0.135,0.32,0.268,0.48,0.403L99.027,83.243z"/>
		<path fill="#BE4545" d="M103.716,90.406c-0.202-0.047-0.407-0.064-0.611-0.05c0.115-0.152,0.212-0.317,0.303-0.483l-18.592,11.78
			c0.159,0.142,0.315,0.285,0.474,0.428L103.716,90.406z"/>
		<path fill="#BE4545" d="M85.726,74.168L71.612,90.887c0.165,0.121,0.33,0.246,0.495,0.368l14.764-17.491
			c-0.471,0.281-0.919,0.642-1.336,1.053C85.619,74.605,85.678,74.389,85.726,74.168z"/>
		<path fill="#BE4545" d="M78.712,69.206c-0.526,0.371-0.978,0.864-1.309,1.477c0.029-0.217,0.037-0.436,0.035-0.654L66.225,87.193
			c0.173,0.111,0.347,0.221,0.519,0.332L78.712,69.206z"/>
		<path fill="#BE4545" d="M93.701,77.394c-0.471,0.103-0.9,0.306-1.211,0.642c0.056-0.129,0.1-0.262,0.136-0.396L76.595,94.702
			c0.161,0.129,0.323,0.255,0.484,0.384L93.701,77.394z"/>
	</g>
	<g>
		<path fill="#BE1E2D" d="M46.616,74.125c0.728-0.7,1.253-1.65,2.214-2.028c-0.279-0.633-0.512-1.29-0.693-1.969
			c-1.184,1.135-3.028,1.017-4.089,2.349c-0.432,0.543-0.548,1.316-0.14,1.878C44.576,75.271,45.874,74.838,46.616,74.125z"/>
		<path fill="#BE1E2D" d="M47.614,67.435c-0.167-0.984-0.314-1.851-0.456-2.683c-0.594,0.264-1.213,0.456-1.688,0.565
			c-1.559,0.363-3.286,0.457-4.327,1.868c-0.657,0.892-0.542,2.135,0.42,2.682c1.153,0.658,2.492-0.436,3.471-1.344
			C45.722,67.883,46.778,67.334,47.614,67.435z"/>
		<path fill="#BE1E2D" d="M88.912,113.669c0.26,0.982,1.222,1.621,2.237,1.618c2.059-0.007,3.348-1.579,4.496-3.053
			c0.215,0.034,0.396,0.133,0.539,0.274c-1.35-1.37-2.726-2.739-4.128-4.101C91.47,110.105,88.336,111.479,88.912,113.669z"/>
		<path fill="#BE1E2D" d="M96.477,114.384c-0.494,1.173-1.785,1.854-2.141,3.135c-0.129,0.464-0.08,0.98,0.206,1.366
			c0.834,1.129,2.561,0.257,3.524-0.72c0.603-0.61,1.382-1.278,2.161-1.5c-0.396-0.408-3.066-3.169-4.025-4.141
			C96.631,112.959,96.734,113.776,96.477,114.384z"/>
		<path fill="#BE1E2D" d="M74.564,108.616c-0.132,1.059,0.452,2.131,1.473,2.443c1.36,0.415,2.49-0.768,3.327-1.827l4.604-5.832
			c0.458-0.578,1.174-0.88,1.869-0.825c-3.822-3.459-7.773-6.79-11.783-9.857c-0.258,2.118-1.094,4.172-2.425,5.841
			c-1.052,1.32-2.42,2.452-2.748,4.2c-0.15,0.802,0.014,1.659,0.57,2.257c1.165,1.253,2.889,0.547,3.775-0.59
			c0.717-0.917,1.051-2.066,1.534-3.126c0.882-1.93,2.319-3.592,4.074-4.785c0.68,0.562,1.357,1.126,2.032,1.698
			c-0.407,2.155-1.422,4.199-2.946,5.778C76.578,105.38,74.827,106.494,74.564,108.616z"/>
		<path fill="#BE1E2D" d="M47.523,83.599c-0.254,1.757,1.191,3.583,3.512,2.682c0.873-0.339,1.524-1.073,1.874-1.942
			c0.515-1.276,1.68-3.243,3.118-3.885c-1.083-0.835-2.107-1.706-3.045-2.623c-0.63,0.601-1.37,1.111-2.09,1.605
			C49.38,80.472,47.804,81.653,47.523,83.599z"/>
		<path fill="#BE1E2D" d="M88.649,109.586c0.583-0.86,1.312-1.859,2.195-2.247c0.562,0.496,0.651,0.575,1.212,1.069
			c-1.503-1.46-3.037-2.91-4.591-4.345c0.07,1-0.727,2.201-1.508,3.019c-1.067,1.118-2.093,3.026-0.896,4.003
			C86.198,112.011,87.826,110.798,88.649,109.586z"/>
		<path fill="#BE1E2D" d="M87.466,104.063c-0.541-0.498-1.084-0.995-1.63-1.488C86.382,103.068,86.925,103.565,87.466,104.063z"/>
		<path fill="#BE1E2D" d="M62.553,94.233c0.01-0.012,0.019-0.025,0.028-0.039c0.942-1.302,1.259-2.954,2.065-4.344
			c0.555-0.958,1.536-1.808,2.568-2.021c-1.545-1.002-3.175-2.003-4.809-3.03c-0.869,2.591-1.812,5.158-2.834,7.694
			C58.822,94.354,61.354,95.842,62.553,94.233z"/>
		<path fill="#BE1E2D" d="M49.967,74.224c-1.681,0.953-3.796,1.099-5.01,2.83c-0.572,0.813-0.612,1.935,0.055,2.673
			c1.279,1.415,3.441,0.035,4.637-1.358c0.578-0.675,1.307-1.402,2.082-1.852c-0.651-0.738-1.242-1.507-1.758-2.311L49.967,74.224z"
			/>
		<path fill="#BE1E2D" d="M57.069,90.036c0.887-1.321,1.082-2.989,1.812-4.402c0.407-0.788,1.129-1.505,1.928-1.851
			c-1.257-0.811-2.498-1.641-3.689-2.509l-4.149,6.535c-0.48,0.758-0.627,1.711-0.279,2.538
			C53.519,92.304,56.068,91.53,57.069,90.036z"/>
		<path fill="#BE1E2D" d="M68.271,88.525l-5.428,8.733c-0.344,0.554-0.581,1.181-0.608,1.834c-0.1,2.434,2.167,2.812,3.61,2.039
			c0.998-0.535,1.695-1.484,2.358-2.402c1.56-2.163,3.12-4.325,4.68-6.488c0.629,0.256,0.549,0.224,1.169,0.477
			c-1.532-1.171-3.076-2.312-4.622-3.397c-0.711-0.501-1.454-0.996-2.216-1.491C67.573,88.062,67.924,88.293,68.271,88.525z"/>
		<path fill="#BE1E2D" d="M105.659,122.03c-0.284,0.653-0.522,1.328-0.712,2.016c-0.401,1.464,1.262,2.601,2.473,1.688
			c0.414-0.312,0.803-0.659,1.176-1.022C107.603,123.832,106.623,122.941,105.659,122.03z"/>
		<path fill="#BE1E2D" d="M101.197,117.654l-1.114,2.741c-0.454,1.119,0.493,2.312,1.684,2.113c1.117-0.187,2.201-0.568,3.188-1.123
			c0.358,0.329,0.344,0.315,0.704,0.645C104.142,120.601,102.656,119.136,101.197,117.654z"/>
		<path fill="#BE1E2D" d="M47.867,68.927c0.039,0.231,0.088,0.459,0.141,0.686C47.958,69.386,47.906,69.158,47.867,68.927z"/>
		<path fill="#BE1E2D" d="M46.794,62.609c0.096,0.559,0.189,1.112,0.283,1.665C46.983,63.719,46.89,63.172,46.794,62.609z"/>
		<path fill="#BE1E2D" d="M44.955,53.599c-0.202-0.68-0.419-1.355-0.658-2.024C44.536,52.244,44.753,52.919,44.955,53.599z"/>
		<path fill="#BE1E2D" d="M44.39,54.098c-0.852,0.717-1.942,1.09-2.844,1.743s-1.637,1.792-1.265,2.844
			c0.678,0.58,1.713,0.526,2.533,0.173c0.82-0.353,1.504-0.954,2.263-1.422c0.233-0.145,0.481-0.274,0.737-0.381
			c0.096,0.466,0.196,0.933,0.276,1.404c-0.279-1.646-0.663-3.266-1.134-4.859C44.78,53.766,44.587,53.932,44.39,54.098z"/>
		<path fill="#BE1E2D" d="M42.181,60.646c-1.043,0.478-2.062,1.207-2.66,2.154c-0.478,0.759,0.06,1.764,0.957,1.745
			c1.227-0.027,2.513-0.667,3.62-1.31c0.808-0.469,1.699-0.948,2.599-1.201c0.023,0.136,0.045,0.265,0.068,0.4
			c-0.198-1.17-0.411-2.421-0.675-3.977c0.035,0.206,0.068,0.403,0.102,0.599C44.912,59.7,43.488,60.047,42.181,60.646z"/>
		<path fill="#BE1E2D" d="M47.867,68.927c-0.065-0.385-0.126-0.744-0.186-1.095C47.741,68.183,47.802,68.542,47.867,68.927z"/>
		<path fill="#BE1E2D" d="M43.646,49.854l-1.093-1.949c-0.173,0.686-0.693,1.247-1.292,1.629c-0.626,0.399-1.338,0.636-2.027,0.911
			c-0.854,0.342-1.684,0.747-2.478,1.21c-0.399,0.232-0.82,0.521-0.943,0.967c-0.183,0.664,0.415,1.316,1.066,1.538
			c1.459,0.497,2.989-0.409,4.275-1.26c0.949-0.628,2.052-1.263,3.142-1.326C44.091,50.998,43.881,50.422,43.646,49.854z"/>
	</g>
	<path fill="#FBD795" d="M63.786,160.106c-1.042,0.493-1.975,0.671-3.155,0.678c-0.143-0.719,0.116-1.496,0.688-2.066
		c0.572-0.571,1.447-0.923,2.322-0.936C64.406,158.692,64.103,159.289,63.786,160.106z"/>
	<path fill="#FBD795" d="M65.949,160.294c-1.042,0.493-1.975,0.671-3.154,0.678c-0.144-0.719,0.116-1.496,0.688-2.066
		c0.572-0.571,1.446-0.923,2.322-0.936C66.418,158.892,66.435,159.482,65.949,160.294z"/>
	<path fill="#FBD795" d="M68.411,160.661c-1.042,0.492-1.975,0.67-3.154,0.678c-0.144-0.718,0.115-1.496,0.687-2.067
		c0.573-0.57,1.447-0.923,2.322-0.935C68.682,158.677,69.242,160.008,68.411,160.661z"/>
	<path fill="#FBD795" d="M76.28,163.239c-1.042,0.493-1.975,0.671-3.154,0.679c-0.144-0.719,0.115-1.497,0.687-2.066
		c0.573-0.571,1.447-0.924,2.323-0.936C76.901,161.825,76.598,162.422,76.28,163.239z"/>
	<path fill="#FBD795" d="M78.444,163.427c-1.042,0.493-1.975,0.671-3.155,0.679c-0.143-0.719,0.116-1.497,0.688-2.066
		c0.572-0.571,1.447-0.924,2.322-0.936C78.913,162.025,78.93,162.616,78.444,163.427z"/>
	<path fill="#FBD795" d="M80.906,163.795c-1.042,0.492-1.975,0.67-3.154,0.678c-0.144-0.718,0.115-1.496,0.688-2.067
		s1.447-0.923,2.322-0.936C81.177,161.81,81.738,163.141,80.906,163.795z"/>
	<path fill="#501900" d="M4.183,49.211c0.17,0.269,0.518,0.452,0.814,0.336c0.217-0.084,0.36-0.313,0.368-0.545
		c0.008-0.231-0.107-0.459-0.281-0.612c-0.207-0.184-0.527-0.267-0.764-0.125C4.014,48.445,3.993,48.911,4.183,49.211z"/>
	<g opacity="0.2">
		<path fill="#FFFFFF" d="M3.698,49.186c0.539-0.894,1.489-1.022,2.166-0.227c7.503-1.037,15.006-2.073,22.51-3.109
			c0.458-1.955,1.574-3.438,3.563-3.705c2.762-0.369,4.57,1.064,5.173,3.523c-0.076,0,4.528,0.55,6.536,5.417
			c1.142,2.769,1.942,5.65,2.443,8.604c0.722,4.248,1.057,6.222,1.778,10.469c1.641,9.664,13.544,14.757,21.564,20.393
			c10.492,7.372,20.73,16.867,29.609,26.119c8.879,9.251,18.656,18.156,30.637,22.728c8.448,3.224,18.233,3.887,26.678,1.063
			c3.59-1.702,6.888-3.91,9.691-6.667c-9.711,8.376-24.388,8.943-36.368,4.373c-11.981-4.571-21.759-13.478-30.638-22.729
			c-8.879-9.252-19.117-18.746-29.608-26.118c-8.021-5.636-19.923-10.729-21.564-20.393c-0.721-4.248-1.056-6.222-1.778-10.469
			c-0.501-2.953-1.3-5.834-2.443-8.604c-2.008-4.866-6.612-5.417-6.536-5.417c-0.604-2.458-2.411-3.893-5.173-3.523
			c-1.99,0.267-3.105,1.75-3.563,3.705c-7.504,1.036-15.007,2.073-22.51,3.109c-0.677-0.795-1.627-0.667-2.166,0.227
			c-0.257,0.426-0.254,0.952-0.078,1.414C3.646,49.308,3.663,49.243,3.698,49.186z"/>
		<path fill="#FFFFFF" d="M34.791,75.664c-0.028,4.327-0.313,8.668-0.363,12.998c-0.007,0.587-0.006,1.175-0.002,1.765
			c0.001-0.178,0-0.355,0.002-0.534C34.483,85.152,34.819,80.398,34.791,75.664z"/>
	</g>
	<g>
		<path fill="#E0D172" d="M30.927,57.026c2.389,2.699,2.949,6.269,3.408,9.844c0.328,2.55,0.444,5.111,0.456,7.678
			c0.012,0.065,0.026,0.131,0.036,0.197c0.009,1.25-0.008,2.476-0.042,3.688c-0.018,0.162-0.037,0.324-0.055,0.486
			c-0.041,1.378-0.094,2.757-0.146,4.137c0.006,0.052,0.008,0.104,0.016,0.157c-0.077,1.796-0.149,3.598-0.173,5.449
			c-0.053,4.504,0.183,9.107,1.188,13.479c0.833-0.564,1.583-1.228,2.18-2.047c0.254-0.349,0.475-0.672,0.688-0.982
			c-0.884-3.54-1.333-7.227-1.59-10.865c-0.087-1.226-0.154-2.454-0.214-3.684c0.092-0.224,0.084-0.558,0.133-1.457
			c0.225-4.165,0.292-8.347,0.114-12.515c-0.179-4.2-0.536-8.907-2.376-12.753c-1.283-2.683-3.618-5.107-6.569-5.857
			c-3.552-0.905-7.344-1.527-11.015-1.694c-3.381-0.155-6.767-0.023-10.146,0.112c-0.461,0.018-0.932,0.047-1.366,0.2
			c5.515,1.333,10.443,3.645,15.831,5.521C24.407,57.207,27.874,58.29,30.927,57.026z"/>
		<path fill="#E0D172" d="M73.305,129.87c-1.302-1.382-2.357-2.939-2.998-4.738c-3.718-0.842-7.386-1.862-10.921-3.28
			c-6.624-2.66-12.841-6.833-16.739-12.812c-1.011-1.55-1.843-3.19-2.536-4.892c-0.983,0.769-2.205,1.17-3.484,1.466
			c0.502,1.454,1.089,2.879,1.826,4.244c3.393,6.28,9.247,10.949,15.629,14.145c0.787,0.394,1.582,0.766,2.384,1.12
			c0.286,0.127,0.578,0.241,0.865,0.363c0.519,0.22,1.038,0.444,1.563,0.651c0.355,0.141,0.716,0.269,1.074,0.404
			c0.463,0.174,0.924,0.352,1.39,0.518c0.398,0.141,2.06,0.703,2.493,0.844c0.434,0.142,4.673,1.41,5.038,1.514
			c0.542,0.152,4.04,1.104,4.797,1.307C73.551,130.443,73.425,130.159,73.305,129.87z"/>
	</g>
	<path fill="#501900" d="M26.101,50.725c-0.603,0.114-1.489,0.02-2.552-0.035c-0.531-0.029-1.106-0.046-1.714-0.099
		c-0.609-0.038-7.5-0.469-8.201-0.484c-0.702-0.014-1.39-0.06-2.059-0.048c-0.668,0.007-1.314,0.013-1.928,0.02
		c-0.613,0.008-1.196,0.075-1.732,0.106c-0.534,0.052-1.038,0.036-1.461,0.116c-0.429,0.058-1.332,0.178-1.432,0.188
		c0.445,0.103,0.883,0.216,1.32,0.331c0.064-0.012,0.121-0.021,0.188-0.034c0.427-0.093,0.905-0.111,1.432-0.156
		c0.527-0.033,1.092-0.101,1.7-0.112c0.607-0.01,1.248-0.02,1.911-0.029c0.663-0.013,1.349,0.028,2.046,0.039
		c0.697,0.012,1.405,0.045,2.113,0.083c1.417,0.078,5.474,0.294,6.084,0.325c0.61,0.029,1.189,0.024,1.723,0.034
		c1.062,0.005,1.966,0.038,2.583-0.144c0.308-0.078,0.527-0.2,0.669-0.289c0.134-0.1,0.206-0.152,0.206-0.152
		s-0.076,0.045-0.219,0.129C26.63,50.586,26.405,50.681,26.101,50.725z"/>
	<g opacity="0.23">
		<path fill="#9D5C00" d="M73.142,129.347c-0.491-0.763-0.935-1.556-1.315-2.387c-6.103-0.334-12.115-2.133-17.833-5.012
			c-6.345-3.195-12.165-7.864-15.538-14.144c-0.42-0.782-0.792-1.584-1.132-2.396c-0.05,0.012-0.109,0.011-0.162,0.02
			c-0.167,0.044-0.334,0.089-0.504,0.119c0.496,1.439,1.072,2.85,1.798,4.2c3.373,6.279,9.192,10.948,15.538,14.145
			c6.331,3.187,13.226,5.044,20.067,6.876C73.734,130.304,73.43,129.83,73.142,129.347z"/>
		<path fill="#9D5C00" d="M35.664,102.146c0.128-0.111,0.278-0.207,0.446-0.276c-1.208-4.26-1.615-8.784-1.656-13.267
			C34.404,93.133,34.646,97.757,35.664,102.146z"/>
		<path fill="#9D5C00" d="M34.129,64.818c-0.229-1.78-0.478-3.572-0.994-5.296c-0.356-1.189-1.251-4.118-2.575-4.41
			c-0.799-0.175-2.09,0.178-2.948,0.173c-1.097-0.005-2.194-0.071-3.284-0.196c-2.228-0.257-4.345-0.906-6.509-1.399
			c-2.342-0.534-4.652-1.27-6.931-2.024c-0.831-0.278-1.662-0.554-2.492-0.832c-0.407-0.136-4.925-1.41-4.92-1.598
			c-0.013,0.512,0.585,0.968,1.07,1.077c5.805,1.298,10.916,3.74,16.533,5.697c3.121,1.087,6.587,2.171,9.641,0.906
			c2.39,2.7,2.949,6.271,3.409,9.846c0.309,2.399,0.429,4.809,0.453,7.224C34.612,70.919,34.521,67.86,34.129,64.818z"/>
		<path fill="#9D5C00" d="M149.675,141.088c-7.267,2.14-15.221,2.507-22.552,1.395c-8.992-1.362-17.48-4.733-25.092-9.596
			c-0.164,0.012-6.83-4.846-9.384-7.134c0.414,0.953,0.946,2.064,1.397,3.216c9.433,8.018,20.755,13.599,33.009,15.456
			c12.896,1.956,27.72-0.655,37.341-9.462C160.141,138.373,155.041,140.336,149.675,141.088z"/>
	</g>
</g>
</svg>
