<?xml version="1.0" encoding="utf-8"?>

<!DOCTYPE svg PUBLIC "-//W3C//DTD SVG 1.1//EN" "http://www.w3.org/Graphics/SVG/1.1/DTD/svg11.dtd">
<svg version="1.1" id="Layer_1" xmlns="http://www.w3.org/2000/svg" xmlns:xlink="http://www.w3.org/1999/xlink" x="0px" y="0px"
	 viewBox="0 0 1158.449 1667.316" enable-background="new 0 0 1158.449 1667.316" xml:space="preserve">
<g>
	<path fill="#442314" stroke="#442314" stroke-width="0.75" d="M1065.706,36.269c12.225-2.517,32.67-5.062,43.089,1.781
		c28.844,16.655,16.035,133.052,15.834,166.862c-4.911,141.57-95.556,271.159-237.022,307.342
		c12.401,62.616,15.81,68.425,6.952,116.747c-1,0.839-1.769,1.497-3.131,3.39c-8.587,11.034-24.225,25.795-35.442,30.064
		c-22.681,9.733-50.217,2.686-71.797-12.519c-14.83-10.543-25.094-25.883-48.317-55.481c0.092,5.602-0.333,11.467,1.982,16.736
		c11.235,40.614,16.012,54.658,15.816,73.423c-0.637,34.546-29.101,55.063-62.145,61.025c-7.484,41.662,0.109,38.107,7.204,45.479
		c2.218,2.287,4.74,5.039,4.228,8.503c-5.396,0.57-9.27-5.759-22.05,1.402c-1.632,0.764-3.453,2.103-5.314,1.281
		c-5.136-8.005,8.534-8.431,8.807-16c0.948-13.145-0.029-26.399-2.086-39.394c-6.09,0.178-12.197,0.661-18.27,0.017
		c-21.831-2.456-43.155-10.937-55.194-29.088c-15.487-22.958-4.014-52.716-16.667-76.451c-5.008-8.936-5.257-9.335-11.002-11.996
		c-12.755-9.956-22.999-7.984-26.859,7.773c-5.567,22.12-2.378,26.116-13.926,45.174c-14.944,22.95-34.906,30.556-53.263,27.341
		c-10.399-1.092-19.522-6.509-29.283-9.755c-10.479-3.637-20.907-7.394-31.254-11.37c-6.371-10.99-12.346-22.257-16.931-34.126
		c-7.738-20.532-9.332-25.514-7.233-50.069c-36.015,8.798-64.39,13.887-100.167,0.684c-62.644-24.163-83.728-57.598-123.176-111.249
		c-22.819-31.065-57.293-67.103-93.709-138.964c-33.567-65.554-53.862-135.4-54.625-138.814
		c129.721-57.718,368.572-29.71,431.639,110.502c3.55,7.716,6.417,15.736,8.991,23.825c6.09-4.165,12.243-8.233,18.522-12.094
		c6.676-6.342,81.327-48.422,166.5-47.897c51.186,0.609,78.083,14.879,96.404,24.13c21.292-21.931,15.766-72.589,24.21-111.91
		c15.249-69.57,94.929-94.143,153.361-116.632C962.597,73.972,1015.991,46.558,1065.706,36.269 M1032.056,103.694
		c-22.446,6.655-54.775,28.265-64.932,31.673c0.891-0.885,1.655-1.884,2.407-2.89c-1.658,0.492-47.198,17.065-70.895,29.116
		c-45.418,23.362-65.41,48.881-77.232,91.681c-1.701,6.544-3.895,13.019-4.372,19.804c-2.65,26.795-1.927,62.519-12.283,76.658
		c23.221,21.275,33.424,35.906,48.57,61.571c0.23,1.724,1.471,3.114,2.183,4.671c9.669,18.942,16.896,39.05,22.722,59.474
		c1.155,3.252,3.097,6.176,5.096,8.968c28.133-7.134,26.845-32.291,39.779-47.277c2.528-2.488,5.228-5.705,9.089-5.711
		c7.612-0.236,15.294,1.994,22.849,0.264c12.141-2.611,22.313-14.931,33.529-26.784c9.213-9.916,41.432-34.476,60.554-71.527
		c11.826-23.264,16.721-46.373,18.827-72.171c2.911-34.724,9.795-148.878-23.635-158.727
		C1040.215,101.488,1036.003,102.573,1032.056,103.694 M168.124,246.185c-1.408,0.23-3.028-0.057-4.309,0.54
		c-13.633,1.025-29.059,3.683-37.28,16.069c-12.403,17.423-5.675,47.678-0.442,68.609c11.058,43.008,30.203,138.463,88.314,174.204
		c14.926,8.487,35.702,8.865,56.618,11.709c18.787,3.043,30.853,6.333,39.067,23.595c6.556,13.607,2.328,22.108,25.52,33.081
		c24.568,11.335,54.985,10.89,69.2,4.855c0.036-0.424,0.056-84.728,0.121-94.18c1.867-19.735,7.67-38.883,14.972-57.239
		c0.409-1.004,22.881-54.191,23.509-55.354c-1.787-31.552-41.202-66.498-67.121-84.683
		C320.799,248.963,237.065,238.933,168.124,246.185 M738.227,414.868c-3.005,0.132-5.791,1.884-8.836,1.327
		c-50.941-7.341-9.224,62.653,26.629,52.034c14.774-4.322,31.804-27.592,12.22-44.243
		C759.938,417.12,748.89,414.093,738.227,414.868 M524.501,444.76c-42.627,3.724-36.487,33.888-22.314,41.951
		c8.078,4.987,18.769,5.895,27.295,1.494c23.053-11.139,38.187-34.366,25.049-40.618c-3.258-1.873-7.13-1.287-10.68-2.011
		C537.474,444.398,530.953,444.209,524.501,444.76 M783.958,527.806c-9.853,2.717-19.735,6.957-26.778,14.61
		c-14.921,16.664-9.132,26.81-7.934,31.61l-0.281-0.396c3.032,14.295,27.987,35.835,59.669,36.838
		c24.614,0.575,42.158-13.474,47.392-30.627c5.147-17.254-6.478-36.233-21.757-45.473c-9.582-5.688-6.078-2.862-15.656-6.791
		c-3.338-1.35-6.963-1.649-10.508-2.005C799.993,524.859,791.852,525.974,783.958,527.806 M490.714,560.847
		c-16.421,3.851-22.887,10.135-27.249,12.99c-3.294,1.296-15.814,11.665-19.867,26.577c-5.926,22.824,5.058,39.892,24.98,46.22
		c23.495,7.508,43.293-0.732,60.043-18.563c7.135-7.813,13.271-17.029,15.414-27.542c3.031-18.69-1.941-35.284-20.097-39.63
		C513.097,558.152,501.555,558.066,490.714,560.847 M689.399,649.845c-26.521,3.845-62.643,15.75-68.379,41.917
		c-3.509,12.034-1.46,21.231,10.755,24.963c6.705,1.988,13.587,3.528,20.585,3.981c5.92,0.408,12.719-2.827,21.613,14.116
		c1.253,2.47,3.223,4.964,6.176,5.308c11.858,1.216,23.887-1.471,28.329-12.651c1.861-4.062,2.396-8.52,3.229-12.852
		c0.615-4.556,5.205-6.676,7.566-10.215c4.32-6.078,13.208-6.234,17.281-12.57c9.209-16.998,4.818-29.597-13.329-37.252
		C712.517,650.442,700.82,648.868,689.399,649.845z"/>
	<path fill="#A85225" stroke="#A85225" stroke-width="0.75" d="M1044.311,102.487c33.391,9.837,26.568,123.741,23.635,158.727
		c-2.106,25.801-7.002,48.909-18.827,72.171c-19.123,37.052-51.336,61.606-60.554,71.527
		c-11.161,11.795-21.369,24.168-33.529,26.784c-7.555,1.729-15.236-0.5-22.849-0.264c-3.861,0.006-6.561,3.223-9.089,5.711
		c-12.923,14.974-11.656,40.145-39.779,47.277c-1.999-2.792-3.941-5.716-5.096-8.968c-5.826-20.424-13.053-40.532-22.722-59.474
		c-0.712-1.557-1.953-2.947-2.183-4.671c-0.111-6.296-8.29-31.464-13.294-49.897c-2.841-9.816-4.215-38.574-3.424-47.38
		c2.746-58.955,45.28-95.757,95.346-139.205c5.928-5.006,29.156-34.252,35.177-39.458
		C979.299,131.282,1027.77,98.451,1044.311,102.487z"/>
	<path fill="#D16828" stroke="#D16828" stroke-width="0.75" d="M969.532,132.477c-0.753,1.005-1.517,2.005-2.407,2.89
		c-3.959,3.423-21.733,24.619-26.008,29.633c-24.266,26.916-78.878,61.953-97.794,114.231c-8.993,24.961-6.696,46.857-6.4,57.859
		c2.637,29.155-0.054,11.043,13.323,60.054c1.12,4.688,2.987,9.284,3.074,14.162c-14.968-25.365-25.152-40.116-48.57-61.571
		c10.354-14.136,9.631-49.847,12.283-76.658c0.477-6.785,2.672-13.26,4.372-19.804c11.792-42.695,31.712-68.266,77.232-91.681
		C921.105,150.167,966.769,133.297,969.532,132.477z"/>
	<path fill="#A85225" stroke="#A85225" stroke-width="0.75" d="M376.294,287.389c25.86,18.144,65.333,53.126,67.121,84.683
		c-0.616,1.14-23.099,54.348-23.509,55.354c-7.302,18.356-13.105,37.504-14.972,57.239c-0.195,28.352,0.069,56.716-0.132,85.068
		c-11.14-0.781-22.084-3.579-32.351-7.923c-15.148-7.015-19.745-10.461-24.457-26.635c-11.979-40.809-53.776-26.311-89.504-38.63
		c-10.41-3.372-19.051-10.525-26.836-17.982c-43.609-41.296-59.116-118.553-64.782-139.147c-7.02-26.644-19.465-66.005-6.371-87.51
		c1.155-1.695,2.315-3.39,3.315-5.182C167.185,245.153,294.226,230.564,376.294,287.389z"/>
	<path fill="#D16828" stroke="#D16828" stroke-width="0.75" d="M163.815,246.725c-3.255,5.837-13.056,14.469-7.262,49.529
		c2.355,14.627,6.549,28.858,10.318,43.163c4.967,18.053,20.635,97.342,64.782,139.147c7.785,7.457,16.425,14.61,26.836,17.982
		c35.956,12.398,77.502-2.257,89.504,38.63c4.71,16.169,9.306,19.618,24.457,26.635c10.267,4.343,21.211,7.141,32.351,7.923
		c0.299,3.028,0.27,6.078,0.012,9.112c-14.22,6.038-44.627,6.483-69.2-4.855c-23.193-10.973-18.966-19.477-25.52-33.081
		c-8.212-17.257-20.267-20.55-39.067-23.595c-20.928-2.845-41.693-3.222-56.618-11.709c-57.224-35.196-76.11-126.737-88.314-174.204
		c-5.233-20.931-11.96-51.187,0.442-68.609C134.611,250.627,149.632,247.791,163.815,246.725z"/>
	<path fill="#A85225" stroke="#A85225" stroke-width="0.75" d="M738.227,414.868c24.45-1.778,47.585,16.954,35.689,37.993
		c-10.028,17.907-28.265,20.978-44.87,10.301c-26.222-16.749-35.72-52.164,0.345-46.967
		C732.435,416.753,735.222,415,738.227,414.868z"/>
	<path fill="#A85225" stroke="#A85225" stroke-width="0.75" d="M543.851,445.576c3.55,0.724,7.423,0.138,10.68,2.011
		c13.162,6.264-2.013,29.487-25.049,40.618c-8.526,4.401-19.218,3.493-27.295-1.494c-11.989-6.821-17.116-27.894,2.93-37.257
		C516.291,444.336,531.978,443.383,543.851,445.576z"/>
	<path fill="#0A0203" stroke="#0A0203" stroke-width="0.75" d="M783.958,527.806c17.479-4.058,29.809-2.19,34.655-0.23
		c3.113,1.277,17.487,5.204,27.617,21.809c21.349,35.638-25.468,75.705-76.456,45.433c-22.758-14.073-30.69-32.19-12.593-52.401
		C764.223,534.764,774.105,530.524,783.958,527.806 M757.657,575.905c5.922,7.763,15.351,5.064,20.694-1.471
		c5.567-6.595,4.878-21.326-2.936-27.18C763.642,538.866,747.703,563.903,757.657,575.905z"/>
	<path fill="#E9F7FE" stroke="#E9F7FE" stroke-width="0.75" d="M824.048,529.65c5.2,1.005,21.161,8.842,29.404,25.733
		c8.204,16.847,2.471,33.166-11.531,44.709c-31.932,25.814-87.678-1.577-92.956-26.462c1.369,1.928,3.929,10.75,20.809,21.188
		c51.039,30.302,97.773-9.849,76.456-45.433C841.007,540.825,833.211,533.758,824.048,529.65z"/>
	<path fill="#E9F7FE" stroke="#E9F7FE" stroke-width="0.75" d="M778.351,574.434c-5.339,6.53-14.767,9.24-20.694,1.471
		c-5.885-7.095-2.891-19.141,3.826-25.744C776.903,534.433,788.197,562.768,778.351,574.434z"/>
	<path fill="#0A0203" stroke="#0A0203" stroke-width="0.75" d="M490.714,560.847c13.784-3.536,33.909-3.167,45.335,6.302
		c11.708,10.242,9.802,30.466,1.781,43.715c-8.041,13.396-22.587,26.623-37.539,30.897c-22.649,5.542-48.711-4.898-53.085-25.842
		c-2.984-15.139,2.593-31.283,16.259-42.083C467.741,571.037,474.243,564.709,490.714,560.847 M467.642,583.35
		c-2.752,0.643-4.59,2.924-6.475,4.855c-11.751,12.634-6.135,29.365,5.073,29.99c6.79,0.266,18.722-6.302,15.133-23.532
		c-0.793-4.027-3.062-7.71-6.314-10.198C472.91,582.96,470.135,582.891,467.642,583.35z"/>
	<path fill="#E9F7FE" stroke="#E9F7FE" stroke-width="0.75" d="M463.465,573.836c-22.385,17.692-23.822,51.757,1.781,64.133
		c10.732,5.4,23.4,6.641,35.045,3.792c20.389-5.829,47.608-31.636,43.583-59.422c7.033,24.099-15.245,51.902-37.958,62.697
		c-27.036,12.688-73.182-2.774-62.318-44.622C447.629,585.581,460.102,575.16,463.465,573.836z"/>
	<path fill="#E9F7FE" stroke="#E9F7FE" stroke-width="0.75" d="M467.642,583.35c2.493-0.46,5.268-0.391,7.417,1.115
		c8.458,6.471,8.668,20.478,3.763,27.14c-2.97,3.844-7.595,6.785-12.582,6.59c-11.338-0.632-16.748-17.438-5.073-29.99
		C463.051,586.275,464.89,583.994,467.642,583.35z"/>
	<path fill="#D16828" stroke="#D16828" stroke-width="0.75" d="M735.871,594.456c12.409,15.816,24.302,32.092,37.809,47.013
		c3.684,8.732,9.992,15.706,14.438,40.722c7.722,36.591,5.409,58.576,0.488,74.319c-2.498,7.811-6.219,23.365-24.785,32.615
		c-11.209,5.245-23.578,7.153-35.683,9.141c-1.683,0.126-2.654,1.58-3.55,2.815c-6.946,9.681-18.384,15.926-30.254,16.718
		c-14.144,0.258-45.679,2.469-54.303-8.773c-0.919-1.109-1.873-2.551-3.51-2.264c-26.591,0.591-59.775-13.479-75.761-36.217
		c-23.194-34.344-12.588-99.889,7.882-135.741c2.445-3.907,2.468-4.916,12.542-5.412c5.708,2.643,5.962,3.002,11.002,11.996
		c9.218,17.292,5.785,38.817,8.687,54.585c3.034,20.168,14.852,34.159,32.202,42.416c21.12,10.819,43.835,8.678,49.242,8.52
		c2.057,12.995,3.033,26.25,2.086,39.394c-0.273,7.574-13.947,7.99-8.807,16c1.861,0.822,3.683-0.517,5.314-1.281
		c12.81-7.177,16.628-0.829,22.05-1.402c0.511-3.464-2.011-6.216-4.228-8.503c-7.057-7.331-14.687-3.822-7.204-45.479
		c21.033-3.795,44.061-14.916,54.97-34.166c15.273-26.286,3.176-57.565-8.641-100.281
		C735.538,605.923,735.963,600.057,735.871,594.456z"/>
	<path fill="#A85225" stroke="#A85225" stroke-width="0.75" d="M581.183,629.392c-10.097,0.497-10.104,1.518-12.542,5.412
		c-20.373,35.682-31.156,101.277-7.882,135.741c15.965,22.707,49.134,36.809,75.761,36.217c1.637-0.287,2.591,1.155,3.51,2.264
		c8.624,11.242,40.159,9.031,54.303,8.773c11.87-0.793,23.308-7.038,30.254-16.718c0.896-1.235,1.867-2.689,3.55-2.815
		c12.105-1.988,24.474-3.895,35.683-9.141c18.37-9.153,22.15-24.378,24.785-32.615c4.918-15.736,7.235-37.719-0.488-74.319
		c-4.446-25.018-10.752-31.987-14.438-40.722c3.631,2.666,6.831,5.854,10.508,8.468c21.428,15.098,49.017,22.295,71.797,12.519
		c11.527-4.387,27.2-19.474,35.442-30.064c0.856-1.189,1.798-2.327,2.953-3.24c-1.336,7.706-9.979,40.591-35.275,78.352
		c-41.393,62.039-118.392,121.631-192.928,121.998c-28.462,0.845-49.071-10.657-59.893-15.477
		c-65.287-28.505-129.101-49.359-174.779-117.655c-1.701-2.557-3.688-4.97-4.906-7.813c10.347,3.976,20.774,7.733,31.254,11.37
		c12.532,4.167,37.702,20.082,64.122,1.93c13.547-8.867,25.2-27.644,27.64-41.302c3.304-15.154,4.115-27.432,8.957-32.96
		C562.426,622.734,569.662,620.399,581.183,629.392z"/>
	<path fill="#0A0203" stroke="#0A0203" stroke-width="0.75" d="M689.399,649.845c23.443-2.005,65.75,7.677,47.156,41.997
		c-4.073,6.337-12.961,6.492-17.281,12.57c-2.361,3.539-6.952,5.659-7.566,10.215c-1.996,10.382-3.543,28.374-31.558,25.503
		c-2.953-0.345-4.924-2.838-6.176-5.308c-8.869-16.895-15.622-13.703-21.613-14.116c-6.998-0.454-13.88-1.994-20.585-3.981
		c-12.218-3.732-14.262-12.933-10.755-24.963C626.754,665.602,662.835,653.696,689.399,649.845 M654.675,660.479
		c-20.691,8.17-27.062,18.809-29.622,30.673c-2.062,11.406,3.189,15.109,14.254,18.023c4.487,0.988,9.031,2.022,13.656,1.89
		c2.62,0.006,5.527-0.213,7.785,1.408c6.709,4.886,6.925,9.49,10.117,12.863c1.729,1.815,4.475,1.712,6.791,1.792
		c24.426-0.447,18.613-19.747,23.503-24.75c1.971-2.057,3.889-4.171,5.981-6.107c3.189-2.758,7.578-3.648,10.657-6.561
		c2.63-2.385,17.501-26.288-17.569-34.569C689.227,652.733,676.13,652.241,654.675,660.479z"/>
	<path fill="#3F1415" stroke="#3F1415" stroke-width="0.75" d="M680.752,653.843c14.204-1.418,36.22,3.043,41.176,15.259
		c3.476,8.235-1.631,18.341-4.131,20.608c-3.079,2.913-7.469,3.803-10.657,6.561c-8.716,8.069-7.511,8.369-8.595,13.777
		c-2.285,12.274-8.531,16.854-20.889,17.08c-2.315-0.08-5.061,0.023-6.791-1.792c-2.218-2.344-3.171-5.544-5.194-8.026
		c-5.547-6.648-7.304-6.233-12.708-6.245c-5.502,0.157-20.239-2.075-25.692-7.647c-6.172-7.141-0.284-22.739,6.302-29.559
		C645.291,661.959,664.261,656.011,680.752,653.843 M629.546,689.727c0.764,4.498,6.308,6.096,10.134,4.608
		c6.75-2.993,9.842-13.036,4.573-15.885C640.022,675.801,627.736,681.078,629.546,689.727z"/>
	<path fill="#E9F7FE" stroke="#E9F7FE" stroke-width="0.75" d="M644.253,678.45c5.263,2.846,2.192,12.886-4.573,15.885
		c-3.826,1.488-9.37-0.109-10.134-4.608C627.736,681.078,640.025,675.803,644.253,678.45z"/>
	<path fill="#442314" stroke="#442314" stroke-width="0.75" d="M516.412,772.957c30.911,16.654,35.678,17.405,89.871,41.066
		c10.86,4.837,31.415,16.323,59.893,15.477c48.684-0.24,95.435-25.156,132.966-55.82c0.552,0.902,1.586,1.666,1.413,2.861
		c0.04,14.271-0.241,28.553,0.098,42.824c-0.758,0.121-1.505,0.287-2.235,0.471c0.488,1.385,1.091,2.775,2.189,3.821
		c-0.122,5.349,0.89,30.636,2.401,40.917c-28.823,21.148-104.704,28.131-140.251,30.174c-7.799,0.496-53.225,0.309-87.361-14.19
		c-28.374-11.991-48.64-33.35-58.687-63.921c-0.351-3.717,0.856-7.48,0.454-11.186C515.469,802.727,517.112,803.074,516.412,772.957
		z"/>
	<path fill="#0A0203" stroke="#0A0203" stroke-width="0.75" d="M491.139,831.334c8.01-12.54,20.221-15.796,25.572-14.696
		c10.038,30.543,30.284,51.917,58.687,63.921c32.362,13.746,76.608,14.874,87.361,14.19c72.859-4.185,191.889-21.933,137.849-71.09
		c-1.097-1.046-1.701-2.436-2.189-3.821c4.165-1.049,10.539-0.878,14.765,1.046c10.57,4.44,14.297,18.609,17.075,30.007
		c2.112,9.458,8.91,27.975,1.477,48.116c-6.39,18.614-23.587,32.464-41.112,41.049c-29.844,14.194-62.666,19.369-95.645,19.85
		c-2.883,12.964-8.077,15.542-19.206,15.765c-0.931,1.333-2.338,2.608-2.264,4.372c-0.029,2.344,0.115,4.768-0.758,7.003
		c-1.798,4.7-2.987,9.623-5.349,14.099c5.388,1.65,22.506,4.514,31.259,20.993c6.703,12.453,8.945,35.175-1.459,56.038
		c-7.228,15.19-22.52,32.071-39.297,35.988c-13.802,2.804-32.977-1.849-46.875-16.437c-26.737-28.645-19.201-91.335,40.325-97.535
		c1.155-2.063,2.379-4.079,3.637-6.073c-2.373-4.625-3.947-9.962-2.355-15.11c0.764-3.74,4.045-5.975,6.785-8.25
		c-5.527-3.332-11.278-6.67-15.397-11.749c-1.183-1.264-1.976-3.286-3.889-3.499c-36.171-3.642-55.13-5.867-84.35-15.684
		c-18.839-6-39.31-23.847-51.982-38.63c-11.674-12.973-18.698-22.118-20.033-38.504C483.044,851.85,485.285,840.572,491.139,831.334
		 M653.98,956.98c3.112,3.56,23.138,16.33,31.259,10.41c2.287-1.787,2.723-4.855,3.2-7.52c-5.699-0.523-11.433-0.603-17.121-1.298
		C665.533,958.089,659.782,957.153,653.98,956.98 M659.081,978.565c-1.532,4.17,0.727,11.195,5.165,12.18
		c0.109-1.235,0.052-2.505,0.448-3.671c0.862-1.465,3.022-2.499,2.321-4.476c-0.58-2.091-0.822-5.63-3.683-5.584
		C661.799,976.807,659.794,976.945,659.081,978.565 M658.139,1000.5c0.867-0.04,1.752-0.075,2.643-0.075
		c0.666-0.827,1.189-1.752,1.511-2.752C660.328,997.196,657.886,998.133,658.139,1000.5 M613.264,1035.58
		c-14.772,24.193-6.882,63.502,26.554,73.526c-2.19-1.831-20.217-13.011-21.59-36.091c-4.552-42.035,34.936-63.169,65.702-53.505
		C663.592,1005.526,626.919,1011.452,613.264,1035.58z"/>
	<path fill="#442314" stroke="#442314" stroke-width="0.75" d="M337.79,832.552c13.953-4.536,24.852,8.276,28.151,22.573
		c4.028,16.024-3.067,24.588-2.832,37.481c-0.123,21.161,19.983,38.307,33.184,57.325c22.502,33.016,49.311,35.253,73.274,53.453
		c4.766-29.688,1.944-43.966,19.206-73.314c5.36-9.422,11.502-18.545,15.029-28.875c12.679,14.792,33.139,32.629,51.982,38.63
		c29.204,9.812,48.12,12.036,84.35,15.684c1.913,0.213,2.706,2.235,3.889,3.499c4.119,5.079,9.87,8.417,15.397,11.749
		c-2.74,2.275-6.021,4.51-6.785,8.25c-1.591,5.148-0.017,10.485,2.355,15.11c-1.258,1.994-2.482,4.01-3.637,6.073
		c-21.014,2.189-39.144,11.563-48.644,30.725c-0.77-0.529-1.58-1.034-2.516-1.115c-35.566-5.297-78.791-6.112-90.641,27.887
		c-9.523,26.908,2.441,66.67,12.714,93.129c13.491,35.374,33.934,72.055,24.681,115.472
		c-5.806,29.992-56.219,142.817-99.615,163.564c-0.494,0.224-0.982,0.46-1.465,0.718c1.678,17.606,6.363,44.77-0.477,60.502
		c-3.436,8.605-12.851,16.521-21.079,16.063c-2.545-0.08-4.906-1.637-7.486-0.948c-3.941,0.799-7.946,0.356-11.875-0.235
		c-3.832-0.867-7.44-3.125-9.508-6.509c-1.287-1.976-1.896-4.274-2.384-6.538c-1.695,2.729-3.545,5.78-6.774,6.86
		c-7.608,2.528-17.103-8.356-17.258-19.97c-36.867,19.943-42.892-28.402-37.005-45.777c6.809-21.734,24.844-38.603,38.406-58.267
		c-14.92-16.351-22.596-38.337-23.773-60.232c-0.167-6.756-0.149-13.507-0.017-20.257c3.582-68.99,52.575-155.508,94.967-198.07
		c1.12-1.068,2.241-2.252,2.505-3.838c1.804-7.032,4.137-13.915,5.975-20.924c-1.201,2.43-1.913,5.067-3.154,7.486
		c0.578-68.91-73.961-107.077-111.87-165.839c-12.629-20.263-27.57-57.649-10.617-74.221
		C328.023,836.091,332.975,834.184,337.79,832.552 M443.972,1413.57c0.012,1.54-0.793,3.66,0.396,4.872
		C444.357,1416.822,444.868,1415.018,443.972,1413.57z"/>
	<path fill="#442314" stroke="#442314" stroke-width="0.75" d="M817.056,921.774c17.519,42.087,45.647,56.599,36.442,152.947
		c-3.622,41.668-3.755,44.609-11.082,98.759c-0.151,1.005-4.354,28.736-4.407,30.863c4.924,1.046,9.887,2.309,14.294,4.843
		c12.121,6.635,18.623,20.044,20.217,34.12c0.224,0.04,0.678,0.126,0.908,0.167c5.363,35.448-10.138,82.062-23.32,115.248
		c-1.212,0.092-2.424,0.172-3.625,0.276c0.373-0.902,0.689-1.81,1.028-2.7c-11.618-1.682-28.836-3.045-32.299-4.32
		c-9.548-3.855-18.586-8.957-26.836-15.11c-20.301-15.678-23.991-26.849-27.347-38.717
		c-22.273-74.184,12.528-155.018,20.671-191.193c13.832-66.39-16.475-55.853-77.491-56.98c0.559-19.291-5.476-35.695-22.693-44.042
		c-4.418-2.378-9.37-3.338-14.116-4.791c2.361-4.475,3.551-9.399,5.349-14.099c0.873-2.235,0.73-4.659,0.758-7.003
		c-0.075-1.764,1.333-3.039,2.264-4.372c11.096-0.222,16.316-2.766,19.206-15.765C736.232,959.303,787.369,950.426,817.056,921.774z
		"/>
	<path fill="#442314" stroke="#442314" stroke-width="0.75" d="M653.98,956.98c5.803,0.172,11.553,1.109,17.339,1.591
		c5.688,0.695,11.421,0.776,17.121,1.298c-0.477,2.666-0.913,5.734-3.2,7.52C676.993,973.402,656.919,960.343,653.98,956.98z"/>
	<path fill="#442314" stroke="#442314" stroke-width="0.75" d="M659.081,978.565c0.712-1.62,2.717-1.758,4.251-1.551
		c2.861-0.046,3.102,3.493,3.683,5.584c0.701,1.976-1.459,3.01-2.321,4.476c-0.396,1.166-0.339,2.436-0.448,3.671
		C659.814,989.761,657.548,982.739,659.081,978.565z"/>
	<path fill="#422213" stroke="#422213" stroke-width="0.75" d="M658.139,1000.5c-0.253-2.367,2.189-3.303,4.154-2.827
		c-0.322,1-0.844,1.925-1.511,2.752C659.892,1000.425,659.007,1000.46,658.139,1000.5z"/>
	<path fill="#E9F7FE" stroke="#E9F7FE" stroke-width="0.75" d="M683.929,1019.51c-19.866-6.24-45.233,0.667-57.566,18.879
		c-11.259,15.767-12.853,44.174,3.907,62.496c2.7,3.263,6.325,5.527,9.548,8.221c-34.256-10.27-40.724-50.32-26.554-73.526
		C626.826,1011.615,663.428,1005.414,683.929,1019.51z"/>
	<path fill="#A85225" stroke="#A85225" stroke-width="0.75" d="M600.194,1029.8c0.936,0.08,1.746,0.586,2.516,1.115
		c-6.176,11.783-7.308,25.612-5.441,38.625c3.303,19.711,16.724,35.292,33.603,41.658c21.397,8.004,37.15,3.115,52.717-13.294
		c11.77-12.937,20.835-30.368,20.619-47.926c60.918,1.126,91.338-9.487,77.491,56.98c-8.555,38.004-14.175,37.571-23.946,93.824
		c-3.338,20.154-5.142,40.681-3.487,61.094c-9.244,0.281-18.166,3.223-26.428,7.227c-28.038,13.53-39.653,24.114-52.103,34.666
		c-26.138,21.716-37.047,28.956-109.393,43.973c-0.384,4.192,0.784,25.8,1.701,34.672c9.735-1.097,92.468-12.073,99.035-12.622
		c1.218-0.172,1.907,1.08,2.637,1.861c15.501,20.716,35.773,46.349,54.395,58.589c-0.172,0.592-0.333,1.201-0.483,1.833
		c-2.551-1.097-4.504-3.143-6.699-4.774c-23.825-19.672-43.989-50.108-49.006-55.32c-33.994,4.234-67.942,8.876-101.948,13.059
		c-0.03,37.953,5.957,66.788,8.152,82.857c7.332,51.702,9.034,48.331,16.299,71.062c0.368,1.695,0.017,3.447-0.839,4.958
		c-2.896,5.452-6.618,10.525-11.255,14.627c-1.247-2.706-2.511-5.469-4.435-7.756c-2.053-2.742-8.434,1.45-5.349,5.941
		c1.396,2.286,2.735,4.619,3.631,7.164c-8.905,5.601-18.482,10.462-28.892,12.473c-0.77-2.821-1.632-5.619-2.74-8.313
		c-0.465-0.885-0.781-2.189-1.971-2.241c-2.597-0.276-4.677,2.407-4.809,4.809c0.27,2.413,1.54,4.573,2.2,6.906
		c-5.059,2.57-21.378,2.168-25.014,2.131c-0.075-2.534-0.017-5.159-0.896-7.555c-1.051-1.936-3.706-0.54-4.82,0.655
		c-1.85,1.609-1.31,4.171-1.126,6.314c-2.62-0.546-5.274-0.891-7.882-1.453c0-3.367-1.482-6.469-2.057-9.732
		c-2.608-11.237-2.068-22.9-4.274-34.201c-10.752-66.306-12.17-75.209-1.988-135.666c0.46-3.24,1.678-6.481,0.988-9.778
		c15.535-22.596,28.312-46.972,39.745-71.855c13.436-30.758,28.67-59.749,15.587-107.101
		c-9.937-36.184-50.366-107.27-34.678-151.597C521.405,1023.681,564.647,1024.506,600.194,1029.8z"/>
	<path fill="#763919" stroke="#763919" stroke-width="0.75" d="M842.415,1173.48c24.026,5.209,32.123,25.66,32.041,50.046
		c0.098,6.073-0.753,12.094-1.126,18.143c-0.247-0.035-0.741-0.104-0.988-0.138c-0.011-0.172-0.046-0.517-0.063-0.689
		c0.322-3.074-1.206-5.906-2.068-8.767c-3.114-9.364-9.112-18.074-17.908-22.889c-4.406-2.534-9.37-3.798-14.294-4.843
		C838.061,1202.205,842.264,1174.483,842.415,1173.48z"/>
	<path fill="#D16828" stroke="#D16828" stroke-width="0.75" d="M727.839,1269.103c8.262-4.004,17.184-6.946,26.428-7.227
		c1.663,18.593,6.635,40.857,13.019,52.718c-0.561,2.063-18.784,113.748-18.476,180.702c-0.687,9.255-0.494,33.182-2.108,38.556
		c-10.905,38.427-15.034,47.763-17.448,59.773c-3.309-0.259-6.751-0.184-9.807-1.649c3.657-8.329,6.079-11.231,4.498-13.714
		c-1.706-1.068-4.068-0.362-4.987,1.396c-2.04,3.545-3.545,7.365-5.234,11.094c-15.502-2.625-27.093-14.693-28.829-23.153
		c6.124-22.165,21.039-40.268,30.685-60.835c6.337-12.973,8.566-27.381,11.318-41.417c1.14-8.558,2.931-9.694-1.402-27.76
		c-0.5-1.879-0.873-3.826-1.867-5.51c0.149-0.632,0.31-1.241,0.483-1.833c0.724,0.414,1.471,0.816,2.223,1.224
		c0.908-13.236-2.189-101.272-2.241-102.275c-6.579,4.436-22.659,19.616-36.298,27.37c-34.674,17.768-52.469,16.817-78.829,20.608
		c-13.65,1.678-27.261,3.706-40.923,5.245c-0.787-7.618-2.126-30.022-1.701-34.672c26.543-5.51,53.424-11.042,78.272-22.239
		c4.906-2.091,9.221-5.268,13.645-8.193c18.548-12.487,28.104-25.081,48.386-36.648
		C713.465,1276.382,720.589,1272.601,727.839,1269.103z"/>
	<path opacity="0.71" fill="#4C2512" stroke="#4C2512" stroke-width="0.75" enable-background="new    " d="M346.166,1304.533
		c0.046-3.097-0.218-6.234,0.471-9.273c-0.132,6.751-0.149,13.501,0.017,20.257C345.954,1311.893,346.218,1308.187,346.166,1304.533
		z"/>
	<path fill="#A85225" stroke="#A85225" stroke-width="0.75" d="M767.286,1314.593c10.476,16.589,29.222,29.833,47.926,37.384
		c3.538,1.303,20.293,2.582,32.299,4.32c-2.068,5.433-2.783,5.469-2.838,7.262c0.483,1.161,1.321,2.12,2.057,3.154
		c-2.817,7.853-10.395,22.291-3.309,33.437c5.527,8.641,16.356,12.059,21.55,21.004c2.804,4.257,3.131,9.457,3.729,14.374
		c-0.038,18.927-36.183,61.839-54.872,61.065c2.523,37.966,15.523,49.734,24.423,70.091c-7.522,11.735-25.826,18.385-31.093,18.833
		c-1.097-2.396-1.879-5.084-3.838-6.929c-3.028-0.615-5.883,2.74-5.079,5.648c0.276,1.189,0.822,2.31,1.367,3.424
		c-12.3,3.194-25.02,4.24-37.602,5.768c0.316-3.373,1.258-6.693,1.097-10.094c-2.683-0.735-5.573,0.971-6.469,3.545
		c-0.77,2.172-1,4.481-1.344,6.756c-4.93,0.632-17.661,0.901-26.037-0.011c1.758-8.744,4.78-17.166,7.285-25.709
		c14.039-43.4,10.578-37.958,11.358-49.121c0.172-2.237,1.541-44.924,1.563-45.927
		C751.44,1413.679,766.376,1317.938,767.286,1314.593z"/>
	<path fill="#763919" stroke="#763919" stroke-width="0.75" d="M724.094,1329.191c0.053,1.02,3.169,88.746,2.241,102.275
		c-18.66-10.113-43.917-42.838-56.618-59.813c-0.73-0.781-1.419-2.034-2.637-1.861c-6.67,0.557-13.254,2.039-19.953,2.212
		C697.231,1358.704,708.194,1339.911,724.094,1329.191z"/>
	<path fill="#773919" stroke="#773919" stroke-width="0.75" d="M846.482,1358.997c1.201-0.103,2.413-0.184,3.625-0.276
		c-1.206,2.625-2.126,5.377-3.378,7.991c-0.735-1.034-1.574-1.994-2.057-3.154C844.724,1361.875,845.845,1360.485,846.482,1358.997z
		"/>
	<path fill="#D16828" stroke="#D16828" stroke-width="0.75" d="M488.899,1388.24c0.689,3.298-0.529,6.538-0.988,9.778
		c-10.241,60.806-8.714,69.668,1.988,135.666c2.206,11.301,1.666,22.963,4.274,34.201c0.575,3.263,2.057,6.366,2.057,9.732
		c-23.596-4.533-43.527-20.388-48.501-45.427c-0.058-8.058,2.007-20.382,2.982-42.083c0.324-8.016-1.355-27.373-1.252-31.633
		c-0.747-9.537-0.885-19.131-2.126-28.622C463.687,1422.033,478.344,1403.597,488.899,1388.24z"/>
	<path opacity="0.73" fill="#3E1E0F" stroke="#3E1E0F" stroke-width="0.75" enable-background="new    " d="M443.972,1413.57
		c0.896,1.448,0.385,3.252,0.396,4.872C443.179,1417.23,443.983,1415.11,443.972,1413.57z"/>
	<path fill="#AA5325" stroke="#AA5325" stroke-width="0.75" d="M445.868,1430.57c0.483-0.258,0.971-0.494,1.465-0.718
		c1.407,10.762,1.474,22.384,2.832,40.699c0,11.748,1.892,12.298-1.264,44.835c-0.396,5.596-1.212,11.18-1.172,16.805
		c-0.46-2.16-0.977-4.315-1.224-6.504c1.275-15.506,3.269-31.081,1.976-46.656C450.142,1462.823,447.401,1446.662,445.868,1430.57z"
		/>
	<path fill="#763919" stroke="#763919" stroke-width="0.75" d="M446.505,1525.687c1.767,15.661,9.389,30.924,22.613,40.228
		c14.568,10.759,28.92,11.891,34.994,13.156c0.915,11.29-7.741,22.038-11.95,33.029c-19.138-5.019-36.145-17.791-42.342-37.188
		c-0.744-1.886-0.369-1.933-1.89-3.177C443.794,1554.093,445.872,1529.064,446.505,1525.687z"/>
	<path fill="#763919" stroke="#763919" stroke-width="0.75" d="M590.427,1538.958c4.326,2.468,6.548,26.686,0.597,38.108
		c-1.97,2.173-4.894,10.049-12.254,16.396c4.068-11.203,4.234-23.877-0.437-34.919c4.636-4.102,8.359-9.175,11.255-14.627
		C590.444,1542.405,590.795,1540.653,590.427,1538.958z"/>
	<path fill="#442314" stroke="#442314" stroke-width="0.75" d="M573.898,1550.787c5.666,6.732,11.724,23.801,4.872,42.675
		c-0.817,1.587-3.584,7.857-6.4,10.272c-1.698,0.868-3.61,1.22-4.642-0.471c0.184-3.39,2.671-5.917,3.907-8.917
		c5.307-11.707,4.868-24.594-3.085-37.619C565.465,1552.238,571.846,1548.045,573.898,1550.787z"/>
	<path fill="#763919" stroke="#763919" stroke-width="0.75" d="M543.288,1576.365c10.41-2.011,19.987-6.871,28.892-12.473
		c4.257,9.56,3.746,20.987-0.546,30.455c-1.235,2.999-3.723,5.527-3.907,8.917c-0.144-0.235-0.437-0.712-0.58-0.948
		c-12.914,7.168-18.443,7.836-26.669,10.215C547.298,1602.641,546.098,1588.146,543.288,1576.365z"/>
	<path fill="#442314" stroke="#442314" stroke-width="0.75" d="M533.768,1570.62c0.132-2.401,2.212-5.084,4.809-4.809
		c3.787,0.165,16.517,45.876-6.371,51.724c-1.034,0.299-2.229-0.109-2.694-1.097c0.006-0.448,0.023-1.339,0.029-1.787
		c0.81-2.269,2.838-3.591,4.809-4.751c6.698-3.899,3.679-24.952,1.62-32.374C535.308,1575.193,534.038,1573.033,533.768,1570.62z"/>
	<path fill="#763919" stroke="#763919" stroke-width="0.75" d="M838.617,1566.138c5.306,11.32,5.14,25.698,3.016,30.26
		c-2.99,3.786-6.591,17.203-34.729,24.652c6.234-10.83,5.102-24.417,0.253-35.534c2.907-0.247,5.653-1.293,8.319-2.424
		C825.696,1579.126,832.948,1574.553,838.617,1566.138z"/>
	<path fill="#763919" stroke="#763919" stroke-width="0.75" d="M684.894,1567.598c1.736,8.458,13.316,20.526,28.829,23.153
		c-4.749,10.452-8.777,23.719-4.384,34.264c-19.345-5.853-23.616-19.667-25.353-22.912c-0.023,0.293-0.069,0.885-0.098,1.178
		C679.425,1589.424,682.806,1569.928,684.894,1567.598z"/>
	<path fill="#442314" stroke="#442314" stroke-width="0.75" d="M505.238,1572.757c1.115-1.195,3.769-2.591,4.82-0.655
		c3.828,10.432-4.687,25.12-8.79,33.46c-1.264,2.574-2.137,5.331-3.43,7.905c-0.787,0.603-1.603,1.178-2.453,1.706
		c-1.16,0.178-2.7,0.253-3.384-0.902c0.239-7.758,13.202-21.741,12.111-35.2C503.928,1576.928,503.388,1574.365,505.238,1572.757z"
		/>
	<path fill="#A75225" stroke="#A75225" stroke-width="0.75" d="M448.183,1571.941c1.046,0.626,1.218,1.907,1.637,2.97
		c6.197,19.396,23.24,32.179,42.342,37.188c-0.086,0.701-0.138,1.425-0.161,2.172
		C471.665,1609.72,452.893,1594.191,448.183,1571.941z"/>
	<path fill="#A85225" stroke="#A85225" stroke-width="0.75" d="M591.024,1577.066c-1.779,6.849-9.498,16.891-13.961,19.953
		c0.557-1.201,1.109-2.396,1.706-3.556C586.222,1587.035,589.005,1579.294,591.024,1577.066z"/>
	<path fill="#763919" stroke="#763919" stroke-width="0.75" d="M535.969,1577.525c2.052,7.395,5.078,28.475-1.62,32.374
		c-1.971,1.161-3.999,2.482-4.809,4.751c-5.584-0.092-11.163,0.477-16.753,0.235c-5.033,0.109-9.974-0.85-14.949-1.419
		c1.293-2.574,2.166-5.332,3.43-7.905c4.068-8.267,8.888-16.535,9.686-25.905C514.238,1579.689,530.856,1580.122,535.969,1577.525z"
		/>
	<path fill="#442314" stroke="#442314" stroke-width="0.75" d="M718.957,1579.657c0.919-1.758,3.28-2.465,4.987-1.396
		c2.527,3.969-6.981,13.569-9.353,29.157c-1.987,15.38,5.322,16.85,6.802,21.47c0.092,0.546,0.184,1.115,0.281,1.706
		c-1.603,1.183-3.056,3.527-5.337,2.964c-2.041-1.199-4.69-3.767-6.998-8.543c-4.394-10.548-0.363-23.818,4.384-34.264
		C715.413,1587.022,716.918,1583.201,718.957,1579.657z"/>
	<path fill="#442314" stroke="#442314" stroke-width="0.75" d="M798.24,1584.236c-0.804-2.907,2.051-6.262,5.079-5.648
		c3.073,2.893,13.711,24.87,3.585,42.462c-6.291,9.037-8.31,7.371-10.353,5.159c0.201-0.776,0.414-1.528,0.678-2.246
		C812.51,1607.406,799.292,1588.77,798.24,1584.236z"/>
	<path fill="#442314" stroke="#442314" stroke-width="0.75" d="M756.634,1586.878c0.896-2.574,3.786-4.28,6.469-3.545
		c0.311,6.574-6.035,24.593,3.941,34.551c1.161,1.298,3.114,2.695,2.396,4.711c-0.735,2.252-3.665,4.745-5.946,2.907
		c-9.524-7.175-9.698-20.07-8.204-31.868C755.634,1591.359,755.864,1589.05,756.634,1586.878z"/>
	<path fill="#763919" stroke="#763919" stroke-width="0.75" d="M762.006,1593.428c12.582-1.528,25.302-2.574,37.602-5.768
		c4.045,8.164,6.607,17.931,3.625,26.859c-1.092,3.648-3.459,6.687-6.004,9.445c-2.98,0.233-39.116,6.727-58.124,5.63
		c-15.923-0.998-14.384-1.39-17.712-0.707c-1.66-5.179-14.076-8.624-1.948-36.913c5.668,2.717,29.317,2.497,35.844,1.66
		c-1.495,11.808-1.316,24.696,8.204,31.868c2.281,1.838,5.211-0.655,5.946-2.907c0.718-2.017-1.235-3.413-2.396-4.711
		C760.684,1611.536,760.874,1601.707,762.006,1593.428z"/>
	<path fill="#A75225" stroke="#A75225" stroke-width="0.75" d="M841.634,1596.398c-0.758,4.464-3.39,8.376-6.291,11.76
		c-8.904,9.919-25.688,15.077-30.708,15.96c0.764-1.023,1.545-2.028,2.269-3.068
		C835.014,1613.608,838.625,1600.209,841.634,1596.398z"/>
	<path fill="#A75225" stroke="#A75225" stroke-width="0.75" d="M567.148,1602.316c0,0,0.427,0.696,0.85,1.39
		c-4.26,3.195-14.701,8.381-30.541,11.617c1.057-0.879,2.04-1.844,3.022-2.792C548.765,1610.134,554.204,1609.5,567.148,1602.316z"
		/>
	<path fill="#A75125" stroke="#A75125" stroke-width="0.75" d="M683.987,1602.103c1.701,3.177,5.946,17.04,25.353,22.912
		c0.494,1.023,1.057,2.022,1.655,3.022c-15.141-4.326-24.211-14.033-27.106-24.756
		C683.918,1602.988,683.964,1602.396,683.987,1602.103z"/>
	<path fill="#A75225" stroke="#A75225" stroke-width="0.75" d="M495.385,1615.173c0.85-0.528,1.666-1.103,2.453-1.706
		c4.975,0.569,9.916,1.528,14.949,1.419c5.59,0.241,11.169-0.328,16.753-0.235c-0.006,0.448-0.023,1.339-0.029,1.787
		C518.199,1618.04,506.571,1617.488,495.385,1615.173z"/>
	<path fill="#A75225" stroke="#A75225" stroke-width="0.75" d="M797.229,1623.963c-0.264,0.718-0.477,1.471-0.678,2.246
		c-21.262,4.395-52.145,7.686-74.877,4.384c-0.098-0.592-0.19-1.161-0.281-1.706c1.482-0.305,3.005-0.477,4.521-0.259
		C755.395,1632.265,789.615,1624.56,797.229,1623.963z"/>
</g>
</svg>
