<?xml version="1.0" encoding="utf-8"?>
<!-- Generator: Adobe Illustrator 16.0.4, SVG Export Plug-In . SVG Version: 6.00 Build 0)  -->
<!DOCTYPE svg PUBLIC "-//W3C//DTD SVG 1.1//EN" "http://www.w3.org/Graphics/SVG/1.1/DTD/svg11.dtd">
<svg version="1.1" id="Layer_1" xmlns="http://www.w3.org/2000/svg" xmlns:xlink="http://www.w3.org/1999/xlink" x="0px" y="0px"
	 width="170px" height="170px" viewBox="0 0 170 170" enable-background="new 0 0 170 170" xml:space="preserve">
<title>Artboard 9</title>
<g>
	<path fill="#9A1E2D" d="M72.861,98.521c0.388-5.448-1.023-11.938,2.793-15.845c3.524-3.608,8.646-5.067,13.54-6.285
		c16.611-4.131,33.545-6.862,50.595-8.366c-1.23,0.251-2.867,1.077-3.959,1.698c-6.702,3.812-13.607,7.269-20.674,10.353
		c-3.9,1.702-8.085,3.479-10.428,7.03c-2.12,3.213-2.324,7.268-2.705,11.098c-1.4,14.031-6.125,27.715-13.667,39.631
		c-9.229-3.078-18.34-6.619-27.424-10.229C67.85,119.499,72.107,109.152,72.861,98.521z"/>
	<path fill="#BE1E2D" d="M54.469,125.032c-2.324-3.123-3.636-6.988-3.691-10.882c2.207-3.035,4.022-6.37,6.23-9.405
		c0.403-0.555,0.817-1.133,0.955-1.805s-0.081-1.469-0.685-1.793c-0.783-0.42-1.72,0.11-2.446,0.622
		c-6.554,4.616-13.108,9.231-19.662,13.848c-9.308,6.554-19.319,11.609-27.001,20.011c-1.707,1.864-3.449,4.191-2.948,6.671
		c12.747-3.273,25.524-6.918,38.272-10.192c6.49,2.885,11.051,8.451,14.759,14.508c3.709,6.056,7.731,12.463,14.149,15.505
		c5.759,2.731,12.7,2.229,18.538-0.33c5.839-2.559,10.684-6.986,14.742-11.901c8.812,0.31,17.139,0.111,25.951,0.42
		c5.334,0.188,16.445,2.359,16.346,1.727c1.343-0.45-7.539-1.77-11.634-2.306c3.545,0.126,9.468,0.387,13.023,0.302
		c1.014-0.025,1.087-0.718,0.079-0.829c-3.294-0.359-8.652-0.828-11.931-0.558c2.885-0.306,5.767-0.657,8.65-0.99
		c0.344-0.04,0.325-0.548-0.021-0.558c-5.692-0.189-11.412,0.427-17.084-0.096C102.976,144.596,78.723,134.694,54.469,125.032z"/>
	<path fill="#BE4545" d="M98.287,101.603c4.02-4.444,8.026-9.101,13.285-11.973c5.147-2.812,11.153-3.702,17.017-3.642
		c12.702,0.133,24.941,4.461,36.903,8.736c-10.611,1.84-20.113,4.682-30.257,8.299c-2.582,0.921-5.234,1.955-7.145,3.92
		c-2.027,2.086-2.973,4.958-4,7.678c-3.163,8.373-7.674,16.232-13.305,23.189c-1.535,1.896-3.243,3.766-5.268,5.077
		c-12.311-3.074-24.026-7.224-35.943-11.847C79.469,121.504,89.066,111.792,98.287,101.603z"/>
	<g>
		<path fill="#BE1E2D" d="M100.353,128.966c-8.082-1.836-16.502-2.018-23.671-1.95c-0.324,0.003-0.588-0.257-0.591-0.582
			c-0.003-0.322,0.261-0.589,0.581-0.592c7.236-0.065,15.741,0.117,23.94,1.979c5.097,1.156,9.736,2.918,13.767,5.192
			c-0.225,0.322-0.456,0.642-0.685,0.96C109.787,131.784,105.291,130.087,100.353,128.966z"/>
		<path fill="#BE1E2D" d="M146.845,99.184c-1,0.301-2.001,0.614-3.002,0.933c-18.893-1.241-38.059,3.3-54.271,13.125
			c-0.079,0.048-0.165,0.075-0.252,0.082c-0.215,0.02-0.433-0.082-0.553-0.28c-0.169-0.276-0.079-0.637,0.197-0.806
			C106.219,101.781,126.776,97.23,146.845,99.184z"/>
		<path fill="#BE1E2D" d="M80.514,123.194c-0.292,0.141-0.642,0.02-0.783-0.271c-0.142-0.293-0.021-0.645,0.271-0.785
			c13.249-6.431,28.876-8.51,43.498-6.044c-0.149,0.371-0.293,0.746-0.448,1.116C108.742,114.851,93.471,116.903,80.514,123.194z"/>
	</g>
	<circle fill="#FFFFFF" cx="44.13" cy="122.19" r="4.293"/>
	<circle fill="#501900" cx="44.129" cy="122.19" r="3.221"/>
	<circle fill="#FFFFFF" cx="46.058" cy="120.318" r="1.136"/>
	<path fill="#9A1E2D" d="M117.016,158.785c5.631,0.851,11.377,0.566,17.05,1.085c0.344,0.03,0.332,0.538-0.013,0.558
		c-2.898,0.167-5.795,0.352-8.692,0.488c3.288-0.081,8.611,0.697,11.877,1.247c1.001,0.17,0.887,0.858-0.127,0.823
		c-3.553-0.12-9.452-0.724-12.984-1.054c4.058,0.772,12.848,2.604,11.482,2.974c0.062,0.639-10.905-2.174-16.219-2.67
		c-7.722-0.72-17.373-1.303-25.475-1.979c2.744-1.584,5.25-3.565,7.544-5.789C106.624,156.22,112.045,158.036,117.016,158.785z"/>
	<path fill="#DB704A" d="M5.221,142.299c-0.501-2.479,1.241-4.807,2.948-6.671c5.857-6.405,13.067-10.866,20.287-15.529
		c1.282,0.748,2.422,1.778,3.407,2.898c2.668,3.034,4.439,6.844,5.054,10.837C26.353,136.632,15.777,139.589,5.221,142.299z"/>
	<path fill="#743B1B" d="M5.104,142.313c-0.095,0-0.189-0.047-0.245-0.132c-0.089-0.134-0.051-0.315,0.083-0.406
		c8.434-5.537,17.681-9.549,27.485-11.925c1.525-0.37,3.061-0.835,3.589-2.088c0.064-0.149,0.24-0.22,0.385-0.155
		c0.149,0.062,0.219,0.234,0.156,0.383c-0.637,1.505-2.395,2.044-3.993,2.43c-9.739,2.359-18.923,6.346-27.301,11.847
		C5.215,142.299,5.16,142.313,5.104,142.313z"/>
	<g opacity="0.44">
		<path fill="#9A1E2D" d="M8.722,139.399c0.698-0.253,1.393-0.515,2.094-0.76c11.671-3.047,23.361-6.34,35.027-9.338
			c6.49,2.887,11.051,8.451,14.759,14.508c3.709,6.058,7.731,12.464,14.149,15.506c5.759,2.73,12.7,2.228,18.538-0.331
			c4.709-2.061,8.76-5.353,12.284-9.123l0.003,0.043c0.003,0.029,0.012,0.056,0.018,0.085c-4.041,4.874-8.857,9.26-14.655,11.8
			c-5.838,2.559-12.779,3.062-18.538,0.33c-6.418-3.042-10.44-9.449-14.149-15.505c-3.708-6.057-8.27-11.623-14.759-14.508
			c-12.748,3.274-25.525,6.919-38.272,10.192c-0.041-0.202-0.062-0.403-0.075-0.603C6.272,140.786,7.474,140.047,8.722,139.399z"/>
	</g>
	<g opacity="0.26">
		<path fill="#FFFFFF" d="M117.67,88.02c0.951-0.325,1.852-0.721,2.639-1.371c2.723-0.498,5.517-0.688,8.28-0.66
			c12.702,0.133,24.941,4.461,36.903,8.736c-1.459,0.254-2.895,0.529-4.318,0.82c-10.52-3.69-25.633-7.656-36.736-7.772
			C123.488,87.762,120.375,87.71,117.67,88.02z"/>
	</g>
	<path fill="#BE1E2D" d="M111.006,90.562c2.907-3.637,14.427-2.485,14.18-2.87c0.11-0.331-3.126-0.457-5.332-0.164
		c2.555-0.51,6.053-1.582,5.921-1.869c0.135-0.192-3.67-0.082-6.279,0.594c1.943-0.67,4.44-1.777,4.391-2.1
		c-0.312-0.498-9.772,2.773-13.797,5.843c-4.027,3.069-7.443,6.852-10.871,10.577c-9.183,9.981-19.885,20.835-29.697,30.408
		c1.149,0.445,2.299,0.891,3.45,1.328C86.282,119.549,99.528,104.911,111.006,90.562z"/>
	<g opacity="0.13">
		<path fill="#FFFFFF" d="M57.759,103.535c-0.088-0.093-0.177-0.187-0.294-0.248c-0.783-0.42-1.718,0.109-2.446,0.621
			c-6.554,4.615-13.108,9.231-19.663,13.846c-9.307,6.555-19.318,11.612-27,20.013c-1.187,1.297-2.387,2.817-2.844,4.455
			c-0.098,0.024-0.195,0.051-0.292,0.077c-0.501-2.479,1.241-4.807,2.948-6.671c7.682-8.401,17.693-13.457,27.001-20.011
			c6.554-4.616,13.108-9.231,19.662-13.848c0.726-0.512,1.663-1.042,2.446-0.622c0.604,0.324,0.823,1.121,0.685,1.793
			C57.92,103.147,57.846,103.344,57.759,103.535z"/>
		<path fill="#FFFFFF" d="M50.977,116.501c0.442,3.074,1.638,6.039,3.492,8.531c24.253,9.662,48.506,19.563,74.593,21.968
			c5.672,0.522,11.392-0.094,17.084,0.096c0.346,0.01,0.363,0.518,0.021,0.558c-10.335,1.194-20.82,0.989-31.098-0.624
			c-10.388-1.63-20.415-4.897-30.319-8.346c-0.206-0.073-0.414-0.146-0.621-0.218c-9.934-3.473-19.699-7.401-29.472-11.295
			C52.375,124.104,51.077,120.322,50.977,116.501z"/>
	</g>
	<path fill="#501900" d="M29.099,123.693c-0.366,0.064-0.752,0.006-1.083-0.164c0.152-0.217,0.309-0.438,0.528-0.585
		c0.22-0.148,0.517-0.21,0.75-0.085c0.232,0.126,0.338,0.474,0.159,0.67C29.363,123.629,29.229,123.67,29.099,123.693z"/>
</g>
</svg>
