<?xml version="1.0" encoding="utf-8"?>
<!-- Generator: Adobe Illustrator 16.0.4, SVG Export Plug-In . SVG Version: 6.00 Build 0)  -->
<!DOCTYPE svg PUBLIC "-//W3C//DTD SVG 1.1//EN" "http://www.w3.org/Graphics/SVG/1.1/DTD/svg11.dtd">
<svg version="1.1" id="Layer_1" xmlns="http://www.w3.org/2000/svg" xmlns:xlink="http://www.w3.org/1999/xlink" x="0px" y="0px"
	 width="170px" height="170px" viewBox="0 0 170 170" enable-background="new 0 0 170 170" xml:space="preserve">
<title>Artboard 9</title>
<g>
	<path fill="#8DC63F" d="M13.646,97.49c5.351,3.832,12.764,3.615,18.896,1.226s11.313-6.649,16.528-10.665
		c5.215-4.014,10.758-7.932,17.164-9.438c9.04-2.127,18.071,0.521,26.309,4.807c3.871,2.014,8.657,1.607,12.661-0.126
		c4.006-1.731,7.369-4.649,10.545-7.644c3.175-2.992,6.267-6.135,9.956-8.463c5.387-3.4,14.926-4.959,18.557-6.623
		c3.815-1.748,6.678-3.479,10.821-2.812c1.47,0.237,3.155,0.471,4.169,1.562c1.141,1.226,2.586,2.162,4.171,2.701
		c0.735,0.25,1.519,0.424,2.147,0.877c1.051,0.754,2.048,2.678,1.053,3.5c-1.512,1.252-3.538,1.857-5.486,1.646
		c-1.951-0.214-3.798-1.246-5.002-2.794c0.848,1.854,2.795,3.247,4.797,3.63c-1.461,0.785-3.223-0.16-4.742-0.823
		c-4.002-1.742-8.689-1.851-12.769-0.293c-7.095,2.71-12.937,7.803-18.006,13.457c-1.942,2.167-3.79,4.161-5.353,6.604
		c-1.621,2.533-3.336,5.007-5.181,7.384c-3.666,4.728-7.85,9.083-12.676,12.637c-1.924,1.417-3.938,2.642-6.017,3.698
		c-0.613,2.095-1.541,4.096-2.776,5.895c-0.668,0.969-1.451,1.979-1.44,3.156c0.012,1.107,0.725,2.062,1.32,2.993
		c1.791,2.798,2.757,6.118,2.746,9.44c-2.959,0.683-5.909,0.463-8.854-0.285c0.293-2.098-1.258-3.775-2.518-5.479
		c-2.076-2.807-3.278-6.211-3.673-9.679c-0.054-0.476-0.09-0.95-0.115-1.427c-3.86,0.482-7.803,0.539-11.753,0.181
		c-2.38-0.215-4.765-0.545-7.087-1.071c-0.16,5.604,0.698,11.233,2.574,16.562c-3.411,1.467-7.647,1.657-10.965,0.016
		c-2.799-7.166-4.145-14.767-4.742-22.372c-0.016-0.193-0.029-0.389-0.042-0.584c-0.887,0.195-2.837,0.836-3.151,0.898
		c-1.225,0.242-2.464,0.412-3.707,0.531c-7.404,0.718-14.665,1.144-21.587-2.252c-7.228-3.543-12.081-10-15.124-17.293
		c-1.2-2.877-2.076-5.903-2.464-9C5.114,87.878,8.342,93.691,13.646,97.49z"/>
	<path fill="#73A334" d="M102.207,107.837c2.402-1.771,4.648-3.739,6.748-5.854c-0.21,4.226-1.396,8.392-3.475,11.879
		c-0.646,1.082-1.402,2.209-1.393,3.521c0.012,1.233,0.699,2.299,1.275,3.338c1.73,3.121,2.664,6.823,2.652,10.528
		c-2.857,0.762-5.709,0.517-8.554-0.315c0.283-2.342-1.215-4.213-2.433-6.111c-1.543-2.405-2.58-5.208-3.153-8.131
		c1-1.604,1.781-3.34,2.312-5.155C98.27,110.479,100.283,109.254,102.207,107.837z"/>
	<path fill="#73A334" d="M73.485,116.539c-0.187,4.695,0.27,9.427,1.396,13.997c-3.188,1.212-7.039,1.09-9.935-0.791
		c-1.313-4.697-2.073-9.528-2.462-14.394c2.182,0.469,4.413,0.778,6.643,0.979C70.583,116.464,72.036,116.521,73.485,116.539z"/>
	<g>
		<path fill="#7A7A7A" d="M113.687,75.84c-0.161-0.18-0.325-0.368-0.41-0.6s-0.072-0.521,0.094-0.696
			c0.213-0.224,0.563-0.183,0.855-0.109c0.716,0.183,1.397,0.493,2.021,0.9c-0.535,0.53-1.067,1.06-1.6,1.59
			C114.325,76.562,114.006,76.201,113.687,75.84z"/>
		<path fill="#7A7A7A" d="M116.373,73.257c-0.16-0.181-0.324-0.371-0.409-0.6c-0.085-0.231-0.071-0.521,0.097-0.697
			c0.21-0.224,0.562-0.184,0.852-0.11c0.711,0.183,1.394,0.491,2.014,0.897c-0.549,0.512-1.089,1.03-1.628,1.555
			C116.99,73.954,116.682,73.606,116.373,73.257z"/>
		<path fill="#7A7A7A" d="M118.738,70.842c-0.16-0.183-0.323-0.371-0.41-0.602c-0.082-0.229-0.07-0.52,0.096-0.694
			c0.213-0.225,0.563-0.184,0.854-0.109c0.792,0.204,1.545,0.561,2.223,1.038c-0.591,0.49-1.171,0.998-1.744,1.515
			C119.417,71.609,119.077,71.225,118.738,70.842z"/>
		<path fill="#7A7A7A" d="M121.821,68.217c-0.126-0.208-0.257-0.423-0.302-0.667c-0.043-0.243,0.022-0.525,0.215-0.667
			c0.245-0.18,0.584-0.075,0.858,0.053c0.686,0.321,1.312,0.763,1.866,1.293c-0.62,0.425-1.226,0.869-1.82,1.331
			C122.368,69.113,122.095,68.667,121.821,68.217z"/>
		<path fill="#7A7A7A" d="M110.46,78.986c-0.163-0.182-0.326-0.37-0.409-0.602c-0.086-0.23-0.071-0.519,0.095-0.694
			c0.213-0.224,0.563-0.184,0.854-0.11c0.727,0.186,1.42,0.5,2.052,0.919c-0.541,0.523-1.086,1.048-1.638,1.561
			C111.094,79.704,110.777,79.345,110.46,78.986z"/>
		<path fill="#7A7A7A" d="M142.027,58.566c-0.103-0.169-0.207-0.344-0.242-0.541c-0.035-0.197,0.016-0.423,0.17-0.54
			c0.2-0.146,0.476-0.062,0.697,0.042c1.141,0.535,2.102,1.478,2.682,2.634c0.025,0.049,0.046,0.099,0.062,0.153
			c-0.548,0.231-1.178,0.463-1.881,0.697C143.021,60.196,142.523,59.381,142.027,58.566z"/>
		<path fill="#7A7A7A" d="M108.082,81.875c-0.163-0.182-0.326-0.371-0.41-0.602c-0.085-0.23-0.071-0.519,0.097-0.694
			c0.211-0.223,0.562-0.185,0.854-0.11c0.409,0.104,0.806,0.253,1.188,0.436c-0.481,0.427-0.974,0.85-1.47,1.26
			C108.254,82.07,108.167,81.972,108.082,81.875z"/>
		<path fill="#7A7A7A" d="M137.882,59.558c-0.123-0.199-0.245-0.405-0.287-0.636c-0.042-0.23,0.019-0.5,0.204-0.634
			c0.233-0.173,0.557-0.073,0.817,0.048c1.343,0.629,2.474,1.739,3.157,3.1c0.018,0.035,0.036,0.073,0.052,0.111
			c-0.731,0.224-1.508,0.452-2.314,0.688C138.967,61.34,138.422,60.449,137.882,59.558z"/>
		<path fill="#7A7A7A" d="M124.779,65.972c-0.128-0.209-0.259-0.424-0.301-0.669c-0.044-0.242,0.019-0.522,0.212-0.666
			c0.248-0.18,0.586-0.075,0.861,0.052c0.827,0.387,1.576,0.954,2.2,1.641c-0.729,0.35-1.427,0.718-2.08,1.109
			C125.374,66.949,125.077,66.461,124.779,65.972z"/>
		<path fill="#7A7A7A" d="M128.166,63.614c-0.128-0.209-0.257-0.424-0.301-0.668c-0.045-0.243,0.02-0.521,0.213-0.665
			c0.246-0.181,0.586-0.077,0.859,0.051c1.101,0.518,2.062,1.343,2.774,2.359c-0.794,0.287-1.577,0.591-2.336,0.914
			C128.973,64.938,128.568,64.276,128.166,63.614z"/>
		<path fill="#7A7A7A" d="M132.628,61.31c-0.126-0.208-0.257-0.425-0.301-0.667c-0.043-0.243,0.02-0.525,0.212-0.667
			c0.246-0.179,0.586-0.074,0.859,0.052c1.345,0.629,2.481,1.722,3.208,3.061c-0.804,0.243-1.619,0.495-2.435,0.759
			C133.657,63.002,133.144,62.156,132.628,61.31z"/>
		<path fill="#7A7A7A" d="M146.64,58.394c-0.047-0.195-0.086-0.4-0.047-0.599c0.042-0.197,0.183-0.384,0.375-0.415
			c0.239-0.037,0.443,0.173,0.601,0.363c0.306,0.363,0.606,0.726,0.91,1.088c-0.474,0.231-0.959,0.471-1.453,0.715
			C146.868,59.173,146.734,58.79,146.64,58.394z"/>
	</g>
	<path fill="#F2DC6E" d="M155.664,67.807c0.045,0.043,0.092,0.084,0.136,0.129c-1.418,1.574-3.474,2.559-5.59,2.674
		c-2.19,0.119-4.329-0.646-6.517-0.812c-3.319-0.253-5.922,0.911-8.936,2.727c0.062-0.179-0.076,0.166,0,0
		c2.674-1.955,5.547-3.605,8.662-4.795C147.322,66.236,151.779,66.273,155.664,67.807z"/>
	<path fill="#588327" d="M157.204,61.902c0,0,0.001-0.086-0.009-0.234c0-0.076-0.021-0.163-0.057-0.271
		c-0.029-0.109-0.072-0.232-0.15-0.342c-0.062-0.125-0.158-0.24-0.271-0.354c-0.105-0.122-0.252-0.212-0.398-0.311
		c-0.159-0.07-0.322-0.166-0.514-0.19c-0.184-0.056-0.383-0.036-0.578-0.036c-0.22,0.059-0.33,0.066-0.537,0.176
		c-0.197,0.077-0.321,0.212-0.461,0.32c-0.117,0.132-0.236,0.255-0.308,0.398c-0.082,0.14-0.146,0.273-0.174,0.41
		c-0.048,0.129-0.06,0.254-0.058,0.365c-0.008,0.109-0.008,0.201,0.013,0.277c0.028,0.154,0.051,0.232,0.051,0.232
		s0.022-0.087,0.05-0.229c0.006-0.071,0.035-0.154,0.075-0.245c0.033-0.093,0.078-0.188,0.144-0.289
		c0.051-0.104,0.133-0.2,0.215-0.301c0.076-0.106,0.195-0.183,0.291-0.279c0.117-0.073,0.236-0.16,0.353-0.201
		c0.08-0.062,0.312-0.097,0.414-0.125c0.14,0.001,0.279-0.024,0.419,0.015c0.141,0.012,0.271,0.065,0.404,0.106
		c0.117,0.07,0.253,0.113,0.352,0.197c0.105,0.075,0.209,0.147,0.285,0.235c0.089,0.082,0.155,0.16,0.21,0.238
		c0.06,0.074,0.111,0.149,0.136,0.221C157.161,61.828,157.204,61.902,157.204,61.902z"/>
	<path fill="#588327" d="M165.979,65.1c0.147-0.262,0.133-0.605-0.035-0.854c-0.168-0.249-0.481-0.391-0.779-0.352
		C164.915,64.423,165.396,65.135,165.979,65.1z"/>
	<g>
		<path fill="#F9ED32" d="M105.204,83.294c0.907-0.394,1.78-0.849,2.628-1.351c0.45,2.158,1.152,4.266,2.094,6.259
			c0.34,0.718,0.693,1.624,0.194,2.241c-0.437,0.543-1.286,0.502-1.933,0.238c-1.22-0.496-2.123-1.556-2.804-2.683
			c-0.729-1.211-1.262-2.541-1.565-3.922c-0.017-0.077-0.032-0.156-0.047-0.235C104.258,83.68,104.736,83.496,105.204,83.294z"/>
		<path fill="#F9ED32" d="M140.613,66.619c-0.559,0.07-1.041-0.371-1.403-0.803c-0.774-0.924-1.405-1.965-1.875-3.074
			c0.899-0.254,1.771-0.494,2.587-0.727c0.501,0.608,0.936,1.273,1.276,1.985c0.227,0.474,0.419,0.988,0.362,1.51
			C141.505,66.033,141.134,66.553,140.613,66.619z"/>
		<path fill="#F9ED32" d="M66.234,78.613c1.662-0.393,3.324-0.62,4.981-0.707c-0.521,3.424-0.449,6.938,0.23,10.335
			c0.184,0.919,0.412,1.86,0.248,2.782c-0.165,0.922-0.851,1.832-1.785,1.91c-0.653,0.055-1.287-0.31-1.713-0.808
			c-0.427-0.497-0.681-1.117-0.913-1.729c-1.382-3.646-2.241-7.49-2.549-11.379C65.229,78.871,65.728,78.73,66.234,78.613z"/>
		<path fill="#F9ED32" d="M134.494,68.244c-0.251,0.436-0.85,0.535-1.34,0.428c-1.084-0.238-1.84-1.195-2.469-2.109
			c-0.312-0.455-0.637-0.93-1.011-1.34c0.878-0.352,1.789-0.68,2.71-0.988c0.758,0.763,1.409,1.627,1.918,2.574
			C134.541,67.254,134.747,67.807,134.494,68.244z"/>
		<path fill="#F9ED32" d="M99.042,94.996c-0.214,0.419-0.718,0.64-1.188,0.605c-0.47-0.035-0.9-0.287-1.242-0.611
			c-0.938-0.889-1.245-2.245-1.4-3.526c-0.279-2.329-0.191-4.698,0.242-7.004c1.246,0.272,2.533,0.354,3.824,0.276
			c-0.807,2.859-0.9,5.922-0.243,8.82C99.143,94.035,99.266,94.559,99.042,94.996z"/>
		<path fill="#F9ED32" d="M79.991,87.919c-0.047,1.456-0.181,3.04-1.167,4.113c-0.392,0.427-0.957,0.755-1.53,0.668
			c-1.037-0.157-1.412-1.438-1.537-2.479c-0.485-4.058-0.571-8.162-0.261-12.238c1.812,0.158,3.612,0.471,5.395,0.906
			C80.076,81.745,80.088,84.902,79.991,87.919z"/>
		<path fill="#F9ED32" d="M112.098,80.537c-0.373-0.232-0.756-0.499-1.149-0.715c1.063-0.817,2.09-1.69,3.09-2.592
			c0.428,0.312,0.83,0.653,1.188,1.045c0.455,0.5,0.834,1.088,1.073,1.719c0.353,0.924-0.485,1.877-1.448,1.664
			C113.877,81.443,112.941,81.064,112.098,80.537z"/>
		<path fill="#F9ED32" d="M89.77,92.643c-0.242,0.725-0.862,1.388-1.627,1.409c-0.689,0.021-1.308-0.489-1.621-1.104
			c-0.314-0.614-0.387-1.32-0.451-2.008c-0.327-3.502-0.601-7.034-0.254-10.529c1.85,0.688,3.672,1.484,5.459,2.369
			c-0.896,2.422-1.352,5.008-1.32,7.59C89.963,91.133,90.012,91.917,89.77,92.643z"/>
		<path fill="#F9ED32" d="M124.782,73.059c-0.287-0.115-0.519-0.332-0.753-0.533c-0.885-0.76-1.897-1.367-2.981-1.799
			c0.772-0.674,1.562-1.324,2.377-1.941c1.022,0.746,1.841,1.775,2.296,2.958c0.155,0.403,0.247,0.922-0.068,1.218
			C125.428,73.172,125.066,73.176,124.782,73.059z"/>
		<path fill="#F9ED32" d="M119.075,76.646c-0.837-0.64-1.761-1.16-2.735-1.558c0.805-0.764,1.608-1.53,2.419-2.291
			c0.888,0.767,1.593,1.746,2.005,2.845c0.18,0.479,0.262,1.117-0.156,1.412c-0.231,0.163-0.553,0.153-0.817,0.051
			C119.523,77.003,119.301,76.818,119.075,76.646z"/>
		<path fill="#F9ED32" d="M128.043,68.971c-0.748-0.613-1.496-1.227-2.244-1.84c0.598-0.372,1.245-0.722,1.928-1.051
			c0.619,0.559,1.129,1.236,1.492,1.984c0.354,0.724-0.539,1.426-1.16,0.918L128.043,68.971z"/>
	</g>
	<g>
		<path fill="#588327" d="M103.96,131.695c-0.012-0.834-0.022-1.668-0.035-2.502c0.798,0.439,1.382,1.41,1.507,2.479
			C104.939,131.706,104.45,131.713,103.96,131.695z"/>
		<path fill="#588327" d="M106.42,131.572c-0.011-0.793-0.021-1.586-0.033-2.379c0.701,0.388,1.233,1.188,1.438,2.104
			C107.355,131.414,106.889,131.507,106.42,131.572z"/>
		<path fill="#588327" d="M101.404,131.402c-0.012-0.767-0.022-1.532-0.032-2.299c0.806,0.442,1.396,1.435,1.511,2.519
			C102.391,131.57,101.896,131.497,101.404,131.402z"/>
	</g>
	<g>
		<path fill="#588327" d="M68.237,128.693c0.771,0.412,1.364,1.408,1.5,2.517c-0.178-0.001-0.354,0.013-0.531,0.033
			c-0.277-0.032-0.553-0.078-0.827-0.132C68.333,130.305,68.285,129.5,68.237,128.693z"/>
		<path fill="#588327" d="M72.942,131.09c-0.05-0.854-0.101-1.706-0.152-2.559c0.703,0.375,1.254,1.236,1.451,2.228
			C73.816,130.893,73.382,131.003,72.942,131.09z"/>
		<path fill="#588327" d="M72.058,131.172c-0.375-0.003-0.748,0.049-1.114,0.146c-0.076,0.002-0.153,0.002-0.229,0.004
			c-0.053-0.889-0.105-1.777-0.158-2.666C71.328,129.068,71.922,130.062,72.058,131.172z"/>
	</g>
	<g opacity="0.16">
		<path fill="#FFFFFF" d="M165.57,64.352c-0.629-0.453-1.412-0.627-2.147-0.877c-1.585-0.539-3.03-1.477-4.171-2.701
			c-1.014-1.092-2.699-1.325-4.169-1.562c-4.146-0.667-7.006,1.064-10.822,2.812c-3.63,1.664-13.169,3.223-18.556,6.623
			c-3.689,2.328-6.781,5.471-9.956,8.463c-3.177,2.994-6.539,5.91-10.545,7.644c-4.004,1.731-8.79,2.14-12.661,0.126
			c-8.238-4.286-17.269-6.934-26.309-4.809c-6.406,1.508-11.949,5.426-17.164,9.438c-5.215,4.015-10.396,8.274-16.528,10.665
			s-13.545,2.606-18.896-1.226c-4.963-3.554-8.107-8.873-10.36-14.55c-0.187-0.871-0.341-1.75-0.453-2.635
			c2.281,6.113,5.508,11.926,10.812,15.726c5.351,3.831,12.764,3.616,18.896,1.226c6.132-2.39,11.313-6.65,16.528-10.665
			c5.215-4.014,10.758-7.932,17.164-9.438c9.04-2.127,18.071,0.521,26.309,4.808c3.871,2.015,8.657,1.606,12.661-0.126
			c4.006-1.732,7.369-4.648,10.545-7.645c3.175-2.991,6.268-6.135,9.956-8.463c5.387-3.399,14.926-4.959,18.556-6.621
			c3.816-1.75,6.678-3.479,10.822-2.813c1.47,0.237,3.154,0.472,4.169,1.562c1.14,1.228,2.586,2.164,4.171,2.703
			c0.735,0.25,1.52,0.424,2.148,0.877c0.938,0.674,1.83,2.278,1.299,3.2C166.617,65.41,166.102,64.73,165.57,64.352z"/>
		<path fill="#FFFFFF" d="M156.135,66.702c0.891,1.146,2.137,2.006,3.512,2.464c-0.664-0.011-1.353-0.223-2.028-0.494
			C156.992,68.111,156.475,67.445,156.135,66.702z"/>
	</g>
	<path fill="#73A334" d="M52.3,121.423c-0.441-0.537-0.752-1.181-0.899-1.858c-0.063-0.293-0.096-0.601-0.018-0.89
		c0.078-0.288,0.284-0.557,0.57-0.641c0.296-0.089,0.625,0.034,0.849,0.247c0.223,0.214,0.355,0.504,0.453,0.798
		c0.19,0.573,0.263,1.185,0.213,1.787c-0.034,0.417-0.264,0.938-0.681,0.893C52.586,121.736,52.429,121.579,52.3,121.423z"/>
	<g>
		<path fill="#73A334" d="M57.184,130.523c0.876,0.349,1.602,1.293,1.833,2.387c-0.195,0.014-0.389,0.041-0.581,0.076
			c-0.307-0.01-0.613-0.033-0.917-0.064C57.407,132.122,57.295,131.323,57.184,130.523z"/>
		<path fill="#73A334" d="M62.526,132.531c-0.118-0.848-0.236-1.693-0.355-2.54c0.799,0.317,1.468,1.133,1.756,2.104
			C63.471,132.264,63.002,132.408,62.526,132.531z"/>
		<path fill="#73A334" d="M61.562,132.686c-0.411,0.026-0.817,0.107-1.212,0.233c-0.083,0.009-0.168,0.017-0.251,0.022
			c-0.124-0.881-0.247-1.764-0.37-2.646C60.604,130.646,61.33,131.59,61.562,132.686z"/>
	</g>
	<g>
		<path fill="#F6EF76" d="M96.843,103.945c6.353-2.98,11.833-7.784,16.767-12.854c6.039-6.208,11.56-12.995,18.41-18.294
			c6.852-5.298,15.43-9.062,24.023-7.994c0.253,1.568,2.762,3.848,4.889,4.07c-1.461,0.785-3.223-0.16-4.742-0.823
			c-4.002-1.743-8.689-1.851-12.769-0.293c-7.095,2.71-12.937,7.802-18.006,13.457c-1.942,2.167-3.79,4.161-5.353,6.604
			c-1.621,2.533-3.336,5.006-5.181,7.383c-3.666,4.727-7.85,9.083-12.676,12.637c-1.924,1.417-3.938,2.641-6.017,3.698
			c0.553-1.886,0.853-3.849,0.865-5.812C97.062,105.113,96.982,104.52,96.843,103.945z"/>
		<path fill="#F6EF76" d="M73.846,107.332c2.663,0.086,5.347,0.118,8.014-0.003c-0.754,2.874-1.137,5.858-0.979,8.821
			c-3.86,0.483-7.803,0.539-11.753,0.182c-2.38-0.216-4.765-0.545-7.087-1.071c0.086-2.997,0.469-5.985,1.139-8.918
			C66.675,106.994,70.309,107.219,73.846,107.332z"/>
		<path fill="#F6EF76" d="M24.331,106.482c8.316,1.594,17.759-0.389,25.523-3.893c-0.177,0.312-0.332,0.637-0.459,0.973
			c-0.643,1.689-0.647,3.521-0.528,5.317c-0.887,0.195-2.837,0.836-3.151,0.897c-1.225,0.242-2.464,0.412-3.707,0.533
			c-7.404,0.717-14.665,1.143-21.587-2.252c-5.361-2.629-9.413-6.863-12.392-11.85C12.877,100.997,15.937,104.873,24.331,106.482z"
			/>
	</g>
	<g>
		<path fill="#73A334" d="M91.98,130.744c0.826,0.455,1.429,1.482,1.521,2.597c-0.418-0.022-0.837,0.009-1.249,0.089
			c-0.079-0.002-0.155-0.004-0.235-0.005C92.007,132.531,91.993,131.639,91.98,130.744z"/>
		<path fill="#73A334" d="M94.479,133.296c-0.012-0.851-0.023-1.7-0.035-2.552c0.752,0.414,1.312,1.303,1.479,2.3
			C95.441,133.15,94.96,133.234,94.479,133.296z"/>
		<path fill="#73A334" d="M89.428,130.654c0.826,0.453,1.43,1.48,1.522,2.596c-0.298-0.018-0.599-0.004-0.896,0.032
			c-0.197-0.025-0.395-0.052-0.592-0.081C89.452,132.352,89.439,131.502,89.428,130.654z"/>
	</g>
	<path fill="#73A334" d="M83.417,121.689c-0.457-0.555-0.779-1.221-0.931-1.924c-0.065-0.303-0.099-0.619-0.019-0.92
		c0.081-0.298,0.294-0.574,0.59-0.662c0.306-0.093,0.646,0.035,0.878,0.256c0.23,0.222,0.368,0.521,0.469,0.826
		c0.197,0.592,0.273,1.226,0.221,1.849c-0.036,0.433-0.273,0.973-0.705,0.924C83.713,122.016,83.55,121.854,83.417,121.689z"/>
	<g>
		<path fill="#FFDE36" d="M42.904,110.216c-0.172,0.021-0.344,0.037-0.516,0.056c-0.265-1.595-0.441-3.201-0.531-4.815
			c0.171-0.046,0.34-0.095,0.51-0.142C42.456,106.957,42.633,108.594,42.904,110.216z"/>
		<path fill="#FFDE36" d="M26.841,110.198c-0.177-0.035-0.354-0.07-0.531-0.108c-0.106-1.1-0.143-2.205-0.108-3.312
			c0.171,0.021,0.343,0.043,0.515,0.062C26.685,107.962,26.727,109.083,26.841,110.198z"/>
		<path fill="#FFDE36" d="M69.627,107.128c0.172,0.013,0.344,0.022,0.516,0.034c-0.129,3.072-0.445,6.143-0.944,9.176
			c-0.024-0.002-0.367-0.035-0.515-0.05C69.182,113.259,69.499,110.195,69.627,107.128z"/>
		<path fill="#FFDE36" d="M32.739,110.797c-0.173-0.004-0.346-0.008-0.519-0.014c-0.115-1.254-0.141-2.516-0.079-3.78
			c0.173-0.007,0.346-0.019,0.519-0.028C32.595,108.254,32.62,109.529,32.739,110.797z"/>
		<path fill="#FFDE36" d="M118.455,85.939l1.875,1.478c-0.09,0.134-0.182,0.265-0.268,0.399c-0.008,0.012-0.015,0.021-0.021,0.031
			l-1.938-1.527C118.223,86.193,118.338,86.066,118.455,85.939z"/>
		<path fill="#FFDE36" d="M99.787,102.406c1.053,1.641,1.997,3.353,2.826,5.117c-0.137,0.104-0.27,0.211-0.406,0.312l-0.014,0.01
			c-0.836-1.791-1.791-3.527-2.859-5.189C99.484,102.572,99.639,102.492,99.787,102.406z"/>
		<path fill="#FFDE36" d="M46.952,109.417c-0.181,0.056-0.354,0.108-0.511,0.155c-0.079-1.934,0.084-3.873,0.493-5.764
			c0.192-0.072,0.383-0.147,0.574-0.224C47.064,105.494,46.883,107.46,46.952,109.417z"/>
		<path fill="#FFDE36" d="M14.569,102.327c-0.229,0.411-0.44,0.833-0.631,1.263c-0.134-0.123-0.266-0.248-0.397-0.374
			c0.188-0.409,0.393-0.813,0.615-1.207C14.292,102.116,14.43,102.223,14.569,102.327z"/>
		<path fill="#FFDE36" d="M17.1,103.977c0.155,0.086,0.312,0.17,0.472,0.252c-0.135,0.682-0.203,1.371-0.216,2.062
			c-0.171-0.114-0.34-0.229-0.507-0.349C16.879,105.282,16.962,104.625,17.1,103.977z"/>
		<path fill="#FFDE36" d="M130.703,75.869c-0.128,0.115-0.258,0.23-0.385,0.348l-1.116-1.097c0.13-0.113,0.26-0.228,0.391-0.341
			L130.703,75.869z"/>
		<path fill="#FFDE36" d="M22.083,105.964c0.165,0.045,0.334,0.088,0.504,0.132c-0.146,0.924-0.234,1.859-0.265,2.799
			c-0.169-0.065-0.338-0.136-0.508-0.205C21.851,107.773,21.939,106.864,22.083,105.964z"/>
		<path fill="#FFDE36" d="M37.816,110.663c-0.173,0.012-0.345,0.021-0.517,0.032c-0.182-1.401-0.212-2.821-0.083-4.233
			c0.177-0.028,0.353-0.06,0.53-0.09C37.604,107.803,37.628,109.242,37.816,110.663z"/>
		<path fill="#FFDE36" d="M74.008,116.564c0.449-3.051,0.538-6.158,0.258-9.221c0.174,0.006,0.347,0.01,0.521,0.016
			c0.274,3.058,0.185,6.16-0.257,9.207C74.356,116.566,74.182,116.564,74.008,116.564z"/>
		<path fill="#FFDE36" d="M126.236,77.844c0.125-0.119,0.252-0.238,0.375-0.359c0.424,0.367,0.842,0.736,1.259,1.11
			c-0.12,0.123-0.242,0.245-0.362,0.37C127.088,78.587,126.663,78.213,126.236,77.844z"/>
		<path fill="#FFDE36" d="M106.498,97.704c0.135-0.109,0.266-0.222,0.396-0.332l2.916,3.72c-0.119,0.125-0.24,0.251-0.36,0.376
			L106.498,97.704z"/>
		<path fill="#FFDE36" d="M103.447,100.037c0.142-0.102,0.285-0.198,0.425-0.301c1.104,1.322,2.153,2.695,3.142,4.111
			c-0.127,0.117-0.259,0.232-0.388,0.351C105.63,102.764,104.568,101.373,103.447,100.037z"/>
		<path fill="#FFDE36" d="M78.645,107.413c0.172-0.001,0.344-0.003,0.517-0.004c0.02,2.977-0.001,5.965-0.069,8.944
			c-0.172,0.016-0.345,0.027-0.518,0.043C78.642,113.402,78.664,110.402,78.645,107.413z"/>
		<path fill="#FFDE36" d="M65.676,106.741c0.171,0.021,0.342,0.043,0.513,0.063c-0.314,3.012-0.742,6.022-1.28,9.008
			c-0.17-0.026-0.34-0.059-0.509-0.088C64.936,112.748,65.363,109.746,65.676,106.741z"/>
		<path fill="#FFDE36" d="M96.177,104.242c0.158-0.07,0.318-0.139,0.476-0.211c0.746,2.07,1.283,4.209,1.609,6.387
			c-0.16,0.092-0.32,0.186-0.482,0.273C97.463,108.493,96.928,106.334,96.177,104.242z"/>
		<path fill="#FFDE36" d="M125.206,81.447c-0.116,0.128-0.229,0.257-0.347,0.385l-1.446-1.166c0.12-0.125,0.239-0.25,0.36-0.373
			L125.206,81.447z"/>
		<path fill="#FFDE36" d="M121.289,82.895c0.118-0.127,0.238-0.254,0.355-0.379c0.524,0.389,1.045,0.781,1.562,1.183
			c-0.113,0.131-0.225,0.262-0.336,0.394C122.348,83.686,121.82,83.287,121.289,82.895z"/>
		<path fill="#FFDE36" d="M112.777,91.934c0.123-0.123,0.244-0.248,0.365-0.371c0.955,0.726,1.85,1.531,2.668,2.407
			c-0.104,0.14-0.209,0.278-0.314,0.417C114.666,93.492,113.754,92.668,112.777,91.934z"/>
		<path fill="#FFDE36" d="M115.467,89.146c0.118-0.125,0.237-0.25,0.356-0.377c0.771,0.646,1.556,1.275,2.348,1.896
			c-0.098,0.143-0.194,0.286-0.292,0.43C117.064,90.457,116.26,89.811,115.467,89.146z"/>
		<path fill="#FFDE36" d="M110.081,94.559c0.127-0.117,0.25-0.238,0.375-0.355c0.899,1.035,1.839,2.038,2.812,3.008
			c-0.109,0.133-0.225,0.264-0.334,0.396C111.945,96.625,110.993,95.607,110.081,94.559z"/>
	</g>
	<g opacity="0.3">
		<path fill="#527B24" d="M102.127,105.309c5.044-3.238,9.495-7.32,13.455-11.805c1.264-1.434,2.477-2.911,3.65-4.417
			c-1.375,2.089-2.816,4.136-4.351,6.113c-3.666,4.727-7.85,9.083-12.676,12.637c-1.924,1.417-3.938,2.642-6.017,3.698
			c0.322-1.102,0.551-2.227,0.69-3.365C98.676,107.344,100.43,106.398,102.127,105.309z"/>
		<path fill="#527B24" d="M68.574,111.682c4.143,0.643,8.306,0.826,12.402,0.522c-0.128,1.313-0.165,2.633-0.095,3.946
			c-3.86,0.483-7.803,0.539-11.753,0.182c-2.38-0.216-4.765-0.545-7.087-1.071c0.046-1.616,0.185-3.229,0.401-4.835
			C64.484,110.941,66.567,111.369,68.574,111.682z"/>
		<path fill="#527B24" d="M12.845,101.125c13.851,11.479,32.468,5.256,36.129,4.016c-0.21,1.224-0.191,2.488-0.108,3.74
			c-0.887,0.195-2.837,0.836-3.151,0.898c-1.225,0.242-2.464,0.412-3.707,0.531c-7.404,0.717-14.665,1.144-21.587-2.252
			c-7.228-3.543-12.081-10-15.124-17.293c-1.2-2.877-2.076-5.904-2.464-9C4.215,88.891,7.821,96.963,12.845,101.125z"/>
	</g>
</g>
</svg>
