<?xml version="1.0" encoding="utf-8"?>
<!-- Generator: Adobe Illustrator 16.0.4, SVG Export Plug-In . SVG Version: 6.00 Build 0)  -->
<!DOCTYPE svg PUBLIC "-//W3C//DTD SVG 1.1//EN" "http://www.w3.org/Graphics/SVG/1.1/DTD/svg11.dtd">
<svg version="1.1" id="Layer_1" xmlns="http://www.w3.org/2000/svg" xmlns:xlink="http://www.w3.org/1999/xlink" x="0px" y="0px"
	 width="170px" height="170px" viewBox="0 0 170 170" enable-background="new 0 0 170 170" xml:space="preserve">
<title>Artboard 9</title>
<g>
	<path fill="#8DC63F" d="M13.646,128.49c5.351,3.832,12.764,3.616,18.896,1.226s11.313-6.65,16.528-10.665
		c5.215-4.014,10.758-7.932,17.164-9.438c9.04-2.127,18.071,0.521,26.309,4.807c3.871,2.014,8.657,1.607,12.661-0.126
		c4.006-1.732,7.369-4.649,10.545-7.644c3.175-2.992,6.267-6.135,9.956-8.463c5.387-3.4,14.926-4.959,18.556-6.622
		c3.816-1.749,6.678-3.479,10.822-2.813c1.47,0.237,3.155,0.471,4.169,1.562c1.14,1.226,2.586,2.163,4.171,2.702
		c0.735,0.25,1.519,0.424,2.148,0.877c1.05,0.753,2.047,2.677,1.052,3.5c-1.512,1.251-3.538,1.857-5.487,1.645
		c-1.95-0.214-3.797-1.246-5.001-2.794c0.847,1.854,2.794,3.247,4.797,3.63c-1.462,0.785-3.223-0.16-4.743-0.823
		c-4.002-1.743-8.689-1.851-12.768-0.293c-7.095,2.71-12.937,7.802-18.006,13.457c-1.942,2.167-3.79,4.161-5.353,6.604
		c-1.62,2.533-3.336,5.006-5.18,7.383c-3.666,4.727-7.85,9.083-12.676,12.637c-1.924,1.417-3.938,2.641-6.017,3.698
		c-0.613,2.095-1.54,4.096-2.776,5.895c-0.668,0.969-1.451,1.979-1.44,3.156c0.011,1.107,0.724,2.062,1.32,2.993
		c1.791,2.798,2.757,6.118,2.746,9.44c-2.959,0.683-5.909,0.463-8.853-0.284c0.293-2.099-1.258-3.776-2.518-5.479
		c-2.076-2.807-3.278-6.211-3.673-9.679c-0.054-0.475-0.09-0.95-0.115-1.427c-3.86,0.483-7.803,0.539-11.753,0.181
		c-2.38-0.215-4.765-0.545-7.087-1.071c-0.16,5.604,0.698,11.233,2.574,16.561c-3.411,1.467-7.647,1.658-10.965,0.016
		c-2.799-7.166-4.145-14.767-4.742-22.372c-0.016-0.193-0.029-0.389-0.042-0.584c-0.887,0.195-2.837,0.836-3.151,0.898
		c-1.225,0.242-2.464,0.412-3.707,0.532c-7.404,0.717-14.665,1.143-21.587-2.252c-7.228-3.544-12.081-10.001-15.124-17.294
		c-1.2-2.877-2.076-5.903-2.464-9C5.114,118.878,8.342,124.691,13.646,128.49z"/>
	<path fill="#73A334" d="M102.207,138.837c2.403-1.771,4.648-3.74,6.748-5.855c-0.21,4.226-1.396,8.392-3.475,11.88
		c-0.645,1.081-1.402,2.208-1.392,3.521c0.011,1.233,0.699,2.299,1.276,3.338c1.73,3.121,2.663,6.823,2.652,10.528
		c-2.858,0.762-5.71,0.517-8.554-0.316c0.283-2.341-1.215-4.212-2.433-6.111c-1.542-2.405-2.58-5.208-3.153-8.131
		c1-1.604,1.781-3.34,2.312-5.155C98.27,141.478,100.283,140.254,102.207,138.837z"/>
	<path fill="#73A334" d="M73.485,147.539c-0.187,4.696,0.27,9.427,1.396,13.997c-3.188,1.212-7.039,1.09-9.935-0.791
		c-1.313-4.697-2.073-9.528-2.462-14.394c2.182,0.47,4.413,0.779,6.643,0.98C70.583,147.464,72.036,147.521,73.485,147.539z"/>
	<path fill="#F2DC6E" d="M155.664,98.807c0.045,0.043,0.092,0.084,0.136,0.128c-1.418,1.575-3.474,2.559-5.59,2.675
		c-2.19,0.119-4.329-0.646-6.516-0.813c-3.32-0.253-5.922,0.911-8.936,2.726c0.062-0.178-0.077,0.166,0,0
		c2.673-1.955,5.546-3.605,8.662-4.795C147.322,97.236,151.78,97.273,155.664,98.807z"/>
	<path fill="#588327" d="M157.204,92.903c0,0,0.001-0.087-0.009-0.235c0.001-0.076-0.021-0.163-0.057-0.271
		c-0.028-0.11-0.072-0.233-0.149-0.343c-0.063-0.125-0.159-0.24-0.272-0.353c-0.105-0.122-0.252-0.212-0.398-0.31
		c-0.16-0.07-0.323-0.167-0.515-0.191c-0.183-0.055-0.382-0.036-0.577-0.036c-0.22,0.058-0.33,0.066-0.537,0.176
		c-0.198,0.077-0.322,0.212-0.462,0.32c-0.116,0.132-0.236,0.255-0.307,0.399c-0.082,0.139-0.145,0.273-0.174,0.41
		c-0.048,0.129-0.059,0.254-0.058,0.365c-0.008,0.109-0.008,0.201,0.013,0.278c0.028,0.153,0.051,0.232,0.051,0.232
		s0.023-0.087,0.05-0.229c0.005-0.071,0.035-0.154,0.075-0.245c0.033-0.092,0.078-0.189,0.143-0.289
		c0.052-0.104,0.133-0.2,0.216-0.301c0.075-0.106,0.195-0.182,0.291-0.279c0.116-0.073,0.236-0.16,0.352-0.201
		c0.08-0.062,0.311-0.097,0.414-0.125c0.14,0.001,0.279-0.025,0.419,0.014c0.141,0.012,0.271,0.066,0.404,0.107
		c0.117,0.07,0.253,0.113,0.352,0.197c0.105,0.076,0.209,0.148,0.285,0.236c0.089,0.082,0.155,0.16,0.21,0.238
		c0.06,0.074,0.111,0.149,0.136,0.221C157.161,92.828,157.204,92.903,157.204,92.903z"/>
	<path fill="#588327" d="M165.979,96.1c0.147-0.262,0.133-0.606-0.035-0.854c-0.169-0.249-0.482-0.39-0.78-0.351
		C164.915,95.423,165.396,96.135,165.979,96.1z"/>
	<g>
		<path fill="#F9ED32" d="M105.204,114.294c0.907-0.393,1.781-0.848,2.628-1.35c0.45,2.158,1.152,4.265,2.094,6.258
			c0.34,0.718,0.693,1.624,0.194,2.242c-0.437,0.542-1.286,0.501-1.932,0.238c-1.22-0.496-2.123-1.556-2.804-2.683
			c-0.73-1.211-1.262-2.541-1.565-3.922c-0.017-0.077-0.033-0.156-0.048-0.235C104.258,114.679,104.737,114.496,105.204,114.294z"/>
		<path fill="#F9ED32" d="M140.613,97.619c-0.559,0.07-1.041-0.371-1.403-0.803c-0.774-0.924-1.405-1.965-1.875-3.074
			c0.899-0.254,1.771-0.494,2.587-0.727c0.501,0.609,0.936,1.274,1.276,1.986c0.227,0.473,0.419,0.988,0.363,1.51
			S141.134,97.553,140.613,97.619z"/>
		<path fill="#F9ED32" d="M66.234,109.613c1.662-0.392,3.324-0.62,4.981-0.707c-0.521,3.424-0.449,6.938,0.23,10.335
			c0.184,0.919,0.412,1.86,0.248,2.783c-0.165,0.922-0.851,1.831-1.785,1.909c-0.653,0.055-1.287-0.309-1.713-0.807
			c-0.427-0.497-0.681-1.117-0.913-1.729c-1.382-3.646-2.241-7.491-2.549-11.379C65.229,109.871,65.728,109.731,66.234,109.613z"/>
		<path fill="#F9ED32" d="M134.494,99.244c-0.251,0.435-0.849,0.535-1.339,0.428c-1.084-0.238-1.84-1.195-2.469-2.109
			c-0.313-0.455-0.637-0.93-1.011-1.34c0.878-0.352,1.789-0.68,2.71-0.988c0.757,0.762,1.409,1.627,1.917,2.573
			C134.541,98.254,134.747,98.807,134.494,99.244z"/>
		<path fill="#F9ED32" d="M99.042,125.996c-0.214,0.419-0.718,0.64-1.188,0.605c-0.47-0.034-0.901-0.287-1.243-0.611
			c-0.937-0.889-1.245-2.245-1.4-3.526c-0.28-2.329-0.192-4.699,0.242-7.004c1.246,0.272,2.534,0.354,3.825,0.276
			c-0.807,2.86-0.901,5.922-0.244,8.821C99.142,125.035,99.265,125.559,99.042,125.996z"/>
		<path fill="#F9ED32" d="M79.991,118.919c-0.047,1.456-0.181,3.04-1.167,4.113c-0.392,0.427-0.957,0.755-1.53,0.668
			c-1.037-0.157-1.412-1.438-1.537-2.479c-0.485-4.058-0.571-8.163-0.261-12.238c1.812,0.158,3.612,0.47,5.395,0.905
			C80.076,112.745,80.088,115.902,79.991,118.919z"/>
		<path fill="#F9ED32" d="M112.098,111.537c-0.373-0.232-0.756-0.499-1.15-0.715c1.064-0.817,2.09-1.69,3.09-2.591
			c0.428,0.311,0.83,0.653,1.188,1.044c0.456,0.5,0.835,1.088,1.074,1.719c0.352,0.924-0.485,1.877-1.449,1.664
			C113.877,112.443,112.941,112.064,112.098,111.537z"/>
		<path fill="#F9ED32" d="M89.769,123.642c-0.242,0.725-0.862,1.388-1.627,1.41c-0.689,0.021-1.307-0.49-1.621-1.105
			c-0.314-0.614-0.386-1.32-0.45-2.007c-0.328-3.502-0.602-7.035-0.254-10.53c1.849,0.687,3.671,1.485,5.458,2.369
			c-0.896,2.422-1.351,5.008-1.32,7.59C89.963,122.133,90.011,122.917,89.769,123.642z"/>
		<path fill="#F9ED32" d="M124.782,104.059c-0.287-0.116-0.518-0.332-0.752-0.533c-0.885-0.76-1.898-1.368-2.982-1.8
			c0.772-0.673,1.562-1.323,2.377-1.941c1.022,0.746,1.84,1.776,2.295,2.958c0.156,0.403,0.248,0.922-0.067,1.218
			C125.428,104.172,125.067,104.176,124.782,104.059z"/>
		<path fill="#F9ED32" d="M119.075,107.646c-0.837-0.639-1.76-1.16-2.735-1.557c0.805-0.764,1.608-1.531,2.419-2.291
			c0.888,0.767,1.593,1.746,2.005,2.845c0.179,0.479,0.261,1.117-0.157,1.411c-0.231,0.164-0.552,0.154-0.817,0.051
			C119.524,108.003,119.301,107.819,119.075,107.646z"/>
		<path fill="#F9ED32" d="M128.043,99.971c-0.748-0.613-1.496-1.227-2.244-1.84c0.598-0.372,1.245-0.722,1.928-1.051
			c0.619,0.558,1.128,1.236,1.492,1.985c0.353,0.723-0.539,1.425-1.161,0.917L128.043,99.971z"/>
	</g>
	<g>
		<path fill="#A7A9AC" d="M115.808,104.877c-0.142-0.152-0.287-0.311-0.361-0.506c-0.075-0.195-0.063-0.439,0.083-0.588
			c0.187-0.188,0.496-0.154,0.754-0.092c0.63,0.155,1.231,0.416,1.781,0.76c-0.472,0.447-0.941,0.895-1.411,1.342
			C116.371,105.487,116.09,105.182,115.808,104.877z"/>
		<path fill="#A7A9AC" d="M118.177,102.697c-0.142-0.152-0.287-0.312-0.361-0.506c-0.075-0.195-0.063-0.439,0.084-0.588
			c0.186-0.188,0.496-0.155,0.753-0.092c0.627,0.154,1.227,0.414,1.774,0.756c-0.483,0.432-0.96,0.87-1.435,1.312
			C118.721,103.285,118.448,102.992,118.177,102.697z"/>
		<path fill="#A7A9AC" d="M120.262,100.66c-0.142-0.154-0.286-0.312-0.361-0.508c-0.074-0.194-0.062-0.438,0.084-0.586
			c0.187-0.189,0.495-0.155,0.753-0.092c0.698,0.172,1.362,0.473,1.959,0.875c-0.521,0.415-1.033,0.843-1.538,1.279
			C120.859,101.307,120.561,100.982,120.262,100.66z"/>
		<path fill="#A7A9AC" d="M122.979,98.445c-0.111-0.176-0.226-0.357-0.265-0.562c-0.038-0.205,0.018-0.443,0.188-0.562
			c0.217-0.152,0.516-0.064,0.757,0.044c0.604,0.271,1.158,0.644,1.645,1.091c-0.546,0.358-1.08,0.734-1.604,1.123
			C123.461,99.201,123.22,98.824,122.979,98.445z"/>
		<path fill="#A7A9AC" d="M112.964,107.531c-0.143-0.153-0.287-0.312-0.361-0.507c-0.075-0.195-0.063-0.438,0.084-0.587
			c0.187-0.188,0.496-0.155,0.753-0.092c0.64,0.157,1.251,0.423,1.808,0.775c-0.476,0.443-0.957,0.885-1.443,1.318
			C113.524,108.137,113.244,107.834,112.964,107.531z"/>
		<path fill="#A7A9AC" d="M140.792,90.302c-0.091-0.143-0.183-0.29-0.214-0.456s0.014-0.357,0.151-0.455
			c0.176-0.123,0.418-0.052,0.613,0.035c1.006,0.451,1.853,1.247,2.365,2.223c0.021,0.04,0.04,0.084,0.055,0.129
			c-0.483,0.195-1.04,0.39-1.658,0.587C141.667,91.677,141.229,90.989,140.792,90.302z"/>
		<path fill="#A7A9AC" d="M111.163,110.232c-0.143-0.153-0.287-0.312-0.361-0.507c-0.075-0.195-0.063-0.438,0.084-0.587
			c0.187-0.188,0.496-0.155,0.753-0.092c0.361,0.088,0.711,0.214,1.049,0.367c-0.426,0.361-0.859,0.717-1.297,1.064
			C111.315,110.396,111.239,110.314,111.163,110.232z"/>
		<path fill="#A7A9AC" d="M137.136,91.139c-0.106-0.168-0.215-0.342-0.251-0.537c-0.037-0.195,0.016-0.422,0.179-0.535
			c0.206-0.146,0.49-0.062,0.721,0.041c1.184,0.531,2.18,1.467,2.783,2.614c0.016,0.03,0.031,0.062,0.045,0.095
			c-0.644,0.188-1.329,0.381-2.04,0.579C138.094,92.643,137.614,91.891,137.136,91.139z"/>
		<path fill="#A7A9AC" d="M125.587,96.551c-0.112-0.177-0.227-0.358-0.265-0.564c-0.039-0.205,0.016-0.441,0.187-0.562
			c0.218-0.152,0.517-0.064,0.758,0.044c0.73,0.327,1.39,0.805,1.94,1.385c-0.643,0.295-1.257,0.605-1.833,0.935
			C126.112,97.375,125.849,96.963,125.587,96.551z"/>
		<path fill="#A7A9AC" d="M128.572,94.561c-0.112-0.177-0.227-0.358-0.265-0.564c-0.039-0.205,0.017-0.441,0.188-0.562
			c0.217-0.152,0.516-0.064,0.758,0.044c0.97,0.436,1.817,1.133,2.445,1.99c-0.699,0.242-1.39,0.499-2.06,0.77
			C129.283,95.678,128.928,95.119,128.572,94.561z"/>
		<path fill="#A7A9AC" d="M132.506,92.617c-0.112-0.176-0.227-0.358-0.266-0.563c-0.038-0.205,0.018-0.442,0.188-0.562
			c0.217-0.151,0.515-0.063,0.757,0.044c1.186,0.531,2.188,1.453,2.828,2.582c-0.708,0.205-1.428,0.418-2.147,0.641
			C133.413,94.045,132.96,93.331,132.506,92.617z"/>
		<path fill="#A7A9AC" d="M144.858,90.156c-0.042-0.165-0.077-0.338-0.041-0.505s0.16-0.325,0.329-0.35
			c0.212-0.031,0.391,0.146,0.531,0.307c0.268,0.306,0.534,0.612,0.801,0.918c-0.418,0.195-0.845,0.397-1.281,0.603
			C145.059,90.814,144.942,90.49,144.858,90.156z"/>
	</g>
	<g>
		<path fill="#588327" d="M103.96,162.696c-0.012-0.834-0.023-1.668-0.035-2.502c0.797,0.439,1.381,1.41,1.506,2.479
			C104.94,162.706,104.45,162.713,103.96,162.696z"/>
		<path fill="#588327" d="M106.42,162.572c-0.011-0.793-0.022-1.585-0.033-2.378c0.701,0.387,1.233,1.188,1.438,2.103
			C107.355,162.414,106.889,162.507,106.42,162.572z"/>
		<path fill="#588327" d="M101.404,162.403c-0.011-0.767-0.022-1.533-0.032-2.3c0.806,0.443,1.396,1.435,1.511,2.519
			C102.39,162.57,101.897,162.497,101.404,162.403z"/>
	</g>
	<g>
		<path fill="#588327" d="M68.237,159.694c0.771,0.412,1.364,1.407,1.5,2.516c-0.178-0.001-0.354,0.013-0.531,0.033
			c-0.277-0.032-0.553-0.078-0.827-0.132C68.333,161.305,68.285,160.5,68.237,159.694z"/>
		<path fill="#588327" d="M72.942,162.09c-0.05-0.853-0.101-1.706-0.152-2.559c0.703,0.375,1.254,1.237,1.451,2.228
			C73.816,161.893,73.382,162.003,72.942,162.09z"/>
		<path fill="#588327" d="M72.058,162.172c-0.375-0.003-0.748,0.048-1.114,0.146c-0.076,0.002-0.153,0.003-0.229,0.004
			c-0.053-0.889-0.105-1.777-0.158-2.666C71.328,160.068,71.922,161.063,72.058,162.172z"/>
	</g>
	<g opacity="0.16">
		<path fill="#FFFFFF" d="M165.571,95.352c-0.63-0.453-1.413-0.627-2.148-0.877c-1.585-0.539-3.031-1.477-4.171-2.702
			c-1.014-1.091-2.699-1.325-4.169-1.562c-4.145-0.667-7.006,1.064-10.822,2.813c-3.63,1.663-13.169,3.222-18.556,6.622
			c-3.689,2.328-6.781,5.471-9.956,8.463c-3.176,2.994-6.539,5.911-10.545,7.644c-4.004,1.732-8.79,2.14-12.661,0.126
			c-8.238-4.286-17.269-6.934-26.309-4.808c-6.406,1.507-11.949,5.425-17.164,9.438c-5.215,4.015-10.396,8.274-16.528,10.665
			s-13.545,2.606-18.896-1.226c-4.963-3.554-8.107-8.873-10.36-14.55c-0.187-0.871-0.341-1.749-0.453-2.634
			c2.281,6.113,5.508,11.926,10.812,15.725c5.351,3.832,12.764,3.616,18.896,1.226s11.313-6.65,16.528-10.665
			c5.215-4.014,10.758-7.932,17.164-9.438c9.04-2.127,18.071,0.521,26.309,4.807c3.871,2.014,8.657,1.607,12.661-0.126
			c4.006-1.732,7.369-4.649,10.545-7.644c3.175-2.992,6.267-6.135,9.956-8.463c5.387-3.4,14.926-4.959,18.556-6.622
			c3.816-1.749,6.678-3.479,10.822-2.813c1.47,0.237,3.155,0.471,4.169,1.562c1.14,1.227,2.586,2.163,4.171,2.702
			c0.735,0.25,1.519,0.424,2.148,0.877c0.938,0.674,1.83,2.279,1.299,3.201C166.617,96.41,166.101,95.731,165.571,95.352z"/>
		<path fill="#FFFFFF" d="M156.135,97.702c0.891,1.146,2.136,2.006,3.512,2.464c-0.664-0.011-1.353-0.223-2.029-0.494
			C156.992,99.111,156.474,98.445,156.135,97.702z"/>
	</g>
	<path fill="#73A334" d="M52.3,152.423c-0.441-0.537-0.752-1.181-0.899-1.859c-0.063-0.293-0.096-0.6-0.018-0.889
		c0.078-0.288,0.284-0.557,0.57-0.641c0.296-0.088,0.625,0.034,0.849,0.247c0.223,0.214,0.355,0.504,0.453,0.798
		c0.19,0.573,0.263,1.185,0.213,1.787c-0.034,0.417-0.264,0.938-0.681,0.893C52.586,152.736,52.429,152.579,52.3,152.423z"/>
	<g>
		<path fill="#73A334" d="M57.184,161.523c0.876,0.349,1.602,1.293,1.833,2.387c-0.195,0.014-0.389,0.041-0.581,0.077
			c-0.307-0.011-0.613-0.034-0.917-0.065C57.407,163.122,57.295,162.323,57.184,161.523z"/>
		<path fill="#73A334" d="M62.526,163.531c-0.118-0.847-0.236-1.693-0.355-2.54c0.799,0.317,1.468,1.133,1.756,2.104
			C63.471,163.263,63.002,163.408,62.526,163.531z"/>
		<path fill="#73A334" d="M61.562,163.685c-0.411,0.027-0.817,0.108-1.212,0.234c-0.083,0.009-0.168,0.016-0.251,0.022
			c-0.124-0.881-0.247-1.763-0.37-2.645C60.604,161.646,61.33,162.59,61.562,163.685z"/>
	</g>
	<g>
		<path fill="#F6EF76" d="M96.843,134.945c6.352-2.98,11.833-7.784,16.766-12.854c6.039-6.208,11.56-12.995,18.41-18.294
			c6.852-5.298,15.43-9.063,24.024-7.994c0.253,1.568,2.761,3.848,4.889,4.07c-1.462,0.785-3.223-0.16-4.743-0.823
			c-4.002-1.743-8.689-1.851-12.768-0.293c-7.095,2.71-12.937,7.802-18.006,13.457c-1.942,2.167-3.79,4.161-5.353,6.604
			c-1.62,2.533-3.336,5.006-5.18,7.383c-3.666,4.727-7.85,9.083-12.676,12.637c-1.924,1.417-3.938,2.641-6.017,3.698
			c0.553-1.886,0.853-3.848,0.866-5.812C97.062,136.113,96.983,135.519,96.843,134.945z"/>
		<path fill="#F6EF76" d="M73.846,138.332c2.663,0.086,5.347,0.118,8.014-0.003c-0.754,2.874-1.137,5.859-0.979,8.822
			c-3.86,0.483-7.803,0.539-11.753,0.181c-2.38-0.216-4.765-0.545-7.087-1.071c0.086-2.997,0.469-5.986,1.139-8.918
			C66.675,137.994,70.309,138.219,73.846,138.332z"/>
		<path fill="#F6EF76" d="M24.331,137.482c8.316,1.594,17.759-0.388,25.523-3.892c-0.177,0.313-0.332,0.637-0.459,0.972
			c-0.643,1.69-0.647,3.521-0.528,5.318c-0.887,0.195-2.837,0.836-3.151,0.898c-1.225,0.242-2.464,0.412-3.707,0.532
			c-7.404,0.717-14.665,1.143-21.587-2.252c-5.361-2.629-9.413-6.862-12.392-11.849C12.877,131.997,15.937,135.873,24.331,137.482z"
			/>
	</g>
	<g>
		<path fill="#73A334" d="M91.98,161.744c0.826,0.455,1.429,1.482,1.522,2.597c-0.418-0.023-0.837,0.008-1.249,0.088
			c-0.079-0.001-0.156-0.003-0.235-0.004C92.007,163.531,91.993,162.638,91.98,161.744z"/>
		<path fill="#73A334" d="M94.479,164.296c-0.012-0.85-0.024-1.7-0.036-2.552c0.752,0.414,1.313,1.303,1.48,2.3
			C95.441,164.151,94.96,164.234,94.479,164.296z"/>
		<path fill="#73A334" d="M89.428,161.654c0.826,0.454,1.429,1.481,1.522,2.596c-0.298-0.017-0.599-0.004-0.896,0.032
			c-0.197-0.025-0.394-0.052-0.591-0.081C89.452,163.352,89.439,162.502,89.428,161.654z"/>
	</g>
	<path fill="#73A334" d="M83.417,152.69c-0.457-0.555-0.779-1.221-0.931-1.924c-0.065-0.303-0.099-0.62-0.019-0.92
		c0.081-0.298,0.294-0.575,0.59-0.663c0.306-0.092,0.646,0.036,0.878,0.257c0.23,0.221,0.368,0.521,0.469,0.825
		c0.197,0.593,0.273,1.226,0.221,1.849c-0.036,0.433-0.273,0.973-0.705,0.924C83.713,153.016,83.55,152.854,83.417,152.69z"/>
	<g>
		<path fill="#FFDE36" d="M42.904,141.216c-0.172,0.02-0.344,0.037-0.516,0.055c-0.265-1.594-0.441-3.201-0.531-4.815
			c0.171-0.046,0.34-0.094,0.51-0.142C42.456,137.957,42.633,139.594,42.904,141.216z"/>
		<path fill="#FFDE36" d="M26.841,141.198c-0.177-0.035-0.354-0.07-0.531-0.108c-0.106-1.1-0.143-2.205-0.108-3.312
			c0.171,0.021,0.343,0.042,0.515,0.061C26.685,138.962,26.727,140.083,26.841,141.198z"/>
		<path fill="#FFDE36" d="M69.627,138.128c0.172,0.012,0.344,0.023,0.516,0.034c-0.129,3.073-0.445,6.142-0.944,9.176
			c-0.024-0.002-0.367-0.035-0.515-0.05C69.182,144.259,69.499,141.195,69.627,138.128z"/>
		<path fill="#FFDE36" d="M32.739,141.797c-0.173-0.004-0.346-0.008-0.519-0.014c-0.115-1.254-0.141-2.516-0.079-3.78
			c0.173-0.007,0.346-0.019,0.519-0.028C32.595,139.254,32.62,140.53,32.739,141.797z"/>
		<path fill="#FFDE36" d="M118.455,116.94l1.875,1.477c-0.09,0.134-0.181,0.265-0.268,0.4c-0.007,0.011-0.014,0.021-0.02,0.031
			l-1.939-1.527C118.222,117.194,118.338,117.067,118.455,116.94z"/>
		<path fill="#FFDE36" d="M99.787,133.406c1.053,1.641,1.997,3.353,2.827,5.118c-0.138,0.103-0.27,0.211-0.407,0.312l-0.013,0.009
			c-0.836-1.791-1.792-3.527-2.86-5.189C99.484,133.572,99.639,133.492,99.787,133.406z"/>
		<path fill="#FFDE36" d="M46.952,140.417c-0.181,0.056-0.354,0.108-0.511,0.155c-0.079-1.933,0.084-3.873,0.493-5.763
			c0.192-0.073,0.383-0.148,0.574-0.224C47.064,136.494,46.883,138.46,46.952,140.417z"/>
		<path fill="#FFDE36" d="M14.569,133.327c-0.229,0.411-0.44,0.833-0.631,1.263c-0.134-0.123-0.266-0.248-0.397-0.374
			c0.188-0.41,0.393-0.813,0.615-1.207C14.292,133.116,14.43,133.223,14.569,133.327z"/>
		<path fill="#FFDE36" d="M17.1,134.976c0.155,0.086,0.312,0.17,0.472,0.253c-0.135,0.681-0.203,1.37-0.216,2.061
			c-0.171-0.114-0.34-0.229-0.507-0.348C16.879,136.282,16.962,135.625,17.1,134.976z"/>
		<path fill="#FFDE36" d="M130.703,106.869c-0.128,0.116-0.257,0.23-0.384,0.348l-1.117-1.097c0.13-0.113,0.26-0.228,0.391-0.341
			L130.703,106.869z"/>
		<path fill="#FFDE36" d="M22.083,136.964c0.165,0.045,0.334,0.088,0.504,0.131c-0.146,0.924-0.234,1.86-0.265,2.8
			c-0.169-0.066-0.338-0.136-0.508-0.206C21.851,138.774,21.939,137.864,22.083,136.964z"/>
		<path fill="#FFDE36" d="M37.816,141.663c-0.173,0.012-0.345,0.021-0.517,0.032c-0.182-1.401-0.212-2.821-0.083-4.233
			c0.177-0.028,0.353-0.059,0.53-0.09C37.604,138.803,37.628,140.242,37.816,141.663z"/>
		<path fill="#FFDE36" d="M74.008,147.564c0.449-3.05,0.538-6.158,0.258-9.22c0.174,0.005,0.347,0.01,0.521,0.016
			c0.274,3.057,0.185,6.16-0.257,9.206C74.356,147.567,74.182,147.565,74.008,147.564z"/>
		<path fill="#FFDE36" d="M126.237,108.844c0.125-0.119,0.251-0.239,0.375-0.359c0.423,0.366,0.841,0.736,1.258,1.11
			c-0.12,0.123-0.242,0.245-0.362,0.37C127.088,109.587,126.663,109.213,126.237,108.844z"/>
		<path fill="#FFDE36" d="M106.498,128.704c0.135-0.109,0.265-0.222,0.396-0.332l2.917,3.72c-0.12,0.125-0.24,0.251-0.361,0.376
			L106.498,128.704z"/>
		<path fill="#FFDE36" d="M103.447,131.037c0.142-0.102,0.285-0.198,0.425-0.3c1.105,1.321,2.154,2.695,3.141,4.111
			c-0.127,0.117-0.258,0.232-0.387,0.35C105.63,133.764,104.568,132.373,103.447,131.037z"/>
		<path fill="#FFDE36" d="M78.645,138.413c0.172-0.001,0.344-0.003,0.517-0.004c0.02,2.977-0.001,5.965-0.069,8.944
			c-0.172,0.016-0.345,0.028-0.518,0.043C78.642,144.403,78.664,141.402,78.645,138.413z"/>
		<path fill="#FFDE36" d="M65.676,137.741c0.171,0.021,0.342,0.043,0.513,0.064c-0.314,3.012-0.742,6.022-1.28,9.008
			c-0.17-0.027-0.34-0.059-0.509-0.088C64.936,143.748,65.363,140.746,65.676,137.741z"/>
		<path fill="#FFDE36" d="M96.177,135.242c0.158-0.07,0.318-0.139,0.475-0.211c0.746,2.071,1.283,4.209,1.609,6.387
			c-0.16,0.092-0.32,0.185-0.481,0.274C97.463,139.493,96.928,137.334,96.177,135.242z"/>
		<path fill="#FFDE36" d="M125.206,112.447c-0.116,0.128-0.23,0.257-0.347,0.385l-1.446-1.166c0.12-0.125,0.24-0.25,0.361-0.373
			L125.206,112.447z"/>
		<path fill="#FFDE36" d="M121.289,113.894c0.118-0.127,0.238-0.253,0.356-0.379c0.524,0.389,1.045,0.782,1.562,1.183
			c-0.113,0.131-0.225,0.262-0.336,0.394C122.347,114.686,121.82,114.287,121.289,113.894z"/>
		<path fill="#FFDE36" d="M112.778,122.933c0.122-0.123,0.244-0.247,0.365-0.371c0.954,0.726,1.849,1.532,2.668,2.408
			c-0.104,0.14-0.21,0.278-0.315,0.417C114.666,124.492,113.754,123.668,112.778,122.933z"/>
		<path fill="#FFDE36" d="M115.467,120.147c0.118-0.126,0.237-0.251,0.356-0.377c0.771,0.645,1.556,1.275,2.348,1.896
			c-0.098,0.143-0.194,0.286-0.292,0.429C117.065,121.457,116.26,120.81,115.467,120.147z"/>
		<path fill="#FFDE36" d="M110.081,125.559c0.127-0.118,0.25-0.238,0.375-0.356c0.899,1.035,1.839,2.038,2.812,3.008
			c-0.11,0.133-0.225,0.264-0.335,0.396C111.945,127.625,110.993,126.607,110.081,125.559z"/>
	</g>
	<g opacity="0.3">
		<path fill="#527B24" d="M102.127,136.309c5.044-3.238,9.495-7.321,13.455-11.805c1.264-1.433,2.477-2.911,3.65-4.417
			c-1.375,2.089-2.816,4.136-4.35,6.113c-3.666,4.727-7.85,9.083-12.676,12.637c-1.924,1.417-3.938,2.641-6.017,3.698
			c0.322-1.101,0.551-2.227,0.691-3.365C98.676,138.344,100.43,137.398,102.127,136.309z"/>
		<path fill="#527B24" d="M68.574,142.681c4.143,0.643,8.306,0.827,12.402,0.523c-0.128,1.313-0.165,2.633-0.095,3.947
			c-3.86,0.483-7.803,0.539-11.753,0.181c-2.38-0.216-4.765-0.545-7.087-1.071c0.046-1.617,0.185-3.229,0.401-4.835
			C64.484,141.942,66.567,142.369,68.574,142.681z"/>
		<path fill="#527B24" d="M12.845,132.125c13.851,11.479,32.468,5.256,36.129,4.015c-0.21,1.224-0.191,2.489-0.108,3.741
			c-0.887,0.195-2.837,0.836-3.151,0.898c-1.225,0.242-2.464,0.412-3.707,0.532c-7.404,0.717-14.665,1.143-21.587-2.252
			c-7.228-3.544-12.081-10.001-15.124-17.294c-1.2-2.877-2.076-5.903-2.464-9C4.215,119.891,7.821,127.963,12.845,132.125z"/>
	</g>
</g>
</svg>
