<?xml version="1.0" encoding="utf-8"?>
<!-- Generator: Adobe Illustrator 16.0.4, SVG Export Plug-In . SVG Version: 6.00 Build 0)  -->
<!DOCTYPE svg PUBLIC "-//W3C//DTD SVG 1.1//EN" "http://www.w3.org/Graphics/SVG/1.1/DTD/svg11.dtd">
<svg version="1.1" id="Layer_1" xmlns="http://www.w3.org/2000/svg" xmlns:xlink="http://www.w3.org/1999/xlink" x="0px" y="0px"
	 width="170px" height="170px" viewBox="0 0 170 170" enable-background="new 0 0 170 170" xml:space="preserve">
<title>Artboard 9</title>
<g>
	<path fill="#F9ED32" d="M36.003,70.086c11.968-0.089,23.922-2.122,35.859-1.236c11.937,0.887,24.432,5.32,31.206,15.188
		c2.831,4.125,4.516,8.978,7.577,12.935s8.289,6.975,12.993,5.273c3.371-1.22,5.535-4.506,6.983-7.785
		c1.449-3.279,2.465-6.821,4.66-9.656c4.47-5.776,13.29-7.123,19.866-3.941c6.574,3.183,10.842,10.111,12.021,17.318
		c-4.519,0.785-8.896-1.084-12.101-4.364c1.152,2.83,3.703,5.885,6.385,7.349c-4.803-0.016-9.688-1.945-13.524-4.835
		c-3.182,6.324-7.481,12.428-11.731,18.088c-4.249,5.66-9.648,10.64-16.186,13.351c-0.577,0.238-1.163,0.45-1.751,0.654
		c0.208,0.762,0.422,1.519,0.658,2.258c5.916,1.072,11.221,4.287,14.137,8.405c1.375,1.941,2.792,3.811,2.787,5.873
		c-0.002,0.36-0.855,0.569-0.997,0.237c-0.562-1.321-1.239-2.611-2.263-3.786c0.479,1.077,0.652,2.61,0.02,3.988
		c-0.289,0.629-1.223,0.453-1.28-0.236c-0.099-1.196,0.213-2.57-0.263-3.666c0.119,1.239-1.137,2.741-2.291,3.714
		c-0.478,0.404-1.157-0.162-0.87-0.719c0.85-1.646,1.438-3.317,1.677-5.134c-1.363-2.26-3.992-4.044-7.068-4.797
		c-2.202-0.538-4.759-0.636-6.371-1.914c-1.047-0.829-1.469-1.999-1.837-3.125c-3.767,0.818-7.671,1.085-11.535,1.065
		c-4.472-0.023-8.979-0.43-13.36-1.339c-1.68,2.878-3.986,5.409-6.596,7.502c-3.802,3.049-8.206,5.253-12.673,7.201
		c2.113,5.133,1.78,9.495,3.508,14.771c2.766-0.304,9.765,0.807,11.117,4.574H69.665c-1.761-6.587-3.665-13.572-6.281-20.222
		c-0.634-1.61-0.237-3.448,1.024-4.636c3.048-2.872,5.358-6.518,7.117-10.34c0.776-1.688,1.435-3.423,2.055-5.173
		c-6.994-4.614-12.534-11.624-14.237-19.794c-0.967-4.64-0.766-9.693-3.219-13.751c-2.046-3.387-5.676-5.541-9.426-6.804
		c-3.75-1.262-7.709-1.76-11.564-2.649c-12.56-2.898-24.674-9.846-32.76-19.886C11.336,67.978,24.034,70.175,36.003,70.086z"/>
	<path fill="#E5C759" d="M142.177,128.955c-1.944-1.786-4.969-2.758-8.133-2.614c-2.264,0.102-4.745,0.727-6.652-0.046
		c-0.813-0.329-1.399-0.883-1.903-1.496c1.118-0.745,2.2-1.544,3.234-2.409c0.262,0.412,0.517,0.837,0.787,1.236
		c5.979-0.635,11.973,0.958,15.93,4.09c1.866,1.477,3.751,2.872,4.325,4.853c0.102,0.346-0.659,0.786-0.888,0.508
		c-0.911-1.11-1.926-2.157-3.238-2.997c0.764,0.899,1.36,2.321,1.142,3.822c-0.1,0.685-1.046,0.778-1.295,0.132
		c-0.431-1.118-0.52-2.525-1.283-3.442c0.464,1.154-0.32,2.949-1.154,4.207c-0.346,0.522-1.156,0.171-1.036-0.444
		C142.364,132.535,142.459,130.766,142.177,128.955z"/>
	<g>
		<path fill="#EFFFC2" d="M91.531,124.158c0.07,0.017,0.14,0.036,0.21,0.052c6.782,1.463,13.861,1.042,20.542-0.871
			c0.661,2.027,2.056,6.302,2.093,6.411c-4.135,1.229-8.566,2.058-12.537,2.037c-4.435-0.023-8.692-0.7-12.819-1.88
			c0.946-1.505,1.723-3.11,2.264-4.811C91.383,124.789,91.45,124.472,91.531,124.158z"/>
		<path fill="#EFFFC2" d="M120.012,127.77c-0.564,0.233-1.15,0.465-1.742,0.688c-0.59-2.157-1.126-4.379-1.878-6.501
			c2.749-1.068,5.402-2.387,7.903-3.938c9.62-5.97,17.057-15.116,21.908-25.346c2.005,1.179,4.01,2.358,6.016,3.538
			c-0.214,0.492-0.388,1.003-0.517,1.529c-0.068,0.281-0.116,0.568-0.154,0.856c-1.277-0.657-2.495-1.419-3.619-2.266
			c-3.182,6.324-7.481,12.428-11.731,18.088C131.948,120.079,126.549,125.059,120.012,127.77z"/>
		<path fill="#EFFFC2" d="M46.927,79.956c3.297,0.775,6.695,1.595,9.431,3.595c6.156,4.5,6.985,13.154,9.924,20.19
			c2.053,4.912,5.368,9.192,9.444,12.608c-0.673,2.207-1.376,4.405-2.146,6.578c-6.994-4.614-12.534-11.624-14.237-19.794
			c-0.967-4.64-0.766-9.693-3.219-13.751c-2.046-3.387-5.676-5.541-9.426-6.804c-3.75-1.262-7.709-1.76-11.564-2.649
			c-5.979-1.38-11.853-3.688-17.243-6.799C27.57,75.405,37.248,77.681,46.927,79.956z"/>
	</g>
	<path fill="#E5C759" d="M89.02,129.907c3.945,1.128,8.014,1.778,12.238,1.855c-2.411,3.312-5.31,6.261-8.342,9.029
		c3.657,4.177,4.75,8.411,8.088,12.848c2.52-1.18,9.494,2.509,11.99,5.639H98.726c-3.793-5.666-7.857-11.688-12.481-17.137
		c-1.12-1.32-1.337-3.188-0.527-4.718c1.014-1.918,1.759-3.971,2.315-6.083c0.489-0.671,0.943-1.363,1.362-2.077
		C89.27,129.479,89.152,129.696,89.02,129.907z"/>
	<circle fill="#FFFFFF" cx="149.246" cy="87.32" r="3.991"/>
	<circle fill="#501939" cx="149.25" cy="87.316" r="2.991"/>
	<circle fill="#FFFFFF" cx="151.185" cy="85.744" r="1.055"/>
	<path fill="#C37F9A" d="M161.453,101.166c-3.394-0.011-6.827-0.982-9.905-2.569c0.038-0.288,0.086-0.575,0.154-0.856
		c0.684-2.802,2.661-5.137,4.944-6.9c1.877-1.447,4.024-2.582,6.328-3.115c2.147,3.094,3.586,6.736,4.194,10.457
		c-4.519,0.785-8.896-1.084-12.101-4.364C156.223,96.647,158.771,99.702,161.453,101.166z"/>
	<g>
		<path fill="#C37F9A" d="M84.071,85.691c-0.359-0.045-0.707-0.188-0.986-0.419c-0.301-0.248-0.516-0.593-0.622-0.968
			c-0.136-0.485,0.274-0.973,0.778-0.921c0.381,0.041,0.752,0.188,1.048,0.433c0.275,0.228,0.481,0.535,0.597,0.873
			C85.075,85.234,84.642,85.764,84.071,85.691z"/>
		<path fill="#C37F9A" d="M86.606,80.39c-0.338-0.388-0.447-1.029-0.094-1.404c0.311-0.333,0.833-0.333,1.285-0.27
			c0.598,0.083,1.185,0.233,1.747,0.447c0.549,0.208,1.146,0.575,1.198,1.158c0.054,0.587-0.515,1.083-1.098,1.168
			c-0.583,0.085-1.164-0.127-1.715-0.334C87.447,80.973,86.945,80.777,86.606,80.39z"/>
		<path fill="#C37F9A" d="M84.611,76.495c-0.515-0.277-0.912-0.754-1.117-1.3c-0.217-0.581,0.146-1.195,0.75-1.338
			c0.559-0.132,1.167-0.068,1.674,0.204c0.382,0.206,0.698,0.524,0.916,0.901c0.468,0.809-0.169,1.814-1.104,1.809
			C85.342,76.77,84.955,76.678,84.611,76.495z"/>
		<path fill="#C37F9A" d="M76.707,71.223c-0.324-0.592-0.646-1.268-0.708-1.92c2.19,0.315,4.376,0.758,6.517,1.338
			c-0.609,1.038-1.634,1.827-2.797,2.14c-0.597,0.16-1.263,0.192-1.808-0.102C77.349,72.375,77.013,71.785,76.707,71.223z"/>
		<path fill="#C37F9A" d="M81.254,79.964c0.184-0.458,0.752-0.645,1.243-0.6c1.001,0.087,1.87,0.969,1.947,1.971
			c-0.76,0.498-1.817,0.497-2.577-0.003C81.415,81.035,81.054,80.467,81.254,79.964z"/>
		<path fill="#C37F9A" d="M78.826,77.025c-0.435-0.296-0.887-0.709-0.864-1.234c0.021-0.443,0.402-0.81,0.827-0.932
			c0.427-0.122,0.886-0.045,1.312,0.079c0.808,0.237,1.565,0.646,2.205,1.194c0.409,0.35,0.799,0.849,0.681,1.375
			c-0.101,0.446-0.559,0.743-1.014,0.792c-0.456,0.047-0.908-0.105-1.33-0.285C80.006,77.747,79.396,77.414,78.826,77.025z"/>
		<path fill="#C37F9A" d="M66.936,68.641c1.643,0.024,3.285,0.086,4.926,0.208c0.207,0.015,0.414,0.034,0.623,0.052
			c-0.141,0.563-0.43,1.085-0.871,1.465c-1.071,0.924-2.837,0.887-3.878-0.071C67.275,69.871,66.97,69.257,66.936,68.641z"/>
		<path fill="#C37F9A" d="M99.088,83.674c-1.243-0.492-2.126-1.885-1.845-3.191c0.148-0.695,0.578-1.263,1.133-1.714
			c1.523,1.344,2.914,2.84,4.138,4.497C101.492,83.894,100.198,84.112,99.088,83.674z"/>
		<path fill="#C37F9A" d="M32.356,71.785c0.151,0.289,0.19,0.631,0.112,0.947c-0.212,0.837-1.365,1.26-2.067,0.76
			c-0.609-0.434-0.721-1.416-0.224-1.973C30.748,70.875,31.957,71.023,32.356,71.785z"/>
		<path fill="#C37F9A" d="M63.829,77.199c-0.515-0.232-0.827-0.841-0.719-1.395c0.108-0.554,0.628-0.999,1.192-1.021
			c0.878-0.034,1.576,1.06,1.174,1.841C65.183,77.195,64.413,77.464,63.829,77.199z"/>
		<path fill="#C37F9A" d="M73.278,72.012c0.075-0.529,0.61-0.948,1.143-0.896c0.531,0.052,0.975,0.568,0.947,1.102
			c-0.029,0.565-0.588,1.046-1.153,0.991C73.652,73.153,73.197,72.574,73.278,72.012z"/>
		<path fill="#C37F9A" d="M73.201,77.006c-1.577,0.001-3.147-0.577-4.347-1.6c-0.601-0.512-1.146-1.302-0.872-2.042
			c0.205-0.549,0.813-0.863,1.399-0.895c0.584-0.032,1.155,0.163,1.709,0.355c1.284,0.449,2.681,0.998,3.314,2.201
			c0.281,0.535,0.34,1.277-0.113,1.679C74.003,76.958,73.587,77.006,73.201,77.006z"/>
		<path fill="#C37F9A" d="M94.969,77.078c-0.671,1.377-2.442,2.079-3.895,1.595c-1.454-0.484-2.442-2.053-2.315-3.58
			c0.06-0.713,0.357-1.385,0.801-1.944c1.988,0.903,3.891,1.954,5.667,3.167C95.169,76.579,95.088,76.834,94.969,77.078z"/>
		<path fill="#C37F9A" d="M89.654,85.424c-0.26-0.35-0.394-0.825-0.231-1.229c0.235-0.588,1.021-0.795,1.62-0.589
			c0.601,0.206,1.045,0.709,1.425,1.217c0.349,0.468,0.674,1.104,0.364,1.597c-0.217,0.35-0.688,0.468-1.091,0.389
			c-0.404-0.077-0.758-0.312-1.098-0.543C90.282,86.023,89.914,85.773,89.654,85.424z"/>
		<path fill="#C37F9A" d="M51.586,70.837c-0.368-0.424-0.6-0.963-0.672-1.52c2.099-0.152,4.198-0.298,6.297-0.419
			c0.026,0.199,0.03,0.403-0.001,0.602c-0.192,1.236-1.338,2.189-2.573,2.389C53.528,72.068,52.321,71.687,51.586,70.837z"/>
		<path fill="#C37F9A" d="M59.25,77.996c-0.131,0.427-0.633,0.7-1.062,0.58c-0.429-0.121-0.715-0.615-0.604-1.048
			c0.113-0.446,0.63-0.745,1.073-0.62C59.1,77.031,59.385,77.556,59.25,77.996z"/>
		<path fill="#C37F9A" d="M58.695,72.013c0.207-0.358,0.639-0.518,1.047-0.597c0.718-0.138,1.47-0.105,2.173,0.097
			c0.734,0.211,1.515,0.783,1.434,1.542c-0.06,0.548-0.577,0.957-1.116,1.074c-0.539,0.116-1.097,0.005-1.637-0.106
			c-0.531-0.109-1.084-0.229-1.507-0.568C58.666,73.115,58.425,72.483,58.695,72.013z"/>
		<path fill="#C37F9A" d="M56.375,74.255c0.27-0.109,0.563-0.163,0.854-0.145c0.324,0.021,0.639,0.126,0.916,0.296
			c0.626,0.386,0.4,1.387-0.329,1.482c-0.433,0.057-0.878,0.036-1.304-0.063C55.713,75.64,55.615,74.562,56.375,74.255z"/>
		<path fill="#C37F9A" d="M66.721,80.529c0.599-1.569,3.334,0.545,2.684,1.404C69.06,82.939,66.324,81.447,66.721,80.529z"/>
		<path fill="#C37F9A" d="M50.514,73.162l0.014,0.011c0.77,0.597,0.372,1.856-0.594,1.987c-0.037,0.005-0.072,0.009-0.109,0.013
			c-0.483,0.041-1.013-0.118-1.287-0.518c-0.335-0.486-0.162-1.224,0.321-1.564C49.342,72.751,50.043,72.805,50.514,73.162z"/>
		<path fill="#C37F9A" d="M37.84,72.222c0.577,0.109,0.968,0.789,0.775,1.343c-0.159,0.458-0.681,0.76-1.159,0.668
			c-0.478-0.09-0.851-0.563-0.831-1.048C36.65,72.599,37.265,72.111,37.84,72.222z"/>
		<path fill="#C37F9A" d="M44.711,72.499c-1.371,0.238-2.835-0.45-3.594-1.616c-0.182-0.281-0.317-0.596-0.405-0.922
			c2.225-0.095,4.449-0.235,6.673-0.39c-0.002,0.036-0.001,0.073-0.005,0.109C47.25,71.064,46.081,72.26,44.711,72.499z"/>
		<path fill="#C37F9A" d="M105.519,93.555c-1.526-0.028-2.936-1.341-3.022-2.864c-0.062-1.058,0.461-2.098,1.246-2.81
			c0.354-0.321,0.76-0.578,1.191-0.783c1,1.804,1.91,3.666,2.902,5.473C107.224,93.182,106.387,93.57,105.519,93.555z"/>
		<path fill="#C37F9A" d="M99.134,89.098c0.444,0.232,0.766,0.641,1.056,1.051c0.361,0.506,0.699,1.207,0.334,1.711
			c-0.237,0.325-0.701,0.421-1.093,0.322s-0.723-0.353-1.026-0.615c-0.347-0.302-0.685-0.639-0.856-1.064s-0.142-0.963,0.186-1.287
			C98.088,88.862,98.688,88.865,99.134,89.098z"/>
		<path fill="#C37F9A" d="M96.165,92.666c0.787,0.177,1.224,1.227,0.796,1.91c-0.523,0.376-1.323,0.365-1.775-0.097
			c-0.452-0.46-0.405-1.338,0.14-1.684C95.572,92.641,95.882,92.602,96.165,92.666z"/>
		<path fill="#C37F9A" d="M112.949,99.406c-0.178,0.187-0.372,0.359-0.604,0.495c-0.756,0.444-1.727,0.501-2.53,0.148
			c-0.803-0.352-1.419-1.102-1.612-1.956c-0.182-0.807,0.003-1.669,0.418-2.382c0.167-0.284,0.37-0.546,0.603-0.78
			c0.444,0.7,0.912,1.384,1.421,2.041C111.317,97.843,112.096,98.666,112.949,99.406z"/>
		<path fill="#C37F9A" d="M74.564,79.776l-0.013-0.014c-0.667-0.751-0.083-1.967,0.922-1.979c0.124-0.001,0.245,0.005,0.369,0.023
			c0.639,0.089,1.274,0.541,1.358,1.18c0.079,0.605-0.396,1.202-0.987,1.35C75.622,80.483,74.974,80.228,74.564,79.776z"/>
		<path fill="#C37F9A" d="M94.625,83.42c0.501-0.466,1.354-0.319,1.867,0.133c0.513,0.454,0.77,1.122,1.009,1.764
			c0.189,0.511,0.375,1.098,0.118,1.578c-0.312,0.58-1.164,0.677-1.742,0.36c-0.579-0.316-0.938-0.919-1.23-1.51
			C94.279,84.998,94.017,83.989,94.625,83.42z"/>
	</g>
	<path fill="#501939" d="M162.468,89.65c0.018,0.598,0.466,1.16,1.047,1.309c0.091-0.514-0.036-1.062-0.345-1.484
		c-0.126-0.173-0.348-0.337-0.535-0.234C162.499,89.316,162.462,89.495,162.468,89.65z"/>
	<path fill="#FBD795" d="M109.637,158.781c1.229,0.597,2.316,0.767,3.681,0.681c0.13-1.006-0.209-2.062-0.899-2.806
		c-0.689-0.744-1.719-1.159-2.731-1.104C108.848,156.874,109.229,157.676,109.637,158.781z"/>
	<path fill="#FBD795" d="M107.211,158.781c1.229,0.597,2.316,0.767,3.68,0.681c0.13-1.006-0.208-2.062-0.898-2.806
		c-0.689-0.744-1.719-1.159-2.731-1.104C106.598,156.878,106.607,157.699,107.211,158.781z"/>
	<path fill="#FBD795" d="M104.754,158.979c1.229,0.597,2.316,0.767,3.68,0.681c0.129-1.007-0.209-2.062-0.898-2.806
		c-0.69-0.744-1.72-1.159-2.732-1.104C104.341,156.254,103.76,158.143,104.754,158.979z"/>
	<g>
		<path fill="#FBD795" d="M58.361,85.349c0.222,0.241,0.435,0.491,0.639,0.746c-1.102,0.908-2.36,1.616-3.7,2.094
			c-0.217-0.278-0.45-0.544-0.689-0.803C55.974,86.951,57.252,86.26,58.361,85.349z"/>
		<path fill="#FBD795" d="M41.557,78.694c0.319,0.075,0.638,0.15,0.957,0.225c-0.105,0.819-0.324,1.625-0.646,2.387
			c-0.325-0.068-0.65-0.138-0.977-0.205C41.235,80.34,41.462,79.524,41.557,78.694z"/>
		<path fill="#FBD795" d="M117.856,121.364c1.358,1.805,2.354,3.882,2.915,6.07c-0.253,0.113-0.505,0.229-0.76,0.335
			c-0.054,0.022-0.108,0.042-0.162,0.063c-0.539-2.204-1.549-4.285-2.941-6.076C117.227,121.629,117.541,121.498,117.856,121.364z"
			/>
		<path fill="#FBD795" d="M34.732,79.829c-0.329-0.079-0.657-0.164-0.985-0.248c0.461-0.771,0.811-1.61,1.034-2.48
			c0.318,0.075,0.637,0.15,0.955,0.225C35.513,78.199,35.173,79.042,34.732,79.829z"/>
		<path fill="#FBD795" d="M27.242,75.329c0.327,0.076,0.653,0.154,0.98,0.23c-0.299,0.688-0.698,1.328-1.182,1.899
			c-0.331-0.125-0.662-0.249-0.993-0.38C26.532,76.56,26.939,75.968,27.242,75.329z"/>
		<path fill="#FBD795" d="M66.927,105.17c0.144,0.301,0.292,0.598,0.446,0.893c-1.816,1.383-4.011,2.253-6.278,2.496
			c-0.138-0.312-0.271-0.629-0.397-0.947C62.953,107.43,65.149,106.572,66.927,105.17z"/>
		<path fill="#FBD795" d="M62.416,92.41c0.115,0.301,0.229,0.605,0.338,0.912c-1.531,0.57-3.137,0.939-4.764,1.096
			c-0.069-0.32-0.141-0.64-0.223-0.956C59.355,93.32,60.924,92.965,62.416,92.41z"/>
		<path fill="#FBD795" d="M70.263,110.637c0.197,0.261,0.398,0.521,0.603,0.775c-1.771,1.493-3.775,2.701-5.924,3.57
			c-0.207-0.267-0.411-0.536-0.609-0.811C66.489,113.332,68.497,112.131,70.263,110.637z"/>
		<path fill="#FBD795" d="M73.751,114.584c0.238,0.23,0.479,0.458,0.723,0.684c-1.198,1.904-2.757,3.575-4.576,4.899
			c-0.255-0.219-0.509-0.441-0.758-0.666C70.988,118.192,72.567,116.514,73.751,114.584z"/>
		<path fill="#FBD795" d="M64.225,97.832c0.101,0.32,0.202,0.643,0.304,0.964c-1.718,1.003-3.646,1.608-5.621,1.768
			c-0.046-0.324-0.09-0.648-0.132-0.972C60.698,99.445,62.572,98.838,64.225,97.832z"/>
		<path fill="#FBD795" d="M50.396,80.838c0.315,0.09,0.629,0.186,0.94,0.286c-0.402,0.972-0.951,1.884-1.614,2.704
			c-0.3-0.15-0.604-0.293-0.91-0.429C49.464,82.629,50.003,81.763,50.396,80.838z"/>
		<path fill="#FBD795" d="M104.594,124.848c0.325-0.034,0.651-0.072,0.977-0.114c0.354,1.915,0.109,5.026-0.236,6.943
			c-0.334,0.011-0.418-0.007-0.753,0C104.948,129.793,104.952,126.732,104.594,124.848z"/>
		<path fill="#FBD795" d="M94.384,124.681c0.325,0.047,0.649,0.089,0.975,0.127c-0.258,1.795-1.067,4.635-1.793,6.291
			c-0.338-0.044-0.676-0.253-1.014-0.302C93.3,129.15,94.126,126.475,94.384,124.681z"/>
		<path fill="#FBD795" d="M136.499,114.012c-1.069-1.051-2.267-1.97-3.562-2.727c0.246-0.235,0.489-0.476,0.731-0.716
			c1.238,0.746,2.391,1.635,3.43,2.64C136.898,113.477,136.699,113.746,136.499,114.012z"/>
		<path fill="#FBD795" d="M100.235,125.087l-0.948,6.7c-0.328-0.017-0.62-0.085-0.947-0.107l0.901-6.602
			C99.573,125.084,99.905,125.088,100.235,125.087z"/>
		<path fill="#FBD795" d="M109.595,124.029c0.319-0.071,0.638-0.146,0.955-0.224c0.438,2.067,0.499,4.84,0.485,6.951
			c-0.327,0.045-0.655,0.183-0.984,0.221C110.074,128.9,110.022,126.065,109.595,124.029z"/>
		<path fill="#FBD795" d="M121.064,119.85c0.303-0.156,0.603-0.315,0.9-0.479c1.532,1.56,2.711,3.44,3.45,5.497
			c-0.28,0.186-0.562,0.37-0.846,0.547C123.853,123.315,122.651,121.399,121.064,119.85z"/>
		<path fill="#FBD795" d="M138.974,104.531c0.2-0.262,0.403-0.521,0.601-0.785l2.945,1.791c-0.181,0.272-0.366,0.542-0.549,0.815
			L138.974,104.531z"/>
		<path fill="#FBD795" d="M129.811,114.055c1.454,0.94,2.817,2.044,4.035,3.277c-0.214,0.248-0.433,0.492-0.652,0.735
			c-1.256-1.279-2.673-2.418-4.188-3.367C129.275,114.488,129.545,114.273,129.811,114.055z"/>
		<path fill="#FBD795" d="M145.415,100.917c-0.166,0.28-0.339,0.559-0.508,0.84l-2.805-1.676c0.177-0.276,0.345-0.557,0.517-0.835
			L145.415,100.917z"/>
		<path fill="#FBD795" d="M129.493,121.734c-1.258-1.604-2.736-3.04-4.372-4.254c0.291-0.188,0.585-0.372,0.871-0.566
			c1.574,1.206,3.004,2.606,4.231,4.164C129.983,121.301,129.738,121.519,129.493,121.734z"/>
		<path fill="#FBD795" d="M136.136,107.965c0.23-0.258,0.461-0.516,0.687-0.779c1.165,0.505,2.284,1.099,3.356,1.768
			c-0.188,0.269-0.376,0.538-0.566,0.805C138.506,109.069,137.346,108.47,136.136,107.965z"/>
	</g>
	<g>
		<path fill="#C37F9A" d="M141.523,84.969c-0.081,0.89-1.394,1.351-2.014,0.708c-0.466-0.483-0.384-1.376,0.161-1.768
			C140.396,83.388,141.604,84.08,141.523,84.969z"/>
		<path fill="#C37F9A" d="M143.715,79.622c0.264,1.118-0.318,2.412-1.377,2.889c-0.726,0.328-1.61,0.278-2.295-0.127
			c-0.383-0.226-0.693-0.563-0.907-0.953C140.544,80.597,142.096,79.992,143.715,79.622z"/>
		<path fill="#C37F9A" d="M146.408,79.363c-0.012-0.044-0.017-0.089-0.023-0.135c0.785-0.055,1.576-0.057,2.363-0.009
			c-0.053,0.363-0.25,0.704-0.57,0.886C147.536,80.468,146.6,80.076,146.408,79.363z"/>
		<path fill="#C37F9A" d="M134.291,86.255c0.304-0.498,0.629-0.985,0.99-1.45c0.496-0.643,1.051-1.227,1.646-1.76
			c0.635,0.818,0.593,2.117-0.15,2.854C136.139,86.531,135.09,86.641,134.291,86.255z"/>
		<path fill="#C37F9A" d="M133.164,88.37c0.238,0.059,0.461,0.175,0.624,0.361c0.424,0.485,0.399,1.297-0.051,1.756
			c-0.4,0.407-1.083,0.481-1.576,0.204C132.479,89.908,132.807,89.131,133.164,88.37z"/>
		<path fill="#C37F9A" d="M135.833,89.211c-0.304-0.47-0.095-1.186,0.413-1.42c0.424-0.195,0.979-0.034,1.231,0.358
			c0.253,0.392,0.172,0.964-0.181,1.269C136.875,89.785,136.136,89.68,135.833,89.211z"/>
		<path fill="#C37F9A" d="M146.22,82.359c0.259,0.342,0.207,0.88-0.113,1.165c-0.32,0.286-0.861,0.277-1.171-0.02
			c-0.344-0.328-0.332-0.951,0.022-1.267C145.312,81.92,145.933,81.981,146.22,82.359z"/>
	</g>
	<g opacity="0.29">
		<path fill="#FFFFFF" d="M155.431,83.02c-6.575-3.183-15.396-1.836-19.866,3.94c-2.194,2.836-3.211,6.376-4.66,9.655
			c-1.448,3.281-3.612,6.565-6.983,7.785c-4.703,1.702-9.931-1.316-12.993-5.273c-3.062-3.955-4.746-8.811-7.577-12.935
			c-6.773-9.868-19.269-14.301-31.206-15.187c-11.935-0.887-23.891,1.146-35.859,1.235c-9.655,0.073-19.782-1.346-28.043-6.061
			c-2.121-1.893-4.096-3.935-5.869-6.136c8.962,7.934,21.66,10.131,33.629,10.042c11.968-0.089,23.922-2.122,35.859-1.236
			c11.937,0.887,24.432,5.32,31.206,15.188c2.831,4.125,4.516,8.978,7.577,12.935s8.289,6.975,12.993,5.273
			c3.371-1.22,5.535-4.506,6.983-7.785c1.447-3.279,2.465-6.821,4.66-9.656c4.47-5.776,13.29-7.123,19.866-3.941
			c6.574,3.183,10.842,10.111,12.021,17.318c-0.056,0.01-0.112,0.015-0.167,0.023C165.395,91.792,161.352,85.885,155.431,83.02z"/>
		<path fill="#FFFFFF" d="M58.897,100.497c-0.053-0.376-0.103-0.755-0.151-1.132C58.798,99.741,58.849,100.12,58.897,100.497z"/>
	</g>
	<path fill="#FBD795" d="M81.054,162.746c1.253,0.544,2.347,0.695,3.705,0.552c0.088-1.011-0.296-2.08-1.017-2.793
		c-0.722-0.713-1.766-1.085-2.776-0.987C80.185,160.874,80.599,161.658,81.054,162.746z"/>
	<path fill="#FBD795" d="M78.582,163.289c1.254,0.543,2.347,0.667,3.707,0.523c0.086-1.011-0.296-2.053-1.018-2.766
		c-0.721-0.714-1.766-1.085-2.776-0.987C77.89,161.413,77.934,162.232,78.582,163.289z"/>
	<path fill="#FBD795" d="M76.054,163.594c1.253,0.544,2.347,0.667,3.705,0.523c0.088-1.01-0.296-2.052-1.017-2.765
		c-0.72-0.713-1.766-1.086-2.776-0.987C75.525,160.889,75.024,162.8,76.054,163.594z"/>
	<g>
		<g opacity="0.26">
			<path fill="#D6B040" d="M120.771,124.599c8.571-3.791,15.893-10.969,21.402-18.549c-1.92,2.873-3.951,5.674-5.977,8.369
				c-4.249,5.66-9.648,10.64-16.186,13.351c-0.574,0.237-1.158,0.461-1.742,0.688c-0.236-0.863-0.465-1.729-0.699-2.603
				C118.662,125.471,119.733,125.058,120.771,124.599z"/>
		</g>
		<g opacity="0.26">
			<path fill="#D6B040" d="M95.358,128.467c5.87,0.603,12.214,0.106,18.139-1.403c0.255,0.787,0.857,2.62,0.902,2.753
				c-3.788,1.187-7.715,1.979-11.61,1.959c-4.599-0.024-9.261-0.662-13.781-1.846c0.501-0.796,0.94-1.628,1.337-2.479
				C92.045,127.945,93.727,128.3,95.358,128.467z"/>
		</g>
		<g opacity="0.26">
			<path fill="#D6B040" d="M70.866,116.451c1.186,1.021,2.486,2.046,3.873,3.046c-0.395,1.243-0.815,2.477-1.254,3.703
				c-6.969-4.663-12.441-11.906-14.142-20.066c-0.398-1.911-1.084-6.763-1.352-8.716C60.261,103.746,64.416,110.901,70.866,116.451z
				"/>
		</g>
	</g>
</g>
</svg>
