<?xml version="1.0" encoding="utf-8"?>
<!-- Generator: Adobe Illustrator 16.0.4, SVG Export Plug-In . SVG Version: 6.00 Build 0)  -->
<!DOCTYPE svg PUBLIC "-//W3C//DTD SVG 1.1//EN" "http://www.w3.org/Graphics/SVG/1.1/DTD/svg11.dtd">
<svg version="1.1" id="Layer_1" xmlns="http://www.w3.org/2000/svg" xmlns:xlink="http://www.w3.org/1999/xlink" x="0px" y="0px"
	 width="170px" height="170px" viewBox="0 0 170 170" enable-background="new 0 0 170 170" xml:space="preserve">
<title>Artboard 9</title>
<g>
	<path fill="#EAD618" d="M36.003,40.086c11.968-0.089,23.922-2.122,35.859-1.236c11.937,0.887,24.432,5.32,31.207,15.188
		c2.83,4.125,4.516,8.978,7.576,12.935c3.062,3.957,8.289,6.976,12.994,5.273c3.37-1.221,5.534-4.506,6.982-7.785
		c1.449-3.279,2.465-6.82,4.66-9.656c4.47-5.776,13.289-7.123,19.865-3.941c6.574,3.183,10.842,10.11,12.021,17.317
		c-4.52,0.785-8.896-1.084-12.102-4.363c1.152,2.83,3.703,5.885,6.386,7.349c-4.804-0.017-9.688-1.944-13.524-4.835
		c-3.182,6.324-7.48,12.428-11.73,18.088c-4.249,5.66-9.648,10.641-16.187,13.352c-0.577,0.237-1.163,0.449-1.751,0.653
		c0.208,0.763,0.422,1.519,0.658,2.259c5.916,1.071,11.221,4.287,14.137,8.404c1.375,1.941,2.793,3.811,2.787,5.873
		c-0.002,0.359-0.855,0.568-0.996,0.237c-0.562-1.321-1.24-2.611-2.264-3.786c0.479,1.077,0.652,2.609,0.02,3.988
		c-0.289,0.629-1.223,0.453-1.279-0.236c-0.1-1.196,0.213-2.57-0.264-3.666c0.119,1.238-1.137,2.741-2.291,3.714
		c-0.478,0.404-1.156-0.162-0.869-0.719c0.85-1.646,1.438-3.317,1.677-5.134c-1.363-2.26-3.992-4.045-7.068-4.797
		c-2.202-0.539-4.759-0.637-6.371-1.914c-1.047-0.83-1.469-2-1.837-3.125c-3.767,0.817-7.671,1.084-11.535,1.064
		c-4.472-0.023-8.979-0.43-13.359-1.339c-1.68,2.878-3.986,5.409-6.596,7.502c-3.802,3.049-8.206,5.253-12.673,7.201
		c2.113,5.133,1.78,9.495,3.508,14.771c2.766-0.304,9.765,0.808,11.117,4.574H69.665c-1.761-6.587-3.665-13.572-6.281-20.222
		c-0.634-1.61-0.237-3.448,1.024-4.636c3.048-2.873,5.358-6.519,7.117-10.34c0.776-1.688,1.435-3.424,2.055-5.174
		c-6.994-4.613-12.534-11.624-14.237-19.794c-0.967-4.64-0.766-9.692-3.219-13.751c-2.046-3.387-5.676-5.541-9.426-6.804
		c-3.75-1.262-7.709-1.76-11.564-2.649c-12.56-2.898-24.674-9.846-32.76-19.886C11.336,37.978,24.034,40.175,36.003,40.086z"/>
	<path fill="#E5C759" d="M142.177,98.955c-1.944-1.786-4.969-2.758-8.133-2.614c-2.265,0.103-4.745,0.728-6.651-0.046
		c-0.813-0.329-1.399-0.883-1.904-1.496c1.119-0.744,2.201-1.544,3.234-2.408c0.262,0.411,0.518,0.836,0.787,1.235
		c5.979-0.635,11.973,0.958,15.93,4.09c1.867,1.478,3.752,2.872,4.326,4.853c0.102,0.347-0.66,0.787-0.889,0.509
		c-0.911-1.11-1.926-2.157-3.238-2.997c0.764,0.898,1.36,2.32,1.143,3.822c-0.1,0.685-1.047,0.777-1.295,0.132
		c-0.432-1.118-0.521-2.525-1.283-3.442c0.464,1.154-0.32,2.949-1.154,4.207c-0.346,0.521-1.156,0.172-1.035-0.443
		C142.363,102.535,142.459,100.766,142.177,98.955z"/>
	<g>
		<path fill="#EFFFC2" d="M91.531,94.158c0.07,0.017,0.14,0.035,0.21,0.052c6.782,1.463,13.86,1.042,20.542-0.871
			c0.66,2.027,2.056,6.302,2.093,6.411c-4.135,1.229-8.565,2.059-12.537,2.037c-4.435-0.023-8.692-0.7-12.819-1.88
			c0.946-1.505,1.724-3.11,2.265-4.812C91.383,94.789,91.45,94.473,91.531,94.158z"/>
		<path fill="#EFFFC2" d="M120.012,97.77c-0.563,0.233-1.15,0.465-1.742,0.688c-0.59-2.157-1.125-4.379-1.877-6.501
			c2.748-1.068,5.401-2.387,7.902-3.938c9.62-5.971,17.057-15.117,21.908-25.347c2.005,1.179,4.01,2.358,6.016,3.538
			c-0.214,0.492-0.388,1.003-0.517,1.529c-0.068,0.281-0.116,0.568-0.154,0.855c-1.276-0.656-2.495-1.419-3.618-2.266
			c-3.183,6.324-7.481,12.428-11.731,18.088C131.948,90.079,126.549,95.059,120.012,97.77z"/>
		<path fill="#EFFFC2" d="M46.927,49.956c3.297,0.775,6.695,1.595,9.431,3.595c6.156,4.5,6.985,13.154,9.924,20.19
			c2.053,4.911,5.368,9.192,9.444,12.608c-0.673,2.207-1.376,4.404-2.146,6.577c-6.994-4.614-12.534-11.624-14.237-19.794
			c-0.967-4.64-0.766-9.693-3.219-13.751c-2.046-3.387-5.676-5.541-9.426-6.804c-3.75-1.262-7.709-1.76-11.564-2.649
			c-5.979-1.38-11.853-3.688-17.243-6.799C27.57,45.405,37.248,47.681,46.927,49.956z"/>
	</g>
	<path fill="#E5C759" d="M89.02,99.907c3.945,1.128,8.015,1.778,12.238,1.854c-2.41,3.312-5.31,6.262-8.342,9.029
		c3.656,4.177,4.75,8.411,8.088,12.848c2.52-1.18,9.494,2.51,11.99,5.639H98.727c-3.793-5.666-7.857-11.688-12.481-17.137
		c-1.12-1.32-1.337-3.188-0.527-4.718c1.015-1.918,1.759-3.971,2.315-6.083c0.488-0.671,0.943-1.363,1.361-2.076
		C89.27,99.479,89.152,99.695,89.02,99.907z"/>
	<circle fill="#FFFFFF" cx="149.246" cy="57.32" r="3.991"/>
	<circle fill="#501939" cx="149.25" cy="57.316" r="2.991"/>
	<circle fill="#FFFFFF" cx="151.186" cy="55.744" r="1.055"/>
	<path fill="#C37F9A" d="M161.453,71.166c-3.395-0.011-6.827-0.982-9.905-2.568c0.038-0.289,0.086-0.576,0.154-0.856
		c0.685-2.802,2.661-5.138,4.944-6.9c1.877-1.446,4.023-2.582,6.328-3.114c2.146,3.094,3.586,6.735,4.193,10.457
		c-4.52,0.784-8.896-1.084-12.102-4.365C156.223,66.646,158.771,69.702,161.453,71.166z"/>
	<g>
		<path fill="#C37F9A" d="M84.071,55.691c-0.359-0.045-0.707-0.188-0.986-0.419c-0.301-0.248-0.516-0.593-0.622-0.968
			c-0.136-0.485,0.274-0.973,0.778-0.921c0.381,0.041,0.752,0.188,1.048,0.433c0.275,0.228,0.481,0.535,0.597,0.873
			C85.075,55.234,84.642,55.764,84.071,55.691z"/>
		<path fill="#C37F9A" d="M86.605,50.39c-0.338-0.388-0.446-1.029-0.094-1.404c0.312-0.333,0.834-0.333,1.285-0.27
			c0.598,0.083,1.186,0.233,1.747,0.447c0.549,0.208,1.146,0.575,1.198,1.158c0.054,0.587-0.516,1.083-1.098,1.168
			c-0.584,0.085-1.164-0.127-1.715-0.334C87.447,50.973,86.945,50.777,86.605,50.39z"/>
		<path fill="#C37F9A" d="M84.611,46.495c-0.515-0.277-0.912-0.754-1.117-1.3c-0.217-0.581,0.146-1.195,0.75-1.338
			c0.559-0.132,1.167-0.068,1.674,0.204c0.382,0.206,0.698,0.524,0.916,0.901c0.469,0.809-0.169,1.814-1.104,1.809
			C85.342,46.77,84.955,46.678,84.611,46.495z"/>
		<path fill="#C37F9A" d="M76.707,41.223c-0.324-0.592-0.646-1.268-0.708-1.92c2.19,0.315,4.376,0.758,6.517,1.338
			c-0.609,1.038-1.634,1.827-2.797,2.14c-0.597,0.16-1.263,0.192-1.808-0.102C77.349,42.375,77.013,41.785,76.707,41.223z"/>
		<path fill="#C37F9A" d="M81.254,49.964c0.184-0.458,0.752-0.645,1.243-0.6c1.001,0.087,1.87,0.969,1.947,1.971
			c-0.76,0.498-1.817,0.497-2.577-0.003C81.415,51.035,81.054,50.467,81.254,49.964z"/>
		<path fill="#C37F9A" d="M78.826,47.025c-0.435-0.296-0.887-0.709-0.864-1.234c0.021-0.443,0.402-0.81,0.827-0.932
			c0.427-0.122,0.886-0.045,1.312,0.079c0.808,0.237,1.565,0.646,2.205,1.194c0.409,0.35,0.799,0.849,0.681,1.375
			c-0.101,0.446-0.559,0.743-1.014,0.792c-0.456,0.047-0.908-0.105-1.33-0.285C80.006,47.747,79.396,47.414,78.826,47.025z"/>
		<path fill="#C37F9A" d="M66.936,38.641c1.643,0.024,3.285,0.086,4.926,0.208c0.207,0.015,0.414,0.034,0.623,0.052
			c-0.141,0.563-0.43,1.085-0.871,1.465c-1.071,0.924-2.837,0.887-3.878-0.071C67.275,39.871,66.97,39.257,66.936,38.641z"/>
		<path fill="#C37F9A" d="M99.088,53.674c-1.242-0.492-2.126-1.885-1.845-3.191c0.147-0.695,0.577-1.263,1.133-1.714
			c1.522,1.344,2.914,2.84,4.138,4.497C101.492,53.894,100.198,54.112,99.088,53.674z"/>
		<path fill="#C37F9A" d="M32.356,41.785c0.151,0.289,0.19,0.631,0.112,0.947c-0.212,0.837-1.365,1.26-2.067,0.76
			c-0.609-0.434-0.721-1.416-0.224-1.973C30.748,40.875,31.957,41.023,32.356,41.785z"/>
		<path fill="#C37F9A" d="M63.829,47.199c-0.515-0.232-0.827-0.841-0.719-1.395c0.108-0.554,0.628-0.999,1.192-1.021
			c0.878-0.034,1.576,1.06,1.174,1.841C65.183,47.195,64.413,47.464,63.829,47.199z"/>
		<path fill="#C37F9A" d="M73.278,42.012c0.075-0.529,0.61-0.948,1.143-0.896c0.531,0.052,0.975,0.568,0.947,1.102
			c-0.029,0.565-0.588,1.046-1.153,0.991C73.652,43.153,73.197,42.574,73.278,42.012z"/>
		<path fill="#C37F9A" d="M73.201,47.006c-1.577,0.001-3.147-0.577-4.347-1.6c-0.601-0.512-1.146-1.302-0.872-2.042
			c0.205-0.549,0.813-0.863,1.399-0.896c0.584-0.032,1.155,0.163,1.709,0.355c1.284,0.449,2.681,0.998,3.314,2.201
			c0.281,0.535,0.34,1.277-0.113,1.679C74.003,46.958,73.587,47.006,73.201,47.006z"/>
		<path fill="#C37F9A" d="M94.969,47.078c-0.671,1.377-2.441,2.079-3.895,1.595c-1.454-0.484-2.442-2.053-2.315-3.58
			c0.06-0.713,0.357-1.385,0.802-1.944c1.987,0.903,3.891,1.954,5.666,3.167C95.169,46.579,95.088,46.834,94.969,47.078z"/>
		<path fill="#C37F9A" d="M89.654,55.424c-0.26-0.35-0.395-0.825-0.231-1.229c0.235-0.588,1.021-0.795,1.62-0.589
			c0.602,0.206,1.045,0.709,1.425,1.217c0.349,0.468,0.675,1.104,0.364,1.597c-0.217,0.35-0.688,0.469-1.091,0.389
			c-0.404-0.076-0.759-0.312-1.099-0.543C90.282,56.023,89.914,55.773,89.654,55.424z"/>
		<path fill="#C37F9A" d="M51.586,40.837c-0.368-0.424-0.6-0.963-0.672-1.52c2.099-0.152,4.198-0.298,6.297-0.419
			c0.026,0.199,0.03,0.403-0.001,0.602c-0.192,1.236-1.338,2.189-2.573,2.389C53.528,42.068,52.321,41.687,51.586,40.837z"/>
		<path fill="#C37F9A" d="M59.25,47.996c-0.131,0.427-0.633,0.7-1.062,0.58c-0.429-0.121-0.715-0.615-0.604-1.048
			c0.113-0.446,0.63-0.745,1.073-0.62C59.1,47.031,59.385,47.556,59.25,47.996z"/>
		<path fill="#C37F9A" d="M58.695,42.013c0.207-0.358,0.639-0.518,1.047-0.597c0.718-0.138,1.47-0.105,2.173,0.097
			c0.734,0.211,1.515,0.783,1.434,1.542c-0.06,0.548-0.577,0.957-1.116,1.074c-0.539,0.116-1.097,0.005-1.637-0.106
			c-0.531-0.109-1.084-0.229-1.507-0.568C58.666,43.115,58.425,42.483,58.695,42.013z"/>
		<path fill="#C37F9A" d="M56.375,44.255c0.27-0.109,0.563-0.163,0.854-0.145c0.324,0.021,0.639,0.126,0.916,0.296
			c0.626,0.386,0.4,1.387-0.329,1.482c-0.433,0.057-0.878,0.036-1.304-0.063C55.713,45.64,55.615,44.562,56.375,44.255z"/>
		<path fill="#C37F9A" d="M66.721,50.529c0.599-1.569,3.334,0.545,2.684,1.404C69.06,52.939,66.324,51.447,66.721,50.529z"/>
		<path fill="#C37F9A" d="M50.514,43.162l0.014,0.011c0.77,0.597,0.372,1.856-0.594,1.987c-0.037,0.005-0.072,0.009-0.109,0.013
			c-0.483,0.041-1.013-0.118-1.287-0.518c-0.335-0.486-0.162-1.224,0.321-1.564C49.342,42.751,50.043,42.805,50.514,43.162z"/>
		<path fill="#C37F9A" d="M37.84,42.222c0.577,0.109,0.968,0.789,0.775,1.343c-0.159,0.458-0.681,0.76-1.159,0.668
			c-0.478-0.09-0.851-0.563-0.831-1.048C36.65,42.599,37.265,42.111,37.84,42.222z"/>
		<path fill="#C37F9A" d="M44.711,42.499c-1.371,0.238-2.835-0.45-3.594-1.616c-0.182-0.281-0.317-0.596-0.405-0.922
			c2.225-0.095,4.449-0.235,6.673-0.39c-0.002,0.036-0.001,0.073-0.005,0.109C47.25,41.064,46.081,42.26,44.711,42.499z"/>
		<path fill="#C37F9A" d="M105.52,63.555c-1.526-0.027-2.937-1.341-3.022-2.863c-0.062-1.059,0.461-2.099,1.246-2.811
			c0.354-0.32,0.76-0.578,1.19-0.783c1,1.805,1.91,3.666,2.902,5.473C107.225,63.182,106.387,63.57,105.52,63.555z"/>
		<path fill="#C37F9A" d="M99.134,59.098c0.444,0.232,0.767,0.642,1.056,1.051c0.361,0.507,0.699,1.207,0.334,1.711
			c-0.236,0.326-0.7,0.422-1.092,0.322c-0.393-0.099-0.724-0.353-1.027-0.615c-0.346-0.301-0.684-0.639-0.855-1.063
			c-0.171-0.425-0.142-0.963,0.186-1.287C98.088,58.861,98.688,58.865,99.134,59.098z"/>
		<path fill="#C37F9A" d="M96.165,62.666c0.787,0.177,1.224,1.227,0.796,1.91c-0.523,0.376-1.322,0.365-1.775-0.098
			c-0.451-0.459-0.404-1.338,0.141-1.684C95.572,62.641,95.882,62.602,96.165,62.666z"/>
		<path fill="#C37F9A" d="M112.949,69.406c-0.178,0.187-0.372,0.359-0.604,0.494c-0.757,0.444-1.728,0.502-2.531,0.148
			c-0.803-0.352-1.418-1.102-1.611-1.956c-0.182-0.807,0.003-1.669,0.418-2.382c0.167-0.284,0.37-0.546,0.604-0.779
			c0.443,0.699,0.912,1.383,1.42,2.041C111.316,67.843,112.096,68.666,112.949,69.406z"/>
		<path fill="#C37F9A" d="M74.564,49.776l-0.013-0.014c-0.667-0.751-0.083-1.967,0.922-1.979c0.124-0.001,0.245,0.005,0.369,0.023
			c0.639,0.089,1.274,0.541,1.358,1.18c0.079,0.605-0.396,1.202-0.987,1.35C75.622,50.483,74.974,50.228,74.564,49.776z"/>
		<path fill="#C37F9A" d="M94.625,53.42c0.501-0.466,1.354-0.319,1.867,0.133c0.513,0.454,0.77,1.122,1.009,1.764
			c0.188,0.511,0.375,1.098,0.118,1.578c-0.312,0.58-1.164,0.678-1.742,0.36c-0.579-0.315-0.938-0.919-1.23-1.51
			C94.279,54.998,94.018,53.989,94.625,53.42z"/>
	</g>
	<path fill="#501939" d="M162.468,59.65c0.019,0.598,0.466,1.16,1.048,1.309c0.09-0.514-0.037-1.062-0.346-1.484
		c-0.126-0.173-0.348-0.336-0.535-0.233C162.499,59.316,162.462,59.495,162.468,59.65z"/>
	<path fill="#FBD795" d="M109.637,128.781c1.229,0.597,2.316,0.767,3.682,0.681c0.13-1.006-0.209-2.062-0.899-2.806
		c-0.688-0.744-1.719-1.159-2.731-1.104C108.848,126.874,109.229,127.676,109.637,128.781z"/>
	<path fill="#FBD795" d="M107.211,128.781c1.229,0.597,2.316,0.767,3.68,0.681c0.131-1.006-0.207-2.062-0.897-2.806
		c-0.688-0.744-1.72-1.159-2.731-1.104C106.598,126.878,106.607,127.699,107.211,128.781z"/>
	<path fill="#FBD795" d="M104.754,128.979c1.229,0.598,2.316,0.768,3.68,0.682c0.129-1.008-0.209-2.062-0.897-2.807
		c-0.69-0.744-1.72-1.158-2.731-1.104C104.341,126.254,103.76,128.143,104.754,128.979z"/>
	<g>
		<path fill="#FBD795" d="M58.361,55.349c0.222,0.241,0.435,0.491,0.639,0.746c-1.102,0.908-2.36,1.616-3.7,2.095
			c-0.217-0.278-0.45-0.545-0.689-0.804C55.974,56.951,57.252,56.26,58.361,55.349z"/>
		<path fill="#FBD795" d="M41.557,48.694c0.319,0.075,0.638,0.15,0.957,0.225c-0.105,0.819-0.324,1.625-0.646,2.387
			c-0.325-0.068-0.65-0.138-0.977-0.205C41.235,50.34,41.462,49.524,41.557,48.694z"/>
		<path fill="#FBD795" d="M117.855,91.364c1.358,1.805,2.354,3.882,2.916,6.069c-0.254,0.113-0.506,0.229-0.76,0.336
			c-0.055,0.021-0.109,0.041-0.162,0.062c-0.539-2.204-1.55-4.285-2.941-6.076C117.227,91.629,117.541,91.498,117.855,91.364z"/>
		<path fill="#FBD795" d="M34.732,49.829c-0.329-0.079-0.657-0.164-0.985-0.248c0.461-0.771,0.811-1.61,1.034-2.48
			c0.318,0.075,0.637,0.15,0.955,0.225C35.513,48.199,35.173,49.042,34.732,49.829z"/>
		<path fill="#FBD795" d="M27.242,45.329c0.327,0.076,0.653,0.154,0.98,0.23c-0.299,0.688-0.698,1.328-1.182,1.899
			c-0.331-0.125-0.662-0.249-0.993-0.38C26.532,46.56,26.939,45.968,27.242,45.329z"/>
		<path fill="#FBD795" d="M66.927,75.17c0.144,0.301,0.292,0.598,0.446,0.893c-1.816,1.383-4.011,2.254-6.278,2.496
			c-0.138-0.312-0.271-0.629-0.397-0.947C62.953,77.43,65.149,76.572,66.927,75.17z"/>
		<path fill="#FBD795" d="M62.416,62.41c0.115,0.301,0.229,0.605,0.338,0.912c-1.531,0.57-3.137,0.938-4.764,1.096
			c-0.069-0.32-0.141-0.641-0.223-0.956C59.355,63.32,60.924,62.965,62.416,62.41z"/>
		<path fill="#FBD795" d="M70.263,80.637c0.197,0.262,0.398,0.521,0.603,0.775c-1.771,1.493-3.775,2.701-5.924,3.57
			c-0.207-0.268-0.411-0.537-0.609-0.812C66.489,83.332,68.497,82.131,70.263,80.637z"/>
		<path fill="#FBD795" d="M73.751,84.584c0.238,0.23,0.479,0.458,0.723,0.684c-1.198,1.904-2.757,3.575-4.576,4.899
			c-0.255-0.219-0.509-0.44-0.758-0.666C70.988,88.191,72.567,86.514,73.751,84.584z"/>
		<path fill="#FBD795" d="M64.225,67.832c0.101,0.32,0.202,0.643,0.304,0.964c-1.718,1.003-3.646,1.608-5.621,1.769
			c-0.046-0.324-0.09-0.648-0.132-0.973C60.698,69.445,62.572,68.838,64.225,67.832z"/>
		<path fill="#FBD795" d="M50.396,50.838c0.315,0.09,0.629,0.186,0.94,0.286c-0.402,0.972-0.951,1.884-1.614,2.704
			c-0.3-0.15-0.604-0.293-0.91-0.429C49.464,52.629,50.003,51.763,50.396,50.838z"/>
		<path fill="#FBD795" d="M104.594,94.848c0.325-0.033,0.651-0.072,0.977-0.113c0.354,1.914,0.109,5.025-0.235,6.942
			c-0.334,0.011-0.418-0.007-0.753,0C104.948,99.793,104.952,96.732,104.594,94.848z"/>
		<path fill="#FBD795" d="M94.384,94.682c0.325,0.047,0.649,0.088,0.976,0.127c-0.258,1.795-1.067,4.635-1.793,6.291
			c-0.338-0.045-0.676-0.254-1.015-0.303C93.3,99.15,94.126,96.475,94.384,94.682z"/>
		<path fill="#FBD795" d="M136.499,84.012c-1.069-1.051-2.267-1.97-3.562-2.727c0.246-0.235,0.488-0.477,0.73-0.717
			c1.238,0.746,2.391,1.636,3.43,2.641C136.898,83.477,136.699,83.746,136.499,84.012z"/>
		<path fill="#FBD795" d="M100.234,95.087l-0.947,6.7c-0.328-0.018-0.62-0.085-0.947-0.107l0.901-6.602
			C99.573,95.084,99.904,95.088,100.234,95.087z"/>
		<path fill="#FBD795" d="M109.596,94.029c0.318-0.071,0.637-0.146,0.954-0.225c0.438,2.067,0.499,4.84,0.485,6.951
			c-0.327,0.045-0.655,0.184-0.984,0.221C110.074,98.9,110.021,96.064,109.596,94.029z"/>
		<path fill="#FBD795" d="M121.064,89.85c0.303-0.156,0.603-0.314,0.899-0.479c1.532,1.561,2.711,3.439,3.45,5.497
			c-0.28,0.187-0.562,0.37-0.846,0.547C123.854,93.314,122.65,91.398,121.064,89.85z"/>
		<path fill="#FBD795" d="M138.975,74.531c0.199-0.262,0.402-0.521,0.601-0.785l2.944,1.791c-0.181,0.271-0.365,0.542-0.549,0.814
			L138.975,74.531z"/>
		<path fill="#FBD795" d="M129.811,84.055c1.455,0.94,2.817,2.045,4.035,3.277c-0.214,0.248-0.433,0.492-0.652,0.734
			c-1.256-1.278-2.672-2.418-4.188-3.366C129.275,84.488,129.545,84.273,129.811,84.055z"/>
		<path fill="#FBD795" d="M145.415,70.917c-0.166,0.28-0.339,0.56-0.508,0.84l-2.806-1.676c0.178-0.276,0.346-0.558,0.518-0.835
			L145.415,70.917z"/>
		<path fill="#FBD795" d="M129.493,91.734c-1.259-1.604-2.736-3.041-4.372-4.254c0.291-0.188,0.585-0.373,0.871-0.566
			c1.574,1.206,3.004,2.605,4.23,4.164C129.982,91.301,129.738,91.52,129.493,91.734z"/>
		<path fill="#FBD795" d="M136.137,77.965c0.229-0.258,0.461-0.516,0.687-0.779c1.165,0.506,2.284,1.1,3.356,1.769
			c-0.188,0.269-0.377,0.538-0.566,0.805C138.506,79.068,137.346,78.47,136.137,77.965z"/>
	</g>
	<g>
		<path fill="#C37F9A" d="M141.523,54.969c-0.082,0.891-1.395,1.352-2.015,0.708c-0.466-0.483-0.384-1.376,0.161-1.768
			C140.396,53.388,141.604,54.08,141.523,54.969z"/>
		<path fill="#C37F9A" d="M143.715,49.622c0.264,1.118-0.318,2.412-1.377,2.889c-0.727,0.328-1.609,0.278-2.295-0.127
			c-0.383-0.226-0.693-0.563-0.906-0.953C140.544,50.597,142.096,49.992,143.715,49.622z"/>
		<path fill="#C37F9A" d="M146.408,49.363c-0.012-0.044-0.018-0.089-0.023-0.135c0.785-0.055,1.576-0.057,2.363-0.009
			c-0.053,0.363-0.25,0.704-0.57,0.886C147.536,50.468,146.6,50.076,146.408,49.363z"/>
		<path fill="#C37F9A" d="M134.291,56.255c0.305-0.498,0.629-0.985,0.99-1.45c0.496-0.643,1.051-1.227,1.646-1.76
			c0.636,0.818,0.593,2.117-0.149,2.854C136.139,56.531,135.09,56.641,134.291,56.255z"/>
		<path fill="#C37F9A" d="M133.164,58.37c0.238,0.06,0.461,0.175,0.624,0.36c0.424,0.485,0.399,1.297-0.052,1.756
			c-0.399,0.408-1.082,0.481-1.575,0.205C132.479,59.908,132.807,59.131,133.164,58.37z"/>
		<path fill="#C37F9A" d="M135.833,59.211c-0.304-0.47-0.095-1.186,0.413-1.42c0.424-0.195,0.979-0.034,1.23,0.357
			c0.254,0.393,0.172,0.965-0.181,1.27C136.875,59.785,136.137,59.68,135.833,59.211z"/>
		<path fill="#C37F9A" d="M146.221,52.359c0.258,0.342,0.206,0.88-0.113,1.165c-0.32,0.286-0.861,0.277-1.172-0.02
			c-0.344-0.328-0.332-0.951,0.022-1.267C145.312,51.92,145.934,51.981,146.221,52.359z"/>
	</g>
	<g opacity="0.29">
		<path fill="#FFFFFF" d="M155.432,53.02c-6.576-3.183-15.396-1.836-19.867,3.94c-2.193,2.836-3.211,6.376-4.66,9.655
			c-1.447,3.281-3.611,6.564-6.982,7.785c-4.703,1.701-9.931-1.316-12.992-5.273c-3.062-3.955-4.746-8.811-7.578-12.936
			c-6.772-9.867-19.269-14.3-31.206-15.187c-11.935-0.887-23.891,1.146-35.859,1.235c-9.655,0.073-19.782-1.346-28.043-6.061
			c-2.121-1.893-4.096-3.935-5.869-6.136c8.962,7.934,21.66,10.131,33.629,10.042c11.968-0.089,23.922-2.122,35.859-1.236
			c11.937,0.887,24.432,5.32,31.206,15.188c2.832,4.125,4.517,8.979,7.578,12.936c3.061,3.956,8.289,6.975,12.992,5.272
			c3.371-1.22,5.535-4.506,6.983-7.785c1.446-3.278,2.465-6.821,4.66-9.656c4.47-5.776,13.29-7.123,19.866-3.941
			c6.574,3.183,10.842,10.112,12.021,17.319c-0.056,0.01-0.112,0.014-0.167,0.022C165.395,61.792,161.352,55.885,155.432,53.02z"/>
		<path fill="#FFFFFF" d="M58.897,70.497c-0.053-0.376-0.103-0.755-0.151-1.132C58.798,69.741,58.849,70.12,58.897,70.497z"/>
	</g>
	<path fill="#FBD795" d="M81.054,132.746c1.253,0.544,2.347,0.695,3.705,0.552c0.088-1.011-0.296-2.08-1.017-2.793
		c-0.722-0.713-1.766-1.085-2.776-0.987C80.185,130.874,80.599,131.658,81.054,132.746z"/>
	<path fill="#FBD795" d="M78.582,133.289c1.254,0.543,2.347,0.667,3.707,0.523c0.086-1.012-0.296-2.054-1.018-2.767
		c-0.721-0.714-1.766-1.085-2.776-0.987C77.89,131.413,77.934,132.232,78.582,133.289z"/>
	<path fill="#FBD795" d="M76.054,133.594c1.253,0.545,2.347,0.667,3.705,0.523c0.088-1.01-0.296-2.053-1.017-2.766
		c-0.72-0.713-1.766-1.086-2.776-0.986C75.525,130.889,75.024,132.8,76.054,133.594z"/>
	<g>
		<g opacity="0.26">
			<path fill="#D6B040" d="M120.771,94.6c8.57-3.791,15.893-10.97,21.401-18.55c-1.92,2.873-3.95,5.675-5.978,8.369
				c-4.248,5.66-9.647,10.64-16.186,13.351c-0.574,0.237-1.158,0.461-1.742,0.688c-0.235-0.862-0.465-1.729-0.699-2.603
				C118.662,95.471,119.732,95.059,120.771,94.6z"/>
		</g>
		<g opacity="0.26">
			<path fill="#D6B040" d="M95.357,98.467c5.871,0.604,12.215,0.106,18.14-1.402c0.255,0.787,0.856,2.619,0.901,2.752
				c-3.787,1.188-7.715,1.979-11.609,1.959c-4.6-0.023-9.262-0.661-13.781-1.846c0.501-0.796,0.94-1.628,1.338-2.479
				C92.045,97.945,93.727,98.3,95.357,98.467z"/>
		</g>
		<g opacity="0.26">
			<path fill="#D6B040" d="M70.866,86.451c1.186,1.021,2.486,2.046,3.873,3.046c-0.395,1.243-0.815,2.478-1.254,3.703
				c-6.969-4.663-12.441-11.906-14.142-20.066c-0.398-1.911-1.084-6.763-1.352-8.716C60.261,73.746,64.416,80.9,70.866,86.451z"/>
		</g>
	</g>
</g>
</svg>
