<?xml version="1.0" encoding="utf-8"?>
<!-- Generator: Adobe Illustrator 16.0.4, SVG Export Plug-In . SVG Version: 6.00 Build 0)  -->
<!DOCTYPE svg PUBLIC "-//W3C//DTD SVG 1.1//EN" "http://www.w3.org/Graphics/SVG/1.1/DTD/svg11.dtd">
<svg version="1.1" id="Layer_1" xmlns="http://www.w3.org/2000/svg" xmlns:xlink="http://www.w3.org/1999/xlink" x="0px" y="0px"
	 width="170px" height="170px" viewBox="0 0 170 170" enable-background="new 0 0 170 170" xml:space="preserve">
<title>Artboard 9</title>
<g>
	<path fill="#598710" d="M123.996,126.992c0.012,3.191,0.773,6.129,2.232,8.861c2.26-0.062,10.146,0.01,10.272,0.006
		c-2.526-3.455-4.284-7.693-5.257-12.166C128.977,125.152,126.622,126.398,123.996,126.992z"/>
	<path fill="#598710" d="M71.5,135.859c-0.688-5.104-3.627-9.842-7.784-12.883c-0.023,4.582-1.469,9.148-4.128,12.883H71.5z"/>
	<path fill="#939F4F" d="M62.123,135.816c0.042-0.625,0.243-1.26,0.675-1.711c0.432-0.453,1.122-0.687,1.709-0.473
		c0.399,0.146,0.711,0.475,0.913,0.85c0.201,0.373,0.302,0.793,0.382,1.209c-0.176-0.574-0.023-0.982,0.258-1.516
		c0.282-0.529,0.854-0.922,1.456-0.902c0.581,0.016,1.108,0.396,1.417,0.889c0.31,0.492,0.429,1.08,0.475,1.66
		c-0.057-0.646,0.012-1.162,0.316-1.732c0.303-0.57,0.972-0.988,1.596-0.82c0.585,0.158,0.933,0.742,1.221,1.273
		c0.237,0.439,0.474,0.877,0.711,1.316c-0.33,0-0.663-0.043-0.993-0.043H62.123L62.123,135.816z"/>
	<path fill="#939F4F" d="M125.373,135.816c0.042-0.625-0.079-1.582,0.354-2.033c0.434-0.452,1.121-0.686,1.709-0.471
		c0.399,0.145,0.713,0.474,0.914,0.848c0.199,0.374,0.623,1.115,0.703,1.531c-0.176-0.574-0.023-0.982,0.26-1.516
		c0.28-0.529,0.854-0.922,1.455-0.902c0.58,0.016,1.107,0.396,1.416,0.889c0.312,0.492,0.43,1.08,0.478,1.66
		c-0.058-0.646,0.013-1.162,0.313-1.732c0.305-0.57,0.975-0.988,1.599-0.82c0.584,0.158,0.933,0.742,1.221,1.273
		c0.235,0.439,0.476,0.877,0.711,1.316c-0.329,0-0.663-0.043-0.991-0.043H125.373L125.373,135.816z"/>
	<path fill="#82AB1D" d="M127.404,137.811c-2.24-3.271-3.396-6.851-3.408-10.816c7.324-1.656,12.542-8.355,19.668-10.725
		c5.743-1.908,12.115-0.799,17.939-2.442c2.101-0.595,4.326-1.86,4.426-4.042c0.252-0.162,0.503-0.325,0.754-0.488
		c-2.729-1.16-5.461-2.32-8.19-3.48c-2.198-0.937-4.444-1.881-6.827-2.06c-2.822-0.209-5.595,0.681-8.343,1.358
		s-5.712,1.146-8.356,0.139c-8.133-3.102-15.609-7.338-23.879-10.031c-4.49-1.465-9.23-2.014-13.947-1.777
		c-6.946,0.348-12.063,0.553-18.223,2.646c-5.314,1.811-11.938,4.492-17.25,8.344c-16.243,11.771-38.634,12.982-57.565,6.129
		c-0.522-0.188-0.866,0.545-0.386,0.824c2.793,1.613,6.639,3.375,10.088,4.584c5.313,1.859,12.2,2.852,17.83,2.941
		c5.561,0.091,11.122,0.184,16.683,0.271c3.247,0.055,6.537,0.112,9.661,1c7.628,2.166,13.414,9.65,13.589,17.578
		c3.935-0.031,7.595,0.039,11.53,0.006c-0.489-0.613-3.157-5.033-2.815-9.598c10.358,0.592,20.111,0.793,30.396-0.594
		c0.3-0.041,0.74-0.107,1.041-0.146c0.438,4.26,1.812,7.703,5.188,10.338C120.512,137.748,124.749,137.713,127.404,137.811z"/>
	<path fill="#002700" d="M165.982,109.783c-0.092,0.045-0.224,0.158-0.323,0.201c-0.151,0.059-1.171,0.455-1.554,0.603
		c-0.383,0.146-0.805,0.252-1.229,0.388c-0.428,0.133-0.869,0.273-1.331,0.365c-0.458,0.104-0.925,0.21-1.393,0.316
		c-0.471,0.076-0.942,0.154-1.406,0.229c-0.464,0.092-0.928,0.125-1.374,0.164c-0.447,0.035-0.88,0.098-1.29,0.104
		c-0.412,0.008-0.801,0.014-1.16,0.019c-0.357,0.013-0.689,0.013-0.98-0.017c-0.293-0.02-1.42-0.088-1.42-0.088
		s1.711,0.213,1.875,0.225c0.166,0.005,1.273,0.036,1.688,0.047c0.416,0.01,0.854-0.031,1.308-0.049
		c0.45-0.021,0.922-0.037,1.393-0.105c0.473-0.06,0.953-0.115,1.436-0.176c0.475-0.096,0.948-0.189,1.416-0.283
		c0.471-0.082,0.922-0.216,1.359-0.336c0.436-0.127,0.865-0.228,1.26-0.365c0.393-0.143,1.442-0.521,1.6-0.576
		c0.031-0.014,0,0.001,0.031-0.014C165.906,110.309,166.006,109.83,165.982,109.783z"/>
	<path fill="#3A8024" d="M78.968,96.09c5.314-1.809,9.853-2.209,15.458-2.508c5.534-0.295,11.184-0.141,16.459,1.557
		c7.833,2.516,14.947,6.438,22.561,9.497c0.271,0.041,0.543,0.079,0.812,0.12c-1.091-0.324-2.059-1.049-2.68-2.002
		c-0.621-0.954-0.762-2.303-0.618-3.432c-1.249,0.033-2.501-0.525-3.312-1.479c-0.811-0.952-0.905-2.364-0.672-3.594
		c-1.261,0.112-2.561-0.427-3.369-1.397c-0.81-0.974-1.439-2.312-1.102-3.529c-0.949,0.188-1.982-0.123-2.675-0.803
		c-0.688-0.681-1.162-1.75-0.991-2.703c-1.213,0.731-2.791,0.824-4.078,0.233c-1.291-0.589-2.408-1.886-2.648-3.28
		c-1.018,0.771-2.471,0.801-3.643,0.295c-1.175-0.508-2.135-1.562-2.832-2.629c-1.244,1.115-2.914,1.746-4.584,1.729
		c-1.673-0.018-3.34-0.689-4.561-1.831c-0.812,1.151-2.08,1.976-3.465,2.253s-2.879-0.205-4.072-0.955
		c-0.543,1.139-1.564,2.038-2.766,2.432c-1.197,0.395-2.44,0.227-3.552-0.369c-0.798,2.15-3.015,3.693-5.31,3.693
		c0.021-0.101-0.193,0.359-0.172,0.26c-0.022,1.258-0.647,2.492-1.649,3.256c-1.001,0.764-2.549,1.052-3.769,0.736
		c0.193,0.868-0.045,1.821-0.624,2.498c-0.578,0.676-1.442,0.874-2.33,0.818c0.28,1.046-0.352,2.186-1.279,2.743
		c-0.928,0.559-1.917,0.73-2.989,0.583c-1.17,3.395-3.427,6.402-6.347,8.49c1.209-0.729,2.394-1.506,3.544-2.34
		C67.031,100.582,73.654,97.898,78.968,96.09z"/>
	<g opacity="0.14">
		<path fill="#FFFFFF" d="M127.648,99.043c0.802,0.941,2.037,1.497,3.272,1.475c-0.022-0.406-0.011-0.812,0.037-1.193
			c-1.249,0.031-2.501-0.525-3.312-1.479c-0.444-0.524-0.67-1.188-0.748-1.884C126.784,97.055,126.95,98.221,127.648,99.043z"/>
		<path fill="#FFFFFF" d="M131.514,103.836c0.641,0.271,1.284,0.539,1.932,0.8c0.271,0.041,0.544,0.079,0.812,0.12
			c-1.091-0.324-2.059-1.049-2.68-2.002c-0.373-0.572-0.569-1.287-0.639-2.012C130.846,101.777,130.988,102.953,131.514,103.836z"/>
		<path fill="#FFFFFF" d="M123.607,94.05c0.787,0.945,2.037,1.478,3.265,1.401c-0.004-0.404,0.03-0.812,0.104-1.2
			c-1.261,0.113-2.561-0.427-3.369-1.399c-0.521-0.623-0.961-1.398-1.125-2.196C122.223,91.836,122.829,93.113,123.607,94.05z"/>
		<path fill="#FFFFFF" d="M71.743,92.838c1.219,0.312,2.767,0.023,3.768-0.738c1.002-0.763,1.627-1.998,1.649-3.256
			c-0.021,0.102,0.193-0.359,0.172-0.259c2.295-0.001,4.511-1.544,5.31-3.694c1.111,0.596,2.355,0.762,3.553,0.369
			c1.197-0.393,2.222-1.293,2.765-2.431c1.194,0.75,2.688,1.231,4.073,0.954c1.384-0.276,2.648-1.1,3.464-2.252
			c1.221,1.141,2.888,1.814,4.56,1.83c1.67,0.018,3.34-0.611,4.584-1.729c0.698,1.068,1.658,2.121,2.832,2.627
			c1.172,0.508,2.625,0.479,3.645-0.295c0.238,1.396,1.355,2.693,2.646,3.283c1.288,0.588,2.866,0.498,4.079-0.234
			c-0.171,0.951,0.302,2.023,0.991,2.702c0.68,0.669,1.693,0.979,2.632,0.81c-0.067-0.402-0.065-0.811,0.043-1.203
			c-0.95,0.188-1.983-0.123-2.675-0.803c-0.689-0.681-1.162-1.75-0.991-2.703c-1.213,0.731-2.791,0.824-4.079,0.233
			c-1.291-0.589-2.408-1.886-2.646-3.28c-1.02,0.771-2.473,0.801-3.645,0.295c-1.174-0.508-2.134-1.562-2.832-2.629
			c-1.244,1.115-2.914,1.746-4.584,1.729c-1.672-0.018-3.339-0.689-4.56-1.831c-0.813,1.151-2.08,1.976-3.464,2.253
			c-1.385,0.277-2.879-0.205-4.073-0.955c-0.543,1.139-1.565,2.038-2.765,2.432c-1.198,0.395-2.441,0.227-3.553-0.369
			c-0.798,2.15-3.015,3.693-5.31,3.693c0.021-0.101-0.193,0.359-0.172,0.26c-0.022,1.26-0.647,2.492-1.649,3.256
			c-1.001,0.764-2.549,1.052-3.769,0.736C71.83,92.032,71.824,92.443,71.743,92.838z"/>
		<path fill="#FFFFFF" d="M61.97,104.255c1.09-1.448,1.959-3.062,2.55-4.774c1.073,0.148,2.062-0.023,2.989-0.584
			c0.927-0.559,1.559-1.695,1.279-2.744c0.888,0.059,1.752-0.143,2.33-0.816c0.578-0.676,0.815-1.629,0.624-2.496
			c-0.098,0.477-0.308,0.932-0.624,1.301c-0.578,0.676-1.442,0.873-2.33,0.816c0.28,1.046-0.352,2.188-1.279,2.743
			c-0.928,0.559-1.917,0.731-2.989,0.583c-1.17,3.395-3.427,6.4-6.347,8.488c1.209-0.729,2.394-1.506,3.544-2.34
			C61.801,104.371,61.887,104.314,61.97,104.255z"/>
	</g>
	<path fill="#002700" d="M163.51,109.18c-0.197,0.062-0.252,0.229-0.16,0.366c0.092,0.138,0.277,0.177,0.442,0.167
		c0.271-0.016,0.526-0.134,0.772-0.25C164.277,109.22,163.88,109.111,163.51,109.18z"/>
	<ellipse fill="#3A8024" cx="85.08" cy="97.36" rx="2.436" ry="1.14"/>
	<ellipse fill="#3A8024" cx="95.129" cy="96.022" rx="2.381" ry="1.298"/>
	<ellipse fill="#3A8024" cx="100.169" cy="97.645" rx="1.522" ry="0.75"/>
	<ellipse fill="#3A8024" cx="88.959" cy="95.475" rx="1.213" ry="0.656"/>
	<ellipse fill="#3A8024" cx="101.691" cy="95.066" rx="1.213" ry="0.655"/>
	<ellipse fill="#3A8024" cx="105.59" cy="96.949" rx="1.288" ry="0.927"/>
	<path fill="#3A8024" d="M109.305,95.393c0.625,0.187,1.076,0.613,1.006,0.959c-0.069,0.344-0.635,0.474-1.261,0.289
		c-0.626-0.186-1.077-0.613-1.007-0.959C108.113,95.339,108.678,95.209,109.305,95.393z"/>
	<ellipse fill="#3A8024" cx="90.986" cy="98.472" rx="1.104" ry="0.597"/>
	<path fill="#3A8024" d="M78.339,97.395c1.533-0.397,2.835-0.392,2.908,0.015c0.072,0.405-1.112,1.056-2.646,1.452
		c-1.533,0.397-2.835,0.391-2.908-0.016C75.621,98.439,76.805,97.79,78.339,97.395z"/>
	<ellipse fill="#3A8024" cx="82.642" cy="100.607" rx="0.739" ry="0.58"/>
	<path fill="#3A8024" d="M72.229,101.275c0.864-0.493,1.651-0.676,1.757-0.407c0.106,0.271-0.508,0.888-1.373,1.383
		c-0.864,0.494-1.651,0.679-1.757,0.409S71.365,101.771,72.229,101.275z"/>
	<path fill="#C0EB81" d="M111.857,124.643c0.022-0.414,0.062-0.828,0.139-1.244c0.006-0.071,0.007-0.145,0.013-0.219
		c-10.725,1.812-21.547,1.935-32.394,0.911c0.549,1.327,0.952,2.663,0.719,4.08c10.41,0.591,20.213,0.794,30.547-0.593
		c0.284-0.038,0.635-0.105,0.934-0.146C111.784,127.25,111.757,125.373,111.857,124.643z"/>
	<g>
		<path fill="#82AB1D" d="M119.09,94.852c1.182-1.828,2.396-3.707,3.344-5.115c0.017-0.139,0.037-0.275,0.074-0.412
			c-0.13,0.023-0.261,0.037-0.393,0.047c-0.961,1.424-4.667,7.16-5.211,7.99c0.146,0.062,0.293,0.123,0.438,0.186
			C117.877,96.729,118.473,95.807,119.09,94.852z"/>
		<path fill="#82AB1D" d="M125.27,96.376c0.59-0.694,1.158-1.365,1.647-1.949l-0.202-0.169c-0.09,0.002-0.179,0.004-0.27,0
			c-0.463,0.553-3.608,4.264-4.461,5.309c0.146,0.065,0.293,0.133,0.439,0.199C123.264,98.742,124.307,97.511,125.27,96.376z"/>
		<path fill="#82AB1D" d="M128.521,102.533c0.178-0.199,1.972-2.229,2.396-2.707c0.005-0.09,0.013-0.18,0.021-0.268l-0.229-0.203
			c-0.396,0.441-2.43,2.742-2.637,2.978C128.225,102.4,128.373,102.467,128.521,102.533z"/>
		<path fill="#82AB1D" d="M103.968,93.727c0.245-1.906,1.325-11.017,1.622-13.242h-0.01c-0.165,0.146-0.337,0.279-0.516,0.406
			c-0.277,2.115-1.318,10.883-1.562,12.789C103.657,93.695,103.812,93.709,103.968,93.727z"/>
		<path fill="#82AB1D" d="M118.371,86.061c-0.863,1.604-1.749,3.401-2.607,5.154c-0.793,1.617-1.609,3.271-2.406,4.773
			c0.148,0.053,0.3,0.104,0.445,0.158c0.79-1.491,1.598-3.127,2.381-4.728c0.866-1.769,1.76-3.583,2.627-5.188
			c0-0.142,0.008-0.278,0.031-0.416C118.689,85.908,118.532,85.989,118.371,86.061z"/>
		<path fill="#82AB1D" d="M111.969,82.861c-0.168,0.113-0.345,0.207-0.531,0.283c-0.664,2.398-1.601,5.152-2.51,7.828
			c-0.4,1.18-0.783,2.311-1.125,3.352c0.153,0.031,0.307,0.068,0.459,0.103c0.336-1.026,0.715-2.14,1.109-3.304
			c0.962-2.826,1.956-5.749,2.629-8.254L111.969,82.861z"/>
		<path fill="#82AB1D" d="M96.262,80.633v12.871c0.156-0.006,0.312-0.01,0.469-0.015V80.532c-0.078-0.066-0.157-0.13-0.232-0.199
			C96.423,80.438,96.342,80.534,96.262,80.633z"/>
		<path fill="#82AB1D" d="M68.789,94.955c0.055,0.207,0.066,0.417,0.055,0.626l1.893,3.737c0.143-0.065,0.285-0.131,0.427-0.193
			l-2.109-4.164C68.966,94.961,68.877,94.961,68.789,94.955z"/>
		<path fill="#82AB1D" d="M64.52,98.281c-0.033,0.098-0.077,0.191-0.112,0.289l1.649,3.104c0.136-0.074,0.273-0.148,0.41-0.225
			l-1.666-3.143C64.708,98.303,64.615,98.295,64.52,98.281z"/>
		<path fill="#82AB1D" d="M71.742,91.639c0.048,0.219,0.069,0.44,0.065,0.663l2.67,5.433c0.146-0.057,0.292-0.113,0.438-0.172
			l-2.885-5.869C71.934,91.676,71.835,91.662,71.742,91.639z"/>
		<path fill="#82AB1D" d="M82.642,83.691c-0.047,0.127-0.1,0.25-0.156,0.373l2.371,10.49c0.154-0.027,0.308-0.056,0.462-0.08
			l-2.407-10.652C82.821,83.779,82.73,83.74,82.642,83.691z"/>
		<path fill="#82AB1D" d="M88.959,81.631c-0.057,0.117-0.12,0.23-0.186,0.344l1.76,11.86c0.154-0.013,0.312-0.024,0.468-0.036
			l-1.783-12.018C89.131,81.73,89.043,81.684,88.959,81.631z"/>
		<path fill="#82AB1D" d="M77.169,87.648l2.577,8.188c0.149-0.048,0.298-0.094,0.447-0.141l-2.618-8.318
			c-0.081,0.004-0.161,0.01-0.243,0.01l-0.016,0.006C77.28,87.447,77.197,87.613,77.169,87.648z"/>
	</g>
	<path fill="#002700" d="M149.832,106.291c0,0,0.02,0.123,0.055,0.338c0.021,0.104,0.01,0.246,0.068,0.379
		c0.062,0.131,0.125,0.271,0.182,0.426c0.063,0.151,0.207,0.291,0.312,0.447c0.103,0.168,0.304,0.25,0.445,0.398
		c0.027,0.021,0.099,0.092,0.097,0.076l0.495,0.209c0.221,0.064,0.416,0.035,0.623,0.09c0.215-0.037,0.442-0.031,0.648-0.094
		c0.184-0.098,0.436-0.146,0.559-0.267c0.156-0.155,0.399-0.267,0.481-0.427c0.101-0.156,0.235-0.283,0.304-0.443
		c0.059-0.16,0.127-0.311,0.185-0.443c0.057-0.139,0.044-0.269,0.065-0.371c0.03-0.215,0.049-0.338,0.049-0.338
		s0.017,0.123,0.043,0.34c0.002,0.106,0.043,0.248,0.019,0.399c-0.028,0.151-0.06,0.329-0.106,0.521
		c-0.051,0.188-0.188,0.373-0.297,0.584c-0.113,0.223-0.291,0.336-0.455,0.508c-0.211,0.203-0.457,0.252-0.697,0.387
		c-0.249,0.09-0.525,0.104-0.795,0.153c-0.275-0.028-0.586-0.063-0.823-0.146l-0.487-0.227c-0.115-0.051-0.115-0.088-0.18-0.131
		c-0.182-0.18-0.405-0.312-0.501-0.528c-0.104-0.206-0.238-0.377-0.295-0.571c-0.056-0.199-0.093-0.383-0.118-0.537
		c-0.025-0.156,0.016-0.283,0.016-0.395c0.024-0.216,0.041-0.34,0.041-0.34c0.002-0.021,0.021-0.034,0.041-0.031
		C149.816,106.262,149.83,106.273,149.832,106.291z"/>
	<g opacity="0.15">
		<path fill="#FFFFFF" d="M158.546,105.812c-2.198-0.937-4.444-1.881-6.827-2.06c-2.822-0.209-5.595,0.681-8.343,1.356
			c-2.748,0.681-5.712,1.146-8.356,0.141c-8.133-3.102-15.609-7.338-23.879-10.032c-4.49-1.464-9.23-2.013-13.947-1.776
			c-6.946,0.348-12.063,0.553-18.223,2.646c-5.314,1.811-11.938,4.492-17.25,8.344c-2.043,1.479-4.198,2.807-6.438,3.969
			c-2.227,1.156-4.537,2.148-6.903,2.985c-2.37,0.837-4.796,1.513-7.254,2.032c-2.471,0.521-4.975,0.893-7.491,1.111
			c-2.531,0.22-5.075,0.287-7.615,0.217c-2.551-0.074-5.097-0.291-7.625-0.646c-2.531-0.355-5.043-0.854-7.52-1.48
			c-1.213-0.309-2.418-0.65-3.612-1.021c-0.597-0.188-1.191-0.381-1.783-0.584c-0.29-0.098-0.578-0.199-0.866-0.302
			c-0.216-0.077-0.492-0.212-0.735-0.146c-0.409,0.108-0.276,0.396,0.019,0.543c0.317,0.156,0.637,0.308,0.954,0.463
			c0.449,0.22,0.914,0.533,1.386,0.693c18.565,6.192,39.715,4.957,55.483-6.472c5.313-3.851,11.936-6.53,17.25-8.341
			c6.16-2.1,11.277-2.303,18.221-2.646c4.719-0.236,9.459,0.312,13.949,1.775c8.27,2.693,15.746,6.936,23.879,10.031
			c2.646,1.01,5.608,0.541,8.356-0.139c2.748-0.682,5.521-1.566,8.343-1.357c2.383,0.176,4.629,1.123,6.827,2.058
			c2.455,1.044,4.909,2.088,7.364,3.132c0.035-0.169,0.064-0.343,0.072-0.523c0.252-0.162,0.502-0.325,0.754-0.488
			C164.007,108.135,161.275,106.975,158.546,105.812z"/>
	</g>
	<g opacity="0.19">
		<path fill="#3A8024" d="M58.327,118.215c-12.526-1.622-25.573,0.797-37.9-0.506c3.786,0.742,7.764,1.146,11.258,1.203
			l16.683,0.273c3.247,0.053,6.537,0.11,9.661,1c2.055,0.582,3.973,1.557,5.686,2.814c0.053,0.008,0.103,0.021,0.156,0.025
			C62.148,121.302,60.183,119.801,58.327,118.215z"/>
	</g>
	<g opacity="0.19">
		<path fill="#3A8024" d="M111.811,126.09c-0.02-0.386-0.012-0.773,0.015-1.158c-9.583,1.536-19.798,1.609-30.091,0.971
			c-0.557-0.033-1.096-0.098-1.626-0.176c0.221,0.789,0.271,1.613,0.272,2.445c10.382,0.59,20.16,0.79,30.468-0.594
			c0.285-0.039,0.698-0.1,0.998-0.141C111.809,126.988,111.805,126.543,111.811,126.09z"/>
	</g>
	<g opacity="0.19">
		<path fill="#3A8024" d="M148.704,113.793c-7.415-0.137-21.836,7.881-24.254,9.826c-0.634,2.586-0.501,3.516-0.501,3.373
			c7.324-1.656,12.542-8.357,19.668-10.725c5.742-1.906,12.115-0.797,17.939-2.442c1.586-0.448,3.241-1.282,4.002-2.603
			C164.025,113.076,157.107,113.949,148.704,113.793z"/>
	</g>
	<path fill="#C0EB81" d="M72.109,137.77c0.042-0.625,0.243-1.26,0.675-1.713c0.432-0.451,1.122-0.684,1.709-0.471
		c0.399,0.146,0.711,0.475,0.913,0.85c0.201,0.373,0.302,0.793,0.382,1.209c-0.175-0.576-0.022-0.98,0.259-1.515
		c0.282-0.532,0.854-0.921,1.456-0.905c0.581,0.018,1.108,0.398,1.417,0.893c0.31,0.49,0.429,1.078,0.475,1.656
		c-0.057-0.643,0.012-1.159,0.316-1.729c0.303-0.569,0.972-0.987,1.596-0.819c0.584,0.157,0.933,0.74,1.221,1.273
		c0.237,0.438,0.474,0.877,0.711,1.312c-0.33,0-0.663-0.041-0.993-0.041H72.109z"/>
	<path fill="#C0EB81" d="M117.003,137.77c0.039-0.625,0.228-1.26,0.631-1.713c0.404-0.451,1.05-0.684,1.599-0.471
		c0.373,0.146,0.664,0.475,0.854,0.85c0.188,0.373,0.282,0.793,0.354,1.209c-0.164-0.576-0.021-0.98,0.242-1.515
		c0.264-0.532,0.799-0.921,1.36-0.905c0.543,0.018,1.035,0.398,1.325,0.893c0.289,0.49,0.4,1.078,0.443,1.656
		c-0.055-0.643,0.012-1.159,0.295-1.729c0.283-0.569,0.908-0.987,1.492-0.819c0.547,0.157,0.871,0.74,1.142,1.273
		c0.222,0.438,0.442,0.877,0.663,1.312c-0.307,0-0.618-0.041-0.928-0.041H117.003z"/>
</g>
</svg>
