<?xml version="1.0" encoding="utf-8"?>
<!-- Generator: Adobe Illustrator 16.0.4, SVG Export Plug-In . SVG Version: 6.00 Build 0)  -->
<!DOCTYPE svg PUBLIC "-//W3C//DTD SVG 1.1//EN" "http://www.w3.org/Graphics/SVG/1.1/DTD/svg11.dtd">
<svg version="1.1" id="Layer_1" xmlns="http://www.w3.org/2000/svg" xmlns:xlink="http://www.w3.org/1999/xlink" x="0px" y="0px"
	 width="170px" height="170px" viewBox="0 0 170 170" enable-background="new 0 0 170 170" xml:space="preserve">
<title>Artboard 9</title>
<g>
	<path fill="#598710" d="M123.996,153.992c0.012,3.192,0.773,6.129,2.233,8.861c2.26-0.062,10.147,0.01,10.273,0.006
		c-2.527-3.455-4.284-7.693-5.257-12.166C128.976,152.152,126.622,153.398,123.996,153.992z"/>
	<path fill="#598710" d="M71.5,162.859c-0.688-5.104-3.627-9.842-7.784-12.882c-0.023,4.581-1.469,9.149-4.128,12.882H71.5z"/>
	<path fill="#939F4F" d="M62.123,162.816c0.042-0.624,0.243-1.26,0.675-1.711c0.432-0.452,1.122-0.685,1.709-0.471
		c0.399,0.145,0.711,0.474,0.913,0.848c0.201,0.374,0.302,0.793,0.382,1.21c-0.176-0.575-0.023-0.983,0.258-1.515
		c0.282-0.531,0.854-0.922,1.456-0.904c0.581,0.016,1.108,0.397,1.417,0.889c0.31,0.492,0.429,1.08,0.475,1.66
		c-0.057-0.645,0.012-1.162,0.316-1.732c0.303-0.57,0.972-0.988,1.596-0.82c0.585,0.158,0.933,0.741,1.221,1.273
		c0.237,0.439,0.474,0.877,0.711,1.316c-0.33,0-0.663-0.043-0.993-0.043H62.123z"/>
	<path fill="#939F4F" d="M125.373,162.816c0.042-0.624-0.079-1.582,0.354-2.033c0.432-0.452,1.121-0.685,1.709-0.471
		c0.399,0.145,0.712,0.474,0.913,0.848c0.2,0.374,0.624,1.115,0.704,1.532c-0.176-0.575-0.023-0.983,0.259-1.515
		c0.281-0.531,0.854-0.922,1.455-0.904c0.581,0.016,1.108,0.397,1.417,0.889c0.31,0.492,0.43,1.08,0.476,1.66
		c-0.057-0.645,0.013-1.162,0.315-1.732c0.304-0.57,0.973-0.988,1.597-0.82c0.584,0.158,0.933,0.741,1.221,1.273
		c0.237,0.439,0.474,0.877,0.711,1.316c-0.329,0-0.663-0.043-0.992-0.043H125.373z"/>
	<path fill="#82AB1D" d="M127.405,164.811c-2.241-3.273-3.395-6.851-3.409-10.818c7.324-1.656,12.542-8.357,19.668-10.724
		c5.743-1.907,12.116-0.798,17.939-2.443c2.101-0.594,4.326-1.86,4.427-4.042c0.251-0.162,0.502-0.325,0.753-0.488
		c-2.729-1.16-5.46-2.321-8.19-3.482c-2.198-0.935-4.445-1.881-6.827-2.058c-2.823-0.209-5.595,0.679-8.343,1.358
		s-5.712,1.146-8.357,0.139c-8.132-3.1-15.61-7.338-23.879-10.032c-4.49-1.464-9.231-2.013-13.948-1.778
		c-6.946,0.348-12.063,0.553-18.223,2.648c-5.314,1.809-11.938,4.492-17.25,8.342c-16.243,11.771-38.634,12.984-57.565,6.129
		c-0.522-0.188-0.866,0.546-0.386,0.824c2.793,1.615,6.639,3.375,10.088,4.584c5.313,1.861,12.2,2.852,17.83,2.943
		c5.561,0.091,11.122,0.182,16.683,0.273c3.247,0.053,6.537,0.112,9.661,1c7.628,2.166,13.414,9.65,13.589,17.578
		c3.935-0.031,7.595,0.039,11.53,0.006c-0.489-0.615-3.157-5.033-2.815-9.598c10.358,0.591,20.111,0.793,30.394-0.594
		c0.3-0.041,0.741-0.107,1.041-0.146c0.438,4.26,1.812,7.703,5.189,10.337C120.511,164.748,124.749,164.713,127.405,164.811z"/>
	<path fill="#002700" d="M165.983,136.783c-0.093,0.045-0.223,0.158-0.324,0.201c-0.151,0.059-1.171,0.455-1.553,0.603
		c-0.383,0.146-0.804,0.252-1.229,0.388c-0.428,0.132-0.869,0.273-1.331,0.365c-0.458,0.104-0.925,0.21-1.391,0.316
		c-0.472,0.077-0.944,0.154-1.408,0.23c-0.464,0.09-0.927,0.125-1.374,0.164c-0.447,0.035-0.88,0.096-1.29,0.104
		c-0.412,0.007-0.801,0.013-1.16,0.018c-0.359,0.011-0.69,0.011-0.982-0.017c-0.293-0.018-1.419-0.086-1.419-0.086
		s1.711,0.211,1.875,0.223c0.165,0.005,1.274,0.036,1.689,0.047c0.416,0.008,0.853-0.033,1.306-0.049
		c0.452-0.021,0.922-0.037,1.393-0.107c0.473-0.058,0.954-0.115,1.435-0.174c0.475-0.096,0.949-0.191,1.417-0.285
		c0.471-0.082,0.921-0.214,1.359-0.336c0.436-0.127,0.866-0.226,1.26-0.364c0.393-0.142,1.442-0.521,1.599-0.577
		c0.031-0.013,0.001,0.001,0.031-0.013C165.906,137.309,166.006,136.83,165.983,136.783z"/>
	<path fill="#3A8024" d="M78.968,123.09c5.314-1.809,9.852-2.209,15.458-2.508c5.534-0.295,11.183-0.141,16.459,1.556
		c7.833,2.517,14.947,6.438,22.561,9.498c0.271,0.041,0.542,0.079,0.812,0.12c-1.091-0.325-2.059-1.049-2.68-2.002
		c-0.621-0.954-0.762-2.303-0.618-3.432c-1.249,0.033-2.501-0.525-3.311-1.478s-0.906-2.366-0.672-3.594
		c-1.26,0.113-2.56-0.427-3.369-1.399c-0.809-0.972-1.44-2.312-1.101-3.529c-0.95,0.188-1.984-0.123-2.675-0.803
		c-0.69-0.679-1.162-1.75-0.991-2.703c-1.213,0.733-2.791,0.824-4.08,0.235c-1.29-0.589-2.408-1.886-2.647-3.282
		c-1.018,0.772-2.471,0.801-3.644,0.295c-1.173-0.507-2.133-1.56-2.832-2.629c-1.244,1.117-2.913,1.746-4.584,1.729
		s-3.338-0.689-4.559-1.831c-0.814,1.152-2.08,1.976-3.464,2.253s-2.878-0.205-4.073-0.955c-0.543,1.139-1.566,2.038-2.764,2.432
		c-1.199,0.393-2.442,0.225-3.554-0.37c-0.798,2.151-3.015,3.694-5.31,3.694c0.021-0.101-0.193,0.359-0.172,0.259
		c-0.022,1.259-0.647,2.493-1.649,3.257c-1.001,0.762-2.549,1.05-3.769,0.736c0.193,0.868-0.045,1.821-0.624,2.498
		c-0.578,0.676-1.442,0.874-2.33,0.818c0.28,1.046-0.352,2.186-1.279,2.743c-0.928,0.559-1.917,0.732-2.989,0.583
		c-1.17,3.395-3.427,6.402-6.347,8.49c1.209-0.729,2.394-1.506,3.544-2.34C67.031,127.582,73.654,124.898,78.968,123.09z"/>
	<g opacity="0.14">
		<path fill="#FFFFFF" d="M127.649,126.043c0.801,0.941,2.037,1.497,3.273,1.475c-0.023-0.407-0.011-0.814,0.037-1.195
			c-1.249,0.033-2.501-0.525-3.311-1.478c-0.445-0.524-0.669-1.188-0.747-1.884C126.784,124.055,126.95,125.221,127.649,126.043z"/>
		<path fill="#FFFFFF" d="M131.513,130.836c0.642,0.271,1.285,0.539,1.933,0.8c0.271,0.041,0.542,0.079,0.812,0.12
			c-1.091-0.325-2.059-1.049-2.68-2.002c-0.373-0.572-0.569-1.287-0.639-2.012C130.845,128.778,130.989,129.953,131.513,130.836z"/>
		<path fill="#FFFFFF" d="M123.608,121.05c0.787,0.945,2.037,1.477,3.264,1.401c-0.004-0.404,0.031-0.812,0.105-1.2
			c-1.26,0.113-2.56-0.427-3.369-1.399c-0.52-0.623-0.962-1.4-1.125-2.198C122.223,118.836,122.829,120.113,123.608,121.05z"/>
		<path fill="#FFFFFF" d="M71.743,119.838c1.219,0.312,2.767,0.024,3.768-0.738c1.002-0.763,1.627-1.998,1.649-3.256
			c-0.021,0.101,0.193-0.359,0.172-0.259c2.295-0.001,4.511-1.544,5.31-3.694c1.111,0.596,2.355,0.762,3.554,0.369
			c1.197-0.393,2.221-1.293,2.764-2.431c1.195,0.75,2.689,1.231,4.073,0.954c1.384-0.276,2.649-1.1,3.464-2.252
			c1.221,1.141,2.888,1.814,4.559,1.831s3.34-0.612,4.584-1.728c0.699,1.068,1.659,2.121,2.832,2.627s2.626,0.479,3.644-0.295
			c0.239,1.397,1.357,2.693,2.647,3.283c1.289,0.588,2.867,0.498,4.08-0.236c-0.171,0.953,0.301,2.025,0.991,2.704
			c0.68,0.669,1.693,0.978,2.632,0.808c-0.067-0.402-0.066-0.809,0.043-1.203c-0.95,0.188-1.984-0.123-2.675-0.803
			c-0.69-0.679-1.162-1.75-0.991-2.703c-1.213,0.733-2.791,0.824-4.08,0.235c-1.29-0.589-2.408-1.886-2.647-3.282
			c-1.018,0.772-2.471,0.801-3.644,0.295c-1.173-0.507-2.133-1.56-2.832-2.629c-1.244,1.117-2.913,1.746-4.584,1.729
			s-3.338-0.689-4.559-1.831c-0.814,1.152-2.08,1.976-3.464,2.253s-2.878-0.205-4.073-0.955c-0.543,1.139-1.566,2.038-2.764,2.432
			c-1.199,0.393-2.442,0.225-3.554-0.37c-0.798,2.151-3.015,3.694-5.31,3.694c0.021-0.101-0.193,0.359-0.172,0.259
			c-0.022,1.259-0.647,2.493-1.649,3.257c-1.001,0.762-2.549,1.05-3.769,0.736C71.83,119.032,71.824,119.443,71.743,119.838z"/>
		<path fill="#FFFFFF" d="M61.97,131.255c1.09-1.448,1.959-3.062,2.55-4.775c1.073,0.149,2.062-0.024,2.989-0.583
			s1.559-1.697,1.279-2.744c0.888,0.057,1.752-0.143,2.33-0.818c0.578-0.676,0.815-1.629,0.624-2.496
			c-0.098,0.475-0.308,0.93-0.624,1.299c-0.578,0.676-1.442,0.874-2.33,0.818c0.28,1.046-0.352,2.186-1.279,2.743
			c-0.928,0.559-1.917,0.732-2.989,0.583c-1.17,3.395-3.427,6.402-6.347,8.49c1.209-0.729,2.394-1.506,3.544-2.34
			C61.801,131.371,61.887,131.314,61.97,131.255z"/>
	</g>
	<path fill="#002700" d="M163.51,136.179c-0.197,0.061-0.252,0.229-0.16,0.367s0.277,0.177,0.442,0.167
		c0.271-0.016,0.526-0.134,0.772-0.25C164.278,136.22,163.88,136.112,163.51,136.179z"/>
	<ellipse fill="#3A8024" cx="85.08" cy="123.861" rx="2.436" ry="0.947"/>
	<ellipse fill="#3A8024" cx="95.129" cy="122.75" rx="2.381" ry="1.078"/>
	<ellipse fill="#3A8024" cx="100.169" cy="124.098" rx="1.522" ry="0.623"/>
	<ellipse fill="#3A8024" cx="88.959" cy="122.295" rx="1.213" ry="0.545"/>
	<ellipse fill="#3A8024" cx="101.691" cy="121.955" rx="1.213" ry="0.544"/>
	<ellipse fill="#3A8024" cx="105.59" cy="123.52" rx="1.288" ry="0.77"/>
	
		<ellipse transform="matrix(0.9712 0.2381 -0.2381 0.9712 32.367 -22.466)" fill="#3A8024" cx="109.181" cy="122.75" rx="1.167" ry="0.533"/>
	<ellipse fill="#3A8024" cx="90.987" cy="124.785" rx="1.104" ry="0.496"/>
	
		<ellipse transform="matrix(0.9776 -0.2103 0.2103 0.9776 -24.5998 19.3012)" fill="#3A8024" cx="78.469" cy="125.338" rx="2.84" ry="0.624"/>
	<ellipse fill="#3A8024" cx="82.642" cy="126.559" rx="0.739" ry="0.482"/>
	
		<ellipse transform="matrix(0.9031 -0.4294 0.4294 0.9031 -47.7419 43.4581)" fill="#3A8024" cx="72.425" cy="127.518" rx="1.733" ry="0.448"/>
	<path fill="#C0EB81" d="M111.858,151.643c0.023-0.414,0.062-0.829,0.138-1.244c0.006-0.073,0.007-0.145,0.013-0.219
		c-10.725,1.812-21.547,1.933-32.394,0.911c0.549,1.327,0.952,2.663,0.719,4.08c10.41,0.591,20.213,0.794,30.547-0.593
		c0.284-0.038,0.634-0.106,0.933-0.146C111.784,154.25,111.757,152.373,111.858,151.643z"/>
	<g>
		<path fill="#82AB1D" d="M119.09,121.852c1.181-1.828,2.396-3.707,3.343-5.115c0.016-0.139,0.037-0.277,0.075-0.414
			c-0.13,0.025-0.261,0.039-0.393,0.047c-0.961,1.424-4.667,7.16-5.211,7.992c0.147,0.061,0.293,0.122,0.44,0.184
			C117.877,123.729,118.473,122.807,119.09,121.852z"/>
		<path fill="#82AB1D" d="M125.27,123.376c0.59-0.695,1.158-1.365,1.647-1.949l-0.202-0.169c-0.09,0.002-0.179,0.004-0.269,0
			c-0.463,0.553-3.609,4.264-4.462,5.308c0.147,0.066,0.294,0.132,0.441,0.199C123.263,125.742,124.307,124.511,125.27,123.376z"/>
		<path fill="#82AB1D" d="M128.522,129.533c0.177-0.199,1.971-2.229,2.396-2.707c0.005-0.09,0.012-0.179,0.021-0.268l-0.229-0.203
			c-0.395,0.443-2.429,2.743-2.636,2.978C128.224,129.4,128.373,129.467,128.522,129.533z"/>
		<path fill="#82AB1D" d="M103.968,120.727c0.245-1.906,1.325-11.017,1.622-13.242h-0.01c-0.165,0.144-0.337,0.279-0.515,0.406
			c-0.278,2.115-1.319,10.882-1.563,12.789C103.657,120.695,103.812,120.709,103.968,120.727z"/>
		<path fill="#82AB1D" d="M118.371,113.061c-0.863,1.602-1.749,3.401-2.608,5.154c-0.793,1.617-1.608,3.271-2.405,4.773
			c0.148,0.053,0.298,0.104,0.445,0.159c0.79-1.492,1.597-3.128,2.381-4.727c0.866-1.767,1.76-3.583,2.626-5.188
			c0-0.141,0.008-0.279,0.032-0.416C118.69,112.908,118.532,112.989,118.371,113.061z"/>
		<path fill="#82AB1D" d="M111.969,109.861c-0.168,0.113-0.345,0.207-0.531,0.283c-0.665,2.4-1.601,5.154-2.51,7.828
			c-0.401,1.181-0.784,2.311-1.125,3.352c0.153,0.031,0.306,0.068,0.459,0.103c0.336-1.027,0.714-2.14,1.109-3.304
			c0.962-2.826,1.956-5.749,2.629-8.254L111.969,109.861z"/>
		<path fill="#82AB1D" d="M96.262,107.633v12.871c0.156-0.006,0.312-0.01,0.469-0.015v-12.957c-0.078-0.066-0.159-0.129-0.234-0.199
			C96.423,107.437,96.342,107.534,96.262,107.633z"/>
		<path fill="#82AB1D" d="M68.789,121.955c0.055,0.207,0.066,0.417,0.055,0.626l1.893,3.737c0.143-0.065,0.285-0.13,0.427-0.193
			l-2.109-4.164C68.966,121.961,68.877,121.961,68.789,121.955z"/>
		<path fill="#82AB1D" d="M64.52,125.281c-0.033,0.098-0.077,0.191-0.112,0.289l1.649,3.105c0.136-0.076,0.273-0.15,0.41-0.225
			l-1.666-3.141C64.708,125.303,64.615,125.295,64.52,125.281z"/>
		<path fill="#82AB1D" d="M71.742,118.639c0.048,0.218,0.069,0.44,0.065,0.663l2.67,5.433c0.146-0.057,0.292-0.115,0.438-0.172
			l-2.885-5.869C71.934,118.676,71.835,118.662,71.742,118.639z"/>
		<path fill="#82AB1D" d="M82.642,110.692c-0.047,0.126-0.1,0.25-0.156,0.372l2.371,10.491c0.154-0.028,0.308-0.055,0.462-0.081
			l-2.407-10.652C82.821,110.779,82.73,110.74,82.642,110.692z"/>
		<path fill="#82AB1D" d="M88.959,108.631c-0.056,0.117-0.12,0.23-0.186,0.343l1.76,11.861c0.155-0.013,0.312-0.024,0.468-0.036
			l-1.783-12.018C89.131,108.731,89.043,108.684,88.959,108.631z"/>
		<path fill="#82AB1D" d="M77.169,114.649l2.577,8.187c0.149-0.048,0.298-0.094,0.447-0.14l-2.618-8.319
			c-0.081,0.004-0.161,0.01-0.243,0.01l-0.016,0.006C77.28,114.447,77.197,114.613,77.169,114.649z"/>
	</g>
	<path fill="#002700" d="M149.832,133.291c0,0,0.02,0.123,0.054,0.338c0.022,0.104,0.011,0.246,0.069,0.379
		c0.062,0.13,0.125,0.271,0.182,0.426c0.063,0.151,0.207,0.29,0.312,0.447c0.103,0.168,0.304,0.25,0.445,0.398
		c0.029,0.022,0.099,0.092,0.097,0.077l0.496,0.208c0.22,0.066,0.416,0.035,0.622,0.09c0.215-0.037,0.444-0.031,0.65-0.094
		c0.183-0.096,0.434-0.145,0.557-0.265c0.156-0.157,0.401-0.265,0.483-0.427c0.099-0.156,0.235-0.283,0.302-0.443
		c0.059-0.162,0.127-0.311,0.185-0.445c0.057-0.137,0.044-0.267,0.065-0.371c0.032-0.215,0.05-0.338,0.05-0.338
		s0.016,0.123,0.043,0.34c0.002,0.108,0.043,0.249,0.018,0.401c-0.029,0.151-0.059,0.329-0.107,0.519
		c-0.051,0.189-0.187,0.374-0.297,0.584c-0.112,0.223-0.291,0.336-0.454,0.508c-0.212,0.203-0.458,0.252-0.699,0.387
		c-0.249,0.089-0.525,0.104-0.793,0.153c-0.277-0.028-0.587-0.063-0.825-0.146l-0.487-0.225c-0.117-0.051-0.117-0.088-0.18-0.131
		c-0.181-0.179-0.405-0.312-0.501-0.528c-0.106-0.206-0.238-0.377-0.295-0.573c-0.054-0.199-0.092-0.381-0.118-0.537
		c-0.027-0.156,0.014-0.283,0.015-0.393c0.025-0.216,0.04-0.34,0.04-0.34c0.003-0.02,0.021-0.034,0.041-0.031
		C149.817,133.262,149.83,133.274,149.832,133.291z"/>
	<g opacity="0.15">
		<path fill="#FFFFFF" d="M158.546,132.812c-2.198-0.935-4.445-1.881-6.827-2.058c-2.823-0.209-5.595,0.679-8.343,1.358
			s-5.712,1.146-8.357,0.139c-8.132-3.1-15.61-7.338-23.879-10.032c-4.49-1.464-9.231-2.013-13.947-1.778
			c-6.947,0.348-12.064,0.553-18.224,2.648c-5.314,1.809-11.938,4.492-17.25,8.342c-2.043,1.48-4.198,2.807-6.438,3.969
			c-2.227,1.156-4.537,2.15-6.903,2.986c-2.37,0.836-4.796,1.512-7.254,2.033c-2.471,0.523-4.975,0.892-7.491,1.111
			c-2.531,0.22-5.075,0.289-7.615,0.217c-2.551-0.074-5.097-0.291-7.625-0.647c-2.531-0.356-5.043-0.853-7.52-1.481
			c-1.213-0.309-2.418-0.65-3.612-1.022c-0.597-0.187-1.191-0.38-1.783-0.583c-0.29-0.098-0.578-0.199-0.866-0.302
			c-0.216-0.077-0.492-0.212-0.735-0.146c-0.409,0.11-0.276,0.398,0.019,0.543c0.317,0.156,0.637,0.308,0.954,0.463
			c0.449,0.22,0.914,0.534,1.386,0.693c18.565,6.194,39.715,4.957,55.483-6.47c5.313-3.85,11.936-6.532,17.25-8.341
			c6.16-2.098,11.277-2.302,18.223-2.648c4.717-0.236,9.458,0.314,13.948,1.777c8.269,2.695,15.747,6.934,23.879,10.032
			c2.646,1.009,5.609,0.541,8.357-0.139c2.748-0.681,5.52-1.567,8.343-1.358c2.382,0.176,4.629,1.123,6.827,2.058
			c2.455,1.044,4.909,2.087,7.364,3.131c0.036-0.169,0.064-0.342,0.073-0.524c0.251-0.162,0.502-0.325,0.753-0.488
			C164.007,135.135,161.276,133.974,158.546,132.812z"/>
	</g>
	<g opacity="0.19">
		<path fill="#3A8024" d="M58.327,145.215c-12.526-1.622-25.573,0.797-37.9-0.506c3.786,0.742,7.764,1.146,11.258,1.203
			l16.683,0.273c3.247,0.053,6.537,0.112,9.661,1c2.055,0.583,3.973,1.557,5.686,2.816c0.053,0.008,0.103,0.02,0.156,0.027
			C62.148,148.302,60.183,146.801,58.327,145.215z"/>
	</g>
	<g opacity="0.19">
		<path fill="#3A8024" d="M111.811,153.09c-0.02-0.386-0.012-0.773,0.013-1.159c-9.583,1.537-19.796,1.61-30.091,0.972
			c-0.557-0.035-1.096-0.099-1.626-0.176c0.221,0.789,0.271,1.613,0.272,2.445c10.381,0.589,20.16,0.79,30.467-0.594
			c0.286-0.039,0.699-0.1,0.998-0.141C111.808,153.988,111.805,153.543,111.811,153.09z"/>
	</g>
	<g opacity="0.19">
		<path fill="#3A8024" d="M148.704,140.793c-7.415-0.137-21.836,7.881-24.254,9.826c-0.633,2.586-0.501,3.516-0.501,3.373
			c7.324-1.656,12.542-8.357,19.668-10.724c5.743-1.907,12.116-0.798,17.939-2.443c1.587-0.448,3.243-1.282,4.003-2.603
			C164.025,140.076,157.108,140.949,148.704,140.793z"/>
	</g>
	<path fill="#C0EB81" d="M72.109,164.769c0.042-0.624,0.243-1.259,0.675-1.712c0.432-0.451,1.122-0.684,1.709-0.471
		c0.399,0.146,0.711,0.475,0.913,0.849c0.201,0.374,0.302,0.793,0.382,1.21c-0.175-0.576-0.022-0.982,0.259-1.515
		c0.282-0.532,0.854-0.921,1.456-0.905c0.581,0.016,1.108,0.398,1.417,0.891c0.31,0.491,0.429,1.08,0.475,1.658
		c-0.057-0.643,0.012-1.161,0.316-1.731c0.303-0.57,0.972-0.989,1.596-0.82c0.584,0.158,0.933,0.741,1.221,1.274
		c0.237,0.438,0.474,0.877,0.711,1.314c-0.33,0-0.663-0.042-0.993-0.042H72.109z"/>
	<path fill="#C0EB81" d="M117.003,164.769c0.039-0.624,0.228-1.259,0.631-1.712c0.404-0.451,1.049-0.684,1.598-0.471
		c0.373,0.146,0.665,0.475,0.854,0.849c0.188,0.374,0.282,0.793,0.356,1.21c-0.164-0.576-0.021-0.982,0.242-1.515
		c0.264-0.532,0.798-0.921,1.36-0.905c0.543,0.016,1.035,0.398,1.325,0.891c0.289,0.491,0.4,1.08,0.443,1.658
		c-0.053-0.643,0.012-1.161,0.296-1.731c0.283-0.57,0.908-0.989,1.491-0.82c0.547,0.158,0.872,0.741,1.142,1.274
		c0.222,0.438,0.442,0.877,0.664,1.314c-0.308,0-0.619-0.042-0.928-0.042H117.003z"/>
</g>
</svg>
