<svg width="250" height="250" viewBox="0 0 250 250" fill="none" xmlns="http://www.w3.org/2000/svg">
<path d="M65.1403 82.367C71.3677 70.8691 82.7756 65.0946 90.6206 69.4694C94.388 71.5702 96.813 75.7784 97.3624 81.1683C97.9117 86.5581 96.5402 92.688 93.5498 98.2095C87.3224 109.707 75.9145 115.482 68.0695 111.107C60.2244 106.732 58.913 93.865 65.1403 82.367V82.367Z" fill="#6B96A6"/>
<path d="M65.1403 82.367C71.3677 70.8691 82.7756 65.0946 90.6206 69.4694C94.388 71.5702 96.813 75.7784 97.3624 81.1683C97.9117 86.5581 96.5402 92.688 93.5498 98.2095C87.3224 109.707 75.9145 115.482 68.0695 111.107C60.2244 106.732 58.913 93.865 65.1403 82.367V82.367Z" stroke="#356879" stroke-width="2" stroke-miterlimit="10" stroke-linejoin="round"/>
<path d="M116.12 65.7623C122.347 54.2643 133.755 48.4899 141.6 52.8646C145.368 54.9655 147.793 59.1737 148.342 64.5635C148.891 69.9534 147.52 76.0833 144.529 81.6048C138.302 93.1028 126.894 98.8772 119.049 94.5024C111.204 90.1277 109.893 77.2602 116.12 65.7623V65.7623Z" fill="#6B96A6"/>
<path d="M116.12 65.7623C122.347 54.2643 133.755 48.4899 141.6 52.8646C145.368 54.9655 147.793 59.1737 148.342 64.5635C148.891 69.9534 147.52 76.0833 144.529 81.6048C138.302 93.1028 126.894 98.8772 119.049 94.5024C111.204 90.1277 109.893 77.2602 116.12 65.7623V65.7623Z" stroke="#356879" stroke-width="2" stroke-miterlimit="10" stroke-linejoin="round"/>
<path d="M150.226 90.5444C156.453 79.0464 167.861 73.272 175.706 77.6468C179.473 79.7476 181.898 83.9558 182.448 89.3456C182.997 94.7355 181.626 100.865 178.635 106.387C172.408 117.885 161 123.659 153.155 119.285C145.31 114.91 143.998 102.042 150.226 90.5444V90.5444Z" fill="#6B96A6"/>
<path d="M150.226 90.5444C156.453 79.0464 167.861 73.272 175.706 77.6468C179.473 79.7476 181.898 83.9558 182.448 89.3456C182.997 94.7355 181.626 100.865 178.635 106.387C172.408 117.885 161 123.659 153.155 119.285C145.31 114.91 143.998 102.042 150.226 90.5444V90.5444Z" stroke="#356879" stroke-width="2" stroke-miterlimit="10" stroke-linejoin="round"/>
<path d="M161.028 145.04C167.255 133.542 178.663 127.767 186.508 132.142C190.275 134.243 192.7 138.451 193.25 143.841C193.799 149.231 192.428 155.361 189.437 160.882C183.21 172.38 171.802 178.154 163.957 173.78C156.112 169.405 154.8 156.537 161.028 145.04V145.04Z" fill="#6B96A6"/>
<path d="M161.028 145.04C167.255 133.542 178.663 127.767 186.508 132.142C190.275 134.243 192.7 138.451 193.25 143.841C193.799 149.231 192.428 155.361 189.437 160.882C183.21 172.38 171.802 178.154 163.957 173.78C156.112 169.405 154.8 156.537 161.028 145.04V145.04Z" stroke="#356879" stroke-width="2" stroke-miterlimit="10" stroke-linejoin="round"/>
<path d="M144.051 181.724C143.814 177.677 141.91 169.741 141.196 165.059C140.482 160.377 140.083 158.156 139.765 153.632C139.448 149.109 139.848 142.998 139.293 137.919C138.737 132.84 138.257 126.968 136.431 123.158C134.605 119.348 131.592 116.884 128.338 115.058C125.085 113.233 121.436 111.727 116.911 112.203C112.387 112.679 106.35 115.929 101.192 117.914C96.0326 119.898 92.3855 122.284 85.9576 124.11C79.5297 125.935 68.3389 126.567 62.6243 128.868C56.9097 131.17 54.1311 133.872 51.6698 137.919C49.2085 141.967 47.3007 148.074 47.8564 153.153C48.4121 158.232 51.4324 164.981 55.0041 168.394C58.5757 171.807 63.3343 171.964 69.2863 173.631C75.2383 175.298 84.8429 174.349 90.7161 178.396C96.5894 182.444 100.32 193.472 104.526 197.916C108.732 202.361 111.111 204.35 115.953 205.064C120.795 205.778 129.131 204.822 133.576 202.202C138.021 199.582 140.875 192.757 142.62 189.344C144.366 185.931 144.289 185.772 144.051 181.724V181.724Z" fill="#6B96A6"/>
<path d="M144.051 181.724C143.814 177.677 141.91 169.741 141.196 165.059C140.482 160.377 140.083 158.156 139.765 153.632C139.448 149.109 139.848 142.998 139.293 137.919C138.737 132.84 138.257 126.968 136.431 123.158C134.605 119.348 131.592 116.884 128.338 115.058C125.085 113.233 121.436 111.727 116.911 112.203C112.387 112.679 106.35 115.929 101.192 117.914C96.0326 119.898 92.3855 122.284 85.9576 124.11C79.5297 125.935 68.3389 126.567 62.6243 128.868C56.9097 131.17 54.1311 133.872 51.6698 137.919C49.2085 141.967 47.3007 148.074 47.8564 153.153C48.4121 158.232 51.4324 164.981 55.0041 168.394C58.5757 171.807 63.3343 171.964 69.2863 173.631C75.2383 175.298 84.8429 174.349 90.7161 178.396C96.5894 182.444 100.32 193.472 104.526 197.916C108.732 202.361 111.111 204.35 115.953 205.064C120.795 205.778 129.131 204.822 133.576 202.202C138.021 199.582 140.875 192.757 142.62 189.344C144.366 185.931 144.289 185.772 144.051 181.724V181.724Z" stroke="#356879" stroke-width="2" stroke-miterlimit="10" stroke-linejoin="round"/>
<path d="M137.97 145.461C137.914 141.565 138.61 135.957 137.379 132.563C136.149 129.17 133.686 126.755 130.586 125.101C127.486 123.447 122.943 121.962 118.778 122.639C114.614 123.316 109.573 127.445 105.599 129.163C101.625 130.882 99.1151 131.876 94.933 132.951C90.751 134.025 85.0243 134.153 80.5064 135.609C75.9885 137.065 70.8296 138.65 67.8257 141.687C64.8218 144.723 62.704 149.152 62.483 153.829C62.262 158.507 63.6404 166.36 66.4999 169.752C69.3594 173.144 75.1123 172.461 79.6401 174.183C84.1678 175.904 89.4438 176.944 93.6663 180.083C97.8888 183.223 101.734 189.29 104.975 193.02C108.217 196.75 109.38 200.78 113.114 202.465C116.848 204.149 123.133 204.332 127.377 203.128C131.62 201.923 136.073 198.616 138.574 195.238C141.075 191.86 142.081 187.004 142.381 182.86C142.68 178.715 141.15 174.856 140.372 170.369C139.594 165.882 138.114 160.087 137.714 155.936C137.314 151.785 138.026 149.356 137.97 145.461V145.461Z" fill="#678D9A"/>
<path d="M167.146 146.829C171.939 137.983 180.745 133.563 186.816 136.955C189.731 138.584 191.613 141.833 192.047 145.988C192.481 150.144 191.432 154.864 189.131 159.112C184.338 167.957 175.532 172.378 169.461 168.986C163.391 165.594 162.354 155.674 167.146 146.829V146.829Z" fill="#678D9A"/>
<path d="M156.154 92.3334C160.946 83.4881 169.752 79.0674 175.823 82.4594C178.738 84.0883 180.62 87.3378 181.054 91.4931C181.488 95.6485 180.439 100.369 178.138 104.617C173.346 113.462 164.539 117.883 158.469 114.491C152.398 111.099 151.361 101.179 156.154 92.3334V92.3334Z" fill="#678D9A"/>
<path d="M122.968 66.4685C127.761 57.6233 136.567 53.2025 142.638 56.5945C145.553 58.2234 147.435 61.4729 147.869 65.6283C148.303 69.7836 147.254 74.5043 144.953 78.752C140.16 87.5972 131.354 92.018 125.283 88.626C119.213 85.234 118.176 75.3138 122.968 66.4685V66.4685Z" fill="#678D9A"/>
<path d="M72.3657 84.2868C77.1579 75.4415 85.9642 71.0208 92.035 74.4127C94.9503 76.0416 96.8319 79.2912 97.2661 83.4465C97.7002 87.6018 96.6513 92.3226 94.3499 96.5702C89.5577 105.415 80.7514 109.836 74.6806 106.444C68.6098 103.052 67.5734 93.132 72.3657 84.2868V84.2868Z" fill="#678D9A"/>
<path d="M67.7344 141.863H68.5781V152H67.7344V141.863ZM71.1094 141.863H71.9531V152H71.1094V141.863ZM69.4219 141.863H70.2656V152H69.4219V141.863ZM66.8906 141.863V152C65.4062 152.562 63.8672 152.844 62.2734 152.844C60.8906 152.844 59.5664 152.59 58.3008 152.082C57.0352 151.574 55.9219 150.871 54.9609 149.973C54 149.066 53.2305 147.949 52.6523 146.621C52.082 145.285 51.7969 143.844 51.7969 142.297C51.7969 140.867 52.0742 139.504 52.6289 138.207C53.1914 136.902 53.9414 135.781 54.8789 134.844C55.8242 133.898 56.9453 133.148 58.2422 132.594C59.5469 132.031 60.9141 131.75 62.3438 131.75C64.125 131.75 65.7812 132.164 67.3125 132.992C68.8438 133.82 70.0938 134.945 71.0625 136.367L70.3594 136.824C69.4688 135.52 68.3164 134.488 66.9023 133.73C65.4961 132.973 63.9766 132.594 62.3438 132.594C61.0312 132.594 59.7734 132.852 58.5703 133.367C57.375 133.875 56.3438 134.562 55.4766 135.43C54.6094 136.297 53.918 137.332 53.4023 138.535C52.8945 139.73 52.6406 140.984 52.6406 142.297C52.6406 143.711 52.9023 145.031 53.4258 146.258C53.957 147.484 54.6602 148.512 55.5352 149.34C56.418 150.168 57.4414 150.82 58.6055 151.297C59.7695 151.766 60.9805 152 62.2383 152C63.5586 152 64.8281 151.793 66.0469 151.379V150.57C64.8828 150.961 63.6602 151.156 62.3789 151.156C61.4492 151.156 60.543 151.027 59.6602 150.77C58.7852 150.504 57.9727 150.117 57.2227 149.609C56.4805 149.094 55.8281 148.484 55.2656 147.781C54.7109 147.07 54.2734 146.246 53.9531 145.309C53.6406 144.363 53.4844 143.359 53.4844 142.297C53.4844 140.695 53.8789 139.215 54.668 137.855C55.4648 136.496 56.543 135.422 57.9023 134.633C59.2617 133.836 60.7422 133.438 62.3438 133.438C63.8438 133.438 65.2383 133.789 66.5273 134.492C67.8164 135.188 68.8672 136.133 69.6797 137.328L68.9766 137.785C68.2422 136.707 67.2891 135.855 66.1172 135.23C64.9531 134.598 63.6953 134.281 62.3438 134.281C61.2578 134.281 60.2188 134.492 59.2266 134.914C58.2344 135.336 57.3789 135.906 56.6602 136.625C55.9492 137.336 55.3828 138.188 54.9609 139.18C54.5391 140.172 54.3281 141.211 54.3281 142.297C54.3281 143.273 54.4688 144.191 54.75 145.051C55.0391 145.902 55.4336 146.648 55.9336 147.289C56.4414 147.922 57.0312 148.469 57.7031 148.93C58.375 149.383 59.1055 149.727 59.8945 149.961C60.6914 150.195 61.5078 150.312 62.3438 150.312C63.6406 150.312 64.875 150.094 66.0469 149.656V148.812C64.8906 149.258 63.6836 149.48 62.4258 149.48C61.4727 149.48 60.5625 149.32 59.6953 149C58.8281 148.672 58.0547 148.211 57.375 147.617C56.7031 147.023 56.168 146.266 55.7695 145.344C55.3711 144.422 55.1719 143.406 55.1719 142.297C55.1719 141 55.4922 139.801 56.1328 138.699C56.7734 137.598 57.6445 136.727 58.7461 136.086C59.8477 135.445 61.0469 135.125 62.3438 135.125C63.5547 135.125 64.6797 135.406 65.7188 135.969C66.7656 136.531 67.6172 137.297 68.2734 138.266L67.5703 138.723C66.9922 137.879 66.2422 137.211 65.3203 136.719C64.4062 136.219 63.4141 135.969 62.3438 135.969C61.1953 135.969 60.1367 136.254 59.168 136.824C58.1992 137.387 57.4297 138.152 56.8594 139.121C56.2969 140.09 56.0156 141.148 56.0156 142.297C56.0156 143.094 56.1289 143.836 56.3555 144.523C56.582 145.211 56.8945 145.805 57.293 146.305C57.6914 146.805 58.1562 147.23 58.6875 147.582C59.2266 147.934 59.8047 148.199 60.4219 148.379C61.0391 148.551 61.6797 148.637 62.3438 148.637C63.6641 148.637 64.8984 148.375 66.0469 147.852V147.043C64.9375 147.535 63.7383 147.781 62.4492 147.781C61.707 147.781 61.0078 147.668 60.3516 147.441C59.6953 147.215 59.1016 146.883 58.5703 146.445C58.0469 146.008 57.6289 145.434 57.3164 144.723C57.0117 144.004 56.8594 143.195 56.8594 142.297C56.8594 141.555 57.0039 140.848 57.293 140.176C57.582 139.496 57.9727 138.91 58.4648 138.418C58.957 137.926 59.5391 137.535 60.2109 137.246C60.8906 136.957 61.6016 136.812 62.3438 136.812C63.2734 136.812 64.1367 137.031 64.9336 137.469C65.7305 137.898 66.3789 138.484 66.8789 139.227L66.1875 139.684C65.7656 139.059 65.2148 138.566 64.5352 138.207C63.8633 137.84 63.1328 137.656 62.3438 137.656C61.0625 137.656 59.9688 138.109 59.0625 139.016C58.1562 139.922 57.7031 141.016 57.7031 142.297C57.7031 143.086 57.832 143.785 58.0898 144.395C58.3477 144.996 58.6992 145.48 59.1445 145.848C59.5977 146.207 60.0977 146.48 60.6445 146.668C61.1992 146.848 61.793 146.938 62.4258 146.938C63.7227 146.938 64.9297 146.668 66.0469 146.129V141.863H66.8906ZM85.1016 144.523V135.125H85.9453V144.523C85.9453 145.414 85.6016 146.18 84.9141 146.82C84.2344 147.461 83.4141 147.781 82.4531 147.781C81.4922 147.781 80.668 147.461 79.9805 146.82C79.3008 146.18 78.9609 145.414 78.9609 144.523V135.125H79.8047V144.523C79.8047 145.188 80.0625 145.758 80.5781 146.234C81.1016 146.703 81.7266 146.938 82.4531 146.938C83.1797 146.938 83.8008 146.703 84.3164 146.234C84.8398 145.758 85.1016 145.188 85.1016 144.523ZM86.7891 144.523V135.125H87.6328V144.523C87.6328 145.891 87.125 147.059 86.1094 148.027C85.0938 148.988 83.875 149.469 82.4531 149.469C81.0312 149.469 79.8125 148.988 78.7969 148.027C77.7812 147.059 77.2734 145.891 77.2734 144.523V135.125H78.1172V144.523C78.1172 145.656 78.5391 146.625 79.3828 147.43C80.2344 148.227 81.2578 148.625 82.4531 148.625C83.6406 148.625 84.6602 148.227 85.5117 147.43C86.3633 146.625 86.7891 145.656 86.7891 144.523ZM88.4766 144.523V135.125H89.3203V144.523C89.3203 145.719 89.0117 146.828 88.3945 147.852C87.7773 148.867 86.9414 149.672 85.8867 150.266C84.832 150.859 83.6875 151.156 82.4531 151.156C81.2188 151.156 80.0742 150.859 79.0195 150.266C77.9648 149.672 77.1289 148.867 76.5117 147.852C75.8945 146.828 75.5859 145.719 75.5859 144.523V135.125H76.4297V144.523C76.4297 145.562 76.6992 146.527 77.2383 147.418C77.7773 148.309 78.5078 149.016 79.4297 149.539C80.3594 150.055 81.3672 150.312 82.4531 150.312C83.5391 150.312 84.543 150.055 85.4648 149.539C86.3945 149.016 87.1289 148.309 87.668 147.418C88.207 146.527 88.4766 145.562 88.4766 144.523ZM90.1641 144.523V135.125H91.0078V144.523C91.0078 145.648 90.7812 146.727 90.3281 147.758C89.875 148.781 89.2656 149.664 88.5 150.406C87.7344 151.148 86.8242 151.738 85.7695 152.176C84.7148 152.621 83.6094 152.844 82.4531 152.844C81.2969 152.844 80.1914 152.621 79.1367 152.176C78.082 151.738 77.1719 151.148 76.4062 150.406C75.6406 149.664 75.0312 148.781 74.5781 147.758C74.125 146.727 73.8984 145.648 73.8984 144.523V135.125H74.7422V144.523C74.7422 145.867 75.0859 147.113 75.7734 148.262C76.4688 149.41 77.4062 150.32 78.5859 150.992C79.7734 151.664 81.0625 152 82.4531 152C83.8438 152 85.1289 151.664 86.3086 150.992C87.4961 150.32 88.4336 149.41 89.1211 148.262C89.8164 147.113 90.1641 145.867 90.1641 144.523ZM97.3477 152H96.5039V135.125H97.3477V152ZM95.6602 152H94.8164V135.125H95.6602V152ZM93.9727 152H93.1289V135.125H93.9727V152ZM99.0352 147.781H107.109V148.625H99.0352V149.469H107.109V150.312H99.0352V151.156H107.109V152H98.1914V135.125H107.109V135.969H99.0352V136.812H107.109V137.656H99.0352V138.5H107.109V139.344H99.0352V141.441H106.641V142.285H99.0352V143.129H106.641V143.973H99.0352V144.816H106.641V145.66H99.0352V147.781ZM116.895 143.973H115.559C113.918 143.973 112.656 143.641 111.773 142.977C110.891 142.305 110.449 141.383 110.449 140.211C110.449 139.117 110.969 138.207 112.008 137.48C113.047 136.746 114.504 136.379 116.379 136.379C117.629 136.379 118.793 136.551 119.871 136.895C120.957 137.238 121.859 137.723 122.578 138.348L121.922 138.875C121.281 138.352 120.477 137.945 119.508 137.656C118.539 137.367 117.496 137.223 116.379 137.223C114.73 137.223 113.469 137.504 112.594 138.066C111.727 138.629 111.293 139.344 111.293 140.211C111.293 141.148 111.648 141.871 112.359 142.379C113.078 142.879 114.145 143.129 115.559 143.129H116.848C118.512 143.129 119.785 143.465 120.668 144.137C121.559 144.801 122.004 145.719 122.004 146.891C122.004 147.984 121.484 148.898 120.445 149.633C119.406 150.359 117.949 150.723 116.074 150.723C114.824 150.723 113.656 150.551 112.57 150.207C111.492 149.863 110.594 149.379 109.875 148.754L110.531 148.227C111.172 148.75 111.977 149.156 112.945 149.445C113.914 149.734 114.957 149.879 116.074 149.879C117.723 149.879 118.98 149.598 119.848 149.035C120.723 148.473 121.16 147.758 121.16 146.891C121.16 145.953 120.801 145.234 120.082 144.734C119.371 144.227 118.309 143.973 116.895 143.973ZM116.895 145.66H115.559C113.387 145.66 111.711 145.168 110.531 144.184C109.352 143.191 108.762 141.867 108.762 140.211C108.762 139.453 108.93 138.742 109.266 138.078C109.602 137.414 110.082 136.832 110.707 136.332C111.34 135.824 112.145 135.426 113.121 135.137C114.098 134.84 115.184 134.691 116.379 134.691C117.887 134.691 119.297 134.922 120.609 135.383C121.922 135.836 123.016 136.473 123.891 137.293L123.211 137.797C122.414 137.078 121.418 136.523 120.223 136.133C119.027 135.734 117.746 135.535 116.379 135.535C114.27 135.535 112.613 135.98 111.41 136.871C110.207 137.762 109.605 138.875 109.605 140.211C109.605 141.625 110.121 142.746 111.152 143.574C112.184 144.402 113.652 144.816 115.559 144.816H116.848C119.16 144.816 120.316 145.508 120.316 146.891C120.316 147.516 119.961 148.031 119.25 148.438C118.547 148.836 117.488 149.035 116.074 149.035C115.082 149.035 114.16 148.922 113.309 148.695C112.457 148.461 111.754 148.129 111.199 147.699L111.867 147.184C112.844 147.855 114.246 148.191 116.074 148.191C117.246 148.191 118.105 148.07 118.652 147.828C119.199 147.586 119.473 147.273 119.473 146.891C119.473 146.445 119.281 146.129 118.898 145.941C118.516 145.754 117.848 145.66 116.895 145.66ZM116.895 142.285H115.559C113.277 142.285 112.137 141.594 112.137 140.211C112.137 139.586 112.488 139.074 113.191 138.676C113.902 138.27 114.965 138.066 116.379 138.066C117.371 138.066 118.293 138.184 119.145 138.418C119.996 138.645 120.699 138.973 121.254 139.402L120.586 139.918C119.609 139.246 118.207 138.91 116.379 138.91C115.207 138.91 114.348 139.031 113.801 139.273C113.254 139.516 112.98 139.828 112.98 140.211C112.98 140.656 113.172 140.973 113.555 141.16C113.938 141.348 114.605 141.441 115.559 141.441H116.895C119.066 141.441 120.742 141.938 121.922 142.93C123.102 143.914 123.691 145.234 123.691 146.891C123.691 147.648 123.523 148.359 123.188 149.023C122.852 149.688 122.367 150.273 121.734 150.781C121.109 151.281 120.309 151.68 119.332 151.977C118.355 152.266 117.27 152.41 116.074 152.41C114.566 152.41 113.156 152.184 111.844 151.73C110.531 151.27 109.438 150.629 108.562 149.809L109.242 149.305C110.039 150.023 111.035 150.582 112.23 150.98C113.426 151.371 114.707 151.566 116.074 151.566C118.184 151.566 119.84 151.121 121.043 150.23C122.246 149.34 122.848 148.227 122.848 146.891C122.848 145.477 122.332 144.355 121.301 143.527C120.27 142.699 118.801 142.285 116.895 142.285ZM133.301 143.973H131.965C130.324 143.973 129.062 143.641 128.18 142.977C127.297 142.305 126.855 141.383 126.855 140.211C126.855 139.117 127.375 138.207 128.414 137.48C129.453 136.746 130.91 136.379 132.785 136.379C134.035 136.379 135.199 136.551 136.277 136.895C137.363 137.238 138.266 137.723 138.984 138.348L138.328 138.875C137.688 138.352 136.883 137.945 135.914 137.656C134.945 137.367 133.902 137.223 132.785 137.223C131.137 137.223 129.875 137.504 129 138.066C128.133 138.629 127.699 139.344 127.699 140.211C127.699 141.148 128.055 141.871 128.766 142.379C129.484 142.879 130.551 143.129 131.965 143.129H133.254C134.918 143.129 136.191 143.465 137.074 144.137C137.965 144.801 138.41 145.719 138.41 146.891C138.41 147.984 137.891 148.898 136.852 149.633C135.812 150.359 134.355 150.723 132.48 150.723C131.23 150.723 130.062 150.551 128.977 150.207C127.898 149.863 127 149.379 126.281 148.754L126.938 148.227C127.578 148.75 128.383 149.156 129.352 149.445C130.32 149.734 131.363 149.879 132.48 149.879C134.129 149.879 135.387 149.598 136.254 149.035C137.129 148.473 137.566 147.758 137.566 146.891C137.566 145.953 137.207 145.234 136.488 144.734C135.777 144.227 134.715 143.973 133.301 143.973ZM133.301 145.66H131.965C129.793 145.66 128.117 145.168 126.938 144.184C125.758 143.191 125.168 141.867 125.168 140.211C125.168 139.453 125.336 138.742 125.672 138.078C126.008 137.414 126.488 136.832 127.113 136.332C127.746 135.824 128.551 135.426 129.527 135.137C130.504 134.84 131.59 134.691 132.785 134.691C134.293 134.691 135.703 134.922 137.016 135.383C138.328 135.836 139.422 136.473 140.297 137.293L139.617 137.797C138.82 137.078 137.824 136.523 136.629 136.133C135.434 135.734 134.152 135.535 132.785 135.535C130.676 135.535 129.02 135.98 127.816 136.871C126.613 137.762 126.012 138.875 126.012 140.211C126.012 141.625 126.527 142.746 127.559 143.574C128.59 144.402 130.059 144.816 131.965 144.816H133.254C135.566 144.816 136.723 145.508 136.723 146.891C136.723 147.516 136.367 148.031 135.656 148.438C134.953 148.836 133.895 149.035 132.48 149.035C131.488 149.035 130.566 148.922 129.715 148.695C128.863 148.461 128.16 148.129 127.605 147.699L128.273 147.184C129.25 147.855 130.652 148.191 132.48 148.191C133.652 148.191 134.512 148.07 135.059 147.828C135.605 147.586 135.879 147.273 135.879 146.891C135.879 146.445 135.688 146.129 135.305 145.941C134.922 145.754 134.254 145.66 133.301 145.66ZM133.301 142.285H131.965C129.684 142.285 128.543 141.594 128.543 140.211C128.543 139.586 128.895 139.074 129.598 138.676C130.309 138.27 131.371 138.066 132.785 138.066C133.777 138.066 134.699 138.184 135.551 138.418C136.402 138.645 137.105 138.973 137.66 139.402L136.992 139.918C136.016 139.246 134.613 138.91 132.785 138.91C131.613 138.91 130.754 139.031 130.207 139.273C129.66 139.516 129.387 139.828 129.387 140.211C129.387 140.656 129.578 140.973 129.961 141.16C130.344 141.348 131.012 141.441 131.965 141.441H133.301C135.473 141.441 137.148 141.938 138.328 142.93C139.508 143.914 140.098 145.234 140.098 146.891C140.098 147.648 139.93 148.359 139.594 149.023C139.258 149.688 138.773 150.273 138.141 150.781C137.516 151.281 136.715 151.68 135.738 151.977C134.762 152.266 133.676 152.41 132.48 152.41C130.973 152.41 129.562 152.184 128.25 151.73C126.938 151.27 125.844 150.629 124.969 149.809L125.648 149.305C126.445 150.023 127.441 150.582 128.637 150.98C129.832 151.371 131.113 151.566 132.48 151.566C134.59 151.566 136.246 151.121 137.449 150.23C138.652 149.34 139.254 148.227 139.254 146.891C139.254 145.477 138.738 144.355 137.707 143.527C136.676 142.699 135.207 142.285 133.301 142.285ZM69.9023 162.812H74.8008C75.6055 162.812 76.2852 162.543 76.8398 162.004C77.4023 161.457 77.6836 160.688 77.6836 159.695C77.6836 158.953 77.3906 158.289 76.8047 157.703C76.2188 157.109 75.5508 156.812 74.8008 156.812H67.5586V172H66.7148V155.969H74.8008C75.7852 155.969 76.6523 156.348 77.4023 157.105C78.1523 157.863 78.5273 158.727 78.5273 159.695C78.5273 160.891 78.1641 161.852 77.4375 162.578C76.7109 163.297 75.832 163.656 74.8008 163.656H69.9023V162.812ZM69.9023 164.5H74.8008C75.6133 164.5 76.3633 164.305 77.0508 163.914C77.7461 163.516 78.3047 162.945 78.7266 162.203C79.1562 161.461 79.3711 160.625 79.3711 159.695C79.3711 158.492 78.9102 157.43 77.9883 156.508C77.0742 155.586 76.0117 155.125 74.8008 155.125H65.8711V172H65.0273V154.281H74.8008C75.7461 154.281 76.6367 154.531 77.4727 155.031C78.3086 155.531 78.9727 156.199 79.4648 157.035C79.9648 157.871 80.2148 158.758 80.2148 159.695C80.2148 160.758 79.9648 161.727 79.4648 162.602C78.9648 163.469 78.3008 164.145 77.4727 164.629C76.6523 165.105 75.7617 165.344 74.8008 165.344H69.9023V164.5ZM69.9023 166.188H74.8008C75.6367 166.188 76.4375 166.023 77.2031 165.695C77.9688 165.359 78.6328 164.91 79.1953 164.348C79.7656 163.777 80.2188 163.09 80.5547 162.285C80.8906 161.473 81.0586 160.609 81.0586 159.695C81.0586 158.602 80.7734 157.574 80.2031 156.613C79.6328 155.645 78.8633 154.875 77.8945 154.305C76.9336 153.727 75.9023 153.438 74.8008 153.438H64.1836V172H63.3398V152.594H74.8008C76.0508 152.594 77.2227 152.922 78.3164 153.578C79.4102 154.227 80.2812 155.098 80.9297 156.191C81.5781 157.285 81.9023 158.453 81.9023 159.695C81.9023 160.805 81.7109 161.828 81.3281 162.766C80.9453 163.695 80.4297 164.469 79.7812 165.086C79.1328 165.703 78.3789 166.184 77.5195 166.527C76.6602 166.863 75.7539 167.031 74.8008 167.031H69.9023V166.188ZM69.2461 172H68.4023V157.656H74.8008C75.3555 157.656 75.832 157.859 76.2305 158.266C76.6367 158.672 76.8398 159.148 76.8398 159.695C76.8398 161.211 76.1602 161.969 74.8008 161.969H69.9023V161.125H74.8008C75.1758 161.125 75.4688 161.02 75.6797 160.809C75.8906 160.598 75.9961 160.227 75.9961 159.695C75.9961 159.352 75.8789 159.066 75.6445 158.84C75.418 158.613 75.1367 158.5 74.8008 158.5H69.2461V172ZM95.7305 163.68C95.7305 162.68 95.4219 161.906 94.8047 161.359C94.1875 160.812 93.3711 160.539 92.3555 160.539C91.4961 160.539 90.7578 160.836 90.1406 161.43C89.5234 162.023 89.2148 162.734 89.2148 163.562C89.2148 164.031 89.2773 164.453 89.4023 164.828C89.5273 165.195 89.6953 165.504 89.9062 165.754C90.125 165.996 90.3828 166.199 90.6797 166.363C90.9766 166.52 91.2852 166.633 91.6055 166.703C91.9336 166.773 92.2812 166.809 92.6484 166.809C93.5391 166.809 94.3516 166.59 95.0859 166.152V166.996C94.3281 167.395 93.5117 167.594 92.6367 167.594C92.0742 167.594 91.543 167.52 91.043 167.371C90.5508 167.215 90.1016 166.984 89.6953 166.68C89.2891 166.367 88.9648 165.945 88.7227 165.414C88.4883 164.875 88.3711 164.258 88.3711 163.562C88.3711 162.484 88.75 161.57 89.5078 160.82C90.2656 160.07 91.2148 159.695 92.3555 159.695C93.6133 159.695 94.6289 160.051 95.4023 160.762C96.1836 161.465 96.5742 162.438 96.5742 163.68V172H95.7305V163.68ZM98.2617 163.68V172H97.418V163.68C97.418 162.203 96.9453 161.031 96 160.164C95.0547 159.289 93.8398 158.852 92.3555 158.852C90.9805 158.852 89.832 159.309 88.9102 160.223C87.9883 161.137 87.5273 162.25 87.5273 163.562C87.5273 164.359 87.6641 165.074 87.9375 165.707C88.2188 166.34 88.5977 166.848 89.0742 167.23C89.5508 167.613 90.082 167.906 90.668 168.109C91.2617 168.305 91.8867 168.402 92.543 168.402C93.4336 168.402 94.2812 168.195 95.0859 167.781V168.672C94.2422 169.023 93.3906 169.199 92.5312 169.199C91.7578 169.199 91.0234 169.082 90.3281 168.848C89.6328 168.605 89.0117 168.258 88.4648 167.805C87.918 167.344 87.4844 166.75 87.1641 166.023C86.8438 165.289 86.6836 164.469 86.6836 163.562C86.6836 162.023 87.2266 160.715 88.3125 159.637C89.4062 158.551 90.7539 158.008 92.3555 158.008C93.4805 158.008 94.4883 158.238 95.3789 158.699C96.2695 159.152 96.9727 159.812 97.4883 160.68C98.0039 161.547 98.2617 162.547 98.2617 163.68ZM99.9492 163.68V172H99.1055V163.68C99.1055 162.391 98.8086 161.25 98.2148 160.258C97.6289 159.258 96.8242 158.492 95.8008 157.961C94.7773 157.43 93.6289 157.164 92.3555 157.164C91.1445 157.164 90.0391 157.453 89.0391 158.031C88.0391 158.602 87.2539 159.375 86.6836 160.352C86.1211 161.328 85.8398 162.398 85.8398 163.562C85.8398 164.562 86.0234 165.477 86.3906 166.305C86.7578 167.125 87.25 167.801 87.8672 168.332C88.4922 168.863 89.1992 169.277 89.9883 169.574C90.7852 169.863 91.6172 170.008 92.4844 170.008C93.3672 170.008 94.2344 169.824 95.0859 169.457V170.312C94.1953 170.648 93.3203 170.816 92.4609 170.816C91.1094 170.816 89.8672 170.512 88.7344 169.902C87.6016 169.293 86.6953 168.43 86.0156 167.312C85.3359 166.195 84.9961 164.945 84.9961 163.562C84.9961 162.578 85.1836 161.641 85.5586 160.75C85.9414 159.859 86.457 159.09 87.1055 158.441C87.7539 157.793 88.5352 157.277 89.4492 156.895C90.3633 156.512 91.332 156.32 92.3555 156.32C93.7852 156.32 95.0742 156.625 96.2227 157.234C97.3789 157.844 98.2891 158.711 98.9531 159.836C99.6172 160.961 99.9492 162.242 99.9492 163.68ZM101.637 163.68V172H100.793V163.68C100.793 162.086 100.422 160.664 99.6797 159.414C98.9375 158.156 97.9258 157.188 96.6445 156.508C95.3633 155.82 93.9336 155.477 92.3555 155.477C90.8398 155.477 89.4531 155.84 88.1953 156.566C86.9375 157.293 85.9492 158.277 85.2305 159.52C84.5117 160.754 84.1523 162.102 84.1523 163.562C84.1523 164.523 84.3047 165.438 84.6094 166.305C84.9219 167.164 85.3438 167.918 85.875 168.566C86.4141 169.207 87.0312 169.762 87.7266 170.23C88.4297 170.699 89.1836 171.055 89.9883 171.297C90.8008 171.539 91.625 171.66 92.4609 171.66C93.3828 171.66 94.2578 171.484 95.0859 171.133V172C94.2188 172.305 93.3281 172.457 92.4141 172.457C91.4688 172.457 90.5469 172.324 89.6484 172.059C88.7578 171.793 87.9297 171.402 87.1641 170.887C86.4062 170.363 85.7383 169.75 85.1602 169.047C84.582 168.336 84.1289 167.508 83.8008 166.562C83.4727 165.617 83.3086 164.617 83.3086 163.562C83.3086 162.352 83.5352 161.199 83.9883 160.105C84.4492 159.004 85.0742 158.055 85.8633 157.258C86.6602 156.453 87.6211 155.816 88.7461 155.348C89.8789 154.871 91.082 154.633 92.3555 154.633C93.6523 154.633 94.8711 154.852 96.0117 155.289C97.1523 155.727 98.1367 156.336 98.9648 157.117C99.793 157.891 100.445 158.844 100.922 159.977C101.398 161.109 101.637 162.344 101.637 163.68ZM120.363 166.574C120.527 166.582 120.727 166.586 120.961 166.586C121.195 166.586 121.391 166.582 121.547 166.574C121.711 166.559 121.879 166.527 122.051 166.48C122.223 166.426 122.359 166.355 122.461 166.27C122.562 166.184 122.645 166.062 122.707 165.906C122.777 165.742 122.812 165.547 122.812 165.32V155.125H123.656V165.32C123.656 166.727 122.758 167.43 120.961 167.43C120.055 167.43 119.383 167.258 118.945 166.914C118.883 167.219 118.809 167.488 118.723 167.723C119.316 168.09 120.062 168.273 120.961 168.273C122.008 168.273 122.859 168.031 123.516 167.547C124.172 167.055 124.5 166.312 124.5 165.32V155.125H125.344V165.32C125.344 166.547 124.93 167.488 124.102 168.145C123.281 168.793 122.234 169.117 120.961 169.117C119.969 169.117 119.117 168.914 118.406 168.508C118.289 168.758 118.152 168.996 117.996 169.223C118.848 169.715 119.836 169.961 120.961 169.961C121.688 169.961 122.363 169.859 122.988 169.656C123.621 169.453 124.176 169.16 124.652 168.777C125.129 168.395 125.504 167.906 125.777 167.312C126.051 166.719 126.188 166.055 126.188 165.32V155.125H127.031V165.32C127.031 166.445 126.754 167.43 126.199 168.273C125.652 169.117 124.922 169.75 124.008 170.172C123.102 170.594 122.086 170.805 120.961 170.805C119.648 170.805 118.492 170.504 117.492 169.902C117.273 170.152 117.074 170.355 116.895 170.512C118.059 171.27 119.414 171.648 120.961 171.648C122.234 171.648 123.391 171.398 124.43 170.898C125.469 170.398 126.301 169.664 126.926 168.695C127.559 167.719 127.875 166.594 127.875 165.32V155.125H128.719V165.32C128.719 166.398 128.512 167.391 128.098 168.297C127.691 169.203 127.137 169.961 126.434 170.57C125.738 171.18 124.918 171.652 123.973 171.988C123.027 172.324 122.023 172.492 120.961 172.492C119.102 172.492 117.512 172.016 116.191 171.062C114.824 172.016 113.211 172.492 111.352 172.492C110.289 172.492 109.285 172.324 108.34 171.988C107.395 171.652 106.57 171.18 105.867 170.57C105.172 169.961 104.617 169.203 104.203 168.297C103.797 167.391 103.594 166.398 103.594 165.32V155.125H104.438V165.32C104.438 166.281 104.617 167.164 104.977 167.969C105.344 168.773 105.84 169.441 106.465 169.973C107.09 170.504 107.82 170.918 108.656 171.215C109.5 171.504 110.398 171.648 111.352 171.648C112.594 171.648 113.746 171.367 114.809 170.805C115.871 170.234 116.711 169.465 117.328 168.496C117.953 167.52 118.266 166.461 118.266 165.32V155.125H119.109V165.32C119.109 165.547 119.141 165.742 119.203 165.906C119.273 166.062 119.359 166.184 119.461 166.27C119.562 166.355 119.699 166.426 119.871 166.48C120.043 166.527 120.207 166.559 120.363 166.574ZM114.047 155.125V165.32C114.047 166.727 113.148 167.43 111.352 167.43C109.555 167.43 108.656 166.727 108.656 165.32V155.125H109.5V165.32C109.5 165.547 109.531 165.742 109.594 165.906C109.664 166.062 109.75 166.184 109.852 166.27C109.953 166.355 110.09 166.426 110.262 166.48C110.434 166.527 110.598 166.559 110.754 166.574C110.918 166.582 111.117 166.586 111.352 166.586C111.586 166.586 111.781 166.582 111.938 166.574C112.102 166.559 112.27 166.527 112.441 166.48C112.613 166.426 112.75 166.355 112.852 166.27C112.953 166.184 113.035 166.062 113.098 165.906C113.168 165.742 113.203 165.547 113.203 165.32V155.125H114.047ZM115.734 155.125V165.32C115.734 166.547 115.32 167.488 114.492 168.145C113.672 168.793 112.625 169.117 111.352 169.117C110.078 169.117 109.027 168.793 108.199 168.145C107.379 167.488 106.969 166.547 106.969 165.32V155.125H107.812V165.32C107.812 166.312 108.141 167.055 108.797 167.547C109.453 168.031 110.305 168.273 111.352 168.273C112.398 168.273 113.25 168.031 113.906 167.547C114.562 167.055 114.891 166.312 114.891 165.32V155.125H115.734ZM117.422 155.125V165.32C117.422 166.445 117.145 167.43 116.59 168.273C116.043 169.117 115.312 169.75 114.398 170.172C113.492 170.594 112.477 170.805 111.352 170.805C110.227 170.805 109.207 170.594 108.293 170.172C107.387 169.75 106.656 169.117 106.102 168.273C105.555 167.43 105.281 166.445 105.281 165.32V155.125H106.125V165.32C106.125 166.055 106.262 166.719 106.535 167.312C106.809 167.906 107.184 168.395 107.66 168.777C108.137 169.16 108.688 169.453 109.312 169.656C109.945 169.859 110.625 169.961 111.352 169.961C112.078 169.961 112.754 169.859 113.379 169.656C114.012 169.453 114.566 169.16 115.043 168.777C115.52 168.395 115.895 167.906 116.168 167.312C116.441 166.719 116.578 166.055 116.578 165.32V155.125H117.422Z" fill="white"/>
</svg>
