<?xml version="1.0" encoding="UTF-8" standalone="no"?> <!-- Created with Vectornator for iOS (http://vectornator.io/) --><!DOCTYPE svg PUBLIC "-//W3C//DTD SVG 1.1//EN" "http://www.w3.org/Graphics/SVG/1.1/DTD/svg11.dtd">
<svg height="100%" style="fill-rule:nonzero;clip-rule:evenodd;stroke-linecap:round;stroke-linejoin:round;" xmlns:xlink="http://www.w3.org/1999/xlink" xmlns="http://www.w3.org/2000/svg" xml:space="preserve" width="100%" xmlns:vectornator="http://vectornator.io" version="1.1" viewBox="0 0 841.995 595.35">
<metadata>
<vectornator:setting key="DimensionsVisible" value="1"/>
<vectornator:setting key="PencilOnly" value="0"/>
<vectornator:setting key="SnapToPoints" value="0"/>
<vectornator:setting key="OutlineMode" value="0"/>
<vectornator:setting key="CMYKEnabledKey" value="0"/>
<vectornator:setting key="RulersVisible" value="1"/>
<vectornator:setting key="SnapToEdges" value="0"/>
<vectornator:setting key="GuidesVisible" value="1"/>
<vectornator:setting key="DisplayWhiteBackground" value="0"/>
<vectornator:setting key="doHistoryDisabled" value="0"/>
<vectornator:setting key="SnapToGuides" value="1"/>
<vectornator:setting key="TimeLapseWatermarkDisabled" value="0"/>
<vectornator:setting key="Units" value="Points"/>
<vectornator:setting key="DynamicGuides" value="0"/>
<vectornator:setting key="IsolateActiveLayer" value="0"/>
<vectornator:setting key="SnapToGrid" value="0"/>
</metadata>
<defs/>
<g id="Layer 1" vectornator:layerName="Layer 1">
<path d="M262.206+7.40794L487.151+7.40794C622.45+7.40794+732.131+117.089+732.131+252.386L732.131+252.386C732.131+387.685+622.45+497.365+487.151+497.365L262.206+497.365C126.909+497.365+17.2267+387.685+17.2267+252.386L17.2267+252.386C17.2267+117.089+126.909+7.40794+262.206+7.40794Z" fill-rule="evenodd" fill="#ffffff" opacity="1"/>
<g opacity="1">
<path d="M214.684+196.485C212.688+195.264+210.327+194.48+207.601+194.13C204.874+193.78+202.267+193.828+199.782+194.274C197.01+194.772+194.566+195.728+192.452+197.143C190.338+198.559+188.603+200.301+187.247+202.369C185.892+204.439+184.959+206.801+184.449+209.46C183.939+212.116+183.941+214.879+184.456+217.747C184.971+220.615+185.976+223.197+187.474+225.494C188.971+227.79+190.788+229.66+192.921+231.103C195.054+232.545+197.431+233.549+200.049+234.116C202.666+234.682+205.361+234.718+208.133+234.219C211.384+233.636+214.224+232.411+216.652+230.546C219.08+228.679+221.035+226.379+222.518+223.645L213.914+225.189L210.312+205.115L247.165+198.502L252.876+230.336C251.381+234.649+249.391+238.681+246.907+242.433C244.422+246.185+241.498+249.546+238.133+252.518C234.77+255.491+231+257.992+226.826+260.024C222.651+262.055+218.221+263.492+213.538+264.332C206.655+265.567+199.922+265.443+193.34+263.961C186.759+262.477+180.796+259.897+175.448+256.218C170.101+252.54+165.564+247.878+161.836+242.23C158.11+236.584+155.612+230.224+154.342+223.15C153.108+216.267+153.184+209.544+154.572+202.979C155.959+196.415+158.42+190.472+161.955+185.151C165.49+179.829+170.009+175.317+175.512+171.617C181.016+167.916+187.209+165.448+194.092+164.212C199.445+163.253+204.176+162.946+208.283+163.294C212.393+163.643+215.905+164.245+218.821+165.104C222.251+166.066+225.18+167.268+227.61+168.707L214.684+196.485Z" fill-rule="evenodd" fill="#9bbffb" opacity="1"/>
<path d="M317.531+245.671C311.508+246.752+305.922+246.965+300.771+246.311C295.622+245.656+291.052+244.109+287.061+241.666C283.071+239.225+279.723+235.829+277.019+231.48C274.314+227.129+272.395+221.8+271.263+215.491L260.353+154.69L290.896+149.21L301.576+208.72C302.175+212.065+303.328+214.499+305.031+216.018C306.735+217.538+309.211+218.006+312.462+217.422C315.711+216.84+317.871+215.54+318.941+213.522C320.009+211.505+320.243+208.823+319.644+205.477L308.964+145.967L339.651+140.461L350.562+201.261C351.693+207.571+351.747+213.235+350.725+218.254C349.701+223.273+347.718+227.625+344.779+231.31C341.838+234.995+338.067+238.04+333.467+240.444C328.865+242.849+323.553+244.591+317.531+245.671Z" fill-rule="evenodd" fill="#9bbffb" opacity="1"/>
<path d="M362.195+136.416L418.55+126.304L423.054+151.398L397.242+156.03L399.146+166.641L424.526+162.086L428.798+185.89L403.418+190.445L405.399+201.485L432.214+196.675L436.717+221.769L379.358+232.061L362.195+136.416Z" fill-rule="evenodd" fill="#9bbffb" opacity="1"/>
<path d="M450.35+188.684C452.573+188.975+454.866+189.106+457.229+189.078C459.227+189.212+461.471+189.203+463.959+189.053C466.448+188.903+468.937+188.605+471.422+188.158C475.82+187.369+477.726+185.35+477.144+182.099C476.919+180.856+476.024+179.709+474.454+178.66C472.883+177.61+470.929+176.48+468.591+175.272C466.253+174.062+463.74+172.712+461.055+171.221C458.37+169.729+455.778+167.925+453.275+165.808C450.774+163.691+448.576+161.2+446.679+158.334C444.784+155.467+443.476+152.025+442.756+148.01C441.949+143.518+442.05+139.404+443.057+135.671C444.066+131.937+445.797+128.666+448.253+125.858C450.709+123.049+453.767+120.699+457.423+118.81C461.081+116.92+465.107+115.58+469.505+114.792C471.8+114.381+474.116+114.088+476.452+113.915C478.79+113.742+480.884+113.589+482.734+113.454C484.889+113.364+486.996+113.281+489.056+113.208L493.866+140.023C493.085+140.064+492.208+140.123+491.234+140.2C490.452+140.241+489.574+140.3+488.601+140.376C487.629+140.451+486.616+140.584+485.565+140.773C484.991+140.875+484.278+141.028+483.427+141.23C482.575+141.432+481.784+141.698+481.053+142.027C480.323+142.355+479.713+142.809+479.226+143.391C478.738+143.971+478.57+144.692+478.726+145.552C478.863+146.317+479.68+147.157+481.176+148.073C482.673+148.988+484.489+150.044+486.629+151.239C488.767+152.433+491.139+153.833+493.746+155.438C496.353+157.042+498.821+158.968+501.148+161.214C503.476+163.461+505.575+166.094+507.449+169.113C509.323+172.131+510.62+175.647+511.341+179.664C512.095+183.87+512.134+187.932+511.456+191.853C510.779+195.774+509.273+199.35+506.942+202.581C504.611+205.812+501.389+208.61+497.274+210.976C493.159+213.343+488.091+215.066+482.068+216.147C478.436+216.798+475.035+217.237+471.869+217.459C468.702+217.682+465.88+217.769+463.405+217.719C460.547+217.739+457.91+217.619+455.496+217.362L450.35+188.684Z" fill-rule="evenodd" fill="#9bbffb" opacity="1"/>
<path d="M527.815+174.783C530.038+175.075+532.332+175.206+534.694+175.176C536.692+175.312+538.935+175.303+541.424+175.153C543.914+175.002+546.4+174.703+548.887+174.258C553.283+173.469+555.192+171.45+554.607+168.199C554.385+166.956+553.489+165.809+551.918+164.759C550.348+163.708+548.394+162.58+546.056+161.37C543.718+160.162+541.206+158.812+538.52+157.321C535.835+155.828+533.241+154.024+530.741+151.908C528.24+149.791+526.041+147.3+524.145+144.432C522.249+141.565+520.941+138.125+520.22+134.11C519.414+129.616+519.514+125.504+520.522+121.771C521.529+118.037+523.262+114.766+525.719+111.957C528.174+109.149+531.23+106.799+534.888+104.909C538.546+103.02+542.573+101.68+546.97+100.892C549.264+100.479+551.581+100.187+553.918+100.015C556.256+99.8418+558.349+99.6876+560.199+99.5533C562.354+99.4633+564.461+99.3805+566.519+99.3077L571.331+126.123C570.55+126.164+569.672+126.223+568.699+126.298C567.918+126.34+567.039+126.4+566.067+126.475C565.094+126.551+564.081+126.684+563.03+126.872C562.456+126.975+561.743+127.128+560.892+127.329C560.039+127.532+559.248+127.797+558.518+128.125C557.788+128.454+557.178+128.909+556.691+129.489C556.203+130.07+556.036+130.792+556.19+131.652C556.327+132.416+557.144+133.257+558.641+134.172C560.138+135.088+561.955+136.144+564.094+137.338C566.232+138.533+568.605+139.933+571.211+141.537C573.818+143.142+576.286+145.068+578.613+147.314C580.94+149.561+583.041+152.193+584.914+155.211C586.788+158.231+588.085+161.747+588.807+165.762C589.561+169.968+589.599+174.032+588.921+177.953C588.244+181.873+586.738+185.45+584.407+188.679C582.076+191.91+578.853+194.709+574.739+197.075C570.624+199.441+565.557+201.165+559.534+202.247C555.9+202.898+552.501+203.335+549.334+203.558C546.168+203.781+543.345+203.868+540.87+203.819C538.012+203.839+535.375+203.719+532.962+203.462L527.815+174.783Z" fill-rule="evenodd" fill="#9bbffb" opacity="1"/>
<path d="M172.329+356.374L204.735+350.558L221.772+381.988L226.818+346.596L247.754+342.84L264.791+374.27L269.837+338.876L302.245+333.062L287.861+434.368L264.057+438.639L249.251+411.397L244.842+442.087L221.038+446.359L172.329+356.374Z" fill-rule="evenodd" fill="#9bbffb" opacity="1"/>
<path d="M317.333+330.354L347.877+324.873L353.717+357.424L370.781+354.362L364.941+321.811L395.628+316.305L412.79+411.95L382.103+417.457L375.747+382.038L358.683+385.099L365.039+420.518L334.496+426L317.333+330.354Z" fill-rule="evenodd" fill="#9bbffb" opacity="1"/>
<path d="M425.045+360.462C423.809+353.579+423.958+346.843+425.489+340.253C427.02+333.663+429.648+327.69+433.375+322.334C437.101+316.979+441.787+312.437+447.434+308.711C453.08+304.984+459.344+302.503+466.227+301.268C473.111+300.032+479.847+300.181+486.438+301.712C493.028+303.243+498.999+305.871+504.356+309.598C509.712+313.324+514.252+318.01+517.98+323.656C521.707+329.302+524.187+335.567+525.423+342.45C526.657+349.333+526.51+356.07+524.979+362.66C523.448+369.251+520.819+375.222+517.093+380.578C513.367+385.935+508.68+390.475+503.034+394.202C497.387+397.929+491.122+400.41+484.239+401.644C477.356+402.88+470.621+402.733+464.03+401.202C457.44+399.67+451.467+397.041+446.112+393.316C440.756+389.59+436.214+384.903+432.488+379.257C428.761+373.61+426.28+367.345+425.045+360.462ZM455.158+355.059C455.656+357.831+456.649+360.342+458.139+362.59C459.627+364.84+461.442+366.71+463.585+368.201C465.727+369.69+468.111+370.743+470.738+371.357C473.364+371.971+476.064+372.03+478.836+371.532C481.608+371.034+484.119+370.042+486.368+368.552C488.617+367.064+490.487+365.247+491.978+363.105C493.468+360.964+494.52+358.578+495.134+355.952C495.749+353.325+495.807+350.627+495.309+347.855C494.812+345.082+493.819+342.571+492.329+340.322C490.841+338.074+489.024+336.203+486.883+334.713C484.741+333.222+482.355+332.17+479.729+331.556C477.104+330.942+474.404+330.884+471.632+331.381C468.859+331.879+466.348+332.872+464.099+334.36C461.851+335.85+459.981+337.665+458.49+339.808C457+341.95+455.948+344.334+455.333+346.96C454.719+349.587+454.661+352.287+455.158+355.059Z" fill-rule="evenodd" fill="#9bbffb" opacity="1"/>
<path d="M592.364+350.568C591.559+346.075+591.529+342.059+592.276+338.521C593.021+334.983+593.986+331.825+595.164+329.048C596.344+326.27+597.422+323.758+598.4+321.511C599.379+319.263+599.687+317.135+599.327+315.128C599+313.311+598.358+311.921+597.395+310.96C596.432+309.998+595.275+309.318+593.92+308.919C592.566+308.521+591.035+308.376+589.328+308.485C587.621+308.594+585.859+308.812+584.043+309.138L581.031+309.678L576.245+283.006C577.914+282.41+579.377+281.901+580.634+281.479C581.889+281.056+583.035+280.702+584.07+280.417C585.104+280.133+586.119+279.878+587.114+279.649C588.11+279.422+589.276+279.188+590.615+278.948C596.064+277.969+601.111+277.779+605.758+278.376C610.404+278.973+614.512+280.283+618.082+282.307C621.652+284.331+624.623+287.005+626.996+290.328C629.369+293.652+630.95+297.513+631.738+301.911C632.493+306.117+632.338+310.068+631.274+313.761C630.21+317.455+628.957+321.06+627.516+324.575C626.075+328.09+624.793+331.526+623.669+334.886C622.544+338.245+622.292+341.646+622.909+345.087L592.364+350.568ZM593.137+354.87L623.824+349.363L628.12+373.31L597.435+378.817L593.137+354.87Z" fill-rule="evenodd" fill="#9bbffb" opacity="1"/>
</g>
<g opacity="1">
<path d="M205.203+176.094C203.208+174.874+200.847+174.089+198.12+173.739C195.394+173.39+192.787+173.439+190.302+173.885C187.529+174.382+185.086+175.339+182.972+176.754C180.858+178.17+179.123+179.911+177.767+181.98C176.412+184.048+175.479+186.412+174.969+189.069C174.459+191.726+174.462+194.488+174.976+197.356C175.49+200.224+176.497+202.806+177.994+205.103C179.492+207.4+181.308+209.269+183.442+210.713C185.574+212.156+187.951+213.16+190.569+213.726C193.187+214.293+195.881+214.327+198.653+213.83C201.904+213.246+204.743+212.022+207.171+210.155C209.6+208.288+211.555+205.989+213.038+203.256L204.433+204.799L200.831+184.724L237.684+178.111L243.397+209.945C241.902+214.258+239.911+218.292+237.427+222.043C234.943+225.795+232.018+229.157+228.653+232.128C225.289+235.1+221.52+237.603+217.345+239.634C213.17+241.666+208.741+243.101+204.058+243.943C197.175+245.178+190.442+245.054+183.86+243.57C177.28+242.087+171.315+239.506+165.968+235.829C160.62+232.149+156.084+227.487+152.358+221.841C148.63+216.195+146.132+209.834+144.863+202.761C143.628+195.878+143.704+189.153+145.092+182.589C146.479+176.024+148.941+170.083+152.475+164.761C156.01+159.439+160.529+154.928+166.032+151.228C171.535+147.525+177.728+145.057+184.611+143.823C189.965+142.862+194.695+142.556+198.805+142.903C202.912+143.252+206.424+143.856+209.341+144.713C212.77+145.677+215.7+146.878+218.129+148.317L205.203+176.094Z" fill-rule="evenodd" fill="#000000" opacity="1"/>
<path d="M308.051+225.282C302.028+226.362+296.442+226.576+291.291+225.92C286.142+225.266+281.572+223.718+277.581+221.277C273.59+218.835+270.244+215.44+267.539+211.089C264.833+206.74+262.915+201.409+261.782+195.101L250.873+134.301L281.416+128.82L292.095+188.329C292.695+191.676+293.848+194.108+295.55+195.628C297.254+197.147+299.731+197.616+302.982+197.033C306.233+196.449+308.391+195.149+309.461+193.132C310.529+191.114+310.763+188.433+310.163+185.087L299.484+125.578L330.171+120.071L341.082+180.87C342.213+187.181+342.267+192.845+341.245+197.863C340.22+202.882+338.238+207.234+335.298+210.919C332.358+214.605+328.587+217.649+323.986+220.054C319.386+222.458+314.074+224.201+308.051+225.282Z" fill-rule="evenodd" fill="#000000" opacity="1"/>
<path d="M352.715+116.026L409.07+105.913L413.574+131.007L387.761+135.639L389.665+146.25L415.048+141.696L419.318+165.501L393.937+170.054L395.918+181.096L422.733+176.284L427.237+201.378L369.878+211.67L352.715+116.026Z" fill-rule="evenodd" fill="#000000" opacity="1"/>
<path d="M440.87+168.293C443.092+168.586+445.386+168.716+447.749+168.687C449.747+168.821+451.991+168.814+454.48+168.663C456.968+168.513+459.456+168.214+461.942+167.769C466.339+166.979+468.246+164.959+467.663+161.71C467.44+160.467+466.544+159.32+464.974+158.269C463.404+157.219+461.449+156.089+459.111+154.881C456.773+153.673+454.26+152.323+451.575+150.83C448.89+149.339+446.297+147.535+443.795+145.419C441.294+143.302+439.096+140.81+437.199+137.943C435.304+135.076+433.995+131.636+433.276+127.621C432.469+123.127+432.57+119.014+433.577+115.282C434.585+111.548+436.316+108.277+438.773+105.468C441.23+102.658+444.286+100.31+447.943+98.4205C451.601+96.5294+455.628+95.1911+460.025+94.4012C462.32+93.9899+464.635+93.6971+466.972+93.5243C469.31+93.3528+471.404+93.1986+473.255+93.0643C475.409+92.9729+477.516+92.8915+479.575+92.8172L484.387+119.632C483.605+119.675+482.728+119.734+481.753+119.809C480.972+119.851+480.095+119.909+479.121+119.985C478.148+120.062+477.136+120.193+476.085+120.382C475.51+120.485+474.798+120.638+473.946+120.84C473.095+121.042+472.304+121.308+471.573+121.636C470.843+121.965+470.233+122.419+469.746+123C469.257+123.581+469.092+124.301+469.246+125.163C469.383+125.927+470.2+126.766+471.695+127.682C473.192+128.598+475.01+129.653+477.149+130.849C479.287+132.044+481.659+133.444+484.267+135.048C486.874+136.652+489.341+138.577+491.667+140.824C493.995+143.071+496.095+145.704+497.969+148.722C499.843+151.742+501.14+155.258+501.861+159.273C502.615+163.479+502.654+167.543+501.977+171.464C501.298+175.384+499.794+178.959+497.462+182.19C495.131+185.421+491.909+188.219+487.794+190.586C483.679+192.952+478.611+194.676+472.588+195.756C468.956+196.409+465.555+196.846+462.389+197.069C459.222+197.292+456.401+197.379+453.925+197.33C451.066+197.349+448.43+197.23+446.016+196.973L440.87+168.293Z" fill-rule="evenodd" fill="#000000" opacity="1"/>
<path d="M518.335+154.393C520.557+154.684+522.851+154.815+525.214+154.787C527.212+154.921+529.456+154.914+531.944+154.763C534.433+154.613+536.922+154.314+539.407+153.868C543.804+153.079+545.711+151.059+545.129+147.808C544.904+146.566+544.009+145.42+542.439+144.369C540.868+143.319+538.914+142.189+536.576+140.981C534.238+139.773+531.725+138.421+529.04+136.93C526.355+135.439+523.763+133.634+521.26+131.518C518.759+129.402+516.561+126.909+514.664+124.043C512.769+121.176+511.461+117.735+510.741+113.72C509.934+109.227+510.035+105.113+511.042+101.38C512.051+97.6477+513.782+94.3769+516.238+91.5675C518.694+88.758+521.752+86.4084+525.408+84.5188C529.066+82.6292+533.092+81.2894+537.49+80.501C539.785+80.0897+542.101+79.7969+544.437+79.624C546.775+79.4512+548.869+79.2984+550.719+79.1627C552.874+79.0727+554.981+78.9913+557.041+78.917L561.851+105.732C561.07+105.773+560.193+105.833+559.219+105.909C558.437+105.95+557.559+106.009+556.586+106.085C555.614+106.16+554.601+106.293+553.55+106.482C552.976+106.585+552.263+106.737+551.412+106.94C550.559+107.142+549.769+107.407+549.038+107.736C548.308+108.064+547.698+108.519+547.211+109.1C546.723+109.681+546.555+110.401+546.711+111.261C546.848+112.026+547.665+112.866+549.161+113.782C550.658+114.697+552.474+115.753+554.614+116.948C556.752+118.142+559.124+119.542+561.731+121.148C564.338+122.752+566.806+124.677+569.133+126.924C571.461+129.17+573.56+131.803+575.434+134.822C577.308+137.84+578.605+141.358+579.326+145.373C580.08+149.579+580.119+153.643+579.441+157.563C578.764+161.484+577.258+165.059+574.927+168.29C572.596+171.521+569.374+174.319+565.259+176.686C561.144+179.052+556.076+180.775+550.053+181.856C546.421+182.507+543.02+182.946+539.854+183.169C536.687+183.391+533.865+183.479+531.39+183.429C528.532+183.449+525.895+183.33+523.481+183.071L518.335+154.393Z" fill-rule="evenodd" fill="#000000" opacity="1"/>
<path d="M162.848+335.984L195.255+330.169L212.293+361.599L217.338+326.206L238.274+322.449L255.311+353.879L260.357+318.487L292.765+312.671L278.381+413.978L254.577+418.25L239.772+391.008L235.362+421.697L211.558+425.968L162.848+335.984Z" fill-rule="evenodd" fill="#000000" opacity="1"/>
<path d="M307.852+309.964L338.396+304.483L344.237+337.034L361.302+333.973L355.46+301.422L386.147+295.914L403.31+391.56L372.623+397.066L366.268+361.647L349.203+364.71L355.559+400.129L325.016+405.609L307.852+309.964Z" fill-rule="evenodd" fill="#000000" opacity="1"/>
<path d="M415.565+340.073C414.331+333.19+414.478+326.453+416.009+319.863C417.54+313.272+420.168+307.301+423.894+301.945C427.621+296.588+432.307+292.048+437.953+288.32C443.599+284.594+449.865+282.113+456.748+280.877C463.631+279.643+470.367+279.79+476.957+281.321C483.547+282.852+489.521+285.481+494.875+289.207C500.231+292.933+504.773+297.62+508.5+303.266C512.226+308.913+514.707+315.178+515.943+322.061C517.178+328.944+517.03+335.68+515.498+342.27C513.967+348.86+511.339+354.833+507.613+360.188C503.886+365.544+499.2+370.086+493.554+373.812C487.908+377.539+481.642+380.02+474.759+381.255C467.876+382.491+461.14+382.342+454.55+380.811C447.96+379.28+441.987+376.652+436.632+372.925C431.276+369.199+426.735+364.513+423.007+358.867C419.281+353.221+416.8+346.956+415.565+340.073ZM445.679+334.668C446.176+337.441+447.169+339.952+448.658+342.201C450.147+344.449+451.962+346.319+454.104+347.81C456.247+349.3+458.632+350.352+461.257+350.967C463.884+351.581+466.583+351.639+469.356+351.142C472.128+350.644+474.639+349.651+476.889+348.161C479.137+346.673+481.006+344.858+482.498+342.715C483.987+340.573+485.04+338.189+485.654+335.562C486.268+332.936+486.327+330.236+485.83+327.464C485.331+324.692+484.339+322.181+482.849+319.933C481.361+317.683+479.545+315.813+477.403+314.322C475.26+312.832+472.875+311.78+470.25+311.166C467.623+310.551+464.924+310.493+462.151+310.991C459.379+311.488+456.868+312.481+454.619+313.971C452.37+315.459+450.501+317.276+449.01+319.417C447.52+321.559+446.467+323.945+445.853+326.571C445.239+329.197+445.18+331.896+445.679+334.668Z" fill-rule="evenodd" fill="#000000" opacity="1"/>
<path d="M582.886+330.178C582.079+325.684+582.049+321.669+582.796+318.131C583.543+314.592+584.505+311.434+585.684+308.658C586.863+305.881+587.942+303.369+588.92+301.12C589.899+298.872+590.207+296.746+589.847+294.737C589.521+292.921+588.877+291.532+587.915+290.57C586.953+289.607+585.795+288.927+584.441+288.529C583.086+288.13+581.556+287.986+579.848+288.094C578.141+288.204+576.378+288.421+574.563+288.747L571.551+289.287L566.766+262.616C568.434+262.021+569.897+261.511+571.154+261.088C572.41+260.665+573.555+260.312+574.59+260.028C575.624+259.744+576.638+259.487+577.634+259.26C578.629+259.031+579.796+258.797+581.135+258.557C586.583+257.58+591.631+257.389+596.277+257.986C600.924+258.583+605.031+259.894+608.602+261.918C612.172+263.94+615.144+266.614+617.516+269.939C619.889+273.263+621.47+277.124+622.258+281.521C623.014+285.728+622.858+289.677+621.794+293.37C620.731+297.065+619.477+300.669+618.036+304.184C616.595+307.699+615.312+311.137+614.188+314.496C613.064+317.856+612.811+321.255+613.428+324.697L582.886+330.178ZM583.657+334.48L614.344+328.974L618.642+352.921L587.955+358.427L583.657+334.48Z" fill-rule="evenodd" fill="#000000" opacity="1"/>
</g>
<path d="M58.9616+393.239C64.032+398.354+67.5857+406.772+71.6777+412.785C79.3534+424.068+87.9832+434.608+95.6817+445.772C104.814+459.017+117.715+469.386+128.331+481.34C134.514+488.301+139.612+496.108+146.234+502.731C156.095+512.592+166.24+523.214+177.598+531.443C184.521+536.458+191.699+540.277+199.046+544.403C202.861+546.547+206.111+550.062+210.003+552.305C227.864+562.597+246.447+570.378+265.397+578.257C270.258+580.278+276.4+580.699+280.954+582.976C285.464+585.23+290.429+588.092+294.995+589.606C295.729+589.849+301.682+593.478+302.621+592.524C303.436+591.696+295.495+580.072+295.174+579.542C290.867+572.412+287.028+565.038+282.658+557.936C279.601+552.969+275.752+548.447+273.119+543.201C266.101+529.212+258.035+515.402+250.681+501.517C247.417+495.354+241.66+488.954+239.087+483.808C237.445+480.523+218.54+470.316+215.742+468.719C211.997+466.584+208.115+464.696+204.331+462.629C186.34+452.809+167.242+444.895+149.443+434.734C135.743+426.913+122.612+417.869+108.529+410.827" fill-rule="evenodd" fill="#ffffff" opacity="1"/>
</g>
</svg>
