<?xml version="1.0" encoding="utf-8"?><!-- Uploaded to: SVG Repo, www.svgrepo.com, Generator: SVG Repo Mixer Tools -->
<svg width="800px" height="800px" viewBox="0 0 24 24" fill="none" xmlns="http://www.w3.org/2000/svg">
<path fill-rule="evenodd" clip-rule="evenodd" d="M5.60439 4.23093C4.94586 3.73136 4 4.20105 4 5.02762V18.9724C4 19.799 4.94586 20.2686 5.60439 19.7691L14.7952 12.7967C15.3227 12.3965 15.3227 11.6035 14.7952 11.2033L5.60439 4.23093ZM2 5.02762C2 2.54789 4.83758 1.13883 6.81316 2.63755L16.004 9.60993C17.5865 10.8104 17.5865 13.1896 16.004 14.3901L6.81316 21.3625C4.83758 22.8612 2 21.4521 2 18.9724V5.02762Z" fill="#0F0F0F"/>
<path d="M20 3C20 2.44772 20.4477 2 21 2C21.5523 2 22 2.44772 22 3V21C22 21.5523 21.5523 22 21 22C20.4477 22 20 21.5523 20 21V3Z" fill="#0F0F0F"/>
</svg>