<svg xmlns="http://www.w3.org/2000/svg" viewBox="0 0 125 124.47"><title>Artboard 54</title><g id="Person_21" data-name="Person 21"><path d="M35.62,86.8s1,7.13,4.7,11.35,9.08,6.68,20.91,6.68,18.14-4.09,19.92-5.93,6-8.33,8.14-12.48" fill="none" stroke="#000" stroke-miterlimit="10" stroke-width="0.75"/><g id="hat_copy_4" data-name="hat copy 4"><g id="neck"><rect x="43.02" y="60.12" width="39.87" height="27.08" fill="#1e4918" stroke="#000" stroke-miterlimit="10" stroke-width="0.75"/><path d="M52.08,72.41s-.49,6.38-1.49,8.71-12.74,5-12.74,5-1.48,1.44-.75,2.78,16.2,16,26.39,15.4,25-14.39,26.56-15.4.64-1.74.64-1.74-13.86-2.79-15.27-5.28-1.16-9.76-1.16-9.76Z" fill="#d19a75" stroke="#020202" stroke-miterlimit="10" stroke-width="0.75"/></g><path id="head-3" data-name="head" d="M42.47,55.7s2.9,11.93,8,16.88c5.28,5.09,7.94,7.91,14,7.91s11.3-8.93,14.42-15.67,4.38-13,3.94-16.49S76.92,22.91,62,22.88C42.85,22.83,41.36,45.6,42.47,55.7Z" fill="#d19a75" stroke="#020202" stroke-miterlimit="10" stroke-width="0.75"/><path id="nose-4" data-name="nose" d="M65.13,54.25c.59,1.42,3.44,2.82,2.3,4.59-.85,1.32-5.16,2-5.18,0" fill="none" stroke="#000" stroke-miterlimit="10" stroke-width="0.75"/></g><path id="shirt-3" data-name="shirt" d="M5.47,124.71c.61-6.8,1.81-13.41,2.58-18.08S9,100,11.48,96s6.61-5.28,11-6.13c4.64-.91,6.63-2,11.28-2.63a35.64,35.64,0,0,0,7.74-2.55c.94-.42.34,7.57,7.77,11.31a28.19,28.19,0,0,0,27.31-1.78c3.4-2.26,4.7-5.89,6.9-9.53,3.34.65,7.06.69,10.27,1.76,5.54,1.83,17.34,3.8,19.63,10.66,2.66,8,3.55,18.35,3.83,27.79" fill="#3caa33" stroke="#000" stroke-miterlimit="10" stroke-width="0.75"/><path d="M95.77,86.15a8.76,8.76,0,0,0-2.42-1.22c-.4-1.26-.61-2.87-2-3.65-.24-.13-2.31-.37-2.41-.79,0,0,.81-1.28,1.07-1.79a3.9,3.9,0,0,0-.55-3.82c-.77-.86-2.27-1.48-2.17-2.79a168.06,168.06,0,0,0-1.9-38.6,27.69,27.69,0,0,0-1.89-7.17c-3.14-6.81-8-14.56-21-14.35s-22.08,9.24-23.73,21.5c-1.2,9-.64,18.07-.23,27.09a56,56,0,0,1-1.29,15.28c-.46,1.93-1.73,4-1.28,5.94.41,1.71,2.51,2.77,2.85,4.52a.73.73,0,0,1-.05.52c-.62,1,.4,13.28,4.72,20.44s9.71,15.21,18.54,15.42c11.11.25,20-9.57,26.42-17.44C92,101,95.82,97,96.83,91.31,97.11,89.71,97,87.52,95.77,86.15Zm-15-12.49c-1.37,9-10.81,13.12-20,12.59-4.13-.24-8.79-.83-11-4.73a34.87,34.87,0,0,1-4.42-16.06c-.15-8.17-1.26-26.65,2.07-31.15S59,24.84,63,25.11s15.5,6.81,15.36,13.25C78.15,47.93,81.2,70.66,80.75,73.66Z" fill="#3caa33" stroke="#000" stroke-miterlimit="10" stroke-width="0.75"/><path d="M57.54,34.09s-2.24-2.49-3.79.33-2.12,4.15-2.12,4.15" fill="none" stroke="#231f20" stroke-miterlimit="10" stroke-width="0.75"/><path d="M70.35,34.52s1.52-1.66,3.25.56a13.76,13.76,0,0,1,2.29,4.22" fill="none" stroke="#231f20" stroke-miterlimit="10" stroke-width="0.75"/><path d="M59.24,45.44a13.41,13.41,0,0,1-1.31,4c-2,2.83-5.33,4.3-8.64,2.64-2.29-1.15-3.85-3.83-4.58-6.21-1.12-3.71-.56-5,.34-5.26a17.18,17.18,0,0,1,6-.58c2.62.28,5.53,1,6.71,2.14S59.53,44.15,59.24,45.44Z" fill="#231f20" stroke="#231f20" stroke-miterlimit="10" stroke-width="0.75"/><path d="M65.46,45.46a13.3,13.3,0,0,0,1.3,4c.81,1.14,2.18,3,4.46,3.3a6.59,6.59,0,0,0,4.16-.62A11.18,11.18,0,0,0,80,45.92c1.15-3.71.59-5-.31-5.26a17,17,0,0,0-6-.61c-2.62.27-5.54,1-6.72,2.11S65.18,44.16,65.46,45.46Z" fill="#231f20" stroke="#231f20" stroke-miterlimit="10" stroke-width="0.75"/><path d="M64,42.36a18.5,18.5,0,0,1-3.09,0c-.47-.18-3.77-3.23-5.22-3.75A22.9,22.9,0,0,0,48,37.48c-2.28.25-5.46,1-5.89,2.42s.08,4.82,1.18,7.66,2.35,4.55,4.93,5.67,4.85,1.34,6.56.53a9.18,9.18,0,0,0,4.78-5.27c.77-2.4,2-3.26,2.75-3.25a2.68,2.68,0,0,1,2.49,2.54c.34,2.22,3,6.18,6.51,6.32,6.13.24,10.33-4.07,11.44-9.94.61-3.21.44-4.67-.68-5.45S77,37,73.9,37.49,65.87,39,64,42.36Z" fill="#231f20" stroke="#231f20" stroke-miterlimit="10" stroke-width="0.75"/><path d="M59.45,44.61a13.76,13.76,0,0,1-1.37,4.13c-2.12,2.95-5.55,4.49-9,2.76-2.39-1.2-4-4-4.77-6.48-1.18-3.87-.59-5.23.35-5.48a18.15,18.15,0,0,1,6.26-.61c2.73.3,5.77,1.07,7,2.23S59.75,43.26,59.45,44.61Z" fill="#3d3d3d" stroke="#231f20" stroke-miterlimit="10" stroke-width="0.75"/><path d="M65.93,44.62a13.68,13.68,0,0,0,1.36,4.14c.85,1.19,2.27,3.17,4.64,3.44a6.92,6.92,0,0,0,4.34-.64,11.66,11.66,0,0,0,4.8-6.45c1.2-3.87.62-5.24-.32-5.48A17.9,17.9,0,0,0,74.49,39c-2.73.29-5.77,1-7,2.2S65.64,43.27,65.93,44.62Z" fill="#3d3d3d" stroke="#231f20" stroke-miterlimit="10" stroke-width="0.75"/><path d="M39,86.46s10.41,14.53,22,12.23,20.14-9.81,27.86-18.2" fill="none" stroke="#000" stroke-miterlimit="10" stroke-width="0.75"/><path d="M38.46,85.37A72.32,72.32,0,0,0,46.1,99.55a52.83,52.83,0,0,0,5.18,5.81c1.91,1.93,3.8,4,6.31,5.18,6.45,3,13.15-1.29,17.93-5.43C81,100.36,86.78,94.87,91.07,89a14.67,14.67,0,0,0,2.28-4.11" fill="none" stroke="#000" stroke-miterlimit="10" stroke-width="0.75"/><path d="M58.32,71.34C61,72.09,64.63,69,65,67.71s-5-.62-7.69-1.37-4.05-4.09-4.42-2.77S55.66,70.59,58.32,71.34Z" fill="#fff" stroke="#020202" stroke-miterlimit="10" stroke-width="0.75"/></g></svg>