<?xml version="1.0" encoding="utf-8"?>
<!-- Generator: Adobe Illustrator 24.0.3, SVG Export Plug-In . SVG Version: 6.00 Build 0)  -->
<svg version="1.1" id="Layer_1" xmlns="http://www.w3.org/2000/svg" xmlns:xlink="http://www.w3.org/1999/xlink" x="0px" y="0px"
	 viewBox="0 0 125 125" style="enable-background:new 0 0 125 125;" xml:space="preserve">
<style type="text/css">
	.st0{fill:#FCE7D4;stroke:#020202;stroke-width:0.75;stroke-miterlimit:10;}
	.st1{fill:#F44711;}
	.st2{fill:#3CAA33;stroke:#000000;stroke-width:0.75;stroke-miterlimit:10;}
	.st3{fill:#020202;stroke:#FFFFFF;stroke-width:0.75;stroke-miterlimit:10;}
	.st4{fill:none;stroke:#000000;stroke-width:0.75;stroke-miterlimit:10;}
	.st5{fill:#F99A12;stroke:#000000;stroke-width:0.75;stroke-miterlimit:10;}
	.st6{fill:#202133;stroke:#000000;stroke-width:0.75;stroke-miterlimit:10;}
	.st7{fill:#E0BE2F;stroke:#020202;stroke-width:0.75;stroke-miterlimit:10;}
	.st8{fill:#7F500B;stroke:#020202;stroke-width:0.75;stroke-miterlimit:10;}
	.st9{fill:#FFFFFF;}
	.st10{fill:#020202;stroke:#020202;stroke-width:0.75;stroke-miterlimit:10;}
	.st11{fill:none;stroke:#020202;stroke-width:0.75;stroke-miterlimit:10;}
	.st12{fill:#0096FF;stroke:#020202;stroke-width:0.75;stroke-miterlimit:10;}
	.st13{fill:#F44711;stroke:#020202;stroke-width:0.75;stroke-miterlimit:10;}
</style>
<title>Artboard 9</title>
<g id="Person_6">
	<path id="neck" class="st0" d="M77.1,82.3c0,0-0.9-1-0.9-1.6V74L50,75.3c0,0,0.3,8-0.3,8.7c0,0-6.1,1.6-5.2,3.5
		c1.9,4,10.2,9.5,15.9,9.9c7.4,0.5,12.9-0.1,17.3-3C80.5,92.5,81,84,77.1,82.3z"/>
	<path id="face-2" class="st0" d="M80.9,56.9c0,0-0.5,9.3-0.7,10c-0.3,1.3-0.8,2.5-1.5,3.6c-1.7,2.7-3.5,5.2-5.6,7.6
		c-1,1-3.1,4.2-4.3,4.5c-1.9,0.5-3.9,0.9-5.9,1c-1.3-0.1-5.8-0.7-6.8-1.3s-4.4-4.7-7.2-8.4s-4.3-6.8-4.5-7.8
		c-0.2-1.5-0.3-2.9-0.3-4.4l-0.5,0.1c0,0-0.1,1-0.9,1.1c-1.2,0.2-1.9-1.4-2.2-2.3c-0.5-1.5-0.3-3.2-0.8-4.8s-3.1-6.9-1.1-8.3
		c1.8-1.2,3.3,0.5,3.9,2.1c0.2,0.5,0.3,1.1,0.4,1.7l0.3-0.1c0,0,0-3,0-5.1c0.1-3.9-1.1-8.3,0.4-12.1c4.8-12.5,9.4-13,20.6-13.3
		c10-0.3,15.6,7.8,16.3,11.5c0.7,3,1,6,0.9,9c-0.2,2.8-0.5,9.6-0.5,9.6l0.3,0.1c0.4-1.1,0.8-2.3,1.3-3.3c0.4-0.9,1.4-1.3,2.3-1
		c0.9,0.4,1.3,1.4,1,2.3c-0.3,1.1-0.8,4.2-1,5.4c-0.1,0.9-0.1,1.8,0,2.8c0,0.8-0.4,3.7-1.6,3.7C82.3,60.7,80.5,60.7,80.9,56.9z"/>
	<g id="hair_copy">
		<rect x="48.1" y="101.4" class="st1" width="31" height="5.2"/>
		<rect x="48.1" y="113.1" class="st1" width="31" height="5.2"/>
	</g>
	<g id="parrot">
		<path class="st2" d="M107,70.4c0,0-6.7-4.1-7.5-5c-2.3-2.6-7.9-1.5-9.2,0.1s-1.1,4.4-0.9,4.9s4.4,3.8,6.2,4.2s2.5-0.3,2.6,0.8
			s-0.9,2.8-0.6,4.5s-0.9,2.4,0.6,4.1c1.3,1.7,2.3,3.7,3.1,5.7c0.4,0.9,2.6,1.3,4.1,1.7s1.6,7.1,1.7,11.9s-0.1,5.7,1.3,10
			s1.7,3.4,0.3,6.3s-0.6,4,0.1,4.5s0.5,0.8,2.6-1.5s1.2-4.9,1.6-8.4s0.8-7.1,0.8-7.1l1.4,3c0,0,2.2-25.6,2.4-28s-2.8-8.7-4.8-11
			S107,70.4,107,70.4z"/>
		<path class="st3" d="M95.5,67.8c0,0.8-1.5,1.3-1.9,1.3s-0.5-0.3-0.5-1.2s0.9-2,1.3-2S95.5,67,95.5,67.8z"/>
		<path class="st4" d="M106.9,70.6c-0.9,2.9-0.9,6,0,8.9c1,3.3,2.4,6.5,4.1,9.5"/>
	</g>
	<path id="parrot_beak" class="st5" d="M88.9,71.5c0.6-0.7,1.6-1,2.5-0.8c1.4,0.3,4.6,1.1,5,1.9s1.4,2.2,0,2.2s-3.8-0.9-3.9,0.5
		s1.6,2.8,0.5,2.6c-1,0-2-0.6-2.4-1.5C90,75.2,88.3,73.6,88.9,71.5z"/>
	<path class="st6" d="M122.6,125c0,0-0.6-6.4-2-13.6c-2.6-9.6-3.5-14.6-9.9-17.8c-6.8-3.4-21.8-6.9-28.2-8.3c-1.1-1.9-4.8-4-4.3-1.8
		c0.6,2.5,0.8,4.2-0.7,5.5c-1.3,1.4-2.9,2.4-4.7,3c-2.1,0.6-0.9,8-0.9,8l0,0c-0.6,0.2-1.3,0.4-2,0.4h-2.2l0.2,25"/>
	<path class="st6" d="M57.3,125l0.1-24.5h-2.3c-0.5,0-1.1-0.1-1.6-0.3c0.1,0,0.1-0.1,0.1-0.2c0,0,1.1-7.4-0.9-8
		c-1.8-0.6-3.4-1.6-4.7-3c-1.5-1.3-2.2-3-1.6-5.5c0.5-2.2-2.4-0.2-3.4,1.6c-6,1.3-21.8,4.9-28.8,8.4c-6.4,3.2-7.3,8.2-9.9,17.8
		c-2,9-2.2,13.6-2.2,13.6"/>
	<path id="parrot_foot" class="st5" d="M103.9,90.7c-1.3-0.3-2.1-1.5-3.4-0.7c-1.1,0.7-2,1.7-2.7,2.8c-0.5,0.8-0.8,1.7-1,2.6
		c-0.2,0.8-0.1,1.7,0.2,2.5c0.3,0.3,0.9-2.4,1.7-3.2c0.5-0.6,1.4-1.5,2.4-1.2c-0.1,0.4-0.3,0.8-0.5,1.1c-0.1,0.5-0.2,1-0.2,1.5
		c0.1,1.2,0.7,2.3,1.7,3c0.3,0.2,0.6,0.4,1,0.4s0.8-0.3,1-0.7c-0.8,0-1.1-0.6-1.4-1.4c-0.3-0.7-0.3-1.6,0.1-2.3
		c0.3-0.7,0.7-1.3,1.3-1.8c0.7-0.5,1.6-0.8,2.3-1.3c-0.4-0.2-0.8-0.4-1.2-0.6c-0.4-0.2-0.7-0.3-1.1-0.4L103.9,90.7z"/>
	<circle class="st7" cx="83.2" cy="105.8" r="3.3"/>
	<circle class="st7" cx="83.2" cy="118.6" r="3.3"/>
	<circle class="st7" cx="37.7" cy="105.8" r="3.3"/>
	<circle class="st7" cx="37.7" cy="118.6" r="3.3"/>
	<path id="beard-3" class="st8" d="M74.5,60c1.7,0.6,3.3,1.5,4.9,2.4c1,0.6,3,2.1,2.4,3.5c-0.2,0.5-0.4,1-0.4,1
		c0.5,0.8,1,1.6,1.6,2.3c1,1.3,1.4,2.9,1.3,4.6c-0.1,0.9-0.8,1.7-1.7,1.8c-0.4-0.1-0.8-0.2-1.3-0.3c0.5,0.2,0.1,1.8,0.1,2.1
		c-0.5,2-1.3,4.9-3.9,4.5c-0.6,1.6-1.2,3.1-2,4.5c-1,1.3-2.7,1.8-4,0.7c0.1,0.1-1,1.7-1.1,1.9c-0.5,0.7-1.1,1.2-1.8,1.5
		c-1.8,0.8-3.6-0.9-4.9-1.9c-0.7,0.6-1.5,1.1-2.3,1.6c-2.4,1-4.4,0.1-5.4-2.1c0,0-1.1,1.1-1.9,1.1c-1.5-0.2-2.9-1-3.8-2.2
		c-0.5-0.8-0.9-1.7-1.2-2.7c-0.6,0.6-1.2,1-1.9,0.6C46,84.1,45,83,44.4,81.6c-0.2-0.3-0.9-3.2-0.5-3.4c0,0-1.1,0.4-1.7-0.1
		c-1.1-1-1.1-4.7-0.5-5.9c0.8-1.3,1.6-2.6,2.6-3.8c0-0.1-0.5-1.3-0.5-1.4c-0.4-2.1,1.2-3.4,2.7-4.5c1.6-1.3,3.4-2.2,5.4-2.7
		c2.8-0.6,6.7-1.4,6.7-1.4l0.6,2.2c0,0-4.3,1.4-6.1,3.1s-3.7,3.9-3.6,6.6s-0.1,4.5,2.2,5.2s6.4,1.8,7.8,0.8s2.8-2.2,2.8-2.2l3,0.2
		c0.8,1.3,2.3,2.1,3.8,2.1c2.5-0.2,6.1-0.4,6.2-3.6s-0.1-6.4-1.4-7.5S68,61.4,68,61.4l1.5-3c0.1-0.5,4.3,1.3,4.7,1.5L74.5,60z"/>
	<path id="nose-4" class="st0" d="M63.1,54.8c0,0,1.3,2.4,2.4,2.7s4.7,0,4.6,2S67.6,64,65.3,64c-1.6,0-3.1-0.4-4.5-1.2
		c-1.3-0.8-3.8-4.1-2.5-5.6"/>
	<g id="mouth-2">
		<path class="st9" d="M67.3,71.5c-0.8,0-1.5-0.1-2.3-0.4c-0.8-0.5-1.4-1.3-1.7-2.1c-0.2-0.4-0.4-0.8-0.7-1.1l3.6-1.5
			c0.6-0.3,1.2-0.5,1.9-0.5c1.1,0,2,0.4,2.1,1.1c0,0.2,0.1,0.5,0.2,0.8c0.4,0.9,0.4,1.9,0,2.8C69.9,71.1,68.7,71.5,67.3,71.5
			L67.3,71.5z"/>
		<path d="M68.1,66.2c0.9,0,1.6,0.3,1.7,0.8c0,0.2,0.1,0.5,0.2,0.8c0.3,0.8,0.4,1.7,0.1,2.5c-0.7,0.7-1.7,1-2.7,0.9
			c-0.7,0-1.4-0.1-2.1-0.3c-0.6-0.3-1.1-1.1-1.5-2c-0.2-0.3-0.3-0.5-0.5-0.8l3.2-1.4l0,0l0,0C66.8,66.4,67.4,66.2,68.1,66.2
			 M68,65.5c-0.7,0-1.4,0.2-2,0.5l-4,1.7c0.9,1.1,1.5,3.2,2.8,3.8c0.8,0.3,1.6,0.4,2.4,0.4c1.4,0,2.8-0.3,3.4-1.2
			c0.7-1.1,0.1-2.7-0.1-3.8C70.3,66,69.2,65.5,68,65.5L68,65.5z"/>
		<path class="st4" d="M55.2,67.5c0,0,1.4,1.7,3,1.7c1.5-0.2,2.9-0.6,4.2-1.3"/>
	</g>
	<g id="eyes-3">
		<path class="st10" d="M60.7,46.6c0,3.1-3.5,6.9-6.6,6.9s-6.8-3.3-6.8-6.4s4.1-4.2,7.2-4.2S60.7,43.5,60.7,46.6z"/>
		<path class="st11" d="M43.2,49.4c0,0,9.5-1.1,13.8-3.2s18.8-15,21.8-17.7"/>
		<path class="st11" d="M62.6,44.5c0,0,4,2.1,5.8-1.2s4.6-6.2,6.4-5.5s1.8,3.7,1.8,3.7"/>
		<path id="Eye" class="st12" d="M73.5,46.7c0,1.5-0.6,2.7-1.3,2.7S71,48.2,71,46.7s0-2.7,1.3-2.7C73.1,44,73.5,45.2,73.5,46.7z"/>
		<path id="undereye" class="st11" d="M68.6,51.2c0.9,0.7,1.9,1.1,3,1.3c1-0.1,2-0.7,2.5-1.6"/>
	</g>
	<g id="bandana">
		<path class="st13" d="M42.6,29.4c0,0-14.4,4.1-15.2,9.9s-1.2,10.9-1.2,10.9c4.6-1.5,8.8-4.3,11.9-8C41.2,38.7,42.8,34.1,42.6,29.4
			z"/>
		<path class="st13" d="M41.4,29.7c0,0-13.2,9.9-12.3,15.7c0.6,3.3,0.8,6.7,0.7,10.1c0,0,7.7-4.7,11-12.2C42.7,39,43,34.1,41.4,29.7
			z"/>
		<path class="st13" d="M41.6,38.6c0.4,0.3,0.8,0.3,1.3,0.2C55.6,36.9,67.3,35,80,33.1c0.3,0,0.7-0.1,0.9-0.4c0.3-0.5,0.4-1,0.3-1.5
			c-0.1-2.2-1.6-3.8-2.2-5.9c-1.4-6-6.5-10.5-12.6-11.2s-15,0.5-19.9,5.6c-1.9,2.2-3.3,4.7-4.1,7.5s-1.5,5.6-2,8.5
			c-0.1,0.7,0,1.4,0.4,2C40.9,37.7,41.6,38.6,41.6,38.6z"/>
	</g>
</g>
</svg>
