<?xml version="1.0" encoding="utf-8"?>
<!-- Generator: Adobe Illustrator 24.0.3, SVG Export Plug-In . SVG Version: 6.00 Build 0)  -->
<svg version="1.1" id="Layer_1" xmlns="http://www.w3.org/2000/svg" xmlns:xlink="http://www.w3.org/1999/xlink" x="0px" y="0px"
	 viewBox="0 0 125 125" style="enable-background:new 0 0 125 125;" xml:space="preserve">
<style type="text/css">
	.st0{fill:#FCE7D4;stroke:#020202;stroke-width:0.75;stroke-miterlimit:10;}
	.st1{fill:#286308;stroke:#020202;stroke-width:0.75;stroke-miterlimit:10;}
	.st2{opacity:0.72;}
	.st3{fill:#FFFFFF;}
	.st4{fill:none;stroke:#020202;stroke-width:0.75;stroke-miterlimit:10;}
	.st5{fill:#008E19;stroke:#020202;stroke-width:0.75;stroke-miterlimit:10;}
	.st6{fill:#F7DE48;stroke:#020202;stroke-width:0.75;stroke-miterlimit:10;}
	.st7{fill:#FFFFFF;stroke:#020202;stroke-width:0.75;stroke-miterlimit:10;}
</style>
<title>Artboard 25 copy 4</title>
<g id="Layer_138">
	<path id="neck-2" class="st0" d="M76.1,80.4c0,0-0.7-0.3-0.7-0.9v-6.7l-26,1.3c0,0,0.3,7.9-0.3,8.6c0,0-3.1,2.3-2.2,4.2
		c1.9,3.9,7.2,6.3,11.3,6.9c5,0.8,12.6,0,17-2.8C78.1,89.2,80,82.1,76.1,80.4z"/>
	<path id="face-2" class="st0" d="M80.1,55.9c0,0-0.5,9.2-0.7,9.9c-0.3,1.3-0.8,2.5-1.5,3.6c-1.7,2.6-3.5,5.1-5.5,7.5
		c-1,1-3.1,4.1-4.3,4.5c-1.9,0.5-3.9,0.8-5.9,0.9c-1.2-0.1-5.8-0.7-6.8-1.3s-4.4-4.6-7.2-8.4S44,65.9,43.8,65
		c-0.2-1.4-0.2-2.9-0.3-4.3L43,60.8c0,0-0.1,1-0.9,1.1C41,62,40.3,60.5,40,59.6c-0.5-1.5-0.3-3.2-0.8-4.8s-3.1-6.9-1.1-8.2
		c1.8-1.2,3.3,0.5,3.9,2.1c0.2,0.5,0.3,1.1,0.4,1.6l0.3-0.1c0,0,0-3,0-5.1c0.1-3.9-1.1-8.2,0.3-12c4.8-12.3,9.3-12.8,20.4-13.1
		c9.9-0.3,15.5,7.7,16.2,11.4c0.7,3,1,6,0.9,9c-0.2,2.7-0.5,9.5-0.5,9.5l0.3,0.1c0.4-1.1,0.8-2.2,1.3-3.3c0.4-0.9,1.4-1.2,2.3-0.8
		c0.8,0.4,1.1,1.3,0.9,2.1c-0.3,1.1-0.8,4.1-1,5.4c-0.1,0.9-0.1,1.8,0,2.7c0,0.8-0.4,3.7-1.6,3.7C81.5,59.6,79.7,59.7,80.1,55.9z"/>
	<path id="Sweater-4" class="st1" d="M2,125.5c0,0,0.3-1.1,1-4.5s5.2-15,7.6-18s6-4.5,8.5-5.7s27.1-14.1,27.1-14.1
		c4.8,3.2,10.3,4.9,16.1,5c9.3,0,17-5.6,17-5.6c0-0.7,19.6,11.7,25.3,14.3c5.4,2.5,9.8,6.6,12.6,11.8c2.4,4.5,5,16.4,5,16.4"/>
	<g class="st2">
		<polygon class="st3" points="51.5,125.2 45.8,125.2 45.4,84 45.7,83.8 49.3,98.9 51.5,96.5 		"/>
	</g>
	<path id="Collar-2" class="st1" d="M46.2,83.2c0.3-0.6,0.6-1.3,0.7-2c0.1-0.9,0.3-1.7,0.7-2.5c0.4-0.4,1.6-0.5,1.6-0.5
		s-1,1.5-0.5,2c1.2,1.1,2.5,2.1,3.9,3c1.6,0.9,8.4,4.4,9.1,4.8s-0.1,0.5-0.5,0.5s-3.5,0.4-4.5,1.5s-7.3,8.2-7.3,8.2
		S45.6,83.7,46.2,83.2z"/>
	<path id="collar-3" class="st1" d="M75.8,77.9c0,0,0.8-0.3,1,0.3s0.4,2,0.4,2.3c0.9,0.9,1.8,1.7,2.8,2.5l-3,14.4
		c0,0-6.6-4.8-9.1-6.2s-5.9-2.8-5.8-3s13-6.8,13.6-9.6c0-0.1,0-0.3,0-0.4L75.8,77.9z"/>
	<line class="st4" x1="58.7" y1="88.8" x2="58.7" y2="125.2"/>
	<line class="st4" x1="66.9" y1="90.3" x2="66.9" y2="125.2"/>
	<g id="button">
		<circle class="st3" cx="62.8" cy="103" r="1.6"/>
		<path d="M62.8,101.8c0.7,0,1.2,0.5,1.2,1.2s-0.5,1.2-1.2,1.2s-1.2-0.5-1.2-1.2S62.1,101.8,62.8,101.8 M62.8,101c-1.1,0-2,0.9-2,2
			s0.9,2,2,2s2-0.9,2-2S63.9,101,62.8,101z"/>
	</g>
	<g id="button-2">
		<circle class="st3" cx="62.8" cy="118.9" r="1.6"/>
		<path d="M62.8,117.7c0.7-0.1,1.3,0.4,1.3,1.1s-0.4,1.3-1.1,1.3c-0.1,0-0.1,0-0.2,0c-0.7-0.1-1.2-0.7-1.1-1.3
			C61.7,118.2,62.2,117.8,62.8,117.7 M62.8,117c-1.1,0-2,0.9-2,2s0.9,2,2,2s2-0.9,2-2S63.9,117,62.8,117z"/>
	</g>
	<path id="Eye" class="st5" d="M56.5,46.2c0,1.4-0.6,2.5-1.3,2.5S54,47.6,54,46.2s0-2.5,1.3-2.5C56.1,43.8,56.5,44.9,56.5,46.2z"/>
	<path id="Eye-2" class="st5" d="M72.7,45.8c0,1.5-0.6,2.7-1.3,2.7s-1.3-1.2-1.3-2.7s0-2.7,1.3-2.7C72.3,43.1,72.7,44.3,72.7,45.8z"
		/>
	<path class="st4" d="M64.3,49.6c0,0,2.1,8.1,2.2,8.8s1.2,3.4,0.8,3.8s-0.3,1.5-1.1,1.6c-0.9,0.1-1.9,0-2.8-0.1
		c-0.5-0.1-1-0.2-1.4-0.5c0,0-1.1,0.3-1.5,0.1c-0.4-0.3-0.7-0.8-0.7-1.3c0.2-0.5,0.5-1,0.9-1.4"/>
	<path class="st6" d="M80.1,25c-0.2,0-0.3,0-0.5,0c0.3,0.2,0.5-0.4,0.4-0.8c-1.6-4.9-6-8.7-10.9-10.4c-5.2-1.8-12.8-2.3-17.6,0.9
		c-4.5,3-7.9,7.3-9.8,12.4c-0.6,1.7-1,3.4-1.7,5c-0.7,1.7-1.9,3-3.4,3.9c-1.6,0.8-3.6,0.6-4.9-0.7c-1.1,3.1,0.5,6.6,3.7,7.6
		c1.2,0.4,2.6,0.5,3.8,0.1l0.2,3.1c1.5,0.6,2.6,1.8,3.2,3.3c1.1-1.9,0.8-4.4,1.7-6.5c0.8-1.7,2.6-3,2.7-4.9c0.2-2.8-3.3-5.2,3.2-8.8
		c0.1-0.1,0.3-0.1,0.5-0.1c2.2-0.1,4.1,1.3,6.1,2.4c3.3,1.8,7.1,2.4,10.7,1.9c3.7-0.6,7-2.6,9.3-5.6c-0.8,2.4-1,4.8-0.7,7.3
		c0.6,2.4,1.4,4.7,2.6,6.9c1,1.9,1.5,4,1.7,6.1c0,0.2,0.1,0.3,0.3,0.3c0.1,0,0.2-0.1,0.3-0.2c0.3-0.5,0.5-1.1,0.8-1.6
		c0.4-0.7,0.7-1.5,0.9-2.2C84,40,83.8,35.2,82,31c-0.1-0.2-0.2-0.5-0.2-0.8c0.1-0.7,1-1,1.6-0.6s1,0.9,1.2,1.6
		c0.8-2.3-0.4-4.9-2.7-5.7C81.2,25.1,80.6,25,80.1,25z"/>
	<path id="mouth-4" class="st7" d="M53.7,64.3c1,0.3,1.8,0.9,2.4,1.8c1.1,1.4,2.7,2.5,4.4,2.9c2.5,0.6,3.6,0.8,3.3,2.1
		s-2.1,1.7-3.3,2.2c-2,0.4-4.1,0.1-5.8-0.9c-1.2-0.8-2-2-2.2-3.4C51.9,67.2,52.2,63.6,53.7,64.3z"/>
	<g id="glasses-2">
		<path d="M83.2,39.4c-2.6-0.5-5.2-0.7-7.9-0.6c-2.8,0.2-9.2,2.3-10.3,2.6c-0.8,0.2-1.6,0.3-2.4,0.3c-1.1-0.1-2.2-0.3-3.2-0.7
			c-0.6-0.2-5.6-2.1-7.3-2.1c-2.5-0.2-5-0.2-7.5-0.1c-2.4,0.3-2.7,0.5-2.7,0.7l0.4,2.4c0.2,0.1,0.4,0.1,0.5,0.2
			c0.2,0.1,0.3,0.3,0.4,0.5c0.1,0.2,2.5,6,2.6,6.2c0.2,0.5,0.4,1,0.8,1.4c0.6,0.6,1.3,1,2.1,1.3c0.9,0.3,1.8,0.5,2.7,0.6
			c1.1,0.1,2.1,0,3.2-0.1c1.2-0.2,2.3-0.7,3.2-1.5s1.6-1.7,2.2-2.8c0.3-0.7,1.3-3,1.5-3.3c0.3-0.3,0.8-0.5,1.2-0.5
			c0.6,0,1.1,0.3,1.3,0.8c0.3,0.5,1.1,2.7,1.7,3.8c0.8,1.6,2.3,2.8,4,3.3c2,0.5,4,0.5,6-0.1c0.8-0.2,1.6-0.5,2.3-1
			c0.4-0.4,0.8-0.9,1.1-1.5c0.3-0.6,1.2-3.9,1.3-4.2c0.5-1,1-1.9,1.7-2.7c0.2-0.2,0.5-0.3,0.7-0.4l0.4-2.4
			C83.3,39.6,83.3,39.5,83.2,39.4z M58.3,47c-0.5,1.1-1.1,2.1-1.9,2.9c-1.3,0.8-2.8,1.2-4.3,1c-1.3,0-2.6-0.3-3.8-0.9
			c-0.8-0.4-1.2-1.4-1.6-2.4c-0.4-1.4-0.5-2.8-0.5-4.2c0,0,0-0.1,0-0.2c0-0.4,0.2-0.8,0.5-1.1c0.9-0.9,2.4-0.9,3.6-0.9
			c1.4-0.1,2.7,0,4.1,0.2c1.3,0.2,4.2,0.5,4.4,2.3C58.9,44.8,58.7,45.9,58.3,47z M78.3,47.5c-0.4,1-0.7,2.1-1.6,2.4
			c-1.2,0.6-2.5,0.9-3.8,0.9c-1.5,0.2-3-0.2-4.3-1c-0.8-0.8-1.4-1.8-1.9-2.9c-0.4-1-0.6-2.1-0.6-3.2c0.2-1.4,2-2,3.2-2.2
			c1.6-0.3,3.2-0.5,4.8-0.5c1.3,0,3,0,4.1,1c0.3,0.3,0.5,0.7,0.5,1.1c0,0,0,0.1,0,0.2C78.9,44.8,78.7,46.1,78.3,47.5L78.3,47.5z"/>
	</g>
	<g class="st2">
		<polygon class="st3" points="24.5,125.7 18.8,125.7 18.8,97.8 24.5,94.8 		"/>
	</g>
	<g class="st2">
		<polygon class="st3" points="38.1,125.2 32.5,125.2 32.5,90.8 38.1,87.8 		"/>
	</g>
	<g class="st2">
		<path class="st3" d="M58.4,102.2v5.7h-50c0.5-1.3,1.2-2.5,1.9-3.7c0.3-0.4,0.6-0.8,1-1.3c0.2-0.3,0.4-0.5,0.7-0.7H58.4z"/>
	</g>
	<g class="st2">
		<path class="st3" d="M58.3,114.2v5.7H3.6c0.3-1.1,0.7-2.2,1.1-3.3c0.2-0.5,0.4-1.2,0.6-1.7c0-0.1,0.2-0.7,0.3-0.7H58.3z"/>
	</g>
	<g class="st2">
		<polygon class="st3" points="74.1,125.1 79.7,125.1 80.7,83.7 80.4,83.6 77.4,98 74.1,95.7 		"/>
	</g>
	<g class="st2">
		<polygon class="st3" points="101.1,125.1 106.8,125.1 106.8,98.6 101.1,95.6 		"/>
	</g>
	<g class="st2">
		<polygon class="st3" points="87.4,125.1 93.1,125.1 93,91 87.4,87.6 		"/>
	</g>
	<g class="st2">
		<path class="st3" d="M67.2,102v5.7h48.7c-0.6-1.2-1.4-2.3-2.2-3.3c-0.4-0.5-1.2-1.2-1.6-1.7c0-0.1-0.7-0.7-0.7-0.7H67.2z"/>
	</g>
	<g class="st2">
		<path class="st3" d="M67.2,114v5.7l53.2,0.1c-0.3-1.1-0.4-2.2-0.8-3.3c-0.2-0.5-0.4-1.2-0.6-1.7c0-0.1-0.2-0.7-0.3-0.7L67.2,114z"
			/>
	</g>
</g>
</svg>
