<?xml version="1.0" encoding="utf-8"?>
<!-- Generator: Adobe Illustrator 24.0.3, SVG Export Plug-In . SVG Version: 6.00 Build 0)  -->
<svg version="1.1" id="Layer_1" xmlns="http://www.w3.org/2000/svg" xmlns:xlink="http://www.w3.org/1999/xlink" x="0px" y="0px"
	 viewBox="0 0 125 125" style="enable-background:new 0 0 125 125;" xml:space="preserve">
<style type="text/css">
	.st0{fill:#FCE7D4;stroke:#020202;stroke-width:0.75;stroke-miterlimit:10;}
	.st1{fill:#202133;stroke:#000000;stroke-width:0.75;stroke-miterlimit:10;}
	.st2{fill:#8E570E;stroke:#000000;stroke-width:0.75;stroke-miterlimit:10;}
	.st3{fill:none;stroke:#020202;stroke-width:0.75;stroke-miterlimit:10;}
	.st4{fill:none;stroke:#000000;stroke-width:0.75;stroke-miterlimit:10;}
	.st5{fill:#008E19;stroke:#020202;stroke-width:0.75;stroke-miterlimit:10;}
	.st6{opacity:0.7;}
</style>
<title>Artboard 2</title>
<g id="person_8">
	<g id="head_copy_3">
		<path id="neck" class="st0" d="M78.8,83.5c0,0-1.5-1.9-1.5-2.5s-0.4-12.3-0.4-12.3H46.8c0,0,0.3,12.6-0.3,13.3
			c-1.5,1.7-2.7,3.7-3.5,5.8c-1.6,4,3.8,8.7,6.5,9.9c5.6,2.4,13.6,2.4,19.6,0.9c4.5-1.1,8.6-3.6,11.7-7.2
			C82.6,89.1,83,85.8,78.8,83.5z"/>
		<path id="face-2" class="st0" d="M79.5,57c0,0-0.5,9-0.7,9.7c-0.3,1.2-0.8,2.4-1.4,3.5c-1.6,2.6-3.4,5-5.3,7.3c-0.9,1-3,4-4.2,4.3
			c-1.9,0.5-3.8,0.8-5.7,0.9c-1.2-0.1-5.6-0.7-6.6-1.2s-4.3-4.5-7-8.2s-4.2-6.6-4.4-7.5c-0.2-1.4-0.2-2.8-0.3-4.2l-0.5,0.1
			c0,0-0.1,0.9-0.9,1c-1.2,0.2-1.9-1.3-2.2-2.2c-0.5-1.5-0.3-3.1-0.8-4.6s-3-6.7-1-8c1.7-1.2,3.2,0.5,3.8,2c0.2,0.5,0.3,1.1,0.4,1.6
			l0.3-0.1c0,0,0-2.9,0-4.9c0.1-3.8-1.1-8,0.3-11.7c4.7-12.1,9.1-12.5,19.9-12.9c9.6-0.3,15,7.6,15.7,11.1c0.7,2.9,0.9,5.8,0.9,8.8
			c-0.1,2.7-0.5,9.3-0.5,9.3l0.3,0.1c0.4-1.1,0.8-2.2,1.3-3.2c0.4-0.8,1.4-1.2,2.2-0.8c0.8,0.4,1.1,1.2,0.9,2c-0.3,1-0.8,4-1,5.2
			c-0.1,0.9-0.1,1.8,0,2.7c0,0.8-0.3,3.6-1.5,3.6C80.9,60.6,79.1,60.7,79.5,57z"/>
	</g>
	<g id="sweater_copy_3">
		<path id="Sweater-4" class="st1" d="M121,125c0,0-3-12.7-5.3-17.2c-2.7-5.1-7.1-9.1-12.3-11.5c-5.6-2.6-24.7-14.7-24.7-14
			c0.2,4.1-1.2,8.2-4,11.3c-4,4.3-18.2,3-23.6,0.4c-3-1.4-5.2-4.2-5.9-7.4c-0.3-1-0.7-2.6-0.7-2.6s-22,11.6-24.4,12.7
			s-6,2.7-8.3,5.6s-6.7,14.2-7.4,17.5c-0.4,1.7-0.6,3.5-0.6,5.3"/>
	</g>
	<g id="hair_copy_3">
		<path class="st2" d="M48.2,22.5c0,0,1.6-7,5.6-9.1c4.8-2.7,9.2-1,13.6,1.2c3.5,1.8,6.7,4,9.5,6.8c3.2,2.9,7.1,7.8,7.3,8.6
			c0.2,0.9,0.2,1.8,0,2.8c-0.1,0.5-1.2,1.3-1.2,1.3s0.7,5.7-0.7,8c-1.9,3.2-2,7.9-2.3,9s-0.7,0.7-0.7,0.6s0.1-9.8-0.3-11
			s-1.2-2.3-0.8-3.3c0.3-1.1,0.5-2.2,0.6-3.4c0,0-4.3-3.2-5.3-3.9s-4.3-2.5-5.9-2.6c-1.7-0.1-3.5,0.1-5.1,0.6
			c-1.9,0.6-2.3,1.8-2.8,1.7s-3-2-6.4-2.1s-5.1,0-6.5,1.4s-2.7,2.9-2.5,5.5s0.1,3.2,0,3.7c-0.4,0.9-0.7,1.8-0.8,2.8
			c0,1,0.1,10.6,0,10.9s-0.5-0.1-0.7-1s-0.7-5.5-0.8-6.4s-2.5-6.2-2.7-8.7s-0.8-5.6,0.4-8.7s2.3-4.7,3.3-5.5S47.3,21.9,48.2,22.5z"
			/>
	</g>
	<g id="nose_copy_3">
		<path class="st0" d="M61.7,56.7c0,0,6.3-2.2,5.7,1.6S61,61.5,61,61.5"/>
	</g>
	<g id="mouth_copy_3">
		<path class="st3" d="M57.3,71.5c0,0,3.2-1,4.8-0.8s4.3,2.4,5.6,2.6"/>
	</g>
	<g id="stubble-2">
		<line class="st4" x1="49.4" y1="64.7" x2="49.4" y2="65.3"/>
		<line class="st4" x1="47.1" y1="59" x2="47.1" y2="59.7"/>
		<line class="st4" x1="48.5" y1="68.3" x2="48.5" y2="69"/>
		<line class="st4" x1="54.4" y1="65.6" x2="54.4" y2="66.3"/>
		<line class="st4" x1="51.4" y1="70.4" x2="51.4" y2="71"/>
		<line class="st4" x1="52.2" y1="60" x2="52.2" y2="60.7"/>
		<line class="st4" x1="70.7" y1="60" x2="70.7" y2="60.7"/>
		<line class="st4" x1="75.3" y1="59.7" x2="75.3" y2="60.3"/>
		<line class="st4" x1="69.6" y1="65" x2="69.6" y2="65.7"/>
		<line class="st4" x1="66.5" y1="67.2" x2="66.5" y2="67.9"/>
		<line class="st4" x1="65.3" y1="77.8" x2="65.3" y2="78.4"/>
		<line class="st4" x1="58.7" y1="78.7" x2="58.7" y2="79.4"/>
		<line class="st4" x1="60.7" y1="76.1" x2="60.7" y2="76.8"/>
		<line class="st4" x1="74" y1="67.3" x2="74" y2="68"/>
		<line class="st4" x1="77.3" y1="65.3" x2="77.3" y2="66"/>
	</g>
	<g id="eyes_copy_2">
		<path id="Eye" class="st5" d="M55.5,46.5c0,1.3-0.5,2.4-1.2,2.4S53,47.8,53,46.5s0-2.5,1.2-2.5C55.1,44,55.5,45.1,55.5,46.5z"/>
		<path id="Eye-2" class="st5" d="M71.3,46c0,1.4-0.6,2.6-1.2,2.6s-1.2-1.2-1.2-2.6s0-2.6,1.2-2.6C70.9,43.4,71.3,44.6,71.3,46z"/>
		<path id="undereye" class="st3" d="M55.2,50.2c-0.6,0.5-1.3,0.9-2.1,1c-1.1,0-2.6-0.6-2.9-1.3"/>
		<path id="undereye-2" class="st3" d="M66.6,50.3c0.9,0.6,1.9,1.1,2.9,1.2c1-0.1,1.9-0.7,2.5-1.5"/>
		<path id="eyebrow" class="st3" d="M65,39.3c0,0,1.9-1.9,3.8-1.9s2.9,1.9,4.8,2.8"/>
		<path id="eyebrow-2" class="st3" d="M59.3,40.3c-0.9-0.8-1.8-1.4-2.9-1.9c-1.9-1.1-4.3-0.7-5.7,1c-1.9,1.9-1.9,1.9-2.9,1.9"/>
	</g>
	<g id="glasses-2">
		<path d="M81.3,23.1c-2.7-0.5-5.4-0.7-8.2-0.6c-3.2,0.4-6.5,0.9-9.6,1.7c-0.8,0.2-1.6,0.4-2.5,0.4c-1.1-0.1-2.2-0.3-3.3-0.7
			c-2.2-0.6-4.3-1-6.5-1.2c-2.6-0.2-5.2-0.2-7.8-0.1c-2.5,0.3-2.8,0.5-2.8,0.7l0.4,2.5c0.2,0.1,0.4,0.1,0.5,0.2
			c0.2,0.1,0.3,0.3,0.4,0.5c0.1,0.2,1.6,5.2,1.7,5.4c0.2,0.5,0.5,1,0.8,1.4c0.6,0.6,1.3,1.1,2.1,1.4c0.9,0.3,1.8,0.5,2.8,0.6
			c1.1,0.1,2.2,0.1,3.3-0.1c1.2-0.2,2.3-0.8,3.3-1.5c0.9-0.8,1.7-1.8,2.2-2.9c0.3-0.7,1.3-3.1,1.5-3.4c0.3-0.4,0.8-0.6,1.3-0.5
			c0.6,0,1.1,0.3,1.3,0.8c0.3,0.6,1.2,2.8,1.8,3.9c0.8,1.7,2.4,2.9,4.2,3.4c2,0.6,4.2,0.6,6.2,0c0.9-0.2,1.7-0.6,2.4-1.1
			c0.5-0.4,0.9-0.9,1.2-1.5c0.3-0.6,1.2-4,1.3-4.4c0.2-0.6,0.4-1.3,0.7-1.8c0.2-0.2,0.5-0.3,0.8-0.4l0.4-2.5
			C81.4,23.2,81.4,23.2,81.3,23.1z M56.5,30c-0.5,1.1-1.2,2.1-2,3c-1.3,0.8-2.9,1.2-4.4,1c-1.4,0-2.7-0.4-3.9-1
			c-0.8-0.4-1.2-1.5-1.6-2.5c-0.4-1.4-0.5-2.9-0.5-4.3c0-0.1,0-0.1,0-0.2c0-0.4,0.2-0.8,0.5-1c1-0.9,2.5-0.9,3.7-1
			c1.4-0.1,2.8,0,4.2,0.2c1.3,0.2,4.3,0.5,4.5,2.4C57.1,27.8,56.9,28.9,56.5,30z M77.3,30.5c-0.4,1-0.8,2.1-1.6,2.5
			c-1.2,0.6-2.6,1-3.9,1c-1.5,0.2-3.1-0.2-4.4-1c-0.8-0.9-1.5-1.9-2-3c-0.4-1-0.6-2.2-0.6-3.3c0.2-1.4,2.1-2,3.3-2.3
			c1.7-0.4,3.3-0.5,5-0.5c1.3,0,3.1,0,4.2,1c0.3,0.3,0.5,0.7,0.5,1.1v0.2C77.8,27.7,77.6,29.1,77.3,30.5L77.3,30.5z"/>
		<g class="st6">
			<path d="M44.6,25c-0.3,0.3-0.5,0.7-0.5,1.1c0,0.1,0,0.1,0,0.2c-0.1,1.4,0.1,2.9,0.5,4.3c0.4,1,0.8,2.1,1.6,2.5
				c1.2,0.7,2.5,1,3.9,1c1.5,0.2,3.1-0.2,4.4-1c0.8-0.9,1.5-1.9,2-3c0.3-1.1,0.6-2.2,0.6-3.4c-0.2-1.8-3.2-2.1-4.5-2.4
				c-1.4-0.3-2.8-0.4-4.3-0.3C47.1,24.1,45.6,24.1,44.6,25z"/>
		</g>
		<g class="st6">
			<path d="M77.2,25c0.3,0.3,0.5,0.7,0.5,1.1v0.2c0.1,1.4-0.1,2.9-0.5,4.3c-0.4,1-0.8,2.1-1.6,2.5c-1.2,0.7-2.6,1-3.9,1
				c-1.5,0.2-3.1-0.2-4.4-1c-0.8-0.9-1.5-1.9-2-3c-0.4-1-0.6-2.2-0.6-3.3c0.2-1.4,2.1-2,3.3-2.2c1.6-0.3,3.3-0.5,5-0.5
				C74.3,24,76.2,24,77.2,25z"/>
		</g>
	</g>
</g>
</svg>
