<svg xmlns="http://www.w3.org/2000/svg" viewBox="0 0 125 134.84"><title>Artboard 21</title><g id="person_12" data-name="person 12"><path id="neck-2" data-name="neck" d="M52.65,81.17s-.3,11.92-.69,13.28-7.47,2.18-9.1,4.08,1,5.38,2.18,6.7c5.77,6.46,20.46,7.21,28.19,5.55,4.25-.92,13.79-6.24,14.61-11.16.41-2.45-6.78-3.81-8.49-4.89s-2.51-13.82-2.51-13.82Z" fill="#fce7d4" stroke="#020202" stroke-miterlimit="10" stroke-width="0.75"/><path id="head-3" data-name="head" d="M63.91,36.78a27.18,27.18,0,0,0-10.11,1.5,9.93,9.93,0,0,0-5.46,3.91,12.39,12.39,0,0,0-1.29,3.71q-1.62,7.1-2.6,14.33c-.25-.81-.21-1.44-.47-2s-1.82-.49-1.95.54a5.25,5.25,0,0,0,.42,2.51,14,14,0,0,1,.88,2.58c.52,3.09-.3,3.28.05,5.69a2.27,2.27,0,0,0,1.24,1.54c.23.11,1.15.44,1.15-.07a31.6,31.6,0,0,0,1.1,8.51C48,82.88,51.41,85.58,54,87.81a26.46,26.46,0,0,0,6.33,4.46c6.21,2.78,12.24-1.2,15.65-6.37,2.33-3.53,5.39-5.87,5.73-10a33.57,33.57,0,0,0,.54-4.45c0-.45.55-.32.83-.3,1.67.1,2-2.33,2.17-3.54.33-2.12.17-4.35,1-6.36.42-1,1.56-2.48.34-3.39a2.09,2.09,0,0,0-2.44,0c-.89.63-.88,1.56-1.18,2.51a51.76,51.76,0,0,0-2-13.2,12.3,12.3,0,0,0-1.58-3.83,13.79,13.79,0,0,0-5.64-4.82,19.75,19.75,0,0,0-4.87-1.49A45.73,45.73,0,0,0,63.91,36.78Z" fill="#fce7d4" stroke="#020202" stroke-miterlimit="10" stroke-width="0.75"/><path id="nose-4" data-name="nose" d="M64.44,68.78c-1.19,3.52-8.21,2.73-8.37,4.59-.25,2.86,5.09,2.44,7.29,1.4" fill="none" stroke="#020202" stroke-miterlimit="10" stroke-width="0.75"/><g id="hair-5" data-name="hair"><path d="M82.22,58.22S82.55,47.66,79.46,46c-2.75-1.44-5.58-3.22-8.72-3.55a57.72,57.72,0,0,0-10-.46c-2.68.16-8.1-.14-10,2.39-1.46,2-5.19,18.55-6,17.47a16.18,16.18,0,0,1-2.49-6.58,23.59,23.59,0,0,1,1.6-12.52c1.64-3.74,0-2.65,2.27-6a26.2,26.2,0,0,1,7.48-6.8c1.14-.65.84-1.06,1.16-1.19a2,2,0,0,0,.6-.43s-1.19-2.5-1.57-3.61a22.18,22.18,0,0,1-1.15-3.63,4.36,4.36,0,0,1,.85-3.59c.77-.9,2.05-2.46,3.22-2.79a11.59,11.59,0,0,1,5.3.18c.91.27,1.53.7,2.15.41S66,13.44,67,13.44c1.77,0,5.21,1.46,5.72,3.36s0,1.71,1.7,2.66,3,4.19,3.43,6c.32,1.28,0,3.08-1.67,3.57-.56.16-1.54.35-1.54.35s1.71,1.06,1.82,1.82a10.22,10.22,0,0,1,0,1.19,4.19,4.19,0,0,0,.6.87s7.31,3.08,8.1,6S85.5,43,86.31,44a7.2,7.2,0,0,1,1.55,5,37,37,0,0,1-1.09,7.18c-.16.92-1.78,3.11-2.3,4s-1.49,3-1.9,2.68S82.21,58.74,82.22,58.22Z" fill="#f7de48" stroke="#020202" stroke-miterlimit="10" stroke-width="0.75"/><path d="M55.38,28.32a6.37,6.37,0,0,1,3.82-.6,27.56,27.56,0,0,1,3.68,1.19" fill="none" stroke="#020202" stroke-miterlimit="10" stroke-width="0.75"/><path d="M74.61,29.37s-6.31.06-9.78-5" fill="none" stroke="#020202" stroke-miterlimit="10" stroke-width="0.75"/><path d="M64.18,15.29a7.77,7.77,0,0,0,1.41,4c2.06,3.36,4.12,4,4.12,4" fill="none" stroke="#020202" stroke-miterlimit="10" stroke-width="0.75"/><path d="M58.11,14.64a6.39,6.39,0,0,0,.11,6.15,12.78,12.78,0,0,0,3.52,4.33" fill="none" stroke="#020202" stroke-miterlimit="10" stroke-width="0.75"/><path d="M77.34,33.37c0,.25-.51-.39-3.46-1.19" fill="none" stroke="#020202" stroke-miterlimit="10" stroke-width="0.75"/><path d="M58.8,39.73c-1.31-1-3.16-2.83-2.78-4.71a7.48,7.48,0,0,1,2.78-3.61" fill="none" stroke="#020202" stroke-miterlimit="10" stroke-width="0.75"/><path d="M72.52,40.51s4.56-1.93,3.58-4.17" fill="none" stroke="#020202" stroke-miterlimit="10" stroke-width="0.75"/><path d="M64.16,39.42s3.46-.87,2.39-3.79A13.47,13.47,0,0,1,65.46,31" fill="none" stroke="#020202" stroke-miterlimit="10" stroke-width="0.75"/></g><g id="eyes-6" data-name="eyes"><path d="M67.22,54.26c4.25-.57,9.47-5.31,11.27-1.19" fill="none" stroke="#020202" stroke-miterlimit="10" stroke-width="0.75"/><path d="M59.13,59c-2.75-.64-9.48-4.91-11.3-.76" fill="none" stroke="#020202" stroke-miterlimit="10" stroke-width="0.75"/><circle cx="72.64" cy="62.25" r="1.17" fill="#fff" stroke="#020202" stroke-miterlimit="10" stroke-width="0.75"/><circle cx="54.59" cy="62.22" r="1.17" fill="#fff" stroke="#020202" stroke-miterlimit="10" stroke-width="0.75"/><path d="M69.11,61.38s3.37-1.71,4.69-1.21,1.67,1.5,2.44,1.57" fill="none" stroke="#020202" stroke-miterlimit="10" stroke-width="0.75"/><path d="M57.5,62.5s-1.14-2.75-2.72-2.37a24.32,24.32,0,0,0-3.11.88" fill="none" stroke="#020202" stroke-miterlimit="10" stroke-width="0.75"/></g><g id="shirt-2" data-name="shirt"><path id="shirt-3" data-name="shirt" d="M8.62,135.32c.6-6.77,1.8-12.34,2.56-17s1-6.58,3.41-10.6,6.58-5.24,10.92-6.1c4.62-.9,6.59-2,11.22-2.61a35,35,0,0,0,7.69-2.53c.94-.42.34,7.52,7.73,11.24A28,28,0,0,0,79.3,106c3.39-2.24,4.68-5.85,6.87-9.47,3.32.65,6.42,2.05,9.61,3.11,5.51,1.82,15.3,1.31,17.57,8.13,2.64,7.93,3.69,19,5.37,27.75" fill="#fff" stroke="#000" stroke-miterlimit="10" stroke-width="0.75"/></g><g id="stripes"><polygon points="115.64 119.55 11.22 119.55 10.58 123.16 116.31 123.16 115.64 119.55" fill="#70afe8"/><path d="M39.48,103.18l-18.38.17a2.19,2.19,0,0,0-.7.18q-.48.19-1,.42c-.4.19-.82.36-1.21.58a8.53,8.53,0,0,0-1.09.77c-.36.28-.64.54-1,.84a4.08,4.08,0,0,0-.36.36s-.24.29-.23.29H41.48c-.35-.43-.28-.24-.53-.64a8.38,8.38,0,0,1-.92-1.74A11.49,11.49,0,0,0,39.48,103.18Z" fill="#70afe8"/><path d="M89.54,103.18l19.11.18s.07,0,.1.06l.17.1c.35.19.7.39,1,.61s.47.26.69.42a6.49,6.49,0,0,1,1,1,3.08,3.08,0,0,1,.66,1,2.26,2.26,0,0,0,.11.26H87.26a3.76,3.76,0,0,0,.53-.72c.63-1,.47-.68,1.06-1.66C89.12,104,89.25,103.71,89.54,103.18Z" fill="#70afe8"/></g><g id="stripes-2" data-name="stripes"><path d="M83,111.54h31s.38,1.5.41,1.64c.15.65.4,1.77.43,2H76.12Z" fill="#f44711"/><polygon points="117.16 127.79 9.77 127.79 9.21 131.4 117.72 131.4 117.16 127.79" fill="#f44711"/><path d="M44.8,111.54H12.93a8.25,8.25,0,0,0-.61,1.7c-.2.62-.27,1.46-.38,1.9H51.42Z" fill="#f44711"/></g><g id="stripe_seams" data-name="stripe seams"><path id="shirt_collar_seam" data-name="shirt collar seam" d="M38.65,99s1,6.45,4.69,10.66,9,6.66,20.84,6.66,18.09-4.07,19.85-5.91a66.18,66.18,0,0,0,7.75-11.75" fill="none" stroke="#000" stroke-miterlimit="10" stroke-width="0.75"/></g><line id="beauty_mark" data-name="beauty mark" x1="77.94" y1="64.63" x2="77.94" y2="65.6" fill="none" stroke="#020202" stroke-miterlimit="10" stroke-width="0.75"/><g id="glasses-2" data-name="glasses"><circle cx="53.11" cy="62.22" r="8.6" fill="#020202" stroke="#020202" stroke-miterlimit="10" stroke-width="0.75"/><circle cx="73.82" cy="62.22" r="8.6" fill="#020202" stroke="#020202" stroke-miterlimit="10" stroke-width="0.75"/><path d="M65.34,62.44a2.62,2.62,0,0,0-1.77-.94,2.25,2.25,0,0,0-1.62.9l-2.44-1.71a5.19,5.19,0,0,1,4.06-2.17,5.54,5.54,0,0,1,4.13,2.11l-2.36,1.81Z" fill="#020202"/></g><circle id="lens" cx="53.11" cy="62.22" r="5.78" fill="#f44711"/><g id="lens-2" data-name="lens"><circle cx="73.85" cy="62.22" r="5.78" fill="#455ff4"/></g><path id="mouth-4" data-name="mouth" d="M68.07,83.52c0,2-3.94,2.17-4.44,2.17s-.92-1.59-.92-3.56.41-3.57.92-3.57S68.07,81.55,68.07,83.52Z" fill="#fff" stroke="#020202" stroke-miterlimit="10" stroke-width="0.75"/></g></svg>