<?xml version="1.0" encoding="utf-8"?>
<!-- Generator: Adobe Illustrator 24.0.3, SVG Export Plug-In . SVG Version: 6.00 Build 0)  -->
<svg version="1.1" id="Layer_1" xmlns="http://www.w3.org/2000/svg" xmlns:xlink="http://www.w3.org/1999/xlink" x="0px" y="0px"
	 viewBox="0 0 125 125" style="enable-background:new 0 0 125 125;" xml:space="preserve">
<style type="text/css">
	.st0{fill:#099160;stroke:#020202;stroke-width:0.75;stroke-miterlimit:10;}
	.st1{fill:#FCE7D4;stroke:#020202;stroke-width:0.75;stroke-miterlimit:10;}
	.st2{fill:#7F4C0E;stroke:#000000;stroke-width:0.75;stroke-miterlimit:10;}
	.st3{fill:none;stroke:#020202;stroke-width:0.75;stroke-miterlimit:10;}
	.st4{fill:none;stroke:#231F20;stroke-width:0.75;stroke-miterlimit:10;}
	.st5{fill:#FFFFFF;}
	.st6{fill:#008E19;stroke:#020202;stroke-width:0.75;stroke-miterlimit:10;}
	.st7{fill:#F99C16;stroke:#000000;stroke-width:0.75;stroke-miterlimit:10;}
	.st8{fill:#FFFFFF;stroke:#020202;stroke-width:0.75;stroke-miterlimit:10;}
</style>
<title>Artboard 25 copy 3</title>
<g id="Frames">
	<g id="Layer_137">
		<path id="shirt-3_1_" class="st0" d="M116,125c0-7.1-0.7-5.6-1.3-10.7c-0.7-6.3-1.9-12.5-3.5-18.6c-2.5-10.1-10.8-13.2-18.4-17.2
			c-1.9-1-12.9-4.3-12.9-4.3H79c-1.9-0.2-30-1.7-30-1.7C40,76.7,27.4,80,19.5,87c-5.2,4.6-9.4,15.2-9.4,21.8c0,1.8-0.4,3.4-0.4,5.2
			c0,2.2-0.9,4.4-0.9,6.6c0,1.2,0.2,3.3,0.2,4.5"/>
		<path class="st1" d="M48.9,72.4l-7.4,3.1c0,3.6,0,7.2,0,10.7v8.2c0,5.5,1.2,10,5.6,13.6c4.6,3.8,10.3,6,16.2,6.2
			c4.8,0.1,9.6-0.8,14-2.8c2.8-1.3,5.8-3.1,7.4-6c2-3.6,1.1-8.2,1.3-12.1c0.2-5.7,0.3-11.3,0.4-17c-2.1-1-4.4-1.7-6.7-2.2
			C71.1,72,56,71.5,48.9,72.4z"/>
		<path id="head-3" class="st1" d="M48.6,81.3c0,0,1-6.2,0.9-7.9s0-7.9,0-7.9c-1-1.4-1.9-2.9-2.7-4.5c-0.6-2-1.4-3.9-2.3-5.8
			c-1.3-2.7-1.1-6.4,0.6-6.7s3.7,1.1,4.4,2.1s3.1,4.5,3.1,4.5s0.3-4.8,1-6.4s5.4-8.4,5.9-11s0.3-3.3,0.3-3.3s4.6,2.8,7.9,0.9
			s7-3.8,7-3.8s1.1,3,2.1,3.5s6.3,1.2,7,3.2s1.4,7,1,12s-1.2,15.5-2.3,18.3c-1.1,2.4-2.3,4.8-3.7,7.1l1.1,4.5"/>
		<path class="st2" d="M63.2,114.3c0,0,0.3-5.5,0.5-7.4"/>
		<path class="st1" d="M62.4,78.5c0,0,2.7,4.3,7.2,4.2c4.2-0.1,5.2-5.3,5.2-5.3"/>
		<path class="st3" d="M62.9,85.6c-1.5-0.4-3-0.8-4.5-1.3"/>
		<path class="st4" d="M63.4,79.7c0,0-3.8-0.5-4.9-2.4"/>
		<path class="st4" d="M76.2,34.7c2,1.2,4.4,1.3,6.3,2.3c2.4,1.2,2,4.7,2.3,7s-0.3,12.8-1.7,21.6c-0.3,2.2-1.1,4.2-2.1,6.1
			c-1.6,2.7-3.9,4.9-6.6,6.5"/>
		<path class="st4" d="M74.6,31.1c0,0.3,0,0.6,0,0.9"/>
		<path class="st4" d="M50.1,64.8c0.4,0.3,0.9,0.2,1.2-0.1c0.7-0.5,0.9-0.1,0.9-0.1"/>
		<g id="earring">
			<path class="st5" d="M47.3,66.2c-1.7,0-3.1-1.4-3.1-3.1c0-1.6,1.2-3,2.9-3.1h0.3c1.6,0,3,1.2,3.1,2.8c0.2,1.7-1.1,3.2-2.8,3.4
				l0,0H47.3z"/>
			<path d="M47.3,60.3c1.5,0,2.8,1.2,2.8,2.7c0,1.4-1.1,2.6-2.5,2.7h-0.2c-1.5,0-2.7-1.3-2.7-2.8c0-1.4,1.1-2.5,2.4-2.7L47.3,60.3
				 M47.2,59.5H47c-1.9,0.1-3.4,1.7-3.3,3.6c0.1,1.9,1.7,3.4,3.6,3.4h0.3c1.9-0.1,3.4-1.7,3.3-3.6C50.9,61,49.2,59.5,47.2,59.5
				L47.2,59.5z"/>
		</g>
		<g id="earring-2">
			<path class="st5" d="M46,77.4c-1.2,0.1-2.2-0.9-2.2-2.1c-0.1-1.2,0.9-2.2,2.1-2.2H46c1.2-0.1,2.2,0.9,2.2,2.1
				c0.1,1.2-0.9,2.2-2.1,2.2l0,0H46z"/>
			<path d="M46,73.4c0.9,0,1.7,0.7,1.8,1.6c0,0.5-0.1,0.9-0.4,1.3c-0.3,0.4-0.7,0.6-1.2,0.6H46c-1,0-1.8-0.8-1.8-1.8
				c0-0.9,0.7-1.6,1.6-1.7H46 M46,72.7h-0.2c-1.4,0.1-2.4,1.4-2.3,2.7c0.1,1.3,1.2,2.3,2.5,2.3h0.2c1.4-0.3,2.3-1.6,2-3
				C48,73.7,47.1,72.9,46,72.7L46,72.7z"/>
		</g>
		<g id="earring-3">
			<path class="st5" d="M46.2,82C45,82.1,44,81.1,44,79.9c-0.1-1.2,0.9-2.2,2.1-2.2l0,0h0.2c1.2-0.1,2.2,0.9,2.2,2.1
				c0.1,1.2-0.9,2.2-2.1,2.2H46.2z"/>
			<path d="M46.2,78.1c0.9,0,1.7,0.7,1.8,1.6c0,0.5-0.1,0.9-0.4,1.3c-0.3,0.4-0.7,0.6-1.2,0.6h-0.2c-1,0-1.8-0.7-1.9-1.7
				c0-1,0.7-1.8,1.7-1.9L46.2,78.1 M46.2,77.3H46c-1.4,0.1-2.4,1.4-2.3,2.7c0.1,1.3,1.2,2.3,2.5,2.3h0.2c1.4-0.3,2.3-1.6,2-3
				C48.2,78.3,47.3,77.5,46.2,77.3L46.2,77.3z"/>
		</g>
		<g id="earring-4">
			<path class="st5" d="M47,86.7c-1.2,0-2.2-0.9-2.2-2.1s0.9-2.2,2.1-2.2h0.2c1.1,0,2,0.9,2.1,2c0.1,1.2-0.8,2.2-2,2.3l0,0L47,86.7z
				"/>
			<path d="M47.1,82.8c1,0,1.8,0.8,1.7,1.8c0,0.9-0.7,1.6-1.6,1.7H47c-0.9,0-1.7-0.7-1.8-1.6c-0.1-1,0.6-1.8,1.6-1.9H47.1
				 M47.1,82.1h-0.2c-1.4,0.3-2.3,1.6-2,3c0.2,1.1,1.1,1.9,2.2,2h0.2c1.4-0.3,2.3-1.6,2-3C49.1,83,48.2,82.2,47.1,82.1z"/>
		</g>
		<g id="earring-5">
			<path class="st5" d="M50.1,90.6c-1.1,0-2.1-0.9-2.1-2c-0.1-0.6,0.1-1.1,0.5-1.6c0.4-0.4,0.9-0.7,1.5-0.8h0.2
				c1.2-0.1,2.2,0.9,2.2,2.1c0.1,1.2-0.9,2.2-2.1,2.2l0,0L50.1,90.6z"/>
			<path d="M50.1,86.7c0.9,0,1.7,0.7,1.8,1.6c0,0.5-0.1,0.9-0.4,1.3c-0.3,0.4-0.7,0.6-1.2,0.6h-0.2c-1-0.1-1.7-0.9-1.7-1.9
				c0.1-0.8,0.7-1.5,1.5-1.6H50.1 M50.2,85.9H50c-1.4,0.3-2.3,1.6-2,3c0.2,1.1,1.1,1.9,2.2,2h0.2c1.4-0.3,2.3-1.6,2-3
				C52.2,86.9,51.3,86,50.2,85.9z"/>
		</g>
		<path class="st4" d="M76.2,40.3c0,0,2.9-2.1,4.5,1.7"/>
		<path class="st4" d="M65.3,40c-1.4-0.5-3,0-3.8,1.2"/>
		<path class="st6" d="M76.7,55.5c-0.1,0.6,0.4,1.2,1,1.2c0.6,0.1,1.2-0.4,1.2-1c0-0.1,0-0.3,0-0.4c0-0.7-0.5-1.2-1.2-1.2l0,0
			C77,54.2,76.6,54.9,76.7,55.5z"/>
		<path class="st6" d="M63.6,55.3c0,0.7,0.5,1.2,1.2,1.2c0.7-0.2,1.1-1,0.9-1.7c-0.2-0.5-0.6-0.9-1.2-1C63.9,54,63.4,54.7,63.6,55.3
			z"/>
		<path class="st4" d="M79.3,59.8c0,0-0.1,0.4-1.4,0.1S76.2,59,76.2,59"/>
		<path class="st4" d="M65.4,58.9c0,0-1.2,1.5-2.3,1.2c-0.6-0.2-1.2-0.5-1.6-0.9"/>
		<path class="st4" d="M65.7,44.6c0,0-2.3-2.5-3.8,0.3s-2.2,4.2-2.2,4.2"/>
		<path class="st4" d="M76.6,45c0,0,1.5-1.7,3.3,0.6c1,1.3,1.8,2.7,2.3,4.2"/>
		<path id="nose-4" class="st4" d="M70.3,59.3c0,0,1.7,3.1,3.3,4.1c7,4.3-5.5,7-6,3.3"/>
		<path id="hair-10" class="st7" d="M44.3,48.7c0,0-2.1-7-2.1-10.1c0-6.7,3.5-13.2,3.5-13.2c-0.2-1.7-0.1-3.5,0.4-5.1
			c0.7-2.2,5.4-7.4,10.1-7.9s8.1,0.2,9.1,0.7c1.4,0.8,2.7,1.6,4,2.5c2.7-1.3,5.6-1.8,8.5-1.6c4.5,0.4,8.3,1.4,9.7,3.3
			s3.1,3.6,3.3,6.7c0.1,2,0,4.1-0.2,6.1c0.5,1.6,0.8,3.2,0.7,4.9c-0.1,2.4-1.9,7.4-2.9,9.6c-1.1,2-2.3,3.9-3.7,5.8
			c0,0-0.2-7.9-0.2-9.3s-1.3-4-3-4.4S76.7,36,76.1,35s-1.6-3.2-1.6-3.2s-0.8,0.4-3,1.6s-3.1,2.5-4.7,3.1s-4-0.2-4.8-0.3
			c-0.8-0.4-1.7-0.9-2.4-1.5c0.3,1.7,0.3,3.4-0.2,5c-1.1,2.5-2.6,4.9-4.2,7c-1.7,2.3-2.7,8.8-2.7,8.8s-4.3-5.8-5.3-6.4
			C46.1,48,44.3,48.7,44.3,48.7z"/>
		<path class="st8" d="M66,71.6c-0.3-0.3-0.5-0.5-0.8-0.8c-0.3-0.4-1.5-2-2.2-1.8s-0.7,2.8-0.7,3.4c-0.1,0.7,0.1,1.5,0.5,2.1
			c0.5,0.5,1.1,0.9,1.9,1.1c0.9,0.3,1.7,0.5,2.6,0.7c0.5,0.1,1.1,0.1,1.6,0s1-0.5,1.1-1s-0.1-1.1-0.6-1.4c-0.4-0.3-0.9-0.6-1.4-0.8
			C67.3,72.7,66.6,72.2,66,71.6z"/>
		<g id="glasses-2">
			<path d="M91.7,49.8c-2.6-0.5-5.3-0.7-7.9-0.6c-2.8,0.2-9.2,2.3-10.3,2.6c-0.8,0.2-1.6,0.3-2.4,0.4c-1.1-0.1-2.2-0.3-3.2-0.7
				c-0.6-0.2-5.6-2.1-7.3-2.2c-2.5-0.2-5.1-0.2-7.6-0.1c-2.4,0.3-2.8,0.5-2.7,0.7l0.4,2.4c0.2,0.1,0.4,0.1,0.5,0.2
				c0.2,0.1,0.3,0.3,0.4,0.5c0.1,0.2,2.5,6,2.6,6.2c0.2,0.5,0.5,1,0.8,1.4c0.6,0.6,1.3,1,2.1,1.3c1.9,0.7,3.9,0.8,5.9,0.5
				c1.2-0.2,2.3-0.7,3.2-1.5s1.6-1.8,2.2-2.8c0.3-0.7,1.3-3,1.5-3.3c0.3-0.4,0.8-0.5,1.3-0.5c0.6,0,1.1,0.3,1.3,0.8
				c0.3,0.6,1.1,2.7,1.8,3.8c0.8,1.6,2.3,2.8,4,3.3c2,0.5,4,0.5,6-0.1c0.8-0.2,1.6-0.5,2.3-1c0.5-0.4,0.8-0.9,1.1-1.5
				c0.3-0.6,1.2-3.9,1.3-4.2c0.5-1,1-1.9,1.7-2.8c0.2-0.2,0.5-0.3,0.7-0.4l0.4-2.4C91.7,49.9,91.7,49.9,91.7,49.8z M66.7,57.4
				c-0.5,1.1-1.1,2.1-1.9,2.9c-1.3,0.8-2.8,1.2-4.3,1c-1.3,0-2.6-0.4-3.8-1C55.9,60,55.5,59,55.1,58c-0.4-1.4-0.5-2.8-0.5-4.2
				c0,0,0-0.1,0-0.2c0-0.4,0.2-0.8,0.5-1.1c0.9-0.9,2.4-0.9,3.6-0.9c1.4-0.1,2.8,0,4.1,0.2c1.3,0.2,4.2,0.5,4.4,2.3
				C67.2,55.3,67,56.4,66.7,57.4L66.7,57.4z M86.8,58c-0.4,1-0.8,2.1-1.6,2.4c-1.2,0.6-2.5,1-3.8,1c-1.5,0.2-3-0.2-4.3-1
				c-0.8-0.8-1.5-1.8-1.9-2.9c-0.4-1-0.6-2.1-0.6-3.2c0.2-1.4,2-2,3.2-2.2c1.6-0.3,3.2-0.5,4.9-0.5c1.3,0,3,0,4.1,1
				c0.3,0.3,0.5,0.7,0.5,1.1c0,0,0,0.1,0,0.2C87.3,55.3,87.2,56.7,86.8,58z"/>
		</g>
		<g id="earring-6">
			<path class="st5" d="M53.5,94.3c-1.2,0-2.2-0.9-2.2-2.1s0.9-2.2,2.1-2.2h0.2c1.2-0.1,2.2,0.9,2.2,2.1c0.1,1.2-0.9,2.2-2.1,2.2
				H53.5z"/>
			<path d="M53.5,90.4c1,0,1.8,0.8,1.7,1.8c0,0.9-0.7,1.6-1.6,1.7h-0.2c-0.9,0-1.7-0.7-1.8-1.6c-0.1-1,0.6-1.8,1.6-1.9H53.5
				 M53.5,89.6h-0.2c-1.4,0.3-2.3,1.6-2,3c0.2,1.1,1.1,1.9,2.2,2h0.2c1.4-0.2,2.3-1.5,2.1-2.9C55.6,90.6,54.7,89.7,53.5,89.6z"/>
		</g>
		<g id="earring-7">
			<path class="st5" d="M57.9,96.7c-1.2,0-2.2-0.9-2.2-2.1s0.9-2.2,2.1-2.2H58c1.1,0,2,0.9,2.1,2c0.1,1.2-0.8,2.2-2,2.3l0,0
				L57.9,96.7z"/>
			<path d="M57.9,92.7c1,0,1.7,0.9,1.7,1.8s-0.7,1.6-1.6,1.7h-0.2c-0.9,0-1.7-0.7-1.8-1.6c-0.1-1,0.6-1.8,1.6-1.9H57.9 M57.8,92
				h-0.2c-1.4,0.3-2.3,1.6-2,3c0.2,1.1,1.1,1.9,2.2,2H58c1.4-0.3,2.3-1.6,2-3C59.9,92.9,59,92.1,57.8,92z"/>
		</g>
		<g id="earring-8">
			<path class="st5" d="M62.9,96.7c-1.2,0.1-2.2-0.9-2.2-2.1c-0.1-1.2,0.9-2.2,2.1-2.2H63c1.2-0.1,2.2,0.9,2.2,2.1
				c0.1,1.2-0.9,2.2-2.1,2.2H62.9z"/>
			<path d="M62.9,92.7c0.9,0,1.7,0.7,1.8,1.6c0,0.5-0.1,0.9-0.4,1.3s-0.7,0.6-1.2,0.6h-0.2c-1,0-1.8-0.7-1.9-1.7
				c0-1,0.7-1.8,1.7-1.9l0,0L62.9,92.7 M62.9,92h-0.2c-1.4,0.3-2.3,1.6-2,3c0.2,1.1,1.1,1.9,2.2,2h0.2c1.4-0.3,2.3-1.6,2-3
				C64.9,92.9,64,92.1,62.9,92z"/>
		</g>
		<g id="earring-9">
			<path class="st5" d="M67.6,96.3c-1.2,0-2.1-1-2.1-2.2c0-0.5,0.2-1,0.5-1.4c0.4-0.4,0.9-0.7,1.4-0.8h0.2c1.2,0,2.2,0.9,2.2,2.1
				s-0.9,2.2-2.1,2.2l0,0h-0.1V96.3z"/>
			<path d="M67.6,92.4c0.9,0,1.7,0.7,1.8,1.6c0.1,1-0.6,1.8-1.6,1.9h-0.2c-1,0-1.8-0.8-1.7-1.8C65.9,93.2,66.6,92.5,67.6,92.4
				L67.6,92.4 M67.6,91.6h-0.2c-1.4,0.3-2.3,1.6-2,3c0.2,1.1,1.1,1.9,2.2,2h0.2c1.4-0.3,2.3-1.6,2-3C69.6,92.6,68.7,91.7,67.6,91.6z
				"/>
		</g>
		<g id="earring-10">
			<path class="st5" d="M72.3,94.5c-1.2,0-2.2-0.9-2.2-2.1s0.9-2.2,2.1-2.2h0.2c1.2,0,2.2,0.9,2.2,2.1s-0.9,2.2-2.1,2.2l0,0H72.3z"
				/>
			<path d="M72.3,90.6c0.9,0,1.7,0.7,1.8,1.6c0.1,1-0.6,1.8-1.6,1.9h-0.2c-0.9,0-1.7-0.7-1.8-1.6c-0.1-1,0.6-1.8,1.6-1.9H72.3
				 M72.3,89.8h-0.2c-1.4,0.3-2.3,1.6-2,3c0.2,1.1,1.1,1.9,2.2,2h0.2c1.4-0.1,2.4-1.4,2.3-2.7C74.7,90.8,73.6,89.8,72.3,89.8
				L72.3,89.8z"/>
		</g>
		<g id="earring-11">
			<path class="st5" d="M76.2,91.8C75,91.9,74,90.9,74,89.7s0.9-2.2,2.1-2.2h0.2c1.2-0.1,2.2,0.9,2.2,2.1s-0.9,2.2-2.1,2.2l0,0H76.2
				z"/>
			<path d="M76.2,87.9c1,0,1.8,0.8,1.8,1.8c0,0.9-0.7,1.6-1.6,1.7h-0.2c-0.9,0-1.7-0.7-1.8-1.6c-0.1-1,0.6-1.8,1.6-1.9l0,0H76.2
				 M76.2,87.1H76c-1.4,0.2-2.3,1.5-2.1,2.9c0.2,1.1,1.1,2,2.3,2.1h0.2c1.4-0.2,2.3-1.5,2.1-2.9C78.3,88.1,77.4,87.2,76.2,87.1
				L76.2,87.1z"/>
		</g>
		<g id="earring-12">
			<path class="st5" d="M78.9,87.8c-1.1,0-2.1-0.9-2.1-2c-0.1-0.6,0.1-1.1,0.5-1.6c0.4-0.4,0.9-0.7,1.5-0.8H79
				c1.2-0.1,2.2,0.9,2.2,2.1s-0.9,2.2-2.1,2.2L78.9,87.8z"/>
			<path d="M78.9,83.8c0.9,0,1.7,0.7,1.8,1.6c0.1,1-0.6,1.8-1.6,1.9l0,0h-0.2c-1,0-1.8-0.8-1.8-1.8c0-0.9,0.7-1.6,1.6-1.7H78.9
				 M78.9,83.1h-0.2c-1.4,0.1-2.4,1.4-2.3,2.7c0.1,1.3,1.2,2.3,2.5,2.3h0.2c1.4-0.3,2.3-1.6,2-3C80.9,84.1,80,83.2,78.9,83.1
				L78.9,83.1z"/>
		</g>
		<g id="earring-13">
			<path class="st5" d="M80.8,83.2c-1.1,0-2.1-0.9-2.1-2c-0.1-0.6,0.1-1.1,0.5-1.6c0.4-0.4,0.9-0.7,1.5-0.8h0.2
				c1.2-0.1,2.2,0.9,2.2,2.1s-0.9,2.2-2.1,2.2L80.8,83.2z"/>
			<path d="M80.8,79.3c0.9,0,1.7,0.7,1.8,1.6c0.1,1-0.6,1.8-1.6,1.9h-0.2c-1,0-1.8-0.8-1.8-1.8c0-0.9,0.7-1.6,1.6-1.7H80.8
				 M80.8,78.5h-0.2c-1.4,0.3-2.3,1.6-2,3c0.2,1.1,1.1,1.9,2.2,2H81c1.4-0.3,2.3-1.6,2-3C82.8,79.5,81.9,78.6,80.8,78.5L80.8,78.5z"
				/>
		</g>
		<g id="earring-14">
			<path class="st5" d="M82.3,78.6c-1.2,0-2.2-0.9-2.2-2.1s0.9-2.2,2.1-2.2h0.2c1.1,0,2,0.9,2.1,2c0.1,1.2-0.8,2.2-2,2.3l0,0
				L82.3,78.6z"/>
			<path d="M82.4,74.6c1,0,1.8,0.8,1.7,1.8c0,0.9-0.7,1.6-1.6,1.7h-0.2c-1,0-1.8-0.8-1.7-1.8c0-0.9,0.7-1.6,1.6-1.7H82.4 M82.4,73.9
				h-0.2c-1.4,0.1-2.4,1.4-2.3,2.7c0.1,1.3,1.2,2.3,2.5,2.3h0.2c1.4-0.3,2.3-1.6,2-3C84.4,74.9,83.5,74,82.4,73.9L82.4,73.9z"/>
		</g>
	</g>
</g>
</svg>
