<svg xmlns="http://www.w3.org/2000/svg" viewBox="0 0 125 125"><title>Artboard 25 copy 6</title><g id="Layer_140" data-name="Layer 140"><path d="M48.1,78.94c1.22-.54,3.71-3.52,3.71-3.52a57.61,57.61,0,0,0,1.72-7.6c.27-2.64.67-9.9.67-9.9l25.21,1.17s0,7.11,0,7.86a67,67,0,0,0,.44,8,12,12,0,0,0,2.68,7.2,24.38,24.38,0,0,0,3.86,3.3s4.41,2.32,5.6,3.11a36.25,36.25,0,0,0,3.42,1.85s3.45,7.4-.78,13.47S76,111.79,67.22,109.81,37,95.55,40.07,89.61,43.5,80.94,48.1,78.94Z" fill="#fce7d4" stroke="#020202" stroke-miterlimit="10" stroke-width="0.75"/><g id="turtleneck"><path d="M118.06,125.43c-.21,0-1.38-11.39-1.68-12.81a62.41,62.41,0,0,0-2-7.55c-1.91-5.46-4.93-10.85-9.83-13.07a98.89,98.89,0,0,1-9.42-4.47c-2.39-1.27-4.53-2.71-6.91-4-1.19-.64-1.71-1.11-2.9-1.75-.58-.31-1.23-.44-1.79-.78s-1.07-2.07-1.52-2.5a6.12,6.12,0,0,1-2.17-3.91c-.1-.46-.36-2-.42-2.58,0-.21-.38-10.42-.2-9l-29.52-4s.41,13.06.41,13.14c0,.91-.77,2-.59,2.86A4.74,4.74,0,0,1,49,77.65c-.54,1.55-2.63,1.69-3.88,2.57s-1.45,2.3-3,2.94-3,1.44-4.57,2.17C30.93,88.54,29.76,88.8,23.12,92c-.27.13-.53.28-.81.39-2.7,1.34-6.71,3-9.34,6.31s-4.33,18-5.14,21.7-1.14,5-1.14,5" fill="#020202" stroke="#020202" stroke-miterlimit="10" stroke-width="0.75"/></g><path d="M87.72,43.55s-.27-2.22-.28-2.34c-.25-.52-.27-1-.47-1.54a4,4,0,0,1-.23-.57c-.29-1.43-.75-2.77-1-4.2s-.56-2.66-.87-4c-.91-3.86-2.38-8.57-5.35-11.45a10.89,10.89,0,0,0-7.19-2.58,27.4,27.4,0,0,0-13.57,2.44,27.57,27.57,0,0,0-9.54,8c-2.7,3.65-2.53,8-2,12.33a62.76,62.76,0,0,0,2,9.5c1.26,4.23,5.94,15,5.94,15C59,69.73,65.47,75.66,70.59,74.49c2.78-.64,5.19-2.76,7.16-4.68,2.15-2.1,4.44-4.36,5.65-7.16a47.51,47.51,0,0,0,2.5-7.71,42.27,42.27,0,0,0,1-5.7c.09-1,.79-1.56.79-2.54,0-.65.24-.68.22-1.33a6.13,6.13,0,0,0-.15-.94c0-.15-.07-.29-.09-.44A1.77,1.77,0,0,1,87.72,43.55Z" fill="#fce7d4" stroke="#020202" stroke-miterlimit="10" stroke-width="0.75"/><path d="M75.19,50c.48.8.85,1.46.19,2.35a3.5,3.5,0,0,1-3.49,1.16,7.8,7.8,0,0,0-2-.29c-.38,0-1.3.06-1.59-.17s-.39-1.1.09-1.24" fill="none" stroke="#231f20" stroke-miterlimit="10" stroke-width="0.75"/><path d="M79.7,73.57l9.24,6.3s4.81-19.78,4.86-28c.06-11.41-4.41-22-9.8-30.64s-10.32-8-11.66-8.17-2.48-.82-3.79-.87c-7.36-.33-15.33.85-20.29,5.76-4.7,4.66-10.5,14.53-10.8,21.31-.08,1.62-.12,3.25-.11,4.87a95.29,95.29,0,0,0,1.13,15.9c.43,2.72,3.65,10.64,5.51,12.86.09.11.18.23.28.34a21.09,21.09,0,0,0,3.5,3.24c1.55,1.18,3.15,2.29,4.76,3.39,1.2.82,2.42,1.64,3.63,2.44,1,.67,1.92,1.45,2.94,2.09s2.18,1.24,1.63-.58c-3-9.79-14.45-40.45-.89-52.74A78.33,78.33,0,0,0,71.13,17.49a7.33,7.33,0,0,1,5.16.06,10,10,0,0,1,4,3.28,23.24,23.24,0,0,1,2.94,5.27,47.61,47.61,0,0,1,2,6q.73,2.78,1.24,5.6a36.89,36.89,0,0,1,1,4.5A28.19,28.19,0,0,1,86.93,48c-.26,1.88-.73,3.72-1.13,5.58C84.58,59.22,84,61.87,83,63.43a57.09,57.09,0,0,1-3.7,4.81S79.53,73.06,79.7,73.57Z" fill="#dcb1e0" stroke="#020202" stroke-miterlimit="10" stroke-width="0.75"/><path d="M75.4,33.78S78.58,32,80.13,32s3.38,1.74,3.88,2.39" fill="none" stroke="#020202" stroke-miterlimit="10" stroke-width="0.75"/><path d="M65.05,33.82s-2.23-3-4.25-3.6" fill="none" stroke="#020202" stroke-miterlimit="10" stroke-width="0.75"/><circle cx="61.79" cy="42.72" r="5.44" fill="#020202" stroke="#020202" stroke-miterlimit="10" stroke-width="0.75"/><circle cx="80.42" cy="42.72" r="5.44" fill="#020202" stroke="#020202" stroke-miterlimit="10" stroke-width="0.75"/><path d="M75,42.72a6.55,6.55,0,0,0-3.88-1.6,6.23,6.23,0,0,0-3.87,1.6" fill="none" stroke="#020202" stroke-miterlimit="10" stroke-width="0.75"/><g id="zipper"><path d="M61.18,62.8A14.21,14.21,0,0,1,65.74,62c1.55.22,4.11,2.22,5.37,2.46" fill="none" stroke="#020202" stroke-miterlimit="10" stroke-width="0.75"/><path id="cigarette-2" data-name="cigarette" d="M33.16,38.41S26.84,35.07,28.53,31s8.18-10.24,6.89-5.61S28.77,35.29,24.9,32,19.76,18.9,21.6,16.85" fill="none" stroke="#000" stroke-miterlimit="10" stroke-width="0.75"/><path d="M61.42,62.89l-7.57,9.16s-.65.36.2.84,1.44.85,1.44.85l1.34-1.53c1-1.15,2.33-2.74,3.35-3.9s2.11-2.36,3.13-3.52c.38-.44.62-.87,1-1.3l.54-.62a3.43,3.43,0,0,0,.43-.5.21.21,0,0,0,0-.19c-.1-.18-.64,0-.79,0-.39,0-.77,0-1.15.09A5,5,0,0,0,61.42,62.89Z" fill="#fff" stroke="#000" stroke-miterlimit="10" stroke-width="0.75"/></g></g></svg>