<?xml version="1.0" encoding="utf-8"?>
<!-- Generator: Adobe Illustrator 24.0.3, SVG Export Plug-In . SVG Version: 6.00 Build 0)  -->
<svg version="1.1" id="Layer_1" xmlns="http://www.w3.org/2000/svg" xmlns:xlink="http://www.w3.org/1999/xlink" x="0px" y="0px"
	 viewBox="0 0 125 125" style="enable-background:new 0 0 125 125;" xml:space="preserve">
<style type="text/css">
	.st0{fill:#FCE7D4;stroke:#020202;stroke-width:0.75;stroke-miterlimit:10;}
	.st1{fill:#FFFFFF;stroke:#000000;stroke-width:0.75;stroke-miterlimit:10;}
	.st2{fill:#8E570E;stroke:#000000;stroke-width:0.75;stroke-miterlimit:10;}
	.st3{fill:#F44711;stroke:#020202;stroke-width:0.75;stroke-miterlimit:10;}
	.st4{fill:none;stroke:#000000;stroke-width:0.75;stroke-miterlimit:10;}
	.st5{fill:#0096FF;stroke:#020202;stroke-width:0.75;stroke-miterlimit:10;}
	.st6{fill:none;stroke:#020202;stroke-width:0.75;stroke-miterlimit:10;}
	.st7{fill:#073E75;stroke:#000000;stroke-width:0.75;stroke-miterlimit:10;}
	.st8{fill:#F9F7E1;stroke:#020202;stroke-width:0.75;stroke-miterlimit:10;}
	.st9{fill:#E8E9EA;stroke:#000000;stroke-width:0.75;stroke-miterlimit:10;}
</style>
<title>Artboard 3</title>
<g id="person_7">
	<g id="head_copy_2">
		<path id="neck" class="st0" d="M78.6,86.7c0,0-3.3-1.8-3.3-2.4S75,76.2,75,76.2H50.7c0,0,0.3,7.5-0.2,8.1
			c-1.6,1.8-5.1,3.2-6.1,5.6c-1.6,3.8,3.6,8.4,6.2,9.5c5.4,2.3,13,2.3,18.8,0.9c4.4-1,8.3-3.4,11.2-6.9
			C82.3,91.2,82.7,88.9,78.6,86.7z"/>
		<path id="face-2" class="st0" d="M79.3,60.4c0,0-0.5,8.6-0.7,9.3c-0.3,1.2-0.8,2.3-1.4,3.3c-1.6,2.4-3.3,4.8-5.1,7
			c-0.9,1-2.9,3.8-4,4.2c-1.8,0.5-3.6,0.8-5.5,0.9c-1.2-0.1-5.4-0.6-6.3-1.2s-4.1-4.3-6.7-7.8s-4-6.3-4.2-7.2
			c-0.2-1.3-0.2-2.7-0.2-4l-0.5,0.1c0,0-0.1,0.9-0.8,1c-1.1,0.1-1.8-1.3-2.1-2.1c-0.5-1.4-0.3-3-0.8-4.5s-2.9-6.4-1-7.7
			c1.6-1.1,3.1,0.5,3.6,2c0.2,0.5,0.3,1,0.4,1.5l0.3-0.1c0,0,0-2.8,0-4.7c0.1-3.6-1-7.7,0.3-11.2c4.5-11.6,8.7-12,19.1-12.4
			c9.3-0.3,14.5,7.2,15.2,10.7c0.6,2.7,0.9,5.6,0.8,8.4c-0.1,2.5-0.5,8.9-0.5,8.9l0.3,0.1c0.3-1.1,0.8-2.1,1.2-3.1
			c0.3-0.8,1.3-1.2,2.1-0.9c0.8,0.3,1.2,1.3,0.9,2.1l0,0c-0.3,1-0.8,3.9-1,5c-0.1,0.8-0.1,1.7,0,2.5c0,0.8-0.3,3.5-1.5,3.4
			C80.7,63.8,78.9,63.9,79.3,60.4z"/>
	</g>
	<g id="sweater_copy_2">
		<path id="Sweater-4" class="st1" d="M118.8,125c0,0-2.5-11.6-4.7-15.8c-2.6-4.9-6.8-8.7-11.8-11.1C96.9,95.7,78.6,84,78.6,84.7
			c0.2,4-1.2,7.9-3.8,10.8c-3.8,4.1-17.4,2.9-22.6,0.4c-2.9-1.4-5-4-5.6-7.2c-0.3-1-0.7-2.5-0.7-2.5S24.7,97.3,22.4,98.4
			s-5.7,2.6-7.9,5.4S8,117.4,7.3,120.5c-0.4,1.3-0.6,2.7-0.6,4.1"/>
	</g>
	<g id="hair_copy_2">
		<path class="st2" d="M49.3,27.3c0,0,1.6-6.7,5.3-8.8c4.6-2.5,8.9-1,13,1.1c3.4,1.7,6.5,3.9,9.2,6.5c3,2.7,6.8,7.5,7,8.3
			c0.2,0.9,0.2,1.8,0,2.6c-0.1,0.5-1.1,1.3-1.1,1.3s0.7,5.4-0.7,7.7c-1.8,3.1-1.9,7.6-2.2,8.7s-0.7,0.7-0.7,0.6s0.1-9.4-0.3-10.5
			s-1.2-2.2-0.8-3.2c0.3-1.1,0.5-2.1,0.6-3.2c0,0-4.2-3.1-5.1-3.7s-4.1-2.4-5.7-2.5c-1.7-0.1-3.3,0.1-4.9,0.6
			c-1.8,0.6-2.2,1.7-2.7,1.6s-2.9-1.9-6.1-2s-4.9,0-6.2,1.3s-2.6,2.8-2.4,5.3c0.2,1.2,0.2,2.4,0,3.6c-0.4,0.9-0.7,1.8-0.8,2.7
			c0,1,0.1,10.2,0,10.5s-0.5-0.1-0.7-1s-0.7-5.3-0.8-6.2s-2.4-6-2.5-8.3S39.8,35,41,32s2.2-4.5,3.2-5.3S48.4,26.7,49.3,27.3z"/>
	</g>
	<g id="nose_copy_2">
		<path class="st0" d="M62.2,60.1c0,0,6-2.1,5.5,1.5s-6.2,3.1-6.2,3.1"/>
	</g>
	<g id="hat_copy">
		<path class="st3" d="M42.8,29.5c0,0,0.7-6.1,3.6-8.7s3.8-4.6,6.8-5.8c2.5-1.1,5.2-1.7,7.9-1.8c2.2,0,7.2,1.4,10.9,3
			c3.3,1.3,5.9,3.8,7.3,7.1c0.9,2.3,1.6,4.7,2,7.2C81.5,32,43.1,31.5,42.8,29.5z"/>
		<path class="st3" d="M41.3,45.4c0,0-1.7-3.8,0.7-5.6s8.3-6,16.8-5.4s10.1-1.2,16.2,1.7s8.5,6.7,8.3,7.5s1.8-4.6,1.4-7.5
			s-0.2-4.3-5-7.9c-4.6-3.4-10.3-5.2-16-5C58.5,23.5,52.3,23,49,25.2s-7.8,4.7-8.4,7.7S38.5,43,41.3,45.4z"/>
	</g>
	<g id="eyes-4">
		<path d="M73.8,46.6c1.9,0,3.8,0.3,5.7,0.8c-0.4,2.4-1,4.7-1.8,7c-1.7,0.4-3.4,0.7-5.2,0.7c-0.4,0-1,0-1.8,0
			c-1.3,0.1-2.6,0-3.8-0.4c-0.7-0.5-2.6-5.1-3-6.5c2.7-0.9,5.4-1.4,8.2-1.5C72.6,46.6,73.2,46.6,73.8,46.6 M73.8,45.8
			c-0.6,0-1.1,0-1.7,0.1c-4.9,0.4-9,1.5-9,2s2.4,6.9,3.4,7.4c1.4,0.4,2.8,0.6,4.2,0.5c0.7,0,1.3,0,1.8,0c1.8-0.1,5.4-0.4,5.7-1
			s2.1-6,2-8C78.2,46.1,76,45.8,73.8,45.8L73.8,45.8z"/>
		<path d="M50.5,46.6c0.6,0,1.1,0,1.7,0.1c2.8,0.1,5.6,0.7,8.2,1.5c-0.4,1.4-2.3,6-3,6.5c-1.2,0.4-2.6,0.5-3.8,0.4
			c-0.8,0-1.4,0-1.8,0h-0.2c-1.6,0-3.1-0.2-4.7-0.5c-0.9-2.3-1.6-4.7-2.1-7.2C46.7,46.9,48.6,46.7,50.5,46.6 M50.5,45.9
			c-2.2,0-4.4,0.3-6.5,1c-0.1,2,1.9,7.7,2.2,8.2s3.6,0.7,5.5,0.8c0.5,0,1.2,0,1.8,0c1.4,0.1,2.8-0.1,4.2-0.5c1-0.5,3.4-6.9,3.4-7.4
			s-4.1-1.7-9-2C51.6,45.9,51,45.9,50.5,45.9L50.5,45.9z"/>
		<path class="st4" d="M60,50.1c0,0,2.7-1,4.7,0"/>
		<path id="Eye" class="st5" d="M55.8,51.8c0,1.5-0.5,1.1-1.2,1.1s-1.2,0.4-1.2-1.1s0-2.7,1.2-2.7C55.4,49.1,55.8,50.3,55.8,51.8z"
			/>
		<path id="Eye-2" class="st5" d="M74.3,51.3c0,1.6-0.5,1.2-1.2,1.2s-1.2,0.4-1.2-1.2s0-2.9,1.2-2.9C73.9,48.4,74.3,49.7,74.3,51.3z
			"/>
		<path class="st6" d="M67.4,45.4c0,0,4.5-4.1,6.9-4"/>
		<path class="st6" d="M58.6,46.5c-1.9-0.8-6.1-3.6-8-3.2"/>
	</g>
	<g id="mouth_copy_2">
		<path class="st6" d="M58,74.2c1.5-0.5,3-0.8,4.6-0.8c1.5,0.2,4.1,2.2,5.4,2.5"/>
	</g>
	<g id="jacket">
		<path class="st7" d="M120,125c-0.2-5-1.5-8.5-2.8-13c-0.2-0.7-0.4-1.4-0.6-2.1c-1-3.9-1.8-8.1-4.4-11.2c-2.1-2.4-5.1-3.9-8.1-5
			c-8.4-3.1-17.6-5-25.6-8.9c0,3.3-1.5,7.4-3,10.3c-1.2,2.3-2.4,4.7-4.6,6.1c-0.9,0.4-1.8,0.8-2.7,1.3c0,0,0.1,1.5,0.1,2.5
			c-0.1,2.3-0.1,4.7-0.1,7c0,4.7,0,8.3,0.2,13"/>
		<path class="st7" d="M57.9,125.1c0.4-7.9,0.4-14.8,0.1-22.8c-0.6-0.2-1.1-0.5-1.6-0.8c-0.8-0.7-1.6-1.5-2.2-2.3
			c-3.1-4-5.3-8.5-6.5-13.4c-8.3,3.3-23.7,6.8-31.4,10.3c-6.7,3.1-8.6,15.3-9.7,29"/>
		<polyline class="st7" points="44.9,125 45.1,117 24.7,116.8 24.4,125 		"/>
	</g>
	<g id="jacket_shearling">
		<line class="st4" x1="51.3" y1="105.7" x2="51.3" y2="125.1"/>
		<line class="st4" x1="78.6" y1="105.7" x2="78.6" y2="125.1"/>
		<path class="st8" d="M61.3,124.9c0-0.7-0.3-0.9-0.1-1.8c0.2-1.5,0.3-3,0.3-4.5c-0.1-0.9-0.2-1.9-0.4-2.8c0.2-1,0.4-2.1,0.4-3.1
			c-0.1-0.7,0.2-7.2,0.2-8.4s-2.7-2.2-3.7-2.7s-2.6-2.2-3.4-2.6s-1.7-0.6-1.8-1.2s-0.7-2-0.7-2c-0.4-0.7-0.6-1.5-0.7-2.3
			c0-1-0.7-3.9-0.7-5.1s-0.4-3.2-0.3-3.8s0.5-1.9,0.5-1.9v-5c-0.4-0.1-0.8-0.1-1.2,0c-0.5,0.1-0.6,0.8-0.6,0.8s-0.7,0.4-0.8,0.4
			c-0.9,0.5-1.4,0.6-1.5,1.6c-0.1,0.7-0.4,1.4-0.9,1.9c-0.4,0.3-0.8,0.6-1.2,1c-0.4,0.5-0.6,1-0.8,1.5c-0.1,0.2-0.1,0.4-0.1,0.6
			c-0.2,0.8-1.2,1.8-1.6,2.6c-0.2,0.4-0.1,0.8-0.2,1.1s-0.5,0.6-0.6,1c-0.1,0.6-0.2,1.3-0.2,1.9c0,0.7,0,1.4,0,2.1
			c0,1.2-0.1,2.3-0.1,3.5c0,0.8,0.2,1.6,0.2,2.3c0,0.6,0,1.2,0,1.8c0.1,0.5,0.2,1,0.3,1.6c-0.1,0.2-0.1,0.5-0.1,0.7
			c0.1,0.3,0.2,0.4,0.3,0.7s-0.1,0.6,0,0.9s0.2,0.8,0,1.1c0,0-0.7,0.9-0.6,1.5c0.2,0.9,1.4,1,2.2,1c1,0,1.9-0.1,2.9-0.2
			c0.5-0.1,0.7-0.7,1.1-1s1.1-0.1,1.7-0.4c0.3-0.2,0.5-0.4,0.8-0.6c0.8-0.8,1.9-1.7,3.1-1.5c0.4,0,0.7,0.1,1,0.2
			c0.7,0.2,1,0.4,1.8,0l1.2,0.2c0.3,0.1,0.6,0.5,0.6,0.8c0.1,0.6,0.1,1.1,0.2,1.7c0.2,0.8-0.7,1.4-0.3,2.1c-0.1,1-0.1,2,0,3
			c0.1,0.5,0.2,0.9,0.2,1.4c0.1,1-0.7,2-0.7,3c0,0.6,0.1,1.1,0.3,1.7c0,0,0.1,1.8,0.3,3.3c0.1,0.7,0.2,1.5,0.2,2.3"/>
		<path class="st8" d="M64.7,124.9c0.1-0.6,0.1-1.2,0-1.8c-0.2-1.5-0.3-3-0.3-4.5c0.1-0.9,0.2-1.9,0.4-2.8c-0.2-1-0.4-2.1-0.4-3.1
			c0.3-2.3-0.2-4.5,0-6.8s1.7-3.4,3.6-4.4c1-0.6,2.6-2.2,3.4-2.6s1.7-0.6,1.8-1.2s0.7-2,0.7-2c0.4-0.7,0.6-1.5,0.7-2.3
			c0-1,0.7-3.9,0.7-5.1s0.4-3.2,0.3-3.8s-0.5-1.9-0.5-1.9v-5c0.4-0.1,0.8-0.1,1.2,0c0.5,0.1,0.6,0.8,0.6,0.8s0.7,0.4,0.8,0.4
			c0.9,0.5,1.4,0.6,1.5,1.6c0.1,0.7,0.4,1.4,1,1.9c0.4,0.3,0.8,0.6,1.2,1c0.4,0.5,0.6,1,0.8,1.5c0.1,0.2,0.1,0.4,0.1,0.6
			c0.2,0.8,1.2,1.8,1.6,2.6c0.2,0.4,0.1,0.8,0.2,1.1s0.5,0.6,0.6,1c0.1,0.6,0.2,1.3,0.2,1.9c0,0.7,0,1.4,0,2.1
			c0,1.2,0.1,2.3,0.1,3.5c0,0.8-0.2,1.6-0.2,2.3c-0.1,1.2,0.2,2.4,0.1,3.7c-0.1,1-0.8,2-0.1,2.9c0,0.5,0,1-0.1,1.5
			c-0.2,0.9-0.8,1-1.5,1c-1,0-1.9,0-2.9-0.2c-0.5-0.1-0.7-0.7-1.1-1s-1.5,0-2-0.3c-0.3-0.2-0.4-0.5-0.7-0.6c-4-1.2-7.1-0.1-7.9,1.2
			c-0.4,0.7,0.7,1.4,0.3,2.1c0.1,1,0.1,2,0,3c-0.1,0.5-0.2,0.9-0.2,1.4c-0.1,1,0.7,2,0.7,3c0,0.6-0.1,1.1-0.3,1.7
			c0,0-0.1,1.8-0.3,3.3c-0.1,0.8-0.1,1.5,0,2.3"/>
	</g>
	<circle id="button" class="st9" cx="73.6" cy="118.4" r="2.4"/>
	<g id="stubble">
		<line class="st4" x1="50.4" y1="67.7" x2="50.4" y2="68.3"/>
		<line class="st4" x1="48.2" y1="62.3" x2="48.2" y2="62.9"/>
		<line class="st4" x1="49.5" y1="71.3" x2="49.5" y2="71.9"/>
		<line class="st4" x1="55.2" y1="68.7" x2="55.2" y2="69.3"/>
		<line class="st4" x1="52.3" y1="73.2" x2="52.3" y2="73.8"/>
		<line class="st4" x1="53.2" y1="63.3" x2="53.2" y2="63.9"/>
		<line class="st4" x1="70.8" y1="63.3" x2="70.8" y2="63.9"/>
		<line class="st4" x1="75.3" y1="63" x2="75.3" y2="63.6"/>
		<line class="st4" x1="69.8" y1="68.1" x2="69.8" y2="68.7"/>
		<line class="st4" x1="66.8" y1="70.2" x2="66.8" y2="70.8"/>
		<line class="st4" x1="65.7" y1="80.3" x2="65.7" y2="80.9"/>
		<line class="st4" x1="59.4" y1="81.2" x2="59.4" y2="81.8"/>
		<line class="st4" x1="61.3" y1="78.7" x2="61.3" y2="79.4"/>
		<line class="st4" x1="74.1" y1="70.3" x2="74.1" y2="70.9"/>
		<line class="st4" x1="77.2" y1="68.3" x2="77.2" y2="69"/>
	</g>
	<g id="cigarette_copy">
		<path id="cigarette-2" class="st4" d="M32.4,57.4c0,0-6.4-3.4-4.6-7.5s8.2-10.2,6.9-5.6S28,54.3,24.1,51S19,37.9,20.8,35.8"/>
		<path class="st1" d="M58.2,74.3l-7.6,9.2c0,0-0.7,0.4,0.2,0.8l1.4,0.8l1.3-1.5c1-1.2,2.3-2.7,3.3-3.9s2.1-2.4,3.1-3.5
			c0.4-0.4,0.6-0.9,1-1.3l0.5-0.6c0.2-0.2,0.3-0.3,0.4-0.5c0-0.1,0-0.1,0-0.2c-0.1-0.2-0.6-0.1-0.8,0l-1.2,0.1
			C59.5,73.8,58.8,74,58.2,74.3z"/>
	</g>
</g>
</svg>
