<?xml version="1.0" encoding="utf-8"?>
<!-- Generator: Adobe Illustrator 23.0.1, SVG Export Plug-In . SVG Version: 6.00 Build 0)  -->
<svg version="1.1" id="Layer_1" xmlns="http://www.w3.org/2000/svg" xmlns:xlink="http://www.w3.org/1999/xlink" x="0px" y="0px"
	 viewBox="0 0 125 125" style="enable-background:new 0 0 125 125;" xml:space="preserve">
<style type="text/css">
	.st0{fill:#D19A75;stroke:#020202;stroke-width:0.75;stroke-miterlimit:10;}
	.st1{fill:#F7DE48;stroke:#020202;stroke-width:0.75;stroke-miterlimit:10;}
	.st2{fill:none;stroke:#000000;stroke-width:0.75;stroke-miterlimit:10;}
	.st3{fill:#23211B;stroke:#000000;stroke-width:0.75;stroke-miterlimit:10;}
	.st4{fill:#FFFFFF;}
	.st5{fill:#D1CDB0;stroke:#020202;stroke-width:0.75;stroke-miterlimit:10;}
	.st6{fill:#FFFFFF;stroke:#000000;stroke-width:0.75;stroke-miterlimit:10;}
	.st7{fill:#020202;stroke:#020202;stroke-width:0.75;stroke-miterlimit:10;}
	.st8{fill:#FCE8EA;}
	.st9{fill:#F9F7E1;stroke:#020202;stroke-width:0.75;stroke-miterlimit:10;}
</style>
<title>Artboard 4</title>
<g id="person_10">
	<g id="neck">
		<path class="st0" d="M53.9,69.7c0,0-0.5,6.2-1.4,8.4s-12.1,4.8-12.1,4.8s-1.4,1.4-0.7,2.7s17,7.3,26.7,6.7s22.2-5.8,23.7-6.7
			s0.6-1.7,0.6-1.7s-13.2-2.7-14.5-5.1S75,69.3,75,69.3L53.9,69.7z"/>
	</g>
	<g id="shirt">
		<path class="st1" d="M115.6,125c0,0-3.1-6.4-4-9.6s0.2-15.4-0.3-18.6s-1.5-7.1-2.6-9.1s-4.5-5.8-5.6-6s-1.3-0.3-2,0
			c-0.6,0.4-1.2,0.8-1.7,1.3L90.1,83c0,0-13.3,6.6-25.7,6.8s-24.7-7.3-24.7-7.3l-9,2.2c-1.2-0.7-2.6-1.1-4-1.3
			c-1.4,0.1-2.7,1-3.3,2.2c-1,2-1.4,3.3-3.5,11.2s1.1,15.7,0.4,20.2s-2.1,8.1-2.1,8.1"/>
		<path class="st2" d="M98.2,92.3c0,0,0.4-8,1.3-9.4"/>
		<path class="st2" d="M33.4,92.3c0,0-0.8-5.5-2.7-7.7"/>
		<path class="st2" d="M97.4,105.5c-2.6-0.7-0.7,3.6-0.2,4.6c1.1,2.4,2.7,4.7,3.2,7.3c0.7,3.4-1.5,5.1-3.5,7.6"/>
		<path class="st2" d="M38.1,107.2c2.6-0.7,0.7,3.7,0.2,4.6c-1.1,2.4-2.7,4.7-3,7.4c-0.3,2.8,1.6,4.3,3.6,5.8"/>
	</g>
	<path id="iphone_2_" class="st3" d="M64,125c-0.3-1.1-0.4-2.8-0.4-3.9l-0.1-9c-0.2-3.5-0.3-6.9-0.5-10.4c-0.1-2.6-0.2-5.2-0.3-7.9
		c0-1.9-0.7-5.2,1.1-6.7c0.9-0.8,2.5-0.5,3.7-0.5c3.1,0,6.2,0.2,9.3,0c1,0,2.6-0.3,3.5,0.2c1.2,0.8,0.8,2.7,0.9,4
		c0.2,2.9,0.3,5.7,0.4,8.6c0,0,0.9,24.9,0.9,25.4"/>
	<g id="Layer_83">
		<path id="hand_1_" class="st0" d="M85.4,125c0,0,0.5-9.8,0.2-11.1c-0.8-2.3-1.7-4.6-2.8-6.8c-0.7-1.1-0.8-1.6-1.8-1.9
			s-9.5-0.3-9.8-0.2s-1.1,0.3-1.1,0.3s-1.4-0.1-1.4,0.2s-0.1,1.8,0.1,1.9c0.5,0,1,0,1.4,0.1c0.3,0.2,0.7,0.7,1.2,0.8
			s7.3,0.3,7.4,0.6c0.4,0.9,0.7,1.9,0.8,2.8c0,0.8,0,1.3,0,1.3c-1.6-0.5-3.3-0.9-5-1.2c-1.2,0-8.9-0.1-9.5,0.1s-0.8,0.7-1.2,0.6
			s-1.3-0.4-1.5,0s-0.5,2.1-0.3,2.1s1.5,0.2,1.5,0.2s0.1,0.5,0.5,0.5s0.6,0,0.6,0c-0.6,0-1.2,0.1-1.8,0.2c-0.1,0.2-0.2,0.3-0.4,0.3
			s-1.2,0-1.3,0.1c-0.1,0.5-0.2,1-0.2,1.6c0,0.2,1,0.2,1.1,0.2s0.1,0.4,0.2,0.6c1,0.2,2,0.2,3,0.2c0,0-1,0.1-1.1,0.3s0,0.4-0.2,0.4
			s-0.9-0.1-1,0s-0.3,1.5-0.1,1.6s1.4,0.1,1.5,0.1s0,0.5,0.1,0.6s3.1,0.1,4.2,0.3s4.9,1.7,5.4,3.2"/>
		<path class="st2" d="M77.9,117.2c0,0-4-1.8-5.6-1.9s-7.9,0-7.9,0"/>
		<path class="st2" d="M75.3,120.4c-1.4-0.7-2.9-1.2-4.5-1.6c-1.8-0.3-3.6-0.3-5.4-0.2"/>
	</g>
	<polygon class="st4" points="74.4,96.6 66.9,95 73.1,93.3 69.4,86 77.2,90 79.5,80.1 81.4,88.9 86.7,86.9 82.5,93.5 89.2,99.2 
		78.3,96.5 74.3,102.1 	"/>
	<path d="M79.5,81.8l1.5,6.7l0.2,0.9l0.8-0.3l3.8-1.5L82.4,93L82,93.6l0.5,0.4l5.3,4.5l-9.2-2.3l-0.5-0.1l-0.3,0.4l-3.2,4.4v-4v-0.6
		l-0.6-0.1l-5.6-1.2l4.2-1.1l0.9-0.2l-0.4-0.8l-2.9-5.9l6.4,3.3l0.9,0.4l0.2-0.9L79.5,81.8 M79.5,78.4l-2.5,11l-8.4-4.3l3.9,8
		L65.4,95l8.6,1.9l-0.1,6.4l4.5-6.3l12.2,3L83,93.4l4.7-7.3l-5.9,2.3L79.5,78.4L79.5,78.4z"/>
	<path class="st5" d="M117.7,31.4c0,0-10.1,5-14.4,7.9S47.9,49.7,38,47.8S8.8,43,7.2,45s-1.4,2.7-0.4,5.3s5.5,10.6,14.5,12.5
		s31.3,2.4,42.7,1.4s17.7-2.4,24.8-6.2s14.4-8.3,17.7-11.1s6.8-5.3,9.6-8.8c1-1.2,1.6-2.6,1.9-4C118.1,33.6,118.6,30.9,117.7,31.4z"
		/>
	<path id="head-3" class="st0" d="M43.6,51.9c0,0,2.3,12.6,8,16.9s7.9,7.9,14,7.9S76.9,67.8,80,61s4.4-13,3.9-16.5
		S78,19.1,63.1,19.1C44,19,42.5,41.8,43.6,51.9z"/>
	<path id="nose-4" class="st2" d="M68.4,54.4c0.7,1.8,4.8,4.5,4.3,5.4s-8.6-0.3-8.6-1"/>
	<g id="hair-4">
		<path class="st6" d="M53.6,72.2l-10.3,0.7c-0.4,0.1-2.4-6-2.6-6.6c-1.9-5.8-1.9-8.1-1.8-14.1V51l4.6,0.7c0,0,1.3,8,3.5,11.4
			c1,1.8,2.2,3.5,3.6,5c0.8,0.8,3,2.7,3,2.7L53.6,72.2z"/>
		<path class="st6" d="M75,72l8.5,0.8c0.4,0.1,2.4-5.9,2.6-6.6c1.9-5.8,1.9-8.1,1.8-14.1v-1.2l-4.6,0.7c-0.9,3.6-2.1,7.2-3.6,10.6
			c-0.8,1.8-1.7,3.6-2.8,5.2c-0.6,1-1.8,2.9-1.8,2.9L75,72z"/>
	</g>
	<circle id="beauty_mark" class="st7" cx="72.7" cy="63.3" r="0.7"/>
	<path id="mouth-4" class="st6" d="M64.9,68.3c-0.5,1.3-1.2,1.1-3.5,0.3s-4.8-1.6-4.3-3s3.2-2.2,5.6-1.3
		C64.9,65.1,65.4,67,64.9,68.3z"/>
	<g id="diamond_ring">
		<polygon class="st4" points="71.6,119.5 70.8,117.8 71.6,115.2 73.3,114.9 76.7,116.1 77.5,118 76.8,120.1 74.9,120.9 		"/>
		<path d="M73.2,115.3l3.2,1.1l0.7,1.6l-0.6,1.8l-1.6,0.7l-3-1.3l-0.7-1.4l0.7-2.2L73.2,115.3 M73.3,114.5l-2,0.3l-0.9,2.9l0.9,2
			l3.6,1.6l2.2-1l0.8-2.4l-0.9-2.1L73.3,114.5L73.3,114.5z"/>
	</g>
	<g id="nails">
		<path class="st8" d="M64.7,114.6c0,0-0.1,0-0.1,0c-0.6,0-1.4-0.2-2-0.3c0,0-0.1,0-0.1,0c0,0,0-0.1,0-0.1c0-0.5,0.1-1,0.3-1.5
			c0.2,0,0.4,0,0.7,0c0.4,0,0.9,0.1,1.3,0.2c0,0,0.1,0,0.1,0c0,0,0,0.1,0,0.1c0,0.5-0.1,0.9-0.2,1.4
			C64.7,114.5,64.7,114.6,64.7,114.6z"/>
		<path class="st8" d="M63.4,117.8C63.4,117.8,63.3,117.8,63.4,117.8c-0.6,0-1.3-0.2-1.8-0.2c0,0-0.1,0-0.1,0c0,0,0-0.1,0-0.1
			c0-0.4,0-0.9,0.2-1.3c0.2,0,0.4,0,0.6,0c0.4,0,0.8,0.1,1.2,0.1c0,0,0.1,0,0.1,0c0,0,0,0.1,0,0.1c0,0.4-0.1,0.8-0.1,1.2
			C63.4,117.7,63.4,117.7,63.4,117.8z"/>
		<path class="st8" d="M70.7,107.1C70.7,107.1,70.7,107.1,70.7,107.1c-0.6,0-1.2,0-1.7,0c0,0-0.1,0-0.1,0c0,0-0.1-0.1-0.1-0.1
			c-0.1-0.4,0-0.8,0.1-1.2c0.2-0.1,0.4-0.1,0.5-0.1c0.3,0,0.8,0,1.1,0c0,0,0.1,0,0.1,0c0,0,0,0.1,0,0.1c0,0.4,0,0.7,0,1.1
			C70.7,106.9,70.8,107,70.7,107.1z"/>
		<path class="st8" d="M64.7,120.6C64.7,120.6,64.7,120.6,64.7,120.6c-0.4,0-1-0.1-1.3-0.1c0,0,0,0-0.1,0c0,0,0-0.1,0-0.1
			c-0.1-0.3,0-0.7,0.1-1c0.1,0,0.3,0,0.4,0c0.3,0,0.6,0,0.9,0c0,0,0.1,0,0.1,0c0,0,0,0.1,0,0.1c0,0.3,0,0.6,0,0.9
			C64.8,120.5,64.8,120.6,64.7,120.6C64.7,120.6,64.7,120.6,64.7,120.6z"/>
	</g>
	<g id="hat-2">
		<path class="st9" d="M40.6,39.5c0.8-0.1,3.2-9.6,3.7-10.8c1.3-3.8,3.3-7.3,5.8-10.5c6-7,15-5.7,22-1.5c3.3,1.9,6.1,4.5,8.2,7.6
			c0.5,0.8,3.8,7.4,4.7,7.2L40.6,39.5z"/>
		<path class="st9" d="M8.4,44.9c0,0,23.1-4.9,27.4-6.3s20.4-10,29.6-10s11.3,1.1,23.2,2s28.6,0.9,29.3,0.5s-4.2,4.4-7.2,6.9
			S86.5,56.3,72,55s-49.2-6.3-54.1-7.3C14.7,47,11.5,46.1,8.4,44.9z"/>
	</g>
</g>
</svg>
