<?xml version="1.0" encoding="utf-8"?>
<!-- Generator: Adobe Illustrator 24.0.3, SVG Export Plug-In . SVG Version: 6.00 Build 0)  -->
<svg version="1.1" id="Layer_1" xmlns="http://www.w3.org/2000/svg" xmlns:xlink="http://www.w3.org/1999/xlink" x="0px" y="0px"
	 viewBox="0 0 125 134.8" style="enable-background:new 0 0 125 134.8;" xml:space="preserve">
<style type="text/css">
	.st0{fill:#FCE7D4;stroke:#020202;stroke-width:0.75;stroke-miterlimit:10;}
	.st1{fill:none;stroke:#020202;stroke-width:0.75;stroke-miterlimit:10;}
	.st2{fill:#F99C16;stroke:#000000;stroke-width:0.75;stroke-miterlimit:10;}
	.st3{fill:#008E19;stroke:#020202;stroke-width:0.75;stroke-miterlimit:10;}
	.st4{fill:#FFFFFF;stroke:#000000;stroke-width:0.75;stroke-miterlimit:10;}
	.st5{fill:none;stroke:#000000;stroke-width:0.75;stroke-miterlimit:10;}
	.st6{fill:none;stroke:#020202;stroke-width:3;stroke-miterlimit:10;}
	.st7{fill:#FFFFFF;stroke:#020202;stroke-width:0.75;stroke-miterlimit:10;}
	.st8{fill:#3CAA33;}
</style>
<title>Artboard 21 copy</title>
<g id="person_13">
	<path id="neck-2" class="st0" d="M51.2,80.5c0,0-0.3,12-0.7,13.3S43,96,41.4,97.9s1,5.4,2.2,6.7c5.8,6.5,20.5,7.2,28.3,5.6
		c4.3-0.9,13.8-6.2,14.6-11.2c0.4-2.4-6.8-3.8-8.5-4.9s-2.5-13.9-2.5-13.9L51.2,80.5z"/>
	<path id="head-3" class="st0" d="M62.5,36c-3.4-0.1-6.9,0.4-10.2,1.5c-2.2,0.6-4.2,2-5.5,3.9c-0.6,1.2-1.1,2.4-1.3,3.7
		c-1.1,4.8-1.9,9.5-2.6,14.4c-0.3-0.8-0.2-1.5-0.5-2s-1.8-0.5-2,0.5c-0.1,0.9,0.1,1.7,0.5,2.5c0.4,0.8,0.7,1.7,0.9,2.6
		c0.5,3.1-0.3,3.3,0,5.7c0.2,0.7,0.6,1.3,1.2,1.6c0.2,0.1,1.2,0.4,1.2-0.1c0,2.9,0.4,5.7,1.1,8.5c1.1,3.4,4.6,6.1,7.1,8.3
		c1.9,1.8,4,3.3,6.3,4.5c6.2,2.8,12.3-1.2,15.7-6.4c2.3-3.5,5.4-5.9,5.8-10c0.3-1.5,0.5-3,0.5-4.5c0-0.4,0.6-0.3,0.8-0.3
		c1.7,0.1,2-2.3,2.2-3.6c0.3-2.1,0.2-4.4,1-6.4c0.4-1,1.6-2.5,0.3-3.4c-0.7-0.5-1.7-0.5-2.4,0c-0.9,0.6-0.9,1.6-1.2,2.5
		c-0.1-4.5-0.8-8.9-2-13.2c-0.3-1.4-0.9-2.7-1.6-3.8c-1.4-2.1-3.4-3.8-5.7-4.8c-1.6-0.7-3.2-1.2-4.9-1.5C65.8,36.1,64.2,36,62.5,36z
		"/>
	<path id="nose-4" class="st1" d="M63,68.1c-1.2,3.5-8.2,2.7-8.4,4.6c-0.2,2.9,5.1,2.4,7.3,1.4"/>
	<g id="hair-6">
		<path class="st2" d="M80.9,57.5c0,0,0.3-10.6-2.8-12.2c-2.8-1.5-5.6-3.2-8.8-3.6c-3.3-0.4-6.7-0.6-10-0.5c-2.7,0.2-8.1-0.1-10,2.4
			c-1.5,2-5.2,18.6-6,17.5c-1.3-2-2.2-4.2-2.5-6.6c-0.6-4.3-0.1-8.6,1.5-12.6c1.6-3.8,0-2.7,2.3-6.1c2-2.7,4.6-5.1,7.5-6.8
			c1.1-0.6,0.8-1.1,1.2-1.2c0.2-0.1,0.5-0.2,0.6-0.4c0,0-1.2-2.5-1.6-3.6c-0.5-1.2-0.9-2.4-1.2-3.6c-0.3-1.3,0-2.6,0.8-3.6
			c0.8-0.9,2.1-2.5,3.2-2.8c1.8-0.4,3.6-0.3,5.3,0.2c0.9,0.3,1.5,0.7,2.2,0.4s1.8-1.8,2.8-1.9c1.8,0,5.2,1.5,5.7,3.4
			s0.1,1.7,1.7,2.7s3,4.2,3.4,6c0.3,1.3,0,3.1-1.7,3.6c-0.6,0.2-1.6,0.4-1.6,0.4s1.7,1.1,1.8,1.8c0,0.4,0,0.8,0,1.2
			c0.2,0.3,0.4,0.6,0.6,0.9c0,0,7.3,3.1,8.1,6s0.3,3.8,1.2,4.8c1.1,1.4,1.7,3.2,1.6,5c-0.1,2.4-0.5,4.8-1.1,7.2
			c-0.2,0.9-1.8,3.1-2.3,4s-1.5,3-1.9,2.7S80.9,58,80.9,57.5z"/>
		<path class="st1" d="M54,27.5c1.2-0.6,2.5-0.8,3.8-0.6c1.3,0.3,2.5,0.7,3.7,1.2"/>
		<path class="st1" d="M73.2,28.6c0,0-6.3,0.1-9.8-5"/>
		<path class="st1" d="M62.8,14.4c0.1,1.4,0.6,2.8,1.4,4c2.1,3.4,4.1,4,4.1,4"/>
		<path class="st1" d="M56.7,13.8c-1,2-1,4.3,0.1,6.2c0.8,1.7,2,3.2,3.5,4.4"/>
		<path class="st1" d="M76,32.6c-0.1,0.2-0.5-0.4-3.5-1.2"/>
		<path class="st1" d="M57.4,39c-1.3-1-3.2-2.8-2.8-4.7c0.5-1.5,1.5-2.7,2.8-3.6"/>
		<path class="st1" d="M71.2,39.7c0,0,4.6-1.9,3.6-4.2"/>
		<path class="st1" d="M62.8,38.7c0,0,3.5-0.9,2.4-3.8c-0.6-1.5-1-3-1.1-4.6"/>
	</g>
	<g id="eyes-7">
		<path class="st1" d="M65.8,53.5c4.3-0.6,9.5-5.3,11.3-1.2"/>
		<path class="st1" d="M57.7,57c-2.8-0.6-9.5-4.9-11.3-0.8"/>
		<circle class="st3" cx="71.3" cy="61.5" r="1.2"/>
		<circle class="st3" cx="53.2" cy="61.5" r="1.2"/>
		<path class="st1" d="M67.7,60.7c0,0,3.4-1.7,4.7-1.2s1.7,1.5,2.4,1.5"/>
		<path class="st1" d="M56.1,61.8c0,0-1.2-2.8-2.7-2.4c-1.1,0.2-2.1,0.5-3.1,0.9"/>
	</g>
	<path id="shirt-3" class="st4" d="M7,134.7c0.6-6.8,1.8-12.4,2.6-17.1s1-6.6,3.4-10.7s6.6-5.3,11-6.1c4.6-0.9,6.6-2,11.3-2.6
		c2.7-0.6,5.3-1.4,7.7-2.5c0.9-0.4,0.3,7.6,7.8,11.3c8.8,4.2,19.1,3.5,27.3-1.8c3.4-2.3,4.7-5.9,6.9-9.5c3.3,0.7,6.4,2.1,9.7,3.1
		c5.5,1.8,15.4,1.3,17.7,8.2c2.7,8,3.7,19.1,5.4,27.9"/>
	<g id="shirt_seams">
		<path class="st5" d="M37.2,97.8c0,0,1,7.1,4.7,11.3s9.1,6.7,20.9,6.7s18.1-4.1,19.9-5.9s6-8.3,8.2-12.5"/>
	</g>
	<line id="beauty_mark" class="st1" x1="76" y1="63.6" x2="76" y2="64.6"/>
	<g id="glasses-2">
		<path class="st6" d="M59.3,60.8c0.7-0.9,1.7-1.5,2.8-1.5c1.2,0.1,2.3,0.6,3,1.5"/>
		<path d="M51.7,52.9c-4.8,0-8.6,3.9-8.6,8.6s3.9,8.6,8.6,8.6s8.6-3.9,8.6-8.6S56.4,52.9,51.7,52.9C51.7,52.9,51.7,52.9,51.7,52.9z
			 M51.7,67.3c-3.2,0-5.8-2.6-5.8-5.8c0-3.2,2.6-5.8,5.8-5.8c3.2,0,5.8,2.6,5.8,5.8c0,0,0,0,0,0C57.5,64.7,54.9,67.3,51.7,67.3z"/>
		<path d="M72.5,52.9c-4.8,0-8.6,3.9-8.6,8.6s3.9,8.6,8.6,8.6c4.8,0,8.6-3.9,8.6-8.6c0,0,0,0,0,0C81.1,56.8,77.2,52.9,72.5,52.9z
			 M72.5,67.3c-3.2,0-5.8-2.6-5.8-5.8s2.6-5.8,5.8-5.8s5.8,2.6,5.8,5.8c0,0,0,0,0,0C78.3,64.7,75.7,67.3,72.5,67.3L72.5,67.3z"/>
	</g>
	<path id="mouth-4" class="st7" d="M66.7,82.9c0,2-4,2.2-4.5,2.2s-0.9-1.6-0.9-3.6s0.4-3.6,0.9-3.6S66.7,80.9,66.7,82.9z"/>
	<g id="stripe">
		<polygon class="st8" points="115.7,127.3 8.2,127.3 7.6,130.9 116.3,130.9 		"/>
		<polygon class="st8" points="114.8,119 9.6,119 9,122.7 115.4,122.7 		"/>
		<path class="st8" d="M43.3,111h-32c-0.3,0.5-0.5,1.1-0.6,1.7c-0.2,0.6-0.3,1.5-0.4,1.9H50L43.3,111z"/>
		<path class="st8" d="M37.8,102.4l-18.6,0.2c-0.2,0-0.5,0-0.7,0.1c-0.3,0.1-0.7,0.3-1,0.5s-0.8,0.4-1.2,0.6c-0.8,0.5-1.5,1.2-2.1,2
			c0,0-0.2,0.3-0.2,0.3l25.4-0.1c-0.3-0.5-0.2-0.3-0.3-0.7c-0.3-0.6-0.5-1.1-0.8-1.7C38,103,38,103,37.8,102.4z"/>
		<path class="st8" d="M88.3,102.6l19.9,0.2c0,0,0.1,0,0.1,0l0.2,0.1c0.4,0.2,0.6,0.3,0.9,0.5s0.4,0.4,0.6,0.5c0.4,0.3,0.7,0.6,1,1
			c0.3,0.3,0.5,0.6,0.7,1c0,0.1,0.1,0.2,0.1,0.3H85.9c0.4-0.4,0.2-0.3,0.4-0.8c0.7-1,0.5-0.7,1.1-1.7
			C87.8,103.4,88,103.1,88.3,102.6z"/>
		<path class="st8" d="M82.1,111h31.1c0,0,0.4,1.5,0.4,1.7c0.2,0.7,0.4,1.8,0.4,2H74.6l2.5-1.1c0.8-0.3,1.5-0.6,2.3-1l1.5-0.8
			l0.8-0.4C81.8,111.1,82,111,82.1,111z"/>
	</g>
</g>
</svg>
