<?xml version="1.0" encoding="utf-8"?>
<!-- Generator: Adobe Illustrator 24.0.3, SVG Export Plug-In . SVG Version: 6.00 Build 0)  -->
<svg version="1.1" id="Layer_1" xmlns="http://www.w3.org/2000/svg" xmlns:xlink="http://www.w3.org/1999/xlink" x="0px" y="0px"
	 viewBox="0 0 125 125" style="enable-background:new 0 0 125 125;" xml:space="preserve">
<style type="text/css">
	.st0{fill:#FCE7D4;stroke:#020202;stroke-width:0.75;stroke-miterlimit:10;}
	.st1{fill:#FCD8D6;stroke:#020202;stroke-width:0.75;stroke-miterlimit:10;}
	.st2{fill:#0B0B7F;stroke:#020202;stroke-width:0.75;stroke-miterlimit:10;}
	.st3{fill:none;stroke:#231F20;stroke-width:0.75;stroke-miterlimit:10;}
	.st4{fill:none;stroke:#020202;stroke-width:0.75;stroke-miterlimit:10;}
	.st5{fill:#0096FF;stroke:#020202;stroke-width:0.75;stroke-miterlimit:10;}
	.st6{fill:#020202;stroke:#020202;stroke-width:0.75;stroke-miterlimit:10;}
</style>
<title>Artboard 1 copy</title>
<g id="person_11">
	<path id="neck-2" class="st0" d="M73.5,72.8c0,0,0.7,10.3,1.4,11.3s3.3,2,5.6,2.9l5.3,2c0,0-3.2,6.1-8,9s-18.6,2.6-23.9,1.3
		S38.6,88.1,38.6,88.1s11.5-3.3,13.1-4.4s1.4-10.9,1.4-10.9S73.5,72.8,73.5,72.8z"/>
	<path id="jacket-2_2_" class="st1" d="M7.4,125.3c2.5-11.7,1.6-27.8,14.5-33c0.2-0.1,2.3-1.1,2.5-1.2c5.4-2.7,11.9-5.3,17.3-7.9
		c1.1-0.5,2.2-1.1,3.2-1.6c0.8-0.3,1.5-0.9,2-1.7c1.4-1.8,4.4-1.7,4.5-4.4c0-0.5,0-1,0-1.5c0.2-0.5,0.3-1,0.4-1.5
		c0-0.1-0.4-3.6-0.4-3.6S58,79.4,63.8,81.2l1.6,6.1l1.3-6.5c7-2.1,8.9-11.9,8.9-11.9c-0.2-1.2,0,3.3,0,3.5c0.1,0.6-0.2,1.1-0.1,1.6
		c0.1,0.7,0.4,1.3,0.8,1.8c0.4,0.6,1,1,1.5,1.5c0.3,0.5,0.7,1.1,0.9,1.7c0.5,0.7,1.2,0.8,1.9,1.2c1,0.5,1.4,0.9,2.4,1.4l5.8,3.1
		c4.2,2.2,8.3,4.3,12.6,6.3c5.2,2.3,11,6.6,13.2,10.6s4.5,23.3,4.5,23.3"/>
	<path id="jacket_stripe_1_" class="st2" d="M25.7,125.3c0.3-2.2-0.5-8.1,0.9-9c0.4-0.3,1.8,0,2.3,0h60.5c3.1,0,6.5-0.5,9.6,0
		c0.2,2-0.2,2.4,0,4.4c0.2,2.1,1,2.1,1.3,4.3"/>
	<path id="face-2" class="st0" d="M81,52.7c0,0-0.5,8.6-0.7,9.3c-0.3,1.2-0.8,2.3-1.4,3.3c-3.1,5.6-7.5,12.5-14.7,12.1
		c-6.8-0.4-9.2-3.9-13.1-9c-1.8-2.2-3.2-4.7-4.1-7.3c-0.2-1.3-0.2-2.7-0.2-4.1l-0.5,0.1c0,0-0.1,0.9-0.8,1c-1.1,0.1-1.8-1.3-2.1-2.1
		c-0.5-1.4-0.3-2.9-0.3-4.6s-2.6-6,0-7.4c1.8-0.9,1.5,0.3,2.1,1.8c0.2,0.5,0.3,1,0.4,1.5l0.3-0.1c0,0,0-2.8,0-4.8
		c0.1-3.6-1-7.7,0.3-11.2C50.8,19.7,55,19.3,65.4,19c9.3-0.3,14.5,7.2,15.2,10.7c0.6,2.8,0.9,5.6,0.8,8.4C81.3,40.6,81,47,81,47
		l0.3,0.1c0.3-1,0.8-2.1,1.2-3.1c0.3-0.8,1.3-1.2,2.1-0.9c0.8,0.3,1.2,1.3,0.9,2.1l0,0c-0.3,1-0.8,3.9-1,5c-0.1,0.9-0.1,1.7,0,2.6
		c0,0.8-0.3,3.5-1.5,3.4C82.3,56.2,80.6,56.2,81,52.7z"/>
	<path id="nose-4" class="st3" d="M63.4,53.5c0.9,0.7,1.9,1.1,3,1.3c5.6,0.5-2.6,5.2-3.6,3.3"/>
	<g id="hat-3">
		<path class="st2" d="M76,17.7c1,1.4,2,2.9,2.9,4.4c0.8,1.6,3.4,8,2.8,11c-0.4,3-0.6,5.9-0.6,8.9c0,0.3-1-3.9-2.3-4.9
			s-3.2-4.4-3.6-7.6S74.9,18.2,76,17.7z"/>
	</g>
	<path id="front_of_hat" class="st1" d="M45.5,32.9c0,0,0.1-5.5,0-7.8s2.8-6.8,5.6-7.6s9.1-3.9,10.3-3.9s9.7,1,11.3,1.9
		s2.9,0.3,3.6,3.3s0.6,10.6,0.8,12.4c0.1,1.7,0.1,3.3,0,5L45.5,32.9z"/>
	<path class="st2" d="M80.5,40.7c0,0,0.1-5.3-4.7-6.7c-7.3-1.9-14.8-2.5-22.3-1.9c-3.8,0.2-7.6,0.7-11.3,1.5
		c-1.3,0.3-4.2,0.7-4.5,2.5c-0.1,0.7,1.2,1,1.6,1.2c1.6,0.7,3.3,1,5,1.1c0.4,0.5,0.8,0.9,1.2,1.3c-0.3-0.8,0-1.8,0.6-2.3
		c1.2-0.9,5.8-2.2,12.4-2.3c6.2,0.1,12.4,0.9,18.5,2.3C78.5,38,79.8,39.2,80.5,40.7z"/>
	<path id="mouth-4" class="st4" d="M66.3,66c-2.8,1.1-5.9,0.7-8.3-1"/>
	<g id="eyes-5">
		<path class="st5" d="M70,45.8c0,0.7,0.6,1.3,1.3,1.3c0.7-0.2,1.1-0.8,1-1.5c0.1-0.6-0.4-1.2-1-1.3s-1.2,0.4-1.3,1
			C69.9,45.5,69.9,45.7,70,45.8L70,45.8z"/>
		<path class="st5" d="M59.1,45.6c0.2,0.6,0.8,1,1.5,0.8s1-0.8,0.8-1.5c-0.2-0.5-0.7-0.9-1.2-0.8C59.4,44.3,59,44.9,59.1,45.6z"/>
		<path class="st3" d="M61.1,49.3c0,0-1.2,1.6-2.3,1.3c-0.6-0.2-1.2-0.5-1.7-1"/>
		<path class="st3" d="M73.2,49.3c0,0-1.2,1.6-2.3,1.3c-0.6-0.2-1.2-0.5-1.7-1"/>
		<path class="st3" d="M61.3,40.4c0,0-2.3-2.6-4,0.3S55,45.1,55,45.1"/>
		<path class="st3" d="M69.9,40.8c0,0,1.6-1.8,3.4,0.6c1.1,1.3,1.9,2.8,2.4,4.4"/>
	</g>
</g>
<g id="Layer_140">
	<g id="zipper">
		
			<rect x="60.8" y="92" transform="matrix(7.341238e-02 -0.9973 0.9973 7.341238e-02 -32.9452 151.5813)" class="st6" width="8.7" height="3"/>
		<rect x="64.8" y="85.9" class="st6" width="1.2" height="3.3"/>
		<path class="st4" d="M65.2,87c0,0,1.1-0.5,0.4,16.4C65,117.2,65.4,125,65.4,125"/>
	</g>
</g>
</svg>
