<?xml version="1.0" encoding="utf-8"?>
<!-- Generator: Adobe Illustrator 24.0.3, SVG Export Plug-In . SVG Version: 6.00 Build 0)  -->
<svg version="1.1" id="Layer_1" xmlns="http://www.w3.org/2000/svg" xmlns:xlink="http://www.w3.org/1999/xlink" x="0px" y="0px"
	 viewBox="0 0 125 125" style="enable-background:new 0 0 125 125;" xml:space="preserve">
<style type="text/css">
	.st0{fill:#FCE7D4;stroke:#020202;stroke-width:0.75;stroke-miterlimit:10;}
	.st1{fill:#F44711;stroke:#020202;stroke-width:0.75;stroke-miterlimit:10;}
	.st2{fill:#E8D5AA;stroke:#020202;stroke-width:0.75;stroke-miterlimit:10;}
	.st3{fill:none;stroke:#231F20;stroke-width:0.75;stroke-miterlimit:10;}
	.st4{fill:#262626;stroke:#020202;stroke-width:0.75;stroke-miterlimit:10;}
	.st5{fill:none;stroke:#020202;stroke-width:0.75;stroke-miterlimit:10;}
	.st6{fill:#FFFFFF;stroke:#020202;stroke-width:0.75;stroke-miterlimit:10;}
	.st7{fill:#0096FF;stroke:#020202;stroke-width:0.75;stroke-miterlimit:10;}
</style>
<title>Artboard 25 copy</title>
<g id="person_17">
	<path class="st0" d="M48.1,79.1c1.2-0.5,3.7-3.5,3.7-3.5c0.7-2.5,1.3-5,1.7-7.5c0.3-2.7,0.7-9.9,0.7-9.9l25.2,1.2c0,0,0,7.1,0,7.9
		c0,2.7,0.1,5.3,0.4,8c0.1,2.6,1,5.2,2.7,7.2c1.2,1.2,2.5,2.3,3.8,3.3c0,0,4.4,2.3,5.6,3.1c1.1,0.7,2.2,1.3,3.4,1.8
		c0,0,3.4,7.4-0.8,13.5S76,112,67.2,110S37,95.7,40,89.7S43.5,81.1,48.1,79.1z"/>
	<g id="turtleneck">
		<path class="st1" d="M118,125.6c-0.2,0-1.4-11.4-1.7-12.8c-0.5-2.6-1.2-5.1-2.1-7.5c-1.9-5.5-4.9-10.8-9.8-13.1
			c-3.2-1.3-6.4-2.8-9.4-4.5c-2.4-1.3-4.5-2.7-6.9-4c-1.2-0.6-1.7-1.1-2.9-1.8c-0.6-0.3-1.2-0.4-1.8-0.8s-1.1-2.1-1.5-2.5
			c-1.2-1-2-2.4-2.2-3.9c-0.1-0.5-0.4-2-0.4-2.6c0-0.2-0.4-10.4-0.2-9l-29.5-3.9L50,72.3c0,0.9-0.8,2-0.6,2.9c0.1,0.9,0,1.8-0.4,2.6
			c-0.5,1.5-2.6,1.7-3.9,2.6s-1.5,2.3-3,2.9s-3,1.4-4.6,2.2c-6.7,3.2-7.8,3.5-14.5,6.7c-0.3,0.1-0.5,0.3-0.8,0.4
			c-2.7,1.3-6.7,3-9.3,6.3s-4.3,17.9-5.2,21.7s-1.1,5-1.1,5"/>
	</g>
	<path class="st2" d="M87.7,43.7c0,0-0.3-2.2-0.3-2.3c-0.2-0.5-0.3-1-0.5-1.5c-0.1-0.2-0.2-0.4-0.2-0.6c-0.3-1.4-0.7-2.8-1-4.2
		s-0.6-2.7-0.9-4c-0.9-3.9-2.4-8.6-5.4-11.4c-1.9-1.9-4.6-2.5-7.2-2.6c-4.7-0.4-9.3,0.5-13.6,2.4c-3.8,1.9-7,4.6-9.5,8
		c-2.7,3.6-2.5,8-2,12.3c0.4,3.2,1.1,6.4,2,9.5c1.3,4.2,5.9,15.1,5.9,15.1c3.9,5.5,10.3,11.5,15.4,10.3c2.8-0.6,5.2-2.8,7.2-4.7
		c2.2-2.1,4.4-4.3,5.7-7.2c1.1-2.5,1.9-5.1,2.5-7.7c0.5-1.9,0.8-3.8,1-5.7c0.1-1,0.8-1.6,0.8-2.5c0-0.7,0.2-0.7,0.2-1.3
		c0-0.3-0.1-0.6-0.1-0.9c0-0.2-0.1-0.3-0.1-0.5C87.7,44,87.7,43.8,87.7,43.7z"/>
	<path class="st3" d="M75.2,50.1c0.5,0.8,0.8,1.5,0.2,2.4c-0.9,1-2.2,1.5-3.5,1.2c-0.7-0.2-1.3-0.3-2-0.3c-0.5,0.1-1.1,0-1.6-0.2
		c-0.4-0.3-0.4-1.1,0.1-1.2"/>
	<path class="st4" d="M79.7,73.7l9.2,6.3c0,0,4.8-19.8,4.8-28c0.1-11.4-4.4-22-9.8-30.6s-10.3-8-11.7-8.2s-2.5-0.8-3.8-0.9
		C61,12,53.1,13.2,48.1,18.1c-4.7,4.7-10.5,14.5-10.8,21.3c-0.1,1.6-0.1,3.2-0.1,4.9c-0.1,5.3,0.3,10.6,1.1,15.9
		c0.4,2.7,3.7,10.6,5.5,12.9l0.3,0.3c1,1.2,2.2,2.3,3.5,3.2c1.5,1.2,3.2,2.3,4.8,3.4l3.6,2.4c1,0.7,1.9,1.4,2.9,2.1s2.2,1.3,1.6-0.5
		c-3-9.8-14.4-40.5-0.9-52.7c4.3-4.1,8-8.7,11.3-13.6c1.7-0.6,3.5-0.6,5.2,0.1c1.6,0.7,3,1.8,4,3.3c1.2,1.6,2.2,3.4,3,5.3
		c0.8,2,1.5,4,2,6c0.5,1.8,0.9,3.7,1.2,5.6c0.4,1.5,0.8,3,1,4.5c0,1.9-0.2,3.9-0.6,5.8c-0.3,1.9-0.7,3.7-1.1,5.6
		c-1,5.4-1.6,8.1-2.6,9.7c-1.1,1.7-2.4,3.3-3.7,4.8C79.3,68.4,79.5,73.2,79.7,73.7z"/>
	<path class="st5" d="M75.4,33.9c0,0,3.2-1.7,4.7-1.8s3.4,1.7,3.9,2.4"/>
	<path class="st6" d="M65.8,64.4c2.1,0.6,5-1.8,5.3-2.9s-4-0.5-6.1-1.1s-3.2-3.2-3.5-2.2S63.7,63.8,65.8,64.4z"/>
	<circle class="st7" cx="79.3" cy="40.1" r="1.2"/>
	<circle class="st7" cx="61.1" cy="40.3" r="1.2"/>
	<path class="st5" d="M75.8,40.4c0,0,2.7-2.9,4.2-2.9s2.2,0.9,3,0.7"/>
	<path class="st5" d="M64.2,39.9c-0.7-0.8-1.6-1.4-2.6-1.8c-0.9-0.4-2.4-0.2-4.7,1.1"/>
	<path class="st5" d="M65,34c0,0-2.2-3-4.3-3.6"/>
	<path class="st5" d="M52.5,42.6c0,4.2,3.4,7.6,7.6,7.6s7.6-3.4,7.6-7.6c0-4.1,1.1-7.3-7.6-7.3C52.9,35.2,52.5,38.5,52.5,42.6z"/>
	<path class="st5" d="M88.2,42.4c-0.2,4.1-3.6,7.3-7.7,7.2c-3.9-0.1-7-3.3-7.2-7.2c0-4-1.1-7.2,7.5-7.2
		C87.8,35.2,88.2,38.4,88.2,42.4z"/>
	<path class="st5" d="M73.6,41.2c0,0-3.5-1.7-5.9,0"/>
</g>
</svg>
