<?xml version="1.0" encoding="utf-8"?>
<!-- Generator: Adobe Illustrator 24.0.3, SVG Export Plug-In . SVG Version: 6.00 Build 0)  -->
<svg version="1.1" id="Layer_1" xmlns="http://www.w3.org/2000/svg" xmlns:xlink="http://www.w3.org/1999/xlink" x="0px" y="0px"
	 viewBox="0 0 125 134.8" style="enable-background:new 0 0 125 134.8;" xml:space="preserve">
<style type="text/css">
	.st0{fill:#FCE7D4;stroke:#020202;stroke-width:0.75;stroke-miterlimit:10;}
	.st1{fill:#0B0B7F;stroke:#020202;stroke-width:0.75;stroke-miterlimit:10;}
	.st2{fill:#332E28;stroke:#000000;stroke-width:0.75;stroke-miterlimit:10;}
	.st3{fill:none;stroke:#020202;stroke-width:0.75;stroke-miterlimit:10;}
	.st4{fill:#744100;stroke:#020202;stroke-width:0.75;stroke-miterlimit:10;}
	.st5{fill:#3CAA33;stroke:#000000;stroke-width:0.75;stroke-miterlimit:10;}
	.st6{fill:none;stroke:#000000;stroke-width:0.75;stroke-miterlimit:10;}
	.st7{fill:#FFFFFF;stroke:#020202;stroke-width:0.75;stroke-miterlimit:9.9997;}
	.st8{fill:#F7DE48;stroke:#020202;stroke-width:0.75;stroke-miterlimit:10;}
</style>
<title>Artboard 21 copy 2</title>
<g id="person_14">
	<path id="neck-2" class="st0" d="M51.8,80.2c0,0-0.3,11.9-0.7,13.2s-7.4,2.2-9.1,4.1s1,5.4,2.2,6.7c5.8,6.4,20.4,7.2,28.1,5.5
		c4.2-0.9,13.8-6.2,14.6-11.1c0.4-2.4-6.8-3.8-8.5-4.9s-2.5-13.8-2.5-13.8L51.8,80.2z"/>
	<g id="turtleneck">
		<path class="st1" d="M110.4,121c-2.5-4.7-3.2-9.7-9.3-12.4c-5-2.2-3.9-4.1-8.7-6.7c-2.3-1.2-3.6-3-5.9-4.2
			c-1.1-0.6-1.6-1.1-2.7-1.7c-0.6-0.3-1.2-0.4-1.7-0.7s-1-2-1.4-2.4c-1.4-1.3-2.4-2-2.8-3.8c-0.1-0.4,0.2-1.6,0.1-2.2
			c0-0.2-0.1-5.4,0-4l-28.1-0.2l0.5,4.2c0,0.9-0.7,1.9-0.6,2.7c0.1,0.8,0,1.7-0.4,2.4c-0.5,1.5-2.5,1.6-3.7,2.4s-1.4,2.2-2.8,2.8
			s-2.9,1.4-4.3,2.1c-6.3,3-7.4,5.2-13.7,8.2c-0.2,0.1-0.5,0.3-0.8,0.4c-2.6,1.3-6.4,2.9-8.9,6s-4.1,15.1-4.8,18.7"/>
	</g>
	<path id="head-3" class="st0" d="M63,35.3c-3.4-0.1-6.9,0.4-10.1,1.5c-2.2,0.6-4.1,2-5.5,3.9c-0.6,1.2-1.1,2.4-1.3,3.7
		c-1.1,4.7-1.9,9.5-2.6,14.3c-0.2-0.8-0.2-1.4-0.5-2s-1.8-0.5-2,0.5c-0.1,0.9,0.1,1.7,0.4,2.5c0.4,0.8,0.7,1.7,0.9,2.6
		c0.5,3.1-0.5,2.6-0.2,5c0.2,0.7,0.6,1.2,1.2,1.5c0.2,0.1,1.2,0.4,1.2-0.1c0.3,3.1,1,6.2,2,9.2c2.4,7.4,10,13.4,17.7,13.4
		c7.3,0,12.5-6.4,14.7-13.2c1-2.7,1.7-5.4,2.2-8.2c0.1-0.4,0.6-0.3,0.8-0.3c1.7,0.1,2-2.3,2.2-3.5c0.3-2.1,0.2-4.3,1-6.3
		c0.4-1,1.6-2.5,0.3-3.4c-0.7-0.5-1.7-0.5-2.4,0c-0.7,0.6-0.7,1.6-1,2.5c-0.1-4.5-0.8-8.9-2-13.2c-0.3-1.4-0.8-2.6-1.6-3.8
		c-1.4-2.1-3.4-3.7-5.6-4.8c-1.5-0.7-3.2-1.2-4.8-1.4C66.3,35.5,64.7,35.3,63,35.3z"/>
	<g id="hair-7">
		<path class="st2" d="M81.3,57.3c0,0,0.3-10.5-2.8-12.2c-2.7-1.5-5.6-3.2-8.7-3.5c-3.3-0.4-6.7-0.6-10-0.5c-2.7,0.2-8.1-0.2-10,2.4
			c-1.5,2-5.2,18.5-6,17.4c-1.3-2-2.2-4.2-2.5-6.6c-0.6-4.2,0-8.6,1.7-12.5c1.6-3.7,0-2.6,2.3-6c2-2.7,4.6-5.1,7.5-6.8
			c1.1-0.6,0.8-1,1.2-1.2c0.2-0.1,0.4-0.2,0.6-0.4c0,0-1.2-2.5-1.6-3.6c-0.5-1.2-0.9-2.4-1.2-3.6c-0.3-1.3,0.1-2.6,0.8-3.6
			c0.8-0.9,2-2.5,3.2-2.8c1.8-0.4,3.6-0.3,5.3,0.2c0.9,0.3,1.5,0.7,2.2,0.4c0.7-0.3,1.8-1.8,2.8-1.8c1.8,0,5.2,1.5,5.7,3.4
			s0.1,1.7,1.7,2.6s3,4.2,3.4,6c0.3,1.3,0,3.1-1.7,3.6c-0.6,0.2-1.5,0.4-1.5,0.4s1.7,1,1.8,1.8c0,0.4,0,0.8,0,1.2
			c0.2,0.3,0.4,0.6,0.6,0.9c0,0,7.3,3.1,8.1,6s0.4,3.7,1.2,4.8c1.1,1.4,1.7,3.2,1.5,5c-0.1,2.4-0.5,4.8-1.1,7.2
			c-0.2,0.9-1.8,3.1-2.3,4s-1.5,3-1.9,2.7S81.3,57.8,81.3,57.3z"/>
		<path class="st3" d="M54.5,27.4c1.2-0.6,2.5-0.8,3.8-0.6c1.3,0.3,2.5,0.7,3.7,1.2"/>
		<path class="st3" d="M73.7,28.5c0,0-6.3,0-9.8-5"/>
		<path class="st3" d="M63.3,14.4c0.1,1.4,0.6,2.8,1.4,4c2.1,3.4,4.1,4,4.1,4"/>
		<path class="st3" d="M57.2,13.8c-1,1.9-1,4.2,0.1,6.1c0.8,1.7,2,3.2,3.5,4.3"/>
		<path class="st3" d="M76.4,32.5c0,0.2-0.5-0.4-3.4-1.2"/>
		<path class="st3" d="M57.9,38.8c-1.3-1-3.2-2.8-2.8-4.7c0.5-1.5,1.5-2.7,2.8-3.6"/>
		<path class="st3" d="M71.6,39.6c0,0,4.5-1.9,3.6-4.2"/>
		<path class="st3" d="M63.3,38.5c0,0,3.5-0.9,2.4-3.8c-0.6-1.5-1-3-1.1-4.6"/>
	</g>
	<path id="nose-4" class="st3" d="M63.7,64.6c-1.1,5.4-5.2,6-5.4,7.8c-0.2,2.9,4.1,2.8,6.3,1.7"/>
	<g id="eyes-8">
		<path class="st3" d="M66.3,53.3c4.2-0.6,9.4-5.3,11.2-1.2"/>
		<path class="st3" d="M58.2,54.6c-2.7-0.6-9.5-4.9-11.3-0.8"/>
		<circle class="st4" cx="71.7" cy="61.3" r="1.2"/>
		<circle class="st4" cx="53.7" cy="61.2" r="1.2"/>
		<path class="st3" d="M68.4,61.2c0,0,2.9-2.4,4.3-2.2s2,1.1,2.7,1"/>
		<path class="st3" d="M56.6,61.5c-0.5-0.9-1.2-1.6-2.1-2.2c-0.8-0.5-2.2-0.6-4.5,0.1"/>
	</g>
	<path class="st5" d="M6.7,135.2c1.1-6.6,2.4-13.5,3.2-18.2s0.9-6.5,3.3-10.5s7.2-5.4,11.5-6.2c4.6-0.9,6.6-2,11.2-2.6
		c2.7-0.5,5.2-1.4,7.7-2.5c0.9-0.4,0.3,7.5,7.7,11.2c8.8,4.1,19,3.5,27.2-1.8c3.4-2.2,4.7-5.8,6.9-9.5c3.3,0.6,6.4,2,9.6,3.1
		c5.5,1.8,15.1,1.4,17.6,8.1c2.8,7.9,3.7,20.7,5.5,28.9"/>
	<g id="shirt_seams-2">
		<line class="st3" x1="83.5" y1="98.5" x2="88.6" y2="101.8"/>
		<line class="st3" x1="80.1" y1="103.4" x2="83.9" y2="108.4"/>
		<line class="st3" x1="74.1" y1="107" x2="76.7" y2="113.1"/>
		<line class="st3" x1="66.1" y1="109.1" x2="66.4" y2="115.3"/>
		<line class="st3" x1="59.1" y1="109.1" x2="57.4" y2="115"/>
		<line class="st3" x1="52.3" y1="107.2" x2="48.1" y2="113"/>
		<line class="st6" x1="48.1" y1="104.4" x2="42.3" y2="107.8"/>
		<line class="st6" x1="44.7" y1="98.9" x2="38.7" y2="100.6"/>
		<path class="st6" d="M37.8,97.3c0,0,1,7.1,4.7,11.3s9,6.6,20.8,6.6s18-4.1,19.8-5.9c3.2-3.8,5.9-8,8.2-12.3"/>
	</g>
	<g id="cable_knit">
		<path class="st6" d="M71.2,115.2c0,0,3.1,9.2,1.7,12.4c-1.4,2.7-3.1,5.3-5,7.6"/>
		<path class="st6" d="M54.5,115.2c0,0-4.2,9.8-1.7,13.8c1.1,1.7,3,3.9,4.9,6.2"/>
		<path class="st6" d="M63.7,116.4c0,0-2,5.7-0.3,10.3c1.2,3.2,3.4,5.9,5.2,8.7"/>
		<path class="st6" d="M63,118.7c0.7,1.6,1.1,3.3,1.3,5c0.1,1.3-0.1,2.6-0.7,3.8"/>
	</g>
	
		<ellipse id="mouth-4" transform="matrix(0.887 -0.4617 0.4617 0.887 -29.6226 40.7144)" class="st7" cx="68.4" cy="80.9" rx="4.8" ry="1.9"/>
	<g id="glasses-2">
		<path d="M83.7,54.3c-2.7-0.5-5.4-0.7-8.2-0.6c-3.3,0.4-6.5,1-9.7,1.7c-0.8,0.2-1.6,0.4-2.5,0.4c-1.1-0.1-2.3-0.3-3.3-0.7
			c-2.2-0.6-4.4-1-6.6-1.2c-2.6-0.2-5.2-0.2-7.8-0.1c-2.5,0.3-2.8,0.5-2.8,0.7l0.4,2.5c0.2,0.1,0.4,0.1,0.5,0.2
			c0.2,0.1,0.3,0.3,0.4,0.5c0.1,0.2,1.6,5.2,1.7,5.5c0.2,0.5,0.5,1,0.8,1.4c0.6,0.6,1.3,1.1,2.1,1.4c0.9,0.3,1.8,0.5,2.8,0.6
			c1.1,0.1,2.2,0.1,3.3-0.1c1.2-0.2,2.4-0.7,3.4-1.5c0.9-0.8,1.7-1.8,2.2-2.9c0.3-0.7,1.3-3.1,1.6-3.4c0.3-0.4,0.8-0.6,1.3-0.5
			c0.6,0,1.1,0.3,1.4,0.8c0.3,0.6,1.2,2.8,1.8,3.9c0.8,1.7,2.4,2.9,4.2,3.4c2,0.6,4.2,0.5,6.2-0.1c0.8-0.2,1.6-0.6,2.3-1.1
			c0.5-0.4,0.9-0.9,1.2-1.5c0.3-0.6,1.2-4,1.3-4.4c0.1-0.7,0.4-1.3,0.7-1.8c0.2-0.2,0.5-0.3,0.8-0.4l0.4-2.5
			C83.7,54.5,83.7,54.4,83.7,54.3z M58.8,61.2c-0.5,1.1-1.2,2.1-2,3c-1.3,0.8-2.9,1.2-4.5,1c-1.4,0-2.7-0.3-3.9-1
			c-0.9-0.4-1.2-1.5-1.6-2.5c-0.4-1.4-0.5-2.9-0.5-4.3c0-0.1,0-0.1,0-0.2c0-0.4,0.2-0.8,0.5-1.1c1-0.9,2.5-0.9,3.8-1
			c1.4-0.1,2.9,0,4.3,0.2c1.3,0.2,4.3,0.5,4.6,2.4C59.3,58.9,59.1,60.1,58.8,61.2z M79.6,61.7c-0.4,1-0.8,2.2-1.6,2.5
			c-1.2,0.7-2.6,1-3.9,1c-1.6,0.2-3.1-0.2-4.4-1c-0.8-0.9-1.5-1.9-2-3c-0.4-1.1-0.6-2.2-0.6-3.4c0.2-1.4,2.1-2,3.3-2.2
			c1.6-0.3,3.3-0.5,5-0.5c1.3,0,3.2,0,4.2,1c0.3,0.3,0.5,0.7,0.5,1.1c0,0,0,0.1,0,0.2C80.1,58.9,79.9,60.3,79.6,61.7z"/>
	</g>
	<g id="pineapples">
		<ellipse class="st8" cx="43.3" cy="71.8" rx="2.4" ry="3.5"/>
		<polyline class="st5" points="42.5,68.3 40.7,65.9 42.5,65.9 43.6,63.3 44.5,65.9 46.3,65.9 44.3,68.3 42.5,68.3 		"/>
		<ellipse class="st8" cx="83.2" cy="71.4" rx="2.4" ry="3.3"/>
		<polyline class="st5" points="82.1,68.2 80.3,65.7 82.1,65.8 83.2,63.1 84.1,65.8 85.9,65.8 83.9,68.2 82.1,68.2 		"/>
	</g>
</g>
</svg>
