<?xml version="1.0" encoding="utf-8"?>
<!-- Generator: Adobe Illustrator 24.0.3, SVG Export Plug-In . SVG Version: 6.00 Build 0)  -->
<svg version="1.1" id="Layer_1" xmlns="http://www.w3.org/2000/svg" xmlns:xlink="http://www.w3.org/1999/xlink" x="0px" y="0px"
	 viewBox="0 0 125 134.8" style="enable-background:new 0 0 125 134.8;" xml:space="preserve">
<style type="text/css">
	.st0{fill:#FCE7D4;stroke:#020202;stroke-width:0.75;stroke-miterlimit:10;}
	.st1{fill:#F44711;stroke:#020202;stroke-width:0.75;stroke-miterlimit:10;}
	.st2{fill:#F7DE48;stroke:#020202;stroke-width:0.75;stroke-miterlimit:10;}
	.st3{fill:none;stroke:#000000;stroke-width:0.75;stroke-miterlimit:10;}
	.st4{fill:#332E28;stroke:#000000;stroke-width:0.75;stroke-miterlimit:10;}
	.st5{fill:none;stroke:#020202;stroke-width:0.75;stroke-miterlimit:10;}
	.st6{fill:#202133;stroke:#000000;stroke-width:0.75;stroke-miterlimit:10;}
	.st7{fill:#0096FF;stroke:#020202;stroke-width:0.75;stroke-miterlimit:10;}
	.st8{fill:#0096FF;stroke:#020202;stroke-width:0.75;stroke-miterlimit:10.0003;}
	.st9{fill:#286308;stroke:#020202;stroke-width:0.75;stroke-miterlimit:10;}
	.st10{fill:#FFFFFF;stroke:#020202;stroke-width:0.75;stroke-miterlimit:10;}
</style>
<title>Artboard 21 copy 3</title>
<g id="person_15">
	<path id="neck-2" class="st0" d="M51.4,74.6c0,0-0.3,12.4-0.7,13.8s-7.7,2.2-9.4,4.2s1,5.6,2.3,7c6,6.7,21.2,7.5,29.2,5.7
		c4.4-1,14.3-6.5,15.2-11.6c0.4-2.5-7-3.9-8.8-5.1s-2.6-14.3-2.6-14.3L51.4,74.6z"/>
	<path class="st1" d="M4,135.1c1.2-6.9,3.1-17.4,3.9-22.1s0.9-6.7,3.5-10.9s7.4-5.6,12-6.5c4.8-0.9,6.9-2,11.6-2.7
		c2.8-0.6,5.4-1.4,8-2.6c1-0.4,0.4,7.8,8,11.7c9.1,4.3,19.8,3.6,28.2-1.8c3.5-2.3,4.9-6.1,7.1-9.8c3.4,0.7,6.7,2.1,10,3.2
		c5.7,1.9,15.7,1.4,18.3,8.5c3,8.2,4.6,24.3,6.5,32.9"/>
	<g id="hair-8">
		<path class="st2" d="M41.5,127c-0.4-1-0.7-2-0.8-3c0-1.1,0.1-2.3,0.4-3.4c-0.3-0.9-0.6-1.9-0.6-2.9c0-0.9,0.2-1.9,0.7-2.7
			c-0.5-1.7-0.8-3.5-1-5.2c-0.3-2.8,0.7-3.3,0.7-3.3c-0.1-0.7-0.2-1.3-0.5-2c-0.4-1.5,0.7-5.2,0.7-5.2c-0.6-1.9-1.1-3.9-1.5-5.9
			c-0.2-1.6,0-3.2,0.6-4.7c-0.4-1.2-0.7-2.4-0.9-3.6c-0.2-2.3,0-4.6,0.4-6.8c-0.4-1.5-0.7-3-0.9-4.5s-0.2-3,0-4.5
			c0.2-1.6,0.6-2.9,0.9-4.4c0.5-2.9-0.7-5.8-0.9-8c-0.3-4.4-0.9-18.3-0.9-18.3c8.3-3.9,19.6-8.8,19.6-8.8s-0.2,6.5-5.9,16.5
			c-3,5.3-7.3,13.1-7.1,15.8c0.1,1.9,0.3,3.9,0.8,5.8c0.1,0.3,0.6,3.9,0.7,4c0.5,1.3,0.8,2.6,0.9,3.9c0.2,2.4,0.1,4.8-0.3,7.2
			c0.6,1.1,0.9,2.3,1,3.5c0.2,2.1,0.1,4.2-0.3,6.3c0.5,1.5,0.8,3.1,1,4.7c0.1,1.7-0.2,3.5-0.7,5.1c0.4,1.4,0.4,3,0.2,4.4
			s-0.5,2.8-1,4.2c0,0,0.2,1,0.5,2.7c0.1,1.1-0.2,2.2-0.9,3c0,0,0.5,1.7,0.7,2.6s-1.3,3.8-1.3,3.8c-0.7,1.1-1.2,2.2-1.4,3.5
			c0.7,1,1,2.3,0.9,3.5c0.1,1.1,0,2.2-0.2,3.3c-0.2,1-0.7,1.8-1.5,2.5c-0.9,0.8-2.9,0.8-3.9,0.8c0.5-1.5,0.8-3.1,0.9-4.7
			C40.9,130.4,41.2,128.7,41.5,127z"/>
		<path class="st3" d="M46.3,71.8c0,0-1.8,1.8-3.1,6.9"/>
		<path class="st3" d="M39.9,78.6c0.1-0.5,2,1.8,2.2,2c1,1.4,1.5,3.1,2.4,4.6"/>
		<path class="st3" d="M46.9,82.9c-0.9,1.3-1.9,2.2-2.6,3.7s-0.6,3.6-1,5.1"/>
		<path class="st3" d="M41.5,90.7c1.6,2.1,3,3.9,3.1,6.7"/>
		<path class="st3" d="M47.5,93c0,0-3.7,3.9-3.7,7.8"/>
		<path class="st3" d="M41.2,99.2c1.1,1,2,2.3,2.7,3.6c0.4,0.8,0.6,1.7,0.8,2.6"/>
		<path class="st3" d="M47.9,102.5c0,0-3,3.4-3.4,6.1"/>
		<path class="st3" d="M42.1,107.8c0,0,2.7,2.1,2.8,5.1"/>
		<path class="st3" d="M46.8,111.2c0,0-3.3,2.8-3.8,4.9"/>
		<path class="st3" d="M41.3,114.9c1,1.2,1.9,2.5,2.5,4"/>
		<path class="st3" d="M46.7,116.8c0,0-3.5,3.7-4.1,5.8"/>
		<path class="st3" d="M41.2,120.5c0.9,1.3,1.7,2.6,2.3,4"/>
		<path class="st2" d="M39.3,68.6c0,0,4.1,3.9,5.1,6.5"/>
		<polygon class="st4" points="44.8,127.9 41.5,127.8 41.5,126.9 44.7,127 		"/>
	</g>
	<path id="head-3" class="st0" d="M63.1,28c-3.6-0.1-7.1,0.4-10.5,1.5c-2.3,0.7-4.3,2.1-5.6,4.1c-0.6,1.2-1.1,2.5-1.3,3.8
		c-1.1,4.9-0.8,9.8-1.2,15.1c-0.2-0.9-0.7-1.8-1.3-2.6c-0.7-0.6-1.7,0.3-1.8,1.2c-0.3,2.1,0.6,4.1,0.9,6.2c0.3,1.9-1.3,5.3,0.9,6.4
		c0.2,0.1,1.3-0.5,1.3-1c0,2.7,2.4,8.3,3.5,10.8c3.5,7.8,10.6,12.6,16.6,12.6c5.4,0,10.6-5.2,15.3-13.7c1.3-2.4,1.9-5.8,2.3-9
		c0.4,0.3,0.8,0.5,1.2,0.6c1.7,0.1,1.7-2.9,1.9-4.1c0.3-2.2,0.2-4.5,1-6.6c0.4-1,1.6-2.6,0.4-3.5c-0.8-0.5-1.8-0.5-2.5,0
		c-0.9,0.7-0.9,1.6-1.2,2.6c-0.1-4.6-0.8-9.2-2.1-13.7c-0.3-1.4-0.9-2.8-1.6-4c-1.5-2.2-3.5-3.9-5.8-5c-1.6-0.7-3.3-1.3-5-1.5
		C66.5,28.1,64.8,28,63.1,28z"/>
	<g id="hair-9">
		<path class="st2" d="M89.7,126.4c0.4-1,0.6-2,0.6-3.1s-0.2-2.3-0.6-3.4c0.3-1,0.5-2,0.5-3c0-0.9-0.3-1.9-0.9-2.6
			c0.4-1.7,0.6-3.5,0.7-5.3c0.1-2.8-0.9-3.3-0.9-3.3c0.1-0.7,0.2-1.3,0.3-2c0.3-1.5-1-5.2-1-5.2c0.5-2,0.9-4,1.1-6
			c0.1-1.6-0.2-3.2-0.8-4.6c0.3-1.2,0.5-2.4,0.6-3.7c0-2.3-0.3-4.5-0.8-6.7c0.3-1.5,0.5-3,0.5-4.5c-0.1-2.2-0.4-4.4-0.8-6.5
			c-0.6-1.8-0.8-3.7-0.7-5.6c0.1-4.4-3.9-24.4-3.9-24.4c-4.2-7.4-34.9-6.9-34.9-6.9s11.3,14,22.4,18.1c13.2,5,11.2,11.6,11.2,14.3
			c0,2.7-0.4,3.4-0.8,5.7c0,0.3,0.2,3.8,0.2,3.9c-0.4,1.3-0.6,2.6-0.7,4c-0.1,2.4,0.2,4.8,0.7,7.1c-0.5,1.1-0.7,2.3-0.8,3.6
			c-0.1,2.1,0.1,4.2,0.6,6.3c-0.4,1.5-0.6,3.1-0.7,4.7c0,1.7,0.4,3.5,1,5.1c-0.3,1.5-0.3,3,0.1,4.4c0.3,1.4,0.7,2.8,1.3,4.1
			c0,0-0.2,1-0.4,2.7c-0.1,1.1,0.3,2.1,1.1,2.9c0,0-0.4,1.8-0.5,2.7S85,123,85,123c0.8,1,1.3,2.2,1.6,3.4c0.1,0.8-1.3,2.4-1.3,3.5
			c0.1,2.2,4.3,6.3,6.4,6.4c-0.4-1.6-0.8-3.2-1-4.8C90.6,129.8,90.2,128.1,89.7,126.4z"/>
		<path class="st3" d="M82.6,70.9c0,0,2,1.7,3.5,6.7"/>
		<path class="st3" d="M88.5,78c-0.1-0.4-1.6,1.6-1.7,1.8c-0.7,1.3-1.1,2.8-1.7,4.1"/>
		<path class="st3" d="M81.7,82.7c1,1.3,2.1,2.1,2.8,3.6s0.8,3.5,1.3,5"/>
		<path class="st3" d="M88.8,87.8c-1.5,2.2-2.8,4.1-2.7,6.8"/>
		<path class="st3" d="M81.7,92.8c0,0,4,3.6,4.2,7.6"/>
		<path class="st3" d="M88.4,98.7c-1.7,1.7-2.8,3.9-3.1,6.3"/>
		<path class="st3" d="M81.9,102.3c0,0,3.2,3.2,3.8,5.9"/>
		<path class="st3" d="M88.8,106c0,0-2.6,2.3-2.5,5.3"/>
		<path class="st3" d="M83.5,111c0,0,3.5,2.6,4.1,4.7"/>
		<path class="st3" d="M89.2,114.4c-0.9,1.3-1.7,2.7-2.2,4.2"/>
		<path class="st3" d="M84,116.6c0,0,3.7,3.4,4.4,5.5"/>
		<path class="st3" d="M89.6,119.9c-0.8,1.3-1.5,2.6-2.1,4.1"/>
		<path class="st2" d="M88.9,69.2c0,0-2.8,4.1-3.4,6.7"/>
		<rect x="86.2" y="126" class="st4" width="3.9" height="0.8"/>
	</g>
	<path id="nose-4" class="st5" d="M63.8,58.4c-1.2,5.6-5.5,6.2-5.6,8.2c-0.2,3,4.3,2.9,6.6,1.8"/>
	<g id="Layer_108">
		<path class="st3" d="M51,57.6c0.1,1.3,1.2,2.3,2.5,2.3c1.5,0.1,2.2-2.3,2.2-2.3"/>
		<path class="st3" d="M69.9,58.1c0,0,0.1,1.6,2.4,1.8c1.4,0.1,2.1-1.8,2.1-1.8"/>
		<path class="st6" d="M48.7,50.4c0,0,2.7-3.9,4.7-5.3"/>
		<g id="eyes_copy_3">
			<ellipse class="st7" cx="72.2" cy="53.7" rx="1.2" ry="2.5"/>
			
				<ellipse transform="matrix(0.9988 -4.954566e-02 4.954566e-02 0.9988 -2.5955 2.6968)" class="st8" cx="53.1" cy="53.7" rx="1.3" ry="2.3"/>
		</g>
	</g>
	<g id="hat_2">
		<path class="st9" d="M40.4,33.7c0,0,0.6-7.7,3.8-11s4.3-5.9,7.7-7.4c2.8-1.4,5.9-2.3,9.1-2.5c2.6-0.1,8.4,1.5,12.8,3.3
			c3.9,1.6,7.1,4.6,8.7,8.5c1.1,2.9,2,5.9,2.6,8.9C85.5,35.3,40.8,36.1,40.4,33.7z"/>
		<path class="st9" d="M38.5,51.6c-0.2-0.8-0.4-1.5-0.6-2.3c-0.2-1.2,0.1-2.5,0.9-3.5c0.2-0.2,0.4-0.4,0.6-0.5
			c2.8-2.1,9.6-6.9,19.3-6.2s11.6-1.3,18.6,2s9.8,7.7,9.5,8.6s2-5.2,1.6-8.6s-0.2-5-5.8-9.1c-5.3-4-11.8-6-18.3-5.8
			c-6,0.2-13.1-0.3-16.9,2.1s-8.9,5.4-9.6,8.8c-0.5,2.4-0.9,4.9-1.1,7.3c-0.1,1.3,0,2.7,0.2,4c0.1,0.6,0.3,1.1,0.5,1.7
			c0.2,0.5,0.5,1,0.9,1.3L38.5,51.6z"/>
	</g>
	<circle class="st10" cx="65" cy="76.4" r="2.2"/>
</g>
</svg>
