<?xml version="1.0" encoding="UTF-8" standalone="no"?>
<svg
   viewBox="0 0 125 125"
   version="1.1"
   id="svg1865"
   sodipodi:docname="juan.svg"
   inkscape:version="1.1.2 (b8e25be8, 2022-02-05)"
   xmlns:inkscape="http://www.inkscape.org/namespaces/inkscape"
   xmlns:sodipodi="http://sodipodi.sourceforge.net/DTD/sodipodi-0.dtd"
   xmlns="http://www.w3.org/2000/svg"
   xmlns:svg="http://www.w3.org/2000/svg"
   xmlns:rdf="http://www.w3.org/1999/02/22-rdf-syntax-ns#"
   xmlns:cc="http://creativecommons.org/ns#"
   xmlns:dc="http://purl.org/dc/elements/1.1/">
  <defs
     id="defs1869" />
  <sodipodi:namedview
     id="namedview1867"
     pagecolor="#ffffff"
     bordercolor="#666666"
     borderopacity="1.0"
     inkscape:pageshadow="2"
     inkscape:pageopacity="0.0"
     inkscape:pagecheckerboard="0"
     showgrid="false"
     inkscape:zoom="4.632"
     inkscape:cx="53.000864"
     inkscape:cy="57.750432"
     inkscape:window-width="1312"
     inkscape:window-height="805"
     inkscape:window-x="72"
     inkscape:window-y="25"
     inkscape:window-maximized="0"
     inkscape:current-layer="zipper_copy" />
  <title
     id="title1818">Artboard 1 copy 2</title>
  <g
     id="person_16"
     data-name="person 16">
    <path
       id="neck-2"
       data-name="neck"
       d="M76.87,65.11s-.19,15.06.44,16.1a6.78,6.78,0,0,0,3.84,3c2.33.88,5.37,2.07,5.37,2.07s-4,26.82-8.87,29.7-19.46,2.29-25,2.27c-7.7,0-14.19-32.92-14.19-32.92S48.28,81.9,50,80.81s1.42-15.7,1.42-15.7Z"
       fill="#fce7d4"
       stroke="#020202"
       stroke-miterlimit="10"
       stroke-width="0.75"
       style="fill:#d38d5f" />
    <path
       id="face-2"
       data-name="face"
       d="M81.64,55.11s-.51,8.77-.69,9.49A12.27,12.27,0,0,1,79.54,68c-3.16,5.7-7.66,12.75-14.94,12.34-6.88-.38-9.41-4-13.32-9.21-2.67-3.57-4.08-6.46-4.27-7.36a41.23,41.23,0,0,1-.25-4.14l-.46.12s-.06.91-.86,1c-1.14.15-1.82-1.29-2.12-2.16-.49-1.48-.26-3-.26-4.67s-2.63-6.15,0-7.58c1.78-1,1.58.3,2.12,1.82a12.45,12.45,0,0,1,.42,1.56l.33-.08s-.05-2.84,0-4.84c.08-3.7-1.06-7.85.33-11.43C50.87,21.55,55.2,21.1,65.81,20.75c9.47-.31,14.78,7.38,15.5,10.9a34.7,34.7,0,0,1,.84,8.56l-.49,9.1.3.06a27.78,27.78,0,0,1,1.26-3.17,1.76,1.76,0,0,1,2.35-.74,1.74,1.74,0,0,1,.69,2c-.28,1-.78,4-1,5.14a16.11,16.11,0,0,0,0,2.6c0,.79-.34,3.54-1.5,3.51C83.05,58.66,81.28,58.7,81.64,55.11Z"
       fill="#fce7d4"
       stroke="#020202"
       stroke-miterlimit="10"
       stroke-width="0.75"
       style="fill:#d38d5f" />
    <path
       id="nose-4"
       data-name="nose"
       d="m 63.42158,55.86 a 3.762325,8 0 0 0 1.443792,1.37 c 2.694766,0.49 -1.260378,5.28 -1.735372,3.41"
       fill="none"
       stroke="#231f20"
       stroke-miterlimit="10"
       stroke-width="0.514333" />
    <g
       id="zipper_copy"
       data-name="zipper copy">
      <path
         d="M3.57,126.64H121.11s-4.51-20.62-5.82-24-.76-5.07-1.88-5.82-6.2-5.07-8.08-5.82c-1.46-.59-2.86-1.42-4.25-2.15q-3.18-1.69-6.34-3.42l-2.1-1.15A7.14,7.14,0,0,1,90.52,83a2.87,2.87,0,0,1-.34-.62A8.79,8.79,0,0,0,88,79.52c-.87-.8-2-1.41-2.75-2.27-1.17-1.26-1.66-2.78-3.65-2.78H76.9l.41,6.74a8.16,8.16,0,0,0,2.5,2.52c1.38,1,1.3,2.39-.2,4.83s-5.09,9.92-6.78,12a44.63,44.63,0,0,1-7.23,6.06c-1,.71-2.47,4.28-2.47,4.28s-7.1-7.42-7.85-9.57-1.05-5.16-6.73-11.25c-2-2.12-4.88-4-3.94-6.48,0,0-.2-.53,2.41-1.46,3.88-1.37,3.78-1.89,3.78-1.89l.4-6s-6.89,2.06-8.76,3-5.07,2.63-5.26,3.57-2.07,2.63-2.07,2.63-11.64,6.38-15.58,7.88-7.13,3.19-8.45,6.39S5.26,115.41,4.7,118.41,3.57,126.64,3.57,126.64Z"
         fill="#a5e5cf"
         stroke="#020202"
         stroke-miterlimit="10"
         stroke-width="0.75"
         id="path1823"
         style="fill:#ff0000" />
      <path
         d="M35.11,83.49s-4.4,6.57-4.4,7.14,6.72-.57,7.78,0a5.7,5.7,0,0,1,2.35,2.63c.39.93,4.63,2.65,6,4.34,1.87,2.28,9.46,5.17,9.46,5.17"
         fill="none"
         stroke="#020202"
         stroke-miterlimit="10"
         stroke-width="0.75"
         id="path1825" />
      <path
         d="M90.18,82.4a37.88,37.88,0,0,1,1.56,6.35c.18,2.25,1.69,4.32,0,4.32a25.14,25.14,0,0,1-6-.75c-2.26-.57-3.19.75-3.19.75s-5.64,12.4-15.33,12.4"
         fill="none"
         stroke="#020202"
         stroke-miterlimit="10"
         stroke-width="0.75"
         id="path1827" />
      <path
         d="M63.13,110.9s0,14.27,0,16.53"
         fill="#f44711"
         stroke="#020202"
         stroke-miterlimit="10"
         stroke-width="0.75"
         id="path1829" />
    </g>
    <path
       id="mouth-4"
       data-name="mouth"
       d="M66.71,68.66a9,9,0,0,1-8.42-1"
       fill="none"
       stroke="#020202"
       stroke-miterlimit="10"
       stroke-width="0.75" />
    <g
       id="eyes_copy_5"
       data-name="eyes copy 5">
      <path
         d="m 70.447312,48.1 a 0.85174391,1.19 0 1 0 1.667701,-0.21 0.85174391,1.19 0 1 0 -1.667701,0.21 z"
         fill="#fff"
         stroke="#020202"
         stroke-miterlimit="10"
         stroke-width="0.634516"
         id="path1835"
         style="fill:#0088aa" />
      <path
         d="m 58.62683,47.756684 a 0.95253821,1.5231454 0 1 0 0.800452,-1.945529 1.0485925,1.67674 0 0 0 -0.800452,1.945529 z"
         fill="#fff"
         stroke="#020202"
         stroke-miterlimit="10"
         stroke-width="0.759146"
         id="path1837"
         style="fill:#0088aa" />
      <path
         d="m 56.200553,41.160459 c 0,0 1.28,-1.64 2.37,-1.35 a 3.91,3.91 0 0 1 1.72,1"
         fill="none"
         stroke="#231f20"
         stroke-miterlimit="10"
         stroke-width="0.75"
         id="path1839" />
      <path
         d="m 68.200902,41.91116 c 0,0 1.28,-1.64 2.4,-1.32 a 4,4 0 0 1 1.73,1"
         fill="none"
         stroke="#231f20"
         stroke-miterlimit="10"
         stroke-width="0.75"
         id="path1841" />
    </g>
    <path
       d="m 47.05,49.34 c 0,0 -1.21,5.78 -1.85,4.17 -0.64,-1.61 -0.56,-2.56 -1.13,-3.77 -0.57,-1.21 -2.24,-4.5 -2.08,-5.06 0.117094,-2.29851 -3.768916,-3.737932 -3.88601,-6.036442 -0.07,-2.09 -2.493006,-10.044232 -1.613006,-11.884232 1.002247,-1.814188 4.000425,-4.113899 5.497116,-5.547668 0.4,-0.24 0,0 0,0 -2.41e-4,-1.82869 5.037067,-4.248831 6.586563,-5.22 2.65,-1.69 -4.235146,-8.3742313 2.614854,-8.6042313 6.85,-0.23 33.642383,7.4853363 30.980483,14.6925733 0.929324,1.272236 -0.343664,-1.53757 0,0 0,0 3.78,6.74 3.86,7.55 0.04233,0.746067 4.14423,1.278044 4.1019,2.024111 C 89.9919,34.304111 88.52,40.5 85.87,42.72 c -0.48,0.4 -0.89,0.8 -0.89,0.8 -0.167386,1.653463 -0.461585,3.291619 -0.88,4.9 -0.48,1.28 -0.72,3.37 -1.52,3.69 -0.452692,0.172501 -0.885244,0.393806 -1.29,0.66 0.12,-2.81 0.38,-5.62 0.35,-8.44 -0.03,-2.82 -0.08,-4.45 -2.2,-6.35 -1.277467,-1.051988 -2.924485,-1.545733 -4.57,-1.37 -2.41,0.08 -3.507547,-2.060121 -4.977547,-3.910121 C 68.422453,30.849879 67.45,32.52 64.87,32.2 62.6,31.91 61.711226,31.138774 59.381226,31.228774 57.981226,31.288774 53.98,32.74 52.78,31.88 l -0.65,-0.49 c -0.230149,1.132047 -0.610161,2.228367 -1.13,3.26 -0.687611,1.152405 -1.123815,2.437164 -1.28,3.77 -0.25,1.44 -1.37,1.67 -1.93,2.92 -0.56,1.25 -0.34,6.31 -0.74,8 z"
       fill="#23211b"
       stroke="#000000"
       stroke-miterlimit="10"
       stroke-width="0.75"
       id="path1848"
       sodipodi:nodetypes="cssccccccscccccccccsccsccccccsc" />
  </g>
  <metadata
     id="metadata11545">
    <rdf:RDF>
      <cc:Work
         rdf:about="">
        <dc:title>Artboard 1 copy 2</dc:title>
      </cc:Work>
    </rdf:RDF>
  </metadata>
</svg>
