<?xml version="1.0" encoding="utf-8"?>
<!-- Generator: Adobe Illustrator 24.0.3, SVG Export Plug-In . SVG Version: 6.00 Build 0)  -->
<svg version="1.1" id="Layer_1" xmlns="http://www.w3.org/2000/svg" xmlns:xlink="http://www.w3.org/1999/xlink" x="0px" y="0px"
	 viewBox="0 0 125 125" style="enable-background:new 0 0 125 125;" xml:space="preserve">
<style type="text/css">
	.st0{fill:#FCE7D4;stroke:#020202;stroke-width:0.75;stroke-miterlimit:10;}
	.st1{fill:#FFFFFF;stroke:#020202;stroke-width:0.75;stroke-miterlimit:10;}
	.st2{fill:#FCD8D6;stroke:#020202;stroke-width:0.75;stroke-miterlimit:10;}
	.st3{fill:#008E19;stroke:#020202;stroke-width:0.75;stroke-miterlimit:10;}
	.st4{fill:#262626;stroke:#020202;stroke-width:0.75;stroke-miterlimit:10;}
	.st5{fill:#7F500B;stroke:#020202;stroke-width:0.75;stroke-miterlimit:10;}
</style>
<title>Artboard 25 copy 5</title>
<g id="Layer_138_copy">
	<path id="neck-2" class="st0" d="M76.3,80.4c0,0-0.7-0.3-0.7-0.9v-6.7l-26,1.3c0,0,0.4,7.9-0.3,8.6c0,0-3.1,2.3-2.2,4.2
		c1.9,3.9,7.2,6.3,11.3,6.9c5,0.8,12.6,0,17-2.8C78.3,89.2,80.2,82.1,76.3,80.4z"/>
	<path id="face-2" class="st0" d="M80.3,55.9c0,0-0.5,9.2-0.7,9.9c-0.3,1.3-0.8,2.5-1.5,3.6c-1.7,2.6-3.5,5.1-5.5,7.5
		c-1,1-3.1,4.1-4.3,4.5c-1.9,0.5-3.9,0.8-5.8,0.9c-1.2-0.1-5.8-0.7-6.8-1.3s-4.4-4.6-7.2-8.4S44.2,65.9,44,65
		c-0.2-1.4-0.2-2.9-0.3-4.3l-0.5,0.1c0,0-0.1,1-0.9,1.1c-1.2,0.2-1.9-1.3-2.2-2.3c-0.5-1.5-0.3-3.2-0.8-4.8s-3.1-6.9-1.1-8.2
		c1.8-1.2,3.3,0.5,3.9,2.1c0.2,0.5,0.3,1.1,0.4,1.6l0.3-0.1c0,0,0-3,0-5.1c0.1-3.9-1.1-8.2,0.3-12c4.8-12.4,9.3-12.8,20.4-13.2
		c9.9-0.3,15.5,7.7,16.2,11.4c0.7,3,1,6,0.9,9c-0.1,2.7-0.5,9.5-0.5,9.5l0.3,0.1c0.4-1.1,0.8-2.2,1.3-3.3c0.4-0.9,1.4-1.2,2.3-0.8
		c0.8,0.4,1.1,1.3,0.9,2.1c-0.3,1.1-0.8,4.1-1,5.4C84,54.2,84,55.1,84,56c0,0.8-0.4,3.7-1.6,3.7C81.7,59.6,79.9,59.7,80.3,55.9z"/>
	<path id="Sweater-4" class="st1" d="M2.2,125.5c0,0,0.3-1.1,1-4.5s5.2-15,7.6-18s6-4.5,8.5-5.7s27.1-14.1,27.1-14.1
		c4.8,3.2,10.3,4.9,16.1,5c9.3,0,17-5.6,17-5.6c0-0.7,19.6,11.7,25.3,14.3c5.4,2.5,9.8,6.6,12.6,11.8c2.4,4.5,5,16.4,5,16.4"/>
	<path class="st2" d="M54.8,125c1-3.5,0.9-7.2,1.5-10.7s1.3-7.4,1.9-11.1c0.2-1.5,0.9-7.6,0.9-8.1s2.4-0.5,3.3-0.6
		c1.7-0.1,3.1,0,3.4,1s1.4,6.1,1.7,8.4c0.7,4.8,1.4,9.6,2.3,14.3c0.2,1.2,0.6,2.4,0.8,3.7c0.1,0.7,0.8,2.4,0.4,3.1"/>
	<path class="st2" d="M67.9,90.6c0,0.2-0.1,0.4-0.2,0.6c-0.5,0.6-1,1.2-1.5,1.8c-0.4,0.4-0.6,0.9-0.6,1.4c0.1,0.3,0.2,0.6,0.4,0.9
		c0.1,0.3,0.1,0.6-0.2,0.8c-0.1,0-0.2,0.1-0.3,0.1c-2.2,0.2-4.4,0.3-6.7,0.1c-0.2,0-0.3,0-0.5-0.1c-0.4-0.2-0.2-0.8,0-1.2
		s0.5-0.8,0.4-1.2c-0.1-0.2-0.3-0.4-0.5-0.5c-0.8-0.5-1.6-0.6-2.4-1.1c-0.3-0.2-0.6-0.5-0.8-0.8c-0.9-1.4,0-3.1,7-3.4
		c6.1-0.3,2.3,0.4,3.5,0.9c0.6,0.3,1.3,0.6,1.8,1C67.7,90.2,67.9,90.4,67.9,90.6z"/>
	<path id="Collar-2" class="st1" d="M46.4,83.2c0.3-0.6,0.6-1.3,0.7-2c0.1-0.9,0.3-1.7,0.7-2.5c0.4-0.4,1.6-0.5,1.6-0.5
		s-1,1.5-0.5,2c1.2,1.1,2.5,2.1,3.9,3c1.6,0.9,8.4,4.4,9.1,4.8s-0.1,0.5-0.5,0.5s-3.5,0.4-4.5,1.5s-7.3,8.2-7.3,8.2
		S45.8,83.7,46.4,83.2z"/>
	<path id="collar-3" class="st1" d="M76,77.9c0,0,0.8-0.3,0.9,0.3s0.4,2,0.4,2.3c0.9,0.9,1.9,1.7,2.9,2.5l-3,14.4
		c0,0-6.6-4.8-9.1-6.2s-5.9-2.8-5.8-3s13-6.8,13.6-9.6c0-0.1,0-0.3,0-0.4L76,77.9z"/>
	<path id="Eye" class="st3" d="M56.7,46.2c0,1.4-0.6,2.5-1.3,2.5s-1.3-1.1-1.3-2.5s0-2.5,1.3-2.5C56.3,43.8,56.7,44.9,56.7,46.2z"/>
	<path id="Eye-2" class="st3" d="M72.9,45.8c0,1.5-0.6,2.7-1.3,2.7s-1.3-1.2-1.3-2.7s0-2.7,1.3-2.7C72.5,43.1,72.9,44.3,72.9,45.8z"
		/>
	<path class="st4" d="M80.3,25c-0.2,0-0.3,0-0.5,0c0.3,0.2,0.5-0.4,0.4-0.8c-1.6-4.9-6-8.7-10.9-10.4c-5.2-1.8-12.8-2.3-17.6,0.9
		c-4.5,2.9-7.9,7.3-9.8,12.4c-0.6,1.7-1,3.4-1.8,5c-0.7,1.7-1.9,3-3.4,3.9c-1.6,0.8-3.6,0.6-4.9-0.7c-1.1,3.1,0.5,6.6,3.7,7.6
		c1.2,0.4,2.6,0.5,3.8,0.1l0.1,3.1c1.5,0.6,2.6,1.8,3.2,3.3c1.1-1.9,0.8-4.4,1.7-6.5c0.8-1.7,2.6-3,2.7-4.9c0.2-2.8-3.3-5.2,3.2-8.8
		c0.1-0.1,0.3-0.1,0.5-0.1c2.2-0.1,4.1,1.3,6.1,2.4c3.3,1.8,7.1,2.4,10.7,1.9c3.7-0.6,7-2.6,9.2-5.6c-0.8,2.3-1,4.8-0.7,7.3
		c0.4,2.4,1.6,4.6,2.5,6.9c1,1.9,1.6,4,1.7,6.1c0,0.2,0.1,0.3,0.3,0.3c0.1,0,0.2-0.1,0.3-0.2c0.3-0.5,0.5-1.1,0.8-1.6
		c0.4-0.7,0.7-1.5,0.9-2.2c1.3-4.4,1.1-9.2-0.7-13.4c-0.1-0.2-0.2-0.5-0.2-0.8c0.1-0.7,1-1,1.6-0.6s1,0.9,1.2,1.6
		c0.8-2.3-0.4-4.9-2.7-5.7C81.4,25.1,80.8,25,80.3,25z"/>
	<path class="st4" d="M43.8,58.5h0.3c0,0,0.7,3.7,1.6,6.8c0.9,3.1,1.8,4.7,3.8,5.7s2.6,0.7,3.1,1.5s1,4.8,1.9,5.4s6.2,0.9,6.3,0
		c0.2-1.3,0.2-2.6,0-3.9c-0.3-0.5-0.7-0.9-1.1-1.3V72l5,0.1v0.7c0,0-1.2,0.5-1.2,1.2c-0.1,1.3,0,2.6,0.1,3.9c0.2,0.3,5.8,0.3,6.2,0
		s0.7-3.4,1.2-4.3c0.3-0.8,0.9-1.5,1.7-1.8c1.2-0.5,2.4-1.1,3.5-1.8c1-1.5,1.8-3.2,2.3-4.9c0.5-1.6,1.4-6.6,1.4-6.6h0.6
		c0,0-0.3,8.6-0.3,12.4c0,5.2,1,11.6-4.2,14.2s-6.2,3-13.6,3c-9.9,0-13-3.5-16.1-11c-1.8-4.3-2.6-9-2.5-13.7L43.8,58.5z"/>
	<path id="mustache" class="st4" d="M62.8,63.5c0.1,0,0.3-0.1,0.4-0.1c0.5-0.4,1.1-0.6,1.8-0.6c0.4,0.1,0.8,0.3,1.2,0.6
		c1.1,0.9,5.1,4.8,6.7,2.9c0.6-0.8,0.6-3.3,0.8-4.2c0.1-0.3,0.2-1.1,0.5-0.9s0.2,0.8,0.2,1c0,0.5,0,2.3,0.1,2.8c0.1,1,0,1.9-0.4,2.8
		c-1.8,3.4-6.4,2.2-8.9,0.8c-1.1-0.8-2-1.8-2.5-3c-1,1.2-2.2,2.1-3.6,2.7c-1.4,0.7-2.9,1.1-4.4,1.2c-1.1,0.2-2.3-0.2-3.1-1
		c-0.8-1-0.6-2.7-0.5-3.9c0.1-1.6,0.4-3.2,0.8-4.7c0.1-0.4,0.2-0.1,0.3,0.2c0.2,2.2-0.9,7,2.4,6.1c1.2-0.3,2.3-1,3.1-1.9
		c0.8-0.8,1.9-1.8,3.1-1.8c0.6,0.1,1.3,0.4,1.8,0.8C62.6,63.5,62.7,63.5,62.8,63.5z"/>
	<path class="st0" d="M64.5,49.6c0,0,2.1,8.1,2.2,8.8s1.2,3.4,0.8,3.8s-0.3,1.5-1.1,1.6c-0.9,0.1-1.9,0-2.8-0.1
		c-0.5-0.1-1-0.2-1.4-0.5c0,0-1.1,0.3-1.5,0.1C60.3,63,60,62.5,60,62c0.2-0.5,0.5-1,0.9-1.4"/>
	<polyline class="st5" points="27.1,125.4 27.1,108.3 98.7,108.3 98.7,125.4 	"/>
	<polygon class="st5" points="39.8,112.5 31.5,112.5 31.5,90.9 39.8,86.6 	"/>
	<polygon class="st5" points="84.9,112.5 93.1,112.5 93.1,90.6 84.9,85.6 	"/>
</g>
</svg>
