<svg xmlns="http://www.w3.org/2000/svg" version="1.1" width="600px" height="600px" viewBox="0 0 200 200" style="overflow:hidden!important;"><g id="svga-group-wrapper"><g id="svga-group-backs-single"><path id="SvgjsPath7745" d="M0 0h200v200H0V0z" fill="#ffffff" stroke-width="none" opacity="1" stroke="none"></path></g><g id="svga-group-humanwrap-move" transform="matrix(1,0,0,1,0,0)"><g id="svga-group-humanwrap"><g id="svga-group-hair-back-move" transform="matrix(1,0,0,1,0,0)"><g id="svga-group-hair-back" transform="matrix(0.9599997000000001,0,0,0.9997997000000002,0,0)"></g></g><g id="svga-group-humanbody-back"><path id="SvgjsPath3770" d="M77.6 118.3c0 19.3 3.4 44.1-10 51.9-13.4 7.9-31.9 11.3-37.8 22s-4.4 25.3-4.4 25.3h149.3s.7-18.9-5.1-26.4c-8.1-10.4-27.8-15.5-37.7-20.9s-13.4-25.1-13.4-52.4l-40.9.5z" fill="#ffffff" stroke-width="none" opacity="1"></path></g><g id="svga-group-chinshadow-single"></g><g id="svga-group-humanbody-front"><path id="SvgjsPath3771" d="M175.8 218.7H24.4l-.1-1c-.1-.6-1.5-15.1 4.5-26 4.1-7.4 13.5-11.3 23.5-15.5 5-2.1 10.2-4.3 14.8-6.9 10.6-6.2 10.1-23.9 9.6-41-.1-3.5-.2-6.8-.2-10v-1.1l43.2-.4v1.1c0 29.9 4.2 46.7 12.8 51.4 2.9 1.6 6.7 3.2 10.8 4.9 10 4.1 21.3 8.8 27.2 16.3 6.1 7.7 5.4 26.4 5.4 27.1l-.1 1.1zm-149.3-2.2h147.1c0-4.1-.2-18.5-4.9-24.6-5.5-7-16.6-11.6-26.3-15.6-4.1-1.7-8-3.3-11-5-5.1-2.8-8.7-8.9-10.9-18.7-2-8.4-2.9-19.4-3-33.5l-38.6.4c0 2.8.1 5.7.2 8.8.5 17.8 1 36.1-10.7 43-4.7 2.7-9.9 4.9-15 7.1-9.6 4-18.7 7.8-22.4 14.5-5 8.6-4.7 20.1-4.5 23.6z" fill="#000000" stroke-width="none" opacity="1"></path><path id="SvgjsPath3772" d="M93.9 153.8c-.5 1.8-.4 3.4.5 5.2.8 1.6 2.1 2.7 3.9 2.9.4 0 .7-.5.5-.8-1.6-2.2-3.5-4.2-3.7-7.1 0-.7-1-.9-1.2-.2z" fill="#000000" stroke-width="none" opacity="1"></path><path id="SvgjsPath3773" d="M112.5 187.5c8.8.5 18.1-.7 26.6-2.9.7-.2.6-1.4-.2-1.3-8.8 1.1-17.7 2-26.5 3.3-.5.1-.3.9.1.9z" fill="#000000" stroke-width="none" opacity="1"></path><path id="SvgjsPath3774" d="M63.1 182.5c3.8.9 7.6 1.9 11.5 2.8 3.6.8 7.4 2 11.1 2.1.7 0 .8-.9.2-1.2-3.5-1.4-7.5-1.7-11.2-2.5-3.8-.7-7.5-1.3-11.3-2-.5 0-.7.7-.3.8z" fill="#000000" stroke-width="none" opacity="1"></path></g><g id="svga-group-clothes-single"><path id="SvgjsPath7071" d="M51.4 218s1-21.2-3-40.2l14.1-6.3s3.3 21.9 15.1 30.3 43.4 7.6 50.9-1.3c7.4-8.9 11.1-27.9 11.1-27.9l15.4 6.3s-2.1 12-2.8 22.9-.2 16.2-.2 16.2H51.4z" fill="#ffffff" stroke-width="none" opacity="1"></path><path id="SvgjsPath7072" d="m155.4 177.9-15.4-6.3c-.3-.1-.6-.1-.9.1-.3.1-.4.4-.5.7 0 .2-3.7 18.8-10.9 27.4-7.2 8.6-38.2 9.3-49.5 1.1-11.3-8.1-14.6-29.4-14.7-29.7 0-.3-.2-.6-.5-.7-.3-.1-.6-.2-.9 0L48 176.8c-.4.2-.7.7-.6 1.1 3.9 18.6 3 39.8 3 40 0 .3.1.5.3.7.2.2.5.3.7.3h6.2c.1.1.2.1.3 0H152c.3 0 .6-.1.7-.3s.3-.5.3-.8c0-.1-.5-5.4.2-16.1.6-10.7 2.8-22.6 2.8-22.8.1-.3-.2-.8-.6-1zm-102.6-1c-1 1.3-2 2.7-2.7 4.1-.2-.9-.3-1.8-.5-2.7l3.2-1.4zm98.4 24.8c-.5 8.2-.4 13.2-.2 15.3H67c.9-1 1.9-2 2.8-3.1.1-.2-.1-.4-.2-.2-1.1 1.1-2.1 2.2-3.2 3.3h-6.5c1-1.1 2-2.3 3-3.5.1-.1-.1-.3-.2-.2-1.2 1.1-2.3 2.4-3.3 3.7h-5.5c2.2-2.6 4.5-5.2 6.5-7.9.1-.2-.2-.4-.3-.2-2.4 2.6-4.7 5.4-6.9 8.1h-.6c.1-2.1.2-7.3-.1-13.9 3-3.9 6.1-7.7 8.9-11.7.1-.1-.1-.3-.2-.2-3 3.6-5.9 7.5-8.7 11.3-.1-1.6-.2-3.3-.3-5.1 3.6-4.7 7.1-9.6 10-14.8.1-.1-.1-.2-.2-.1-3.2 4.8-6.4 9.6-9.8 14.3-.1-1.3-.2-2.7-.3-4 2.6-4.3 5.4-8.4 8.5-12.4.1-.2-.1-.4-.3-.2-3.2 3.6-5.9 7.7-8.2 11.9l-.6-5.1c.1 0 .2.1.2 0 .2-.2.4-.5.6-.7.1-.1 0-.3-.2-.2 1.3-.9 2.5-3.7 3.5-5.2 1.4-2 2.8-3.9 4.2-5.8.2-.2-.2-.4-.3-.2-2.9 3.8-5.7 7.6-8.2 11.7-.2-1.4-.4-2.9-.7-4.4 1.2-2 2.3-3.9 3.7-5.8l7.8-3.5c.9 4.9 4.8 22.2 15.2 29.7 12.2 8.8 44.4 7.9 52.2-1.5 6.5-7.8 10.1-22.8 11.1-27.1l13.6 5.6c-.6 2.8-2.3 12.9-2.8 22.1zM58 202.8c-1.9 2-3.6 4.2-5.4 6.4-.2.2.1.5.3.3 1.8-2.1 3.7-4.2 5.3-6.5.1-.2-.1-.3-.2-.2z" fill="#000000" stroke-width="none" opacity="1"></path></g><g id="svga-group-head" transform="matrix(1,0,0,1,0,0)"><g id="svga-group-ears-left-move" transform="matrix(1,0,0,1,3,0)"><g id="svga-group-ears-left"><path id="SvgjsPath3678" d="M60.8 80.5c-.2-.3-3.3-4.3-5.9-6.7s-3.4-2.4-4.6-.9c-1.3 1.5-2.9 9.1-2.5 12.4.4 3.4 3.6 8.7 5.2 11.7 1.7 3 3.3 6.7 5.1 6.3 1.9-.4 4.4-4.6 5.7-7.7 1.2-3.1.6-10.9-3-15.1z" fill="#ffffff" stroke-width="none" opacity="1"></path><path id="SvgjsPath3679" d="M52.9 98.9c-.3-.5-.5-1-.8-1.4l-.6-1c-1.8-3.1-4.4-7.8-4.8-11-.4-3.5 1.2-11.4 2.7-13.2.6-.7 1.2-1.3 2.2-1.4 1.2-.1 2.3.7 3.9 2.2 1.6 1.4 3.5 3.6 5.8 6.5l.2.3c3.9 4.6 4.5 12.8 3.2 16.1-1.1 3-3.9 7.8-6.4 8.3h-.5c-2 .1-3.4-2.6-4.9-5.4zm7.2-17.8s-.1-.1-.2-.3c-2.2-2.8-4.1-5-5.6-6.3-1.2-1.1-2.1-1.7-2.4-1.7-.2 0-.4.2-.8.7-1 1.2-2.6 8.4-2.3 11.7.3 2.8 2.8 7.3 4.5 10.3l.6 1c.3.5.5 1 .8 1.4.9 1.7 2.5 4.6 3.3 4.4 1.2-.2 3.6-3.7 4.9-7.1 1.1-2.8.4-10.2-2.8-14.1z" fill="#000000" stroke-width="none" opacity="1"></path><path id="SvgjsPath3680" d="M50 87c-.3-2.3-.5-7.8.8-9.6 2.2-2.9 6 6.4 6.9 9.3 0 .1.1.2.1.3.2.3-.1.7-.4.6-.4-.2-.9-.6-1.3-.8-1.1-.5-1.6.5-1.3 1.8.4 1.8 1.4 2.9 2.2 4.3.1.2 0 .4-.2.3-1.6-.9-3.5-4.5-3.1-6.6.3-2 1.9-1.8 3.1-.8-.7-1.7-1.5-3.3-2.5-4.8-.6-.9-1.2-2-2.2-2.2-1.2-.2-1 .3-1.2 1.8-.8 4.8-.3 10.4 2.5 14.5.1.1 0 .2-.1.1-1.7-2.3-2.9-4.9-3.3-8.2z" fill="#000000" stroke-width="none" opacity="1"></path></g></g><g id="svga-group-ears-right-move" transform="matrix(1,0,0,1,-3,0)"><g id="svga-group-ears-right"><path id="SvgjsPath3681" d="M139.2 80.5c.2-.3 3.3-4.3 5.9-6.7 2.6-2.4 3.4-2.4 4.6-.9s2.9 9.1 2.5 12.4c-.4 3.4-3.6 8.7-5.2 11.7-1.7 3-3.3 6.7-5.1 6.3s-4.4-4.6-5.7-7.7c-1.2-3.1-.6-10.9 3-15.1z" fill="#ffffff" stroke-width="none" opacity="1"></path><path id="SvgjsPath3682" d="M142.1 104.4h-.5c-2.5-.5-5.2-5.4-6.4-8.3-1.3-3.4-.7-11.5 3.2-16.1l.2-.3c2.3-2.9 4.2-5.1 5.8-6.5 1.6-1.4 2.7-2.2 3.9-2.2 1 .1 1.6.7 2.2 1.4 1.5 1.8 3.1 9.7 2.7 13.2-.4 3.2-3 7.9-4.8 11l-.6 1c-.3.5-.5.9-.8 1.4-1.4 2.7-2.8 5.4-4.9 5.4zm-2.2-23.3c-3.2 3.9-3.9 11.2-2.8 14.1 1.3 3.4 3.7 6.9 4.9 7.1.8.2 2.4-2.7 3.3-4.4.3-.5.5-1 .8-1.4l.6-1c1.7-3 4.2-7.5 4.5-10.3.4-3.3-1.3-10.5-2.3-11.7-.4-.4-.6-.7-.8-.7-.3 0-1.2.5-2.4 1.7-1.5 1.4-3.3 3.5-5.6 6.3 0 .2-.1.3-.2.3z" fill="#000000" stroke-width="none" opacity="1"></path><path id="SvgjsPath3683" d="M150 87c.3-2.3.5-7.8-.8-9.6-2.2-2.9-6 6.4-6.9 9.3 0 .1-.1.2-.1.3-.2.3.1.7.4.6.4-.2.9-.6 1.3-.8 1.1-.5 1.6.5 1.3 1.8-.4 1.8-1.4 2.9-2.2 4.3-.1.2 0 .4.2.3 1.6-.9 3.5-4.5 3.1-6.6-.3-2-1.9-1.8-3.1-.8.7-1.7 1.5-3.3 2.5-4.8.6-.9 1.2-2 2.2-2.2 1.2-.2 1 .3 1.2 1.8.8 4.8.3 10.4-2.5 14.5-.1.1 0 .2.1.1 1.7-2.3 2.9-4.9 3.3-8.2z" fill="#000000" stroke-width="none" opacity="1"></path></g></g><g id="svga-group-faceshape-wrap" transform="matrix(0.9599997000000001,0,0,0.9997997000000002,3.9960297258575252,0.0168652601527981)"><g id="svga-group-faceshape-single"><path id="SvgjsPath6898" d="M142.4 53.6c-2.3-11.4-15.1-28.8-42.4-28.8-27.3 0-36.4 13.4-40.5 23.3-2.5 6.2-3.2 15.2-3.4 19.7 0 0 .6 39.5 2 44.9 1.3 5.4 26.5 27.7 28.8 28.7 5.8 2.4 12.4 2.2 17.6 1.8 3.6-.3 7.1-1.7 9.9-4 8.5-6.8 26.7-21.7 27.6-27.5 1.1-7.2 1.7-43.9 1.7-43.9.1-3.2-.2-8.9-1.3-14.2z" fill="#ffffff" stroke-width="none" opacity="1"></path><path id="SvgjsPath6899" d="M98.8 144.7c-4.1 0-8.3-.5-12.3-2.2-2.5-1-28-23.6-29.5-29.5-1.4-5.5-2-43.6-2-45.2.2-4.8.9-13.8 3.4-20.1 6.6-16.2 20.1-24 41.5-24 12.3 0 23.2 3.6 31.3 10.4 6.3 5.2 10.9 12.5 12.2 19.3 1.1 5.5 1.3 11.4 1.4 14.4 0 1.5-.6 36.9-1.8 44.1-.7 4.5-9.8 13.7-28 28.2-3 2.4-6.7 3.9-10.5 4.2-1.7.3-3.7.4-5.7.4zM57.3 67.9c.2 13.6.9 40.5 1.9 44.6.4 1.6 4.2 6.4 13.6 15.4 7 6.6 13.5 12.1 14.5 12.5 5.5 2.3 11.7 2.2 17.1 1.7 3.4-.3 6.6-1.6 9.3-3.7 22.8-18.3 26.8-24.6 27.1-26.8 1.1-7 1.7-43.4 1.7-43.8 0-2.9-.3-8.7-1.4-14-1.3-6.4-5.6-13.1-11.5-18-7.7-6.5-18-9.9-29.9-9.9-20.3 0-33.2 7.4-39.4 22.6-2.1 6-2.8 14.7-3 19.4z" fill="#000000" stroke-width="none" opacity="1"></path></g></g><g id="svga-group-mouth-single-move" transform="matrix(1,0,0,1,0,0)"><g id="svga-group-mouth-single"><path id="SvgjsPath4472" d="M112.4 120.4c-.5-.3-1.7-.4-2.1-.6-6.8-4.2-15-4-21.6.5-.3.1-2 .1-2.3.2-.6.2 1.4.8 2 .6 2.1-.7 4.1-1.1 6.4-1.1 1.9 0 3.6 1.2 5.5 1.1 1.6-.1 3.1-1.1 4.7-1.3 2.2-.2 3.5-.5 5.4.7.4.4 2.5.3 2-.1zm-6.4-1.5c-.1-.2-.2-.4-.2-.6.2.1.3.1.5.2v.1c.1.1.1.2.1.4-.2-.1-.3-.2-.4-.1zm-5.7-1.6h.7v.1c.2.8.4 1.6.7 2.4-.2 0-.3.1-.4.1-.3-.9-.6-1.8-1-2.6zm1.2 0c.2 0 .3 0 .5.1v.1c.2.7.4 1.3.6 2-.1 0-.3.1-.4.1-.3-.7-.5-1.5-.7-2.3zm1 .2c.2 0 .4.1.5.1.2.6.4 1.1.6 1.7-.2.1-.4.1-.6.2-.1-.8-.3-1.4-.5-2zm1.1.2c.2 0 .3.1.5.1v.1c.1.4.2.8.4 1.2-.1 0-.3.1-.4.1-.1-.6-.3-1.1-.5-1.5zm1.1.2c.2.1.4.1.6.2v.2c.1.2.2.4.2.7-.2 0-.3 0-.5.1-.1-.5-.2-.8-.3-1.2zm2.1.7c.3.1.7.3 1 .4-.3-.1-.6-.1-.9-.1-.1-.1-.1-.2-.1-.3zm-10.8.6c-.2-.5-.4-.9-.7-1.4.1 0 .3-.1.4-.1l.6 1.5H96zm-.9-.1c-.2-.3-.3-.7-.5-1.1.1 0 .2-.1.3-.1l.6 1.2h-.4zm-.8 0c-.2-.3-.3-.5-.5-.8.1 0 .2-.1.3-.1.1.3.3.6.4.9h-.2zm-.9 0-.3-.6c.1 0 .2-.1.3-.1.1.2.2.4.4.7h-.4zm-.9.2c-.1-.1-.2-.3-.2-.4.1-.1.3-.1.4-.2.1.2.2.3.2.5-.2 0-.3 0-.4.1zm-1.1.2c0-.1-.1-.1-.1-.2.2-.1.3-.2.5-.2.1.1.1.2.2.3-.2 0-.4 0-.6.1zm4.9-1.9c.2 0 .3-.1.5-.1.2.7.5 1.4.7 2-.2-.1-.4-.1-.5-.1-.3-.6-.5-1.2-.7-1.8zm.9-.1c.1 0 .3 0 .4-.1.3.8.7 1.6 1 2.4-.2 0-.4-.1-.6-.1-.2-.7-.5-1.5-.8-2.2zm.9-.2h.6v.1l.9 2.7c-.2 0-.3 0-.5-.1-.3-.9-.6-1.8-1-2.7zm-7.2 2.2s0 .1 0 0c-.1.1-.2.2-.3.2.1-.1.2-.1.3-.2zm9.3.5c-.3-.9-.7-1.8-.9-2.7h.6v.1c.4.8.7 1.7 1 2.6h-.7zm8.2 2.6c-5.6 2-11.6 2-17.2-.2-.3-.1-.4.4-.1.5 5.6 2.2 11.8 2.2 17.4.2.3-.1.2-.6-.1-.5z" fill="#000000" stroke-width="none" opacity="1"></path></g></g><g id="svga-group-eyes-left-move" transform="matrix(1,0,0,1,1,-2)"><g id="svga-group-eyes-left" transform="matrix(0.8999997000000001,0,0,0.8999997000000001,7.877033404283708,8.690026222588344)"><g id="svga-group-eyesback-left"></g><g id="svga-group-eyesiriswrapper-left"><g id="svga-group-eyesiriscontrol-left" transform="matrix(1,0,0,1,0,0)"><g id="svga-group-eyesiris-left"><path id="SvgjsPath7597" d="M83.5 85.1c-1.1-2.1-3.5-2.9-5.7-2.2-2.4.8-4.2 3.3-3.3 5.9.5 1.4 1.6 2.6 3.1 2.9.5.1 1 .1 1.6.1.6.1 1.2 0 1.8-.2 2.6-.9 3.8-4 2.5-6.5z" fill="#ffffff" stroke-width="none" opacity="1"></path><path id="SvgjsPath7598" d="M82.3 85.8c0-.1-.1-.1-.1-.2-.7-1.4-2.3-2-3.8-1.7.5 1.1.9 2.3 1 3.5 0 .2-.3.4-.5.3-.9-.7-1.8-1.6-2.3-2.6-.3.4-.5.8-.7 1.2-.1.3-.1.6-.1.9-.2.9 0 2 .8 2.7.3.3.8.5 1.2.6 1.2.6 2.7.5 3.7-.6.1-.1.1-.2.2-.2.5-.5.8-1.1 1-1.7.2-.9 0-1.6-.4-2.2zm-2.8 6.3h-.4c-.5 0-1.1 0-1.6-.1-1.4-.3-2.7-1.5-3.2-3-.9-2.7 1-5.2 3.4-6.1 2.3-.8 4.8.1 5.9 2.2.6 1.2.7 2.7.2 4-.5 1.3-1.6 2.3-2.9 2.8-.4.1-.9.2-1.4.2zm-.4-.4c.6.1 1.2 0 1.8-.2 1.2-.4 2.2-1.4 2.7-2.6.5-1.2.4-2.6-.2-3.7-1-1.9-3.4-2.8-5.5-2.1-2.3.8-4.1 3.2-3.2 5.7.5 1.4 1.7 2.6 3 2.8.4.1.9.2 1.4.1z" fill="#000000" stroke-width="none" opacity="1"></path></g></g></g><g id="svga-group-eyesfront-left"><path id="SvgjsPath6713" d="M79 72.1c-8.2 0-14.8 6.6-14.8 14.8s6.6 14.8 14.8 14.8 14.8-6.6 14.8-14.8c0-8.1-6.6-14.8-14.8-14.8zm8.5 19.6c-2.4 0-20 0-20.7-1-.7-.9.8-3.4 2.9-4.7 2.1-1.3 4.9-3 8.8-3.2s10.3 1.1 12.6 7.6c.3.8-1.2 1.3-3.6 1.3z" fill="#ffffff" stroke-width="none" opacity="1"></path><path id="SvgjsPath6714" d="M91.8 90.1c-2.6-5.7-6.5-7.9-13.8-7.9-5.6.1-11.4 4.6-11.8 7.4-.1.9.3 1.5 1.1 1.8 1.8.5 8 .7 14.2.7 3 0 6 0 8.4-.1h.4c.3 0 .5-.2.5-.5s-.2-.5-.5-.5h-.4c-12.1.2-20.4 0-22.2-.6-.4-.1-.5-.3-.4-.6.3-2.1 5.5-6.4 10.8-6.5 6.9-.1 10.3 1.9 12.8 7.2.1.3.4.4.7.3.2-.1.3-.4.2-.7zm-21.3-6.4c1.5-1.1 6.1-4.3 11.4-3 5.1 1.3 8.1 5 8.1 5.1.1.1.3.2.4.2s.2 0 .3-.1c.2-.2.3-.5.1-.7-.1-.2-3.2-4.1-8.7-5.4-5.7-1.4-10.7 2-12.3 3.1-.2.2-.3.5-.1.7.2.2.5.3.8.1z" fill="#000000" stroke-width="none" opacity="1"></path></g></g></g><g id="svga-group-eyes-right-move" transform="matrix(1,0,0,1,-1,-2)"><g id="svga-group-eyes-right" transform="matrix(0.8999997000000001,0,0,0.8999997000000001,12.101285998573289,8.690026222588344)"><g id="svga-group-eyesback-right"></g><g id="svga-group-eyesiriswrapper-right"><g id="svga-group-eyesiriscontrol-right" transform="matrix(1,0,0,1,0,0)"><g id="svga-group-eyesiris-right"><path id="SvgjsPath7599" d="M125.6 85.1c-1.1-2.1-3.5-2.9-5.7-2.2-2.4.8-4.2 3.3-3.3 5.9.5 1.4 1.6 2.6 3.1 2.9.5.1 1 .1 1.6.1.6.1 1.2 0 1.8-.2 2.5-.9 3.7-4 2.5-6.5z" fill="#ffffff" stroke-width="none" opacity="1"></path><path id="SvgjsPath7600" d="M124.4 85.8c0-.1-.1-.1-.1-.2-.7-1.4-2.3-2-3.8-1.7.5 1.1.9 2.3 1 3.5 0 .2-.3.4-.5.3-.9-.7-1.8-1.6-2.3-2.6-.3.4-.5.8-.7 1.2-.1.3-.1.6-.1.9-.2.9 0 2 .8 2.7.3.3.8.5 1.2.6 1.2.6 2.7.5 3.7-.6.1-.1.1-.2.2-.2.5-.5.8-1.1 1-1.7.1-.9 0-1.6-.4-2.2zm-2.8 6.3h-.4c-.5 0-1.1 0-1.6-.1-1.4-.3-2.7-1.5-3.2-3-.9-2.7 1-5.2 3.4-6.1 2.3-.8 4.8.1 5.9 2.2.6 1.2.7 2.7.2 4-.5 1.3-1.6 2.3-2.9 2.8-.4.1-.9.2-1.4.2zm-.4-.4c.6.1 1.2 0 1.8-.2 1.2-.4 2.2-1.4 2.7-2.6.5-1.2.4-2.6-.2-3.7-1-1.9-3.4-2.8-5.5-2.1-2.3.8-4.1 3.2-3.2 5.7.5 1.4 1.7 2.6 3 2.8.3.1.8.2 1.4.1z" fill="#000000" stroke-width="none" opacity="1"></path></g></g></g><g id="svga-group-eyesfront-right"><path id="SvgjsPath6715" d="M121 72.1c-8.2 0-14.8 6.6-14.8 14.8s6.6 14.8 14.8 14.8 14.8-6.6 14.8-14.8c0-8.1-6.6-14.8-14.8-14.8zm-8.5 19.6c-2.4 0-3.9-.5-3.6-1.3 2.3-6.5 8.7-7.8 12.6-7.6 3.9.2 6.7 1.9 8.8 3.2 2.1 1.3 3.6 3.7 2.9 4.7-.7.9-18.3 1-20.7 1z" fill="#ffffff" stroke-width="none" opacity="1"></path><path id="SvgjsPath6718" d="M122 82.3c-7.3-.1-11.1 2.1-13.8 7.9-.1.3 0 .6.3.7s.6 0 .7-.3c2.5-5.4 5.9-7.3 12.8-7.2 5.3.1 10.5 4.4 10.8 6.5.1.4-.1.5-.4.6-1.8.5-10.1.7-22.2.6h-.4c-.3 0-.5.2-.5.5s.2.5.5.5h.4c2.4 0 5.4.1 8.4.1 6.1 0 12.4-.1 14.2-.7.8-.3 1.3-.9 1.1-1.8-.5-2.8-6.3-7.3-11.9-7.4zM109.6 86c.2 0 .3-.1.4-.2 0 0 3-3.8 8.1-5.1 5.3-1.3 9.9 1.9 11.4 3 .2.2.6.1.7-.1.2-.2.1-.6-.1-.7-1.6-1.1-6.5-4.6-12.3-3.1-5.5 1.4-8.6 5.3-8.7 5.4-.2.2-.1.5.1.7.1.1.3.1.4.1z" fill="#000000" stroke-width="none" opacity="1"></path></g></g></g><g id="svga-group-facehighlight-single"></g><g id="svga-group-eyebrows-left-move" transform="matrix(1,0,0,1,0,-3)"><g id="svga-group-eyebrows-left-rotate" transform="matrix(0.9978589232386035,-0.06540312923014324,0.06540312923014324,0.9978589232386035,-4.7445080972583185,5.217380467112719)"><g id="svga-group-eyebrows-left"><path id="SvgjsPath5316" d="M63.19 79.72s3.09-9.26 3.97-9.85c.88-.59 24.4 1.03 24.4 1.03s-3.38 5.44-4.7 6.17c-1.32.73-17.49-1.18-18.67-.73-1.18.44-5 3.38-5 3.38z" fill="#ffffff" stroke-width="none" opacity="1"></path><path id="SvgjsPath5317" d="m62.42 80.79 1-.77c1.05-.81 3.98-2.98 4.9-3.32.48-.16 4.29.13 7.64.39 6.37.49 10.29.76 11.07.32 1.37-.76 4.49-5.74 4.84-6.31l.34-.54-.64-.04c-.06 0-5.95-.41-11.87-.74-12.11-.67-12.53-.38-12.76-.23-.92.61-3.39 7.84-4.12 10.05l-.4 1.19zm4.66-10.17-.7 6.32c-.4.27-.82.55-1.22.84.41-1.73 1.4-5.91 1.46-6.11.01-.02-.01-.04-.01-.06.17-.41.33-.74.47-.99zm3.39-.47-.35 5.77c-.26-.01-.48-.02-.69-.02l-1.16-5.76c.54-.02 1.29-.01 2.2.01zm2.48 5.94c-.48-.03-.93-.07-1.33-.09l.9-5.79c.64.02 1.31.05 2.03.08l-1.6 5.8zm2.12-5.77.71.03-1.92 5.81-.4-.03 1.61-5.81zm-3.96 5.65-.48-.03.35-5.78 1.02.03-.89 5.78zm6.06-1.72.96-3.78c.28.01.56.03.85.04l-1.81 3.74zm1.03-.96-.96 3.13c-.18-.01-.36-.03-.54-.04l1.5-3.09zm3.97-2.6-2.57 5.89c-.62-.04-1.23-.09-1.83-.13l1.81-5.91c.85.06 1.72.1 2.59.15zm-1.87 5.95 2.85-3.8-1.89 3.86-.96-.06zm1.52.09 2.89-5.89 2.37.15-2.63 5.86c-.77-.02-1.67-.06-2.63-.12zm2.22-5.92-3.24 4.32 1.92-4.4c.44.02.88.05 1.32.08zm2.62 5.93c-.07.04-.21.06-.38.08l3.57-5.65c.35.02.69.05 1.03.07-1.11 1.75-3.31 5-4.22 5.5zm-1.66.12 2.62-5.83c.56.04 1.11.07 1.65.11l-3.62 5.72H85zm-10.6-.66 1.92-5.82 1.29.06-1.5 5.88c-.03 0-.06 0-.08-.01-.59-.03-1.12-.07-1.63-.11zm-6.35-.22c-.27.1-.67.33-1.12.61l.71-6.42c.03 0 .06-.01.1-.01l1.16 5.74c-.42 0-.7.03-.85.08zm-4.1 2.68c.46-1.36.95-2.7 1.4-3.92-.35 1.48-.71 3-.83 3.5-.2.15-.4.29-.57.42z" fill="#000000" stroke-width="none" opacity="1"></path></g></g></g><g id="svga-group-eyebrows-right-move" transform="matrix(1,0,0,1,0,-3)"><g id="svga-group-eyebrows-right-rotate" transform="matrix(0.9914448613738103,-0.13052619222005155,0.13052619222005155,0.9914448613738103,-8.749476186502179,16.655869117334078)"><g id="svga-group-eyebrows-right"><path id="SvgjsPath5318" d="M136.81 79.72s-3.09-9.26-3.97-9.85c-.88-.59-24.4 1.03-24.4 1.03s3.38 5.44 4.7 6.17c1.32.73 17.49-1.18 18.67-.73s5 3.38 5 3.38z" fill="#ffffff" stroke-width="none" opacity="1"></path><path id="SvgjsPath5319" d="M137.18 79.6c-.73-2.2-3.2-9.43-4.12-10.05-.23-.15-.66-.44-12.76.23-5.92.33-11.81.73-11.87.74l-.64.04.34.54c.35.57 3.47 5.54 4.84 6.31.78.43 4.7.17 11.07-.32 3.36-.26 7.16-.55 7.64-.39.92.34 3.85 2.52 4.9 3.32l1 .77-.4-1.19zm-3.78-7.99c0 .02-.01.04-.01.06.05.2 1.05 4.39 1.46 6.11-.4-.29-.82-.58-1.22-.84l-.7-6.32c.13.25.29.58.47.99zm-1.66-1.48-1.16 5.76c-.21 0-.43.01-.69.02l-.35-5.77c.9-.01 1.65-.02 2.2-.01zm-6.29.17c.71-.03 1.39-.06 2.03-.08l.9 5.79c-.4.03-.85.06-1.33.09l-1.6-5.8zm1.08 5.83-.4.03-1.92-5.81.71-.03 1.61 5.81zm1.47-5.94 1.02-.03.35 5.78-.48.03-.89-5.78zm-6.97.33c.28-.02.57-.03.85-.04l.96 3.78-1.81-3.74zm2.27 5.86c-.18.01-.36.03-.54.04l-.96-3.13 1.5 3.09zm-2.88-5.83 1.81 5.91c-.6.05-1.22.09-1.83.13l-2.57-5.89c.87-.06 1.74-.1 2.59-.15zm-1.68 6.15-1.89-3.86 2.85 3.8-.96.06zm-3.18.15-2.63-5.86 2.37-.15 2.89 5.89c-.97.06-1.87.1-2.63.12zm1.73-6.12 1.92 4.4-3.24-4.32c.43-.03.87-.06 1.32-.08zm-8.17.51c.34-.02.68-.05 1.03-.07l3.57 5.65c-.18-.02-.31-.05-.38-.08-.91-.5-3.11-3.75-4.22-5.5zm5.23 5.62-3.62-5.72c.54-.04 1.09-.07 1.65-.11l2.62 5.83h-.65zm9.63-.54c-.03 0-.06 0-.08.01l-1.5-5.88 1.29-.06 1.92 5.82c-.52.03-1.05.07-1.63.11zm7.12-.43 1.16-5.74c.04 0 .07.01.1.01l.71 6.42c-.45-.28-.85-.51-1.12-.61-.15-.04-.43-.07-.85-.08zm4.38 2.36c-.12-.5-.48-2.02-.83-3.5.46 1.21.94 2.56 1.4 3.92-.17-.14-.37-.28-.57-.42z" fill="#000000" stroke-width="none" opacity="1"></path></g></g></g><g id="svga-group-beardwrap" transform="matrix(0.9599997000000001,0,0,0.9997997000000002,0,0)"><g id="svga-group-beard-single-move" transform="matrix(1,0,0,1,0,0)"><g id="svga-group-beard-single"></g></g></g><g id="svga-group-mustache-single-move" transform="matrix(1,0,0,1,0,0)"><g id="svga-group-mustache-single"></g></g><g id="svga-group-nose-single-move" transform="matrix(1,0,0,1,0,0)"><g id="svga-group-nose-single"><path id="SvgjsPath3822" d="M103.29 107.27c-1.43 1.14-6.6.84-8.09-1.16-1.49-2.01-1.23-5.37-.71-8.74.52-3.36 3.24-17.34 3.75-18.38.52-1.04 1.75-1.16 2.39 0s3.43 16.63 3.75 20.45.86 6.28-1.09 7.83z" fill="#ffffff" stroke-width="none" opacity="1"></path><path id="SvgjsPath3823" d="M95.15 107.24c2.35 1.15 5.1 2.37 7.68 1.14 2.66-1.27 2.67-4.06 2.36-6.63-.96-7.77-2.31-15.48-3.95-23.13-.2-.94-1.65-.54-1.44.4 1.2 5.6 2.24 11.23 3.09 16.89.41 2.72 1.34 5.93.94 8.68-.62 4.25-5.38 2.6-7.91 1.36-.88-.42-1.64.87-.77 1.29z" fill="#000000" stroke-width="none" opacity="1"></path></g></g><g id="svga-group-hair-front" transform="matrix(0.9599997000000001,0,0,0.9997997000000002,3.9277522362411332,0.011492211162845933)"><path id="SvgjsPath5797" d="M73.2 48.8s14.8-.7 23-2.9c0 0 22.1 2 28.9 1.3 0 0 6 10 10.1 11.3 0 0 1.6 8.2 3.6 10.4 0 0 1.6 9.3 2.9 12s-.7 14-.7 14 7.8-12.7 7.2-19.1c0 0 4 6.2 9.2 8.4 0 0-7.2-15.5-7.6-20.7 0 0 7.6 2 11.6 5.3 0 0-8.1-15.5-13-18.9 0 0 3.6-.9 8.3-3.3 0 0-9.6-2.7-12.1-4.9 0 0 7.6-3.6 10.3-8.4 0 0-9.2 1.1-11.2.4 0 0 3.4-8.7 3.8-14.4 0 0-9.2 5.8-14.8 4.4 0 0 4.3-5.1 5.1-9.1 0 0-15.2 5.6-26.8 4.7 0 0 3.6-5.8 4.3-10.2 0 0-10.7 7.3-16.6 8.2-5.8 1.1-14.8 3.7-14.8 3.7s2.5-5.3 1.8-10.4c0 0-11.9 14.2-15 16.4s-9.8 6.7-9.8 6.7-1.1-9.3-5.4-13.8c0 0 .4 16.7-1.3 20.2 0 0-5.4-4.7-11.2-6 0 0 6.7 9.3 8.3 12.9 0 0-4.5 8-10.5 10l7.8 1.3s-3.8 11.1-5.8 15.1-4.3 9.1-7.6 12.4l13.2-7.1s-6.3 15.5-5.8 22.9L50 94s1.6 10.4 4.5 12c0 0 2.2-18 4.3-21.1 2-3.1 5.8-27.3 5.8-27.3s1.8 7.6 2 11.3c-.1.1 7-12.6 6.6-20.1z" fill="#ffffff" stroke-width="none" opacity="1"></path><path id="SvgjsPath5798" d="M162.2 68.5c-.3-.6-6.8-13.1-11.8-18 1.5-.5 3.9-1.4 6.7-2.9.4-.2.6-.6.5-1s-.3-.7-.7-.9c-2.2-.6-7.6-2.3-10.4-3.8 2.4-1.3 7.1-4.3 9.2-8.1.2-.3.2-.7 0-1s-.6-.5-.9-.4c-2.9.3-7.5.8-9.7.6.9-2.6 3.1-8.9 3.4-13.6 0-.4-.2-.7-.5-.9-.3-.2-.7-.2-1 0-.1 0-7.2 4.5-12.4 4.5 1.4-1.9 3.6-5.2 4.2-8.1.1-.4 0-.7-.3-1-.3-.2-.7-.3-1-.2-.1.1-13.8 5-24.8 4.7 1.1-2 3.1-5.9 3.6-9.2.1-.4-.1-.8-.5-1-.3-.2-.8-.2-1.1 0-.1.1-10.6 7.2-16.1 8.1-4.2.6-10 2.2-13 3 .7-2.1 1.6-5.6 1.1-9.1-.1-.4-.3-.7-.7-.8-.4-.1-.8 0-1 .3-4.1 4.9-12.4 14.6-14.8 16.3-2.2 1.6-6.4 4.4-8.5 5.8-.5-2.9-2-9.2-5.4-12.8-.3-.3-.7-.4-1.1-.2-.4.2-.6.5-.6.9.1 4.1.1 14.4-.8 18.5-1.9-1.5-6-4.3-10.5-5.3-.4-.1-.8.1-1.1.4-.2.3-.2.8 0 1.1.1.1 6.1 8.5 8 12.2-1 1.6-4.9 7.5-9.7 9.1-.4.1-.7.6-.7 1 0 .5.4.8.8.9l6.7 1.1c-1 2.9-3.8 10.7-5.4 13.9-.3.6-.6 1.1-.9 1.7-1.8 3.6-3.8 7.7-6.6 10.4-.4.4-.4.9-.1 1.3s.8.5 1.3.3l10.8-5.8c-1.8 4.8-5.3 15-4.9 20.8 0 .4.3.7.6.9.4.1.8 0 1.1-.2l6-6.2c.6 3.4 2.1 9.4 4.7 10.8.1.1.3.1.5.1s.3 0 .5-.1c.3-.2.5-.4.5-.8.9-7.1 2.7-18.5 4.1-20.7 1.5-2.4 3.8-15 5.1-22.5.4 2.1.8 4.4.9 6 0 .4.3.8.8.9.4.1.9-.1 1.1-.5.3-.5 6.7-12 6.9-19.8 3.4-.2 14.9-.9 22.1-2.8 2.2.2 21.2 1.9 28.2 1.4 1.3 2.2 6 9.2 9.7 11 .4 1.9 1.7 7.9 3.5 10.2.3 1.6 1.7 9.5 3 12 .9 1.7 0 9.1-.8 13.4-.1.5.2.9.6 1.1.4.2 1 0 1.2-.4.3-.5 6.1-9.9 7.2-16.8 1.7 2.1 4.6 5.1 7.9 6.5.4.2.8.1 1.1-.2.3-.3.4-.7.2-1.1-.1-.1-5.9-12.9-7.3-18.8 2.4.7 7 2.4 9.7 4.7.4.3.9.3 1.3 0s.5-.4.3-.9zm-12.3-5.8c-.3-.1-.6 0-.9.2s-.4.5-.4.9c.3 3.9 4.3 13.4 6.4 18.1-3.5-2.6-6.1-6.5-6.2-6.6-.3-.4-.7-.6-1.2-.4-.4.2-.7.6-.7 1 .4 3.6-2.2 9.6-4.4 13.8.4-3.5.6-7.6-.2-9.2-1-2.1-2.4-9.2-2.8-11.7 0-.2-.1-.4-.2-.5-1.5-1.6-2.9-7.7-3.3-10-.1-.4-.3-.6-.7-.8-3-1-7.8-8.1-9.5-10.8 4.6-1.9 8.7-4.8 12-8.6.3-.4.1-.8-.2-1-.1-.3-.3-.5-.7-.4-3.6 1.4-7.2 2.3-11 2.7 4-3.6 7.1-8 9.3-13 .2-.6-.3-1.1-.7-.9-.2-.1-.5-.2-.8 0-3.6 2.8-7.5 5-11.9 6.5-.8.3-.4 1.5.3 1.2 4.1-1.4 7.8-3.4 11.3-6-2.3 4.6-5.4 8.7-9.3 12.1-.2.2-.2.4-.2.6-.2.4 0 .9.5.9 3.9-.3 7.6-1.1 11.3-2.3-3.2 3.3-7.1 5.9-11.5 7.5-.1.1-.2.1-.3.2-5.9.4-20.5-.8-25.9-1.2 6.7-2.8 12.6-7 17.4-12.7.1-.1.1-.2.1-.4.3-.5-.5-1.2-1-.7-3.7 3.4-10.4 3.5-15.1 4.4-.8.2-.5 1.4.3 1.2 3.7-.7 8.3-1 12.1-2.6-5.1 5.1-11.3 8.9-18.3 11-.1 0-.1.1-.2.1-8.3 1.7-20.4 2.3-20.6 2.3-.3 0-.5.1-.7.3s-.3.5-.3.7c.3 5.1-3.1 12.7-5.1 16.8-.6-3.7-1.6-8-1.6-8.2-.1-.5-.5-.8-1-.8s-.9.4-.9.8c-1.5 9.6-4.3 24.8-5.7 26.9-1.7 2.6-3.4 14.3-4.1 19.3-1.2-2.3-2.3-6.7-2.8-9.8-.1-.4-.3-.7-.7-.8h-.3c-.3 0-.5.1-.7.3l-5.6 5.7c.7-7.6 5.6-19.8 5.7-20 .2-.4.1-.8-.3-1.1-.3-.3-.8-.3-1.1-.1l-8.9 4.8c1.5-2.3 2.7-4.8 3.9-7.1.3-.6.6-1.2.9-1.7 2-4 5.7-14.8 5.9-15.2.1-.3.1-.6-.1-.8-.1-.3-.4-.4-.7-.5l-4.5-.6c4.8-3.1 8-8.8 8.2-9 .2-.3.2-.6 0-.9-1.1-2.5-4.5-7.6-6.7-10.6 4.4 1.8 7.9 4.9 8 4.9.2.2.5.3.8.2s.6-.3.7-.5c1.4-2.8 1.5-12.4 1.5-17.5 2.5 4.5 3.3 10.7 3.3 10.8 0 .3.3.6.6.8.3.1.7.1 1-.1.1 0 6.8-4.5 9.9-6.7 2.5-1.8 10.1-10.6 13.5-14.6-.2 3.9-1.8 7.4-1.8 7.4-.2.4-.1.8.2 1.1.3.3.7.4 1 .3.1 0 8.9-2.7 14.6-3.5 4.4-.7 11.3-4.8 14.8-7-1.2 3.7-3.5 7.4-3.5 7.5-.2.3-.2.7 0 1s.5.5.8.5c9.4.7 20.8-2.6 25.3-4.1-1.4 3.3-4.3 6.8-4.3 6.9-.2.3-.3.6-.2 1s.4.6.7.7c4.4 1.1 10.7-1.9 13.8-3.5-.9 5.4-3.5 12.1-3.5 12.2-.1.3-.1.5 0 .8s.3.4.6.5c1.6.5 6.4.1 9.4-.2-3.1 3.7-8.6 6.3-8.6 6.3-.3.1-.5.4-.6.8 0 .3.1.7.3.9 1.8 1.6 6.9 3.4 10 4.4-3.4 1.5-5.7 2.1-5.8 2.1-.4.1-.7.4-.7.8-.1.4.1.8.4 1 3.3 2.2 8.1 10.4 10.8 15.1-3.9-2.3-8.3-3.5-8.6-3.6zM91.4 23.9c-.1 0-.1.1-.2.1-7.9 2.2-17.1 6.5-20.8 14.3-.3.7.7 1.4 1.1.6 3.1-6.6 10.4-10.6 17.3-12.9-1.9 1.8-3.5 3.9-4.7 6.3-.4.7.7 1.3 1.1.6 1.6-3.1 3.8-5.8 6.6-7.9h.1c.5-.1.5-.7.3-1-.1-.2-.5-.4-.8-.1zM59.6 51c-1.4 5.4-3 10.7-6.7 14.8 1.1-3.9 1.2-7.9.3-11.9-.2-.9-1.4-.5-1.2.3 1 4.5.7 8.9-.9 13.2-.1.2 0 .4.1.6.2.3.7.6 1 .2 5.1-4.3 7-10.6 8.6-16.8.2-.9-1-1.2-1.2-.4z" fill="#000000" stroke-width="none" opacity="1"></path></g><g id="svga-group-glasses-single-move" transform="matrix(1,0,0,1,0,0)"><g id="svga-group-glasses-single"></g></g></g></g></g><rect id="svga-credit-rect" width="200" height="15" x="0" y="185" fill="#ecf0f1" opacity="0.5" style="display: none;"></rect><text id="svga-credit-text" font-family="Avenir Next, Roboto, Helvetica, Arial, sans-serif" font-size="10px" text-anchor="start" font-weight="400" size="10px" anchor="start" weight="400" fill="#333333" x="33.40447998046875" y="182.60824704170227" style="display: none;"><tspan id="SvgjsTspan3640" dy="13" x="33.40447998046875">Created on AvatarMaker.com</tspan></text></g><defs id="SvgjsDefs3587"></defs></svg>