<?xml version="1.0" encoding="utf-8"?>
<!-- Generator: Adobe Illustrator 25.0.1, SVG Export Plug-In . SVG Version: 6.00 Build 0)  -->
<svg version="1.1" id="Layer_1" xmlns="http://www.w3.org/2000/svg" xmlns:xlink="http://www.w3.org/1999/xlink" x="0px" y="0px"
	 viewBox="0 0 600 600" style="enable-background:new 0 0 600 600;" xml:space="preserve">
<style type="text/css">
	.st0{fill:#FFFFFF;}
	.st1{fill:url(#SvgjsPath8542_1_);}
	.st2{fill:url(#SvgjsPath8547_1_);}
	.st3{display:none;fill:#FFFFFF;}
	.st4{display:none;opacity:0.5;fill:#ECF0F1;enable-background:new    ;}
</style>
<g id="svga-group-wrapper">
	<g id="svga-group-backs-single">
		<path id="SvgjsPath3817" class="st0" d="M0,0h600v600H0V0z"/>
	</g>
	<g id="svga-group-humanwrap-move" transform="matrix(1,0,0,1,0,0)">
		<g id="svga-group-humanwrap">
			<g id="svga-group-hair-back-move" transform="matrix(1,0,0,1,0,0)">
				<g id="svga-group-hair-back" transform="matrix(1.0400003000000002,0,0,1.0002003000000002,0,0)">
				</g>
			</g>
			<g id="svga-group-humanbody-back">
				<path id="SvgjsPath3770" class="st0" d="M232.8,311.9c0,57.9,10.2,132.3-30,155.7c-40.2,23.7-95.7,33.9-113.4,66
					s-13.2,75.9-13.2,75.9h447.9c0,0,2.1-56.7-15.3-79.2c-24.3-31.2-83.4-46.5-113.1-62.7s-40.2-75.3-40.2-157.2L232.8,311.9
					L232.8,311.9z"/>
			</g>
			<g id="svga-group-chinshadow-single">
			</g>
			<g id="svga-group-humanbody-front">
				<path id="SvgjsPath3771" d="M579.8,613.1H21l-0.4-3c-0.4-1.8-5.5-45.3,16.6-78c15.1-22.2,49.8-33.9,86.7-46.5
					c18.5-6.3,37.6-12.9,54.6-20.7c39.1-18.6,37.3-71.7,35.4-123c-0.4-10.5-0.7-20.4-0.7-30v-3.3l159.4-1.2v3.3
					c0,89.7,15.5,140.1,47.2,154.2c10.7,4.8,24.7,9.6,39.9,14.7c36.9,12.3,78.6,26.4,100.4,48.9c22.5,23.1,19.9,79.2,19.9,81.3
					L579.8,613.1L579.8,613.1z M28.7,606.5h542.9c0-12.3-0.7-55.5-18.1-73.8c-20.3-21-61.3-34.8-97.1-46.8
					c-15.1-5.1-29.5-9.9-40.6-15c-18.8-8.4-32.1-26.7-40.2-56.1c-7.4-25.2-10.7-58.2-11.1-100.5l-142.5,1.2c0,8.4,0.4,17.1,0.7,26.4
					c1.8,53.4,3.7,108.3-39.5,129c-17.3,8.1-36.5,14.7-55.4,21.3c-35.4,12-69,23.4-82.7,43.5C26.9,561.5,28,596,28.7,606.5
					L28.7,606.5z"/>
				<path id="SvgjsPath3772" d="M281.7,418.4c-1.5,5.4-1.2,10.2,1.5,15.6c2.4,4.8,6.3,8.1,11.7,8.7c1.2,0,2.1-1.5,1.5-2.4
					c-4.8-6.6-10.5-12.6-11.1-21.3C285.3,416.9,282.3,416.3,281.7,418.4L281.7,418.4z"/>
				<path id="SvgjsPath3773" d="M337.5,519.5c26.4,1.5,54.3-2.1,79.8-8.7c2.1-0.6,1.8-4.2-0.6-3.9c-26.4,3.3-53.1,6-79.5,9.9
					C335.7,517.1,336.3,519.5,337.5,519.5L337.5,519.5z"/>
				<path id="SvgjsPath3774" d="M189.3,504.5c11.4,2.7,22.8,5.7,34.5,8.4c10.8,2.4,22.2,6,33.3,6.3c2.1,0,2.4-2.7,0.6-3.6
					c-10.5-4.2-22.5-5.1-33.6-7.5c-11.4-2.1-22.5-3.9-33.9-6C188.7,502.1,188.1,504.2,189.3,504.5L189.3,504.5z"/>
			</g>
			<g id="svga-group-clothes-single">
				<path id="SvgjsPath8898" class="st0" d="M217.3,402.3c0,0-4,0.7-12.3,11.1s-15.2,18.7-15.2,18.7v7.6c0,0-22.5,14.2-40.4,18.7
					c-17.9,4.5-76.9,37-76.9,37s-20.2,29.4-23.5,52.3c-3.3,22.9-2.3,63.4-2.3,63.4h507.2c0,0-1.7-50.5-5.6-67.5
					c-4-17-16.9-44-16.9-44s-53.4-30.5-73.6-38.1c-20.2-7.6-51.7-20.4-51.7-20.4v-6.6c0,0-9.6-11.8-16.9-19.4
					c-7.3-7.6-5.6-11.8-11.3-13.5c0,0,0,20.4-3.3,33.9s-32.5,31.2-42.1,34.6c-9.6,3.5-12.9,0-16.2,10c-3.3,10-9.6,25.3-9.6,25.3
					s-13.9-17-22.5-23.5c-8.6-6.6-20.2-12.8-34.8-11.1C234.5,472.3,222.3,416.5,217.3,402.3z"/>
				<path id="SvgjsPath8899" d="M551.5,542.5c-4-17-16.6-43.6-17.2-44.7c-0.3-0.7-0.7-1-1.3-1.4c-2.3-1.4-53.7-30.8-73.9-38.1
					c-16.9-6.2-42.1-16.3-49.4-19.4v-4.5c0-0.7-0.3-1.7-0.7-2.1c-0.3-0.3-9.9-12.1-17.2-19.7c-3-3.1-4.3-5.5-5.3-7.6
					c-1.7-2.8-3-5.5-7.3-6.9c-1-0.3-2,0-3,0.7c-1,0.7-1.3,1.7-1.3,2.8c0,0.3,0,20.1-3,32.9c-2.3,9.7-21.9,23.5-34.1,29.8
					c-0.3,0-0.7,0.3-0.7,0.3c-2,1-3.6,1.7-5,2.1c-2.7,1-4.6,1.4-6.6,1.7c-5.6,1-9,2.1-11.6,10.7c-2,6.2-5.3,14.9-7.6,20.1
					c-4.6-5.5-13.3-15.2-19.9-20.1c-8-5.9-20.2-13.5-37.1-11.8c-9.3,1-20.2-38.8-24.5-54c-1.3-4.8-2.7-9.3-3.6-12.1
					c-0.7-1.7-2.3-2.8-3.6-2.1c-1.3,0.3-6,1.7-13.9,12.1c-8,10-15.2,18.3-15.2,18.3c-0.7,0.7-1,1.4-1,2.4v5.5
					c-5.3,3.1-23.5,13.8-37.8,17.3c-17.9,4.2-75.3,36-77.6,37.4l-1,1c-0.7,1.4-20.6,30.5-23.9,54c-3.3,22.9-2.7,62.3-2.3,64.1
					c0,1.7,1.7,3.5,3.3,3.5h507.2c1,0,1.7-0.3,2.3-1c0.7-0.7,1-1.7,1-2.4C557.1,608.7,555.5,559.5,551.5,542.5L551.5,542.5z
					 M550.2,599.3c-2,2.8-4,5.2-6,8h-7.3c4.6-4.8,9-9.7,13.3-14.5C549.8,595.2,550.2,597.2,550.2,599.3z M528.6,502
					c2.3,4.8,12.9,27.7,16.2,42.2c2.3,9.7,3.6,30.8,4.6,46.7c-5.3,5.5-10.6,10.7-15.9,16.6h-11.3c7-6.6,13.3-14.5,19.6-21.8
					c0.7-0.7-0.3-1.7-1-1c-7,7.6-15.3,14.5-21.9,22.9h-8.6c7.6-9,14.3-18,23.2-25.6c0.7-0.7-0.3-1.4-1-1
					c-8.6,7.6-17.9,16.6-24.2,26.7h-10.9l0.3-0.3c0.3-0.3,0-0.7-0.3-0.7c5-3.1,10.3-10.7,14.6-15.9c5.3-6.2,10.3-12.1,15.6-18.3
					c0.3-0.7-0.3-1.4-0.7-0.7c-10.3,11.8-20.6,23.2-30.5,35c-0.3-2.4-0.3-5.9-0.7-10c10.6-12.1,20.6-24.9,30.8-37.4
					c0.3-0.7-0.3-1.4-0.7-0.7c-9.9,11.8-20.2,23.5-30.2,36c-0.3-4.2-0.3-8.3-0.7-13.2c7.3-10,14.9-19.4,23.2-28.4
					c0.3-0.3-0.3-1-0.7-0.7c-8.3,8.3-15.9,17-22.9,26.3v-15.9c7-9.3,13.6-18.3,21.5-27c0.3-0.3-0.3-1-0.7-0.7
					c-7.3,7.3-14.9,15.2-20.9,24.2c0-3.1,0.3-6.6,0.7-9.3c5-6.6,9.9-12.8,15.6-18.7c0.3-0.3-0.3-1-0.7-0.7
					c-5,4.8-10.3,10.4-14.6,15.9c0.7-3.8,1.3-7.3,2.3-10.7c2-2.8,3.6-5.2,5.3-8c0.3-0.3-0.3-1-0.7-0.7c-1.3,1.4-2.3,3.1-3.6,4.8
					c4.3-15.2,11.3-29.1,17.6-36.7C522.6,498.6,526.9,501,528.6,502L528.6,502z M377.4,435.9c2-8.3,2.7-19.4,3-26.7
					c1,2.1,2.7,4.8,6,8c6,6.2,13.6,15.2,15.9,18.3v5.5c-0.7,5.5,1.7,20.8,4.6,32.5c1,3.5,2.7,9,5,15.2c3,9,8.3,24.9,8.6,30.8
					c-3.6-1.4-6.3-3.5-12.6-8.7c-3.6-3.1-9-7.3-16.2-12.8c-12.9-9.7-19.6-16.6-25.2-21.8c-3.3-3.1-6-5.9-9-8.3
					c-2.3-2.1-4.6-3.1-7-3.8C362.5,456.3,375.1,445.6,377.4,435.9L377.4,435.9z M350.9,486.5c0-5.2-1.7-11.1-2.3-16.3
					c1.3,0.7,3,1.4,4.6,2.8c0.3,3.8,0,8,0.7,11.8C352.9,485.4,351.9,486.1,350.9,486.5z M354.6,474c1,0.7,1.7,1.4,2.7,2.4v0.3
					c0.3,1.4,0.3,3.1,0.7,4.5c0,0.3,0.7,0.3,0.7,0c0-1.4,0-2.4-0.3-3.8l3,3.1c-2,1.4-4.3,2.8-6.3,3.8
					C355.6,480.9,354.9,477.5,354.6,474z M347.6,469.8c0.7,5.5,0.7,11.8,2,17.3c-1.3,0.7-2.7,1.4-4,1.7c0-6.6-1-13.2-1.7-19.7
					C344.9,469.5,345.9,469.5,347.6,469.8z M333.3,473c1.7-0.3,3.6-1.4,6-2.8c0.7-0.3,1.7-0.7,3.3-1c0.7,6.6,0.7,13.5,2,20.1
					c-1,0.3-2.3,0.7-3.3,1c-0.7-6.2-2.7-12.5-4-18.3c0-0.7-1-0.3-1,0.3c1,5.9,1.7,12.8,3.6,18.7c-2,0.7-4.3,1.4-6.3,2.1
					c-0.7-2.4-1.3-4.8-1.7-7.3c0-0.3,0.3-0.7,0.3-1.4c0-1.4-0.7-2.4-1.3-3.5c-0.7-2.1-1-4.5-1.3-6.9C330.4,474,332,473.6,333.3,473
					L333.3,473z M325.4,494.8c-0.7-2.1-1.3-4.5-2-6.6c1,1,2.3,1.7,3.6,1.7c1.3,0,2.7-0.7,3.6-1.7c0.7,1.7,1,3.8,1.7,5.5
					C330.4,493.7,327.7,494.4,325.4,494.8L325.4,494.8z M325.7,475c0.7,0,1.7-0.3,2.7-0.3c0.3,1.7,0.3,3.5,0.7,5.2
					c-0.7-0.3-1.3-0.3-2-0.3c-2.3,0-4,1.4-4.6,3.8c-0.3-2.1-0.7-4.2-1-6.6C322.4,475.7,323.7,475.4,325.7,475z M320.4,478.1
					c0.3,5.9,1.3,11.4,3.6,16.6c-1.7,0.3-3.6,0.3-5.3,0.7c-0.3-2.4-1-4.8-2-7.3c1-2.4,1.7-4.8,2.7-7.3
					C319.7,479.9,320.1,478.8,320.4,478.1L320.4,478.1z M317.4,495.5c-1,0-2.3,0-3.6,0.3l2-5.2C316.4,492.3,316.8,494.1,317.4,495.5
					z M282.6,485.1c0.3,4.2,0.3,9,1.7,13.2c0.3,0.7,1,0.3,1,0c0.3-3.5-0.3-7.6-1-11.4c0.7,0.7,1.3,1,2,1.7c0.3,3.5,0.7,7.3,1.7,10.4
					c0,0.3,0.7,0.3,0.7,0c0.3-2.8-0.3-5.9-0.7-9c3,3.1,6.3,6.2,9,9.3c-5.3,0.3-10.6,0-15.9-0.3c0-5.5-1.3-11.1-2.3-16.6
					c1,0.7,2,1.4,3.3,2.1C282,484.7,282.3,485.1,282.6,485.1L282.6,485.1z M277,498.6c-0.3-2.8-1.3-5.5-2-8.3
					c-0.7-3.5-1.3-7.3-1.7-10.7c0-0.7-1-0.7-1,0c0.3,6.2,0.7,13.5,3.6,18.7c-2.3-0.3-4.3-0.7-6.6-1c-1.7-7.3-3-14.2-3-21.5
					c3.6,1.4,7,3.1,10.6,5.2v0.3c0.7,5.5,1,11.8,2.3,17C279,498.6,278,498.6,277,498.6L277,498.6z M263.1,496.1
					c-1.3-7.3-3-14.5-4-22.2c2.3,0.3,4.3,0.7,6.6,1.4c0,7.3,0.7,14.9,3,21.8C266.7,497.2,264.7,496.5,263.1,496.1L263.1,496.1z
					 M257.4,474c0.3,7.3,1.3,14.9,4,21.8c-1.7-0.3-3.3-0.7-5-1.4c-1.3-6.9-3-13.8-4.3-20.8C254.1,474,255.8,474,257.4,474L257.4,474
					z M250.5,474h0.7c0.7,6.9,1.7,13.8,4,20.1c-1.7-0.3-3-0.7-4.6-1.4c-0.7-2.8-1.7-5.2-2.3-8c-0.7-2.4-1-4.8-1.3-7.6
					C248.1,476.1,249.5,474.7,250.5,474L250.5,474z M245.5,478.5c0.7,4.8,1.3,9.7,3,13.8c-1.7-0.3-3-1-4.6-1.7
					c-1-2.4-2.3-5.2-3.6-7.6C242.2,481.6,243.8,479.9,245.5,478.5z M239.2,484.4c0.7,1.7,1.3,3.8,2.3,5.5c-2-0.7-4-1.4-6-2.4
					C236.9,486.5,237.9,485.4,239.2,484.4L239.2,484.4z M189.1,487.1c0-14.9,4-46.7,4-47.1v-6.6c2.3-2.4,8.3-9.7,14.6-17.7
					c3.3-4.2,6-6.6,7.6-8c0.7,2.1,1.3,4.8,2.3,7.6c7.3,26,14.9,49.9,24.5,56.8c-7.3,6.9-22.2,20.4-29.8,28.4
					c-8.3,8.7-22.5,18-29.5,21.8c0.3-2.8,1.3-7.3,2.3-10.7C187.1,503.4,189.1,494.1,189.1,487.1L189.1,487.1z M87.7,502.7
					c-3-2.4-6-4.5-9.3-6.9c1.7-0.7,3.6-2.1,6-3.1l-0.7,0.7C84.4,494.4,86,497.9,87.7,502.7z M65.1,514.2
					c10.3,7.3,20.6,15.2,31.5,21.5H97c1.3,4.8,2.3,9.7,3.6,14.9c-12.6-10-26.5-18.7-39.1-29.1C62.8,519,64.1,516.6,65.1,514.2z
					 M70.4,504.8c7.3,6.6,14.9,13.5,23.2,18.3c1,3.5,2,7.3,3,11.1c-9.6-7.6-20.2-14.5-30.8-21.5C67.8,509.7,69.1,506.9,70.4,504.8
					L70.4,504.8z M71.4,503.4c1.7-2.8,3-4.5,3.3-5.5c0.3-0.3,1-0.7,2-1c4,3.1,8,6.6,11.9,9.3c1.3,3.8,2.7,8.3,4,13.5
					C86,513.8,78.4,509,71.4,503.4L71.4,503.4z M49.9,594.8c6.6,4.5,12.9,9.3,20.2,12.5c0.3,0,0.7-0.3,0.3-0.7
					c-6-5.5-13.3-9.3-20.2-13.5c0-3.5,0-7.3,0.3-11.4c10.9,10.4,23.5,20.1,37.1,25.6c0.7,0.3,1-0.7,0.3-1
					c-12.9-8.3-25.5-15.9-37.5-26.3c0-3.8,0.3-7.3,0.3-11.1c16.2,14.2,33.2,27.7,51.4,38.4H49.9V594.8z M104.6,607.3
					c-17.9-13.5-36.1-26-53.7-39.8c0.3-5.2,0.7-10.4,1.3-14.9c16.9,12.5,33.8,25.6,51.7,36c0.7,0.3,1.3-0.7,0.7-1
					C88,574.4,69.8,563,52.2,551.2c0-1,0.3-2.1,0.3-3.1c0.7-3.8,1.7-7.6,3-11.4c15.2,10.4,30.8,21.8,47.1,30.8c0.7,0.3,1-0.7,0.7-1
					c-14.9-11.4-31.2-21.1-46.7-31.2h-0.3c1.3-4.2,3.3-8.3,5-12.5c12.3,11.1,25.9,22.5,40.1,29.8c0.3,1,0.7,2.1,0.7,3.1
					c5,22.9,5.6,44.7,5.6,51.6L104.6,607.3L104.6,607.3z M113.9,607.3c0-6.9-0.3-29.4-5.6-53.3c-5.6-25.6-14.3-56.4-18.9-64.4
					c18.6-10,49.1-26,61-28.4c12.6-3.1,27.5-10.7,35.5-15.6c-1.3,10.4-3.3,30.1-3.3,41.2c0,6.2-2,15.2-3.6,22.9
					c-2.7,11.8-3.6,16.6-1,19.4c0.7,0.7,1.7,1,3,1c0.7,0,1,0,1.7-0.3c6.6-2.4,24.5-13.8,34.8-24.6c4.3-4.5,10.9-10.7,17.2-16.6
					c2.7,1.4,5.6,2.8,8.3,3.8c0.3,0.3,0.3,0.3,0.3,0.7c0.3,0.3,1,0.3,1-0.3c1.7,0.7,3.6,1.4,5.3,2.1c0.3,0.3,0.3,0.3,0.7,0
					c2,0.7,3.6,1,5.6,1.7v0.3c0.3,0.3,0.7,0.3,0.7,0c2,0.3,4,1,6,1.4h0.3c11.6,2.4,23.5,3.5,35.5,2.4c2,2.1,3.6,4.2,4.3,5.2
					c-0.3,1.4-2,4.5-6,8.7c-8,7.6-10.6,12.5-9.9,23.9c0.7,8.3,3.6,54.7,4.6,68.6L113.9,607.3L113.9,607.3z M293.6,538.4
					c-0.7-8.7,0.7-11.8,7.6-18.3c7-6.6,8.3-11.8,8.6-13.8c0.7-1.4,2-4.8,3.6-9c7,0,13.6-0.7,19.9-2.1c0,0,0,0.3,0.3,0.3
					c0.3,0.3,1,0,0.7-0.3v-0.3c0.7,0,1-0.3,1.7-0.3c-3.6,17.3-18.6,27.4-18.9,46.4c-0.7,21.5,4,45,7.3,66.5h-25.9
					C297.2,594.1,293.9,546.7,293.6,538.4L293.6,538.4z M325.7,607.3c-2-21.1-6.6-42.6-7-63.7c-0.3-20.8,15.9-30.8,18.6-49.9
					c1-0.3,2.3-0.7,3.3-1c0.3,0.3,0.7,0.3,0.7-0.3c3-1,5.6-2.1,8.6-3.5v0.3c0,0.3,0.7,0.3,0.7,0v-0.7c4-2.1,8-4.5,11.9-7.3
					c5.3,5.2,12.3,12.5,25.2,22.2c7.3,5.5,12.3,9.7,15.9,12.8c7.3,6.2,10.6,9,16.9,10.4h1.3c1.3,0,2.7-0.7,3.6-1.7
					c3.3-3.8,1-13.2-7.6-38.8c-2-5.9-4-11.4-4.6-14.9c-2.3-9.7-4-19.4-4.3-25.6c9.6,3.8,31.8,12.5,47.4,18.3
					c12.3,4.5,37.1,18,54.4,27.4c-8,10.7-17.9,31.5-21.5,53.7c-1.7,11.1-1.7,28-1,41.9c-0.3,0.7-1,1.4-1.3,2.1
					c-0.3,0.7,0.7,1.4,1,0.7c0-0.3,0.3-0.3,0.3-0.7c0.3,7.3,0.7,13.2,1,17.3L325.7,607.3L325.7,607.3z M546.2,607.3
					c1.3-2.1,2.7-3.8,4-5.9c0,2.4,0.3,4.2,0.3,5.9H546.2z M303.5,528.3c2.7,0,5,2.4,5,5.2c0,2.8-2.3,5.2-5,5.2s-5-2.4-5-5.2
					C298.5,530.8,300.9,528.3,303.5,528.3z M305.5,581.7c2.7,0,5,2.4,5,5.2c0,2.8-2.3,5.2-5,5.2c-2.7,0-5-2.4-5-5.2
					C300.5,584.1,302.5,581.7,305.5,581.7z"/>
			</g>
			<g id="svga-group-head" transform="matrix(1,0,0,1,0,0)">
				<g id="svga-group-ears-left-move" transform="matrix(1,0,0,1,-3,0)">
					<g id="svga-group-ears-left">
						<path id="SvgjsPath9761" class="st0" d="M179.4,204.2c0,0-10.8-16.2-16.8-23.4c-6-7.2-14.1-15-18.9-3.3
							c-4.8,11.7-7.5,34.8-4.8,50.7s20.4,33,28.8,33.6c8.4,0.6,17.1-22.8,17.7-30.9C186.3,222.5,183.6,210.2,179.4,204.2
							L179.4,204.2z"/>
						<path id="SvgjsPath9762" d="M135.6,228.2c-3-16.5,0.3-39.9,4.8-51.6c0.6-1.8,3-7.2,8.7-7.8c6.3-0.6,11.7,4.8,16.5,10.5
							c6.3,7.2,16.5,23.1,17.1,23.7c4.2,6.3,7.2,19.2,6.3,27.9c-0.6,7.2-7.2,26.4-15.6,31.8c-1.8,1.2-3.9,1.8-6,1.5
							C156.6,263.3,138.3,245,135.6,228.2L135.6,228.2z M159.6,182c-6.9-8.1-9.3-8.1-9.6-8.1c-0.3,0-1.5,0.9-3,4.2
							c-4.5,11.1-7.5,33.9-4.8,49.5c2.7,15.9,20.1,30.9,25.5,31.5c4.2-0.6,13.2-18.3,14.1-28.5c0.6-7.8-2.1-19.8-5.7-25.5
							C176.1,205.1,165.6,188.9,159.6,182L159.6,182z"/>
						<path id="SvgjsPath9763" d="M152.7,191c6,3.9,10.8,10.5,12.9,18c0,0.6-0.6,0.6-0.6,0.3c0,0,0-0.3-0.3-0.3
							c-1.8-1.5-3.6-3.3-5.7-3.3c-3.3,0-3.3,4.2-2.4,7.5c1.2,4.5,3.3,8.7,5.7,12.6c0.3,0.6-0.3,0.9-0.6,0.6
							c-3.6-4.5-9-13.8-7.2-19.8c1.5-5.1,6-2.7,9.3,0.3c-1.8-3.9-4.2-7.5-7.2-10.5c-3.9-3.9-12.3-10.2-14.7-2.7
							c0,0.3-0.6,0.3-0.6-0.3C141.6,185.9,149.1,188.3,152.7,191L152.7,191z"/>
						<path id="SvgjsPath9764" d="M164.1,234.8c3,7.5-3.6,9-7.5,5.7c-6.3-5.1-10.5-16.5-10.5-25.2c0-0.6,0.6-0.6,0.6,0
							c0.6,5.1,1.5,9.9,3.6,14.4c1.2,2.7,3,5.7,4.8,8.1c1.2,1.5,2.7,2.7,4.5,3.3c3.6,0,4.8-2.1,3.9-6
							C163.5,234.8,163.8,234.5,164.1,234.8z"/>
					</g>
				</g>
				<g id="svga-group-ears-right-move" transform="matrix(1,0,0,1,3,0)">
					<g id="svga-group-ears-right">
						<path id="SvgjsPath9765" class="st0" d="M420.6,204.2c0,0,10.8-16.2,16.8-23.4c6-7.2,14.1-15,18.9-3.3
							c4.8,11.7,7.5,34.8,4.8,50.7s-20.4,33-28.8,33.6c-8.4,0.6-17.1-22.8-17.7-30.9C413.7,222.5,416.4,210.2,420.6,204.2
							L420.6,204.2z"/>
						<path id="SvgjsPath9766" d="M432.6,264.2c-2.1,0-4.2-0.3-6-1.5c-8.4-5.1-15-24.6-15.6-31.8c-0.9-8.7,2.1-21.3,6.3-27.9
							c0.3-0.6,10.8-16.5,17.1-23.7c4.8-5.7,10.2-11.1,16.5-10.5c6,0.6,8.1,6,8.7,7.8c4.8,11.7,7.8,35.4,4.8,51.6
							C461.7,245,443.4,263.3,432.6,264.2L432.6,264.2z M423.6,205.1c-3.6,5.7-6.3,17.4-5.7,25.5c0.9,10.2,9.6,28.2,14.1,28.5
							c5.7-0.3,22.8-15.6,25.5-31.5s-0.3-38.4-4.8-49.5c-1.2-3.3-2.7-4.2-3-4.2s-2.7,0-9.6,8.1C434.4,188.9,423.9,205.1,423.6,205.1
							L423.6,205.1z"/>
						<path id="SvgjsPath9767" d="M447.3,191c-6,3.9-10.8,10.5-12.9,18c0,0.6,0.6,0.6,0.6,0.3c0,0,0-0.3,0.3-0.3
							c1.8-1.5,3.6-3.3,5.7-3.3c3.3,0,3.3,4.2,2.4,7.5c-1.2,4.5-3.3,8.7-5.7,12.6c-0.3,0.6,0.3,0.9,0.6,0.6c3.6-4.5,9-13.8,7.2-19.8
							c-1.5-5.1-6-2.7-9.3,0.3c1.8-3.9,4.2-7.5,7.2-10.5c3.9-3.9,12.3-10.2,14.7-2.7c0,0.3,0.6,0.3,0.6-0.3
							C458.4,185.9,450.9,188.3,447.3,191L447.3,191z"/>
						<path id="SvgjsPath9768" d="M435.9,234.8c-3,7.5,3.6,9,7.5,5.7c6.3-5.1,10.5-16.5,10.5-25.2c0-0.6-0.6-0.6-0.6,0
							c-0.6,5.1-1.5,9.9-3.6,14.4c-1.2,2.7-3,5.7-4.8,8.1c-1.2,1.5-2.7,2.7-4.5,3.3c-3.6,0-4.8-2.1-3.9-6
							C436.5,234.8,436.2,234.5,435.9,234.8z"/>
					</g>
				</g>
				
					<g id="svga-group-faceshape-wrap" transform="matrix(1.0400003000000002,0,0,1.0002003000000002,-4.000029847410985,-0.016735063319032406)">
					<g id="svga-group-faceshape-single">
						<path id="SvgjsPath9099" class="st0" d="M419.5,117.8c-6.9-34.2-45.3-86.4-127.2-86.4s-109.2,40.2-121.5,69.9
							c-7.5,18.6-9.6,45.6-10.2,59.1c0,0,1.8,141.5,6,157.7c3.9,16.2,79.5,60.1,86.4,63.1c17.4,7.2,37.2,6.6,52.8,5.4
							c10.8-0.9,21.3-5.1,29.7-12c27.5-14.3,78.7-27.8,81.4-45.2c3.3-21.6,6.5-169,6.5-169C423.7,150.8,422.8,133.7,419.5,117.8
							L419.5,117.8z"/>
						<path id="SvgjsPath9100" d="M288.7,391.1c-12.3,0-24.9-1.5-36.9-6.6c-7.5-3-84-47.8-88.5-65.5c-4.2-16.5-6-153.8-6-158.6
							c0.6-14.4,2.7-41.4,10.2-60.3c19.8-48.6,60.3-72,124.5-72c36.9,0,69.6,10.8,93.9,31.2c18.9,15.6,32.7,37.5,36.6,57.9
							c3.3,16.5,3.9,34.2,4.2,43.2c0,3.9-3.8,112.6-7.1,160.1c-0.8,12.3-6.8,20.6-24.1,31.2c-15.1,9.2-26.9,11.9-52.9,24
							c-9,7.2-25.5,13.3-36.9,14.2C300.7,390.8,294.7,391.1,288.7,391.1L288.7,391.1z M164.2,160.7c0.6,40.8,2.7,144.5,5.7,156.8
							c1.2,4.8,5.8,14.8,34.2,32.3c24.7,16.5,47.1,27.2,50.1,28.4c16.5,6.9,35.1,6.6,51.3,5.1c10.2-0.9,23.1-7.6,34.7-12.1
							c47.3-22.2,72.2-35.5,73.1-42.1c3.3-21,6.5-167.5,6.5-168.7c0-8.7-0.9-26.1-4.2-42c-3.9-19.2-16.8-39.3-34.5-54
							c-23.1-19.5-54-29.7-89.7-29.7c-60.9,0-99.6,22.2-118.2,67.8C166.9,120.5,164.8,146.6,164.2,160.7L164.2,160.7z"/>
					</g>
				</g>
				<g id="svga-group-mouth-single-move" transform="matrix(1,0,0,1,0,1)">
					
						<g id="svga-group-mouth-single" transform="matrix(1.2500009000000007,0,0,1.2500009000000007,-24.845776357009584,-30.169871222534653)">
						<path id="SvgjsPath6911" d="M297.4,280.1c-1.5-0.9-5.1-1.2-6.3-1.8c-20.4-12.6-45-12-64.8,1.5c-0.9,0.3-6,0.3-6.9,0.6
							c-1.8,0.6,4.2,2.4,6,1.8c6.3-2.1,12.3-3.3,19.2-3.3c5.7,0,10.8,3.6,16.5,3.3c4.8-0.3,9.3-3.3,14.1-3.9
							c6.6-0.6,10.5-1.5,16.2,2.1C292.6,281.6,298.9,281.3,297.4,280.1L297.4,280.1z M278.2,275.6c-0.3-0.6-0.6-1.2-0.6-1.8
							c0.6,0.3,0.9,0.3,1.5,0.6v0.3c0.3,0.3,0.3,0.6,0.3,1.2C278.8,275.6,278.5,275.3,278.2,275.6z M261.1,270.8h2.1v0.3
							c0.6,2.4,1.2,4.8,2.1,7.2c-0.6,0-0.9,0.3-1.2,0.3C263.2,275.9,262.3,273.2,261.1,270.8L261.1,270.8z M264.7,270.8
							c0.6,0,0.9,0,1.5,0.3v0.3c0.6,2.1,1.2,3.9,1.8,6c-0.3,0-0.9,0.3-1.2,0.3C265.9,275.6,265.3,273.2,264.7,270.8L264.7,270.8z
							 M267.7,271.4c0.6,0,1.2,0.3,1.5,0.3c0.6,1.8,1.2,3.3,1.8,5.1c-0.6,0.3-1.2,0.3-1.8,0.6C268.9,275,268.3,273.2,267.7,271.4
							L267.7,271.4z M271,272c0.6,0,0.9,0.3,1.5,0.3v0.3c0.3,1.2,0.6,2.4,1.2,3.6c-0.3,0-0.9,0.3-1.2,0.3
							C272.2,274.7,271.6,273.2,271,272L271,272z M274.3,272.6c0.6,0.3,1.2,0.3,1.8,0.6v0.6c0.3,0.6,0.6,1.2,0.6,2.1
							c-0.6,0-0.9,0-1.5,0.3C274.9,274.7,274.6,273.8,274.3,272.6L274.3,272.6z M280.6,274.7c0.9,0.3,2.1,0.9,3,1.2
							c-0.9-0.3-1.8-0.3-2.7-0.3C280.6,275.3,280.6,275,280.6,274.7z M248.2,276.5c-0.6-1.5-1.2-2.7-2.1-4.2c0.3,0,0.9-0.3,1.2-0.3
							l1.8,4.5H248.2L248.2,276.5z M245.5,276.2c-0.6-0.9-0.9-2.1-1.5-3.3c0.3,0,0.6-0.3,0.9-0.3l1.8,3.6H245.5z M243.1,276.2
							c-0.6-0.9-0.9-1.5-1.5-2.4c0.3,0,0.6-0.3,0.9-0.3c0.3,0.9,0.9,1.8,1.2,2.7H243.1L243.1,276.2z M240.4,276.2l-0.9-1.8
							c0.3,0,0.6-0.3,0.9-0.3c0.3,0.6,0.6,1.2,1.2,2.1H240.4z M237.7,276.8c-0.3-0.3-0.6-0.9-0.6-1.2c0.3-0.3,0.9-0.3,1.2-0.6
							c0.3,0.6,0.6,0.9,0.6,1.5C238.3,276.5,238,276.5,237.7,276.8z M234.4,277.4c0-0.3-0.3-0.3-0.3-0.6c0.6-0.3,0.9-0.6,1.5-0.6
							c0.3,0.3,0.3,0.6,0.6,0.9C235.6,277.1,235,277.1,234.4,277.4L234.4,277.4z M249.1,271.7c0.6,0,0.9-0.3,1.5-0.3
							c0.6,2.1,1.5,4.2,2.1,6c-0.6-0.3-1.2-0.3-1.5-0.3C250.3,275.3,249.7,273.5,249.1,271.7z M251.8,271.4c0.3,0,0.9,0,1.2-0.3
							c0.9,2.4,2.1,4.8,3,7.2c-0.6,0-1.2-0.3-1.8-0.3C253.6,275.9,252.7,273.5,251.8,271.4L251.8,271.4z M254.5,270.8h1.8v0.3
							l2.7,8.1c-0.6,0-0.9,0-1.5-0.3C256.6,276.2,255.7,273.5,254.5,270.8z M232.9,277.4C232.9,277.4,232.9,277.7,232.9,277.4
							c-0.3,0.3-0.6,0.6-0.9,0.6C232.3,277.7,232.6,277.7,232.9,277.4z M260.8,278.9c-0.9-2.7-2.1-5.4-2.7-8.1h1.8v0.3
							c1.2,2.4,2.1,5.1,3,7.8H260.8z M285.4,286.7c-16.8,6-34.8,6-51.6-0.6c-0.9-0.3-1.2,1.2-0.3,1.5c16.8,6.6,35.4,6.6,52.2,0.6
							C286.6,287.9,286.3,286.4,285.4,286.7L285.4,286.7z"/>
					</g>
				</g>
				<g id="svga-group-eyes-left-move" transform="matrix(1,0,0,1,2,-2)">
					
						<g id="svga-group-eyes-left" transform="matrix(0.8999997000000001,0,0,0.8999997000000001,7.900023699999991,8.690026222588344)">
						<g id="svga-group-eyesback-left">
						</g>
						<g id="svga-group-eyesiriswrapper-left">
							<g id="svga-group-eyesiriscontrol-left" transform="matrix(1,0,0,1,0,0)">
								<g id="svga-group-eyesiris-left">
									<path id="SvgjsPath8496" d="M259.6,215.8c7.2,0,12.9,5.7,12.9,12.6s-5.7,12.6-12.9,12.6c-7.2,0-12.9-5.7-12.9-12.6
										S252.4,215.8,259.6,215.8z"/>
									<path id="SvgjsPath8497" class="st0" d="M248.5,221.8c-1.2,3-1.5,6.6-0.6,9.3c0.9,3,2.7,5.7,5.4,6.9
										c2.7,1.2,5.7,1.8,8.4,0.9c2.7-0.6,5.4-2.4,6.6-4.8c1.5-2.4,2.1-5.4,1.5-8.4c-0.3-1.5-0.9-2.7-1.8-3.9
										c-0.9-1.2-2.1-2.1-3.3-3c-1.2-0.9-2.7-1.2-4.2-1.8c-1.5-0.3-3-0.3-4.5-0.3c-0.3,0-0.9,0-1.2,0.3c-0.3,0.3-0.9,0.3-1.2,0.3
										c-0.6,0.3-1.5,0.6-2.1,0.9C250.6,219.4,249.4,220.6,248.5,221.8c0.6-1.5,1.8-2.7,3-3.9c0.6-0.6,1.5-0.9,2.1-1.5
										c0.3-0.3,0.9-0.3,1.2-0.6c0.3-0.3,0.9-0.3,1.2-0.3c1.8-0.3,3.6-0.6,5.4-0.3c1.8,0.3,3.3,0.6,5.1,1.5
										c1.8,0.9,3.3,1.8,4.2,3.3c1.2,1.5,2.1,3.3,2.4,5.1c0.9,3.6,0.3,7.5-1.8,10.8c-0.9,1.5-2.4,3-3.9,4.2
										c-1.5,0.9-3.3,1.8-5.1,2.1c-3.6,0.6-7.5,0.3-10.5-1.8c-1.5-0.9-2.7-2.4-3.9-3.9c-0.9-1.5-1.5-3.3-1.8-5.1
										C245.8,228.1,246.4,224.5,248.5,221.8L248.5,221.8z"/>
									<path id="SvgjsPath8498" d="M259.6,243.1c-2.7,0-5.4-0.9-7.8-2.4c-1.5-0.9-3-2.4-3.9-3.9s-1.5-3.3-1.8-5.1
										c-0.6-3.6,0.3-7.2,2.1-10.2l1.8-2.7l0.6-0.6v0.3c0.3-0.3,0.6-0.6,0.9-0.6c0.6-0.6,1.5-1.2,2.4-1.5c0.3-0.3,0.9-0.3,1.2-0.6
										c0.3-0.3,0.9-0.3,1.2-0.3c1.8-0.6,3.6-0.6,5.4-0.3c1.8,0.3,3.6,0.9,5.1,1.5c1.8,0.9,3.3,2.1,4.5,3.6s2.1,3.3,2.4,5.1
										c0.9,3.6,0.3,7.8-1.8,11.1c-0.9,1.8-2.4,3.3-3.9,4.2s-3.3,1.8-5.4,2.4C261.7,242.8,260.5,243.1,259.6,243.1z M247,226.6
										c-0.3,1.5-0.3,3.3,0,4.8c0.3,1.8,0.9,3.3,1.8,4.8c0.9,1.5,2.1,2.7,3.6,3.6c3,1.8,6.6,2.4,10.2,1.8c1.8-0.3,3.6-1.2,4.8-2.1
										c1.2-0.9,2.7-2.4,3.6-3.9c1.8-3,2.4-6.9,1.5-10.5c-0.3-1.8-1.2-3.6-2.4-4.8c-1.2-1.2-2.4-2.4-4.2-3.3
										c-1.5-0.6-3-1.2-4.8-1.5c-1.5-0.3-3.3,0-5.1,0.3c-0.3,0-0.9,0.3-1.2,0.3c-0.3,0.3-0.9,0.3-1.2,0.6
										c-0.6,0.3-0.9,0.6-1.5,0.9c0.6-0.3,1.2-0.6,1.8-0.6c0.3,0,0.9-0.3,1.2-0.3c0.3,0,0.9-0.3,1.2-0.3c1.8-0.3,3.3-0.3,4.8,0.3
										c1.8,0.6,3.3,1.2,4.5,1.8c1.2,0.9,2.4,1.8,3.3,3c0.9,1.2,1.5,2.7,1.8,4.2c0.6,3,0,6-1.5,8.7s-4.2,4.5-7.2,5.1
										s-6.3,0.3-9-1.2c-2.7-1.5-4.8-4.2-5.7-7.2C247,229.9,247,228.4,247,226.6z M248.8,222.1c-1.2,3-1.2,6-0.3,9
										s2.7,5.4,5.1,6.6c2.4,1.2,5.4,1.8,8.1,0.9c2.7-0.6,5.1-2.4,6.6-4.8c1.5-2.4,2.1-5.4,1.5-8.1c-0.3-1.5-0.9-2.7-1.5-3.6
										c-0.9-1.2-1.8-2.1-3-2.7c-1.2-0.6-2.4-1.2-4.2-1.8c-1.2-0.3-2.7-0.3-4.5-0.3c-0.3,0-0.6,0-1.2,0.3c-0.3,0-0.6,0.3-1.2,0.3
										c-0.6,0.3-1.2,0.6-2.1,0.9C250.9,219.7,250,220.9,248.8,222.1L248.8,222.1z"/>
									<path id="SvgjsPath8499" class="st0" d="M259.9,221.5c-3.9-0.9-8.7,3.9-7.8,7.8c0.3,0.9,1.2,1.8,2.1,1.8
										c1.2,0,1.8-0.3,2.4-1.2c0.3-0.3,0.3-0.6,0.6-0.9c0,0,0.3-0.3,0.3-0.6v-0.3l0.3-0.3l0.3-0.3c0,0,0.6-0.3,0.3-0.3
										c0.6-0.3,1.2-0.3,1.8-0.6C262.6,225.7,262.3,222.1,259.9,221.5L259.9,221.5z"/>
								</g>
							</g>
						</g>
						<g id="svga-group-eyesfront-left">
							<path id="SvgjsPath8281" class="st0" d="M259,183.4c-24.6,0-44.4,19.8-44.4,44.4s19.8,44.4,44.4,44.4s44.4-19.8,44.4-44.4
								C303.4,203.5,283.6,183.4,259,183.4z M271.3,245.2c-7.2,3.3-17.7,4.2-25.2,3.3c-7.8-1.2-21.3-10.8-21.3-10.8s3.6-5.1,6.6-8.1
								s8.1-7.5,19.2-12.9c11.1-5.4,25.8,2.1,29.7,5.7c3.9,3.6,6,13.2,6,13.2S278.5,241.9,271.3,245.2z"/>
							<path id="SvgjsPath8282" d="M278.8,218.5c-5.1-3.3-15-6.3-25.5-4.5c0.3,0,0.6-0.3,0.6-0.3c0.6-1.8,0.3-3.9,0-5.7
								c11.7-1.5,21,6.9,23.1,9.3l2.4-2.4c-1.8-1.8-19.2-18.3-37.5-5.4c-18,12.6-20.1,20.1-20.1,21c-0.3,0.9,0.3,1.8,1.2,1.8h0.3
								c0.6,0,1.2-0.3,1.5-0.9c0,0.9-0.3,2.1-0.3,3c-5.7,6.3-7.8,9.3-7.8,9.3c-0.6,0.6-0.3,1.8,0.3,2.4c0.3,0.3,0.6,0.3,0.9,0.3
								c0.6,0,0.9-0.3,1.5-0.6c0,0,4.2-6,17.7-19.5c12.9-14.1,32.4-10.2,39.9-5.1c4.5,3,6.9,9.3,8.1,13.8c-0.3,0-0.6-0.3-0.9,0
								c-0.6,0-0.9,0.3-1.8,1.2c-19.2,18.3-39.6,11.4-53.4,2.1c-0.9-0.6-1.8-0.3-2.4,0.6c-0.6,0.9-0.3,1.8,0.6,2.4
								c8.1,5.4,18.3,9.9,29.1,9.9c9.3,0,18.9-3.3,28.5-12.6l0.6-0.6l0.3-0.3c0.3,1.8,0.6,2.7,0.6,3c0,0.9,0.9,1.5,1.8,1.5
								c0.9,0,1.5-0.9,1.5-1.8C289.3,239.5,287.5,224.5,278.8,218.5L278.8,218.5z M231.7,226.6l-1.8,1.8v-3.3c0-0.6-0.6-0.6-0.9,0
								c0,1.2-0.3,2.4-0.3,3.6v0.9c-0.6,0.6-1.2,1.5-1.8,2.1v-1.5c0-1.2,0.3-2.4,0.3-3.6c0.9-1.5,2.7-3.3,4.8-5.4
								C231.7,223,231.4,224.8,231.7,226.6z M234.7,223.3l-0.6,0.6c0-1.5-0.3-3-0.3-4.2c0.6-0.6,1.2-0.9,1.8-1.5
								c0,1.5,0.3,2.7,0.6,3.9C235.3,222.7,235,223,234.7,223.3z M239.2,215.2c0,1.5-0.3,3,0,4.2c-0.6,0.6-1.2,0.9-2.1,1.5
								c0-1.2-0.3-2.7-0.6-3.9C237.4,216.4,238.3,215.5,239.2,215.2C239.2,214.9,239.2,215.2,239.2,215.2L239.2,215.2z M247.9,215.2
								v-2.1c0-0.3-0.6-0.3-0.6,0v2.4c-0.9,0.3-2.1,0.9-3,1.2v-2.4c0-0.6-0.9-0.6-0.9,0v3c-0.9,0.6-1.8,0.9-2.7,1.5v-3.3
								c0-0.6-0.6-0.6-0.9-0.6c1.2-0.9,2.7-2.1,4.2-3c3-2.1,6-3.3,8.7-3.9c-0.3,1.8-0.3,3.9,0,5.7c0,0.3,0.3,0.3,0.6,0.3
								C251.5,214,249.7,214.6,247.9,215.2L247.9,215.2z"/>
						</g>
					</g>
				</g>
				<g id="svga-group-eyes-right-move" transform="matrix(1,0,0,1,-2,-2)">
					
						<g id="svga-group-eyes-right" transform="matrix(0.8999997000000001,0,0,0.8999997000000001,12.100036299999985,8.690026222588344)">
						<g id="svga-group-eyesback-right">
						</g>
						<g id="svga-group-eyesiriswrapper-right">
							<g id="svga-group-eyesiriscontrol-right" transform="matrix(1,0,0,1,0,0)">
								<g id="svga-group-eyesiris-right">
									<path id="SvgjsPath8500" d="M386.3,215.8c7.2,0,12.9,5.7,12.9,12.6s-5.7,12.6-12.9,12.6c-7.2,0-12.9-5.7-12.9-12.6
										S379.4,215.8,386.3,215.8z"/>
									<path id="SvgjsPath8501" class="st0" d="M375.2,221.8c-1.2,3-1.5,6.6-0.6,9.3c0.9,3,2.7,5.7,5.4,6.9
										c2.7,1.2,5.7,1.8,8.4,0.9c2.7-0.6,5.4-2.4,6.6-4.8c1.5-2.4,2.1-5.4,1.5-8.4c-0.3-1.5-0.9-2.7-1.8-3.9
										c-0.9-1.2-2.1-2.1-3.3-3c-1.2-0.9-2.7-1.2-4.2-1.8c-1.5-0.3-3-0.3-4.5-0.3c-0.3,0-0.9,0-1.2,0.3c-0.3,0.3-0.9,0.3-1.2,0.3
										c-0.6,0.3-1.5,0.6-2.1,0.9C377.3,219.4,376.1,220.6,375.2,221.8c0.6-1.5,1.8-2.7,3-3.9c0.6-0.6,1.5-0.9,2.1-1.5
										c0.3-0.3,0.9-0.3,1.2-0.6c0.3-0.3,0.9-0.3,1.2-0.3c1.8-0.3,3.6-0.6,5.4-0.3c1.8,0.3,3.3,0.6,5.1,1.5s3.3,1.8,4.2,3.3
										c1.2,1.5,2.1,3.3,2.4,5.1c0.9,3.6,0.3,7.5-1.8,10.8c-0.9,1.5-2.4,3-3.9,4.2c-1.5,0.9-3.3,1.8-5.1,2.1
										c-3.6,0.6-7.5,0.3-10.5-1.8c-1.5-0.9-2.7-2.4-3.9-3.9c-0.9-1.5-1.5-3.3-1.8-5.1C372.8,228.1,373.4,224.5,375.2,221.8
										L375.2,221.8z"/>
									<path id="SvgjsPath8502" d="M386.3,243.1c-2.7,0-5.4-0.9-7.8-2.4c-1.5-0.9-3-2.4-3.9-3.9c-0.9-1.5-1.5-3.3-1.8-5.1
										c-0.6-3.6,0.3-7.2,2.1-10.2l1.8-2.7l0.6-0.6v0.3c0.3-0.3,0.6-0.6,0.9-0.6c0.6-0.6,1.5-1.2,2.4-1.5c0.3-0.3,0.9-0.3,1.2-0.6
										c0.3-0.3,0.9-0.3,1.2-0.3c1.8-0.6,3.6-0.6,5.4-0.3c1.8,0.3,3.6,0.9,5.1,1.5c1.8,0.9,3.3,2.1,4.5,3.6s2.1,3.3,2.4,5.1
										c0.9,3.6,0.3,7.8-1.8,11.1c-0.9,1.8-2.4,3.3-3.9,4.2s-3.3,1.8-5.4,2.4C388.4,242.8,387.5,243.1,386.3,243.1z M373.7,226.6
										c-0.3,1.5-0.3,3.3,0,4.8c0.3,1.8,0.9,3.3,1.8,4.8c0.9,1.5,2.1,2.7,3.6,3.6c3,1.8,6.6,2.4,10.2,1.8c1.8-0.3,3.6-1.2,4.8-2.1
										c1.2-0.9,2.7-2.4,3.6-3.9c1.8-3,2.4-6.9,1.5-10.5c-0.3-1.8-1.2-3.6-2.4-4.8c-1.2-1.2-2.4-2.4-4.2-3.3
										c-1.5-0.6-3-1.2-4.8-1.5c-1.5-0.3-3.3,0-5.1,0.3c-0.3,0-0.9,0.3-1.2,0.3c-0.3,0.3-0.9,0.3-1.2,0.6
										c-0.6,0.3-0.9,0.6-1.5,0.9c0.6-0.3,1.2-0.6,1.8-0.6c0.3,0,0.9-0.3,1.2-0.3s0.9-0.3,1.2-0.3c1.8-0.3,3.3-0.3,4.8,0.3
										c1.8,0.6,3.3,1.2,4.5,1.8c1.2,0.9,2.4,1.8,3.3,3c0.9,1.2,1.5,2.7,1.8,4.2c0.6,3,0,6-1.5,8.7c-1.5,2.4-3.9,4.5-6.9,5.1
										s-6.3,0.3-9-1.2c-2.7-1.5-4.8-4.2-5.7-7.2C374,229.9,373.7,228.4,373.7,226.6L373.7,226.6z M375.5,222.1
										c-1.2,3-1.2,6-0.3,9c0.9,3,2.7,5.4,5.1,6.6c2.4,1.2,5.4,1.8,8.1,0.9c2.7-0.6,5.1-2.4,6.6-4.8c1.5-2.4,2.1-5.4,1.5-8.1
										c-0.3-1.5-0.9-2.7-1.5-3.6c-0.9-1.2-1.8-2.1-3-2.7c-1.2-0.6-2.4-1.2-4.2-1.8c-1.2-0.3-2.7-0.3-4.5-0.3
										c-0.3,0-0.6,0-1.2,0.3c-0.3,0-0.6,0.3-1.2,0.3c-0.6,0.3-1.2,0.6-2.1,0.9L375.5,222.1L375.5,222.1z"/>
									<path id="SvgjsPath8503" class="st0" d="M386.6,221.5c-3.9-0.9-8.7,3.9-7.8,7.8c0.3,0.9,1.2,1.8,2.1,1.8
										c1.2,0,1.8-0.3,2.4-1.2c0.3-0.3,0.3-0.6,0.6-0.9c0,0,0.3-0.3,0.3-0.6v-0.3l0.3-0.3l0.3-0.3c0,0,0.6-0.3,0.3-0.3
										c0.6-0.3,1.2-0.3,1.8-0.6C389.3,225.7,389,222.1,386.6,221.5L386.6,221.5z"/>
								</g>
							</g>
						</g>
						<g id="svga-group-eyesfront-right">
							<path id="SvgjsPath8283" class="st0" d="M385.4,183.4c-24.6,0-44.4,19.8-44.4,44.4s19.8,44.4,44.4,44.4
								c24.6,0,44.4-19.8,44.4-44.4C429.8,203.5,410,183.4,385.4,183.4z M398,248.2c-7.8,1.2-18.3,0-25.2-3.3
								c-7.2-3.3-14.7-10.2-14.7-10.2s2.1-9.6,6-13.2c3.9-3.6,18.6-10.8,29.7-5.7c11.1,5.4,16.5,9.9,19.2,12.9
								c2.7,3,6.6,8.1,6.6,8.1S405.8,247.3,398,248.2z"/>
							<path id="SvgjsPath8286" d="M427.4,243.4c-0.3-0.3-4.5-6.3-18-20.1c-14.4-14.7-36-10.5-44.1-5.1c-8.7,6-10.5,21-10.5,21.6
								c0,0.9,0.6,1.8,1.5,1.8c0.9,0,1.8-0.6,1.8-1.5c0,0,0-1.2,0.6-3l0.3,0.3c0.3,0,0.3,0.3,0.6,0.6c9.6,9.3,19.2,12.6,28.5,12.6
								c10.8,0,21-4.8,29.1-9.9c0.9-0.6,0.9-1.5,0.6-2.4c-0.6-0.9-1.5-0.9-2.4-0.6c-13.8,9.3-34.5,16.2-53.4-2.1
								c-0.9-0.9-1.2-1.2-1.8-1.2h-0.9c1.2-4.5,3.6-10.8,8.1-13.8c7.5-5.1,26.7-9,39.9,4.5c13.2,13.5,17.7,19.5,17.7,19.5
								c0.3,0.6,0.9,0.6,1.5,0.6c0.3,0,0.6,0,0.9-0.3C427.7,245.2,428,244.3,427.4,243.4L427.4,243.4z M400.1,211.6
								c17.1,11.7,18.9,18.9,18.9,18.9c0.3,0.9,0.9,1.2,1.5,1.2h0.3c0.9-0.3,1.5-0.9,1.2-1.8c-0.3-0.9-2.1-8.4-20.1-21
								c-18.6-12.9-35.7,3.6-37.5,5.4l2.4,2.4C369.5,214,384.2,200.8,400.1,211.6L400.1,211.6z"/>
						</g>
					</g>
				</g>
				<g id="svga-group-facehighlight-single">
				</g>
				<g id="svga-group-eyebrows-left-move" transform="matrix(1,0,0,1,0,-4)">
					
						<g id="svga-group-eyebrows-left-rotate" transform="matrix(0.9914448609181881,0.13052619568084697,-0.13052619568084697,0.9914448609181881,10.272755915814031,-9.465652185406014)">
						<g id="svga-group-eyebrows-left">
							<path id="SvgjsPath9174" d="M201.5,156.8c0.5-0.9,11.5-22.7,19.2-25c7.6-2.2,60.1,11.5,65.2,18.9c2.3,3.4,3.3,6.1,2.9,8.2
								c-0.3,1.6-1.5,2.6-3.5,2.8c-1.3,0.2-3,0-5.1-0.4c-3.4-0.7-12.8-4.3-23.7-8.4c-14-5.3-29.9-11.3-33.4-11.3
								c-4.9,0.1-15.9,12.9-19.7,17.9c-0.4,0.5-1.1,0.3-1.6-0.4C201.4,158.5,201.2,157.5,201.5,156.8L201.5,156.8z"/>
						</g>
					</g>
				</g>
				<g id="svga-group-eyebrows-right-move" transform="matrix(1,0,0,1,0,-4)">
					
						<g id="svga-group-eyebrows-right-rotate" transform="matrix(0.9914448613738105,-0.13052619222005166,0.13052619222005166,0.9914448613738105,-8.561731821218757,16.63952674196988)">
						<g id="svga-group-eyebrows-right">
							<path id="SvgjsPath9175" d="M395.1,207.6c-0.5-0.8-13.3-19.9-21.1-21.8c-7.7-1.9-58.4,11.2-62.8,17.8c-2,3-2.7,5.4-2.2,7.3
								c0.4,1.4,1.7,2.3,3.7,2.5c1.3,0.1,3,0,5-0.5c3.3-0.7,12.3-4,22.7-7.8c13.4-5,28.5-10.5,32-10.6c4.8,0,16.8,11.2,21,15.5
								c0.4,0.4,1.1,0.3,1.5-0.3C395.4,209,395.5,208.2,395.1,207.6L395.1,207.6z"/>
						</g>
					</g>
				</g>
				
					<g id="svga-group-beardwrap" transform="matrix(1.0400003000000002,0,0,1.0002003000000002,-4.0168463797840275,-0.025086967553349382)">
					<g id="svga-group-beard-single-move" transform="matrix(1,0,0,1,0,0)">
						<g id="svga-group-beard-single">
							<path id="SvgjsPath6465" d="M233.2,314.6v2.1c0,0.3,0.6,0.3,0.6,0c0.3-0.6,0-1.2,0-2.1C234.1,314,233.2,314,233.2,314.6z
								 M235.6,310.1c0,0.6,0.3,1.2,0.3,1.8c0,0.3,0.6,0.3,0.6,0c0-0.6,0-1.5-0.3-2.1C236.2,309.5,235.3,309.5,235.6,310.1z
								 M233.2,311c0-0.6-0.3-1.2-0.6-2.1c-0.3-0.3-0.9-0.3-0.6,0.3C232.3,309.8,232.6,310.4,233.2,311
								C232.9,311.3,233.2,311.3,233.2,311L233.2,311z M238.3,317.6c0-0.9-0.3-1.8-0.6-2.4c-0.3-0.6-1.2-0.3-1.2,0.3
								c0.3,0.9,0.6,1.8,1.2,2.4C238,318.2,238.3,317.9,238.3,317.6z M232,318.8c0,0.9-0.3,2.1,0.3,3c0.3,0.3,0.6,0.3,0.6,0
								c0.6-0.9,0.3-1.8,0.3-3C233.5,317.9,232,317.9,232,318.8L232,318.8z M236.5,321.5c0-0.9-1.2-0.9-1.2,0c0,0.6,0,1.5,0.3,2.1
								c0.3,0.3,0.6,0.3,0.9,0V321.5z M239.8,324.5c0-0.9-0.3-1.8-0.6-3c-0.3-0.6-1.2-0.3-1.2,0.3c0.3,0.9,0.3,2.1,0.9,2.7
								C239.2,325.1,239.8,325.1,239.8,324.5L239.8,324.5z M241,316.7c0.3,0.6,0.6,0.9,0.9,1.5c0.3,0.3,0.6,0,0.6-0.3
								c-0.3-0.6-0.3-1.2-0.6-1.8C241.6,315.8,240.7,316.1,241,316.7z M231.4,327.5c0.3,0.6,0.9,1.2,1.5,1.8c0.3,0.3,0.6,0,0.6-0.3
								c-0.3-0.9-0.6-1.5-0.9-2.1C232.3,326.3,231.1,326.9,231.4,327.5L231.4,327.5z M236.2,332c0.6,0.9,0.9,1.8,1.8,2.4
								c0.3,0.3,0.6,0,0.6-0.3c-0.3-0.9-0.9-1.8-1.5-2.4C236.8,330.5,235.6,331.4,236.2,332L236.2,332z M237.4,342.8
								c0.6,0.9,0.9,1.8,1.8,2.4c0.3,0.3,0.6,0,0.6-0.3c-0.3-0.9-0.9-1.8-1.5-2.4C238,341.3,236.8,342.2,237.4,342.8L237.4,342.8z
								 M241.6,332.9c-0.3-0.6-0.9,0-0.6,0.3c0.6,0.9,0.9,1.8,1.5,2.7c0.3,0.3,0.9,0,0.6-0.3C242.8,334.7,242.2,333.8,241.6,332.9z
								 M243.7,332.3c0-0.9-0.3-1.5-0.6-2.4c-0.3-0.6-0.9-0.3-0.9,0.3c0.3,0.9,0.6,1.5,0.9,2.4C243.4,332.6,243.7,332.6,243.7,332.3
								z M233.8,337.4c0-0.9-0.3-1.5-0.6-2.4c-0.3-0.6-0.9-0.3-0.9,0.3c0.3,0.9,0.6,1.5,0.9,2.4
								C233.5,337.7,233.8,337.7,233.8,337.4z M239.5,340.4c0.3,0.6,0.9,1.2,1.5,1.8c0.3,0.3,0.6,0,0.6-0.3
								c-0.3-0.9-0.6-1.5-0.9-2.1C239.8,339.2,239.2,339.8,239.5,340.4L239.5,340.4z M235,334.4c-0.6,0-0.6,1.2,0,1.2
								C235.9,335.6,235.9,334.4,235,334.4z M248.8,341.6c-0.3-0.6-1.2-0.6-1.2,0.3c0,0.9,0,1.5,0.6,2.1c0.3,0.3,0.9,0.3,0.9,0
								C249.4,342.8,249.1,342.2,248.8,341.6z M250.3,344.3c0.3,0.9,0.6,1.8,0.9,2.4c0.3,0.6,1.2,0.3,0.9-0.3c0-0.9-0.6-1.5-0.6-2.4
								C251.2,343.1,250,343.4,250.3,344.3L250.3,344.3z M257.5,350.6c-0.3-0.9-0.6-1.8-1.2-2.7c-0.3-0.6-1.2-0.3-0.9,0.3
								c0.3,0.9,0.9,1.8,1.2,2.7C256.9,351.2,257.5,350.9,257.5,350.6z M259,349.7c0.3,1.2,0.3,2.1,1.2,3c0.3,0.3,0.6,0.3,0.6-0.3
								c0-1.2-0.3-2.1-0.6-3.3c0-0.3-0.3-0.6-0.6-0.3c0.3-0.6,0.6-0.9,0.9-1.5c0.3-0.6-0.6-0.9-0.9-0.6c-0.3,0.6-0.6,1.2-0.6,1.8
								c0,0.3,0,0.3,0.3,0.3C259,349.1,258.7,349.4,259,349.7L259,349.7z M263.8,354.5c0-0.6,0-1.2-0.3-1.8c0-0.9-1.5-0.3-1.2,0.3
								c0.3,0.6,0.3,1.2,0.6,1.5S263.8,354.8,263.8,354.5z M266.8,354.5c0.3,0.6,0.3,0.9,0.6,1.5c0,0.3,0.6,0,0.6,0
								c0-0.6,0-1.2-0.3-1.8C267.4,353.9,266.8,353.9,266.8,354.5L266.8,354.5z M272.5,356.9c0.3-0.6,0.3-1.5,0.3-2.1
								c0-1.2-1.8-1.2-1.8,0v1.5c-0.3,0-0.3,0.3,0,0.3v0.3C271.3,357.5,272.5,357.5,272.5,356.9L272.5,356.9z M277,358.7
								c0-0.9-0.3-1.8-0.6-3c-0.3-0.6-1.5-0.3-1.2,0.3l0.9,2.7C276.4,359.3,277,359.3,277,358.7L277,358.7z M278.8,356.6
								c0,0.9,0.3,1.5,0.3,2.4c0.3,0.6,0.9,0.3,0.9,0c0-0.9-0.3-1.5-0.3-2.4C279.7,355.4,278.5,355.7,278.8,356.6z M283.6,359
								c0-0.9-0.3-1.5-0.6-2.4c-0.3-0.6-1.2-0.3-1.2,0.3c0.3,0.9,0.6,1.8,0.9,2.4C283,359.9,283.6,359.3,283.6,359L283.6,359z
								 M285.1,356.3v0.6h0.3C285.4,356.6,285.4,356.3,285.1,356.3C285.7,356,285.1,356,285.1,356.3z M285.7,355.1
								c0,0.9,0.3,1.8,0.6,2.7c0.3,0.3,0.6,0.3,0.9,0c0.3-0.9,0-2.1-0.3-3C286.6,353.9,285.4,354.2,285.7,355.1z M288.7,355.7
								c0,0.9,0.3,1.8,0.6,2.7c0.3,0.3,0.9,0.3,0.9,0c0.3-0.9,0-2.1-0.3-3C289.9,354.5,288.4,354.8,288.7,355.7z M293.5,357.5
								c0,0.6,0.3,0.9,0.6,1.5c0,0.3,0.3,0,0.3,0c0-0.6-0.3-1.2-0.3-1.5S293.5,357.2,293.5,357.5z M295.6,356.6
								c0.3,0.9,0.6,2.1,1.2,2.7c0.3,0.3,0.6,0,0.6-0.3c0-0.9-0.3-1.8-0.6-3C296.5,355.4,295.6,355.7,295.6,356.6L295.6,356.6z
								 M300.7,354.5c0-1.2-1.8-1.2-1.8,0s0,2.7,0.9,3.9c0.3,0.6,0.9,0.3,1.2,0C301.3,356.9,300.7,355.7,300.7,354.5L300.7,354.5z
								 M304.3,358.4c0-0.9-0.3-1.5-0.3-2.4c-0.3-0.9-1.5-0.3-1.2,0.3c0.3,0.9,0.6,1.5,1.2,2.4C304,358.7,304.3,358.7,304.3,358.4z
								 M292,351.8c-0.6,0-0.6,0.9,0,0.9C292.6,352.4,292.6,351.8,292,351.8z M304.6,352.1c0.3,0.6,0.6,1.5,0.9,2.1
								c0.3,0.3,0.6,0,0.6-0.3c0-0.6-0.3-1.2-0.6-2.1C305.5,351.5,304.6,351.8,304.6,352.1z M310,352.7c0.3,0.6,0.6,1.5,0.9,2.1
								c0.3,0.6,0.9,0.3,0.9-0.3s-0.3-1.2-0.6-2.1C310.9,351.8,309.7,352.1,310,352.7L310,352.7z M315.7,354.8c0-0.9-0.3-1.8-0.6-3
								c-0.3-0.9-1.5-0.6-1.5,0.3l0.9,2.7C315.1,355.4,315.7,355.4,315.7,354.8L315.7,354.8z M243.4,347c0.3,0.6,0.3,0.9,0.6,1.2
								c0.3,0.3,0.6,0,0.6-0.3c0-0.6,0-0.9-0.3-1.5C244.3,345.8,243.1,346.1,243.4,347L243.4,347z M249.1,349.1
								c0.3,0.6,0.3,0.9,0.6,1.5c0,0.3,0.3,0,0.3,0c0-0.6,0-1.2-0.3-1.8C249.7,348.5,248.8,348.5,249.1,349.1z M254.5,354.2
								c-0.3-0.6-0.3-1.2-0.6-1.8c0-0.3-0.6-0.3-0.6,0C253.6,353,253.9,353.6,254.5,354.2C254.2,354.8,254.5,354.5,254.5,354.2
								L254.5,354.2z M253.6,358.1c0.3,0.9,0.6,1.5,1.2,2.1c0.3,0.3,0.9,0,0.9-0.3c0-0.9-0.3-1.5-0.6-2.1
								C254.8,356.9,253.3,357.2,253.6,358.1L253.6,358.1z M248.2,353.6c0.3,0.9,0.6,1.5,1.2,2.1c0.3,0.3,0.9,0,0.9-0.3
								c0-0.9-0.3-1.5-0.6-2.1C249.4,352.4,247.9,352.7,248.2,353.6L248.2,353.6z M258.7,357.2c0.3,0.6,0.6,1.2,1.2,1.5
								c0.6,0.6,1.2,0,1.2-0.6c0-0.6-0.3-1.2-0.6-1.8C259.9,355.4,258.1,356.3,258.7,357.2L258.7,357.2z M258.1,359.9
								c-0.3-0.6-1.2,0-0.9,0.6c0.6,0.9,0.9,1.5,1.8,2.4c0.3,0.3,0.9,0,0.6-0.6C259,361.4,258.4,360.8,258.1,359.9L258.1,359.9z
								 M268.9,369.8c-0.9-0.9-1.8,0.9-0.6,1.2c0.3,0,0.9,0.3,1.2,0.3c0.3,0,0.6-0.3,0.3-0.6L268.9,369.8z M279.4,373.7
								c0.3,0.3,0.6,0.9,0.9,1.2c0.3,0.3,0.9,0,0.9-0.6c-0.3-0.6-0.3-0.9-0.6-1.5C280,372.2,278.8,373.1,279.4,373.7L279.4,373.7z
								 M284.2,373.7c-0.6,0-0.6,0.9,0,0.9C284.8,374.6,284.8,373.7,284.2,373.7z M290.5,371.3c-0.6-1.2-2.1,0-1.5,0.9
								c0.3,0.9,0.9,1.8,1.5,2.4c0.6,0.6,1.5,0,1.2-0.6C291.4,373.1,290.8,372.2,290.5,371.3L290.5,371.3z M288.7,375.5
								c-0.6-1.2-2.1,0-1.5,0.9c0.3,0.9,0.9,1.8,1.5,2.4c0.6,0.6,1.5,0,1.2-0.6C289.6,377.3,289,376.4,288.7,375.5L288.7,375.5z
								 M273.4,368.3l-0.9-1.8c-0.3-0.6-1.5,0-0.9,0.6c0.3,0.6,0.9,0.9,1.5,1.5C273.1,368.9,273.4,368.6,273.4,368.3L273.4,368.3z
								 M269.2,364.1c-0.3-1.2-0.9-2.1-1.5-3.3c-0.3-0.6-1.5,0-1.2,0.6c0.6,1.2,0.9,2.1,1.8,3C268.9,364.7,269.2,364.4,269.2,364.1
								L269.2,364.1z M277.3,365.9c0.3-0.6,0.9-0.9,0.9-1.5c0-0.3-0.3-0.6-0.6-0.3c-0.6,0.6-0.9,0.9-1.2,1.5
								C276.1,365.9,277,366.2,277.3,365.9L277.3,365.9z M295.9,355.4v-1.8c0-0.9-1.5-0.6-1.2,0.3C295,354.5,295,355.1,295.9,355.4
								C295.3,355.7,295.9,355.7,295.9,355.4z M298.3,351.5c0.3-0.6,0.3-1.2,0.3-1.8c0-0.9-1.5-0.9-1.5,0c0,0.6,0,1.2,0.3,1.8
								C297.7,351.8,298,351.8,298.3,351.5z M282.7,362.6c-0.3,1.2-0.3,2.4,0,3.6c0,0.6,0.9,0.6,1.2,0c0.6-1.2,0.6-2.1,0.9-3.3
								C284.5,362,282.7,361.7,282.7,362.6L282.7,362.6z M276.4,368.3c0,0.9,0,1.5,0.3,2.4c0.3,0.3,0.9,0.3,1.2,0
								c0.3-0.9,0.3-1.5,0.3-2.4C278.2,367.1,276.4,367.1,276.4,368.3z M282.1,370.1c0,0.3,0,0.6,0.3,0.6c0.3,0.6,0.9,0.6,0.9,0
								c0-0.3,0.3-0.6,0.3-0.6C283.6,368.9,281.8,368.9,282.1,370.1z M272.8,374c0.3,0.6,0.6,1.2,0.9,1.5c0.3,0.6,1.2,0,1.2-0.6
								c-0.3-0.6-0.3-1.2-0.6-1.8C273.7,372.5,272.5,373.1,272.8,374L272.8,374z M273.1,361.4c0.6,0.9,0.9,1.5,1.5,2.1
								c0.3,0.3,0.9,0,0.9-0.6c0-0.9-0.6-1.5-0.9-2.4C274,359.6,272.5,360.5,273.1,361.4z M288.1,362.6c0,1.2,0,2.1,0.6,3.3
								c0.3,0.6,1.2,0.6,1.2-0.3c0-0.9,0-2.1-0.3-3C289.3,361.7,288.1,361.7,288.1,362.6z M287.8,368.9c0.3-0.6,0.3-0.9,0.3-1.5
								c0-1.2-2.1-1.2-2.1,0c0,0.6,0,0.9,0.3,1.5C286.6,369.8,287.5,369.8,287.8,368.9z M285.1,377c-0.6,0-0.6,1.2,0,1.2
								C285.7,378.2,285.7,377,285.1,377z M292.9,375.8c-0.6,0.3-0.9,0.9-1.2,1.5c-0.6,0.9,0.6,1.8,1.2,0.9c0.3-0.6,0.9-1.2,1.2-1.8
								C294.1,375.8,293.2,375.5,292.9,375.8z M295.9,372.5c0.6-0.6,0.9-0.9,1.2-1.5c0.3-0.6-0.3-0.9-0.9-0.9
								c-0.6,0.3-0.9,0.6-1.5,1.2C294.1,371.9,295.3,373.1,295.9,372.5L295.9,372.5z M299.5,373.4c-0.3,0-0.6,0.3-0.9,0.6
								c-0.9,0.6,0.3,2.1,0.9,0.9c0.3-0.3,0.3-0.6,0.6-0.9C300.4,373.7,299.8,373.1,299.5,373.4z M304.3,371.9
								c-0.6,0.3-0.9,0.9-1.2,1.5c-0.6,0.9,0.6,1.5,1.2,0.9c0.3-0.6,0.9-1.2,1.2-1.8C305.5,371.9,304.6,371.6,304.3,371.9z
								 M313.9,369.2c-0.6,0.3-0.9,0.9-1.2,1.5c-0.6,0.9,0.6,1.5,1.2,0.9c0.3-0.6,0.9-1.2,1.2-1.8
								C315.1,369.2,314.2,368.9,313.9,369.2z M309.4,369.2c-0.3,0.6-0.6,0.9-0.6,1.5c-0.3,0.9,1.2,1.2,1.2,0.3
								c0-0.6,0.3-1.2,0.3-1.8C310.3,369.2,309.7,368.9,309.4,369.2z M292,364.7c0.3,0.9,0.6,1.5,0.9,2.1c0.3,0.3,0.9,0,0.9-0.3
								c0-0.9-0.3-1.5-0.9-2.1C292.9,363.5,291.7,364.1,292,364.7z M299.5,368.3c0-0.9,0-1.5-0.3-2.1c-0.3-0.9-1.5-0.6-1.5,0.3
								c0,0.6,0.3,1.5,0.6,2.1C298.6,369.2,299.5,368.9,299.5,368.3z M302.5,362.6c0,0.3,0,0.6,0.3,0.9c0,0.3,0.6,0.3,0.6,0
								s0.3-0.3,0.3-0.9C304,361.7,302.5,361.7,302.5,362.6L302.5,362.6z M305.5,367.4c-0.6,0.3-0.9,0.9-1.5,1.5
								c-0.6,0.6,0.6,1.5,0.9,0.6c0.3-0.6,0.9-1.2,0.9-1.8C306.1,367.4,305.5,367.1,305.5,367.4L305.5,367.4z M306.7,362.3
								c0,0.3,0,0.6,0.3,0.6c0,0.3,0.3,0.3,0.6,0c0-0.3,0.3-0.6,0.3-0.6C307.6,361.4,306.4,361.4,306.7,362.3L306.7,362.3z
								 M309.4,365.3c0.3,0.6,0.6,0.9,0.9,1.5c0.3,0.3,0.9,0,0.9-0.3c0.3-0.6,0.3-1.2,0-1.8C311.2,363.2,308.5,363.8,309.4,365.3
								L309.4,365.3z M297.4,363.5c0.6,0.3,0.9-0.3,0.6-0.6c-0.3-0.6-0.6-0.9-0.9-1.5c-0.6-0.9-2.1,0.6-1.2,1.2
								C296.5,362.9,297.1,363.2,297.4,363.5L297.4,363.5z M309.7,359c0-0.6-0.3-1.2-0.6-2.1c-0.3-0.9-1.8-0.6-1.5,0.3
								c0.3,0.6,0.6,1.5,0.9,2.1C308.8,359.9,309.7,359.6,309.7,359L309.7,359z M314.8,356.9c-0.6,1.2-0.9,2.4-1.5,3.6
								c-0.3,0.9,0.9,1.2,1.2,0.3c0.3-1.2,0.9-2.4,0.9-3.6C315.7,356.6,315.1,356.6,314.8,356.9L314.8,356.9z M316,363.8
								c-0.9,0.9-1.2,1.8-1.8,2.7c-0.3,0.6,0.6,1.2,0.9,0.6c0.6-0.9,1.2-1.8,1.5-3C316.9,363.8,316.3,363.5,316,363.8L316,363.8z
								 M310,359c0.3,0.6,0.3,0.9,0.6,1.5c0.3,0.3,0.9,0,0.9-0.3c0-0.6,0-0.9-0.3-1.5C311.2,357.5,309.4,357.8,310,359z
								 M317.8,358.4c-0.9,0.9-1.2,2.1-1.5,3.3c-0.3,0.9,1.2,1.2,1.5,0.3c0.3-1.2,0.9-2.1,0.9-3.3
								C318.7,358.4,318.1,358.1,317.8,358.4z M321.7,358.4c-0.3,0.6-0.6,0.9-0.9,1.5c-0.3,0.6,0.6,1.2,0.9,0.6l0.9-1.8
								C322.9,358.1,322,358.1,321.7,358.4L321.7,358.4z M319.6,354.5v-2.4c0-0.6-1.2-0.6-0.9,0c0.3,0.9,0.3,1.5,0.6,2.4
								C319.3,354.8,319.6,354.5,319.6,354.5L319.6,354.5z M325,350c0.3,0.6,0.3,0.9,0.6,1.5c0.3,0.6,1.2,0,1.2-0.6
								c0-0.6,0-0.9-0.3-1.5C326.5,348.5,324.7,348.8,325,350z M332.2,344.3c0,0.9,0,1.8,0.3,2.7c0,0.3,0.6,0.3,0.9,0
								c0.3-0.9,0.3-1.5,0.3-2.7C333.7,343.4,332.2,343.4,332.2,344.3z M329.5,349.1c0.3-0.9,0.3-1.8,0.3-2.7c0-0.9-1.2-0.9-1.5,0
								c0,0.9,0,1.8,0.3,2.7C328.9,349.7,329.5,349.7,329.5,349.1z M334.6,354.5c0.3-0.9,0.3-1.8,0.3-2.7c0-0.9-1.2-0.9-1.5,0
								c0,0.9,0,1.8,0.3,2.7C334,355.1,334.6,355.1,334.6,354.5z M322.3,353.9c0-0.6,0-1.2-0.3-1.8c-0.3-0.6-1.5-0.6-1.5,0.3
								c0,0.6,0.3,1.2,0.6,1.8C321.7,354.2,322.3,354.2,322.3,353.9z M325.6,354.8c-0.6,0.6-0.9,0.9-1.2,1.5
								c-0.3,0.6,0.6,1.2,0.9,0.6c0.3-0.6,0.9-0.9,1.2-1.5C326.8,354.8,326.2,354.5,325.6,354.8z M331.6,350.6
								c-0.9,0.6-1.5,1.8-2.4,2.7c-0.6,0.6,0.3,1.5,0.9,0.9c0.9-0.9,1.8-1.8,2.4-3C332.5,350.6,331.9,350.3,331.6,350.6z M330.7,356
								c-0.9,0.6-1.5,1.8-2.4,2.7c-0.6,0.6,0.3,1.5,0.9,0.9c0.9-0.9,1.8-1.8,2.4-3C331.6,356,331,355.7,330.7,356z M334.6,341.9
								c0,0.6,0.3,1.2,0.6,1.8c0.3,0.6,1.2,0.6,1.2-0.3c0-0.6-0.3-1.5-0.3-2.1C335.8,340.7,334.6,341,334.6,341.9z M336.4,340.7
								c0.3,0.6,0.3,1.2,0.9,1.8c0.3,0.3,0.6,0.3,0.9-0.3c0.3-0.6,0.3-1.2,0-1.8C337.9,339.2,336.1,339.5,336.4,340.7L336.4,340.7z
								 M337,336.2c0,0.6,0,0.6,0.3,1.2c0,0.3,0.6,0.3,0.6,0c0.3-0.6,0.3-0.6,0.3-1.2C338.2,335.6,337,335.6,337,336.2L337,336.2z
								 M340.6,335.6c0-0.6,0-0.9-0.3-1.2c-0.3-0.6-1.2-0.3-0.9,0.3c0.3,0.3,0.3,0.9,0.6,1.2C340.3,335.9,340.6,335.9,340.6,335.6
								L340.6,335.6z M341.5,332c0.3,0.6,0.6,0.9,0.9,1.5c0.3,0.6,1.2,0.3,1.2-0.6c-0.3-0.6-0.3-1.2-0.6-1.8
								C342.4,330.5,341.2,331.1,341.5,332L341.5,332z M352.3,332c0.3,0.6,0.6,0.9,0.9,1.5c0.3,0.6,1.2,0.3,1.2-0.6
								c-0.3-0.6-0.3-1.2-0.6-1.8C353.2,330.5,352,331.1,352.3,332L352.3,332z M358,316.7c-0.3,0.9-0.6,1.8-0.6,2.7
								c0,0.3,0.6,0.6,0.9,0.3c0.6-0.9,0.6-1.8,0.9-2.7C359.2,316.4,358.3,316.1,358,316.7L358,316.7z M354.4,321.8l-0.9,2.7
								c0,0.6,0.6,0.6,0.6,0.3l0.9-2.7C355,321.5,354.4,321.5,354.4,321.8z M351.7,325.4c-0.3,1.2-0.6,2.1-0.9,3.3
								c0,0.6,0.6,0.6,0.6,0C351.7,327.8,352,326.6,351.7,325.4C352.3,325.1,351.7,324.8,351.7,325.4L351.7,325.4z M350.2,334.1
								c-0.3,1.2-0.6,2.1-0.9,3.3c0,0.6,0.6,0.6,0.6,0C350.2,336.5,350.5,335.3,350.2,334.1C350.8,333.8,350.2,333.5,350.2,334.1
								L350.2,334.1z M349,329.6c-0.3,0.9-0.6,1.8-0.6,2.7c0,0.3,0.6,0.6,0.6,0.3c0.6-0.9,0.6-1.8,0.9-2.7
								C350.2,329.3,349.3,329,349,329.6z M345.1,339.8c-0.3,0.9-0.6,1.8-0.6,2.7c0,0.3,0.6,0.6,0.6,0.3c0.6-0.9,0.6-1.8,0.9-2.7
								C346.3,339.5,345.4,339.2,345.1,339.8z M345.7,334.1c-0.3,0.6-0.6,1.5-0.6,2.1c0,0.6,0.9,0.6,1.2,0.3l0.9-1.8
								C347.5,333.8,346.3,333.2,345.7,334.1L345.7,334.1z M340,346.7c-0.3,0.6-0.6,1.5-0.6,2.1c0,0.6,0.9,0.6,1.2,0.3l0.9-1.8
								C341.8,346.4,340.6,345.8,340,346.7L340,346.7z M342.7,337.7c-0.6,0-0.6,0.9,0,0.9C343.3,338.6,343.3,337.7,342.7,337.7z
								 M346.3,329.9c0.3-0.9,0-1.5-0.6-2.4c-0.3-0.9-1.8-0.3-1.5,0.6c0.3,0.9,0.6,1.5,1.2,2.1C345.7,330.2,346.3,330.2,346.3,329.9
								L346.3,329.9z M348.7,325.1c0-0.6,0-1.2-0.3-1.8c-0.3-0.9-1.8-0.6-1.5,0.3c0,0.6,0.3,1.2,0.6,1.8
								C347.8,326,348.7,325.7,348.7,325.1z M351.4,321.5c-0.3-0.9-0.6-1.5-1.2-2.1c-0.6-0.9-1.8,0-1.2,0.6c0.3,0.9,0.6,1.5,1.2,2.1
								C350.8,322.4,351.7,322.1,351.4,321.5z M354.1,316.4c-0.3-0.9-0.9-1.5-1.5-2.1c-0.3-0.6-1.2,0.3-0.9,0.9
								c0.6,0.6,0.9,1.5,1.8,1.8C354.1,317,354.4,316.7,354.1,316.4L354.1,316.4z M353.2,311.6c0.3,0.9,0.9,1.8,1.5,2.4
								c0.3,0.3,0.9,0,0.9-0.6c-0.3-0.9-0.6-1.8-1.2-2.4C354.1,310.1,352.9,310.7,353.2,311.6z M357.1,308.6c0-0.9-0.6-1.5-0.9-2.1
								c-0.6-0.9-1.8,0-1.5,0.9c0.3,0.6,0.9,1.5,1.5,1.8C356.8,309.5,357.4,309.2,357.1,308.6L357.1,308.6z M358,314
								c0.3-0.6,0.3-1.5,0-2.1c0-0.9-1.5-0.9-1.5,0c0,0.9-0.3,1.5,0,2.1C357.1,314.6,357.7,314.6,358,314z M355,318.2
								c0,0.6,0,1.2,0.3,2.1c0,0.3,0.6,0.3,0.9,0c0.3-0.6,0.3-1.2,0.3-2.1C355.9,317.3,355,317.3,355,318.2z M356.8,323.3
								c-0.3,0.9-0.6,1.5-0.6,2.4c0,0.6,0.9,0.9,1.2,0.3c0.6-0.6,0.6-1.5,0.9-2.4C358.3,322.7,357.1,322.4,356.8,323.3L356.8,323.3z
								 M353.8,328.7c-0.3,0-0.3,0.6,0,0.6C354.4,329.3,354.4,328.7,353.8,328.7z M340,342.5l-0.9,1.8c0,0.6,0.6,1.2,1.2,0.6
								c0.6-0.6,0.6-1.2,0.9-1.8C341.8,342.2,340.6,341.6,340,342.5z M336.7,346.7c-0.3,0.6-0.3,1.2-0.3,1.8c0,0.6,0.6,0.6,0.9,0
								c0.3-0.6,0.3-0.9,0.3-1.5C337.9,346.1,337,345.8,336.7,346.7z M301.9,371.6v-1.2c0-0.9-1.2-0.9-1.2,0v1.2
								C300.7,372.2,301.6,372.2,301.9,371.6z M303.1,366.2c0-0.6-0.3-1.2-0.6-1.8c-0.3-0.6-1.5,0-0.9,0.6c0.3,0.6,0.6,0.9,0.9,1.5
								C302.8,367.1,303.1,366.8,303.1,366.2L303.1,366.2z M313.6,363.8c-0.6,0-0.6,0.9,0,0.9C314.2,364.4,314.2,363.8,313.6,363.8z
								 M319.3,364.4c-0.3,0.6-0.3,1.5-0.3,2.1c0,0.6,0.9,0.9,1.2,0.3c0.3-0.6,0.3-1.2,0.6-2.1C320.8,363.8,319.3,363.5,319.3,364.4
								z M324.1,359.3c-0.3,0.6-0.3,1.2,0,1.8c0,0.3,0.6,0.6,0.9,0.3c0.6-0.6,0.6-0.9,0.9-1.8C325.9,358.7,324.4,358.4,324.1,359.3
								L324.1,359.3z M279.1,377.6c-0.6-0.3-1.2,0.3-0.6,0.6c0.6,0.6,1.2,1.2,2.1,1.5c0.6,0.3,0.9-0.3,0.6-0.6
								C280.6,378.8,279.7,378.2,279.1,377.6z M295.9,378.2c-0.6,0-0.6,0.9,0,0.9c0.6,0,1.2,0,2.1-0.3c0.3,0,0.3-0.6,0-0.6H295.9z
								 M286,380.9c-0.6,0-0.6,0.9,0,0.9c0.6,0,1.2,0,2.1-0.3c0.3,0,0.3-0.6,0-0.6H286z M301.9,377.3c-1.2-0.3-1.2,1.2-0.3,1.2h0.3
								C302.2,377.9,302.2,377.3,301.9,377.3z M263.5,364.7c-0.3,0-0.6,0.6-0.3,0.9c0.3,0.6,0.6,1.2,1.2,1.8c0.3,0.3,0.6,0,0.6-0.3
								c0-0.6,0-0.9-0.3-1.5c0.3,0.3,0.9,0,0.9-0.6c-0.3-0.6-0.3-0.9-0.6-1.5C264.4,362.6,262.9,363.8,263.5,364.7L263.5,364.7z
								 M271,351.2c0.3,0,0.3-0.3,0-0.3C270.7,350.6,270.7,351.2,271,351.2z M277.9,353c-0.3-0.6-0.9-0.9-1.5-1.2
								c-0.6-0.3-0.9,0.6-0.6,0.9c0.6,0.3,1.2,0.9,1.8,1.2C277.9,353.9,278.2,353.3,277.9,353z M278.2,351.5
								c0.3,0.9,0.9,1.5,1.5,1.8c0.3,0.3,0.6,0,0.6-0.3c0-0.9-0.6-1.5-0.9-2.1C278.8,350.3,277.9,350.9,278.2,351.5L278.2,351.5z
								 M282.1,351.8c0.3,0.6,0.6,0.9,0.9,1.5c0.3,0.3,1.2,0.3,0.9-0.3l-0.9-1.8C282.7,350.3,281.8,350.9,282.1,351.8L282.1,351.8z
								 M285.7,352.4c0.6,0,0.6-0.9,0-0.9C285.4,351.8,285.4,352.4,285.7,352.4z M288.1,351.2c0,0.3,0,0.6,0.6,0.9
								c0.3,0.3,0.3,0.3,0.6,0c0.3-0.3,0.3-0.3,0.6-0.9C289.9,349.7,287.8,349.7,288.1,351.2L288.1,351.2z M267.7,351.5
								c0-0.6-0.3-0.9-0.9-1.5c-0.6-0.6-1.5,0.3-1.2,0.9c0.3,0.6,0.6,0.9,1.2,1.2C267.4,352.4,267.7,352.1,267.7,351.5z
								 M262.9,349.1c0-0.3-0.3-0.6-0.3-0.9c-0.3-0.6-1.2,0-0.6,0.3C262.3,348.8,262.3,349.1,262.9,349.1
								C262.6,349.4,262.9,349.4,262.9,349.1L262.9,349.1z M256.3,345.5v-0.9c0-0.6-0.6-0.6-0.6,0v0.9
								C255.7,345.8,256.3,345.8,256.3,345.5z M253.6,343.1c0.6,0,0.6-1.2,0-1.2S253,343.1,253.6,343.1z M244,342.2
								c0.3,0.9,0.6,1.5,1.2,2.1c0.3,0.3,0.9,0,0.9-0.3c0-0.9-0.3-1.5-0.6-2.4C245.2,340.7,243.7,341.3,244,342.2L244,342.2z
								 M247.9,336.8c0-0.3-0.3-0.9-0.3-1.2c-0.3-0.6-1.5-0.3-1.2,0.3c0,0.3,0.3,0.9,0.6,1.2C247.3,338,248.2,337.4,247.9,336.8z
								 M239.8,336.5c-0.9,0-0.9,1.2,0,1.2S240.7,336.5,239.8,336.5z M237.4,329.3c-0.6,0-0.6,0.9,0,0.9S238,329.3,237.4,329.3z
								 M242.2,327.8l0.9,0.9c0.6,0.3,1.2-0.3,0.9-0.9c-0.3-0.6-0.3-0.6-0.9-0.9C242.8,326,241.6,327.2,242.2,327.8z M226.3,333.5
								c0,0-9.3-19.8-9.9-28.5c-0.6-8.7,9.6-17.4,24.6-18.3c14.7-0.9,25.2,2.7,33.3,3.9c8.1,1.2,14.1,1.8,15.6,3.9
								c1.5,2.1,3.6,0.6,5.4-0.9s21-2.1,25.2-3.9c4.2-1.8,15.6-5.4,22.2-5.7c6.6-0.3,22.2-2.1,27,7.8c4.8,9.9-8.4,38.4-9.3,37.2
								c-0.9-1.2-0.9-23.1-6-28.8c-5.1-5.7-31.8,2.1-38.1,3c-6.3,0.9-18.3,3-24.6,3c-6.3,0-49.8-2.1-56.4-3
								c-6.6-0.9-6.9,9.9-6.9,17.1C229,327.5,227.8,335.3,226.3,333.5L226.3,333.5z"/>
							<path id="SvgjsPath6466" class="st0" d="M274.6,294.5c-2.7,3-5.4,5.4-9.3,7.2c-0.3,0.3,0,0.9,0.3,0.6
								c3.6-1.2,7.5-3.9,9.6-7.2C275.5,294.8,274.9,294.2,274.6,294.5z M283.6,296c-1.2,1.2-2.1,2.7-3.3,3.9
								c-1.5,1.2-3.3,2.1-5.4,2.7c-0.6,0.3-0.3,0.9,0.3,0.9c2.1-0.3,3.9-1.2,5.7-2.7c1.2-1.2,3.3-3,3.3-4.8L283.6,296L283.6,296z
								 M256,291.8c-2.1,0.3-4.2,2.1-5.7,3.3c-1.8,1.5-3.6,3.3-5.1,5.1c-0.3,0.3,0.3,0.9,0.6,0.6c1.5-1.8,3-3.3,4.8-4.8
								c1.8-1.5,3.9-2.4,5.7-3.9C256.6,292.1,256.3,291.8,256,291.8L256,291.8z M264.4,293.3c-1.8,0.6-2.7,2.7-3.9,3.9
								c-1.5,1.8-3.6,2.7-5.7,3.6c-0.6,0.3-0.3,0.9,0.3,0.6c2.1-0.6,3.9-1.2,5.4-2.7c1.5-1.2,3.6-3.3,4.5-5.1
								C265,293.3,264.7,293,264.4,293.3z M243.7,291.2c-1.5,0.6-3,2.1-3.9,3.3c-1.2,1.5-2.1,3-3,4.8c-0.3,0.3,0.3,0.6,0.6,0.3
								c0.9-1.5,2.1-3.3,3.3-4.5c1.2-1.2,2.4-2.1,3.6-3.3C244,291.2,244,291.2,243.7,291.2L243.7,291.2z M232.6,292.1
								c-3.6,2.1-4.8,7.2-4.2,11.1c0,0.6,0.9,0.3,0.9,0c-0.3-4.2,1.2-7.2,3.6-10.5C233.2,292.1,232.9,291.8,232.6,292.1z
								 M227.5,321.5c-2.1-3.6-4.8-6.6-6.6-10.2c-0.3-0.3-0.6,0-0.6,0.3c1.8,3.6,3.6,7.5,6.9,10.2
								C227.2,321.8,227.5,321.8,227.5,321.5L227.5,321.5z M224.5,311.3c-0.9-4.5-3-8.4-0.9-12.9c0.3-0.3-0.6-0.6-0.6-0.3
								c-2.1,4.2-1.5,9.6,1.2,13.5C224.2,311.9,224.5,311.6,224.5,311.3z M288.4,297.5c-0.3,1.5-0.6,3.6-0.3,5.1
								c0,0.3,0.3,0.3,0.6,0c0.6-1.5,0.6-3.6,0.6-5.1C289.3,296.9,288.4,296.9,288.4,297.5L288.4,297.5z M294.7,299.3
								c-0.3-0.9-0.3-2.1-0.3-3c0-0.6-0.6-0.6-0.6,0c-0.3,1.8,0,4.5,1.5,5.7c0.3,0.3,0.6,0,0.6-0.3
								C295.3,301.1,294.7,300.2,294.7,299.3z M304.6,300.5c-0.9-0.9-2.1-1.5-3-2.4c-1.2-0.9-1.8-2.4-2.4-3.6
								c-0.3-0.3-0.9-0.3-0.6,0.3c0.9,2.7,3,6,6,6.3V300.5z M315.1,299c-1.2-0.6-2.7-0.9-3.9-1.8c-1.5-0.6-2.7-1.8-3.9-2.7
								c-0.3-0.3-0.6,0.3-0.6,0.6c1.8,2.1,5.1,4.8,8.1,4.8C315.4,299.6,315.4,299,315.1,299L315.1,299z M327.1,297.8
								c-2.7-2.1-6.6-2.4-8.7-5.1c-0.3-0.3-0.9,0-0.6,0.3c0.9,1.2,2.1,2.1,3.6,2.7c1.8,0.9,3.6,2.1,5.7,2.4
								C327.1,298.4,327.4,298.1,327.1,297.8L327.1,297.8z M355.6,291.5c-1.8-2.1-4.8-3.3-7.2-4.8c-0.6-0.3-0.9,0.3-0.3,0.6
								c2.1,1.5,4.5,2.7,6.3,4.5c1.8,1.8,1.5,4.2,2.7,6.3c0.3,0.3,0.6,0,0.6-0.3C357.7,296,357.1,293.3,355.6,291.5z M343.6,291.5
								c-1.8-1.2-3.6-2.7-5.4-4.2c-0.3-0.3-0.9,0.3-0.6,0.6c3.3,3,7.2,7.5,12.3,6.9c0.3,0,0.3-0.3,0-0.6
								C347.8,293.9,345.4,293,343.6,291.5z M339.1,295.4c-2.1-0.9-3.9-1.2-6-2.1c-1.8-0.9-3.3-1.8-4.8-3c-0.3-0.3-0.9,0.3-0.6,0.6
								c3,2.4,7.2,5.1,11.4,5.1C339.4,296,339.4,295.4,339.1,295.4L339.1,295.4z M366.4,308.3c-1.2,3.9-3,7.2-4.2,10.8
								c0,0.3,0.3,0.6,0.6,0.3c2.4-3,3.9-7.2,4.8-10.8C367.6,308,366.7,307.7,366.4,308.3L366.4,308.3z M363.1,289.7
								c-0.3-0.3-0.9-0.3-0.6,0.3c2.4,6.9-0.9,12-1.8,18.6c0,0.3,0.3,0.6,0.6,0.3C364.3,303.5,365.5,295.7,363.1,289.7L363.1,289.7z
								"/>
						</g>
					</g>
				</g>
				<g id="svga-group-mustache-single-move" transform="matrix(1,0,0,1,0,0)">
					
						<g id="svga-group-mustache-single" transform="matrix(1.1500005000000004,0,0,1.1500005000000004,-14.962549875000036,-17.14152995471005)">
						<path id="SvgjsPath7673" d="M265.9,264.6c4.8,1.2,6.9,13.2,3.6,16.8c-3.3,3.6-47.4,8.7-50.4,3.6c-3-5.1,2.7-13.2,10.8-16.5
							C237.7,265.2,259.3,263.1,265.9,264.6L265.9,264.6z"/>
						<path id="SvgjsPath7674" d="M280.6,264.6c-4.8,1.2-6.9,13.2-3.6,16.8c3.3,3.6,47.4,8.7,50.4,3.6c3-5.1-2.7-13.2-10.8-16.5
							C308.5,265.2,287.2,263.1,280.6,264.6L280.6,264.6z"/>
						<path id="SvgjsPath7675" class="st0" d="M266.8,267.6c0-0.3-0.6-0.3-0.6,0c-0.3,2.7-0.6,5.1-2.1,7.2c-1.5,2.4-3.6,3.6-5.7,5.1
							c-0.3,0.3-0.3,0.6,0.3,0.6C264.1,279.6,267.7,272.7,266.8,267.6L266.8,267.6z M262.6,267c-2.1,3.6-4.2,6.6-7.2,9.3
							c-3,2.4-6.3,4.2-9.3,6.6c-0.6,0.3,0.3,1.2,0.6,0.9c6.9-3.3,14.4-9.3,16.8-16.5C263.8,267,262.9,266.7,262.6,267L262.6,267z
							 M254.2,266.7c-3.3,6.6-11.1,11.1-12.3,18.9c0,0.3,0.6,0.6,0.6,0.3c1.8-7.8,9.6-11.4,12.3-18.9
							C255.1,266.7,254.5,266.4,254.2,266.7z M252.1,266.1c-3.6,2.4-6.6,5.4-9.6,8.7c-2.7,2.7-5.4,6-6.6,9.6
							c-0.3,0.6,0.9,0.9,1.2,0.3c2.7-7.2,9.6-13.2,15.3-18C252.7,266.4,252.4,265.8,252.1,266.1L252.1,266.1z M243.4,267.3
							c-2.1,3.6-5.7,5.7-8.4,9c-2.4,2.7-3.6,6.3-3.6,9.9c0,0.6,0.6,0.6,0.9,0c0.9-4.8,2.4-8.4,6-11.7c2.4-2.1,4.8-3.9,6-6.9
							C244.3,267.3,243.7,267,243.4,267.3z M239.8,268.8c-3.3,2.7-6.9,5.7-9.9,9c-1.8,2.1-3.9,4.5-3.9,7.2c0,0.3,0.6,0.6,0.6,0.3
							c1.8-3,3-5.7,5.7-8.1c2.7-2.7,5.4-5.1,8.1-7.8C240.7,268.8,240.1,268.5,239.8,268.8L239.8,268.8z M233.8,270
							c-5.4,3-11.1,8.7-11.1,15.3c0,0.3,0.6,0.3,0.6,0c0.9-7.2,6-10.2,10.8-15C234.4,270.3,234.1,270,233.8,270z M225.7,273.9
							c-2.4,1.5-4.8,3.9-5.4,6.6c0,0.3,0.3,0.6,0.6,0.3C222.4,278.4,223.6,276,225.7,273.9C226,274.2,225.7,273.9,225.7,273.9
							L225.7,273.9z M258.4,266.4c-0.6,1.2-1.2,2.4-2.1,3.6c-0.9,1.2-1.5,2.4-2.4,3.6c-0.3,0.3,0.3,0.6,0.6,0.3
							c1.8-2.1,3.6-4.8,4.2-7.2C259,266.1,258.7,266.1,258.4,266.4L258.4,266.4z M255.4,282c-0.9,0.3-1.8,0.9-2.7,1.2
							c-0.3,0.3,0,0.6,0.3,0.6c1.2-0.3,2.1-0.6,2.7-1.5C256,282.3,255.7,282,255.4,282z M268.6,274.8c-1.2,3-2.7,5.4-5.7,6.6
							c-0.3,0-0.3,0.6,0.3,0.6c3-0.9,6-3.6,6.3-6.9C269.2,274.8,268.9,274.5,268.6,274.8L268.6,274.8z M280,267.6
							c0-0.3,0.6-0.3,0.6,0c0.3,2.7,0.6,5.1,2.1,7.2c1.5,2.4,3.6,3.6,5.7,5.1c0.3,0.3,0.3,0.6-0.3,0.6
							C282.4,279.6,279.1,272.7,280,267.6L280,267.6z M283.9,267c2.1,3.6,4.2,6.6,7.2,9.3c3,2.4,6.3,4.2,9.3,6.6
							c0.6,0.3-0.3,1.2-0.6,0.9c-6.9-3.3-14.4-9.3-16.8-16.5C283,267,283.6,266.7,283.9,267L283.9,267z M292.3,266.7
							c3.3,6.6,11.1,11.1,12.3,18.9c0,0.3-0.6,0.6-0.6,0.3c-1.8-7.8-9.6-11.4-12.3-18.9C291.4,266.7,292,266.4,292.3,266.7z
							 M294.7,266.1c3.6,2.4,6.6,5.4,9.6,8.7c2.7,2.7,5.4,6,6.6,9.6c0.3,0.6-0.9,0.9-1.2,0.3c-2.7-7.2-9.6-13.2-15.3-18
							C293.8,266.4,294.4,265.8,294.7,266.1L294.7,266.1z M303.1,267.3c2.1,3.6,5.7,5.7,8.4,9c2.4,2.7,3.6,6.3,3.6,9.9
							c0,0.6-0.6,0.6-0.9,0c-0.9-4.8-2.4-8.4-6-11.7c-2.4-2.1-4.8-3.9-6-6.9C302.2,267.3,303.1,267,303.1,267.3z M306.7,268.8
							c3.3,2.7,6.9,5.7,9.9,9c1.8,2.1,3.9,4.5,3.9,7.2c0,0.3-0.6,0.6-0.6,0.3c-1.8-3-3-5.7-5.7-8.1c-2.7-2.7-5.4-5.1-8.1-7.8
							C306.1,268.8,306.4,268.5,306.7,268.8L306.7,268.8z M312.7,270c5.4,3,11.1,8.7,11.1,15.3c0,0.3-0.6,0.3-0.6,0
							c-0.9-7.2-6-10.2-10.8-15C312.1,270.3,312.4,270,312.7,270z M320.8,273.9c2.4,1.5,4.8,3.9,5.4,6.6c0,0.3-0.3,0.6-0.6,0.3
							C324.1,278.4,322.9,276,320.8,273.9C320.5,274.2,320.8,273.9,320.8,273.9L320.8,273.9z M288.1,266.4c0.6,1.2,1.2,2.4,2.1,3.6
							c0.9,1.2,1.5,2.4,2.4,3.6c0.3,0.3-0.3,0.6-0.6,0.3c-1.8-2.1-3.6-4.8-4.2-7.2C287.5,266.1,287.8,266.1,288.1,266.4L288.1,266.4
							z M291.1,282c0.9,0.3,1.8,0.9,2.7,1.2c0.3,0.3,0,0.6-0.3,0.6c-1.2-0.3-2.1-0.6-2.7-1.5C290.5,282.3,290.8,282,291.1,282z
							 M277.9,274.8c1.2,3,2.7,5.4,5.7,6.6c0.3,0,0.3,0.6-0.3,0.6c-3-0.9-6-3.6-6.3-6.9C277.3,274.8,277.6,274.5,277.9,274.8
							L277.9,274.8z"/>
					</g>
				</g>
				<g id="svga-group-nose-single-move" transform="matrix(1,0,0,1,0,-2)">
					
						<g id="svga-group-nose-single" transform="matrix(1.1500005000000004,0,0,1.1500005000000004,-14.940568562410391,-14.83684640728383)">
						<path id="SvgjsPath7246" class="st0" d="M270.8,215.2c5-0.5,15.8,8,21.8,14.8c6,6.8,11,19.1,5.3,23.8c-5.8,4.8-7,1.5-14.5,7.5
							c-7.5,6-10.3,7.3-15.6,2c-5.3-5.3-10.8-7.3-17.1-7.8c-6.3-0.5-6.5-9.5-4.5-14.3C248.2,236.5,256.2,216.7,270.8,215.2
							L270.8,215.2z"/>
						<path id="SvgjsPath7247" d="M261.6,192.4c-6.9,15.7-12.6,31.6-16.7,48.2c-1.4,5.6-2.7,12.3,3.2,15.9c2.4,1.5,5,1.2,7.7,1.4
							c5.2,0.3,7.4,3.8,10.9,7c3.9,3.5,8.8,5.1,13.3,1.9c2.6-1.9,4.2-5,7-6.7c3.1-2,7.1-1.4,10.2-3.5c10.4-7.3,1.2-21.9-4.1-29.2
							c-1.3-1.8-4.3-0.1-3,1.7c2.8,3.9,5.5,8.1,7.2,12.5c1,2.6,1.5,5.3,0.6,8.1c-1.3,4.3-4.9,4.9-8.6,5.8c-4.5,1.1-6.5,4-9.7,7.1
							c-6.6,6.4-11.2-1.9-16.3-5.6c-1.5-1.1-3-1.9-4.9-2.2c-2.7-0.5-6.2,0.4-8.6-1.1c-4.4-2.8-2.6-8.1-1.7-12
							c0.8-3.3,1.5-6.6,2.5-9.8c3.6-12.9,8.6-25.4,13.9-37.6C265.5,192.2,262.5,190.4,261.6,192.4L261.6,192.4z"/>
					</g>
				</g>
				<g id="svga-group-glasses-single-move" transform="matrix(1,0,0,1,0,-4)">
					
						<g id="svga-group-glasses-single" transform="matrix(1.1000003000000003,0,0,1.1000003000000003,-9.974374939514561,-8.925137020081735)">
						
							<linearGradient id="SvgjsPath8542_1_" gradientUnits="userSpaceOnUse" x1="82.6315" y1="575.7567" x2="82.6315" y2="550.6747" gradientTransform="matrix(3.3 0 0 -3.3 -52.2402 2067.9451)">
							<stop  offset="0" style="stop-color:#000000"/>
							<stop  offset="0.9104" style="stop-color:#000000;stop-opacity:8.960000e-02"/>
							<stop  offset="1" style="stop-color:#000000;stop-opacity:0"/>
						</linearGradient>
						<path id="SvgjsPath8542" class="st1" d="M175.9,177.4c-4.4,7-4.2,21.9,1.8,41c6,19.1,20.8,24,28.4,24.6
							c7.7,0.6,28.6,0.2,40.8-8c12.2-8.2,18.2-20.9,20.8-37.7c2.6-16.8-13.8-23.1-18.2-24.4c-4.4-1.3-24.6-4.7-38.4-4.9
							C197.2,167.8,181.2,169.1,175.9,177.4z"/>
						
							<linearGradient id="SvgjsPath8547_1_" gradientUnits="userSpaceOnUse" x1="46.454" y1="575.7567" x2="46.454" y2="550.6747" gradientTransform="matrix(-3.3 0 0 -3.3 495.114 2067.9451)">
							<stop  offset="0" style="stop-color:#000000"/>
							<stop  offset="0.9104" style="stop-color:#000000;stop-opacity:8.960000e-02"/>
							<stop  offset="1" style="stop-color:#000000;stop-opacity:0"/>
						</linearGradient>
						<path id="SvgjsPath8547" class="st2" d="M386.3,177.4c4.4,7,4.2,21.9-1.8,41c-6,19.1-20.8,24-28.4,24.6
							c-7.6,0.6-28.6,0.2-40.8-8c-12.2-8.2-18.2-20.9-20.8-37.7s13.8-23.1,18.2-24.4c4.4-1.3,24.6-4.7,38.4-4.9
							C365,167.8,381,169.1,386.3,177.4z"/>
						<path id="SvgjsPath8552" class="st0" d="M401.2,169.2c-1.4-0.9-5.8,0-13.9-2.1c-8.1-2.1-32.8-4.4-46.2-2.5s-34.2,6.4-41.8,8.1
							c-7.6,1.6-16.9,2.2-16.9,2.2h-2.9c0,0-9.2-0.6-16.9-2.2c-7.6-1.6-28.4-6.2-41.8-8.1c-13.4-1.8-38.1,0.4-46.2,2.5
							c-8.1,2.1-12.5,1.1-13.9,2.1c-1.4,0.9-2.6,16.9,0.4,18.5c3,1.6,4.9,3.9,6.7,13.2s6.2,24,10.2,28.9c3.9,4.9,8.8,12.9,29.6,15.9
							s39-4.3,50.1-15.8c11.1-11.6,12.8-23.3,15.4-34.6c1.9-8.3,6.4-8.9,6.4-8.9h2.9c0,0,4.5,0.6,6.4,8.9c2.5,11.3,4.3,23,15.4,34.6
							c11.1,11.6,29.3,18.8,50.1,15.8c20.8-3,25.6-11.1,29.6-15.9c3.9-4.9,8.3-19.6,10.2-28.9s3.7-11.6,6.7-13.2
							C403.8,186.1,402.6,170.2,401.2,169.2L401.2,169.2z M261.8,211.1c-6.9,17.5-18.5,23.8-27.4,26.7c-8.9,3-25.7,2.3-32.3,1
							c-6.6-1.3-15.5-4-21.5-18.5c-5.9-14.5-6.9-36.3,1.3-43.5c8.2-7.3,30-5.3,42.9-4.6c0,0,14.6,1.1,26.2,4.7
							C262.5,180.5,268.7,193.6,261.8,211.1L261.8,211.1z M381.6,220.3c-5.9,14.5-14.9,17.2-21.5,18.5c-6.6,1.3-23.4,2-32.3-1
							c-8.9-3-20.5-9.2-27.4-26.7s-0.8-30.6,10.8-34.2c11.6-3.6,26.2-4.7,26.2-4.7c12.9-0.7,34.6-2.6,42.9,4.6
							C388.5,184,387.6,205.8,381.6,220.3z"/>
						<path id="SvgjsPath8553" d="M402.1,168c-0.9-0.6-2.2-0.7-4.1-0.8c-2.2-0.1-5.6-0.3-10.2-1.5c-7.8-2-32.9-4.5-46.7-2.6
							c-11.7,1.6-29.1,5.3-38.4,7.3l-3.5,0.8c-7.4,1.6-16.6,2.2-16.5,2.2h-2.8c-0.1,0-9.2-0.6-16.6-2.2l-3.5-0.8
							c-9.3-2-26.6-5.7-38.4-7.3c-13.8-1.9-38.9,0.6-46.7,2.6c-4.6,1.2-7.9,1.3-10.2,1.5c-1.9,0.1-3.2,0.2-4.1,0.8
							c-2.4,1.6-2,13.1-2,13.3c0.3,5.8,1.6,7.2,2.6,7.8c2.3,1.2,4.1,2.8,5.9,12.1c1.8,9.2,6.3,24.4,10.5,29.5l0.9,1.1
							c3.9,5,9.8,12.5,29.6,15.4c3.2,0.5,6.4,0.7,9.5,0.7c16.2,0,31.4-6,41.9-17c10.4-10.8,12.8-21.7,15.1-32.2l0.7-3
							c1.6-7,5-7.7,4.9-7.7l2.7,0c0.1,0,3.5,0.8,5.1,7.7l0.7,3c2.3,10.5,4.7,21.4,15.1,32.2c12.5,13,31.7,19.1,51.4,16.3
							c19.8-2.8,25.7-10.4,29.6-15.4l0.9-1.1c4.2-5.2,8.6-20.4,10.5-29.5c1.9-9.3,3.6-10.9,5.9-12.1c1-0.5,2.3-1.9,2.6-7.8
							C404.1,181.2,404.5,169.6,402.1,168L402.1,168z M399,187c-4.3-4-9.1-7.5-13.6-11.3c-3.6-3.1-7.2-6.2-10.9-9.1
							c1.3,0.2,2.6,0.3,3.8,0.5c7.1,6.2,14.9,12,22.6,17.3c-0.2,1-0.4,1.7-0.8,2C399.7,186.6,399.4,186.8,399,187L399,187z
							 M396.5,189.4c-4.7-4.1-9.4-8.6-14.3-12.8c-0.3-0.3-0.6-0.7-1-1c-0.5-0.5-1.1-0.9-1.7-1.3c-3.5-2.9-7-5.7-10.7-8.2
							c1.3,0.1,2.6,0.2,3.8,0.3c4.4,4,9.1,7.6,13.6,11.3c4,3.3,7.7,6.8,11.8,9.9C397.6,188.2,397,188.7,396.5,189.4L396.5,189.4z
							 M391.7,204.8c-0.4-0.5-0.9-0.8-1.3-1.3c-0.9-0.8-1.8-1.7-2.8-2.4c0.1-0.8,0.1-1.5,0.1-2.3c1.1,1.8,2.5,3.7,4.2,5.1
							C391.8,204.2,391.8,204.5,391.7,204.8L391.7,204.8z M389.4,213.2c-1-1-2.1-2-3.2-3l0.4-1.7c1.1,1.1,2.1,2.3,3.2,3.3
							C389.7,212.3,389.5,212.7,389.4,213.2z M388.7,215.4c-0.9-1-2-1.8-3.1-2.6c0.1-0.4,0.2-0.9,0.3-1.3c0.9,1.1,1.9,2.2,3,3.1
							C388.9,214.9,388.8,215.2,388.7,215.4L388.7,215.4z M387.5,219.1c-0.8-1.1-1.8-2-2.8-2.9c0.2-0.7,0.4-1.4,0.6-2.2
							c0.9,1,1.9,1.9,3,2.6C388,217.5,387.7,218.3,387.5,219.1L387.5,219.1z M386.5,221.7c-0.4-0.3-0.8-0.7-1.2-1
							c-0.5-0.5-1.1-1-1.6-1.5c0.2-0.5,0.4-1,0.6-1.6c0.8,0.9,1.7,1.8,2.7,2.5c0,0,0.1,0,0.1,0C386.9,220.6,386.7,221.1,386.5,221.7
							L386.5,221.7z M382.2,229.5c-0.8-0.7-1.8-1.2-2.8-1.7c0.3-0.4,0.6-0.9,0.9-1.4c0.8,0.7,1.7,1.5,2.6,2.2
							c-0.1,0.1-0.1,0.2-0.2,0.2L382.2,229.5z M380.4,231.8c-0.8-0.6-1.7-1.1-2.6-1.6c0.3-0.4,0.6-0.8,0.9-1.2
							c0.9,0.5,1.9,1,2.9,1.3C381.2,230.8,380.8,231.3,380.4,231.8z M378,234.4c-0.9-0.5-1.9-0.9-3-1.2c0.6-0.6,1.3-1.3,1.9-2
							c0.9,0.6,1.7,1.1,2.7,1.5C379.1,233.3,378.6,233.8,378,234.4z M370.3,239.7c-0.7-0.7-1.5-1.2-2.3-1.7c0.3-0.1,0.5-0.3,0.8-0.4
							c0.9,0.6,1.9,1.1,3,1.3C371.3,239.2,370.8,239.4,370.3,239.7z M365.4,241.6c-1-0.7-2-1.3-3.1-1.8c0.4-0.1,0.8-0.2,1.2-0.3
							c1.1,0.7,2.2,1.3,3.3,1.6C366.3,241.3,365.9,241.5,365.4,241.6L365.4,241.6z M361.2,242.8c-0.8-0.4-1.8-0.8-2.6-1.2
							c-0.5-0.3-1-0.6-1.4-0.9c1.2-0.2,2.2-0.3,3.1-0.5c1.1,0.8,2.3,1.4,3.6,1.8C363,242.4,362.1,242.6,361.2,242.8L361.2,242.8z
							 M357.7,243.6c-0.9-0.4-1.9-0.8-2.8-1.1l-3.5-1.3c1.3-0.1,2.5-0.2,3.7-0.3c0.9,0.7,1.9,1.3,2.9,1.8c0.3,0.2,0.6,0.4,1,0.5
							C358.5,243.4,358.1,243.5,357.7,243.6L357.7,243.6z M346.3,244.5c-2-1.3-4.2-2.2-6.4-3.2c0.9,0.1,1.9,0.1,2.8,0.1
							c2.2,1.2,4.6,2.4,7.1,3.3c-1.1,0.1-2.2,0.2-3.3,0.2C346.6,244.7,346.5,244.5,346.3,244.5L346.3,244.5z M328.3,236.4
							c-12.6-4.2-21.2-12.7-26.5-25.9c-3.5-8.7-3.7-16.9-0.8-23c2.1-4.5,5.8-7.7,10.6-9.2c11.2-3.5,25.7-4.7,25.8-4.7l3.6-0.2
							c4.4-0.2,9.6-0.5,14.8-0.5c9.5,0,18.9,1,23.4,5c7.6,6.7,6.8,27.6,0.9,41.9c-1.2,2.8-2.5,5.2-3.8,7.2c-0.1,0.1-0.1,0.1-0.1,0.2
							c-5.6,8.1-12.4,9.4-16.4,10.2C353.8,238.5,337.1,239.3,328.3,236.4L328.3,236.4z M298.1,219.1c1.7,1.5,3.7,2.9,5.5,4.3
							c1.5,1.2,3.1,2.4,4.7,3.5c0.5,0.6,1.1,1.2,1.6,1.7c-2.8-1.5-5.7-3-8.5-4.5C300.2,222.4,299.1,220.8,298.1,219.1L298.1,219.1z
							 M295.8,214.4c2.2,1.6,4.5,3.2,6.9,4.7c0.8,1.4,1.6,2.7,2.5,3.9c-0.3-0.2-0.5-0.4-0.8-0.6c-2.5-1.9-4.9-4-7.5-5.6
							C296.5,215.9,296.1,215.1,295.8,214.4L295.8,214.4z M279.5,184.9c-3.7-3.6-8-6.8-12.1-9.8c1.5,0.2,3,0.5,4.4,0.6
							c3.2,3.2,6.6,6.3,10.1,9.2H279.5L279.5,184.9z M277,176.2c6.2,5.3,12.7,11,19.6,15.3c-0.2,0.9-0.3,1.8-0.4,2.8
							c-7.9-5.8-15.3-12.2-22.8-18.5C274.8,176,276,176.1,277,176.2L277,176.2z M287.7,176c1.7,1.7,3.4,3.2,5.3,4.7
							c1.9,1.5,3.9,3.3,6.1,4.2c-0.3,0.5-0.5,0.9-0.8,1.4c-0.1,0.2-0.1,0.4-0.2,0.6c-4.4-3.7-9.2-7.2-14-10.5
							C285,176.2,286.3,176.1,287.7,176L287.7,176z M292.2,175.5c1.4,1.2,2.8,2.4,4.3,3.6c1.3,1.1,2.7,2.4,4.2,3.4
							c-0.4,0.5-0.7,1-1,1.5c-1.9-1.9-4.4-3.2-6.5-4.9c-1.3-1-2.6-2.2-3.9-3.3C290.2,175.7,291.2,175.6,292.2,175.5z M296.4,174.8
							c1.2,1.1,2.4,2.1,3.6,3.1c0.9,0.8,1.8,1.6,2.7,2.3c-0.5,0.4-0.9,0.9-1.3,1.3c-1.3-1.3-2.9-2.4-4.3-3.6
							c-1.2-0.9-2.3-1.8-3.5-2.7C294.5,175.1,295.5,175,296.4,174.8L296.4,174.8z M299.7,174.2l0.9-0.2c0.6,0.7,1.3,1.4,2,2
							c0.8,0.7,1.7,1.5,2.7,2.1c-0.5,0.4-1,0.8-1.5,1.1c-1-1-2.3-1.8-3.4-2.7c-0.9-0.7-1.8-1.3-2.7-2
							C298.4,174.5,299.1,174.3,299.7,174.2L299.7,174.2z M291.1,198l-0.6-2.6c0.7,0.5,1.3,1,1.9,1.5c1.2,1,2.5,2.2,3.8,3.1
							c0.1,1.1,0.2,2.2,0.5,3.4c-1.7-1.8-3.6-3.4-5.5-5L291.1,198L291.1,198z M296.1,195.9c0,0.7-0.1,1.4-0.1,2.1
							c-0.9-0.7-1.9-1.4-2.7-2.1c-1.1-0.9-2.2-2-3.5-2.8c-0.3-1-0.7-1.9-1.1-2.7C291.3,192.3,293.7,194.1,296.1,195.9z M297,204.8
							c0.1,0.4,0.2,0.8,0.3,1.2c-1.7-1.3-3.5-2.4-5.2-3.6l-0.5-1.9C293.3,202.1,295,203.6,297,204.8L297,204.8z M297.8,208
							c0.4,1.2,0.8,2.4,1.3,3.6c-1.9-1.7-3.9-3.2-5.9-4.7c-0.3-1-0.5-1.9-0.8-2.8C294.2,205.4,295.9,206.9,297.8,208z M300.3,214.4
							c0.4,0.8,0.7,1.7,1.1,2.4c-2.1-1.5-4.3-2.9-6.4-4.4c-0.5-1.2-0.8-2.3-1.2-3.5C295.9,210.9,298,212.8,300.3,214.4z
							 M309.4,172.1c0.9,1,1.9,2.1,2.9,2.9l-1.6,0.4c-0.2,0.1-0.3,0.1-0.5,0.2c-0.6-0.5-1.4-0.9-2-1.3c-0.7-0.5-1.5-1-2.2-1.4
							C307.2,172.6,308.3,172.4,309.4,172.1z M312.9,171.4c0.7,0.8,1.5,1.4,2.3,2c0.3,0.2,0.5,0.4,0.8,0.6c-0.9,0.2-1.7,0.4-2.6,0.7
							c-0.7-1.1-1.6-2-2.7-2.8C311.6,171.7,312.3,171.5,312.9,171.4L312.9,171.4z M317.3,170.5c1.1,0.9,2.2,1.8,3.5,2.5
							c-1,0.2-1.9,0.4-2.9,0.6c-0.5-0.3-1-0.6-1.5-0.9c-0.7-0.5-1.4-1-2-1.6C315.3,170.9,316.3,170.7,317.3,170.5L317.3,170.5z
							 M321,169.7c1.2,1,2.5,1.8,3.8,2.5c-0.8,0.1-1.5,0.3-2.3,0.4c-1-1-2.3-1.8-3.6-2.5C319.6,170,320.3,169.8,321,169.7L321,169.7
							z M326,168.7c0.7,0.4,1.4,0.7,2,1.1c1,0.5,2,1.1,3,1.5c-1.2,0.2-2.5,0.3-3.9,0.5c-1.1-0.6-2.2-1.1-3.3-1.7
							c-0.4-0.2-0.8-0.5-1.2-0.7C323.7,169.2,324.9,169,326,168.7z M330.4,167.9c1.4,1.1,2.9,2.2,4.5,2.9c-0.8,0.1-1.6,0.2-2.6,0.3
							c0-0.1,0-0.1-0.1-0.2c-1.1-1-2.5-1.6-3.8-2.3c-0.2-0.1-0.4-0.2-0.5-0.3C328.7,168.3,329.5,168.1,330.4,167.9L330.4,167.9z
							 M335,167.1c1.7,1.2,3.4,2.4,5.2,3.4l-2.6,0.2c-1.3-0.7-2.6-1.2-3.9-1.9c-0.6-0.3-1.2-0.7-1.8-1.1
							C333,167.5,334,167.3,335,167.1L335,167.1z M340.2,166.3c1.3,1,2.5,1.9,3.9,2.7c0.6,0.4,1.3,0.8,1.9,1.2
							c-1.4,0.1-2.6,0.2-3.9,0.2c-1.5-1.4-3.3-2.5-5.2-3.6C338,166.6,339.1,166.5,340.2,166.3z M345.5,165.7c1.8,1.5,3.7,3,5.7,4.3
							c-1.1,0-2.2,0.1-3.2,0.1c-0.9-0.5-1.9-1-2.8-1.6c-1.3-0.8-2.5-1.6-3.7-2.4C342.7,165.9,344.1,165.8,345.5,165.7L345.5,165.7z
							 M350.6,165.5c2.1,1.7,4.3,3.2,6.7,4.4h-3.4c-1.2-0.8-2.5-1.5-3.7-2.2c-1-0.6-1.9-1.4-2.9-2.1
							C348.4,165.6,349.5,165.5,350.6,165.5L350.6,165.5z M362.4,165.7c1.6,1.7,3.7,3,5.5,4.3c0.4,0.3,0.8,0.5,1.1,0.8
							c-1.1-0.2-2.2-0.3-3.3-0.4c-2.5-1.7-5-3.3-7.6-4.8L362.4,165.7L362.4,165.7z M390.6,197.6c-1-1-1.9-2-2.9-3.1
							c0-0.8-0.1-1.5-0.1-2.3c0.7,1,1.5,1.9,2.2,2.8c1,1.2,2.1,2.4,3.2,3.4c-0.1,0.4-0.2,0.8-0.3,1.2
							C392.1,198.9,391.3,198.3,390.6,197.6L390.6,197.6z M368.1,240.6c-0.8-0.7-1.9-1-2.8-1.4c-0.1,0-0.1-0.1-0.1-0.1
							c0.5-0.2,0.9-0.3,1.4-0.5c0.9,0.6,1.9,1.1,2.9,1.4C369,240.3,368.6,240.5,368.1,240.6C368.1,240.6,368.1,240.6,368.1,240.6
							L368.1,240.6z M372.9,238.2c-0.8-0.6-1.7-0.8-2.5-1.2c-0.1-0.1-0.2-0.1-0.3-0.2c0.4-0.2,0.9-0.5,1.3-0.8
							c0.9,0.5,1.8,1,2.8,1.3C373.8,237.7,373.3,238,372.9,238.2C372.9,238.3,372.9,238.3,372.9,238.2z M375,236.9
							c-0.8-0.6-1.6-1.1-2.5-1.5c0.5-0.4,0.9-0.8,1.4-1.1c0.9,0.5,1.9,0.9,3,1.2C376.4,235.8,375.7,236.4,375,236.9
							C375,236.9,375,236.9,375,236.9z M383.5,227.7c-0.9-0.7-1.9-1.4-2.8-2c0.4-0.8,0.9-1.7,1.3-2.6c0.8,0.8,1.7,1.8,2.7,2.6
							C384.3,226.5,383.9,227.2,383.5,227.7z M385.3,224.4c-0.9-0.8-1.9-1.6-2.9-2.3c0.2-0.4,0.4-0.8,0.6-1.3
							c0.1-0.1,0.1-0.3,0.2-0.4c0.8,1,1.7,1.9,2.8,2.4C385.7,223.4,385.5,223.9,385.3,224.4z M386.8,207c0.1-0.7,0.2-1.5,0.3-2.2
							c1.1,1.2,2.3,2.4,3.6,3.4c-0.2,0.7-0.4,1.4-0.6,2.1C389.1,209.2,387.9,208.1,386.8,207L386.8,207z M391.1,207
							c-1.1-1.3-2.5-2.5-3.8-3.6c0-0.3,0.1-0.6,0.1-1c1.2,1.3,2.5,2.7,3.9,3.6C391.3,206.4,391.2,206.7,391.1,207z M388,197.7
							c-0.1-0.1-0.2-0.2-0.3-0.2c0-0.4,0-0.9,0-1.3c1.3,1.8,3,3.4,4.8,4.6l-0.4,1.7C390.8,200.9,389.3,199.4,388,197.7z
							 M393.4,197.1c-0.8-0.9-1.6-1.8-2.4-2.8c-1.2-1.3-2.3-2.7-3.5-4c-0.1-0.9-0.2-1.8-0.4-2.7c0.8,0.9,1.5,1.9,2.2,2.8
							c1.4,1.7,2.8,3.7,4.6,5h0C393.7,195.9,393.6,196.5,393.4,197.1z M372.6,171.5c-1.2-0.8-2.4-1.6-3.6-2.4
							c-1.5-1-2.9-2.2-4.4-3.3l2.8,0.2c1.8,1.9,3.7,3.8,5.6,5.6C372.9,171.6,372.7,171.6,372.6,171.5z M380.7,167.4
							c2,0.3,3.7,0.6,5.1,0.9c4.8,4.1,9.9,8.4,15.4,11.2c0,1.2-0.1,2.4-0.2,3.5C394.5,177.6,387.7,172.2,380.7,167.4L380.7,167.4z
							 M401.2,178.6c-4.1-3.5-8.7-6.6-13.2-9.8c2,0.5,3.8,0.8,5.4,1c1.1,0.9,2.3,1.8,3.4,2.7c1.3,1,2.7,2.1,4.3,2.9
							C401.1,176.5,401.1,177.6,401.2,178.6L401.2,178.6z M398.1,172c-0.9-0.6-1.8-1.3-2.7-2c0.9,0.1,1.7,0.1,2.3,0.2
							c1,0.9,2,1.9,3.1,2.7c0,0.3,0.1,0.6,0.1,0.9C399.9,173.2,399,172.6,398.1,172L398.1,172z M400.5,171.3
							c-0.4-0.3-0.8-0.6-1.2-0.9c0.4,0,0.7,0.1,0.9,0.1C400.3,170.7,400.4,170.9,400.5,171.3z M355.7,165.5c2.3,1.7,4.7,3.2,7.3,4.6
							c-1.1-0.1-2.3-0.1-3.5-0.2c-2.4-1.5-4.8-2.9-7.2-4.5C353.4,165.5,354.6,165.5,355.7,165.5z M303.3,173.4
							c0.5-0.1,1-0.2,1.6-0.3c0.8,0.6,1.6,1.3,2.4,1.9c0.5,0.4,1,0.8,1.6,1.2c-0.8,0.4-1.6,0.8-2.4,1.2c-1-0.9-2.1-1.6-3.1-2.5
							c-0.5-0.4-0.8-0.8-1.3-1.3L303.3,173.4z M282.3,176.4c4.9,4,10.1,8,15.4,11.5c-0.3,0.8-0.5,1.5-0.7,2.3
							c-5.8-5-12.3-9.4-18.5-13.9c0.7,0.1,1.1,0.1,1.2,0.1L282.3,176.4L282.3,176.4z M265.2,174.7c4,3.7,8.2,7.5,12.7,10.7
							c-0.4,0.2-0.7,0.4-1.1,0.7c-4.8-4.1-9.9-8-14.8-12l0.4,0.1C263.4,174.4,264.3,174.6,265.2,174.7L265.2,174.7z M270.3,201.9
							c-1.3-1.1-2.8-2-4.2-2.8c0.1-1,0.1-2,0-3c1.5,1.4,3,2.8,4.6,4C270.6,200.7,270.4,201.3,270.3,201.9z M269.4,205.5
							c-0.5-0.3-1.1-0.5-1.6-0.8c-0.8-0.5-1.5-1-2.2-1.5c0.2-1,0.3-2,0.4-3c1.3,1.1,2.6,2.1,4,3
							C269.8,203.9,269.6,204.6,269.4,205.5L269.4,205.5z M268.3,209.4c-1.1-1-2.3-1.9-3.5-2.9c0.2-0.7,0.4-1.3,0.5-2
							c1.1,0.9,2.4,1.7,3.7,2.3C268.8,207.6,268.6,208.5,268.3,209.4L268.3,209.4z M267.5,211.7c-0.9-1.1-2.2-1.9-3.4-2.6
							c0.1-0.4,0.3-0.9,0.4-1.4c1,1,2.2,1.9,3.5,2.4C267.9,210.7,267.7,211.2,267.5,211.7z M266.4,214.4c-1-0.9-2.2-1.7-3.3-2.6
							c0,0,0-0.1,0.1-0.1c0.2-0.4,0.3-0.9,0.5-1.3c1.1,0.9,2.2,1.9,3.5,2.4C266.9,213.3,266.7,213.8,266.4,214.4z M264.7,218
							c-1-1-2-1.9-3.1-2.8c0.4-0.8,0.7-1.5,1-2.3c1,1,2.1,2.1,3.3,2.6C265.6,216.3,265.2,217.1,264.7,218L264.7,218z M263.2,220.5
							c-0.9-1-1.9-1.9-3-2.7c0.3-0.5,0.5-1,0.8-1.5c1,0.9,2.1,1.7,3.2,2.5C264,219.4,263.6,219.9,263.2,220.5z M257.7,227.8
							c-0.8-0.8-1.7-1.5-2.6-2.2c0.3-0.4,0.6-0.8,0.9-1.1c0.9,0.7,1.9,1.5,2.9,2.1C258.5,227,258.1,227.4,257.7,227.8
							C257.7,227.8,257.7,227.8,257.7,227.8z M254,231.5c-0.7-0.8-1.5-1.5-2.4-2.2c0.3-0.3,0.6-0.6,0.9-0.8c0.8,0.8,1.6,1.5,2.5,2.1
							c0,0,0.1,0,0.1,0C254.7,230.9,254.3,231.2,254,231.5z M249.7,234.9c-0.9-0.6-1.8-1.2-2.7-1.8c0.6-0.5,1.2-0.9,1.8-1.3
							c0.6,0.8,1.3,1.6,2.1,2.2C250.5,234.3,250.1,234.6,249.7,234.9L249.7,234.9z M247.4,236.4c-0.7-0.8-1.4-1.4-2.3-2.1
							c0.3-0.2,0.6-0.4,0.9-0.6c0.8,0.7,1.6,1.4,2.5,2C248.1,235.9,247.8,236.2,247.4,236.4z M245.1,237.8c-0.8-0.7-1.8-1.3-2.7-1.9
							c0.5-0.3,1.1-0.5,1.6-0.8c0.7,0.7,1.4,1.5,2.2,2.1C245.9,237.4,245.5,237.6,245.1,237.8L245.1,237.8z M242.3,239.3
							c-0.9-0.7-1.9-1.3-2.9-1.8c0.6-0.3,1.2-0.6,1.8-0.9c0.8,0.7,1.7,1.3,2.7,1.9C243.3,238.8,242.8,239,242.3,239.3z M239.3,240.6
							c-1-0.7-2-1.3-2.9-1.9c0.5-0.2,1-0.4,1.5-0.6c1,0.6,2.1,1.3,3.2,1.8C240.5,240.1,239.9,240.3,239.3,240.6z M236.1,241.7
							c-0.8-0.8-1.9-1.4-2.9-2c0.6-0.2,1.1-0.3,1.6-0.5c0,0,0.1,0,0.1,0c1,0.8,2,1.4,3.1,1.9C237.4,241.3,236.8,241.5,236.1,241.7
							L236.1,241.7z M232.7,242.8c-0.8-0.7-1.8-1.2-2.7-1.7c-0.3-0.2-0.6-0.3-0.9-0.5c0.8-0.1,1.6-0.3,2.4-0.5
							c1,0.8,2.1,1.5,3.2,2.1C234.1,242.4,233.4,242.6,232.7,242.8L232.7,242.8z M228.3,243.8c-0.9-0.7-1.9-1.3-2.8-2
							c-0.4-0.2-0.7-0.5-1-0.7c1.2-0.1,2.3-0.2,3.4-0.4c0.6,0.4,1.1,0.8,1.7,1.1c0.7,0.4,1.3,0.9,2,1.3
							C230.5,243.4,229.4,243.6,228.3,243.8L228.3,243.8z M224.2,244.4c-1.2-0.7-2.6-1.3-3.8-2c-0.6-0.3-1.2-0.7-1.8-1
							c1.3,0,2.6-0.1,3.8-0.2c0.6,0.4,1.3,0.8,1.9,1.3c0.8,0.5,1.5,1.1,2.3,1.6C225.8,244.2,225,244.3,224.2,244.4L224.2,244.4z
							 M219.3,244.8c-2-1.2-4.1-2.3-6.2-3.5c1.2,0,2.3,0.1,3.5,0.1c1.6,1.2,3.3,2.3,5.2,3.2C221,244.7,220.1,244.8,219.3,244.8z
							 M208.1,244.2c-0.4-0.1-0.7-0.1-1.1-0.2c-3.8-1.7-7.5-3.5-11.2-5.3c2.3,0.9,4.4,1.3,5.9,1.6c0.6,0.1,1.3,0.2,2.1,0.4
							c2.1,1.5,4.4,2.8,6.8,3.9C209.8,244.4,208.9,244.3,208.1,244.2L208.1,244.2z M169.5,169.8c2.6,3.8,4.9,7.8,7.6,11.5
							c-0.3,0.7-0.5,1.4-0.8,2.1c-2.9-4.5-6-9-9.3-13.3C167.7,170,168.6,169.9,169.5,169.8L169.5,169.8z M172.6,169.2
							c1.8,3.1,3.8,6.4,6.1,9.1c-0.4,0.6-0.8,1.2-1,1.8c-1.7-3.8-4.3-7.3-6.9-10.5C171.4,169.5,172,169.3,172.6,169.2L172.6,169.2z
							 M170.6,205.1c0.9,1,1.8,1.9,2.7,2.9c1,1.1,1.9,2.3,3,3.4c0.2,0.8,0.4,1.6,0.6,2.4c-0.6-0.5-1.2-1.1-1.8-1.6
							c-1.1-1-2.2-2-3.4-3C171.3,207.9,171,206.5,170.6,205.1L170.6,205.1z M174.5,195.6c-1.9-2.3-4-4.6-5.9-6.9
							c-2.6-3.3-4.9-6.8-7.5-10.1c0-1.1,0.1-2.3,0.1-3.3c2.1,3.2,4.2,6.3,6.4,9.4c2.2,3.2,4.3,6.8,6.9,9.7
							C174.5,194.7,174.5,195.1,174.5,195.6L174.5,195.6z M174.5,197.8c0,0.5,0,1.1,0.1,1.6c-4.5-5.1-8.7-10.4-13.2-15.4
							c-0.1-0.9-0.2-1.9-0.3-3C164.7,187,169.6,193.2,174.5,197.8z M174.4,201.1c0.1,0.1,0.2,0.1,0.3,0.1c0.1,1,0.2,2,0.3,3
							c-0.6-0.7-1.3-1.4-1.9-2c-1.4-1.6-2.8-3.1-4.1-4.7c-0.3-1.2-0.6-2.3-0.9-3.2C170.1,196.7,172.2,199,174.4,201.1L174.4,201.1z
							 M172,202.7c1.1,1.3,2.1,2.8,3.4,4c0.1,0.7,0.2,1.3,0.3,2c-1.7-2.1-3.7-4-5.5-5.6c-0.2-0.9-0.4-1.7-0.5-2.5
							c-0.1-0.5-0.2-0.9-0.3-1.4C170.2,200.4,171,201.6,172,202.7z M174.2,213.1c1.1,1,2.2,2.2,3.4,3.2c0.2,0.4,0.3,0.9,0.5,1.4
							c-0.2-0.2-0.4-0.3-0.6-0.4c-1.4-1.1-2.8-2.2-4.3-3.1c-0.3-1-0.6-1.9-0.9-2.9C172.9,211.8,173.5,212.5,174.2,213.1L174.2,213.1
							z M177.1,218.6c0.6,0.5,1.3,1.1,1.9,1.7c0.1,0.2,0.2,0.4,0.2,0.6c0.2,0.5,0.4,0.9,0.6,1.4c-0.3-0.2-0.6-0.4-1-0.6
							c-1.4-1-2.8-1.9-4.2-2.8c-0.3-0.9-0.7-1.9-1-2.8C174.9,216.8,176,217.7,177.1,218.6L177.1,218.6z M175.3,220.5
							c0.8,0.6,1.6,1.2,2.4,1.8c1.1,0.8,2.2,1.8,3.4,2.6c0.4,0.8,0.9,1.6,1.3,2.3c-2.1-1.5-4.2-3-6.3-4.6
							C175.9,222,175.6,221.3,175.3,220.5L175.3,220.5z M182,219.7c-5.8-14.2-6.7-35.2,0.9-41.9c4.6-4,14-5,23.4-5
							c5.2,0,10.4,0.3,14.8,0.5l3.5,0.2c0.2,0,14.6,1.1,25.8,4.7c4.8,1.5,8.5,4.7,10.6,9.2c2.9,6.2,2.7,14.3-0.8,23
							c-5.2,13.2-13.9,21.7-26.5,25.9c-8.8,2.9-25.5,2.2-31.6,0.9C197.4,236.3,188,234.5,182,219.7L182,219.7z M179.1,167.8
							c0.7,1.3,1.4,2.6,2.3,3.9c0.5,0.7,1.1,1.6,1.8,2.3c-0.6,0.4-1.2,0.8-1.7,1.2c-0.8-1.3-1.7-2.6-2.5-3.9c-0.6-1-1.1-2.1-1.7-3.1
							C177.9,168,178.5,168,179.1,167.8L179.1,167.8z M182.7,167.3c0.9,1.9,1.9,3.8,3.2,5.4c-0.5,0.2-1,0.4-1.4,0.6
							c-0.7-1-1.6-1.9-2.3-2.7c-0.7-1-1.3-2-1.9-2.9C181.1,167.5,181.8,167.4,182.7,167.3L182.7,167.3z M186.1,166.8
							c0.9,1.7,1.8,3.4,3.1,4.8c-0.7,0.2-1.3,0.4-1.9,0.6c-0.5-0.8-1-1.5-1.5-2.3c-0.6-0.9-1.1-1.9-1.7-2.8
							C184.7,167,185.4,166.9,186.1,166.8L186.1,166.8z M189.4,166.5c0.9,1.5,1.8,3.1,2.9,4.4c-0.8,0.1-1.5,0.3-2.2,0.5
							c-0.6-1.7-1.7-3.2-2.7-4.7C188.1,166.6,188.8,166.5,189.4,166.5L189.4,166.5z M192.7,166.2c0.8,1.4,1.5,3,2.5,4.3
							c-0.6,0.1-1.2,0.2-1.8,0.2c-0.6-1.6-1.6-3-2.5-4.4C191.5,166.3,192.1,166.2,192.7,166.2L192.7,166.2z M195.8,165.9
							c0.8,1.4,1.6,2.9,2.6,4.2c-0.6,0-1.1,0.1-1.7,0.2c-0.7-1.5-1.7-2.9-2.6-4.3C194.7,166,195.2,166,195.8,165.9L195.8,165.9z
							 M208.8,165.5c1.2,1.7,2.7,3.4,4.4,4.6L210,170c-0.6-0.8-1.3-1.4-1.8-2.2c-0.5-0.7-0.9-1.5-1.2-2.3
							C207.5,165.5,208.2,165.5,208.8,165.5L208.8,165.5z M213,165.5c1.4,1.8,3.2,3.6,5.2,4.7c-1-0.1-2.1-0.1-3.2-0.2
							c-1-1.1-2.2-2-3.3-3c-0.6-0.5-1.1-1.1-1.6-1.7C211.2,165.5,212.1,165.5,213,165.5z M217.2,165.8c1.4,1.8,3.2,3.7,5.2,4.8
							l-1-0.1l-1.4-0.1v0c-1.1-1.2-2.4-2.1-3.6-3.2c-0.5-0.5-1-1.1-1.5-1.6C215.6,165.6,216.4,165.7,217.2,165.8L217.2,165.8z
							 M222.1,166.3c1,1,2.1,1.9,3.2,2.8c0.6,0.5,1.2,1.1,1.8,1.7c-1.2-0.1-2-0.2-2.2-0.2l-0.7,0c0-0.1,0-0.2-0.1-0.3
							c-1.1-1.1-2.6-1.9-3.8-3c-0.5-0.4-0.9-1-1.4-1.4c0.6,0.1,1.3,0.1,1.9,0.2C221.2,166.2,221.7,166.2,222.1,166.3L222.1,166.3z
							 M227,167.1c1.4,1.6,2.9,3.1,4.6,4.3c-1.2-0.2-2.2-0.3-3.2-0.4c-0.9-0.8-1.8-1.6-2.7-2.3c-0.8-0.7-1.7-1.4-2.5-2.2
							C224.5,166.7,225.8,166.9,227,167.1L227,167.1z M232.7,168.1c0.8,0.9,1.7,1.8,2.6,2.6l1.5,1.4c-0.8-0.1-1.6-0.2-2.3-0.4
							c-1.3-1.1-2.8-2-4.1-3.1c-0.5-0.4-0.9-0.8-1.4-1.3C230.2,167.6,231.5,167.9,232.7,168.1L232.7,168.1z M238,169.1
							c1,1,1.9,2,2.9,2.9c0.4,0.3,0.7,0.7,1.1,1.1c-0.9-0.2-1.8-0.4-2.6-0.5c-1.1-1-2.4-2-3.5-2.9c-0.4-0.4-0.8-0.8-1.2-1.2
							C235.8,168.6,236.9,168.9,238,169.1z M247.2,171c1.8,1.7,3.7,3.4,5.6,5c-0.5-0.2-1-0.4-1.4-0.5c-0.6-0.2-1.3-0.4-1.9-0.6
							c-0.9-0.7-1.9-1.3-2.8-2c-1.1-0.9-2.2-1.8-3.2-2.7C244.8,170.4,246.1,170.7,247.2,171L247.2,171z M265.2,189.7
							c2,2.1,4.3,4,6.6,5.6l-0.2,0.8c-0.6-0.5-1.3-1.1-1.9-1.6c-1.3-1-2.6-2-4-2.9C265.5,191,265.3,190.4,265.2,189.7z M268.4,190.6
							c-1.5-1.3-2.9-2.8-4.5-4.1c0-0.1-0.1-0.2-0.1-0.2c-0.3-0.6-0.6-1.2-1-1.7c3.2,2.6,6.5,5.3,9.7,7.9c-0.2,0.5-0.3,0.9-0.5,1.4
							C270.9,192.7,269.7,191.7,268.4,190.6L268.4,190.6z M242.9,170.2c1.1,1.3,2.3,2.7,3.6,3.8l0.1,0.1c-0.7-0.2-1.3-0.3-2-0.5
							c-0.9-0.9-1.9-1.7-2.8-2.5c-0.6-0.6-1.3-1.1-2-1.7c1,0.2,2,0.4,3,0.6C242.8,170.1,242.8,170.1,242.9,170.2L242.9,170.2z
							 M208.2,169.9h-1.5c-0.5-1-1.3-1.8-1.9-2.8c-0.3-0.5-0.6-1.1-0.9-1.6c0.6,0,1.2,0,1.7-0.1C206.2,167,207.1,168.7,208.2,169.9
							L208.2,169.9z M205.3,169.9c-0.8,0-1.5,0-2.2,0c-0.5-1-1.3-1.8-1.9-2.7c-0.4-0.5-0.7-1-1-1.5c0.9,0,1.7-0.1,2.6-0.1
							C203.4,167.1,204.2,168.7,205.3,169.9L205.3,169.9z M202,170c-0.8,0-1.7,0.1-2.5,0.1c-0.7-1.5-1.6-2.9-2.6-4.2
							c0.8-0.1,1.5-0.1,2.2-0.2C199.9,167.3,200.8,168.8,202,170L202,170z M252,233.2c-0.8-0.7-1.7-1.3-2.5-2l1.2-1
							c0.7,0.8,1.5,1.6,2.3,2.2L252,233.2z M259.8,225.5c-0.9-0.8-2.1-1.4-3.1-1.9c0.5-0.7,1-1.4,1.5-2.1c0.6,0.5,1.2,1.1,1.8,1.6
							c0.3,0.3,0.7,0.6,1,0.9C260.6,224.5,260.1,225,259.8,225.5L259.8,225.5z M261.7,222.9c-0.4-0.3-0.7-0.6-1.1-0.9
							c-0.6-0.5-1.2-1-1.9-1.6c0.3-0.5,0.6-1,0.8-1.5c1,0.9,2,1.9,3,2.6C262.3,222,262,222.4,261.7,222.9L261.7,222.9z M271.2,198
							c0,0.2-0.1,0.4-0.1,0.6c-1.6-1.3-3.4-2.5-5-3.8c0-0.5-0.2-1-0.2-1.6c1,0.8,2,1.7,3,2.5c0.8,0.6,1.5,1.3,2.3,2L271.2,198z
							 M273.1,191c-7.7-6.7-15.5-13.4-23.6-19.6c1.5,0.3,2.9,0.6,4.3,0.9c6.5,5.9,13.4,11.4,20.1,17
							C273.7,189.9,273.4,190.4,273.1,191L273.1,191z M175.2,168.6c0.3-0.1,0.6-0.2,1-0.2c0.5,1.2,1.2,2.4,1.8,3.5
							c0.8,1.4,1.6,2.8,2.7,4c-0.4,0.4-0.8,0.8-1.2,1.3c-1.5-2.9-3.5-5.7-5.4-8.3C174.4,168.8,174.8,168.7,175.2,168.6z
							 M164.5,170.2c0.5,0,1.1-0.1,1.8-0.1c3,5,6.3,9.8,9.7,14.5c-0.2,0.6-0.4,1.3-0.5,1.9c-3.7-5.5-7.6-11.1-11.8-16.3
							C163.9,170.2,164.2,170.2,164.5,170.2z M162.6,170.4c3.8,6.2,8.1,12.3,12.4,18.2c-0.2,1.2-0.3,2.4-0.4,3.6
							c-1.8-3.1-4.2-6.1-6.2-9c-2.3-3.3-4.6-6.7-7-9.9c0.2-1.2,0.4-2.2,0.6-2.8C162.1,170.4,162.3,170.4,162.6,170.4L162.6,170.4z
							 M177.1,224.8c1.5,1.2,3,2.3,4.6,3.4c1,0.7,1.9,1.4,2.9,2.1c1.7,2.1,3.5,3.8,5.3,5.1c-3.4-1.9-6.8-4-10.1-6.2l-0.4-0.5
							C178.7,227.9,177.9,226.5,177.1,224.8L177.1,224.8z M182.1,232c5.2,4.1,10.9,7.5,17,10.3C189.5,239.6,185.1,235.6,182.1,232z
							 M214,244.7c-2.3-1.3-4.7-2.6-7-3.8c1.2,0.1,2.4,0.2,3.8,0.3c2.1,1.4,4.3,2.7,6.7,3.6C216.3,244.8,215.1,244.8,214,244.7
							L214,244.7z M255.5,230.1C255.5,230.1,255.5,230,255.5,230.1c-0.7-1-1.4-1.7-2.2-2.5c0.3-0.4,0.7-0.7,1-1.1
							c0.8,0.9,1.7,1.6,2.8,2c-0.1,0.1-0.2,0.2-0.2,0.2C256.4,229.2,256,229.7,255.5,230.1z M274.7,188.3
							c-6.2-5.2-12.3-10.5-18.7-15.4c1,0.2,2,0.4,2.9,0.6l0.9,0.2c5,4.7,10.2,9.5,15.9,13.3C275.4,187.4,275.1,187.8,274.7,188.3
							L274.7,188.3z M313.1,235.3c5.9,3,12.2,5.8,18.6,8C324.9,241.8,318.6,239.1,313.1,235.3z M339.2,244.5
							c-9.6-4.4-19.8-8.5-29.7-12c-2-1.7-3.9-3.5-5.6-5.5c4.7,3.1,9.8,6.2,14.9,8.3c2.6,1.5,5.5,2.8,8.6,3.8
							c2.5,0.8,5.6,1.4,8.8,1.7c2.6,1.6,5.4,3,8.3,3.9C342.7,244.8,341,244.7,339.2,244.5L339.2,244.5z M354.2,244.2
							c-0.6,0.1-1.1,0.1-1.7,0.2c-2.2-1.2-4.7-2.1-7.1-3h0.2c1.1,0,2.2,0,3.2-0.1c0,0,0.1,0.1,0.1,0.1c1.8,0.7,3.5,1.4,5.3,2.1
							c0.4,0.2,0.7,0.3,1.1,0.5C354.9,244.1,354.6,244.1,354.2,244.2L354.2,244.2z M394.2,194.3c-1-1.7-2.5-3.1-3.8-4.6
							c-1.3-1.5-2.6-2.9-4-4.4c-0.3-1-0.6-2-0.9-3c3.4,2.8,6.8,5.5,10.2,8.2C395.2,191.6,394.7,192.8,394.2,194.3L394.2,194.3z"/>
					</g>
				</g>
				<g>
					<path d="M270.8,17.6c0.3-0.1,0.7-0.1,1.1-0.2L270.8,17.6z"/>
					<path d="M374.5,44.4c-0.3-0.9-7.5-21-47.4-27.6c-3.7-0.6-7.5-1.2-11.2-1.5l-62.7,6c-8.4,2.1-15,4.5-18.1,6
						c-10.6,5.4-20.3,18.3-20.9,18.9l-2.2,2.7l3.1,1.5c0.3,0,18.1,9.3,32.1,21.9c11.5,10.5,30.6,15.6,45.6,15.6
						c4.1,0,7.5-0.3,10.9-0.9c15-3,38.1-18.6,45.6-28.5c6.6-8.4,21.8-10.2,21.8-10.2l3.7-0.3L374.5,44.4z"/>
					<path d="M263.3,19l0.7-0.1C263.8,18.9,263.6,18.9,263.3,19z"/>
				</g>
				
					<g id="svga-group-hair-front" transform="matrix(1.0400003000000002,0,0,1.0002003000000002,-3.9120294620712457,-0.005147708147099195)">
					<path id="SvgjsPath9008_1_" d="M255.6,22.2c-11.7,2.4-20.4,5.7-24.3,7.8c-9.6,5.1-18.9,18-18.9,18s17.7,9.3,31.5,22.2
						S282.3,87,295.8,84s34.8-17.7,42-27.3s23.1-11.4,23.1-11.4s-6.3-19.2-43.2-25.5l0,0c-6.3-1.2-12.9-1.5-19.2-1.8"/>
					<path id="SvgjsPath9009" class="st3" d="M247.2,64.3c-8.1,2.1-14.4,4.5-17.4,6c-10.2,5.4-19.5,18.3-20.1,18.9l-2.1,2.7l3,1.5
						c0.3,0,17.4,9.3,30.9,21.9c11.1,10.5,29.4,15.6,43.8,15.6c3.9,0,7.2-0.3,10.5-0.9c14.4-3,36.6-18.6,43.8-28.5
						c6.3-8.4,21-10.2,21-10.2l3.6-0.3l-0.3-3.6c-0.3-0.9-7.2-21-45.6-27.6c-3.6-0.6-7.2-1.2-10.8-1.5 M335.4,97.9
						c-3.6,4.8-11.4,11.4-19.8,16.5c11.1-12,17.7-27.3,19.2-44.1c3.6,1.5,6.9,3,9.3,4.5c-0.9,7.2-3,13.8-6.6,20.1
						C336.9,96.1,336.3,97,335.4,97.9L335.4,97.9z M331.5,69.1c-1.5,21.6-12.3,40.5-29.7,52.8c-0.6,0.3-0.9,0.3-1.5,0.6
						c8.4-18.6,9.6-38.7,3.3-58.5c4.5,0.3,9.3,0.9,13.8,1.5C322.5,66.7,327.3,67.9,331.5,69.1L331.5,69.1z M276.9,124.3
						c-20.7-9.9-35.4-27.9-40.5-50.4c3-1.2,7.2-2.7,12-3.9c3.9,23.1,17.1,42.6,36.6,54.9C282.6,124.9,279.9,124.6,276.9,124.3z
						 M280.2,58l-0.3,0.3c-3.3,0.3-6.3,0.6-9.3,0.9 M299.4,64c6.6,19.8,5.4,39.9-3.3,58.5c5.1-19.8,2.7-40.2-6.9-58.2h0.9
						c3,0,5.7,0.3,7.8,0h0.6C298.8,64,299.1,64,299.4,64z M278.4,65.2l0.6-0.3c0.3,0,0.6-0.3,1.2-0.3c1.5,0,3.3-0.3,4.8-0.3
						c9.9,17.7,12.3,37.5,7.5,57c-14.7-15-24-33.3-27.6-54C270.6,66.4,278.1,65.2,278.4,65.2z M258,68.5c1.2,0,2.1,0,3-0.3h0.3
						c3.6,21,12.9,39.6,27.3,54.9c-19.5-11.7-32.7-30.9-36.6-53.7c1.2-0.3,2.4-0.6,3.9-0.9C256.5,68.2,257.1,68.5,258,68.5z
						 M298.2,57.7h-2.1 M290.7,58c-1.5,0-3.3,0-4.8,0.3 M265.2,60.4c-1.2,0.3-2.1,0.3-3,0.6 M257.7,61.9c-0.6,0-1.2,0.3-2.1,0.3
						 M217.2,89.8c3-3.9,9.6-11.1,15.9-14.4c4.5,18.9,15.6,35.1,31.5,45.9c-6.6-2.4-13.2-5.7-18.3-10.5
						C235.5,100.9,222.9,93.1,217.2,89.8L217.2,89.8z M344.1,90.7c1.8-4.2,3-8.7,3.6-13.2c4.5,3.3,7.2,6.3,8.7,8.7
						C353.1,86.8,348.6,88.3,344.1,90.7z"/>
				</g>
				<path class="st0" d="M370.6,43.6c-2.9,0.3-5.9,0.7-8.8,0.8c0,0,0,0,0,0c-2.5,0.8-5.2,1.9-7.9,3.2c1.9-4.2,3.1-8.7,3.7-13.2
					c0.1,0.1,0.1,0.1,0.2,0.2c0-0.1,0-0.2,0-0.3c0-0.2,0-0.5,0.1-0.7c0.1-0.9,0.1-1.8,0.1-2.7c-1-0.6-2-1.3-3.2-1.9
					c0,1.9-0.4,3.8-1.4,5.4c-1.1,6.2-3.2,11.9-6.4,17.4c-0.6,1.2-1.2,2.1-2.2,3h0c-3.7,4.8-11.9,11.4-20.6,16.5
					c11.5-12,18.4-27.3,20-44.1c0,0,0.1,0,0.1,0.1v-3c-1.1-0.4-2.3-0.8-3.5-1.2c0,1,0.1,2-0.2,2.9c0,0,0.1,0,0.1,0h0
					c-1.6,21.6-12.8,40.5-30.9,52.8c-0.6,0.3-0.9,0.3-1.6,0.6c8.7-18.6,10-38.7,3.4-58.5c0.1,0,0.2,0,0.3,0c0,0,0-0.1,0-0.1
					c0-0.1-0.1-0.2-0.1-0.3c0,0,0-0.1-0.1-0.1c-0.2-0.3-0.3-0.7-0.5-1c-0.3-0.4-0.5-0.9-0.7-1.3c-1.4-0.1-2.8-0.1-4.2-0.2l-0.2,0
					c0,0,0,0.1,0,0.1c0,0,0,0.1,0,0.1c0,0.1,0,0.2,0.1,0.3c0,0.2,0.1,0.4,0.2,0.6c0,0.1,0.1,0.2,0.1,0.3c0,0,0,0,0,0
					c0,0,0,0.1,0.1,0.1c0.3,0.8,0.8,1.5,1.1,2.2c0.1,0.2,0.1,0.5,0.1,0.7c6.3,19.3,4.9,38.9-3.9,57.1c5.3-19.8,2.8-40.2-7.2-58.2
					h0.4c-0.4-0.4-0.7-0.9-1-1.4c-0.3-0.3-0.6-0.5-0.9-0.8c0,0,0-0.1-0.1-0.1l-4.1,0.4c0,0,0,0.1,0,0.1c0.7,0.6,1.2,1.3,1.5,2.2
					c10.1,17.6,12.5,37.2,7.6,56.6c-14.8-14.5-24.3-32.2-28.3-52.1c-0.1-0.1-0.3-0.3-0.4-0.5c-0.6-1.4-0.4-2.9-0.3-4.4l-3.4,0.3
					c0,0.7,0,1.3,0,2c0,0.4,0,0.9,0.1,1.3c0,0.1,0,0.1,0,0.1c0,0,0,0,0,0.1c0,0.1,0,0.2,0.1,0.4c0,0.2,0.1,0.5,0.2,0.7
					c0.1,0.2,0,0.5-0.1,0.7c4,20.3,13.5,38.4,28.1,53.2c-20.3-11.7-34-30.9-38.1-53.7c0.1,0,0.2,0,0.2-0.1c-0.3-1.1-0.4-2.2-0.5-3.3
					c-0.9,0.2-1.7,0.4-2.6,0.6c-0.2,2.2-0.4,4.5-0.2,6.7c4.7,21.6,18.1,39.9,37.3,51.6c-2.5,0-5.3-0.3-8.4-0.6
					C262.9,71.6,247.8,54,242.2,32c-0.8-1.2-1.5-2.4-1.8-3.8c-0.7,0.3-1.3,0.5-1.9,0.8c-0.1,1.1-0.1,2.2-0.1,3.3c0,0,0,0,0,0
					c4.7,18.9,16.2,35.1,32.8,45.9c-6.9-2.4-13.7-5.7-19-10.5c-9.3-8.2-19.9-14.9-26.6-18.9c-0.2,0.1-0.4,0.1-0.7,0.1
					c-1.1-0.3-2-0.8-3-1.3c-1.3-0.4-2.6-0.7-4-1c-0.7,0.8-1,1.3-1,1.3s18.4,9.3,32.8,22.2s39.9,16.8,54,13.8
					c14-3,36.2-17.7,43.7-27.3c7.5-9.6,24-11.4,24-11.4S371.2,44.7,370.6,43.6z"/>
			</g>
		</g>
	</g>
	<rect id="svga-credit-rect" y="555" class="st4" width="600" height="45"/>
</g>
</svg>
