<svg xmlns="http://www.w3.org/2000/svg" version="1.1" width="600px" height="600px" viewBox="0 0 200 200" style="overflow:hidden!important;"><g id="svga-group-wrapper"><g id="svga-group-backs-single"><path id="SvgjsPath3817" d="M0 0h200v200H0V0z" fill="#ffffff" stroke-width="none" opacity="1" stroke="none"></path></g><g id="svga-group-humanwrap-move" transform="matrix(1,0,0,1,0,0)"><g id="svga-group-humanwrap"><g id="svga-group-hair-back-move" transform="matrix(1,0,0,1,0,0)"><g id="svga-group-hair-back" transform="matrix(1.0200001,0,0,1.0001001,0,0)"></g></g><g id="svga-group-humanbody-back"><path id="SvgjsPath3770" d="M77.6 118.3c0 19.3 3.4 44.1-10 51.9-13.4 7.9-31.9 11.3-37.8 22s-4.4 25.3-4.4 25.3h149.3s.7-18.9-5.1-26.4c-8.1-10.4-27.8-15.5-37.7-20.9s-13.4-25.1-13.4-52.4l-40.9.5z" fill="#ffffff" stroke-width="none" opacity="1"></path></g><g id="svga-group-chinshadow-single"></g><g id="svga-group-humanbody-front"><path id="SvgjsPath3771" d="M175.8 218.7H24.4l-.1-1c-.1-.6-1.5-15.1 4.5-26 4.1-7.4 13.5-11.3 23.5-15.5 5-2.1 10.2-4.3 14.8-6.9 10.6-6.2 10.1-23.9 9.6-41-.1-3.5-.2-6.8-.2-10v-1.1l43.2-.4v1.1c0 29.9 4.2 46.7 12.8 51.4 2.9 1.6 6.7 3.2 10.8 4.9 10 4.1 21.3 8.8 27.2 16.3 6.1 7.7 5.4 26.4 5.4 27.1l-.1 1.1zm-149.3-2.2h147.1c0-4.1-.2-18.5-4.9-24.6-5.5-7-16.6-11.6-26.3-15.6-4.1-1.7-8-3.3-11-5-5.1-2.8-8.7-8.9-10.9-18.7-2-8.4-2.9-19.4-3-33.5l-38.6.4c0 2.8.1 5.7.2 8.8.5 17.8 1 36.1-10.7 43-4.7 2.7-9.9 4.9-15 7.1-9.6 4-18.7 7.8-22.4 14.5-5 8.6-4.7 20.1-4.5 23.6z" fill="#000000" stroke-width="none" opacity="1"></path><path id="SvgjsPath3772" d="M93.9 153.8c-.5 1.8-.4 3.4.5 5.2.8 1.6 2.1 2.7 3.9 2.9.4 0 .7-.5.5-.8-1.6-2.2-3.5-4.2-3.7-7.1 0-.7-1-.9-1.2-.2z" fill="#000000" stroke-width="none" opacity="1"></path><path id="SvgjsPath3773" d="M112.5 187.5c8.8.5 18.1-.7 26.6-2.9.7-.2.6-1.4-.2-1.3-8.8 1.1-17.7 2-26.5 3.3-.5.1-.3.9.1.9z" fill="#000000" stroke-width="none" opacity="1"></path><path id="SvgjsPath3774" d="M63.1 182.5c3.8.9 7.6 1.9 11.5 2.8 3.6.8 7.4 2 11.1 2.1.7 0 .8-.9.2-1.2-3.5-1.4-7.5-1.7-11.2-2.5-3.8-.7-7.5-1.3-11.3-2-.5 0-.7.7-.3.8z" fill="#000000" stroke-width="none" opacity="1"></path></g><g id="svga-group-clothes-single"><path id="SvgjsPath8253" d="M51.4 218s1-21.2-3-40.2l14.1-6.3s3.3 21.9 15.1 30.3 43.4 7.6 50.9-1.3c7.4-8.9 11.1-27.9 11.1-27.9l15.4 6.3s-2.1 12-2.8 22.9-.2 16.2-.2 16.2H51.4z" fill="#ffffff" stroke-width="none" opacity="1"></path><path id="SvgjsPath8254" d="m155.4 177.9-15.4-6.3c-.3-.1-.6-.1-.9.1-.3.1-.4.4-.5.7 0 .2-3.7 18.8-10.9 27.4-7.2 8.6-38.2 9.3-49.5 1.1-11.3-8.1-14.6-29.4-14.7-29.7 0-.3-.2-.6-.5-.7-.3-.1-.6-.2-.9 0L48 176.8c-.4.2-.7.7-.6 1.1 3.9 18.6 3 39.8 3 40 0 .3.1.5.3.7.2.2.5.3.7.3h6.2c.1.1.2.1.3 0H152c.3 0 .6-.1.7-.3s.3-.5.3-.8c0-.1-.5-5.4.2-16.1.6-10.7 2.8-22.6 2.8-22.8.1-.3-.2-.8-.6-1zm-102.6-1c-1 1.3-2 2.7-2.7 4.1-.2-.9-.3-1.8-.5-2.7l3.2-1.4zm98.4 24.8c-.5 8.2-.4 13.2-.2 15.3H67c.9-1 1.9-2 2.8-3.1.1-.2-.1-.4-.2-.2-1.1 1.1-2.1 2.2-3.2 3.3h-6.5c1-1.1 2-2.3 3-3.5.1-.1-.1-.3-.2-.2-1.2 1.1-2.3 2.4-3.3 3.7h-5.5c2.2-2.6 4.5-5.2 6.5-7.9.1-.2-.2-.4-.3-.2-2.4 2.6-4.7 5.4-6.9 8.1h-.6c.1-2.1.2-7.3-.1-13.9 3-3.9 6.1-7.7 8.9-11.7.1-.1-.1-.3-.2-.2-3 3.6-5.9 7.5-8.7 11.3-.1-1.6-.2-3.3-.3-5.1 3.6-4.7 7.1-9.6 10-14.8.1-.1-.1-.2-.2-.1-3.2 4.8-6.4 9.6-9.8 14.3-.1-1.3-.2-2.7-.3-4 2.6-4.3 5.4-8.4 8.5-12.4.1-.2-.1-.4-.3-.2-3.2 3.6-5.9 7.7-8.2 11.9l-.6-5.1c.1 0 .2.1.2 0 .2-.2.4-.5.6-.7.1-.1 0-.3-.2-.2 1.3-.9 2.5-3.7 3.5-5.2 1.4-2 2.8-3.9 4.2-5.8.2-.2-.2-.4-.3-.2-2.9 3.8-5.7 7.6-8.2 11.7-.2-1.4-.4-2.9-.7-4.4 1.2-2 2.3-3.9 3.7-5.8l7.8-3.5c.9 4.9 4.8 22.2 15.2 29.7 12.2 8.8 44.4 7.9 52.2-1.5 6.5-7.8 10.1-22.8 11.1-27.1l13.6 5.6c-.6 2.8-2.3 12.9-2.8 22.1zM58 202.8c-1.9 2-3.6 4.2-5.4 6.4-.2.2.1.5.3.3 1.8-2.1 3.7-4.2 5.3-6.5.1-.2-.1-.3-.2-.2z" fill="#000000" stroke-width="none" opacity="1"></path></g><g id="svga-group-head" transform="matrix(1,0,0,1,0,0)"><g id="svga-group-ears-left-move" transform="matrix(1,0,0,1,-1.5,0)"><g id="svga-group-ears-left"><path id="SvgjsPath3678" d="M60.8 80.5c-.2-.3-3.3-4.3-5.9-6.7s-3.4-2.4-4.6-.9c-1.3 1.5-2.9 9.1-2.5 12.4.4 3.4 3.6 8.7 5.2 11.7 1.7 3 3.3 6.7 5.1 6.3 1.9-.4 4.4-4.6 5.7-7.7 1.2-3.1.6-10.9-3-15.1z" fill="#ffffff" stroke-width="none" opacity="1"></path><path id="SvgjsPath3679" d="M52.9 98.9c-.3-.5-.5-1-.8-1.4l-.6-1c-1.8-3.1-4.4-7.8-4.8-11-.4-3.5 1.2-11.4 2.7-13.2.6-.7 1.2-1.3 2.2-1.4 1.2-.1 2.3.7 3.9 2.2 1.6 1.4 3.5 3.6 5.8 6.5l.2.3c3.9 4.6 4.5 12.8 3.2 16.1-1.1 3-3.9 7.8-6.4 8.3h-.5c-2 .1-3.4-2.6-4.9-5.4zm7.2-17.8s-.1-.1-.2-.3c-2.2-2.8-4.1-5-5.6-6.3-1.2-1.1-2.1-1.7-2.4-1.7-.2 0-.4.2-.8.7-1 1.2-2.6 8.4-2.3 11.7.3 2.8 2.8 7.3 4.5 10.3l.6 1c.3.5.5 1 .8 1.4.9 1.7 2.5 4.6 3.3 4.4 1.2-.2 3.6-3.7 4.9-7.1 1.1-2.8.4-10.2-2.8-14.1z" fill="#000000" stroke-width="none" opacity="1"></path><path id="SvgjsPath3680" d="M50 87c-.3-2.3-.5-7.8.8-9.6 2.2-2.9 6 6.4 6.9 9.3 0 .1.1.2.1.3.2.3-.1.7-.4.6-.4-.2-.9-.6-1.3-.8-1.1-.5-1.6.5-1.3 1.8.4 1.8 1.4 2.9 2.2 4.3.1.2 0 .4-.2.3-1.6-.9-3.5-4.5-3.1-6.6.3-2 1.9-1.8 3.1-.8-.7-1.7-1.5-3.3-2.5-4.8-.6-.9-1.2-2-2.2-2.2-1.2-.2-1 .3-1.2 1.8-.8 4.8-.3 10.4 2.5 14.5.1.1 0 .2-.1.1-1.7-2.3-2.9-4.9-3.3-8.2z" fill="#000000" stroke-width="none" opacity="1"></path></g></g><g id="svga-group-ears-right-move" transform="matrix(1,0,0,1,1.5,0)"><g id="svga-group-ears-right"><path id="SvgjsPath3681" d="M139.2 80.5c.2-.3 3.3-4.3 5.9-6.7 2.6-2.4 3.4-2.4 4.6-.9s2.9 9.1 2.5 12.4c-.4 3.4-3.6 8.7-5.2 11.7-1.7 3-3.3 6.7-5.1 6.3s-4.4-4.6-5.7-7.7c-1.2-3.1-.6-10.9 3-15.1z" fill="#ffffff" stroke-width="none" opacity="1"></path><path id="SvgjsPath3682" d="M142.1 104.4h-.5c-2.5-.5-5.2-5.4-6.4-8.3-1.3-3.4-.7-11.5 3.2-16.1l.2-.3c2.3-2.9 4.2-5.1 5.8-6.5 1.6-1.4 2.7-2.2 3.9-2.2 1 .1 1.6.7 2.2 1.4 1.5 1.8 3.1 9.7 2.7 13.2-.4 3.2-3 7.9-4.8 11l-.6 1c-.3.5-.5.9-.8 1.4-1.4 2.7-2.8 5.4-4.9 5.4zm-2.2-23.3c-3.2 3.9-3.9 11.2-2.8 14.1 1.3 3.4 3.7 6.9 4.9 7.1.8.2 2.4-2.7 3.3-4.4.3-.5.5-1 .8-1.4l.6-1c1.7-3 4.2-7.5 4.5-10.3.4-3.3-1.3-10.5-2.3-11.7-.4-.4-.6-.7-.8-.7-.3 0-1.2.5-2.4 1.7-1.5 1.4-3.3 3.5-5.6 6.3 0 .2-.1.3-.2.3z" fill="#000000" stroke-width="none" opacity="1"></path><path id="SvgjsPath3683" d="M150 87c.3-2.3.5-7.8-.8-9.6-2.2-2.9-6 6.4-6.9 9.3 0 .1-.1.2-.1.3-.2.3.1.7.4.6.4-.2.9-.6 1.3-.8 1.1-.5 1.6.5 1.3 1.8-.4 1.8-1.4 2.9-2.2 4.3-.1.2 0 .4.2.3 1.6-.9 3.5-4.5 3.1-6.6-.3-2-1.9-1.8-3.1-.8.7-1.7 1.5-3.3 2.5-4.8.6-.9 1.2-2 2.2-2.2 1.2-.2 1 .3 1.2 1.8.8 4.8.3 10.4-2.5 14.5-.1.1 0 .2.1.1 1.7-2.3 2.9-4.9 3.3-8.2z" fill="#000000" stroke-width="none" opacity="1"></path></g></g><g id="svga-group-faceshape-wrap" transform="matrix(1.0200001,0,0,1.0001001,-1.9980097916347574,-0.008403394312665569)"><g id="svga-group-faceshape-single"><path id="SvgjsPath8013" d="M142.4 53.6c-2.3-11.4-15.1-28.8-42.4-28.8S63.6 38.2 59.6 48.1c-2.5 6.2-3.2 15.2-3.4 19.7 0 0 3.9 43.7 6.1 48.9 3.5 8.3 28.4 28.1 35.5 28.3 8.8.2 33.7-20.6 37.4-27.9 3.6-7.3 8.7-49.3 8.7-49.3-.1-3.2-.4-8.9-1.5-14.2z" fill="#ffffff" stroke-width="none" opacity="1"></path><path id="SvgjsPath8014" d="M97.9 146.2h-.1c-7.5-.2-32.7-20.2-36.5-29-2.3-5.3-6.1-47.5-6.2-49.3v-.2c.2-4.8.9-13.8 3.4-20.1 6.6-16.2 20.1-24 41.5-24 12.3 0 23.2 3.6 31.3 10.4 6.3 5.2 10.9 12.5 12.2 19.3 1.1 5.5 1.3 11.4 1.4 14.4v.2c-.2 1.7-5.1 42.3-8.8 49.7-1.8 3.7-8.8 10.7-17 17.1-4.4 3.5-15.2 11.5-21.2 11.5zM57.3 67.8c1.1 12.2 4.3 44.4 6.1 48.5 3.3 7.9 27.8 27.5 34.4 27.6h.1c3.6 0 11.2-4.2 19.8-10.9 7.8-6.1 14.7-13 16.4-16.4 3.4-6.9 8.3-46.8 8.5-48.8 0-3-.3-8.7-1.4-14-1.3-6.4-5.6-13.1-11.5-18-7.7-6.5-18-9.9-29.9-9.9-20.3 0-33.2 7.4-39.4 22.6-2.2 6-2.9 14.7-3.1 19.3z" fill="#000000" stroke-width="none" opacity="1"></path></g></g><g id="svga-group-mouth-single-move" transform="matrix(1,0,0,1,0,0)"><g id="svga-group-mouth-single" transform="matrix(1.0500001,0,0,1.0500001,-4.949200419621292,-6.054165359954467)"><path id="SvgjsPath7313" d="M112.42 122.55c-.04-.01-.07-.03-.12-.02-2.46.58-3.17-3.32-4.09-4.73-.67-1.01-1.54-1.9-2.7-2.33-.79-.29-1.63-.35-2.45-.11-.54.16-.96.51-1.46.74-1.41.66-2.15.56-3.41-.1-5.77-3.01-7.22 5.68-11.64 7.19-.22.07-.66-.03-.94-.14-.38-.1-.35.36-.05.55.25.15.75.34.98.39 1.55.34 3.11.26 4.56-.19 1.08 4.03 6.58 3.09 9.69 2.99 2.66-.09 8.54.43 8.52-3.59 1.13.33 2.2.55 3.22-.2.21-.16.08-.47-.11-.45zm-12.31 3.79c-2.81.1-7.62.89-8.56-2.71a8.95 8.95 0 0 0 3.7-2.55v-.01c2.99 1.36 6.65 2.37 9.34.26 1.38.67 2.8 1.25 4.27 1.71.14 3.91-6.22 3.21-8.75 3.3zm9.14-3.54c-.06-.02-.11-.02-.21-.05-1.51-.43-3.06-1.24-4.07-1.74.16-.15.33-.31.48-.49.19-.23-.13-.55-.33-.33-2.77 3.21-7.03 1.76-10.25.2-.27-.13-.5.27-.23.4.05.03.11.05.16.08-2.02 2.27-4.97 3.26-7.9 2.7 2.1-.74 3.27-2.71 4.55-4.51 1.09-1.55 2.59-3.36 4.72-3.28 1.41.06 2.28 1.32 3.64 1.4 1.3.08 2.2-1.01 3.37-1.37 2.37-.72 4.24 1.37 5.2 3.24.72 1.41 1.29 3.54 2.86 3.94-.6.08-1.28 0-1.99-.19z" fill="#000000" stroke-width="none" opacity="1"></path></g></g><g id="svga-group-eyes-left-move" transform="matrix(1,0,0,1,1,-1)"><g id="svga-group-eyes-left" transform="matrix(0.9499997000000001,0,0,0.9499997000000001,3.9500236999999885,4.345026146294387)"><g id="svga-group-eyesback-left"></g><g id="svga-group-eyesiriswrapper-left"><g id="svga-group-eyesiriscontrol-left" transform="matrix(1,0,0,1,0,0)"><g id="svga-group-eyesiris-left"><path id="SvgjsPath3789" d="M83.6 85.1c-1.1-2.1-3.5-2.9-5.7-2.2-2.4.8-4.2 3.3-3.3 5.9.5 1.4 1.6 2.6 3.1 2.9.5.1 1 .1 1.6.1.6.1 1.2 0 1.8-.2 2.6-.9 3.8-4 2.5-6.5z" fill="#ffffff" stroke-width="none" opacity="1"></path><path id="SvgjsPath3790" d="M81.8 86.2c0-.1 0-.1-.1-.2-.6-1.2-2.2-1.7-3.4-1.1.3.2.5.6.6.8.2.4.6 1.1.1 1.3-.4.2-1.1 0-1.4-.2-.2-.1-.4-.3-.5-.5 0 .1-.1.1-.1.2-.1.2-.1.5-.1.7-.2.7 0 1.5.6 2.1.3.2.6.4.9.4.6.3 1.3.4 2 .1-.1-.1-.2-.3-.2-.4 0-.3.2-.6.5-.7.3-.1.6 0 .8.2.3-.3.5-.8.6-1.2.2-.5 0-1.1-.3-1.5zM79.6 92h-.4c-.5 0-1.1 0-1.6-.1-1.4-.3-2.7-1.5-3.2-3-.9-2.7 1-5.2 3.4-6.1 2.3-.8 4.8.1 5.9 2.2.6 1.2.7 2.7.2 4-.5 1.3-1.6 2.3-2.9 2.8-.4.1-.9.2-1.4.2zm-.4-.3c.6.1 1.2 0 1.8-.2 1.2-.4 2.2-1.4 2.7-2.6.5-1.2.4-2.6-.2-3.7-1-1.9-3.4-2.8-5.5-2.1-2.3.8-4.1 3.2-3.2 5.7.5 1.4 1.7 2.6 3 2.8.4.1.9.1 1.4.1z" fill="#000000" stroke-width="none" opacity="1"></path></g></g></g><g id="svga-group-eyesfront-left"><path id="SvgjsPath5412" d="M79 72.1c-8.2 0-14.8 6.6-14.8 14.8s6.6 14.8 14.8 14.8 14.8-6.6 14.8-14.8c0-8.1-6.6-14.8-14.8-14.8zm4 21.1c-5.2.2-9.2-1.8-9.2-1.8s-10-6.3-3.4-8.9c6.4-2.5 14.5.2 17.2 2.8 2.7 2.6 2.3 7 2.3 7s-5 .8-6.9.9z" fill="#ffffff" stroke-width="none" opacity="1"></path><path id="SvgjsPath5413" d="M91.6 90.8c-.3.4-.7.8-1 1.1 0 .1-.1.1-.1.1 0-.2.1-.4.1-.6.1-.1.1-.2.2-.3.2-.4.5-.8.8-1.1.2-.2-.1-.5-.3-.3-.2.2-.4.5-.7.8V90c.1-.1.2-.3.3-.4.4-.5.7-1.1 1.1-1.6.1-.2-.2-.4-.3-.2-.4.5-.8.9-1.2 1.4 0-.1 0-.2-.1-.3.1-.1.1-.3.2-.4.3-.5.7-1 1.1-1.5.1-.2-.1-.4-.3-.3-.4.5-.9.9-1.3 1.4-.1-.2-.1-.3-.2-.5.5-.5.8-1.1 1.2-1.7.1-.2-.1-.3-.3-.2-.4.4-.8.9-1.1 1.4-.1-.1-.1-.2-.2-.4.5-.5.9-1.1 1.2-1.6.1-.2-.2-.4-.3-.2-.4.4-.9.8-1.3 1.3-.1-.1-.2-.2-.3-.4 0-.1.1-.1.1-.2l.9-1.2c.1-.2-.1-.3-.2-.2-.3.3-.7.7-1 1.1l-.2.2c-.1-.1-.2-.2-.2-.3.3-.3.5-.7.7-1.1.1-.1-.1-.3-.2-.2-.2.3-.5.6-.8.9-.1-.1-.3-.2-.4-.3.2-.2.4-.4.6-.7.1-.1-.1-.3-.2-.2-.2.2-.4.5-.6.7-.1-.1-.3-.2-.4-.3.2-.2.3-.4.5-.6.1-.1-.1-.3-.2-.1-.1.2-.3.4-.4.6-.2-.1-.5-.3-.6-.4.2-.2.4-.4.5-.7.1-.3 0-.3-.3-.2-.3.2-.3.3-.7.6-.1-.1-.2-.1-.3-.2.2-.2 0-.4-.3-.3-.1 0-.1.1-.2.1-1.2-.6-2.5-1-4.1-1.4-4.1-1-7.7-.9-10.6.3-1.3.5-2.2 1.2-2.5 2.2-.4 1-.1 2.2.7 3.5 1.9 3 5.3 5.1 9.4 5.9 1.6.3 3.2.4 5.1.3 1.8-.1 3.8-.4 6-.9.2 0 .3-.2.4-.3.1.2.2.3.4.4h.2c0 .2.2.3.3.2.3-.2.6-.6.8-1l.9-1.2s-.2-.1-.3 0zm-2.3 1.3c-.1-.2-.3-.4-.6-.4h-.1c-4.2.9-7.6 1.1-10.6.6-3.8-.7-6.9-2.7-8.7-5.4-.4-.7-.9-1.7-.6-2.5.2-.6.8-1.1 1.9-1.5 2.7-1.1 6-1.1 9.9-.2 3 .7 5.1 1.7 6.6 3.2 1.9 1.7 2.7 4.1 2.2 6.2zm-19 0c-1.1-1.2-2.2-2.5-3.1-3.8-.1-.1-.3 0-.2.1 1.4 2.7 3.8 5.4 6.6 6.8.1.1.2-.1.1-.2-1.1-.9-2.3-1.8-3.4-2.9z" fill="#000000" stroke-width="none" opacity="1"></path></g></g></g><g id="svga-group-eyes-right-move" transform="matrix(1,0,0,1,-1,-1)"><g id="svga-group-eyes-right" transform="matrix(0.9499997000000001,0,0,0.9499997000000001,6.050036299999988,4.345026146294387)"><g id="svga-group-eyesback-right"></g><g id="svga-group-eyesiriswrapper-right"><g id="svga-group-eyesiriscontrol-right" transform="matrix(1,0,0,1,0,0)"><g id="svga-group-eyesiris-right"><path id="SvgjsPath3791" d="M125.6 85.1c-1.1-2.1-3.5-2.9-5.7-2.2-2.4.8-4.2 3.3-3.3 5.9.5 1.4 1.6 2.6 3.1 2.9.5.1 1 .1 1.6.1.6.1 1.2 0 1.8-.2 2.5-.9 3.7-4 2.5-6.5z" fill="#ffffff" stroke-width="none" opacity="1"></path><path id="SvgjsPath3792" d="M123.8 86.2c0-.1 0-.1-.1-.2-.6-1.2-2.2-1.7-3.4-1.1.3.2.5.6.6.8.2.4.6 1.1.1 1.3-.4.2-1.1 0-1.4-.2-.2-.1-.4-.3-.5-.5 0 .1-.1.1-.1.2-.1.2-.1.5-.1.7-.2.7 0 1.5.6 2.1.3.2.6.4.9.4.6.3 1.3.4 2 .1-.1-.1-.2-.3-.2-.4 0-.3.2-.6.5-.7.3-.1.6 0 .8.2.3-.3.5-.8.6-1.2.1-.5 0-1.1-.3-1.5zm-2.2 5.8h-.4c-.5 0-1.1 0-1.6-.1-1.4-.3-2.7-1.5-3.2-3-.9-2.7 1-5.2 3.4-6.1 2.3-.8 4.8.1 5.9 2.2.6 1.2.7 2.7.2 4-.5 1.3-1.6 2.3-2.9 2.8-.4.1-.9.2-1.4.2zm-.4-.3c.6.1 1.2 0 1.8-.2 1.2-.4 2.2-1.4 2.7-2.6.5-1.2.4-2.6-.2-3.7-1-1.9-3.4-2.8-5.5-2.1-2.3.8-4.1 3.2-3.2 5.7.5 1.4 1.7 2.6 3 2.8.3.1.8.1 1.4.1z" fill="#000000" stroke-width="none" opacity="1"></path></g></g></g><g id="svga-group-eyesfront-right"><path id="SvgjsPath5414" d="M121 72.1c-8.2 0-14.8 6.6-14.8 14.8s6.6 14.8 14.8 14.8 14.8-6.6 14.8-14.8c0-8.1-6.6-14.8-14.8-14.8zm5.6 19.4s-3.8 2.2-9.1 2.2c-2 0-6.9-.5-6.9-.5s-.6-4.4 1.9-7.1 10.5-5.9 17-3.7c6.7 2.3-2.9 9.1-2.9 9.1z" fill="#ffffff" stroke-width="none" opacity="1"></path><path id="SvgjsPath5417" d="M133.1 83.2c-.3.2-.6.5-.8.7v-.1c-.1-.2-.2-.3-.3-.5.3-.3.6-.7.8-.9.2-.2-.1-.6-.3-.3-.2.3-.5.5-.8.8-.1-.1-.3-.3-.5-.4.2-.2.5-.4.7-.7.2-.2 0-.5-.2-.4-.3.2-.6.4-1 .7-.2-.1-.4-.2-.7-.3.1-.1.3-.3.5-.4.2-.1 0-.5-.2-.3-.2.1-.5.3-.8.5-.2-.1-.3-.1-.5-.1.2-.2.4-.4.6-.7.2-.2-.1-.5-.3-.3-.3.2-.6.4-.9.7l-.2.2c-.2 0-.3-.1-.5-.1.3-.2.5-.5.8-.7.2-.2-.1-.4-.2-.2-.3.3-.8.5-1.1.9-.3 0-.6-.1-1-.1l.4-.4c.1-.2-.1-.4-.3-.3-.3.2-.6.4-.8.7-2 0-4.2.3-6.5.9-3.1.9-5.3 2.1-6.9 3.8-2.1 2.2-2.9 5.2-2.1 7.7.1.3.4.5.7.4.2-.1.3-.2.4-.4.1.1.2.2.4.3 2.2.4 4.2.6 6.1.6 1.8 0 3.5-.2 5-.6 3.6-.8 6.6-2.8 8.4-5.3h.1c.5-.3.9-.9 1.3-1.4.1-.2-.1-.3-.2-.2-.2.2-.4.5-.6.7 0-.1.1-.1.1-.2.1-.2.2-.3.2-.5.3-.2.5-.5.7-.8.1-.1-.1-.3-.2-.2-.1.1-.2.1-.2.2.1-.2.1-.5.2-.7.2-.2.5-.3.7-.5.1-.1-.1-.3-.2-.2-.2.1-.3.3-.5.4 0-.3 0-.6-.1-.9.3-.3.6-.6.9-.8.3-.3.1-.4-.1-.3zm-2.3 3.6c-1.6 2.8-4.7 4.9-8.4 5.8-3 .7-6.3.7-10.6 0h-.1c-.2 0-.5.2-.6.4-.6-2 .1-4.5 1.8-6.3 1.5-1.5 3.5-2.6 6.4-3.5 3.6-1.1 6.8-1.2 9.5-.4.6.1 1.5.6 1.5.6.4.3.7.6.9.9.4.7 0 1.7-.4 2.5zm-17.7 9.5c-.7-.5-1.4-1-1.9-1.6-.2-.2-.4.1-.3.2 1 1.3 2.5 2.7 4.1 2.9.3 0 .5-.3.2-.5-.7-.3-1.4-.6-2.1-1z" fill="#000000" stroke-width="none" opacity="1"></path></g></g></g><g id="svga-group-facehighlight-single"></g><g id="svga-group-eyebrows-left-move" transform="matrix(1,0,0,1,0,0)"><g id="svga-group-eyebrows-left-rotate" transform="matrix(0.9978589232386035,-0.06540312923014305,0.06540312923014305,0.9978589232386035,-4.612506280001128,5.222984533470694)"><g id="svga-group-eyebrows-left"><path id="SvgjsPath5761" d="M90.49 68.58c2.18 1.95.79 6.2-1.27 7.47-2.07 1.27-24.64.48-25.6-.48-.95-.95 20.67-12.55 26.87-6.99z" fill="#ffffff" stroke-width="none" opacity="1"></path><path id="SvgjsPath5762" d="M63.26 75.94c.85.85 9.96 1.15 12.73 1.22 1.18.03 2.9.07 4.72.07 3.69 0 7.81-.14 8.78-.74 1.35-.83 2.42-2.75 2.59-4.65.14-1.5-.31-2.79-1.25-3.64-3.27-2.93-10.08-1.38-15.21.43-5.81 2.05-11.11 5.04-12.21 6.2-.57.6-.26 1-.15 1.11zm9.05.07-5.45-2.29c.73-.42 1.59-.87 2.53-1.33l4.46 3.68-1.54-.06zm-.99-4.54 2.37 3.57-3.62-2.99c.4-.19.82-.38 1.25-.58zm5.67-2.22 1.4 5.48-3.14-4.88c.57-.21 1.15-.41 1.74-.6zm5.38-1.37c.48-.08.94-.14 1.38-.19l.31 8.46c-.79.03-1.68.04-2.66.05l-2.16-7.63c1.06-.28 2.11-.52 3.13-.69zm4.45-.21-1.63 8.44c-.15.01-.3.01-.45.02l-.31-8.49c.88-.06 1.68-.05 2.39.03zm.68.1c.58.11 1.09.27 1.55.49l-1.91 7.71c-.36.04-.77.07-1.24.1l1.6-8.3zm2.65 1.19c.07.07.13.15.19.22l-1.74 3.74 1.07-4.32c.17.12.33.23.48.36zm-1.2 6.66c-.14.09-.47.17-.97.25l2.79-5.99c.24.53.35 1.16.29 1.87-.14 1.58-1.03 3.2-2.11 3.87zm-9.48.58-1.83-7.16c.31-.1.63-.19.94-.28l2.11 7.45c-.39-.01-.8-.01-1.22-.01zm-4.26-.08-3.26-4.93c.85-.37 1.74-.74 2.65-1.09l3.91 6.09c-.7-.01-1.43-.02-2.2-.04l-1.1-.03zm-10.83-.8c.34-.29.94-.69 1.74-1.17l4.17 1.75c-2.91-.17-5.01-.39-5.91-.58z" fill="#000000" stroke-width="none" opacity="1"></path></g></g></g><g id="svga-group-eyebrows-right-move" transform="matrix(1,0,0,1,0,0)"><g id="svga-group-eyebrows-right-rotate" transform="matrix(0.9914448613738104,-0.13052619222005168,0.13052619222005168,0.9914448613738104,-8.487984696778952,16.61886979826636)"><g id="svga-group-eyebrows-right"><path id="SvgjsPath5763" d="M109.51 68.58c-2.18 1.95-.79 6.2 1.27 7.47 2.07 1.27 24.64.48 25.6-.48.95-.95-20.67-12.55-26.87-6.99z" fill="#ffffff" stroke-width="none" opacity="1"></path><path id="SvgjsPath5764" d="M136.58 74.83c-1.1-1.16-6.39-4.15-12.21-6.2-5.14-1.81-11.95-3.36-15.21-.43-.94.84-1.38 2.14-1.25 3.64.17 1.91 1.24 3.82 2.59 4.65.97.6 5.09.74 8.78.74 1.82 0 3.53-.03 4.72-.07 2.77-.07 11.88-.38 12.73-1.22.12-.11.43-.51-.15-1.11zm-10.43 1.24 4.46-3.68c.94.47 1.8.92 2.53 1.33l-5.45 2.29-1.54.06zm3.79-4.02-3.62 2.99 2.37-3.57c.42.2.84.39 1.25.58zm-5.19-2.2-3.14 4.88 1.4-5.48c.59.19 1.17.39 1.74.6zm-3.99-1.28-2.16 7.63c-.98-.01-1.87-.02-2.66-.05l.31-8.46c.44.05.9.11 1.38.19 1.02.17 2.07.41 3.13.69zm-5.2-.93-.31 8.49c-.15-.01-.31-.01-.45-.02l-1.63-8.44c.72-.08 1.52-.09 2.39-.03zm-1.46 8.43c-.47-.03-.88-.06-1.24-.1l-1.91-7.71c.46-.22.97-.38 1.55-.49l1.6 8.3zm-3.77-7.46 1.07 4.32-1.74-3.74c.06-.07.12-.16.19-.22.15-.14.31-.25.48-.36zm-1.39 3.14c-.06-.71.05-1.34.29-1.87l2.79 5.99c-.5-.08-.83-.16-.97-.25-1.08-.67-1.97-2.29-2.11-3.87zm10.37 4.45 2.11-7.45c.32.09.63.18.94.28l-1.83 7.16c-.42.01-.83.01-1.22.01zm4.38-.05c-.77.02-1.5.03-2.2.04l3.91-6.09c.91.35 1.8.72 2.65 1.09l-3.26 4.93-1.1.03zm6.02-.25 4.17-1.75c.79.47 1.39.88 1.74 1.17-.9.19-3 .41-5.91.58z" fill="#000000" stroke-width="none" opacity="1"></path></g></g></g><g id="svga-group-beardwrap" transform="matrix(1.0200001,0,0,1.0001001,0,0)"><g id="svga-group-beard-single-move" transform="matrix(1,0,0,1,0,0)"><g id="svga-group-beard-single"></g></g></g><g id="svga-group-mustache-single-move" transform="matrix(1,0,0,1,0,0)"><g id="svga-group-mustache-single"></g></g><g id="svga-group-nose-single-move" transform="matrix(1,0,0,1,0,3)"><g id="svga-group-nose-single"><path id="SvgjsPath7868" d="M95.01 99.89c-2.09.78-5.37.13-6.47 2.2s-.19 7.05 5.95 4.98c0 0 1.29 1.62 4.27 1.75 2.98.13 4.34-2.26 4.34-2.26s2.2 1.68 4.79.52 2.14-4.14.39-5.57-5.57-.84-5.57-.84-1.62-3.04-7.7-.78z" fill="#ffffff" stroke-width="none" opacity="1"></path><path id="SvgjsPath7869" d="M108.96 101.19c-.72-.65-1.79.42-1.06 1.06 3.13 2.81-1.58 6.07-4.33 3.73-.39-.34-.88-.26-1.18.15-1.68 2.32-4.9 2.32-6.82.43a.77.77 0 0 0-.11-.27c-.78-1.24-.82-2.71-.08-3.98.49-.84-.81-1.6-1.3-.76-.88 1.5-.97 3.28-.28 4.83-1.11.59-2.45.71-3.61.12-1.81-.91-1.85-3.08-.51-4.39.69-.68-.37-1.74-1.06-1.06-1.69 1.65-1.96 4.36-.16 6.07 1.61 1.53 4.21 1.61 6.1.57 2.41 2.43 6.3 2.27 8.6-.17 1.8 1.11 4.27 1.18 5.95-.27 1.9-1.65 1.62-4.46-.15-6.06z" fill="#000000" stroke-width="none" opacity="1"></path></g></g><g id="svga-group-hair-front" transform="matrix(1.0200001,0,0,1.0001001,-2.0148799931728405,-0.005295290439129019)"><path id="SvgjsPath4580" d="M99 45.7s-12.3-5.1-15.2-4.9c-6.4.3-9.6 25-9.6 25l-2.3-10.7s-3.7 13.1-3.5 19.5c0 0-3.9-9.4-3.7-15.2 0 0-5.3 18-4.7 28.3 0 0-5.9-8.4-6.4-19.7l-2.1 3.9s-1.6-8-.2-16.4 8-19.3 8-19.3L53 40.1s13.9-16.4 19.1-18c5.1-1.6 10-2.1 10-2.1s-4.3-3-3.7-3 9.4-.8 13.1.8c3.7 1.6 9.2 3.7 9.2 3.7s9-5.3 15.2-5.5l-4.9 3.9s13.7 0 18 3.1c4.3 3.1 14.4 14.2 14.4 14.2s-4.1-.8-3.5-.4 6.8 10.3 8 16.6 2.1 12.1 2.1 12.1l-3.9-3.7s.6 7.6.6 11.1-4.3 17.1-4.3 17.1-1.6-26.5-2.3-28.3l-2.7 9.4s-2.7-15.6-5.7-20.7l-2.1 12.3s-3.7-14.4-5.7-17c0 0-.6 15.3-1.8 22.9 0 0-3.7-20.5-6.2-26.2-2.4-5.7-16.9 3.3-16.9 3.3z" fill="#ffffff" stroke-width="none" opacity="1"></path><path id="SvgjsPath4581" d="M149 53.1c-1-4.9-4.7-11.9-6.9-15.3.4.1.8.2 1.2.2.4.1.9-.1 1.1-.5.2-.4.2-.8-.1-1.2-.4-.5-10.2-11.2-14.5-14.3-3.3-2.4-11.5-3-15.8-3.2l2.8-2.2c.3-.3.5-.7.3-1.1-.1-.4-.5-.7-1-.7-5.6.2-13.3 4.4-15.2 5.4-1.4-.5-5.7-2.2-8.7-3.5-3.5-1.5-10.6-1.1-13-.9h-.5c-.4 0-.9.3-1 .7-.2.6-.3.9 2.1 2.7-1.9.3-4.8.8-7.7 1.8-5.2 1.7-18.1 16.7-19.5 18.4-.3.4-.3.9 0 1.3s.9.5 1.3.2L57 39c-2.1 3.9-5.3 10.6-6.2 16.3-1.5 8.5.1 16.4.2 16.8.1.4.4.7.8.8.4.1.8-.2 1-.5l.5-.9c1.3 9.7 6 16.5 6.2 16.8.3.4.7.5 1.1.4.4-.1.7-.6.7-1-.4-6.6 1.8-16.8 3.3-22.8 1 4.9 3.1 9.9 3.2 10.2.2.4.7.7 1.1.6.5-.1.8-.5.8-1-.1-4 1.3-10.7 2.4-15.1l1.4 6.5c.1.5.5.8 1 .8s.9-.4 1-.9c1.3-9.9 4.8-24 8.7-24.2 1.9-.1 10.1 2.9 14.7 4.8.3.1.6.1.9-.1 2.8-1.7 10.8-6 14.3-4.9.6.2 1 .6 1.3 1.1 2.4 5.6 6.1 25.8 6.1 26 .1.5.5.8 1 .8s.9-.4 1-.8c.8-5.2 1.4-13.9 1.6-19 1.5 4.1 3.2 10.4 4 13.2.1.5.5.8 1 .8s.9-.4.9-.8l1.5-9.1c2.4 6.3 4.3 17.4 4.3 17.5.1.5.5.8.9.8.5 0 .9-.3 1-.7l1.3-4.6c.5 6 1.2 16.2 1.7 23.3 0 .5.4.9.9.9h.1c.4 0 .8-.3 1-.7.2-.6 4.4-13.9 4.4-17.5 0-2.2-.2-6-.4-8.6l2 1.9c.3.3.8.4 1.1.2.4-.2.6-.6.5-1-.3-.1-1.1-5.9-2.3-12.2zm-2.2 7.8c-.3-.3-.7-.4-1.1-.2-.4.2-.6.6-.6 1 0 .1.6 7.6.6 11 0 1.8-1.4 7.2-2.7 11.6-.5-8.2-1.5-21.5-1.9-23-.1-.4-.5-.7-.9-.7s-.8.3-.9.7l-1.5 5.3c-1-5.1-2.9-13.3-5.1-16.9-.2-.4-.6-.5-1-.5s-.7.4-.8.8l-1.3 7.8c-1.3-4.5-3.3-11.1-4.7-12.9-.3-.3-.7-.5-1.1-.3-.4.1-.7.5-.7.9 0 .1-.3 9-1 16.5-1.3-6.6-3.4-16.3-5-20.1-.5-1.1-1.3-1.9-2.5-2.2-4.6-1.4-13.3 3.5-15.5 4.8-2.5-1-12.4-4.9-15.1-4.8-5.5.3-8.6 12.8-10 20.5l-1.1-5.3c-.1-.5-.5-.8-.9-.8s-.9.3-1 .7-2.3 8.4-3.2 14.9c-1-3.1-2.1-7.3-2-10.3 0-.5-.3-.9-.8-1s-1 .2-1.1.7c-.4.7-4.4 14.6-4.9 24.9-1.7-3.4-4.1-9.2-4.4-16 0-.5-.3-.8-.8-.9-.4-.1-.9.1-1.1.5l-.6 1.2c-.3-3-.6-8 .2-13.1 1.4-8.1 7.8-18.8 7.9-18.9.2-.4.2-.9-.2-1.2-.3-.3-.8-.4-1.2-.1l-.6.4C63 30.5 69.5 24 72.4 23c5-1.6 9.8-2 9.8-2 .4 0 .8-.3.9-.7.1-.4 0-.8-.4-1.1-.6-.4-1.3-.9-1.9-1.4 5.1-.2 8.5.1 10.3.9 3.7 1.6 9.2 3.7 9.3 3.7.3.1.6.1.9-.1.1 0 5.8-3.4 11-4.8l-1.9 1.5c-.3.3-.5.7-.3 1.1s.5.7.9.7c3.7 0 14.1.5 17.5 2.9 3 2.2 9.1 8.5 12.2 11.8-1.2-.1-1.5.1-1.7.6-.2.4-.1.9.4 1.2.8.9 6.5 10 7.6 16 .7 3.5 1.2 6.9 1.6 9.2l-1.8-1.6zM99.2 25.6c-1.1 5-1.6 10-1.5 15.1 0 .8 1.3.8 1.3 0-.1-5 .3-9.9 1.4-14.8.2-.7-1-1.1-1.2-.3zm17.6 4.9c-4.1-.9-9.1 1-12.6 3-.7.4-.1 1.5.6 1.1 2.8-1.6 5.8-2.6 9-2.8 4.3-.3 6.3 2.9 7.1 6.8.2.8 1.4.5 1.2-.3-.5-3.1-2-7.1-5.3-7.8zm-29.3 2.8c-5-.5-7.9-.9-11.1 3.3-3 3.9-4.8 8.4-5.7 13.2-.1.8 1.1 1.1 1.2.3.7-3.9 2-7.7 4.2-11 1.3-2 2.4-3.6 4.6-4.5 2.3-.9 4.4-.4 6.8-.1.8.2.8-1.1 0-1.2zm1-6.3c-20.1-7-31.7 22.6-31.2 37.8 0 .8 1.3.8 1.3 0-.3-8.4 1.6-16.7 6-23.9 4.9-8 13.4-16.2 23.6-12.7.7.3 1-.9.3-1.2zm22-1.5c-.8.2-.4 1.5.3 1.2 15.4-5 24.1 14.4 26.5 26.5.2.8 1.4.5 1.2-.3-2.5-12.8-11.8-32.6-28-27.4z" fill="#000000" stroke-width="none" opacity="1"></path></g><g id="svga-group-glasses-single-move" transform="matrix(1,0,0,1,0,1)"><g id="svga-group-glasses-single" transform="matrix(1.1000003000000003,0,0,1.1000003000000003,-9.974374939514561,-8.925137020081735)"><path id="SvgjsPath8268" d="M64.69 80.01c-1.48 2.34-1.4 7.29.61 13.66 2 6.37 6.92 8.01 9.47 8.2s9.53.06 13.6-2.67 6.07-6.98 6.92-12.57-4.61-7.71-6.07-8.14c-1.46-.42-8.2-1.58-12.81-1.64-4.62-.05-9.96.37-11.72 3.16z" fill="url(#SvgjsLinearGradient8269)" opacity="1"></path><path id="SvgjsPath8272" d="M134.82 80.01c1.48 2.34 1.4 7.29-.61 13.66-2 6.37-6.92 8.01-9.47 8.2s-9.53.06-13.6-2.67-6.07-6.98-6.92-12.57 4.61-7.71 6.07-8.14c1.46-.42 8.2-1.58 12.81-1.64 4.61-.05 9.95.37 11.72 3.16z" fill="url(#SvgjsLinearGradient8273)" opacity="1"></path><path id="SvgjsPath8276" d="M139.79 77.28c-.46-.31-1.92 0-4.62-.69-2.69-.69-10.93-1.46-15.39-.85s-11.39 2.15-13.93 2.69c-2.54.54-5.62.73-5.62.73h-.97s-3.08-.19-5.62-.73-9.46-2.08-13.93-2.69-12.7.15-15.39.85c-2.69.69-4.16.38-4.62.69-.46.31-.85 5.62.15 6.16s1.62 1.31 2.23 4.39 2.08 8 3.39 9.62c1.31 1.62 2.92 4.31 9.85 5.31s13-1.43 16.69-5.28c3.69-3.85 4.27-7.76 5.12-11.52.62-2.76 2.12-2.97 2.12-2.97h.97s1.49.21 2.12 2.97c.85 3.76 1.43 7.67 5.12 11.52 3.69 3.85 9.77 6.28 16.69 5.28 6.93-1 8.54-3.69 9.85-5.31 1.31-1.62 2.77-6.54 3.39-9.62s1.23-3.85 2.23-4.39c1.02-.54.63-5.85.17-6.16zM93.3 91.23c-2.31 5.83-6.16 7.92-9.13 8.91-2.97.99-8.58.77-10.78.33-2.2-.44-5.17-1.32-7.15-6.16s-2.31-12.1.44-14.51c2.75-2.42 10.01-1.76 14.29-1.54 0 0 4.87.37 8.72 1.58 3.87 1.2 5.92 5.56 3.61 11.39zm39.95 3.07c-1.98 4.84-4.95 5.72-7.15 6.16-2.2.44-7.81.66-10.78-.33-2.97-.99-6.82-3.08-9.13-8.91-2.31-5.83-.26-10.19 3.59-11.4 3.85-1.21 8.72-1.58 8.72-1.58 4.29-.22 11.55-.88 14.29 1.54 2.77 2.43 2.44 9.69.46 14.52z" fill="#000000" stroke-width="none" opacity="1"></path></g></g></g></g></g><rect id="svga-credit-rect" width="200" height="15" x="0" y="185" fill="#ecf0f1" opacity="0.5" style="display: none;"></rect><text id="svga-credit-text" font-family="Avenir Next, Roboto, Helvetica, Arial, sans-serif" font-size="10px" text-anchor="start" font-weight="400" size="10px" anchor="start" weight="400" fill="#333333" x="33.40447998046875" y="182.60824704170227" style="display: none;"><tspan id="SvgjsTspan3640" dy="13" x="33.40447998046875">Created on AvatarMaker.com</tspan></text></g><defs id="SvgjsDefs3587"><linearGradient id="SvgjsLinearGradient6793" x1="78.2747" y1="75.0793" x2="78.2747" y2="103.7575" gradientUnits="userSpaceOnUse" class="svga-on-canvas-glasses-gradient-single-0-null"><stop id="SvgjsStop6794" stop-opacity="1" stop-color="#ffffff" offset="0.0708" ></stop><stop id="SvgjsStop6795" stop-opacity="0" stop-color="#ffffff" offset="1" ></stop></linearGradient><linearGradient id="SvgjsLinearGradient6797" x1="35.2747" y1="75.0793" x2="35.2747" y2="103.7575" gradientTransform="matrix(-1 0 0 1 156.6823 0)" gradientUnits="userSpaceOnUse" class="svga-on-canvas-glasses-gradient-single-1-null"><stop id="SvgjsStop6798" stop-opacity="1" stop-color="#ffffff" offset="0.0708" ></stop><stop id="SvgjsStop6799" stop-opacity="0" stop-color="#ffffff" offset="1" ></stop></linearGradient><linearGradient id="SvgjsLinearGradient6852" x1="79.3288" y1="71.8854" x2="79.3288" y2="104.7359" gradientUnits="userSpaceOnUse" class="svga-on-canvas-glasses-gradient-single-0-null"><stop id="SvgjsStop6853" stop-opacity="1" stop-color="#ffffff" offset="0.0708" ></stop><stop id="SvgjsStop6854" stop-opacity="0" stop-color="#ffffff" offset="1" ></stop></linearGradient><linearGradient id="SvgjsLinearGradient6856" x1="34.9103" y1="71.8854" x2="34.9103" y2="104.7359" gradientTransform="matrix(-1 0 0 1 155.3625 0)" gradientUnits="userSpaceOnUse" class="svga-on-canvas-glasses-gradient-single-1-null"><stop id="SvgjsStop6857" stop-opacity="1" stop-color="#ffffff" offset="0.0708" ></stop><stop id="SvgjsStop6858" stop-opacity="0" stop-color="#ffffff" offset="1" ></stop></linearGradient><linearGradient id="SvgjsLinearGradient6925" x1="79.5238" y1="76.8526" x2="79.5238" y2="101.9256" gradientUnits="userSpaceOnUse" class="svga-on-canvas-glasses-gradient-single-0-null"><stop id="SvgjsStop6926" stop-opacity="1" stop-color="#ffffff" offset="0.0708" ></stop><stop id="SvgjsStop6927" stop-opacity="0" stop-color="#ffffff" offset="1" ></stop></linearGradient><linearGradient id="SvgjsLinearGradient6929" x1="38.5238" y1="76.8526" x2="38.5238" y2="101.9256" gradientTransform="matrix(-1 0 0 1 158.5026 0)" gradientUnits="userSpaceOnUse" class="svga-on-canvas-glasses-gradient-single-1-null"><stop id="SvgjsStop6930" stop-opacity="1" stop-color="#ffffff" offset="0.0708" ></stop><stop id="SvgjsStop6931" stop-opacity="0" stop-color="#ffffff" offset="1" ></stop></linearGradient><linearGradient id="SvgjsLinearGradient6972" x1="78.4207" y1="78.8847" x2="78.4207" y2="99.8607" gradientUnits="userSpaceOnUse" class="svga-on-canvas-glasses-gradient-single-0-null"><stop id="SvgjsStop6973" stop-opacity="1" stop-color="#ffffff" offset="0.0708" ></stop><stop id="SvgjsStop6974" stop-opacity="0" stop-color="#ffffff" offset="1" ></stop></linearGradient><linearGradient id="SvgjsLinearGradient6976" x1="35.2707" y1="78.8847" x2="35.2707" y2="99.8607" gradientTransform="matrix(-1 0 0 1 156.7 0)" gradientUnits="userSpaceOnUse" class="svga-on-canvas-glasses-gradient-single-1-null"><stop id="SvgjsStop6977" stop-opacity="1" stop-color="#ffffff" offset="0.0708" ></stop><stop id="SvgjsStop6978" stop-opacity="0" stop-color="#ffffff" offset="1" ></stop></linearGradient><linearGradient id="SvgjsLinearGradient7029" x1="79.5238" y1="76.8526" x2="79.5238" y2="101.9256" gradientUnits="userSpaceOnUse" class="svga-on-canvas-glasses-gradient-single-0-null"><stop id="SvgjsStop7030" stop-opacity="1" stop-color="#ffffff" offset="0.0708" ></stop><stop id="SvgjsStop7031" stop-opacity="0" stop-color="#ffffff" offset="1" ></stop></linearGradient><linearGradient id="SvgjsLinearGradient7033" x1="38.5238" y1="76.8526" x2="38.5238" y2="101.9256" gradientTransform="matrix(-1 0 0 1 158.5026 0)" gradientUnits="userSpaceOnUse" class="svga-on-canvas-glasses-gradient-single-1-null"><stop id="SvgjsStop7034" stop-opacity="1" stop-color="#ffffff" offset="0.0708" ></stop><stop id="SvgjsStop7035" stop-opacity="0" stop-color="#ffffff" offset="1" ></stop></linearGradient><linearGradient id="SvgjsLinearGradient8269" x1="79.5238" y1="76.8526" x2="79.5238" y2="101.9256" gradientUnits="userSpaceOnUse" class="svga-on-canvas-glasses-gradient-single-0-null"><stop id="SvgjsStop8270" stop-opacity="1" stop-color="#ffffff" offset="0.0708" ></stop><stop id="SvgjsStop8271" stop-opacity="0" stop-color="#ffffff" offset="1" ></stop></linearGradient><linearGradient id="SvgjsLinearGradient8273" x1="38.5238" y1="76.8526" x2="38.5238" y2="101.9256" gradientTransform="matrix(-1 0 0 1 158.5026 0)" gradientUnits="userSpaceOnUse" class="svga-on-canvas-glasses-gradient-single-1-null"><stop id="SvgjsStop8274" stop-opacity="1" stop-color="#ffffff" offset="0.0708" ></stop><stop id="SvgjsStop8275" stop-opacity="0" stop-color="#ffffff" offset="1" ></stop></linearGradient></defs></svg>