<svg xmlns="http://www.w3.org/2000/svg" version="1.1" width="600px" height="600px" viewBox="0 0 200 200" style="overflow:hidden!important;"><g id="svga-group-wrapper"><g id="svga-group-backs-single"><path id="SvgjsPath3817" d="M0 0h200v200H0V0z" fill="#ffffff" stroke-width="none" opacity="1" stroke="none"></path></g><g id="svga-group-humanwrap-move" transform="matrix(1,0,0,1,0,0)"><g id="svga-group-humanwrap"><g id="svga-group-hair-back-move" transform="matrix(1,0,0,1,0,0)"><g id="svga-group-hair-back" transform="matrix(0.9799999,0,0,0.9998999000000001,0,0)"></g></g><g id="svga-group-humanbody-back"><path id="SvgjsPath3770" d="M77.6 118.3c0 19.3 3.4 44.1-10 51.9-13.4 7.9-31.9 11.3-37.8 22s-4.4 25.3-4.4 25.3h149.3s.7-18.9-5.1-26.4c-8.1-10.4-27.8-15.5-37.7-20.9s-13.4-25.1-13.4-52.4l-40.9.5z" fill="#ffffff" stroke-width="none" opacity="1"></path></g><g id="svga-group-chinshadow-single"></g><g id="svga-group-humanbody-front"><path id="SvgjsPath3771" d="M175.8 218.7H24.4l-.1-1c-.1-.6-1.5-15.1 4.5-26 4.1-7.4 13.5-11.3 23.5-15.5 5-2.1 10.2-4.3 14.8-6.9 10.6-6.2 10.1-23.9 9.6-41-.1-3.5-.2-6.8-.2-10v-1.1l43.2-.4v1.1c0 29.9 4.2 46.7 12.8 51.4 2.9 1.6 6.7 3.2 10.8 4.9 10 4.1 21.3 8.8 27.2 16.3 6.1 7.7 5.4 26.4 5.4 27.1l-.1 1.1zm-149.3-2.2h147.1c0-4.1-.2-18.5-4.9-24.6-5.5-7-16.6-11.6-26.3-15.6-4.1-1.7-8-3.3-11-5-5.1-2.8-8.7-8.9-10.9-18.7-2-8.4-2.9-19.4-3-33.5l-38.6.4c0 2.8.1 5.7.2 8.8.5 17.8 1 36.1-10.7 43-4.7 2.7-9.9 4.9-15 7.1-9.6 4-18.7 7.8-22.4 14.5-5 8.6-4.7 20.1-4.5 23.6z" fill="#000000" stroke-width="none" opacity="1"></path><path id="SvgjsPath3772" d="M93.9 153.8c-.5 1.8-.4 3.4.5 5.2.8 1.6 2.1 2.7 3.9 2.9.4 0 .7-.5.5-.8-1.6-2.2-3.5-4.2-3.7-7.1 0-.7-1-.9-1.2-.2z" fill="#000000" stroke-width="none" opacity="1"></path><path id="SvgjsPath3773" d="M112.5 187.5c8.8.5 18.1-.7 26.6-2.9.7-.2.6-1.4-.2-1.3-8.8 1.1-17.7 2-26.5 3.3-.5.1-.3.9.1.9z" fill="#000000" stroke-width="none" opacity="1"></path><path id="SvgjsPath3774" d="M63.1 182.5c3.8.9 7.6 1.9 11.5 2.8 3.6.8 7.4 2 11.1 2.1.7 0 .8-.9.2-1.2-3.5-1.4-7.5-1.7-11.2-2.5-3.8-.7-7.5-1.3-11.3-2-.5 0-.7.7-.3.8z" fill="#000000" stroke-width="none" opacity="1"></path></g><g id="svga-group-clothes-single"><path id="SvgjsPath9237" d="M100.6 206.74s-20.29-15.02-23.95-18.87c-3.65-3.86-12.18-17.45-12.18-17.45s-15.22 6.49-20.9 8.52c-5.68 2.03-13.8 8.12-15.42 12.38-1.62 4.26-4.26 8.52-4.46 16.84-.2 8.32 0 10.55 0 10.55H176.7s.61-15.63-2.44-21.72c-3.04-6.09-1.62-8.12-14.21-15.42-12.58-7.31-23.54-10.35-23.54-10.35s-10.35 15.83-16.84 21.31c-6.49 5.48-19.07 14.21-19.07 14.21z" fill="#ffffff" stroke-width="none" opacity="1"></path><path id="SvgjsPath9238" d="M175.16 196.55c-.57-1.13-.97-2.1-1.35-3.04-1.67-4.04-2.77-6.72-13.24-12.8-12.55-7.29-23.67-10.42-23.78-10.45a.978.978 0 0 0-1.1.42c-.1.16-10.35 15.77-16.65 21.09-5.59 4.71-15.86 11.95-18.41 13.74-3.33-2.48-20.03-14.94-23.24-18.33-3.54-3.74-11.97-17.16-12.06-17.3-.26-.42-.79-.58-1.24-.39-.15.07-15.26 6.51-20.85 8.5-5.81 2.07-14.25 8.32-16.02 12.96-.31.8-.65 1.6-1 2.43-.18-.05-.37.22-.2.35.01.01.02.02.04.03-1.53 3.58-3.2 7.68-3.36 14.36-.2 8.28 0 10.57 0 10.67.05.51.48.91 1 .91h153c.54 0 .98-.42 1-.96.03-.64.58-15.95-2.54-22.19zm-34.96-23.07c-.23.38-.55.9-.93 1.51-.76-.83-1.63-1.61-2.48-2.37.05-.08.11-.16.15-.23.67.21 1.79.56 3.26 1.09zm-4.31 6.79c-.01-.01-.01-.03-.02-.04-.83-.7-1.78-1.38-2.77-1.83-.15-.07-.33.12-.19.25.8.74 1.79 1.36 2.75 1.86.03.01.05.01.08.01-.9 1.37-1.87 2.8-2.87 4.21-.54-1.3-1.21-2.55-1.89-3.8 1.1-1.49 2.11-2.91 3-4.18.88.77 1.75 1.62 2.7 2.33-.26.38-.52.78-.79 1.19zm-9.9 12.87c-.6-1.15-1.45-2.22-2.2-3.27.45-.5.91-1.02 1.38-1.56.35.55.69 1.1 1.05 1.64.38.59.75 1.22 1.18 1.79-.26.28-.52.56-.77.81-.19.18-.41.38-.64.59zm1.75-1.79c-.37-.62-.82-1.22-1.23-1.8-.36-.52-.72-1.04-1.09-1.55.37-.44.75-.89 1.12-1.34.24.51.51 1.01.81 1.49.4.63.87 1.4 1.47 1.92-.36.45-.72.88-1.08 1.28zm1.4-1.66c-.42-.62-.97-1.17-1.37-1.79-.34-.53-.64-1.07-.92-1.63.39-.48.78-.97 1.16-1.46.66 1.23 1.36 2.45 2.14 3.6-.33.44-.67.86-1.01 1.28zm1.27-1.62c-.61-1.26-1.33-2.48-2.07-3.67.36-.46.72-.93 1.07-1.4.65 1.22 1.33 2.45 2.11 3.58-.37.51-.74 1.01-1.11 1.49zm1.42-1.91c-.62-1.22-1.36-2.41-2.1-3.58.31-.42.63-.83.93-1.24.59 1.29 1.18 2.59 1.92 3.78-.25.35-.5.7-.75 1.04zm5.12-7.52c-.86-.81-1.83-1.52-2.73-2.25.37-.52.71-1.02 1.02-1.47.82.83 1.72 1.6 2.71 2.17-.31.49-.65 1.01-1 1.55zm1.2-1.87c-.91-.73-1.81-1.45-2.64-2.25.39-.58.73-1.08 1.01-1.5.81.82 1.62 1.64 2.5 2.36-.27.43-.56.89-.87 1.39zm-14.65 13.41c.7 1.08 1.38 2.24 2.22 3.2-.41.36-.87.75-1.38 1.16-.74-.95-1.6-1.84-2.39-2.74.5-.5 1.02-1.05 1.55-1.62zm-3.18 3.12c.42-.36.87-.76 1.32-1.2.74.91 1.47 1.9 2.28 2.77-1.99 1.56-4.56 3.38-7.31 5.23-.41-.94-.89-1.85-1.38-2.75 1.86-1.43 3.63-2.83 5.09-4.05zm-11.43 11.83c-.28-.79-.67-1.55-1.07-2.3.61-.44 1.24-.9 1.89-1.37.41.79.94 1.55 1.6 2.12-.82.53-1.63 1.05-2.42 1.55zm2.87-1.84c-.61-.69-1.18-1.36-1.64-2.13.84-.61 1.69-1.25 2.55-1.89.35.9.83 1.85 1.5 2.45-.8.53-1.61 1.05-2.41 1.57zm2.82-1.84c-.27-.47-.65-.9-.93-1.37-.21-.36-.4-.73-.57-1.11.59-.44 1.18-.88 1.76-1.33.43.92.87 1.85 1.37 2.72-.54.37-1.08.73-1.63 1.09zm-50.5-29.79c1.84 2.9 8.61 13.48 11.84 16.89 3.67 3.88 23.25 18.38 24.08 18.99.34.25.81.26 1.17.02.06-.04 2.71-1.88 6.19-4.39.35.75.73 1.5 1.18 2.18-4.19 2.66-7.77 4.83-9.08 5.62-3.44-2.23-22.71-14.84-26.18-19.14-3.39-4.2-11.46-15.48-13.51-18.35 1.88-.79 3.44-1.45 4.31-1.82zm-5.56 3.52c-.43-.22-.86-.43-1.29-.63.22-.09.43-.18.65-.27.15.2.37.51.64.9zm-33.93 39.87c.5.46 1.09.86 1.6 1.26.59.47 1.19.96 1.81 1.4h-3.37c-.02-.56-.04-1.42-.04-2.66zm151.14 2.66H28.6c-.7-.66-1.47-1.25-2.22-1.84-.56-.45-1.15-1-1.79-1.39 0-.54 0-1.15.01-1.82 2.11 1.55 4.28 3.08 6.54 4.35.13.07.28-.11.16-.21-2.09-1.73-4.39-3.26-6.69-4.72.01-.92.03-1.95.05-3.1 2.41 1.49 5.02 3.11 7.64 4.1.16.06.22-.17.11-.26-2.28-1.72-5.15-3.11-7.74-4.37 0-.09 0-.17.01-.26.02-.83.07-1.62.13-2.37 2.29 1.42 4.64 3.02 7.11 3.98.14.05.27-.16.15-.25-2.14-1.67-4.78-2.88-7.22-4.15.09-.85.2-1.66.33-2.42 1.17.69 2.35 1.38 3.54 2.04 1.37.77 2.74 1.69 4.24 2.18.12.04.23-.13.13-.22-1.21-1.01-2.71-1.68-4.1-2.43-1.24-.67-2.49-1.33-3.74-1.98.19-1 .42-1.92.67-2.79 2.07 1.31 4.26 2.74 6.51 3.62.16.06.31-.19.17-.29-1.94-1.51-4.32-2.66-6.54-3.79.2-.63.4-1.24.62-1.82 2.19 1.39 4.56 2.82 6.93 3.73.23.09.32-.24.16-.37-2.04-1.5-4.56-2.72-6.91-3.81.27-.7.55-1.37.82-2.02.71.51 1.43 1 2.19 1.45 1.3.78 2.77 1.74 4.28 2.01.19.03.28-.19.13-.3-1.21-.92-2.77-1.47-4.09-2.23-.78-.45-1.54-.93-2.28-1.42.04-.09.08-.19.12-.28.3-.71.59-1.4.86-2.08 1.88 1.33 4 2.59 6.02 3.53.25.12.43-.2.21-.36-1.79-1.37-3.94-2.66-6.01-3.7.24-.61.64-1.26 1.15-1.94 1.95 1.16 4.1 2.36 6.23 3.13.19.07.28-.2.13-.3-1.86-1.24-4.08-2.24-6.15-3.11.42-.53.9-1.07 1.44-1.61 2.12 1.58 4.44 3.02 6.93 3.89.26.09.43-.32.19-.45-2.32-1.21-4.61-2.36-6.81-3.75.46-.45.96-.9 1.48-1.35 1.99 1.49 4.16 2.89 6.48 3.7.27.09.43-.31.19-.45-2.09-1.22-4.21-2.31-6.22-3.63.59-.49 1.22-.97 1.85-1.44 1.8 1.39 3.77 2.72 5.85 3.49.22.08.32-.24.15-.36-1.76-1.26-3.67-2.32-5.51-3.49.7-.5 1.42-.98 2.14-1.42 2.36 1.28 4.87 2.82 7.41 3.58.16.05.23-.17.11-.26-2.06-1.5-4.68-2.54-7.06-3.6.81-.49 1.61-.93 2.39-1.32 2.14 1.26 4.3 2.59 6.57 3.52.23.09.33-.25.16-.37-1.9-1.32-4.07-2.37-6.17-3.42.65-.3 1.27-.57 1.86-.78.32-.11.68-.25 1.06-.39 2.07 1.3 4.17 2.63 6.37 3.64.27.12.47-.22.23-.4-1.86-1.32-3.92-2.41-5.96-3.48.89-.34 1.89-.73 2.96-1.16 1.16.59 2.34 1.14 3.49 1.74 1.46.77 2.86 1.68 4.35 2.39.18.08.41-.15.23-.29-2.11-1.67-4.81-3.12-7.43-4.1.78-.31 1.59-.64 2.41-.98 2.51 1.68 5.08 3.51 7.8 4.7.16.07.38-.14.21-.27-2.2-1.83-4.84-3.26-7.37-4.69l1.68-.69c2.61 1.75 5.29 3.66 8.1 4.92.19.08.43-.16.24-.31-2.3-1.89-5.06-3.38-7.69-4.88.66-.27 1.32-.55 1.96-.81.99.56 1.97 1.15 2.96 1.72 3.1 4.33 9.33 12.96 12.22 16.54 3.99 4.95 26.24 19.3 27.18 19.91a1.002 1.002 0 0 0 1.05.02c.92-.55 22.54-13.52 28.08-19.06 5.07-5.07 12.57-17.29 14.07-19.77 4.35 1.64 10.67 4.33 17.44 8.26 9.89 5.74 10.83 8.03 12.4 11.83.38.93.82 1.98 1.41 3.17 2.49 4.91 2.45 16.78 2.38 20.24z" fill="#000000" stroke-width="none" opacity="1"></path></g><g id="svga-group-head" transform="matrix(1,0,0,1,0,0)"><g id="svga-group-ears-left-move" transform="matrix(1,0,0,1,1.5,0)"><g id="svga-group-ears-left"><path id="SvgjsPath6813" d="M59.9 81.9s-4.4-4.7-5.8-6.2c-1.4-1.4-3.1-4.7-5-4.1-1.9.5-1.2 2.7-1.3 5.8-.1 3.1.3 9.1 2.2 12.4 1.9 3.3 2.9 4.5 3.5 8 .6 3.5 2.8 4.2 4.1 3.2 1.3-1 4.3-7 4.4-10.2 0-3.2-1.2-7.5-2.1-8.9z" fill="#ffffff" stroke-width="none" opacity="1"></path><path id="SvgjsPath6814" d="M55.2 102.2c-.8-.3-2.3-1.3-2.8-4.2-.5-2.9-1.2-4-2.7-6.5l-.6-1.1c-2.1-3.6-2.5-10.1-2.4-13v-2c0-2-.1-4.1 2.1-4.7 2.1-.6 3.7 1.5 5 3.2.4.5.7.9 1 1.2 1.4 1.4 5.8 6.2 5.8 6.2l.1.1c.9 1.4 2.3 6 2.2 9.4-.1 3.4-3.2 9.8-4.8 11-.5.4-1.2.6-1.8.6-.4 0-.7-.1-1.1-.2zm-1.8-25.7c-.4-.4-.7-.9-1.1-1.4-.8-1.1-2.1-2.7-2.9-2.5-.6.2-.7.6-.6 2.8v2.1c-.1 3.1.3 8.9 2.1 11.9l.6 1.1c1.5 2.6 2.4 4 3 7.2.3 1.4.8 2.4 1.5 2.7.3.1.7.1 1-.1 1-.8 3.9-6.5 4-9.4.1-3-1.1-7.1-1.8-8.2-.7-.7-4.6-4.9-5.8-6.2z" fill="#000000" stroke-width="none" opacity="1"></path><path id="SvgjsPath6815" d="M48.2 76.3c.5-1.9 2.1-1 3 .4 1.9 2.6 3.2 6.6 3.6 10 0 .1-.1.2-.1.1-.1.1-.2.1-.2-.1-1.2-.5-1.6-.2-1.2.8 0 .3.1.6.3.9.2.5.6 1 .9 1.5.5.8 1.2 1.5 1.7 2.3.2.3 0 .6-.2.4-1.4-1-3.9-4.3-3.2-6.6.3-.8 1-1.1 1.5-.7-1.1-3.6-4-12-5.8-8.8-.1.1-.3 0-.3-.2z" fill="#000000" stroke-width="none" opacity="1"></path><path id="SvgjsPath6816" d="M51.1 76.8c-1 2-1.4 4.4-.9 7.1.3 1.5 2.9 9.5 4.9 8.4.2-.1.4.3.2.5-2 1.8-4.2-4.5-4.9-6.5-1.1-3.4-1.4-7.5.5-9.7.1-.1.2.1.2.2z" fill="#000000" stroke-width="none" opacity="1"></path></g></g><g id="svga-group-ears-right-move" transform="matrix(1,0,0,1,-1.5,0)"><g id="svga-group-ears-right"><path id="SvgjsPath6817" d="M140.1 81.9s4.4-4.7 5.8-6.2c1.4-1.4 3.1-4.7 5-4.1 1.9.5 1.2 2.7 1.3 5.8s-.3 9.1-2.2 12.4c-1.9 3.3-2.9 4.5-3.5 8-.6 3.5-2.8 4.2-4.1 3.2-1.3-1-4.3-7-4.4-10.2 0-3.2 1.2-7.5 2.1-8.9z" fill="#ffffff" stroke-width="none" opacity="1"></path><path id="SvgjsPath6818" d="M143.7 102.4c-.6 0-1.3-.2-1.8-.6-1.5-1.2-4.7-7.5-4.8-11-.1-3.4 1.2-8 2.2-9.4l.1-.1s4.4-4.7 5.8-6.2c.3-.3.6-.8 1-1.2 1.3-1.7 2.9-3.8 5-3.2 2.2.6 2.1 2.7 2.1 4.7v2c.1 2.9-.2 9.4-2.4 13l-.6 1.1c-1.5 2.5-2.2 3.7-2.7 6.5-.5 2.9-2 3.9-2.8 4.2-.4.1-.7.2-1.1.2zm-2.8-19.9c-.7 1.2-1.9 5.2-1.8 8.2.1 2.9 2.9 8.6 4 9.4.3.2.6.3 1 .1.7-.3 1.3-1.3 1.5-2.7.6-3.2 1.4-4.7 3-7.2l.6-1.1c1.8-3 2.2-8.7 2.1-11.9v-2.1c.1-2.2 0-2.6-.6-2.8-.8-.2-2 1.4-2.9 2.5-.4.5-.8 1-1.1 1.4-1.3 1.5-5.2 5.7-5.8 6.2z" fill="#000000" stroke-width="none" opacity="1"></path><path id="SvgjsPath6819" d="M151.8 76.3c-.5-1.9-2.1-1-3 .4-1.9 2.6-3.2 6.6-3.6 10 0 .1.1.2.1.1.1.1.2.1.2-.1 1.2-.5 1.6-.2 1.2.8 0 .3-.1.6-.3.9-.2.5-.6 1-.9 1.5-.5.8-1.2 1.5-1.7 2.3-.2.3 0 .6.2.4 1.4-1 3.9-4.3 3.2-6.6-.3-.8-1-1.1-1.5-.7 1.1-3.6 4-12 5.8-8.8.1.1.3 0 .3-.2z" fill="#000000" stroke-width="none" opacity="1"></path><path id="SvgjsPath6820" d="M148.9 76.8c1 2 1.4 4.4.9 7.1-.3 1.5-2.9 9.5-4.9 8.4-.2-.1-.4.3-.2.5 2 1.8 4.2-4.5 4.9-6.5 1.1-3.4 1.4-7.5-.5-9.7-.1-.1-.2.1-.2.2z" fill="#000000" stroke-width="none" opacity="1"></path></g></g><g id="svga-group-faceshape-wrap" transform="matrix(0.9799999,0,0,0.9998999000000001,1.9983774539955164,0.008283275381842259)"><g id="svga-group-faceshape-single"><path id="SvgjsPath8052" d="M141.7 91.8c-.3-5.4 2.1-24 2.1-24-.1-3.3-.3-8.9-1.4-14.2-2.3-11.4-15.1-28.8-42.4-28.8S63.6 38.2 59.6 48.1c-2.5 6.2-3.2 15.2-3.4 19.7 0 0 .4 17.5 1.1 23.3.7 5.8-4.7 22.4-3.7 26.4 1 4.1 28.8 16.9 33.2 21 4.4 4.1 16.3 5.1 21 2 4.7-3.1 34.9-22.4 36.6-24.1 1.7-1.5-2.4-19.1-2.7-24.6z" fill="#ffffff" stroke-width="none" opacity="1"></path><path id="SvgjsPath8053" d="M99.7 143.6c-5.2 0-10.9-1.5-13.7-4.1-1.7-1.6-7.4-4.7-13.4-8-12.1-6.7-19.5-10.9-20.2-13.6-.6-2.3.5-7.3 1.7-13 1.1-5.1 2.3-10.8 2-13.5C55.4 85.7 55 68.7 55 68c.2-4.8.9-13.8 3.4-20.1 6.6-16.2 20.1-24 41.5-24 12.3 0 23.2 3.6 31.3 10.4 6.3 5.2 10.9 12.5 12.2 19.3 1.1 5.5 1.3 11.4 1.4 14.4v.2c0 .2-2.4 18.5-2.1 23.8.1 1.8.7 5.3 1.3 8.9 1.9 11.4 2.4 15.4 1.1 16.7-1.1 1.1-12.4 8.5-35.4 23.3l-1.4.9c-2 1.2-5.2 1.8-8.6 1.8zM57.3 67.9c0 .9.4 17.6 1.1 23.2.4 3.1-.8 8.8-2 14.3-1 4.8-2.2 10.3-1.7 12 .1.2.6 1.3 6.2 4.8 3.7 2.3 8.4 4.9 12.9 7.3 6.4 3.5 11.9 6.6 13.8 8.3 3.9 3.6 15.3 4.7 19.6 1.9l1.4-.9c27.1-17.4 34-22.1 34.9-22.9.6-1.4-.8-9.8-1.7-14.8-.6-3.7-1.2-7.2-1.3-9.1-.3-5.3 1.9-22.6 2.1-24.1 0-3-.3-8.7-1.4-13.9-1.3-6.4-5.6-13.1-11.5-18-7.7-6.5-18-9.9-29.9-9.9-20.3 0-33.2 7.4-39.4 22.6-2.2 5.8-2.9 14.5-3.1 19.2z" fill="#000000" stroke-width="none" opacity="1"></path></g></g><g id="svga-group-mouth-single-move" transform="matrix(1,0,0,1,0,1)"><g id="svga-group-mouth-single" transform="matrix(1.350001300000001,0,0,1.350001300000001,-34.784090875123326,-42.23782453871053)"><path id="SvgjsPath7962" d="M112.4 120.4c-.5-.3-1.7-.4-2.1-.6-6.8-4.2-15-4-21.6.5-.3.1-2 .1-2.3.2-.6.2 1.4.8 2 .6 2.1-.7 4.1-1.1 6.4-1.1 1.9 0 3.6 1.2 5.5 1.1 1.6-.1 3.1-1.1 4.7-1.3 2.2-.2 3.5-.5 5.4.7.4.4 2.5.3 2-.1zm-6.4-1.5c-.1-.2-.2-.4-.2-.6.2.1.3.1.5.2v.1c.1.1.1.2.1.4-.2-.1-.3-.2-.4-.1zm-5.7-1.6h.7v.1c.2.8.4 1.6.7 2.4-.2 0-.3.1-.4.1-.3-.9-.6-1.8-1-2.6zm1.2 0c.2 0 .3 0 .5.1v.1c.2.7.4 1.3.6 2-.1 0-.3.1-.4.1-.3-.7-.5-1.5-.7-2.3zm1 .2c.2 0 .4.1.5.1.2.6.4 1.1.6 1.7-.2.1-.4.1-.6.2-.1-.8-.3-1.4-.5-2zm1.1.2c.2 0 .3.1.5.1v.1c.1.4.2.8.4 1.2-.1 0-.3.1-.4.1-.1-.6-.3-1.1-.5-1.5zm1.1.2c.2.1.4.1.6.2v.2c.1.2.2.4.2.7-.2 0-.3 0-.5.1-.1-.5-.2-.8-.3-1.2zm2.1.7c.3.1.7.3 1 .4-.3-.1-.6-.1-.9-.1-.1-.1-.1-.2-.1-.3zm-10.8.6c-.2-.5-.4-.9-.7-1.4.1 0 .3-.1.4-.1l.6 1.5H96zm-.9-.1c-.2-.3-.3-.7-.5-1.1.1 0 .2-.1.3-.1l.6 1.2h-.4zm-.8 0c-.2-.3-.3-.5-.5-.8.1 0 .2-.1.3-.1.1.3.3.6.4.9h-.2zm-.9 0-.3-.6c.1 0 .2-.1.3-.1.1.2.2.4.4.7h-.4zm-.9.2c-.1-.1-.2-.3-.2-.4.1-.1.3-.1.4-.2.1.2.2.3.2.5-.2 0-.3 0-.4.1zm-1.1.2c0-.1-.1-.1-.1-.2.2-.1.3-.2.5-.2.1.1.1.2.2.3-.2 0-.4 0-.6.1zm4.9-1.9c.2 0 .3-.1.5-.1.2.7.5 1.4.7 2-.2-.1-.4-.1-.5-.1-.3-.6-.5-1.2-.7-1.8zm.9-.1c.1 0 .3 0 .4-.1.3.8.7 1.6 1 2.4-.2 0-.4-.1-.6-.1-.2-.7-.5-1.5-.8-2.2zm.9-.2h.6v.1l.9 2.7c-.2 0-.3 0-.5-.1-.3-.9-.6-1.8-1-2.7zm-7.2 2.2s0 .1 0 0c-.1.1-.2.2-.3.2.1-.1.2-.1.3-.2zm9.3.5c-.3-.9-.7-1.8-.9-2.7h.6v.1c.4.8.7 1.7 1 2.6h-.7zm8.2 2.6c-5.6 2-11.6 2-17.2-.2-.3-.1-.4.4-.1.5 5.6 2.2 11.8 2.2 17.4.2.3-.1.2-.6-.1-.5z" fill="#000000" stroke-width="none" opacity="1"></path></g></g><g id="svga-group-eyes-left-move" transform="matrix(1,0,0,1,2,-2)"><g id="svga-group-eyes-left" transform="matrix(0.8999997000000001,0,0,0.8999997000000001,7.877033404283708,8.690026222588344)"><g id="svga-group-eyesback-left"></g><g id="svga-group-eyesiriswrapper-left"><g id="svga-group-eyesiriscontrol-left" transform="matrix(1,0,0,1,3,-1)"><g id="svga-group-eyesiris-left"><path id="SvgjsPath8861" d="M83.4 85c-1.1-2.1-3.5-2.9-5.7-2.2-2.4.8-4.2 3.3-3.3 5.9.5 1.4 1.6 2.6 3.1 2.9.5.1 1 .1 1.6.1.6.1 1.2 0 1.8-.2 2.5-.9 3.8-4 2.5-6.5z" fill="#ffffff" stroke-width="none" opacity="1"></path><path id="SvgjsPath8862" d="M79.4 92.1H79c-.5 0-1.1 0-1.6-.1-1.5-.3-2.8-1.6-3.3-3.2-.9-2.8 1.1-5.4 3.5-6.3 2.4-.8 5 .1 6.1 2.3.7 1.3.7 2.8.2 4.1-.5 1.3-1.6 2.4-2.9 2.8-.6.3-1.1.4-1.6.4zm-.4-.7c.6.1 1.2 0 1.7-.2 1.2-.4 2.1-1.3 2.6-2.5s.4-2.5-.2-3.6c-1-1.9-3.2-2.7-5.3-2-2.2.8-4 3.1-3.1 5.5.5 1.4 1.6 2.5 2.8 2.7.4.1.9.2 1.5.1zm2.6-5.3c0-.1 0-.1-.1-.2-.6-1.2-2.2-1.7-3.4-1.1.3.2.5.6.6.8.2.4.6 1.1.1 1.3-.4.2-1.1 0-1.4-.2-.2-.1-.4-.3-.5-.5 0 .1-.1.1-.1.2-.1.2-.1.5-.1.7-.2.7 0 1.5.6 2.1.3.2.6.4.9.4.6.3 1.3.4 2 .1-.1-.1-.2-.3-.2-.4 0-.3.2-.6.5-.7.3-.1.6 0 .8.2.3-.3.5-.8.6-1.2.1-.5 0-1-.3-1.5zm-5.2 1.3c-.5-.1-.9-.1-1.4-.2-.1 0-.1.1 0 .1.4.1 1 .3 1.4.3 0-.1.1-.2 0-.2zm-.1.9c-.2 0-.4.1-.7.1-.2.1-.5.1-.8.1-.1 0-.1.1 0 .1.5 0 1.1 0 1.5-.3.1 0 .1 0 0 0zm.4.9c-.2.1-.4.3-.6.4-.2.1-.4.2-.6.4-.1.1 0 .2.1.1.4-.3.9-.5 1.1-.9.1 0 .1-.1 0 0zm1 .7c-.3.3-.5.7-.7 1-.1.1.1.2.1.1.2-.3.5-.7.7-1 0-.1-.1-.2-.1-.1zm.9.4c-.1.4-.2.8-.2 1.2 0 .1.1.1.2 0 0-.4.1-.8.2-1.2-.1-.1-.2-.1-.2 0zm1.6.5c-.1-.2-.1-.3-.2-.5 0 0-.1 0-.1.1 0 .2.1.3.2.5s.1.4.2.6c0 .1.1.1.1 0-.1-.3-.2-.5-.2-.7zm1.3-.2-.3-.3c-.1-.1-.2-.2-.3-.4-.1-.1-.1 0-.1.1.1.1.2.3.3.4 0 .1.2.2.4.2 0 .1 0 0 0 0zm1-.8c-.1-.1-.3-.2-.5-.3l-.6-.3c-.1 0-.2.1-.1.1.2.1.4.3.6.4.2.1.4.2.6.2 0 0 .1 0 0-.1zm.6-1.4c-.2-.1-.3-.1-.5-.1s-.4-.1-.5-.2c-.1 0-.1.1-.1.1.3.1.7.3 1.1.3v-.1zm.2-1.9c-.4.1-.8.3-1.1.5-.1.1 0 .2.1.1.2-.1.4-.2.6-.2.2-.1.4-.1.6-.2 0-.1-.1-.3-.2-.2zm-.9-2.2-.1-.1s-.1 0-.1.1c0 0-.4.5-.5.5-.2.2-.3.4-.4.6-.1.1.1.1.1.1.3-.4.6-.7.9-1 .2-.1.2-.1.1-.2zm-2.1-.8c-.1.2-.1.4-.2.5-.1.2-.1.4-.2.6 0 .1.1.1.1 0 .1-.2.2-.4.2-.6.1-.2.2-.4.2-.6.1.1 0 0-.1.1zm-1.4.8c-.1-.2-.1-.3-.2-.5s-.1-.3-.2-.5c0-.1-.1-.1-.1 0-.1.3.2.8.3 1.1.1.1.3 0 .2-.1zm-1.3 0c-.1-.2-.2-.3-.3-.5 0-.1-.1 0-.1.1.1.2.2.4.2.6.1.2.2.4.3.4.1 0 .1 0 .1-.1 0-.2-.1-.4-.2-.5zm-.7 1-.3-.3c-.1-.1-.3-.2-.4-.3-.1-.1-.2 0-.1.1s.2.3.4.4c.1.1.2.2.4.3 0 0 .1-.1 0-.2zm-.8.9c-.3-.2-.7-.2-1-.3-.1 0-.1.1 0 .1.3.1.6.3.9.4.1-.1.1-.2.1-.2z" fill="#000000" stroke-width="none" opacity="1"></path></g></g></g><g id="svga-group-eyesfront-left"><path id="SvgjsPath8831" d="M79 72.1c-8.2 0-14.8 6.6-14.8 14.8s6.6 14.8 14.8 14.8 14.8-6.6 14.8-14.8c0-8.1-6.6-14.8-14.8-14.8zm1.6 21.8c-5.5 1.3-10.3.4-12.2-.7-1.8-1.2-2.5-5.2-2.5-5.2 4.5-2.9 12.2-5.3 16.7-5.7s5.6 2.1 6.2 3.2c.7 1.1 1.1 6.3 1.1 6.4-.1 0-3.8.7-9.3 2z" fill="#ffffff" stroke-width="none" opacity="1"></path><path id="SvgjsPath8832" d="M89.2 85.1c-1.5-2.9-2.3-3.4-5.2-3.6-.9 0-9.5-.2-20 7-.3.2-.3.6-.2.8.2.3.6.3.8.2l.9-.6c.2 1.1 1.2 5.6 6.8 6.2.2 0 .4 0 .5.1 5.1.4 13-1.7 15.7-2.4.4-.1.7-.2.8-.2 0 .2 0 .3.1.4-.4.3-.7.6-1 .9-.2.2 0 .4.3.3.6-.2 1.1-.7 1.6-1.1l.1-.1c.1-.1.1-.1.1-.2.2-.3.2-4.8-1.3-7.7zm.1 6.4c-.1 0-.2 0-1.1.2-2.7.7-10.9 2.9-15.7 2.3-5.3-.6-5.8-5.2-5.8-5.4 0-.1-.1-.2-.2-.3 9.3-5.7 16.5-5.6 17.4-5.6 2.4.1 2.8.3 4.2 2.9 1 1.9 1.2 4.4 1.2 5.9.1 0 0 0 0 0zm-16.2 5.1c-2.1-.7-4-1.2-5.9-2.3-.2-.1-.5.2-.3.4 1.7 1.3 3.9 2.4 6.1 2.3.3 0 .3-.3.1-.4z" fill="#000000" stroke-width="none" opacity="1"></path></g></g></g><g id="svga-group-eyes-right-move" transform="matrix(1,0,0,1,-2,-2)"><g id="svga-group-eyes-right" transform="matrix(0.8999997000000001,0,0,0.8999997000000001,12.101285998573289,8.690026222588344)"><g id="svga-group-eyesback-right"></g><g id="svga-group-eyesiriswrapper-right"><g id="svga-group-eyesiriscontrol-right" transform="matrix(1,0,0,1,3,-1)"><g id="svga-group-eyesiris-right"><path id="SvgjsPath8863" d="M125.4 85c-1.1-2.1-3.5-2.9-5.7-2.2-2.4.8-4.2 3.3-3.3 5.9.5 1.4 1.6 2.6 3.1 2.9.5.1 1 .1 1.6.1.6.1 1.2 0 1.8-.2 2.6-.9 3.8-4 2.5-6.5z" fill="#ffffff" stroke-width="none" opacity="1"></path><path id="SvgjsPath8864" d="M121.4 92.1h-.4c-.5 0-1.1 0-1.6-.1-1.5-.3-2.8-1.6-3.3-3.2-.9-2.8 1.1-5.4 3.5-6.3 2.4-.8 5 .1 6.1 2.3.7 1.3.7 2.8.2 4.1-.5 1.3-1.6 2.4-2.9 2.8-.6.3-1.1.4-1.6.4zm-.4-.7c.6.1 1.2 0 1.7-.2 1.2-.4 2.1-1.3 2.6-2.5s.4-2.5-.2-3.6c-1-1.9-3.2-2.7-5.3-2-2.2.8-4 3.1-3.1 5.5.5 1.4 1.6 2.5 2.8 2.7.5.1 1 .2 1.5.1zm2.6-5.3c0-.1 0-.1-.1-.2-.6-1.2-2.2-1.7-3.4-1.1.3.2.5.6.6.8.2.4.6 1.1.1 1.3-.4.2-1.1 0-1.4-.2-.2-.1-.4-.3-.5-.5 0 .1-.1.1-.1.2-.1.2-.1.5-.1.7-.2.7 0 1.5.6 2.1.3.2.6.4.9.4.6.3 1.3.4 2 .1-.1-.1-.2-.3-.2-.4 0-.3.2-.6.5-.7.3-.1.6 0 .8.2.3-.3.5-.8.6-1.2.1-.5 0-1-.3-1.5zm-5.2 1.3c-.5-.1-.9-.1-1.4-.2-.1 0-.1.1 0 .1.4.1 1 .3 1.4.3.1-.1.1-.2 0-.2zm-.1.9c-.2 0-.4.1-.7.1-.2.1-.5.1-.8.1-.1 0-.1.1 0 .1.6 0 1.2 0 1.5-.3.1 0 .1 0 0 0zm.5.9c-.2.1-.4.3-.6.4-.2.1-.4.2-.6.4-.1.1 0 .2.1.1.4-.3.9-.5 1.1-.9.1 0 0-.1 0 0zm.9.7c-.3.3-.5.7-.7 1-.1.1.1.2.1.1.2-.3.5-.7.7-1 0-.1-.1-.2-.1-.1zm.9.4c-.1.4-.2.8-.2 1.2 0 .1.1.1.2 0 0-.4.1-.8.2-1.2 0-.1-.2-.1-.2 0zm1.6.5c-.1-.2-.1-.3-.2-.5 0 0-.1 0-.1.1 0 .2.1.3.2.5s.1.4.2.6c0 .1.1.1.1 0-.1-.3-.2-.5-.2-.7zm1.3-.2-.3-.3c-.1-.1-.2-.2-.3-.4-.1-.1-.1 0-.1.1.1.1.2.3.3.4.1.1.2.2.4.2 0 .1.1 0 0 0zm1.1-.8c-.1-.1-.3-.2-.5-.3l-.6-.3c-.1 0-.2.1-.1.1.2.1.4.3.6.4.2.1.4.2.6.2v-.1zm.5-1.4c-.2-.1-.3-.1-.5-.1s-.4-.1-.5-.2c-.1 0-.1.1-.1.1.3.1.7.3 1.1.3.1 0 .1-.1 0-.1zm.2-1.9c-.4.1-.8.3-1.1.5-.1.1 0 .2.1.1.2-.1.4-.2.6-.2.2-.1.4-.1.6-.2 0-.1-.1-.3-.2-.2zm-.8-2.2-.1-.1s-.1 0-.1.1c0 0-.4.5-.5.5-.2.2-.3.4-.4.6-.1.1.1.1.1.1.3-.4.6-.7.9-1 .1-.1.1-.1.1-.2zm-2.1-.8c-.1.2-.1.4-.2.5-.1.2-.1.4-.2.6 0 .1.1.1.1 0 .1-.2.2-.4.2-.6.1-.2.2-.4.2-.6 0 .1-.1 0-.1.1zm-1.4.8c-.1-.2-.1-.3-.2-.5s-.1-.3-.2-.5c0-.1-.1-.1-.1 0-.1.3.2.8.3 1.1.1.1.2 0 .2-.1zm-1.4 0c-.1-.2-.2-.3-.3-.5 0-.1-.1 0-.1.1.1.2.2.4.2.6.1.2.2.4.3.4.1 0 .1 0 .1-.1.1-.2-.1-.4-.2-.5zm-.6 1-.3-.3c-.1-.1-.3-.2-.4-.3-.1-.1-.2 0-.1.1s.2.3.4.4c.1.1.2.2.4.3v-.2zm-.9.9c-.3-.2-.7-.2-1-.3-.1 0-.1.1 0 .1.3.1.6.3.9.4.1-.1.2-.2.1-.2z" fill="#000000" stroke-width="none" opacity="1"></path></g></g></g><g id="svga-group-eyesfront-right"><path id="SvgjsPath8833" d="M121 72.1c-8.2 0-14.8 6.6-14.8 14.8s6.6 14.8 14.8 14.8 14.8-6.6 14.8-14.8c0-8.1-6.6-14.8-14.8-14.8zm9.8 21.8c-2 1-6.8 1.5-12.2-.2s-9-2.7-9-2.7c0-.2.8-5.3 1.5-6.3s2-3.5 6.5-2.7c4.4.7 12 3.7 16.2 7 0-.1-1 3.8-3 4.9z" fill="#ffffff" stroke-width="none" opacity="1"></path><path id="SvgjsPath8836" d="M135.6 89.6c-9.9-8-18.5-8.5-19.4-8.5-1.1 0-1.8 0-2.5.2-.7-.1-1.5-.2-2.2-.1-.3 0-.4.4-.1.5.3.1.7.2 1.1.2-.6.5-1.1 1.2-1.8 2.3-1.7 2.7-2.1 7.2-1.9 7.8.1.2.3.4.6.4h.2c.3-.1.4-.3.4-.6.1 0 .3.1.7.2 2.6.9 10.3 3.6 15.4 3.6h.5c5.7-.2 7-4.7 7.3-5.7.3.2.6.4.8.6.3.2.6.2.9-.1.3-.2.3-.6 0-.8zm-2.7-.1c0 .2-.8 4.7-6.2 4.9-4.9.2-12.9-2.6-15.5-3.5-.8-.3-.9-.3-1-.3h-.1c.2-1.5.6-4 1.7-5.7 1.6-2.5 2-2.7 4.4-2.6.8 0 8.1.4 16.9 6.9-.1 0-.2.1-.2.3z" fill="#000000" stroke-width="none" opacity="1"></path></g></g></g><g id="svga-group-facehighlight-single"></g><g id="svga-group-eyebrows-left-move" transform="matrix(1,0,0,1,2,-4)"><g id="svga-group-eyebrows-left-rotate" transform="matrix(0.9825664732332882,-0.1859116071629147,0.1859116071629147,0.9825664732332882,-12.192261503803934,15.67159004004403)"><g id="svga-group-eyebrows-left" transform="matrix(1.0000001,0,0,1.0000001,-0.000007731498911311974,-0.000007507355505254054)"><path id="SvgjsPath9031" d="M63.19 79.72s3.09-9.26 3.97-9.85c.88-.59 24.4 1.03 24.4 1.03s-3.38 5.44-4.7 6.17c-1.32.73-17.49-1.18-18.67-.73-1.18.44-5 3.38-5 3.38z" fill="#ffffff" stroke-width="none" opacity="1"></path><path id="SvgjsPath9032" d="m62.42 80.79 1-.77c1.05-.81 3.98-2.98 4.9-3.32.48-.16 4.29.13 7.64.39 6.37.49 10.29.76 11.07.32 1.37-.76 4.49-5.74 4.84-6.31l.34-.54-.64-.04c-.06 0-5.95-.41-11.87-.74-12.11-.67-12.53-.38-12.76-.23-.92.61-3.39 7.84-4.12 10.05l-.4 1.19zm4.66-10.17-.7 6.32c-.4.27-.82.55-1.22.84.41-1.73 1.4-5.91 1.46-6.11.01-.02-.01-.04-.01-.06.17-.41.33-.74.47-.99zm3.39-.47-.35 5.77c-.26-.01-.48-.02-.69-.02l-1.16-5.76c.54-.02 1.29-.01 2.2.01zm2.48 5.94c-.48-.03-.93-.07-1.33-.09l.9-5.79c.64.02 1.31.05 2.03.08l-1.6 5.8zm2.12-5.77.71.03-1.92 5.81-.4-.03 1.61-5.81zm-3.96 5.65-.48-.03.35-5.78 1.02.03-.89 5.78zm6.06-1.72.96-3.78c.28.01.56.03.85.04l-1.81 3.74zm1.03-.96-.96 3.13c-.18-.01-.36-.03-.54-.04l1.5-3.09zm3.97-2.6-2.57 5.89c-.62-.04-1.23-.09-1.83-.13l1.81-5.91c.85.06 1.72.1 2.59.15zm-1.87 5.95 2.85-3.8-1.89 3.86-.96-.06zm1.52.09 2.89-5.89 2.37.15-2.63 5.86c-.77-.02-1.67-.06-2.63-.12zm2.22-5.92-3.24 4.32 1.92-4.4c.44.02.88.05 1.32.08zm2.62 5.93c-.07.04-.21.06-.38.08l3.57-5.65c.35.02.69.05 1.03.07-1.11 1.75-3.31 5-4.22 5.5zm-1.66.12 2.62-5.83c.56.04 1.11.07 1.65.11l-3.62 5.72H85zm-10.6-.66 1.92-5.82 1.29.06-1.5 5.88c-.03 0-.06 0-.08-.01-.59-.03-1.12-.07-1.63-.11zm-6.35-.22c-.27.1-.67.33-1.12.61l.71-6.42c.03 0 .06-.01.1-.01l1.16 5.74c-.42 0-.7.03-.85.08zm-4.1 2.68c.46-1.36.95-2.7 1.4-3.92-.35 1.48-.71 3-.83 3.5-.2.15-.4.29-.57.42z" fill="#000000" stroke-width="none" opacity="1"></path></g></g></g><g id="svga-group-eyebrows-right-move" transform="matrix(1,0,0,1,-2,-4)"><g id="svga-group-eyebrows-right-rotate" transform="matrix(0.982566472584334,0.18591161059271855,-0.18591161059271855,0.982566472584334,15.678931239568954,-21.5103484458551)"><g id="svga-group-eyebrows-right" transform="matrix(1.0000001,0,0,1.0000001,-0.000012268499006040656,-0.0000075073539846926)"><path id="SvgjsPath9033" d="M136.81 79.72s-3.09-9.26-3.97-9.85c-.88-.59-24.4 1.03-24.4 1.03s3.38 5.44 4.7 6.17c1.32.73 17.49-1.18 18.67-.73s5 3.38 5 3.38z" fill="#ffffff" stroke-width="none" opacity="1"></path><path id="SvgjsPath9034" d="M137.18 79.6c-.73-2.2-3.2-9.43-4.12-10.05-.23-.15-.66-.44-12.76.23-5.92.33-11.81.73-11.87.74l-.64.04.34.54c.35.57 3.47 5.54 4.84 6.31.78.43 4.7.17 11.07-.32 3.36-.26 7.16-.55 7.64-.39.92.34 3.85 2.52 4.9 3.32l1 .77-.4-1.19zm-3.78-7.99c0 .02-.01.04-.01.06.05.2 1.05 4.39 1.46 6.11-.4-.29-.82-.58-1.22-.84l-.7-6.32c.13.25.29.58.47.99zm-1.66-1.48-1.16 5.76c-.21 0-.43.01-.69.02l-.35-5.77c.9-.01 1.65-.02 2.2-.01zm-6.29.17c.71-.03 1.39-.06 2.03-.08l.9 5.79c-.4.03-.85.06-1.33.09l-1.6-5.8zm1.08 5.83-.4.03-1.92-5.81.71-.03 1.61 5.81zm1.47-5.94 1.02-.03.35 5.78-.48.03-.89-5.78zm-6.97.33c.28-.02.57-.03.85-.04l.96 3.78-1.81-3.74zm2.27 5.86c-.18.01-.36.03-.54.04l-.96-3.13 1.5 3.09zm-2.88-5.83 1.81 5.91c-.6.05-1.22.09-1.83.13l-2.57-5.89c.87-.06 1.74-.1 2.59-.15zm-1.68 6.15-1.89-3.86 2.85 3.8-.96.06zm-3.18.15-2.63-5.86 2.37-.15 2.89 5.89c-.97.06-1.87.1-2.63.12zm1.73-6.12 1.92 4.4-3.24-4.32c.43-.03.87-.06 1.32-.08zm-8.17.51c.34-.02.68-.05 1.03-.07l3.57 5.65c-.18-.02-.31-.05-.38-.08-.91-.5-3.11-3.75-4.22-5.5zm5.23 5.62-3.62-5.72c.54-.04 1.09-.07 1.65-.11l2.62 5.83h-.65zm9.63-.54c-.03 0-.06 0-.08.01l-1.5-5.88 1.29-.06 1.92 5.82c-.52.03-1.05.07-1.63.11zm7.12-.43 1.16-5.74c.04 0 .07.01.1.01l.71 6.42c-.45-.28-.85-.51-1.12-.61-.15-.04-.43-.07-.85-.08zm4.38 2.36c-.12-.5-.48-2.02-.83-3.5.46 1.21.94 2.56 1.4 3.92-.17-.14-.37-.28-.57-.42z" fill="#000000" stroke-width="none" opacity="1"></path></g></g></g><g id="svga-group-beardwrap" transform="matrix(0.9799999,0,0,0.9998999000000001,0,0)"><g id="svga-group-beard-single-move" transform="matrix(1,0,0,1,1,2)"><g id="svga-group-beard-single"><path id="SvgjsPath7817" d="M122.5 112.9c-1.7-2.3-4.1-2.8-6.5-2.2-.7 0-1.4.1-2.2.2-.6 0-1.1 0-1.7.1-3 .3-5.9 1.4-8.9 1.8-1.5.2-2.9.3-4.3.2-3.8-.8-8.3-1.7-12.3-1.5-.7-.1-1.5-.1-2.2-.2-3.2-.2-6.1.9-7.5 4-.3.6-.5 1.2-.6 1.8-.4.9-.8 1.8-1 3-.7 3.3-.1 7.6 1.5 11.6 0 .1 0 .2.1.3.1 5 3.7 9.5 7.5 12.6 1.6 1.3 3.3 2.3 5.2 3.1 0 .1.1.3.3.4 3.2 1.4 7.1 2.2 10.6 1.5 1.6-.1 3.3-.2 4.9-.5 2.7-.4 5-1.3 7-2.4 6.5-2.6 10.3-13 11.1-18.8.6-4.6 1.9-10.9-1-15zm-6.1 12c-.2 1.1-.5 2.1-.8 3.1-1 1.4-1.8 3-3 4.3l-1.8 1.8c-1.7.8-3.5 1.3-5.6 1.3-.1 0-.1-.1-.2-.1-.1-.4-.3-.9-.4-1.3-.1-.8-.1-1.6.2-2.3s-.7-1.2-1.2-.8c-.8 0-1.6.3-2.4.4h-.1c-.7-.2-1.4 0-2.1 0-1 0-1.9-.2-2.9-.3H96c-.7-.3-1.2.5-1.1 1.1 0 .1.1.3.2.4v.1c0 .9-.2 1.8-.7 2.6-.1.1-.2.1-.4.1-.2.1-.4.1-.5.1-2.7-.2-5.2-1.4-7.2-3.2-.5-.5-1-1-1.4-1.6-1.9-2.5-3.1-5.4-3.4-8.5 0-.1-.1-.3-.1-.4v-3.6c.4-.6.8-1.1 1.3-1.4.8-.5 1.6-.7 2.6-.9.4.1.8.1 1.1.1 1.3 0 2.6.1 3.8.1 1.3.2 2.6.4 3.8.6.7.1 1.5.1 2.2.2.3 0 .7.1 1 .1 3 .2 5.9-.1 8.9-.6 1.4-.3 2.7-.6 4-.9.8-.1 1.5-.2 2.2-.4 1.8.3 3.7.5 5.1 1.7 0 .9.1 1.9.1 2.8-.8 1.6-.8 3.6-1.1 5.4z" fill="#000000" stroke-width="none" opacity="1"></path><path id="SvgjsPath7818" d="M86.5 112.6c-2.1 0-4.3.7-5.6 2.4-.2.2.2.6.4.3 1.4-1.5 3.4-1.7 5.2-2.4.3 0 .3-.3 0-.3zm2.4 1c-2-.2-4 .4-5.8 1.2-.3.2-.1.6.3.5 1.8-.8 3.7-1.1 5.6-1.3.2-.1.1-.4-.1-.4zm3.7-.1c-1.3.3-2.5.8-3.8 1.1-.3.1-.2.5.1.5 1.4-.2 2.7-.4 3.9-1.2.1-.2 0-.4-.2-.4zm2.1.2c-.4.1-.7.2-1 .4l-1.1.5c-.4.2-.1.7.3.5.7-.3 1.5-.5 2.1-1 .1-.2-.1-.5-.3-.4zm1.2.3c-.6.2-1.1.7-1.6 1.1-.2.2 0 .6.2.4.5-.3 1.2-.7 1.6-1.1.2-.3 0-.5-.2-.4zm3.2-.3c-.4.2-.7.6-1.1.8l-1.2.9c-.3.2-.1.8.3.6.8-.5 1.8-1.1 2.2-2 .2-.2 0-.4-.2-.3zm.7 1c-.4.6-.6 1.2-.8 1.9-.1.3.4.5.5.2.3-.7.5-1.2.7-1.9 0-.2-.3-.4-.4-.2zm1.6-.6c0-.3-.4-.3-.5 0-.1.8.1 1.9.9 2.4.2.1.4-.1.3-.3-.3-.7-.7-1.3-.7-2.1zm3.9 1.5c-.6-.2-1.1-.4-1.5-1-.2-.3-.6 0-.4.2.4.7 1.1 1.2 1.9 1.1.2 0 .1-.3 0-.3zm3.9-.5c-1-.1-2.1-.3-2.7-1.2-.3-.4-.9 0-.7.4.8 1 2.2 1.8 3.4 1.2.2-.1.1-.4 0-.4zm2.9-.8c-.5-.1-1-.1-1.5-.3-.6-.2-1.1-.5-1.6-.9-.3-.2-.7.2-.4.4.9.8 2.3 1.6 3.5 1.2.2 0 .2-.3 0-.4zm4-.4c-1.1-.4-2.3-.8-3.3-1.4-.3-.2-.5.2-.2.4 1 .7 2.2 1.4 3.5 1.4.2-.1.2-.4 0-.4zm4 .2c-1.6-.7-3.2-1.2-4.6-2.2-.2-.1-.4.2-.2.3 1.2 1.2 3 2.4 4.7 2.4.2 0 .3-.4.1-.5zm2 .2c-.6-.7-1.4-1.2-2-2-.2-.2-.6.1-.4.3.5.7 1.1 1.1 1.7 1.7.6.7 1 1.4 1.4 2.2.1.2.3.1.3-.1-.2-.7-.5-1.4-1-2.1zm-2.3 1.1c-.3-.4-.8.2-.5.5 1.5 1.9 2.3 4 2.2 6.4 0 .1.2.2.3.1 1-2.5-.3-5-2-7zm.6 7.7c0-.2-.4-.2-.4.1.3 2.5.2 4.9.3 7.4 0 .3.4.4.5.1.4-2.6 0-5.2-.4-7.6zm-.9 5.3c-.1-.3-.5-.2-.5.1.4 2.1.3 4 .2 6.1 0 .2.3.2.3 0 .6-1.9.4-4.1 0-6.2zm-.5-9.4c-.1-.3-.5-.2-.5.1.2 1.5.3 3.1.6 4.6.1.2.4.2.4-.1.1-1.5-.3-3.1-.5-4.6zm-.4 4.8c-.1-.3-.5-.2-.4.1.2.9.3 1.8.5 2.6.1.2.4.1.4-.1 0-.7-.3-1.7-.5-2.6zm0 10.7c0-.3-.5-.3-.5 0 .1 2.4-.3 4.7-.6 7.2 0 .3.3.4.4.1.8-2.4.9-4.9.7-7.3zm-1.7-4.8c-.1-.3-.6-.2-.6.1.2 1.3.2 2.6.4 3.9 0 .3.4.4.5.1.3-1.4.1-2.8-.3-4.1zm-1.2 2.9c0-.2-.4-.2-.4 0 .2 3.4-.1 6.8-.4 10.2 0 .2.2.2.3 0 .9-3.3.9-6.8.5-10.2zm-2.6 8.9c-.2 2-.8 3.7-1.3 5.6-.1.2.2.3.3.1.9-1.7 1.2-3.8 1.4-5.7 0-.2-.4-.2-.4 0zm-2.7.8c-.2 1.9-.8 3.7-1.2 5.6-.1.3.3.4.4.2.8-1.8 1.2-3.8 1.3-5.7 0-.3-.5-.4-.5-.1zm-2.4 3.1c-.3.9-.9 1.8-1.3 2.7-.1.2.2.3.3.2.7-.7 1.1-1.8 1.4-2.8.1-.3-.3-.4-.4-.1zm2-9.3c0-.2-.4-.3-.4-.1-.2 1.8-.7 3.7-.7 5.6 0 .3.4.3.5.1.6-1.8.6-3.8.6-5.6zm1.4-.5c-.1 1.5-.4 3-.3 4.5 0 .2.3.3.4.1.3-1.5.3-3.1.4-4.5 0-.4-.5-.4-.5-.1zm2.4-1.9c-.1-.3-.5-.2-.5.1.1 1.1 0 2.3.1 3.4 0 .3.4.3.5.1.3-1.2.1-2.4-.1-3.6zM81 113c-1 .4-1.6 1.4-2.3 2.2-.7 1-1.5 2-1.6 3.2 0 .3.4.4.5.1 1-1.8 2-3.9 3.7-5.2.2-.1-.1-.4-.3-.3zm-2.1 6.4c-1.6 1.5-2.2 3.6-2.2 5.7 0 .2.3.2.3 0 .6-1.9.9-3.9 2.2-5.5.2-.1-.1-.3-.3-.2zm1.5-2.5c-.3.6-.7 1.2-.9 1.8-.1.1.2.2.2.1.4-.5.7-1.1 1-1.7.1-.2-.2-.4-.3-.2zm-2.1 8.1c-.7 1.8-1.1 3.8-.9 5.7 0 .2.3.1.3 0 .3-1.9.4-3.7.8-5.6.1-.2-.1-.2-.2-.1zm-1.9-4.1c-.6.8-1.2 2-.8 2.9.1.2.4.2.5 0 .1-.4.1-.9.2-1.3.1-.5.3-.9.6-1.4.1-.2-.3-.4-.5-.2zm3.9 1.1c-.2 1.1-.4 2.2-.6 3.2 0 .1.2.2.2 0 .4-1.1.5-2.2.7-3.3 0-.1-.3-.1-.3.1zm-.2 6.9c0-.2-.4-.3-.4-.1-.4 1.9-.6 4-.2 5.9.1.2.4.2.4-.1.2-1.9.1-3.8.2-5.7zm1.6 5.2c0-.3-.5-.2-.5.1.1 1.4.3 2.8.9 4.1.1.2.3.1.3-.1-.2-1.4-.6-2.7-.7-4.1zm.4-6.8c0-.3-.4-.3-.5 0-.2 1.5-.4 3.2.1 4.7.1.2.5.2.5-.1-.1-1.5-.3-3-.1-4.6zm1.4 4.3c0-.2-.5-.2-.4.1.1 1.3.1 2.8.4 4.1.1.2.4.2.4-.1 0-1.4-.2-2.8-.4-4.1zm2.5 12.3c-.7-1.8-1.3-3.4-1.8-5.2-.1-.2-.4-.2-.4.1.1 1.9.7 4 1.9 5.4.1.2.4-.1.3-.3zm2.3 1c-.8-2-1.7-3.8-2.2-5.9-.1-.3-.5-.2-.4.1.4 2.1 1.1 4.2 2.3 5.9.1.3.4.1.3-.1zm-2.1-11.7c0-.2-.3-.3-.4-.1-.5 1.4-.6 3 0 4.4.1.2.5.1.5-.1-.1-1.5-.2-2.8-.1-4.2zM88 135c-.1-.2-.4-.1-.4.1.2 1.4.3 3 .8 4.4.1.2.4.2.4-.1-.1-1.5-.5-3-.8-4.4zm4.6 11.8c-1.5-1.9-2.7-3.6-3-6.1 0-.2-.5-.2-.4.1.2 2.4 1.2 4.9 3.2 6.3.1.1.3-.2.2-.3zm2.4 1.4c-.3-.6-.8-1.1-1.1-1.6-.4-.6-.7-1.1-1-1.8-.1-.3-.5 0-.4.2.5 1.2 1.2 2.7 2.3 3.4.1.2.3 0 .2-.2zm.8-2.9c-.2-.4-.8-.1-.7.3.5 1.2 1 2.6 2 3.5.1.1.4 0 .3-.2-.3-1.3-1.1-2.4-1.6-3.6zm-4.6-9.2c0-.3-.4-.3-.4 0-.1 2 .2 4.2 1.3 5.9.1.2.5.1.4-.2-.6-1.9-1.2-3.7-1.3-5.7zm2.8 2.3c0-.3-.6-.3-.5 0 .1 1.7.5 3.7 1.6 5.1.1.2.4 0 .4-.2-.6-1.7-1.3-3.1-1.5-4.9zm2.5-5.5c.1-.3-.4-.5-.5-.1-.4 1.9-.6 3.9 0 5.8.1.2.4.2.4-.1-.1-1.9-.2-3.7.1-5.6zm1.4 4.4c0-.4-.5-.4-.6 0-.1 2.1.1 4.4 1.2 6.3.2.3.6.1.5-.2-.4-2.1-1-4-1.1-6.1zm1.3 9.8c-.7-1.5-1.5-2.9-2-4.5-.1-.3-.5-.2-.4.1.5 1.6 1.1 3.3 2.2 4.6 0 .2.3 0 .2-.2zm2.1-1.9c0-.2-.3-.2-.3 0-.3 1.1-.3 2.3-.4 3.4 0 .3.5.3.5 0 .1-1.2.3-2.3.2-3.4zm3.1-.7c0-.3-.4-.4-.5-.1-.4 1.2-.5 2.5-1 3.7-.1.4.4.6.6.2.6-1.1 1.1-2.5.9-3.8zm1.9-1.2c-.4 1.4-.8 2.9-1.1 4.4-.1.3.4.4.5.1.4-1.5.8-2.9 1.1-4.4 0-.3-.4-.4-.5-.1zm.8-4.5c-.1-.2-.4-.1-.4.1 0 1 .2 2-.1 3-.1.4.5.5.6.2.3-1 .4-2.3-.1-3.3zm-3.3.7c-.1-.2-.4-.2-.5 0-.2 1-.2 2.2-.2 3.3 0 .4.5.4.6.1.2-1.1.3-2.3.1-3.4zm-2.2.5c0-.2-.3-.3-.4-.1-.3.9-.2 2.1 0 3 .1.3.5.2.5-.1-.1-.9 0-1.9-.1-2.8zm3.9-3.8c0-.3-.5-.3-.5 0 0 .8-.2 1.8 0 2.6.1.2.4.2.4 0 .3-.8.1-1.8.1-2.6zm-2.7-1.4c0-.3-.5-.3-.5 0 0 1.1-.2 2.1-.4 3.1 0 .2.3.3.4.1.6-.9.6-2.1.5-3.2zm-3.1 1.1c-.2 1.1-.5 2.7-.2 3.7.1.2.4.2.4 0 .2-.5.2-1.1.2-1.7 0-.6.1-1.3.2-1.9.1-.3-.5-.4-.6-.1zm-1.1-3.6c0-.3-.4-.3-.5 0-.1 1.1-.2 2.3.1 3.4.1.2.4.2.4-.1.2-1.1 0-2.2 0-3.3zm1.5.2c0-.3-.4-.3-.5 0-.1.7-.1 1.5.3 2.2.1.1.3.1.3-.1 0-.7-.1-1.4-.1-2.1zm1.4.7c0 .3-.1.6-.1.9 0 .1.2.1.2 0 .1-.3.1-.6.1-.9.1-.2-.2-.2-.2 0zm1.9-.2v.8c0 .1.1.1.1 0v-.8c.1-.1-.1-.1-.1 0z" fill="#ffffff" stroke-width="none" opacity="1"></path></g></g></g><g id="svga-group-mustache-single-move" transform="matrix(1,0,0,1,0,0)"><g id="svga-group-mustache-single"></g></g><g id="svga-group-nose-single-move" transform="matrix(1,0,0,1,0,0)"><g id="svga-group-nose-single"><path id="SvgjsPath8527" d="M95.47 97.69s-3.62-.07-5.76 1.99c-2.13 2.06-2.42 5.9 4.62 5.68 0 0 1.56 3.91 4.9 4.9 3.34.99 4.9-1.92 5.4-2.98.5-1.07.92-2.7.92-2.7s3.41.07 4.26-.57c.85-.64 1.85-2.7.99-4.26s-3.41-2.2-5.76-2.06c-2.33.14-6.38.42-9.57 0z" fill="#ffffff" stroke-width="none" opacity="1"></path><path id="SvgjsPath8528" d="M107.51 97.47c-.68.03-.69 1.09 0 1.06 1.68-.07 3.15 1.1 3.1 2.87-.04 1.22-.82 2.08-1.84 2.44.35-.19.4-.83-.1-1-.83-.28-1.69-.07-2.35.48-.46.38.05.99.54.86-.19.29-.05.83.42.88 2.23.25 4.33-1.35 4.39-3.67.06-2.32-1.9-4.02-4.16-3.92zm-.23 6.53h-.11c.36-.25.8-.28 1.22-.14.08.03.15.03.21.03-.42.12-.87.16-1.32.11z" fill="#000000" stroke-width="none" opacity="1"></path><path id="SvgjsPath8529" d="M104.98 102.29c.62 2.89-1.92 8.47-5.56 7.33-3.75-1.19-5.89-5.91-4.71-9.51.57-1.73 1.52-3.32 2.02-5.08.48-1.68.38-3.36-.05-5.04-.87-3.39-3.9-9.25.67-11.36.62-.29.08-1.2-.54-.92-3.18 1.47-3.33 5.29-2.52 8.24.58 2.12 1.6 4.17 1.7 6.39.1 2.16-.92 4.07-1.74 6-.63 1.49-1.2 3.08-.99 4.72.02.17.05.34.08.51-.65-.47-1.45-.65-2.23-.39-.65.22-.37 1.24.28 1.03.44-.15.93-.11 1.31.19.06.05.12.08.18.11h-.04c-1.68.1-4.15.01-4.05-2.29.08-1.84 1.98-2.81 3.49-3.31.65-.22.37-1.24-.28-1.03-2.13.71-4.42 2.17-4.27 4.72.15 2.71 2.97 3.1 5.12 2.97.59-.03.67-.83.24-1.02.13 0 .26-.04.36-.15.03-.03.05-.05.07-.09.33 1.16.91 2.28 1.59 3.24 1.7 2.4 4.84 4.3 7.62 2.5 2.39-1.54 3.85-5.31 3.26-8.06-.13-.65-1.16-.36-1.01.3z" fill="#000000" stroke-width="none" opacity="1"></path></g></g><g id="svga-group-hair-front" transform="matrix(0.9799999,0,0,0.9998999000000001,1.9869417736484536,0.0046146099188533185)"><path id="SvgjsPath9249" d="M53.2 71.9S56 77 56.8 84.7c.3 2.8 3.1 3.5 3.1 3.5s.6-20.4 2.6-23.8c2-3.4 1.1-9.6 3.1-14.1s6.1-11.5 9.2-11.7 17.6 9.2 25.8 9.2 23.7-9.2 25.7-9.2 7.1 6.9 8.6 10.6c1.6 3.7 1.4 17.5 2.4 18.4 1 1 1.8 4.7 2.2 7.8s.7 12.6.7 12.6 2.7-.5 3.5-3.8.4-9.9 1.4-11.1 2-2.4 2-4.9.2-15.7-1.1-20c-1.4-4.3-4.7-13.5-7.6-15.3 0 0 .4-3.5-3.3-7.1-3.7-3.5-10.4-8.6-20.4-10.4 0 0-10.4-3.7-19.2-2.9s-12.7-8-12.7-8-1.2 5.9.8 9.8c0 0-7.6-5.1-8.6-9 0 0-.4 4.1 1.2 8.2 0 0-3.3-2.5-4.1-5.3 0 0-1.6 3.3-.6 6.9 0 0-3.5-.6-4.1-2.9 0 0-5.1 8.2-3.5 18.4 0 0-2.5 1.8-4.1 5.3s-3.9 11-4.3 15.7c-.7 4.7-2.3 20.3-2.3 20.3z" fill="#ffffff" stroke-width="none" opacity="1"></path><path id="SvgjsPath9250" d="M146.9 47.9c-1.2-3.9-4.4-12.9-7.6-15.5v-.5c.1-.2.1-.5-.1-.6-.3-1.5-1.1-3.8-3.5-6.1-6-5.7-13-9.2-20.8-10.6-1.1-.4-10.9-3.7-19.6-3-8 .7-11.6-7.1-11.7-7.5-.2-.4-.6-.6-1-.6s-.8.4-.9.8c0 .2-.7 3.8-.1 7.4-2.4-1.9-5.3-4.6-5.8-6.6-.1-.5-.6-.8-1-.8-.5 0-.9.4-.9.9 0 .1-.2 2.3.3 5-.6-.7-1-1.5-1.2-2.2-.1-.4-.5-.7-.9-.7s-.8.2-1 .6c-.1.1-1.3 2.7-1 5.9-.8-.4-1.7-.9-1.9-1.8-.1-.4-.4-.7-.8-.7-.4-.1-.8.1-1 .5-.2.3-5.1 8.4-3.8 18.5-.9.7-2.7 2.5-4 5.3-1.6 3.6-4 11.1-4.4 16-.4 4.6-1.9 20.2-1.9 20.3 0 .2 0 .4.1.6 0 0 2.7 5 3.5 12.4.4 3.4 3.7 4.3 3.9 4.3h.3c.2 0 .4-.1.6-.2.2-.2.4-.5.4-.8.3-8.1 1.1-21 2.5-23.3.3-.6.6-1.3.8-2 .1-.1.1-.2.1-.3.4-1.5.6-3.1.8-4.9.3-2.4.5-5 1.4-7 2.3-5.2 6.1-10.9 8.3-11.1 1-.1 4.3 1.5 7.5 3 5.8 2.8 13.1 6.2 18.3 6.2 5.8 0 14.7-4.2 20.6-7 2.2-1 4.6-2.2 5.1-2.2 1.3.1 6 6 7.7 10 .8 1.9 1.1 6.9 1.4 11 .4 5.6.5 7.1 1.2 7.7.5.5 1.4 3.2 1.9 7.3.4 3.1.6 12.4.6 12.5 0 .3.1.6.4.7.2.2.5.3.8.2.1 0 3.4-.6 4.3-4.5.4-1.6.5-3.7.6-5.8.1-1.7.3-4.4.6-4.9 1-1.2 2.2-2.6 2.2-5.5v-1c-.1-4.3 0-15.3-1.3-19.4zm-1 7.5c-1.5 4.3-3.4 9.1-8 10.6-.2-1.3-.3-3.6-.5-5.5-.1-.9-.1-1.9-.2-2.8 3.6-2.4 6.2-6 7.4-10.2.1.3.2.7.3 1 .6 1.5.8 4.1 1 6.9zm-1.9-9.9c-.1.1-.2.2-.2.3-.9 4.2-3.2 7.8-6.7 10.4-.2-2.1-.4-4.1-.7-5.6 3-1.3 5.5-3.5 7.1-6.3.2.4.3.8.5 1.2zM137.3 32c-2.4 2-5.1 3.5-8 4.6-.7-4.1.8-8.1 3.9-11 .4.3.7.6 1.1 1 2.3 2.2 2.9 4.3 3 5.4zM126 37.5c-.1 0-.2.1-.2.1-1.5-2.4-2.5-5-2.8-7.8-.2-2.6.2-7.8 3.1-9.2 2.1 1.2 4.2 2.6 6.1 4.2-3.4 3.1-4.9 7.6-4.1 12.2-.7.2-1.4.4-2.1.5zm-13.5-21.7c-6 6.5 1.7 19.4 6.7 24.7-1.1.5-2.3 1.1-3.5 1.6-5.6-3.3-10.6-7.6-14.4-12.9-1.3-1.7-9.2-15.3-6.4-15.7h.5c6.5-.6 13.8 1.4 17.1 2.3zm-20.1-2.4c3.3 12.3 11.1 22.7 22 29.3-.9.4-1.7.8-2.6 1.1-14.4-3.7-24.8-15-27.5-29.1.1-.3.2-.6 0-.9l-.3-.6c-.3-1.7-.4-3.5-.4-5.3 1.7 2.2 4.6 4.9 8.8 5.5zm-9.6 1.7c.1.1.2.1.3.1 2 9.8 7.5 18.3 15.5 23.9-10.2-5.9-18-15.3-21.9-26.7 0-.1-.1-.2-.2-.3-.3-1.1-.5-2.1-.7-3 2.6 3 6.5 5.6 7 6zm-7.5-.8c.2.2.5.2.8.2 5.6 14.7 17.7 26 32.8 30.5-2.3.8-4.4 1.4-6.4 1.7C85.8 42.3 73.9 28.5 72 11.3c0-.1 0-.3.1-.4 1.3 1.9 3.1 3.3 3.2 3.4zm-4.2 1.8h.5c3.1 14 12.9 25.4 26.4 30.4-4.3-.8-9.8-3.3-14.3-5.5 0-.1-.1-.1-.2-.1-9.8-5.4-15.8-15.4-16.1-26.5 1.5 1.3 3.5 1.6 3.7 1.7zm-4.8.1c.7 8.6 4.7 16.5 11.2 22-1.2-.5-2.1-.7-2.8-.7h-.4c-4.1-1.5-8.1-3.6-9.9-7.5-.7-5.5.7-10.6 1.9-13.8zm-8.9 29c1.5 2.9 3.7 5.3 6.5 7.1-.4 1.7-.6 3.5-.8 5.2-.1 1.3-.3 2.6-.5 3.8-2.9-1.8-5.1-4.3-6.6-7.4.1-.9.1-1.6.2-2.2.1-1.9.6-4.2 1.2-6.5zm2.2 31.5c-2.4-3.4-4-7.2-4.7-11.3.1-.7.1-1.3.2-2 1.3 2.5 3.1 4.6 5.2 6.5-.3 2-.5 4.4-.7 6.8zm-1.8 7.8c-.8-6.9-3-11.7-3.6-12.9 0-.4.1-1.3.2-2.5 1 3.4 2.7 6.5 5 9.4-.2 3.2-.4 6.2-.4 7.9-.5-.3-1.1-.9-1.2-1.9zm2.7-16.2c-2.3-2.1-4-4.6-5.2-7.4.2-1.7.3-3.4.5-4.9 1.6 2.7 3.8 4.9 6.5 6.5-.2.5-.3.9-.6 1.3-.5.9-.9 2.5-1.2 4.5zm4.2-18.4c-.2.4-.3.8-.4 1.2-2.9-1.8-5.1-4.5-6.4-7.7l.9-3c2 2.6 4.7 4.5 7.8 5.5-1.1 2.1-1.8 3.8-1.9 4zm2.6-5.1c-3.3-1-6-3-8-5.9.4-1 .7-1.9 1.1-2.7 1.1-2.6 2.8-4.1 3.5-4.6 1.9 3.3 5.3 5.3 8.9 6.7-2.1 1.3-4 4-5.5 6.5zm53.1-4.8c-4.4-4.5-13-17.8-6.6-23.7.2.1.4.1.4.1h.2c3.7.6 7.2 1.8 10.4 3.5-1.9 1.4-2.6 4.1-2.9 6.4-.6 4.2.5 8.3 2.7 11.8-1 .4-2.3 1-4.2 1.9zm7.6-1.7c3.5-1 6.6-2.6 9.4-4.8l.3.3c.7.4 1.4 1.4 2.2 2.7-2 2.8-4.7 4.9-7.9 6.2-1.2-1.9-2.7-3.5-4-4.4zm4.9 5.4c3.1-1.3 5.7-3.3 7.8-6 .8 1.5 1.6 3.2 2.3 5.1-1.4 3-3.8 5.3-6.9 6.6-.1-.2-.1-.4-.2-.6-.5-1.3-1.7-3.2-3-5.1zm5.3 23.4c4.1-1.3 6.3-4.8 7.8-8.6 0 1.6.1 3.1.1 4.5-1.1 3.4-3.4 6.1-6.4 7.8-.4-1.4-.9-2.9-1.5-3.7zm4.5 16.9c-.3 1.3-1 2.1-1.6 2.5 0-1.4-.1-3.6-.2-5.7.9-.5 1.7-1.1 2.4-1.9-.2 1.9-.3 3.8-.6 5.1zm3.4-15.8c0 2.1-.8 3.1-1.8 4.3-.5.6-.7 1.9-.9 3.8-.5 1.3-1.4 2.4-2.6 3.2-.1-1.6-.2-3.1-.3-4.1-.1-.8-.3-1.9-.5-3.1 2.6-1.4 4.7-3.5 6.1-6.1v2z" fill="#000000" stroke-width="none" opacity="1"></path></g><g id="svga-group-glasses-single-move" transform="matrix(1,0,0,1,0,0)"><g id="svga-group-glasses-single"></g></g></g></g></g><rect id="svga-credit-rect" width="200" height="15" x="0" y="185" fill="#ecf0f1" opacity="0.5" style="display: none;"></rect><text id="svga-credit-text" font-family="Avenir Next, Roboto, Helvetica, Arial, sans-serif" font-size="10px" text-anchor="start" font-weight="400" size="10px" anchor="start" weight="400" fill="#333333" x="33.40447998046875" y="182.60824704170227" style="display: none;"><tspan id="SvgjsTspan3640" dy="13" x="33.40447998046875">Created on AvatarMaker.com</tspan></text></g><defs id="SvgjsDefs3587"></defs></svg>