<svg xmlns="http://www.w3.org/2000/svg" version="1.1" width="600px" height="600px" viewBox="0 0 200 200" style="overflow:hidden!important;"><g id="svga-group-wrapper"><g id="svga-group-backs-single"><path id="SvgjsPath3817" d="M0 0h200v200H0V0z" fill="#ecf0f1" stroke-width="none" opacity="1"></path></g><g id="svga-group-humanwrap-move" transform="matrix(1,0,0,1,0,0)"><g id="svga-group-humanwrap"><g id="svga-group-hair-back-move" transform="matrix(0.9986295346632303,0.05233595798588117,-0.05233595798588117,0.9986295346632303,7.464080651700328,-5.041730651440361)"><g id="svga-group-hair-back" transform="matrix(1.0400003000000002,0,0,1.0002003000000002,0,0)"></g></g><g id="svga-group-humanbody-back"><path id="SvgjsPath3770" d="M77.6 118.3c0 19.3 3.4 44.1-10 51.9-13.4 7.9-31.9 11.3-37.8 22s-4.4 25.3-4.4 25.3h149.3s.7-18.9-5.1-26.4c-8.1-10.4-27.8-15.5-37.7-20.9s-13.4-25.1-13.4-52.4l-40.9.5z" fill="#ffffff" stroke-width="none" opacity="1"></path></g><g id="svga-group-chinshadow-single"></g><g id="svga-group-humanbody-front"><path id="SvgjsPath3771" d="M175.8 218.7H24.4l-.1-1c-.1-.6-1.5-15.1 4.5-26 4.1-7.4 13.5-11.3 23.5-15.5 5-2.1 10.2-4.3 14.8-6.9 10.6-6.2 10.1-23.9 9.6-41-.1-3.5-.2-6.8-.2-10v-1.1l43.2-.4v1.1c0 29.9 4.2 46.7 12.8 51.4 2.9 1.6 6.7 3.2 10.8 4.9 10 4.1 21.3 8.8 27.2 16.3 6.1 7.7 5.4 26.4 5.4 27.1l-.1 1.1zm-149.3-2.2h147.1c0-4.1-.2-18.5-4.9-24.6-5.5-7-16.6-11.6-26.3-15.6-4.1-1.7-8-3.3-11-5-5.1-2.8-8.7-8.9-10.9-18.7-2-8.4-2.9-19.4-3-33.5l-38.6.4c0 2.8.1 5.7.2 8.8.5 17.8 1 36.1-10.7 43-4.7 2.7-9.9 4.9-15 7.1-9.6 4-18.7 7.8-22.4 14.5-5 8.6-4.7 20.1-4.5 23.6z" fill="#000000" stroke-width="none" opacity="1"></path><path id="SvgjsPath3772" d="M93.9 153.8c-.5 1.8-.4 3.4.5 5.2.8 1.6 2.1 2.7 3.9 2.9.4 0 .7-.5.5-.8-1.6-2.2-3.5-4.2-3.7-7.1 0-.7-1-.9-1.2-.2z" fill="#000000" stroke-width="none" opacity="1"></path><path id="SvgjsPath3773" d="M112.5 187.5c8.8.5 18.1-.7 26.6-2.9.7-.2.6-1.4-.2-1.3-8.8 1.1-17.7 2-26.5 3.3-.5.1-.3.9.1.9z" fill="#000000" stroke-width="none" opacity="1"></path><path id="SvgjsPath3774" d="M63.1 182.5c3.8.9 7.6 1.9 11.5 2.8 3.6.8 7.4 2 11.1 2.1.7 0 .8-.9.2-1.2-3.5-1.4-7.5-1.7-11.2-2.5-3.8-.7-7.5-1.3-11.3-2-.5 0-.7.7-.3.8z" fill="#000000" stroke-width="none" opacity="1"></path></g><g id="svga-group-clothes-single"><path id="SvgjsPath6593" d="M77.6 140.5s-8.6 2.8-13.1 5.9-5.6 10-5.6 10-2.3-3.3-4.5 1.9-1.8 5.6-4 7.9c-2.3 2.3-1 6.8-.2 7.9 0 0-4 2.8-8.4 4s-10.3 4.2-12.1 6.6-9.6 12.8-5.6 34h153.6s0-21-3-27.5-7.7-7.5-7.7-7.5-9.8-7-11.7-8.2-11-4.2-11-4.2-.5-4.2-1.2-7.2-4.6-8.1-6.6-8.4c-2.1-.4-3-2.8-5.6-7-2.6-4.2-5.8-6.5-7.3-7-1.6-.5-3.3-.2-3.3-.2s1.2 8.9 1.2 13.6-.9 7.7-4.6 12.2c-3.7 4.6-6.1 5.8-11.4 9.3s-6.3 5.4-6.3 5.4-3.2-5.1-8.8-8.6S83 166 79 162.5s-1.1-6.1-1.4-11.2c-.3-5.1 0-10.8 0-10.8z" fill="#ffffff" stroke-width="none" opacity="1"></path><path id="SvgjsPath6594" d="M175.6 190.8c-2.8-6.1-7.1-7.7-8.2-8-1.3-.9-9.8-7-11.6-8.1-1.8-1.1-8.5-3.4-10.6-4.1-.2-1.3-.6-4.3-1.2-6.6-.7-3-4.7-8.7-7.5-9.1-1.1-.2-1.8-1.3-3.3-3.9-.5-.8-1-1.6-1.6-2.6-2.6-4.2-5.9-6.8-7.9-7.4-1.8-.6-3.8-.2-3.8-.2-.5.1-.9.6-.8 1.1 0 .1 1.2 8.9 1.2 13.5 0 4.2-.7 7.1-4.3 11.6-3 3.8-5.1 5.1-9 7.6-.7.4-1.4.9-2.2 1.4-3.1 2.1-4.8 3.6-5.7 4.6-1.3-1.8-4.1-5.1-8.3-7.7-3.3-2.1-5.2-4.4-7.1-6.6-1.2-1.4-2.5-2.9-4.1-4.4-2.2-1.9-1.9-3.4-1.5-5.7.3-1.4.6-2.9.4-4.8-.3-4.9 0-10.7 0-10.7 0-.3-.1-.6-.4-.9-.3-.2-.6-.3-.9-.2-.4.1-8.8 2.9-13.4 6.1-3.5 2.4-5 6.7-5.7 9-.4-.2-.8-.3-1.3-.2-1.4.1-2.5 1.3-3.5 3.6-.7 1.7-1.2 2.9-1.5 3.8-.7 1.9-.9 2.4-2.3 3.8-2.2 2.2-1.7 6.2-.8 8.3-1.3.8-4.3 2.5-7.3 3.4-4.6 1.3-10.7 4.3-12.6 7l-.1.2c-6.4 8.9-8.3 20.6-5.6 34.6.1.5.5.8 1 .8h153.6c.6 0 1-.4 1-1 0-1.2-.1-21.6-3.1-28.2zm-33-23.6c.3 1.9.6 3.7.6 4.1 0 .2-.1.8-.6 1.6.3-1.8.2-3.8 0-5.7zm-20.7-19.4c.5.2 1.2.5 1.9.9-.2.1-.3.1-.5.1l-1.2.3c-.2-.5-.2-.9-.2-1.3zm-.1 12.5h1.5c-.6.4-1.3 1-2 1.6.2-.5.4-1 .5-1.6zm4.2-3.1c-1.2.1-2.6.4-3.8.6.1-.5.1-1 .1-1.5 1.3-.1 2.7-.3 3.9-.5 0 .5-.1 1-.2 1.4zm.1-5c.1.5.1.9.1 1.3-1.3 0-2.7.4-3.9.8 0-.5 0-1-.1-1.5 1.3-.2 2.7-.3 3.9-.6zm-3.8 3.6v-1.1c.7-.2 1.4-.3 2.2-.4.6-.1 1.2-.1 1.8-.2v1.1c-1.3 0-2.7.3-4 .6zm-.1-3.5c0-.4-.1-.8-.1-1.1.6-.1 1.1-.1 1.7-.2.6-.1 1.2-.2 1.7-.3.2.3.3.6.4 1-1.2 0-2.5.3-3.7.6zm1.9-2c-.6.1-1.3.2-1.9.4 0-.3-.1-.7-.1-1 .4-.1.9-.2 1.3-.3.3-.1.7-.1 1-.3l.9.9c-.5.1-.9.2-1.2.3zm-1.9 8c1.1-.1 2.4-.2 3.5-.4-.3.7-.9 1.3-1.6 1.8-.7 0-1.5.1-2.2.1l.3-1.5zM76 159.6c-1.2-1.1-2.3-2.2-2.7-3.1-.1-.1-.1-.2-.1-.4.9.7 1.8 1.5 2.8 2.1-.1.5-.1 1 0 1.4zm-.5-10.9c.3.4.7.7 1.1 1 0 .4 0 .9.1 1.3-.3-.2-.5-.4-.8-.6-.4-.3-.7-.6-1.1-.9.1-.2.4-.5.7-.8zm.3-.3c.2-.2.4-.3.6-.4v1c-.1-.2-.3-.4-.6-.6zm-1.4 1.5c.4.4.8.7 1.2 1 .3.3.6.6 1 .8v1c-.8-.7-1.8-1.4-2.7-2 .2-.2.3-.5.5-.8zm-.7 1.4c.9.8 1.8 1.7 2.8 2.3 0 .3-.1.6-.1.9-.4-.3-.9-.6-1.4-.9-.6-.4-1.2-.8-1.7-1.2.1-.4.3-.8.4-1.1zm-.5 1.5c.5.4 1.1.8 1.6 1.2.5.4 1 .8 1.6 1.1 0 .2-.1.4-.1.5 0 .1-.1.3-.1.4-.5-.3-1-.6-1.4-.9l-1.8-1.2c0-.3.1-.7.2-1.1zm2.7 4.8c-.9-.8-1.9-1.5-2.9-2.1v-1c.4.4.9.7 1.4 1.1.5.4 1.1.8 1.7 1.2-.1.2-.1.5-.2.8zm-22.1 4.8c.3-.9.8-2 1.5-3.7.9-2.1 1.6-2.3 1.8-2.4.3 0 .6.2.8.4.1 2.2 1.5 13.1 16.7 21.5.2.1.3.1.5.1.3 0 .7-.2.8-.5.1.2.2.5.3.7.1.1.3.1.3-.1-.2-2-.6-3.7-.3-5.7 0-.2-.3-.4-.4-.1-.2 1.2-.4 2.5-.2 3.8l-.1-.1c-.1-.1-.2-.1-.3-.2-.3-1.7-.5-3.3-.4-5 0-.3-.4-.3-.4 0-.2 1.5-.2 3.1.1 4.6-.4-.3-.9-.5-1.3-.8-.2-.5-.3-1.1-.4-1.6-.2-1.1-.1-2.1.1-3.1 0-.2-.3-.3-.3-.1-.3 1.3-.4 3 0 4.4-.4-.2-.7-.5-1-.7-.1-2.3-.2-4.5.1-6.8 0-.3-.4-.2-.4 0-.3 2.1-.4 4.2-.2 6.4-.6-.4-1.2-.9-1.7-1.4-.1-2.1-.1-4.2.3-6.4 0-.2-.2-.3-.3-.1-.5 2-.7 4-.6 6-.4-.4-.8-.8-1.2-1.1 0-1-.1-2.1 0-3.1.1-1.4.4-2.8.8-4.1.1-.2-.2-.3-.3-.1-.7 2-1.3 4.5-1 6.7-.4-.4-.7-.8-1.1-1.1-.2-1 .2-3.2.2-3.5.2-1.4.5-2.7 1-4 .1-.2-.2-.2-.3-.1-.8 2.3-1.3 4.7-1.4 7.1-.3-.3-.5-.6-.8-1 .1-.1.1-.2.1-.2.1-.1-.1-.3-.2-.2.2-2.9.8-5.8 1.8-8.5.1-.2-.2-.3-.3-.1-1 2.7-1.7 5.5-1.9 8.3-.3-.5-.6-.9-.9-1.4.7-2.8 1.1-5.7 2.1-8.5.1-.3-.3-.4-.4-.1-.9 2.5-1.8 5.3-2 8-.4-.6-.7-1.2-1-1.8.7-3 1.1-5.8 2.5-8.6.1-.2-.2-.4-.3-.2-1.3 2.4-2.4 5.3-2.6 8.1-.3-.8-.6-1.6-.8-2.2 1.2-2.8 1.9-5.8 3.1-8.6.1-.2-.2-.4-.3-.2-1.2 2.5-2.6 5.3-3.1 8-.3-1.4-.4-2.3-.4-2.6 1.2-2.5 2.1-5.1 3.3-7.6.5-.6 1.1-1.2 1.8-1.7 3.3-2.3 8.9-4.4 11.5-5.3 0 1-.1 2.4-.1 3.9-1.9.7-3.5 2.3-4.5 4.5-1.1 2.5-1.3 5.3-.5 7.1 1.1 2.4 5.2 5.4 8.7 7.8.3.2.5.3.6.4l1.5 1.8c2 2.3 4 4.8 7.6 7 5.3 3.3 8.4 8.2 8.4 8.2.2.3.5.5.9.5.3 0 .7-.2.8-.5 0 0 1.1-1.8 6-5.1.8-.5 1.5-1 2.2-1.4 3.2-2.1 5.4-3.5 7.8-6.2.2 0 .4-.1.5-.3.1-.1 5.5-6.1 8.3-7.9 3.5-2.4 3.9-5.5 3.3-9.8-.6-4.3-5-5.9-6.5-6.3-.2-1.3-.3-2.4-.4-3.2.5 0 1.2 0 1.9.2 1.4.5 4.3 2.6 6.8 6.6.6.9 1.1 1.8 1.5 2.6 0 0 0 .1.1.1l-.7-.7c-.1-.1-.3.1-.2.2.7.8 1.3 1.7 2 2.5v.1s.3 1.1.3 2.9c-.5-.8-1.1-1.6-1.4-2.5-.1-.2-.4-.1-.4.1.4 1.2.9 2.4 1.8 3.3 0 .3 0 .7-.1 1.1-.5-.7-1.1-1.3-1.5-1.9-.1-.2-.5 0-.3.2.5.7.9 1.4 1.4 2.1.1.2.2.3.3.5-.1.6-.2 1.2-.3 1.9-.5-.6-1-1.2-1.4-1.8-.1-.2-.4.1-.3.2.5.7 1 1.6 1.6 2.3-.1.5-.3 1.1-.6 1.7-.2-.4-.4-.9-.5-1.3-.1-.2-.5-.1-.4.1.2.6.4 1.4.6 2.1-.2.5-.5 1.1-.9 1.6-.1-.3-.1-.6-.1-.9 0-.3-.4-.3-.4 0 0 .5.1 1.1.1 1.6-.4.5-.8 1.1-1.2 1.6-.1-.6-.2-1.3-.3-1.9 0-.2-.4-.2-.4.1.1.8.1 1.6.2 2.3-.4.4-.8.9-1.2 1.3 0-.8-.1-1.5-.2-2.3 0-.3-.4-.3-.4 0 0 .9-.1 1.9 0 2.9-.3.3-.6.6-.9.8 0-.2 0-.5-.1-.7 0-.8-.1-1.5-.1-2.2 0-.3-.4-.3-.4 0 0 .8 0 1.5.1 2.2v1.2c-.4.4-.9.7-1.3 1.1 0-.2-.1-.4-.1-.7 0-.6 0-1.1.1-1.7 0-.3-.3-.4-.4-.1-.2.9-.4 2-.1 2.9-.3.3-.7.5-1 .8 0-.4-.1-.8-.1-1.2 0-.3-.5-.3-.5 0v1.6c-.4.3-.7.5-1.1.8 0-.4-.1-.9-.1-1.3 0-.3-.5-.3-.5 0 0 .6 0 1.1.1 1.6-.4.3-.8.5-1.1.7v-1.8c0-.3-.4-.3-.4 0 0 .6-.1 1.1-.1 1.7v.5c-.4.2-.7.4-1.1.6v-1.4c0-.3-.4-.2-.4 0-.1.5-.1 1.1-.1 1.6-.2.1-.5.2-.7.3-.1 0-.1 0-.1.1 0-.4.1-.7.1-1.1 0-.2-.4-.2-.4 0-.1.4-.1.8-.2 1.3-.3.1-.7.3-1 .4v-1.3c0-.2-.4-.2-.4 0 0 .5-.1 1-.2 1.5-.5.2-1 .4-1.4.5v-1c0-.3-.4-.3-.4 0 0 .4-.1.8-.1 1.2-.3.1-.6.2-.8.3 0-.4.1-.7.1-1.1 0-.2-.4-.3-.4-.1-.1.4-.1.9-.2 1.3-.2.1-.4.1-.4.1-.5.2-.8.7-.7 1.2.1.4.5.7 1 .7h.3c.1 0 1.5-.5 4.4-1.6v.1c0 .2.3.1.3 0s0-.1.1-.2c.4-.1.7-.3 1.1-.4 3.7-1.5 13.6-8.3 16.3-15 1.5-3.6 1.7-6.9 1.6-9 .4.2.8.4 1.2.4 1.4.2 5 4.6 5.8 7.4-.1 0-.2.1-.2.2.3 3.2.1 6.4.2 9.5-.2.2-.4.5-.6.7v-8.7c0-.2-.4-.2-.4 0-.1 3.1-.2 6.2-.2 9.3l-.5.5c0-2.4-.3-4.8-.4-7.2 0-.2-.4-.3-.4 0 .1 2.6-.1 5.2.2 7.8-.2.1-.4.3-.5.4.1-2 0-4.1-.1-6.1 0-.2-.4-.2-.4 0-.1 2.2-.4 4.5-.3 6.7-.2.2-.5.3-.7.5.2-2 .1-4 0-6 0-.2-.4-.2-.4 0 0 2.1-.2 4.3-.3 6.4-.4.2-.9.5-1.4.7.2-1.9 0-3.9 0-5.8 0-.3-.4-.3-.4 0-.1 2-.3 4.1-.2 6.1-.4.2-.8.4-1.3.6.2-1.3.2-2.7.3-4 0-.3-.4-.3-.4 0-.2 1.4-.5 2.9-.6 4.3-.4.2-.9.4-1.3.5.2-1.4.2-2.9.6-4.3.1-.3-.4-.4-.4-.1-.3 1.4-.8 3.1-.9 4.7-.5.2-.9.3-1.4.5.1-1.2 0-2.6.1-3.8 0-.3-.4-.3-.4 0-.1 1.2-.4 2.7-.3 4-.6.2-1.3.4-1.9.7 0-.4 0-.9.1-1.3.1-.9.3-1.7.6-2.5.1-.2-.3-.3-.4-.1-.5 1.2-1 2.7-1 4.1l-.9.3v-.1c.1-.7.1-1.4 0-2.1 0-.3-.5-.3-.5 0 0 .7 0 1.3-.1 2 0 .1-.1.3-.1.5-.4.1-.8.3-1.2.4.1-.6.1-1.2.1-1.8 0-.3-.4-.3-.5 0-.1.6-.2 1.3-.3 2-.5.1-1 .3-1.5.5v-1c0-.3-.5-.3-.4 0v1.2c-.5.2-1 .3-1.5.5.1-.5.3-1.1.4-1.6.1-.3-.3-.4-.4-.1-.2.6-.4 1.3-.6 1.9-.4.1-.8.2-1.2.4.1-.6.2-1.1.3-1.6.1-.3-.4-.4-.4-.1-.2.6-.4 1.3-.5 1.9-.2.1-.4.1-.6.2.1-.4.2-.9.4-1.3.1-.2-.3-.4-.4-.1-.2.5-.4 1-.6 1.6-.2.1-.3.1-.5.1 0-.2.1-.4.1-.6.1-.2-.3-.3-.3-.1-.1.3-.2.5-.3.8-.5.1-.9.3-1.3.4 0-.1-.2-.2-.3 0 0 .1-.1.1-.1.1-.8.2-1.6.4-2.2.6-1.6.4-2.7.8-3.1.9-.3.1-1.2.2-2.4.2-.2-1.3-.6-2.7-1.5-4.8-.2-.5-.8-.7-1.3-.5s-.7.8-.5 1.3c.8 1.7 1.1 2.9 1.3 3.9H101c-.3-.4-.6-.7-1-1-.2-.2-.5.1-.3.3l.7.7h-1.2c-.2-.2-.4-.5-.6-.7-.4-.6-.7-1.2-.9-1.9-.1-.3-.5-.2-.4.1.2.8.6 1.7 1.1 2.5-.4 0-.9 0-1.3-.1-.1-1.8-.1-3.5-.1-4.4 0-.6-.4-1-1-1s-1 .4-1 1c0 .4 0 2.2.1 4.3h-.2c-.3-.4-.7-.8-.9-1.3-.4-.7-.6-1.5-.7-2.3 0-.2-.4-.3-.4 0 .1 1.1.4 2.6 1.2 3.5-.5 0-.9-.1-1.4-.1-.2-.4-.5-.9-.7-1.3-.3-.7-.5-1.5-.5-2.3 0-.2-.4-.3-.4 0 0 1.1.3 2.6 1 3.6-.3 0-.5 0-.8-.1-.2-.6-.7-1.1-.9-1.7-.3-.7-.4-1.4-.4-2.1 0-.3-.4-.3-.4 0-.1 1.1.2 2.9 1.1 3.8-.4 0-.8-.1-1.3-.1-.3-.6-.8-1.2-1.1-1.8-.3-.8-.5-1.6-.5-2.4 0-.3-.4-.3-.4 0 0 1.3.3 3.1 1.3 4.1-.6-.1-1.2-.1-1.8-.2-.3-.4-.5-.9-.7-1.4-.3-.8-.4-1.6-.5-2.4 0-.3-.5-.3-.4 0 0 1.2.3 2.6.9 3.7-.4-.1-.9-.1-1.3-.2-.2-.4-.5-.9-.7-1.4-.3-.8-.5-1.5-.5-2.3 0-.3-.4-.3-.4 0 .1 1.2.3 2.5 1 3.6-.5-.1-.9-.1-1.3-.2-.4-.6-.8-1.1-1-1.7-.4-.8-.6-1.7-.8-2.6 0-.2-.4-.1-.3.1.1 1.3.5 3 1.3 4.1-.7-.1-1.3-.3-1.8-.4-1-1.4-1.8-2.7-2.2-4.5-.1-.2-.3-.1-.3.1.2 1.4.8 2.9 1.7 4.1-.2-.1-.5-.2-.6-.3-.3-.2-.8-.4-1.3-.6-.7-1.5-1.4-3-1.8-4.7-.1-.3-.5-.2-.4.1.2 1.4.6 2.9 1.3 4.1-.3-.1-.7-.3-1-.4-.8-1.6-1.6-3-1.9-4.9 0-.2-.4-.2-.4.1.2 1.5.6 3.2 1.4 4.5-.3-.1-.6-.2-.9-.4-.4-.8-.8-1.5-1.1-2.2-.4-1.1-.7-2.2-.8-3.3 0-.3-.5-.2-.5.1.2 1.6.6 3.6 1.5 5.1l-1.5-.6c-.3-.7-.7-1.3-1-2-.4-.9-.7-1.9-.9-2.9-.1-.3-.5-.2-.4.1.3 1.4.7 3.2 1.6 4.5-.2-.1-.4-.1-.5-.2-.5-.2-1-.4-1.6-.6-.9-1.5-1.5-3-1.8-4.8 0-.2-.4-.2-.4.1 0 1.5.5 3.1 1.3 4.4-.7-.3-1.4-.6-2.1-.8-.8-1.7-1.5-3.4-1.7-5.3 0-.3-.4-.3-.4 0 .1 1.7.5 3.5 1.3 5-.4-.2-.8-.3-1.2-.5-.5-.8-1-1.5-1.4-2.4-.5-1.2-.8-2.5-.9-3.8 0-.3-.4-.3-.4 0 .1 1.9.6 4.1 1.7 5.8-.6-.3-1.3-.5-1.9-.8-1.2-2.1-2.1-4-2.2-6.6 0-.3-.4-.3-.4 0 0 2.1.5 4.4 1.6 6.1-.5-.2-1.1-.5-1.6-.7-1.3-2.3-2.1-4.5-2-7.2 0-.3-.4-.3-.4 0-.2 2.3.3 4.8 1.6 6.8-.3-.2-.7-.3-1-.5-1.3-2.7-2.2-5.2-2.2-8.2 0-.3-.4-.3-.4 0-.1 2.7.5 5.6 1.9 7.9-.7-.4-1.3-.7-1.9-1-1.6-2.4-2.2-4.8-2-7.9v-.1c.8-1.9 1.1-2.7 1.9-4.7zm-3.3 5.3c-.3 2.1.2 4.4 1.3 6.3-.3-.2-.6-.4-.8-.6-.6-.7-1.5-3.7-.5-5.7zM33.2 183c.3.9.8 2.5 1.4 4.6-.7-.3-1.5-.5-2.1-.9-.7-.4-1.3-1-1.8-1.6.5-.7 1.4-1.4 2.5-2.1zm-2.8 2.5c1.1 1.3 2.7 2.5 4.4 2.6.2.8.5 1.7.7 2.7l-.1-.1c-2.4-.9-4.4-1.8-6.2-3.4l1.2-1.8zm-6.2 27.4c3.5 2.2 7.7 4.1 11.8 4.8H24.9c-.3-1.6-.5-3.2-.7-4.8zm12.9 4.8c0-.1 0-.2-.1-.3-4.5-1.5-8.6-2.9-12.8-5.1-.1-.9-.1-1.9-.2-2.8 4.6 2.7 10 5.1 15.2 6.1.2 0 .3-.2.1-.3-5.1-2.2-10.2-4.2-15.3-6.5v-2.9c3.5 2.5 7.6 4.5 11.9 5.4.3.1.4-.4.1-.5-4.2-1.6-8.2-3.2-12-5.5 0-1.2.1-2.3.3-3.4 2.9 1.7 5.9 3.1 9.1 4 .3.1.4-.4.1-.5-3.1-1.3-6.2-2.6-9.2-4.1.1-.9.3-1.8.4-2.6 3 2.4 6.6 4.4 10.4 5 .2 0 .3-.2.1-.3-3.7-1.5-7.1-3.1-10.4-5.2l.6-2.4c2.8 1.9 5.8 3.8 9 4.7.2.1.3-.2.1-.3-3-1.7-6-3.1-8.9-4.9.3-.9.5-1.7.9-2.5 2.4 1.8 5.3 3.1 8.3 3.6.3 0 .4-.3.1-.4-2.9-1-5.6-2.2-8.2-3.8.2-.6.5-1.2.8-1.8 2.2 2 4.9 3.6 7.8 3.9.2 0 .2-.2 0-.3-2.8-1.1-5.3-2.2-7.6-4.1.4-.7.7-1.4 1.1-2.1 1.7 1.8 4.1 3.1 6.5 3.3.1 0 .1 0 .2-.1 1.4 5.9 3.1 14.8 4.1 26.7h-2.5zm4.5 0C39.9 196.6 36 184.9 35 182c2.2-1.2 4.9-2.3 7-2.9 3.5-1 6.7-2.9 8.1-3.7 3.3 2.5 11.8 5.9 18.6 8.6 3.8 1.5 7.2 2.8 8.6 3.6 2.4 1.3 10.3 2.2 17.6 2.6.2 1.5.4 2.9.7 3.8.7 1.9.5 3.3-.2 7.5l-.3 1.8c-.3 1.9-.7 3.4-1.1 4.8-.7 2.6-1.3 4.6-.2 6.8.2.4.5.6.9.6.1 0 .3 0 .4-.1.5-.2.7-.8.5-1.3-.8-1.6-.3-3 .3-5.4.4-1.3.8-3 1.2-5l.3-1.8c.7-4.3 1-6.1.1-8.5-.2-.6-.4-1.8-.6-3 2.3.1 4.5.2 6.4.2 0 .5-.1 1.1-.1 1.7-.1.7-.1 1.5-.2 2.4-.2 4.4.8 10 .9 10.9l-.2 9c0 .6.4 1 1 1 .5 0 1-.4 1-1l.2-9.1v-.2c0-.1-1.1-6-.9-10.5 0-.9.1-1.7.2-2.4s.1-1.3.1-1.9c1.5 0 2.5-.1 2.9-.3.4-.1 1.5-.4 3-.9 2.4-.7 5.7-1.6 9.2-2.7.1.1.3.1.4 0l.1-.1c6.8-2.1 14.4-4.6 17.7-6.8 4.4-2.9 5.9-5.5 6.4-7 3 1 8.4 2.9 9.8 3.8 1.6 1 9.1 6.4 11.1 7.8-.6 3.2-3.3 18.3-2.9 33.6l-121.4-.2zm123.3-1.3c.9.5 1.8.9 2.8 1.3H165c0-.4 0-.9-.1-1.3zm4.4 1.3c-1.4-.7-2.9-1.4-4.4-1.9v-3.1c2.8 2 6 3.5 9.3 4 .3 0 .4-.4.1-.4-3.4-1.1-6.5-2.3-9.4-4.2 0-1.1.1-2.1.1-3.2 2.6 1.2 5.3 2.4 8 3.2.2.1.4-.3.2-.4-2.6-1.3-5.4-2.4-8.1-3.4.1-1.1.1-2.1.2-3.1 2.3 1.5 4.8 2.8 7.4 3.6.2.1.4-.3.2-.4-2.6-1.2-5.1-2.3-7.6-3.8.1-.9.1-1.8.2-2.7 1.8 1.7 4.7 2.7 7.1 2.8.2 0 .3-.3.1-.4-1.4-.4-2.8-.8-4.2-1.4-1-.5-1.9-1.1-2.9-1.7.1-.9.2-1.7.2-2.6 2.1 1.2 4.2 2.5 6.4 3.3.2.1.3-.2.1-.3-2-1.4-4.3-2.4-6.5-3.4.1-1.1.2-2.1.4-3 1.6 1.1 3.2 2.2 4.9 3.1.2.1.3-.1.1-.2-1.6-1.2-3.3-2.3-5-3.2.3-2.3.6-4.3.8-6 1 .9 2 1.8 3.1 2.5.2.1.4-.1.2-.3-.9-1-2.1-1.9-3.2-2.7.2-1.4.4-2.5.6-3.2 1.4.7 4.1 2.4 6 6.6 2.5 5.4 2.8 21.9 2.9 26.1l-7.3-.2zm-2.3-25.9c-.3-.1-.4.2-.2.4 1.2.9 2.5 1.9 3.8 2.4.2.1.5-.2.3-.4-1.2-1-2.6-1.8-3.9-2.4zm-87.4-12.2c-.1-.8-.4-1.6-.6-2.5-.2-1-.2-1.9-.1-2.9 0-.3-.4-.3-.4 0-.2 1.7-.1 4 .8 5.5.1.2.3.1.3-.1zm1.9.9c.1-1.6-.3-3.4-.5-5 0-.3-.4-.3-.4 0 .1 1.7.1 3.5.5 5.1.1.2.4.1.4-.1zm1.2.1c.1-1.3-.3-2.7-.5-4.1 0-.2-.3-.1-.3.1.1 1.3.1 2.8.5 4.1 0 .2.3.1.3-.1zm2 1c-.2-1.5-.8-2.8-1-4.3 0-.3-.4-.3-.4 0 .1 1.4.3 3.2 1.1 4.4.1.2.3.1.3-.1zm2.1.2c.1.1.2-.1.1-.2-.3-.3-.6-.6-.8-1-.2-.4-.4-.8-.4-1.2 0-.3-.5-.2-.4.1 0 .9.5 2 1.5 2.3zm2.4.7c.1.1.3 0 .3-.2-.4-.9-1.1-1.8-1.7-2.6-.2-.2-.6 0-.4.2.6.9 1.1 1.8 1.8 2.6zm19 .3c.2-.5.2-1.2.2-1.8 0-.2-.4-.2-.4 0-.1.6-.3 1.2-.1 1.8.1.1.3.1.3 0zm1.3-.4c.2-.4.2-.8.3-1.2.1-.5.2-.9.3-1.4.1-.3-.3-.4-.4-.1l-.3 1.5c-.1.4-.2.8-.1 1.2-.1.1.1.2.2 0z" fill="#000000" stroke-width="none" opacity="1"></path></g><g id="svga-group-head" transform="matrix(0.9986295346632303,0.05233595798588117,-0.05233595798588117,0.9986295346632303,7.464080651700328,-5.041730651440361)"><g id="svga-group-ears-left-move" transform="matrix(1,0,0,1,-3,0)"><g id="svga-group-ears-left"><path id="SvgjsPath3678" d="M60.8 80.5c-.2-.3-3.3-4.3-5.9-6.7s-3.4-2.4-4.6-.9c-1.3 1.5-2.9 9.1-2.5 12.4.4 3.4 3.6 8.7 5.2 11.7 1.7 3 3.3 6.7 5.1 6.3 1.9-.4 4.4-4.6 5.7-7.7 1.2-3.1.6-10.9-3-15.1z" fill="#ffffff" stroke-width="none" opacity="1"></path><path id="SvgjsPath3679" d="M52.9 98.9c-.3-.5-.5-1-.8-1.4l-.6-1c-1.8-3.1-4.4-7.8-4.8-11-.4-3.5 1.2-11.4 2.7-13.2.6-.7 1.2-1.3 2.2-1.4 1.2-.1 2.3.7 3.9 2.2 1.6 1.4 3.5 3.6 5.8 6.5l.2.3c3.9 4.6 4.5 12.8 3.2 16.1-1.1 3-3.9 7.8-6.4 8.3h-.5c-2 .1-3.4-2.6-4.9-5.4zm7.2-17.8s-.1-.1-.2-.3c-2.2-2.8-4.1-5-5.6-6.3-1.2-1.1-2.1-1.7-2.4-1.7-.2 0-.4.2-.8.7-1 1.2-2.6 8.4-2.3 11.7.3 2.8 2.8 7.3 4.5 10.3l.6 1c.3.5.5 1 .8 1.4.9 1.7 2.5 4.6 3.3 4.4 1.2-.2 3.6-3.7 4.9-7.1 1.1-2.8.4-10.2-2.8-14.1z" fill="#000000" stroke-width="none" opacity="1"></path><path id="SvgjsPath3680" d="M50 87c-.3-2.3-.5-7.8.8-9.6 2.2-2.9 6 6.4 6.9 9.3 0 .1.1.2.1.3.2.3-.1.7-.4.6-.4-.2-.9-.6-1.3-.8-1.1-.5-1.6.5-1.3 1.8.4 1.8 1.4 2.9 2.2 4.3.1.2 0 .4-.2.3-1.6-.9-3.5-4.5-3.1-6.6.3-2 1.9-1.8 3.1-.8-.7-1.7-1.5-3.3-2.5-4.8-.6-.9-1.2-2-2.2-2.2-1.2-.2-1 .3-1.2 1.8-.8 4.8-.3 10.4 2.5 14.5.1.1 0 .2-.1.1-1.7-2.3-2.9-4.9-3.3-8.2z" fill="#000000" stroke-width="none" opacity="1"></path></g></g><g id="svga-group-ears-right-move" transform="matrix(1,0,0,1,3,0)"><g id="svga-group-ears-right"><path id="SvgjsPath3681" d="M139.2 80.5c.2-.3 3.3-4.3 5.9-6.7 2.6-2.4 3.4-2.4 4.6-.9s2.9 9.1 2.5 12.4c-.4 3.4-3.6 8.7-5.2 11.7-1.7 3-3.3 6.7-5.1 6.3s-4.4-4.6-5.7-7.7c-1.2-3.1-.6-10.9 3-15.1z" fill="#ffffff" stroke-width="none" opacity="1"></path><path id="SvgjsPath3682" d="M142.1 104.4h-.5c-2.5-.5-5.2-5.4-6.4-8.3-1.3-3.4-.7-11.5 3.2-16.1l.2-.3c2.3-2.9 4.2-5.1 5.8-6.5 1.6-1.4 2.7-2.2 3.9-2.2 1 .1 1.6.7 2.2 1.4 1.5 1.8 3.1 9.7 2.7 13.2-.4 3.2-3 7.9-4.8 11l-.6 1c-.3.5-.5.9-.8 1.4-1.4 2.7-2.8 5.4-4.9 5.4zm-2.2-23.3c-3.2 3.9-3.9 11.2-2.8 14.1 1.3 3.4 3.7 6.9 4.9 7.1.8.2 2.4-2.7 3.3-4.4.3-.5.5-1 .8-1.4l.6-1c1.7-3 4.2-7.5 4.5-10.3.4-3.3-1.3-10.5-2.3-11.7-.4-.4-.6-.7-.8-.7-.3 0-1.2.5-2.4 1.7-1.5 1.4-3.3 3.5-5.6 6.3 0 .2-.1.3-.2.3z" fill="#000000" stroke-width="none" opacity="1"></path><path id="SvgjsPath3683" d="M150 87c.3-2.3.5-7.8-.8-9.6-2.2-2.9-6 6.4-6.9 9.3 0 .1-.1.2-.1.3-.2.3.1.7.4.6.4-.2.9-.6 1.3-.8 1.1-.5 1.6.5 1.3 1.8-.4 1.8-1.4 2.9-2.2 4.3-.1.2 0 .4.2.3 1.6-.9 3.5-4.5 3.1-6.6-.3-2-1.9-1.8-3.1-.8.7-1.7 1.5-3.3 2.5-4.8.6-.9 1.2-2 2.2-2.2 1.2-.2 1 .3 1.2 1.8.8 4.8.3 10.4-2.5 14.5-.1.1 0 .2.1.1 1.7-2.3 2.9-4.9 3.3-8.2z" fill="#000000" stroke-width="none" opacity="1"></path></g></g><g id="svga-group-faceshape-wrap" transform="matrix(1.0400003000000002,0,0,1.0002003000000002,-3.996029725857568,-0.016865260152826522)"><g id="svga-group-faceshape-single"><path id="SvgjsPath6420" d="M142.4 53.6c-2.3-11.4-15.1-28.8-42.4-28.8-27.3 0-36.4 13.4-40.5 23.3-2.5 6.2-3.2 15.2-3.4 19.7 0 0 .6 39.5 2 44.9 1.3 5.4 26.5 27.7 28.8 28.7 5.8 2.4 12.4 2.2 17.6 1.8 3.6-.3 7.1-1.7 9.9-4 8.5-6.8 26.7-21.7 27.6-27.5 1.1-7.2 1.7-43.9 1.7-43.9.1-3.2-.2-8.9-1.3-14.2z" fill="#ffffff" stroke-width="none" opacity="1"></path><path id="SvgjsPath6421" d="M98.8 144.7c-4.1 0-8.3-.5-12.3-2.2-2.5-1-28-23.6-29.5-29.5-1.4-5.5-2-43.6-2-45.2.2-4.8.9-13.8 3.4-20.1 6.6-16.2 20.1-24 41.5-24 12.3 0 23.2 3.6 31.3 10.4 6.3 5.2 10.9 12.5 12.2 19.3 1.1 5.5 1.3 11.4 1.4 14.4 0 1.5-.6 36.9-1.8 44.1-.7 4.5-9.8 13.7-28 28.2-3 2.4-6.7 3.9-10.5 4.2-1.7.3-3.7.4-5.7.4zM57.3 67.9c.2 13.6.9 40.5 1.9 44.6.4 1.6 4.2 6.4 13.6 15.4 7 6.6 13.5 12.1 14.5 12.5 5.5 2.3 11.7 2.2 17.1 1.7 3.4-.3 6.6-1.6 9.3-3.7 22.8-18.3 26.8-24.6 27.1-26.8 1.1-7 1.7-43.4 1.7-43.8 0-2.9-.3-8.7-1.4-14-1.3-6.4-5.6-13.1-11.5-18-7.7-6.5-18-9.9-29.9-9.9-20.3 0-33.2 7.4-39.4 22.6-2.1 6-2.8 14.7-3 19.4z" fill="#000000" stroke-width="none" opacity="1"></path></g></g><g id="svga-group-mouth-single-move" transform="matrix(1,0,0,1,0,0)"><g id="svga-group-mouth-single" transform="matrix(1.2000007000000006,0,0,1.2000007000000006,-19.95329020370299,-24.398135319932635)"><path id="SvgjsPath5156" d="M115.55 116.07c.18-.22-.08-.5-.28-.38-.11-.02-.24.02-.28.16-.02.06-.04.11-.06.16-2.25 2.41-5.13 2.38-8.06 1.18-1.75-.72-2.75-.81-4.41.16-1.52.89-2.64.71-4.26.25-.82-.23-1.58-.39-2.42-.19-2.78.69-4.07 4.88-7.37 3.7-.23-.08-.35.19-.25.36-.03.1-.01.21.09.28.79.59 1.66.91 2.55 1.06-.05.1-.04.24.08.32a16.452 16.452 0 0 0 22.95-4.33c.01-.01 0-.02 0-.02.68-.64 1.21-1.47 1.53-2.53.07-.05.14-.11.19-.18zm-21.66 3.06c2.17-1.87 3.47-.92 5.85-.56.75.11 1.36.04 2.05-.26.57-.25 1.05-.69 1.63-.93 1.66-.67 2.46-.03 3.82.53.94.39 1.85.69 2.87.71 1.65.03 3.19-.55 4.43-1.56-.3.6-.68 1.1-1.12 1.5-2.76 2.54-7.99 1.69-11.5 1.81-4.06.13-8.82 3.46-12.67 1.43 1.89.16 3.19-1.42 4.64-2.67zm-2.45 3.79c1.08.08 2.2-.08 3.3-.36 1.28-.33 2.5-.84 3.78-1.18 1.85-.5 3.71-.54 5.61-.48 2.69.09 6.01.12 8.42-1.17-5.17 6.28-14.19 7.69-21.11 3.19z" fill="#000000" stroke-width="none" opacity="1"></path></g></g><g id="svga-group-eyes-left-move" transform="matrix(1,0,0,1,0,-2)"><g id="svga-group-eyes-left"><g id="svga-group-eyesback-left"></g><g id="svga-group-eyesiriswrapper-left"><g id="svga-group-eyesiriscontrol-left" transform="matrix(1,0,0,1,0,0)"><g id="svga-group-eyesiris-left"><path id="SvgjsPath3789" d="M83.6 85.1c-1.1-2.1-3.5-2.9-5.7-2.2-2.4.8-4.2 3.3-3.3 5.9.5 1.4 1.6 2.6 3.1 2.9.5.1 1 .1 1.6.1.6.1 1.2 0 1.8-.2 2.6-.9 3.8-4 2.5-6.5z" fill="#ffffff" stroke-width="none" opacity="1"></path><path id="SvgjsPath3790" d="M81.8 86.2c0-.1 0-.1-.1-.2-.6-1.2-2.2-1.7-3.4-1.1.3.2.5.6.6.8.2.4.6 1.1.1 1.3-.4.2-1.1 0-1.4-.2-.2-.1-.4-.3-.5-.5 0 .1-.1.1-.1.2-.1.2-.1.5-.1.7-.2.7 0 1.5.6 2.1.3.2.6.4.9.4.6.3 1.3.4 2 .1-.1-.1-.2-.3-.2-.4 0-.3.2-.6.5-.7.3-.1.6 0 .8.2.3-.3.5-.8.6-1.2.2-.5 0-1.1-.3-1.5zM79.6 92h-.4c-.5 0-1.1 0-1.6-.1-1.4-.3-2.7-1.5-3.2-3-.9-2.7 1-5.2 3.4-6.1 2.3-.8 4.8.1 5.9 2.2.6 1.2.7 2.7.2 4-.5 1.3-1.6 2.3-2.9 2.8-.4.1-.9.2-1.4.2zm-.4-.3c.6.1 1.2 0 1.8-.2 1.2-.4 2.2-1.4 2.7-2.6.5-1.2.4-2.6-.2-3.7-1-1.9-3.4-2.8-5.5-2.1-2.3.8-4.1 3.2-3.2 5.7.5 1.4 1.7 2.6 3 2.8.4.1.9.1 1.4.1z" fill="#000000" stroke-width="none" opacity="1"></path></g></g></g><g id="svga-group-eyesfront-left"><path id="SvgjsPath4452" d="M79 72.1c-8.2 0-14.8 6.6-14.8 14.8s6.6 14.8 14.8 14.8 14.8-6.6 14.8-14.8c0-8.1-6.6-14.8-14.8-14.8zm4.1 20.6c-2.4 1.1-5.9 1.4-8.4 1.1-2.6-.4-7.1-3.6-7.1-3.6s1.2-1.7 2.2-2.7 2.7-2.5 6.4-4.3c3.7-1.8 8.6.7 9.9 1.9 1.3 1.2 2 4.4 2 4.4s-2.6 2.1-5 3.2z" fill="#ffffff" stroke-width="none" opacity="1"></path><path id="SvgjsPath4453" d="M85.6 83.8c-1.7-1.1-5-2.1-8.5-1.5.1 0 .2-.1.2-.1.2-.6.1-1.3 0-1.9 3.9-.5 7 2.3 7.7 3.1l.8-.8c-.6-.6-6.4-6.1-12.5-1.8-6 4.2-6.7 6.7-6.7 7-.1.3.1.6.4.6h.1c.2 0 .4-.1.5-.3 0 .3-.1.7-.1 1-1.9 2.1-2.6 3.1-2.6 3.1-.2.2-.1.6.1.8.1.1.2.1.3.1.2 0 .3-.1.5-.2 0 0 1.4-2 5.9-6.5C76 81.7 82.5 83 85 84.7c1.5 1 2.3 3.1 2.7 4.6-.1 0-.2-.1-.3 0-.2 0-.3.1-.6.4-6.4 6.1-13.2 3.8-17.8.7-.3-.2-.6-.1-.8.2-.2.3-.1.6.2.8 2.7 1.8 6.1 3.3 9.7 3.3 3.1 0 6.3-1.1 9.5-4.2l.2-.2.1-.1c.1.6.2.9.2 1 0 .3.3.5.6.5s.5-.3.5-.6c-.1-.3-.7-5.3-3.6-7.3zm-15.7 2.7-.6.6V86c0-.2-.2-.2-.3 0 0 .4-.1.8-.1 1.2v.3c-.2.2-.4.5-.6.7v-.5c0-.4.1-.8.1-1.2.3-.5.9-1.1 1.6-1.8-.1.6-.2 1.2-.1 1.8zm1-1.1-.2.2c0-.5-.1-1-.1-1.4.2-.2.4-.3.6-.5 0 .5.1.9.2 1.3-.3.2-.4.3-.5.4zm1.5-2.7c0 .5-.1 1 0 1.4-.2.2-.4.3-.7.5 0-.4-.1-.9-.2-1.3.3-.2.6-.5.9-.6 0-.1 0 0 0 0zm2.9 0V82c0-.1-.2-.1-.2 0v.8c-.3.1-.7.3-1 .4v-.8c0-.2-.3-.2-.3 0v1c-.3.2-.6.3-.9.5v-1.1c0-.2-.2-.2-.3-.2.4-.3.9-.7 1.4-1 1-.7 2-1.1 2.9-1.3-.1.6-.1 1.3 0 1.9 0 .1.1.1.2.1-.6 0-1.2.2-1.8.4z" fill="#000000" stroke-width="none" opacity="1"></path></g></g></g><g id="svga-group-eyes-right-move" transform="matrix(1,0,0,1,0,-2)"><g id="svga-group-eyes-right"><g id="svga-group-eyesback-right"></g><g id="svga-group-eyesiriswrapper-right"><g id="svga-group-eyesiriscontrol-right" transform="matrix(1,0,0,1,0,0)"><g id="svga-group-eyesiris-right"><path id="SvgjsPath3791" d="M125.6 85.1c-1.1-2.1-3.5-2.9-5.7-2.2-2.4.8-4.2 3.3-3.3 5.9.5 1.4 1.6 2.6 3.1 2.9.5.1 1 .1 1.6.1.6.1 1.2 0 1.8-.2 2.5-.9 3.7-4 2.5-6.5z" fill="#ffffff" stroke-width="none" opacity="1"></path><path id="SvgjsPath3792" d="M123.8 86.2c0-.1 0-.1-.1-.2-.6-1.2-2.2-1.7-3.4-1.1.3.2.5.6.6.8.2.4.6 1.1.1 1.3-.4.2-1.1 0-1.4-.2-.2-.1-.4-.3-.5-.5 0 .1-.1.1-.1.2-.1.2-.1.5-.1.7-.2.7 0 1.5.6 2.1.3.2.6.4.9.4.6.3 1.3.4 2 .1-.1-.1-.2-.3-.2-.4 0-.3.2-.6.5-.7.3-.1.6 0 .8.2.3-.3.5-.8.6-1.2.1-.5 0-1.1-.3-1.5zm-2.2 5.8h-.4c-.5 0-1.1 0-1.6-.1-1.4-.3-2.7-1.5-3.2-3-.9-2.7 1-5.2 3.4-6.1 2.3-.8 4.8.1 5.9 2.2.6 1.2.7 2.7.2 4-.5 1.3-1.6 2.3-2.9 2.8-.4.1-.9.2-1.4.2zm-.4-.3c.6.1 1.2 0 1.8-.2 1.2-.4 2.2-1.4 2.7-2.6.5-1.2.4-2.6-.2-3.7-1-1.9-3.4-2.8-5.5-2.1-2.3.8-4.1 3.2-3.2 5.7.5 1.4 1.7 2.6 3 2.8.3.1.8.1 1.4.1z" fill="#000000" stroke-width="none" opacity="1"></path></g></g></g><g id="svga-group-eyesfront-right"><path id="SvgjsPath4454" d="M121 72.1c-8.2 0-14.8 6.6-14.8 14.8s6.6 14.8 14.8 14.8 14.8-6.6 14.8-14.8c0-8.1-6.6-14.8-14.8-14.8zm4.2 21.6c-2.6.4-6.1 0-8.4-1.1-2.4-1.1-4.9-3.4-4.9-3.4s.7-3.2 2-4.4c1.3-1.2 6.2-3.6 9.9-1.9 3.7 1.8 5.5 3.3 6.4 4.3s2.2 2.7 2.2 2.7-4.6 3.5-7.2 3.8z" fill="#ffffff" stroke-width="none" opacity="1"></path><path id="SvgjsPath4457" d="M135 92.1c-.1-.1-1.5-2.1-6-6.7-4.8-4.9-12-3.5-14.7-1.7-2.9 2-3.5 7-3.5 7.2 0 .3.2.6.5.6s.6-.2.6-.5c0 0 0-.4.2-1l.1.1c.1 0 .1.1.2.2 3.2 3.1 6.4 4.2 9.5 4.2 3.6 0 7-1.6 9.7-3.3.3-.2.3-.5.2-.8-.2-.3-.5-.3-.8-.2-4.6 3.1-11.5 5.4-17.8-.7-.3-.3-.4-.4-.6-.4h-.3c.4-1.5 1.2-3.6 2.7-4.6 2.5-1.7 8.9-3 13.3 1.5s5.9 6.5 5.9 6.5c.1.2.3.2.5.2.1 0 .2 0 .3-.1.1.1.2-.2 0-.5zm-9.1-10.6c5.7 3.9 6.3 6.3 6.3 6.3.1.3.3.4.5.4h.1c.3-.1.5-.3.4-.6-.1-.3-.7-2.8-6.7-7-6.2-4.3-11.9 1.2-12.5 1.8l.8.8c.9-.9 5.8-5.3 11.1-1.7z" fill="#000000" stroke-width="none" opacity="1"></path></g></g></g><g id="svga-group-facehighlight-single"></g><g id="svga-group-eyebrows-left-move" transform="matrix(1,0,0,1,0,-4)"><g id="svga-group-eyebrows-left-rotate" transform="matrix(0.9825664732332882,-0.18591160716291463,0.18591160716291463,0.9825664732332882,-11.70588492893053,15.743214625940382)"><g id="svga-group-eyebrows-left"><path id="SvgjsPath6289" d="M90.49 68.58c2.18 1.95.79 6.2-1.27 7.47-2.07 1.27-24.64.48-25.6-.48-.95-.95 20.67-12.55 26.87-6.99z" fill="#ffffff" stroke-width="none" opacity="1"></path><path id="SvgjsPath6290" d="M63.26 75.94c.85.85 9.96 1.15 12.73 1.22 1.18.03 2.9.07 4.72.07 3.69 0 7.81-.14 8.78-.74 1.35-.83 2.42-2.75 2.59-4.65.14-1.5-.31-2.79-1.25-3.64-3.27-2.93-10.08-1.38-15.21.43-5.81 2.05-11.11 5.04-12.21 6.2-.57.6-.26 1-.15 1.11zm9.05.07-5.45-2.29c.73-.42 1.59-.87 2.53-1.33l4.46 3.68-1.54-.06zm-.99-4.54 2.37 3.57-3.62-2.99c.4-.19.82-.38 1.25-.58zm5.67-2.22 1.4 5.48-3.14-4.88c.57-.21 1.15-.41 1.74-.6zm5.38-1.37c.48-.08.94-.14 1.38-.19l.31 8.46c-.79.03-1.68.04-2.66.05l-2.16-7.63c1.06-.28 2.11-.52 3.13-.69zm4.45-.21-1.63 8.44c-.15.01-.3.01-.45.02l-.31-8.49c.88-.06 1.68-.05 2.39.03zm.68.1c.58.11 1.09.27 1.55.49l-1.91 7.71c-.36.04-.77.07-1.24.1l1.6-8.3zm2.65 1.19c.07.07.13.15.19.22l-1.74 3.74 1.07-4.32c.17.12.33.23.48.36zm-1.2 6.66c-.14.09-.47.17-.97.25l2.79-5.99c.24.53.35 1.16.29 1.87-.14 1.58-1.03 3.2-2.11 3.87zm-9.48.58-1.83-7.16c.31-.1.63-.19.94-.28l2.11 7.45c-.39-.01-.8-.01-1.22-.01zm-4.26-.08-3.26-4.93c.85-.37 1.74-.74 2.65-1.09l3.91 6.09c-.7-.01-1.43-.02-2.2-.04l-1.1-.03zm-10.83-.8c.34-.29.94-.69 1.74-1.17l4.17 1.75c-2.91-.17-5.01-.39-5.91-.58z" fill="#000000" stroke-width="none" opacity="1"></path></g></g></g><g id="svga-group-eyebrows-right-move" transform="matrix(1,0,0,1,0,-4)"><g id="svga-group-eyebrows-right-rotate" transform="matrix(0.9825664725843344,0.18591161059271852,-0.18591161059271852,0.9825664725843344,15.216257986816856,-21.456850894697993)"><g id="svga-group-eyebrows-right"><path id="SvgjsPath6291" d="M109.51 68.58c-2.18 1.95-.79 6.2 1.27 7.47 2.07 1.27 24.64.48 25.6-.48.95-.95-20.67-12.55-26.87-6.99z" fill="#ffffff" stroke-width="none" opacity="1"></path><path id="SvgjsPath6292" d="M136.58 74.83c-1.1-1.16-6.39-4.15-12.21-6.2-5.14-1.81-11.95-3.36-15.21-.43-.94.84-1.38 2.14-1.25 3.64.17 1.91 1.24 3.82 2.59 4.65.97.6 5.09.74 8.78.74 1.82 0 3.53-.03 4.72-.07 2.77-.07 11.88-.38 12.73-1.22.12-.11.43-.51-.15-1.11zm-10.43 1.24 4.46-3.68c.94.47 1.8.92 2.53 1.33l-5.45 2.29-1.54.06zm3.79-4.02-3.62 2.99 2.37-3.57c.42.2.84.39 1.25.58zm-5.19-2.2-3.14 4.88 1.4-5.48c.59.19 1.17.39 1.74.6zm-3.99-1.28-2.16 7.63c-.98-.01-1.87-.02-2.66-.05l.31-8.46c.44.05.9.11 1.38.19 1.02.17 2.07.41 3.13.69zm-5.2-.93-.31 8.49c-.15-.01-.31-.01-.45-.02l-1.63-8.44c.72-.08 1.52-.09 2.39-.03zm-1.46 8.43c-.47-.03-.88-.06-1.24-.1l-1.91-7.71c.46-.22.97-.38 1.55-.49l1.6 8.3zm-3.77-7.46 1.07 4.32-1.74-3.74c.06-.07.12-.16.19-.22.15-.14.31-.25.48-.36zm-1.39 3.14c-.06-.71.05-1.34.29-1.87l2.79 5.99c-.5-.08-.83-.16-.97-.25-1.08-.67-1.97-2.29-2.11-3.87zm10.37 4.45 2.11-7.45c.32.09.63.18.94.28l-1.83 7.16c-.42.01-.83.01-1.22.01zm4.38-.05c-.77.02-1.5.03-2.2.04l3.91-6.09c.91.35 1.8.72 2.65 1.09l-3.26 4.93-1.1.03zm6.02-.25 4.17-1.75c.79.47 1.39.88 1.74 1.17-.9.19-3 .41-5.91.58z" fill="#000000" stroke-width="none" opacity="1"></path></g></g></g><g id="svga-group-beardwrap" transform="matrix(1.0400003000000002,0,0,1.0002003000000002,-3.959526308773448,-0.024266205478298275)"><g id="svga-group-beard-single-move" transform="matrix(1,0,0,1,-0.5,4)"><g id="svga-group-beard-single" transform="matrix(0.9499997000000001,0,0,0.9499997000000001,4.974400230438604,6.007500835132973)"><path id="SvgjsPath6247" d="M96.5 132.5s.3 1.4-.3 3.1c-.6 1.6-7.2.1-8.3-1-1.1-1.1-11.3-9.3-14.7-15.1-3.3-5.8-7.8-11.2-14.5-31.7 0 0-2.5-3-4.1 2-1.6 5-3.2 10.1-4.1 12.8-1 2.7-2.2 6.8-.8 8.8 1.4 1.9 17.8 26.3 31.6 42 0 0 11.9 6.2 37.7-.4 1.1-.3 14.6-17.9 19.9-25.4 5.3-7.4 10.4-14.1 10.9-16.4.5-2.3-3.9-24.2-5.3-26-1.4-1.8-3.2-.8-4-.1-.8.7-1.2 9.1-7.9 23.7-6.9 15-20.9 25.4-22.9 27.1-2 1.6-9.1 1.7-9.1-1.1v-2.2l-4.1-.1z" fill="#ffffff" stroke-width="none" opacity="1"></path><path id="SvgjsPath6248" d="M145 84.9c-.7-.9-1.5-1.2-2-1.2-1.1-.1-2.1.5-2.7 1.1-.3.3-.5.9-.9 2.9-.8 3.5-2.4 10.8-7.1 21-1.9 4-4.3 7.9-7.4 11.8-.1 0-.2.1-.2.3-3.9 4.9-8.7 9.7-14.5 14.3-.3.2-.5.4-.6.5-1.3 1.1-5.2 1.3-7.1.5-.7-.3-1-.7-1-1.2v-2.7l-5.5-.1.1.7s.2 1.3-.3 2.8c0 .1-.2.2-.5.2-1.8.4-6.1-.8-6.9-1.5-.2-.2-.7-.6-1.3-1.1-3.2-2.7-10.5-9.1-13.3-13.8-.5-.9-1.1-1.8-1.7-2.8-3.2-5.2-7.2-11.7-12.7-28.8l-.1-.2c0-.1-1.1-1.3-2.5-1.1-1.1.2-2 1.3-2.7 3.2-.6 1.8-1.2 3.7-1.7 5.4-1 3-1.8 5.7-2.4 7.4-1.7 4.6-1.9 7.6-.7 9.2.2.3.7.9 1.3 1.9 4.5 6.5 18.3 26.6 30.3 40.2l.2.1c.1.1 1.2.6 3.4 1.2.1.4.5.4.7.2 2.8.7 7 1.4 12.7 1.3 5.6-.1 12.7-.9 21.3-3.1 1.6-.4 17.3-21.4 20.2-25.6 1.1-1.5 2.2-3 3.2-4.5 4.1-5.7 7.4-10.2 7.8-12.2.5-2.4-4-24.4-5.4-26.3zm4.3 26.2c0 .1-.1.2-.1.4-.2-1.1-.5-2.2-.9-3.3-.2-.5-.9-.3-.8.2.5 1.3.9 2.6 1.1 4 0 .1.1.2.1.2-.2.3-.4.7-.6 1-.1-.2-.1-.5-.2-.7-.1-.5-.9-.3-.8.2.1.5.2.9.4 1.4-.1.2-.3.4-.4.6-.1-.5-.3-.9-.4-1.4-.1-.5-.9-.3-.8.2.2.7.4 1.3.6 2-.2.3-.4.5-.6.8-.2-.8-.4-1.5-.6-2.3-.1-.5-.9-.3-.8.2.2.9.5 1.7.8 2.6 0 .1.1.2.2.2-.6.9-1.4 1.9-2.1 2.9-.1-.6-.4-1.2-.7-1.7-.3-.4-1 0-.7.4.4.6.7 1.3.8 2.1v.1c-.2.4-.5.7-.8 1.1-.2-.8-.5-1.7-.8-2.5-.1-.5-.9-.3-.8.2.3 1 .6 2.1.9 3.1-.3.4-.5.8-.8 1.1-.2-1.1-.6-2.2-1-3.3-.2-.5-1-.3-.8.2.5 1.2.9 2.5 1.1 3.8 0 .1.1.1.1.2-.4.6-.9 1.2-1.3 1.8 0-.5-.1-1-.2-1.6-.1-.5-.9-.3-.8.2.3 1 .2 1.9-.1 2.9l-.6.9c0-.9 0-1.9-.2-2.8-.1-.5-.9-.3-.8.2.2 1.2.2 2.4.1 3.6 0 .1 0 .2.1.2-.2.2-.3.5-.5.7 0-1.6-.2-3.1-.7-4.6-.1-.5-.9-.3-.8.2.5 1.7.7 3.5.6 5.3v.1c-.4.5-.8 1-1.2 1.6 0-1.4-.3-2.8-.9-4.1-.2-.5-.9-.1-.7.4.7 1.4.9 3 .8 4.5 0 .1 0 .1.1.2-.2.3-.5.6-.7 1-.1-1.1-.2-2.2-.2-3.2 0-.5-.9-.5-.8 0 .1 1.2.2 2.5.3 3.7 0 .1.1.3.2.3-.2.3-.5.6-.7 1 0-.3-.1-.6-.1-.9 0-.5-.9-.5-.8 0 0 .5.1 1 .1 1.5 0 .1.1.2.1.3-.2.3-.5.6-.7.9 0-.5-.1-.9-.1-1.4-.1-.5-.9-.5-.8 0 0 .5.1.9.1 1.4 0 .3.3.4.6.4-.4.6-.9 1.1-1.3 1.7-.1-1.2-.1-2.4-.2-3.7 0-.5-.8-.5-.8 0 .1 1.5.1 2.9.2 4.4 0 .1 0 .1.1.2-.3.4-.6.7-.8 1.1-.1-.6-.1-1.3-.2-1.9-.1-.5-.9-.5-.8 0l.3 2.7c0 .1 0 .1.1.1-.4.6-.8 1.1-1.2 1.6 0-1-.1-1.9-.1-2.9 0-.5-.8-.5-.8 0 0 1 .1 2 .1 3.1 0 .2.2.4.4.4-.9 1.1-1.8 2.2-2.5 3.1.3-1 .4-2 .3-3-.1-.5-.9-.5-.8 0 .1 1.3-.1 2.5-.6 3.7-.1.2 0 .4.2.4-.3.4-.7.7-.9 1 .3-1.2.3-2.4.1-3.7-.1-.5-.9-.3-.8.2.3 1.4.2 2.9-.4 4.3-.4.1-.8.2-1.1.3.2-1.1.2-2.2 0-3.3-.1-.5-.9-.3-.8.2.2 1.1.1 2.2-.1 3.3-.8.2-1.6.4-2.3.5.3-.6.4-1.2.4-1.8 0-.5-.8-.5-.8 0 0 .6-.1 1.1-.4 1.6-.1.1-.1.3 0 .4-.3.1-.7.1-1 .2.2-.7.3-1.3.2-2-.1-.5-.9-.5-.8 0 .1.8-.1 1.5-.3 2.2-.3.1-.7.1-1 .2.4-1.2.7-2.5.7-3.8 0-.5-.8-.5-.8 0-.1 1.4-.3 2.6-.8 3.9l-2.1.3c.2-.6.3-1.3.3-1.9 0-.5-.8-.5-.8 0 0 .7-.2 1.4-.4 2.1-.5.1-1 .1-1.4.2.4-1.4.6-2.8.5-4.2 0-.5-.9-.5-.8 0 .1 1.5-.1 2.9-.6 4.3-.8.1-1.6.1-2.4.2.3-1.4.5-2.8.8-4.2.1-.5-.7-.7-.8-.2-.3 1.5-.5 3-.8 4.5-.6 0-1.1.1-1.6.1.2-1.2.3-2.5.5-3.7.1-.5-.8-.5-.9 0-.2 1.2-.3 2.5-.5 3.8-1.9 0-3.7 0-5.3-.1 0-1 .1-2 .1-2.9 0-.5-.8-.5-.9 0 0 .9-.1 1.9-.1 2.9-.8-.1-1.5-.1-2.2-.2-.3-1.4-.3-2.8-.1-4.2.1-.5-.7-.8-.8-.2-.2 1.4-.2 2.8 0 4.2-1.5-.2-2.8-.5-3.8-.8-.1-1-.1-2.1.1-3.1.1-.5-.7-.7-.8-.2-.2 1-.2 2.1-.2 3.1-.6-.2-1.1-.3-1.4-.5.2-1.4.3-2.9.5-4.3.1-.5-.8-.5-.9 0-.2 1.3-.3 2.6-.4 4-.1 0-.2-.1-.2-.1-.4-.4-.8-.9-1.2-1.4 0-1.5.2-2.9.6-4.3v-.2c.1 0 .2-.1.2-.3.1-.7.3-1.4.4-2 .1-.5-.7-.7-.8-.2-.1.7-.3 1.4-.4 2v.2c-.1 0-.2.1-.3.3-.4 1.2-.6 2.3-.6 3.5l-.2-.2c.1-.7.2-1.5.3-2.2.1-.5-.8-.5-.9 0-.1.4-.1.9-.2 1.3-.1-.1-.2-.3-.3-.4-.3-1.9-.4-3.7-.1-5.6.1-.5-.8-.5-.9 0-.2 1.4-.2 2.9-.1 4.3-.4-.5-.8-.9-1.1-1.4.1-.1.1-.1.1-.3-.1-1 .1-2 .5-2.9.2-.5-.5-.9-.8-.4-.4.8-.7 1.7-.7 2.6-.4-.5-.9-1.1-1.3-1.6.2 0 .5-.1.5-.4.2-1 .3-2 .4-3 .1-.5-.8-.5-.9 0-.2 1-.3 1.9-.4 2.9-2.1-2.7-4.2-5.4-6.3-8.2.2 0 .5-.1.6-.4.1-1.1.2-2.1.6-3.1.2-.5-.7-.7-.8-.2a9.6 9.6 0 0 0-.6 3.3c-4.7-6.3-9-12.4-12.1-16.8.2-.9.3-1.8.5-2.8.1-.5-.8-.5-.9 0l-.3 1.8c-1.1-1.6-2-2.9-2.7-3.9-.3-.5-.6-.8-.8-1.2 0-.5.1-1 .2-1.4 0-.5-.8-.5-.9 0v.3c-.7-1.4-.3-4.1 1.1-7.9l.3-.9c.2.2.6.2.7-.2.5-1.5 1.4-2.9 2.5-4.1.4-.4-.2-1-.6-.6-.8.8-1.4 1.6-1.9 2.6.4-1.3.9-2.7 1.3-4.2v.2c0 .5.8.5.9 0 .1-1.1.4-2.2 1-3.2.2-.4-.4-.8-.7-.5l.3-.9c.1 0 .2-.1.3-.2.4-.8 1-1.5 1.6-2.2.4-.4-.2-.9-.6-.6l-.3.3c.4-.6.8-.8 1-.9.5-.1 1.1.4 1.3.6.1.4.2.7.3 1.1-1.2.7-2.2 1.7-2.6 3-.2.5.7.7.8.2.3-1 1-1.9 2-2.5.7 2 1.3 3.9 1.9 5.6-.3.4-.6.7-.9 1.1-.4.3.4.7.7.3.2-.2.3-.4.5-.6.2.4.3.8.5 1.2-.2-.1-.4 0-.5.1-.6.7-1.1 1.3-1.7 2-.3.4.4.8.7.4.6-.7 1.1-1.4 1.7-2 .2.6.4 1.1.6 1.7-.6.8-1 1.7-1.2 2.6-.1.5.7.7.8.2.2-.7.4-1.4.8-2 .9 2.2 1.7 4.1 2.5 5.8-.2-.1-.5 0-.6.2-.2.4-.4.8-.5 1.3-.2.5.6.7.8.2.2-.4.4-.8.5-1.2.6 1.2 1.1 2.3 1.7 3.4-.3.4-.7.8-1 1.1-.4.4.2 1 .6.6.3-.3.6-.6.8-.9.6 1.2 1.2 2.2 1.8 3.2-.1 0-.1.1-.2.2-.3.5-.5 1.1-.8 1.6-.2.5.5.9.7.4.2-.5.4-.9.7-1.4.4.7.8 1.3 1.2 1.9.1.2.2.3.3.4-.2.5-.4 1.1-.6 1.6-.2.5.6.7.8.2l.3-.9c.2.4.4.8.7 1.1-.1 0-.1.1-.2.2-.3.4-.6.8-.9 1.3-.3.4.4.9.7.4.3-.4.5-.8.8-1.1.4.6.8 1.3 1.4 1.9-.1 0-.1.1-.1.2-.2.7-.4 1.3-.5 2-.1.5.7.7.8.2.2-.5.3-1.1.4-1.6 1 1.2 2.1 2.4 3.2 3.5-.2.4-.4.8-.7 1.2-.3.5.5.9.7.4.2-.3.4-.7.5-1 1.2 1.2 2.3 2.3 3.5 3.3-.2.4-.3.8-.5 1.2-.2.5.6.7.8.2.1-.3.2-.5.3-.8 1.3 1.1 2.4 2.1 3.3 2.9.6.5 1.1.9 1.2 1.1.5.5 1.9 1.1 3.3 1.4-.1.1-.2.2-.2.4v1.4c0 .5.8.5.9 0v-1.4c0-.1 0-.1-.1-.2 1.5.3 3.1.5 4.1.2.9-.2 1.2-.6 1.3-1 .4-1.1.4-2 .4-2.7h.8c-.1.1-.1.2-.1.3.1.7.2 1.3.3 2 .1.5.9.3.8-.2-.1-.7-.2-1.3-.3-2h1.5v1.7c0 .6.2 1.4 1.3 1.9-.1.1-.2.2-.1.4.2.6.4 1.3.6 1.9.2.5 1 .3.8-.2-.2-.6-.4-1.1-.5-1.7 1.9.7 4.7.6 6.6-.1v.3c.4.7.7 1.5.8 2.4 0 .5.9.5.8 0-.1-1-.4-1.9-.9-2.8 0-.1-.1-.1-.2-.1.3-.1.6-.3.8-.5.2-.1.3-.3.6-.5 1.6-1.2 3-2.5 4.4-3.8l.6 2.4c.1.5.9.3.8-.2l-.6-2.4c0-.1-.1-.2-.2-.3.8-.7 1.6-1.5 2.4-2.2.2.7.4 1.5.7 2.2.2.5.9.3.8-.2-.2-.8-.5-1.6-.7-2.4 0-.1-.1-.1-.1-.2 2.2-2.1 4.1-4.3 5.9-6.4.1.6.1 1.1.1 1.7 0 .5.9.5.8 0-.1-.9-.2-1.7-.2-2.6.7-.8 1.3-1.7 1.9-2.5.2.9.4 1.7.7 2.6.1.5.9.3.8-.2-.2-.9-.5-1.9-.7-2.8 0-.1-.1-.2-.2-.2.3-.5.6-.9 1-1.4.3.8.6 1.7.9 2.6.2.5 1 .3.8-.2-.3-.9-.6-1.7-1-2.6-.1-.2-.2-.3-.4-.3.3-.4.5-.8.8-1.2.1.4.2.8.2 1.2.1.5.9.3.8-.2-.1-.7-.2-1.4-.4-2 .4-.7.9-1.5 1.2-2.2v.2c.5 1.1.9 2.3 1.4 3.4.2.5 1 .3.8-.2-.5-1.1-.9-2.3-1.4-3.4-.1-.3-.5-.3-.7-.1.4-.9.9-1.7 1.3-2.6.3-.6.5-1.1.8-1.7.1.2.1.5.2.8.1.5.9.3.8-.2-.1-.4-.2-.8-.4-1.2 0-.1-.1-.2-.2-.2 1-2.3 1.9-4.5 2.6-6.4.1.5.3.9.4 1.4.1.5.9.3.8-.2-.2-.6-.3-1.2-.5-1.8v-.3c-.1-.1-.1-.2-.1-.3v-.1c.3-.8.5-1.5.7-2.2.3.8.6 1.7.9 2.5.2.5.9.3.8-.2l-1.2-3.3c0-.1-.1-.1-.1-.1.3-.9.5-1.7.7-2.4.5 1.4.9 2.8 1.4 4.2.2.5.9.3.8-.2-.5-1.4-1-2.9-1.4-4.3-.1-.3-.4-.3-.6-.2.4-1.4.7-2.6.9-3.6.3.6.6 1.2 1 1.8.2.4.9.1.7-.4-.4-.8-.9-1.6-1.3-2.4 0-.1-.1-.1-.1-.1.1-.4.2-.8.2-1.1l1.2 2.1c.2.4.9.1.7-.4-.5-.8-.9-1.6-1.4-2.4l-.2-.2c0-.1 0-.1.1-.1.2-.2.5-.4.7-.5.1.1.1.3.2.4.2.4.9.1.7-.4-.1-.1-.1-.2-.1-.3h.4c.5.1.9.3 1.2.8.2.2.4.8.6 1.7-.3-.3-.6-.7-.9-1-.4-.3-.9.2-.6.5.9.9 1.6 2 2 3.2 0 .1.1.2.2.2.3 1.3.7 2.9 1 4.5-.2-.2-.3-.4-.5-.7-.3-.4-.9.1-.6.5.6.8 1.1 1.6 1.6 2.5.2 1.1.5 2.3.7 3.4-.5-1-1.1-2-2-2.9-.4-.4-.9.2-.6.5 1.1 1.2 1.9 2.5 2.4 4.1.1.3.3.3.5.2.2 1 .4 2 .5 2.9-.6-1.1-1.1-2.2-1.7-3.3-.2-.4-.9-.1-.7.4.8 1.6 1.6 3.1 2.4 4.7.1.1.1.2.2.2-.2 1.3-.1 2.7-.2 3.2zM51.6 104c-.6 1.2-1 2.5-1.3 3.8-.1.5.7.8.8.2.3-1.3.7-2.6 1.3-3.8.2-.5-.6-.7-.8-.2zm1.4 3.2c-.5 1.7-.8 3.5-1 5.2 0 .5.8.5.9 0 .1-1.7.4-3.4.9-5 .2-.5-.7-.7-.8-.2zm1.5 4.7c-.2.7-.4 1.5-.6 2.2-.1.5.7.7.8.2.2-.7.4-1.5.6-2.2.1-.5-.7-.7-.8-.2zm3 1.8c-.8 1.8-1.2 3.6-1.4 5.5 0 .5.8.5.9 0 .1-1.8.6-3.6 1.3-5.3.3-.4-.5-.7-.8-.2zm1.9 4.8c-.4.9-.6 1.9-.6 2.9 0 .5.9.5.9 0 0-.9.2-1.8.6-2.7.1-.4-.7-.6-.9-.2zm1.9 3c-.4.9-.6 1.9-.6 2.9 0 .5.9.5.9 0 0-.9.2-1.8.6-2.7.2-.5-.7-.7-.9-.2zm2.8 2.5c-.4 1.5-.8 3.1-1.2 4.6-.1.5.7.7.8.2.4-1.5.8-3.1 1.2-4.6.2-.5-.7-.7-.8-.2zm2.5 3.7c-.3 1.1-.6 2.1-1 3.2-.2.5.7.7.8.2.3-1.1.6-2.1 1-3.2.2-.5-.6-.7-.8-.2zm4.5 4.2c-.4 1.8-.7 3.6-1.1 5.4-.1.5.7.7.8.2.4-1.8.7-3.6 1.1-5.4.1-.5-.7-.8-.8-.2zm1.8 4.9c-.8 1.4-1 2.9-.7 4.4.1.5 1 .3.8-.2-.3-1.3-.1-2.6.6-3.8.3-.5-.4-.9-.7-.4zm-19-32.9c.1-1.3.5-2.6 1.3-3.7.3-.4-.4-.8-.7-.4-.9 1.2-1.3 2.6-1.5 4.1 0 .5.9.5.9 0zm1.8-1.8c-.4 1.3-.8 2.7-1.3 4-.2.5.7.7.8.2.4-1.3.8-2.7 1.3-4 .2-.5-.6-.8-.8-.2zm2.3 4.1c.2-.5-.5-.9-.7-.4-.8 1.6-1.3 3.2-1.5 4.9-.1.5.8.5.9 0 .1-1.5.5-3 1.3-4.5zm.8 3.2c-.6.9-1 1.9-1.2 3-.1.5.8.5.9 0 .1-.9.5-1.8 1-2.6.4-.4-.4-.8-.7-.4zm1.5 3.9c-.9 1.2-1.4 2.7-1.4 4.2 0 .5.9.5.9 0 0-1.4.4-2.6 1.2-3.8.4-.4-.3-.8-.7-.4zm1.8 3.4c-.4 1.1-.6 2.2-.6 3.4 0 .5.8.5.9 0 0-1.1.2-2.1.6-3.2.1-.5-.8-.7-.9-.2zm1.7 5.4c0-1.2.3-2.4.9-3.4.3-.5-.5-.9-.7-.4-.7 1.2-1 2.5-1.1 3.8 0 .5.9.5.9 0zm2.7 5c.1-1.6.3-3.1.7-4.6.2-.5-.7-.7-.8-.2-.5 1.6-.7 3.2-.8 4.8 0 .5.9.5.9 0zm3.8 5.3c0-1.3.2-2.6.5-3.8.1-.5-.7-.7-.8-.2-.3 1.3-.5 2.7-.5 4-.1.6.8.6.8 0zm2.1-1.9c0 1.4-.1 2.8-.1 4.2 0 .5.9.5.9 0 0-1.4.1-2.8.1-4.2 0-.5-.9-.5-.9 0zm1.6 4.1c.1 1.1 0 2.2-.2 3.3-.1.5.7.7.8.2.3-1.2.4-2.4.3-3.6-.1-.4-.9-.5-.9.1zm1.8 3.2c0 1 0 2 .1 3 0 .5.9.5.9 0 0-1 0-2-.1-3-.1-.5-.9-.5-.9 0zm2.7 3.5c.1 1.3.3 2.6.4 3.9.1.5.9.5.9 0-.1-1.3-.3-2.6-.4-3.9-.1-.6-1-.6-.9 0zm3.9 4.5c-.3.8-.5 1.6-.8 2.4-.2.5.7.7.8.2.3-.8.5-1.6.8-2.4.2-.5-.6-.7-.8-.2zm2.7 2.7c-.1.4-.1.9-.2 1.3-.1.5.8.5.9 0 .1-.4.1-.9.2-1.3 0-.5-.9-.5-.9 0zm2 2.9c-.3.8-.4 1.7-.2 2.5.1.5 1 .3.8-.2-.2-.7-.1-1.4.2-2.1.2-.5-.7-.7-.8-.2zm-3.2-4.2v1.1c0 .5.9.5.9 0v-1.1c-.1-.5-.9-.5-.9 0zm-27.7-49c.1-.8.2-1.7.3-2.5.1-.5-.8-.5-.9 0-.1.8-.2 1.7-.3 2.5 0 .5.9.6.9 0zm.9-3.9c.4-.8 1-1.5 1.8-2 .5-.3 0-1-.4-.7-.9.6-1.7 1.3-2.1 2.2-.3.6.4 1 .7.5zm1.5.5c-.7.5-1.2 1.3-1.4 2.1-.1.5.7.7.8.2.2-.7.6-1.3 1.2-1.7.5-.3-.1-.9-.6-.6zm.6 3.9c.3-.4-.4-.8-.7-.4-.6.8-1.1 1.7-1.7 2.5-.3.4.4.8.7.4.5-.8 1.1-1.6 1.7-2.5zm-.4 2.8c-.7.7-1.1 1.4-1.4 2.2-.2.5.7.7.8.2.2-.7.6-1.3 1.2-1.9.4-.3-.2-.9-.6-.5zm1 6.1c.5-1.1 1.1-2.2 1.6-3.2.2-.5-.5-.9-.7-.4-.5 1.1-1.1 2.1-1.6 3.2-.3.5.4.9.7.4zm1.4 4.2c.1-.8.4-1.4.9-2 .3-.4-.4-.8-.7-.4-.6.7-.9 1.5-1 2.4-.1.5.8.5.8 0zm1.4-4.7c.2-.6.5-1.2.7-1.7.2-.5-.6-.7-.8-.2-.2.6-.5 1.2-.7 1.7-.3.5.6.7.8.2zm1.1 5.8c.4-.7.9-1.3 1.3-2 .3-.4-.4-.9-.7-.4-.4.7-.9 1.3-1.3 2-.3.5.4.9.7.4zm1.1.7c-.3.7-.7 1.3-1.1 2-.3.5.5.9.7.4.4-.7.7-1.3 1.1-2 .3-.5-.4-.9-.7-.4zm2.2 2.7c.3-1.1.8-2 1.5-2.9.3-.4-.4-.8-.7-.4-.7.9-1.3 2-1.6 3.1-.1.5.7.8.8.2zm-1.1 5.1c.2-1 .6-1.9 1.3-2.7.3-.4-.4-.8-.7-.4-.7.8-1.2 1.8-1.4 2.9-.2.5.7.7.8.2zm3-.2c.2-.9.5-1.7.7-2.6.2-.5-.7-.7-.8-.2-.2.9-.5 1.7-.7 2.6-.2.4.6.7.8.2zm.4 1.9c-.2.7-.4 1.5-.7 2.2-.2-.1-.5 0-.6.3-.5 1.1-.6 2.3-.5 3.5.1.5.9.5.9 0-.1-.9 0-1.8.3-2.7.2.1.5 0 .6-.2.3-.9.6-1.9.9-2.8.1-.6-.7-.8-.9-.3zm2.5 2.7c-.2.8-.3 1.6-.5 2.4-.1.5.7.8.8.2.2-.8.3-1.6.5-2.4.1-.5-.7-.7-.8-.2zm3 3.8c.1-.5.2-.9.3-1.4.1-.5-.7-.8-.8-.2-.1.5-.2.9-.3 1.4-.1.5.7.7.8.2zm-2.7-5.1c0-.7.2-1.3.6-1.8.3-.4-.4-.8-.7-.4-.5.7-.8 1.4-.7 2.2 0 .5.8.5.8 0zm4.8 2.7.3-1.5c.1-.5-.7-.8-.8-.2l-.3 1.5c-.2.5.7.8.8.2zm-1.2 6.2c.2-.8.4-1.7.6-2.5.1-.5-.7-.7-.8-.2-.2.8-.4 1.7-.6 2.5-.1.5.7.7.8.2zm3.1 2.8c.2-.8.4-1.7.7-2.5.1-.5-.7-.7-.8-.2-.2.8-.4 1.7-.7 2.5-.2.5.7.8.8.2zm-2-2.6c-.6.8-1 1.7-1.2 2.6-.1.5.7.7.8.2.2-.9.6-1.7 1.1-2.4.4-.4-.4-.8-.7-.4zm2.4 3.6c-.2.6-.4 1.2-.7 1.8-.2.5.7.7.8.2.2-.6.4-1.2.7-1.8.2-.5-.6-.7-.8-.2zm1.6 1.3c-.1.5-.3 1-.4 1.6-.1.5.7.7.8.2s.3-1 .4-1.6c.2-.5-.7-.7-.8-.2zm.5-2.6c.2-.6.4-1.3.5-1.9.2-.5-.7-.7-.8-.2-.2.6-.4 1.3-.5 1.9-.2.5.7.7.8.2zm-1.3-3.8c.2-.7.4-1.3.7-2 .2-.5-.7-.7-.8-.2-.2.7-.4 1.3-.7 2-.2.5.6.7.8.2zm-2.5-2.7c-.3.6-.5 1.2-.8 1.8-.2.5.6.7.8.2.3-.6.5-1.2.8-1.8.2-.5-.6-.7-.8-.2zm6.4 3.5c-.2.5-.4.9-.6 1.4-.2.5.6.7.8.2.2-.5.4-.9.6-1.4.2-.4-.6-.7-.8-.2zm-1 6.1c-.2.7-.4 1.4-.7 2-.2.5.7.7.8.2.2-.7.4-1.4.7-2 .2-.5-.6-.7-.8-.2zm2.2 5.9c.2-.5.3-1 .5-1.6.2-.5-.7-.7-.8-.2-.2.5-.3 1-.5 1.6-.2.5.6.7.8.2zm-3.1-1.3c.1-.3.3-.6.4-.8.2-.5-.5-.9-.8-.4-.1.3-.3.6-.4.8-.2.5.6.9.8.4zm3.4-5.2c-.2.4-.4.9-.6 1.3-.2.5.5.9.7.4.2-.4.4-.9.6-1.3.3-.5-.4-.9-.7-.4zm-2.2-2.2c-.2.4-.3.7-.5 1.1-.2.5.5.9.7.4.2-.4.3-.7.5-1.1.3-.4-.5-.8-.7-.4zm2.9.1c.2-.6.4-1.1.6-1.7.2-.5-.6-.7-.8-.2-.2.6-.4 1.1-.7 1.7-.1.5.7.8.9.2zm1.8.1c-.2.5-.3 1-.5 1.5s.7.7.8.2c.2-.5.3-1 .5-1.5s-.6-.7-.8-.2zm-.8 7.2c.1-.8.3-1.7.4-2.5.1-.5-.8-.8-.8-.2-.1.8-.3 1.7-.4 2.5-.1.5.8.7.8.2zm.1 1.6c-.1.9-.2 1.8-.3 2.6-.1.5.8.5.9 0 .1-.9.2-1.8.3-2.6 0-.6-.9-.6-.9 0zm2.9-4.1c-.2.9-.4 1.8-.7 2.6-.1.5.7.7.8.2.2-.9.4-1.8.7-2.6.1-.5-.7-.7-.8-.2zm-1.3-2.3c-.2.7-.3 1.4-.5 2-.1.5.7.7.8.2.2-.7.3-1.4.5-2 .1-.5-.7-.7-.8-.2zm4-1.4v1.8c0 .5.8.5.9 0v-1.8c0-.5-.9-.5-.9 0zm-.6 4.9c-.1.9-.2 1.8-.2 2.8-.1.5.8.5.9 0 .1-.9.2-1.8.2-2.8 0-.6-.8-.5-.9 0zm-1.8 5.4v3.4c0 .5.9.5.9 0v-3.4c0-.6-.9-.6-.9 0zm4.8 3.5c.1 1.2-.1 2.4-.4 3.5-.1.5.7.7.8.2.3-1.2.5-2.5.4-3.7.1-.5-.8-.5-.8 0zm-1.6-3.6c.1 1.6.1 3.3.2 4.9 0 .5.9.5.9 0-.1-1.6-.1-3.3-.2-4.9-.1-.5-1-.5-.9 0zm2.1-4.9c0 1.6 0 3.2-.1 4.8 0 .5.8.5.9 0v-4.8c.1-.5-.8-.5-.8 0zm1.8 4.9c-.1.9-.2 1.8-.3 2.8-.1.5.8.5.9 0 .1-.9.2-1.8.3-2.8 0-.5-.9-.5-.9 0zm2.4-3c-.1 1.6-.2 3.1-.3 4.6 0 .5.8.5.9 0 .1-1.6.2-3.1.3-4.6 0-.5-.9-.5-.9 0zm3 2.4c.2 1.1.2 2.2-.1 3.4-.1.5.7.7.8.2.3-1.3.4-2.5.1-3.8-.1-.6-.9-.3-.8.2zm2.6-.5v3.6c0 .5.8.5.8 0v-3.6c.1-.6-.8-.5-.8 0zm2.7.3c.1 1.4 0 2.9-.3 4.3-.1.5.7.7.8.2.3-1.5.4-3 .3-4.5 0-.5-.9-.5-.8 0zm4.2-1.2v3.9c0 .5.8.5.8 0v-3.9c.1-.5-.8-.5-.8 0zm2.3.4c.2 1.3.2 2.7 0 4-.1.5.8.5.8 0 .2-1.3.2-2.7 0-4 0-.6-.9-.6-.8 0zm1.3-3.1c.3 1.6.6 3.1.8 4.7.1.5.9.3.8-.2-.3-1.6-.6-3.1-.8-4.7-.1-.6-.9-.3-.8.2zm2.9-.1c.1 1.1.2 2.1.4 3.2.1.5.9.5.8 0-.1-1.1-.3-2.1-.4-3.2 0-.6-.8-.6-.8 0zm-8.7-.6c.2 1.5.2 2.9.1 4.4-.1.5.8.5.8 0 .1-1.6.1-3.1-.2-4.6.1-.6-.7-.3-.7.2zm-4.6-.6c.5 1.4.7 2.8.7 4.3 0 .5.8.5.8 0 0-1.5-.2-3-.7-4.5-.1-.5-1-.3-.8.2zm-2.2-.3v3.4c0 .5.8.5.8 0v-3.4c.1-.5-.8-.5-.8 0zm-5.7.1c-.1 1.1-.2 2.1-.2 3.2 0 .5.8.5.9 0 .1-1.1.2-2.1.2-3.2 0-.5-.9-.5-.9 0zm-2.6-.6c.2-.9.4-1.9.7-2.8.1-.5-.7-.7-.8-.2-.2.9-.4 1.9-.7 2.8-.1.5.7.7.8.2zm3.3-3.6c.1 1 .1 2.1.2 3.1 0 .5.9.5.8 0-.1-1-.1-2.1-.2-3.1.1-.6-.8-.6-.8 0zm3 3.1c.1.7.1 1.4 0 2-.1.5.7.7.8.2.2-.8.2-1.6 0-2.5-.1-.4-1-.2-.8.3zm-4-3c0-.5-.8-.5-.8 0v2.2c0 .5.8.5.8 0v-2.2zm8.3 3c-.2-.8-.3-1.6-.5-2.5-.1-.5-.9-.3-.8.2.2.8.3 1.6.5 2.5.1.6.9.4.8-.2zm2.2 1c-.2-1.1-.5-2.2-.7-3.3-.1-.5-.9-.3-.8.2.2 1.1.5 2.2.7 3.3.1.5.9.3.8-.2zm.7 1.4c0 .8.1 1.5.1 2.2 0 .5.9.5.8 0 0-.8-.1-1.5-.1-2.2 0-.5-.8-.6-.8 0zm4.4-1c-.2-.7-.5-1.4-.7-2.1-.2-.5-1-.3-.8.2.2.7.5 1.4.7 2.1.1.5 1 .3.8-.2zm2.4.2c.1-1 0-2.1-.4-3-.2-.5-1-.3-.8.2.3.9.4 1.9.3 2.8 0 .6.9.6.9 0zm-2.6-4.7c-.2-.5-.5-1.1-.7-1.6-.2-.5-.9-.1-.7.4.2.5.5 1.1.7 1.6.2.5.9.1.7-.4zm1.6-3.7c-.2-.5-.9-.1-.7.4.4.9.8 1.7 1.2 2.6.2.5.9.1.7-.4-.4-.9-.8-1.7-1.2-2.6zm2.5 4.2c.2 1.1.3 2.2.5 3.3.1.5.9.3.8-.2-.2-1.1-.3-2.2-.5-3.3-.1-.5-.9-.3-.8.2zm4.6 2-.6-2.4c-.1-.5-.9-.3-.8.2l.6 2.4c.1.5.9.3.8-.2zm-.2 3c.4.9.6 1.8.6 2.8 0 .5.8.5.8 0 0-1.1-.2-2.1-.6-3-.2-.5-1-.3-.8.2zm3.2-6.1c-.1-.5-.9-.3-.8.2.3 1.1.6 2.1.8 3.1.1.5.9.3.8-.2-.3-1.1-.5-2.1-.8-3.1zm1.7-3.9c-.1-.5-.9-.3-.8.2l.9 3.9c.1.5.9.3.8-.2-.3-1.2-.7-2.5-.9-3.9zm1.5-.6c.2 1.4.5 2.7.8 4.1.1.5.9.3.8-.2-.3-1.4-.5-2.7-.8-4.1-.1-.5-.9-.3-.8.2zm-5.3 5.6c.1 1 .3 1.9.4 2.9.1.5.9.5.8 0-.1-1-.3-1.9-.4-2.9-.1-.5-.9-.5-.8 0zm-5.3-4.6c.4 1 .6 2 .5 3 0 .5.8.5.8 0 0-1.1-.1-2.2-.6-3.2-.1-.5-.9-.3-.7.2zm3.2 2.6c.2.5 1 .3.8-.2-.2-.7-.5-1.4-.7-2.1-.2-.5-1-.3-.8.2.2.7.5 1.4.7 2.1zm2.1-.9c.1.5.9.3.8-.2-.2-1-.5-2.1-.7-3.1-.1-.5-.9-.3-.8.2.2 1 .5 2.1.7 3.1zm2.2-5.9c-.1-.5-.9-.3-.8.2.2 1.2.5 2.3.7 3.5.1.5.9.3.8-.2-.2-1.2-.5-2.3-.7-3.5zm1.5-1.3c.2 1 .4 2.1.6 3.1.1.5.9.3.8-.2-.2-1-.4-2.1-.6-3.1-.1-.5-.9-.3-.8.2zm4.1.1c-.1-.5-.2-1.1-.4-1.6-.1-.5-.9-.3-.8.2.1.5.2 1.1.4 1.6.1.5.9.3.8-.2zm-.9 2.8.3 2.4c.1.5.9.5.8 0l-.3-2.4c-.1-.5-.9-.5-.8 0zm2.3-4.9c.4.8.7 1.6.8 2.4.1.5.9.3.8-.2-.1-.9-.5-1.8-.9-2.6-.2-.5-.9-.1-.7.4zm-3.3.8-.6-2.7c-.1-.5-.9-.3-.8.2.2.9.4 1.8.6 2.8.2.4.9.2.8-.3zm-3.6 1c-.2-1-.3-2-.5-3-.1-.5-.9-.3-.8.2.2 1 .3 2 .5 3 .1.5.9.3.8-.2zM123 129c-.1-.8-.2-1.5-.4-2.3-.1-.5-.9-.3-.8.2.1.8.2 1.5.4 2.3.1.6.9.3.8-.2zm-1.6.5c-.3-.6-.4-1.3-.3-2 .1-.5-.8-.5-.8 0-.1.8.1 1.6.4 2.4.2.5.9.1.7-.4zm8.8-5.9c-.1-.7-.2-1.4-.3-2.2-.1-.5-.9-.5-.8 0 .1.7.2 1.4.3 2.2.1.4.9.5.8 0zm2.1-2.5c-.2-.5-.9-.3-.8.2l.9 3c.2.5.9.3.8-.2l-.9-3zm3 .1c-.1-.5-.9-.3-.8.2.2 1 .5 2 .7 3 .1.5.9.3.8-.2-.2-1-.5-2-.7-3zm2.1 0c-.1-.5-.9-.3-.8.2.2.9.5 1.8.7 2.6.1.5.9.3.8-.2-.3-.9-.5-1.7-.7-2.6zm.7-4.4c-.2-.4-.9-.1-.7.4l.9 1.8c.2.4.9.1.7-.4-.2-.6-.5-1.2-.9-1.8zm2.8-2.1c-.1-.5-.9-.3-.8.2.3 1.1.6 2.3 1 3.4.1.5.9.3.8-.2-.3-1.2-.7-2.3-1-3.4zm1.9-1.2c-.2-.5-.9-.3-.8.2.4 1.1.8 2.2 1.2 3.4.2.5.9.3.8-.2-.4-1.2-.9-2.3-1.2-3.4zm-6.9 5.9c-.1-.8-.3-1.7-.4-2.5-.1-.5-.9-.3-.8.2.1.8.3 1.7.4 2.5.1.5.9.3.8-.2zm-2.9-2.8c0-.5-.8-.5-.8 0-.1 1.3.2 2.5.8 3.6.2.4.9.1.7-.4-.6-1-.8-2-.7-3.2zm2.2-6.9c-.1-.5-.9-.3-.8.2.3 1.3.7 2.6 1 3.8.1.5.9.3.8-.2-.3-1.2-.7-2.5-1-3.8zm2.6 2.7c-.1.5.8.5.8 0 .1-1.6-.5-3.1-1.6-4.2-.4-.4-.9.2-.6.5 1 1 1.5 2.3 1.4 3.7zm3.3.3c0-1.1-.2-2.2-.6-3.2-.2-.5-1-.3-.8.2.4 1 .6 2 .6 3 0 .5.8.5.8 0zm2-1.5c-.3-1.1-.6-2.1-.9-3.1-.1-.5-.9-.3-.8.2.3 1.1.6 2.1.9 3.1.1.5.9.3.8-.2zm.7-2.6c.2.8.3 1.6.5 2.3.1.5.9.3.8-.2-.2-.8-.3-1.6-.5-2.3-.1-.5-.9-.3-.8.2zm2.9.7c-.2-.5-.9-.3-.8.2.3.7.6 1.4.8 2.1.2.5.9.3.8-.2-.3-.7-.5-1.4-.8-2.1zm-7.9 4.6c-.1-.5-.9-.3-.8.2.2.6.3 1.3.5 1.9.1.5.9.3.8-.2-.1-.6-.3-1.3-.5-1.9zm1-6.5c-.1-1.2-.5-2.3-1-3.4-.2-.5-.9-.1-.7.4.5 1 .8 2 .9 3.1 0 .4.8.4.8-.1zm2.4-1c.2.5 1 .3.8-.2l-1.2-2.7c-.2-.5-1-.3-.8.2.4 1 .8 1.8 1.2 2.7zm4.2.4c-.4-1.5-1.1-2.9-1.9-4.2-.3-.4-1-.1-.7.4.9 1.2 1.5 2.6 1.9 4 .1.5.8.3.7-.2zm-3.9-10.3c.8 1.6 1.5 3.3 2.1 5 .2.5.9.3.8-.2-.6-1.8-1.4-3.5-2.2-5.2-.3-.4-.9 0-.7.4zm.1 6.6c.2.5.9.3.8-.2l-1.5-4.2c-.2-.5-.9-.3-.8.2l1.5 4.2zm-3.1 1.1c0 .5.8.5.8 0-.1-1.3-.4-2.5-1.1-3.7-.3-.4-.9-.1-.7.4.6 1 .9 2.1 1 3.3zm-2.6 2.8-.6-3.3c-.1-.5-.9-.3-.8.2l.6 3.3c.1.5.9.3.8-.2zm6.4-12.7c-.4-1.1-1-2.2-1.7-3.2-.3-.4-1 0-.7.4.7.9 1.2 1.9 1.6 3 .2.5 1 .3.8-.2zm1.5-1c.2.5.9.3.8-.2-.4-1.2-.9-2.2-1.6-3.3-.3-.4-.9-.1-.7.4.6 1 1.1 2 1.5 3.1z" fill="#000000" stroke-width="none" opacity="1"></path></g></g></g><g id="svga-group-mustache-single-move" transform="matrix(1,0,0,1,0,0)"><g id="svga-group-mustache-single"></g></g><g id="svga-group-nose-single-move" transform="matrix(1,0,0,1,0,0)"><g id="svga-group-nose-single"><path id="SvgjsPath5551" d="M107.56 107.36c.81-.3 1.49-2.07 1.08-3.48-.41-1.41-3.64-4.3-7.2-4.88-3.56-.58-10.1 0-11.84 3.15-1.74 3.15-.33 5.38 1.08 5.38s4.47-1.16 4.47-1.16 2.15 1.74 3.56 1.74 4.72-1.66 4.72-1.66 2.31 1.57 4.13.91z" fill="#ffffff" stroke-width="none" opacity="1"></path><path id="SvgjsPath5552" d="M107.91 105.78c-.8-.68-2.14-.72-3.09-.49-2.6.6-4.35 2.98-7.21 1.73-1.73-.76-3.19-2.15-5.16-2.3-.92-.07-2.33.14-2.9.97-.52.75-.06 1.53.68 1.91 1.31.67 3.15-.13 4.41-.74 1.35.73 2.59 1.71 4.16 1.92 1.54.21 2.86-.48 4.17-1.19.24-.13.47-.25.7-.37 1.15.55 3.04 1.28 4.18.46.71-.51.7-1.35.06-1.9zm-17.14.61c.31-.46 1.31-.38 2-.23-.11.03-.22.07-.33.1-.19.05-1.64.09-1.67.13z" fill="#000000" stroke-width="none" opacity="1"></path><path id="SvgjsPath5553" d="M95.63 96.37c-.15-7.79.12-15.57.8-23.33.08-.87-1.28-.86-1.36 0-.68 7.76-.95 15.54-.8 23.33.02.87 1.38.88 1.36 0z" fill="#000000" stroke-width="none" opacity="1"></path></g></g><g id="svga-group-hair-front" transform="matrix(1.0400003000000002,0,0,1.0002003000000002,0,0)"></g><g id="svga-group-glasses-single-move" transform="matrix(1,0,0,1,0,0)"><g id="svga-group-glasses-single"></g></g></g></g></g><rect id="svga-credit-rect" width="200" height="15" x="0" y="185" fill="#ecf0f1" opacity="0.5" style="display: none;"></rect><text id="svga-credit-text" font-family="Avenir Next, Roboto, Helvetica, Arial, sans-serif" font-size="10px" text-anchor="start" font-weight="400" size="10px" anchor="start" weight="400" fill="#333333" x="33.40447998046875" y="182.60824704170227" style="display: none;"><tspan id="SvgjsTspan3640" dy="13" x="33.40447998046875">Created on AvatarMaker.com</tspan></text></g><defs id="SvgjsDefs3587"></defs></svg>