<svg xmlns="http://www.w3.org/2000/svg" version="1.1" width="600px" height="600px" viewBox="0 0 200 200" style="overflow:hidden!important;"><g id="svga-group-wrapper"><g id="svga-group-backs-single"><path id="SvgjsPath7518" d="M0 0h200v200H0V0z" fill="#ffffff" stroke-width="none" opacity="1" stroke="none"></path></g><g id="svga-group-humanwrap-move" transform="matrix(1,0,0,1,0,0)"><g id="svga-group-humanwrap"><g id="svga-group-hair-back-move" transform="matrix(1,0,0,1,0,0)"><g id="svga-group-hair-back"></g></g><g id="svga-group-humanbody-back"><path id="SvgjsPath3770" d="M77.6 118.3c0 19.3 3.4 44.1-10 51.9-13.4 7.9-31.9 11.3-37.8 22s-4.4 25.3-4.4 25.3h149.3s.7-18.9-5.1-26.4c-8.1-10.4-27.8-15.5-37.7-20.9s-13.4-25.1-13.4-52.4l-40.9.5z" fill="#ffffff" stroke-width="none" opacity="1"></path></g><g id="svga-group-chinshadow-single"></g><g id="svga-group-humanbody-front"><path id="SvgjsPath3771" d="M175.8 218.7H24.4l-.1-1c-.1-.6-1.5-15.1 4.5-26 4.1-7.4 13.5-11.3 23.5-15.5 5-2.1 10.2-4.3 14.8-6.9 10.6-6.2 10.1-23.9 9.6-41-.1-3.5-.2-6.8-.2-10v-1.1l43.2-.4v1.1c0 29.9 4.2 46.7 12.8 51.4 2.9 1.6 6.7 3.2 10.8 4.9 10 4.1 21.3 8.8 27.2 16.3 6.1 7.7 5.4 26.4 5.4 27.1l-.1 1.1zm-149.3-2.2h147.1c0-4.1-.2-18.5-4.9-24.6-5.5-7-16.6-11.6-26.3-15.6-4.1-1.7-8-3.3-11-5-5.1-2.8-8.7-8.9-10.9-18.7-2-8.4-2.9-19.4-3-33.5l-38.6.4c0 2.8.1 5.7.2 8.8.5 17.8 1 36.1-10.7 43-4.7 2.7-9.9 4.9-15 7.1-9.6 4-18.7 7.8-22.4 14.5-5 8.6-4.7 20.1-4.5 23.6z" fill="#000000" stroke-width="none" opacity="1"></path><path id="SvgjsPath3772" d="M93.9 153.8c-.5 1.8-.4 3.4.5 5.2.8 1.6 2.1 2.7 3.9 2.9.4 0 .7-.5.5-.8-1.6-2.2-3.5-4.2-3.7-7.1 0-.7-1-.9-1.2-.2z" fill="#000000" stroke-width="none" opacity="1"></path><path id="SvgjsPath3773" d="M112.5 187.5c8.8.5 18.1-.7 26.6-2.9.7-.2.6-1.4-.2-1.3-8.8 1.1-17.7 2-26.5 3.3-.5.1-.3.9.1.9z" fill="#000000" stroke-width="none" opacity="1"></path><path id="SvgjsPath3774" d="M63.1 182.5c3.8.9 7.6 1.9 11.5 2.8 3.6.8 7.4 2 11.1 2.1.7 0 .8-.9.2-1.2-3.5-1.4-7.5-1.7-11.2-2.5-3.8-.7-7.5-1.3-11.3-2-.5 0-.7.7-.3.8z" fill="#000000" stroke-width="none" opacity="1"></path></g><g id="svga-group-clothes-single"><path id="SvgjsPath6708" d="M63.33 170.93s-12.22 5.29-16.7 6.92c-4.48 1.63-12.63 5.91-17.11 11.2-4.48 5.29-5.09 12.63-5.7 17.92-.61 5.29.58 11.73.58 11.73h152.36s.2-14.17-2.65-22.32-5.7-9.78-14.87-15.48c-9.16-5.7-18.53-7.94-26.07-11.61 0 0-3.05 12.83-30.55 14.26-27.48 1.43-34-6.92-39.29-12.62z" fill="#ffffff" stroke-width="none" opacity="1"></path><path id="SvgjsPath6709" d="M175.06 196.05c-2.9-8.3-5.87-10.15-14.69-15.63l-.6-.37c-5.81-3.62-11.81-5.9-17.1-7.91-3.23-1.23-6.28-2.39-9.06-3.75a1.02 1.02 0 0 0-.87 0c-.27.13-.47.38-.54.67-.03.12-3.19 12.12-29.63 13.49-11.02.58-18.6-.45-24.07-2.24-.04-.14-.21-.21-.31-.1-.46-.16-.91-.31-1.34-.48.01-.02.01-.04.02-.06.08-.25-.3-.35-.39-.11 0 .01 0 .01-.01.02-6.05-2.41-9.18-5.81-11.8-8.66l-.63-.68c-.29-.31-.74-.4-1.13-.24-.12.05-12.24 5.3-16.64 6.9-3.9 1.42-12.58 5.64-17.53 11.49-4.44 5.25-5.25 12.38-5.83 17.59l-.1.86c-.62 5.38.54 11.76.59 12.02.09.47.5.82.98.82h152.36a1 1 0 0 0 1-.99c.03-.56.19-14.42-2.68-22.64zm-4.34-4.67c-.51-.5-1.02-1-1.52-1.51.1-.08.19-.16.26-.22.46.55.87 1.12 1.26 1.73zm-1.89-1.17c.98 1.01 1.94 2.08 2.94 3.08.48 1 .94 2.12 1.4 3.42l.03.11c-1.74-1.87-3.76-3.55-5.68-5.25.51-.59.95-1.04 1.31-1.36zm-66.15-5.66c23.41-1.21 29.59-10.57 31.06-13.88.7.33 1.42.64 2.15.95-1.03 1.47-3.85 5.21-8.22 8.8-3.79 3.11-12.73 6.36-23.97 7.02.1-.66.16-1.34.25-2 .03-.19-.28-.19-.3 0-.08.66-.2 1.34-.27 2.01-.68.04-1.37.06-2.07.08.11-.96.07-1.97.08-2.92l1.29-.06zm-4.2 2.99c-.61-.01-1.22-.03-1.83-.05.07-.92.03-1.87.04-2.79.62 0 1.25 0 1.9-.02-.05.93-.14 1.92-.11 2.86zm.5-2.86c.67-.01 1.35-.03 2.04-.06-.08.95-.2 1.95-.18 2.92-.6.01-1.2.02-1.82.01.06-.95-.01-1.94-.04-2.87zm-2.73.03c-.03.91-.09 1.85-.06 2.76a65.89 65.89 0 0 1-3.39-.24c.04-.87.02-1.74.01-2.6 1.1.04 2.25.07 3.44.08zm-18.35-2.47c.39.13.8.25 1.21.37-.18.58-.36 1.18-.48 1.77-.35-.11-.7-.23-1.04-.34.11-.45.11-.94.2-1.4.04-.15.08-.27.11-.4zm1.71.51c.27.07.55.15.83.22-.1.6-.25 1.24-.31 1.86-.32-.09-.63-.18-.94-.28.18-.58.31-1.19.42-1.8zm1.26.33c1.02.25 2.11.48 3.26.67-.15.66-.3 1.35-.36 2.02a66.49 66.49 0 0 1-3.1-.79c.12-.62.14-1.29.2-1.9zm3.79.76c.58.09 1.17.18 1.78.26-.23.71-.39 1.46-.38 2.16-.43-.08-.87-.17-1.3-.26l-.39-.09c.15-.67.23-1.39.29-2.07zm2.14 1.07c.05-.25.12-.5.19-.75.45.06.92.11 1.39.15-.11.77-.22 1.55-.21 2.32-.51-.08-1.03-.17-1.55-.27.07-.48.08-.98.18-1.45zm2.02-.55c.48.05.97.09 1.47.12-.21.76-.38 1.63-.34 2.42-.46-.06-.92-.13-1.38-.2.16-.75.21-1.55.25-2.34zm1.67 1.71c.05-.53.15-1.04.28-1.55l1.56.09c-.03.85-.07 1.71-.06 2.57-.6-.06-1.2-.13-1.81-.21.01-.3 0-.6.03-.9zm-13.05-3.99c-.03.09-.07.18-.09.28-.11.45-.26 1-.24 1.5-.48-.17-.95-.34-1.41-.51.21-.55.4-1.11.57-1.68.38.14.77.28 1.17.41zm-2.2 1.08c-.4-.16-.8-.32-1.18-.48.22-.56.4-1.11.61-1.67.36.16.74.32 1.13.47-.21.56-.4 1.12-.56 1.68zm-6.64-5.73c-.52.46-.95 1.02-1.3 1.62-.5-.34-.96-.67-1.4-1 .55-.48 1.12-.97 1.64-1.48.34.28.69.57 1.06.86zm.33.25c.4.3.82.6 1.26.89-.36.33-.68.72-1 1.09l-.33.39c-.45-.27-.88-.54-1.29-.82.4-.57.86-1.07 1.36-1.55zm.65 2.22c.32-.36.66-.72.93-1.12.3.19.61.39.93.58-.46.42-.86.94-1.18 1.49a30.4 30.4 0 0 1-1.01-.57c.1-.13.22-.25.33-.38zm2.29-.29c.72.41 1.49.8 2.31 1.18-.27.54-.49 1.11-.59 1.69-1.06-.47-2.05-.95-2.96-1.43.38-.52.8-.97 1.24-1.44zm-4.71-3.37c-.55.49-1.08 1.03-1.6 1.55-.67-.52-1.26-1.03-1.78-1.51.27-.35.56-.67.89-.96.27-.23.56-.42.85-.61.51.5 1.05 1.01 1.64 1.53zm-1.98-1.88c-.66.4-1.24 1.03-1.68 1.65-.67-.64-1.21-1.23-1.63-1.74.33-.23.65-.47.97-.71.31-.23.63-.45.94-.68.44.49.91.98 1.4 1.48zm-2.11-2.24.14.16c.07.08.14.15.21.23-.36.26-.71.54-1.06.8l-.81.6c-.26-.33-.48-.63-.64-.87.92-.38 1.67-.7 2.16-.92zm-34.94 21.39c3.3 2.32 6.88 4.55 10.66 6 .42.86.84 1.79 1.24 2.78-3.8-2.44-8.08-4.62-12.15-6.46-.21-.09-.38.18-.18.31 3.94 2.51 8.31 5 12.62 6.88.35.91.69 1.86 1.01 2.87-4.79-2.96-10-5.52-15.06-8.01.58-2.22 1.42-4.4 2.68-6.38 2.36 1.56 4.76 3.26 7.31 4.42.17.08.4-.15.22-.29-2.21-1.75-4.8-3.12-7.27-4.52.24-.35.49-.69.75-1.02 1.39.84 2.81 1.74 4.29 2.36 1.28 1.53 2.75 3.62 4.15 6.34-3.39-1.84-6.81-3.56-10.08-5.64-.21-.17-.41.2-.19.36zm2.17-3.83c.17-.2.36-.4.54-.6.43.32 1.27 1.01 2.32 2.12-.93-.55-1.9-1.04-2.86-1.52zm-5.05 28.02c-.09-.6-.22-1.5-.33-2.57.27.18.53.37.83.48.19.07.33-.2.2-.34-.29-.29-.68-.47-1.03-.69a.21.21 0 0 1-.06-.04c-.06-.64-.11-1.33-.15-2.05 2.35 1.98 4.97 3.93 7.81 5 .17.06.25-.19.12-.28-2.66-1.83-5.42-3.37-7.96-5.37-.05-1.15-.05-2.35.03-3.51 5.06 3.02 10.09 6.25 15.34 8.91.21.11.39-.19.19-.32-4.95-3.29-10.31-6.1-15.47-9.05-.01-.01-.02 0-.03 0 .02-.27.05-.53.08-.79l.1-.86c.28-2.47.59-5.22 1.27-7.94 4.87 2.8 9.89 5.66 15.01 7.97.1.05.2 0 .25-.07.53 1.69 1 3.52 1.41 5.51-5.55-3.1-11.15-6.03-16.6-9.31-.25-.15-.47.23-.23.39 5.33 3.59 11.04 7.02 16.97 9.57.23 1.19.43 2.43.61 3.73-5.98-3.51-12.01-6.6-17.65-10.69-.21-.15-.4.19-.2.35 5.39 4.15 11.38 8.26 17.81 10.59.03.01.05 0 .07 0 .06.46.12.92.17 1.39H25.25zm20.56 0c-2.15-19.99-10.98-28.11-13.53-30.06 4.49-4.18 10.97-7.49 14.7-8.85 2.71-.99 8.13-3.26 12.08-4.94 1.5 2.4 7.65 10.32 25.28 14.1a73.48 73.48 0 0 0 15.4 1.63c13.64 0 24.62-3.84 29.22-7.62 5-4.11 8-8.31 8.84-9.57 1.36.54 2.75 1.07 4.18 1.62 5.46 2.08 11.11 4.23 16.75 7.74l.6.37c4.04 2.51 6.74 4.2 8.76 6.08-.7.55-1.94 1.69-3.35 3.62-.1.03-.18.12-.17.23-3.01 4.21-6.75 12.03-7.84 25.65H45.81zm119.12 0c-1.79-1.72-3.73-3.28-5.65-4.85.14-.98.3-1.93.47-2.84 2.53 2.85 5.37 5.59 8.57 7.69h-3.39zm-3.55 0c-.74-.73-1.62-1.34-2.47-1.94.09-.83.19-1.64.3-2.42 1.71 1.5 3.43 3 5.24 4.36h-3.07zm-2.52-1.47c.61.52 1.24 1.03 1.9 1.47h-2.04c.04-.5.09-.99.14-1.47zm10.35 1.47c-3.34-2.56-6.52-5.13-9.35-8.27.19-.97.4-1.9.62-2.78 3.51 4.03 7.52 7.91 12.05 10.78.21.13.47-.19.27-.35-4.28-3.46-8.43-6.85-12.19-10.89-.01-.01-.01 0-.02-.01a49 49 0 0 1 .96-3.3c4 3.23 7.92 6.59 12.08 9.62.16.12.37-.15.22-.28-3.91-3.39-8.09-6.46-12.16-9.65-.01-.01-.02 0-.03-.01.5-1.48 1.02-2.81 1.56-4 3.48 3.92 7.31 7.78 11.67 10.7.18.12.39-.15.23-.29-3.99-3.56-8.02-6.94-11.7-10.83.39-.85.79-1.62 1.19-2.33 3.09 3.13 6.11 6.5 9.53 9.22.18.14.4-.07.25-.25-2.82-3.39-6.3-6.35-9.53-9.39.39-.66.76-1.26 1.13-1.79 2.55 2.64 5.08 5.41 7.93 7.66.17.13.37-.07.24-.24-2.31-2.84-5.16-5.34-7.87-7.85.32-.45.63-.85.93-1.21 2.02 1.95 4.01 4.01 6.25 5.68 2.06 6.71 2.29 16.89 2.3 20.08h-6.56z" fill="#000000" stroke-width="none" opacity="1"></path></g><g id="svga-group-head" transform="matrix(1,0,0,1,0,0)"><g id="svga-group-ears-left-move" transform="matrix(1,0,0,1,0,1)"><g id="svga-group-ears-left"><path id="SvgjsPath5529" d="M61.8 82.4s-3.6-5.4-5.6-7.8-4.7-5-6.3-1.1c-1.6 3.9-2.5 11.6-1.6 16.9s6.8 11 9.6 11.2c2.8.2 5.7-7.6 5.9-10.3.3-2.8-.6-6.9-2-8.9z" fill="#ffffff" stroke-width="none" opacity="1"></path><path id="SvgjsPath5530" d="M47.2 90.4c-1-5.5.1-13.3 1.6-17.2.2-.6 1-2.4 2.9-2.6 2.1-.2 3.9 1.6 5.5 3.5 2.1 2.4 5.5 7.7 5.7 7.9 1.4 2.1 2.4 6.4 2.1 9.3-.2 2.4-2.4 8.8-5.2 10.6-.6.4-1.3.6-2 .5-3.6-.3-9.7-6.4-10.6-12zm8-15.4c-2.3-2.7-3.1-2.7-3.2-2.7-.1 0-.5.3-1 1.4-1.5 3.7-2.5 11.3-1.6 16.5.9 5.3 6.7 10.3 8.5 10.5 1.4-.2 4.4-6.1 4.7-9.5.2-2.6-.7-6.6-1.9-8.5 0 0-3.5-5.4-5.5-7.7z" fill="#000000" stroke-width="none" opacity="1"></path><path id="SvgjsPath5531" d="M52.9 78c2 1.3 3.6 3.5 4.3 6 0 .2-.2.2-.2.1 0 0 0-.1-.1-.1-.6-.5-1.2-1.1-1.9-1.1-1.1 0-1.1 1.4-.8 2.5.4 1.5 1.1 2.9 1.9 4.2.1.2-.1.3-.2.2-1.2-1.5-3-4.6-2.4-6.6.5-1.7 2-.9 3.1.1-.6-1.3-1.4-2.5-2.4-3.5-1.3-1.3-4.1-3.4-4.9-.9 0 .1-.2.1-.2-.1.1-2.5 2.6-1.7 3.8-.8z" fill="#000000" stroke-width="none" opacity="1"></path><path id="SvgjsPath5532" d="M56.7 92.6c1 2.5-1.2 3-2.5 1.9-2.1-1.7-3.5-5.5-3.5-8.4 0-.2.2-.2.2 0 .2 1.7.5 3.3 1.2 4.8.4.9 1 1.9 1.6 2.7.4.5.9.9 1.5 1.1 1.2 0 1.6-.7 1.3-2 0-.1.1-.2.2-.1z" fill="#000000" stroke-width="none" opacity="1"></path></g></g><g id="svga-group-ears-right-move" transform="matrix(1,0,0,1,0,1)"><g id="svga-group-ears-right"><path id="SvgjsPath5533" d="M138.2 82.4s3.6-5.4 5.6-7.8 4.7-5 6.3-1.1c1.6 3.9 2.5 11.6 1.6 16.9-.9 5.3-6.8 11-9.6 11.2-2.8.2-5.7-7.6-5.9-10.3-.3-2.8.6-6.9 2-8.9z" fill="#ffffff" stroke-width="none" opacity="1"></path><path id="SvgjsPath5534" d="M142.2 102.4c-.7 0-1.4-.1-2-.5-2.8-1.7-5-8.2-5.2-10.6-.3-2.9.7-7.1 2.1-9.3.1-.2 3.6-5.5 5.7-7.9 1.6-1.9 3.4-3.7 5.5-3.5 2 .2 2.7 2 2.9 2.6 1.6 3.9 2.6 11.8 1.6 17.2-.9 5.6-7 11.7-10.6 12zm-3-19.7c-1.2 1.9-2.1 5.8-1.9 8.5.3 3.4 3.2 9.4 4.7 9.5 1.9-.1 7.6-5.2 8.5-10.5.9-5.3-.1-12.8-1.6-16.5-.4-1.1-.9-1.4-1-1.4-.1 0-.9 0-3.2 2.7-1.9 2.3-5.4 7.7-5.5 7.7z" fill="#000000" stroke-width="none" opacity="1"></path><path id="SvgjsPath5535" d="M147.1 78c-2 1.3-3.6 3.5-4.3 6 0 .2.2.2.2.1 0 0 0-.1.1-.1.6-.5 1.2-1.1 1.9-1.1 1.1 0 1.1 1.4.8 2.5-.4 1.5-1.1 2.9-1.9 4.2-.1.2.1.3.2.2 1.2-1.5 3-4.6 2.4-6.6-.5-1.7-2-.9-3.1.1.6-1.3 1.4-2.5 2.4-3.5 1.3-1.3 4.1-3.4 4.9-.9 0 .1.2.1.2-.1-.1-2.5-2.6-1.7-3.8-.8z" fill="#000000" stroke-width="none" opacity="1"></path><path id="SvgjsPath5536" d="M143.3 92.6c-1 2.5 1.2 3 2.5 1.9 2.1-1.7 3.5-5.5 3.5-8.4 0-.2-.2-.2-.2 0-.2 1.7-.5 3.3-1.2 4.8-.4.9-1 1.9-1.6 2.7-.4.5-.9.9-1.5 1.1-1.2 0-1.6-.7-1.3-2 0-.1-.1-.2-.2-.1z" fill="#000000" stroke-width="none" opacity="1"></path></g></g><g id="svga-group-faceshape-wrap"><g id="svga-group-faceshape-single"><path id="SvgjsPath7523" d="M142.4 53.6c-2.3-11.4-15.1-28.8-42.4-28.8S63.6 38.2 59.6 48.1c-2.5 6.2-3.2 15.2-3.4 19.7 0 0 .5 33.6 2.2 41.1 1.8 7.4 11.2 32.6 35.6 33.9 21.8 1.1 35.2-11.4 41.9-27 6.7-15.6 7.8-48 7.8-48 .1-3.2-.2-8.9-1.3-14.2z" fill="#ffffff" stroke-width="none" opacity="1"></path><path id="SvgjsPath7524" d="M96.8 144c-.9 0-1.9 0-2.8-.1-10.8-.6-19.9-5.6-27.1-15.1-5.2-6.8-8.4-14.9-9.5-19.7-1.8-7.5-2.2-39.9-2.3-41.3.2-4.8.9-13.8 3.4-20.1 6.6-16.2 20.1-24 41.5-24 12.3 0 23.2 3.6 31.3 10.4 6.3 5.2 10.9 12.5 12.2 19.3 1.1 5.5 1.3 11.4 1.4 14.4 0 1.3-1.2 32.8-7.9 48.4-4.5 10.6-15.7 27.8-40.2 27.8zM57.3 67.9c0 1.2.5 33.7 2.2 40.8 1.1 4.6 4.1 12.3 9.1 18.8 6.8 8.9 15.3 13.7 25.4 14.2 25.1 1.3 36.4-15.9 40.8-26.3 6.5-15 7.7-46.4 7.7-47.5 0-3-.3-8.7-1.4-14-1.3-6.4-5.6-13.1-11.5-18-7.7-6.5-18-9.9-29.9-9.9-20.3 0-33.2 7.4-39.4 22.6-2.1 5.9-2.8 14.6-3 19.3z" fill="#000000" stroke-width="none" opacity="1"></path></g></g><g id="svga-group-mouth-single-move" transform="matrix(1,0,0,1,0,3)"><g id="svga-group-mouth-single" transform="matrix(1.2000009000000007,0,0,1.2000009000000007,-20.049285320254967,-24.097295479578094)"><path id="SvgjsPath5198" d="M112.98 118.4c-.02 0-.53-.02-.95-.22-3.72-1.8-8.31-3.34-11.63-.05-3.07-4.14-8.05-.51-11.8.92-.36.14-.75.02-1.08.1-.3.08-.3.42.09.54.02 0 .66.18 1.14.32.65 1.68 1.46 3.61 3.19 4.41 1.08.5 2.21.38 3.35.16 1.96-.38 3.8-.88 5.81-.97 1.86-.09 3.67.08 5.51.38 1.11.18 2.24.41 3.32-.03 2.02-.82 2.22-3.09 2.18-5.01.29.01.48-.02.76-.08.38-.13.42-.41.11-.47zm-12.98 0c.07.1.51.31.64.17 2.95-3.04 7.04-1.88 10.46-.29-3.8-.64-7.85-.75-10.7 2.22-.97-1.15-2.3-1.7-3.83-1.79-2.57-.15-5.31.44-7.89.82 3.59-1.39 8.47-5.02 11.32-1.13zm10.3 4.54c-1.32 1.1-2.64.71-4.23.46a25.02 25.02 0 0 0-5.67-.24c-1.79.14-3.48.6-5.24.95-3.32.65-4.82-1.45-5.9-4.16 1.46-.19 2.92-.38 4.38-.56 2.33-.28 4.95-.54 6.54 1.58.05.07.12.1.18.1.05.01.1 0 .15-.03.01 0 .02-.01.02-.01.01-.01.03 0 .04-.02 2.89-3.2 7.15-2.87 11.03-2.16.06 1.59 0 3-1.3 4.09z" fill="#000000" stroke-width="none" opacity="1"></path></g></g><g id="svga-group-eyes-left-move" transform="matrix(1,0,0,1,0,-2)"><g id="svga-group-eyes-left"><g id="svga-group-eyesback-left"></g><g id="svga-group-eyesiriswrapper-left"><g id="svga-group-eyesiriscontrol-left" transform="matrix(1,0,0,1,0,0)"><g id="svga-group-eyesiris-left"><path id="SvgjsPath6897" d="M75.2 84.7c-1.5 1.9-1.3 4.5.4 6 1.8 1.7 4.9 2.1 7.1.1 1.1-1.1 1.8-2.7 1.5-4.1-.1-.5-.3-1-.6-1.4-.2-.6-.5-1.1-1-1.5-2.1-1.8-5.6-1.4-7.4.9z" fill="#ffffff" stroke-width="none" opacity="1"></path><path id="SvgjsPath6898" d="M84.4 86.7c-.1-.5-.3-1-.6-1.5-.2-.6-.6-1.1-1.1-1.6-1-.9-2.3-1.4-3.8-1.2-1.6.1-3.1.9-4 2.1-1.6 2-1.4 4.8.4 6.4 1 .9 2.5 1.5 3.9 1.5 1.2 0 2.5-.4 3.5-1.4 1.4-1.2 2.1-2.9 1.7-4.3zm-.6-.1c-.7.1-1.4.2-2 .2 0-.1-.1-.2-.1-.2.4-.1.8-.3 1.2-.5.2-.1.4-.1.6-.3.1.3.2.5.3.8zm-.9-1.8.3.6v.1c-.6.3-1.2.5-1.8.8-.1-.1-.1-.2-.2-.3.7-.3 1.2-.8 1.7-1.2zm-.6-.7c.2.2.3.3.4.5-.6.4-1.2.8-1.6 1.3l-.1-.1c-.1-.1-.2-.1-.3-.2.2-.3.5-.7.7-1.1.1-.2.3-.4.5-.7.2.1.3.2.4.3zm-2.1.1c0-.4.1-.7.1-1.1.5.1.9.3 1.3.5-.2.2-.3.5-.5.7-.2.4-.5.7-.6 1.1-.1-.1-.3-.1-.4-.2.1-.3.1-.7.1-1zM79 83h.4c.2 0 .5 0 .7.1-.1.3-.1.6-.1 1 0 .3-.1.7-.1 1.1-.2 0-.4-.1-.6-.1 0-.3-.1-.7-.2-1 0-.4-.1-.7-.1-1.1zm-4.5 3.9c.7.2 1.5.4 2.2.3 0 .2-.1.5 0 .7-.7-.1-1.5 0-2.2 0v-1zm.1 1.3c.7-.1 1.5-.1 2.2-.1 0 .1.1.2.1.3-.4.1-.7.3-1.1.4-.3.1-.6.2-.9.4-.2-.3-.3-.6-.3-1zm.7 1.7c-.1-.1-.2-.3-.3-.4.3-.1.6-.3.9-.4.3-.1.7-.3 1-.4-.5.4-1.1.8-1.6 1.2zm.5.6-.3-.3c.6-.4 1.1-.8 1.6-1.2.1.1.1.2.2.2-.2.2-.4.5-.6.7-.2.3-.4.5-.6.8-.1-.1-.2-.2-.3-.2zm.5.4c.2-.3.4-.6.7-.8.2-.2.4-.4.6-.7.1.1.2.2.3.2-.2.2-.4.6-.5.8-.2.2-.4.5-.6.7-.2 0-.3-.1-.5-.2zm.8.4c.2-.2.3-.4.5-.6.2-.3.5-.6.6-1 .1 0 .2.1.3.1-.2.6-.3 1.2-.5 1.8-.4-.1-.7-.2-.9-.3zm1.1.4c.3-.5.5-1.2.5-1.8.2 0 .4.1.6.1-.1.6 0 1.2 0 1.8-.4 0-.8 0-1.1-.1zm1.4.1c0-.6 0-1.2-.1-1.8.2 0 .4 0 .6-.1.2.6.3 1.2.5 1.7-.4.1-.7.2-1 .2zm3.2-1.7c-.5-.2-.9-.6-1.3-.9 0 .1-.1.2-.1.3.3.3.7.7 1.1.9l-.2.2c-.2.2-.4.3-.6.4-.1-.2-.3-.5-.4-.7-.1-.2-.2-.3-.3-.5-.1 0-.2.1-.3.1.1.2.2.4.3.5.1.2.3.5.5.8-.3.2-.5.3-.8.4-.2-.6-.4-1.1-.6-1.7.1 0 .1 0 .2-.1-.2-.1-.3-.2-.3-.4-.8.3-1.7 0-2.3-.5-.4-.4-.6-.9-.6-1.4-.2-.2-.4-.4-.5-.6-.4-.1-.8-.1-1.1-.1-.3-.1-.6-.1-.9-.2.1-.4.2-.8.4-1.1.3.2.7.4 1 .5.2.1.4.2.5.3 0-.1 0-.3.1-.4-.2-.1-.3-.2-.5-.2-.3-.2-.6-.3-1-.4.1-.1.2-.2.3-.4.2-.2.4-.4.6-.7.1.2.4.4.6.6.1.2.3.3.4.4.1-.1.2-.1.3-.2l-.1-.1-.6-.6c-.1-.1-.2-.3-.3-.4.3-.2.6-.4.8-.5.1.3.3.6.4.8.1.2.3.5.5.7.2 0 .3.1.4.1l-.6-.9c-.1-.2-.2-.5-.4-.8.4-.2.8-.3 1.2-.3 0 .3.1.7.2 1.1.1.3.1.7.2 1-.2 0-.3.1-.5.1.2.1.3.2.4.4h.4c.5 0 1 .2 1.3.5.2.2.3.4.4.6.1.2.2.4.2.6.1.3 0 .7-.2 1 .2.1.3.2.3.4 0 0 0-.1.1-.1.2.2.6.4.9.5.2.1.5.3.8.4 0 .2-.1.4-.3.6zm.6-.8c-.2 0-.9-.4-1-.5-.2-.1-.3-.2-.5-.2 0 0-.1 0-.2-.1.1-.2.2-.4.2-.6.6.2 1.3.3 2 .3-.2.3-.3.7-.5 1.1zm.5-1.5c-.7-.1-1.3-.2-2-.3v-.4c.7 0 1.4-.1 2-.2v.9zm-3.1.4h.2c.4-1-.2-2.1-1.3-2.4-.2-.1-.4-.1-.6-.1.4.8 0 2-1.2 2h-.3c.1.6.4 1.2 1 1.5.4.2.9.2 1.4.1-.2-.5.1-1.1.8-1.1z" fill="#000000" stroke-width="none" opacity="1"></path></g></g></g><g id="svga-group-eyesfront-left"><path id="SvgjsPath4877" d="M79 72.1c-8.2 0-14.8 6.6-14.8 14.8s6.6 14.8 14.8 14.8 14.8-6.6 14.8-14.8c0-8.1-6.6-14.8-14.8-14.8zm5.9 21.2c-1.8 1.5-4.5 3.2-8.1 3s-7.1-4.5-7.5-6.7c0 0 2.3-3.1 3.8-4.2 1.4-1.1 2.8-3.2 5.8-3.2s5.9.6 7.9 4.6c0-.1-.1 4.9-1.9 6.5z" fill="#ffffff" stroke-width="none" opacity="1"></path><path id="SvgjsPath4878" d="M88.6 83.7c-1.3-2.4-4.2-4.3-7.8-5.3-5.6-1.5-9.6 3.2-10.6 4.6 0 .1-4.6 6.5-4 7.8.1.2.3.4.6.4H67.1c.4.4 1.1.6 1.6.3.1-.1.1-.3 0-.3-.3-.1-.6-.2-.8-.3.4-.2.9-.6 1.5-1.1.8 2.8 2.6 4.9 5.1 6 1.2.6 2.6.8 4 .8 1.7 0 3.4-.4 4.9-1.2 3.2-1.7 4.1-4.9 4.4-7 .2.3.3.7.4.9.2.5.3.8.7.8.2 0 .4-.2.5-.4.4-2 .2-4.1-.8-6zm-11.1-4.4c-.1.8-.1 1.7.3 2.4-.4.1-.8.2-1.2.4l-.3-.9c-.1-.5-.2-.9-.3-1.4.5-.3 1-.4 1.5-.5zm-2.1.6c-.1.8.1 1.8.5 2.4-.4.2-.7.4-1.1.7l-.3-.9c-.1-.5-.2-1-.3-1.6l1.2-.6zm-1.6 1c0 .8.2 1.8.6 2.5-.2.1-.3.3-.5.4l-.7.7c-.1-.3-.2-.5-.3-.8-.2-.6-.3-1.3-.3-1.9l1.2-.9zm-1.7 1.5c-.1.9.1 2 .5 2.8l-.8.8c-.1-.2-.2-.5-.3-.7-.2-.5-.4-1.1-.5-1.6.2-.3.6-.8 1.1-1.3zm-1.6 1.9c.1.8.3 1.6.8 2.2l-.7.7c0-.1-.1-.2-.1-.3-.2-.6-.3-1.3-.4-1.9.1-.3.3-.5.4-.7zm-3.3 5.9c.1-.3.3-.7.6-1.2.1.2.1.4.3.6-.4.2-.7.4-.9.6zm1.4-1.1c0-.4-.1-.7-.2-1.1 0-.1 0-.1-.1-.2.1-.1.1-.2.2-.4.1.3.1.6.2.9 0 .2.1.3.1.5 0 .1-.1.2-.2.3zm.8-.8-.3-1.5-.1-.1c.2-.3.4-.6.5-.9 0 .7.1 1.4.4 2l-.5.5zm13.2 6.4c-2.4 1.3-5.5 1.5-8 .4-1.7-.7-3.8-2.3-4.6-5.8v-.1c.9-.8 2-1.9 3.3-3.2.2.1.4 0 .4-.3v-.1l1-1c2.5-2.5 6.4-2.8 9.3-.7 1.2.9 2 1.9 2.7 3-.1 1-.3 5.7-4.1 7.8zm5.8-6.5c-.2-.5-.5-1-.8-1.6 0-.2-.1-.3-.2-.4-.7-1.1-1.6-2.2-2.8-3.1a8.2 8.2 0 0 0-4.9-1.6c-.4 0-.9 0-1.3.1-.1-.3-.2-.6-.3-1-.1-.4-.1-.9-.1-1.3.8-.1 1.7 0 2.6.2 3.4.9 6 2.6 7.2 4.8.6 1.1.8 2.5.6 3.9z" fill="#000000" stroke-width="none" opacity="1"></path></g></g></g><g id="svga-group-eyes-right-move" transform="matrix(1,0,0,1,0,-2)"><g id="svga-group-eyes-right"><g id="svga-group-eyesback-right"></g><g id="svga-group-eyesiriswrapper-right"><g id="svga-group-eyesiriscontrol-right" transform="matrix(1,0,0,1,0,0)"><g id="svga-group-eyesiris-right"><path id="SvgjsPath6899" d="M117.2 84.7c-1.5 1.9-1.3 4.5.4 6 1.8 1.7 4.9 2.1 7.1.1 1.1-1.1 1.8-2.7 1.5-4.1-.1-.5-.3-1-.6-1.4-.2-.6-.5-1.1-1-1.5-2.1-1.8-5.5-1.4-7.4.9z" fill="#ffffff" stroke-width="none" opacity="1"></path><path id="SvgjsPath6900" d="M126.5 86.7c-.1-.5-.3-1-.6-1.5-.2-.6-.6-1.1-1.1-1.6-1-.9-2.3-1.4-3.8-1.2-1.6.1-3.1.9-4 2.1-1.6 2-1.4 4.8.4 6.4 1 .9 2.5 1.5 3.9 1.5 1.2 0 2.5-.4 3.5-1.4 1.4-1.2 2-2.9 1.7-4.3zm-.7-.1c-.7.1-1.4.2-2 .2 0-.1-.1-.2-.1-.2.4-.1.8-.3 1.2-.5.2-.1.4-.1.6-.3.1.3.2.5.3.8zm-.8-1.8.3.6v.1c-.6.3-1.2.5-1.8.8-.1-.1-.1-.2-.2-.3.6-.3 1.1-.8 1.7-1.2zm-.6-.7c.2.2.3.3.4.5-.6.4-1.2.8-1.6 1.3l-.1-.1c-.1-.1-.2-.1-.3-.2.2-.3.5-.7.7-1.1.1-.2.3-.4.5-.7.1.1.2.2.4.3zm-2.1.1c0-.4.1-.7.1-1.1.5.1.9.3 1.3.5-.2.2-.3.5-.5.7-.2.4-.5.7-.6 1.1-.1-.1-.3-.1-.4-.2 0-.3 0-.7.1-1zM121 83h.4c.2 0 .5 0 .7.1-.1.3-.1.7-.1 1.1 0 .3-.1.7-.1 1.1-.2 0-.4-.1-.6-.1 0-.3-.1-.7-.2-1 0-.5 0-.8-.1-1.2zm-4.4 3.9c.7.2 1.5.4 2.2.3 0 .2-.1.5 0 .7-.7-.1-1.5 0-2.2 0-.1-.3-.1-.6 0-1zm0 1.3c.7-.1 1.5-.1 2.2-.1 0 .1.1.2.1.3-.4.1-.7.3-1.1.4-.3.1-.6.2-.9.4-.1-.3-.2-.6-.3-1zm.7 1.7c-.1-.1-.2-.3-.3-.4.3-.1.6-.3.9-.4.3-.1.7-.3 1-.4-.5.4-1.1.8-1.6 1.2zm.5.6-.3-.3c.6-.4 1.1-.8 1.6-1.2.1.1.1.2.2.2-.2.2-.4.5-.6.7-.2.3-.4.5-.6.8-.1-.1-.2-.2-.3-.2zm.5.4c.2-.3.4-.6.7-.8.2-.2.4-.4.6-.7.1.1.2.2.3.2-.2.2-.4.6-.5.8-.2.2-.4.5-.6.7-.1 0-.3-.1-.5-.2zm.8.4c.2-.2.3-.4.5-.6.2-.3.5-.6.6-1 .1 0 .2.1.3.1-.2.6-.3 1.2-.5 1.8l-.9-.3zm1.1.4c.3-.5.5-1.2.5-1.8.2 0 .4.1.6.1-.1.6 0 1.2 0 1.8-.4 0-.7 0-1.1-.1zm1.4.1c0-.6 0-1.2-.1-1.8.2 0 .4 0 .6-.1.2.6.3 1.2.5 1.7-.4.1-.7.2-1 .2zm3.3-1.7c-.5-.2-.9-.6-1.3-.9 0 .1-.1.2-.1.3.3.3.7.7 1.1.9l-.2.2c-.2.2-.4.3-.6.4-.1-.2-.3-.5-.4-.7-.1-.2-.2-.3-.3-.5-.1 0-.2.1-.3.1.1.2.2.4.3.5.1.2.3.5.5.8-.3.2-.5.3-.8.4-.2-.6-.4-1.1-.6-1.7.1 0 .1 0 .2-.1-.2-.1-.3-.2-.3-.4-.8.3-1.7 0-2.3-.5-.4-.4-.6-.9-.6-1.4-.2-.2-.4-.4-.5-.6-.4-.1-.8-.1-1.1-.1-.3-.1-.6-.1-.9-.2.1-.4.2-.8.4-1.1.3.2.7.4 1 .5.2.1.4.2.5.3 0-.1 0-.3.1-.4-.2-.1-.3-.2-.5-.2-.3-.2-.6-.3-1-.4.1-.1.2-.2.3-.4.2-.2.4-.4.6-.7.1.2.4.4.6.6.1.2.3.3.4.4.1-.1.2-.1.3-.2l-.1-.1-.6-.6c-.1-.1-.2-.3-.3-.4.3-.2.6-.4.8-.5.1.3.3.6.4.8.1.2.3.5.5.7.2 0 .3.1.4.1l-.6-.9c-.1-.2-.2-.5-.4-.8.4-.2.8-.3 1.2-.3 0 .3.1.7.2 1.1.1.3.1.7.2 1-.2 0-.3.1-.5.1.2.1.3.2.4.4h.4c.5 0 1 .2 1.3.5.2.2.3.4.4.6.1.2.2.4.2.6.1.3 0 .7-.2 1 .2.1.3.2.3.4 0 0 0-.1.1-.1.2.2.6.4.9.5.2.1.5.3.8.4 0 .2-.2.4-.3.6zm.5-.8c-.2 0-.9-.4-1-.5-.2-.1-.3-.2-.5-.2 0 0-.1 0-.2-.1.1-.2.2-.4.2-.6.6.2 1.3.3 2 .3-.1.3-.3.7-.5 1.1zm.5-1.5c-.7-.1-1.3-.2-2-.3v-.4c.7 0 1.4-.1 2-.2v.9zm-3.1.4h.2c.4-1-.2-2.1-1.3-2.4-.2-.1-.4-.1-.6-.1.4.8 0 2-1.2 2h-.3c.1.6.4 1.2 1 1.5.4.2.9.2 1.4.1-.1-.5.1-1.1.8-1.1z" fill="#000000" stroke-width="none" opacity="1"></path></g></g></g><g id="svga-group-eyesfront-right"><path id="SvgjsPath4879" d="M121 72.1c-8.2 0-14.8 6.6-14.8 14.8s6.6 14.8 14.8 14.8 14.8-6.6 14.8-14.8c0-8.1-6.6-14.8-14.8-14.8zm2.1 24.2c-3.6.2-6.3-1.4-8.1-3-1.8-1.5-1.9-6.5-1.9-6.5 2-3.9 4.9-4.5 7.9-4.6 3 0 4.4 2.1 5.8 3.2 1.4 1.1 3.8 4.2 3.8 4.2-.4 2.1-3.9 6.5-7.5 6.7z" fill="#ffffff" stroke-width="none" opacity="1"></path><path id="SvgjsPath4882" d="M129.8 83.1c-1.1-1.5-5-6.1-10.6-4.6-3.6.9-6.5 2.9-7.8 5.3-1 1.8-1.2 3.9-.5 6.1.1.2.2.3.4.4.2.7.5 1.4 1 1.9.1.1.3 0 .3-.2-.2-.7-.5-1.3-.8-1.9.1-.1.2-.3.3-.6.1-.2.2-.5.4-.9.3 2.1 1.2 5.3 4.4 7 1.5.8 3.2 1.2 4.9 1.2 1.4 0 2.7-.3 4-.8 2.5-1.1 4.3-3.2 5.1-6 1.1 1 1.9 1.4 2.4 1.4h.1c.3 0 .5-.2.6-.4.4-1.4-4.1-7.8-4.2-7.9zm-13.3-2.6c.6-.3 1.2-.5 1.9-.8-.1.6-.3 1.3-.1 1.9-.6.1-1.1.3-1.7.6-.1-.4-.2-.9-.1-1.7.1.1 0 .1 0 0zm-1.8 1.1c.4-.3.9-.6 1.4-.9-.1.6-.1 1.3.1 1.8-.3.2-.5.3-.8.5-.2.2-.5.4-.7.6 0-.1-.1-.2-.1-.3-.1-.5-.1-1 .1-1.5.1-.1.1-.1 0-.2zm-.4.3c-.3.6-.3 1.5 0 2.2-.3.3-.6.6-.9 1l-.3-.6c-.1-.4-.1-.8 0-1.1 0-.1 0-.1-.1-.2.4-.5.8-.9 1.3-1.3zm-2.8 6.3c-.1-.7-.1-1.4.1-2.1.1.4.3.7.5 1-.2.4-.4.8-.6 1.1zm.6-2.6c0-.4 0-.9.1-1.3v-.1c.1-.2.3-.4.4-.6-.1.6 0 1.4.4 1.9-.2.2-.3.5-.5.7-.1.1-.2.2-.3.4l-.1.1c.1-.4.1-.7 0-1.1zm17.9 3.6c-.8 3.5-3 5.1-4.6 5.8-2.5 1.1-5.5 1-8-.4-3.8-2.1-4-6.7-4-7.8.4-.7.9-1.4 1.6-2h.1c.2.1.3-.1.3-.3v-.1c.3-.2.5-.5.8-.7.2-.2.5-.3.8-.5.1.1.2 0 .2-.1 2.7-1.4 6.1-1 8.3 1.3l1.2 1.2c1.2 1.6 2.4 2.7 3.3 3.6zm-2.8-4.2-1.2-1.2c-1.6-1.6-3.6-2.4-5.7-2.4-.5 0-1.1.1-1.6.2.1-.6.1-1.3.1-2 .2-.1.4-.1.6-.2s.4-.1.6-.1c-.1.5-.2 1 0 1.5.1.2.3.2.4 0 .1-.5.1-1.1.1-1.6 4.4-.5 7.5 3.2 8.4 4.5 1.1 1.5 3.3 5.1 3.8 6.5-1.1-.7-3.9-3.5-5.5-5.2z" fill="#000000" stroke-width="none" opacity="1"></path></g></g></g><g id="svga-group-facehighlight-single"></g><g id="svga-group-eyebrows-left-move" transform="matrix(1,0,0,1,0,-2)"><g id="svga-group-eyebrows-left-rotate" transform="matrix(1,1.7453292519943295e-9,-1.7453292519943295e-9,1,1.2627384649022133e-7,-1.3469578163949336e-7)"><g id="svga-group-eyebrows-left"><path id="SvgjsPath7374" d="M63.19 79.72s3.09-9.26 3.97-9.85c.88-.59 24.4 1.03 24.4 1.03s-3.38 5.44-4.7 6.17c-1.32.73-17.49-1.18-18.67-.73-1.18.44-5 3.38-5 3.38z" fill="#ffffff" stroke-width="none" opacity="1"></path><path id="SvgjsPath7375" d="m62.42 80.79 1-.77c1.05-.81 3.98-2.98 4.9-3.32.48-.16 4.29.13 7.64.39 6.37.49 10.29.76 11.07.32 1.37-.76 4.49-5.74 4.84-6.31l.34-.54-.64-.04c-.06 0-5.95-.41-11.87-.74-12.11-.67-12.53-.38-12.76-.23-.92.61-3.39 7.84-4.12 10.05l-.4 1.19zm4.66-10.17-.7 6.32c-.4.27-.82.55-1.22.84.41-1.73 1.4-5.91 1.46-6.11.01-.02-.01-.04-.01-.06.17-.41.33-.74.47-.99zm3.39-.47-.35 5.77c-.26-.01-.48-.02-.69-.02l-1.16-5.76c.54-.02 1.29-.01 2.2.01zm2.48 5.94c-.48-.03-.93-.07-1.33-.09l.9-5.79c.64.02 1.31.05 2.03.08l-1.6 5.8zm2.12-5.77.71.03-1.92 5.81-.4-.03 1.61-5.81zm-3.96 5.65-.48-.03.35-5.78 1.02.03-.89 5.78zm6.06-1.72.96-3.78c.28.01.56.03.85.04l-1.81 3.74zm1.03-.96-.96 3.13c-.18-.01-.36-.03-.54-.04l1.5-3.09zm3.97-2.6-2.57 5.89c-.62-.04-1.23-.09-1.83-.13l1.81-5.91c.85.06 1.72.1 2.59.15zm-1.87 5.95 2.85-3.8-1.89 3.86-.96-.06zm1.52.09 2.89-5.89 2.37.15-2.63 5.86c-.77-.02-1.67-.06-2.63-.12zm2.22-5.92-3.24 4.32 1.92-4.4c.44.02.88.05 1.32.08zm2.62 5.93c-.07.04-.21.06-.38.08l3.57-5.65c.35.02.69.05 1.03.07-1.11 1.75-3.31 5-4.22 5.5zm-1.66.12 2.62-5.83c.56.04 1.11.07 1.65.11l-3.62 5.72H85zm-10.6-.66 1.92-5.82 1.29.06-1.5 5.88c-.03 0-.06 0-.08-.01-.59-.03-1.12-.07-1.63-.11zm-6.35-.22c-.27.1-.67.33-1.12.61l.71-6.42c.03 0 .06-.01.1-.01l1.16 5.74c-.42 0-.7.03-.85.08zm-4.1 2.68c.46-1.36.95-2.7 1.4-3.92-.35 1.48-.71 3-.83 3.5-.2.15-.4.29-.57.42z" fill="#000000" stroke-width="none" opacity="1"></path></g></g></g><g id="svga-group-eyebrows-right-move" transform="matrix(1,0,0,1,0,-2)"><g id="svga-group-eyebrows-right-rotate" transform="matrix(1,1.7453292519943295e-9,-1.7453292519943295e-9,1,1.2627384649022133e-7,-2.1438752639824088e-7)"><g id="svga-group-eyebrows-right"><path id="SvgjsPath7376" d="M136.81 79.72s-3.09-9.26-3.97-9.85c-.88-.59-24.4 1.03-24.4 1.03s3.38 5.44 4.7 6.17c1.32.73 17.49-1.18 18.67-.73s5 3.38 5 3.38z" fill="#ffffff" stroke-width="none" opacity="1"></path><path id="SvgjsPath7377" d="M137.18 79.6c-.73-2.2-3.2-9.43-4.12-10.05-.23-.15-.66-.44-12.76.23-5.92.33-11.81.73-11.87.74l-.64.04.34.54c.35.57 3.47 5.54 4.84 6.31.78.43 4.7.17 11.07-.32 3.36-.26 7.16-.55 7.64-.39.92.34 3.85 2.52 4.9 3.32l1 .77-.4-1.19zm-3.78-7.99c0 .02-.01.04-.01.06.05.2 1.05 4.39 1.46 6.11-.4-.29-.82-.58-1.22-.84l-.7-6.32c.13.25.29.58.47.99zm-1.66-1.48-1.16 5.76c-.21 0-.43.01-.69.02l-.35-5.77c.9-.01 1.65-.02 2.2-.01zm-6.29.17c.71-.03 1.39-.06 2.03-.08l.9 5.79c-.4.03-.85.06-1.33.09l-1.6-5.8zm1.08 5.83-.4.03-1.92-5.81.71-.03 1.61 5.81zm1.47-5.94 1.02-.03.35 5.78-.48.03-.89-5.78zm-6.97.33c.28-.02.57-.03.85-.04l.96 3.78-1.81-3.74zm2.27 5.86c-.18.01-.36.03-.54.04l-.96-3.13 1.5 3.09zm-2.88-5.83 1.81 5.91c-.6.05-1.22.09-1.83.13l-2.57-5.89c.87-.06 1.74-.1 2.59-.15zm-1.68 6.15-1.89-3.86 2.85 3.8-.96.06zm-3.18.15-2.63-5.86 2.37-.15 2.89 5.89c-.97.06-1.87.1-2.63.12zm1.73-6.12 1.92 4.4-3.24-4.32c.43-.03.87-.06 1.32-.08zm-8.17.51c.34-.02.68-.05 1.03-.07l3.57 5.65c-.18-.02-.31-.05-.38-.08-.91-.5-3.11-3.75-4.22-5.5zm5.23 5.62-3.62-5.72c.54-.04 1.09-.07 1.65-.11l2.62 5.83h-.65zm9.63-.54c-.03 0-.06 0-.08.01l-1.5-5.88 1.29-.06 1.92 5.82c-.52.03-1.05.07-1.63.11zm7.12-.43 1.16-5.74c.04 0 .07.01.1.01l.71 6.42c-.45-.28-.85-.51-1.12-.61-.15-.04-.43-.07-.85-.08zm4.38 2.36c-.12-.5-.48-2.02-.83-3.5.46 1.21.94 2.56 1.4 3.92-.17-.14-.37-.28-.57-.42z" fill="#000000" stroke-width="none" opacity="1"></path></g></g></g><g id="svga-group-beardwrap"><g id="svga-group-beard-single-move" transform="matrix(1,0,0,1,0,4)"><g id="svga-group-beard-single" transform="matrix(0.8999997000000001,0,0,0.8999997000000001,9.969389878172677,11.991314050006096)"><path id="SvgjsPath6538" d="M146.5 92c-3.3-8.7-4.6-5.6-6.2-2.1-1.5 3.6-8.2 21.8-11.1 22.3-2.9.5-3.1-.2-4.6-2.6-1.5-2.4-11.4-2.3-26-2.1-14.5.2-20.8-1-22.5 1.5-1.7 2.4-.5 5.4-4.1 5.4s-8.3-11.8-11.1-18c-2.7-6.1-.4-8.9-3.5-11.4-2.3-1.7-4.4 5.4-5.1 9.8-.5 4.4-2.3 24.3 1.4 35.5 3.7 11.1 21.7 22.6 34.7 23.9 16.3 1.7 35.1-.3 46.9-8.2 11.9-7.6 14.5-45.3 11.2-54zM117 126.1c-1.9 3.5-7.1 6.5-19 6.3-11.8-.2-15.6-4.1-16.8-7.2-1.2-3.1-2.6-8.2-1-9.5 1.7-1.3 14.3.4 18.9.2 10.9-.4 17.6-2.2 18.7-.3 1.3 1.9 1.1 7.1-.8 10.5z" fill="#ffffff" stroke-width="none" opacity="1"></path><path id="SvgjsPath6539" d="M147 91.9c-1.6-4.2-2.8-5.9-4.1-6-1.4 0-2.1 1.8-3.1 3.9 0 .1-.1.2-.1.3v.1c-.3.8-.8 1.7-1.2 3-.4 1-.9 2.2-1.4 3.6-.1-.1-.2-.1-.3 0s-.1.3 0 .4l.1.1c-2.4 5.9-6 14.1-7.6 14.4-2.4.4-2.5.1-3.8-1.8l-.3-.5c-1.7-2.6-10.7-2.5-25.4-2.3H88c-7.4-.1-10.8-.2-12.2 1.7-.7 1-1 1.9-1.2 2.8-.4 1.5-.7 2.4-2.5 2.4-2.8 0-7.3-10.3-9.8-15.8l-.8-1.8c-1.2-2.8-1.4-4.8-1.5-6.6-.2-2.1-.3-3.7-2.2-5.1-.5-.4-1.1-.5-1.6-.2-2.3 1-3.9 7.4-4.3 10.4-.8 5.8-2.2 25 1.4 35.8 3.8 11.5 22.5 23.1 35.1 24.3 3.7.4 7.3.5 10.9.5 14.5 0 27.7-3.1 36.4-8.8.5-.3 1.1-.8 1.6-1.3 10.7-10.1 13.1-44.8 9.7-53.5zm-4.2-5c.2 0 .8.2 1.5 1.6-.3-.2-.6-.3-1-.4-.1 0-.3-.1-.4-.1-.3-.1-.8-.1-1-.3.4-.5.7-.8.9-.8zm-1 1.2c.3.2.8.3 1.1.4.1 0 .3.1.4.1 1 .2 1.7 1.1 1.7 2.1 0 .1.1.2.2.2 0 0 .1 0 .1-.1.2.4.3.9.5 1.4.5 1.5 1 4 1.2 7-.1-.3-.3-.5-.4-.9-.3-.5-.6-1.1-.9-1.7-.2-.5-.2-1.1-.3-1.7 0-.4-.1-.9-.2-1.3-.2-1.1-.6-1.9-1.3-2.5-.8-.8-1.7-1.1-2.7-.9-.1 0-.2 0-.2.1-.1 0-.2 0-.3.1 0-.1.1-.2.1-.2.3-.7.6-1.4 1-2.1zm-17.7 21.8.3.5c.2.4.4.8.7 1-.1-.1-.3-.2-.4-.3-.9-.7-1.3-1.3-1.5-1.9.5.2.8.5.9.7zm-5 6.5c0 .1-.1.2-.1.3-.1-.5-.3-1.1-.5-1.4.4-1.2 0-2.7-1.2-3.3-.4-.3-1-.4-1.4-.5l-.2-.1c-.5-.1-1-.3-1.4-.7-.3-.3-.5-.9-.2-1.2l.2-.3-.3-.1c-.3-.1-.5-.2-.8-.5-.1-.2-.1-.3-.2-.5 1 0 1.8 0 2.6.1.2.8.8 1.3 1.3 1.8l.7.7c.8 1 1.2 2.2 1.6 3.2.2.5.4 1.3.3 1.9-.3.2-.3.4-.4.6zM98 131.9c-11.4-.2-15.2-3.9-16.4-6.9-1.4-3.8-2.3-8-1.2-8.8.3-.2 1.5-.3 3-.3 2.3 0 5.4.2 7.9.3 3 .2 5.9.4 7.8.3 3.9-.2 7.2-.5 9.9-.8 4.3-.4 7.8-.8 8.3.2 1.1 1.6.9 6.6-1 9.9-1.4 3-5.8 6.4-18.3 6.1zM87 108h3.1c-.4.1-.8.2-1.1.4-.5.3-1 .8-1.4 1.2-1.6 1.6-3.2 3.3-4.8 4.9v.1h-.7c.3-.3.4-.9.5-1.5v-.1c0-.7 0-1.3.4-1.7.2-.2.5-.3.9-.5.2-.1.4-.2.7-.3.4-.3.8-.8 1.1-1.2.1-.2.3-.4.4-.5.4-.4.6-.7.9-.8zm-3.4 6.8c1.5-1.6 3-3.1 4.5-4.7.4-.4.8-.8 1.3-1.1 1-.5 2.2-.5 3.1-.7.1 0 .2-.1.2-.2h1.2l-5.2 3.3c-1.3.9-2.8 1.8-3.8 3.3-.4.1-.9.1-1.3.1zm14.4-6.7c-.3.4-.7 1.1-.9 1.6-.4 1-.9 1.8-1.7 2.3-.4.2-1.1.3-1.6.4-.4.1-.8.1-1.2.2-.8.2-1.4.7-2.1 1.1-.2.1-.4.3-.7.4-1.1.7-1.9.9-2.7.5-.1 0-.3 0-.3.2h-.1c1.4-1.2 3-2.2 4.7-2.8.2-.1.5-.2.8-.3.9-.3 1.7-.7 2.5-1.2 1-.7 1.7-1.6 2.5-2.5.4.1.6.1.8.1zm1.1 0s-.1 0 0 0c.5 2.1-.5 4.4-2.4 5.4-.5.2-1.1.4-1.6.7-.8.2-1.5.4-2.2 1-.1 0-.1.1-.1.2-.4 0-.9-.1-1.3-.1-.8 0-1.5-.1-2.2-.1.3-.1.7-.2.9-.4.2-.1.4-.3.8-.4.7-.4 1.2-.8 1.8-1 .3-.1.8-.1 1.1-.2.7-.1 1.3-.2 1.8-.5 1-.5 1.4-1.5 1.9-2.5.3-.7.7-1.3 1.1-1.8l.4-.3zm3.6 6.2c-.1-.4-.1-.9-.1-1.3v-.2c0-1.6-.3-3.1-.8-4.7h.1c1.1.7 1.9 1.8 2.2 3.1.1.3.1.7.1 1.1s0 .9.1 1.3c.1.5.4 1.2.9 1.6-.5 0-1.2.1-1.8.1-.4-.3-.6-.6-.7-1zm.7-6.3c.5.2.9.8 1 1.1l.3 1.2.1.3c.3 1.4.9 2.4 1.6 2.8.3.2.8.3 1.1.4.2.1.4.1.7.2.1.1.5.2.8.5-.9.1-1.8.2-2.9.2l-.1-.1c-.7-.2-1-1-1.2-1.5-.1-.4-.1-.8-.1-1.2 0-.3 0-.8-.1-1.1-.2-1.2-.9-2.3-1.7-3 .1.2.3.2.5.2zm4.1.2c.5-.1 1.2.3 1.5.8.2.2.3.5.5.8.2.3.4.7.7 1 .4.5 1.1 1 1.6 1.3l3.4 2.3c-.8 0-1.7 0-2.8.1.1-.4-.1-1-.4-1.3-.4-.4-1-.7-1.4-.9-.5-.2-1-.4-1.2-.8-.1-.2-.3-.4-.4-.7s-.2-.5-.4-.8c-.4-.4-.9-.7-1.4-.9-.1-.1-.2-.1-.4-.2-.3-.1-.9-.4-1-1h1.7c-.3.2-.1.3 0 .3zm-1.2 1.2c.1.1.2.1.4.2.4.2 1 .4 1.2.8.1.2.3.4.4.7s.2.5.4.8c.3.4.9.7 1.4.9.4.2 1 .4 1.3.8.2.3.3.8.2 1.1-.7.1-1.4.1-2.2.2-.2-.4-.7-.8-1.2-1-.2-.1-.4-.1-.7-.2-.3-.1-.7-.2-1-.4-.7-.4-1.2-1.3-1.4-2.5l-.1-.3c-.1-.4-.2-.9-.3-1.3-.1-.3-.3-.7-.5-.9h.7c.1.3.7.8 1.4 1.1zm5.9-1.4c0 .3.1.5.2.9.2.3.5.5.9.8-.1.5.1 1.2.4 1.5.4.4 1.1.7 1.6.9l.2.1c.4.1.9.2 1.3.4.8.5 1.2 1.5 1 2.5-.4-.3-1-.4-1.7-.5l-4.2-2.8c-.5-.3-1.1-.8-1.5-1.2-.2-.2-.4-.5-.5-.9-.2-.3-.3-.5-.5-.9s-.4-.4-.7-.7c1.3-.1 2.5-.1 3.5-.1zm-12.6.1h1.6c.4 1.5.7 3.1.8 4.7v.2c0 .4 0 1 .1 1.4.1.3.2.7.4.9-1 .1-1.9.1-3 .2-.2-1.1.3-2.2.8-3.2.5-1.3 1-2.6.5-3.9-.1-.1-.2-.2-.3-.1-.1.1-.2.2-.1.3.4 1.1 0 2.4-.5 3.4-.4 1-1 2.3-.8 3.4-1.3 0-3.2-.1-5.4-.2.5-.3 1.1-.5 1.7-.7.5-.2 1.2-.3 1.7-.7 1.9-.9 3.1-3.5 2.5-5.7zm-3 0c-.7.8-1.3 1.5-2.1 2.1-.8.4-1.6.8-2.4 1.1-.3.1-.5.2-.9.3-1.8.8-3.6 1.7-5.1 3-.1.1-.1.1-.1.2h-.7c.9-1.2 2.3-2.1 3.4-2.9l5.7-3.8v-.1c1 .1 1.7.1 2.2.1zm-10.5-.1-.3.3c-.2.2-.3.4-.4.7-.3.4-.5.8-1 1.1-.2.1-.4.2-.7.3-.3.1-.8.3-1 .7-.5.5-.5 1.3-.5 2.1v.2c0 .3-.1 1.4-.9 1.6l-.1.1c-.4.1-.8.1-1.1.2v-.9c-.1-.2-.1-.4-.2-.7s-.1-.3-.2-.5c-.1-.5 0-1.2.4-1.9.8-1.4 2.2-2.5 3.7-3 .1 0 .1-.1.1-.1.8-.2 1.5-.2 2.2-.2zM60 95.5c-.5.2-1 .7-1.2 1.2-.1.3-.2.7-.3 1-.1.3-.1.7-.3 1-.3.7-.9 1.2-1.5 1.7-.2.1-.3.3-.5.4-2.4 2.3-3.5 5.4-4.2 8.4 0-1.6.1-3.1.1-4.5.1 0 .2-.1.2-.3-.1-1.2-.2-2.3.5-3 .3-.3.8-.4 1.2-.7.4-.1.8-.3 1.1-.5.8-.5 1.1-1.4 1.4-2.1.1-.1.1-.3.2-.4.2-.5.4-1.1.8-1.6s1-1 1.7-1c.1 0 .3-.1.3-.2s-.1-.3-.2-.3c-1-.1-1.7.5-2.2 1.2-.3.5-.5 1.2-.8 1.7-.1.1-.1.3-.2.4-.2.7-.5 1.4-1.2 1.8-.3.2-.7.3-1 .4-.4.2-1 .3-1.4.8-.1.1-.1.2-.2.2.1-1.1.1-2.1.2-3 .9-.1 1.6-.9 2.2-1.5l3.8-4.5c.1-.1.1-.3 0-.4s-.3-.1-.4 0l-3.8 4.5c-.4.5-1.1 1.2-1.7 1.3.1-1.2.2-2.2.3-2.9v-.1c1.2 0 2.3-.5 3-1.4.3-.3.5-.8.8-1.2.2-.3.4-.7.7-1 .3-.4.9-.9 1.5-1 .1 1.9.4 3.5 1.1 5.6zm-1.6-8.4c-1.3 1-2 2.7-2.7 4.3 0 .1 0 .3.1.3h.1c.1 0 .2-.1.2-.2.5-1.5 1.2-3 2.4-3.9.1.5.2 1.2.2 2.1-.8.1-1.5.7-1.9 1.2-.2.3-.4.7-.7 1-.2.4-.4.8-.8 1.1-.7.8-1.6 1.2-2.6 1.2.1-.7.2-1.3.4-1.9h.1c1.2-.7 1.6-2.1 2-3.3l.3-.1c.5-1.6 1.2-2.5 2-2.7.6.2.8.5.9.9zm-1.8-1.8h.2c.1 0 .2 0 .3.1.1 0 .1.1.1.1-1 .4-1.6 1.4-2.2 3v.2c-.3 1.1-.8 2.2-1.5 2.8.9-3 2-5.8 3.1-6.2zm-3.8 38c0-1.2.5-2.3 1.3-3.2.1-.1.2-.2.3-.4.3-.4.8-.8 1-1.3.2-.7.2-1.3.1-1.9 0-.2 0-.4-.1-.7-.1-1.4.4-2.7 1.3-3.8.1-.1.1-.3 0-.4s-.3-.1-.4 0c-1 1.1-1.5 2.6-1.5 4.1 0 .2 0 .4.1.7.1.7.1 1.2-.1 1.7-.2.4-.5.8-.9 1.1l-.4.4c-.4.5-.9 1.2-1.1 1.8-.2-1.9-.3-3.9-.4-5.8.2-.9.7-1.7 1.1-2.4.1-.2.3-.4.4-.8.7-1.2 1.4-2.4 1.7-3.7.1-.5.2-1 .2-1.5 0-.4.1-1 .2-1.4.1-.7.5-1.7 1.4-2.2.1-.1.2-.2.1-.3-.1-.1-.2-.2-.3-.1-.9.4-1.4 1.3-1.7 2.6-.1.4-.2 1-.2 1.4-.1.4-.1 1-.2 1.4-.3 1.3-1 2.4-1.6 3.6-.1.2-.3.4-.4.8-.2.4-.4.9-.7 1.3v-2.6c.8-3.4 1.7-7.7 4.6-10.3.2-.1.3-.3.5-.4.7-.5 1.3-1.1 1.6-1.9.1-.3.2-.8.3-1.1.1-.3.1-.7.2-.9.2-.4.5-.8.9-.9.1.2.1.4.2.5l.8 1.8v.1c-1.1.2-1.8 1.3-2.2 2.4-.1.4-.1 1-.2 1.4-.1.8-.1 1.4-.4 2.1-.2.4-.4.8-.8 1.2-.4.5-.8 1.1-1 1.8-.2 1 .1 1.9.4 2.8.1.3.2.7.3 1.1.4 1.7 0 3.8-1.2 5.2-.1.1-.1.3 0 .4 0 0 .1.1.2.1s.1 0 .2-.1c1.3-1.5 1.7-3.7 1.3-5.6-.1-.3-.2-.8-.3-1.1-.3-.9-.5-1.7-.3-2.5.1-.5.4-1.1.9-1.6.3-.4.5-.8.8-1.2.3-.8.4-1.5.4-2.3 0-.4.1-.9.2-1.3.2-1 1-1.9 1.8-2.1.5 1.2 1.1 2.4 1.6 3.6-1.5-.1-2.8 1.2-3.2 2.5-.4 1.4-.2 2.9.1 4.3l.1.3c.2 1.3.5 2.6.3 3.8-.2 1.4-1.1 2.6-1.8 3.8L56 121c-1.3 2.1-2.6 4-2.9 6 .1-1.4-.1-2.5-.3-3.7zm82.5 22.3c-.1-.4-.4-1-.9-1.4l-.3-.3c-.4-.4-1-.9-1.1-1.4-.1-.3 0-.6 0-1s.1-.6 0-1c-.1-1-.8-1.7-1.4-2.4l-.3-.3c-.3-.3-1.3-1.5-.8-2.5.1-.1 0-.3-.1-.3-.1-.1-.3 0-.3.1-.6 1.2.4 2.6.9 3.1l.3.3c.5.6 1.2 1.3 1.3 2.1v.9c0 .4-.1.8 0 1.2.1.8.6 1.2 1.2 1.7l.3.3c.2.2.8.8.8 1.4-1.1.8-2.3 1.3-3.4 1.9.2-.8-.1-1.7-.5-2.4-.1-.2-.3-.4-.5-.6-.4-.5-.9-1-1-1.6-.1-.5 0-1.2 0-1.8 0-.2.1-.3.1-.5.1-.8.1-1.9-.6-2.5-.1-.1-.3-.1-.4 0-.1.1-.1.3 0 .4.5.4.5 1.4.5 2.1 0 .2 0 .3-.1.5-.1.6-.2 1.3 0 2.1s.6 1.3 1.1 1.8c.2.2.3.4.4.6.5.6.8 1.6.3 2.3v.1c-.6.3-1.2.5-1.8.9-.2-.1-.4-.3-.5-.6-.1-.3.1-.5.2-.9.1-.1.1-.2.1-.3.2-.4.1-.9 0-1.2-.1-.2-.3-.3-.5-.4-.1 0-.3.1-.3.2s.1.3.2.3c0 0 .1 0 .2.1.1.2.1.5 0 .8 0 .1-.1.2-.1.3-.2.3-.4.8-.3 1.3.1.3.2.5.5.8l-2.4.9-.8-4.9c0-.1-.1-.2-.3-.2-.1 0-.2.1-.2.3l.8 5.1c-1.1.3-2.3.8-3.3 1.1-.1-.6.1-1.3.7-1.6.1-.1.2-.2.1-.3s-.2-.2-.3-.1c-.8.4-1.1 1.4-.9 2.1-1.5.4-3.1.8-4.7 1.1.4-.5.8-1.2 1-1.8.2-1 .1-1.9 0-2.9l-.7-5.2c0-.1-.1-.2-.3-.2-.1 0-.2.1-.2.3l.7 5.2c.1.9.2 1.8 0 2.7-.2.8-.7 1.5-1.2 2.1-.9.1-1.7.3-2.6.4-.3-.8-.3-1.6 0-2.4.1-.2.2-.4.4-.5.3-.4.7-.9.7-1.5 0-.5-.2-1.1-.4-1.5-.1-.1-.2-.3-.2-.4-.5-1.2-.3-2.7.7-3.7.1-.1.1-.3 0-.4-.1-.1-.3-.1-.4 0-1.1 1.1-1.3 2.8-.8 4.2.1.2.2.3.2.5.2.4.4.9.4 1.2 0 .4-.3.8-.5 1.2-.1.2-.3.4-.4.6-.4.9-.5 1.8-.1 2.7-.7.1-1.2.1-1.8.2-.1-1 .1-2.1.4-2.9.1-.1 0-.3-.1-.3s-.3 0-.3.1c-.4 1-.5 2.1-.4 3.2-.5.1-1 .1-1.5.2.1-.3.2-.8.2-1.3 0-.3 0-.6-.1-1 0-.3-.1-.6-.1-1s.1-.8.1-1.1c.1-.6.2-1.2 0-1.8l-.3-.9c-.1-.2-.2-.3-.2-.5-.1-.2-.2-.8.1-1.2.1-.1.1-.3 0-.4s-.3-.1-.4 0c-.3.4-.4 1.1-.1 1.7.1.2.1.4.2.6s.2.5.3.8c.1.5 0 1.1 0 1.6-.1.3-.1.8-.1 1.2 0 .3 0 .8.1 1.1 0 .3.1.5.1.9s0 .9-.3 1.3c-.8.1-1.5.1-2.2.2-.2-.5-.1-1.2.2-2.1l.1-.3c.3-.8.8-1.5.5-2.4-.1-.6-.4-1.1-.8-1.5-.1-.2-.2-.3-.3-.5-.3-.5-.5-1.3-.1-1.8.1-.1.1-.3 0-.4-.1-.1-.3-.1-.4 0-.5.6-.3 1.7.1 2.4.1.2.2.3.3.5.3.4.7.9.7 1.3.1.6-.2 1.4-.5 2.1l-.1.3c-.4.9-.5 1.6-.3 2.3-.5 0-1.1.1-1.6.1-1-1.7-1.4-3.8-1.1-5.7 0-.2.1-.5.1-.8.2-.8.3-1.5.2-2.4 0-.3-.1-.6-.2-1-.2-.5-.3-1-.2-1.5.1-.4.4-.8.7-1.2.1-.1.1-.2.2-.3.5-.8.8-1.4.5-2.1-.1-.1-.2-.2-.3-.1-.1.1-.2.2-.1.3.2.5-.1 1.1-.4 1.5-.1.1-.1.2-.2.3-.3.4-.7.9-.8 1.4-.1.6.1 1.2.2 1.7.1.3.2.5.2.9.1.6 0 1.4-.2 2.1-.1.2-.1.5-.2.8-.3 1.9 0 4.1 1 5.8-.7 0-1.4 0-2.1.1-.7-.8-.5-2.1-.4-2.7 0-.2.1-.4.1-.8.2-1 .3-1.9.1-2.9-.1-.4-.3-.8-.5-1.1-.1-.2-.3-.5-.4-.8-.2-.5-.2-1.3.2-1.6.1-.1.1-.3 0-.4-.1-.1-.3-.1-.4 0-.7.5-.5 1.5-.3 2.3.1.3.3.5.4.9.2.3.3.6.4 1 .2.9.1 1.7-.1 2.7 0 .2-.1.5-.1.8-.1.8-.2 1.9.3 2.8h-1.7c-.4-.8-.4-1.7.1-2.6.1-.1 0-.3-.1-.3-.1-.1-.3 0-.3.1-.5.9-.5 1.9-.2 2.8H97c-.5-.3-.8-1.1-.8-1.7 0-.4.1-.9.2-1.2.1-.4.2-.9.2-1.3.1-1-.2-1.8-.4-2.7-.3-1.2-.5-2.3-.2-3.2 0-.1 0-.3-.1-.3-.1-.1-.3 0-.3.1-.4 1.2-.1 2.4.2 3.6.2.9.4 1.7.4 2.6 0 .4-.1.8-.2 1.2s-.2.9-.2 1.3c0 .5.1 1.2.4 1.7-.8 0-1.4-.1-2.2-.1-.4-.3-.8-.9-.9-1.4-.1-.6 0-1.4.3-1.9.1-.1.1-.3-.1-.3-.1-.1-.3-.1-.3.1-.4.6-.7 1.5-.4 2.4.1.4.3.9.7 1.3-1.1-.1-2.1-.1-3-.2.4-.8.4-1.8-.1-3l-.3-.6c-.3-.8-.7-1.4-.7-2.1 0-.4.1-.9.2-1.4.1-.2.1-.5.1-.9.1-1-.1-1.8-.7-2.3-.1-.1-.3-.1-.4 0s-.1.3 0 .4c.5.5.5 1.4.4 1.8 0 .2-.1.5-.1.8-.1.4-.2 1-.2 1.5 0 .9.3 1.6.7 2.4l.3.6c.3.9.5 1.9 0 2.8h-.1c-.3 0-.7-.1-1-.1-.7-.8-1-1.8-1-2.9 0-.1-.1-.3-.2-.3s-.3.1-.3.2c-.1 1 .2 1.9.8 2.8-.3-.1-.8-.1-1.1-.2 0-.1-.1-.1-.2-.1-1.3-.2-2.4-1.3-2.6-2.6 0-.2-.1-.4-.1-.6-.1-.8-.2-1.6-.9-2.1-.1-.1-.3 0-.3.1s0 .3.1.3c.4.3.5 1 .7 1.6 0 .2 0 .4.1.6.1.9.7 1.6 1.3 2.1-1.2-.3-2.4-.6-3.4-1.1-.7-1-1-2.1-.7-3.3.1-.2.1-.4.2-.8.2-.6.4-1.2.3-1.9-.1-.5-.3-1-.7-1.4-.2-.3-.4-.6-.5-.9-.2-.8-.1-1.5 0-2.4.2-1 .3-1.9-.1-2.8-.1-.1-.2-.2-.3-.1-.1.1-.2.2-.1.3.3.8.2 1.6 0 2.5-.1.9-.3 1.8 0 2.7.1.3.3.8.5 1 .2.4.5.8.5 1.2.1.5-.1 1.1-.3 1.6-.1.2-.2.5-.2.8-.3 1.1-.1 2.1.3 3.1-.5-.2-1.1-.4-1.6-.6-.9-.5-1.3-1.6-1.2-2.6 0-.2.1-.4.2-.8s.2-.8.2-1.1c.1-1-.4-1.7-.9-2.6l-.2-.3c-.7-1.1-.8-1.9-.4-2.6.1-.1 0-.3-.1-.3-.1-.1-.3 0-.3.1-.4.8-.2 1.8.4 3l.2.3c.4.8.9 1.5.9 2.3 0 .3-.1.6-.2 1-.1.2-.2.5-.2.8-.1.8.1 1.5.4 2.1-.9-.4-1.7-.9-2.6-1.3-.3-.6-.2-1.4-.2-1.8 0-.3.1-.6.1-.9.1-.6.2-1.4.2-2.1 0-.3-.1-.8-.2-1.1-.1-.4-.2-.8-.2-1.2 0-.3 0-.6.1-1 0-.2.1-.4.1-.6 0-.8-.1-1.4-.5-1.8-.1-.1-.3-.1-.4 0s-.1.3 0 .4c.3.3.4 1 .3 1.4 0 .2 0 .4-.1.6 0 .3-.1.8-.1 1.1 0 .4.1.9.2 1.3.1.3.2.6.2 1 .1.6 0 1.3-.2 1.9-.1.3-.1.6-.1 1s-.1 1 0 1.6c-.9-.4-1.7-1-2.6-1.5-.3-.4-.5-1-.7-1.6-.1-.9.1-1.7.5-2.6.1-.1 0-.3-.1-.3-.1-.1-.3 0-.3.1-.4 1-.7 1.9-.5 2.9 0 .3.1.6.2 1-.5-.3-1.1-.8-1.7-1.1 0 0 0-.1-.1-.1-.8-.3-.9-1.4-.7-2.3.1-.3.2-.8.4-1.1.2-.5.4-1.1.5-1.7v-1c0-.5 0-1 .1-1.4.2-.4.5-.8.9-1.2l.2-.2c.7-.6.9-1.3.9-1.9 0-.1-.1-.2-.3-.2-.1 0-.2.1-.2.3 0 .4-.2 1-.8 1.5l-.2.2c-.3.4-.8.9-1 1.4s-.2 1.1-.2 1.6v.9c-.1.5-.2 1.1-.4 1.6-.1.4-.3.8-.4 1.2-.1.5-.1 1.1 0 1.6-.5-.3-1.1-.8-1.6-1.2-.3-.5-.7-1-.8-1.5-.2-.9-.2-1.6.1-2.1.2-.3.4-.5.7-.9l.5-.5c.4-.5.8-1.4.3-2.1-.1-.1-.2-.2-.3-.1-.1.1-.1.2-.1.3.2.4 0 1.1-.3 1.4-.1.2-.3.3-.5.5-.3.3-.5.5-.8 1-.4.8-.4 1.7-.1 2.6.1.2.1.3.2.5-.4-.3-.8-.6-1.2-1-.8-1.4-.9-3.1-.2-4.6.4-1.1 1.2-1.9 2.1-2.7 1-1 1.9-1.9 3-2.8l2.5-2.3c.1-.1.1-.3 0-.4-.1-.1-.3-.1-.4 0l-2.5 2.3c-1 .9-2.1 1.8-3 2.8-.9.9-1.6 1.7-2.2 2.9-.5 1.3-.7 2.7-.2 4-1-1-1.9-1.8-2.8-2.8.1-.9.7-1.6 1.1-2.1.2-.2.4-.5.7-.8.5-.5 1.1-1.1 1.4-1.8.2-.4.4-.9.7-1.4.3-1 .7-1.8 1.4-2.3.4-.2 1-.3 1.4-.4.2 0 .3-.1.5-.1.7-.1 1.6-.5 1.9-1.3.1-.1 0-.3-.1-.3-.1-.1-.3 0-.3.1-.2.5-1 .9-1.5 1-.2 0-.3.1-.5.1-.5.1-1.1.2-1.6.5-.9.5-1.3 1.5-1.6 2.5-.2.4-.3.9-.5 1.3-.3.6-.9 1.2-1.3 1.7-.2.2-.4.5-.8.8-.5.6-1 1.4-1.1 2.1-.8-.9-1.4-1.7-1.9-2.5-.5-1.4-.5-3-.1-4.4.5-1.7 1.9-3.2 3.7-4 .1-.1.3-.1.5-.2.9-.3 1.8-.8 2.2-1.6.1-.1 0-.3-.1-.3-.1-.1-.3 0-.3.1-.3.7-1.1 1.1-1.8 1.3-.2.1-.3.1-.5.2-1.8.8-3.3 2.4-4 4.3-.3 1-.4 2.1-.3 3.1-.2-.3-.4-.6-.5-1.1 0-1.5.1-3.1.5-4.6.4-1.6 1.4-3 2.5-3.8.4-.2.9-.4 1.3-.7.3-.2.8-.3 1.2-.5.7-.3 1.6-1.2 1.7-2.4 0-.1-.1-.3-.2-.3s-.3.1-.3.2c-.1 1-1.1 1.6-1.4 1.9-.3.2-.8.4-1.1.5-.4.2-1 .4-1.4.8-1.3.9-2.3 2.3-2.7 4.1-.3 1.2-.4 2.5-.5 3.8-.2-.4-.4-.9-.5-1.4s-.3-1-.4-1.5v-.1c-.3-2.7 1.1-5.1 2.8-7.7l2.3-3.4c.8-1.2 1.6-2.5 1.9-3.9.2-1.3 0-2.7-.3-4l-.1-.3c-.3-1.3-.5-2.7-.1-4 .4-1.2 1.5-2.3 2.8-2.2h.1c.1.3.3.7.4 1-.1 0-.2.1-.2.1-.4.3-.8.9-.9 1.5-.1.4 0 .9 0 1.4v1.1c-.1.4-.2 1-.4 1.4-.2.5-.3 1-.4 1.5-.1.7 0 1.3.1 1.8 0 .2.1.4.1.5.1 1 0 1.6-.3 2.2-.1.1 0 .3.1.3h.1c.1 0 .2 0 .2-.1.4-.7.5-1.4.4-2.5 0-.2-.1-.4-.1-.7-.1-.7-.2-1.2-.1-1.7 0-.4.2-1 .4-1.4.2-.5.3-1 .4-1.5V106c.1-.4.3-.9.7-1.1.1 0 .1-.1.2-.1.5 1.1 1.1 2.2 1.5 3.1-.4.1-.9.4-1.2.9-.3.5-.4 1.2-.3 1.7 0 .1.1.2.2.2h.1c.1 0 .2-.2.2-.3-.1-.4 0-.9.2-1.3.2-.3.7-.7 1-.7.3.7.8 1.3 1.1 1.9l-1.3 5.7c-.4 2.4-1.1 4.9-2.6 7-.1.1-.1.3 0 .3 0 0 .1.1.2.1s.2 0 .2-.1c1.6-2.2 2.2-4.8 2.7-7.2l1.1-5.2c.5.9 1.2 1.7 1.7 2.4-.5.7-.8 1.6-.9 2.3v2.8c-.1 1.8-.8 3.6-1.9 4.9-.1.1-.1.3 0 .4 0 0 .1.1.2.1s.1 0 .2-.1c1.2-1.5 1.9-3.3 2.1-5.3v-2.7c0-.5.2-1.3.7-1.9.9 1 1.8 1.5 2.6 1.5 1 0 1.6-.2 2.1-.5 0 .1 0 .2.1.4 0 .2.1.3.1.5.1.3.2.5.2.9.1.5-.2 1.2-.4 1.7-.1.3-.2.5-.3.9-.3 1.1-.2 2.2-.1 3.2 0 .4.1.9.1 1.4 0 .7-.1 2.9-1.7 3.7-.1.1-.2.2-.1.3 0 .1.1.1.2.1h.1c1.3-.5 2.1-2.2 2.1-4.1 0-.4 0-1-.1-1.4-.1-1.1-.1-2.1.1-3 .1-.3.2-.5.3-.9.2-.7.5-1.3.4-1.9 0-.3-.1-.7-.2-1 0-.1-.1-.3-.1-.4 0-.2-.1-.4 0-.8.4-.5.7-1.3.9-2.1 0-.1.1-.3.1-.4 0 .3.1.8.2 1.1v.1c.2.9.3 1.7.1 2.5-.1.2-.1.4-.2.7-.2.4-.4 1-.3 1.5 0 .3.1.5.2.9.1.1.1.3.1.4.1.3.1.8-.1.9-.1.1-.1.2-.1.3s.1.1.2.1h.1c.5-.3.5-1 .3-1.5 0-.1-.1-.3-.2-.4-.1-.2-.2-.4-.2-.7 0-.4.1-.8.3-1.2.1-.2.2-.4.3-.8.2-.9.1-1.7-.1-2.7v-.1c-.2-.8-.3-1.6-.2-2.4v-.2c.1-.2.2-.3.3-.5.5-.8 1.6-1.1 3.3-1.2-.4.3-.9.8-1.1 1.3-.5 1-.8 2.2-1 3.1-.3 1.7-.7 3.6-.5 5.4 0 .7.2 1.4.3 2.1.1.7.2 1.2.2 1.8.1 1.1 0 2.2-.2 3.2 0 .1.1.3.2.3h.1c.1 0 .2-.1.2-.2.2-1.1.3-2.3.2-3.4-.1-.7-.2-1.3-.3-1.9-.1-.7-.2-1.3-.3-1.9-.1-1.7.2-3.6.5-5.2.2-1 .4-2.1.9-2.9.4-.8 1.3-1.5 2.3-1.5.1 0 .1 0 .1-.1h1.1c-1.3.7-2.4 1.6-3 2.9-.4.9-.7 1.6-.4 2.3.1.2.1.4.2.7s.2.3.2.5c.1.4 0 .8-.1 1.2-1.4 1.5-.5 5.3.3 7.9-.3.5-.3 1.3 0 2.1.1.2.1.4.2.5.2.5.4 1 .4 1.4 0 .8-.3 1.5-.8 2.3-.2.3-.3.8-.5 1.1-.8 1.8-.3 3.9 0 5.6 0 .1.1.2.2.2s.2-.2.2-.3c-.3-1.6-.7-3.7 0-5.3.1-.3.3-.8.5-1.1.4-.8.9-1.6.8-2.5 0-.5-.2-1.1-.4-1.6-.1-.2-.1-.3-.2-.5s-.2-.5-.2-1c.1.4.3.8.4 1.1.4 1.1 1.1 2.1 2.2 3.1-.1.4-.3.8-.5 1.1-.1.2-.3.4-.4.8-.4.9-.4 1.9-.1 2.9.1.2.2.4.2.6.2.4.4 1 .3 1.4 0 .4-.2.8-.4 1.1-.1.2-.2.3-.3.5-.3.6-.4 1.6.2 2.1 0 0 .1.1.2.1s.1 0 .2-.1.1-.3 0-.4c-.3-.3-.3-1 0-1.4.1-.1.2-.3.2-.4.2-.4.5-.9.5-1.4.1-.6-.2-1.2-.4-1.6-.1-.2-.2-.4-.2-.6-.3-.9-.2-1.7.1-2.6l.3-.6c.2-.3.3-.6.4-1 .7.5 1.3 1 2.3 1.5-.7.6-1.1 1.6-1 2.5 0 .1.1.2.2.2s.2-.1.2-.3c-.1-.9.3-1.7 1-2.3.7.3 1.4.6 2.2.9-.7.5-.8 1.5-.7 2.3 0 .3.1.6.2 1 .1.5.2 1 .2 1.4 0 .5-.2 1.1-.4 1.6-.1.2-.1.4-.2.6-.3 1.1-.3 1.8.1 2.5 0 .1.1.1.2.1h.1c.1-.1.2-.2.1-.3-.3-.4-.3-1.2-.1-2.1.1-.2.1-.4.2-.5.2-.5.4-1.1.4-1.7 0-.5-.1-1.1-.2-1.6-.1-.3-.1-.5-.2-.9-.1-.6 0-1.5.7-1.9l.1-.1c.7.2 1.4.4 2.3.5-.4.5-.4 1.3-.2 2.1.1.2.1.3.2.5.2.5.4 1.1.3 1.6 0 .1 0 .3.2.3h.1c.1 0 .2-.1.2-.2.2-.6-.1-1.3-.3-1.9-.1-.2-.1-.3-.2-.4-.2-.5-.2-1.5.4-1.7 1 .2 2.1.3 3.2.4-.8 1-1 2.3-1.1 3.4-.1 1.5-.3 3.1.3 4.6 0 .1.1.2.2.2h.1c.1 0 .2-.2.1-.3-.5-1.4-.4-3-.2-4.4.1-1.3.3-2.6 1.2-3.4.4 0 1 0 1.4.1-.2.3-.3.8-.2 1.2.1.3.2.6.3 1l.3.6c.1.4.1 1-.3 1.2-.1.1-.2.2-.1.3 0 .1.1.1.2.1H97c.7-.3.8-1.2.5-1.8-.1-.2-.2-.5-.3-.8-.1-.3-.2-.5-.3-.9-.1-.3 0-.6.1-.9.1-.1.2-.2.3-.2h2.4c-.1.3-.1.8 0 1.1.1.3.2.5.3.8.1.2.2.5.3.8.2.6 0 1.4-.2 2.1 0 .1-.1.3-.1.4-.3 1.3-.2 2.3.3 2.9 0 .1.1.1.2.1s.1 0 .2-.1.1-.2 0-.4c-.4-.5-.5-1.3-.2-2.4 0-.1.1-.3.1-.4.2-.8.4-1.6.2-2.4-.1-.3-.2-.5-.3-.9-.1-.2-.2-.4-.3-.8-.1-.3-.1-.8.1-1 .5 0 1.1 0 1.6-.1-.4.6-.3 1.5.2 2.7.4.9.8 1.7.3 2.4-.1.1-.1.3.1.3h.1c.1 0 .2 0 .2-.1.7-.9.2-1.9-.2-2.9-.5-1.1-.7-1.9-.2-2.4 0 0 .1-.1.1-.2.3 0 .7 0 1-.1 1.1 1.8 1.6 3.9 1.7 6v1c0 1.1 0 2.1.4 3.2 0 .1.1.2.2.2.1-.1.2-.2.1-.3-.4-1-.4-1.9-.4-3v-1c-.1-2.1-.8-4.2-1.7-6 .3 0 .7-.1 1-.1 0 .1 0 .2.1.3 1.1.4 1.8 1.6 1.8 2.8 0 .3-.1.8-.1 1.2-.1.8-.2 1.4 0 2.1.1.3.3.5.5.9.1.2.2.3.3.5.2.3.3.9 0 1.1-.1.1-.1.3 0 .4 0 0 .1.1.2.1s.1 0 .2-.1c.4-.4.4-1.2.1-1.7-.1-.2-.2-.4-.3-.5-.2-.2-.3-.4-.4-.8-.2-.5-.1-1.2 0-1.8.1-.4.1-.9.1-1.2 0-1.3-.8-2.6-1.9-3.2 1.3-.2 2.5-.4 3.4-.8.5.3 1 .9 1 1.5v1.6c.1.5.4 1 .9 1.4l.3.3c.2.2.7 1 .3 1.6-.1.1 0 .3.1.3h.1c.1 0 .2 0 .2-.1.4-.9-.1-1.8-.4-2.1l-.3-.3c-.3-.4-.7-.8-.8-1.2v-1.4c-.1-.6-.4-1.2-.9-1.6 1.1-.3 2.1-.8 2.9-1.2-.1.4-.1.9 0 1.3.1.3.2.6.4 1 .1.3.3.5.3.9.2.6.1 1.4.1 2.1v1.2c0 1.3.7 2.6 1.8 2.9h.1c.1 0 .2-.1.2-.2s0-.3-.2-.3c-1-.2-1.4-1.4-1.4-2.5v-1.2c0-.8.1-1.5-.1-2.3-.1-.3-.2-.6-.4-1-.1-.3-.2-.5-.3-.9-.1-.5-.1-1.2.3-1.5v-.1c1.8-1.1 2.9-2.4 3.6-3.6 1.1-2.1 1.7-4.6 1.7-6.9.1.1.1.2.2.4.4.9.8 1.7.4 2.5 0 .1 0 .3.1.3h.1c.1 0 .2-.1.2-.2.3-1 0-1.9-.4-2.8-.3-.8-.7-1.5-.5-2.3 0-.2.1-.4.2-.8.1-.2.2-.5.3-.9.1-.8-.1-1.5-.3-2.2-.4-1.1-.9-2.4-1.7-3.3-.2-.2-.4-.4-.7-.8-.4-.4-.9-.9-1.1-1.4.9 0 1.7.1 2.5.1 1.3 2.9 2.4 5.8 3.4 8.7.2.7.4 1.3.5 2.1 0 .7-.1 1.3-.3 1.9l-.1.4c-.7 2.9-.7 5.9 0 8.7 0 .1.1.2.2.2h.1c.1 0 .2-.2.2-.3-.7-2.8-.7-5.7 0-8.5l.1-.3c.1-.7.3-1.4.3-2.2s-.2-1.4-.5-2.3c-1-2.9-2.2-5.7-3.3-8.5.3 0 .7.1 1 .1.4 1 1.1 1.6 1.8 2.4.4.4.9.9 1.3 1.4 1.3 1.7 1.4 4.1.4 5.9-.1.1 0 .3.1.3h.1c.1 0 .2 0 .2-.1 1.1-2.1.9-4.6-.4-6.6-.4-.5-.9-1-1.3-1.4-.7-.7-1.2-1.2-1.6-1.8.8.1 1.3.2 1.8.4.1.9.8 1.7 1.8 2.6.1.1.3.2.4.3.7.5 1.4 1.1 1.8 1.8.4.9.4 1.9.1 3.3-.1.4-.3.9-.4 1.3-.2.7-.5 1.4-.7 2.2-.3 1.5 0 2.8.9 3.7 0 0 .1.1.2.1s.1 0 .2-.1.1-.3 0-.4c-.7-.7-1-1.8-.7-3.2.1-.8.4-1.4.7-2.1.2-.4.3-.9.4-1.4.4-1.5.4-2.8-.1-3.8-.1-.2-.3-.4-.4-.7.3.1.8.2 1.3.2 1.1.9 1.6 2.5 1.3 3.9-.1.4-.3.9-.5 1.3s-.3.9-.5 1.3c-.5 1.7 0 3.7.4 5.2 0 .1.1.2.2.2h.1c.1 0 .2-.2.2-.3-.4-1.5-.9-3.2-.4-4.8.1-.4.3-.8.4-1.2.2-.4.4-1 .5-1.4.3-1.4-.1-3-1.1-4.1.2 0 .5-.1.8-.1.2 0 .5-.2.9-.4.1.1.2.3.3.4s.2.2.3.2c.2.1.3.2.4.4.3.5.1 1.2-.1 1.9-.2.8-.5 1.6-.1 2.4 0 .1.1.1.2.1h.1c.1-.1.2-.2.1-.3-.3-.5-.1-1.2.1-1.9.2-.9.5-1.6 0-2.4-.1-.2-.3-.4-.5-.5-.1-.1-.2-.1-.2-.2-.1-.1-.2-.3-.3-.4.6-.7 1.3-1.6 2.1-3 .6.2 1.3.8 1.6 1.4.3.8.4 1.6.1 2.4-.1.2-.2.4-.3.5-.1.2-.3.5-.3.9-.1.5-.1 1.3.4 1.7 0 0 .1.1.2.1s.1 0 .2-.1.1-.3 0-.4c-.3-.2-.3-.8-.2-1.2.1-.2.2-.5.3-.8.1-.2.2-.4.3-.7.3-1 .3-1.9-.1-2.9-.3-.8-1.1-1.3-1.8-1.6.5-.9 1-1.9 1.5-3.1.1 0 .3 0 .4.1.3.1.5.4.6.7s.1.4.1.7c0 .3 0 .5.1.9.2.7.8 1.1 1.3 1.4.1.1.2.1.3.2.5.3 1 1 .8 1.5 0 .1 0 .3.1.3h.1c.1 0 .2-.1.2-.2.3-.8-.3-1.6-1-2.1-.1-.1-.2-.1-.3-.2-.4-.3-.9-.7-1.1-1.2-.1-.2-.1-.4-.1-.7s0-.5-.1-.9-.4-.8-.9-1c-.1-.1-.3-.1-.4-.1.4-1 1-2.2 1.5-3.3.4.4 1 .9 1.4 1.2l.2.2c1.1.8 1.6 1.5 1.7 2.3 0 .2 0 .5-.1.8 0 .3-.1.7-.1 1 .1.8.6 1.4 1 1.8l.3.3c.3.3.6.7 1 1.1.2.4.3 1.1 0 1.6-.1.1-.1.3 0 .4 0 0 .1.1.2.1s.1 0 .2-.1c.5-.7.3-1.6 0-2.2-.2-.4-.6-.9-1-1.2l-.3-.3c-.3-.3-.8-.9-.9-1.5 0-.2 0-.5.1-.9 0-.3.1-.5.1-.9-.1-1.2-1.2-2.1-1.9-2.7l-.2-.2c-.5-.3-1.1-.8-1.5-1.3.4-.9.8-1.8 1.2-2.8.4.5.8 1.2 1 1.8 0 .1.1.2.2.2h.1c.1 0 .2-.2.2-.3-.2-.9-.6-1.6-1.2-2.3.2-.7.5-1.3.8-1.9.2.3.5.7.8.8.2.1.4.3.6.4.4.3.9.7 1.2 1 .4.5.6 1.2 1 1.8.3.9.6 1.8 1.5 2.5h.1c.1 0 .2 0 .2-.1.1-.1.1-.3-.1-.3-.6-.5-1-1.3-1.3-2.2-.2-.8-.5-1.4-1.1-2.1-.3-.4-.9-.8-1.3-1.1-.2-.1-.4-.3-.6-.4-.3-.2-.6-.7-.9-1 .2-.4.4-1 .5-1.4.2.2.4.4.6.4.2.1.4.1.8.2s.5.1.9.2c.2.1.4.3.4.5 0 .1 0 .2-.1.3-.1.1-.1.3 0 .4 0 .1.1.1.2.1s.1 0 .2-.1c.2-.2.3-.4.2-.8 0-.4-.3-.9-.8-1-.3-.2-.6-.2-1-.3-.2 0-.4-.1-.6-.1-.2-.1-.5-.3-.6-.5v-.1c.3-.8.5-1.5.8-2.1.2 0 .4 0 .6-.1h.2c.8-.1 1.6.1 2.3.8.5.5 1 1.3 1.2 2.3.1.4.1.9.2 1.3.1.7.1 1.2.3 1.8.2.7.5 1.3.9 1.8.5 1 1.1 1.8 1 2.8v2.7c-.2-.7-.4-1.3-.6-1.8l-.6-1.6c-.4-1.1-1-2.3-2.1-2.7-.1-.1-.3 0-.3.1s0 .3.1.3c.9.4 1.3 1.4 1.7 2.5l.6 1.6c.4 1.2 1 2.5 1.2 3.8 0 1.3-.1 2.5-.2 3.9-.5-1.7-1.2-3.3-1.9-4.9-.1-.1-.2-.2-.3-.1s-.2.2-.1.3c1 2.1 1.7 4.2 2.3 6.3-.1 1.1-.2 2.1-.3 3.1-.4-1.5-1.2-2.9-1.9-4.4-.2-.5-.5-1-.8-1.5-.8-1.6-1.5-3.3-1.9-5.1v-.1c-.3-1.3-.8-2.7-1.9-3.4-.1-.1-.3 0-.3.1-.1.1 0 .3.1.3 1 .7 1.4 1.8 1.7 3.1v.1c.5 1.8 1.2 3.6 2.1 5.2.2.5.5 1 .8 1.5 1 1.8 1.9 3.8 2.1 5.8-.2 1.7-.4 3.4-.8 5.2-.1-.1-.1-.3-.2-.4s-.2-.2-.3-.4c-.2-.2-.3-.4-.4-.7-.2-.4-.1-.9 0-1.3s.1-.9.1-1.3c-.1-.7-.5-1.1-.9-1.6l-.3-.3c-.2-.2-.8-1.1-.4-1.7.1-.1 0-.3-.1-.3-.1-.1-.3 0-.3.1-.5.9.1 1.8.4 2.3l.3.3c.3.4.6.9.8 1.3.1.3 0 .8-.1 1.1-.1.5-.2 1.1 0 1.6.1.3.3.5.5.8l.3.3c.4.7.4 1.5.1 2.2-.1.1 0 .3.1.3-.8 3.9-1.8 7.7-3 11-.2-.8-.3-1.6-.1-2.4.1-.5.4-1.1.6-1.6.4-.8.8-1.5.8-2.5 0-.4-.1-.8-.1-1.1s-.1-.5-.1-.8c0-.5.1-1.2.5-1.4.1-.1.2-.2.1-.3-.1-.1-.2-.2-.3-.1-.5.3-.9 1.1-.9 1.9 0 .3.1.5.1.9.1.3.1.6.1 1 0 .8-.3 1.5-.8 2.1-.3.5-.5 1.1-.8 1.7-.2 1.2 0 2.4.3 3.3-.9 2.1-1.7 3.9-2.8 5.5-.6-1.1-.8-2.5-.3-3.7l.3-.9c.3-.6.5-1.3.5-2.1 0-.3-.1-.6-.1-.9-.1-.3-.1-.6-.1-1 0-.5.3-1 .5-1.5.1-.2.2-.3.2-.5.8-1.6.9-3.4.3-5.1 0-.1-.2-.2-.3-.2s-.2.2-.2.3c.5 1.5.4 3.2-.3 4.7-.1.1-.1.3-.2.4-.3.5-.5 1.1-.5 1.7 0 .3.1.8.1 1.1.1.3.1.5.1.8 0 .6-.2 1.2-.5 1.8-.1.3-.2.6-.3 1-.4 1.4-.2 3.1.5 4.4-.6 1-1.3 1.7-2.1 2.5-.3-.8-.3-1.7-.2-2.3 0-.3.1-.8.2-1.1.1-.8.3-1.5.2-2.4s-.3-1.6-.6-2.4c-.1-.2-.2-.5-.3-.8-.4-1.3-.4-2.3 0-3 .1-.1 0-.3-.1-.3-.1-.1-.3 0-.3.1-.4.9-.4 1.9 0 3.3.1.3.2.5.3.9.3.8.5 1.5.5 2.3s-.1 1.4-.2 2.1c-.1.3-.1.8-.2 1.1-.1 1.1 0 2.1.3 2.8.8.3.5.6.1.9zM64 114.1c-.1-.9-.2-1.6.1-2.3.1-.1 0-.3-.1-.3-.1-.1-.3 0-.3.1-.4.9-.3 1.7-.1 2.6.1.5.2 1.2.1 1.7-.1 1.1-1.1 2.1-2 2.9l-4.2 3.9c-.1.1-.1.3 0 .4 0 .1.1.1.2.1s.1 0 .2-.1l4.2-3.9c1.1-1 2-1.9 2.1-3.2 0-.8-.1-1.4-.2-1.9zm5.5 7.2c-.1 0-.2.2-.2.3.3 1.1-.2 2.3-1 2.9-.9.8-1.9 1.2-3 1.6l-.3.1c-1.1.3-2.2.8-3 1.4-1.8 1.3-2.7 3.5-3 5 0 .1 0 .3.2.3h.1c.1 0 .2-.1.2-.2.3-1.5 1.2-3.4 2.8-4.6.9-.7 1.9-1 2.9-1.3l.3-.1c1.2-.4 2.4-.9 3.2-1.7 1.1-1 1.5-2.4 1.2-3.4-.2-.3-.3-.3-.4-.3zm1.1 4.4h.1c.7-.5.8-1.4.8-1.9v-.7c0-.4-.1-.9 0-1.2 0-.2.1-.4.2-.7s.2-.5.2-.9c.1-.7-.1-1.3-.2-1.9-.1-.2-.1-.4-.2-.8-.1-.8-.1-1.7.5-2.1.1-.1.2-.2.1-.3-.1-.1-.2-.2-.3-.1-.9.5-1 1.7-.9 2.7 0 .2.1.5.2.8.1.7.3 1.2.2 1.7 0 .2-.1.4-.2.8-.1.2-.2.5-.2.8-.1.4 0 .9 0 1.3v.7c0 .4 0 1.1-.5 1.5-.1.1-.1.2-.1.3h.3zm2.5 3.3c-.1-.1-.3-.1-.4 0-1.9 1.9-3.8 4.1-5.3 6.4-.1.1 0 .3.1.3h.1c.1 0 .2 0 .2-.1 1.5-2.3 3.3-4.4 5.3-6.4.1 0 .1-.1 0-.2zm2-.2c-.1 0-.3 0-.3.2-.9 2.9-2.1 5.8-3.4 8.5-.5 1.1-1.3 2.5-.9 3.8 0 .1.1.2.2.2h.1c.1 0 .2-.2.2-.3-.3-1.1.3-2.3.9-3.3 1.5-2.7 2.7-5.6 3.6-8.6-.2-.3-.3-.4-.4-.5zm1.6 2.5c-1.7 1.6-2.2 4.3-1.2 6.5l.3.6c.1.3.3.5.4.8.1.3.3.9.1 1.4-.1.1 0 .3.1.3h.1c.1 0 .2-.1.2-.2.2-.6.1-1.3-.1-1.8-.1-.3-.3-.5-.4-.9l-.3-.6c-1-1.8-.4-4.4 1.1-5.8.1-.1.1-.3 0-.4-.1 0-.2 0-.3.1zm-.1-6c-.1-.3-.3-.7-.3-1-.2-.5-.2-1.4.3-1.8.1-.1.1-.2 0-.4-.1-.1-.2-.1-.4 0-.8.5-.8 1.6-.4 2.4.1.3.2.7.4 1 .2.3.3.8.4 1.1.1.7.1 1.4-.4 1.7-.1.1-.2.2-.1.3 0 .1.1.1.2.1h.1c.8-.4.9-1.5.7-2.3-.2-.4-.3-.8-.5-1.1zm48.1 7.1c.1 0 .1 0 .2-.1s.1-.3 0-.4c-.8-.9-.8-2.1-.7-3.1 0-.4.1-.8.2-1.2.1-.8.3-1.6.2-2.4 0-.4-.1-1-.2-1.4-.2-1-.3-1.8 0-2.7.1-.1 0-.3-.1-.3-.1-.1-.3 0-.3.1-.4 1-.2 1.9-.1 3 .1.4.2.9.2 1.3 0 .8-.1 1.5-.2 2.3-.1.4-.1.7-.2 1.2-.1 1.1-.1 2.5.9 3.6 0 .1.1.1.1.1zm2.4-2.6c-.3-.6-.9-1.8-.2-2.6.1-.1.1-.3 0-.4s-.3-.1-.4 0c-.5.8-.5 1.8.2 3.1l.2.3c.4.8.9 1.6.8 2.4-.1.5-.4 1-.8 1.4-.1.2-.3.4-.4.8-.9 1.5-.8 3.6.3 4.9 0 .1.1.1.2.1s.1 0 .2-.1.1-.2 0-.4c-1-1.2-1.1-3-.3-4.4.1-.2.3-.4.4-.6.3-.5.7-1 .9-1.6.2-1-.3-1.9-.8-2.7l-.3-.2zm0 15.2c-.5-.1-.9-.8-.9-1.4v-.8c0-.5 0-1.1-.1-1.5-.2-.4-.4-.9-.8-1.2-.1-.2-.3-.3-.4-.5-.7-.9-.7-1.9-.5-2.7.1-1 .4-1.9.8-2.8 0-.1 0-.3-.1-.3s-.3 0-.3.1c-.3.9-.7 1.9-.8 3-.1.9 0 2.1.7 3 .1.2.3.4.4.6.3.3.5.6.7 1.1.1.4.1.9.1 1.4v.8c0 .9.5 1.8 1.4 1.9.1 0 .2-.1.2-.2-.1-.4-.2-.5-.4-.5zm-7.8-7.6h.1c.1 0 .2 0 .2-.1.1-.1 0-.3-.1-.3-.7-.4-.8-1.3-.7-1.9s.3-1.2.7-1.8c.1-.1.1-.3.2-.4.3-.8.7-1.6.4-2.5-.1-.4-.2-.8-.4-1.2-.2-.4-.3-.9-.4-1.3 0-.7.2-1.2.4-1.8.3-.8.7-1.5.4-2.4 0-.1-.2-.2-.3-.2-.1 0-.2.2-.2.3.2.7-.1 1.3-.4 2.1-.3.7-.5 1.3-.5 2.1 0 .5.2 1 .4 1.4.2.3.3.6.4 1.1.1.8-.1 1.5-.4 2.1-.1.1-.1.3-.2.4-.3.6-.5 1.2-.7 1.9.2 1.1.5 2.1 1.1 2.5zm3.8 9.6c-.4-.1-.7-.6-.7-1.2 0-.2.1-.5.1-.8.1-.3.1-.6.2-1 0-1-.4-1.8-.9-2.6-.3-.5-.7-1.2-.8-1.7-.2-1.1.1-2.1.5-3.2s.9-2.3.7-3.4c0-.1-.1-.2-.3-.2-.1 0-.2.2-.2.3.2 1.1-.2 2.1-.5 3.2-.4 1.2-.9 2.4-.5 3.6.1.6.5 1.3.9 1.9.4.8.9 1.5.9 2.3 0 .3-.1.5-.1.9-.1.3-.1.5-.2.9 0 .8.3 1.5 1.1 1.7.1 0 .2-.1.2-.2-.1-.3-.2-.5-.4-.5zm-5.2-19.9c-.1-.1-.2-.1-.4 0-1.1.9-1.5 2.4-1.3 4.4 0 .2 0 .4.1.6.1 1.3.2 2.6-.2 3.7-.1.1 0 .3.1.3h.1c.1 0 .2-.1.2-.1.5-1.3.4-2.6.3-4 0-.2 0-.4-.1-.6-.2-1.9.2-3.2 1.1-4 .3 0 .3-.2.1-.3zm-36 14c0-.1-.1-.3-.2-.3s-.3.1-.3.2c0 1.4.3 2.8 1 4.1 0 .1.1.1.2.1h.1c.1-.1.2-.2.1-.3-.7-1.2-1-2.5-.9-3.8zm2-2.6c.1-.3.2-.6.3-1.1.1-.3.3-.6.3-1 .2-.9.1-1.8-.2-2.7-.1-.1-.2-.2-.3-.1-.1.1-.2.2-.1.3.3.8.4 1.5.2 2.4l-.3.9c-.1.3-.3.8-.4 1.1-.2 1.1 0 2.1.2 3l1.9 8.2c0 .1.1.2.2.2h.1c.1 0 .2-.2.2-.3l-1.9-8.2c-.2-.9-.4-1.8-.2-2.7zm36.6 9.2v-1.3c-.1-.5-.5-1.1-.9-1.5-.3-.3-.5-.6-.8-1-.2-.4-.2-1-.2-1.5v-.5c0-1.2-.3-2.3-1-3.2-.1-.1-.2-.1-.3-.1-.1.1-.1.2-.1.3.5.9.9 1.9.9 2.9v.5c0 .5 0 1.2.2 1.7.2.4.5.8.8 1.2.3.4.7.8.8 1.2V147.6c0 .6.2 1.1.7 1.3h.1c.1 0 .2 0 .2-.1.1-.1 0-.3-.1-.3-.2-.1-.2-.5-.3-.8zm8.3-20.9c-.1.1-.2.2-.1.3.8 1.4 1 2.9.8 4.4 0 .1.1.3.2.3s.2-.1.2-.2c.3-1.6 0-3.3-.8-4.8 0 0-.2-.1-.3 0zm2.8 1.9c-.2-.3-.4-.5-.4-.9 0-.2 0-.4.1-.8v-.3c.1-.9 0-1.6-.1-2.5 0-.2-.1-.4-.1-.7-.2-1.2 0-2.2.4-2.7.1-.1.1-.3 0-.4s-.3-.1-.4 0c-.5.8-.8 1.7-.5 3.1 0 .2.1.4.1.7.1.8.2 1.5.1 2.3v.2c-.1.3-.1.5-.1.9.1.4.3.8.5 1.2.1.1.1.2.2.3.2.3.4.9.1 1.1-.1.1-.1.3.1.3h.1c.1 0 .2 0 .2-.1.3-.4.3-1.1-.1-1.7-.1.2-.1.1-.2 0zm2.2 7.4c-.2-.2-.4-.5-.6-.8-.3-.4-.4-1.2-.1-1.5.1-.1.1-.3 0-.4-.1-.1-.3-.1-.4 0-.5.6-.3 1.5.1 2.1l.6.9c.2.2.4.4.5.6.3.4.5 1.1.2 1.6-.1.1 0 .3.1.3h.1c.1 0 .2 0 .2-.1.4-.6.2-1.6-.2-2.1-.1-.1-.3-.3-.5-.6zm.3-10.3c.2-.3.4-.7.6-1 .5-.7 1-1.3.9-2.2-.1-.5-.3-1-.6-1.4-.2-.3-.4-.5-.5-.9-.3-.9.2-1.9.9-2.8.1-.1 0-.3-.1-.3s-.3 0-.3.1c-.4.7-1.3 2.1-.9 3.2.1.4.3.8.5 1 .2.3.5.8.5 1.1.1.7-.3 1.2-.8 1.7-.2.3-.5.7-.8 1.1-.8 1.5-.1 3.2.8 4.9 0 .1.1.1.2.1h.1c.1-.1.2-.2.1-.3-.5-1.3-1.2-2.9-.6-4.3zm-42.2 20.6c0-.2.1-.4.1-.8.1-.9.3-1.8.1-2.7-.1-.4-.2-.9-.3-1.3-.1-.3-.2-.6-.3-1.1-.1-.3-.2-1.4.4-1.9.1-.1.1-.2 0-.4-.1-.1-.2-.1-.4 0-.7.5-.9 1.5-.7 2.5.1.3.2.8.3 1.1.1.4.3.8.3 1.2.1.9 0 1.6-.1 2.6 0 .2-.1.4-.1.8-.2 1.5 0 2.6.5 3.4 0 .1.1.1.2.1h.1c.1-.1.1-.2.1-.3-.3-.9-.4-1.8-.2-3.2zm19.2-.9c-.2-.5-.4-1-.4-1.4 0-.5.1-1 .2-1.5s.3-1.1.2-1.6c0-.8-.3-1.4-.7-1.9-.1-.1-.1-.3-.2-.4-.4-.9-.4-1.6-.2-2.1.1-.1 0-.3-.1-.3-.1-.1-.3 0-.3.1-.3.9 0 1.9.2 2.6.1.1.1.3.2.4.3.6.5 1.2.5 1.7 0 .4-.1 1-.2 1.4-.1.5-.3 1.1-.2 1.7 0 .5.3 1.1.5 1.6l.3.6c.1.3.4 1.3-.1 1.9-.1.1-.1.3 0 .4 0 0 .1.1.2.1s.1 0 .2-.1c.5-.5.7-1.5.2-2.5-.1-.3-.2-.5-.3-.7zm-13.1.8c0-.4.1-.8.2-1.2.1-.5.2-1.2.1-1.7s-.3-1.1-.7-1.5l-.3-.6c-.2-.5-.4-1.4.1-1.8.1-.1.1-.3 0-.4-.1-.1-.3-.1-.4 0-.7.6-.5 1.7-.2 2.5l.3.6c.2.4.5.9.5 1.4.1.5 0 1.1-.1 1.6-.1.4-.2.9-.2 1.3 0 .6.2 1.2.3 1.7l.7 2.3c0 .1.1.2.2.2h.1c.1 0 .2-.2.2-.3l-.7-2.3c0-.8-.1-1.3-.1-1.8zm39.7-30.3c0 .2-.1.4-.1.8-.1.4-.1.8-.1 1.2 0 .7.1 1.2.2 1.7.1.3.1.7.2 1 .2 1.3 0 2.7-.2 4-.3 1.7-.5 3.6.1 5.3 0 .1.1.2.2.2h.1c.1 0 .2-.2.1-.3-.6-1.5-.3-3.2-.1-4.9.2-1.4.4-2.8.2-4.1 0-.3-.1-.7-.2-1-.1-.5-.2-1.1-.2-1.6 0-.3.1-.8.1-1.1 0-.2.1-.5.1-.8.1-1.4-.2-2.8-1-4-.1-.1-.2-.1-.3-.1s-.1.2-.1.3c.7.8 1.1 2.1 1 3.4zm3.6 2.4c0 .3-.2.5-.3.9-.2.3-.3.7-.4 1.1-.1.8.3 1.4.6 1.9.1.1.1.2.2.3.3.7.5 1.4.1 1.7-.1.1-.1.2 0 .4 0 .1.1.1.2.1s.1 0 .2-.1c.6-.7.4-1.7 0-2.4-.1-.1-.1-.2-.2-.3-.3-.5-.6-1.1-.5-1.6 0-.3.2-.5.3-.9.2-.3.3-.7.4-1.1.1-.9-.4-1.5-1-2.2-.3-.4-.8-.9-.9-1.3 0-.1-.2-.2-.3-.2s-.2.2-.2.3c.1.5.5 1.1 1 1.5.5.8.9 1.2.8 1.9z" fill="#000000" stroke-width="none" opacity="1"></path></g></g></g><g id="svga-group-mustache-single-move" transform="matrix(1,0,0,1,0,0)"><g id="svga-group-mustache-single"></g></g><g id="svga-group-nose-single-move" transform="matrix(1,0,0,1,0,0)"><g id="svga-group-nose-single"><path id="SvgjsPath4439" d="M95.47 97.69s-3.62-.07-5.76 1.99c-2.13 2.06-2.42 5.9 4.62 5.68 0 0 1.56 3.91 4.9 4.9 3.34.99 4.9-1.92 5.4-2.98.5-1.07.92-2.7.92-2.7s3.41.07 4.26-.57c.85-.64 1.85-2.7.99-4.26s-3.41-2.2-5.76-2.06c-2.33.14-6.38.42-9.57 0z" fill="#ffffff" stroke-width="none" opacity="1"></path><path id="SvgjsPath4440" d="M107.51 97.47c-.68.03-.69 1.09 0 1.06 1.68-.07 3.15 1.1 3.1 2.87-.04 1.22-.82 2.08-1.84 2.44.35-.19.4-.83-.1-1-.83-.28-1.69-.07-2.35.48-.46.38.05.99.54.86-.19.29-.05.83.42.88 2.23.25 4.33-1.35 4.39-3.67.06-2.32-1.9-4.02-4.16-3.92zm-.23 6.53h-.11c.36-.25.8-.28 1.22-.14.08.03.15.03.21.03-.42.12-.87.16-1.32.11z" fill="#000000" stroke-width="none" opacity="1"></path><path id="SvgjsPath4441" d="M104.98 102.29c.62 2.89-1.92 8.47-5.56 7.33-3.75-1.19-5.89-5.91-4.71-9.51.57-1.73 1.52-3.32 2.02-5.08.48-1.68.38-3.36-.05-5.04-.87-3.39-3.9-9.25.67-11.36.62-.29.08-1.2-.54-.92-3.18 1.47-3.33 5.29-2.52 8.24.58 2.12 1.6 4.17 1.7 6.39.1 2.16-.92 4.07-1.74 6-.63 1.49-1.2 3.08-.99 4.72.02.17.05.34.08.51-.65-.47-1.45-.65-2.23-.39-.65.22-.37 1.24.28 1.03.44-.15.93-.11 1.31.19.06.05.12.08.18.11h-.04c-1.68.1-4.15.01-4.05-2.29.08-1.84 1.98-2.81 3.49-3.31.65-.22.37-1.24-.28-1.03-2.13.71-4.42 2.17-4.27 4.72.15 2.71 2.97 3.1 5.12 2.97.59-.03.67-.83.24-1.02.13 0 .26-.04.36-.15.03-.03.05-.05.07-.09.33 1.16.91 2.28 1.59 3.24 1.7 2.4 4.84 4.3 7.62 2.5 2.39-1.54 3.85-5.31 3.26-8.06-.13-.65-1.16-.36-1.01.3z" fill="#000000" stroke-width="none" opacity="1"></path></g></g><g id="svga-group-hair-front"></g><g id="svga-group-glasses-single-move" transform="matrix(1,0,0,1,0,0)"><g id="svga-group-glasses-single" transform="matrix(1.0000001,0,0,1.0000001,-0.000009965383540588846,-0.000009014446263222453)"></g></g></g></g></g><rect id="svga-credit-rect" width="200" height="15" x="0" y="185" fill="#ecf0f1" opacity="0.5" style="display: none;"></rect><text id="svga-credit-text" font-family="Avenir Next, Roboto, Helvetica, Arial, sans-serif" font-size="10px" text-anchor="start" font-weight="400" size="10px" anchor="start" weight="400" fill="#333333" x="33.40447998046875" y="182.60824704170227" style="display: none;"><tspan id="SvgjsTspan3640" dy="13" x="33.40447998046875">Created on AvatarMaker.com</tspan></text></g><defs id="SvgjsDefs3587"><linearGradient id="SvgjsLinearGradient8525" x1="77.6155" y1="73.6654" x2="77.6155" y2="106.6202" gradientUnits="userSpaceOnUse" class="svga-on-canvas-glasses-gradient-single-0-null"><stop id="SvgjsStop8526" stop-opacity="1" stop-color="#000000" offset="0" ></stop><stop id="SvgjsStop8527" stop-opacity="0" stop-color="#000000" offset="1" ></stop></linearGradient><linearGradient id="SvgjsLinearGradient8529" x1="32.7833" y1="73.6654" x2="32.7833" y2="106.6202" gradientTransform="matrix(-1 0 0 1 154.4999 0)" gradientUnits="userSpaceOnUse" class="svga-on-canvas-glasses-gradient-single-1-null"><stop id="SvgjsStop8530" stop-opacity="1" stop-color="#000000" offset="0" ></stop><stop id="SvgjsStop8531" stop-opacity="0" stop-color="#000000" offset="1" ></stop></linearGradient></defs></svg>