<svg xmlns="http://www.w3.org/2000/svg" version="1.1" width="600px" height="600px" viewBox="0 0 200 200" style="overflow:hidden!important;"><defs id="SvgjsDefs12479"></defs><g id="svga-group-wrapper"><g id="svga-group-backs-single"><path id="SvgjsPath12982" d="M0 0h200v200H0V0z" fill="#ffffff" stroke-width="none" opacity="1" stroke="none"></path></g><g id="svga-group-humanwrap-move" transform="matrix(1,0,0,1,0,0)"><g id="svga-group-humanwrap" transform="matrix(1,0,0,1,0,0)"><g id="svga-group-hair-back-move" transform="matrix(1,0,0,1,0,0)"><g id="svga-group-hair-back" transform="matrix(1.0000001,0,0,1.0000001,0,0)"></g></g><g id="svga-group-humanbody-back"><path id="SvgjsPath12870" d="M77.6 118.3c0 19.3 3.4 44.1-10 51.9-13.4 7.9-31.9 11.3-37.8 22s-4.4 25.3-4.4 25.3h149.3s.7-18.9-5.1-26.4c-8.1-10.4-27.8-15.5-37.7-20.9s-13.4-25.1-13.4-52.4l-40.9.5z" fill="#ffffff" stroke-width="none" opacity="1"></path></g><g id="svga-group-chinshadow-single"></g><g id="svga-group-humanbody-front"><path id="SvgjsPath12871" d="M175.8 218.7H24.4l-.1-1c-.1-.6-1.5-15.1 4.5-26 4.1-7.4 13.5-11.3 23.5-15.5 5-2.1 10.2-4.3 14.8-6.9 10.6-6.2 10.1-23.9 9.6-41-.1-3.5-.2-6.8-.2-10v-1.1l43.2-.4v1.1c0 29.9 4.2 46.7 12.8 51.4 2.9 1.6 6.7 3.2 10.8 4.9 10 4.1 21.3 8.8 27.2 16.3 6.1 7.7 5.4 26.4 5.4 27.1l-.1 1.1zm-149.3-2.2h147.1c0-4.1-.2-18.5-4.9-24.6-5.5-7-16.6-11.6-26.3-15.6-4.1-1.7-8-3.3-11-5-5.1-2.8-8.7-8.9-10.9-18.7-2-8.4-2.9-19.4-3-33.5l-38.6.4c0 2.8.1 5.7.2 8.8.5 17.8 1 36.1-10.7 43-4.7 2.7-9.9 4.9-15 7.1-9.6 4-18.7 7.8-22.4 14.5-5 8.6-4.7 20.1-4.5 23.6z" fill="#000000" stroke-width="none" opacity="1"></path><path id="SvgjsPath12872" d="M93.9 153.8c-.5 1.8-.4 3.4.5 5.2.8 1.6 2.1 2.7 3.9 2.9.4 0 .7-.5.5-.8-1.6-2.2-3.5-4.2-3.7-7.1 0-.7-1-.9-1.2-.2z" fill="#000000" stroke-width="none" opacity="1"></path><path id="SvgjsPath12873" d="M112.5 187.5c8.8.5 18.1-.7 26.6-2.9.7-.2.6-1.4-.2-1.3-8.8 1.1-17.7 2-26.5 3.3-.5.1-.3.9.1.9z" fill="#000000" stroke-width="none" opacity="1"></path><path id="SvgjsPath12874" d="M63.1 182.5c3.8.9 7.6 1.9 11.5 2.8 3.6.8 7.4 2 11.1 2.1.7 0 .8-.9.2-1.2-3.5-1.4-7.5-1.7-11.2-2.5-3.8-.7-7.5-1.3-11.3-2-.5 0-.7.7-.3.8z" fill="#000000" stroke-width="none" opacity="1"></path></g><g id="svga-group-clothes-single"><path id="SvgjsPath14044" d="M75.1 157.9s-1.2.2-3.7 3.2-4.6 5.4-4.6 5.4v2.2s-6.8 4.1-12.2 5.4-23.2 10.7-23.2 10.7-6.1 8.5-7.1 15.1-.7 18.3-.7 18.3h153s-.5-14.6-1.7-19.5-5.1-12.7-5.1-12.7-16.1-8.8-22.2-11c-6.1-2.2-15.6-5.9-15.6-5.9v-1.9s-2.9-3.4-5.1-5.6c-2.2-2.2-1.7-3.4-3.4-3.9 0 0 0 5.9-1 9.8s-9.8 9-12.7 10c-2.9 1-3.9 0-4.9 2.9-1 2.9-2.9 7.3-2.9 7.3s-4.2-4.9-6.8-6.8-6.1-3.7-10.5-3.2c-4.4.4-8.1-15.7-9.6-19.8z" fill="#ffffff" stroke-width="none" opacity="1"></path><path id="SvgjsPath14045" d="M175.9 198.4c-1.2-4.9-5-12.6-5.2-12.9-.1-.2-.2-.3-.4-.4-.7-.4-16.2-8.9-22.3-11-5.1-1.8-12.7-4.7-14.9-5.6v-1.3c0-.2-.1-.5-.2-.6-.1-.1-3-3.5-5.2-5.7-.9-.9-1.3-1.6-1.6-2.2-.5-.8-.9-1.6-2.2-2-.3-.1-.6 0-.9.2s-.4.5-.4.8c0 .1 0 5.8-.9 9.5-.7 2.8-6.6 6.8-10.3 8.6-.1 0-.2.1-.2.1-.6.3-1.1.5-1.5.6-.8.3-1.4.4-2 .5-1.7.3-2.7.6-3.5 3.1-.6 1.8-1.6 4.3-2.3 5.8-1.4-1.6-4-4.4-6-5.8-2.4-1.7-6.1-3.9-11.2-3.4-2.8.3-6.1-11.2-7.4-15.6-.4-1.4-.8-2.7-1.1-3.5-.2-.5-.7-.8-1.1-.6-.4.1-1.8.5-4.2 3.5-2.4 2.9-4.6 5.3-4.6 5.3-.2.2-.3.4-.3.7v1.6c-1.6.9-7.1 4-11.4 5-5.4 1.2-22.7 10.4-23.4 10.8l-.3.3c-.2.4-6.2 8.8-7.2 15.6-1 6.6-.8 18-.7 18.5 0 .5.5 1 1 1h153c.3 0 .5-.1.7-.3.2-.2.3-.5.3-.7-.4-.8-.9-15-2.1-19.9zm-.4 16.4c-.6.8-1.2 1.5-1.8 2.3h-2.2c1.4-1.4 2.7-2.8 4-4.2-.1.7 0 1.3 0 1.9zm-6.5-28.1c.7 1.4 3.9 8 4.9 12.2.7 2.8 1.1 8.9 1.4 13.5-1.6 1.6-3.2 3.1-4.8 4.8h-3.4c2.1-1.9 4-4.2 5.9-6.3.2-.2-.1-.5-.3-.3-2.1 2.2-4.6 4.2-6.6 6.6h-2.6c2.3-2.6 4.3-5.2 7-7.4.2-.2-.1-.4-.3-.3-2.6 2.2-5.4 4.8-7.3 7.7h-3.3l.1-.1c.1-.1 0-.2-.1-.2 1.5-.9 3.1-3.1 4.4-4.6 1.6-1.8 3.1-3.5 4.7-5.3.1-.2-.1-.4-.2-.2-3.1 3.4-6.2 6.7-9.2 10.1-.1-.7-.1-1.7-.2-2.9 3.2-3.5 6.2-7.2 9.3-10.8.1-.2-.1-.4-.2-.2-3 3.4-6.1 6.8-9.1 10.4-.1-1.2-.1-2.4-.2-3.8 2.2-2.9 4.5-5.6 7-8.2.1-.1-.1-.3-.2-.2-2.5 2.4-4.8 4.9-6.9 7.6v-4.6c2.1-2.7 4.1-5.3 6.5-7.8.1-.1-.1-.3-.2-.2-2.2 2.1-4.5 4.4-6.3 7 0-.9.1-1.9.2-2.7 1.5-1.9 3-3.7 4.7-5.4.1-.1-.1-.3-.2-.2-1.5 1.4-3.1 3-4.4 4.6.2-1.1.4-2.1.7-3.1.6-.8 1.1-1.5 1.6-2.3.1-.1-.1-.3-.2-.2-.4.4-.7.9-1.1 1.4 1.3-4.4 3.4-8.4 5.3-10.6 1.8 1 3.1 1.7 3.6 2zm-45.6-19.1c.6-2.4.8-5.6.9-7.7.3.6.8 1.4 1.8 2.3 1.8 1.8 4.1 4.4 4.8 5.3v1.6c-.2 1.6.5 6 1.4 9.4.3 1 .8 2.6 1.5 4.4.9 2.6 2.5 7.2 2.6 8.9-1.1-.4-1.9-1-3.8-2.5-1.1-.9-2.7-2.1-4.9-3.7-3.9-2.8-5.9-4.8-7.6-6.3-1-.9-1.8-1.7-2.7-2.4-.7-.6-1.4-.9-2.1-1.1 3.6-2.3 7.4-5.4 8.1-8.2zm-8 14.6c0-1.5-.5-3.2-.7-4.7.4.2.9.4 1.4.8.1 1.1 0 2.3.2 3.4-.3.2-.6.4-.9.5zm1.1-3.6c.3.2.5.4.8.7v.1c.1.4.1.9.2 1.3 0 .1.2.1.2 0 0-.4 0-.7-.1-1.1l.9.9c-.6.4-1.3.8-1.9 1.1.2-1 0-2-.1-3zm-2.1-1.2c.2 1.6.2 3.4.6 5-.4.2-.8.4-1.2.5 0-1.9-.3-3.8-.5-5.7.3.1.6.1 1.1.2zm-4.3.9c.5-.1 1.1-.4 1.8-.8.2-.1.5-.2 1-.3.2 1.9.2 3.9.6 5.8-.3.1-.7.2-1 .3-.2-1.8-.8-3.6-1.2-5.3 0-.2-.3-.1-.3.1.3 1.7.5 3.7 1.1 5.4-.6.2-1.3.4-1.9.6-.2-.7-.4-1.4-.5-2.1 0-.1.1-.2.1-.4 0-.4-.2-.7-.4-1-.2-.6-.3-1.3-.4-2 .2 0 .7-.1 1.1-.3zm-2.4 6.3c-.2-.6-.4-1.3-.6-1.9.3.3.7.5 1.1.5.4 0 .8-.2 1.1-.5.2.5.3 1.1.5 1.6-.6 0-1.4.2-2.1.3zm.1-5.7c.2 0 .5-.1.8-.1.1.5.1 1 .2 1.5-.2-.1-.4-.1-.6-.1-.7 0-1.2.4-1.4 1.1-.1-.6-.2-1.2-.3-1.9.3-.3.7-.4 1.3-.5zm-1.6.9c.1 1.7.4 3.3 1.1 4.8-.5.1-1.1.1-1.6.2-.1-.7-.3-1.4-.6-2.1.3-.7.5-1.4.8-2.1.1-.3.2-.6.3-.8zm-.9 5c-.3 0-.7 0-1.1.1l.6-1.5c.2.5.3 1 .5 1.4zm-10.5-3c.1 1.2.1 2.6.5 3.8.1.2.3.1.3 0 .1-1-.1-2.2-.3-3.3.2.2.4.3.6.5.1 1 .2 2.1.5 3 0 .1.2.1.2 0 .1-.8-.1-1.7-.2-2.6.9.9 1.9 1.8 2.7 2.7-1.6.1-3.2 0-4.8-.1 0-1.6-.4-3.2-.7-4.8.3.2.6.4 1 .6 0 .1.1.2.2.2zm-1.7 3.9c-.1-.8-.4-1.6-.6-2.4-.2-1-.4-2.1-.5-3.1 0-.2-.3-.2-.3 0 .1 1.8.2 3.9 1.1 5.4-.7-.1-1.3-.2-2-.3-.5-2.1-.9-4.1-.9-6.2 1.1.4 2.1.9 3.2 1.5v.1c.2 1.6.3 3.4.7 4.9-.1.1-.4.1-.7.1zm-4.2-.7c-.4-2.1-.9-4.2-1.2-6.4.7.1 1.3.2 2 .4 0 2.1.2 4.3.9 6.3-.6 0-1.2-.2-1.7-.3zm-1.7-6.4c.1 2.1.4 4.3 1.2 6.3-.5-.1-1-.2-1.5-.4-.4-2-.9-4-1.3-6 .6.1 1.1.1 1.6.1zm-2.1 0h.2c.2 2 .5 4 1.2 5.8-.5-.1-.9-.2-1.4-.4-.2-.8-.5-1.5-.7-2.3-.2-.7-.3-1.4-.4-2.2.4-.3.8-.7 1.1-.9zm-1.5 1.3c.2 1.4.4 2.8.9 4-.5-.1-.9-.3-1.4-.5-.3-.7-.7-1.5-1.1-2.2.6-.4 1.1-.9 1.6-1.3zm-1.9 1.7c.2.5.4 1.1.7 1.6-.6-.2-1.2-.4-1.8-.7.4-.3.7-.6 1.1-.9zm-15.1.8c0-4.3 1.2-13.5 1.2-13.6V166.9c.7-.7 2.5-2.8 4.4-5.1 1-1.2 1.8-1.9 2.3-2.3.2.6.4 1.4.7 2.2 2.2 7.5 4.5 14.4 7.4 16.4-2.2 2-6.7 5.9-9 8.2-2.5 2.5-6.8 5.2-8.9 6.3.1-.8.4-2.1.7-3.1.6-2.4 1.2-5.1 1.2-7.1zM36 186.9c-.9-.7-1.8-1.3-2.8-2 .5-.2 1.1-.6 1.8-.9l-.2.2c.2.3.7 1.3 1.2 2.7zm-6.8 3.3c3.1 2.1 6.2 4.4 9.5 6.2h.1c.4 1.4.7 2.8 1.1 4.3-3.8-2.9-8-5.4-11.8-8.4.4-.7.8-1.4 1.1-2.1zm1.6-2.7c2.2 1.9 4.5 3.9 7 5.3.3 1 .6 2.1.9 3.2-2.9-2.2-6.1-4.2-9.3-6.2.6-.9 1-1.7 1.4-2.3zm.3-.4c.5-.8.9-1.3 1-1.6.1-.1.3-.2.6-.3 1.2.9 2.4 1.9 3.6 2.7.4 1.1.8 2.4 1.2 3.9-2-1.7-4.3-3.1-6.4-4.7zm-6.5 26.4c2 1.3 3.9 2.7 6.1 3.6.1 0 .2-.1.1-.2-1.8-1.6-4-2.7-6.1-3.9 0-1 0-2.1.1-3.3 3.3 3 7.1 5.8 11.2 7.4.2.1.3-.2.1-.3-3.9-2.4-7.7-4.6-11.3-7.6 0-1.1.1-2.1.1-3.2 4.9 4.1 10 8 15.5 11.1H24.6v-3.6zm16.5 3.6c-5.4-3.9-10.9-7.5-16.2-11.5.1-1.5.2-3 .4-4.3 5.1 3.6 10.2 7.4 15.6 10.4.2.1.4-.2.2-.3-5-3.8-10.5-7.1-15.8-10.5 0-.3.1-.6.1-.9.2-1.1.5-2.2.9-3.3 4.6 3 9.3 6.3 14.2 8.9.2.1.3-.2.2-.3-4.5-3.3-9.4-6.1-14.1-9h-.1c.4-1.2 1-2.4 1.5-3.6 3.7 3.2 7.8 6.5 12.1 8.6.1.3.2.6.2.9 1.5 6.6 1.7 12.9 1.7 14.9h-.9zm2.8 0c0-2-.1-8.5-1.7-15.4-1.7-7.4-4.3-16.3-5.7-18.6 5.6-2.9 14.8-7.5 18.4-8.2 3.8-.9 8.3-3.1 10.7-4.5-.4 3-1 8.7-1 11.9 0 1.8-.6 4.4-1.1 6.6-.8 3.4-1.1 4.8-.3 5.6.2.2.5.3.9.3.2 0 .3 0 .5-.1 2-.7 7.4-4 10.5-7.1 1.3-1.3 3.3-3.1 5.2-4.8.8.4 1.7.8 2.5 1.1.1.1.1.1.1.2.1.1.3.1.3-.1.5.2 1.1.4 1.6.6.1.1.1.1.2 0 .6.2 1.1.3 1.7.5v.1c.1.1.2.1.2 0 .6.1 1.2.3 1.8.4h.1c3.5.7 7.1 1 10.7.7.6.6 1.1 1.2 1.3 1.5-.1.4-.6 1.3-1.8 2.5-2.4 2.2-3.2 3.6-3 6.9.2 2.4 1.1 15.8 1.4 19.8l-53.5.1zm54.2-19.9c-.2-2.5.2-3.4 2.3-5.3 2.1-1.9 2.5-3.4 2.6-4 .2-.4.6-1.4 1.1-2.6 2.1 0 4.1-.2 6-.6 0 0 0 .1.1.1.1.1.3 0 .2-.1v-.1c.2 0 .3-.1.5-.1-1.1 5-5.6 7.9-5.7 13.4-.2 6.2 1.2 13 2.2 19.2h-7.8c-.4-3.8-1.4-17.5-1.5-19.9zm9.7 19.9c-.6-6.1-2-12.3-2.1-18.4-.1-6 4.8-8.9 5.6-14.4.3-.1.7-.2 1-.3.1.1.2.1.2-.1.9-.3 1.7-.6 2.6-1v.1c0 .1.2.1.2 0v-.2c1.2-.6 2.4-1.3 3.6-2.1 1.6 1.5 3.7 3.6 7.6 6.4 2.2 1.6 3.7 2.8 4.8 3.7 2.2 1.8 3.2 2.6 5.1 3h.4c.4 0 .8-.2 1.1-.5 1-1.1.3-3.8-2.3-11.2-.6-1.7-1.2-3.3-1.4-4.3-.7-2.8-1.2-5.6-1.3-7.4 2.9 1.1 9.6 3.6 14.3 5.3 3.7 1.3 11.2 5.2 16.4 7.9-2.4 3.1-5.4 9.1-6.5 15.5-.5 3.2-.5 8.1-.3 12.1-.1.2-.3.4-.4.6s.2.4.3.2c0-.1.1-.1.1-.2.1 2.1.2 3.8.3 5l-49.3.3zm66.5 0c.4-.6.8-1.1 1.2-1.7 0 .7.1 1.2.1 1.7h-1.3zm-73.2-22.8c.8 0 1.5.7 1.5 1.5s-.7 1.5-1.5 1.5-1.5-.7-1.5-1.5.7-1.5 1.5-1.5zm.6 15.4c.8 0 1.5.7 1.5 1.5s-.7 1.5-1.5 1.5-1.5-.7-1.5-1.5.6-1.5 1.5-1.5z" fill="#000000" stroke-width="none" opacity="1"></path></g><g id="svga-group-head" transform="matrix(1,0,0,1,0,0)"><g id="svga-group-ears-left-move" transform="matrix(1,0,0,1,0,1)"><g id="svga-group-ears-left" transform="matrix(1,0,0,1,0,0)"><path id="SvgjsPath14269" d="M60.8 80.5c-.2-.3-3.3-4.3-5.9-6.7s-3.4-2.4-4.6-.9c-1.3 1.5-2.9 9.1-2.5 12.4.4 3.4 3.6 8.7 5.2 11.7 1.7 3 3.3 6.7 5.1 6.3 1.9-.4 4.4-4.6 5.7-7.7 1.2-3.1.6-10.9-3-15.1z" fill="#ffffff" stroke-width="none" opacity="1"></path><path id="SvgjsPath14270" d="M52.9 98.9c-.3-.5-.5-1-.8-1.4l-.6-1c-1.8-3.1-4.4-7.8-4.8-11-.4-3.5 1.2-11.4 2.7-13.2.6-.7 1.2-1.3 2.2-1.4 1.2-.1 2.3.7 3.9 2.2 1.6 1.4 3.5 3.6 5.8 6.5l.2.3c3.9 4.6 4.5 12.8 3.2 16.1-1.1 3-3.9 7.8-6.4 8.3h-.5c-2 .1-3.4-2.6-4.9-5.4zm7.2-17.8s-.1-.1-.2-.3c-2.2-2.8-4.1-5-5.6-6.3-1.2-1.1-2.1-1.7-2.4-1.7-.2 0-.4.2-.8.7-1 1.2-2.6 8.4-2.3 11.7.3 2.8 2.8 7.3 4.5 10.3l.6 1c.3.5.5 1 .8 1.4.9 1.7 2.5 4.6 3.3 4.4 1.2-.2 3.6-3.7 4.9-7.1 1.1-2.8.4-10.2-2.8-14.1z" fill="#000000" stroke-width="none" opacity="1"></path><path id="SvgjsPath14271" d="M50 87c-.3-2.3-.5-7.8.8-9.6 2.2-2.9 6 6.4 6.9 9.3 0 .1.1.2.1.3.2.3-.1.7-.4.6-.4-.2-.9-.6-1.3-.8-1.1-.5-1.6.5-1.3 1.8.4 1.8 1.4 2.9 2.2 4.3.1.2 0 .4-.2.3-1.6-.9-3.5-4.5-3.1-6.6.3-2 1.9-1.8 3.1-.8-.7-1.7-1.5-3.3-2.5-4.8-.6-.9-1.2-2-2.2-2.2-1.2-.2-1 .3-1.2 1.8-.8 4.8-.3 10.4 2.5 14.5.1.1 0 .2-.1.1-1.7-2.3-2.9-4.9-3.3-8.2z" fill="#000000" stroke-width="none" opacity="1"></path></g></g><g id="svga-group-ears-right-move" transform="matrix(1,0,0,1,0,1)"><g id="svga-group-ears-right" transform="matrix(1,0,0,1,0,0)"><path id="SvgjsPath14272" d="M139.2 80.5c.2-.3 3.3-4.3 5.9-6.7 2.6-2.4 3.4-2.4 4.6-.9s2.9 9.1 2.5 12.4c-.4 3.4-3.6 8.7-5.2 11.7-1.7 3-3.3 6.7-5.1 6.3s-4.4-4.6-5.7-7.7c-1.2-3.1-.6-10.9 3-15.1z" fill="#ffffff" stroke-width="none" opacity="1"></path><path id="SvgjsPath14273" d="M142.1 104.4h-.5c-2.5-.5-5.2-5.4-6.4-8.3-1.3-3.4-.7-11.5 3.2-16.1l.2-.3c2.3-2.9 4.2-5.1 5.8-6.5 1.6-1.4 2.7-2.2 3.9-2.2 1 .1 1.6.7 2.2 1.4 1.5 1.8 3.1 9.7 2.7 13.2-.4 3.2-3 7.9-4.8 11l-.6 1c-.3.5-.5.9-.8 1.4-1.4 2.7-2.8 5.4-4.9 5.4zm-2.2-23.3c-3.2 3.9-3.9 11.2-2.8 14.1 1.3 3.4 3.7 6.9 4.9 7.1.8.2 2.4-2.7 3.3-4.4.3-.5.5-1 .8-1.4l.6-1c1.7-3 4.2-7.5 4.5-10.3.4-3.3-1.3-10.5-2.3-11.7-.4-.4-.6-.7-.8-.7-.3 0-1.2.5-2.4 1.7-1.5 1.4-3.3 3.5-5.6 6.3 0 .2-.1.3-.2.3z" fill="#000000" stroke-width="none" opacity="1"></path><path id="SvgjsPath14274" d="M150 87c.3-2.3.5-7.8-.8-9.6-2.2-2.9-6 6.4-6.9 9.3 0 .1-.1.2-.1.3-.2.3.1.7.4.6.4-.2.9-.6 1.3-.8 1.1-.5 1.6.5 1.3 1.8-.4 1.8-1.4 2.9-2.2 4.3-.1.2 0 .4.2.3 1.6-.9 3.5-4.5 3.1-6.6-.3-2-1.9-1.8-3.1-.8.7-1.7 1.5-3.3 2.5-4.8.6-.9 1.2-2 2.2-2.2 1.2-.2 1 .3 1.2 1.8.8 4.8.3 10.4-2.5 14.5-.1.1 0 .2.1.1 1.7-2.3 2.9-4.9 3.3-8.2z" fill="#000000" stroke-width="none" opacity="1"></path></g></g><g id="svga-group-faceshape-wrap" transform="matrix(1.0000001,0,0,1.0000001,-0.000009991837316647434,-0.000008275000382695907)"><g id="svga-group-faceshape-single"><path id="SvgjsPath14881" d="M143.8 67.9c-.1-3.3-.3-8.9-1.4-14.2-2.3-11.4-15.1-28.8-42.4-28.8-27.3 0-36.4 13.4-40.5 23.3-2.5 6.2-3.2 15.2-3.4 19.7 0 0-.1 52.2 4.9 60.9 8.7 15.2 64.6 15 76.3 4.3 7.4-6.7 6.6-45.4 6.5-65.2z" fill="#ffffff" stroke-width="none" opacity="1"></path><path id="SvgjsPath14882" d="M102.1 141.8c-6.1 0-12.2-.4-17.7-1.3-8.9-1.4-20.4-4.4-24.3-11.2C55 120.4 55 70 55 67.8c.2-4.8.9-13.8 3.4-20.1 6.6-16.2 20.1-24 41.5-24 12.3 0 23.2 3.6 31.3 10.4 6.3 5.2 10.9 12.5 12.2 19.3 1.1 5.5 1.3 11.4 1.4 14.4v4.1c.2 28-.2 55.8-6.8 61.9-5.7 5.4-20.9 8-35.9 8zM57.3 67.9c0 18 .9 53.7 4.8 60.3 2.7 4.7 10.7 8.3 22.7 10.1 20.3 3.1 45 .2 51.9-6.1 6.4-5.9 6.2-41.2 6-60.2v-4.1c0-3-.3-8.7-1.4-14-1.3-6.4-5.6-13.1-11.5-18-7.7-6.5-18-9.9-29.9-9.9-20.3 0-33.2 7.4-39.4 22.6-2.3 5.9-3 14.6-3.2 19.3z" fill="#000000" stroke-width="none" opacity="1"></path></g></g><g id="svga-group-mouth-single-move" transform="matrix(1,0,0,1,0,2)"><g id="svga-group-mouth-single" transform="matrix(1,0,0,1,0,0)"><path id="SvgjsPath13000" d="M117.11 115.24c-.34-.18-.6-.42-.78-.76-.35-.63-1.32-.07-.97.57.05.09.12.16.18.24-.01 0-.02 0-.03.01a38.04 38.04 0 0 1-7.15 2.53.56.56 0 0 0-.26-.01c-2.35.46-4.66.17-7.03.14-.74-.01-1.58.02-1.84.66-.71-.88-1.89-.76-3.04-.77-2.01-.01-4.03.01-6.04-.01h-.03c-1.84-.45-3.64-1.04-5.41-1.76l-.03-.03c.03-.17 0-.35-.14-.49-.2-.2-.6-.23-.79 0-.3.35-.59.7-.89 1.05-.2.23-.23.57 0 .79.2.2.6.23.79 0 .12-.14.24-.28.35-.42.02.01.03.03.05.04h.01c2.85 2.85 5.63 5.83 8.62 8.54 2.43 2.21 5.3 2.28 8.46 2.17 3.4-.13 5.96-1.38 8.39-3.76 2.48-2.43 4.79-5.09 6.93-7.83.03.01.04.04.07.05.27.14.61.07.77-.2.16-.23.08-.61-.19-.75zm-30.48 2.75c9.03 3.05 18.91 2.7 27.73-.97-1.34 1.61-2.75 3.16-4.18 4.68-6.42 2.51-13.26 2.45-19.73.02-.02-.01-.03.01-.05 0-1.26-1.24-2.51-2.48-3.77-3.73zm22.46 4.84-.06-.12c.09-.03.19-.06.28-.1l-.22.22zm-.5.49c-.07-.13-.15-.27-.22-.4.04-.01.08-.02.12-.04v.02c.06.11.11.23.17.34-.02.03-.04.06-.07.08zm-.89.77c-.19-.27-.38-.55-.57-.82.07-.02.15-.03.22-.05l.39.84c-.02.01-.03.02-.04.03zm-.65.48-1.03-1.03.52-.12c.24.34.47.68.71 1.02-.07.04-.13.08-.2.13zm-.83.54c-.31-.48-.62-.96-.92-1.44l.18-.03c-.01.07.01.15.08.22l1.04 1.04c-.13.07-.26.14-.38.21zm-.72.4c-.3-.57-.61-1.14-.91-1.72.04-.01.08-.01.12-.02v.01l1.02 1.59c-.08.06-.15.11-.23.14zm-.54.24c-.44-.58-.81-1.2-1.13-1.84.06-.01.11-.02.17-.02l.99 1.86c-.02-.01-.03-.01-.03 0zm-.91.34c-.48-.65-.89-1.34-1.25-2.07.14-.01.28-.02.42-.04.34.7.74 1.36 1.21 1.99-.12.04-.25.08-.38.12zm-.68.19c-.57-.73-1.14-1.46-1.7-2.18.18-.01.36-.01.53-.03.35.77.8 1.49 1.29 2.18-.04 0-.08.02-.12.03zm-.83.16c-.44-.58-.82-1.18-1.16-1.82l1.39 1.78c-.08.02-.15.03-.23.04zm-.85.13c-.6-.78-1.14-1.59-1.62-2.45h.44c0 .02-.01.04 0 .07.39.83.88 1.6 1.42 2.35l-.24.03zm-.97.05c-.54-.8-1.01-1.63-1.41-2.51.05 0 .09.01.14.01.01.03-.01.05.01.08.47.84 1 1.64 1.57 2.41-.1 0-.2.01-.31.01zm-.77.02c-.53-.86-1.06-1.72-1.59-2.59.11.01.22.01.33.02v.03c.39.89.86 1.73 1.39 2.54h-.13zm-2.19-.05c-.62-.89-1.18-1.82-1.67-2.8.03.01.07.01.1.02 0 .04.01.09.05.13.66.92 1.4 1.78 2.09 2.68l-.57-.03zm-.97-.12c-.53-.92-1.03-1.86-1.5-2.82.04.01.08.02.11.02v.02c.47.98 1.03 1.9 1.63 2.8-.08 0-.16 0-.24-.02zm-1.71-.55c-.59-.9-1.18-1.81-1.78-2.71.1.03.2.05.3.08.53.9 1.06 1.79 1.59 2.69a1.09 1.09 0 0 0-.11-.06zm-1.74-1.26c-.38-.53-.7-1.1-.97-1.7.05.01.1.03.14.04.01.02 0 .03.01.05l1.38 2.1c-.19-.16-.38-.32-.56-.49zm2.68 1.61c-.55-.93-1.1-1.87-1.65-2.8.07.02.15.03.22.05.45.94.94 1.85 1.45 2.76-.01 0-.02-.01-.02-.01zm2.97.37c.01-.01.01-.02.02-.03-.17-.18-.31-.42-.46-.61-.54-.7-1.1-1.38-1.63-2.08.25.03.51.05.76.08.01.01 0 .02 0 .03.54.87 1.08 1.75 1.61 2.62-.1-.01-.2-.01-.3-.01zm2.11-2.52c.01 0 .01 0 0 0 .01 0 .01 0 0 0 .01 0 0 0 0 0zm-9.81-1.51c.15.05.31.1.46.15-.01.05-.03.09-.01.15.04.1.09.19.13.29l-.09-.09c-.16-.17-.33-.33-.49-.5z" fill="#000000" stroke-width="none" opacity="1"></path></g></g><g id="svga-group-eyes-left-move" transform="matrix(1,0,0,1,2,-2)"><g id="svga-group-eyes-left" transform="matrix(0.9999999,0,0,0.9999999,0.000007899999999949614,0.000008690000143474208)"><g id="svga-group-eyesback-left"></g><g id="svga-group-eyesiriswrapper-left"><g id="svga-group-eyesiriscontrol-left" transform="matrix(1,0,0,1,0,0)"><g id="svga-group-eyesiris-left" transform="matrix(1,0,0,1,0,0)"><path id="SvgjsPath15210" d="M83.5 85.1c-1.1-2.1-3.5-2.9-5.7-2.2-2.4.8-4.2 3.3-3.3 5.9.5 1.4 1.6 2.6 3.1 2.9.5.1 1 .1 1.6.1.6.1 1.2 0 1.8-.2 2.6-.9 3.8-4 2.5-6.5z" fill="#ffffff" stroke-width="none" opacity="1"></path><path id="SvgjsPath15211" d="M82.3 85.8c0-.1-.1-.1-.1-.2-.7-1.4-2.3-2-3.8-1.7.5 1.1.9 2.3 1 3.5 0 .2-.3.4-.5.3-.9-.7-1.8-1.6-2.3-2.6-.3.4-.5.8-.7 1.2-.1.3-.1.6-.1.9-.2.9 0 2 .8 2.7.3.3.8.5 1.2.6 1.2.6 2.7.5 3.7-.6.1-.1.1-.2.2-.2.5-.5.8-1.1 1-1.7.2-.9 0-1.6-.4-2.2zm-2.8 6.3h-.4c-.5 0-1.1 0-1.6-.1-1.4-.3-2.7-1.5-3.2-3-.9-2.7 1-5.2 3.4-6.1 2.3-.8 4.8.1 5.9 2.2.6 1.2.7 2.7.2 4-.5 1.3-1.6 2.3-2.9 2.8-.4.1-.9.2-1.4.2zm-.4-.4c.6.1 1.2 0 1.8-.2 1.2-.4 2.2-1.4 2.7-2.6.5-1.2.4-2.6-.2-3.7-1-1.9-3.4-2.8-5.5-2.1-2.3.8-4.1 3.2-3.2 5.7.5 1.4 1.7 2.6 3 2.8.4.1.9.2 1.4.1z" fill="#000000" stroke-width="none" opacity="1"></path></g></g></g><g id="svga-group-eyesfront-left"><path id="SvgjsPath14900" d="M79 72.1c-8.2 0-14.8 6.6-14.8 14.8s6.6 14.8 14.8 14.8 14.8-6.6 14.8-14.8c0-8.1-6.6-14.8-14.8-14.8zm10.3 18.2c-.6.3-5.5 1.7-11.3 1.2s-9.2-1.6-9.2-1.6-2.1-.7-1.9-1.5 2.3-3.5 5.7-4.5 6.8-1 9.5-.3c2.6.6 6.2 2.8 7.3 4.1 1 1.3.5 2.2-.1 2.6z" fill="#ffffff" stroke-width="none" opacity="1"></path><path id="SvgjsPath14901" d="M90 88.1c-1.4-2.7-8.2-6.4-14.3-5.8-7.6.7-9.8 5.6-9.8 5.8-.1.3 0 .6.3.8.3.1.6 0 .8-.3.1-.2 2-4.4 8.9-5.1 5.8-.5 12 3.1 13.2 5.2.1.2.2.5.1.7-1.2 1.5-9.5 2.6-21.6-.5-.3-.1-.6.1-.7.4s.1.6.4.7c5.5 1.4 10.5 2.1 14.5 2.1 4.3 0 7.3-.7 8.3-1.9.1-.4.5-1-.1-2.1zm-2 3.6s-5 3.5-14.3 3.5c-.3 0-.6.3-.6.6s.3.6.6.6c9.7 0 14.8-3.6 15-3.7.3-.2.3-.6.1-.8-.1-.3-.5-.4-.8-.2zm-18.9 3.1c.3.1.6.1.8.1.1 0 .2-.2.1-.3-.6-.3-1.3-.5-1.9-.8s-1.2-.7-1.9-1c-.2-.1-.5.2-.2.4.5.4 1.2.9 1.9 1.2-.3-.1-.4.3-.2.4 1.5.9 3.5 1.7 5.3 1.9.2 0 .3-.2.1-.3-1.3-.6-2.6-1.1-4-1.6z" fill="#000000" stroke-width="none" opacity="1"></path></g></g></g><g id="svga-group-eyes-right-move" transform="matrix(1,0,0,1,-2,-2)"><g id="svga-group-eyes-right" transform="matrix(0.9999999,0,0,0.9999999,0.000012099999992187804,0.000008690000143474208)"><g id="svga-group-eyesback-right"></g><g id="svga-group-eyesiriswrapper-right"><g id="svga-group-eyesiriscontrol-right" transform="matrix(1,0,0,1,0,0)"><g id="svga-group-eyesiris-right" transform="matrix(1,0,0,1,0,0)"><path id="SvgjsPath15212" d="M125.6 85.1c-1.1-2.1-3.5-2.9-5.7-2.2-2.4.8-4.2 3.3-3.3 5.9.5 1.4 1.6 2.6 3.1 2.9.5.1 1 .1 1.6.1.6.1 1.2 0 1.8-.2 2.5-.9 3.7-4 2.5-6.5z" fill="#ffffff" stroke-width="none" opacity="1"></path><path id="SvgjsPath15213" d="M124.4 85.8c0-.1-.1-.1-.1-.2-.7-1.4-2.3-2-3.8-1.7.5 1.1.9 2.3 1 3.5 0 .2-.3.4-.5.3-.9-.7-1.8-1.6-2.3-2.6-.3.4-.5.8-.7 1.2-.1.3-.1.6-.1.9-.2.9 0 2 .8 2.7.3.3.8.5 1.2.6 1.2.6 2.7.5 3.7-.6.1-.1.1-.2.2-.2.5-.5.8-1.1 1-1.7.1-.9 0-1.6-.4-2.2zm-2.8 6.3h-.4c-.5 0-1.1 0-1.6-.1-1.4-.3-2.7-1.5-3.2-3-.9-2.7 1-5.2 3.4-6.1 2.3-.8 4.8.1 5.9 2.2.6 1.2.7 2.7.2 4-.5 1.3-1.6 2.3-2.9 2.8-.4.1-.9.2-1.4.2zm-.4-.4c.6.1 1.2 0 1.8-.2 1.2-.4 2.2-1.4 2.7-2.6.5-1.2.4-2.6-.2-3.7-1-1.9-3.4-2.8-5.5-2.1-2.3.8-4.1 3.2-3.2 5.7.5 1.4 1.7 2.6 3 2.8.3.1.8.2 1.4.1z" fill="#000000" stroke-width="none" opacity="1"></path></g></g></g><g id="svga-group-eyesfront-right"><path id="SvgjsPath14902" d="M121 72.1c-8.2 0-14.8 6.6-14.8 14.8s6.6 14.8 14.8 14.8 14.8-6.6 14.8-14.8c0-8.1-6.6-14.8-14.8-14.8zm9.4 17.7s-3.4 1.1-9.2 1.6c-5.8.5-10.8-.8-11.3-1.2-.6-.3-1.1-1.3 0-2.6s4.7-3.5 7.3-4.1c2.6-.6 6-.7 9.5.3 3.4 1 5.5 3.7 5.7 4.5.1.9-2 1.5-2 1.5z" fill="#ffffff" stroke-width="none" opacity="1"></path><path id="SvgjsPath14905" d="M133.3 88.1c-.1-.2-2.3-5.1-9.8-5.8-6.1-.6-12.9 3.2-14.3 5.8-.5 1-.2 1.7 0 2 1 1.2 4 1.9 8.3 1.9 4 0 9.1-.6 14.5-2.1.3-.1.5-.4.4-.7-.1-.3-.4-.5-.7-.4-12.1 3.2-20.4 2-21.6.5-.1-.2 0-.5.1-.7 1.1-2.2 7.3-5.8 13.2-5.2 6.9.6 8.8 4.9 8.9 5.1.1.3.5.4.8.3.2-.1.3-.4.2-.7zm-7.9 7.1c-9.3 0-14.2-3.5-14.3-3.5-.3-.2-.6-.1-.8.1-.2.3-.1.6.1.8.2.2 5.3 3.7 15 3.7.3 0 .6-.3.6-.6s-.3-.5-.6-.5z" fill="#000000" stroke-width="none" opacity="1"></path></g></g></g><g id="svga-group-facehighlight-single"></g><g id="svga-group-eyebrows-left-move" transform="matrix(1,0,0,1,0,-2)"><g id="svga-group-eyebrows-left-rotate" transform="matrix(0.9978589232386036,-0.06540312923014312,0.06540312923014312,0.9978589232386036,-4.980561983363955,5.273343862021989)"><g id="svga-group-eyebrows-left" transform="matrix(1,0,0,1,0,0)"><path id="SvgjsPath14505" d="M64.29 80.99s3.27-5.78 8.09-8.66c3.38-2.02 13.74-4.87 17.19-3.68 3.45 1.2 2.54 5.21 1.43 5.93s-7.48-.97-9.19-1.24-3.76-.47-5.26-.38c-1.51.09-8.87 3.88-12.26 8.03z" fill="#000000" stroke-width="none" opacity="1"></path></g></g></g><g id="svga-group-eyebrows-right-move" transform="matrix(1,0,0,1,0,-2)"><g id="svga-group-eyebrows-right-rotate" transform="matrix(0.9914448613738098,-0.13052619222005166,0.13052619222005166,0.9914448613738098,-8.82801020502609,16.77755779906054)"><g id="svga-group-eyebrows-right" transform="matrix(1,0,0,1,0,0)"><path id="SvgjsPath14506" d="M136.97 80.65s-3.28-5.49-8.1-8.24c-3.38-1.93-13.64-4.29-17.19-3.57-3.87.78-2.19 4.6-1.07 5.29 1.11.69 7.12.33 8.82.09 1.7-.25 4.77-.94 6.27-.85 1.5.09 7.88 3.33 11.27 7.28z" fill="#000000" stroke-width="none" opacity="1"></path></g></g></g><g id="svga-group-beardwrap" transform="matrix(1.0000001,0,0,1.0000001,-0.000009966301732333704,-0.000013016250619557468)"><g id="svga-group-beard-single-move" transform="matrix(1,0,0,1,0,0)"><g id="svga-group-beard-single" transform="matrix(1.1000003000000003,0,0,1.1000003000000003,-9.96633162620013,-13.016289659103421)"><path id="SvgjsPath15832" d="M122.5 112.9c-1.7-2.3-4.1-2.8-6.5-2.2-.7 0-1.4.1-2.2.2-.6 0-1.1 0-1.7.1-3 .3-5.9 1.4-8.9 1.8-1.5.2-2.9.3-4.3.2-3.8-.8-8.3-1.7-12.3-1.5-.7-.1-1.5-.1-2.2-.2-3.2-.2-6.1.9-7.5 4-.3.6-.5 1.2-.6 1.8-.4.9-.8 1.8-1 3-.7 3.3-.1 7.6 1.5 11.6 0 .1 0 .2.1.3.1 5 3.7 9.5 7.5 12.6 1.6 1.3 3.3 2.3 5.2 3.1 0 .1.1.3.3.4 3.2 1.4 7.1 2.2 10.6 1.5 1.6-.1 3.3-.2 4.9-.5 2.7-.4 5-1.3 7-2.4 6.5-2.6 10.3-13 11.1-18.8.6-4.6 1.9-10.9-1-15zm-6.1 12c-.2 1.1-.5 2.1-.8 3.1-1 1.4-1.8 3-3 4.3l-1.8 1.8c-1.7.8-3.5 1.3-5.6 1.3-.1 0-.1-.1-.2-.1-.1-.4-.3-.9-.4-1.3-.1-.8-.1-1.6.2-2.3s-.7-1.2-1.2-.8c-.8 0-1.6.3-2.4.4h-.1c-.7-.2-1.4 0-2.1 0-1 0-1.9-.2-2.9-.3H96c-.7-.3-1.2.5-1.1 1.1 0 .1.1.3.2.4v.1c0 .9-.2 1.8-.7 2.6-.1.1-.2.1-.4.1-.2.1-.4.1-.5.1-2.7-.2-5.2-1.4-7.2-3.2-.5-.5-1-1-1.4-1.6-1.9-2.5-3.1-5.4-3.4-8.5 0-.1-.1-.3-.1-.4v-3.6c.4-.6.8-1.1 1.3-1.4.8-.5 1.6-.7 2.6-.9.4.1.8.1 1.1.1 1.3 0 2.6.1 3.8.1 1.3.2 2.6.4 3.8.6.7.1 1.5.1 2.2.2.3 0 .7.1 1 .1 3 .2 5.9-.1 8.9-.6 1.4-.3 2.7-.6 4-.9.8-.1 1.5-.2 2.2-.4 1.8.3 3.7.5 5.1 1.7 0 .9.1 1.9.1 2.8-.8 1.6-.8 3.6-1.1 5.4z" fill="#000000" stroke-width="none" opacity="1"></path><path id="SvgjsPath15833" d="M86.5 112.6c-2.1 0-4.3.7-5.6 2.4-.2.2.2.6.4.3 1.4-1.5 3.4-1.7 5.2-2.4.3 0 .3-.3 0-.3zm2.4 1c-2-.2-4 .4-5.8 1.2-.3.2-.1.6.3.5 1.8-.8 3.7-1.1 5.6-1.3.2-.1.1-.4-.1-.4zm3.7-.1c-1.3.3-2.5.8-3.8 1.1-.3.1-.2.5.1.5 1.4-.2 2.7-.4 3.9-1.2.1-.2 0-.4-.2-.4zm2.1.2c-.4.1-.7.2-1 .4l-1.1.5c-.4.2-.1.7.3.5.7-.3 1.5-.5 2.1-1 .1-.2-.1-.5-.3-.4zm1.2.3c-.6.2-1.1.7-1.6 1.1-.2.2 0 .6.2.4.5-.3 1.2-.7 1.6-1.1.2-.3 0-.5-.2-.4zm3.2-.3c-.4.2-.7.6-1.1.8l-1.2.9c-.3.2-.1.8.3.6.8-.5 1.8-1.1 2.2-2 .2-.2 0-.4-.2-.3zm.7 1c-.4.6-.6 1.2-.8 1.9-.1.3.4.5.5.2.3-.7.5-1.2.7-1.9 0-.2-.3-.4-.4-.2zm1.6-.6c0-.3-.4-.3-.5 0-.1.8.1 1.9.9 2.4.2.1.4-.1.3-.3-.3-.7-.7-1.3-.7-2.1zm3.9 1.5c-.6-.2-1.1-.4-1.5-1-.2-.3-.6 0-.4.2.4.7 1.1 1.2 1.9 1.1.2 0 .1-.3 0-.3zm3.9-.5c-1-.1-2.1-.3-2.7-1.2-.3-.4-.9 0-.7.4.8 1 2.2 1.8 3.4 1.2.2-.1.1-.4 0-.4zm2.9-.8c-.5-.1-1-.1-1.5-.3-.6-.2-1.1-.5-1.6-.9-.3-.2-.7.2-.4.4.9.8 2.3 1.6 3.5 1.2.2 0 .2-.3 0-.4zm4-.4c-1.1-.4-2.3-.8-3.3-1.4-.3-.2-.5.2-.2.4 1 .7 2.2 1.4 3.5 1.4.2-.1.2-.4 0-.4zm4 .2c-1.6-.7-3.2-1.2-4.6-2.2-.2-.1-.4.2-.2.3 1.2 1.2 3 2.4 4.7 2.4.2 0 .3-.4.1-.5zm2 .2c-.6-.7-1.4-1.2-2-2-.2-.2-.6.1-.4.3.5.7 1.1 1.1 1.7 1.7.6.7 1 1.4 1.4 2.2.1.2.3.1.3-.1-.2-.7-.5-1.4-1-2.1zm-2.3 1.1c-.3-.4-.8.2-.5.5 1.5 1.9 2.3 4 2.2 6.4 0 .1.2.2.3.1 1-2.5-.3-5-2-7zm.6 7.7c0-.2-.4-.2-.4.1.3 2.5.2 4.9.3 7.4 0 .3.4.4.5.1.4-2.6 0-5.2-.4-7.6zm-.9 5.3c-.1-.3-.5-.2-.5.1.4 2.1.3 4 .2 6.1 0 .2.3.2.3 0 .6-1.9.4-4.1 0-6.2zm-.5-9.4c-.1-.3-.5-.2-.5.1.2 1.5.3 3.1.6 4.6.1.2.4.2.4-.1.1-1.5-.3-3.1-.5-4.6zm-.4 4.8c-.1-.3-.5-.2-.4.1.2.9.3 1.8.5 2.6.1.2.4.1.4-.1 0-.7-.3-1.7-.5-2.6zm0 10.7c0-.3-.5-.3-.5 0 .1 2.4-.3 4.7-.6 7.2 0 .3.3.4.4.1.8-2.4.9-4.9.7-7.3zm-1.7-4.8c-.1-.3-.6-.2-.6.1.2 1.3.2 2.6.4 3.9 0 .3.4.4.5.1.3-1.4.1-2.8-.3-4.1zm-1.2 2.9c0-.2-.4-.2-.4 0 .2 3.4-.1 6.8-.4 10.2 0 .2.2.2.3 0 .9-3.3.9-6.8.5-10.2zm-2.6 8.9c-.2 2-.8 3.7-1.3 5.6-.1.2.2.3.3.1.9-1.7 1.2-3.8 1.4-5.7 0-.2-.4-.2-.4 0zm-2.7.8c-.2 1.9-.8 3.7-1.2 5.6-.1.3.3.4.4.2.8-1.8 1.2-3.8 1.3-5.7 0-.3-.5-.4-.5-.1zm-2.4 3.1c-.3.9-.9 1.8-1.3 2.7-.1.2.2.3.3.2.7-.7 1.1-1.8 1.4-2.8.1-.3-.3-.4-.4-.1zm2-9.3c0-.2-.4-.3-.4-.1-.2 1.8-.7 3.7-.7 5.6 0 .3.4.3.5.1.6-1.8.6-3.8.6-5.6zm1.4-.5c-.1 1.5-.4 3-.3 4.5 0 .2.3.3.4.1.3-1.5.3-3.1.4-4.5 0-.4-.5-.4-.5-.1zm2.4-1.9c-.1-.3-.5-.2-.5.1.1 1.1 0 2.3.1 3.4 0 .3.4.3.5.1.3-1.2.1-2.4-.1-3.6zM81 113c-1 .4-1.6 1.4-2.3 2.2-.7 1-1.5 2-1.6 3.2 0 .3.4.4.5.1 1-1.8 2-3.9 3.7-5.2.2-.1-.1-.4-.3-.3zm-2.1 6.4c-1.6 1.5-2.2 3.6-2.2 5.7 0 .2.3.2.3 0 .6-1.9.9-3.9 2.2-5.5.2-.1-.1-.3-.3-.2zm1.5-2.5c-.3.6-.7 1.2-.9 1.8-.1.1.2.2.2.1.4-.5.7-1.1 1-1.7.1-.2-.2-.4-.3-.2zm-2.1 8.1c-.7 1.8-1.1 3.8-.9 5.7 0 .2.3.1.3 0 .3-1.9.4-3.7.8-5.6.1-.2-.1-.2-.2-.1zm-1.9-4.1c-.6.8-1.2 2-.8 2.9.1.2.4.2.5 0 .1-.4.1-.9.2-1.3.1-.5.3-.9.6-1.4.1-.2-.3-.4-.5-.2zm3.9 1.1c-.2 1.1-.4 2.2-.6 3.2 0 .1.2.2.2 0 .4-1.1.5-2.2.7-3.3 0-.1-.3-.1-.3.1zm-.2 6.9c0-.2-.4-.3-.4-.1-.4 1.9-.6 4-.2 5.9.1.2.4.2.4-.1.2-1.9.1-3.8.2-5.7zm1.6 5.2c0-.3-.5-.2-.5.1.1 1.4.3 2.8.9 4.1.1.2.3.1.3-.1-.2-1.4-.6-2.7-.7-4.1zm.4-6.8c0-.3-.4-.3-.5 0-.2 1.5-.4 3.2.1 4.7.1.2.5.2.5-.1-.1-1.5-.3-3-.1-4.6zm1.4 4.3c0-.2-.5-.2-.4.1.1 1.3.1 2.8.4 4.1.1.2.4.2.4-.1 0-1.4-.2-2.8-.4-4.1zm2.5 12.3c-.7-1.8-1.3-3.4-1.8-5.2-.1-.2-.4-.2-.4.1.1 1.9.7 4 1.9 5.4.1.2.4-.1.3-.3zm2.3 1c-.8-2-1.7-3.8-2.2-5.9-.1-.3-.5-.2-.4.1.4 2.1 1.1 4.2 2.3 5.9.1.3.4.1.3-.1zm-2.1-11.7c0-.2-.3-.3-.4-.1-.5 1.4-.6 3 0 4.4.1.2.5.1.5-.1-.1-1.5-.2-2.8-.1-4.2zM88 135c-.1-.2-.4-.1-.4.1.2 1.4.3 3 .8 4.4.1.2.4.2.4-.1-.1-1.5-.5-3-.8-4.4zm4.6 11.8c-1.5-1.9-2.7-3.6-3-6.1 0-.2-.5-.2-.4.1.2 2.4 1.2 4.9 3.2 6.3.1.1.3-.2.2-.3zm2.4 1.4c-.3-.6-.8-1.1-1.1-1.6-.4-.6-.7-1.1-1-1.8-.1-.3-.5 0-.4.2.5 1.2 1.2 2.7 2.3 3.4.1.2.3 0 .2-.2zm.8-2.9c-.2-.4-.8-.1-.7.3.5 1.2 1 2.6 2 3.5.1.1.4 0 .3-.2-.3-1.3-1.1-2.4-1.6-3.6zm-4.6-9.2c0-.3-.4-.3-.4 0-.1 2 .2 4.2 1.3 5.9.1.2.5.1.4-.2-.6-1.9-1.2-3.7-1.3-5.7zm2.8 2.3c0-.3-.6-.3-.5 0 .1 1.7.5 3.7 1.6 5.1.1.2.4 0 .4-.2-.6-1.7-1.3-3.1-1.5-4.9zm2.5-5.5c.1-.3-.4-.5-.5-.1-.4 1.9-.6 3.9 0 5.8.1.2.4.2.4-.1-.1-1.9-.2-3.7.1-5.6zm1.4 4.4c0-.4-.5-.4-.6 0-.1 2.1.1 4.4 1.2 6.3.2.3.6.1.5-.2-.4-2.1-1-4-1.1-6.1zm1.3 9.8c-.7-1.5-1.5-2.9-2-4.5-.1-.3-.5-.2-.4.1.5 1.6 1.1 3.3 2.2 4.6 0 .2.3 0 .2-.2zm2.1-1.9c0-.2-.3-.2-.3 0-.3 1.1-.3 2.3-.4 3.4 0 .3.5.3.5 0 .1-1.2.3-2.3.2-3.4zm3.1-.7c0-.3-.4-.4-.5-.1-.4 1.2-.5 2.5-1 3.7-.1.4.4.6.6.2.6-1.1 1.1-2.5.9-3.8zm1.9-1.2c-.4 1.4-.8 2.9-1.1 4.4-.1.3.4.4.5.1.4-1.5.8-2.9 1.1-4.4 0-.3-.4-.4-.5-.1zm.8-4.5c-.1-.2-.4-.1-.4.1 0 1 .2 2-.1 3-.1.4.5.5.6.2.3-1 .4-2.3-.1-3.3zm-3.3.7c-.1-.2-.4-.2-.5 0-.2 1-.2 2.2-.2 3.3 0 .4.5.4.6.1.2-1.1.3-2.3.1-3.4zm-2.2.5c0-.2-.3-.3-.4-.1-.3.9-.2 2.1 0 3 .1.3.5.2.5-.1-.1-.9 0-1.9-.1-2.8zm3.9-3.8c0-.3-.5-.3-.5 0 0 .8-.2 1.8 0 2.6.1.2.4.2.4 0 .3-.8.1-1.8.1-2.6zm-2.7-1.4c0-.3-.5-.3-.5 0 0 1.1-.2 2.1-.4 3.1 0 .2.3.3.4.1.6-.9.6-2.1.5-3.2zm-3.1 1.1c-.2 1.1-.5 2.7-.2 3.7.1.2.4.2.4 0 .2-.5.2-1.1.2-1.7 0-.6.1-1.3.2-1.9.1-.3-.5-.4-.6-.1zm-1.1-3.6c0-.3-.4-.3-.5 0-.1 1.1-.2 2.3.1 3.4.1.2.4.2.4-.1.2-1.1 0-2.2 0-3.3zm1.5.2c0-.3-.4-.3-.5 0-.1.7-.1 1.5.3 2.2.1.1.3.1.3-.1 0-.7-.1-1.4-.1-2.1zm1.4.7c0 .3-.1.6-.1.9 0 .1.2.1.2 0 .1-.3.1-.6.1-.9.1-.2-.2-.2-.2 0zm1.9-.2v.8c0 .1.1.1.1 0v-.8c.1-.1-.1-.1-.1 0z" fill="#ffffff" stroke-width="none" opacity="1"></path></g></g></g><g id="svga-group-mustache-single-move" transform="matrix(1,0,0,1,0,0)"><g id="svga-group-mustache-single" transform="matrix(1.0000001,0,0,1.0000001,-0.000010021786891911688,-0.000011459433750360404)"><path id="SvgjsPath15271" d="M127.3 116.8c-2.3-4.4-8.1-5.4-12.7-6-4.1-.8-8.4-1-12.3-1h-2.2c-4.3-.3-8.8 0-13.1.9-1.5-.1-3.1.4-4.7 1-3.1.7-6.3 2.4-8.6 4.2l-.1.1c-.1 0-.1.1-.2.1-.9.6-.1 2.1.9 1.5.3-.2.6-.3.9-.5-.1.6.3 1.2 1.1 1 .8-.2 1.6-.5 2.4-.8 0 .6.5 1.2 1.3.9 1.1-.4 2.1-.9 3.1-1.4-.3.8.2 1.8 1.2 1.4.7-.3 1.4-.6 2-.9.2.4.7.7 1.2.4.1-.1.3-.2.4-.2.1.7 1.1 1.3 1.8.7.3-.3.7-.6 1.1-.9.2.4.7.6 1.1.3.2-.1.3-.2.4-.3.2.5.6.8 1.1.8.2.6 1 .8 1.6.3.4-.3.9-.8 1.4-1.4 0 .2-.1.4-.1.6-.3 1.1 1.2 1.8 1.8.8.1-.2.2-.4.4-.6 0 .2 0 .5.1.7.2.8 1.3 1 1.8.5.2-.2.4-.4.5-.7 0 .2.1.3.1.4.3.9 1.5 1.1 2 .3.2-.2.3-.5.4-.8.1.2.1.3.2.5.4.8 1.8.6 1.9-.2v-.2c.6.7 1.8.6 2.1-.2l1.5 1.2c.8.5 1.6-.3 1.5-1.1 0-.2-.1-.4-.1-.6 0-.2 0-.4-.1-.6 0-.1-.1-.2-.1-.2.6.4 1.2.7 1.6 1.2.6.6 1.6.1 1.6-.6.4.2.8.4 1.1.7.6.5 1.5.3 1.8-.3.8.5 1.6 1.1 2.4 1.2.5.1 1-.1 1.1-.7v-.1c.3.2.6.3.9.3.2 0 .4-.1.5-.2.8.4 1.6.7 2.4.6.4-.1.9-.4.8-.9.6.2 1.2.3 1.8.5.8-.1 1.4-.9 1-1.7z" fill="#000000" stroke-width="none" opacity="1"></path><path id="SvgjsPath15272" d="M84 112.6c-1.8.6-3.4 1.7-4.8 3-.1.1.1.3.2.2 1.5-1.2 3-2.1 4.7-3 .1 0 0-.2-.1-.2zm2.6.3c-1.6.4-3.2 1.4-4.5 2.4-.1.1 0 .4.2.2 1.4-.9 3-1.6 4.5-2.5 0 0-.1-.1-.2-.1zm.5 1.3c-.6.2-1.2.8-1.7 1.2-.2.2.1.4.2.2.5-.4 1.1-.7 1.6-1.2.2-.1 0-.3-.1-.2zm2.2.3c-.7.2-1.3.7-1.8 1.1-.2.2.1.4.3.3.5-.4 1.1-.7 1.7-1.1.1-.1 0-.4-.2-.3zm2-3.8c-1 .2-1.9.5-2.9.8-.2.1-.1.4.1.3 1-.3 2-.5 2.9-.9.2-.1 0-.3-.1-.2zm.9.9c-1 .2-1.9.7-2.7 1.2-.2.1 0 .3.2.3.9-.4 1.8-.7 2.7-1.2 0-.1-.1-.3-.2-.3zm1.5.6c-.9.3-1.8.7-2.6 1.1-.2.1 0 .3.1.3.9-.4 1.8-.7 2.6-1.2.1-.1 0-.3-.1-.2zm1.5.5c-.7.3-1.3.6-1.9 1-.2.1 0 .3.1.2.6-.3 1.3-.6 1.8-1 .1-.1.1-.3 0-.2zm1 .4c-.6.1-1.2.3-1.7.5-.2.1 0 .4.2.3.5-.2 1.1-.4 1.6-.6 0 0 0-.2-.1-.2zm-2.5 1.6c-.7.3-1.2.7-1.8 1.2-.2.1 0 .4.2.3.6-.4 1.3-.7 1.8-1.2.1-.2 0-.3-.2-.3zm.8.9c-.5.1-.8.5-1.2.8-.2.2.1.4.3.3.3-.3.7-.5 1.1-.8.1-.2-.1-.4-.2-.3zm2.2-.4c-.5.4-1 .9-1.4 1.3-.2.2.1.5.3.3.5-.5.9-.9 1.3-1.4.1-.1-.1-.2-.2-.2zm2.2-.1c-.2.4-.3 1-.2 1.4 0 .1.2.1.3 0 .1-.4.2-.9.3-1.3.1-.3-.3-.4-.4-.1zm1.9.3c0-.2-.3-.2-.4 0 0 .5-.1 1 0 1.5 0 .1.3.1.3 0 .1-.5.1-1 .1-1.5zm1.3.4c0 .5-.1 1-.1 1.5 0 .1.1.1.2 0 .2-.5.1-1 .2-1.5 0-.1-.3-.1-.3 0zm1.8.4v1c0 .2.2.2.3 0v-1c0-.2-.3-.2-.3 0zm3.2-.9c0-.2-.4-.1-.3.1.1.6.2 1.2.4 1.7 0 .1.2.1.2 0l-.3-1.8zm1.3.5c-.1-.1-.3 0-.2.1.1.3.2.6.4.9.1.1.2 0 .2-.1-.1-.3-.3-.6-.4-.9zm2.2.6c-.3-.3-.6-.5-.8-.9-.1-.2-.4 0-.3.2.2.4.5.8 1 .9.1 0 .1-.1.1-.2zm1.9-.6c-.2-.4-.6-.6-.8-.9-.2-.2-.5.1-.3.3.3.3.6.6.9.8.1.1.3-.1.2-.2zm2 .5c-.3-.5-.8-1-1.2-1.4-.2-.2-.5.1-.3.3.4.5.8 1 1.3 1.3.1.1.2-.1.2-.2zm1.7.1c-.3-.5-.7-.9-.9-1.4-.1-.2-.5 0-.4.2.2.5.6 1.1 1.1 1.4.1.1.3-.1.2-.2zm2.2.4c-.2-.4-.6-.8-1-1.2-.2-.2-.5.1-.3.3.3.4.6.8 1.1 1.1.2.1.3-.1.2-.2zm1.6.1-.6-.9c-.2-.2-.6 0-.4.2.2.3.4.6.7.9.1.1.3-.1.3-.2zm2.1-.3c-.3-.4-.7-.6-1-.9-.2-.2-.6.1-.3.3.3.3.7.6 1.1.8.1.1.3 0 .2-.2zm1.7-.6c-.3-.6-1.1-1.2-1.6-1.6-.2-.1-.4.2-.2.3.3.2.6.5.9.8.2.2.5.5.8.7 0 .1.1 0 .1-.2zm1.7-.1c-.3-.5-.8-1-1.3-1.4-.2-.2-.5.1-.3.3.4.5.8 1 1.3 1.4.2.1.4-.1.3-.3zm-27.1-3c-.1.4-.2.8-.1 1.2 0 .1.3.2.3 0 .1-.4.1-.7.2-1.1.1-.2-.3-.3-.4-.1zm1.8.2c0-.2-.4-.3-.4-.1-.1.6-.1 1.2.3 1.6.1.1.3 0 .2-.1 0-.4-.1-.9-.1-1.4zm1.3.2c-.1-.3-.5-.2-.4.1.1.5.2 1 .4 1.5.1.1.3.1.3-.1 0-.5-.1-1-.3-1.5zm1.4.1c-.1-.2-.5 0-.4.2.2.4.3 1 .7 1.3.1.1.2 0 .2-.1 0-.5-.3-.9-.5-1.4zm1.7-.1c-.1-.3-.5-.2-.4.1.1.4.2.9.4 1.3.1.1.3.1.3-.1-.1-.4-.2-.8-.3-1.3zm1.6-.6c-.1-.2-.4-.1-.3.1.2.5.3 1.1.6 1.5.1.1.3.1.3-.1-.1-.5-.4-1-.6-1.5zm1.4.2c-.1-.2-.5-.1-.4.1.2.5.3 1 .6 1.4.1.1.2 0 .2-.1.1-.4-.2-.9-.4-1.4zm1.5 0c-.1-.2-.5-.1-.4.1.1.4.3.9.8 1.1.1 0 .2-.1.2-.2-.2-.3-.5-.6-.6-1zm1.6 0c-.2-.2-.5 0-.4.2.2.4.5.8.8 1.1.1.1.4 0 .3-.2-.2-.3-.5-.7-.7-1.1zm3.5.7c-.4-.4-1-.7-1.5-1-.2-.1-.4.2-.2.3.5.3 1 .7 1.5 1 .2.1.4-.1.2-.3zm2 .3c-.4-.4-.9-.8-1.3-1.2-.2-.2-.5.1-.3.3.5.4.9.8 1.4 1.1.2.1.3-.1.2-.2zm1.1-.6c-.2-.1-.4.2-.2.3.4.2.6.5 1 .8.1.1.2 0 .2-.1-.2-.4-.6-.7-1-1zm1.7-.6c-.2-.1-.5.2-.2.4.4.2.6.5.8.8.1.2.3 0 .3-.2 0-.5-.5-.8-.9-1zm2 .4c-.2-.2-.5 0-.4.2.2.4.4.7.7 1 .1.1.2 0 .2-.1-.1-.4-.3-.7-.5-1.1zM96.4 111c-.3-.2-.6 0-.8.2-.1.1.1.3.2.2.2-.2.4-.2.7-.2 0-.1 0-.2-.1-.2zm1.2.2c-.3.2-.6.5-.9.7-.2.1.1.4.2.3.3-.2.7-.5.9-.7.1-.2 0-.4-.2-.3zm1.7.3c-.4.3-.7.7-1 1.1-.1.2.1.4.2.2.3-.4.7-.7.9-1.2.1-.1 0-.2-.1-.1zm1.2-.3-.6.9c-.1.2.2.4.3.2.2-.3.3-.6.5-.9.1-.2-.1-.3-.2-.2zm1.3.5c-.1-.2-.3-.1-.3.1.1.4.2.8.3 1.1 0 .1.2.1.2-.1 0-.3-.2-.7-.2-1.1zm1.8-.2c-.1-.2-.4-.1-.4.1.1.4.2.8.4 1.1.1.2.3 0 .3-.1 0-.4-.1-.8-.3-1.1zm2 .8c-.1-.3-.3-.6-.3-.9 0-.2-.3-.2-.3 0 .1.4.2.8.5 1.1.1 0 .2-.1.1-.2zm1.7-.1c-.2-.2-.4-.4-.4-.7-.1-.2-.4-.1-.3.1.1.4.3.7.6.8.1 0 .1-.2.1-.2zm1.3-1.3c-.1-.2-.5 0-.4.2.2.3.4.7.7 1 .1.1.3 0 .3-.2-.1-.3-.4-.7-.6-1zm2.6.7-.3-.3c-.1-.2-.4-.1-.3.1.1.2.2.4.5.5.1-.1.2-.3.1-.3zm2.4.3c-.1-.1-.1-.2-.2-.3 0-.3-.4-.2-.4.1.1.2.2.4.4.5.2 0 .3-.2.2-.3zm-21.8 2.6c-.2.1-.4.2-.7.3-.2.1 0 .3.1.2.2-.1.4-.2.6-.4.2 0 .1-.1 0-.1zm-1.8 1.3c-.2.2-.4.5-.6.7-.1.1.1.3.2.2.2-.2.4-.5.6-.8.1-.1-.1-.2-.2-.1zm-12.4-1.2c-.7.4-1.3.9-1.9 1.5-.1.1.1.3.2.2.6-.6 1.2-1 1.8-1.5.1-.1 0-.2-.1-.2zm3.6-1.6c-.5.2-1.1.4-1.6.7-.2.1 0 .4.2.3.5-.2 1-.4 1.5-.7.1-.1 0-.4-.1-.3zm6.3-1.7c-.3.1-.6.3-.8.6-.1.2.1.4.2.2.2-.2.4-.5.7-.7.1 0 0-.2-.1-.1zm-8.7 4.5-1.2.6c-.2.1 0 .4.2.3.4-.2.8-.4 1.1-.7.1-.1 0-.3-.1-.2zm2.8.5c-.3.1-.5.3-.8.5-.2.1 0 .5.2.3.3-.2.5-.3.8-.6.1-.1 0-.2-.2-.2zm35.8-3.9c-.1-.3-.4-.5-.6-.7-.2-.2-.4.1-.3.3.2.2.4.4.7.6.2.1.3 0 .2-.2zm-17.3-2c-.2.1-.4.2-.7.3-.2.1-.1.4.1.3.2-.1.4-.1.7-.3.2-.1.1-.4-.1-.3zm-5.6.1c-.2.1-.4.2-.7.3-.2.1-.1.4.2.3l.6-.3c.2-.1.1-.3-.1-.3z" fill="#ffffff" stroke-width="none" opacity="1"></path></g></g><g id="svga-group-nose-single-move" transform="matrix(1,0,0,1,-0.5,1)"><g id="svga-group-nose-single" transform="matrix(1.1500005000000004,0,0,1.1500005000000004,-14.911364859413183,-14.722981891994522)"><path id="SvgjsPath15640" d="M107.63 99.2c1.29 1 2.64 2.88 2 4.05-.65 1.17-5.7 2.82-9.1 3.29-3.41.47-9.98-.82-11.04-2-1.06-1.17-.06-2.94.41-3.88s4.4-8.69 5.46-10.04 4.11-2.06 6.69 1.06c2.59 3.12 5.58 7.52 5.58 7.52z" fill="#ffffff" stroke-width="none" opacity="1"></path><path id="SvgjsPath15641" d="M107.86 98.84c-.48-.37-.95.45-.48.81 1.48 1.13 2.98 3.12.69 4.31-1.34.7-2.91 1.17-4.34 1.6-3.34 1-6.52.84-9.88.01-.18-.04-.4-.09-.64-.14.28.01.57.05.84.01.4-.05.36-.1.7-.15.23-.04.38-.34.31-.54 0 .01-.11-.27-.12-.28-.03-.13-.04-.26-.11-.39-.18-.33-.5-.63-.77-.89-.64-.61-1.63-1.09-2.54-.98-.63.07-1.19.39-1.36 1.04-.14.52.04 1.04.41 1.4-.68-.34-1.16-.82-1.12-1.51.08-1.45 1.24-2.99 1.89-4.25 1.57-3.02 3.14-6.03 4.71-9.05.28-.54-.53-1.02-.81-.48-1.15 2.21-2.3 4.41-3.45 6.62-.97 1.86-2.09 3.69-2.89 5.63-.55 1.33-.63 2.87.78 3.68.77.44 1.72.6 2.56.83 1.06.29 2.12.56 3.2.76 4.37.82 8.34-.11 12.39-1.79 1.1-.46 2.25-1.1 2.43-2.39.24-1.72-1.18-2.93-2.4-3.86z" fill="#000000" stroke-width="none" opacity="1"></path><path id="SvgjsPath15642" d="M103.34 105.26c.57.04 1.22-.13 1.76-.27.6-.16 1.32-.39 1.85-.71 1-.6.62-2.31-.61-2.26-.8.03-1.76.4-2.39.91-.32.26-.57.52-.79.86-.06.15-.07.16-.03.05l-.14.17c-.12.15-.18.3-.24.49-.11.4.21.73.59.76z" fill="#000000" stroke-width="none" opacity="1"></path></g></g><g id="svga-group-hair-front" transform="matrix(1.0000001,0,0,1.0000001,-0.000010024998104540828,-0.000004635000280472923)"><path id="SvgjsPath15765" d="M53.2 71.9S56 77 56.8 84.7c.3 2.8 3.1 3.5 3.1 3.5s.6-20.4 2.6-23.8c2-3.4 1.1-9.6 3.1-14.1s6.1-11.5 9.2-11.7 17.6 9.2 25.8 9.2 23.7-9.2 25.7-9.2 7.1 6.9 8.6 10.6c1.6 3.7 1.4 17.5 2.4 18.4 1 1 1.8 4.7 2.2 7.8s.7 12.6.7 12.6 2.7-.5 3.5-3.8.4-9.9 1.4-11.1 2-2.4 2-4.9.2-15.7-1.1-20c-1.4-4.3-4.7-13.5-7.6-15.3 0 0 .4-3.5-3.3-7.1-3.7-3.5-10.4-8.6-20.4-10.4 0 0-10.4-3.7-19.2-2.9s-12.7-8-12.7-8-1.2 5.9.8 9.8c0 0-7.6-5.1-8.6-9 0 0-.4 4.1 1.2 8.2 0 0-3.3-2.5-4.1-5.3 0 0-1.6 3.3-.6 6.9 0 0-3.5-.6-4.1-2.9 0 0-5.1 8.2-3.5 18.4 0 0-2.5 1.8-4.1 5.3s-3.9 11-4.3 15.7c-.7 4.7-2.3 20.3-2.3 20.3z" fill="#ffffff" stroke-width="none" opacity="1"></path><path id="SvgjsPath15766" d="M146.9 47.9c-1.2-3.9-4.4-12.9-7.6-15.5v-.5c.1-.2.1-.5-.1-.6-.3-1.5-1.1-3.8-3.5-6.1-6-5.7-13-9.2-20.8-10.6-1.1-.4-10.9-3.7-19.6-3-8 .7-11.6-7.1-11.7-7.5-.2-.4-.6-.6-1-.6s-.8.4-.9.8c0 .2-.7 3.8-.1 7.4-2.4-1.9-5.3-4.6-5.8-6.6-.1-.5-.6-.8-1-.8-.5 0-.9.4-.9.9 0 .1-.2 2.3.3 5-.6-.7-1-1.5-1.2-2.2-.1-.4-.5-.7-.9-.7s-.8.2-1 .6c-.1.1-1.3 2.7-1 5.9-.8-.4-1.7-.9-1.9-1.8-.1-.4-.4-.7-.8-.7-.4-.1-.8.1-1 .5-.2.3-5.1 8.4-3.8 18.5-.9.7-2.7 2.5-4 5.3-1.6 3.6-4 11.1-4.4 16-.4 4.6-1.9 20.2-1.9 20.3 0 .2 0 .4.1.6 0 0 2.7 5 3.5 12.4.4 3.4 3.7 4.3 3.9 4.3h.3c.2 0 .4-.1.6-.2.2-.2.4-.5.4-.8.3-8.1 1.1-21 2.5-23.3.3-.6.6-1.3.8-2 .1-.1.1-.2.1-.3.4-1.5.6-3.1.8-4.9.3-2.4.5-5 1.4-7 2.3-5.2 6.1-10.9 8.3-11.1 1-.1 4.3 1.5 7.5 3 5.8 2.8 13.1 6.2 18.3 6.2 5.8 0 14.7-4.2 20.6-7 2.2-1 4.6-2.2 5.1-2.2 1.3.1 6 6 7.7 10 .8 1.9 1.1 6.9 1.4 11 .4 5.6.5 7.1 1.2 7.7.5.5 1.4 3.2 1.9 7.3.4 3.1.6 12.4.6 12.5 0 .3.1.6.4.7.2.2.5.3.8.2.1 0 3.4-.6 4.3-4.5.4-1.6.5-3.7.6-5.8.1-1.7.3-4.4.6-4.9 1-1.2 2.2-2.6 2.2-5.5v-1c-.1-4.3 0-15.3-1.3-19.4zm-1 7.5c-1.5 4.3-3.4 9.1-8 10.6-.2-1.3-.3-3.6-.5-5.5-.1-.9-.1-1.9-.2-2.8 3.6-2.4 6.2-6 7.4-10.2.1.3.2.7.3 1 .6 1.5.8 4.1 1 6.9zm-1.9-9.9c-.1.1-.2.2-.2.3-.9 4.2-3.2 7.8-6.7 10.4-.2-2.1-.4-4.1-.7-5.6 3-1.3 5.5-3.5 7.1-6.3.2.4.3.8.5 1.2zM137.3 32c-2.4 2-5.1 3.5-8 4.6-.7-4.1.8-8.1 3.9-11 .4.3.7.6 1.1 1 2.3 2.2 2.9 4.3 3 5.4zM126 37.5c-.1 0-.2.1-.2.1-1.5-2.4-2.5-5-2.8-7.8-.2-2.6.2-7.8 3.1-9.2 2.1 1.2 4.2 2.6 6.1 4.2-3.4 3.1-4.9 7.6-4.1 12.2-.7.2-1.4.4-2.1.5zm-13.5-21.7c-6 6.5 1.7 19.4 6.7 24.7-1.1.5-2.3 1.1-3.5 1.6-5.6-3.3-10.6-7.6-14.4-12.9-1.3-1.7-9.2-15.3-6.4-15.7h.5c6.5-.6 13.8 1.4 17.1 2.3zm-20.1-2.4c3.3 12.3 11.1 22.7 22 29.3-.9.4-1.7.8-2.6 1.1-14.4-3.7-24.8-15-27.5-29.1.1-.3.2-.6 0-.9l-.3-.6c-.3-1.7-.4-3.5-.4-5.3 1.7 2.2 4.6 4.9 8.8 5.5zm-9.6 1.7c.1.1.2.1.3.1 2 9.8 7.5 18.3 15.5 23.9-10.2-5.9-18-15.3-21.9-26.7 0-.1-.1-.2-.2-.3-.3-1.1-.5-2.1-.7-3 2.6 3 6.5 5.6 7 6zm-7.5-.8c.2.2.5.2.8.2 5.6 14.7 17.7 26 32.8 30.5-2.3.8-4.4 1.4-6.4 1.7C85.8 42.3 73.9 28.5 72 11.3c0-.1 0-.3.1-.4 1.3 1.9 3.1 3.3 3.2 3.4zm-4.2 1.8h.5c3.1 14 12.9 25.4 26.4 30.4-4.3-.8-9.8-3.3-14.3-5.5 0-.1-.1-.1-.2-.1-9.8-5.4-15.8-15.4-16.1-26.5 1.5 1.3 3.5 1.6 3.7 1.7zm-4.8.1c.7 8.6 4.7 16.5 11.2 22-1.2-.5-2.1-.7-2.8-.7h-.4c-4.1-1.5-8.1-3.6-9.9-7.5-.7-5.5.7-10.6 1.9-13.8zm-8.9 29c1.5 2.9 3.7 5.3 6.5 7.1-.4 1.7-.6 3.5-.8 5.2-.1 1.3-.3 2.6-.5 3.8-2.9-1.8-5.1-4.3-6.6-7.4.1-.9.1-1.6.2-2.2.1-1.9.6-4.2 1.2-6.5zm2.2 31.5c-2.4-3.4-4-7.2-4.7-11.3.1-.7.1-1.3.2-2 1.3 2.5 3.1 4.6 5.2 6.5-.3 2-.5 4.4-.7 6.8zm-1.8 7.8c-.8-6.9-3-11.7-3.6-12.9 0-.4.1-1.3.2-2.5 1 3.4 2.7 6.5 5 9.4-.2 3.2-.4 6.2-.4 7.9-.5-.3-1.1-.9-1.2-1.9zm2.7-16.2c-2.3-2.1-4-4.6-5.2-7.4.2-1.7.3-3.4.5-4.9 1.6 2.7 3.8 4.9 6.5 6.5-.2.5-.3.9-.6 1.3-.5.9-.9 2.5-1.2 4.5zm4.2-18.4c-.2.4-.3.8-.4 1.2-2.9-1.8-5.1-4.5-6.4-7.7l.9-3c2 2.6 4.7 4.5 7.8 5.5-1.1 2.1-1.8 3.8-1.9 4zm2.6-5.1c-3.3-1-6-3-8-5.9.4-1 .7-1.9 1.1-2.7 1.1-2.6 2.8-4.1 3.5-4.6 1.9 3.3 5.3 5.3 8.9 6.7-2.1 1.3-4 4-5.5 6.5zm53.1-4.8c-4.4-4.5-13-17.8-6.6-23.7.2.1.4.1.4.1h.2c3.7.6 7.2 1.8 10.4 3.5-1.9 1.4-2.6 4.1-2.9 6.4-.6 4.2.5 8.3 2.7 11.8-1 .4-2.3 1-4.2 1.9zm7.6-1.7c3.5-1 6.6-2.6 9.4-4.8l.3.3c.7.4 1.4 1.4 2.2 2.7-2 2.8-4.7 4.9-7.9 6.2-1.2-1.9-2.7-3.5-4-4.4zm4.9 5.4c3.1-1.3 5.7-3.3 7.8-6 .8 1.5 1.6 3.2 2.3 5.1-1.4 3-3.8 5.3-6.9 6.6-.1-.2-.1-.4-.2-.6-.5-1.3-1.7-3.2-3-5.1zm5.3 23.4c4.1-1.3 6.3-4.8 7.8-8.6 0 1.6.1 3.1.1 4.5-1.1 3.4-3.4 6.1-6.4 7.8-.4-1.4-.9-2.9-1.5-3.7zm4.5 16.9c-.3 1.3-1 2.1-1.6 2.5 0-1.4-.1-3.6-.2-5.7.9-.5 1.7-1.1 2.4-1.9-.2 1.9-.3 3.8-.6 5.1zm3.4-15.8c0 2.1-.8 3.1-1.8 4.3-.5.6-.7 1.9-.9 3.8-.5 1.3-1.4 2.4-2.6 3.2-.1-1.6-.2-3.1-.3-4.1-.1-.8-.3-1.9-.5-3.1 2.6-1.4 4.7-3.5 6.1-6.1v2z" fill="#000000" stroke-width="none" opacity="1"></path></g><g id="svga-group-glasses-single-move" transform="matrix(1,0,0,1,0,0)"><g id="svga-group-glasses-single" transform="matrix(1,0,0,1,0,0)"></g></g></g></g></g><rect id="svga-credit-rect" width="200" height="15" x="0" y="185" fill="#ecf0f1" opacity="0.5" style="display: none;"></rect><text id="svga-credit-text" font-family="Avenir Next, Roboto, Helvetica, Arial, sans-serif" font-size="10px" text-anchor="start" font-weight="400" size="10px" anchor="start" weight="400" fill="#333333" x="33.40447998046875" y="182.60824704170227" style="display: none;"><tspan id="SvgjsTspan12532" dy="13" x="33.40447998046875">Created on AvatarMaker.com</tspan></text></g></svg>