<svg xmlns="http://www.w3.org/2000/svg" version="1.1" width="600px" height="600px" viewBox="0 0 200 200" style="overflow:hidden!important;"><defs id="SvgjsDefs8905"></defs><g id="svga-group-wrapper"><g id="svga-group-backs-single"><path id="SvgjsPath9343" d="M0 0h200v200H0V0z" fill="#ecf0f1" stroke-width="none" opacity="1"></path></g><g id="svga-group-humanwrap-move" transform="matrix(1,0,0,1,0,-6)"><g id="svga-group-humanwrap" transform="matrix(1.0000001,0,0,1.0000001,-0.00001001898728247852,-0.00001196730271146862)"><g id="svga-group-hair-back-move" transform="matrix(1,0,0,1,0,0)"><g id="svga-group-hair-back" transform="matrix(1.0200003000000002,0,0,1.0001003000000002,-1.9718196616901622,-0.009167052460881564)"><path id="SvgjsPath10245" d="M81.9 28.3s36.8-8.4 46.4-4.5 16.8 9 21 21.9 2.1 38.6 1.8 52.4 4.5 26.9 4.5 26.9c-4.2-4.8-7.5-13.8-7.5-13.8 0 9.6 9.3 28.7 9.3 28.7-5.7-3.3-15.3-18-15.3-18 0 5.7 4.8 18.3 4.8 18.3-4.5-3.3-9.9-11.7-9.9-11.7.6 6 3.6 18.6 3.6 18.6-4.5-3.6-10.5-16.2-10.5-16.2 0 4.5.9 12.6.9 12.6-4.2-4.5-5.1-8.1-5.1-8.1.3 8.7 3.9 19.5 3.9 19.5-3-2.7-6.9-6-6.9-6s.9 7.8.9 9c0 7.2-10.8-14.1-10.8-14.1 0 3.3 1.8 15.6 1.8 15.6-3-3.6-10.2-11.7-10.2-11.7l-.6 12-8.4-10.8-2.7 7.2-2.1-6.9-5.7 9.9-.9-12.9-10.5 9.3.9-9-5.1 7.8c1.2-4.2 2.4-13.8 2.4-13.8l-7.8 8.1c2.1-4.5 3.3-16.8 3.3-16.8-3 6-12.3 13.8-12.3 13.8.9-3.9 1.2-8.7 1.2-8.7l-7.8 7.5c5.4-8.7 6.3-18.6 6.3-18.6L44 134.2c4.8-9.3 6.3-21.6 6.3-21.6-3.3 4.8-10.2 9-10.2 9 8.7-9.6 8.4-33.8 9.9-59.9 1.5-26 13.8-29.3 13.8-29.3l18.1-4.1z" fill="#ffffff" stroke-width="none" opacity="1"></path><path id="SvgjsPath10246" d="M104 160.7c-.3 0-.6-.1-.8-.4l-7.3-9.4-2.1 5.5c-.2.4-.5.7-1 .6-.4 0-.8-.3-.9-.7l-1.4-4.7-4.5 7.9c-.2.4-.7.6-1.1.5s-.7-.5-.8-.9l-.8-10.8-9 7.9c-.3.3-.8.3-1.1.1-.4-.2-.6-.6-.5-1l.5-4.9-2.8 4.4c-.3.4-.8.6-1.3.4-.4-.2-.7-.7-.5-1.2.7-2.6 1.5-7.4 2-10.6l-5.7 5.9c-.3.4-.9.4-1.3.1-.4-.3-.5-.8-.3-1.2 1.2-2.6 2.2-8.2 2.7-12.2-3.9 5.1-9.8 10.1-10.1 10.4-.3.3-.8.3-1.2.1s-.5-.7-.5-1.1c.5-2 .8-4.2.9-5.9l-5.9 5.6c-.4.4-.9.4-1.3.1s-.5-.9-.2-1.3c3.6-5.8 5.2-12.3 5.8-15.7l-8.8 6.9c-.4.3-.9.3-1.3 0s-.5-.8-.2-1.2c3.1-6 4.8-13.4 5.6-17.7-3.5 3.6-7.9 6.3-8.1 6.4-.4.3-1 .2-1.3-.2s-.3-.9 0-1.3c7.1-7.9 8-26.3 9-47.7.2-3.8.4-7.7.6-11.6 1.5-26.5 14-30.1 14.5-30.2l18-4.2c1.5-.3 37.2-8.4 47-4.4s17.3 9.3 21.5 22.5c3.5 10.6 2.7 29.9 2.1 44-.1 3.2-.2 6.2-.3 8.8-.3 13.4 4.4 26.4 4.4 26.6.2.5 0 1-.4 1.2s-.9.2-1.3-.2c-1.7-2-3.3-4.6-4.6-7.1 2.5 9.4 7.9 20.8 8 20.9.2.4.1.9-.2 1.2s-.8.4-1.2.1c-4.1-2.4-10-10.3-13.3-14.9 1.2 5.9 4.2 13.8 4.2 13.9.2.4 0 .9-.3 1.2-.4.3-.8.3-1.2 0-2.7-2-5.7-5.7-7.7-8.4 1.1 6.2 3 14.2 3 14.3.1.4-.1.8-.4 1.1-.4.2-.8.2-1.2-.1-3-2.4-6.5-8.3-8.7-12.4.3 3.9.7 7.9.7 7.9 0 .4-.2.8-.6 1-.4.2-.9.1-1.1-.2-1.2-1.3-2.1-2.5-2.8-3.5 1.1 7 3.3 13.8 3.3 13.9.1.4 0 .9-.4 1.2-.4.2-.9.2-1.2-.1-1.6-1.5-3.5-3.1-4.9-4.3.3 2.4.6 5.8.6 6.6 0 .5 0 2.1-1.3 2.4-.6.2-2.5.6-9.1-11.7.5 4.6 1.4 10.5 1.4 10.6.1.4-.2.9-.6 1.1-.4.2-.9.1-1.2-.3-2.1-2.5-6.2-7.2-8.5-9.8l-.5 9.5c0 .4-.3.8-.7.9.2-.2.1-.2 0-.2zm9-17.9c.4 0 .7.2.9.5 3.1 6.1 7.1 13 8.9 14.7v-.1c0-.8-.5-5.8-.9-8.9 0-.4.2-.8.5-1 .4-.2.8-.1 1.1.1 0 0 2 1.7 4.3 3.7-1.1-3.9-2.7-10.5-2.9-16.3 0-.5.4-1 .9-1 .5-.1 1 .3 1.1.7 0 0 .6 2.2 2.8 5.2-.3-2.8-.6-6.7-.6-9.4 0-.5.3-.9.8-1s.9.1 1.1.5c0 .1 4 8.4 7.8 13.2-.9-4.2-2.4-11-2.8-15.1 0-.5.2-.9.7-1 .4-.1.9 0 1.2.4 0 .1 3.3 5.1 6.7 8.8-1.4-4.2-3.5-11-3.5-14.8 0-.4.3-.8.7-1 .4-.1.9 0 1.1.4.1.1 6.5 9.9 11.7 15.1-2.7-6.2-7.6-18.1-7.6-25.3 0-.5.3-.9.8-1s.9.2 1.1.6c0 .1 1.5 4.1 3.7 8.1-1.3-5.2-2.8-12.9-2.6-20.9.1-2.6.2-5.6.3-8.8.6-13.9 1.3-33-2-43.3-4-12.4-10.8-17.3-20.4-21.2-9.2-3.7-45.4 4.4-45.8 4.5l-18 4.2c-.1 0-11.6 3.5-13 28.4-.2 3.9-.4 7.8-.6 11.6-.9 18.4-1.6 34.6-6.5 44.3 1.9-1.5 4.1-3.5 5.5-5.6.3-.4.7-.5 1.2-.4s.7.6.6 1.1c-.1.4-1.2 9.6-4.7 18.1l7.6-5.9c.3-.2.7-.3 1.1-.1.3.2.6.6.5 1 0 .3-.6 6.6-3.6 13.6l3.4-3.3c.3-.3.7-.4 1.1-.2.4.2.6.6.6 1 0 .2-.2 2.9-.7 5.9 2.9-2.7 7.9-7.5 9.8-11.5.2-.4.7-.6 1.2-.5s.8.6.7 1.1c0 .4-.7 7.5-2 12.9l4.8-5c.3-.3.8-.4 1.2-.2.4.2.6.6.6 1 0 .3-.6 4.5-1.3 8.6l2.2-3.3c.3-.4.7-.5 1.2-.4.4.2.7.6.7 1l-.6 6.4 8.6-7.6c.3-.3.7-.3 1-.2.4.1.6.5.6.9l.7 9.6 4.1-7c.2-.3.6-.5 1-.5s.7.3.8.7L93 153l1.7-4.4c.1-.3.4-.6.8-.6.4-.1.7.1.9.4l6.7 8.6.5-9.3c0-.4.3-.8.7-.9.4-.1.8 0 1.1.3.1.1 4.6 5.2 8 9.1-.5-3.9-1.3-10.1-1.3-12.3 0-.5.3-.9.8-1-.1-.1 0-.1.1-.1z" fill="#000000" stroke-width="none" opacity="1"></path></g></g><g id="svga-group-humanbody-back"><path id="SvgjsPath9296" d="M77.6 118.3c0 19.3 3.4 44.1-10 51.9-13.4 7.9-31.9 11.3-37.8 22s-4.4 25.3-4.4 25.3h149.3s.7-18.9-5.1-26.4c-8.1-10.4-27.8-15.5-37.7-20.9s-13.4-25.1-13.4-52.4l-40.9.5z" fill="#ffffff" stroke-width="none" opacity="1"></path></g><g id="svga-group-chinshadow-single"></g><g id="svga-group-humanbody-front"><path id="SvgjsPath9297" d="M175.8 218.7H24.4l-.1-1c-.1-.6-1.5-15.1 4.5-26 4.1-7.4 13.5-11.3 23.5-15.5 5-2.1 10.2-4.3 14.8-6.9 10.6-6.2 10.1-23.9 9.6-41-.1-3.5-.2-6.8-.2-10v-1.1l43.2-.4v1.1c0 29.9 4.2 46.7 12.8 51.4 2.9 1.6 6.7 3.2 10.8 4.9 10 4.1 21.3 8.8 27.2 16.3 6.1 7.7 5.4 26.4 5.4 27.1l-.1 1.1zm-149.3-2.2h147.1c0-4.1-.2-18.5-4.9-24.6-5.5-7-16.6-11.6-26.3-15.6-4.1-1.7-8-3.3-11-5-5.1-2.8-8.7-8.9-10.9-18.7-2-8.4-2.9-19.4-3-33.5l-38.6.4c0 2.8.1 5.7.2 8.8.5 17.8 1 36.1-10.7 43-4.7 2.7-9.9 4.9-15 7.1-9.6 4-18.7 7.8-22.4 14.5-5 8.6-4.7 20.1-4.5 23.6z" fill="#000000" stroke-width="none" opacity="1"></path><path id="SvgjsPath9298" d="M93.9 153.8c-.5 1.8-.4 3.4.5 5.2.8 1.6 2.1 2.7 3.9 2.9.4 0 .7-.5.5-.8-1.6-2.2-3.5-4.2-3.7-7.1 0-.7-1-.9-1.2-.2z" fill="#000000" stroke-width="none" opacity="1"></path><path id="SvgjsPath9299" d="M112.5 187.5c8.8.5 18.1-.7 26.6-2.9.7-.2.6-1.4-.2-1.3-8.8 1.1-17.7 2-26.5 3.3-.5.1-.3.9.1.9z" fill="#000000" stroke-width="none" opacity="1"></path><path id="SvgjsPath9300" d="M63.1 182.5c3.8.9 7.6 1.9 11.5 2.8 3.6.8 7.4 2 11.1 2.1.7 0 .8-.9.2-1.2-3.5-1.4-7.5-1.7-11.2-2.5-3.8-.7-7.5-1.3-11.3-2-.5 0-.7.7-.3.8z" fill="#000000" stroke-width="none" opacity="1"></path></g><g id="svga-group-clothes-single"><path id="SvgjsPath10360" d="M100.6 206.74s-20.29-15.02-23.95-18.87c-3.65-3.86-12.18-17.45-12.18-17.45s-15.22 6.49-20.9 8.52c-5.68 2.03-13.8 8.12-15.42 12.38-1.62 4.26-4.26 8.52-4.46 16.84-.2 8.32 0 10.55 0 10.55H176.7s.61-15.63-2.44-21.72c-3.04-6.09-1.62-8.12-14.21-15.42-12.58-7.31-23.54-10.35-23.54-10.35s-10.35 15.83-16.84 21.31c-6.49 5.48-19.07 14.21-19.07 14.21z" fill="#ffffff" stroke-width="none" opacity="1"></path><path id="SvgjsPath10361" d="M175.16 196.55c-.57-1.13-.97-2.1-1.35-3.04-1.67-4.04-2.77-6.72-13.24-12.8-12.55-7.29-23.67-10.42-23.78-10.45a.978.978 0 0 0-1.1.42c-.1.16-10.35 15.77-16.65 21.09-5.59 4.71-15.86 11.95-18.41 13.74-3.33-2.48-20.03-14.94-23.24-18.33-3.54-3.74-11.97-17.16-12.06-17.3-.26-.42-.79-.58-1.24-.39-.15.07-15.26 6.51-20.85 8.5-5.81 2.07-14.25 8.32-16.02 12.96-.31.8-.65 1.6-1 2.43-.18-.05-.37.22-.2.35.01.01.02.02.04.03-1.53 3.58-3.2 7.68-3.36 14.36-.2 8.28 0 10.57 0 10.67.05.51.48.91 1 .91h153c.54 0 .98-.42 1-.96.03-.64.58-15.95-2.54-22.19zm-34.96-23.07c-.23.38-.55.9-.93 1.51-.76-.83-1.63-1.61-2.48-2.37.05-.08.11-.16.15-.23.67.21 1.79.56 3.26 1.09zm-4.31 6.79c-.01-.01-.01-.03-.02-.04-.83-.7-1.78-1.38-2.77-1.83-.15-.07-.33.12-.19.25.8.74 1.79 1.36 2.75 1.86.03.01.05.01.08.01-.9 1.37-1.87 2.8-2.87 4.21-.54-1.3-1.21-2.55-1.89-3.8 1.1-1.49 2.11-2.91 3-4.18.88.77 1.75 1.62 2.7 2.33-.26.38-.52.78-.79 1.19zm-9.9 12.87c-.6-1.15-1.45-2.22-2.2-3.27.45-.5.91-1.02 1.38-1.56.35.55.69 1.1 1.05 1.64.38.59.75 1.22 1.18 1.79-.26.28-.52.56-.77.81-.19.18-.41.38-.64.59zm1.75-1.79c-.37-.62-.82-1.22-1.23-1.8-.36-.52-.72-1.04-1.09-1.55.37-.44.75-.89 1.12-1.34.24.51.51 1.01.81 1.49.4.63.87 1.4 1.47 1.92-.36.45-.72.88-1.08 1.28zm1.4-1.66c-.42-.62-.97-1.17-1.37-1.79-.34-.53-.64-1.07-.92-1.63.39-.48.78-.97 1.16-1.46.66 1.23 1.36 2.45 2.14 3.6-.33.44-.67.86-1.01 1.28zm1.27-1.62c-.61-1.26-1.33-2.48-2.07-3.67.36-.46.72-.93 1.07-1.4.65 1.22 1.33 2.45 2.11 3.58-.37.51-.74 1.01-1.11 1.49zm1.42-1.91c-.62-1.22-1.36-2.41-2.1-3.58.31-.42.63-.83.93-1.24.59 1.29 1.18 2.59 1.92 3.78-.25.35-.5.7-.75 1.04zm5.12-7.52c-.86-.81-1.83-1.52-2.73-2.25.37-.52.71-1.02 1.02-1.47.82.83 1.72 1.6 2.71 2.17-.31.49-.65 1.01-1 1.55zm1.2-1.87c-.91-.73-1.81-1.45-2.64-2.25.39-.58.73-1.08 1.01-1.5.81.82 1.62 1.64 2.5 2.36-.27.43-.56.89-.87 1.39zm-14.65 13.41c.7 1.08 1.38 2.24 2.22 3.2-.41.36-.87.75-1.38 1.16-.74-.95-1.6-1.84-2.39-2.74.5-.5 1.02-1.05 1.55-1.62zm-3.18 3.12c.42-.36.87-.76 1.32-1.2.74.91 1.47 1.9 2.28 2.77-1.99 1.56-4.56 3.38-7.31 5.23-.41-.94-.89-1.85-1.38-2.75 1.86-1.43 3.63-2.83 5.09-4.05zm-11.43 11.83c-.28-.79-.67-1.55-1.07-2.3.61-.44 1.24-.9 1.89-1.37.41.79.94 1.55 1.6 2.12-.82.53-1.63 1.05-2.42 1.55zm2.87-1.84c-.61-.69-1.18-1.36-1.64-2.13.84-.61 1.69-1.25 2.55-1.89.35.9.83 1.85 1.5 2.45-.8.53-1.61 1.05-2.41 1.57zm2.82-1.84c-.27-.47-.65-.9-.93-1.37-.21-.36-.4-.73-.57-1.11.59-.44 1.18-.88 1.76-1.33.43.92.87 1.85 1.37 2.72-.54.37-1.08.73-1.63 1.09zm-50.5-29.79c1.84 2.9 8.61 13.48 11.84 16.89 3.67 3.88 23.25 18.38 24.08 18.99.34.25.81.26 1.17.02.06-.04 2.71-1.88 6.19-4.39.35.75.73 1.5 1.18 2.18-4.19 2.66-7.77 4.83-9.08 5.62-3.44-2.23-22.71-14.84-26.18-19.14-3.39-4.2-11.46-15.48-13.51-18.35 1.88-.79 3.44-1.45 4.31-1.82zm-5.56 3.52c-.43-.22-.86-.43-1.29-.63.22-.09.43-.18.65-.27.15.2.37.51.64.9zm-33.93 39.87c.5.46 1.09.86 1.6 1.26.59.47 1.19.96 1.81 1.4h-3.37c-.02-.56-.04-1.42-.04-2.66zm151.14 2.66H28.6c-.7-.66-1.47-1.25-2.22-1.84-.56-.45-1.15-1-1.79-1.39 0-.54 0-1.15.01-1.82 2.11 1.55 4.28 3.08 6.54 4.35.13.07.28-.11.16-.21-2.09-1.73-4.39-3.26-6.69-4.72.01-.92.03-1.95.05-3.1 2.41 1.49 5.02 3.11 7.64 4.1.16.06.22-.17.11-.26-2.28-1.72-5.15-3.11-7.74-4.37 0-.09 0-.17.01-.26.02-.83.07-1.62.13-2.37 2.29 1.42 4.64 3.02 7.11 3.98.14.05.27-.16.15-.25-2.14-1.67-4.78-2.88-7.22-4.15.09-.85.2-1.66.33-2.42 1.17.69 2.35 1.38 3.54 2.04 1.37.77 2.74 1.69 4.24 2.18.12.04.23-.13.13-.22-1.21-1.01-2.71-1.68-4.1-2.43-1.24-.67-2.49-1.33-3.74-1.98.19-1 .42-1.92.67-2.79 2.07 1.31 4.26 2.74 6.51 3.62.16.06.31-.19.17-.29-1.94-1.51-4.32-2.66-6.54-3.79.2-.63.4-1.24.62-1.82 2.19 1.39 4.56 2.82 6.93 3.73.23.09.32-.24.16-.37-2.04-1.5-4.56-2.72-6.91-3.81.27-.7.55-1.37.82-2.02.71.51 1.43 1 2.19 1.45 1.3.78 2.77 1.74 4.28 2.01.19.03.28-.19.13-.3-1.21-.92-2.77-1.47-4.09-2.23-.78-.45-1.54-.93-2.28-1.42.04-.09.08-.19.12-.28.3-.71.59-1.4.86-2.08 1.88 1.33 4 2.59 6.02 3.53.25.12.43-.2.21-.36-1.79-1.37-3.94-2.66-6.01-3.7.24-.61.64-1.26 1.15-1.94 1.95 1.16 4.1 2.36 6.23 3.13.19.07.28-.2.13-.3-1.86-1.24-4.08-2.24-6.15-3.11.42-.53.9-1.07 1.44-1.61 2.12 1.58 4.44 3.02 6.93 3.89.26.09.43-.32.19-.45-2.32-1.21-4.61-2.36-6.81-3.75.46-.45.96-.9 1.48-1.35 1.99 1.49 4.16 2.89 6.48 3.7.27.09.43-.31.19-.45-2.09-1.22-4.21-2.31-6.22-3.63.59-.49 1.22-.97 1.85-1.44 1.8 1.39 3.77 2.72 5.85 3.49.22.08.32-.24.15-.36-1.76-1.26-3.67-2.32-5.51-3.49.7-.5 1.42-.98 2.14-1.42 2.36 1.28 4.87 2.82 7.41 3.58.16.05.23-.17.11-.26-2.06-1.5-4.68-2.54-7.06-3.6.81-.49 1.61-.93 2.39-1.32 2.14 1.26 4.3 2.59 6.57 3.52.23.09.33-.25.16-.37-1.9-1.32-4.07-2.37-6.17-3.42.65-.3 1.27-.57 1.86-.78.32-.11.68-.25 1.06-.39 2.07 1.3 4.17 2.63 6.37 3.64.27.12.47-.22.23-.4-1.86-1.32-3.92-2.41-5.96-3.48.89-.34 1.89-.73 2.96-1.16 1.16.59 2.34 1.14 3.49 1.74 1.46.77 2.86 1.68 4.35 2.39.18.08.41-.15.23-.29-2.11-1.67-4.81-3.12-7.43-4.1.78-.31 1.59-.64 2.41-.98 2.51 1.68 5.08 3.51 7.8 4.7.16.07.38-.14.21-.27-2.2-1.83-4.84-3.26-7.37-4.69l1.68-.69c2.61 1.75 5.29 3.66 8.1 4.92.19.08.43-.16.24-.31-2.3-1.89-5.06-3.38-7.69-4.88.66-.27 1.32-.55 1.96-.81.99.56 1.97 1.15 2.96 1.72 3.1 4.33 9.33 12.96 12.22 16.54 3.99 4.95 26.24 19.3 27.18 19.91a1.002 1.002 0 0 0 1.05.02c.92-.55 22.54-13.52 28.08-19.06 5.07-5.07 12.57-17.29 14.07-19.77 4.35 1.64 10.67 4.33 17.44 8.26 9.89 5.74 10.83 8.03 12.4 11.83.38.93.82 1.98 1.41 3.17 2.49 4.91 2.45 16.78 2.38 20.24z" fill="#000000" stroke-width="none" opacity="1"></path></g><g id="svga-group-head" transform="matrix(1,0,0,1,0,0)"><g id="svga-group-ears-left-move" transform="matrix(1,0,0,1,-1.5,0)"><g id="svga-group-ears-left" transform="matrix(1,0,0,1,0,0)"><path id="SvgjsPath9204" d="M60.8 80.5c-.2-.3-3.3-4.3-5.9-6.7s-3.4-2.4-4.6-.9c-1.3 1.5-2.9 9.1-2.5 12.4.4 3.4 3.6 8.7 5.2 11.7 1.7 3 3.3 6.7 5.1 6.3 1.9-.4 4.4-4.6 5.7-7.7 1.2-3.1.6-10.9-3-15.1z" fill="#ffffff" stroke-width="none" opacity="1"></path><path id="SvgjsPath9205" d="M52.9 98.9c-.3-.5-.5-1-.8-1.4l-.6-1c-1.8-3.1-4.4-7.8-4.8-11-.4-3.5 1.2-11.4 2.7-13.2.6-.7 1.2-1.3 2.2-1.4 1.2-.1 2.3.7 3.9 2.2 1.6 1.4 3.5 3.6 5.8 6.5l.2.3c3.9 4.6 4.5 12.8 3.2 16.1-1.1 3-3.9 7.8-6.4 8.3h-.5c-2 .1-3.4-2.6-4.9-5.4zm7.2-17.8s-.1-.1-.2-.3c-2.2-2.8-4.1-5-5.6-6.3-1.2-1.1-2.1-1.7-2.4-1.7-.2 0-.4.2-.8.7-1 1.2-2.6 8.4-2.3 11.7.3 2.8 2.8 7.3 4.5 10.3l.6 1c.3.5.5 1 .8 1.4.9 1.7 2.5 4.6 3.3 4.4 1.2-.2 3.6-3.7 4.9-7.1 1.1-2.8.4-10.2-2.8-14.1z" fill="#000000" stroke-width="none" opacity="1"></path><path id="SvgjsPath9206" d="M50 87c-.3-2.3-.5-7.8.8-9.6 2.2-2.9 6 6.4 6.9 9.3 0 .1.1.2.1.3.2.3-.1.7-.4.6-.4-.2-.9-.6-1.3-.8-1.1-.5-1.6.5-1.3 1.8.4 1.8 1.4 2.9 2.2 4.3.1.2 0 .4-.2.3-1.6-.9-3.5-4.5-3.1-6.6.3-2 1.9-1.8 3.1-.8-.7-1.7-1.5-3.3-2.5-4.8-.6-.9-1.2-2-2.2-2.2-1.2-.2-1 .3-1.2 1.8-.8 4.8-.3 10.4 2.5 14.5.1.1 0 .2-.1.1-1.7-2.3-2.9-4.9-3.3-8.2z" fill="#000000" stroke-width="none" opacity="1"></path></g></g><g id="svga-group-ears-right-move" transform="matrix(1,0,0,1,1.5,0)"><g id="svga-group-ears-right" transform="matrix(1,0,0,1,0,0)"><path id="SvgjsPath9207" d="M139.2 80.5c.2-.3 3.3-4.3 5.9-6.7 2.6-2.4 3.4-2.4 4.6-.9s2.9 9.1 2.5 12.4c-.4 3.4-3.6 8.7-5.2 11.7-1.7 3-3.3 6.7-5.1 6.3s-4.4-4.6-5.7-7.7c-1.2-3.1-.6-10.9 3-15.1z" fill="#ffffff" stroke-width="none" opacity="1"></path><path id="SvgjsPath9208" d="M142.1 104.4h-.5c-2.5-.5-5.2-5.4-6.4-8.3-1.3-3.4-.7-11.5 3.2-16.1l.2-.3c2.3-2.9 4.2-5.1 5.8-6.5 1.6-1.4 2.7-2.2 3.9-2.2 1 .1 1.6.7 2.2 1.4 1.5 1.8 3.1 9.7 2.7 13.2-.4 3.2-3 7.9-4.8 11l-.6 1c-.3.5-.5.9-.8 1.4-1.4 2.7-2.8 5.4-4.9 5.4zm-2.2-23.3c-3.2 3.9-3.9 11.2-2.8 14.1 1.3 3.4 3.7 6.9 4.9 7.1.8.2 2.4-2.7 3.3-4.4.3-.5.5-1 .8-1.4l.6-1c1.7-3 4.2-7.5 4.5-10.3.4-3.3-1.3-10.5-2.3-11.7-.4-.4-.6-.7-.8-.7-.3 0-1.2.5-2.4 1.7-1.5 1.4-3.3 3.5-5.6 6.3 0 .2-.1.3-.2.3z" fill="#000000" stroke-width="none" opacity="1"></path><path id="SvgjsPath9209" d="M150 87c.3-2.3.5-7.8-.8-9.6-2.2-2.9-6 6.4-6.9 9.3 0 .1-.1.2-.1.3-.2.3.1.7.4.6.4-.2.9-.6 1.3-.8 1.1-.5 1.6.5 1.3 1.8-.4 1.8-1.4 2.9-2.2 4.3-.1.2 0 .4.2.3 1.6-.9 3.5-4.5 3.1-6.6-.3-2-1.9-1.8-3.1-.8.7-1.7 1.5-3.3 2.5-4.8.6-.9 1.2-2 2.2-2.2 1.2-.2 1 .3 1.2 1.8.8 4.8.3 10.4-2.5 14.5-.1.1 0 .2.1.1 1.7-2.3 2.9-4.9 3.3-8.2z" fill="#000000" stroke-width="none" opacity="1"></path></g></g><g id="svga-group-faceshape-wrap" transform="matrix(1.0200003000000002,0,0,1.0001003000000002,-1.9980297716327868,-0.008420184311304979)"><g id="svga-group-faceshape-single"><path id="SvgjsPath10614" d="M142.4 53.6c-2.3-11.4-15.1-28.8-42.4-28.8S63.6 38.2 59.6 48.1c-2.5 6.2-3.2 15.2-3.4 19.7 0 0 1.8 34.5 3.2 41 1.4 6.6 26.7 30.4 29.5 32.8 2.8 2.3 9.8-1.4 9.8-1.4s4.7 5.6 10.8.9c6.1-4.7 29-26.7 30.4-30.4s4-42.9 4-42.9c-.1-3.2-.4-8.9-1.5-14.2z" fill="#ffffff" stroke-width="none" opacity="1"></path><path id="SvgjsPath10615" d="M104.5 144.2c-2.6 0-4.7-1.3-6.1-2.5-2.1 1-7.5 3.2-10.3.9-1.8-1.5-28.3-26.1-29.9-33.4-1.4-6.6-3.1-39.8-3.2-41.2v-.2c.2-4.8.9-13.8 3.4-20.1 6.6-16.2 20.1-24 41.5-24 12.3 0 23.2 3.6 31.3 10.4 6.3 5.2 10.9 12.5 12.2 19.3 1.1 5.5 1.3 11.4 1.4 14.4-.3 4-2.6 39.4-4 43.2-1.6 4.2-25.3 26.7-30.8 30.9-1.9 1.7-3.8 2.3-5.5 2.3zm-5.6-5.4.6.7c.4.5 4.2 4.6 9.2.8 6.4-4.9 28.8-26.6 30-29.9 1-2.6 2.9-26.9 3.9-42.5 0-3-.3-8.7-1.4-14-1.3-6.4-5.6-13.1-11.5-18-7.7-6.5-18-9.9-29.9-9.9-20.3 0-33.2 7.4-39.4 22.6-2.4 5.9-3.1 14.6-3.3 19.3.1 1.5 1.8 34.5 3.1 40.8 1.3 6 25.5 29.1 29.1 32.1 1.6 1.3 6.1-.2 8.6-1.5l1-.5z" fill="#000000" stroke-width="none" opacity="1"></path></g></g><g id="svga-group-mouth-single-move" transform="matrix(1,0,0,1,0,3)"><g id="svga-group-mouth-single" transform="matrix(1,0,0,1,0,0)"><path id="SvgjsPath9432" d="M112.4 120.4c-.5-.3-1.7-.4-2.1-.6-6.8-4.2-15-4-21.6.5-.3.1-2 .1-2.3.2-.6.2 1.4.8 2 .6 2.1-.7 4.1-1.1 6.4-1.1 1.9 0 3.6 1.2 5.5 1.1 1.6-.1 3.1-1.1 4.7-1.3 2.2-.2 3.5-.5 5.4.7.4.4 2.5.3 2-.1zm-6.4-1.5c-.1-.2-.2-.4-.2-.6.2.1.3.1.5.2v.1c.1.1.1.2.1.4-.2-.1-.3-.2-.4-.1zm-5.7-1.6h.7v.1c.2.8.4 1.6.7 2.4-.2 0-.3.1-.4.1-.3-.9-.6-1.8-1-2.6zm1.2 0c.2 0 .3 0 .5.1v.1c.2.7.4 1.3.6 2-.1 0-.3.1-.4.1-.3-.7-.5-1.5-.7-2.3zm1 .2c.2 0 .4.1.5.1.2.6.4 1.1.6 1.7-.2.1-.4.1-.6.2-.1-.8-.3-1.4-.5-2zm1.1.2c.2 0 .3.1.5.1v.1c.1.4.2.8.4 1.2-.1 0-.3.1-.4.1-.1-.6-.3-1.1-.5-1.5zm1.1.2c.2.1.4.1.6.2v.2c.1.2.2.4.2.7-.2 0-.3 0-.5.1-.1-.5-.2-.8-.3-1.2zm2.1.7c.3.1.7.3 1 .4-.3-.1-.6-.1-.9-.1-.1-.1-.1-.2-.1-.3zm-10.8.6c-.2-.5-.4-.9-.7-1.4.1 0 .3-.1.4-.1l.6 1.5H96zm-.9-.1c-.2-.3-.3-.7-.5-1.1.1 0 .2-.1.3-.1l.6 1.2h-.4zm-.8 0c-.2-.3-.3-.5-.5-.8.1 0 .2-.1.3-.1.1.3.3.6.4.9h-.2zm-.9 0-.3-.6c.1 0 .2-.1.3-.1.1.2.2.4.4.7h-.4zm-.9.2c-.1-.1-.2-.3-.2-.4.1-.1.3-.1.4-.2.1.2.2.3.2.5-.2 0-.3 0-.4.1zm-1.1.2c0-.1-.1-.1-.1-.2.2-.1.3-.2.5-.2.1.1.1.2.2.3-.2 0-.4 0-.6.1zm4.9-1.9c.2 0 .3-.1.5-.1.2.7.5 1.4.7 2-.2-.1-.4-.1-.5-.1-.3-.6-.5-1.2-.7-1.8zm.9-.1c.1 0 .3 0 .4-.1.3.8.7 1.6 1 2.4-.2 0-.4-.1-.6-.1-.2-.7-.5-1.5-.8-2.2zm.9-.2h.6v.1l.9 2.7c-.2 0-.3 0-.5-.1-.3-.9-.6-1.8-1-2.7zm-7.2 2.2s0 .1 0 0c-.1.1-.2.2-.3.2.1-.1.2-.1.3-.2zm9.3.5c-.3-.9-.7-1.8-.9-2.7h.6v.1c.4.8.7 1.7 1 2.6h-.7zm8.2 2.6c-5.6 2-11.6 2-17.2-.2-.3-.1-.4.4-.1.5 5.6 2.2 11.8 2.2 17.4.2.3-.1.2-.6-.1-.5z" fill="#000000" stroke-width="none" opacity="1"></path></g></g><g id="svga-group-eyes-left-move" transform="matrix(1,0,0,1,0,-1)"><g id="svga-group-eyes-left" transform="matrix(1,0,0,1,0,0)"><g id="svga-group-eyesback-left"></g><g id="svga-group-eyesiriswrapper-left"><g id="svga-group-eyesiriscontrol-left" transform="matrix(1,0,0,1,0,0)"><g id="svga-group-eyesiris-left" transform="matrix(1,0,0,1,0,0)"><path id="SvgjsPath10047" d="M79.2 82.9c2.4 0 4.3 1.9 4.3 4.2s-1.9 4.2-4.3 4.2-4.3-1.9-4.3-4.2 1.9-4.2 4.3-4.2z" fill="#000000" stroke-width="none" opacity="1"></path><path id="SvgjsPath10048" d="M75.5 84.9c-.4 1-.5 2.2-.2 3.1.3 1 .9 1.9 1.8 2.3s1.9.6 2.8.3c.9-.2 1.8-.8 2.2-1.6.5-.8.7-1.8.5-2.8-.1-.5-.3-.9-.6-1.3s-.7-.7-1.1-1-.9-.4-1.4-.6c-.5-.1-1-.1-1.5-.1-.1 0-.3 0-.4.1s-.3.1-.4.1c-.2.1-.5.2-.7.3-.3.4-.7.8-1 1.2.2-.5.6-.9 1-1.3.2-.2.5-.3.7-.5.1-.1.3-.1.4-.2.1-.1.3-.1.4-.1.6-.1 1.2-.2 1.8-.1.6.1 1.1.2 1.7.5s1.1.6 1.4 1.1c.4.5.7 1.1.8 1.7.3 1.2.1 2.5-.6 3.6-.3.5-.8 1-1.3 1.4-.5.3-1.1.6-1.7.7-1.2.2-2.5.1-3.5-.6-.5-.3-.9-.8-1.3-1.3-.3-.5-.5-1.1-.6-1.7-.1-1.1.1-2.3.8-3.2z" fill="#ffffff" stroke-width="none" opacity="1"></path><path id="SvgjsPath10049" d="M79.2 92c-.9 0-1.8-.3-2.6-.8-.5-.3-1-.8-1.3-1.3-.3-.5-.5-1.1-.6-1.7-.2-1.2.1-2.4.7-3.4l.6-.9.2-.2v.1c.1-.1.2-.2.3-.2.2-.2.5-.4.8-.5.1-.1.3-.1.4-.2.1-.1.3-.1.4-.1.6-.2 1.2-.2 1.8-.1.6.1 1.2.3 1.7.5.6.3 1.1.7 1.5 1.2.4.5.7 1.1.8 1.7.3 1.2.1 2.6-.6 3.7-.3.6-.8 1.1-1.3 1.4s-1.1.6-1.8.8c-.3-.1-.7 0-1 0zM75 86.5c-.1.5-.1 1.1 0 1.6.1.6.3 1.1.6 1.6s.7.9 1.2 1.2c1 .6 2.2.8 3.4.6.6-.1 1.2-.4 1.6-.7s.9-.8 1.2-1.3c.6-1 .8-2.3.5-3.5-.1-.6-.4-1.2-.8-1.6-.4-.4-.8-.8-1.4-1.1-.5-.2-1-.4-1.6-.5-.5-.1-1.1 0-1.7.1-.1 0-.3.1-.4.1-.1.1-.3.1-.4.2-.2.1-.3.2-.5.3.2-.1.4-.2.6-.2.1 0 .3-.1.4-.1.1 0 .3-.1.4-.1.6-.1 1.1-.1 1.6.1.6.2 1.1.4 1.5.6.4.3.8.6 1.1 1 .3.4.5.9.6 1.4.2 1 0 2-.5 2.9-.5.9-1.4 1.5-2.4 1.7-1 .2-2.1.1-3-.4S75.4 89 75.1 88c-.1-.4-.1-.9-.1-1.5zm.6-1.5c-.4 1-.4 2-.1 3 .3 1 .9 1.8 1.7 2.2.8.4 1.8.6 2.7.3.9-.2 1.7-.8 2.2-1.6.5-.8.7-1.8.5-2.7-.1-.5-.3-.9-.5-1.2-.3-.4-.6-.7-1-.9-.4-.2-.8-.4-1.4-.6-.4-.1-.9-.1-1.5-.1-.1 0-.2 0-.4.1-.1 0-.2.1-.4.1-.2.1-.4.2-.7.3-.4.3-.7.7-1.1 1.1z" fill="#000000" stroke-width="none" opacity="1"></path><path id="SvgjsPath10050" d="M79.3 84.8c-1.3-.3-2.9 1.3-2.6 2.6.1.3.4.6.7.6.4 0 .6-.1.8-.4.1-.1.1-.2.2-.3 0 0 .1-.1.1-.2V87l.1-.1.1-.1s.2-.1.1-.1c.2-.1.4-.1.6-.2.8-.3.7-1.5-.1-1.7z" fill="#ffffff" stroke-width="none" opacity="1"></path></g></g></g><g id="svga-group-eyesfront-left"><path id="SvgjsPath9959" d="M79 72.1c-8.2 0-14.8 6.6-14.8 14.8s6.6 14.8 14.8 14.8 14.8-6.6 14.8-14.8c0-8.1-6.6-14.8-14.8-14.8zm10.3 18.2c-.6.3-5.5 1.7-11.3 1.2s-9.2-1.6-9.2-1.6-2.1-.7-1.9-1.5 2.3-3.5 5.7-4.5 6.8-1 9.5-.3c2.6.6 6.2 2.8 7.3 4.1 1 1.3.5 2.2-.1 2.6z" fill="#ffffff" stroke-width="none" opacity="1"></path><path id="SvgjsPath9960" d="M90 88.1c-1.4-2.7-8.2-6.4-14.3-5.8-7.6.7-9.8 5.6-9.8 5.8-.1.3 0 .6.3.8.3.1.6 0 .8-.3.1-.2 2-4.4 8.9-5.1 5.8-.5 12 3.1 13.2 5.2.1.2.2.5.1.7-1.2 1.5-9.5 2.6-21.6-.5-.3-.1-.6.1-.7.4s.1.6.4.7c5.5 1.4 10.5 2.1 14.5 2.1 4.3 0 7.3-.7 8.3-1.9.1-.4.5-1-.1-2.1zm-2 3.6s-5 3.5-14.3 3.5c-.3 0-.6.3-.6.6s.3.6.6.6c9.7 0 14.8-3.6 15-3.7.3-.2.3-.6.1-.8-.1-.3-.5-.4-.8-.2zm-18.9 3.1c.3.1.6.1.8.1.1 0 .2-.2.1-.3-.6-.3-1.3-.5-1.9-.8s-1.2-.7-1.9-1c-.2-.1-.5.2-.2.4.5.4 1.2.9 1.9 1.2-.3-.1-.4.3-.2.4 1.5.9 3.5 1.7 5.3 1.9.2 0 .3-.2.1-.3-1.3-.6-2.6-1.1-4-1.6z" fill="#000000" stroke-width="none" opacity="1"></path></g></g></g><g id="svga-group-eyes-right-move" transform="matrix(1,0,0,1,0,-1)"><g id="svga-group-eyes-right" transform="matrix(1,0,0,1,0,0)"><g id="svga-group-eyesback-right"></g><g id="svga-group-eyesiriswrapper-right"><g id="svga-group-eyesiriscontrol-right" transform="matrix(1,0,0,1,0,0)"><g id="svga-group-eyesiris-right" transform="matrix(1,0,0,1,0,0)"><path id="SvgjsPath10051" d="M121.3 82.9c2.4 0 4.3 1.9 4.3 4.2s-1.9 4.2-4.3 4.2-4.3-1.9-4.3-4.2 2-4.2 4.3-4.2z" fill="#000000" stroke-width="none" opacity="1"></path><path id="SvgjsPath10052" d="M117.6 84.9c-.4 1-.5 2.2-.2 3.1.3 1 .9 1.9 1.8 2.3s1.9.6 2.8.3c.9-.2 1.8-.8 2.2-1.6.5-.8.7-1.8.5-2.8-.1-.5-.3-.9-.6-1.3s-.7-.7-1.1-1-.9-.4-1.4-.6c-.5-.1-1-.1-1.5-.1-.1 0-.3 0-.4.1s-.3.1-.4.1c-.2.1-.5.2-.7.3-.3.4-.7.8-1 1.2.2-.5.6-.9 1-1.3.2-.2.5-.3.7-.5.1-.1.3-.1.4-.2.1-.1.3-.1.4-.1.6-.1 1.2-.2 1.8-.1.6.1 1.1.2 1.7.5s1.1.6 1.4 1.1c.4.5.7 1.1.8 1.7.3 1.2.1 2.5-.6 3.6-.3.5-.8 1-1.3 1.4-.5.3-1.1.6-1.7.7-1.2.2-2.5.1-3.5-.6-.5-.3-.9-.8-1.3-1.3-.3-.5-.5-1.1-.6-1.7 0-1.1.2-2.3.8-3.2z" fill="#ffffff" stroke-width="none" opacity="1"></path><path id="SvgjsPath10053" d="M121.3 92c-.9 0-1.8-.3-2.6-.8-.5-.3-1-.8-1.3-1.3-.3-.5-.5-1.1-.6-1.7-.2-1.2.1-2.4.7-3.4l.6-.9.2-.2v.1c.1-.1.2-.2.3-.2.2-.2.5-.4.8-.5.1-.1.3-.1.4-.2.1-.1.3-.1.4-.1.6-.2 1.2-.2 1.8-.1.6.1 1.2.3 1.7.5.6.3 1.1.7 1.5 1.2.4.5.7 1.1.8 1.7.3 1.2.1 2.6-.6 3.7-.3.6-.8 1.1-1.3 1.4s-1.1.6-1.8.8c-.3-.1-.6 0-1 0zm-4.2-5.5c-.1.5-.1 1.1 0 1.6.1.6.3 1.1.6 1.6s.7.9 1.2 1.2c1 .6 2.2.8 3.4.6.6-.1 1.2-.4 1.6-.7s.9-.8 1.2-1.3c.6-1 .8-2.3.5-3.5-.1-.6-.4-1.2-.8-1.6-.4-.4-.8-.8-1.4-1.1-.5-.2-1-.4-1.6-.5-.5-.1-1.1 0-1.7.1-.1 0-.3.1-.4.1-.1.1-.3.1-.4.2-.2.1-.3.2-.5.3.2-.1.4-.2.6-.2.1 0 .3-.1.4-.1.1 0 .3-.1.4-.1.6-.1 1.1-.1 1.6.1.6.2 1.1.4 1.5.6.4.3.8.6 1.1 1 .3.4.5.9.6 1.4.2 1 0 2-.5 2.9-.5.8-1.3 1.5-2.3 1.7-1 .2-2.1.1-3-.4s-1.6-1.4-1.9-2.4c-.1-.4-.2-.9-.2-1.5zm.6-1.5c-.4 1-.4 2-.1 3 .3 1 .9 1.8 1.7 2.2.8.4 1.8.6 2.7.3.9-.2 1.7-.8 2.2-1.6.5-.8.7-1.8.5-2.7-.1-.5-.3-.9-.5-1.2-.3-.4-.6-.7-1-.9-.4-.2-.8-.4-1.4-.6-.4-.1-.9-.1-1.5-.1-.1 0-.2 0-.4.1-.1 0-.2.1-.4.1-.2.1-.4.2-.7.3l-1.1 1.1z" fill="#000000" stroke-width="none" opacity="1"></path><path id="SvgjsPath10054" d="M121.4 84.8c-1.3-.3-2.9 1.3-2.6 2.6.1.3.4.6.7.6.4 0 .6-.1.8-.4.1-.1.1-.2.2-.3 0 0 .1-.1.1-.2V87l.1-.1.1-.1s.2-.1.1-.1c.2-.1.4-.1.6-.2.8-.3.7-1.5-.1-1.7z" fill="#ffffff" stroke-width="none" opacity="1"></path></g></g></g><g id="svga-group-eyesfront-right"><path id="SvgjsPath9961" d="M121 72.1c-8.2 0-14.8 6.6-14.8 14.8s6.6 14.8 14.8 14.8 14.8-6.6 14.8-14.8c0-8.1-6.6-14.8-14.8-14.8zm9.4 17.7s-3.4 1.1-9.2 1.6c-5.8.5-10.8-.8-11.3-1.2-.6-.3-1.1-1.3 0-2.6s4.7-3.5 7.3-4.1c2.6-.6 6-.7 9.5.3 3.4 1 5.5 3.7 5.7 4.5.1.9-2 1.5-2 1.5z" fill="#ffffff" stroke-width="none" opacity="1"></path><path id="SvgjsPath9964" d="M133.3 88.1c-.1-.2-2.3-5.1-9.8-5.8-6.1-.6-12.9 3.2-14.3 5.8-.5 1-.2 1.7 0 2 1 1.2 4 1.9 8.3 1.9 4 0 9.1-.6 14.5-2.1.3-.1.5-.4.4-.7-.1-.3-.4-.5-.7-.4-12.1 3.2-20.4 2-21.6.5-.1-.2 0-.5.1-.7 1.1-2.2 7.3-5.8 13.2-5.2 6.9.6 8.8 4.9 8.9 5.1.1.3.5.4.8.3.2-.1.3-.4.2-.7zm-7.9 7.1c-9.3 0-14.2-3.5-14.3-3.5-.3-.2-.6-.1-.8.1-.2.3-.1.6.1.8.2.2 5.3 3.7 15 3.7.3 0 .6-.3.6-.6s-.3-.5-.6-.5z" fill="#000000" stroke-width="none" opacity="1"></path></g></g></g><g id="svga-group-facehighlight-single"></g><g id="svga-group-eyebrows-left-move" transform="matrix(1,0,0,1,0,0)"><g id="svga-group-eyebrows-left-rotate" transform="matrix(0.982566473233288,-0.1859116071629147,0.1859116071629147,0.982566473233288,-12.197435270139593,15.56761647033413)"><g id="svga-group-eyebrows-left" transform="matrix(1,0,0,1,0,0)"><path id="SvgjsPath10093" d="M63.38 74.47c.22-.18 5.53-4.4 8.18-4.68 2.64-.28 18.4 3.81 19.44 5.45.47.75.57 1.33.28 1.75-.23.33-.68.5-1.35.5-.44 0-.98-.07-1.61-.21-1.05-.23-3.78-1.19-6.94-2.29-4.07-1.43-8.69-3.04-9.81-3.12-1.58-.1-6.16 2.28-7.79 3.21-.16.09-.37.04-.48-.11a.408.408 0 0 1 .08-.5z" fill="#000000" stroke-width="none" opacity="1"></path></g></g></g><g id="svga-group-eyebrows-right-move" transform="matrix(1,0,0,1,0,0)"><g id="svga-group-eyebrows-right-rotate" transform="matrix(0.9825664725843343,0.18591161059271843,-0.18591161059271843,0.9825664725843343,15.695046884998149,-21.44960919475578)"><g id="svga-group-eyebrows-right" transform="matrix(1,0,0,1,0,0)"><path id="SvgjsPath10094" d="M136.62 74.47c-.22-.18-5.53-4.4-8.18-4.68-2.64-.28-18.4 3.81-19.44 5.45-.47.75-.57 1.33-.28 1.75.23.33.68.5 1.35.5.44 0 .98-.07 1.61-.21 1.05-.23 3.78-1.19 6.94-2.29 4.07-1.43 8.69-3.04 9.81-3.12 1.58-.1 6.16 2.28 7.79 3.21.16.09.37.04.48-.11.09-.17.06-.38-.08-.5z" fill="#000000" stroke-width="none" opacity="1"></path></g></g></g><g id="svga-group-beardwrap" transform="matrix(1.0200003000000002,0,0,1.0001003000000002,0,0)"><g id="svga-group-beard-single-move" transform="matrix(1,0,0,1,0,0)"><g id="svga-group-beard-single" transform="matrix(1,0,0,1,0,0)"></g></g></g><g id="svga-group-mustache-single-move" transform="matrix(1,0,0,1,0,0)"><g id="svga-group-mustache-single" transform="matrix(1,0,0,1,0,0)"></g></g><g id="svga-group-nose-single-move" transform="matrix(1,0,0,1,0,4)"><g id="svga-group-nose-single" transform="matrix(1,0,0,1,0,0)"><path id="SvgjsPath9417" d="M98.92 93.95c1.67-.17 5.27 2.68 7.28 4.93 2.01 2.26 3.68 6.36 1.76 7.94-1.92 1.59-2.34.5-4.85 2.51s-3.43 2.43-5.19.67c-1.76-1.76-3.6-2.43-5.69-2.59-2.09-.17-2.17-3.18-1.51-4.77.67-1.58 3.35-8.19 8.2-8.69z" fill="#ffffff" stroke-width="none" opacity="1"></path><path id="SvgjsPath9418" d="M95.87 86.37c-2.3 5.24-4.2 10.53-5.58 16.08-.46 1.86-.89 4.11 1.08 5.31.8.49 1.67.41 2.57.46 1.73.1 2.47 1.27 3.64 2.32 1.29 1.15 2.92 1.71 4.42.64.88-.63 1.4-1.66 2.32-2.24 1.04-.66 2.37-.46 3.4-1.18 3.48-2.43.4-7.31-1.36-9.73-.43-.59-1.43-.02-.99.58.94 1.29 1.82 2.69 2.41 4.18.34.86.5 1.77.21 2.69-.45 1.45-1.62 1.62-2.88 1.94-1.49.38-2.16 1.33-3.22 2.35-2.2 2.12-3.74-.64-5.42-1.87-.51-.37-1.01-.62-1.63-.74-.9-.17-2.06.13-2.87-.38-1.47-.94-.87-2.69-.55-4.01.27-1.09.51-2.19.82-3.27 1.2-4.3 2.85-8.46 4.65-12.54.26-.68-.73-1.26-1.02-.59z" fill="#000000" stroke-width="none" opacity="1"></path></g></g><g id="svga-group-hair-front" transform="matrix(1.0200003000000002,0,0,1.0001003000000002,-1.9655907779750947,-0.006955584843836959)"><path id="SvgjsPath10243" d="M76.9 39.3s-9.6.7-12.1 11.2c-2.2 9.4 2.8 64-18.3 77.1 0 0 9.8-12.5 8.6-26.8-1.2-14.3-2.7-40.4-1.5-52S60.7 29.5 72 26.5c0 0 2.7-14.3 27.9-16.6s36 9.8 42.2 22.6 4.8 28.5 2.1 49.9-3.6 37.2 5.6 46.7c0 0-11.9-2.7-16.1-19.9s9.6-33.6 1.6-57.1c-4.4-12.9-10.8-14.8-14.6-13.1-3.7 1.8-21.5 8.1-43.8.3z" fill="#ffffff" stroke-width="none" opacity="1"></path><path id="SvgjsPath10244" d="M150.7 128.4c-9.1-9.4-7.9-25.6-5.4-45.9 2.8-22.1 4.1-37.6-2.2-50.5-5.4-11.1-15.8-25.7-43.1-23.1-23 2.2-27.8 13.9-28.7 16.8-11.1 3.1-17.4 10.9-18.6 23-1.3 12.2.4 39.5 1.5 52.2 1.1 13.7-8.3 25.9-8.4 26.1-.3.4-.3.9 0 1.3s.9.4 1.3.2C63.7 118.2 64.5 84.1 65 63.7c.2-6 .3-10.8.8-12.9 2.1-9 9.6-10.3 11-10.4 24.8 8.5 43.7 0 44.5-.4 1-.4 2.5-.8 4.5 0 2.4 1 5.9 4 8.7 12.4 4.4 13 2.1 23.5-.1 33.8-1.7 7.9-3.4 15.5-1.5 23.2 4.3 17.6 16.3 20.5 16.8 20.7h.2c.4 0 .7-.2.9-.5.3-.4.2-.9-.1-1.2zM88.9 13.1c-7.7 5.1-12.3 14.1-11.3 24.1-2.4-3.5-3.8-7.4-4.1-11.7 1-2.7 4.5-8.9 15.4-12.4zM51.2 122.2c2.7-5.1 5.7-12.9 5-21.4C55.1 88.1 53.5 61 54.7 49c1.2-11.4 7.1-18.6 17.7-21.4h.1c.5 3.2 1.5 6.2 3.1 8.9-9.4-4.3-17.3 6.6-18.5 15.4-2.3 17 6.8 33.5 2.4 50.4v.3c-1.7 7.7-4.3 14.7-8.3 19.6zm12.6-71.9c-.6 2.3-.7 6.9-.8 13.3-.2 6.8-.4 15.3-1.2 23.8-.5-6-1.7-12.1-2.6-18.1-1.1-6.8-2-14.3-.1-21.1 2.2-7.4 9.7-14.6 17.4-9.8-1.5.2-10.3 1.8-12.7 11.9zm25.2-9c-7.1-11.3 8.2-20.6 17.7-22.4 9.9-1.8 19.2 1.3 25.9 8.1-5.3-3.9-11.8-5.8-18.5-3.6-7.8 2.5-12.5 10.7-9.8 18.5-4.4.4-9.6.3-15.3-.6zm31.5-3.2c-.4.2-6 2.7-14.9 3.6-3.1-8.7 3.5-16.9 12.3-17.8 8-.9 14.8 3.5 19.7 9.4 9.1 15 5.6 33-.2 49 1-5.1 1.9-10.6 1.7-16.6l.2-.2c3.6-7.7 4.4-17.7-.9-24.8-3.8-5.1-10.6-6.8-15.8-3.2-.9.2-1.5.4-2.1.6zm16 13.7c-3.1-9.1-7.1-12.4-9.8-13.6-.6-.3-1.3-.4-1.9-.6 6.4-3 13.1 2.6 15.1 9 1.8 5.5 1.2 11.3-.9 16.6-.5-3.6-1.2-7.4-2.5-11.4zm-1.6 57.2c-1.5-6.3-.6-12.5.8-19.1 8.6-21.4 15.7-50.2-5.4-66.7-9-7.1-21-7.8-31.4-3.2-8 3.6-16.2 12.2-11.6 21-2.7-.5-5.5-1.2-8.4-2.1v-.3c-2-12 4.7-23 15.3-27 1.8-.3 3.7-.6 5.8-.8 25.8-2.4 35.6 10.5 41.2 22 6 12.4 4.7 27.6 2 49.4-2.3 18.7-3.5 34 3.3 44.2-3.5-2-9-6.9-11.6-17.4z" fill="#000000" stroke-width="none" opacity="1"></path></g><g id="svga-group-glasses-single-move" transform="matrix(1,0,0,1,0,0)"><g id="svga-group-glasses-single" transform="matrix(1,0,0,1,0,0)"></g></g></g></g></g><rect id="svga-credit-rect" width="200" height="15" x="0" y="185" fill="#ecf0f1" opacity="0.5" style="display: none;"></rect><text id="svga-credit-text" font-family="Avenir Next, Roboto, Helvetica, Arial, sans-serif" font-size="10px" text-anchor="start" font-weight="400" size="10px" anchor="start" weight="400" fill="#333333" x="33.40447998046875" y="182.60824704170227" style="display: none;"><tspan id="SvgjsTspan8958" dy="13" x="33.40447998046875">Created on AvatarMaker.com</tspan></text></g></svg>