<?xml version="1.0" encoding="utf-8"?>
<!-- Generator: Adobe Illustrator 25.0.1, SVG Export Plug-In . SVG Version: 6.00 Build 0)  -->
<svg version="1.1" id="Layer_1" xmlns="http://www.w3.org/2000/svg" xmlns:xlink="http://www.w3.org/1999/xlink" x="0px" y="0px"
	 viewBox="0 0 600 600" style="enable-background:new 0 0 600 600;" xml:space="preserve">
<style type="text/css">
	.st0{fill:#FFFFFF;}
	.st1{display:none;}
	.st2{display:inline;}
	.st3{opacity:8.000000e-02;}
	.st4{fill:#FFFFFF;stroke:#000000;stroke-width:7;stroke-miterlimit:10;}
	.st5{opacity:0.71;fill:#FFFFFF;enable-background:new    ;}
	.st6{display:none;opacity:0.5;fill:#ECF0F1;enable-background:new    ;}
</style>
<g id="svga-group-wrapper">
	<g id="svga-group-backs-single">
		<path id="SvgjsPath3817" class="st0" d="M0,0h600v600H0V0z"/>
	</g>
	<g id="svga-group-humanwrap-move" transform="matrix(1,0,0,1,0,0)">
		<g id="svga-group-humanwrap">
			<g id="svga-group-hair-back-move" transform="matrix(1,0,0,1,0,0)">
				<g id="svga-group-hair-back" transform="matrix(0.9599997000000001,0,0,0.9997997000000002,0,0)">
				</g>
			</g>
			<g id="svga-group-humanbody-back">
				<path id="SvgjsPath3770" class="st0" d="M232.8,314.9c0,57.9,10.2,132.3-30,155.7c-40.2,23.7-95.7,33.9-113.4,66
					s-13.2,75.9-13.2,75.9h447.9c0,0,2.1-56.7-15.3-79.2c-24.3-31.2-83.4-46.5-113.1-62.7s-40.2-75.3-40.2-157.2L232.8,314.9
					L232.8,314.9z"/>
			</g>
			<g id="svga-group-chinshadow-single">
			</g>
			<g id="svga-group-humanbody-front">
				<path id="SvgjsPath3771" d="M527.4,616.1H73.2l-0.3-3c-0.3-1.8-4.5-85.3,13.5-118c12.3-22.2,40.5-33.9,70.5-46.5
					c35.8-11.6,57.7-52.4,56.2-103.7c-0.3-10.5-0.6-20.4-0.6-30v-3.3l164.6-1.2v3.3c0,89.7,27.6,119.2,52.8,128.9
					c30,12.3,63.9,26.4,81.6,48.9c18.3,23.1,16.2,119.2,16.2,121.3L527.4,616.1L527.4,616.1z M79.5,609.5h441.3
					c0-12.3-0.6-95.5-14.7-113.8c-16.5-21-49.8-34.8-78.9-46.8c-26.5-3.2-59.1-49-56.7-131.6l-150.8,1.2c0,8.4,0.3,17.1,0.6,26.4
					c1.5,53.4-21.1,100.8-60.1,110.3c-28.8,12-56.1,23.4-67.2,43.5C78,524.5,78.9,599,79.5,609.5L79.5,609.5z"/>
				<path id="SvgjsPath3772" d="M281.7,421.4c-1.5,5.4-1.2,10.2,1.5,15.6c2.4,4.8,6.3,8.1,11.7,8.7c1.2,0,2.1-1.5,1.5-2.4
					c-4.8-6.6-10.5-12.6-11.1-21.3C285.3,419.9,282.3,419.3,281.7,421.4L281.7,421.4z"/>
				<path id="SvgjsPath3773" d="M337.5,522.5c26.4,1.5,54.3-42.1,79.8-48.7c2.1-0.6,1.8-4.2-0.6-3.9c-8.8,1.1-35.4,43.4-79.5,49.9
					C335.7,520.1,336.3,522.5,337.5,522.5L337.5,522.5z"/>
				<path id="SvgjsPath3774" d="M172.3,467.5c11.4,2.7,22.8,45.7,34.5,48.4c10.8,2.4,22.2,6,33.3,6.3c2.1,0,2.4-2.7,0.6-3.6
					c-10.5-4.2-22.5-5.1-33.6-7.5c-11.4-2.1-22.5-43.9-33.9-46C171.7,465.1,171.1,467.2,172.3,467.5L172.3,467.5z"/>
			</g>
			<g id="svga-group-clothes-single">
				<path id="SvgjsPath6937" class="st0" d="M202.9,445.9c0,0,10.3-21.8,12-30.7h4.1c0,0,36.6,46.2,73.2,68.6
					c0,0,54.7-28.1,87.6-62.6c0,0,20.5,32.5,32.5,52.6L365.8,601H241.2l-59.5-112.3L202.9,445.9L202.9,445.9z"/>
				<path id="SvgjsPath6938" class="st0" d="M202.9,415.2c0,0-10.6,9.3-21.9,13.4c-11.3,4.1-23.9,10-23.9,10l5.1,4.8
					c0,0-28.4,11.4-39,13.4s-57.8,22.7-57.8,22.7s-9.2-4.1-14.7,0s-34,54-34,61.2v61.6l237.6-1C254.6,601,218.3,496,202.9,415.2
					L202.9,415.2z"/>
				<path id="SvgjsPath6939" class="st0" d="M396.2,415.2c0,0,10.6,9.3,21.9,13.4c11.3,4.1,23.9,10,23.9,10l-4.8,4.8
					c0,0,28.4,11.4,39,13.4c10.6,2.1,57.8,22.7,57.8,22.7s9.2-4.1,14.7,0c5.5,4.1,37.3,52.6,37.3,59.9V601H344.5
					C344.5,601,380.8,496.1,396.2,415.2L396.2,415.2z"/>
				<path id="SvgjsPath6940" d="M550.8,476.7c-5.8-4.1-13.7-2.1-16.8-1c-7.9-3.4-47.6-20.3-57.5-22.3c-7.5-1.4-25-8.2-33.5-11.3
					l1.4-1.4c0.7-0.7,1-2.1,1-3.1c-0.3-1-1-2.1-2.1-2.4c0,0-13-5.8-24.3-10c-10.6-4.1-20.9-12.7-20.9-12.7c-0.3-0.3-0.3-0.3-0.7-0.3
					c-7.9-15.1-14.7-27.8-14.7-28.2c-0.7-1-1.4-1.7-2.7-1.7c-1,0-2.4,0.3-3.1,1.4c-28.7,35.7-74.9,66.3-84.8,72.8
					c-35.2-26.4-70.1-79.3-70.5-79.7c-0.7-1-1.7-1.4-2.7-1.4h-4.1c-1.7,0-3.1,1.4-3.4,2.7c-1.4,9.3-9.9,30.9-11.6,35.4
					c-2.4,2.1-11.3,8.9-20.2,12.4c-11.3,4.1-23.9,10-24.3,10c-1,0.3-1.7,1.4-2.1,2.4c-0.3,1,0,2.4,1,3.1l1.4,1.4
					c-8.6,3.4-26,10-33.5,11.3c-9.9,2.1-49.6,18.9-57.5,22.3c-3.4-1-10.9-3.4-16.8,1c-7.5,5.8-34.7,58-34.7,63.2V602
					c0,2.1,1.7,3.4,3.4,3.4l195.9-1c0.3,0.3,0.7,0.3,1,0h326.7c0.3,0.3,1,0.3,1.4,0h44.9c2.1,0,3.4-1.4,3.4-3.4v-61.5
					C589.9,533.7,558.7,482.5,550.8,476.7L550.8,476.7z M379.4,391.5c2.7,5.2,7.5,14.8,13,25.1c-6.5,33-16.4,70.1-25.7,102
					c-8.9-10-29.8-33.7-38.3-41.9c-7.5-7.6-20.9-14.1-28.4-17.2C314.4,449.9,352.8,422.8,379.4,391.5L379.4,391.5z M310.7,596.9h-13
					c3.8-3.1,7.2-6.5,10.6-10c4.1-3.8,7.9-7.6,11.6-11.7c0.3,4.1,0.7,7.9,1,11.3l-5.8,5.8L310.7,596.9L310.7,596.9z M307.6,584.8
					c-4.1,4.1-8.9,7.9-13,12H285c11.6-10.6,22.9-21.6,33.5-33.3l1,9.3C315.5,576.6,311.7,580.7,307.6,584.8z M270.6,471.9l5.1-2.1
					c-0.3,1-1,2.1-1.4,3.1c-0.7,1.4-1.4,2.4-1.7,3.8L270.6,471.9z M276.1,473.2c0.7-1.4,1.4-2.7,2.1-4.5l5.1-2.1
					c-3.1,4.5-6.5,10-8.6,15.1l-1.4-3.1C274.7,477,275.4,475,276.1,473.2L276.1,473.2z M287.7,514.1c-2.1,2.4-4.1,4.8-5.8,7.2
					c0.7-3.1,1.4-5.8,2.1-7.9C285,513.8,286.4,514.1,287.7,514.1z M319.2,477.4c0,0.3-0.3,1-0.7,1.7c-6.5,9.3-13,18.9-19.2,28.8
					h-4.8c6.5-11.3,13-22.7,19.8-33.7C316.1,475.3,317.9,476.3,319.2,477.4L319.2,477.4z M305.2,514.4c1.4,0,2.7-0.3,4.1-0.3
					c0,0.3,0.3,0.7,0.3,1.4c-0.3-0.3-0.3-0.3-0.7,0c-1,1-2.1,2.1-3.1,2.7C305.5,516.9,305.2,515.5,305.2,514.4L305.2,514.4z
					 M295.6,530.9l4.1-4.1c0.3,4.1,0.7,7.9,0.7,10.3c-1.4,1.4-3.1,2.7-4.4,4.1C295.6,538.1,295.6,534.7,295.6,530.9L295.6,530.9z
					 M305.9,519.9c1.4-1.4,2.4-2.7,3.8-4.1v-0.3c0.7,2.7,1.7,6.5,2.7,10.6c-1.7,1.7-3.8,3.1-5.5,4.8
					C306.6,527.8,306.2,523.7,305.9,519.9z M295.6,527.2c0-3.1,0.3-6.2,0.3-9.6c0.7-0.7,1.4-1.4,2.4-2.1c0.3,2.4,0.7,5.2,1,8.2
					C298,524.8,297,526.1,295.6,527.2L295.6,527.2z M296.3,514.8h0.3c-0.3,0-0.3,0.3-0.3,0.3V514.8z M280.9,526.1
					c1-1.4,2.1-3.1,3.1-4.1c1.7-2.4,3.8-4.8,5.5-7.2c-0.3,2.4-0.3,4.8-0.7,7.2c-3.4,3.1-6.5,6.5-9.6,10
					C279.9,529.9,280.2,527.8,280.9,526.1z M278.2,537.1c3.8-4.1,7.2-7.9,10.9-12v8.6c-4.4,4.5-8.6,8.9-13,13.4
					C276.5,544.3,277.1,540.9,278.2,537.1L278.2,537.1z M275.1,552.6c0-0.3,0-1,0.3-1.4c4.4-4.5,9.2-8.9,13.7-13.4
					c0.3,3.8,0.3,6.9,0.7,9.3c-5.1,4.8-10.3,9.6-15.1,14.4C274.4,557.7,274.7,554.6,275.1,552.6L275.1,552.6z M274.1,579.4
					c13.7-13,27.7-26.1,41.1-39.5c0.7,3.1,1,6.2,1.7,8.9v0.3c-14.7,13-29.1,26.8-42.8,41.2V579.4L274.1,579.4z M274.1,575.9v-11.3
					c5.1-4.8,10.6-9.6,15.7-14.4c0.3,1.7,1.7,3.1,3.4,3.1h0.3c2.1-0.3,3.1-2.1,3.1-3.8c0,0-0.3-2.1-0.3-5.2c1.4-1.4,3.1-2.7,4.4-4.1
					c0,1.7,1.7,3.1,3.4,3.1c2.1,0,3.4-1.4,3.4-3.4c0-0.3,0-2.7-0.3-5.8c2.1-1.7,3.8-3.8,5.5-5.5c0.7,3.1,1.4,6.5,2.4,10.3
					C300.4,549.5,286.4,562.2,274.1,575.9L274.1,575.9z M313.1,495.6c-0.3,1.4-1,2.4-1.4,3.8c-1.7,2.7-3.4,5.2-5.1,7.9
					c-1.7,0.3-3.1,0.3-4.4,0.3c2.7-3.4,4.8-7.6,6.8-11c2.7-4.1,5.1-8.2,7.5-12C315.5,488,314.1,492.1,313.1,495.6L313.1,495.6z
					 M313.7,473.9c-7.9,10.6-15.1,22-21.2,34c-2.7-0.3-4.8-0.7-5.8-1c8.9-9.6,15.4-22.7,20.9-34.3c0.3-0.7-0.7-1.4-1-0.7
					c-6.5,11.7-14.7,22.7-20.9,34v0.3c-0.3,0-0.7-0.3-0.7-0.3l-2.1-5.2c7.5-10,14-21.3,20.2-31.9c0.3-0.7-0.7-1.4-1-0.7
					c-6.8,10-14,19.9-20.2,30.6l-1.4-3.1c5.5-9.6,10.9-18.9,16.8-28.5c0.3-0.3-0.3-1-0.7-0.3c-6.2,8.2-12,17.5-16.8,26.8l-1.4-3.8
					c4.8-8.2,9.2-16.8,14.7-25.1c0.3-0.3-0.3-1-0.7-0.3c-5.1,7.2-10.6,15.1-14.7,23.4l-1.4-3.4c1.4-2.7,2.7-5.8,4.1-8.6
					c1.7-3.4,3.8-6.5,5.8-9.6c2.7-1,4.8-1.7,6.5-2.4C295.6,464.7,305.2,468.8,313.7,473.9L313.7,473.9z M217.6,381.9
					c6.5,10,36.3,52.2,67.7,76.9c-8.2,3.1-22.9,8.6-28.7,12.7c-6.2,4.1-20.9,23-28.4,33c-8.2-28.8-16.4-60.4-21.9-88.9
					C208,410.7,215.2,392.9,217.6,381.9L217.6,381.9z M30.9,513.8c7.2-7.9,27.6-16.2,34.5-24.5c0.7,1.7,1.4,3.8,2.1,6.2
					c-8.6,8.9-33.1,18.9-41.3,28.1C26.8,520.9,30.2,517.3,30.9,513.8z M20,540.2C20,539.8,20,539.8,20,540.2
					c10.3-10.6,40.5-22.3,50.4-33.3c1,3.8,2.1,7.9,3.1,12.4c-12.3,9.6-43.3,23-53.5,35C20,554.3,20,540.2,20,540.2z M20.4,537.1
					c0.3-2.7,2.7-4.2,3.4-8.6c8.9-8.9,35.4-21.5,44.3-30.8c0.7,2.1,1,4.1,1.7,6.5C59.9,514.8,30,526.4,20.4,537.1L20.4,537.1z
					 M52.4,482.2c2.7-2.1,7.5-1,10.3,0c0.3,1,1,2.7,2.1,5.5c-6.8,7.2-23.7,12.9-30.2,20.8C43.2,491.4,50,484.2,52.4,482.2z
					 M50,597.2l-29.9,1h0.3c5.5-6.2,31.6-13,36.4-19.5c0.3-0.7-0.3-1.4-1-0.7c-5.8,5.2-30.6,12.3-35.7,18.2v-10.6
					c6.8-7.6,33.7-15.8,39.5-23.7c0.3-0.3-0.3-1-1-0.7c-6.8,6.5-32.7,14.7-38.8,21.6v-10.3c8.9-9.3,38.1-19.5,46-29.8
					c0.3-0.7-0.3-1-1-0.7c-8.9,8.2-37.1,18.9-45,28.1v-12.7c10.9-11.7,43.3-23.3,54.2-35c0,0.3,0.3,0.7,0.3,1
					c6.8,28.5,8.9,64.2,9.6,74.2L52,596.9l0,0 M81.1,521c-5.5-23.4-9.6-34.7-11.6-39.8c17.1-7.2,46.5-19.6,54.1-20.9
					c7.5-1.4,23.9-7.6,32.8-11c0,0.7-0.3,1-0.3,1.7c0,0.3,0.7,0.7,0.7,0.3c0.3-0.7,0.7-1.7,1-2.4c1-0.3,2.1-0.7,2.7-1l0.7,0.7
					c-3.1,4.5-6.2,9.3-8.2,14.1c-0.3,0.7,0.7,1,1,0.7c3.1-4.1,5.8-8.9,8.2-13.7l1.7,1.4c-2.1,3.4-4.1,7.2-5.8,11l-6.8,4.1
					c-1.4,1-2.1,3.1-1,4.5l2.4,4.5c-1,2.4-2.4,4.8-2.7,7.2c0,0.3,0.7,0.7,0.7,0.3c1-1.7,2.1-3.8,3.1-5.8l2.4,4.5
					c-1.4,3.1-3.1,6.2-3.8,9.3c0,0.7,0.7,1,1,0.3c1.4-2.7,2.4-5.8,3.4-8.6l2.1,4.1c-1.7,3.8-3.4,7.6-4.8,11.7c0,0.7,0.7,1,1,0.3
					c1.7-3.4,3.1-6.9,4.4-10.6l2.1,4.1c-2.4,4.5-5.1,8.9-6.8,13.7c-0.3,0.7,0.7,1,1,0.3c2.7-4.1,4.4-8.6,6.5-13l1.7,3.4
					c-1,2.4-2.1,4.8-3.4,7.2c-1,2.4-2.4,4.8-3.1,7.2c0,0.7,0.7,0.7,1,0.3c1.4-2.1,2.4-4.8,3.4-7.2c1-2.1,1.7-4.5,2.7-6.5l3.1,5.8
					c-1,2.1-2.1,4.1-2.7,6.2c-1,2.1-2.4,4.5-2.7,6.9c0,0.3,0.7,1,1,0.7c1.7-2.1,2.4-4.8,3.4-7.2c0.7-1.7,1.4-3.1,2.1-4.8l2.7,5.5
					c-2.1,4.8-4.1,9.6-4.8,14.4c0,0.7,1,0.7,1,0.3c2.4-3.8,3.4-8.2,4.8-12.7l3.4,6.2c-1.7,4.8-3.8,9.6-5.1,14.4
					c-0.3,0.7,0.7,1,1.4,0.7c2.4-3.8,4.1-8.2,4.8-13l3.8,6.9c-1.7,4.8-3.4,10.3-3.8,15.1c0,0.7,0.7,0.7,1,0.3
					c2.1-4.1,2.7-8.9,3.8-13.4l3.1,5.8c-2.1,5.2-4.8,10.6-6.2,16.1c0,0.7,0.7,1,1,0.3c2.4-4.5,4.1-10,5.8-14.8l2.7,5.5
					c-2.4,5.8-4.4,11.7-6.5,17.5c-0.3,1,1,1.4,1.7,0.7c0.3-0.3,0.7-0.7,0.7-1c0.3-0.3,0-0.7-0.3-0.7c1.7-4.8,3.4-10,5.1-14.8
					l3.4,6.2c-2.7,4.8-4.8,10.3-6.2,15.5c-0.3,1,1.4,1.4,1.7,0.3c1.7-4.8,3.1-10,5.1-14.8l7.5,14.8c-2.1,5.5-4.4,11-5.8,16.8
					c-0.3,0.7,1,1.4,1.4,0.7c2.4-4.8,3.8-10.3,5.1-15.5l4.8,8.9c-2.7,6.5-5.1,13-7.2,19.6v0.3H89.3C90.3,587.3,88.3,550.5,81.1,521
					L81.1,521z M169.7,454l-7.9,5.2l4.1-8.2L169.7,454z M210.8,596.9c0.7-1.7,1-3.4,1.4-5.2c0.3-1.4,0.7-2.4,1-3.8l2.4,4.5
					c-0.7,1.4-1,2.7-1.4,4.1L210.8,596.9z M210.4,591.4c-0.7,1.7-1.4,3.8-1.7,5.5h-6.5c2.4-5.8,4.4-11.7,6.2-17.9l3.8,7.2
					C211.8,587.9,211.1,589.7,210.4,591.4L210.4,591.4z M216.2,596.9c0.3-0.7,0.3-1.4,0.7-2.1l1,2.1H216.2z M225.5,596.9
					l-67.1-127.7l35.6-22.3c1.7-1,2.1-3.1,1-4.8c-1-1.7-3.1-2.1-4.8-1l-14.4,9.3l-11.6-9.6l-1.4-1.4c4.8-2.1,12.3-5.2,19.2-7.9
					c7.2-2.7,14-7.2,18.5-10.6c5.8,29.5,14.4,61.5,22.6,90.3c-0.3,1,0,2.1,1,3.1c10.9,38.5,21.6,70.7,25.7,82.4L225.5,596.9
					L225.5,596.9z M257,596.9c-3.1-8.9-14.4-42.9-26.3-84.5c7.5-10,24.3-31.6,29.8-35.4c1-0.7,2.4-1.4,4.1-2.4l13.7,33.7
					c-1.7,5.8-8.6,31.6-10.3,43.3c-0.7,3.8-0.7,10-1,16.1c-0.3,0.3-0.3,1,0,1.4v14.1l-1,1c-0.7,0.7,0.3,1.7,1,1.4
					c0,4.8,0.3,8.6,0.3,11L257,596.9L257,596.9z M274.4,593.4c14.4-14.1,28.1-28.5,42.8-41.9c0.3,3.1,1,6.9,1.4,10.6
					c-12,12-24.3,23.7-36.6,35h-7.2C274.4,595.8,274.4,594.8,274.4,593.4L274.4,593.4z M313.7,596.9c1-1,2.1-2.4,2.7-3.4
					c1.4-1.7,3.1-3.4,4.4-5.2c0.3,3.4,0.7,6.5,0.7,8.6H313.7L313.7,596.9z M342.1,596.9h-13.3c-0.7-8.9-3.1-34.7-5.1-49.1
					c-2.4-15.5-7.2-33.7-8.2-37.8c0.7-2.1,2.4-7.2,4.1-12c2.7-7.6,4.4-12.4,5.5-15.5c10.3,10.3,33.9,37.4,39.7,44
					C354.1,561.2,344.9,589,342.1,596.9L342.1,596.9z M349.3,596.9c6.8-20.6,34.9-106.1,48.9-175.8c4.4,3.1,11.3,7.9,18.5,10.6
					c6.8,2.7,14.7,5.8,19.2,7.9l-1.4,1.4l-11.3,9.3l-14.4-9.3c-1.7-1-3.8-0.7-4.8,1c-1,1.7-0.7,3.8,1,4.8l35.2,22.7l-67.1,127.7
					L349.3,596.9L349.3,596.9z M381.1,596.9l66.7-127.1c0.7-1.7,0.3-3.4-1.4-4.5l-17.4-11l8.6-6.9c6.5,2.7,28.4,11,37.6,13
					c7.5,1.4,37,13.7,54.1,20.9c-2.1,5.2-6.2,16.5-11.6,39.8c-7.2,29.5-9.2,65.9-9.6,75.9L381.1,596.9L381.1,596.9z M515.9,585.5
					c8.2-7.6,15.7-15.8,23.6-23.7c0.7-0.7-0.3-1.4-1-1c-7.5,7.2-15.1,14.1-22.6,21.6c0.3-3.1,0.3-6.2,0.7-10
					c2.4-2.7,4.8-5.5,7.2-7.9c4.1-4.5,8.2-8.9,12.7-13c0.7-0.7-0.3-1.4-1-1c-4.8,4.5-9.2,8.9-13.7,13.4c-1.7,1.7-3.1,3.4-4.8,4.8
					c0.3-2.7,0.7-5.5,1-8.6c4.4-5.2,8.6-10.6,13-15.8c0.7-0.7-0.3-1.7-1-1c-3.8,4.5-7.5,8.9-11.3,13c0.3-2.7,0.7-5.8,1-8.6
					c0.3-0.3,0.7-1,1.4-1.4c2.4-2.7,4.8-5.5,7.2-7.9c0.3-0.7-0.3-1.4-0.7-0.7c-2.4,2.4-4.8,5.2-7.2,7.6c0.7-3.4,1-7.2,1.7-10.6
					c0.7-0.7,1-1.4,1.7-2.1c1-1.4,2.1-2.4,3.1-3.8c0.3-0.7-0.3-1-1-0.7c-1.4,1-2.4,2.1-3.4,3.4l2.1-9.3c6.5-26.8,10.6-37.4,12-40.5
					c2.7-1,7.5-2.1,10.3,0c4.1,4.1,36.3,48.4,36.3,57v55.6c-1,0.7-26.1,1.7-27.1,2.4h-7.9c3.1-3.4,29.8-6.9,32.9-10
					c0.7-0.7-24.3,3.3-25,4c-3.8,3.8-7.5,2.2-10.9,6h-11.6c6.5-5.8,13-12,19.5-17.9c0.7-0.7-0.3-1.7-1-1
					c-7.2,6.5-14.4,12.7-21.2,19.2H518c9.2-7.6,17.8-16.5,26.3-24.7c0.7-0.7-0.3-1.7-1-1c-9.2,8.6-19.2,16.5-27.7,25.8h-0.3
					C515.3,594.5,515.3,590.3,515.9,585.5L515.9,585.5z M582.7,596.9l0.3-0.3v0.3H582.7z M195.4,557.4c-1.7,5.8-4.4,12-5.1,18.2
					c0,0.7,0.7,0.7,1,0.3c2.7-5.5,3.8-12.4,5.1-18.2C196.7,557,195.4,556.7,195.4,557.4z"/>
			</g>
			<g id="svga-group-head" transform="matrix(1,0,0,1,0,0)">
				<g id="svga-group-ears-left-move" transform="matrix(1,0,0,1,3,1)">
					<g id="svga-group-ears-left" transform="matrix(1.0500001,0,0,1.0500001,-2.744402175347332,-4.380159746019757)">
						<path id="SvgjsPath7460" class="st0" d="M166.9,212.4c0,0-5-16-13.3-21c-8.3-5-20.8,0.9-23.8,17.8
							c-2.7,17,10.4,61.6,30.6,69.5C177.9,285.6,171.8,224.3,166.9,212.4L166.9,212.4z"/>
						<path id="SvgjsPath7461" d="M159.5,281.2c-21.7-8.4-35.2-54.6-32.3-72.2c1.8-10.1,7.3-17.9,14.9-20.5
							c4.5-1.6,9.3-1.2,13.4,1.1c8.8,5.2,13.8,20.2,14.5,22.3c4,9.5,10.5,58.8-1.3,68c-2,1.6-4.9,2.1-7.5,1.4
							C160.1,281.4,159.8,281.3,159.5,281.2L159.5,281.2z M144.3,192.9c-5.8,1.9-10.1,8.5-11.7,16.7c-2.8,16,10.2,59.7,28.6,66.5
							c1.2,0.3,2,0.5,2.8-0.2c8.4-6.7,4.2-52.3,0-63.1l0.1-0.3c-1.4-4.1-5.9-15.9-11.8-19.4c-0.5-0.4-1.4-0.7-1.9-0.8
							C148.1,192.4,146.2,192.5,144.3,192.9L144.3,192.9z"/>
						<path id="SvgjsPath7462" d="M147.2,200.5c6.4,6.1,10.1,20.1,10.4,32.7l-0.1,0.3c-0.2,0.9-0.9,1-0.9,0.1
							c-0.2-3.8-2-4.3-4.9-1.3c-1.1,1.9-1.5,4.3-1.5,6.7c0,2.2,0.3,4.4,0.8,6.1c0.8,3.9,2.5,6.9,3.7,10.3c0.3,1-0.5,2-1,1.3
							c-3.8-4.2-7.7-16.4-3.9-24.7c1.7-3.9,4.9-5.5,6.5-3.5c-1-6.8-2.4-12.8-5-18.1c-1.4-2.9-4.5-9.6-7.2-9.1
							c-4.8,0.6-5.6,12.8-6.5,18.1c-0.2,0.9-0.9,1-0.9,0.1C136.1,210.2,140.2,194,147.2,200.5L147.2,200.5z"/>
						<path id="SvgjsPath7463" d="M151.2,259.1c-7.4-4.8-10.3-17.1-10.5-30.2c-0.1-7.8,0.4-25.7,8.2-23.3c0.6,0.2,0.5,1.7-0.2,1.8
							c-8.1,1.2-6.4,25.9-5.5,31.8c1.1,8.4,3.9,14.4,8.4,18.4C152,258.4,151.7,259.5,151.2,259.1L151.2,259.1z"/>
					</g>
				</g>
				<g id="svga-group-ears-right-move" transform="matrix(1,0,0,1,-3,1)">
					<g id="svga-group-ears-right" transform="matrix(1.0500001,0,0,1.0500001,-7.254853453159342,-4.3851596797256605)">
						<path id="SvgjsPath7464" class="st0" d="M421.2,210.9c0,0,6.7-15.3,15.5-19.4c8.8-4.1,20.5,3.2,21.7,20.3
							c0.9,17.2-17,60-38,65.7C402.3,282.5,415,222.2,421.2,210.9L421.2,210.9z"/>
						<path id="SvgjsPath7465" d="M419.8,280.3c-3,0.5-5.5-0.4-7.3-2.2c-10.4-10.5,1.2-58.8,6.1-67.8c0.9-2,7.4-16.6,16.8-20.5
							c4.3-1.9,8.8-1.7,13.4,0.3c7.2,3.4,11.8,11.5,12.5,22c0.9,17.8-17.6,62.3-40.1,68.2C420.7,280.2,420.4,280.2,419.8,280.3
							L419.8,280.3z M440,193.4c-0.6,0.1-1.5,0.2-2,0.6c-6.2,2.8-12.1,13.7-13.9,18l0,0.3c-5.7,10-14.8,55.1-6.9,62.7
							c0.7,0.8,1.4,1,2.8,0.5c18.9-5.1,36.7-47,35.7-63c-0.5-8.7-4.2-15.4-9.8-17.9C443.9,193.4,442.1,193.1,440,193.4L440,193.4z"
							/>
						<path id="SvgjsPath7466" d="M442.1,201.3c-7.1,5.4-12.2,18.9-13.9,31.3l0,0.3c0.1,0.9,0.8,1.1,0.9,0.2c0.6-3.7,2.4-4,5-0.8
							c0.9,2,1,4.4,0.8,6.9c-0.3,2.2-0.8,4.4-1.5,6c-1.2,3.8-3.2,6.6-4.8,9.9c-0.5,1,0.3,2.1,0.8,1.4c4.3-3.7,9.4-15.4,6.6-24.1
							c-1.2-4.1-4.3-6-6.1-4.2c1.7-6.6,3.8-12.4,7-17.5c1.7-2.7,5.6-9.1,8.1-8.3c4.7,1.1,4.2,13.3,4.4,18.7c0.1,0.9,0.8,1.1,0.9,0.2
							C452,212.2,449.7,195.5,442.1,201.3L442.1,201.3z"/>
						<path id="SvgjsPath7467" d="M431.7,259.1c7.9-4,12.1-15.9,13.7-28.9c0.9-7.7,2.4-25.6-5.6-24c-0.6,0.1-0.7,1.6,0,1.8
							c7.9,2.1,3.5,26.5,2,32.2c-2.1,8.2-5.4,13.9-10.3,17.4C431,258.3,431.2,259.4,431.7,259.1L431.7,259.1z"/>
					</g>
				</g>
				
					<g id="svga-group-faceshape-wrap" transform="matrix(0.9599997000000001,0,0,0.9997997000000002,4.015839749919877,0.016334463318997905)" class="st1">
					<g id="svga-group-faceshape-single" class="st2">
						<path id="SvgjsPath8200" class="st0" d="M459.9,308.4c-6.9-36.3-10.3-55.2-11.8-104.7c-0.3-9.9-0.9-26.7-4.2-42.6
							c-6.9-34.2-53.6-86.4-135.5-86.4s-121.7,46.9-133.7,76.6c-7.5,18.6-7.5,38.6-8.1,52.1c0,0,6.8,50.4,3.2,63.9
							c-3.3,13.5-17.6,53.4-0.5,88.5s50.3,65.5,89.9,55.3c0,0,43.2,29.4,88.5,2.4c0,0,20.3,4.9,58.7-14.3
							C445.1,379.7,466.8,344.4,459.9,308.4L459.9,308.4z"/>
						<path class="st3" d="M463.2,307.5c-2.4-12.6-5.4-23.4-8.4-33.6c-5.4-19.8-2.5-38.4-3.4-70.5c-0.3-9-0.9-26.7-4.2-43.2
							c-3.9-20.4-26-42.3-44.9-57.9c-24.3-20.4-57-31.2-93.9-31.2c-64.2,0-117.2,30.4-137,79c-7.5,18.9-7.5,38.9-8.4,53.3
							c0,2.1,6.8,50.4,3.5,63.3c-0.6,2.1-1.5,5.1-2.7,8.7c-6,18-12.2,51.6,2.5,81.9l7.3,0.2c0.6-1,1.2-2,1.7-3.1l-3.4-0.1
							c-13.5-27.9-7.9-59.7-2.2-76.8c1.2-3.6,2.4-6.9,3-9.3c3.6-13.8-3.5-62.4-3.2-64.5c0.6-13.8,0.6-32.9,7.8-50.9
							C196,107.2,247.2,78,308.1,78c35.7,0,66.6,10.2,89.7,29.7c17.7,14.7,38.9,34.8,42.8,54c3.3,15.9,4.2,33,4.2,42
							c0.9,33-1.7,52.8,3.7,72.3c2.7,10.2,5.7,20.7,8.1,33c2.5,13.8-0.3,33.8-12.2,52.5l-6.5-0.2c0,0.6,0.1,1.2,0.1,1.9l14.3,0.3
							C462.5,347.6,467.2,328.7,463.2,307.5z"/>
					</g>
				</g>
				<path class="st4" d="M160.4,163.4c0,0,0.2-54.8,25.3-82.9s72.8-47.3,122.4-45.8c49.6,1.5,97.6,36,111.4,60.7s26.5,33.1,25,125.9
					S423,348.3,423,348.3s-14.9,24.7-72.9,37c-2.5,0.5-6.4,2.7-10.7,5.3c-11.1,6.8-24.1,10-37.1,9.2l0,0c-12-0.7-23.7-3.9-34.5-9.2
					c-3.7-1.8-7.9-3.4-11.9-4.1c-20.6-3.6-51.4-12.5-67.2-34.5c-25-34.8-28.4-115.2-28.2-133.2C160.8,190.5,160.4,163.4,160.4,163.4
					z"/>
				<g id="svga-group-mouth-single-move" transform="matrix(1,0,0,1,0,2)">
					<g id="svga-group-mouth-single">
						<path id="SvgjsPath6766" d="M343,327.9c-0.7,0.3-1.3,0.6-2,0.8c-10.7-5.3-21.2-11-31.5-17.1c-0.1-0.4-0.5-0.8-1-0.5
							c-3.3,1.8-6.6,3.6-9.9,5.4c-0.1,0-0.1-0.1-0.1-0.1l-7.3-3c0.2-0.5-0.4-1.2-1-0.9c-8.2,4.5-15.9,9.9-23,16
							c-2.5-0.5-5-1.1-7.4-2c-1.8-0.6-2.5,2.2-0.8,2.8c3.5,1.2,7,2.1,10.5,2.6c8.5,8.8,18.6,18.5,31.7,18.1
							c12.5-0.4,21.7-10.5,31.5-16.9c3.9,0,7.9-0.7,11.8-2.6C346.2,329.6,344.7,327.1,343,327.9L343,327.9z M289.8,314.4
							c2.8,1.1,5.5,2.2,8.3,3.4c0.2,0.1,0.3,0,0.5,0c0.2,0.1,0.4,0.2,0.7,0c3.1-1.7,6.2-3.4,9.3-5c10,5.9,20.2,11.5,30.5,16.6
							c-12.3,3.4-25-4-37.5-3.8c-5.9,0.1-11.6,2-17.4,3.1c-5.1,1-10.2,1-15.2,0.2C275.5,323.4,282.4,318.5,289.8,314.4L289.8,314.4z
							 M271.8,332.2c2.9,0.3,5.8,0.3,8.7,0c7.9-0.8,15.3-4,23.3-3.6c9,0.4,17.7,3.8,26.4,4.4c-8.3,5.8-16.2,13.7-26.5,15.3
							C290.7,350.3,280.3,341,271.8,332.2z"/>
					</g>
				</g>
				<g id="svga-group-eyes-left-move" transform="matrix(1,0,0,1,0,0)">
					<g id="svga-group-eyes-left">
						<g id="svga-group-eyesback-left">
						</g>
						<g id="svga-group-eyesiriswrapper-left">
							<g id="svga-group-eyesiriscontrol-left" transform="matrix(1,0,0,1,0,0)">
								<g id="svga-group-eyesiris-left">
									<path id="SvgjsPath7677" class="st0" d="M225.6,214.1c-4.5,5.7-3.9,13.5,1.2,18c5.4,5.1,14.7,6.3,21.3,0.3
										c3.3-3.3,5.4-8.1,4.5-12.3c-0.3-1.5-0.9-3-1.8-4.2c-0.6-1.8-1.5-3.3-3-4.5C241.5,206,231,207.2,225.6,214.1z"/>
									<path id="SvgjsPath7678" d="M253.2,220.1c-0.3-1.5-0.9-3-1.8-4.5c-0.6-1.8-1.8-3.3-3.3-4.8c-3-2.7-6.9-4.2-11.4-3.6
										c-4.8,0.3-9.3,2.7-12,6.3c-4.8,6-4.2,14.4,1.2,19.2c3,2.7,7.5,4.5,11.7,4.5c3.6,0,7.5-1.2,10.5-4.2
										C252.3,229.4,254.4,224.3,253.2,220.1z M251.4,219.8c-2.1,0.3-4.2,0.6-6,0.6c0-0.3-0.3-0.6-0.3-0.6
										c1.2-0.3,2.4-0.9,3.6-1.5c0.6-0.3,1.2-0.3,1.8-0.9C250.8,218.3,251.1,218.9,251.4,219.8z M248.7,214.4l0.9,1.8v0.3
										c-1.8,0.9-3.6,1.5-5.4,2.4c-0.3-0.3-0.3-0.6-0.6-0.9C245.7,217.1,247.2,215.6,248.7,214.4z M246.9,212.3
										c0.6,0.6,0.9,0.9,1.2,1.5c-1.8,1.2-3.6,2.4-4.8,3.9l-0.3-0.3c-0.3-0.3-0.6-0.3-0.9-0.6c0.6-0.9,1.5-2.1,2.1-3.3
										c0.3-0.6,0.9-1.2,1.5-2.1C246.3,211.7,246.6,212,246.9,212.3L246.9,212.3z M240.6,212.6c0-1.2,0.3-2.1,0.3-3.3
										c1.5,0.3,2.7,0.9,3.9,1.5c-0.6,0.6-0.9,1.5-1.5,2.1c-0.6,1.2-1.5,2.1-1.8,3.3c-0.3-0.3-0.9-0.3-1.2-0.6
										C240.6,214.7,240.6,213.5,240.6,212.6z M237,209h1.2c0.6,0,1.5,0,2.1,0.3c-0.3,0.9-0.3,1.8-0.3,3c0,0.9-0.3,2.1-0.3,3.3
										c-0.6,0-1.2-0.3-1.8-0.3c0-0.9-0.3-2.1-0.6-3C237.3,211.1,237,210.2,237,209L237,209z M223.5,220.7
										c2.1,0.6,4.5,1.2,6.6,0.9c0,0.6-0.3,1.5,0,2.1c-2.1-0.3-4.5,0-6.6,0V220.7z M223.8,224.6c2.1-0.3,4.5-0.3,6.6-0.3
										c0,0.3,0.3,0.6,0.3,0.9c-1.2,0.3-2.1,0.9-3.3,1.2c-0.9,0.3-1.8,0.6-2.7,1.2C224.1,226.7,223.8,225.8,223.8,224.6
										L223.8,224.6z M225.9,229.7c-0.3-0.3-0.6-0.9-0.9-1.2c0.9-0.3,1.8-0.9,2.7-1.2c0.9-0.3,2.1-0.9,3-1.2
										C229.2,227.3,227.4,228.5,225.9,229.7L225.9,229.7z M227.4,231.5l-0.9-0.9c1.8-1.2,3.3-2.4,4.8-3.6
										c0.3,0.3,0.3,0.6,0.6,0.6c-0.6,0.6-1.2,1.5-1.8,2.1c-0.6,0.9-1.2,1.5-1.8,2.4C228,231.8,227.7,231.5,227.4,231.5
										L227.4,231.5z M228.9,232.7c0.6-0.9,1.2-1.8,2.1-2.4c0.6-0.6,1.2-1.2,1.8-2.1c0.3,0.3,0.6,0.6,0.9,0.6
										c-0.6,0.6-1.2,1.8-1.5,2.4c-0.6,0.6-1.2,1.5-1.8,2.1C229.8,233.3,229.5,233,228.9,232.7z M231.3,233.9
										c0.6-0.6,0.9-1.2,1.5-1.8c0.6-0.9,1.5-1.8,1.8-3c0.3,0,0.6,0.3,0.9,0.3c-0.6,1.8-0.9,3.6-1.5,5.4
										C232.8,234.5,231.9,234.2,231.3,233.9z M234.6,235.1c0.9-1.5,1.5-3.6,1.5-5.4c0.6,0,1.2,0.3,1.8,0.3c-0.3,1.8,0,3.6,0,5.4
										C236.7,235.4,235.5,235.4,234.6,235.1z M238.8,235.4c0-1.8,0-3.6-0.3-5.4c0.6,0,1.2,0,1.8-0.3c0.6,1.8,0.9,3.6,1.5,5.1
										C240.6,235.1,239.7,235.4,238.8,235.4L238.8,235.4z M248.4,230.3c-1.5-0.6-2.7-1.8-3.9-2.7c0,0.3-0.3,0.6-0.3,0.9
										c0.9,0.9,2.1,2.1,3.3,2.7l-0.6,0.6c-0.6,0.6-1.2,0.9-1.8,1.2c-0.3-0.6-0.9-1.5-1.2-2.1c-0.3-0.6-0.6-0.9-0.9-1.5
										c-0.3,0-0.6,0.3-0.9,0.3c0.3,0.6,0.6,1.2,0.9,1.5c0.3,0.6,0.9,1.5,1.5,2.4c-0.9,0.6-1.5,0.9-2.4,1.2
										c-0.6-1.8-1.2-3.3-1.8-5.1c0.3,0,0.3,0,0.6-0.3c-0.6-0.3-0.9-0.6-0.9-1.2c-2.4,0.9-5.1,0-6.9-1.5c-1.2-1.2-1.8-2.7-1.8-4.2
										c-0.6-0.6-1.2-1.2-1.5-1.8c-1.2-0.3-2.4-0.3-3.3-0.3c-0.9-0.3-1.8-0.3-2.7-0.6c0.3-1.2,0.6-2.4,1.2-3.3
										c0.9,0.6,2.1,1.2,3,1.5c0.6,0.3,1.2,0.6,1.5,0.9c0-0.3,0-0.9,0.3-1.2c-0.6-0.3-0.9-0.6-1.5-0.6c-0.9-0.6-1.8-0.9-3-1.2
										c0.3-0.3,0.6-0.6,0.9-1.2c0.6-0.6,1.2-1.2,1.8-2.1c0.3,0.6,1.2,1.2,1.8,1.8c0.3,0.6,0.9,0.9,1.2,1.2
										c0.3-0.3,0.6-0.3,0.9-0.6l-0.3-0.3l-1.8-1.8c-0.3-0.3-0.6-0.9-0.9-1.2c0.9-0.6,1.8-1.2,2.4-1.5c0.3,0.9,0.9,1.8,1.2,2.4
										c0.3,0.6,0.9,1.5,1.5,2.1c0.6,0,0.9,0.3,1.2,0.3l-1.8-2.7c-0.3-0.6-0.6-1.5-1.2-2.4c1.2-0.6,2.4-0.9,3.6-0.9
										c0,0.9,0.3,2.1,0.6,3.3c0.3,0.9,0.3,2.1,0.6,3c-0.6,0-0.9,0.3-1.5,0.3c0.6,0.3,0.9,0.6,1.2,1.2h1.2c1.5,0,3,0.6,3.9,1.5
										c0.6,0.6,0.9,1.2,1.2,1.8c0.3,0.6,0.6,1.2,0.6,1.8c0.3,0.9,0,2.1-0.6,3c0.6,0.3,0.9,0.6,0.9,1.2c0,0,0-0.3,0.3-0.3
										c0.6,0.6,1.8,1.2,2.7,1.5c0.6,0.3,1.5,0.9,2.4,1.2C249.3,229.1,249,229.7,248.4,230.3L248.4,230.3z M250.2,227.9
										c-0.6,0-2.7-1.2-3-1.5c-0.6-0.3-0.9-0.6-1.5-0.6c0,0-0.3,0-0.6-0.3c0.3-0.6,0.6-1.2,0.6-1.8c1.8,0.6,3.9,0.9,6,0.9
										C251.1,225.5,250.8,226.7,250.2,227.9L250.2,227.9z M251.7,223.4c-2.1-0.3-3.9-0.6-6-0.9v-1.2c2.1,0,4.2-0.3,6-0.6V223.4z
										 M242.4,224.6h0.6c1.2-3-0.6-6.3-3.9-7.2c-0.6-0.3-1.2-0.3-1.8-0.3c1.2,2.4,0,6-3.6,6h-0.9c0.3,1.8,1.2,3.6,3,4.5
										c1.2,0.6,2.7,0.6,4.2,0.3C239.4,226.4,240.3,224.6,242.4,224.6z"/>
								</g>
							</g>
						</g>
						<g id="svga-group-eyesfront-left">
							<path id="SvgjsPath4492" class="st0" d="M237,176.3c-24.6,0-44.4,19.8-44.4,44.4s19.8,44.4,44.4,44.4s44.4-19.8,44.4-44.4
								C281.4,196.4,261.6,176.3,237,176.3z M254.7,239.9c-5.4,4.5-13.5,9.6-24.3,9s-21.3-13.5-22.5-20.1c0,0,6.9-9.3,11.4-12.6
								c4.2-3.3,8.4-9.6,17.4-9.6s17.7,1.8,23.7,13.8C260.4,220.1,260.1,235.1,254.7,239.9L254.7,239.9z"/>
							<path id="SvgjsPath4493" d="M265.8,211.1c-3.9-7.2-12.6-12.9-23.4-15.9c-16.8-4.5-28.8,9.6-31.8,13.8
								c0,0.3-13.8,19.5-12,23.4c0.3,0.6,0.9,1.2,1.8,1.2h0.9c1.2,1.2,3.3,1.8,4.8,0.9c0.3-0.3,0.3-0.9,0-0.9
								c-0.9-0.3-1.8-0.6-2.4-0.9c1.2-0.6,2.7-1.8,4.5-3.3c2.4,8.4,7.8,14.7,15.3,18c3.6,1.8,7.8,2.4,12,2.4
								c5.1,0,10.2-1.2,14.7-3.6c9.6-5.1,12.3-14.7,13.2-21c0.6,0.9,0.9,2.1,1.2,2.7c0.6,1.5,0.9,2.4,2.1,2.4c0.6,0,1.2-0.6,1.5-1.2
								C269.4,223.1,268.8,216.8,265.8,211.1L265.8,211.1z M232.5,197.9c-0.3,2.4-0.3,5.1,0.9,7.2c-1.2,0.3-2.4,0.6-3.6,1.2
								l-0.9-2.7c-0.3-1.5-0.6-2.7-0.9-4.2C229.5,198.5,231,198.2,232.5,197.9z M226.2,199.7c-0.3,2.4,0.3,5.4,1.5,7.2
								c-1.2,0.6-2.1,1.2-3.3,2.1l-0.9-2.7c-0.3-1.5-0.6-3-0.9-4.8L226.2,199.7L226.2,199.7z M221.4,202.7c0,2.4,0.6,5.4,1.8,7.5
								c-0.6,0.3-0.9,0.9-1.5,1.2l-2.1,2.1c-0.3-0.9-0.6-1.5-0.9-2.4c-0.6-1.8-0.9-3.9-0.9-5.7L221.4,202.7L221.4,202.7z
								 M216.3,207.2c-0.3,2.7,0.3,6,1.5,8.4l-2.4,2.4c-0.3-0.6-0.6-1.5-0.9-2.1c-0.6-1.5-1.2-3.3-1.5-4.8
								C213.6,210.2,214.8,208.7,216.3,207.2L216.3,207.2z M211.5,212.9c0.3,2.4,0.9,4.8,2.4,6.6l-2.1,2.1c0-0.3-0.3-0.6-0.3-0.9
								c-0.6-1.8-0.9-3.9-1.2-5.7C210.6,214.1,211.2,213.5,211.5,212.9L211.5,212.9z M201.6,230.6c0.3-0.9,0.9-2.1,1.8-3.6
								c0.3,0.6,0.3,1.2,0.9,1.8C203.1,229.4,202.2,230,201.6,230.6z M205.8,227.3c0-1.2-0.3-2.1-0.6-3.3c0-0.3,0-0.3-0.3-0.6
								c0.3-0.3,0.3-0.6,0.6-1.2c0.3,0.9,0.3,1.8,0.6,2.7c0,0.6,0.3,0.9,0.3,1.5C206.4,226.7,206.1,227,205.8,227.3L205.8,227.3z
								 M208.2,224.9l-0.9-4.5l-0.3-0.3c0.6-0.9,1.2-1.8,1.5-2.7c0,2.1,0.3,4.2,1.2,6L208.2,224.9z M247.8,244.1
								c-7.2,3.9-16.5,4.5-24,1.2c-5.1-2.1-11.4-6.9-13.8-17.4v-0.3c2.7-2.4,6-5.7,9.9-9.6c0.6,0.3,1.2,0,1.2-0.9v-0.3l3-3
								c7.5-7.5,19.2-8.4,27.9-2.1c3.6,2.7,6,5.7,8.1,9C259.8,223.7,259.2,237.8,247.8,244.1L247.8,244.1z M265.2,224.6
								c-0.6-1.5-1.5-3-2.4-4.8c0-0.6-0.3-0.9-0.6-1.2c-2.1-3.3-4.8-6.6-8.4-9.3c-4.3-3.1-9.4-4.8-14.7-4.8c-1.2,0-2.7,0-3.9,0.3
								c-0.3-0.9-0.6-1.8-0.9-3c-0.3-1.2-0.3-2.7-0.3-3.9c2.4-0.3,5.1,0,7.8,0.6c10.2,2.7,18,7.8,21.6,14.4
								C265.2,216.2,265.8,220.4,265.2,224.6L265.2,224.6z"/>
						</g>
					</g>
				</g>
				<g id="svga-group-eyes-right-move" transform="matrix(1,0,0,1,0,0)">
					<g id="svga-group-eyes-right">
						<g id="svga-group-eyesback-right">
						</g>
						<g id="svga-group-eyesiriswrapper-right">
							<g id="svga-group-eyesiriscontrol-right" transform="matrix(1,0,0,1,0,0)">
								<g id="svga-group-eyesiris-right">
									<path id="SvgjsPath7679" class="st0" d="M351.6,214.1c-4.5,5.7-3.9,13.5,1.2,18c5.4,5.1,14.7,6.3,21.3,0.3
										c3.3-3.3,5.4-8.1,4.5-12.3c-0.3-1.5-0.9-3-1.8-4.2c-0.6-1.8-1.5-3.3-3-4.5C367.5,206,357.3,207.2,351.6,214.1z"/>
									<path id="SvgjsPath7680" d="M379.5,220.1c-0.3-1.5-0.9-3-1.8-4.5c-0.6-1.8-1.8-3.3-3.3-4.8c-3-2.7-6.9-4.2-11.4-3.6
										c-4.8,0.3-9.3,2.7-12,6.3c-4.8,6-4.2,14.4,1.2,19.2c3,2.7,7.5,4.5,11.7,4.5c3.6,0,7.5-1.2,10.5-4.2
										C378.6,229.4,380.4,224.3,379.5,220.1z M377.4,219.8c-2.1,0.3-4.2,0.6-6,0.6c0-0.3-0.3-0.6-0.3-0.6
										c1.2-0.3,2.4-0.9,3.6-1.5c0.6-0.3,1.2-0.3,1.8-0.9C376.8,218.3,377.1,218.9,377.4,219.8z M375,214.4l0.9,1.8v0.3
										c-1.8,0.9-3.6,1.5-5.4,2.4c-0.3-0.3-0.3-0.6-0.6-0.9C371.7,217.1,373.2,215.6,375,214.4z M373.2,212.3
										c0.6,0.6,0.9,0.9,1.2,1.5c-1.8,1.2-3.6,2.4-4.8,3.9l-0.3-0.3c-0.3-0.3-0.6-0.3-0.9-0.6c0.6-0.9,1.5-2.1,2.1-3.3
										c0.3-0.6,0.9-1.2,1.5-2.1C372.3,211.7,372.6,212,373.2,212.3L373.2,212.3z M366.9,212.6c0-1.2,0.3-2.1,0.3-3.3
										c1.5,0.3,2.7,0.9,3.9,1.5c-0.6,0.6-0.9,1.5-1.5,2.1c-0.6,1.2-1.5,2.1-1.8,3.3c-0.3-0.3-0.9-0.3-1.2-0.6
										C366.6,214.7,366.6,213.5,366.9,212.6z M363,209h1.2c0.6,0,1.5,0,2.1,0.3c-0.3,0.9-0.3,2.1-0.3,3.3c0,0.9-0.3,2.1-0.3,3.3
										c-0.6,0-1.2-0.3-1.8-0.3c0-0.9-0.3-2.1-0.6-3C363.3,211.1,363.3,210.2,363,209L363,209z M349.8,220.7
										c2.1,0.6,4.5,1.2,6.6,0.9c0,0.6-0.3,1.5,0,2.1c-2.1-0.3-4.5,0-6.6,0C349.5,222.8,349.5,221.9,349.8,220.7z M349.8,224.6
										c2.1-0.3,4.5-0.3,6.6-0.3c0,0.3,0.3,0.6,0.3,0.9c-1.2,0.3-2.1,0.9-3.3,1.2c-0.9,0.3-1.8,0.6-2.7,1.2
										C350.4,226.7,350.1,225.8,349.8,224.6L349.8,224.6z M351.9,229.7c-0.3-0.3-0.6-0.9-0.9-1.2c0.9-0.3,1.8-0.9,2.7-1.2
										c0.9-0.3,2.1-0.9,3-1.2C355.2,227.3,353.4,228.5,351.9,229.7L351.9,229.7z M353.4,231.5l-0.9-0.9c1.8-1.2,3.3-2.4,4.8-3.6
										c0.3,0.3,0.3,0.6,0.6,0.6c-0.6,0.6-1.2,1.5-1.8,2.1c-0.6,0.9-1.2,1.5-1.8,2.4C354,231.8,353.7,231.5,353.4,231.5
										L353.4,231.5z M354.9,232.7c0.6-0.9,1.2-1.8,2.1-2.4c0.6-0.6,1.2-1.2,1.8-2.1c0.3,0.3,0.6,0.6,0.9,0.6
										c-0.6,0.6-1.2,1.8-1.5,2.4c-0.6,0.6-1.2,1.5-1.8,2.1C356.1,233.3,355.5,233,354.9,232.7z M357.3,233.9
										c0.6-0.6,0.9-1.2,1.5-1.8c0.6-0.9,1.5-1.8,1.8-3c0.3,0,0.6,0.3,0.9,0.3c-0.6,1.8-0.9,3.6-1.5,5.4L357.3,233.9z
										 M360.6,235.1c0.9-1.5,1.5-3.6,1.5-5.4c0.6,0,1.2,0.3,1.8,0.3c-0.3,1.8,0,3.6,0,5.4C362.7,235.4,361.8,235.4,360.6,235.1z
										 M364.8,235.4c0-1.8,0-3.6-0.3-5.4c0.6,0,1.2,0,1.8-0.3c0.6,1.8,0.9,3.6,1.5,5.1C366.6,235.1,365.7,235.4,364.8,235.4
										L364.8,235.4z M374.7,230.3c-1.5-0.6-2.7-1.8-3.9-2.7c0,0.3-0.3,0.6-0.3,0.9c0.9,0.9,2.1,2.1,3.3,2.7l-0.6,0.6
										c-0.6,0.6-1.2,0.9-1.8,1.2c-0.3-0.6-0.9-1.5-1.2-2.1s-0.6-0.9-0.9-1.5c-0.3,0-0.6,0.3-0.9,0.3c0.3,0.6,0.6,1.2,0.9,1.5
										c0.3,0.6,0.9,1.5,1.5,2.4c-0.9,0.6-1.5,0.9-2.4,1.2c-0.6-1.8-1.2-3.3-1.8-5.1c0.3,0,0.3,0,0.6-0.3
										c-0.6-0.3-0.9-0.6-0.9-1.2c-2.4,0.9-5.1,0-6.9-1.5c-1.2-1.2-1.8-2.7-1.8-4.2c-0.6-0.6-1.2-1.2-1.5-1.8
										c-1.2-0.3-2.4-0.3-3.3-0.3c-0.9-0.3-1.8-0.3-2.7-0.6c0.3-1.2,0.6-2.4,1.2-3.3c0.9,0.6,2.1,1.2,3,1.5
										c0.6,0.3,1.2,0.6,1.5,0.9c0-0.3,0-0.9,0.3-1.2c-0.6-0.3-0.9-0.6-1.5-0.6c-0.9-0.6-1.8-0.9-3-1.2c0.3-0.3,0.6-0.6,0.9-1.2
										c0.6-0.6,1.2-1.2,1.8-2.1c0.3,0.6,1.2,1.2,1.8,1.8c0.3,0.6,0.9,0.9,1.2,1.2c0.3-0.3,0.6-0.3,0.9-0.6l-0.3-0.3l-1.8-1.8
										c-0.3-0.3-0.6-0.9-0.9-1.2c0.9-0.6,1.8-1.2,2.4-1.5c0.3,0.9,0.9,1.8,1.2,2.4c0.3,0.6,0.9,1.5,1.5,2.1
										c0.6,0,0.9,0.3,1.2,0.3l-1.8-2.7c-0.3-0.6-0.6-1.5-1.2-2.4c1.2-0.6,2.4-0.9,3.6-0.9c0,0.9,0.3,2.1,0.6,3.3
										c0.3,0.9,0.3,2.1,0.6,3c-0.6,0-0.9,0.3-1.5,0.3c0.6,0.3,0.9,0.6,1.2,1.2h1.2c1.5,0,3,0.6,3.9,1.5c0.6,0.6,0.9,1.2,1.2,1.8
										s0.6,1.2,0.6,1.8c0.3,0.9,0,2.1-0.6,3c0.6,0.3,0.9,0.6,0.9,1.2c0,0,0-0.3,0.3-0.3c0.6,0.6,1.8,1.2,2.7,1.5
										c0.6,0.3,1.5,0.9,2.4,1.2C375.6,229.1,375,229.7,374.7,230.3L374.7,230.3z M376.2,227.9c-0.6,0-2.7-1.2-3-1.5
										c-0.6-0.3-0.9-0.6-1.5-0.6c0,0-0.3,0-0.6-0.3c0.3-0.6,0.6-1.2,0.6-1.8c1.8,0.6,3.9,0.9,6,0.9
										C377.4,225.5,376.8,226.7,376.2,227.9L376.2,227.9z M377.7,223.4c-2.1-0.3-3.9-0.6-6-0.9v-1.2c2.1,0,4.2-0.3,6-0.6V223.4z
										 M368.4,224.6h0.6c1.2-3-0.6-6.3-3.9-7.2c-0.6-0.3-1.2-0.3-1.8-0.3c1.2,2.4,0,6-3.6,6h-0.9c0.3,1.8,1.2,3.6,3,4.5
										c1.2,0.6,2.7,0.6,4.2,0.3C365.7,226.4,366.3,224.6,368.4,224.6z"/>
								</g>
							</g>
						</g>
						<g id="svga-group-eyesfront-right">
							<path id="SvgjsPath4494" class="st0" d="M363,176.3c-24.6,0-44.4,19.8-44.4,44.4s19.8,44.4,44.4,44.4
								c24.6,0,44.4-19.8,44.4-44.4C407.4,196.4,387.6,176.3,363,176.3z M369.3,248.9c-10.8,0.6-18.9-4.2-24.3-9
								c-5.4-4.5-5.7-19.5-5.7-19.5c6-11.7,14.7-13.5,23.7-13.8c9,0,13.2,6.3,17.4,9.6c4.2,3.3,11.4,12.6,11.4,12.6
								C390.6,235.1,380.1,248.3,369.3,248.9L369.3,248.9z"/>
							<path id="SvgjsPath4497" d="M389.4,209.3c-3.3-4.5-15-18.3-31.8-13.8c-10.8,2.7-19.5,8.7-23.4,15.9c-3,5.4-3.6,11.7-1.5,18.3
								c0.3,0.6,0.6,0.9,1.2,1.2c0.6,2.1,1.5,4.2,3,5.7c0.3,0.3,0.9,0,0.9-0.6c-0.6-2.1-1.5-3.9-2.4-5.7c0.3-0.3,0.6-0.9,0.9-1.8
								c0.3-0.6,0.6-1.5,1.2-2.7c0.9,6.3,3.6,15.9,13.2,21c4.5,2.4,9.6,3.6,14.7,3.6c4.2,0,8.1-0.9,12-2.4c7.5-3.3,12.9-9.6,15.3-18
								c3.3,3,5.7,4.2,7.2,4.2h0.3c0.9,0,1.5-0.6,1.8-1.2C403.2,228.8,389.7,209.6,389.4,209.3L389.4,209.3z M349.5,201.5
								c1.8-0.9,3.6-1.5,5.7-2.4c-0.3,1.8-0.9,3.9-0.3,5.7c-1.8,0.3-3.3,0.9-5.1,1.8C349.5,205.4,349.2,203.9,349.5,201.5
								C349.8,201.8,349.5,201.8,349.5,201.5L349.5,201.5z M344.1,204.8c1.2-0.9,2.7-1.8,4.2-2.7c-0.3,1.8-0.3,3.9,0.3,5.4
								c-0.9,0.6-1.5,0.9-2.4,1.5c-0.6,0.6-1.5,1.2-2.1,1.8c0-0.3-0.3-0.6-0.3-0.9c-0.3-1.5-0.3-3,0.3-4.5
								C344.4,205.1,344.4,205.1,344.1,204.8z M342.9,205.7c-0.9,1.8-0.9,4.5,0,6.6c-0.9,0.9-1.8,1.8-2.7,3l-0.9-1.8
								c-0.3-1.2-0.3-2.4,0-3.3c0-0.3,0-0.3-0.3-0.6C340.2,208.1,341.4,206.9,342.9,205.7z M334.5,224.6c-0.3-2.1-0.3-4.2,0.3-6.3
								c0.3,1.2,0.9,2.1,1.5,3C335.7,222.5,335.1,223.7,334.5,224.6z M336.3,216.8c0-1.2,0-2.7,0.3-3.9v-0.3
								c0.3-0.6,0.9-1.2,1.2-1.8c-0.3,1.8,0,4.2,1.2,5.7c-0.6,0.6-0.9,1.5-1.5,2.1c-0.3,0.3-0.6,0.6-0.9,1.2l-0.3,0.3
								C336.6,218.9,336.6,218,336.3,216.8z M390,227.6c-2.4,10.5-9,15.3-13.8,17.4c-7.5,3.3-16.5,3-24-1.2
								c-11.4-6.3-12-20.1-12-23.4c1.2-2.1,2.7-4.2,4.8-6h0.3c0.6,0.3,0.9-0.3,0.9-0.9v-0.3c0.9-0.6,1.5-1.5,2.4-2.1
								c0.6-0.6,1.5-0.9,2.4-1.5c0.3,0.3,0.6,0,0.6-0.3c8.1-4.2,18.3-3,24.9,3.9l3.6,3.6C383.7,221.6,387.3,224.9,390,227.6z
								 M381.6,215l-3.6-3.6c-4.8-4.8-10.8-7.2-17.1-7.2c-1.5,0-3.3,0.3-4.8,0.6c0.3-1.8,0.3-3.9,0.3-6c0.6-0.3,1.2-0.3,1.8-0.6
								c0.6-0.3,1.2-0.3,1.8-0.3c-0.3,1.5-0.6,3,0,4.5c0.3,0.6,0.9,0.6,1.2,0c0.3-1.5,0.3-3.3,0.3-4.8c13.2-1.5,22.5,9.6,25.2,13.5
								c3.3,4.5,9.9,15.3,11.4,19.5C394.8,228.5,386.4,220.1,381.6,215L381.6,215z"/>
						</g>
					</g>
				</g>
				<g id="svga-group-facehighlight-single">
				</g>
				<g id="svga-group-eyebrows-left-move" transform="matrix(1,0,0,1,0,0)">
					
						<g id="svga-group-eyebrows-left-rotate" transform="matrix(0.9978589232386035,-0.06540312923014308,0.06540312923014308,0.9978589232386035,-4.4298285763023415,5.257827517434762)">
						
							<g id="svga-group-eyebrows-left" transform="matrix(0.8999997000000001,0,0,0.8999997000000001,7.80903278829517,7.0287757020475325)">
							<path id="SvgjsPath6494" class="st0" d="M221.7,175c10.4-3.1,61.5,13.7,62.6,17.3c1.1,3.7,2.1,17.8-1.7,19.4
								c-3.8,1.6-56.2-22.7-61.5-20.6c-5.2,2-15.6,18.5-18.3,18.3C200.1,209.2,216.9,176.4,221.7,175z"/>
							<path id="SvgjsPath6495" d="M202.7,210.9c2,0.2,4-2,9.1-8.2c3.4-4.1,7.7-9.3,10-10.2c2.7-0.6,21,6.6,33,11.4
								c19.8,7.9,26,10,28.3,9.4c0.1,0,0.1,0,0.2-0.1c5.5-2.3,3.3-18.8,2.6-21.3c-0.8-2.5-11.8-6.7-20.2-9.5
								c-0.2-0.2-0.5-0.3-0.8-0.3c-3.5-1.1-6.5-2.1-7.8-2.5c-8.4-2.5-28.8-8.2-35.8-6.1c-5.6,1.6-20.7,31.6-20.3,35.6
								C201,210.3,201.9,210.9,202.7,210.9L202.7,210.9z M213.6,188.4l5.7,1.9c-1.2,0.8-2.6,2-4,3.4c-1.6,0.4-3.2,0.5-4.8,0.4
								C211.4,192.3,212.5,190.3,213.6,188.4z M223.1,189.5l-8.5-2.8c3-5.1,5.8-9.2,7.3-10.1c4.3,5.1,8.3,10.4,12,15.9
								C229,190.8,225.4,189.7,223.1,189.5z M237.4,193.7c-4-6.1-8.3-12-13-17.6c1.9-0.1,4.4,0.1,7.4,0.6l12.2,19.5
								C241.6,195.3,239.4,194.5,237.4,193.7L237.4,193.7z M264.6,185.3c3,7.2,5.8,14.7,8.1,22.1c-3.7-1.4-8.1-3.1-12.4-4.7
								c-3-4.5-5.9-8.7-8.8-12.8c-2.3-3.4-4.7-6.9-7.1-10.5C251.1,181,258.3,183.2,264.6,185.3z M275.4,208.3
								c-2.3-7.4-5-14.9-8-22.1c3.3,1.1,6.3,2.2,8.8,3.3c2,6.5,2.9,13.2,2.9,20.1C278,209.2,276.7,208.8,275.4,208.3z M282.1,210.2
								c-0.2,0-0.5,0-0.9-0.1c0.1-6.6-0.7-13.2-2.5-19.5c2.1,1,3.6,1.8,4.1,2.3C284,197.4,284.1,209,282.1,210.2L282.1,210.2z
								 M247.3,197.5l-12.7-20.3c2.1,0.4,4.4,0.9,6.8,1.4c2.9,4.3,5.7,8.4,8.4,12.4c2.3,3.3,4.7,6.7,7,10.3
								c-0.2-0.1-0.5-0.2-0.7-0.3C252.9,199.7,250,198.6,247.3,197.5L247.3,197.5z M205,205.8c0.9-2.4,2.5-5.9,4.4-9.6
								c1.2,0.2,2.5,0.1,3.7,0c-1.3,1.5-2.6,3-3.9,4.6C207.9,202.4,206.3,204.3,205,205.8z"/>
						</g>
					</g>
				</g>
				<g id="svga-group-eyebrows-right-move" transform="matrix(1,0,0,1,0,0)">
					
						<g id="svga-group-eyebrows-right-rotate" transform="matrix(0.9914448613738104,-0.13052619222005168,0.13052619222005168,0.9914448613738104,-8.145812684179631,16.528652940508167)">
						
							<g id="svga-group-eyebrows-right" transform="matrix(0.8999997000000001,0,0,0.8999997000000001,12.201671584152976,7.040508029419705)">
							<path id="SvgjsPath6496" class="st0" d="M395.1,207.5c-10.5-2.8-61,15.6-62,19.3c-1,3.7-1.5,17.8,2.3,19.3
								c3.8,1.5,55.5-24.5,60.8-22.6c5.3,1.9,16.2,18,18.9,17.7C417.7,241,400,208.7,395.1,207.5L395.1,207.5z"/>
							<path id="SvgjsPath6497" d="M416.9,240.9c0.2-4-15.8-33.5-21.4-35c-7-1.8-27.2,4.5-35.5,7.3c-1.3,0.4-4.3,1.4-7.7,2.7
								c-0.3,0-0.6,0.1-0.8,0.3c-8.3,3.1-19.2,7.5-19.9,10.1c-0.6,2.5-2.3,19,3.3,21.2c0.1,0,0.1,0,0.2,0.1c2.3,0.6,8.3-1.8,28-10.3
								c11.9-5.2,29.9-12.9,32.7-12.4c2.4,0.8,6.8,5.8,10.3,9.9c5.3,6.1,7.4,8.2,9.4,8C415.9,242.7,416.8,242.2,416.9,240.9
								L416.9,240.9z M406.9,226.3c-1.6,0.2-3.2,0.1-4.8-0.2c-1.4-1.4-2.8-2.5-4.1-3.3l5.6-2.1C404.8,222.5,405.9,224.4,406.9,226.3
								L406.9,226.3z M383.4,225.3c3.5-5.6,7.4-11.1,11.5-16.3c1.5,0.8,4.5,4.8,7.6,9.8l-8.4,3.1
								C391.8,222.3,388.3,223.5,383.4,225.3L383.4,225.3z M373.5,229.4l11.6-19.9c2.9-0.5,5.5-0.8,7.3-0.8
								c-4.5,5.8-8.7,11.8-12.4,18C378,227.5,375.8,228.4,373.5,229.4L373.5,229.4z M372.4,212.6c-2.3,3.7-4.6,7.2-6.8,10.7
								c-2.7,4.2-5.5,8.5-8.3,13.1c-4.2,1.8-8.5,3.6-12.2,5.1c2.1-7.5,4.6-15,7.4-22.4C358.7,216.8,365.8,214.5,372.4,212.6
								L372.4,212.6z M338.8,243.8c-0.3-6.8,0.5-13.6,2.2-20.2c2.4-1.1,5.4-2.3,8.7-3.6c-2.8,7.3-5.2,14.8-7.3,22.4
								C341.1,243,339.9,243.5,338.8,243.8L338.8,243.8z M334.6,227.3c0.5-0.6,1.9-1.4,4-2.5c-1.6,6.4-2.2,13-1.9,19.6
								c-0.4,0.1-0.7,0.1-0.9,0.2C333.8,243.4,333.5,231.8,334.6,227.3z M361.5,234.5c-0.2,0.1-0.4,0.2-0.7,0.3
								c2.3-3.6,4.5-7.1,6.7-10.5c2.6-4,5.3-8.2,8-12.6c2.3-0.6,4.6-1.2,6.7-1.6l-12,20.7C367.5,231.9,364.6,233.1,361.5,234.5z
								 M408.3,232.9c-1.4-1.5-2.7-3-4-4.5c1.3,0.1,2.5,0.1,3.7-0.1c2,3.7,3.7,7.1,4.7,9.5C411.4,236.3,409.7,234.4,408.3,232.9
								L408.3,232.9z"/>
						</g>
					</g>
				</g>
				<g id="svga-group-beardwrap" transform="matrix(0.9599997000000001,0,0,0.9997997000000002,0,0)">
					<g id="svga-group-beard-single-move" transform="matrix(1,0,0,1,0,0)">
						<g id="svga-group-beard-single">
						</g>
					</g>
				</g>
				<g id="svga-group-mustache-single-move" transform="matrix(1,0,0,1,0,0)">
					<g id="svga-group-mustache-single">
						<path id="SvgjsPath6518" class="st0" d="M300,317.6c-3-0.9-42.6,5.4-60.9-0.3s-31.5-33.6-11.4-39.9s17.7,20.1,4.8,16.5
							c-12.9-3.6,1.5-2.4,2.4-6.6c0.9-4.2-6.9-6-10.5-0.9c-3.6,5.1,2.4,12.3,7.5,13.2c5.1,0.9,19.8-4.5,30.6-6
							c10.8-1.5,23.1-0.9,36.3,5.4c0,0,7.5-5.7,17.7-6c10.2-0.3,32.7,2.7,39,7.2c6.3,4.5,9.6,5.1,17.1,3.6s9.3-13.8,4.8-15.3
							s-9.9,2.1-8.7,4.5c1.2,2.1,4.8,1.5,3.9,2.7c-0.9,1.2-6.3,2.4-8.1-0.3c-1.5-2.7-4.2-11.7,6-13.8c10.2-1.8,21.6,4.5,16.8,18.6
							c-4.8,14.4-25.8,18.3-35.7,18.3C342.3,318.8,318.3,323.6,300,317.6L300,317.6z"/>
						<path id="SvgjsPath6519" d="M386.7,285.2c-3.6-3.9-9.9-6-16.2-4.8c-3.9,0.6-6.3,2.4-7.5,5.1c-1.8,3.6-0.3,8.1,0.9,10.2
							c0.6,1.2,2.1,2.1,4.2,2.4c2.1,0.3,4.8-0.6,5.7-1.8c0.6-0.6,0.3-1.2,0.3-1.5c-0.3-0.9-1.2-0.9-1.8-1.2
							c-0.9-0.3-1.8-0.6-2.1-1.2c-0.3-0.3,0-0.6,0.3-0.9c1.2-1.5,4.2-2.7,6.9-1.8c1.2,0.3,1.8,2.4,1.8,4.5c-0.3,3.6-2.4,7.8-6.3,8.4
							c-7.2,1.5-10.2,0.9-16.2-3.3c-6.9-4.8-30.3-7.8-39.6-7.5c-9,0.3-15.9,4.5-17.7,5.7c-11.4-5.4-23.4-7.2-36.3-5.1
							c-4.5,0.6-9.9,2.1-14.7,3.3c-6.6,1.8-12.6,3.3-15.3,2.7c-2.7-0.6-6-3.3-7.2-6.3c-0.6-1.5-0.9-3.3,0.3-5.4
							c1.8-2.7,5.4-3,6.9-2.1c0.6,0.3,1.8,0.9,1.5,2.1c-0.3,1.2-3,1.8-4.5,2.4c-2.1,0.6-3.3,0.9-3.3,2.4c0,1.2,1.2,2.1,6.3,3.3
							c3.9,0.9,7.2-0.3,9.6-3.3c2.4-3.6,2.4-9.3,0-12.6c-1.5-2.1-5.7-5.4-14.4-2.7c-6.9,2.1-10.8,7.2-10.8,14.1
							c0,11.4,10.5,24.3,22.2,27.9c13.2,4.2,36.6,2.1,50.7,0.9c4.8-0.3,9.6-0.9,10.2-0.6c7.2,2.4,15.3,3,23.1,3c3,0,5.7,0,8.7-0.3
							h0.9c3.6-0.3,6.9-0.6,9.9-0.9c3.9-0.3,7.2-0.6,9.9-0.6c8.4,0,31.5-3.6,36.6-19.2C391.2,292.7,389.1,287.9,386.7,285.2
							L386.7,285.2z M300.3,316.4c-1.2-0.3-4.2,0-11.1,0.6c-13.8,1.2-36.9,3.3-49.8-0.9c-3.6-1.2-6.9-3-9.9-5.7
							c11.4,3.6,24.9,0,34.8-5.7c0.6-0.3,0-0.9-0.3-0.6c-11.4,5.4-24.3,8.7-36.3,4.5c-5.1-5.1-8.7-12-8.7-18.3c0-0.6,0-1.2,0.3-2.1
							c0.3,4.2,2.4,7.2,6,9c0.3,0.3,0.9-0.3,0.6-0.6c-2.7-2.1-4.8-3.9-5.1-7.8c-0.3-2.4,0-4.5,0.9-6.3c1.5-1.8,3.6-3.3,6.9-4.5
							c5.4-1.8,9.6-0.9,11.7,1.8s2.1,6.9,0,9.9c-0.9,1.5-3,3.6-7.2,2.4l-3.6-1.2c0.3,0,0.6-0.3,0.6-0.3c2.4-0.6,5.7-1.8,6-3.9
							c0.6-2.1-0.6-3.9-2.7-4.8c-3-1.2-7.2-0.6-9.9,3c-1.5,2.1-1.5,4.8-0.6,7.5c1.5,3.6,5.4,6.9,8.7,7.8c3.3,0.6,9.3-0.9,16.2-2.7
							c2.4-0.6,5.1-1.2,7.8-1.8c-0.3,0.3-0.6,0.3-0.9,0.6c-9.3,5.7-17.4,7.5-28.5,5.7c-0.6,0-0.9,0.6-0.3,0.9c6,2.1,12.6,2.1,18.9,0
							c6-2.1,10.8-6,16.5-8.4c0.3,0,0.9-0.3,1.2-0.3c12.6-1.8,24.3-0.3,35.4,5.4l0.6,0.3l0.6-0.3c0,0,7.5-5.4,17.1-5.7h2.4
							c8.1,9.9,23.1,18.6,36,18.3c0.6,0,0.6-0.6,0-0.6c-13.8-1.8-23.7-9.3-34.2-17.4c4.5,0.3,10.5,0.9,15.9,1.8
							c13.8,6,23.7,17.1,39.6,15.9c-7.5,4.2-17.4,6.3-24,6.3c-1.2,0-2.4,0-3.6,0.3c-11.1-1.8-20.1-5.1-30.3-11.4
							c-0.3-0.3-0.6,0.3-0.3,0.6c6,5.4,14.1,9.6,22.5,11.4c-3.9,0.3-8.1,0.6-12.6,0.9c-8.7-2.4-15.9-5.7-23.1-12
							c-0.3-0.3-0.6,0-0.3,0.3c4.2,5.1,10.5,9.3,17.4,11.7C314.1,319.4,306.9,318.5,300.3,316.4L300.3,316.4z M386.4,299.9
							c-1.5,4.2-4.5,7.5-8.4,10.2c-9.6,0-18-1.8-26.1-7.2c-3.3-2.1-6-4.5-9.3-6.3c5.4,1.2,9.9,2.7,12.3,4.2c6.6,4.5,10.2,5.4,18,3.6
							c5.1-1.2,7.8-6.3,8.1-10.5c0.3-2.7-0.6-5.1-2.1-6.3c-2.4-3.6-7.2-5.4-11.4-2.7c-0.3,0.3,0,0.9,0.3,0.6
							c2.7-0.6,5.7-0.6,8.1,0.9c-3-0.3-6,0.9-7.8,2.7c-0.9,1.2-1.2,2.4-0.6,3.6s1.8,1.8,3,2.1c-0.6,0.3-1.8,0.6-3,0.3
							c-0.6,0-1.8-0.3-2.1-1.2c-0.9-1.8-2.1-5.4-0.6-8.1c0.9-2.1,3-3.3,6-3.9c5.1-0.9,9.9,0.3,12.9,3c2.1,3.6,3,6.9,0.6,10.8
							c-2.1,3.9-6.3,5.7-9.6,8.1c-0.6,0.3-0.3,1.2,0.3,0.9c5.4-1.8,11.1-7.5,12-13.2C387.6,294.8,387.3,297.2,386.4,299.9
							L386.4,299.9z M295.8,302.9c-7.5,9.9-17.7,12.6-29.4,14.4c-0.3,0-0.3,0.6,0,0.6c11.4-0.6,24-4.5,30.3-14.7
							C296.7,302.9,296.1,302.6,295.8,302.9L295.8,302.9z M289.5,301.4c-12.6,10.2-26.4,14.1-42.3,12.9c-0.6,0-0.6,0.6,0,0.9
							c15.3,2.7,31.8-2.4,42.9-13.2C290.4,301.7,289.8,301.1,289.5,301.4L289.5,301.4z"/>
					</g>
				</g>
				<g id="svga-group-nose-single-move" transform="matrix(1,0,0,1,1,0)">
					
						<g id="svga-group-nose-single" transform="matrix(1.1500005000000004,0,0,1.1500005000000004,-14.95562217093854,-14.023367323930785)">
						<path id="SvgjsPath3822" class="st0" d="M285.6,262.6c-4.3,3.4-19.8,2.5-24.3-3.5c-4.5-6-3.7-16.1-2.1-26.2
							c1.6-10.1,9.7-52,11.2-55.1c1.6-3.1,5.2-3.5,7.2,0c1.9,3.5,10.3,49.9,11.2,61.4C289.8,250.6,291.4,258,285.6,262.6
							L285.6,262.6z"/>
						<path id="SvgjsPath3823" d="M261.2,262.5c7,3.5,15.3,7.1,23,3.4c8-3.8,8-12.2,7.1-19.9c-2.9-23.3-6.9-46.4-11.9-69.4
							c-0.6-2.8-5-1.6-4.3,1.2c3.6,16.8,6.7,33.7,9.3,50.7c1.2,8.2,4,17.8,2.8,26c-1.9,12.8-16.1,7.8-23.7,4.1
							C260.8,257.4,258.6,261.3,261.2,262.5L261.2,262.5z"/>
					</g>
				</g>
				
					<g id="svga-group-hair-front" transform="matrix(0.9599997000000001,0,0,0.9997997000000002,3.9966930303928194,0.010043475113285183)">
				</g>
				<g id="svga-group-glasses-single-move" transform="matrix(1,0,0,1,0,5)">
					<g id="svga-group-glasses-single">
						<path id="SvgjsPath7716" class="st5" d="M277,261.3c-3.1,2.2-74.5,2.8-76.6,0c-2.1-2.8-3.5-29.6-1.2-31.5
							c2.3-1.9,76.6-1.4,78.9,0.9C280.5,233.1,279.6,259.5,277,261.3z"/>
						<path id="SvgjsPath7717" class="st5" d="M321.8,261.3c3.1,2.2,74.6,2.8,76.6,0c2.1-2.8,3.5-29.6,1.2-31.5
							c-2.3-1.9-76.6-1.4-78.9,0.9C318.3,233.1,319.2,259.5,321.8,261.3L321.8,261.3z"/>
						<path id="SvgjsPath7718" d="M406.2,233.4c-0.3-2.8-1.6-5.6-4.9-5.6c-0.2,0-0.4,0.1-0.7,0.1c-1.1-0.6-6-1.7-40.7-1.4
							c-38.7,0.4-40.3,1.9-41,2.7c-1.1,1.1-1.7,4.4-1.9,8.1c-14.1-4.8-29.2-2.2-35.5-0.8c-0.2-3.4-0.8-6.3-1.8-7.3
							c-0.8-0.8-2.3-2.3-41-2.7c-32.9-0.3-39,0.7-40.4,1.3c-0.5-0.2-1-0.2-1.4-0.1c-4,0.9-5.2,5.9-3.2,9c0.5,0.8,1.3,1.3,2.1,1.4
							c-0.2,9.5,1.3,22.5,2.8,24.5c1.6,2.1,17.3,2.8,34.4,2.8c20.8,0,43.6-1.1,45.3-2.4c0.8-0.6,2.2-1.6,3.1-11.9
							c0-0.4,0.4-5.1,0.4-10.1c5.3-1.3,21.3-4.4,35.2,0.9c0,4.7,0.3,8.8,0.4,9.2c0.8,10.3,2.2,11.3,3,11.9
							c1.7,1.2,24.5,2.4,45.3,2.4c17.1,0,32.9-0.8,34.4-2.8c1.6-2.1,3.2-16.3,2.8-25.9C404.7,236.6,406.5,235.3,406.2,233.4
							L406.2,233.4z M275.6,259.5c-7.4,1.9-66.4,2.1-73.5,0.1c-1.5-4.1-2.4-23.7-1.3-27.9c8.3-1.5,68.4-0.8,75.8,0.8
							C277.9,236.6,277.2,255.8,275.6,259.5z M396.7,259.6c-7.1,1.9-66.1,1.8-73.5-0.1c-1.6-3.7-2.3-23.5-1.1-26.9
							c7-1.7,67.6-2.3,75.9-0.9C399.1,235.9,398.2,255.7,396.7,259.6L396.7,259.6z"/>
					</g>
				</g>
			</g>
		</g>
	</g>
	<rect id="svga-credit-rect" y="555" class="st6" width="600" height="45"/>
</g>
</svg>
