<svg xmlns="http://www.w3.org/2000/svg" version="1.1" width="600px" height="600px" viewBox="0 0 200 200" style="overflow:hidden!important;"><defs id="SvgjsDefs10629"><linearGradient id="SvgjsLinearGradient11443" x1="79.3288" y1="71.8854" x2="79.3288" y2="104.7359" gradientUnits="userSpaceOnUse" class="svga-on-canvas-glasses-gradient-single-0-null"><stop id="SvgjsStop11444" stop-opacity="1" stop-color="#ffffff" offset="0.0708" ></stop><stop id="SvgjsStop11445" stop-opacity="0" stop-color="#ffffff" offset="1" ></stop></linearGradient><linearGradient id="SvgjsLinearGradient11447" x1="34.9103" y1="71.8854" x2="34.9103" y2="104.7359" gradientTransform="matrix(-1 0 0 1 155.3625 0)" gradientUnits="userSpaceOnUse" class="svga-on-canvas-glasses-gradient-single-1-null"><stop id="SvgjsStop11448" stop-opacity="1" stop-color="#ffffff" offset="0.0708" ></stop><stop id="SvgjsStop11449" stop-opacity="0" stop-color="#ffffff" offset="1" ></stop></linearGradient></defs><g id="svga-group-wrapper"><g id="svga-group-backs-single"><path id="SvgjsPath11688" d="M0 0h200v200H0V0z" fill="#ffffff" stroke-width="none" opacity="1" stroke="none"></path></g><g id="svga-group-humanwrap-move" transform="matrix(1,0,0,1,0,0)"><g id="svga-group-humanwrap" transform="matrix(1.0000001,0,0,1.0000001,-0.000009984998328604888,-0.0000121831472483791)"><g id="svga-group-hair-back-move" transform="matrix(1,0,0,1,0,0)"><g id="svga-group-hair-back" transform="matrix(1.0400003000000002,0,0,1.0002003000000002,0,0)"></g></g><g id="svga-group-humanbody-back"><path id="SvgjsPath11020" d="M77.6 118.3c0 19.3 3.4 44.1-10 51.9-13.4 7.9-31.9 11.3-37.8 22s-4.4 25.3-4.4 25.3h149.3s.7-18.9-5.1-26.4c-8.1-10.4-27.8-15.5-37.7-20.9s-13.4-25.1-13.4-52.4l-40.9.5z" fill="#ffffff" stroke-width="none" opacity="1"></path></g><g id="svga-group-chinshadow-single"></g><g id="svga-group-humanbody-front"><path id="SvgjsPath11021" d="M175.8 218.7H24.4l-.1-1c-.1-.6-1.5-15.1 4.5-26 4.1-7.4 13.5-11.3 23.5-15.5 5-2.1 10.2-4.3 14.8-6.9 10.6-6.2 10.1-23.9 9.6-41-.1-3.5-.2-6.8-.2-10v-1.1l43.2-.4v1.1c0 29.9 4.2 46.7 12.8 51.4 2.9 1.6 6.7 3.2 10.8 4.9 10 4.1 21.3 8.8 27.2 16.3 6.1 7.7 5.4 26.4 5.4 27.1l-.1 1.1zm-149.3-2.2h147.1c0-4.1-.2-18.5-4.9-24.6-5.5-7-16.6-11.6-26.3-15.6-4.1-1.7-8-3.3-11-5-5.1-2.8-8.7-8.9-10.9-18.7-2-8.4-2.9-19.4-3-33.5l-38.6.4c0 2.8.1 5.7.2 8.8.5 17.8 1 36.1-10.7 43-4.7 2.7-9.9 4.9-15 7.1-9.6 4-18.7 7.8-22.4 14.5-5 8.6-4.7 20.1-4.5 23.6z" fill="#000000" stroke-width="none" opacity="1"></path><path id="SvgjsPath11022" d="M93.9 153.8c-.5 1.8-.4 3.4.5 5.2.8 1.6 2.1 2.7 3.9 2.9.4 0 .7-.5.5-.8-1.6-2.2-3.5-4.2-3.7-7.1 0-.7-1-.9-1.2-.2z" fill="#000000" stroke-width="none" opacity="1"></path><path id="SvgjsPath11023" d="M112.5 187.5c8.8.5 18.1-.7 26.6-2.9.7-.2.6-1.4-.2-1.3-8.8 1.1-17.7 2-26.5 3.3-.5.1-.3.9.1.9z" fill="#000000" stroke-width="none" opacity="1"></path><path id="SvgjsPath11024" d="M63.1 182.5c3.8.9 7.6 1.9 11.5 2.8 3.6.8 7.4 2 11.1 2.1.7 0 .8-.9.2-1.2-3.5-1.4-7.5-1.7-11.2-2.5-3.8-.7-7.5-1.3-11.3-2-.5 0-.7.7-.3.8z" fill="#000000" stroke-width="none" opacity="1"></path></g><g id="svga-group-clothes-single"><path id="SvgjsPath11655" d="M71.6 164.7s3-7.6 3.5-10.7h1.2s10.7 16.1 21.4 23.9c0 0 16-9.8 25.6-21.8 0 0 6 11.3 9.5 18.3l-13.6 44.3H82.8l-17.4-39.1 6.2-14.9z" fill="#ffffff" stroke-width="none" opacity="1"></path><path id="SvgjsPath11656" d="M71.6 164.7s-3.1 2.7-6.4 3.9-7 2.9-7 2.9l1.5 1.4s-8.3 3.3-11.4 3.9-16.9 6.6-16.9 6.6-2.7-1.2-4.3 0-4.1 15.4-4.1 17.5v17.9h63.6c.1-.1-10.5-30.6-15-54.1z" fill="#ffffff" stroke-width="none" opacity="1"></path><path id="SvgjsPath11657" d="M128.1 164.7s3.1 2.7 6.4 3.9 7 2.9 7 2.9l-1.4 1.4s8.3 3.3 11.4 3.9 16.9 6.6 16.9 6.6 2.7-1.2 4.3 0 3.9 15.3 3.9 17.4v17.9H113s10.6-30.5 15.1-54z" fill="#ffffff" stroke-width="none" opacity="1"></path><path id="SvgjsPath11658" d="M173.3 182.7c-1.7-1.2-4-.6-4.9-.3-2.3-1-13.9-5.9-16.8-6.5-2.2-.4-7.3-2.4-9.8-3.3l.4-.4c.2-.2.3-.6.3-.9-.1-.3-.3-.6-.6-.7 0 0-3.8-1.7-7.1-2.9-3.1-1.2-6.1-3.7-6.1-3.7-.1-.1-.1-.1-.2-.1-2.3-4.4-4.3-8.1-4.3-8.2-.2-.3-.4-.5-.8-.5-.3 0-.7.1-.9.4-8.4 10.4-21.9 19.3-24.8 21.2-10.3-7.7-20.5-23.1-20.6-23.2-.2-.3-.5-.4-.8-.4h-1.2c-.5 0-.9.4-1 .8-.4 2.7-2.9 9-3.4 10.3-.7.6-3.3 2.6-5.9 3.6-3.3 1.2-7 2.9-7.1 2.9-.3.1-.5.4-.6.7-.1.3 0 .7.3.9l.4.4c-2.5 1-7.6 2.9-9.8 3.3-2.9.6-14.5 5.5-16.8 6.5-1-.3-3.2-1-4.9.3-2.2 1.7-4.3 16.6-4.3 18.1v17.9c0 .6.5 1 1 1h51.4c.1.1.2.1.3 0h95.5c.1.1.3.1.4 0h6.1c.6 0 1-.4 1-1V201c0-1.7-2.1-16.6-4.4-18.3zm-50.1-24.8c.8 1.5 2.2 4.3 3.8 7.3-1.9 9.6-4.8 20.4-7.5 29.7-2.6-2.9-8.7-9.8-11.2-12.2-2.2-2.2-6.1-4.1-8.3-5 4.2-2.8 15.4-10.7 23.2-19.8zm-20.1 59.8h-3.8c1.1-.9 2.1-1.9 3.1-2.9 1.2-1.1 2.3-2.2 3.4-3.4.1 1.2.2 2.3.3 3.3l-1.7 1.7-1.3 1.3zm-.9-3.5c-1.2 1.2-2.6 2.3-3.8 3.5h-2.8c3.4-3.1 6.7-6.3 9.8-9.7l.3 2.7c-1.2 1.1-2.3 2.3-3.5 3.5zm-10.8-32.9 1.5-.6c-.1.3-.3.6-.4.9-.2.4-.4.7-.5 1.1l-.6-1.4zm1.6.4c.2-.4.4-.8.6-1.3l1.5-.6c-.9 1.3-1.9 2.9-2.5 4.4l-.4-.9c.4-.5.6-1.1.8-1.6zm3.4 11.9c-.6.7-1.2 1.4-1.7 2.1.2-.9.4-1.7.6-2.3.3.1.7.2 1.1.2zm9.2-10.7c0 .1-.1.3-.2.5-1.9 2.7-3.8 5.5-5.6 8.4h-1.4c1.9-3.3 3.8-6.6 5.8-9.8.5.3 1 .6 1.4.9zm-4.1 10.8c.4 0 .8-.1 1.2-.1 0 .1.1.2.1.4-.1-.1-.1-.1-.2 0-.3.3-.6.6-.9.8-.1-.4-.2-.8-.2-1.1zm-2.8 4.8 1.2-1.2c.1 1.2.2 2.3.2 3-.4.4-.9.8-1.3 1.2-.1-.9-.1-1.9-.1-3zm3-3.2c.4-.4.7-.8 1.1-1.2v-.1c.2.8.5 1.9.8 3.1-.5.5-1.1.9-1.6 1.4-.1-.9-.2-2.1-.3-3.2zm-3 2.1c0-.9.1-1.8.1-2.8.2-.2.4-.4.7-.6.1.7.2 1.5.3 2.4-.4.3-.7.7-1.1 1zm.2-3.6h.1c-.1 0-.1.1-.1.1v-.1zm-4.5 3.3c.3-.4.6-.9.9-1.2.5-.7 1.1-1.4 1.6-2.1-.1.7-.1 1.4-.2 2.1-1 .9-1.9 1.9-2.8 2.9.2-.6.3-1.2.5-1.7zm-.8 3.2c1.1-1.2 2.1-2.3 3.2-3.5v2.5c-1.3 1.3-2.5 2.6-3.8 3.9.1-.8.3-1.8.6-2.9zm-.9 4.5c0-.1 0-.3.1-.4 1.3-1.3 2.7-2.6 4-3.9.1 1.1.1 2 .2 2.7-1.5 1.4-3 2.8-4.4 4.2-.1-1.1 0-2 .1-2.6zm-.3 7.8c4-3.8 8.1-7.6 12-11.5.2.9.3 1.8.5 2.6v.1c-4.3 3.8-8.5 7.8-12.5 12v-3.2zm0-1v-3.3c1.5-1.4 3.1-2.8 4.6-4.2.1.5.5.9 1 .9h.1c.6-.1.9-.6.9-1.1 0 0-.1-.6-.1-1.5.4-.4.9-.8 1.3-1.2 0 .5.5.9 1 .9.6 0 1-.4 1-1 0-.1 0-.8-.1-1.7.6-.5 1.1-1.1 1.6-1.6.2.9.4 1.9.7 3-4.3 3.1-8.4 6.8-12 10.8zm11.4-23.4c-.1.4-.3.7-.4 1.1-.5.8-1 1.5-1.5 2.3-.5.1-.9.1-1.3.1.8-1 1.4-2.2 2-3.2.8-1.2 1.5-2.4 2.2-3.5-.3 1-.7 2.2-1 3.2zm.2-6.3c-2.3 3.1-4.4 6.4-6.2 9.9-.8-.1-1.4-.2-1.7-.3 2.6-2.8 4.5-6.6 6.1-10 .1-.2-.2-.4-.3-.2-1.9 3.4-4.3 6.6-6.1 9.9v.1c-.1 0-.2-.1-.2-.1l-.6-1.5c2.2-2.9 4.1-6.2 5.9-9.3.1-.2-.2-.4-.3-.2-2 2.9-4.1 5.8-5.9 8.9l-.4-.9c1.6-2.8 3.2-5.5 4.9-8.3.1-.1-.1-.3-.2-.1-1.8 2.4-3.5 5.1-4.9 7.8l-.4-1.1c1.4-2.4 2.7-4.9 4.3-7.3.1-.1-.1-.3-.2-.1-1.5 2.1-3.1 4.4-4.3 6.8l-.4-1c.4-.8.8-1.7 1.2-2.5.5-1 1.1-1.9 1.7-2.8.8-.3 1.4-.5 1.9-.7.8.3 3.6 1.5 6.1 3zm-28.1-26.8c1.9 2.9 10.6 15.2 19.8 22.4-2.4.9-6.7 2.5-8.4 3.7-1.8 1.2-6.1 6.7-8.3 9.6-2.4-8.4-4.8-17.6-6.4-25.9.5-1.4 2.6-6.6 3.3-9.8zm-50.8 38.3c2.1-2.3 4.3-4.6 6.3-7 .2.5.4 1.1.6 1.8-2.5 2.6-5 5.2-7.4 7.9.2-.8.3-1.7.5-2.7zm-1.1 7.5c0-.1 0-.1 0 0 3-3.1 6-6.2 8.9-9.4.3 1.1.6 2.3.9 3.6-3.6 2.8-6.8 6.4-9.8 9.9v-4.1zm.1-.9c.1-.8.2-1.8.4-3.1 2.6-2.6 5.1-5.4 7.7-8.1.2.6.3 1.2.5 1.9-2.9 3.1-5.8 6.2-8.6 9.3zm3.5-15.7c.8-.6 2.2-.3 3 0 .1.3.3.8.6 1.6-2 2.1-4 4.4-5.9 6.7.7-3.9 1.6-7.7 2.3-8.3zm-.1 33.4c.8-.6 1.5-1.2 2.1-2 .1-.1-.1-.3-.2-.2-1 .6-1.8 1.5-2.5 2.3H24h.1c1.6-1.8 3.4-3.5 4.8-5.4.1-.2-.1-.4-.3-.2-1.7 1.5-3.1 3.3-4.6 5v-3.1c2-2.2 4-4.3 5.7-6.6.1-.1-.1-.3-.3-.2-2 1.9-3.7 4-5.5 6v-3c2.6-2.7 5.3-5.4 7.6-8.4.1-.2-.1-.3-.3-.2-2.6 2.4-5 5.2-7.3 7.9v-3.7c3.2-3.4 6.8-6.5 10-9.9 0 .1.1.2.1.3 2 8.3 2.6 18.7 2.8 21.6l-9.3-.2zm8.5-22.1c-1.6-6.8-2.8-10.1-3.4-11.6 5-2.1 13.6-5.7 15.8-6.1 2.2-.4 7-2.2 9.6-3.2 0 .2-.1.3-.1.5 0 .1.2.2.2.1.1-.2.2-.5.3-.7.3-.1.6-.2.8-.3l.2.2c-.9 1.3-1.8 2.7-2.4 4.1-.1.2.2.3.3.2.9-1.2 1.7-2.6 2.4-4l.5.4c-.6 1-1.2 2.1-1.7 3.2l-2 1.2c-.4.3-.6.9-.3 1.3l.7 1.3c-.3.7-.7 1.4-.8 2.1 0 .1.2.2.2.1.3-.5.6-1.1.9-1.7l.7 1.3c-.4.9-.9 1.8-1.1 2.7 0 .2.2.3.3.1.4-.8.7-1.7 1-2.5l.6 1.2c-.5 1.1-1 2.2-1.4 3.4 0 .2.2.3.3.1.5-1 .9-2 1.3-3.1l.6 1.2c-.7 1.3-1.5 2.6-2 4-.1.2.2.3.3.1.8-1.2 1.3-2.5 1.9-3.8l.5 1c-.3.7-.6 1.4-1 2.1-.3.7-.7 1.4-.9 2.1 0 .2.2.2.3.1.4-.6.7-1.4 1-2.1.3-.6.5-1.3.8-1.9l.9 1.7c-.3.6-.6 1.2-.8 1.8-.3.6-.7 1.3-.8 2 0 .1.2.3.3.2.5-.6.7-1.4 1-2.1.2-.5.4-.9.6-1.4l.8 1.6c-.6 1.4-1.2 2.8-1.4 4.2 0 .2.3.2.3.1.7-1.1 1-2.4 1.4-3.7l1 1.8c-.5 1.4-1.1 2.8-1.5 4.2-.1.2.2.3.4.2.7-1.1 1.2-2.4 1.4-3.8l1.1 2c-.5 1.4-1 3-1.1 4.4 0 .2.2.2.3.1.6-1.2.8-2.6 1.1-3.9l.9 1.7c-.6 1.5-1.4 3.1-1.8 4.7 0 .2.2.3.3.1.7-1.3 1.2-2.9 1.7-4.3l.8 1.6c-.7 1.7-1.3 3.4-1.9 5.1-.1.3.3.4.5.2.1-.1.2-.2.2-.3.1-.1 0-.2-.1-.2.5-1.4 1-2.9 1.5-4.3l1 1.8c-.8 1.4-1.4 3-1.8 4.5-.1.3.4.4.5.1.5-1.4.9-2.9 1.5-4.3l2.2 4.3c-.6 1.6-1.3 3.2-1.7 4.9-.1.2.3.4.4.2.7-1.4 1.1-3 1.5-4.5l1.4 2.6c-.8 1.9-1.5 3.8-2.1 5.7v.1h-32c.3-2.9-.3-13.6-2.4-22.2zm25.9-19.5-2.3 1.5 1.2-2.4 1.1.9zm12 41.6c.2-.5.3-1 .4-1.5.1-.4.2-.7.3-1.1l.7 1.3c-.2.4-.3.8-.4 1.2l-1 .1zm-.1-1.6c-.2.5-.4 1.1-.5 1.6h-1.9c.7-1.7 1.3-3.4 1.8-5.2l1.1 2.1c-.1.5-.3 1-.5 1.5zm1.7 1.6c.1-.2.1-.4.2-.6l.3.6h-.5zm2.7 0-19.6-37.2L69 174c.5-.3.6-.9.3-1.4-.3-.5-.9-.6-1.4-.3l-4.2 2.7-3.4-2.8-.4-.4c1.4-.6 3.6-1.5 5.6-2.3 2.1-.8 4.1-2.1 5.4-3.1 1.7 8.6 4.2 17.9 6.6 26.3-.1.3 0 .6.3.9 3.2 11.2 6.3 20.6 7.5 24l-7.1.1zm9.2 0c-.9-2.6-4.2-12.5-7.7-24.6 2.2-2.9 7.1-9.2 8.7-10.3.3-.2.7-.4 1.2-.7l4 9.8c-.5 1.7-2.5 9.2-3 12.6-.2 1.1-.2 2.9-.3 4.7-.1.1-.1.3 0 .4v4.1l-.3.3c-.2.2.1.5.3.4 0 1.4.1 2.5.1 3.2l-3 .1zm5.1-1c4.2-4.1 8.2-8.3 12.5-12.2.1.9.3 2 .4 3.1-3.5 3.5-7.1 6.9-10.7 10.2h-2.1c-.1-.4-.1-.7-.1-1.1zm11.5 1c.3-.3.6-.7.8-1 .4-.5.9-1 1.3-1.5.1 1 .2 1.9.2 2.5H104zm8.3 0h-3.9c-.2-2.6-.9-10.1-1.5-14.3-.7-4.5-2.1-9.8-2.4-11 .2-.6.7-2.1 1.2-3.5.8-2.2 1.3-3.6 1.6-4.5 3 3 9.9 10.9 11.6 12.8-3.1 10.1-5.8 18.2-6.6 20.5zm2.1 0c2-6 10.2-30.9 14.3-51.2 1.3.9 3.3 2.3 5.4 3.1 2 .8 4.3 1.7 5.6 2.3l-.4.4-3.3 2.7-4.2-2.7c-.5-.3-1.1-.2-1.4.3s-.2 1.1.3 1.4l10.3 6.6-19.6 37.2-7-.1zm9.3 0 19.5-37c.2-.5.1-1-.4-1.3l-5.1-3.2 2.5-2c1.9.8 8.3 3.2 11 3.8 2.2.4 10.8 4 15.8 6.1-.6 1.5-1.8 4.8-3.4 11.6-2.1 8.6-2.7 19.2-2.8 22.1l-37.1-.1zm39.4-3.3c2.4-2.2 4.6-4.6 6.9-6.9.2-.2-.1-.4-.3-.3-2.2 2.1-4.4 4.1-6.6 6.3.1-.9.1-1.8.2-2.9.7-.8 1.4-1.6 2.1-2.3 1.2-1.3 2.4-2.6 3.7-3.8.2-.2-.1-.4-.3-.3-1.4 1.3-2.7 2.6-4 3.9-.5.5-.9 1-1.4 1.4.1-.8.2-1.6.3-2.5 1.3-1.5 2.5-3.1 3.8-4.6.2-.2-.1-.5-.3-.3-1.1 1.3-2.2 2.6-3.3 3.8.1-.8.2-1.7.3-2.5.1-.1.2-.3.4-.4.7-.8 1.4-1.6 2.1-2.3.1-.2-.1-.4-.2-.2-.7.7-1.4 1.5-2.1 2.2.2-1 .3-2.1.5-3.1.2-.2.3-.4.5-.6.3-.4.6-.7.9-1.1.1-.2-.1-.3-.3-.2-.4.3-.7.6-1 1l.6-2.7c1.9-7.8 3.1-10.9 3.5-11.8.8-.3 2.2-.6 3 0 1.2 1.2 3.6 14.1 3.6 16.6V217c-.3.2-.6.5-.9.7h-2.3c.9-1 1.7-2 2.6-2.9.2-.2-.1-.5-.3-.3-1.1 1.1-2.2 2.1-3.2 3.2h-3.4c1.9-1.7 3.8-3.5 5.7-5.2.2-.2-.1-.5-.3-.3-2.1 1.9-4.2 3.7-6.2 5.6h-3.7c2.7-2.2 5.2-4.8 7.7-7.2.2-.2-.1-.5-.3-.3-2.7 2.5-5.6 4.8-8.1 7.5h-.1c0-.8 0-2 .2-3.4zm12.5 3.3.1-.1v.1h-.1zM69.4 206.2c-.5 1.7-1.3 3.5-1.5 5.3 0 .2.2.2.3.1.8-1.6 1.1-3.6 1.5-5.3.1-.2-.3-.3-.3-.1z" fill="#000000" stroke-width="none" opacity="1"></path></g><g id="svga-group-head" transform="matrix(1,0,0,1,0,0)"><g id="svga-group-ears-left-move" transform="matrix(1,0,0,1,-3,1)"><g id="svga-group-ears-left" transform="matrix(1,0,0,1,0,0)"><path id="SvgjsPath11853" d="M58.9 77.8s-2.5-2.4-5.4-3.5c-2.9-1.1-6.1.7-7.1 3.7-1 2.9 1.3 15.1 5 19.5s6.2 4.8 8.7 2.5c2.6-2.4 7-10.8-1.2-22.2z" fill="#ffffff" stroke-width="none" opacity="1"></path><path id="SvgjsPath11854" d="M56.8 102.3c-1.9-.1-3.8-1.5-6.1-4.2-3.9-4.7-6.3-17.1-5.2-20.5.6-1.8 1.9-3.3 3.6-4.1 1.5-.7 3.2-.8 4.8-.2 3.1 1.2 5.6 3.6 5.7 3.7l.1.1c8.7 12.2 3.5 21.2 1.1 23.5-1.2 1.1-2.4 1.6-3.7 1.6-.1.1-.2.1-.3.1zm-3.6-27.1c-1.3-.5-2.5-.2-3.2.1-1.2.6-2.1 1.6-2.6 2.9-.8 2.5 1.3 14.3 4.9 18.5 1.9 2.3 3.4 3.4 4.7 3.5.8.1 1.6-.3 2.5-1.1 2.1-1.9 6.5-9.8-1.3-20.7-.4-.3-2.6-2.2-5-3.2z" fill="#000000" stroke-width="none" opacity="1"></path><path id="SvgjsPath11855" d="M50.2 77.4c3.3.6 5.4 6.1 6 9.8.1.1.1.2.2.3.4.6-.4 1.2-.8.6-.5-.8-1-1.6-1.8-1.9-1.4-.5-2.1 1.1-1.8 2.6.4 1.9 1.6 3 2.6 4.4.1.1 0 .3-.1.2-1.7-1-4.3-4.8-3.1-7.2.9-1.7 2.3-1.4 3.4-.4-.8-2.1-1.4-4.3-3-5.9-.5-.5-1.5-1.4-2.2-1.3-1.3.2-1.3 2.1-1.3 3.4-.1 1.7.1 3.4.4 5 0 .2-.2.2-.3.1-.6-2.4-2-10.4 1.8-9.7z" fill="#000000" stroke-width="none" opacity="1"></path></g></g><g id="svga-group-ears-right-move" transform="matrix(1,0,0,1,3,1)"><g id="svga-group-ears-right" transform="matrix(1,0,0,1,0,0)"><path id="SvgjsPath11856" d="M141.1 77.8s2.5-2.4 5.4-3.5c2.9-1.1 6.1.7 7.1 3.7 1 2.9-1.3 15.1-5 19.5s-6.2 4.8-8.7 2.5c-2.6-2.4-7-10.8 1.2-22.2z" fill="#ffffff" stroke-width="none" opacity="1"></path><path id="SvgjsPath11857" d="M142.9 102.3c-1.3 0-2.5-.5-3.7-1.6-2.5-2.2-7.6-11.3 1.1-23.5l.1-.1c.1-.1 2.7-2.5 5.7-3.7 1.5-.6 3.2-.5 4.8.2 1.7.8 3 2.3 3.6 4.1 1.1 3.3-1.3 15.8-5.2 20.5-2.3 2.7-4.2 4.1-6.1 4.2-.1-.1-.2-.1-.3-.1zm-1.1-23.9c-7.8 10.9-3.4 18.8-1.3 20.7.9.8 1.7 1.2 2.5 1.1 1.3-.1 2.8-1.2 4.7-3.5 3.5-4.2 5.7-16.1 4.9-18.5-.4-1.3-1.4-2.4-2.6-2.9-.7-.3-1.9-.6-3.2-.1-2.4 1-4.6 2.9-5 3.2z" fill="#000000" stroke-width="none" opacity="1"></path><path id="SvgjsPath11858" d="M149.8 77.4c-3.3.6-5.4 6.1-6 9.8-.1.1-.1.2-.2.3-.4.6.4 1.2.8.6.5-.8 1-1.6 1.8-1.9 1.4-.5 2.1 1.1 1.8 2.6-.4 1.9-1.6 3-2.6 4.4-.1.1 0 .3.1.2 1.7-1 4.3-4.8 3.1-7.2-.9-1.7-2.3-1.4-3.4-.4.8-2.1 1.4-4.3 3-5.9.5-.5 1.5-1.4 2.2-1.3 1.3.2 1.3 2.1 1.3 3.4.1 1.7-.1 3.4-.4 5 0 .2.2.2.3.1.6-2.4 2-10.4-1.8-9.7z" fill="#000000" stroke-width="none" opacity="1"></path></g></g><g id="svga-group-faceshape-wrap" transform="matrix(1.0400003000000002,0,0,1.0002003000000002,-4.000029847410985,-0.016795153930289075)"><g id="svga-group-faceshape-single"><path id="SvgjsPath11127" d="M142.4 53.6c-2.3-11.4-15.1-28.8-42.4-28.8S63.6 38.2 59.6 48.1c-2.5 6.2-3.2 15.2-3.4 19.7 0 0 .5 33.6 2.2 41.1 1.8 7.4 11.2 32.6 35.6 33.9 21.8 1.1 35.2-11.4 41.9-27 6.7-15.6 7.8-48 7.8-48 .1-3.2-.2-8.9-1.3-14.2z" fill="#ffffff" stroke-width="none" opacity="1"></path><path id="SvgjsPath11128" d="M96.8 144c-.9 0-1.9 0-2.8-.1-10.8-.6-19.9-5.6-27.1-15.1-5.2-6.8-8.4-14.9-9.5-19.7-1.8-7.5-2.2-39.9-2.3-41.3.2-4.8.9-13.8 3.4-20.1 6.6-16.2 20.1-24 41.5-24 12.3 0 23.2 3.6 31.3 10.4 6.3 5.2 10.9 12.5 12.2 19.3 1.1 5.5 1.3 11.4 1.4 14.4 0 1.3-1.2 32.8-7.9 48.4-4.5 10.6-15.7 27.8-40.2 27.8zM57.3 67.9c0 1.2.5 33.7 2.2 40.8 1.1 4.6 4.1 12.3 9.1 18.8 6.8 8.9 15.3 13.7 25.4 14.2 25.1 1.3 36.4-15.9 40.8-26.3 6.5-15 7.7-46.4 7.7-47.5 0-3-.3-8.7-1.4-14-1.3-6.4-5.6-13.1-11.5-18-7.7-6.5-18-9.9-29.9-9.9-20.3 0-33.2 7.4-39.4 22.6-2.1 5.9-2.8 14.6-3 19.3z" fill="#000000" stroke-width="none" opacity="1"></path></g></g><g id="svga-group-mouth-single-move" transform="matrix(1,0,0,1,0,-1)"><g id="svga-group-mouth-single" transform="matrix(1,0,0,1,0,0)"><path id="SvgjsPath11904" d="M114.35 121.31c-.22.11-.44.19-.66.28-3.57-1.77-7.08-3.68-10.51-5.71-.04-.14-.18-.26-.34-.17-1.1.6-2.21 1.19-3.31 1.79-.02-.01-.02-.03-.04-.04l-2.43-.99c.06-.18-.13-.41-.35-.29a43.686 43.686 0 0 0-7.65 5.34c-.83-.16-1.65-.38-2.46-.67-.59-.21-.85.73-.26.94 1.15.41 2.32.7 3.5.86 2.82 2.94 6.19 6.18 10.56 6.03 4.15-.15 7.24-3.51 10.51-5.65 1.31 0 2.62-.23 3.94-.88.56-.27.06-1.12-.5-.84zM96.6 116.8c.92.38 1.84.75 2.76 1.13.06.03.11.01.16-.01.07.04.14.06.23.01 1.04-.56 2.07-1.12 3.11-1.68 3.32 1.97 6.72 3.82 10.18 5.54-4.09 1.13-8.32-1.32-12.49-1.26-1.98.03-3.86.66-5.79 1.02-1.71.32-3.4.33-5.07.07 2.13-1.83 4.44-3.44 6.91-4.82zm-6 5.94c.96.09 1.93.09 2.9-.01 2.62-.27 5.1-1.32 7.77-1.19 3 .14 5.9 1.28 8.8 1.47-2.76 1.93-5.4 4.57-8.82 5.09-4.36.66-7.81-2.44-10.65-5.36z" fill="#000000" stroke-width="none" opacity="1"></path></g></g><g id="svga-group-eyes-left-move" transform="matrix(1,0,0,1,0,-2)"><g id="svga-group-eyes-left" transform="matrix(1,0,0,1,0,0)"><g id="svga-group-eyesback-left"></g><g id="svga-group-eyesiriswrapper-left"><g id="svga-group-eyesiriscontrol-left" transform="matrix(1,0,0,1,0,0)"><g id="svga-group-eyesiris-left" transform="matrix(1,0,0,1,0,0)"><path id="SvgjsPath12444" d="M75.2 84.6c-1.5 1.9-1.3 4.5.4 6 1.8 1.7 4.9 2.1 7.1.1 1.1-1.1 1.8-2.7 1.5-4.1-.1-.5-.3-1-.6-1.4-.2-.6-.5-1.1-1-1.5-2.1-1.9-5.6-1.5-7.4.9z" fill="#ffffff" stroke-width="none" opacity="1"></path><path id="SvgjsPath12445" d="M79.3 92.3c-1.5 0-2.9-.6-3.9-1.5-1.8-1.7-2-4.4-.4-6.4 1-1.2 2.4-2 4-2.1 1.4-.1 2.8.3 3.8 1.2.5.4.8 1 1.1 1.6.3.4.5 1 .6 1.5.3 1.4-.3 3.2-1.6 4.4-1.1.9-2.4 1.3-3.6 1.3zm-3.9-7.5c-1.4 1.7-1.2 4.1.4 5.6 1.7 1.5 4.7 2 6.6.1 1.1-1.1 1.7-2.6 1.4-3.8-.1-.4-.3-.9-.5-1.3v-.1c-.2-.5-.5-1-.9-1.4-.9-.8-2.1-1.2-3.3-1.1-1.5.2-2.8.9-3.7 2zm4.7 4.9c0-.1-.1-.1-.1-.2 0-.2 0-.4.1-.5.2-.3.4-.4.7-.4.2 0 .4.1.5.2l.2.2c.4-.4.6-.9.6-1.5 0-.5-.2-1-.5-1.3-.2-.7-.8-1.2-1.5-1.4-.4-.1-.9-.1-1.3 0 .3.8-.1 1.9-1.1 1.9-.3 0-.6-.1-.8-.2-.4 1-.2 2.2.7 3 .6.4 1.6.5 2.5.2z" fill="#000000" stroke-width="none" opacity="1"></path></g></g></g><g id="svga-group-eyesfront-left"><path id="SvgjsPath11819" d="M79 72.1c-8.2 0-14.8 6.6-14.8 14.8s6.6 14.8 14.8 14.8 14.8-6.6 14.8-14.8c0-8.1-6.6-14.8-14.8-14.8zm5.9 21.2c-1.8 1.5-4.5 3.2-8.1 3s-7.1-4.5-7.5-6.7c0 0 2.3-3.1 3.8-4.2 1.4-1.1 2.8-3.2 5.8-3.2s5.9.6 7.9 4.6c0-.1-.1 4.9-1.9 6.5z" fill="#ffffff" stroke-width="none" opacity="1"></path><path id="SvgjsPath11820" d="M88.6 83.7c-1.3-2.4-4.2-4.3-7.8-5.3-5.6-1.5-9.6 3.2-10.6 4.6 0 .1-4.6 6.5-4 7.8.1.2.3.4.6.4H67.1c.4.4 1.1.6 1.6.3.1-.1.1-.3 0-.3-.3-.1-.6-.2-.8-.3.4-.2.9-.6 1.5-1.1.8 2.8 2.6 4.9 5.1 6 1.2.6 2.6.8 4 .8 1.7 0 3.4-.4 4.9-1.2 3.2-1.7 4.1-4.9 4.4-7 .2.3.3.7.4.9.2.5.3.8.7.8.2 0 .4-.2.5-.4.4-2 .2-4.1-.8-6zm-11.1-4.4c-.1.8-.1 1.7.3 2.4-.4.1-.8.2-1.2.4l-.3-.9c-.1-.5-.2-.9-.3-1.4.5-.3 1-.4 1.5-.5zm-2.1.6c-.1.8.1 1.8.5 2.4-.4.2-.7.4-1.1.7l-.3-.9c-.1-.5-.2-1-.3-1.6l1.2-.6zm-1.6 1c0 .8.2 1.8.6 2.5-.2.1-.3.3-.5.4l-.7.7c-.1-.3-.2-.5-.3-.8-.2-.6-.3-1.3-.3-1.9l1.2-.9zm-1.7 1.5c-.1.9.1 2 .5 2.8l-.8.8c-.1-.2-.2-.5-.3-.7-.2-.5-.4-1.1-.5-1.6.2-.3.6-.8 1.1-1.3zm-1.6 1.9c.1.8.3 1.6.8 2.2l-.7.7c0-.1-.1-.2-.1-.3-.2-.6-.3-1.3-.4-1.9.1-.3.3-.5.4-.7zm-3.3 5.9c.1-.3.3-.7.6-1.2.1.2.1.4.3.6-.4.2-.7.4-.9.6zm1.4-1.1c0-.4-.1-.7-.2-1.1 0-.1 0-.1-.1-.2.1-.1.1-.2.2-.4.1.3.1.6.2.9 0 .2.1.3.1.5 0 .1-.1.2-.2.3zm.8-.8-.3-1.5-.1-.1c.2-.3.4-.6.5-.9 0 .7.1 1.4.4 2l-.5.5zm13.2 6.4c-2.4 1.3-5.5 1.5-8 .4-1.7-.7-3.8-2.3-4.6-5.8v-.1c.9-.8 2-1.9 3.3-3.2.2.1.4 0 .4-.3v-.1l1-1c2.5-2.5 6.4-2.8 9.3-.7 1.2.9 2 1.9 2.7 3-.1 1-.3 5.7-4.1 7.8zm5.8-6.5c-.2-.5-.5-1-.8-1.6 0-.2-.1-.3-.2-.4-.7-1.1-1.6-2.2-2.8-3.1a8.2 8.2 0 0 0-4.9-1.6c-.4 0-.9 0-1.3.1-.1-.3-.2-.6-.3-1-.1-.4-.1-.9-.1-1.3.8-.1 1.7 0 2.6.2 3.4.9 6 2.6 7.2 4.8.6 1.1.8 2.5.6 3.9z" fill="#000000" stroke-width="none" opacity="1"></path></g></g></g><g id="svga-group-eyes-right-move" transform="matrix(1,0,0,1,0,-2)"><g id="svga-group-eyes-right" transform="matrix(1,0,0,1,0,0)"><g id="svga-group-eyesback-right"></g><g id="svga-group-eyesiriswrapper-right"><g id="svga-group-eyesiriscontrol-right" transform="matrix(1,0,0,1,0,0)"><g id="svga-group-eyesiris-right" transform="matrix(1,0,0,1,0,0)"><path id="SvgjsPath12446" d="M117.2 84.6c-1.5 1.9-1.3 4.5.4 6 1.8 1.7 4.9 2.1 7.1.1 1.1-1.1 1.8-2.7 1.5-4.1-.1-.5-.3-1-.6-1.4-.2-.6-.5-1.1-1-1.5-2.1-1.9-5.6-1.5-7.4.9z" fill="#ffffff" stroke-width="none" opacity="1"></path><path id="SvgjsPath12447" d="M122.1 89.7c0-.1-.1-.1-.1-.2 0-.2 0-.4.1-.5.2-.3.4-.4.7-.4.2 0 .4.1.5.2l.2.2c.4-.4.6-.9.6-1.5 0-.5-.2-1-.5-1.3-.2-.7-.8-1.2-1.5-1.4-.4-.1-.9-.1-1.3 0 .3.8-.1 1.9-1.1 1.9-.3 0-.6-.1-.8-.2-.4 1-.2 2.2.7 3 .7.4 1.7.5 2.5.2zm-.8 2.6c-1.5 0-2.9-.6-3.9-1.5-1.8-1.7-2-4.4-.4-6.4 1-1.2 2.4-2 4-2.1 1.4-.1 2.8.3 3.8 1.2.5.4.8 1 1.1 1.6.3.4.5 1 .6 1.5.3 1.4-.3 3.2-1.6 4.4-1.1.9-2.3 1.3-3.6 1.3zm-3.9-7.5c-1.4 1.7-1.2 4.1.4 5.6 1.7 1.5 4.7 2 6.6.1 1.1-1.1 1.7-2.6 1.4-3.8-.1-.4-.3-.9-.5-1.3v-.1c-.2-.5-.5-1-.9-1.4-.9-.8-2.1-1.2-3.3-1.1-1.5.2-2.8.9-3.7 2z" fill="#000000" stroke-width="none" opacity="1"></path></g></g></g><g id="svga-group-eyesfront-right"><path id="SvgjsPath11821" d="M121 72.1c-8.2 0-14.8 6.6-14.8 14.8s6.6 14.8 14.8 14.8 14.8-6.6 14.8-14.8c0-8.1-6.6-14.8-14.8-14.8zm2.1 24.2c-3.6.2-6.3-1.4-8.1-3-1.8-1.5-1.9-6.5-1.9-6.5 2-3.9 4.9-4.5 7.9-4.6 3 0 4.4 2.1 5.8 3.2 1.4 1.1 3.8 4.2 3.8 4.2-.4 2.1-3.9 6.5-7.5 6.7z" fill="#ffffff" stroke-width="none" opacity="1"></path><path id="SvgjsPath11824" d="M129.8 83.1c-1.1-1.5-5-6.1-10.6-4.6-3.6.9-6.5 2.9-7.8 5.3-1 1.8-1.2 3.9-.5 6.1.1.2.2.3.4.4.2.7.5 1.4 1 1.9.1.1.3 0 .3-.2-.2-.7-.5-1.3-.8-1.9.1-.1.2-.3.3-.6.1-.2.2-.5.4-.9.3 2.1 1.2 5.3 4.4 7 1.5.8 3.2 1.2 4.9 1.2 1.4 0 2.7-.3 4-.8 2.5-1.1 4.3-3.2 5.1-6 1.1 1 1.9 1.4 2.4 1.4h.1c.3 0 .5-.2.6-.4.4-1.4-4.1-7.8-4.2-7.9zm-13.3-2.6c.6-.3 1.2-.5 1.9-.8-.1.6-.3 1.3-.1 1.9-.6.1-1.1.3-1.7.6-.1-.4-.2-.9-.1-1.7.1.1 0 .1 0 0zm-1.8 1.1c.4-.3.9-.6 1.4-.9-.1.6-.1 1.3.1 1.8-.3.2-.5.3-.8.5-.2.2-.5.4-.7.6 0-.1-.1-.2-.1-.3-.1-.5-.1-1 .1-1.5.1-.1.1-.1 0-.2zm-.4.3c-.3.6-.3 1.5 0 2.2-.3.3-.6.6-.9 1l-.3-.6c-.1-.4-.1-.8 0-1.1 0-.1 0-.1-.1-.2.4-.5.8-.9 1.3-1.3zm-2.8 6.3c-.1-.7-.1-1.4.1-2.1.1.4.3.7.5 1-.2.4-.4.8-.6 1.1zm.6-2.6c0-.4 0-.9.1-1.3v-.1c.1-.2.3-.4.4-.6-.1.6 0 1.4.4 1.9-.2.2-.3.5-.5.7-.1.1-.2.2-.3.4l-.1.1c.1-.4.1-.7 0-1.1zm17.9 3.6c-.8 3.5-3 5.1-4.6 5.8-2.5 1.1-5.5 1-8-.4-3.8-2.1-4-6.7-4-7.8.4-.7.9-1.4 1.6-2h.1c.2.1.3-.1.3-.3v-.1c.3-.2.5-.5.8-.7.2-.2.5-.3.8-.5.1.1.2 0 .2-.1 2.7-1.4 6.1-1 8.3 1.3l1.2 1.2c1.2 1.6 2.4 2.7 3.3 3.6zm-2.8-4.2-1.2-1.2c-1.6-1.6-3.6-2.4-5.7-2.4-.5 0-1.1.1-1.6.2.1-.6.1-1.3.1-2 .2-.1.4-.1.6-.2s.4-.1.6-.1c-.1.5-.2 1 0 1.5.1.2.3.2.4 0 .1-.5.1-1.1.1-1.6 4.4-.5 7.5 3.2 8.4 4.5 1.1 1.5 3.3 5.1 3.8 6.5-1.1-.7-3.9-3.5-5.5-5.2z" fill="#000000" stroke-width="none" opacity="1"></path></g></g></g><g id="svga-group-facehighlight-single"></g><g id="svga-group-eyebrows-left-move" transform="matrix(1,0,0,1,0,0)"><g id="svga-group-eyebrows-left-rotate" transform="matrix(0.9978589232386036,-0.0654031292301432,0.0654031292301432,0.9978589232386036,-5.333115979725676,5.197163601430148)"><g id="svga-group-eyebrows-left" transform="matrix(1,0,0,1,0,0)"><path id="SvgjsPath11392" d="M70.67 64.23c3.47-1.02 20.5 4.56 20.86 5.78.36 1.22.7 5.93-.55 6.46-1.25.54-18.75-7.56-20.49-6.88-1.73.68-5.21 6.18-6.11 6.11-.89-.07 4.68-10.99 6.29-11.47z" fill="#ffffff" stroke-width="none" opacity="1"></path><path id="SvgjsPath11393" d="M64.33 76.2c.66.05 1.32-.67 3.04-2.75 1.14-1.38 2.55-3.1 3.32-3.4.9-.21 6.99 2.19 11.01 3.79 6.61 2.62 8.66 3.35 9.42 3.12.03-.01.05-.01.08-.02 1.83-.78 1.11-6.27.87-7.09-.25-.84-3.93-2.22-6.72-3.16a.428.428 0 0 0-.28-.09c-1.18-.38-2.16-.69-2.61-.83-2.81-.84-9.61-2.73-11.92-2.05-1.88.55-6.89 10.55-6.77 11.88.02.42.32.59.56.6zm3.63-7.48 1.89.63c-.41.27-.85.67-1.32 1.15-.53.12-1.07.15-1.61.12.33-.63.68-1.27 1.04-1.9zm3.19.34-2.83-.95c1-1.7 1.95-3.08 2.44-3.35 1.43 1.7 2.77 3.48 4.01 5.31-1.67-.58-2.86-.92-3.62-1.01zm4.75 1.42c-1.33-2.03-2.78-4-4.34-5.87.64-.03 1.48.04 2.46.19l4.06 6.5c-.78-.3-1.51-.57-2.18-.82zm9.08-2.82c1.01 2.41 1.92 4.89 2.71 7.38-1.24-.46-2.7-1.02-4.12-1.58-.99-1.49-1.97-2.91-2.92-4.28-.78-1.13-1.57-2.29-2.38-3.49 2.22.56 4.61 1.27 6.71 1.97zm3.58 7.68c-.77-2.48-1.67-4.96-2.67-7.38 1.11.38 2.11.75 2.93 1.1.67 2.17.98 4.41.96 6.69-.34-.1-.76-.24-1.22-.41zm2.25.64c-.07 0-.18-.01-.29-.04.04-2.21-.24-4.39-.84-6.51.7.32 1.19.59 1.36.78.4 1.49.42 5.35-.23 5.77zm-11.6-4.24-4.23-6.77c.7.13 1.46.29 2.25.47.97 1.44 1.9 2.81 2.81 4.12.76 1.1 1.55 2.24 2.34 3.42-.08-.03-.17-.07-.24-.1-1.06-.41-2.03-.79-2.93-1.14zM65.1 74.51c.31-.8.84-1.96 1.47-3.21.41.05.82.04 1.24 0-.43.49-.86 1.01-1.29 1.53-.44.54-.98 1.19-1.42 1.68z" fill="#000000" stroke-width="none" opacity="1"></path></g></g></g><g id="svga-group-eyebrows-right-move" transform="matrix(1,0,0,1,0,0)"><g id="svga-group-eyebrows-right-rotate" transform="matrix(0.9914448613738104,-0.1305261922200518,0.1305261922200518,0.9914448613738104,-7.266195850751842,16.485736375059062)"><g id="svga-group-eyebrows-right" transform="matrix(1,0,0,1,0,0)"><path id="SvgjsPath11394" d="M129.1 64.02c-3.5-.92-20.35 5.2-20.67 6.43-.32 1.23-.51 5.94.76 6.44s18.5-8.15 20.26-7.52c1.76.63 5.4 6.01 6.3 5.91.88-.09-5.02-10.84-6.65-11.26z" fill="#ffffff" stroke-width="none" opacity="1"></path><path id="SvgjsPath11395" d="M136.37 75.18c.07-1.34-5.25-11.17-7.14-11.67-2.33-.61-9.06 1.49-11.85 2.42-.45.15-1.43.48-2.58.91a.37.37 0 0 0-.27.09c-2.77 1.02-6.39 2.51-6.62 3.37-.21.82-.78 6.33 1.09 7.06.03.01.05.01.08.02.76.2 2.78-.6 9.32-3.42 3.97-1.72 9.98-4.31 10.89-4.13.79.28 2.25 1.95 3.43 3.29 1.78 2.02 2.46 2.73 3.12 2.66.22-.01.51-.19.53-.6zm-3.32-4.89c-.54.05-1.07.04-1.61-.07-.48-.47-.93-.85-1.35-1.11l1.87-.69c.37.62.74 1.25 1.09 1.87zm-7.85-.31c1.18-1.87 2.47-3.69 3.84-5.44.5.26 1.49 1.6 2.55 3.27l-2.8 1.03c-.78.13-1.95.51-3.59 1.14zm-3.29 1.34 3.86-6.62c.98-.18 1.82-.28 2.45-.27-1.5 1.92-2.89 3.94-4.15 6-.66.27-1.38.56-2.16.89zm-.35-5.6c-.77 1.22-1.53 2.41-2.27 3.56-.9 1.4-1.84 2.85-2.78 4.37-1.4.61-2.84 1.21-4.07 1.71.71-2.51 1.55-5.01 2.48-7.46 2.06-.78 4.43-1.55 6.64-2.18zm-11.2 10.41c-.09-2.28.15-4.53.75-6.72.81-.37 1.8-.77 2.89-1.19-.92 2.45-1.74 4.94-2.43 7.46-.46.18-.87.34-1.21.45zm-1.42-5.49c.16-.19.64-.48 1.33-.82-.53 2.14-.74 4.32-.63 6.53-.12.03-.23.04-.29.05-.67-.41-.78-4.27-.41-5.76zm8.97 2.39c-.08.03-.15.07-.23.1.76-1.2 1.51-2.37 2.23-3.49.87-1.35 1.77-2.75 2.68-4.21.78-.21 1.53-.4 2.23-.54l-4.01 6.9c-.9.38-1.85.79-2.9 1.24zm15.6-.54c-.45-.51-.89-1.01-1.34-1.49.42.03.82.02 1.24-.04.67 1.22 1.24 2.36 1.57 3.16-.45-.48-1-1.11-1.47-1.63z" fill="#000000" stroke-width="none" opacity="1"></path></g></g></g><g id="svga-group-beardwrap" transform="matrix(1.0400003000000002,0,0,1.0002003000000002,0,0)"><g id="svga-group-beard-single-move" transform="matrix(1,0,0,1,0,0)"><g id="svga-group-beard-single" transform="matrix(1,0,0,1,0,0)"></g></g></g><g id="svga-group-mustache-single-move" transform="matrix(1,0,0,1,0,0)"><g id="svga-group-mustache-single" transform="matrix(1,0,0,1,0,0)"><path id="SvgjsPath11154" d="M100 119.2c-1-.3-14.2 1.8-20.3-.1s-10.5-11.2-3.8-13.3c6.7-2.1 5.9 6.7 1.6 5.5s.5-.8.8-2.2-2.3-2-3.5-.3.8 4.1 2.5 4.4 6.6-1.5 10.2-2c3.6-.5 7.7-.3 12.1 1.8 0 0 2.5-1.9 5.9-2 3.4-.1 10.9.9 13 2.4s3.2 1.7 5.7 1.2 3.1-4.6 1.6-5.1-3.3.7-2.9 1.5c.4.7 1.6.5 1.3.9s-2.1.8-2.7-.1c-.5-.9-1.4-3.9 2-4.6 3.4-.6 7.2 1.5 5.6 6.2-1.6 4.8-8.6 6.1-11.9 6.1-3.1.1-11.1 1.7-17.2-.3z" fill="#ffffff" stroke-width="none" opacity="1"></path><path id="SvgjsPath11155" d="M128.9 108.4c-1.2-1.3-3.3-2-5.4-1.6-1.3.2-2.1.8-2.5 1.7-.6 1.2-.1 2.7.3 3.4.2.4.7.7 1.4.8.7.1 1.6-.2 1.9-.6.2-.2.1-.4.1-.5-.1-.3-.4-.3-.6-.4-.3-.1-.6-.2-.7-.4-.1-.1 0-.2.1-.3.4-.5 1.4-.9 2.3-.6.4.1.6.8.6 1.5-.1 1.2-.8 2.6-2.1 2.8-2.4.5-3.4.3-5.4-1.1-2.3-1.6-10.1-2.6-13.2-2.5-3 .1-5.3 1.5-5.9 1.9-3.8-1.8-7.8-2.4-12.1-1.7-1.5.2-3.3.7-4.9 1.1-2.2.6-4.2 1.1-5.1.9-.9-.2-2-1.1-2.4-2.1-.2-.5-.3-1.1.1-1.8.6-.9 1.8-1 2.3-.7.2.1.6.3.5.7-.1.4-1 .6-1.5.8-.7.2-1.1.3-1.1.8 0 .4.4.7 2.1 1.1 1.3.3 2.4-.1 3.2-1.1.8-1.2.8-3.1 0-4.2-.5-.7-1.9-1.8-4.8-.9-2.3.7-3.6 2.4-3.6 4.7 0 3.8 3.5 8.1 7.4 9.3 4.4 1.4 12.2.7 16.9.3 1.6-.1 3.2-.3 3.4-.2 2.4.8 5.1 1 7.7 1 1 0 1.9 0 2.9-.1H111.1c1.2-.1 2.3-.2 3.3-.3 1.3-.1 2.4-.2 3.3-.2 2.8 0 10.5-1.2 12.2-6.4.5-2.6-.2-4.2-1-5.1zm-28.8 10.4c-.4-.1-1.4 0-3.7.2-4.6.4-12.3 1.1-16.6-.3-1.2-.4-2.3-1-3.3-1.9 3.8 1.2 8.3 0 11.6-1.9.2-.1 0-.3-.1-.2-3.8 1.8-8.1 2.9-12.1 1.5-1.7-1.7-2.9-4-2.9-6.1 0-.2 0-.4.1-.7.1 1.4.8 2.4 2 3 .1.1.3-.1.2-.2-.9-.7-1.6-1.3-1.7-2.6-.1-.8 0-1.5.3-2.1.5-.6 1.2-1.1 2.3-1.5 1.8-.6 3.2-.3 3.9.6.7.9.7 2.3 0 3.3-.3.5-1 1.2-2.4.8l-1.2-.4c.1 0 .2-.1.2-.1.8-.2 1.9-.6 2-1.3.2-.7-.2-1.3-.9-1.6-1-.4-2.4-.2-3.3 1-.5.7-.5 1.6-.2 2.5.5 1.2 1.8 2.3 2.9 2.6 1.1.2 3.1-.3 5.4-.9.8-.2 1.7-.4 2.6-.6-.1.1-.2.1-.3.2-3.1 1.9-5.8 2.5-9.5 1.9-.2 0-.3.2-.1.3 2 .7 4.2.7 6.3 0 2-.7 3.6-2 5.5-2.8.1 0 .3-.1.4-.1 4.2-.6 8.1-.1 11.8 1.8l.2.1.2-.1s2.5-1.8 5.7-1.9h.8c2.7 3.3 7.7 6.2 12 6.1.2 0 .2-.2 0-.2-4.6-.6-7.9-3.1-11.4-5.8 1.5.1 3.5.3 5.3.6 4.6 2 7.9 5.7 13.2 5.3-2.5 1.4-5.8 2.1-8 2.1-.4 0-.8 0-1.2.1-3.7-.6-6.7-1.7-10.1-3.8-.1-.1-.2.1-.1.2 2 1.8 4.7 3.2 7.5 3.8-1.3.1-2.7.2-4.2.3-2.9-.8-5.3-1.9-7.7-4-.1-.1-.2 0-.1.1 1.4 1.7 3.5 3.1 5.8 3.9-2.5-.2-4.9-.5-7.1-1.2zm28.7-5.5c-.5 1.4-1.5 2.5-2.8 3.4-3.2 0-6-.6-8.7-2.4-1.1-.7-2-1.5-3.1-2.1 1.8.4 3.3.9 4.1 1.4 2.2 1.5 3.4 1.8 6 1.2 1.7-.4 2.6-2.1 2.7-3.5.1-.9-.2-1.7-.7-2.1-.8-1.2-2.4-1.8-3.8-.9-.1.1 0 .3.1.2.9-.2 1.9-.2 2.7.3-1-.1-2 .3-2.6.9-.3.4-.4.8-.2 1.2.2.4.6.6 1 .7-.2.1-.6.2-1 .1-.2 0-.6-.1-.7-.4-.3-.6-.7-1.8-.2-2.7.3-.7 1-1.1 2-1.3 1.7-.3 3.3.1 4.3 1 .7 1.2 1 2.3.2 3.6-.7 1.3-2.1 1.9-3.2 2.7-.2.1-.1.4.1.3 1.8-.6 3.7-2.5 4-4.4.2 1.1.1 1.9-.2 2.8zm-30.2 1c-2.5 3.3-5.9 4.2-9.8 4.8-.1 0-.1.2 0 .2 3.8-.2 8-1.5 10.1-4.9 0-.1-.2-.2-.3-.1zm-2.1-.5c-4.2 3.4-8.8 4.7-14.1 4.3-.2 0-.2.2 0 .3 5.1.9 10.6-.8 14.3-4.4.1-.1-.1-.3-.2-.2z" fill="#000000" stroke-width="none" opacity="1"></path></g></g><g id="svga-group-nose-single-move" transform="matrix(1,0,0,1,0,0)"><g id="svga-group-nose-single" transform="matrix(1,0,0,1,0,0)"><path id="SvgjsPath11072" d="M103.29 107.27c-1.43 1.14-6.6.84-8.09-1.16-1.49-2.01-1.23-5.37-.71-8.74.52-3.36 3.24-17.34 3.75-18.38.52-1.04 1.75-1.16 2.39 0s3.43 16.63 3.75 20.45.86 6.28-1.09 7.83z" fill="#ffffff" stroke-width="none" opacity="1"></path><path id="SvgjsPath11073" d="M95.15 107.24c2.35 1.15 5.1 2.37 7.68 1.14 2.66-1.27 2.67-4.06 2.36-6.63-.96-7.77-2.31-15.48-3.95-23.13-.2-.94-1.65-.54-1.44.4 1.2 5.6 2.24 11.23 3.09 16.89.41 2.72 1.34 5.93.94 8.68-.62 4.25-5.38 2.6-7.91 1.36-.88-.42-1.64.87-.77 1.29z" fill="#000000" stroke-width="none" opacity="1"></path></g></g><g id="svga-group-hair-front" transform="matrix(1.0400003000000002,0,0,1.0002003000000002,-3.996693030392862,-0.0100434751133065)"></g><g id="svga-group-glasses-single-move" transform="matrix(1,0,0,1,0,5)"><g id="svga-group-glasses-single" transform="matrix(1.0000001,0,0,1.0000001,-0.000009982444765910259,-0.000009198040018532083)"><path id="SvgjsPath11587" d="M92.34 97.11c-1.02.74-24.85.93-25.54 0s-1.16-9.88-.39-10.49c.77-.62 25.54-.46 26.31.31.78.76.47 9.56-.38 10.18z" fill="#ffffff" stroke-width="none" opacity="0.71"></path><path id="SvgjsPath11588" d="M107.25 97.11c1.02.74 24.85.93 25.54 0s1.16-9.88.39-10.49c-.77-.62-25.54-.46-26.31.31-.78.76-.47 9.56.38 10.18z" fill="#ffffff" stroke-width="none" opacity="0.71"></path><path id="SvgjsPath11589" d="M135.41 87.79c-.11-.92-.54-1.88-1.63-1.86-.08 0-.15.02-.22.04-.36-.19-2.01-.58-13.55-.47-12.9.12-13.43.64-13.68.89-.38.38-.56 1.48-.63 2.71-4.69-1.6-9.75-.74-11.84-.26-.08-1.12-.25-2.1-.61-2.45-.25-.25-.78-.78-13.68-.89-10.97-.1-13 .24-13.48.44a.965.965 0 0 0-.48-.04c-1.32.29-1.74 1.97-1.05 3.01.17.26.43.42.71.48-.07 3.18.43 7.49.93 8.15.52.69 5.77.94 11.47.94 6.93 0 14.53-.37 15.11-.79.26-.19.75-.54 1.02-3.96.01-.13.13-1.7.12-3.38 1.76-.43 7.11-1.47 11.75.31.01 1.55.11 2.94.12 3.07.27 3.42.75 3.77 1.01 3.96.57.41 8.17.79 15.1.79 5.7 0 10.96-.25 11.48-.94.52-.7 1.06-5.42.92-8.63.59-.03 1.19-.49 1.11-1.12zm-43.54 8.7c-2.48.65-22.12.69-24.51.05-.5-1.36-.8-7.91-.42-9.3 2.76-.49 22.8-.27 25.26.28.43 1.34.19 7.76-.33 8.97zm40.37.05c-2.35.63-22.03.59-24.51-.05-.53-1.22-.77-7.82-.37-8.96 2.32-.55 22.52-.77 25.29-.29.38 1.4.08 8-.41 9.3z" fill="#000000" stroke-width="none" opacity="1"></path></g></g></g></g></g><rect id="svga-credit-rect" width="200" height="15" x="0" y="185" fill="#ecf0f1" opacity="0.5" style="display: none;"></rect><text id="svga-credit-text" font-family="Avenir Next, Roboto, Helvetica, Arial, sans-serif" font-size="10px" text-anchor="start" font-weight="400" size="10px" anchor="start" weight="400" fill="#333333" x="33.40447998046875" y="182.60824704170227" style="display: none;"><tspan id="SvgjsTspan10682" dy="13" x="33.40447998046875">Created on AvatarMaker.com</tspan></text></g></svg>