<svg xmlns="http://www.w3.org/2000/svg" version="1.1" width="600px" height="600px" viewBox="0 0 200 200" style="overflow:hidden!important;"><g id="svga-group-wrapper"><g id="svga-group-backs-single"><path id="SvgjsPath3817" d="M0 0h200v200H0V0z" fill="#ffffff" stroke-width="none" opacity="1" stroke="none"></path></g><g id="svga-group-humanwrap-move" transform="matrix(1,0,0,1,0,0)"><g id="svga-group-humanwrap"><g id="svga-group-hair-back-move" transform="matrix(1,0,0,1,0,0)"><g id="svga-group-hair-back" transform="matrix(0.9799997000000001,0,0,0.9998997000000002,0,0)"></g></g><g id="svga-group-humanbody-back"><path id="SvgjsPath3770" d="M77.6 118.3c0 19.3 3.4 44.1-10 51.9-13.4 7.9-31.9 11.3-37.8 22s-4.4 25.3-4.4 25.3h149.3s.7-18.9-5.1-26.4c-8.1-10.4-27.8-15.5-37.7-20.9s-13.4-25.1-13.4-52.4l-40.9.5z" fill="#ffffff" stroke-width="none" opacity="1"></path></g><g id="svga-group-chinshadow-single"></g><g id="svga-group-humanbody-front"><path id="SvgjsPath3771" d="M175.8 218.7H24.4l-.1-1c-.1-.6-1.5-15.1 4.5-26 4.1-7.4 13.5-11.3 23.5-15.5 5-2.1 10.2-4.3 14.8-6.9 10.6-6.2 10.1-23.9 9.6-41-.1-3.5-.2-6.8-.2-10v-1.1l43.2-.4v1.1c0 29.9 4.2 46.7 12.8 51.4 2.9 1.6 6.7 3.2 10.8 4.9 10 4.1 21.3 8.8 27.2 16.3 6.1 7.7 5.4 26.4 5.4 27.1l-.1 1.1zm-149.3-2.2h147.1c0-4.1-.2-18.5-4.9-24.6-5.5-7-16.6-11.6-26.3-15.6-4.1-1.7-8-3.3-11-5-5.1-2.8-8.7-8.9-10.9-18.7-2-8.4-2.9-19.4-3-33.5l-38.6.4c0 2.8.1 5.7.2 8.8.5 17.8 1 36.1-10.7 43-4.7 2.7-9.9 4.9-15 7.1-9.6 4-18.7 7.8-22.4 14.5-5 8.6-4.7 20.1-4.5 23.6z" fill="#000000" stroke-width="none" opacity="1"></path><path id="SvgjsPath3772" d="M93.9 153.8c-.5 1.8-.4 3.4.5 5.2.8 1.6 2.1 2.7 3.9 2.9.4 0 .7-.5.5-.8-1.6-2.2-3.5-4.2-3.7-7.1 0-.7-1-.9-1.2-.2z" fill="#000000" stroke-width="none" opacity="1"></path><path id="SvgjsPath3773" d="M112.5 187.5c8.8.5 18.1-.7 26.6-2.9.7-.2.6-1.4-.2-1.3-8.8 1.1-17.7 2-26.5 3.3-.5.1-.3.9.1.9z" fill="#000000" stroke-width="none" opacity="1"></path><path id="SvgjsPath3774" d="M63.1 182.5c3.8.9 7.6 1.9 11.5 2.8 3.6.8 7.4 2 11.1 2.1.7 0 .8-.9.2-1.2-3.5-1.4-7.5-1.7-11.2-2.5-3.8-.7-7.5-1.3-11.3-2-.5 0-.7.7-.3.8z" fill="#000000" stroke-width="none" opacity="1"></path></g><g id="svga-group-clothes-single"><path id="SvgjsPath7622" d="M77.8 138.6c-5.2-1.2-10.8-2-10.3 3.7s1.4 7.9 1.4 7.9-5.6.9-4.8 5.7c.7 4.8 1.8 6.3 1.8 6.3s-2.3 1.2-2.9 3.2c-.5 2-.4 3.6-.4 3.6s-14.5 7-18.6 8.4-11.8 5.6-12.5 6.6c-.7 1.1-3.8 2.1-6.1 7.4s-5.9 14.5-3.2 27.3h156.1s-.2-20.5-4.1-25.9-5.9-6.4-5.9-6.4-.9-4.8-5.2-6.6-12.4-6.6-15.4-7.5c-3.1-.9-15.2-3.4-15.9-4.7s2-4.8-.2-7.9c-1.4-2-2.8-3.3-2.8-3.3s4-4.1 1.1-6.9c-2.9-2.9-3.5-4.2-3.5-4.2s1-3.6.3-6.4-7.5-1.1-9.8-1c-2.4.1-32.3 2.3-39.1.7z" fill="#ffffff" stroke-width="none" opacity="1"></path><path id="SvgjsPath7623" d="M175 192.2c-1.4-1.8-2.5-3.2-3.4-4.2l.1-.1c.1-.1 0-.3-.2-.2 0 0-.1 0-.1.1-1.1-1.1-1.8-1.8-2.2-2.1-.3-1.3-1.7-5.3-5.7-6.9-1.9-.8-4.6-2.2-7.2-3.6-3.4-1.8-6.5-3.4-8.3-4-.9-.3-2.5-.6-4.3-1.1-3.2-.8-9.9-2.4-11.1-3.2 0-.3.2-.9.3-1.4.4-1.7 1.1-4.2-.5-6.5-.9-1.2-1.7-2.2-2.2-2.8 1.5-1.9 2.9-5.1.5-7.6-1.9-1.9-2.8-3.1-3.2-3.6.3-1.1.8-4 .2-6.5-.8-3.2-5.8-2.4-9.2-1.9-.7.1-1.3.2-1.7.2-11 .9-33.3 2.1-38.7.8-4-.9-8-1.6-10.1.3-1.1 1-1.6 2.5-1.4 4.5.3 3.6.8 5.9 1.1 7-2.3.7-5.1 2.7-4.6 6.6.5 3.1 1 4.8 1.5 5.8-.8.6-2.1 1.8-2.5 3.3-.4 1.3-.4 2.5-.4 3.2-2.8 1.3-14.4 6.9-17.9 8.1-3.7 1.3-12.1 5.5-13 7-.1.2-.5.5-.9.8-1.3 1-3.5 2.8-5.3 6.7-2.7 6-5.9 15.4-3.3 27.9.1.5.5.8 1 .8h156.1c.3 0 .5-.1.7-.3s.3-.4.3-.7c-.1-.8-.3-20.8-4.4-26.4zm-18.1 25.5h-1.5v-1.4c7.8.4 15.7-2.5 21.3-7.9.1 1.2.2 2.5.3 3.6-4.7 3.4-9.8 5.3-15.5 5.7h-4.6zm-.5-13.5c6.6 1.7 13.7 0 19.4-3.7.1.8.3 1.5.4 2.3-6.1 5.1-12.4 8.1-20.5 8.3.1-2.1.3-4.5.7-6.9zm-.8 7.4c7.5.1 15.3-2.7 20.6-8.1.2 1.4.4 2.9.5 4.4-6.2 5.4-13 8.1-21.2 8.1 0-1.4 0-2.8.1-4.4zm20-11.5c-6.1 3.6-12.2 4.4-19.2 3.7.2-1.2.4-2.5.7-3.6 5.3.1 14.3-.5 16.9-5.6.7 1.3 1.2 3.3 1.6 5.5zm-1.9-6.1c-3.1 4.9-10.9 5.6-16.5 5.8 0-.1.1-.2.1-.3.4-1.7 1.1-3.1 1.8-4.3 4.5.6 9.3-.9 13.1-3.2l1.2 1.5c.1.1.2.3.3.5zm-1.8-2.6c-4 2.2-7.9 2.8-12.5 3.1.9-1.5 1.9-2.7 3.1-3.6 2.6.4 5.4-.1 7.6-1.6.5.6 1.1 1.3 1.8 2.1zm-2.2-2.5c-2.1 1.2-4.3 1.8-6.7 1.6 1.7-1.4 3.6-2.4 5.2-3 .2.2.7.7 1.5 1.4zm-39-28.7c1.1 1.5.6 3.3.2 4.8-.2.9-.4 1.6-.3 2.3-.5.7-1.8 1.7-3.5 2.9 1.7-3.2 1.3-7.5-.1-10.8.7-.7 1.3-1.3 1.7-1.8.5.7 1.2 1.6 2 2.6zm-63.6 10.3c-.8-2.1-.8-4.3.4-6.4.7.4 1.5.8 2.3 1.2-1.3 1.6-1.6 4.1-.9 6.2-.6-.3-1.2-.7-1.8-1zm5.5-18.4c-2.6 2.9-3.1 7.4-2.2 11.2-1-.5-1.9-1-2.6-1.4-.6-2.5-.4-5.1.8-7.6.4-.9 1.4-1.8 2.2-2.8.5.3 1.2.5 1.8.6zm5-12.5c.2.1.4.1.7.2-3.2 2.8-4 7.8-1.6 11.3-.7-.1-1.3-.3-2.1-.5-1.5-4-1.2-7.9 1.2-11.4.6.1 1.3.2 1.8.4zm11.5.5c1.4 0 2.8-.1 4.3-.1v1.7c-1.5-.3-3-.7-4.6-1.1 0-.1 0-.2.1-.3.1 0 .2-.1.2-.2zm17.2-.6c-.6 1.2-.7 2.3-.7 3.8v.4h-.1c-.9.1-2.8-.2-5.3-.6-.1-1.1-.1-2.3.2-3.3 2-.1 4-.2 5.9-.3zm5.8-.4c.1 1.1.2 2.2.2 3.4-2.2.6-4.5 1-6.2 1.2.1-1.6.3-3.1.9-4.2 1.9-.2 3.6-.3 5.1-.4zm3.1-.2c.2.6.1 1.8 0 2.8-.7.2-1.5.4-2.2.6 0-1.1-.1-2.1-.2-3.2.9-.1 1.8-.2 2.4-.2zm3.5 1.6c0-.4.3-.8.2-1.3 0-.2-.1-.5-.1-.7 1-.2 2.7-.4 4.2-.4.4.5.7 1.2.9 1.6.2.7.2 1.6.2 2.3 0 1.4-.4 2.7-.9 4v.1c-.8.4-1.8.9-3.1 1.4.7-1.6.6-3.5-.5-5.1.3-.1.6-.2.8-.4.5-.2.7-.9.4-1.3-.2-.5-.8-.7-1.3-.4-.3 0-.5.1-.8.2zm7.4 17.1c-1.2 1.2-2.8 2.7-4.5 4 .8-4 1-9-1.8-12 1.8-.6 3.2-1.2 4.2-1.8 2.2 2.9 2.9 6.3 2.1 9.8zm-13.1 7.7c.1-.4.1-.8.2-1.2 1-3.7 1.1-6.6.2-10.3-.2-.8-.3-1.7-.4-2.5.9-.2 1.8-.3 2.6-.5.8 2.4 1.4 4.8 1.4 7.4 0 2-1.2 4.4-1.4 6.3-.7.2-1.6.5-2.6.8zm-3.9 1c.1-2.6 0-5.3-.3-7.8-.3-2.1-1.2-4-1.7-6 1.5-.4 3-.7 4.5-.9.2 0 .4-.1.7-.1.7 5.4 2.1 9.1-.4 14.2-1 .1-1.9.3-2.8.6zm-33-.6v-.1c-2.1-4.6-2.1-8.4 1-12.3 1.3.3 2.6.5 3.8.7-.9 1.4-2.1 2.6-2.7 4.2-1 2.8 0 5.7-.2 8.5-.7-.2-1.3-.5-2-.8 0-.1 0-.1.1-.2zm2.7-25.7c1.1.4 2.5.8 4 1.2-1.2 1.1-1.3 2.3-1.2 4.1.1 2.3.6 4.5.1 6.7-1.3-.2-2.6-.4-4-.7-2.4-4-2.2-8 1.1-11.3zm.9 16.7c.5-.9 1.2-1.8 1.9-2.7 1.9.3 3.7.5 5.3.6-1.2 4.6-2.4 10.1.1 14.2-2.7-.3-5.5-1-8.1-1.9.1-.3.1-.6.2-.9.3-3.2-1.3-5.8.6-9.3zm8.4 12.3c-.1 0-.1 0 0 0H87.8c-2.5-4.9-.8-9.3-.2-14.3 1.2.1 2.4.1 3.5.1.8 0 1.6 0 2.4-.1-3.7 3.8-1.9 9.9.3 14.1-2.1.3-4.1.3-5.7.2zm5.8-25.1c2 .4 3.9.8 5.6 1.1 0 .5-.1 1-.2 1.6-.3 1.9-.6 3.7.2 5.5-1.8.3-3.7.6-5.9.7-.8-3.1-.4-5.8.3-8.9zm11.3 1.8h.4c0 1.6.1 3.4.2 5-.2.1-.4.1-.7.2-1.6.4-3.2.8-5 1.1-1-2.2-.2-4.3 0-6.6v-.2c2.3.3 4.1.5 5.1.5zm10.1-2c.4 1.8 1.1 3.4-.1 5.1-.7.2-1.5.3-2.3.5-.1-1.6 0-3.3 0-4.9.9-.2 1.6-.4 2.4-.7zm-3.2 5.7c-.3.1-.6.1-.8.1-1.6.2-3.1.6-4.6.9-.2-1.3-.4-3.1-.5-4.8 1.7-.1 3.9-.6 6.1-1.1-.2 1.7-.3 3.3-.2 4.9zm-17.8 19.4c-2.1-4.9-3.1-9.1-.3-14.1 2.3-.1 4.3-.4 6.2-.8-1.3 4.7.9 9.2 1.2 13.9-2.4.5-4.8.8-7.1 1zm7.8-2.4c-.5-4.4-2.4-8-1.3-12.5 1.8-.3 3.4-.7 5-1.1.2 0 .3-.1.5-.1v.1c.6 2.6 1.9 4.5 2.1 7.2.2 2.1.1 4.2 0 6.4v.1c-2 .5-4.1.9-6.2 1.3-.1-.5-.1-1-.1-1.4zm14.1-15.8c1.1-.2 2-.5 2.9-.8 2.8 3.8 2.6 7.6 1.9 12.2-.8.6-1.6 1-2.4 1.4-.4.1-.8.3-1.3.5.1-1.9.4-3.7.5-5.8-.1-2.6-.6-5.1-1.6-7.5zm2.6-8c.4.4.8.9 1 1.5.4 1.3.2 2.5-.3 3.6-.9.3-2 .6-3.3.9.8-1.4.4-3.1-.1-4.6-.1-.2-.1-.3-.1-.5 1-.3 1.9-.6 2.8-.9zm-19.3.3c-1.6-.3-3.5-.7-5.4-1.1V140c1.9-.1 3.8-.1 5.7-.2-.2.4-.3.9-.3 1.4v1.7zm-6.2.9c-1.4 2.7-1.3 6.1-.3 9-1.7.1-3.5.1-5.6-.1-1.4-3.4-1.3-6.9-.1-10.3 2.1.5 4.1.9 6 1.4zm-6.5 8.8c-1.3-.1-2.7-.2-4.1-.5.1-.2.2-.4.2-.6.9-3.2-1.8-7.4.4-10.2 1.1.3 2.3.6 3.6.9-1.5 3.4-1.4 7.1-.1 10.4zm-10.5.4c-3.1 3.3-3.7 9.1-.8 12.6-1.7-.7-3.2-1.4-4.6-2.1-.9-4.2.2-7.6 2.3-11.3 1.1.4 2.1.6 3.1.8zm-6.7 18.9c-.7-2.2-.3-4.1.6-6.4 1.4.7 2.9 1.4 4.6 2.1-.6 1.4-1.3 2.9-1.7 4.3-.2.6-.2 1.2-.1 1.8-1.2-.6-2.3-1.2-3.4-1.8zm4.4 2.2c-.7-1.4.1-3 .7-4.4.2-.6.5-1.3.7-1.9.7.3 1.5.6 2.3.9-.1.2-.1.4-.2.6-.8 2.2-1.5 4-.9 6-.9-.4-1.7-.8-2.6-1.2zm3.2 1.3c-.7-2.3.3-4.4 1.2-6.5 2.8 1 5.9 1.7 8.9 2-.5 2.1-.7 4.4.2 6.4-3-.3-5.6-.7-7.3-1-.9-.2-2-.5-3-.9zm11.1 2c-.9-2.2-.7-4.2-.4-6.4.7.1 1.3.1 2.1.1s1.8 0 2.7-.1c-1 2-.9 4.8-.2 6.9-1.4-.2-2.8-.3-4.2-.5zm4.9.5c-.5-1.4-.7-2.9-.4-4.5.2-.9.5-1.7.9-2.5 2.4-.2 5.1-.6 7.7-1v.2c-.2 3-1.2 6 .3 8.5-2.7-.2-5.6-.4-8.5-.7zm9.3.7c-1.6-2.5-.9-5.8-.5-8.8 2.1-.4 4.2-.8 6.2-1.3-.2 3.4-.5 6.9-.7 10.3-1.4 0-3.2-.1-5-.2zm6.4-10.2c1-.2 2-.5 3-.7 2.3 3.5 2.1 7.8-.3 11.1-.8.1-2 .1-3.7.1.3-3.4.8-7 1-10.5zm5.3 3.6c-.2-2.1-.8-3.3-1.1-4.7 1.1-.3 2.1-.6 3.1-.9.4.8 1.1 1.6 1.2 2.3.8 3 .2 5.9-1.3 8.3-1.4.7-2.7 1.2-3.6 1.5 1.2-1.9 1.9-4 1.7-6.5zm3.4-4.7c-.1-.4-.2-.8-.2-1.2.8-.3 1.4-.5 2-.7.8-.3 1.6-.8 2.4-1.3 2 2.5 3.2 5.2 2.3 8.4-2.2 1.4-4.6 2.9-6.8 4 1.3-2.9 1.1-5.9.3-9.2zm4.7-3.7c1.6-1.1 3.1-2.4 4.3-3.6 1.4 3.9.6 7.2-.7 11.2-.4.3-.9.6-1.3.9.7-3.1.1-6.4-2.3-8.5zm6.8-13.5c2.1 2.1-1 5.4-1.1 5.5v.1s-.3.4-.8.9c.4-3.2-.5-6.5-2.6-9 .6-.4 1.1-.7 1.5-1 .5.8 1.4 1.9 3 3.5zm-3.4-11.1c.5 2.1 0 4.8-.2 5.6-.3.3-.8.6-1.4 1 .8-2 1.3-5.8-.1-7.4.8 0 1.5.3 1.7.8zm-8.8-.2c.3 0 .6-.1 1-.1.1.7-.1 1.4 0 2.1-.7.2-1.4.5-2.2.7v-.6c.1-.6.4-1.1.3-1.7 0-.1-.1-.3-.1-.4h1zm-28.6 1.4c-.1.1-.1.2-.1.4-.5-.1-1-.2-1.5-.4h1.6zM75.2 139c-2.4 3.2-3 7.6-1.5 11.4-.7-.2-1.4-.3-2.1-.5.1-.4-.1-.9-.1-1.4-.4-.9-.7-1.9-.9-2.9-.5-2.3-.4-4.6.3-6.8 1.3-.2 2.9 0 4.3.2zm-5.9.4c.3-.3.8-.5 1.4-.6-.5 1.7-.8 3.3-.7 5.1.2 2.4 1.1 3.6.7 5.6-.3-.1-.6-.2-.9-.2-.3-.9-.8-3.1-1.2-7.1-.2-1.3.1-2.2.7-2.8zm-.4 11.8c.3.1.7.2 1 .3 0 .1-.1.2-.1.3-.3.6-1 1.2-1.3 1.8-1.5 2.5-1.9 5.4-1.4 8.1-.2-.1-.3-.2-.4-.2-.3-.5-1-2.1-1.5-5.7-.6-3.5 2.8-4.4 3.7-4.6zM64 165.6c.3-1 1.3-1.9 1.9-2.3.2.1.3.2.5.3l.6.3c-1.1 1.8-1.5 4-.9 6-1.1-.7-2-1.2-2.5-1.5 0-.6.1-1.6.4-2.8zm-19.6 12.7c3.7-1.3 15.6-7 18.2-8.2 2.2 1.4 11.3 7 17.2 8.1 5.4 1 21.5 2.6 29.1 2.6 1.4 0 2.5-.1 3.2-.2 3.7-.7 16.5-8.1 19.9-11.8 1.5.7 4.6 1.6 11.2 3.2 1.8.4 3.4.8 4.2 1.1 1.6.5 4.8 2.2 7.9 3.8 2.7 1.4 5.4 2.9 7.4 3.7 2.8 1.1 4 3.8 4.4 5.1-6.1 2.7-10 7-11.6 13.1-1.7 6.4-2 15.2-2 18.8H44.3c0-3.4-.3-15.1-2.2-21.3-2-6.3-6.4-10.7-8.9-12.5 2.1-1.3 7.7-4.2 11.2-5.5zm-14.5 39.4c-2.8-.3-5.2-1.1-7.4-2.9-.2-1.4-.3-2.8-.3-4.2 4.6 4.2 11.1 7.1 17.3 6.6.2 0 .2-.4 0-.4-6.8-.9-12.1-2.6-17.3-7 0-1.4.1-2.6.2-3.9 5.3 4.9 12.5 8 19.8 7.8.1 1.8.1 3.2.1 4.1l-12.4-.1zm1.1-31.9c.2-.2.4-.3.6-.5 1.5 1.1 4.5 3.7 6.7 7.6-3.5-1-6.5-2.8-8.7-5.9.5-.5 1-.9 1.4-1.2zm-1.7 1.5c2.1 3.2 5.6 5.8 9.4 6.3.5 1.1 1 2.2 1.4 3.4.3.8.5 1.8.7 2.8-6.1-.1-11.1-2.2-15.1-6.7.2-.5.4-.9.6-1.4 1-2.1 2-3.4 3-4.4zm-3.7 6.2c3.4 4.7 9.6 7.5 15.4 6.7.7 4 1.1 9 1.2 12.8-7.5-.6-13.8-2.7-19.7-7.6.1-1.1.3-2.1.5-3.1.9 1.2 2.5 2 3.8 2.7 3.1 1.7 6.4 3 9.9 3.6.3.1.4-.4.1-.4-2.6-.8-5.1-1.5-7.6-2.6-1.8-.8-5-2-6.1-4 .3-1.4.7-2.8 1.1-4.1 3.8 4.4 9.6 6.9 15.6 6.3.2 0 .3-.4 0-.4-6-.1-11.3-2.2-15.4-6.4.3-1.2.7-2.4 1.2-3.5zm-3 21.9c1.2 1 2.5 1.8 4 2.3H23c-.2-.8-.3-1.5-.4-2.3zm143.8 2.3c3.9-.8 7.5-2.5 10.7-4.9.1 1.9.2 3.6.2 4.9h-10.9zM39.2 196.9c.3 0 .2-.4 0-.4-4.7-.6-8.7-2.6-11.5-6.6-.1-.2-.4 0-.3.2 2.5 4 7 6.9 11.8 6.8z" fill="#000000" stroke-width="none" opacity="1"></path></g><g id="svga-group-head" transform="matrix(1,0,0,1,0,0)"><g id="svga-group-ears-left-move" transform="matrix(1,0,0,1,1.5,0)"><g id="svga-group-ears-left"><path id="SvgjsPath3678" d="M60.8 80.5c-.2-.3-3.3-4.3-5.9-6.7s-3.4-2.4-4.6-.9c-1.3 1.5-2.9 9.1-2.5 12.4.4 3.4 3.6 8.7 5.2 11.7 1.7 3 3.3 6.7 5.1 6.3 1.9-.4 4.4-4.6 5.7-7.7 1.2-3.1.6-10.9-3-15.1z" fill="#ffffff" stroke-width="none" opacity="1"></path><path id="SvgjsPath3679" d="M52.9 98.9c-.3-.5-.5-1-.8-1.4l-.6-1c-1.8-3.1-4.4-7.8-4.8-11-.4-3.5 1.2-11.4 2.7-13.2.6-.7 1.2-1.3 2.2-1.4 1.2-.1 2.3.7 3.9 2.2 1.6 1.4 3.5 3.6 5.8 6.5l.2.3c3.9 4.6 4.5 12.8 3.2 16.1-1.1 3-3.9 7.8-6.4 8.3h-.5c-2 .1-3.4-2.6-4.9-5.4zm7.2-17.8s-.1-.1-.2-.3c-2.2-2.8-4.1-5-5.6-6.3-1.2-1.1-2.1-1.7-2.4-1.7-.2 0-.4.2-.8.7-1 1.2-2.6 8.4-2.3 11.7.3 2.8 2.8 7.3 4.5 10.3l.6 1c.3.5.5 1 .8 1.4.9 1.7 2.5 4.6 3.3 4.4 1.2-.2 3.6-3.7 4.9-7.1 1.1-2.8.4-10.2-2.8-14.1z" fill="#000000" stroke-width="none" opacity="1"></path><path id="SvgjsPath3680" d="M50 87c-.3-2.3-.5-7.8.8-9.6 2.2-2.9 6 6.4 6.9 9.3 0 .1.1.2.1.3.2.3-.1.7-.4.6-.4-.2-.9-.6-1.3-.8-1.1-.5-1.6.5-1.3 1.8.4 1.8 1.4 2.9 2.2 4.3.1.2 0 .4-.2.3-1.6-.9-3.5-4.5-3.1-6.6.3-2 1.9-1.8 3.1-.8-.7-1.7-1.5-3.3-2.5-4.8-.6-.9-1.2-2-2.2-2.2-1.2-.2-1 .3-1.2 1.8-.8 4.8-.3 10.4 2.5 14.5.1.1 0 .2-.1.1-1.7-2.3-2.9-4.9-3.3-8.2z" fill="#000000" stroke-width="none" opacity="1"></path></g></g><g id="svga-group-ears-right-move" transform="matrix(1,0,0,1,-1.5,0)"><g id="svga-group-ears-right"><path id="SvgjsPath3681" d="M139.2 80.5c.2-.3 3.3-4.3 5.9-6.7 2.6-2.4 3.4-2.4 4.6-.9s2.9 9.1 2.5 12.4c-.4 3.4-3.6 8.7-5.2 11.7-1.7 3-3.3 6.7-5.1 6.3s-4.4-4.6-5.7-7.7c-1.2-3.1-.6-10.9 3-15.1z" fill="#ffffff" stroke-width="none" opacity="1"></path><path id="SvgjsPath3682" d="M142.1 104.4h-.5c-2.5-.5-5.2-5.4-6.4-8.3-1.3-3.4-.7-11.5 3.2-16.1l.2-.3c2.3-2.9 4.2-5.1 5.8-6.5 1.6-1.4 2.7-2.2 3.9-2.2 1 .1 1.6.7 2.2 1.4 1.5 1.8 3.1 9.7 2.7 13.2-.4 3.2-3 7.9-4.8 11l-.6 1c-.3.5-.5.9-.8 1.4-1.4 2.7-2.8 5.4-4.9 5.4zm-2.2-23.3c-3.2 3.9-3.9 11.2-2.8 14.1 1.3 3.4 3.7 6.9 4.9 7.1.8.2 2.4-2.7 3.3-4.4.3-.5.5-1 .8-1.4l.6-1c1.7-3 4.2-7.5 4.5-10.3.4-3.3-1.3-10.5-2.3-11.7-.4-.4-.6-.7-.8-.7-.3 0-1.2.5-2.4 1.7-1.5 1.4-3.3 3.5-5.6 6.3 0 .2-.1.3-.2.3z" fill="#000000" stroke-width="none" opacity="1"></path><path id="SvgjsPath3683" d="M150 87c.3-2.3.5-7.8-.8-9.6-2.2-2.9-6 6.4-6.9 9.3 0 .1-.1.2-.1.3-.2.3.1.7.4.6.4-.2.9-.6 1.3-.8 1.1-.5 1.6.5 1.3 1.8-.4 1.8-1.4 2.9-2.2 4.3-.1.2 0 .4.2.3 1.6-.9 3.5-4.5 3.1-6.6-.3-2-1.9-1.8-3.1-.8.7-1.7 1.5-3.3 2.5-4.8.6-.9 1.2-2 2.2-2.2 1.2-.2 1 .3 1.2 1.8.8 4.8.3 10.4-2.5 14.5-.1.1 0 .2.1.1 1.7-2.3 2.9-4.9 3.3-8.2z" fill="#000000" stroke-width="none" opacity="1"></path></g></g><g id="svga-group-faceshape-wrap" transform="matrix(0.9799997000000001,0,0,0.9998997000000002,1.9980297716327584,0.008420184311276557)"><g id="svga-group-faceshape-single"><path id="SvgjsPath7426" d="M142.4 53.6c-2.3-11.4-15.1-28.8-42.4-28.8-27.3 0-36.4 13.4-40.5 23.3-2.5 6.2-3.2 15.2-3.4 19.7 0 0 1.5 43.2 3.1 47.1 1.6 3.9 9.4 7.3 15.3 13.5 6.6 6.9 11.3 19.1 13.6 18.7 8.8-1.5 10.7-1.6 20 0 6.4 1.1 9.8-9.7 13.5-14.8 5.3-7.2 15.5-12.2 18.4-16.4 2.9-4.2 3.7-48.2 3.7-48.2.1-3.1-.2-8.8-1.3-14.1z" fill="#ffffff" stroke-width="none" opacity="1"></path><path id="SvgjsPath7427" d="M109.1 148.5c-.4 0-.7 0-1.1-.1-9-1.6-10.8-1.6-19.6 0-1.9.3-3.5-2.4-6.4-7.2-2.2-3.8-5-8.5-8.2-11.8-2.6-2.8-5.7-5-8.4-7-3.5-2.5-6.2-4.5-7.2-6.9-1.7-4-3-43.1-3.2-47.5.2-4.8.9-13.8 3.4-20.1 6.6-16.2 20.1-24 41.5-24 12.3 0 23.2 3.6 31.3 10.4 6.3 5.2 10.9 12.5 12.2 19.3 1.1 5.5 1.3 11.4 1.4 14.4-.1 4.5-.9 44.5-3.9 48.8-1.4 2-4.1 4-7.3 6.4-3.9 2.9-8.3 6.1-11.1 10-.9 1.3-1.9 3-2.9 4.8-2.6 4.9-5.7 10.5-10.5 10.5zM98 145c2.8 0 5.7.4 10.3 1.2 3.9.7 6.8-4.6 9.4-9.3 1-1.9 2-3.6 3-5 3.1-4.2 7.6-7.6 11.6-10.5 3-2.2 5.6-4.2 6.8-5.9 2-2.9 3.2-30.7 3.5-47.6 0-3-.3-8.7-1.4-14-1.3-6.4-5.6-13.1-11.5-18-7.7-6.5-18-9.9-29.9-9.9-20.3 0-33.2 7.4-39.4 22.6-2.4 5.9-3.1 14.6-3.3 19.3.6 17.3 1.9 44 3 46.7.8 1.8 3.4 3.7 6.4 6 2.8 2 5.9 4.3 8.7 7.2 3.4 3.5 6.2 8.4 8.5 12.2 1.5 2.6 3.4 5.7 4.2 6.1 4.6-.7 7.4-1.1 10.1-1.1z" fill="#000000" stroke-width="none" opacity="1"></path></g></g><g id="svga-group-mouth-single-move" transform="matrix(1,0,0,1,0,3)"><g id="svga-group-mouth-single" transform="matrix(1.2000007000000006,0,0,1.2000007000000006,-19.95329020370299,-24.398135319932635)"><path id="SvgjsPath6863" d="m112.44 121.55-.09.03c-3.77-2.31-7.86-4.67-12.44-4.42-4.58.25-7.93 4.2-12.5 4.25-.07 0-.12.03-.16.07-.05-.02-.11-.03-.16-.04-.6-.19-.86.75-.26.94.39.12.79.22 1.19.32 7.06 5.52 16.72 5.5 23.73.05.32-.08.64-.15.96-.25.59-.19.33-1.14-.27-.95zm-8.39.16c-.62-1.32-1.25-2.65-1.87-3.97.31.04.62.09.93.16.44 1.37 1 2.7 1.63 3.99a6.95 6.95 0 0 1-.69-.18zm1.29.33c-.66-1.3-1.22-2.64-1.67-4.02.23.06.45.12.67.18 0 .03-.01.05 0 .08.62 1.3 1.25 2.59 1.87 3.89-.29-.03-.58-.07-.87-.13zm1.44.19c-.62-1.28-1.23-2.56-1.85-3.84.28.09.55.19.82.29.5 1.23 1.08 2.42 1.71 3.59-.22-.01-.45-.02-.68-.04zm1.24.05c-.6-1.09-1.14-2.2-1.62-3.34.22.09.43.19.64.28 0 .03-.02.06 0 .1.42 1.02.92 2 1.49 2.95-.17 0-.34.01-.51.01zm1.06-.05c-.54-.87-1.01-1.78-1.42-2.72.25.12.51.25.76.38-.02.06-.03.13.01.2.38.68.73 1.38 1.05 2.1-.13.01-.27.02-.4.04zm.9-.11c-.29-.64-.59-1.28-.93-1.9.35.19.69.38 1.03.58-.01.05-.02.09.01.14.18.36.37.71.55 1.07-.21.04-.43.08-.66.11zm1.16-.22-.36-.69c.31.18.62.37.92.55-.18.05-.37.1-.56.14zm-9.49-4.22c0 .04-.01.07.01.11.59 1.25 1.18 2.5 1.77 3.74-.34-.12-.67-.27-1.01-.41-.56-1.16-1.12-2.33-1.68-3.49.3.01.61.03.91.05zm-1.43-.04v.04c.51 1.05 1.01 2.1 1.52 3.16-.27-.15-.53-.32-.8-.44-.64-.79-.87-1.84-1.4-2.71.22-.03.45-.04.68-.05zm-.29 2.67c-.52-.79-.99-1.62-1.39-2.49.17-.03.33-.07.5-.09 0 .03-.01.06.01.09.5.76.74 1.66 1.2 2.42-.1.02-.21.04-.32.07zm-1.88-2.39v.03c.4.88.88 1.73 1.41 2.54-.22.1-.44.21-.67.33-.49-.91-1-1.8-1.52-2.69.24-.08.48-.14.73-.2.01-.01.03-.01.05-.01zm-7.68 4.22-.62-.62c.17-.05.34-.1.5-.16.24.28.47.56.71.84-.2-.01-.39-.04-.59-.06zm1.23.09c-.01-.01 0-.03-.01-.04-.28-.34-.57-.67-.85-1.01.16-.06.33-.13.49-.2.28.44.58.86.89 1.27-.18 0-.35-.01-.52-.02zm1.13.03c-.37-.48-.72-.97-1.05-1.48.16-.07.32-.15.48-.23.37.59.79 1.14 1.25 1.67-.23.01-.46.04-.68.04zm1.29-.08c-.53-.57-1.01-1.19-1.42-1.85.16-.08.31-.16.46-.24 0 0 0 .01.01.01.49.68.97 1.36 1.46 2.03-.04.01-.08.01-.12.02-.13.02-.26.01-.39.03zm1.04-.14c-.52-.73-1.04-1.45-1.56-2.18l.51-.27c.4.86.91 1.65 1.52 2.38-.16.02-.32.05-.47.07zm1.02-.19a9.879 9.879 0 0 1-1.63-2.5c.17-.09.34-.17.51-.26.47.91 1.01 1.78 1.59 2.63-.17.05-.32.1-.47.13zm.95-.25c-.6-.87-1.15-1.77-1.64-2.71.15-.07.3-.14.44-.2.51.96 1.08 1.88 1.68 2.78-.02.01-.05.02-.07.03-.13.03-.27.06-.41.1zm.94-.34c-.6-.9-1.17-1.82-1.68-2.77.17-.07.34-.13.51-.2.54.91 1.06 1.83 1.56 2.76-.14.08-.27.14-.39.21zm-8.76.4c.01.01 0 .01.01.02l.33.33c-.36-.06-.71-.13-1.07-.21.25-.03.49-.08.73-.14zm-.02 1.29c1.53.28 3.09.39 4.66.25 2.19-.19 3.98-1.06 6.04-1.64 1.02-.29 1.77.36 2.72.72 1.02.39 2.08.66 3.16.82 1.63.24 3.25.18 4.84-.1a18.68 18.68 0 0 1-21.42-.05z" fill="#000000" stroke-width="none" opacity="1"></path></g></g><g id="svga-group-eyes-left-move" transform="matrix(1,0,0,1,1,-2)"><g id="svga-group-eyes-left" transform="matrix(0.8999997000000001,0,0,0.8999997000000001,7.900023699999991,8.690026222588344)"><g id="svga-group-eyesback-left"></g><g id="svga-group-eyesiriswrapper-left"><g id="svga-group-eyesiriscontrol-left" transform="matrix(1,0,0,1,0,0)"><g id="svga-group-eyesiris-left"><path id="SvgjsPath6241" d="M75.2 84.6c-1.5 1.9-1.3 4.5.4 6 1.8 1.7 4.9 2.1 7.1.1 1.1-1.1 1.8-2.7 1.5-4.1-.1-.5-.3-1-.6-1.4-.2-.6-.5-1.1-1-1.5-2.1-1.9-5.6-1.5-7.4.9z" fill="#ffffff" stroke-width="none" opacity="1"></path><path id="SvgjsPath6242" d="M79.3 92.3c-1.5 0-2.9-.6-3.9-1.5-1.8-1.7-2-4.4-.4-6.4 1-1.2 2.4-2 4-2.1 1.4-.1 2.8.3 3.8 1.2.5.4.8 1 1.1 1.6.3.4.5 1 .6 1.5.3 1.4-.3 3.2-1.6 4.4-1.1.9-2.4 1.3-3.6 1.3zm-3.9-7.5c-1.4 1.7-1.2 4.1.4 5.6 1.7 1.5 4.7 2 6.6.1 1.1-1.1 1.7-2.6 1.4-3.8-.1-.4-.3-.9-.5-1.3v-.1c-.2-.5-.5-1-.9-1.4-.9-.8-2.1-1.2-3.3-1.1-1.5.2-2.8.9-3.7 2zm4.7 4.9c0-.1-.1-.1-.1-.2 0-.2 0-.4.1-.5.2-.3.4-.4.7-.4.2 0 .4.1.5.2l.2.2c.4-.4.6-.9.6-1.5 0-.5-.2-1-.5-1.3-.2-.7-.8-1.2-1.5-1.4-.4-.1-.9-.1-1.3 0 .3.8-.1 1.9-1.1 1.9-.3 0-.6-.1-.8-.2-.4 1-.2 2.2.7 3 .6.4 1.6.5 2.5.2z" fill="#000000" stroke-width="none" opacity="1"></path></g></g></g><g id="svga-group-eyesfront-left"><path id="SvgjsPath5783" d="M79 72.1c-8.2 0-14.8 6.6-14.8 14.8s6.6 14.8 14.8 14.8 14.8-6.6 14.8-14.8c0-8.1-6.6-14.8-14.8-14.8zM86.6 91c-1 .7-4.1 2.3-8.1 2.2s-11-2.6-11.7-3.5c-.7-1 2-3.2 3.2-4 1.1-.8 4.2-3.3 7.8-3.4 3.6-.1 6.2.8 8.4 2.2 2.2 1.3 3.7 3.7 3.7 3.7s-2.4 2.2-3.3 2.8z" fill="#ffffff" stroke-width="none" opacity="1"></path><path id="SvgjsPath5784" d="M79.4 93.7h.3c5.7-.1 9.7-4.3 9.8-4.5.2-.2.2-.5 0-.7s-.5-.2-.7 0c0 0-3.9 4.1-9.2 4.2-5.3.1-11.5-2.6-12.5-3.4.2-1 4.8-5.5 8.2-6.2 3.4-.7 10.8-.5 14.4 5.8.1.2.4.3.7.2.2-.1.3-.4.2-.7-3.9-6.7-11.8-7-15.4-6.2-3.4.7-8.4 5.1-8.9 6.8-.1.5 0 .8.2.9 1 1 7.4 3.8 12.9 3.8z" fill="#000000" stroke-width="none" opacity="1"></path></g></g></g><g id="svga-group-eyes-right-move" transform="matrix(1,0,0,1,-1,-2)"><g id="svga-group-eyes-right" transform="matrix(0.8999997000000001,0,0,0.8999997000000001,12.100036299999985,8.690026222588344)"><g id="svga-group-eyesback-right"></g><g id="svga-group-eyesiriswrapper-right"><g id="svga-group-eyesiriscontrol-right" transform="matrix(1,0,0,1,0,0)"><g id="svga-group-eyesiris-right"><path id="SvgjsPath6243" d="M117.2 84.6c-1.5 1.9-1.3 4.5.4 6 1.8 1.7 4.9 2.1 7.1.1 1.1-1.1 1.8-2.7 1.5-4.1-.1-.5-.3-1-.6-1.4-.2-.6-.5-1.1-1-1.5-2.1-1.9-5.6-1.5-7.4.9z" fill="#ffffff" stroke-width="none" opacity="1"></path><path id="SvgjsPath6244" d="M122.1 89.7c0-.1-.1-.1-.1-.2 0-.2 0-.4.1-.5.2-.3.4-.4.7-.4.2 0 .4.1.5.2l.2.2c.4-.4.6-.9.6-1.5 0-.5-.2-1-.5-1.3-.2-.7-.8-1.2-1.5-1.4-.4-.1-.9-.1-1.3 0 .3.8-.1 1.9-1.1 1.9-.3 0-.6-.1-.8-.2-.4 1-.2 2.2.7 3 .7.4 1.7.5 2.5.2zm-.8 2.6c-1.5 0-2.9-.6-3.9-1.5-1.8-1.7-2-4.4-.4-6.4 1-1.2 2.4-2 4-2.1 1.4-.1 2.8.3 3.8 1.2.5.4.8 1 1.1 1.6.3.4.5 1 .6 1.5.3 1.4-.3 3.2-1.6 4.4-1.1.9-2.3 1.3-3.6 1.3zm-3.9-7.5c-1.4 1.7-1.2 4.1.4 5.6 1.7 1.5 4.7 2 6.6.1 1.1-1.1 1.7-2.6 1.4-3.8-.1-.4-.3-.9-.5-1.3v-.1c-.2-.5-.5-1-.9-1.4-.9-.8-2.1-1.2-3.3-1.1-1.5.2-2.8.9-3.7 2z" fill="#000000" stroke-width="none" opacity="1"></path></g></g></g><g id="svga-group-eyesfront-right"><path id="SvgjsPath5785" d="M121 72.1c-8.2 0-14.8 6.6-14.8 14.8s6.6 14.8 14.8 14.8 14.8-6.6 14.8-14.8c0-8.1-6.6-14.8-14.8-14.8zm-.1 21.1c-3.9.1-7.1-1.5-8.1-2.2s-3.4-2.8-3.4-2.8 1.5-2.4 3.7-3.7c2.2-1.3 4.9-2.2 8.4-2.2 3.6.1 6.6 2.6 7.8 3.4 1.1.8 3.9 3.1 3.2 4-.7 1-7.7 3.4-11.6 3.5z" fill="#ffffff" stroke-width="none" opacity="1"></path><path id="SvgjsPath5788" d="M120 93.7h-.3c-5.7-.1-9.7-4.3-9.8-4.5-.2-.2-.2-.5 0-.7s.5-.2.7 0c0 0 3.9 4.1 9.2 4.2 5.3.1 11.5-2.6 12.5-3.4-.2-1-4.8-5.5-8.2-6.2-3.4-.7-10.8-.5-14.4 5.8-.1.2-.4.3-.7.2-.2-.1-.3-.4-.2-.7 3.9-6.7 11.8-7 15.4-6.2 3.4.7 8.4 5.1 8.9 6.8.1.5 0 .8-.2.9-1 1-7.4 3.8-12.9 3.8z" fill="#000000" stroke-width="none" opacity="1"></path></g></g></g><g id="svga-group-facehighlight-single"></g><g id="svga-group-eyebrows-left-move" transform="matrix(1,0,0,1,0,0)"><g id="svga-group-eyebrows-left-rotate" transform="matrix(1,1.7453292519943295e-9,-1.7453292519943295e-9,1,1.2627384649022133e-7,-1.3469578163949336e-7)"><g id="svga-group-eyebrows-left"><path id="SvgjsPath6040" d="M91.81 69.64c.45 2.53-1.19 6.83-1.63 7.28s-24.81-.59-25.85-1.49 1.63-6.24 1.63-6.24 21.4-.89 22.29-.89-1.63 3.57-1.63 3.57l4.01-3.12 1.18.89z" fill="#ffffff" stroke-width="none" opacity="1"></path><path id="SvgjsPath6041" d="M64.01 75.8c.56.48 5.08.94 13.44 1.36 3.11.16 6.26.27 8.64.32.9.02 1.6.03 2.16.03 2.02 0 2.13-.11 2.27-.25.6-.6 2.23-5.1 1.77-7.7a.492.492 0 0 0-.18-.3l-1.19-.89a.466.466 0 0 0-.58.01l-1.87 1.45c.61-1.2.44-1.52.37-1.65a.64.64 0 0 0-.59-.35c-.89 0-21.43.86-22.31.89-.17.01-.33.11-.41.26-.86 1.71-2.72 5.79-1.52 6.82zm10.73.27-.55-.03 1.12-6.75c.35-.01.7-.03 1.05-.04l-1.62 6.82zm2.29-6.86c.64-.03 1.27-.05 1.9-.08-.37 1.18-1.49 4.6-2.3 7.03l-1.23-.06 1.63-6.89zM73.56 76c-.23-.01-.47-.03-.7-.04l.75-6.6c.35-.01.7-.03 1.05-.04L73.56 76zm-1.34-.09c-.4-.03-.8-.05-1.18-.08l1.2-6.42.72-.03-.74 6.53zm-1.82-.13-.75-.06 1.19-6.26.74-.03-1.18 6.35zm-1.39-.11c-.18-.01-.34-.03-.51-.05l1.03-6.11.66-.03-1.18 6.19zm-1.15-.1c-.68-.07-1.29-.13-1.78-.2l1.76-5.77c.31-.01.66-.03 1.03-.04l-1.01 6.01zm13.96.82 2.45-7.47c.46-.02.89-.03 1.29-.05-.45 1.03-2.21 4.85-3.45 7.53-.09 0-.19 0-.29-.01zm-.66-.02c-.83-.03-1.69-.07-2.55-.11l2.4-7.21c.91-.04 1.78-.07 2.58-.1l-2.43 7.42zm6.73-7.58c-.23.59-.97 1.81-1.67 2.8-.08.11-.1.25-.07.38l-3 4.47c-.11 0-.23-.01-.34-.01 1.1-2.38 3.24-7.01 3.45-7.58.72-.03 1.28-.05 1.63-.06zm2.74.56L85.4 76.4c-.02.03-.02.07-.03.1-.47-.01-.96-.03-1.47-.04l2.77-4.13c.08-.01.16-.04.23-.09l3.73-2.89zm-4.52 7.17 5.03-6.79.23.17c0 .04.01.08.01.11l-3.63 6.53c-.49 0-1.04-.01-1.64-.02zm2.37.03 2.9-5.21c-.04.44-.11.9-.2 1.35l-2.25 3.86c-.14-.01-.29-.01-.45 0zm1.41-.05c-.06.01-.13.01-.21.02l.8-1.38c-.23.65-.46 1.14-.59 1.36zm-12.6-.3c1.61-4.84 2.14-6.5 2.31-7.09l.72-.03-2.38 7.15-.65-.03zm-11.03-6.54c.2-.01.52-.02.91-.04l-1.71 5.6c0 .02.01.03 0 .04-.4-.07-.7-.14-.84-.21-.31-.34.33-2.71 1.64-5.39z" fill="#000000" stroke-width="none" opacity="1"></path></g></g></g><g id="svga-group-eyebrows-right-move" transform="matrix(1,0,0,1,0,0)"><g id="svga-group-eyebrows-right-rotate" transform="matrix(1,1.7453292519943295e-9,-1.7453292519943295e-9,1,1.2627384649022133e-7,-2.1438752639824088e-7)"><g id="svga-group-eyebrows-right"><path id="SvgjsPath6042" d="M108.19 69.64c-.45 2.53 1.19 6.83 1.63 7.28s24.81-.59 25.85-1.49c1.04-.89-1.63-6.24-1.63-6.24s-21.4-.89-22.29-.89 1.63 3.57 1.63 3.57l-4.01-3.12-1.18.89z" fill="#ffffff" stroke-width="none" opacity="1"></path><path id="SvgjsPath6043" d="M134.47 68.98a.452.452 0 0 0-.41-.26c-.87-.04-21.42-.89-22.31-.89a.64.64 0 0 0-.59.35c-.07.14-.24.46.37 1.65l-1.87-1.45a.496.496 0 0 0-.58-.01l-1.19.89a.45.45 0 0 0-.18.3c-.46 2.6 1.17 7.11 1.77 7.7.14.14.25.25 2.27.25.56 0 1.27-.01 2.16-.03 2.38-.05 5.53-.17 8.64-.32 8.35-.42 12.88-.88 13.44-1.36 1.2-1.03-.66-5.11-1.52-6.82zm-10.83.26c.35.01.7.03 1.05.04l1.12 6.75-.55.03-1.62-6.82zm.97 6.86-1.23.06c-.81-2.43-1.94-5.85-2.3-7.03.63.03 1.27.05 1.9.08l1.63 6.89zm.73-6.79c.35.01.71.03 1.05.04l.75 6.6c-.23.01-.46.03-.7.04l-1.1-6.68zm1.7.07.72.03 1.2 6.42c-.38.03-.78.05-1.18.08l-.74-6.53zm1.37.06.74.03 1.19 6.26-.75.06-1.18-6.35zm1.4.06.66.03 1.03 6.11c-.17.02-.33.03-.51.05l-1.18-6.19zm1.31.05c.38.02.72.03 1.03.04l1.76 5.77c-.5.07-1.1.14-1.78.2l-1.01-6.01zm-13.24 6.85c-1.24-2.68-3-6.5-3.45-7.53.4.02.83.03 1.29.05l2.45 7.47c-.09.01-.19.01-.29.01zm-1.47-7.45c.8.03 1.67.07 2.58.1l2.4 7.21c-.87.04-1.72.07-2.55.11l-2.43-7.42zm-2.67-.1c.22.57 2.35 5.2 3.45 7.58-.11 0-.23.01-.34.01l-3-4.47c.03-.13.01-.27-.07-.38-.7-.99-1.44-2.21-1.67-2.8.35.01.91.03 1.63.06zm-.64 3.39c.07.05.15.08.23.09l2.77 4.13c-.51.02-1.01.03-1.47.04-.01-.03 0-.07-.03-.1l-5.23-7.05 3.73 2.89zm-.85 4.3-3.63-6.53c0-.04 0-.08.01-.11l.23-.17 5.03 6.79c-.6.01-1.15.02-1.64.02zm-1.17 0-2.25-3.86c-.09-.45-.16-.91-.2-1.35l2.9 5.21h-.45zm-1.56-1.4.8 1.38c-.08-.01-.16-.01-.21-.02-.13-.22-.36-.71-.59-1.36zm12.54 1.09-2.38-7.15.72.03c.17.58.7 2.25 2.31 7.09l-.65.03zm13.32-1.18c-.14.07-.44.14-.84.21 0-.02.01-.03 0-.04l-1.71-5.6c.39.02.7.03.91.04 1.31 2.68 1.95 5.05 1.64 5.39z" fill="#000000" stroke-width="none" opacity="1"></path></g></g></g><g id="svga-group-beardwrap" transform="matrix(0.9799997000000001,0,0,0.9998997000000002,0,0)"><g id="svga-group-beard-single-move" transform="matrix(1,0,0,1,0,0)"><g id="svga-group-beard-single"></g></g></g><g id="svga-group-mustache-single-move" transform="matrix(1,0,0,1,0,0)"><g id="svga-group-mustache-single"></g></g><g id="svga-group-nose-single-move" transform="matrix(1,0,0,1,-1,4)"><g id="svga-group-nose-single"><path id="SvgjsPath7381" d="M94.63 99.18s-5.25 4.01-4.56 7.12c.69 3.11 5.39-.14 5.39-.14s1.04 2.49 3.59 2.9c2.56.41 4.15-3.11 4.15-3.11s4.84 2 6.08 1.04c1.24-.97-.07-3.04-1.17-4.84-1.11-1.79-6.3-6.98-13.48-2.97z" fill="#ffffff" stroke-width="none" opacity="1"></path><path id="SvgjsPath7382" d="M103.12 103.76c-.77 1.94-1.89 4.64-4.41 4.3-2.57-.35-2.86-3.32-3.01-5.42-.26-3.59-.31-7.2-.24-10.8.14-7.65.97-15.27 2.43-22.78.18-.95-1.27-1.36-1.46-.4-1.97 10.17-2.81 20.54-2.4 30.9.05 1.32.04 2.95.25 4.53-.33-.24-.82-.26-1.08.2-.01.02-.03.04-.04.06a.748.748 0 0 0-.56-.12c-.86.15-1.85.42-2.33 1.23-.39.65-.35 1.58.17 2.15 1.56 1.72 3.34-1.29 4.02-2.48.41 1.93 1.28 3.64 3.22 4.36 3.62 1.35 5.81-2.56 6.9-5.31.36-.93-1.1-1.32-1.46-.42zm-11.6 2.8c-.09-.04.09-.4.17-.47.13-.12.31-.19.5-.25-.22.29-.57.76-.67.72z" fill="#000000" stroke-width="none" opacity="1"></path><path id="SvgjsPath7383" d="M109.87 106.3c-.42-1.58-1.78-2.62-3.32-2.79-.34-.38-.98-.43-1.19.05-.63.19-.54 1.01-.04 1.31.34 1.78 2.09 3.04 4.02 2.36.39-.14.64-.51.53-.93zm-2.95-1.21c.4.15.76.4 1.04.74-.45-.1-.83-.35-1.04-.74z" fill="#000000" stroke-width="none" opacity="1"></path></g></g><g id="svga-group-hair-front" transform="matrix(0.9799997000000001,0,0,0.9998997000000002,1.9983615026828687,0.005029258880988152)"><path id="SvgjsPath3858" d="M57.9 78.6s-3.5-3.7-3.9-6.1-.9-17.4.2-24.2 10.7-17.7 18.4-21.8 24.6-6 29.5-5.8 21.1 3.9 26.9 8.1 14.4 13.9 15.8 21.4 1.9 21.4 1.4 23-4.1 6.8-5 6.1-1.7-17-3.1-22.1-7-14.4-11.4-17.2-11.9 2.7-17.5 4.1c-5.6 1.4-14.6 1.9-21.6-1.6-6-3-12.1-4.6-15.3-2.3s-8.2 11.6-9.7 16.4c-2.2 6.8-2.6 15.7-2.8 17.5s-.7 5.1-1.9 4.5z" fill="#ffffff" stroke-width="none" opacity="1"></path><path id="SvgjsPath3859" d="M145.8 50.1c-1.5-7.8-10.3-17.8-16.2-22-6-4.3-22.4-8.1-27.5-8.3-4.5-.2-21.9 1.5-30 5.9-7.5 4.1-17.6 15.1-18.9 22.5-1.2 7-.7 22.2-.2 24.6.5 2.5 3.8 6.1 4.2 6.5l.1.1.2.1c.5.2 1 .2 1.5 0 1.1-.6 1.5-2.3 1.8-5.2 0-.3.1-.9.2-1.7.3-3.3.8-10.2 2.6-15.7 1.5-4.6 6.4-13.8 9.3-15.9 2.5-1.8 7.7-.9 14.3 2.4 7.1 3.6 16.2 3.2 22.3 1.7 1.9-.5 3.9-1.4 5.9-2.2 4-1.8 8.2-3.6 10.7-2 4 2.5 9.6 11.5 11 16.6.7 2.5 1.2 7.9 1.7 12.6.8 8.2 1.1 9.5 1.8 10.1.2.1.4.3.8.3.2 0 .3 0 .5-.1 1.8-.6 4.8-5.4 5.3-6.8.5-2-.1-16.4-1.4-23.5zm-.5 22.9c-.3 1.2-2.3 4-3.5 5.1-.1-.5-.2-1.2-.3-2.1.2.1.5.1.7-.1.7-.6 1.2-1.5 1.4-2.4.1-.8-1.1-1.1-1.2-.3-.1.7-.4 1.3-1 1.8-.2-1.6-.4-3.4-.5-5-.5-4.8-1-10.3-1.8-13-.5-1.8-1.5-4.2-2.9-6.7.3.1.5 0 .7-.3.4-.9.8-1.9 1.2-2.8.3-.7-.8-1.4-1.1-.6-.4.9-.8 1.9-1.2 2.8v.1c-1.5-2.6-3.3-5.2-5.1-7.3h.1c1.1-.2 2.1-.7 3-1.3.7-.4 0-1.5-.6-1.1-.8.5-1.7.9-2.7 1.1-.3.1-.4.2-.4.4-.9-.9-1.8-1.7-2.7-2.2-1.1-.7-2.2-.9-3.5-.9-2.8 0-6 1.4-9.2 2.8-2 .9-3.9 1.7-5.6 2.1-1.1.3-2.4.5-3.7.7.6-.6 1-1.4 1.2-2.3.2-.8-1-1.1-1.2-.3s-.7 1.6-1.3 2.1c-.2.2-.2.4-.2.6-.5 0-1 .1-1.4.1.1-.1.1-.2.1-.3.2-.9.4-1.9.6-2.8.2-.8-1-1.1-1.2-.3-.2.9-.4 1.9-.6 2.8-.1.3.1.5.2.6-3.7.1-7.7-.3-11.3-1.6.2-.3.2-.7-.1-.9-2-1.5-3.6-3.3-5-5.4-.4-.7-1.5 0-1.1.6 1.2 1.9 2.7 3.5 4.3 4.9-.1 0-.2-.1-.3-.1-5.2-2.6-12.3-5.1-16.3-2.2-3.4 2.5-8.5 12-10.1 16.9-1.8 5.7-2.4 12.7-2.7 16.1-.1.7-.1 1.3-.1 1.6-.2 1.9-.5 2.9-.6 3.3-1.1-1.3-2.9-3.6-3.2-5-.1-.5-.2-1.7-.3-3.4.1.1.1.3.2.4.4.7 1.5.1 1.1-.6-.3-.5-.4-1.2-.3-1.8.1-.6-.7-1-1-.6-.2-5.6-.1-13.4.6-17.7.6-3.3 3.4-7.9 7.1-12.1-.3 1.1-.5 2.1-.8 3.2-.2.8 1 1.1 1.2.3l.9-3.3c.1-.5-.4-.8-.8-.8 3.1-3.4 6.8-6.6 10.2-8.5 7.3-4 23.9-5.9 29-5.7 4.8.2 20.8 3.9 26.4 7.9 5.4 3.9 14 13.6 15.4 20.7.5 2.9.9 6.7 1.2 10.4-.3-.3-1.1-.2-1.1.4 0 .7-.1 1.3-.1 2-.1.8 1.2.8 1.3 0 0-.4 0-.7.1-1.1.1 1.6.2 3.2.2 4.6-.2.1-.4.2-.4.4-.1.9-.4 1.7-1 2.4-.5.6.6 1.3 1.1.6.2-.2.3-.4.4-.6-.3 2.1-.3 3.3-.4 3.7zM92.8 39.1c-.3-.7-1.5-.4-1.2.3.7 1.7 1.8 3 3.2 4.1.6.5 1.3-.6.6-1.1-1.1-.8-2-1.9-2.6-3.3zm-11.4-3.5c-.5-.6-1.4.3-.9.9.7.8 1.4 1.7 2 2.5.5.6 1.4-.3.9-.9-.6-.8-1.3-1.6-2-2.5zm-5.7-1.2c-.3-.7-1.5-.4-1.2.3.5 1.2 1.2 2.3 2.2 3.2.6.5 1.5-.4.9-.9-.8-.7-1.5-1.5-1.9-2.6zm-2.4 1.3c-.2-.8-1.4-.4-1.2.3.1.5.3 1 .4 1.5.2.8 1.4.4 1.2-.3-.2-.6-.3-1.1-.4-1.5zm-6.1 4.4c0-.8-1.2-.8-1.3 0 0 1.3.1 2.6.6 3.8.3.8 1.5.4 1.2-.3-.3-1.2-.5-2.3-.5-3.5zm-2.6 2.7c.1-.8-1.2-.8-1.3 0-.1 1.6.1 3.1.7 4.6.3.7 1.5.4 1.2-.3-.5-1.4-.7-2.8-.6-4.3zM62 48.6c.1-.8-1.1-1.1-1.2-.3-.3 1.9-.2 3.7.4 5.6.2.8 1.4.4 1.2-.3-.5-1.7-.6-3.4-.4-5zm-3 6.5c.1 1.4.3 2.8.4 4.2.1.8 1.3.8 1.3 0-.1-1.4-.3-2.8-.4-4.2-.1-.8-1.4-.8-1.3 0zm-.6 12c-.2-.8-1.4-.4-1.2.3.2.8.4 1.7.7 2.5.2.8 1.4.4 1.2-.3-.3-.8-.5-1.6-.7-2.5zm-.7 6.3c-.2-.8-1.4-.4-1.2.3.1.5.3 1 .4 1.5.2.8 1.4.4 1.2-.3-.1-.5-.2-1-.4-1.5zm.2-11.7c.1 1.1.3 2.2.4 3.3.1.8 1.3.8 1.3 0-.1-1.1-.3-2.2-.4-3.3-.1-.8-1.4-.8-1.3 0zm11.9-28.5c.1-.8-1.1-1.1-1.2-.3-.3 1.7-.2 3.4.1 5.2.2.8 1.4.5 1.2-.3-.3-1.6-.4-3.1-.1-4.6zm-3.6 5c-.1-.9.1-1.8.4-2.6s-.9-1.1-1.2-.3c-.3 1-.5 2-.4 3 0 .7 1.2.7 1.2-.1zm-5.1 7.4c-.3-1.1-.3-2.1-.2-3.2.1-.8-1.2-.8-1.3 0-.1 1.2 0 2.4.3 3.5.2.8 1.4.4 1.2-.3zm-1.6 5.6c0-1.2 0-2.5-.1-3.7 0-.8-1.3-.8-1.3 0 0 1.2 0 2.5.1 3.7 0 .8 1.3.8 1.3 0zm-2.2 4.7c0-1.2-.1-2.5-.1-3.7 0-.8-1.3-.8-1.3 0 0 1.2.1 2.5.1 3.7.1.8 1.3.8 1.3 0zm-.6 3.8c0-.8-1.3-.8-1.3 0v1.9c0 .8 1.3.8 1.3 0v-1.9zm18.6-31.1c.5-.7-.6-1.3-1.1-.6-.7 1-1 2.2-1 3.4 0 .8 1.2.8 1.3 0 0-1 .3-1.9.8-2.8zm2.4 1.5c-.1 1-.2 2-.2 2.9-.1.8 1.2.8 1.3 0 .1-1 .2-2 .2-2.9 0-.8-1.2-.8-1.3 0zm5.6.5c.1-.8-1.2-.8-1.3 0-.1 1 .1 1.9.5 2.7.3.7 1.4.1 1.1-.6-.3-.7-.3-1.4-.3-2.1zm-.6-2.8c0-.7.2-1.4.5-2.1s-.8-1.4-1.1-.6c-.4.9-.6 1.8-.6 2.7-.1.8 1.1.8 1.2 0zm5.7 8c-.3-.7-1.4-.1-1.1.6l.9 2.1c.3.7 1.4.1 1.1-.6l-.9-2.1zm10.8 7c-1-.4-1.9-1.1-2.6-1.9-.5-.6-1.4.3-.9.9.8.9 1.7 1.6 2.8 2.1.8.3 1.5-.8.7-1.1zm10.4-4.3c-.2 1.1-.7 2.1-1.5 2.9-.5.6.3 1.5.9.9.9-1 1.5-2.2 1.8-3.5.1-.8-1.1-1.1-1.2-.3zm4.7-1c-.7 1.2-1.5 2.2-2.5 3.2-.6.5.3 1.4.9.9 1.1-1 2-2.1 2.7-3.4.4-.7-.7-1.4-1.1-.7zm5.2-1.7c-.7 1.1-1.7 2.1-2.8 2.9-.7.5 0 1.5.6 1.1 1.3-.9 2.4-2 3.3-3.3.4-.8-.7-1.4-1.1-.7zm4.8-1.1c-.6.6-1.2 1.2-1.7 1.9-.5.6.3 1.5.9.9s1.2-1.2 1.7-1.9c.5-.6-.4-1.5-.9-.9zm-28.3 3c.3 1 .9 1.8 1.7 2.5.6.5 1.5-.4.9-.9s-1.1-1.1-1.4-1.9c-.2-.8-1.4-.4-1.2.3zm-3.8-2.6c.4 1 .9 2 1.3 2.9.3.7 1.4.1 1.1-.6-.4-1-.9-2-1.3-2.9-.4-.8-1.5-.1-1.1.6zm-3-4.2c-.1-.8-1.3-.8-1.3 0 .2 1.3.5 2.6 1.1 3.8.3.7 1.4.1 1.1-.6-.4-1-.7-2.1-.9-3.2zm-1.7-1.4c-.1-1.1 0-2.1.4-3 .3-.8-.9-1.1-1.2-.3-.4 1.1-.6 2.2-.4 3.4 0 .7 1.3.7 1.2-.1zm4.4-5.7c.1-.8-1.1-1.1-1.2-.3-.1.7-.3 1.4-.4 2.1-.1.8 1.1 1.1 1.2.3.1-.7.2-1.4.4-2.1zm1.7 8.1-.9-3c-.2-.8-1.4-.4-1.2.3l.9 3c.2.8 1.4.5 1.2-.3zm4.4 1.9c-.3-.7-1.5-.4-1.2.3.4 1.1 1 2 1.8 2.8.6.6 1.4-.3.9-.9-.7-.6-1.2-1.4-1.5-2.2zm4.4 1.1v2.8c0 .8 1.2.8 1.3 0v-2.8c-.1-.8-1.3-.8-1.3 0zm-3.5-5.1c.3.6.4 1.2.3 1.8-.2.8 1 1.1 1.2.3.2-1 .1-1.9-.4-2.8-.4-.6-1.5 0-1.1.7zm-2.9 0c.1-1.3.2-2.7.3-4 .1-.8-1.2-.8-1.3 0-.1 1.3-.2 2.7-.3 4 0 .8 1.2.8 1.3 0zm3-3.5c.3 0 .7-.3.6-.6l-.3-2.1c0-.3-.3-.6-.6-.6s-.7.3-.6.6l.3 2.1c0 .3.2.6.6.6zm5.1-.5v-2.1c0-.8-1.3-.8-1.3 0v2.1c0 .8 1.3.8 1.3 0zm4.2 1.1c.3-.9.2-1.8-.2-2.6-.3-.7-1.4-.1-1.1.6.2.5.2 1.1.1 1.7-.2.7 1 1 1.2.3zm4.6.9c0-.7.1-1.3.1-2 0-.8-1.2-.8-1.3 0 0 .7-.1 1.3-.1 2 0 .8 1.2.8 1.3 0zm4.3 1.2c0-.7.1-1.3.1-2 0-.8-1.2-.8-1.3 0 0 .7-.1 1.3-.1 2 0 .8 1.2.8 1.3 0zm3.8-1c-.2.8-.3 1.6-.5 2.4s1 1.1 1.2.3c.2-.8.3-1.6.5-2.4.2-.7-1-1.1-1.2-.3zm4.5 2.3c-.2.5-.4 1-.7 1.5-.3.7.7 1.4 1.1.6.2-.5.4-1 .7-1.5.3-.7-.7-1.3-1.1-.6zm4.3 6.5c-.8.5-1.6.7-2.5.7-.8 0-.8 1.3 0 1.3 1.1 0 2.2-.3 3.1-.9.7-.5.1-1.5-.6-1.1zm4.5 5.2c-.2.8-.6 1.4-1.2 1.9s0 1.6.6 1.1c.9-.7 1.5-1.6 1.8-2.7.2-.8-1-1.1-1.2-.3zm5.2 8.7c0 1.1-.4 2-1 2.9-.5.7.6 1.3 1.1.6.7-1 1.1-2.2 1.2-3.5 0-.8-1.2-.8-1.3 0zm1.6 8.9c.3-1.2.5-2.3.8-3.5.2-.8-1-1.1-1.2-.3-.3 1.2-.5 2.3-.8 3.5-.2.7 1 1.1 1.2.3zm.5 5.3c.7-1.2 1.1-2.4 1.2-3.8 0-.8-1.2-.8-1.3 0-.1 1.1-.4 2.2-1 3.2-.4.7.7 1.3 1.1.6zm.8 2.1-1.2 3.6c-.3.8 1 1.1 1.2.3l1.2-3.6c.2-.7-1-1.1-1.2-.3zm1.6-14.4c0-.8-1.2-.8-1.3 0 0 1.2-.1 2.3-.1 3.5 0 .8 1.2.8 1.3 0 0-1.2.1-2.4.1-3.5zm-4.1-5.1c-.1.8 1.1.8 1.3 0 .2-1.4-.1-2.7-.6-3.9-.3-.7-1.4-.1-1.1.6.4 1 .5 2.1.4 3.3zm-3.3-6.6c0 .7.1 1.3.1 2 .1.8 1.3.8 1.3 0 0-.7-.1-1.3-.1-2-.1-.8-1.4-.8-1.3 0zm-2.6-2.1c-.1.8 1.1.8 1.3 0 .1-1.1 0-2.1-.4-3.1-.3-.7-1.5-.4-1.2.3.3.9.4 1.8.3 2.8zm-3.2-4.8c.2.7.3 1.3.2 2-.1.8 1.2.8 1.3 0s0-1.6-.3-2.3c-.2-.8-1.4-.5-1.2.3zm-2.4-.7c.1-.6.3-1.2.4-1.7.2-.8-1-1.1-1.2-.3-.1.6-.3 1.2-.4 1.7-.2.8 1 1.1 1.2.3zm-20 3.6c.2-.6.4-1.2.5-1.9.2-.8-1-1.1-1.2-.3-.2.6-.4 1.2-.5 1.9-.3.8.9 1.1 1.2.3zm4.3-4.2c-.3.9-.5 1.8-.8 2.7-.2.8 1 1.1 1.2.3.3-.9.5-1.8.8-2.7.2-.7-1-1-1.2-.3zm4.1 1.4c.3-.8.5-1.6.8-2.4.3-.8-1-1.1-1.2-.3-.3.8-.5 1.6-.8 2.4-.3.7.9 1.1 1.2.3zm-13.2-4.6c0 .8-.1 1.6-.1 2.4 0 .8 1.2.8 1.3 0 0-.8.1-1.6.1-2.4s-1.2-.8-1.3 0zm5.7 3c.1-.9.2-1.8.4-2.7.1-.8-1.1-1.1-1.2-.3-.1.9-.2 1.8-.4 2.7-.1.8 1.1 1.1 1.2.3z" fill="#000000" stroke-width="none" opacity="1"></path></g><g id="svga-group-glasses-single-move" transform="matrix(1,0,0,1,0,0)"><g id="svga-group-glasses-single"></g></g></g></g></g><rect id="svga-credit-rect" width="200" height="15" x="0" y="185" fill="#ecf0f1" opacity="0.5" style="display: none;"></rect><text id="svga-credit-text" font-family="Avenir Next, Roboto, Helvetica, Arial, sans-serif" font-size="10px" text-anchor="start" font-weight="400" size="10px" anchor="start" weight="400" fill="#333333" x="33.40447998046875" y="182.60824704170227" style="display: none;"><tspan id="SvgjsTspan3640" dy="13" x="33.40447998046875">Created on AvatarMaker.com</tspan></text></g><defs id="SvgjsDefs3587"></defs></svg>