<svg xmlns="http://www.w3.org/2000/svg" width="375" viewBox="0 0 375 375" height="375" version="1.0"><path fill="#8755B0" d="M 259.789062 206.171875 C 258.234375 205.015625 256.15625 209.253906 255.003906 203.859375 C 253.851562 198.460938 250.199219 192.871094 243.085938 193.644531 C 235.976562 194.414062 236.359375 205.59375 227.328125 205.207031 C 224.6875 205.09375 222.128906 204.472656 219.832031 203.648438 L 219.832031 162.5625 C 219.832031 144.683594 205.375 130.1875 187.542969 130.1875 C 169.710938 130.1875 155.257812 144.683594 155.257812 162.5625 L 155.257812 202.847656 C 152.9375 203.6875 150.351562 204.324219 147.679688 204.4375 C 138.648438 204.820312 139.03125 193.644531 131.921875 192.871094 C 124.808594 192.101562 121.15625 197.691406 120.003906 203.085938 C 118.851562 208.484375 116.773438 204.242188 115.21875 205.402344 C 113.660156 206.558594 112.507812 211.375 120.773438 212.144531 C 129.039062 212.917969 126.539062 200.582031 133.074219 204.628906 C 142.492188 212.144531 139.800781 217.347656 155.753906 216 C 162.265625 214.863281 166.402344 212.710938 169.035156 210.445312 C 171.597656 211.492188 174.8125 212.324219 178.449219 212.851562 C 178.203125 214.269531 178.628906 215.464844 180.265625 216.082031 C 186.316406 218.359375 182.617188 219.414062 178.453125 227.230469 C 174.292969 235.042969 184.117188 238.632812 183.511719 242.816406 C 182.910156 247 175.589844 238.878906 173.851562 242.585938 C 172.113281 246.296875 180.28125 257.378906 190.015625 251.570312 C 199.753906 245.765625 196.019531 236.210938 193.375 232.558594 C 190.734375 228.910156 197.039062 226.496094 199.335938 222.625 C 201.167969 219.53125 196.917969 215.75 194.292969 213.167969 C 198.59375 212.738281 202.429688 211.894531 205.46875 210.761719 C 208.066406 213.191406 212.3125 215.558594 219.253906 216.769531 C 235.207031 218.121094 232.515625 212.917969 241.933594 205.402344 C 248.46875 201.351562 245.96875 213.6875 254.234375 212.917969 C 262.5 212.144531 261.347656 207.328125 259.789062 206.171875"/><path fill="#774AA9" d="M 241.933594 205.402344 C 248.46875 201.351562 245.96875 213.6875 254.234375 212.917969 C 259.648438 212.410156 261.023438 210.171875 260.886719 208.359375 C 258.609375 209.847656 254.945312 210.390625 252.636719 209.234375 C 249.78125 207.804688 250.949219 204.417969 246.148438 200.90625 C 241.34375 197.390625 238.617188 206.109375 230.570312 210.925781 C 222.523438 215.742188 216.8125 211.707031 211.75 208.582031 C 208.175781 206.378906 206.21875 209.039062 205.378906 210.792969 L 205.46875 210.761719 C 208.066406 213.191406 212.3125 215.558594 219.253906 216.769531 C 235.207031 218.121094 232.515625 212.917969 241.933594 205.402344"/><path fill="#774AA9" d="M 163.335938 207.933594 C 159.183594 210.015625 153.34375 214.570312 145.425781 211.1875 C 137.507812 207.804688 139.066406 199.734375 131.796875 199.734375 C 124.527344 199.734375 125.695312 208.0625 121.671875 208.453125 C 119.222656 208.691406 116.144531 207.867188 114.113281 207.742188 C 114.070312 209.527344 115.511719 211.65625 120.773438 212.144531 C 129.039062 212.917969 126.539062 200.582031 133.074219 204.628906 C 142.492188 212.144531 139.800781 217.347656 155.753906 216 C 162.265625 214.863281 166.402344 212.710938 169.035156 210.445312 C 169.035156 210.445312 167.488281 205.851562 163.335938 207.933594"/><path fill="#774AA9" d="M 189.683594 213.269531 C 189.945312 216.003906 194.746094 216.261719 193.96875 219.90625 C 193.191406 223.550781 185.664062 224.980469 186.832031 229.277344 C 187.996094 233.570312 193.449219 240.078125 191.371094 244.632812 C 189.296875 249.1875 181.898438 251.921875 174.109375 243.460938 C 173.96875 243.308594 173.832031 243.164062 173.699219 243.027344 C 172.714844 247.089844 180.640625 257.164062 190.015625 251.570312 C 199.753906 245.765625 196.019531 236.210938 193.375 232.558594 C 190.734375 228.910156 197.039062 226.496094 199.335938 222.625 C 201.167969 219.53125 196.917969 215.75 194.292969 213.167969 C 194.292969 213.167969 189.425781 210.535156 189.683594 213.269531"/><path fill="#774AA9" d="M 219.832031 203.648438 L 219.832031 162.5625 C 219.832031 150.59375 213.355469 140.144531 203.722656 134.542969 C 206.6875 144.722656 212.121094 165.734375 211.363281 180.601562 C 210.5 197.480469 213.136719 206.265625 219.867188 203.660156 L 219.832031 203.648438"/><path fill="#2C2141" d="M 167.75 168.71875 C 167.75 187.359375 176.34375 202.46875 186.941406 202.46875 C 197.539062 202.46875 206.128906 187.359375 206.128906 168.71875 C 206.128906 165.90625 205.929688 163.175781 205.5625 160.558594 L 168.316406 160.558594 C 167.949219 163.175781 167.75 165.90625 167.75 168.71875"/><path fill="#FFF" d="M 173.375 160.660156 C 173.375 166.949219 174.546875 172.042969 175.988281 172.042969 C 177.429688 172.042969 178.601562 166.949219 178.601562 160.660156 C 178.601562 160.625 178.601562 160.59375 178.601562 160.558594 L 173.375 160.558594 C 173.375 160.59375 173.375 160.625 173.375 160.660156"/><path fill="#FFF" d="M 201.507812 160.558594 L 196.285156 160.558594 C 196.296875 166.800781 197.460938 171.84375 198.894531 171.84375 C 200.328125 171.84375 201.496094 166.800781 201.507812 160.558594"/><path fill="#F03F53" d="M 202.804688 187.707031 C 199.410156 182.613281 193.882812 179.296875 187.644531 179.296875 C 180.855469 179.296875 174.910156 183.21875 171.640625 189.085938 C 175.144531 197.214844 180.691406 202.46875 186.941406 202.46875 C 193.535156 202.46875 199.347656 196.617188 202.804688 187.707031"/><path fill="#11100E" d="M 194.597656 145.957031 C 194.597656 150.609375 190.839844 154.378906 186.203125 154.378906 C 181.5625 154.378906 177.804688 150.609375 177.804688 145.957031 C 177.804688 141.304688 181.5625 137.535156 186.203125 137.535156 C 190.839844 137.535156 194.597656 141.304688 194.597656 145.957031"/><path fill="#FFF" d="M 193.359375 144.769531 C 193.902344 148.734375 191.140625 152.390625 187.191406 152.9375 C 183.234375 153.488281 179.589844 150.714844 179.042969 146.753906 C 178.5 142.789062 181.257812 139.132812 185.214844 138.585938 C 189.164062 138.039062 192.8125 140.808594 193.359375 144.769531"/><path fill="#4B88CF" d="M 191.949219 145.285156 C 192.375 148.386719 190.214844 151.246094 187.121094 151.675781 C 184.027344 152.105469 181.171875 149.9375 180.746094 146.832031 C 180.320312 143.734375 182.480469 140.871094 185.574219 140.441406 C 188.667969 140.015625 191.523438 142.183594 191.949219 145.285156"/><path fill="#1D3D65" d="M 190.496094 145.484375 C 190.828125 147.898438 189.148438 150.125 186.742188 150.457031 C 184.335938 150.789062 182.117188 149.101562 181.785156 146.691406 C 181.453125 144.28125 183.132812 142.050781 185.539062 141.71875 C 187.945312 141.386719 190.164062 143.070312 190.496094 145.484375"/><path fill="#15293D" d="M 188.566406 145.976562 C 188.566406 147.214844 187.5625 148.21875 186.324219 148.21875 C 185.089844 148.21875 184.085938 147.214844 184.085938 145.976562 C 184.085938 144.734375 185.089844 143.730469 186.324219 143.730469 C 187.5625 143.730469 188.566406 144.734375 188.566406 145.976562"/><path fill="#FFF" d="M 190.328125 142.589844 C 190.460938 143.570312 189.78125 144.46875 188.808594 144.605469 C 187.832031 144.738281 186.933594 144.054688 186.800781 143.082031 C 186.667969 142.105469 187.347656 141.203125 188.320312 141.070312 C 189.296875 140.933594 190.191406 141.617188 190.328125 142.589844"/><path fill="#FFF" d="M 191.105469 145.523438 C 191.105469 145.941406 190.765625 146.285156 190.34375 146.285156 C 189.925781 146.285156 189.585938 145.941406 189.585938 145.523438 C 189.585938 145.101562 189.925781 144.761719 190.34375 144.761719 C 190.765625 144.761719 191.105469 145.101562 191.105469 145.523438"/><path fill="#F47217" d="M 207.113281 140.246094 C 207.113281 140.246094 222.753906 139.023438 223.730469 133.019531 C 224.710938 127.011719 221.410156 122.234375 224.097656 120.765625 C 226.785156 119.292969 230.695312 119.414062 231.0625 120.398438 C 231.429688 121.375 226.417969 121.128906 227.765625 124.808594 C 229.109375 128.484375 235.21875 143.800781 220.796875 147.722656 C 206.378906 151.640625 207.113281 140.246094 207.113281 140.246094"/><path fill="#F35F19" d="M 226.785156 139.265625 C 228.128906 135.101562 225.929688 127.257812 226.542969 123.214844 C 226.898438 120.851562 229.050781 120.207031 230.777344 120.074219 C 230.917969 120.167969 231.019531 120.273438 231.0625 120.398438 C 231.429688 121.375 226.417969 121.128906 227.765625 124.808594 C 229.109375 128.484375 235.21875 143.800781 220.796875 147.722656 C 211.804688 150.167969 208.703125 146.652344 207.644531 143.660156 C 214.429688 144.640625 225.652344 142.78125 226.785156 139.265625"/><path fill="#F8B07E" d="M 223.644531 146.6875 C 222.796875 147.085938 221.851562 147.433594 220.796875 147.722656 C 219.214844 148.152344 217.8125 148.398438 216.574219 148.496094 C 215.679688 145.734375 215.132812 141.4375 214.867188 138.929688 C 216.527344 138.503906 218.21875 137.953125 219.675781 137.246094 C 220.566406 139.617188 222.472656 144.050781 223.644531 146.6875"/><path fill="#ED9E6B" d="M 221.835938 142.527344 C 222.480469 144.042969 223.132812 145.535156 223.644531 146.6875 C 222.796875 147.085938 221.851562 147.433594 220.796875 147.722656 C 219.214844 148.152344 217.8125 148.398438 216.574219 148.496094 C 216.140625 147.15625 215.789062 145.460938 215.511719 143.78125 C 217.742188 143.464844 221.035156 142.714844 221.835938 142.527344"/><path fill="#F8B07E" d="M 223.730469 133.019531 C 223.871094 132.15625 223.925781 131.320312 223.917969 130.519531 C 225.324219 131.078125 227.792969 131.996094 229.976562 132.792969 C 230.25 134.726562 230.3125 136.785156 229.921875 138.757812 C 227.703125 137.886719 224.949219 135.789062 223.230469 134.371094 C 223.480469 133.949219 223.652344 133.5 223.730469 133.019531"/><path fill="#ED9E6B" d="M 226.929688 131.667969 C 227.917969 132.039062 228.976562 132.429688 229.976562 132.792969 C 230.25 134.726562 230.3125 136.785156 229.921875 138.757812 C 229.03125 138.410156 228.054688 137.859375 227.09375 137.238281 C 227.132812 135.871094 227.015625 133.273438 226.929688 131.667969"/><path fill="#F8B07E" d="M 228.289062 126.242188 C 226.890625 125.855469 224.695312 125.074219 223.164062 124.511719 C 222.890625 122.730469 222.902344 121.417969 224.097656 120.765625 C 224.15625 120.730469 224.214844 120.703125 224.273438 120.671875 L 227.972656 122.394531 C 227.535156 122.933594 227.355469 123.6875 227.765625 124.808594 C 227.898438 125.175781 228.082031 125.660156 228.289062 126.242188"/><path fill="#ED9E6B" d="M 228.289062 126.242188 C 227.777344 126.101562 227.15625 125.90625 226.5 125.6875 C 226.398438 123.695312 226.742188 122.550781 227.03125 121.957031 L 227.972656 122.394531 C 227.535156 122.933594 227.355469 123.6875 227.765625 124.808594 C 227.898438 125.175781 228.082031 125.660156 228.289062 126.242188"/><path fill="#F47217" d="M 215.535156 155.121094 C 215.535156 155.121094 231.175781 153.894531 232.152344 147.890625 C 233.132812 141.886719 229.832031 137.105469 232.519531 135.636719 C 235.207031 134.167969 239.117188 134.289062 239.484375 135.269531 C 239.851562 136.25 234.839844 136.003906 236.1875 139.679688 C 237.53125 143.355469 243.640625 158.671875 229.222656 162.59375 C 214.800781 166.515625 215.535156 155.121094 215.535156 155.121094"/><path fill="#F35F19" d="M 235.207031 154.140625 C 236.554688 149.972656 234.351562 142.128906 234.964844 138.089844 C 235.320312 135.726562 237.472656 135.078125 239.199219 134.945312 C 239.339844 135.039062 239.441406 135.148438 239.484375 135.269531 C 239.851562 136.25 234.839844 136.003906 236.1875 139.679688 C 237.53125 143.355469 243.640625 158.671875 229.222656 162.59375 C 220.222656 165.039062 217.128906 161.527344 216.066406 158.535156 C 222.851562 159.511719 234.074219 157.65625 235.207031 154.140625"/><path fill="#F8B07E" d="M 232.066406 161.558594 C 231.21875 161.957031 230.277344 162.308594 229.222656 162.59375 C 227.636719 163.023438 226.234375 163.269531 224.996094 163.367188 C 224.101562 160.605469 223.554688 156.308594 223.289062 153.804688 C 224.949219 153.378906 226.640625 152.828125 228.097656 152.117188 C 228.992188 154.488281 230.894531 158.925781 232.066406 161.558594"/><path fill="#ED9E6B" d="M 230.257812 157.398438 C 230.90625 158.914062 231.554688 160.410156 232.066406 161.558594 C 231.21875 161.957031 230.277344 162.308594 229.222656 162.59375 C 227.636719 163.023438 226.234375 163.269531 224.996094 163.367188 C 224.5625 162.03125 224.210938 160.332031 223.933594 158.652344 C 226.164062 158.339844 229.457031 157.585938 230.257812 157.398438"/><path fill="#F8B07E" d="M 232.152344 147.890625 C 232.292969 147.03125 232.347656 146.195312 232.339844 145.390625 C 233.746094 145.953125 236.214844 146.871094 238.398438 147.664062 C 238.671875 149.597656 238.730469 151.65625 238.34375 153.632812 C 236.125 152.757812 233.371094 150.664062 231.652344 149.246094 C 231.902344 148.824219 232.074219 148.371094 232.152344 147.890625"/><path fill="#ED9E6B" d="M 235.351562 146.542969 C 236.339844 146.910156 237.398438 147.300781 238.398438 147.664062 C 238.671875 149.597656 238.730469 151.65625 238.34375 153.632812 C 237.453125 153.28125 236.476562 152.734375 235.515625 152.113281 C 235.554688 150.742188 235.4375 148.144531 235.351562 146.542969"/><path fill="#F8B07E" d="M 236.710938 141.113281 C 235.3125 140.730469 233.117188 139.945312 231.585938 139.382812 C 231.3125 137.601562 231.324219 136.289062 232.519531 135.636719 C 232.578125 135.605469 232.636719 135.574219 232.695312 135.542969 L 236.394531 137.269531 C 235.957031 137.804688 235.777344 138.5625 236.1875 139.679688 C 236.320312 140.050781 236.503906 140.535156 236.710938 141.113281"/><path fill="#ED9E6B" d="M 236.710938 141.113281 C 236.195312 140.972656 235.578125 140.777344 234.921875 140.558594 C 234.820312 138.566406 235.164062 137.425781 235.453125 136.828125 L 236.394531 137.269531 C 235.957031 137.804688 235.777344 138.5625 236.1875 139.679688 C 236.320312 140.050781 236.503906 140.535156 236.710938 141.113281"/><path fill="#F47217" d="M 170.074219 138.945312 C 170.074219 138.945312 154.429688 137.71875 153.453125 131.714844 C 152.472656 125.710938 155.777344 120.933594 153.085938 119.460938 C 150.398438 117.992188 146.488281 118.113281 146.121094 119.09375 C 145.753906 120.074219 150.765625 119.832031 149.421875 123.503906 C 148.074219 127.183594 141.964844 142.5 156.386719 146.421875 C 170.804688 150.34375 170.074219 138.945312 170.074219 138.945312"/><path fill="#F35F19" d="M 150.398438 137.964844 C 149.054688 133.800781 151.253906 125.957031 150.640625 121.914062 C 150.285156 119.550781 148.132812 118.902344 146.40625 118.773438 C 146.265625 118.867188 146.164062 118.972656 146.121094 119.09375 C 145.753906 120.074219 150.765625 119.832031 149.421875 123.503906 C 148.074219 127.183594 141.964844 142.5 156.386719 146.421875 C 165.382812 148.867188 168.480469 145.351562 169.539062 142.363281 C 162.753906 143.335938 151.53125 141.480469 150.398438 137.964844"/><path fill="#F8B07E" d="M 153.539062 145.382812 C 154.386719 145.785156 155.332031 146.132812 156.386719 146.421875 C 157.972656 146.851562 159.371094 147.097656 160.613281 147.195312 C 161.503906 144.429688 162.054688 140.136719 162.316406 137.628906 C 160.65625 137.203125 158.964844 136.652344 157.511719 135.941406 C 156.617188 138.316406 154.710938 142.75 153.539062 145.382812"/><path fill="#ED9E6B" d="M 155.347656 141.226562 C 154.703125 142.742188 154.050781 144.234375 153.539062 145.382812 C 154.386719 145.785156 155.332031 146.132812 156.386719 146.421875 C 157.972656 146.851562 159.371094 147.097656 160.613281 147.195312 C 161.046875 145.855469 161.394531 144.160156 161.671875 142.480469 C 159.441406 142.164062 156.148438 141.410156 155.347656 141.226562"/><path fill="#F8B07E" d="M 153.453125 131.714844 C 153.3125 130.855469 153.261719 130.019531 153.265625 129.214844 C 151.859375 129.777344 149.390625 130.695312 147.210938 131.488281 C 146.933594 133.421875 146.875 135.484375 147.261719 137.457031 C 149.480469 136.582031 152.234375 134.488281 153.957031 133.070312 C 153.703125 132.648438 153.53125 132.199219 153.453125 131.714844"/><path fill="#ED9E6B" d="M 150.253906 130.367188 C 149.265625 130.738281 148.207031 131.128906 147.210938 131.488281 C 146.933594 133.421875 146.875 135.484375 147.261719 137.457031 C 148.152344 137.105469 149.128906 136.558594 150.089844 135.9375 C 150.050781 134.570312 150.171875 131.972656 150.253906 130.367188"/><path fill="#F8B07E" d="M 148.894531 124.941406 C 150.292969 124.554688 152.488281 123.773438 154.019531 123.210938 C 154.292969 121.425781 154.285156 120.117188 153.085938 119.460938 C 153.027344 119.429688 152.96875 119.398438 152.910156 119.371094 L 149.210938 121.09375 C 149.648438 121.632812 149.828125 122.386719 149.421875 123.503906 C 149.285156 123.875 149.101562 124.359375 148.894531 124.941406"/><path fill="#ED9E6B" d="M 148.894531 124.941406 C 149.410156 124.796875 150.027344 124.601562 150.683594 124.386719 C 150.789062 122.394531 150.441406 121.25 150.152344 120.65625 L 149.210938 121.09375 C 149.648438 121.632812 149.828125 122.386719 149.421875 123.503906 C 149.285156 123.875 149.101562 124.359375 148.894531 124.941406"/><path fill="#F47217" d="M 161.117188 154.5625 C 161.117188 154.5625 145.476562 153.335938 144.496094 147.332031 C 143.519531 141.328125 146.820312 136.550781 144.128906 135.078125 C 141.441406 133.609375 137.53125 133.730469 137.164062 134.710938 C 136.796875 135.691406 141.808594 135.445312 140.464844 139.121094 C 139.121094 142.796875 133.007812 158.117188 147.429688 162.035156 C 161.851562 165.957031 161.117188 154.5625 161.117188 154.5625"/><path fill="#F35F19" d="M 141.441406 153.582031 C 140.097656 149.414062 142.296875 141.574219 141.6875 137.53125 C 141.328125 135.167969 139.179688 134.519531 137.453125 134.390625 C 137.308594 134.484375 137.210938 134.589844 137.164062 134.710938 C 136.796875 135.691406 141.808594 135.445312 140.464844 139.121094 C 139.121094 142.796875 133.007812 158.117188 147.429688 162.035156 C 156.425781 164.484375 159.523438 160.96875 160.582031 157.976562 C 153.796875 158.953125 142.574219 157.097656 141.441406 153.582031"/><path fill="#F8B07E" d="M 144.585938 161 C 145.429688 161.402344 146.375 161.75 147.429688 162.035156 C 149.015625 162.46875 150.417969 162.714844 151.65625 162.808594 C 152.550781 160.046875 153.097656 155.75 153.359375 153.246094 C 151.699219 152.820312 150.011719 152.269531 148.554688 151.558594 C 147.660156 153.929688 145.753906 158.367188 144.585938 161"/><path fill="#ED9E6B" d="M 146.394531 156.84375 C 145.746094 158.359375 145.09375 159.851562 144.585938 161 C 145.429688 161.402344 146.375 161.75 147.429688 162.035156 C 149.015625 162.46875 150.417969 162.714844 151.65625 162.808594 C 152.089844 161.472656 152.441406 159.777344 152.71875 158.097656 C 150.484375 157.78125 147.191406 157.027344 146.394531 156.84375"/><path fill="#F8B07E" d="M 144.496094 147.332031 C 144.355469 146.472656 144.304688 145.636719 144.3125 144.832031 C 142.90625 145.394531 140.4375 146.3125 138.253906 147.109375 C 137.980469 149.039062 137.917969 151.101562 138.308594 153.074219 C 140.523438 152.199219 143.277344 150.105469 145 148.6875 C 144.75 148.265625 144.574219 147.8125 144.496094 147.332031"/><path fill="#ED9E6B" d="M 141.300781 145.984375 C 140.3125 146.355469 139.253906 146.742188 138.253906 147.109375 C 137.980469 149.039062 137.917969 151.101562 138.308594 153.074219 C 139.195312 152.722656 140.171875 152.175781 141.132812 151.554688 C 141.09375 150.183594 141.214844 147.589844 141.300781 145.984375"/><path fill="#F8B07E" d="M 139.941406 140.558594 C 141.335938 140.171875 143.535156 139.390625 145.066406 138.824219 C 145.335938 137.042969 145.328125 135.734375 144.128906 135.078125 C 144.074219 135.046875 144.015625 135.015625 143.957031 134.984375 L 140.257812 136.710938 C 140.691406 137.246094 140.875 138.003906 140.464844 139.121094 C 140.328125 139.492188 140.148438 139.976562 139.941406 140.558594"/><path fill="#ED9E6B" d="M 139.941406 140.558594 C 140.453125 140.414062 141.074219 140.222656 141.726562 140.003906 C 141.832031 138.011719 141.488281 136.867188 141.195312 136.273438 L 140.257812 136.710938 C 140.691406 137.246094 140.875 138.003906 140.464844 139.121094 C 140.328125 139.492188 140.148438 139.976562 139.941406 140.558594"/><path fill="#AD84C9" d="M 173.414062 151.039062 C 173.414062 153.140625 171.710938 154.84375 169.617188 154.84375 C 167.519531 154.84375 165.820312 153.140625 165.820312 151.039062 C 165.820312 148.9375 167.519531 147.230469 169.617188 147.230469 C 171.710938 147.230469 173.414062 148.9375 173.414062 151.039062"/><path fill="#AD84C9" d="M 165.234375 155.234375 C 165.234375 155.882812 164.710938 156.40625 164.066406 156.40625 C 163.421875 156.40625 162.898438 155.882812 162.898438 155.234375 C 162.898438 154.589844 163.421875 154.0625 164.066406 154.0625 C 164.710938 154.0625 165.234375 154.589844 165.234375 155.234375"/><path fill="#AD84C9" d="M 165.042969 161.773438 C 165.042969 163.125 163.953125 164.214844 162.605469 164.214844 C 161.261719 164.214844 160.175781 163.125 160.175781 161.773438 C 160.175781 160.429688 161.261719 159.335938 162.605469 159.335938 C 163.953125 159.335938 165.042969 160.429688 165.042969 161.773438"/><path fill="#AD84C9" d="M 165.625 172.511719 C 165.625 173.535156 164.796875 174.367188 163.777344 174.367188 C 162.753906 174.367188 161.925781 173.535156 161.925781 172.511719 C 161.925781 171.488281 162.753906 170.65625 163.777344 170.65625 C 164.796875 170.65625 165.625 171.488281 165.625 172.511719"/><path fill="#AD84C9" d="M 159.589844 174.757812 C 159.589844 175.296875 159.15625 175.734375 158.617188 175.734375 C 158.078125 175.734375 157.644531 175.296875 157.644531 174.757812 C 157.644531 174.21875 158.078125 173.78125 158.617188 173.78125 C 159.15625 173.78125 159.589844 174.21875 159.589844 174.757812"/><path fill="#AD84C9" d="M 164.652344 183.445312 C 164.652344 184.359375 163.910156 185.101562 162.996094 185.101562 C 162.082031 185.101562 161.339844 184.359375 161.339844 183.445312 C 161.339844 182.527344 162.082031 181.785156 162.996094 181.785156 C 163.910156 181.785156 164.652344 182.527344 164.652344 183.445312"/><path fill="#AD84C9" d="M 213.515625 155.429688 C 213.515625 156.617188 212.558594 157.578125 211.375 157.578125 C 210.191406 157.578125 209.234375 156.617188 209.234375 155.429688 C 209.234375 154.246094 210.191406 153.285156 211.375 153.285156 C 212.558594 153.285156 213.515625 154.246094 213.515625 155.429688"/><path fill="#AD84C9" d="M 215.65625 166.167969 C 215.65625 166.707031 215.222656 167.144531 214.683594 167.144531 C 214.148438 167.144531 213.710938 166.707031 213.710938 166.167969 C 213.710938 165.628906 214.148438 165.191406 214.683594 165.191406 C 215.222656 165.191406 215.65625 165.628906 215.65625 166.167969"/><path fill="#AD84C9" d="M 212.347656 163.238281 C 212.347656 164.101562 211.652344 164.800781 210.792969 164.800781 C 209.929688 164.800781 209.234375 164.101562 209.234375 163.238281 C 209.234375 162.378906 209.929688 161.675781 210.792969 161.675781 C 211.652344 161.675781 212.347656 162.378906 212.347656 163.238281"/><path fill="#AD84C9" d="M 218.96875 177.878906 C 218.96875 179.929688 217.3125 181.589844 215.269531 181.589844 C 213.226562 181.589844 211.570312 179.929688 211.570312 177.878906 C 211.570312 175.832031 213.226562 174.171875 215.269531 174.171875 C 217.3125 174.171875 218.96875 175.832031 218.96875 177.878906"/><path fill="#AD84C9" d="M 214.296875 187.25 C 214.296875 188.113281 213.597656 188.8125 212.738281 188.8125 C 211.878906 188.8125 211.179688 188.113281 211.179688 187.25 C 211.179688 186.386719 211.878906 185.6875 212.738281 185.6875 C 213.597656 185.6875 214.296875 186.386719 214.296875 187.25"/><path fill="#AD84C9" d="M 218.578125 192.03125 C 218.578125 192.734375 218.011719 193.300781 217.3125 193.300781 C 216.613281 193.300781 216.046875 192.734375 216.046875 192.03125 C 216.046875 191.332031 216.613281 190.761719 217.3125 190.761719 C 218.011719 190.761719 218.578125 191.332031 218.578125 192.03125"/><path fill="#2C2141" d="M 181.144531 129.035156 C 181.144531 129.035156 186.632812 120.507812 189.652344 119.683594 C 192.667969 118.859375 187.730469 126.835938 187.730469 126.835938 C 187.730469 126.835938 196.234375 121.332031 198.839844 121.332031 C 201.449219 121.332031 195.550781 126.007812 195.550781 126.007812 C 195.550781 126.007812 205.976562 126.421875 206.933594 128.621094 C 207.894531 130.824219 199.9375 129.859375 199.9375 129.859375 C 199.9375 129.859375 207.621094 134.8125 206.523438 137.289062 C 205.425781 139.761719 199.9375 134.261719 199.9375 134.261719 C 199.9375 134.261719 202.847656 141.199219 200.636719 143.230469 C 198.429688 145.265625 195.273438 136.601562 195.273438 136.601562 C 195.273438 136.601562 197.609375 143.613281 194.453125 143.753906 C 191.296875 143.890625 189.925781 136.601562 189.925781 136.601562 C 189.925781 136.601562 189.8125 144.28125 187.398438 143.808594 C 184.988281 143.339844 185.261719 137.425781 185.261719 137.425781 C 185.261719 137.425781 183.066406 144.027344 181.285156 142.652344 C 179.5 141.277344 179.226562 136.460938 179.226562 136.460938 C 179.226562 136.460938 174.972656 143.203125 173.054688 141.964844 C 171.132812 140.726562 175.25 133.988281 175.25 133.988281 C 175.25 133.988281 169.898438 137.148438 167.839844 134.261719 C 165.785156 131.375 175.523438 130.273438 175.523438 130.273438 C 175.523438 130.273438 166.332031 127.796875 167.980469 123.945312 C 169.625 120.09375 176.484375 127.386719 176.484375 127.386719 C 176.484375 127.386719 172.917969 122.984375 174.972656 121.472656 C 177.03125 119.957031 181.144531 129.035156 181.144531 129.035156"/></svg>