<svg xmlns="http://www.w3.org/2000/svg" width="375" viewBox="0 0 375 375" height="375" version="1.0"><path fill="#467B9D" d="M 250.570312 236.007812 C 251.765625 230.519531 241.960938 221.925781 241.960938 221.925781 C 241.960938 221.925781 248.417969 225.742188 250.570312 223.832031 C 252.375 222.230469 242.882812 213.382812 239.796875 210.59375 L 239.796875 159.535156 C 239.796875 142.675781 226.109375 129.011719 209.222656 129.011719 L 164.882812 129.011719 C 147.996094 129.011719 134.3125 142.675781 134.3125 159.535156 L 134.3125 206.007812 C 130.496094 209.539062 123.179688 216.679688 124.785156 218.105469 C 126.9375 220.015625 133.390625 216.195312 133.390625 216.195312 C 133.390625 216.195312 123.589844 224.789062 124.785156 230.28125 C 125.980469 235.769531 131.480469 229.800781 131.480469 229.800781 C 131.480469 229.800781 122.871094 250.570312 125.023438 252.242188 C 127.175781 253.914062 135.066406 244.125 135.066406 244.125 C 135.066406 244.125 129.328125 261.3125 134.347656 261.550781 C 137.199219 261.6875 140.207031 256.898438 142.269531 252.730469 C 147.863281 258.863281 155.921875 262.710938 164.882812 262.710938 L 176.996094 262.710938 L 178.105469 269.667969 C 178.105469 269.667969 169.738281 270.625 171.171875 272.769531 C 172.605469 274.921875 182.648438 273.488281 182.648438 273.488281 L 182.464844 262.710938 L 190.558594 262.710938 L 190.375 273.488281 C 190.375 273.488281 200.417969 274.921875 201.851562 272.769531 C 203.285156 270.625 194.917969 269.667969 194.917969 269.667969 L 196.027344 262.710938 L 209.222656 262.710938 C 217.71875 262.710938 225.40625 259.253906 230.945312 253.667969 C 232.367188 257.21875 236.847656 267.480469 241.003906 267.28125 C 246.027344 267.042969 240.289062 249.855469 240.289062 249.855469 C 240.289062 249.855469 248.175781 259.640625 250.332031 257.972656 C 252.480469 256.300781 243.875 235.53125 243.875 235.53125 C 243.875 235.53125 249.375 241.5 250.570312 236.007812"/><path fill="#11100E" d="M 219.453125 185.769531 C 219.453125 201.925781 206.335938 215.023438 190.152344 215.023438 C 173.96875 215.023438 160.851562 201.925781 160.851562 185.769531 C 160.851562 169.613281 173.96875 156.515625 190.152344 156.515625 C 206.335938 156.515625 219.453125 169.613281 219.453125 185.769531"/><path fill="#FFF" d="M 215.125 181.648438 C 217.027344 195.414062 207.394531 208.121094 193.605469 210.023438 C 179.808594 211.925781 167.085938 202.304688 165.179688 188.535156 C 163.28125 174.765625 172.910156 162.058594 186.707031 160.164062 C 200.496094 158.261719 213.21875 167.882812 215.125 181.648438"/><path fill="#4B88CF" d="M 210.207031 183.433594 C 211.699219 194.207031 204.15625 204.144531 193.363281 205.636719 C 182.570312 207.121094 172.613281 199.59375 171.121094 188.816406 C 169.628906 178.042969 177.171875 168.101562 187.964844 166.613281 C 198.757812 165.125 208.714844 172.65625 210.207031 183.433594"/><path fill="#1D3D65" d="M 205.140625 184.128906 C 206.300781 192.511719 200.433594 200.242188 192.039062 201.398438 C 183.644531 202.554688 175.902344 196.699219 174.742188 188.320312 C 173.585938 179.941406 179.449219 172.207031 187.84375 171.046875 C 196.238281 169.890625 203.984375 175.75 205.140625 184.128906"/><path fill="#15293D" d="M 198.398438 185.832031 C 198.398438 190.136719 194.902344 193.628906 190.585938 193.628906 C 186.273438 193.628906 182.777344 190.136719 182.777344 185.832031 C 182.777344 181.527344 186.273438 178.035156 190.585938 178.035156 C 194.902344 178.035156 198.398438 181.527344 198.398438 185.832031"/><path fill="#FFF" d="M 204.554688 174.078125 C 205.019531 177.476562 202.644531 180.601562 199.246094 181.070312 C 195.847656 181.539062 192.710938 179.167969 192.246094 175.773438 C 191.777344 172.386719 194.152344 169.257812 197.550781 168.789062 C 200.945312 168.316406 204.082031 170.6875 204.554688 174.078125"/><path fill="#FFF" d="M 207.261719 184.257812 C 207.261719 185.71875 206.074219 186.90625 204.609375 186.90625 C 203.148438 186.90625 201.964844 185.71875 201.964844 184.257812 C 201.964844 182.796875 203.148438 181.613281 204.609375 181.613281 C 206.074219 181.613281 207.261719 182.796875 207.261719 184.257812"/><path fill="#8CBACA" d="M 209.222656 129.011719 L 164.882812 129.011719 C 150.582031 129.011719 138.570312 138.816406 135.234375 152.0625 C 137.25 167.558594 139.363281 184.804688 140.050781 193.953125 C 141.484375 213.050781 165.878906 202.070312 154.875 178.195312 C 143.875 154.316406 165.878906 127.101562 166.832031 147.15625 C 167.789062 167.210938 180.226562 198.25 184.53125 172.941406 C 188.835938 147.632812 200.792969 141.425781 198.878906 148.589844 C 196.96875 155.75 194.097656 165.777344 201.75 165.777344 C 209.402344 165.777344 212.75 163.867188 208.445312 154.316406 C 204.140625 144.769531 218.488281 138.082031 221.835938 148.109375 C 225.1875 158.136719 213.707031 176.761719 222.316406 188.222656 C 230.925781 199.679688 237.621094 187.746094 233.796875 169.597656 C 229.96875 151.453125 235.230469 153.363281 239.535156 163.867188 C 239.621094 164.082031 239.710938 164.265625 239.796875 164.425781 L 239.796875 159.535156 C 239.796875 142.675781 226.109375 129.011719 209.222656 129.011719"/><path fill="#B8E0E7" d="M 152.042969 186.355469 C 152.042969 186.355469 151.085938 191.367188 150.371094 196.144531 C 149.652344 200.917969 153.957031 198.53125 154.195312 194.234375 C 154.433594 189.9375 152.042969 186.355469 152.042969 186.355469"/><path fill="#FFF" d="M 156.6875 206.007812 C 156.6875 206.007812 149.003906 215 152.050781 218.433594 C 155.097656 221.863281 166.035156 220.355469 166.035156 220.355469 C 166.035156 220.355469 160.265625 215.152344 159.714844 213.746094 C 159.164062 212.335938 156.6875 206.007812 156.6875 206.007812"/><path fill="#FFF" d="M 224.523438 207.917969 C 224.523438 207.917969 232.210938 216.914062 229.164062 220.34375 C 226.113281 223.773438 215.179688 222.265625 215.179688 222.265625 C 215.179688 222.265625 220.949219 217.058594 221.5 215.652344 C 222.050781 214.246094 224.523438 207.917969 224.523438 207.917969"/><path fill="#B8E0E7" d="M 222.339844 178.476562 C 222.339844 178.476562 220.191406 188.503906 224.492188 188.027344 C 228.796875 187.550781 222.339844 178.476562 222.339844 178.476562"/><path fill="#B8E0E7" d="M 199.386719 159.140625 C 199.386719 159.140625 197.234375 162.007812 199.863281 162.722656 C 202.496094 163.4375 199.386719 159.140625 199.386719 159.140625"/><path fill="#2F4658" d="M 201.539062 130.019531 C 201.539062 130.019531 192.691406 105.667969 187.910156 104.238281 C 183.128906 102.804688 191.496094 118.558594 191.496094 118.558594 C 191.496094 118.558594 169.976562 100.179688 163.28125 101.609375 C 156.585938 103.042969 179.0625 113.546875 179.0625 113.546875 C 179.0625 113.546875 153.238281 108.773438 148.457031 113.785156 C 143.675781 118.796875 171.890625 120.945312 171.890625 120.945312 C 171.890625 120.945312 146.785156 121.664062 147.261719 126.675781 C 147.738281 131.6875 170.695312 130.734375 170.695312 130.734375 C 170.695312 130.734375 165.671875 137.179688 167.585938 138.613281 C 169.496094 140.042969 175.953125 133.597656 175.953125 133.597656 C 175.953125 133.597656 173.085938 143.625 177.148438 145.296875 C 181.214844 146.96875 187.671875 135.03125 187.671875 135.03125 C 187.671875 135.03125 188.148438 143.386719 190.539062 143.625 C 192.929688 143.863281 198.191406 132.40625 198.191406 132.40625 C 198.191406 132.40625 199.867188 137.417969 201.777344 136.222656 C 203.691406 135.03125 201.539062 130.019531 201.539062 130.019531"/><path fill="#F36378" d="M 183.84375 229.324219 C 183.84375 229.324219 177.628906 246.511719 188.628906 247.707031 C 199.625 248.898438 199.863281 229.085938 199.863281 229.085938 L 183.84375 229.324219"/><path fill="#13100E" d="M 191.136719 228.609375 C 172.109375 228.609375 156.582031 215.277344 155.671875 198.53125 C 155.644531 199.042969 155.628906 199.5625 155.628906 200.082031 C 155.628906 217.550781 171.527344 231.710938 191.136719 231.710938 C 210.75 231.710938 226.644531 217.550781 226.644531 200.082031 C 226.644531 199.5625 226.628906 199.042969 226.601562 198.53125 C 225.695312 215.277344 210.164062 228.609375 191.136719 228.609375"/><path fill="#396E8C" d="M 148.457031 230.28125 C 148.457031 232.390625 146.742188 234.097656 144.628906 234.097656 C 142.519531 234.097656 140.804688 232.390625 140.804688 230.28125 C 140.804688 228.167969 142.519531 226.460938 144.628906 226.460938 C 146.742188 226.460938 148.457031 228.167969 148.457031 230.28125"/><path fill="#396E8C" d="M 152.761719 230.757812 C 152.761719 231.546875 152.117188 232.1875 151.328125 232.1875 C 150.535156 232.1875 149.890625 231.546875 149.890625 230.757812 C 149.890625 229.964844 150.535156 229.324219 151.328125 229.324219 C 152.117188 229.324219 152.761719 229.964844 152.761719 230.757812"/><path fill="#396E8C" d="M 147.738281 218.34375 C 147.738281 219.265625 146.988281 220.015625 146.066406 220.015625 C 145.140625 220.015625 144.390625 219.265625 144.390625 218.34375 C 144.390625 217.421875 145.140625 216.671875 146.066406 216.671875 C 146.988281 216.671875 147.738281 217.421875 147.738281 218.34375"/><path fill="#396E8C" d="M 154.433594 241.738281 C 154.433594 243.847656 152.722656 245.558594 150.609375 245.558594 C 148.496094 245.558594 146.785156 243.847656 146.785156 241.738281 C 146.785156 239.628906 148.496094 237.917969 150.609375 237.917969 C 152.722656 237.917969 154.433594 239.628906 154.433594 241.738281"/><path fill="#396E8C" d="M 230.472656 234.339844 C 230.472656 236.449219 232.183594 238.15625 234.296875 238.15625 C 236.410156 238.15625 238.121094 236.449219 238.121094 234.339844 C 238.121094 232.230469 236.410156 230.519531 234.296875 230.519531 C 232.183594 230.519531 230.472656 232.230469 230.472656 234.339844"/><path fill="#396E8C" d="M 226.167969 234.816406 C 226.167969 235.605469 226.808594 236.246094 227.601562 236.246094 C 228.394531 236.246094 229.035156 235.605469 229.035156 234.816406 C 229.035156 234.023438 228.394531 233.382812 227.601562 233.382812 C 226.808594 233.382812 226.167969 234.023438 226.167969 234.816406"/><path fill="#396E8C" d="M 231.1875 222.402344 C 231.1875 223.324219 231.9375 224.074219 232.863281 224.074219 C 233.789062 224.074219 234.535156 223.324219 234.535156 222.402344 C 234.535156 221.476562 233.789062 220.730469 232.863281 220.730469 C 231.9375 220.730469 231.1875 221.476562 231.1875 222.402344"/><path fill="#396E8C" d="M 224.492188 245.796875 C 224.492188 247.90625 226.207031 249.617188 228.320312 249.617188 C 230.433594 249.617188 232.144531 247.90625 232.144531 245.796875 C 232.144531 243.6875 230.433594 241.976562 228.320312 241.976562 C 226.207031 241.976562 224.492188 243.6875 224.492188 245.796875"/></svg>