<svg xmlns="http://www.w3.org/2000/svg" width="375" viewBox="0 0 375 375" height="375" version="1.0"><defs><clipPath id="a"><path d="M 159 96.855469 L 200 96.855469 L 200 129 L 159 129 Z M 159 96.855469"/></clipPath></defs><path fill="#61CAC8" d="M 198.214844 132.695312 C 198.214844 132.695312 214.789062 136.433594 217.550781 133.671875 C 220.3125 130.90625 212.351562 127.652344 213.648438 125.703125 C 214.949219 123.75 229.898438 126.839844 230.386719 127.976562 C 230.679688 128.660156 227.753906 128.640625 225.015625 128.621094 C 223.191406 128.609375 221.449219 128.59375 220.800781 128.792969 C 219.175781 129.277344 227.785156 133.671875 227.625 139.6875 C 227.460938 145.703125 209.589844 149.441406 202.761719 145.539062 C 195.941406 141.636719 198.214844 132.695312 198.214844 132.695312"/><path fill="#53C5BE" d="M 220.800781 128.792969 C 222.289062 128.34375 229.535156 128.992188 230.332031 128.21875 C 226.050781 127.222656 216.265625 125.898438 218.566406 128.730469 C 221.410156 132.222656 224.253906 138.078125 217.105469 140.109375 C 211.691406 141.648438 202.3125 139.738281 198.085938 138.71875 C 198.542969 141.179688 199.789062 143.835938 202.761719 145.539062 C 209.589844 149.441406 227.460938 145.703125 227.625 139.6875 C 227.785156 133.671875 219.175781 129.277344 220.800781 128.792969"/><path fill="#347AA9" d="M 217.550781 133.671875 C 217.402344 133.816406 217.214844 133.945312 216.992188 134.058594 C 218.859375 136.535156 222.691406 140.992188 226.695312 141.941406 C 227.273438 141.234375 227.601562 140.480469 227.625 139.6875 C 227.675781 137.730469 226.800781 135.945312 225.652344 134.410156 C 223.007812 133.898438 219.863281 133.222656 218.121094 132.617188 C 218.070312 132.972656 217.894531 133.324219 217.550781 133.671875"/><path fill="#347AA9" d="M 217.097656 125.085938 C 218.125 126.34375 219.695312 127.761719 220.890625 128.765625 C 221.601562 128.597656 223.265625 128.609375 225.007812 128.621094 C 224.296875 127.800781 223.792969 126.816406 223.4375 125.878906 C 221.257812 125.46875 218.941406 125.152344 217.097656 125.085938"/><path fill="#347AA9" d="M 216.351562 146.605469 C 212.652344 143.238281 211.507812 137.9375 211.15625 134.636719 C 208.578125 134.496094 205.6875 134.085938 203.292969 133.679688 L 203.296875 133.769531 C 203.546875 140.132812 204.792969 144.1875 206.324219 146.769531 C 209.285156 147.335938 212.925781 147.226562 216.351562 146.605469"/><path fill="#2B698C" d="M 212.539062 140.703125 C 210.503906 140.867188 205.632812 140.125 203.933594 139.851562 C 204.496094 142.894531 205.351562 145.128906 206.324219 146.769531 C 209.285156 147.335938 212.925781 147.226562 216.351562 146.605469 C 214.53125 144.949219 213.332031 142.824219 212.539062 140.703125"/><path fill="#2B698C" d="M 221.414062 133.515625 C 221.546875 133.964844 221.707031 134.722656 221.640625 135.632812 C 221.5625 136.671875 220.9375 137.660156 220.585938 138.140625 C 222.375 139.855469 224.511719 141.421875 226.695312 141.941406 C 227.273438 141.234375 227.601562 140.480469 227.625 139.6875 C 227.675781 137.730469 226.800781 135.945312 225.652344 134.410156 C 224.285156 134.144531 222.785156 133.835938 221.414062 133.515625"/><path fill="#2B698C" d="M 219.339844 127.402344 C 219.878906 127.898438 220.414062 128.363281 220.890625 128.765625 C 221.601562 128.597656 223.265625 128.609375 225.007812 128.621094 C 224.640625 128.199219 224.332031 127.738281 224.066406 127.257812 C 222.726562 127.191406 220.441406 127.328125 219.339844 127.402344"/><path fill="#78D2D0" d="M 213.546875 136.910156 C 212.957031 136.910156 212.269531 136.882812 211.476562 136.832031 C 211.425781 136.542969 211.375 136.261719 211.332031 135.988281 C 212.042969 136.039062 212.707031 136.070312 213.285156 136.070312 C 213.421875 136.070312 213.554688 136.070312 213.679688 136.066406 C 213.828125 136.0625 213.972656 136.0625 214.109375 136.0625 C 215.578125 136.0625 216.316406 136.273438 216.25 136.484375 C 216.183594 136.695312 215.308594 136.910156 213.546875 136.910156 M 203.398438 135.542969 C 201.226562 134.964844 200.25 134.441406 200.25 134.441406 C 200.25 134.441406 201.53125 134.679688 203.359375 134.976562 C 203.371094 135.167969 203.382812 135.355469 203.398438 135.542969"/><path fill="#4E95B8" d="M 211.476562 136.832031 C 211.066406 136.800781 210.628906 136.765625 210.160156 136.714844 C 207.210938 136.421875 204.984375 135.96875 203.398438 135.542969 C 203.382812 135.355469 203.371094 135.167969 203.359375 134.976562 C 205.648438 135.347656 208.796875 135.808594 211.332031 135.988281 C 211.375 136.261719 211.425781 136.542969 211.476562 136.832031"/><path fill="#61CAC8" d="M 166.800781 131.28125 C 166.800781 131.28125 150.226562 135.019531 147.464844 132.257812 C 144.703125 129.492188 152.664062 126.238281 151.367188 124.289062 C 150.066406 122.335938 135.117188 125.425781 134.628906 126.566406 C 134.339844 127.246094 137.261719 127.230469 140 127.210938 C 141.824219 127.195312 143.566406 127.183594 144.214844 127.378906 C 145.839844 127.867188 137.230469 132.257812 137.390625 138.273438 C 137.554688 144.289062 155.425781 148.03125 162.25 144.128906 C 169.078125 140.222656 166.800781 131.28125 166.800781 131.28125"/><path fill="#53C5BE" d="M 144.214844 127.378906 C 142.722656 126.929688 135.484375 127.578125 134.683594 126.808594 C 138.964844 125.8125 148.75 124.484375 146.449219 127.316406 C 143.605469 130.8125 140.761719 136.664062 147.910156 138.695312 C 153.324219 140.234375 162.703125 138.324219 166.933594 137.304688 C 166.472656 139.765625 165.226562 142.425781 162.25 144.128906 C 155.425781 148.03125 137.554688 144.289062 137.390625 138.273438 C 137.230469 132.257812 145.839844 127.867188 144.214844 127.378906"/><path fill="#347AA9" d="M 147.464844 132.257812 C 147.613281 132.40625 147.800781 132.535156 148.023438 132.648438 C 146.15625 135.125 142.324219 139.578125 138.316406 140.527344 C 137.746094 139.824219 137.414062 139.066406 137.390625 138.273438 C 137.339844 136.316406 138.214844 134.53125 139.363281 132.996094 C 142.007812 132.484375 145.152344 131.808594 146.894531 131.203125 C 146.945312 131.558594 147.121094 131.910156 147.464844 132.257812"/><path fill="#347AA9" d="M 147.917969 123.671875 C 146.894531 124.929688 145.320312 126.347656 144.125 127.355469 C 143.414062 127.183594 141.75 127.195312 140.007812 127.210938 C 140.71875 126.390625 141.226562 125.40625 141.578125 124.46875 C 143.761719 124.054688 146.078125 123.742188 147.917969 123.671875"/><path fill="#347AA9" d="M 148.664062 145.191406 C 152.363281 141.828125 153.507812 136.527344 153.855469 133.226562 C 156.4375 133.082031 159.328125 132.671875 161.722656 132.265625 L 161.71875 132.355469 C 161.46875 138.71875 160.222656 142.773438 158.691406 145.355469 C 155.730469 145.921875 152.09375 145.8125 148.664062 145.191406"/><path fill="#2B698C" d="M 152.476562 139.289062 C 154.511719 139.453125 159.382812 138.714844 161.082031 138.4375 C 160.519531 141.480469 159.664062 143.714844 158.691406 145.355469 C 155.730469 145.921875 152.09375 145.8125 148.664062 145.191406 C 150.484375 143.539062 151.683594 141.414062 152.476562 139.289062"/><path fill="#2B698C" d="M 143.601562 132.101562 C 143.46875 132.550781 143.308594 133.3125 143.375 134.21875 C 143.453125 135.261719 144.078125 136.246094 144.433594 136.730469 C 142.640625 138.445312 140.503906 140.007812 138.316406 140.527344 C 137.746094 139.824219 137.414062 139.066406 137.390625 138.273438 C 137.339844 136.316406 138.214844 134.53125 139.363281 132.996094 C 140.730469 132.734375 142.230469 132.425781 143.601562 132.101562"/><path fill="#2B698C" d="M 145.675781 125.992188 C 145.136719 126.484375 144.601562 126.953125 144.125 127.355469 C 143.414062 127.183594 141.75 127.195312 140.007812 127.210938 C 140.371094 126.789062 140.683594 126.324219 140.949219 125.84375 C 142.289062 125.777344 144.578125 125.914062 145.675781 125.992188"/><path fill="#78D2D0" d="M 151.46875 135.496094 C 149.707031 135.496094 148.832031 135.285156 148.765625 135.070312 C 148.699219 134.859375 149.4375 134.648438 150.90625 134.648438 C 151.042969 134.648438 151.1875 134.648438 151.335938 134.652344 C 151.464844 134.65625 151.59375 134.660156 151.730469 134.660156 C 152.3125 134.660156 152.972656 134.628906 153.683594 134.578125 C 153.640625 134.851562 153.589844 135.128906 153.539062 135.417969 C 152.746094 135.472656 152.058594 135.496094 151.46875 135.496094 M 161.617188 134.132812 C 161.632812 133.945312 161.644531 133.753906 161.65625 133.566406 C 163.484375 133.269531 164.765625 133.027344 164.765625 133.027344 C 164.765625 133.027344 163.789062 133.554688 161.617188 134.132812"/><path fill="#4E95B8" d="M 153.539062 135.417969 C 153.589844 135.128906 153.640625 134.851562 153.683594 134.578125 C 156.222656 134.394531 159.367188 133.933594 161.65625 133.566406 C 161.644531 133.753906 161.632812 133.945312 161.617188 134.132812 C 160.03125 134.554688 157.804688 135.007812 154.855469 135.304688 C 154.386719 135.351562 153.949219 135.386719 153.539062 135.417969"/><path fill="#1D395F" d="M 256.5 133.597656 C 256.5 133.597656 262.148438 120.601562 260.453125 118.058594 C 258.761719 115.515625 255.089844 127.382812 255.089844 127.382812 C 255.089844 127.382812 256.785156 114.101562 254.523438 112.691406 C 252.265625 111.277344 251.984375 126.253906 251.984375 126.253906 C 251.984375 126.253906 251.703125 116.363281 247.46875 118.339844 C 243.234375 120.320312 250.289062 129.078125 250.289062 129.078125 C 250.289062 129.078125 242.667969 127.949219 242.667969 129.925781 C 242.667969 131.902344 251.136719 132.46875 251.136719 132.46875 C 251.136719 132.46875 266.664062 164.117188 262.148438 167.507812 C 258.46875 170.269531 229.289062 167.96875 218.613281 167.019531 C 212.082031 149.046875 205.296875 133.445312 202.011719 129.925781 C 194.105469 121.449219 178.863281 119.1875 164.179688 129.363281 C 159.511719 132.597656 155.585938 144.574219 152.402344 159.402344 C 141.464844 162.660156 114.828125 170.261719 110.785156 168.355469 C 105.679688 165.941406 114.542969 131.816406 114.542969 131.816406 C 114.542969 131.816406 122.726562 129.5625 122.328125 127.625 C 121.933594 125.683594 114.691406 128.324219 114.691406 128.324219 C 114.691406 128.324219 119.847656 118.324219 115.300781 117.238281 C 110.757812 116.152344 112.464844 125.898438 112.464844 125.898438 C 112.464844 125.898438 109.183594 111.285156 107.253906 113.121094 C 105.324219 114.960938 109.648438 127.628906 109.648438 127.628906 C 109.648438 127.628906 103.671875 116.742188 102.523438 119.574219 C 101.371094 122.40625 109.515625 134.003906 109.515625 134.003906 C 109.515625 134.003906 101.601562 181.199219 104.984375 182.234375 C 108.367188 183.273438 113.246094 173.328125 113.246094 173.328125 C 113.246094 173.328125 112.265625 188.242188 116.707031 190.214844 C 121.144531 192.1875 124.792969 179.035156 124.792969 179.035156 C 124.792969 179.035156 127.058594 201.355469 131.589844 199.5625 C 136.121094 197.765625 139.082031 179.855469 139.082031 179.855469 C 139.082031 179.855469 138.9375 196.035156 141.257812 194.695312 C 143.574219 193.351562 144.207031 175.339844 144.207031 175.339844 C 144.207031 175.339844 146.320312 179.980469 148.160156 183.226562 C 144.160156 209.84375 142.160156 236.167969 142.160156 236.167969 C 142.160156 236.167969 143.089844 247.308594 171.839844 251.078125 L 173.796875 265.632812 C 173.796875 265.632812 159.609375 269.449219 164.269531 273.898438 C 168.925781 278.347656 184.171875 275.804688 184.171875 275.804688 L 181.703125 251.992188 C 186.789062 252.292969 191.375 252.351562 195.519531 252.203125 L 193.183594 274.746094 C 193.183594 274.746094 208.429688 277.289062 213.085938 272.839844 C 217.746094 268.386719 203.558594 264.574219 203.558594 264.574219 L 205.335938 251.355469 C 224.730469 248.550781 231.222656 239.734375 234.199219 229.953125 C 235.742188 224.871094 232.367188 209.765625 227.210938 192.75 C 228.582031 190.808594 230.808594 181.066406 230.808594 181.066406 C 230.808594 181.066406 235.042969 198.585938 237.585938 199.433594 C 240.125 200.28125 236.738281 184.457031 236.738281 184.457031 C 236.738281 184.457031 243.234375 201.414062 248.03125 202.261719 C 252.832031 203.109375 250.574219 180.785156 250.574219 180.785156 C 250.574219 180.785156 256.785156 192.9375 260.734375 190.109375 C 264.6875 187.285156 260.734375 172.875 260.734375 172.875 C 260.734375 172.875 267.511719 181.632812 270.617188 179.9375 C 273.722656 178.242188 256.5 133.597656 256.5 133.597656"/><path fill="#5997D0" d="M 160.792969 140.097656 C 160.792969 140.097656 154.863281 172.875 154.019531 186.722656 C 153.171875 200.566406 156.839844 193.21875 156.839844 193.21875 C 156.839844 193.21875 153.171875 222.039062 155.148438 224.582031 C 157.121094 227.125 159.101562 220.34375 159.101562 220.34375 C 159.101562 220.34375 154.863281 235.601562 175.191406 238.992188 C 195.519531 242.382812 215.28125 238.425781 218.105469 232.496094 C 220.929688 226.5625 217.824219 216.390625 217.824219 216.390625 C 217.824219 216.390625 218.667969 223.734375 222.621094 222.605469 C 226.574219 221.476562 216.410156 188.699219 216.410156 188.699219 C 216.410156 188.699219 218.667969 194.351562 221.210938 193.21875 C 223.75 192.089844 202.296875 131.621094 191.285156 125.40625 C 180.273438 119.1875 160.792969 140.097656 160.792969 140.097656"/><path fill="#FFF" d="M 195.238281 143.488281 C 190.019531 143.488281 185.417969 146.113281 182.667969 150.109375 C 179.875 146.753906 175.664062 144.617188 170.957031 144.617188 C 162.539062 144.617188 155.710938 151.449219 155.710938 159.878906 C 155.710938 168.304688 162.539062 175.136719 170.957031 175.136719 C 176.175781 175.136719 180.777344 172.511719 183.523438 168.515625 C 186.320312 171.871094 190.53125 174.003906 195.238281 174.003906 C 203.65625 174.003906 210.484375 167.171875 210.484375 158.746094 C 210.484375 150.320312 203.65625 143.488281 195.238281 143.488281"/><path fill="#F364B3" d="M 165.308594 128.230469 C 165.308594 128.230469 152.890625 136.144531 157.6875 141.511719 C 162.488281 146.878906 197.777344 126.253906 197.777344 126.253906 L 189.589844 119.46875 L 171.804688 119.753906 L 165.308594 128.230469"/><g clip-path="url(#a)"><path fill="#EE2479" d="M 165.308594 128.230469 C 165.308594 128.230469 157.40625 109.863281 160.230469 108.167969 C 163.054688 106.472656 172.933594 96.867188 176.886719 96.867188 C 180.839844 96.867188 198.625 105.628906 199.753906 109.019531 C 200.882812 112.40625 197.777344 126.253906 197.777344 126.253906 L 165.308594 128.230469"/></g><path fill="#FFF" d="M 192.695312 115.515625 C 192.695312 118.792969 187.828125 121.449219 181.828125 121.449219 C 175.824219 121.449219 170.957031 118.792969 170.957031 115.515625 C 170.957031 112.238281 175.824219 109.582031 181.828125 109.582031 C 187.828125 109.582031 192.695312 112.238281 192.695312 115.515625"/><path fill="#DF196E" d="M 166.402344 103.273438 C 163.75 105.429688 161.390625 107.472656 160.230469 108.167969 C 157.40625 109.863281 165.308594 128.230469 165.308594 128.230469 L 176.015625 127.578125 C 167.578125 119.988281 166.105469 110.246094 166.402344 103.273438"/><path fill="#11100E" d="M 180.050781 159.296875 C 180.050781 164.441406 175.886719 168.609375 170.746094 168.609375 C 165.609375 168.609375 161.441406 164.441406 161.441406 159.296875 C 161.441406 154.15625 165.609375 149.984375 170.746094 149.984375 C 175.886719 149.984375 180.050781 154.15625 180.050781 159.296875"/><path fill="#FFF" d="M 178.679688 157.984375 C 179.28125 162.367188 176.222656 166.414062 171.84375 167.019531 C 167.460938 167.625 163.421875 164.5625 162.816406 160.175781 C 162.214844 155.792969 165.273438 151.75 169.652344 151.148438 C 174.03125 150.539062 178.070312 153.601562 178.679688 157.984375"/><path fill="#4B88CF" d="M 177.117188 158.554688 C 177.589844 161.984375 175.195312 165.148438 171.765625 165.621094 C 168.339844 166.097656 165.179688 163.699219 164.703125 160.269531 C 164.230469 156.835938 166.625 153.671875 170.054688 153.199219 C 173.480469 152.726562 176.644531 155.121094 177.117188 158.554688"/><path fill="#1D3D65" d="M 175.507812 158.773438 C 175.875 161.441406 174.011719 163.90625 171.347656 164.273438 C 168.679688 164.640625 166.222656 162.777344 165.851562 160.109375 C 165.484375 157.441406 167.347656 154.980469 170.011719 154.613281 C 172.679688 154.246094 175.140625 156.109375 175.507812 158.773438"/><path fill="#15293D" d="M 173.367188 159.316406 C 173.367188 160.6875 172.253906 161.800781 170.886719 161.800781 C 169.515625 161.800781 168.40625 160.6875 168.40625 159.316406 C 168.40625 157.945312 169.515625 156.835938 170.886719 156.835938 C 172.253906 156.835938 173.367188 157.945312 173.367188 159.316406"/><path fill="#FFF" d="M 175.320312 155.574219 C 175.46875 156.65625 174.714844 157.652344 173.636719 157.800781 C 172.558594 157.953125 171.558594 157.195312 171.410156 156.117188 C 171.261719 155.035156 172.015625 154.039062 173.097656 153.890625 C 174.175781 153.742188 175.171875 154.496094 175.320312 155.574219"/><path fill="#FFF" d="M 176.179688 158.816406 C 176.179688 159.28125 175.804688 159.660156 175.339844 159.660156 C 174.875 159.660156 174.5 159.28125 174.5 158.816406 C 174.5 158.351562 174.875 157.972656 175.339844 157.972656 C 175.804688 157.972656 176.179688 158.351562 176.179688 158.816406"/><path fill="#FFF" d="M 184.183594 200.054688 C 184.183594 200.054688 179.003906 225.046875 175.535156 222.894531 C 172.066406 220.738281 172.035156 195.691406 172.035156 195.691406 L 184.183594 200.054688"/><path fill="#F4E77F" d="M 177.441406 197.636719 C 176.71875 202.019531 174.828125 214.660156 175.589844 222.925781 L 175.535156 222.894531 C 172.066406 220.738281 172.035156 195.691406 172.035156 195.691406 L 177.441406 197.636719"/><path fill="#FFF" d="M 191.800781 198.640625 C 191.800781 198.640625 196.980469 223.632812 200.449219 221.480469 C 203.917969 219.328125 203.945312 194.28125 203.945312 194.28125 L 191.800781 198.640625"/><path fill="#F4E77F" d="M 198.539062 196.222656 C 199.261719 200.605469 201.15625 213.246094 200.394531 221.511719 L 200.449219 221.480469 C 203.917969 219.328125 203.945312 194.28125 203.945312 194.28125 L 198.539062 196.222656"/><path fill="#11100E" d="M 205.535156 158.101562 C 205.535156 163.242188 201.367188 167.414062 196.226562 167.414062 C 191.089844 167.414062 186.921875 163.242188 186.921875 158.101562 C 186.921875 152.960938 191.089844 148.789062 196.226562 148.789062 C 201.367188 148.789062 205.535156 152.960938 205.535156 158.101562"/><path fill="#FFF" d="M 204.160156 156.789062 C 204.761719 161.171875 201.703125 165.214844 197.324219 165.824219 C 192.941406 166.425781 188.902344 163.367188 188.300781 158.980469 C 187.695312 154.597656 190.753906 150.554688 195.132812 149.949219 C 199.511719 149.34375 203.554688 152.40625 204.160156 156.789062"/><path fill="#4B88CF" d="M 202.597656 157.355469 C 203.070312 160.785156 200.675781 163.949219 197.25 164.425781 C 193.820312 164.898438 190.65625 162.503906 190.1875 159.070312 C 189.710938 155.640625 192.105469 152.476562 195.53125 152.003906 C 198.960938 151.527344 202.121094 153.925781 202.597656 157.355469"/><path fill="#1D3D65" d="M 200.988281 157.578125 C 201.355469 160.246094 199.492188 162.707031 196.828125 163.078125 C 194.160156 163.445312 191.703125 161.582031 191.335938 158.914062 C 190.96875 156.246094 192.828125 153.78125 195.496094 153.414062 C 198.160156 153.046875 200.621094 154.910156 200.988281 157.578125"/><path fill="#15293D" d="M 198.847656 158.121094 C 198.847656 159.492188 197.738281 160.605469 196.367188 160.605469 C 194.996094 160.605469 193.886719 159.492188 193.886719 158.121094 C 193.886719 156.75 194.996094 155.636719 196.367188 155.636719 C 197.738281 155.636719 198.847656 156.75 198.847656 158.121094"/><path fill="#FFF" d="M 200.800781 154.378906 C 200.949219 155.460938 200.195312 156.457031 199.113281 156.605469 C 198.035156 156.753906 197.039062 156 196.894531 154.917969 C 196.746094 153.839844 197.5 152.84375 198.578125 152.695312 C 199.65625 152.546875 200.652344 153.300781 200.800781 154.378906"/><path fill="#FFF" d="M 201.660156 157.621094 C 201.660156 158.085938 201.285156 158.460938 200.820312 158.460938 C 200.355469 158.460938 199.980469 158.085938 199.980469 157.621094 C 199.980469 157.15625 200.355469 156.777344 200.820312 156.777344 C 201.285156 156.777344 201.660156 157.15625 201.660156 157.621094"/><path fill="#121211" d="M 186.203125 198.910156 C 173.597656 198.910156 163.292969 188.652344 162.535156 175.699219 C 162.503906 176.207031 162.488281 176.71875 162.488281 177.234375 C 162.488281 190.898438 173.105469 201.976562 186.203125 201.976562 C 199.300781 201.976562 209.917969 190.898438 209.917969 177.234375 C 209.917969 176.71875 209.902344 176.207031 209.871094 175.699219 C 209.113281 188.652344 198.808594 198.910156 186.203125 198.910156"/><path fill="#2B5685" d="M 150.910156 219.921875 C 150.910156 221.246094 149.839844 222.320312 148.511719 222.320312 C 147.1875 222.320312 146.113281 221.246094 146.113281 219.921875 C 146.113281 218.59375 147.1875 217.519531 148.511719 217.519531 C 149.839844 217.519531 150.910156 218.59375 150.910156 219.921875"/><path fill="#2B5685" d="M 153.734375 227.125 C 153.734375 228.0625 152.976562 228.820312 152.039062 228.820312 C 151.105469 228.820312 150.347656 228.0625 150.347656 227.125 C 150.347656 226.1875 151.105469 225.429688 152.039062 225.429688 C 152.976562 225.429688 153.734375 226.1875 153.734375 227.125"/><path fill="#2B5685" d="M 151.195312 231.644531 C 151.195312 233.050781 150.058594 234.191406 148.65625 234.191406 C 147.25 234.191406 146.113281 233.050781 146.113281 231.644531 C 146.113281 230.242188 147.25 229.105469 148.65625 229.105469 C 150.058594 229.105469 151.195312 230.242188 151.195312 231.644531"/><path fill="#2B5685" d="M 161.640625 238.992188 C 161.640625 240.554688 160.375 241.820312 158.816406 241.820312 C 157.257812 241.820312 155.992188 240.554688 155.992188 238.992188 C 155.992188 237.433594 157.257812 236.167969 158.816406 236.167969 C 160.375 236.167969 161.640625 237.433594 161.640625 238.992188"/><path fill="#2B5685" d="M 158.816406 233.199219 C 158.816406 233.902344 158.25 234.472656 157.546875 234.472656 C 156.84375 234.472656 156.277344 233.902344 156.277344 233.199219 C 156.277344 232.496094 156.84375 231.929688 157.546875 231.929688 C 158.25 231.929688 158.816406 232.496094 158.816406 233.199219"/><path fill="#2B5685" d="M 154.019531 237.582031 C 154.019531 238.203125 153.511719 238.710938 152.890625 238.710938 C 152.265625 238.710938 151.757812 238.203125 151.757812 237.582031 C 151.757812 236.957031 152.265625 236.449219 152.890625 236.449219 C 153.511719 236.449219 154.019531 236.957031 154.019531 237.582031"/><path fill="#2B5685" d="M 221.492188 241.960938 C 221.492188 243.285156 220.417969 244.363281 219.09375 244.363281 C 217.769531 244.363281 216.695312 243.285156 216.695312 241.960938 C 216.695312 240.632812 217.769531 239.558594 219.09375 239.558594 C 220.417969 239.558594 221.492188 240.632812 221.492188 241.960938"/><path fill="#2B5685" d="M 231.65625 235.460938 C 231.65625 237.722656 229.824219 239.558594 227.5625 239.558594 C 225.304688 239.558594 223.46875 237.722656 223.46875 235.460938 C 223.46875 233.199219 225.304688 231.363281 227.5625 231.363281 C 229.824219 231.363281 231.65625 233.199219 231.65625 235.460938"/><path fill="#2B5685" d="M 229.398438 225.289062 C 229.398438 225.835938 228.957031 226.277344 228.410156 226.277344 C 227.863281 226.277344 227.421875 225.835938 227.421875 225.289062 C 227.421875 224.742188 227.863281 224.300781 228.410156 224.300781 C 228.957031 224.300781 229.398438 224.742188 229.398438 225.289062"/><path fill="#2B5685" d="M 224.597656 228.398438 C 224.597656 229.410156 223.777344 230.234375 222.765625 230.234375 C 221.75 230.234375 220.929688 229.410156 220.929688 228.398438 C 220.929688 227.382812 221.75 226.5625 222.765625 226.5625 C 223.777344 226.5625 224.597656 227.382812 224.597656 228.398438"/><path fill="#2B5685" d="M 231.375 215.257812 C 231.375 216.507812 230.363281 217.519531 229.117188 217.519531 C 227.871094 217.519531 226.855469 216.507812 226.855469 215.257812 C 226.855469 214.007812 227.871094 212.996094 229.117188 212.996094 C 230.363281 212.996094 231.375 214.007812 231.375 215.257812"/><path fill="#2B5685" d="M 226.292969 200 C 226.292969 200.625 225.785156 201.132812 225.164062 201.132812 C 224.539062 201.132812 224.035156 200.625 224.035156 200 C 224.035156 199.375 224.539062 198.871094 225.164062 198.871094 C 225.785156 198.871094 226.292969 199.375 226.292969 200"/><path fill="#2B5685" d="M 228.550781 205.933594 C 228.550781 206.402344 228.171875 206.78125 227.703125 206.78125 C 227.238281 206.78125 226.855469 206.402344 226.855469 205.933594 C 226.855469 205.464844 227.238281 205.085938 227.703125 205.085938 C 228.171875 205.085938 228.550781 205.464844 228.550781 205.933594"/><path fill="#2B5685" d="M 151.195312 204.519531 C 151.195312 205.613281 150.308594 206.5 149.21875 206.5 C 148.128906 206.5 147.242188 205.613281 147.242188 204.519531 C 147.242188 203.429688 148.128906 202.542969 149.21875 202.542969 C 150.308594 202.542969 151.195312 203.429688 151.195312 204.519531"/><path fill="#2B5685" d="M 151.476562 194.914062 C 151.476562 195.382812 151.097656 195.761719 150.628906 195.761719 C 150.164062 195.761719 149.78125 195.382812 149.78125 194.914062 C 149.78125 194.445312 150.164062 194.066406 150.628906 194.066406 C 151.097656 194.066406 151.476562 194.445312 151.476562 194.914062"/></svg>