<svg xmlns="http://www.w3.org/2000/svg" width="375" viewBox="0 0 375 375" height="375" version="1.0"><defs><clipPath id="a"><path d="M 125.457031 120.355469 L 249.207031 120.355469 L 249.207031 269.894531 L 125.457031 269.894531 Z M 125.457031 120.355469"/></clipPath><clipPath id="b"><path d="M 208 104.910156 L 230 104.910156 L 230 126 L 208 126 Z M 208 104.910156"/></clipPath><clipPath id="c"><path d="M 144 104.910156 L 166 104.910156 L 166 126 L 144 126 Z M 144 104.910156"/></clipPath></defs><path fill="#7BD3DD" d="M 154.492188 133.199219 L 151.609375 122.140625 L 161.269531 119.613281 L 164.152344 130.675781 L 154.492188 133.199219"/><path fill="#7BD3DD" d="M 159.324219 131.9375 L 156.441406 120.875"/><path fill="#7BD3DD" d="M 219.984375 133.199219 L 210.324219 130.675781 L 213.207031 119.613281 L 222.867188 122.140625 L 219.984375 133.199219"/><path fill="#7BD3DD" d="M 218.035156 120.875 L 215.152344 131.9375"/><g clip-path="url(#a)"><path fill="#7BD3DD" d="M 225.632812 269.894531 C 215.203125 269.894531 214.003906 255.855469 213.039062 244.570312 C 212.953125 243.582031 212.871094 242.617188 212.785156 241.695312 C 212.558594 243.402344 212.410156 245.308594 212.253906 247.289062 L 212.140625 248.746094 C 212 250.378906 211.84375 252.078125 211.609375 253.757812 C 211.574219 254.0625 211.515625 254.4375 211.453125 254.808594 C 211.238281 256.179688 210.941406 257.554688 210.578125 258.828125 C 210.5 259.117188 210.386719 259.457031 210.277344 259.796875 C 209.804688 261.230469 209.261719 262.445312 208.613281 263.53125 L 208.214844 264.175781 C 207.945312 264.589844 207.675781 264.960938 207.382812 265.3125 C 207.25 265.472656 207.132812 265.609375 207.023438 265.734375 C 206.824219 265.988281 206.601562 266.222656 206.359375 266.433594 C 206.226562 266.566406 206.089844 266.699219 205.949219 266.828125 C 205.691406 267.066406 205.519531 267.222656 205.335938 267.371094 L 205.183594 267.492188 C 204.984375 267.640625 204.769531 267.796875 204.550781 267.945312 C 202.886719 269.070312 201.023438 269.648438 199.113281 269.648438 C 197.257812 269.648438 195.492188 269.09375 194.007812 268.042969 C 189.207031 264.679688 187.800781 258.054688 187.335938 249.519531 C 187.199219 251.925781 187.011719 253.863281 186.757812 255.574219 C 186.503906 257.304688 186.152344 258.90625 185.714844 260.324219 C 185.5625 260.816406 185.410156 261.285156 185.230469 261.742188 C 185.128906 262.03125 185.015625 262.308594 184.898438 262.566406 C 184.703125 263.011719 184.5 263.425781 184.292969 263.824219 L 184.171875 264.042969 L 183.847656 264.601562 L 183.777344 264.703125 C 183.523438 265.097656 183.234375 265.519531 182.867188 265.964844 C 182.707031 266.15625 182.546875 266.347656 182.375 266.53125 C 182.3125 266.605469 182.242188 266.675781 182.179688 266.746094 C 181.933594 267.007812 181.660156 267.261719 181.367188 267.503906 C 179.789062 268.820312 177.730469 269.546875 175.554688 269.546875 C 173.375 269.546875 171.246094 268.835938 169.554688 267.542969 C 163.648438 263.058594 162.980469 254.558594 162.386719 247.0625 C 162.238281 245.183594 162.097656 243.363281 161.882812 241.730469 C 161.871094 241.859375 161.589844 245.109375 161.589844 245.109375 L 161.5625 245.363281 C 161.511719 246.035156 161.449219 246.730469 161.386719 247.410156 C 161.15625 249.820312 160.878906 252.585938 160.4375 255.1875 L 160.277344 256.078125 C 160.175781 256.625 160.078125 257.148438 159.964844 257.660156 C 159.878906 258.042969 159.808594 258.351562 159.730469 258.644531 C 159.640625 259.011719 159.550781 259.363281 159.449219 259.714844 C 159.289062 260.28125 159.101562 260.882812 158.902344 261.441406 L 158.714844 261.964844 C 158.625 262.222656 158.507812 262.5 158.390625 262.769531 L 158.273438 263.035156 C 158.195312 263.214844 158.113281 263.394531 158.027344 263.570312 C 157.628906 264.367188 157.261719 264.992188 156.867188 265.550781 C 156.71875 265.769531 156.546875 265.996094 156.355469 266.226562 C 156.15625 266.492188 155.933594 266.742188 155.691406 266.992188 C 155.519531 267.175781 155.339844 267.347656 155.167969 267.5 C 154.863281 267.789062 154.535156 268.050781 154.183594 268.28125 C 154.179688 268.289062 154.089844 268.351562 153.992188 268.417969 L 153.851562 268.511719 L 153.457031 268.746094 C 153.242188 268.867188 153.042969 268.964844 152.839844 269.054688 C 152.457031 269.242188 152.113281 269.367188 151.820312 269.460938 C 151.664062 269.515625 151.5 269.5625 151.328125 269.605469 L 150.867188 269.832031 L 150.023438 269.839844 C 149.710938 269.875 149.386719 269.894531 149.039062 269.894531 C 145.308594 269.894531 140.40625 268.191406 138.230469 260.085938 C 137.050781 255.6875 136.679688 249.925781 136.210938 242.628906 C 136.082031 240.636719 135.949219 238.542969 135.789062 236.351562 L 135.773438 236.171875 L 135.773438 235.988281 C 135.773438 229.570312 133.78125 226.445312 131.253906 222.488281 C 128.535156 218.226562 125.457031 213.398438 125.457031 204.902344 C 125.457031 195.199219 130.25 186.230469 138.144531 180.828125 L 138.144531 162.269531 C 138.144531 148.375 145.027344 135.480469 156.550781 127.78125 C 162.09375 124.066406 168.546875 121.75 175.203125 121.089844 C 178.855469 120.722656 182.570312 120.535156 186.238281 120.535156 C 187.417969 120.535156 188.597656 120.554688 189.78125 120.59375 L 190.417969 120.617188 C 190.824219 120.632812 191.234375 120.648438 191.648438 120.671875 L 193.027344 120.746094 C 195.460938 120.886719 197.902344 121.113281 200.519531 121.4375 C 221.042969 124.03125 236.515625 141.6875 236.515625 162.507812 L 236.515625 180.828125 C 244.414062 186.222656 249.207031 195.191406 249.207031 204.902344 C 249.207031 213.378906 246.132812 218.160156 243.425781 222.378906 C 240.886719 226.328125 238.886719 229.445312 238.886719 235.988281 L 238.886719 236.167969 L 238.871094 236.34375 C 238.6875 238.945312 238.527344 241.40625 238.375 243.722656 L 238.148438 247.117188 C 238.027344 248.9375 237.875 250.753906 237.699219 252.511719 C 237.644531 253.054688 237.589844 253.589844 237.523438 254.109375 C 237.511719 254.210938 237.382812 255.203125 237.382812 255.203125 L 237.253906 256.054688 C 237.207031 256.40625 237.140625 256.773438 237.074219 257.121094 C 236.550781 260.1875 235.800781 262.539062 234.734375 264.429688 C 234.734375 264.429688 234.421875 264.953125 234.347656 265.070312 C 234.019531 265.597656 233.636719 266.097656 233.199219 266.566406 C 233.042969 266.738281 232.890625 266.898438 232.734375 267.054688 C 232.476562 267.3125 232.214844 267.535156 231.949219 267.75 C 231.703125 267.945312 231.449219 268.132812 231.203125 268.292969 C 230.730469 268.613281 230.210938 268.886719 229.628906 269.125 C 229.355469 269.246094 229.070312 269.351562 228.777344 269.433594 C 228.613281 269.488281 228.453125 269.53125 228.292969 269.574219 C 228.082031 269.628906 227.871094 269.675781 227.660156 269.710938 C 227.417969 269.753906 227.179688 269.789062 226.941406 269.8125 C 226.53125 269.871094 226.109375 269.894531 225.632812 269.894531"/></g><path fill="#7BD3DD" d="M 244.214844 204.902344 C 244.214844 219.238281 233.894531 220.3125 233.894531 235.988281 C 233.707031 238.597656 233.542969 241.074219 233.394531 243.398438 C 233.371094 243.785156 233.34375 244.171875 233.320312 244.546875 C 233.296875 244.921875 233.269531 245.296875 233.246094 245.671875 C 233.21875 246.046875 233.195312 246.410156 233.171875 246.773438 C 233.046875 248.648438 232.894531 250.398438 232.734375 252.011719 C 232.683594 252.507812 232.632812 252.996094 232.570312 253.472656 C 232.558594 253.546875 232.558594 253.609375 232.546875 253.671875 C 232.507812 253.972656 232.472656 254.257812 232.433594 254.535156 C 232.398438 254.808594 232.347656 255.097656 232.308594 255.371094 C 232.273438 255.648438 232.222656 255.921875 232.171875 256.183594 C 231.761719 258.582031 231.199219 260.535156 230.386719 261.972656 C 230.300781 262.109375 230.226562 262.246094 230.136719 262.382812 C 229.949219 262.683594 229.75 262.945312 229.527344 263.183594 C 229.414062 263.308594 229.300781 263.421875 229.191406 263.535156 C 229.078125 263.644531 228.953125 263.746094 228.828125 263.84375 C 228.703125 263.945312 228.578125 264.046875 228.453125 264.121094 C 228.203125 264.296875 227.941406 264.421875 227.65625 264.53125 C 227.554688 264.582031 227.441406 264.621094 227.332031 264.644531 C 227.230469 264.683594 227.117188 264.71875 227.007812 264.734375 C 226.957031 264.757812 226.90625 264.769531 226.855469 264.769531 C 226.695312 264.808594 226.542969 264.832031 226.371094 264.847656 C 226.132812 264.882812 225.894531 264.894531 225.632812 264.894531 C 218.308594 264.894531 218.632812 247.058594 217.359375 237.636719 C 217.210938 237.011719 217.023438 236.410156 216.8125 235.863281 C 216.710938 235.636719 216.625 235.410156 216.511719 235.210938 C 216.398438 234.976562 216.273438 234.75 216.148438 234.523438 C 215.960938 234.175781 215.738281 233.847656 215.5 233.5625 C 215.5 233.550781 215.488281 233.523438 215.464844 233.511719 C 215.375 233.398438 215.289062 233.289062 215.1875 233.1875 C 215.175781 233.164062 215.152344 233.136719 215.125 233.125 L 214.902344 232.898438 C 214.613281 232.625 214.328125 232.410156 214.015625 232.25 C 213.902344 232.1875 213.789062 232.136719 213.667969 232.085938 C 213.667969 232.085938 213.65625 232.074219 213.640625 232.085938 C 213.503906 232.023438 213.367188 231.988281 213.230469 231.960938 C 213.203125 231.949219 213.191406 231.949219 213.179688 231.949219 C 213.03125 231.910156 212.867188 231.898438 212.71875 231.898438 C 212.320312 231.898438 211.90625 232 211.507812 232.226562 C 211.308594 232.324219 211.109375 232.460938 210.921875 232.636719 C 209.960938 233.472656 209.085938 235.074219 208.449219 237.636719 C 208.386719 237.886719 208.324219 238.148438 208.277344 238.425781 C 207.714844 241.074219 207.488281 244.210938 207.238281 247.398438 C 207.214844 247.722656 207.191406 248.035156 207.164062 248.359375 C 207.027344 249.949219 206.878906 251.535156 206.667969 253.074219 C 206.628906 253.382812 206.578125 253.683594 206.527344 253.984375 C 206.339844 255.195312 206.09375 256.359375 205.78125 257.445312 C 205.703125 257.722656 205.617188 257.984375 205.53125 258.246094 C 205.207031 259.234375 204.820312 260.144531 204.332031 260.957031 C 204.234375 261.121094 204.132812 261.285156 204.03125 261.445312 C 203.871094 261.695312 203.707031 261.921875 203.535156 262.132812 C 203.398438 262.296875 203.273438 262.445312 203.121094 262.597656 C 203.109375 262.632812 203.085938 262.671875 203.035156 262.695312 C 202.886719 262.847656 202.734375 262.996094 202.574219 263.144531 C 202.449219 263.257812 202.324219 263.382812 202.1875 263.496094 C 202.035156 263.609375 201.875 263.71875 201.710938 263.832031 C 200.253906 264.820312 198.316406 264.972656 196.882812 263.957031 C 192.566406 260.933594 192.242188 251.347656 192.101562 242.171875 C 192.101562 241.921875 192.089844 241.660156 192.066406 241.410156 C 192.054688 241.183594 192.027344 240.960938 192.003906 240.734375 C 192.003906 240.6875 191.992188 240.636719 191.980469 240.585938 C 191.964844 240.410156 191.929688 240.238281 191.890625 240.074219 C 191.878906 239.972656 191.867188 239.886719 191.839844 239.785156 C 191.804688 239.585938 191.753906 239.386719 191.691406 239.1875 C 191.640625 238.949219 191.566406 238.722656 191.492188 238.5 C 191.480469 238.449219 191.46875 238.410156 191.441406 238.359375 C 191.378906 238.175781 191.304688 237.984375 191.21875 237.800781 C 191.042969 237.363281 190.820312 236.9375 190.566406 236.539062 C 190.519531 236.449219 190.46875 236.363281 190.40625 236.273438 C 190.269531 236.074219 190.132812 235.886719 189.980469 235.699219 C 187.910156 233.164062 186.125 233.886719 184.828125 235.324219 C 183.34375 236.960938 182.59375 239.449219 182.558594 241.960938 C 182.53125 244.199219 182.496094 246.460938 182.382812 248.648438 C 182.269531 250.824219 182.109375 252.910156 181.820312 254.835938 C 181.609375 256.285156 181.320312 257.632812 180.949219 258.847656 C 180.824219 259.246094 180.699219 259.632812 180.546875 260.007812 C 180.484375 260.195312 180.410156 260.371094 180.335938 260.535156 C 180.1875 260.882812 180.023438 261.207031 179.863281 261.519531 L 179.601562 261.972656 C 179.414062 262.257812 179.226562 262.53125 179.011719 262.78125 C 178.914062 262.90625 178.8125 263.035156 178.703125 263.144531 C 178.664062 263.195312 178.601562 263.257812 178.550781 263.308594 C 178.4375 263.433594 178.316406 263.546875 178.191406 263.644531 C 176.679688 264.933594 174.171875 264.78125 172.585938 263.570312 C 166.449219 258.910156 168.195312 245.648438 166.210938 237.636719 C 166.046875 236.988281 165.875 236.398438 165.6875 235.875 C 165.5 235.375 165.3125 234.925781 165.113281 234.523438 C 165.113281 234.511719 165.113281 234.5 165.097656 234.488281 C 165 234.273438 164.886719 234.074219 164.761719 233.886719 C 164.652344 233.6875 164.527344 233.5 164.386719 233.335938 C 164.238281 233.136719 164.078125 232.949219 163.902344 232.789062 C 163.664062 232.550781 163.414062 232.351562 163.152344 232.210938 C 162.890625 232.074219 162.628906 231.976562 162.367188 231.9375 C 162.179688 231.898438 161.992188 231.886719 161.804688 231.910156 C 161.71875 231.910156 161.628906 231.925781 161.542969 231.9375 C 161.183594 231.988281 160.832031 232.136719 160.484375 232.335938 C 160.394531 232.386719 160.296875 232.449219 160.207031 232.523438 C 160.007812 232.660156 159.820312 232.824219 159.660156 233 C 158.9375 233.699219 158.3125 234.699219 157.835938 235.898438 C 157.476562 236.824219 157.277344 237.8125 157.164062 238.8125 C 157.0625 239.710938 156.964844 240.6875 156.875 241.6875 C 156.851562 242.023438 156.816406 242.363281 156.789062 242.710938 C 156.777344 242.761719 156.777344 242.824219 156.777344 242.886719 C 156.726562 243.4375 156.675781 244 156.625 244.574219 C 156.613281 244.671875 156.601562 244.785156 156.589844 244.898438 C 156.539062 245.574219 156.476562 246.273438 156.414062 246.960938 C 156.179688 249.460938 155.914062 251.996094 155.515625 254.347656 C 155.464844 254.621094 155.417969 254.910156 155.367188 255.183594 C 155.277344 255.660156 155.191406 256.121094 155.09375 256.570312 C 155.03125 256.847656 154.96875 257.132812 154.890625 257.410156 C 154.816406 257.722656 154.742188 258.019531 154.65625 258.320312 C 154.519531 258.808594 154.367188 259.296875 154.207031 259.746094 C 154.144531 259.921875 154.082031 260.097656 154.019531 260.269531 C 153.957031 260.445312 153.882812 260.621094 153.808594 260.796875 C 153.71875 260.984375 153.644531 261.171875 153.558594 261.347656 C 153.320312 261.820312 153.070312 262.269531 152.796875 262.65625 C 152.683594 262.820312 152.570312 262.96875 152.445312 263.121094 C 152.335938 263.269531 152.210938 263.410156 152.085938 263.535156 C 151.984375 263.644531 151.871094 263.746094 151.773438 263.832031 C 151.660156 263.945312 151.546875 264.035156 151.4375 264.109375 C 151.359375 264.15625 151.296875 264.207031 151.222656 264.257812 C 151.136719 264.308594 151.0625 264.359375 150.972656 264.40625 C 150.886719 264.457031 150.800781 264.496094 150.710938 264.53125 C 150.574219 264.609375 150.425781 264.65625 150.273438 264.707031 C 150.089844 264.769531 149.914062 264.808594 149.714844 264.832031 C 149.6875 264.847656 149.664062 264.847656 149.640625 264.847656 C 149.453125 264.882812 149.25 264.894531 149.039062 264.894531 C 141.714844 264.894531 142.039062 253.421875 140.765625 235.988281 C 140.765625 220.527344 130.445312 219.238281 130.445312 204.902344 C 130.445312 195.703125 135.589844 187.707031 143.136719 183.632812 L 143.136719 162.269531 C 143.136719 149.722656 149.5 138.5 159.324219 131.9375 C 164.078125 128.75 169.640625 126.664062 175.695312 126.0625 C 180.300781 125.601562 184.941406 125.4375 189.621094 125.589844 C 190.179688 125.613281 190.757812 125.625 191.328125 125.664062 C 191.804688 125.6875 192.277344 125.714844 192.765625 125.738281 C 195.136719 125.875 197.507812 126.101562 199.902344 126.402344 C 218.007812 128.6875 231.523438 144.238281 231.523438 162.507812 L 231.523438 183.632812 C 239.085938 187.707031 244.214844 195.703125 244.214844 204.902344"/><g clip-path="url(#b)"><path fill="#7BD3DD" d="M 219.105469 125.976562 C 218.460938 125.976562 217.800781 125.914062 217.144531 125.792969 C 212.164062 124.8125 208.601562 120.464844 208.601562 115.441406 C 208.601562 114.933594 208.632812 114.472656 208.699219 114.03125 C 208.738281 113.722656 208.792969 113.382812 208.894531 112.988281 C 208.929688 112.824219 208.976562 112.632812 209.046875 112.414062 C 209.109375 112.203125 209.175781 112.007812 209.253906 111.808594 L 209.335938 111.585938 C 209.65625 110.769531 210.027344 110.082031 210.46875 109.457031 L 210.558594 109.339844 C 210.644531 109.214844 210.738281 109.089844 210.84375 108.957031 C 211.5 108.09375 212.304688 107.34375 213.230469 106.726562 C 213.511719 106.53125 213.808594 106.351562 214.121094 106.1875 C 214.347656 106.0625 214.585938 105.945312 214.824219 105.835938 C 216.113281 105.242188 217.605469 104.917969 219.105469 104.917969 C 224.90625 104.917969 229.628906 109.636719 229.628906 115.441406 C 229.628906 115.9375 229.597656 116.390625 229.539062 116.820312 C 229.5 117.128906 229.449219 117.417969 229.390625 117.679688 C 229.332031 117.941406 229.261719 118.230469 229.160156 118.539062 C 229.050781 118.917969 228.910156 119.296875 228.738281 119.667969 C 228.535156 120.148438 228.28125 120.625 227.96875 121.109375 C 227.753906 121.460938 227.523438 121.777344 227.273438 122.074219 C 227.148438 122.234375 227.011719 122.390625 226.875 122.535156 C 226.488281 122.976562 226.054688 123.382812 225.585938 123.734375 C 225.460938 123.835938 225.28125 123.980469 225.050781 124.132812 C 224.875 124.257812 224.714844 124.355469 224.574219 124.441406 C 224.421875 124.535156 224.171875 124.691406 223.835938 124.851562 C 223.605469 124.972656 223.402344 125.0625 223.25 125.125 C 222.972656 125.25 222.6875 125.355469 222.390625 125.449219 C 221.996094 125.582031 221.636719 125.667969 221.300781 125.746094 L 221.132812 125.777344 C 220.910156 125.820312 220.683594 125.859375 220.457031 125.886719 C 220.035156 125.945312 219.589844 125.976562 219.105469 125.976562"/></g><path fill="#7BD3DD" d="M 213.589844 115.441406 C 213.589844 115.203125 213.605469 114.964844 213.640625 114.742188 C 213.667969 114.539062 213.691406 114.367188 213.742188 114.175781 C 213.765625 114.078125 213.777344 113.992188 213.816406 113.902344 C 213.839844 113.804688 213.867188 113.714844 213.902344 113.628906 C 213.941406 113.527344 213.980469 113.429688 214.015625 113.328125 C 214.152344 112.976562 214.328125 112.652344 214.539062 112.351562 C 214.613281 112.253906 214.675781 112.152344 214.765625 112.054688 C 215.113281 111.578125 215.550781 111.179688 216.050781 110.851562 C 216.1875 110.753906 216.335938 110.664062 216.488281 110.589844 C 216.613281 110.515625 216.75 110.453125 216.886719 110.390625 C 217.558594 110.078125 218.320312 109.914062 219.105469 109.914062 C 222.164062 109.914062 224.636719 112.390625 224.636719 115.441406 C 224.636719 115.703125 224.625 115.953125 224.585938 116.191406 C 224.574219 116.328125 224.546875 116.453125 224.523438 116.566406 C 224.484375 116.738281 224.449219 116.902344 224.386719 117.078125 C 224.335938 117.277344 224.261719 117.464844 224.171875 117.640625 C 224.0625 117.925781 223.910156 118.191406 223.738281 118.453125 C 223.648438 118.601562 223.550781 118.753906 223.425781 118.890625 C 223.351562 118.988281 223.261719 119.089844 223.175781 119.175781 C 222.988281 119.402344 222.777344 119.601562 222.539062 119.777344 C 222.425781 119.863281 222.328125 119.953125 222.214844 120.015625 C 222.128906 120.089844 222.027344 120.140625 221.925781 120.203125 C 221.828125 120.265625 221.726562 120.328125 221.617188 120.363281 C 221.503906 120.441406 221.378906 120.488281 221.253906 120.539062 C 221.128906 120.601562 220.992188 120.652344 220.855469 120.691406 C 220.652344 120.765625 220.441406 120.816406 220.21875 120.863281 C 220.082031 120.890625 219.941406 120.914062 219.804688 120.925781 C 219.582031 120.964844 219.34375 120.976562 219.105469 120.976562 C 218.746094 120.976562 218.382812 120.9375 218.035156 120.875 C 215.5 120.375 213.589844 118.128906 213.589844 115.441406"/><g clip-path="url(#c)"><path fill="#7BD3DD" d="M 155.367188 125.976562 C 149.574219 125.976562 144.859375 121.25 144.859375 115.441406 C 144.859375 110.742188 148.019531 106.578125 152.539062 105.3125 C 153.441406 105.054688 154.402344 104.917969 155.367188 104.917969 C 161.160156 104.917969 165.875 109.636719 165.875 115.441406 C 165.875 116.414062 165.734375 117.386719 165.464844 118.324219 C 164.425781 122.105469 161.335938 124.988281 157.425781 125.777344 C 156.671875 125.914062 156.011719 125.976562 155.367188 125.976562"/></g><path fill="#7BD3DD" d="M 149.851562 115.441406 C 149.851562 112.902344 151.5625 110.777344 153.882812 110.128906 C 154.355469 109.992188 154.855469 109.914062 155.367188 109.914062 C 158.410156 109.914062 160.882812 112.390625 160.882812 115.441406 C 160.882812 115.953125 160.808594 116.453125 160.671875 116.925781 C 160.121094 118.925781 158.484375 120.464844 156.441406 120.875 C 156.089844 120.9375 155.726562 120.976562 155.367188 120.976562 C 152.320312 120.976562 149.851562 118.503906 149.851562 115.441406"/><path fill="#26745C" d="M 231.523438 183.632812 L 231.523438 162.507812 C 231.523438 144.238281 218.007812 128.6875 199.902344 126.402344 C 197.507812 126.101562 195.136719 125.875 192.765625 125.738281 C 192.277344 125.714844 191.804688 125.6875 191.328125 125.664062 C 190.757812 125.625 190.179688 125.613281 189.621094 125.589844 C 184.941406 125.4375 180.300781 125.601562 175.695312 126.0625 C 157.175781 127.925781 143.136719 143.636719 143.136719 162.269531 L 143.136719 183.632812 C 135.589844 187.707031 130.445312 195.703125 130.445312 204.902344 C 130.445312 219.238281 140.765625 220.527344 140.765625 235.988281 C 142.039062 253.421875 141.714844 264.894531 149.039062 264.894531 C 149.25 264.894531 149.453125 264.882812 149.640625 264.847656 C 149.664062 264.847656 149.6875 264.847656 149.714844 264.832031 C 149.914062 264.808594 150.089844 264.769531 150.273438 264.707031 C 150.425781 264.65625 150.574219 264.609375 150.710938 264.53125 C 150.800781 264.496094 150.886719 264.457031 150.972656 264.40625 C 151.0625 264.359375 151.136719 264.308594 151.222656 264.257812 C 151.296875 264.207031 151.359375 264.15625 151.4375 264.109375 C 151.546875 264.035156 151.660156 263.945312 151.773438 263.832031 C 151.871094 263.746094 151.984375 263.644531 152.085938 263.535156 C 152.210938 263.410156 152.335938 263.269531 152.445312 263.121094 C 152.570312 262.96875 152.683594 262.820312 152.796875 262.65625 C 153.070312 262.269531 153.320312 261.820312 153.558594 261.347656 C 153.644531 261.171875 153.71875 260.984375 153.808594 260.796875 C 153.882812 260.621094 153.957031 260.445312 154.019531 260.269531 C 154.082031 260.097656 154.144531 259.921875 154.207031 259.746094 C 154.367188 259.296875 154.519531 258.808594 154.65625 258.320312 C 154.742188 258.019531 154.816406 257.722656 154.890625 257.410156 C 154.96875 257.132812 155.03125 256.847656 155.09375 256.570312 C 155.191406 256.121094 155.277344 255.660156 155.367188 255.183594 C 155.417969 254.910156 155.464844 254.621094 155.515625 254.347656 C 155.914062 251.996094 156.179688 249.460938 156.414062 246.960938 C 156.476562 246.273438 156.539062 245.574219 156.589844 244.898438 C 156.601562 244.785156 156.613281 244.671875 156.625 244.574219 C 156.675781 244 156.726562 243.4375 156.777344 242.886719 C 156.777344 242.824219 156.777344 242.761719 156.789062 242.710938 C 156.816406 242.363281 156.851562 242.023438 156.875 241.6875 C 156.964844 240.6875 157.0625 239.710938 157.164062 238.8125 C 157.277344 237.8125 157.476562 236.824219 157.835938 235.898438 C 158.3125 234.699219 158.9375 233.699219 159.660156 233 C 159.820312 232.824219 160.007812 232.660156 160.207031 232.523438 C 160.296875 232.449219 160.394531 232.386719 160.484375 232.335938 C 160.832031 232.136719 161.183594 231.988281 161.542969 231.9375 C 161.628906 231.925781 161.71875 231.910156 161.804688 231.910156 C 161.992188 231.886719 162.179688 231.898438 162.367188 231.9375 C 162.628906 231.976562 162.890625 232.074219 163.152344 232.210938 C 163.414062 232.351562 163.664062 232.550781 163.902344 232.789062 C 164.078125 232.949219 164.238281 233.136719 164.386719 233.335938 C 164.527344 233.5 164.652344 233.6875 164.761719 233.886719 C 164.886719 234.074219 165 234.273438 165.097656 234.488281 C 165.113281 234.5 165.113281 234.511719 165.113281 234.523438 C 165.3125 234.925781 165.5 235.375 165.6875 235.875 C 165.875 236.398438 166.046875 236.988281 166.210938 237.636719 C 168.195312 245.648438 166.449219 258.910156 172.585938 263.570312 C 174.171875 264.78125 176.679688 264.933594 178.191406 263.644531 C 178.316406 263.546875 178.4375 263.433594 178.550781 263.308594 C 178.601562 263.257812 178.664062 263.195312 178.703125 263.144531 C 178.8125 263.035156 178.914062 262.90625 179.011719 262.78125 C 179.226562 262.53125 179.414062 262.257812 179.601562 261.972656 L 179.863281 261.519531 C 180.023438 261.207031 180.1875 260.882812 180.335938 260.535156 C 180.410156 260.371094 180.484375 260.195312 180.546875 260.007812 C 180.699219 259.632812 180.824219 259.246094 180.949219 258.847656 C 181.320312 257.632812 181.609375 256.285156 181.820312 254.835938 C 182.109375 252.910156 182.269531 250.824219 182.382812 248.648438 C 182.496094 246.460938 182.53125 244.199219 182.558594 241.960938 C 182.59375 239.449219 183.34375 236.960938 184.828125 235.324219 C 186.125 233.886719 187.910156 233.164062 189.980469 235.699219 C 190.132812 235.886719 190.269531 236.074219 190.40625 236.273438 C 190.46875 236.363281 190.519531 236.449219 190.566406 236.539062 C 190.820312 236.9375 191.042969 237.363281 191.21875 237.800781 C 191.304688 237.984375 191.378906 238.175781 191.441406 238.359375 C 191.46875 238.410156 191.480469 238.449219 191.492188 238.5 C 191.566406 238.722656 191.628906 238.949219 191.691406 239.1875 C 191.753906 239.386719 191.804688 239.585938 191.839844 239.785156 C 191.867188 239.886719 191.878906 239.972656 191.890625 240.074219 C 191.929688 240.238281 191.953125 240.410156 191.980469 240.585938 C 191.992188 240.636719 192.003906 240.6875 192.003906 240.734375 C 192.027344 240.960938 192.054688 241.183594 192.066406 241.410156 C 192.089844 241.660156 192.101562 241.921875 192.101562 242.171875 C 192.242188 251.347656 192.566406 260.933594 196.882812 263.957031 C 198.316406 264.972656 200.253906 264.820312 201.710938 263.832031 C 201.875 263.71875 202.035156 263.609375 202.1875 263.496094 C 202.324219 263.382812 202.449219 263.257812 202.574219 263.144531 C 202.734375 262.996094 202.886719 262.847656 203.035156 262.695312 C 203.085938 262.671875 203.109375 262.632812 203.121094 262.597656 C 203.273438 262.445312 203.398438 262.296875 203.535156 262.132812 C 203.707031 261.921875 203.871094 261.695312 204.03125 261.445312 C 204.132812 261.285156 204.234375 261.121094 204.332031 260.957031 C 204.820312 260.144531 205.207031 259.234375 205.53125 258.246094 C 205.617188 257.984375 205.703125 257.722656 205.78125 257.445312 C 206.09375 256.359375 206.339844 255.195312 206.527344 253.984375 C 206.578125 253.683594 206.628906 253.382812 206.667969 253.074219 C 206.878906 251.535156 207.027344 249.949219 207.164062 248.359375 C 207.191406 248.035156 207.214844 247.722656 207.238281 247.398438 C 207.488281 244.210938 207.714844 241.074219 208.277344 238.425781 C 208.324219 238.148438 208.386719 237.886719 208.449219 237.636719 C 209.085938 235.074219 209.960938 233.472656 210.921875 232.636719 C 211.109375 232.460938 211.308594 232.324219 211.507812 232.226562 C 211.90625 232 212.320312 231.898438 212.71875 231.898438 C 212.867188 231.898438 213.03125 231.910156 213.179688 231.949219 C 213.191406 231.949219 213.203125 231.949219 213.230469 231.960938 C 213.367188 231.988281 213.503906 232.023438 213.640625 232.085938 C 213.65625 232.074219 213.667969 232.085938 213.667969 232.085938 C 213.789062 232.136719 213.902344 232.1875 214.015625 232.25 C 214.328125 232.410156 214.613281 232.625 214.902344 232.898438 L 215.125 233.125 C 215.152344 233.136719 215.175781 233.164062 215.1875 233.1875 C 215.289062 233.289062 215.375 233.398438 215.464844 233.511719 C 215.488281 233.523438 215.5 233.550781 215.5 233.5625 C 215.738281 233.847656 215.960938 234.175781 216.148438 234.523438 C 216.273438 234.75 216.398438 234.976562 216.511719 235.210938 C 216.625 235.410156 216.710938 235.636719 216.8125 235.863281 C 217.023438 236.410156 217.210938 237.011719 217.359375 237.636719 C 218.632812 247.058594 218.308594 264.894531 225.632812 264.894531 C 225.894531 264.894531 226.132812 264.882812 226.371094 264.847656 C 226.542969 264.832031 226.695312 264.808594 226.855469 264.769531 C 226.90625 264.769531 226.957031 264.757812 227.007812 264.734375 C 227.117188 264.71875 227.230469 264.683594 227.332031 264.644531 C 227.441406 264.621094 227.554688 264.582031 227.65625 264.53125 C 227.941406 264.421875 228.203125 264.296875 228.453125 264.121094 C 228.578125 264.046875 228.703125 263.945312 228.828125 263.84375 C 228.953125 263.746094 229.078125 263.644531 229.191406 263.535156 C 229.300781 263.421875 229.414062 263.308594 229.527344 263.183594 C 229.75 262.945312 229.949219 262.683594 230.136719 262.382812 C 230.226562 262.246094 230.300781 262.109375 230.386719 261.972656 C 231.199219 260.535156 231.761719 258.582031 232.171875 256.183594 C 232.222656 255.921875 232.273438 255.648438 232.308594 255.371094 C 232.347656 255.097656 232.398438 254.808594 232.433594 254.535156 C 232.472656 254.257812 232.507812 253.972656 232.546875 253.671875 C 232.558594 253.609375 232.558594 253.546875 232.570312 253.472656 C 232.632812 252.996094 232.683594 252.507812 232.734375 252.011719 C 232.894531 250.398438 233.046875 248.648438 233.171875 246.773438 C 233.195312 246.410156 233.21875 246.046875 233.246094 245.671875 C 233.269531 245.296875 233.296875 244.921875 233.320312 244.546875 C 233.34375 244.171875 233.371094 243.785156 233.394531 243.398438 C 233.542969 241.074219 233.707031 238.597656 233.894531 235.988281 C 233.894531 220.3125 244.214844 219.238281 244.214844 204.902344 C 244.214844 195.703125 239.085938 187.707031 231.523438 183.632812"/><path fill="#42BEAD" d="M 231.523438 183.632812 L 231.523438 162.507812 C 231.523438 144.238281 218.007812 128.6875 199.902344 126.402344 C 197.507812 126.101562 195.136719 125.875 192.765625 125.738281 C 192.277344 125.714844 191.804688 125.6875 191.328125 125.664062 C 190.757812 125.625 190.179688 125.613281 189.621094 125.589844 C 187.175781 125.664062 184.726562 125.8125 182.296875 126.0625 C 163.789062 127.925781 149.75 143.636719 149.75 162.269531 L 149.75 183.632812 C 142.1875 187.707031 137.0625 195.703125 137.0625 204.902344 C 137.0625 219.238281 147.378906 220.527344 147.378906 235.988281 C 148.390625 249.910156 148.390625 260.019531 152.085938 263.535156 C 152.210938 263.410156 152.335938 263.269531 152.445312 263.121094 C 152.570312 262.96875 152.683594 262.820312 152.796875 262.65625 C 153.070312 262.269531 153.320312 261.820312 153.558594 261.347656 C 153.644531 261.171875 153.71875 260.984375 153.808594 260.796875 C 153.882812 260.621094 153.957031 260.445312 154.019531 260.269531 C 154.082031 260.097656 154.144531 259.921875 154.207031 259.746094 C 154.367188 259.296875 154.519531 258.808594 154.65625 258.320312 C 154.742188 258.019531 154.816406 257.722656 154.890625 257.410156 C 154.96875 257.132812 155.03125 256.847656 155.09375 256.570312 C 155.191406 256.121094 155.277344 255.660156 155.367188 255.183594 C 155.417969 254.910156 155.464844 254.621094 155.515625 254.347656 C 155.914062 251.996094 156.179688 249.460938 156.414062 246.960938 C 156.476562 246.273438 156.539062 245.574219 156.589844 244.898438 C 156.601562 244.785156 156.613281 244.671875 156.625 244.574219 C 156.675781 244 156.726562 243.4375 156.777344 242.886719 C 156.777344 242.824219 156.777344 242.761719 156.789062 242.710938 C 156.816406 242.363281 156.851562 242.023438 156.875 241.6875 C 156.964844 240.6875 157.0625 239.710938 157.164062 238.8125 C 157.277344 237.8125 157.476562 236.824219 157.835938 235.898438 C 158.3125 234.699219 158.9375 233.699219 159.660156 233 C 159.820312 232.824219 160.007812 232.660156 160.207031 232.523438 C 160.296875 232.449219 160.394531 232.386719 160.484375 232.335938 C 160.832031 232.136719 161.183594 231.988281 161.542969 231.9375 C 161.628906 231.925781 161.71875 231.910156 161.804688 231.910156 C 161.992188 231.886719 162.179688 231.898438 162.367188 231.9375 C 162.628906 231.976562 162.890625 232.074219 163.152344 232.210938 C 163.414062 232.351562 163.664062 232.550781 163.902344 232.789062 C 164.078125 232.949219 164.238281 233.136719 164.386719 233.335938 C 164.527344 233.5 164.652344 233.6875 164.761719 233.886719 C 164.886719 234.074219 165 234.273438 165.097656 234.488281 C 165.113281 234.5 165.113281 234.511719 165.113281 234.523438 C 167.257812 230.8125 171.027344 230.335938 172.824219 237.636719 C 174.746094 245.421875 173.160156 258.160156 178.703125 263.144531 C 178.8125 263.035156 178.914062 262.90625 179.011719 262.78125 C 179.226562 262.53125 179.414062 262.257812 179.601562 261.972656 L 179.863281 261.519531 C 180.023438 261.207031 180.1875 260.882812 180.335938 260.535156 C 180.410156 260.371094 180.484375 260.195312 180.546875 260.007812 C 180.699219 259.632812 180.824219 259.246094 180.949219 258.847656 C 181.320312 257.632812 181.609375 256.285156 181.820312 254.835938 C 182.109375 252.910156 182.269531 250.824219 182.382812 248.648438 C 182.496094 246.460938 182.53125 244.199219 182.558594 241.960938 C 182.59375 239.449219 183.34375 236.960938 184.828125 235.324219 C 186.125 233.886719 187.910156 233.164062 189.980469 235.699219 C 190.132812 235.886719 190.269531 236.074219 190.40625 236.273438 C 190.46875 236.363281 190.519531 236.449219 190.566406 236.539062 C 190.820312 236.097656 191.117188 235.6875 191.441406 235.324219 C 192.738281 233.886719 194.523438 233.164062 196.59375 235.699219 C 197.957031 237.375 198.691406 239.738281 198.71875 242.171875 C 198.84375 250.632812 199.128906 259.457031 202.574219 263.144531 C 202.734375 262.996094 202.886719 262.847656 203.035156 262.695312 C 203.085938 262.671875 203.109375 262.632812 203.121094 262.597656 C 203.273438 262.445312 203.398438 262.296875 203.535156 262.132812 C 203.707031 261.921875 203.871094 261.695312 204.03125 261.445312 C 204.132812 261.285156 204.234375 261.121094 204.332031 260.957031 C 204.820312 260.144531 205.207031 259.234375 205.53125 258.246094 C 205.617188 257.984375 205.703125 257.722656 205.78125 257.445312 C 206.09375 256.359375 206.339844 255.195312 206.527344 253.984375 C 206.578125 253.683594 206.628906 253.382812 206.667969 253.074219 C 206.878906 251.535156 207.027344 249.949219 207.164062 248.359375 C 207.191406 248.035156 207.214844 247.722656 207.238281 247.398438 C 207.488281 244.210938 207.714844 241.074219 208.277344 238.425781 C 208.324219 238.148438 208.386719 237.886719 208.449219 237.636719 C 209.085938 235.074219 209.960938 233.472656 210.921875 232.636719 C 211.109375 232.460938 211.308594 232.324219 211.507812 232.226562 C 211.90625 232 212.320312 231.898438 212.71875 231.898438 C 212.867188 231.898438 213.03125 231.910156 213.179688 231.949219 C 213.191406 231.949219 213.203125 231.949219 213.230469 231.960938 C 213.367188 231.988281 213.503906 232.023438 213.640625 232.085938 C 213.65625 232.074219 213.667969 232.085938 213.667969 232.085938 C 213.789062 232.136719 213.902344 232.1875 214.015625 232.25 C 214.328125 232.410156 214.613281 232.625 214.902344 232.898438 L 215.125 233.125 C 215.152344 233.136719 215.175781 233.164062 215.1875 233.1875 C 215.289062 233.289062 215.375 233.398438 215.464844 233.511719 C 215.488281 233.523438 215.5 233.550781 215.5 233.5625 C 215.738281 233.847656 215.960938 234.175781 216.148438 234.523438 C 218.683594 229.476562 222.738281 232.351562 223.972656 237.636719 C 225.035156 245.496094 224.984375 259.195312 229.191406 263.535156 C 229.300781 263.421875 229.414062 263.308594 229.527344 263.183594 C 229.75 262.945312 229.949219 262.683594 230.136719 262.382812 C 230.226562 262.246094 230.300781 262.109375 230.386719 261.972656 C 231.199219 260.535156 231.761719 258.582031 232.171875 256.183594 C 232.222656 255.921875 232.273438 255.648438 232.308594 255.371094 C 232.347656 255.097656 232.398438 254.808594 232.433594 254.535156 C 232.472656 254.257812 232.507812 253.972656 232.546875 253.671875 C 232.558594 253.609375 232.558594 253.546875 232.570312 253.472656 C 232.632812 252.996094 232.683594 252.507812 232.734375 252.011719 C 232.894531 250.398438 233.046875 248.648438 233.171875 246.773438 C 233.195312 246.410156 233.21875 246.046875 233.246094 245.671875 C 233.269531 245.296875 233.296875 244.921875 233.320312 244.546875 C 233.34375 244.171875 233.371094 243.785156 233.394531 243.398438 C 233.542969 241.074219 233.707031 238.597656 233.894531 235.988281 C 233.894531 220.3125 244.214844 219.238281 244.214844 204.902344 C 244.214844 195.703125 239.085938 187.707031 231.523438 183.632812"/><path fill="#26745C" d="M 213.433594 185.636719 C 213.433594 205.136719 200.675781 220.941406 184.9375 220.941406 C 169.199219 220.941406 156.441406 205.136719 156.441406 185.636719 C 156.441406 166.136719 169.199219 150.328125 184.9375 150.328125 C 200.675781 150.328125 213.433594 166.136719 213.433594 185.636719"/><path fill="#26745C" d="M 160.882812 115.441406 C 160.882812 115.953125 160.808594 116.453125 160.671875 116.925781 C 160.121094 118.925781 158.484375 120.464844 156.441406 120.875 C 156.089844 120.9375 155.726562 120.976562 155.367188 120.976562 C 152.320312 120.976562 149.851562 118.503906 149.851562 115.441406 C 149.851562 112.902344 151.5625 110.777344 153.882812 110.128906 C 154.355469 109.992188 154.855469 109.914062 155.367188 109.914062 C 158.410156 109.914062 160.882812 112.390625 160.882812 115.441406"/><path fill="#26745C" d="M 224.636719 115.441406 C 224.636719 115.691406 224.625 115.953125 224.585938 116.191406 C 224.210938 118.902344 221.902344 120.976562 219.105469 120.976562 C 216.0625 120.976562 213.589844 118.503906 213.589844 115.441406 C 213.589844 113.527344 214.566406 111.839844 216.050781 110.851562 C 216.921875 110.265625 217.972656 109.914062 219.105469 109.914062 C 222.164062 109.914062 224.636719 112.390625 224.636719 115.441406"/><path fill="#42BEAD" d="M 224.636719 115.441406 C 224.636719 115.691406 224.625 115.953125 224.585938 116.191406 C 223.699219 116.789062 222.652344 117.140625 221.503906 117.140625 C 218.457031 117.140625 215.988281 114.664062 215.988281 111.617188 C 215.988281 111.351562 216 111.101562 216.050781 110.851562 C 216.921875 110.265625 217.972656 109.914062 219.105469 109.914062 C 222.164062 109.914062 224.636719 112.390625 224.636719 115.441406"/><path fill="#FFF" d="M 213.433594 187.199219 C 213.433594 202.269531 202.632812 214.484375 189.308594 214.484375 C 175.984375 214.484375 165.183594 202.269531 165.183594 187.199219 C 165.183594 172.125 175.984375 159.910156 189.308594 159.910156 C 202.632812 159.910156 213.433594 172.125 213.433594 187.199219"/><path fill="#C2C8E6" d="M 197.730469 211.925781 C 196.496094 212.175781 195.210938 212.300781 193.914062 212.300781 C 181.660156 212.300781 171.714844 201.066406 171.714844 187.191406 C 171.714844 173.332031 181.660156 162.097656 193.914062 162.097656 C 195.210938 162.097656 196.496094 162.222656 197.730469 162.472656 C 187.300781 164.519531 179.363281 174.808594 179.363281 187.191406 C 179.363281 199.589844 187.300781 209.878906 197.730469 211.925781"/><path fill="#100F0D" d="M 189.308594 161.160156 C 176.695312 161.160156 166.429688 172.839844 166.429688 187.195312 C 166.429688 201.554688 176.695312 213.234375 189.308594 213.234375 C 201.921875 213.234375 212.1875 201.554688 212.1875 187.195312 C 212.1875 172.839844 201.921875 161.160156 189.308594 161.160156 Z M 189.308594 215.734375 C 175.316406 215.734375 163.933594 202.933594 163.933594 187.195312 C 163.933594 171.460938 175.316406 158.660156 189.308594 158.660156 C 203.300781 158.660156 214.679688 171.460938 214.679688 187.195312 C 214.679688 202.933594 203.300781 215.734375 189.308594 215.734375"/><path fill="#100F0D" d="M 195.445312 189.332031 C 195.445312 193.503906 192.859375 196.882812 189.671875 196.882812 C 186.484375 196.882812 183.902344 193.503906 183.902344 189.332031 C 183.902344 185.160156 186.484375 181.78125 189.671875 181.78125 C 192.859375 181.78125 195.445312 185.160156 195.445312 189.332031"/><path fill="#100F0D" d="M 217.640625 234.671875 C 217.726562 234.835938 217.804688 235.011719 217.878906 235.191406 L 217.949219 235.351562 C 218.210938 236.027344 218.414062 236.675781 218.574219 237.34375 L 218.597656 237.46875 C 218.859375 239.398438 219.050781 241.652344 219.253906 244.039062 C 219.960938 252.3125 220.929688 263.644531 225.632812 263.644531 C 225.828125 263.644531 226 263.636719 226.175781 263.613281 C 226.386719 263.59375 226.476562 263.574219 226.574219 263.554688 L 226.65625 263.515625 L 227.203125 263.367188 C 227.433594 263.277344 227.597656 263.195312 227.738281 263.09375 C 227.890625 263 227.96875 262.933594 228.046875 262.871094 C 228.136719 262.796875 228.226562 262.730469 228.308594 262.648438 C 228.414062 262.542969 228.503906 262.453125 228.597656 262.351562 C 228.785156 262.148438 228.9375 261.953125 229.078125 261.722656 L 229.335938 261.296875 C 229.996094 260.125 230.53125 258.367188 230.941406 255.972656 C 230.992188 255.710938 231.039062 255.457031 231.074219 255.203125 L 231.339844 253.269531 C 231.394531 252.847656 231.441406 252.371094 231.492188 251.882812 C 231.664062 250.199219 231.808594 248.449219 231.925781 246.691406 L 232.148438 243.316406 C 232.300781 240.988281 232.460938 238.511719 232.648438 235.898438 C 232.644531 227.609375 235.457031 223.230469 238.175781 219 C 240.640625 215.164062 242.964844 211.542969 242.964844 204.902344 C 242.964844 196.460938 238.355469 188.730469 230.933594 184.734375 L 230.277344 184.378906 L 230.277344 162.507812 C 230.277344 144.828125 217.152344 129.839844 199.746094 127.640625 C 197.269531 127.332031 194.964844 127.117188 192.691406 126.988281 L 191.261719 126.910156 C 190.894531 126.886719 190.539062 126.875 190.1875 126.863281 L 189.5625 126.835938 C 185.007812 126.691406 180.378906 126.847656 175.820312 127.308594 C 157.898438 129.109375 144.386719 144.140625 144.386719 162.269531 L 144.386719 184.378906 L 143.730469 184.730469 C 136.304688 188.738281 131.695312 196.46875 131.695312 204.902344 C 131.695312 211.570312 134.035156 215.238281 136.511719 219.121094 C 139.21875 223.359375 142.015625 227.746094 142.015625 235.988281 C 142.171875 238.105469 142.308594 240.21875 142.4375 242.226562 C 143.339844 256.300781 144.046875 263.644531 149.039062 263.644531 C 149.140625 263.644531 149.238281 263.644531 149.328125 263.632812 L 149.554688 263.59375 C 149.667969 263.578125 149.769531 263.558594 149.875 263.523438 C 149.964844 263.496094 150.046875 263.472656 150.117188 263.433594 L 150.238281 263.378906 C 150.277344 263.359375 150.316406 263.34375 150.359375 263.324219 L 150.742188 263.070312 C 150.804688 263.03125 150.847656 262.996094 150.890625 262.949219 C 151.015625 262.835938 151.089844 262.773438 151.152344 262.703125 C 151.289062 262.5625 151.371094 262.472656 151.449219 262.371094 C 151.589844 262.199219 151.679688 262.078125 151.773438 261.945312 C 151.984375 261.644531 152.195312 261.277344 152.441406 260.785156 C 152.484375 260.703125 152.523438 260.613281 152.5625 260.519531 L 152.675781 260.269531 C 152.722656 260.152344 152.789062 260 152.84375 259.851562 L 153.03125 259.320312 C 153.183594 258.898438 153.324219 258.441406 153.453125 257.980469 C 153.539062 257.691406 153.609375 257.410156 153.679688 257.117188 C 153.75 256.851562 153.800781 256.617188 153.855469 256.390625 C 153.972656 255.863281 154.054688 255.417969 154.140625 254.960938 L 154.289062 254.125 C 154.691406 251.746094 154.957031 249.117188 155.171875 246.84375 C 155.234375 246.167969 155.296875 245.472656 155.34375 244.804688 L 155.535156 242.773438 C 155.53125 242.773438 155.53125 242.675781 155.550781 242.542969 L 155.632812 241.59375 C 155.722656 240.566406 155.824219 239.582031 155.921875 238.671875 C 156.0625 237.4375 156.308594 236.382812 156.675781 235.441406 C 157.21875 234.070312 157.949219 232.914062 158.792969 232.101562 C 158.957031 231.917969 159.195312 231.710938 159.453125 231.527344 C 159.585938 231.421875 159.730469 231.328125 159.863281 231.253906 C 160.40625 230.941406 160.882812 230.765625 161.375 230.699219 C 161.484375 230.683594 161.601562 230.671875 161.714844 230.664062 C 162.003906 230.632812 162.304688 230.648438 162.613281 230.710938 C 162.929688 230.753906 163.316406 230.886719 163.730469 231.101562 C 164.09375 231.296875 164.4375 231.558594 164.785156 231.90625 C 164.96875 232.070312 165.175781 232.308594 165.386719 232.585938 C 165.519531 232.742188 165.691406 232.992188 165.851562 233.273438 C 165.929688 233.390625 166.03125 233.558594 166.128906 233.75 L 166.347656 233.96875 L 166.351562 234.210938 C 166.53125 234.582031 166.699219 234.992188 166.863281 235.464844 C 167.0625 236.015625 167.25 236.644531 167.421875 237.332031 C 168.09375 240.046875 168.34375 243.214844 168.609375 246.570312 C 169.121094 253.0625 169.648438 259.773438 173.339844 262.574219 C 174.539062 263.488281 176.386719 263.542969 177.382812 262.695312 C 177.484375 262.609375 177.558594 262.542969 177.625 262.472656 L 178.664062 263.191406 L 177.730469 262.363281 L 177.820312 262.261719 C 177.898438 262.179688 177.96875 262.089844 178.042969 262 C 178.242188 261.761719 178.398438 261.527344 178.554688 261.289062 L 178.785156 260.890625 C 178.902344 260.660156 179.050781 260.363281 179.191406 260.042969 C 179.257812 259.886719 179.316406 259.757812 179.363281 259.617188 C 179.527344 259.199219 179.640625 258.84375 179.753906 258.476562 C 180.097656 257.367188 180.378906 256.082031 180.585938 254.65625 C 180.832031 253 181.007812 251.070312 181.136719 248.582031 C 181.242188 246.542969 181.28125 244.453125 181.308594 241.949219 C 181.355469 238.972656 182.300781 236.253906 183.90625 234.484375 C 184.957031 233.316406 186.113281 232.730469 187.316406 232.769531 C 188.59375 232.800781 189.816406 233.519531 190.949219 234.910156 C 191.125 235.132812 191.28125 235.339844 191.433594 235.566406 C 191.507812 235.667969 191.578125 235.785156 191.644531 235.90625 C 191.933594 236.363281 192.183594 236.855469 192.378906 237.335938 C 192.449219 237.484375 192.53125 237.691406 192.605469 237.898438 C 192.644531 238 192.679688 238.09375 192.703125 238.203125 C 192.765625 238.378906 192.855469 238.648438 192.914062 238.925781 C 192.960938 239.0625 193.023438 239.308594 193.066406 239.554688 C 193.085938 239.628906 193.105469 239.734375 193.121094 239.855469 C 193.160156 240.023438 193.195312 240.203125 193.214844 240.386719 C 193.226562 240.457031 193.242188 240.539062 193.25 240.640625 C 193.273438 240.875 193.300781 241.109375 193.3125 241.34375 C 193.335938 241.578125 193.351562 241.882812 193.351562 242.175781 C 193.464844 249.75 193.621094 260.148438 197.597656 262.933594 C 198.539062 263.597656 199.910156 263.542969 201.015625 262.796875 C 201.152344 262.703125 201.300781 262.597656 201.4375 262.496094 C 201.46875 262.46875 201.53125 262.410156 201.59375 262.347656 L 201.738281 262.21875 C 201.835938 262.125 201.929688 262.035156 202.027344 261.9375 L 202.03125 261.921875 L 202.238281 261.710938 C 202.351562 261.597656 202.449219 261.484375 202.550781 261.359375 C 202.71875 261.160156 202.851562 260.972656 202.988281 260.765625 L 203.269531 260.304688 C 203.671875 259.632812 204.027344 258.828125 204.34375 257.855469 C 204.433594 257.59375 204.511719 257.359375 204.578125 257.117188 C 204.875 256.078125 205.113281 254.964844 205.296875 253.792969 C 205.34375 253.496094 205.390625 253.214844 205.429688 252.921875 C 205.644531 251.359375 205.792969 249.757812 205.921875 248.253906 L 206.035156 246.804688 C 206.277344 243.691406 206.507812 240.753906 207.054688 238.164062 C 207.101562 237.898438 207.171875 237.609375 207.238281 237.335938 C 207.902344 234.671875 208.863281 232.773438 210.101562 231.695312 C 210.34375 231.46875 210.640625 231.261719 210.957031 231.105469 C 211.617188 230.722656 212.511719 230.566406 213.269531 230.695312 L 213.621094 230.339844 L 214.355469 231.023438 C 214.445312 231.0625 214.53125 231.109375 214.621094 231.15625 C 215.007812 231.359375 215.390625 231.636719 215.765625 232 L 215.859375 232.09375 L 216.042969 232.179688 L 216.1875 232.425781 C 216.21875 232.460938 216.246094 232.496094 216.277344 232.53125 L 216.710938 232.761719 L 216.726562 233.105469 C 216.925781 233.375 217.097656 233.652344 217.25 233.933594 C 217.382812 234.132812 217.523438 234.398438 217.640625 234.671875 Z M 225.632812 266.144531 C 218.640625 266.144531 217.644531 254.515625 216.769531 244.25 C 216.570312 241.921875 216.378906 239.722656 216.132812 237.867188 C 216 237.328125 215.835938 236.804688 215.648438 236.3125 L 215.589844 236.179688 C 215.535156 236.054688 215.484375 235.9375 215.425781 235.824219 L 215.351562 235.675781 C 215.285156 235.503906 215.195312 235.351562 215.101562 235.207031 C 214.945312 234.917969 214.800781 234.695312 214.644531 234.488281 L 214.640625 234.488281 L 214.546875 234.367188 C 214.542969 234.363281 214.539062 234.359375 214.539062 234.355469 L 214.019531 233.785156 C 213.863281 233.632812 213.703125 233.511719 213.535156 233.410156 L 212.855469 233.15625 C 212.710938 233.136719 212.371094 233.171875 212.121094 233.3125 C 211.964844 233.394531 211.863281 233.464844 211.769531 233.550781 C 211.160156 234.085938 210.328125 235.253906 209.660156 237.9375 C 209.605469 238.164062 209.550781 238.398438 209.503906 238.648438 C 208.980469 241.113281 208.757812 243.972656 208.523438 247 L 208.410156 248.457031 C 208.277344 250.003906 208.121094 251.648438 207.902344 253.242188 C 207.867188 253.554688 207.8125 253.871094 207.761719 254.191406 C 207.566406 255.453125 207.300781 256.667969 206.980469 257.792969 C 206.90625 258.0625 206.816406 258.339844 206.722656 258.613281 C 206.339844 259.789062 205.90625 260.757812 205.402344 261.601562 L 205.09375 262.101562 C 204.890625 262.417969 204.699219 262.679688 204.496094 262.929688 C 204.355469 263.097656 204.238281 263.230469 204.121094 263.359375 C 204.042969 263.46875 203.949219 263.570312 203.839844 263.65625 C 203.703125 263.792969 203.566406 263.929688 203.417969 264.066406 L 203.300781 264.171875 C 203.195312 264.273438 203.089844 264.371094 202.972656 264.464844 C 202.773438 264.617188 202.597656 264.738281 202.421875 264.863281 C 200.453125 266.191406 197.941406 266.234375 196.164062 264.980469 C 191.523438 261.726562 191.011719 252.734375 190.855469 242.191406 C 190.855469 241.964844 190.84375 241.746094 190.824219 241.535156 C 190.808594 241.277344 190.785156 241.074219 190.765625 240.875 L 190.734375 240.675781 C 190.726562 240.566406 190.699219 240.457031 190.675781 240.355469 L 190.652344 240.226562 C 190.644531 240.175781 190.640625 240.132812 190.628906 240.082031 C 190.585938 239.863281 190.546875 239.710938 190.5 239.558594 C 190.433594 239.257812 190.371094 239.082031 190.3125 238.902344 L 190.257812 238.753906 C 190.210938 238.613281 190.152344 238.472656 190.085938 238.328125 C 189.921875 237.921875 189.738281 237.566406 189.511719 237.203125 C 189.449219 237.097656 189.425781 237.050781 189.390625 237 C 189.257812 236.804688 189.136719 236.644531 189.007812 236.480469 C 188.570312 235.941406 187.898438 235.285156 187.253906 235.269531 C 186.664062 235.230469 186.128906 235.746094 185.753906 236.164062 C 184.550781 237.488281 183.839844 239.609375 183.804688 241.980469 C 183.777344 244.511719 183.734375 246.628906 183.628906 248.710938 C 183.496094 251.28125 183.3125 253.285156 183.054688 255.019531 C 182.828125 256.570312 182.519531 257.984375 182.140625 259.214844 C 182.003906 259.648438 181.867188 260.066406 181.707031 260.472656 C 181.65625 260.636719 181.5625 260.855469 181.46875 261.058594 C 181.320312 261.40625 181.144531 261.757812 180.96875 262.097656 L 180.675781 262.601562 C 180.429688 262.984375 180.210938 263.304688 179.964844 263.59375 C 179.867188 263.710938 179.753906 263.851562 179.628906 263.984375 C 179.574219 264.046875 179.515625 264.109375 179.460938 264.167969 C 179.320312 264.320312 179.144531 264.480469 178.96875 264.621094 C 177.109375 266.207031 173.960938 266.191406 171.828125 264.5625 C 167.25 261.085938 166.675781 253.804688 166.121094 246.765625 C 165.863281 243.519531 165.621094 240.449219 165 237.9375 C 164.847656 237.332031 164.683594 236.777344 164.511719 236.292969 C 164.363281 235.871094 164.21875 235.519531 164.066406 235.21875 L 164.050781 235.1875 C 164.039062 235.164062 164.023438 235.136719 164.011719 235.113281 L 163.863281 234.8125 C 163.820312 234.730469 163.773438 234.652344 163.722656 234.578125 C 163.601562 234.371094 163.523438 234.25 163.4375 234.144531 C 163.289062 233.949219 163.175781 233.816406 163.058594 233.707031 C 162.816406 233.464844 162.664062 233.367188 162.574219 233.316406 C 162.378906 233.21875 162.257812 233.183594 162.1875 233.175781 C 162.0625 233.152344 162.007812 233.144531 161.976562 233.152344 L 161.804688 233.164062 C 161.554688 233.195312 161.355469 233.277344 161.101562 233.421875 L 160.917969 233.554688 C 160.792969 233.636719 160.675781 233.738281 160.578125 233.847656 C 159.9375 234.46875 159.410156 235.320312 158.996094 236.359375 C 158.710938 237.089844 158.519531 237.9375 158.402344 238.949219 C 158.304688 239.839844 158.207031 240.804688 158.121094 241.796875 L 157.832031 245.035156 C 157.785156 245.671875 157.722656 246.378906 157.65625 247.074219 C 157.4375 249.398438 157.167969 252.082031 156.746094 254.558594 L 156.59375 255.40625 C 156.503906 255.902344 156.414062 256.378906 156.308594 256.84375 C 156.230469 257.203125 156.167969 257.476562 156.097656 257.738281 C 156.027344 258.03125 155.945312 258.351562 155.855469 258.671875 C 155.710938 259.175781 155.550781 259.691406 155.378906 260.167969 L 155.191406 260.695312 C 155.125 260.890625 155.039062 261.089844 154.953125 261.289062 L 154.847656 261.527344 C 154.792969 261.65625 154.734375 261.78125 154.675781 261.902344 C 154.371094 262.511719 154.097656 262.984375 153.8125 263.382812 C 153.6875 263.566406 153.554688 263.742188 153.40625 263.921875 C 153.296875 264.070312 153.128906 264.253906 152.964844 264.417969 C 152.882812 264.515625 152.730469 264.652344 152.597656 264.773438 C 152.492188 264.878906 152.316406 265.023438 152.121094 265.152344 L 151.59375 265.492188 C 151.46875 265.566406 151.34375 265.621094 151.222656 265.671875 C 151.101562 265.742188 150.882812 265.824219 150.660156 265.898438 C 150.472656 265.960938 150.289062 266.003906 150.089844 266.039062 L 150 266.082031 L 149.777344 266.089844 C 149.554688 266.128906 149.320312 266.144531 149.039062 266.144531 C 141.472656 266.144531 140.863281 256.695312 139.945312 242.390625 C 139.816406 240.386719 139.683594 238.28125 139.523438 236.078125 C 139.519531 228.476562 137.035156 224.585938 134.410156 220.464844 C 131.847656 216.453125 129.199219 212.300781 129.199219 204.902344 C 129.199219 195.796875 134.042969 187.433594 141.890625 182.898438 L 141.890625 162.269531 C 141.890625 142.851562 156.367188 126.75 175.570312 124.820312 C 180.238281 124.351562 184.976562 124.1875 189.660156 124.339844 L 190.28125 124.363281 C 190.65625 124.378906 191.03125 124.390625 191.410156 124.414062 L 192.832031 124.492188 C 195.164062 124.625 197.523438 124.84375 200.058594 125.160156 C 218.707031 127.515625 232.769531 143.574219 232.769531 162.507812 L 232.769531 182.898438 C 240.617188 187.425781 245.460938 195.792969 245.460938 204.902344 C 245.460938 212.28125 242.824219 216.382812 240.277344 220.351562 C 237.636719 224.460938 235.140625 228.34375 235.140625 235.988281 C 234.953125 238.6875 234.789062 241.15625 234.640625 243.480469 L 234.414062 246.859375 C 234.296875 248.644531 234.148438 250.421875 233.976562 252.136719 C 233.925781 252.648438 233.871094 253.148438 233.808594 253.632812 C 233.792969 253.769531 233.785156 253.84375 233.769531 253.921875 L 233.546875 255.542969 C 233.503906 255.835938 233.453125 256.132812 233.398438 256.417969 C 232.941406 259.078125 232.3125 261.101562 231.472656 262.585938 L 231.191406 263.054688 C 230.964844 263.417969 230.714844 263.746094 230.433594 264.042969 C 230.332031 264.15625 230.210938 264.277344 230.085938 264.402344 C 229.929688 264.5625 229.769531 264.691406 229.609375 264.824219 C 229.4375 264.960938 229.265625 265.09375 229.09375 265.191406 C 228.863281 265.359375 228.527344 265.535156 228.109375 265.695312 C 228.035156 265.738281 227.871094 265.800781 227.691406 265.84375 C 227.589844 265.878906 227.46875 265.917969 227.332031 265.945312 C 227.238281 265.976562 227.140625 265.996094 227.042969 266.011719 C 226.851562 266.050781 226.667969 266.078125 226.457031 266.089844 C 226.265625 266.128906 225.964844 266.144531 225.632812 266.144531"/><path fill="#100F0D" d="M 158.113281 132.253906 L 155.230469 121.191406 L 157.648438 120.558594 L 160.53125 131.621094 L 158.113281 132.253906"/><path fill="#42BEAD" d="M 160.882812 115.441406 C 160.882812 115.953125 160.808594 116.453125 160.671875 116.925781 C 160.195312 117.066406 159.695312 117.140625 159.183594 117.140625 C 156.140625 117.140625 153.667969 114.664062 153.667969 111.617188 C 153.667969 111.101562 153.742188 110.601562 153.882812 110.128906 C 154.355469 109.992188 154.855469 109.914062 155.367188 109.914062 C 158.410156 109.914062 160.882812 112.390625 160.882812 115.441406"/><path fill="#100F0D" d="M 216.363281 132.253906 L 213.945312 131.621094 L 216.828125 120.558594 L 219.246094 121.191406 L 216.363281 132.253906"/><path fill="#100F0D" d="M 213.0625 115.445312 C 213.046875 113.859375 213.671875 112.273438 214.761719 111.089844 C 215.839844 109.894531 217.429688 109.105469 219.109375 109.027344 C 220.785156 108.929688 222.542969 109.527344 223.828125 110.722656 C 225.117188 111.90625 225.875 113.671875 225.878906 115.445312 C 225.875 117.21875 225.113281 118.984375 223.824219 120.167969 C 222.539062 121.355469 220.785156 121.957031 219.109375 121.859375 C 217.429688 121.78125 215.84375 120.992188 214.765625 119.796875 C 213.671875 118.617188 213.046875 117.03125 213.0625 115.445312 Z M 214.113281 115.445312 C 214.121094 116.757812 214.6875 118.050781 215.648438 118.914062 C 216.609375 119.777344 217.894531 120.179688 219.109375 120.089844 C 221.601562 119.929688 223.433594 117.683594 223.382812 115.445312 C 223.429688 113.207031 221.597656 110.96875 219.109375 110.804688 C 217.898438 110.714844 216.613281 111.117188 215.648438 111.980469 C 214.6875 112.839844 214.121094 114.132812 214.113281 115.445312"/><path fill="#FFF" d="M 194.273438 186.101562 C 194.273438 187.644531 193.027344 188.890625 191.488281 188.890625 C 189.953125 188.890625 188.707031 187.644531 188.707031 186.101562 C 188.707031 184.5625 189.953125 183.316406 191.488281 183.316406 C 193.027344 183.316406 194.273438 184.5625 194.273438 186.101562"/><path fill="#FFF" d="M 189.308594 193.46875 C 189.308594 194.328125 188.613281 195.023438 187.753906 195.023438 C 186.894531 195.023438 186.199219 194.328125 186.199219 193.46875 C 186.199219 192.605469 186.894531 191.910156 187.753906 191.910156 C 188.613281 191.910156 189.308594 192.605469 189.308594 193.46875"/><path fill="#79D2CB" d="M 239.847656 205.761719 C 239.847656 215.082031 235.585938 222.636719 230.332031 222.636719 C 225.078125 222.636719 228.304688 214.199219 228.304688 204.878906 C 228.304688 195.558594 225.078125 188.890625 230.332031 188.890625 C 235.585938 188.890625 239.847656 196.445312 239.847656 205.761719"/><path fill="#79D2CB" d="M 140.128906 205.761719 C 140.128906 215.082031 144.390625 222.636719 149.644531 222.636719 C 154.898438 222.636719 151.671875 214.199219 151.671875 204.878906 C 151.671875 195.558594 154.898438 188.890625 149.644531 188.890625 C 144.390625 188.890625 140.128906 196.445312 140.128906 205.761719"/><path fill="#79D2CB" d="M 231.007812 244.636719 C 231.007812 251.050781 229.75 256.25 228.199219 256.25 C 226.648438 256.25 225.390625 251.050781 225.390625 244.636719 C 225.390625 238.222656 226.648438 233.023438 228.199219 233.023438 C 229.75 233.023438 231.007812 238.222656 231.007812 244.636719"/><path fill="#79D2CB" d="M 205.464844 244.636719 C 205.464844 251.050781 204.207031 256.25 202.65625 256.25 C 201.105469 256.25 199.847656 251.050781 199.847656 244.636719 C 199.847656 238.222656 201.105469 233.023438 202.65625 233.023438 C 204.207031 233.023438 205.464844 238.222656 205.464844 244.636719"/><path fill="#79D2CB" d="M 180.089844 244.636719 C 180.089844 251.050781 178.832031 256.25 177.28125 256.25 C 175.730469 256.25 174.472656 251.050781 174.472656 244.636719 C 174.472656 238.222656 175.730469 233.023438 177.28125 233.023438 C 178.832031 233.023438 180.089844 238.222656 180.089844 244.636719"/><path fill="#79D2CB" d="M 154.199219 244.636719 C 154.199219 251.050781 152.941406 256.25 151.390625 256.25 C 149.839844 256.25 148.582031 251.050781 148.582031 244.636719 C 148.582031 238.222656 149.839844 233.023438 151.390625 233.023438 C 152.941406 233.023438 154.199219 238.222656 154.199219 244.636719"/><path fill="#79D2CB" d="M 221.910156 148.789062 C 220.179688 151.367188 214.578125 150.628906 209.402344 147.136719 C 204.226562 143.648438 201.4375 138.730469 203.167969 136.152344 C 204.902344 133.578125 210.5 134.316406 215.675781 137.808594 C 220.851562 141.296875 223.640625 146.214844 221.910156 148.789062"/><path fill="#79D2CB" d="M 198.523438 137.128906 C 197.738281 138.296875 195.199219 137.960938 192.851562 136.378906 C 190.5 134.796875 189.234375 132.5625 190.019531 131.394531 C 190.804688 130.226562 193.347656 130.5625 195.695312 132.144531 C 198.042969 133.730469 199.308594 135.960938 198.523438 137.128906"/><path fill="#100F0D" d="M 160.355469 115.441406 C 160.351562 114.125 159.785156 112.835938 158.820312 111.976562 C 157.859375 111.117188 156.574219 110.714844 155.363281 110.804688 C 152.886719 110.996094 151.046875 113.210938 151.097656 115.449219 C 151.050781 117.6875 152.882812 119.929688 155.371094 120.089844 C 156.597656 120.191406 157.855469 119.769531 158.820312 118.90625 C 159.773438 118.050781 160.34375 116.738281 160.355469 115.441406 Z M 161.40625 115.441406 C 161.414062 117.035156 160.796875 118.597656 159.710938 119.789062 C 158.644531 120.980469 157.046875 121.796875 155.371094 121.863281 C 153.699219 121.957031 151.941406 121.359375 150.660156 120.171875 C 149.371094 118.988281 148.609375 117.226562 148.605469 115.453125 C 148.605469 113.683594 149.359375 111.910156 150.65625 110.734375 C 151.945312 109.539062 153.675781 108.945312 155.363281 109.027344 C 157.042969 109.105469 158.628906 109.894531 159.707031 111.089844 C 160.800781 112.269531 161.425781 113.855469 161.40625 115.441406"/></svg>