<svg xmlns="http://www.w3.org/2000/svg" width="375" viewBox="0 0 375 375" height="375" version="1.0"><defs><clipPath id="a"><path d="M 140 244 L 241 244 L 241 262.5 L 140 262.5 Z M 140 244"/></clipPath><clipPath id="b"><path d="M 233 177 L 254.34375 177 L 254.34375 226 L 233 226 Z M 233 177"/></clipPath></defs><path fill="#E09CFF" d="M 160.988281 144.984375 C 160.988281 144.984375 146.871094 158.949219 143.351562 152.527344 C 142.441406 150.113281 141.8125 147.742188 141.402344 145.4375 C 141.285156 144.75 141.183594 144.070312 141.105469 143.394531 C 140.988281 142.464844 140.90625 141.550781 140.863281 140.652344 C 140.828125 139.96875 140.8125 139.289062 140.8125 138.625 C 140.8125 137.800781 140.839844 136.996094 140.890625 136.199219 C 140.9375 135.523438 140.992188 134.855469 141.066406 134.207031 C 141.164062 133.339844 141.285156 132.492188 141.433594 131.667969 C 141.550781 130.996094 141.6875 130.339844 141.835938 129.699219 C 142.03125 128.832031 142.25 127.992188 142.488281 127.183594 C 142.683594 126.511719 142.894531 125.867188 143.109375 125.234375 L 143.109375 125.230469 C 143.417969 124.351562 143.742188 123.523438 144.078125 122.730469 C 144.367188 122.046875 144.667969 121.398438 144.96875 120.789062 C 147.835938 114.949219 150.957031 112.484375 149.890625 115.535156 C 149.441406 116.8125 149.566406 118.664062 150.066406 120.835938 C 150.207031 121.46875 150.382812 122.125 150.589844 122.804688 C 150.832031 123.621094 151.113281 124.460938 151.417969 125.324219 C 151.652344 125.96875 151.90625 126.625 152.164062 127.285156 C 152.476562 128.070312 152.808594 128.867188 153.15625 129.664062 C 153.4375 130.3125 153.726562 130.964844 154.019531 131.605469 C 154.363281 132.351562 154.707031 133.089844 155.050781 133.808594 C 155.351562 134.429688 155.648438 135.035156 155.941406 135.625 C 156.363281 136.46875 156.78125 137.285156 157.179688 138.058594 C 157.503906 138.679688 157.820312 139.277344 158.125 139.839844 C 158.605469 140.742188 159.050781 141.554688 159.441406 142.253906 C 159.832031 142.964844 160.167969 143.5625 160.425781 144.007812 C 160.785156 144.632812 160.988281 144.984375 160.988281 144.984375"/><path fill="#E09CFF" d="M 233.523438 138.625 C 233.523438 139.289062 233.511719 139.96875 233.472656 140.652344 C 233.425781 141.550781 233.351562 142.464844 233.234375 143.394531 C 233.15625 144.070312 233.054688 144.75 232.933594 145.4375 C 232.527344 147.742188 231.890625 150.113281 230.988281 152.527344 C 227.472656 158.949219 213.355469 144.984375 213.355469 144.984375 C 213.355469 144.984375 213.558594 144.632812 213.917969 144.007812 C 214.175781 143.5625 214.511719 142.964844 214.90625 142.253906 C 215.296875 141.554688 215.738281 140.742188 216.21875 139.839844 C 216.519531 139.277344 216.839844 138.679688 217.160156 138.058594 C 217.5625 137.285156 217.980469 136.46875 218.394531 135.625 C 218.695312 135.035156 218.992188 134.425781 219.292969 133.804688 C 219.636719 133.082031 219.980469 132.347656 220.320312 131.605469 C 220.617188 130.964844 220.902344 130.316406 221.183594 129.671875 C 221.53125 128.875 221.867188 128.070312 222.175781 127.285156 C 222.441406 126.625 222.691406 125.96875 222.925781 125.324219 C 223.230469 124.460938 223.511719 123.621094 223.753906 122.804688 C 223.960938 122.125 224.136719 121.46875 224.277344 120.835938 C 224.773438 118.664062 224.902344 116.8125 224.453125 115.535156 C 223.386719 112.484375 226.503906 114.949219 229.371094 120.789062 C 229.671875 121.398438 229.96875 122.046875 230.261719 122.730469 C 230.59375 123.519531 230.921875 124.355469 231.230469 125.234375 C 231.445312 125.867188 231.652344 126.511719 231.851562 127.183594 C 232.085938 127.992188 232.3125 128.832031 232.507812 129.699219 C 232.652344 130.339844 232.785156 130.996094 232.902344 131.667969 C 233.054688 132.496094 233.175781 133.339844 233.277344 134.207031 C 233.347656 134.855469 233.402344 135.523438 233.449219 136.199219 C 233.496094 136.996094 233.523438 137.800781 233.523438 138.625"/><path fill="#FFF" d="M 230.261719 122.730469 L 229.910156 122.753906 C 228.660156 122.847656 227.472656 122.894531 226.347656 122.894531 C 225.515625 122.894531 224.71875 122.867188 223.96875 122.820312 L 223.753906 122.804688 C 223.960938 122.125 224.136719 121.46875 224.277344 120.835938 C 225.804688 120.925781 227.523438 120.910156 229.371094 120.789062 C 229.671875 121.398438 229.96875 122.046875 230.261719 122.730469"/><path fill="#FFF" d="M 231.851562 127.183594 L 231.652344 127.203125 C 229.753906 127.398438 227.984375 127.488281 226.347656 127.488281 C 224.964844 127.488281 223.683594 127.425781 222.503906 127.285156 L 222.175781 127.285156 C 222.441406 126.625 222.691406 125.96875 222.925781 125.324219 C 225.261719 125.574219 228.054688 125.550781 231.230469 125.234375 C 231.445312 125.867188 231.652344 126.511719 231.851562 127.183594"/><path fill="#FFF" d="M 232.902344 131.667969 L 232.839844 131.675781 C 230.460938 131.957031 228.304688 132.097656 226.351562 132.097656 C 224.238281 132.097656 222.359375 131.933594 220.675781 131.605469 L 220.320312 131.605469 C 220.617188 130.964844 220.902344 130.316406 221.183594 129.671875 C 224.175781 130.230469 227.882812 130.242188 232.507812 129.699219 C 232.652344 130.339844 232.785156 130.996094 232.902344 131.667969"/><path fill="#FFF" d="M 233.449219 136.199219 C 230.628906 136.558594 228.277344 136.6875 226.34375 136.6875 C 221.820312 136.6875 219.503906 135.96875 218.550781 135.671875 L 218.394531 135.625 C 218.695312 135.035156 218.992188 134.425781 219.292969 133.804688 C 224.378906 135.34375 231.042969 134.488281 233.25 134.210938 L 233.277344 134.207031 C 233.347656 134.855469 233.402344 135.523438 233.449219 136.199219"/><path fill="#FFF" d="M 233.523438 138.625 C 233.523438 139.289062 233.511719 139.96875 233.472656 140.652344 C 230.214844 141.109375 227.527344 141.289062 225.292969 141.289062 C 220.765625 141.289062 218.101562 140.554688 216.339844 139.886719 L 216.21875 139.839844 C 216.519531 139.277344 216.839844 138.679688 217.160156 138.058594 C 218.8125 138.675781 223 140.128906 233.371094 138.648438 L 233.523438 138.625"/><path fill="#FFF" d="M 233.234375 143.394531 L 232.992188 143.421875 C 227.796875 143.992188 220.289062 144.484375 214.90625 142.253906 C 214.511719 142.964844 214.175781 143.5625 213.917969 144.007812 L 214.027344 144.054688 C 216.050781 144.90625 219.25 145.890625 225.207031 145.890625 C 227.382812 145.890625 229.933594 145.757812 232.933594 145.4375 L 233.234375 143.394531"/><path fill="#FFF" d="M 150.589844 122.804688 L 150.375 122.820312 C 149.617188 122.867188 148.824219 122.894531 147.996094 122.894531 C 146.871094 122.894531 145.679688 122.847656 144.433594 122.753906 L 144.078125 122.730469 C 144.367188 122.046875 144.667969 121.398438 144.96875 120.789062 C 146.820312 120.910156 148.535156 120.925781 150.066406 120.835938 C 150.207031 121.46875 150.382812 122.125 150.589844 122.804688"/><path fill="#FFF" d="M 152.164062 127.285156 L 151.832031 127.285156 C 150.660156 127.425781 149.375 127.488281 147.996094 127.488281 C 146.359375 127.488281 144.585938 127.398438 142.683594 127.203125 L 142.488281 127.183594 C 142.683594 126.511719 142.894531 125.867188 143.109375 125.234375 C 146.289062 125.550781 149.085938 125.574219 151.417969 125.324219 C 151.652344 125.96875 151.90625 126.625 152.164062 127.285156"/><path fill="#FFF" d="M 154.019531 131.605469 L 153.664062 131.605469 C 151.984375 131.933594 150.105469 132.097656 147.992188 132.097656 C 146.035156 132.097656 143.882812 131.957031 141.503906 131.675781 L 141.433594 131.667969 C 141.550781 130.996094 141.6875 130.339844 141.835938 129.699219 C 146.46875 130.242188 150.167969 130.230469 153.15625 129.664062 C 153.4375 130.3125 153.726562 130.964844 154.019531 131.605469"/><path fill="#FFF" d="M 155.941406 135.625 L 155.792969 135.671875 C 154.835938 135.96875 152.519531 136.6875 148 136.6875 C 146.054688 136.6875 143.714844 136.558594 140.890625 136.199219 C 140.9375 135.523438 140.992188 134.855469 141.066406 134.207031 L 141.09375 134.210938 C 149.769531 135.3125 153.652344 134.242188 155.050781 133.808594 C 155.351562 134.429688 155.648438 135.035156 155.941406 135.625"/><path fill="#FFF" d="M 158.125 139.839844 L 158.003906 139.886719 C 156.238281 140.554688 153.574219 141.289062 149.050781 141.289062 C 146.816406 141.289062 144.128906 141.109375 140.863281 140.652344 C 140.828125 139.96875 140.8125 139.289062 140.8125 138.625 L 140.96875 138.648438 C 151.339844 140.128906 155.53125 138.675781 157.179688 138.058594 C 157.503906 138.679688 157.820312 139.277344 158.125 139.839844"/><path fill="#FFF" d="M 160.425781 144.007812 L 160.316406 144.054688 C 158.292969 144.90625 155.089844 145.890625 149.132812 145.890625 C 146.953125 145.890625 144.402344 145.757812 141.402344 145.4375 L 141.105469 143.394531 L 141.351562 143.421875 C 152.125 144.601562 156.835938 143.335938 159.441406 142.253906 C 159.832031 142.964844 160.167969 143.5625 160.425781 144.007812"/><g clip-path="url(#a)"><path fill="#ECECEC" d="M 190.4375 262.472656 C 163 262.472656 140.757812 258.378906 140.757812 253.332031 C 140.757812 248.28125 163 244.1875 190.4375 244.1875 C 217.871094 244.1875 240.117188 248.28125 240.117188 253.332031 C 240.117188 258.378906 217.871094 262.472656 190.4375 262.472656"/></g><path fill="#9482FA" d="M 121.691406 217.164062 L 127.21875 212.230469 C 127.394531 212.074219 127.597656 211.960938 127.808594 211.894531 C 127.910156 211.863281 127.984375 211.769531 127.988281 211.660156 C 128.132812 205.8125 128.726562 200.488281 129.757812 195.835938 C 130.628906 191.902344 131.8125 188.417969 133.28125 185.480469 C 135.585938 180.863281 137.90625 178.910156 138.714844 178.324219 C 138.832031 178.242188 140.445312 177.230469 140.519531 177.351562 L 142.058594 183.03125 L 142.113281 182.996094 C 142.09375 183.007812 140.152344 184.417969 138.160156 188.660156 C 134.757812 195.910156 133.882812 205.558594 133.75 212.375 L 133.746094 212.433594 L 139.480469 217.121094 C 140.175781 217.691406 140.277344 218.71875 139.707031 219.414062 C 139.382812 219.808594 138.175781 220.261719 137.40625 219.644531 L 134.945312 217.628906 C 134.753906 217.472656 134.476562 217.65625 134.546875 217.894531 L 135.988281 222.773438 C 136.242188 223.636719 135.75 224.542969 134.882812 224.796875 C 134.730469 224.84375 133.316406 225.03125 132.855469 223.695312 L 131.558594 219.308594 C 131.488281 219.074219 131.152344 219.070312 131.078125 219.304688 L 129.863281 223.140625 C 129.550781 224.277344 127.980469 224.253906 127.816406 224.203125 C 126.953125 223.929688 126.476562 223.015625 126.75 222.15625 L 128.738281 215.875 C 128.816406 215.628906 128.523438 215.441406 128.332031 215.613281 L 123.890625 219.578125 L 123.839844 219.613281 C 122.832031 220.175781 121.882812 219.828125 121.5625 219.46875 C 120.960938 218.796875 121.019531 217.765625 121.691406 217.164062"/><g clip-path="url(#b)"><path fill="#9482FA" d="M 253.480469 217.417969 L 247.949219 212.480469 C 247.796875 212.34375 247.625 212.242188 247.441406 212.171875 C 247.289062 212.117188 247.183594 211.976562 247.179688 211.8125 C 247.027344 206 246.433594 200.714844 245.410156 196.085938 C 244.539062 192.152344 243.355469 188.667969 241.886719 185.730469 C 239.699219 181.34375 235.917969 178.125 235.007812 177.433594 C 234.824219 177.296875 234.296875 177.660156 234.171875 177.855469 L 233.109375 183.28125 L 233.054688 183.246094 C 233.074219 183.257812 235.015625 184.671875 237.007812 188.910156 C 240.414062 196.160156 241.285156 205.808594 241.417969 212.625 L 241.417969 212.683594 L 235.691406 217.371094 C 234.992188 217.941406 234.890625 218.96875 235.464844 219.667969 C 235.78125 220.054688 236.667969 220.507812 237.730469 219.910156 L 237.789062 219.871094 L 239.855469 218.179688 C 240.160156 217.933594 240.597656 218.222656 240.488281 218.597656 L 239.183594 223.007812 L 239.175781 223.039062 C 238.789062 224.78125 240.59375 225.117188 240.746094 225.117188 C 241.453125 225.117188 242.101562 224.65625 242.3125 223.945312 L 243.476562 220.015625 C 243.585938 219.644531 244.117188 219.636719 244.234375 220.007812 L 245.304688 223.390625 C 245.523438 224.085938 246.167969 224.53125 246.859375 224.53125 C 247.023438 224.53125 248.816406 224.28125 248.425781 222.429688 L 248.410156 222.386719 L 246.589844 216.628906 C 246.46875 216.246094 246.929688 215.945312 247.230469 216.214844 L 251.300781 219.847656 C 252.097656 220.515625 253.285156 220.082031 253.605469 219.71875 C 254.207031 219.046875 254.152344 218.015625 253.480469 217.417969"/></g><path fill="#AC9DFA" d="M 235.007812 164.273438 L 235.007812 211.425781 C 235.007812 222.039062 226.316406 230.71875 215.6875 230.71875 L 159.507812 230.71875 C 158.019531 230.71875 156.570312 230.550781 155.179688 230.230469 L 155.179688 230.226562 C 146.621094 228.253906 140.1875 220.554688 140.1875 211.425781 L 140.1875 164.273438 C 140.1875 155.429688 146.222656 147.929688 154.382812 145.671875 C 156.015625 145.222656 157.734375 144.980469 159.507812 144.980469 L 215.6875 144.980469 C 226.316406 144.980469 235.007812 153.664062 235.007812 164.273438"/><path fill="#F795FC" d="M 159.453125 191.148438 C 159.453125 193.503906 157.539062 195.414062 155.179688 195.414062 C 152.820312 195.414062 150.90625 193.503906 150.90625 191.148438 C 150.90625 188.792969 152.820312 186.882812 155.179688 186.882812 C 157.539062 186.882812 159.453125 188.792969 159.453125 191.148438"/><path fill="#F795FC" d="M 227.46875 190.152344 C 227.46875 192.507812 225.558594 194.417969 223.199219 194.417969 C 220.839844 194.417969 218.925781 192.507812 218.925781 190.152344 C 218.925781 187.796875 220.839844 185.886719 223.199219 185.886719 C 225.558594 185.886719 227.46875 187.796875 227.46875 190.152344"/><path fill="#FFF" d="M 162.292969 201.527344 L 165.820312 200.539062 L 169.304688 199.699219 L 167.800781 206.101562 L 166.554688 211.269531 L 164.425781 206.398438 L 162.292969 201.527344"/><path fill="#FFF" d="M 213.402344 200.167969 L 209.875 199.15625 L 206.472656 198.035156 L 211.253906 193.207031 L 215.140625 189.320312 L 214.273438 194.746094 L 213.402344 200.167969"/><path d="M 161.765625 203.277344 C 162.082031 203.160156 162.589844 202.992188 163.242188 202.800781 C 165.535156 202.109375 169.636719 201.054688 174.699219 200.179688 C 179.761719 199.304688 185.792969 198.605469 191.953125 198.605469 C 195.960938 198.605469 200.019531 198.902344 203.90625 199.625 C 207.792969 200.34375 211.5 201.496094 214.8125 203.183594 C 215.730469 203.652344 216.851562 203.289062 217.320312 202.375 C 217.789062 201.457031 217.425781 200.335938 216.507812 199.867188 C 212.800781 197.980469 208.753906 196.738281 204.589844 195.960938 C 200.425781 195.1875 196.140625 194.882812 191.953125 194.882812 C 184.589844 194.882812 177.515625 195.828125 171.886719 196.90625 C 169.074219 197.445312 166.625 198.019531 164.683594 198.527344 C 163.710938 198.78125 162.871094 199.019531 162.167969 199.230469 C 161.464844 199.441406 160.90625 199.625 160.488281 199.777344 C 159.519531 200.128906 159.023438 201.195312 159.375 202.164062 C 159.726562 203.128906 160.796875 203.628906 161.765625 203.277344"/><path fill="#E09CFF" d="M 176.375 246.277344 L 167.746094 246.277344 L 167.746094 230.71875 L 176.375 230.71875 L 176.375 246.277344"/><path fill="#E09CFF" d="M 203.429688 246.277344 L 194.800781 246.277344 L 194.800781 230.71875 L 203.429688 230.71875 L 203.429688 246.277344"/><path fill="#9482FA" d="M 215.78125 249.671875 C 215.742188 245.777344 213.058594 243.519531 209.289062 243.519531 C 206.65625 243.519531 204.367188 244.863281 203.230469 246.835938 L 193.460938 246.835938 L 193.460938 255.898438 L 210.027344 255.898438 C 211.703125 255.898438 213.277344 255.09375 214.257812 253.738281 C 215.175781 252.464844 215.792969 250.871094 215.78125 249.671875"/><path fill="#9482FA" d="M 188.722656 249.671875 C 188.6875 245.777344 186.003906 243.519531 182.234375 243.519531 C 179.597656 243.519531 177.3125 244.863281 176.175781 246.835938 L 166.40625 246.835938 L 166.40625 255.898438 L 182.96875 255.898438 C 184.644531 255.898438 186.222656 255.09375 187.203125 253.738281 C 188.121094 252.464844 188.738281 250.871094 188.722656 249.671875"/><path fill="#FFF" d="M 176.792969 236.144531 L 167.328125 236.144531 L 167.328125 234.746094 L 176.792969 234.746094 L 176.792969 236.144531"/><path fill="#FFF" d="M 176.792969 233.382812 L 167.328125 233.382812 L 167.328125 231.984375 L 176.792969 231.984375 L 176.792969 233.382812"/><path fill="#FFF" d="M 176.792969 238.988281 L 167.328125 238.988281 L 167.328125 237.589844 L 176.792969 237.589844 L 176.792969 238.988281"/><path fill="#FFF" d="M 176.792969 241.832031 L 167.328125 241.832031 L 167.328125 240.433594 L 176.792969 240.433594 L 176.792969 241.832031"/><path fill="#FFF" d="M 176.792969 244.675781 L 167.328125 244.675781 L 167.328125 243.277344 L 176.792969 243.277344 L 176.792969 244.675781"/><path fill="#FFF" d="M 203.847656 236.3125 L 194.382812 236.3125 L 194.382812 234.914062 L 203.847656 234.914062 L 203.847656 236.3125"/><path fill="#FFF" d="M 203.847656 233.550781 L 194.382812 233.550781 L 194.382812 232.152344 L 203.847656 232.152344 L 203.847656 233.550781"/><path fill="#FFF" d="M 203.847656 239.15625 L 194.382812 239.15625 L 194.382812 237.757812 L 203.847656 237.757812 L 203.847656 239.15625"/><path fill="#FFF" d="M 203.847656 242 L 194.382812 242 L 194.382812 240.601562 L 203.847656 240.601562 L 203.847656 242"/><path fill="#FFF" d="M 203.847656 244.84375 L 194.382812 244.84375 L 194.382812 243.445312 L 203.847656 243.445312 L 203.847656 244.84375"/><path fill="#FFF" d="M 180.140625 176.476562 C 180.140625 181.070312 176.410156 184.796875 171.808594 184.796875 C 167.203125 184.796875 163.472656 181.070312 163.472656 176.476562 C 163.472656 171.878906 167.203125 168.152344 171.808594 168.152344 C 176.410156 168.152344 180.140625 171.878906 180.140625 176.476562"/><path fill="#FFF" d="M 223.199219 171.539062 C 223.199219 177.246094 218.566406 181.871094 212.851562 181.871094 C 207.140625 181.871094 202.507812 177.246094 202.507812 171.539062 C 202.507812 165.832031 207.140625 161.210938 212.851562 161.210938 C 218.566406 161.210938 223.199219 165.832031 223.199219 171.539062"/><path d="M 171.878906 180.574219 C 169.644531 180.574219 167.824219 178.761719 167.824219 176.527344 C 167.824219 174.292969 169.644531 172.476562 171.878906 172.476562 C 174.117188 172.476562 175.933594 174.292969 175.933594 176.527344 C 175.933594 178.761719 174.117188 180.574219 171.878906 180.574219"/><path fill="#FFF" d="M 171.878906 172.425781 C 169.613281 172.425781 167.773438 174.261719 167.773438 176.527344 C 167.773438 178.789062 169.613281 180.625 171.878906 180.625 C 174.148438 180.625 175.984375 178.789062 175.984375 176.527344 C 175.984375 174.261719 174.148438 172.425781 171.878906 172.425781 Z M 171.878906 172.527344 C 174.085938 172.527344 175.886719 174.320312 175.886719 176.527344 C 175.886719 178.730469 174.085938 180.527344 171.878906 180.527344 C 169.671875 180.527344 167.875 178.730469 167.875 176.527344 C 167.875 174.320312 169.671875 172.527344 171.878906 172.527344"/><path d="M 212.855469 177.808594 C 210.132812 177.808594 207.921875 175.597656 207.921875 172.878906 C 207.921875 170.164062 210.132812 167.953125 212.855469 167.953125 C 215.574219 167.953125 217.789062 170.164062 217.789062 172.878906 C 217.789062 175.597656 215.574219 177.808594 212.855469 177.808594"/><path fill="#FFF" d="M 212.855469 167.902344 C 210.101562 167.902344 207.871094 170.132812 207.871094 172.878906 C 207.871094 175.628906 210.101562 177.859375 212.855469 177.859375 C 215.609375 177.859375 217.839844 175.628906 217.839844 172.878906 C 217.839844 170.132812 215.609375 167.902344 212.855469 167.902344 Z M 212.855469 168.003906 C 215.546875 168.003906 217.738281 170.191406 217.738281 172.878906 C 217.738281 175.570312 215.546875 177.757812 212.855469 177.757812 C 210.160156 177.757812 207.972656 175.570312 207.972656 172.878906 C 207.972656 170.191406 210.160156 168.003906 212.855469 168.003906"/><path fill="#F8D428" d="M 202.757812 171.523438 C 202.757812 165.957031 207.277344 161.445312 212.851562 161.445312 C 218.429688 161.445312 222.945312 165.957031 222.945312 171.523438"/><path fill="#F8D428" d="M 163.808594 176.273438 C 163.808594 171.953125 167.390625 168.453125 171.808594 168.453125 C 176.226562 168.453125 179.808594 171.953125 179.808594 176.273438"/></svg>