<?xml version="1.0" encoding="utf-8"?>
<!-- Generator: Adobe Illustrator 24.0.3, SVG Export Plug-In . SVG Version: 6.00 Build 0)  -->
<svg version="1.1" id="Layer_1" xmlns="http://www.w3.org/2000/svg" xmlns:xlink="http://www.w3.org/1999/xlink" x="0px" y="0px"
	 viewBox="0 0 125 125" style="enable-background:new 0 0 125 125;" xml:space="preserve">
<style type="text/css">
	.st0{fill:#FCE7D4;stroke:#020202;stroke-width:0.75;stroke-miterlimit:10;}
	.st1{fill:#FCFAF7;stroke:#000000;stroke-width:0.75;stroke-miterlimit:10;}
	.st2{fill:none;stroke:#000000;stroke-width:0.75;stroke-miterlimit:10;}
	.st3{fill:#F99C16;stroke:#000000;stroke-width:0.75;stroke-miterlimit:10;}
	.st4{fill:#286308;stroke:#020202;stroke-width:0.75;stroke-miterlimit:10;}
	.st5{fill:none;stroke:#020202;stroke-width:0.75;stroke-miterlimit:10;}
	.st6{fill:#008E19;stroke:#020202;stroke-width:0.75;stroke-miterlimit:10;}
	.st7{fill:#F44711;stroke:#020202;stroke-width:0.75;stroke-miterlimit:10;}
	.st8{fill:#FFFFFF;stroke:#000000;stroke-width:0.75;stroke-miterlimit:10;}
</style>
<title>3</title>
<g id="person_4">
	<g id="head-2">
		<path id="neck" class="st0" d="M79,86.4c0,0-3.3-1.8-3.3-2.4s-0.4-8.2-0.4-8.2H50.9c0,0,0.3,7.6-0.3,8.2c-1.6,1.8-5.1,3.2-6.1,5.6
			c-1.6,3.9,3.7,8.4,6.2,9.5c5.5,2.3,13.1,2.3,19,0.9c4.4-1,8.3-3.5,11.3-6.9C82.7,90.9,83.1,88.6,79,86.4z"/>
		<path id="face-2" class="st0" d="M79.7,59.8c0,0-0.5,8.7-0.7,9.4c-0.3,1.2-0.8,2.3-1.4,3.4c-1.6,2.5-3.3,4.8-5.2,7.1
			c-0.9,1-2.9,3.9-4,4.2c-1.8,0.5-3.7,0.8-5.5,0.9c-1.2-0.1-5.4-0.6-6.4-1.2s-4.1-4.4-6.8-7.9s-4-6.4-4.2-7.3s-0.2-4.1-0.2-4.1
			l-0.5,0.1c0,0-0.1,0.9-0.8,1c-1.1,0.2-1.8-1.3-2.1-2.1c-0.5-1.5-0.3-3-0.8-4.5s-2.9-6.5-1-7.8c1.7-1.1,3.1,0.5,3.7,2
			c0.2,0.5,0.3,1,0.4,1.5l0.3-0.1c0,0,0-2.8,0-4.8c0.1-3.7-1-7.8,0.3-11.3c4.5-11.7,8.7-12.1,19.2-12.4c9.3-0.3,14.6,7.3,15.3,10.7
			c0.6,2.8,0.9,5.6,0.8,8.4l-0.5,9l0.3,0.1c0.3-1.1,0.8-2.1,1.2-3.1c0.3-0.8,1.3-1.2,2.1-0.9c0.8,0.3,1.2,1.3,0.9,2.1
			c-0.3,1-0.8,3.9-1,5.1c-0.1,0.9-0.1,1.7,0,2.6c0,0.8-0.3,3.5-1.5,3.5C81.1,63.3,79.3,63.4,79.7,59.8z"/>
	</g>
	<g id="sweater-3">
		<path id="Sweater-4" class="st1" d="M119.9,125c0,0-2.9-11.7-5.1-16c-2.7-4.9-6.8-8.8-11.9-11.1C97.4,95.4,79,83.7,79,84.3
			c0.2,4-1.2,7.9-3.9,10.9c-3.9,4.1-16.8,5.1-22,2.6c-4.8-2.3-6.1-8.4-6.5-9.4S46,85.8,46,85.8S24.7,97,22.4,98.2s-5.8,2.6-8,5.4
			s-6.5,13.7-7.2,16.9c-0.3,1.6-0.8,3.1-1.6,4.5"/>
		<path id="Sweater-5" class="st1" d="M79.1,84.3c0,0.1,0,0.1,0,0.2c-0.1,4.3-1.4,8.9-4.9,11.4c-1.9,1.3-4.2,2.2-6.5,2.5
			c-3.4,0.7-6.9,0.9-10.3,0.5c-2.9-0.4-5.5-1.8-7.4-3.9c-2.3-2.6-3.2-5.9-4-9.2c-0.1-0.3-4.4,1.3-4.5,2.3c-0.1,0.8,0.8,2.2,1.1,2.9
			c1.2,3.1,2.5,6.4,4.8,8.9c2.6,2.5,5.9,4.1,9.5,4.5c3.1,0.4,6.2,0.4,9.3,0c2.8-0.3,5.6-0.6,8.1-1.9c2.2-1.3,4.1-2.9,5.7-4.8
			c2.1-2.4,2.5-5.7,3.2-8.8c0.2-0.5,0.2-1.1,0.1-1.7c-0.2-0.6-0.5-1.1-0.9-1.4c-0.8-0.8-1.8-1.3-2.9-1.6c-0.2-0.1-0.4,0-0.5,0.1
			C79.1,84.2,79.1,84.3,79.1,84.3z"/>
		<line class="st2" x1="47" y1="89.5" x2="43" y2="91.8"/>
		<line class="st2" x1="48.8" y1="94.3" x2="45.5" y2="97.3"/>
		<line class="st2" x1="52.9" y1="97.4" x2="50.6" y2="102.3"/>
		<line class="st2" x1="59.9" y1="99.5" x2="59.5" y2="104.6"/>
		<line class="st2" x1="66.1" y1="98.8" x2="67.5" y2="104.3"/>
		<line class="st2" x1="73.2" y1="96.8" x2="76.1" y2="101.4"/>
		<line class="st2" x1="77.1" y1="92.5" x2="81.3" y2="95.8"/>
		<line class="st2" x1="79.2" y1="87.5" x2="83.2" y2="89.5"/>
		<g id="Layer_37">
			<path class="st2" d="M69.1,103.7c0,0,2.4,7.1,1.3,9.5c-1,1.9-2.2,3.8-3.6,5.4"/>
			<path class="st2" d="M55.8,104.3c0,0-3.1,7-1.1,10s7.8,7.3,8,10.7"/>
			<path class="st2" d="M63.2,104.6c0,0-1.6,4.4-0.2,7.9c0.9,2.3,2.3,4.4,4,6.2c1.9,2.1,3.3,2.9,3.8,6.3"/>
			<path class="st2" d="M62.7,106.4c0.5,1.2,0.9,2.5,1.1,3.8c0.1,1-0.1,2-0.5,2.9"/>
			<path class="st2" d="M59.2,119.6c-1.9,1.2-3.2,3.2-3.6,5.4"/>
		</g>
	</g>
	<g id="hair-2">
		<path class="st3" d="M49.5,26.6c0,0,1.6-6.7,5.4-8.8c4.7-2.6,8.9-1,13.1,1.1c3.4,1.7,6.5,3.9,9.2,6.5c3.1,2.8,6.8,7.5,7,8.3
			c0.2,0.9,0.2,1.8,0,2.7c-0.1,0.5-1.1,1.3-1.1,1.3s0.7,5.5-0.7,7.8c-1.8,3.1-1.9,7.6-2.2,8.8s-0.7,0.7-0.7,0.6s0.1-9.5-0.3-10.6
			S78,42,78.4,41.1c0.3-1.1,0.5-2.2,0.6-3.3c0,0-4.2-3.1-5.1-3.8s-4.2-2.4-5.7-2.5c-1.7-0.1-3.4,0.1-5,0.6c-1.8,0.6-2.2,1.7-2.7,1.6
			s-2.9-2-6.2-2s-5,0-6.3,1.3s-2.6,2.8-2.4,5.3s0.1,3.1,0,3.6c-0.4,0.9-0.7,1.8-0.8,2.7c0,1,0.1,10.2,0,10.5s-0.5-0.1-0.7-1
			s-0.7-5.3-0.8-6.2s-2.4-6-2.6-8.4s-0.8-5.4,0.4-8.4s2.3-4.5,3.2-5.2S48.6,26,49.5,26.6z"/>
	</g>
	<path id="mustache" class="st3" d="M63.3,65.6c0.1,0,0.3-0.1,0.4-0.1c0.5-0.4,1.1-0.6,1.8-0.6c0.4,0.1,0.8,0.3,1.2,0.6
		c1.1,0.9,5.1,4.8,6.7,2.9c0.6-0.8,0.6-3.3,0.8-4.2c0.1-0.3,0.2-1.1,0.5-0.9s0.2,0.8,0.2,1c0,0.5,0,2.3,0.1,2.8c0.1,1,0,1.9-0.4,2.8
		c-1.8,3.5-6.4,2.2-8.9,0.8c-1.1-0.8-2-1.8-2.5-3c-1,1.2-2.2,2.1-3.5,2.7c-1.4,0.7-2.9,1.1-4.4,1.2c-1.1,0.2-2.3-0.2-3.1-1
		c-0.8-1-0.6-2.7-0.5-3.9c0.1-1.6,0.4-3.2,0.8-4.7c0.2-0.4,0.3-0.1,0.3,0.2c0.2,2.2-0.9,7.1,2.4,6.1c1.2-0.3,2.2-1,3-1.9
		c0.8-0.8,1.9-1.8,3.1-1.8c0.7,0.1,1.3,0.4,1.8,0.8C63,65.6,63.1,65.6,63.3,65.6z"/>
	<g id="nose-3">
		<path class="st0" d="M64.8,53.9c1.5,3.5,3.2,5.4,4,9.2c0.2,0.8,0.1,3.7-0.3,4.4c-0.7,1.3-2.3,0.9-3.4,0.6
			c-0.8-0.3-1.3-1.1-2.4-1.6c-0.1,0-1,0.5-1.2,0.6c-0.4,0.1-0.8,0-1.1-0.3c-0.9-0.7-0.4-2,0.3-2.7"/>
	</g>
	<g id="hat">
		<path class="st4" d="M43,28.8c0,0,0.8-6.2,3.6-8.8s3.9-4.6,6.8-5.8c2.5-1.1,5.2-1.7,8-1.8c2.2,0,7.2,1.4,11,3
			c3.3,1.3,5.9,3.9,7.3,7.1c0.9,2.4,1.6,4.8,2,7.3C82,31.2,43.2,30.8,43,28.8z"/>
		<path class="st4" d="M41.4,44.8c0,0-1.8-3.8,0.7-5.6s8.4-6,17-5.4s10.2-1.2,16.3,1.7s8.5,6.7,8.3,7.5s1.8-4.6,1.4-7.5
			s-0.2-4.3-5.1-8c-4.7-3.4-10.3-5.2-16.1-5c-5.3,0.2-11.5-0.2-14.8,1.9s-7.8,4.8-8.4,7.8S38.6,42.4,41.4,44.8z"/>
	</g>
	<path id="forehead_wrinkle" class="st5" d="M53.7,38c0,0,4,2.1,6.5,2.1c1.6,0,2.4-2.5,4.2-3c2.2-0.6,6.5,0.8,7.3,1.3"/>
	<g id="eyes-3">
		<path d="M74.1,46c1.9,0,3.9,0.2,5.7,0.8c-0.4,2.4-1,4.8-1.9,7.1c-1.7,0.4-3.4,0.7-5.2,0.7c-0.4,0-1.1,0-1.8,0
			c-1.3,0.1-2.6,0-3.9-0.4c-0.7-0.5-2.6-5.1-3-6.6c2.7-0.9,5.5-1.4,8.3-1.5C73,46,73.5,46,74.1,46 M74.1,45.2c-0.6,0-1.1,0-1.8,0.1
			c-4.9,0.4-9.1,1.5-9.1,2s2.4,6.9,3.5,7.5c1.4,0.4,2.8,0.6,4.2,0.5c0.7,0,1.3,0,1.9,0c1.8-0.1,5.5-0.4,5.8-1s2.1-6.1,2-8.1
			C78.5,45.5,76.3,45.2,74.1,45.2L74.1,45.2z"/>
		<path d="M50.7,45.3V46c0.6,0,1.1,0,1.7,0.1c2.8,0.1,5.6,0.7,8.3,1.5c-0.4,1.5-2.3,6-3,6.6c-1.3,0.4-2.6,0.5-3.9,0.4
			c-0.8,0-1.4,0-1.8,0h-0.2c-1.6,0-3.2-0.2-4.7-0.5c-1-2.4-1.6-4.8-2.1-7.3c1.9-0.5,3.8-0.8,5.7-0.8V45.3 M50.7,45.2
			c-2.2,0-4.4,0.3-6.5,1c-0.1,2,1.9,7.7,2.2,8.3s3.7,0.7,5.5,0.8c0.5,0,1.2,0,1.9,0c1.4,0.1,2.9-0.1,4.2-0.5c1-0.5,3.5-6.9,3.5-7.5
			s-4.2-1.7-9.1-2C51.9,45.3,51.3,45.2,50.7,45.2L50.7,45.2z"/>
		<path class="st2" d="M60.2,49.5c0,0,2.7-1,4.7,0"/>
		<path id="Eye" class="st6" d="M56,51.3c0,1.5-0.5,1.1-1.2,1.1s-1.2,0.4-1.2-1.1s0-2.8,1.2-2.8C55.7,48.5,56,49.7,56,51.3z"/>
		<path id="Eye-2" class="st6" d="M74.6,50.8c0,1.6-0.5,1.2-1.2,1.2s-1.2,0.4-1.2-1.2s0-3,1.2-3C74.3,47.8,74.6,49.1,74.6,50.8z"/>
		<path class="st5" d="M67.7,44.8c0,0,4.5-4.1,6.9-4"/>
		<path class="st5" d="M58.9,45.9c-1.9-0.9-6.2-3.6-8.1-3.2"/>
	</g>
	<g id="suspenders">
		<polyline class="st7" points="31.6,125 31.6,93.8 38.1,90.5 38.1,125 		"/>
		<polyline class="st7" points="90.2,125 90.2,91.2 96.7,95.3 96.7,125 		"/>
	</g>
	<g id="beard-2">
		<path class="st3" d="M45.1,59.9c0,0,1.2,9.5,4.6,12.9s4.7,6.1,7.1,6.1s2.8-1.8,4.8-2.3c3.3-0.7,3.3,2.3,6.3,2.3
			c2.4,0,8.6-5.9,9.8-8.9s2.1-10.1,2.1-10.1S80,69,79.8,71.7s-1.4,13.1-4.1,15.9s-9.2,5.6-14.8,5.6S49.2,90.1,47.1,86s-1.4-7-2-11.4
			C44.6,70.4,45.1,59.9,45.1,59.9z"/>
	</g>
	<g id="mouth">
		<path class="st5" d="M58.2,73.8c1.5-0.5,3-0.8,4.6-0.8c1.5,0.2,4.1,2.2,5.4,2.5"/>
	</g>
	<g id="cigarette">
		<path id="cigarette-2" class="st2" d="M32.4,56.8c0,0-6.4-3.4-4.7-7.5S36,39,34.7,43.7s-6.7,10-10.6,6.7s-5.2-13.2-3.3-15.2"/>
		<path class="st8" d="M58.5,73.9l-7.6,9.2c0,0-0.7,0.4,0.2,0.8s1.5,0.8,1.5,0.8l1.3-1.5c1-1.2,2.3-2.8,3.4-3.9l3.2-3.6
			c0.4-0.4,0.6-0.9,1-1.3l0.5-0.6c0.2-0.2,0.3-0.3,0.4-0.5c0-0.1,0-0.1,0-0.2c-0.1-0.2-0.6-0.1-0.8,0l-1.2,0.1
			C59.7,73.4,59.1,73.6,58.5,73.9z"/>
	</g>
</g>
</svg>
