<?xml version="1.0" encoding="utf-8"?>
<!-- Generator: Adobe Illustrator 24.0.3, SVG Export Plug-In . SVG Version: 6.00 Build 0)  -->
<svg version="1.1" id="Layer_1" xmlns="http://www.w3.org/2000/svg" xmlns:xlink="http://www.w3.org/1999/xlink" x="0px" y="0px"
	 viewBox="0 0 125 125" style="enable-background:new 0 0 125 125;" xml:space="preserve">
<style type="text/css">
	.st0{fill:#D19A75;stroke:#020202;stroke-width:0.75;stroke-miterlimit:10;}
	.st1{fill:#FFFFFF;stroke:#020202;stroke-width:0.75;stroke-miterlimit:10;}
	.st2{fill:#F44711;stroke:#020202;stroke-width:0.75;stroke-miterlimit:10;}
	.st3{fill:#23211B;stroke:#000000;stroke-width:0.75;stroke-miterlimit:10;}
	.st4{fill:#6A3E00;stroke:#020202;stroke-width:0.75;stroke-miterlimit:10;}
	.st5{fill:none;stroke:#020202;stroke-width:0.75;stroke-miterlimit:10;}
	.st6{fill:#91E3F9;stroke:#020202;stroke-width:0.75;stroke-miterlimit:10;}
	.st7{fill:#08AF2B;}
</style>
<title>2</title>
<g id="Person_2">
	<g id="head">
		<path id="neck" class="st0" d="M76.4,82c0,0-0.7-0.3-0.7-0.9v-6.5l-25.3,1.3c0,0,0.3,7.7-0.3,8.4c0,0-1.5,1.9-0.6,3.7
			s6.8,5.7,10.9,6.3s14.2-0.2,16-2.6S79.9,83.1,76.4,82z"/>
		<path id="face" class="st0" d="M80.2,58.1c0,0-0.5,9-0.7,9.7c-0.3,1.2-0.8,2.4-1.4,3.5c-1.6,2.6-3.4,5-5.4,7.3c-0.9,1-3,4-4.2,4.3
			c-1.9,0.5-3.8,0.8-5.7,0.9c-1.2-0.1-5.6-0.7-6.6-1.2s-4.3-4.5-7-8.2s-4.2-6.6-4.4-7.5c-0.2-1.4-0.2-2.8-0.3-4.2l-0.5,0.1
			c0,0-0.1,0.9-0.9,1c-1.2,0.1-1.9-1.3-2.2-2.2c-0.5-1.5-0.3-3.1-0.8-4.6s-3-6.7-1-8c1.7-1.2,3.2,0.5,3.8,2c0.2,0.5,0.3,1.1,0.4,1.6
			l0.3-0.1c0,0,0-2.9,0-4.9c0.1-3.8-1.1-8,0.3-11.7c4.7-12.1,9.1-12.5,19.9-12.9c9.7-0.3,15.1,7.5,15.8,11.1
			c0.6,2.9,0.9,5.8,0.8,8.8c-0.2,2.7-0.5,9.3-0.5,9.3l0.3,0.1c0.4-1.1,0.8-2.2,1.3-3.2c0.3-0.9,1.3-1.3,2.2-0.9
			c0.9,0.3,1.3,1.3,0.9,2.2c-0.3,1-0.8,4-1,5.2c-0.1,0.9-0.1,1.8,0,2.7c0,0.8-0.3,3.6-1.5,3.6C81.7,61.8,79.9,61.8,80.2,58.1z"/>
	</g>
	<g id="collar">
		<rect x="49.7" y="89.3" class="st1" width="28.6" height="26.4"/>
		<path id="Collar-2" class="st1" d="M47.2,84.7c0.3-0.6,0.5-1.3,0.7-1.9c0.1-0.8,0.3-1.7,0.7-2.4c0.4-0.4,1.6-0.5,1.6-0.5
			s-1,1.5-0.5,2c1.2,1.1,2.4,2.1,3.8,2.9c1.5,0.9,8.2,4.3,8.9,4.7s-0.1,0.5-0.5,0.5c-1.5,0.2-2.8,0.9-4,1.8c-1,1.1-7.5,7.6-7.5,7.6
			S46.7,85.2,47.2,84.7z"/>
		<path id="collar-3" class="st1" d="M76.1,79.5c0,0,0.7-0.3,0.9,0.3s0.4,1.9,0.4,2.3c0.9,0.9,1.8,1.7,2.8,2.4l-2.9,14
			c0,0-6.4-4.7-8.9-6s-5.8-2.7-5.6-2.9s12.7-6.6,13.3-9.4c0-0.1,0-0.3,0-0.4L76.1,79.5z"/>
	</g>
	<g id="tie">
		<path class="st2" d="M58.3,107.5c0,0,1-4.9,1.4-6.2c0.3-1,1.2-4.7,1.2-5s1.7-0.3,2.3-0.4c1.2-0.1,2.2,0,2.4,0.7
			c0.5,1.7,0.9,3.4,1.2,5.2c0.2,1.6,1.6,9.4,1.6,9.9s1.1,3.2,0.8,3.5s-4,0.7-5.2,0.4s-6.4,0.2-6.2-0.4S58.3,107.8,58.3,107.5z"/>
		<path class="st2" d="M67.2,91.8c0,0.2-0.1,0.3-0.2,0.4c-0.3,0.4-0.6,0.8-1,1.2c-0.3,0.3-0.4,0.6-0.4,1c0.1,0.2,0.2,0.4,0.3,0.6
			c0.1,0.2,0.1,0.5-0.1,0.6c-0.1,0-0.2,0.1-0.2,0.1c-1.6,0.2-3.1,0.2-4.7,0.1c-0.1,0-0.2,0-0.3-0.1c-0.3-0.2-0.2-0.6,0-0.8
			s0.4-0.6,0.3-0.8c-0.1-0.2-0.2-0.3-0.4-0.4c-0.5-0.3-1.2-0.4-1.7-0.8c-0.2-0.1-0.4-0.3-0.6-0.5c-0.7-1,3.9-2.8,4.8-2.8
			c1.2,0,1.7,0.6,2.6,1c0.5,0.2,0.9,0.5,1.3,0.7C67,91.5,67.1,91.6,67.2,91.8z"/>
	</g>
	<g id="hair">
		<path class="st3" d="M45.1,48.4c0,0-1.2,5.8-1.9,4.2s-0.6-2.6-1.1-3.8s-2.3-4.5-2.1-5.1c0.1-2.3,0.1-4.7,0-7
			c-0.1-2.1-0.6-6.7,0.3-8.5c1-1.9,2.3-3.5,3.8-5c0.4-0.2,1.3-0.7,1.3-0.7c0-1.8,1-3.5,2.5-4.4c2.7-1.7,9.2-5,16.1-5.2
			s15,6.3,16.5,8.1c0.9,1.3,1.6,2.7,1.9,4.3c0,0,1.9,2.5,2,3.3c0,0.8,0,1.5,0,2.3c-0.1,2.7,2.5,8.7-0.2,11c-0.3,0.3-0.6,0.5-0.9,0.8
			c-0.2,1.7-0.5,3.4-0.9,5C82,48.9,81.8,51,81,51.4c-0.5,0.2-0.9,0.4-1.3,0.7c0.1-2.8,0.4-5.7,0.4-8.5S80,39,77.8,37.1
			c-1.3-1.1-3-1.6-4.6-1.4c-2.4,0.1-6.6,1.6-8-0.2s0.6-3.9-2-4.2c-2.3-0.3-4.7,0.5-7,0.5c-1.4,0.1-3.9,0-5.1-0.9l-0.7-0.5
			c-0.3,1.1-0.8,2.1-1.4,3.1c-0.7,1.2-1.1,2.5-1.3,3.8c-0.2,1.5-1.4,1.7-2,3S45.5,46.7,45.1,48.4z"/>
	</g>
	<g id="eyes">
		<path id="Eye" class="st4" d="M57.3,48.7c0,1.3-0.5,2.4-1.2,2.4s-1.2-1.1-1.2-2.4s0-2.4,1.2-2.4C56.9,46.3,57.3,47.4,57.3,48.7z"
			/>
		<path id="Eye-2" class="st4" d="M73.1,48.3c0,1.4-0.6,2.6-1.2,2.6s-1.2-1.2-1.2-2.6s0-2.6,1.2-2.6C72.7,45.7,73.1,46.8,73.1,48.3z
			"/>
		<path id="undereye" class="st5" d="M57,52.5c-0.6,0.5-1.3,0.9-2.1,1c-1.1,0-2.6-0.5-2.9-1.3"/>
		<path id="undereye-2" class="st5" d="M68.4,52.6c0.9,0.6,1.9,1.1,2.9,1.2c1-0.1,1.9-0.7,2.5-1.5"/>
		<path id="eyebrow" class="st5" d="M66.8,41.6c0,0,1.9-1.9,3.8-1.9s2.8,1.9,4.8,2.8"/>
		<path id="eyebrow-2" class="st5" d="M61.1,42.6c-0.9-0.8-1.8-1.4-2.9-1.9c-1.9-1.1-4.3-0.7-5.7,1c-1.9,1.9-1.9,1.9-2.9,1.9"/>
	</g>
	<g id="nose">
		<path class="st5" d="M64.9,52c0,0,2,7.9,2.1,8.6s1.1,3.3,0.8,3.7c-0.3,0.4-0.3,1.4-1.1,1.6c-0.9,0.1-1.8,0-2.7-0.1
			c-0.5-0.1-1-0.2-1.4-0.5c0,0-1.1,0.3-1.5,0.1c-0.4-0.3-0.7-0.7-0.7-1.2c0.2-0.5,0.5-1,0.9-1.4"/>
	</g>
	<g id="sweater">
		<path id="Sweater-2" class="st6" d="M121.1,125c0,0-2.4-10.9-4.7-15.3c-2.8-5.1-7.1-9.1-12.3-11.5c-5.6-2.5-24.7-14.7-24.7-14
			s-2.3,14.2-6.9,20.7s-8.5,9.1-9.1,9.1s-7.1-5-9.8-10.4s-5.3-15.3-5.6-16.3s-0.7-2.6-0.7-2.6s-24,12.6-26.4,13.7s-5.9,2.7-8.3,5.6
			s-6.7,14.2-7.4,17.5s-0.7,3.6-0.7,3.6"/>
	</g>
	<g id="alligator">
		<path class="st7" d="M88.9,118.5c-0.2,0-0.4,0-0.6,0c-0.4,0-0.7-0.1-1.1-0.2c-0.1,0-0.1-0.1-0.2-0.1c-0.2-0.1-0.3-0.2-0.5-0.2
			c-0.1,0-0.3-0.1-0.4-0.1c-0.4,0-0.7,0.1-1,0.3l-0.2,0.1c-0.2,0.1-0.4,0.2-0.6,0.2l0,0c-0.2,0-0.4-0.1-0.6-0.2
			c-0.3-0.2-0.6-0.3-1-0.4c-0.2,0-0.4,0.1-0.6,0.2l-0.2,0.1h-0.1c-0.2,0.1-0.5,0.1-0.7,0.1c-0.2,0-0.3,0-0.5,0
			c-0.3-0.1-0.5-0.3-0.7-0.5c-0.1-0.2-0.2-0.4-0.2-0.6c-0.3-0.9-0.1-1.8,0.4-2.5c0.4-0.4,0.9-0.6,1.4-0.7c0.4-0.1,0.7-0.1,1.1-0.2
			l0.7-0.1h0.2c0.2,0,0.4-0.1,0.7-0.1h0.1c0.3,0,0.5,0.1,0.7,0.3c0.1,0.1,0.1,0.3,0,0.5c-0.1,0.1-0.2,0.1-0.3,0.2
			c-0.3,0.1-0.7,0.1-1,0.1h-0.4c-0.3,0-0.5,0-0.8,0.1l-0.4,0.1c-0.2,0.1-0.4,0.3-0.4,0.5c0,0.2,0.2,0.5,0.4,0.5c0.1,0,0.2,0,0.4,0
			h0.2H83c0.3,0,0.6,0,0.9,0c0.3,0,0.6,0,0.8,0.1h0.2c0.2,0.1,0.4,0.1,0.6,0.1c0.2,0,0.5-0.1,0.7-0.2c0.1-0.1,0.3-0.1,0.4-0.1h0.1
			c0.1,0.1,0.2,0.1,0.3,0.1h0.1c0.1,0,0.2,0,0.3,0l2.2-0.4h0.2c0.1,0.2,0.2,0.5,0.2,0.7l-0.4,0.1c-0.3,0.1-0.6,0.2-0.8,0.3
			c-0.2,0.1-0.4,0.1-0.6,0.1l0,0h-0.2h-0.3h-0.1c-0.4,0-0.5,0.3-0.5,0.4c-0.1,0.4,0.4,0.5,0.5,0.6c0.3,0.1,0.6,0.2,0.9,0.2H89h0.1
			h0.2c0.1,0,0.3,0.1,0.4,0.1c0.2,0.1,0.4,0.1,0.5,0.2c-0.1,0.2-0.4,0.4-0.6,0.5C89.4,118.6,89.2,118.5,88.9,118.5z"/>
		<path d="M84.1,114L84.1,114c0.2,0,0.4,0.1,0.5,0.2l0,0h-0.1c-0.3,0.1-0.6,0.1-0.9,0.1h-0.4c-0.3,0-0.6,0-0.9,0.1
			c-0.2,0-0.3,0.1-0.5,0.1c-0.3,0.1-0.6,0.4-0.6,0.8v0.2c0,0.4,0.3,0.7,0.7,0.8c0.1,0,0.3,0.1,0.4,0.1h0.2H83c0.3,0,0.6,0,0.9,0
			c0.2,0,0.5,0,0.7,0.1h0.2c0.2,0.1,0.5,0.1,0.7,0.1h0.1c0.2,0,0.5-0.1,0.7-0.2c0.1,0,0.2-0.1,0.3-0.1l0,0c0.1,0.1,0.2,0.1,0.4,0.1
			h0.3c-0.3,0.1-0.5,0.3-0.6,0.7c0,0.3,0.1,0.7,0.8,1c0.3,0.1,0.7,0.2,1,0.2h0.3H89h0.2l0,0h0.1c-0.2,0-0.3,0-0.5,0
			c-0.2,0-0.4,0-0.6,0c-0.3,0-0.6-0.1-0.9-0.2l-0.2-0.1c-0.2-0.1-0.4-0.2-0.6-0.3c-0.2-0.1-0.4-0.1-0.6-0.1c-0.4,0-0.9,0.1-1.2,0.4
			l-0.2,0.1c-0.1,0.1-0.3,0.2-0.4,0.2c-0.1,0-0.3-0.1-0.4-0.2c-0.4-0.3-0.8-0.4-1.3-0.4l0,0c-0.3,0-0.5,0.1-0.7,0.2
			c0,0-0.1,0-0.1,0.1l-0.1,0.1h-0.1c-0.2,0-0.4,0.1-0.5,0.1c-0.1,0-0.3,0-0.4,0c-0.2-0.1-0.3-0.2-0.5-0.4c-0.1-0.2-0.1-0.3-0.1-0.5
			c-0.2-0.7-0.1-1.5,0.3-2.2c0.3-0.3,0.8-0.5,1.2-0.6c0.3-0.1,0.7-0.1,1.1-0.1l0.7-0.1h0.2C83.7,114,83.9,114,84.1,114 M89.6,115.8
			L89.6,115.8L89.6,115.8c-0.4,0.1-0.6,0.2-0.9,0.3c-0.2,0.1-0.3,0.1-0.5,0.1h-0.1h-0.3h-0.1l0.9-0.2L89.6,115.8 M84.1,113.2
			c-0.3,0-0.6,0-0.9,0.1c-0.6,0.1-1.2,0.1-1.8,0.2c-0.6,0.1-1.2,0.4-1.6,0.8c-0.6,0.8-0.8,1.9-0.5,2.8c0,0.3,0.2,0.5,0.3,0.8
			c0.2,0.3,0.5,0.5,0.9,0.6c0.2,0,0.4,0,0.6,0.1c0.2,0,0.5,0,0.7-0.1l0.2-0.1c0.2,0,0.5-0.3,0.7-0.3l0,0c0.6,0,1,0.6,1.6,0.6h0.1
			c0.3-0.1,0.6-0.2,0.9-0.4c0.3-0.2,0.6-0.2,0.9-0.3c0.1,0,0.2,0,0.3,0c0.2,0.1,0.4,0.2,0.6,0.3c0.4,0.2,0.8,0.3,1.2,0.3
			c0.2,0,0.4,0,0.7,0c0.3,0,0.5,0,0.8-0.1c0.5-0.1,0.8-0.5,0.9-1c0,0,0-0.1,0-0.1c0-0.1-0.2-0.1-0.3-0.1c-0.3,0-0.6-0.2-0.9-0.3
			h-0.1c-0.1,0-0.2,0-0.4,0h-0.2c-0.3,0-0.5,0-0.8-0.1c-0.1-0.1-0.5-0.2-0.1-0.3h0.1c0.2,0,0.3,0,0.4,0l0,0c0.2,0,0.4,0,0.7-0.1
			c0.4-0.1,0.8-0.3,1.3-0.4c0.1,0,0.2-0.1,0.2-0.1c0-0.1,0-0.1,0-0.2c0-0.3-0.1-0.5-0.2-0.8c0-0.1-0.1-0.2-0.2-0.2
			c-0.1,0-0.1-0.1-0.2-0.1c-0.1,0-0.2,0-0.2,0l-2.2,0.5h-0.2H87c-0.1,0-0.2-0.1-0.3-0.1c-0.1,0-0.2,0-0.2,0c-0.4,0-0.7,0.2-1.1,0.3
			h-0.1c-0.2,0-0.5-0.1-0.7-0.1c-0.3-0.1-0.6-0.1-0.9-0.1c-0.4,0-0.9,0-1.3,0.1h-0.2c-0.1,0-0.2,0-0.3,0c-0.1,0-0.1,0-0.1-0.1
			s0.1-0.1,0.2-0.2l0.3-0.1c0.3,0,0.5-0.1,0.8-0.1c0.5,0,1,0,1.4-0.1c0.2,0,0.4-0.1,0.6-0.3c0.3-0.3,0.3-0.7,0-1
			c-0.2-0.3-0.6-0.4-0.9-0.4L84.1,113.2z"/>
	</g>
	<path id="mouth" class="st1" d="M54.5,66.3c0.9,0.3,1.8,0.9,2.3,1.7c1.1,1.4,2.6,2.4,4.3,2.9c2.4,0.6,3.5,0.8,3.3,2
		s-2.1,1.7-3.3,2.2c-1.9,0.4-4,0.1-5.7-0.9c-1.2-0.7-2-2-2.2-3.4C52.8,69.1,53.1,65.6,54.5,66.3z"/>
</g>
</svg>
