<?xml version="1.0" encoding="utf-8"?>
<!-- Generator: Adobe Illustrator 24.0.3, SVG Export Plug-In . SVG Version: 6.00 Build 0)  -->
<svg version="1.1" id="Layer_1" xmlns="http://www.w3.org/2000/svg" xmlns:xlink="http://www.w3.org/1999/xlink" x="0px" y="0px"
	 viewBox="0 0 125 125" style="enable-background:new 0 0 125 125;" xml:space="preserve">
<style type="text/css">
	.st0{fill:#020202;stroke:#020202;stroke-width:0.75;stroke-miterlimit:10;}
	.st1{fill:#E8D5AA;stroke:#020202;stroke-width:0.75;stroke-miterlimit:10;}
	.st2{fill:#020202;}
	.st3{fill:#FFFFFF;stroke:#020202;stroke-width:0.75;stroke-miterlimit:10;}
	.st4{fill:none;stroke:#020202;stroke-width:0.75;stroke-miterlimit:10;}
	.st5{fill:#0096FF;stroke:#000000;stroke-width:0.25;stroke-miterlimit:10;}
</style>
<title>Artboard 10</title>
<g id="person_5">
	<g id="turtleneck">
		<path class="st0" d="M115.4,109.8c-2.7-5-7-9-12.2-11.4c-4.6-2.1-9.1-4.4-13.6-6.8c-2.1-1.1-4.2-2.2-6.3-3.4c-1-0.6-1.5-1-2.6-1.5
			c-0.5-0.3-1.1-0.4-1.6-0.7s-0.9-1.8-1.3-2.2c-1.3-1.2-2.2-1.9-2.6-3.5c-0.1-0.4,0.2-1.5,0.1-2c0-0.2-0.1-5,0-3.7l-26.1-0.2
			c0,0,0.4,3.8,0.4,3.9c0,0.8-0.7,1.7-0.5,2.5c0.1,0.8,0,1.5-0.3,2.2c-0.5,1.4-2.3,1.5-3.4,2.3s-1.3,2-2.7,2.6s-2.7,1.3-4,1.9
			c-5.9,2.8-11.7,5.7-17.6,8.6c-0.2,0.1-0.5,0.2-0.7,0.3c-9.6,3.9-12.6,13.5-14.6,22.9c-0.7,3.3-1,4.4-1,4.4l115.4-0.3
			C120.3,125.7,117.7,114.2,115.4,109.8z"/>
	</g>
	<path id="head-3" class="st1" d="M83.8,49.3c0,0,1.6-10.9,1.5-13.1c-0.2-3.4-0.8-7-2.9-9.8c-3.7-5-9.6-9.3-15.9-10.4
		S53.9,17,48.7,20.3c-0.9,0.6-1.8,1.2-2.7,1.9c-6.2,4.8-9.3,9.8-7.8,17.7s1.8,8.3,1.8,8.3s-0.5-3.6-2.2-4.9s-4-1.8-5,0.8
		c-0.9,2.4-0.6,5.2,0.9,7.3c1.4,2.1,2.8,7.4,3.1,8.8s2,2.6,3,3.3c0.8,0.3,1.6,0.3,2.4,0c0,0,0.4,4.4,1.6,6.2
		c3.8,5.3,10.3,11.3,17.1,11.7c6.6,0.4,11.6-3.7,16-8.1c0.6-0.6,4-3.9,4.4-4.9c0.3-1.7,0.5-3.5,0.5-5.3c0,0,1.8,1.5,2.5,0.9
		s2.1-0.9,2.8-2.1s0.4-4.4,1.3-5.8s2.1-2.4,2.9-4.4s1.4-4.9,0-7c-0.9-1.4-2.8-1.9-4.3-1c0,0-0.1,0-0.1,0.1
		C85.5,45.3,84.4,47.3,83.8,49.3z"/>
	<path id="nose-4" class="st1" d="M65.9,51.2c1-0.1,1.7-0.6,2.3,0.5s1.4,3.2,0.7,4.5s-3.5,3.1-5.5,1.2l-2-1.9c0,0-1.6,1.7-2.4,0.5
		c-0.6-0.7-0.6-1.7,0-2.3c0.3-0.3,1.1-0.2,1.1-0.2"/>
	<g id="hair-3">
		<path class="st2" d="M56.6,25.7c0,0,1.5-10.9,4.7-11.7"/>
		<path class="st2" d="M62.5,25.7c0,0,1.5-10.9,4.7-11.7"/>
		<path class="st2" d="M40.3,49.9c1.7-2.1,1.3-5.1,0.7-7.7c-1-4-2.6-8-2.3-12.2c0,0.5-5.3,3.6-5.8,4.2c-0.3,0.3-0.5,0.6-0.6,0.9
			c-0.1,0.4-0.1,0.9,0,1.4c0.7,2.9,2.9,5.2,4.7,7.6C38.3,45.9,39.4,47.9,40.3,49.9z"/>
		<path class="st2" d="M83.8,49.9c-1.8-2-1.6-5-1-7.6c0.8-4.1,2.2-8.1,1.8-12.3c0.1,0.5,5.4,3.4,6,4c0.3,0.3,0.5,0.6,0.7,0.9
			c0.1,0.4,0.1,0.9,0,1.4c-0.6,2.9-2.7,5.3-4.4,7.8C85.6,45.8,84.6,47.8,83.8,49.9z"/>
	</g>
	<g id="glasses">
		<circle class="st3" cx="53.1" cy="42.3" r="5.4"/>
		<circle class="st3" cx="71.8" cy="42.3" r="5.4"/>
		<path class="st4" d="M66.3,42.3c-1.1-0.9-2.4-1.5-3.9-1.6c-1.4,0.1-2.8,0.6-3.9,1.6"/>
	</g>
	<g id="mouth-2">
		<path class="st1" d="M58.6,58.7c0,0-4.7,3-5.6,4.3s-2,5.9-0.8,7"/>
		<path class="st1" d="M71.3,58.7c0,0,2.2,3,3.7,4.7c1.5,1.7,0.9,5.9-0.4,6.6"/>
		<line class="st4" x1="59.2" y1="65.9" x2="67.2" y2="65.9"/>
		<path class="st4" d="M60.8,73.9c0,0,3.9-1.2,5.9,0"/>
	</g>
	<circle class="st5" cx="53.1" cy="42.3" r="0.8"/>
	<circle class="st5" cx="72.1" cy="42.3" r="0.8"/>
</g>
</svg>
