<?xml version="1.0" encoding="utf-8"?>
<!-- Generator: Adobe Illustrator 24.0.3, SVG Export Plug-In . SVG Version: 6.00 Build 0)  -->
<svg version="1.1" id="Layer_1" xmlns="http://www.w3.org/2000/svg" xmlns:xlink="http://www.w3.org/1999/xlink" x="0px" y="0px"
	 viewBox="0 0 125 125" style="enable-background:new 0 0 125 125;" xml:space="preserve">
<style type="text/css">
	.st0{fill:#0B0B7F;stroke:#020202;stroke-width:0.75;stroke-miterlimit:10;}
	.st1{fill:#FCE7D4;stroke:#020202;stroke-width:0.75;stroke-miterlimit:10;}
	.st2{fill:#7F4C0E;stroke:#000000;stroke-width:0.75;stroke-miterlimit:10;}
	.st3{fill:none;stroke:#020202;stroke-width:0.75;stroke-miterlimit:10;}
	.st4{fill:none;stroke:#231F20;stroke-width:0.75;stroke-miterlimit:10;}
	.st5{fill:#F7DE48;stroke:#020202;stroke-width:0.75;stroke-miterlimit:10;}
	.st6{fill:#6A3E00;stroke:#020202;stroke-width:0.75;stroke-miterlimit:10;}
	.st7{fill:#EAE4E1;stroke:#020202;stroke-width:0.75;stroke-miterlimit:10;}
	.st8{fill:#FFFFFF;stroke:#020202;stroke-width:0.75;stroke-miterlimit:10;}
</style>
<title>Artboard 25 copy 2</title>
<g id="Frames">
	<g id="Layer_77">
		<path id="shirt-3_1_" class="st0" d="M116.4,125c0-7.1-0.7-5.4-1.3-10.6c-0.8-6.3-1.9-12.5-3.5-18.6
			c-2.5-10.1-10.8-13.2-18.5-17.2c-1.9-1-12.9-4.3-12.9-4.3h-0.8c-2-0.2-30-1.7-30-1.7c-9,4.2-21.6,7.5-29.5,14.5
			c-5.2,4.6-9.4,15.2-9.4,21.8c0,1.8-0.4,3.4-0.4,5.2c0,2.2-0.9,4.4-0.9,6.6c0,1.2,0.2,3.3,0.2,4.5"/>
		<path class="st1" d="M49.3,72.5l-7.4,3.1c0,3.6,0,7.1,0,10.7c0,2.7,0,5.5,0,8.2c0,5.5,1.2,10,5.6,13.6c4.6,3.8,10.3,6,16.2,6.2
			c4.8,0.1,9.6-0.9,14-2.9c2.8-1.3,5.8-3.1,7.4-6c2-3.6,1.1-8.2,1.3-12.1c0.2-5.7,0.3-11.3,0.4-17c-2.1-1-4.4-1.7-6.6-2.2
			C71.5,72.2,56.4,71.7,49.3,72.5z"/>
		<path id="head-3" class="st1" d="M49,81.4c0,0,1-6.2,0.9-7.9s0-7.9,0-7.9c-1-1.4-1.9-2.9-2.7-4.5c-0.6-2-1.4-3.9-2.3-5.8
			c-1.3-2.7-1.1-6.4,0.6-6.8s3.7,1.1,4.4,2.1s3.1,4.5,3.1,4.5s0.3-4.8,1-6.5s5.4-8.4,5.9-11s0.3-3.3,0.3-3.3s4.6,2.8,7.9,0.9
			s7-6.8,7-6.8s1.1,6.1,2.1,6.5s6.3,1.2,7,3.2s1.4,7,1,12S84,65.9,82.9,68.6c-1.1,2.4-2.3,4.8-3.7,7.1l1.1,4.5"/>
		<path class="st2" d="M63.6,114.4c0,0,0.3-5.5,0.5-7.4"/>
		<path class="st1" d="M62.8,78.6c0,0,2.7,4.3,7.2,4.2c4.2-0.1,5.2-5.3,5.2-5.3"/>
		<path class="st3" d="M63.3,85.7c-1.5-0.4-3-0.8-4.5-1.4"/>
		<path class="st4" d="M63.8,79.9c0,0-3.8-0.5-4.9-2.4"/>
		<path class="st4" d="M76.5,34.8c2,1.1,4.4,1.3,6.4,2.3c2.4,1.3,2,4.7,2.3,7S84.9,57,83.5,65.8C83.2,68,82.4,70,81.4,72
			c-1.6,2.7-3.9,4.9-6.6,6.5"/>
		<path class="st4" d="M75,31.3c0,0.3,0,0.6,0,0.9"/>
		<path class="st4" d="M50.5,64.9c0.4,0.3,0.9,0.2,1.2-0.1c0.7-0.5,0.9-0.1,0.9-0.1"/>
		<path class="st4" d="M47.5,62.4c-0.5-1-0.4-2.8-1.2-4c-1-1.7-1.8-3.6-2.3-5.5c-0.3-1.3,0.3-3.9,1.4-4.2s2.8-0.8,4,1.3
			s3.5,5.3,3.5,5.3s0.1-4.9,1.5-7.6s4.8-6.8,4.9-8.1s1.8-3.6,1.1-4.4s-1.2,0.1,3,0.6"/>
		<path id="earring" class="st5" d="M44.2,63.5c0.2,1.9,1.9,3.4,3.8,3.2s3.4-1.9,3.2-3.8c-0.2-1.9-1.9-3.4-3.8-3.2l0,0
			C45.4,59.8,44,61.5,44.2,63.5z"/>
		<path class="st4" d="M76.5,40.5c0,0,2.9-2.1,4.5,1.7"/>
		<path class="st4" d="M65.7,40.1c-1.4-0.5-3,0-3.8,1.2"/>
		<path class="st6" d="M77.1,55.7c-0.1,0.6,0.4,1.2,1,1.2c0.6,0.1,1.2-0.4,1.2-1c0-0.1,0-0.3,0-0.4c0.1-0.6-0.4-1.2-1-1.2
			c-0.6-0.1-1.2,0.4-1.2,1C77,55.4,77,55.5,77.1,55.7z"/>
		<path class="st6" d="M63.9,55.5c0.2,0.6,0.8,0.9,1.4,0.8c0.6-0.2,0.9-0.8,0.8-1.4c-0.2-0.5-0.6-0.8-1.1-0.8
			C64.3,54.2,63.8,54.8,63.9,55.5z"/>
		<path class="st4" d="M79.7,59.9c0,0-0.1,0.4-1.4,0.1s-1.6-0.9-1.6-0.9"/>
		<path class="st4" d="M65.8,59c0,0-1.2,1.5-2.3,1.3c-0.6-0.2-1.1-0.5-1.6-0.9"/>
		<path class="st4" d="M66.1,44.7c0,0-2.3-2.5-3.8,0.3s-2.1,4.2-2.1,4.2"/>
		<path class="st4" d="M77,45.2c0,0,1.5-1.7,3.3,0.6c1,1.3,1.8,2.7,2.3,4.3"/>
		<path id="nose-4" class="st4" d="M70.7,59.4c0,0,1.7,3.1,3.3,4.1c7,4.3-5.5,7-6,3.3"/>
		<path id="hair-10" class="st7" d="M44.7,48.8c0,0-2.1-7-2.1-10.1c0-6.7,3.5-13.3,3.5-13.3c-0.2-1.7,0-3.5,0.4-5.1
			c0.7-2.2,5.4-7.4,10.1-7.9s8.1,0.2,9.1,0.7c1.4,0.8,2.7,1.6,4,2.5c2.6-1.2,5.6-1.8,8.5-1.6c4.5,0.4,8.3,1.4,9.7,3.2
			s3.1,3.6,3.3,6.7c0.1,2,0,4-0.1,6c0.5,1.6,0.8,3.2,0.7,4.9c-0.1,2.4-1.9,7.4-2.9,9.6c-1.1,2-2.3,3.9-3.7,5.8c0,0-0.2-7.8-0.1-9.3
			s-1.3-4-3-4.4s-4.8-0.7-5.4-1.7S75,31.6,75,31.6s-0.8,0.4-3,1.6s-3.1,2.5-4.7,3.1s-4-0.2-4.8-0.3c-0.8-0.4-1.6-0.9-2.4-1.5
			c0.3,1.7,0.3,3.4-0.2,5c-1.1,2.5-2.5,4.8-4.2,7C54,48.8,53,55.3,53,55.3s-4.3-5.8-5.3-6.4C46.7,48.4,45.6,48.4,44.7,48.8z"/>
		<path class="st8" d="M66.4,71.7c-0.3-0.3-0.5-0.5-0.8-0.8c-0.4-0.4-1.5-2-2.2-1.8s-0.7,2.8-0.7,3.4c-0.1,0.7,0.1,1.5,0.5,2.1
			c0.5,0.5,1.1,0.9,1.9,1.1c0.9,0.3,1.7,0.5,2.6,0.7c0.5,0.1,1.1,0.1,1.6,0s1-0.5,1.1-1s-0.1-1.1-0.6-1.4c-0.4-0.3-0.9-0.6-1.4-0.8
			C67.7,72.8,67,72.3,66.4,71.7z"/>
	</g>
</g>
</svg>
