<?xml version="1.0" encoding="utf-8"?>
<!-- Generator: Adobe Illustrator 24.0.3, SVG Export Plug-In . SVG Version: 6.00 Build 0)  -->
<svg version="1.1" id="Person_1" xmlns="http://www.w3.org/2000/svg" xmlns:xlink="http://www.w3.org/1999/xlink" x="0px" y="0px"
	 viewBox="0 0 125 125" style="enable-background:new 0 0 125 125;" xml:space="preserve">
<style type="text/css">
	.st0{fill:#FCE7D4;stroke:#020202;stroke-width:0.75;stroke-miterlimit:10;}
	.st1{fill:#FFFFFF;stroke:#020202;stroke-width:0.75;stroke-miterlimit:10;}
	.st2{fill:none;stroke:#020202;stroke-width:0.75;stroke-miterlimit:10;}
	.st3{fill:#F9F7E1;stroke:#020202;stroke-width:0.75;stroke-miterlimit:10;}
	.st4{fill:#0B0B7F;stroke:#020202;stroke-width:0.75;stroke-miterlimit:10;}
	.st5{fill:#F44711;stroke:#020202;stroke-width:0.75;stroke-miterlimit:10;}
	.st6{fill:#008E19;stroke:#020202;stroke-width:0.75;stroke-miterlimit:10;}
	.st7{fill:#F7DE48;stroke:#020202;stroke-width:0.75;stroke-miterlimit:10;}
</style>
<title>1</title>
<g id="head_copy">
	<path id="neck" class="st0" d="M76,79.9c0,0-0.7-0.3-0.7-0.9v-6.7l-25.9,1.3c0,0,0.3,7.9-0.3,8.6c0,0-3.1,2.3-2.2,4.2
		c1.9,3.9,7.2,6.2,11.2,6.9c5,0.8,12.6,0,17-2.8C78,88.6,79.8,81.6,76,79.9z"/>
	<path id="face" class="st0" d="M79.9,55.5c0,0-0.5,9.1-0.7,9.9c-0.3,1.3-0.8,2.5-1.5,3.6c-1.7,2.6-3.5,5.1-5.5,7.5
		c-1,1-3.1,4.1-4.3,4.4c-1.9,0.5-3.9,0.8-5.8,0.9c-1.2-0.1-5.7-0.7-6.7-1.3S51,76,48.3,72.2s-4.3-6.8-4.4-7.7
		c-0.2-1.4-0.3-2.9-0.3-4.3l-0.5,0.1c0,0-0.1,1-0.9,1.1c-1.2,0.2-1.9-1.3-2.2-2.3c-0.5-1.5-0.3-3.2-0.8-4.7s-3.1-6.9-1.1-8.2
		c1.8-1.2,3.3,0.5,3.9,2.1c0.2,0.5,0.3,1.1,0.4,1.6l0.3-0.1c0,0,0-3,0-5c0.1-3.9-1.1-8.2,0.3-11.9c4.8-12.4,9.3-12.9,20.4-13.2
		c9.9-0.3,15.4,7.7,16.2,11.3c0.7,3,1,6,0.9,9c-0.1,2.7-0.5,9.5-0.5,9.5l0.3,0.1c0.4-1.1,0.8-2.2,1.3-3.3c0.4-0.9,1.4-1.3,2.3-0.9
		c0.8,0.4,1.2,1.3,0.9,2.2c-0.3,1.1-0.8,4.1-1,5.4c-0.1,0.9-0.1,1.8,0,2.7c0,0.8-0.4,3.7-1.6,3.7C81.4,59.2,79.6,59.3,79.9,55.5z"/>
</g>
<g id="shirt_copy">
	<rect x="48.7" y="87.4" class="st1" width="29.3" height="27.1"/>
	<path id="Collar" class="st1" d="M46.1,82.7c0.3-0.6,0.6-1.3,0.7-2c0.1-0.9,0.3-1.7,0.7-2.5c0.4-0.4,1.6-0.5,1.6-0.5s-1,1.5-0.5,2
		c1.2,1.1,2.5,2.1,3.9,3c1.6,0.9,8.4,4.4,9.1,4.8S61.6,88,61.2,88s-3.5,0.4-4.5,1.5s-7.3,8.2-7.3,8.2S45.6,83.2,46.1,82.7z"/>
	<path id="collar-2" class="st1" d="M75.7,77.4c0,0,0.8-0.3,1,0.3s0.4,2,0.4,2.3c0.9,0.9,1.8,1.7,2.8,2.4l-3,14.3
		c0,0-6.6-4.8-9.1-6.1s-5.9-2.8-5.8-3s13-6.8,13.6-9.6c0-0.1,0-0.3,0-0.4V77.4z"/>
	<line class="st2" x1="59.7" y1="88.3" x2="59.7" y2="110.3"/>
	<line class="st2" x1="65.6" y1="89.4" x2="65.6" y2="110.7"/>
	<circle id="button" class="st1" cx="62.6" cy="95.4" r="1.1"/>
	<circle id="button-2" class="st1" cx="62.6" cy="103.9" r="1.1"/>
</g>
<path id="Sweater" class="st3" d="M121,125c0,0-1.8-12.3-4.2-16.8c-2.8-5.2-7.2-9.3-12.5-11.8c-5.8-2.6-25.2-15-25.2-14.3
	s-2.4,14.6-7.1,21.2s-8.8,9.3-9.4,9.3s-7.3-5.1-10-10.6s-5.4-15.7-5.8-16.7s-0.7-2.7-0.7-2.7s-24.5,12.8-27,14s-6.1,2.8-8.5,5.7
	s-6.8,14.5-7.6,17.9c-0.4,1.5-0.6,3.1-0.8,4.7"/>
<path id="Stripe" class="st4" d="M66.2,125c4.5-2.8,8.5-6.3,11.8-10.5c2-2.3,3.9-4.7,5.6-7.2c3.2-5.1,4.3-11.2,5.7-16.9
	c0.2-0.8,0.3-1.6,0.1-2.4l-4.9-3c-2.2,10.7-5.2,21.4-14.3,28.7c-2.4,2.1-4.9,4-7.5,5.8c-3.8-1.9-7.1-4.5-9.8-7.9
	c-3-3.8-5.6-7.9-7.6-12.3c-0.5-1.2-5.1-13.6-4.5-13.9l-5.5,2.9c0,0,2.9,9.4,4.2,11.9s1.5,4.1,4.7,8.8c2.7,3.9,5.8,7.4,9.4,10.5
	c2.5,2,5.1,3.8,7.9,5.5"/>
<path id="Stripe-2" class="st5" d="M84.5,85c-3.2-1.9-5.5-3.2-5.5-2.9c0,0.7-2.4,14.6-7.1,21.2s-8.8,9.3-9.4,9.3s-6.8-5.5-9.5-11
	c-2.4-5.3-4.5-10.8-6.2-16.3c-0.3-1-0.7-2.7-0.7-2.7l-5.2,2.8c-0.6,0.3,3.9,12.7,4.5,13.9c2,4.4,4.5,8.6,7.6,12.3
	c2.6,3.3,6,6,9.8,7.9c2.6-1.8,5.1-3.7,7.5-5.8C79.3,106.4,82.3,95.7,84.5,85z"/>
<g id="eyes_copy">
	<path id="Eye" class="st6" d="M56.5,45.9c0,1.4-0.6,2.5-1.2,2.5S54,47.2,54,45.9s0-2.5,1.3-2.5C56.1,43.4,56.5,44.5,56.5,45.9z"/>
	<path id="Eye-2" class="st6" d="M72.6,45.4c0,1.5-0.6,2.7-1.2,2.7s-1.3-1.2-1.3-2.7s0-2.7,1.3-2.7C72.2,42.8,72.6,44,72.6,45.4z"/>
	<path id="undereye" class="st2" d="M56.2,49.7c-0.6,0.6-1.3,0.9-2.1,1.1c-1.1,0-2.7-0.6-3-1.3"/>
	<path id="undereye-2" class="st2" d="M67.8,49.8c0.9,0.7,1.9,1.1,3,1.3c1-0.1,1.9-0.7,2.5-1.5"/>
	<path id="eyebrow" class="st2" d="M66.2,38.6c0,0,1.9-1.9,3.9-1.9s2.9,1.9,4.9,2.9"/>
	<path id="eyebrow-2" class="st2" d="M60.4,39.6c-0.9-0.8-1.9-1.5-2.9-2c-1.9-1.1-4.4-0.7-5.8,1c-2,2-2,2-2.9,2"/>
</g>
<g id="nose_copy">
	<path class="st2" d="M64.2,49.2c0,0,2.1,8.1,2.2,8.8s1.1,3.4,0.8,3.8s-0.3,1.5-1.1,1.6c-0.9,0.1-1.9,0-2.8-0.1
		c-0.5-0.1-1-0.2-1.4-0.5c0,0-1.1,0.3-1.5,0.1c-0.4-0.3-0.7-0.8-0.7-1.3c0.2-0.5,0.5-1,0.9-1.4"/>
</g>
<path class="st7" d="M80,24.7h-0.5c0.3,0.2,0.5-0.4,0.4-0.8c-1.6-4.9-6-8.6-10.9-10.3c-5.2-1.8-12.8-2.3-17.6,0.8
	c-4.5,2.9-7.9,7.3-9.7,12.3c-0.6,1.6-1,3.4-1.7,5c-0.7,1.6-1.9,3-3.4,3.9C35,36.5,33,36.2,31.7,35c-1.1,3.1,0.6,6.5,3.7,7.6
	c1.2,0.4,2.5,0.4,3.8,0.1l0.1,3.1c1.5,0.6,2.6,1.8,3.2,3.3c1.1-1.9,0.8-4.4,1.7-6.4c0.8-1.7,2.6-3,2.7-4.9c0.2-2.8-3.3-5.2,3.2-8.7
	c0.1-0.1,0.3-0.1,0.5-0.1c2.2-0.1,4.1,1.3,6,2.3c3.3,1.8,7.1,2.4,10.8,1.9c3.7-0.6,7-2.6,9.2-5.6c-0.8,2.3-1,4.8-0.7,7.2
	c0.4,2.4,1.6,4.6,2.5,6.9c1,1.9,1.6,4,1.7,6.1c0,0.2,0.1,0.3,0.3,0.3c0.1,0,0.2-0.1,0.3-0.2c0.3-0.5,0.5-1.1,0.8-1.6
	c0.4-0.7,0.7-1.5,0.9-2.2c1.3-4.4,1.1-9.1-0.7-13.4c-0.1-0.2-0.2-0.5-0.2-0.8c0.1-0.7,1-0.9,1.6-0.6c0.6,0.4,1,0.9,1.2,1.6
	c0.8-2.3-0.4-4.9-2.7-5.7C81.1,24.7,80.5,24.7,80,24.7L80,24.7z"/>
<path id="mouth" class="st1" d="M53.7,63.9c1,0.3,1.8,0.9,2.3,1.8c1.1,1.4,2.6,2.4,4.4,2.9c2.4,0.6,3.6,0.8,3.3,2.1
	s-2.1,1.7-3.3,2.2c-2,0.4-4.1,0.1-5.8-1c-1.2-0.8-2-2-2.2-3.4C51.9,66.7,52.2,63.2,53.7,63.9z"/>
</svg>
